v 0.0517103 0.539646 0.10696
v -0.123554 0.48798 0.108439
v -0.0899972 0.501488 0.109016
v -0.0717583 0.507339 0.109016
v -0.0670561 0.503138 0.13185
v -0.052807 0.501457 0.149723
v -0.0341406 0.499994 0.165251
v -0.0287972 0.491279 0.187473
v -0.00735229 0.488478 0.199603
v 0.0148051 0.484774 0.209763
v 0.0369625 0.484837 0.209831
v 0.0517103 0.481351 0.21469
v 0.0666007 0.476184 0.221129
v 0.069878 0.537156 0.10696
v -0.347123 0.221684 0.10696
v -0.169792 0.462365 0.107997
v -0.125834 0.482502 0.125887
v -0.112297 0.490657 0.117953
v -0.145711 0.47497 0.115285
v -0.0961956 0.495201 0.125887
v -0.0813765 0.496104 0.140701
v -0.0665574 0.495855 0.155499
v -0.0517383 0.494081 0.170297
v -0.0517383 0.488074 0.183939
v -0.0285835 0.475157 0.219056
v -0.0517383 0.480479 0.199909
v -0.00735229 0.480542 0.21469
v 0.0148051 0.47357 0.229148
v 0.044372 0.473445 0.228978
v 0.0517103 0.460934 0.247173
v 0.0666007 0.460031 0.245797
v 0.0814198 0.458879 0.244132
v 0.0892568 0.473227 0.219379
v 0.0990174 0.47883 0.205006
v 0.123668 0.474441 0.201115
v 0.140126 0.473352 0.192111
v 0.153164 0.472792 0.182818
v 0.154019 0.484276 0.154157
v 0.167698 0.485584 0.132682
v 0.181662 0.485148 0.108506
v 0.281335 0.41294 0.108948
v 0.358209 0.32293 0.108133
v -0.252224 0.221684 0.277244
v -0.342278 0.221684 0.125054
v -0.325963 0.30522 0.163552
v -0.332161 0.303602 0.140701
v -0.335225 0.303602 0.125887
v -0.337148 0.310574 0.109016
v -0.332304 0.331178 0.107997
v 0.374881 0.226664 0.108523
v 0.370463 0.223925 0.127823
v 0.29423 0.22324 0.280116
v -0.291124 0.371763 0.153511
v -0.284142 0.372386 0.170297
v -0.157681 0.46277 0.133906
v -0.325037 0.346117 0.108506
v -0.304732 0.37055 0.109016
v -0.133528 0.474037 0.141262
v -0.103249 0.488354 0.140463
v -0.0877886 0.488572 0.156365
v -0.0652037 0.487887 0.176719
v -0.0369905 0.467314 0.229521
v -0.00735229 0.472854 0.227958
v -0.0517383 0.473196 0.213806
v -0.0658449 0.473227 0.20679
v 0.0165862 0.460404 0.249994
v -0.00521492 0.460934 0.247309
v 0.0380312 0.457168 0.254003
v 0.0517103 0.448764 0.263517
v 0.0725141 0.445901 0.263449
v 0.103221 0.443691 0.257877
v 0.108137 0.457074 0.237591
v 0.111842 0.470675 0.21418
v 0.125806 0.466038 0.21469
v 0.141195 0.459346 0.216695
v 0.155301 0.458879 0.207197
v 0.170263 0.458101 0.195951
v 0.182945 0.458195 0.183361
v 0.162854 0.47385 0.17045
v 0.175749 0.474597 0.153596
v 0.188074 0.47497 0.134279
v 0.201326 0.474566 0.109016
v 0.214507 0.46666 0.109016
v 0.227901 0.457883 0.109016
v 0.24557 0.444998 0.109016
v 0.271289 0.415586 0.131833
v 0.285111 0.403946 0.125887
v 0.294872 0.398406 0.109016
v 0.2616 0.431553 0.110053
v 0.357283 0.321187 0.123627
v 0.370748 0.30438 0.109016
v 0.378942 0.282407 0.108506
v -0.261628 0.275808 0.280523
v -0.272814 0.221684 0.259847
v -0.33095 0.221684 0.155805
v -0.318696 0.296194 0.185111
v -0.321546 0.318417 0.170297
v -0.325108 0.324113 0.154599
v -0.330237 0.318417 0.140701
v -0.33323 0.318417 0.125887
v -0.325678 0.333201 0.140701
v -0.326461 0.337869 0.126396
v 0.380723 0.252279 0.109016
v 0.376733 0.244342 0.125887
v 0.371105 0.24207 0.148924
v 0.365262 0.224547 0.149145
v 0.340896 0.225325 0.212175
v 0.310261 0.225014 0.261139
v 0.307696 0.239362 0.272827
v 0.310973 0.266191 0.27541
v 0.266231 0.340671 0.280523
v -0.302095 0.366846 0.13715
v -0.30181 0.361306 0.155499
v -0.295327 0.362239 0.170297
v -0.279226 0.370954 0.18625
v -0.14906 0.45972 0.1573
v -0.264122 0.371297 0.212362
v -0.313352 0.35838 0.125887
v -0.315418 0.359532 0.109016
v -0.121702 0.473445 0.158846
v -0.0826589 0.474535 0.193385
v -0.104104 0.472014 0.18117
v -0.0369905 0.458288 0.243266
v -0.0221001 0.459626 0.245305
v -0.0520945 0.460342 0.234177
v -0.0665574 0.459035 0.229555
v -0.081234 0.45891 0.221995
v 0.0221434 0.449604 0.26401
v 0.0074668 0.441574 0.273201
v -0.0175404 0.445403 0.264995
v 0.0369625 0.441823 0.273337
v 0.0598323 0.434789 0.279215
v 0.0818472 0.429903 0.280523
v 0.0961676 0.430525 0.275885
v 0.110987 0.427787 0.274033
v 0.124238 0.430837 0.265012
v 0.123882 0.445745 0.246494
v 0.127658 0.457572 0.227381
v 0.142976 0.447363 0.233956
v 0.165846 0.445496 0.220755
v 0.186008 0.44257 0.208234
v 0.197194 0.44257 0.197327
v 0.205387 0.445185 0.183344
v 0.192349 0.458879 0.170229
v 0.209448 0.454522 0.156977
v 0.212797 0.457883 0.142638
v 0.224054 0.456576 0.12395
v 0.242007 0.442321 0.127891
v 0.278414 0.404381 0.142689
v 0.258679 0.429 0.125887
v 0.255687 0.425981 0.141398
v 0.261172 0.416395 0.153545
v 0.341965 0.320409 0.183073
v 0.342749 0.328097 0.161292
v 0.355715 0.319164 0.140701
v 0.369323 0.30217 0.125887
v 0.374667 0.288787 0.125887
v 0.378158 0.266596 0.125887
v -0.204346 0.375343 0.280523
v -0.218382 0.368278 0.280286
v -0.252081 0.341449 0.275138
v -0.263623 0.32349 0.273133
v -0.266971 0.296194 0.275512
v -0.286136 0.221684 0.244659
v -0.317057 0.221684 0.186216
v -0.308721 0.296194 0.208268
v -0.313067 0.323086 0.18839
v -0.312996 0.338803 0.172624
v -0.313139 0.351564 0.146546
v 0.374881 0.266596 0.140701
v 0.368682 0.259188 0.163994
v 0.36512 0.244342 0.170297
v 0.356357 0.226632 0.179148
v 0.336978 0.236717 0.22767
v 0.324581 0.227628 0.242552
v 0.348662 0.229589 0.199909
v 0.346311 0.244342 0.21469
v 0.323869 0.250411 0.2547
v 0.30905 0.290934 0.273473
v 0.298363 0.310169 0.275563
v 0.28675 0.323148 0.277465
v 0.332204 0.266596 0.244302
v 0.324011 0.280757 0.255515
v 0.234242 0.412474 0.203868
v 0.21472 0.429467 0.199926
v 0.193845 0.431366 0.218835
v 0.171902 0.428004 0.240887
v 0.174395 0.416364 0.253884
v 0.156085 0.418667 0.263211
v 0.154589 0.405533 0.277516
v 0.292948 0.330088 0.260051
v 0.279696 0.339394 0.264333
v -0.292406 0.359158 0.185213
v -0.281363 0.363173 0.199909
v -0.239613 0.371826 0.248702
v -0.135238 0.460093 0.174221
v -0.255786 0.368838 0.231611
v -0.121915 0.460187 0.188577
v -0.103819 0.46193 0.20154
v -0.0369905 0.445372 0.260663
v -0.0637788 0.446772 0.248838
v -0.0517383 0.443535 0.258301
v -0.08615 0.446056 0.239443
v 0.0221434 0.437933 0.278281
v -0.00592737 0.436439 0.277686
v -0.0277285 0.433389 0.277058
v 0.131434 0.417733 0.276429
v 0.140625 0.429374 0.259117
v 0.153734 0.430681 0.250045
v 0.220277 0.434572 0.184075
v 0.216217 0.445247 0.168394
v 0.229682 0.444376 0.148228
v 0.244786 0.42981 0.155499
v 0.327645 0.326229 0.20628
v 0.248633 0.418916 0.171367
v 0.298363 0.335753 0.242145
v 0.340968 0.311632 0.201081
v 0.355074 0.303477 0.177143
v 0.353578 0.316176 0.157487
v 0.361843 0.303602 0.155499
v 0.369395 0.295292 0.139954
v 0.369751 0.279948 0.154344
v -0.0517383 0.42928 0.275189
v -0.0665574 0.430868 0.268274
v -0.230209 0.370269 0.263279
v -0.24403 0.362862 0.258879
v -0.235125 0.359158 0.274781
v -0.255572 0.351937 0.259474
v -0.267613 0.338616 0.257588
v -0.298533 0.319382 0.221061
v -0.279653 0.310418 0.255651
v -0.280223 0.288787 0.257673
v -0.288773 0.296194 0.244302
v -0.296895 0.296194 0.230966
v -0.302594 0.221684 0.21593
v -0.295826 0.333979 0.215658
v -0.295042 0.346802 0.201897
v 0.365975 0.273972 0.170297
v 0.36113 0.266596 0.185111
v 0.355858 0.24291 0.193249
v 0.355217 0.266596 0.199671
v 0.348306 0.266596 0.21469
v 0.340683 0.266596 0.22981
v 0.32508 0.302264 0.242433
v 0.311971 0.308893 0.257486
v 0.312042 0.323926 0.239596
v 0.341039 0.28997 0.222777
v 0.234598 0.421375 0.187983
v -0.284854 0.351502 0.214418
v -0.267755 0.353618 0.239545
v 0.235595 0.431023 0.169192
v 0.326433 0.311756 0.230677
v 0.34054 0.302481 0.213721
v 0.355145 0.288725 0.192349
v 0.363267 0.288787 0.170297
v -0.282788 0.340515 0.231543
f 1 2 3
f 1 3 4
f 1 4 5
f 1 5 6
f 1 6 7
f 1 7 8
f 1 8 9
f 1 9 10
f 1 10 11
f 1 11 12
f 1 12 13
f 1 13 14
f 1 14 15
f 1 15 16
f 1 16 2
f 2 17 18
f 2 18 3
f 2 16 19
f 2 19 17
f 3 18 20
f 3 20 5
f 3 5 4
f 5 20 21
f 5 21 22
f 5 22 6
f 6 22 23
f 6 23 7
f 7 23 24
f 7 24 8
f 8 25 9
f 8 24 26
f 8 26 25
f 9 25 27
f 9 27 10
f 10 28 11
f 10 27 28
f 11 28 29
f 11 29 12
f 12 29 13
f 13 29 30
f 13 30 31
f 13 31 32
f 13 32 33
f 13 33 14
f 14 33 34
f 14 34 35
f 14 35 36
f 14 36 37
f 14 37 38
f 14 38 39
f 14 39 40
f 14 40 41
f 14 41 42
f 14 42 15
f 15 43 94
f 15 94 164
f 15 164 235
f 15 235 165
f 15 165 95
f 15 95 44
f 15 44 45
f 15 45 46
f 15 46 47
f 15 47 48
f 15 48 49
f 15 49 16
f 15 42 50
f 15 50 51
f 15 51 52
f 15 52 43
f 16 53 54
f 16 54 55
f 16 55 19
f 16 49 56
f 16 56 57
f 16 57 53
f 17 19 58
f 17 58 59
f 17 59 18
f 18 59 20
f 19 55 58
f 20 59 21
f 21 59 60
f 21 60 22
f 22 61 23
f 22 60 61
f 23 61 24
f 24 61 26
f 25 62 63
f 25 63 27
f 25 26 64
f 25 64 62
f 26 61 65
f 26 65 64
f 27 63 28
f 28 66 29
f 28 63 67
f 28 67 66
f 29 66 68
f 29 68 30
f 30 68 69
f 30 69 31
f 31 69 70
f 31 70 32
f 32 70 71
f 32 71 72
f 32 72 33
f 33 72 73
f 33 73 34
f 34 73 35
f 35 73 74
f 35 74 75
f 35 75 36
f 36 75 76
f 36 76 37
f 37 76 77
f 37 77 78
f 37 78 79
f 37 79 38
f 38 79 80
f 38 80 39
f 39 80 81
f 39 81 40
f 40 81 82
f 40 82 83
f 40 83 84
f 40 84 85
f 40 85 41
f 41 86 87
f 41 87 88
f 41 88 42
f 41 85 89
f 41 89 86
f 42 90 91
f 42 91 92
f 42 92 50
f 42 88 90
f 43 52 93
f 43 93 94
f 44 95 96
f 44 96 45
f 45 96 97
f 45 97 98
f 45 98 99
f 45 99 46
f 46 99 47
f 47 99 100
f 47 100 48
f 48 100 49
f 49 100 101
f 49 101 102
f 49 102 56
f 50 92 103
f 50 103 104
f 50 104 51
f 51 104 105
f 51 105 106
f 51 106 52
f 52 106 107
f 52 107 108
f 52 108 109
f 52 109 110
f 52 110 111
f 52 111 93
f 53 57 112
f 53 112 113
f 53 113 114
f 53 114 54
f 54 115 55
f 54 114 115
f 55 116 58
f 55 115 117
f 55 117 116
f 56 102 118
f 56 118 119
f 56 119 57
f 57 119 118
f 57 118 112
f 58 120 59
f 58 116 120
f 59 120 60
f 60 121 61
f 60 120 122
f 60 122 121
f 61 121 65
f 62 123 124
f 62 124 63
f 62 64 125
f 62 125 123
f 63 124 67
f 64 65 126
f 64 126 125
f 65 121 127
f 65 127 126
f 66 128 68
f 66 67 129
f 66 129 128
f 67 124 130
f 67 130 129
f 68 128 131
f 68 131 69
f 69 132 70
f 69 131 132
f 70 133 71
f 70 132 133
f 71 133 134
f 71 134 135
f 71 135 136
f 71 136 137
f 71 137 72
f 72 137 138
f 72 138 73
f 73 138 74
f 74 138 75
f 75 139 140
f 75 140 76
f 75 138 139
f 76 140 77
f 77 140 141
f 77 141 142
f 77 142 78
f 78 142 143
f 78 143 144
f 78 144 80
f 78 80 79
f 80 144 145
f 80 145 81
f 81 145 146
f 81 146 82
f 82 146 83
f 83 146 147
f 83 147 84
f 84 147 85
f 85 147 148
f 85 148 89
f 86 149 87
f 86 89 150
f 86 150 151
f 86 151 152
f 86 152 149
f 87 149 153
f 87 153 154
f 87 154 88
f 88 154 155
f 88 155 90
f 89 148 150
f 90 155 91
f 91 156 157
f 91 157 92
f 91 155 156
f 92 158 103
f 92 157 158
f 93 159 160
f 93 160 161
f 93 161 162
f 93 162 163
f 93 163 164
f 93 164 94
f 93 111 133
f 93 133 159
f 95 165 166
f 95 166 96
f 96 166 167
f 96 167 97
f 97 167 168
f 97 168 98
f 98 168 101
f 98 101 99
f 99 101 100
f 101 168 169
f 101 169 102
f 102 169 118
f 103 158 104
f 104 158 170
f 104 170 105
f 105 170 171
f 105 171 172
f 105 172 106
f 106 172 173
f 106 173 107
f 107 174 175
f 107 175 108
f 107 173 176
f 107 176 177
f 107 177 174
f 108 175 109
f 109 175 178
f 109 178 110
f 110 179 180
f 110 180 181
f 110 181 111
f 110 178 182
f 110 182 183
f 110 183 179
f 111 184 185
f 111 185 186
f 111 186 187
f 111 187 188
f 111 188 189
f 111 189 190
f 111 190 133
f 111 181 191
f 111 191 192
f 111 192 184
f 112 118 113
f 113 118 169
f 113 169 193
f 113 193 114
f 114 193 115
f 115 193 194
f 115 194 117
f 116 117 195
f 116 195 196
f 116 196 120
f 117 194 197
f 117 197 195
f 120 196 198
f 120 198 122
f 121 122 199
f 121 199 127
f 122 198 199
f 123 200 124
f 123 125 201
f 123 201 202
f 123 202 200
f 124 200 130
f 125 126 201
f 126 127 203
f 126 203 201
f 127 199 159
f 127 159 203
f 128 129 204
f 128 204 131
f 129 130 205
f 129 205 204
f 130 200 206
f 130 206 205
f 131 204 132
f 132 204 133
f 133 190 207
f 133 207 135
f 133 135 134
f 133 204 159
f 135 207 136
f 136 207 208
f 136 208 137
f 137 208 139
f 137 139 138
f 139 208 209
f 139 209 140
f 140 187 186
f 140 186 141
f 140 209 187
f 141 186 142
f 142 185 143
f 142 186 185
f 143 145 144
f 143 185 210
f 143 210 211
f 143 211 145
f 145 211 212
f 145 212 146
f 146 212 147
f 147 212 148
f 148 212 213
f 148 213 151
f 148 151 150
f 149 214 153
f 149 152 214
f 151 213 152
f 152 213 215
f 152 215 216
f 152 216 214
f 153 214 217
f 153 217 218
f 153 218 219
f 153 219 154
f 154 219 155
f 155 219 220
f 155 220 156
f 156 221 157
f 156 220 221
f 157 170 158
f 157 221 222
f 157 222 170
f 159 204 205
f 159 205 206
f 159 206 223
f 159 223 224
f 159 224 202
f 159 202 201
f 159 201 203
f 159 199 198
f 159 198 225
f 159 225 160
f 160 225 226
f 160 226 227
f 160 227 161
f 161 228 229
f 161 229 162
f 161 227 228
f 162 229 230
f 162 230 231
f 162 231 163
f 163 231 232
f 163 232 164
f 164 232 233
f 164 233 234
f 164 234 235
f 165 235 166
f 166 235 234
f 166 234 230
f 166 230 167
f 167 230 236
f 167 236 168
f 168 236 237
f 168 237 193
f 168 193 169
f 170 222 238
f 170 238 171
f 171 238 239
f 171 239 172
f 172 239 240
f 172 240 173
f 173 240 176
f 174 178 175
f 174 177 178
f 176 240 177
f 177 240 241
f 177 241 242
f 177 242 243
f 177 243 178
f 178 243 182
f 179 183 244
f 179 244 245
f 179 245 180
f 180 245 181
f 181 245 246
f 181 246 191
f 182 243 183
f 183 243 247
f 183 247 244
f 184 248 210
f 184 210 185
f 184 192 248
f 187 209 188
f 188 209 189
f 189 209 208
f 189 208 207
f 189 207 190
f 191 216 192
f 191 246 216
f 192 216 215
f 192 215 248
f 193 249 194
f 193 237 249
f 194 249 250
f 194 250 197
f 195 197 226
f 195 226 225
f 195 225 196
f 196 225 198
f 197 250 226
f 200 202 223
f 200 223 206
f 202 224 223
f 210 248 251
f 210 251 211
f 211 251 212
f 212 251 213
f 213 251 215
f 214 246 252
f 214 252 217
f 214 216 246
f 215 251 248
f 217 252 253
f 217 253 218
f 218 254 255
f 218 255 220
f 218 220 219
f 218 253 254
f 220 255 221
f 221 255 222
f 222 255 238
f 226 250 228
f 226 228 227
f 228 250 229
f 229 250 256
f 229 256 236
f 229 236 230
f 230 234 231
f 231 233 232
f 231 234 233
f 236 256 237
f 237 256 249
f 238 255 254
f 238 254 239
f 239 254 241
f 239 241 240
f 241 254 247
f 241 247 242
f 242 247 243
f 244 247 253
f 244 253 252
f 244 252 245
f 245 252 246
f 247 254 253
f 249 256 250
