v 0.395267 0.166494 0.10696
v 0.401436 0.163784 0.10696
v 0.395267 0.166539 0.10676
v 0.395267 -0.283951 0.10696
v 0.406788 0.160713 0.10696
v 0.409659 0.15999 0.0962394
v 0.402253 0.164235 0.0962394
v 0.395267 0.167216 0.0962394
v 0.395267 -0.284538 0.105317
v 0.398845 -0.27966 0.10696
v 0.408842 0.159493 0.10696
v 0.411853 0.157461 0.10696
v 0.420547 0.152584 0.0962394
v 0.423182 0.152087 0.0805152
v 0.422041 0.153848 0.066635
v 0.410373 0.160397 0.0814443
v 0.411013 0.160848 0.066635
v 0.402967 0.164597 0.0814443
v 0.395267 0.167397 0.0922512
v 0.400516 -0.282235 0.0920796
v 0.399456 -0.280699 0.101957
v 0.395267 -0.286886 0.0959678
v 0.401075 -0.275596 0.10696
v 0.41956 0.152132 0.10696
v 0.42955 0.148158 0.0749688
v 0.422041 0.154706 0.0518256
v 0.429867 0.148474 0.066635
v 0.411602 0.16121 0.0518256
v 0.404197 0.165093 0.0518256
v 0.395267 0.167848 0.0776705
v 0.395267 -0.289461 0.0830311
v 0.401406 -0.283319 0.0814443
v 0.406773 -0.273925 0.0814443
v 0.403578 -0.275054 0.0967111
v 0.402739 -0.272435 0.10696
v 0.426966 0.145403 0.10696
v 0.427953 0.146532 0.0962394
v 0.42888 0.147526 0.0848465
v 0.433813 0.14179 0.0805152
v 0.436227 0.140661 0.066635
v 0.437434 0.140661 0.0518256
v 0.430382 0.148926 0.0518256
v 0.430721 0.149242 0.0370163
v 0.422041 0.155158 0.0370163
v 0.41186 0.16139 0.0370163
v 0.404454 0.165139 0.0370163
v 0.395267 0.168706 0.0370163
v 0.395267 0.168481 0.0518256
v 0.395267 -0.289732 0.0814443
v 0.395267 -0.291628 0.066635
v 0.402201 -0.284267 0.066635
v 0.408591 -0.273925 0.066635
v 0.413619 -0.262905 0.066635
v 0.410012 -0.259112 0.0962394
v 0.404513 -0.267964 0.10696
v 0.433032 0.137996 0.10696
v 0.433886 0.139125 0.0962394
v 0.443206 0.131041 0.066635
v 0.443898 0.132487 0.0518256
v 0.437928 0.140661 0.0370163
v 0.430757 0.149242 0.0222212
v 0.422041 0.155113 0.0222212
v 0.411735 0.161345 0.0222212
v 0.404329 0.165048 0.0222212
v 0.395267 0.168526 0.0222212
v 0.395267 -0.291719 0.0652055
v 0.39565 -0.29217 0.0518256
v 0.402665 -0.284764 0.0518256
v 0.40974 -0.273925 0.0518256
v 0.414304 -0.265254 0.0518256
v 0.412721 -0.258525 0.08133
v 0.465652 -0.096213 0.0518256
v 0.464047 -0.096213 0.066635
v 0.407877 -0.259112 0.10696
v 0.460572 -0.0926001 0.0962394
v 0.459542 -0.0901162 0.105874
v 0.43979 0.125712 0.10696
v 0.441741 0.125351 0.0970542
v 0.442227 0.12919 0.0814443
v 0.44568 0.121783 0.0814443
v 0.446291 0.123635 0.066635
v 0.444053 0.132848 0.0370163
v 0.446798 0.12508 0.0518256
v 0.447063 0.125441 0.0370163
v 0.437898 0.140661 0.0222212
v 0.430588 0.149106 0.0074119
v 0.422041 0.154887 0.0074119
v 0.411514 0.161255 0.0074119
v 0.411264 0.161164 -0.00739745
v 0.404108 0.164913 0.0074119
v 0.395267 0.168481 0.0186047
v 0.395267 -0.292486 0.0525404
v 0.395267 -0.292667 0.0370163
v 0.395679 -0.292306 0.0370163
v 0.402893 -0.284899 0.0370163
v 0.410182 -0.273925 0.0370163
v 0.414518 -0.266157 0.0370163
v 0.466572 -0.096213 0.0370163
v 0.470157 -0.0814451 0.0370163
v 0.469193 -0.0814451 0.0518256
v 0.467573 -0.0814451 0.066635
v 0.465527 -0.0814451 0.0814443
v 0.458864 -0.0912904 0.10696
v 0.459703 -0.0881742 0.10696
v 0.46306 -0.0814451 0.0962394
v 0.443611 0.114557 0.10696
v 0.444008 0.117177 0.102529
v 0.444995 0.120112 0.0926514
v 0.44858 0.111035 0.0814443
v 0.449993 0.111035 0.066635
v 0.443986 0.132712 0.0222212
v 0.447167 0.125306 0.0222212
v 0.450781 0.111035 0.0518256
v 0.451157 0.111035 0.0370163
v 0.437567 0.140661 0.0074119
v 0.43022 0.14879 -0.00739745
v 0.422041 0.15448 -0.00739745
v 0.410741 0.160758 -0.0222068
v 0.403335 0.164597 -0.0222068
v 0.403865 0.164732 -0.00739745
v 0.395267 0.167758 -0.0222068
v 0.395267 0.1683 0.0074119
v 0.395267 -0.292306 0.0222212
v 0.395547 -0.29208 0.0222212
v 0.402717 -0.284673 0.0222212
v 0.41002 -0.273925 0.0222212
v 0.414532 -0.266202 0.0222212
v 0.466955 -0.096213 0.0222212
v 0.470466 -0.0814451 0.0222212
v 0.470106 -0.066632 0.0370163
v 0.469288 -0.066632 0.0518256
v 0.46775 -0.066632 0.066635
v 0.465939 -0.066632 0.0814443
v 0.463694 -0.066632 0.0962394
v 0.461043 -0.081129 0.10696
v 0.444921 0.107422 0.10696
v 0.445996 0.111757 0.0970542
v 0.447976 0.0962217 0.0962394
v 0.450119 0.0962217 0.0814443
v 0.45151 0.0962217 0.066635
v 0.443824 0.132306 0.0074119
v 0.45112 0.111035 0.0222212
v 0.446931 0.124945 0.0074119
v 0.470393 -0.066632 0.0222212
v 0.470378 -0.066632 0.0074119
v 0.436882 0.140661 -0.00739745
v 0.429793 0.148384 -0.0184902
v 0.423433 0.152493 -0.0229358
v 0.409843 0.160126 -0.0370161
v 0.402437 0.164235 -0.0370161
v 0.395267 0.167216 -0.0370161
v 0.395267 -0.291809 0.0074119
v 0.395377 -0.291719 0.0074119
v 0.402297 -0.284312 0.0074119
v 0.409298 -0.273925 0.0074119
v 0.414238 -0.265344 0.0074119
v 0.46652 -0.096213 -0.00739745
v 0.466852 -0.096213 0.0074119
v 0.470385 -0.0814451 0.0074119
v 0.46164 -0.0658643 0.10696
v 0.461213 -0.0771096 0.10696
v 0.446114 0.0953636 0.10696
v 0.443508 0.131493 -0.00739745
v 0.45059 0.111035 0.0074119
v 0.446357 0.124087 -0.00739745
v 0.469818 -0.0814451 -0.00739745
v 0.469642 -0.066632 -0.00739745
v 0.434482 0.142061 -0.0229358
v 0.4293 0.147932 -0.0283535
v 0.421231 0.152719 -0.0370161
v 0.409696 0.160035 -0.0390603
v 0.408665 0.160622 -0.0390603
v 0.40229 0.164145 -0.0390603
v 0.395267 0.167081 -0.0390603
v 0.395267 -0.291538 0.00309488
v 0.395267 -0.290906 -0.00685425
v 0.401723 -0.28377 -0.00739745
v 0.407944 -0.273925 -0.00739745
v 0.406125 -0.273925 -0.0222068
v 0.41345 -0.263267 -0.00739745
v 0.415938 -0.25586 -0.00739745
v 0.465549 -0.096213 -0.0222068
v 0.442882 0.129867 -0.0222068
v 0.434519 0.139893 -0.0370161
v 0.449647 0.111035 -0.00739745
v 0.445709 0.122461 -0.0222068
v 0.46856 -0.0814451 -0.0222068
v 0.468456 -0.066632 -0.0222068
v 0.448521 0.111035 -0.0222068
v 0.428637 0.1473 -0.0370161
v 0.427445 0.147977 -0.0390603
v 0.421069 0.152629 -0.0390603
v 0.395267 -0.285893 -0.0390603
v 0.395267 -0.290861 -0.00739745
v 0.395267 -0.289235 -0.0201055
v 0.395267 -0.288964 -0.0222068
v 0.400884 -0.282731 -0.0222068
v 0.400199 -0.281828 -0.0321559
v 0.399662 -0.281015 -0.0390603
v 0.401752 -0.277312 -0.0390603
v 0.40332 -0.275009 -0.037059
v 0.403203 -0.274557 -0.0390603
v 0.41278 -0.258841 -0.0229787
v 0.415298 -0.253692 -0.0185616
v 0.463848 -0.096213 -0.0370161
v 0.466888 -0.0814451 -0.0370161
v 0.441925 0.127519 -0.0370161
v 0.440747 0.129054 -0.0390603
v 0.434372 0.139713 -0.0390603
v 0.44487 0.120112 -0.0370161
v 0.466969 -0.066632 -0.0370161
v 0.448757 0.0962217 -0.0370161
v 0.447012 0.111035 -0.0370161
v 0.428468 0.147119 -0.0390603
v 0.429307 0.14608 -0.0390603
v 0.395267 -0.286525 -0.0361442
v 0.409887 -0.259112 -0.0390603
v 0.410299 -0.259112 -0.0370161
v 0.463524 -0.0963937 -0.0390603
v 0.46401 -0.0941807 -0.0390603
v 0.466631 -0.0814451 -0.0390603
v 0.441815 0.127067 -0.0390603
v 0.444737 0.119751 -0.0390603
v 0.442543 0.125261 -0.0390603
v 0.466697 -0.066632 -0.0390603
v 0.448521 0.0962217 -0.0390603
v 0.446747 0.111035 -0.0390603
v 0.446327 0.112977 -0.0390603
f 1 2 3
f 1 3 8
f 1 8 19
f 1 19 30
f 1 30 48
f 1 48 47
f 1 47 65
f 1 65 91
f 1 91 122
f 1 122 121
f 1 121 151
f 1 151 174
f 1 174 193
f 1 193 216
f 1 216 196
f 1 196 195
f 1 195 194
f 1 194 176
f 1 176 175
f 1 175 152
f 1 152 123
f 1 123 93
f 1 93 92
f 1 92 66
f 1 66 50
f 1 50 49
f 1 49 31
f 1 31 22
f 1 22 9
f 1 9 4
f 1 4 10
f 1 10 23
f 1 23 35
f 1 35 55
f 1 55 74
f 1 74 103
f 1 103 104
f 1 104 135
f 1 135 161
f 1 161 160
f 1 160 162
f 1 162 136
f 1 136 106
f 1 106 77
f 1 77 56
f 1 56 36
f 1 36 24
f 1 24 12
f 1 12 11
f 1 11 5
f 1 5 2
f 2 5 6
f 2 6 7
f 2 7 3
f 3 7 8
f 4 9 10
f 5 11 6
f 6 11 12
f 6 12 13
f 6 13 14
f 6 14 15
f 6 15 16
f 6 16 17
f 6 17 7
f 7 17 18
f 7 18 19
f 7 19 8
f 9 20 21
f 9 21 10
f 9 22 20
f 10 21 23
f 12 24 13
f 13 24 25
f 13 25 14
f 14 25 15
f 15 26 17
f 15 17 16
f 15 25 27
f 15 27 26
f 17 26 28
f 17 28 18
f 18 28 29
f 18 29 19
f 19 29 30
f 20 22 31
f 20 31 32
f 20 32 33
f 20 33 34
f 20 34 21
f 21 34 23
f 23 34 35
f 24 36 37
f 24 37 38
f 24 38 25
f 25 38 39
f 25 39 40
f 25 40 41
f 25 41 27
f 26 27 42
f 26 42 43
f 26 43 44
f 26 44 28
f 27 41 42
f 28 45 29
f 28 44 45
f 29 45 46
f 29 46 47
f 29 47 48
f 29 48 30
f 31 49 32
f 32 49 50
f 32 50 51
f 32 51 52
f 32 52 33
f 33 52 53
f 33 53 54
f 33 54 34
f 34 54 35
f 35 54 55
f 36 56 37
f 37 56 57
f 37 57 38
f 38 57 39
f 39 57 58
f 39 58 59
f 39 59 40
f 40 59 41
f 41 60 43
f 41 43 42
f 41 59 60
f 43 60 61
f 43 61 44
f 44 61 62
f 44 62 45
f 45 63 46
f 45 62 63
f 46 63 64
f 46 64 47
f 47 64 65
f 50 66 67
f 50 67 68
f 50 68 51
f 51 68 69
f 51 69 52
f 52 69 70
f 52 70 53
f 53 71 54
f 53 70 72
f 53 72 73
f 53 73 71
f 54 74 55
f 54 71 75
f 54 75 76
f 54 76 74
f 56 77 78
f 56 78 79
f 56 79 57
f 57 79 58
f 58 79 80
f 58 80 81
f 58 81 59
f 59 82 60
f 59 81 83
f 59 83 84
f 59 84 82
f 60 82 85
f 60 85 61
f 61 86 87
f 61 87 62
f 61 85 86
f 62 87 88
f 62 88 63
f 63 88 64
f 64 88 89
f 64 89 90
f 64 90 91
f 64 91 65
f 66 92 67
f 67 92 93
f 67 93 94
f 67 94 95
f 67 95 68
f 68 95 96
f 68 96 69
f 69 96 97
f 69 97 70
f 70 97 98
f 70 98 72
f 71 73 75
f 72 98 99
f 72 99 100
f 72 100 73
f 73 100 101
f 73 101 102
f 73 102 75
f 74 76 103
f 75 102 76
f 76 104 103
f 76 102 105
f 76 105 104
f 77 106 107
f 77 107 108
f 77 108 78
f 78 108 79
f 79 108 80
f 80 108 109
f 80 109 110
f 80 110 81
f 81 110 83
f 82 111 85
f 82 84 112
f 82 112 111
f 83 110 113
f 83 113 114
f 83 114 84
f 84 114 112
f 85 111 115
f 85 115 86
f 86 116 117
f 86 117 87
f 86 115 116
f 87 117 89
f 87 89 88
f 89 117 118
f 89 118 119
f 89 119 120
f 89 120 90
f 90 120 121
f 90 121 122
f 90 122 91
f 93 123 124
f 93 124 94
f 94 124 95
f 95 124 125
f 95 125 126
f 95 126 96
f 96 126 127
f 96 127 97
f 97 127 128
f 97 128 98
f 98 128 99
f 99 129 130
f 99 130 131
f 99 131 100
f 99 128 129
f 100 131 132
f 100 132 101
f 101 132 133
f 101 133 102
f 102 133 134
f 102 134 105
f 104 105 135
f 105 134 135
f 106 136 107
f 107 136 137
f 107 137 108
f 108 137 109
f 109 137 138
f 109 138 139
f 109 139 110
f 110 139 140
f 110 140 131
f 110 131 130
f 110 130 113
f 111 112 141
f 111 141 115
f 112 114 142
f 112 142 143
f 112 143 141
f 113 130 114
f 114 130 144
f 114 144 145
f 114 145 142
f 115 141 146
f 115 146 116
f 116 146 147
f 116 147 117
f 117 147 148
f 117 148 118
f 118 149 150
f 118 150 119
f 118 148 149
f 119 150 151
f 119 151 121
f 119 121 120
f 123 152 124
f 124 152 153
f 124 153 125
f 125 153 154
f 125 154 126
f 126 155 127
f 126 154 155
f 127 155 156
f 127 156 157
f 127 157 158
f 127 158 128
f 128 158 159
f 128 159 129
f 129 159 145
f 129 145 144
f 129 144 130
f 131 140 139
f 131 139 132
f 132 139 133
f 133 139 138
f 133 138 134
f 134 160 161
f 134 161 135
f 134 138 162
f 134 162 160
f 136 138 137
f 136 162 138
f 141 143 163
f 141 163 146
f 142 164 143
f 142 145 164
f 143 165 163
f 143 164 165
f 145 159 166
f 145 166 167
f 145 167 164
f 146 163 168
f 146 168 147
f 147 168 169
f 147 169 148
f 148 169 170
f 148 170 149
f 149 171 172
f 149 172 150
f 149 170 171
f 150 172 173
f 150 173 174
f 150 174 151
f 152 175 153
f 153 175 176
f 153 176 154
f 154 176 177
f 154 177 155
f 155 178 156
f 155 177 178
f 156 178 179
f 156 179 180
f 156 180 181
f 156 181 182
f 156 182 157
f 157 182 166
f 157 166 159
f 157 159 158
f 163 165 183
f 163 183 184
f 163 184 168
f 164 185 165
f 164 167 185
f 165 185 186
f 165 186 183
f 166 187 188
f 166 188 167
f 166 182 187
f 167 188 189
f 167 189 185
f 168 184 169
f 169 184 190
f 169 190 191
f 169 191 192
f 169 192 170
f 170 192 171
f 171 192 191
f 171 191 214
f 171 214 215
f 171 215 209
f 171 209 208
f 171 208 222
f 171 222 224
f 171 224 223
f 171 223 228
f 171 228 227
f 171 227 226
f 171 226 225
f 171 225 221
f 171 221 220
f 171 220 219
f 171 219 217
f 171 217 202
f 171 202 200
f 171 200 199
f 171 199 193
f 171 193 174
f 171 174 173
f 171 173 172
f 176 194 177
f 177 194 195
f 177 195 196
f 177 196 197
f 177 197 178
f 178 197 179
f 179 197 198
f 179 198 199
f 179 199 200
f 179 200 201
f 179 201 180
f 180 201 202
f 180 202 203
f 180 203 204
f 180 204 181
f 181 204 205
f 181 205 182
f 182 205 206
f 182 206 187
f 183 207 208
f 183 208 209
f 183 209 184
f 183 186 210
f 183 210 207
f 184 209 190
f 185 189 186
f 186 189 210
f 187 206 211
f 187 211 188
f 188 211 212
f 188 212 189
f 189 212 213
f 189 213 210
f 190 214 191
f 190 209 215
f 190 215 214
f 193 199 216
f 196 216 198
f 196 198 197
f 198 216 199
f 200 202 201
f 202 217 218
f 202 218 203
f 203 218 204
f 204 218 219
f 204 219 205
f 205 219 220
f 205 220 206
f 206 221 211
f 206 220 221
f 207 222 208
f 207 210 223
f 207 223 224
f 207 224 222
f 210 213 223
f 211 221 225
f 211 225 226
f 211 226 212
f 212 226 213
f 213 227 228
f 213 228 223
f 213 226 227
f 217 219 218
