v 0.181137 -0.482091 -0.0391041
v 0.169446 -0.540502 -0.0391041
v 0.162633 -0.540244 -0.0590206
v 0.168801 -0.482091 -0.0669754
v -0.230071 -0.482091 -0.0455858
v -0.230716 -0.5046 -0.0391041
v 0.162754 -0.562342 -0.0453648
v 0.153119 -0.599686 -0.0391041
v 0.156384 -0.555337 -0.066666
v 0.146185 -0.552401 -0.088527
v 0.155336 -0.482091 -0.0872307
v -0.22092 -0.482091 -0.0655612
v -0.222815 -0.503106 -0.0585492
v -0.225032 -0.526337 -0.0458951
v -0.219146 -0.551937 -0.047
v -0.214591 -0.570661 -0.0454679
v -0.204996 -0.602287 -0.0391041
v 0.156505 -0.584465 -0.0454679
v 0.148402 -0.584954 -0.0675794
v 0.118972 -0.661986 -0.0456152
v 0.136106 -0.633424 -0.0444957
v 0.145701 -0.613207 -0.0458509
v 0.147394 -0.599068 -0.0582251
v 0.0360048 -0.732245 -0.0391041
v 0.147596 -0.571227 -0.0775523
v 0.134251 -0.568471 -0.102021
v 0.132276 -0.547945 -0.10999
v 0.126874 -0.518327 -0.119256
v 0.129091 -0.485593 -0.116133
v 0.081399 -0.482091 -0.155318
v -0.11066 -0.489096 -0.17002
v -0.125858 -0.489096 -0.162978
v -0.14654 -0.489096 -0.15028
v -0.207535 -0.485233 -0.0878936
v -0.204915 -0.51091 -0.09028
v 0.0576941 -0.482091 -0.167677
v 0.0286273 -0.482451 -0.178461
v -0.207334 -0.533136 -0.0816181
v -0.214832 -0.533136 -0.066666
v -0.207011 -0.555131 -0.0738696
v -0.206568 -0.572154 -0.0652666
v -0.206689 -0.590183 -0.049136
v -0.195764 -0.621088 -0.0409749
v -0.155247 -0.681895 -0.0391041
v -0.192498 -0.614624 -0.0593005
v 0.133203 -0.617869 -0.0735307
v 0.132881 -0.599351 -0.0885418
v 0.141589 -0.584954 -0.0814708
v 0.118488 -0.651762 -0.0670343
v 0.0714817 -0.710379 -0.0456742
v 0.0872447 -0.697296 -0.0480459
v 0.101919 -0.682075 -0.0496663
v 0.102605 -0.672752 -0.0688315
v -0.00842182 -0.745174 -0.0391041
v 0.0127433 -0.738993 -0.0482668
v 0.0252812 -0.726502 -0.0752248
v 0.0455191 -0.725085 -0.0503881
v 0.133163 -0.584954 -0.0960841
v 0.119053 -0.593119 -0.112612
v 0.11607 -0.572309 -0.123425
v 0.11736 -0.547945 -0.12674
v 0.112159 -0.518327 -0.134238
v 0.111635 -0.489096 -0.133634
v 0.0953076 -0.489096 -0.147142
v 0.0751906 -0.496101 -0.160489
v -0.0886478 -0.518327 -0.179963
v -0.111022 -0.518327 -0.171316
v -0.0663942 -0.489096 -0.183911
v -0.087519 -0.48974 -0.178578
v -0.126987 -0.518327 -0.16342
v -0.146781 -0.518327 -0.150501
v -0.169237 -0.489096 -0.132396
v -0.180726 -0.489096 -0.121613
v -0.191289 -0.489096 -0.109961
v -0.191087 -0.51091 -0.109548
v -0.199352 -0.525719 -0.0962756
v 0.0518082 -0.496101 -0.172053
v 0.0371336 -0.496101 -0.177739
v 0.0221769 -0.496101 -0.182202
v 0.00754275 -0.489096 -0.184191
v -0.0148721 -0.489096 -0.186577
v -0.0443018 -0.489096 -0.18646
v -0.193224 -0.555337 -0.0975425
v -0.191007 -0.572154 -0.0941985
v -0.194877 -0.583847 -0.0811762
v -0.192458 -0.599969 -0.0740463
v -0.177743 -0.636876 -0.0669017
v -0.177783 -0.649315 -0.0460866
v -0.164842 -0.668837 -0.043656
v -0.149603 -0.682873 -0.0564279
v -0.14021 -0.695236 -0.0466022
v -0.12352 -0.709916 -0.045188
v -0.0983233 -0.72627 -0.0455268
v -0.0817943 -0.734151 -0.0454679
v -0.179436 -0.62132 -0.0809994
v 0.118005 -0.642542 -0.0802039
v 0.119133 -0.630437 -0.0896319
v 0.119537 -0.612898 -0.101962
v 0.100629 -0.658406 -0.0918857
v 0.059347 -0.710997 -0.0687431
v 0.0723686 -0.696523 -0.0784067
v 0.0912358 -0.679809 -0.0772135
v -0.02229 -0.740152 -0.0660031
v -0.00640609 -0.740512 -0.0596393
v -0.0594601 -0.741079 -0.0456152
v -0.0301111 -0.744993 -0.0454679
v 0.00734118 -0.735773 -0.066666
v 0.0239911 -0.713058 -0.101594
v 0.0415279 -0.711203 -0.0906336
v 0.00818779 -0.725858 -0.0892931
v 0.104943 -0.605584 -0.123749
v 0.102363 -0.580885 -0.134945
v 0.106918 -0.555337 -0.136271
v 0.0952269 -0.547945 -0.147098
v 0.0960332 -0.518327 -0.14782
v 0.0755534 -0.518327 -0.161078
v 0.0456803 -0.518327 -0.176015
v -0.0592182 -0.518327 -0.187108
v -0.0592182 -0.547945 -0.186798
v -0.0883656 -0.540528 -0.179669
v -0.111022 -0.547945 -0.170329
v -0.125737 -0.547945 -0.162742
v -0.145088 -0.546735 -0.149779
v -0.169196 -0.518327 -0.132102
v -0.180323 -0.518327 -0.121186
v -0.190402 -0.532647 -0.107309
v 0.0221769 -0.518327 -0.183779
v -3.63868e-05 -0.518327 -0.1878
v -0.029587 -0.518327 -0.189583
v -0.179033 -0.554126 -0.117002
v -0.178509 -0.570145 -0.112288
v -0.172986 -0.593016 -0.109799
v -0.1773 -0.606537 -0.096143
v -0.190845 -0.588045 -0.0859196
v -0.161375 -0.641743 -0.0938892
v -0.160005 -0.654801 -0.0811762
v -0.166132 -0.660209 -0.0585786
v -0.148596 -0.674323 -0.0747092
v -0.13501 -0.683028 -0.0855808
v -0.129083 -0.697811 -0.0685074
v -0.112837 -0.714114 -0.0590206
v -0.0891316 -0.725729 -0.0674026
v -0.0665957 -0.734975 -0.066666
v -0.163955 -0.627655 -0.101888
v 0.104782 -0.642464 -0.101932
v 0.104741 -0.627295 -0.112598
v 0.0783755 -0.676203 -0.0999584
v 0.089986 -0.651195 -0.112377
v 0.0491474 -0.700283 -0.100813
v 0.0632172 -0.692634 -0.0968207
v -0.00745427 -0.73294 -0.0814708
v -0.0433745 -0.739997 -0.0650456
v -0.029587 -0.73464 -0.0814708
v 0.0322959 -0.69418 -0.120376
v 0.00734118 -0.711461 -0.112082
v -0.00745427 -0.725626 -0.0965113
v 0.0939369 -0.62933 -0.123764
v 0.0941384 -0.61416 -0.131085
v 0.0934934 -0.599763 -0.137434
v 0.0880509 -0.573494 -0.148763
v 0.0752712 -0.547945 -0.160533
v 0.0454788 -0.547945 -0.175691
v -0.029587 -0.547945 -0.189332
v -0.0518003 -0.577537 -0.18509
v -0.0665957 -0.570145 -0.18344
v -0.0880431 -0.562316 -0.178151
v -0.115296 -0.576533 -0.164098
v -0.125818 -0.584954 -0.155863
v -0.141299 -0.570145 -0.148512
v -0.163955 -0.545885 -0.134282
v -0.175405 -0.540528 -0.123617
v 0.0221769 -0.547945 -0.183278
v -3.63868e-05 -0.547945 -0.187535
v -0.163069 -0.569012 -0.129789
v -0.162504 -0.584954 -0.12565
v -0.159521 -0.60069 -0.122541
v -0.163028 -0.614521 -0.111404
v -0.14271 -0.648439 -0.113128
v -0.148757 -0.660055 -0.09439
v -0.127511 -0.679474 -0.0998847
v -0.124286 -0.694489 -0.0834006
v -0.103967 -0.711023 -0.0820895
v -0.0782467 -0.725368 -0.0821779
v -0.0518003 -0.733687 -0.0814708
v -0.151337 -0.620315 -0.122011
v 0.0753115 -0.660518 -0.119772
v 0.057815 -0.68514 -0.111463
v 0.0779723 -0.644628 -0.129848
v -0.029587 -0.722432 -0.104702
v 0.006293 -0.69606 -0.129759
v 0.024233 -0.686994 -0.131616
v 0.0381818 -0.6761 -0.134194
v -0.00914748 -0.71195 -0.116899
v 0.0834148 -0.627424 -0.134915
v 0.0791011 -0.607103 -0.146435
v 0.0574119 -0.588251 -0.164849
v 0.0668455 -0.570145 -0.162978
v 0.0518082 -0.570145 -0.170815
v 0.0290707 -0.577228 -0.178387
v -0.029587 -0.577537 -0.18674
v -0.0553883 -0.608082 -0.178623
v -0.0729251 -0.587787 -0.179079
v -0.029587 -0.599763 -0.183278
v -0.096227 -0.592346 -0.16999
v -0.109249 -0.607438 -0.159678
v -0.128882 -0.600948 -0.149278
v -0.138477 -0.587015 -0.146391
v -0.150652 -0.590569 -0.135578
v -3.63868e-05 -0.577537 -0.184942
v -0.142307 -0.612409 -0.134518
v -0.138396 -0.628093 -0.130776
v -0.125415 -0.643855 -0.132838
v -0.125213 -0.661806 -0.119772
v -0.109934 -0.683826 -0.113688
v -0.110781 -0.695158 -0.0994281
v -0.0927599 -0.710147 -0.0966881
v -0.0702644 -0.71177 -0.111699
v -0.0586538 -0.7256 -0.0958779
v 0.0650716 -0.657351 -0.131218
v 0.0632575 -0.670099 -0.121878
v 0.057049 -0.637185 -0.148998
v -0.0538563 -0.714577 -0.115131
v -0.029587 -0.708473 -0.123366
v 0.00734118 -0.674426 -0.148453
v -0.00902654 -0.700129 -0.130025
v 0.023588 -0.664072 -0.15
v 0.0389881 -0.658046 -0.147378
v 0.0516066 -0.662476 -0.13686
v 0.0439871 -0.617663 -0.163803
v 0.0369724 -0.599763 -0.171817
v 0.0183067 -0.608932 -0.175367
v -0.00745427 -0.599763 -0.182379
v -0.0365614 -0.621783 -0.177518
v -0.0592182 -0.62933 -0.171434
v -0.0813912 -0.614521 -0.170211
v -0.0145899 -0.623277 -0.176752
v -0.0956222 -0.620856 -0.162227
v -0.116666 -0.626007 -0.148129
v -0.103564 -0.644241 -0.147864
v -0.109773 -0.661909 -0.132838
v -0.0935259 -0.683569 -0.126872
v -0.0943725 -0.695184 -0.114616
v -0.0739733 -0.688771 -0.13328
v -0.0592585 -0.701494 -0.127756
v 0.029877 -0.642722 -0.159811
v -0.029587 -0.693381 -0.138745
v -0.0135418 -0.677491 -0.15025
v -0.00015733 -0.651169 -0.164009
v 0.0147591 -0.62933 -0.170064
v -0.029587 -0.644138 -0.169475
v -0.0625643 -0.653668 -0.160253
v -0.0809477 -0.636232 -0.162448
v -0.0938484 -0.656423 -0.146582
v -0.0736105 -0.671438 -0.146376
v -0.0454306 -0.679912 -0.148439
v -0.029587 -0.658613 -0.162654
f 1 2 3
f 1 3 4
f 1 4 11
f 1 11 30
f 1 30 36
f 1 36 12
f 1 12 5
f 1 5 6
f 1 6 17
f 1 17 44
f 1 44 54
f 1 54 24
f 1 24 8
f 1 8 2
f 2 7 3
f 2 8 7
f 3 9 4
f 3 7 9
f 4 9 10
f 4 10 11
f 5 12 13
f 5 13 6
f 6 13 14
f 6 14 15
f 6 15 16
f 6 16 17
f 7 8 18
f 7 18 19
f 7 19 9
f 8 20 21
f 8 21 22
f 8 22 23
f 8 23 18
f 8 24 20
f 9 19 25
f 9 25 10
f 10 25 26
f 10 26 27
f 10 27 11
f 11 27 28
f 11 28 29
f 11 29 30
f 12 31 32
f 12 32 33
f 12 33 34
f 12 34 35
f 12 35 13
f 12 36 37
f 12 37 31
f 13 35 38
f 13 38 39
f 13 39 14
f 14 39 15
f 15 39 40
f 15 40 41
f 15 41 16
f 16 41 42
f 16 42 17
f 17 43 44
f 17 42 45
f 17 45 43
f 18 23 19
f 19 23 46
f 19 46 47
f 19 47 48
f 19 48 25
f 20 49 21
f 20 24 50
f 20 50 51
f 20 51 52
f 20 52 53
f 20 53 49
f 21 49 46
f 21 46 22
f 22 46 23
f 24 54 55
f 24 55 56
f 24 56 57
f 24 57 50
f 25 48 26
f 26 58 59
f 26 59 60
f 26 60 27
f 26 48 58
f 27 60 61
f 27 61 28
f 28 61 62
f 28 62 29
f 29 62 63
f 29 63 30
f 30 63 64
f 30 64 65
f 30 65 36
f 31 66 67
f 31 67 32
f 31 37 68
f 31 68 69
f 31 69 66
f 32 67 70
f 32 70 33
f 33 71 72
f 33 72 34
f 33 70 71
f 34 72 73
f 34 73 74
f 34 74 75
f 34 75 35
f 35 76 38
f 35 75 76
f 36 65 77
f 36 77 78
f 36 78 37
f 37 78 79
f 37 79 80
f 37 80 81
f 37 81 82
f 37 82 68
f 38 76 83
f 38 83 40
f 38 40 39
f 40 83 84
f 40 84 85
f 40 85 41
f 41 85 86
f 41 86 42
f 42 86 45
f 43 45 87
f 43 87 88
f 43 88 89
f 43 89 44
f 44 89 90
f 44 90 91
f 44 91 92
f 44 92 93
f 44 93 94
f 44 94 54
f 45 86 95
f 45 95 87
f 46 49 96
f 46 96 97
f 46 97 47
f 47 97 98
f 47 98 58
f 47 58 48
f 49 53 99
f 49 99 96
f 50 57 100
f 50 100 51
f 51 100 101
f 51 101 102
f 51 102 53
f 51 53 52
f 53 102 99
f 54 103 104
f 54 104 55
f 54 94 105
f 54 105 106
f 54 106 103
f 55 104 107
f 55 107 56
f 56 108 109
f 56 109 100
f 56 100 57
f 56 107 110
f 56 110 108
f 58 98 59
f 59 98 111
f 59 111 60
f 60 111 112
f 60 112 113
f 60 113 61
f 61 113 62
f 62 113 114
f 62 114 115
f 62 115 63
f 63 115 64
f 64 115 65
f 65 115 116
f 65 116 117
f 65 117 77
f 66 69 68
f 66 68 118
f 66 118 119
f 66 119 120
f 66 120 67
f 67 121 70
f 67 120 121
f 68 82 118
f 70 121 122
f 70 122 71
f 71 123 124
f 71 124 72
f 71 122 123
f 72 124 73
f 73 125 75
f 73 75 74
f 73 124 125
f 75 125 126
f 75 126 76
f 76 126 83
f 77 117 78
f 78 127 79
f 78 117 127
f 79 127 128
f 79 128 80
f 80 128 81
f 81 128 129
f 81 129 82
f 82 129 118
f 83 126 130
f 83 130 131
f 83 131 84
f 84 131 132
f 84 132 133
f 84 133 134
f 84 134 85
f 85 134 86
f 86 134 133
f 86 133 95
f 87 135 136
f 87 136 137
f 87 137 88
f 87 95 135
f 88 137 89
f 89 137 90
f 90 137 138
f 90 138 139
f 90 139 140
f 90 140 91
f 91 140 92
f 92 140 141
f 92 141 93
f 93 141 142
f 93 142 94
f 94 142 143
f 94 143 105
f 95 133 144
f 95 144 135
f 96 99 145
f 96 145 97
f 97 145 98
f 98 145 146
f 98 146 111
f 99 102 147
f 99 147 148
f 99 148 145
f 100 109 149
f 100 149 101
f 101 149 150
f 101 150 102
f 102 150 147
f 103 151 104
f 103 106 152
f 103 152 153
f 103 153 151
f 104 151 107
f 105 143 152
f 105 152 106
f 107 151 110
f 108 154 149
f 108 149 109
f 108 110 155
f 108 155 154
f 110 151 156
f 110 156 155
f 111 146 157
f 111 157 158
f 111 158 159
f 111 159 112
f 112 159 160
f 112 160 113
f 113 160 114
f 114 160 161
f 114 161 115
f 115 161 116
f 116 161 162
f 116 162 117
f 117 162 127
f 118 129 163
f 118 163 119
f 119 164 165
f 119 165 120
f 119 163 164
f 120 165 166
f 120 166 121
f 121 167 122
f 121 166 167
f 122 167 168
f 122 168 169
f 122 169 123
f 123 169 170
f 123 170 124
f 124 170 125
f 125 170 171
f 125 171 126
f 126 171 130
f 127 172 173
f 127 173 128
f 127 162 172
f 128 173 163
f 128 163 129
f 130 171 170
f 130 170 174
f 130 174 175
f 130 175 131
f 131 175 132
f 132 175 176
f 132 176 177
f 132 177 133
f 133 177 144
f 135 144 178
f 135 178 179
f 135 179 136
f 136 179 138
f 136 138 137
f 138 179 139
f 139 179 180
f 139 180 181
f 139 181 140
f 140 181 182
f 140 182 141
f 141 182 142
f 142 182 183
f 142 183 143
f 143 183 184
f 143 184 152
f 144 177 185
f 144 185 178
f 145 148 157
f 145 157 146
f 147 186 148
f 147 150 187
f 147 187 186
f 148 186 188
f 148 188 157
f 149 187 150
f 149 154 187
f 151 153 156
f 152 184 153
f 153 184 189
f 153 189 156
f 154 155 190
f 154 190 191
f 154 191 192
f 154 192 187
f 155 156 193
f 155 193 190
f 156 189 193
f 157 188 194
f 157 194 158
f 158 194 159
f 159 194 195
f 159 195 160
f 160 195 196
f 160 196 197
f 160 197 161
f 161 197 198
f 161 198 162
f 162 198 199
f 162 199 172
f 163 200 164
f 163 173 209
f 163 209 200
f 164 201 202
f 164 202 165
f 164 200 203
f 164 203 201
f 165 202 166
f 166 202 204
f 166 204 167
f 167 204 205
f 167 205 168
f 168 206 207
f 168 207 169
f 168 205 206
f 169 207 208
f 169 208 174
f 169 174 170
f 172 199 209
f 172 209 173
f 174 208 175
f 175 208 176
f 176 208 210
f 176 210 185
f 176 185 177
f 178 185 211
f 178 211 212
f 178 212 213
f 178 213 180
f 178 180 179
f 180 213 214
f 180 214 215
f 180 215 181
f 181 215 182
f 182 215 216
f 182 216 183
f 183 217 218
f 183 218 184
f 183 216 217
f 184 218 189
f 185 210 211
f 186 219 188
f 186 187 220
f 186 220 219
f 187 192 220
f 188 219 221
f 188 221 194
f 189 218 222
f 189 222 223
f 189 223 193
f 190 224 191
f 190 193 225
f 190 225 224
f 191 226 192
f 191 224 226
f 192 226 227
f 192 227 228
f 192 228 220
f 193 223 225
f 194 221 195
f 195 221 229
f 195 229 196
f 196 229 230
f 196 230 198
f 196 198 197
f 198 230 199
f 199 230 231
f 199 231 209
f 200 209 232
f 200 232 203
f 201 203 233
f 201 233 234
f 201 234 235
f 201 235 202
f 202 235 204
f 203 232 236
f 203 236 233
f 204 237 205
f 204 235 237
f 205 237 238
f 205 238 206
f 206 238 210
f 206 210 208
f 206 208 207
f 209 231 232
f 210 238 211
f 211 238 212
f 212 238 239
f 212 239 240
f 212 240 213
f 213 240 214
f 214 240 241
f 214 241 242
f 214 242 215
f 215 242 216
f 216 242 217
f 217 242 243
f 217 243 244
f 217 244 222
f 217 222 218
f 219 220 228
f 219 228 221
f 221 228 227
f 221 227 245
f 221 245 229
f 222 244 246
f 222 246 223
f 223 246 225
f 224 225 247
f 224 247 248
f 224 248 226
f 225 246 247
f 226 245 227
f 226 248 245
f 229 245 249
f 229 249 231
f 229 231 230
f 231 249 232
f 232 249 236
f 233 236 250
f 233 250 234
f 234 250 251
f 234 251 252
f 234 252 235
f 235 252 237
f 236 249 248
f 236 248 250
f 237 239 238
f 237 252 239
f 239 252 253
f 239 253 240
f 240 253 241
f 241 253 254
f 241 254 243
f 241 243 242
f 243 254 255
f 243 255 244
f 244 255 246
f 245 248 249
f 246 255 247
f 247 255 256
f 247 256 248
f 248 256 250
f 250 256 251
f 251 255 254
f 251 254 253
f 251 253 252
f 251 256 255
