v -0.452597 0.022649 0.10696
v -0.452597 0.022649 0.107266
v -0.448642 0.0293154 0.10696
v 0.411223 0.022649 0.10696
v -0.451982 0.022649 0.111072
v -0.446181 0.0323701 0.111072
v -0.446533 0.0328697 0.10696
v 0.414211 0.0260023 0.10696
v 0.411047 0.022649 0.108014
v -0.448642 0.022649 0.126566
v -0.448291 0.0234184 0.126651
v -0.443984 0.0291604 0.132105
v -0.440116 0.0397715 0.111072
v -0.440556 0.0402768 0.10696
v 0.410168 0.022649 0.112516
v 0.417991 0.0303202 0.10696
v -0.447939 0.022649 0.129403
v -0.445742 0.022649 0.137881
v -0.442753 0.026898 0.140684
v -0.429657 0.0299872 0.178469
v -0.430976 0.0316466 0.170297
v -0.433173 0.0343855 0.155499
v -0.434403 0.0379513 0.140141
v -0.439325 0.0362172 0.126651
v -0.429833 0.0448072 0.13484
v -0.430976 0.0457948 0.125887
v -0.432733 0.0473049 0.111072
v -0.435194 0.0457201 0.10696
v 0.414651 0.0294876 0.118853
v 0.393908 0.022649 0.169991
v 0.428626 0.0425219 0.10696
v -0.444951 0.022649 0.140684
v -0.44372 0.022649 0.145034
v -0.441259 0.022649 0.153341
v -0.440116 0.022649 0.157147
v -0.426581 0.0417869 0.155499
v -0.436073 0.022649 0.170297
v -0.431591 0.022649 0.183565
v -0.431151 0.022649 0.184755
v -0.427636 0.0266282 0.188339
v -0.415506 0.0307566 0.20927
v -0.417616 0.0329902 0.199909
v -0.37068 0.0813087 0.199909
v -0.377272 0.0813087 0.18433
v -0.428427 0.0435095 0.144711
v -0.394939 0.0813087 0.127042
v -0.397927 0.0813087 0.10696
v 0.418958 0.036401 0.124612
v 0.417991 0.0404146 0.140684
v 0.416145 0.042585 0.152764
v 0.414475 0.044566 0.162634
v 0.400588 0.0435497 0.194167
v 0.381075 0.022649 0.199637
v 0.430647 0.0452665 0.10696
v 0.428714 0.0454388 0.115761
v -0.381931 0.0813087 0.170297
v -0.42869 0.022649 0.191075
v -0.425702 0.022649 0.198142
v -0.418407 0.022649 0.214231
v -0.413045 0.0273861 0.219141
v -0.400564 0.0304466 0.238288
v -0.402937 0.0328639 0.229521
v -0.356617 0.0813087 0.229521
v -0.362946 0.0813087 0.217221
v -0.363825 0.0813087 0.215471
v -0.383689 0.0813087 0.16452
v 0.44515 0.0813087 0.10696
v 0.427395 0.0475116 0.125887
v 0.425901 0.0522085 0.141364
v 0.412893 0.0467307 0.170297
v 0.420012 0.0504343 0.156824
v 0.417727 0.0541264 0.170297
v 0.415793 0.0572213 0.180745
v 0.403752 0.051732 0.199416
v 0.398039 0.0467307 0.204037
v 0.373692 0.022649 0.214792
v 0.410344 0.0521052 0.185451
v 0.434163 0.0511922 0.10696
v 0.433196 0.0509568 0.110936
v 0.431966 0.054913 0.125887
v -0.414539 0.022649 0.222046
v -0.41076 0.022649 0.22925
v -0.402586 0.022649 0.244319
v -0.397664 0.0267315 0.248159
v -0.387732 0.0324448 0.25594
v -0.332271 0.0813087 0.272708
v -0.348355 0.0813087 0.244948
v 0.44471 0.0813087 0.109611
v 0.444623 0.0778865 0.10696
v 0.430472 0.0573993 0.136879
v 0.428978 0.0602128 0.146749
v 0.423528 0.0666323 0.170297
v 0.413772 0.0612693 0.190616
v 0.401467 0.0565954 0.210646
v 0.386525 0.0570949 0.239494
v 0.366046 0.022649 0.228774
v 0.435745 0.0545053 0.10696
v 0.441634 0.06704 0.10696
v 0.441371 0.0678726 0.110002
v 0.437327 0.0666323 0.125887
v -0.39907 0.022649 0.25052
v -0.392566 0.022649 0.260748
v -0.386238 0.022649 0.270619
v -0.381843 0.0256118 0.273949
v -0.38448 0.029057 0.265811
v -0.325591 0.0813087 0.280523
v -0.374284 0.0293843 0.280523
v 0.444359 0.0813087 0.111633
v 0.44348 0.0788397 0.114232
v 0.442953 0.0709732 0.10696
v 0.427835 0.0657423 0.156739
v 0.432669 0.0657423 0.141364
v 0.430911 0.070089 0.152628
v 0.417727 0.0663797 0.185451
v 0.429241 0.0746768 0.162516
v 0.411487 0.0663797 0.199943
v 0.398918 0.0611028 0.220517
v 0.415618 0.0711455 0.19505
v 0.388458 0.0671434 0.244387
v 0.383361 0.0625441 0.249365
v 0.370177 0.0591563 0.266626
v 0.372725 0.0558202 0.259134
v 0.341787 0.022649 0.268291
v 0.358662 0.022649 0.241788
v 0.396457 0.0662763 0.22947
v 0.437327 0.0813087 0.140684
v 0.442513 0.0813087 0.120535
v -0.382722 0.022649 0.276038
v 0.370177 0.0813087 0.280523
v -0.379118 0.0232174 0.280523
v 0.443656 0.0813087 0.115319
v 0.429944 0.0813087 0.164503
v 0.428274 0.0813087 0.169243
v 0.427659 0.0803441 0.170365
v 0.423001 0.0813087 0.183277
v 0.422298 0.0813087 0.185111
v 0.43223 0.0803441 0.156739
v 0.43179 0.0813087 0.158744
v 0.413508 0.0785469 0.204921
v 0.401027 0.0709732 0.22451
v 0.40384 0.0662763 0.215233
v 0.416497 0.0813087 0.199365
v 0.385646 0.0724145 0.252882
v 0.379581 0.0671434 0.258352
v 0.37211 0.0666323 0.269293
v 0.366837 0.0666323 0.276701
v 0.3642 0.0669768 0.280523
v 0.36086 0.0611832 0.280523
v 0.357871 0.0564691 0.280523
v 0.336601 0.022649 0.275495
v -0.379558 0.022649 0.280523
v 0.368946 0.0773066 0.280523
v 0.36921 0.0769965 0.280014
v 0.374308 0.0813087 0.274475
v 0.41386 0.0813087 0.205634
v 0.411399 0.0813087 0.210561
v 0.402697 0.0813087 0.227432
v 0.398654 0.0813087 0.234822
v 0.393293 0.0813087 0.244336
v 0.386964 0.0813087 0.255022
v 0.382306 0.0813087 0.262413
v 0.368594 0.0764281 0.280523
v 0.332646 0.022649 0.280523
f 1 2 3
f 1 3 7
f 1 7 14
f 1 14 28
f 1 28 47
f 1 47 67
f 1 67 89
f 1 89 110
f 1 110 98
f 1 98 97
f 1 97 78
f 1 78 54
f 1 54 31
f 1 31 16
f 1 16 8
f 1 8 4
f 1 4 9
f 1 9 15
f 1 15 30
f 1 30 53
f 1 53 76
f 1 76 96
f 1 96 124
f 1 124 123
f 1 123 150
f 1 150 163
f 1 163 151
f 1 151 128
f 1 128 103
f 1 103 102
f 1 102 101
f 1 101 83
f 1 83 82
f 1 82 81
f 1 81 59
f 1 59 58
f 1 58 57
f 1 57 39
f 1 39 38
f 1 38 37
f 1 37 35
f 1 35 34
f 1 34 33
f 1 33 32
f 1 32 18
f 1 18 17
f 1 17 10
f 1 10 5
f 1 5 2
f 2 5 6
f 2 6 7
f 2 7 3
f 4 8 9
f 5 10 11
f 5 11 12
f 5 12 6
f 6 12 13
f 6 13 14
f 6 14 7
f 8 15 9
f 8 16 15
f 10 17 11
f 11 17 18
f 11 18 12
f 12 19 20
f 12 20 21
f 12 21 22
f 12 22 23
f 12 23 24
f 12 24 13
f 12 18 19
f 13 24 25
f 13 25 26
f 13 26 14
f 14 26 27
f 14 27 28
f 15 29 30
f 15 16 31
f 15 31 29
f 18 32 19
f 19 32 33
f 19 33 34
f 19 34 35
f 19 35 20
f 20 36 21
f 20 35 37
f 20 37 38
f 20 38 39
f 20 39 40
f 20 40 41
f 20 41 42
f 20 42 43
f 20 43 44
f 20 44 36
f 21 36 22
f 22 36 45
f 22 45 23
f 23 45 25
f 23 25 24
f 25 45 46
f 25 46 26
f 26 46 27
f 27 46 28
f 28 46 47
f 29 31 48
f 29 48 49
f 29 49 30
f 30 49 50
f 30 50 51
f 30 51 52
f 30 52 53
f 31 54 55
f 31 55 48
f 36 44 56
f 36 56 45
f 39 57 40
f 40 57 58
f 40 58 59
f 40 59 41
f 41 59 60
f 41 60 61
f 41 61 62
f 41 62 63
f 41 63 64
f 41 64 65
f 41 65 42
f 42 65 43
f 43 65 64
f 43 64 63
f 43 63 87
f 43 87 86
f 43 86 106
f 43 106 129
f 43 129 154
f 43 154 161
f 43 161 160
f 43 160 159
f 43 159 158
f 43 158 157
f 43 157 156
f 43 156 155
f 43 155 142
f 43 142 136
f 43 136 135
f 43 135 133
f 43 133 132
f 43 132 138
f 43 138 126
f 43 126 127
f 43 127 131
f 43 131 108
f 43 108 88
f 43 88 67
f 43 67 47
f 43 47 46
f 43 46 66
f 43 66 56
f 43 56 44
f 45 56 66
f 45 66 46
f 48 55 49
f 49 55 68
f 49 68 50
f 50 68 69
f 50 69 51
f 51 70 52
f 51 69 71
f 51 71 72
f 51 72 73
f 51 73 70
f 52 74 75
f 52 75 76
f 52 76 53
f 52 70 77
f 52 77 74
f 54 78 79
f 54 79 55
f 55 79 80
f 55 80 68
f 59 81 60
f 60 81 82
f 60 82 83
f 60 83 61
f 61 83 84
f 61 84 85
f 61 85 86
f 61 86 87
f 61 87 63
f 61 63 62
f 67 88 89
f 68 80 90
f 68 90 69
f 69 90 71
f 70 73 77
f 71 90 91
f 71 91 72
f 72 91 73
f 73 91 92
f 73 92 93
f 73 93 74
f 73 74 77
f 74 94 75
f 74 93 94
f 75 94 95
f 75 95 96
f 75 96 76
f 78 97 80
f 78 80 79
f 80 97 98
f 80 98 99
f 80 99 100
f 80 100 90
f 83 101 84
f 84 101 102
f 84 102 103
f 84 103 104
f 84 104 105
f 84 105 85
f 85 105 86
f 86 105 107
f 86 107 106
f 88 108 89
f 89 108 109
f 89 109 110
f 90 100 91
f 91 111 92
f 91 100 112
f 91 112 113
f 91 113 111
f 92 114 93
f 92 111 113
f 92 113 115
f 92 115 114
f 93 116 117
f 93 117 94
f 93 114 118
f 93 118 116
f 94 117 95
f 95 119 120
f 95 120 121
f 95 121 122
f 95 122 123
f 95 123 124
f 95 124 96
f 95 117 125
f 95 125 119
f 98 110 99
f 99 110 100
f 100 126 113
f 100 113 112
f 100 110 109
f 100 109 127
f 100 127 126
f 103 128 104
f 104 107 105
f 104 128 107
f 106 107 130
f 106 130 151
f 106 151 163
f 106 163 149
f 106 149 148
f 106 148 147
f 106 147 162
f 106 162 152
f 106 152 129
f 107 128 130
f 108 131 109
f 109 131 127
f 113 126 115
f 114 115 118
f 115 132 133
f 115 133 134
f 115 134 135
f 115 135 136
f 115 136 118
f 115 126 137
f 115 137 138
f 115 138 132
f 116 118 139
f 116 139 140
f 116 140 141
f 116 141 117
f 117 141 140
f 117 140 125
f 118 136 142
f 118 142 139
f 119 143 120
f 119 125 140
f 119 140 143
f 120 143 144
f 120 144 145
f 120 145 121
f 121 145 146
f 121 146 147
f 121 147 148
f 121 148 149
f 121 149 150
f 121 150 123
f 121 123 122
f 126 138 137
f 128 151 130
f 129 152 153
f 129 153 154
f 133 135 134
f 139 155 156
f 139 156 157
f 139 157 140
f 139 142 155
f 140 157 158
f 140 158 143
f 143 158 159
f 143 159 160
f 143 160 161
f 143 161 153
f 143 153 145
f 143 145 144
f 145 153 162
f 145 162 146
f 146 162 147
f 149 163 150
f 152 162 153
f 153 161 154
