v 0.389572 -0.29031 0.107307
v 0.388981 -0.286033 0.12589
v 0.382227 -0.293443 0.12589
v 0.381805 -0.297062 0.110715
v 0.362554 -0.307809 0.109019
v 0.349805 -0.311193 0.109019
v -0.37783 -0.311945 0.109477
v -0.44183 -0.225763 0.107781
v -0.449513 -0.201982 0.108002
v 0.401646 -0.151911 0.108782
v 0.40325 -0.27035 0.108002
v 0.398522 -0.279218 0.109019
v 0.386786 -0.283557 0.140692
v 0.379947 -0.290968 0.140692
v 0.369224 -0.295354 0.160394
v 0.370913 -0.296764 0.150526
v 0.372517 -0.297939 0.140692
v 0.374797 -0.299521 0.12589
v 0.362638 -0.305913 0.12589
v 0.349805 -0.30994 0.12589
v 0.330132 -0.311945 0.156867
v 0.341193 -0.311945 0.12394
v -0.375298 -0.311945 0.125313
v -0.432374 -0.240553 0.109019
v -0.430685 -0.238516 0.12277
v -0.434316 -0.230855 0.126975
v -0.432627 -0.227471 0.140692
v -0.444785 -0.217303 0.111613
v -0.451033 -0.185124 0.109019
v -0.449682 -0.171338 0.109019
v -0.445376 -0.155671 0.109307
v -0.443603 -0.212384 0.124313
v -0.444954 -0.202953 0.129247
v 0.397509 -0.151911 0.128857
v 0.407725 -0.214734 0.12589
v 0.410765 -0.214891 0.109019
v -0.436848 -0.153713 0.142913
v -0.432374 -0.153008 0.157969
v -0.401556 -0.152726 0.232133
v 0.310122 -0.151911 0.280506
v 0.401139 -0.262987 0.12962
v 0.39886 -0.271212 0.124686
v 0.411525 -0.229539 0.109019
v 0.410258 -0.244203 0.109019
v 0.407387 -0.259133 0.109019
v 0.392696 -0.273938 0.140692
v 0.385351 -0.281881 0.149458
v 0.37733 -0.288618 0.154934
v 0.367282 -0.293506 0.170313
v 0.356053 -0.296686 0.188828
v 0.359852 -0.299083 0.170313
v 0.374375 -0.286095 0.170313
v 0.363652 -0.300085 0.155477
v 0.362638 -0.303595 0.140692
v 0.347863 -0.304817 0.170313
v 0.347863 -0.307041 0.155511
v 0.31257 -0.311945 0.199069
v -0.37344 -0.311945 0.135588
v -0.370907 -0.311945 0.14861
v -0.42849 -0.235743 0.136673
v -0.433387 -0.216175 0.156935
v -0.438537 -0.214734 0.140692
v -0.42849 -0.227079 0.154934
v -0.428574 -0.220311 0.166566
v -0.447487 -0.185124 0.12589
v -0.443519 -0.172529 0.137928
v -0.44487 -0.167594 0.12901
v -0.44335 -0.158241 0.124076
v -0.438284 -0.199929 0.155511
v -0.443603 -0.198018 0.137877
v 0.394554 -0.151911 0.140285
v 0.400548 -0.203141 0.151306
v 0.408063 -0.229539 0.12589
v 0.404348 -0.214734 0.140692
v -0.438368 -0.17032 0.155511
v -0.429587 -0.162408 0.178214
v -0.429841 -0.155421 0.169143
v -0.423002 -0.154308 0.186539
v -0.416078 -0.153603 0.202817
v -0.413545 -0.157692 0.212159
v -0.401134 -0.159886 0.239356
v -0.393957 -0.153541 0.246019
v -0.38602 -0.153149 0.258702
v -0.374369 -0.153901 0.276386
v -0.374538 -0.160982 0.280506
v 0.318987 -0.16139 0.280506
v 0.319072 -0.151911 0.274029
v 0.401055 -0.255922 0.137962
v 0.398522 -0.260167 0.142014
v 0.384844 -0.266261 0.177417
v 0.406628 -0.244313 0.12589
v 0.401055 -0.248496 0.144931
v 0.384506 -0.271917 0.169584
v 0.385942 -0.276852 0.157071
v 0.372095 -0.283542 0.182334
v 0.365425 -0.288586 0.186404
v 0.35276 -0.294085 0.202359
v 0.342966 -0.297688 0.211837
v 0.347863 -0.298628 0.198425
v 0.347863 -0.30184 0.185115
v 0.359768 -0.288978 0.198425
v 0.333087 -0.304644 0.1999
v 0.318312 -0.303219 0.229521
v 0.302016 -0.311945 0.213346
v -0.366854 -0.311945 0.161378
v -0.361197 -0.311945 0.17874
v -0.430178 -0.209376 0.174128
v -0.356469 -0.311945 0.192813
v -0.414221 -0.236432 0.176705
v -0.417598 -0.226735 0.185115
v -0.415656 -0.223821 0.194865
v -0.424775 -0.213418 0.183793
v -0.443941 -0.185124 0.140098
v -0.439719 -0.185124 0.155511
v -0.433556 -0.199929 0.170313
v 0.389657 -0.199929 0.185115
v 0.394469 -0.199929 0.170313
v 0.383747 -0.151911 0.171161
v 0.396496 -0.214734 0.170313
v 0.400126 -0.214734 0.157156
v 0.404601 -0.229539 0.140692
v -0.433725 -0.17032 0.170313
v -0.428912 -0.17032 0.183979
v -0.422579 -0.17032 0.1999
v -0.415234 -0.17032 0.216194
v -0.408902 -0.17032 0.229521
v -0.400374 -0.17032 0.245595
v -0.392099 -0.17032 0.259126
v -0.385683 -0.166293 0.267637
v -0.379181 -0.17032 0.278133
v -0.379435 -0.182148 0.279625
v -0.373609 -0.212228 0.280506
v 0.328444 -0.173735 0.280506
v 0.331905 -0.151911 0.260058
v 0.394723 -0.259133 0.155511
v 0.388897 -0.260449 0.171619
v 0.386617 -0.256392 0.182402
v 0.383662 -0.260449 0.186438
v 0.378681 -0.259133 0.1999
v 0.370997 -0.267906 0.209005
v 0.373024 -0.271102 0.1999
v 0.375979 -0.275301 0.186404
v 0.39962 -0.243561 0.153917
v 0.3943 -0.244313 0.170313
v 0.369224 -0.279829 0.196051
v 0.356559 -0.28268 0.218636
v 0.347863 -0.292017 0.21594
v 0.338998 -0.295088 0.225622
v 0.327346 -0.297109 0.239559
v 0.33047 -0.298613 0.229521
v 0.334438 -0.300461 0.21594
v 0.318649 -0.299192 0.244408
v 0.304718 -0.299694 0.260279
v 0.24494 -0.311945 0.280506
v -0.413292 -0.21229 0.212057
v -0.422411 -0.199929 0.1999
v -0.428743 -0.199929 0.183725
v -0.342453 -0.311945 0.222739
v -0.409746 -0.229069 0.199849
v -0.402991 -0.22932 0.213651
v -0.401049 -0.224244 0.224723
v -0.415572 -0.217225 0.202291
v -0.434991 -0.185124 0.170313
v -0.429587 -0.185124 0.185692
v 0.391683 -0.214734 0.185115
v 0.385097 -0.192253 0.192898
v 0.384506 -0.199929 0.198934
v 0.384253 -0.214734 0.205377
v 0.377836 -0.151911 0.184369
v 0.377836 -0.199929 0.214702
v 0.396411 -0.229539 0.170313
v 0.400211 -0.229539 0.157427
v -0.42393 -0.185124 0.1999
v -0.415994 -0.185124 0.217805
v -0.410168 -0.185124 0.229521
v -0.400965 -0.185124 0.246596
v -0.393535 -0.185124 0.259126
v -0.386949 -0.185124 0.269519
v -0.379266 -0.199929 0.277997
v -0.369641 -0.22111 0.280506
v -0.385514 -0.203705 0.267349
v -0.385007 -0.215345 0.260686
v 0.335198 -0.184247 0.280506
v 0.34381 -0.151911 0.245273
v 0.386617 -0.24848 0.189354
v 0.377076 -0.244313 0.214702
v 0.37066 -0.253008 0.223146
v 0.370575 -0.260653 0.216551
v 0.365509 -0.258412 0.22864
v 0.356053 -0.267828 0.238355
v 0.35791 -0.273233 0.228301
v 0.39143 -0.229539 0.185115
v 0.384591 -0.243545 0.19773
v 0.35276 -0.277714 0.232438
v 0.342966 -0.283839 0.241034
v 0.347863 -0.285876 0.228301
v 0.333678 -0.289464 0.245222
v 0.3238 -0.295088 0.249427
v 0.310459 -0.295934 0.265993
v 0.288423 -0.300211 0.277234
v -0.304881 -0.311945 0.280506
v 0.302438 -0.294712 0.277234
v 0.338913 -0.248699 0.280354
v -0.40088 -0.217053 0.232099
v -0.400712 -0.209611 0.23866
v -0.408395 -0.199929 0.229521
v -0.415149 -0.199929 0.216093
v -0.382474 -0.233315 0.247206
v -0.326496 -0.311945 0.251462
v -0.385683 -0.223476 0.253039
v 0.3802 -0.214734 0.214702
v 0.370406 -0.221753 0.237355
v 0.380031 -0.229539 0.214702
v 0.385435 -0.229539 0.201342
v 0.370153 -0.151911 0.200833
v 0.370997 -0.190827 0.22396
v 0.368886 -0.199929 0.234201
v 0.371419 -0.21229 0.233523
v -0.399952 -0.199929 0.244747
v -0.391424 -0.199929 0.259126
v -0.372765 -0.226155 0.270689
v -0.365335 -0.230119 0.277726
v -0.31476 -0.311945 0.267993
v -0.395392 -0.214624 0.243883
v 0.342121 -0.197313 0.27915
v 0.354786 -0.151911 0.229589
v 0.371251 -0.231372 0.233184
v 0.370153 -0.244313 0.229572
v 0.356137 -0.248308 0.253191
v 0.355462 -0.260073 0.245951
v 0.34018 -0.266026 0.266077
v 0.340517 -0.272904 0.258261
v 0.348032 -0.274251 0.244612
v 0.339926 -0.280659 0.250902
v 0.326839 -0.282382 0.268146
v 0.329879 -0.28503 0.259126
v 0.318649 -0.293051 0.260279
v 0.317974 -0.28373 0.27681
v 0.328275 -0.271901 0.276963
v 0.335451 -0.259775 0.277522
v 0.342881 -0.256156 0.269994
v 0.352507 -0.244313 0.261635
v 0.343304 -0.241038 0.277522
v 0.345921 -0.229539 0.277234
v 0.346596 -0.214734 0.277234
v -0.369387 -0.235994 0.265501
v -0.377577 -0.229758 0.259278
v 0.36686 -0.21475 0.243103
v 0.356559 -0.214734 0.26133
v 0.356222 -0.229539 0.260753
v 0.366438 -0.229069 0.243103
v 0.362892 -0.151911 0.214499
v 0.356053 -0.191125 0.253005
v 0.363483 -0.199929 0.244307
v 0.355293 -0.199929 0.25916
v 0.362216 -0.244313 0.244307
f 1 2 3
f 1 3 4
f 1 4 5
f 1 5 6
f 1 6 7
f 1 7 8
f 1 8 9
f 1 9 10
f 1 10 11
f 1 11 12
f 1 12 2
f 2 13 3
f 2 12 13
f 3 14 15
f 3 15 16
f 3 16 17
f 3 17 18
f 3 18 4
f 3 13 14
f 4 18 5
f 5 19 20
f 5 20 6
f 5 18 19
f 6 20 21
f 6 21 22
f 6 22 7
f 7 23 24
f 7 24 8
f 7 22 21
f 7 21 57
f 7 57 104
f 7 104 154
f 7 154 201
f 7 201 223
f 7 223 209
f 7 209 158
f 7 158 108
f 7 108 106
f 7 106 105
f 7 105 59
f 7 59 58
f 7 58 23
f 8 24 25
f 8 25 26
f 8 26 27
f 8 27 28
f 8 28 9
f 9 29 30
f 9 30 31
f 9 31 10
f 9 28 32
f 9 32 33
f 9 33 29
f 10 34 35
f 10 35 36
f 10 36 11
f 10 31 37
f 10 37 38
f 10 38 39
f 10 39 40
f 10 40 87
f 10 87 134
f 10 134 184
f 10 184 226
f 10 226 252
f 10 252 215
f 10 215 169
f 10 169 118
f 10 118 71
f 10 71 34
f 11 41 42
f 11 42 12
f 11 36 43
f 11 43 44
f 11 44 45
f 11 45 41
f 12 42 46
f 12 46 47
f 12 47 13
f 13 47 48
f 13 48 14
f 14 48 15
f 15 49 50
f 15 50 51
f 15 51 16
f 15 48 52
f 15 52 49
f 16 51 53
f 16 53 17
f 17 53 54
f 17 54 18
f 18 54 19
f 19 54 55
f 19 55 56
f 19 56 20
f 20 56 21
f 21 56 57
f 23 58 24
f 24 58 59
f 24 59 25
f 25 60 27
f 25 27 26
f 25 59 60
f 27 61 62
f 27 62 28
f 27 60 63
f 27 63 64
f 27 64 61
f 28 62 32
f 29 33 65
f 29 65 30
f 30 65 66
f 30 66 67
f 30 67 68
f 30 68 31
f 31 68 37
f 32 62 33
f 33 62 69
f 33 69 70
f 33 70 65
f 34 71 72
f 34 72 35
f 35 73 43
f 35 43 36
f 35 72 74
f 35 74 73
f 37 68 67
f 37 67 75
f 37 75 76
f 37 76 38
f 38 76 77
f 38 77 78
f 38 78 79
f 38 79 39
f 39 79 80
f 39 80 81
f 39 81 82
f 39 82 83
f 39 83 40
f 40 83 84
f 40 84 85
f 40 85 132
f 40 132 180
f 40 180 201
f 40 201 154
f 40 154 183
f 40 183 133
f 40 133 86
f 40 86 87
f 41 45 88
f 41 88 89
f 41 89 90
f 41 90 46
f 41 46 42
f 43 73 44
f 44 73 91
f 44 91 45
f 45 91 92
f 45 92 88
f 46 90 93
f 46 93 94
f 46 94 47
f 47 52 48
f 47 94 95
f 47 95 52
f 49 52 95
f 49 95 96
f 49 96 50
f 50 97 98
f 50 98 99
f 50 99 100
f 50 100 51
f 50 96 101
f 50 101 97
f 51 54 53
f 51 100 55
f 51 55 54
f 55 100 102
f 55 102 57
f 55 57 56
f 57 103 104
f 57 102 103
f 59 105 60
f 60 105 106
f 60 106 63
f 61 64 107
f 61 107 69
f 61 69 62
f 63 106 108
f 63 108 109
f 63 109 110
f 63 110 64
f 64 110 111
f 64 111 112
f 64 112 107
f 65 70 113
f 65 113 66
f 66 113 114
f 66 114 75
f 66 75 67
f 69 107 115
f 69 115 163
f 69 163 114
f 69 114 70
f 70 114 113
f 71 116 117
f 71 117 72
f 71 118 116
f 72 117 119
f 72 119 120
f 72 120 74
f 73 121 91
f 73 74 121
f 74 120 121
f 75 122 76
f 75 114 122
f 76 122 123
f 76 123 124
f 76 124 80
f 76 80 79
f 76 79 78
f 76 78 77
f 80 124 125
f 80 125 126
f 80 126 81
f 81 127 128
f 81 128 129
f 81 129 83
f 81 83 82
f 81 126 127
f 83 129 84
f 84 129 85
f 85 129 130
f 85 130 131
f 85 131 132
f 86 133 87
f 87 133 134
f 88 92 135
f 88 135 89
f 89 135 90
f 90 136 137
f 90 137 138
f 90 138 139
f 90 139 140
f 90 140 141
f 90 141 142
f 90 142 93
f 90 135 136
f 91 121 143
f 91 143 92
f 92 143 144
f 92 144 135
f 93 142 95
f 93 95 94
f 95 145 146
f 95 146 101
f 95 101 96
f 95 142 145
f 97 147 148
f 97 148 98
f 97 101 146
f 97 146 147
f 98 100 99
f 98 148 149
f 98 149 150
f 98 150 151
f 98 151 100
f 100 151 102
f 102 151 103
f 103 152 153
f 103 153 104
f 103 151 150
f 103 150 152
f 104 153 154
f 107 112 155
f 107 155 156
f 107 156 157
f 107 157 115
f 108 158 159
f 108 159 111
f 108 111 110
f 108 110 109
f 111 159 160
f 111 160 161
f 111 161 162
f 111 162 112
f 112 162 155
f 114 163 122
f 115 157 164
f 115 164 163
f 116 165 119
f 116 119 117
f 116 118 166
f 116 166 167
f 116 167 168
f 116 168 165
f 118 169 170
f 118 170 166
f 119 165 171
f 119 171 172
f 119 172 120
f 120 172 121
f 121 172 143
f 122 163 164
f 122 164 123
f 123 164 124
f 124 164 173
f 124 173 174
f 124 174 125
f 125 174 126
f 126 174 175
f 126 175 127
f 127 175 176
f 127 176 177
f 127 177 128
f 128 177 178
f 128 178 130
f 128 130 129
f 130 178 131
f 131 178 179
f 131 179 132
f 132 179 181
f 132 181 182
f 132 182 180
f 133 183 134
f 134 183 184
f 135 144 137
f 135 137 136
f 137 144 185
f 137 185 138
f 138 185 139
f 139 185 186
f 139 186 187
f 139 187 188
f 139 188 140
f 140 188 189
f 140 189 190
f 140 190 191
f 140 191 146
f 140 146 145
f 140 145 141
f 141 145 142
f 143 171 144
f 143 172 171
f 144 192 193
f 144 193 185
f 144 171 192
f 146 191 194
f 146 194 195
f 146 195 196
f 146 196 147
f 147 196 148
f 148 196 195
f 148 195 197
f 148 197 198
f 148 198 149
f 149 198 199
f 149 199 152
f 149 152 150
f 152 199 153
f 153 200 154
f 153 199 200
f 154 200 202
f 154 202 203
f 154 203 183
f 155 161 204
f 155 204 205
f 155 205 206
f 155 206 207
f 155 207 156
f 155 162 161
f 156 207 174
f 156 174 173
f 156 173 164
f 156 164 157
f 158 208 161
f 158 161 160
f 158 160 159
f 158 209 208
f 161 208 210
f 161 210 204
f 165 168 192
f 165 192 171
f 166 170 167
f 167 170 168
f 168 170 211
f 168 211 212
f 168 212 213
f 168 213 214
f 168 214 192
f 169 215 216
f 169 216 170
f 170 216 217
f 170 217 218
f 170 218 211
f 174 207 175
f 175 207 206
f 175 206 176
f 176 206 219
f 176 219 177
f 177 219 220
f 177 220 178
f 178 220 179
f 179 220 181
f 180 182 210
f 180 210 221
f 180 221 222
f 180 222 223
f 180 223 201
f 181 220 219
f 181 219 205
f 181 205 182
f 182 205 224
f 182 224 210
f 183 203 225
f 183 225 226
f 183 226 184
f 185 193 186
f 186 193 213
f 186 213 227
f 186 227 228
f 186 228 187
f 187 228 229
f 187 229 230
f 187 230 189
f 187 189 188
f 189 230 190
f 190 230 231
f 190 231 232
f 190 232 233
f 190 233 194
f 190 194 191
f 192 214 193
f 193 214 213
f 194 233 234
f 194 234 195
f 195 234 235
f 195 235 236
f 195 236 197
f 197 236 198
f 198 236 235
f 198 235 237
f 198 237 199
f 199 237 235
f 199 235 238
f 199 238 202
f 199 202 200
f 202 238 203
f 203 238 239
f 203 239 240
f 203 240 241
f 203 241 242
f 203 242 243
f 203 243 244
f 203 244 245
f 203 245 225
f 204 210 224
f 204 224 205
f 205 219 206
f 208 209 210
f 209 223 222
f 209 222 221
f 209 221 246
f 209 246 247
f 209 247 210
f 210 247 221
f 211 218 212
f 212 248 249
f 212 249 250
f 212 250 251
f 212 251 227
f 212 227 213
f 212 218 248
f 215 252 253
f 215 253 217
f 215 217 216
f 217 254 248
f 217 248 218
f 217 253 254
f 221 247 246
f 225 245 255
f 225 255 253
f 225 253 226
f 226 253 252
f 227 251 256
f 227 256 228
f 228 256 229
f 229 242 241
f 229 241 230
f 229 256 242
f 230 241 231
f 231 234 232
f 231 241 240
f 231 240 239
f 231 239 235
f 231 235 234
f 232 234 233
f 235 239 238
f 242 256 251
f 242 251 250
f 242 250 243
f 243 250 244
f 244 250 249
f 244 249 245
f 245 249 255
f 248 254 255
f 248 255 249
f 253 255 254
