v 0.265016 -0.304097 -0.234535
v 0.194369 -0.408832 -0.234535
v 0.190925 -0.412119 -0.301092
v 0.195219 -0.404712 -0.301092
v 0.199108 -0.394452 -0.301092
v 0.199878 -0.392415 -0.301092
v 0.201903 -0.380087 -0.301092
v 0.202308 -0.377618 -0.301092
v 0.200769 -0.362806 -0.301092
v 0.259142 -0.304097 -0.239337
v -0.148824 -0.304097 -0.234535
v 0.187117 -0.41846 -0.234535
v 0.183512 -0.420512 -0.301092
v 0.196475 -0.351172 -0.301092
v 0.252539 -0.304097 -0.244341
v 0.195624 -0.348888 -0.301092
v -0.148824 -0.304097 -0.258193
v -0.148824 -0.442314 -0.234535
v 0.184525 -0.421237 -0.234535
v 0.176464 -0.426684 -0.301092
v 0.231475 -0.304097 -0.259268
v 0.191979 -0.341482 -0.301092
v -0.148824 -0.349212 -0.28653
v -0.0814166 -0.304097 -0.275792
v -0.147163 -0.442962 -0.234535
v -0.148824 -0.439136 -0.238959
v 0.181365 -0.423799 -0.234535
v 0.175005 -0.427918 -0.301092
v 0.170995 -0.304112 -0.301092
v 0.170914 -0.304097 -0.301092
v -0.148824 -0.362806 -0.291677
v -0.0680486 -0.304097 -0.279089
v -0.0518045 -0.304097 -0.282646
v -0.145056 -0.443332 -0.235135
v -0.14453 -0.443718 -0.234535
v -0.148824 -0.435432 -0.244015
v -0.140357 -0.439043 -0.24339
v 0.1714 -0.431729 -0.234535
v 0.168848 -0.433319 -0.234535
v 0.17379 -0.428582 -0.301092
v 0.0865742 -0.304097 -0.301092
v -0.0370187 -0.362806 -0.300401
v -0.0370187 -0.377618 -0.300616
v -0.0518045 -0.377618 -0.29945
v -0.0749757 -0.385626 -0.296316
v -0.148824 -0.365629 -0.291201
v -0.135213 -0.444767 -0.237819
v -0.137359 -0.445539 -0.234535
v -0.148824 -0.429847 -0.25115
v -0.148256 -0.429523 -0.251828
v -0.140641 -0.43102 -0.253391
v -0.125855 -0.441018 -0.247104
v 0.156452 -0.43966 -0.234535
v 0.167592 -0.431729 -0.301092
v 0.0716264 -0.369317 -0.301092
v -0.0221925 -0.377618 -0.301079
v -0.0221925 -0.362806 -0.300707
v -0.0370187 -0.392415 -0.298668
v 0.112946 -0.432254 -0.301092
v -0.0512374 -0.392785 -0.297437
v -0.0666308 -0.387786 -0.296811
v -0.0557744 -0.39797 -0.295717
v -0.148824 -0.378837 -0.28853
v -0.103697 -0.444258 -0.251762
v -0.125855 -0.445786 -0.239702
v -0.131486 -0.446619 -0.234535
v -0.148824 -0.429384 -0.251697
v -0.148824 -0.405993 -0.272319
v -0.125855 -0.426267 -0.26379
v -0.115525 -0.428474 -0.265693
v -0.125855 -0.433612 -0.256382
v 0.140046 -0.445986 -0.234535
v 0.15548 -0.435895 -0.301092
v 0.072315 -0.377618 -0.301092
v 0.0749076 -0.38558 -0.301092
v 0.0771761 -0.391628 -0.301092
v 0.0828068 -0.403725 -0.301092
v 0.0843462 -0.406919 -0.301092
v 0.0892883 -0.414032 -0.301092
v 0.0964179 -0.420651 -0.301092
v 0.105532 -0.428227 -0.301092
v -0.0458902 -0.400253 -0.296349
v 0.125868 -0.436914 -0.301092
v -0.0666308 -0.407212 -0.290458
v -0.0814166 -0.407212 -0.288009
v -0.0910982 -0.415405 -0.281877
v -0.100982 -0.413461 -0.280718
v -0.10957 -0.446634 -0.244543
v -0.109611 -0.43642 -0.258728
v -0.105681 -0.430001 -0.2671
v -0.0962429 -0.438719 -0.26022
v -0.0814166 -0.440601 -0.262168
v -0.0962429 -0.444968 -0.252811
v -0.0962429 -0.449041 -0.244341
v -0.125855 -0.447637 -0.234535
v -0.110786 -0.422935 -0.271205
v 0.125868 -0.450507 -0.234535
v 0.143125 -0.437886 -0.301092
v 0.111042 -0.454935 -0.234535
v 0.109016 -0.455429 -0.234535
v 0.0998611 -0.457574 -0.234535
v 0.097147 -0.458145 -0.234535
v 0.0893288 -0.459441 -0.234535
v -0.0512374 -0.406008 -0.293026
v 0.140654 -0.438272 -0.301092
v -0.0326438 -0.444628 -0.266996
v -0.042528 -0.443965 -0.266214
v -0.0518045 -0.435895 -0.272958
v -0.0666308 -0.434707 -0.271713
v -0.0518045 -0.428057 -0.280366
v -0.0666308 -0.419077 -0.284236
v -0.0814166 -0.416994 -0.28292
v -0.0814166 -0.424385 -0.277519
v -0.0961214 -0.421021 -0.276463
v -0.0962429 -0.431313 -0.268312
v -0.0814166 -0.433195 -0.27011
v -0.0666308 -0.442113 -0.263849
v -0.0814166 -0.446233 -0.25476
v -0.0962429 -0.451927 -0.234535
v -0.110543 -0.449983 -0.234535
v -0.0814166 -0.451032 -0.244341
v 0.0796471 -0.460583 -0.234535
v 0.0749076 -0.460937 -0.234535
v 0.0666032 -0.461416 -0.234535
v 0.0594737 -0.461693 -0.234535
v 0.051858 -0.460336 -0.239937
v 0.0370317 -0.460367 -0.240347
v 0.0222459 -0.457558 -0.247553
v 0.00741961 -0.457543 -0.246576
v -0.0221925 -0.450075 -0.259145
v -0.0373428 -0.448193 -0.260422
v -0.0518045 -0.448208 -0.257933
v -0.0666308 -0.447298 -0.256447
v -0.0518045 -0.443302 -0.265334
v -0.0666308 -0.426483 -0.279121
v -0.0666308 -0.45276 -0.244341
v -0.0518045 -0.454349 -0.244341
v -0.0814166 -0.453454 -0.234535
v 0.045012 -0.461709 -0.234535
v 0.0222459 -0.460058 -0.240145
v 0.00741961 -0.459641 -0.239174
v -0.008865 -0.457558 -0.243468
v -0.0221925 -0.456509 -0.244341
v -0.0370187 -0.455553 -0.244341
v -0.0147388 -0.45904 -0.236887
v -0.0666308 -0.454766 -0.234535
v 0.0300641 -0.461323 -0.234535
v -0.00489512 -0.459317 -0.237949
v 0.0145492 -0.460598 -0.234535
v -0.0123893 -0.459271 -0.234535
v -0.0176149 -0.458916 -0.234535
f 1 2 3
f 1 3 4
f 1 4 5
f 1 5 6
f 1 6 7
f 1 7 8
f 1 8 9
f 1 9 10
f 1 10 15
f 1 15 21
f 1 21 30
f 1 30 41
f 1 41 33
f 1 33 32
f 1 32 24
f 1 24 17
f 1 17 11
f 1 11 18
f 1 18 25
f 1 25 35
f 1 35 48
f 1 48 66
f 1 66 95
f 1 95 120
f 1 120 119
f 1 119 138
f 1 138 146
f 1 146 151
f 1 151 150
f 1 150 149
f 1 149 147
f 1 147 139
f 1 139 125
f 1 125 124
f 1 124 123
f 1 123 122
f 1 122 103
f 1 103 102
f 1 102 101
f 1 101 100
f 1 100 99
f 1 99 97
f 1 97 72
f 1 72 53
f 1 53 39
f 1 39 38
f 1 38 27
f 1 27 19
f 1 19 12
f 1 12 2
f 2 12 3
f 3 12 13
f 3 13 20
f 3 20 28
f 3 28 40
f 3 40 54
f 3 54 73
f 3 73 98
f 3 98 105
f 3 105 83
f 3 83 59
f 3 59 81
f 3 81 80
f 3 80 79
f 3 79 78
f 3 78 77
f 3 77 76
f 3 76 75
f 3 75 74
f 3 74 55
f 3 55 41
f 3 41 30
f 3 30 29
f 3 29 22
f 3 22 16
f 3 16 14
f 3 14 9
f 3 9 8
f 3 8 7
f 3 7 6
f 3 6 5
f 3 5 4
f 9 14 10
f 10 14 16
f 10 16 15
f 11 17 23
f 11 23 31
f 11 31 46
f 11 46 63
f 11 63 68
f 11 68 67
f 11 67 49
f 11 49 36
f 11 36 26
f 11 26 18
f 12 19 13
f 13 19 20
f 15 16 22
f 15 22 21
f 17 24 23
f 18 26 25
f 19 27 28
f 19 28 20
f 21 22 29
f 21 29 30
f 23 24 32
f 23 32 33
f 23 33 31
f 25 34 35
f 25 26 34
f 26 36 37
f 26 37 34
f 27 38 28
f 28 38 39
f 28 39 40
f 31 42 43
f 31 43 44
f 31 44 45
f 31 45 46
f 31 33 41
f 31 41 42
f 34 37 47
f 34 47 35
f 35 47 48
f 36 49 37
f 37 49 50
f 37 50 51
f 37 51 52
f 37 52 47
f 39 53 40
f 40 53 54
f 41 55 56
f 41 56 57
f 41 57 42
f 42 57 56
f 42 56 43
f 43 58 44
f 43 56 59
f 43 59 58
f 44 58 60
f 44 60 61
f 44 61 45
f 45 61 62
f 45 62 63
f 45 63 46
f 47 52 64
f 47 64 65
f 47 65 66
f 47 66 48
f 49 67 50
f 50 67 68
f 50 68 69
f 50 69 51
f 51 69 70
f 51 70 71
f 51 71 52
f 52 71 64
f 53 72 54
f 54 72 73
f 55 74 56
f 56 74 75
f 56 75 76
f 56 76 77
f 56 77 78
f 56 78 79
f 56 79 80
f 56 80 81
f 56 81 59
f 58 82 60
f 58 59 83
f 58 83 82
f 60 82 61
f 61 82 62
f 62 82 84
f 62 84 63
f 63 85 86
f 63 86 87
f 63 87 68
f 63 84 85
f 64 88 65
f 64 71 89
f 64 89 90
f 64 90 91
f 64 91 92
f 64 92 93
f 64 93 94
f 64 94 88
f 65 95 66
f 65 88 94
f 65 94 95
f 68 87 96
f 68 96 70
f 68 70 69
f 70 96 90
f 70 90 89
f 70 89 71
f 72 97 73
f 73 97 99
f 73 99 100
f 73 100 101
f 73 101 102
f 73 102 103
f 73 103 98
f 82 104 84
f 82 83 104
f 83 105 106
f 83 106 107
f 83 107 108
f 83 108 109
f 83 109 110
f 83 110 111
f 83 111 84
f 83 84 104
f 84 111 112
f 84 112 85
f 85 112 86
f 86 112 113
f 86 113 114
f 86 114 87
f 87 114 96
f 90 114 113
f 90 113 115
f 90 115 91
f 90 96 114
f 91 115 92
f 92 115 116
f 92 116 117
f 92 117 93
f 93 117 118
f 93 118 94
f 94 119 120
f 94 120 95
f 94 118 121
f 94 121 119
f 98 103 105
f 103 122 105
f 105 122 123
f 105 123 124
f 105 124 125
f 105 125 126
f 105 126 127
f 105 127 128
f 105 128 129
f 105 129 130
f 105 130 131
f 105 131 106
f 106 131 132
f 106 132 107
f 107 132 133
f 107 133 134
f 107 134 109
f 107 109 108
f 109 135 110
f 109 134 117
f 109 117 116
f 109 116 135
f 110 135 111
f 111 135 112
f 112 135 113
f 113 116 115
f 113 135 116
f 117 134 133
f 117 133 118
f 118 133 121
f 119 121 136
f 119 136 137
f 119 137 138
f 121 133 136
f 125 139 127
f 125 127 126
f 127 140 129
f 127 129 128
f 127 139 140
f 129 140 141
f 129 141 142
f 129 142 143
f 129 143 144
f 129 144 130
f 130 144 137
f 130 137 132
f 130 132 131
f 132 137 133
f 133 137 136
f 137 144 145
f 137 145 138
f 138 145 146
f 139 147 140
f 140 147 141
f 141 148 142
f 141 147 148
f 142 148 145
f 142 145 143
f 143 145 144
f 145 148 147
f 145 147 149
f 145 149 150
f 145 150 151
f 145 151 146
