v -0.344706 0.103723 -0.234535
v -0.33009 0.182073 -0.234535
v 0.346293 0.153927 -0.234535
v 0.373988 0.0677143 -0.232412
v 0.370056 0.0581423 -0.231914
v -0.328551 0.057132 -0.231819
v -0.346416 0.057132 -0.213281
v -0.360605 0.057132 -0.194724
v -0.356075 0.115976 -0.223248
v -0.350177 0.123618 -0.233866
v -0.350946 0.140663 -0.233177
v -0.340433 0.170752 -0.232871
v -0.341629 0.178912 -0.223612
v -0.337355 0.189456 -0.214697
v -0.322311 0.189417 -0.233483
v 0.214658 0.189456 -0.234535
v 0.287827 0.177216 -0.233273
v 0.319453 0.16846 -0.23201
v 0.332531 0.163641 -0.231168
v 0.350225 0.160028 -0.214697
v 0.362876 0.152101 -0.21397
v 0.356465 0.148836 -0.23025
v 0.362619 0.14078 -0.232488
v 0.371082 0.127413 -0.23333
v 0.37886 0.0962748 -0.232297
v 0.378262 0.0820787 -0.23136
v 0.386382 0.0801229 -0.218312
v 0.385015 0.0666522 -0.214907
v 0.385613 0.0573522 -0.208058
v 0.400742 0.0571708 -0.179649
v 0.432198 0.057132 -0.0962761
v -0.369238 0.11108 -0.198473
v -0.376333 0.057132 -0.167003
v -0.370692 0.125859 -0.200884
v -0.362742 0.125859 -0.214697
v -0.356844 0.125859 -0.224453
v -0.348724 0.155481 -0.231608
v -0.356844 0.140663 -0.224434
v -0.356502 0.154264 -0.220704
v -0.354964 0.169224 -0.213243
v -0.354878 0.176982 -0.206566
v -0.344706 0.182151 -0.214697
v -0.346758 0.187927 -0.203122
v -0.353254 0.189456 -0.190094
v 0.269449 0.189456 -0.180701
v 0.316718 0.189456 -0.12503
v 0.303555 0.173628 -0.23201
v 0.276458 0.189456 -0.17301
v 0.283467 0.189456 -0.164975
v 0.33313 0.167592 -0.214697
v 0.341677 0.163408 -0.218465
v 0.318257 0.172695 -0.214697
v 0.353302 0.161854 -0.204155
v 0.36185 0.158305 -0.199487
v 0.378176 0.152891 -0.185082
v 0.372107 0.149614 -0.204232
v 0.371253 0.143098 -0.216208
v 0.372022 0.135677 -0.225027
v 0.384844 0.132995 -0.207044
v 0.384758 0.125159 -0.21309
v 0.377578 0.112116 -0.231417
v 0.385698 0.108891 -0.220302
v 0.390229 0.0962748 -0.214697
v 0.385185 0.0920393 -0.222521
v 0.396469 0.081457 -0.201534
v 0.400315 0.0774417 -0.193499
v 0.394673 0.0677531 -0.198627
v 0.400144 0.0656548 -0.187225
v 0.409974 0.0677661 -0.16905
v 0.414675 0.0656678 -0.157151
v 0.415274 0.0573522 -0.148504
v 0.429976 0.0600334 -0.10961
v 0.435617 0.0666522 -0.0962761
v 0.438951 0.0666522 -0.0814687
v 0.43519 0.057132 -0.0817174
v -0.39095 0.057132 -0.136776
v -0.38565 0.125859 -0.171901
v -0.379154 0.125859 -0.185082
v -0.370777 0.140663 -0.201018
v -0.379325 0.140663 -0.185082
v -0.362742 0.140663 -0.214697
v -0.367358 0.155468 -0.202319
v -0.370948 0.15938 -0.193882
v -0.362657 0.170131 -0.199698
v -0.369837 0.171102 -0.185904
v -0.37129 0.179197 -0.174177
v -0.357784 0.180532 -0.196694
v -0.360178 0.186814 -0.18225
v -0.366589 0.18864 -0.167558
v -0.387787 0.189456 -0.11512
v 0.332275 0.189456 -0.0957595
v 0.347832 0.171141 -0.170275
v 0.33313 0.170791 -0.199889
v 0.348174 0.165351 -0.199487
v 0.357576 0.163874 -0.189692
v 0.366124 0.160688 -0.185082
v 0.376552 0.158784 -0.170064
v 0.386297 0.14916 -0.180146
v 0.383476 0.146596 -0.190018
v 0.384502 0.138992 -0.1992
v 0.391853 0.140145 -0.184125
v 0.400913 0.134887 -0.174254
v 0.399802 0.125859 -0.185426
v 0.399289 0.114318 -0.194705
v 0.399289 0.0962748 -0.199047
v 0.405358 0.081457 -0.185082
v 0.413479 0.0794493 -0.168017
v 0.419291 0.081457 -0.155467
v 0.421855 0.0666522 -0.14066
v 0.428608 0.0688023 -0.123212
v 0.434591 0.081457 -0.111083
v 0.438352 0.081457 -0.0962761
v 0.441601 0.081457 -0.0814687
v 0.443139 0.0703696 -0.0634091
v 0.441772 0.0602924 -0.051854
v 0.437583 0.057132 -0.0692058
v -0.396249 0.057132 -0.125776
v -0.385736 0.140663 -0.172015
v -0.392916 0.125859 -0.155467
v -0.393172 0.140663 -0.155467
v -0.376675 0.155468 -0.185082
v -0.382744 0.155468 -0.172915
v -0.38565 0.159367 -0.164401
v -0.379581 0.16903 -0.169031
v -0.384026 0.175778 -0.151622
v -0.384026 0.182721 -0.139933
v -0.372316 0.188497 -0.156137
v -0.386163 0.186282 -0.126713
v -0.395993 0.187448 -0.0962761
v -0.402746 0.188679 -0.0684597
v 0.351935 0.189456 -0.0395337
v 0.346892 0.189456 -0.0663553
v 0.362705 0.168188 -0.155467
v 0.347832 0.168499 -0.185082
v 0.367919 0.163305 -0.171193
v 0.380313 0.160338 -0.155467
v 0.392878 0.152243 -0.154798
v 0.388434 0.150818 -0.170275
v 0.401084 0.149173 -0.145041
v 0.40117 0.143811 -0.157055
v 0.39587 0.143474 -0.170275
v 0.412966 0.137736 -0.139091
v 0.416299 0.129563 -0.144027
v 0.414504 0.124641 -0.154683
v 0.407324 0.125859 -0.170275
v 0.403991 0.112414 -0.186498
v 0.406555 0.0962748 -0.185082
v 0.414162 0.0962748 -0.169414
v 0.420231 0.0962748 -0.155467
v 0.425103 0.081457 -0.14066
v 0.429719 0.081457 -0.127287
v 0.43519 0.0962748 -0.111083
v 0.430061 0.0962748 -0.128301
v 0.438951 0.0962748 -0.0962761
v 0.442113 0.0962748 -0.0814687
v 0.44425 0.081457 -0.0671397
v 0.446558 0.081457 -0.051854
v 0.444934 0.0708618 -0.051854
v 0.442968 0.0590101 -0.0390937
v -0.42061 0.057132 -0.0390937
v -0.399327 0.125859 -0.139397
v -0.401036 0.057132 -0.112231
v -0.390608 0.155468 -0.155467
v -0.399412 0.140663 -0.139684
v -0.398557 0.152619 -0.137216
v -0.386761 0.166685 -0.155467
v -0.390009 0.17162 -0.141961
v -0.400609 0.179081 -0.10037
v -0.400694 0.186308 -0.0828079
v -0.415482 0.172592 -0.051854
v -0.406763 0.187267 -0.051854
v -0.4089 0.186865 -0.0390937
v 0.350054 0.189456 -0.0518349
v 0.405615 0.162255 -0.0390937
v 0.4004 0.163227 -0.0632752
v 0.397238 0.161608 -0.0962761
v 0.387835 0.164237 -0.111083
v 0.386126 0.16346 -0.122638
v 0.383903 0.162398 -0.136585
v 0.375783 0.165377 -0.14066
v 0.372791 0.164121 -0.155467
v 0.39228 0.156349 -0.14066
v 0.404418 0.151634 -0.125891
v 0.415359 0.148785 -0.100561
v 0.416214 0.144212 -0.112499
v 0.414675 0.141246 -0.125891
v 0.430061 0.131519 -0.0946117
v 0.428864 0.124835 -0.111083
v 0.42724 0.121571 -0.121644
v 0.424078 0.11108 -0.14066
v 0.414932 0.112491 -0.163464
v 0.425873 0.0962748 -0.14066
v 0.429121 0.11108 -0.12503
v 0.433224 0.11108 -0.111083
v 0.436985 0.11108 -0.0962761
v 0.443738 0.108385 -0.0648248
v 0.444507 0.0962748 -0.0684597
v 0.440147 0.11108 -0.0814687
v 0.4469 0.0962748 -0.051854
v 0.448524 0.0962748 -0.0390937
v 0.447926 0.0824802 -0.0390937
v 0.445533 0.0682842 -0.0390937
v -0.424115 0.125859 -0.0390937
v -0.422234 0.125859 -0.051854
v -0.41967 0.125859 -0.0666614
v -0.418217 0.057132 -0.0526767
v -0.404028 0.125859 -0.125891
v -0.404284 0.140663 -0.125891
v -0.411208 0.057132 -0.0814687
v -0.400438 0.157554 -0.128684
v -0.406763 0.155468 -0.111083
v -0.398728 0.167592 -0.123748
v -0.400181 0.172527 -0.112193
v -0.405994 0.170273 -0.0962761
v -0.413943 0.169056 -0.0666614
v -0.420867 0.155468 -0.051854
v -0.422833 0.155468 -0.0390937
v -0.41608 0.174962 -0.0403946
v 0.399204 0.162605 -0.0772982
v 0.420915 0.152632 -0.0390937
v 0.405016 0.161595 -0.051854
v 0.406127 0.159509 -0.0675988
v 0.407153 0.157385 -0.0814687
v 0.407153 0.155365 -0.0962761
v 0.395272 0.160494 -0.111083
v 0.391596 0.159743 -0.126905
v 0.408008 0.152256 -0.110299
v 0.417496 0.150443 -0.0814687
v 0.426044 0.144575 -0.0666614
v 0.427839 0.139083 -0.0814687
v 0.424078 0.139614 -0.0959891
v 0.432198 0.137166 -0.0666614
v 0.438181 0.125859 -0.0666614
v 0.435446 0.125859 -0.0814687
v 0.443567 0.115743 -0.0549915
v 0.445276 0.110911 -0.0507636
v 0.445447 0.115652 -0.0406051
v 0.44143 0.127633 -0.0390937
v -0.424713 0.140663 -0.0390937
v -0.422662 0.140663 -0.051854
v -0.416764 0.140663 -0.0814687
v -0.41514 0.124589 -0.0865767
v -0.415824 0.057132 -0.0635239
v -0.419927 0.140663 -0.0666614
v -0.408729 0.125859 -0.111083
v -0.408985 0.140663 -0.111083
v -0.411721 0.154018 -0.0948221
v -0.412661 0.165973 -0.0772408
v -0.418046 0.155468 -0.0666614
v 0.431429 0.14328 -0.0390937
v 0.419889 0.152062 -0.051854
v 0.418693 0.151323 -0.0666614
v 0.430403 0.142334 -0.051854
v 0.441173 0.124537 -0.0507636
v -0.414456 0.155999 -0.0821766
v -0.413772 0.142529 -0.0931769
f 1 2 16
f 1 16 3
f 1 3 4
f 1 4 5
f 1 5 6
f 1 6 7
f 1 7 8
f 1 8 9
f 1 9 10
f 1 10 2
f 2 10 11
f 2 11 12
f 2 12 13
f 2 13 14
f 2 14 15
f 2 15 16
f 3 16 17
f 3 17 18
f 3 18 19
f 3 19 20
f 3 20 21
f 3 21 22
f 3 22 23
f 3 23 24
f 3 24 4
f 4 24 25
f 4 25 26
f 4 26 27
f 4 27 28
f 4 28 29
f 4 29 5
f 5 29 6
f 6 29 30
f 6 30 31
f 6 31 75
f 6 75 116
f 6 116 160
f 6 160 206
f 6 206 243
f 6 243 209
f 6 209 162
f 6 162 117
f 6 117 76
f 6 76 33
f 6 33 8
f 6 8 7
f 8 32 9
f 8 33 32
f 9 32 34
f 9 34 35
f 9 35 36
f 9 36 10
f 10 36 11
f 11 37 12
f 11 36 38
f 11 38 39
f 11 39 37
f 12 37 40
f 12 40 41
f 12 41 13
f 13 41 42
f 13 42 14
f 14 42 43
f 14 43 44
f 14 44 90
f 14 90 131
f 14 131 173
f 14 173 132
f 14 132 91
f 14 91 46
f 14 46 49
f 14 49 48
f 14 48 45
f 14 45 16
f 14 16 15
f 16 45 17
f 17 46 47
f 17 47 18
f 17 45 48
f 17 48 49
f 17 49 46
f 18 50 51
f 18 51 19
f 18 47 52
f 18 52 50
f 19 51 20
f 20 53 54
f 20 54 21
f 20 51 53
f 21 54 55
f 21 55 56
f 21 56 22
f 22 56 57
f 22 57 23
f 23 57 58
f 23 58 24
f 24 58 59
f 24 59 60
f 24 60 61
f 24 61 25
f 25 61 62
f 25 62 63
f 25 63 64
f 25 64 26
f 26 64 27
f 27 64 65
f 27 65 66
f 27 66 28
f 28 66 67
f 28 67 29
f 29 67 68
f 29 68 30
f 30 68 69
f 30 69 70
f 30 70 71
f 30 71 31
f 31 71 72
f 31 72 73
f 31 73 74
f 31 74 75
f 32 33 34
f 33 76 77
f 33 77 78
f 33 78 34
f 34 79 35
f 34 78 80
f 34 80 79
f 35 79 81
f 35 81 36
f 36 81 38
f 37 39 40
f 38 81 39
f 39 81 82
f 39 82 40
f 40 82 83
f 40 83 84
f 40 84 41
f 41 43 42
f 41 84 85
f 41 85 86
f 41 86 87
f 41 87 43
f 43 87 44
f 44 87 88
f 44 88 89
f 44 89 90
f 46 52 47
f 46 91 92
f 46 92 93
f 46 93 52
f 50 52 93
f 50 93 94
f 50 94 51
f 51 94 95
f 51 95 53
f 53 95 96
f 53 96 54
f 54 96 55
f 55 96 97
f 55 97 98
f 55 98 56
f 56 98 99
f 56 99 57
f 57 99 100
f 57 100 59
f 57 59 58
f 59 101 102
f 59 102 103
f 59 103 60
f 59 100 101
f 60 62 61
f 60 103 104
f 60 104 62
f 62 104 105
f 62 105 63
f 63 105 65
f 63 65 64
f 65 105 106
f 65 106 66
f 66 68 67
f 66 106 107
f 66 107 69
f 66 69 68
f 69 107 70
f 70 108 109
f 70 109 71
f 70 107 108
f 71 109 72
f 72 110 73
f 72 109 110
f 73 111 112
f 73 112 74
f 73 110 111
f 74 112 113
f 74 113 114
f 74 114 115
f 74 115 116
f 74 116 75
f 76 117 77
f 77 118 80
f 77 80 78
f 77 117 119
f 77 119 120
f 77 120 118
f 79 82 81
f 79 80 121
f 79 121 82
f 80 118 122
f 80 122 121
f 82 121 83
f 83 121 122
f 83 122 123
f 83 123 124
f 83 124 85
f 83 85 84
f 85 124 86
f 86 124 125
f 86 125 126
f 86 126 127
f 86 127 89
f 86 89 88
f 86 88 87
f 89 127 90
f 90 127 128
f 90 128 129
f 90 129 130
f 90 130 131
f 91 132 92
f 92 133 134
f 92 134 93
f 92 132 133
f 93 134 94
f 94 134 95
f 95 135 96
f 95 134 135
f 96 135 97
f 97 136 137
f 97 137 138
f 97 138 98
f 97 135 136
f 98 101 99
f 98 138 139
f 98 139 140
f 98 140 141
f 98 141 101
f 99 101 100
f 101 141 102
f 102 141 140
f 102 140 142
f 102 142 143
f 102 143 144
f 102 144 145
f 102 145 103
f 103 145 104
f 104 145 146
f 104 146 105
f 105 146 147
f 105 147 106
f 106 147 148
f 106 148 107
f 107 148 108
f 108 149 150
f 108 150 109
f 108 148 149
f 109 150 110
f 110 150 151
f 110 151 111
f 111 152 154
f 111 154 112
f 111 151 153
f 111 153 152
f 112 154 113
f 113 154 155
f 113 155 156
f 113 156 114
f 114 156 157
f 114 157 158
f 114 158 115
f 115 158 159
f 115 159 116
f 116 159 160
f 117 161 119
f 117 162 161
f 118 120 163
f 118 163 122
f 119 161 120
f 120 161 164
f 120 164 165
f 120 165 163
f 122 163 123
f 123 166 124
f 123 163 166
f 124 166 125
f 125 166 167
f 125 167 168
f 125 168 126
f 126 168 128
f 126 128 127
f 128 168 129
f 129 168 169
f 129 169 130
f 130 170 171
f 130 171 172
f 130 172 131
f 130 169 168
f 130 168 170
f 131 172 174
f 131 174 175
f 131 175 173
f 132 173 176
f 132 176 177
f 132 177 178
f 132 178 179
f 132 179 180
f 132 180 181
f 132 181 133
f 133 135 134
f 133 181 135
f 135 181 136
f 136 181 179
f 136 179 182
f 136 182 137
f 137 182 139
f 137 139 138
f 139 183 184
f 139 184 185
f 139 185 186
f 139 186 142
f 139 142 140
f 139 182 183
f 142 186 187
f 142 187 143
f 143 187 188
f 143 188 189
f 143 189 144
f 144 189 190
f 144 190 191
f 144 191 145
f 145 191 146
f 146 148 147
f 146 191 148
f 148 191 149
f 149 191 190
f 149 190 192
f 149 192 150
f 150 192 151
f 151 192 153
f 152 153 193
f 152 193 194
f 152 194 195
f 152 195 154
f 153 192 190
f 153 190 193
f 154 195 198
f 154 198 155
f 155 196 197
f 155 197 156
f 155 198 196
f 156 197 157
f 157 199 200
f 157 200 201
f 157 201 158
f 157 197 199
f 158 201 202
f 158 202 159
f 159 202 201
f 159 201 200
f 159 200 238
f 159 238 250
f 159 250 220
f 159 220 174
f 159 174 172
f 159 172 217
f 159 217 239
f 159 239 203
f 159 203 160
f 160 203 204
f 160 204 205
f 160 205 206
f 161 162 207
f 161 207 208
f 161 208 164
f 162 209 207
f 163 165 210
f 163 210 166
f 164 208 165
f 165 208 211
f 165 211 210
f 166 210 212
f 166 212 167
f 167 212 213
f 167 213 168
f 168 213 214
f 168 214 215
f 168 215 170
f 170 216 217
f 170 217 218
f 170 218 171
f 170 215 216
f 171 218 172
f 172 218 217
f 173 175 219
f 173 219 176
f 174 220 221
f 174 221 175
f 175 221 222
f 175 222 219
f 176 219 223
f 176 223 224
f 176 224 225
f 176 225 178
f 176 178 177
f 178 225 179
f 179 181 180
f 179 225 226
f 179 226 182
f 182 226 183
f 183 226 225
f 183 225 227
f 183 227 184
f 184 228 229
f 184 229 230
f 184 230 231
f 184 231 185
f 184 227 224
f 184 224 228
f 185 231 186
f 186 231 187
f 187 231 230
f 187 230 232
f 187 232 233
f 187 233 234
f 187 234 188
f 188 234 195
f 188 195 189
f 189 195 194
f 189 194 193
f 189 193 190
f 195 234 198
f 196 235 236
f 196 236 199
f 196 199 197
f 196 198 235
f 198 234 235
f 199 236 200
f 200 236 237
f 200 237 238
f 203 239 204
f 204 239 240
f 204 240 205
f 205 241 242
f 205 242 243
f 205 243 206
f 205 240 244
f 205 244 241
f 207 209 245
f 207 245 246
f 207 246 208
f 208 246 211
f 209 243 242
f 209 242 245
f 210 211 212
f 211 214 212
f 211 246 247
f 211 247 248
f 211 248 214
f 212 214 213
f 214 248 215
f 215 248 249
f 215 249 216
f 216 244 240
f 216 240 239
f 216 239 217
f 216 249 244
f 219 222 223
f 220 250 251
f 220 251 222
f 220 222 221
f 222 251 252
f 222 252 223
f 223 252 228
f 223 228 224
f 224 227 225
f 228 252 229
f 229 250 253
f 229 253 232
f 229 232 230
f 229 252 250
f 232 253 250
f 232 250 238
f 232 238 233
f 233 238 254
f 233 254 235
f 233 235 234
f 235 237 236
f 235 254 237
f 237 254 238
f 241 244 249
f 241 249 255
f 241 255 256
f 241 256 242
f 242 256 245
f 245 256 246
f 246 256 247
f 247 256 255
f 247 255 248
f 248 255 249
f 250 252 251
