v 0.341158 0.338447 0.10696
v 0.341508 0.33819 0.10696
v 0.34655 0.33607 0.0805009
v 0.341158 0.33909 0.0962394
v 0.341158 -0.313691 0.10696
v 0.348923 0.332152 0.10696
v 0.356588 0.327012 0.0962394
v 0.347996 0.33395 0.0962394
v 0.35725 0.327654 0.0814443
v 0.348139 0.335299 0.066635
v 0.341158 0.340182 0.075412
v 0.341158 0.339283 0.0929373
v 0.341158 -0.31459 0.0962823
v 0.353611 -0.310607 0.10696
v 0.351508 0.330031 0.10696
v 0.355873 0.326241 0.10696
v 0.363305 0.318339 0.0962394
v 0.36563 0.31699 0.081087
v 0.364915 0.318917 0.066635
v 0.357515 0.327911 0.066635
v 0.346593 0.336327 0.0508536
v 0.341158 0.34031 0.0548275
v 0.341158 0.340375 0.066635
v 0.357621 0.327911 0.0518256
v 0.341158 -0.315168 0.0889491
v 0.35457 -0.3108 0.1013
v 0.362494 -0.308037 0.10696
v 0.361223 0.319238 0.10696
v 0.369513 0.30973 0.0962394
v 0.369979 0.310566 0.0857899
v 0.370339 0.311144 0.0759266
v 0.370583 0.311465 0.066635
v 0.37072 0.311722 0.0518256
v 0.365026 0.31911 0.0518256
v 0.347996 0.335107 0.0370163
v 0.341158 0.340118 0.0446068
v 0.357499 0.327783 0.0370163
v 0.341158 -0.315875 0.066635
v 0.359343 -0.312213 0.0518256
v 0.358537 -0.311892 0.066635
v 0.357113 -0.311442 0.0814443
v 0.356016 -0.311121 0.0914364
v 0.361694 -0.309129 0.0963252
v 0.364512 -0.309258 0.0814443
v 0.377607 -0.303476 0.0814443
v 0.377607 -0.301934 0.0962394
v 0.378242 -0.300199 0.10696
v 0.368861 0.30851 0.10696
v 0.373427 0.302342 0.0962394
v 0.373448 0.304784 0.081087
v 0.374921 0.303563 0.066635
v 0.375202 0.303563 0.0518256
v 0.370524 0.311401 0.0401897
v 0.365932 0.317118 0.0359585
v 0.347996 0.334272 0.0222212
v 0.341158 0.339411 0.0222212
v 0.341158 0.339925 0.0370163
v 0.356879 0.327205 0.0222212
v 0.341158 -0.315939 0.0518256
v 0.35947 -0.312341 0.0370163
v 0.366748 -0.309772 0.0518256
v 0.365943 -0.309643 0.066635
v 0.377607 -0.304504 0.066635
v 0.387819 -0.298401 0.066635
v 0.386935 -0.297694 0.0814443
v 0.385743 -0.29673 0.0962394
v 0.381563 -0.298079 0.10696
v 0.372749 0.301122 0.10696
v 0.379106 0.288723 0.0962394
v 0.380472 0.288723 0.0814443
v 0.38142 0.288723 0.066635
v 0.381706 0.288723 0.0518256
v 0.381209 0.288723 0.0370163
v 0.373856 0.304976 0.0359585
v 0.370148 0.310887 0.0303407
v 0.363808 0.318339 0.0222212
v 0.349421 0.331252 0.00622543
v 0.341158 0.337741 0.00715459
v 0.356069 0.326434 0.0103852
v 0.341158 -0.315746 0.0222212
v 0.359406 -0.312277 -0.0222068
v 0.35974 -0.312277 -0.00739745
v 0.359761 -0.312277 0.0074119
v 0.367166 -0.309964 0.0074119
v 0.377607 -0.304889 0.0518256
v 0.388238 -0.298658 0.0518256
v 0.395267 -0.29249 0.0525404
v 0.395267 -0.291719 0.0652055
v 0.395224 -0.291655 0.066635
v 0.39434 -0.290691 0.0814443
v 0.38507 -0.296152 0.103887
v 0.387549 -0.292683 0.10696
v 0.37775 0.288723 0.10696
v 0.38258 0.273947 0.0962394
v 0.384053 0.273625 0.0820161
v 0.384482 0.277866 0.066635
v 0.384625 0.278508 0.0518256
v 0.373893 0.302792 0.0222212
v 0.384286 0.276131 0.0370163
v 0.379948 0.288723 0.0222212
v 0.369725 0.31018 0.0222212
v 0.360587 0.319752 0.00622543
v 0.346921 0.330995 -0.00739745
v 0.341158 0.337163 0.00320924
v 0.355312 0.325663 0.000507537
v 0.341158 -0.315554 0.0074119
v 0.347996 -0.31414 -0.0370161
v 0.358903 -0.312149 -0.0370161
v 0.36714 -0.3099 -0.00739745
v 0.377607 -0.305018 0.0074119
v 0.388269 -0.298658 0.0370163
v 0.395267 -0.292619 0.0378311
v 0.395267 -0.291591 0.0667208
v 0.395267 -0.289728 0.0814443
v 0.395267 -0.286901 0.0959678
v 0.390733 -0.289214 0.10696
v 0.381198 0.273947 0.10696
v 0.395267 0.166467 0.10696
v 0.385335 0.268422 0.0774561
v 0.385547 0.270478 0.066635
v 0.385594 0.271056 0.0518256
v 0.385324 0.268743 0.0370163
v 0.373004 0.30125 0.0074119
v 0.383645 0.272533 0.0235507
v 0.395267 0.167045 -0.0390603
v 0.381606 0.273947 0.0074119
v 0.378205 0.288723 0.0074119
v 0.368782 0.308638 0.0074119
v 0.360121 0.317183 -0.00739745
v 0.345019 0.32971 -0.0222068
v 0.341158 0.333886 -0.0151595
v 0.341158 0.335299 -0.00739745
v 0.358585 0.314998 -0.0222068
v 0.354326 0.324571 -0.00739745
v 0.343113 0.328104 -0.0370161
v 0.341158 -0.31459 -0.0390603
v 0.345941 -0.314269 -0.0390603
v 0.347996 -0.314076 -0.0390603
v 0.358728 -0.312084 -0.0390603
v 0.366308 -0.309386 -0.0370161
v 0.366811 -0.309707 -0.0222068
v 0.357393 -0.312341 -0.0390603
v 0.377607 -0.304632 -0.00739745
v 0.387968 -0.298593 0.0074119
v 0.388137 -0.298722 0.0222212
v 0.395267 -0.292619 0.0370163
v 0.395267 -0.284781 0.104359
v 0.395267 -0.284524 0.105317
v 0.393222 -0.286387 0.10696
v 0.395267 -0.283946 0.10696
v 0.395267 0.166531 0.10676
v 0.395267 0.166724 0.103844
v 0.395267 0.167174 0.0962394
v 0.395267 0.167366 0.0922512
v 0.395267 0.167816 0.0776705
v 0.395267 0.168459 0.0518256
v 0.395267 0.168523 0.0483091
v 0.395267 0.168651 0.0370163
v 0.395267 0.168651 0.0334855
v 0.395267 0.168523 0.0222212
v 0.395267 0.167945 -0.011257
v 0.395267 0.167752 -0.0222068
v 0.395267 0.167174 -0.0376022
v 0.371769 0.299002 -0.00739745
v 0.367526 0.306454 -0.00739745
v 0.371854 0.275681 -0.0390603
v 0.371234 0.284483 -0.033857
v 0.376134 0.273947 -0.0222068
v 0.379238 0.273947 -0.00739745
v 0.395267 -0.285873 -0.0390603
v 0.375758 0.288723 -0.00739745
v 0.341158 0.329582 -0.036959
v 0.341158 0.330288 -0.0334711
v 0.341158 0.332537 -0.0222068
v 0.356774 0.312686 -0.0370161
v 0.352425 0.322451 -0.0222068
v 0.342832 0.327847 -0.0390603
v 0.341158 0.329068 -0.0390603
v 0.359756 -0.311699 -0.0390603
v 0.366133 -0.309258 -0.0390603
v 0.378984 -0.301227 -0.0390603
v 0.377607 -0.303797 -0.0222068
v 0.387591 -0.298272 -0.00739745
v 0.395267 -0.291783 0.0074119
v 0.395267 -0.292297 0.0222212
v 0.370736 0.297203 -0.0171465
v 0.366467 0.302664 -0.0221353
v 0.368819 0.287631 -0.0390603
v 0.368565 0.289172 -0.0380883
v 0.369587 0.294376 -0.0270241
v 0.372437 0.289172 -0.0221353
v 0.395267 -0.286194 -0.0377452
v 0.394091 -0.287222 -0.0390603
v 0.356493 0.312364 -0.0390603
v 0.350518 0.320074 -0.0370161
v 0.348802 0.321359 -0.0390603
v 0.385462 -0.296537 -0.0390603
v 0.385859 -0.296859 -0.034486
v 0.386792 -0.29763 -0.0222068
v 0.379079 -0.301227 -0.0384599
v 0.394997 -0.291141 -0.00739745
v 0.395267 -0.291526 0.00309488
v 0.362256 0.303563 -0.0370161
v 0.360603 0.30549 -0.0390603
v 0.368289 0.289108 -0.0390603
v 0.36777 0.290265 -0.0390603
v 0.361657 0.303563 -0.0390603
v 0.395267 -0.286515 -0.0361442
v 0.391638 -0.28992 -0.0390603
v 0.351805 0.317889 -0.0390603
v 0.394197 -0.290113 -0.0222068
v 0.395267 -0.290884 -0.00685425
v 0.395267 -0.288957 -0.0222068
v 0.395267 -0.29082 -0.00739745
f 1 2 3
f 1 3 4
f 1 4 12
f 1 12 11
f 1 11 23
f 1 23 22
f 1 22 36
f 1 36 57
f 1 57 56
f 1 56 78
f 1 78 104
f 1 104 132
f 1 132 131
f 1 131 174
f 1 174 173
f 1 173 172
f 1 172 178
f 1 178 136
f 1 136 106
f 1 106 80
f 1 80 59
f 1 59 38
f 1 38 25
f 1 25 13
f 1 13 5
f 1 5 14
f 1 14 27
f 1 27 47
f 1 47 67
f 1 67 92
f 1 92 116
f 1 116 149
f 1 149 150
f 1 150 118
f 1 118 117
f 1 117 93
f 1 93 68
f 1 68 48
f 1 48 28
f 1 28 16
f 1 16 15
f 1 15 6
f 1 6 2
f 2 6 7
f 2 7 8
f 2 8 3
f 3 8 9
f 3 9 10
f 3 10 11
f 3 11 12
f 3 12 4
f 5 13 14
f 6 15 7
f 7 16 17
f 7 17 18
f 7 18 9
f 7 9 8
f 7 15 16
f 9 18 19
f 9 19 20
f 9 20 10
f 10 21 22
f 10 22 23
f 10 23 11
f 10 20 24
f 10 24 21
f 13 25 14
f 14 26 27
f 14 25 26
f 16 28 17
f 17 28 29
f 17 29 30
f 17 30 18
f 18 31 32
f 18 32 19
f 18 30 31
f 19 32 33
f 19 33 34
f 19 34 20
f 20 34 24
f 21 24 35
f 21 35 22
f 22 35 36
f 24 34 37
f 24 37 35
f 25 38 39
f 25 39 40
f 25 40 41
f 25 41 42
f 25 42 26
f 26 42 43
f 26 43 27
f 27 43 44
f 27 44 45
f 27 45 46
f 27 46 47
f 28 48 29
f 29 48 49
f 29 49 30
f 30 49 50
f 30 50 31
f 31 50 51
f 31 51 32
f 32 51 52
f 32 52 33
f 33 52 53
f 33 53 34
f 34 53 54
f 34 54 37
f 35 55 56
f 35 56 57
f 35 57 36
f 35 37 55
f 37 54 58
f 37 58 55
f 38 59 60
f 38 60 39
f 39 61 62
f 39 62 40
f 39 60 61
f 40 62 44
f 40 44 41
f 41 44 43
f 41 43 42
f 44 62 63
f 44 63 45
f 45 63 64
f 45 64 65
f 45 65 46
f 46 65 66
f 46 66 67
f 46 67 47
f 48 68 49
f 49 68 69
f 49 69 70
f 49 70 50
f 50 70 51
f 51 70 71
f 51 71 72
f 51 72 52
f 52 72 73
f 52 73 74
f 52 74 53
f 53 74 75
f 53 75 54
f 54 75 76
f 54 76 58
f 55 58 77
f 55 77 78
f 55 78 56
f 58 76 79
f 58 79 77
f 59 80 81
f 59 81 82
f 59 82 83
f 59 83 60
f 60 83 84
f 60 84 61
f 61 84 85
f 61 85 63
f 61 63 62
f 63 85 86
f 63 86 64
f 64 86 87
f 64 87 88
f 64 88 89
f 64 89 65
f 65 89 90
f 65 90 66
f 66 90 91
f 66 91 67
f 67 91 92
f 68 93 69
f 69 93 94
f 69 94 95
f 69 95 96
f 69 96 70
f 70 96 71
f 71 96 97
f 71 97 72
f 72 97 73
f 73 98 74
f 73 97 99
f 73 99 100
f 73 100 98
f 74 98 75
f 75 98 101
f 75 101 76
f 76 102 79
f 76 101 102
f 77 103 104
f 77 104 78
f 77 79 105
f 77 105 103
f 79 102 105
f 80 106 107
f 80 107 81
f 81 107 108
f 81 108 109
f 81 109 82
f 82 109 84
f 82 84 83
f 84 109 110
f 84 110 85
f 85 110 86
f 86 111 112
f 86 112 87
f 86 110 111
f 87 112 146
f 87 146 185
f 87 185 184
f 87 184 202
f 87 202 212
f 87 212 214
f 87 214 213
f 87 213 208
f 87 208 192
f 87 192 170
f 87 170 125
f 87 125 163
f 87 163 162
f 87 162 161
f 87 161 160
f 87 160 159
f 87 159 158
f 87 158 157
f 87 157 156
f 87 156 155
f 87 155 154
f 87 154 153
f 87 153 152
f 87 152 151
f 87 151 118
f 87 118 150
f 87 150 148
f 87 148 147
f 87 147 115
f 87 115 114
f 87 114 113
f 87 113 88
f 88 113 89
f 89 113 114
f 89 114 90
f 90 114 91
f 91 114 115
f 91 115 116
f 91 116 92
f 93 117 94
f 94 117 118
f 94 118 119
f 94 119 95
f 95 119 96
f 96 119 120
f 96 120 97
f 97 120 121
f 97 121 122
f 97 122 99
f 98 100 123
f 98 123 101
f 99 124 100
f 99 122 125
f 99 125 124
f 100 124 126
f 100 126 127
f 100 127 123
f 101 123 128
f 101 128 102
f 102 128 129
f 102 129 105
f 103 130 131
f 103 131 132
f 103 132 104
f 103 105 130
f 105 129 133
f 105 133 134
f 105 134 135
f 105 135 130
f 106 136 137
f 106 137 107
f 107 137 138
f 107 138 108
f 108 139 140
f 108 140 141
f 108 141 109
f 108 138 142
f 108 142 139
f 109 141 110
f 110 143 144
f 110 144 145
f 110 145 111
f 110 141 143
f 111 145 146
f 111 146 112
f 115 147 116
f 116 147 148
f 116 148 149
f 118 151 120
f 118 120 119
f 120 151 121
f 121 151 152
f 121 152 153
f 121 153 154
f 121 154 155
f 121 155 156
f 121 156 157
f 121 157 158
f 121 158 159
f 121 159 160
f 121 160 161
f 121 161 162
f 121 162 163
f 121 163 125
f 121 125 122
f 123 164 165
f 123 165 128
f 123 127 164
f 124 125 126
f 125 166 167
f 125 167 168
f 125 168 169
f 125 169 126
f 125 170 193
f 125 193 209
f 125 209 197
f 125 197 181
f 125 181 180
f 125 180 179
f 125 179 139
f 125 139 142
f 125 142 138
f 125 138 137
f 125 137 136
f 125 136 178
f 125 178 177
f 125 177 196
f 125 196 210
f 125 210 194
f 125 194 204
f 125 204 207
f 125 207 206
f 125 206 205
f 125 205 188
f 125 188 166
f 126 169 127
f 127 171 164
f 127 169 171
f 128 165 129
f 129 165 133
f 130 172 173
f 130 173 174
f 130 174 131
f 130 135 172
f 133 175 176
f 133 176 134
f 133 165 175
f 134 176 177
f 134 177 135
f 135 177 172
f 139 179 140
f 140 180 181
f 140 181 182
f 140 182 143
f 140 143 141
f 140 179 180
f 143 182 183
f 143 183 144
f 144 183 184
f 144 184 185
f 144 185 146
f 144 146 145
f 148 150 149
f 164 186 165
f 164 171 186
f 165 186 187
f 165 187 175
f 166 188 167
f 167 188 189
f 167 189 190
f 167 190 191
f 167 191 171
f 167 171 169
f 167 169 168
f 170 192 193
f 171 191 186
f 172 177 178
f 175 194 195
f 175 195 176
f 175 187 194
f 176 196 177
f 176 195 196
f 181 197 198
f 181 198 199
f 181 199 200
f 181 200 182
f 182 200 199
f 182 199 183
f 183 199 201
f 183 201 202
f 183 202 184
f 186 191 190
f 186 190 203
f 186 203 187
f 187 203 204
f 187 204 194
f 188 205 189
f 189 205 206
f 189 206 190
f 190 206 207
f 190 207 203
f 192 208 209
f 192 209 193
f 194 210 195
f 195 210 196
f 197 209 211
f 197 211 198
f 198 211 199
f 199 211 201
f 201 212 202
f 201 211 213
f 201 213 214
f 201 214 212
f 203 207 204
f 208 213 211
f 208 211 209
