v -0.148824 -0.442177 -0.234736
v -0.229511 -0.423973 -0.234535
v -0.222797 -0.429609 -0.350861
v -0.223573 -0.429825 -0.36283
v -0.227133 -0.430987 -0.436835
v -0.214696 -0.432271 -0.436835
v -0.204218 -0.430217 -0.447346
v -0.195214 -0.428635 -0.436835
v -0.185104 -0.422094 -0.451621
v -0.175669 -0.416432 -0.451621
v -0.167352 -0.406647 -0.452551
v -0.161909 -0.401349 -0.448226
v -0.156619 -0.392402 -0.436835
v -0.152537 -0.377604 -0.436835
v -0.148824 -0.439136 -0.238961
v -0.148824 -0.30411 -0.234535
v -0.234344 -0.422013 -0.234535
v -0.230974 -0.427784 -0.36283
v -0.231724 -0.427973 -0.377591
v -0.234522 -0.428608 -0.436835
v -0.22548 -0.430338 -0.449131
v -0.214696 -0.430703 -0.450263
v -0.214696 -0.429054 -0.457656
v -0.199551 -0.427744 -0.451998
v -0.185104 -0.417283 -0.463162
v -0.177207 -0.415067 -0.459692
v -0.163193 -0.399227 -0.458083
v -0.159442 -0.393538 -0.452551
v -0.154508 -0.377604 -0.451621
v -0.15241 -0.362805 -0.436835
v -0.151761 -0.362805 -0.421999
v -0.152117 -0.377604 -0.421999
v -0.148824 -0.429473 -0.251559
v -0.148824 -0.43542 -0.244015
v -0.230554 -0.30411 -0.234535
v -0.148824 -0.30411 -0.258223
v -0.243551 -0.418216 -0.234535
v -0.244326 -0.421905 -0.36283
v -0.244326 -0.422338 -0.377591
v -0.244326 -0.423419 -0.421999
v -0.244326 -0.423743 -0.436835
v -0.244326 -0.422081 -0.451621
v -0.230058 -0.428108 -0.453079
v -0.229511 -0.422243 -0.466457
v -0.214696 -0.42404 -0.466457
v -0.198546 -0.420027 -0.46789
v -0.192709 -0.414553 -0.473774
v -0.185104 -0.411823 -0.470581
v -0.176559 -0.401106 -0.474906
v -0.173914 -0.406512 -0.465375
v -0.166042 -0.393538 -0.466884
v -0.161108 -0.389361 -0.462257
v -0.159506 -0.377604 -0.464923
v -0.159506 -0.362805 -0.464898
v -0.154546 -0.362805 -0.451621
v -0.156504 -0.348006 -0.436835
v -0.148824 -0.349209 -0.286537
v -0.148824 -0.364224 -0.291466
v -0.148824 -0.37882 -0.288574
v -0.148824 -0.405998 -0.27233
v -0.231533 -0.30411 -0.258072
v -0.243385 -0.307948 -0.244342
v -0.24322 -0.308097 -0.234535
v -0.214696 -0.304637 -0.318397
v -0.214696 -0.30411 -0.293075
v -0.161909 -0.339059 -0.448276
v -0.167199 -0.333762 -0.452576
v -0.175503 -0.323977 -0.451621
v -0.185104 -0.318017 -0.451621
v -0.193688 -0.311286 -0.436835
v -0.201089 -0.309489 -0.436835
v -0.214696 -0.308043 -0.436835
v -0.214696 -0.307367 -0.421999
v -0.214696 -0.306921 -0.407213
v -0.214696 -0.306516 -0.392377
v -0.251689 -0.413283 -0.234535
v -0.253864 -0.416148 -0.36283
v -0.254169 -0.416391 -0.377591
v -0.254919 -0.41704 -0.421999
v -0.254996 -0.417161 -0.436835
v -0.25394 -0.416337 -0.451621
v -0.252503 -0.415229 -0.460019
v -0.243169 -0.417094 -0.465551
v -0.237459 -0.414931 -0.474176
v -0.229511 -0.416148 -0.475358
v -0.214696 -0.417013 -0.476339
v -0.202577 -0.41608 -0.475459
v -0.198546 -0.408647 -0.480035
v -0.185104 -0.40443 -0.477496
v -0.185728 -0.391997 -0.484687
v -0.174028 -0.392402 -0.477144
v -0.163982 -0.377604 -0.472341
v -0.164071 -0.362805 -0.472265
v -0.161108 -0.350939 -0.462182
v -0.159467 -0.346817 -0.452576
v -0.229511 -0.30411 -0.272757
v -0.237179 -0.310867 -0.431629
v -0.238807 -0.310232 -0.392377
v -0.239379 -0.309989 -0.377591
v -0.242584 -0.307773 -0.259153
v -0.250786 -0.311611 -0.244342
v -0.250634 -0.311692 -0.234535
v -0.16313 -0.341087 -0.458184
v -0.176915 -0.325139 -0.460019
v -0.1863 -0.32322 -0.465551
v -0.199182 -0.3123 -0.452425
v -0.203633 -0.310138 -0.448025
v -0.214696 -0.309746 -0.450665
v -0.226307 -0.310178 -0.449005
v -0.230554 -0.309759 -0.436659
v -0.229511 -0.308948 -0.421999
v -0.262626 -0.403417 -0.234535
v -0.259129 -0.407079 -0.244342
v -0.261265 -0.409417 -0.36283
v -0.261583 -0.409661 -0.377591
v -0.26232 -0.410485 -0.421999
v -0.26241 -0.410418 -0.436835
v -0.261329 -0.409093 -0.451621
v -0.266873 -0.400322 -0.459642
v -0.25787 -0.405877 -0.464747
v -0.253355 -0.401565 -0.475157
v -0.247327 -0.411418 -0.469876
v -0.243169 -0.406782 -0.477169
v -0.229511 -0.407215 -0.481896
v -0.214696 -0.407215 -0.483656
v -0.199919 -0.397335 -0.487755
v -0.191081 -0.386767 -0.489189
v -0.181887 -0.377604 -0.4868
v -0.17137 -0.377604 -0.479407
v -0.166156 -0.346817 -0.466859
v -0.171485 -0.362805 -0.479331
v -0.174193 -0.348006 -0.477018
v -0.236175 -0.311138 -0.441512
v -0.243004 -0.314192 -0.436659
v -0.246208 -0.313584 -0.392377
v -0.246793 -0.313381 -0.377591
v -0.256776 -0.32099 -0.392377
v -0.25703 -0.320787 -0.377591
v -0.264444 -0.328937 -0.377591
v -0.25745 -0.31903 -0.244342
v -0.256331 -0.317841 -0.234535
v -0.176622 -0.339303 -0.474805
v -0.173774 -0.33391 -0.465551
v -0.182141 -0.329437 -0.469927
v -0.192022 -0.325491 -0.474151
v -0.199919 -0.318449 -0.466457
v -0.214696 -0.311205 -0.458083
v -0.230554 -0.311949 -0.453029
v -0.273308 -0.382604 -0.234535
v -0.268056 -0.396443 -0.234837
v -0.266682 -0.399998 -0.244342
v -0.267267 -0.400836 -0.288775
v -0.268793 -0.403093 -0.421999
v -0.268831 -0.403011 -0.436835
v -0.267878 -0.401687 -0.451621
v -0.268425 -0.392402 -0.462333
v -0.263452 -0.392402 -0.469751
v -0.272074 -0.392402 -0.451621
v -0.256038 -0.392402 -0.477496
v -0.243512 -0.39174 -0.484989
v -0.229511 -0.396768 -0.487806
v -0.214696 -0.399349 -0.48856
v -0.199919 -0.389943 -0.489641
v -0.199919 -0.377604 -0.491049
v -0.189301 -0.377604 -0.489742
v -0.182103 -0.362805 -0.486749
v -0.185918 -0.348601 -0.484562
v -0.244326 -0.317003 -0.451621
v -0.256204 -0.322301 -0.436835
v -0.244873 -0.314435 -0.421999
v -0.255021 -0.323207 -0.451621
v -0.263605 -0.329288 -0.436835
v -0.264533 -0.328585 -0.348019
v -0.268984 -0.336681 -0.436835
v -0.264864 -0.32822 -0.234535
v -0.264622 -0.328477 -0.333208
v -0.264686 -0.328464 -0.318397
v -0.1863 -0.33391 -0.476892
v -0.199919 -0.333194 -0.48172
v -0.199919 -0.324436 -0.475283
v -0.214696 -0.316179 -0.466457
v -0.229511 -0.31776 -0.466457
v -0.243512 -0.322625 -0.466155
v -0.275012 -0.377604 -0.234535
v -0.27023 -0.392402 -0.244342
v -0.271273 -0.392402 -0.288775
v -0.273867 -0.392402 -0.421999
v -0.273944 -0.392402 -0.436835
v -0.276322 -0.377604 -0.451621
v -0.2699 -0.376576 -0.467236
v -0.265741 -0.380834 -0.472718
v -0.260133 -0.376576 -0.478476
v -0.247086 -0.377604 -0.486976
v -0.238044 -0.386361 -0.489013
v -0.229511 -0.389375 -0.489541
v -0.214696 -0.391956 -0.489868
v -0.199919 -0.362805 -0.4911
v -0.214696 -0.377604 -0.491225
v -0.214696 -0.362805 -0.491427
v -0.189517 -0.362805 -0.489641
v -0.191374 -0.353939 -0.489063
v -0.199919 -0.34356 -0.487655
v -0.253215 -0.324572 -0.461075
v -0.262435 -0.33064 -0.451621
v -0.268183 -0.338032 -0.451621
v -0.274821 -0.348006 -0.436835
v -0.269353 -0.33587 -0.333208
v -0.264851 -0.328261 -0.244342
v -0.269658 -0.335667 -0.244342
v -0.270536 -0.337708 -0.234535
v -0.269455 -0.335856 -0.318397
v -0.214696 -0.333194 -0.483682
v -0.214696 -0.341033 -0.48856
v -0.214696 -0.323355 -0.476414
v -0.229511 -0.324071 -0.47561
v -0.238044 -0.325247 -0.474403
v -0.247912 -0.328396 -0.470933
v -0.276398 -0.365319 -0.234535
v -0.275241 -0.377604 -0.244342
v -0.277899 -0.377604 -0.421999
v -0.277988 -0.377604 -0.436835
v -0.27552 -0.377604 -0.259153
v -0.277097 -0.362805 -0.451621
v -0.270205 -0.363562 -0.467613
v -0.266657 -0.369981 -0.473975
v -0.260349 -0.363562 -0.478476
v -0.247467 -0.362805 -0.486925
v -0.240053 -0.362805 -0.489666
v -0.239672 -0.377604 -0.48949
v -0.229511 -0.377604 -0.490773
v -0.214696 -0.348439 -0.490018
v -0.199919 -0.350966 -0.489691
v -0.229511 -0.362805 -0.490974
v -0.229511 -0.349952 -0.489767
v -0.253673 -0.338262 -0.475509
v -0.258378 -0.334126 -0.4654
v -0.267038 -0.339857 -0.459894
v -0.273142 -0.348006 -0.451621
v -0.278738 -0.362805 -0.436835
v -0.274923 -0.348006 -0.318397
v -0.274783 -0.348006 -0.234535
v -0.274923 -0.348006 -0.303586
v -0.274859 -0.348006 -0.244342
v -0.229511 -0.333194 -0.482449
v -0.229511 -0.34256 -0.488057
v -0.243512 -0.333275 -0.477697
v -0.275444 -0.35302 -0.234535
v -0.276868 -0.362805 -0.244342
v -0.2787 -0.362805 -0.421999
v -0.277072 -0.362805 -0.259153
v -0.268959 -0.348006 -0.462986
v -0.266085 -0.359129 -0.473321
v -0.256547 -0.348006 -0.477697
v -0.243805 -0.348033 -0.485366
v -0.23854 -0.35298 -0.489264
v -0.263948 -0.348006 -0.470354
f 1 2 3
f 1 3 4
f 1 4 5
f 1 5 6
f 1 6 7
f 1 7 8
f 1 8 9
f 1 9 10
f 1 10 11
f 1 11 12
f 1 12 13
f 1 13 14
f 1 14 15
f 1 15 34
f 1 34 33
f 1 33 60
f 1 60 59
f 1 59 58
f 1 58 57
f 1 57 36
f 1 36 16
f 1 16 2
f 2 16 35
f 2 35 63
f 2 63 102
f 2 102 141
f 2 141 175
f 2 175 210
f 2 210 241
f 2 241 247
f 2 247 218
f 2 218 184
f 2 184 149
f 2 149 112
f 2 112 76
f 2 76 37
f 2 37 17
f 2 17 18
f 2 18 4
f 2 4 3
f 4 18 5
f 5 18 19
f 5 19 20
f 5 20 21
f 5 21 6
f 6 21 22
f 6 22 7
f 7 22 23
f 7 23 24
f 7 24 8
f 8 24 9
f 9 24 25
f 9 25 26
f 9 26 10
f 10 26 11
f 11 26 27
f 11 27 12
f 12 27 28
f 12 28 13
f 13 28 29
f 13 29 14
f 14 30 31
f 14 31 32
f 14 32 33
f 14 33 34
f 14 34 15
f 14 29 30
f 16 36 65
f 16 65 96
f 16 96 61
f 16 61 35
f 17 37 18
f 18 37 19
f 19 37 20
f 20 37 38
f 20 38 39
f 20 39 40
f 20 40 41
f 20 41 42
f 20 42 43
f 20 43 21
f 21 43 23
f 21 23 22
f 23 43 44
f 23 44 45
f 23 45 46
f 23 46 24
f 24 46 25
f 25 46 47
f 25 47 26
f 26 47 48
f 26 48 49
f 26 49 50
f 26 50 27
f 27 50 49
f 27 49 51
f 27 51 52
f 27 52 28
f 28 52 29
f 29 52 53
f 29 53 54
f 29 54 55
f 29 55 30
f 30 55 56
f 30 56 36
f 30 36 31
f 31 36 57
f 31 57 58
f 31 58 59
f 31 59 60
f 31 60 33
f 31 33 32
f 35 61 62
f 35 62 63
f 36 64 65
f 36 56 66
f 36 66 67
f 36 67 68
f 36 68 69
f 36 69 70
f 36 70 71
f 36 71 72
f 36 72 73
f 36 73 74
f 36 74 75
f 36 75 64
f 37 76 77
f 37 77 38
f 38 77 39
f 39 78 79
f 39 79 40
f 39 77 78
f 40 79 41
f 41 79 80
f 41 80 81
f 41 81 42
f 42 81 82
f 42 82 43
f 43 82 83
f 43 83 44
f 44 83 84
f 44 84 85
f 44 85 45
f 45 85 86
f 45 86 87
f 45 87 46
f 46 87 47
f 47 87 88
f 47 88 89
f 47 89 49
f 47 49 48
f 49 89 90
f 49 90 91
f 49 91 51
f 51 92 52
f 51 91 92
f 52 92 53
f 53 92 54
f 54 92 93
f 54 93 94
f 54 94 55
f 55 94 95
f 55 95 56
f 56 95 66
f 61 96 97
f 61 97 98
f 61 98 99
f 61 99 100
f 61 100 62
f 62 101 102
f 62 102 63
f 62 100 101
f 64 75 96
f 64 96 65
f 66 95 103
f 66 103 67
f 67 103 104
f 67 104 68
f 68 104 69
f 69 104 105
f 69 105 106
f 69 106 70
f 70 106 107
f 70 107 71
f 71 107 72
f 72 108 109
f 72 109 110
f 72 110 111
f 72 111 73
f 72 107 108
f 73 111 96
f 73 96 74
f 74 96 75
f 76 112 113
f 76 113 77
f 77 113 114
f 77 114 115
f 77 115 78
f 78 115 116
f 78 116 79
f 79 116 80
f 80 116 117
f 80 117 81
f 81 117 118
f 81 118 82
f 82 118 119
f 82 119 120
f 82 120 121
f 82 121 122
f 82 122 84
f 82 84 83
f 84 121 123
f 84 123 124
f 84 124 85
f 84 122 121
f 85 124 125
f 85 125 86
f 86 125 87
f 87 125 88
f 88 125 126
f 88 126 89
f 89 126 90
f 90 126 127
f 90 127 128
f 90 128 91
f 91 128 129
f 91 129 92
f 92 129 93
f 93 130 94
f 93 129 131
f 93 131 132
f 93 132 130
f 94 103 95
f 94 130 103
f 96 111 97
f 97 110 133
f 97 133 134
f 97 134 135
f 97 135 98
f 97 111 110
f 98 135 99
f 99 136 100
f 99 135 136
f 100 136 101
f 101 136 137
f 101 137 138
f 101 138 139
f 101 139 140
f 101 140 141
f 101 141 102
f 103 130 142
f 103 142 143
f 103 143 104
f 104 143 142
f 104 142 144
f 104 144 145
f 104 145 105
f 105 145 146
f 105 146 106
f 106 146 147
f 106 147 107
f 107 147 108
f 108 147 109
f 109 133 110
f 109 147 148
f 109 148 133
f 112 149 150
f 112 150 151
f 112 151 113
f 113 151 115
f 113 115 114
f 115 151 116
f 116 151 152
f 116 152 153
f 116 153 117
f 117 153 154
f 117 154 155
f 117 155 118
f 118 155 119
f 119 156 157
f 119 157 121
f 119 121 120
f 119 155 158
f 119 158 156
f 121 159 160
f 121 160 123
f 121 157 159
f 123 160 161
f 123 161 124
f 124 161 162
f 124 162 125
f 125 162 126
f 126 162 163
f 126 163 127
f 127 163 164
f 127 164 165
f 127 165 128
f 128 165 166
f 128 166 131
f 128 131 129
f 130 132 142
f 131 166 132
f 132 166 167
f 132 167 142
f 133 148 168
f 133 168 134
f 134 169 170
f 134 170 135
f 134 168 171
f 134 171 169
f 135 170 169
f 135 169 136
f 136 169 137
f 137 169 172
f 137 172 138
f 138 172 139
f 139 173 140
f 139 172 174
f 139 174 173
f 140 175 141
f 140 173 176
f 140 176 177
f 140 177 175
f 142 167 178
f 142 178 145
f 142 145 144
f 145 178 179
f 145 179 180
f 145 180 146
f 146 181 147
f 146 180 181
f 147 181 182
f 147 182 148
f 148 182 183
f 148 183 168
f 149 184 185
f 149 185 150
f 150 185 151
f 151 185 186
f 151 186 152
f 152 186 153
f 153 187 188
f 153 188 154
f 153 186 187
f 154 188 155
f 155 188 158
f 156 158 189
f 156 189 190
f 156 190 191
f 156 191 157
f 157 191 159
f 158 188 189
f 159 191 192
f 159 192 193
f 159 193 160
f 160 193 194
f 160 194 161
f 161 194 195
f 161 195 162
f 162 195 196
f 162 196 163
f 163 196 164
f 164 197 165
f 164 196 198
f 164 198 199
f 164 199 197
f 165 197 200
f 165 200 166
f 166 200 201
f 166 201 167
f 167 201 202
f 167 202 178
f 168 183 203
f 168 203 171
f 169 171 172
f 171 203 204
f 171 204 172
f 172 204 205
f 172 205 174
f 173 174 176
f 174 205 206
f 174 206 207
f 174 207 176
f 175 177 208
f 175 208 209
f 175 209 210
f 176 207 211
f 176 211 177
f 177 211 209
f 177 209 208
f 178 202 179
f 179 212 180
f 179 202 213
f 179 213 212
f 180 212 214
f 180 214 181
f 181 214 215
f 181 215 182
f 182 215 216
f 182 216 183
f 183 216 217
f 183 217 203
f 184 218 219
f 184 219 186
f 184 186 185
f 186 219 187
f 187 220 221
f 187 221 188
f 187 219 222
f 187 222 220
f 188 221 189
f 189 221 223
f 189 223 190
f 190 224 225
f 190 225 191
f 190 223 224
f 191 225 192
f 192 226 227
f 192 227 193
f 192 225 226
f 193 227 228
f 193 228 229
f 193 229 194
f 194 229 230
f 194 230 195
f 195 230 196
f 196 230 198
f 197 199 231
f 197 231 232
f 197 232 201
f 197 201 200
f 198 230 233
f 198 233 199
f 199 233 234
f 199 234 231
f 201 232 202
f 202 232 213
f 203 217 235
f 203 235 236
f 203 236 237
f 203 237 204
f 204 237 205
f 205 237 238
f 205 238 206
f 206 238 223
f 206 223 239
f 206 239 240
f 206 240 209
f 206 209 211
f 206 211 207
f 209 240 210
f 210 240 242
f 210 242 243
f 210 243 241
f 212 213 244
f 212 244 214
f 213 232 231
f 213 231 234
f 213 234 245
f 213 245 244
f 214 244 215
f 215 244 216
f 216 244 246
f 216 246 217
f 217 246 235
f 218 247 248
f 218 248 219
f 219 248 222
f 220 249 221
f 220 222 248
f 220 248 250
f 220 250 249
f 221 249 239
f 221 239 223
f 223 238 251
f 223 251 224
f 224 251 252
f 224 252 225
f 225 252 226
f 226 253 227
f 226 252 253
f 227 254 255
f 227 255 228
f 227 253 254
f 228 233 230
f 228 230 229
f 228 255 233
f 233 255 234
f 234 255 245
f 235 246 254
f 235 254 253
f 235 253 256
f 235 256 237
f 235 237 236
f 237 256 251
f 237 251 238
f 239 249 243
f 239 243 242
f 239 242 240
f 241 243 249
f 241 249 250
f 241 250 247
f 244 245 246
f 245 255 254
f 245 254 246
f 247 250 248
f 251 256 252
f 252 256 253
