v 0.251202 -0.306678 0.280542
v 0.339069 -0.135253 0.285022
v 0.323017 -0.273185 0.282671
v 0.308221 -0.287666 0.282875
v 0.273884 -0.301694 0.284652
v 0.236476 -0.306678 0.295519
v -0.300641 -0.306678 0.282689
v -0.359963 -0.138022 0.281171
v 0.327414 -0.135253 0.298092
v 0.312967 -0.222123 0.320899
v 0.326507 -0.222123 0.304608
v 0.340256 -0.214723 0.286781
v 0.338441 -0.238551 0.285115
v -0.318019 -0.137267 0.326749
v -0.122114 -0.135253 0.431494
v 0.329787 -0.25956 0.285485
v 0.306197 -0.261254 0.313513
v 0.305918 -0.276474 0.300517
v 0.282259 -0.291291 0.305571
v 0.292379 -0.295687 0.287225
v 0.250085 -0.294395 0.328397
v 0.182387 -0.306678 0.34778
v 0.199207 -0.306678 0.332174
v 0.217911 -0.306678 0.314179
v -0.287241 -0.306678 0.297851
v -0.326394 -0.230446 0.326435
v -0.344191 -0.233014 0.303553
v -0.356544 -0.233635 0.286892
v -0.369595 -0.217375 0.283041
v -0.367641 -0.152268 0.284615
v -0.354241 -0.15351 0.302424
v -0.346354 -0.139062 0.298925
v 0.311711 -0.135253 0.312846
v 0.275908 -0.199923 0.357147
v 0.288261 -0.214723 0.347483
v 0.298869 -0.222123 0.336154
v 0.287563 -0.229523 0.346724
v 0.296357 -0.244323 0.333488
v 0.310106 -0.246656 0.317604
v 0.320714 -0.252025 0.302054
v -0.332117 -0.138743 0.314198
v -0.328418 -0.151043 0.328582
v -0.301408 -0.139096 0.343244
v -0.24397 -0.140539 0.385694
v -0.212633 -0.139163 0.401688
v -0.155474 -0.136982 0.423182
v -0.140329 -0.139566 0.429883
v -0.125813 -0.155037 0.444378
v -0.0995012 -0.151815 0.448081
v -0.107178 -0.135253 0.434807
v 0.292448 -0.259325 0.329563
v 0.294472 -0.272715 0.316901
v 0.279886 -0.27446 0.329859
v 0.261112 -0.282548 0.338875
v 0.243804 -0.281793 0.353204
v 0.219516 -0.282381 0.368477
v 0.230683 -0.29369 0.342485
v 0.155378 -0.306678 0.363127
v 0.198439 -0.284327 0.377659
v -0.275446 -0.306678 0.310144
v -0.307899 -0.230497 0.344966
v -0.325905 -0.209136 0.339338
v -0.343632 -0.219757 0.314698
v -0.354729 -0.216888 0.30285
v -0.37134 -0.168041 0.28778
v -0.371898 -0.199923 0.288502
v -0.372735 -0.184368 0.28915
v -0.340631 -0.155809 0.318585
v -0.35773 -0.176264 0.307237
v 0.296776 -0.135253 0.325935
v 0.280723 -0.135253 0.339782
v 0.259926 -0.199923 0.37092
v 0.276606 -0.222123 0.357739
v 0.260554 -0.222123 0.371365
v 0.257064 -0.246236 0.368588
v 0.273186 -0.246673 0.35474
v 0.284143 -0.249341 0.343355
v -0.318577 -0.155691 0.340819
v -0.302036 -0.153594 0.354148
v -0.287241 -0.140438 0.355777
v -0.265466 -0.141646 0.372753
v -0.26051 -0.154483 0.385138
v -0.228337 -0.149449 0.401281
v -0.199792 -0.144734 0.411833
v -0.182344 -0.139582 0.415813
v -0.157428 -0.151211 0.433382
v -0.141306 -0.162739 0.444212
v -0.125813 -0.170307 0.451191
v -0.0747252 -0.165608 0.459263
v -0.0814252 -0.150389 0.449877
v -0.0923127 -0.135253 0.437825
v 0.273186 -0.265852 0.34354
v 0.257762 -0.264963 0.357776
v 0.233963 -0.269477 0.372994
v 0.202487 -0.279226 0.382657
v 0.125507 -0.306678 0.376122
v 0.186924 -0.279176 0.390044
v -0.258696 -0.306678 0.325898
v -0.289055 -0.233366 0.359387
v -0.299873 -0.219875 0.358684
v -0.337909 -0.18264 0.330526
v -0.338817 -0.204454 0.326953
v -0.312017 -0.204202 0.353648
v -0.356265 -0.197037 0.309181
v -0.349006 -0.185107 0.318622
v -0.321718 -0.178462 0.345928
v 0.266556 -0.135253 0.349761
v 0.240663 -0.195393 0.384972
v 0.244153 -0.214723 0.384805
v 0.224122 -0.227694 0.397671
v 0.241152 -0.236504 0.383528
v 0.211769 -0.248753 0.400263
v 0.246037 -0.259828 0.370495
v -0.306922 -0.16935 0.35711
v -0.289962 -0.170307 0.371217
v -0.278238 -0.154835 0.373142
v -0.272096 -0.168293 0.383713
v -0.243202 -0.164685 0.400966
v -0.212913 -0.15752 0.413851
v -0.17697 -0.155842 0.42892
v -0.17027 -0.170307 0.437751
v -0.153869 -0.1718 0.443971
v -0.125813 -0.192523 0.455171
v -0.107318 -0.17576 0.45693
v -0.0740273 -0.192523 0.465483
v -0.044296 -0.192523 0.468593
v -0.014844 -0.185107 0.468852
v -0.044296 -0.163712 0.460984
v -0.0501585 -0.135253 0.441861
v -0.0717939 -0.137518 0.44199
v 0.220982 -0.261758 0.386841
v 0.203045 -0.263083 0.397486
v 0.189087 -0.267983 0.40117
v 0.10785 -0.306678 0.382121
v 0.150911 -0.281995 0.400689
v 0.16787 -0.276004 0.401818
v -0.23727 -0.306678 0.342744
v -0.268606 -0.238601 0.371846
v -0.279354 -0.227543 0.371272
v -0.288846 -0.214723 0.370254
v -0.303502 -0.185107 0.362775
v -0.291568 -0.192523 0.372383
v 0.222517 -0.135253 0.379325
v 0.191181 -0.198967 0.416702
v 0.223564 -0.207072 0.398282
v 0.198928 -0.214723 0.414055
v 0.19823 -0.237544 0.411574
v 0.183853 -0.24971 0.415647
v -0.274259 -0.192523 0.385249
v -0.250181 -0.1841 0.401485
v -0.222055 -0.170189 0.414573
v -0.192045 -0.170777 0.42905
v -0.185066 -0.192523 0.435104
v -0.163221 -0.191819 0.443619
v -0.140608 -0.192523 0.451024
v -0.10997 -0.206233 0.458818
v -0.096221 -0.199923 0.462391
v -0.0740273 -0.214723 0.464502
v -0.044296 -0.214723 0.467778
v -0.014844 -0.20734 0.469648
v -0.014844 -0.163595 0.461317
v 0.0147477 -0.20734 0.468778
v 0.0147477 -0.185107 0.467871
v -0.0291513 -0.135253 0.442324
v 0.168289 -0.261103 0.415906
v 0.0578091 -0.306678 0.396894
v 0.147631 -0.272161 0.412703
v -0.253531 -0.233299 0.386267
v -0.222265 -0.306678 0.352908
v -0.266722 -0.21714 0.38549
v -0.248367 -0.206434 0.401022
v 0.205279 -0.135253 0.389563
v 0.153563 -0.180224 0.42992
v 0.161729 -0.19895 0.431364
v 0.169894 -0.214723 0.429217
v 0.185039 -0.222123 0.421145
v 0.158728 -0.238769 0.43079
v 0.140652 -0.244323 0.435566
v -0.228685 -0.192523 0.414147
v -0.214657 -0.192523 0.421589
v -0.198954 -0.192523 0.429013
v -0.192464 -0.214858 0.429383
v -0.17027 -0.214723 0.438677
v -0.140608 -0.214723 0.449155
v -0.125813 -0.214723 0.453579
v -0.0963606 -0.221754 0.458707
v -0.0814252 -0.229205 0.458855
v -0.0368981 -0.235967 0.460929
v -0.014844 -0.229523 0.464909
v 0.00734975 -0.229523 0.464613
v 0.0141893 -0.164249 0.460188
v 0.0305904 -0.135253 0.439787
v -4.81618e-05 -0.135253 0.441342
v 0.0444091 -0.20734 0.466075
v 0.0444091 -0.185107 0.464594
v 0.0444091 -0.169703 0.459226
v 0.142606 -0.25711 0.427736
v 0.0282174 -0.306678 0.403151
v 0.122785 -0.26701 0.424477
v 0.100103 -0.26696 0.429865
v -0.227778 -0.235027 0.400892
v -0.241318 -0.226688 0.397838
v -0.193929 -0.306678 0.369773
v -0.222055 -0.214891 0.414536
v 0.168848 -0.135253 0.405909
v 0.140652 -0.185107 0.437029
v 0.132626 -0.201232 0.443805
v 0.155448 -0.214723 0.435622
v 0.130741 -0.216838 0.445508
v 0.117411 -0.231957 0.447118
v 0.10429 -0.24585 0.444619
v -0.183321 -0.227476 0.428587
v -0.212913 -0.227577 0.413759
v -0.15338 -0.220143 0.443083
v -0.140608 -0.229121 0.444027
v -0.117996 -0.235296 0.447359
v -0.0875668 -0.248183 0.4466
v -0.0649544 -0.238199 0.456967
v -0.051694 -0.250247 0.450969
v -0.014844 -0.243484 0.458392
v 0.00734975 -0.243266 0.458318
v 0.0221456 -0.236084 0.460984
v 0.0437112 -0.237343 0.458707
v 0.0666028 -0.229322 0.458911
v 0.0527143 -0.135253 0.436714
v 0.0805611 -0.220412 0.458652
v 0.0666028 -0.20734 0.462558
v 0.0808403 -0.193748 0.458837
v 0.066533 -0.178227 0.458578
v 0.0666028 -0.157621 0.447859
v -0.00151379 -0.306678 0.406909
v 0.0813987 -0.264376 0.435159
v 0.0592049 -0.258469 0.443453
v 0.0834924 -0.248384 0.447285
v -0.198884 -0.235732 0.416184
v -0.160011 -0.306678 0.385527
v 0.0907507 -0.166615 0.44673
v 0.11106 -0.17816 0.445637
v 0.123902 -0.186483 0.443842
v 0.0961945 -0.185107 0.45282
v 0.11099 -0.20734 0.451691
v 0.0961945 -0.20734 0.456004
v 0.0961945 -0.229523 0.45319
v -0.162174 -0.238031 0.431364
v -0.121276 -0.306678 0.398227
v -0.141795 -0.306678 0.392117
v -0.101665 -0.306678 0.402633
v -0.0666294 -0.254173 0.446193
v -0.0819137 -0.306678 0.405872
v -0.0666294 -0.306678 0.407761
v -0.0368981 -0.256338 0.448118
v 0.00734975 -0.257194 0.448766
v -0.014844 -0.256992 0.448747
v 0.0295435 -0.260315 0.444989
v -0.0221023 -0.306678 0.408649
v -0.044296 -0.306678 0.409093
f 1 2 3
f 1 3 4
f 1 4 5
f 1 5 6
f 1 6 24
f 1 24 23
f 1 23 22
f 1 22 58
f 1 58 96
f 1 96 134
f 1 134 166
f 1 166 198
f 1 198 231
f 1 231 255
f 1 255 256
f 1 256 250
f 1 250 249
f 1 249 247
f 1 247 245
f 1 245 246
f 1 246 236
f 1 236 203
f 1 203 169
f 1 169 137
f 1 137 98
f 1 98 60
f 1 60 25
f 1 25 7
f 1 7 8
f 1 8 2
f 2 9 10
f 2 10 11
f 2 11 12
f 2 12 13
f 2 13 3
f 2 8 14
f 2 14 15
f 2 15 50
f 2 50 91
f 2 91 129
f 2 129 164
f 2 164 193
f 2 193 192
f 2 192 225
f 2 225 205
f 2 205 172
f 2 172 143
f 2 143 107
f 2 107 71
f 2 71 70
f 2 70 33
f 2 33 9
f 3 13 16
f 3 16 17
f 3 17 18
f 3 18 4
f 4 18 19
f 4 19 20
f 4 20 5
f 5 20 21
f 5 21 22
f 5 22 23
f 5 23 24
f 5 24 6
f 7 25 26
f 7 26 27
f 7 27 28
f 7 28 29
f 7 29 8
f 8 29 30
f 8 30 31
f 8 31 32
f 8 32 14
f 9 33 34
f 9 34 35
f 9 35 10
f 10 36 37
f 10 37 38
f 10 38 39
f 10 39 11
f 10 35 36
f 11 39 13
f 11 13 12
f 13 39 40
f 13 40 16
f 14 41 42
f 14 42 43
f 14 43 44
f 14 44 45
f 14 45 46
f 14 46 15
f 14 32 41
f 15 46 47
f 15 47 48
f 15 48 49
f 15 49 50
f 16 40 17
f 17 40 39
f 17 39 51
f 17 51 52
f 17 52 18
f 18 52 53
f 18 53 54
f 18 54 19
f 19 54 21
f 19 21 20
f 21 54 55
f 21 55 56
f 21 56 57
f 21 57 22
f 22 57 59
f 22 59 58
f 25 60 26
f 26 60 61
f 26 61 62
f 26 62 63
f 26 63 27
f 27 63 64
f 27 64 29
f 27 29 28
f 29 65 30
f 29 64 66
f 29 66 67
f 29 67 65
f 30 65 31
f 31 68 42
f 31 42 32
f 31 65 69
f 31 69 68
f 32 42 41
f 33 70 34
f 34 70 71
f 34 71 72
f 34 72 35
f 35 72 73
f 35 73 37
f 35 37 36
f 37 73 74
f 37 74 75
f 37 75 76
f 37 76 38
f 38 76 77
f 38 77 51
f 38 51 39
f 42 78 79
f 42 79 43
f 42 68 78
f 43 79 80
f 43 80 44
f 44 80 81
f 44 81 82
f 44 82 83
f 44 83 45
f 45 84 85
f 45 85 46
f 45 83 84
f 46 86 47
f 46 85 86
f 47 86 48
f 48 86 87
f 48 87 88
f 48 88 89
f 48 89 49
f 49 89 90
f 49 90 91
f 49 91 50
f 51 77 92
f 51 92 52
f 52 92 53
f 53 92 54
f 54 93 94
f 54 94 55
f 54 92 93
f 55 94 56
f 56 95 59
f 56 59 57
f 56 94 95
f 58 59 96
f 59 95 97
f 59 97 96
f 60 98 61
f 61 98 99
f 61 99 100
f 61 100 62
f 62 101 102
f 62 102 63
f 62 100 103
f 62 103 101
f 63 102 64
f 64 102 104
f 64 104 66
f 65 67 69
f 66 104 67
f 67 104 105
f 67 105 69
f 68 69 101
f 68 101 106
f 68 106 78
f 69 105 101
f 71 107 108
f 71 108 72
f 72 108 109
f 72 109 74
f 72 74 73
f 74 109 110
f 74 110 111
f 74 111 75
f 75 111 112
f 75 112 113
f 75 113 76
f 76 92 77
f 76 113 93
f 76 93 92
f 78 106 114
f 78 114 79
f 79 114 115
f 79 115 116
f 79 116 80
f 80 116 81
f 81 116 82
f 82 116 117
f 82 117 118
f 82 118 83
f 83 118 119
f 83 119 84
f 84 119 120
f 84 120 85
f 85 120 86
f 86 120 87
f 87 120 121
f 87 121 122
f 87 122 88
f 88 122 123
f 88 123 124
f 88 124 89
f 89 124 125
f 89 125 126
f 89 126 127
f 89 127 128
f 89 128 90
f 90 128 129
f 90 129 130
f 90 130 91
f 91 130 129
f 93 113 94
f 94 113 131
f 94 131 132
f 94 132 95
f 95 133 97
f 95 132 133
f 96 97 135
f 96 135 134
f 97 133 136
f 97 136 135
f 98 137 138
f 98 138 99
f 99 138 139
f 99 139 100
f 100 139 140
f 100 140 103
f 101 105 102
f 101 103 141
f 101 141 106
f 102 105 104
f 103 140 142
f 103 142 141
f 106 141 114
f 107 143 108
f 108 143 144
f 108 144 145
f 108 145 109
f 109 145 110
f 110 145 146
f 110 146 147
f 110 147 112
f 110 112 111
f 112 147 148
f 112 148 132
f 112 132 131
f 112 131 113
f 114 141 115
f 115 149 150
f 115 150 117
f 115 117 116
f 115 141 149
f 117 150 118
f 118 150 151
f 118 151 119
f 119 152 120
f 119 151 152
f 120 152 121
f 121 152 153
f 121 153 154
f 121 154 122
f 122 155 123
f 122 154 155
f 123 155 156
f 123 156 157
f 123 157 124
f 124 157 125
f 125 157 158
f 125 158 159
f 125 159 126
f 126 159 160
f 126 160 127
f 127 161 128
f 127 160 162
f 127 162 163
f 127 163 161
f 128 164 129
f 128 161 164
f 132 148 165
f 132 165 133
f 133 165 136
f 134 135 166
f 135 136 167
f 135 167 166
f 136 165 167
f 137 168 138
f 137 169 168
f 138 168 139
f 139 168 170
f 139 170 140
f 140 170 171
f 140 171 149
f 140 149 142
f 141 142 149
f 143 172 144
f 144 146 145
f 144 172 173
f 144 173 174
f 144 174 175
f 144 175 146
f 146 175 176
f 146 176 147
f 147 176 177
f 147 177 148
f 148 177 178
f 148 178 165
f 149 171 150
f 150 171 179
f 150 179 151
f 151 179 180
f 151 180 152
f 152 180 181
f 152 181 153
f 153 181 182
f 153 182 183
f 153 183 154
f 154 183 184
f 154 184 155
f 155 184 185
f 155 185 156
f 156 186 158
f 156 158 157
f 156 185 186
f 158 186 187
f 158 187 159
f 159 187 188
f 159 188 189
f 159 189 160
f 160 189 190
f 160 190 162
f 161 163 191
f 161 191 192
f 161 192 193
f 161 193 164
f 162 190 194
f 162 194 163
f 163 194 195
f 163 195 196
f 163 196 191
f 165 197 167
f 165 178 197
f 166 167 199
f 166 199 200
f 166 200 198
f 167 197 199
f 168 169 201
f 168 201 202
f 168 202 170
f 169 203 201
f 170 202 204
f 170 204 171
f 171 204 179
f 172 205 173
f 173 206 174
f 173 205 206
f 174 206 207
f 174 207 208
f 174 208 175
f 175 208 177
f 175 177 176
f 177 208 209
f 177 209 210
f 177 210 178
f 178 210 211
f 178 211 197
f 179 204 180
f 180 204 182
f 180 182 181
f 182 212 183
f 182 204 213
f 182 213 212
f 183 212 214
f 183 214 184
f 184 214 215
f 184 215 185
f 185 215 186
f 186 215 216
f 186 216 187
f 187 216 217
f 187 217 218
f 187 218 188
f 188 218 219
f 188 219 220
f 188 220 189
f 189 220 221
f 189 221 190
f 190 221 222
f 190 222 223
f 190 223 224
f 190 224 194
f 191 196 225
f 191 225 192
f 194 224 226
f 194 226 227
f 194 227 195
f 195 227 228
f 195 228 229
f 195 229 196
f 196 229 230
f 196 230 225
f 197 211 200
f 197 200 199
f 198 200 232
f 198 232 233
f 198 233 231
f 200 211 234
f 200 234 232
f 201 203 235
f 201 235 213
f 201 213 202
f 202 213 204
f 203 236 235
f 205 225 230
f 205 230 237
f 205 237 238
f 205 238 206
f 206 238 239
f 206 239 207
f 207 239 240
f 207 240 241
f 207 241 209
f 207 209 208
f 209 241 242
f 209 242 226
f 209 226 210
f 210 226 243
f 210 243 211
f 211 243 224
f 211 224 234
f 212 244 215
f 212 215 214
f 212 213 235
f 212 235 244
f 215 244 216
f 216 245 217
f 216 244 246
f 216 246 245
f 217 245 247
f 217 247 248
f 217 248 218
f 218 248 219
f 219 248 249
f 219 249 250
f 219 250 251
f 219 251 220
f 220 252 221
f 220 251 253
f 220 253 252
f 221 254 233
f 221 233 223
f 221 223 222
f 221 252 254
f 223 233 234
f 223 234 224
f 224 243 226
f 226 242 227
f 227 242 228
f 228 242 241
f 228 241 240
f 228 240 229
f 229 240 238
f 229 238 237
f 229 237 230
f 231 233 254
f 231 254 255
f 232 234 233
f 235 236 244
f 236 246 244
f 238 240 239
f 247 249 248
f 250 256 251
f 251 256 253
f 252 253 256
f 252 256 255
f 252 255 254
