v -0.257924 -0.319722 -0.234535
v -0.257403 -0.319085 -0.234535
v 0.189101 -0.319722 -0.234535
v -0.328373 -0.319722 -0.125478
v -0.328448 -0.319625 -0.125344
v -0.323612 -0.315521 -0.129917
v -0.326737 -0.309444 -0.120045
v -0.313718 -0.306903 -0.137455
v -0.310147 -0.297036 -0.132232
v -0.255171 -0.316581 -0.234535
v 0.254121 -0.307097 -0.234535
v 0.259105 -0.307514 -0.229523
v 0.259105 -0.310321 -0.219172
v 0.268032 -0.31126 -0.20861
v 0.283506 -0.311446 -0.194605
v 0.288564 -0.312034 -0.184733
v 0.303517 -0.313694 -0.155479
v 0.244747 -0.319722 -0.169962
v -0.338342 -0.319722 -0.109139
v -0.336631 -0.318134 -0.110842
v -0.339607 -0.313037 -0.102021
v -0.329192 -0.304135 -0.110287
v -0.32324 -0.299575 -0.114687
v -0.318479 -0.303241 -0.126129
v -0.326439 -0.295339 -0.104815
v -0.319149 -0.29055 -0.109158
v -0.30613 -0.29055 -0.128903
v -0.250633 -0.31168 -0.234535
v 0.259105 -0.305769 -0.234535
v 0.268925 -0.302979 -0.234535
v 0.273909 -0.303298 -0.229523
v 0.273388 -0.308659 -0.214006
v 0.277926 -0.310295 -0.204478
v 0.2934 -0.310309 -0.18942
v 0.297417 -0.31134 -0.179548
v 0.279191 -0.319722 -0.126454
v 0.269074 -0.319722 -0.14067
v 0.257989 -0.319722 -0.154484
v 0.302848 -0.3119 -0.169197
v 0.314007 -0.311849 -0.155479
v 0.319065 -0.312717 -0.140746
v 0.318321 -0.31445 -0.12588
v -0.343549 -0.319722 -0.0997447
v -0.344516 -0.318134 -0.09676
v -0.342285 -0.308219 -0.092149
v -0.336482 -0.303401 -0.09676
v -0.326737 -0.29055 -0.0962625
v -0.338937 -0.298349 -0.0856821
v -0.33425 -0.29055 -0.0821616
v -0.331349 -0.29055 -0.087691
v -0.297575 -0.29055 -0.14067
v -0.287457 -0.29055 -0.153948
v -0.254129 -0.29055 -0.195638
v -0.217454 -0.29055 -0.232125
v -0.21366 -0.29055 -0.234535
v 0.273463 -0.301345 -0.234535
v 0.283952 -0.297107 -0.234535
v 0.288713 -0.303473 -0.214714
v 0.288564 -0.308756 -0.199694
v 0.302848 -0.30825 -0.184733
v 0.307311 -0.309875 -0.173387
v 0.311403 -0.311129 -0.163514
v 0.288936 -0.319722 -0.11
v 0.324422 -0.310578 -0.14574
v 0.327025 -0.311398 -0.135887
v 0.32948 -0.3121 -0.12588
v 0.333869 -0.312654 -0.110995
v 0.333126 -0.314005 -0.0962625
v 0.304261 -0.319722 -0.0802484
v -0.353444 -0.319722 -0.0796553
v -0.352179 -0.318237 -0.0812241
v -0.354485 -0.313211 -0.0719447
v -0.344516 -0.303401 -0.0810328
v -0.341392 -0.295151 -0.0758096
v -0.335366 -0.29055 -0.0799231
v 0.294218 -0.29055 -0.234535
v 0.291317 -0.292661 -0.234535
v 0.291912 -0.293532 -0.232545
v 0.296599 -0.296473 -0.222673
v 0.287672 -0.298149 -0.228375
v 0.30017 -0.298329 -0.214714
v 0.304931 -0.301574 -0.201321
v 0.31914 -0.300657 -0.185651
v 0.317131 -0.307217 -0.169197
v 0.321372 -0.309393 -0.155479
v 0.332456 -0.308473 -0.140746
v 0.336845 -0.309747 -0.12588
v 0.339226 -0.310569 -0.115893
v 0.341606 -0.311335 -0.10602
v 0.343615 -0.311869 -0.0962625
v 0.346367 -0.31248 -0.0814537
v 0.318842 -0.319722 -0.0390937
v -0.357833 -0.319722 -0.0697062
v -0.358428 -0.318237 -0.0668554
v -0.364231 -0.318374 -0.0518362
v -0.356419 -0.309059 -0.0620722
v -0.351286 -0.303904 -0.0668554
v -0.341615 -0.29055 -0.0666449
v -0.35389 -0.298575 -0.0518362
v -0.343475 -0.292806 -0.0666449
v 0.296971 -0.29055 -0.231627
v 0.298235 -0.29055 -0.230288
v 0.307534 -0.293863 -0.214714
v 0.310882 -0.296116 -0.207195
v 0.314751 -0.298327 -0.197322
v 0.327992 -0.29765 -0.181078
v 0.333051 -0.29932 -0.169522
v 0.333126 -0.304201 -0.155479
v 0.34793 -0.304478 -0.12588
v 0.347111 -0.308168 -0.110995
v 0.351054 -0.309381 -0.0962625
v 0.353732 -0.310484 -0.0814537
v 0.34793 -0.313754 -0.0518362
v 0.355071 -0.310886 -0.0730927
v 0.356262 -0.311309 -0.0632202
v 0.357601 -0.311786 -0.0518362
v 0.349269 -0.312668 -0.0675442
v -0.368917 -0.319722 -0.0390937
v 0.357378 -0.3124 -0.0390937
v -0.364082 -0.319722 -0.0531946
v -0.364602 -0.319722 -0.051817
v -0.368173 -0.31776 -0.0390937
v -0.358353 -0.305974 -0.0518362
v -0.344665 -0.29055 -0.0593553
v -0.355229 -0.296353 -0.0440682
v -0.347715 -0.29055 -0.0516831
v 0.301137 -0.29055 -0.227074
v 0.304633 -0.29055 -0.22317
v 0.312072 -0.29055 -0.214446
v 0.318768 -0.29055 -0.206276
v 0.31914 -0.293372 -0.201321
v 0.32457 -0.295414 -0.190951
v 0.341234 -0.296716 -0.164069
v 0.343541 -0.298372 -0.155479
v 0.34845 -0.3002 -0.140134
v 0.358121 -0.298298 -0.12588
v 0.361246 -0.300368 -0.111071
v 0.364222 -0.301596 -0.0977358
v 0.362734 -0.305817 -0.0814537
v 0.361841 -0.308282 -0.0675442
v 0.36504 -0.308727 -0.0518362
v 0.358717 -0.312129 -0.0390937
v 0.366081 -0.30931 -0.0390937
v -0.360883 -0.303153 -0.0390937
v -0.360288 -0.301988 -0.0390937
v -0.352402 -0.29055 -0.0390937
v -0.352179 -0.29055 -0.0397442
v -0.359916 -0.301394 -0.0390937
v -0.356047 -0.295314 -0.0390937
v 0.323008 -0.29055 -0.200823
v 0.333051 -0.29055 -0.187277
v 0.337887 -0.29416 -0.173942
v 0.343689 -0.29055 -0.171072
v 0.345698 -0.29055 -0.167819
v 0.349566 -0.29055 -0.160836
v 0.350905 -0.292041 -0.155479
v 0.353658 -0.294671 -0.144707
v 0.356113 -0.29679 -0.134853
v 0.370173 -0.296159 -0.103648
v 0.37181 -0.297464 -0.0937753
v 0.373595 -0.298903 -0.0814537
v 0.375381 -0.300271 -0.0666449
v 0.376868 -0.301325 -0.0518362
v 0.378431 -0.301614 -0.0390937
v 0.391077 -0.29055 -0.0390937
v 0.334837 -0.29055 -0.184656
v 0.352468 -0.29055 -0.155479
v 0.359461 -0.29055 -0.141492
v 0.36437 -0.29055 -0.131046
v 0.365486 -0.291744 -0.12588
v 0.368685 -0.294705 -0.111071
v 0.372554 -0.29055 -0.111071
v 0.376273 -0.29055 -0.100644
v 0.376868 -0.29055 -0.098922
v 0.379323 -0.29055 -0.0913071
v 0.381034 -0.292084 -0.0814537
v 0.382745 -0.293983 -0.0666449
v 0.384233 -0.295476 -0.0518362
v 0.384977 -0.296156 -0.0443744
v 0.385424 -0.296556 -0.0390937
v 0.378951 -0.301277 -0.0390937
v 0.390631 -0.29055 -0.0415236
v 0.366677 -0.29055 -0.12588
v 0.382373 -0.29055 -0.0814537
v 0.38587 -0.29055 -0.0666449
v 0.387581 -0.29055 -0.0580543
f 1 2 10
f 1 10 28
f 1 28 55
f 1 55 76
f 1 76 77
f 1 77 57
f 1 57 56
f 1 56 30
f 1 30 29
f 1 29 11
f 1 11 3
f 1 3 18
f 1 18 38
f 1 38 37
f 1 37 36
f 1 36 63
f 1 63 69
f 1 69 92
f 1 92 118
f 1 118 121
f 1 121 120
f 1 120 93
f 1 93 70
f 1 70 43
f 1 43 19
f 1 19 4
f 1 4 5
f 1 5 6
f 1 6 7
f 1 7 8
f 1 8 9
f 1 9 2
f 2 9 10
f 3 11 12
f 3 12 13
f 3 13 14
f 3 14 15
f 3 15 16
f 3 16 17
f 3 17 18
f 4 19 5
f 5 19 20
f 5 20 21
f 5 21 7
f 5 7 6
f 7 21 22
f 7 22 23
f 7 23 24
f 7 24 8
f 8 24 9
f 9 24 23
f 9 23 25
f 9 25 26
f 9 26 27
f 9 27 28
f 9 28 10
f 11 29 12
f 12 29 30
f 12 30 31
f 12 31 32
f 12 32 33
f 12 33 13
f 13 33 14
f 14 33 15
f 15 33 34
f 15 34 35
f 15 35 16
f 16 35 17
f 17 36 37
f 17 37 38
f 17 38 18
f 17 35 39
f 17 39 40
f 17 40 41
f 17 41 42
f 17 42 36
f 19 43 21
f 19 21 20
f 21 43 44
f 21 44 45
f 21 45 22
f 22 25 23
f 22 45 46
f 22 46 25
f 25 47 26
f 25 46 48
f 25 48 49
f 25 49 50
f 25 50 47
f 26 47 50
f 26 50 49
f 26 49 75
f 26 75 98
f 26 98 124
f 26 124 126
f 26 126 147
f 26 147 146
f 26 146 165
f 26 165 182
f 26 182 186
f 26 186 185
f 26 185 184
f 26 184 175
f 26 175 174
f 26 174 173
f 26 173 172
f 26 172 183
f 26 183 169
f 26 169 168
f 26 168 167
f 26 167 155
f 26 155 154
f 26 154 153
f 26 153 166
f 26 166 151
f 26 151 150
f 26 150 130
f 26 130 129
f 26 129 128
f 26 128 127
f 26 127 102
f 26 102 101
f 26 101 76
f 26 76 55
f 26 55 54
f 26 54 53
f 26 53 52
f 26 52 51
f 26 51 27
f 27 51 28
f 28 51 52
f 28 52 53
f 28 53 54
f 28 54 55
f 30 56 31
f 31 56 57
f 31 57 58
f 31 58 59
f 31 59 32
f 32 59 33
f 33 59 34
f 34 60 61
f 34 61 62
f 34 62 35
f 34 59 60
f 35 62 39
f 36 42 63
f 39 62 40
f 40 64 65
f 40 65 41
f 40 62 64
f 41 65 66
f 41 66 42
f 42 66 67
f 42 67 68
f 42 68 69
f 42 69 63
f 43 70 44
f 44 70 71
f 44 71 72
f 44 72 45
f 45 73 48
f 45 48 46
f 45 72 73
f 48 73 74
f 48 74 49
f 49 74 75
f 57 77 78
f 57 78 79
f 57 79 80
f 57 80 58
f 58 80 81
f 58 81 82
f 58 82 60
f 58 60 59
f 60 82 83
f 60 83 84
f 60 84 61
f 61 84 62
f 62 84 85
f 62 85 64
f 64 85 86
f 64 86 87
f 64 87 65
f 65 87 88
f 65 88 89
f 65 89 66
f 66 89 67
f 67 89 90
f 67 90 68
f 68 90 91
f 68 91 92
f 68 92 69
f 70 93 72
f 70 72 71
f 72 93 94
f 72 94 95
f 72 95 96
f 72 96 97
f 72 97 73
f 73 97 74
f 74 98 75
f 74 97 99
f 74 99 100
f 74 100 98
f 76 101 77
f 77 101 102
f 77 102 78
f 78 102 79
f 79 102 103
f 79 103 104
f 79 104 81
f 79 81 80
f 81 104 82
f 82 104 105
f 82 105 83
f 83 106 107
f 83 107 108
f 83 108 84
f 83 105 106
f 84 108 85
f 85 108 86
f 86 108 109
f 86 109 87
f 87 109 110
f 87 110 111
f 87 111 88
f 88 111 89
f 89 111 112
f 89 112 90
f 90 112 91
f 91 113 92
f 91 112 114
f 91 114 115
f 91 115 116
f 91 116 117
f 91 117 113
f 92 113 119
f 92 119 142
f 92 142 143
f 92 143 164
f 92 164 181
f 92 181 180
f 92 180 165
f 92 165 146
f 92 146 149
f 92 149 148
f 92 148 145
f 92 145 144
f 92 144 122
f 92 122 118
f 93 120 95
f 93 95 94
f 95 120 121
f 95 121 118
f 95 118 122
f 95 122 96
f 96 123 99
f 96 99 97
f 96 122 123
f 98 100 124
f 99 123 125
f 99 125 126
f 99 126 124
f 99 124 100
f 102 127 103
f 103 128 129
f 103 129 104
f 103 127 128
f 104 129 130
f 104 130 131
f 104 131 132
f 104 132 105
f 105 132 106
f 106 132 133
f 106 133 107
f 107 133 108
f 108 133 134
f 108 134 135
f 108 135 109
f 109 135 136
f 109 136 137
f 109 137 111
f 109 111 110
f 111 137 138
f 111 138 139
f 111 139 112
f 112 139 140
f 112 140 141
f 112 141 114
f 113 117 116
f 113 116 142
f 113 142 119
f 114 141 115
f 115 141 116
f 116 141 143
f 116 143 142
f 122 144 123
f 123 144 145
f 123 145 125
f 125 146 147
f 125 147 126
f 125 145 148
f 125 148 149
f 125 149 146
f 130 150 131
f 131 150 132
f 132 150 151
f 132 151 152
f 132 152 133
f 133 152 153
f 133 153 154
f 133 154 155
f 133 155 156
f 133 156 157
f 133 157 158
f 133 158 134
f 134 158 135
f 135 158 136
f 136 158 159
f 136 159 137
f 137 159 160
f 137 160 138
f 138 160 161
f 138 161 139
f 139 161 162
f 139 162 141
f 139 141 140
f 141 162 163
f 141 163 164
f 141 164 143
f 151 166 152
f 152 166 153
f 155 167 156
f 156 167 157
f 157 167 168
f 157 168 158
f 158 168 169
f 158 169 170
f 158 170 171
f 158 171 159
f 159 172 173
f 159 173 174
f 159 174 175
f 159 175 176
f 159 176 160
f 159 171 172
f 160 176 161
f 161 176 177
f 161 177 162
f 162 177 178
f 162 178 179
f 162 179 163
f 163 179 180
f 163 180 181
f 163 181 164
f 165 180 179
f 165 179 178
f 165 178 182
f 169 183 170
f 170 183 171
f 171 183 172
f 175 184 176
f 176 184 185
f 176 185 177
f 177 185 186
f 177 186 178
f 178 186 182
