v -0.384323 0.0127231 -0.234535
v -0.399325 0.0127231 -0.211767
v -0.400208 0.0155348 -0.208113
v -0.387324 0.0178033 -0.225371
v -0.384058 0.0131533 -0.234535
v 0.339135 0.0127231 -0.234535
v -0.400914 0.0127231 -0.209203
v -0.399414 0.02915 -0.191812
v -0.397031 0.0261079 -0.199905
v -0.391913 0.0216058 -0.213853
v -0.413622 0.0127231 -0.185689
v -0.415387 0.0160128 -0.179203
v -0.402502 0.0187028 -0.199905
v -0.383264 0.0276768 -0.219593
v -0.373292 0.0272118 -0.234535
v -0.377175 0.0223011 -0.234535
v 0.364109 0.0515435 -0.234535
v 0.346636 0.0127231 -0.229236
v -0.412386 0.0265469 -0.170287
v -0.414328 0.0292543 -0.162309
v -0.401973 0.0319356 -0.181939
v -0.389618 0.0339389 -0.199905
v -0.386618 0.0311838 -0.20972
v -0.415916 0.0127231 -0.181059
v -0.429771 0.0154261 -0.148916
v -0.422093 0.0223402 -0.155612
v -0.370733 0.0301451 -0.234535
v 0.367286 0.057119 -0.234535
v 0.368257 0.057119 -0.23354
v 0.362433 0.0127231 -0.20002
v 0.370816 0.057119 -0.230211
v 0.371787 0.057119 -0.22891
v 0.372846 0.0552417 -0.225906
v 0.384671 0.057119 -0.209433
v 0.385995 0.057119 -0.207118
v 0.38776 0.0525386 -0.19891
v 0.385465 0.0438515 -0.193304
v -0.404973 0.0347038 -0.170287
v -0.426418 0.0252953 -0.14067
v -0.416622 0.0318356 -0.152436
v -0.396766 0.0421046 -0.170287
v -0.392971 0.0378066 -0.186302
v -0.38397 0.0436821 -0.190645
v -0.381146 0.0413397 -0.199905
v -0.377087 0.0368158 -0.214025
v -0.37338 0.0325787 -0.226825
v -0.429153 0.0127231 -0.15257
v -0.430212 0.0127231 -0.150083
v -0.443449 0.0127231 -0.111435
v -0.444508 0.0154131 -0.104662
v -0.431271 0.0178902 -0.14067
v -0.362614 0.0367028 -0.234535
v -0.324579 0.057119 -0.234535
v 0.377258 0.0127231 -0.170364
v 0.395173 0.0521128 -0.184847
v 0.397996 0.0473672 -0.174095
v 0.400644 0.057119 -0.179873
v -0.407974 0.0378892 -0.157067
v -0.399149 0.0439471 -0.161678
v -0.428359 0.0281765 -0.130319
v -0.419005 0.0343301 -0.14067
v -0.411504 0.0417308 -0.14067
v -0.376381 0.057119 -0.167016
v -0.360584 0.057119 -0.194739
v -0.373733 0.0466502 -0.199905
v -0.370909 0.0449206 -0.208457
v -0.386618 0.0455203 -0.180772
v -0.367203 0.0424479 -0.21833
v -0.44495 0.0127231 -0.106403
v -0.441243 0.0248042 -0.0962625
v -0.439302 0.021093 -0.110191
v -0.433301 0.0228313 -0.125593
v -0.447509 0.0127231 -0.0962625
v -0.445656 0.0173991 -0.0962625
v -0.354142 0.0431171 -0.234535
v -0.353613 0.0434952 -0.234535
v -0.332433 0.057119 -0.229121
v 0.400379 0.0435951 -0.164222
v 0.391643 0.0127231 -0.140134
v 0.40082 0.057119 -0.179509
v 0.402762 0.0521128 -0.169599
v -0.40162 0.0457289 -0.151805
v -0.430036 0.0304059 -0.120446
v -0.421917 0.036981 -0.125631
v -0.413533 0.043556 -0.130836
v -0.390942 0.057119 -0.136767
v -0.346376 0.057119 -0.213298
v -0.443096 0.0279245 -0.0814537
v -0.431624 0.0321355 -0.111071
v -0.450774 0.0127231 -0.0814537
v -0.458363 0.0127231 -0.0457519
v -0.447421 0.0205237 -0.0814537
v 0.414411 0.057119 -0.150408
v 0.412734 0.0474846 -0.14067
v 0.414322 0.0448206 -0.132577
v 0.416176 0.0423218 -0.122704
v 0.406557 0.0127231 -0.0962051
v -0.396237 0.057119 -0.125765
v -0.404091 0.047528 -0.14067
v -0.424564 0.0395362 -0.111071
v -0.415475 0.0452031 -0.120963
v -0.444067 0.0294498 -0.073571
v -0.43383 0.0346908 -0.0962625
v -0.427035 0.0420872 -0.0962625
v -0.459158 0.0127231 -0.0406817
v -0.458716 0.0137922 -0.0416001
v -0.452451 0.0222142 -0.0518362
v -0.448568 0.0235918 -0.0678503
v 0.415734 0.057119 -0.14706
v 0.417058 0.0548897 -0.14067
v 0.419706 0.0505874 -0.126932
v 0.425971 0.0522909 -0.111358
v 0.409381 0.0127231 -0.0838071
v 0.427736 0.0474455 -0.0962625
v 0.428972 0.0452161 -0.0870788
v -0.408062 0.0490838 -0.12588
v -0.417151 0.0465415 -0.111071
v -0.401002 0.057119 -0.112219
v -0.428624 0.0436777 -0.0860073
v -0.439567 0.0363161 -0.0678503
v -0.434801 0.03805 -0.0812241
v -0.445214 0.0309143 -0.0636985
v -0.459334 0.0127231 -0.0390937
v -0.458805 0.0141746 -0.0390937
v -0.45501 0.0212016 -0.0390937
v -0.446273 0.0323397 -0.0518362
v 0.427471 0.057119 -0.114094
v 0.429854 0.057119 -0.106977
v 0.409822 0.0127231 -0.0814537
v 0.430119 0.0434604 -0.0772063
v 0.430384 0.057119 -0.104987
v 0.431531 0.0548506 -0.0962625
v 0.432854 0.0508221 -0.0818747
v -0.419622 0.0482798 -0.0962625
v -0.410886 0.057119 -0.0824678
v -0.429947 0.0448815 -0.0761348
v -0.440008 0.0397361 -0.0518362
v 0.412557 0.0127231 -0.0390937
v -0.447244 0.0335304 -0.0390937
v -0.440978 0.0409312 -0.0390937
v 0.411234 0.0127231 -0.0666449
v 0.431001 0.0421567 -0.0666449
v 0.432149 0.0406401 -0.0518362
v 0.432943 0.0396536 -0.0390937
v 0.43612 0.0518259 -0.0666449
v 0.438414 0.0518259 -0.0518362
v 0.432325 0.057119 -0.0962625
v 0.435237 0.057119 -0.0817025
v 0.43709 0.057119 -0.0719447
v -0.422976 0.0490143 -0.0812241
v -0.422005 0.0525169 -0.0666449
v -0.41521 0.057119 -0.0666449
v -0.431095 0.0458897 -0.0666449
v -0.432683 0.0472064 -0.0518362
v 0.412557 0.0127231 -0.0392085
v -0.433566 0.0479496 -0.0390937
v 0.439914 0.0518259 -0.0390937
v 0.438061 0.057119 -0.0664536
v 0.440532 0.057119 -0.0518362
v 0.442209 0.057119 -0.0390937
v -0.420946 0.0554199 -0.0523527
v -0.416622 0.057119 -0.0603694
v -0.432065 0.0490534 -0.0390937
v -0.423241 0.0554677 -0.0390937
v -0.420593 0.057119 -0.0390937
v -0.418652 0.057119 -0.0504969
v -0.417769 0.057119 -0.05484
f 1 2 3
f 1 3 4
f 1 4 5
f 1 5 16
f 1 16 15
f 1 15 27
f 1 27 52
f 1 52 75
f 1 75 76
f 1 76 53
f 1 53 28
f 1 28 17
f 1 17 6
f 1 6 18
f 1 18 30
f 1 30 54
f 1 54 79
f 1 79 97
f 1 97 113
f 1 113 129
f 1 129 141
f 1 141 155
f 1 155 138
f 1 138 123
f 1 123 105
f 1 105 91
f 1 91 90
f 1 90 73
f 1 73 69
f 1 69 49
f 1 49 48
f 1 48 47
f 1 47 24
f 1 24 11
f 1 11 7
f 1 7 2
f 2 7 3
f 3 8 9
f 3 9 10
f 3 10 4
f 3 7 11
f 3 11 12
f 3 12 13
f 3 13 8
f 4 10 14
f 4 14 15
f 4 15 16
f 4 16 5
f 6 17 18
f 8 13 12
f 8 12 19
f 8 19 20
f 8 20 21
f 8 21 22
f 8 22 23
f 8 23 9
f 9 23 14
f 9 14 10
f 11 24 12
f 12 24 25
f 12 25 26
f 12 26 20
f 12 20 19
f 14 27 15
f 14 23 27
f 17 28 29
f 17 29 18
f 18 29 31
f 18 31 32
f 18 32 33
f 18 33 34
f 18 34 35
f 18 35 36
f 18 36 37
f 18 37 30
f 20 38 21
f 20 26 39
f 20 39 40
f 20 40 38
f 21 41 42
f 21 42 22
f 21 38 41
f 22 42 43
f 22 43 44
f 22 44 23
f 23 44 45
f 23 45 46
f 23 46 27
f 24 47 25
f 25 47 48
f 25 48 49
f 25 49 50
f 25 50 51
f 25 51 39
f 25 39 26
f 27 46 52
f 28 53 77
f 28 77 87
f 28 87 64
f 28 64 63
f 28 63 86
f 28 86 98
f 28 98 118
f 28 118 135
f 28 135 152
f 28 152 162
f 28 162 167
f 28 167 166
f 28 166 165
f 28 165 160
f 28 160 159
f 28 159 158
f 28 158 149
f 28 149 148
f 28 148 147
f 28 147 131
f 28 131 128
f 28 128 127
f 28 127 109
f 28 109 93
f 28 93 80
f 28 80 57
f 28 57 35
f 28 35 34
f 28 34 32
f 28 32 31
f 28 31 29
f 30 37 55
f 30 55 56
f 30 56 54
f 32 34 33
f 35 57 55
f 35 55 36
f 36 55 37
f 38 40 58
f 38 58 59
f 38 59 41
f 39 51 60
f 39 60 40
f 40 60 61
f 40 61 62
f 40 62 58
f 41 59 43
f 41 43 42
f 43 63 64
f 43 64 65
f 43 65 66
f 43 66 44
f 43 59 67
f 43 67 63
f 44 66 45
f 45 66 68
f 45 68 46
f 46 68 52
f 49 69 50
f 50 70 71
f 50 71 72
f 50 72 51
f 50 69 73
f 50 73 74
f 50 74 70
f 51 72 60
f 52 68 75
f 53 76 77
f 54 56 78
f 54 78 79
f 55 57 56
f 56 57 80
f 56 80 81
f 56 81 78
f 58 62 59
f 59 82 63
f 59 63 67
f 59 62 82
f 60 72 71
f 60 71 83
f 60 83 61
f 61 84 85
f 61 85 62
f 61 83 84
f 62 85 82
f 63 82 86
f 64 87 76
f 64 76 66
f 64 66 65
f 66 76 68
f 68 76 75
f 70 74 88
f 70 88 89
f 70 89 83
f 70 83 71
f 73 90 74
f 74 90 91
f 74 91 92
f 74 92 88
f 76 87 77
f 78 81 93
f 78 93 94
f 78 94 79
f 79 94 95
f 79 95 96
f 79 96 97
f 80 93 81
f 82 98 86
f 82 85 99
f 82 99 98
f 83 89 100
f 83 100 84
f 84 100 101
f 84 101 85
f 85 101 99
f 88 102 103
f 88 103 89
f 88 92 102
f 89 103 104
f 89 104 100
f 91 105 106
f 91 106 92
f 92 106 107
f 92 107 108
f 92 108 102
f 93 109 110
f 93 110 94
f 94 110 95
f 95 110 111
f 95 111 96
f 96 111 112
f 96 112 97
f 97 112 114
f 97 114 115
f 97 115 113
f 98 99 116
f 98 116 117
f 98 117 118
f 99 101 116
f 100 104 101
f 101 104 119
f 101 119 117
f 101 117 116
f 102 120 121
f 102 121 103
f 102 108 122
f 102 122 120
f 103 121 119
f 103 119 104
f 105 123 106
f 106 123 124
f 106 124 125
f 106 125 107
f 107 126 122
f 107 122 108
f 107 125 126
f 109 127 110
f 110 127 111
f 111 127 112
f 112 127 128
f 112 128 114
f 113 115 130
f 113 130 129
f 114 128 131
f 114 131 132
f 114 132 115
f 115 132 133
f 115 133 130
f 117 119 134
f 117 134 118
f 118 134 135
f 119 121 136
f 119 136 134
f 120 137 136
f 120 136 121
f 120 122 137
f 122 126 137
f 123 138 144
f 123 144 157
f 123 157 160
f 123 160 165
f 123 165 164
f 123 164 163
f 123 163 156
f 123 156 140
f 123 140 139
f 123 139 125
f 123 125 124
f 125 139 126
f 126 139 140
f 126 140 137
f 129 130 142
f 129 142 143
f 129 143 144
f 129 144 141
f 130 133 145
f 130 145 146
f 130 146 142
f 131 147 132
f 132 147 148
f 132 148 133
f 133 148 149
f 133 149 145
f 134 136 150
f 134 150 135
f 135 150 151
f 135 151 152
f 136 137 153
f 136 153 150
f 137 140 154
f 137 154 153
f 138 155 144
f 140 156 154
f 141 144 155
f 142 146 143
f 143 146 157
f 143 157 144
f 145 149 158
f 145 158 159
f 145 159 146
f 146 159 160
f 146 160 157
f 150 153 151
f 151 161 152
f 151 153 154
f 151 154 161
f 152 161 162
f 154 156 163
f 154 163 164
f 154 164 161
f 161 164 166
f 161 166 167
f 161 167 162
f 164 165 166
