v -0.139134 0.206095 -0.30758
v -0.140693 0.206095 -0.307502
v -0.154794 0.218212 -0.273013
v -0.0885833 0.218212 -0.275309
v -0.123095 0.206095 -0.30507
v -0.155497 0.206095 -0.306029
v -0.155497 0.208658 -0.299335
v -0.169408 0.218212 -0.25922
v -0.166025 0.208319 -0.297841
v -0.233984 0.206936 -0.265055
v -0.252513 0.207491 -0.252255
v -0.258119 0.208546 -0.243967
v -0.268876 0.208992 -0.234535
v -0.258785 0.210481 -0.234535
v -0.254129 0.211131 -0.234535
v -0.0885833 0.218212 -0.234535
v -0.0885833 0.206095 -0.299421
v -0.156656 0.206095 -0.305764
v -0.170092 0.218212 -0.258433
v -0.169085 0.206095 -0.301273
v -0.23178 0.206095 -0.268752
v -0.241833 0.206095 -0.262817
v -0.245634 0.206095 -0.260528
v -0.254813 0.206095 -0.2546
v -0.261882 0.206095 -0.249788
v -0.262395 0.206372 -0.248658
v -0.279062 0.206827 -0.235243
v -0.26918 0.207881 -0.238783
v -0.271536 0.208522 -0.234535
v -0.184972 0.218212 -0.234535
v -0.184725 0.218212 -0.23495
v -0.178891 0.218212 -0.244339
v -0.0885833 0.206095 -0.234535
v -0.264904 0.206095 -0.24765
v -0.276953 0.206095 -0.238912
v -0.28273 0.206095 -0.234535
v -0.280506 0.206687 -0.234535
v -0.279537 0.206927 -0.234535
f 1 2 3
f 1 3 4
f 1 4 5
f 1 5 17
f 1 17 33
f 1 33 36
f 1 36 35
f 1 35 34
f 1 34 25
f 1 25 24
f 1 24 23
f 1 23 22
f 1 22 21
f 1 21 20
f 1 20 18
f 1 18 6
f 1 6 2
f 2 6 7
f 2 7 3
f 3 8 19
f 3 19 32
f 3 32 31
f 3 31 30
f 3 30 16
f 3 16 4
f 3 7 9
f 3 9 10
f 3 10 11
f 3 11 12
f 3 12 13
f 3 13 14
f 3 14 15
f 3 15 8
f 4 16 33
f 4 33 17
f 4 17 5
f 6 18 9
f 6 9 7
f 8 15 19
f 9 18 20
f 9 20 21
f 9 21 10
f 10 21 22
f 10 22 23
f 10 23 11
f 11 23 24
f 11 24 25
f 11 25 26
f 11 26 27
f 11 27 28
f 11 28 29
f 11 29 13
f 11 13 12
f 13 29 38
f 13 38 37
f 13 37 36
f 13 36 33
f 13 33 16
f 13 16 30
f 13 30 15
f 13 15 14
f 15 30 31
f 15 31 32
f 15 32 19
f 25 34 26
f 26 34 27
f 27 35 36
f 27 36 37
f 27 37 38
f 27 38 28
f 27 34 35
f 28 38 29
