v 0.351328 -0.412234 0.32801
v 0.338305 -0.412234 0.34976
v 0.378831 -0.390925 0.32801
v 0.468617 -0.412234 0.32801
v 0.278037 -0.412234 0.450826
v 0.468617 -0.390925 0.32801
v 0.310727 -0.390925 0.450826
v 0.467255 -0.412234 0.332242
v 0.417847 -0.412234 0.450826
v 0.467255 -0.390925 0.332242
v 0.417847 -0.390925 0.450826
v 0.457105 -0.412234 0.363394
v 0.420925 -0.412234 0.446101
v 0.457105 -0.390925 0.363394
v 0.420925 -0.404531 0.446101
v 0.425385 -0.390925 0.439248
v 0.448167 -0.412234 0.390819
v 0.425385 -0.412234 0.439248
v 0.448167 -0.390925 0.390819
v 0.430124 -0.390925 0.43195
v 0.44367 -0.390925 0.404597
v 0.443689 -0.412234 0.404525
v 0.430124 -0.412234 0.43195
v 0.436692 -0.390925 0.421093
v 0.441693 -0.412234 0.409984
v 0.440125 -0.390925 0.41424
v 0.436692 -0.412234 0.421093
v 0.438203 -0.412234 0.418087
v 0.440125 -0.412234 0.41424
f 1 2 3
f 1 3 6
f 1 6 4
f 1 4 8
f 1 8 12
f 1 12 17
f 1 17 22
f 1 22 25
f 1 25 29
f 1 29 28
f 1 28 27
f 1 27 23
f 1 23 18
f 1 18 13
f 1 13 9
f 1 9 5
f 1 5 2
f 2 5 3
f 3 5 7
f 3 7 11
f 3 11 16
f 3 16 20
f 3 20 24
f 3 24 26
f 3 26 21
f 3 21 19
f 3 19 14
f 3 14 10
f 3 10 6
f 4 6 10
f 4 10 8
f 5 9 11
f 5 11 7
f 8 10 14
f 8 14 12
f 9 13 15
f 9 15 11
f 11 15 16
f 12 14 19
f 12 19 17
f 13 18 16
f 13 16 15
f 16 18 23
f 16 23 20
f 17 19 21
f 17 21 22
f 20 23 27
f 20 27 24
f 21 25 22
f 21 26 25
f 24 28 26
f 24 27 28
f 25 26 29
f 26 28 29
