v -0.274282 -0.396634 -0.19416
v -0.267402 -0.396634 -0.198
v -0.274282 -0.396634 -0.07358
v -0.274282 0.541645 -0.19416
v -0.25644 -0.396634 -0.203603
v -0.267402 0.527929 -0.198
v -0.0259541 -0.396634 -0.185871
v -0.274282 0.541645 -0.0750699
v -0.274282 0.54855 -0.19353
v -0.267402 0.541645 -0.197958
v -0.21254 -0.396634 -0.225931
v -0.25644 0.527929 -0.203603
v -0.249585 0.541645 -0.207087
v -0.0259541 -0.396634 -0.277051
v -0.0259541 0.541645 -0.188095
v -0.0259541 0.547337 -0.189186
v -0.0259541 0.551069 -0.190026
v -0.274282 0.546683 -0.076434
v -0.274282 0.549856 -0.193111
v -0.248661 0.549763 -0.206625
v -0.18077 -0.396634 -0.24209
v -0.21254 0.527929 -0.225931
v -0.195184 0.541645 -0.234745
v -0.174863 0.527929 -0.245091
v -0.0284821 -0.396634 -0.277114
v -0.0259541 -0.294744 -0.287942
v -0.274282 0.551069 -0.0787633
v -0.0259541 0.553588 -0.195293
v -0.274282 0.551535 -0.189501
v -0.267402 0.551349 -0.194957
v -0.221388 0.549856 -0.220412
v -0.167984 0.541645 -0.248532
v -0.174863 -0.396634 -0.245091
v -0.171946 -0.396634 -0.24656
v -0.0342916 -0.396634 -0.27724
v -0.0421916 -0.396634 -0.276358
v -0.0480012 -0.396634 -0.275708
v -0.0548803 -0.396634 -0.27426
v -0.0833446 -0.396634 -0.268237
v -0.130283 -0.396634 -0.25829
v -0.138183 -0.396634 -0.256611
v -0.143992 -0.396634 -0.255373
v -0.157678 -0.396634 -0.2521
v -0.0259541 -0.281028 -0.287963
v -0.0259541 0.555174 -0.198819
v -0.274282 0.552562 -0.0822888
v -0.274282 0.553401 -0.184864
v -0.267402 0.555361 -0.185115
v -0.21254 0.551535 -0.222595
v -0.166842 0.549949 -0.247965
v -0.194115 0.549856 -0.234199
v -0.157678 0.541645 -0.2521
v -0.163633 -0.396634 -0.250043
v -0.167984 -0.396634 -0.248532
v -0.0259541 0.308475 -0.287963
v -0.274282 0.555921 -0.095971
v -0.0259541 0.556107 -0.20715
v -0.274282 0.555547 -0.178253
v -0.253669 0.556574 -0.185115
v -0.21254 0.555547 -0.212543
v -0.185121 0.551535 -0.236403
v -0.157678 0.551535 -0.249455
v -0.113024 0.549576 -0.261228
v -0.143992 0.541645 -0.255247
v -0.114677 0.541645 -0.261585
v -0.0548803 0.548456 -0.27426
v -0.0480012 0.541645 -0.275708
v -0.0342916 0.541645 -0.27724
v -0.0259541 0.541645 -0.277051
v -0.0259541 0.556574 -0.212543
v -0.274282 0.556574 -0.109695
v -0.274282 0.556107 -0.171412
v -0.274282 0.556574 -0.16455
v -0.19883 0.556574 -0.212543
v -0.157678 0.555547 -0.23997
v -0.171411 0.552562 -0.240579
v -0.143992 0.552375 -0.250966
v -0.0891541 0.552002 -0.263767
v -0.102864 0.550789 -0.262319
v -0.0480012 0.549483 -0.274973
v -0.0342916 0.550602 -0.27575
v -0.0259541 0.550509 -0.275645
v -0.0259541 0.556574 -0.253673
v -0.171411 0.556574 -0.226246
v -0.143992 0.556387 -0.23997
v -0.0891541 0.556014 -0.253673
v -0.102864 0.554894 -0.253673
v -0.0342916 0.554614 -0.267398
v -0.0480012 0.553588 -0.267398
v -0.0259541 0.554521 -0.267398
v -0.0617107 0.556574 -0.253673
v -0.130283 0.556574 -0.23997
v -0.0754446 0.55648 -0.253673
f 1 2 5
f 1 5 11
f 1 11 21
f 1 21 33
f 1 33 34
f 1 34 54
f 1 54 53
f 1 53 43
f 1 43 42
f 1 42 41
f 1 41 40
f 1 40 39
f 1 39 38
f 1 38 37
f 1 37 36
f 1 36 35
f 1 35 25
f 1 25 14
f 1 14 7
f 1 7 3
f 1 3 8
f 1 8 18
f 1 18 27
f 1 27 46
f 1 46 56
f 1 56 71
f 1 71 73
f 1 73 72
f 1 72 58
f 1 58 47
f 1 47 29
f 1 29 19
f 1 19 9
f 1 9 4
f 1 4 6
f 1 6 2
f 2 6 12
f 2 12 5
f 3 7 8
f 4 9 10
f 4 10 6
f 5 12 22
f 5 22 11
f 6 10 13
f 6 13 12
f 7 14 26
f 7 26 44
f 7 44 55
f 7 55 69
f 7 69 82
f 7 82 90
f 7 90 83
f 7 83 70
f 7 70 57
f 7 57 45
f 7 45 28
f 7 28 17
f 7 17 16
f 7 16 15
f 7 15 8
f 8 15 16
f 8 16 17
f 8 17 18
f 9 19 20
f 9 20 10
f 10 20 13
f 11 22 21
f 12 13 22
f 13 20 23
f 13 23 24
f 13 24 22
f 14 25 26
f 17 27 18
f 17 28 27
f 19 29 30
f 19 30 20
f 20 30 31
f 20 31 32
f 20 32 23
f 21 22 24
f 21 24 33
f 23 32 24
f 24 32 34
f 24 34 33
f 25 35 26
f 26 35 36
f 26 36 37
f 26 37 38
f 26 38 39
f 26 39 40
f 26 40 41
f 26 41 42
f 26 42 43
f 26 43 44
f 27 28 45
f 27 45 46
f 29 47 48
f 29 48 30
f 30 49 31
f 30 48 49
f 31 50 51
f 31 51 32
f 31 49 50
f 32 51 50
f 32 50 52
f 32 52 53
f 32 53 54
f 32 54 34
f 43 53 52
f 43 52 55
f 43 55 44
f 45 56 46
f 45 57 56
f 47 58 48
f 48 58 59
f 48 59 60
f 48 60 49
f 49 61 50
f 49 60 61
f 50 61 62
f 50 62 63
f 50 63 52
f 52 63 64
f 52 64 55
f 55 64 65
f 55 65 66
f 55 66 67
f 55 67 68
f 55 68 69
f 56 57 70
f 56 70 71
f 58 72 59
f 59 72 73
f 59 73 71
f 59 71 70
f 59 70 83
f 59 83 91
f 59 91 92
f 59 92 84
f 59 84 74
f 59 74 60
f 60 74 75
f 60 75 61
f 61 75 76
f 61 76 62
f 62 77 78
f 62 78 79
f 62 79 63
f 62 76 75
f 62 75 77
f 63 79 80
f 63 80 66
f 63 66 64
f 64 66 65
f 66 80 67
f 67 80 68
f 68 80 81
f 68 81 82
f 68 82 69
f 74 84 75
f 75 85 86
f 75 86 87
f 75 87 77
f 75 84 85
f 77 87 78
f 78 81 80
f 78 80 79
f 78 87 86
f 78 86 88
f 78 88 89
f 78 89 81
f 81 89 88
f 81 88 90
f 81 90 82
f 83 90 88
f 83 88 91
f 84 92 85
f 85 93 86
f 85 92 93
f 86 93 88
f 88 93 91
f 91 93 92
