v -0.349687 0.556574 0.420312
v -0.349687 0.556574 0.418218
v -0.404536 0.556574 0.420312
v -0.335223 0.553698 0.420312
v -0.401637 0.556203 0.127362
v -0.404536 0.556574 0.127362
v -0.418232 0.556574 0.404512
v -0.418232 0.556203 0.418218
v -0.418389 0.555739 0.420312
v -0.329096 0.551471 0.420312
v -0.389899 0.553141 0.127362
v -0.459384 0.556574 0.127362
v -0.431944 0.556574 0.377098
v -0.445657 0.556203 0.363391
v -0.443635 0.552213 0.390805
v -0.429782 0.55212 0.418218
v -0.42928 0.551842 0.420312
v -0.325993 0.545069 0.420312
v -0.383098 0.549801 0.127362
v -0.387501 0.55212 0.127362
v -0.473097 0.55546 0.226264
v -0.473097 0.555646 0.24
v -0.459384 0.556574 0.281092
v -0.469853 0.553326 0.127362
v -0.473097 0.554347 0.185144
v -0.445657 0.556574 0.349655
v -0.459384 0.556481 0.294828
v -0.459384 0.555832 0.308534
v -0.456344 0.552213 0.363391
v -0.454605 0.550728 0.374488
v -0.440893 0.550728 0.401787
v -0.43312 0.543306 0.420312
v -0.325115 0.541636 0.420312
v -0.38222 0.541636 0.127362
v -0.482233 0.551471 0.226264
v -0.482499 0.551656 0.24
v -0.473097 0.554996 0.253707
v -0.472454 0.552491 0.127362
v -0.46921 0.551842 0.308534
v -0.459384 0.554625 0.322241
v -0.467768 0.550543 0.322241
v -0.466765 0.549337 0.331618
v -0.460293 0.541636 0.363391
v -0.455639 0.541636 0.376639
v -0.452238 0.541636 0.383492
v -0.441943 0.541636 0.403823
v -0.433512 0.541636 0.420312
v -0.32499 -0.391295 0.420312
v -0.381938 -0.391295 0.127362
v -0.481872 0.5511 0.212557
v -0.485069 0.541636 0.24
v -0.481872 0.551007 0.253707
v -0.480133 0.54878 0.147321
v -0.480415 0.549244 0.157701
v -0.480775 0.549801 0.171437
v -0.481496 0.550728 0.19885
v -0.478848 0.541636 0.127362
v -0.480744 0.549708 0.264374
v -0.4838 0.541636 0.253707
v -0.481151 0.541636 0.266267
v -0.472203 0.541636 0.308534
v -0.467032 0.541636 0.33288
v -0.46349 0.527904 0.349655
v -0.460403 0.527904 0.363391
v -0.452285 0.527904 0.383492
v -0.455811 -0.391295 0.37618
v -0.455639 -0.391295 0.376639
v -0.452411 -0.391295 0.383263
v -0.448571 0.527904 0.390805
v -0.433574 0.530131 0.420312
v -0.433574 -0.391295 0.420312
v -0.479005 -0.391295 0.127362
v -0.484521 0.541636 0.226264
v -0.485069 -0.391295 0.24
v -0.483847 -0.391295 0.253219
v -0.479271 0.541636 0.130287
v -0.479835 0.541636 0.138689
v -0.480227 0.541636 0.145543
v -0.481606 0.541636 0.171437
v -0.478895 0.538667 0.127362
v -0.47971 0.527904 0.27312
v -0.4838 -0.391295 0.253707
v -0.481245 -0.391295 0.265837
v -0.46559 0.527904 0.339762
v -0.46349 -0.391295 0.349655
v -0.460403 -0.391295 0.363391
v -0.479349 -0.391295 0.1298
v -0.479005 0.527904 0.127362
v -0.479866 0.527904 0.138689
v -0.482311 -0.391295 0.184656
v -0.483769 -0.391295 0.212099
v -0.484521 -0.391295 0.226264
v -0.479412 0.527904 0.130287
v -0.47971 -0.391295 0.27312
v -0.46559 -0.391295 0.339762
v -0.479412 -0.391295 0.130287
v -0.479866 -0.391295 0.138689
f 1 2 6
f 1 6 12
f 1 12 23
f 1 23 26
f 1 26 13
f 1 13 7
f 1 7 3
f 1 3 9
f 1 9 17
f 1 17 32
f 1 32 47
f 1 47 70
f 1 70 71
f 1 71 48
f 1 48 33
f 1 33 18
f 1 18 10
f 1 10 4
f 1 4 2
f 2 5 6
f 2 4 5
f 3 7 8
f 3 8 9
f 4 10 11
f 4 11 5
f 5 11 20
f 5 20 19
f 5 19 34
f 5 34 49
f 5 49 72
f 5 72 88
f 5 88 80
f 5 80 57
f 5 57 38
f 5 38 24
f 5 24 12
f 5 12 6
f 7 13 14
f 7 14 8
f 8 14 15
f 8 15 16
f 8 16 9
f 9 16 17
f 10 18 19
f 10 19 20
f 10 20 11
f 12 21 22
f 12 22 23
f 12 24 25
f 12 25 21
f 13 26 14
f 14 26 27
f 14 27 28
f 14 28 29
f 14 29 15
f 15 29 30
f 15 30 31
f 15 31 17
f 15 17 16
f 17 31 32
f 18 33 19
f 19 33 34
f 21 25 35
f 21 35 36
f 21 36 22
f 22 36 37
f 22 37 28
f 22 28 27
f 22 27 23
f 23 27 26
f 24 38 25
f 25 38 35
f 28 37 39
f 28 39 40
f 28 40 29
f 29 39 41
f 29 41 42
f 29 42 30
f 29 40 39
f 30 42 43
f 30 43 44
f 30 44 45
f 30 45 31
f 31 45 46
f 31 46 47
f 31 47 32
f 33 48 49
f 33 49 34
f 35 38 50
f 35 50 51
f 35 51 36
f 36 51 52
f 36 52 37
f 37 52 39
f 38 53 54
f 38 54 55
f 38 55 56
f 38 56 50
f 38 57 53
f 39 52 41
f 41 52 58
f 41 58 42
f 42 58 59
f 42 59 60
f 42 60 61
f 42 61 62
f 42 62 43
f 43 62 63
f 43 63 64
f 43 64 44
f 44 65 45
f 44 64 66
f 44 66 67
f 44 67 68
f 44 68 65
f 45 65 46
f 46 65 69
f 46 69 70
f 46 70 47
f 48 71 68
f 48 68 67
f 48 67 66
f 48 66 86
f 48 86 85
f 48 85 95
f 48 95 94
f 48 94 83
f 48 83 82
f 48 82 75
f 48 75 74
f 48 74 92
f 48 92 91
f 48 91 90
f 48 90 97
f 48 97 96
f 48 96 87
f 48 87 72
f 48 72 49
f 50 56 51
f 51 59 52
f 51 56 55
f 51 55 54
f 51 54 53
f 51 53 73
f 51 73 92
f 51 92 74
f 51 74 75
f 51 75 59
f 52 59 58
f 53 57 76
f 53 76 77
f 53 77 78
f 53 78 79
f 53 79 73
f 57 80 76
f 59 81 60
f 59 75 82
f 59 82 83
f 59 83 81
f 60 81 61
f 61 81 84
f 61 84 63
f 61 63 62
f 63 84 95
f 63 95 85
f 63 85 86
f 63 86 64
f 64 86 66
f 65 68 69
f 68 71 70
f 68 70 69
f 72 87 88
f 73 79 89
f 73 89 90
f 73 90 91
f 73 91 92
f 76 80 93
f 76 93 77
f 77 93 78
f 78 93 89
f 78 89 79
f 80 88 93
f 81 83 94
f 81 94 95
f 81 95 84
f 87 96 93
f 87 93 88
f 89 93 96
f 89 96 97
f 89 97 90
