v 0.00686522 -0.326556 -0.322268
v 0.0479913 -0.326556 -0.322268
v 0.00686522 -0.32632 -0.308546
v -0.00685366 -0.326306 -0.308546
v -0.00685366 -0.326528 -0.322268
v -0.00685366 -0.325889 -0.349714
v 0.0617 -0.326153 -0.322268
v 0.0617 -0.325972 -0.308546
v 0.0479913 -0.32632 -0.308546
v 0.0479913 -0.325889 -0.349714
v 0.0617 -0.324333 -0.404538
v -0.00685366 -0.325264 -0.284606
v -0.020807 -0.321901 -0.284606
v -0.0189418 -0.31997 -0.404538
v -0.00685366 -0.324889 -0.390849
v 0.0722898 -0.32122 -0.284606
v 0.0725242 -0.319747 -0.404538
v 0.0689365 -0.322554 -0.284606
v 0.0617 -0.324889 -0.284606
v 0.0586525 -0.32493 -0.284606
v 0.0479913 -0.325028 -0.284606
v 0.0342724 -0.325097 -0.284606
v 0.00557079 -0.325222 -0.284606
v 0.0479913 -0.324889 -0.390849
v 0.0479913 -0.324555 -0.404538
v 0.0617 -0.323318 -0.418261
v 0.0723612 -0.319303 -0.418261
v -0.0259541 -0.312439 -0.284606
v -0.0241399 -0.308534 -0.418261
v -0.0186972 -0.3194 -0.418261
v -0.00685366 -0.324555 -0.404538
v 0.0725242 -0.320581 -0.322268
v 0.077702 -0.308534 -0.284606
v 0.076326 -0.308534 -0.418261
v 0.0764891 -0.308534 -0.404538
v 0.0479913 -0.323416 -0.418261
v 0.0617 -0.319803 -0.431984
v 0.0694258 -0.315982 -0.440346
v 0.071026 -0.317594 -0.431984
v 0.0749908 -0.308534 -0.431984
v -0.0243845 -0.308534 -0.404538
v -0.0259541 -0.246535 -0.284606
v -0.0259541 -0.308534 -0.286225
v -0.0245883 -0.185133 -0.59649
v -0.0245068 -0.198848 -0.59649
v -0.0245883 -0.253691 -0.527943
v -0.0245679 -0.267391 -0.51422
v -0.0245068 -0.29482 -0.445673
v -0.0224683 -0.308534 -0.431984
v -0.0243641 -0.281106 -0.486808
v -0.0237933 -0.29482 -0.459362
v -0.00685366 -0.323416 -0.418261
v -0.0170256 -0.317594 -0.431984
v 0.07813 -0.29482 -0.284606
v 0.0759794 -0.29482 -0.459362
v 0.0764483 -0.281106 -0.486808
v 0.0764891 -0.29482 -0.445673
v -0.00685366 -0.319803 -0.431984
v 0.0617 -0.289345 -0.510949
v 0.0698335 -0.288887 -0.509769
v 0.0705164 -0.30331 -0.470455
v 0.071454 -0.290665 -0.500497
v 0.0720146 -0.305325 -0.459362
v 0.0754189 -0.281106 -0.500497
v -0.0259541 -0.253691 -0.286764
v -0.021286 -0.23956 -0.284606
v -0.0236506 -0.184605 -0.541666
v -0.0238545 -0.185133 -0.541632
v -0.0245476 -0.184605 -0.555355
v -0.0245883 -0.185133 -0.555355
v -0.0245883 -0.184605 -0.569078
v -0.0245883 -0.184605 -0.59649
v -0.0259541 -0.29482 -0.287978
v -0.0242928 -0.184605 -0.610212
v -0.0242826 -0.185133 -0.610212
v -0.0199202 -0.200209 -0.611595
v -0.0200222 -0.213674 -0.597569
v -0.0244049 -0.212562 -0.5828
v -0.024252 -0.226276 -0.569078
v -0.0240074 -0.239991 -0.555355
v -0.0236201 -0.253691 -0.541632
v -0.0230697 -0.267391 -0.527943
v -0.0229881 -0.281106 -0.500497
v -0.0183608 -0.30545 -0.459362
v -0.0149566 -0.315982 -0.440346
v -0.0175556 -0.290665 -0.500497
v -0.0163835 -0.30331 -0.470455
v -0.0155171 -0.288887 -0.509769
v 0.0781708 -0.281106 -0.284606
v 0.0764891 -0.267391 -0.51422
v 0.0764891 -0.212562 -0.5828
v 0.0764891 -0.198848 -0.59649
v -0.00685366 -0.289345 -0.510949
v 0.0479913 -0.286705 -0.517794
v 0.0617 -0.286553 -0.517794
v 0.069701 -0.275242 -0.535934
v 0.0714031 -0.277646 -0.527943
v 0.0724937 -0.281856 -0.514287
v 0.0753679 -0.267391 -0.527943
v -0.0259541 -0.254525 -0.287
v -0.00837232 -0.234405 -0.284606
v -0.0191864 -0.184605 -0.528111
v -0.0259541 -0.267391 -0.287978
v -0.0201852 -0.184605 -0.620125
v -0.0185035 -0.184605 -0.624037
v -0.0169237 -0.196555 -0.619653
v -0.0172193 -0.209852 -0.60792
v -0.0198183 -0.227013 -0.583407
v -0.017627 -0.277799 -0.527943
v -0.0191252 -0.281981 -0.514287
v -0.0194922 -0.240338 -0.56928
v -0.0189927 -0.253677 -0.555119
v -0.0182589 -0.267002 -0.540958
v -0.00685366 -0.286705 -0.517794
v -0.0153337 -0.275242 -0.535934
v 0.0781708 -0.267391 -0.284606
v 0.0764891 -0.184605 -0.597029
v 0.0757756 -0.253691 -0.541632
v 0.0760916 -0.239991 -0.555355
v 0.076326 -0.226276 -0.569078
v 0.0733192 -0.213632 -0.597569
v 0.0732071 -0.200209 -0.611595
v 0.0763566 -0.185133 -0.610212
v 0.0479913 -0.281342 -0.527943
v 0.0617 -0.281189 -0.527943
v 0.0617 -0.275742 -0.536507
v 0.0617 -0.269837 -0.543385
v 0.0617 -0.250217 -0.566144
v 0.0617 -0.224678 -0.595748
v 0.0617 -0.218717 -0.602592
v 0.0702412 -0.262167 -0.550398
v 0.0718414 -0.267002 -0.540958
v 0.0724223 -0.253677 -0.555119
v 0.0728606 -0.240338 -0.56928
v 0.0731868 -0.226999 -0.583407
v -0.00685366 -0.234308 -0.284606
v -0.0109612 -0.184605 -0.52184
v -0.00916732 -0.184605 -0.628824
v -0.00685366 -0.205698 -0.617057
v -0.0170868 -0.222928 -0.593725
v -0.0168829 -0.236017 -0.57926
v -0.0165568 -0.249092 -0.564829
v -0.0160471 -0.262167 -0.550398
v -0.00685366 -0.281342 -0.527943
v -0.00685366 -0.218773 -0.602626
v -0.00685366 -0.269837 -0.543385
v -0.00685366 -0.275742 -0.536507
v 0.077967 -0.253691 -0.284606
v 0.0763566 -0.184605 -0.610212
v 0.0764891 -0.184605 -0.555894
v 0.0711992 -0.222928 -0.593725
v 0.0711992 -0.209769 -0.60792
v 0.0710158 -0.196555 -0.619653
v 0.0721064 -0.184605 -0.624037
v 0.0733396 -0.184605 -0.620125
v 0.0763056 -0.184605 -0.610718
v 0.0479913 -0.218773 -0.602626
v 0.0617 -0.211867 -0.610212
v 0.0709852 -0.236017 -0.57926
v 0.0706692 -0.249092 -0.564829
v -0.00685366 -0.184605 -0.520592
v 0.0472574 -0.234919 -0.284606
v 0.0617 -0.184605 -0.520592
v -0.00685366 -0.184605 -0.629027
v -0.00685366 -0.186745 -0.627813
v 0.0617 -0.205698 -0.617057
v -0.00685366 -0.211923 -0.610212
v 0.0737473 -0.240574 -0.284606
v 0.0759387 -0.184605 -0.542171
v 0.0617 -0.186745 -0.627813
v 0.0617 -0.184605 -0.629027
v 0.0479913 -0.211923 -0.610212
v 0.0614146 -0.235322 -0.284606
v 0.0725956 -0.184605 -0.528111
v 0.0617 -0.23535 -0.284606
v 0.0726669 -0.184605 -0.52828
f 1 2 9
f 1 9 3
f 1 3 4
f 1 4 5
f 1 5 6
f 1 6 10
f 1 10 2
f 2 7 8
f 2 8 9
f 2 10 11
f 2 11 7
f 3 9 12
f 3 12 4
f 4 12 13
f 4 13 5
f 5 13 14
f 5 14 6
f 6 14 15
f 6 15 24
f 6 24 10
f 7 16 8
f 7 11 17
f 7 17 16
f 8 16 18
f 8 18 19
f 8 19 9
f 9 19 20
f 9 20 21
f 9 21 22
f 9 22 23
f 9 23 12
f 10 24 11
f 11 24 25
f 11 25 26
f 11 26 27
f 11 27 17
f 12 23 22
f 12 22 21
f 12 21 20
f 12 20 19
f 12 19 18
f 12 18 16
f 12 16 33
f 12 33 54
f 12 54 89
f 12 89 116
f 12 116 148
f 12 148 168
f 12 168 175
f 12 175 173
f 12 173 162
f 12 162 136
f 12 136 101
f 12 101 66
f 12 66 42
f 12 42 28
f 12 28 13
f 13 28 14
f 14 29 30
f 14 30 31
f 14 31 15
f 14 28 29
f 15 31 25
f 15 25 24
f 16 32 33
f 16 17 32
f 17 27 34
f 17 34 35
f 17 35 33
f 17 33 32
f 25 31 52
f 25 52 36
f 25 36 26
f 26 36 37
f 26 37 38
f 26 38 39
f 26 39 27
f 27 39 40
f 27 40 34
f 28 41 29
f 28 42 65
f 28 65 100
f 28 100 103
f 28 103 73
f 28 73 43
f 28 43 44
f 28 44 45
f 28 45 46
f 28 46 47
f 28 47 48
f 28 48 41
f 29 49 30
f 29 41 48
f 29 48 50
f 29 50 51
f 29 51 49
f 30 52 31
f 30 49 53
f 30 53 52
f 33 35 54
f 34 40 55
f 34 55 56
f 34 56 57
f 34 57 35
f 35 57 54
f 36 52 58
f 36 58 37
f 37 58 93
f 37 93 59
f 37 59 38
f 38 59 60
f 38 60 39
f 39 60 61
f 39 61 62
f 39 62 63
f 39 63 40
f 40 63 64
f 40 64 55
f 42 66 67
f 42 67 68
f 42 68 69
f 42 69 70
f 42 70 71
f 42 71 72
f 42 72 65
f 43 73 44
f 44 72 74
f 44 74 45
f 44 73 103
f 44 103 72
f 45 74 75
f 45 75 76
f 45 76 77
f 45 77 78
f 45 78 47
f 45 47 46
f 47 78 79
f 47 79 80
f 47 80 81
f 47 81 82
f 47 82 83
f 47 83 50
f 47 50 48
f 49 51 83
f 49 83 84
f 49 84 53
f 50 83 51
f 52 53 85
f 52 85 58
f 53 84 86
f 53 86 87
f 53 87 88
f 53 88 85
f 54 57 56
f 54 56 90
f 54 90 91
f 54 91 92
f 54 92 89
f 55 64 56
f 56 64 90
f 58 85 93
f 59 93 114
f 59 114 94
f 59 94 95
f 59 95 60
f 60 95 96
f 60 96 97
f 60 97 62
f 60 62 61
f 62 97 98
f 62 98 64
f 62 64 63
f 64 98 99
f 64 99 90
f 65 72 100
f 66 101 102
f 66 102 67
f 67 102 137
f 67 137 161
f 67 161 163
f 67 163 174
f 67 174 176
f 67 176 169
f 67 169 150
f 67 150 117
f 67 117 149
f 67 149 156
f 67 156 155
f 67 155 154
f 67 154 171
f 67 171 164
f 67 164 138
f 67 138 105
f 67 105 104
f 67 104 74
f 67 74 72
f 67 72 71
f 67 71 69
f 67 69 68
f 69 71 70
f 72 103 100
f 74 104 75
f 75 104 76
f 76 104 105
f 76 105 106
f 76 106 107
f 76 107 77
f 77 107 108
f 77 108 81
f 77 81 80
f 77 80 79
f 77 79 78
f 81 108 82
f 82 109 110
f 82 110 83
f 82 108 111
f 82 111 112
f 82 112 113
f 82 113 109
f 83 110 86
f 83 86 84
f 85 88 114
f 85 114 93
f 86 110 109
f 86 109 88
f 86 88 87
f 88 109 115
f 88 115 114
f 89 92 117
f 89 117 116
f 90 99 118
f 90 118 119
f 90 119 120
f 90 120 91
f 91 120 121
f 91 121 122
f 91 122 92
f 92 122 123
f 92 123 117
f 94 114 144
f 94 144 124
f 94 124 125
f 94 125 95
f 95 125 96
f 96 125 126
f 96 126 127
f 96 127 128
f 96 128 129
f 96 129 130
f 96 130 131
f 96 131 132
f 96 132 97
f 97 99 98
f 97 132 99
f 99 132 133
f 99 133 134
f 99 134 135
f 99 135 118
f 101 136 137
f 101 137 102
f 105 138 106
f 106 138 139
f 106 139 107
f 107 140 108
f 107 139 140
f 108 140 111
f 109 113 115
f 111 140 112
f 112 140 141
f 112 141 142
f 112 142 113
f 113 142 143
f 113 143 115
f 114 115 144
f 115 143 145
f 115 145 146
f 115 146 147
f 115 147 144
f 116 117 148
f 117 123 149
f 117 150 148
f 118 135 119
f 119 135 121
f 119 121 120
f 121 135 151
f 121 151 152
f 121 152 122
f 122 153 154
f 122 154 155
f 122 155 156
f 122 156 123
f 122 152 153
f 123 156 149
f 124 144 147
f 124 147 126
f 124 126 125
f 126 147 146
f 126 146 127
f 127 146 145
f 127 145 157
f 127 157 128
f 128 157 129
f 129 157 130
f 130 157 158
f 130 158 159
f 130 159 160
f 130 160 131
f 131 160 132
f 132 160 133
f 133 160 159
f 133 159 134
f 134 159 151
f 134 151 135
f 136 161 137
f 136 162 163
f 136 163 161
f 138 164 165
f 138 165 139
f 139 166 172
f 139 172 167
f 139 167 140
f 139 165 170
f 139 170 166
f 140 167 145
f 140 145 141
f 141 145 142
f 142 145 143
f 145 167 172
f 145 172 157
f 148 150 169
f 148 169 168
f 151 158 166
f 151 166 152
f 151 159 158
f 152 166 153
f 153 166 170
f 153 170 171
f 153 171 154
f 157 172 166
f 157 166 158
f 162 173 163
f 163 173 175
f 163 175 174
f 164 171 170
f 164 170 165
f 168 169 176
f 168 176 174
f 168 174 175
