v -0.00255238 -0.160453 0.543108
v -0.0072898 -0.011808 0.604355
v -0.100558 -0.0490044 0.581298
v -0.070949 -0.158148 0.538378
v -0.00444734 -0.207524 0.508227
v -0.00711214 -0.290523 0.441186
v -0.0069345 -0.386641 0.315262
v -0.00634232 -0.437333 0.199625
v -0.00267082 -0.412787 -0.259375
v -0.00255238 0.00925906 0.0902551
v -0.00255238 0.0100585 0.397556
v -0.0665076 -0.000286925 0.602463
v -0.172685 -0.0101151 0.579407
v -0.148761 -0.067438 0.564627
v -0.183522 -0.162757 0.507045
v -0.11175 -0.18688 0.512957
v -0.112994 -0.242181 0.469682
v -0.100558 -0.289018 0.431727
v -0.051644 -0.303454 0.422386
v -0.0857534 -0.337406 0.374736
v -0.0938662 -0.366467 0.331934
v -0.0679288 -0.393553 0.295162
v -0.0562037 -0.418994 0.238171
v -0.0707121 -0.448995 0.151857
v -0.016587 -0.45351 0.151739
v -0.0107244 -0.467946 0.0453246
v -0.00634232 -0.433571 -0.209242
v -0.0188965 -0.414479 -0.254646
v -0.00971773 -0.389321 -0.311755
v -0.00267082 -0.362846 -0.3503
v -0.00267082 0.0101525 -0.407764
v -0.440587 0.0100585 0.421322
v -0.397594 0.0101525 0.0902551
v -0.234272 0.000183322 0.559661
v -0.276612 -0.0641463 0.517095
v -0.25938 -0.122269 0.498768
v -0.229949 -0.152882 0.495576
v -0.249964 -0.187539 0.462351
v -0.199096 -0.212133 0.462114
v -0.221836 -0.248436 0.423687
v -0.177956 -0.291604 0.403113
v -0.0938662 -0.336466 0.373554
v -0.143432 -0.355087 0.329215
v -0.168007 -0.356028 0.318337
v -0.157052 -0.381844 0.282865
v -0.120041 -0.419088 0.213223
v -0.118442 -0.440907 0.149847
v -0.0819043 -0.457225 0.0975859
v -0.0202585 -0.461739 0.0915558
v -0.0535389 -0.463291 0.0628239
v -0.0262395 -0.470251 -0.00930145
v -0.0123825 -0.463855 -0.076579
v -0.0197255 -0.448713 -0.170105
v -0.0172976 -0.456943 -0.129431
v -0.0563814 -0.395905 -0.293664
v -0.043768 -0.431784 -0.208533
v -0.0903724 -0.365856 -0.334338
v -0.0172384 -0.351796 -0.364726
v -0.0138038 -0.303831 -0.426328
v -0.0148697 -0.199906 -0.515006
v -0.00882946 -0.0174979 -0.603567
v -0.118856 0.00620246 -0.596
v -0.273592 0.0101525 -0.543502
v -0.429158 -0.0301475 0.416829
v -0.400733 -0.00649418 0.455257
v -0.361945 0.00234644 0.487063
v -0.536579 0.0100585 0.288777
v -0.510286 -0.00386079 0.329924
v -0.459773 -0.00672929 0.393063
v -0.42667 0.0101525 -0.436141
v -0.311729 -0.00602393 0.519815
v -0.297931 -0.14691 0.460932
v -0.285791 -0.162051 0.460223
v -0.337903 -0.212979 0.375327
v -0.243924 -0.221914 0.434447
v -0.23664 -0.224594 0.43693
v -0.22533 -0.281259 0.389989
v -0.197379 -0.323675 0.349788
v -0.261986 -0.337312 0.280973
v -0.216625 -0.379963 0.243728
v -0.18139 -0.406579 0.206247
v -0.159539 -0.428587 0.153158
v -0.161315 -0.443964 0.0868262
v -0.120159 -0.457554 0.036102
v -0.0787657 -0.463526 -0.00670021
v -0.123001 -0.457319 -0.0312938
v -0.072607 -0.460658 -0.0719677
v -0.0986629 -0.437286 -0.174362
v -0.0810752 -0.450594 -0.139363
v -0.114178 -0.452287 -0.11205
v -0.0720149 -0.411329 -0.253345
v -0.10494 -0.397833 -0.273682
v -0.178903 -0.367549 -0.294492
v -0.106361 -0.328989 -0.380215
v -0.071778 -0.299551 -0.424436
v -0.0669221 -0.290288 -0.436733
v -0.0188965 -0.257182 -0.470904
v -0.0325758 -0.205643 -0.508976
v -0.0774037 -0.15006 -0.541019
v -0.0228049 -0.135106 -0.555444
v -0.0272462 -0.088411 -0.575308
v -0.0677512 -0.0112437 -0.600493
v -0.118856 -0.00625904 -0.593635
v -0.174758 -0.0278433 -0.573889
v -0.230126 -0.00781087 -0.559464
v -0.275428 -0.0127955 -0.53759
v -0.317532 -0.00837516 -0.517016
v -0.396529 -0.0995558 0.41139
v -0.496133 -0.0759024 0.303202
v -0.337607 -0.154716 0.427589
v -0.550672 -0.0125133 0.245857
v -0.607522 0.00817749 -0.0311755
v -0.582354 -0.0168866 0.159661
v -0.381606 -0.00696442 -0.469012
v -0.437211 -0.0494276 -0.399606
v -0.460602 -0.00574177 -0.394403
v -0.487132 0.00234644 -0.361888
v -0.555291 0.00258158 -0.246606
v -0.372841 -0.170516 0.386324
v -0.327836 -0.251351 0.34494
v -0.2685 -0.305759 0.32685
v -0.299944 -0.312342 0.28724
v -0.292127 -0.368724 0.179643
v -0.22154 -0.395811 0.201517
v -0.204722 -0.419276 0.132821
v -0.253577 -0.411329 0.07181
v -0.182811 -0.443541 0.00737014
v -0.1988 -0.43423 -0.059198
v -0.155038 -0.441613 -0.107912
v -0.133424 -0.415702 -0.214681
v -0.140293 -0.438274 -0.139836
v -0.179258 -0.392237 -0.248734
v -0.21171 -0.327155 -0.336467
v -0.193293 -0.32833 -0.344152
v -0.160664 -0.292404 -0.40942
v -0.252866 -0.36026 -0.24696
v -0.121876 -0.293156 -0.421835
v -0.13141 -0.251351 -0.457306
v -0.029082 -0.239877 -0.482964
v -0.0988998 -0.187351 -0.512287
v -0.150419 -0.186692 -0.503537
v -0.158828 -0.117237 -0.541019
v -0.195129 -0.160547 -0.505902
v -0.2518 -0.157772 -0.482018
v -0.314097 -0.0525783 -0.501172
v -0.322447 -0.0461829 -0.49798
v -0.451719 -0.159653 0.30131
v -0.416366 -0.160688 0.344467
v -0.56376 -0.0402108 0.190166
v -0.499508 -0.136329 0.236279
v -0.486954 -0.161628 0.236161
v -0.590467 -0.0517318 0.0100896
v -0.595796 -0.0135949 0.0859986
v -0.574004 -9.88336e-05 -0.195408
v -0.599882 -0.0031084 -0.0874569
v -0.575366 -0.088411 0.0269977
v -0.541671 -0.116908 0.15836
v -0.414353 -0.0973457 -0.395231
v -0.444199 -0.139903 -0.32547
v -0.50016 -0.0128425 -0.337649
v -0.523669 -0.00602393 -0.305133
v -0.550199 -0.0129836 -0.250389
v -0.421933 -0.209499 0.28121
v -0.395107 -0.26085 0.251532
v -0.338673 -0.287325 0.287949
v -0.360583 -0.298329 0.239117
v -0.33506 -0.328613 0.210267
v -0.255353 -0.394729 0.160843
v -0.34418 -0.328377 0.193122
v -0.343647 -0.356169 0.105744
v -0.295148 -0.385794 0.115558
v -0.302787 -0.392331 0.0483988
v -0.261571 -0.412081 0.00606952
v -0.225152 -0.42506 -0.0499754
v -0.260031 -0.409213 -0.0670017
v -0.259676 -0.398491 -0.138654
v -0.213427 -0.419088 -0.119854
v -0.200636 -0.412693 -0.164075
v -0.214019 -0.396516 -0.207469
v -0.285495 -0.28629 -0.342615
v -0.220415 -0.282999 -0.390974
v -0.299944 -0.308298 -0.295556
v -0.143905 -0.25911 -0.447138
v -0.285258 -0.336136 -0.259375
v -0.254287 -0.387299 -0.185003
v -0.172981 -0.211427 -0.473978
v -0.245464 -0.170892 -0.475278
v -0.260446 -0.223983 -0.423726
v -0.29349 -0.19511 -0.426209
v -0.332514 -0.157631 -0.429402
v -0.294259 -0.131486 -0.473978
v -0.385632 -0.139198 -0.396295
v -0.423887 -0.223936 0.260282
v -0.508924 -0.169999 0.170539
v -0.48879 -0.164168 0.227884
v -0.453259 -0.19605 0.247394
v -0.568497 -0.106327 0.0186028
v -0.581525 -0.0456186 -0.112405
v -0.547356 -0.138633 -0.068657
v -0.570096 -0.0593028 -0.143738
v -0.544691 -0.152835 0.0401221
v -0.545284 -0.132473 0.0980589
v -0.525209 -0.169105 0.106217
v -0.363307 -0.188244 -0.375603
v -0.377697 -0.215565 -0.331264
v -0.465576 -0.173243 -0.262804
v -0.518872 -0.0627826 -0.274983
v -0.537881 -0.042562 -0.248734
v -0.408668 -0.277262 0.195251
v -0.391969 -0.293344 0.196197
v -0.419742 -0.289676 0.14027
v -0.380244 -0.328989 0.106217
v -0.352885 -0.361012 0.00997138
v -0.300477 -0.394447 -0.0169869
v -0.284015 -0.400231 -0.0554144
v -0.291358 -0.391484 -0.101882
v -0.299174 -0.372345 -0.157217
v -0.341278 -0.256759 -0.32547
v -0.363189 -0.219563 -0.344389
v -0.253162 -0.258781 -0.396059
v -0.252155 -0.226193 -0.425855
v -0.302846 -0.326732 -0.256301
v -0.357859 -0.289958 -0.258902
v -0.48346 -0.21787 0.131047
v -0.44716 -0.25911 0.143699
v -0.537585 -0.162616 -0.0541137
v -0.552686 -0.114463 -0.115598
v -0.551502 -0.103506 -0.141374
v -0.517274 -0.197132 0.0176569
v -0.485711 -0.236115 0.0304266
v -0.426789 -0.227416 -0.247315
v -0.437033 -0.224594 -0.236437
v -0.448048 -0.216459 -0.22686
v -0.507799 -0.154951 -0.195881
v -0.501226 -0.135718 -0.237028
v -0.454976 -0.254643 0.12951
v -0.446331 -0.280318 0.0537195
v -0.392561 -0.330588 0.016238
v -0.343114 -0.366843 -0.0186423
v -0.33435 -0.367737 -0.0794167
v -0.373552 -0.336513 -0.0936053
v -0.375388 -0.312812 -0.176017
v -0.357445 -0.319584 -0.195527
v -0.417196 -0.281494 -0.166558
v -0.42365 -0.248483 -0.221657
v -0.494534 -0.219421 -0.0499754
v -0.533144 -0.147756 -0.13558
v -0.516089 -0.182272 -0.113706
v -0.490803 -0.216929 -0.106257
v -0.442422 -0.29024 0.00145823
v -0.49329 -0.205831 -0.130023
v -0.42294 -0.301761 -0.0664105
v -0.376276 -0.338535 -0.0561238
v -0.374796 -0.337406 -0.0855651
v -0.436382 -0.28408 -0.106612
v -0.465873 -0.247119 -0.112169
f 1 2 3
f 1 3 4
f 1 4 5
f 1 5 6
f 1 6 7
f 1 7 8
f 1 8 9
f 1 9 10
f 1 10 11
f 1 11 2
f 2 12 3
f 2 11 12
f 3 13 14
f 3 14 4
f 3 12 13
f 4 14 15
f 4 15 16
f 4 16 5
f 5 16 17
f 5 17 6
f 6 17 18
f 6 18 19
f 6 19 7
f 7 19 20
f 7 20 21
f 7 21 22
f 7 22 23
f 7 23 8
f 8 23 24
f 8 24 25
f 8 25 26
f 8 26 9
f 9 27 28
f 9 28 29
f 9 29 30
f 9 30 10
f 9 26 27
f 10 30 31
f 10 31 11
f 11 32 12
f 11 31 33
f 11 33 32
f 12 34 13
f 12 32 34
f 13 34 35
f 13 35 14
f 14 35 36
f 14 36 37
f 14 37 15
f 15 37 38
f 15 38 39
f 15 39 17
f 15 17 16
f 17 39 40
f 17 40 41
f 17 41 18
f 18 41 42
f 18 42 20
f 18 20 19
f 20 42 21
f 21 42 43
f 21 43 44
f 21 44 45
f 21 45 22
f 22 45 46
f 22 46 23
f 23 46 24
f 24 46 47
f 24 47 48
f 24 48 25
f 25 48 49
f 25 49 26
f 26 49 50
f 26 50 51
f 26 51 52
f 26 52 27
f 27 53 28
f 27 52 54
f 27 54 53
f 28 55 29
f 28 53 56
f 28 56 55
f 29 57 58
f 29 58 30
f 29 55 57
f 30 58 59
f 30 59 60
f 30 60 61
f 30 61 31
f 31 61 62
f 31 62 63
f 31 63 70
f 31 70 33
f 32 64 65
f 32 65 66
f 32 66 34
f 32 33 67
f 32 67 68
f 32 68 69
f 32 69 64
f 33 70 67
f 34 66 71
f 34 71 35
f 35 71 65
f 35 65 72
f 35 72 36
f 36 72 73
f 36 73 37
f 37 73 38
f 38 73 74
f 38 74 75
f 38 75 76
f 38 76 40
f 38 40 39
f 40 76 77
f 40 77 41
f 41 77 78
f 41 78 44
f 41 44 43
f 41 43 42
f 44 78 79
f 44 79 80
f 44 80 45
f 45 80 81
f 45 81 46
f 46 81 47
f 47 81 82
f 47 82 83
f 47 83 48
f 48 83 84
f 48 84 50
f 48 50 49
f 50 84 51
f 51 84 85
f 51 85 86
f 51 86 87
f 51 87 52
f 52 87 54
f 53 88 56
f 53 54 89
f 53 89 88
f 54 87 90
f 54 90 89
f 55 56 91
f 55 91 92
f 55 92 57
f 56 88 91
f 57 92 93
f 57 93 94
f 57 94 58
f 58 94 95
f 58 95 59
f 59 95 96
f 59 96 97
f 59 97 60
f 60 98 99
f 60 99 100
f 60 100 61
f 60 97 98
f 61 100 101
f 61 101 102
f 61 102 62
f 62 102 103
f 62 103 104
f 62 104 105
f 62 105 63
f 63 105 106
f 63 106 107
f 63 107 70
f 64 108 65
f 64 69 109
f 64 109 108
f 65 108 110
f 65 110 72
f 65 71 66
f 67 111 68
f 67 70 112
f 67 112 113
f 67 113 111
f 68 111 109
f 68 109 69
f 70 107 114
f 70 114 115
f 70 115 116
f 70 116 117
f 70 117 118
f 70 118 112
f 72 110 73
f 73 110 74
f 74 77 75
f 74 110 119
f 74 119 120
f 74 120 77
f 75 77 76
f 77 120 121
f 77 121 78
f 78 121 79
f 79 121 122
f 79 122 123
f 79 123 80
f 80 123 124
f 80 124 81
f 81 124 82
f 82 125 83
f 82 124 125
f 83 126 127
f 83 127 84
f 83 125 126
f 84 127 86
f 84 86 85
f 86 127 128
f 86 128 129
f 86 129 90
f 86 90 87
f 88 130 92
f 88 92 91
f 88 89 90
f 88 90 131
f 88 131 130
f 90 129 131
f 92 130 132
f 92 132 93
f 93 133 134
f 93 134 135
f 93 135 94
f 93 132 136
f 93 136 133
f 94 135 137
f 94 137 95
f 95 137 96
f 96 138 97
f 96 137 138
f 97 138 139
f 97 139 98
f 98 140 99
f 98 139 138
f 98 138 140
f 99 140 141
f 99 141 142
f 99 142 101
f 99 101 100
f 101 142 102
f 102 142 103
f 103 142 104
f 104 142 105
f 105 142 143
f 105 143 106
f 106 143 144
f 106 144 145
f 106 145 107
f 107 145 146
f 107 146 114
f 108 109 147
f 108 147 148
f 108 148 119
f 108 119 110
f 109 111 149
f 109 149 150
f 109 150 151
f 109 151 147
f 111 113 149
f 112 152 153
f 112 153 113
f 112 118 154
f 112 154 155
f 112 155 152
f 113 153 156
f 113 156 157
f 113 157 149
f 114 146 158
f 114 158 115
f 115 158 159
f 115 159 160
f 115 160 116
f 116 160 117
f 117 160 161
f 117 161 118
f 118 161 162
f 118 162 154
f 119 148 163
f 119 163 120
f 120 163 164
f 120 164 165
f 120 165 121
f 121 165 122
f 122 165 166
f 122 166 167
f 122 167 123
f 123 168 124
f 123 167 169
f 123 169 170
f 123 170 171
f 123 171 168
f 124 168 125
f 125 168 126
f 126 172 173
f 126 173 127
f 126 168 171
f 126 171 172
f 127 173 174
f 127 174 128
f 128 175 176
f 128 176 177
f 128 177 129
f 128 174 175
f 129 177 178
f 129 178 131
f 130 131 179
f 130 179 132
f 131 178 179
f 132 179 136
f 133 180 181
f 133 181 135
f 133 135 134
f 133 136 182
f 133 182 180
f 135 181 183
f 135 183 137
f 136 184 182
f 136 179 185
f 136 185 184
f 137 183 138
f 138 183 141
f 138 141 140
f 141 183 186
f 141 186 143
f 141 143 142
f 143 186 187
f 143 187 144
f 144 187 188
f 144 188 189
f 144 189 190
f 144 190 191
f 144 191 145
f 145 191 190
f 145 190 146
f 146 190 192
f 146 192 158
f 147 193 163
f 147 163 148
f 147 151 193
f 149 157 150
f 150 157 151
f 151 157 194
f 151 194 195
f 151 195 196
f 151 196 193
f 152 197 156
f 152 156 153
f 152 155 198
f 152 198 199
f 152 199 197
f 154 162 200
f 154 200 155
f 155 200 198
f 156 197 201
f 156 201 202
f 156 202 157
f 157 202 203
f 157 203 194
f 158 192 159
f 159 192 204
f 159 204 205
f 159 205 206
f 159 206 207
f 159 207 160
f 160 207 161
f 161 207 162
f 162 207 208
f 162 208 200
f 163 193 164
f 164 166 165
f 164 193 209
f 164 209 210
f 164 210 166
f 166 210 167
f 167 210 169
f 169 210 170
f 170 210 211
f 170 211 212
f 170 212 213
f 170 213 172
f 170 172 171
f 172 213 214
f 172 214 173
f 173 214 215
f 173 215 174
f 174 215 175
f 175 215 216
f 175 216 176
f 176 217 185
f 176 185 179
f 176 179 178
f 176 178 177
f 176 216 217
f 180 182 218
f 180 218 219
f 180 219 204
f 180 204 189
f 180 189 220
f 180 220 181
f 181 220 188
f 181 188 221
f 181 221 183
f 182 184 222
f 182 222 223
f 182 223 218
f 183 187 186
f 183 221 187
f 184 185 217
f 184 217 222
f 187 221 188
f 188 220 189
f 189 204 190
f 190 204 192
f 193 196 209
f 194 203 224
f 194 224 225
f 194 225 195
f 195 225 196
f 196 225 209
f 197 199 226
f 197 226 201
f 198 200 227
f 198 227 199
f 199 227 226
f 200 228 227
f 200 208 228
f 201 226 229
f 201 229 203
f 201 203 202
f 203 229 230
f 203 230 224
f 204 219 205
f 205 219 218
f 205 218 223
f 205 223 231
f 205 231 206
f 206 231 232
f 206 232 233
f 206 233 234
f 206 234 235
f 206 235 207
f 207 235 208
f 208 235 228
f 209 225 211
f 209 211 210
f 211 225 236
f 211 236 237
f 211 237 212
f 212 237 238
f 212 238 213
f 213 238 239
f 213 239 214
f 214 239 240
f 214 240 216
f 214 216 215
f 216 240 217
f 217 240 241
f 217 241 242
f 217 242 243
f 217 243 222
f 222 243 223
f 223 243 244
f 223 244 245
f 223 245 232
f 223 232 231
f 224 230 236
f 224 236 225
f 226 246 229
f 226 227 247
f 226 247 248
f 226 248 249
f 226 249 246
f 227 228 247
f 228 235 234
f 228 234 247
f 229 246 250
f 229 250 230
f 230 250 237
f 230 237 236
f 232 245 233
f 233 245 251
f 233 251 234
f 234 251 248
f 234 248 247
f 237 250 238
f 238 250 252
f 238 252 239
f 239 252 253
f 239 253 254
f 239 254 240
f 240 254 241
f 241 254 255
f 241 255 242
f 242 244 243
f 242 255 244
f 244 255 256
f 244 256 251
f 244 251 245
f 246 249 256
f 246 256 250
f 248 251 256
f 248 256 249
f 250 256 255
f 250 255 252
f 252 255 254
f 252 254 253
