v 0.18462 0.024013 -0.370087
v -0.00253406 0.024013 -0.415778
v 0.18462 0.024013 -0.582058
v 0.18462 0.456304 -0.371941
v -0.00253406 0.431316 -0.416032
v -0.00253406 0.024013 -0.613018
v 0.181285 0.024013 -0.583328
v 0.18462 0.0562729 -0.586579
v 0.18462 0.465868 -0.373592
v -0.00253406 0.456304 -0.416337
v -0.00253406 0.435018 -0.416057
v -0.00253406 0.0313288 -0.613984
v 0.0261419 0.024013 -0.610174
v 0.169833 0.024013 -0.587646
v 0.156274 0.131282 -0.607786
v 0.18462 0.127007 -0.596484
v 0.18462 0.470495 -0.380627
v -0.00253406 0.46816 -0.42073
v -0.00253406 0.0650871 -0.618428
v 0.00626112 0.0562729 -0.616396
v 0.0687802 0.024013 -0.605932
v 0.0562654 0.131282 -0.621298
v 0.0687802 0.131282 -0.620054
v 0.156274 0.024013 -0.592751
v 0.151711 0.0687891 -0.600751
v 0.150154 0.149703 -0.612663
v 0.155101 0.144855 -0.610123
v 0.16877 0.143798 -0.604815
v 0.178115 0.143798 -0.601285
v 0.184363 0.143798 -0.598923
v 0.18462 0.143798 -0.598821
v 0.18462 0.474153 -0.393834
v 0.181285 0.474153 -0.393834
v 0.16877 0.473977 -0.393834
v -0.00253406 0.473977 -0.431347
v -0.00253406 0.131061 -0.627114
v 0.118766 0.024013 -0.600954
v 0.118766 0.143798 -0.616727
v 0.118729 0.118501 -0.613399
v -0.00253406 0.143798 -0.628791
v 0.143466 0.024013 -0.597196
v 0.150374 0.0616055 -0.600243
v 0.139526 0.13397 -0.613095
v 0.143722 0.144855 -0.613526
v 0.143777 0.156314 -0.614161
v 0.150117 0.156314 -0.612663
v 0.156384 0.156314 -0.610301
v 0.179196 0.156314 -0.601691
v 0.18462 0.156314 -0.599634
v 0.18462 0.146795 -0.599024
v 0.148578 0.0532761 -0.599659
v 0.138372 0.0356478 -0.60037
v 0.18462 0.474241 -0.406355
v -0.00253406 0.474065 -0.435055
v 0.16877 0.474241 -0.406355
v -0.00253406 0.474241 -0.443843
v 0.130713 0.024013 -0.599761
v 0.131263 0.143798 -0.615482
v 0.131263 0.0813052 -0.607253
v 0.0392064 0.148778 -0.625286
v -0.00253406 0.156314 -0.629553
v 0.138061 0.024013 -0.598491
v 0.136741 0.125641 -0.612536
v 0.131263 0.156314 -0.616219
v 0.143612 0.167552 -0.61345
v 0.150026 0.162572 -0.612612
v 0.18462 0.164423 -0.599024
v 0.134506 0.0273184 -0.599811
v 0.18462 0.474241 -0.481355
v -0.00253406 0.474241 -0.518843
v 0.132912 0.024013 -0.599532
v -0.00253406 0.168786 -0.628664
v 0.0387666 0.163497 -0.625235
v 0.131263 0.168786 -0.61533
v 0.139343 0.178305 -0.613044
v 0.150245 0.250626 -0.600192
v 0.151528 0.243839 -0.600675
v 0.153837 0.231323 -0.601564
v 0.169796 0.181963 -0.602453
v 0.18462 0.168786 -0.598694
v 0.138225 0.276583 -0.600319
v 0.143777 0.306287 -0.594554
v 0.18462 0.474153 -0.493851
v 0.181285 0.474197 -0.493851
v 0.16877 0.474241 -0.493851
v -0.00253406 0.474197 -0.531339
v 0.10627 0.474241 -0.518843
v -0.00253406 0.231323 -0.620435
v 0.0199669 0.181919 -0.624701
v 0.0432742 0.168125 -0.624194
v 0.0312724 0.166362 -0.625616
v 0.118766 0.181302 -0.614949
v 0.131794 0.182007 -0.613552
v 0.136301 0.186635 -0.612485
v 0.157153 0.306507 -0.589779
v 0.181285 0.206334 -0.594707
v 0.170987 0.206334 -0.598592
v 0.181285 0.193818 -0.596459
v 0.18462 0.227224 -0.590516
v 0.134066 0.284913 -0.599761
v 0.131263 0.306287 -0.597246
v 0.131263 0.318803 -0.594707
v 0.143777 0.318803 -0.591938
v 0.161899 0.310826 -0.587366
v 0.18462 0.469878 -0.506474
v 0.181285 0.470892 -0.506347
v 0.16877 0.473404 -0.506347
v 0.156274 0.474153 -0.506347
v 0.143777 0.474241 -0.506347
v 0.118766 0.474197 -0.518843
v 0.0187576 0.474109 -0.531339
v -0.00253406 0.472479 -0.534818
v -0.00253406 0.306287 -0.610555
v 0.10627 0.243839 -0.607964
v 0.127964 0.189808 -0.612917
v 0.10627 0.181302 -0.616193
v 0.131263 0.243839 -0.605475
v 0.181285 0.306287 -0.580687
v 0.180864 0.269796 -0.58597
v 0.18462 0.27795 -0.583404
v 0.118766 0.306287 -0.598491
v 0.0980425 0.311047 -0.599913
v 0.143777 0.328146 -0.58889
v 0.0897237 0.313383 -0.600319
v 0.0812766 0.314969 -0.600751
v 0.0812766 0.321227 -0.59905
v 0.0616524 0.324753 -0.600015
v 0.131666 0.332333 -0.589932
v 0.136082 0.337181 -0.587443
v 0.150374 0.325326 -0.587747
v 0.152939 0.318803 -0.588713
v 0.18462 0.317834 -0.57703
v 0.18462 0.306287 -0.579417
v 0.18462 0.464061 -0.513458
v 0.181285 0.465075 -0.514093
v 0.16877 0.467587 -0.516455
v 0.143777 0.472038 -0.518843
v 0.131263 0.473845 -0.518843
v 0.0437689 0.473668 -0.531339
v 0.0312724 0.473977 -0.531339
v 0.00626112 0.468336 -0.543047
v -0.00253406 0.467675 -0.544266
v -0.00253406 0.315101 -0.608777
v 0.18462 0.303246 -0.579849
v 0.18462 0.293859 -0.581169
v 0.138482 0.363359 -0.575455
v 0.143777 0.33436 -0.586198
v -0.00253406 0.318803 -0.608015
v 0.00626112 0.318803 -0.607152
v 0.0533153 0.325855 -0.600446
v 0.127744 0.338239 -0.5879
v 0.118143 0.457142 -0.539618
v 0.121899 0.461813 -0.537282
v 0.178079 0.327662 -0.576268
v 0.18462 0.324488 -0.575023
v 0.18462 0.321932 -0.575861
v 0.139783 0.389493 -0.563467
v 0.144675 0.419417 -0.548457
v 0.181853 0.3192 -0.57769
v 0.160397 0.460756 -0.524303
v 0.15206 0.464017 -0.525878
v 0.18462 0.456128 -0.517167
v 0.143777 0.46622 -0.527427
v 0.131263 0.468027 -0.529738
v 0.0937548 0.470583 -0.531339
v 0.0812766 0.471641 -0.531339
v 0.0687802 0.472523 -0.531339
v 0.0562654 0.473184 -0.531339
v 0.0312724 0.468115 -0.541803
v 0.0187576 0.468248 -0.542412
v -0.00253406 0.461681 -0.549727
v 0.131263 0.458905 -0.535986
v 0.137547 0.45009 -0.537612
v -0.00253406 0.327617 -0.604993
v -0.00253406 0.331584 -0.603621
v 0.0109702 0.337181 -0.599964
v -0.00253406 0.356308 -0.593386
v 0.0813133 0.355382 -0.585436
v 0.118766 0.356308 -0.581322
v 0.10627 0.340839 -0.588967
v -0.00253406 0.452647 -0.553486
v 0.00626112 0.460623 -0.549295
v 0.113562 0.462783 -0.537713
v 0.0937548 0.368824 -0.57863
v 0.18418 0.384689 -0.548838
v 0.181853 0.331628 -0.573093
v 0.18462 0.33154 -0.572077
v 0.167598 0.405138 -0.546095
v 0.182091 0.432198 -0.528697
v 0.181285 0.456304 -0.51836
v 0.142531 0.455071 -0.533523
v 0.18462 0.441937 -0.52344
v 0.10627 0.463532 -0.538069
v 0.0937548 0.464766 -0.538679
v 0.118143 0.467322 -0.532405
v 0.0687802 0.466661 -0.539923
v 0.10627 0.469349 -0.531339
v 0.0562654 0.467366 -0.540558
v 0.0437689 0.467851 -0.541168
v 0.0812766 0.46578 -0.539314
v 0.00626112 0.406328 -0.571798
v 0.18462 0.383896 -0.549016
v 0.18462 0.376977 -0.552063
v 0.18462 0.35005 -0.563924
f 1 2 6
f 1 6 13
f 1 13 21
f 1 21 37
f 1 37 57
f 1 57 71
f 1 71 62
f 1 62 41
f 1 41 24
f 1 24 14
f 1 14 7
f 1 7 3
f 1 3 8
f 1 8 16
f 1 16 31
f 1 31 50
f 1 50 49
f 1 49 67
f 1 67 80
f 1 80 99
f 1 99 120
f 1 120 145
f 1 145 144
f 1 144 133
f 1 133 132
f 1 132 156
f 1 156 155
f 1 155 187
f 1 187 204
f 1 204 203
f 1 203 202
f 1 202 192
f 1 192 162
f 1 162 134
f 1 134 105
f 1 105 83
f 1 83 69
f 1 69 53
f 1 53 32
f 1 32 17
f 1 17 9
f 1 9 4
f 1 4 5
f 1 5 2
f 2 5 11
f 2 11 10
f 2 10 18
f 2 18 35
f 2 35 54
f 2 54 56
f 2 56 70
f 2 70 86
f 2 86 112
f 2 112 142
f 2 142 171
f 2 171 181
f 2 181 177
f 2 177 175
f 2 175 174
f 2 174 148
f 2 148 143
f 2 143 113
f 2 113 88
f 2 88 72
f 2 72 61
f 2 61 40
f 2 40 36
f 2 36 19
f 2 19 12
f 2 12 6
f 3 7 8
f 4 9 10
f 4 10 11
f 4 11 5
f 6 12 13
f 7 14 15
f 7 15 16
f 7 16 8
f 9 17 18
f 9 18 10
f 12 19 20
f 12 20 13
f 13 20 22
f 13 22 23
f 13 23 21
f 14 24 25
f 14 25 15
f 15 25 26
f 15 26 27
f 15 27 28
f 15 28 16
f 16 28 29
f 16 29 30
f 16 30 31
f 17 32 33
f 17 33 34
f 17 34 35
f 17 35 18
f 19 36 20
f 20 36 22
f 21 23 38
f 21 38 39
f 21 39 37
f 22 36 40
f 22 40 23
f 23 40 38
f 24 41 42
f 24 42 25
f 25 42 26
f 26 43 44
f 26 44 45
f 26 45 46
f 26 46 47
f 26 47 48
f 26 48 49
f 26 49 50
f 26 50 30
f 26 30 29
f 26 29 28
f 26 28 27
f 26 42 51
f 26 51 41
f 26 41 52
f 26 52 43
f 30 50 31
f 32 53 55
f 32 55 33
f 33 54 35
f 33 35 34
f 33 55 56
f 33 56 54
f 37 39 58
f 37 58 59
f 37 59 57
f 38 40 60
f 38 60 58
f 38 58 39
f 40 61 60
f 41 62 52
f 41 51 42
f 43 58 44
f 43 52 63
f 43 63 58
f 44 64 45
f 44 58 64
f 45 64 65
f 45 65 66
f 45 66 46
f 46 66 47
f 47 66 48
f 48 66 49
f 49 66 67
f 52 62 68
f 52 68 63
f 53 69 85
f 53 85 109
f 53 109 87
f 53 87 70
f 53 70 56
f 53 56 55
f 57 68 71
f 57 59 68
f 58 60 64
f 58 63 59
f 59 63 68
f 60 61 64
f 61 72 73
f 61 73 64
f 62 71 68
f 64 73 74
f 64 74 65
f 65 74 75
f 65 75 66
f 66 76 77
f 66 77 78
f 66 78 79
f 66 79 80
f 66 80 67
f 66 75 81
f 66 81 82
f 66 82 76
f 69 83 84
f 69 84 85
f 70 87 86
f 72 88 89
f 72 89 90
f 72 90 91
f 72 91 73
f 73 91 90
f 73 90 74
f 74 92 93
f 74 93 94
f 74 94 75
f 74 90 92
f 75 94 81
f 76 82 95
f 76 95 77
f 77 95 78
f 78 96 97
f 78 97 79
f 78 95 96
f 79 98 80
f 79 97 98
f 80 98 99
f 81 100 101
f 81 101 82
f 81 94 100
f 82 101 102
f 82 102 103
f 82 103 104
f 82 104 95
f 83 105 106
f 83 106 107
f 83 107 108
f 83 108 84
f 84 108 110
f 84 110 109
f 84 109 85
f 86 87 110
f 86 110 111
f 86 111 112
f 87 109 110
f 88 113 114
f 88 114 89
f 89 115 116
f 89 116 90
f 89 114 115
f 90 116 92
f 92 116 115
f 92 115 93
f 93 115 94
f 94 115 117
f 94 117 101
f 94 101 100
f 95 104 118
f 95 118 119
f 95 119 96
f 96 99 98
f 96 98 97
f 96 119 99
f 99 119 120
f 101 121 122
f 101 122 102
f 101 117 114
f 101 114 121
f 102 123 103
f 102 122 124
f 102 124 125
f 102 125 126
f 102 126 127
f 102 127 128
f 102 128 129
f 102 129 123
f 103 123 130
f 103 130 131
f 103 131 104
f 104 131 132
f 104 132 133
f 104 133 118
f 105 134 135
f 105 135 136
f 105 136 106
f 106 136 137
f 106 137 107
f 107 137 138
f 107 138 108
f 108 138 110
f 110 138 139
f 110 139 140
f 110 140 111
f 111 140 141
f 111 141 112
f 112 141 142
f 113 143 124
f 113 124 122
f 113 122 121
f 113 121 114
f 114 117 115
f 118 133 144
f 118 144 145
f 118 145 120
f 118 120 119
f 123 129 146
f 123 146 147
f 123 147 130
f 124 143 148
f 124 148 125
f 125 148 149
f 125 149 126
f 126 149 127
f 127 149 148
f 127 148 150
f 127 150 128
f 128 151 152
f 128 152 153
f 128 153 129
f 128 150 151
f 129 153 146
f 130 154 155
f 130 155 156
f 130 156 131
f 130 147 146
f 130 146 157
f 130 157 158
f 130 158 154
f 131 156 159
f 131 159 132
f 132 159 156
f 134 160 161
f 134 161 135
f 134 162 160
f 135 161 163
f 135 163 136
f 136 163 164
f 136 164 137
f 137 164 138
f 138 165 166
f 138 166 167
f 138 167 168
f 138 168 139
f 138 164 165
f 139 168 169
f 139 169 170
f 139 170 141
f 139 141 140
f 141 170 142
f 142 170 169
f 142 169 171
f 146 153 172
f 146 172 173
f 146 173 157
f 148 174 150
f 150 174 175
f 150 175 176
f 150 176 177
f 150 177 178
f 150 178 179
f 150 179 180
f 150 180 151
f 151 180 179
f 151 179 152
f 152 181 182
f 152 182 183
f 152 183 153
f 152 179 184
f 152 184 178
f 152 178 181
f 153 183 164
f 153 164 163
f 153 163 172
f 154 185 186
f 154 186 187
f 154 187 155
f 154 158 188
f 154 188 189
f 154 189 185
f 157 173 158
f 158 173 160
f 158 160 188
f 160 172 161
f 160 162 190
f 160 190 189
f 160 189 188
f 160 173 191
f 160 191 172
f 161 172 163
f 162 192 190
f 164 183 193
f 164 193 194
f 164 194 195
f 164 195 196
f 164 196 197
f 164 197 165
f 165 197 196
f 165 196 198
f 165 198 166
f 166 198 199
f 166 199 167
f 167 199 168
f 168 199 169
f 169 199 171
f 171 199 198
f 171 198 196
f 171 196 200
f 171 200 194
f 171 194 193
f 171 193 183
f 171 183 182
f 171 182 181
f 172 191 173
f 175 177 176
f 177 181 201
f 177 201 178
f 178 184 179
f 178 201 181
f 185 202 203
f 185 203 204
f 185 204 187
f 185 187 186
f 185 189 192
f 185 192 202
f 189 190 192
f 194 200 195
f 195 200 196
