v -0.256171 -0.116541 0.343274
v -0.256171 -0.245056 0.338869
v -0.255478 -0.239453 0.343274
v -0.131859 -0.23579 0.343274
v -0.256171 -0.320088 0.194759
v -0.256171 -0.252253 0.333897
v -0.253348 -0.241824 0.343274
v -0.140913 -0.340042 0.343274
v -0.131859 -0.346075 0.343201
v -0.131859 -0.467781 0.194759
v -0.256171 -0.422788 0.194759
v -0.243795 -0.252425 0.343274
v -0.246204 -0.249753 0.343274
v -0.256171 -0.256218 0.331135
v -0.245024 -0.256649 0.339407
v -0.148349 -0.335215 0.343274
v -0.134962 -0.344179 0.343129
v -0.13579 -0.37008 0.326294
v -0.131859 -0.37008 0.327908
v -0.131859 -0.556776 0.195587
v -0.134098 -0.556302 0.194759
v -0.253713 -0.425977 0.194759
v -0.234716 -0.422615 0.222932
v -0.256171 -0.417444 0.200123
v -0.236919 -0.260657 0.342838
v -0.229106 -0.268544 0.343274
v -0.256171 -0.260916 0.32785
v -0.250123 -0.262252 0.331571
v -0.171203 -0.335861 0.333403
v -0.181608 -0.313063 0.343274
v -0.170376 -0.320993 0.343027
v -0.169658 -0.358272 0.319796
v -0.165252 -0.364693 0.317528
v -0.158632 -0.372709 0.315158
v -0.143566 -0.377579 0.318269
v -0.134183 -0.38163 0.319549
v -0.131859 -0.381501 0.320581
v -0.131859 -0.55432 0.199004
v -0.140621 -0.551734 0.194759
v -0.241495 -0.441793 0.194759
v -0.232635 -0.441535 0.206592
v -0.226137 -0.439897 0.216681
v -0.234595 -0.410807 0.234635
v -0.241604 -0.406325 0.230114
v -0.245535 -0.409643 0.221726
v -0.248541 -0.413608 0.21389
v -0.256171 -0.405032 0.212422
v -0.255855 -0.279232 0.315202
v -0.217642 -0.280999 0.343274
v -0.256171 -0.268113 0.322791
v -0.182131 -0.33237 0.331033
v -0.175669 -0.3403 0.328722
v -0.191782 -0.305909 0.343274
v -0.190626 -0.30759 0.342751
v -0.185819 -0.315821 0.339814
v -0.173089 -0.36215 0.3159
v -0.170376 -0.378053 0.306843
v -0.162587 -0.386457 0.304677
v -0.147241 -0.38163 0.314141
v -0.137469 -0.385423 0.31574
v -0.131859 -0.384819 0.318444
v -0.131859 -0.550915 0.202216
v -0.138589 -0.549924 0.197899
v -0.146195 -0.546648 0.194759
v -0.232416 -0.453473 0.194759
v -0.234668 -0.44606 0.199367
v -0.2261 -0.45162 0.204906
v -0.220782 -0.455067 0.208337
v -0.223837 -0.435458 0.223877
v -0.216644 -0.439897 0.226174
v -0.2229 -0.422615 0.234751
v -0.23008 -0.406325 0.241642
v -0.237235 -0.389991 0.248504
v -0.240521 -0.381501 0.252385
v -0.256171 -0.354953 0.260003
v -0.248407 -0.378182 0.248431
v -0.25235 -0.381501 0.240566
v -0.248468 -0.389991 0.237266
v -0.252411 -0.393309 0.228893
v -0.256171 -0.397016 0.220345
v -0.256171 -0.273284 0.319142
v -0.256171 -0.286644 0.309707
v -0.236578 -0.295522 0.318444
v -0.210706 -0.292937 0.340119
v -0.214405 -0.284576 0.343172
v -0.202929 -0.296686 0.343187
v -0.196406 -0.302332 0.343274
v -0.188934 -0.329957 0.329536
v -0.1764 -0.376071 0.305564
v -0.158632 -0.402618 0.295794
v -0.151902 -0.410634 0.293367
v -0.13293 -0.401799 0.306988
v -0.131859 -0.390206 0.314955
v -0.131859 -0.537813 0.21309
v -0.137712 -0.537382 0.208976
v -0.146292 -0.534021 0.205182
v -0.159192 -0.534624 0.194759
v -0.225492 -0.462308 0.194759
v -0.221026 -0.467178 0.195616
v -0.223788 -0.458903 0.200501
v -0.216827 -0.463385 0.204949
v -0.212945 -0.460023 0.212989
v -0.208308 -0.455067 0.22081
v -0.206556 -0.441535 0.232672
v -0.193705 -0.428649 0.252502
v -0.184115 -0.419038 0.267272
v -0.213858 -0.413608 0.248576
v -0.186415 -0.444896 0.245538
v -0.205144 -0.404859 0.261907
v -0.224324 -0.388784 0.259349
v -0.232149 -0.384819 0.25634
v -0.235982 -0.376976 0.259276
v -0.243819 -0.372925 0.256267
v -0.251949 -0.357625 0.261399
v -0.256171 -0.342929 0.269016
v -0.256171 -0.360599 0.255017
v -0.256171 -0.372968 0.243881
v -0.256171 -0.379001 0.238037
v -0.256171 -0.385078 0.232076
v -0.256171 -0.291428 0.306305
v -0.249515 -0.296772 0.307613
v -0.245864 -0.304616 0.304808
v -0.219991 -0.302073 0.326483
v -0.216584 -0.298755 0.331469
v -0.206312 -0.300522 0.338084
v -0.199035 -0.304961 0.340323
v -0.190516 -0.343274 0.319054
v -0.188058 -0.364262 0.305505
v -0.180975 -0.380639 0.298702
v -0.177702 -0.389129 0.29482
v -0.17085 -0.41753 0.278553
v -0.167236 -0.413953 0.28383
v -0.162806 -0.421753 0.281082
v -0.152036 -0.446017 0.269903
v -0.165544 -0.400334 0.294282
v -0.158632 -0.408523 0.291913
v -0.154969 -0.424425 0.282958
v -0.147545 -0.417056 0.290968
v -0.144065 -0.413134 0.29498
v -0.131859 -0.416927 0.297553
v -0.131859 -0.526565 0.222293
v -0.136288 -0.52385 0.221188
v -0.134329 -0.533892 0.214442
v -0.141935 -0.529539 0.212218
v -0.154872 -0.530659 0.201373
v -0.162697 -0.526996 0.198378
v -0.171094 -0.523505 0.194759
v -0.22335 -0.465023 0.194759
v -0.210827 -0.480882 0.194759
v -0.209769 -0.479546 0.197535
v -0.198536 -0.492303 0.198567
v -0.197502 -0.479546 0.209805
v -0.204913 -0.463385 0.216856
v -0.191526 -0.449939 0.237702
v -0.204876 -0.45162 0.226131
v -0.200471 -0.458903 0.223834
v -0.174623 -0.456576 0.245509
v -0.169889 -0.440113 0.261922
v -0.175073 -0.409988 0.281068
v -0.178943 -0.402187 0.284034
v -0.200921 -0.412401 0.259421
v -0.170376 -0.425891 0.272505
v -0.170132 -0.452094 0.252443
v -0.185539 -0.385164 0.291826
v -0.202284 -0.37857 0.283932
v -0.230092 -0.371158 0.268144
v -0.247592 -0.365124 0.259174
v -0.211266 -0.340473 0.305302
v -0.253433 -0.347454 0.267781
v -0.253287 -0.335646 0.276619
v -0.256171 -0.334482 0.275224
v -0.256171 -0.299746 0.300359
v -0.256171 -0.30328 0.29783
v -0.256171 -0.310434 0.292683
v -0.251888 -0.322415 0.287304
v -0.226502 -0.320777 0.307977
v -0.212154 -0.306254 0.329492
v -0.200629 -0.318235 0.329652
v -0.202029 -0.331465 0.318982
v -0.198317 -0.339223 0.316132
v -0.197185 -0.373312 0.291767
v -0.189372 -0.37732 0.294762
v -0.164498 -0.434639 0.270208
v -0.153861 -0.459248 0.259276
v -0.137907 -0.456274 0.268958
v -0.146535 -0.440371 0.275951
v -0.145732 -0.42852 0.28415
v -0.14297 -0.483511 0.24798
v -0.137554 -0.491312 0.245131
v -0.140937 -0.469893 0.258477
v -0.137871 -0.420934 0.292422
v -0.131859 -0.420762 0.295024
v -0.144114 -0.496397 0.23731
v -0.131859 -0.490708 0.248082
v -0.131883 -0.507171 0.236394
v -0.140974 -0.516911 0.223223
v -0.15391 -0.518032 0.212393
v -0.14976 -0.525876 0.209209
v -0.182229 -0.499414 0.205705
v -0.186634 -0.503853 0.198713
v -0.183044 -0.512128 0.194759
v -0.206544 -0.486269 0.194759
v -0.204755 -0.488467 0.194759
v -0.200142 -0.494113 0.194759
v -0.188752 -0.506266 0.194759
v -0.190735 -0.496052 0.201867
v -0.194106 -0.487821 0.205836
v -0.185648 -0.491183 0.209703
v -0.189689 -0.483339 0.212814
v -0.166798 -0.460411 0.248504
v -0.161686 -0.455412 0.25634
v -0.240351 -0.334396 0.287464
v -0.256171 -0.322846 0.283699
v -0.256171 -0.326638 0.280937
v -0.205242 -0.322803 0.32282
v -0.158303 -0.46373 0.252371
v -0.155991 -0.484847 0.237484
v -0.151951 -0.492648 0.234388
v -0.131859 -0.460541 0.26858
v -0.134451 -0.452352 0.272985
v -0.131859 -0.442009 0.280937
v -0.131859 -0.427356 0.290663
v -0.134232 -0.487476 0.249318
v -0.131859 -0.46498 0.265571
v -0.131859 -0.487347 0.250379
v -0.169292 -0.498294 0.21655
v -0.164887 -0.493811 0.223543
v -0.177823 -0.494932 0.212712
v -0.163828 -0.481055 0.234475
v -0.131859 -0.485192 0.251847
f 1 2 3
f 1 3 7
f 1 7 13
f 1 13 12
f 1 12 26
f 1 26 49
f 1 49 87
f 1 87 53
f 1 53 30
f 1 30 16
f 1 16 8
f 1 8 4
f 1 4 5
f 1 5 11
f 1 11 24
f 1 24 47
f 1 47 80
f 1 80 119
f 1 119 118
f 1 118 117
f 1 117 116
f 1 116 75
f 1 75 115
f 1 115 171
f 1 171 214
f 1 214 213
f 1 213 174
f 1 174 173
f 1 173 172
f 1 172 120
f 1 120 82
f 1 82 81
f 1 81 50
f 1 50 27
f 1 27 14
f 1 14 6
f 1 6 2
f 2 6 3
f 3 6 7
f 4 8 9
f 4 9 19
f 4 19 37
f 4 37 61
f 4 61 93
f 4 93 140
f 4 140 192
f 4 192 222
f 4 222 221
f 4 221 219
f 4 219 224
f 4 224 230
f 4 230 225
f 4 225 194
f 4 194 141
f 4 141 94
f 4 94 62
f 4 62 38
f 4 38 20
f 4 20 10
f 4 10 5
f 5 10 21
f 5 21 39
f 5 39 64
f 5 64 97
f 5 97 147
f 5 147 201
f 5 201 205
f 5 205 204
f 5 204 203
f 5 203 202
f 5 202 149
f 5 149 148
f 5 148 98
f 5 98 65
f 5 65 40
f 5 40 22
f 5 22 11
f 6 12 13
f 6 13 7
f 6 14 15
f 6 15 12
f 8 16 9
f 9 17 18
f 9 18 19
f 9 16 17
f 10 20 21
f 11 22 23
f 11 23 24
f 12 15 25
f 12 25 26
f 14 27 28
f 14 28 15
f 15 28 25
f 16 29 17
f 16 30 31
f 16 31 29
f 17 32 18
f 17 29 32
f 18 32 33
f 18 33 34
f 18 34 35
f 18 35 36
f 18 36 19
f 19 36 37
f 20 38 21
f 21 38 39
f 22 40 41
f 22 41 23
f 23 41 42
f 23 42 43
f 23 43 44
f 23 44 45
f 23 45 46
f 23 46 24
f 24 46 47
f 25 28 48
f 25 48 26
f 26 48 49
f 27 50 28
f 28 50 48
f 29 31 51
f 29 51 52
f 29 52 32
f 30 53 54
f 30 54 55
f 30 55 31
f 31 55 51
f 32 56 33
f 32 52 56
f 33 56 34
f 34 56 57
f 34 57 58
f 34 58 35
f 35 58 59
f 35 59 36
f 36 59 58
f 36 58 60
f 36 60 61
f 36 61 37
f 38 62 39
f 39 62 63
f 39 63 64
f 40 65 66
f 40 66 41
f 41 66 67
f 41 67 68
f 41 68 42
f 42 69 43
f 42 68 69
f 43 69 70
f 43 70 71
f 43 71 72
f 43 72 73
f 43 73 74
f 43 74 75
f 43 75 76
f 43 76 77
f 43 77 78
f 43 78 44
f 44 78 79
f 44 79 80
f 44 80 45
f 45 80 46
f 46 80 47
f 48 50 81
f 48 81 82
f 48 82 49
f 49 82 83
f 49 83 84
f 49 84 85
f 49 85 86
f 49 86 87
f 51 88 89
f 51 89 56
f 51 56 52
f 51 55 88
f 53 88 55
f 53 55 54
f 53 87 88
f 56 89 57
f 57 89 58
f 58 90 91
f 58 91 92
f 58 92 60
f 58 89 90
f 60 92 93
f 60 93 61
f 62 94 63
f 63 94 95
f 63 95 96
f 63 96 97
f 63 97 64
f 65 67 66
f 65 98 99
f 65 99 100
f 65 100 67
f 67 100 68
f 68 100 99
f 68 99 101
f 68 101 102
f 68 102 69
f 69 102 103
f 69 103 70
f 70 103 104
f 70 104 71
f 71 105 106
f 71 106 107
f 71 107 72
f 71 104 108
f 71 108 105
f 72 109 110
f 72 110 111
f 72 111 73
f 72 107 109
f 73 111 74
f 74 111 112
f 74 112 113
f 74 113 114
f 74 114 75
f 75 114 115
f 75 116 76
f 76 116 117
f 76 117 77
f 77 118 119
f 77 119 79
f 77 79 78
f 77 117 118
f 79 119 80
f 82 120 83
f 83 120 121
f 83 121 122
f 83 122 123
f 83 123 124
f 83 124 84
f 84 124 125
f 84 125 126
f 84 126 86
f 84 86 85
f 86 126 87
f 87 126 88
f 88 126 89
f 89 127 128
f 89 128 129
f 89 129 130
f 89 130 131
f 89 131 132
f 89 132 133
f 89 133 134
f 89 134 135
f 89 135 136
f 89 136 90
f 89 126 127
f 90 136 91
f 91 137 138
f 91 138 139
f 91 139 92
f 91 136 137
f 92 139 140
f 92 140 93
f 94 141 142
f 94 142 143
f 94 143 95
f 95 143 144
f 95 144 96
f 96 144 145
f 96 145 97
f 97 145 146
f 97 146 147
f 98 148 99
f 99 148 149
f 99 149 150
f 99 150 101
f 101 150 151
f 101 151 102
f 102 151 152
f 102 152 153
f 102 153 103
f 103 154 155
f 103 155 104
f 103 153 152
f 103 152 156
f 103 156 157
f 103 157 154
f 104 155 154
f 104 154 108
f 105 108 158
f 105 158 106
f 106 131 159
f 106 159 160
f 106 160 161
f 106 161 107
f 106 158 162
f 106 162 131
f 107 161 109
f 108 154 163
f 108 163 158
f 109 160 110
f 109 161 160
f 110 164 111
f 110 160 164
f 111 164 165
f 111 165 112
f 112 166 113
f 112 165 166
f 113 166 167
f 113 167 114
f 114 128 168
f 114 168 169
f 114 169 115
f 114 167 166
f 114 166 128
f 115 169 170
f 115 170 171
f 120 172 121
f 121 172 173
f 121 173 122
f 122 174 175
f 122 175 176
f 122 176 177
f 122 177 123
f 122 173 174
f 123 125 124
f 123 177 125
f 125 177 178
f 125 178 126
f 126 178 127
f 127 178 179
f 127 179 180
f 127 180 128
f 128 166 181
f 128 181 182
f 128 182 129
f 128 180 168
f 129 164 130
f 129 182 164
f 130 164 160
f 130 160 159
f 130 159 131
f 131 162 183
f 131 183 132
f 132 183 184
f 132 184 133
f 133 184 134
f 134 185 186
f 134 186 187
f 134 187 137
f 134 137 136
f 134 136 135
f 134 184 188
f 134 188 189
f 134 189 190
f 134 190 185
f 137 187 138
f 138 191 140
f 138 140 139
f 138 187 191
f 140 191 192
f 141 193 142
f 141 194 195
f 141 195 189
f 141 189 188
f 141 188 193
f 142 193 196
f 142 196 197
f 142 197 146
f 142 146 198
f 142 198 144
f 142 144 143
f 144 146 145
f 144 198 146
f 146 197 147
f 147 197 199
f 147 199 200
f 147 200 201
f 149 202 150
f 150 202 203
f 150 203 151
f 151 203 204
f 151 204 205
f 151 205 201
f 151 201 206
f 151 206 207
f 151 207 152
f 152 207 208
f 152 208 209
f 152 209 156
f 154 157 163
f 156 210 157
f 156 209 210
f 157 210 211
f 157 211 163
f 158 163 211
f 158 211 162
f 162 211 183
f 164 182 165
f 165 182 181
f 165 181 166
f 168 180 179
f 168 179 212
f 168 212 170
f 168 170 169
f 170 212 175
f 170 175 213
f 170 213 214
f 170 214 171
f 174 213 175
f 175 212 176
f 176 212 215
f 176 215 177
f 177 215 178
f 178 215 179
f 179 215 212
f 183 211 184
f 184 211 216
f 184 216 217
f 184 217 218
f 184 218 193
f 184 193 188
f 185 219 220
f 185 220 221
f 185 221 186
f 185 190 219
f 186 221 187
f 187 222 191
f 187 221 222
f 189 194 223
f 189 223 190
f 189 195 194
f 190 223 224
f 190 224 219
f 191 222 192
f 193 218 196
f 194 225 223
f 196 226 197
f 196 218 227
f 196 227 226
f 197 226 199
f 199 226 228
f 199 228 206
f 199 206 200
f 200 206 201
f 206 228 208
f 206 208 207
f 208 228 227
f 208 227 217
f 208 217 229
f 208 229 209
f 209 229 210
f 210 216 211
f 210 229 217
f 210 217 216
f 217 227 218
f 219 221 220
f 223 225 230
f 223 230 224
f 226 227 228
