v -9.51908e-05 0.34086 -0.165966
v -0.154648 0.363671 -0.165966
v -9.51908e-05 0.282971 -0.165966
v -9.51908e-05 0.399088 -0.306409
v -0.154648 0.304793 -0.165966
v -9.51908e-05 0.400267 -0.309295
v -9.51908e-05 0.401473 -0.312283
v -9.51908e-05 0.403561 -0.3176
v -9.51908e-05 0.405702 -0.323103
v -9.51908e-05 0.407613 -0.328319
v -9.51908e-05 0.409578 -0.333721
v -0.154648 0.396377 -0.25668
v -0.0058894 0.282971 -0.165966
v -9.51908e-05 0.339423 -0.33838
v -0.107175 0.294533 -0.165966
v -0.154648 0.347298 -0.33838
v -9.51908e-05 0.410581 -0.336607
v -0.154648 0.400972 -0.269475
v -0.022213 0.283744 -0.165966
v -0.0881127 0.342202 -0.33838
v -0.0774774 0.341768 -0.33838
v -0.076373 0.341727 -0.33838
v -0.0122736 0.339627 -0.33838
v -0.0058894 0.339423 -0.33838
v -9.51908e-05 0.411191 -0.33838
v -0.0982488 0.292703 -0.165966
v -0.154648 0.421425 -0.33838
v -0.0995953 0.342961 -0.33838
v -0.0411236 0.284774 -0.165966
v -0.047175 0.285384 -0.165966
v -0.0531357 0.286034 -0.165966
v -0.0606091 0.287078 -0.165966
v -0.076373 0.289287 -0.165966
v -0.0829388 0.290209 -0.165966
v -0.0875227 0.2909 -0.165966
v -0.0966755 0.292405 -0.165966
v -0.154648 0.404645 -0.280076
v -0.0293839 0.284096 -0.165966
v -0.0904274 0.342337 -0.33838
v -0.0346487 0.284367 -0.165966
v -0.154648 0.420638 -0.334852
v -0.154648 0.418782 -0.32707
v -0.154648 0.417792 -0.323103
v -0.154648 0.415718 -0.315321
v -0.154648 0.414499 -0.310983
v -0.154648 0.412587 -0.304434
v -0.154648 0.412072 -0.302712
v -0.154648 0.410988 -0.299218
v -0.154648 0.410351 -0.297175
v -0.154648 0.408508 -0.291537
f 1 2 5
f 1 5 15
f 1 15 26
f 1 26 36
f 1 36 35
f 1 35 34
f 1 34 33
f 1 33 32
f 1 32 31
f 1 31 30
f 1 30 29
f 1 29 40
f 1 40 38
f 1 38 19
f 1 19 13
f 1 13 3
f 1 3 14
f 1 14 25
f 1 25 17
f 1 17 11
f 1 11 10
f 1 10 9
f 1 9 8
f 1 8 7
f 1 7 6
f 1 6 4
f 1 4 2
f 2 4 6
f 2 6 7
f 2 7 8
f 2 8 9
f 2 9 10
f 2 10 11
f 2 11 12
f 2 12 18
f 2 18 37
f 2 37 50
f 2 50 49
f 2 49 48
f 2 48 47
f 2 47 46
f 2 46 45
f 2 45 44
f 2 44 43
f 2 43 42
f 2 42 41
f 2 41 27
f 2 27 16
f 2 16 5
f 3 13 24
f 3 24 14
f 5 16 15
f 11 17 18
f 11 18 12
f 13 19 20
f 13 20 21
f 13 21 22
f 13 22 23
f 13 23 24
f 14 24 23
f 14 23 22
f 14 22 21
f 14 21 20
f 14 20 39
f 14 39 28
f 14 28 16
f 14 16 27
f 14 27 25
f 15 16 26
f 16 28 29
f 16 29 30
f 16 30 31
f 16 31 32
f 16 32 33
f 16 33 34
f 16 34 35
f 16 35 36
f 16 36 26
f 17 25 37
f 17 37 18
f 19 38 20
f 20 38 40
f 20 40 39
f 25 41 42
f 25 42 43
f 25 43 44
f 25 44 45
f 25 45 46
f 25 46 47
f 25 47 48
f 25 48 49
f 25 49 50
f 25 50 37
f 25 27 41
f 28 39 29
f 29 39 40
