v 0.465975 0.319891 0.339073
v 0.377914 0.319891 0.436251
v 0.446233 0.319493 0.365101
v 0.458588 0.317832 0.349738
v 0.469261 0.311889 0.338519
v 0.376074 0.319891 0.338519
v 0.400416 0.312053 0.421709
v 0.411325 0.315328 0.411905
v 0.319084 0.319891 0.481435
v 0.347448 0.311679 0.462525
v 0.421655 0.312053 0.400481
v 0.443578 0.311328 0.372238
v 0.4716 0.301361 0.339647
v 0.476122 0.286083 0.338519
v 0.213937 0.319891 0.457397
v 0.382935 0.0808703 0.338519
v 0.340639 0.305081 0.469867
v 0.38722 0.304098 0.434385
v 0.407434 0.299606 0.420089
v 0.414164 0.299606 0.414202
v 0.420052 0.299606 0.407455
v 0.296951 0.319891 0.498213
v 0.30673 0.319072 0.491178
v 0.30694 0.308801 0.494541
v 0.432696 0.302016 0.390123
v 0.467499 0.287837 0.349308
v 0.449835 0.299606 0.368669
v 0.435377 0.29626 0.388647
v 0.421471 0.287837 0.4093
v 0.459981 0.278175 0.361573
v 0.47804 0.276069 0.338519
v 0.213937 0.0808703 0.463263
v 0.213937 0.286761 0.543171
v 0.214805 0.314182 0.5363
v 0.226239 0.319891 0.529922
v 0.467631 0.0999386 0.338519
v 0.461822 0.0864621 0.341063
v 0.434142 0.0821103 0.375294
v 0.423574 0.0808703 0.388544
v 0.297792 0.301197 0.503751
v 0.308675 0.299606 0.495875
v 0.329073 0.293897 0.481763
v 0.409274 0.287837 0.421525
v 0.388613 0.29626 0.435431
v 0.415583 0.287837 0.415638
v 0.28846 0.313667 0.505658
v 0.257836 0.319329 0.517021
v 0.448126 0.289007 0.374228
v 0.423259 0.267529 0.411618
v 0.424337 0.276888 0.408295
v 0.479828 0.26423 0.338519
v 0.43748 0.276069 0.391354
v 0.458562 0.272325 0.364711
v 0.247164 0.0808703 0.51739
v 0.218222 0.0831397 0.529983
v 0.215672 0.0991899 0.53507
v 0.214805 0.109648 0.537449
v 0.213937 0.120574 0.53948
v 0.214831 0.299208 0.54028
v 0.213937 0.262382 0.546617
v 0.216198 0.276771 0.543869
v 0.222375 0.284609 0.540095
v 0.24648 0.293055 0.528589
v 0.235124 0.311515 0.528753
v 0.477462 0.158617 0.338519
v 0.470496 0.115544 0.339032
v 0.458247 0.105624 0.352548
v 0.424126 0.0998918 0.395169
v 0.446444 0.094066 0.364239
v 0.435614 0.0911648 0.377161
v 0.420236 0.0881232 0.395948
v 0.413743 0.0844968 0.402799
v 0.405463 0.0808703 0.41008
v 0.299921 0.287837 0.505289
v 0.287908 0.299606 0.50974
v 0.287908 0.287837 0.512221
v 0.37568 0.292657 0.44624
v 0.316245 0.278642 0.494664
v 0.410457 0.278525 0.422427
v 0.416845 0.274642 0.416889
v 0.276158 0.311328 0.511791
v 0.266984 0.311328 0.515606
v 0.417739 0.264347 0.417792
v 0.421366 0.252579 0.4157
v 0.434588 0.251245 0.399332
v 0.42849 0.264347 0.405383
v 0.469918 0.258053 0.352466
v 0.481142 0.252579 0.338519
v 0.27763 0.0855028 0.506048
v 0.255786 0.0881232 0.515831
v 0.288224 0.0808703 0.499382
v 0.22503 0.0913286 0.52943
v 0.276158 0.0998918 0.510211
v 0.257836 0.100079 0.517821
v 0.234493 0.111263 0.529635
v 0.264828 0.111637 0.517144
v 0.276158 0.111637 0.512447
v 0.264408 0.158617 0.523543
v 0.240907 0.158617 0.533285
v 0.21972 0.158407 0.542002
v 0.215672 0.169591 0.545017
v 0.215672 0.182131 0.546268
v 0.214805 0.203562 0.547991
v 0.229157 0.299606 0.53429
v 0.214805 0.250449 0.547356
v 0.258493 0.258264 0.528691
v 0.25179 0.264347 0.530783
v 0.224452 0.273565 0.540936
v 0.28294 0.276607 0.516241
v 0.276473 0.287837 0.517103
v 0.271532 0.30094 0.516405
v 0.252658 0.299606 0.524548
v 0.479013 0.169895 0.338519
v 0.458325 0.163695 0.364403
v 0.468341 0.158617 0.350415
v 0.437191 0.158617 0.390985
v 0.424678 0.160396 0.407619
v 0.419552 0.123382 0.406819
v 0.424573 0.110584 0.397712
v 0.448468 0.111637 0.366865
v 0.415425 0.0994706 0.406306
v 0.410089 0.0917029 0.410141
v 0.403517 0.0881232 0.414387
v 0.388508 0.0808703 0.423617
v 0.301367 0.276069 0.506335
v 0.286515 0.264347 0.516344
v 0.304337 0.263201 0.506089
v 0.392477 0.264347 0.438405
v 0.411587 0.267529 0.423289
v 0.383671 0.276069 0.443368
v 0.412718 0.252579 0.42417
v 0.421839 0.240857 0.416233
v 0.430435 0.240857 0.40567
v 0.449414 0.252579 0.379868
v 0.470286 0.250262 0.352938
v 0.481878 0.24205 0.338519
v 0.285148 0.0903459 0.503935
v 0.328732 0.0816892 0.469744
v 0.296662 0.0844968 0.495239
v 0.28775 0.0998918 0.505022
v 0.278734 0.15822 0.517534
v 0.295426 0.112924 0.50332
v 0.286725 0.159764 0.514313
v 0.276158 0.170386 0.520056
v 0.264408 0.170386 0.524938
v 0.225109 0.170386 0.541223
v 0.226529 0.182131 0.541797
v 0.215672 0.192964 0.547068
v 0.227554 0.1939 0.542228
v 0.276158 0.1939 0.522107
v 0.237516 0.205575 0.53868
v 0.215672 0.217343 0.548032
v 0.215672 0.229088 0.54793
v 0.215672 0.240857 0.547581
v 0.259229 0.250403 0.528999
v 0.276158 0.252579 0.521841
v 0.264408 0.264347 0.525553
v 0.481458 0.1939 0.338519
v 0.480327 0.182131 0.338663
v 0.469681 0.179019 0.352138
v 0.458772 0.170386 0.364998
v 0.425099 0.171696 0.409075
v 0.412797 0.111637 0.412828
v 0.409064 0.101296 0.41369
v 0.395106 0.0998918 0.424191
v 0.395921 0.0881232 0.420274
v 0.375522 0.0833269 0.434405
v 0.299632 0.252579 0.510437
v 0.287882 0.252579 0.516918
v 0.309279 0.252579 0.503587
v 0.352416 0.258077 0.469929
v 0.396788 0.253468 0.436354
v 0.41327 0.240857 0.424601
v 0.399627 0.244086 0.434897
v 0.422076 0.229088 0.4165
v 0.430645 0.229088 0.405937
v 0.449835 0.240857 0.380401
v 0.482325 0.230586 0.338519
v 0.46608 0.240857 0.359214
v 0.316797 0.0892697 0.481353
v 0.307334 0.100921 0.491793
v 0.285569 0.168912 0.515954
v 0.340639 0.118469 0.469867
v 0.315089 0.160021 0.495628
v 0.300999 0.158617 0.506068
v 0.302182 0.171883 0.50695
v 0.287172 0.182131 0.516631
v 0.257994 0.178856 0.528486
v 0.276158 0.182131 0.521225
v 0.259072 0.190297 0.528937
v 0.265932 0.205575 0.526907
v 0.288224 0.1939 0.517062
v 0.288933 0.205575 0.517369
v 0.2663 0.217343 0.52705
v 0.276158 0.229088 0.522907
v 0.288749 0.240857 0.517287
v 0.470076 0.186857 0.352651
v 0.482141 0.205575 0.338519
v 0.4338 0.19514 0.400727
v 0.449572 0.1939 0.380073
v 0.459456 0.182131 0.36588
v 0.429147 0.182131 0.405383
v 0.424284 0.1939 0.412972
v 0.420972 0.182131 0.415269
v 0.416424 0.158617 0.416479
v 0.411666 0.173521 0.423371
v 0.407592 0.160396 0.424724
v 0.406777 0.123382 0.419597
v 0.400757 0.109952 0.422119
v 0.377126 0.0911648 0.435656
v 0.338116 0.0998918 0.467919
v 0.364192 0.094066 0.446445
v 0.299632 0.240857 0.511237
v 0.306887 0.240857 0.506253
v 0.29214 0.229088 0.516262
v 0.413533 0.229088 0.424806
v 0.339825 0.240857 0.480984
v 0.40591 0.229088 0.430672
v 0.416503 0.217343 0.422181
v 0.42481 0.217343 0.413628
v 0.435193 0.217343 0.400132
v 0.482483 0.218934 0.338519
v 0.445524 0.229088 0.386554
v 0.46629 0.229088 0.359481
v 0.390952 0.158617 0.437236
v 0.345608 0.170386 0.473662
v 0.319426 0.182131 0.495116
v 0.303417 0.182576 0.507237
v 0.299632 0.205575 0.511401
v 0.289275 0.217343 0.517513
v 0.466343 0.217343 0.359542
v 0.430514 0.205575 0.405793
v 0.416293 0.205575 0.421996
v 0.415846 0.1939 0.421586
v 0.424626 0.205575 0.413403
v 0.412271 0.182131 0.423842
v 0.417239 0.169591 0.417279
v 0.405331 0.182131 0.429195
v 0.299632 0.229088 0.511627
v 0.310094 0.229088 0.504202
v 0.299632 0.217343 0.511709
v 0.405962 0.217343 0.430713
v 0.393581 0.217343 0.44023
v 0.405752 0.205575 0.430549
v 0.3526 0.186857 0.470073
v 0.325945 0.1939 0.491096
v 0.306992 0.205575 0.506335
v 0.303076 0.1939 0.508365
v 0.400678 0.19514 0.433831
v 0.310147 0.217343 0.504243
v 0.32074 0.217343 0.496121
f 1 2 3
f 1 3 4
f 1 4 5
f 1 5 6
f 1 6 15
f 1 15 35
f 1 35 22
f 1 22 9
f 1 9 2
f 2 7 8
f 2 8 3
f 2 9 10
f 2 10 7
f 3 5 4
f 3 8 11
f 3 11 5
f 5 11 12
f 5 12 13
f 5 13 14
f 5 14 31
f 5 31 51
f 5 51 88
f 5 88 136
f 5 136 178
f 5 178 222
f 5 222 198
f 5 198 158
f 5 158 113
f 5 113 65
f 5 65 36
f 5 36 16
f 5 16 6
f 6 16 15
f 7 10 17
f 7 17 18
f 7 18 19
f 7 19 8
f 8 19 20
f 8 20 21
f 8 21 11
f 9 22 23
f 9 23 24
f 9 24 10
f 10 24 17
f 11 21 25
f 11 25 12
f 12 25 13
f 13 26 14
f 13 25 27
f 13 27 28
f 13 28 26
f 14 26 29
f 14 29 30
f 14 30 31
f 15 32 58
f 15 58 60
f 15 60 33
f 15 33 34
f 15 34 35
f 15 16 32
f 16 36 37
f 16 37 38
f 16 38 39
f 16 39 73
f 16 73 124
f 16 124 91
f 16 91 54
f 16 54 32
f 17 24 40
f 17 40 41
f 17 41 42
f 17 42 19
f 17 19 18
f 19 43 20
f 19 42 44
f 19 44 43
f 20 45 29
f 20 29 21
f 20 43 45
f 21 29 28
f 21 28 27
f 21 27 25
f 22 46 40
f 22 40 24
f 22 24 23
f 22 35 47
f 22 47 46
f 26 28 48
f 26 48 29
f 28 29 48
f 29 45 49
f 29 49 50
f 29 50 30
f 30 50 31
f 31 50 52
f 31 52 53
f 31 53 51
f 32 54 55
f 32 55 56
f 32 56 57
f 32 57 58
f 33 59 34
f 33 60 61
f 33 61 62
f 33 62 63
f 33 63 59
f 34 59 64
f 34 64 35
f 35 64 47
f 36 65 66
f 36 66 67
f 36 67 68
f 36 68 69
f 36 69 37
f 37 69 70
f 37 70 71
f 37 71 39
f 37 39 38
f 39 71 72
f 39 72 73
f 40 74 42
f 40 42 41
f 40 46 75
f 40 75 76
f 40 76 74
f 42 77 44
f 42 74 78
f 42 78 43
f 42 43 77
f 43 79 45
f 43 44 77
f 43 78 79
f 45 80 49
f 45 79 80
f 46 47 81
f 46 81 75
f 47 64 82
f 47 82 81
f 49 80 83
f 49 83 84
f 49 84 85
f 49 85 86
f 49 86 51
f 49 51 53
f 49 53 50
f 50 53 52
f 51 87 88
f 51 86 87
f 54 89 90
f 54 90 55
f 54 91 89
f 55 92 56
f 55 90 92
f 56 92 93
f 56 93 94
f 56 94 95
f 56 95 57
f 57 95 58
f 58 95 96
f 58 96 97
f 58 97 98
f 58 98 99
f 58 99 100
f 58 100 101
f 58 101 102
f 58 102 103
f 58 103 60
f 59 63 104
f 59 104 64
f 60 103 105
f 60 105 106
f 60 106 107
f 60 107 108
f 60 108 61
f 61 108 109
f 61 109 62
f 62 109 110
f 62 110 63
f 63 110 111
f 63 111 112
f 63 112 104
f 64 104 111
f 64 111 82
f 65 113 114
f 65 114 115
f 65 115 66
f 66 115 116
f 66 116 117
f 66 117 118
f 66 118 119
f 66 119 120
f 66 120 67
f 67 120 119
f 67 119 68
f 68 119 121
f 68 121 69
f 69 121 71
f 69 71 70
f 71 121 122
f 71 122 72
f 72 122 73
f 73 122 123
f 73 123 124
f 74 76 125
f 74 125 78
f 75 81 111
f 75 111 110
f 75 110 76
f 76 110 109
f 76 109 126
f 76 126 125
f 78 125 127
f 78 127 128
f 78 128 129
f 78 129 130
f 78 130 79
f 79 130 129
f 79 129 80
f 80 129 83
f 81 82 111
f 83 129 131
f 83 131 84
f 84 131 132
f 84 132 133
f 84 133 85
f 85 134 87
f 85 87 86
f 85 133 135
f 85 135 134
f 87 134 88
f 88 134 135
f 88 135 136
f 89 93 90
f 89 91 137
f 89 137 93
f 90 93 92
f 91 124 138
f 91 138 139
f 91 139 137
f 93 137 140
f 93 140 97
f 93 97 96
f 93 96 95
f 93 95 94
f 97 141 98
f 97 140 142
f 97 142 143
f 97 143 141
f 98 141 144
f 98 144 145
f 98 145 99
f 99 146 100
f 99 145 146
f 100 146 101
f 101 146 102
f 102 146 147
f 102 147 148
f 102 148 103
f 103 148 149
f 103 149 150
f 103 150 151
f 103 151 152
f 103 152 153
f 103 153 105
f 104 112 111
f 105 153 154
f 105 154 155
f 105 155 156
f 105 156 106
f 106 156 126
f 106 126 157
f 106 157 107
f 107 157 108
f 108 157 109
f 109 157 126
f 113 158 159
f 113 159 160
f 113 160 161
f 113 161 114
f 114 162 117
f 114 117 115
f 114 161 162
f 115 117 116
f 117 162 163
f 117 163 118
f 118 163 119
f 119 163 121
f 121 163 122
f 122 164 123
f 122 163 164
f 123 164 165
f 123 165 166
f 123 166 124
f 124 166 167
f 124 167 138
f 125 126 168
f 125 168 127
f 126 169 168
f 126 156 169
f 127 168 170
f 127 170 171
f 127 171 128
f 128 172 131
f 128 131 129
f 128 171 172
f 131 173 132
f 131 172 174
f 131 174 173
f 132 173 175
f 132 175 133
f 133 176 177
f 133 177 135
f 133 175 176
f 135 177 136
f 136 177 179
f 136 179 178
f 137 139 140
f 138 167 180
f 138 180 139
f 139 142 140
f 139 180 181
f 139 181 142
f 141 143 182
f 141 182 144
f 142 181 183
f 142 183 184
f 142 184 185
f 142 185 143
f 143 185 186
f 143 186 187
f 143 187 182
f 144 188 145
f 144 182 187
f 144 187 188
f 145 188 146
f 146 188 147
f 147 149 148
f 147 188 189
f 147 189 190
f 147 190 149
f 149 190 150
f 150 191 151
f 150 190 189
f 150 189 187
f 150 187 192
f 150 192 193
f 150 193 191
f 151 191 152
f 152 191 194
f 152 194 195
f 152 195 153
f 153 195 154
f 154 195 196
f 154 196 155
f 155 196 156
f 156 196 169
f 158 197 159
f 158 198 199
f 158 199 200
f 158 200 197
f 159 197 160
f 160 197 201
f 160 201 202
f 160 202 162
f 160 162 161
f 162 202 203
f 162 203 204
f 162 204 205
f 162 205 163
f 163 205 206
f 163 206 207
f 163 207 208
f 163 208 209
f 163 209 164
f 164 209 165
f 165 210 166
f 165 209 181
f 165 181 211
f 165 211 212
f 165 212 210
f 166 210 180
f 166 180 167
f 168 213 214
f 168 214 170
f 168 169 196
f 168 196 215
f 168 215 213
f 170 214 174
f 170 174 172
f 170 172 171
f 173 216 175
f 173 174 217
f 173 217 218
f 173 218 216
f 174 214 217
f 175 216 219
f 175 219 220
f 175 220 176
f 176 221 222
f 176 222 223
f 176 223 177
f 176 220 221
f 177 223 178
f 177 178 179
f 178 223 224
f 178 224 222
f 180 210 212
f 180 212 181
f 181 212 211
f 181 209 183
f 183 209 208
f 183 208 207
f 183 207 225
f 183 225 184
f 184 225 207
f 184 207 226
f 184 226 227
f 184 227 186
f 184 186 185
f 186 227 228
f 186 228 187
f 187 228 192
f 187 189 188
f 191 193 194
f 192 228 229
f 192 229 193
f 193 229 215
f 193 215 230
f 193 230 194
f 194 230 195
f 195 230 215
f 195 215 196
f 197 200 199
f 197 199 202
f 197 202 201
f 198 222 231
f 198 231 232
f 198 232 199
f 199 232 203
f 199 203 202
f 203 233 234
f 203 234 204
f 203 232 235
f 203 235 233
f 204 234 236
f 204 236 206
f 204 206 237
f 204 237 205
f 205 237 206
f 206 236 238
f 206 238 227
f 206 227 226
f 206 226 207
f 213 215 239
f 213 239 214
f 214 240 217
f 214 239 240
f 215 229 241
f 215 241 239
f 216 218 242
f 216 242 219
f 217 240 218
f 218 243 242
f 218 240 243
f 219 242 244
f 219 244 233
f 219 233 220
f 220 235 232
f 220 232 221
f 220 233 235
f 221 232 231
f 221 231 222
f 222 224 223
f 227 238 245
f 227 245 246
f 227 246 247
f 227 247 228
f 228 248 229
f 228 247 248
f 229 248 247
f 229 247 241
f 233 236 234
f 233 244 236
f 236 244 249
f 236 249 238
f 238 249 245
f 239 241 240
f 240 241 250
f 240 250 251
f 240 251 243
f 241 247 250
f 242 243 244
f 243 251 247
f 243 247 244
f 244 247 249
f 245 249 246
f 246 249 247
f 247 251 250
