v 0.0815627 -0.543295 -0.232185
v 0.0815627 -0.539911 -0.234595
v 0.0846401 -0.543295 -0.23092
v 0.0815627 -0.543295 -0.162582
v 0.0815627 -0.536814 -0.2368
v 0.0998707 -0.543295 -0.224613
v 0.0827624 -0.533159 -0.238902
v 0.170373 -0.543295 -0.064281
v 0.0815627 -0.440178 -0.238902
v 0.0815627 -0.533853 -0.238902
v 0.108781 -0.543295 -0.22092
v 0.0863266 -0.531078 -0.238902
v 0.09595 -0.529843 -0.235791
v 0.112824 -0.543295 -0.219245
v 0.170373 -0.37043 -0.238902
v 0.170373 -0.543295 -0.178974
v 0.0931334 -0.527068 -0.238902
v 0.103783 -0.527541 -0.234168
v 0.110902 -0.534665 -0.226168
v 0.123412 -0.543295 -0.214049
v 0.114345 -0.538625 -0.221929
v 0.120995 -0.53079 -0.224698
v 0.128819 -0.528455 -0.223023
v 0.170373 -0.469079 -0.238902
v 0.161984 -0.543295 -0.185436
v 0.170373 -0.53524 -0.185658
v 0.0998707 -0.523074 -0.238902
v 0.111624 -0.525206 -0.232544
v 0.124264 -0.543295 -0.213536
v 0.123508 -0.522922 -0.229176
v 0.136261 -0.52387 -0.22116
v 0.134305 -0.533921 -0.214408
v 0.129854 -0.541027 -0.211947
v 0.12602 -0.515037 -0.233638
v 0.131879 -0.507219 -0.236373
v 0.133514 -0.502464 -0.238902
v 0.136113 -0.500485 -0.238902
v 0.142746 -0.495374 -0.238902
v 0.139712 -0.504258 -0.234202
v 0.144093 -0.496424 -0.237278
v 0.160967 -0.4782 -0.238902
v 0.170373 -0.486711 -0.224937
v 0.169417 -0.486711 -0.225672
v 0.155594 -0.543295 -0.190341
v 0.167791 -0.531772 -0.190512
v 0.170373 -0.52568 -0.193521
v 0.114962 -0.514089 -0.238902
v 0.121613 -0.51013 -0.238902
v 0.132053 -0.543295 -0.208408
v 0.141911 -0.529572 -0.212186
v 0.147553 -0.499943 -0.23186
v 0.140946 -0.516932 -0.223194
v 0.170373 -0.523988 -0.194905
v 0.162679 -0.527017 -0.198341
v 0.122751 -0.509436 -0.238902
v 0.129115 -0.505358 -0.238902
v 0.145441 -0.493073 -0.238902
v 0.151926 -0.492684 -0.234356
v 0.155021 -0.483953 -0.238902
v 0.157194 -0.481855 -0.238902
v 0.16487 -0.493835 -0.223519
v 0.170373 -0.497879 -0.216032
v 0.137686 -0.537406 -0.208955
v 0.157542 -0.498386 -0.225467
v 0.170373 -0.511111 -0.205332
v 0.170373 -0.522787 -0.195879
f 1 2 3
f 1 3 6
f 1 6 11
f 1 11 14
f 1 14 20
f 1 20 29
f 1 29 49
f 1 49 44
f 1 44 25
f 1 25 16
f 1 16 8
f 1 8 4
f 1 4 9
f 1 9 10
f 1 10 5
f 1 5 2
f 2 5 3
f 3 5 7
f 3 7 6
f 4 8 9
f 5 10 7
f 6 7 11
f 7 10 9
f 7 9 15
f 7 15 24
f 7 24 41
f 7 41 60
f 7 60 59
f 7 59 57
f 7 57 38
f 7 38 37
f 7 37 36
f 7 36 56
f 7 56 55
f 7 55 48
f 7 48 47
f 7 47 27
f 7 27 17
f 7 17 12
f 7 12 13
f 7 13 14
f 7 14 11
f 8 15 9
f 8 16 26
f 8 26 46
f 8 46 53
f 8 53 66
f 8 66 65
f 8 65 62
f 8 62 42
f 8 42 24
f 8 24 15
f 12 17 13
f 13 17 18
f 13 18 19
f 13 19 14
f 14 19 21
f 14 21 22
f 14 22 23
f 14 23 20
f 16 25 26
f 17 27 18
f 18 27 28
f 18 28 22
f 18 22 19
f 19 22 21
f 20 23 29
f 22 28 30
f 22 30 23
f 23 31 32
f 23 32 33
f 23 33 29
f 23 30 34
f 23 34 35
f 23 35 36
f 23 36 37
f 23 37 38
f 23 38 39
f 23 39 40
f 23 40 31
f 24 42 43
f 24 43 41
f 25 44 45
f 25 45 26
f 26 45 46
f 27 47 28
f 28 47 48
f 28 48 34
f 28 34 30
f 29 33 49
f 31 50 32
f 31 40 51
f 31 51 52
f 31 52 53
f 31 53 54
f 31 54 50
f 32 50 49
f 32 49 33
f 34 48 55
f 34 55 56
f 34 56 35
f 35 56 36
f 38 57 40
f 38 40 39
f 40 58 51
f 40 57 59
f 40 59 58
f 41 43 61
f 41 61 60
f 42 62 61
f 42 61 43
f 44 49 45
f 45 54 46
f 45 49 63
f 45 63 50
f 45 50 54
f 46 54 53
f 49 50 63
f 51 64 52
f 51 58 64
f 52 64 65
f 52 65 66
f 52 66 53
f 58 59 60
f 58 60 61
f 58 61 64
f 61 62 64
f 62 65 64
