v 0.476552 0.0808703 0.181849
v 0.47952 0.0808894 0.174682
v 0.47952 0.0808703 0.182843
v 0.382954 0.0808703 0.338478
v 0.47952 0.17859 0.21034
v 0.400169 0.17859 0.338478
v 0.47952 0.0808703 0.315567
v 0.461956 0.0808703 0.338478
v 0.47952 0.17859 0.338478
v 0.47952 0.0838642 0.316881
v 0.469897 0.0824677 0.32889
v 0.477063 0.0808703 0.318789
v 0.462731 0.0831851 0.338478
v 0.468054 0.0808703 0.330574
v 0.47952 0.173922 0.338478
v 0.47952 0.0844955 0.317154
v 0.469623 0.0808703 0.328522
v 0.47952 0.0859686 0.317779
v 0.47952 0.091 0.319864
v 0.464149 0.0875277 0.338478
v 0.479114 0.170364 0.338478
v 0.47952 0.169981 0.337869
v 0.47952 0.0998766 0.322958
v 0.47832 0.0998766 0.324545
v 0.467638 0.0999244 0.338478
v 0.467392 0.0990253 0.338478
v 0.471135 0.0903017 0.330494
v 0.478972 0.16934 0.338478
v 0.478736 0.158608 0.336843
v 0.47952 0.160358 0.336121
v 0.47952 0.102316 0.32368
v 0.47952 0.111623 0.326373
v 0.470237 0.111623 0.338478
v 0.468243 0.102631 0.338478
v 0.477479 0.158608 0.338478
v 0.47952 0.158608 0.335801
v 0.471712 0.120432 0.338478
f 1 2 3
f 1 3 7
f 1 7 12
f 1 12 17
f 1 17 14
f 1 14 8
f 1 8 4
f 1 4 2
f 2 5 9
f 2 9 15
f 2 15 22
f 2 22 30
f 2 30 36
f 2 36 32
f 2 32 31
f 2 31 23
f 2 23 19
f 2 19 18
f 2 18 16
f 2 16 10
f 2 10 7
f 2 7 3
f 2 4 6
f 2 6 5
f 4 8 13
f 4 13 20
f 4 20 26
f 4 26 25
f 4 25 34
f 4 34 33
f 4 33 37
f 4 37 35
f 4 35 28
f 4 28 21
f 4 21 15
f 4 15 9
f 4 9 6
f 5 6 9
f 7 10 11
f 7 11 12
f 8 14 11
f 8 11 13
f 10 16 11
f 11 17 12
f 11 16 18
f 11 18 19
f 11 19 20
f 11 20 13
f 11 14 17
f 15 21 22
f 19 23 24
f 19 24 25
f 19 25 26
f 19 26 27
f 19 27 20
f 20 27 26
f 21 28 29
f 21 29 30
f 21 30 22
f 23 31 24
f 24 31 32
f 24 32 33
f 24 33 34
f 24 34 25
f 28 35 29
f 29 36 30
f 29 35 37
f 29 37 32
f 29 32 36
f 32 37 33
