v 0.580638 0.31851 7.42338e-05
v 0.591781 0.25548 7.42338e-05
v 0.587491 0.293804 -5.14822e-05
v 0.58271 0.311328 -0.00292182
v 0.58024 0.319891 -0.00589691
v 0.508058 0.319867 5.32767e-05
v 0.51349 0.0808703 7.42338e-05
v 0.59295 0.231989 7.42338e-05
v 0.592698 0.240857 -0.00292182
v 0.592047 0.252579 -0.00589691
v 0.590984 0.264347 -0.00292182
v 0.589563 0.276069 -0.00589691
v 0.587983 0.287323 -0.00482839
v 0.586987 0.290902 -0.00803395
v 0.575525 0.292727 -0.0927403
v 0.576043 0.295301 -0.0849045
v 0.580904 0.299606 -0.0411581
v 0.583985 0.299606 -0.0176506
v 0.585871 0.298483 -0.00482839
v 0.577438 0.319891 -0.0279587
v 0.457444 0.319891 -0.213965
v 0.581183 0.311328 -0.0176506
v 0.463261 0.0808703 -0.213965
v 0.576681 0.0808703 -0.00589691
v 0.577079 0.0823677 7.42338e-05
v 0.593123 0.217343 -0.00292182
v 0.59303 0.229088 -0.00589691
v 0.592286 0.1939 7.42338e-05
v 0.590533 0.252579 -0.0176506
v 0.587571 0.25941 -0.0360459
v 0.589457 0.264347 -0.0176506
v 0.591197 0.240857 -0.0176506
v 0.587624 0.277683 -0.0191591
v 0.587651 0.283088 -0.013188
v 0.58712 0.273753 -0.0270997
v 0.576827 0.288399 -0.0885501
v 0.575193 0.288399 -0.100953
v 0.572338 0.287837 -0.12335
v 0.570784 0.287837 -0.135104
v 0.568526 0.299606 -0.135104
v 0.57522 0.303162 -0.0784725
v 0.575711 0.305549 -0.0706576
v 0.576535 0.319891 -0.0350193
v 0.534912 0.319891 -0.213965
v 0.565485 0.3121 -0.135418
v 0.575937 0.313363 -0.0534146
v 0.575698 0.318253 -0.0451388
v 0.531074 0.0808703 -0.213965
v 0.564369 0.0808703 -0.0998847
v 0.575937 0.081034 -0.0122242
v 0.578567 0.0881232 -0.00589691
v 0.579217 0.0910244 7.42338e-05
v 0.591582 0.217343 -0.0176506
v 0.592844 0.205575 -0.00292182
v 0.592286 0.1939 -0.00589691
v 0.591529 0.229088 -0.0176506
v 0.591502 0.182131 7.42338e-05
v 0.575485 0.251058 -0.132695
v 0.576495 0.252906 -0.124042
v 0.575605 0.257047 -0.128421
v 0.587345 0.243618 -0.0461026
v 0.576123 0.262312 -0.120585
v 0.573998 0.264347 -0.135104
v 0.580187 0.264347 -0.088152
v 0.587133 0.267272 -0.0328823
v 0.587491 0.23578 -0.0472549
v 0.580373 0.240857 -0.0998847
v 0.575671 0.281778 -0.105584
v 0.575698 0.270126 -0.117421
v 0.572564 0.276069 -0.135104
v 0.57692 0.277145 -0.100953
v 0.57093 0.276069 -0.146837
v 0.569097 0.287837 -0.146837
v 0.564741 0.308426 -0.146837
v 0.5668 0.299606 -0.146837
v 0.564887 0.319891 -0.12335
v 0.563984 0.319493 -0.131207
v 0.557941 0.319891 -0.15836
v 0.540862 0.319704 -0.199948
v 0.538033 0.309596 -0.213965
v 0.5634 0.318206 -0.138414
v 0.533132 0.0881466 -0.213965
v 0.541008 0.0808703 -0.190059
v 0.559309 0.0808703 -0.137346
v 0.563679 0.0815722 -0.106463
v 0.56344 0.0842628 -0.113587
v 0.566242 0.0881232 -0.0998847
v 0.569336 0.0881232 -0.0763983
v 0.576189 0.0855496 -0.0193267
v 0.576362 0.0914456 -0.0294043
v 0.575884 0.0933173 -0.0365907
v 0.579682 0.0998918 -0.0176506
v 0.581223 0.0998918 -0.00292182
v 0.583295 0.111637 -0.00292182
v 0.591316 0.205575 -0.0176506
v 0.587531 0.209505 -0.0476111
v 0.590055 0.217343 -0.0294043
v 0.591502 0.182131 -0.00589691
v 0.587677 0.185219 -0.0369678
v 0.589231 0.1939 -0.0294043
v 0.583799 0.229088 -0.0763983
v 0.589098 0.158617 -0.00292182
v 0.5904 0.170386 -0.00292182
v 0.573453 0.252579 -0.146837
v 0.575326 0.240857 -0.138079
v 0.572378 0.264347 -0.146837
v 0.57761 0.229088 -0.12335
v 0.56923 0.264347 -0.15859
v 0.567729 0.276069 -0.15859
v 0.564914 0.299606 -0.155092
v 0.564143 0.306157 -0.153206
v 0.563147 0.314276 -0.146837
v 0.561753 0.319891 -0.145056
v 0.551699 0.318136 -0.174974
v 0.561049 0.310602 -0.157711
v 0.55308 0.308567 -0.178327
v 0.540065 0.304121 -0.212603
v 0.541247 0.296518 -0.213965
v 0.535616 0.098488 -0.213965
v 0.540503 0.0938086 -0.199823
v 0.552005 0.0887082 -0.168752
v 0.555325 0.0870938 -0.15968
v 0.539454 0.0859941 -0.197267
v 0.554355 0.0808703 -0.15769
v 0.552191 0.0816892 -0.16364
v 0.557662 0.0808703 -0.146837
v 0.559641 0.0881232 -0.146837
v 0.56158 0.0881232 -0.135104
v 0.564436 0.0921007 -0.121108
v 0.563918 0.094183 -0.128944
v 0.576003 0.0977627 -0.0425828
v 0.576123 0.103588 -0.05023
v 0.575605 0.106349 -0.0580658
v 0.581794 0.111637 -0.0176506
v 0.587531 0.1523 -0.012329
v 0.589789 0.205575 -0.0294043
v 0.575406 0.205575 -0.138603
v 0.575525 0.217343 -0.139609
v 0.586827 0.217343 -0.0539174
v 0.587823 0.159764 -0.0168126
v 0.588873 0.170386 -0.0176506
v 0.587797 0.170386 -0.0260102
v 0.587359 0.177382 -0.0345793
v 0.589975 0.182131 -0.0176506
v 0.575711 0.187817 -0.129342
v 0.588302 0.18164 -0.0301586
v 0.580705 0.182131 -0.088152
v 0.584596 0.1939 -0.0646445
v 0.587372 0.201644 -0.0464378
v 0.570332 0.252579 -0.15859
v 0.574117 0.240857 -0.146837
v 0.571036 0.240857 -0.15859
v 0.575485 0.229088 -0.139336
v 0.574476 0.229088 -0.146837
v 0.566016 0.252579 -0.169422
v 0.565445 0.264347 -0.16804
v 0.564688 0.276069 -0.166196
v 0.564143 0.283064 -0.164939
v 0.565777 0.287299 -0.15901
v 0.56344 0.290856 -0.163221
v 0.552377 0.294412 -0.188341
v 0.562497 0.299606 -0.160958
v 0.54316 0.286785 -0.213965
v 0.537821 0.109672 -0.213965
v 0.552416 0.104828 -0.176692
v 0.552815 0.0987219 -0.17267
v 0.558884 0.0998918 -0.15859
v 0.562576 0.100407 -0.146439
v 0.563519 0.0962653 -0.135104
v 0.564661 0.102138 -0.135104
v 0.564183 0.104665 -0.142248
v 0.566322 0.111637 -0.135104
v 0.567875 0.111637 -0.12335
v 0.575738 0.117392 -0.0706785
v 0.574264 0.205575 -0.146837
v 0.574529 0.217343 -0.146837
v 0.581502 0.1939 -0.088152
v 0.575127 0.1939 -0.136487
v 0.573706 0.1939 -0.146837
v 0.572112 0.158617 -0.135104
v 0.587465 0.164396 -0.0236218
v 0.575565 0.153938 -0.104725
v 0.585805 0.170386 -0.0411581
v 0.575459 0.172258 -0.12115
v 0.575791 0.181593 -0.125068
v 0.574728 0.183184 -0.133994
v 0.572896 0.182131 -0.146837
v 0.571395 0.229088 -0.15859
v 0.566707 0.229088 -0.170344
v 0.565923 0.240646 -0.171371
v 0.571475 0.217343 -0.15859
v 0.563851 0.24439 -0.17598
v 0.547569 0.252579 -0.213965
v 0.552483 0.260767 -0.200347
v 0.552018 0.268605 -0.199257
v 0.563015 0.264347 -0.173927
v 0.545072 0.274735 -0.213965
v 0.5515 0.276069 -0.198
v 0.54644 0.287837 -0.205584
v 0.544408 0.158524 -0.213965
v 0.539932 0.119475 -0.212624
v 0.564143 0.11634 -0.153206
v 0.556268 0.111637 -0.170344
v 0.561567 0.112105 -0.157711
v 0.56409 0.11028 -0.148261
v 0.570465 0.158617 -0.146837
v 0.571196 0.205575 -0.15859
v 0.570598 0.1939 -0.15859
v 0.57178 0.170386 -0.146837
v 0.573414 0.170386 -0.135104
v 0.575512 0.166385 -0.115996
v 0.569761 0.182131 -0.15859
v 0.566773 0.217343 -0.170344
v 0.548671 0.226842 -0.213965
v 0.561686 0.229088 -0.182475
v 0.564037 0.236575 -0.176378
v 0.548299 0.240857 -0.213965
v 0.546427 0.264394 -0.213965
v 0.545842 0.17062 -0.213965
v 0.551819 0.167953 -0.198775
v 0.547888 0.158617 -0.205584
v 0.564037 0.152324 -0.164645
v 0.567238 0.158617 -0.15859
v 0.568632 0.170386 -0.15859
v 0.566149 0.1939 -0.169737
v 0.566016 0.205107 -0.171434
v 0.565724 0.182131 -0.16871
v 0.564077 0.208686 -0.176483
v 0.548724 0.217343 -0.213965
v 0.546998 0.182131 -0.213965
v 0.552257 0.175767 -0.199844
v 0.565126 0.170386 -0.167306
v 0.561992 0.158617 -0.171497
v 0.564422 0.158617 -0.165609
v 0.563718 0.1939 -0.175624
v 0.563904 0.200895 -0.176106
v 0.548445 0.205575 -0.213965
v 0.563293 0.182131 -0.174597
v 0.547848 0.1939 -0.213965
f 1 2 3
f 1 3 4
f 1 4 5
f 1 5 6
f 1 6 7
f 1 7 25
f 1 25 52
f 1 52 57
f 1 57 28
f 1 28 8
f 1 8 2
f 2 8 9
f 2 9 10
f 2 10 11
f 2 11 3
f 3 12 13
f 3 13 14
f 3 14 15
f 3 15 16
f 3 16 17
f 3 17 18
f 3 18 19
f 3 19 5
f 3 5 4
f 3 11 12
f 5 20 43
f 5 43 76
f 5 76 113
f 5 113 78
f 5 78 44
f 5 44 21
f 5 21 6
f 5 19 22
f 5 22 20
f 6 21 7
f 7 23 48
f 7 48 83
f 7 83 124
f 7 124 126
f 7 126 84
f 7 84 49
f 7 49 24
f 7 24 25
f 7 21 23
f 8 26 27
f 8 27 9
f 8 28 26
f 9 27 10
f 10 29 30
f 10 30 31
f 10 31 12
f 10 12 11
f 10 27 32
f 10 32 29
f 12 33 34
f 12 34 13
f 12 31 35
f 12 35 33
f 13 34 14
f 14 36 15
f 14 34 36
f 15 36 37
f 15 37 38
f 15 38 39
f 15 39 40
f 15 40 16
f 16 40 17
f 17 40 41
f 17 41 18
f 18 41 42
f 18 42 22
f 18 22 19
f 20 22 43
f 21 44 80
f 21 80 118
f 21 118 163
f 21 163 197
f 21 197 218
f 21 218 193
f 21 193 217
f 21 217 214
f 21 214 229
f 21 229 237
f 21 237 239
f 21 239 230
f 21 230 219
f 21 219 200
f 21 200 164
f 21 164 119
f 21 119 82
f 21 82 48
f 21 48 23
f 22 42 45
f 22 45 46
f 22 46 47
f 22 47 43
f 24 49 50
f 24 50 51
f 24 51 25
f 25 51 52
f 26 53 27
f 26 28 54
f 26 54 55
f 26 55 53
f 27 56 32
f 27 53 56
f 28 57 98
f 28 98 55
f 28 55 54
f 29 58 59
f 29 59 60
f 29 60 30
f 29 32 61
f 29 61 58
f 30 60 62
f 30 62 63
f 30 63 64
f 30 64 31
f 31 64 65
f 31 65 35
f 32 56 66
f 32 66 67
f 32 67 61
f 33 68 34
f 33 35 68
f 34 68 38
f 34 38 37
f 34 37 36
f 35 65 69
f 35 69 70
f 35 70 71
f 35 71 68
f 38 68 39
f 39 68 70
f 39 70 72
f 39 72 73
f 39 73 40
f 40 74 45
f 40 45 42
f 40 42 41
f 40 73 75
f 40 75 74
f 43 47 77
f 43 77 76
f 44 78 79
f 44 79 80
f 45 74 81
f 45 81 47
f 45 47 46
f 47 81 77
f 48 82 83
f 49 84 85
f 49 85 86
f 49 86 87
f 49 87 88
f 49 88 89
f 49 89 50
f 50 89 51
f 51 90 91
f 51 91 92
f 51 92 93
f 51 93 52
f 51 89 90
f 52 93 94
f 52 94 57
f 53 55 95
f 53 95 96
f 53 96 97
f 53 97 56
f 55 98 99
f 55 99 100
f 55 100 136
f 55 136 95
f 56 97 101
f 56 101 66
f 57 94 102
f 57 102 103
f 57 103 98
f 58 104 60
f 58 60 59
f 58 61 105
f 58 105 104
f 60 104 106
f 60 106 63
f 60 63 62
f 61 67 105
f 63 106 70
f 63 70 69
f 63 69 64
f 64 69 65
f 66 105 67
f 66 101 107
f 66 107 105
f 68 71 70
f 70 106 72
f 72 106 108
f 72 108 109
f 72 109 73
f 73 109 110
f 73 110 111
f 73 111 75
f 74 75 111
f 74 111 112
f 74 112 81
f 76 77 113
f 77 81 113
f 78 114 79
f 78 113 111
f 78 111 115
f 78 115 114
f 79 114 80
f 80 114 115
f 80 115 116
f 80 116 111
f 80 111 117
f 80 117 118
f 81 112 113
f 82 119 120
f 82 120 121
f 82 121 122
f 82 122 123
f 82 123 83
f 83 123 125
f 83 125 124
f 84 126 127
f 84 127 128
f 84 128 85
f 85 128 86
f 86 128 87
f 87 128 129
f 87 129 91
f 87 91 90
f 87 90 88
f 88 90 89
f 91 129 130
f 91 130 131
f 91 131 92
f 92 131 132
f 92 132 133
f 92 133 134
f 92 134 93
f 93 134 94
f 94 134 135
f 94 135 102
f 95 136 96
f 96 136 137
f 96 137 138
f 96 138 139
f 96 139 97
f 97 139 101
f 98 103 102
f 98 102 135
f 98 135 140
f 98 140 141
f 98 141 142
f 98 142 143
f 98 143 144
f 98 144 99
f 99 145 100
f 99 144 146
f 99 146 147
f 99 147 145
f 100 148 149
f 100 149 136
f 100 145 148
f 101 139 107
f 104 150 106
f 104 105 151
f 104 151 152
f 104 152 150
f 105 107 153
f 105 153 154
f 105 154 151
f 106 150 108
f 107 139 138
f 107 138 153
f 108 150 155
f 108 155 156
f 108 156 157
f 108 157 109
f 109 158 159
f 109 159 110
f 109 157 158
f 110 159 160
f 110 160 161
f 110 161 162
f 110 162 111
f 111 116 115
f 111 113 112
f 111 162 117
f 117 162 161
f 117 161 118
f 118 161 163
f 119 164 165
f 119 165 166
f 119 166 120
f 120 166 167
f 120 167 121
f 121 167 122
f 122 127 124
f 122 124 125
f 122 125 123
f 122 167 127
f 124 127 126
f 127 167 168
f 127 168 169
f 127 169 128
f 128 169 130
f 128 130 129
f 130 169 131
f 131 170 132
f 131 169 170
f 132 170 133
f 133 170 171
f 133 171 172
f 133 172 173
f 133 173 134
f 134 173 174
f 134 174 135
f 135 174 140
f 136 149 137
f 137 175 176
f 137 176 138
f 137 149 177
f 137 177 178
f 137 178 179
f 137 179 175
f 138 176 154
f 138 154 153
f 140 180 181
f 140 181 141
f 140 174 182
f 140 182 180
f 141 181 142
f 142 181 183
f 142 183 143
f 143 183 184
f 143 184 185
f 143 185 147
f 143 147 146
f 143 146 144
f 145 147 185
f 145 185 186
f 145 186 187
f 145 187 179
f 145 179 178
f 145 178 177
f 145 177 148
f 148 177 149
f 150 152 155
f 151 154 188
f 151 188 152
f 152 188 189
f 152 189 190
f 152 190 155
f 154 176 191
f 154 191 188
f 155 190 192
f 155 192 193
f 155 193 194
f 155 194 156
f 156 195 157
f 156 194 196
f 156 196 195
f 157 195 197
f 157 197 198
f 157 198 158
f 158 163 199
f 158 199 160
f 158 160 159
f 158 198 197
f 158 197 163
f 160 199 161
f 161 199 163
f 164 200 201
f 164 201 202
f 164 202 203
f 164 203 165
f 165 203 204
f 165 204 167
f 165 167 166
f 167 204 202
f 167 202 168
f 168 202 205
f 168 205 171
f 168 171 169
f 169 171 170
f 171 205 172
f 172 174 173
f 172 205 202
f 172 202 206
f 172 206 180
f 172 180 174
f 174 180 182
f 175 179 207
f 175 207 191
f 175 191 176
f 179 208 207
f 179 187 208
f 180 206 209
f 180 209 210
f 180 210 211
f 180 211 181
f 181 211 183
f 183 211 184
f 184 211 210
f 184 210 185
f 185 210 187
f 185 187 186
f 187 210 209
f 187 209 212
f 187 212 208
f 188 191 189
f 189 191 213
f 189 213 214
f 189 214 215
f 189 215 216
f 189 216 190
f 190 216 192
f 191 207 213
f 192 216 217
f 192 217 193
f 193 218 194
f 194 218 196
f 195 196 218
f 195 218 197
f 200 219 220
f 200 220 221
f 200 221 222
f 200 222 202
f 200 202 201
f 202 204 203
f 202 222 223
f 202 223 224
f 202 224 209
f 202 209 206
f 207 208 225
f 207 225 226
f 207 226 213
f 208 212 227
f 208 227 225
f 209 224 212
f 212 224 227
f 213 226 228
f 213 228 229
f 213 229 214
f 214 217 216
f 214 216 215
f 219 230 231
f 219 231 232
f 219 232 220
f 220 232 233
f 220 233 221
f 221 233 222
f 222 233 234
f 222 234 223
f 223 234 224
f 224 234 232
f 224 232 227
f 225 235 236
f 225 236 226
f 225 227 238
f 225 238 235
f 226 236 237
f 226 237 228
f 227 231 238
f 227 232 231
f 228 237 229
f 230 239 238
f 230 238 231
f 232 234 233
f 235 239 236
f 235 238 239
f 236 239 237
