v -0.0882339 0.429276 0.0528881
v -0.0882512 0.429276 0.0540815
v -0.0882512 0.429303 0.0528881
v -9.51995e-05 0.429276 0.103077
v -0.0882512 0.429276 0.126201
v -9.51995e-05 0.459152 0.117059
v -9.51995e-05 0.455813 0.115483
v -9.51995e-05 0.452357 0.113862
v -9.51995e-05 0.44606 0.110912
v -9.51995e-05 0.439841 0.108008
v -0.0882512 0.533356 0.1244
v -9.51995e-05 0.545819 0.160741
v -9.51995e-05 0.541342 0.157836
v -9.51995e-05 0.536721 0.154864
v -9.51995e-05 0.533827 0.153243
v -9.51995e-05 0.530842 0.151622
v -9.51995e-05 0.522843 0.147591
v -9.51995e-05 0.518078 0.14525
v -9.51995e-05 0.513168 0.14284
v -9.51995e-05 0.50729 0.140003
v -9.51995e-05 0.483254 0.12852
v -9.51995e-05 0.429276 0.154346
v -0.0880527 0.429276 0.126381
v -0.0882512 0.549236 0.264541
v -0.0882512 0.540255 0.129263
v -9.51995e-05 0.551698 0.164974
v -0.00587677 0.429276 0.154346
v -9.51995e-05 0.551318 0.282891
v -0.0871553 0.429276 0.126989
v -0.0834534 0.551789 0.270665
v -0.0882512 0.557131 0.264541
v -0.0787159 0.429276 0.132663
v -0.0882512 0.54633 0.134487
v -9.51995e-05 0.555965 0.170828
v -0.0882512 0.546762 0.13487
v -0.0882512 0.552457 0.140454
v -0.0085432 0.429276 0.154009
v -0.00587677 0.551318 0.282891
v -0.0176298 0.551868 0.282306
v -0.0236875 0.552195 0.281991
v -9.51995e-05 0.555245 0.282891
v -0.0763688 0.550912 0.271701
v -0.0834534 0.553766 0.270665
v -0.0769124 0.429276 0.133789
v -0.0652198 0.429276 0.139508
v -0.0532166 0.429276 0.144507
v -0.040083 0.429276 0.1491
v -0.0763688 0.555664 0.271701
v -0.0763688 0.560914 0.264361
v -0.0882512 0.562616 0.252607
v -9.51995e-05 0.558597 0.176547
v -0.0882512 0.555704 0.145655
v -0.0882512 0.55607 0.146376
v -0.025396 0.429276 0.151802
v -0.00587677 0.555245 0.282891
v -0.0176298 0.553465 0.282306
v -0.0236875 0.5523 0.281991
v -0.0646158 0.550009 0.272872
v -0.0293741 0.429276 0.151262
v -9.51995e-05 0.560495 0.276092
v -0.0646158 0.556882 0.272872
v -0.0646158 0.562249 0.264361
v -0.0881131 0.562629 0.252607
v -0.0882512 0.563009 0.240854
v -9.51995e-05 0.561137 0.182109
v -0.0882512 0.561019 0.158624
v -0.0881131 0.561006 0.158624
v -0.00587677 0.560495 0.276092
v -9.51995e-05 0.56166 0.270327
v -0.0528714 0.562459 0.264361
v -0.0763688 0.562878 0.252607
v -0.0763688 0.563022 0.240854
v -0.0882512 0.563022 0.2291
v -0.0646158 0.562983 0.252607
v -0.0528714 0.563009 0.252607
v -0.0411271 0.563022 0.252607
v -9.51995e-05 0.562001 0.188076
v -0.0882512 0.562682 0.170355
v -0.00587677 0.562865 0.264361
v -0.0176298 0.562786 0.264361
v -0.0293741 0.562708 0.264361
v -0.0411271 0.562603 0.264361
v -9.51995e-05 0.562865 0.264361
v -0.0882512 0.563022 0.193862
v -9.51995e-05 0.563022 0.252607
v -9.51995e-05 0.562786 0.193862
v -0.0882512 0.562996 0.182109
v -0.0881131 0.562996 0.182109
v -0.0763688 0.562943 0.182109
v -0.0881131 0.563022 0.193862
v -9.51995e-05 0.563022 0.217347
v -9.51995e-05 0.562904 0.199829
v -9.51995e-05 0.563009 0.205593
f 1 2 3
f 1 3 4
f 1 4 22
f 1 22 27
f 1 27 37
f 1 37 54
f 1 54 59
f 1 59 47
f 1 47 46
f 1 46 45
f 1 45 44
f 1 44 32
f 1 32 29
f 1 29 23
f 1 23 5
f 1 5 2
f 2 5 24
f 2 24 31
f 2 31 50
f 2 50 64
f 2 64 73
f 2 73 84
f 2 84 87
f 2 87 78
f 2 78 66
f 2 66 53
f 2 53 52
f 2 52 36
f 2 36 35
f 2 35 33
f 2 33 25
f 2 25 11
f 2 11 3
f 3 6 7
f 3 7 8
f 3 8 9
f 3 9 10
f 3 10 4
f 3 11 12
f 3 12 13
f 3 13 14
f 3 14 15
f 3 15 16
f 3 16 17
f 3 17 18
f 3 18 19
f 3 19 20
f 3 20 21
f 3 21 6
f 4 10 9
f 4 9 8
f 4 8 7
f 4 7 6
f 4 6 21
f 4 21 20
f 4 20 19
f 4 19 18
f 4 18 17
f 4 17 16
f 4 16 15
f 4 15 14
f 4 14 13
f 4 13 12
f 4 12 26
f 4 26 34
f 4 34 51
f 4 51 65
f 4 65 77
f 4 77 86
f 4 86 92
f 4 92 93
f 4 93 91
f 4 91 85
f 4 85 83
f 4 83 69
f 4 69 60
f 4 60 41
f 4 41 28
f 4 28 22
f 5 23 24
f 11 25 12
f 12 25 26
f 22 28 38
f 22 38 27
f 23 29 24
f 24 30 43
f 24 43 31
f 24 29 32
f 24 32 30
f 25 33 26
f 26 33 35
f 26 35 36
f 26 36 34
f 27 38 39
f 27 39 40
f 27 40 37
f 28 41 55
f 28 55 38
f 30 42 40
f 30 40 57
f 30 57 43
f 30 32 44
f 30 44 45
f 30 45 46
f 30 46 47
f 30 47 42
f 31 43 48
f 31 48 49
f 31 49 50
f 34 36 52
f 34 52 53
f 34 53 51
f 37 40 54
f 38 55 56
f 38 56 39
f 39 56 57
f 39 57 40
f 40 42 58
f 40 58 59
f 40 59 54
f 41 60 68
f 41 68 55
f 42 47 59
f 42 59 58
f 43 57 48
f 48 57 56
f 48 56 61
f 48 61 49
f 49 62 50
f 49 61 62
f 50 62 63
f 50 63 64
f 51 53 65
f 53 66 67
f 53 67 65
f 55 68 61
f 55 61 56
f 60 69 68
f 61 68 62
f 62 68 70
f 62 70 71
f 62 71 63
f 63 71 64
f 64 72 73
f 64 71 74
f 64 74 75
f 64 75 76
f 64 76 72
f 65 67 66
f 65 66 77
f 66 78 77
f 68 69 79
f 68 79 80
f 68 80 81
f 68 81 82
f 68 82 70
f 69 83 79
f 70 82 71
f 71 82 81
f 71 81 74
f 72 76 85
f 72 85 91
f 72 91 90
f 72 90 84
f 72 84 73
f 74 81 80
f 74 80 79
f 74 79 75
f 75 79 76
f 76 79 83
f 76 83 85
f 77 78 86
f 78 87 88
f 78 88 89
f 78 89 86
f 84 90 88
f 84 88 87
f 86 89 92
f 88 90 93
f 88 93 89
f 89 93 92
f 90 91 93
