v -0.382871 0.347679 -0.199881
v -0.382871 0.348724 7.56169e-05
v -0.382871 0.42906 -0.199881
v -0.154648 0.314 -0.199881
v -0.154648 0.304774 -0.16588
v -0.154648 0.301832 -0.154644
v -0.154648 0.299109 -0.142997
v -0.154648 0.289796 -0.100539
v -0.154648 0.28881 -0.0959389
v -0.154648 0.287265 -0.087835
v -0.154648 0.286544 -0.0834893
v -0.154648 0.28547 -0.0763837
v -0.154648 0.282233 -0.053579
v -0.154648 0.281821 -0.0506232
v -0.154648 0.281674 -0.0493704
v -0.154648 0.280762 -0.0411294
v -0.154648 0.280673 -0.0400919
v -0.154648 0.279923 -0.0293845
v -0.154648 0.279805 -0.0271334
v -0.154648 0.279334 -0.0176396
v -0.154648 0.278775 -0.00587514
v -0.154648 0.278775 7.56169e-05
v -0.382871 0.423307 7.56169e-05
v -0.382871 0.429016 -0.192834
v -0.381843 0.42906 -0.199881
v -0.154648 0.375723 -0.199881
v -0.154648 0.339881 7.56169e-05
v -0.381843 0.428206 -0.158598
v -0.382871 0.428251 -0.1576
v -0.381464 0.423027 7.56169e-05
v -0.30533 0.419467 -0.199881
v -0.311696 0.420717 -0.199881
v -0.317706 0.421894 -0.199881
v -0.320677 0.422424 -0.199881
v -0.328786 0.423822 -0.199881
v -0.340582 0.425587 -0.199881
v -0.352333 0.427059 -0.199881
v -0.358342 0.427662 -0.199881
v -0.364083 0.428177 -0.199881
v -0.382871 0.428869 -0.181089
v -0.381843 0.429001 -0.193852
v -0.375834 0.428869 -0.199881
v -0.246598 0.404253 -0.199881
v -0.346591 0.413861 7.56169e-05
v -0.343151 0.412757 7.56169e-05
v -0.339577 0.41161 7.56169e-05
v -0.333701 0.409579 7.56169e-05
v -0.32309 0.405709 7.56169e-05
v -0.312277 0.401487 7.56169e-05
v -0.381843 0.428574 -0.170362
v -0.382871 0.428604 -0.169345
v -0.378582 0.422424 7.56169e-05
v -0.299588 0.418245 -0.199881
v -0.370093 0.428589 -0.199881
v -0.370093 0.428427 -0.193852
v -0.381843 0.428854 -0.182107
v -0.25263 0.406077 -0.199881
v -0.352556 0.415641 7.56169e-05
v -0.370093 0.420452 7.56169e-05
v -0.293579 0.416921 -0.199881
v -0.258349 0.407784 -0.199881
v -0.358342 0.417363 7.56169e-05
v -0.364307 0.418937 7.56169e-05
v -0.270279 0.411198 -0.199881
v -0.276511 0.412787 -0.199881
v -0.280577 0.413802 -0.199881
v -0.28786 0.415568 -0.199881
v -0.264046 0.409417 -0.199881
f 1 2 23
f 1 23 29
f 1 29 51
f 1 51 40
f 1 40 24
f 1 24 3
f 1 3 25
f 1 25 42
f 1 42 54
f 1 54 39
f 1 39 38
f 1 38 37
f 1 37 36
f 1 36 35
f 1 35 34
f 1 34 33
f 1 33 32
f 1 32 31
f 1 31 53
f 1 53 60
f 1 60 67
f 1 67 66
f 1 66 65
f 1 65 64
f 1 64 68
f 1 68 61
f 1 61 57
f 1 57 43
f 1 43 26
f 1 26 4
f 1 4 5
f 1 5 6
f 1 6 7
f 1 7 8
f 1 8 9
f 1 9 10
f 1 10 11
f 1 11 12
f 1 12 13
f 1 13 14
f 1 14 15
f 1 15 16
f 1 16 17
f 1 17 18
f 1 18 19
f 1 19 20
f 1 20 21
f 1 21 22
f 1 22 2
f 2 22 27
f 2 27 49
f 2 49 48
f 2 48 47
f 2 47 46
f 2 46 45
f 2 45 44
f 2 44 58
f 2 58 62
f 2 62 63
f 2 63 59
f 2 59 52
f 2 52 30
f 2 30 23
f 3 24 25
f 4 26 27
f 4 27 22
f 4 22 21
f 4 21 20
f 4 20 19
f 4 19 18
f 4 18 17
f 4 17 16
f 4 16 15
f 4 15 14
f 4 14 13
f 4 13 12
f 4 12 11
f 4 11 10
f 4 10 9
f 4 9 8
f 4 8 7
f 4 7 6
f 4 6 5
f 23 28 29
f 23 30 31
f 23 31 32
f 23 32 33
f 23 33 34
f 23 34 35
f 23 35 36
f 23 36 37
f 23 37 38
f 23 38 39
f 23 39 28
f 24 40 56
f 24 56 41
f 24 41 25
f 25 41 42
f 26 43 44
f 26 44 45
f 26 45 46
f 26 46 47
f 26 47 48
f 26 48 49
f 26 49 27
f 28 50 29
f 28 39 50
f 29 50 51
f 30 52 31
f 31 52 53
f 39 54 55
f 39 55 50
f 40 51 56
f 41 56 42
f 42 56 54
f 43 57 44
f 44 57 58
f 50 56 51
f 50 55 54
f 50 54 56
f 52 59 60
f 52 60 53
f 57 61 58
f 58 61 62
f 59 63 64
f 59 64 65
f 59 65 66
f 59 66 67
f 59 67 60
f 61 68 62
f 62 68 64
f 62 64 63
