v -0.450154 0.0768347 -0.352088
v -0.437686 0.0763466 -0.368131
v -0.42218 0.0727341 -0.386722
v -0.436019 0.0670063 -0.365955
v -0.446947 0.0652163 -0.350823
v -0.443424 0.054086 -0.349591
v -0.374417 0.0808703 -0.349591
v -0.431631 0.0808703 -0.378034
v -0.423551 0.0807076 -0.388527
v -0.411336 0.0701305 -0.399661
v -0.409838 0.0622873 -0.397721
v -0.434521 0.0591955 -0.364015
v -0.437707 0.0528493 -0.356407
v -0.437053 0.0399617 -0.350148
v -0.432538 0.0290592 -0.349591
v -0.234629 0.0808703 -0.454673
v -0.249165 -0.237319 -0.349591
v -0.23465 -0.131679 -0.35089
v -0.327012 0.0808703 -0.4708
v -0.404965 0.0797312 -0.41012
v -0.412792 0.0785922 -0.401533
v -0.402032 0.0528493 -0.402073
v -0.400703 0.0419469 -0.398362
v -0.410703 0.0532724 -0.391799
v -0.423678 0.0569825 -0.376937
v -0.417454 0.0519706 -0.382335
v -0.410576 0.0440297 -0.386907
v -0.423382 0.0342989 -0.364808
v -0.419901 0.0167899 -0.358414
v -0.424585 0.0144466 -0.35084
v -0.421694 0.00657083 -0.349591
v -0.234629 0.0787223 -0.521916
v -0.247139 0.0808703 -0.517395
v -0.234629 -0.251606 -0.35089
v -0.276654 -0.206336 -0.349591
v -0.265705 -0.218313 -0.349929
v -0.257076 -0.226481 -0.350974
v -0.241253 -0.229638 -0.360961
v -0.234629 -0.240801 -0.358347
v -0.288531 0.0782342 -0.498383
v -0.297371 0.077746 -0.492478
v -0.388678 0.0756631 -0.421693
v -0.399627 0.0701305 -0.411368
v -0.394142 0.0410356 -0.403726
v -0.397686 0.0622873 -0.409884
v -0.389226 0.026 -0.400673
v -0.388172 -0.000914432 -0.388223
v -0.40064 0.026 -0.389252
v -0.410154 0.0306213 -0.379737
v -0.400281 0.016562 -0.383837
v -0.398593 0.00692883 -0.379923
v -0.412306 0.00448797 -0.360506
v -0.414289 -0.00420145 -0.352138
v -0.409247 -0.0174146 -0.349659
v -0.397222 -0.0396751 -0.349591
v -0.235199 0.0640447 -0.517159
v -0.244756 0.0732548 -0.516113
v -0.234629 0.0524588 -0.51338
v -0.269882 0.0710093 -0.505046
v -0.276443 0.0779087 -0.504371
v -0.287603 -0.193774 -0.349591
v -0.27138 -0.18925 -0.365111
v -0.264882 -0.206174 -0.358751
v -0.23773 -0.216946 -0.372315
v -0.234629 -0.22723 -0.367676
v -0.276126 0.064598 -0.500373
v -0.289143 0.0662252 -0.494148
v -0.296401 0.0528493 -0.483756
v -0.304333 0.065737 -0.482812
v -0.340092 0.071953 -0.457693
v -0.365957 0.0622873 -0.434227
v -0.364754 0.0342989 -0.42343
v -0.377687 0.0324113 -0.412583
v -0.391758 0.0532724 -0.410744
v -0.386885 0.0440297 -0.410609
v -0.31735 0.0585121 -0.470058
v -0.370028 0.0294497 -0.41707
v -0.341611 0.0220946 -0.435391
v -0.385745 0.0148372 -0.398007
v -0.374248 -0.00254167 -0.398193
v -0.381758 -0.00527542 -0.390973
v -0.373889 -0.0258762 -0.386165
v -0.377117 -0.0372994 -0.377139
v -0.386125 -0.0258762 -0.373934
v -0.390935 -0.00527542 -0.381796
v -0.39815 -0.00254167 -0.374288
v -0.379881 0.00692883 -0.398632
v -0.397918 -0.020604 -0.362243
v -0.401167 -0.0301395 -0.351295
v -0.387961 -0.0357372 -0.364572
v -0.382243 -0.0536042 -0.358886
v -0.391083 -0.050545 -0.349591
v -0.258954 0.0582192 -0.505384
v -0.234629 0.0413611 -0.509348
v -0.272814 0.0440297 -0.494519
v -0.29543 -0.182579 -0.351076
v -0.316042 -0.160611 -0.349591
v -0.304586 -0.173173 -0.350215
v -0.282603 -0.176883 -0.364706
v -0.253658 -0.183295 -0.382656
v -0.240726 -0.181895 -0.393503
v -0.236148 -0.194457 -0.388628
v -0.234967 -0.178738 -0.399829
v -0.234629 -0.160351 -0.4112
v -0.278574 0.0505712 -0.494469
v -0.285493 0.0544766 -0.492158
v -0.292329 0.0426954 -0.482525
v -0.299839 0.0406776 -0.475996
v -0.318172 0.0337456 -0.458907
v -0.358383 0.0299704 -0.426264
v -0.351822 0.0363492 -0.434261
v -0.30524 0.0357308 -0.469755
v -0.366674 0.0411007 -0.424881
v -0.287266 0.0185798 -0.475372
v -0.339164 0.0142839 -0.433518
v -0.364986 0.0105087 -0.411857
v -0.341738 -0.00146769 -0.423751
v -0.335029 -0.00560087 -0.426737
v -0.342645 -0.0211247 -0.412701
v -0.328805 0.000257174 -0.434581
v -0.320366 -0.0294236 -0.42537
v -0.364522 -0.0357372 -0.388004
v -0.369564 -0.0404236 -0.381458
v -0.366737 -0.0504799 -0.377949
v -0.362687 -0.06148 -0.374828
v -0.365598 -0.0728381 -0.365634
v -0.374796 -0.06148 -0.362733
v -0.377919 -0.0504799 -0.366765
v -0.381421 -0.0404236 -0.369599
v -0.386674 -0.0578676 -0.349929
v -0.373805 -0.0799979 -0.349844
v -0.362054 -0.0998502 -0.349625
v -0.234629 0.0174407 -0.499833
v -0.235093 0.0301006 -0.504844
v -0.244249 0.0380741 -0.504169
v -0.269375 0.036219 -0.493085
v -0.350725 -0.116969 -0.349929
v -0.335535 -0.136788 -0.349929
v -0.32832 -0.143851 -0.351025
v -0.310915 -0.157812 -0.355344
v -0.306675 -0.165851 -0.353387
v -0.275515 -0.145868 -0.390247
v -0.243785 -0.172685 -0.397198
v -0.248574 -0.143167 -0.41265
v -0.246654 -0.129108 -0.422941
v -0.234629 -0.139913 -0.422722
v -0.276485 0.0404824 -0.491567
v -0.282941 0.0263905 -0.482373
v -0.289734 0.0293521 -0.478611
v -0.292519 0.0137307 -0.468995
v -0.305451 0.0118105 -0.458165
v -0.283131 0.00279565 -0.470817
v -0.290008 0.00582231 -0.467072
v -0.318383 0.00995548 -0.447335
v -0.288257 -0.0187489 -0.455685
v -0.323426 -0.0180655 -0.429082
v -0.287287 -0.00501506 -0.463614
v -0.288046 -0.0291632 -0.450287
v -0.303784 -0.0378526 -0.433434
v -0.330873 -0.0378201 -0.412684
v -0.338046 -0.0551013 -0.397417
v -0.358847 -0.0536042 -0.382268
v -0.31081 -0.0634978 -0.413528
v -0.340197 -0.0698115 -0.387312
v -0.353088 -0.0713411 -0.376482
v -0.358024 -0.075995 -0.369902
v -0.362961 -0.0806814 -0.363003
v -0.36986 -0.075995 -0.35806
v -0.378636 -0.0690629 -0.351987
v -0.365957 -0.0890128 -0.353016
v -0.354881 -0.108605 -0.351666
v -0.234629 -0.0268851 -0.480298
v -0.237772 -0.00605649 -0.48848
v -0.23811 0.00478088 -0.493085
v -0.243764 0.014707 -0.494924
v -0.264397 0.0175709 -0.487552
v -0.257667 0.0243077 -0.493102
v -0.263279 0.0304261 -0.493271
v -0.270916 0.0108993 -0.482036
v -0.346062 -0.110948 -0.357975
v -0.339987 -0.128262 -0.351902
v -0.282287 -0.141312 -0.387987
v -0.269354 -0.13988 -0.398817
v -0.254502 -0.136561 -0.412279
v -0.257709 -0.116481 -0.422384
v -0.260873 -0.108637 -0.424813
v -0.258869 -0.0944152 -0.435003
v -0.25984 -0.0722523 -0.447351
v -0.24754 -0.106522 -0.435172
v -0.237772 -0.110232 -0.437331
v -0.234629 -0.117489 -0.434767
v -0.276126 0.0293521 -0.487147
v -0.268806 -0.0165359 -0.470699
v -0.279375 -0.00807426 -0.468017
v -0.28081 -0.0263969 -0.457305
v -0.272582 -0.033036 -0.459953
v -0.276316 -0.0414 -0.45248
v -0.291401 -0.0555569 -0.432945
v -0.304333 -0.0572167 -0.422097
v -0.283553 -0.0608617 -0.435931
v -0.267688 -0.0671103 -0.444484
v -0.293552 -0.0702671 -0.42284
v -0.319438 -0.0733263 -0.401162
v -0.337645 -0.076418 -0.385355
v -0.355113 -0.0857258 -0.366309
v -0.339206 -0.0920069 -0.374828
v -0.350851 -0.0966608 -0.363019
v -0.234629 -0.0408793 -0.473685
v -0.252857 -0.035607 -0.468658
v -0.260135 -0.0249975 -0.470632
v -0.241275 -0.0183258 -0.481479
v -0.261443 -0.00289966 -0.480079
v -0.265346 0.00481342 -0.481816
v -0.252625 0.00582231 -0.487518
v -0.334438 -0.110785 -0.367051
v -0.342497 -0.103072 -0.365601
v -0.268722 -0.103788 -0.421828
v -0.263785 -0.0991017 -0.428424
v -0.269755 -0.0816252 -0.434345
v -0.264797 -0.0769387 -0.440907
v -0.260135 -0.0488202 -0.459076
v -0.251739 -0.0607966 -0.4569
v -0.251063 -0.0807465 -0.447014
v -0.243279 -0.0911608 -0.445007
v -0.235958 -0.0974093 -0.444804
v -0.234629 -0.0644416 -0.462197
v -0.276717 -0.0184885 -0.464542
v -0.271802 -0.0560776 -0.447638
v -0.272793 -0.0737819 -0.436656
v -0.329333 -0.0826992 -0.388004
v -0.292582 -0.0924625 -0.410339
v -0.315367 -0.103332 -0.3863
v -0.331379 -0.0970188 -0.377814
v -0.234629 -0.0485924 -0.469957
v -0.328299 -0.10483 -0.375452
v -0.282688 -0.0831548 -0.423515
v -0.24349 -0.0677937 -0.456866
v -0.234629 -0.0561102 -0.466296
v -0.236 -0.0740097 -0.456832
f 1 2 3
f 1 3 4
f 1 4 5
f 1 5 6
f 1 6 7
f 1 7 8
f 1 8 9
f 1 9 2
f 2 9 3
f 3 10 4
f 3 9 10
f 4 10 11
f 4 11 5
f 5 11 12
f 5 12 6
f 6 13 14
f 6 14 15
f 6 15 31
f 6 31 55
f 6 55 92
f 6 92 97
f 6 97 61
f 6 61 35
f 6 35 17
f 6 17 7
f 6 12 13
f 7 16 33
f 7 33 19
f 7 19 8
f 7 17 18
f 7 18 16
f 8 19 9
f 9 20 21
f 9 21 10
f 9 19 20
f 10 21 20
f 10 20 22
f 10 22 11
f 11 22 23
f 11 23 24
f 11 24 25
f 11 25 12
f 12 25 26
f 12 26 13
f 13 26 14
f 14 26 27
f 14 27 28
f 14 28 15
f 15 29 30
f 15 30 31
f 15 28 29
f 16 32 33
f 16 18 34
f 16 34 39
f 16 39 65
f 16 65 104
f 16 104 146
f 16 146 191
f 16 191 226
f 16 226 238
f 16 238 234
f 16 234 208
f 16 208 172
f 16 172 133
f 16 133 94
f 16 94 58
f 16 58 32
f 17 35 36
f 17 36 37
f 17 37 38
f 17 38 39
f 17 39 34
f 17 34 18
f 19 33 40
f 19 40 41
f 19 41 42
f 19 42 20
f 20 42 43
f 20 43 22
f 22 44 23
f 22 43 45
f 22 45 44
f 23 27 24
f 23 44 46
f 23 46 47
f 23 47 48
f 23 48 49
f 23 49 27
f 24 27 26
f 24 26 25
f 27 49 28
f 28 49 48
f 28 48 50
f 28 50 29
f 29 50 30
f 30 50 51
f 30 51 52
f 30 52 31
f 31 52 53
f 31 53 54
f 31 54 55
f 32 56 57
f 32 57 33
f 32 58 56
f 33 57 59
f 33 59 60
f 33 60 40
f 35 61 62
f 35 62 63
f 35 63 36
f 36 64 38
f 36 38 37
f 36 63 64
f 38 64 65
f 38 65 39
f 40 60 66
f 40 66 67
f 40 67 41
f 41 67 68
f 41 68 69
f 41 69 70
f 41 70 42
f 42 70 43
f 43 70 69
f 43 69 71
f 43 71 45
f 44 72 73
f 44 73 46
f 44 45 74
f 44 74 75
f 44 75 72
f 45 71 76
f 45 76 74
f 46 77 78
f 46 78 79
f 46 79 47
f 46 73 72
f 46 72 77
f 47 80 81
f 47 81 82
f 47 82 83
f 47 83 84
f 47 84 85
f 47 85 86
f 47 86 51
f 47 51 50
f 47 50 48
f 47 79 87
f 47 87 80
f 51 86 52
f 52 86 53
f 53 86 88
f 53 88 54
f 54 88 89
f 54 89 55
f 55 89 90
f 55 90 91
f 55 91 92
f 56 66 59
f 56 59 57
f 56 58 93
f 56 93 66
f 58 94 95
f 58 95 93
f 59 66 60
f 61 96 62
f 61 97 98
f 61 98 96
f 62 96 99
f 62 99 100
f 62 100 101
f 62 101 102
f 62 102 63
f 63 102 64
f 64 102 65
f 65 102 103
f 65 103 104
f 66 93 105
f 66 105 67
f 67 105 106
f 67 106 68
f 68 75 76
f 68 76 69
f 68 106 107
f 68 107 108
f 68 108 75
f 69 76 71
f 72 109 110
f 72 110 77
f 72 75 111
f 72 111 112
f 72 112 109
f 74 76 75
f 75 108 113
f 75 113 111
f 77 110 78
f 78 114 115
f 78 115 79
f 78 110 109
f 78 109 114
f 79 115 116
f 79 116 87
f 80 117 118
f 80 118 119
f 80 119 82
f 80 82 81
f 80 87 120
f 80 120 117
f 82 119 121
f 82 121 122
f 82 122 123
f 82 123 83
f 83 123 124
f 83 124 125
f 83 125 126
f 83 126 127
f 83 127 128
f 83 128 129
f 83 129 84
f 84 88 85
f 84 129 90
f 84 90 89
f 84 89 88
f 85 88 86
f 87 116 120
f 90 129 91
f 91 130 92
f 91 129 128
f 91 128 127
f 91 127 130
f 92 130 131
f 92 131 132
f 92 132 97
f 93 95 105
f 94 133 134
f 94 134 135
f 94 135 95
f 95 135 136
f 95 136 105
f 96 98 99
f 97 132 137
f 97 137 138
f 97 138 139
f 97 139 140
f 97 140 141
f 97 141 98
f 98 141 99
f 99 101 100
f 99 141 140
f 99 140 142
f 99 142 143
f 99 143 101
f 101 143 103
f 101 103 102
f 103 143 144
f 103 144 145
f 103 145 104
f 104 145 146
f 105 136 147
f 105 147 148
f 105 148 106
f 106 148 107
f 107 148 149
f 107 149 108
f 108 149 112
f 108 112 113
f 109 112 149
f 109 149 114
f 111 113 112
f 114 150 151
f 114 151 115
f 114 149 148
f 114 148 152
f 114 152 153
f 114 153 150
f 115 151 154
f 115 154 120
f 115 120 116
f 117 120 118
f 118 155 156
f 118 156 119
f 118 120 155
f 119 156 121
f 120 153 152
f 120 152 157
f 120 157 155
f 120 154 151
f 120 151 153
f 121 158 159
f 121 159 160
f 121 160 122
f 121 156 155
f 121 155 158
f 122 160 161
f 122 161 162
f 122 162 124
f 122 124 123
f 124 162 125
f 125 163 164
f 125 164 165
f 125 165 166
f 125 166 126
f 125 162 161
f 125 161 163
f 126 166 167
f 126 167 168
f 126 168 127
f 127 168 169
f 127 169 130
f 130 169 131
f 131 169 168
f 131 168 170
f 131 170 132
f 132 171 137
f 132 170 168
f 132 168 167
f 132 167 171
f 133 172 173
f 133 173 174
f 133 174 175
f 133 175 176
f 133 176 134
f 134 176 177
f 134 177 178
f 134 178 136
f 134 136 135
f 136 178 176
f 136 176 179
f 136 179 147
f 137 180 181
f 137 181 138
f 137 171 167
f 137 167 180
f 138 181 139
f 139 182 142
f 139 142 140
f 139 181 182
f 142 182 144
f 142 144 143
f 144 182 183
f 144 183 184
f 144 184 145
f 145 184 185
f 145 185 186
f 145 186 187
f 145 187 188
f 145 188 189
f 145 189 146
f 146 189 190
f 146 190 191
f 147 179 192
f 147 192 148
f 148 192 179
f 148 179 193
f 148 193 194
f 148 194 152
f 150 153 151
f 152 194 157
f 155 157 194
f 155 194 195
f 155 195 158
f 158 196 197
f 158 197 159
f 158 195 196
f 159 197 198
f 159 198 199
f 159 199 160
f 160 199 161
f 161 199 163
f 163 200 201
f 163 201 202
f 163 202 164
f 163 199 200
f 164 202 203
f 164 203 204
f 164 204 165
f 165 204 166
f 166 205 167
f 166 204 206
f 166 206 205
f 167 205 207
f 167 207 180
f 172 208 209
f 172 209 210
f 172 210 211
f 172 211 173
f 173 211 210
f 173 210 212
f 173 212 174
f 174 212 213
f 174 213 214
f 174 214 175
f 175 214 213
f 175 213 176
f 176 213 179
f 176 178 177
f 179 213 193
f 180 215 181
f 180 207 216
f 180 216 215
f 181 183 182
f 181 215 185
f 181 185 183
f 183 185 184
f 185 215 217
f 185 217 186
f 186 217 218
f 186 218 187
f 187 218 219
f 187 219 220
f 187 220 188
f 188 201 196
f 188 196 193
f 188 193 221
f 188 221 222
f 188 222 223
f 188 223 189
f 188 220 201
f 189 224 190
f 189 223 224
f 190 224 225
f 190 225 191
f 191 225 226
f 193 227 194
f 193 213 212
f 193 212 210
f 193 210 221
f 193 196 227
f 194 227 195
f 195 227 196
f 196 201 228
f 196 228 197
f 197 228 198
f 198 228 200
f 198 200 199
f 200 228 201
f 201 220 229
f 201 229 202
f 202 229 219
f 202 219 230
f 202 230 203
f 203 230 204
f 204 230 206
f 205 206 207
f 206 231 217
f 206 217 232
f 206 232 233
f 206 233 216
f 206 216 207
f 206 230 231
f 208 234 209
f 209 234 222
f 209 222 221
f 209 221 210
f 215 216 235
f 215 235 217
f 216 233 235
f 217 235 232
f 217 231 236
f 217 236 219
f 217 219 218
f 219 236 230
f 219 229 220
f 222 226 237
f 222 237 223
f 222 234 238
f 222 238 226
f 223 237 224
f 224 237 239
f 224 239 225
f 225 239 226
f 226 239 237
f 230 236 231
f 232 235 233
