v -0.240925 0.311629 -0.526324
v -0.240925 0.323105 -0.522774
v -0.240925 0.311629 -0.45265
v -0.266876 0.311629 -0.515563
v -0.25889 0.317734 -0.517126
v -0.247905 0.3302 -0.517439
v -0.240925 0.33417 -0.518763
v -0.280859 0.327582 -0.504746
v -0.255735 0.325564 -0.51582
v -0.240925 0.335555 -0.410525
v -0.383948 0.311629 -0.338397
v -0.276362 0.311629 -0.511626
v -0.283834 0.319752 -0.506052
v -0.276608 0.323445 -0.507873
v -0.273029 0.33189 -0.506365
v -0.241663 0.335569 -0.517899
v -0.240925 0.334838 -0.518488
v -0.265109 0.335569 -0.508186
v -0.27672 0.335569 -0.503367
v -0.276608 0.335426 -0.503477
v -0.287794 0.323445 -0.502686
v -0.28851 0.335569 -0.497388
v -0.334887 0.335569 -0.338415
v -0.240925 0.335569 -0.419612
v -0.243789 0.335569 -0.408336
v -0.469453 0.311629 -0.338397
v -0.338399 0.334622 -0.338397
v -0.287324 0.311629 -0.506862
v -0.289091 0.311629 -0.506015
v -0.291664 0.313853 -0.504102
v -0.240925 0.335569 -0.518175
v -0.295423 0.33177 -0.494739
v -0.288823 0.335569 -0.497204
v -0.288599 0.335353 -0.497425
v -0.338623 0.335569 -0.338397
v -0.465337 0.32311 -0.338397
v -0.457752 0.315812 -0.35188
v -0.462518 0.311682 -0.347429
v -0.463547 0.311629 -0.346104
v -0.298667 0.311629 -0.49989
v -0.299561 0.311629 -0.499264
v -0.297749 0.32311 -0.496523
v -0.29945 0.335353 -0.489993
v -0.299114 0.335569 -0.49014
v -0.316184 0.326914 -0.480906
v -0.329115 0.329201 -0.470071
v -0.342068 0.331186 -0.459236
v -0.45999 0.335569 -0.338397
v -0.461377 0.332583 -0.338397
v -0.459229 0.331186 -0.342057
v -0.434553 0.328547 -0.375758
v -0.460885 0.32311 -0.344209
v -0.446902 0.318383 -0.364812
v -0.422226 0.314982 -0.398531
v -0.426253 0.311629 -0.394723
v -0.453502 0.311629 -0.359202
v -0.303678 0.311629 -0.496119
v -0.305244 0.316637 -0.493267
v -0.318175 0.319084 -0.482433
v -0.299673 0.335569 -0.489717
v -0.335983 0.335569 -0.461866
v -0.336564 0.32311 -0.46676
v -0.381733 0.324022 -0.431735
v -0.375737 0.328547 -0.434549
v -0.388691 0.330601 -0.423733
v -0.383187 0.335569 -0.425646
v -0.459744 0.335569 -0.338728
v -0.460527 0.334414 -0.338397
v -0.454262 0.335004 -0.346233
v -0.423703 0.330601 -0.388708
v -0.440728 0.323466 -0.370294
v -0.414195 0.322166 -0.405466
v -0.420705 0.32311 -0.396544
v -0.425224 0.32311 -0.390676
v -0.436074 0.320717 -0.377744
v -0.411376 0.317621 -0.41139
v -0.419183 0.311629 -0.403903
v -0.394686 0.311629 -0.426271
v -0.398512 0.314982 -0.422243
v -0.351889 0.315812 -0.457746
v -0.364798 0.318383 -0.446911
v -0.390659 0.32311 -0.425241
v -0.396521 0.32311 -0.420734
v -0.39397 0.335494 -0.417405
v -0.405447 0.322166 -0.414222
v -0.401599 0.332555 -0.41288
v -0.393993 0.335569 -0.41735
v -0.425627 0.335569 -0.383208
v -0.437618 0.334857 -0.368013
v -0.417282 0.335569 -0.394079
v -0.412875 0.332555 -0.401622
v -0.409429 0.325452 -0.409458
v -0.403881 0.311629 -0.419208
v -0.405067 0.311629 -0.418288
v -0.41236 0.311629 -0.412383
v -0.418602 0.311629 -0.404638
v -0.405246 0.335569 -0.407858
v -0.39406 0.335569 -0.417294
v -0.407841 0.335569 -0.405264
v -0.406588 0.335569 -0.406607
f 1 2 7
f 1 7 17
f 1 17 31
f 1 31 24
f 1 24 10
f 1 10 3
f 1 3 11
f 1 11 26
f 1 26 39
f 1 39 56
f 1 56 55
f 1 55 77
f 1 77 96
f 1 96 95
f 1 95 94
f 1 94 93
f 1 93 78
f 1 78 57
f 1 57 41
f 1 41 40
f 1 40 29
f 1 29 28
f 1 28 12
f 1 12 4
f 1 4 5
f 1 5 2
f 2 6 7
f 2 5 8
f 2 8 9
f 2 9 6
f 3 10 11
f 4 12 5
f 5 12 13
f 5 13 14
f 5 14 8
f 6 9 8
f 6 8 15
f 6 15 7
f 7 16 17
f 7 15 18
f 7 18 16
f 8 19 20
f 8 20 15
f 8 14 13
f 8 13 21
f 8 21 22
f 8 22 19
f 10 23 11
f 10 24 25
f 10 25 23
f 11 23 27
f 11 27 35
f 11 35 48
f 11 48 68
f 11 68 49
f 11 49 36
f 11 36 26
f 12 28 13
f 13 28 29
f 13 29 30
f 13 30 21
f 15 20 18
f 16 31 17
f 16 18 19
f 16 19 22
f 16 22 33
f 16 33 44
f 16 44 60
f 16 60 61
f 16 61 66
f 16 66 87
f 16 87 98
f 16 98 97
f 16 97 100
f 16 100 99
f 16 99 90
f 16 90 88
f 16 88 67
f 16 67 48
f 16 48 35
f 16 35 23
f 16 23 25
f 16 25 24
f 16 24 31
f 18 20 19
f 21 30 32
f 21 32 33
f 21 33 34
f 21 34 22
f 22 34 33
f 23 35 27
f 26 36 37
f 26 37 38
f 26 38 39
f 29 40 30
f 30 40 41
f 30 41 42
f 30 42 32
f 32 43 44
f 32 44 33
f 32 42 45
f 32 45 46
f 32 46 47
f 32 47 43
f 36 49 50
f 36 50 51
f 36 51 52
f 36 52 53
f 36 53 37
f 37 53 54
f 37 54 55
f 37 55 38
f 38 55 56
f 38 56 39
f 41 57 58
f 41 58 42
f 42 58 59
f 42 59 45
f 43 60 44
f 43 47 61
f 43 61 60
f 45 59 62
f 45 62 63
f 45 63 64
f 45 64 46
f 46 64 65
f 46 65 47
f 47 65 66
f 47 66 61
f 48 67 68
f 49 68 67
f 49 67 50
f 50 67 69
f 50 69 70
f 50 70 51
f 51 71 52
f 51 70 72
f 51 72 73
f 51 73 74
f 51 74 71
f 52 71 74
f 52 74 53
f 53 74 75
f 53 75 76
f 53 76 54
f 54 76 77
f 54 77 55
f 57 78 79
f 57 79 80
f 57 80 58
f 58 80 81
f 58 81 59
f 59 81 82
f 59 82 62
f 62 82 63
f 63 82 64
f 64 82 83
f 64 83 65
f 65 84 66
f 65 83 85
f 65 85 86
f 65 86 84
f 66 84 87
f 67 88 69
f 69 88 89
f 69 89 70
f 70 88 90
f 70 90 91
f 70 91 72
f 70 89 88
f 72 91 76
f 72 76 73
f 73 76 74
f 74 76 75
f 76 91 92
f 76 92 86
f 76 86 85
f 76 85 83
f 76 83 82
f 76 82 81
f 76 81 79
f 76 79 93
f 76 93 94
f 76 94 95
f 76 95 96
f 76 96 77
f 78 93 79
f 79 81 80
f 84 86 87
f 86 92 97
f 86 97 98
f 86 98 87
f 90 99 91
f 91 99 92
f 92 99 100
f 92 100 97
