v -0.338478 0.347344 0.154417
v -0.338478 0.334326 0.339458
v -0.338478 0.421388 0.154417
v -0.158787 0.30287 0.154417
v -0.338478 0.424378 0.339458
v -0.146896 0.299954 0.154417
v -0.135203 0.297363 0.154417
v -0.100557 0.289734 0.154417
v -0.0878376 0.287187 0.154417
v -0.0763771 0.28539 0.154417
v -0.0535886 0.28215 0.154417
v -0.0504419 0.281723 0.154417
v -0.0496801 0.28162 0.154417
v -0.0411344 0.280678 0.154417
v -0.0293758 0.279823 0.154417
v -0.0176503 0.279249 0.154417
v -0.00970083 0.278866 0.154417
v -0.00589171 0.278689 0.154417
v -9.52083e-05 0.278689 0.154417
v -9.52083e-05 0.339701 0.339458
v -0.337319 0.421152 0.154417
v -0.338478 0.421786 0.15862
v -9.52083e-05 0.411566 0.339458
v -0.337948 0.424466 0.339458
v -0.338478 0.424554 0.338461
v -9.52083e-05 0.339892 0.154417
v -0.334835 0.420608 0.154417
v -9.52083e-05 0.409578 0.333716
v -0.338478 0.422139 0.162478
v -0.338478 0.422551 0.167133
v -0.338478 0.426778 0.217378
v -0.338478 0.427647 0.229115
v -0.229107 0.427735 0.339458
v -0.334603 0.424937 0.339458
v -0.334835 0.425673 0.334857
v -0.338478 0.425099 0.334658
v -9.52083e-05 0.403628 0.317777
v -9.52083e-05 0.405704 0.323102
v -0.338478 0.428324 0.24087
v -0.334835 0.428118 0.24087
v -0.240832 0.428383 0.339458
v -0.323076 0.42638 0.339458
v -0.323076 0.427043 0.334857
v -0.334835 0.427043 0.323102
v -0.338478 0.426513 0.323102
v -0.338478 0.428795 0.252607
v -0.334835 0.428663 0.252607
v -0.252591 0.428663 0.334857
v -0.252591 0.428825 0.339458
v -0.311351 0.427485 0.339458
v -0.323076 0.428147 0.323102
v -0.311351 0.427971 0.334857
v -0.334835 0.427971 0.311347
v -0.338478 0.427588 0.311347
v -0.338478 0.429046 0.264344
v -0.334835 0.429016 0.264344
v -0.264349 0.429016 0.334857
v -0.264349 0.429046 0.339458
v -0.299592 0.428265 0.339458
v -0.323076 0.428751 0.311347
v -0.334835 0.428619 0.29961
v -0.299592 0.428619 0.334857
v -0.311351 0.428751 0.323102
v -0.338478 0.428339 0.29961
v -0.338478 0.429046 0.276099
v -0.334835 0.429119 0.276099
v -0.276108 0.429119 0.334857
v -0.276108 0.429031 0.339458
v -0.287833 0.428795 0.339458
v -0.311351 0.429105 0.311347
v -0.323076 0.42906 0.29961
v -0.334835 0.429002 0.287854
v -0.338478 0.42884 0.287854
v -0.287833 0.429002 0.334857
v -0.299592 0.42906 0.323102
f 1 2 5
f 1 5 25
f 1 25 36
f 1 36 45
f 1 45 54
f 1 54 64
f 1 64 73
f 1 73 65
f 1 65 55
f 1 55 46
f 1 46 39
f 1 39 32
f 1 32 31
f 1 31 30
f 1 30 29
f 1 29 22
f 1 22 3
f 1 3 21
f 1 21 27
f 1 27 26
f 1 26 19
f 1 19 18
f 1 18 17
f 1 17 16
f 1 16 15
f 1 15 14
f 1 14 13
f 1 13 12
f 1 12 11
f 1 11 10
f 1 10 9
f 1 9 8
f 1 8 7
f 1 7 6
f 1 6 4
f 1 4 2
f 2 4 6
f 2 6 7
f 2 7 8
f 2 8 9
f 2 9 10
f 2 10 11
f 2 11 12
f 2 12 13
f 2 13 14
f 2 14 15
f 2 15 16
f 2 16 17
f 2 17 18
f 2 18 19
f 2 19 20
f 2 20 23
f 2 23 33
f 2 33 41
f 2 41 49
f 2 49 58
f 2 58 68
f 2 68 69
f 2 69 59
f 2 59 50
f 2 50 42
f 2 42 34
f 2 34 24
f 2 24 5
f 3 22 23
f 3 23 21
f 5 24 25
f 19 26 37
f 19 37 38
f 19 38 28
f 19 28 23
f 19 23 20
f 21 23 28
f 21 28 27
f 22 29 23
f 23 29 30
f 23 30 31
f 23 31 32
f 23 32 33
f 24 34 35
f 24 35 25
f 25 35 36
f 26 27 37
f 27 28 38
f 27 38 37
f 32 39 40
f 32 40 33
f 33 40 39
f 33 39 41
f 34 42 35
f 35 42 43
f 35 43 44
f 35 44 45
f 35 45 36
f 39 46 47
f 39 47 41
f 41 48 49
f 41 47 48
f 42 50 43
f 43 51 44
f 43 50 52
f 43 52 51
f 44 53 54
f 44 54 45
f 44 51 53
f 46 55 56
f 46 56 49
f 46 49 48
f 46 48 47
f 49 56 57
f 49 57 58
f 50 59 52
f 51 60 61
f 51 61 53
f 51 52 62
f 51 62 63
f 51 63 60
f 52 59 62
f 53 61 64
f 53 64 54
f 55 65 66
f 55 66 56
f 56 66 57
f 57 66 67
f 57 67 58
f 58 67 68
f 59 69 62
f 60 63 70
f 60 70 71
f 60 71 72
f 60 72 61
f 61 72 73
f 61 73 64
f 62 69 74
f 62 74 63
f 63 74 75
f 63 75 70
f 65 73 72
f 65 72 66
f 66 72 71
f 66 71 70
f 66 70 67
f 67 75 74
f 67 74 68
f 67 70 75
f 68 74 69
