v -0.246934 -0.543478 -0.00587873
v -0.246934 -0.543478 -0.000104212
v -0.246934 -0.541783 -0.0145813
v -0.243937 -0.547996 -0.00587873
v -0.243937 -0.547996 -0.000104212
v -0.246934 -0.450518 -0.000104212
v -0.246934 -0.540978 -0.018641
v -0.240413 -0.546344 -0.0411324
v -0.241958 -0.546344 -0.0293851
v -0.243867 -0.545596 -0.018641
v -0.240437 -0.548053 -0.0322548
v -0.24183 -0.548053 -0.0216274
v -0.243878 -0.548053 -0.00598372
v -0.24389 -0.548053 -0.00587873
v -0.24389 -0.548053 -0.000104212
v -0.246934 -0.403805 -0.119269
v -0.173344 -0.548053 -0.000104212
v -0.127336 -0.548053 -0.119269
v -0.246934 -0.538846 -0.0293851
v -0.238247 -0.547276 -0.0528564
v -0.246934 -0.534172 -0.0528798
v -0.237639 -0.548053 -0.053533
v -0.246934 -0.499956 -0.119269
v -0.212831 -0.548053 -0.119269
v -0.246934 -0.531743 -0.0618857
v -0.246934 -0.530966 -0.0646154
v -0.236234 -0.548053 -0.0607658
v -0.239301 -0.510942 -0.119269
v -0.246934 -0.515885 -0.0925548
v -0.215629 -0.548053 -0.113331
v -0.223988 -0.532816 -0.119269
v -0.246934 -0.529003 -0.070285
v -0.235192 -0.548053 -0.0646154
v -0.246934 -0.528834 -0.0707516
v -0.235882 -0.515857 -0.119269
v -0.235274 -0.517382 -0.118184
v -0.236632 -0.519345 -0.111616
v -0.246934 -0.521745 -0.0827206
v -0.223309 -0.548053 -0.0948179
v -0.217432 -0.546443 -0.11178
v -0.221928 -0.538634 -0.114335
v -0.22496 -0.531461 -0.119269
v -0.234372 -0.548053 -0.0671119
v -0.246864 -0.528905 -0.0708216
v -0.246934 -0.528749 -0.0709382
v -0.234033 -0.518511 -0.119269
v -0.232534 -0.525219 -0.111616
v -0.246934 -0.524979 -0.0772844
v -0.225627 -0.548053 -0.0892184
v -0.231972 -0.546231 -0.0770277
v -0.235789 -0.529851 -0.0959378
v -0.234162 -0.527549 -0.103765
v -0.236245 -0.542249 -0.0735513
v -0.232722 -0.548053 -0.0714749
v -0.229912 -0.548053 -0.0788592
v -0.230673 -0.548053 -0.0768877
f 1 2 6
f 1 6 16
f 1 16 23
f 1 23 29
f 1 29 38
f 1 38 48
f 1 48 45
f 1 45 34
f 1 34 32
f 1 32 26
f 1 26 25
f 1 25 21
f 1 21 19
f 1 19 7
f 1 7 3
f 1 3 4
f 1 4 5
f 1 5 2
f 2 5 15
f 2 15 17
f 2 17 6
f 3 7 8
f 3 8 9
f 3 9 10
f 3 10 4
f 4 10 9
f 4 9 11
f 4 11 12
f 4 12 13
f 4 13 14
f 4 14 15
f 4 15 5
f 6 17 18
f 6 18 16
f 7 19 8
f 8 20 9
f 8 19 21
f 8 21 20
f 9 20 22
f 9 22 11
f 11 22 27
f 11 27 33
f 11 33 43
f 11 43 54
f 11 54 56
f 11 56 55
f 11 55 49
f 11 49 39
f 11 39 30
f 11 30 24
f 11 24 18
f 11 18 17
f 11 17 15
f 11 15 14
f 11 14 13
f 11 13 12
f 16 18 24
f 16 24 31
f 16 31 42
f 16 42 46
f 16 46 35
f 16 35 28
f 16 28 23
f 20 21 22
f 21 25 22
f 22 25 26
f 22 26 27
f 23 28 29
f 24 30 31
f 26 32 27
f 27 32 34
f 27 34 33
f 28 35 36
f 28 36 37
f 28 37 29
f 29 37 38
f 30 39 40
f 30 40 41
f 30 41 42
f 30 42 31
f 33 34 44
f 33 44 43
f 34 45 44
f 35 46 36
f 36 46 47
f 36 47 37
f 37 47 48
f 37 48 38
f 39 49 50
f 39 50 40
f 40 50 45
f 40 45 41
f 41 45 51
f 41 51 42
f 42 51 52
f 42 52 47
f 42 47 46
f 43 53 54
f 43 44 45
f 43 45 53
f 45 48 47
f 45 47 52
f 45 52 51
f 45 50 53
f 49 55 50
f 50 55 56
f 50 56 53
f 53 56 54
