v -0.177757 0.217337 0.563729
v -0.177757 0.229111 0.563623
v -0.182509 0.229111 0.561676
v -0.252627 0.229111 0.532624
v -0.234456 0.217337 0.540232
v -0.177757 0.207754 0.563499
v -0.177757 0.23491 0.563481
v -0.286216 0.229111 0.518699
v -0.252627 0.240841 0.53227
v -0.265732 0.240841 0.526838
v -0.286294 0.217337 0.518734
v -0.285964 0.205585 0.518593
v -0.265905 0.205585 0.526909
v -0.252627 0.205585 0.532411
v -0.228242 0.205585 0.542514
v -0.18114 0.20512 0.562013
v -0.177757 0.20512 0.563393
v -0.177757 0.237743 0.563393
v -0.291659 0.240841 0.516063
v -0.292068 0.229111 0.516239
v -0.292178 0.217337 0.516275
v -0.285775 0.240841 0.518522
v -0.177757 0.243099 0.56318
v -0.181045 0.240642 0.561924
v -0.259172 0.250447 0.528996
v -0.291832 0.205585 0.516133
v -0.28524 0.193899 0.51831
v -0.252627 0.193899 0.531827
v -0.177757 0.198967 0.56311
v -0.177757 0.202265 0.563269
v -0.299588 0.240841 0.511232
v -0.28491 0.252594 0.518168
v -0.290794 0.252594 0.515691
v -0.299588 0.252594 0.510436
v -0.299588 0.229111 0.511621
v -0.299588 0.217337 0.511692
v -0.299588 0.205585 0.511391
v -0.177757 0.252594 0.562561
v -0.182131 0.252594 0.560756
v -0.240891 0.252594 0.536428
v -0.299588 0.193899 0.510737
v -0.291093 0.193899 0.515815
v -0.284202 0.182147 0.517885
v -0.258731 0.186684 0.52882
v -0.182131 0.193899 0.561022
v -0.177757 0.193899 0.562826
v -0.30629 0.252594 0.505836
v -0.306825 0.240841 0.506243
v -0.307108 0.229111 0.506455
v -0.253791 0.253634 0.530996
v -0.258432 0.258259 0.528678
v -0.283525 0.264324 0.517602
v -0.289409 0.264324 0.515089
v -0.298392 0.276098 0.508419
v -0.300548 0.264235 0.50856
v -0.305787 0.260229 0.505446
v -0.307155 0.217337 0.50649
v -0.306935 0.205585 0.506331
v -0.177757 0.264324 0.561411
v -0.200396 0.260738 0.552458
v -0.306495 0.193899 0.505977
v -0.30596 0.184161 0.505588
v -0.300768 0.181018 0.508879
v -0.290086 0.182147 0.515372
v -0.282786 0.170373 0.517283
v -0.25796 0.178849 0.528483
v -0.206437 0.182147 0.550105
v -0.182131 0.182147 0.560172
v -0.177757 0.182147 0.561977
v -0.312174 0.252594 0.501324
v -0.32037 0.240841 0.495874
v -0.334168 0.229111 0.4857
v -0.338478 0.220568 0.482463
v -0.313039 0.217337 0.501996
v -0.25763 0.264324 0.528342
v -0.282487 0.271649 0.51716
v -0.286971 0.275788 0.514612
v -0.296929 0.28785 0.50741
v -0.304276 0.276098 0.504279
v -0.305094 0.268064 0.504916
v -0.324838 0.264324 0.490283
v -0.338478 0.264235 0.479826
v -0.338478 0.262907 0.479985
v -0.338478 0.253921 0.480994
v -0.338478 0.252594 0.481136
v -0.33401 0.205585 0.485577
v -0.312378 0.193899 0.501483
v -0.182131 0.264324 0.559606
v -0.177757 0.269458 0.560756
v -0.199295 0.268595 0.552016
v -0.19478 0.264545 0.554351
v -0.338478 0.193899 0.481454
v -0.338478 0.182147 0.480463
v -0.305472 0.176326 0.505199
v -0.299085 0.170373 0.508897
v -0.298015 0.15862 0.508154
v -0.28867 0.170373 0.514771
v -0.281999 0.164441 0.516965
v -0.256906 0.170373 0.528041
v -0.199877 0.175773 0.552246
v -0.177757 0.170373 0.560809
v -0.338478 0.243232 0.481808
v -0.3339 0.240841 0.485488
v -0.338478 0.232099 0.482286
v -0.338478 0.229111 0.482392
v -0.338478 0.217337 0.48248
v -0.338478 0.208506 0.482233
v -0.224435 0.273575 0.54094
v -0.255805 0.276098 0.527581
v -0.281103 0.279484 0.516593
v -0.287852 0.28785 0.512205
v -0.302797 0.28785 0.503164
v -0.295104 0.299602 0.506136
v -0.317177 0.281742 0.493415
v -0.338478 0.276098 0.478039
v -0.318042 0.273907 0.494087
v -0.338478 0.205585 0.482144
v -0.338478 0.195935 0.481578
v -0.177757 0.276098 0.559889
v -0.182131 0.276098 0.558085
v -0.338478 0.177986 0.479985
v -0.338478 0.170373 0.479101
v -0.304969 0.170373 0.504809
v -0.303899 0.15862 0.503996
v -0.293956 0.116614 0.505358
v -0.286672 0.159793 0.514329
v -0.182131 0.170373 0.559005
v -0.280804 0.156606 0.516469
v -0.222752 0.154415 0.54025
v -0.19747 0.15862 0.551255
v -0.177757 0.15862 0.559394
v -0.338478 0.240841 0.481967
v -0.223051 0.28141 0.540356
v -0.279388 0.28785 0.515868
v -0.287852 0.299602 0.509728
v -0.300957 0.299602 0.501748
v -0.329039 0.293892 0.481755
v -0.310475 0.28785 0.49729
v -0.293956 0.305976 0.505358
v -0.323108 0.28785 0.487594
v -0.338478 0.28785 0.475792
v -0.177757 0.287673 0.557996
v -0.338478 0.15862 0.477473
v -0.336842 0.15862 0.478729
v -0.317727 0.16183 0.493839
v -0.338478 0.120465 0.471723
v -0.338478 0.111634 0.470254
v -0.312709 0.111634 0.49
v -0.29855 0.112276 0.50097
v -0.300249 0.100302 0.497024
v -0.292587 0.108779 0.504597
v -0.28834 0.112276 0.507216
v -0.182131 0.15862 0.557589
v -0.211314 0.118406 0.540373
v -0.276084 0.111634 0.512453
v -0.177757 0.112276 0.553272
v -0.189856 0.28785 0.552971
v -0.248159 0.285216 0.52928
v -0.273504 0.28785 0.51831
v -0.246444 0.293051 0.528572
v -0.271537 0.296105 0.517496
v -0.275706 0.299846 0.514912
v -0.275942 0.306972 0.512984
v -0.287789 0.306972 0.507853
v -0.338478 0.298363 0.47335
v -0.338478 0.303055 0.472076
v -0.292619 0.306972 0.505694
v -0.293673 0.306972 0.505199
v -0.294963 0.306972 0.504279
v -0.338463 0.30695 0.470926
v -0.177757 0.29221 0.557076
v -0.188377 0.294401 0.552352
v -0.338478 0.102648 0.468272
v -0.30585 0.104507 0.493751
v -0.332201 0.0998818 0.472466
v -0.304607 0.0966726 0.492796
v -0.297102 0.0881296 0.496051
v -0.290652 0.0998818 0.503571
v -0.284768 0.0998818 0.50649
v -0.236455 0.114024 0.529297
v -0.178198 0.111634 0.553007
v -0.276084 0.0998818 0.510206
v -0.259911 0.102914 0.517549
v -0.234818 0.106189 0.528625
v -0.252627 0.111634 0.522184
v -0.177757 0.111634 0.553184
v -0.252297 0.288625 0.526962
v -0.252627 0.299602 0.524538
v -0.269351 0.30394 0.516593
v -0.268375 0.306972 0.516186
v -0.338478 0.306972 0.45187
v -0.177757 0.299115 0.555661
v -0.206689 0.300576 0.543346
v -0.338478 0.0999261 0.467653
v -0.317554 0.0931758 0.481967
v -0.330502 0.0902986 0.471156
v -0.328882 0.0824638 0.469918
v -0.295561 0.0808703 0.494866
v -0.293594 0.0808703 0.496087
v -0.287254 0.0883067 0.502209
v -0.282943 0.0923569 0.505641
v -0.177757 0.10962 0.55283
v -0.25796 0.0950791 0.516717
v -0.240891 0.0998818 0.524803
v -0.177757 0.103799 0.551768
v -0.211314 0.305113 0.540373
v -0.2371 0.306972 0.529173
v -0.337723 0.306972 0.38644
v -0.338463 0.30695 0.386086
v -0.338478 0.0808703 0.382972
v -0.177757 0.306972 0.553679
v -0.179016 0.306972 0.553201
v -0.180369 0.306972 0.552653
v -0.18619 0.302214 0.55145
v -0.338478 0.0990186 0.467405
v -0.338478 0.0875321 0.464167
v -0.338478 0.0831942 0.462752
v -0.338478 0.0808703 0.461991
v -0.32852 0.0808703 0.469652
v -0.288151 0.0808703 0.499378
v -0.283872 0.0808703 0.501642
v -0.280473 0.0845221 0.504579
v -0.276383 0.0883067 0.507304
v -0.199877 0.0938176 0.540497
v -0.177757 0.0985981 0.550671
v -0.207303 0.0998818 0.53871
v -0.20897 0.306972 0.540833
v -0.180589 0.306972 0.47949
v -0.177757 0.0808703 0.478234
v -0.177757 0.306972 0.481525
v -0.278806 0.0808703 0.504208
v -0.222421 0.083504 0.528359
v -0.229013 0.0877091 0.526785
v -0.255758 0.0881296 0.515815
v -0.270861 0.0808703 0.507517
v -0.247561 0.0811359 0.517283
v -0.182131 0.0881296 0.546301
v -0.177757 0.0877312 0.547999
v -0.177757 0.0933528 0.549415
v -0.177757 0.0808703 0.546053
v -0.197313 0.0859828 0.539436
v -0.188864 0.0808703 0.541506
v -0.247152 0.0808703 0.517372
f 1 2 3
f 1 3 4
f 1 4 5
f 1 5 6
f 1 6 17
f 1 17 30
f 1 30 29
f 1 29 46
f 1 46 69
f 1 69 101
f 1 101 131
f 1 131 156
f 1 156 186
f 1 186 202
f 1 202 205
f 1 205 225
f 1 225 239
f 1 239 238
f 1 238 240
f 1 240 229
f 1 229 230
f 1 230 211
f 1 211 192
f 1 192 171
f 1 171 142
f 1 142 119
f 1 119 89
f 1 89 59
f 1 59 38
f 1 38 23
f 1 23 18
f 1 18 7
f 1 7 2
f 2 7 3
f 3 7 4
f 4 8 5
f 4 7 9
f 4 9 10
f 4 10 8
f 5 11 12
f 5 12 13
f 5 13 6
f 5 8 11
f 6 13 14
f 6 14 15
f 6 15 16
f 6 16 17
f 7 18 9
f 8 19 20
f 8 20 21
f 8 21 11
f 8 10 22
f 8 22 19
f 9 23 10
f 9 18 24
f 9 24 23
f 10 23 25
f 10 25 22
f 11 21 12
f 12 26 27
f 12 27 13
f 12 21 26
f 13 27 28
f 13 28 29
f 13 29 14
f 14 29 16
f 14 16 15
f 16 29 30
f 16 30 17
f 18 23 24
f 19 31 20
f 19 22 32
f 19 32 33
f 19 33 34
f 19 34 31
f 20 31 35
f 20 35 21
f 21 35 36
f 21 36 37
f 21 37 26
f 22 25 32
f 23 38 39
f 23 39 40
f 23 40 25
f 25 40 32
f 26 37 41
f 26 41 42
f 26 42 27
f 27 42 43
f 27 43 44
f 27 44 28
f 28 44 45
f 28 45 29
f 29 45 46
f 31 34 47
f 31 47 48
f 31 48 49
f 31 49 35
f 32 40 50
f 32 50 51
f 32 51 52
f 32 52 33
f 33 52 53
f 33 53 54
f 33 54 55
f 33 55 34
f 34 55 56
f 34 56 47
f 35 49 36
f 36 49 57
f 36 57 37
f 37 58 41
f 37 57 58
f 38 59 60
f 38 60 39
f 39 60 51
f 39 51 40
f 40 51 50
f 41 58 61
f 41 61 62
f 41 62 63
f 41 63 64
f 41 64 42
f 42 64 43
f 43 64 97
f 43 97 65
f 43 65 66
f 43 66 44
f 44 66 67
f 44 67 68
f 44 68 45
f 45 68 69
f 45 69 46
f 47 56 70
f 47 70 71
f 47 71 48
f 48 71 49
f 49 71 72
f 49 72 73
f 49 73 74
f 49 74 57
f 51 60 75
f 51 75 52
f 52 75 76
f 52 76 53
f 53 76 77
f 53 77 78
f 53 78 54
f 54 78 79
f 54 79 80
f 54 80 55
f 55 80 56
f 56 80 81
f 56 81 82
f 56 82 83
f 56 83 84
f 56 84 85
f 56 85 70
f 57 74 58
f 58 86 87
f 58 87 61
f 58 74 86
f 59 88 60
f 59 89 90
f 59 90 88
f 60 88 91
f 60 91 75
f 61 87 62
f 62 87 92
f 62 92 93
f 62 93 94
f 62 94 63
f 63 94 95
f 63 95 64
f 64 95 96
f 64 96 97
f 65 97 98
f 65 98 99
f 65 99 66
f 66 99 100
f 66 100 68
f 66 68 67
f 68 100 69
f 69 100 101
f 70 85 102
f 70 102 71
f 71 102 103
f 71 103 104
f 71 104 105
f 71 105 72
f 72 105 73
f 73 105 104
f 73 104 132
f 73 132 102
f 73 102 85
f 73 85 84
f 73 84 83
f 73 83 82
f 73 82 115
f 73 115 141
f 73 141 165
f 73 165 166
f 73 166 191
f 73 191 210
f 73 210 218
f 73 218 217
f 73 217 216
f 73 216 215
f 73 215 194
f 73 194 173
f 73 173 147
f 73 147 146
f 73 146 143
f 73 143 122
f 73 122 121
f 73 121 93
f 73 93 92
f 73 92 118
f 73 118 117
f 73 117 107
f 73 107 106
f 73 106 74
f 74 106 107
f 74 107 86
f 75 91 90
f 75 90 76
f 76 90 108
f 76 108 109
f 76 109 110
f 76 110 77
f 77 110 111
f 77 111 78
f 78 112 79
f 78 111 113
f 78 113 112
f 79 112 114
f 79 114 115
f 79 115 116
f 79 116 80
f 80 116 82
f 80 82 81
f 82 116 115
f 86 107 117
f 86 117 118
f 86 118 87
f 87 118 92
f 88 90 91
f 89 119 90
f 90 119 120
f 90 120 108
f 93 121 94
f 94 121 122
f 94 122 123
f 94 123 95
f 95 123 96
f 96 124 125
f 96 125 97
f 96 123 124
f 97 125 126
f 97 126 98
f 98 127 99
f 98 126 128
f 98 128 129
f 98 129 130
f 98 130 127
f 99 127 100
f 100 127 101
f 101 127 153
f 101 153 131
f 102 132 103
f 103 132 104
f 108 120 109
f 109 120 133
f 109 133 110
f 110 133 134
f 110 134 111
f 111 134 135
f 111 135 113
f 112 113 136
f 112 136 137
f 112 137 138
f 112 138 114
f 113 135 139
f 113 139 136
f 114 138 140
f 114 140 141
f 114 141 115
f 119 133 120
f 119 142 133
f 122 143 144
f 122 144 145
f 122 145 123
f 123 145 124
f 124 144 125
f 124 145 144
f 125 128 126
f 125 144 143
f 125 143 146
f 125 146 147
f 125 147 148
f 125 148 149
f 125 149 150
f 125 150 151
f 125 151 152
f 125 152 128
f 127 130 153
f 128 154 129
f 128 152 155
f 128 155 154
f 129 154 130
f 130 154 153
f 131 153 154
f 131 154 156
f 133 142 157
f 133 157 158
f 133 158 159
f 133 159 134
f 134 159 160
f 134 160 161
f 134 161 162
f 134 162 135
f 135 162 163
f 135 163 164
f 135 164 139
f 136 165 137
f 136 139 166
f 136 166 165
f 137 141 140
f 137 140 138
f 137 165 141
f 139 164 167
f 139 167 168
f 139 168 169
f 139 169 170
f 139 170 166
f 142 171 172
f 142 172 157
f 147 173 174
f 147 174 148
f 148 174 149
f 149 174 150
f 150 174 175
f 150 175 176
f 150 176 177
f 150 177 151
f 151 177 178
f 151 178 179
f 151 179 152
f 152 179 155
f 154 155 180
f 154 180 181
f 154 181 156
f 155 179 182
f 155 182 183
f 155 183 184
f 155 184 185
f 155 185 180
f 156 181 186
f 157 172 160
f 157 160 187
f 157 187 158
f 158 187 159
f 159 187 160
f 160 172 161
f 161 188 162
f 161 172 188
f 162 189 163
f 162 188 189
f 163 190 207
f 163 207 227
f 163 227 213
f 163 213 212
f 163 212 211
f 163 211 230
f 163 230 228
f 163 228 208
f 163 208 191
f 163 191 169
f 163 169 168
f 163 168 167
f 163 167 164
f 163 189 190
f 166 170 191
f 169 191 170
f 171 192 172
f 172 192 193
f 172 193 188
f 173 194 175
f 173 175 174
f 175 194 195
f 175 195 176
f 176 195 177
f 177 195 196
f 177 196 197
f 177 197 198
f 177 198 178
f 178 198 199
f 178 199 200
f 178 200 201
f 178 201 179
f 179 201 182
f 180 185 184
f 180 184 181
f 181 184 202
f 181 202 186
f 182 201 203
f 182 203 204
f 182 204 183
f 183 204 184
f 184 204 205
f 184 205 202
f 188 193 206
f 188 206 189
f 189 206 207
f 189 207 190
f 191 208 209
f 191 209 210
f 192 211 212
f 192 212 213
f 192 213 214
f 192 214 193
f 193 214 206
f 194 215 195
f 195 215 196
f 196 216 197
f 196 215 216
f 197 217 218
f 197 218 219
f 197 219 198
f 197 216 217
f 198 219 218
f 198 218 210
f 198 210 229
f 198 229 240
f 198 240 242
f 198 242 243
f 198 243 235
f 198 235 231
f 198 231 221
f 198 221 220
f 198 220 199
f 199 220 200
f 200 220 221
f 200 221 222
f 200 222 201
f 201 222 223
f 201 223 224
f 201 224 203
f 203 224 225
f 203 225 226
f 203 226 204
f 204 226 205
f 205 226 225
f 206 214 213
f 206 213 227
f 206 227 207
f 208 228 210
f 208 210 209
f 210 228 229
f 221 231 222
f 222 232 233
f 222 233 234
f 222 234 223
f 222 231 235
f 222 235 236
f 222 236 232
f 223 234 224
f 224 234 233
f 224 233 237
f 224 237 238
f 224 238 239
f 224 239 225
f 228 230 229
f 232 241 233
f 232 236 242
f 232 242 241
f 233 241 237
f 235 243 236
f 236 243 242
f 237 241 238
f 238 241 242
f 238 242 240
