v 0.199895 0.342661 -0.287032
v 0.199895 0.32194 -0.193873
v 0.199895 0.415373 -0.287032
v 0.338397 0.344509 -0.287032
v 0.199895 0.319618 -0.182509
v 0.205549 0.416409 -0.287032
v 0.199895 0.412781 -0.276524
v 0.310994 0.414494 -0.154665
v 0.323102 0.417795 -0.154665
v 0.334858 0.420635 -0.154665
v 0.338397 0.421401 -0.154665
v 0.338397 0.428849 -0.287032
v 0.338397 0.347349 -0.154665
v 0.199895 0.314007 -0.154665
v 0.217372 0.418437 -0.287032
v 0.199895 0.411215 -0.270344
v 0.30271 0.412071 -0.154665
v 0.338397 0.421773 -0.158617
v 0.252191 0.423497 -0.287032
v 0.242415 0.422235 -0.287032
v 0.240517 0.421964 -0.287032
v 0.229114 0.420297 -0.287032
v 0.338397 0.429052 -0.27611
v 0.334858 0.429018 -0.287032
v 0.199895 0.375721 -0.154665
v 0.199895 0.409423 -0.264034
v 0.297178 0.410347 -0.154665
v 0.299198 0.410989 -0.154665
v 0.338397 0.422111 -0.162387
v 0.264448 0.424905 -0.287032
v 0.253506 0.423654 -0.287032
v 0.338397 0.429041 -0.264358
v 0.334858 0.429108 -0.27611
v 0.323102 0.429097 -0.287032
v 0.201454 0.376296 -0.154665
v 0.199895 0.402448 -0.240854
v 0.199895 0.406077 -0.252606
v 0.28785 0.40726 -0.154665
v 0.338397 0.422539 -0.167194
v 0.334858 0.426415 -0.217376
v 0.338397 0.426776 -0.217376
v 0.276108 0.426088 -0.287032
v 0.338397 0.428793 -0.252606
v 0.334858 0.429018 -0.264358
v 0.311347 0.428793 -0.287032
v 0.323102 0.428928 -0.27611
v 0.262102 0.398302 -0.154665
v 0.27585 0.403124 -0.154665
v 0.338397 0.427643 -0.229102
v 0.334858 0.427362 -0.229102
v 0.28785 0.42717 -0.287032
v 0.338397 0.428319 -0.240854
v 0.334858 0.428669 -0.252606
v 0.311347 0.428364 -0.27611
v 0.323102 0.428522 -0.264358
v 0.299605 0.428128 -0.287032
v 0.334858 0.428117 -0.240854
v 0.323102 0.427902 -0.252606
v 0.311347 0.427677 -0.264358
f 1 2 5
f 1 5 14
f 1 14 25
f 1 25 36
f 1 36 37
f 1 37 26
f 1 26 16
f 1 16 7
f 1 7 3
f 1 3 6
f 1 6 15
f 1 15 22
f 1 22 21
f 1 21 20
f 1 20 19
f 1 19 31
f 1 31 30
f 1 30 42
f 1 42 51
f 1 51 56
f 1 56 45
f 1 45 34
f 1 34 24
f 1 24 12
f 1 12 4
f 1 4 2
f 2 4 5
f 3 7 8
f 3 8 9
f 3 9 10
f 3 10 11
f 3 11 6
f 4 12 23
f 4 23 32
f 4 32 43
f 4 43 52
f 4 52 49
f 4 49 41
f 4 41 39
f 4 39 29
f 4 29 18
f 4 18 11
f 4 11 13
f 4 13 14
f 4 14 5
f 6 11 15
f 7 16 17
f 7 17 8
f 8 17 28
f 8 28 27
f 8 27 38
f 8 38 48
f 8 48 47
f 8 47 35
f 8 35 25
f 8 25 14
f 8 14 13
f 8 13 11
f 8 11 10
f 8 10 9
f 11 18 19
f 11 19 20
f 11 20 21
f 11 21 22
f 11 22 15
f 12 24 23
f 16 26 27
f 16 27 28
f 16 28 17
f 18 29 30
f 18 30 31
f 18 31 19
f 23 24 33
f 23 33 32
f 24 34 33
f 25 35 36
f 26 37 38
f 26 38 27
f 29 39 30
f 30 39 40
f 30 40 41
f 30 41 42
f 32 33 44
f 32 44 43
f 33 34 44
f 34 45 46
f 34 46 44
f 35 47 36
f 36 47 37
f 37 47 48
f 37 48 38
f 39 41 40
f 41 49 50
f 41 50 42
f 42 50 51
f 43 44 53
f 43 53 52
f 44 46 53
f 45 54 55
f 45 55 53
f 45 53 46
f 45 56 54
f 49 52 57
f 49 57 50
f 50 57 58
f 50 58 59
f 50 59 51
f 51 59 56
f 52 53 57
f 53 55 57
f 54 57 55
f 54 56 57
f 56 59 58
f 56 58 57
