v 0.181191 -0.536545 0.0535606
v 0.124959 -0.536545 0.141413
v 0.124959 -0.475105 0.194198
v 0.181191 -0.419388 0.194198
v 0.181191 -0.536545 0.174538
v 0.124959 -0.536545 0.194198
v 0.181191 -0.514593 0.194198
v 0.181191 -0.532909 0.17809
v 0.18037 -0.536545 0.175515
v 0.149642 -0.536545 0.194198
v 0.171425 -0.523872 0.194198
v 0.175625 -0.528138 0.187507
v 0.181191 -0.51683 0.192381
v 0.181191 -0.529629 0.181188
v 0.178147 -0.536545 0.178145
v 0.1591 -0.535387 0.194198
v 0.157872 -0.536545 0.194184
v 0.181191 -0.519605 0.190109
v 0.179732 -0.520305 0.190687
v 0.165221 -0.536545 0.18854
v 0.171045 -0.536545 0.184065
f 1 2 3
f 1 3 4
f 1 4 7
f 1 7 13
f 1 13 18
f 1 18 14
f 1 14 8
f 1 8 5
f 1 5 9
f 1 9 15
f 1 15 21
f 1 21 20
f 1 20 17
f 1 17 10
f 1 10 6
f 1 6 2
f 2 6 3
f 3 6 10
f 3 10 16
f 3 16 11
f 3 11 7
f 3 7 4
f 5 8 9
f 7 11 12
f 7 12 13
f 8 14 15
f 8 15 9
f 10 17 16
f 11 16 12
f 12 18 19
f 12 19 13
f 12 16 17
f 12 17 20
f 12 20 21
f 12 21 15
f 12 15 18
f 13 19 18
f 14 18 15
