v -0.380732 -0.215437 -9.25471e-05
v -0.24696 -0.335148 -0.192866
v -0.380732 -0.122232 -0.192866
v -0.380732 -0.325028 -0.0176414
v -0.380025 -0.328838 -0.00299848
v -0.352616 -0.376198 -0.000658641
v -0.264325 -0.517008 -9.25471e-05
v -0.24696 -0.450475 -9.25471e-05
v -0.24696 -0.436627 -0.192866
v -0.380732 -0.243705 -0.192866
v -0.377498 -0.319948 -0.0646459
v -0.375481 -0.328224 -0.0433608
v -0.363826 -0.340064 -0.0793454
v -0.36435 -0.340924 -0.0715145
v -0.364795 -0.341703 -0.0646459
v -0.373765 -0.336909 -0.0176414
v -0.374525 -0.33822 -0.00588556
v -0.380732 -0.313598 -0.0681745
v -0.365175 -0.354075 -0.00588556
v -0.355235 -0.370913 -0.00545155
v -0.349316 -0.380787 -0.00545155
v -0.342912 -0.391316 -0.00588556
v -0.33935 -0.397215 -0.00588556
v -0.334426 -0.405327 -0.00588556
v -0.329921 -0.412743 -0.00588556
v -0.326333 -0.418601 -0.00588556
v -0.320453 -0.428188 -0.00588556
v -0.312805 -0.440601 -0.00588556
v -0.294222 -0.470673 -0.00192291
v -0.271108 -0.50652 -0.00299848
v -0.257004 -0.528275 -0.00299848
v -0.248741 -0.54077 -0.00120586
v -0.24696 -0.538353 -0.0317748
v -0.24696 -0.443961 -0.185488
v -0.27027 -0.422985 -0.176242
v -0.25944 -0.424132 -0.189186
v -0.252657 -0.429253 -0.192866
v -0.375455 -0.252554 -0.192866
v -0.375284 -0.257389 -0.186356
v -0.380732 -0.256405 -0.174656
v -0.373058 -0.322242 -0.088101
v -0.363249 -0.33904 -0.0881387
v -0.35881 -0.346578 -0.0881387
v -0.361049 -0.345554 -0.0758168
v -0.367388 -0.347602 -0.0182264
v -0.380732 -0.30905 -0.088101
v -0.355052 -0.368537 -0.0176414
v -0.351568 -0.374396 -0.0176414
v -0.347129 -0.381811 -0.0176414
v -0.352118 -0.375338 -0.00905567
v -0.342152 -0.390087 -0.0176414
v -0.328389 -0.410244 -0.0293784
v -0.326176 -0.416266 -0.0182075
v -0.311286 -0.440601 -0.0176414
v -0.307331 -0.44941 -0.00588556
v -0.303677 -0.455268 -0.00588556
v -0.280773 -0.491526 -0.00588556
v -0.25686 -0.526144 -0.0176414
v -0.248689 -0.538312 -0.0186415
v -0.249435 -0.53274 -0.0411342
v -0.247811 -0.532863 -0.0528901
v -0.247117 -0.531061 -0.0632684
v -0.24696 -0.528807 -0.0707597
v -0.270244 -0.434702 -0.164467
v -0.24696 -0.449778 -0.1796
v -0.272536 -0.425894 -0.170354
v -0.278586 -0.417536 -0.170826
v -0.270977 -0.405327 -0.192866
v -0.261797 -0.417413 -0.192809
v -0.366929 -0.266771 -0.192866
v -0.376908 -0.260093 -0.178525
v -0.380732 -0.265009 -0.162146
v -0.37569 -0.316794 -0.0919693
v -0.353166 -0.353625 -0.0958753
v -0.353899 -0.354854 -0.0881387
v -0.341825 -0.377796 -0.0763829
v -0.351961 -0.363334 -0.0646459
v -0.380732 -0.30438 -0.102102
v -0.339062 -0.384966 -0.0646459
v -0.328638 -0.398895 -0.0797228
v -0.325822 -0.404344 -0.0760244
v -0.319418 -0.414791 -0.0763829
v -0.316603 -0.421961 -0.0646459
v -0.324211 -0.417085 -0.0293784
v -0.312373 -0.428843 -0.0646459
v -0.303481 -0.443182 -0.0646459
v -0.293633 -0.457972 -0.0695898
v -0.306571 -0.448181 -0.0176414
v -0.302918 -0.454039 -0.0176414
v -0.296265 -0.462192 -0.0293784
v -0.293528 -0.469607 -0.0146222
v -0.29104 -0.475097 -0.00696113
v -0.280013 -0.490297 -0.0176414
v -0.271043 -0.49468 -0.0646459
v -0.273361 -0.498286 -0.0293784
v -0.270572 -0.505701 -0.0141694
v -0.260671 -0.520286 -0.0176414
v -0.259126 -0.51791 -0.0411342
v -0.258144 -0.516353 -0.0560036
v -0.267206 -0.500539 -0.0646459
v -0.261326 -0.50947 -0.0646459
v -0.257437 -0.51537 -0.0646459
v -0.270519 -0.493861 -0.0713069
v -0.255708 -0.512911 -0.0763829
v -0.24696 -0.524956 -0.0773264
v -0.265844 -0.498409 -0.0756847
v -0.269092 -0.491772 -0.0791567
v -0.281114 -0.421797 -0.162787
v -0.283864 -0.413931 -0.167222
v -0.252447 -0.452073 -0.170109
v -0.256337 -0.455391 -0.161636
v -0.259283 -0.459242 -0.153824
v -0.24696 -0.455637 -0.173656
v -0.294851 -0.389145 -0.177676
v -0.281087 -0.409998 -0.175034
v -0.278547 -0.405778 -0.182544
v -0.28808 -0.382712 -0.192866
v -0.354764 -0.286804 -0.192866
v -0.366301 -0.275866 -0.181091
v -0.380732 -0.270581 -0.154013
v -0.377105 -0.307371 -0.108499
v -0.364389 -0.32933 -0.106159
v -0.351634 -0.351125 -0.103669
v -0.339075 -0.373372 -0.099838
v -0.330078 -0.389349 -0.0966301
v -0.340437 -0.375461 -0.0926109
v -0.341196 -0.376731 -0.0847988
v -0.380732 -0.299341 -0.111594
v -0.305773 -0.435153 -0.0829496
v -0.310788 -0.428843 -0.0763829
v -0.306323 -0.436013 -0.0763829
v -0.280642 -0.479563 -0.0646459
v -0.29087 -0.463257 -0.0652497
v -0.291786 -0.466862 -0.0411342
v -0.279097 -0.486773 -0.0417003
v -0.282253 -0.470304 -0.0828552
v -0.25889 -0.501031 -0.0886105
v -0.24696 -0.514673 -0.0945733
v -0.271763 -0.483906 -0.0859121
v -0.26993 -0.445968 -0.152013
v -0.294327 -0.400288 -0.165524
v -0.306231 -0.3771 -0.173354
v -0.247733 -0.460922 -0.16726
v -0.252382 -0.463749 -0.158278
v -0.247314 -0.474155 -0.154145
v -0.247209 -0.485094 -0.142125
v -0.24696 -0.467272 -0.16175
v -0.329541 -0.329945 -0.188903
v -0.30263 -0.372102 -0.184205
v -0.294798 -0.377346 -0.189356
v -0.298295 -0.369029 -0.192866
v -0.352485 -0.29381 -0.188035
v -0.380732 -0.289959 -0.125595
v -0.345269 -0.301922 -0.192866
v -0.342257 -0.307985 -0.191186
v -0.339808 -0.31581 -0.185808
v -0.375481 -0.304749 -0.11633
v -0.351712 -0.304298 -0.174392
v -0.34396 -0.311713 -0.181978
v -0.351699 -0.327814 -0.139125
v -0.341419 -0.341826 -0.142691
v -0.353113 -0.341703 -0.114575
v -0.346526 -0.346496 -0.123199
v -0.312857 -0.369152 -0.169637
v -0.315162 -0.372716 -0.158579
v -0.329358 -0.376526 -0.118425
v -0.328454 -0.386891 -0.10448
v -0.333012 -0.382508 -0.100272
v -0.325953 -0.393405 -0.100272
v -0.31714 -0.411063 -0.0937996
v -0.306768 -0.424869 -0.0970452
v -0.29764 -0.429417 -0.11182
v -0.282659 -0.447443 -0.119066
v -0.29345 -0.450721 -0.0877047
v -0.284662 -0.464036 -0.0873273
v -0.258026 -0.492755 -0.104555
v -0.24696 -0.493697 -0.12969
v -0.267992 -0.466617 -0.123369
v -0.268974 -0.456252 -0.137879
v -0.27158 -0.448426 -0.144182
v -0.282279 -0.4304 -0.147276
v -0.282999 -0.424419 -0.154938
v -0.258471 -0.469894 -0.140917
v -0.29582 -0.402623 -0.158579
v -0.301975 -0.393159 -0.158636
v -0.304699 -0.386441 -0.162561
v -0.309047 -0.382221 -0.158636
v -0.328729 -0.34031 -0.175638
v -0.331047 -0.332321 -0.182091
v -0.248139 -0.488576 -0.135124
v -0.340188 -0.309788 -0.192866
v -0.331362 -0.323185 -0.192866
v -0.323007 -0.33523 -0.192866
v -0.31731 -0.344448 -0.191677
v -0.305537 -0.364276 -0.188035
v -0.308431 -0.355837 -0.192375
v -0.350115 -0.301717 -0.182091
v -0.376267 -0.294302 -0.129954
v -0.34062 -0.328879 -0.164222
v -0.326516 -0.346701 -0.171184
v -0.30796 -0.39148 -0.146861
v -0.311404 -0.39361 -0.135181
v -0.304476 -0.409629 -0.126746
v -0.313774 -0.404918 -0.11165
v -0.309898 -0.417905 -0.100536
v -0.294078 -0.423435 -0.130011
v -0.282017 -0.434743 -0.141012
v -0.281664 -0.457685 -0.104914
v -0.283287 -0.460103 -0.097083
v -0.293397 -0.410653 -0.151862
f 1 2 3
f 1 3 10
f 1 10 40
f 1 40 72
f 1 72 120
f 1 120 153
f 1 153 128
f 1 128 78
f 1 78 46
f 1 46 18
f 1 18 4
f 1 4 5
f 1 5 6
f 1 6 7
f 1 7 8
f 1 8 2
f 2 8 33
f 2 33 63
f 2 63 105
f 2 105 138
f 2 138 177
f 2 177 147
f 2 147 113
f 2 113 65
f 2 65 34
f 2 34 9
f 2 9 37
f 2 37 68
f 2 68 117
f 2 117 151
f 2 151 193
f 2 193 192
f 2 192 191
f 2 191 154
f 2 154 118
f 2 118 70
f 2 70 38
f 2 38 10
f 2 10 3
f 4 11 12
f 4 12 13
f 4 13 14
f 4 14 15
f 4 15 16
f 4 16 17
f 4 17 5
f 4 18 11
f 5 17 6
f 6 19 20
f 6 20 21
f 6 21 22
f 6 22 23
f 6 23 24
f 6 24 25
f 6 25 26
f 6 26 27
f 6 27 28
f 6 28 29
f 6 29 7
f 6 17 19
f 7 29 30
f 7 30 31
f 7 31 32
f 7 32 8
f 8 32 33
f 9 34 35
f 9 35 36
f 9 36 37
f 10 38 39
f 10 39 40
f 11 41 13
f 11 13 12
f 11 18 41
f 13 42 43
f 13 43 44
f 13 44 14
f 13 41 42
f 14 44 15
f 15 44 19
f 15 19 45
f 15 45 16
f 16 45 17
f 17 45 19
f 18 46 41
f 19 47 20
f 19 44 47
f 20 48 49
f 20 49 50
f 20 50 21
f 20 47 48
f 21 50 49
f 21 49 51
f 21 51 22
f 22 51 23
f 23 51 24
f 24 51 52
f 24 52 25
f 25 53 26
f 25 52 53
f 26 53 27
f 27 53 54
f 27 54 28
f 28 54 55
f 28 55 29
f 29 55 56
f 29 56 57
f 29 57 30
f 30 57 31
f 31 58 59
f 31 59 32
f 31 57 58
f 32 59 33
f 33 59 58
f 33 58 60
f 33 60 61
f 33 61 62
f 33 62 63
f 34 64 35
f 34 65 64
f 35 66 67
f 35 67 68
f 35 68 69
f 35 69 36
f 35 64 66
f 36 69 37
f 37 69 68
f 38 70 39
f 39 71 40
f 39 70 71
f 40 71 72
f 41 46 73
f 41 73 42
f 42 73 43
f 43 74 75
f 43 75 44
f 43 73 74
f 44 75 76
f 44 76 77
f 44 77 47
f 46 78 73
f 47 77 76
f 47 76 48
f 48 76 49
f 49 76 79
f 49 79 51
f 51 79 80
f 51 80 81
f 51 81 52
f 52 81 82
f 52 82 83
f 52 83 84
f 52 84 53
f 53 84 85
f 53 85 54
f 54 86 87
f 54 87 88
f 54 88 55
f 54 85 86
f 55 88 89
f 55 89 56
f 56 89 90
f 56 90 91
f 56 91 92
f 56 92 57
f 57 92 91
f 57 91 93
f 57 93 94
f 57 94 95
f 57 95 96
f 57 96 58
f 58 97 98
f 58 98 61
f 58 61 60
f 58 96 97
f 61 98 99
f 61 99 94
f 61 94 100
f 61 100 101
f 61 101 102
f 61 102 62
f 62 102 103
f 62 103 63
f 63 104 105
f 63 103 106
f 63 106 107
f 63 107 104
f 64 108 109
f 64 109 67
f 64 67 66
f 64 65 110
f 64 110 111
f 64 111 112
f 64 112 108
f 65 113 110
f 67 109 114
f 67 114 115
f 67 115 116
f 67 116 68
f 68 116 117
f 70 118 119
f 70 119 120
f 70 120 72
f 70 72 71
f 73 78 74
f 74 78 121
f 74 121 122
f 74 122 123
f 74 123 124
f 74 124 125
f 74 125 126
f 74 126 80
f 74 80 127
f 74 127 75
f 75 127 80
f 75 80 76
f 76 80 79
f 78 128 121
f 80 126 129
f 80 129 130
f 80 130 82
f 80 82 81
f 82 130 83
f 83 130 85
f 83 85 84
f 85 130 86
f 86 130 87
f 87 89 88
f 87 130 131
f 87 131 129
f 87 129 103
f 87 103 94
f 87 94 132
f 87 132 133
f 87 133 134
f 87 134 90
f 87 90 89
f 90 134 91
f 91 134 135
f 91 135 93
f 93 135 94
f 94 103 100
f 94 99 98
f 94 98 95
f 94 135 132
f 95 98 96
f 96 98 97
f 100 103 101
f 101 103 102
f 103 136 107
f 103 107 106
f 103 129 136
f 104 137 138
f 104 138 105
f 104 107 139
f 104 139 137
f 107 136 139
f 108 112 140
f 108 140 141
f 108 141 142
f 108 142 114
f 108 114 109
f 110 113 143
f 110 143 111
f 111 143 144
f 111 144 112
f 112 144 145
f 112 145 146
f 112 146 140
f 113 147 143
f 114 142 148
f 114 148 149
f 114 149 150
f 114 150 117
f 114 117 116
f 114 116 115
f 117 150 151
f 118 152 153
f 118 153 119
f 118 154 155
f 118 155 148
f 118 148 156
f 118 156 152
f 119 153 120
f 121 128 153
f 121 153 157
f 121 157 158
f 121 158 159
f 121 159 160
f 121 160 122
f 122 160 161
f 122 161 162
f 122 162 123
f 123 162 163
f 123 163 124
f 124 164 165
f 124 165 166
f 124 166 167
f 124 167 168
f 124 168 125
f 124 163 164
f 125 168 167
f 125 167 169
f 125 169 170
f 125 170 129
f 125 129 126
f 129 170 171
f 129 171 172
f 129 172 173
f 129 173 174
f 129 174 136
f 129 131 130
f 132 135 134
f 132 134 133
f 136 175 139
f 136 174 175
f 137 176 138
f 137 139 176
f 138 176 177
f 139 175 178
f 139 178 176
f 140 179 180
f 140 180 181
f 140 181 182
f 140 182 141
f 140 146 183
f 140 183 179
f 141 184 142
f 141 182 184
f 142 184 185
f 142 185 186
f 142 186 187
f 142 187 166
f 142 166 165
f 142 165 164
f 142 164 188
f 142 188 189
f 142 189 148
f 143 147 144
f 144 147 145
f 145 147 146
f 146 190 183
f 146 147 177
f 146 177 190
f 148 189 156
f 148 155 154
f 148 154 191
f 148 191 192
f 148 192 193
f 148 193 194
f 148 194 149
f 149 195 150
f 149 194 195
f 150 195 151
f 151 195 196
f 151 196 193
f 152 156 197
f 152 197 153
f 153 197 198
f 153 198 157
f 156 159 197
f 156 189 159
f 157 198 197
f 157 197 158
f 158 197 159
f 159 189 199
f 159 199 160
f 160 199 188
f 160 188 161
f 161 163 162
f 161 188 200
f 161 200 163
f 163 200 164
f 164 200 188
f 166 187 201
f 166 201 167
f 167 201 202
f 167 202 203
f 167 203 204
f 167 204 170
f 167 170 169
f 170 205 171
f 170 204 203
f 170 203 205
f 171 205 206
f 171 206 172
f 172 206 207
f 172 207 173
f 173 207 180
f 173 180 179
f 173 179 208
f 173 208 174
f 174 208 209
f 174 209 175
f 175 209 178
f 176 178 177
f 177 178 183
f 177 183 190
f 178 209 179
f 178 179 183
f 179 209 208
f 180 207 181
f 181 206 210
f 181 210 182
f 181 207 206
f 182 210 184
f 184 210 185
f 185 201 186
f 185 210 201
f 186 201 187
f 188 199 189
f 193 196 194
f 194 196 195
f 201 210 203
f 201 203 202
f 203 210 206
f 203 206 205
