v 0.252608 0.563022 0.0411276
v 0.252608 0.563009 0.052871
v 0.264356 0.562865 0.00588037
v 0.252608 0.563022 0.000103831
v 0.24086 0.563022 0.0763663
v 0.24086 0.563009 0.0884382
v 0.252608 0.562983 0.0646143
v 0.264356 0.562865 0.000103831
v 0.264356 0.562786 0.0176323
v 0.276104 0.560495 0.00588037
v 0.217342 0.563022 0.000103831
v 0.229112 0.563022 0.0884382
v 0.252292 0.562642 0.0884382
v 0.252608 0.562878 0.0763663
v 0.264356 0.562708 0.0293757
v 0.276104 0.560495 0.000103831
v 0.282891 0.555245 0.00588037
v 0.279441 0.557916 0.000103831
v 0.264356 0.562603 0.0411276
v 0.264356 0.562459 0.052871
v 0.264356 0.562249 0.0646143
v 0.27288 0.556882 0.0646143
v 0.205594 0.563009 0.000103831
v 0.193846 0.563022 0.0881183
v 0.193846 0.563022 0.0884382
v 0.252608 0.562603 0.0884382
v 0.252608 0.562629 0.0881183
v 0.282305 0.553465 0.0176323
v 0.282891 0.551318 0.00588037
v 0.282891 0.555245 0.000103831
v 0.264356 0.560914 0.0763663
v 0.271685 0.555664 0.0763663
v 0.193846 0.562786 0.000103831
v 0.182098 0.562943 0.0763663
v 0.181782 0.562996 0.0884382
v 0.26395 0.557458 0.0884382
v 0.281989 0.5523 0.0236856
v 0.282305 0.551868 0.0176323
v 0.282891 0.551318 0.000103831
v 0.15434 0.429276 0.00588037
v 0.264491 0.557131 0.0884382
v 0.27067 0.553766 0.0834486
v 0.182098 0.561137 0.000103831
v 0.170034 0.562655 0.0884382
v 0.17035 0.562682 0.0884382
v 0.281989 0.552195 0.0236856
v 0.15434 0.429276 0.000103831
v 0.152829 0.429276 0.0176323
v 0.264491 0.549249 0.0884382
v 0.27067 0.551789 0.0834486
v 0.170823 0.555965 0.000103831
v 0.145861 0.555913 0.0884382
v 0.14638 0.556136 0.0884382
v 0.158308 0.56098 0.0884382
v 0.158624 0.561045 0.0884382
v 0.271685 0.550912 0.0763663
v 0.27288 0.550009 0.0646143
v 0.151093 0.429276 0.0305863
v 0.103086 0.429276 0.000103831
v 0.126063 0.429276 0.0884382
v 0.126379 0.429276 0.0880491
v 0.130009 0.429276 0.0831719
v 0.133798 0.429276 0.0769111
v 0.139503 0.429276 0.0652196
v 0.144508 0.429276 0.0532169
v 0.149086 0.429276 0.0400813
v 0.164983 0.551698 0.000103831
v 0.140405 0.552509 0.0884382
v 0.145298 0.555586 0.0884382
v 0.0525313 0.429276 0.0884382
v 0.103312 0.429787 0.000103831
v 0.160721 0.545819 0.000103831
v 0.129198 0.540347 0.0884382
v 0.134159 0.546134 0.0884382
v 0.134587 0.546605 0.0884382
v 0.13479 0.546827 0.0884382
v 0.12444 0.533683 0.0884382
v 0.157835 0.541342 0.000103831
v 0.154858 0.536721 0.000103831
v 0.151611 0.530842 0.000103831
v 0.147575 0.522843 0.000103831
v 0.14284 0.513168 0.000103831
v 0.141397 0.510184 0.000103831
v 0.128521 0.483254 0.000103831
v 0.117066 0.459152 0.000103831
v 0.115488 0.455813 0.000103831
v 0.113864 0.452357 0.000103831
v 0.110911 0.44606 0.000103831
v 0.108002 0.439841 0.000103831
f 1 2 3
f 1 3 8
f 1 8 4
f 1 4 11
f 1 11 24
f 1 24 25
f 1 25 12
f 1 12 5
f 1 5 6
f 1 6 2
f 2 7 3
f 2 6 7
f 3 7 9
f 3 9 10
f 3 10 16
f 3 16 8
f 4 8 16
f 4 16 18
f 4 18 30
f 4 30 39
f 4 39 47
f 4 47 59
f 4 59 71
f 4 71 89
f 4 89 88
f 4 88 87
f 4 87 86
f 4 86 85
f 4 85 84
f 4 84 83
f 4 83 82
f 4 82 81
f 4 81 80
f 4 80 79
f 4 79 78
f 4 78 72
f 4 72 67
f 4 67 51
f 4 51 43
f 4 43 33
f 4 33 23
f 4 23 11
f 5 12 6
f 6 12 25
f 6 25 35
f 6 35 45
f 6 45 44
f 6 44 55
f 6 55 54
f 6 54 53
f 6 53 52
f 6 52 69
f 6 69 68
f 6 68 76
f 6 76 75
f 6 75 74
f 6 74 73
f 6 73 77
f 6 77 70
f 6 70 60
f 6 60 49
f 6 49 41
f 6 41 36
f 6 36 26
f 6 26 13
f 6 13 14
f 6 14 7
f 7 14 19
f 7 19 15
f 7 15 9
f 9 15 10
f 10 17 18
f 10 18 16
f 10 15 19
f 10 19 20
f 10 20 21
f 10 21 22
f 10 22 17
f 11 23 24
f 13 26 27
f 13 27 14
f 14 27 21
f 14 21 20
f 14 20 19
f 17 28 38
f 17 38 29
f 17 29 39
f 17 39 30
f 17 30 18
f 17 22 28
f 21 31 22
f 21 27 26
f 21 26 31
f 22 32 28
f 22 31 32
f 23 33 34
f 23 34 35
f 23 35 24
f 24 35 25
f 26 36 31
f 28 37 46
f 28 46 38
f 28 32 37
f 29 38 40
f 29 40 47
f 29 47 39
f 31 36 41
f 31 41 32
f 32 41 42
f 32 42 37
f 33 43 44
f 33 44 45
f 33 45 34
f 34 45 35
f 37 42 50
f 37 50 46
f 38 46 40
f 40 46 48
f 40 48 58
f 40 58 66
f 40 66 65
f 40 65 64
f 40 64 63
f 40 63 62
f 40 62 61
f 40 61 60
f 40 60 70
f 40 70 59
f 40 59 47
f 41 49 50
f 41 50 42
f 43 51 52
f 43 52 53
f 43 53 54
f 43 54 55
f 43 55 44
f 46 50 56
f 46 56 57
f 46 57 58
f 46 58 48
f 49 60 61
f 49 61 62
f 49 62 50
f 50 62 63
f 50 63 64
f 50 64 65
f 50 65 66
f 50 66 56
f 51 67 68
f 51 68 69
f 51 69 52
f 56 66 58
f 56 58 57
f 59 70 71
f 67 72 73
f 67 73 74
f 67 74 75
f 67 75 76
f 67 76 68
f 70 77 72
f 70 72 78
f 70 78 79
f 70 79 80
f 70 80 81
f 70 81 82
f 70 82 83
f 70 83 84
f 70 84 85
f 70 85 86
f 70 86 87
f 70 87 88
f 70 88 89
f 70 89 71
f 72 77 73
