v 0.581454 0.315375 0.00254604
v 0.515265 0.309334 0.000128298
v 0.557945 0.370095 0.00304283
v 0.564391 0.359256 0.00304283
v 0.570553 0.346623 0.00304283
v 0.575293 0.334929 0.00446696
v 0.575411 0.328067 0.0238088
v 0.581359 0.310355 0.0181785
v 0.339376 0.339679 0.000128298
v 0.423007 0.428615 0.000128298
v 0.567472 0.309334 0.125453
v 0.384995 0.309334 0.338478
v 0.540172 0.392029 0.00304283
v 0.550362 0.380781 0.00446696
v 0.553253 0.37501 0.0177479
v 0.563633 0.357825 0.0176817
v 0.569036 0.346623 0.0176817
v 0.563941 0.340653 0.0762372
v 0.565316 0.332724 0.0881602
v 0.563823 0.328595 0.110748
v 0.570079 0.323129 0.0764028
v 0.575909 0.317967 0.0441774
v 0.575814 0.312349 0.056531
v 0.339376 0.427442 0.224547
v 0.342173 0.412428 0.000128298
v 0.339376 0.334354 0.338478
v 0.440639 0.429025 0.0176817
v 0.44353 0.428931 0.00158557
v 0.459692 0.427723 0.0023142
v 0.498036 0.418468 0.00304283
v 0.512492 0.411911 0.00304283
v 0.52709 0.402997 0.00304283
v 0.400944 0.426374 0.000128298
v 0.339376 0.428451 0.2422
v 0.341201 0.429072 0.26386
v 0.562993 0.325967 0.123399
v 0.562353 0.318167 0.144033
v 0.561476 0.309979 0.157115
v 0.528038 0.309334 0.238225
v 0.514412 0.309839 0.270749
v 0.505454 0.311751 0.29009
v 0.46839 0.317041 0.337187
v 0.459858 0.335785 0.338478
v 0.529673 0.400205 0.0176817
v 0.535527 0.394997 0.0176817
v 0.540338 0.387596 0.0404017
v 0.542305 0.378399 0.0822649
v 0.540906 0.37657 0.103627
v 0.53984 0.375103 0.119293
v 0.554272 0.367538 0.0470257
v 0.552305 0.364371 0.0770983
v 0.551191 0.359432 0.10578
v 0.563846 0.35223 0.0380503
v 0.562093 0.348336 0.0646784
v 0.565481 0.344219 0.052921
v 0.551334 0.352981 0.129659
v 0.558325 0.33487 0.135157
v 0.382673 0.423231 0.000128298
v 0.364259 0.418902 0.000128298
v 0.368359 0.417237 0.337551
v 0.339376 0.425119 0.333212
v 0.45237 0.428368 0.0176817
v 0.428861 0.429154 0.0705406
v 0.428861 0.429025 0.10578
v 0.440639 0.428791 0.0705406
v 0.480831 0.423911 0.00304283
v 0.45237 0.428087 0.0411635
v 0.45237 0.427712 0.0705406
v 0.464077 0.426879 0.0235439
v 0.481755 0.422984 0.0300684
v 0.487585 0.420111 0.052921
v 0.49934 0.417366 0.0176817
v 0.504932 0.413014 0.048516
v 0.505312 0.41129 0.0715342
v 0.5128 0.408744 0.0470257
v 0.358382 0.429072 0.252566
v 0.370137 0.429119 0.229084
v 0.343002 0.428931 0.279691
v 0.553656 0.339714 0.149034
v 0.554841 0.327316 0.15993
v 0.540883 0.318589 0.200767
v 0.553016 0.311786 0.176291
v 0.52818 0.315457 0.233721
v 0.505335 0.323563 0.282208
v 0.517113 0.317745 0.258826
v 0.49396 0.343961 0.287706
v 0.496283 0.315668 0.301484
v 0.484054 0.321076 0.314996
v 0.470049 0.329216 0.329072
v 0.482182 0.344512 0.30357
v 0.471233 0.343116 0.318871
v 0.456375 0.349509 0.333709
v 0.447488 0.362271 0.334603
v 0.425306 0.38688 0.335067
v 0.407153 0.399748 0.336292
v 0.51107 0.406422 0.0881602
v 0.519128 0.401108 0.0881602
v 0.528797 0.39956 0.0303665
v 0.52536 0.396557 0.0822649
v 0.527375 0.392522 0.0999177
v 0.53202 0.391044 0.0764028
v 0.526261 0.389742 0.128434
v 0.539105 0.386188 0.0587831
v 0.540693 0.370576 0.135157
v 0.541309 0.363843 0.149531
v 0.385114 0.41156 0.335199
v 0.381867 0.416427 0.323045
v 0.41713 0.416709 0.276081
v 0.405376 0.417624 0.287805
v 0.393622 0.418492 0.299563
v 0.381867 0.419313 0.31132
v 0.370137 0.420099 0.323045
v 0.354117 0.421894 0.334968
v 0.36407 0.422926 0.316984
v 0.372649 0.423477 0.302345
v 0.393622 0.425014 0.264323
v 0.381867 0.425459 0.276081
v 0.370137 0.425893 0.287805
v 0.358382 0.426316 0.299563
v 0.344803 0.42641 0.316056
v 0.343903 0.42831 0.293469
v 0.440639 0.428603 0.0881602
v 0.393622 0.429131 0.182087
v 0.405376 0.429131 0.158639
v 0.41713 0.428967 0.146914
v 0.440639 0.428181 0.117504
v 0.464077 0.425858 0.0705406
v 0.473224 0.423841 0.0705406
v 0.45237 0.427395 0.0881602
v 0.45237 0.427019 0.10578
v 0.481305 0.421518 0.0690502
v 0.487585 0.41807 0.0940224
v 0.487585 0.416463 0.123399
v 0.498889 0.410926 0.123399
v 0.370137 0.429025 0.240808
v 0.381867 0.429119 0.217327
v 0.358382 0.428779 0.264323
v 0.541049 0.350987 0.168906
v 0.53965 0.338753 0.186029
v 0.518132 0.332313 0.244154
v 0.529816 0.320595 0.225905
v 0.504861 0.338061 0.270484
v 0.495714 0.351878 0.276843
v 0.48377 0.362083 0.287176
v 0.480879 0.326929 0.316122
v 0.469101 0.350952 0.316056
v 0.469503 0.363573 0.304829
v 0.458697 0.36484 0.317778
v 0.440876 0.374423 0.330861
v 0.447725 0.377273 0.318805
v 0.446801 0.387971 0.305822
v 0.422889 0.399384 0.317017
v 0.396702 0.409871 0.325264
v 0.513867 0.402246 0.114192
v 0.51472 0.402985 0.0999177
v 0.511923 0.399947 0.141019
v 0.524886 0.386833 0.146914
v 0.53029 0.375303 0.158539
v 0.530906 0.367491 0.17033
v 0.399688 0.411302 0.317414
v 0.42187 0.412826 0.283599
v 0.428861 0.41719 0.258461
v 0.41713 0.419548 0.264323
v 0.393053 0.421331 0.287441
v 0.381867 0.421765 0.299894
v 0.385754 0.422515 0.291117
v 0.409476 0.423524 0.253758
v 0.405376 0.426515 0.234946
v 0.393622 0.426433 0.252566
v 0.381867 0.426797 0.264323
v 0.370137 0.427125 0.276081
v 0.358382 0.427418 0.287805
v 0.358382 0.428263 0.276081
v 0.370137 0.42865 0.252566
v 0.428861 0.428228 0.146914
v 0.393622 0.429002 0.199707
v 0.405376 0.428861 0.182087
v 0.41713 0.428404 0.17033
v 0.45237 0.426492 0.123399
v 0.440639 0.427547 0.135157
v 0.464077 0.42519 0.0940224
v 0.469788 0.422867 0.117968
v 0.475831 0.418891 0.141019
v 0.492775 0.411513 0.141019
v 0.393622 0.428697 0.217327
v 0.518275 0.366224 0.20292
v 0.505572 0.364816 0.235874
v 0.528323 0.351749 0.198813
v 0.517492 0.34192 0.236271
v 0.504553 0.351163 0.256905
v 0.492609 0.365555 0.265847
v 0.473058 0.370634 0.292906
v 0.481898 0.378001 0.269424
v 0.458555 0.376312 0.305855
v 0.459147 0.388393 0.288998
v 0.449218 0.389836 0.299563
v 0.444525 0.398117 0.29115
v 0.445165 0.401448 0.283334
v 0.428505 0.408393 0.287706
v 0.437985 0.409824 0.271444
v 0.488509 0.408873 0.164567
v 0.505525 0.399689 0.159467
v 0.516545 0.387244 0.167184
v 0.517208 0.376288 0.188579
v 0.492823 0.375068 0.249618
v 0.446824 0.411372 0.253427
v 0.445118 0.414668 0.240808
v 0.440639 0.419301 0.223222
v 0.426159 0.422621 0.2318
v 0.381867 0.427782 0.252566
v 0.427155 0.423958 0.217327
v 0.41713 0.426363 0.211465
v 0.405376 0.427676 0.217327
v 0.370137 0.42804 0.264323
v 0.387744 0.42831 0.234946
v 0.405376 0.428368 0.199707
v 0.41713 0.427981 0.182087
v 0.428861 0.42777 0.158639
v 0.440639 0.426503 0.152777
v 0.457323 0.424498 0.137575
v 0.41713 0.427442 0.193845
v 0.428861 0.427172 0.17033
v 0.457583 0.422797 0.155658
v 0.454502 0.421917 0.17033
v 0.45237 0.419477 0.193845
v 0.464077 0.418762 0.17033
v 0.45237 0.417706 0.205569
v 0.464077 0.416932 0.182087
v 0.477893 0.414492 0.162613
v 0.469906 0.411184 0.199575
v 0.471992 0.386786 0.273001
v 0.481376 0.387361 0.251837
v 0.460925 0.396757 0.271279
v 0.45237 0.405132 0.264323
v 0.487585 0.40512 0.182087
v 0.45545 0.409718 0.240808
v 0.464716 0.408615 0.223056
v 0.475831 0.406352 0.205569
v 0.482585 0.400088 0.213551
v 0.493652 0.399607 0.188446
v 0.479315 0.397554 0.229084
v 0.495856 0.389953 0.210305
v 0.493297 0.38756 0.222825
v 0.504364 0.386833 0.197687
v 0.506141 0.377109 0.213684
v 0.458863 0.411536 0.224712
v 0.460356 0.412263 0.217327
v 0.45237 0.415759 0.217327
v 0.433719 0.422703 0.214015
v 0.44526 0.424509 0.167415
v 0.428861 0.425612 0.193845
v 0.428861 0.426445 0.182087
v 0.471518 0.400182 0.23902
f 1 2 3
f 1 3 4
f 1 4 5
f 1 5 6
f 1 6 7
f 1 7 8
f 1 8 2
f 2 9 25
f 2 25 59
f 2 59 58
f 2 58 33
f 2 33 10
f 2 10 3
f 2 8 11
f 2 11 39
f 2 39 12
f 2 12 9
f 3 10 13
f 3 13 14
f 3 14 15
f 3 15 16
f 3 16 4
f 4 16 5
f 5 16 17
f 5 17 6
f 6 17 18
f 6 18 7
f 7 18 19
f 7 19 20
f 7 20 21
f 7 21 22
f 7 22 8
f 8 22 23
f 8 23 11
f 9 24 25
f 9 12 26
f 9 26 61
f 9 61 34
f 9 34 24
f 10 27 28
f 10 28 29
f 10 29 30
f 10 30 31
f 10 31 32
f 10 32 13
f 10 33 34
f 10 34 35
f 10 35 27
f 11 36 37
f 11 37 38
f 11 38 39
f 11 23 22
f 11 22 36
f 12 39 40
f 12 40 41
f 12 41 42
f 12 42 43
f 12 43 26
f 13 32 44
f 13 44 45
f 13 45 46
f 13 46 14
f 14 46 47
f 14 47 15
f 15 47 48
f 15 48 49
f 15 49 50
f 15 50 16
f 16 50 51
f 16 51 52
f 16 52 53
f 16 53 17
f 17 53 54
f 17 54 55
f 17 55 18
f 18 55 54
f 18 54 56
f 18 56 57
f 18 57 19
f 19 57 20
f 20 57 36
f 20 36 21
f 21 36 22
f 24 34 58
f 24 58 59
f 24 59 25
f 26 43 60
f 26 60 61
f 27 62 28
f 27 35 63
f 27 63 64
f 27 64 65
f 27 65 62
f 28 62 29
f 29 66 30
f 29 62 67
f 29 67 68
f 29 68 69
f 29 69 66
f 30 66 70
f 30 70 71
f 30 71 72
f 30 72 31
f 31 72 73
f 31 73 74
f 31 74 75
f 31 75 32
f 32 75 44
f 33 58 34
f 34 61 35
f 35 76 77
f 35 77 63
f 35 61 78
f 35 78 76
f 36 57 37
f 37 57 79
f 37 79 80
f 37 80 38
f 38 80 81
f 38 81 82
f 38 82 83
f 38 83 39
f 39 83 40
f 40 84 41
f 40 83 85
f 40 85 84
f 41 84 86
f 41 86 87
f 41 87 42
f 42 87 88
f 42 88 89
f 42 89 43
f 43 89 90
f 43 90 91
f 43 91 92
f 43 92 93
f 43 93 94
f 43 94 95
f 43 95 60
f 44 75 96
f 44 96 97
f 44 97 98
f 44 98 45
f 45 98 99
f 45 99 100
f 45 100 101
f 45 101 46
f 46 101 100
f 46 100 102
f 46 102 103
f 46 103 47
f 47 103 48
f 48 102 49
f 48 103 102
f 49 102 104
f 49 104 50
f 50 104 51
f 51 104 52
f 52 104 56
f 52 56 53
f 53 56 54
f 56 104 105
f 56 105 79
f 56 79 57
f 60 95 106
f 60 106 107
f 60 107 108
f 60 108 109
f 60 109 110
f 60 110 111
f 60 111 112
f 60 112 113
f 60 113 61
f 61 113 114
f 61 114 115
f 61 115 116
f 61 116 117
f 61 117 118
f 61 118 119
f 61 119 120
f 61 120 121
f 61 121 78
f 62 65 122
f 62 122 67
f 63 123 124
f 63 124 64
f 63 77 123
f 64 124 125
f 64 125 126
f 64 126 122
f 64 122 65
f 66 69 127
f 66 127 128
f 66 128 70
f 67 122 68
f 68 122 126
f 68 126 129
f 68 129 69
f 69 129 130
f 69 130 127
f 70 128 131
f 70 131 71
f 71 131 132
f 71 132 72
f 72 132 133
f 72 133 73
f 73 133 74
f 74 96 75
f 74 133 134
f 74 134 96
f 76 135 136
f 76 136 77
f 76 78 135
f 77 136 123
f 78 121 137
f 78 137 135
f 79 105 138
f 79 138 80
f 80 138 139
f 80 139 140
f 80 140 141
f 80 141 81
f 81 141 85
f 81 85 83
f 81 83 82
f 84 85 140
f 84 140 142
f 84 142 86
f 85 141 140
f 86 142 143
f 86 143 144
f 86 144 90
f 86 90 145
f 86 145 87
f 87 145 88
f 88 145 89
f 89 145 90
f 90 146 91
f 90 144 146
f 91 146 92
f 92 146 93
f 93 146 147
f 93 147 148
f 93 148 149
f 93 149 94
f 94 149 150
f 94 150 151
f 94 151 152
f 94 152 95
f 95 152 153
f 95 153 106
f 96 134 154
f 96 154 155
f 96 155 97
f 97 99 98
f 97 155 154
f 97 154 99
f 99 154 100
f 100 154 102
f 102 156 157
f 102 157 104
f 102 154 156
f 104 157 158
f 104 158 105
f 105 158 159
f 105 159 138
f 106 153 160
f 106 160 107
f 107 160 161
f 107 161 108
f 108 161 162
f 108 162 163
f 108 163 109
f 109 163 110
f 110 163 111
f 111 163 112
f 112 163 164
f 112 164 165
f 112 165 113
f 113 165 114
f 114 165 166
f 114 166 115
f 115 166 167
f 115 167 116
f 116 167 168
f 116 168 169
f 116 169 117
f 117 169 118
f 118 169 119
f 119 169 170
f 119 170 171
f 119 171 120
f 120 171 172
f 120 172 121
f 121 172 173
f 121 173 174
f 121 174 137
f 123 136 124
f 124 136 125
f 125 175 126
f 125 136 176
f 125 176 177
f 125 177 178
f 125 178 175
f 126 179 130
f 126 130 129
f 126 175 180
f 126 180 179
f 127 181 128
f 127 130 181
f 128 181 182
f 128 182 131
f 130 179 181
f 131 182 132
f 132 182 133
f 133 182 183
f 133 183 184
f 133 184 134
f 134 184 156
f 134 156 154
f 135 137 174
f 135 174 185
f 135 185 136
f 136 185 176
f 138 159 186
f 138 186 187
f 138 187 188
f 138 188 189
f 138 189 139
f 139 189 142
f 139 142 140
f 142 189 190
f 142 190 143
f 143 190 191
f 143 191 144
f 144 192 147
f 144 147 146
f 144 191 193
f 144 193 192
f 147 192 148
f 148 192 194
f 148 194 149
f 149 194 150
f 150 194 151
f 151 194 195
f 151 195 196
f 151 196 152
f 152 196 197
f 152 197 198
f 152 198 153
f 153 198 199
f 153 199 200
f 153 200 160
f 156 184 201
f 156 201 202
f 156 202 157
f 157 202 203
f 157 203 158
f 158 203 204
f 158 204 159
f 159 204 205
f 159 205 186
f 160 200 161
f 161 200 162
f 162 206 207
f 162 207 208
f 162 208 209
f 162 209 163
f 162 200 206
f 163 209 167
f 163 167 166
f 163 166 164
f 164 166 165
f 167 209 168
f 168 210 169
f 168 209 211
f 168 211 212
f 168 212 213
f 168 213 210
f 169 210 170
f 170 210 171
f 171 210 172
f 172 210 214
f 172 214 173
f 173 214 174
f 174 215 185
f 174 214 215
f 175 178 216
f 175 216 217
f 175 217 218
f 175 218 180
f 176 185 177
f 177 185 178
f 178 185 216
f 179 182 181
f 179 180 219
f 179 219 220
f 179 220 182
f 180 218 213
f 180 213 221
f 180 221 222
f 180 222 219
f 182 220 223
f 182 223 183
f 183 223 224
f 183 224 225
f 183 225 226
f 183 226 227
f 183 227 228
f 183 228 229
f 183 229 184
f 184 229 230
f 184 230 201
f 185 213 216
f 185 215 213
f 186 205 187
f 187 205 191
f 187 191 190
f 187 190 188
f 188 190 189
f 191 205 193
f 192 193 231
f 192 231 194
f 193 205 232
f 193 232 231
f 194 231 195
f 195 231 233
f 195 233 197
f 195 197 196
f 197 233 198
f 198 233 234
f 198 234 200
f 198 200 199
f 200 234 206
f 201 235 202
f 201 230 236
f 201 236 237
f 201 237 238
f 201 238 235
f 202 235 239
f 202 239 240
f 202 240 241
f 202 241 242
f 202 242 203
f 203 242 243
f 203 243 244
f 203 244 204
f 204 244 245
f 204 245 205
f 205 245 232
f 206 234 236
f 206 236 246
f 206 246 207
f 207 246 247
f 207 247 248
f 207 248 227
f 207 227 208
f 208 227 225
f 208 225 224
f 208 224 249
f 208 249 209
f 209 249 211
f 210 213 215
f 210 215 214
f 211 249 223
f 211 223 250
f 211 250 251
f 211 251 212
f 212 251 252
f 212 252 222
f 212 222 221
f 212 221 213
f 213 218 217
f 213 217 216
f 219 222 252
f 219 252 251
f 219 251 220
f 220 251 250
f 220 250 223
f 223 249 224
f 225 227 226
f 227 248 228
f 228 248 229
f 229 248 247
f 229 247 230
f 230 247 246
f 230 246 236
f 231 232 233
f 232 245 243
f 232 243 242
f 232 242 241
f 232 241 233
f 233 241 253
f 233 253 234
f 234 253 236
f 235 238 239
f 236 253 239
f 236 239 238
f 236 238 237
f 239 253 241
f 239 241 240
f 243 245 244
