v -0.575647 0.0770929 -0.00299848
v -0.513442 0.0808703 -9.25471e-05
v -0.575017 0.0789617 -0.0149053
v -0.57204 0.0645679 -0.00299848
v -0.569197 0.0557009 -0.00154552
v -0.472036 0.0808703 -0.192866
v -0.55191 0.0808703 -0.163731
v -0.56395 0.0807908 -0.102876
v -0.55668 0.0204718 -0.00154552
v -0.380732 -0.215357 -9.25471e-05
v -0.380732 -0.122234 -0.192866
v -0.572403 0.0763374 -0.0293784
v -0.570514 0.0645679 -0.0176414
v -0.566755 0.0528381 -0.0176414
v -0.564255 0.0409492 -0.00445145
v -0.560439 0.0303725 -0.00299848
v -0.535004 0.0650848 -0.192866
v -0.539736 0.0755024 -0.189299
v -0.551013 0.0671126 -0.155843
v -0.556012 0.0791605 -0.150843
v -0.559065 0.0786038 -0.135106
v -0.560019 0.0763374 -0.123369
v -0.551814 0.00790702 -0.00445145
v -0.546719 -0.00465777 -0.00299848
v -0.498444 -0.110385 -0.00299848
v -0.49417 -0.118934 -0.00299848
v -0.486079 -0.135077 -0.00299848
v -0.416376 -0.265337 -0.00299848
v -0.407732 -0.280646 -0.00299848
v -0.390673 -0.310467 -0.00299848
v -0.382049 -0.325338 -0.00299848
v -0.381286 -0.324026 -0.0176414
v -0.380732 -0.315557 -0.0591171
v -0.380732 -0.253886 -0.178147
v -0.381877 -0.241719 -0.192866
v -0.56416 0.0697369 -0.0779679
v -0.56374 0.0593988 -0.0571546
v -0.564808 0.0562179 -0.0411342
v -0.563454 0.0484245 -0.031454
v -0.563358 0.042818 -0.0176414
v -0.55855 0.0293387 -0.0176414
v -0.530729 0.0526393 -0.192866
v -0.540251 0.0593193 -0.175713
v -0.544086 0.0516452 -0.159749
v -0.541797 0.0410685 -0.155994
v -0.541129 0.0334342 -0.150031
v -0.54485 0.0410685 -0.146861
v -0.551604 0.0596771 -0.145597
v -0.555058 0.0645679 -0.135106
v -0.552005 0.0120025 -0.01683
v -0.544678 -0.00593016 -0.0176414
v -0.540862 -0.0186142 -0.00588556
v -0.536244 -0.0294295 -0.00588556
v -0.528535 -0.0468453 -0.00507416
v -0.518556 -0.0686746 -0.00445145
v -0.480889 -0.145296 -0.00445145
v -0.504397 -0.0982575 -0.00445145
v -0.457229 -0.190863 -0.00405519
v -0.445303 -0.21317 -0.00447033
v -0.421623 -0.255993 -0.00588556
v -0.398554 -0.296431 -0.00596103
v -0.38991 -0.309155 -0.0176414
v -0.38743 -0.310785 -0.0293784
v -0.384682 -0.310308 -0.0523995
v -0.380847 -0.311461 -0.0763829
v -0.380732 -0.308956 -0.088101
v -0.380732 -0.262713 -0.165373
v -0.38722 -0.257544 -0.157296
v -0.409468 -0.243707 -0.123369
v -0.409507 -0.225575 -0.14922
v -0.389529 -0.228796 -0.192866
v -0.551757 0.05419 -0.135106
v -0.551986 0.0358597 -0.0864405
v -0.553493 0.020114 -0.0293784
v -0.539354 0.0516452 -0.171203
v -0.535271 0.0528381 -0.182091
v -0.522009 0.0294183 -0.192866
v -0.527963 0.0402733 -0.188677
v -0.529566 0.0331161 -0.178298
v -0.529604 0.0125194 -0.157787
v -0.527867 -0.00099967 -0.147861
v -0.534011 0.0058394 -0.135106
v -0.540633 0.0231756 -0.135879
v -0.547311 0.0410685 -0.135106
v -0.540881 0.0106108 -0.0972528
v -0.540728 0.00218129 -0.0731184
v -0.540881 -0.00107919 -0.0620041
v -0.539946 0.0130363 -0.111594
v -0.538877 -0.0197673 -0.0176414
v -0.533172 -0.0294295 -0.0293784
v -0.528821 -0.0355528 -0.0420588
v -0.529108 -0.0420341 -0.0176414
v -0.524185 -0.0528891 -0.0176414
v -0.517983 -0.0669251 -0.0161318
v -0.506382 -0.0916173 -0.0150562
v -0.494094 -0.116349 -0.0164715
v -0.482359 -0.139769 -0.0164526
v -0.467456 -0.1713 -0.00588556
v -0.46114 -0.18311 -0.00652713
v -0.443433 -0.213488 -0.0176414
v -0.43561 -0.230665 -0.00588556
v -0.453985 -0.193845 -0.0176414
v -0.424123 -0.248717 -0.0176414
v -0.411892 -0.259612 -0.0646459
v -0.413552 -0.267644 -0.0176414
v -0.399012 -0.292853 -0.0197548
v -0.388498 -0.300885 -0.0646459
v -0.386953 -0.298181 -0.0881387
v -0.4001 -0.271262 -0.103253
v -0.386876 -0.294801 -0.100781
v -0.380732 -0.304304 -0.102102
v -0.380732 -0.269075 -0.156089
v -0.385025 -0.276033 -0.135596
v -0.386552 -0.2682 -0.143352
v -0.400729 -0.260486 -0.120444
v -0.422329 -0.222554 -0.122463
v -0.425268 -0.209671 -0.133502
v -0.396302 -0.217225 -0.192866
v -0.398764 -0.221917 -0.180317
v -0.512221 0.00572011 -0.192866
v -0.517602 0.0172113 -0.191451
v -0.516857 0.000193192 -0.175996
v -0.520578 -0.00676516 -0.15941
v -0.517506 -0.0242604 -0.147654
v -0.524108 -0.0176599 -0.135106
v -0.528936 -0.00652658 -0.135106
v -0.526322 -0.0166659 -0.122727
v -0.527753 -0.0272028 -0.0778925
v -0.520788 -0.0294295 -0.123369
v -0.516266 -0.0396483 -0.123369
v -0.52178 -0.0411991 -0.0763829
v -0.518193 -0.0565472 -0.0508333
v -0.522658 -0.0528891 -0.0293784
v -0.517716 -0.0604041 -0.0411342
v -0.507202 -0.0631079 -0.111594
v -0.504722 -0.0695096 -0.107782
v -0.506019 -0.0722532 -0.0881387
v -0.50352 -0.0904642 -0.0411342
v -0.500524 -0.0999275 -0.0293784
v -0.493578 -0.106051 -0.0596643
v -0.482893 -0.119928 -0.0881387
v -0.470395 -0.139411 -0.10899
v -0.471959 -0.144739 -0.0763829
v -0.477054 -0.146807 -0.0293784
v -0.468582 -0.166926 -0.0146034
v -0.45866 -0.177026 -0.0501728
v -0.459251 -0.183984 -0.0176414
v -0.432366 -0.216629 -0.0889124
v -0.433377 -0.220685 -0.0646459
v -0.434369 -0.222514 -0.049418
v -0.450894 -0.193845 -0.0411342
v -0.432461 -0.230784 -0.0293784
v -0.456141 -0.184024 -0.0411342
v -0.422539 -0.234164 -0.0905918
v -0.412636 -0.256073 -0.0739109
v -0.409583 -0.255397 -0.099838
v -0.406148 -0.264343 -0.0881387
v -0.397829 -0.279016 -0.0881387
v -0.404584 -0.264343 -0.099838
v -0.398344 -0.26828 -0.114481
v -0.434942 -0.205973 -0.111594
v -0.380732 -0.299294 -0.111594
v -0.380732 -0.287405 -0.129199
v -0.387945 -0.285218 -0.115009
v -0.447726 -0.178577 -0.121142
v -0.433912 -0.200963 -0.124652
v -0.435533 -0.189313 -0.136992
v -0.422825 -0.187682 -0.169939
v -0.402027 -0.207325 -0.192866
v -0.507393 -0.00529396 -0.192866
v -0.503806 -0.0149959 -0.190941
v -0.515369 -0.0182961 -0.15941
v -0.505485 -0.0241412 -0.176902
v -0.510618 -0.0294295 -0.158579
v -0.509072 -0.0421136 -0.147729
v -0.505084 -0.051736 -0.146069
v -0.505237 -0.0588931 -0.135313
v -0.517373 -0.0338033 -0.133181
v -0.510294 -0.0528891 -0.123369
v -0.505065 -0.0643405 -0.123369
v -0.499398 -0.0763884 -0.123369
v -0.495811 -0.0872037 -0.111594
v -0.492224 -0.0914582 -0.123369
v -0.482492 -0.114401 -0.112084
v -0.489686 -0.0999275 -0.111594
v -0.488121 -0.0999275 -0.123369
v -0.468143 -0.149153 -0.0881387
v -0.481996 -0.112294 -0.123369
v -0.460721 -0.157463 -0.111594
v -0.454042 -0.170346 -0.111594
v -0.447173 -0.183388 -0.111594
v -0.446429 -0.187841 -0.0993662
v -0.43248 -0.214084 -0.0982152
v -0.425172 -0.227166 -0.099838
v -0.441544 -0.193845 -0.111594
v -0.380732 -0.294324 -0.118991
v -0.44578 -0.174919 -0.13203
v -0.468582 -0.138258 -0.123369
v -0.468754 -0.132612 -0.132954
v -0.45866 -0.150942 -0.133124
v -0.424256 -0.178418 -0.179242
v -0.411243 -0.191619 -0.192432
v -0.417006 -0.181201 -0.192866
v -0.496021 -0.0303043 -0.192866
v -0.504474 -0.0337238 -0.16858
v -0.492815 -0.0384157 -0.191318
v -0.485068 -0.0530879 -0.192866
v -0.493578 -0.0619946 -0.161768
v -0.494399 -0.071617 -0.148182
v -0.492949 -0.0812791 -0.139502
v -0.494246 -0.0839432 -0.131671
v -0.480947 -0.107124 -0.136483
v -0.430305 -0.157503 -0.19279
v -0.423073 -0.170426 -0.192866
v -0.445837 -0.139729 -0.17911
v -0.459309 -0.140047 -0.146069
v -0.472436 -0.116071 -0.145635
v -0.436507 -0.14629 -0.192866
v -0.472894 -0.077621 -0.192866
v -0.481099 -0.0623922 -0.191469
v -0.480317 -0.0737641 -0.179638
v -0.483351 -0.0940427 -0.147163
v -0.470662 -0.107045 -0.16158
v -0.449043 -0.123188 -0.192866
v -0.443242 -0.133964 -0.192866
v -0.461388 -0.100007 -0.192866
v -0.47154 -0.0992913 -0.169222
v -0.45742 -0.108755 -0.191281
f 1 2 3
f 1 3 4
f 1 4 5
f 1 5 2
f 2 6 7
f 2 7 8
f 2 8 3
f 2 5 9
f 2 9 10
f 2 10 11
f 2 11 6
f 3 8 12
f 3 12 13
f 3 13 4
f 4 14 15
f 4 15 5
f 4 13 14
f 5 15 16
f 5 16 9
f 6 11 35
f 6 35 71
f 6 71 118
f 6 118 169
f 6 169 203
f 6 203 214
f 6 214 218
f 6 218 225
f 6 225 224
f 6 224 226
f 6 226 219
f 6 219 207
f 6 207 204
f 6 204 170
f 6 170 120
f 6 120 77
f 6 77 42
f 6 42 17
f 6 17 18
f 6 18 7
f 7 18 19
f 7 19 20
f 7 20 8
f 8 20 21
f 8 21 22
f 8 22 12
f 9 16 23
f 9 23 24
f 9 24 25
f 9 25 26
f 9 26 27
f 9 27 28
f 9 28 29
f 9 29 30
f 9 30 31
f 9 31 10
f 10 31 32
f 10 32 33
f 10 33 66
f 10 66 111
f 10 111 162
f 10 162 196
f 10 196 163
f 10 163 112
f 10 112 67
f 10 67 34
f 10 34 11
f 11 34 35
f 12 22 36
f 12 36 13
f 13 36 37
f 13 37 38
f 13 38 14
f 14 38 39
f 14 39 40
f 14 40 15
f 15 41 16
f 15 40 41
f 16 41 23
f 17 19 18
f 17 42 43
f 17 43 19
f 19 43 44
f 19 44 45
f 19 45 46
f 19 46 47
f 19 47 48
f 19 48 20
f 20 48 21
f 21 48 49
f 21 49 22
f 22 49 36
f 23 50 51
f 23 51 52
f 23 52 24
f 23 41 50
f 24 52 53
f 24 53 54
f 24 54 55
f 24 55 25
f 25 56 26
f 25 55 57
f 25 57 56
f 26 56 27
f 27 56 58
f 27 58 28
f 28 58 59
f 28 59 60
f 28 60 29
f 29 60 61
f 29 61 30
f 30 61 31
f 31 61 32
f 32 61 62
f 32 62 63
f 32 63 64
f 32 64 65
f 32 65 33
f 33 65 66
f 34 67 68
f 34 68 35
f 35 68 69
f 35 69 70
f 35 70 71
f 36 49 37
f 37 72 38
f 37 49 72
f 38 72 73
f 38 73 39
f 39 73 40
f 40 73 41
f 41 73 74
f 41 74 50
f 42 75 76
f 42 76 43
f 42 77 78
f 42 78 75
f 43 76 75
f 43 75 44
f 44 75 45
f 45 75 78
f 45 78 79
f 45 79 80
f 45 80 46
f 46 80 81
f 46 81 82
f 46 82 83
f 46 83 47
f 47 83 84
f 47 84 48
f 48 72 49
f 48 84 72
f 50 85 86
f 50 86 87
f 50 87 51
f 50 74 88
f 50 88 85
f 51 87 89
f 51 89 52
f 52 89 53
f 53 89 90
f 53 90 91
f 53 91 92
f 53 92 54
f 54 92 93
f 54 93 94
f 54 94 55
f 55 94 95
f 55 95 57
f 56 57 96
f 56 96 97
f 56 97 98
f 56 98 58
f 57 95 96
f 58 98 99
f 58 99 59
f 59 100 101
f 59 101 60
f 59 99 102
f 59 102 100
f 60 101 103
f 60 103 104
f 60 104 105
f 60 105 106
f 60 106 61
f 61 106 62
f 62 64 63
f 62 106 107
f 62 107 64
f 64 107 108
f 64 108 65
f 65 108 66
f 66 108 109
f 66 109 110
f 66 110 111
f 67 112 68
f 68 112 113
f 68 113 114
f 68 114 115
f 68 115 69
f 69 115 116
f 69 116 70
f 70 116 117
f 70 117 118
f 70 118 119
f 70 119 71
f 71 119 118
f 72 84 73
f 73 84 83
f 73 83 74
f 74 83 88
f 77 120 121
f 77 121 79
f 77 79 78
f 79 121 80
f 80 120 122
f 80 122 81
f 80 121 120
f 81 123 124
f 81 124 125
f 81 125 126
f 81 126 82
f 81 122 123
f 82 126 87
f 82 87 86
f 82 86 85
f 82 85 88
f 82 88 83
f 87 126 127
f 87 127 89
f 89 127 128
f 89 128 90
f 90 128 129
f 90 129 91
f 91 130 131
f 91 131 92
f 91 129 130
f 92 131 132
f 92 132 133
f 92 133 93
f 93 133 134
f 93 134 94
f 94 134 135
f 94 135 136
f 94 136 137
f 94 137 138
f 94 138 95
f 95 138 139
f 95 139 96
f 96 140 141
f 96 141 142
f 96 142 97
f 96 139 140
f 97 142 143
f 97 143 144
f 97 144 98
f 98 145 146
f 98 146 147
f 98 147 99
f 98 144 145
f 99 147 102
f 100 148 149
f 100 149 150
f 100 150 101
f 100 102 151
f 100 151 148
f 101 150 149
f 101 149 152
f 101 152 103
f 102 147 153
f 102 153 151
f 103 152 154
f 103 154 155
f 103 155 104
f 104 155 156
f 104 156 157
f 104 157 105
f 105 157 106
f 106 157 158
f 106 158 108
f 106 108 107
f 108 158 159
f 108 159 109
f 109 116 160
f 109 160 110
f 109 159 156
f 109 156 161
f 109 161 116
f 110 162 111
f 110 160 162
f 112 163 113
f 113 163 164
f 113 164 115
f 113 115 114
f 115 164 160
f 115 160 116
f 116 161 165
f 116 165 166
f 116 166 117
f 117 166 167
f 117 167 168
f 117 168 169
f 117 169 118
f 120 170 122
f 122 170 171
f 122 171 172
f 122 172 123
f 123 172 124
f 124 172 173
f 124 173 174
f 124 174 175
f 124 175 176
f 124 176 177
f 124 177 178
f 124 178 125
f 125 178 129
f 125 129 126
f 126 129 127
f 127 129 128
f 129 178 130
f 130 178 179
f 130 179 131
f 131 179 132
f 132 135 134
f 132 134 133
f 132 179 135
f 135 180 136
f 135 179 180
f 136 181 137
f 136 180 181
f 137 181 182
f 137 182 138
f 138 182 183
f 138 183 139
f 139 183 140
f 140 184 141
f 140 183 185
f 140 185 186
f 140 186 184
f 141 184 142
f 142 187 143
f 142 184 188
f 142 188 189
f 142 189 187
f 143 187 144
f 144 187 145
f 145 187 146
f 146 190 191
f 146 191 192
f 146 192 153
f 146 153 147
f 146 187 190
f 148 151 192
f 148 192 193
f 148 193 194
f 148 194 149
f 149 194 154
f 149 154 152
f 151 153 192
f 154 156 155
f 154 194 156
f 156 194 161
f 156 159 157
f 157 159 158
f 160 164 162
f 161 195 165
f 161 194 195
f 162 164 196
f 163 196 164
f 165 197 166
f 165 195 191
f 165 191 198
f 165 198 199
f 165 199 200
f 165 200 197
f 166 197 167
f 167 197 201
f 167 201 168
f 168 202 169
f 168 201 202
f 169 202 203
f 170 204 171
f 171 204 173
f 171 173 172
f 173 204 174
f 174 204 205
f 174 205 175
f 175 206 207
f 175 207 176
f 175 205 206
f 176 207 208
f 176 208 209
f 176 209 210
f 176 210 177
f 177 210 211
f 177 211 180
f 177 180 178
f 178 180 179
f 180 211 181
f 181 211 183
f 181 183 182
f 183 211 186
f 183 186 185
f 184 186 188
f 186 211 188
f 187 189 190
f 188 212 198
f 188 198 189
f 188 211 212
f 189 198 190
f 190 198 191
f 191 195 193
f 191 193 192
f 193 195 194
f 197 213 214
f 197 214 201
f 197 200 213
f 198 212 199
f 199 215 216
f 199 216 200
f 199 212 217
f 199 217 215
f 200 216 215
f 200 215 218
f 200 218 213
f 201 203 202
f 201 214 203
f 204 207 206
f 204 206 205
f 207 219 220
f 207 220 208
f 208 220 209
f 209 220 221
f 209 221 219
f 209 219 222
f 209 222 210
f 210 222 212
f 210 212 211
f 212 223 217
f 212 222 223
f 213 218 214
f 215 217 224
f 215 224 225
f 215 225 218
f 217 223 224
f 219 226 227
f 219 227 222
f 219 221 220
f 222 227 223
f 223 228 224
f 223 227 226
f 223 226 228
f 224 228 226
