v -9.5182e-05 0.429276 -0.154339
v 0.00588094 0.429276 -0.154339
v -9.5182e-05 0.429276 -0.103089
v -9.5182e-05 0.551318 -0.282891
v 0.00854375 0.429276 -0.154
v 0.00588094 0.551318 -0.282891
v 0.017625 0.551868 -0.282305
v 0.0236879 0.552195 -0.281989
v 0.0884538 0.429276 -0.052516
v 0.0885145 0.429329 -0.0524483
v -9.5182e-05 0.429787 -0.103314
v -9.5182e-05 0.555245 -0.282891
v 0.017625 0.429276 -0.152827
v 0.00588094 0.555245 -0.282891
v 0.017625 0.553465 -0.282305
v 0.0236879 0.5523 -0.281989
v 0.0834491 0.551789 -0.270666
v 0.0763628 0.550912 -0.271681
v 0.0646187 0.550009 -0.272876
v 0.0293778 0.429276 -0.151248
v 0.0253879 0.429276 -0.15179
v 0.0885145 0.429276 -0.0525385
v -9.5182e-05 0.536721 -0.154857
v -9.5182e-05 0.530842 -0.151609
v -9.5182e-05 0.522843 -0.147571
v -9.5182e-05 0.513168 -0.142835
v -9.5182e-05 0.50729 -0.140015
v -9.5182e-05 0.503245 -0.138075
v -9.5182e-05 0.483254 -0.128533
v -9.5182e-05 0.470358 -0.122398
v -9.5182e-05 0.459152 -0.117074
v -9.5182e-05 0.452357 -0.113871
v -9.5182e-05 0.439841 -0.108006
v 0.0885145 0.533461 -0.12427
v -9.5182e-05 0.545819 -0.160722
v -9.5182e-05 0.557916 -0.27944
v 0.00588094 0.560495 -0.276102
v 0.0646187 0.556882 -0.272876
v 0.0763628 0.555664 -0.271681
v 0.0834491 0.553766 -0.270666
v 0.0885145 0.549262 -0.264462
v 0.0787133 0.429276 -0.132661
v 0.0769092 0.429276 -0.133789
v 0.0652172 0.429276 -0.139496
v 0.0532129 0.429276 -0.144526
v 0.0406708 0.429276 -0.14888
v 0.040081 0.429276 -0.149083
v 0.0363167 0.429276 -0.14985
v 0.0885145 0.429276 -0.111976
v 0.0885145 0.540386 -0.129165
v -9.5182e-05 0.548713 -0.16282
v -9.5182e-05 0.560495 -0.276102
v 0.0646187 0.562249 -0.26435
v 0.00588094 0.562865 -0.26435
v 0.0293778 0.562708 -0.26435
v 0.0411305 0.562603 -0.26435
v 0.0528659 0.562459 -0.26435
v 0.0763628 0.560914 -0.26435
v 0.0885145 0.557118 -0.264462
v 0.0885145 0.42929 -0.125984
v 0.0885059 0.429276 -0.125984
v 0.0880548 0.429276 -0.126368
v 0.0871528 0.429276 -0.126999
v 0.0885145 0.546042 -0.134037
v -9.5182e-05 0.551698 -0.164986
v -9.5182e-05 0.562865 -0.26435
v 0.0763628 0.562878 -0.252597
v 0.0881155 0.562629 -0.252597
v 0.0885145 0.562603 -0.252597
v 0.0411305 0.563022 -0.252597
v 0.0528659 0.563009 -0.252597
v 0.0646187 0.562983 -0.252597
v 0.0885145 0.546854 -0.134759
v -9.5182e-05 0.553818 -0.16785
v 0.0885145 0.552535 -0.140376
v -9.5182e-05 0.563022 -0.252597
v 0.0885145 0.563009 -0.240845
v 0.0763628 0.563022 -0.240845
v -9.5182e-05 0.555965 -0.170828
v 0.0885145 0.555533 -0.145158
v -9.5182e-05 0.563022 -0.217363
v 0.0885145 0.563022 -0.229093
v -9.5182e-05 0.561137 -0.182106
v 0.0885145 0.556162 -0.146376
v -9.5182e-05 0.563009 -0.205611
v 0.0881155 0.563022 -0.193859
v 0.0885145 0.563022 -0.193859
v -9.5182e-05 0.562786 -0.193859
v 0.0885145 0.561058 -0.158624
v 0.0763628 0.562943 -0.182106
v 0.0881155 0.562996 -0.182106
v 0.0885145 0.562996 -0.182106
v 0.0881155 0.562668 -0.170354
v 0.0885145 0.562682 -0.170354
f 1 2 5
f 1 5 13
f 1 13 21
f 1 21 20
f 1 20 48
f 1 48 47
f 1 47 46
f 1 46 45
f 1 45 44
f 1 44 43
f 1 43 42
f 1 42 63
f 1 63 62
f 1 62 61
f 1 61 49
f 1 49 22
f 1 22 9
f 1 9 3
f 1 3 11
f 1 11 33
f 1 33 32
f 1 32 31
f 1 31 30
f 1 30 29
f 1 29 28
f 1 28 27
f 1 27 26
f 1 26 25
f 1 25 24
f 1 24 23
f 1 23 35
f 1 35 51
f 1 51 65
f 1 65 74
f 1 74 79
f 1 79 83
f 1 83 88
f 1 88 85
f 1 85 81
f 1 81 76
f 1 76 66
f 1 66 52
f 1 52 36
f 1 36 12
f 1 12 4
f 1 4 6
f 1 6 2
f 2 6 7
f 2 7 8
f 2 8 5
f 3 9 10
f 3 10 11
f 4 12 14
f 4 14 6
f 5 8 13
f 6 14 15
f 6 15 7
f 7 15 16
f 7 16 8
f 8 16 40
f 8 40 17
f 8 17 18
f 8 18 19
f 8 19 20
f 8 20 21
f 8 21 13
f 9 22 10
f 10 23 24
f 10 24 25
f 10 25 26
f 10 26 27
f 10 27 28
f 10 28 29
f 10 29 30
f 10 30 31
f 10 31 32
f 10 32 33
f 10 33 11
f 10 22 49
f 10 49 60
f 10 60 41
f 10 41 59
f 10 59 69
f 10 69 77
f 10 77 82
f 10 82 87
f 10 87 92
f 10 92 94
f 10 94 89
f 10 89 84
f 10 84 80
f 10 80 75
f 10 75 73
f 10 73 64
f 10 64 50
f 10 50 34
f 10 34 35
f 10 35 23
f 12 36 14
f 14 36 37
f 14 37 38
f 14 38 15
f 15 38 16
f 16 38 39
f 16 39 40
f 17 40 59
f 17 59 41
f 17 41 42
f 17 42 43
f 17 43 44
f 17 44 45
f 17 45 46
f 17 46 47
f 17 47 18
f 18 47 48
f 18 48 20
f 18 20 19
f 34 50 35
f 35 50 51
f 36 52 37
f 37 53 38
f 37 52 66
f 37 66 54
f 37 54 55
f 37 55 56
f 37 56 57
f 37 57 53
f 38 53 58
f 38 58 39
f 39 58 59
f 39 59 40
f 41 60 61
f 41 61 62
f 41 62 63
f 41 63 42
f 49 61 60
f 50 64 65
f 50 65 51
f 53 57 67
f 53 67 68
f 53 68 69
f 53 69 58
f 54 66 76
f 54 76 70
f 54 70 71
f 54 71 72
f 54 72 55
f 55 72 56
f 56 72 67
f 56 67 57
f 58 69 59
f 64 73 65
f 65 73 75
f 65 75 74
f 67 72 77
f 67 77 68
f 68 77 69
f 70 76 81
f 70 81 86
f 70 86 87
f 70 87 82
f 70 82 78
f 70 78 77
f 70 77 71
f 71 77 72
f 74 75 79
f 75 80 79
f 77 78 82
f 79 80 84
f 79 84 83
f 81 85 86
f 83 84 89
f 83 89 88
f 85 88 90
f 85 90 91
f 85 91 86
f 86 91 92
f 86 92 87
f 88 89 93
f 88 93 94
f 88 94 90
f 89 94 93
f 90 94 91
f 91 94 92
