v -0.00589364 0.551318 -0.282891
v -0.0176458 0.551868 -0.282301
v -0.00589364 0.555245 -0.282891
v -9.51908e-05 0.551318 -0.282891
v -0.00589364 0.429276 -0.154353
v -0.0237031 0.552195 -0.281996
v -0.0176458 0.553465 -0.282301
v -0.00589364 0.560495 -0.27611
v -9.51908e-05 0.557916 -0.279444
v -9.51908e-05 0.555245 -0.282891
v -0.0646288 0.556882 -0.272891
v -9.51908e-05 0.429276 -0.154353
v -0.0176458 0.429276 -0.152829
v -0.0237031 0.5523 -0.281996
v -0.0305888 0.429276 -0.151095
v -0.0646288 0.550009 -0.272891
v -0.076381 0.550912 -0.271691
v -0.0834737 0.551789 -0.270681
v -0.029398 0.562708 -0.264357
v -0.00589364 0.562865 -0.264357
v -9.51908e-05 0.560495 -0.27611
v -0.0646288 0.562249 -0.264357
v -0.0528766 0.562459 -0.264357
v -0.0411244 0.562603 -0.264357
v -0.076381 0.555664 -0.271691
v -0.076381 0.560914 -0.264357
v -9.51908e-05 0.429276 -0.103074
v -0.0834737 0.553766 -0.270681
v -0.03939 0.429276 -0.149248
v -0.0400889 0.429276 -0.149095
v -0.053239 0.429276 -0.144505
v -0.141381 0.551986 -0.246966
v -0.076381 0.562878 -0.252604
v -0.0646288 0.562983 -0.252604
v -9.51908e-05 0.562865 -0.264357
v -0.0528766 0.563009 -0.252604
v -0.0411244 0.563022 -0.252604
v -0.0998854 0.561909 -0.252604
v -0.12339 0.562341 -0.240852
v -0.0881332 0.562629 -0.252604
v -0.108583 0.5548 -0.259424
v -0.0998854 0.556594 -0.261119
v -0.135116 0.560325 -0.240852
v -0.052773 0.429276 -0.0883117
v -9.51908e-05 0.445851 -0.110808
v -0.134391 0.546291 -0.0883117
v -0.129266 0.540282 -0.0883117
v -0.124555 0.533696 -0.0883117
v -0.141381 0.553098 -0.246966
v -0.0540673 0.429276 -0.144162
v -0.188208 0.552077 -0.21165
v -0.0657419 0.429276 -0.139247
v -0.0661819 0.429276 -0.139057
v -0.0769246 0.429276 -0.133799
v -0.0776753 0.429276 -0.133361
v -0.083189 0.429276 -0.130009
v -0.0890133 0.429276 -0.125628
v -0.111638 0.562747 -0.240852
v -0.135116 0.562812 -0.229099
v -0.0998854 0.56293 -0.240852
v -0.12339 0.56297 -0.229099
v -0.0881332 0.563009 -0.240852
v -9.51908e-05 0.563022 -0.252604
v -0.111638 0.563022 -0.229099
v -0.146842 0.561948 -0.229099
v -0.135116 0.555128 -0.248071
v -0.145911 0.556293 -0.240337
v -0.158336 0.557628 -0.229099
v -0.126185 0.429276 -0.0883117
v -9.51908e-05 0.452357 -0.113856
v -0.134831 0.546775 -0.0883117
v -9.51908e-05 0.455696 -0.115437
v -0.188208 0.552784 -0.21165
v -0.154246 0.554748 -0.23607
v -0.200608 0.551554 -0.200602
v -0.0967791 0.429276 -0.119685
v -0.102655 0.429276 -0.115094
v -0.102914 0.429276 -0.114884
v -0.158595 0.562407 -0.217346
v -0.170347 0.562642 -0.205612
v -0.182099 0.562799 -0.193859
v -0.146842 0.562904 -0.217346
v -0.158595 0.562956 -0.205612
v -0.135116 0.563022 -0.217346
v -9.51908e-05 0.563022 -0.217346
v -0.193851 0.561608 -0.193859
v -0.192816 0.5559 -0.204945
v -0.264546 0.549236 -0.0883117
v -0.25942 0.551383 -0.10856
v -0.246969 0.551986 -0.1414
v -0.211635 0.552077 -0.188202
v -0.119688 0.429276 -0.0967692
v -0.140423 0.55247 -0.0883117
v -9.51908e-05 0.459152 -0.117075
v -9.51908e-05 0.483254 -0.128523
v -9.51908e-05 0.50729 -0.140009
v -9.51908e-05 0.510184 -0.1414
v -9.51908e-05 0.513168 -0.142847
v -9.51908e-05 0.522843 -0.147571
v -9.51908e-05 0.530842 -0.15161
v -0.200608 0.554447 -0.200602
v -0.109256 0.429276 -0.109246
v -0.115313 0.429276 -0.102427
v -0.182099 0.563009 -0.182125
v -0.193851 0.562799 -0.182125
v -0.205604 0.563022 -0.146886
v -9.51908e-05 0.563009 -0.205612
v -0.193851 0.563022 -0.0883117
v -0.204956 0.5559 -0.192811
v -0.229108 0.557628 -0.158353
v -0.229108 0.561948 -0.146886
v -0.217356 0.562407 -0.158619
v -0.205604 0.562642 -0.170372
v -0.264546 0.557131 -0.0883117
v -0.25942 0.5548 -0.10856
v -0.246969 0.553098 -0.1414
v -0.211635 0.552784 -0.188202
v -0.145548 0.555677 -0.0883117
v -9.51908e-05 0.533736 -0.153191
v -9.51908e-05 0.536721 -0.154848
v -9.51908e-05 0.541198 -0.157743
v -9.51908e-05 0.545819 -0.160734
v -9.51908e-05 0.551698 -0.164982
v -0.236071 0.554748 -0.154257
v -0.205604 0.562956 -0.158619
v -0.217356 0.563022 -0.135133
v -0.229108 0.562812 -0.135133
v -0.217356 0.562904 -0.146886
v -9.51908e-05 0.562786 -0.193859
v -0.181918 0.562996 -0.0883117
v -0.229108 0.563022 -0.0883117
v -0.240342 0.556293 -0.145933
v -0.24086 0.560325 -0.135133
v -0.24086 0.562341 -0.12338
v -0.264106 0.557406 -0.0883117
v -0.261129 0.556594 -0.0998741
v -0.248056 0.555128 -0.135133
v -0.145962 0.555926 -0.0883117
v -9.51908e-05 0.553818 -0.167858
v -0.229108 0.56297 -0.12338
v -0.229108 0.563022 -0.111627
v -0.24086 0.562747 -0.111627
v -0.24086 0.56293 -0.0998741
v -9.51908e-05 0.561137 -0.182125
v -0.170347 0.562682 -0.0883117
v -0.170192 0.562668 -0.0883117
v -0.24086 0.563009 -0.0883117
v -0.252586 0.561909 -0.0998741
v -0.252586 0.562616 -0.0883117
v -0.252431 0.562629 -0.0883117
v -0.158439 0.560993 -0.0883117
v -9.51908e-05 0.555965 -0.170849
v -0.158595 0.561032 -0.0883117
f 1 2 7
f 1 7 3
f 1 3 10
f 1 10 4
f 1 4 12
f 1 12 5
f 1 5 2
f 2 6 14
f 2 14 7
f 2 5 6
f 3 8 9
f 3 9 10
f 3 7 11
f 3 11 8
f 4 10 9
f 4 9 21
f 4 21 35
f 4 35 63
f 4 63 85
f 4 85 107
f 4 107 129
f 4 129 144
f 4 144 152
f 4 152 139
f 4 139 123
f 4 123 122
f 4 122 121
f 4 121 120
f 4 120 119
f 4 119 100
f 4 100 99
f 4 99 98
f 4 98 97
f 4 97 96
f 4 96 95
f 4 95 94
f 4 94 72
f 4 72 70
f 4 70 45
f 4 45 27
f 4 27 12
f 5 12 27
f 5 27 44
f 5 44 69
f 5 69 92
f 5 92 103
f 5 103 102
f 5 102 78
f 5 78 77
f 5 77 76
f 5 76 57
f 5 57 56
f 5 56 55
f 5 55 54
f 5 54 53
f 5 53 52
f 5 52 50
f 5 50 31
f 5 31 30
f 5 30 29
f 5 29 15
f 5 15 13
f 5 13 6
f 6 13 15
f 6 15 16
f 6 16 17
f 6 17 18
f 6 18 28
f 6 28 14
f 7 14 11
f 8 19 20
f 8 20 35
f 8 35 21
f 8 21 9
f 8 11 22
f 8 22 23
f 8 23 24
f 8 24 19
f 11 25 26
f 11 26 22
f 11 14 25
f 14 28 25
f 15 29 17
f 15 17 16
f 17 29 30
f 17 30 18
f 18 30 31
f 18 31 32
f 18 32 49
f 18 49 28
f 19 24 33
f 19 33 34
f 19 34 20
f 20 34 36
f 20 36 37
f 20 37 63
f 20 63 35
f 22 26 38
f 22 38 39
f 22 39 40
f 22 40 33
f 22 33 23
f 23 33 24
f 25 28 41
f 25 41 42
f 25 42 26
f 26 42 43
f 26 43 38
f 27 45 46
f 27 46 47
f 27 47 48
f 27 48 44
f 28 49 41
f 31 50 32
f 32 51 73
f 32 73 49
f 32 50 52
f 32 52 53
f 32 53 54
f 32 54 55
f 32 55 56
f 32 56 57
f 32 57 51
f 33 40 58
f 33 58 59
f 33 59 60
f 33 60 34
f 34 60 61
f 34 61 62
f 34 62 36
f 36 62 64
f 36 64 37
f 37 64 84
f 37 84 106
f 37 106 126
f 37 126 141
f 37 141 131
f 37 131 108
f 37 108 85
f 37 85 63
f 38 43 39
f 39 43 65
f 39 65 59
f 39 59 58
f 39 58 40
f 41 49 66
f 41 66 42
f 42 66 43
f 43 66 67
f 43 67 68
f 43 68 65
f 44 48 47
f 44 47 46
f 44 46 71
f 44 71 93
f 44 93 118
f 44 118 138
f 44 138 151
f 44 151 153
f 44 153 146
f 44 146 145
f 44 145 130
f 44 130 108
f 44 108 131
f 44 131 147
f 44 147 150
f 44 150 149
f 44 149 135
f 44 135 114
f 44 114 88
f 44 88 69
f 45 70 46
f 46 70 72
f 46 72 71
f 49 73 74
f 49 74 67
f 49 67 66
f 51 75 101
f 51 101 73
f 51 57 76
f 51 76 77
f 51 77 78
f 51 78 75
f 59 65 79
f 59 79 80
f 59 80 81
f 59 81 82
f 59 82 61
f 59 61 60
f 61 82 83
f 61 83 84
f 61 84 64
f 61 64 62
f 65 68 86
f 65 86 79
f 67 74 68
f 68 74 87
f 68 87 86
f 69 88 89
f 69 89 90
f 69 90 91
f 69 91 92
f 71 72 94
f 71 94 95
f 71 95 96
f 71 96 97
f 71 97 98
f 71 98 99
f 71 99 100
f 71 100 93
f 73 101 74
f 74 101 87
f 75 91 117
f 75 117 101
f 75 78 102
f 75 102 103
f 75 103 91
f 79 86 80
f 80 86 81
f 81 104 83
f 81 83 82
f 81 86 105
f 81 105 104
f 83 104 84
f 84 104 106
f 85 108 107
f 86 101 109
f 86 109 110
f 86 110 111
f 86 111 112
f 86 112 113
f 86 113 105
f 86 87 101
f 88 114 115
f 88 115 89
f 89 115 116
f 89 116 90
f 90 116 117
f 90 117 91
f 91 103 92
f 93 100 119
f 93 119 120
f 93 120 121
f 93 121 122
f 93 122 123
f 93 123 118
f 101 117 124
f 101 124 109
f 104 105 125
f 104 125 126
f 104 126 106
f 105 113 127
f 105 127 128
f 105 128 125
f 107 108 130
f 107 130 129
f 109 124 110
f 110 124 132
f 110 132 133
f 110 133 111
f 111 133 134
f 111 134 127
f 111 127 112
f 112 127 113
f 114 135 136
f 114 136 115
f 115 136 137
f 115 137 116
f 116 137 132
f 116 132 124
f 116 124 117
f 118 123 138
f 123 139 138
f 125 128 126
f 126 128 140
f 126 140 141
f 127 134 142
f 127 142 143
f 127 143 140
f 127 140 128
f 129 130 145
f 129 145 146
f 129 146 144
f 131 141 147
f 132 137 133
f 133 137 136
f 133 136 148
f 133 148 134
f 134 148 149
f 134 149 150
f 134 150 142
f 135 149 148
f 135 148 136
f 138 139 151
f 139 152 151
f 140 143 147
f 140 147 141
f 142 150 143
f 143 150 147
f 144 146 153
f 144 153 151
f 144 151 152
