v -9.51908e-05 0.363788 -0.0764858
v -9.51908e-05 0.36414 -0.0765765
v -0.0764459 0.363788 8.00727e-05
v -9.51908e-05 0.363788 -0.142818
v -9.51908e-05 0.370109 -0.0781335
v -0.0781369 0.370109 8.00727e-05
v -0.142832 0.363788 8.00727e-05
v -0.00587773 0.363788 -0.142818
v -9.51908e-05 0.429276 -0.154337
v -9.51908e-05 0.378841 -0.0811418
v -0.0811414 0.378841 8.00727e-05
v -0.154337 0.429276 8.00727e-05
v -0.142832 0.363788 -0.00587589
v -0.0106336 0.363788 -0.142213
v -0.00587773 0.429276 -0.154337
v -9.51908e-05 0.429276 -0.103061
v -9.51908e-05 0.381726 -0.0822604
v -0.0823039 0.381822 8.00727e-05
v -0.103064 0.429276 8.00727e-05
v -0.154337 0.429276 -0.00587589
v -0.15334 0.429276 -0.0134947
v -0.152797 0.429276 -0.0176367
v -0.141533 0.363788 -0.0157471
v -0.0157518 0.363788 -0.141533
v -0.0176391 0.429276 -0.15281
v -9.51908e-05 0.423532 -0.10034
v -0.0967376 0.415929 8.00727e-05
v -9.51908e-05 0.384713 -0.0834395
v -0.0834363 0.384713 8.00727e-05
v -0.151242 0.429276 -0.0293823
v -0.139707 0.363788 -0.0293823
v -0.0250069 0.363788 -0.140293
v -0.0293854 0.429276 -0.151238
v -9.51908e-05 0.415929 -0.0967421
v -0.0922082 0.405838 8.00727e-05
v -9.51908e-05 0.393605 -0.0870977
v -0.08709 0.393605 8.00727e-05
v -0.151075 0.429276 -0.0305916
v -0.138136 0.363788 -0.0357011
v -0.149067 0.429276 -0.0400849
v -0.0293854 0.363788 -0.139704
v -0.0305932 0.429276 -0.151071
v -9.51908e-05 0.405838 -0.0922071
v -9.51908e-05 0.399074 -0.0893803
v -0.136778 0.363788 -0.0411279
v -0.144493 0.429276 -0.0532213
v -0.0411316 0.363788 -0.136771
v -0.0400899 0.429276 -0.149076
v -0.0393803 0.429276 -0.149227
v -0.134317 0.363788 -0.0474618
v -0.1295 0.363788 -0.0593738
v -0.132203 0.363788 -0.0528736
v -0.13948 0.429276 -0.0652239
v -0.0528779 0.363788 -0.132206
v -0.0532251 0.429276 -0.144496
v -0.126934 0.363788 -0.0652541
v -0.139239 0.429276 -0.0657379
v -0.0559428 0.363788 -0.130936
v -0.0540706 0.429276 -0.144148
v -0.133773 0.429276 -0.0769242
v -0.123763 0.363788 -0.0708624
v -0.05937 0.363788 -0.1295
v -0.0661943 0.429276 -0.139039
v -0.121045 0.363788 -0.0756242
v -0.129983 0.429276 -0.0831674
v -0.0620877 0.363788 -0.128321
v -0.0652432 0.363788 -0.12693
v -0.0769139 0.429276 -0.133778
v -0.116909 0.363788 -0.0814743
v -0.12636 0.429276 -0.0880501
v -0.0756155 0.363788 -0.12105
v -0.0776537 0.429276 -0.13334
v -0.111836 0.363788 -0.0881105
v -0.109012 0.363788 -0.0917839
v -0.119656 0.429276 -0.0967421
v -0.106536 0.363788 -0.0950037
v -0.0783181 0.363788 -0.119145
v -0.0831645 0.429276 -0.129984
v -0.115278 0.429276 -0.102396
v -0.115082 0.429276 -0.102638
v -0.109224 0.429276 -0.109229
v -0.100875 0.363788 -0.100869
v -0.0814736 0.363788 -0.116908
v -0.0890075 0.429276 -0.125615
v -0.102883 0.429276 -0.114867
v -0.0950014 0.363788 -0.106538
v -0.0977039 0.363788 -0.103938
v -0.0845083 0.363788 -0.114595
v -0.0967528 0.429276 -0.119659
v -0.0881167 0.363788 -0.111829
v -0.102641 0.429276 -0.115079
f 1 2 3
f 1 3 7
f 1 7 13
f 1 13 23
f 1 23 31
f 1 31 39
f 1 39 45
f 1 45 50
f 1 50 52
f 1 52 51
f 1 51 56
f 1 56 61
f 1 61 64
f 1 64 69
f 1 69 73
f 1 73 74
f 1 74 76
f 1 76 82
f 1 82 87
f 1 87 86
f 1 86 90
f 1 90 88
f 1 88 83
f 1 83 77
f 1 77 71
f 1 71 67
f 1 67 66
f 1 66 62
f 1 62 58
f 1 58 54
f 1 54 47
f 1 47 41
f 1 41 32
f 1 32 24
f 1 24 14
f 1 14 8
f 1 8 4
f 1 4 9
f 1 9 16
f 1 16 26
f 1 26 34
f 1 34 43
f 1 43 44
f 1 44 36
f 1 36 28
f 1 28 17
f 1 17 10
f 1 10 5
f 1 5 2
f 2 5 3
f 3 6 11
f 3 11 18
f 3 18 29
f 3 29 37
f 3 37 35
f 3 35 27
f 3 27 19
f 3 19 12
f 3 12 7
f 3 5 6
f 4 8 15
f 4 15 9
f 5 10 6
f 6 10 11
f 7 12 20
f 7 20 13
f 8 14 15
f 9 15 25
f 9 25 33
f 9 33 42
f 9 42 49
f 9 49 48
f 9 48 55
f 9 55 59
f 9 59 63
f 9 63 68
f 9 68 72
f 9 72 78
f 9 78 84
f 9 84 89
f 9 89 91
f 9 91 85
f 9 85 81
f 9 81 80
f 9 80 79
f 9 79 75
f 9 75 70
f 9 70 65
f 9 65 60
f 9 60 57
f 9 57 53
f 9 53 46
f 9 46 40
f 9 40 38
f 9 38 30
f 9 30 22
f 9 22 21
f 9 21 20
f 9 20 12
f 9 12 19
f 9 19 16
f 10 17 11
f 11 17 18
f 13 20 21
f 13 21 22
f 13 22 23
f 14 24 25
f 14 25 15
f 16 19 27
f 16 27 26
f 17 28 29
f 17 29 18
f 22 30 23
f 23 30 31
f 24 32 33
f 24 33 25
f 26 27 34
f 27 35 34
f 28 36 29
f 29 36 37
f 30 38 31
f 31 38 40
f 31 40 39
f 32 41 33
f 33 41 42
f 34 35 43
f 35 37 43
f 36 44 37
f 37 44 43
f 39 40 45
f 40 46 45
f 41 47 48
f 41 48 49
f 41 49 42
f 45 46 50
f 46 51 52
f 46 52 50
f 46 53 51
f 47 54 55
f 47 55 48
f 51 53 56
f 53 57 56
f 54 58 59
f 54 59 55
f 56 57 60
f 56 60 61
f 58 62 59
f 59 62 63
f 60 64 61
f 60 65 64
f 62 66 63
f 63 66 67
f 63 67 68
f 64 65 69
f 65 70 69
f 67 71 68
f 68 71 72
f 69 70 73
f 70 74 73
f 70 75 76
f 70 76 74
f 71 77 78
f 71 78 72
f 75 79 76
f 76 79 80
f 76 80 81
f 76 81 82
f 77 83 78
f 78 83 84
f 81 85 86
f 81 86 87
f 81 87 82
f 83 88 84
f 84 88 90
f 84 90 86
f 84 86 89
f 85 91 86
f 86 91 89
