v -0.456497 0.0809154 0.230208
v -0.499369 0.0809154 0.288208
v -0.517339 0.0810284 0.247361
v -0.525308 0.0843259 0.230208
v -0.457194 0.311629 0.230208
v -0.338478 0.0809154 0.382933
v -0.505047 0.09991 0.287764
v -0.503932 0.0903563 0.285148
v -0.506023 0.0855229 0.277645
v -0.494429 0.0809154 0.296205
v -0.512259 0.0881429 0.264366
v -0.528994 0.0989388 0.230208
v -0.533675 0.300178 0.230208
v -0.527958 0.310567 0.237662
v -0.521443 0.311493 0.252766
v -0.511701 0.311629 0.276164
v -0.338478 0.311629 0.383871
v -0.338478 0.0995035 0.46749
v -0.339395 0.0845969 0.46248
v -0.388204 0.0809154 0.423829
v -0.512438 0.111655 0.276139
v -0.510187 0.09991 0.276139
v -0.493791 0.0881429 0.30008
v -0.503314 0.112919 0.295415
v -0.470343 0.0817059 0.327969
v -0.480742 0.0853648 0.315999
v -0.423446 0.0809154 0.388709
v -0.516522 0.0981257 0.259973
v -0.529073 0.110435 0.235515
v -0.53768 0.158475 0.230208
v -0.536106 0.288523 0.230208
v -0.529073 0.299568 0.241759
v -0.516403 0.300946 0.271549
v -0.516761 0.311493 0.26407
v -0.509749 0.299568 0.287887
v -0.505446 0.31147 0.290331
v -0.496521 0.311629 0.30314
v -0.43769 0.311629 0.379799
v -0.338877 0.311493 0.469119
v -0.338478 0.276079 0.478029
v -0.338478 0.1704 0.47909
v -0.339355 0.115562 0.470254
v -0.346646 0.111655 0.463985
v -0.35085 0.102507 0.458753
v -0.364218 0.0940829 0.446437
v -0.363002 0.0881429 0.445524
v -0.375235 0.0883235 0.436195
v -0.393005 0.0881429 0.422497
v -0.402787 0.0845291 0.41376
v -0.410078 0.0809154 0.405467
v -0.514311 0.159785 0.286727
v -0.517538 0.158204 0.278731
v -0.5222 0.111655 0.252643
v -0.481957 0.0932021 0.317603
v -0.494329 0.101514 0.304201
v -0.489986 0.111655 0.312741
v -0.493293 0.154003 0.317035
v -0.506083 0.158633 0.300993
v -0.434403 0.0833547 0.375504
v -0.435658 0.0911693 0.377133
v -0.414382 0.0881429 0.403542
v -0.530488 0.1704 0.251014
v -0.538815 0.16848 0.230307
v -0.540489 0.185307 0.230208
v -0.538078 0.276801 0.230208
v -0.515885 0.287823 0.279422
v -0.528356 0.289991 0.248349
v -0.512219 0.287823 0.287887
v -0.505764 0.302775 0.294551
v -0.469845 0.305079 0.34063
v -0.479248 0.311335 0.325797
v -0.420936 0.310386 0.402135
v -0.412389 0.311493 0.412402
v -0.40199 0.310386 0.42104
v -0.350491 0.309777 0.460777
v -0.339634 0.301171 0.471661
v -0.340949 0.287823 0.473907
v -0.363839 0.280144 0.457889
v -0.377844 0.276079 0.447869
v -0.364716 0.272307 0.458555
v -0.338478 0.264334 0.479806
v -0.338478 0.182145 0.480447
v -0.34559 0.1704 0.47366
v -0.341506 0.158633 0.475166
v -0.383343 0.158633 0.44308
v -0.406831 0.123399 0.41956
v -0.400815 0.109961 0.422077
v -0.398085 0.09991 0.42188
v -0.406293 0.0994809 0.415438
v -0.410158 0.0917114 0.410082
v -0.516642 0.182145 0.287172
v -0.515945 0.168909 0.285567
v -0.508872 0.180993 0.300795
v -0.524949 0.1704 0.264366
v -0.446456 0.0940829 0.364201
v -0.467932 0.09991 0.338113
v -0.45823 0.105647 0.352526
v -0.479627 0.111655 0.326291
v -0.469845 0.118475 0.34063
v -0.493831 0.16184 0.317776
v -0.42259 0.162134 0.410675
v -0.50696 0.171891 0.302178
v -0.42253 0.0881429 0.392954
v -0.421912 0.09991 0.398038
v -0.413684 0.101288 0.40907
v -0.528655 0.182777 0.258394
v -0.541226 0.196261 0.230208
v -0.536704 0.193889 0.240895
v -0.539293 0.267383 0.230208
v -0.533775 0.276079 0.240895
v -0.516243 0.276598 0.282951
v -0.527599 0.276079 0.255802
v -0.516343 0.264334 0.286505
v -0.506342 0.276079 0.301363
v -0.505286 0.287823 0.299907
v -0.50176 0.299568 0.300993
v -0.459007 0.307947 0.353563
v -0.470921 0.297264 0.342012
v -0.434363 0.304085 0.387228
v -0.422331 0.299568 0.40448
v -0.414222 0.299568 0.414179
v -0.407449 0.299568 0.420053
v -0.389041 0.301104 0.433776
v -0.36099 0.299568 0.455717
v -0.375713 0.292657 0.44624
v -0.376789 0.284819 0.447054
v -0.410497 0.27854 0.422373
v -0.411632 0.267519 0.423262
v -0.37898 0.264334 0.448757
v -0.352185 0.261217 0.469711
v -0.338877 0.252589 0.480842
v -0.338478 0.230591 0.482348
v -0.338478 0.205589 0.482126
v -0.338737 0.194928 0.481311
v -0.352822 0.190366 0.470205
v -0.357285 0.182619 0.466083
v -0.371748 0.182145 0.454952
v -0.352125 0.179028 0.469662
v -0.411732 0.173494 0.423311
v -0.392069 0.1704 0.437996
v -0.361807 0.161501 0.460012
v -0.410716 0.162134 0.422546
v -0.412828 0.111655 0.412797
v -0.510745 0.193889 0.299635
v -0.51706 0.193889 0.288208
v -0.503712 0.182574 0.308249
v -0.505984 0.193889 0.306521
v -0.424622 0.11057 0.397668
v -0.495126 0.182145 0.319429
v -0.42514 0.171687 0.409021
v -0.416453 0.158633 0.416425
v -0.41727 0.169587 0.41724
v -0.418207 0.182145 0.418153
v -0.423825 0.182145 0.412279
v -0.531843 0.193889 0.252643
v -0.541744 0.207463 0.230208
v -0.537301 0.205589 0.240895
v -0.542003 0.217333 0.230208
v -0.54025 0.252589 0.231664
v -0.528695 0.258258 0.258468
v -0.525547 0.264334 0.264366
v -0.516921 0.252589 0.287887
v -0.510446 0.252589 0.299635
v -0.506083 0.263182 0.304349
v -0.49409 0.273888 0.318097
v -0.493114 0.284774 0.316789
v -0.481758 0.293876 0.32908
v -0.421514 0.287823 0.409268
v -0.435419 0.296248 0.388585
v -0.415637 0.287823 0.415586
v -0.406373 0.287823 0.423731
v -0.416872 0.274611 0.416845
v -0.417788 0.264334 0.417733
v -0.415696 0.252589 0.421361
v -0.400615 0.250399 0.433677
v -0.405377 0.264334 0.428494
v -0.352922 0.250241 0.470279
v -0.346646 0.240845 0.475733
v -0.339136 0.240845 0.481459
v -0.338897 0.218959 0.48215
v -0.373003 0.229078 0.455915
v -0.353599 0.229078 0.470797
v -0.346646 0.217333 0.476227
v -0.35346 0.205589 0.470674
v -0.399779 0.201839 0.434911
v -0.399301 0.190275 0.434541
v -0.405377 0.182145 0.429136
v -0.41233 0.182145 0.42378
v -0.511382 0.205589 0.299635
v -0.517379 0.205589 0.288924
v -0.495624 0.193889 0.320071
v -0.504071 0.205589 0.309903
v -0.471797 0.184742 0.350132
v -0.429164 0.182145 0.405343
v -0.421593 0.193889 0.415858
v -0.412947 0.193889 0.424298
v -0.43281 0.205589 0.402801
v -0.433826 0.195131 0.400679
v -0.421972 0.205589 0.416302
v -0.517519 0.217333 0.289269
v -0.541047 0.229078 0.232306
v -0.540788 0.240845 0.232084
v -0.517479 0.229078 0.289195
v -0.529014 0.250421 0.259233
v -0.521822 0.252589 0.276139
v -0.517299 0.240845 0.288751
v -0.511243 0.240845 0.299635
v -0.506243 0.240845 0.306867
v -0.503593 0.252589 0.309261
v -0.490265 0.264334 0.324884
v -0.423287 0.267519 0.411588
v -0.424383 0.276869 0.408256
v -0.483531 0.276079 0.331375
v -0.446237 0.292657 0.375652
v -0.424163 0.252589 0.412723
v -0.416234 0.240845 0.421855
v -0.405656 0.240845 0.430419
v -0.400058 0.229078 0.435133
v -0.403066 0.217333 0.432937
v -0.413425 0.205589 0.424644
v -0.50425 0.217333 0.310125
v -0.511701 0.217333 0.299635
v -0.439902 0.205589 0.393571
v -0.49144 0.205589 0.326389
v -0.424841 0.217333 0.413587
v -0.430718 0.217333 0.40596
v -0.416553 0.217333 0.422126
v -0.511622 0.229078 0.299635
v -0.504211 0.229078 0.310075
v -0.495883 0.240845 0.320417
v -0.485085 0.252589 0.333399
v -0.469905 0.258078 0.352452
v -0.428526 0.264334 0.405343
v -0.424582 0.240845 0.413266
v -0.433726 0.250399 0.40058
v -0.416513 0.229078 0.422102
v -0.470861 0.217333 0.353662
v -0.49158 0.229078 0.326562
v -0.424801 0.229078 0.413537
v -0.4352 0.229078 0.400037
v -0.430479 0.240845 0.40564
f 1 2 3
f 1 3 4
f 1 4 12
f 1 12 30
f 1 30 64
f 1 64 107
f 1 107 156
f 1 156 158
f 1 158 109
f 1 109 65
f 1 65 31
f 1 31 13
f 1 13 5
f 1 5 6
f 1 6 20
f 1 20 50
f 1 50 27
f 1 27 10
f 1 10 2
f 2 7 8
f 2 8 9
f 2 9 3
f 2 10 7
f 3 9 11
f 3 11 4
f 4 11 12
f 5 13 14
f 5 14 15
f 5 15 16
f 5 16 37
f 5 37 38
f 5 38 17
f 5 17 6
f 6 17 40
f 6 40 81
f 6 81 132
f 6 132 133
f 6 133 82
f 6 82 41
f 6 41 18
f 6 18 19
f 6 19 20
f 7 21 22
f 7 22 8
f 7 10 23
f 7 23 24
f 7 24 21
f 8 22 9
f 9 22 11
f 10 25 26
f 10 26 23
f 10 27 25
f 11 22 28
f 11 28 12
f 12 29 30
f 12 28 29
f 13 31 32
f 13 32 14
f 14 32 33
f 14 33 34
f 14 34 15
f 15 34 16
f 16 34 33
f 16 33 35
f 16 35 36
f 16 36 37
f 17 38 39
f 17 39 40
f 18 41 42
f 18 42 43
f 18 43 44
f 18 44 45
f 18 45 19
f 19 45 46
f 19 46 20
f 20 46 47
f 20 47 48
f 20 48 49
f 20 49 50
f 21 24 51
f 21 51 52
f 21 52 53
f 21 53 22
f 22 53 29
f 22 29 28
f 23 26 54
f 23 54 55
f 23 55 24
f 24 55 56
f 24 56 57
f 24 57 58
f 24 58 51
f 25 59 26
f 25 27 59
f 26 59 60
f 26 60 54
f 27 50 61
f 27 61 59
f 29 53 30
f 30 53 52
f 30 52 62
f 30 62 63
f 30 63 64
f 31 65 66
f 31 66 67
f 31 67 32
f 32 67 33
f 33 66 35
f 33 67 66
f 35 66 68
f 35 68 69
f 35 69 36
f 36 69 37
f 37 69 70
f 37 70 71
f 37 71 38
f 38 71 72
f 38 72 73
f 38 73 39
f 39 73 74
f 39 74 75
f 39 75 76
f 39 76 40
f 40 76 77
f 40 77 78
f 40 78 79
f 40 79 80
f 40 80 81
f 41 82 83
f 41 83 84
f 41 84 42
f 42 84 85
f 42 85 86
f 42 86 87
f 42 87 43
f 43 87 44
f 44 87 88
f 44 88 45
f 45 47 46
f 45 88 89
f 45 89 48
f 45 48 47
f 48 89 49
f 49 89 90
f 49 90 50
f 50 90 61
f 51 91 92
f 51 92 52
f 51 58 93
f 51 93 91
f 52 94 62
f 52 92 94
f 54 60 95
f 54 95 96
f 54 96 55
f 55 96 97
f 55 97 98
f 55 98 56
f 56 98 99
f 56 99 57
f 57 100 58
f 57 99 101
f 57 101 100
f 58 100 102
f 58 102 93
f 59 61 103
f 59 103 60
f 60 103 61
f 60 61 104
f 60 104 95
f 61 90 105
f 61 105 104
f 62 106 63
f 62 94 106
f 63 106 64
f 64 106 108
f 64 108 107
f 65 109 110
f 65 110 66
f 66 111 68
f 66 110 112
f 66 112 111
f 68 111 113
f 68 113 114
f 68 114 115
f 68 115 69
f 69 115 116
f 69 116 70
f 70 117 71
f 70 116 118
f 70 118 119
f 70 119 72
f 70 72 117
f 71 117 72
f 72 119 120
f 72 120 73
f 73 120 121
f 73 121 122
f 73 122 74
f 74 122 123
f 74 123 75
f 75 123 76
f 76 123 124
f 76 124 125
f 76 125 77
f 77 125 126
f 77 126 78
f 78 126 127
f 78 127 79
f 79 127 128
f 79 128 80
f 80 129 81
f 80 128 129
f 81 130 131
f 81 131 132
f 81 129 130
f 82 133 134
f 82 134 135
f 82 135 136
f 82 136 137
f 82 137 138
f 82 138 83
f 83 138 139
f 83 139 140
f 83 140 141
f 83 141 84
f 84 141 85
f 85 141 142
f 85 142 86
f 86 142 143
f 86 143 87
f 87 143 89
f 87 89 88
f 89 143 90
f 90 143 105
f 91 93 144
f 91 144 145
f 91 145 106
f 91 106 94
f 91 94 92
f 93 102 146
f 93 146 147
f 93 147 144
f 95 104 96
f 96 104 97
f 97 104 148
f 97 148 98
f 98 148 99
f 99 148 101
f 100 149 146
f 100 146 102
f 100 101 150
f 100 150 149
f 101 148 143
f 101 143 151
f 101 151 152
f 101 152 153
f 101 153 154
f 101 154 150
f 104 105 148
f 105 143 148
f 106 155 108
f 106 145 155
f 107 108 157
f 107 157 156
f 108 155 157
f 109 158 159
f 109 159 160
f 109 160 161
f 109 161 110
f 110 161 112
f 111 112 113
f 112 161 113
f 113 161 160
f 113 160 162
f 113 162 163
f 113 163 114
f 114 163 164
f 114 164 165
f 114 165 166
f 114 166 115
f 115 166 167
f 115 167 116
f 116 167 118
f 118 167 120
f 118 120 119
f 120 168 121
f 120 167 169
f 120 169 168
f 121 170 127
f 121 127 122
f 121 168 170
f 122 127 171
f 122 171 125
f 122 125 124
f 122 124 123
f 125 171 126
f 126 171 127
f 127 170 172
f 127 172 128
f 128 172 173
f 128 173 174
f 128 174 175
f 128 175 176
f 128 176 129
f 129 176 130
f 130 176 175
f 130 175 131
f 131 175 177
f 131 177 178
f 131 178 179
f 131 179 132
f 132 180 133
f 132 179 178
f 132 178 181
f 132 181 182
f 132 182 180
f 133 180 183
f 133 183 184
f 133 184 134
f 134 184 185
f 134 185 186
f 134 186 135
f 135 186 137
f 135 137 136
f 137 186 187
f 137 187 139
f 137 139 138
f 139 188 153
f 139 153 152
f 139 152 151
f 139 151 143
f 139 143 142
f 139 142 140
f 139 187 188
f 140 142 141
f 144 147 189
f 144 189 190
f 144 190 145
f 145 190 155
f 146 149 191
f 146 191 147
f 147 191 192
f 147 192 189
f 149 193 191
f 149 150 194
f 149 194 193
f 150 154 194
f 153 195 154
f 153 188 196
f 153 196 195
f 154 197 198
f 154 198 194
f 154 195 199
f 154 199 197
f 155 190 157
f 156 157 158
f 157 190 200
f 157 200 158
f 158 201 202
f 158 202 159
f 158 200 203
f 158 203 201
f 159 202 204
f 159 204 160
f 160 204 205
f 160 205 162
f 162 205 204
f 162 204 206
f 162 206 163
f 163 207 208
f 163 208 209
f 163 209 164
f 163 206 207
f 164 209 210
f 164 210 165
f 165 210 211
f 165 211 212
f 165 212 213
f 165 213 166
f 166 213 212
f 166 212 168
f 166 168 167
f 167 214 169
f 167 168 214
f 168 212 211
f 168 211 170
f 168 169 214
f 170 211 172
f 172 211 173
f 173 211 215
f 173 215 174
f 174 216 217
f 174 217 175
f 174 215 216
f 175 217 178
f 175 178 177
f 178 217 181
f 180 182 183
f 181 217 218
f 181 218 219
f 181 219 183
f 181 183 182
f 183 219 184
f 184 219 220
f 184 220 185
f 185 220 196
f 185 196 186
f 186 196 188
f 186 188 187
f 189 192 221
f 189 221 222
f 189 222 200
f 189 200 190
f 191 193 198
f 191 198 223
f 191 223 224
f 191 224 192
f 192 224 221
f 193 194 198
f 195 196 199
f 196 220 199
f 197 223 198
f 197 199 225
f 197 225 226
f 197 226 223
f 199 227 225
f 199 220 227
f 200 222 228
f 200 228 203
f 201 203 202
f 202 203 206
f 202 206 204
f 203 228 207
f 203 207 206
f 207 228 208
f 208 229 230
f 208 230 209
f 208 228 229
f 209 230 231
f 209 231 232
f 209 232 210
f 210 232 233
f 210 233 211
f 211 233 215
f 215 234 216
f 215 233 232
f 215 232 235
f 215 235 234
f 216 234 236
f 216 236 217
f 217 236 218
f 218 236 219
f 219 236 227
f 219 227 220
f 221 229 222
f 221 224 237
f 221 237 238
f 221 238 229
f 222 229 228
f 223 226 237
f 223 237 224
f 225 227 236
f 225 236 239
f 225 239 226
f 226 240 237
f 226 239 240
f 229 238 230
f 230 238 240
f 230 240 241
f 230 241 235
f 230 235 231
f 231 235 232
f 234 235 241
f 234 241 239
f 234 239 236
f 237 240 238
f 239 241 240
