v -0.246934 -0.499936 -0.119276
v -0.246934 -0.497498 -0.123375
v -0.245006 -0.502728 -0.119276
v -0.246934 -0.403819 -0.119276
v -0.246934 -0.493727 -0.129693
v -0.246918 -0.493748 -0.129701
v -0.235885 -0.515855 -0.119276
v -0.246934 -0.335206 -0.192866
v -0.127345 -0.548046 -0.119276
v -0.0814342 -0.548046 -0.153424
v -0.0814342 -0.506937 -0.192866
v -0.246934 -0.489685 -0.136098
v -0.223023 -0.52846 -0.128829
v -0.233634 -0.515042 -0.126027
v -0.229179 -0.522918 -0.123512
v -0.230377 -0.523731 -0.119276
v -0.246934 -0.436678 -0.192866
v -0.212833 -0.548046 -0.119276
v -0.0814342 -0.548046 -0.192866
v -0.246934 -0.486372 -0.140989
v -0.245119 -0.491351 -0.137539
v -0.21442 -0.533919 -0.134318
v -0.211958 -0.541025 -0.129859
v -0.209722 -0.548046 -0.124492
v -0.212476 -0.548046 -0.120033
v -0.223978 -0.532815 -0.119276
v -0.224707 -0.530794 -0.120991
v -0.246934 -0.484226 -0.143648
v -0.237279 -0.496415 -0.144102
v -0.22116 -0.523856 -0.136271
v -0.226149 -0.529773 -0.119276
v -0.233131 -0.454472 -0.192866
v -0.246934 -0.438136 -0.191403
v -0.147142 -0.548046 -0.192866
v -0.212185 -0.529565 -0.141919
v -0.205154 -0.534044 -0.146277
v -0.204911 -0.545504 -0.134218
v -0.203631 -0.548046 -0.133115
v -0.22495 -0.531461 -0.119276
v -0.246934 -0.475766 -0.152963
v -0.245298 -0.479892 -0.150787
v -0.234363 -0.492685 -0.15194
v -0.231868 -0.499936 -0.147559
v -0.223201 -0.516917 -0.140953
v -0.209188 -0.525877 -0.149749
v -0.234638 -0.457785 -0.187542
v -0.245476 -0.456618 -0.174611
v -0.246934 -0.452888 -0.176491
v -0.225906 -0.463681 -0.192866
v -0.148583 -0.548046 -0.191778
v -0.147919 -0.54738 -0.192866
v -0.187512 -0.528127 -0.175619
v -0.190282 -0.543233 -0.155736
v -0.194073 -0.546609 -0.147156
v -0.195726 -0.548046 -0.143439
v -0.246934 -0.473016 -0.155851
v -0.223525 -0.493831 -0.164871
v -0.217061 -0.47487 -0.192866
v -0.212784 -0.48335 -0.189682
v -0.220933 -0.514125 -0.146868
v -0.241523 -0.464931 -0.171225
v -0.246934 -0.461431 -0.167767
v -0.246934 -0.455659 -0.173674
v -0.150641 -0.548046 -0.1902
v -0.160102 -0.547692 -0.183241
v -0.162499 -0.533857 -0.192866
v -0.160442 -0.548046 -0.182679
v -0.176415 -0.54067 -0.176419
v -0.17878 -0.543525 -0.17036
v -0.185033 -0.535253 -0.171167
v -0.201525 -0.519168 -0.166823
v -0.205527 -0.510979 -0.170252
v -0.194689 -0.512104 -0.183176
v -0.187561 -0.516563 -0.187564
v -0.183235 -0.547692 -0.160087
v -0.18364 -0.548046 -0.159172
v -0.246934 -0.464369 -0.164748
v -0.207778 -0.48658 -0.192866
v -0.209674 -0.491185 -0.185633
v -0.212687 -0.494956 -0.177802
v -0.171166 -0.535253 -0.185035
v -0.163568 -0.539608 -0.187275
v -0.167246 -0.548046 -0.177427
v -0.175621 -0.528127 -0.187513
v -0.169789 -0.527023 -0.192866
v -0.170356 -0.543525 -0.178782
v -0.172511 -0.548046 -0.172514
v -0.177419 -0.548046 -0.167255
v -0.198674 -0.503916 -0.186613
v -0.201849 -0.496081 -0.190719
v -0.204344 -0.490872 -0.192866
v -0.192858 -0.504166 -0.192866
v -0.184288 -0.51325 -0.192866
v -0.179736 -0.520293 -0.19069
v -0.206385 -0.48833 -0.192866
v -0.174892 -0.52221 -0.192866
v -0.172252 -0.52471 -0.192866
v -0.181599 -0.515834 -0.192866
f 1 2 3
f 1 3 7
f 1 7 16
f 1 16 31
f 1 31 39
f 1 39 26
f 1 26 18
f 1 18 9
f 1 9 4
f 1 4 8
f 1 8 17
f 1 17 33
f 1 33 48
f 1 48 63
f 1 63 62
f 1 62 77
f 1 77 56
f 1 56 40
f 1 40 28
f 1 28 20
f 1 20 12
f 1 12 5
f 1 5 2
f 2 5 6
f 2 6 3
f 3 6 7
f 4 9 10
f 4 10 11
f 4 11 8
f 5 12 6
f 6 12 13
f 6 13 14
f 6 14 7
f 7 14 15
f 7 15 16
f 8 11 19
f 8 19 34
f 8 34 51
f 8 51 66
f 8 66 85
f 8 85 97
f 8 97 96
f 8 96 98
f 8 98 93
f 8 93 92
f 8 92 91
f 8 91 95
f 8 95 78
f 8 78 58
f 8 58 49
f 8 49 32
f 8 32 17
f 9 18 25
f 9 25 24
f 9 24 38
f 9 38 55
f 9 55 76
f 9 76 88
f 9 88 87
f 9 87 83
f 9 83 67
f 9 67 64
f 9 64 50
f 9 50 34
f 9 34 19
f 9 19 10
f 10 19 11
f 12 20 21
f 12 21 13
f 13 22 23
f 13 23 24
f 13 24 25
f 13 25 18
f 13 18 26
f 13 26 27
f 13 27 15
f 13 15 14
f 13 21 20
f 13 20 28
f 13 28 29
f 13 29 30
f 13 30 22
f 15 27 31
f 15 31 16
f 17 32 33
f 22 30 35
f 22 35 36
f 22 36 23
f 23 36 37
f 23 37 38
f 23 38 24
f 26 39 27
f 27 39 31
f 28 40 41
f 28 41 29
f 29 42 43
f 29 43 30
f 29 41 40
f 29 40 42
f 30 43 44
f 30 44 45
f 30 45 35
f 32 46 47
f 32 47 48
f 32 48 33
f 32 49 46
f 34 50 51
f 35 52 36
f 35 45 52
f 36 52 53
f 36 53 54
f 36 54 37
f 37 54 55
f 37 55 38
f 40 56 42
f 42 57 43
f 42 56 58
f 42 58 59
f 42 59 57
f 43 57 60
f 43 60 44
f 44 60 45
f 45 60 52
f 46 49 61
f 46 61 62
f 46 62 47
f 47 63 48
f 47 62 63
f 49 58 56
f 49 56 61
f 50 64 51
f 51 65 66
f 51 64 67
f 51 67 65
f 52 68 69
f 52 69 70
f 52 70 53
f 52 60 71
f 52 71 72
f 52 72 73
f 52 73 74
f 52 74 68
f 53 75 54
f 53 70 75
f 54 75 55
f 55 75 76
f 56 77 61
f 57 59 78
f 57 78 79
f 57 79 80
f 57 80 72
f 57 72 60
f 58 78 59
f 60 72 71
f 61 77 62
f 65 81 82
f 65 82 66
f 65 67 83
f 65 83 81
f 66 84 85
f 66 82 84
f 68 84 86
f 68 86 83
f 68 83 87
f 68 87 88
f 68 88 69
f 68 74 84
f 69 88 70
f 70 88 75
f 72 80 89
f 72 89 73
f 73 89 90
f 73 90 74
f 74 90 91
f 74 91 92
f 74 92 93
f 74 93 94
f 74 94 84
f 75 88 76
f 78 95 79
f 79 95 90
f 79 90 80
f 80 90 89
f 81 84 82
f 81 83 86
f 81 86 84
f 84 94 96
f 84 96 97
f 84 97 85
f 90 95 91
f 93 98 94
f 94 98 96
