v 0.66177 0.220043 0.397086
v 0.66177 0.220043 0.114818
v -0.60871 0.220043 0.397086
v 0.66177 0.21944 0.414725
v 0.685132 0.215002 0.397086
v 0.685132 0.215002 0.114818
v 0.66177 0.219353 0.0971086
v -0.22061 0.220043 0.0814561
v -0.590927 0.21944 0.414725
v -0.661712 0.220043 0.361772
v -0.644103 0.219741 0.379411
v -0.626494 0.219181 0.397086
v 0.66177 0.215304 0.426822
v 0.684609 0.213926 0.419815
v 0.714772 0.203156 0.397086
v 0.684609 0.213882 0.0920538
v 0.714772 0.203156 0.114818
v 0.66177 0.215218 0.0851513
v 0.66177 0.202941 0.0819441
v 0.644161 0.152712 0.0742399
v 0.628469 0.152798 0.0742399
v -0.873546 0.220043 0.0814561
v -0.60871 0.218147 0.414725
v -0.590927 0.215304 0.426822
v -0.838153 0.220043 0.22069
v -0.820544 0.219741 0.238295
v -0.802935 0.219181 0.255865
v -0.873546 0.218406 0.203051
v -0.662235 0.21651 0.379969
v -0.64358 0.215864 0.397051
v 0.66177 0.202941 0.430204
v 0.679379 0.202941 0.429053
v 0.714772 0.197857 0.426404
v 0.727325 0.19566 0.425114
v -0.0424252 0.202941 0.430238
v 0.777014 0.176749 0.419257
v 0.802992 0.166583 0.397086
v 0.777014 0.176749 0.0926115
v 0.727325 0.195617 0.0868246
v 0.802992 0.166583 0.114818
v 0.714772 0.197771 0.0855697
v 0.679379 0.202941 0.0830248
v 0.660724 0.148748 0.0742399
v 0.714772 0.185322 0.0822927
v -0.0424252 0.152798 0.0742399
v -0.886797 0.215907 0.0814561
v -0.873546 0.220043 0.185341
v -0.625099 0.214787 0.413958
v -0.613592 0.208067 0.425428
v -0.590927 0.202941 0.430238
v -0.873546 0.214313 0.215984
v -0.838676 0.21651 0.238922
v -0.886797 0.215907 0.185341
v -0.656482 0.214184 0.391125
v -0.637478 0.213452 0.407649
v -0.820021 0.215864 0.255865
v -0.832923 0.214184 0.249973
v 0.696988 0.185322 0.430378
v 0.74999 0.16766 0.430238
v 0.714772 0.185322 0.42982
v 0.802992 0.149998 0.429541
v 0.802992 0.162016 0.42616
v 0.767599 0.178429 0.425323
v 0.820602 0.157924 0.397086
v 0.820602 0.157924 0.114818
v 0.820078 0.153659 0.0900667
v 0.802992 0.155942 0.0841752
v 0.666303 0.132336 0.0742399
v 0.74999 0.16766 0.0819093
v 0.820602 0.132336 0.0823625
v 0.820602 0.114717 0.0818396
v 0.838211 0.0793928 0.0818744
v 0.85582 0.0264499 0.0818396
v -0.0424252 -0.152798 0.0742399
v -0.892201 0.185322 0.0814561
v -0.89133 0.203673 0.0814561
v -0.891678 0.202941 0.185341
v -0.613766 0.185322 0.426125
v -0.590927 0.185322 0.430343
v -0.0424252 0.185322 0.430378
v -0.885228 0.20979 0.205421
v -0.873546 0.185322 0.22076
v -0.813919 0.213452 0.266393
v -0.852101 0.214529 0.233414
v -0.706694 0.207636 0.353649
v -0.658574 0.185322 0.392728
v 0.785209 0.149998 0.430378
v 0.820602 0.132336 0.429681
v 0.83298 0.132336 0.426334
v 0.820078 0.153746 0.421837
v 0.831237 0.144958 0.41985
v 0.831934 0.146121 0.397086
v 0.831237 0.144871 0.0920189
v 0.831934 0.146121 0.114818
v 0.832806 0.132336 0.0856742
v 0.667175 0.114846 0.0742399
v 0.838211 0.0970548 0.0831294
v 0.873604 0.00878792 0.0827808
v 0.85582 0.0441119 0.0821882
v 0.85582 -0.0264499 0.0818396
v 0.626203 -0.152798 0.0742399
v -0.873546 -0.220043 0.0814561
v -0.886797 -0.215907 0.0814561
v -0.891678 -0.202941 0.0814561
v -0.892201 -0.185322 0.0814561
v -0.892201 0.185322 0.185341
v -0.88575 0.185322 0.207896
v -0.613766 -0.185322 0.426125
v -0.590927 -0.185322 0.430343
v -0.0424252 -0.185322 0.430378
v -0.873546 -0.185322 0.22076
v -0.854891 0.185322 0.235715
v -0.658574 -0.185322 0.392728
v 0.802992 0.132336 0.430378
v 0.820602 0.114717 0.430378
v 0.838211 0.0793928 0.430273
v 0.85582 0.0441119 0.429959
v 0.873604 0.00878792 0.429332
v 0.838211 0.0970548 0.429018
v 0.868722 0.0441119 0.426543
v 0.849369 0.0970548 0.425602
v 0.8478 0.107437 0.419397
v 0.838036 0.132336 0.397086
v 0.838036 0.132336 0.114818
v 0.847626 0.107394 0.0924721
v 0.849369 0.0970548 0.0863366
v 0.868722 0.0441119 0.0854302
v 0.667175 -0.114717 0.0742399
v 0.873604 -0.00878792 0.0827808
v 0.884936 0.0145604 0.0919143
v 0.85582 -0.0441119 0.0821882
v 0.838211 -0.0793928 0.0818744
v 0.666303 -0.132336 0.0742399
v 0.643114 -0.152712 0.0742399
v -0.219564 -0.22 0.0814561
v -0.873546 -0.220043 0.185341
v 0.66177 -0.220043 0.114818
v -0.886797 -0.215907 0.185341
v -0.891678 -0.202941 0.185341
v -0.892201 -0.185322 0.185341
v -0.88575 -0.185322 0.207896
v -0.613592 -0.208067 0.425428
v -0.590927 -0.202941 0.430238
v -0.637478 -0.213452 0.407649
v 0.696988 -0.185322 0.430378
v -0.854891 -0.185322 0.235715
v -0.885228 -0.20979 0.205421
v -0.873546 -0.214313 0.215984
v -0.813919 -0.213452 0.266393
v -0.706694 -0.207636 0.353649
v 0.85582 0.0264499 0.430378
v 0.873604 -0.00878792 0.429332
v 0.885111 0.0146035 0.419954
v 0.866455 0.0574661 0.425253
v 0.88389 0.0214959 0.397086
v 0.87465 0.0441119 0.397086
v 0.87465 0.0441119 0.114818
v 0.88389 0.0214959 0.114818
v 0.866455 0.0573799 0.0866155
v 0.884936 -0.0145604 0.0919143
v 0.868722 -0.0441119 0.0854302
v 0.838211 -0.0970548 0.0831294
v 0.820602 -0.132336 0.0823625
v 0.888772 0.00878792 0.114818
v 0.888946 -0.00878792 0.114818
v 0.820602 -0.114717 0.0818396
v 0.660549 -0.147887 0.0742399
v 0.66177 -0.202941 0.0819441
v 0.66177 -0.215218 0.0851513
v 0.66177 -0.219353 0.0971086
v -0.838153 -0.220043 0.22069
v -0.873546 -0.218406 0.203051
v 0.685132 -0.215002 0.114818
v 0.679379 -0.21707 0.397086
v 0.66177 -0.220043 0.397086
v -0.590927 -0.215304 0.426822
v -0.625099 -0.214787 0.413958
v -0.0424252 -0.202941 0.430238
v -0.832923 -0.214184 0.249973
v -0.656482 -0.214184 0.391125
v -0.64358 -0.215864 0.397051
v 0.74999 -0.16766 0.430238
v 0.785209 -0.149998 0.430378
v 0.66177 -0.202941 0.430204
v -0.838676 -0.21651 0.238922
v -0.852101 -0.214529 0.233414
v 0.85582 -0.0264499 0.430378
v 0.868722 -0.0441119 0.426543
v 0.885111 -0.0146035 0.419954
v 0.85582 -0.0441119 0.429959
v 0.820602 -0.132336 0.429681
v 0.838211 -0.0970548 0.429018
v 0.888946 -0.00878792 0.397086
v 0.888772 0.00878792 0.397086
v 0.866455 -0.0573799 0.0866155
v 0.88389 -0.0214959 0.114818
v 0.847626 -0.107394 0.0924721
v 0.849369 -0.0970548 0.0863366
v 0.832806 -0.132336 0.0856742
v 0.802992 -0.155942 0.0841752
v 0.74999 -0.16766 0.0819093
v 0.714772 -0.185322 0.0822927
v 0.679379 -0.202941 0.0830248
v 0.714772 -0.197771 0.0855697
v 0.727325 -0.195617 0.0868246
v 0.684609 -0.213882 0.0920538
v -0.661712 -0.220043 0.361772
v -0.644103 -0.219741 0.379411
v -0.820544 -0.219741 0.238295
v -0.802935 -0.219181 0.255865
v -0.626494 -0.219181 0.397086
v -0.662235 -0.21651 0.379969
v 0.714772 -0.203156 0.114818
v 0.69106 -0.212935 0.397086
v 0.684609 -0.213926 0.419815
v 0.66177 -0.21944 0.414725
v -0.60871 -0.220043 0.397086
v -0.60871 -0.218147 0.414725
v -0.590927 -0.21944 0.414725
v 0.66177 -0.215304 0.426822
v -0.820021 -0.215864 0.255865
v 0.714772 -0.185322 0.42982
v 0.802992 -0.149998 0.429541
v 0.802992 -0.132336 0.430378
v 0.679379 -0.202941 0.429053
v 0.838211 -0.0793928 0.430273
v 0.820602 -0.114717 0.430378
v 0.866455 -0.0574661 0.425253
v 0.83298 -0.132336 0.426334
v 0.849369 -0.0970548 0.425602
v 0.88389 -0.0214959 0.397086
v 0.8478 -0.107437 0.419397
v 0.87465 -0.0441119 0.114818
v 0.838036 -0.132336 0.114818
v 0.831237 -0.144871 0.0920189
v 0.820078 -0.153659 0.0900667
v 0.777014 -0.176749 0.0926115
v 0.802992 -0.166583 0.114818
v 0.714772 -0.203156 0.397086
v 0.777014 -0.176749 0.419257
v 0.727325 -0.19566 0.425114
v 0.714772 -0.197857 0.426404
v 0.802992 -0.162016 0.42616
v 0.820078 -0.153746 0.421837
v 0.831237 -0.144958 0.41985
v 0.87465 -0.0441119 0.397086
v 0.838036 -0.132336 0.397086
v 0.831934 -0.146121 0.114818
v 0.820602 -0.157924 0.114818
v 0.802992 -0.166583 0.397086
v 0.767599 -0.178429 0.425323
v 0.820602 -0.157924 0.397086
v 0.831934 -0.146121 0.397086
f 1 2 8
f 1 8 22
f 1 22 47
f 1 47 25
f 1 25 10
f 1 10 3
f 1 3 9
f 1 9 4
f 1 4 5
f 1 5 6
f 1 6 2
f 2 6 7
f 2 7 8
f 3 10 11
f 3 11 12
f 3 12 9
f 4 13 14
f 4 14 5
f 4 9 24
f 4 24 13
f 5 15 17
f 5 17 6
f 5 14 15
f 6 16 7
f 6 17 16
f 7 16 18
f 7 18 8
f 8 18 19
f 8 19 20
f 8 20 21
f 8 21 45
f 8 45 22
f 9 12 23
f 9 23 24
f 10 25 11
f 11 25 26
f 11 26 12
f 12 26 27
f 12 27 28
f 12 28 29
f 12 29 30
f 12 30 23
f 13 31 32
f 13 32 33
f 13 33 34
f 13 34 14
f 13 24 50
f 13 50 35
f 13 35 31
f 14 34 36
f 14 36 15
f 15 36 37
f 15 37 40
f 15 40 17
f 16 17 38
f 16 38 39
f 16 39 18
f 17 40 38
f 18 39 41
f 18 41 42
f 18 42 19
f 19 43 20
f 19 42 44
f 19 44 43
f 20 43 68
f 20 68 96
f 20 96 128
f 20 128 133
f 20 133 167
f 20 167 134
f 20 134 101
f 20 101 74
f 20 74 45
f 20 45 21
f 22 46 53
f 22 53 47
f 22 45 46
f 23 30 48
f 23 48 24
f 24 48 49
f 24 49 50
f 25 47 28
f 25 28 26
f 26 28 27
f 28 51 52
f 28 52 29
f 28 47 53
f 28 53 51
f 29 52 30
f 30 54 55
f 30 55 48
f 30 52 56
f 30 56 57
f 30 57 54
f 31 35 58
f 31 58 59
f 31 59 60
f 31 60 32
f 32 60 61
f 32 61 33
f 33 61 62
f 33 62 34
f 34 62 63
f 34 63 36
f 35 50 80
f 35 80 58
f 36 63 62
f 36 62 64
f 36 64 37
f 37 64 65
f 37 65 40
f 38 40 65
f 38 65 66
f 38 66 39
f 39 66 67
f 39 67 41
f 41 67 42
f 42 67 44
f 43 44 69
f 43 69 70
f 43 70 71
f 43 71 72
f 43 72 73
f 43 73 68
f 44 67 69
f 45 74 105
f 45 105 75
f 45 75 76
f 45 76 46
f 46 76 77
f 46 77 53
f 48 55 49
f 49 78 50
f 49 55 78
f 50 79 80
f 50 78 79
f 51 53 81
f 51 81 82
f 51 82 83
f 51 83 57
f 51 57 84
f 51 84 52
f 52 84 57
f 52 57 56
f 53 77 81
f 54 57 55
f 55 57 83
f 55 83 85
f 55 85 86
f 55 86 78
f 58 87 59
f 58 80 110
f 58 110 145
f 58 145 183
f 58 183 224
f 58 224 227
f 58 227 187
f 58 187 151
f 58 151 115
f 58 115 114
f 58 114 87
f 59 87 61
f 59 61 60
f 61 88 89
f 61 89 62
f 61 87 88
f 62 90 64
f 62 89 90
f 64 91 92
f 64 92 94
f 64 94 65
f 64 90 91
f 65 93 66
f 65 94 93
f 66 93 95
f 66 95 67
f 67 95 70
f 67 70 69
f 68 73 96
f 70 95 97
f 70 97 98
f 70 98 99
f 70 99 72
f 70 72 71
f 72 99 73
f 73 99 98
f 73 98 129
f 73 129 100
f 73 100 128
f 73 128 96
f 74 101 102
f 74 102 103
f 74 103 104
f 74 104 105
f 75 106 77
f 75 77 76
f 75 105 140
f 75 140 106
f 77 106 107
f 77 107 81
f 78 108 109
f 78 109 79
f 78 86 113
f 78 113 108
f 79 109 110
f 79 110 80
f 81 107 82
f 82 107 141
f 82 141 111
f 82 111 146
f 82 146 112
f 82 112 85
f 82 85 83
f 85 112 86
f 86 112 146
f 86 146 113
f 87 114 88
f 88 114 115
f 88 115 116
f 88 116 117
f 88 117 118
f 88 118 119
f 88 119 89
f 89 119 120
f 89 120 121
f 89 121 91
f 89 91 90
f 91 121 122
f 91 122 123
f 91 123 92
f 92 123 124
f 92 124 94
f 93 94 124
f 93 124 125
f 93 125 126
f 93 126 95
f 95 126 127
f 95 127 97
f 97 127 98
f 98 127 130
f 98 130 160
f 98 160 129
f 100 129 131
f 100 131 132
f 100 132 133
f 100 133 128
f 101 134 135
f 101 135 102
f 102 136 138
f 102 138 103
f 102 135 137
f 102 137 175
f 102 175 217
f 102 217 207
f 102 207 171
f 102 171 136
f 103 138 139
f 103 139 104
f 104 139 140
f 104 140 105
f 106 140 141
f 106 141 107
f 108 142 143
f 108 143 109
f 108 113 144
f 108 144 142
f 109 143 110
f 110 143 178
f 110 178 145
f 111 141 147
f 111 147 148
f 111 148 149
f 111 149 150
f 111 150 146
f 113 146 150
f 113 150 144
f 115 151 116
f 116 151 117
f 117 151 118
f 118 120 119
f 118 151 187
f 118 187 152
f 118 152 189
f 118 189 153
f 118 153 120
f 120 153 154
f 120 154 121
f 121 154 122
f 122 154 153
f 122 153 155
f 122 155 156
f 122 156 123
f 123 156 157
f 123 157 124
f 124 157 125
f 125 157 158
f 125 158 130
f 125 130 159
f 125 159 126
f 126 159 127
f 127 159 130
f 129 160 161
f 129 161 162
f 129 162 163
f 129 163 131
f 130 158 164
f 130 164 165
f 130 165 160
f 131 163 132
f 132 163 166
f 132 166 167
f 132 167 133
f 134 167 168
f 134 168 135
f 135 168 169
f 135 169 170
f 135 170 137
f 136 171 172
f 136 172 138
f 137 170 173
f 137 173 174
f 137 174 175
f 138 172 148
f 138 148 147
f 138 147 139
f 139 147 141
f 139 141 140
f 142 176 143
f 142 144 177
f 142 177 176
f 143 176 220
f 143 220 178
f 144 150 149
f 144 149 179
f 144 179 180
f 144 180 181
f 144 181 177
f 145 182 183
f 145 178 184
f 145 184 182
f 148 172 185
f 148 185 186
f 148 186 179
f 148 179 149
f 152 188 189
f 152 187 190
f 152 190 191
f 152 191 192
f 152 192 188
f 153 189 193
f 153 193 194
f 153 194 155
f 155 158 157
f 155 157 156
f 155 194 164
f 155 164 158
f 160 195 161
f 160 165 196
f 160 196 197
f 160 197 195
f 161 195 198
f 161 198 199
f 161 199 162
f 162 199 163
f 163 200 201
f 163 201 167
f 163 167 166
f 163 199 200
f 164 194 193
f 164 193 165
f 165 193 231
f 165 231 196
f 167 201 202
f 167 202 168
f 168 203 169
f 168 202 203
f 169 203 204
f 169 204 205
f 169 205 206
f 169 206 170
f 170 206 173
f 171 207 208
f 171 208 209
f 171 209 172
f 172 209 210
f 172 210 211
f 172 211 212
f 172 212 185
f 173 206 213
f 173 213 214
f 173 214 174
f 174 214 215
f 174 215 216
f 174 216 175
f 175 216 219
f 175 219 217
f 176 177 218
f 176 218 219
f 176 219 216
f 176 216 220
f 177 181 218
f 178 220 184
f 179 221 181
f 179 181 180
f 179 186 185
f 179 185 221
f 181 211 218
f 181 221 185
f 181 185 212
f 181 212 211
f 182 184 222
f 182 222 223
f 182 223 183
f 183 223 191
f 183 191 224
f 184 220 225
f 184 225 222
f 187 226 190
f 187 227 226
f 188 228 189
f 188 192 229
f 188 229 230
f 188 230 228
f 189 231 193
f 189 228 232
f 189 232 231
f 190 226 191
f 191 227 224
f 191 223 229
f 191 229 192
f 191 226 227
f 195 197 198
f 196 231 246
f 196 246 233
f 196 233 197
f 197 233 234
f 197 234 235
f 197 235 198
f 198 235 199
f 199 235 236
f 199 236 200
f 200 236 205
f 200 205 204
f 200 204 203
f 200 203 202
f 200 202 201
f 205 236 237
f 205 237 206
f 206 237 213
f 207 217 208
f 208 211 209
f 208 217 211
f 209 211 210
f 211 217 219
f 211 219 218
f 213 237 238
f 213 238 250
f 213 250 239
f 213 239 214
f 214 239 240
f 214 240 215
f 215 220 216
f 215 240 241
f 215 241 220
f 220 241 242
f 220 242 225
f 222 225 223
f 223 243 229
f 223 225 242
f 223 242 243
f 228 230 232
f 229 243 244
f 229 244 245
f 229 245 230
f 230 245 232
f 231 232 246
f 232 247 246
f 232 245 247
f 233 246 247
f 233 247 234
f 234 247 253
f 234 253 248
f 234 248 235
f 235 249 236
f 235 248 249
f 236 249 237
f 237 249 238
f 238 249 252
f 238 252 250
f 239 250 240
f 240 251 241
f 240 250 252
f 240 252 243
f 240 243 251
f 241 251 243
f 241 243 242
f 243 252 244
f 244 252 245
f 245 252 253
f 245 253 247
f 248 253 252
f 248 252 249
