v -0.0220056 0.711313 0.487917
v -0.00374778 0.712761 0.487103
v -0.0119471 0.73346 0.484135
v -0.0238648 0.729552 0.485044
v -0.035258 0.725354 0.484853
v -0.0458886 0.720143 0.484278
v -0.0366881 0.711313 0.486289
v -0.0220056 -0.711315 0.487917
v -0.00374778 -0.711315 0.487247
v -0.002413 0.729407 0.484326
v -0.00365243 0.73679 0.475707
v -0.0220056 0.737514 0.476617
v -0.035258 0.736356 0.477383
v -0.0806881 0.735777 0.471925
v -0.0953706 0.734763 0.47068
v -0.109386 0.731579 0.469914
v -0.122209 0.722315 0.470153
v -0.1357 0.711313 0.468573
v -0.110005 0.711313 0.473218
v -0.0541832 0.681929 0.483177
v -0.0366881 -0.711315 0.486289
v -0.0458886 -0.720145 0.484278
v -0.035258 -0.725356 0.484853
v -0.0238648 -0.729554 0.485044
v -0.0079428 -0.730567 0.484614
v -0.00365243 -0.736792 0.477383
v -7.71472e-05 -0.737226 0.461343
v -7.71472e-05 0.737224 0.461343
v -0.0953706 0.738527 0.461965
v -0.0513707 0.736935 0.474319
v -0.0513707 0.738816 0.461965
v -0.0660055 0.739251 0.461965
v -0.0806881 0.739106 0.461965
v -0.139371 0.736645 0.459092
v -0.154053 0.735197 0.45689
v -0.139371 0.725933 0.465796
v -0.154053 0.711313 0.463354
v -0.139371 0.681929 0.46795
v -0.110005 -0.711315 0.473218
v -0.0541832 -0.68193 0.483177
v -0.122209 -0.722316 0.470153
v -0.1357 -0.711315 0.468573
v -0.109386 -0.731581 0.469914
v -0.0953706 -0.734765 0.47068
v -0.0806881 -0.735778 0.471925
v -0.035258 -0.736357 0.477383
v -0.0220056 -0.737515 0.476617
v -0.0513707 -0.738818 0.461965
v -0.46191 -0.738818 0.0366727
v -0.46191 -0.738384 0.0220207
v -7.71472e-05 -0.720724 -0.00125022
v -7.71472e-05 0.720722 -0.00125022
v -0.46191 0.738382 0.0220207
v -0.46191 0.738816 0.0366727
v -0.154053 0.738816 0.447265
v -0.315323 0.739395 0.344605
v -0.139371 0.739251 0.447265
v -0.46191 0.739106 0.0513726
v -0.46191 0.739251 0.0806767
v -0.167925 0.7365 0.4476
v -0.18337 0.735487 0.442812
v -0.222556 0.734329 0.426388
v -0.163873 0.729842 0.455788
v -0.154053 0.725933 0.461343
v -0.167353 0.711313 0.457416
v -0.154053 -0.711315 0.463354
v -0.139371 -0.68193 0.46795
v -0.139371 -0.725935 0.465796
v -0.154053 -0.735199 0.45689
v -0.139371 -0.736647 0.459092
v -0.0513707 -0.736937 0.474319
v -0.0953706 -0.738529 0.461965
v -0.0806881 -0.739108 0.461965
v -0.0660055 -0.739252 0.461965
v -0.46191 -0.739108 0.0513726
v -0.475019 -0.737081 0.0030592
v -0.461576 -0.737371 0.0030592
v -0.484505 -0.728975 -0.00125022
v -0.484315 0.728973 -0.00125022
v -0.461576 0.737369 0.0030592
v -0.476449 0.736935 0.0030592
v -0.242053 0.739251 0.403261
v -0.22737 0.736935 0.418584
v -0.242053 0.736066 0.414418
v -0.197672 0.73679 0.433092
v -0.46191 0.739251 0.0953767
v -0.447322 0.739251 0.139333
v -0.417957 0.739251 0.212689
v -0.359323 0.739251 0.300649
v -0.345069 0.737079 0.33048
v -0.30064 0.739251 0.359257
v -0.257069 0.731723 0.409725
v -0.229849 0.726947 0.425766
v -0.195526 0.725933 0.44219
v -0.238907 0.71334 0.423803
v -0.212736 0.711313 0.436157
v -0.167353 -0.711315 0.457416
v -0.154053 -0.725935 0.461343
v -0.18337 -0.735489 0.442812
v -0.167925 -0.736502 0.4476
v -0.154053 -0.738818 0.447265
v -0.163873 -0.729844 0.455788
v -0.222556 -0.734331 0.426388
v -0.139371 -0.739252 0.447265
v -0.315323 -0.739397 0.344605
v -0.46191 -0.739252 0.0806767
v -0.46191 -0.739252 0.0953767
v -0.473827 -0.736792 0.0513726
v -0.47683 -0.725935 0.0953767
v -0.485125 -0.723619 0.00736863
v -0.48708 -0.711315 -0.00125022
v -0.472016 -0.735923 0.0953767
v -0.486794 0.713774 -0.00125022
v -0.485125 0.723617 0.00736863
v -0.47683 0.725933 0.0953767
v -0.472016 0.735921 0.0953767
v -0.473827 0.73679 0.0513726
v -0.285958 0.738816 0.373957
v -0.268415 0.735487 0.399622
v -0.46191 0.738382 0.110029
v -0.43264 0.739106 0.183337
v -0.403322 0.739106 0.242041
v -0.42997 0.736645 0.212689
v -0.37391 0.738816 0.285949
v -0.359752 0.736935 0.315445
v -0.355175 0.735342 0.326027
v -0.340445 0.735053 0.339913
v -0.329862 0.73679 0.344749
v -0.27137 0.726223 0.403261
v -0.264601 0.715656 0.411066
v -0.25664 0.711313 0.415328
v -0.238907 -0.713342 0.423803
v -0.212736 -0.711315 0.436157
v -0.195526 -0.725935 0.44219
v -0.242053 -0.736068 0.414418
v -0.197672 -0.736792 0.433092
v -0.22737 -0.736937 0.418584
v -0.242053 -0.739252 0.403261
v -0.229849 -0.726949 0.425766
v -0.25459 -0.735778 0.408049
v -0.2595 -0.727672 0.411353
v -0.30064 -0.739252 0.359257
v -0.345069 -0.737081 0.33048
v -0.359323 -0.739252 0.300649
v -0.417957 -0.739252 0.212689
v -0.447322 -0.739252 0.139333
v -0.46191 -0.738384 0.110029
v -0.484505 -0.721014 0.0220207
v -0.471205 -0.727962 0.116301
v -0.475829 -0.711315 0.110029
v -0.478737 -0.711315 0.0953767
v -0.484172 -0.715224 0.0316451
v -0.481312 -0.68193 0.0660726
v -0.481312 0.681929 0.0660726
v -0.484172 0.715222 0.0316451
v -0.457953 -0.736068 0.139333
v -0.456094 -0.73462 0.150825
v -0.484505 0.721012 0.0220207
v -0.471205 0.72796 0.116301
v -0.478737 0.711313 0.0953767
v -0.475829 0.711313 0.110029
v -0.456094 0.734619 0.150825
v -0.457953 0.736066 0.139333
v -0.314703 0.736356 0.35897
v -0.324952 0.734763 0.353894
v -0.309364 0.734184 0.367876
v -0.293775 0.733605 0.381762
v -0.423249 0.736211 0.226144
v -0.403179 0.736356 0.255879
v -0.389403 0.737224 0.271776
v -0.442746 0.735632 0.183337
v -0.440839 0.731289 0.197319
v -0.426729 0.726947 0.232225
v -0.373624 0.735921 0.2995
v -0.368475 0.734763 0.310609
v -0.367951 0.725933 0.317264
v -0.353602 0.726947 0.333113
v -0.279093 0.727381 0.396366
v -0.299162 0.725933 0.380038
v -0.352267 0.715222 0.337519
v -0.280809 0.711313 0.397803
v -0.272085 0.711313 0.405081
v -0.264601 -0.715658 0.411066
v -0.25664 -0.711315 0.415328
v -0.268415 -0.735489 0.399622
v -0.285958 -0.738818 0.373957
v -0.27137 -0.726225 0.403261
v -0.293775 -0.733607 0.381762
v -0.359752 -0.736937 0.315445
v -0.329862 -0.736792 0.344749
v -0.340445 -0.735055 0.339913
v -0.355175 -0.735344 0.326027
v -0.37391 -0.738818 0.285949
v -0.403322 -0.739108 0.242041
v -0.43264 -0.739108 0.183337
v -0.42997 -0.736647 0.212689
v -0.455617 -0.722606 0.16404
v -0.471396 -0.711315 0.123149
v -0.454282 -0.732304 0.160593
v -0.442746 -0.735634 0.183337
v -0.471396 0.711313 0.123149
v -0.455617 0.722604 0.16404
v -0.454282 0.732302 0.160593
v -0.327526 0.725933 0.356097
v -0.412952 0.734763 0.246302
v -0.398222 0.735053 0.267227
v -0.438837 0.723473 0.209576
v -0.382395 0.729697 0.294855
v -0.432115 0.711313 0.227341
v -0.426586 0.711313 0.236582
v -0.396315 0.720143 0.279198
v -0.366568 0.711313 0.322531
v -0.359561 0.711313 0.329905
v -0.352267 -0.715224 0.337519
v -0.328956 0.711313 0.357246
v -0.280809 -0.711315 0.397803
v -0.272085 -0.711315 0.405081
v -0.299162 -0.725935 0.380038
v -0.309364 -0.734186 0.367876
v -0.324952 -0.734765 0.353894
v -0.314703 -0.736357 0.35897
v -0.279093 -0.727383 0.396366
v -0.311509 -0.725935 0.3696
v -0.353602 -0.726949 0.333113
v -0.389403 -0.737226 0.271776
v -0.368475 -0.734765 0.310609
v -0.373624 -0.735923 0.2995
v -0.403179 -0.736357 0.255879
v -0.367951 -0.725935 0.317264
v -0.423249 -0.736213 0.226144
v -0.426729 -0.726949 0.232225
v -0.440839 -0.731291 0.197319
v -0.438837 -0.723474 0.209576
v -0.43817 -0.711315 0.215035
v -0.460241 -0.711315 0.154081
v -0.460241 0.711313 0.154081
v -0.43817 0.711313 0.215035
v -0.432115 -0.711315 0.227341
v -0.426586 -0.711315 0.236582
v -0.366568 -0.711315 0.322531
v -0.359561 -0.711315 0.329905
v -0.328956 -0.711315 0.357246
v -0.412952 -0.734765 0.246302
v -0.398222 -0.735055 0.267227
v -0.382395 -0.729699 0.294855
v -0.396315 -0.720145 0.279198
f 1 2 3
f 1 3 4
f 1 4 5
f 1 5 6
f 1 6 7
f 1 7 21
f 1 21 8
f 1 8 9
f 1 9 2
f 2 10 3
f 2 9 10
f 3 11 12
f 3 12 13
f 3 13 14
f 3 14 15
f 3 15 4
f 3 10 11
f 4 16 5
f 4 15 16
f 5 16 17
f 5 17 6
f 6 17 18
f 6 18 19
f 6 19 7
f 7 19 20
f 7 20 40
f 7 40 21
f 8 21 22
f 8 22 23
f 8 23 24
f 8 24 25
f 8 25 9
f 9 25 26
f 9 26 27
f 9 27 10
f 10 27 28
f 10 28 11
f 11 28 12
f 12 29 30
f 12 30 13
f 12 28 31
f 12 31 32
f 12 32 33
f 12 33 29
f 13 30 14
f 14 30 34
f 14 34 15
f 15 35 16
f 15 34 35
f 16 36 17
f 16 35 36
f 17 36 18
f 18 37 38
f 18 38 19
f 18 36 37
f 19 38 67
f 19 67 39
f 19 39 40
f 19 40 20
f 21 40 39
f 21 39 22
f 22 41 23
f 22 39 42
f 22 42 41
f 23 41 43
f 23 43 24
f 24 43 44
f 24 44 45
f 24 45 46
f 24 46 25
f 25 46 47
f 25 47 26
f 26 47 27
f 27 47 48
f 27 48 49
f 27 49 50
f 27 50 51
f 27 51 52
f 27 52 28
f 28 52 53
f 28 53 54
f 28 54 31
f 29 33 55
f 29 55 34
f 29 34 30
f 31 54 32
f 32 56 57
f 32 57 33
f 32 54 58
f 32 58 59
f 32 59 56
f 33 57 55
f 34 55 35
f 35 55 60
f 35 60 61
f 35 61 62
f 35 62 63
f 35 63 64
f 35 64 36
f 36 64 37
f 37 64 65
f 37 65 97
f 37 97 66
f 37 66 67
f 37 67 38
f 39 67 42
f 41 68 43
f 41 42 68
f 42 67 66
f 42 66 68
f 43 68 69
f 43 69 44
f 44 69 70
f 44 70 45
f 45 70 71
f 45 71 46
f 46 71 47
f 47 72 73
f 47 73 74
f 47 74 48
f 47 71 72
f 48 74 49
f 49 74 75
f 49 75 76
f 49 76 50
f 50 76 77
f 50 77 51
f 51 77 78
f 51 78 111
f 51 111 113
f 51 113 79
f 51 79 52
f 52 79 80
f 52 80 53
f 53 80 81
f 53 81 54
f 54 81 58
f 55 57 82
f 55 82 83
f 55 83 84
f 55 84 85
f 55 85 60
f 56 59 86
f 56 86 87
f 56 87 88
f 56 88 89
f 56 89 90
f 56 90 91
f 56 91 82
f 56 82 57
f 58 81 59
f 59 81 86
f 60 85 84
f 60 84 61
f 61 84 62
f 62 84 92
f 62 92 93
f 62 93 63
f 63 93 94
f 63 94 64
f 64 94 65
f 65 94 95
f 65 95 96
f 65 96 133
f 65 133 97
f 66 97 98
f 66 98 68
f 68 98 69
f 69 99 100
f 69 100 101
f 69 101 70
f 69 98 102
f 69 102 103
f 69 103 99
f 70 101 72
f 70 72 71
f 72 101 73
f 73 104 74
f 73 101 104
f 74 104 105
f 74 105 106
f 74 106 75
f 75 106 76
f 76 106 107
f 76 107 108
f 76 108 78
f 76 78 77
f 78 109 110
f 78 110 111
f 78 108 112
f 78 112 109
f 79 113 114
f 79 114 115
f 79 115 116
f 79 116 117
f 79 117 81
f 79 81 80
f 81 117 86
f 82 91 118
f 82 118 119
f 82 119 84
f 82 84 83
f 84 119 92
f 86 117 116
f 86 116 120
f 86 120 87
f 87 120 121
f 87 121 88
f 88 122 89
f 88 121 123
f 88 123 122
f 89 122 124
f 89 124 125
f 89 125 90
f 90 118 91
f 90 125 126
f 90 126 127
f 90 127 128
f 90 128 118
f 92 129 130
f 92 130 93
f 92 119 129
f 93 130 95
f 93 95 94
f 95 130 131
f 95 131 184
f 95 184 132
f 95 132 133
f 95 133 96
f 97 133 132
f 97 132 134
f 97 134 98
f 98 134 102
f 99 103 135
f 99 135 100
f 100 135 136
f 100 136 101
f 101 137 138
f 101 138 104
f 101 136 135
f 101 135 137
f 102 134 139
f 102 139 103
f 103 140 135
f 103 139 141
f 103 141 140
f 104 138 105
f 105 138 142
f 105 142 143
f 105 143 144
f 105 144 145
f 105 145 146
f 105 146 107
f 105 107 106
f 107 146 147
f 107 147 112
f 107 112 108
f 109 148 110
f 109 112 149
f 109 149 150
f 109 150 151
f 109 151 148
f 110 148 111
f 111 148 152
f 111 152 151
f 111 151 153
f 111 153 154
f 111 154 155
f 111 155 113
f 112 147 156
f 112 156 157
f 112 157 149
f 113 155 158
f 113 158 114
f 114 158 115
f 115 159 116
f 115 158 160
f 115 160 161
f 115 161 159
f 116 162 163
f 116 163 120
f 116 159 162
f 118 128 164
f 118 164 119
f 119 164 165
f 119 165 166
f 119 166 167
f 119 167 129
f 120 163 123
f 120 123 121
f 122 123 168
f 122 168 169
f 122 169 170
f 122 170 124
f 123 163 171
f 123 171 172
f 123 172 173
f 123 173 168
f 124 170 125
f 125 170 169
f 125 169 174
f 125 174 175
f 125 175 126
f 126 175 176
f 126 176 177
f 126 177 127
f 127 165 164
f 127 164 128
f 127 177 165
f 129 167 178
f 129 178 179
f 129 179 130
f 130 179 180
f 130 180 181
f 130 181 182
f 130 182 217
f 130 217 183
f 130 183 184
f 130 184 131
f 132 184 183
f 132 183 139
f 132 139 134
f 135 140 138
f 135 138 137
f 138 140 185
f 138 185 186
f 138 186 142
f 139 183 141
f 140 141 185
f 141 183 187
f 141 187 188
f 141 188 185
f 142 186 143
f 143 189 144
f 143 186 190
f 143 190 191
f 143 191 192
f 143 192 189
f 144 193 194
f 144 194 145
f 144 189 193
f 145 195 146
f 145 194 196
f 145 196 195
f 146 195 147
f 147 195 196
f 147 196 156
f 148 151 152
f 149 197 198
f 149 198 150
f 149 157 199
f 149 199 197
f 150 198 201
f 150 201 161
f 150 161 160
f 150 160 151
f 151 160 154
f 151 154 153
f 154 160 155
f 155 160 158
f 156 196 200
f 156 200 157
f 157 200 199
f 159 161 201
f 159 201 202
f 159 202 203
f 159 203 162
f 162 203 171
f 162 171 163
f 165 177 166
f 166 177 167
f 167 177 204
f 167 204 179
f 167 179 178
f 168 173 205
f 168 205 169
f 169 205 206
f 169 206 174
f 171 203 172
f 172 207 173
f 172 203 207
f 173 208 205
f 173 207 209
f 173 209 210
f 173 210 211
f 173 211 208
f 174 206 175
f 175 206 205
f 175 205 208
f 175 208 176
f 176 208 211
f 176 211 212
f 176 212 177
f 177 212 180
f 177 180 204
f 179 204 180
f 180 212 213
f 180 213 241
f 180 241 214
f 180 214 242
f 180 242 215
f 180 215 181
f 181 215 242
f 181 242 216
f 181 216 217
f 181 217 182
f 183 218 187
f 183 217 216
f 183 216 214
f 183 214 218
f 185 188 219
f 185 219 220
f 185 220 221
f 185 221 186
f 186 221 190
f 187 222 188
f 187 218 222
f 188 222 218
f 188 218 223
f 188 223 224
f 188 224 219
f 189 225 193
f 189 192 226
f 189 226 227
f 189 227 228
f 189 228 225
f 190 221 191
f 191 221 220
f 191 220 224
f 191 224 192
f 192 224 229
f 192 229 226
f 193 225 194
f 194 225 228
f 194 228 230
f 194 230 196
f 196 230 231
f 196 231 232
f 196 232 200
f 197 233 234
f 197 234 235
f 197 235 198
f 197 199 233
f 198 235 236
f 198 236 201
f 199 200 232
f 199 232 233
f 201 236 202
f 202 236 237
f 202 237 207
f 202 207 203
f 207 237 209
f 209 237 234
f 209 234 238
f 209 238 239
f 209 239 210
f 210 212 211
f 210 239 240
f 210 240 212
f 212 240 241
f 212 241 213
f 214 216 242
f 214 241 240
f 214 240 224
f 214 224 223
f 214 223 218
f 219 224 220
f 224 240 229
f 226 243 244
f 226 244 227
f 226 229 245
f 226 245 243
f 227 244 228
f 228 244 243
f 228 243 230
f 229 246 245
f 229 240 246
f 230 243 231
f 231 243 245
f 231 245 246
f 231 246 239
f 231 239 238
f 231 238 233
f 231 233 232
f 233 238 234
f 234 237 236
f 234 236 235
f 239 246 240
