v -7.71472e-05 -0.720583 0.000521454
v 0.461311 -0.736937 0.000521454
v 0.036704 -0.738818 0.461932
v 0.0220393 -0.738239 0.461932
v 0.00364873 -0.737371 0.461599
v -7.71472e-05 -0.711176 0.486979
v -7.71472e-05 0.720581 0.000521454
v 0.484526 -0.729267 0.0026166
v 0.475832 -0.736792 0.00390227
v 0.46198 -0.738818 0.0513766
v 0.461311 0.736935 0.000521454
v 0.46198 -0.739252 0.0660428
v 0.0513686 -0.739108 0.461932
v 0.00364873 -0.736937 0.47636
v 0.00364873 -0.725938 0.484836
v 0.026625 -0.720004 0.484265
v 0.0953627 -0.711176 0.478741
v 0.0953627 0.711174 0.478741
v 0.0660333 0.681795 0.481265
v -7.71472e-05 0.714213 0.486646
v -7.71472e-05 0.732883 0.482741
v 0.00364873 0.737369 0.461599
v 0.0220393 0.738238 0.461932
v 0.487296 -0.711176 0.00399751
v 0.487917 -0.711176 0.0220921
v 0.484192 -0.733319 0.0119972
v 0.480227 0.734764 0.00242614
v 0.487153 0.712621 0.00399751
v 0.476644 -0.737371 0.0220921
v 0.46198 0.739251 0.0660428
v 0.476644 0.737369 0.0220921
v 0.080698 -0.739252 0.461932
v 0.46198 -0.739108 0.0807089
v 0.447267 -0.739252 0.139373
v 0.0953627 -0.739252 0.461932
v 0.0513686 -0.736647 0.473789
v 0.0953627 -0.735779 0.472027
v 0.0953627 -0.725793 0.476789
v 0.110027 -0.725793 0.473884
v 0.110027 -0.711176 0.475789
v 0.110027 0.711174 0.475789
v 0.110027 0.725791 0.473884
v 0.0953627 0.725791 0.476789
v 0.0311629 0.719134 0.484074
v 0.0220393 0.720871 0.484455
v 0.00364873 0.724344 0.485217
v 0.0953627 0.735777 0.472027
v 0.0513686 0.736646 0.473789
v 0.00364873 0.73708 0.474646
v 0.036704 0.738672 0.461932
v 0.487917 0.711174 0.0220921
v 0.486293 -0.711176 0.0367105
v 0.484908 -0.725214 0.0353296
v 0.485051 -0.729556 0.0239015
v 0.470673 -0.734621 0.095375
v 0.471915 -0.735634 0.0807089
v 0.477456 -0.736213 0.0353296
v 0.484192 0.733317 0.0119972
v 0.485434 0.726081 0.00390227
v 0.474351 -0.736792 0.0513766
v 0.0513686 0.738961 0.461932
v 0.080698 0.739251 0.461932
v 0.447267 0.739251 0.139373
v 0.46198 0.738961 0.0807089
v 0.474351 0.73679 0.0513766
v 0.477456 0.736212 0.0353296
v 0.46198 0.738382 0.095375
v 0.46198 -0.738384 0.095375
v 0.447267 -0.738818 0.154039
v 0.403321 -0.739252 0.242036
v 0.139357 -0.739252 0.447266
v 0.110027 -0.738239 0.461932
v 0.139357 -0.735924 0.45798
v 0.113897 -0.733898 0.470027
v 0.120584 -0.725793 0.470408
v 0.123163 -0.711176 0.471361
v 0.123163 0.711174 0.471361
v 0.120584 0.725791 0.470408
v 0.113897 0.733896 0.470027
v 0.139357 0.735922 0.45798
v 0.110027 0.738238 0.461932
v 0.0953627 0.739251 0.461932
v 0.485051 0.729554 0.0239015
v 0.484908 0.725212 0.0353296
v 0.486293 0.711174 0.0367105
v 0.469957 -0.711176 0.128374
v 0.484239 -0.720004 0.0459483
v 0.4701 -0.722175 0.122279
v 0.469909 -0.731582 0.109374
v 0.456964 -0.735056 0.154039
v 0.459114 -0.736503 0.139373
v 0.471915 0.735633 0.0807089
v 0.470673 0.73462 0.095375
v 0.403321 0.739251 0.242036
v 0.447267 0.738672 0.154039
v 0.459114 0.736501 0.139373
v 0.418654 -0.736792 0.227418
v 0.447602 -0.736358 0.167991
v 0.433128 -0.736647 0.197704
v 0.414403 -0.735924 0.242036
v 0.40399 -0.736792 0.25694
v 0.373992 -0.738818 0.285939
v 0.359279 -0.739252 0.300605
v 0.21268 -0.739252 0.417934
v 0.183351 -0.739108 0.4326
v 0.21268 -0.736503 0.429981
v 0.183351 -0.73549 0.442695
v 0.193716 -0.734187 0.440981
v 0.150821 -0.734477 0.456028
v 0.160613 -0.732161 0.454218
v 0.164053 -0.722464 0.455552
v 0.200929 -0.728253 0.440695
v 0.165438 -0.711176 0.456076
v 0.165438 0.711174 0.456076
v 0.164053 0.722463 0.455552
v 0.200929 0.728252 0.440695
v 0.160613 0.732159 0.454218
v 0.193716 0.734185 0.440981
v 0.150821 0.734475 0.456028
v 0.183351 0.735488 0.442695
v 0.21268 0.736501 0.429981
v 0.183351 0.738961 0.4326
v 0.139357 0.739251 0.447266
v 0.469909 0.73158 0.109374
v 0.4701 0.722173 0.122279
v 0.484239 0.720002 0.0459483
v 0.469957 0.711174 0.128374
v 0.467951 -0.681797 0.139373
v 0.467903 -0.711176 0.139373
v 0.465801 -0.725793 0.139373
v 0.442825 -0.735345 0.183372
v 0.461311 -0.725793 0.154039
v 0.455818 -0.729701 0.163896
v 0.42644 -0.734187 0.222561
v 0.456964 0.735054 0.154039
v 0.359279 0.739251 0.300605
v 0.373992 0.738672 0.285939
v 0.40399 0.73679 0.25694
v 0.414403 0.735922 0.242036
v 0.418654 0.73679 0.227418
v 0.433128 0.736646 0.197704
v 0.447602 0.736356 0.167944
v 0.412015 -0.734477 0.252274
v 0.399595 -0.735345 0.268416
v 0.358992 -0.736213 0.3147
v 0.344758 -0.736647 0.329842
v 0.330523 -0.736937 0.345032
v 0.30062 -0.739252 0.35927
v 0.242009 -0.739108 0.403268
v 0.228252 -0.737226 0.418982
v 0.223953 -0.735056 0.427505
v 0.209575 -0.723333 0.43879
v 0.211343 -0.711176 0.439457
v 0.211343 0.711174 0.439457
v 0.209575 0.723331 0.43879
v 0.223953 0.735054 0.427505
v 0.228252 0.737225 0.418982
v 0.21268 0.739251 0.417934
v 0.465801 0.725791 0.139373
v 0.467903 0.711174 0.139373
v 0.467951 0.681795 0.139373
v 0.463317 -0.711176 0.154039
v 0.442252 -0.725793 0.195562
v 0.457394 -0.711176 0.167325
v 0.425772 -0.726951 0.229846
v 0.411346 -0.72753 0.259512
v 0.42644 0.734185 0.222561
v 0.455818 0.729699 0.163896
v 0.461311 0.725791 0.154039
v 0.442825 0.735343 0.183372
v 0.30062 0.739251 0.35927
v 0.330523 0.736935 0.345032
v 0.344758 0.736646 0.329842
v 0.358992 0.736212 0.3147
v 0.399595 0.735343 0.268416
v 0.412015 0.734475 0.252274
v 0.395583 -0.732161 0.278178
v 0.381778 -0.733464 0.293796
v 0.367877 -0.734042 0.309414
v 0.353929 -0.734621 0.324938
v 0.339933 -0.734911 0.340413
v 0.315476 -0.736792 0.359698
v 0.325985 -0.7352 0.355127
v 0.285956 -0.738818 0.373936
v 0.25591 -0.736213 0.403173
v 0.246261 -0.734766 0.412982
v 0.233459 -0.725214 0.426553
v 0.227345 -0.711176 0.432029
v 0.227345 -0.681797 0.432076
v 0.227345 0.681795 0.432076
v 0.227345 0.711174 0.432029
v 0.233459 0.725212 0.426553
v 0.246261 0.734764 0.412982
v 0.25591 0.736212 0.403173
v 0.271769 0.73708 0.389364
v 0.285956 0.738672 0.373936
v 0.242009 0.738961 0.403268
v 0.463317 0.711174 0.154039
v 0.424673 -0.715228 0.236989
v 0.449894 -0.711176 0.183372
v 0.457394 0.711174 0.167325
v 0.411107 -0.715662 0.264607
v 0.397207 -0.722464 0.280035
v 0.411346 0.727528 0.259512
v 0.425772 0.726949 0.229846
v 0.442252 0.725791 0.195562
v 0.315476 0.73679 0.359698
v 0.325985 0.735198 0.355127
v 0.339933 0.734909 0.340413
v 0.353929 0.73462 0.324938
v 0.367877 0.734041 0.309414
v 0.381778 0.733462 0.293796
v 0.395583 0.732159 0.278178
v 0.369645 -0.725793 0.31151
v 0.335777 -0.728977 0.350222
v 0.271769 -0.737082 0.389364
v 0.310652 -0.734621 0.36846
v 0.29957 -0.735779 0.373602
v 0.317244 -0.725793 0.367888
v 0.267279 -0.734911 0.398173
v 0.293933 -0.733464 0.381697
v 0.252757 -0.725793 0.41303
v 0.279173 -0.720004 0.396316
v 0.236564 -0.711176 0.426553
v 0.236564 0.711174 0.426553
v 0.279173 0.720002 0.396316
v 0.252757 0.725791 0.41303
v 0.293933 0.733462 0.381697
v 0.310652 0.73462 0.36846
v 0.267279 0.734909 0.398173
v 0.29957 0.735777 0.373602
v 0.424673 0.715227 0.236989
v 0.415358 -0.711176 0.256607
v 0.449894 0.711174 0.183372
v 0.405136 -0.711176 0.272083
v 0.337545 -0.715228 0.352222
v 0.411107 0.715661 0.264607
v 0.397207 0.722463 0.280035
v 0.317244 0.725791 0.367888
v 0.335777 0.728975 0.350222
v 0.369645 0.725791 0.31151
v 0.330523 -0.72478 0.356889
v 0.299426 -0.725793 0.380412
v 0.31882 -0.711176 0.369079
v 0.31882 0.711174 0.369079
v 0.299426 0.725791 0.380412
v 0.415358 0.711174 0.256607
v 0.384309 -0.711176 0.296843
v 0.405136 0.711174 0.272083
v 0.32995 -0.711176 0.359508
v 0.337545 0.715227 0.352222
v 0.330523 0.724778 0.356889
v 0.32995 0.711174 0.359508
v 0.384309 0.711174 0.296843
f 1 2 3
f 1 3 4
f 1 4 5
f 1 5 6
f 1 6 20
f 1 20 21
f 1 21 7
f 1 7 11
f 1 11 2
f 2 8 9
f 2 9 10
f 2 10 3
f 2 11 8
f 3 12 13
f 3 13 14
f 3 14 4
f 3 10 12
f 4 14 5
f 5 14 6
f 6 14 15
f 6 15 16
f 6 16 17
f 6 17 18
f 6 18 19
f 6 19 20
f 7 21 22
f 7 22 23
f 7 23 11
f 8 24 25
f 8 25 26
f 8 26 9
f 8 11 27
f 8 27 28
f 8 28 24
f 9 29 10
f 9 26 29
f 10 29 12
f 11 23 30
f 11 30 31
f 11 31 27
f 12 32 13
f 12 29 33
f 12 33 34
f 12 34 70
f 12 70 103
f 12 103 148
f 12 148 104
f 12 104 71
f 12 71 35
f 12 35 32
f 13 32 14
f 14 32 35
f 14 35 36
f 14 36 37
f 14 37 15
f 15 38 16
f 15 37 38
f 16 38 17
f 17 38 39
f 17 39 40
f 17 40 41
f 17 41 18
f 18 41 42
f 18 42 43
f 18 43 44
f 18 44 19
f 19 44 20
f 20 44 45
f 20 45 46
f 20 46 21
f 21 46 43
f 21 43 47
f 21 47 48
f 21 48 49
f 21 49 22
f 22 49 23
f 23 50 30
f 23 49 50
f 24 28 51
f 24 51 25
f 25 52 53
f 25 53 54
f 25 54 26
f 25 51 85
f 25 85 52
f 26 54 55
f 26 55 56
f 26 56 57
f 26 57 29
f 27 31 58
f 27 58 59
f 27 59 28
f 28 59 51
f 29 60 33
f 29 57 60
f 30 50 61
f 30 61 62
f 30 62 82
f 30 82 123
f 30 123 158
f 30 158 171
f 30 171 136
f 30 136 94
f 30 94 63
f 30 63 64
f 30 64 31
f 31 65 66
f 31 66 58
f 31 64 67
f 31 67 65
f 33 60 68
f 33 68 69
f 33 69 34
f 34 69 70
f 35 71 72
f 35 72 37
f 35 37 36
f 37 72 73
f 37 73 74
f 37 74 38
f 38 74 39
f 39 74 75
f 39 75 40
f 40 75 76
f 40 76 77
f 40 77 41
f 41 77 78
f 41 78 42
f 42 78 79
f 42 79 43
f 43 79 47
f 43 46 45
f 43 45 44
f 47 80 81
f 47 81 82
f 47 82 48
f 47 79 80
f 48 82 49
f 49 82 62
f 49 62 61
f 49 61 50
f 51 59 83
f 51 83 84
f 51 84 85
f 52 86 87
f 52 87 53
f 52 85 127
f 52 127 86
f 53 88 89
f 53 89 54
f 53 87 88
f 54 89 55
f 55 90 91
f 55 91 56
f 55 89 90
f 56 91 60
f 56 60 57
f 58 83 59
f 58 66 92
f 58 92 93
f 58 93 83
f 60 91 68
f 63 94 95
f 63 95 67
f 63 67 64
f 65 67 96
f 65 96 92
f 65 92 66
f 67 95 96
f 68 91 69
f 69 97 70
f 69 91 90
f 69 90 98
f 69 98 99
f 69 99 100
f 69 100 97
f 70 97 100
f 70 100 101
f 70 101 102
f 70 102 103
f 71 104 105
f 71 105 72
f 72 105 106
f 72 106 73
f 73 106 107
f 73 107 108
f 73 108 109
f 73 109 74
f 74 110 75
f 74 109 108
f 74 108 110
f 75 111 76
f 75 110 112
f 75 112 111
f 76 111 113
f 76 113 114
f 76 114 77
f 77 114 115
f 77 115 78
f 78 115 116
f 78 116 117
f 78 117 79
f 79 117 118
f 79 118 119
f 79 119 80
f 80 119 118
f 80 118 120
f 80 120 121
f 80 121 81
f 81 122 123
f 81 123 82
f 81 121 122
f 83 93 124
f 83 124 84
f 84 124 125
f 84 125 126
f 84 126 85
f 85 126 127
f 86 127 161
f 86 161 128
f 86 128 129
f 86 129 88
f 86 88 87
f 88 130 89
f 88 129 130
f 89 130 90
f 90 131 98
f 90 130 132
f 90 132 133
f 90 133 134
f 90 134 131
f 92 96 93
f 93 96 135
f 93 135 124
f 94 136 137
f 94 137 138
f 94 138 139
f 94 139 140
f 94 140 95
f 95 140 141
f 95 141 142
f 95 142 135
f 95 135 96
f 98 131 100
f 98 100 99
f 100 131 134
f 100 134 143
f 100 143 101
f 101 143 144
f 101 144 102
f 102 144 145
f 102 145 146
f 102 146 147
f 102 147 103
f 103 147 148
f 104 148 149
f 104 149 150
f 104 150 106
f 104 106 105
f 106 151 108
f 106 108 107
f 106 150 151
f 108 151 112
f 108 112 110
f 111 112 152
f 111 152 153
f 111 153 113
f 112 151 152
f 113 153 154
f 113 154 114
f 114 154 115
f 115 155 116
f 115 154 155
f 116 155 156
f 116 156 118
f 116 118 117
f 118 156 121
f 118 121 120
f 121 156 157
f 121 157 158
f 121 158 122
f 122 158 123
f 124 159 125
f 124 135 159
f 125 160 127
f 125 127 126
f 125 159 160
f 127 160 161
f 128 162 129
f 128 161 198
f 128 198 162
f 129 162 132
f 129 132 130
f 132 163 133
f 132 162 164
f 132 164 163
f 133 163 165
f 133 165 134
f 134 165 166
f 134 166 143
f 135 167 168
f 135 168 169
f 135 169 159
f 135 142 170
f 135 170 167
f 136 171 172
f 136 172 173
f 136 173 137
f 137 173 174
f 137 174 175
f 137 175 138
f 138 175 176
f 138 176 139
f 139 176 167
f 139 167 170
f 139 170 142
f 139 142 141
f 139 141 140
f 143 166 177
f 143 177 144
f 144 177 178
f 144 178 179
f 144 179 180
f 144 180 145
f 145 180 181
f 145 181 146
f 146 181 147
f 147 182 148
f 147 181 183
f 147 183 182
f 148 184 149
f 148 182 184
f 149 184 150
f 150 184 185
f 150 185 151
f 151 186 187
f 151 187 152
f 151 185 186
f 152 187 188
f 152 188 153
f 153 188 189
f 153 189 190
f 153 190 154
f 154 190 191
f 154 191 155
f 155 192 156
f 155 191 192
f 156 192 193
f 156 193 194
f 156 194 157
f 157 195 196
f 157 196 197
f 157 197 158
f 157 194 195
f 158 197 171
f 159 169 160
f 160 198 161
f 160 169 198
f 162 198 201
f 162 201 164
f 163 164 199
f 163 199 165
f 164 200 199
f 164 201 234
f 164 234 200
f 165 199 166
f 166 199 202
f 166 202 203
f 166 203 177
f 167 176 204
f 167 204 205
f 167 205 168
f 168 205 206
f 168 206 169
f 169 206 201
f 169 201 198
f 171 197 196
f 171 196 207
f 171 207 172
f 172 207 208
f 172 208 209
f 172 209 173
f 173 209 174
f 174 209 210
f 174 210 175
f 175 210 211
f 175 211 212
f 175 212 213
f 175 213 176
f 176 213 204
f 177 203 214
f 177 214 215
f 177 215 178
f 178 215 179
f 179 215 180
f 180 215 181
f 181 215 183
f 182 216 184
f 182 183 217
f 182 217 218
f 182 218 185
f 182 185 216
f 183 215 219
f 183 219 217
f 184 216 185
f 185 218 220
f 185 220 186
f 186 220 217
f 186 217 221
f 186 221 187
f 187 221 222
f 187 222 223
f 187 223 224
f 187 224 188
f 188 224 189
f 189 224 225
f 189 225 190
f 190 225 191
f 191 225 192
f 192 225 226
f 192 226 227
f 192 227 228
f 192 228 193
f 193 229 230
f 193 230 194
f 193 228 229
f 194 230 231
f 194 231 207
f 194 207 195
f 195 207 196
f 199 200 234
f 199 234 232
f 199 232 247
f 199 247 233
f 199 233 202
f 201 206 232
f 201 232 234
f 202 235 236
f 202 236 203
f 202 233 247
f 202 247 237
f 202 237 249
f 202 249 235
f 203 236 214
f 204 213 238
f 204 238 237
f 204 237 232
f 204 232 205
f 205 232 206
f 207 231 229
f 207 229 208
f 208 229 239
f 208 239 240
f 208 240 209
f 209 240 210
f 210 240 211
f 211 240 212
f 212 240 213
f 213 240 241
f 213 241 238
f 214 236 215
f 215 236 242
f 215 242 219
f 217 220 218
f 217 219 221
f 219 243 221
f 219 242 244
f 219 244 223
f 219 223 243
f 221 243 222
f 222 243 223
f 223 244 224
f 224 244 245
f 224 245 225
f 225 245 226
f 226 245 239
f 226 239 246
f 226 246 227
f 227 246 228
f 228 246 239
f 228 239 229
f 229 231 230
f 232 237 247
f 235 248 236
f 235 249 254
f 235 254 248
f 236 250 242
f 236 248 254
f 236 254 251
f 236 251 253
f 236 253 250
f 237 251 249
f 237 238 251
f 238 241 251
f 239 252 240
f 239 245 252
f 240 252 251
f 240 251 241
f 242 250 244
f 244 250 253
f 244 253 245
f 245 253 252
f 249 251 254
f 251 252 253
