v 0.00168129 -0.132753 -0.567427
v 0.00440094 -0.132753 -0.567427
v 0.00168129 -0.132753 -0.556106
v 0.00168129 -0.10754 -0.572146
v 0.00585712 -0.132753 -0.567406
v 0.220431 -0.132753 -0.509644
v 0.220431 0.100298 -0.522551
v 0.00168129 0.100298 -0.56958
v 0.00168129 -0.107084 -0.572202
v 0.00206675 -0.107518 -0.572139
v 0.0160718 -0.132753 -0.567007
v 0.220431 -0.132753 -0.52302
v 0.220431 0.100298 -0.525614
v 0.00168129 0.100298 -0.580334
v 0.00168129 -0.0833546 -0.574454
v 0.00585712 -0.0875301 -0.573594
v 0.00592136 -0.0990526 -0.572503
v 0.0130738 -0.0950596 -0.572069
v 0.122545 -0.040847 -0.564742
v 0.110895 -0.0525064 -0.564945
v 0.0992244 -0.0641885 -0.565147
v 0.0875535 -0.0758479 -0.56535
v 0.0758826 -0.0875301 -0.565518
v 0.0642117 -0.0991895 -0.565658
v 0.0525408 -0.110872 -0.565791
v 0.0408699 -0.122531 -0.565916
v 0.0291989 -0.132753 -0.566126
v 0.00168129 -0.0758479 -0.57516
v 0.213385 -0.132753 -0.526593
v 0.214606 -0.122531 -0.527229
v 0.220431 -0.106582 -0.525774
v 0.220431 0.100252 -0.535158
v 0.220067 0.100298 -0.535291
v 0.00168129 0.0993621 -0.580418
v 0.0525408 0.100298 -0.577999
v 0.00168129 -0.0716725 -0.575552
v 0.00585712 -0.0641885 -0.575782
v 0.0291989 -0.040847 -0.575335
v 0.0642331 -0.0289594 -0.572489
v 0.0823712 -0.0124629 -0.571986
v 0.122545 -0.0291648 -0.565805
v 0.134216 -0.040847 -0.563127
v 0.122545 -0.0525064 -0.563371
v 0.0933782 -4.94264e-06 -0.571902
v 0.0875535 -0.0875301 -0.563861
v 0.0758826 -0.0991895 -0.564022
v 0.0642117 -0.110872 -0.564175
v 0.0525408 -0.122531 -0.564329
v 0.0408699 -0.132753 -0.564651
v 0.0992244 -0.0758479 -0.5637
v 0.2121 -0.132753 -0.527068
v 0.188651 -0.122531 -0.537696
v 0.190643 -0.110872 -0.538563
v 0.198652 -0.083309 -0.537011
v 0.215912 -0.0875301 -0.529117
v 0.216747 -0.109891 -0.527173
v 0.220431 -0.103913 -0.525963
v 0.220431 0.0992024 -0.535179
v 0.214263 0.0992024 -0.53843
v 0.21422 0.100298 -0.538416
v 0.21951 0.100298 -0.535591
v 0.00168129 0.0875202 -0.580887
v 0.0630981 0.100298 -0.577209
v 0.0642117 0.0875202 -0.577432
v 0.0525408 0.0875202 -0.578181
v 0.00168129 0.0758609 -0.581075
v 0.00168129 -0.0641885 -0.576251
v 0.00585712 -0.0525064 -0.576873
v 0.017528 -0.040847 -0.576649
v 0.0291989 -0.0291648 -0.576426
v 0.0642117 -0.0175054 -0.573566
v 0.0851122 -0.00584604 -0.572293
v 0.134216 -0.0291648 -0.564182
v 0.0964405 0.00777558 -0.572188
v 0.105927 0.0213744 -0.571986
v 0.142867 -0.040847 -0.561225
v 0.141454 -0.0494945 -0.560658
v 0.134794 -0.0530311 -0.561399
v 0.0525408 -0.0175054 -0.574866
v 0.0758826 -0.110872 -0.562301
v 0.0525408 -0.132753 -0.562805
v 0.123294 -0.0648959 -0.56149
v 0.203042 -0.132753 -0.530298
v 0.186981 -0.128737 -0.536983
v 0.180899 -0.122531 -0.539948
v 0.164817 -0.0956301 -0.549016
v 0.166337 -0.0875301 -0.549674
v 0.167558 -0.0758479 -0.550268
v 0.191564 -0.0991895 -0.538941
v 0.193534 -0.0873248 -0.538878
v 0.19257 -0.0758479 -0.539983
v 0.200922 -0.0525064 -0.537941
v 0.21043 -0.00235507 -0.537039
v 0.220431 -0.0110254 -0.532186
v 0.220431 -0.0875301 -0.52711
v 0.220431 -0.0957898 -0.526537
v 0.220431 0.0986776 -0.535186
v 0.152889 0.0992024 -0.560658
v 0.180664 0.100298 -0.55059
v 0.220431 0.0875202 -0.535298
v 0.214392 0.0875202 -0.538465
v 0.153018 0.0875202 -0.560707
v 0.0642117 0.100298 -0.577118
v 0.0642117 0.0992024 -0.577146
v 0.0875535 0.0875202 -0.57544
v 0.0642117 0.0758609 -0.577467
v 0.0525408 0.0758609 -0.578202
v 0.0525408 0.0641787 -0.578034
v 0.0291989 0.00581334 -0.578034
v 0.017528 -0.0175054 -0.578139
v 0.00585712 -0.0291648 -0.578327
v 0.00168129 -0.0291648 -0.578432
v 0.00168129 -0.0525064 -0.577272
v 0.00585712 -0.040847 -0.577803
v 0.017528 -0.0291648 -0.577607
v 0.0408699 -0.0175054 -0.576097
v 0.134216 -0.0175054 -0.564889
v 0.143895 -0.0291648 -0.561686
v 0.116741 0.0464272 -0.571916
v 0.0525408 -0.00584604 -0.575663
v 0.0998883 0.0174955 -0.572377
v 0.0291989 -0.0175054 -0.577272
v 0.0642117 0.00581334 -0.575111
v 0.107533 0.0291777 -0.572125
v 0.157558 -0.0758479 -0.553421
v 0.157558 -0.0875301 -0.552135
v 0.131282 -0.0614962 -0.560707
v 0.145887 -0.0991895 -0.552554
v 0.134216 -0.110872 -0.552778
v 0.122545 -0.122531 -0.552981
v 0.100338 -0.0886253 -0.561665
v 0.108561 -0.0854766 -0.560805
v 0.0822213 -0.11726 -0.560323
v 0.0708502 -0.129239 -0.560372
v 0.062884 -0.132753 -0.561134
v 0.181135 -0.132753 -0.537738
v 0.18045 -0.132753 -0.537927
v 0.169228 -0.132753 -0.540696
v 0.157879 -0.0993948 -0.549988
v 0.168393 -0.0641885 -0.550555
v 0.175267 -0.0483993 -0.548653
v 0.202635 -0.0291648 -0.53864
v 0.19257 -0.0641885 -0.540682
v 0.201779 -0.040847 -0.53829
v 0.210965 0.00581334 -0.537263
v 0.220431 -0.00598294 -0.532494
v 0.145887 0.100298 -0.563182
v 0.152225 0.100298 -0.560889
v 0.145887 0.0875202 -0.563287
v 0.220431 0.0872236 -0.535298
v 0.220431 0.0758609 -0.535256
v 0.214349 0.0758609 -0.538444
v 0.145887 0.0758609 -0.563266
v 0.074769 0.100298 -0.576216
v 0.110895 0.0875202 -0.57344
v 0.0758826 0.0758609 -0.576461
v 0.0642117 0.0641787 -0.577153
v 0.0525408 0.0525193 -0.57774
v 0.0408699 0.0291777 -0.577901
v 0.0291989 -0.00584604 -0.57774
v 0.00168129 -0.040847 -0.578041
v 0.134216 -0.00584604 -0.565385
v 0.169228 -0.040847 -0.551359
v 0.170235 -0.0523695 -0.550422
v 0.134216 0.00581334 -0.565784
v 0.144452 -0.0175054 -0.561875
v 0.17848 0.00581334 -0.549869
v 0.169228 -0.00584604 -0.552939
v 0.177816 -0.00584604 -0.549639
v 0.169228 -0.0175054 -0.552443
v 0.117191 0.0525193 -0.572028
v 0.110895 0.0641787 -0.573062
v 0.110895 0.0758609 -0.573426
v 0.0408699 -0.00584604 -0.576747
v 0.0408699 0.00581334 -0.57716
v 0.0875535 0.0525193 -0.574706
v 0.0992244 0.0641787 -0.57409
v 0.0935924 -0.105259 -0.560274
v 0.146572 -0.111465 -0.550191
v 0.131903 -0.132753 -0.549408
v 0.122545 -0.132753 -0.551317
v 0.110895 -0.132753 -0.553331
v 0.143124 -0.120318 -0.549282
v 0.154217 -0.107974 -0.549149
v 0.175738 -0.040847 -0.548828
v 0.211715 0.0174955 -0.537542
v 0.220431 0.00191167 -0.532927
v 0.118133 0.0992024 -0.572279
v 0.118091 0.100298 -0.572265
v 0.118583 0.0875202 -0.572426
v 0.220431 0.0641787 -0.535039
v 0.145887 0.0641787 -0.563141
v 0.21407 0.0641787 -0.53836
v 0.152439 0.0408371 -0.560498
v 0.145887 0.0408371 -0.562875
v 0.118562 0.0758609 -0.572412
v 0.109782 0.100298 -0.573216
v 0.110895 0.0992024 -0.573146
v 0.0992244 0.0758609 -0.57444
v 0.0525408 0.0408371 -0.577363
v 0.0408699 0.0174955 -0.577565
v 0.117962 0.0641787 -0.57223
v 0.204241 0.0174955 -0.540458
v 0.134216 0.0174955 -0.566105
v 0.144923 -0.00584604 -0.56205
v 0.213642 0.0525193 -0.538228
v 0.213085 0.0408371 -0.538046
v 0.212422 0.0291777 -0.537815
v 0.0525408 0.0291777 -0.576957
v 0.0642117 0.0408371 -0.576342
v 0.220431 0.00581334 -0.533116
v 0.110895 0.100298 -0.573118
v 0.220431 0.0525193 -0.534731
v 0.179979 0.0408371 -0.55038
v 0.152118 0.0291777 -0.560386
v 0.145887 0.0291777 -0.562672
v 0.145373 0.00581334 -0.562218
v 0.146936 0.0177465 -0.561987
v 0.220431 0.0408371 -0.534368
v 0.220431 0.0291777 -0.533962
v 0.220431 0.0174955 -0.53355
f 1 2 5
f 1 5 11
f 1 11 27
f 1 27 49
f 1 49 81
f 1 81 135
f 1 135 182
f 1 182 181
f 1 181 180
f 1 180 138
f 1 138 137
f 1 137 136
f 1 136 83
f 1 83 51
f 1 51 29
f 1 29 12
f 1 12 6
f 1 6 3
f 1 3 8
f 1 8 14
f 1 14 34
f 1 34 62
f 1 62 66
f 1 66 112
f 1 112 161
f 1 161 113
f 1 113 67
f 1 67 36
f 1 36 28
f 1 28 15
f 1 15 9
f 1 9 4
f 1 4 2
f 2 4 5
f 3 6 7
f 3 7 8
f 4 9 10
f 4 10 5
f 5 10 11
f 6 12 31
f 6 31 57
f 6 57 96
f 6 96 95
f 6 95 94
f 6 94 146
f 6 146 187
f 6 187 211
f 6 211 221
f 6 221 220
f 6 220 219
f 6 219 213
f 6 213 191
f 6 191 151
f 6 151 150
f 6 150 100
f 6 100 97
f 6 97 58
f 6 58 32
f 6 32 13
f 6 13 7
f 7 13 33
f 7 33 61
f 7 61 60
f 7 60 99
f 7 99 148
f 7 148 147
f 7 147 189
f 7 189 212
f 7 212 197
f 7 197 154
f 7 154 103
f 7 103 63
f 7 63 35
f 7 35 14
f 7 14 8
f 9 15 10
f 10 16 17
f 10 17 18
f 10 18 19
f 10 19 20
f 10 20 21
f 10 21 22
f 10 22 23
f 10 23 24
f 10 24 25
f 10 25 26
f 10 26 27
f 10 27 11
f 10 15 28
f 10 28 16
f 12 29 30
f 12 30 31
f 13 32 33
f 14 35 34
f 16 18 17
f 16 28 36
f 16 36 37
f 16 37 38
f 16 38 39
f 16 39 18
f 18 39 40
f 18 40 19
f 19 41 42
f 19 42 43
f 19 43 20
f 19 40 44
f 19 44 41
f 20 43 21
f 21 43 22
f 22 43 23
f 23 45 46
f 23 46 47
f 23 47 48
f 23 48 49
f 23 49 24
f 23 43 50
f 23 50 45
f 24 49 25
f 25 49 26
f 26 49 27
f 29 51 52
f 29 52 53
f 29 53 30
f 30 53 54
f 30 54 55
f 30 55 56
f 30 56 57
f 30 57 31
f 32 58 59
f 32 59 60
f 32 60 61
f 32 61 33
f 34 35 62
f 35 63 64
f 35 64 65
f 35 65 66
f 35 66 62
f 36 67 37
f 37 67 68
f 37 68 69
f 37 69 38
f 38 69 70
f 38 70 71
f 38 71 39
f 39 71 40
f 40 72 44
f 40 71 72
f 41 73 42
f 41 44 74
f 41 74 75
f 41 75 73
f 42 76 77
f 42 77 78
f 42 78 43
f 42 73 76
f 43 78 50
f 44 72 70
f 44 70 79
f 44 79 74
f 45 50 78
f 45 78 46
f 46 78 47
f 47 78 48
f 48 80 81
f 48 81 49
f 48 78 82
f 48 82 80
f 51 83 84
f 51 84 52
f 52 84 85
f 52 85 86
f 52 86 87
f 52 87 53
f 53 87 88
f 53 88 89
f 53 89 54
f 54 89 90
f 54 90 91
f 54 91 92
f 54 92 93
f 54 93 94
f 54 94 55
f 55 95 96
f 55 96 56
f 55 94 95
f 56 96 57
f 58 97 59
f 59 98 99
f 59 99 60
f 59 97 100
f 59 100 101
f 59 101 102
f 59 102 98
f 63 103 104
f 63 104 64
f 64 104 105
f 64 105 106
f 64 106 65
f 65 106 107
f 65 107 66
f 66 107 108
f 66 108 109
f 66 109 110
f 66 110 111
f 66 111 112
f 67 113 68
f 68 113 114
f 68 114 115
f 68 115 69
f 69 115 70
f 70 115 116
f 70 116 79
f 70 72 71
f 73 117 118
f 73 118 76
f 73 75 119
f 73 119 117
f 74 120 121
f 74 121 75
f 74 79 116
f 74 116 122
f 74 122 120
f 75 121 123
f 75 123 124
f 75 124 119
f 76 118 88
f 76 88 87
f 76 87 125
f 76 125 77
f 77 125 126
f 77 126 78
f 78 127 82
f 78 126 128
f 78 128 129
f 78 129 130
f 78 130 127
f 80 131 132
f 80 132 133
f 80 133 134
f 80 134 81
f 80 82 131
f 81 134 135
f 82 127 131
f 83 136 84
f 84 136 137
f 84 137 85
f 85 137 138
f 85 138 139
f 85 139 86
f 86 139 126
f 86 126 87
f 87 126 125
f 88 118 140
f 88 140 141
f 88 141 93
f 88 93 142
f 88 142 143
f 88 143 91
f 88 91 90
f 88 90 89
f 91 143 142
f 91 142 93
f 91 93 144
f 91 144 92
f 92 144 93
f 93 145 146
f 93 146 94
f 93 141 145
f 98 147 148
f 98 148 99
f 98 102 149
f 98 149 147
f 100 150 101
f 101 150 151
f 101 151 152
f 101 152 153
f 101 153 102
f 102 153 149
f 103 154 104
f 104 154 105
f 105 154 197
f 105 197 155
f 105 155 106
f 106 155 156
f 106 156 157
f 106 157 158
f 106 158 108
f 106 108 107
f 108 158 159
f 108 159 109
f 109 159 160
f 109 160 110
f 110 122 115
f 110 115 114
f 110 114 111
f 110 160 122
f 111 114 161
f 111 161 112
f 113 161 114
f 115 122 116
f 117 119 162
f 117 162 118
f 118 163 164
f 118 164 140
f 118 162 165
f 118 165 166
f 118 166 167
f 118 167 168
f 118 168 169
f 118 169 170
f 118 170 163
f 119 171 162
f 119 124 172
f 119 172 173
f 119 173 171
f 120 174 121
f 120 122 174
f 121 174 123
f 122 160 174
f 123 174 175
f 123 175 176
f 123 176 124
f 124 176 177
f 124 177 172
f 126 139 128
f 127 132 131
f 127 130 178
f 127 178 132
f 128 139 179
f 128 179 180
f 128 180 181
f 128 181 129
f 129 181 130
f 130 181 182
f 130 182 134
f 130 134 133
f 130 133 178
f 132 178 133
f 134 182 135
f 138 180 183
f 138 183 184
f 138 184 139
f 139 184 183
f 139 183 180
f 139 180 179
f 140 164 141
f 141 164 185
f 141 185 186
f 141 186 145
f 145 186 187
f 145 187 146
f 147 188 189
f 147 149 190
f 147 190 188
f 149 153 190
f 151 191 152
f 152 192 153
f 152 191 193
f 152 193 194
f 152 194 195
f 152 195 192
f 153 196 190
f 153 192 196
f 155 197 198
f 155 198 189
f 155 189 188
f 155 188 190
f 155 190 173
f 155 173 199
f 155 199 156
f 156 199 157
f 157 199 173
f 157 173 177
f 157 177 210
f 157 210 200
f 157 200 158
f 158 200 201
f 158 201 160
f 158 160 159
f 160 201 175
f 160 175 174
f 162 171 202
f 162 202 165
f 163 185 164
f 163 170 203
f 163 203 185
f 165 204 205
f 165 205 166
f 165 202 196
f 165 196 204
f 166 205 206
f 166 206 207
f 166 207 167
f 167 207 168
f 168 207 208
f 168 208 169
f 169 208 170
f 170 208 203
f 171 173 202
f 172 177 173
f 173 190 196
f 173 196 202
f 175 201 200
f 175 200 209
f 175 209 176
f 176 209 210
f 176 210 177
f 185 203 186
f 186 203 208
f 186 208 187
f 187 208 211
f 189 198 212
f 191 213 193
f 192 195 196
f 193 213 206
f 193 206 214
f 193 214 215
f 193 215 216
f 193 216 194
f 194 216 195
f 195 216 196
f 196 216 204
f 197 212 198
f 200 210 209
f 204 216 217
f 204 217 205
f 205 217 218
f 205 218 206
f 206 218 215
f 206 215 214
f 206 213 219
f 206 219 220
f 206 220 221
f 206 221 211
f 206 211 207
f 207 211 208
f 215 218 216
f 216 218 217
