v -0.464315 -0.355459 -0.225795
v -0.450591 -0.355459 -0.225795
v -0.468318 -0.355459 -0.215581
v -0.464745 -0.354291 -0.225795
v -0.453157 -0.346077 -0.225795
v -0.547241 -0.180575 -0.00137569
v -0.502562 -0.355459 -0.00137569
v -0.468329 -0.355381 -0.215625
v -0.492104 -0.355459 -0.147899
v -0.467153 -0.35108 -0.222522
v -0.467718 -0.345202 -0.225795
v -0.506168 -0.156615 -0.225795
v -0.553967 -0.156615 -0.00137569
v -0.515585 -0.355459 -0.00137569
v -0.502957 -0.22544 -0.224785
v -0.502799 -0.35326 -0.119297
v -0.492014 -0.344092 -0.157586
v -0.503873 -0.355459 -0.114398
v -0.479962 -0.303159 -0.225795
v -0.519011 -0.156615 -0.225795
v -0.566087 -0.156615 -0.00137569
v -0.516693 -0.351508 -0.00137569
v -0.515472 -0.355459 -0.00532984
v -0.525772 -0.176974 -0.199984
v -0.514127 -0.188731 -0.223379
v -0.514715 -0.183787 -0.225795
v -0.503353 -0.222832 -0.225795
v -0.502098 -0.31583 -0.152314
v -0.538456 -0.227133 -0.122351
v -0.548642 -0.198696 -0.116925
v -0.549536 -0.178434 -0.13116
v -0.515258 -0.320658 -0.11084
v -0.525376 -0.292337 -0.105502
v -0.504834 -0.355459 -0.111608
v -0.514195 -0.329027 -0.106907
v -0.517993 -0.167476 -0.225795
v -0.526733 -0.156615 -0.20497
v -0.565928 -0.156615 -0.00585705
v -0.565996 -0.157569 -0.00137569
v -0.518627 -0.344306 -0.00137569
v -0.515054 -0.355459 -0.0155887
v -0.526427 -0.169247 -0.201785
v -0.517745 -0.169247 -0.225795
v -0.515608 -0.180517 -0.225795
v -0.550361 -0.169131 -0.134718
v -0.548868 -0.16516 -0.140913
v -0.537314 -0.246753 -0.106776
v -0.550994 -0.192585 -0.110884
v -0.553945 -0.180926 -0.110884
v -0.551197 -0.181763 -0.123449
v -0.554046 -0.169247 -0.122548
v -0.514025 -0.340316 -0.0953745
v -0.508293 -0.355459 -0.0992188
v -0.552192 -0.157569 -0.134213
v -0.539021 -0.158639 -0.170371
v -0.549377 -0.156615 -0.142297
v -0.565408 -0.156615 -0.0175218
v -0.565827 -0.157569 -0.00585705
v -0.563407 -0.169247 -0.00137569
v -0.518434 -0.344306 -0.00585705
v -0.525692 -0.316959 -0.00137569
v -0.514986 -0.355459 -0.0167749
v -0.526518 -0.313728 -0.00137569
v -0.541633 -0.250957 -0.0175218
v -0.513697 -0.35071 -0.0608856
v -0.527852 -0.285953 -0.0992188
v -0.537687 -0.248213 -0.0992188
v -0.539971 -0.239279 -0.0992188
v -0.549479 -0.202025 -0.0992188
v -0.551887 -0.192585 -0.0992188
v -0.560264 -0.163525 -0.0820622
v -0.560513 -0.156615 -0.086961
v -0.555369 -0.156615 -0.121604
v -0.555132 -0.157569 -0.122548
v -0.552283 -0.156615 -0.134213
v -0.508384 -0.355459 -0.0984719
v -0.514421 -0.341893 -0.0875541
v -0.564696 -0.156615 -0.0291865
v -0.565284 -0.157569 -0.0175218
v -0.562051 -0.17458 -0.00137569
v -0.563159 -0.169247 -0.00585705
v -0.514624 -0.355459 -0.0230356
v -0.551491 -0.215941 -0.00137569
v -0.550576 -0.215941 -0.0175218
v -0.516795 -0.332628 -0.0875541
v -0.51476 -0.343197 -0.0758674
v -0.509594 -0.355459 -0.0875541
v -0.51138 -0.355459 -0.0648178
v -0.514274 -0.355459 -0.0275609
v -0.560954 -0.177889 -0.00585705
v -0.560784 -0.165549 -0.0642027
v -0.552554 -0.192585 -0.0875541
v -0.560445 -0.164245 -0.0758674
v -0.562288 -0.156615 -0.0632581
v -0.561451 -0.156615 -0.0749228
v -0.56057 -0.156615 -0.0863679
v -0.560547 -0.156615 -0.0866095
v -0.56456 -0.157569 -0.0291865
v -0.563125 -0.156615 -0.0515714
v -0.5552 -0.156615 -0.122548
f 1 2 7
f 1 7 14
f 1 14 23
f 1 23 41
f 1 41 62
f 1 62 82
f 1 82 89
f 1 89 88
f 1 88 87
f 1 87 76
f 1 76 53
f 1 53 34
f 1 34 18
f 1 18 9
f 1 9 3
f 1 3 4
f 1 4 11
f 1 11 19
f 1 19 27
f 1 27 26
f 1 26 44
f 1 44 43
f 1 43 36
f 1 36 20
f 1 20 12
f 1 12 5
f 1 5 2
f 2 5 6
f 2 6 7
f 3 8 4
f 3 9 8
f 4 8 10
f 4 10 11
f 5 12 6
f 6 13 21
f 6 21 39
f 6 39 59
f 6 59 80
f 6 80 83
f 6 83 63
f 6 63 61
f 6 61 40
f 6 40 22
f 6 22 14
f 6 14 7
f 6 12 13
f 8 15 11
f 8 11 10
f 8 9 16
f 8 16 17
f 8 17 15
f 9 18 16
f 11 15 19
f 12 20 37
f 12 37 56
f 12 56 75
f 12 75 100
f 12 100 73
f 12 73 72
f 12 72 97
f 12 97 96
f 12 96 95
f 12 95 94
f 12 94 99
f 12 99 78
f 12 78 57
f 12 57 38
f 12 38 21
f 12 21 13
f 14 22 23
f 15 24 25
f 15 25 26
f 15 26 27
f 15 27 19
f 15 17 28
f 15 28 29
f 15 29 30
f 15 30 31
f 15 31 24
f 16 18 32
f 16 32 33
f 16 33 30
f 16 30 29
f 16 29 28
f 16 28 17
f 18 34 35
f 18 35 32
f 20 36 37
f 21 38 39
f 22 40 23
f 23 40 41
f 24 42 43
f 24 43 44
f 24 44 26
f 24 26 25
f 24 31 45
f 24 45 46
f 24 46 42
f 30 33 47
f 30 47 48
f 30 48 49
f 30 49 50
f 30 50 31
f 31 50 51
f 31 51 45
f 32 35 33
f 33 35 52
f 33 52 47
f 34 53 52
f 34 52 35
f 36 43 42
f 36 42 46
f 36 46 54
f 36 54 55
f 36 55 37
f 37 55 56
f 38 57 58
f 38 58 39
f 39 58 59
f 40 60 41
f 40 61 60
f 41 60 61
f 41 61 63
f 41 63 64
f 41 64 65
f 41 65 62
f 45 54 46
f 45 51 54
f 47 52 66
f 47 66 67
f 47 67 48
f 48 67 68
f 48 68 69
f 48 69 70
f 48 70 49
f 49 70 71
f 49 71 51
f 49 51 50
f 51 71 72
f 51 72 73
f 51 73 74
f 51 74 75
f 51 75 54
f 52 76 77
f 52 77 66
f 52 53 76
f 54 75 56
f 54 56 55
f 57 78 79
f 57 79 58
f 58 79 59
f 59 79 81
f 59 81 80
f 62 65 82
f 63 83 64
f 64 83 84
f 64 84 65
f 65 68 85
f 65 85 86
f 65 86 77
f 65 77 87
f 65 87 88
f 65 88 89
f 65 89 82
f 65 84 68
f 66 77 67
f 67 77 85
f 67 85 68
f 68 84 90
f 68 90 91
f 68 91 92
f 68 92 69
f 69 92 70
f 70 92 91
f 70 91 93
f 70 93 71
f 71 94 95
f 71 95 96
f 71 96 97
f 71 97 72
f 71 93 79
f 71 79 98
f 71 98 78
f 71 78 99
f 71 99 94
f 73 100 74
f 74 100 75
f 76 87 77
f 77 86 85
f 78 98 79
f 79 93 81
f 80 81 90
f 80 90 83
f 81 93 91
f 81 91 90
f 83 90 84
