v 0.574661 -0.105412 0.00338349
v 0.563776 -0.105412 0.00338349
v 0.574425 -0.108447 0.00338349
v 0.574796 -0.105412 0.000361801
v 0.528275 -0.105412 -0.194498
v 0.559053 -0.122985 0.00338349
v 0.5742 -0.110894 0.00338349
v 0.576033 -0.105412 -0.0346588
v 0.540746 -0.105412 -0.194498
v 0.461343 -0.355436 -0.194498
v 0.50168 -0.355436 0.00338349
v 0.574482 -0.110894 -0.00583652
v 0.576225 -0.105412 -0.0408571
v 0.573098 -0.118482 0.00338349
v 0.54133 -0.105412 -0.192581
v 0.539869 -0.110894 -0.194498
v 0.474792 -0.355436 -0.194498
v 0.51505 -0.355436 0.00338349
v 0.575516 -0.110894 -0.0408571
v 0.576135 -0.105412 -0.0463387
v 0.572761 -0.120587 0.00338349
v 0.548775 -0.105412 -0.164204
v 0.540431 -0.110894 -0.192581
v 0.537923 -0.121272 -0.194498
v 0.479695 -0.342512 -0.194498
v 0.478919 -0.351201 -0.187835
v 0.479965 -0.355436 -0.180319
v 0.511879 -0.355436 -0.0732434
v 0.515433 -0.35475 0.00338349
v 0.573053 -0.121884 -0.0291965
v 0.572907 -0.123548 -0.0419805
v 0.571906 -0.128419 -0.0466099
v 0.571906 -0.128419 -0.0467455
v 0.575302 -0.110894 -0.0525371
v 0.576022 -0.105412 -0.0525371
v 0.564574 -0.15757 0.00338349
v 0.561291 -0.105412 -0.115508
v 0.572289 -0.107027 -0.0715194
v 0.563709 -0.14592 -0.0758776
v 0.528758 -0.169172 -0.194498
v 0.503591 -0.273392 -0.194498
v 0.480044 -0.343859 -0.192077
v 0.491705 -0.355436 -0.145357
v 0.511767 -0.355436 -0.0758776
v 0.513824 -0.35081 -0.0758776
v 0.51478 -0.353135 -0.0291965
v 0.515253 -0.35431 -0.00583652
v 0.525812 -0.328243 -0.00583652
v 0.525958 -0.328683 0.00338349
v 0.560549 -0.17649 -0.00583652
v 0.55243 -0.215946 -0.0408571
v 0.552632 -0.215946 -0.0525371
v 0.560953 -0.178351 -0.0525371
v 0.56553 -0.15757 -0.0525371
v 0.562966 -0.169245 -0.0525371
v 0.572806 -0.123377 -0.0513942
v 0.572536 -0.120024 -0.0608273
v 0.573335 -0.110919 -0.0645076
v 0.574122 -0.105412 -0.064372
v 0.575167 -0.105412 -0.0579993
v 0.560751 -0.177421 -0.0611566
v 0.549461 -0.22581 0.00338349
v 0.551811 -0.215946 -0.00583652
v 0.564057 -0.105412 -0.104661
v 0.572379 -0.105412 -0.0719649
v 0.549258 -0.225394 -0.0727397
v 0.552508 -0.204271 -0.0758776
v 0.538272 -0.262524 -0.0877901
v 0.549011 -0.212397 -0.0834319
v 0.548752 -0.199425 -0.094124
v 0.526835 -0.227939 -0.158102
v 0.526588 -0.18048 -0.194498
v 0.503917 -0.272437 -0.194498
v 0.514342 -0.247422 -0.189152
v 0.514331 -0.258975 -0.177356
v 0.490738 -0.316617 -0.18828
v 0.514049 -0.339869 -0.0948213
v 0.503434 -0.355436 -0.110395
v 0.51035 -0.355436 -0.0866666
v 0.513656 -0.350394 -0.0821147
v 0.516467 -0.344299 -0.0758776
v 0.525373 -0.32719 -0.027182
v 0.527465 -0.320655 -0.0408571
v 0.527982 -0.320949 -0.0175165
v 0.526442 -0.327166 0.00338349
v 0.537248 -0.281689 -0.00583652
v 0.539711 -0.274273 -0.0525371
v 0.539914 -0.274273 -0.0641977
v 0.548302 -0.233153 -0.0687302
v 0.537507 -0.282864 -0.0731852
v 0.549618 -0.228625 -0.0645851
v 0.537507 -0.279755 0.00338349
v 0.538508 -0.274983 -0.0765943
v 0.541139 -0.262598 -0.0758776
v 0.537496 -0.271556 -0.0840517
v 0.525463 -0.257972 -0.140979
v 0.525699 -0.224268 -0.16525
v 0.51785 -0.225688 -0.194498
v 0.515129 -0.238635 -0.194498
v 0.525902 -0.282154 -0.11882
v 0.515556 -0.285972 -0.14588
v 0.525891 -0.293707 -0.107024
v 0.527116 -0.309225 -0.0874414
v 0.514915 -0.343981 -0.0866279
v 0.506864 -0.355436 -0.0991795
v 0.525812 -0.316837 -0.0834706
v 0.508674 -0.355436 -0.0927293
v 0.526487 -0.318428 -0.0758776
v 0.526993 -0.31948 -0.0641977
v 0.527229 -0.320068 -0.0525371
v 0.53058 -0.309298 -0.0641977
v 0.528117 -0.320949 -0.00583652
v 0.537754 -0.284014 -0.0641977
v 0.528185 -0.320949 0.00338349
v 0.537158 -0.281322 0.00338349
v 0.528769 -0.318501 0.00338349
v 0.52977 -0.309298 -0.0758776
v 0.530456 -0.297623 -0.0875383
v 0.530243 -0.285948 -0.0991989
v 0.529883 -0.274273 -0.110879
v 0.526824 -0.274199 -0.122656
v 0.525711 -0.270259 -0.130249
v 0.526397 -0.262157 -0.134181
v 0.517479 -0.227597 -0.194498
v 0.527083 -0.286021 -0.110898
v 0.527161 -0.297623 -0.0991601
f 1 2 6
f 1 6 11
f 1 11 18
f 1 18 29
f 1 29 49
f 1 49 85
f 1 85 114
f 1 114 116
f 1 116 115
f 1 115 92
f 1 92 62
f 1 62 36
f 1 36 21
f 1 21 14
f 1 14 7
f 1 7 3
f 1 3 4
f 1 4 8
f 1 8 13
f 1 13 20
f 1 20 35
f 1 35 60
f 1 60 59
f 1 59 65
f 1 65 64
f 1 64 37
f 1 37 22
f 1 22 15
f 1 15 9
f 1 9 5
f 1 5 2
f 2 5 6
f 3 7 8
f 3 8 4
f 5 9 16
f 5 16 24
f 5 24 40
f 5 40 72
f 5 72 98
f 5 98 124
f 5 124 99
f 5 99 73
f 5 73 41
f 5 41 25
f 5 25 17
f 5 17 10
f 5 10 6
f 6 10 11
f 7 12 13
f 7 13 8
f 7 14 12
f 9 15 16
f 10 17 27
f 10 27 43
f 10 43 78
f 10 78 105
f 10 105 107
f 10 107 79
f 10 79 44
f 10 44 28
f 10 28 18
f 10 18 11
f 12 14 19
f 12 19 13
f 13 19 20
f 14 21 19
f 15 22 23
f 15 23 16
f 16 23 24
f 17 25 26
f 17 26 27
f 18 28 29
f 19 21 30
f 19 30 31
f 19 31 32
f 19 32 33
f 19 33 34
f 19 34 35
f 19 35 20
f 21 36 30
f 22 37 38
f 22 38 23
f 23 38 39
f 23 39 40
f 23 40 24
f 25 41 42
f 25 42 26
f 26 42 43
f 26 43 27
f 28 44 45
f 28 45 46
f 28 46 47
f 28 47 29
f 29 47 48
f 29 48 49
f 30 36 50
f 30 50 51
f 30 51 31
f 31 51 52
f 31 52 53
f 31 53 32
f 32 54 33
f 32 53 55
f 32 55 54
f 33 54 56
f 33 56 34
f 34 57 58
f 34 58 59
f 34 59 60
f 34 60 35
f 34 56 61
f 34 61 57
f 36 62 63
f 36 63 50
f 37 64 38
f 38 64 65
f 38 65 59
f 38 59 58
f 38 58 57
f 38 57 39
f 39 57 66
f 39 66 67
f 39 67 68
f 39 68 69
f 39 69 70
f 39 70 40
f 40 70 68
f 40 68 71
f 40 71 72
f 41 73 74
f 41 74 75
f 41 75 76
f 41 76 42
f 42 76 77
f 42 77 78
f 42 78 43
f 44 79 80
f 44 80 45
f 45 80 81
f 45 81 46
f 46 81 47
f 47 81 82
f 47 82 48
f 48 82 83
f 48 83 49
f 49 83 84
f 49 84 85
f 50 63 51
f 51 63 86
f 51 86 87
f 51 87 88
f 51 88 52
f 52 88 53
f 53 88 55
f 54 61 56
f 54 55 88
f 54 88 61
f 57 61 89
f 57 89 90
f 57 90 66
f 61 91 90
f 61 90 89
f 61 88 91
f 62 92 86
f 62 86 63
f 66 90 93
f 66 93 94
f 66 94 95
f 66 95 68
f 66 68 67
f 68 95 96
f 68 96 71
f 68 70 69
f 71 97 72
f 71 96 97
f 72 97 98
f 73 99 74
f 74 99 100
f 74 100 102
f 74 102 75
f 75 101 76
f 75 102 103
f 75 103 101
f 76 101 77
f 77 104 105
f 77 105 78
f 77 101 103
f 77 103 106
f 77 106 104
f 79 107 80
f 80 104 106
f 80 106 108
f 80 108 109
f 80 109 81
f 80 107 105
f 80 105 104
f 81 109 110
f 81 110 82
f 82 110 83
f 83 110 111
f 83 111 84
f 84 112 85
f 84 111 113
f 84 113 112
f 85 112 114
f 86 92 115
f 86 115 116
f 86 116 113
f 86 113 87
f 87 113 88
f 88 113 90
f 88 90 91
f 90 113 111
f 90 111 117
f 90 117 118
f 90 118 95
f 90 95 93
f 93 95 94
f 95 118 119
f 95 119 120
f 95 120 121
f 95 121 122
f 95 122 123
f 95 123 96
f 96 123 122
f 96 122 99
f 96 99 124
f 96 124 98
f 96 98 97
f 99 122 100
f 100 121 125
f 100 125 126
f 100 126 103
f 100 103 102
f 100 122 121
f 103 117 106
f 103 126 118
f 103 118 117
f 106 117 108
f 108 117 109
f 109 117 111
f 109 111 110
f 112 113 114
f 113 116 114
f 118 126 125
f 118 125 119
f 119 125 121
f 119 121 120
