v -0.215929 -0.575225 -0.33261
v -0.205473 -0.575225 -0.33261
v -0.25094 -0.575225 -0.3093
v -0.26005 -0.57521 -0.3093
v -0.239266 -0.57521 -0.320938
v -0.205473 -0.574496 -0.344283
v -0.205473 -0.575225 -0.00137569
v -0.26005 -0.575225 -0.297627
v -0.26005 -0.57344 -0.320833
v -0.25094 -0.574452 -0.320938
v -0.227603 -0.574541 -0.33261
v -0.215186 -0.573425 -0.344248
v -0.205473 -0.57283 -0.351622
v -0.205473 -0.423269 -0.00137569
v -0.26005 -0.575225 -0.00137569
v -0.26005 -0.57286 -0.32279
v -0.25094 -0.572801 -0.328207
v -0.238363 -0.573351 -0.33254
v -0.227603 -0.57289 -0.340019
v -0.210794 -0.57222 -0.350503
v -0.205473 -0.566062 -0.357912
v -0.26005 -0.423269 -0.00137569
v -0.205473 -0.423269 -0.331422
v -0.26005 -0.570971 -0.32597
v -0.256956 -0.571982 -0.326879
v -0.215186 -0.565958 -0.353194
v -0.215795 -0.558877 -0.358401
v -0.205473 -0.565452 -0.358401
v -0.26005 -0.423269 -0.300179
v -0.205473 -0.423284 -0.33261
v -0.227603 -0.423269 -0.320938
v -0.26005 -0.567787 -0.328556
v -0.224408 -0.562001 -0.351517
v -0.219572 -0.556363 -0.358401
v -0.205473 -0.531357 -0.358401
v -0.25094 -0.423269 -0.3093
v -0.26005 -0.423433 -0.3093
v -0.205473 -0.424534 -0.343094
v -0.215929 -0.423403 -0.33261
v -0.26005 -0.565764 -0.330094
v -0.255268 -0.559234 -0.337677
v -0.247483 -0.561822 -0.339704
v -0.239266 -0.557047 -0.347672
v -0.225626 -0.552332 -0.358401
v -0.26005 -0.488321 -0.358401
v -0.205473 -0.437699 -0.354487
v -0.239266 -0.423448 -0.320938
v -0.26005 -0.423835 -0.311851
v -0.205473 -0.42501 -0.344352
v -0.227603 -0.424861 -0.33261
v -0.26005 -0.551454 -0.340718
v -0.2458 -0.549029 -0.350503
v -0.229189 -0.549951 -0.358401
v -0.234425 -0.43093 -0.338971
v -0.21135 -0.430722 -0.350783
v -0.205473 -0.429264 -0.352321
v -0.205473 -0.436509 -0.354382
v -0.26005 -0.520036 -0.358401
v -0.26005 -0.429413 -0.323663
v -0.257507 -0.431153 -0.327158
v -0.25094 -0.425054 -0.320938
v -0.26005 -0.427643 -0.321112
v -0.205473 -0.428848 -0.351761
v -0.26005 -0.543629 -0.345541
v -0.25358 -0.545593 -0.348476
v -0.239603 -0.542647 -0.358401
v -0.239229 -0.542915 -0.358401
v -0.25094 -0.429354 -0.328871
v -0.227603 -0.42916 -0.340753
v -0.259008 -0.521375 -0.358401
v -0.26005 -0.531059 -0.352495
v -0.26005 -0.428372 -0.32244
v -0.2387 -0.428 -0.33289
v -0.26005 -0.540282 -0.347533
v -0.257496 -0.537798 -0.350643
v -0.250951 -0.53161 -0.358401
v -0.239816 -0.542469 -0.358401
v -0.251122 -0.531416 -0.358401
f 1 2 7
f 1 7 15
f 1 15 8
f 1 8 3
f 1 3 4
f 1 4 5
f 1 5 6
f 1 6 2
f 2 6 13
f 2 13 21
f 2 21 28
f 2 28 35
f 2 35 46
f 2 46 57
f 2 57 56
f 2 56 63
f 2 63 49
f 2 49 38
f 2 38 30
f 2 30 23
f 2 23 14
f 2 14 7
f 3 8 4
f 4 9 10
f 4 10 5
f 4 8 15
f 4 15 22
f 4 22 29
f 4 29 37
f 4 37 48
f 4 48 62
f 4 62 72
f 4 72 59
f 4 59 45
f 4 45 58
f 4 58 71
f 4 71 74
f 4 74 64
f 4 64 51
f 4 51 40
f 4 40 32
f 4 32 24
f 4 24 16
f 4 16 9
f 5 10 11
f 5 11 6
f 6 12 13
f 6 11 10
f 6 10 12
f 7 14 22
f 7 22 15
f 9 16 17
f 9 17 18
f 9 18 10
f 10 18 12
f 12 18 19
f 12 19 13
f 13 19 17
f 13 17 20
f 13 20 21
f 14 23 31
f 14 31 36
f 14 36 29
f 14 29 22
f 16 24 25
f 16 25 17
f 17 25 20
f 17 19 18
f 20 26 27
f 20 27 28
f 20 28 21
f 20 25 26
f 23 30 31
f 24 32 25
f 25 32 33
f 25 33 26
f 26 33 27
f 27 33 34
f 27 34 44
f 27 44 53
f 27 53 67
f 27 67 66
f 27 66 77
f 27 77 76
f 27 76 78
f 27 78 70
f 27 70 58
f 27 58 45
f 27 45 35
f 27 35 28
f 29 36 37
f 30 38 39
f 30 39 31
f 31 39 36
f 32 40 41
f 32 41 42
f 32 42 33
f 33 42 43
f 33 43 44
f 33 44 34
f 35 45 46
f 36 39 37
f 37 39 47
f 37 47 48
f 38 49 50
f 38 50 48
f 38 48 47
f 38 47 39
f 40 51 41
f 41 51 52
f 41 52 43
f 41 43 42
f 43 52 53
f 43 53 44
f 45 54 55
f 45 55 56
f 45 56 57
f 45 57 46
f 45 59 60
f 45 60 54
f 48 50 61
f 48 61 62
f 49 63 61
f 49 61 50
f 51 64 65
f 51 65 52
f 52 65 66
f 52 66 67
f 52 67 53
f 54 60 68
f 54 68 55
f 55 68 56
f 56 68 69
f 56 69 63
f 58 70 75
f 58 75 71
f 59 72 68
f 59 68 60
f 61 63 73
f 61 73 62
f 62 73 63
f 62 63 72
f 63 69 72
f 64 74 75
f 64 75 65
f 65 75 76
f 65 76 77
f 65 77 66
f 68 72 69
f 70 78 75
f 71 75 74
f 75 78 76
