v -0.288654 -0.454055 -0.356922
v -0.288654 -0.454055 -0.37387
v -0.288654 -0.42761 -0.371063
v -0.414697 -0.454055 -0.205536
v -0.288654 -0.447678 -0.377364
v -0.304887 -0.454055 -0.362789
v -0.288654 -0.423091 -0.37349
v -0.417194 -0.449167 -0.205536
v -0.429666 -0.454055 -0.205536
v -0.288654 -0.424979 -0.389514
v -0.328335 -0.445496 -0.351201
v -0.329599 -0.423091 -0.362318
v -0.327472 -0.423091 -0.363785
v -0.308772 -0.424985 -0.375662
v -0.294204 -0.423091 -0.386707
v -0.324126 -0.454055 -0.349499
v -0.288654 -0.423091 -0.390491
v -0.431084 -0.423091 -0.205536
v -0.42945 -0.426076 -0.205536
v -0.429728 -0.454031 -0.205536
v -0.429712 -0.454055 -0.205572
v -0.339018 -0.432708 -0.350585
v -0.334101 -0.423091 -0.359149
v -0.324959 -0.454055 -0.348883
v -0.325329 -0.453277 -0.349064
v -0.446146 -0.423091 -0.205536
v -0.433628 -0.446902 -0.205536
v -0.432533 -0.444829 -0.212199
v -0.426243 -0.454055 -0.21582
v -0.331434 -0.454055 -0.343125
v -0.336783 -0.454055 -0.33735
v -0.339851 -0.445681 -0.340156
v -0.348484 -0.423091 -0.347109
v -0.344692 -0.423091 -0.351056
v -0.342055 -0.423091 -0.353337
v -0.444712 -0.423091 -0.209954
v -0.445175 -0.42494 -0.205536
v -0.444065 -0.423091 -0.211855
v -0.434676 -0.438182 -0.216019
v -0.431022 -0.442395 -0.219985
v -0.424193 -0.454055 -0.2206
v -0.337276 -0.454055 -0.336752
v -0.352461 -0.423879 -0.341478
v -0.35277 -0.423091 -0.341713
v -0.443309 -0.423091 -0.213901
v -0.44166 -0.423091 -0.218228
v -0.433289 -0.434621 -0.224511
v -0.421989 -0.454055 -0.224982
v -0.34557 -0.454055 -0.325852
v -0.362205 -0.423091 -0.329328
v -0.437636 -0.423091 -0.227915
v -0.433458 -0.423091 -0.235592
v -0.417872 -0.454055 -0.23074
v -0.363515 -0.454055 -0.30226
v -0.38704 -0.426025 -0.294275
v -0.399728 -0.427753 -0.276168
v -0.397446 -0.454055 -0.257628
f 1 2 5
f 1 5 10
f 1 10 17
f 1 17 7
f 1 7 3
f 1 3 4
f 1 4 9
f 1 9 21
f 1 21 29
f 1 29 41
f 1 41 48
f 1 48 53
f 1 53 57
f 1 57 54
f 1 54 49
f 1 49 42
f 1 42 31
f 1 31 30
f 1 30 24
f 1 24 16
f 1 16 6
f 1 6 2
f 2 6 5
f 3 7 4
f 4 8 19
f 4 19 18
f 4 18 26
f 4 26 37
f 4 37 27
f 4 27 20
f 4 20 9
f 4 7 8
f 5 6 10
f 6 11 12
f 6 12 13
f 6 13 14
f 6 14 15
f 6 15 10
f 6 16 11
f 7 17 15
f 7 15 13
f 7 13 12
f 7 12 23
f 7 23 35
f 7 35 34
f 7 34 33
f 7 33 44
f 7 44 50
f 7 50 52
f 7 52 51
f 7 51 46
f 7 46 45
f 7 45 38
f 7 38 36
f 7 36 26
f 7 26 18
f 7 18 19
f 7 19 8
f 9 20 21
f 10 15 17
f 11 16 22
f 11 22 12
f 12 22 23
f 13 15 14
f 16 24 25
f 16 25 22
f 20 27 21
f 21 28 29
f 21 27 28
f 22 25 24
f 22 24 30
f 22 30 31
f 22 31 32
f 22 32 33
f 22 33 34
f 22 34 35
f 22 35 23
f 26 36 37
f 27 37 36
f 27 36 28
f 28 36 38
f 28 38 39
f 28 39 40
f 28 40 29
f 29 40 41
f 31 42 32
f 32 43 44
f 32 44 33
f 32 42 43
f 38 45 40
f 38 40 39
f 40 45 46
f 40 46 47
f 40 47 41
f 41 47 48
f 42 49 50
f 42 50 43
f 43 50 44
f 46 51 47
f 47 51 52
f 47 52 48
f 48 52 53
f 49 54 55
f 49 55 50
f 50 55 52
f 52 55 56
f 52 56 57
f 52 57 53
f 54 57 55
f 55 57 56
