v -0.408023 0.359819 0.360383
v -0.425166 0.359819 0.360383
v -0.407131 0.359341 0.360383
v -0.407075 0.359819 0.360336
v -0.433501 0.359819 0.351822
v -0.429501 0.344314 0.359385
v -0.436093 0.309297 0.360383
v -0.439201 0.116132 0.360383
v -0.509473 0.359819 0.19843
v -0.535256 0.116132 0.19843
v -0.437417 0.359819 0.347795
v -0.441013 0.344314 0.347557
v -0.443953 0.317073 0.350585
v -0.439117 0.309297 0.357276
v -0.43856 0.297609 0.360383
v -0.455744 0.116132 0.360383
v -0.523284 0.359819 0.19843
v -0.549459 0.116132 0.19843
v -0.444915 0.359819 0.339963
v -0.445375 0.355978 0.340423
v -0.439744 0.355978 0.346257
v -0.446685 0.344314 0.341707
v -0.455507 0.316596 0.338805
v -0.440372 0.297609 0.358497
v -0.440581 0.285945 0.360383
v -0.459159 0.15759 0.354834
v -0.459354 0.145901 0.355072
v -0.470657 0.116132 0.342975
v -0.453835 0.169254 0.360383
v -0.522713 0.359819 0.199682
v -0.525194 0.35147 0.19843
v -0.525305 0.350659 0.198604
v -0.547786 0.116132 0.202013
v -0.549152 0.122573 0.19843
v -0.448427 0.359819 0.335111
v -0.456901 0.344314 0.329214
v -0.458532 0.332626 0.331005
v -0.452525 0.344314 0.335048
v -0.453696 0.332626 0.33684
v -0.459103 0.320675 0.333447
v -0.466434 0.313567 0.326328
v -0.467229 0.305791 0.327279
v -0.456093 0.309297 0.339456
v -0.445821 0.297609 0.352662
v -0.441417 0.285945 0.35948
v -0.445654 0.24568 0.360383
v -0.470546 0.122573 0.342833
v -0.45895 0.169254 0.354581
v -0.473877 0.116132 0.339154
v -0.476385 0.122573 0.335904
v -0.453793 0.17028 0.360383
v -0.519396 0.359819 0.206928
v -0.525347 0.350778 0.19843
v -0.525835 0.344314 0.199635
v -0.515591 0.354929 0.216377
v -0.515396 0.359819 0.215156
v -0.525403 0.350492 0.19843
v -0.536971 0.280458 0.19843
v -0.536943 0.280387 0.198525
v -0.515103 0.116132 0.271773
v -0.517417 0.15759 0.262625
v -0.525263 0.164221 0.245201
v -0.537793 0.227599 0.212001
v -0.548762 0.130731 0.19843
v -0.4501 0.359819 0.332511
v -0.455772 0.352066 0.327692
v -0.464372 0.332626 0.322666
v -0.465682 0.320961 0.32506
v -0.468999 0.320961 0.319225
v -0.469556 0.309512 0.321857
v -0.467758 0.297609 0.327929
v -0.462713 0.297609 0.333764
v -0.492274 0.215935 0.307525
v -0.489696 0.20792 0.31458
v -0.49042 0.200144 0.315436
v -0.456887 0.297609 0.340375
v -0.446615 0.285945 0.353645
v -0.447061 0.234493 0.360383
v -0.470337 0.134237 0.342579
v -0.453333 0.180918 0.360383
v -0.453612 0.180918 0.360066
v -0.458713 0.180918 0.354232
v -0.464553 0.180918 0.347399
v -0.469487 0.180918 0.341564
v -0.475326 0.180918 0.334636
v -0.464999 0.15759 0.347906
v -0.484608 0.116132 0.326391
v -0.486699 0.145901 0.322634
v -0.487117 0.122573 0.323141
v -0.490769 0.341881 0.269569
v -0.492567 0.355978 0.261436
v -0.503995 0.359819 0.237638
v -0.537974 0.27428 0.19843
v -0.539368 0.250928 0.203313
v -0.525807 0.236974 0.234594
v -0.5038 0.116132 0.295872
v -0.503647 0.122573 0.295554
v -0.502811 0.15759 0.293779
v -0.516859 0.169254 0.262625
v -0.51573 0.204271 0.261452
v -0.504427 0.204271 0.28555
v -0.515438 0.215935 0.260691
v -0.537389 0.237331 0.211177
v -0.54327 0.239764 0.19843
v -0.544065 0.227599 0.19843
v -0.457793 0.359819 0.320414
v -0.467424 0.359819 0.30437
v -0.467006 0.338923 0.315341
v -0.4678 0.332626 0.316831
v -0.479034 0.34107 0.29278
v -0.479772 0.332626 0.294239
v -0.479703 0.297609 0.305765
v -0.48125 0.27459 0.310188
v -0.491312 0.227599 0.305638
v -0.469291 0.27428 0.329562
v -0.478936 0.213311 0.327248
v -0.463438 0.285945 0.334588
v -0.470044 0.262592 0.330387
v -0.51481 0.227599 0.259295
v -0.503912 0.215935 0.28433
v -0.492581 0.204128 0.310141
v -0.493835 0.192606 0.309284
v -0.490643 0.192606 0.315737
v -0.485807 0.192606 0.321572
v -0.479981 0.192606 0.328484
v -0.47948 0.204271 0.327882
v -0.457612 0.285945 0.3412
v -0.44734 0.27428 0.35447
v -0.452386 0.204271 0.358624
v -0.44872 0.221159 0.360383
v -0.45226 0.192606 0.360383
v -0.45311 0.192606 0.359432
v -0.458239 0.192606 0.353598
v -0.464079 0.192606 0.346923
v -0.469124 0.192606 0.341089
v -0.474964 0.192606 0.334319
v -0.486058 0.180918 0.321873
v -0.487229 0.116132 0.323268
v -0.489891 0.116132 0.320065
v -0.490866 0.180918 0.316038
v -0.492218 0.359819 0.260738
v -0.540455 0.258823 0.19843
v -0.541779 0.250522 0.19843
v -0.542504 0.24537 0.19843
v -0.536887 0.245084 0.210099
v -0.492051 0.116132 0.317434
v -0.502253 0.180918 0.29259
v -0.480107 0.359819 0.282903
v -0.467981 0.355978 0.305321
v -0.480595 0.355978 0.283838
v -0.474351 0.204271 0.333716
v -0.4678 0.215935 0.339519
v -0.470769 0.250928 0.331211
v -0.468525 0.204271 0.340327
f 1 2 7
f 1 7 15
f 1 15 25
f 1 25 46
f 1 46 78
f 1 78 130
f 1 130 131
f 1 131 80
f 1 80 51
f 1 51 29
f 1 29 16
f 1 16 8
f 1 8 3
f 1 3 4
f 1 4 9
f 1 9 17
f 1 17 30
f 1 30 52
f 1 52 56
f 1 56 92
f 1 92 141
f 1 141 148
f 1 148 107
f 1 107 106
f 1 106 65
f 1 65 35
f 1 35 19
f 1 19 11
f 1 11 5
f 1 5 2
f 2 5 6
f 2 6 7
f 3 8 4
f 4 8 10
f 4 10 9
f 5 11 12
f 5 12 6
f 6 12 13
f 6 13 7
f 7 14 15
f 7 13 14
f 8 16 28
f 8 28 49
f 8 49 87
f 8 87 138
f 8 138 139
f 8 139 146
f 8 146 96
f 8 96 60
f 8 60 33
f 8 33 18
f 8 18 10
f 9 10 18
f 9 18 34
f 9 34 64
f 9 64 105
f 9 105 104
f 9 104 144
f 9 144 143
f 9 143 142
f 9 142 93
f 9 93 58
f 9 58 57
f 9 57 53
f 9 53 31
f 9 31 17
f 11 19 20
f 11 20 21
f 11 21 12
f 12 22 23
f 12 23 13
f 12 21 22
f 13 23 14
f 14 23 15
f 15 24 25
f 15 23 24
f 16 26 27
f 16 27 28
f 16 29 26
f 17 31 32
f 17 32 30
f 18 33 34
f 19 35 36
f 19 36 37
f 19 37 38
f 19 38 39
f 19 39 20
f 20 39 23
f 20 23 22
f 20 22 21
f 23 39 40
f 23 40 41
f 23 41 42
f 23 42 43
f 23 43 44
f 23 44 24
f 24 44 25
f 25 44 45
f 25 45 46
f 26 47 28
f 26 28 27
f 26 29 48
f 26 48 79
f 26 79 47
f 28 47 50
f 28 50 49
f 29 51 48
f 30 32 52
f 31 53 32
f 32 54 55
f 32 55 56
f 32 56 52
f 32 53 57
f 32 57 58
f 32 58 59
f 32 59 54
f 33 60 61
f 33 61 62
f 33 62 63
f 33 63 34
f 34 63 64
f 35 65 66
f 35 66 36
f 36 67 68
f 36 68 37
f 36 66 67
f 37 39 38
f 37 68 41
f 37 41 40
f 37 40 39
f 41 68 69
f 41 69 70
f 41 70 42
f 42 71 72
f 42 72 43
f 42 70 73
f 42 73 74
f 42 74 75
f 42 75 71
f 43 72 76
f 43 76 45
f 43 45 44
f 45 76 77
f 45 77 78
f 45 78 46
f 47 79 50
f 48 51 80
f 48 80 81
f 48 81 82
f 48 82 83
f 48 83 84
f 48 84 85
f 48 85 86
f 48 86 50
f 48 50 79
f 49 50 89
f 49 89 87
f 50 88 89
f 50 86 85
f 50 85 88
f 54 90 91
f 54 91 55
f 54 59 90
f 55 91 92
f 55 92 56
f 58 93 59
f 59 93 94
f 59 94 95
f 59 95 90
f 60 96 97
f 60 97 61
f 61 98 147
f 61 147 99
f 61 99 63
f 61 63 62
f 61 97 98
f 63 100 101
f 63 101 102
f 63 102 103
f 63 103 104
f 63 104 105
f 63 105 64
f 63 99 100
f 65 106 66
f 66 106 107
f 66 107 108
f 66 108 67
f 67 108 109
f 67 109 68
f 68 109 69
f 69 109 110
f 69 110 91
f 69 91 111
f 69 111 70
f 70 111 112
f 70 112 113
f 70 113 114
f 70 114 73
f 71 115 72
f 71 75 116
f 71 116 115
f 72 117 127
f 72 127 76
f 72 115 118
f 72 118 153
f 72 153 117
f 73 114 95
f 73 95 119
f 73 119 120
f 73 120 121
f 73 121 75
f 73 75 74
f 75 121 103
f 75 103 102
f 75 102 101
f 75 101 122
f 75 122 123
f 75 123 124
f 75 124 125
f 75 125 126
f 75 126 116
f 76 127 128
f 76 128 77
f 77 128 78
f 78 129 130
f 78 128 129
f 80 131 132
f 80 132 133
f 80 133 81
f 81 133 134
f 81 134 82
f 82 134 135
f 82 135 136
f 82 136 125
f 82 125 83
f 83 125 84
f 84 125 85
f 85 125 124
f 85 124 137
f 85 137 88
f 87 89 138
f 88 139 89
f 88 137 140
f 88 140 139
f 89 139 138
f 90 112 111
f 90 111 91
f 90 95 114
f 90 114 112
f 91 141 92
f 91 110 141
f 93 142 94
f 94 142 143
f 94 143 144
f 94 144 145
f 94 145 95
f 95 145 119
f 96 146 140
f 96 140 123
f 96 123 122
f 96 122 97
f 97 122 98
f 98 122 147
f 99 147 100
f 100 147 101
f 101 147 122
f 103 121 120
f 103 120 119
f 103 119 145
f 103 145 104
f 104 145 144
f 107 148 149
f 107 149 108
f 108 149 148
f 108 148 150
f 108 150 109
f 109 150 110
f 110 150 141
f 112 114 113
f 115 116 118
f 116 126 151
f 116 151 152
f 116 152 153
f 116 153 118
f 117 153 127
f 123 140 137
f 123 137 124
f 125 136 126
f 126 136 135
f 126 135 134
f 126 134 133
f 126 133 132
f 126 132 151
f 127 153 152
f 127 152 129
f 127 129 128
f 129 152 154
f 129 154 132
f 129 132 130
f 130 132 131
f 132 154 151
f 139 140 146
f 141 150 148
f 151 154 152
