v 0.347198 -0.35544 -0.358907
v 0.366775 -0.35544 -0.358907
v 0.461332 -0.35544 -0.194498
v 0.519757 -0.146069 -0.194498
v 0.42051 -0.146069 -0.358907
v 0.367898 -0.353083 -0.358907
v 0.374599 -0.352734 -0.351504
v 0.370506 -0.35544 -0.354674
v 0.47477 -0.35544 -0.194498
v 0.532217 -0.146069 -0.194498
v 0.439291 -0.146069 -0.358907
v 0.371357 -0.345765 -0.358907
v 0.371719 -0.344966 -0.358907
v 0.372009 -0.34431 -0.358907
v 0.374038 -0.339637 -0.358907
v 0.377551 -0.331541 -0.358907
v 0.378547 -0.329225 -0.358907
v 0.376392 -0.34431 -0.353693
v 0.382224 -0.34431 -0.346515
v 0.386969 -0.34431 -0.340673
v 0.405514 -0.35544 -0.312027
v 0.37967 -0.35544 -0.343844
v 0.378765 -0.35544 -0.344954
v 0.468214 -0.35544 -0.215355
v 0.479678 -0.342506 -0.194498
v 0.530297 -0.146069 -0.204122
v 0.530931 -0.155661 -0.194498
v 0.439961 -0.146069 -0.358247
v 0.436791 -0.157588 -0.358907
v 0.385683 -0.327995 -0.350764
v 0.395626 -0.288888 -0.358907
v 0.402779 -0.344536 -0.321088
v 0.432463 -0.351545 -0.280855
v 0.424856 -0.35544 -0.288193
v 0.459756 -0.35544 -0.239254
v 0.467199 -0.351135 -0.222806
v 0.47899 -0.328097 -0.211444
v 0.48004 -0.341461 -0.194498
v 0.530261 -0.146069 -0.204267
v 0.529102 -0.167344 -0.194498
v 0.528432 -0.157588 -0.204267
v 0.445811 -0.146069 -0.352486
v 0.431648 -0.180913 -0.358907
v 0.39827 -0.318485 -0.340223
v 0.411183 -0.262611 -0.353419
v 0.414117 -0.27372 -0.344021
v 0.421796 -0.307232 -0.317097
v 0.412288 -0.24933 -0.358907
v 0.43259 -0.328528 -0.292683
v 0.433984 -0.34431 -0.282738
v 0.441917 -0.35544 -0.267047
v 0.435506 -0.35544 -0.274997
v 0.427301 -0.35544 -0.285168
v 0.418771 -0.276733 -0.336714
v 0.456532 -0.35544 -0.247332
v 0.467236 -0.339575 -0.234393
v 0.468304 -0.343798 -0.227055
v 0.479026 -0.316537 -0.223241
v 0.502624 -0.258922 -0.212313
v 0.491631 -0.30797 -0.194498
v 0.527092 -0.146069 -0.21344
v 0.525426 -0.164515 -0.210543
v 0.526059 -0.157588 -0.21175
v 0.528758 -0.169168 -0.194498
v 0.526349 -0.168738 -0.20417
v 0.452149 -0.146069 -0.344117
v 0.44438 -0.157588 -0.351118
v 0.429022 -0.192596 -0.358907
v 0.429529 -0.190423 -0.358907
v 0.417015 -0.262611 -0.346209
v 0.420401 -0.268965 -0.338742
v 0.416109 -0.239286 -0.358907
v 0.420365 -0.24564 -0.35041
v 0.418898 -0.253408 -0.348511
v 0.443275 -0.349824 -0.268286
v 0.43268 -0.30549 -0.304528
v 0.446336 -0.35544 -0.261478
v 0.456351 -0.35544 -0.247606
v 0.454069 -0.34638 -0.25517
v 0.457619 -0.343224 -0.251146
v 0.467743 -0.318239 -0.246463
v 0.490218 -0.268473 -0.23346
v 0.480185 -0.297619 -0.236083
v 0.479062 -0.304978 -0.234345
v 0.480239 -0.309036 -0.227312
v 0.50391 -0.27245 -0.194498
v 0.504037 -0.251113 -0.216095
v 0.527055 -0.146069 -0.213537
v 0.513907 -0.223566 -0.211203
v 0.51465 -0.215941 -0.213134
v 0.515465 -0.20393 -0.21653
v 0.513762 -0.19981 -0.222162
v 0.526748 -0.179621 -0.194498
v 0.517258 -0.215941 -0.204267
v 0.452783 -0.146069 -0.343264
v 0.443583 -0.163634 -0.350217
v 0.429312 -0.192596 -0.358569
v 0.423082 -0.215654 -0.358907
v 0.418047 -0.233486 -0.358907
v 0.417105 -0.239286 -0.357636
v 0.419333 -0.229387 -0.358907
v 0.421289 -0.239286 -0.35181
v 0.44342 -0.326622 -0.280034
v 0.444887 -0.342035 -0.270314
v 0.442207 -0.332627 -0.278537
v 0.45233 -0.35544 -0.253432
v 0.452548 -0.35544 -0.253126
v 0.455228 -0.338612 -0.256843
v 0.43288 -0.22539 -0.34003
v 0.490961 -0.23615 -0.246286
v 0.50237 -0.223545 -0.234216
v 0.503892 -0.239286 -0.224979
v 0.502642 -0.247342 -0.223064
v 0.514161 -0.235659 -0.20071
v 0.51512 -0.238651 -0.194498
v 0.507641 -0.239286 -0.215934
v 0.514758 -0.146069 -0.2356
v 0.514342 -0.192596 -0.223176
v 0.515265 -0.180913 -0.224834
v 0.514957 -0.227521 -0.204476
v 0.511064 -0.227521 -0.215436
v 0.512042 -0.215941 -0.21896
v 0.504942 -0.227501 -0.22823
v 0.503222 -0.215941 -0.235745
v 0.50429 -0.204258 -0.237741
v 0.502878 -0.180913 -0.246882
v 0.517475 -0.227583 -0.194498
v 0.458289 -0.146069 -0.334687
v 0.457872 -0.157588 -0.330921
v 0.456242 -0.16925 -0.32841
v 0.432535 -0.200815 -0.351166
v 0.421017 -0.223545 -0.358907
v 0.422321 -0.218585 -0.358907
v 0.419858 -0.227603 -0.358907
v 0.422919 -0.227603 -0.354337
v 0.444561 -0.318854 -0.281724
v 0.490617 -0.211575 -0.257423
v 0.478482 -0.174969 -0.29175
v 0.5019 -0.15189 -0.256827
v 0.492717 -0.146069 -0.274804
v 0.503801 -0.16925 -0.248539
v 0.479153 -0.16718 -0.292892
v 0.468449 -0.146069 -0.317934
v 0.490689 -0.178166 -0.269332
v 0.467616 -0.155169 -0.316453
v 0.479931 -0.157588 -0.294276
f 1 2 8
f 1 8 23
f 1 23 22
f 1 22 21
f 1 21 34
f 1 34 53
f 1 53 52
f 1 52 51
f 1 51 77
f 1 77 106
f 1 106 107
f 1 107 78
f 1 78 55
f 1 55 35
f 1 35 24
f 1 24 9
f 1 9 3
f 1 3 4
f 1 4 5
f 1 5 11
f 1 11 29
f 1 29 43
f 1 43 69
f 1 69 68
f 1 68 98
f 1 98 133
f 1 133 132
f 1 132 134
f 1 134 101
f 1 101 99
f 1 99 72
f 1 72 48
f 1 48 31
f 1 31 17
f 1 17 16
f 1 16 15
f 1 15 14
f 1 14 13
f 1 13 12
f 1 12 6
f 1 6 2
f 2 6 7
f 2 7 8
f 3 9 25
f 3 25 38
f 3 38 60
f 3 60 86
f 3 86 115
f 3 115 127
f 3 127 93
f 3 93 64
f 3 64 40
f 3 40 27
f 3 27 10
f 3 10 4
f 4 10 26
f 4 26 39
f 4 39 61
f 4 61 88
f 4 88 117
f 4 117 140
f 4 140 143
f 4 143 128
f 4 128 95
f 4 95 66
f 4 66 42
f 4 42 28
f 4 28 11
f 4 11 5
f 6 12 7
f 7 12 13
f 7 13 14
f 7 14 15
f 7 15 16
f 7 16 17
f 7 17 18
f 7 18 19
f 7 19 20
f 7 20 21
f 7 21 22
f 7 22 23
f 7 23 8
f 9 24 25
f 10 27 26
f 11 28 29
f 17 30 19
f 17 19 18
f 17 31 30
f 19 30 20
f 20 32 21
f 20 30 32
f 21 32 33
f 21 33 34
f 24 35 36
f 24 36 37
f 24 37 38
f 24 38 25
f 26 27 40
f 26 40 41
f 26 41 39
f 28 42 29
f 29 42 43
f 30 44 32
f 30 31 44
f 31 45 46
f 31 46 47
f 31 47 32
f 31 32 44
f 31 48 45
f 32 47 33
f 33 49 50
f 33 50 51
f 33 51 52
f 33 52 53
f 33 53 34
f 33 47 54
f 33 54 49
f 35 55 56
f 35 56 36
f 36 56 57
f 36 57 58
f 36 58 37
f 37 58 59
f 37 59 60
f 37 60 38
f 39 41 62
f 39 62 63
f 39 63 61
f 40 64 41
f 41 64 65
f 41 65 62
f 42 66 67
f 42 67 68
f 42 68 69
f 42 69 43
f 45 70 71
f 45 71 54
f 45 54 46
f 45 48 70
f 46 54 47
f 48 72 73
f 48 73 74
f 48 74 71
f 48 71 70
f 49 75 50
f 49 54 71
f 49 71 76
f 49 76 75
f 50 75 51
f 51 75 77
f 55 78 79
f 55 79 80
f 55 80 81
f 55 81 82
f 55 82 83
f 55 83 84
f 55 84 56
f 56 84 85
f 56 85 57
f 57 85 58
f 58 85 59
f 59 86 60
f 59 85 87
f 59 87 86
f 61 63 88
f 62 65 89
f 62 89 90
f 62 90 91
f 62 91 92
f 62 92 63
f 63 92 88
f 64 93 94
f 64 94 65
f 65 94 89
f 66 95 67
f 67 95 96
f 67 96 97
f 67 97 68
f 68 97 98
f 71 74 76
f 72 99 100
f 72 100 73
f 73 100 99
f 73 99 101
f 73 101 102
f 73 102 103
f 73 103 74
f 74 103 76
f 75 76 104
f 75 104 77
f 76 103 105
f 76 105 104
f 77 104 106
f 78 107 103
f 78 103 79
f 79 103 108
f 79 108 80
f 80 108 81
f 81 108 102
f 81 102 109
f 81 109 110
f 81 110 111
f 81 111 82
f 82 111 112
f 82 112 83
f 83 112 84
f 84 112 113
f 84 113 87
f 84 87 85
f 86 87 114
f 86 114 115
f 87 113 116
f 87 116 114
f 88 92 118
f 88 118 119
f 88 119 117
f 89 120 114
f 89 114 116
f 89 116 113
f 89 113 121
f 89 121 122
f 89 122 90
f 89 94 120
f 90 122 92
f 90 92 91
f 92 122 123
f 92 123 124
f 92 124 125
f 92 125 126
f 92 126 118
f 93 127 94
f 94 127 120
f 95 128 129
f 95 129 96
f 96 129 130
f 96 130 131
f 96 131 132
f 96 132 133
f 96 133 98
f 96 98 97
f 101 134 102
f 102 134 132
f 102 132 135
f 102 135 131
f 102 131 109
f 102 108 136
f 102 136 103
f 103 136 108
f 103 107 106
f 103 106 104
f 103 104 105
f 109 131 137
f 109 137 110
f 110 137 111
f 111 137 129
f 111 129 138
f 111 138 124
f 111 124 123
f 111 123 112
f 112 123 122
f 112 122 121
f 112 121 113
f 114 120 115
f 115 120 127
f 117 139 140
f 117 119 118
f 117 118 141
f 117 141 139
f 118 126 141
f 124 138 125
f 125 138 142
f 125 142 143
f 125 143 144
f 125 144 126
f 126 144 141
f 128 143 145
f 128 145 138
f 128 138 129
f 129 137 130
f 130 137 131
f 131 135 132
f 138 145 143
f 138 143 142
f 139 141 140
f 140 141 144
f 140 144 146
f 140 146 143
f 143 146 144
