v 0.220431 -0.35546 -0.465383
v 0.227095 -0.35546 -0.462401
v 0.220431 -0.35546 -0.451153
v 0.220431 -0.343631 -0.468834
v 0.223916 -0.341997 -0.467797
v 0.237136 -0.35546 -0.457847
v 0.347189 -0.35546 -0.358907
v 0.426242 -0.117118 -0.358907
v 0.220431 -0.117118 -0.510906
v 0.220431 -0.305295 -0.479125
v 0.222162 -0.304082 -0.478704
v 0.227731 -0.332081 -0.46877
v 0.233979 -0.327811 -0.467133
v 0.23775 -0.35546 -0.457539
v 0.366744 -0.35546 -0.358907
v 0.444395 -0.117118 -0.358907
v 0.220431 -0.117118 -0.524471
v 0.220431 -0.25982 -0.491264
v 0.220431 -0.214275 -0.503419
v 0.223938 -0.167003 -0.514504
v 0.227753 -0.15704 -0.515492
v 0.235294 -0.192599 -0.502689
v 0.239197 -0.226711 -0.491864
v 0.245357 -0.222231 -0.490324
v 0.246891 -0.342067 -0.456194
v 0.259738 -0.35546 -0.445157
v 0.246563 -0.259703 -0.479336
v 0.245773 -0.304782 -0.46723
v 0.371326 -0.345754 -0.358907
v 0.366218 -0.35546 -0.359507
v 0.36225 -0.315981 -0.385647
v 0.439484 -0.117118 -0.363899
v 0.443627 -0.122554 -0.358907
v 0.233409 -0.117118 -0.518799
v 0.237728 -0.134244 -0.51559
v 0.220431 -0.134244 -0.522883
v 0.220431 -0.168636 -0.515509
v 0.220431 -0.145957 -0.520905
v 0.227599 -0.14591 -0.518166
v 0.234089 -0.152793 -0.513823
v 0.239569 -0.180629 -0.504002
v 0.245927 -0.176546 -0.502268
v 0.257853 -0.15389 -0.502479
v 0.284423 -0.344307 -0.434299
v 0.258182 -0.236254 -0.47932
v 0.284643 -0.35546 -0.430377
v 0.282034 -0.35315 -0.432937
v 0.257064 -0.198968 -0.490356
v 0.371698 -0.344961 -0.358907
v 0.359597 -0.35546 -0.366232
v 0.363543 -0.353407 -0.363639
v 0.360014 -0.323775 -0.38346
v 0.355169 -0.319621 -0.390266
v 0.350346 -0.315468 -0.397008
v 0.357646 -0.309285 -0.393119
v 0.363718 -0.309285 -0.387268
v 0.371983 -0.297619 -0.383379
v 0.374855 -0.306672 -0.375178
v 0.374724 -0.329701 -0.363348
v 0.361877 -0.338591 -0.373574
v 0.43328 -0.117118 -0.370008
v 0.442093 -0.122554 -0.360463
v 0.443233 -0.125214 -0.358907
v 0.239525 -0.117118 -0.516043
v 0.261207 -0.134244 -0.504132
v 0.259585 -0.14591 -0.503338
v 0.235842 -0.14591 -0.514666
v 0.220431 -0.13611 -0.522639
v 0.251539 -0.157716 -0.504537
v 0.247922 -0.169243 -0.50324
v 0.281705 -0.14591 -0.491134
v 0.28028 -0.152023 -0.490292
v 0.274405 -0.156596 -0.49235
v 0.292469 -0.293256 -0.443925
v 0.293499 -0.330541 -0.432905
v 0.291724 -0.338311 -0.431738
v 0.290255 -0.344307 -0.430847
v 0.297248 -0.35546 -0.422533
v 0.303803 -0.350677 -0.420459
v 0.374022 -0.339641 -0.358907
v 0.357032 -0.35546 -0.368696
v 0.359553 -0.346361 -0.371418
v 0.330045 -0.344307 -0.399812
v 0.308473 -0.35546 -0.413555
v 0.351814 -0.309285 -0.398045
v 0.360014 -0.297619 -0.395242
v 0.373277 -0.291366 -0.384983
v 0.396997 -0.257183 -0.373687
v 0.395353 -0.264953 -0.371694
v 0.385926 -0.281916 -0.374449
v 0.387351 -0.297619 -0.364531
v 0.384151 -0.312738 -0.360592
v 0.378538 -0.329211 -0.358907
v 0.37753 -0.331544 -0.358907
v 0.43078 -0.117118 -0.372439
v 0.441062 -0.134244 -0.35949
v 0.441632 -0.134244 -0.358907
v 0.256077 -0.117118 -0.50794
v 0.283832 -0.134244 -0.492236
v 0.262084 -0.122554 -0.504586
v 0.262939 -0.117118 -0.504569
v 0.284993 -0.122554 -0.492771
v 0.287536 -0.14591 -0.487585
v 0.292118 -0.210868 -0.467068
v 0.295604 -0.320951 -0.434234
v 0.297489 -0.333714 -0.429453
v 0.297643 -0.344307 -0.426277
v 0.297731 -0.35546 -0.422176
v 0.307377 -0.35546 -0.414495
v 0.305228 -0.344307 -0.421447
v 0.32805 -0.328954 -0.409406
v 0.332062 -0.35546 -0.391773
v 0.354182 -0.297619 -0.399779
v 0.329826 -0.320951 -0.410654
v 0.361285 -0.290082 -0.396279
v 0.376346 -0.274263 -0.387641
v 0.374789 -0.283572 -0.386344
v 0.398137 -0.25093 -0.374676
v 0.405942 -0.239264 -0.370851
v 0.411247 -0.239264 -0.365017
v 0.409581 -0.247664 -0.363169
v 0.395222 -0.287982 -0.359847
v 0.382791 -0.319155 -0.358907
v 0.428742 -0.117118 -0.374416
v 0.398203 -0.14591 -0.398159
v 0.400549 -0.122554 -0.400395
v 0.412497 -0.122554 -0.388986
v 0.418854 -0.117118 -0.383897
v 0.425431 -0.117118 -0.377593
v 0.441457 -0.1352 -0.358907
v 0.439506 -0.144953 -0.358907
v 0.43214 -0.164903 -0.362116
v 0.416246 -0.204265 -0.369749
v 0.289663 -0.134244 -0.488622
v 0.307311 -0.117118 -0.480746
v 0.306631 -0.122554 -0.480454
v 0.27914 -0.117118 -0.496207
v 0.285848 -0.117118 -0.492723
v 0.304899 -0.132097 -0.479531
v 0.296393 -0.14591 -0.481751
v 0.294135 -0.157576 -0.480163
v 0.292601 -0.165486 -0.479077
v 0.304461 -0.306018 -0.432565
v 0.307618 -0.332641 -0.4231
v 0.346005 -0.297619 -0.405614
v 0.351069 -0.271043 -0.409228
v 0.338858 -0.304455 -0.40879
v 0.352428 -0.262596 -0.410346
v 0.362447 -0.282289 -0.397381
v 0.408529 -0.221904 -0.373525
v 0.40011 -0.239264 -0.376296
v 0.407411 -0.229674 -0.372504
v 0.412234 -0.226524 -0.368242
v 0.419885 -0.221158 -0.361581
v 0.418964 -0.227621 -0.360187
v 0.418021 -0.233501 -0.358907
v 0.416092 -0.239264 -0.358907
v 0.412256 -0.24932 -0.358907
v 0.395594 -0.288869 -0.358907
v 0.392087 -0.14591 -0.403993
v 0.411576 -0.192599 -0.376442
v 0.394432 -0.122554 -0.406229
v 0.374329 -0.117118 -0.426423
v 0.413023 -0.117118 -0.389472
v 0.439309 -0.14591 -0.358907
v 0.422165 -0.204265 -0.363915
v 0.423458 -0.192599 -0.365033
v 0.409187 -0.215931 -0.374157
v 0.410392 -0.204265 -0.375308
v 0.385488 -0.1534 -0.408839
v 0.313164 -0.117118 -0.476954
v 0.312485 -0.122554 -0.476565
v 0.307552 -0.204265 -0.458057
v 0.318513 -0.134244 -0.469304
v 0.316365 -0.14591 -0.467716
v 0.315203 -0.151907 -0.466906
v 0.331316 -0.227621 -0.435012
v 0.299243 -0.204265 -0.463892
v 0.317176 -0.227621 -0.444946
v 0.322284 -0.274263 -0.428675
v 0.326998 -0.163946 -0.455335
v 0.339691 -0.213621 -0.432808
v 0.34116 -0.204265 -0.434039
v 0.389061 -0.227621 -0.388435
v 0.329891 -0.14591 -0.457701
v 0.327107 -0.117118 -0.4671
v 0.351025 -0.224798 -0.420929
v 0.397239 -0.211498 -0.385518
v 0.357755 -0.122554 -0.440133
v 0.374417 -0.143554 -0.421026
v 0.375469 -0.134244 -0.422047
v 0.421069 -0.213388 -0.362845
v 0.422296 -0.218591 -0.358907
v 0.421003 -0.223538 -0.358907
v 0.419841 -0.227621 -0.358907
v 0.423064 -0.215651 -0.358907
v 0.419315 -0.229394 -0.358907
v 0.376631 -0.122554 -0.423197
v 0.388601 -0.122554 -0.411788
v 0.368278 -0.117118 -0.432127
v 0.436765 -0.157576 -0.358907
v 0.430474 -0.180932 -0.360333
v 0.321561 -0.121878 -0.470066
v 0.327042 -0.117514 -0.467052
v 0.324345 -0.134244 -0.464913
v 0.328072 -0.157576 -0.456177
v 0.32805 -0.201582 -0.444379
v 0.355804 -0.117118 -0.443066
v 0.358523 -0.117118 -0.440765
v 0.36214 -0.117118 -0.437654
v 0.365165 -0.117118 -0.434931
v 0.429509 -0.190405 -0.358907
v 0.429005 -0.192599 -0.358907
v 0.431635 -0.180932 -0.358907
f 1 2 6
f 1 6 14
f 1 14 26
f 1 26 46
f 1 46 78
f 1 78 108
f 1 108 109
f 1 109 84
f 1 84 112
f 1 112 81
f 1 81 50
f 1 50 30
f 1 30 15
f 1 15 7
f 1 7 3
f 1 3 9
f 1 9 17
f 1 17 36
f 1 36 68
f 1 68 38
f 1 38 37
f 1 37 19
f 1 19 18
f 1 18 10
f 1 10 4
f 1 4 5
f 1 5 2
f 2 5 6
f 3 7 8
f 3 8 9
f 4 10 5
f 5 10 11
f 5 11 12
f 5 12 13
f 5 13 6
f 6 13 14
f 7 15 29
f 7 29 49
f 7 49 80
f 7 80 94
f 7 94 93
f 7 93 123
f 7 123 159
f 7 159 158
f 7 158 157
f 7 157 156
f 7 156 197
f 7 197 195
f 7 195 194
f 7 194 193
f 7 193 196
f 7 196 213
f 7 213 212
f 7 212 214
f 7 214 201
f 7 201 165
f 7 165 131
f 7 131 130
f 7 130 97
f 7 97 63
f 7 63 33
f 7 33 16
f 7 16 8
f 8 16 32
f 8 32 61
f 8 61 95
f 8 95 124
f 8 124 129
f 8 129 128
f 8 128 164
f 8 164 163
f 8 163 200
f 8 200 211
f 8 211 210
f 8 210 209
f 8 209 208
f 8 208 186
f 8 186 171
f 8 171 135
f 8 135 138
f 8 138 137
f 8 137 101
f 8 101 98
f 8 98 64
f 8 64 34
f 8 34 17
f 8 17 9
f 10 18 11
f 11 18 19
f 11 19 20
f 11 20 21
f 11 21 22
f 11 22 23
f 11 23 12
f 12 23 24
f 12 24 13
f 13 24 14
f 14 25 26
f 14 24 27
f 14 27 28
f 14 28 25
f 15 30 31
f 15 31 29
f 16 33 32
f 17 34 35
f 17 35 36
f 19 37 20
f 20 37 21
f 21 37 38
f 21 38 39
f 21 39 40
f 21 40 41
f 21 41 22
f 22 41 23
f 23 41 24
f 24 41 42
f 24 42 43
f 24 43 27
f 25 44 26
f 25 28 48
f 25 48 45
f 25 45 44
f 26 44 47
f 26 47 46
f 27 43 28
f 28 43 48
f 29 31 49
f 30 50 51
f 30 51 31
f 31 52 53
f 31 53 54
f 31 54 55
f 31 55 56
f 31 56 57
f 31 57 58
f 31 58 59
f 31 59 49
f 31 51 60
f 31 60 52
f 32 33 62
f 32 62 61
f 33 63 62
f 34 64 35
f 35 65 66
f 35 66 67
f 35 67 39
f 35 39 68
f 35 68 36
f 35 64 65
f 38 68 39
f 39 67 40
f 40 67 69
f 40 69 70
f 40 70 42
f 40 42 41
f 42 70 43
f 43 67 66
f 43 66 71
f 43 71 72
f 43 72 73
f 43 73 48
f 43 70 69
f 43 69 67
f 44 74 75
f 44 75 76
f 44 76 77
f 44 77 47
f 44 45 73
f 44 73 72
f 44 72 74
f 45 48 73
f 46 47 79
f 46 79 78
f 47 77 79
f 49 59 80
f 50 81 51
f 51 81 82
f 51 82 60
f 52 60 53
f 53 60 83
f 53 83 84
f 53 84 54
f 54 85 55
f 54 84 79
f 54 79 85
f 55 85 86
f 55 86 87
f 55 87 56
f 56 87 57
f 57 87 88
f 57 88 89
f 57 89 90
f 57 90 58
f 58 90 89
f 58 89 91
f 58 91 92
f 58 92 59
f 59 92 93
f 59 93 94
f 59 94 80
f 60 82 83
f 61 62 63
f 61 63 96
f 61 96 95
f 63 97 96
f 64 98 65
f 65 99 66
f 65 98 100
f 65 100 101
f 65 101 102
f 65 102 99
f 66 99 71
f 71 103 104
f 71 104 72
f 71 99 103
f 72 104 74
f 74 104 75
f 75 105 106
f 75 106 107
f 75 107 76
f 75 104 105
f 76 107 77
f 77 107 79
f 78 79 108
f 79 84 109
f 79 109 108
f 79 107 110
f 79 110 111
f 79 111 85
f 81 112 82
f 82 112 83
f 83 112 84
f 85 113 86
f 85 111 114
f 85 114 113
f 86 113 115
f 86 115 116
f 86 116 117
f 86 117 87
f 87 117 88
f 88 117 118
f 88 118 119
f 88 119 120
f 88 120 121
f 88 121 89
f 89 121 91
f 91 121 92
f 92 121 122
f 92 122 93
f 93 122 123
f 95 96 124
f 96 125 126
f 96 126 127
f 96 127 128
f 96 128 129
f 96 129 124
f 96 97 130
f 96 130 131
f 96 131 132
f 96 132 133
f 96 133 125
f 98 101 100
f 99 134 103
f 99 102 135
f 99 135 136
f 99 136 134
f 101 137 102
f 102 137 138
f 102 138 135
f 103 134 136
f 103 136 139
f 103 139 140
f 103 140 141
f 103 141 142
f 103 142 104
f 104 142 141
f 104 141 143
f 104 143 110
f 104 110 105
f 105 110 106
f 106 110 107
f 110 143 144
f 110 144 114
f 110 114 111
f 113 114 145
f 113 145 146
f 113 146 115
f 114 144 147
f 114 147 145
f 115 146 148
f 115 148 149
f 115 149 116
f 116 149 150
f 116 150 151
f 116 151 152
f 116 152 117
f 117 152 118
f 118 152 119
f 119 152 120
f 120 152 153
f 120 153 154
f 120 154 155
f 120 155 156
f 120 156 157
f 120 157 121
f 121 157 158
f 121 158 159
f 121 159 122
f 122 159 123
f 125 160 162
f 125 162 126
f 125 133 161
f 125 161 160
f 126 162 163
f 126 163 127
f 127 163 164
f 127 164 128
f 131 165 132
f 132 166 167
f 132 167 133
f 132 165 166
f 133 167 166
f 133 166 150
f 133 150 168
f 133 168 169
f 133 169 170
f 133 170 160
f 133 160 161
f 135 171 136
f 136 171 172
f 136 172 139
f 139 173 140
f 139 172 174
f 139 174 175
f 139 175 176
f 139 176 177
f 139 177 173
f 140 173 178
f 140 178 141
f 141 178 143
f 143 179 177
f 143 177 180
f 143 180 144
f 143 178 173
f 143 173 179
f 144 180 147
f 145 147 177
f 145 177 146
f 146 177 181
f 146 181 182
f 146 182 148
f 147 180 177
f 148 182 183
f 148 183 149
f 149 184 150
f 149 183 185
f 149 185 186
f 149 186 187
f 149 187 184
f 150 188 189
f 150 189 190
f 150 190 191
f 150 191 168
f 150 166 192
f 150 192 152
f 150 152 151
f 150 184 188
f 152 192 153
f 153 192 154
f 154 193 194
f 154 194 195
f 154 195 155
f 154 192 196
f 154 196 193
f 155 195 197
f 155 197 156
f 160 170 198
f 160 198 199
f 160 199 162
f 162 199 163
f 163 199 198
f 163 198 191
f 163 191 200
f 165 201 202
f 165 202 166
f 166 202 192
f 168 191 170
f 168 170 169
f 170 191 198
f 171 186 172
f 172 186 203
f 172 203 174
f 173 177 179
f 174 203 186
f 174 186 204
f 174 204 205
f 174 205 206
f 174 206 181
f 174 181 175
f 175 181 207
f 175 207 177
f 175 177 176
f 177 207 181
f 181 206 182
f 182 206 183
f 183 206 185
f 184 187 188
f 185 206 204
f 185 204 186
f 186 208 189
f 186 189 188
f 186 188 187
f 189 208 209
f 189 209 190
f 190 209 210
f 190 210 191
f 191 210 211
f 191 211 200
f 192 202 212
f 192 212 213
f 192 213 196
f 201 214 202
f 202 214 212
f 204 206 205
