v 0.201548 -0.246067 0.509081
v 0.201548 -0.247245 0.508823
v 0.201548 -0.246067 0.495099
v 0.190199 -0.246067 0.514797
v 0.201548 -0.250952 0.508003
v 0.201548 -0.423021 0.43258
v 0.00167944 -0.246067 0.534652
v 0.188633 -0.250952 0.51446
v 0.201548 -0.262264 0.505487
v 0.165523 -0.246067 0.526173
v 0.201548 -0.423021 0.446731
v 0.00167944 -0.423021 0.474784
v 0.00167944 -0.246067 0.547297
v 0.187068 -0.257206 0.513696
v 0.201548 -0.270094 0.503095
v 0.157579 -0.246067 0.528285
v 0.165171 -0.24728 0.526016
v 0.201548 -0.397053 0.456445
v 0.20057 -0.399167 0.456063
v 0.189201 -0.411172 0.456186
v 0.17789 -0.423021 0.456332
v 0.00167944 -0.423021 0.487429
v 0.00167944 -0.274286 0.540424
v 0.00584745 -0.274286 0.540166
v 0.0175101 -0.262628 0.541772
v 0.052537 -0.250952 0.540604
v 0.057429 -0.246067 0.541177
v 0.180141 -0.26171 0.514831
v 0.201059 -0.271324 0.502938
v 0.201548 -0.271012 0.502803
v 0.157598 -0.251091 0.527027
v 0.150769 -0.246067 0.529565
v 0.153724 -0.25899 0.525836
v 0.141631 -0.305173 0.514179
v 0.157148 -0.285442 0.515257
v 0.168654 -0.273576 0.515044
v 0.10631 -0.374863 0.502309
v 0.201548 -0.393953 0.45759
v 0.201548 -0.333634 0.479804
v 0.199024 -0.339126 0.478793
v 0.168967 -0.367275 0.480421
v 0.157481 -0.379142 0.480635
v 0.142159 -0.399115 0.479388
v 0.156855 -0.413493 0.468225
v 0.152511 -0.420942 0.467192
v 0.154585 -0.423021 0.465485
v 0.0568811 -0.423021 0.486721
v 0.0291922 -0.412696 0.491685
v 0.00167944 -0.413129 0.491842
v 0.00584745 -0.282584 0.537707
v 0.00167944 -0.28274 0.537785
v 0.0382327 -0.315982 0.525511
v 0.0151619 -0.281544 0.537314
v 0.0184298 -0.275343 0.538549
v 0.0291922 -0.262628 0.540469
v 0.0621058 -0.305259 0.525679
v 0.0703244 -0.256929 0.536932
v 0.0913015 -0.246067 0.537134
v 0.0752947 -0.246067 0.539077
v 0.0690916 -0.246067 0.539829
v 0.0291922 -0.272606 0.537943
v 0.201548 -0.299924 0.492213
v 0.145877 -0.246067 0.530205
v 0.145877 -0.250952 0.529262
v 0.145133 -0.262784 0.526308
v 0.130007 -0.316918 0.514078
v 0.117855 -0.363066 0.502343
v 0.0992266 -0.367657 0.505352
v 0.0992266 -0.376561 0.502882
v 0.0981503 -0.402735 0.492089
v 0.11087 -0.398457 0.491056
v 0.116838 -0.396932 0.490259
v 0.121417 -0.320885 0.514471
v 0.119597 -0.39099 0.491359
v 0.146503 -0.423021 0.468304
v 0.0641996 -0.423021 0.486587
v 0.0641996 -0.412124 0.491483
v 0.052537 -0.412315 0.49155
v 0.0175101 -0.378864 0.50378
v 0.00584745 -0.41306 0.49182
v 0.0758818 -0.402666 0.494695
v 0.0641996 -0.402666 0.49483
v 0.00167944 -0.312085 0.527566
v 0.0291922 -0.316485 0.52569
v 0.00167944 -0.309313 0.528543
v 0.00584745 -0.309313 0.528498
v 0.0175101 -0.309313 0.528363
v 0.041618 -0.310335 0.526791
v 0.0875444 -0.377686 0.50332
v 0.0641996 -0.344011 0.515235
v 0.0758818 -0.342469 0.514561
v 0.0758818 -0.332647 0.517066
v 0.0992266 -0.320989 0.517189
v 0.122552 -0.309313 0.517313
v 0.134214 -0.270475 0.525735
v 0.134214 -0.262628 0.527723
v 0.116779 -0.326861 0.513562
v 0.11087 -0.320989 0.515774
v 0.0885619 -0.333756 0.515246
v 0.0875444 -0.367657 0.506442
v 0.0875444 -0.402666 0.493965
v 0.0875444 -0.409907 0.490832
v 0.0935322 -0.408573 0.490248
v 0.122552 -0.412523 0.480668
v 0.130712 -0.410236 0.479455
v 0.145877 -0.423021 0.468506
v 0.0682894 -0.423021 0.486497
v 0.0758818 -0.411605 0.491416
v 0.0758818 -0.377912 0.503443
v 0.0792866 -0.423021 0.485475
v 0.0880532 -0.423021 0.48388
v 0.0991092 -0.423021 0.481185
v 0.10359 -0.423021 0.480039
v 0.134606 -0.423021 0.471684
v 0.108404 -0.421825 0.479422
v 0.0758818 -0.423021 0.485879
f 1 2 5
f 1 5 9
f 1 9 15
f 1 15 30
f 1 30 62
f 1 62 39
f 1 39 38
f 1 38 18
f 1 18 11
f 1 11 6
f 1 6 3
f 1 3 7
f 1 7 13
f 1 13 27
f 1 27 60
f 1 60 59
f 1 59 58
f 1 58 63
f 1 63 32
f 1 32 16
f 1 16 10
f 1 10 4
f 1 4 2
f 2 4 5
f 3 6 7
f 4 8 9
f 4 9 5
f 4 10 8
f 6 11 21
f 6 21 46
f 6 46 75
f 6 75 106
f 6 106 114
f 6 114 113
f 6 113 112
f 6 112 111
f 6 111 110
f 6 110 116
f 6 116 107
f 6 107 76
f 6 76 47
f 6 47 22
f 6 22 12
f 6 12 7
f 7 12 22
f 7 22 49
f 7 49 83
f 7 83 85
f 7 85 51
f 7 51 23
f 7 23 13
f 8 14 9
f 8 10 14
f 9 14 15
f 10 16 17
f 10 17 14
f 11 18 19
f 11 19 20
f 11 20 21
f 13 23 24
f 13 24 25
f 13 25 26
f 13 26 27
f 14 28 29
f 14 29 15
f 14 17 28
f 15 29 30
f 16 31 17
f 16 32 33
f 16 33 31
f 17 34 35
f 17 35 36
f 17 36 28
f 17 31 33
f 17 33 37
f 17 37 34
f 18 38 19
f 19 38 39
f 19 39 40
f 19 40 20
f 20 28 41
f 20 41 42
f 20 42 43
f 20 43 21
f 20 40 28
f 21 43 44
f 21 44 45
f 21 45 46
f 22 47 48
f 22 48 49
f 23 50 24
f 23 51 50
f 24 50 52
f 24 52 53
f 24 53 54
f 24 54 25
f 25 54 55
f 25 55 26
f 26 56 57
f 26 57 58
f 26 58 59
f 26 59 60
f 26 60 27
f 26 55 61
f 26 61 56
f 28 36 42
f 28 42 41
f 28 40 29
f 29 40 39
f 29 39 62
f 29 62 30
f 32 63 64
f 32 64 33
f 33 64 65
f 33 65 66
f 33 66 37
f 34 67 36
f 34 36 35
f 34 37 67
f 36 67 43
f 36 43 42
f 37 68 69
f 37 69 70
f 37 70 71
f 37 71 72
f 37 72 67
f 37 66 65
f 37 65 73
f 37 73 68
f 43 67 74
f 43 74 72
f 43 72 44
f 44 72 45
f 45 72 75
f 45 75 46
f 47 76 77
f 47 77 78
f 47 78 48
f 48 79 80
f 48 80 49
f 48 78 81
f 48 81 82
f 48 82 79
f 49 80 79
f 49 79 83
f 50 51 84
f 50 84 52
f 51 85 86
f 51 86 87
f 51 87 84
f 52 88 53
f 52 84 89
f 52 89 90
f 52 90 69
f 52 69 88
f 53 88 68
f 53 68 91
f 53 91 54
f 54 61 55
f 54 91 68
f 54 68 92
f 54 92 61
f 56 92 93
f 56 93 57
f 56 61 92
f 57 93 94
f 57 94 95
f 57 95 58
f 58 95 96
f 58 96 64
f 58 64 63
f 64 96 95
f 64 95 94
f 64 94 97
f 64 97 65
f 65 97 73
f 67 72 74
f 68 98 93
f 68 93 99
f 68 99 92
f 68 88 69
f 68 73 97
f 68 97 94
f 68 94 98
f 69 90 100
f 69 100 89
f 69 89 101
f 69 101 70
f 70 101 102
f 70 102 103
f 70 103 71
f 71 103 104
f 71 104 72
f 72 104 105
f 72 105 106
f 72 106 75
f 76 107 77
f 77 107 108
f 77 108 81
f 77 81 78
f 79 86 83
f 79 82 86
f 81 108 89
f 81 89 109
f 81 109 87
f 81 87 86
f 81 86 82
f 83 86 85
f 84 87 109
f 84 109 89
f 89 108 101
f 89 100 90
f 92 99 93
f 93 98 94
f 101 108 102
f 102 108 110
f 102 110 111
f 102 111 103
f 103 111 112
f 103 112 113
f 103 113 104
f 104 114 106
f 104 106 105
f 104 113 115
f 104 115 114
f 107 116 108
f 108 116 110
f 113 114 115
