v -0.201517 -0.355466 0.472023
v -0.203907 -0.355466 0.471092
v -0.202104 -0.36766 0.468367
v -0.201517 -0.366965 0.468791
v -0.201517 -0.355466 0.458346
v -0.209384 -0.355466 0.468932
v -0.201517 -0.36766 0.468593
v -0.210067 -0.361788 0.466815
v -0.201517 -0.369282 0.468128
v -0.201517 -0.423082 0.431964
v -0.34106 -0.423088 0.32782
v -0.34106 -0.416058 0.332069
v -0.34106 -0.394623 0.345112
v -0.34106 -0.373578 0.357985
v -0.34106 -0.358352 0.367301
v -0.34106 -0.356525 0.368473
v -0.34106 -0.355466 0.369164
v -0.214507 -0.355466 0.46673
v -0.210969 -0.398012 0.455607
v -0.201517 -0.391141 0.461253
v -0.201517 -0.423088 0.435083
v -0.205901 -0.423088 0.429635
v -0.34106 -0.423088 0.347059
v -0.34106 -0.355466 0.388079
v -0.216419 -0.355466 0.465813
v -0.213236 -0.391002 0.45668
v -0.215285 -0.402209 0.451725
v -0.207185 -0.405797 0.454069
v -0.203688 -0.402209 0.456849
v -0.201517 -0.400124 0.458374
v -0.223467 -0.376458 0.456129
v -0.233834 -0.397343 0.443736
v -0.201517 -0.423088 0.447307
v -0.34106 -0.414469 0.352367
v -0.29552 -0.423088 0.388728
v -0.293348 -0.410821 0.39827
v -0.34106 -0.355989 0.387895
v -0.334326 -0.355466 0.393471
v -0.217238 -0.355466 0.465417
v -0.227182 -0.401812 0.445515
v -0.223003 -0.409782 0.444272
v -0.215572 -0.413939 0.446079
v -0.201517 -0.411331 0.453589
v -0.201517 -0.405718 0.456186
v -0.211447 -0.421566 0.444272
v -0.203688 -0.413562 0.451612
v -0.201517 -0.402302 0.457583
v -0.235706 -0.391002 0.444766
v -0.227456 -0.366521 0.457061
v -0.235337 -0.355466 0.4562
v -0.262587 -0.378397 0.433912
v -0.258667 -0.388473 0.432881
v -0.256454 -0.396244 0.431484
v -0.203388 -0.423088 0.4467
v -0.34106 -0.377192 0.375319
v -0.293075 -0.423088 0.390958
v -0.290712 -0.4186 0.395871
v -0.291695 -0.396721 0.408405
v -0.297978 -0.3921 0.405526
v -0.305846 -0.391002 0.399032
v -0.34106 -0.364535 0.38311
v -0.34106 -0.357313 0.387204
v -0.326991 -0.362106 0.396986
v -0.328493 -0.355466 0.398044
v -0.328384 -0.355989 0.39796
v -0.227592 -0.355466 0.460195
v -0.219233 -0.417561 0.441986
v -0.270769 -0.399223 0.421547
v -0.259213 -0.411007 0.421645
v -0.237222 -0.412397 0.434138
v -0.208442 -0.423088 0.444668
v -0.212977 -0.423088 0.44248
v -0.27458 -0.355466 0.434505
v -0.270455 -0.36766 0.432952
v -0.268679 -0.373883 0.431964
v -0.281164 -0.386824 0.420813
v -0.278541 -0.394596 0.419175
v -0.288499 -0.423088 0.394995
v -0.283213 -0.423088 0.399428
v -0.281014 -0.409617 0.409153
v -0.28365 -0.402672 0.411158
v -0.294331 -0.388943 0.410522
v -0.31676 -0.375915 0.398256
v -0.339189 -0.362887 0.385835
v -0.314137 -0.3837 0.395941
v -0.304207 -0.374803 0.409026
v -0.305874 -0.36766 0.410212
v -0.328125 -0.355466 0.398313
v -0.216747 -0.423088 0.440235
v -0.247658 -0.42279 0.421716
v -0.277408 -0.417395 0.406867
v -0.269649 -0.4214 0.409224
v -0.274853 -0.355466 0.434349
v -0.283131 -0.379331 0.422055
v -0.288977 -0.379331 0.418117
v -0.282161 -0.423088 0.400176
v -0.275823 -0.423088 0.404481
v -0.292651 -0.363767 0.420784
v -0.294523 -0.355466 0.422055
v -0.294372 -0.355989 0.421998
v -0.232031 -0.423088 0.43099
v -0.247002 -0.423088 0.421928
v -0.285016 -0.355466 0.428181
v -0.294099 -0.355466 0.422337
f 1 2 3
f 1 3 4
f 1 4 7
f 1 7 9
f 1 9 20
f 1 20 30
f 1 30 47
f 1 47 44
f 1 44 43
f 1 43 33
f 1 33 21
f 1 21 10
f 1 10 5
f 1 5 17
f 1 17 24
f 1 24 38
f 1 38 64
f 1 64 88
f 1 88 99
f 1 99 104
f 1 104 103
f 1 103 93
f 1 93 73
f 1 73 50
f 1 50 66
f 1 66 39
f 1 39 25
f 1 25 18
f 1 18 6
f 1 6 2
f 2 6 3
f 3 7 4
f 3 6 8
f 3 8 9
f 3 9 7
f 5 10 11
f 5 11 12
f 5 12 13
f 5 13 14
f 5 14 15
f 5 15 16
f 5 16 17
f 6 18 8
f 8 18 19
f 8 19 9
f 9 19 20
f 10 21 22
f 10 22 11
f 11 23 34
f 11 34 55
f 11 55 61
f 11 61 62
f 11 62 37
f 11 37 24
f 11 24 17
f 11 17 16
f 11 16 15
f 11 15 14
f 11 14 13
f 11 13 12
f 11 22 21
f 11 21 33
f 11 33 54
f 11 54 71
f 11 71 72
f 11 72 89
f 11 89 101
f 11 101 102
f 11 102 97
f 11 97 96
f 11 96 79
f 11 79 78
f 11 78 56
f 11 56 35
f 11 35 23
f 18 25 26
f 18 26 19
f 19 27 28
f 19 28 29
f 19 29 30
f 19 30 20
f 19 26 31
f 19 31 32
f 19 32 27
f 23 35 36
f 23 36 34
f 24 37 38
f 25 39 31
f 25 31 26
f 27 32 40
f 27 40 41
f 27 41 42
f 27 42 28
f 28 43 44
f 28 44 29
f 28 42 45
f 28 45 46
f 28 46 43
f 29 44 47
f 29 47 30
f 31 48 32
f 31 39 49
f 31 49 50
f 31 50 51
f 31 51 48
f 32 48 52
f 32 52 53
f 32 53 40
f 33 43 54
f 34 36 55
f 35 56 36
f 36 57 58
f 36 58 59
f 36 59 60
f 36 60 61
f 36 61 55
f 36 56 57
f 37 62 63
f 37 63 38
f 38 63 65
f 38 65 64
f 39 66 49
f 40 53 41
f 41 67 45
f 41 45 42
f 41 53 68
f 41 68 69
f 41 69 70
f 41 70 67
f 43 46 54
f 45 71 54
f 45 54 46
f 45 67 72
f 45 72 71
f 48 51 52
f 49 66 50
f 50 73 74
f 50 74 51
f 51 74 75
f 51 75 52
f 52 75 76
f 52 76 53
f 53 76 77
f 53 77 68
f 56 78 57
f 57 78 58
f 58 78 79
f 58 79 80
f 58 80 81
f 58 81 77
f 58 77 82
f 58 82 59
f 59 82 83
f 59 83 84
f 59 84 85
f 59 85 60
f 60 85 84
f 60 84 61
f 61 84 62
f 62 84 63
f 63 86 87
f 63 87 88
f 63 88 65
f 63 84 83
f 63 83 82
f 63 82 86
f 64 65 88
f 67 89 72
f 67 70 90
f 67 90 89
f 68 77 80
f 68 80 91
f 68 91 92
f 68 92 69
f 69 92 90
f 69 90 70
f 73 93 76
f 73 76 74
f 74 76 75
f 76 82 77
f 76 93 94
f 76 94 95
f 76 95 86
f 76 86 82
f 77 81 80
f 79 96 80
f 80 96 97
f 80 97 91
f 86 95 98
f 86 98 87
f 87 98 88
f 88 98 100
f 88 100 99
f 89 90 101
f 90 102 101
f 90 92 97
f 90 97 102
f 91 97 92
f 93 103 94
f 94 98 95
f 94 103 98
f 98 103 104
f 98 104 100
f 99 100 104
