v 0.227312 -0.569857 0.342521
v 0.227968 -0.569557 0.342521
v 0.227312 -0.567301 0.34525
v 0.227312 -0.436688 0.342521
v 0.23012 -0.56854 0.342521
v 0.227312 -0.565541 0.346726
v 0.227312 -0.437692 0.342781
v 0.227721 -0.437575 0.342521
v 0.235096 -0.564759 0.342521
v 0.227312 -0.563455 0.348433
v 0.227312 -0.531278 0.348433
v 0.227423 -0.531069 0.348433
v 0.233071 -0.528735 0.348433
v 0.235096 -0.527901 0.348433
v 0.235096 -0.517966 0.342521
v 0.235096 -0.557353 0.348433
v 0.231321 -0.560326 0.348433
f 1 2 3
f 1 3 6
f 1 6 10
f 1 10 11
f 1 11 7
f 1 7 4
f 1 4 8
f 1 8 15
f 1 15 9
f 1 9 5
f 1 5 2
f 2 5 3
f 3 5 6
f 4 7 8
f 5 9 6
f 6 9 10
f 7 11 12
f 7 12 13
f 7 13 14
f 7 14 8
f 8 14 15
f 9 16 17
f 9 17 10
f 9 15 14
f 9 14 16
f 10 17 16
f 10 16 14
f 10 14 13
f 10 13 12
f 10 12 11
