v 0.19918 -0.0754952 0.53185
v 0.371093 -0.0754952 0.424725
v 0.19918 -0.0754952 0.545408
v 0.19918 0.167607 0.537932
v 0.199988 0.167607 0.537375
v 0.371093 -0.0754952 0.441997
v 0.371093 0.167607 0.432354
v 0.204263 -0.0754952 0.543368
v 0.19918 -0.064192 0.546701
v 0.19918 0.167607 0.550477
v 0.341793 -0.064192 0.469925
v 0.353438 -0.0754952 0.458229
v 0.371093 0.0525045 0.453173
v 0.371093 0.167607 0.44984
v 0.214158 -0.0754952 0.538959
v 0.19918 -0.0484152 0.548247
v 0.200241 0.167607 0.550186
v 0.19918 0.166203 0.550566
v 0.204263 0.110877 0.552885
v 0.352058 0.0291842 0.468632
v 0.344603 0.00584016 0.473447
v 0.338477 -8.50913e-05 0.478554
v 0.341254 -0.0754952 0.46943
v 0.371093 0.0641884 0.454161
v 0.354263 0.0758486 0.470672
v 0.34494 0.167607 0.473789
v 0.358605 0.145881 0.463931
v 0.371093 0.145881 0.452489
v 0.237063 -0.0754952 0.527111
v 0.214916 -0.064192 0.539415
v 0.19918 -0.0471302 0.548348
v 0.201637 0.167607 0.549793
v 0.19918 0.134221 0.552466
v 0.19918 0.110877 0.553822
v 0.204263 0.0991926 0.553315
v 0.212745 0.110877 0.549907
v 0.19918 0.122537 0.553151
v 0.338763 0.00584016 0.478769
v 0.332637 0.00584016 0.482152
v 0.328161 -0.0754952 0.479377
v 0.328363 -0.0754952 0.479251
v 0.334001 -0.0754952 0.475259
v 0.334236 -0.0754952 0.475082
v 0.347801 0.0758486 0.476501
v 0.348356 0.0875325 0.47697
v 0.366431 0.0758486 0.459433
v 0.371093 0.102381 0.457202
v 0.354785 0.0875325 0.471128
v 0.3391 0.167607 0.479035
v 0.345596 0.157565 0.474398
v 0.354314 0.122537 0.470697
v 0.353539 0.134221 0.469988
v 0.352765 0.145881 0.469278
v 0.359379 0.134221 0.464641
v 0.365741 0.134221 0.458812
v 0.371093 0.141693 0.452995
v 0.282738 -0.0754952 0.503238
v 0.210305 0.0449849 0.548665
v 0.204734 -0.040848 0.545979
v 0.284825 -0.040848 0.504328
v 0.321412 -0.00581997 0.487398
v 0.273432 0.0525045 0.51615
v 0.233782 0.0555742 0.537071
v 0.228699 0.0520286 0.539504
v 0.210759 0.0525045 0.548906
v 0.19918 -0.0358032 0.54888
v 0.212863 0.0875325 0.54997
v 0.204263 0.0875325 0.553011
v 0.211752 0.122537 0.549413
v 0.21022 0.140741 0.548627
v 0.225013 0.167607 0.538579
v 0.19918 0.0991926 0.554177
v 0.19918 0.0941002 0.554101
v 0.19918 0.0875325 0.553936
v 0.213216 0.0991926 0.550148
v 0.327437 0.108854 0.490541
v 0.23565 0.110877 0.538034
v 0.339302 0.0175241 0.479187
v 0.333395 0.0991926 0.487576
v 0.331695 0.0868186 0.487766
v 0.327168 0.0902215 0.490402
v 0.305559 -0.0754952 0.491301
v 0.348844 0.0991926 0.477299
v 0.342533 0.0875325 0.481443
v 0.33984 0.0291842 0.479593
v 0.371093 0.102691 0.457202
v 0.339756 0.157565 0.479517
v 0.348625 0.110877 0.477147
v 0.347834 0.122537 0.476539
v 0.332637 0.167607 0.482533
v 0.331863 0.111995 0.487981
v 0.371093 0.107474 0.457101
v 0.371093 0.134221 0.453895
v 0.310019 0.0875325 0.499208
v 0.280668 0.0758486 0.513831
v 0.234993 0.0758486 0.537704
v 0.235683 0.0875325 0.538072
v 0.19918 0.059096 0.552834
v 0.281846 0.0991926 0.514439
v 0.236087 0.0991926 0.538274
v 0.19918 0.0824401 0.553784
v 0.19918 0.0707562 0.553315
v 0.210776 0.134221 0.548906
v 0.234674 0.122537 0.537527
v 0.281476 0.110877 0.514249
v 0.256989 0.129557 0.525324
v 0.251839 0.133745 0.52763
v 0.225872 0.157565 0.539022
v 0.247935 0.167607 0.52668
v 0.258554 0.110877 0.526148
v 0.343004 0.0991926 0.481734
v 0.342786 0.110877 0.481595
v 0.258521 0.0875325 0.526135
v 0.340497 0.145881 0.480062
v 0.321665 0.167607 0.488349
v 0.316649 0.167607 0.490997
v 0.272674 0.145881 0.515745
f 1 2 6
f 1 6 12
f 1 12 23
f 1 23 43
f 1 43 42
f 1 42 41
f 1 41 40
f 1 40 82
f 1 82 57
f 1 57 29
f 1 29 15
f 1 15 8
f 1 8 3
f 1 3 9
f 1 9 16
f 1 16 31
f 1 31 66
f 1 66 98
f 1 98 102
f 1 102 101
f 1 101 74
f 1 74 73
f 1 73 72
f 1 72 34
f 1 34 37
f 1 37 33
f 1 33 18
f 1 18 10
f 1 10 4
f 1 4 5
f 1 5 2
f 2 5 7
f 2 7 14
f 2 14 28
f 2 28 56
f 2 56 93
f 2 93 92
f 2 92 86
f 2 86 47
f 2 47 24
f 2 24 13
f 2 13 6
f 3 8 9
f 4 10 17
f 4 17 32
f 4 32 71
f 4 71 109
f 4 109 116
f 4 116 115
f 4 115 90
f 4 90 49
f 4 49 26
f 4 26 14
f 4 14 7
f 4 7 5
f 6 11 12
f 6 13 11
f 8 15 16
f 8 16 9
f 10 18 19
f 10 19 17
f 11 20 21
f 11 21 22
f 11 22 23
f 11 23 12
f 11 13 20
f 13 24 25
f 13 25 20
f 14 26 27
f 14 27 28
f 15 29 30
f 15 30 31
f 15 31 16
f 17 19 32
f 18 33 19
f 19 34 35
f 19 35 36
f 19 36 32
f 19 33 37
f 19 37 34
f 20 25 21
f 21 25 22
f 22 38 39
f 22 39 40
f 22 40 41
f 22 41 42
f 22 42 43
f 22 43 23
f 22 25 44
f 22 44 45
f 22 45 38
f 24 46 25
f 24 47 46
f 25 46 48
f 25 48 45
f 25 45 44
f 26 49 50
f 26 50 51
f 26 51 52
f 26 52 53
f 26 53 27
f 27 53 52
f 27 52 54
f 27 54 55
f 27 55 28
f 28 55 56
f 29 57 30
f 30 58 59
f 30 59 31
f 30 57 60
f 30 60 61
f 30 61 62
f 30 62 63
f 30 63 64
f 30 64 65
f 30 65 58
f 31 59 58
f 31 58 65
f 31 65 67
f 31 67 68
f 31 68 66
f 32 69 70
f 32 70 71
f 32 36 69
f 34 72 35
f 35 72 73
f 35 73 74
f 35 74 68
f 35 68 67
f 35 67 75
f 35 75 36
f 36 75 76
f 36 76 77
f 36 77 69
f 38 78 79
f 38 79 80
f 38 80 39
f 38 45 78
f 39 61 40
f 39 80 81
f 39 81 61
f 40 61 82
f 45 48 83
f 45 83 84
f 45 84 85
f 45 85 78
f 46 47 48
f 47 86 83
f 47 83 48
f 49 87 88
f 49 88 89
f 49 89 50
f 49 90 91
f 49 91 87
f 50 89 51
f 51 55 54
f 51 54 52
f 51 89 88
f 51 88 92
f 51 92 55
f 55 92 93
f 55 93 56
f 57 82 61
f 57 61 60
f 61 81 94
f 61 94 95
f 61 95 62
f 62 95 63
f 63 65 64
f 63 95 96
f 63 96 65
f 65 96 97
f 65 97 67
f 66 68 98
f 67 97 79
f 67 79 99
f 67 99 100
f 67 100 75
f 68 74 101
f 68 101 102
f 68 102 98
f 69 103 70
f 69 77 103
f 70 103 104
f 70 104 105
f 70 105 106
f 70 106 107
f 70 107 108
f 70 108 71
f 71 108 109
f 75 100 76
f 76 79 91
f 76 91 105
f 76 105 110
f 76 110 77
f 76 100 99
f 76 99 79
f 77 110 104
f 77 104 103
f 78 85 79
f 79 84 111
f 79 111 112
f 79 112 91
f 79 97 81
f 79 81 80
f 79 85 84
f 81 97 113
f 81 113 94
f 83 86 92
f 83 92 88
f 83 88 112
f 83 112 111
f 83 111 84
f 87 91 114
f 87 114 88
f 88 114 112
f 90 115 91
f 91 112 114
f 91 115 116
f 91 116 105
f 94 113 95
f 95 113 97
f 95 97 96
f 104 110 105
f 105 116 117
f 105 117 106
f 106 117 108
f 106 108 107
f 108 116 109
f 108 117 116
