v -0.537205 -0.129108 0.193003
v -0.526858 -0.129108 0.213274
v -0.522668 -0.129108 0.193003
v -0.533915 -0.14639 0.193003
v -0.514085 -0.236301 0.199508
v -0.525498 -0.176567 0.198951
v -0.526178 -0.169256 0.200262
v -0.527961 -0.146102 0.20508
v -0.525645 -0.142335 0.210914
v -0.514986 -0.129108 0.236216
v -0.420413 -0.129108 0.360399
v -0.349475 -0.355459 0.360399
v -0.461984 -0.355459 0.193003
v -0.527189 -0.181065 0.193003
v -0.514912 -0.227616 0.201098
v -0.515206 -0.239824 0.193265
v -0.513019 -0.244078 0.197591
v -0.505135 -0.263665 0.205375
v -0.502875 -0.260474 0.211914
v -0.503904 -0.250925 0.213946
v -0.490782 -0.166508 0.269564
v -0.504621 -0.23947 0.216748
v -0.492252 -0.215939 0.249047
v -0.479112 -0.131523 0.304568
v -0.479333 -0.129108 0.304994
v -0.438038 -0.129108 0.360399
v -0.367081 -0.355459 0.360399
v -0.475473 -0.355459 0.193003
v -0.515133 -0.240467 0.193003
v -0.513736 -0.246471 0.193003
v -0.506697 -0.273945 0.193003
v -0.503683 -0.274278 0.20213
v -0.501735 -0.268251 0.210013
v -0.490488 -0.234418 0.245606
v -0.491168 -0.227616 0.246933
v -0.469372 -0.169012 0.309959
v -0.468912 -0.145903 0.319087
v -0.46735 -0.129108 0.327428
v -0.469592 -0.134403 0.321807
v -0.46724 -0.130615 0.327297
v -0.443092 -0.129108 0.354778
v -0.444157 -0.145903 0.350862
v -0.437909 -0.129928 0.360399
v -0.371436 -0.346331 0.360399
v -0.378365 -0.355459 0.346191
v -0.468821 -0.355459 0.215716
v -0.480343 -0.344027 0.193003
v -0.506606 -0.274278 0.193003
v -0.50236 -0.281368 0.199574
v -0.490341 -0.303812 0.21034
v -0.491444 -0.274278 0.223778
v -0.49047 -0.257616 0.233873
v -0.491499 -0.250925 0.235593
v -0.491333 -0.297609 0.211963
v -0.492712 -0.285179 0.216109
v -0.479186 -0.223827 0.269515
v -0.455313 -0.187136 0.327002
v -0.467718 -0.18995 0.305026
v -0.468692 -0.180932 0.306927
v -0.467148 -0.164979 0.315678
v -0.464704 -0.157579 0.322839
v -0.456416 -0.129108 0.33985
v -0.455497 -0.142313 0.338817
v -0.456066 -0.134226 0.339456
v -0.457812 -0.169256 0.33046
v -0.453291 -0.169256 0.336293
v -0.454284 -0.157579 0.337572
v -0.454137 -0.129108 0.342406
v -0.437229 -0.134226 0.360399
v -0.443643 -0.152328 0.350288
v -0.421424 -0.352756 0.293342
v -0.405472 -0.355459 0.311909
v -0.380386 -0.355459 0.343635
v -0.386727 -0.313761 0.360399
v -0.394997 -0.297609 0.359547
v -0.399665 -0.297609 0.353713
v -0.410122 -0.297609 0.340489
v -0.481005 -0.333148 0.204621
v -0.479296 -0.340459 0.200967
v -0.480472 -0.343716 0.193003
v -0.468563 -0.355459 0.21642
v -0.503132 -0.284891 0.193003
v -0.491333 -0.306405 0.204261
v -0.467461 -0.35187 0.222762
v -0.468692 -0.344315 0.224761
v -0.478947 -0.31642 0.222434
v -0.456121 -0.341434 0.246638
v -0.444488 -0.332638 0.270023
v -0.432212 -0.327919 0.292359
v -0.433498 -0.274278 0.317776
v -0.455258 -0.210312 0.315236
v -0.432451 -0.235304 0.339374
v -0.442577 -0.207321 0.337096
v -0.443845 -0.199521 0.338866
v -0.456268 -0.180932 0.328362
v -0.422306 -0.262601 0.341898
v -0.463767 -0.169012 0.320136
v -0.446105 -0.180932 0.341111
v -0.447465 -0.169256 0.342455
v -0.444709 -0.192586 0.339735
v -0.436237 -0.140031 0.360399
v -0.440353 -0.180932 0.346945
v -0.434307 -0.149359 0.360399
v -0.435042 -0.145903 0.360399
v -0.418925 -0.32413 0.313531
v -0.420726 -0.316353 0.315859
v -0.426257 -0.355459 0.285509
v -0.425871 -0.355459 0.286001
v -0.41003 -0.355459 0.306141
v -0.409258 -0.281678 0.351058
v -0.395658 -0.294662 0.360399
v -0.463767 -0.355459 0.226613
v -0.457481 -0.355459 0.237216
v -0.443073 -0.355459 0.2606
v -0.433223 -0.344315 0.282281
v -0.422214 -0.285954 0.330066
v -0.418575 -0.262601 0.347732
v -0.419641 -0.255267 0.349534
v -0.420836 -0.247468 0.350845
v -0.421865 -0.23927 0.351878
v -0.420983 -0.270954 0.339751
v -0.438993 -0.192586 0.345585
v -0.432285 -0.20023 0.350567
v -0.42872 -0.180932 0.358662
v -0.43337 -0.153414 0.360399
v -0.432157 -0.350873 0.280544
v -0.419402 -0.301708 0.325871
v -0.434252 -0.355459 0.274612
v -0.397772 -0.289987 0.360399
v -0.410783 -0.274278 0.352796
v -0.416903 -0.27461 0.343914
v -0.420928 -0.293931 0.327969
v -0.441033 -0.355459 0.263861
v -0.41275 -0.262601 0.354844
v -0.40753 -0.262601 0.360399
v -0.409644 -0.255068 0.360399
v -0.413466 -0.23927 0.360399
v -0.423262 -0.227616 0.353238
v -0.425449 -0.187601 0.360399
v -0.434527 -0.355459 0.274218
v -0.434472 -0.355459 0.2743
v -0.403524 -0.274278 0.360399
v -0.40538 -0.274278 0.358629
v -0.406997 -0.264219 0.360399
f 1 2 10
f 1 10 25
f 1 25 38
f 1 38 62
f 1 62 68
f 1 68 41
f 1 41 26
f 1 26 11
f 1 11 3
f 1 3 13
f 1 13 28
f 1 28 47
f 1 47 80
f 1 80 82
f 1 82 48
f 1 48 31
f 1 31 30
f 1 30 29
f 1 29 14
f 1 14 4
f 1 4 5
f 1 5 6
f 1 6 7
f 1 7 8
f 1 8 2
f 2 8 9
f 2 9 10
f 3 11 12
f 3 12 13
f 4 14 5
f 5 15 6
f 5 14 16
f 5 16 17
f 5 17 18
f 5 18 19
f 5 19 20
f 5 20 15
f 6 15 7
f 7 21 9
f 7 9 8
f 7 15 22
f 7 22 23
f 7 23 21
f 9 21 10
f 10 24 25
f 10 21 24
f 11 26 43
f 11 43 69
f 11 69 101
f 11 101 104
f 11 104 103
f 11 103 125
f 11 125 139
f 11 139 137
f 11 137 136
f 11 136 135
f 11 135 144
f 11 144 142
f 11 142 129
f 11 129 111
f 11 111 74
f 11 74 44
f 11 44 27
f 11 27 12
f 12 27 45
f 12 45 73
f 12 73 72
f 12 72 109
f 12 109 108
f 12 108 107
f 12 107 128
f 12 128 141
f 12 141 140
f 12 140 133
f 12 133 114
f 12 114 113
f 12 113 112
f 12 112 81
f 12 81 46
f 12 46 28
f 12 28 13
f 14 29 16
f 15 20 22
f 16 29 17
f 17 29 30
f 17 30 31
f 17 31 32
f 17 32 18
f 18 32 33
f 18 33 19
f 19 33 34
f 19 34 20
f 20 34 35
f 20 35 22
f 21 36 24
f 21 23 36
f 22 35 23
f 23 35 36
f 24 36 37
f 24 37 25
f 25 37 39
f 25 39 40
f 25 40 38
f 26 41 42
f 26 42 43
f 27 44 45
f 28 46 47
f 31 48 32
f 32 48 49
f 32 49 50
f 32 50 33
f 33 51 52
f 33 52 53
f 33 53 34
f 33 50 54
f 33 54 55
f 33 55 51
f 34 56 57
f 34 57 58
f 34 58 59
f 34 59 35
f 34 53 56
f 35 59 36
f 36 60 37
f 36 59 60
f 37 60 61
f 37 61 39
f 38 40 63
f 38 63 64
f 38 64 62
f 39 61 40
f 40 61 65
f 40 65 66
f 40 66 67
f 40 67 63
f 41 68 64
f 41 64 63
f 41 63 42
f 42 69 43
f 42 63 67
f 42 67 70
f 42 70 69
f 44 71 72
f 44 72 73
f 44 73 45
f 44 74 75
f 44 75 76
f 44 76 77
f 44 77 71
f 46 78 79
f 46 79 80
f 46 80 47
f 46 81 50
f 46 50 78
f 48 82 49
f 49 82 83
f 49 83 50
f 50 83 78
f 50 81 84
f 50 84 85
f 50 85 54
f 51 55 54
f 51 54 86
f 51 86 87
f 51 87 88
f 51 88 89
f 51 89 90
f 51 90 56
f 51 56 52
f 52 56 53
f 54 85 86
f 56 91 57
f 56 90 91
f 57 92 93
f 57 93 94
f 57 94 95
f 57 95 58
f 57 91 96
f 57 96 92
f 58 95 65
f 58 65 59
f 59 65 97
f 59 97 61
f 59 61 60
f 61 97 65
f 62 64 68
f 65 95 94
f 65 94 66
f 66 98 99
f 66 99 70
f 66 70 67
f 66 94 100
f 66 100 98
f 69 70 101
f 70 99 98
f 70 98 102
f 70 102 103
f 70 103 104
f 70 104 101
f 71 105 106
f 71 106 107
f 71 107 108
f 71 108 109
f 71 109 72
f 71 77 110
f 71 110 105
f 74 111 75
f 75 111 110
f 75 110 76
f 76 110 77
f 78 80 79
f 78 83 82
f 78 82 80
f 81 112 84
f 84 112 113
f 84 113 85
f 85 113 114
f 85 114 87
f 85 87 86
f 87 114 89
f 87 89 88
f 89 114 115
f 89 115 116
f 89 116 96
f 89 96 90
f 90 96 91
f 92 94 93
f 92 96 117
f 92 117 94
f 94 117 118
f 94 118 119
f 94 119 120
f 94 120 100
f 96 116 121
f 96 121 117
f 98 100 120
f 98 120 122
f 98 122 102
f 102 122 123
f 102 123 124
f 102 124 125
f 102 125 103
f 105 110 106
f 106 126 107
f 106 110 127
f 106 127 126
f 107 126 128
f 110 111 129
f 110 129 130
f 110 130 131
f 110 131 132
f 110 132 127
f 114 133 126
f 114 126 115
f 115 126 132
f 115 132 116
f 116 132 121
f 117 121 132
f 117 132 131
f 117 131 130
f 117 130 118
f 118 130 134
f 118 134 119
f 119 134 135
f 119 135 136
f 119 136 120
f 120 137 138
f 120 138 122
f 120 136 137
f 122 138 137
f 122 137 123
f 123 139 124
f 123 137 139
f 124 139 125
f 126 133 140
f 126 140 141
f 126 141 128
f 126 127 132
f 129 142 143
f 129 143 130
f 130 143 134
f 134 143 135
f 135 143 144
f 142 144 143
