v 0.00168129 -0.35546 -0.509945
v 0.00168129 -0.35546 -0.497346
v 0.00168129 -0.343057 -0.515124
v 0.0642117 -0.35546 -0.507589
v 0.220431 -0.35546 -0.451171
v 0.220431 -0.132798 -0.509638
v 0.00168129 -0.132798 -0.556097
v 0.00585712 -0.342796 -0.515033
v 0.0758398 -0.35546 -0.507088
v 0.0753258 -0.35546 -0.507111
v 0.00168129 -0.308922 -0.526767
v 0.00585712 -0.30829 -0.526881
v 0.220431 -0.35546 -0.465398
v 0.220431 -0.132798 -0.523011
v 0.00168129 -0.132798 -0.567422
v 0.0705504 -0.338545 -0.513576
v 0.017528 -0.307527 -0.526619
v 0.0870395 -0.35546 -0.505734
v 0.0875535 -0.331287 -0.515192
v 0.00168129 -0.297609 -0.53017
v 0.00585712 -0.297609 -0.530261
v 0.0291989 -0.272172 -0.538103
v 0.0408699 -0.262602 -0.540937
v 0.0408699 -0.271474 -0.537932
v 0.213963 -0.35546 -0.468585
v 0.220431 -0.343624 -0.468858
v 0.213385 -0.132798 -0.526585
v 0.220431 -0.134236 -0.522886
v 0.00440094 -0.132798 -0.567422
v 0.00585712 -0.145898 -0.566887
v 0.00168129 -0.141735 -0.567035
v 0.0750046 -0.333532 -0.51509
v 0.0525408 -0.297609 -0.52844
v 0.0765678 -0.298721 -0.526972
v 0.0525408 -0.270711 -0.537671
v 0.0875535 -0.35546 -0.505666
v 0.0992244 -0.329259 -0.514543
v 0.0992244 -0.320955 -0.517673
v 0.00168129 -0.270515 -0.53742
v 0.00585712 -0.27106 -0.537557
v 0.017528 -0.27215 -0.537932
v 0.0291989 -0.262602 -0.541005
v 0.0525408 -0.262602 -0.540402
v 0.0408699 -0.234091 -0.548711
v 0.0469944 -0.233764 -0.54862
v 0.189037 -0.35546 -0.479534
v 0.211993 -0.318252 -0.479386
v 0.220431 -0.259812 -0.491279
v 0.220431 -0.305282 -0.479135
v 0.2121 -0.132798 -0.527052
v 0.213214 -0.134236 -0.526494
v 0.220431 -0.136111 -0.522636
v 0.00585712 -0.132798 -0.567399
v 0.00168129 -0.145898 -0.566773
v 0.0160718 -0.132798 -0.567001
v 0.017528 -0.134236 -0.566853
v 0.017528 -0.145898 -0.566158
v 0.00585712 -0.157581 -0.565635
v 0.0642117 -0.269403 -0.537227
v 0.0875535 -0.29665 -0.526608
v 0.10006 -0.35546 -0.503321
v 0.106698 -0.327559 -0.513872
v 0.110703 -0.321173 -0.515238
v 0.0957124 -0.294492 -0.525765
v 0.017528 -0.262602 -0.540459
v 0.00168129 -0.224064 -0.549143
v 0.017528 -0.226135 -0.549667
v 0.0329679 -0.233982 -0.548699
v 0.0700792 -0.268488 -0.536908
v 0.0291989 -0.215934 -0.552808
v 0.017528 -0.178616 -0.560957
v 0.017528 -0.169243 -0.56279
v 0.017528 -0.157581 -0.564759
v 0.0515557 -0.226462 -0.548984
v 0.0583869 -0.221797 -0.548574
v 0.0642117 -0.250941 -0.541631
v 0.18848 -0.35546 -0.479761
v 0.164731 -0.35182 -0.490744
v 0.175053 -0.338458 -0.490198
v 0.17743 -0.330676 -0.491245
v 0.210815 -0.234658 -0.502217
v 0.220431 -0.214277 -0.503435
v 0.203042 -0.132798 -0.530295
v 0.220431 -0.145963 -0.520906
v 0.211544 -0.142171 -0.52572
v 0.204241 -0.134236 -0.529647
v 0.00168129 -0.153396 -0.565965
v 0.0291989 -0.132798 -0.566124
v 0.0291989 -0.134236 -0.566033
v 0.00168129 -0.157581 -0.565419
v 0.00585712 -0.169243 -0.563176
v 0.110895 -0.351973 -0.502661
v 0.117384 -0.350447 -0.502024
v 0.145244 -0.35546 -0.494296
v 0.140383 -0.338741 -0.502001
v 0.134216 -0.340485 -0.502741
v 0.145844 -0.35546 -0.49417
v 0.121774 -0.344583 -0.503651
v 0.110895 -0.309293 -0.518367
v 0.118583 -0.317402 -0.514168
v 0.106805 -0.282155 -0.525629
v 0.0726062 -0.262602 -0.537488
v 0.088046 -0.239671 -0.538444
v 0.00168129 -0.174954 -0.561526
v 0.00585712 -0.178115 -0.561003
v 0.0953912 -0.177461 -0.549007
v 0.106548 -0.165167 -0.548915
v 0.0408699 -0.132798 -0.564656
v 0.0408699 -0.134236 -0.564474
v 0.0292204 -0.1692 -0.561139
v 0.048108 -0.153266 -0.560468
v 0.0875535 -0.169243 -0.551704
v 0.110895 -0.134236 -0.553149
v 0.110895 -0.145898 -0.551317
v 0.122545 -0.132798 -0.551317
v 0.168479 -0.35546 -0.48774
v 0.167323 -0.3443 -0.491712
v 0.157343 -0.35546 -0.491518
v 0.142674 -0.332638 -0.502752
v 0.175117 -0.291855 -0.501898
v 0.188159 -0.270776 -0.50249
v 0.211415 -0.18897 -0.514134
v 0.204434 -0.238843 -0.503902
v 0.216619 -0.216326 -0.504562
v 0.220431 -0.168633 -0.515511
v 0.181135 -0.132798 -0.537727
v 0.220431 -0.150366 -0.519858
v 0.204627 -0.146007 -0.527097
v 0.213856 -0.180927 -0.515169
v 0.198631 -0.210462 -0.513633
v 0.00168129 -0.16508 -0.563837
v 0.00168129 -0.169243 -0.562926
v 0.122502 -0.308813 -0.51501
v 0.15623 -0.35546 -0.491814
v 0.117684 -0.269817 -0.525492
v 0.128691 -0.257197 -0.525322
v 0.110767 -0.273937 -0.526335
v 0.169228 -0.134236 -0.540448
v 0.0992244 -0.215934 -0.54055
v 0.122545 -0.134236 -0.551078
v 0.131903 -0.132798 -0.549405
v 0.131368 -0.134236 -0.549257
v 0.128712 -0.14047 -0.548642
v 0.0525408 -0.132798 -0.562801
v 0.0650254 -0.132798 -0.560786
v 0.110895 -0.132798 -0.553331
v 0.129226 -0.304606 -0.513826
v 0.180835 -0.180404 -0.526653
v 0.181156 -0.22753 -0.515294
v 0.192185 -0.214996 -0.51468
v 0.18045 -0.132798 -0.537921
v 0.17621 -0.141669 -0.537238
v 0.193577 -0.158541 -0.527712
v 0.16531 -0.154159 -0.537375
v 0.169785 -0.192937 -0.527256
v 0.169228 -0.132798 -0.540687
v 0.169207 -0.145702 -0.538137
f 1 2 7
f 1 7 15
f 1 15 31
f 1 31 54
f 1 54 87
f 1 87 90
f 1 90 131
f 1 131 132
f 1 132 104
f 1 104 66
f 1 66 39
f 1 39 20
f 1 20 11
f 1 11 3
f 1 3 4
f 1 4 10
f 1 10 9
f 1 9 18
f 1 18 36
f 1 36 61
f 1 61 94
f 1 94 97
f 1 97 134
f 1 134 118
f 1 118 116
f 1 116 77
f 1 77 46
f 1 46 25
f 1 25 13
f 1 13 5
f 1 5 2
f 2 5 6
f 2 6 7
f 3 8 9
f 3 9 10
f 3 10 4
f 3 11 12
f 3 12 8
f 5 13 26
f 5 26 49
f 5 49 48
f 5 48 82
f 5 82 125
f 5 125 127
f 5 127 84
f 5 84 52
f 5 52 28
f 5 28 14
f 5 14 6
f 6 14 27
f 6 27 50
f 6 50 83
f 6 83 126
f 6 126 151
f 6 151 156
f 6 156 141
f 6 141 115
f 6 115 146
f 6 146 145
f 6 145 144
f 6 144 108
f 6 108 88
f 6 88 55
f 6 55 53
f 6 53 29
f 6 29 15
f 6 15 7
f 8 16 9
f 8 12 17
f 8 17 16
f 9 16 19
f 9 19 18
f 11 20 21
f 11 21 22
f 11 22 12
f 12 22 23
f 12 23 24
f 12 24 35
f 12 35 17
f 13 25 26
f 14 28 27
f 15 29 30
f 15 30 31
f 16 32 19
f 16 17 33
f 16 33 34
f 16 34 32
f 17 35 33
f 18 19 37
f 18 37 36
f 19 38 37
f 19 32 34
f 19 34 38
f 20 39 40
f 20 40 41
f 20 41 42
f 20 42 21
f 21 42 22
f 22 42 23
f 23 43 35
f 23 35 24
f 23 42 44
f 23 44 45
f 23 45 43
f 25 46 47
f 25 47 48
f 25 48 49
f 25 49 26
f 27 28 51
f 27 51 50
f 28 52 51
f 29 53 30
f 30 54 31
f 30 53 55
f 30 55 56
f 30 56 57
f 30 57 58
f 30 58 54
f 33 35 34
f 34 35 43
f 34 43 59
f 34 59 60
f 34 60 38
f 36 37 62
f 36 62 61
f 37 38 62
f 38 63 62
f 38 60 64
f 38 64 63
f 39 65 40
f 39 66 67
f 39 67 65
f 40 65 41
f 41 65 42
f 42 65 68
f 42 68 44
f 43 69 59
f 43 45 69
f 44 68 70
f 44 70 71
f 44 71 45
f 45 71 72
f 45 72 73
f 45 73 74
f 45 74 75
f 45 75 76
f 45 76 69
f 46 77 78
f 46 78 79
f 46 79 80
f 46 80 81
f 46 81 47
f 47 81 82
f 47 82 48
f 50 51 83
f 51 52 84
f 51 84 85
f 51 85 86
f 51 86 83
f 54 58 87
f 55 88 56
f 56 88 57
f 57 73 58
f 57 88 89
f 57 89 73
f 58 90 87
f 58 73 72
f 58 72 71
f 58 71 91
f 58 91 90
f 59 69 60
f 60 69 64
f 61 92 93
f 61 93 94
f 61 62 92
f 62 95 96
f 62 96 97
f 62 97 94
f 62 94 98
f 62 98 92
f 62 63 95
f 63 64 99
f 63 99 100
f 63 100 95
f 64 101 99
f 64 69 102
f 64 102 103
f 64 103 101
f 65 67 68
f 66 104 67
f 67 104 68
f 68 104 105
f 68 105 91
f 68 91 70
f 69 76 106
f 69 106 107
f 69 107 102
f 70 91 71
f 73 89 108
f 73 108 109
f 73 109 110
f 73 110 74
f 74 110 111
f 74 111 112
f 74 112 75
f 75 112 113
f 75 113 114
f 75 114 115
f 75 115 106
f 75 106 76
f 77 116 78
f 78 117 79
f 78 116 118
f 78 118 95
f 78 95 119
f 78 119 120
f 78 120 117
f 79 117 121
f 79 121 80
f 80 121 122
f 80 122 123
f 80 123 81
f 81 123 124
f 81 124 82
f 82 124 122
f 82 122 125
f 83 86 126
f 84 127 85
f 85 128 126
f 85 126 86
f 85 127 125
f 85 125 129
f 85 129 122
f 85 122 130
f 85 130 128
f 88 108 89
f 90 91 131
f 91 105 132
f 91 132 131
f 92 98 93
f 93 98 94
f 95 100 133
f 95 133 119
f 95 118 134
f 95 134 96
f 96 134 97
f 99 101 135
f 99 135 136
f 99 136 100
f 100 136 133
f 101 137 135
f 101 103 138
f 101 138 137
f 102 107 103
f 103 107 139
f 103 139 138
f 104 132 105
f 106 115 140
f 106 140 107
f 107 140 141
f 107 141 142
f 107 142 143
f 107 143 138
f 107 138 139
f 108 144 109
f 109 144 145
f 109 145 111
f 109 111 110
f 111 145 112
f 112 145 113
f 113 145 146
f 113 146 115
f 113 115 114
f 115 141 140
f 117 120 121
f 119 133 147
f 119 147 136
f 119 136 148
f 119 148 149
f 119 149 120
f 120 149 128
f 120 128 150
f 120 150 130
f 120 130 121
f 121 130 122
f 122 129 125
f 122 124 123
f 126 128 152
f 126 152 151
f 128 148 153
f 128 153 152
f 128 130 150
f 128 149 148
f 133 136 147
f 135 137 154
f 135 154 152
f 135 152 136
f 136 152 155
f 136 155 148
f 137 138 154
f 138 143 142
f 138 142 141
f 138 141 156
f 138 156 151
f 138 151 152
f 138 152 157
f 138 157 154
f 148 155 153
f 152 154 157
f 152 153 155
