v 0.520692 0.369729 -0.198494
v 0.520438 0.369729 -0.199578
v 0.50801 0.369729 -0.198494
v 0.525347 0.350726 -0.198494
v 0.519295 0.369729 -0.204258
v 0.409198 0.369729 -0.358907
v 0.540172 0.112258 -0.198494
v 0.525445 0.350272 -0.198494
v 0.525981 0.344299 -0.20129
v 0.518801 0.369729 -0.205891
v 0.427282 0.369729 -0.358907
v 0.442164 0.112258 -0.358907
v 0.55329 0.112258 -0.198494
v 0.526729 0.344299 -0.198494
v 0.527265 0.333488 -0.205184
v 0.515628 0.369729 -0.216129
v 0.427451 0.369729 -0.358703
v 0.444562 0.330287 -0.351275
v 0.429511 0.36121 -0.358907
v 0.459655 0.112258 -0.358907
v 0.551104 0.112258 -0.205121
v 0.551217 0.122566 -0.203582
v 0.553093 0.117148 -0.198494
v 0.537873 0.292382 -0.198494
v 0.525939 0.330186 -0.211497
v 0.524853 0.337948 -0.209691
v 0.537294 0.293617 -0.199625
v 0.515797 0.367788 -0.216679
v 0.515176 0.369729 -0.217103
v 0.432036 0.369729 -0.3525
v 0.44332 0.338074 -0.349972
v 0.431782 0.352213 -0.358907
v 0.430879 0.355968 -0.358907
v 0.452235 0.344299 -0.334064
v 0.4561 0.344299 -0.328222
v 0.457455 0.332631 -0.330578
v 0.451742 0.320836 -0.34347
v 0.452419 0.309293 -0.345983
v 0.445592 0.320962 -0.35239
v 0.439738 0.320962 -0.358216
v 0.4595 0.115585 -0.358907
v 0.461235 0.112258 -0.357195
v 0.550032 0.157573 -0.201447
v 0.539636 0.112258 -0.226981
v 0.539749 0.204273 -0.215517
v 0.53862 0.23928 -0.213381
v 0.538239 0.250924 -0.212659
v 0.553065 0.117778 -0.198494
v 0.551231 0.153692 -0.198494
v 0.55164 0.145904 -0.198494
v 0.552247 0.134235 -0.198494
v 0.5391 0.285955 -0.198494
v 0.526842 0.320962 -0.213114
v 0.513935 0.363983 -0.222442
v 0.538112 0.285955 -0.201714
v 0.5391 0.274412 -0.205011
v 0.53728 0.270632 -0.21079
v 0.514372 0.369729 -0.218815
v 0.432783 0.369729 -0.351463
v 0.433094 0.367637 -0.351903
v 0.446396 0.344299 -0.342732
v 0.438609 0.322802 -0.358907
v 0.444632 0.355968 -0.34011
v 0.456242 0.369729 -0.316664
v 0.467089 0.362521 -0.303772
v 0.467808 0.355968 -0.305044
v 0.479192 0.369729 -0.281221
v 0.479389 0.367637 -0.281567
v 0.455508 0.316879 -0.33901
v 0.453251 0.297624 -0.347506
v 0.456185 0.309293 -0.340157
v 0.46747 0.248378 -0.33923
v 0.446579 0.309293 -0.353348
v 0.441148 0.309293 -0.358907
v 0.440527 0.312746 -0.358907
v 0.439004 0.320962 -0.358907
v 0.458908 0.127834 -0.358907
v 0.470785 0.192605 -0.342701
v 0.471067 0.180936 -0.342999
v 0.467061 0.122566 -0.350349
v 0.466666 0.112258 -0.351306
v 0.549623 0.169242 -0.200677
v 0.515684 0.112258 -0.272506
v 0.526955 0.134235 -0.2484
v 0.510775 0.169242 -0.274861
v 0.515035 0.227611 -0.259613
v 0.526221 0.250924 -0.235288
v 0.53776 0.262592 -0.211717
v 0.548833 0.190261 -0.199028
v 0.5492 0.180936 -0.199798
v 0.49145 0.215942 -0.305829
v 0.503059 0.227611 -0.282336
v 0.514654 0.23928 -0.258843
v 0.550512 0.166091 -0.198494
v 0.541046 0.274337 -0.198494
v 0.513794 0.328145 -0.233859
v 0.504244 0.369729 -0.237565
v 0.509308 0.369729 -0.228394
v 0.513145 0.369729 -0.221422
v 0.540962 0.262592 -0.204258
v 0.525727 0.259669 -0.234346
v 0.478867 0.223553 -0.327358
v 0.440697 0.355968 -0.345936
v 0.469275 0.369729 -0.297066
v 0.475609 0.369729 -0.286953
v 0.491718 0.369729 -0.259409
v 0.478614 0.33883 -0.2919
v 0.468725 0.309293 -0.318345
v 0.464113 0.285955 -0.333656
v 0.468203 0.23928 -0.34011
v 0.47575 0.215942 -0.334111
v 0.447425 0.297624 -0.354149
v 0.442813 0.297624 -0.358907
v 0.441247 0.308638 -0.358907
v 0.469078 0.227611 -0.340989
v 0.458357 0.138973 -0.358907
v 0.459528 0.192605 -0.35484
v 0.465368 0.192605 -0.348543
v 0.470489 0.204273 -0.342355
v 0.478487 0.112258 -0.338445
v 0.491718 0.112258 -0.318015
v 0.491394 0.122566 -0.317387
v 0.487571 0.145904 -0.321784
v 0.514161 0.248681 -0.257885
v 0.548537 0.196007 -0.198494
v 0.54903 0.189479 -0.198494
v 0.549707 0.178794 -0.198494
v 0.479869 0.204273 -0.329211
v 0.479347 0.215942 -0.328269
v 0.54233 0.262592 -0.198494
v 0.46991 0.215942 -0.341774
v 0.476328 0.204273 -0.335053
v 0.456298 0.250924 -0.351275
v 0.463647 0.227611 -0.346815
v 0.45012 0.241523 -0.358907
v 0.455691 0.192605 -0.358907
v 0.46503 0.204273 -0.348197
v 0.476625 0.192605 -0.335634
v 0.476893 0.180936 -0.336137
v 0.477118 0.169242 -0.336608
v 0.482055 0.134235 -0.33196
v 0.482323 0.122566 -0.332305
v 0.480772 0.112258 -0.335163
v 0.491337 0.112258 -0.318706
v 0.487895 0.134235 -0.322506
v 0.480236 0.192605 -0.329792
v 0.464409 0.215942 -0.3476
v 0.480617 0.180936 -0.330311
v 0.480997 0.169242 -0.330782
v 0.453449 0.215942 -0.358907
v 0.452376 0.224184 -0.358907
v 0.454845 0.204273 -0.358907
v 0.45919 0.204273 -0.354353
v 0.481731 0.145904 -0.331614
v 0.487684 0.112258 -0.324924
v 0.481872 0.112258 -0.333577
v 0.488375 0.112258 -0.323841
v 0.488163 0.122566 -0.323213
f 1 2 5
f 1 5 10
f 1 10 16
f 1 16 29
f 1 29 58
f 1 58 99
f 1 99 98
f 1 98 97
f 1 97 106
f 1 106 67
f 1 67 105
f 1 105 104
f 1 104 64
f 1 64 59
f 1 59 30
f 1 30 17
f 1 17 11
f 1 11 6
f 1 6 3
f 1 3 7
f 1 7 13
f 1 13 23
f 1 23 48
f 1 48 51
f 1 51 50
f 1 50 49
f 1 49 94
f 1 94 127
f 1 127 126
f 1 126 125
f 1 125 130
f 1 130 95
f 1 95 52
f 1 52 24
f 1 24 14
f 1 14 8
f 1 8 4
f 1 4 2
f 2 4 5
f 3 6 7
f 4 8 9
f 4 9 5
f 5 9 10
f 6 11 19
f 6 19 33
f 6 33 32
f 6 32 62
f 6 62 76
f 6 76 75
f 6 75 74
f 6 74 114
f 6 114 113
f 6 113 135
f 6 135 151
f 6 151 150
f 6 150 152
f 6 152 136
f 6 136 116
f 6 116 77
f 6 77 41
f 6 41 20
f 6 20 12
f 6 12 7
f 7 12 20
f 7 20 42
f 7 42 81
f 7 81 120
f 7 120 143
f 7 143 156
f 7 156 155
f 7 155 157
f 7 157 144
f 7 144 121
f 7 121 83
f 7 83 44
f 7 44 21
f 7 21 13
f 8 14 15
f 8 15 9
f 9 15 10
f 10 15 16
f 11 17 18
f 11 18 19
f 13 21 22
f 13 22 23
f 14 24 15
f 15 25 26
f 15 26 16
f 15 24 27
f 15 27 25
f 16 28 29
f 16 26 25
f 16 25 28
f 17 30 31
f 17 31 18
f 18 32 33
f 18 33 19
f 18 31 34
f 18 34 35
f 18 35 36
f 18 36 37
f 18 37 38
f 18 38 39
f 18 39 40
f 18 40 32
f 20 41 42
f 21 43 22
f 21 44 45
f 21 45 46
f 21 46 47
f 21 47 43
f 22 48 23
f 22 43 49
f 22 49 50
f 22 50 51
f 22 51 48
f 24 52 27
f 25 53 54
f 25 54 28
f 25 27 55
f 25 55 56
f 25 56 57
f 25 57 53
f 27 52 55
f 28 54 29
f 29 54 58
f 30 59 60
f 30 60 31
f 31 61 34
f 31 60 59
f 31 59 61
f 32 40 62
f 34 61 63
f 34 63 64
f 34 64 65
f 34 65 35
f 35 65 36
f 36 65 66
f 36 66 67
f 36 67 68
f 36 68 69
f 36 69 37
f 37 69 38
f 38 70 39
f 38 69 71
f 38 71 72
f 38 72 70
f 39 70 73
f 39 73 74
f 39 74 75
f 39 75 40
f 40 76 62
f 40 75 76
f 41 77 78
f 41 78 79
f 41 79 80
f 41 80 81
f 41 81 42
f 43 82 49
f 43 47 82
f 44 83 84
f 44 84 45
f 45 84 46
f 46 84 83
f 46 83 85
f 46 85 86
f 46 86 47
f 47 87 88
f 47 88 89
f 47 89 90
f 47 90 82
f 47 86 91
f 47 91 92
f 47 92 93
f 47 93 87
f 49 82 94
f 52 95 56
f 52 56 55
f 53 57 54
f 54 96 97
f 54 97 98
f 54 98 99
f 54 99 58
f 54 57 96
f 56 95 100
f 56 100 57
f 57 100 88
f 57 88 101
f 57 101 102
f 57 102 96
f 59 64 63
f 59 63 103
f 59 103 61
f 61 103 63
f 64 104 65
f 65 104 105
f 65 105 67
f 65 67 66
f 67 106 68
f 68 106 97
f 68 97 107
f 68 107 108
f 68 108 69
f 69 108 109
f 69 109 102
f 69 102 71
f 70 72 110
f 70 110 73
f 71 102 72
f 72 102 111
f 72 111 110
f 73 112 113
f 73 113 114
f 73 114 74
f 73 110 115
f 73 115 112
f 77 116 117
f 77 117 118
f 77 118 78
f 78 118 119
f 78 119 120
f 78 120 79
f 79 120 81
f 79 81 80
f 82 90 94
f 83 121 122
f 83 122 85
f 85 122 123
f 85 123 91
f 85 91 86
f 87 93 124
f 87 124 88
f 88 100 89
f 88 124 101
f 89 125 126
f 89 126 127
f 89 127 94
f 89 94 90
f 89 100 125
f 91 128 129
f 91 129 92
f 91 123 128
f 92 129 93
f 93 129 124
f 95 130 100
f 96 107 97
f 96 102 107
f 100 130 125
f 101 124 102
f 102 124 129
f 102 129 111
f 102 109 108
f 102 108 107
f 110 111 115
f 111 131 115
f 111 129 132
f 111 132 131
f 112 133 113
f 112 115 134
f 112 134 133
f 113 133 135
f 115 131 134
f 116 136 117
f 117 136 137
f 117 137 119
f 117 119 118
f 119 132 138
f 119 138 139
f 119 139 140
f 119 140 120
f 119 137 131
f 119 131 132
f 120 140 141
f 120 141 142
f 120 142 143
f 121 144 145
f 121 145 123
f 121 123 122
f 123 145 128
f 128 146 132
f 128 132 129
f 128 145 146
f 131 147 134
f 131 137 147
f 132 146 148
f 132 148 149
f 132 149 138
f 133 134 147
f 133 147 150
f 133 150 151
f 133 151 135
f 136 152 153
f 136 153 137
f 137 153 147
f 138 149 154
f 138 154 139
f 139 154 141
f 139 141 140
f 141 155 142
f 141 154 155
f 142 155 156
f 142 156 143
f 144 157 158
f 144 158 145
f 145 158 148
f 145 148 146
f 147 153 152
f 147 152 150
f 148 158 157
f 148 157 149
f 149 157 154
f 154 157 155
