v -0.288654 -0.423472 -0.276146
v -0.288654 -0.454055 -0.276146
v -0.288654 -0.423698 -0.28326
v -0.288661 -0.423258 -0.271573
v -0.288661 -0.423258 -0.205536
v -0.288654 -0.454055 -0.303083
v -0.288661 -0.454055 -0.205536
v -0.288654 -0.427223 -0.295616
v -0.29577 -0.423876 -0.276146
v -0.32098 -0.423457 -0.23928
v -0.309309 -0.42327 -0.250948
v -0.297638 -0.423258 -0.262607
v -0.343035 -0.423258 -0.205536
v -0.295077 -0.454055 -0.295606
v -0.288654 -0.437692 -0.303083
v -0.364695 -0.454055 -0.205536
v -0.288654 -0.427838 -0.296905
v -0.293983 -0.429484 -0.294327
v -0.297779 -0.427524 -0.285915
v -0.29766 -0.4245 -0.276146
v -0.297638 -0.423924 -0.274275
v -0.332637 -0.423827 -0.227602
v -0.344308 -0.423399 -0.205536
v -0.300905 -0.454055 -0.28877
v -0.295077 -0.437692 -0.295606
v -0.304977 -0.429873 -0.28199
v -0.359619 -0.454055 -0.21222
v -0.364695 -0.437695 -0.205536
v -0.309049 -0.428383 -0.273568
v -0.333031 -0.427313 -0.239423
v -0.309309 -0.424714 -0.262607
v -0.344308 -0.424539 -0.215934
v -0.356716 -0.42677 -0.205536
v -0.300905 -0.437692 -0.28877
v -0.305736 -0.454055 -0.282926
v -0.305736 -0.437692 -0.282926
v -0.315725 -0.430916 -0.269205
v -0.340139 -0.429749 -0.235642
v -0.361517 -0.437695 -0.209718
v -0.316015 -0.437695 -0.269587
v -0.316015 -0.454055 -0.269587
v -0.363184 -0.43306 -0.205536
v -0.35088 -0.430699 -0.222742
v -0.344144 -0.428178 -0.22702
v -0.356939 -0.426876 -0.205536
v -0.311579 -0.454055 -0.275421
v -0.311579 -0.437695 -0.275421
v -0.353463 -0.428839 -0.215934
f 1 2 6
f 1 6 15
f 1 15 17
f 1 17 8
f 1 8 3
f 1 3 4
f 1 4 5
f 1 5 7
f 1 7 2
f 2 7 16
f 2 16 27
f 2 27 41
f 2 41 46
f 2 46 35
f 2 35 24
f 2 24 14
f 2 14 6
f 3 8 9
f 3 9 10
f 3 10 11
f 3 11 12
f 3 12 4
f 4 12 13
f 4 13 5
f 5 13 23
f 5 23 33
f 5 33 45
f 5 45 42
f 5 42 28
f 5 28 16
f 5 16 7
f 6 14 25
f 6 25 15
f 8 17 18
f 8 18 19
f 8 19 20
f 8 20 21
f 8 21 9
f 9 21 10
f 10 22 13
f 10 13 11
f 10 21 22
f 11 13 12
f 13 22 23
f 14 24 34
f 14 34 25
f 15 25 26
f 15 26 18
f 15 18 17
f 16 28 27
f 18 26 19
f 19 26 29
f 19 29 30
f 19 30 31
f 19 31 20
f 20 31 21
f 21 31 32
f 21 32 22
f 22 32 23
f 23 32 33
f 24 35 36
f 24 36 34
f 25 34 26
f 26 34 36
f 26 36 37
f 26 37 38
f 26 38 29
f 27 28 39
f 27 39 40
f 27 40 41
f 28 42 43
f 28 43 37
f 28 37 39
f 29 38 44
f 29 44 30
f 30 44 32
f 30 32 31
f 32 44 33
f 33 44 45
f 35 46 47
f 35 47 36
f 36 47 37
f 37 47 40
f 37 40 39
f 37 43 38
f 38 43 48
f 38 48 44
f 40 47 46
f 40 46 41
f 42 45 48
f 42 48 43
f 44 48 45
