v 0.00165988 -0.423269 -0.00137569
v -0.177127 -0.423269 -0.00137569
v 0.00165988 -0.575225 -0.00137569
v 0.00165988 -0.423269 -0.390995
v -0.177127 -0.575225 -0.00137569
v -0.177127 -0.423269 -0.344276
v 0.00165988 -0.575225 -0.390995
v 0.00165988 -0.426914 -0.402655
v -0.00584865 -0.426691 -0.402655
v -0.0175227 -0.426349 -0.402655
v -0.0291793 -0.426036 -0.402655
v -0.0408534 -0.425739 -0.402655
v -0.0642016 -0.423269 -0.390995
v -0.177127 -0.575225 -0.344276
v -0.157559 -0.423269 -0.355976
v -0.177127 -0.423284 -0.348042
v -0.0758757 -0.575225 -0.390995
v -0.0408534 -0.574095 -0.402655
v -0.0291793 -0.573931 -0.402655
v 0.00165988 -0.573455 -0.402775
v 0.00165988 -0.431213 -0.408785
v -0.00584865 -0.43099 -0.408905
v -0.0175227 -0.430648 -0.409066
v -0.0291793 -0.430335 -0.409266
v -0.0408534 -0.430038 -0.409426
v -0.0525275 -0.426021 -0.402655
v -0.0875498 -0.423478 -0.390995
v -0.0758757 -0.423284 -0.390995
v -0.110881 -0.423269 -0.379295
v -0.177127 -0.574868 -0.355976
v -0.169234 -0.575225 -0.355976
v -0.122537 -0.423284 -0.379295
v -0.169234 -0.423344 -0.355976
v -0.177127 -0.424117 -0.355976
v -0.122537 -0.575225 -0.379295
v -0.0875498 -0.57521 -0.390995
v -0.0992064 -0.575062 -0.390995
v -0.0525275 -0.573931 -0.402655
v -0.0408534 -0.572429 -0.409026
v 0.00165988 -0.572577 -0.40574
v -0.0291793 -0.572265 -0.408865
v -0.00929662 -0.571982 -0.408545
v 0.00165988 -0.437699 -0.409066
v -0.00584865 -0.437699 -0.409306
v -0.0175227 -0.437699 -0.409667
v -0.0408534 -0.437699 -0.410348
v -0.0525275 -0.43032 -0.409266
v -0.0875498 -0.427777 -0.400531
v -0.0992064 -0.423998 -0.390995
v -0.177127 -0.573202 -0.364951
v -0.157559 -0.574779 -0.367635
v -0.134211 -0.574853 -0.379295
v -0.134211 -0.424192 -0.379295
v -0.157559 -0.42434 -0.367635
v -0.177127 -0.425486 -0.359862
v -0.110881 -0.574526 -0.390995
v -0.0992064 -0.57341 -0.398688
v -0.0525275 -0.57228 -0.408865
v -0.0408534 -0.569989 -0.410708
v -0.0291793 -0.569617 -0.410708
v -0.00150806 -0.571834 -0.408344
v 0.00165988 -0.571774 -0.408224
v -0.0227735 -0.569379 -0.410708
v -0.0134447 -0.569007 -0.410708
v -0.00675878 -0.56871 -0.410708
v -0.00437845 -0.568576 -0.410708
v 0.00165988 -0.512063 -0.410708
v -0.0525275 -0.437699 -0.410027
v -0.0408534 -0.499344 -0.410708
v -0.0525275 -0.4986 -0.410708
v -0.177127 -0.493483 -0.410708
v -0.0603161 -0.431124 -0.408865
v -0.0992064 -0.428297 -0.399449
v -0.110881 -0.42498 -0.390995
v -0.168796 -0.573544 -0.367676
v -0.177127 -0.5681 -0.370841
v -0.164613 -0.572429 -0.374086
v -0.157559 -0.573128 -0.375529
v -0.134211 -0.573202 -0.387389
v -0.122502 -0.427673 -0.391676
v -0.134211 -0.428491 -0.38823
v -0.177127 -0.428401 -0.365672
v -0.157559 -0.428639 -0.37637
v -0.122065 -0.57347 -0.391155
v -0.110881 -0.572875 -0.397887
v -0.0588284 -0.571997 -0.408585
v -0.0525275 -0.569216 -0.410708
v 0.00165988 -0.568219 -0.410708
v -0.165173 -0.43035 -0.374407
v -0.142087 -0.430187 -0.386187
v -0.118564 -0.430573 -0.397486
v -0.177127 -0.517165 -0.410708
v -0.110881 -0.429279 -0.398367
v -0.177127 -0.562789 -0.375329
v -0.168796 -0.566166 -0.377011
v -0.145605 -0.56627 -0.388952
v -0.141527 -0.572518 -0.385906
v -0.117864 -0.57231 -0.397206
v -0.0634665 -0.566374 -0.410708
v -0.063064 -0.566508 -0.410708
v -0.110881 -0.566077 -0.402054
v -0.166906 -0.523949 -0.410708
v -0.165418 -0.526567 -0.409546
v -0.177127 -0.519679 -0.408825
v -0.177127 -0.55849 -0.378694
v -0.139865 -0.560112 -0.396725
v -0.132076 -0.5627 -0.398448
v -0.125635 -0.57048 -0.395162
v -0.123202 -0.553879 -0.406181
v -0.151801 -0.536935 -0.408545
v -0.145885 -0.538586 -0.409386
v -0.134211 -0.54708 -0.407583
v -0.127543 -0.54827 -0.408344
v -0.0854145 -0.56154 -0.409186
v -0.0758757 -0.562001 -0.410708
v -0.110881 -0.557047 -0.406822
v -0.0992064 -0.559115 -0.407904
v -0.156982 -0.530226 -0.410708
v -0.169234 -0.552004 -0.38783
v -0.177127 -0.525005 -0.404698
v -0.156457 -0.530553 -0.410708
v -0.145885 -0.536057 -0.410708
v -0.134789 -0.541115 -0.410708
v -0.134211 -0.541368 -0.410708
v -0.134036 -0.541442 -0.410708
v -0.119772 -0.549639 -0.409066
v -0.124322 -0.544879 -0.410708
f 1 2 5
f 1 5 3
f 1 3 7
f 1 7 20
f 1 20 40
f 1 40 62
f 1 62 88
f 1 88 67
f 1 67 43
f 1 43 21
f 1 21 8
f 1 8 4
f 1 4 13
f 1 13 29
f 1 29 15
f 1 15 6
f 1 6 2
f 2 6 16
f 2 16 34
f 2 34 55
f 2 55 82
f 2 82 71
f 2 71 92
f 2 92 104
f 2 104 120
f 2 120 105
f 2 105 94
f 2 94 76
f 2 76 50
f 2 50 30
f 2 30 14
f 2 14 5
f 3 5 14
f 3 14 31
f 3 31 35
f 3 35 17
f 3 17 7
f 4 8 9
f 4 9 10
f 4 10 11
f 4 11 12
f 4 12 13
f 6 15 16
f 7 17 18
f 7 18 19
f 7 19 20
f 8 21 22
f 8 22 23
f 8 23 24
f 8 24 25
f 8 25 9
f 9 25 10
f 10 25 11
f 11 25 12
f 12 26 27
f 12 27 28
f 12 28 13
f 12 25 26
f 13 28 29
f 14 30 31
f 15 29 32
f 15 32 16
f 16 33 34
f 16 32 33
f 17 35 36
f 17 36 18
f 18 36 37
f 18 37 38
f 18 38 39
f 18 39 19
f 19 39 20
f 20 39 41
f 20 41 42
f 20 42 40
f 21 43 44
f 21 44 45
f 21 45 46
f 21 46 22
f 22 46 24
f 22 24 23
f 24 46 25
f 25 46 47
f 25 47 26
f 26 48 49
f 26 49 27
f 26 47 48
f 27 49 32
f 27 32 28
f 28 32 29
f 30 50 51
f 30 51 31
f 31 51 52
f 31 52 35
f 32 53 33
f 32 49 53
f 33 53 34
f 34 53 54
f 34 54 55
f 35 52 37
f 35 37 36
f 37 52 56
f 37 56 57
f 37 57 38
f 38 57 58
f 38 58 39
f 39 58 59
f 39 59 60
f 39 60 41
f 40 42 61
f 40 61 62
f 41 60 63
f 41 63 42
f 42 63 64
f 42 64 65
f 42 65 66
f 42 66 61
f 43 67 44
f 44 67 45
f 45 67 46
f 46 68 47
f 46 67 69
f 46 69 70
f 46 70 71
f 46 71 68
f 47 68 71
f 47 71 72
f 47 72 73
f 47 73 48
f 48 73 74
f 48 74 49
f 49 74 53
f 50 75 51
f 50 76 77
f 50 77 78
f 50 78 79
f 50 79 75
f 51 75 79
f 51 79 52
f 52 79 56
f 53 74 80
f 53 80 81
f 53 81 54
f 54 81 55
f 55 81 83
f 55 83 82
f 56 79 84
f 56 84 85
f 56 85 57
f 57 85 86
f 57 86 58
f 58 86 87
f 58 87 59
f 59 87 100
f 59 100 99
f 59 99 115
f 59 115 127
f 59 127 125
f 59 125 124
f 59 124 123
f 59 123 122
f 59 122 121
f 59 121 118
f 59 118 102
f 59 102 92
f 59 92 71
f 59 71 70
f 59 70 69
f 59 69 67
f 59 67 88
f 59 88 66
f 59 66 65
f 59 65 64
f 59 64 63
f 59 63 60
f 61 66 88
f 61 88 62
f 71 82 89
f 71 89 90
f 71 90 91
f 71 91 72
f 72 91 93
f 72 93 73
f 73 93 74
f 74 93 80
f 76 94 77
f 77 94 95
f 77 95 96
f 77 96 97
f 77 97 78
f 78 97 79
f 79 97 98
f 79 98 85
f 79 85 84
f 80 93 91
f 80 91 81
f 81 91 90
f 81 90 83
f 82 83 89
f 83 90 89
f 85 98 86
f 86 99 100
f 86 100 87
f 86 98 101
f 86 101 99
f 92 102 103
f 92 103 104
f 94 105 95
f 95 105 96
f 96 106 107
f 96 107 97
f 96 105 106
f 97 107 108
f 97 108 98
f 98 109 101
f 98 108 107
f 98 107 110
f 98 110 111
f 98 111 112
f 98 112 113
f 98 113 109
f 99 114 115
f 99 101 114
f 101 109 113
f 101 113 116
f 101 116 117
f 101 117 114
f 102 118 110
f 102 110 103
f 103 110 119
f 103 119 120
f 103 120 104
f 105 120 119
f 105 119 106
f 106 119 110
f 106 110 107
f 110 118 121
f 110 121 111
f 111 121 122
f 111 122 123
f 111 123 112
f 112 123 124
f 112 124 125
f 112 125 113
f 113 126 117
f 113 117 116
f 113 125 126
f 114 117 126
f 114 126 115
f 115 126 127
f 125 127 126
