v 0.184149 -0.568324 0.371653
v 0.235112 -0.564739 0.342521
v 0.184149 -0.563658 0.375498
v 0.184149 -0.52756 0.371653
v 0.239475 -0.561354 0.342521
v 0.235112 -0.517945 0.342521
v 0.227323 -0.5608 0.350616
v 0.235112 -0.557343 0.348445
v 0.227613 -0.528357 0.375995
v 0.184149 -0.549962 0.386279
v 0.184149 -0.48371 0.412486
v 0.227323 -0.423035 0.421804
v 0.29796 -0.423035 0.368213
v 0.24847 -0.554186 0.342521
v 0.29815 -0.423035 0.368084
v 0.29815 -0.449518 0.354047
v 0.29815 -0.471379 0.342521
v 0.258546 -0.53864 0.348445
v 0.251326 -0.519681 0.367918
v 0.223719 -0.503438 0.398053
v 0.204269 -0.517021 0.399571
v 0.184149 -0.53864 0.395119
v 0.227323 -0.423035 0.436494
v 0.184149 -0.511133 0.412486
v 0.264996 -0.540987 0.342521
v 0.274381 -0.53113 0.344388
v 0.29815 -0.423035 0.385736
v 0.29815 -0.504519 0.342521
v 0.246774 -0.514873 0.37456
v 0.222302 -0.490722 0.408898
v 0.205217 -0.508231 0.405826
v 0.184149 -0.536706 0.396572
v 0.190621 -0.5283 0.399185
v 0.227323 -0.429165 0.434277
v 0.23576 -0.423248 0.432962
v 0.235849 -0.423035 0.432999
v 0.184149 -0.511645 0.412237
v 0.192786 -0.506553 0.412486
v 0.275642 -0.532467 0.342521
v 0.278945 -0.52958 0.342521
v 0.271602 -0.5282 0.348436
v 0.295137 -0.423035 0.388137
v 0.29815 -0.436746 0.378524
v 0.289022 -0.51813 0.342521
v 0.29815 -0.490267 0.350174
v 0.245356 -0.502115 0.385387
v 0.224723 -0.484379 0.410812
v 0.22219 -0.484379 0.412486
v 0.215919 -0.490737 0.412486
v 0.21593 -0.493311 0.410812
v 0.19658 -0.512455 0.407657
v 0.184149 -0.529167 0.401622
v 0.188802 -0.514987 0.409266
v 0.227323 -0.433915 0.432511
v 0.232668 -0.431028 0.431269
v 0.236105 -0.423035 0.432879
v 0.184149 -0.514674 0.410729
v 0.184149 -0.516239 0.409929
v 0.198611 -0.502926 0.412486
v 0.284547 -0.523777 0.342521
v 0.277617 -0.522454 0.348601
v 0.269828 -0.526309 0.35103
v 0.249574 -0.423035 0.424021
v 0.294334 -0.426036 0.38719
v 0.246249 -0.433588 0.421077
v 0.250735 -0.484066 0.390823
v 0.280909 -0.514674 0.35079
v 0.28727 -0.520619 0.342521
v 0.283275 -0.507705 0.352639
v 0.247465 -0.496028 0.387042
v 0.227323 -0.472645 0.41531
v 0.227323 -0.475248 0.413875
v 0.268143 -0.513166 0.361544
v 0.227323 -0.464509 0.419514
v 0.227323 -0.459517 0.421786
v 0.204202 -0.499427 0.412486
v 0.201959 -0.504704 0.410306
v 0.184149 -0.519681 0.407859
v 0.241283 -0.423035 0.429917
v 0.235871 -0.447157 0.422006
v 0.243058 -0.487181 0.395211
v 0.270799 -0.505372 0.363705
v 0.227904 -0.473171 0.414574
f 1 2 3
f 1 3 10
f 1 10 22
f 1 22 32
f 1 32 52
f 1 52 78
f 1 78 58
f 1 58 57
f 1 57 37
f 1 37 24
f 1 24 11
f 1 11 4
f 1 4 6
f 1 6 2
f 2 5 3
f 2 6 17
f 2 17 28
f 2 28 44
f 2 44 68
f 2 68 60
f 2 60 40
f 2 40 39
f 2 39 25
f 2 25 14
f 2 14 5
f 3 5 7
f 3 7 8
f 3 8 9
f 3 9 10
f 4 11 12
f 4 12 13
f 4 13 6
f 5 14 8
f 5 8 7
f 6 13 15
f 6 15 16
f 6 16 17
f 8 14 18
f 8 18 9
f 9 18 19
f 9 19 20
f 9 20 10
f 10 20 21
f 10 21 22
f 11 23 12
f 11 24 23
f 12 23 36
f 12 36 56
f 12 56 79
f 12 79 63
f 12 63 42
f 12 42 27
f 12 27 15
f 12 15 13
f 14 25 26
f 14 26 18
f 15 27 43
f 15 43 45
f 15 45 28
f 15 28 17
f 15 17 16
f 18 26 19
f 19 26 29
f 19 29 20
f 20 30 21
f 20 29 30
f 21 31 22
f 21 30 31
f 22 31 33
f 22 33 32
f 23 34 35
f 23 35 36
f 23 24 34
f 24 37 38
f 24 38 34
f 25 39 26
f 26 39 40
f 26 40 41
f 26 41 29
f 27 42 43
f 28 45 44
f 29 41 30
f 30 46 47
f 30 47 48
f 30 48 49
f 30 49 50
f 30 50 31
f 30 41 46
f 31 51 33
f 31 50 51
f 32 33 51
f 32 51 53
f 32 53 52
f 34 54 35
f 34 38 54
f 35 54 55
f 35 55 56
f 35 56 36
f 37 57 38
f 38 57 58
f 38 58 53
f 38 53 59
f 38 59 54
f 40 60 61
f 40 61 46
f 40 46 62
f 40 62 41
f 41 62 46
f 42 63 64
f 42 64 43
f 43 64 65
f 43 65 66
f 43 66 45
f 44 67 68
f 44 45 67
f 45 66 69
f 45 69 67
f 46 70 71
f 46 71 72
f 46 72 47
f 46 61 73
f 46 73 67
f 46 67 70
f 47 72 71
f 47 71 48
f 48 71 74
f 48 74 49
f 49 74 75
f 49 75 54
f 49 54 76
f 49 76 77
f 49 77 50
f 50 77 51
f 51 77 53
f 52 53 78
f 53 77 76
f 53 76 59
f 53 58 78
f 54 75 55
f 54 59 76
f 55 75 56
f 56 75 79
f 60 68 61
f 61 68 73
f 63 79 80
f 63 80 71
f 63 71 65
f 63 65 64
f 65 71 66
f 66 81 70
f 66 70 82
f 66 82 69
f 66 71 83
f 66 83 81
f 67 69 82
f 67 82 70
f 67 73 68
f 70 81 83
f 70 83 71
f 71 80 74
f 74 80 79
f 74 79 75
