v 0.367625 -0.423269 -0.150431
v 0.37965 -0.42498 -0.150431
v 0.367625 -0.423269 -0.157572
v 0.00165988 -0.423269 -0.150431
v 0.367625 -0.423686 -0.169242
v 0.387599 -0.428863 -0.150431
v 0.418089 -0.437773 -0.208053
v 0.355967 -0.423269 -0.180906
v 0.00165988 -0.423269 -0.208053
v 0.00165988 -0.575225 -0.150431
v 0.344309 -0.423894 -0.204252
v 0.418089 -0.489496 -0.150431
v 0.418089 -0.489333 -0.150612
v 0.418089 -0.456115 -0.187584
v 0.418089 -0.440124 -0.205397
v 0.418089 -0.466915 -0.208053
v 0.34439 -0.425025 -0.208053
v 0.33261 -0.423329 -0.208053
v 0.344309 -0.423269 -0.192582
v 0.00165988 -0.575225 -0.208053
v 0.320952 -0.423269 -0.208053
v 0.367625 -0.575225 -0.150431
v 0.418089 -0.518906 -0.150431
v 0.418089 -0.471467 -0.20314
v 0.4101 -0.482029 -0.208053
v 0.33261 -0.423269 -0.204252
v 0.328819 -0.575225 -0.208053
v 0.367625 -0.575225 -0.157572
v 0.374758 -0.575136 -0.150431
v 0.40798 -0.537753 -0.150431
v 0.418089 -0.51785 -0.15165
v 0.418089 -0.479247 -0.194584
v 0.418089 -0.482594 -0.190901
v 0.407246 -0.48789 -0.2075
v 0.398971 -0.50281 -0.208053
v 0.33261 -0.57521 -0.208053
v 0.344309 -0.575225 -0.192582
v 0.367625 -0.575121 -0.169242
v 0.355967 -0.575225 -0.180906
v 0.379487 -0.574586 -0.150431
v 0.404923 -0.543451 -0.150431
v 0.40105 -0.543555 -0.158362
v 0.418089 -0.510813 -0.159501
v 0.418089 -0.489838 -0.182869
v 0.410629 -0.495595 -0.191927
v 0.395303 -0.510694 -0.206903
v 0.385846 -0.527266 -0.208053
v 0.340477 -0.575077 -0.208053
v 0.368114 -0.573812 -0.181329
v 0.37643 -0.57347 -0.169242
v 0.344309 -0.575017 -0.204252
v 0.355967 -0.574556 -0.192582
v 0.384582 -0.573559 -0.150431
v 0.396485 -0.559085 -0.150431
v 0.398401 -0.551498 -0.155
v 0.386661 -0.563027 -0.166518
v 0.418089 -0.495432 -0.176642
v 0.383482 -0.555143 -0.181876
v 0.383319 -0.533499 -0.206305
v 0.382666 -0.533097 -0.208053
v 0.344268 -0.574586 -0.208053
v 0.374718 -0.57289 -0.177725
v 0.351198 -0.573396 -0.208053
v 0.355519 -0.573202 -0.203315
v 0.386294 -0.57283 -0.154256
v 0.386824 -0.573098 -0.150431
v 0.3962 -0.559561 -0.150431
v 0.38874 -0.566583 -0.157916
v 0.377327 -0.566657 -0.181329
v 0.375125 -0.563146 -0.189903
v 0.375329 -0.551796 -0.201905
v 0.377816 -0.54171 -0.208053
v 0.353114 -0.572934 -0.208053
v 0.362081 -0.572131 -0.198797
v 0.372353 -0.570926 -0.185503
v 0.39196 -0.56624 -0.150431
v 0.383971 -0.570807 -0.162034
v 0.373006 -0.559576 -0.197681
v 0.373658 -0.548955 -0.208053
v 0.358453 -0.568055 -0.208053
v 0.364323 -0.565273 -0.203315
v 0.370356 -0.566657 -0.193309
v 0.359106 -0.56862 -0.206575
v 0.371008 -0.555173 -0.205177
v 0.372394 -0.550725 -0.208053
v 0.364486 -0.560662 -0.208053
v 0.37109 -0.552376 -0.208053
f 1 2 3
f 1 3 8
f 1 8 19
f 1 19 26
f 1 26 21
f 1 21 9
f 1 9 4
f 1 4 10
f 1 10 22
f 1 22 29
f 1 29 40
f 1 40 53
f 1 53 66
f 1 66 76
f 1 76 67
f 1 67 54
f 1 54 41
f 1 41 30
f 1 30 23
f 1 23 12
f 1 12 6
f 1 6 2
f 2 5 3
f 2 6 7
f 2 7 5
f 3 5 8
f 4 9 20
f 4 20 10
f 5 11 8
f 5 7 11
f 6 12 13
f 6 13 14
f 6 14 15
f 6 15 7
f 7 15 14
f 7 14 13
f 7 13 12
f 7 12 23
f 7 23 31
f 7 31 43
f 7 43 57
f 7 57 44
f 7 44 33
f 7 33 32
f 7 32 24
f 7 24 16
f 7 16 25
f 7 25 35
f 7 35 47
f 7 47 60
f 7 60 72
f 7 72 79
f 7 79 85
f 7 85 87
f 7 87 86
f 7 86 80
f 7 80 73
f 7 73 63
f 7 63 61
f 7 61 48
f 7 48 36
f 7 36 27
f 7 27 20
f 7 20 9
f 7 9 21
f 7 21 18
f 7 18 17
f 7 17 11
f 8 11 18
f 8 18 19
f 10 20 27
f 10 27 37
f 10 37 39
f 10 39 28
f 10 28 22
f 11 17 18
f 16 24 25
f 18 21 26
f 18 26 19
f 22 28 29
f 23 30 31
f 24 32 25
f 25 32 33
f 25 33 34
f 25 34 35
f 27 36 37
f 28 38 29
f 28 39 38
f 29 38 40
f 30 41 31
f 31 41 42
f 31 42 43
f 33 44 34
f 34 44 45
f 34 45 46
f 34 46 35
f 35 46 47
f 36 48 39
f 36 39 37
f 38 49 50
f 38 50 40
f 38 39 48
f 38 48 51
f 38 51 52
f 38 52 49
f 40 50 53
f 41 54 55
f 41 55 42
f 42 55 56
f 42 56 43
f 43 56 57
f 44 57 46
f 44 46 45
f 46 56 47
f 46 57 56
f 47 56 58
f 47 58 59
f 47 59 60
f 48 61 51
f 49 62 50
f 49 52 63
f 49 63 64
f 49 64 62
f 50 62 65
f 50 65 66
f 50 66 53
f 51 61 52
f 52 61 63
f 54 67 68
f 54 68 56
f 54 56 55
f 56 68 69
f 56 69 70
f 56 70 58
f 58 70 59
f 59 70 60
f 60 70 71
f 60 71 72
f 62 64 73
f 62 73 74
f 62 74 75
f 62 75 65
f 63 73 64
f 65 68 67
f 65 67 76
f 65 76 66
f 65 75 77
f 65 77 68
f 68 77 69
f 69 77 75
f 69 75 70
f 70 75 78
f 70 78 71
f 71 78 79
f 71 79 72
f 73 80 74
f 74 81 78
f 74 78 82
f 74 82 75
f 74 80 83
f 74 83 81
f 75 82 78
f 78 81 84
f 78 84 85
f 78 85 79
f 80 86 81
f 80 81 83
f 81 86 84
f 84 87 85
f 84 86 87
