v 0.489648 -0.423021 0.0525227
v 0.489591 -0.423021 0.0570885
v 0.479732 -0.446486 0.0408835
v 0.489423 -0.423021 0.0462352
v 0.479675 -0.446162 0.0525227
v 0.488879 -0.423021 0.0616544
v 0.479169 -0.444873 0.0606813
v 0.482824 -0.43769 0.0292068
v 0.474595 -0.457135 0.0408835
v 0.473565 -0.457135 0.00387004
v 0.473546 -0.457135 0.00338351
v 0.479263 -0.445317 0.0175302
v 0.481887 -0.43769 0.00585357
v 0.489216 -0.423021 0.0413326
v 0.474296 -0.457135 0.0525227
v 0.481212 -0.438298 0.0644238
v 0.48215 -0.423021 0.0869537
v 0.469647 -0.457135 0.0740795
v 0.472084 -0.457135 0.0647607
v 0.48065 -0.426223 0.087066
v 0.479675 -0.423021 0.0960855
v 0.478851 -0.432534 0.0828744
v 0.456507 -0.423021 0.180217
v 0.467416 -0.45637 0.0837352
v 0.467772 -0.457135 0.0811154
v 0.478438 -0.445838 0.00338351
v 0.298169 -0.457135 0.00338351
v 0.479019 -0.444733 0.00585357
v 0.479525 -0.443253 0.00338351
v 0.481775 -0.43769 0.00338351
v 0.489067 -0.423021 0.0379643
v 0.453695 -0.423021 0.189948
v 0.445991 -0.438144 0.192567
v 0.444304 -0.457135 0.166295
v 0.455344 -0.455525 0.128982
v 0.478963 -0.444612 0.00338351
v 0.298169 -0.423258 0.00338351
v 0.298169 -0.457135 0.367679
v 0.486817 -0.423021 0.00338351
v 0.453039 -0.423021 0.192043
v 0.444791 -0.434554 0.201325
v 0.436825 -0.457135 0.192829
v 0.444023 -0.444616 0.188638
v 0.298169 -0.423021 0.368054
v 0.474221 -0.423021 0.00338351
v 0.304542 -0.457135 0.362664
v 0.298169 -0.450576 0.37116
v 0.448709 -0.423021 0.204955
v 0.434257 -0.457135 0.19994
v 0.445335 -0.423021 0.212403
v 0.4336 -0.457135 0.201475
v 0.298169 -0.423021 0.385718
v 0.298169 -0.436742 0.378495
v 0.330766 -0.457135 0.342006
v 0.445203 -0.423021 0.212627
v 0.445166 -0.423204 0.212552
v 0.430114 -0.457135 0.206976
v 0.314439 -0.423021 0.372919
v 0.340457 -0.446449 0.340022
v 0.340738 -0.423541 0.351923
v 0.322331 -0.423021 0.366706
v 0.320906 -0.423021 0.367829
v 0.348367 -0.457135 0.327934
v 0.348236 -0.440659 0.336953
v 0.42942 -0.423021 0.236205
v 0.433113 -0.445834 0.211954
v 0.430039 -0.428574 0.230741
v 0.432644 -0.433316 0.222957
v 0.417011 -0.457135 0.226736
v 0.42659 -0.457135 0.212328
v 0.353953 -0.423021 0.341781
v 0.340945 -0.423021 0.352036
v 0.349942 -0.457135 0.326512
v 0.350429 -0.455675 0.327073
v 0.356765 -0.423021 0.339536
v 0.421791 -0.423124 0.247507
v 0.386513 -0.423021 0.300239
v 0.420591 -0.455946 0.222358
v 0.387469 -0.425121 0.297096
v 0.393599 -0.457135 0.261691
v 0.419111 -0.457135 0.223593
v 0.420254 -0.457135 0.221871
v 0.351085 -0.457135 0.324902
v 0.354066 -0.457135 0.320561
v 0.360308 -0.440852 0.324603
v 0.362501 -0.433075 0.327635
v 0.365425 -0.423021 0.330816
v 0.359989 -0.423021 0.336729
v 0.375023 -0.423021 0.31738
v 0.373467 -0.457135 0.291706
v 0.356184 -0.457135 0.317417
v 0.36297 -0.445594 0.316819
v 0.367506 -0.423021 0.328121
v 0.371274 -0.423021 0.322844
v 0.363682 -0.457135 0.306265
f 1 2 3
f 1 3 4
f 1 4 14
f 1 14 31
f 1 31 39
f 1 39 45
f 1 45 44
f 1 44 52
f 1 52 58
f 1 58 62
f 1 62 61
f 1 61 72
f 1 72 71
f 1 71 75
f 1 75 88
f 1 88 87
f 1 87 93
f 1 93 94
f 1 94 89
f 1 89 77
f 1 77 65
f 1 65 55
f 1 55 50
f 1 50 48
f 1 48 40
f 1 40 32
f 1 32 23
f 1 23 21
f 1 21 17
f 1 17 6
f 1 6 2
f 2 5 3
f 2 6 7
f 2 7 5
f 3 8 4
f 3 5 9
f 3 9 10
f 3 10 11
f 3 11 12
f 3 12 13
f 3 13 8
f 4 8 13
f 4 13 14
f 5 7 15
f 5 15 9
f 6 16 7
f 6 17 16
f 7 18 19
f 7 19 15
f 7 16 20
f 7 20 21
f 7 21 22
f 7 22 23
f 7 23 24
f 7 24 25
f 7 25 18
f 9 15 19
f 9 19 18
f 9 18 25
f 9 25 34
f 9 34 42
f 9 42 49
f 9 49 51
f 9 51 57
f 9 57 70
f 9 70 82
f 9 82 81
f 9 81 69
f 9 69 80
f 9 80 90
f 9 90 95
f 9 95 91
f 9 91 84
f 9 84 83
f 9 83 73
f 9 73 63
f 9 63 54
f 9 54 46
f 9 46 38
f 9 38 27
f 9 27 11
f 9 11 10
f 11 26 12
f 11 27 37
f 11 37 45
f 11 45 39
f 11 39 30
f 11 30 29
f 11 29 36
f 11 36 26
f 12 26 28
f 12 28 29
f 12 29 13
f 13 29 30
f 13 30 31
f 13 31 14
f 16 17 20
f 17 21 20
f 21 23 22
f 23 32 33
f 23 33 34
f 23 34 35
f 23 35 24
f 24 35 34
f 24 34 25
f 26 36 28
f 27 38 47
f 27 47 53
f 27 53 52
f 27 52 44
f 27 44 37
f 28 36 29
f 30 39 31
f 32 40 33
f 33 40 41
f 33 41 42
f 33 42 43
f 33 43 34
f 34 43 42
f 37 44 45
f 38 46 47
f 40 48 41
f 41 49 42
f 41 48 50
f 41 50 51
f 41 51 49
f 46 53 47
f 46 54 53
f 50 55 56
f 50 56 51
f 51 56 57
f 52 53 58
f 53 54 59
f 53 59 60
f 53 60 61
f 53 61 62
f 53 62 58
f 54 63 64
f 54 64 59
f 55 65 56
f 56 66 57
f 56 65 67
f 56 67 68
f 56 68 69
f 56 69 66
f 57 66 70
f 59 71 60
f 59 64 71
f 60 71 72
f 60 72 61
f 63 73 74
f 63 74 64
f 64 74 75
f 64 75 71
f 65 76 67
f 65 77 76
f 66 69 78
f 66 78 70
f 67 76 79
f 67 79 80
f 67 80 69
f 67 69 68
f 69 81 78
f 70 78 82
f 73 83 74
f 74 83 84
f 74 84 85
f 74 85 86
f 74 86 87
f 74 87 88
f 74 88 75
f 76 77 79
f 77 89 79
f 78 81 82
f 79 89 80
f 80 89 90
f 84 91 92
f 84 92 85
f 85 92 89
f 85 89 86
f 86 93 87
f 86 89 94
f 86 94 93
f 89 92 90
f 90 92 95
f 91 95 92
