v 0.456316 0.10032 -0.363102
v 0.460095 0.0997458 -0.359011
v 0.439742 0.0991925 -0.381126
v 0.45094 0.10032 -0.368938
v 0.442676 0.10032 -0.358907
v 0.460283 0.0875301 -0.358907
v 0.445165 0.0875301 -0.375343
v 0.439789 0.0875301 -0.381178
v 0.400326 0.0875301 -0.42401
v 0.389104 0.0875301 -0.436182
v 0.38901 0.0997458 -0.436061
v 0.428497 0.10032 -0.393263
v 0.42622 -0.117094 -0.358907
v 0.220477 0.10032 -0.524057
v 0.220477 -0.117094 -0.510901
v 0.459062 0.0525215 -0.358907
v 0.455377 0.0291754 -0.362084
v 0.456175 0.0758464 -0.362947
v 0.388963 0.0758464 -0.436026
v 0.383423 0.0875301 -0.442017
v 0.394832 0.10032 -0.429725
v 0.383188 0.0997458 -0.442
v 0.43946 -0.117094 -0.363914
v 0.444249 -0.11603 -0.359201
v 0.448522 -0.0836607 -0.358907
v 0.226886 0.10032 -0.532775
v 0.220477 0.0997245 -0.535158
v 0.220477 -0.117094 -0.524454
v 0.45864 0.041157 -0.358907
v 0.45648 0.0192581 -0.360426
v 0.455048 0.0134056 -0.361756
v 0.443779 0.00582927 -0.373823
v 0.421571 0.0174917 -0.398408
v 0.388564 0.0525215 -0.435595
v 0.382766 0.0408378 -0.441206
v 0.383282 0.0758464 -0.441862
v 0.376944 0.0408378 -0.446281
v 0.377437 0.0758464 -0.446437
v 0.377578 0.0875301 -0.446471
v 0.377272 0.0997458 -0.446575
v 0.327128 0.10032 -0.478703
v 0.433239 -0.117094 -0.370025
v 0.431901 -0.105411 -0.373599
v 0.445329 -0.0973661 -0.360564
v 0.432276 -0.0991751 -0.373979
v 0.440821 -0.0524828 -0.370733
v 0.452372 -0.0504611 -0.358907
v 0.238742 0.100022 -0.529339
v 0.239305 0.0875301 -0.529409
v 0.220477 0.0873811 -0.535261
v 0.220477 -0.0957913 -0.526508
v 0.220642 -0.107411 -0.525541
v 0.233413 -0.117094 -0.518791
v 0.45702 0.00080677 -0.358907
v 0.443615 -0.00147038 -0.373651
v 0.416172 0.0174917 -0.404243
v 0.399363 0.0291754 -0.422975
v 0.394199 0.0408378 -0.429034
v 0.388353 0.0408378 -0.43537
v 0.382531 0.0291754 -0.440912
v 0.376709 0.0291754 -0.446178
v 0.388142 0.0291754 -0.435077
v 0.368375 0.0291754 -0.451978
v 0.368563 0.0408378 -0.452082
v 0.36868 0.0525215 -0.452134
v 0.368845 0.0758464 -0.452237
v 0.368892 0.0875301 -0.452272
v 0.368704 0.0997458 -0.452341
v 0.327199 0.0875301 -0.478755
v 0.276233 0.0875301 -0.511057
v 0.306235 0.0997458 -0.491945
v 0.285341 0.0997458 -0.505135
v 0.275998 0.0997458 -0.51097
v 0.269988 0.0997458 -0.514665
v 0.428708 -0.117094 -0.374428
v 0.420468 -0.117094 -0.382352
v 0.42082 -0.0969405 -0.385874
v 0.383353 -0.0524828 -0.430157
v 0.373211 -0.0334995 -0.443277
v 0.373751 -0.0257103 -0.443847
v 0.374244 -0.0174743 -0.444348
v 0.400678 -0.0524828 -0.412564
v 0.420656 -0.00585443 -0.397389
v 0.432206 -0.00347087 -0.385615
v 0.454696 -0.0303072 -0.358907
v 0.26264 0.0997458 -0.518446
v 0.253038 0.0997458 -0.523314
v 0.247169 0.0997458 -0.526163
v 0.247874 0.0875301 -0.526249
v 0.239305 0.0758464 -0.529305
v 0.220477 0.0758464 -0.535227
v 0.220477 -0.0875127 -0.527078
v 0.227638 -0.0174743 -0.528839
v 0.226065 -0.0524828 -0.527095
v 0.245456 0.0446047 -0.525351
v 0.228154 -0.0991751 -0.522727
v 0.239962 -0.114349 -0.516029
v 0.25609 -0.117094 -0.507932
v 0.456597 -0.00802517 -0.358907
v 0.399035 0.0174917 -0.422578
v 0.41035 0.0174917 -0.410527
v 0.455799 -0.0192194 -0.358907
v 0.393964 0.0291754 -0.42881
v 0.382085 0.0174917 -0.440377
v 0.37624 0.0174917 -0.445936
v 0.368117 0.0174917 -0.451737
v 0.393518 0.0174917 -0.428413
v 0.387696 0.0174917 -0.434542
v 0.362741 0.0408378 -0.455777
v 0.361849 -0.000917055 -0.455207
v 0.32086 0.0408378 -0.482087
v 0.326823 0.0467329 -0.478514
v 0.331589 0.0513936 -0.47563
v 0.332903 0.064184 -0.474974
v 0.362835 0.0525215 -0.455846
v 0.332997 0.0758464 -0.475026
v 0.362929 0.064184 -0.455897
v 0.306282 0.0758464 -0.491962
v 0.285412 0.0758464 -0.50517
v 0.270411 0.0875301 -0.514734
v 0.26264 0.0875301 -0.518791
v 0.253719 0.0875301 -0.523418
v 0.409012 -0.0960254 -0.397372
v 0.374315 -0.117094 -0.426445
v 0.377531 -0.0524828 -0.435767
v 0.372554 -0.0408204 -0.442656
v 0.359337 -0.0524828 -0.452963
v 0.360299 -0.0408204 -0.453895
v 0.374925 -0.00585443 -0.444969
v 0.381428 0.00582927 -0.439669
v 0.404293 0.00582927 -0.415844
v 0.247639 0.0758464 -0.52618
v 0.239305 0.064184 -0.528925
v 0.220477 0.0408378 -0.534329
v 0.220477 0.0525215 -0.534709
v 0.220477 0.0637796 -0.535002
v 0.220477 -0.075829 -0.527855
v 0.23839 0.0291754 -0.52732
v 0.220477 -0.00847209 -0.532309
v 0.240291 0.040774 -0.52725
v 0.246043 0.0525215 -0.525593
v 0.251888 0.0525215 -0.522883
v 0.250973 -0.0291367 -0.517255
v 0.251982 -0.0409268 -0.515891
v 0.24731 -0.0875127 -0.514579
v 0.245667 -0.108262 -0.513784
v 0.262945 -0.117094 -0.504565
v 0.375582 0.00582927 -0.445504
v 0.361051 -0.0291367 -0.454413
v 0.326964 0.054522 -0.4786
v 0.355205 -0.0291367 -0.458263
v 0.355604 -0.0174743 -0.458539
v 0.357036 -0.00523726 -0.458073
v 0.311517 0.0408378 -0.487923
v 0.305953 0.0525215 -0.491738
v 0.311798 0.0525215 -0.488078
v 0.276139 0.0758464 -0.511005
v 0.270293 0.0758464 -0.514665
v 0.26264 0.0758464 -0.518636
v 0.253484 0.0758464 -0.523349
v 0.385982 -0.0875127 -0.421006
v 0.397931 -0.0875127 -0.409595
v 0.392978 -0.075829 -0.416552
v 0.368258 -0.117094 -0.432125
v 0.36584 -0.110859 -0.435647
v 0.35051 -0.0831925 -0.455535
v 0.362365 -0.0845332 -0.444089
v 0.37638 -0.0641665 -0.434645
v 0.371427 -0.0524828 -0.441603
v 0.365582 -0.0524828 -0.447127
v 0.358304 -0.0641665 -0.45184
v 0.351285 -0.075829 -0.456243
v 0.352459 -0.0641665 -0.457158
v 0.353515 -0.0524828 -0.457693
v 0.25271 0.064184 -0.523124
v 0.246888 0.064184 -0.525938
v 0.239305 0.0525215 -0.528355
v 0.220477 0.00387135 -0.532999
v 0.220477 0.0174917 -0.533517
v 0.220477 0.0291754 -0.533932
v 0.26264 0.0525215 -0.517548
v 0.26372 0.0403058 -0.516167
v 0.26203 0.0291754 -0.516219
v 0.260363 0.00582927 -0.515338
v 0.257123 -0.0370961 -0.513698
v 0.269002 -0.108454 -0.502131
v 0.279167 -0.117094 -0.496192
v 0.354477 -0.0408204 -0.457986
v 0.344665 -0.0524828 -0.463528
v 0.338584 -0.0592717 -0.466912
v 0.339782 -0.0291367 -0.467637
v 0.340251 -0.0174743 -0.467913
v 0.34605 -0.0174743 -0.464374
v 0.34065 -0.00585443 -0.46819
v 0.320273 0.0174917 -0.481656
v 0.311141 0.0291754 -0.487733
v 0.305671 0.0408378 -0.491548
v 0.340979 0.00582927 -0.468431
v 0.285224 0.064184 -0.505014
v 0.269918 0.064184 -0.514389
v 0.284919 0.0525215 -0.504772
v 0.26264 0.064184 -0.518152
v 0.363656 -0.117094 -0.436303
v 0.359384 -0.110859 -0.441482
v 0.357154 -0.117094 -0.441931
v 0.353562 -0.110859 -0.446437
v 0.342481 -0.0991751 -0.458539
v 0.335462 -0.0991751 -0.464374
v 0.336824 -0.0875127 -0.465445
v 0.35713 -0.075829 -0.450718
v 0.331002 -0.0875127 -0.469433
v 0.269331 0.0525215 -0.514026
v 0.268838 0.0438598 -0.513733
v 0.275481 -0.0303072 -0.504686
v 0.27311 -0.0524828 -0.504272
v 0.272289 -0.0641665 -0.503823
v 0.271443 -0.075829 -0.503374
v 0.275528 -0.0991751 -0.499472
v 0.285858 -0.117094 -0.492722
v 0.331917 -0.075829 -0.469795
v 0.333654 -0.0635707 -0.469536
v 0.303864 -0.00585443 -0.490409
v 0.304404 0.00582927 -0.490737
v 0.304873 0.0174917 -0.49103
v 0.310719 0.0174917 -0.487491
v 0.305319 0.0291754 -0.491306
v 0.28398 0.0291754 -0.504099
v 0.337645 -0.117094 -0.45828
v 0.333866 -0.110859 -0.462959
v 0.32802 -0.110859 -0.46781
v 0.32964 -0.0991751 -0.46888
v 0.315108 -0.0928331 -0.47841
v 0.320038 -0.0883852 -0.475855
v 0.308113 -0.110859 -0.481069
v 0.283393 0.0174917 -0.503719
v 0.315531 -0.0850653 -0.478721
v 0.31046 -0.0883852 -0.481362
v 0.308887 -0.0991751 -0.481483
v 0.299028 -0.0875127 -0.48775
v 0.280669 -0.0271788 -0.502148
v 0.280153 -0.0349679 -0.501855
v 0.291961 -0.106049 -0.490271
v 0.307338 -0.117094 -0.480723
v 0.316024 -0.075829 -0.479014
v 0.303535 -0.0120474 -0.490219
v 0.327128 -0.117094 -0.467085
v 0.31316 -0.117094 -0.476943
v 0.313935 -0.110859 -0.477374
f 1 2 3
f 1 3 4
f 1 4 12
f 1 12 21
f 1 21 41
f 1 41 26
f 1 26 14
f 1 14 5
f 1 5 2
f 2 5 6
f 2 6 7
f 2 7 3
f 3 7 8
f 3 8 9
f 3 9 10
f 3 10 11
f 3 11 12
f 3 12 4
f 5 13 25
f 5 25 47
f 5 47 85
f 5 85 102
f 5 102 99
f 5 99 54
f 5 54 29
f 5 29 16
f 5 16 6
f 5 14 15
f 5 15 13
f 6 16 17
f 6 17 18
f 6 18 19
f 6 19 7
f 7 19 8
f 8 19 9
f 9 19 10
f 10 19 36
f 10 36 20
f 10 20 11
f 11 21 12
f 11 20 22
f 11 22 21
f 13 23 24
f 13 24 25
f 13 15 28
f 13 28 53
f 13 53 98
f 13 98 147
f 13 147 187
f 13 187 219
f 13 219 243
f 13 243 247
f 13 247 246
f 13 246 228
f 13 228 205
f 13 205 203
f 13 203 164
f 13 164 124
f 13 124 76
f 13 76 75
f 13 75 42
f 13 42 23
f 14 26 27
f 14 27 50
f 14 50 91
f 14 91 136
f 14 136 135
f 14 135 134
f 14 134 180
f 14 180 179
f 14 179 178
f 14 178 139
f 14 139 137
f 14 137 92
f 14 92 51
f 14 51 28
f 14 28 15
f 16 29 30
f 16 30 17
f 17 30 31
f 17 31 32
f 17 32 33
f 17 33 18
f 18 33 19
f 19 34 35
f 19 35 36
f 19 33 34
f 20 36 37
f 20 37 38
f 20 38 39
f 20 39 40
f 20 40 22
f 21 22 40
f 21 40 41
f 23 42 43
f 23 43 24
f 24 43 44
f 24 44 25
f 25 44 45
f 25 45 46
f 25 46 47
f 26 48 27
f 26 41 48
f 27 48 49
f 27 49 50
f 28 51 52
f 28 52 53
f 29 54 30
f 30 54 31
f 31 54 55
f 31 55 32
f 32 55 33
f 33 56 103
f 33 103 57
f 33 57 58
f 33 58 34
f 33 55 56
f 34 58 59
f 34 59 35
f 35 60 61
f 35 61 36
f 35 59 62
f 35 62 60
f 36 61 37
f 37 61 63
f 37 63 64
f 37 64 38
f 38 64 65
f 38 65 39
f 39 65 66
f 39 66 67
f 39 67 68
f 39 68 40
f 40 68 41
f 41 69 70
f 41 70 71
f 41 71 72
f 41 72 73
f 41 73 74
f 41 74 48
f 41 68 69
f 42 75 43
f 43 45 44
f 43 75 76
f 43 76 77
f 43 77 78
f 43 78 79
f 43 79 80
f 43 80 45
f 45 80 81
f 45 81 82
f 45 82 46
f 46 82 81
f 46 81 83
f 46 83 84
f 46 84 85
f 46 85 47
f 48 74 86
f 48 86 87
f 48 87 88
f 48 88 89
f 48 89 49
f 49 90 91
f 49 91 50
f 49 89 90
f 51 92 93
f 51 93 94
f 51 94 95
f 51 95 96
f 51 96 52
f 52 96 97
f 52 97 53
f 53 97 98
f 54 99 55
f 55 84 100
f 55 100 62
f 55 62 101
f 55 101 56
f 55 99 102
f 55 102 84
f 56 101 103
f 57 103 59
f 57 59 58
f 59 103 62
f 60 104 105
f 60 105 61
f 60 62 108
f 60 108 104
f 61 105 106
f 61 106 63
f 62 103 101
f 62 100 107
f 62 107 108
f 63 109 64
f 63 106 110
f 63 110 111
f 63 111 112
f 63 112 113
f 63 113 109
f 64 109 114
f 64 114 115
f 64 115 65
f 65 115 114
f 65 114 116
f 65 116 117
f 65 117 66
f 66 117 116
f 66 116 67
f 67 116 69
f 67 69 68
f 69 116 118
f 69 118 70
f 70 118 119
f 70 119 120
f 70 120 71
f 71 120 72
f 72 120 73
f 73 120 74
f 74 120 121
f 74 121 122
f 74 122 86
f 76 123 77
f 76 124 123
f 77 123 125
f 77 125 78
f 78 125 126
f 78 126 79
f 79 126 127
f 79 127 128
f 79 128 80
f 80 128 81
f 81 129 104
f 81 104 130
f 81 130 83
f 81 128 129
f 83 131 84
f 83 130 131
f 84 102 85
f 84 131 108
f 84 108 107
f 84 107 100
f 86 122 87
f 87 122 88
f 88 122 89
f 89 132 90
f 89 122 160
f 89 160 132
f 90 133 134
f 90 134 135
f 90 135 136
f 90 136 91
f 90 132 133
f 92 137 93
f 93 138 95
f 93 95 94
f 93 137 139
f 93 139 138
f 95 138 140
f 95 140 141
f 95 141 142
f 95 142 143
f 95 143 96
f 96 143 97
f 97 143 144
f 97 144 145
f 97 145 146
f 97 146 98
f 98 146 147
f 104 129 148
f 104 148 105
f 104 108 130
f 105 148 149
f 105 149 106
f 106 149 110
f 108 131 130
f 109 113 150
f 109 150 114
f 110 149 151
f 110 151 152
f 110 152 153
f 110 153 154
f 110 154 111
f 111 154 155
f 111 155 156
f 111 156 112
f 112 156 157
f 112 157 113
f 113 157 119
f 113 119 150
f 114 150 119
f 114 119 118
f 114 118 116
f 119 157 120
f 120 158 121
f 120 157 158
f 121 158 159
f 121 159 122
f 122 159 160
f 123 161 162
f 123 162 163
f 123 163 125
f 123 124 161
f 124 164 165
f 124 165 166
f 124 166 167
f 124 167 168
f 124 168 161
f 125 168 169
f 125 169 126
f 125 163 162
f 125 162 168
f 126 169 170
f 126 170 127
f 127 170 171
f 127 171 172
f 127 172 173
f 127 173 128
f 128 173 174
f 128 174 149
f 128 149 129
f 129 149 148
f 132 160 175
f 132 175 176
f 132 176 133
f 133 177 178
f 133 178 179
f 133 179 180
f 133 180 134
f 133 176 177
f 138 139 140
f 139 178 177
f 139 177 140
f 140 177 141
f 141 176 142
f 141 177 176
f 142 176 175
f 142 175 181
f 142 181 182
f 142 182 183
f 142 183 184
f 142 184 143
f 143 184 144
f 144 184 185
f 144 185 146
f 144 146 145
f 146 185 147
f 147 185 186
f 147 186 187
f 149 174 188
f 149 188 151
f 151 188 189
f 151 189 190
f 151 190 191
f 151 191 192
f 151 192 193
f 151 193 152
f 152 193 194
f 152 194 195
f 152 195 196
f 152 196 197
f 152 197 198
f 152 198 153
f 153 198 154
f 154 197 199
f 154 199 155
f 154 198 197
f 155 199 158
f 155 158 157
f 155 157 156
f 158 200 159
f 158 199 197
f 158 197 201
f 158 201 200
f 159 200 202
f 159 202 160
f 160 202 181
f 160 181 175
f 161 168 162
f 164 203 166
f 164 166 165
f 166 172 167
f 166 203 204
f 166 204 205
f 166 205 206
f 166 206 207
f 166 207 208
f 166 208 209
f 166 209 172
f 167 172 210
f 167 210 171
f 167 171 169
f 167 169 168
f 169 171 170
f 171 210 172
f 172 209 173
f 173 209 174
f 174 209 211
f 174 211 189
f 174 189 188
f 181 202 200
f 181 200 212
f 181 212 213
f 181 213 182
f 182 213 214
f 182 214 215
f 182 215 183
f 183 215 184
f 184 215 216
f 184 216 217
f 184 217 186
f 184 186 185
f 186 217 218
f 186 218 187
f 187 218 219
f 189 211 190
f 190 211 220
f 190 220 221
f 190 221 222
f 190 222 200
f 190 200 223
f 190 223 224
f 190 224 225
f 190 225 191
f 191 225 192
f 192 225 194
f 192 194 193
f 194 225 226
f 194 226 195
f 195 226 201
f 195 201 196
f 196 201 197
f 200 201 224
f 200 224 223
f 200 222 227
f 200 227 212
f 201 226 225
f 201 225 224
f 203 205 204
f 205 207 206
f 205 228 229
f 205 229 207
f 207 229 208
f 208 229 230
f 208 230 231
f 208 231 209
f 209 231 211
f 211 232 233
f 211 233 220
f 211 231 234
f 211 234 232
f 212 227 235
f 212 235 236
f 212 236 213
f 213 236 237
f 213 237 238
f 213 238 239
f 213 239 240
f 213 240 241
f 213 241 219
f 213 219 214
f 214 219 215
f 215 219 216
f 216 219 218
f 216 218 217
f 219 242 234
f 219 234 243
f 219 241 242
f 220 233 236
f 220 236 244
f 220 244 245
f 220 245 222
f 220 222 221
f 222 245 227
f 227 245 235
f 228 246 229
f 229 246 230
f 230 246 247
f 230 247 231
f 231 247 248
f 231 248 234
f 232 237 236
f 232 236 233
f 232 234 238
f 232 238 237
f 234 248 243
f 234 242 239
f 234 239 238
f 235 245 244
f 235 244 236
f 239 242 240
f 240 242 241
f 243 248 247
