v -0.215751 -0.355459 -0.466455
v -0.215751 -0.355459 -0.453601
v -0.215751 -0.380085 -0.457537
v -0.228139 -0.368269 -0.457834
v -0.228057 -0.355459 -0.4624
v -0.215751 -0.355472 -0.45234
v -0.217483 -0.355459 -0.451781
v -0.224609 -0.376014 -0.456122
v -0.215751 -0.413151 -0.444837
v -0.236057 -0.364787 -0.456288
v -0.23957 -0.355459 -0.458452
v -0.215751 -0.423088 -0.423753
v -0.368169 -0.355459 -0.344974
v -0.367839 -0.355479 -0.344974
v -0.215751 -0.418368 -0.442494
v -0.222201 -0.409054 -0.443778
v -0.24607 -0.355459 -0.455729
v -0.241731 -0.355459 -0.457596
v -0.239686 -0.356439 -0.458048
v -0.329289 -0.423088 -0.344974
v -0.215751 -0.423088 -0.440175
v -0.384253 -0.355459 -0.344974
v -0.215751 -0.41993 -0.441733
v -0.216097 -0.423088 -0.439997
v -0.224906 -0.423088 -0.434456
v -0.227397 -0.414078 -0.437547
v -0.246812 -0.375689 -0.444694
v -0.236024 -0.388486 -0.445265
v -0.25148 -0.355459 -0.452197
v -0.249996 -0.355459 -0.453184
v -0.35009 -0.423088 -0.344974
v -0.376252 -0.355459 -0.356116
v -0.374999 -0.36766 -0.352263
v -0.373844 -0.374458 -0.350646
v -0.379716 -0.368838 -0.344974
v -0.280677 -0.420883 -0.397224
v -0.283218 -0.414343 -0.398972
v -0.246433 -0.398528 -0.432755
v -0.260437 -0.355459 -0.446121
v -0.294138 -0.423088 -0.386772
v -0.355303 -0.414998 -0.344974
v -0.349381 -0.419116 -0.34929
v -0.348457 -0.423088 -0.347126
v -0.372755 -0.355459 -0.360932
v -0.372194 -0.358458 -0.360254
v -0.370495 -0.36766 -0.358102
v -0.367658 -0.379238 -0.355938
v -0.37231 -0.382243 -0.348613
v -0.376054 -0.379112 -0.344974
v -0.376302 -0.37845 -0.344974
v -0.321289 -0.379741 -0.391231
v -0.297074 -0.390266 -0.40229
v -0.292257 -0.36241 -0.420483
v -0.305668 -0.364674 -0.410031
v -0.275976 -0.355459 -0.435395
v -0.328564 -0.423088 -0.363037
v -0.328729 -0.422658 -0.363156
v -0.343773 -0.401646 -0.364024
v -0.339913 -0.387029 -0.3745
v -0.356738 -0.412715 -0.344974
v -0.34468 -0.423088 -0.351074
v -0.359691 -0.405082 -0.347352
v -0.362099 -0.397303 -0.350527
v -0.364062 -0.391001 -0.352893
v -0.361126 -0.384017 -0.361217
v -0.367955 -0.355459 -0.365391
v -0.364672 -0.36766 -0.364428
v -0.363006 -0.376239 -0.362942
v -0.369868 -0.391518 -0.344974
v -0.370396 -0.390578 -0.344974
v -0.329504 -0.376987 -0.387033
v -0.347698 -0.381872 -0.371812
v -0.350519 -0.374087 -0.373798
v -0.29455 -0.355989 -0.422208
v -0.285098 -0.355459 -0.429093
v -0.280644 -0.355459 -0.432173
v -0.334073 -0.423088 -0.359184
v -0.336498 -0.417646 -0.36048
v -0.350321 -0.397072 -0.361955
v -0.35268 -0.391001 -0.363572
v -0.369604 -0.391955 -0.344974
v -0.342024 -0.423088 -0.353369
v -0.365019 -0.355459 -0.367924
v -0.360186 -0.355459 -0.372086
v -0.357728 -0.36766 -0.370267
v -0.351888 -0.36766 -0.37488
v -0.326667 -0.361523 -0.396653
v -0.295144 -0.355459 -0.422005
v -0.294731 -0.355459 -0.422303
v -0.354313 -0.355459 -0.376842
v -0.346857 -0.355989 -0.382574
v -0.341447 -0.355459 -0.38701
v -0.330428 -0.355459 -0.39569
v -0.327887 -0.355459 -0.397688
v -0.32025 -0.355459 -0.40361
v -0.314345 -0.355459 -0.407974
v -0.346956 -0.355459 -0.382657
f 1 2 6
f 1 6 12
f 1 12 21
f 1 21 23
f 1 23 15
f 1 15 9
f 1 9 3
f 1 3 4
f 1 4 5
f 1 5 11
f 1 11 18
f 1 18 17
f 1 17 30
f 1 30 29
f 1 29 39
f 1 39 55
f 1 55 76
f 1 76 75
f 1 75 89
f 1 89 88
f 1 88 96
f 1 96 95
f 1 95 94
f 1 94 93
f 1 93 92
f 1 92 97
f 1 97 90
f 1 90 84
f 1 84 83
f 1 83 66
f 1 66 44
f 1 44 32
f 1 32 22
f 1 22 13
f 1 13 7
f 1 7 2
f 2 7 6
f 3 8 4
f 3 9 8
f 4 10 11
f 4 11 5
f 4 8 10
f 6 7 13
f 6 13 14
f 6 14 12
f 8 9 10
f 9 15 16
f 9 16 10
f 10 17 18
f 10 18 19
f 10 19 11
f 10 16 17
f 11 19 18
f 12 20 31
f 12 31 43
f 12 43 61
f 12 61 82
f 12 82 77
f 12 77 56
f 12 56 40
f 12 40 25
f 12 25 24
f 12 24 21
f 12 14 20
f 13 22 35
f 13 35 50
f 13 50 49
f 13 49 70
f 13 70 69
f 13 69 81
f 13 81 60
f 13 60 41
f 13 41 31
f 13 31 20
f 13 20 14
f 15 23 16
f 16 23 21
f 16 21 24
f 16 24 25
f 16 25 26
f 16 26 27
f 16 27 28
f 16 28 29
f 16 29 30
f 16 30 17
f 22 32 33
f 22 33 34
f 22 34 35
f 25 36 37
f 25 37 38
f 25 38 39
f 25 39 27
f 25 27 26
f 25 40 36
f 27 39 28
f 28 39 29
f 31 41 42
f 31 42 43
f 32 44 33
f 33 44 34
f 34 44 45
f 34 45 46
f 34 46 47
f 34 47 48
f 34 48 49
f 34 49 50
f 34 50 35
f 36 40 37
f 37 39 38
f 37 40 51
f 37 51 52
f 37 52 39
f 39 52 51
f 39 51 53
f 39 53 54
f 39 54 55
f 40 56 57
f 40 57 58
f 40 58 59
f 40 59 51
f 41 60 42
f 42 61 43
f 42 60 62
f 42 62 63
f 42 63 64
f 42 64 65
f 42 65 61
f 44 66 67
f 44 67 68
f 44 68 45
f 45 68 46
f 46 68 47
f 47 68 65
f 47 65 48
f 48 69 70
f 48 70 49
f 48 65 64
f 48 64 69
f 51 59 71
f 51 71 54
f 51 54 53
f 54 71 72
f 54 72 73
f 54 73 74
f 54 74 75
f 54 75 76
f 54 76 55
f 56 77 78
f 56 78 57
f 57 78 58
f 58 78 79
f 58 79 59
f 59 79 80
f 59 80 71
f 60 81 62
f 61 65 82
f 62 81 63
f 63 81 69
f 63 69 64
f 65 68 73
f 65 73 72
f 65 72 80
f 65 80 79
f 65 79 82
f 66 83 67
f 67 83 84
f 67 84 85
f 67 85 68
f 68 85 73
f 71 80 72
f 73 85 86
f 73 86 87
f 73 87 74
f 74 87 88
f 74 88 89
f 74 89 75
f 77 82 78
f 78 82 79
f 84 90 85
f 85 90 91
f 85 91 86
f 86 91 92
f 86 92 93
f 86 93 94
f 86 94 87
f 87 94 95
f 87 95 96
f 87 96 88
f 90 97 91
f 91 97 92
