v -0.525928 0.105191 -0.225795
v -0.358345 0.105191 -0.44375
v -0.538961 0.105191 -0.225795
v -0.505985 -0.158038 -0.225795
v -0.358345 0.105191 -0.460543
v -0.358345 -0.158038 -0.419479
v -0.538496 0.105191 -0.227189
v -0.540465 0.0758432 -0.227607
v -0.540877 0.0776469 -0.225795
v -0.518875 -0.158038 -0.225795
v -0.358345 0.102331 -0.460798
v -0.359903 0.105191 -0.459265
v -0.358345 -0.158038 -0.436295
v -0.526501 0.105191 -0.260333
v -0.527808 0.0758432 -0.262632
v -0.538532 0.0985691 -0.22842
v -0.539624 0.0875154 -0.227607
v -0.540733 0.0641711 -0.227607
v -0.540984 0.0758432 -0.225795
v -0.537207 0.0875154 -0.234296
v -0.518302 -0.158038 -0.227514
v -0.526519 -0.0851447 -0.225795
v -0.358345 0.0875154 -0.462029
v -0.366276 0.105191 -0.4539
v -0.362875 -0.158038 -0.432718
v -0.358345 -0.157393 -0.436504
v -0.523798 0.105191 -0.266163
v -0.52523 0.0818983 -0.268485
v -0.52677 0.0864847 -0.263352
v -0.525445 0.0758432 -0.268903
v -0.528059 0.0641711 -0.262632
v -0.541235 0.0641711 -0.225795
v -0.541199 0.0659747 -0.225795
v -0.525409 0.056467 -0.26881
v -0.539964 0.052499 -0.227607
v -0.540483 0.052499 -0.225795
v -0.514954 -0.157548 -0.237339
v -0.514918 -0.158038 -0.237269
v -0.528023 -0.0641709 -0.227607
v -0.538299 0.0299534 -0.225795
v -0.358345 0.0758432 -0.462981
v -0.364719 0.0758432 -0.457616
v -0.37691 0.0875154 -0.446398
v -0.381887 0.105191 -0.440754
v -0.368747 -0.158038 -0.427956
v -0.362964 -0.157548 -0.432787
v -0.358345 -0.145876 -0.439012
v -0.519233 0.105191 -0.274292
v -0.521865 0.0758432 -0.274733
v -0.514811 0.105191 -0.281956
v -0.522026 0.0641711 -0.274989
v -0.525588 0.0641711 -0.269136
v -0.52702 0.0525505 -0.263445
v -0.51576 0.052499 -0.28328
v -0.513844 -0.0494841 -0.268927
v -0.513862 -0.0964303 -0.257546
v -0.525534 0.0174825 -0.257639
v -0.526448 -0.00583598 -0.248511
v -0.514041 -0.134204 -0.246467
v -0.513665 -0.141289 -0.245468
v -0.504374 -0.158038 -0.263306
v -0.358345 0.0641711 -0.463074
v -0.408955 0.0641711 -0.420547
v -0.427573 0.0641711 -0.404893
v -0.408848 0.0758432 -0.420454
v -0.426875 0.0875154 -0.404312
v -0.420574 0.097255 -0.408818
v -0.420198 0.105036 -0.408493
v -0.42018 0.105191 -0.408493
v -0.388904 -0.158038 -0.411559
v -0.381815 -0.157548 -0.417458
v -0.358345 -0.134049 -0.440429
v -0.388976 -0.157548 -0.411605
v -0.401919 -0.157548 -0.400921
v -0.364396 -0.145876 -0.433995
v -0.516028 0.0758432 -0.283698
v -0.507901 0.105191 -0.291874
v -0.505162 0.0991875 -0.296519
v -0.516189 0.0641711 -0.283907
v -0.515563 -0.099883 -0.251971
v -0.502029 0.0570596 -0.303696
v -0.510998 0.0408268 -0.288158
v -0.51508 0.0408268 -0.282305
v -0.5103 -0.0408266 -0.2755
v -0.502011 -0.152859 -0.268648
v -0.50151 -0.158038 -0.268183
v -0.408686 0.0571111 -0.420315
v -0.358345 0.052499 -0.461983
v -0.434215 0.0641711 -0.399063
v -0.427448 0.0758432 -0.404777
v -0.421612 0.0758432 -0.409701
v -0.427 0.052499 -0.404428
v -0.433714 0.052499 -0.398598
v -0.432801 0.105191 -0.397739
v -0.428522 0.105191 -0.401432
v -0.425085 0.100373 -0.404753
v -0.401866 -0.158038 -0.400875
v -0.358345 -0.0503344 -0.450114
v -0.361854 -0.0818466 -0.443541
v -0.407756 -0.157548 -0.396044
v -0.377196 -0.145876 -0.423265
v -0.396978 -0.129282 -0.408609
v -0.502154 0.0734212 -0.303882
v -0.4876 0.0875154 -0.32309
v -0.484019 0.105191 -0.326109
v -0.487116 0.0991875 -0.322393
v -0.502208 0.0641711 -0.303952
v -0.444509 0.0641711 -0.386567
v -0.444043 0.052499 -0.385894
v -0.446765 0.0291547 -0.378113
v -0.499039 0.00581039 -0.299423
v -0.510318 0.0291547 -0.287182
v -0.503103 -0.134204 -0.270204
v -0.491825 -0.157548 -0.282444
v -0.491789 -0.158038 -0.282398
v -0.364146 0.052499 -0.457128
v -0.389746 0.052499 -0.435667
v -0.358345 0.0401569 -0.460566
v -0.440051 0.0641711 -0.392397
v -0.43409 0.0758432 -0.398947
v -0.433069 0.0991875 -0.397995
v -0.431906 0.0228935 -0.39688
v -0.366294 -0.0175081 -0.447257
v -0.420395 -0.0597906 -0.396996
v -0.43955 0.052499 -0.391723
v -0.439926 0.0758432 -0.392234
v -0.439407 0.0875154 -0.391538
v -0.443632 0.0944723 -0.38529
v -0.438404 0.105191 -0.390492
v -0.407702 -0.158038 -0.395997
v -0.358524 -0.0291545 -0.452414
v -0.35933 -0.0175081 -0.453087
v -0.420019 -0.158038 -0.384988
v -0.420359 -0.153245 -0.385359
v -0.408848 -0.142475 -0.397112
v -0.411837 -0.0991873 -0.39962
v -0.444401 0.0758432 -0.386405
v -0.457148 0.105191 -0.364618
v -0.443918 0.0875154 -0.385708
v -0.432765 -0.0408266 -0.386381
v -0.429364 -0.0991873 -0.381574
v -0.434806 -0.0758431 -0.377695
v -0.434126 -0.0875152 -0.376719
v -0.444026 -0.157548 -0.350845
v -0.487707 -0.158038 -0.288251
v -0.491628 -0.158038 -0.28263
v -0.417673 -0.0991873 -0.39465
v -0.416868 -0.110859 -0.39393
v -0.434126 -0.0175081 -0.388147
v -0.446854 0.105191 -0.379321
v -0.444401 0.105191 -0.382665
v -0.442898 0.105191 -0.384639
v -0.434072 -0.158038 -0.364967
v -0.434108 -0.157548 -0.365037
v -0.415257 -0.134204 -0.392443
v -0.428683 -0.110859 -0.380598
v -0.44399 -0.158038 -0.350799
f 1 2 5
f 1 5 12
f 1 12 24
f 1 24 44
f 1 44 69
f 1 69 95
f 1 95 94
f 1 94 129
f 1 129 152
f 1 152 151
f 1 151 150
f 1 150 138
f 1 138 105
f 1 105 77
f 1 77 50
f 1 50 48
f 1 48 27
f 1 27 14
f 1 14 7
f 1 7 3
f 1 3 9
f 1 9 19
f 1 19 33
f 1 33 32
f 1 32 36
f 1 36 40
f 1 40 22
f 1 22 10
f 1 10 4
f 1 4 2
f 2 4 6
f 2 6 13
f 2 13 26
f 2 26 47
f 2 47 72
f 2 72 98
f 2 98 118
f 2 118 88
f 2 88 62
f 2 62 41
f 2 41 23
f 2 23 11
f 2 11 5
f 3 7 8
f 3 8 9
f 4 10 21
f 4 21 38
f 4 38 61
f 4 61 86
f 4 86 115
f 4 115 146
f 4 146 145
f 4 145 157
f 4 157 153
f 4 153 133
f 4 133 130
f 4 130 97
f 4 97 70
f 4 70 45
f 4 45 25
f 4 25 13
f 4 13 6
f 5 11 12
f 7 14 15
f 7 15 16
f 7 16 17
f 7 17 8
f 8 15 18
f 8 18 19
f 8 19 9
f 8 17 20
f 8 20 15
f 10 22 21
f 11 23 12
f 12 23 24
f 13 25 26
f 14 27 28
f 14 28 29
f 14 29 15
f 15 20 16
f 15 29 28
f 15 28 30
f 15 30 31
f 15 31 18
f 16 20 17
f 18 32 33
f 18 33 19
f 18 31 34
f 18 34 35
f 18 35 36
f 18 36 32
f 21 37 38
f 21 22 37
f 22 39 37
f 22 40 35
f 22 35 39
f 23 41 42
f 23 42 43
f 23 43 24
f 24 43 44
f 25 45 46
f 25 46 26
f 26 46 47
f 27 48 28
f 28 49 30
f 28 48 50
f 28 50 49
f 30 49 51
f 30 51 52
f 30 52 31
f 31 52 34
f 34 53 35
f 34 52 51
f 34 51 54
f 34 54 55
f 34 55 56
f 34 56 53
f 35 40 36
f 35 53 57
f 35 57 58
f 35 58 37
f 35 37 39
f 37 59 60
f 37 60 61
f 37 61 38
f 37 58 57
f 37 57 59
f 41 62 63
f 41 63 64
f 41 64 42
f 42 65 43
f 42 64 65
f 43 66 44
f 43 65 66
f 44 67 68
f 44 68 69
f 44 66 67
f 45 70 71
f 45 71 46
f 46 71 47
f 47 71 73
f 47 73 74
f 47 74 75
f 47 75 72
f 49 76 51
f 49 50 76
f 50 77 78
f 50 78 76
f 51 79 54
f 51 76 79
f 53 56 80
f 53 80 57
f 54 79 81
f 54 81 82
f 54 82 112
f 54 112 83
f 54 83 55
f 55 84 85
f 55 85 61
f 55 61 56
f 55 83 84
f 56 61 60
f 56 60 59
f 56 59 80
f 57 80 59
f 61 85 86
f 62 87 63
f 62 88 87
f 63 87 64
f 64 89 120
f 64 120 90
f 64 90 91
f 64 91 65
f 64 87 92
f 64 92 93
f 64 93 89
f 65 91 66
f 66 91 90
f 66 90 94
f 66 94 95
f 66 95 96
f 66 96 68
f 66 68 67
f 68 96 95
f 68 95 69
f 70 97 73
f 70 73 71
f 72 75 99
f 72 99 98
f 73 97 74
f 74 100 75
f 74 97 130
f 74 130 100
f 75 100 101
f 75 101 102
f 75 102 99
f 76 103 79
f 76 78 104
f 76 104 103
f 77 105 106
f 77 106 78
f 78 106 104
f 79 107 81
f 79 103 107
f 81 107 108
f 81 108 109
f 81 109 110
f 81 110 82
f 82 110 111
f 82 111 112
f 83 112 113
f 83 113 84
f 84 113 85
f 85 113 114
f 85 114 115
f 85 115 86
f 87 88 116
f 87 116 117
f 87 117 92
f 88 118 116
f 89 119 120
f 89 93 119
f 90 120 121
f 90 121 94
f 92 122 93
f 92 117 123
f 92 123 102
f 92 102 124
f 92 124 122
f 93 125 119
f 93 122 125
f 94 121 126
f 94 126 127
f 94 127 128
f 94 128 129
f 98 99 131
f 98 131 118
f 99 102 123
f 99 123 132
f 99 132 131
f 100 130 133
f 100 133 134
f 100 134 135
f 100 135 101
f 101 135 102
f 102 135 136
f 102 136 124
f 103 137 108
f 103 108 107
f 103 104 137
f 104 106 139
f 104 139 137
f 105 138 128
f 105 128 106
f 106 128 139
f 108 137 119
f 108 119 109
f 109 119 125
f 109 125 140
f 109 140 134
f 109 134 141
f 109 141 142
f 109 142 110
f 110 142 111
f 111 142 143
f 111 143 114
f 111 114 113
f 111 113 112
f 114 144 145
f 114 145 146
f 114 146 115
f 114 143 144
f 116 118 123
f 116 123 117
f 118 132 123
f 118 131 132
f 119 137 126
f 119 126 120
f 120 126 121
f 122 124 147
f 122 147 148
f 122 148 134
f 122 134 125
f 124 136 135
f 124 135 147
f 125 134 149
f 125 149 140
f 126 137 139
f 126 139 128
f 126 128 127
f 128 138 150
f 128 150 151
f 128 151 152
f 128 152 129
f 133 153 154
f 133 154 134
f 134 148 155
f 134 155 135
f 134 154 156
f 134 156 141
f 134 140 149
f 135 155 148
f 135 148 147
f 141 156 143
f 141 143 142
f 143 156 154
f 143 154 144
f 144 154 145
f 145 154 157
f 153 157 154
