v -0.192581 -0.575225 -0.344276
v -0.177145 -0.575225 -0.344276
v -0.205464 -0.575225 -0.332616
v -0.204253 -0.57463 -0.344276
v -0.180912 -0.574705 -0.355976
v -0.177145 -0.574868 -0.355976
v -0.177145 -0.575225 -0.00137569
v -0.205464 -0.574496 -0.344276
v -0.205464 -0.575225 -0.00137569
v -0.191993 -0.573485 -0.355976
v -0.180912 -0.573053 -0.363709
v -0.177145 -0.573202 -0.364951
v -0.177145 -0.423269 -0.00137569
v -0.205464 -0.57283 -0.351608
v -0.204253 -0.572964 -0.351849
v -0.205464 -0.423269 -0.00137569
v -0.187713 -0.572325 -0.362306
v -0.177145 -0.5681 -0.370841
v -0.177145 -0.423269 -0.344276
v -0.205464 -0.566062 -0.357899
v -0.205464 -0.423269 -0.331414
v -0.205464 -0.560796 -0.362226
v -0.201325 -0.562179 -0.363308
v -0.191993 -0.566062 -0.365111
v -0.178248 -0.562343 -0.375128
v -0.177145 -0.562789 -0.375329
v -0.177145 -0.423284 -0.348042
v -0.180912 -0.423269 -0.344276
v -0.204253 -0.423269 -0.332616
v -0.205464 -0.423284 -0.332616
v -0.205464 -0.555649 -0.366233
v -0.205464 -0.551736 -0.369278
v -0.199645 -0.549386 -0.374126
v -0.177145 -0.55849 -0.378694
v -0.177145 -0.424117 -0.355976
v -0.192581 -0.423373 -0.344276
v -0.205464 -0.424534 -0.343074
v -0.205464 -0.528248 -0.387509
v -0.204253 -0.528664 -0.38783
v -0.180934 -0.51474 -0.410708
v -0.177145 -0.525005 -0.404698
v -0.177145 -0.425486 -0.359862
v -0.180912 -0.424489 -0.355976
v -0.204253 -0.424668 -0.344276
v -0.205464 -0.42501 -0.344316
v -0.205464 -0.514755 -0.397726
v -0.20196 -0.51602 -0.398728
v -0.186826 -0.513595 -0.408545
v -0.190696 -0.507779 -0.410708
v -0.177145 -0.517165 -0.410708
v -0.177145 -0.519679 -0.408825
v -0.177145 -0.428401 -0.365672
v -0.180912 -0.428788 -0.36451
v -0.205464 -0.428848 -0.351769
v -0.205464 -0.508939 -0.401573
v -0.199415 -0.502899 -0.409186
v -0.191713 -0.50702 -0.410708
v -0.191497 -0.507198 -0.410708
v -0.191359 -0.507303 -0.410708
v -0.177145 -0.493483 -0.410708
v -0.205464 -0.460816 -0.410708
v -0.205464 -0.499225 -0.407102
v -0.203687 -0.494852 -0.410708
v -0.203563 -0.495 -0.410708
v -0.205464 -0.492561 -0.410708
v -0.205464 -0.496592 -0.408545
f 1 2 7
f 1 7 9
f 1 9 3
f 1 3 4
f 1 4 5
f 1 5 6
f 1 6 2
f 2 6 12
f 2 12 18
f 2 18 26
f 2 26 34
f 2 34 41
f 2 41 51
f 2 51 50
f 2 50 60
f 2 60 52
f 2 52 42
f 2 42 35
f 2 35 27
f 2 27 19
f 2 19 13
f 2 13 7
f 3 8 4
f 3 9 16
f 3 16 21
f 3 21 30
f 3 30 37
f 3 37 45
f 3 45 54
f 3 54 61
f 3 61 65
f 3 65 66
f 3 66 62
f 3 62 55
f 3 55 46
f 3 46 38
f 3 38 32
f 3 32 31
f 3 31 22
f 3 22 20
f 3 20 14
f 3 14 8
f 4 8 10
f 4 10 5
f 5 10 11
f 5 11 12
f 5 12 6
f 7 13 16
f 7 16 9
f 8 14 15
f 8 15 10
f 10 15 11
f 11 15 17
f 11 17 12
f 12 17 18
f 13 19 28
f 13 28 29
f 13 29 21
f 13 21 16
f 14 20 17
f 14 17 15
f 17 20 22
f 17 22 23
f 17 23 24
f 17 24 25
f 17 25 26
f 17 26 18
f 19 27 28
f 21 29 30
f 22 31 23
f 23 31 32
f 23 32 33
f 23 33 25
f 23 25 24
f 25 33 34
f 25 34 26
f 27 35 36
f 27 36 29
f 27 29 28
f 29 36 30
f 30 36 37
f 32 38 39
f 32 39 33
f 33 39 40
f 33 40 41
f 33 41 34
f 35 42 43
f 35 43 36
f 36 43 37
f 37 43 44
f 37 44 45
f 38 46 47
f 38 47 39
f 39 47 48
f 39 48 40
f 40 48 49
f 40 49 59
f 40 59 58
f 40 58 57
f 40 57 64
f 40 64 63
f 40 63 65
f 40 65 61
f 40 61 60
f 40 60 50
f 40 50 51
f 40 51 41
f 42 52 43
f 43 52 53
f 43 53 44
f 44 53 45
f 45 53 54
f 46 55 56
f 46 56 57
f 46 57 58
f 46 58 47
f 47 58 59
f 47 59 48
f 48 59 49
f 52 61 53
f 52 60 61
f 53 61 54
f 55 62 56
f 56 62 63
f 56 63 64
f 56 64 57
f 62 66 63
f 63 66 65
