v 0.0016788 0.167607 0.567817
v 0.194938 0.167607 0.539508
v 0.0016788 0.167607 0.578748
v 0.0016788 0.376979 0.544073
v 0.194938 0.376979 0.506367
v 0.194938 0.167607 0.551657
v 0.0408603 0.167607 0.579814
v 0.0016788 0.200094 0.578489
v 0.0016788 0.376979 0.555977
v 0.194938 0.376979 0.520244
v 0.192573 0.167607 0.552312
v 0.194938 0.172751 0.551361
v 0.00584101 0.204275 0.578489
v 0.0525334 0.167607 0.579922
v 0.0408603 0.2276 0.578597
v 0.0016788 0.204275 0.578395
v 0.00584101 0.376979 0.556186
v 0.0016788 0.362221 0.560334
v 0.00584101 0.362856 0.560507
v 0.179973 0.376979 0.527524
v 0.186708 0.373412 0.52517
v 0.188676 0.365644 0.526149
v 0.194938 0.352957 0.526228
v 0.194938 0.195912 0.550007
v 0.194938 0.203988 0.549518
v 0.193595 0.204869 0.549784
v 0.192573 0.169246 0.552211
v 0.0875528 0.167607 0.575479
v 0.0625795 0.167607 0.579332
v 0.0525334 0.215937 0.578691
v 0.0525334 0.2276 0.578251
v 0.0408603 0.239283 0.577906
v 0.0291872 0.2276 0.578287
v 0.0175141 0.215937 0.578403
v 0.0016788 0.211756 0.578122
v 0.0176655 0.376979 0.555682
v 0.0148654 0.363061 0.560572
v 0.0016788 0.344307 0.563416
v 0.00584101 0.344307 0.563935
v 0.00584101 0.35597 0.561868
v 0.0175141 0.344307 0.56459
v 0.169227 0.376979 0.53124
v 0.173956 0.348939 0.53631
v 0.176284 0.341151 0.537362
v 0.188335 0.318277 0.53765
v 0.190605 0.309299 0.538665
v 0.194938 0.297678 0.539256
v 0.194938 0.20614 0.549359
v 0.187048 0.246395 0.548646
v 0.0950637 0.192592 0.572281
v 0.181638 0.250556 0.549597
v 0.0875528 0.169246 0.575378
v 0.0875528 0.180929 0.574658
v 0.0758797 0.167607 0.577697
v 0.0758797 0.192592 0.576509
v 0.0758797 0.180929 0.57715
v 0.0758797 0.169246 0.577639
v 0.0642065 0.167607 0.579173
v 0.0642065 0.180929 0.57877
v 0.0642065 0.192592 0.578359
v 0.0642065 0.2276 0.576638
v 0.0525334 0.239283 0.577034
v 0.0642065 0.215937 0.577467
v 0.0291872 0.239283 0.577474
v 0.0408603 0.250945 0.576494
v 0.0291872 0.274271 0.573815
v 0.0291872 0.262628 0.575076
v 0.0291872 0.250945 0.576293
v 0.0175141 0.2276 0.577776
v 0.00584101 0.215937 0.578057
v 0.0016788 0.215937 0.577827
v 0.0270872 0.376979 0.555027
v 0.018252 0.356974 0.561717
v 0.0291872 0.354371 0.561364
v 0.0525334 0.376979 0.552679
v 0.0408603 0.376979 0.553781
v 0.0385333 0.376979 0.553997
v 0.0016788 0.340126 0.564108
v 0.0016788 0.332624 0.565224
v 0.00584101 0.332624 0.565671
v 0.0291872 0.344307 0.563654
v 0.0175141 0.332624 0.566326
v 0.0379846 0.28333 0.57244
v 0.0291872 0.332624 0.565599
v 0.166862 0.376979 0.531831
v 0.166181 0.353244 0.537419
v 0.1809 0.309299 0.541661
v 0.192573 0.285954 0.542287
v 0.169737 0.344737 0.53819
v 0.177135 0.271258 0.549021
v 0.193538 0.298395 0.539688
v 0.194938 0.285954 0.541438
v 0.194938 0.215937 0.548502
v 0.178989 0.262628 0.549431
v 0.193822 0.239283 0.546817
v 0.194938 0.253733 0.545046
v 0.194938 0.274311 0.542885
v 0.192573 0.274271 0.543684
v 0.0875528 0.192592 0.573938
v 0.0758797 0.215937 0.575068
v 0.132467 0.239283 0.561141
v 0.0758797 0.204275 0.575789
v 0.0742337 0.167607 0.577906
v 0.0758797 0.2276 0.574269
v 0.0829176 0.235143 0.572173
v 0.0642065 0.239283 0.575047
v 0.0525334 0.250945 0.57522
v 0.0175141 0.239283 0.576674
v 0.00584101 0.2276 0.577056
v 0.0016788 0.223439 0.577186
v 0.0291872 0.284724 0.572541
v 0.0175141 0.28251 0.572159
v 0.0175141 0.274271 0.573023
v 0.0175141 0.262628 0.57424
v 0.0379089 0.352157 0.560759
v 0.0642065 0.376979 0.551354
v 0.0016788 0.328463 0.5658
v 0.0016788 0.271688 0.572159
v 0.0112897 0.280378 0.571936
v 0.0414279 0.344819 0.561537
v 0.0493361 0.27134 0.572389
v 0.143629 0.376979 0.537563
v 0.154886 0.365255 0.537477
v 0.169227 0.332624 0.540321
v 0.12874 0.257176 0.560305
v 0.169227 0.262628 0.551484
v 0.169813 0.274783 0.549871
v 0.194938 0.240513 0.546284
v 0.0843176 0.2276 0.572483
v 0.0759175 0.239139 0.572901
v 0.0644336 0.251109 0.57303
v 0.00584101 0.239283 0.575839
v 0.0016788 0.2276 0.576754
v 0.0016788 0.262792 0.573088
v 0.0832581 0.375175 0.548848
v 0.0795121 0.376979 0.549086
v 0.0730039 0.376979 0.550123
v 0.0643957 0.321064 0.561335
v 0.135021 0.376979 0.539133
v 0.143251 0.376979 0.537635
v 0.146807 0.368554 0.538399
v 0.166313 0.283289 0.5491
v 0.117388 0.269208 0.560363
f 1 2 6
f 1 6 11
f 1 11 28
f 1 28 54
f 1 54 103
f 1 103 58
f 1 58 29
f 1 29 14
f 1 14 7
f 1 7 3
f 1 3 8
f 1 8 16
f 1 16 35
f 1 35 71
f 1 71 110
f 1 110 133
f 1 133 134
f 1 134 118
f 1 118 117
f 1 117 79
f 1 79 78
f 1 78 38
f 1 38 18
f 1 18 9
f 1 9 4
f 1 4 5
f 1 5 2
f 2 5 10
f 2 10 23
f 2 23 47
f 2 47 92
f 2 92 97
f 2 97 96
f 2 96 128
f 2 128 93
f 2 93 48
f 2 48 25
f 2 25 24
f 2 24 12
f 2 12 6
f 3 7 8
f 4 9 17
f 4 17 36
f 4 36 72
f 4 72 77
f 4 77 76
f 4 76 75
f 4 75 116
f 4 116 137
f 4 137 136
f 4 136 139
f 4 139 140
f 4 140 122
f 4 122 85
f 4 85 42
f 4 42 20
f 4 20 10
f 4 10 5
f 6 12 11
f 7 13 8
f 7 14 15
f 7 15 13
f 8 13 16
f 9 18 19
f 9 19 17
f 10 20 21
f 10 21 22
f 10 22 23
f 11 12 24
f 11 24 25
f 11 25 26
f 11 26 27
f 11 27 52
f 11 52 28
f 13 15 16
f 14 29 30
f 14 30 15
f 15 30 31
f 15 31 32
f 15 32 33
f 15 33 34
f 15 34 16
f 16 34 35
f 17 19 37
f 17 37 36
f 18 38 39
f 18 39 40
f 18 40 19
f 19 40 41
f 19 41 37
f 20 22 21
f 20 42 43
f 20 43 44
f 20 44 45
f 20 45 22
f 22 45 23
f 23 45 46
f 23 46 47
f 25 48 49
f 25 49 26
f 26 50 27
f 26 49 51
f 26 51 50
f 27 50 53
f 27 53 52
f 28 52 55
f 28 55 56
f 28 56 57
f 28 57 54
f 29 58 59
f 29 59 30
f 30 59 60
f 30 60 31
f 31 61 62
f 31 62 32
f 31 60 63
f 31 63 61
f 32 64 33
f 32 62 65
f 32 65 66
f 32 66 67
f 32 67 68
f 32 68 64
f 33 64 69
f 33 69 70
f 33 70 35
f 33 35 34
f 35 70 71
f 36 37 72
f 37 41 73
f 37 73 74
f 37 74 75
f 37 75 76
f 37 76 77
f 37 77 72
f 38 78 39
f 39 78 79
f 39 79 80
f 39 80 82
f 39 82 41
f 39 41 40
f 41 81 73
f 41 82 83
f 41 83 84
f 41 84 81
f 42 85 86
f 42 86 43
f 43 86 44
f 44 87 88
f 44 88 46
f 44 46 45
f 44 86 89
f 44 89 90
f 44 90 87
f 46 88 91
f 46 91 47
f 47 91 92
f 48 93 49
f 49 94 51
f 49 93 95
f 49 95 96
f 49 96 97
f 49 97 98
f 49 98 94
f 50 99 53
f 50 51 100
f 50 100 99
f 51 94 101
f 51 101 100
f 52 53 102
f 52 102 55
f 53 99 100
f 53 100 102
f 54 57 59
f 54 59 103
f 55 102 63
f 55 63 56
f 56 63 57
f 57 60 59
f 57 63 60
f 58 103 59
f 61 104 105
f 61 105 106
f 61 106 62
f 61 63 104
f 62 106 107
f 62 107 83
f 62 83 65
f 63 100 104
f 63 102 100
f 64 108 109
f 64 109 110
f 64 110 69
f 64 68 108
f 65 83 111
f 65 111 66
f 66 111 82
f 66 82 80
f 66 80 112
f 66 112 67
f 67 112 113
f 67 113 114
f 67 114 132
f 67 132 108
f 67 108 68
f 69 110 71
f 69 71 70
f 73 81 74
f 74 81 115
f 74 115 116
f 74 116 75
f 79 117 80
f 80 117 118
f 80 118 119
f 80 119 112
f 81 120 115
f 81 84 83
f 81 83 120
f 82 111 83
f 83 107 121
f 83 121 120
f 85 122 123
f 85 123 86
f 86 123 124
f 86 124 89
f 87 90 88
f 88 98 97
f 88 97 92
f 88 92 91
f 88 90 98
f 89 124 90
f 90 125 105
f 90 105 126
f 90 126 94
f 90 94 98
f 90 124 127
f 90 127 125
f 93 128 95
f 94 126 105
f 94 105 129
f 94 129 101
f 95 128 96
f 100 101 129
f 100 129 104
f 104 129 105
f 105 130 106
f 105 125 130
f 106 130 125
f 106 125 131
f 106 131 107
f 107 131 120
f 107 120 121
f 108 132 109
f 109 133 110
f 109 132 134
f 109 134 133
f 112 119 118
f 112 118 113
f 113 118 114
f 114 118 134
f 114 134 132
f 115 120 135
f 115 135 136
f 115 136 137
f 115 137 116
f 120 138 139
f 120 139 135
f 120 131 138
f 122 140 123
f 123 140 141
f 123 141 124
f 124 142 127
f 124 141 142
f 125 127 142
f 125 142 143
f 125 143 131
f 131 143 141
f 131 141 138
f 135 139 136
f 138 141 139
f 139 141 140
f 141 143 142
