v 0.00165988 -0.423269 0.375053
v -0.122538 -0.423269 0.375053
v 0.00165988 -0.575225 0.375053
v 0.00165988 -0.423269 -0.00137567
v -0.157563 -0.423269 0.367647
v -0.134207 -0.423433 0.375053
v -0.126828 -0.575225 0.375053
v 0.00165988 -0.575225 -0.00137567
v -0.199356 -0.423269 -0.00137567
v -0.169231 -0.423701 0.367647
v -0.180899 -0.423269 0.355966
v -0.145894 -0.424221 0.375053
v -0.138496 -0.57521 0.375053
v -0.157563 -0.575225 0.367647
v -0.199356 -0.575225 -0.00137567
v -0.199356 -0.423269 0.332642
v -0.181529 -0.427048 0.368494
v -0.169231 -0.427033 0.375053
v -0.199356 -0.423359 0.344286
v -0.192567 -0.424251 0.355966
v -0.192567 -0.423269 0.344286
v -0.150164 -0.574853 0.375053
v -0.169231 -0.575121 0.367647
v -0.180899 -0.575225 0.355966
v -0.199356 -0.575225 0.344286
v -0.199356 -0.426244 0.356187
v -0.192567 -0.42855 0.365067
v -0.178144 -0.429502 0.375053
v -0.169231 -0.573678 0.375053
v -0.177357 -0.57289 0.374721
v -0.181115 -0.573812 0.367941
v -0.192567 -0.574794 0.355966
v -0.199356 -0.575047 0.349186
v -0.199356 -0.430142 0.363004
v -0.178538 -0.430097 0.375053
v -0.175567 -0.573009 0.375053
v -0.177082 -0.572622 0.375053
v -0.17781 -0.572101 0.375053
v -0.199356 -0.572339 0.362598
v -0.199356 -0.572458 0.362488
v -0.199356 -0.573396 0.359098
v -0.199356 -0.57405 0.355929
v -0.199356 -0.437699 0.36422
v -0.185385 -0.437699 0.372658
v -0.181312 -0.437699 0.375053
v -0.182827 -0.568085 0.375053
v -0.188652 -0.562864 0.375053
v -0.188986 -0.562551 0.375053
v -0.199356 -0.565868 0.366652
v -0.199356 -0.5166 0.375053
v -0.189301 -0.562239 0.375053
v -0.199356 -0.561138 0.369599
v -0.199356 -0.5519 0.375053
v -0.199356 -0.557345 0.371847
f 1 2 6
f 1 6 12
f 1 12 18
f 1 18 28
f 1 28 35
f 1 35 45
f 1 45 50
f 1 50 53
f 1 53 51
f 1 51 48
f 1 48 47
f 1 47 46
f 1 46 38
f 1 38 37
f 1 37 36
f 1 36 29
f 1 29 22
f 1 22 13
f 1 13 7
f 1 7 3
f 1 3 8
f 1 8 4
f 1 4 9
f 1 9 16
f 1 16 21
f 1 21 11
f 1 11 5
f 1 5 2
f 2 5 6
f 3 7 14
f 3 14 24
f 3 24 25
f 3 25 15
f 3 15 8
f 4 8 15
f 4 15 9
f 5 10 6
f 5 11 10
f 6 10 12
f 7 13 14
f 9 15 25
f 9 25 33
f 9 33 42
f 9 42 41
f 9 41 40
f 9 40 39
f 9 39 49
f 9 49 52
f 9 52 54
f 9 54 53
f 9 53 50
f 9 50 43
f 9 43 34
f 9 34 26
f 9 26 19
f 9 19 16
f 10 17 18
f 10 18 12
f 10 11 19
f 10 19 20
f 10 20 17
f 11 21 19
f 13 22 23
f 13 23 14
f 14 23 24
f 16 19 21
f 17 20 26
f 17 26 27
f 17 27 28
f 17 28 18
f 19 26 20
f 22 29 23
f 23 29 30
f 23 30 31
f 23 31 32
f 23 32 33
f 23 33 25
f 23 25 24
f 26 34 27
f 27 34 28
f 28 34 35
f 29 36 30
f 30 36 37
f 30 37 38
f 30 38 39
f 30 39 40
f 30 40 41
f 30 41 42
f 30 42 31
f 31 42 32
f 32 42 33
f 34 43 44
f 34 44 45
f 34 45 35
f 38 46 39
f 39 46 47
f 39 47 48
f 39 48 49
f 43 50 44
f 44 50 45
f 48 51 52
f 48 52 49
f 51 53 54
f 51 54 52
