v 0.541741 0.140503 0.227746
v 0.529336 0.140503 0.227746
v 0.54224 0.134076 0.227746
v 0.549449 0.110878 0.212878
v 0.548889 0.122549 0.211077
v 0.548589 0.128518 0.210132
v 0.549661 0.140503 0.202841
v 0.572129 0.140503 0.00338349
v 0.517832 -0.10636 0.22768
v 0.518269 -0.0989901 0.227746
v 0.54383 0.110878 0.227746
v 0.54951 0.0992064 0.213075
v 0.583619 0.105465 0.105199
v 0.572204 0.108075 0.140996
v 0.551026 0.122549 0.204247
v 0.551272 0.140503 0.197702
v 0.584691 0.140503 0.00338349
v 0.563622 -0.10636 0.00338349
v 0.525376 -0.10636 0.227746
v 0.518262 -0.0992076 0.227746
v 0.543912 0.0992064 0.227746
v 0.571931 0.0930928 0.140118
v 0.574211 0.0992064 0.13421
v 0.583619 0.104402 0.105199
v 0.542158 0.064168 0.227746
v 0.541536 0.0525207 0.227746
v 0.540738 0.0406077 0.227746
v 0.550248 0.0752594 0.205279
v 0.573317 0.122549 0.132871
v 0.573672 0.11153 0.135221
v 0.587579 0.0992064 0.00338349
v 0.587319 0.110878 0.00338349
v 0.583776 0.107253 0.099225
v 0.583612 0.117088 0.082578
v 0.579079 0.140503 0.099225
v 0.578608 0.140503 0.104606
v 0.577871 0.140503 0.110887
v 0.576519 0.140503 0.116267
v 0.574573 0.140503 0.123098
v 0.575372 0.134221 0.122549
v 0.5604 0.118296 0.175586
v 0.584657 0.140503 0.00437178
v 0.585251 0.134221 0.00338349
v 0.574594 -0.10636 0.00338349
v 0.530108 -0.10636 0.227746
v 0.573146 0.0758635 0.132322
v 0.576205 0.0758635 0.122549
v 0.583776 0.101792 0.099225
v 0.5757 0.0175065 0.110887
v 0.572218 -0.0525219 0.106055
v 0.571979 -0.059288 0.105265
v 0.572102 -0.0847814 0.0945252
v 0.572306 -0.0882128 0.0880025
v 0.538594 0.0106196 0.227746
v 0.537843 -0.0641934 0.213097
v 0.53817 -0.10636 0.202446
v 0.549586 -0.0525219 0.178288
v 0.573051 -0.0291791 0.108713
v 0.584616 0.0992064 0.0758796
v 0.586951 0.087535 0.00338349
v 0.583763 0.140503 0.0268388
v 0.584793 0.122549 0.0408724
v 0.584432 0.110878 0.0758796
v 0.583961 0.111216 0.0869044
v 0.583749 0.118586 0.0758796
v 0.583571 0.128373 0.058354
v 0.574266 -0.10636 0.0130028
v 0.57516 -0.0992076 0.00338349
v 0.537112 -0.0846606 0.210747
v 0.537003 -0.0364526 0.22208
v 0.537262 -0.0291791 0.222914
v 0.583735 0.0909663 0.0853232
v 0.584029 0.0981431 0.0885516
v 0.576055 -0.0291791 0.0875413
v 0.577529 -0.00581215 0.0875413
v 0.54949 -0.10636 0.166319
v 0.561834 -0.10636 0.126919
v 0.563199 -0.10636 0.122549
v 0.566244 -0.10636 0.110887
v 0.571521 -0.0925624 0.0921753
v 0.57202 -0.095148 0.0844008
v 0.572163 -0.0991109 0.0751329
v 0.537426 -0.0758648 0.211758
v 0.586848 0.087535 0.00584323
v 0.585633 0.0666327 0.00338349
v 0.573815 -0.10636 0.0246645
v 0.575317 -0.0967428 0.00338349
v 0.573631 -0.10636 0.0291887
v 0.583653 0.0805998 0.0716849
v 0.567029 -0.10636 0.106363
v 0.568777 -0.10636 0.0948986
v 0.571938 -0.105514 0.0707625
v 0.571992 -0.10636 0.0682369
v 0.572163 -0.10636 0.0641959
v 0.573105 -0.0992076 0.0525341
v 0.576294 -0.0641934 0.0291887
v 0.576055 -0.0850714 0.00338349
v 0.571829 -0.10636 0.0700817
f 1 2 10
f 1 10 20
f 1 20 19
f 1 19 45
f 1 45 54
f 1 54 27
f 1 27 26
f 1 26 25
f 1 25 21
f 1 21 11
f 1 11 3
f 1 3 4
f 1 4 5
f 1 5 6
f 1 6 7
f 1 7 16
f 1 16 39
f 1 39 38
f 1 38 37
f 1 37 36
f 1 36 35
f 1 35 61
f 1 61 42
f 1 42 17
f 1 17 8
f 1 8 2
f 2 8 9
f 2 9 10
f 3 11 4
f 4 11 12
f 4 12 13
f 4 13 14
f 4 14 15
f 4 15 5
f 5 15 6
f 6 16 7
f 6 15 16
f 8 17 43
f 8 43 32
f 8 32 31
f 8 31 60
f 8 60 85
f 8 85 97
f 8 97 87
f 8 87 68
f 8 68 44
f 8 44 18
f 8 18 9
f 9 18 44
f 9 44 67
f 9 67 86
f 9 86 88
f 9 88 94
f 9 94 93
f 9 93 98
f 9 98 91
f 9 91 90
f 9 90 79
f 9 79 78
f 9 78 77
f 9 77 76
f 9 76 56
f 9 56 45
f 9 45 19
f 9 19 20
f 9 20 10
f 11 21 12
f 12 22 23
f 12 23 24
f 12 24 13
f 12 21 25
f 12 25 26
f 12 26 27
f 12 27 28
f 12 28 22
f 13 29 30
f 13 30 14
f 13 24 31
f 13 31 32
f 13 32 33
f 13 33 34
f 13 34 35
f 13 35 36
f 13 36 37
f 13 37 38
f 13 38 39
f 13 39 40
f 13 40 29
f 14 30 41
f 14 41 15
f 15 29 39
f 15 39 16
f 15 41 29
f 17 42 43
f 22 28 46
f 22 46 47
f 22 47 23
f 23 47 24
f 24 48 31
f 24 47 49
f 24 49 50
f 24 50 51
f 24 51 52
f 24 52 53
f 24 53 48
f 27 54 55
f 27 55 56
f 27 56 57
f 27 57 50
f 27 50 58
f 27 58 28
f 28 58 49
f 28 49 46
f 29 41 30
f 29 40 39
f 31 48 59
f 31 59 60
f 32 43 42
f 32 42 61
f 32 61 62
f 32 62 63
f 32 63 33
f 33 63 64
f 33 64 34
f 34 64 65
f 34 65 61
f 34 61 66
f 34 66 35
f 35 66 61
f 44 68 67
f 45 56 69
f 45 69 70
f 45 70 71
f 45 71 54
f 46 49 47
f 48 72 73
f 48 73 59
f 48 53 74
f 48 74 75
f 48 75 72
f 49 58 50
f 50 57 56
f 50 56 76
f 50 76 77
f 50 77 78
f 50 78 51
f 51 78 79
f 51 79 52
f 52 79 80
f 52 80 81
f 52 81 53
f 53 81 82
f 53 82 74
f 54 71 55
f 55 83 56
f 55 71 70
f 55 70 83
f 56 83 69
f 59 73 60
f 60 73 84
f 60 84 85
f 61 65 62
f 62 65 63
f 63 65 64
f 67 68 86
f 68 87 88
f 68 88 86
f 69 83 70
f 72 89 84
f 72 84 73
f 72 75 74
f 72 74 82
f 72 82 89
f 79 90 80
f 80 90 91
f 80 91 92
f 80 92 81
f 81 92 93
f 81 93 82
f 82 93 94
f 82 94 95
f 82 95 89
f 84 89 85
f 85 89 95
f 85 95 96
f 85 96 97
f 87 97 88
f 88 95 94
f 88 97 96
f 88 96 95
f 91 98 92
f 92 98 93
