v 0.420718 -0.246067 0.353022
v 0.417479 -0.246067 0.357406
v 0.410764 -0.27957 0.353022
v 0.403212 -0.246067 0.353022
v 0.413703 -0.246067 0.361851
v 0.398106 -0.320989 0.353022
v 0.317225 -0.423021 0.353022
v 0.201568 -0.423021 0.432565
v 0.201568 -0.246067 0.495106
v 0.411257 -0.246067 0.364311
v 0.409133 -0.258695 0.362401
v 0.407825 -0.266473 0.361164
v 0.394952 -0.33088 0.353022
v 0.339687 -0.423021 0.353022
v 0.201568 -0.423021 0.446726
v 0.201568 -0.246067 0.509068
v 0.407439 -0.246067 0.367702
v 0.404671 -0.246067 0.370146
v 0.403834 -0.250952 0.369413
v 0.392657 -0.320989 0.35817
v 0.393558 -0.334934 0.353022
v 0.353718 -0.402146 0.353022
v 0.336362 -0.423021 0.355649
v 0.201568 -0.397053 0.456442
v 0.203885 -0.423021 0.445886
v 0.201568 -0.247245 0.508824
v 0.21399 -0.246067 0.50337
v 0.373863 -0.246223 0.397185
v 0.390619 -0.296511 0.367335
v 0.336469 -0.246067 0.430105
v 0.386821 -0.320989 0.363302
v 0.385599 -0.328126 0.362218
v 0.391005 -0.332768 0.356
v 0.390748 -0.342937 0.353022
v 0.376245 -0.368609 0.353022
v 0.367878 -0.37909 0.354076
v 0.295171 -0.423021 0.388142
v 0.201568 -0.393953 0.457587
v 0.206095 -0.423021 0.445076
v 0.201568 -0.262264 0.505494
v 0.210836 -0.258436 0.50224
v 0.212509 -0.250952 0.503034
v 0.234457 -0.259059 0.490691
v 0.236237 -0.250952 0.491562
v 0.283715 -0.250952 0.468586
v 0.261338 -0.246067 0.480456
v 0.352753 -0.262628 0.410812
v 0.333637 -0.262628 0.427615
v 0.340932 -0.297637 0.410674
v 0.355756 -0.32033 0.390815
v 0.382187 -0.309313 0.370895
v 0.30815 -0.246067 0.45496
v 0.310703 -0.250952 0.451278
v 0.30918 -0.262229 0.449231
v 0.335633 -0.250952 0.429372
v 0.379956 -0.332266 0.365899
v 0.384268 -0.335886 0.360981
v 0.348977 -0.323431 0.395826
v 0.389332 -0.344305 0.353847
v 0.39019 -0.344305 0.353022
v 0.382509 -0.359238 0.353022
v 0.37987 -0.356795 0.356428
v 0.359489 -0.358354 0.371674
v 0.308794 -0.331902 0.425629
v 0.285409 -0.366808 0.425584
v 0.259279 -0.412194 0.422146
v 0.269383 -0.421531 0.409238
v 0.249582 -0.423021 0.424041
v 0.201568 -0.333634 0.479799
v 0.207747 -0.423021 0.444419
v 0.211973 -0.387179 0.455937
v 0.204679 -0.262437 0.504073
v 0.201568 -0.270094 0.503095
v 0.222786 -0.28125 0.490614
v 0.268718 -0.292267 0.466982
v 0.270134 -0.285962 0.46767
v 0.272709 -0.274286 0.468922
v 0.285002 -0.246067 0.468999
v 0.281655 -0.26022 0.467593
v 0.286203 -0.296754 0.457312
v 0.323812 -0.285962 0.429235
v 0.297402 -0.296944 0.44914
v 0.305705 -0.246067 0.457037
v 0.304868 -0.250952 0.456365
v 0.303731 -0.257552 0.455418
v 0.291974 -0.292267 0.455311
v 0.37234 -0.332647 0.372453
v 0.33102 -0.320989 0.412186
v 0.295578 -0.309313 0.446756
v 0.382574 -0.344305 0.359682
v 0.388409 -0.348532 0.353022
v 0.353933 -0.332647 0.388417
v 0.385577 -0.354387 0.353022
v 0.374807 -0.352118 0.362875
v 0.316453 -0.328784 0.42123
v 0.303752 -0.327225 0.432061
v 0.280647 -0.33923 0.443915
v 0.262003 -0.401731 0.425538
v 0.254323 -0.404849 0.429922
v 0.246557 -0.410635 0.432794
v 0.243532 -0.418413 0.43093
v 0.241279 -0.423021 0.429937
v 0.201568 -0.302263 0.491348
v 0.211437 -0.293255 0.490737
v 0.227892 -0.423021 0.436277
v 0.210943 -0.42108 0.443854
v 0.222314 -0.409093 0.443732
v 0.236516 -0.39099 0.44474
v 0.268826 -0.327225 0.455342
v 0.262475 -0.296754 0.46854
v 0.246835 -0.283173 0.479356
v 0.201568 -0.271012 0.502805
v 0.215577 -0.285477 0.491944
v 0.258485 -0.305311 0.467532
v 0.280196 -0.31522 0.455219
v 0.281934 -0.309313 0.456182
v 0.292789 -0.246067 0.464767
v 0.290258 -0.300045 0.454165
v 0.297423 -0.246067 0.462109
v 0.293025 -0.285962 0.45609
v 0.287769 -0.309313 0.452592
v 0.293562 -0.317888 0.444969
v 0.328961 -0.330343 0.410384
v 0.376738 -0.344305 0.364601
v 0.351916 -0.341222 0.386629
v 0.282856 -0.332647 0.445534
v 0.270242 -0.352793 0.444679
v 0.25694 -0.397053 0.431969
v 0.235851 -0.423021 0.433008
v 0.236087 -0.423021 0.432886
v 0.204078 -0.297343 0.492157
v 0.248659 -0.377323 0.444923
v 0.285602 -0.320452 0.449277
f 1 2 3
f 1 3 6
f 1 6 13
f 1 13 21
f 1 21 34
f 1 34 60
f 1 60 91
f 1 91 93
f 1 93 61
f 1 61 35
f 1 35 22
f 1 22 14
f 1 14 7
f 1 7 4
f 1 4 9
f 1 9 16
f 1 16 27
f 1 27 46
f 1 46 78
f 1 78 117
f 1 117 119
f 1 119 83
f 1 83 52
f 1 52 30
f 1 30 18
f 1 18 17
f 1 17 10
f 1 10 5
f 1 5 2
f 2 5 6
f 2 6 3
f 4 7 8
f 4 8 9
f 5 10 11
f 5 11 12
f 5 12 13
f 5 13 6
f 7 14 23
f 7 23 37
f 7 37 68
f 7 68 102
f 7 102 130
f 7 130 129
f 7 129 105
f 7 105 70
f 7 70 39
f 7 39 25
f 7 25 15
f 7 15 8
f 8 15 24
f 8 24 38
f 8 38 69
f 8 69 103
f 8 103 112
f 8 112 73
f 8 73 40
f 8 40 26
f 8 26 16
f 8 16 9
f 10 17 11
f 11 17 18
f 11 18 19
f 11 19 20
f 11 20 13
f 11 13 12
f 13 20 21
f 14 22 23
f 15 25 24
f 16 26 27
f 18 28 29
f 18 29 19
f 18 30 28
f 19 29 20
f 20 29 31
f 20 31 32
f 20 32 33
f 20 33 21
f 21 33 34
f 22 35 36
f 22 36 23
f 23 36 37
f 24 25 39
f 24 39 38
f 26 40 41
f 26 41 42
f 26 42 27
f 27 42 41
f 27 41 43
f 27 43 44
f 27 44 45
f 27 45 46
f 28 47 29
f 28 30 47
f 29 47 48
f 29 48 49
f 29 49 50
f 29 50 51
f 29 51 31
f 30 52 53
f 30 53 54
f 30 54 55
f 30 55 47
f 31 51 50
f 31 50 32
f 32 56 57
f 32 57 33
f 32 50 58
f 32 58 56
f 33 57 59
f 33 59 34
f 34 59 60
f 35 61 62
f 35 62 36
f 36 62 37
f 37 62 63
f 37 63 64
f 37 64 65
f 37 65 66
f 37 66 67
f 37 67 68
f 38 39 70
f 38 70 71
f 38 71 69
f 40 72 41
f 40 73 74
f 40 74 72
f 41 72 75
f 41 75 76
f 41 76 43
f 43 76 77
f 43 77 45
f 43 45 44
f 45 78 46
f 45 77 76
f 45 76 79
f 45 79 80
f 45 80 78
f 47 55 48
f 48 55 54
f 48 54 81
f 48 81 49
f 49 81 50
f 50 81 82
f 50 82 58
f 52 83 84
f 52 84 85
f 52 85 53
f 53 85 54
f 54 85 86
f 54 86 82
f 54 82 81
f 56 58 87
f 56 87 57
f 57 87 59
f 58 88 59
f 58 59 87
f 58 82 89
f 58 89 88
f 59 90 91
f 59 91 60
f 59 88 92
f 59 92 90
f 61 93 62
f 62 93 94
f 62 94 95
f 62 95 64
f 62 64 63
f 64 95 96
f 64 96 97
f 64 97 65
f 65 97 98
f 65 98 66
f 66 98 68
f 66 68 67
f 68 98 99
f 68 99 100
f 68 100 101
f 68 101 102
f 69 71 104
f 69 104 103
f 70 105 106
f 70 106 107
f 70 107 108
f 70 108 109
f 70 109 71
f 71 109 104
f 72 74 110
f 72 110 111
f 72 111 75
f 73 112 74
f 74 112 113
f 74 113 114
f 74 114 115
f 74 115 110
f 75 111 110
f 75 110 116
f 75 116 80
f 75 80 76
f 76 80 79
f 78 80 86
f 78 86 117
f 80 116 118
f 80 118 86
f 82 86 89
f 83 119 120
f 83 120 86
f 83 86 84
f 84 86 85
f 86 118 89
f 86 120 117
f 88 89 92
f 89 118 121
f 89 121 122
f 89 122 123
f 89 123 92
f 90 124 93
f 90 93 91
f 90 92 123
f 90 123 124
f 93 124 123
f 93 123 125
f 93 125 94
f 94 125 95
f 95 125 122
f 95 122 96
f 96 122 97
f 97 122 126
f 97 126 127
f 97 127 100
f 97 100 128
f 97 128 99
f 97 99 98
f 99 128 100
f 100 127 115
f 100 115 129
f 100 129 130
f 100 130 101
f 101 130 102
f 103 104 131
f 103 131 112
f 104 113 112
f 104 112 131
f 104 109 114
f 104 114 113
f 105 108 107
f 105 107 106
f 105 129 132
f 105 132 108
f 108 132 109
f 109 132 115
f 109 115 114
f 110 115 116
f 115 127 133
f 115 133 122
f 115 122 121
f 115 121 116
f 115 132 129
f 116 121 118
f 117 120 119
f 122 133 126
f 122 125 123
f 126 133 127
