v -0.217157 -0.355482 0.450863
v -0.199336 -0.45566 0.414363
v -0.199336 -0.484088 0.414363
v -0.217157 -0.355482 0.465471
v -0.217157 -0.160332 0.506865
v 0.00165988 -0.523606 0.414363
v -0.195866 -0.487411 0.414363
v -0.199336 -0.479683 0.417193
v -0.216407 -0.355482 0.46584
v -0.217157 -0.344111 0.469157
v -0.201499 -0.423068 0.447339
v -0.201499 -0.411296 0.453619
v -0.201499 -0.405691 0.456214
v -0.201499 -0.402288 0.457614
v -0.201499 -0.400126 0.458395
v -0.217157 -0.160332 0.519779
v 0.00165988 -0.160332 0.55333
v 0.00165988 -0.566568 0.414363
v -0.192718 -0.490173 0.414363
v -0.197258 -0.477681 0.419522
v -0.199336 -0.47652 0.419006
v -0.214501 -0.355482 0.466754
v -0.212809 -0.354001 0.468022
v -0.216407 -0.344551 0.469348
v -0.217157 -0.307796 0.479962
v -0.199336 -0.431236 0.443905
v -0.199336 -0.470754 0.422279
v -0.199336 -0.454499 0.43136
v -0.198137 -0.455019 0.431669
v -0.199379 -0.409134 0.45555
v -0.178174 -0.399125 0.468066
v -0.181601 -0.391597 0.469569
v -0.188841 -0.388074 0.467741
v -0.201499 -0.391117 0.461285
v -0.202377 -0.160332 0.526913
v -0.217157 -0.16926 0.518894
v 0.00165988 -0.160332 0.564961
v 0.00165988 -0.566047 0.41479
v -0.00585819 -0.567048 0.414363
v -0.182843 -0.497781 0.414363
v -0.189483 -0.480524 0.421262
v -0.215786 -0.308716 0.480272
v -0.199443 -0.374941 0.467299
v -0.192675 -0.379025 0.468877
v -0.217157 -0.227117 0.503917
v -0.198715 -0.432117 0.443669
v -0.177896 -0.422067 0.456214
v -0.151764 -0.396882 0.478547
v -0.156391 -0.390116 0.479711
v -0.163802 -0.385631 0.478709
v -0.166115 -0.379305 0.479667
v -0.194581 -0.160332 0.529729
v -0.201114 -0.16926 0.526324
v -0.217157 -0.180952 0.51714
v -0.000888993 -0.160332 0.56471
v 0.00165988 -0.16926 0.563678
v -0.00585819 -0.566047 0.415144
v 0.00165988 -0.559241 0.419522
v -0.0408997 -0.560722 0.420554
v -0.0525516 -0.566968 0.416486
v -0.017553 -0.567689 0.414363
v -0.180187 -0.499703 0.414363
v -0.176054 -0.490854 0.420554
v -0.180316 -0.484368 0.422485
v -0.190361 -0.457582 0.433129
v -0.177232 -0.364851 0.479431
v -0.177274 -0.285974 0.502796
v -0.217157 -0.190681 0.514707
v -0.177296 -0.445009 0.444317
v -0.0975101 -0.554356 0.414363
v -0.092648 -0.557559 0.414363
v -0.0921125 -0.54771 0.419743
v -0.12966 -0.432717 0.467329
v -0.145874 -0.398804 0.479579
v -0.145874 -0.390997 0.483072
v -0.141269 -0.375101 0.49062
v -0.15215 -0.362489 0.490384
v -0.169071 -0.160332 0.538721
v -0.19955 -0.176708 0.525631
v -0.192546 -0.16926 0.529257
v -0.217157 -0.182193 0.51686
v -0.00583677 -0.160332 0.564209
v -0.00560117 -0.181072 0.56101
v -0.0175101 -0.227637 0.552386
v -0.00155297 -0.187879 0.560406
v 0.00165988 -0.173585 0.563
v -0.00857841 -0.160332 0.563899
v -0.0213013 -0.160332 0.562455
v -0.0291835 -0.166137 0.560656
v -0.017553 -0.566047 0.41566
v -0.0525516 -0.561123 0.42082
v 0.00165988 -0.539141 0.433438
v -0.010399 -0.525288 0.443595
v -0.064225 -0.566688 0.416545
v -0.064225 -0.569211 0.414363
v -0.0568354 -0.569331 0.414363
v -0.0525516 -0.569331 0.414363
v -0.0408997 -0.56881 0.414363
v -0.119208 -0.540022 0.414363
v -0.187491 -0.234524 0.513852
v -0.204562 -0.204295 0.515813
v -0.0836948 -0.563125 0.414363
v -0.0779974 -0.55804 0.419051
v -0.0879572 -0.554236 0.417739
v -0.0843374 -0.550232 0.4211
v -0.129874 -0.409375 0.47893
v -0.0702223 -0.560322 0.420245
v -0.133944 -0.403048 0.480891
v -0.134201 -0.390997 0.486198
v -0.134201 -0.383429 0.489397
v -0.134201 -0.377584 0.491667
v -0.111454 -0.356683 0.503902
v -0.0939331 -0.339066 0.513705
v -0.119465 -0.35324 0.502679
v -0.145938 -0.320928 0.503504
v -0.153371 -0.317045 0.502369
v -0.157376 -0.308997 0.503312
v -0.164423 -0.304913 0.502266
v -0.15774 -0.160332 0.541404
v -0.192482 -0.180752 0.526692
v -0.166501 -0.166858 0.537778
v -0.15517 -0.17895 0.537851
v -0.158447 -0.170181 0.53909
v -0.0291835 -0.227637 0.55103
v -0.0241714 -0.245855 0.548701
v -0.0175101 -0.239289 0.550441
v 0.00165988 -0.184876 0.561217
v -0.0408568 -0.204295 0.553359
v -0.037901 -0.160332 0.560553
v -0.0355449 -0.163815 0.560288
v -0.0123267 -0.525288 0.443595
v -0.064225 -0.560842 0.420598
v 0.00165988 -0.521924 0.445217
v 0.00165988 -0.519402 0.446868
v 0.00165988 -0.513316 0.450671
v -0.0681232 -0.56877 0.414363
v -0.0792397 -0.565447 0.414363
v -0.122527 -0.410776 0.479549
v -0.128268 -0.385111 0.490134
v -0.0768408 -0.566688 0.414363
v -0.0751272 -0.567129 0.414363
v 0.00165988 -0.503266 0.455934
v -0.00283812 -0.502746 0.455609
v -0.0525516 -0.538421 0.432569
v -0.0597056 -0.537299 0.432053
v -0.0759197 -0.528851 0.433512
v -0.0992236 -0.469834 0.456538
v -0.107941 -0.36337 0.502546
v -0.0875502 -0.341228 0.514619
v -0.0875502 -0.33266 0.517228
v -0.119657 -0.160332 0.549025
v -0.140262 -0.198689 0.536952
v -0.145874 -0.16926 0.541979
v -0.181023 -0.192643 0.526884
v -0.105842 -0.281009 0.525439
v -0.0408568 -0.215946 0.551472
v -0.0175101 -0.246936 0.548996
v -0.0525302 -0.204295 0.5519
v -0.0642035 -0.192603 0.552327
v -0.0758769 -0.180952 0.552711
v -0.0365088 -0.234804 0.548834
v -0.0473682 -0.280729 0.537011
v -0.0408568 -0.274323 0.539547
v -0.0408568 -0.282251 0.537571
v -0.0291835 -0.274323 0.540888
v -0.00583677 -0.227637 0.552961
v 0.00165988 -0.188479 0.560553
v -0.0525302 -0.192603 0.553787
v -0.0875502 -0.160332 0.554347
v -0.0875502 -0.16926 0.553065
v -0.0642035 -0.180952 0.554155
v -0.120471 -0.386392 0.490738
v -0.099245 -0.365051 0.503312
v 0.00165988 -0.480324 0.466164
v 5.34462e-05 -0.478482 0.466798
v -0.00585819 -0.471675 0.469024
v -0.017553 -0.44513 0.47924
v -0.0408997 -0.43556 0.480183
v -0.0755342 -0.344992 0.515533
v -0.0758769 -0.33266 0.519484
v -0.0703936 -0.315483 0.525277
v -0.082474 -0.304272 0.52538
v -0.0943615 -0.292901 0.525469
v -0.0992236 -0.16926 0.550986
v -0.110576 -0.160332 0.550735
v -0.134201 -0.192603 0.539414
v -0.123598 -0.205376 0.538706
v -0.134201 -0.201452 0.537527
v -0.0875502 -0.285974 0.528343
v -0.00812861 -0.246856 0.548996
v -0.0175101 -0.274323 0.541124
v -0.0486962 -0.223553 0.548937
v -0.0749345 -0.308596 0.525896
v -0.0642035 -0.316764 0.525764
v -0.0525302 -0.309317 0.528859
v -0.0291835 -0.283412 0.538028
v 0.00165988 -0.227637 0.55246
v -0.0992236 -0.160332 0.552755
v -0.0714003 -0.350597 0.513735
v 0.00165988 -0.476921 0.467668
v 0.00165988 -0.473197 0.469289
v -0.0462116 -0.385111 0.501809
v -0.0642035 -0.344311 0.516727
v -0.00583677 -0.274323 0.540888
v 0.00165988 -0.274323 0.540416
v 0.00165988 -0.238728 0.549807
v 0.00165988 -0.232602 0.551355
v -0.00583677 -0.283051 0.53791
v -0.0525302 -0.317805 0.526162
v -0.0408568 -0.309317 0.529036
v -0.0642035 -0.351358 0.514
v 0.00165988 -0.446931 0.479785
v -0.00585819 -0.446611 0.479756
v -0.0384151 -0.385431 0.501956
v -0.0525302 -0.351838 0.514133
v 0.00165988 -0.282731 0.537778
v -0.0291835 -0.309317 0.528903
v 0.00165988 -0.316924 0.525852
v 0.00165988 -0.309317 0.528535
v -0.00585819 -0.437682 0.483131
v 0.00165988 -0.437682 0.483117
v -0.0175315 -0.413379 0.491947
v -0.0292049 -0.385471 0.501971
v -0.0292049 -0.379305 0.504153
v -0.0175315 -0.379305 0.50402
v 0.00165988 -0.350958 0.513823
v 0.00165988 -0.413138 0.491829
v -0.00585819 -0.413258 0.491873
f 1 2 3
f 1 3 4
f 1 4 10
f 1 10 25
f 1 25 45
f 1 45 68
f 1 68 81
f 1 81 54
f 1 54 36
f 1 36 16
f 1 16 5
f 1 5 2
f 2 6 18
f 2 18 39
f 2 39 61
f 2 61 98
f 2 98 97
f 2 97 96
f 2 96 95
f 2 95 136
f 2 136 141
f 2 141 140
f 2 140 137
f 2 137 102
f 2 102 71
f 2 71 70
f 2 70 99
f 2 99 62
f 2 62 40
f 2 40 19
f 2 19 7
f 2 7 3
f 2 5 6
f 3 7 8
f 3 8 4
f 4 9 10
f 4 8 11
f 4 11 12
f 4 12 13
f 4 13 14
f 4 14 15
f 4 15 9
f 5 16 35
f 5 35 52
f 5 52 78
f 5 78 119
f 5 119 151
f 5 151 185
f 5 185 198
f 5 198 169
f 5 169 129
f 5 129 88
f 5 88 87
f 5 87 82
f 5 82 55
f 5 55 37
f 5 37 17
f 5 17 6
f 6 17 37
f 6 37 56
f 6 56 86
f 6 86 127
f 6 127 167
f 6 167 197
f 6 197 207
f 6 207 206
f 6 206 205
f 6 205 216
f 6 216 219
f 6 219 218
f 6 218 226
f 6 226 227
f 6 227 221
f 6 221 212
f 6 212 201
f 6 201 200
f 6 200 174
f 6 174 142
f 6 142 135
f 6 135 134
f 6 134 133
f 6 133 92
f 6 92 58
f 6 58 38
f 6 38 18
f 7 19 20
f 7 20 8
f 8 20 21
f 8 21 11
f 9 22 10
f 9 15 22
f 10 23 24
f 10 24 25
f 10 22 23
f 11 26 12
f 11 21 27
f 11 27 28
f 11 28 29
f 11 29 26
f 12 30 13
f 12 26 30
f 13 30 31
f 13 31 14
f 14 31 32
f 14 32 15
f 15 32 33
f 15 33 34
f 15 34 23
f 15 23 22
f 16 36 35
f 18 38 39
f 19 40 20
f 20 29 28
f 20 28 27
f 20 27 21
f 20 40 41
f 20 41 29
f 23 42 24
f 23 34 43
f 23 43 44
f 23 44 42
f 24 42 25
f 25 42 45
f 26 46 30
f 26 29 46
f 29 41 46
f 30 46 47
f 30 47 48
f 30 48 31
f 31 48 49
f 31 49 50
f 31 50 32
f 32 50 33
f 33 50 51
f 33 51 44
f 33 44 43
f 33 43 34
f 35 36 53
f 35 53 52
f 36 54 53
f 37 55 56
f 38 57 39
f 38 58 59
f 38 59 57
f 39 60 61
f 39 57 60
f 40 62 41
f 41 62 63
f 41 63 64
f 41 64 65
f 41 65 46
f 42 44 66
f 42 66 45
f 44 51 66
f 45 67 68
f 45 66 67
f 46 65 63
f 46 63 69
f 46 69 47
f 47 69 70
f 47 70 71
f 47 71 72
f 47 72 73
f 47 73 74
f 47 74 48
f 48 75 49
f 48 74 75
f 49 75 76
f 49 76 50
f 50 76 77
f 50 77 51
f 51 77 66
f 52 53 78
f 53 54 79
f 53 79 80
f 53 80 78
f 54 81 79
f 55 82 56
f 56 83 84
f 56 84 85
f 56 85 86
f 56 82 87
f 56 87 88
f 56 88 89
f 56 89 83
f 57 90 60
f 57 59 91
f 57 91 90
f 58 92 59
f 59 92 93
f 59 93 91
f 60 94 95
f 60 95 96
f 60 96 97
f 60 97 98
f 60 98 61
f 60 90 91
f 60 91 94
f 62 99 63
f 63 65 64
f 63 99 70
f 63 70 69
f 66 77 67
f 67 100 68
f 67 77 100
f 68 100 101
f 68 101 79
f 68 79 81
f 71 102 103
f 71 103 104
f 71 104 72
f 72 104 105
f 72 105 73
f 73 106 74
f 73 105 103
f 73 103 107
f 73 107 106
f 74 106 108
f 74 108 75
f 75 108 109
f 75 109 110
f 75 110 76
f 76 110 111
f 76 111 112
f 76 112 113
f 76 113 114
f 76 114 115
f 76 115 116
f 76 116 117
f 76 117 118
f 76 118 77
f 77 118 100
f 78 80 79
f 78 79 120
f 78 120 121
f 78 121 122
f 78 122 123
f 78 123 119
f 79 101 100
f 79 100 118
f 79 118 117
f 79 117 120
f 83 89 84
f 84 124 125
f 84 125 126
f 84 126 127
f 84 127 85
f 84 89 128
f 84 128 124
f 85 127 86
f 88 129 130
f 88 130 89
f 89 130 128
f 91 131 132
f 91 132 94
f 91 93 131
f 92 133 93
f 93 133 134
f 93 134 135
f 93 135 131
f 94 136 95
f 94 132 107
f 94 107 136
f 102 137 107
f 102 107 103
f 103 105 104
f 106 138 139
f 106 139 108
f 106 107 138
f 107 137 140
f 107 140 141
f 107 141 136
f 107 132 131
f 107 131 142
f 107 142 143
f 107 143 144
f 107 144 145
f 107 145 146
f 107 146 147
f 107 147 138
f 108 139 109
f 109 139 110
f 110 139 111
f 111 148 112
f 111 139 148
f 112 148 149
f 112 149 113
f 113 149 150
f 113 150 114
f 114 150 115
f 115 150 120
f 115 120 116
f 116 120 117
f 119 123 152
f 119 152 153
f 119 153 151
f 120 154 121
f 120 150 154
f 121 154 150
f 121 150 155
f 121 155 122
f 122 155 152
f 122 152 123
f 124 128 156
f 124 156 125
f 125 157 126
f 125 156 158
f 125 158 159
f 125 159 160
f 125 160 161
f 125 161 162
f 125 162 163
f 125 163 164
f 125 164 165
f 125 165 157
f 126 157 166
f 126 166 167
f 126 167 127
f 128 168 159
f 128 159 158
f 128 158 156
f 128 130 129
f 128 129 168
f 129 169 170
f 129 170 171
f 129 171 168
f 131 135 142
f 138 172 139
f 138 147 172
f 139 172 173
f 139 173 148
f 142 174 175
f 142 175 143
f 143 175 176
f 143 176 177
f 143 177 178
f 143 178 146
f 143 146 145
f 143 145 144
f 146 178 147
f 147 178 173
f 147 173 172
f 148 173 179
f 148 179 149
f 149 179 180
f 149 180 150
f 150 180 181
f 150 181 182
f 150 182 183
f 150 183 155
f 151 184 185
f 151 153 152
f 151 152 186
f 151 186 187
f 151 187 184
f 152 188 186
f 152 155 183
f 152 183 182
f 152 182 189
f 152 189 188
f 157 190 166
f 157 165 191
f 157 191 190
f 159 168 160
f 160 171 170
f 160 170 161
f 160 168 171
f 161 170 184
f 161 184 192
f 161 192 189
f 161 189 193
f 161 193 162
f 162 193 181
f 162 181 163
f 163 181 164
f 164 181 194
f 164 194 165
f 165 194 195
f 165 195 196
f 165 196 191
f 166 190 197
f 166 197 167
f 169 198 170
f 170 198 185
f 170 185 184
f 173 178 199
f 173 199 179
f 174 200 175
f 175 200 201
f 175 201 177
f 175 177 176
f 177 201 202
f 177 202 199
f 177 199 178
f 179 199 203
f 179 203 194
f 179 194 180
f 180 194 181
f 181 193 182
f 182 193 189
f 184 187 189
f 184 189 192
f 186 188 187
f 187 188 189
f 190 191 204
f 190 204 205
f 190 205 206
f 190 206 207
f 190 207 197
f 191 208 204
f 191 196 209
f 191 209 210
f 191 210 208
f 194 203 209
f 194 209 195
f 195 209 196
f 199 211 203
f 199 202 211
f 201 212 213
f 201 213 202
f 202 213 214
f 202 214 203
f 202 203 211
f 203 214 215
f 203 215 209
f 204 208 216
f 204 216 205
f 208 210 217
f 208 217 218
f 208 218 219
f 208 219 216
f 209 215 210
f 210 215 217
f 212 220 213
f 212 221 222
f 212 222 220
f 213 220 214
f 214 220 222
f 214 222 215
f 215 222 223
f 215 223 224
f 215 224 225
f 215 225 217
f 217 225 226
f 217 226 218
f 221 227 228
f 221 228 222
f 222 228 223
f 223 228 225
f 223 225 224
f 225 228 227
f 225 227 226
