v -0.391004 -0.575225 -0.00137569
v -0.398216 -0.575181 -0.00137569
v -0.384496 -0.575225 -0.00137569
v -0.391004 -0.575225 0.0758761
v -0.402676 -0.575077 -0.00137569
v -0.384496 -0.423269 -0.00137569
v -0.384496 -0.575225 0.0823656
v -0.384496 -0.575196 0.0940341
v -0.391004 -0.575166 0.0875285
v -0.402676 -0.574928 0.00584918
v -0.407627 -0.57405 -0.00137569
v -0.391004 -0.574972 0.099197
v -0.391004 -0.423269 -0.00137569
v -0.384496 -0.423269 0.0525231
v -0.384496 -0.575106 0.105703
v -0.384496 -0.574928 0.117371
v -0.410501 -0.57341 -0.00137569
v -0.398588 -0.573306 0.099197
v -0.391004 -0.574556 0.110866
v -0.402676 -0.423983 -0.00137569
v -0.391004 -0.423269 0.0525231
v -0.384496 -0.423284 0.0642076
v -0.384496 -0.574348 0.12896
v -0.410192 -0.573277 0.00584918
v -0.416622 -0.566553 -0.00137569
v -0.397977 -0.572905 0.110866
v -0.384496 -0.573946 0.134218
v -0.387542 -0.573336 0.134218
v -0.411134 -0.428282 -0.00137569
v -0.402676 -0.424281 0.00584918
v -0.391004 -0.424221 0.099197
v -0.391004 -0.423745 0.0875285
v -0.391004 -0.423448 0.0758761
v -0.391004 -0.423299 0.0642076
v -0.384496 -0.423344 0.0758761
v -0.409571 -0.572845 0.0175177
v -0.41953 -0.562834 -0.00137569
v -0.408874 -0.57225 0.0291861
v -0.408513 -0.571908 0.0350524
v -0.397378 -0.572399 0.118026
v -0.403145 -0.566077 0.110866
v -0.405204 -0.565259 0.100076
v -0.384496 -0.573485 0.138774
v -0.386127 -0.572711 0.142195
v -0.412925 -0.434218 -0.00137569
v -0.42253 -0.4705 0.161919
v -0.410688 -0.42858 0.00584918
v -0.399102 -0.42852 0.099197
v -0.39982 -0.428044 0.0875285
v -0.391004 -0.424935 0.110866
v -0.384496 -0.423998 0.110866
v -0.384496 -0.423686 0.099197
v -0.384496 -0.423478 0.0875285
v -0.420814 -0.561108 -0.00137569
v -0.411603 -0.56685 0.0397197
v -0.413461 -0.566077 0.0291861
v -0.408446 -0.560156 0.104568
v -0.399749 -0.566166 0.122166
v -0.421842 -0.539211 0.108724
v -0.42253 -0.540163 0.103289
v -0.42253 -0.541576 0.099197
v -0.388688 -0.566464 0.146015
v -0.384496 -0.572964 0.143154
v -0.384496 -0.571253 0.147613
v -0.384496 -0.570019 0.149403
v -0.413759 -0.437699 -0.00137569
v -0.42253 -0.497202 0.161919
v -0.393994 -0.5094 0.161919
v -0.384496 -0.437699 0.150091
v -0.384496 -0.429041 0.144049
v -0.386499 -0.429874 0.14293
v -0.38851 -0.428223 0.134218
v -0.397627 -0.430395 0.118778
v -0.398383 -0.429235 0.110866
v -0.409969 -0.429339 0.0175177
v -0.42253 -0.528813 -0.00137569
v -0.391715 -0.427554 0.122614
v -0.384496 -0.426349 0.134218
v -0.384496 -0.425054 0.122582
v -0.42253 -0.55553 0.0175177
v -0.422073 -0.559308 -0.00137569
v -0.416775 -0.55553 0.0642076
v -0.418837 -0.546708 0.099197
v -0.42253 -0.543094 0.0904856
v -0.3981 -0.562343 0.131102
v -0.406239 -0.554727 0.123301
v -0.409988 -0.551052 0.119913
v -0.42253 -0.537872 0.109091
v -0.384496 -0.566464 0.154502
v -0.386723 -0.562849 0.155094
v -0.397929 -0.53872 0.161919
v -0.42253 -0.501947 0.155973
v -0.421641 -0.504327 0.154886
v -0.392441 -0.511676 0.161919
v -0.390174 -0.515231 0.161919
v -0.384496 -0.526106 0.161919
v -0.42253 -0.558594 -0.00137569
v -0.42253 -0.558297 0.000702262
v -0.422166 -0.52856 0.12255
v -0.400807 -0.555024 0.134682
v -0.42253 -0.528798 0.121447
v -0.42253 -0.532651 0.116428
v -0.42253 -0.534376 0.114174
v -0.384496 -0.564783 0.156868
v -0.384496 -0.561138 0.161919
v -0.385144 -0.560201 0.161919
v -0.39654 -0.541056 0.161919
v -0.409228 -0.526433 0.153288
f 1 2 5
f 1 5 11
f 1 11 17
f 1 17 25
f 1 25 37
f 1 37 54
f 1 54 81
f 1 81 97
f 1 97 76
f 1 76 66
f 1 66 45
f 1 45 29
f 1 29 20
f 1 20 13
f 1 13 6
f 1 6 3
f 1 3 7
f 1 7 4
f 1 4 2
f 2 4 5
f 3 6 14
f 3 14 22
f 3 22 35
f 3 35 53
f 3 53 52
f 3 52 51
f 3 51 79
f 3 79 78
f 3 78 70
f 3 70 69
f 3 69 96
f 3 96 105
f 3 105 104
f 3 104 89
f 3 89 65
f 3 65 64
f 3 64 63
f 3 63 43
f 3 43 27
f 3 27 23
f 3 23 16
f 3 16 15
f 3 15 8
f 3 8 7
f 4 7 8
f 4 8 9
f 4 9 5
f 5 10 11
f 5 9 12
f 5 12 10
f 6 13 21
f 6 21 14
f 8 15 9
f 9 15 16
f 9 16 12
f 10 12 11
f 11 12 18
f 11 18 17
f 12 16 19
f 12 19 18
f 13 20 21
f 14 21 22
f 16 23 19
f 17 24 25
f 17 18 24
f 18 19 26
f 18 26 24
f 19 23 27
f 19 27 28
f 19 28 26
f 20 29 30
f 20 30 31
f 20 31 32
f 20 32 33
f 20 33 34
f 20 34 21
f 21 34 22
f 22 34 35
f 24 36 25
f 24 26 36
f 25 36 38
f 25 38 39
f 25 39 37
f 26 28 40
f 26 40 41
f 26 41 42
f 26 42 39
f 26 39 38
f 26 38 36
f 27 43 28
f 28 43 44
f 28 44 40
f 29 45 46
f 29 46 47
f 29 47 48
f 29 48 49
f 29 49 30
f 30 49 50
f 30 50 31
f 31 50 51
f 31 51 32
f 32 51 52
f 32 52 33
f 33 52 53
f 33 53 34
f 34 53 35
f 37 39 54
f 39 55 56
f 39 56 54
f 39 42 57
f 39 57 55
f 40 58 59
f 40 59 60
f 40 60 61
f 40 61 41
f 40 44 62
f 40 62 58
f 41 61 57
f 41 57 42
f 43 63 44
f 44 63 64
f 44 64 65
f 44 65 62
f 45 66 46
f 46 67 91
f 46 91 107
f 46 107 106
f 46 106 105
f 46 105 96
f 46 96 95
f 46 95 94
f 46 94 68
f 46 68 69
f 46 69 70
f 46 70 71
f 46 71 72
f 46 72 73
f 46 73 74
f 46 74 75
f 46 75 47
f 46 66 76
f 46 76 97
f 46 97 98
f 46 98 80
f 46 80 84
f 46 84 61
f 46 61 60
f 46 60 88
f 46 88 103
f 46 103 102
f 46 102 101
f 46 101 92
f 46 92 67
f 47 75 74
f 47 74 48
f 48 74 50
f 48 50 49
f 50 74 77
f 50 77 72
f 50 72 78
f 50 78 79
f 50 79 51
f 54 56 80
f 54 80 81
f 55 82 80
f 55 80 56
f 55 57 82
f 57 61 83
f 57 83 84
f 57 84 82
f 58 85 86
f 58 86 87
f 58 87 88
f 58 88 59
f 58 62 85
f 59 88 60
f 61 84 83
f 62 65 89
f 62 89 90
f 62 90 85
f 67 92 93
f 67 93 91
f 68 94 69
f 69 94 95
f 69 95 96
f 70 78 72
f 70 72 71
f 72 77 73
f 73 77 74
f 80 98 81
f 80 82 84
f 81 98 97
f 85 90 86
f 86 99 87
f 86 90 100
f 86 100 99
f 87 99 101
f 87 101 102
f 87 102 103
f 87 103 88
f 89 104 90
f 90 104 105
f 90 105 106
f 90 106 107
f 90 107 99
f 90 99 100
f 91 93 107
f 92 101 93
f 93 108 107
f 93 101 99
f 93 99 108
f 99 107 108
