v 0.492704 0.573298 0.00338349
v 0.492669 0.573392 -0.00584415
v 0.488709 0.573298 0.00338349
v 0.497319 0.56882 0.00338349
v 0.492587 0.573487 -0.017522
v 0.488522 0.573392 -0.00584415
v 0.488534 0.571743 0.00338349
v 0.453312 0.573275 -0.180893
v 0.454375 0.572662 -0.172515
v 0.446606 0.566062 -0.198479
v 0.498545 0.56743 0.00338349
v 0.49233 0.573534 -0.0408578
v 0.49247 0.573534 -0.02918
v 0.488312 0.573487 -0.017522
v 0.488125 0.566062 0.00338349
v 0.488136 0.573534 -0.02918
v 0.487985 0.573534 -0.0408578
v 0.457658 0.573275 -0.180893
v 0.452237 0.572897 -0.192571
v 0.450497 0.572662 -0.198479
v 0.447471 0.567924 -0.198479
v 0.448557 0.554537 -0.198479
v 0.491442 0.573062 -0.0875493
v 0.491699 0.573251 -0.0758715
v 0.491933 0.573392 -0.0642134
v 0.492143 0.573487 -0.0525356
v 0.502494 0.561608 0.00338349
v 0.489632 0.558898 0.00338349
v 0.480274 0.573204 -0.122543
v 0.468359 0.573086 -0.157557
v 0.456419 0.572897 -0.192571
v 0.455555 0.572238 -0.198479
v 0.516267 0.332801 -0.198479
v 0.548335 0.349276 0.00338349
v 0.495087 0.566062 -0.0875493
v 0.490952 0.572615 -0.0960063
v 0.505064 0.555786 0.00338349
v 0.502248 0.561042 -0.00584415
v 0.479235 0.572568 -0.130447
v 0.467354 0.572379 -0.164789
v 0.455905 0.57153 -0.198479
v 0.529036 0.332801 -0.198479
v 0.553416 0.332801 0.00338349
v 0.502015 0.560524 -0.0140443
v 0.502903 0.550837 -0.0758715
v 0.51365 0.525453 -0.0821352
v 0.502365 0.549635 -0.0875493
v 0.501945 0.548716 -0.0935561
v 0.492774 0.566675 -0.0996025
v 0.505671 0.554396 0.00338349
v 0.515146 0.528847 -0.02918
v 0.51483 0.528117 -0.0408578
v 0.513872 0.525948 -0.0758715
v 0.503861 0.553029 -0.0408578
v 0.480835 0.566298 -0.13428
v 0.468744 0.565921 -0.168899
v 0.467506 0.561914 -0.176862
v 0.467588 0.55046 -0.188757
v 0.468043 0.540042 -0.198479
v 0.537727 0.332801 -0.166547
v 0.528989 0.33306 -0.198479
v 0.565566 0.332801 0.00338349
v 0.516758 0.519373 -0.0758715
v 0.525601 0.491915 -0.0831429
v 0.519024 0.507706 -0.0875493
v 0.515029 0.519066 -0.0866206
v 0.502926 0.541787 -0.0981403
v 0.491337 0.563187 -0.108198
v 0.514094 0.514989 -0.0948998
v 0.509889 0.54445 0.00338349
v 0.515589 0.530261 -0.00584415
v 0.515438 0.529554 -0.017522
v 0.5174 0.519373 -0.0642134
v 0.491419 0.551756 -0.120093
v 0.479503 0.55112 -0.154415
v 0.491384 0.495214 -0.179964
v 0.503019 0.446615 -0.198479
v 0.540134 0.332801 -0.157557
v 0.526734 0.344326 -0.198479
v 0.563405 0.344326 -0.0525356
v 0.565017 0.335111 0.00338349
v 0.56594 0.332801 -0.0525356
v 0.525987 0.493423 -0.0758715
v 0.52629 0.483713 -0.0872331
v 0.514959 0.449232 -0.157675
v 0.514118 0.457268 -0.153842
v 0.514316 0.4691 -0.142421
v 0.515625 0.484443 -0.122563
v 0.515578 0.495992 -0.110747
v 0.537529 0.446097 -0.073204
v 0.548919 0.398488 -0.0713663
v 0.515438 0.507541 -0.0989505
v 0.515309 0.531652 0.00338349
v 0.518323 0.519373 -0.0408578
v 0.517973 0.519373 -0.0525356
v 0.526162 0.493965 -0.0642134
v 0.514316 0.480602 -0.130566
v 0.505718 0.437801 -0.198479
v 0.560905 0.341569 -0.0725321
v 0.561816 0.332801 -0.0762074
v 0.526127 0.355074 -0.192057
v 0.537388 0.422481 -0.0952357
v 0.525344 0.350761 -0.198479
v 0.514445 0.42604 -0.178403
v 0.560846 0.352599 -0.00584415
v 0.562376 0.34607 0.00338349
v 0.562809 0.344326 0.00338349
v 0.560823 0.352528 -0.0613878
v 0.549281 0.399878 -0.0642134
v 0.540215 0.437706 -0.0642134
v 0.564736 0.332801 -0.0642134
v 0.513919 0.445248 -0.164789
v 0.561921 0.34501 -0.0648457
v 0.518919 0.519373 0.00338349
v 0.518931 0.519373 -0.00584415
v 0.525975 0.493211 -0.02918
v 0.527937 0.484373 -0.00584415
v 0.537517 0.446026 -0.00584415
v 0.51372 0.432663 -0.175716
v 0.514538 0.400774 -0.198479
v 0.539059 0.43945 0.00338349
v 0.5258 0.492504 0.00338349
v 0.525846 0.492716 -0.00584415
v 0.5274 0.486117 0.00338349
f 1 2 6
f 1 6 3
f 1 3 7
f 1 7 15
f 1 15 28
f 1 28 34
f 1 34 43
f 1 43 62
f 1 62 81
f 1 81 107
f 1 107 106
f 1 106 121
f 1 121 124
f 1 124 122
f 1 122 114
f 1 114 93
f 1 93 70
f 1 70 50
f 1 50 37
f 1 37 27
f 1 27 11
f 1 11 4
f 1 4 2
f 2 5 14
f 2 14 6
f 2 4 5
f 3 6 8
f 3 8 9
f 3 9 10
f 3 10 7
f 4 11 12
f 4 12 13
f 4 13 5
f 5 13 16
f 5 16 14
f 6 14 8
f 7 10 15
f 8 14 16
f 8 16 17
f 8 17 12
f 8 12 18
f 8 18 31
f 8 31 19
f 8 19 20
f 8 20 21
f 8 21 9
f 9 21 10
f 10 22 15
f 10 21 20
f 10 20 32
f 10 32 41
f 10 41 59
f 10 59 77
f 10 77 98
f 10 98 120
f 10 120 103
f 10 103 79
f 10 79 61
f 10 61 42
f 10 42 33
f 10 33 22
f 11 23 24
f 11 24 25
f 11 25 26
f 11 26 12
f 11 27 23
f 12 26 18
f 12 17 16
f 12 16 13
f 15 22 28
f 18 26 29
f 18 29 30
f 18 30 31
f 19 31 20
f 20 31 32
f 22 33 34
f 22 34 28
f 23 35 36
f 23 36 29
f 23 29 24
f 23 27 35
f 24 29 25
f 25 29 26
f 27 37 38
f 27 38 35
f 29 36 39
f 29 39 30
f 30 39 31
f 31 39 40
f 31 40 32
f 32 40 41
f 33 42 60
f 33 60 78
f 33 78 100
f 33 100 111
f 33 111 82
f 33 82 62
f 33 62 43
f 33 43 34
f 35 38 44
f 35 44 45
f 35 45 46
f 35 46 47
f 35 47 48
f 35 48 36
f 36 48 49
f 36 49 39
f 37 50 51
f 37 51 38
f 38 51 52
f 38 52 53
f 38 53 54
f 38 54 45
f 38 45 44
f 39 49 40
f 40 49 55
f 40 55 41
f 41 55 56
f 41 56 57
f 41 57 58
f 41 58 59
f 42 61 60
f 45 54 53
f 45 53 46
f 46 48 47
f 46 53 63
f 46 63 64
f 46 64 65
f 46 65 66
f 46 66 48
f 48 67 68
f 48 68 49
f 48 66 65
f 48 65 69
f 48 69 67
f 49 68 55
f 50 70 71
f 50 71 72
f 50 72 51
f 51 72 73
f 51 73 52
f 52 73 53
f 53 73 63
f 55 68 56
f 56 68 57
f 57 68 74
f 57 74 75
f 57 75 58
f 58 75 76
f 58 76 77
f 58 77 59
f 60 61 79
f 60 79 78
f 62 80 81
f 62 82 80
f 63 73 83
f 63 83 64
f 64 84 85
f 64 85 86
f 64 86 87
f 64 87 88
f 64 88 89
f 64 89 65
f 64 83 90
f 64 90 91
f 64 91 84
f 65 92 69
f 65 89 92
f 67 76 75
f 67 75 74
f 67 74 68
f 67 69 77
f 67 77 76
f 69 92 89
f 69 89 77
f 70 93 71
f 71 94 95
f 71 95 72
f 71 93 96
f 71 96 94
f 72 95 73
f 73 95 83
f 77 89 97
f 77 97 87
f 77 87 98
f 78 99 100
f 78 79 101
f 78 101 102
f 78 102 99
f 79 103 104
f 79 104 101
f 80 105 106
f 80 106 107
f 80 107 81
f 80 82 108
f 80 108 109
f 80 109 110
f 80 110 105
f 82 111 108
f 83 95 96
f 83 96 110
f 83 110 109
f 83 109 90
f 84 91 99
f 84 99 102
f 84 102 104
f 84 104 85
f 85 104 112
f 85 112 86
f 86 112 98
f 86 98 87
f 87 97 88
f 88 97 89
f 90 109 108
f 90 108 91
f 91 108 113
f 91 113 111
f 91 111 99
f 93 114 115
f 93 115 96
f 94 96 95
f 96 115 114
f 96 114 116
f 96 116 117
f 96 117 118
f 96 118 110
f 98 112 119
f 98 119 120
f 99 111 100
f 101 104 102
f 103 120 104
f 104 120 119
f 104 119 112
f 105 110 118
f 105 118 106
f 106 118 121
f 108 111 113
f 114 122 123
f 114 123 116
f 116 123 117
f 117 123 122
f 117 122 124
f 117 124 121
f 117 121 118
