v 0.182499 -0.423269 -0.277043
v 0.182499 -0.575225 -0.277043
v 0.182499 -0.423269 -0.34432
v 0.00167758 -0.423269 -0.277043
v 0.182499 -0.575225 -0.354391
v 0.00167758 -0.575225 -0.277043
v 0.182499 -0.423329 -0.355974
v 0.180906 -0.423269 -0.355974
v 0.00167758 -0.423269 -0.39099
v 0.182499 -0.575196 -0.355974
v 0.180906 -0.575225 -0.355974
v 0.00167758 -0.575225 -0.39099
v 0.182499 -0.427286 -0.36864
v 0.169223 -0.424058 -0.367655
v 0.157557 -0.423373 -0.367655
v 0.145892 -0.423269 -0.367655
v 0.00167758 -0.426914 -0.402671
v 0.0758824 -0.423269 -0.39099
v 0.182499 -0.573827 -0.367309
v 0.157557 -0.575225 -0.367655
v 0.169223 -0.574972 -0.367655
v 0.00167758 -0.573455 -0.402804
v 0.00583743 -0.573559 -0.402258
v 0.0875477 -0.575225 -0.39099
v 0.182499 -0.468373 -0.412954
v 0.178781 -0.429919 -0.374719
v 0.169223 -0.428357 -0.376303
v 0.0991953 -0.424087 -0.39099
v 0.0875477 -0.423373 -0.39099
v 0.00167758 -0.431213 -0.408804
v 0.0758824 -0.427568 -0.401739
v 0.182499 -0.573678 -0.368147
v 0.169223 -0.573321 -0.375611
v 0.134209 -0.574972 -0.379322
v 0.00167758 -0.572577 -0.40573
v 0.0758824 -0.573559 -0.400475
v 0.0875477 -0.573559 -0.399983
v 0.0991953 -0.574958 -0.39099
v 0.182499 -0.498526 -0.412954
v 0.00167758 -0.519545 -0.412954
v 0.0149183 -0.431644 -0.408604
v 0.0758824 -0.437699 -0.406755
v 0.0875477 -0.427673 -0.401114
v 0.0991953 -0.428387 -0.399611
v 0.182499 -0.573202 -0.369424
v 0.17802 -0.572682 -0.374453
v 0.142971 -0.572682 -0.386121
v 0.0991953 -0.573306 -0.398919
v 0.00167758 -0.571774 -0.408258
v 0.0758824 -0.570108 -0.406316
v 0.182499 -0.504744 -0.409921
v 0.130474 -0.540178 -0.412954
v 0.00167758 -0.564991 -0.412954
v 0.182499 -0.568011 -0.376768
v 0.145803 -0.566032 -0.390963
v 0.157557 -0.564306 -0.388422
v 0.110754 -0.566017 -0.402617
v 0.107904 -0.572667 -0.397775
v 0.0875477 -0.569439 -0.405824
v 0.00167758 -0.56633 -0.41205
v 0.0758824 -0.564277 -0.411212
v 0.0875477 -0.563607 -0.410919
v 0.182499 -0.552406 -0.38636
v 0.133625 -0.542484 -0.410573
v 0.127394 -0.542618 -0.412954
v 0.0758824 -0.561673 -0.412954
v 0.180552 -0.565943 -0.379083
v 0.182499 -0.565571 -0.378564
v 0.122544 -0.564277 -0.400143
v 0.140865 -0.560558 -0.397096
v 0.169223 -0.561778 -0.386334
v 0.0991953 -0.561882 -0.409801
v 0.105798 -0.560543 -0.40875
v 0.0991953 -0.567713 -0.404759
v 0.0875477 -0.560721 -0.412954
v 0.0991245 -0.557791 -0.412954
v 0.182499 -0.556675 -0.384245
v 0.137112 -0.546218 -0.40734
v 0.124668 -0.544745 -0.412954
v 0.175294 -0.560364 -0.385243
v 0.182499 -0.559278 -0.382648
v 0.113587 -0.558966 -0.40746
v 0.11017 -0.554801 -0.41181
v 0.10909 -0.55376 -0.412954
v 0.129341 -0.549163 -0.408883
v 0.119092 -0.548494 -0.412954
v 0.122544 -0.550978 -0.410214
f 1 2 5
f 1 5 10
f 1 10 19
f 1 19 32
f 1 32 45
f 1 45 54
f 1 54 68
f 1 68 81
f 1 81 77
f 1 77 63
f 1 63 51
f 1 51 39
f 1 39 25
f 1 25 13
f 1 13 7
f 1 7 3
f 1 3 8
f 1 8 16
f 1 16 18
f 1 18 9
f 1 9 4
f 1 4 6
f 1 6 2
f 2 6 12
f 2 12 24
f 2 24 20
f 2 20 11
f 2 11 5
f 3 7 8
f 4 9 17
f 4 17 30
f 4 30 40
f 4 40 53
f 4 53 60
f 4 60 49
f 4 49 35
f 4 35 22
f 4 22 12
f 4 12 6
f 5 11 10
f 7 13 14
f 7 14 15
f 7 15 8
f 8 15 16
f 9 18 17
f 10 11 20
f 10 20 21
f 10 21 19
f 12 22 23
f 12 23 24
f 13 25 26
f 13 26 27
f 13 27 14
f 14 27 28
f 14 28 29
f 14 29 15
f 15 29 18
f 15 18 16
f 17 18 29
f 17 29 31
f 17 31 30
f 19 21 32
f 20 24 21
f 21 33 32
f 21 24 34
f 21 34 33
f 22 35 36
f 22 36 23
f 23 36 24
f 24 36 37
f 24 37 38
f 24 38 34
f 25 27 26
f 25 39 52
f 25 52 65
f 25 65 79
f 25 79 86
f 25 86 84
f 25 84 76
f 25 76 75
f 25 75 66
f 25 66 53
f 25 53 40
f 25 40 30
f 25 30 41
f 25 41 42
f 25 42 43
f 25 43 44
f 25 44 27
f 27 44 28
f 28 44 43
f 28 43 29
f 29 43 31
f 30 31 41
f 31 43 41
f 32 33 46
f 32 46 45
f 33 47 46
f 33 34 48
f 33 48 47
f 34 38 48
f 35 49 36
f 36 49 37
f 37 50 48
f 37 48 38
f 37 49 50
f 39 51 52
f 41 43 42
f 45 46 54
f 46 47 55
f 46 55 56
f 46 56 54
f 47 57 55
f 47 48 58
f 47 58 57
f 48 50 59
f 48 59 58
f 49 60 61
f 49 61 50
f 50 61 62
f 50 62 59
f 51 63 64
f 51 64 52
f 52 64 65
f 53 66 61
f 53 61 60
f 54 67 68
f 54 56 67
f 55 57 69
f 55 69 70
f 55 70 56
f 56 70 71
f 56 71 67
f 57 58 72
f 57 72 73
f 57 73 69
f 58 59 74
f 58 74 72
f 59 62 74
f 61 66 75
f 61 75 62
f 62 75 76
f 62 76 72
f 62 72 74
f 63 77 64
f 64 78 65
f 64 77 78
f 65 78 79
f 67 71 80
f 67 80 68
f 68 80 81
f 69 73 82
f 69 82 70
f 70 80 71
f 70 82 83
f 70 83 84
f 70 84 80
f 72 76 84
f 72 84 83
f 72 83 73
f 73 83 82
f 77 81 80
f 77 80 78
f 78 80 79
f 79 85 86
f 79 80 85
f 80 87 85
f 80 84 87
f 84 86 87
f 85 87 86
