v 0.269357 -0.561869 -0.322762
v 0.269357 -0.560511 -0.324096
v 0.270428 -0.561081 -0.322762
v 0.269357 -0.526301 -0.322762
v 0.269357 -0.558962 -0.32559
v 0.269357 -0.553066 -0.331238
v 0.274286 -0.551191 -0.329329
v 0.280411 -0.548786 -0.327028
v 0.275035 -0.557454 -0.322762
v 0.345817 -0.423089 -0.322762
v 0.269357 -0.423089 -0.38781
v 0.269357 -0.548541 -0.335393
v 0.288194 -0.545362 -0.323585
v 0.282686 -0.551136 -0.322762
v 0.292375 -0.537578 -0.327316
v 0.3662 -0.423089 -0.322762
v 0.269357 -0.423089 -0.404364
v 0.269357 -0.546408 -0.337094
v 0.28863 -0.54577 -0.322762
v 0.287417 -0.546897 -0.322762
v 0.278913 -0.535458 -0.337606
v 0.286042 -0.531369 -0.335161
v 0.289986 -0.522986 -0.337214
v 0.29284 -0.515201 -0.339355
v 0.294423 -0.531056 -0.329153
v 0.302501 -0.523611 -0.325894
v 0.307279 -0.521003 -0.322762
v 0.304065 -0.525717 -0.322762
v 0.299751 -0.531899 -0.322762
v 0.293816 -0.54039 -0.322762
v 0.271129 -0.539751 -0.340194
v 0.364664 -0.423089 -0.3242
v 0.365688 -0.423972 -0.322762
v 0.278894 -0.423089 -0.39842
v 0.270314 -0.434053 -0.398021
v 0.269357 -0.433102 -0.399107
v 0.269357 -0.540295 -0.341001
v 0.274732 -0.531369 -0.342543
v 0.282212 -0.527673 -0.339811
v 0.290489 -0.500298 -0.349254
v 0.293295 -0.492513 -0.351395
v 0.300841 -0.423089 -0.382929
v 0.301951 -0.441049 -0.372119
v 0.301515 -0.463643 -0.360032
v 0.304833 -0.515826 -0.328075
v 0.326154 -0.489904 -0.322762
v 0.315593 -0.507376 -0.322762
v 0.269357 -0.536857 -0.342919
v 0.269357 -0.531179 -0.346066
v 0.358625 -0.423089 -0.3298
v 0.361176 -0.431553 -0.322762
v 0.282838 -0.423089 -0.395943
v 0.269357 -0.434542 -0.398348
v 0.285549 -0.425752 -0.39278
v 0.286184 -0.449636 -0.37947
v 0.273642 -0.47174 -0.375523
v 0.271632 -0.517294 -0.352178
v 0.269357 -0.50724 -0.359065
v 0.269357 -0.463154 -0.382897
v 0.269357 -0.517973 -0.353257
v 0.282705 -0.504917 -0.351803
v 0.288678 -0.43984 -0.383169
v 0.291949 -0.432055 -0.38527
v 0.29374 -0.469797 -0.363411
v 0.294831 -0.423089 -0.387834
v 0.304899 -0.423089 -0.37935
v 0.306492 -0.426023 -0.376282
v 0.303866 -0.455858 -0.362189
v 0.313071 -0.486766 -0.336575
v 0.330686 -0.482364 -0.322762
v 0.328866 -0.485394 -0.322762
v 0.307307 -0.423089 -0.377145
v 0.35525 -0.424801 -0.331973
v 0.286659 -0.423089 -0.393507
v 0.292432 -0.423089 -0.389608
v 0.294015 -0.426023 -0.3869
v 0.313526 -0.464186 -0.348663
f 1 2 3
f 1 3 9
f 1 9 14
f 1 14 20
f 1 20 19
f 1 19 30
f 1 30 29
f 1 29 28
f 1 28 27
f 1 27 47
f 1 47 46
f 1 46 71
f 1 71 70
f 1 70 51
f 1 51 33
f 1 33 16
f 1 16 10
f 1 10 4
f 1 4 11
f 1 11 17
f 1 17 36
f 1 36 53
f 1 53 59
f 1 59 58
f 1 58 60
f 1 60 49
f 1 49 48
f 1 48 37
f 1 37 18
f 1 18 12
f 1 12 6
f 1 6 5
f 1 5 2
f 2 5 3
f 3 5 6
f 3 6 7
f 3 7 8
f 3 8 9
f 4 10 11
f 6 12 8
f 6 8 7
f 8 13 14
f 8 14 9
f 8 12 15
f 8 15 13
f 10 16 32
f 10 32 50
f 10 50 72
f 10 72 66
f 10 66 42
f 10 42 65
f 10 65 75
f 10 75 74
f 10 74 52
f 10 52 34
f 10 34 17
f 10 17 11
f 12 18 15
f 13 19 20
f 13 20 14
f 13 15 19
f 15 21 22
f 15 22 23
f 15 23 24
f 15 24 25
f 15 25 26
f 15 26 27
f 15 27 28
f 15 28 29
f 15 29 30
f 15 30 19
f 15 18 31
f 15 31 21
f 16 33 32
f 17 34 35
f 17 35 36
f 18 37 31
f 21 38 39
f 21 39 22
f 21 31 38
f 22 39 23
f 23 39 40
f 23 40 24
f 24 40 41
f 24 41 42
f 24 42 43
f 24 43 44
f 24 44 25
f 25 44 26
f 26 44 45
f 26 45 46
f 26 46 47
f 26 47 27
f 31 37 48
f 31 48 49
f 31 49 38
f 32 33 51
f 32 51 50
f 34 52 35
f 35 53 36
f 35 52 54
f 35 54 55
f 35 55 56
f 35 56 57
f 35 57 58
f 35 58 59
f 35 59 53
f 38 49 39
f 39 49 60
f 39 60 57
f 39 57 61
f 39 61 62
f 39 62 63
f 39 63 40
f 40 63 41
f 41 63 64
f 41 64 42
f 42 66 43
f 42 64 65
f 43 66 67
f 43 67 44
f 44 67 68
f 44 68 45
f 45 69 70
f 45 70 71
f 45 71 46
f 45 68 69
f 50 51 73
f 50 73 72
f 51 70 73
f 52 74 54
f 54 74 62
f 54 62 55
f 55 62 61
f 55 61 57
f 55 57 56
f 57 60 58
f 62 74 63
f 63 74 75
f 63 75 65
f 63 65 76
f 63 76 64
f 64 76 65
f 66 72 67
f 67 72 73
f 67 73 68
f 68 73 77
f 68 77 69
f 69 77 70
f 70 77 73
