v 0.325995 0.566062 -0.358907
v 0.327557 0.561 -0.358907
v 0.448546 0.554542 -0.198494
v 0.446583 0.566062 -0.198494
v 0.442485 0.572799 -0.206833
v 0.328377 0.572878 -0.358907
v 0.409189 0.369729 -0.358907
v 0.508012 0.369729 -0.198494
v 0.44746 0.567916 -0.198494
v 0.45049 0.572659 -0.198494
v 0.441418 0.573317 -0.215941
v 0.445802 0.573317 -0.215941
v 0.387194 0.572998 -0.30597
v 0.332703 0.572858 -0.358907
v 0.427276 0.369729 -0.358907
v 0.520686 0.369729 -0.198494
v 0.455541 0.572241 -0.198494
v 0.44441 0.572659 -0.227609
v 0.433432 0.572998 -0.248683
v 0.398439 0.572918 -0.293705
v 0.362131 0.572141 -0.338806
v 0.364399 0.572719 -0.332635
v 0.375949 0.572938 -0.318407
v 0.34433 0.572679 -0.352751
v 0.335715 0.572181 -0.358907
v 0.427162 0.370167 -0.358907
v 0.427448 0.369729 -0.358703
v 0.520438 0.369729 -0.199578
v 0.52 0.373635 -0.198494
v 0.455903 0.571543 -0.198494
v 0.455446 0.572181 -0.19917
v 0.443515 0.571902 -0.233451
v 0.431298 0.571643 -0.256472
v 0.420777 0.57238 -0.269161
v 0.409627 0.572719 -0.281441
v 0.350448 0.572101 -0.350396
v 0.355003 0.57252 -0.343345
v 0.422473 0.566062 -0.271155
v 0.363637 0.566062 -0.340597
v 0.36053 0.557592 -0.348747
v 0.358148 0.566062 -0.346423
v 0.343243 0.567856 -0.358907
v 0.423712 0.382743 -0.358907
v 0.432022 0.369729 -0.3525
v 0.519295 0.369729 -0.204258
v 0.517598 0.379335 -0.204258
v 0.516569 0.391014 -0.198494
v 0.468025 0.540033 -0.198494
v 0.456647 0.565524 -0.203551
v 0.444525 0.565086 -0.238115
v 0.443667 0.560522 -0.245432
v 0.433699 0.56387 -0.258969
v 0.352316 0.566062 -0.352154
v 0.345569 0.564488 -0.358907
v 0.34412 0.56666 -0.358907
v 0.430402 0.557014 -0.266742
v 0.386108 0.562275 -0.316225
v 0.375015 0.563551 -0.328583
v 0.362398 0.549799 -0.350804
v 0.359101 0.541289 -0.358907
v 0.358338 0.542724 -0.358907
v 0.357976 0.543401 -0.358907
v 0.35344 0.551852 -0.358907
v 0.421997 0.388663 -0.358907
v 0.432765 0.369729 -0.351463
v 0.518799 0.369729 -0.205891
v 0.514816 0.379335 -0.213413
v 0.513958 0.387128 -0.21134
v 0.515044 0.391014 -0.204493
v 0.514168 0.399724 -0.200756
v 0.51453 0.40078 -0.198494
v 0.502999 0.4466 -0.198494
v 0.490496 0.479306 -0.199248
v 0.469207 0.531284 -0.20443
v 0.455579 0.561279 -0.211199
v 0.44483 0.554403 -0.247725
v 0.441513 0.554403 -0.253551
v 0.455655 0.549819 -0.223102
v 0.455732 0.538359 -0.23499
v 0.457085 0.530865 -0.239041
v 0.478584 0.478668 -0.233529
v 0.455789 0.526859 -0.246108
v 0.442886 0.547208 -0.256048
v 0.43509 0.553626 -0.262769
v 0.432136 0.549221 -0.268815
v 0.350715 0.556416 -0.358907
v 0.430592 0.534114 -0.278661
v 0.421291 0.527657 -0.293077
v 0.421082 0.550556 -0.281174
v 0.38788 0.554403 -0.318313
v 0.365047 0.528613 -0.358907
v 0.362989 0.533137 -0.358907
v 0.375225 0.540711 -0.340502
v 0.371032 0.51532 -0.358907
v 0.368459 0.52104 -0.358907
v 0.418147 0.401318 -0.358907
v 0.421958 0.402674 -0.352751
v 0.432079 0.374273 -0.35049
v 0.456227 0.369729 -0.316664
v 0.515635 0.369729 -0.216129
v 0.502599 0.422504 -0.223102
v 0.506601 0.414353 -0.215941
v 0.503895 0.426251 -0.216208
v 0.507135 0.426032 -0.204258
v 0.505705 0.437791 -0.198494
v 0.504028 0.43789 -0.204399
v 0.502694 0.434124 -0.212486
v 0.502637 0.445584 -0.200599
v 0.491792 0.460591 -0.215391
v 0.456818 0.553984 -0.215423
v 0.467815 0.516077 -0.224452
v 0.469493 0.508185 -0.228049
v 0.479594 0.472689 -0.235084
v 0.457028 0.519385 -0.247929
v 0.444277 0.539415 -0.257933
v 0.433527 0.542724 -0.270543
v 0.433527 0.519385 -0.282462
v 0.432308 0.526321 -0.280703
v 0.409227 0.445165 -0.351008
v 0.407511 0.452958 -0.348951
v 0.402251 0.518409 -0.320449
v 0.395637 0.545853 -0.313696
v 0.401069 0.448493 -0.358907
v 0.417537 0.403311 -0.358907
v 0.420777 0.410446 -0.351008
v 0.468463 0.379335 -0.294161
v 0.469264 0.369729 -0.297066
v 0.515178 0.369729 -0.217103
v 0.503514 0.414353 -0.224719
v 0.492021 0.402674 -0.248134
v 0.490991 0.411164 -0.246312
v 0.492688 0.426032 -0.237125
v 0.491258 0.435359 -0.235021
v 0.4815 0.46105 -0.23791
v 0.467186 0.491264 -0.24559
v 0.430802 0.510696 -0.290439
v 0.468235 0.484368 -0.24716
v 0.445554 0.531045 -0.259817
v 0.421291 0.458837 -0.328426
v 0.420033 0.46661 -0.326683
v 0.410637 0.437691 -0.352955
v 0.406044 0.437313 -0.358907
v 0.413001 0.41806 -0.358907
v 0.479175 0.398947 -0.269412
v 0.42234 0.426032 -0.341664
v 0.480299 0.391014 -0.271202
v 0.478736 0.374353 -0.280467
v 0.475591 0.369729 -0.286953
v 0.513138 0.369729 -0.221422
v 0.5046 0.402674 -0.226604
v 0.492612 0.390138 -0.251478
v 0.467853 0.46105 -0.258247
v 0.410942 0.424497 -0.358907
v 0.409608 0.428105 -0.358907
v 0.479175 0.369729 -0.281221
v 0.490286 0.385653 -0.256943
v 0.509308 0.369729 -0.228394
v 0.504238 0.369729 -0.237565
v 0.50338 0.379335 -0.236073
v 0.502522 0.388862 -0.234581
v 0.490858 0.379335 -0.257917
v 0.491716 0.369729 -0.259409
f 1 2 3
f 1 3 4
f 1 4 5
f 1 5 6
f 1 6 14
f 1 14 25
f 1 25 42
f 1 42 55
f 1 55 54
f 1 54 86
f 1 86 63
f 1 63 62
f 1 62 61
f 1 61 60
f 1 60 92
f 1 92 91
f 1 91 95
f 1 95 94
f 1 94 123
f 1 123 142
f 1 142 154
f 1 154 153
f 1 153 143
f 1 143 124
f 1 124 96
f 1 96 64
f 1 64 43
f 1 43 26
f 1 26 15
f 1 15 7
f 1 7 2
f 2 7 8
f 2 8 3
f 3 8 16
f 3 16 29
f 3 29 47
f 3 47 71
f 3 71 105
f 3 105 72
f 3 72 48
f 3 48 30
f 3 30 17
f 3 17 10
f 3 10 9
f 3 9 4
f 4 9 5
f 5 10 11
f 5 11 6
f 5 9 10
f 6 11 12
f 6 12 13
f 6 13 14
f 7 15 27
f 7 27 44
f 7 44 65
f 7 65 99
f 7 99 127
f 7 127 148
f 7 148 155
f 7 155 162
f 7 162 158
f 7 158 157
f 7 157 149
f 7 149 128
f 7 128 100
f 7 100 66
f 7 66 45
f 7 45 28
f 7 28 16
f 7 16 8
f 10 17 12
f 10 12 11
f 12 17 18
f 12 18 19
f 12 19 13
f 13 19 20
f 13 20 21
f 13 21 22
f 13 22 23
f 13 23 14
f 14 23 24
f 14 24 25
f 15 26 27
f 16 28 29
f 17 30 31
f 17 31 18
f 18 31 32
f 18 32 19
f 19 32 33
f 19 33 34
f 19 34 35
f 19 35 20
f 20 35 21
f 21 36 24
f 21 24 37
f 21 37 22
f 21 35 34
f 21 34 38
f 21 38 39
f 21 39 40
f 21 40 41
f 21 41 36
f 22 37 24
f 22 24 23
f 24 36 25
f 25 36 42
f 26 43 27
f 27 43 44
f 28 45 46
f 28 46 29
f 29 46 47
f 30 48 49
f 30 49 31
f 31 49 32
f 32 49 50
f 32 50 51
f 32 51 33
f 33 51 52
f 33 52 34
f 34 52 38
f 36 41 53
f 36 53 54
f 36 54 55
f 36 55 42
f 38 52 56
f 38 56 57
f 38 57 39
f 39 57 58
f 39 58 59
f 39 59 40
f 40 59 60
f 40 60 61
f 40 61 62
f 40 62 63
f 40 63 41
f 41 63 53
f 43 64 65
f 43 65 44
f 45 66 46
f 46 66 67
f 46 67 68
f 46 68 69
f 46 69 70
f 46 70 71
f 46 71 47
f 48 72 73
f 48 73 74
f 48 74 75
f 48 75 49
f 49 75 50
f 50 75 51
f 51 76 77
f 51 77 52
f 51 75 78
f 51 78 79
f 51 79 80
f 51 80 81
f 51 81 82
f 51 82 76
f 52 77 83
f 52 83 84
f 52 84 85
f 52 85 56
f 53 86 54
f 53 63 86
f 56 85 87
f 56 87 88
f 56 88 89
f 56 89 57
f 57 89 90
f 57 90 59
f 57 59 58
f 59 91 92
f 59 92 60
f 59 90 93
f 59 93 94
f 59 94 95
f 59 95 91
f 64 96 97
f 64 97 98
f 64 98 65
f 65 98 99
f 66 100 67
f 67 100 101
f 67 101 68
f 68 101 102
f 68 102 103
f 68 103 69
f 69 103 70
f 70 103 71
f 71 103 104
f 71 104 105
f 72 105 106
f 72 106 107
f 72 107 108
f 72 108 73
f 73 108 109
f 73 109 74
f 74 110 75
f 74 109 111
f 74 111 110
f 75 110 78
f 76 83 77
f 76 82 83
f 78 110 111
f 78 111 79
f 79 111 112
f 79 112 81
f 79 81 80
f 81 113 82
f 81 112 109
f 81 109 107
f 81 107 101
f 81 101 113
f 82 113 114
f 82 114 115
f 82 115 83
f 83 116 84
f 83 115 117
f 83 117 118
f 83 118 116
f 84 116 85
f 85 116 118
f 85 118 87
f 87 118 119
f 87 119 120
f 87 120 88
f 88 121 122
f 88 122 89
f 88 120 121
f 89 122 90
f 90 122 121
f 90 121 93
f 93 121 120
f 93 120 94
f 94 120 123
f 96 124 125
f 96 125 97
f 97 125 126
f 97 126 99
f 97 99 98
f 99 126 127
f 100 128 129
f 100 129 101
f 101 107 103
f 101 103 102
f 101 129 130
f 101 130 131
f 101 131 132
f 101 132 133
f 101 133 134
f 101 134 113
f 103 107 106
f 103 106 105
f 103 105 104
f 107 109 108
f 109 112 111
f 113 134 114
f 114 134 135
f 114 135 115
f 115 136 117
f 115 135 137
f 115 137 138
f 115 138 139
f 115 139 140
f 115 140 136
f 117 136 118
f 118 136 140
f 118 140 119
f 119 140 141
f 119 141 142
f 119 142 120
f 120 142 123
f 124 143 125
f 125 144 126
f 125 143 139
f 125 139 145
f 125 145 144
f 126 144 131
f 126 131 146
f 126 146 127
f 127 146 147
f 127 147 148
f 128 149 129
f 129 149 150
f 129 150 151
f 129 151 147
f 129 147 130
f 130 147 131
f 131 147 146
f 131 144 132
f 132 144 145
f 132 145 152
f 132 152 137
f 132 137 133
f 133 137 135
f 133 135 134
f 137 152 138
f 138 152 145
f 138 145 139
f 139 143 140
f 140 143 153
f 140 153 141
f 141 153 154
f 141 154 142
f 147 155 148
f 147 151 156
f 147 156 155
f 149 157 150
f 150 157 158
f 150 158 159
f 150 159 160
f 150 160 151
f 151 160 159
f 151 159 156
f 155 161 162
f 155 156 161
f 156 159 161
f 158 162 161
f 158 161 159
