v -0.217157 -0.159216 0.519897
v -0.217157 -0.159216 0.50697
v -0.227859 -0.159216 0.515572
v -0.225862 -0.169243 0.515432
v -0.217157 -0.169243 0.518898
v -0.217157 -0.355363 0.450874
v -0.413675 -0.159216 0.360399
v -0.251473 -0.159216 0.504284
v -0.249601 -0.169243 0.504159
v -0.223738 -0.180923 0.514448
v -0.217157 -0.180923 0.517149
v -0.248024 -0.180923 0.503394
v -0.217157 -0.35544 0.450858
v -0.349437 -0.35544 0.360399
v -0.431968 -0.159216 0.360399
v -0.274602 -0.159216 0.492466
v -0.272668 -0.169243 0.492356
v -0.222119 -0.187243 0.513683
v -0.217157 -0.182171 0.516868
v -0.246426 -0.189048 0.502583
v -0.270691 -0.180923 0.491357
v -0.217157 -0.35544 0.465456
v -0.367058 -0.35544 0.360399
v -0.426985 -0.180923 0.360399
v -0.426585 -0.159216 0.365848
v -0.295798 -0.159216 0.480787
v -0.294368 -0.169243 0.480085
v -0.227271 -0.215019 0.503332
v -0.217157 -0.190662 0.514713
v -0.239824 -0.192794 0.504518
v -0.233726 -0.210524 0.502005
v -0.256813 -0.21014 0.490217
v -0.246805 -0.22472 0.491139
v -0.237364 -0.27428 0.480694
v -0.223086 -0.340783 0.467548
v -0.234525 -0.246984 0.490764
v -0.26903 -0.187761 0.49053
v -0.262806 -0.192026 0.492622
v -0.276537 -0.180923 0.488016
v -0.217157 -0.344107 0.46914
v -0.227123 -0.35544 0.460444
v -0.363589 -0.35544 0.36488
v -0.371411 -0.346335 0.360399
v -0.416156 -0.227602 0.360399
v -0.417081 -0.180923 0.370391
v -0.38798 -0.180923 0.39968
v -0.379948 -0.159216 0.412764
v -0.316572 -0.159216 0.467829
v -0.29277 -0.177254 0.479211
v -0.227901 -0.250903 0.492434
v -0.217157 -0.227083 0.50391
v -0.235345 -0.35544 0.456198
v -0.272121 -0.25096 0.468875
v -0.274371 -0.320229 0.445769
v -0.234777 -0.35544 0.456494
v -0.283455 -0.192602 0.480709
v -0.281436 -0.201073 0.479367
v -0.280153 -0.280178 0.455214
v -0.217157 -0.307782 0.479944
v -0.359089 -0.35544 0.370313
v -0.360918 -0.348333 0.372421
v -0.36731 -0.343588 0.367238
v -0.37366 -0.338824 0.362039
v -0.385625 -0.316061 0.360399
v -0.413443 -0.239281 0.360399
v -0.405832 -0.227602 0.370813
v -0.398262 -0.192602 0.386613
v -0.392459 -0.192602 0.392452
v -0.386613 -0.192602 0.398291
v -0.375364 -0.159216 0.417354
v -0.323469 -0.159216 0.462599
v -0.315563 -0.164345 0.467158
v -0.306059 -0.180923 0.468688
v -0.292349 -0.328009 0.432248
v -0.274876 -0.35544 0.434371
v -0.281772 -0.236745 0.467907
v -0.280847 -0.351502 0.432295
v -0.353264 -0.35544 0.376886
v -0.349564 -0.348947 0.38463
v -0.362789 -0.340553 0.374669
v -0.370485 -0.332639 0.36972
v -0.375111 -0.332639 0.363881
v -0.385057 -0.315004 0.361758
v -0.386697 -0.313775 0.360399
v -0.409617 -0.25509 0.360399
v -0.409217 -0.248232 0.362554
v -0.410268 -0.239281 0.3636
v -0.385688 -0.200171 0.397338
v -0.372819 -0.16081 0.419508
v -0.370885 -0.159216 0.421678
v -0.329588 -0.159216 0.457587
v -0.326896 -0.175371 0.455277
v -0.325361 -0.183151 0.454121
v -0.32738 -0.211504 0.443957
v -0.339954 -0.330141 0.397901
v -0.31756 -0.192602 0.456885
v -0.304923 -0.29762 0.432888
v -0.330008 -0.27428 0.422459
v -0.318528 -0.262601 0.434246
v -0.294536 -0.35544 0.422069
v -0.294115 -0.35544 0.422365
v -0.282635 -0.344299 0.433435
v -0.316909 -0.344299 0.409766
v -0.315458 -0.35083 0.408736
v -0.285032 -0.35544 0.428189
v -0.285284 -0.35544 0.428033
v -0.352844 -0.35544 0.377339
v -0.347503 -0.35544 0.382741
v -0.341657 -0.35544 0.387627
v -0.334067 -0.35544 0.39367
v -0.328494 -0.35544 0.398057
v -0.351351 -0.341148 0.386144
v -0.373997 -0.31633 0.373982
v -0.36464 -0.332639 0.376418
v -0.372378 -0.32411 0.37214
v -0.396475 -0.290935 0.361477
v -0.395634 -0.294662 0.360399
v -0.409049 -0.257184 0.360399
v -0.40825 -0.256012 0.361586
v -0.371516 -0.169243 0.418415
v -0.407241 -0.262601 0.360696
v -0.397358 -0.246715 0.373967
v -0.36054 -0.1596 0.430765
v -0.368278 -0.159216 0.424005
v -0.330408 -0.159216 0.456885
v -0.338524 -0.221916 0.431905
v -0.350762 -0.305323 0.397385
v -0.339134 -0.258567 0.420742
v -0.339555 -0.294393 0.409329
v -0.341931 -0.320959 0.399337
v -0.352949 -0.332639 0.387487
v -0.375258 -0.309299 0.375059
v -0.397989 -0.283155 0.362835
v -0.403498 -0.27428 0.360399
v -0.397736 -0.289975 0.360399
v -0.396895 -0.291857 0.360399
v -0.407514 -0.262601 0.360399
v -0.406988 -0.264215 0.360399
v -0.399524 -0.27428 0.364162
v -0.386949 -0.27428 0.375044
v -0.374712 -0.272129 0.386238
v -0.377298 -0.215941 0.400133
v -0.355682 -0.19168 0.425769
v -0.33638 -0.159216 0.451733
v -0.342183 -0.159216 0.446721
v -0.360056 -0.159216 0.43128
v -0.361297 -0.159216 0.430187
v -0.35789 -0.29762 0.393451
v -0.352045 -0.29762 0.398494
v -0.363042 -0.307186 0.386238
v -0.36075 -0.320959 0.384224
v -0.377235 -0.29762 0.37673
v -0.385709 -0.281753 0.373967
v -0.364703 -0.215941 0.411015
f 1 2 7
f 1 7 15
f 1 15 25
f 1 25 47
f 1 47 70
f 1 70 90
f 1 90 124
f 1 124 147
f 1 147 146
f 1 146 145
f 1 145 144
f 1 144 125
f 1 125 91
f 1 91 71
f 1 71 48
f 1 48 26
f 1 26 16
f 1 16 8
f 1 8 3
f 1 3 4
f 1 4 5
f 1 5 11
f 1 11 19
f 1 19 29
f 1 29 51
f 1 51 59
f 1 59 40
f 1 40 22
f 1 22 13
f 1 13 6
f 1 6 2
f 2 6 7
f 3 8 9
f 3 9 4
f 4 10 11
f 4 11 5
f 4 9 12
f 4 12 10
f 6 13 14
f 6 14 7
f 7 14 23
f 7 23 43
f 7 43 64
f 7 64 84
f 7 84 117
f 7 117 136
f 7 136 135
f 7 135 134
f 7 134 138
f 7 138 137
f 7 137 118
f 7 118 85
f 7 85 65
f 7 65 44
f 7 44 24
f 7 24 15
f 8 16 9
f 9 16 17
f 9 17 12
f 10 18 19
f 10 19 11
f 10 12 20
f 10 20 18
f 12 17 21
f 12 21 20
f 13 22 41
f 13 41 55
f 13 55 52
f 13 52 75
f 13 75 105
f 13 105 106
f 13 106 101
f 13 101 100
f 13 100 111
f 13 111 110
f 13 110 109
f 13 109 108
f 13 108 107
f 13 107 78
f 13 78 60
f 13 60 42
f 13 42 23
f 13 23 14
f 15 24 25
f 16 26 17
f 17 26 27
f 17 27 21
f 18 28 29
f 18 29 19
f 18 20 30
f 18 30 31
f 18 31 28
f 20 32 33
f 20 33 34
f 20 34 35
f 20 35 36
f 20 36 30
f 20 21 37
f 20 37 38
f 20 38 32
f 21 27 39
f 21 39 37
f 22 40 35
f 22 35 41
f 23 42 43
f 24 44 45
f 24 45 25
f 25 45 46
f 25 46 47
f 26 48 27
f 27 49 39
f 27 48 49
f 28 50 29
f 28 31 50
f 29 50 51
f 30 36 31
f 31 36 50
f 32 52 33
f 32 38 37
f 32 37 53
f 32 53 54
f 32 54 52
f 33 52 34
f 34 52 35
f 35 40 36
f 35 52 55
f 35 55 41
f 36 40 50
f 37 39 56
f 37 56 57
f 37 57 58
f 37 58 53
f 39 49 56
f 40 59 50
f 42 60 61
f 42 61 62
f 42 62 63
f 42 63 43
f 43 63 64
f 44 65 66
f 44 66 45
f 45 66 67
f 45 67 46
f 46 67 68
f 46 68 69
f 46 69 70
f 46 70 47
f 48 71 72
f 48 72 49
f 49 73 74
f 49 74 56
f 49 72 73
f 50 59 51
f 52 54 75
f 53 58 54
f 54 58 75
f 56 74 57
f 57 74 76
f 57 76 77
f 57 77 58
f 58 77 75
f 60 78 61
f 61 78 79
f 61 79 80
f 61 80 62
f 62 80 81
f 62 81 82
f 62 82 63
f 63 82 83
f 63 83 64
f 64 83 84
f 65 85 86
f 65 86 87
f 65 87 66
f 66 87 86
f 66 86 68
f 66 68 67
f 68 86 69
f 69 88 89
f 69 89 70
f 69 86 88
f 70 89 90
f 71 91 92
f 71 92 72
f 72 92 93
f 72 93 94
f 72 94 95
f 72 95 96
f 72 96 73
f 73 97 74
f 73 96 98
f 73 98 99
f 73 99 97
f 74 100 101
f 74 101 102
f 74 102 76
f 74 97 103
f 74 103 104
f 74 104 100
f 75 77 105
f 76 102 77
f 77 102 101
f 77 101 106
f 77 106 105
f 78 107 79
f 79 107 108
f 79 108 109
f 79 109 110
f 79 110 111
f 79 111 112
f 79 112 113
f 79 113 114
f 79 114 80
f 80 114 115
f 80 115 116
f 80 116 117
f 80 117 81
f 81 83 82
f 81 117 83
f 83 117 84
f 85 118 119
f 85 119 86
f 86 119 88
f 88 120 89
f 88 119 121
f 88 121 122
f 88 122 123
f 88 123 120
f 89 120 90
f 90 120 124
f 91 125 92
f 92 125 126
f 92 126 127
f 92 127 128
f 92 128 93
f 93 128 94
f 94 128 129
f 94 129 130
f 94 130 95
f 95 130 112
f 95 112 111
f 95 111 103
f 95 103 99
f 95 99 98
f 95 98 96
f 97 99 103
f 100 104 111
f 103 111 104
f 112 130 129
f 112 129 128
f 112 128 131
f 112 131 113
f 113 132 133
f 113 133 116
f 113 116 115
f 113 115 114
f 113 131 132
f 116 133 134
f 116 134 135
f 116 135 136
f 116 136 117
f 118 137 121
f 118 121 119
f 120 123 124
f 121 137 138
f 121 138 133
f 121 133 139
f 121 139 122
f 122 139 140
f 122 140 141
f 122 141 142
f 122 142 123
f 123 143 144
f 123 144 145
f 123 145 146
f 123 146 147
f 123 147 124
f 123 142 143
f 125 144 126
f 126 144 143
f 126 143 148
f 126 148 149
f 126 149 127
f 127 149 148
f 127 148 150
f 127 150 151
f 127 151 131
f 127 131 128
f 131 151 132
f 132 150 152
f 132 152 139
f 132 139 133
f 132 151 150
f 133 138 134
f 139 152 153
f 139 153 140
f 140 153 152
f 140 152 148
f 140 148 141
f 141 154 142
f 141 148 154
f 142 154 143
f 143 154 148
f 148 152 150
