v -0.45138 0.573 0.19843
v -0.453824 0.57309 0.180906
v -0.452852 0.573358 0.192582
v -0.457171 0.573358 0.192582
v -0.456523 0.572955 0.19843
v -0.44976 0.569911 0.19843
v -0.48784 0.573448 -0.00137569
v -0.454714 0.572373 0.173239
v -0.487854 0.573492 0.0175175
v -0.487854 0.573537 0.0642027
v -0.492227 0.573537 0.0642027
v -0.480524 0.573358 0.110868
v -0.468294 0.57309 0.157554
v -0.467403 0.572418 0.165338
v -0.457954 0.570493 0.19843
v -0.448505 0.566105 0.19843
v -0.492038 0.573448 -0.00137569
v -0.485505 0.56606 -0.00137569
v -0.492106 0.573492 0.0175175
v -0.49162 0.57309 0.0758789
v -0.496223 0.56606 0.0642027
v -0.479309 0.572597 0.122545
v -0.490743 0.572418 0.0836826
v -0.478567 0.571925 0.128451
v -0.468915 0.566374 0.16923
v -0.459817 0.566463 0.19843
v -0.535261 0.116132 0.19843
v -0.572113 0.116132 -0.00137569
v -0.495886 0.56606 -0.00137569
v -0.496183 0.56606 0.0525265
v -0.495116 0.56606 0.0758789
v -0.50335 0.552046 0.0525265
v -0.503094 0.551643 0.0642027
v -0.5025 0.550255 0.0721824
v -0.492268 0.566374 0.0875551
v -0.491107 0.562702 0.0964931
v -0.467754 0.562702 0.178148
v -0.461855 0.561628 0.19843
v -0.549448 0.116132 0.19843
v -0.584788 0.116132 -0.00137569
v -0.503296 0.551956 0.0408698
v -0.503094 0.551464 -0.00137569
v -0.503134 0.551554 0.00584126
v -0.514041 0.526346 0.0525265
v -0.513906 0.526033 0.059939
v -0.526082 0.492632 0.0613863
v -0.503985 0.543047 0.0759962
v -0.492821 0.55518 0.0998962
v -0.466944 0.548733 0.19843
v -0.552189 0.116132 0.192582
v -0.549205 0.121461 0.19843
v -0.586408 0.116132 0.0175175
v -0.575217 0.274317 0.00584126
v -0.576567 0.243737 -0.00137569
v -0.513879 0.525988 0.0175175
v -0.527095 0.494691 0.0408698
v -0.513785 0.525764 -0.00137569
v -0.513825 0.525854 0.00584126
v -0.516944 0.519361 0.0525265
v -0.526811 0.494288 0.0525265
v -0.514446 0.504362 0.0875551
v -0.514433 0.516003 0.0731016
v -0.530199 0.484349 0.0525265
v -0.527742 0.48511 0.0648481
v -0.525515 0.467693 0.0944199
v -0.491309 0.542106 0.121488
v -0.50443 0.48511 0.146523
v -0.503404 0.460798 0.180339
v -0.491013 0.48108 0.19843
v -0.551892 0.12258 0.192582
v -0.555091 0.116132 0.186363
v -0.54876 0.130729 0.19843
v -0.549097 0.227618 0.187869
v -0.586273 0.116132 0.022759
v -0.583668 0.164846 0.0242454
v -0.583668 0.164846 0.0222701
v -0.576216 0.274317 0.0175175
v -0.57322 0.28654 -0.00137569
v -0.574596 0.274317 -0.00137569
v -0.516444 0.519361 -0.00137569
v -0.527027 0.494557 0.0291936
v -0.530496 0.484349 0.0408698
v -0.514109 0.433397 0.176994
v -0.531225 0.472663 0.0642027
v -0.537408 0.45744 0.050023
v -0.528768 0.472663 0.0758789
v -0.525745 0.456768 0.106996
v -0.514379 0.422472 0.189609
v -0.503013 0.446739 0.19843
v -0.560274 0.116132 0.175136
v -0.544062 0.227618 0.19843
v -0.5488 0.239304 0.187223
v -0.586097 0.116132 0.0291936
v -0.583911 0.157593 0.026299
v -0.577242 0.262631 0.0291936
v -0.576527 0.274317 0.0291936
v -0.574704 0.285958 0.0175175
v -0.573841 0.285958 0.00584126
v -0.572153 0.292898 -0.00137569
v -0.526339 0.493706 -0.00137569
v -0.526568 0.494065 0.00584126
v -0.526865 0.494378 0.0175175
v -0.530307 0.484349 0.0291936
v -0.537475 0.457753 0.0408698
v -0.538447 0.450231 0.0533675
v -0.53757 0.446918 0.0615819
v -0.529092 0.461022 0.0875551
v -0.541187 0.43765 0.0525265
v -0.539392 0.449336 0.0408698
v -0.541984 0.43765 0.0408698
v -0.560652 0.351954 0.0378579
v -0.572504 0.294868 0.0378774
v -0.526595 0.449291 0.110888
v -0.525691 0.445351 0.118965
v -0.515553 0.414816 0.19313
v -0.512934 0.419069 0.197393
v -0.51207 0.420099 0.19843
v -0.560247 0.116983 0.175097
v -0.560436 0.116132 0.174295
v -0.543266 0.239797 0.19843
v -0.545952 0.239304 0.193071
v -0.548611 0.245438 0.186852
v -0.585449 0.116132 0.0335355
v -0.583695 0.142235 0.0357065
v -0.575987 0.262631 0.0408698
v -0.585004 0.134266 0.0291936
v -0.575204 0.274317 0.0408698
v -0.574988 0.285958 0.0291936
v -0.572869 0.296345 0.0291936
v -0.572747 0.295539 0.0175175
v -0.562434 0.344342 0.0291936
v -0.56103 0.342014 -0.00137569
v -0.528795 0.484349 -0.00137569
v -0.529241 0.484349 0.00584126
v -0.529916 0.484349 0.0175175
v -0.538541 0.438411 0.0649654
v -0.529173 0.449336 0.0991921
v -0.549232 0.40022 0.0498666
v -0.549556 0.401205 0.0291936
v -0.565066 0.332657 0.0291936
v -0.573409 0.286495 0.0413979
v -0.560531 0.269974 0.118105
v -0.560639 0.293838 0.0952805
v -0.564283 0.321015 0.0525265
v -0.560841 0.341611 0.0495928
v -0.526501 0.437784 0.12274
v -0.525637 0.433979 0.130387
v -0.51855 0.414323 0.180906
v -0.513515 0.415801 0.19843
v -0.52538 0.374296 0.187243
v -0.518185 0.402637 0.192582
v -0.515067 0.409622 0.19843
v -0.514568 0.41204 0.19843
v -0.56049 0.145907 0.164829
v -0.560976 0.12155 0.169738
v -0.561314 0.116132 0.169484
v -0.551217 0.239304 0.180906
v -0.554267 0.239304 0.16923
v -0.54251 0.245393 0.19843
v -0.550015 0.250005 0.18116
v -0.541781 0.250542 0.19843
v -0.540458 0.25887 0.19843
v -0.537975 0.274317 0.19843
v -0.536989 0.280361 0.19843
v -0.53896 0.284973 0.193032
v -0.525353 0.35079 0.19843
v -0.537475 0.30933 0.187947
v -0.536962 0.315553 0.186891
v -0.584356 0.116132 0.0403222
v -0.584262 0.12258 0.0388358
v -0.583924 0.134266 0.0369778
v -0.576648 0.250945 0.0408698
v -0.573908 0.262631 0.0525265
v -0.57272 0.250945 0.0629314
v -0.562097 0.250945 0.122545
v -0.572909 0.274182 0.0529372
v -0.57245 0.282913 0.0492994
v -0.572383 0.262631 0.0610734
v -0.560639 0.250945 0.130642
v -0.560396 0.257751 0.129253
v -0.541147 0.426009 0.0642027
v -0.528714 0.414323 0.134221
v -0.551217 0.262631 0.16923
v -0.551379 0.274317 0.157554
v -0.552324 0.344342 0.0875551
v -0.525542 0.410114 0.153231
v -0.525596 0.422024 0.141809
v -0.525434 0.386205 0.176075
v -0.526028 0.378639 0.180339
v -0.52808 0.367624 0.180906
v -0.537583 0.320075 0.180163
v -0.560369 0.224081 0.140773
v -0.562448 0.134266 0.157554
v -0.560814 0.134266 0.166668
v -0.56346 0.116132 0.157554
v -0.56238 0.116132 0.163558
v -0.553228 0.250945 0.16923
v -0.549273 0.262631 0.177073
v -0.548652 0.268944 0.175351
v -0.572369 0.116132 0.107602
v -0.575582 0.12258 0.0875551
v -0.575028 0.169278 0.0758789
v -0.573814 0.227618 0.0642027
v -0.575892 0.227618 0.0525265
v -0.562758 0.239304 0.122545
v -0.560976 0.239304 0.132519
v -0.539729 0.321015 0.16923
v -0.537043 0.327597 0.175801
v -0.528242 0.37931 0.16923
f 1 2 3
f 1 3 4
f 1 4 5
f 1 5 15
f 1 15 26
f 1 26 38
f 1 38 49
f 1 49 69
f 1 69 89
f 1 89 117
f 1 117 149
f 1 149 153
f 1 153 152
f 1 152 166
f 1 166 164
f 1 164 163
f 1 163 162
f 1 162 161
f 1 161 159
f 1 159 120
f 1 120 91
f 1 91 72
f 1 72 51
f 1 51 39
f 1 39 27
f 1 27 16
f 1 16 6
f 1 6 2
f 2 7 3
f 2 6 8
f 2 8 7
f 3 7 9
f 3 9 10
f 3 10 11
f 3 11 4
f 4 11 12
f 4 12 13
f 4 13 5
f 5 13 14
f 5 14 15
f 6 16 8
f 7 17 19
f 7 19 9
f 7 8 18
f 7 18 28
f 7 28 40
f 7 40 54
f 7 54 79
f 7 79 78
f 7 78 99
f 7 99 132
f 7 132 133
f 7 133 100
f 7 100 80
f 7 80 57
f 7 57 42
f 7 42 29
f 7 29 17
f 8 16 18
f 9 19 11
f 9 11 10
f 11 20 12
f 11 19 21
f 11 21 20
f 12 20 13
f 13 20 22
f 13 22 14
f 14 22 23
f 14 23 24
f 14 24 25
f 14 25 26
f 14 26 15
f 16 27 28
f 16 28 18
f 17 29 30
f 17 30 19
f 19 30 21
f 20 21 31
f 20 31 23
f 20 23 22
f 21 30 32
f 21 32 33
f 21 33 31
f 23 31 34
f 23 34 35
f 23 35 24
f 24 35 36
f 24 36 37
f 24 37 25
f 25 37 26
f 26 37 38
f 27 39 50
f 27 50 71
f 27 71 90
f 27 90 119
f 27 119 156
f 27 156 196
f 27 196 195
f 27 195 200
f 27 200 169
f 27 169 123
f 27 123 93
f 27 93 74
f 27 74 52
f 27 52 40
f 27 40 28
f 29 41 32
f 29 32 30
f 29 42 43
f 29 43 41
f 31 33 34
f 32 41 44
f 32 44 45
f 32 45 33
f 33 45 34
f 34 45 46
f 34 46 47
f 34 47 48
f 34 48 36
f 34 36 35
f 36 48 37
f 37 48 49
f 37 49 38
f 39 51 50
f 40 52 53
f 40 53 54
f 41 43 58
f 41 58 55
f 41 55 56
f 41 56 44
f 42 57 58
f 42 58 43
f 44 56 59
f 44 59 45
f 45 59 60
f 45 60 46
f 46 61 62
f 46 62 47
f 46 60 63
f 46 63 64
f 46 64 65
f 46 65 61
f 47 66 49
f 47 49 48
f 47 62 61
f 47 61 66
f 49 66 61
f 49 61 67
f 49 67 68
f 49 68 69
f 50 51 70
f 50 70 71
f 51 72 73
f 51 73 70
f 52 74 75
f 52 75 76
f 52 76 77
f 52 77 53
f 53 77 78
f 53 78 79
f 53 79 54
f 55 58 56
f 56 80 81
f 56 81 82
f 56 82 63
f 56 63 60
f 56 60 59
f 56 58 80
f 57 80 58
f 61 65 83
f 61 83 67
f 63 84 64
f 63 82 85
f 63 85 84
f 64 84 86
f 64 86 87
f 64 87 65
f 65 87 88
f 65 88 83
f 67 83 68
f 68 83 69
f 69 83 88
f 69 88 89
f 70 73 71
f 71 73 90
f 72 91 73
f 73 91 92
f 73 92 90
f 74 93 75
f 75 93 94
f 75 94 95
f 75 95 96
f 75 96 76
f 76 96 77
f 77 96 97
f 77 97 98
f 77 98 78
f 78 98 97
f 78 97 99
f 80 100 101
f 80 101 102
f 80 102 81
f 81 102 103
f 81 103 82
f 82 103 104
f 82 104 85
f 84 85 105
f 84 105 106
f 84 106 107
f 84 107 86
f 85 108 105
f 85 104 109
f 85 109 110
f 85 110 111
f 85 111 112
f 85 112 108
f 86 107 87
f 87 107 113
f 87 113 114
f 87 114 115
f 87 115 88
f 88 115 116
f 88 116 89
f 89 116 117
f 90 118 119
f 90 92 118
f 91 120 121
f 91 121 122
f 91 122 92
f 92 122 118
f 93 123 124
f 93 124 125
f 93 125 126
f 93 126 94
f 94 126 125
f 94 125 95
f 95 125 96
f 96 125 127
f 96 127 128
f 96 128 97
f 97 128 129
f 97 129 130
f 97 130 99
f 99 130 131
f 99 131 132
f 100 133 134
f 100 134 135
f 100 135 101
f 101 135 102
f 102 135 103
f 103 135 104
f 104 135 134
f 104 134 133
f 104 133 109
f 105 108 106
f 106 136 137
f 106 137 107
f 106 108 138
f 106 138 136
f 107 137 113
f 108 112 138
f 109 133 139
f 109 139 131
f 109 131 140
f 109 140 110
f 110 140 111
f 111 140 129
f 111 129 112
f 112 129 128
f 112 128 141
f 112 141 142
f 112 142 143
f 112 143 144
f 112 144 145
f 112 145 138
f 113 137 114
f 114 137 146
f 114 146 147
f 114 147 148
f 114 148 115
f 115 149 116
f 115 148 150
f 115 150 151
f 115 151 152
f 115 152 153
f 115 153 149
f 116 149 117
f 118 154 155
f 118 155 156
f 118 156 119
f 118 122 157
f 118 157 158
f 118 158 154
f 120 159 122
f 120 122 121
f 122 160 157
f 122 159 161
f 122 161 162
f 122 162 163
f 122 163 164
f 122 164 165
f 122 165 166
f 122 166 167
f 122 167 168
f 122 168 160
f 123 169 170
f 123 170 124
f 124 170 171
f 124 171 172
f 124 172 125
f 125 173 127
f 125 172 174
f 125 174 175
f 125 175 173
f 127 176 177
f 127 177 141
f 127 141 128
f 127 173 178
f 127 178 179
f 127 179 180
f 127 180 176
f 129 140 130
f 130 140 131
f 131 139 133
f 131 133 132
f 136 181 182
f 136 182 146
f 136 146 137
f 136 138 181
f 138 145 181
f 141 177 142
f 142 177 180
f 142 180 183
f 142 183 184
f 142 184 143
f 143 185 144
f 143 184 185
f 144 185 181
f 144 181 145
f 146 182 186
f 146 186 187
f 146 187 147
f 147 187 148
f 148 187 186
f 148 186 188
f 148 188 150
f 150 152 151
f 150 188 189
f 150 189 190
f 150 190 191
f 150 191 168
f 150 168 152
f 152 168 166
f 154 192 193
f 154 193 194
f 154 194 155
f 154 158 192
f 155 195 196
f 155 196 156
f 155 194 193
f 155 193 195
f 157 160 197
f 157 197 158
f 158 197 180
f 158 180 179
f 158 179 192
f 160 198 197
f 160 168 198
f 164 166 165
f 166 168 167
f 168 191 199
f 168 199 198
f 169 200 201
f 169 201 170
f 170 201 202
f 170 202 203
f 170 203 204
f 170 204 172
f 170 172 171
f 172 204 203
f 172 203 174
f 173 175 178
f 174 205 175
f 174 203 205
f 175 179 178
f 175 205 192
f 175 192 206
f 175 206 179
f 176 180 177
f 179 206 192
f 180 197 183
f 181 185 182
f 182 185 207
f 182 207 186
f 183 197 199
f 183 199 191
f 183 191 208
f 183 208 207
f 183 207 184
f 184 207 185
f 186 209 189
f 186 189 188
f 186 207 209
f 189 209 190
f 190 209 207
f 190 207 208
f 190 208 191
f 192 202 193
f 192 205 202
f 193 201 200
f 193 200 195
f 193 202 201
f 197 198 199
f 202 205 203
