v 0.263588 0.341484 -0.617344
v 0.262374 0.374955 -0.591493
v 0.261681 0.374955 -0.574771
v 0.259635 0.374955 -0.55814
v 0.259496 0.341484 -0.591403
v 0.26149 0.341484 -0.650245
v 0.261213 0.374955 -0.608124
v 0.254537 0.394344 -0.600984
v 0.255006 0.397234 -0.574771
v 0.257589 0.391617 -0.55814
v 0.256098 0.391617 -0.541509
v 0.250411 0.400191 -0.503366
v 0.250376 0.383015 -0.506348
v 0.256375 0.374955 -0.541509
v 0.255716 0.341484 -0.574771
v 0.247273 0.341484 -0.67248
v 0.247654 0.365254 -0.648437
v 0.247411 0.383394 -0.627467
v 0.24162 0.400517 -0.60957
v 0.235066 0.417626 -0.569619
v 0.232622 0.432605 -0.508156
v 0.246909 0.41152 -0.541509
v 0.251902 0.403258 -0.55814
v 0.251642 0.403217 -0.541509
v 0.251243 0.402647 -0.524787
v 0.232917 0.432347 -0.441541
v 0.22182 0.441587 -0.358204
v 0.233714 0.418942 -0.414425
v 0.234737 0.406066 -0.419938
v 0.200268 0.43308 -0.248384
v 0.184387 0.433826 -0.178695
v 0.0864595 0.392336 0.207439
v 0.0864595 0.376163 0.190265
v 0.251555 0.341484 -0.557327
v 0.0864595 0.361455 0.171645
v 0.0864595 0.342352 0.140823
v 0.227351 0.341484 -0.681067
v 0.230749 0.369243 -0.652414
v 0.224941 0.382377 -0.640664
v 0.221595 0.415713 -0.582725
v 0.224941 0.424993 -0.55814
v 0.225999 0.398577 -0.618067
v 0.219445 0.434287 -0.536267
v 0.212371 0.45415 -0.47869
v 0.218838 0.452251 -0.458172
v 0.233159 0.43308 -0.485559
v 0.233229 0.433161 -0.460793
v 0.246995 0.410951 -0.524787
v 0.219271 0.453893 -0.391557
v 0.215474 0.457664 -0.358204
v 0.222895 0.424912 -0.358204
v 0.226172 0.424912 -0.374835
v 0.229189 0.424912 -0.391557
v 0.216341 0.44856 -0.338048
v 0.190438 0.441587 -0.208342
v 0.218023 0.422537 -0.335336
v 0.212509 0.424912 -0.30822
v 0.133672 0.451016 0.0347992
v 0.11753 0.452739 0.103584
v 0.0982149 0.454082 0.18448
v 0.0864595 0.418847 0.222624
v 0.0864595 0.341484 0.123921
v 0.208279 0.341484 -0.685496
v 0.167395 0.341484 -0.694354
v 0.208279 0.380016 -0.646268
v 0.208279 0.387071 -0.637952
v 0.208279 0.404886 -0.608124
v 0.20495 0.431316 -0.552084
v 0.208279 0.441614 -0.524787
v 0.208279 0.397871 -0.621321
v 0.194477 0.453038 -0.498575
v 0.191617 0.460771 -0.474803
v 0.192952 0.46609 -0.45076
v 0.201343 0.467406 -0.430514
v 0.207325 0.465303 -0.408188
v 0.207984 0.465656 -0.391557
v 0.219081 0.452699 -0.441541
v 0.219289 0.45316 -0.424819
v 0.219358 0.453594 -0.408188
v 0.2157 0.458071 -0.374835
v 0.197754 0.472182 -0.341573
v 0.1972 0.471354 -0.324851
v 0.199835 0.466321 -0.291408
v 0.201101 0.453065 -0.269444
v 0.184543 0.449741 -0.190897
v 0.167152 0.451382 -0.114611
v 0.116888 0.466809 0.0842409
v 0.100105 0.466429 0.159172
v 0.0864595 0.458818 0.220002
v 0.0864595 0.440949 0.226149
v 0.0864595 0.370871 -0.667961
v 0.0877079 0.341484 -0.697246
v 0.137764 0.341484 -0.696975
v 0.141665 0.364535 -0.672751
v 0.158327 0.367669 -0.667689
v 0.175041 0.366611 -0.666514
v 0.191617 0.381224 -0.647262
v 0.174989 0.382065 -0.648166
v 0.158327 0.38273 -0.648979
v 0.191617 0.387465 -0.638946
v 0.108341 0.415374 -0.597368
v 0.108341 0.419471 -0.589053
v 0.174989 0.413664 -0.593753
v 0.174989 0.431913 -0.555338
v 0.174989 0.401128 -0.618428
v 0.174989 0.438181 -0.541509
v 0.191617 0.444327 -0.524787
v 0.191617 0.398265 -0.622044
v 0.174989 0.451518 -0.504631
v 0.174989 0.455846 -0.491525
v 0.174989 0.467786 -0.448681
v 0.174989 0.473742 -0.424819
v 0.174989 0.460948 -0.474803
v 0.174989 0.477351 -0.408188
v 0.191617 0.471381 -0.424819
v 0.191617 0.474217 -0.408188
v 0.191617 0.475587 -0.391557
v 0.197876 0.472426 -0.36652
v 0.174989 0.479685 -0.341573
v 0.174989 0.479142 -0.324851
v 0.174989 0.478369 -0.30822
v 0.174989 0.477582 -0.291589
v 0.174989 0.476727 -0.274867
v 0.196454 0.470133 -0.30822
v 0.174989 0.475615 -0.258236
v 0.174989 0.474108 -0.241605
v 0.183398 0.466673 -0.216115
v 0.166095 0.465724 -0.13549
v 0.132822 0.465683 0.0147332
v 0.101856 0.46841 0.141546
v 0.150195 0.466768 -0.0658017
v 0.0897365 0.471232 0.174809
v 0.0866156 0.46803 0.202286
v 0.0864595 0.472521 0.178515
v 0.0864595 0.381929 -0.653589
v 0.108341 0.369528 -0.669497
v 0.124985 0.373314 -0.663893
v 0.139047 0.383191 -0.649702
v 0.0864595 0.41072 -0.607672
v 0.0864595 0.418766 -0.592758
v 0.141665 0.418576 -0.587245
v 0.124985 0.425387 -0.574771
v 0.158327 0.420855 -0.580556
v 0.158327 0.432347 -0.556242
v 0.158327 0.396338 -0.627286
v 0.158327 0.438764 -0.541509
v 0.141665 0.434599 -0.552898
v 0.141665 0.439199 -0.541509
v 0.174989 0.444721 -0.524787
v 0.158327 0.450243 -0.50915
v 0.141665 0.445236 -0.524787
v 0.158327 0.455955 -0.491525
v 0.0864595 0.446118 -0.524426
v 0.124985 0.465995 -0.455822
v 0.158327 0.469577 -0.441541
v 0.141665 0.469563 -0.441541
v 0.158327 0.473539 -0.424819
v 0.0864595 0.453933 -0.499027
v 0.158327 0.460961 -0.474803
v 0.106607 0.466687 -0.449766
v 0.141665 0.472765 -0.424819
v 0.158327 0.476266 -0.408188
v 0.174989 0.479169 -0.391557
v 0.174989 0.479658 -0.374835
v 0.174989 0.479861 -0.358204
v 0.158327 0.480038 -0.274867
v 0.158327 0.479753 -0.258236
v 0.158327 0.479156 -0.241605
v 0.158327 0.478355 -0.224973
v 0.158327 0.477514 -0.208342
v 0.158327 0.476578 -0.191711
v 0.158327 0.473701 -0.158358
v 0.158327 0.475357 -0.174989
v 0.141665 0.472982 -0.0750212
v 0.108341 0.473281 0.0748407
v 0.108341 0.475085 0.0582095
v 0.0890776 0.474923 0.144168
v 0.0864595 0.477989 0.0967144
v 0.0864595 0.396596 -0.630902
v 0.108341 0.380776 -0.654583
v 0.0864595 0.430787 -0.566185
v 0.0864595 0.440406 -0.541509
v 0.108341 0.460961 -0.474803
v 0.0890776 0.46088 -0.474803
v 0.0864595 0.468451 -0.335607
v 0.0877772 0.464448 -0.450128
v 0.141665 0.474434 -0.408188
v 0.158327 0.477677 -0.391557
v 0.158327 0.478613 -0.374835
v 0.158327 0.479183 -0.358204
v 0.158327 0.479848 -0.324851
v 0.158327 0.480078 -0.299904
v 0.141665 0.480038 -0.191711
v 0.124985 0.480092 -0.125005
v 0.141665 0.479739 -0.174989
v 0.141665 0.479074 -0.158358
v 0.141665 0.478206 -0.141727
v 0.141665 0.477297 -0.125005
v 0.124985 0.476985 -0.0417587
v 0.141665 0.476239 -0.108374
v 0.141665 0.474828 -0.0917428
v 0.124985 0.474136 -0.00840586
v 0.124985 0.475737 -0.0251275
v 0.108341 0.476551 0.0415782
v 0.0897191 0.476822 0.11434
v 0.0897191 0.478504 0.0643558
v 0.0864595 0.478437 0.0467303
v 0.0916784 0.477677 0.0915623
v 0.108341 0.479251 -0.00840586
v 0.108341 0.479726 -0.0251275
v 0.0864595 0.469143 -0.314095
v 0.108341 0.47514 -0.258236
v 0.108341 0.474583 -0.274867
v 0.124985 0.478247 -0.258236
v 0.141665 0.475425 -0.391557
v 0.124985 0.477609 -0.274867
v 0.141665 0.476944 -0.358204
v 0.141665 0.476239 -0.374835
v 0.141665 0.477609 -0.341573
v 0.141665 0.478274 -0.324851
v 0.141665 0.478816 -0.30822
v 0.141665 0.479183 -0.291589
v 0.141665 0.479522 -0.274867
v 0.141665 0.479848 -0.258236
v 0.141665 0.480078 -0.233289
v 0.124985 0.479943 -0.108374
v 0.124985 0.480024 -0.150042
v 0.108341 0.479848 -0.0417587
v 0.124985 0.479522 -0.0917428
v 0.124985 0.47883 -0.0750212
v 0.124985 0.477962 -0.0583899
v 0.108341 0.47769 0.0248566
v 0.0916784 0.478803 0.0415782
v 0.108341 0.479671 -0.0583899
v 0.0877772 0.478274 0.020518
v 0.0884188 0.477921 -0.00940011
v 0.0864595 0.476822 -0.0461877
v 0.108341 0.478559 0.00822536
v 0.0864595 0.472236 -0.208342
v 0.108341 0.477663 -0.174989
v 0.108341 0.477161 -0.191711
v 0.108341 0.475655 -0.241605
v 0.124985 0.478722 -0.241605
v 0.124985 0.479006 -0.224973
v 0.124985 0.479508 -0.191711
v 0.124985 0.479753 -0.174989
v 0.108341 0.479196 -0.0917428
v 0.108341 0.478464 -0.141727
v 0.108341 0.478125 -0.158358
v 0.0864595 0.476171 -0.0698691
v 0.0864595 0.472711 -0.191711
v 0.0864595 0.47381 -0.153206
v 0.0864595 0.474285 -0.136484
f 1 2 3
f 1 3 4
f 1 4 5
f 1 5 15
f 1 15 34
f 1 34 62
f 1 62 92
f 1 92 93
f 1 93 64
f 1 64 63
f 1 63 37
f 1 37 16
f 1 16 6
f 1 6 2
f 2 6 7
f 2 7 8
f 2 8 9
f 2 9 10
f 2 10 3
f 3 10 11
f 3 11 4
f 4 11 12
f 4 12 13
f 4 13 14
f 4 14 5
f 5 14 13
f 5 13 15
f 6 16 17
f 6 17 18
f 6 18 8
f 6 8 7
f 8 18 19
f 8 19 20
f 8 20 21
f 8 21 22
f 8 22 23
f 8 23 9
f 9 23 10
f 10 23 24
f 10 24 25
f 10 25 12
f 10 12 11
f 12 25 26
f 12 26 27
f 12 27 28
f 12 28 29
f 12 29 13
f 13 29 30
f 13 30 31
f 13 31 32
f 13 32 33
f 13 33 15
f 15 33 35
f 15 35 36
f 15 36 34
f 16 37 38
f 16 38 17
f 17 39 18
f 17 38 39
f 18 39 19
f 19 40 41
f 19 41 20
f 19 39 42
f 19 42 40
f 20 41 43
f 20 43 44
f 20 44 21
f 21 44 45
f 21 45 46
f 21 46 22
f 22 46 47
f 22 47 48
f 22 48 23
f 23 48 24
f 24 48 47
f 24 47 26
f 24 26 25
f 26 47 49
f 26 49 50
f 26 50 27
f 27 51 52
f 27 52 53
f 27 53 28
f 27 50 54
f 27 54 55
f 27 55 30
f 27 30 51
f 28 53 52
f 28 52 29
f 29 52 51
f 29 51 56
f 29 56 57
f 29 57 30
f 30 55 31
f 30 57 51
f 31 55 58
f 31 58 59
f 31 59 60
f 31 60 61
f 31 61 32
f 32 61 90
f 32 90 89
f 32 89 134
f 32 134 178
f 32 178 207
f 32 207 237
f 32 237 250
f 32 250 253
f 32 253 252
f 32 252 251
f 32 251 239
f 32 239 211
f 32 211 185
f 32 185 158
f 32 158 153
f 32 153 182
f 32 182 181
f 32 181 140
f 32 140 139
f 32 139 179
f 32 179 135
f 32 135 91
f 32 91 62
f 32 62 36
f 32 36 35
f 32 35 33
f 34 36 62
f 37 63 39
f 37 39 38
f 39 63 64
f 39 64 65
f 39 65 66
f 39 66 42
f 40 42 67
f 40 67 68
f 40 68 41
f 41 68 69
f 41 69 43
f 42 66 70
f 42 70 67
f 43 69 44
f 44 69 71
f 44 71 72
f 44 72 73
f 44 73 74
f 44 74 45
f 45 74 75
f 45 75 76
f 45 76 77
f 45 77 46
f 46 77 78
f 46 78 79
f 46 79 49
f 46 49 47
f 49 79 80
f 49 80 50
f 50 80 76
f 50 76 81
f 50 81 82
f 50 82 83
f 50 83 54
f 51 57 56
f 54 83 84
f 54 84 55
f 55 85 86
f 55 86 58
f 55 84 85
f 58 86 87
f 58 87 59
f 59 87 88
f 59 88 60
f 60 88 89
f 60 89 90
f 60 90 61
f 62 91 92
f 64 93 94
f 64 94 95
f 64 95 96
f 64 96 65
f 65 97 66
f 65 96 95
f 65 95 97
f 66 97 98
f 66 98 99
f 66 99 100
f 66 100 70
f 67 101 102
f 67 102 103
f 67 103 104
f 67 104 68
f 67 70 105
f 67 105 101
f 68 104 106
f 68 106 107
f 68 107 69
f 69 107 71
f 70 108 105
f 70 100 108
f 71 107 109
f 71 109 110
f 71 110 72
f 72 111 112
f 72 112 73
f 72 110 113
f 72 113 111
f 73 112 114
f 73 114 115
f 73 115 74
f 74 115 116
f 74 116 117
f 74 117 75
f 75 117 76
f 76 79 78
f 76 78 77
f 76 117 118
f 76 118 81
f 76 80 79
f 81 118 117
f 81 117 119
f 81 119 120
f 81 120 121
f 81 121 122
f 81 122 123
f 81 123 82
f 82 124 83
f 82 123 125
f 82 125 126
f 82 126 124
f 83 124 127
f 83 127 84
f 84 127 128
f 84 128 129
f 84 129 87
f 84 87 86
f 84 86 85
f 87 130 88
f 87 129 131
f 87 131 130
f 88 130 132
f 88 132 133
f 88 133 89
f 89 133 134
f 91 135 136
f 91 136 92
f 92 136 93
f 93 136 94
f 94 136 137
f 94 137 95
f 95 137 99
f 95 99 98
f 95 98 97
f 99 138 108
f 99 108 100
f 99 137 138
f 101 105 139
f 101 139 140
f 101 140 102
f 102 141 103
f 102 140 142
f 102 142 141
f 103 141 143
f 103 143 104
f 104 143 142
f 104 142 144
f 104 144 106
f 105 108 145
f 105 145 139
f 106 146 107
f 106 144 147
f 106 147 146
f 107 146 148
f 107 148 149
f 107 149 109
f 108 138 145
f 109 150 110
f 109 149 151
f 109 151 150
f 110 152 113
f 110 150 153
f 110 153 152
f 111 113 154
f 111 154 155
f 111 155 112
f 112 155 156
f 112 156 157
f 112 157 114
f 113 152 158
f 113 158 159
f 113 159 154
f 114 116 115
f 114 157 160
f 114 160 161
f 114 161 162
f 114 162 163
f 114 163 116
f 116 163 117
f 117 163 164
f 117 164 165
f 117 165 119
f 119 165 166
f 119 166 167
f 119 167 120
f 120 167 168
f 120 168 121
f 121 168 122
f 122 168 169
f 122 169 170
f 122 170 123
f 123 170 171
f 123 171 125
f 124 126 172
f 124 172 127
f 125 171 173
f 125 173 126
f 126 173 172
f 127 172 174
f 127 174 175
f 127 175 131
f 127 131 128
f 128 131 129
f 130 175 132
f 130 131 175
f 132 134 133
f 132 175 134
f 134 175 176
f 134 176 177
f 134 177 178
f 135 179 180
f 135 180 136
f 136 180 137
f 137 180 138
f 138 179 145
f 138 180 179
f 139 145 179
f 140 181 142
f 141 142 143
f 142 181 147
f 142 147 144
f 146 147 181
f 146 181 148
f 148 182 149
f 148 181 182
f 149 182 151
f 150 151 182
f 150 182 153
f 152 153 158
f 154 156 155
f 154 159 183
f 154 183 184
f 154 184 156
f 156 184 160
f 156 160 157
f 158 185 186
f 158 186 184
f 158 184 183
f 158 183 159
f 160 186 187
f 160 187 162
f 160 162 161
f 160 184 186
f 162 187 188
f 162 188 163
f 163 188 189
f 163 189 190
f 163 190 164
f 164 190 191
f 164 191 165
f 165 191 192
f 165 192 166
f 166 193 167
f 166 192 194
f 166 194 193
f 167 193 195
f 167 195 168
f 168 195 196
f 168 196 169
f 169 196 170
f 170 196 197
f 170 197 198
f 170 198 171
f 171 198 199
f 171 199 200
f 171 200 173
f 172 173 201
f 172 201 202
f 172 202 174
f 173 200 203
f 173 203 201
f 174 202 175
f 175 202 176
f 176 202 201
f 176 201 203
f 176 203 204
f 176 204 177
f 177 205 178
f 177 204 205
f 178 206 207
f 178 205 208
f 178 208 209
f 178 209 210
f 178 210 206
f 185 211 212
f 185 212 213
f 185 213 214
f 185 214 186
f 186 215 187
f 186 214 216
f 186 216 217
f 186 217 218
f 186 218 215
f 187 215 188
f 188 215 189
f 189 218 217
f 189 217 219
f 189 219 220
f 189 220 190
f 189 215 218
f 190 220 221
f 190 221 222
f 190 222 223
f 190 223 191
f 191 223 224
f 191 224 225
f 191 225 192
f 192 225 194
f 193 194 226
f 193 226 195
f 194 227 228
f 194 228 210
f 194 210 226
f 194 225 227
f 195 226 210
f 195 210 229
f 195 229 196
f 196 229 230
f 196 230 231
f 196 231 197
f 197 231 198
f 198 231 232
f 198 232 199
f 199 232 204
f 199 204 200
f 200 204 203
f 204 232 205
f 205 232 208
f 206 233 207
f 206 210 233
f 207 233 228
f 207 228 234
f 207 234 235
f 207 235 236
f 207 236 237
f 208 232 238
f 208 238 209
f 209 230 229
f 209 229 210
f 209 238 230
f 210 228 233
f 211 239 240
f 211 240 241
f 211 241 242
f 211 242 212
f 212 242 214
f 212 214 213
f 214 242 241
f 214 241 240
f 214 240 243
f 214 243 221
f 214 221 220
f 214 220 216
f 216 220 219
f 216 219 217
f 221 243 222
f 222 243 223
f 223 243 224
f 224 243 244
f 224 244 245
f 224 245 246
f 224 246 227
f 224 227 225
f 227 234 228
f 227 246 234
f 230 238 232
f 230 232 231
f 234 246 247
f 234 247 235
f 235 247 236
f 236 247 248
f 236 248 249
f 236 249 237
f 237 249 250
f 239 251 240
f 240 251 252
f 240 252 253
f 240 253 250
f 240 250 249
f 240 249 243
f 243 249 248
f 243 248 244
f 244 248 245
f 245 248 247
f 245 247 246
