v 0.474127 0.00387708 -0.318091
v 0.472711 0.0202416 -0.317811
v 0.46953 0.0474558 -0.316833
v 0.413446 8.06808e-05 -0.316833
v 0.413838 0.00217869 -0.442693
v 0.449288 0.00361733 -0.379191
v 0.469443 0.00477623 -0.331585
v 0.469857 0.0171645 -0.326668
v 0.469966 0.0349077 -0.32013
v 0.455454 0.10686 -0.333401
v 0.46088 0.10686 -0.318761
v 0.454823 0.132575 -0.318733
v 0.425256 0.203828 -0.319068
v 0.359214 0.204207 -0.316833
v 0.251535 8.06808e-05 -0.551176
v 0.310299 8.06808e-05 -0.559725
v 0.411572 0.0110303 -0.4449
v 0.425321 0.007134 -0.424087
v 0.430485 0.00361733 -0.415649
v 0.435583 0.00361733 -0.406234
v 0.440529 0.00361733 -0.39654
v 0.39096 0.00185899 -0.47457
v 0.398848 0.00537566 -0.464345
v 0.448177 0.0213805 -0.37771
v 0.456086 0.00537566 -0.364914
v 0.462449 0.007134 -0.349185
v 0.460618 0.0213805 -0.349185
v 0.456391 0.092653 -0.335831
v 0.456239 0.114852 -0.328344
v 0.449332 0.10686 -0.349185
v 0.456762 0.122345 -0.322058
v 0.441619 0.156313 -0.327366
v 0.441619 0.1277 -0.355863
v 0.446173 0.136531 -0.336111
v 0.426192 0.196275 -0.324516
v 0.419046 0.204207 -0.333931
v 0.251535 0.204207 -0.475492
v 0.251535 0.0216802 -0.602218
v 0.255348 0.00361733 -0.600905
v 0.299688 0.00361733 -0.568749
v 0.321367 0.00361733 -0.55031
v 0.329582 0.00361733 -0.543186
v 0.336685 0.00361733 -0.536089
v 0.343657 0.00361733 -0.528965
v 0.350804 0.00361733 -0.521562
v 0.357645 0.00361733 -0.514438
v 0.364727 0.00361733 -0.506727
v 0.37122 0.00361733 -0.499603
v 0.275176 0.00361733 -0.587327
v 0.283434 0.00361733 -0.581488
v 0.292476 0.00361733 -0.574532
v 0.417281 0.0213805 -0.433837
v 0.398412 0.0213805 -0.462445
v 0.400133 0.035647 -0.45764
v 0.407629 0.0213805 -0.448979
v 0.426628 0.0213805 -0.419086
v 0.428132 0.0328496 -0.414308
v 0.433775 0.0213805 -0.406234
v 0.378323 0.00361733 -0.490662
v 0.37159 0.0191226 -0.497228
v 0.383029 0.0213805 -0.482309
v 0.441205 0.0952505 -0.37229
v 0.455454 0.0213805 -0.362065
v 0.4275 0.0423406 -0.413247
v 0.437239 0.0498935 -0.391986
v 0.433492 0.0784264 -0.391986
v 0.456696 0.0343083 -0.354913
v 0.456457 0.0498935 -0.350247
v 0.442665 0.10686 -0.365585
v 0.441444 0.120207 -0.361646
v 0.441924 0.134533 -0.348375
v 0.412989 0.20093 -0.35184
v 0.432359 0.122285 -0.378939
v 0.435017 0.135392 -0.363462
v 0.428175 0.158271 -0.357762
v 0.407062 0.204207 -0.362288
v 0.26609 0.204207 -0.535419
v 0.255457 0.203628 -0.544052
v 0.251535 0.192079 -0.552936
v 0.251535 0.0326698 -0.601324
v 0.264891 0.007134 -0.594451
v 0.306442 0.007134 -0.562993
v 0.290689 0.0213805 -0.57456
v 0.32871 0.0213805 -0.542403
v 0.356905 0.0186031 -0.513627
v 0.281364 0.0213805 -0.581684
v 0.402791 0.06414 -0.44775
v 0.413751 0.0747899 -0.428333
v 0.387692 0.035647 -0.474012
v 0.384554 0.0836415 -0.469988
v 0.386581 0.092653 -0.465658
v 0.399458 0.0458973 -0.45669
v 0.398826 0.0553883 -0.455768
v 0.414775 0.092653 -0.422913
v 0.360391 0.06414 -0.503402
v 0.359454 0.0784264 -0.502396
v 0.366557 0.0784264 -0.493736
v 0.382092 0.035647 -0.481136
v 0.436934 0.10686 -0.37771
v 0.422292 0.10686 -0.406234
v 0.425038 0.0784264 -0.408525
v 0.42702 0.0925331 -0.401038
v 0.428611 0.10686 -0.394137
v 0.414732 0.188742 -0.35955
v 0.427216 0.120287 -0.390226
v 0.427347 0.1278 -0.384499
v 0.428807 0.139469 -0.372933
v 0.425996 0.153036 -0.367261
v 0.412553 0.183507 -0.369021
v 0.401833 0.204207 -0.373128
v 0.273171 0.204207 -0.529608
v 0.283325 0.174356 -0.54014
v 0.26792 0.195795 -0.539218
v 0.273171 0.182228 -0.543241
v 0.266003 0.165604 -0.556903
v 0.251535 0.164445 -0.56738
v 0.251535 0.0466166 -0.600095
v 0.255893 0.035647 -0.598111
v 0.263693 0.0498935 -0.591406
v 0.27328 0.035647 -0.586042
v 0.297814 0.0213805 -0.568777
v 0.319363 0.0205813 -0.550533
v 0.289752 0.035647 -0.573861
v 0.328122 0.0308315 -0.541845
v 0.355772 0.035647 -0.512482
v 0.341587 0.0389838 -0.526786
v 0.280427 0.035647 -0.580985
v 0.271167 0.0678565 -0.584534
v 0.39863 0.092653 -0.448365
v 0.377473 0.092653 -0.47742
v 0.370915 0.0963495 -0.485019
v 0.384925 0.10686 -0.463535
v 0.41362 0.10686 -0.421125
v 0.353898 0.06414 -0.510526
v 0.358277 0.092653 -0.501055
v 0.36538 0.092653 -0.492478
v 0.352961 0.0784264 -0.50952
v 0.412095 0.119508 -0.417857
v 0.415167 0.124263 -0.409615
v 0.420179 0.135392 -0.391986
v 0.397301 0.204207 -0.381621
v 0.290079 0.204207 -0.515555
v 0.302085 0.188862 -0.515359
v 0.311584 0.181749 -0.511392
v 0.300625 0.167802 -0.528574
v 0.289643 0.163046 -0.540392
v 0.271842 0.158311 -0.556624
v 0.252537 0.153635 -0.571989
v 0.251535 0.136172 -0.579393
v 0.251535 0.06414 -0.598139
v 0.294982 0.06414 -0.566374
v 0.312369 0.035647 -0.554808
v 0.288815 0.0498935 -0.573135
v 0.287878 0.06414 -0.572381
v 0.310495 0.06414 -0.553187
v 0.327468 0.0403226 -0.54123
v 0.318687 0.06414 -0.546063
v 0.317685 0.0784264 -0.545169
v 0.331848 0.0784264 -0.53148
v 0.345836 0.0784264 -0.516952
v 0.27949 0.0498935 -0.580259
v 0.266547 0.0790858 -0.585316
v 0.27657 0.0771477 -0.578806
v 0.278553 0.06414 -0.579505
v 0.398238 0.109177 -0.443643
v 0.357166 0.101844 -0.499714
v 0.385992 0.11689 -0.457668
v 0.36294 0.105641 -0.491054
v 0.351566 0.092653 -0.508179
v 0.399284 0.157332 -0.413722
v 0.399523 0.121126 -0.435429
v 0.398042 0.140108 -0.426154
v 0.414797 0.135392 -0.401876
v 0.401375 0.162787 -0.405732
v 0.3912 0.204207 -0.392852
v 0.308926 0.202948 -0.499938
v 0.297683 0.20129 -0.511029
v 0.347579 0.204207 -0.458394
v 0.307728 0.194037 -0.507118
v 0.316727 0.189741 -0.501893
v 0.320213 0.177013 -0.505386
v 0.315071 0.168062 -0.514493
v 0.31518 0.132136 -0.528881
v 0.297858 0.145403 -0.540196
v 0.289839 0.149639 -0.545476
v 0.273868 0.149639 -0.558216
v 0.258355 0.145703 -0.571459
v 0.280993 0.149639 -0.552601
v 0.264303 0.135392 -0.570481
v 0.273781 0.10686 -0.572325
v 0.251818 0.125342 -0.582438
v 0.251535 0.0920535 -0.59163
v 0.251535 0.0781667 -0.595317
v 0.309297 0.0784264 -0.552293
v 0.285787 0.0821629 -0.570676
v 0.293478 0.0784264 -0.565284
v 0.324788 0.0784264 -0.538604
v 0.315005 0.0969689 -0.542794
v 0.322936 0.092653 -0.536872
v 0.344442 0.092653 -0.515443
v 0.263148 0.092653 -0.583919
v 0.278291 0.0914941 -0.573666
v 0.343025 0.102064 -0.513991
v 0.341064 0.111515 -0.512063
v 0.33906 0.121126 -0.510079
v 0.343744 0.132275 -0.500608
v 0.340955 0.145703 -0.497479
v 0.355183 0.111275 -0.497479
v 0.371503 0.124902 -0.471441
v 0.368736 0.13821 -0.468145
v 0.355358 0.168681 -0.46915
v 0.353397 0.178152 -0.46672
v 0.359084 0.178152 -0.459624
v 0.370566 0.156852 -0.456159
v 0.38401 0.126381 -0.454958
v 0.389653 0.121426 -0.449706
v 0.355292 0.139988 -0.483315
v 0.363006 0.134353 -0.476917
v 0.383835 0.174356 -0.426182
v 0.38584 0.187763 -0.414951
v 0.38621 0.194876 -0.40914
v 0.379434 0.14894 -0.448001
v 0.357537 0.19092 -0.454595
v 0.384576 0.204207 -0.405005
v 0.32213 0.194417 -0.493065
v 0.337731 0.202849 -0.470855
v 0.326553 0.20165 -0.483259
v 0.355902 0.203987 -0.44789
v 0.349518 0.193058 -0.463535
v 0.32932 0.179591 -0.494574
v 0.323089 0.163885 -0.508319
v 0.32919 0.168062 -0.500273
v 0.32603 0.149639 -0.511308
v 0.328623 0.101684 -0.528071
v 0.320409 0.1062 -0.534162
v 0.30069 0.131676 -0.542739
v 0.294045 0.121126 -0.551623
v 0.271777 0.116371 -0.570844
v 0.303283 0.0910945 -0.554165
v 0.253583 0.108378 -0.58593
v 0.330214 0.092653 -0.529747
v 0.346272 0.178152 -0.475269
v 0.343897 0.189301 -0.472419
v 0.372614 0.203408 -0.424841
f 1 2 3
f 1 3 4
f 1 4 5
f 1 5 6
f 1 6 7
f 1 7 2
f 2 7 8
f 2 8 9
f 2 9 3
f 3 9 10
f 3 10 11
f 3 11 12
f 3 12 13
f 3 13 14
f 3 14 4
f 4 14 15
f 4 15 16
f 4 16 5
f 5 17 18
f 5 18 19
f 5 19 20
f 5 20 21
f 5 21 6
f 5 16 22
f 5 22 23
f 5 23 17
f 6 21 24
f 6 24 25
f 6 25 7
f 7 26 8
f 7 25 26
f 8 26 27
f 8 27 28
f 8 28 10
f 8 10 9
f 10 29 11
f 10 28 30
f 10 30 29
f 11 29 31
f 11 31 12
f 12 32 13
f 12 31 33
f 12 33 34
f 12 34 32
f 13 32 35
f 13 35 36
f 13 36 14
f 14 36 76
f 14 76 110
f 14 110 141
f 14 141 175
f 14 175 224
f 14 224 178
f 14 178 142
f 14 142 111
f 14 111 77
f 14 77 37
f 14 37 15
f 15 38 39
f 15 39 16
f 15 37 79
f 15 79 116
f 15 116 149
f 15 149 192
f 15 192 193
f 15 193 150
f 15 150 117
f 15 117 80
f 15 80 38
f 16 40 41
f 16 41 42
f 16 42 43
f 16 43 44
f 16 44 45
f 16 45 46
f 16 46 47
f 16 47 48
f 16 48 22
f 16 39 49
f 16 49 50
f 16 50 51
f 16 51 40
f 17 52 18
f 17 23 53
f 17 53 54
f 17 54 55
f 17 55 52
f 18 56 57
f 18 57 19
f 18 52 56
f 19 57 58
f 19 58 20
f 20 58 21
f 21 58 24
f 22 59 23
f 22 48 59
f 23 59 60
f 23 60 61
f 23 61 53
f 24 62 63
f 24 63 25
f 24 58 64
f 24 64 65
f 24 65 66
f 24 66 62
f 25 63 26
f 26 63 67
f 26 67 27
f 27 67 68
f 27 68 28
f 28 68 30
f 29 30 69
f 29 69 70
f 29 70 31
f 30 68 67
f 30 67 69
f 31 70 33
f 32 34 71
f 32 71 72
f 32 72 36
f 32 36 35
f 33 70 73
f 33 73 74
f 33 74 75
f 33 75 71
f 33 71 34
f 36 72 76
f 37 77 78
f 37 78 79
f 38 80 81
f 38 81 39
f 39 81 49
f 40 82 41
f 40 51 83
f 40 83 82
f 41 82 42
f 42 82 84
f 42 84 43
f 43 84 44
f 44 84 85
f 44 85 45
f 45 85 46
f 46 85 47
f 47 85 48
f 48 85 60
f 48 60 59
f 49 81 50
f 50 86 83
f 50 83 51
f 50 81 86
f 52 55 87
f 52 87 88
f 52 88 56
f 53 61 89
f 53 89 90
f 53 90 54
f 54 90 91
f 54 91 92
f 54 92 55
f 55 93 87
f 55 92 93
f 56 88 57
f 57 64 58
f 57 88 94
f 57 94 64
f 60 85 95
f 60 95 96
f 60 96 97
f 60 97 98
f 60 98 61
f 61 98 89
f 62 66 99
f 62 99 69
f 62 69 63
f 63 69 67
f 64 94 100
f 64 100 101
f 64 101 102
f 64 102 66
f 64 66 65
f 66 102 103
f 66 103 99
f 69 99 70
f 70 99 73
f 71 75 72
f 72 75 104
f 72 104 76
f 73 99 105
f 73 105 106
f 73 106 107
f 73 107 74
f 74 107 108
f 74 108 75
f 75 108 104
f 76 108 109
f 76 109 110
f 76 104 108
f 77 111 112
f 77 112 113
f 77 113 78
f 78 113 114
f 78 114 79
f 79 114 115
f 79 115 116
f 80 117 118
f 80 118 81
f 81 118 119
f 81 119 120
f 81 120 86
f 82 83 121
f 82 121 122
f 82 122 84
f 83 123 121
f 83 86 127
f 83 127 123
f 84 124 85
f 84 122 124
f 85 125 95
f 85 124 126
f 85 126 125
f 86 120 128
f 86 128 127
f 87 93 129
f 87 129 88
f 88 129 94
f 89 98 90
f 90 98 97
f 90 97 130
f 90 130 91
f 91 130 131
f 91 131 132
f 91 132 129
f 91 129 93
f 91 93 92
f 94 129 133
f 94 133 100
f 95 125 134
f 95 134 137
f 95 137 96
f 96 135 136
f 96 136 97
f 96 137 135
f 97 136 131
f 97 131 130
f 99 103 105
f 100 105 103
f 100 103 102
f 100 102 101
f 100 133 138
f 100 138 105
f 105 138 139
f 105 139 106
f 106 140 107
f 106 139 140
f 107 141 110
f 107 110 109
f 107 109 108
f 107 140 141
f 111 142 143
f 111 143 112
f 112 143 144
f 112 144 145
f 112 145 146
f 112 146 147
f 112 147 114
f 112 114 113
f 114 147 115
f 115 147 116
f 116 147 148
f 116 148 149
f 117 150 128
f 117 128 119
f 117 119 118
f 119 128 120
f 121 151 152
f 121 152 122
f 121 123 153
f 121 153 154
f 121 154 151
f 122 152 155
f 122 155 124
f 123 127 161
f 123 161 153
f 124 156 126
f 124 155 157
f 124 157 158
f 124 158 156
f 125 126 134
f 126 156 159
f 126 159 160
f 126 160 134
f 127 128 161
f 128 150 162
f 128 162 163
f 128 163 154
f 128 154 164
f 128 164 161
f 129 165 133
f 129 132 165
f 131 136 135
f 131 135 166
f 131 166 132
f 132 167 165
f 132 166 168
f 132 168 167
f 133 165 138
f 134 160 137
f 135 137 169
f 135 169 166
f 137 160 169
f 138 170 139
f 138 165 167
f 138 167 171
f 138 171 172
f 138 172 170
f 139 170 173
f 139 173 140
f 140 173 170
f 140 170 174
f 140 174 141
f 141 174 175
f 142 176 177
f 142 177 143
f 142 178 176
f 143 177 179
f 143 179 180
f 143 180 144
f 144 180 181
f 144 181 145
f 145 182 183
f 145 183 184
f 145 184 146
f 145 181 182
f 146 184 185
f 146 185 147
f 147 186 187
f 147 187 148
f 147 185 188
f 147 188 186
f 148 187 149
f 149 187 189
f 149 189 190
f 149 190 191
f 149 191 192
f 150 193 162
f 151 194 158
f 151 158 155
f 151 155 152
f 151 154 194
f 153 161 164
f 153 164 154
f 154 163 195
f 154 195 196
f 154 196 194
f 155 158 157
f 156 197 159
f 156 158 197
f 158 194 198
f 158 198 199
f 158 199 197
f 159 200 169
f 159 169 160
f 159 197 200
f 162 201 202
f 162 202 163
f 162 193 192
f 162 192 201
f 163 202 195
f 166 169 200
f 166 200 203
f 166 203 204
f 166 204 205
f 166 205 206
f 166 206 207
f 166 207 208
f 166 208 168
f 167 168 209
f 167 209 210
f 167 210 211
f 167 211 212
f 167 212 213
f 167 213 214
f 167 214 215
f 167 215 216
f 167 216 171
f 168 217 218
f 168 218 209
f 168 208 217
f 170 172 219
f 170 219 220
f 170 220 221
f 170 221 174
f 171 216 172
f 172 216 215
f 172 215 222
f 172 222 223
f 172 223 219
f 174 221 175
f 175 221 224
f 176 225 180
f 176 180 179
f 176 179 177
f 176 178 226
f 176 226 227
f 176 227 225
f 178 224 228
f 178 228 229
f 178 229 226
f 180 225 226
f 180 226 230
f 180 230 181
f 181 231 182
f 181 230 232
f 181 232 231
f 182 231 233
f 182 233 183
f 183 233 203
f 183 203 234
f 183 234 235
f 183 235 184
f 184 198 236
f 184 236 185
f 184 235 198
f 185 237 188
f 185 236 237
f 186 189 187
f 186 188 189
f 188 237 238
f 188 238 189
f 189 238 190
f 190 202 191
f 190 238 239
f 190 239 202
f 191 202 201
f 191 201 240
f 191 240 192
f 192 240 201
f 194 239 198
f 194 196 239
f 195 239 196
f 195 202 239
f 197 199 241
f 197 241 200
f 198 235 234
f 198 234 199
f 198 239 237
f 198 237 236
f 199 234 203
f 199 203 241
f 200 241 203
f 203 233 204
f 204 233 205
f 205 233 231
f 205 231 206
f 206 232 207
f 206 231 232
f 207 230 242
f 207 242 217
f 207 217 208
f 207 232 230
f 209 218 211
f 209 211 210
f 211 218 217
f 211 217 242
f 211 242 212
f 212 229 213
f 212 242 243
f 212 243 229
f 213 229 223
f 213 223 214
f 214 223 215
f 215 223 222
f 219 244 220
f 219 223 244
f 220 244 224
f 220 224 221
f 223 228 244
f 223 229 228
f 224 244 228
f 225 227 226
f 226 229 243
f 226 243 230
f 230 243 242
f 237 239 238
