v 0.376132 -0.165135 -0.316805
v 0.413467 8.06861e-05 -0.316805
v 0.441976 -0.165135 -0.316805
v 0.407381 -0.165135 -0.150075
v 0.442571 8.06861e-05 -0.150075
v 0.474539 8.06861e-05 -0.316805
v 0.443711 -0.161318 -0.316805
v 0.445286 -0.165135 -0.307502
v 0.472171 -0.165135 -0.150075
v 0.502763 8.06861e-05 -0.150075
v 0.474539 -0.00756878 -0.316805
v 0.475518 8.06861e-05 -0.313867
v 0.456169 -0.131416 -0.316805
v 0.456962 -0.130445 -0.315826
v 0.454979 -0.139938 -0.309934
v 0.44541 -0.164957 -0.307339
v 0.44536 -0.165135 -0.307257
v 0.47858 -0.149642 -0.150075
v 0.471775 -0.165135 -0.163916
v 0.472779 -0.162709 -0.163916
v 0.502763 -0.00713213 -0.150075
v 0.502391 8.06861e-05 -0.163916
v 0.472878 -0.0213798 -0.316805
v 0.477997 -0.00713213 -0.306408
v 0.477997 8.06861e-05 -0.306408
v 0.456776 -0.129815 -0.316805
v 0.458189 -0.135265 -0.305674
v 0.45716 -0.128375 -0.316805
v 0.462416 -0.12113 -0.306408
v 0.470671 -0.129152 -0.272018
v 0.456404 -0.143335 -0.300434
v 0.462143 -0.135394 -0.292159
v 0.457631 -0.146294 -0.292159
v 0.454148 -0.164181 -0.278873
v 0.453764 -0.165135 -0.278808
v 0.483054 -0.138564 -0.150075
v 0.478183 -0.149642 -0.163916
v 0.477117 -0.149642 -0.178165
v 0.46963 -0.165135 -0.192415
v 0.500916 -0.0213798 -0.150075
v 0.502391 -0.00713213 -0.163916
v 0.498995 8.06861e-05 -0.214776
v 0.471514 -0.0326681 -0.316805
v 0.476163 -0.0213798 -0.306408
v 0.470039 -0.0549857 -0.312562
v 0.470671 -0.0454764 -0.31452
v 0.471316 -0.0356437 -0.316283
v 0.484641 -0.000630894 -0.28532
v 0.484046 -0.0101402 -0.283133
v 0.484641 8.06861e-05 -0.28532
v 0.459119 -0.120467 -0.316805
v 0.460854 -0.110748 -0.316805
v 0.464895 -0.106882 -0.306408
v 0.470163 -0.11285 -0.284488
v 0.469419 -0.12113 -0.28199
v 0.457817 -0.165135 -0.264036
v 0.457247 -0.15962 -0.274776
v 0.466928 -0.134488 -0.277224
v 0.471452 -0.12113 -0.274858
v 0.474254 -0.12113 -0.263661
v 0.477179 -0.12113 -0.249411
v 0.4717 -0.131707 -0.263661
v 0.468787 -0.138839 -0.263661
v 0.464325 -0.149642 -0.263661
v 0.459714 -0.150741 -0.278873
v 0.454359 -0.165135 -0.276718
v 0.485633 -0.131642 -0.150075
v 0.482856 -0.138046 -0.163916
v 0.485521 -0.130914 -0.163916
v 0.476039 -0.149642 -0.192415
v 0.468428 -0.165135 -0.205342
v 0.471043 -0.15852 -0.206664
v 0.499404 -0.0329106 -0.150075
v 0.499218 -0.0315037 -0.163916
v 0.500544 -0.0213798 -0.163916
v 0.499156 -0.0167869 -0.192415
v 0.500383 -0.00713213 -0.192415
v 0.498995 -0.00134247 -0.214776
v 0.492326 8.06861e-05 -0.249411
v 0.47113 -0.0356437 -0.316805
v 0.474291 -0.0356437 -0.306408
v 0.472159 -0.0501017 -0.307257
v 0.483315 -0.0213798 -0.280472
v 0.461524 -0.106882 -0.316805
v 0.469556 -0.0474656 -0.316805
v 0.489463 -0.00713213 -0.263661
v 0.485918 -0.00608093 -0.278187
v 0.485273 -0.0213798 -0.273356
v 0.489463 8.06861e-05 -0.263661
v 0.468849 -0.10761 -0.291767
v 0.472357 -0.10761 -0.279003
v 0.478394 -0.0641392 -0.27791
v 0.474638 -0.0926346 -0.27791
v 0.458177 -0.165135 -0.262567
v 0.476361 -0.106882 -0.263661
v 0.479224 -0.106882 -0.249411
v 0.482162 -0.12113 -0.220913
v 0.478357 -0.135394 -0.220913
v 0.475778 -0.135394 -0.235146
v 0.472878 -0.136186 -0.249428
v 0.469891 -0.141475 -0.254194
v 0.485707 -0.131432 -0.150075
v 0.482311 -0.136655 -0.178165
v 0.482212 -0.134181 -0.192137
v 0.484703 -0.128634 -0.187208
v 0.485025 -0.129523 -0.178165
v 0.487405 -0.12113 -0.163916
v 0.487777 -0.12113 -0.150075
v 0.474712 -0.149642 -0.206664
v 0.480427 -0.135394 -0.206664
v 0.468304 -0.165135 -0.206664
v 0.470535 -0.157291 -0.214988
v 0.487839 -0.120726 -0.150075
v 0.489289 -0.106882 -0.163916
v 0.486414 -0.12113 -0.178165
v 0.492921 -0.0641392 -0.192415
v 0.498871 -0.0146846 -0.200086
v 0.499354 -0.00651758 -0.20557
v 0.485137 -0.104036 -0.217094
v 0.495363 -0.0213798 -0.220913
v 0.494768 -0.00713213 -0.235146
v 0.492326 -0.00713213 -0.249411
v 0.498387 -0.0108517 -0.209585
v 0.484505 -0.113545 -0.213193
v 0.47822 -0.0356437 -0.292159
v 0.484728 -0.0297247 -0.271365
v 0.484567 -0.0570396 -0.256544
v 0.487628 -0.0213798 -0.263661
v 0.460978 -0.165135 -0.249411
v 0.478245 -0.0926346 -0.263661
v 0.484096 -0.0392178 -0.268786
v 0.481108 -0.0926346 -0.249411
v 0.48386 -0.108031 -0.221468
v 0.483972 -0.121664 -0.207741
v 0.484356 -0.126758 -0.196707
v 0.472556 -0.150127 -0.220211
v 0.470758 -0.143593 -0.244694
v 0.467709 -0.148865 -0.249428
v 0.466321 -0.165135 -0.220325
v 0.48536 -0.121664 -0.192137
v 0.485001 -0.117249 -0.203693
v 0.493566 -0.0498915 -0.206664
v 0.497582 -0.0202155 -0.20557
v 0.489736 -0.0641392 -0.220913
v 0.486736 -0.0498915 -0.249411
v 0.488608 -0.0356437 -0.249411
v 0.490479 -0.0213798 -0.249411
v 0.485038 -0.0498915 -0.258601
v 0.483947 -0.0665327 -0.252888
v 0.485794 -0.0349322 -0.263889
v 0.483401 -0.0498915 -0.265734
f 1 2 6
f 1 6 11
f 1 11 23
f 1 23 43
f 1 43 80
f 1 80 85
f 1 85 84
f 1 84 52
f 1 52 51
f 1 51 28
f 1 28 26
f 1 26 13
f 1 13 7
f 1 7 3
f 1 3 8
f 1 8 17
f 1 17 35
f 1 35 66
f 1 66 56
f 1 56 94
f 1 94 129
f 1 129 139
f 1 139 111
f 1 111 71
f 1 71 39
f 1 39 19
f 1 19 9
f 1 9 4
f 1 4 5
f 1 5 2
f 2 5 10
f 2 10 22
f 2 22 42
f 2 42 79
f 2 79 89
f 2 89 50
f 2 50 25
f 2 25 12
f 2 12 6
f 3 7 8
f 4 9 18
f 4 18 36
f 4 36 67
f 4 67 102
f 4 102 108
f 4 108 113
f 4 113 73
f 4 73 40
f 4 40 21
f 4 21 10
f 4 10 5
f 6 12 11
f 7 13 14
f 7 14 8
f 8 14 15
f 8 15 16
f 8 16 17
f 9 19 20
f 9 20 18
f 10 21 41
f 10 41 22
f 11 12 24
f 11 24 23
f 12 25 24
f 13 26 14
f 14 27 15
f 14 26 28
f 14 28 29
f 14 29 30
f 14 30 27
f 15 27 16
f 16 27 31
f 16 31 32
f 16 32 33
f 16 33 17
f 17 33 34
f 17 34 35
f 18 20 37
f 18 37 36
f 19 38 20
f 19 39 38
f 20 38 37
f 21 40 75
f 21 75 41
f 22 41 78
f 22 78 42
f 23 24 43
f 24 44 45
f 24 45 46
f 24 46 47
f 24 47 43
f 24 25 50
f 24 50 48
f 24 48 49
f 24 49 44
f 27 32 31
f 27 30 32
f 28 51 29
f 29 51 52
f 29 52 53
f 29 53 54
f 29 54 55
f 29 55 30
f 30 56 57
f 30 57 58
f 30 58 32
f 30 55 59
f 30 59 60
f 30 60 61
f 30 61 62
f 30 62 63
f 30 63 64
f 30 64 56
f 32 58 65
f 32 65 33
f 33 65 57
f 33 57 34
f 34 57 35
f 35 57 66
f 36 37 68
f 36 68 69
f 36 69 67
f 37 38 68
f 38 39 70
f 38 70 68
f 39 71 72
f 39 72 70
f 40 73 74
f 40 74 75
f 41 75 76
f 41 76 77
f 41 77 78
f 42 78 122
f 42 122 79
f 43 47 80
f 44 81 82
f 44 82 45
f 44 49 83
f 44 83 81
f 45 82 53
f 45 53 84
f 45 84 46
f 46 84 85
f 46 85 80
f 46 80 47
f 48 50 89
f 48 89 86
f 48 86 87
f 48 87 49
f 49 87 88
f 49 88 83
f 52 84 53
f 53 82 90
f 53 90 54
f 54 91 59
f 54 59 55
f 54 90 92
f 54 92 93
f 54 93 91
f 56 66 57
f 56 64 94
f 57 65 58
f 59 91 95
f 59 95 60
f 60 95 61
f 61 95 96
f 61 96 97
f 61 97 98
f 61 98 62
f 62 98 99
f 62 99 100
f 62 100 101
f 62 101 63
f 63 101 64
f 64 101 94
f 67 69 102
f 68 70 103
f 68 103 104
f 68 104 105
f 68 105 106
f 68 106 69
f 69 106 107
f 69 107 108
f 69 108 102
f 70 72 109
f 70 109 110
f 70 110 104
f 70 104 103
f 71 111 72
f 72 111 112
f 72 112 109
f 73 113 74
f 74 113 114
f 74 114 115
f 74 115 116
f 74 116 76
f 74 76 75
f 76 116 117
f 76 117 77
f 77 117 118
f 77 118 78
f 78 119 120
f 78 120 121
f 78 121 122
f 78 118 123
f 78 123 124
f 78 124 119
f 79 122 86
f 79 86 89
f 81 83 125
f 81 125 82
f 82 125 126
f 82 126 92
f 82 92 90
f 83 88 126
f 83 126 125
f 86 122 127
f 86 127 128
f 86 128 126
f 86 126 88
f 86 88 87
f 91 93 126
f 91 126 95
f 92 126 93
f 94 101 129
f 95 130 127
f 95 127 96
f 95 126 131
f 95 131 130
f 96 127 132
f 96 132 133
f 96 133 97
f 97 133 124
f 97 124 134
f 97 134 135
f 97 135 98
f 98 135 110
f 98 110 112
f 98 112 136
f 98 136 137
f 98 137 101
f 98 101 100
f 98 100 99
f 101 137 136
f 101 136 138
f 101 138 129
f 104 110 105
f 105 107 106
f 105 110 135
f 105 135 107
f 107 135 115
f 107 115 114
f 107 114 113
f 107 113 108
f 109 112 110
f 111 139 112
f 112 139 136
f 115 135 140
f 115 140 116
f 116 140 135
f 116 135 117
f 117 135 141
f 117 141 142
f 117 142 143
f 117 143 123
f 117 123 118
f 119 144 120
f 119 124 133
f 119 133 132
f 119 132 145
f 119 145 144
f 120 144 145
f 120 145 146
f 120 146 147
f 120 147 122
f 120 122 121
f 122 147 127
f 123 143 142
f 123 142 124
f 124 142 141
f 124 141 134
f 126 128 131
f 127 130 148
f 127 148 128
f 127 147 146
f 127 146 145
f 127 145 149
f 127 149 132
f 128 148 150
f 128 150 151
f 128 151 131
f 129 138 136
f 129 136 139
f 130 131 151
f 130 151 148
f 132 149 145
f 134 141 135
f 148 151 150
