v 0.198196 0.00568362 0.261419
v 0.198196 4.08023e-05 0.261419
v 0.198096 0.00692558 0.261419
v 0.163241 0.00713257 0.492519
v 0.140067 4.08023e-05 0.261419
v 0.163241 4.08023e-05 0.492519
v 0.195917 0.024016 0.261419
v 0.161407 0.0213791 0.492519
v 0.0935611 0.0919728 0.292546
v 0.105227 0.0919728 0.261871
v 0.105413 0.0919728 0.261419
v 0.139422 4.08023e-05 0.263681
v 0.0784127 0.0919728 0.33435
v 0.0813793 0.0919728 0.325483
v 0.0828555 0.0919728 0.321185
v 0.106001 4.08023e-05 0.492519
v 0.194384 0.0356347 0.261419
v 0.159558 0.0348157 0.492519
v 0.175423 0.0919728 0.261419
v 0.128029 4.08023e-05 0.305621
v 0.078126 0.0919728 0.335391
v 0.0519566 0.0919728 0.492519
v 0.0518993 0.0919728 0.491863
v 0.051885 0.0919728 0.491682
v 0.105958 4.08023e-05 0.491682
v 0.194068 0.0376146 0.261419
v 0.159443 0.0356347 0.492519
v 0.18127 0.0780503 0.261419
v 0.134549 0.0919728 0.492519
v 0.141056 0.0828471 0.492519
v 0.144409 0.0761333 0.492519
v 0.14461 0.0757194 0.492519
v 0.144925 0.0750084 0.492519
v 0.149655 0.0641277 0.492519
v 0.149927 0.0634888 0.492519
v 0.127068 4.08023e-05 0.309173
v 0.0628056 0.0919728 0.392442
v 0.0517846 0.0919728 0.477431
v 0.105915 4.08023e-05 0.477431
v 0.191804 0.0497732 0.261419
v 0.157724 0.0442834 0.492519
v 0.186903 0.0644967 0.261419
v 0.154685 0.0519871 0.492519
v 0.12552 4.08023e-05 0.314964
v 0.0595237 0.0919728 0.406173
v 0.124001 4.08023e-05 0.320687
v 0.0531605 0.0919728 0.463179
v 0.109913 4.08023e-05 0.406173
v 0.109355 4.08023e-05 0.413344
v 0.108824 4.08023e-05 0.420425
v 0.108437 4.08023e-05 0.427596
v 0.106932 4.08023e-05 0.456099
v 0.10623 4.08023e-05 0.47035
v 0.191059 0.0521221 0.261419
v 0.157595 0.0448684 0.492519
v 0.187261 0.0636148 0.261419
v 0.0573166 0.0919728 0.420832
v 0.121006 4.08023e-05 0.334939
v 0.11546 4.08023e-05 0.368825
v 0.114027 4.08023e-05 0.377738
v 0.111762 4.08023e-05 0.391922
v 0.110831 4.08023e-05 0.39907
f 1 2 5
f 1 5 11
f 1 11 19
f 1 19 28
f 1 28 42
f 1 42 56
f 1 56 54
f 1 54 40
f 1 40 26
f 1 26 17
f 1 17 7
f 1 7 3
f 1 3 4
f 1 4 6
f 1 6 2
f 2 6 16
f 2 16 25
f 2 25 39
f 2 39 53
f 2 53 52
f 2 52 51
f 2 51 50
f 2 50 49
f 2 49 48
f 2 48 62
f 2 62 61
f 2 61 60
f 2 60 59
f 2 59 58
f 2 58 46
f 2 46 44
f 2 44 36
f 2 36 20
f 2 20 12
f 2 12 5
f 3 7 4
f 4 8 18
f 4 18 27
f 4 27 41
f 4 41 55
f 4 55 43
f 4 43 35
f 4 35 34
f 4 34 33
f 4 33 32
f 4 32 31
f 4 31 30
f 4 30 29
f 4 29 22
f 4 22 16
f 4 16 6
f 4 7 8
f 5 9 10
f 5 10 11
f 5 12 13
f 5 13 14
f 5 14 15
f 5 15 9
f 7 17 8
f 8 17 18
f 9 15 14
f 9 14 13
f 9 13 21
f 9 21 37
f 9 37 45
f 9 45 57
f 9 57 47
f 9 47 38
f 9 38 24
f 9 24 23
f 9 23 22
f 9 22 29
f 9 29 19
f 9 19 11
f 9 11 10
f 12 20 21
f 12 21 13
f 16 22 23
f 16 23 24
f 16 24 25
f 17 26 27
f 17 27 18
f 19 29 30
f 19 30 31
f 19 31 32
f 19 32 33
f 19 33 34
f 19 34 35
f 19 35 28
f 20 36 21
f 21 36 37
f 24 38 25
f 25 38 39
f 26 40 27
f 27 40 41
f 28 35 42
f 35 43 42
f 36 44 37
f 37 44 46
f 37 46 45
f 38 47 48
f 38 48 49
f 38 49 50
f 38 50 51
f 38 51 52
f 38 52 53
f 38 53 39
f 40 54 55
f 40 55 41
f 42 43 55
f 42 55 56
f 45 46 58
f 45 58 59
f 45 59 60
f 45 60 61
f 45 61 57
f 47 57 48
f 48 57 62
f 54 56 55
f 57 61 62
