v -0.211632 -0.42278 -0.316805
v -0.211632 -0.425138 -0.310179
v -0.211632 -0.354923 -0.316805
v -0.20272 -0.426643 -0.316805
v -0.200876 -0.428134 -0.314977
v -0.211632 -0.425804 -0.308285
v -0.211632 -0.387961 -0.150075
v 8.06808e-05 -0.442562 -0.150075
v 8.06808e-05 -0.413474 -0.316805
v -0.131411 -0.456165 -0.316805
v -0.130437 -0.456961 -0.315826
v -0.170412 -0.441549 -0.312692
v -0.211632 -0.428004 -0.300875
v -0.164962 -0.445413 -0.307339
v -0.211632 -0.452909 -0.150075
v 8.06808e-05 -0.502749 -0.150075
v 8.06808e-05 -0.474544 -0.316805
v -0.128364 -0.457164 -0.316805
v -0.121132 -0.462417 -0.306408
v -0.129152 -0.470666 -0.272018
v -0.135265 -0.458191 -0.305674
v -0.139949 -0.454978 -0.309934
v -0.211632 -0.434993 -0.277192
v -0.134498 -0.466932 -0.277224
v -0.13539 -0.462142 -0.292159
v -0.211632 -0.452822 -0.153225
v -0.149647 -0.478581 -0.150075
v 8.06808e-05 -0.502387 -0.163916
v -0.00713113 -0.502749 -0.150075
v 8.06808e-05 -0.478003 -0.306408
v -0.00756633 -0.474544 -0.316805
v -0.120469 -0.459117 -0.316805
v -0.106874 -0.46152 -0.316805
v -0.106874 -0.464891 -0.306408
v -0.112863 -0.470159 -0.284488
v -0.121132 -0.469421 -0.28199
v -0.131701 -0.471707 -0.263661
v -0.13883 -0.468799 -0.263661
v -0.169107 -0.455282 -0.267627
v -0.199591 -0.441838 -0.270875
v -0.159615 -0.45725 -0.274776
v -0.121132 -0.471447 -0.274858
v -0.121132 -0.474254 -0.263661
v -0.121132 -0.477178 -0.249411
v -0.211632 -0.43864 -0.263661
v -0.211632 -0.452504 -0.163916
v -0.1924 -0.460478 -0.163916
v -0.149647 -0.478191 -0.163916
v -0.13856 -0.483053 -0.150075
v 8.06808e-05 -0.498986 -0.214776
v -0.00713113 -0.502387 -0.163916
v -0.00754561 -0.502705 -0.150075
v 8.06808e-05 -0.484645 -0.28532
v -0.00713113 -0.478003 -0.306408
v -0.0191094 -0.473169 -0.316805
v -0.0474593 -0.469551 -0.316805
v -0.0454698 -0.470666 -0.31452
v -0.0549819 -0.470043 -0.312562
v -0.0926574 -0.469537 -0.296435
v -0.10762 -0.468842 -0.291767
v -0.0641418 -0.478393 -0.27791
v -0.10762 -0.472359 -0.279003
v -0.13539 -0.478364 -0.220913
v -0.13539 -0.475788 -0.235146
v -0.136198 -0.47288 -0.249428
v -0.141482 -0.469884 -0.254194
v -0.171946 -0.456455 -0.258127
v -0.164175 -0.458423 -0.263187
v -0.1924 -0.446614 -0.263661
v -0.208875 -0.439784 -0.263661
v -0.106874 -0.476367 -0.263661
v -0.121132 -0.482156 -0.220913
v -0.106874 -0.479218 -0.249411
v -0.211632 -0.4411 -0.252692
v -0.211632 -0.45139 -0.178786
v -0.193747 -0.45877 -0.179194
v -0.167242 -0.468755 -0.192415
v -0.160113 -0.471707 -0.192415
v -0.149647 -0.476034 -0.192415
v -0.138042 -0.48285 -0.163916
v -0.130913 -0.485513 -0.163916
v -0.131431 -0.485701 -0.150075
v 8.06808e-05 -0.492329 -0.249411
v -0.00134925 -0.498986 -0.214776
v -0.021389 -0.500549 -0.163916
v -0.0167883 -0.499145 -0.192415
v -0.00713113 -0.50039 -0.192415
v -0.0216791 -0.500882 -0.150075
v 8.06808e-05 -0.489464 -0.263661
v -0.00064465 -0.484645 -0.28532
v -0.021389 -0.476165 -0.306408
v -0.0326626 -0.471519 -0.316805
v -0.00609495 -0.482416 -0.290902
v -0.0356468 -0.471129 -0.316805
v -0.0500912 -0.472156 -0.307257
v -0.0356468 -0.47822 -0.292159
v -0.0297199 -0.484732 -0.271365
v -0.13539 -0.480419 -0.206664
v -0.157294 -0.470535 -0.214988
v -0.150124 -0.472547 -0.220211
v -0.145689 -0.471635 -0.235146
v -0.126748 -0.484355 -0.196707
v -0.14886 -0.467713 -0.249428
v -0.211632 -0.441216 -0.252121
v -0.039232 -0.484095 -0.268786
v -0.0498839 -0.4834 -0.265734
v -0.0570336 -0.484573 -0.256544
v -0.12165 -0.483979 -0.207741
v -0.106874 -0.481664 -0.235146
v -0.108034 -0.483849 -0.221468
v -0.104055 -0.485137 -0.217094
v -0.113547 -0.4845 -0.213193
v -0.0665457 -0.48395 -0.252888
v -0.0926574 -0.481099 -0.249411
v -0.211632 -0.450362 -0.192415
v -0.149647 -0.474718 -0.206664
v -0.211632 -0.449016 -0.206925
v -0.134188 -0.482214 -0.192137
v -0.136654 -0.482315 -0.178165
v -0.128634 -0.484703 -0.187208
v -0.129525 -0.485021 -0.178165
v -0.121132 -0.487409 -0.163916
v -0.121132 -0.487785 -0.150075
v -0.121422 -0.487727 -0.150075
v -0.00713113 -0.492329 -0.249411
v -0.0356468 -0.493487 -0.220913
v -0.021389 -0.495354 -0.220913
v -0.00650943 -0.497423 -0.220081
v -0.00650943 -0.499348 -0.20557
v -0.0108614 -0.498378 -0.209585
v -0.0400402 -0.498465 -0.150075
v -0.0315021 -0.499218 -0.163916
v -0.0239173 -0.498219 -0.192415
v -0.0146745 -0.49887 -0.200086
v -0.00713113 -0.489464 -0.263661
v -0.00609495 -0.485918 -0.278187
v -0.0101361 -0.484037 -0.283133
v -0.021389 -0.483314 -0.280472
v -0.021389 -0.485267 -0.273356
v -0.021389 -0.487626 -0.263661
v -0.162786 -0.467308 -0.220211
v -0.211632 -0.446947 -0.220913
v -0.121132 -0.48641 -0.178165
v -0.117256 -0.484992 -0.203693
v -0.106874 -0.487293 -0.192415
v -0.211632 -0.442576 -0.244727
v -0.1924 -0.449682 -0.249411
v -0.021389 -0.490477 -0.249411
v -0.0356468 -0.48861 -0.249411
v -0.0883884 -0.484949 -0.230249
v -0.0356468 -0.495441 -0.206664
v -0.0783996 -0.489811 -0.206664
v -0.106874 -0.48929 -0.163916
v -0.0783996 -0.493415 -0.150075
v -0.021389 -0.492923 -0.235146
v -0.0202077 -0.497582 -0.20557
v -0.0641418 -0.49492 -0.163916
v -0.0641418 -0.492923 -0.192415
f 1 2 6
f 1 6 13
f 1 13 23
f 1 23 45
f 1 45 74
f 1 74 104
f 1 104 146
f 1 146 142
f 1 142 117
f 1 117 115
f 1 115 75
f 1 75 46
f 1 46 26
f 1 26 15
f 1 15 7
f 1 7 3
f 1 3 9
f 1 9 17
f 1 17 31
f 1 31 55
f 1 55 92
f 1 92 94
f 1 94 56
f 1 56 33
f 1 33 32
f 1 32 18
f 1 18 10
f 1 10 4
f 1 4 5
f 1 5 2
f 2 5 6
f 3 7 8
f 3 8 9
f 4 10 11
f 4 11 5
f 5 11 12
f 5 12 6
f 6 12 14
f 6 14 13
f 7 15 27
f 7 27 49
f 7 49 82
f 7 82 124
f 7 124 123
f 7 123 154
f 7 154 131
f 7 131 88
f 7 88 52
f 7 52 29
f 7 29 16
f 7 16 8
f 8 16 28
f 8 28 50
f 8 50 83
f 8 83 89
f 8 89 53
f 8 53 30
f 8 30 17
f 8 17 9
f 10 18 11
f 11 18 19
f 11 19 20
f 11 20 21
f 11 21 22
f 11 22 12
f 12 22 14
f 13 14 24
f 13 24 23
f 14 22 21
f 14 21 25
f 14 25 24
f 15 26 27
f 16 29 51
f 16 51 28
f 17 30 54
f 17 54 31
f 18 32 19
f 19 32 33
f 19 33 34
f 19 34 35
f 19 35 36
f 19 36 20
f 20 37 38
f 20 38 39
f 20 39 40
f 20 40 41
f 20 41 24
f 20 24 21
f 20 36 42
f 20 42 43
f 20 43 44
f 20 44 37
f 21 24 25
f 23 40 45
f 23 24 41
f 23 41 40
f 26 46 47
f 26 47 48
f 26 48 27
f 27 48 49
f 28 51 84
f 28 84 50
f 29 52 51
f 30 53 90
f 30 90 54
f 31 54 55
f 33 56 57
f 33 57 58
f 33 58 34
f 34 58 59
f 34 59 60
f 34 60 35
f 35 60 59
f 35 59 61
f 35 61 62
f 35 62 42
f 35 42 36
f 37 44 63
f 37 63 64
f 37 64 65
f 37 65 66
f 37 66 38
f 38 66 67
f 38 67 68
f 38 68 39
f 39 68 67
f 39 67 69
f 39 69 40
f 40 69 70
f 40 70 45
f 42 62 71
f 42 71 43
f 43 71 44
f 44 72 63
f 44 71 73
f 44 73 72
f 45 70 67
f 45 67 74
f 46 75 47
f 47 75 76
f 47 76 48
f 48 77 78
f 48 78 79
f 48 79 80
f 48 80 49
f 48 76 77
f 49 80 81
f 49 81 82
f 50 84 125
f 50 125 83
f 51 52 85
f 51 85 86
f 51 86 87
f 51 87 84
f 52 88 85
f 53 89 135
f 53 135 90
f 54 91 58
f 54 58 57
f 54 57 92
f 54 92 55
f 54 90 93
f 54 93 91
f 56 94 57
f 57 94 92
f 58 95 59
f 58 91 95
f 59 95 96
f 59 96 97
f 59 97 61
f 61 97 62
f 62 97 71
f 63 98 99
f 63 99 100
f 63 100 101
f 63 101 65
f 63 65 64
f 63 72 102
f 63 102 98
f 65 101 66
f 66 101 100
f 66 100 103
f 66 103 104
f 66 104 74
f 66 74 67
f 67 70 69
f 71 97 105
f 71 105 106
f 71 106 107
f 71 107 73
f 72 108 102
f 72 73 109
f 72 109 110
f 72 110 111
f 72 111 112
f 72 112 108
f 73 107 113
f 73 113 114
f 73 114 111
f 73 111 109
f 75 115 76
f 76 115 77
f 77 116 78
f 77 115 117
f 77 117 116
f 78 116 79
f 79 116 98
f 79 98 118
f 79 118 119
f 79 119 80
f 80 119 118
f 80 118 120
f 80 120 121
f 80 121 81
f 81 121 122
f 81 122 123
f 81 123 124
f 81 124 82
f 83 125 135
f 83 135 89
f 84 126 127
f 84 127 128
f 84 128 125
f 84 87 129
f 84 129 130
f 84 130 112
f 84 112 111
f 84 111 126
f 85 88 131
f 85 131 132
f 85 132 133
f 85 133 86
f 86 134 87
f 86 133 134
f 87 134 129
f 90 135 136
f 90 136 93
f 91 93 137
f 91 137 138
f 91 138 97
f 91 97 96
f 91 96 95
f 93 136 137
f 97 138 139
f 97 139 135
f 97 135 140
f 97 140 105
f 98 102 120
f 98 120 118
f 98 116 99
f 99 141 100
f 99 116 117
f 99 117 142
f 99 142 141
f 100 141 103
f 102 143 122
f 102 122 120
f 102 108 144
f 102 144 134
f 102 134 145
f 102 145 143
f 103 141 146
f 103 146 147
f 103 147 104
f 104 147 146
f 105 140 106
f 106 140 107
f 107 140 135
f 107 135 125
f 107 125 148
f 107 148 149
f 107 149 113
f 108 112 144
f 109 111 110
f 111 114 113
f 111 113 150
f 111 150 126
f 112 130 151
f 112 151 152
f 112 152 144
f 113 149 126
f 113 126 150
f 120 122 121
f 122 143 145
f 122 145 153
f 122 153 123
f 123 153 157
f 123 157 154
f 125 128 155
f 125 155 148
f 126 149 155
f 126 155 127
f 127 155 128
f 129 134 130
f 130 134 156
f 130 156 151
f 131 154 132
f 132 154 157
f 132 157 158
f 132 158 133
f 133 158 134
f 134 152 151
f 134 151 156
f 134 158 145
f 134 144 152
f 135 139 136
f 136 139 138
f 136 138 137
f 141 142 146
f 145 158 157
f 145 157 153
f 148 155 149
