v -0.127728 0.150725 0.261419
v -0.127728 0.295654 0.0327792
v -0.14966 0.286565 0.0327792
v -0.161251 0.280892 0.0327792
v -0.16448 0.279039 0.0327792
v -0.16992 0.275219 0.0327792
v -0.176071 0.27079 0.0327792
v -0.133168 0.146585 0.261419
v -0.127728 0.0567967 0.261419
v -0.127728 0.228501 0.0327792
v -0.18895 0.26092 0.0327792
v -0.135205 0.144878 0.261419
v -0.205519 0.248213 0.0327792
v -0.218129 0.238516 0.0327792
v -0.221435 0.235969 0.0327792
v -0.140088 -5.20104e-05 0.261419
v -0.127728 0.0587071 0.258532
v -0.127728 0.223175 0.0378377
v -0.202405 -5.20104e-05 0.1194
v -0.206134 -5.20104e-05 0.113021
v -0.210306 -5.20104e-05 0.105904
v -0.218091 -5.20104e-05 0.0939513
v -0.238639 -5.20104e-05 0.063175
v -0.247001 -5.20104e-05 0.0512226
v -0.251172 -5.20104e-05 0.0457388
v -0.254901 -5.20104e-05 0.040837
v -0.260917 -5.20104e-05 0.0337193
v -0.261725 -5.20104e-05 0.0327792
v -0.140395 0.140391 0.261419
v -0.225741 0.232351 0.0327792
v -0.198215 -5.20104e-05 0.261419
v -0.140683 -5.20104e-05 0.259293
v -0.127728 0.209802 0.0527894
v -0.127728 0.203116 0.0608472
v -0.127728 0.171363 0.0992336
v -0.127728 0.164937 0.107224
v -0.127728 0.158135 0.116177
v -0.165922 -5.20104e-05 0.192391
v -0.167883 -5.20104e-05 0.187601
v -0.169882 -5.20104e-05 0.182721
v -0.171535 -5.20104e-05 0.179185
v -0.173246 -5.20104e-05 0.175604
v -0.176167 -5.20104e-05 0.169784
v -0.179147 -5.20104e-05 0.163897
v -0.184068 -5.20104e-05 0.154407
v -0.198619 -5.20104e-05 0.126518
v -0.3241 -5.20104e-05 0.0327792
v -0.144874 0.13521 0.261419
v -0.232353 0.225722 0.0327792
v -0.198215 0.00570813 0.261419
v -0.141952 -5.20104e-05 0.254883
v -0.143221 -5.20104e-05 0.251347
v -0.144509 -5.20104e-05 0.247766
v -0.146854 -5.20104e-05 0.241498
v -0.149237 -5.20104e-05 0.235142
v -0.154831 -5.20104e-05 0.220347
v -0.159675 -5.20104e-05 0.207991
v -0.3241 0.00512922 0.0327792
v -0.146585 0.133184 0.261419
v -0.235986 0.221409 0.0327792
v -0.196235 0.0213965 0.261419
v -0.323773 0.00767641 0.0327792
v -0.158983 0.117148 0.261419
v -0.248211 0.205489 0.0327792
v -0.19439 0.0356377 0.261419
v -0.32262 0.0165626 0.0327792
v -0.260917 0.188932 0.0327792
v -0.26678 0.181291 0.0327792
v -0.270797 0.176052 0.0327792
v -0.166749 0.106959 0.261419
v -0.191814 0.049792 0.261419
v -0.314258 0.07839 0.0327792
v -0.316354 0.0641489 0.0327792
v -0.317142 0.0582151 0.0327792
v -0.318237 0.0499077 0.0327792
v -0.320563 0.0322221 0.0327792
v -0.321986 0.0213965 0.0327792
v -0.275218 0.169886 0.0327792
v -0.169113 0.103544 0.261419
v -0.279044 0.164445 0.0327792
v -0.187278 0.0636279 0.261419
v -0.310914 0.0908076 0.0327792
v -0.172938 0.0970887 0.261419
v -0.280889 0.161232 0.0327792
v -0.309107 0.0952362 0.0327792
v -0.18153 0.0774638 0.261419
v -0.288309 0.145428 0.0327792
v -0.296862 0.124818 0.0327792
v -0.303148 0.109651 0.0327792
v -0.175052 0.0929206 0.261419
v -0.286559 0.149625 0.0327792
f 1 2 3
f 1 3 4
f 1 4 5
f 1 5 6
f 1 6 7
f 1 7 8
f 1 8 12
f 1 12 29
f 1 29 48
f 1 48 59
f 1 59 63
f 1 63 70
f 1 70 79
f 1 79 83
f 1 83 90
f 1 90 86
f 1 86 81
f 1 81 71
f 1 71 65
f 1 65 61
f 1 61 50
f 1 50 31
f 1 31 16
f 1 16 9
f 1 9 17
f 1 17 37
f 1 37 36
f 1 36 35
f 1 35 34
f 1 34 33
f 1 33 18
f 1 18 10
f 1 10 2
f 2 10 28
f 2 28 47
f 2 47 58
f 2 58 62
f 2 62 66
f 2 66 77
f 2 77 76
f 2 76 75
f 2 75 74
f 2 74 73
f 2 73 72
f 2 72 82
f 2 82 85
f 2 85 89
f 2 89 88
f 2 88 87
f 2 87 91
f 2 91 84
f 2 84 80
f 2 80 78
f 2 78 69
f 2 69 68
f 2 68 67
f 2 67 64
f 2 64 60
f 2 60 49
f 2 49 30
f 2 30 15
f 2 15 14
f 2 14 13
f 2 13 11
f 2 11 7
f 2 7 6
f 2 6 5
f 2 5 4
f 2 4 3
f 7 11 8
f 8 11 13
f 8 13 14
f 8 14 15
f 8 15 12
f 9 16 17
f 10 18 19
f 10 19 20
f 10 20 21
f 10 21 22
f 10 22 23
f 10 23 24
f 10 24 25
f 10 25 26
f 10 26 27
f 10 27 28
f 12 15 30
f 12 30 29
f 16 31 47
f 16 47 28
f 16 28 27
f 16 27 26
f 16 26 25
f 16 25 24
f 16 24 23
f 16 23 22
f 16 22 21
f 16 21 20
f 16 20 19
f 16 19 46
f 16 46 45
f 16 45 44
f 16 44 43
f 16 43 42
f 16 42 41
f 16 41 40
f 16 40 39
f 16 39 38
f 16 38 57
f 16 57 56
f 16 56 55
f 16 55 54
f 16 54 53
f 16 53 52
f 16 52 51
f 16 51 32
f 16 32 33
f 16 33 34
f 16 34 35
f 16 35 36
f 16 36 37
f 16 37 17
f 18 33 38
f 18 38 39
f 18 39 40
f 18 40 41
f 18 41 42
f 18 42 43
f 18 43 44
f 18 44 45
f 18 45 46
f 18 46 19
f 29 30 49
f 29 49 48
f 31 50 58
f 31 58 47
f 32 51 33
f 33 51 52
f 33 52 53
f 33 53 54
f 33 54 55
f 33 55 56
f 33 56 57
f 33 57 38
f 48 49 59
f 49 60 59
f 50 61 58
f 58 61 62
f 59 60 63
f 60 64 63
f 61 65 62
f 62 65 66
f 63 64 67
f 63 67 68
f 63 68 69
f 63 69 70
f 65 71 72
f 65 72 73
f 65 73 74
f 65 74 75
f 65 75 76
f 65 76 77
f 65 77 66
f 69 78 70
f 70 78 80
f 70 80 79
f 71 81 82
f 71 82 72
f 79 80 83
f 80 84 83
f 81 85 82
f 81 86 87
f 81 87 88
f 81 88 89
f 81 89 85
f 83 84 90
f 84 91 90
f 86 90 91
f 86 91 87
