v -0.3241 -0.00512651 0.0327792
v -0.3241 -5.20104e-05 0.0327792
v -0.323774 -0.00765779 0.0327792
v -0.195936 -0.0240156 0.261419
v -0.19809 -0.00692945 0.261419
v -0.19819 -0.00568769 0.261419
v -0.261709 -5.20104e-05 0.0327792
v -0.19819 -5.20104e-05 0.261419
v -0.32127 -0.0267857 0.0327792
v -0.194408 -0.0356332 0.261419
v -0.319767 -0.03826 0.0327792
v -0.318239 -0.0498896 0.0327792
v -0.261358 -5.20104e-05 0.0331821
v -0.215898 -0.122031 0.0496334
v -0.224189 -0.122031 0.0401879
v -0.22484 -0.122031 0.039494
v -0.231152 -0.122031 0.0327792
v -0.140082 -5.20104e-05 0.261419
v -0.194082 -0.0376152 0.261419
v -0.316361 -0.064134 0.0327792
v -0.314708 -0.0755008 0.0327792
v -0.314257 -0.0783784 0.0327792
v -0.257876 -5.20104e-05 0.0373005
v -0.254896 -5.20104e-05 0.040837
v -0.173118 -0.122031 0.102434
v -0.298001 -0.122031 0.0327792
v -0.0682224 -0.122031 0.261419
v -0.140683 -5.20104e-05 0.259293
v -0.191828 -0.0497821 0.261419
v -0.312829 -0.0847782 0.0327792
v -0.246981 -5.20104e-05 0.0512226
v -0.16866 -0.122031 0.108052
v -0.300406 -0.11624 0.0327792
v -0.15521 -0.122031 0.261419
v -0.158967 -0.117124 0.261419
v -0.165529 -0.108551 0.261419
v -0.166756 -0.106939 0.261419
v -0.171465 -0.100276 0.261419
v -0.175072 -0.0928855 0.261419
v -0.181283 -0.0780441 0.261419
v -0.186919 -0.0644922 0.261419
v -0.0761121 -0.122031 0.248661
v -0.210288 -5.20104e-05 0.105904
v -0.206105 -5.20104e-05 0.113021
v -0.202398 -5.20104e-05 0.1194
v -0.200469 -5.20104e-05 0.122982
v -0.198591 -5.20104e-05 0.126518
v -0.184064 -5.20104e-05 0.154407
v -0.179129 -5.20104e-05 0.163897
v -0.173243 -5.20104e-05 0.175604
v -0.17154 -5.20104e-05 0.179185
v -0.169887 -5.20104e-05 0.182721
v -0.167883 -5.20104e-05 0.187601
v -0.16593 -5.20104e-05 0.192391
v -0.159668 -5.20104e-05 0.207991
v -0.154834 -5.20104e-05 0.220347
v -0.149249 -5.20104e-05 0.235142
v -0.144515 -5.20104e-05 0.247766
v -0.143212 -5.20104e-05 0.251347
v -0.14196 -5.20104e-05 0.254883
v -0.191077 -0.0521343 0.261419
v -0.3109 -0.090796 0.0327792
v -0.238641 -5.20104e-05 0.063175
v -0.160244 -0.122031 0.119669
v -0.303912 -0.107787 0.0327792
v -0.18727 -0.0636086 0.261419
v -0.30807 -0.0977451 0.0327792
v -0.12072 -0.122031 0.178289
v -0.218052 -5.20104e-05 0.0939513
v -0.159693 -0.122031 0.120475
f 1 2 7
f 1 7 17
f 1 17 26
f 1 26 33
f 1 33 65
f 1 65 67
f 1 67 62
f 1 62 30
f 1 30 22
f 1 22 21
f 1 21 20
f 1 20 12
f 1 12 11
f 1 11 9
f 1 9 3
f 1 3 4
f 1 4 5
f 1 5 6
f 1 6 8
f 1 8 2
f 2 8 18
f 2 18 28
f 2 28 60
f 2 60 59
f 2 59 58
f 2 58 57
f 2 57 56
f 2 56 55
f 2 55 54
f 2 54 53
f 2 53 52
f 2 52 51
f 2 51 50
f 2 50 49
f 2 49 48
f 2 48 47
f 2 47 46
f 2 46 45
f 2 45 44
f 2 44 43
f 2 43 69
f 2 69 63
f 2 63 31
f 2 31 24
f 2 24 23
f 2 23 13
f 2 13 7
f 3 9 4
f 4 10 19
f 4 19 29
f 4 29 61
f 4 61 66
f 4 66 41
f 4 41 40
f 4 40 39
f 4 39 38
f 4 38 37
f 4 37 36
f 4 36 35
f 4 35 34
f 4 34 27
f 4 27 18
f 4 18 8
f 4 8 6
f 4 6 5
f 4 9 11
f 4 11 12
f 4 12 10
f 7 13 14
f 7 14 15
f 7 15 16
f 7 16 17
f 10 12 20
f 10 20 21
f 10 21 22
f 10 22 19
f 13 23 14
f 14 23 24
f 14 24 25
f 14 25 32
f 14 32 64
f 14 64 70
f 14 70 68
f 14 68 42
f 14 42 27
f 14 27 34
f 14 34 26
f 14 26 17
f 14 17 16
f 14 16 15
f 18 27 28
f 19 22 29
f 22 30 29
f 24 31 32
f 24 32 25
f 26 34 35
f 26 35 36
f 26 36 37
f 26 37 38
f 26 38 39
f 26 39 40
f 26 40 41
f 26 41 33
f 27 42 43
f 27 43 44
f 27 44 45
f 27 45 46
f 27 46 47
f 27 47 48
f 27 48 49
f 27 49 50
f 27 50 51
f 27 51 52
f 27 52 53
f 27 53 54
f 27 54 55
f 27 55 56
f 27 56 57
f 27 57 58
f 27 58 59
f 27 59 60
f 27 60 28
f 29 30 61
f 30 62 61
f 31 63 64
f 31 64 32
f 33 41 65
f 41 66 62
f 41 62 67
f 41 67 65
f 42 68 43
f 43 68 69
f 61 62 66
f 63 69 68
f 63 68 70
f 63 70 64
