v 0.00019548 0.163251 0.492519
v -0.0071421 0.163251 0.492519
v 0.00019548 0.106038 0.492519
v 0.00019548 0.198196 0.261419
v -0.0213877 0.161403 0.492519
v -0.00569864 0.198185 0.261419
v -0.00781228 0.197936 0.261419
v -0.0213877 0.196234 0.261419
v -0.0516831 0.0921365 0.492519
v 0.00019548 0.106017 0.492112
v 0.00019548 0.140079 0.261419
v -0.0356332 0.159441 0.492519
v -0.0356332 0.194386 0.261419
v -0.134424 0.0921365 0.492519
v -0.0516659 0.0921365 0.492361
v 0.00019548 0.105996 0.491682
v -0.105314 0.0921365 0.261419
v 0.00019548 0.139435 0.263681
v -0.0448782 0.157593 0.492519
v -0.0497757 0.191801 0.261419
v -0.133204 0.0938702 0.492519
v -0.16673 0.106951 0.261419
v -0.169084 0.103546 0.261419
v -0.172916 0.0970885 0.261419
v -0.175047 0.0928943 0.261419
v -0.175357 0.0921365 0.261419
v -0.0515972 0.0921365 0.491682
v 0.00019548 0.105975 0.48476
v -0.104782 0.0921365 0.262708
v 0.00019548 0.127081 0.309173
v 0.00019548 0.123998 0.320687
v 0.00019548 0.12243 0.328016
v 0.00019548 0.120977 0.334939
v 0.00019548 0.119783 0.342268
v 0.00019548 0.114011 0.377829
v 0.00019548 0.112578 0.386742
v 0.00019548 0.111758 0.391922
v -0.0520096 0.154697 0.492519
v -0.063626 0.187264 0.261419
v -0.132448 0.0948565 0.492519
v -0.158963 0.117136 0.261419
v -0.05158 0.0921365 0.489239
v -0.0515113 0.0921365 0.477431
v 0.00019548 0.105986 0.477431
v -0.104696 0.0921365 0.262935
v 0.00019548 0.110803 0.399251
v -0.0826487 0.0921365 0.321207
v -0.0863433 0.0921365 0.31139
v -0.0931138 0.0921365 0.293474
v -0.0641415 0.149661 0.492519
v -0.0774592 0.181512 0.261419
v -0.123925 0.105944 0.492519
v -0.146573 0.133165 0.261419
v -0.0517347 0.0921365 0.47492
v 0.00019548 0.106287 0.470509
v -0.0528688 0.0921365 0.463179
v -0.0532984 0.0921365 0.458791
v -0.0570445 0.0921365 0.420855
v -0.0584021 0.0921365 0.411195
v 0.00019548 0.10991 0.406173
v -0.077906 0.0921365 0.335391
v -0.0648633 0.14935 0.492519
v -0.0928904 0.175045 0.261419
v -0.115848 0.115859 0.492519
v -0.144855 0.135189 0.261419
v 0.00019548 0.106609 0.463179
v -0.0592613 0.0921365 0.406173
v 0.00019548 0.107315 0.448928
v 0.00019548 0.106951 0.456257
v 0.00019548 0.10882 0.420425
v -0.061478 0.0921365 0.396378
v -0.0757408 0.144626 0.492519
v -0.0970662 0.172927 0.261419
v -0.082855 0.141076 0.492519
v -0.105933 0.123936 0.492519
v -0.133153 0.146578 0.261419
v -0.13518 0.144865 0.261419
v -0.14037 0.14038 0.261419
v 0.00019548 0.108425 0.427754
v 0.00019548 0.108062 0.434676
v -0.103527 0.169096 0.261419
v -0.0938527 0.133217 0.492519
v -0.106947 0.166729 0.261419
v -0.100022 0.128483 0.492519
v -0.11712 0.158963 0.261419
f 1 2 5
f 1 5 12
f 1 12 19
f 1 19 38
f 1 38 50
f 1 50 62
f 1 62 72
f 1 72 74
f 1 74 82
f 1 82 84
f 1 84 75
f 1 75 64
f 1 64 52
f 1 52 40
f 1 40 21
f 1 21 14
f 1 14 9
f 1 9 3
f 1 3 10
f 1 10 16
f 1 16 28
f 1 28 44
f 1 44 55
f 1 55 66
f 1 66 69
f 1 69 68
f 1 68 80
f 1 80 79
f 1 79 70
f 1 70 60
f 1 60 46
f 1 46 37
f 1 37 36
f 1 36 35
f 1 35 34
f 1 34 33
f 1 33 32
f 1 32 31
f 1 31 30
f 1 30 18
f 1 18 11
f 1 11 4
f 1 4 2
f 2 4 6
f 2 6 7
f 2 7 8
f 2 8 13
f 2 13 5
f 3 9 10
f 4 11 17
f 4 17 26
f 4 26 25
f 4 25 24
f 4 24 23
f 4 23 22
f 4 22 41
f 4 41 53
f 4 53 65
f 4 65 78
f 4 78 77
f 4 77 76
f 4 76 85
f 4 85 83
f 4 83 81
f 4 81 73
f 4 73 63
f 4 63 51
f 4 51 39
f 4 39 20
f 4 20 13
f 4 13 8
f 4 8 7
f 4 7 6
f 5 13 12
f 9 14 26
f 9 26 17
f 9 17 29
f 9 29 45
f 9 45 49
f 9 49 48
f 9 48 47
f 9 47 61
f 9 61 71
f 9 71 67
f 9 67 59
f 9 59 58
f 9 58 57
f 9 57 56
f 9 56 54
f 9 54 43
f 9 43 42
f 9 42 27
f 9 27 15
f 9 15 16
f 9 16 10
f 11 18 17
f 12 13 20
f 12 20 19
f 14 21 22
f 14 22 23
f 14 23 24
f 14 24 25
f 14 25 26
f 15 27 16
f 16 27 28
f 17 18 30
f 17 30 31
f 17 31 32
f 17 32 33
f 17 33 34
f 17 34 35
f 17 35 36
f 17 36 37
f 17 37 29
f 19 20 39
f 19 39 38
f 21 40 41
f 21 41 22
f 27 42 28
f 28 42 43
f 28 43 44
f 29 37 45
f 37 46 47
f 37 47 48
f 37 48 49
f 37 49 45
f 38 39 50
f 39 51 50
f 40 52 41
f 41 52 53
f 43 54 44
f 44 54 56
f 44 56 57
f 44 57 58
f 44 58 59
f 44 59 55
f 46 60 47
f 47 60 61
f 50 51 63
f 50 63 62
f 52 64 53
f 53 64 65
f 55 59 66
f 59 67 68
f 59 68 69
f 59 69 66
f 60 70 71
f 60 71 61
f 62 63 72
f 63 73 74
f 63 74 72
f 64 75 76
f 64 76 77
f 64 77 78
f 64 78 65
f 67 71 70
f 67 70 79
f 67 79 80
f 67 80 68
f 73 81 74
f 74 81 83
f 74 83 82
f 75 84 85
f 75 85 76
f 82 83 85
f 82 85 84
