v -0.4552 0.206141 -0.149645
v -0.455176 0.206141 -0.150059
v -0.454847 0.206141 -0.135395
v -0.454048 0.208927 -0.149645
v -0.39038 0.206141 -0.150059
v -0.449063 0.220913 -0.150059
v -0.454706 0.206141 -0.131037
v -0.453648 0.207943 -0.12114
v -0.443797 0.232827 -0.135395
v -0.443961 0.233259 -0.149645
v -0.444103 0.232899 -0.150059
v -0.325491 0.206141 -0.0869917
v -0.215954 0.385999 -0.150059
v -0.215037 0.386432 -0.150015
v -0.215037 0.318721 -0.0869917
v -0.215107 0.318649 -0.0869917
v -0.454377 0.206141 -0.12114
v -0.454259 0.206141 -0.117831
v -0.443303 0.231674 -0.106897
v -0.443562 0.232274 -0.12114
v -0.440835 0.239961 -0.135395
v -0.440999 0.240369 -0.149645
v -0.440999 0.240369 -0.150059
v -0.403617 0.206141 -0.0869917
v -0.215037 0.406488 -0.150059
v -0.215037 0.39957 -0.0869917
v -0.453671 0.206141 -0.105754
v -0.442692 0.230233 -0.0987222
v -0.440035 0.238784 -0.106897
v -0.440599 0.239408 -0.12114
v -0.435568 0.249424 -0.12114
v -0.436062 0.249424 -0.135395
v -0.436438 0.249424 -0.149645
v -0.436556 0.24916 -0.150059
v -0.435192 0.206141 -0.0934435
v -0.401783 0.210224 -0.0869917
v -0.434675 0.220913 -0.0941967
v -0.215037 0.451501 -0.150059
v -0.215037 0.434687 -0.0938571
v -0.220914 0.434687 -0.0941967
v -0.220914 0.396928 -0.0869917
v -0.448852 0.206141 -0.097154
v -0.444455 0.220913 -0.0973886
v -0.430819 0.249424 -0.0973701
v -0.428632 0.257951 -0.0986975
v -0.434698 0.249424 -0.106897
v -0.429338 0.258888 -0.106897
v -0.429643 0.259272 -0.12114
v -0.429902 0.259609 -0.135395
v -0.436415 0.249424 -0.150059
v -0.430114 0.259873 -0.149645
v -0.430278 0.259585 -0.150059
v -0.448358 0.206141 -0.0969935
v -0.39694 0.220913 -0.0869917
v -0.420427 0.249424 -0.0941782
v -0.220562 0.449219 -0.150059
v -0.220914 0.449075 -0.149645
v -0.215037 0.451501 -0.149645
v -0.215037 0.440139 -0.0953142
v -0.215037 0.446216 -0.097296
v -0.220914 0.444463 -0.0973886
v -0.249433 0.430796 -0.0973701
v -0.249433 0.420419 -0.0941782
v -0.233775 0.389963 -0.0869917
v -0.420286 0.263091 -0.0967651
v -0.415443 0.273612 -0.0979566
v -0.372371 0.330178 -0.0981418
v -0.385537 0.314541 -0.0989877
v -0.386101 0.315238 -0.106897
v -0.398915 0.299145 -0.117559
v -0.411587 0.282811 -0.12114
v -0.4173 0.276038 -0.135395
v -0.417512 0.276302 -0.149645
v -0.429949 0.260089 -0.150059
v -0.389957 0.233764 -0.0869917
v -0.377661 0.306423 -0.0943943
v -0.363696 0.334934 -0.0962588
v -0.406603 0.2782 -0.0961291
v -0.359393 0.274044 -0.0869917
v -0.363413 0.32069 -0.0937645
v -0.232905 0.444103 -0.150059
v -0.215037 0.451164 -0.135395
v -0.215037 0.451332 -0.142397
v -0.233258 0.443958 -0.149645
v -0.232834 0.44379 -0.135395
v -0.215037 0.448258 -0.101519
v -0.230225 0.442709 -0.0987222
v -0.257944 0.428634 -0.0986975
v -0.263093 0.420299 -0.0967651
v -0.278187 0.406608 -0.0961291
v -0.334942 0.363709 -0.0962588
v -0.306423 0.377665 -0.0943943
v -0.320694 0.363421 -0.0937645
v -0.274049 0.359386 -0.0869917
v -0.359135 0.345791 -0.0976665
v -0.355067 0.355062 -0.106897
v -0.360804 0.347928 -0.106897
v -0.367951 0.338753 -0.106897
v -0.373476 0.331619 -0.106897
v -0.368327 0.339161 -0.12114
v -0.380929 0.322756 -0.12114
v -0.381188 0.323116 -0.135395
v -0.405333 0.292179 -0.149645
v -0.381399 0.32338 -0.149645
v -0.386854 0.316247 -0.150059
v -0.349989 0.349994 -0.0959686
v -0.346838 0.290257 -0.0869917
v -0.349166 0.33491 -0.0934064
v -0.334213 0.306303 -0.0869917
v -0.331439 0.309665 -0.0869917
v -0.240358 0.441004 -0.150059
v -0.240381 0.441004 -0.149645
v -0.239417 0.44062 -0.12114
v -0.215037 0.450708 -0.12114
v -0.239958 0.440836 -0.135395
v -0.215037 0.450011 -0.106897
v -0.231659 0.44331 -0.106897
v -0.238783 0.440043 -0.106897
v -0.249433 0.434687 -0.106897
v -0.273626 0.415447 -0.0979566
v -0.258884 0.429331 -0.106897
v -0.314534 0.385543 -0.0989877
v -0.330216 0.37238 -0.0981418
v -0.34578 0.359145 -0.0976665
v -0.334942 0.349177 -0.0934064
v -0.309668 0.331427 -0.0869917
v -0.306306 0.334189 -0.0869917
v -0.290271 0.346847 -0.0869917
v -0.355514 0.355519 -0.12114
v -0.347943 0.360803 -0.106897
v -0.361203 0.348385 -0.12114
v -0.368586 0.339498 -0.135395
v -0.368797 0.339762 -0.149645
v -0.368797 0.339762 -0.150059
v -0.321282 0.321267 -0.0869917
v -0.249151 0.43656 -0.150059
v -0.249433 0.43644 -0.149645
v -0.249433 0.435576 -0.12114
v -0.249433 0.436056 -0.135395
v -0.259261 0.429643 -0.12114
v -0.275695 0.417057 -0.12114
v -0.299135 0.398922 -0.117559
v -0.31524 0.386095 -0.106897
v -0.33165 0.373485 -0.106897
v -0.355843 0.355855 -0.135395
v -0.34839 0.361211 -0.12114
v -0.361462 0.348721 -0.135395
v -0.361674 0.348985 -0.149645
v -0.361674 0.348985 -0.150059
v -0.249433 0.436416 -0.150059
v -0.259872 0.430099 -0.150059
v -0.259872 0.430099 -0.149645
v -0.259613 0.429907 -0.135395
v -0.276024 0.417321 -0.135395
v -0.323116 0.381195 -0.135395
v -0.322763 0.380931 -0.12114
v -0.33205 0.373797 -0.12114
v -0.348719 0.361475 -0.135395
v -0.356125 0.356119 -0.149645
v -0.339503 0.368585 -0.135395
v -0.332403 0.374062 -0.135395
v -0.356102 0.356119 -0.150059
v -0.267019 0.424647 -0.149645
v -0.29984 0.39945 -0.150059
v -0.316251 0.386864 -0.149645
v -0.349001 0.361668 -0.149645
v -0.339762 0.368801 -0.149645
v -0.348978 0.361668 -0.150059
v -0.323375 0.381388 -0.150059
v -0.332849 0.37411 -0.150059
f 1 2 5
f 1 5 12
f 1 12 24
f 1 24 35
f 1 35 53
f 1 53 42
f 1 42 27
f 1 27 18
f 1 18 17
f 1 17 7
f 1 7 3
f 1 3 4
f 1 4 2
f 2 4 6
f 2 6 11
f 2 11 23
f 2 23 34
f 2 34 50
f 2 50 52
f 2 52 74
f 2 74 105
f 2 105 134
f 2 134 149
f 2 149 162
f 2 162 168
f 2 168 170
f 2 170 169
f 2 169 164
f 2 164 151
f 2 151 150
f 2 150 136
f 2 136 111
f 2 111 81
f 2 81 56
f 2 56 38
f 2 38 25
f 2 25 13
f 2 13 5
f 3 7 8
f 3 8 9
f 3 9 4
f 4 9 10
f 4 10 11
f 4 11 6
f 5 13 14
f 5 14 15
f 5 15 16
f 5 16 12
f 7 17 8
f 8 17 18
f 8 18 19
f 8 19 20
f 8 20 9
f 9 20 30
f 9 30 21
f 9 21 10
f 10 21 22
f 10 22 23
f 10 23 11
f 12 16 15
f 12 15 26
f 12 26 41
f 12 41 64
f 12 64 94
f 12 94 128
f 12 128 127
f 12 127 126
f 12 126 135
f 12 135 110
f 12 110 109
f 12 109 107
f 12 107 79
f 12 79 75
f 12 75 54
f 12 54 36
f 12 36 24
f 13 25 14
f 14 25 38
f 14 38 58
f 14 58 83
f 14 83 82
f 14 82 114
f 14 114 116
f 14 116 86
f 14 86 60
f 14 60 59
f 14 59 39
f 14 39 26
f 14 26 15
f 18 27 19
f 19 28 29
f 19 29 30
f 19 30 20
f 19 27 28
f 21 30 31
f 21 31 32
f 21 32 33
f 21 33 22
f 22 33 23
f 23 33 34
f 24 36 37
f 24 37 35
f 26 39 40
f 26 40 41
f 27 42 28
f 28 43 44
f 28 44 45
f 28 45 46
f 28 46 29
f 28 42 43
f 29 46 30
f 30 46 31
f 31 46 47
f 31 47 48
f 31 48 32
f 32 48 49
f 32 49 33
f 33 50 34
f 33 49 51
f 33 51 52
f 33 52 50
f 35 37 53
f 36 54 37
f 37 54 55
f 37 55 44
f 37 44 43
f 37 43 42
f 37 42 53
f 38 56 57
f 38 57 58
f 39 59 40
f 40 59 60
f 40 60 61
f 40 61 62
f 40 62 63
f 40 63 41
f 41 63 64
f 44 55 65
f 44 65 45
f 45 65 66
f 45 66 67
f 45 67 68
f 45 68 47
f 45 47 46
f 47 68 69
f 47 69 70
f 47 70 48
f 48 70 71
f 48 71 102
f 48 102 72
f 48 72 49
f 49 72 73
f 49 73 51
f 51 73 74
f 51 74 52
f 54 75 55
f 55 76 77
f 55 77 78
f 55 78 65
f 55 75 79
f 55 79 80
f 55 80 76
f 56 81 84
f 56 84 57
f 57 82 83
f 57 83 58
f 57 84 85
f 57 85 82
f 60 86 87
f 60 87 61
f 61 87 62
f 62 87 88
f 62 88 89
f 62 89 63
f 63 89 90
f 63 90 91
f 63 91 92
f 63 92 93
f 63 93 94
f 63 94 64
f 65 78 77
f 65 77 66
f 66 77 95
f 66 95 67
f 67 95 96
f 67 96 68
f 68 96 97
f 68 97 98
f 68 98 99
f 68 99 69
f 69 99 100
f 69 100 70
f 70 100 101
f 70 101 71
f 71 101 102
f 72 103 73
f 72 102 103
f 73 103 74
f 74 103 104
f 74 104 105
f 76 80 77
f 77 80 106
f 77 106 95
f 79 107 80
f 80 108 106
f 80 107 109
f 80 109 110
f 80 110 108
f 81 111 112
f 81 112 84
f 82 85 113
f 82 113 114
f 84 112 115
f 84 115 85
f 85 115 113
f 86 116 87
f 87 117 118
f 87 118 119
f 87 119 88
f 87 116 117
f 88 120 89
f 88 119 121
f 88 121 122
f 88 122 123
f 88 123 120
f 89 120 91
f 89 91 90
f 91 124 106
f 91 106 93
f 91 93 92
f 91 120 124
f 93 106 125
f 93 125 126
f 93 126 127
f 93 127 128
f 93 128 94
f 95 106 124
f 95 124 96
f 96 129 97
f 96 124 123
f 96 123 122
f 96 122 130
f 96 130 129
f 97 129 131
f 97 131 98
f 98 131 99
f 99 131 100
f 100 131 147
f 100 147 132
f 100 132 102
f 100 102 101
f 102 132 133
f 102 133 104
f 102 104 103
f 104 133 134
f 104 134 105
f 106 108 125
f 108 135 125
f 108 110 135
f 111 136 137
f 111 137 112
f 112 137 115
f 113 118 117
f 113 117 114
f 113 115 138
f 113 138 119
f 113 119 118
f 114 117 116
f 115 137 139
f 115 139 138
f 119 138 121
f 120 123 124
f 121 138 140
f 121 140 141
f 121 141 142
f 121 142 143
f 121 143 122
f 122 143 144
f 122 144 130
f 125 135 126
f 129 145 131
f 129 130 146
f 129 146 145
f 130 144 146
f 131 145 147
f 132 147 148
f 132 148 133
f 133 148 149
f 133 149 134
f 136 150 137
f 137 150 151
f 137 151 152
f 137 152 153
f 137 153 139
f 138 139 140
f 139 153 140
f 140 153 141
f 141 153 154
f 141 154 155
f 141 155 156
f 141 156 142
f 142 156 143
f 143 156 157
f 143 157 144
f 144 157 146
f 145 146 158
f 145 158 159
f 145 159 147
f 146 160 158
f 146 157 161
f 146 161 160
f 147 159 148
f 148 159 149
f 149 159 162
f 151 163 152
f 151 164 163
f 152 163 153
f 153 163 154
f 154 163 155
f 155 165 161
f 155 161 157
f 155 157 156
f 155 163 165
f 158 166 159
f 158 160 167
f 158 167 166
f 159 166 168
f 159 168 162
f 160 161 167
f 161 165 167
f 163 164 165
f 164 169 165
f 165 169 170
f 165 170 167
f 166 167 168
f 167 170 168
