v 8.06808e-05 0.413445 -0.316806
v -0.00169599 0.470733 -0.328969
v -0.00379568 0.474125 -0.318076
v -0.0341605 0.471313 -0.316806
v -0.206174 0.358143 -0.316806
v 8.06808e-05 0.294599 -0.510928
v 8.06808e-05 0.304493 -0.564661
v -0.0129415 0.470136 -0.327406
v -0.00209977 0.413832 -0.442638
v -0.00353322 0.435605 -0.406222
v -0.00353322 0.45063 -0.376498
v -0.00353322 0.456552 -0.363822
v -0.00712694 0.462456 -0.349216
v -0.00777299 0.468168 -0.33422
v -0.0213806 0.470927 -0.322374
v -0.0452243 0.469855 -0.316806
v -0.130242 0.456569 -0.316806
v -0.205306 0.424674 -0.318833
v -0.206174 0.41703 -0.336907
v -0.206174 0.294599 -0.425248
v 8.06808e-05 0.294599 -0.566297
v -0.0211384 0.300714 -0.566297
v -0.0083383 0.304334 -0.564661
v -0.00353322 0.322364 -0.54942
v -0.00353322 0.330448 -0.542288
v -0.00353322 0.336686 -0.53606
v -0.00353322 0.343645 -0.528953
v -0.00353322 0.357633 -0.514421
v -0.00353322 0.365559 -0.505848
v -0.00353322 0.371252 -0.49962
v -0.0213806 0.460611 -0.349216
v -0.0402174 0.455726 -0.355469
v -0.106863 0.455462 -0.333414
v -0.00827773 0.409931 -0.448012
v -0.00827773 0.417557 -0.436093
v -0.00533007 0.427258 -0.420974
v -0.00353322 0.377561 -0.491682
v -0.00353322 0.383993 -0.4835
v -0.00533007 0.398842 -0.464376
v -0.0213806 0.428857 -0.415503
v -0.0213806 0.433777 -0.406222
v -0.00533007 0.441984 -0.393668
v -0.0213806 0.448205 -0.377719
v -0.0213806 0.455445 -0.362088
v -0.0307283 0.456341 -0.357056
v -0.114858 0.456253 -0.328358
v -0.107852 0.460717 -0.318759
v -0.136541 0.446184 -0.336125
v -0.146817 0.443583 -0.332144
v -0.156306 0.441615 -0.327381
v -0.196281 0.426203 -0.324524
v -0.120349 0.458502 -0.318735
v -0.124367 0.455058 -0.325378
v -0.127678 0.441615 -0.355884
v -0.186772 0.428171 -0.329359
v -0.19826 0.412777 -0.355078
v -0.206174 0.411741 -0.349631
v -0.206174 0.295021 -0.510098
v -0.193475 0.294599 -0.518622
v -0.0792233 0.294599 -0.564172
v -0.0653531 0.294827 -0.566297
v -0.0356344 0.298817 -0.566297
v -0.0514427 0.296743 -0.566297
v -0.0356344 0.305231 -0.560851
v -0.0498881 0.311434 -0.553988
v -0.0152834 0.313701 -0.555917
v -0.0213806 0.328708 -0.542386
v -0.0213806 0.342731 -0.527976
v -0.0186147 0.356895 -0.513639
v -0.015445 0.370725 -0.498985
v -0.106863 0.449347 -0.349216
v -0.0926492 0.451227 -0.349216
v -0.106863 0.442687 -0.36558
v -0.0213806 0.412742 -0.440953
v -0.0213806 0.401056 -0.45888
v -0.0356344 0.400125 -0.457586
v -0.0458906 0.399457 -0.456633
v -0.0553998 0.398824 -0.455705
v -0.0213806 0.417276 -0.433846
v -0.0213806 0.424411 -0.422635
v -0.0213806 0.38865 -0.475196
v -0.0213806 0.395784 -0.466012
v -0.0328482 0.428119 -0.414282
v -0.0423574 0.427486 -0.413232
v -0.0213806 0.439611 -0.394743
v -0.0894795 0.442318 -0.371613
v -0.0989685 0.441685 -0.370343
v -0.120208 0.441457 -0.361624
v -0.134542 0.441931 -0.348361
v -0.122267 0.432371 -0.37894
v -0.13537 0.429648 -0.374495
v -0.13537 0.435025 -0.363455
v -0.158285 0.428171 -0.357765
v -0.188751 0.414728 -0.359548
v -0.206174 0.405713 -0.36348
v -0.206174 0.303315 -0.502819
v -0.194061 0.307708 -0.507093
v -0.198381 0.29843 -0.51232
v -0.188872 0.302085 -0.515349
v -0.17478 0.297411 -0.527878
v -0.167229 0.294599 -0.534204
v -0.120228 0.294599 -0.551472
v -0.090065 0.297657 -0.55897
v -0.0926492 0.31581 -0.54351
v -0.0783955 0.30929 -0.552302
v -0.0641418 0.303368 -0.559239
v -0.0641418 0.310485 -0.553182
v -0.0205731 0.319342 -0.550519
v -0.0308293 0.328111 -0.541824
v -0.0349075 0.334841 -0.534326
v -0.0498881 0.333734 -0.533447
v -0.0225718 0.351114 -0.51911
v -0.0783955 0.338988 -0.524093
v -0.0783955 0.345842 -0.516961
v -0.0641418 0.353908 -0.510513
v -0.0641418 0.367527 -0.49493
v -0.0498881 0.374082 -0.488995
v -0.0213806 0.383079 -0.482303
v -0.0641418 0.360392 -0.503405
v -0.0783955 0.359461 -0.50238
v -0.106863 0.43694 -0.377719
v -0.0926492 0.40733 -0.434725
v -0.0926492 0.396382 -0.451871
v -0.0926492 0.389247 -0.462104
v -0.0747816 0.413762 -0.428326
v -0.0926492 0.412584 -0.42647
v -0.0926492 0.383975 -0.469236
v -0.0926492 0.416995 -0.419338
v -0.0783955 0.425061 -0.408542
v -0.093376 0.42471 -0.405343
v -0.0985849 0.427398 -0.398773
v -0.120288 0.427222 -0.390224
v -0.127799 0.427363 -0.384509
v -0.143526 0.427978 -0.371369
v -0.150916 0.427873 -0.365067
v -0.183522 0.412567 -0.369049
v -0.206174 0.400758 -0.373738
v -0.206174 0.331397 -0.474829
v -0.202702 0.312014 -0.497226
v -0.18974 0.316741 -0.501891
v -0.181765 0.311575 -0.511392
v -0.172276 0.314175 -0.513639
v -0.163898 0.30147 -0.529393
v -0.153339 0.295197 -0.539406
v -0.133694 0.297639 -0.544511
v -0.10127 0.314175 -0.542093
v -0.0932549 0.305863 -0.551399
v -0.0783955 0.317672 -0.54517
v -0.0926492 0.322927 -0.536842
v -0.0783955 0.324789 -0.538625
v -0.0641418 0.318674 -0.54605
v -0.0403183 0.327461 -0.541214
v -0.0783955 0.331854 -0.531493
v -0.0926492 0.351553 -0.508144
v -0.0783955 0.352959 -0.509511
v -0.0783955 0.366596 -0.493733
v -0.0786983 0.380267 -0.476295
v -0.0926492 0.358284 -0.501036
v -0.0926492 0.365401 -0.492488
v -0.106863 0.428628 -0.394132
v -0.106863 0.415905 -0.417555
v -0.106863 0.387666 -0.459955
v -0.10549 0.397717 -0.445838
v -0.106863 0.411354 -0.424662
v -0.106863 0.382218 -0.467062
v -0.0926492 0.377508 -0.477418
v -0.0963439 0.370954 -0.485014
v -0.106863 0.422284 -0.406222
v -0.121682 0.417645 -0.407004
v -0.12681 0.41269 -0.412255
v -0.138984 0.41406 -0.400507
v -0.13537 0.420193 -0.391958
v -0.206174 0.388544 -0.396281
v -0.206174 0.338953 -0.466989
v -0.198805 0.341695 -0.46992
v -0.199068 0.327513 -0.484257
v -0.194424 0.322118 -0.493074
v -0.181745 0.326248 -0.49708
v -0.177001 0.320203 -0.505384
v -0.163898 0.31595 -0.515373
v -0.172236 0.328322 -0.499351
v -0.163898 0.323067 -0.508315
v -0.149644 0.304422 -0.53225
v -0.141185 0.298746 -0.541043
v -0.145828 0.326828 -0.5121
v -0.106196 0.320414 -0.534155
v -0.101694 0.328603 -0.528074
v -0.0641418 0.325809 -0.539577
v -0.102078 0.343013 -0.513957
v -0.0926492 0.330184 -0.529734
v -0.0926492 0.337319 -0.522578
v -0.0926492 0.344418 -0.515446
v -0.101815 0.357159 -0.499717
v -0.119501 0.41211 -0.417848
v -0.116856 0.385979 -0.45761
v -0.112859 0.398737 -0.441393
v -0.105651 0.36294 -0.491071
v -0.109487 0.368722 -0.482352
v -0.124912 0.371551 -0.471434
v -0.121439 0.380039 -0.46269
v -0.157336 0.399281 -0.413696
v -0.162807 0.401373 -0.405709
v -0.192486 0.388597 -0.406613
v -0.206174 0.383167 -0.406173
v -0.206174 0.34484 -0.460297
v -0.196827 0.355156 -0.454411
v -0.193071 0.349515 -0.463545
v -0.189296 0.343874 -0.472436
v -0.177424 0.332363 -0.492048
v -0.178151 0.346264 -0.475269
v -0.164988 0.338022 -0.491486
v -0.145707 0.340939 -0.49747
v -0.132261 0.343733 -0.500597
v -0.163898 0.330044 -0.501183
v -0.121136 0.339076 -0.510098
v -0.121136 0.346035 -0.502966
v -0.111284 0.355191 -0.49747
v -0.121136 0.40197 -0.431867
v -0.140094 0.398051 -0.426128
v -0.149644 0.396083 -0.423197
v -0.138196 0.368792 -0.468137
v -0.178151 0.359074 -0.459589
v -0.187317 0.357176 -0.457171
v -0.156851 0.37062 -0.456096
v -0.126386 0.384046 -0.454899
v -0.121439 0.389651 -0.449672
v -0.121136 0.397102 -0.438999
v -0.149644 0.346158 -0.489386
v -0.130484 0.357247 -0.485649
v -0.159173 0.357317 -0.471483
v -0.168682 0.355349 -0.469138
v -0.164826 0.349585 -0.477882
v -0.187782 0.38582 -0.414941
v -0.197271 0.38387 -0.411644
v -0.178151 0.383079 -0.425029
v -0.206174 0.374293 -0.420754
v -0.206174 0.362571 -0.43707
v -0.204781 0.356122 -0.446937
v -0.192203 0.360586 -0.449355
v -0.201026 0.3712 -0.428521
v -0.178151 0.353398 -0.46672
v -0.153238 0.38336 -0.439707
v -0.183703 0.369917 -0.440904
v -0.178636 0.375663 -0.43558
v -0.192385 0.368124 -0.438266
f 1 2 3
f 1 3 4
f 1 4 16
f 1 16 17
f 1 17 5
f 1 5 6
f 1 6 21
f 1 21 7
f 1 7 2
f 2 8 3
f 2 7 9
f 2 9 10
f 2 10 11
f 2 11 12
f 2 12 13
f 2 13 14
f 2 14 8
f 3 8 15
f 3 15 4
f 4 15 16
f 5 17 18
f 5 18 19
f 5 19 57
f 5 57 95
f 5 95 137
f 5 137 173
f 5 173 204
f 5 204 236
f 5 236 237
f 5 237 205
f 5 205 174
f 5 174 138
f 5 138 96
f 5 96 58
f 5 58 20
f 5 20 6
f 6 20 59
f 6 59 101
f 6 101 102
f 6 102 60
f 6 60 21
f 7 21 22
f 7 22 23
f 7 23 24
f 7 24 25
f 7 25 26
f 7 26 27
f 7 27 28
f 7 28 29
f 7 29 30
f 7 30 9
f 8 14 13
f 8 13 31
f 8 31 32
f 8 32 33
f 8 33 15
f 9 34 35
f 9 35 36
f 9 36 10
f 9 30 37
f 9 37 38
f 9 38 39
f 9 39 34
f 10 36 40
f 10 40 41
f 10 41 42
f 10 42 11
f 11 42 43
f 11 43 12
f 12 43 44
f 12 44 13
f 13 44 45
f 13 45 31
f 15 33 16
f 16 33 46
f 16 46 47
f 16 47 17
f 17 48 49
f 17 49 50
f 17 50 51
f 17 51 18
f 17 47 52
f 17 52 53
f 17 53 54
f 17 54 48
f 18 51 19
f 19 51 55
f 19 55 50
f 19 50 49
f 19 49 56
f 19 56 57
f 20 58 59
f 21 60 61
f 21 61 63
f 21 63 62
f 21 62 22
f 22 62 23
f 23 62 63
f 23 63 64
f 23 64 65
f 23 65 66
f 23 66 67
f 23 67 24
f 24 67 25
f 25 67 26
f 26 67 27
f 27 67 68
f 27 68 69
f 27 69 28
f 28 69 29
f 29 70 30
f 29 69 70
f 30 70 37
f 31 45 32
f 32 71 72
f 32 72 33
f 32 45 73
f 32 73 71
f 33 72 71
f 33 71 46
f 34 74 35
f 34 39 75
f 34 75 76
f 34 76 77
f 34 77 78
f 34 78 74
f 35 74 79
f 35 79 80
f 35 80 40
f 35 40 36
f 37 70 38
f 38 70 39
f 39 70 81
f 39 81 82
f 39 82 75
f 40 83 41
f 40 80 83
f 41 83 84
f 41 84 85
f 41 85 42
f 42 85 43
f 43 85 86
f 43 86 44
f 44 86 87
f 44 87 73
f 44 73 45
f 46 53 52
f 46 52 47
f 46 71 73
f 46 73 88
f 46 88 53
f 48 89 56
f 48 56 49
f 48 54 89
f 50 55 51
f 53 88 54
f 54 88 90
f 54 90 91
f 54 91 92
f 54 92 93
f 54 93 56
f 54 56 89
f 56 93 94
f 56 94 95
f 56 95 57
f 58 96 97
f 58 97 98
f 58 98 59
f 59 98 99
f 59 99 100
f 59 100 101
f 60 102 103
f 60 103 104
f 60 104 105
f 60 105 61
f 61 105 106
f 61 106 63
f 63 106 65
f 63 65 64
f 65 107 67
f 65 67 108
f 65 108 66
f 65 106 107
f 66 108 67
f 67 109 68
f 67 107 109
f 68 110 111
f 68 111 112
f 68 112 69
f 68 109 110
f 69 112 113
f 69 113 114
f 69 114 115
f 69 115 70
f 70 116 117
f 70 117 118
f 70 118 81
f 70 115 119
f 70 119 120
f 70 120 116
f 73 87 121
f 73 121 88
f 74 122 79
f 74 78 123
f 74 123 122
f 75 82 127
f 75 127 124
f 75 124 76
f 76 124 77
f 77 124 78
f 78 124 123
f 79 122 125
f 79 125 80
f 80 125 126
f 80 126 83
f 81 118 127
f 81 127 82
f 83 126 128
f 83 128 84
f 84 129 130
f 84 130 131
f 84 131 85
f 84 128 129
f 85 131 86
f 86 131 121
f 86 121 87
f 88 121 90
f 90 132 133
f 90 133 91
f 90 121 132
f 91 133 134
f 91 134 92
f 92 134 135
f 92 135 93
f 93 135 136
f 93 136 95
f 93 95 94
f 95 136 137
f 96 138 139
f 96 139 140
f 96 140 97
f 97 140 99
f 97 99 98
f 99 140 141
f 99 141 100
f 100 141 101
f 101 141 142
f 101 142 143
f 101 143 144
f 101 144 102
f 102 144 145
f 102 145 146
f 102 146 147
f 102 147 103
f 103 147 104
f 104 148 105
f 104 147 146
f 104 146 149
f 104 149 150
f 104 150 148
f 105 148 106
f 106 148 107
f 107 148 151
f 107 151 109
f 109 151 148
f 109 148 152
f 109 152 111
f 109 111 110
f 111 153 113
f 111 113 112
f 111 152 153
f 113 153 154
f 113 154 114
f 114 154 155
f 114 155 115
f 115 155 119
f 116 120 156
f 116 156 117
f 117 157 118
f 117 156 157
f 118 157 127
f 119 155 120
f 120 155 158
f 120 158 159
f 120 159 156
f 121 131 160
f 121 160 132
f 122 123 161
f 122 161 126
f 122 126 125
f 123 124 162
f 123 162 163
f 123 163 164
f 123 164 161
f 124 127 162
f 126 161 128
f 127 165 162
f 127 157 156
f 127 156 166
f 127 166 167
f 127 167 165
f 128 161 168
f 128 168 130
f 128 130 129
f 130 168 160
f 130 160 131
f 132 160 168
f 132 168 169
f 132 169 133
f 133 169 170
f 133 170 171
f 133 171 172
f 133 172 134
f 134 137 136
f 134 136 135
f 134 172 173
f 134 173 137
f 138 174 175
f 138 175 176
f 138 176 139
f 139 177 140
f 139 176 177
f 140 177 175
f 140 175 178
f 140 178 141
f 141 178 179
f 141 179 142
f 142 180 143
f 142 179 181
f 142 181 182
f 142 182 180
f 143 183 184
f 143 184 144
f 143 180 185
f 143 185 183
f 144 184 145
f 145 184 146
f 146 184 183
f 146 183 186
f 146 186 187
f 146 187 149
f 148 150 188
f 148 188 152
f 149 187 189
f 149 189 190
f 149 190 150
f 150 190 191
f 150 191 192
f 150 192 153
f 150 153 188
f 152 188 153
f 153 192 154
f 154 193 158
f 154 158 155
f 154 192 193
f 156 159 167
f 156 167 166
f 158 193 167
f 158 167 159
f 161 164 194
f 161 194 169
f 161 169 168
f 162 195 196
f 162 196 163
f 162 165 195
f 163 196 164
f 164 196 194
f 165 167 193
f 165 193 197
f 165 197 198
f 165 198 199
f 165 199 200
f 165 200 195
f 169 194 170
f 170 194 201
f 170 201 171
f 171 173 172
f 171 201 202
f 171 202 203
f 171 203 173
f 173 203 204
f 174 205 175
f 175 205 206
f 175 206 207
f 175 207 208
f 175 208 178
f 175 177 176
f 178 209 181
f 178 181 179
f 178 208 210
f 178 210 209
f 180 182 185
f 181 209 211
f 181 211 212
f 181 212 193
f 181 193 213
f 181 213 214
f 181 214 182
f 182 214 215
f 182 215 185
f 183 185 187
f 183 187 186
f 185 189 187
f 185 215 189
f 189 192 191
f 189 191 190
f 189 215 193
f 189 193 192
f 193 215 216
f 193 216 213
f 193 212 217
f 193 217 197
f 194 196 218
f 194 218 219
f 194 219 220
f 194 220 201
f 195 200 221
f 195 221 222
f 195 222 223
f 195 223 224
f 195 224 225
f 195 225 226
f 195 226 196
f 196 226 227
f 196 227 218
f 197 228 229
f 197 229 198
f 197 217 228
f 198 229 199
f 199 230 231
f 199 231 221
f 199 221 200
f 199 229 232
f 199 232 230
f 201 233 234
f 201 234 203
f 201 203 202
f 201 220 235
f 201 235 233
f 203 234 204
f 204 234 236
f 205 237 238
f 205 238 206
f 206 239 224
f 206 224 223
f 206 223 207
f 206 238 237
f 206 237 236
f 206 236 240
f 206 240 239
f 207 241 208
f 207 223 241
f 208 241 210
f 209 210 211
f 210 241 231
f 210 231 230
f 210 230 232
f 210 232 211
f 211 232 228
f 211 228 212
f 212 228 217
f 213 216 214
f 214 216 215
f 218 235 219
f 218 227 242
f 218 242 235
f 219 235 220
f 221 231 241
f 221 241 222
f 222 241 223
f 224 239 243
f 224 243 242
f 224 242 225
f 225 242 227
f 225 227 226
f 228 232 229
f 233 235 236
f 233 236 234
f 235 240 236
f 235 242 244
f 235 244 245
f 235 245 240
f 239 240 245
f 239 245 243
f 242 243 244
f 243 245 244
