v 8.06808e-05 -0.474534 -0.316805
v 8.06808e-05 -0.478008 -0.306408
v 8.06808e-05 -0.413477 -0.316805
v 0.0075656 -0.474534 -0.316805
v 0.00713736 -0.478008 -0.306408
v 8.06808e-05 -0.484646 -0.28532
v 8.06808e-05 -0.442564 -0.150075
v 0.190294 -0.365777 -0.316805
v 0.021381 -0.472885 -0.316805
v 0.021381 -0.47617 -0.306408
v 0.0101351 -0.484042 -0.283133
v 0.00609468 -0.48242 -0.290902
v 0.000639256 -0.484646 -0.28532
v 0.0326643 -0.471517 -0.316805
v 0.0454743 -0.470672 -0.31452
v 0.0549887 -0.470042 -0.312562
v 8.06808e-05 -0.48946 -0.263661
v 8.06808e-05 -0.502763 -0.150075
v 0.190294 -0.396983 -0.150075
v 0.190294 -0.431595 -0.316805
v 0.0356434 -0.474293 -0.306408
v 0.0641494 -0.47141 -0.303258
v 0.0783931 -0.476519 -0.27791
v 0.021381 -0.485276 -0.273356
v 0.00609468 -0.48592 -0.278187
v 0.00713736 -0.48946 -0.263661
v 0.0356434 -0.471128 -0.316805
v 0.0474666 -0.469559 -0.316805
v 0.10688 -0.461526 -0.316805
v 0.10688 -0.464892 -0.306408
v 8.06808e-05 -0.49233 -0.249411
v 8.06808e-05 -0.502388 -0.163916
v 0.00713736 -0.502763 -0.150075
v 0.190294 -0.461741 -0.150075
v 0.190294 -0.435135 -0.306555
v 0.170409 -0.441559 -0.312692
v 0.167951 -0.440968 -0.316805
v 0.083923 -0.470109 -0.298525
v 0.103361 -0.470793 -0.286756
v 0.0926554 -0.474642 -0.27791
v 0.0297225 -0.484726 -0.271365
v 0.021381 -0.487623 -0.263661
v 0.0570368 -0.484565 -0.256544
v 0.00713736 -0.49233 -0.249411
v 0.110753 -0.460856 -0.316805
v 0.121143 -0.462425 -0.306408
v 0.112857 -0.470163 -0.284488
v 0.107607 -0.468848 -0.291767
v 8.06808e-05 -0.498995 -0.214776
v 0.00713736 -0.502388 -0.163916
v 0.0209714 -0.500966 -0.150075
v 0.163185 -0.472979 -0.150075
v 0.190294 -0.461701 -0.151772
v 0.190294 -0.439225 -0.292763
v 0.164954 -0.445407 -0.307339
v 0.135275 -0.458187 -0.305674
v 0.139948 -0.454982 -0.309934
v 0.130434 -0.456967 -0.315826
v 0.131421 -0.456162 -0.316805
v 0.107607 -0.472362 -0.279003
v 0.10688 -0.476372 -0.263661
v 0.0392182 -0.484096 -0.268786
v 0.0498871 -0.483399 -0.265734
v 0.0627343 -0.482514 -0.262241
v 0.0498871 -0.485035 -0.258601
v 0.0665326 -0.483948 -0.252888
v 0.021381 -0.490479 -0.249411
v 0.10688 -0.479228 -0.249411
v 0.021381 -0.495361 -0.220913
v 0.00652293 -0.497426 -0.220081
v 0.00134679 -0.498995 -0.214776
v 0.120472 -0.459126 -0.316805
v 0.129149 -0.470672 -0.272018
v 0.121143 -0.469425 -0.28199
v 0.121143 -0.47145 -0.274858
v 0.00713736 -0.500389 -0.192415
v 0.0167821 -0.499156 -0.192415
v 0.021381 -0.500537 -0.163916
v 0.021381 -0.500912 -0.150075
v 0.149314 -0.478718 -0.150075
v 0.169832 -0.469827 -0.163916
v 0.190294 -0.461352 -0.163916
v 0.190294 -0.443503 -0.278302
v 0.143337 -0.456404 -0.300434
v 0.135386 -0.462143 -0.292159
v 0.128367 -0.457155 -0.316805
v 0.129819 -0.456766 -0.316805
v 0.121143 -0.474253 -0.263661
v 0.121143 -0.477176 -0.249411
v 0.0926554 -0.481105 -0.249411
v 0.0978687 -0.484324 -0.226593
v 0.121143 -0.479671 -0.235146
v 0.121143 -0.482151 -0.220913
v 0.108035 -0.483855 -0.221468
v 0.10688 -0.481669 -0.235146
v 0.0356434 -0.493483 -0.220913
v 0.104032 -0.485129 -0.217094
v 0.0108426 -0.498391 -0.209585
v 0.00652293 -0.499343 -0.20557
v 0.113546 -0.484512 -0.213193
v 0.138831 -0.468795 -0.263661
v 0.131718 -0.471705 -0.263661
v 0.134493 -0.466931 -0.277224
v 0.15961 -0.457249 -0.274776
v 0.190294 -0.443972 -0.276702
v 0.169124 -0.455277 -0.267627
v 0.0146781 -0.498874 -0.200086
v 0.0217348 -0.499545 -0.177545
v 0.0356434 -0.496675 -0.192415
v 0.0498871 -0.496796 -0.163916
v 0.0326084 -0.499437 -0.150075
v 0.13857 -0.48305 -0.150075
v 0.14963 -0.478182 -0.163916
v 0.162701 -0.472778 -0.163916
v 0.167244 -0.468755 -0.192415
v 0.190294 -0.459206 -0.192415
v 0.135386 -0.478356 -0.220913
v 0.126747 -0.484364 -0.196707
v 0.121664 -0.483975 -0.207741
v 0.020208 -0.497587 -0.20557
v 0.117251 -0.484994 -0.203693
v 0.108035 -0.485799 -0.207741
v 0.141475 -0.469881 -0.254194
v 0.171955 -0.456444 -0.258127
v 0.136187 -0.472885 -0.249428
v 0.135386 -0.475782 -0.235146
v 0.190294 -0.447499 -0.263595
v 0.0926554 -0.489165 -0.192415
v 0.121143 -0.486416 -0.178165
v 0.0641494 -0.494918 -0.163916
v 0.0926554 -0.491539 -0.150075
v 0.131439 -0.485705 -0.150075
v 0.130918 -0.485517 -0.163916
v 0.138049 -0.482849 -0.163916
v 0.14963 -0.476036 -0.192415
v 0.160113 -0.471705 -0.192415
v 0.190294 -0.458147 -0.203856
v 0.14963 -0.474722 -0.206664
v 0.145701 -0.471638 -0.235146
v 0.150114 -0.47255 -0.220211
v 0.157301 -0.470538 -0.214988
v 0.135386 -0.480422 -0.206664
v 0.128646 -0.484699 -0.187208
v 0.121143 -0.487408 -0.163916
v 0.148848 -0.467709 -0.249428
v 0.190294 -0.450557 -0.249411
v 0.174003 -0.457302 -0.249411
v 0.163892 -0.461486 -0.249411
v 0.0926554 -0.491163 -0.163916
v 0.121143 -0.487784 -0.150075
v 0.129521 -0.485021 -0.178165
v 0.134195 -0.482219 -0.192137
v 0.136653 -0.482312 -0.178165
v 0.189978 -0.458013 -0.206664
v 0.190294 -0.457879 -0.206664
v 0.152833 -0.468688 -0.235146
v 0.155197 -0.469666 -0.224488
v 0.162794 -0.467306 -0.220211
v 0.190294 -0.453936 -0.231016
v 0.187446 -0.456967 -0.220913
v 0.190294 -0.455787 -0.220913
f 1 2 6
f 1 6 17
f 1 17 31
f 1 31 49
f 1 49 32
f 1 32 18
f 1 18 7
f 1 7 3
f 1 3 8
f 1 8 20
f 1 20 37
f 1 37 59
f 1 59 87
f 1 87 86
f 1 86 72
f 1 72 45
f 1 45 29
f 1 29 28
f 1 28 27
f 1 27 14
f 1 14 9
f 1 9 4
f 1 4 5
f 1 5 2
f 2 5 13
f 2 13 6
f 3 7 8
f 4 9 5
f 5 10 11
f 5 11 12
f 5 12 13
f 5 9 14
f 5 14 15
f 5 15 16
f 5 16 10
f 6 13 26
f 6 26 17
f 7 18 33
f 7 33 51
f 7 51 79
f 7 79 111
f 7 111 131
f 7 131 150
f 7 150 132
f 7 132 112
f 7 112 80
f 7 80 52
f 7 52 34
f 7 34 19
f 7 19 8
f 8 19 34
f 8 34 53
f 8 53 82
f 8 82 116
f 8 116 137
f 8 137 155
f 8 155 161
f 8 161 159
f 8 159 146
f 8 146 127
f 8 127 105
f 8 105 83
f 8 83 54
f 8 54 35
f 8 35 20
f 10 21 22
f 10 22 23
f 10 23 24
f 10 24 11
f 10 16 21
f 11 24 25
f 11 25 12
f 12 25 13
f 13 25 26
f 14 27 15
f 15 28 29
f 15 29 16
f 15 27 28
f 16 29 30
f 16 30 22
f 16 22 21
f 17 26 44
f 17 44 31
f 18 32 50
f 18 50 33
f 20 35 36
f 20 36 37
f 22 30 38
f 22 38 39
f 22 39 40
f 22 40 23
f 23 40 41
f 23 41 24
f 24 41 26
f 24 26 25
f 26 41 42
f 26 42 43
f 26 43 44
f 29 45 46
f 29 46 30
f 30 46 47
f 30 47 48
f 30 48 38
f 31 44 71
f 31 71 49
f 32 49 71
f 32 71 50
f 33 50 51
f 34 52 53
f 35 54 36
f 36 54 55
f 36 55 56
f 36 56 57
f 36 57 58
f 36 58 37
f 37 58 59
f 38 48 39
f 39 48 47
f 39 47 40
f 40 47 60
f 40 60 61
f 40 61 41
f 41 61 62
f 41 62 42
f 42 62 63
f 42 63 64
f 42 64 65
f 42 65 43
f 43 66 67
f 43 67 44
f 43 65 64
f 43 64 61
f 43 61 68
f 43 68 66
f 44 67 69
f 44 69 70
f 44 70 71
f 45 72 46
f 46 72 58
f 46 58 73
f 46 73 74
f 46 74 47
f 47 74 75
f 47 75 60
f 50 71 76
f 50 76 77
f 50 77 78
f 50 78 51
f 51 78 79
f 52 80 81
f 52 81 82
f 52 82 53
f 54 83 84
f 54 84 55
f 55 84 56
f 56 84 85
f 56 85 73
f 56 73 58
f 56 58 57
f 58 72 86
f 58 86 87
f 58 87 59
f 60 75 61
f 61 64 63
f 61 63 62
f 61 75 88
f 61 88 89
f 61 89 68
f 66 68 90
f 66 90 91
f 66 91 69
f 66 69 67
f 68 89 92
f 68 92 93
f 68 93 94
f 68 94 95
f 68 95 91
f 68 91 90
f 69 91 96
f 69 96 97
f 69 97 71
f 69 71 70
f 71 98 99
f 71 99 76
f 71 97 100
f 71 100 98
f 73 101 102
f 73 102 89
f 73 89 88
f 73 88 75
f 73 75 74
f 73 85 103
f 73 103 104
f 73 104 105
f 73 105 106
f 73 106 101
f 76 107 77
f 76 99 107
f 77 108 78
f 77 107 109
f 77 109 110
f 77 110 108
f 78 108 110
f 78 110 79
f 79 110 111
f 80 112 113
f 80 113 114
f 80 114 81
f 81 114 136
f 81 136 115
f 81 115 82
f 82 115 116
f 83 105 104
f 83 104 103
f 83 103 84
f 84 103 85
f 89 102 117
f 89 117 92
f 91 95 94
f 91 94 97
f 91 97 96
f 92 117 93
f 93 118 119
f 93 119 100
f 93 100 94
f 93 117 118
f 94 100 97
f 98 120 107
f 98 107 99
f 98 100 120
f 100 121 122
f 100 122 120
f 100 119 121
f 101 123 102
f 101 106 124
f 101 124 123
f 102 123 125
f 102 125 126
f 102 126 117
f 105 127 106
f 106 127 124
f 107 120 122
f 107 122 121
f 107 121 118
f 107 118 109
f 109 128 129
f 109 129 130
f 109 130 110
f 109 118 128
f 110 130 131
f 110 131 111
f 112 132 133
f 112 133 134
f 112 134 113
f 113 134 135
f 113 135 136
f 113 136 114
f 115 137 116
f 115 136 138
f 115 138 137
f 117 126 125
f 117 125 139
f 117 139 140
f 117 140 141
f 117 141 142
f 117 142 118
f 118 121 119
f 118 142 143
f 118 143 144
f 118 144 129
f 118 129 128
f 123 145 139
f 123 139 125
f 123 124 146
f 123 146 147
f 123 147 148
f 123 148 145
f 124 127 146
f 129 144 149
f 129 149 130
f 130 149 131
f 131 149 144
f 131 144 150
f 132 150 133
f 133 150 144
f 133 144 151
f 133 151 134
f 134 151 143
f 134 143 152
f 134 152 153
f 134 153 135
f 135 138 136
f 135 153 152
f 135 152 142
f 135 142 138
f 137 154 155
f 137 138 154
f 138 142 141
f 138 141 154
f 139 145 156
f 139 156 157
f 139 157 141
f 139 141 140
f 141 157 158
f 141 158 159
f 141 159 160
f 141 160 161
f 141 161 154
f 142 152 143
f 143 151 144
f 145 148 156
f 146 159 147
f 147 159 157
f 147 157 156
f 147 156 148
f 154 161 155
f 157 159 158
f 159 161 160
