v 0.313815 8.06808e-05 -0.712585
v 0.313815 -0.00213159 -0.712585
v 0.307487 8.06808e-05 -0.715983
v 0.225101 8.06808e-05 -0.619537
v 0.302572 -0.0641364 -0.708258
v 0.301343 -0.0783932 -0.709691
v 0.300176 -0.0877032 -0.71132
v 0.300176 -0.0877032 -0.7138
v 0.301343 -0.0783932 -0.715153
v 0.302572 -0.0641364 -0.71618
v 0.303371 -0.0499411 -0.716476
v 0.307487 -0.00698627 -0.715983
v 0.225101 -0.00753934 -0.619537
v 0.224426 -0.0134387 -0.619537
v 0.299808 8.06808e-05 -0.718225
v 0.136142 8.06808e-05 -0.619537
v 0.295753 -0.0641364 -0.701136
v 0.217176 -0.0578376 -0.619537
v 0.215702 -0.0638599 -0.619537
v 0.294278 -0.0783932 -0.702579
v 0.213183 -0.0708039 -0.619537
v 0.281745 -0.106907 -0.700959
v 0.286722 -0.118183 -0.710372
v 0.273021 -0.149708 -0.70975
v 0.271301 -0.157512 -0.712575
v 0.273021 -0.149708 -0.715015
v 0.286722 -0.118183 -0.71455
v 0.288872 -0.106907 -0.716012
v 0.292128 -0.0783932 -0.719074
v 0.292128 -0.0641364 -0.720092
v 0.292128 -0.0499411 -0.720408
v 0.292128 -0.0356535 -0.720447
v 0.218712 -0.0499411 -0.619537
v 0.292128 8.06808e-05 -0.720447
v 6.1436e-05 8.06808e-05 -0.619755
v 6.1436e-05 -0.136158 -0.619537
v 0.208759 -0.081558 -0.619537
v 0.263253 -0.162889 -0.708258
v 0.20065 -0.100362 -0.619537
v 0.197701 -0.106968 -0.619537
v 0.195735 -0.111147 -0.619537
v 0.258215 -0.173213 -0.710619
v 0.228235 -0.214079 -0.712595
v 0.258215 -0.173213 -0.714372
v 0.263253 -0.162889 -0.715657
v 0.263622 -0.149708 -0.718936
v 0.275909 -0.13542 -0.716407
v 0.277875 -0.106907 -0.719943
v 0.263622 -0.13542 -0.720339
v 0.277875 -0.09265 -0.720447
v 6.1436e-05 8.06808e-05 -0.720447
v -0.307487 -0.00010367 -0.715983
v -0.299746 -0.00010367 -0.697976
v -0.219142 -0.00010367 -0.631262
v 6.1436e-05 -0.22514 -0.619537
v 0.190574 -0.119044 -0.619537
v 0.183632 -0.128814 -0.619537
v 0.173311 -0.14258 -0.619537
v 0.245068 -0.188945 -0.709671
v 0.231061 -0.206612 -0.714837
v 0.245068 -0.188945 -0.715015
v 0.221231 -0.207534 -0.701976
v 0.212876 -0.212911 -0.698865
v 0.219634 -0.219609 -0.709621
v 0.214104 -0.228305 -0.712595
v 0.219634 -0.219609 -0.71461
v 0.249614 -0.178068 -0.716684
v 0.220862 -0.206612 -0.718758
v 0.249369 -0.163873 -0.719805
v 0.235115 -0.178068 -0.720299
v 0.220862 -0.192325 -0.720447
v 0.249369 -0.149708 -0.720447
v -0.292128 -0.00010367 -0.720447
v -0.307487 -0.007017 -0.715983
v -0.313815 -0.00114836 -0.712585
v -0.299746 -0.00376006 -0.697976
v -0.219142 -0.00787732 -0.631262
v -0.209251 -0.0641671 -0.631262
v -0.207162 -0.0727397 -0.631262
v -0.205995 -0.0772256 -0.631262
v -0.192356 -0.106968 -0.631262
v -0.163113 -0.148848 -0.631262
v -0.148798 -0.163104 -0.631262
v -0.106899 -0.192417 -0.631262
v -0.077225 -0.205936 -0.631262
v -0.135405 -0.268709 -0.699902
v -0.106899 -0.281737 -0.700959
v -0.0968845 -0.283826 -0.699319
v -0.087362 -0.285793 -0.697798
v -0.0783923 -0.294304 -0.702569
v -0.0640777 -0.295748 -0.701117
v -0.00208882 -0.313815 -0.712585
v 0.00749519 -0.22514 -0.619537
v 0.165939 -0.151982 -0.619537
v 0.235976 -0.193185 -0.717188
v 0.207531 -0.221269 -0.701976
v 0.159242 -0.159294 -0.619537
v 0.151931 -0.165931 -0.619537
v 0.188916 -0.24502 -0.709671
v 0.173249 -0.258201 -0.710619
v 0.157522 -0.27129 -0.712575
v 0.173249 -0.258201 -0.714372
v 0.188916 -0.24502 -0.715015
v 0.206609 -0.231039 -0.714837
v 0.206609 -0.2209 -0.718758
v 0.192356 -0.2209 -0.720447
v -0.292128 -0.0356535 -0.720447
v -0.303371 -0.0499411 -0.716476
v -0.292128 -0.0499411 -0.720408
v -0.302572 -0.0641671 -0.71618
v -0.301343 -0.0783932 -0.715153
v -0.300115 -0.0877032 -0.7138
v -0.300115 -0.0877032 -0.71132
v -0.301343 -0.0783932 -0.709691
v -0.302572 -0.0641671 -0.708258
v -0.295753 -0.0641671 -0.701117
v -0.287152 -0.0783932 -0.696721
v -0.285739 -0.0873959 -0.697798
v -0.281745 -0.106968 -0.700959
v -0.26866 -0.13542 -0.699902
v -0.258891 -0.14682 -0.696652
v -0.256188 -0.156345 -0.698618
v -0.239355 -0.18154 -0.700159
v -0.226269 -0.19721 -0.699507
v -0.212876 -0.21285 -0.698865
v -0.197209 -0.226246 -0.699507
v -0.181482 -0.239366 -0.700159
v -0.156232 -0.256173 -0.698618
v -0.146771 -0.258908 -0.696652
v -0.150764 -0.26364 -0.701927
v -0.149658 -0.273042 -0.70975
v -0.118141 -0.286715 -0.710352
v -0.0876691 -0.300142 -0.71132
v -0.0783923 -0.301371 -0.709691
v -0.0640777 -0.302569 -0.708258
v 0.00104441 -0.313815 -0.712802
v -0.0876691 -0.300142 -0.7138
v -0.0783923 -0.301371 -0.715153
v -0.0640777 -0.302569 -0.71618
v 0.0641392 -0.302631 -0.708258
v 0.013393 -0.224433 -0.619537
v 0.142531 -0.173275 -0.619537
v 0.177366 -0.24883 -0.705384
v 0.162928 -0.26324 -0.708258
v 0.149658 -0.273042 -0.715015
v 0.149658 -0.273042 -0.70975
v 0.0876691 -0.300142 -0.71132
v 0.0876691 -0.300142 -0.7138
v 0.162928 -0.26324 -0.715657
v 0.178041 -0.249659 -0.716684
v 0.193155 -0.235986 -0.717188
v 0.149658 -0.26364 -0.718936
v 0.16385 -0.249383 -0.719805
v 0.178103 -0.235126 -0.720299
v 0.135405 -0.26364 -0.720339
v 0.149658 -0.249383 -0.720447
v -0.277875 -0.09265 -0.720447
v -0.292128 -0.0641671 -0.720092
v -0.292128 -0.0783932 -0.719074
v -0.288872 -0.106968 -0.716022
v -0.286722 -0.118183 -0.71456
v -0.27124 -0.157512 -0.712585
v -0.286722 -0.118183 -0.710352
v -0.294278 -0.0783932 -0.702569
v -0.273021 -0.149708 -0.70975
v -0.263622 -0.150845 -0.701927
v -0.263192 -0.162889 -0.708258
v -0.253301 -0.163873 -0.700633
v -0.245068 -0.188945 -0.709661
v -0.221231 -0.207534 -0.701976
v -0.248816 -0.177361 -0.705384
v -0.207531 -0.221238 -0.701976
v -0.228296 -0.214079 -0.712585
v -0.219634 -0.21964 -0.709602
v -0.214104 -0.228243 -0.712585
v -0.188916 -0.24505 -0.709661
v -0.177366 -0.24883 -0.705384
v -0.16385 -0.253316 -0.700633
v -0.162867 -0.26324 -0.708258
v -0.157522 -0.27129 -0.712585
v 0.00694227 -0.307516 -0.715983
v 0.049886 -0.303368 -0.716476
v 0.0641392 -0.302631 -0.71618
v 0.0783309 -0.301402 -0.715153
v 0.0783309 -0.301402 -0.709691
v -0.049886 -0.303368 -0.716476
v -0.00694227 -0.307516 -0.715983
v -0.118141 -0.286715 -0.71456
v -0.106899 -0.288896 -0.716022
v -0.0783923 -0.292153 -0.719074
v -0.0640777 -0.292153 -0.720092
v 0.0641392 -0.29581 -0.701136
v 0.049886 -0.218749 -0.619537
v 0.12877 -0.183568 -0.619537
v 0.119001 -0.190604 -0.619537
v 0.111138 -0.195705 -0.619537
v 0.135405 -0.27593 -0.716407
v 0.118141 -0.286715 -0.71455
v 0.106899 -0.288896 -0.716012
v 0.118141 -0.286715 -0.710372
v 0.106899 -0.197702 -0.619537
v 0.100325 -0.200652 -0.619537
v 0.0815255 -0.208825 -0.619537
v 0.106899 -0.281768 -0.700959
v 0.0707742 -0.213218 -0.619537
v 0.063832 -0.215769 -0.619537
v 0.0783309 -0.294304 -0.702579
v 0.0783309 -0.292153 -0.719074
v 0.106899 -0.277896 -0.719943
v 0.121152 -0.26364 -0.720447
v 0.0641392 -0.292153 -0.720092
v 0.092584 -0.277896 -0.720447
v -0.263622 -0.121225 -0.720447
v -0.263622 -0.13542 -0.720339
v -0.277875 -0.106968 -0.719943
v -0.263622 -0.149708 -0.718936
v -0.275909 -0.13542 -0.716407
v -0.273021 -0.149708 -0.715015
v -0.258215 -0.173213 -0.710619
v -0.258215 -0.173213 -0.714363
v -0.245068 -0.188945 -0.715015
v -0.231061 -0.206612 -0.714827
v -0.219634 -0.21964 -0.71459
v -0.173188 -0.258201 -0.710619
v -0.206609 -0.231039 -0.714827
v -0.188916 -0.24505 -0.715015
v -0.173188 -0.258201 -0.714363
v -0.162867 -0.26324 -0.715666
v -0.149658 -0.273042 -0.715015
v 0.0356329 -0.292153 -0.720447
v 0.049886 -0.292153 -0.720408
v 0.0578113 -0.217213 -0.619537
v -0.049886 -0.292153 -0.720408
v -0.0356329 -0.292153 -0.720447
v -0.135405 -0.27593 -0.716407
v -0.149658 -0.263578 -0.718936
v -0.106899 -0.277896 -0.719943
v -0.135405 -0.263578 -0.720339
v -0.0926455 -0.277896 -0.720447
v -0.249369 -0.149708 -0.720447
v -0.220862 -0.192356 -0.720447
v -0.235115 -0.178099 -0.720289
v -0.249369 -0.163873 -0.719805
v -0.220862 -0.206612 -0.718738
v -0.249614 -0.178007 -0.716684
v -0.263192 -0.162889 -0.715666
v -0.235976 -0.193185 -0.717188
v -0.206609 -0.220869 -0.718738
v -0.193155 -0.235986 -0.717188
v -0.178041 -0.249659 -0.716684
v -0.16385 -0.249383 -0.719805
v -0.178103 -0.235126 -0.720289
v -0.192356 -0.220869 -0.720447
v -0.149658 -0.249383 -0.720447
f 1 2 12
f 1 12 3
f 1 3 15
f 1 15 34
f 1 34 51
f 1 51 35
f 1 35 16
f 1 16 4
f 1 4 13
f 1 13 2
f 2 5 6
f 2 6 7
f 2 7 8
f 2 8 9
f 2 9 10
f 2 10 11
f 2 11 12
f 2 13 14
f 2 14 5
f 3 12 15
f 4 16 36
f 4 36 55
f 4 55 93
f 4 93 141
f 4 141 193
f 4 193 232
f 4 232 206
f 4 206 205
f 4 205 203
f 4 203 202
f 4 202 201
f 4 201 196
f 4 196 195
f 4 195 194
f 4 194 142
f 4 142 98
f 4 98 97
f 4 97 94
f 4 94 58
f 4 58 57
f 4 57 56
f 4 56 41
f 4 41 40
f 4 40 39
f 4 39 37
f 4 37 21
f 4 21 19
f 4 19 18
f 4 18 33
f 4 33 14
f 4 14 13
f 5 14 17
f 5 17 6
f 6 17 18
f 6 18 19
f 6 19 20
f 6 20 7
f 7 20 19
f 7 19 21
f 7 21 22
f 7 22 23
f 7 23 24
f 7 24 25
f 7 25 8
f 8 25 26
f 8 26 27
f 8 27 28
f 8 28 9
f 9 28 29
f 9 29 10
f 10 29 30
f 10 30 11
f 11 30 31
f 11 31 12
f 12 31 32
f 12 32 15
f 14 33 17
f 15 32 34
f 16 35 36
f 17 33 18
f 21 37 22
f 22 24 23
f 22 37 24
f 24 38 25
f 24 37 39
f 24 39 40
f 24 40 41
f 24 41 38
f 25 38 42
f 25 42 43
f 25 43 44
f 25 44 26
f 26 44 45
f 26 45 46
f 26 46 47
f 26 47 28
f 26 28 27
f 28 47 46
f 28 46 29
f 29 46 48
f 29 48 30
f 30 48 49
f 30 49 50
f 30 50 31
f 31 50 32
f 32 50 72
f 32 72 71
f 32 71 106
f 32 106 156
f 32 156 210
f 32 210 212
f 32 212 230
f 32 230 234
f 32 234 239
f 32 239 254
f 32 254 253
f 32 253 241
f 32 241 240
f 32 240 213
f 32 213 157
f 32 157 107
f 32 107 73
f 32 73 51
f 32 51 34
f 35 51 52
f 35 52 53
f 35 53 54
f 35 54 36
f 36 54 77
f 36 77 55
f 38 41 56
f 38 56 57
f 38 57 58
f 38 58 42
f 42 59 43
f 42 58 59
f 43 60 61
f 43 61 44
f 43 59 62
f 43 62 63
f 43 63 64
f 43 64 65
f 43 65 66
f 43 66 60
f 44 61 45
f 45 61 67
f 45 67 46
f 46 49 48
f 46 67 68
f 46 68 69
f 46 69 49
f 49 69 70
f 49 70 71
f 49 71 72
f 49 72 50
f 51 73 52
f 52 74 75
f 52 75 53
f 52 73 107
f 52 107 74
f 53 75 76
f 53 76 77
f 53 77 54
f 55 77 78
f 55 78 79
f 55 79 80
f 55 80 81
f 55 81 82
f 55 82 83
f 55 83 84
f 55 84 85
f 55 85 86
f 55 86 87
f 55 87 88
f 55 88 89
f 55 89 90
f 55 90 91
f 55 91 92
f 55 92 93
f 58 94 59
f 59 94 62
f 60 95 61
f 60 66 68
f 60 68 95
f 61 95 67
f 62 94 63
f 63 96 65
f 63 65 64
f 63 94 97
f 63 97 98
f 63 98 96
f 65 96 99
f 65 99 100
f 65 100 101
f 65 101 102
f 65 102 103
f 65 103 104
f 65 104 66
f 66 104 105
f 66 105 68
f 67 95 68
f 68 105 106
f 68 106 71
f 68 71 70
f 68 70 69
f 74 108 75
f 74 107 109
f 74 109 108
f 75 108 110
f 75 110 111
f 75 111 112
f 75 112 113
f 75 113 114
f 75 114 115
f 75 115 76
f 76 115 116
f 76 116 77
f 77 116 78
f 78 116 117
f 78 117 79
f 79 117 80
f 80 117 118
f 80 118 119
f 80 119 120
f 80 120 81
f 81 120 121
f 81 121 122
f 81 122 82
f 82 122 123
f 82 123 124
f 82 124 125
f 82 125 83
f 83 125 126
f 83 126 127
f 83 127 128
f 83 128 84
f 84 129 86
f 84 86 85
f 84 128 129
f 86 129 130
f 86 130 131
f 86 131 87
f 87 131 132
f 87 132 133
f 87 133 88
f 88 133 90
f 88 90 89
f 90 134 91
f 90 133 134
f 91 134 135
f 91 135 92
f 92 136 93
f 92 135 134
f 92 134 133
f 92 133 137
f 92 137 138
f 92 138 139
f 92 139 136
f 93 136 140
f 93 140 141
f 96 98 142
f 96 142 99
f 99 142 143
f 99 143 100
f 100 143 142
f 100 142 144
f 100 144 101
f 101 145 102
f 101 144 146
f 101 146 147
f 101 147 148
f 101 148 145
f 102 145 149
f 102 149 150
f 102 150 103
f 103 150 104
f 104 150 151
f 104 151 105
f 105 151 150
f 105 150 152
f 105 152 153
f 105 153 154
f 105 154 106
f 106 154 155
f 106 155 156
f 107 157 109
f 108 109 158
f 108 158 110
f 109 157 158
f 110 158 159
f 110 159 111
f 111 159 160
f 111 160 112
f 112 160 161
f 112 161 162
f 112 162 113
f 113 162 163
f 113 163 119
f 113 119 164
f 113 164 114
f 114 164 116
f 114 116 115
f 116 164 117
f 117 164 118
f 118 164 119
f 119 163 165
f 119 165 120
f 120 165 166
f 120 166 121
f 121 166 122
f 122 166 167
f 122 167 168
f 122 168 123
f 123 169 170
f 123 170 124
f 123 168 171
f 123 171 169
f 124 170 125
f 125 172 126
f 125 170 173
f 125 173 174
f 125 174 175
f 125 175 172
f 126 172 127
f 127 172 176
f 127 176 177
f 127 177 178
f 127 178 128
f 128 130 129
f 128 178 179
f 128 179 130
f 130 179 131
f 131 179 180
f 131 180 132
f 132 180 133
f 133 180 137
f 136 181 182
f 136 182 183
f 136 183 184
f 136 184 148
f 136 148 147
f 136 147 185
f 136 185 140
f 136 139 186
f 136 186 187
f 136 187 181
f 137 180 188
f 137 188 189
f 137 189 138
f 138 189 190
f 138 190 139
f 139 190 191
f 139 191 186
f 140 192 141
f 140 185 192
f 141 192 193
f 142 194 144
f 144 194 195
f 144 195 196
f 144 196 146
f 145 197 152
f 145 152 149
f 145 148 198
f 145 198 199
f 145 199 197
f 146 200 147
f 146 196 201
f 146 201 202
f 146 202 203
f 146 203 204
f 146 204 200
f 147 200 204
f 147 204 205
f 147 205 206
f 147 206 207
f 147 207 185
f 148 184 199
f 148 199 198
f 149 152 150
f 152 197 199
f 152 199 208
f 152 208 209
f 152 209 155
f 152 155 153
f 153 155 154
f 155 210 156
f 155 209 211
f 155 211 212
f 155 212 210
f 157 213 214
f 157 214 158
f 158 214 215
f 158 215 159
f 159 215 216
f 159 216 160
f 160 217 218
f 160 218 161
f 160 216 217
f 161 218 162
f 162 173 219
f 162 219 167
f 162 167 165
f 162 165 163
f 162 218 220
f 162 220 173
f 165 167 166
f 167 219 171
f 167 171 168
f 169 173 170
f 169 171 219
f 169 219 173
f 172 175 176
f 173 175 174
f 173 220 221
f 173 221 222
f 173 222 223
f 173 223 175
f 175 180 224
f 175 224 176
f 175 223 225
f 175 225 226
f 175 226 227
f 175 227 180
f 176 224 177
f 177 224 179
f 177 179 178
f 179 224 180
f 180 227 228
f 180 228 229
f 180 229 188
f 181 230 231
f 181 231 211
f 181 211 182
f 181 187 234
f 181 234 230
f 182 211 183
f 183 211 208
f 183 208 184
f 184 208 199
f 185 207 206
f 185 206 232
f 185 232 192
f 186 191 187
f 187 191 233
f 187 233 234
f 188 229 189
f 189 229 235
f 189 235 236
f 189 236 190
f 190 236 237
f 190 237 191
f 191 237 238
f 191 238 239
f 191 239 233
f 192 232 193
f 203 205 204
f 208 211 209
f 211 231 212
f 212 231 230
f 213 240 214
f 214 240 241
f 214 241 242
f 214 242 243
f 214 243 216
f 214 216 215
f 216 243 244
f 216 244 245
f 216 245 246
f 216 246 218
f 216 218 217
f 218 246 220
f 220 246 221
f 221 247 222
f 221 246 245
f 221 245 247
f 222 247 244
f 222 244 223
f 223 244 248
f 223 248 225
f 225 248 249
f 225 249 226
f 226 249 250
f 226 250 228
f 226 228 227
f 228 236 229
f 228 250 236
f 229 236 235
f 233 239 234
f 236 250 248
f 236 248 251
f 236 251 238
f 236 238 237
f 238 251 252
f 238 252 253
f 238 253 254
f 238 254 239
f 241 244 242
f 241 253 248
f 241 248 244
f 242 244 243
f 244 247 245
f 248 253 252
f 248 252 251
f 248 250 249
