v -0.0810636 -0.179682 0.706347
v -0.0810636 -0.177217 0.715673
v -0.100969 -0.171829 0.713665
v -0.100969 -0.171829 0.709626
v -0.0810636 -0.141949 0.492541
v -0.0810636 -0.163888 0.720224
v -0.0926488 -0.163888 0.719287
v -0.0926488 -0.173749 0.71536
v -0.106198 -0.163677 0.716007
v -0.116667 -0.1588 0.714579
v -0.132901 -0.146087 0.705477
v -0.105942 -0.123919 0.492541
v -0.10306 -0.126138 0.492541
v -0.0938689 -0.133198 0.492541
v -0.0927533 -0.134008 0.492541
v -0.0828531 -0.141051 0.492541
v -0.0810636 -0.0681382 0.492541
v -0.0810636 -0.149644 0.720447
v -0.0926488 -0.149644 0.720447
v -0.121153 -0.135382 0.720403
v -0.106895 -0.149644 0.719956
v -0.121315 -0.150102 0.716877
v -0.13232 -0.145647 0.71516
v -0.140024 -0.140012 0.705477
v -0.115866 -0.115855 0.492541
v -0.106035 0.000179435 0.492541
v -0.0810636 -0.0682262 0.493925
v -0.0810636 -0.135382 0.719934
v -0.163891 0.000179435 0.720447
v -0.163891 -0.0784034 0.720447
v -0.135399 -0.121137 0.720403
v -0.13641 -0.136385 0.717234
v -0.145648 -0.1323 0.71516
v -0.146101 -0.132881 0.705477
v -0.116272 -0.115362 0.492541
v -0.163252 0.000179435 0.492541
v -0.106663 0.000179435 0.505973
v -0.0810636 -0.0731563 0.555257
v -0.0810636 -0.0724344 0.54872
v -0.0810636 -0.0717301 0.539684
v -0.0810636 -0.121489 0.71594
v -0.148285 0.000179435 0.716208
v -0.178149 0.000179435 0.720447
v -0.178149 -0.0356345 0.720447
v -0.178149 -0.0498967 0.720113
v -0.163891 -0.0926304 0.719287
v -0.149645 -0.106875 0.719956
v -0.150098 -0.121296 0.716877
v -0.163682 -0.106171 0.716007
v -0.158802 -0.116647 0.714579
v -0.171828 -0.100959 0.713665
v -0.171828 -0.100959 0.709626
v -0.12393 -0.105924 0.492541
v -0.163252 -0.00712773 0.492541
v -0.199774 0.000179435 0.71159
v -0.106999 0.000179435 0.512889
v -0.0810636 -0.0741071 0.562977
v -0.0810636 -0.119235 0.714825
v -0.142638 0.000179435 0.712348
v -0.142929 0.000179435 0.712549
v -0.193487 0.000179435 0.715963
v -0.193487 -0.00686362 0.715963
v -0.191001 -0.0213899 0.716521
v -0.190083 -0.0356345 0.716521
v -0.178149 -0.0641412 0.718238
v -0.189002 -0.0498967 0.716208
v -0.173757 -0.0926304 0.71536
v -0.18533 -0.0714132 0.712683
v -0.18533 -0.0714132 0.712371
v -0.144927 -0.0750227 0.492541
v -0.144614 -0.075727 0.492541
v -0.144416 -0.0761496 0.492541
v -0.141058 -0.0828581 0.492541
v -0.134016 -0.092736 0.492541
v -0.133214 -0.0938453 0.492541
v -0.130879 -0.0968914 0.492541
v -0.126149 -0.103054 0.492541
v -0.161404 -0.0213899 0.492541
v -0.199774 -0.00193348 0.71159
v -0.199774 0.000179435 0.712995
v -0.108138 0.000179435 0.534464
v -0.0810636 -0.0760792 0.573932
v -0.108894 0.000179435 0.54872
v -0.142383 0.000179435 0.711724
v -0.0810636 -0.113654 0.705477
v -0.140349 0.000179435 0.706748
v -0.199774 -0.00193348 0.712995
v -0.186841 -0.0641412 0.714312
v -0.191024 -0.0498967 0.705477
v -0.18698 -0.0638067 0.706748
v -0.157593 -0.0448785 0.492541
v -0.15743 -0.0452835 0.492541
v -0.154688 -0.0520096 0.492541
v -0.149668 -0.0641412 0.492541
v -0.159557 -0.0348245 0.492541
v -0.193464 -0.0356345 0.705477
v -0.159441 -0.0356345 0.492541
v -0.110079 0.000179435 0.562977
v -0.0810636 -0.0773646 0.579822
v -0.120084 0.000179435 0.626898
v -0.121292 0.000179435 0.634216
v -0.124395 0.000179435 0.648472
v -0.130635 0.000179435 0.671497
v -0.136003 0.000179435 0.69122
v -0.0810636 -0.0948489 0.650793
v -0.112403 0.000179435 0.578572
v -0.116621 0.000179435 0.605725
v -0.157721 -0.0442974 0.492541
v -0.0810636 -0.0841963 0.609071
v -0.111322 0.000179435 0.571344
v -0.0810636 -0.0938453 0.647535
v -0.0810636 -0.0901125 0.634193
v -0.0810636 -0.0889152 0.629129
f 1 2 3
f 1 3 4
f 1 4 5
f 1 5 17
f 1 17 27
f 1 27 40
f 1 40 39
f 1 39 38
f 1 38 57
f 1 57 82
f 1 82 99
f 1 99 109
f 1 109 113
f 1 113 112
f 1 112 111
f 1 111 105
f 1 105 85
f 1 85 58
f 1 58 41
f 1 41 28
f 1 28 18
f 1 18 6
f 1 6 2
f 2 6 7
f 2 7 8
f 2 8 3
f 3 8 9
f 3 9 10
f 3 10 11
f 3 11 4
f 4 11 12
f 4 12 13
f 4 13 14
f 4 14 15
f 4 15 16
f 4 16 5
f 5 16 15
f 5 15 14
f 5 14 13
f 5 13 12
f 5 12 25
f 5 25 35
f 5 35 53
f 5 53 77
f 5 77 76
f 5 76 75
f 5 75 74
f 5 74 73
f 5 73 72
f 5 72 71
f 5 71 70
f 5 70 94
f 5 94 93
f 5 93 92
f 5 92 91
f 5 91 108
f 5 108 97
f 5 97 95
f 5 95 78
f 5 78 54
f 5 54 36
f 5 36 26
f 5 26 17
f 6 18 19
f 6 19 20
f 6 20 21
f 6 21 7
f 7 21 22
f 7 22 9
f 7 9 8
f 9 22 23
f 9 23 10
f 10 23 11
f 11 23 24
f 11 24 25
f 11 25 12
f 17 26 27
f 18 28 29
f 18 29 43
f 18 43 44
f 18 44 30
f 18 30 19
f 19 30 31
f 19 31 20
f 20 31 32
f 20 32 21
f 21 32 22
f 22 32 23
f 23 32 33
f 23 33 24
f 24 33 34
f 24 34 25
f 25 34 35
f 26 36 55
f 26 55 80
f 26 80 61
f 26 61 43
f 26 43 29
f 26 29 42
f 26 42 60
f 26 60 59
f 26 59 84
f 26 84 86
f 26 86 104
f 26 104 103
f 26 103 102
f 26 102 101
f 26 101 100
f 26 100 107
f 26 107 106
f 26 106 110
f 26 110 98
f 26 98 83
f 26 83 81
f 26 81 56
f 26 56 37
f 26 37 38
f 26 38 39
f 26 39 40
f 26 40 27
f 28 41 42
f 28 42 29
f 30 44 45
f 30 45 46
f 30 46 47
f 30 47 31
f 31 47 32
f 32 47 46
f 32 46 48
f 32 48 33
f 33 48 49
f 33 49 50
f 33 50 34
f 34 50 51
f 34 51 52
f 34 52 53
f 34 53 35
f 36 54 79
f 36 79 55
f 37 56 57
f 37 57 38
f 41 58 59
f 41 59 60
f 41 60 42
f 43 61 62
f 43 62 44
f 44 62 63
f 44 63 64
f 44 64 45
f 45 65 46
f 45 64 66
f 45 66 65
f 46 65 67
f 46 67 49
f 46 49 48
f 49 67 51
f 49 51 50
f 51 67 68
f 51 68 69
f 51 69 52
f 52 69 70
f 52 70 71
f 52 71 72
f 52 72 73
f 52 73 74
f 52 74 75
f 52 75 76
f 52 76 77
f 52 77 53
f 54 78 79
f 55 79 87
f 55 87 80
f 56 81 57
f 57 81 83
f 57 83 82
f 58 84 59
f 58 85 86
f 58 86 84
f 61 80 87
f 61 87 62
f 62 64 63
f 62 87 64
f 64 87 66
f 65 66 67
f 66 87 88
f 66 88 67
f 67 88 68
f 68 88 89
f 68 89 69
f 69 89 90
f 69 90 91
f 69 91 92
f 69 92 93
f 69 93 94
f 69 94 70
f 78 95 79
f 79 96 89
f 79 89 87
f 79 95 97
f 79 97 96
f 82 83 98
f 82 98 99
f 85 100 101
f 85 101 102
f 85 102 103
f 85 103 104
f 85 104 86
f 85 105 106
f 85 106 107
f 85 107 100
f 87 89 88
f 89 96 97
f 89 97 108
f 89 108 91
f 89 91 90
f 98 109 99
f 98 110 105
f 98 105 111
f 98 111 112
f 98 112 113
f 98 113 109
f 105 110 106
