v -0.169766 -0.374195 -0.316806
v -0.323717 -0.252728 -0.316806
v -0.202744 -0.426618 -0.316806
v -0.169766 -0.439331 -0.319127
v -0.169766 -0.252728 -0.499393
v -0.400681 -0.252728 -0.316806
v -0.270531 -0.387054 -0.316806
v -0.234253 -0.412955 -0.31683
v -0.221595 -0.416992 -0.321351
v -0.226772 -0.412772 -0.326549
v -0.186809 -0.428189 -0.329329
v -0.169766 -0.436317 -0.326597
v -0.169766 -0.252728 -0.563802
v -0.387051 -0.270519 -0.316806
v -0.391956 -0.252728 -0.335229
v -0.396928 -0.253002 -0.324373
v -0.383728 -0.269459 -0.325654
v -0.328622 -0.342248 -0.316806
v -0.326 -0.340714 -0.324905
v -0.261535 -0.393283 -0.318256
v -0.248764 -0.403311 -0.317458
v -0.244266 -0.400534 -0.330925
v -0.228512 -0.399329 -0.356988
v -0.22094 -0.405813 -0.349179
v -0.221595 -0.411165 -0.335616
v -0.207333 -0.417083 -0.335616
v -0.177655 -0.423951 -0.348696
v -0.169766 -0.431732 -0.337792
v -0.169766 -0.266464 -0.554421
v -0.178536 -0.263633 -0.551762
v -0.191963 -0.252728 -0.552173
v -0.346614 -0.321042 -0.320384
v -0.342206 -0.328659 -0.316806
v -0.370618 -0.28515 -0.327951
v -0.38366 -0.253057 -0.351935
v -0.376925 -0.252728 -0.365451
v -0.335154 -0.335216 -0.318498
v -0.328848 -0.328878 -0.344271
v -0.285156 -0.370597 -0.327951
v -0.269446 -0.383748 -0.325654
v -0.32114 -0.332787 -0.349082
v -0.321027 -0.339034 -0.336341
v -0.259433 -0.386981 -0.334963
v -0.253986 -0.382817 -0.352225
v -0.249307 -0.388351 -0.348164
v -0.241215 -0.398251 -0.340427
v -0.198269 -0.412772 -0.355054
v -0.238254 -0.396132 -0.349179
v -0.244492 -0.38647 -0.359527
v -0.234864 -0.391712 -0.362984
v -0.231676 -0.387456 -0.375001
v -0.227698 -0.38457 -0.384478
v -0.223539 -0.396936 -0.36649
v -0.214001 -0.399128 -0.370721
v -0.219629 -0.400626 -0.362404
v -0.188776 -0.414745 -0.359527
v -0.169766 -0.425138 -0.353652
v -0.169879 -0.284657 -0.541704
v -0.178175 -0.274757 -0.544315
v -0.169766 -0.335855 -0.491729
v -0.186334 -0.271597 -0.542163
v -0.203106 -0.255577 -0.544291
v -0.217075 -0.252984 -0.538077
v -0.237553 -0.252728 -0.525336
v -0.340669 -0.326028 -0.324905
v -0.357463 -0.30084 -0.330248
v -0.341166 -0.31242 -0.345601
v -0.356491 -0.285369 -0.356771
v -0.372811 -0.259505 -0.363444
v -0.361622 -0.252728 -0.390522
v -0.36777 -0.252984 -0.380465
v -0.3715 -0.25481 -0.372365
v -0.327695 -0.313443 -0.370407
v -0.340827 -0.297753 -0.368376
v -0.332713 -0.321152 -0.349082
v -0.326158 -0.326229 -0.353773
v -0.316665 -0.330266 -0.360905
v -0.301023 -0.343399 -0.358874
v -0.285336 -0.356514 -0.356771
v -0.269672 -0.369665 -0.354498
v -0.297746 -0.340879 -0.368376
v -0.24117 -0.383931 -0.369029
v -0.235948 -0.38183 -0.378917
v -0.230072 -0.372076 -0.401499
v -0.226093 -0.369044 -0.411001
v -0.2166 -0.372369 -0.416102
v -0.213051 -0.384479 -0.398501
v -0.206677 -0.39679 -0.380658
v -0.171914 -0.41491 -0.373816
v -0.183532 -0.412553 -0.369053
v -0.169766 -0.419531 -0.366103
v -0.178175 -0.28188 -0.538972
v -0.170422 -0.315654 -0.512981
v -0.170783 -0.299982 -0.527947
v -0.181791 -0.31158 -0.51141
v -0.188911 -0.302064 -0.515375
v -0.169766 -0.341353 -0.485225
v -0.177474 -0.332367 -0.492068
v -0.170399 -0.33012 -0.49816
v -0.228987 -0.254829 -0.529059
v -0.197161 -0.283232 -0.525795
v -0.239294 -0.26851 -0.51112
v -0.245442 -0.258993 -0.515085
v -0.257015 -0.25302 -0.511555
v -0.277267 -0.252728 -0.493543
v -0.338996 -0.321042 -0.336341
v -0.343382 -0.301059 -0.358874
v -0.350366 -0.252728 -0.408293
v -0.344783 -0.262847 -0.404908
v -0.341505 -0.284364 -0.383995
v -0.325412 -0.310484 -0.377684
v -0.330226 -0.316713 -0.360905
v -0.315195 -0.315233 -0.387428
v -0.31341 -0.327727 -0.370407
v -0.256902 -0.370798 -0.370963
v -0.262846 -0.344842 -0.404908
v -0.241825 -0.35593 -0.412766
v -0.222047 -0.364259 -0.42159
v -0.207649 -0.382287 -0.4066
v -0.217979 -0.359473 -0.4316
v -0.212893 -0.355729 -0.441078
v -0.210542 -0.368971 -0.425604
v -0.206157 -0.374287 -0.42072
v -0.19732 -0.38384 -0.411654
v -0.203558 -0.386452 -0.402128
v -0.169766 -0.410124 -0.384285
v -0.193048 -0.292657 -0.520573
v -0.177022 -0.320202 -0.505365
v -0.181791 -0.326248 -0.497072
v -0.18977 -0.316731 -0.501908
v -0.19411 -0.307708 -0.50713
v -0.198405 -0.298447 -0.512328
v -0.178175 -0.346249 -0.475264
v -0.169766 -0.355089 -0.468857
v -0.189341 -0.343874 -0.47246
v -0.250663 -0.264637 -0.506816
v -0.246346 -0.273916 -0.501618
v -0.268881 -0.253513 -0.501086
v -0.260744 -0.260765 -0.502512
v -0.304843 -0.252728 -0.465231
v -0.274238 -0.263669 -0.48803
v -0.281404 -0.263669 -0.480801
v -0.284432 -0.255742 -0.483896
v -0.297226 -0.253459 -0.472629
v -0.343517 -0.255139 -0.41574
v -0.312822 -0.298392 -0.412234
v -0.339042 -0.252728 -0.423815
v -0.320914 -0.292511 -0.406649
v -0.315851 -0.30232 -0.402732
v -0.310426 -0.325444 -0.377684
v -0.311782 -0.311799 -0.39693
v -0.298333 -0.312859 -0.412234
v -0.302244 -0.315873 -0.402732
v -0.284365 -0.341536 -0.383995
v -0.296096 -0.325389 -0.395237
v -0.257535 -0.342815 -0.414313
v -0.232309 -0.359546 -0.417529
v -0.252697 -0.339088 -0.423815
v -0.227472 -0.355856 -0.42703
v -0.222025 -0.353153 -0.435686
v -0.21981 -0.345134 -0.447896
v -0.214317 -0.342468 -0.456479
v -0.206677 -0.345061 -0.45967
v -0.207559 -0.352642 -0.44937
v -0.196868 -0.355126 -0.454423
v -0.201072 -0.371181 -0.428505
v -0.192528 -0.38046 -0.419995
v -0.187804 -0.385812 -0.414942
v -0.169766 -0.397119 -0.408148
v -0.173066 -0.399877 -0.400629
v -0.198834 -0.3417 -0.469921
v -0.199128 -0.327526 -0.484234
v -0.199263 -0.313334 -0.498596
v -0.206677 -0.303379 -0.502464
v -0.178175 -0.353354 -0.46673
v -0.169766 -0.361172 -0.461241
v -0.193115 -0.349482 -0.463538
v -0.255862 -0.270263 -0.498257
v -0.21495 -0.300201 -0.499635
v -0.2713 -0.271268 -0.485008
v -0.290558 -0.275871 -0.461507
v -0.29935 -0.270884 -0.456116
v -0.314653 -0.253349 -0.453771
v -0.328486 -0.252728 -0.437064
v -0.285427 -0.271323 -0.470719
v -0.316461 -0.288894 -0.417118
v -0.312754 -0.284072 -0.426619
v -0.309997 -0.293059 -0.4213
v -0.299576 -0.299634 -0.427998
v -0.302538 -0.302594 -0.420478
v -0.329571 -0.258865 -0.429811
v -0.28884 -0.316475 -0.417118
v -0.293022 -0.310028 -0.4213
v -0.284071 -0.312804 -0.426619
v -0.243204 -0.342742 -0.428409
v -0.234163 -0.34539 -0.433776
v -0.248561 -0.334285 -0.433897
v -0.223833 -0.338814 -0.451982
v -0.255229 -0.31253 -0.454762
v -0.270893 -0.299379 -0.456116
v -0.230004 -0.329335 -0.457736
v -0.206677 -0.338778 -0.466802
v -0.187352 -0.357135 -0.45718
v -0.169766 -0.366962 -0.453505
v -0.178649 -0.366651 -0.448669
v -0.192234 -0.360551 -0.44937
v -0.178649 -0.375638 -0.435565
v -0.178175 -0.383036 -0.425048
v -0.169766 -0.390233 -0.419439
v -0.214747 -0.328549 -0.471058
v -0.206677 -0.331636 -0.474176
v -0.206677 -0.32464 -0.481333
v -0.224489 -0.296566 -0.496009
v -0.178175 -0.359035 -0.459573
v -0.246165 -0.302265 -0.473282
v -0.271322 -0.28546 -0.470719
v -0.286173 -0.286209 -0.457325
v -0.295666 -0.280401 -0.451571
v -0.299486 -0.285314 -0.442069
v -0.301972 -0.290922 -0.433534
v -0.280386 -0.295726 -0.451571
v -0.285291 -0.299525 -0.442069
v -0.290874 -0.302009 -0.433534
v -0.275888 -0.290593 -0.461507
v -0.263705 -0.295525 -0.46627
v -0.239949 -0.311763 -0.468422
v -0.169766 -0.376661 -0.439433
v -0.169766 -0.385136 -0.42703
f 1 2 6
f 1 6 14
f 1 14 33
f 1 33 18
f 1 18 7
f 1 7 3
f 1 3 4
f 1 4 12
f 1 12 28
f 1 28 57
f 1 57 91
f 1 91 126
f 1 126 169
f 1 169 209
f 1 209 228
f 1 228 227
f 1 227 204
f 1 204 176
f 1 176 134
f 1 134 97
f 1 97 60
f 1 60 29
f 1 29 13
f 1 13 5
f 1 5 2
f 2 5 13
f 2 13 31
f 2 31 64
f 2 64 105
f 2 105 140
f 2 140 184
f 2 184 147
f 2 147 108
f 2 108 70
f 2 70 36
f 2 36 15
f 2 15 6
f 3 7 8
f 3 8 9
f 3 9 10
f 3 10 4
f 4 10 11
f 4 11 12
f 6 15 16
f 6 16 17
f 6 17 14
f 7 18 19
f 7 19 20
f 7 20 21
f 7 21 8
f 8 21 22
f 8 22 23
f 8 23 10
f 8 10 9
f 10 23 24
f 10 24 25
f 10 25 26
f 10 26 11
f 11 26 27
f 11 27 28
f 11 28 12
f 13 29 30
f 13 30 31
f 14 32 33
f 14 17 34
f 14 34 32
f 15 35 34
f 15 34 17
f 15 17 16
f 15 36 35
f 18 33 37
f 18 37 38
f 18 38 19
f 19 39 40
f 19 40 20
f 19 38 41
f 19 41 42
f 19 42 43
f 19 43 39
f 20 40 22
f 20 22 21
f 22 40 43
f 22 43 44
f 22 44 45
f 22 45 46
f 22 46 23
f 23 47 24
f 23 46 48
f 23 48 49
f 23 49 50
f 23 50 51
f 23 51 52
f 23 52 53
f 23 53 54
f 23 54 55
f 23 55 56
f 23 56 47
f 24 47 26
f 24 26 25
f 26 47 27
f 27 47 57
f 27 57 28
f 29 58 59
f 29 59 30
f 29 60 58
f 30 59 31
f 31 59 61
f 31 61 62
f 31 62 63
f 31 63 64
f 32 34 65
f 32 65 33
f 33 65 38
f 33 38 37
f 34 66 65
f 34 35 67
f 34 67 66
f 35 68 67
f 35 36 69
f 35 69 68
f 36 70 71
f 36 71 72
f 36 72 73
f 36 73 74
f 36 74 69
f 38 75 76
f 38 76 41
f 38 65 75
f 39 43 40
f 41 43 42
f 41 76 77
f 41 77 78
f 41 78 79
f 41 79 80
f 41 80 44
f 41 44 43
f 44 80 49
f 44 49 45
f 45 49 46
f 46 49 48
f 47 56 57
f 49 81 82
f 49 82 50
f 49 80 79
f 49 79 78
f 49 78 81
f 50 82 51
f 51 82 83
f 51 83 52
f 52 83 84
f 52 84 85
f 52 85 86
f 52 86 87
f 52 87 53
f 53 87 54
f 54 88 89
f 54 89 90
f 54 90 55
f 54 87 88
f 55 90 56
f 56 90 91
f 56 91 57
f 58 92 61
f 58 61 59
f 58 60 93
f 58 93 94
f 58 94 95
f 58 95 96
f 58 96 92
f 60 97 98
f 60 98 99
f 60 99 93
f 61 92 63
f 61 63 62
f 63 92 100
f 63 100 64
f 64 100 101
f 64 101 102
f 64 102 103
f 64 103 104
f 64 104 105
f 65 66 106
f 65 106 75
f 66 67 106
f 67 68 107
f 67 107 75
f 67 75 106
f 68 69 107
f 69 74 107
f 70 108 109
f 70 109 72
f 70 72 71
f 72 109 110
f 72 110 111
f 72 111 73
f 73 112 107
f 73 107 74
f 73 111 113
f 73 113 76
f 73 76 112
f 75 107 112
f 75 112 76
f 76 113 114
f 76 114 77
f 77 114 81
f 77 81 78
f 81 114 115
f 81 115 82
f 82 115 83
f 83 115 116
f 83 116 84
f 84 116 117
f 84 117 85
f 85 117 118
f 85 118 86
f 86 119 87
f 86 118 120
f 86 120 121
f 86 121 122
f 86 122 123
f 86 123 119
f 87 119 124
f 87 124 125
f 87 125 88
f 88 125 89
f 89 125 126
f 89 126 91
f 89 91 90
f 92 96 127
f 92 127 101
f 92 101 100
f 93 128 95
f 93 95 94
f 93 99 129
f 93 129 128
f 95 128 129
f 95 129 130
f 95 130 96
f 96 130 131
f 96 131 132
f 96 132 127
f 97 133 98
f 97 134 133
f 98 129 99
f 98 133 135
f 98 135 129
f 101 127 132
f 101 132 102
f 102 136 103
f 102 132 131
f 102 131 137
f 102 137 136
f 103 136 104
f 104 138 105
f 104 136 139
f 104 139 138
f 105 138 141
f 105 141 142
f 105 142 143
f 105 143 144
f 105 144 140
f 108 145 146
f 108 146 109
f 108 147 145
f 109 146 148
f 109 148 110
f 110 148 149
f 110 149 111
f 111 149 113
f 113 150 114
f 113 149 151
f 113 151 152
f 113 152 153
f 113 153 150
f 114 150 154
f 114 154 115
f 115 154 116
f 116 155 152
f 116 152 117
f 116 154 155
f 117 152 156
f 117 156 157
f 117 157 118
f 118 158 159
f 118 159 120
f 118 157 156
f 118 156 158
f 119 123 124
f 120 159 160
f 120 160 161
f 120 161 162
f 120 162 121
f 121 162 163
f 121 163 164
f 121 164 122
f 122 164 165
f 122 165 166
f 122 166 123
f 123 166 167
f 123 167 168
f 123 168 124
f 124 168 169
f 124 169 170
f 124 170 125
f 125 170 126
f 126 170 169
f 129 135 171
f 129 171 130
f 130 171 172
f 130 172 173
f 130 173 131
f 131 174 137
f 131 173 174
f 133 134 175
f 133 175 135
f 134 176 175
f 135 175 177
f 135 177 171
f 136 137 178
f 136 178 139
f 137 179 178
f 137 174 179
f 138 180 141
f 138 139 180
f 139 178 180
f 140 181 182
f 140 182 183
f 140 183 184
f 140 144 185
f 140 185 181
f 141 180 185
f 141 185 142
f 142 185 144
f 142 144 143
f 145 186 146
f 145 147 187
f 145 187 188
f 145 188 186
f 146 151 149
f 146 149 148
f 146 186 188
f 146 188 189
f 146 189 190
f 146 190 151
f 147 184 191
f 147 191 187
f 150 153 155
f 150 155 154
f 151 190 152
f 152 192 156
f 152 155 153
f 152 190 189
f 152 189 193
f 152 193 192
f 156 192 193
f 156 193 194
f 156 194 158
f 158 194 195
f 158 195 159
f 159 195 160
f 160 195 196
f 160 196 197
f 160 197 198
f 160 198 161
f 161 198 162
f 162 198 199
f 162 199 200
f 162 200 201
f 162 201 202
f 162 202 171
f 162 171 163
f 163 171 165
f 163 165 164
f 165 203 204
f 165 204 205
f 165 205 206
f 165 206 166
f 165 171 177
f 165 177 203
f 166 207 208
f 166 208 167
f 166 206 207
f 167 208 168
f 168 209 169
f 168 208 209
f 171 202 210
f 171 210 211
f 171 211 172
f 172 211 212
f 172 212 173
f 173 213 178
f 173 178 179
f 173 179 174
f 173 212 213
f 175 176 214
f 175 214 203
f 175 203 177
f 176 204 203
f 176 203 214
f 178 213 215
f 178 215 216
f 178 216 180
f 180 216 217
f 180 217 185
f 181 217 182
f 181 185 217
f 182 217 218
f 182 218 219
f 182 219 191
f 182 191 184
f 182 184 183
f 187 191 219
f 187 219 220
f 187 220 188
f 188 220 189
f 189 194 193
f 189 220 219
f 189 219 218
f 189 218 217
f 189 217 221
f 189 221 222
f 189 222 223
f 189 223 194
f 194 223 222
f 194 222 221
f 194 221 199
f 194 199 197
f 194 197 195
f 195 197 196
f 197 199 198
f 199 221 200
f 200 217 224
f 200 224 201
f 200 221 217
f 201 224 225
f 201 225 226
f 201 226 202
f 202 226 210
f 204 227 205
f 205 227 206
f 206 227 207
f 207 227 208
f 208 228 209
f 208 227 228
f 210 216 215
f 210 215 213
f 210 213 212
f 210 212 211
f 210 226 216
f 216 226 225
f 216 225 224
f 216 224 217
