v 9.4071e-05 -0.344029 -0.52857
v 9.4071e-05 -0.336665 -0.536121
v 0.00714995 -0.344029 -0.52857
v 9.4071e-05 -0.277252 -0.52857
v 0.00714995 -0.336665 -0.536121
v 9.4071e-05 -0.329528 -0.543217
v 0.0213956 -0.342169 -0.52857
v 0.0308347 -0.32807 -0.541882
v 0.0403273 -0.327442 -0.541267
v 0.136874 -0.241263 -0.52857
v 0.136874 -0.0872766 -0.611013
v 0.102532 -0.0872766 -0.619534
v 9.4071e-05 -0.136159 -0.619534
v 0.00714995 -0.329528 -0.543217
v 0.0213956 -0.328673 -0.542425
v 9.4071e-05 -0.325481 -0.546743
v 0.0783782 -0.334655 -0.52857
v 0.0783782 -0.331815 -0.531535
v 0.0205923 -0.319324 -0.550563
v 0.064146 -0.310452 -0.553225
v 0.064146 -0.318645 -0.546102
v 0.0783782 -0.317615 -0.545221
v 0.064146 -0.325758 -0.539638
v 0.136874 -0.313468 -0.52857
v 0.136874 -0.0872766 -0.619534
v 9.4071e-05 -0.1581 -0.619534
v 0.00714995 -0.321309 -0.550341
v 9.4071e-05 -0.321309 -0.550341
v 0.0830911 -0.333624 -0.52857
v 0.0783782 -0.324752 -0.538659
v 0.0926239 -0.330156 -0.529772
v 0.00714995 -0.29869 -0.5696
v 0.0213956 -0.29776 -0.568816
v 0.0499003 -0.2959 -0.567214
v 0.0499003 -0.30427 -0.56009
v 0.064146 -0.294945 -0.566412
v 0.0783782 -0.309221 -0.552344
v 0.0926239 -0.315755 -0.543565
v 0.132322 -0.315378 -0.52857
v 0.132134 -0.315127 -0.528891
v 0.136874 -0.30716 -0.534687
v 0.136874 -0.1581 -0.619534
v 9.4071e-05 -0.225153 -0.619525
v 9.4071e-05 -0.310352 -0.55969
v 0.0926239 -0.331337 -0.52857
v 0.0926239 -0.322893 -0.536896
v 0.101179 -0.328271 -0.52857
v 0.0943376 -0.330734 -0.52857
v 9.4071e-05 -0.29869 -0.5696
v 9.4071e-05 -0.295172 -0.572414
v 0.00714995 -0.291553 -0.575272
v 0.0356413 -0.289693 -0.573901
v 0.0499003 -0.288763 -0.573179
v 0.064146 -0.287833 -0.572431
v 0.0783782 -0.302108 -0.558203
v 0.0888884 -0.300676 -0.556956
v 0.0932264 -0.305803 -0.551454
v 0.101233 -0.314121 -0.542131
v 0.121129 -0.320028 -0.52857
v 0.121129 -0.317414 -0.531108
v 0.1062 -0.320379 -0.534206
v 0.136874 -0.306557 -0.535266
v 0.136874 -0.177225 -0.619525
v 0.128787 -0.183659 -0.619525
v 0.119 -0.190646 -0.619525
v 0.111114 -0.195798 -0.619525
v 0.106923 -0.197784 -0.619525
v 0.100336 -0.200749 -0.619525
v 0.0815246 -0.208867 -0.619525
v 0.0707734 -0.21329 -0.619525
v 0.0638246 -0.215778 -0.619525
v 0.0578265 -0.217211 -0.619525
v 0.0499003 -0.218769 -0.619525
v 0.0134427 -0.224474 -0.619525
v 0.00755162 -0.225153 -0.619525
v 9.4071e-05 -0.249406 -0.604735
v 0.102009 -0.327944 -0.52857
v 9.4071e-05 -0.291553 -0.575272
v 0.00714995 -0.282229 -0.582395
v 0.0213956 -0.281324 -0.581718
v 0.0356413 -0.280394 -0.581006
v 0.0499003 -0.279439 -0.580285
v 0.064146 -0.278509 -0.579546
v 0.0715098 -0.270869 -0.584398
v 0.0783782 -0.286325 -0.571176
v 0.121129 -0.29399 -0.551667
v 0.0859027 -0.285194 -0.570232
v 0.136874 -0.281449 -0.556458
v 0.110739 -0.312111 -0.540306
v 0.136874 -0.291729 -0.548239
v 0.131679 -0.300651 -0.542781
v 0.136874 -0.29399 -0.546387
v 0.136874 -0.195371 -0.610924
v 0.135374 -0.206681 -0.606062
v 0.122026 -0.206706 -0.610487
v 0.12145 -0.221835 -0.60258
v 0.10687 -0.211833 -0.611814
v 0.10687 -0.220905 -0.60681
v 0.0935879 -0.220528 -0.610176
v 0.0783782 -0.235156 -0.605421
v 0.058362 -0.22847 -0.613078
v 0.0635301 -0.233999 -0.609089
v 0.0499003 -0.236362 -0.609517
v 0.0356413 -0.237367 -0.610095
v 0.00714995 -0.249406 -0.604735
v 9.4071e-05 -0.257699 -0.599411
v 9.4071e-05 -0.282229 -0.582395
v 9.4071e-05 -0.278735 -0.584844
v 0.00714995 -0.275116 -0.587346
v 0.0213956 -0.274186 -0.586705
v 0.0499003 -0.272326 -0.585405
v 0.064146 -0.271371 -0.584755
v 0.0499003 -0.247797 -0.602385
v 0.064146 -0.246591 -0.601476
v 0.0783782 -0.244354 -0.599918
v 0.0783782 -0.251466 -0.595315
v 0.0771063 -0.264008 -0.587461
v 0.0810024 -0.269034 -0.583196
v 0.136874 -0.28723 -0.551845
v 0.0914323 -0.278232 -0.573705
v 0.10687 -0.273734 -0.572369
v 0.116362 -0.271748 -0.570873
v 0.125868 -0.269788 -0.569315
v 0.136874 -0.268431 -0.566768
v 0.136874 -0.20663 -0.605501
v 0.135374 -0.217136 -0.60055
v 0.126417 -0.227189 -0.598093
v 0.116911 -0.229224 -0.599366
v 0.10687 -0.23131 -0.600702
v 0.091767 -0.235633 -0.601877
v 0.0356413 -0.248727 -0.602963
v 0.00714995 -0.257699 -0.599411
v 9.4071e-05 -0.270039 -0.590872
v 0.00714995 -0.264837 -0.594469
v 0.0179681 -0.257021 -0.598921
v 0.0499003 -0.25491 -0.59747
v 0.10687 -0.238448 -0.596107
v 0.10695 -0.250285 -0.58845
v 0.0926239 -0.259534 -0.586286
v 0.0926239 -0.266672 -0.581612
v 0.135374 -0.26069 -0.573277
v 0.135374 -0.267802 -0.567757
v 0.136874 -0.260338 -0.573019
v 0.136874 -0.216608 -0.600239
v 0.136874 -0.225027 -0.595431
v 0.135374 -0.224248 -0.596463
v 0.136874 -0.236839 -0.58861
v 0.136874 -0.248451 -0.581318
v 0.132268 -0.244128 -0.585529
v 0.12145 -0.234452 -0.594781
v 0.121129 -0.246515 -0.587079
v 0.111743 -0.255563 -0.583731
v 0.102237 -0.257548 -0.584995
v 0.121129 -0.253653 -0.58244
v 0.136365 -0.249104 -0.581042
v 0.136874 -0.249582 -0.580543
f 1 2 5
f 1 5 3
f 1 3 7
f 1 7 17
f 1 17 29
f 1 29 45
f 1 45 48
f 1 48 47
f 1 47 77
f 1 77 59
f 1 59 39
f 1 39 24
f 1 24 10
f 1 10 4
f 1 4 13
f 1 13 26
f 1 26 43
f 1 43 76
f 1 76 106
f 1 106 133
f 1 133 108
f 1 108 107
f 1 107 78
f 1 78 50
f 1 50 49
f 1 49 44
f 1 44 28
f 1 28 16
f 1 16 6
f 1 6 2
f 2 6 14
f 2 14 5
f 3 5 8
f 3 8 9
f 3 9 7
f 4 10 11
f 4 11 12
f 4 12 13
f 5 14 15
f 5 15 8
f 6 16 14
f 7 9 18
f 7 18 17
f 8 15 19
f 8 19 20
f 8 20 21
f 8 21 9
f 9 21 22
f 9 22 23
f 9 23 18
f 10 24 41
f 10 41 62
f 10 62 92
f 10 92 90
f 10 90 119
f 10 119 88
f 10 88 124
f 10 124 143
f 10 143 156
f 10 156 148
f 10 148 147
f 10 147 145
f 10 145 144
f 10 144 125
f 10 125 93
f 10 93 63
f 10 63 42
f 10 42 25
f 10 25 11
f 11 25 12
f 12 25 42
f 12 42 26
f 12 26 13
f 14 16 27
f 14 27 15
f 15 27 19
f 16 28 27
f 17 18 29
f 18 23 30
f 18 30 31
f 18 31 29
f 19 27 32
f 19 32 33
f 19 33 34
f 19 34 35
f 19 35 20
f 20 22 21
f 20 35 34
f 20 34 36
f 20 36 22
f 22 30 23
f 22 36 37
f 22 37 38
f 22 38 30
f 24 39 40
f 24 40 41
f 26 42 75
f 26 75 43
f 27 28 44
f 27 44 32
f 29 31 45
f 30 38 46
f 30 46 31
f 31 47 48
f 31 48 45
f 31 46 47
f 32 49 50
f 32 50 51
f 32 51 52
f 32 52 53
f 32 53 54
f 32 54 33
f 32 44 49
f 33 54 34
f 34 54 36
f 36 54 37
f 37 54 55
f 37 55 56
f 37 56 38
f 38 56 57
f 38 57 58
f 38 58 46
f 39 59 40
f 40 59 60
f 40 60 41
f 41 60 61
f 41 61 62
f 42 63 64
f 42 64 65
f 42 65 66
f 42 66 67
f 42 67 68
f 42 68 69
f 42 69 70
f 42 70 71
f 42 71 72
f 42 72 73
f 42 73 74
f 42 74 75
f 43 75 105
f 43 105 76
f 46 58 47
f 47 58 77
f 50 78 51
f 51 78 107
f 51 107 79
f 51 79 80
f 51 80 52
f 52 80 81
f 52 81 53
f 53 81 82
f 53 82 83
f 53 83 54
f 54 83 84
f 54 84 85
f 54 85 55
f 55 85 56
f 56 86 57
f 56 85 87
f 56 87 88
f 56 88 86
f 57 86 58
f 58 89 61
f 58 61 77
f 58 86 90
f 58 90 91
f 58 91 89
f 59 77 60
f 60 77 61
f 61 89 62
f 62 89 91
f 62 91 92
f 63 93 64
f 64 93 94
f 64 94 65
f 65 94 95
f 65 95 66
f 66 95 96
f 66 96 67
f 67 96 97
f 67 97 68
f 68 97 98
f 68 98 69
f 69 98 99
f 69 99 70
f 70 99 100
f 70 100 71
f 71 101 72
f 71 100 102
f 71 102 101
f 72 101 73
f 73 101 103
f 73 103 74
f 74 103 104
f 74 104 75
f 75 104 105
f 76 105 132
f 76 132 106
f 79 107 108
f 79 108 109
f 79 109 110
f 79 110 111
f 79 111 80
f 80 111 112
f 80 112 81
f 81 112 84
f 81 84 82
f 82 84 83
f 84 113 114
f 84 114 115
f 84 115 116
f 84 116 117
f 84 117 118
f 84 118 87
f 84 87 85
f 84 112 113
f 86 88 119
f 86 119 90
f 87 120 121
f 87 121 122
f 87 122 123
f 87 123 88
f 87 118 120
f 88 123 124
f 90 92 91
f 93 125 94
f 94 125 126
f 94 126 95
f 95 126 96
f 96 98 97
f 96 126 127
f 96 127 128
f 96 128 129
f 96 129 98
f 98 129 130
f 98 130 100
f 98 100 99
f 100 130 115
f 100 115 114
f 100 114 102
f 101 102 103
f 102 114 103
f 103 114 113
f 103 113 104
f 104 113 131
f 104 131 105
f 105 131 132
f 106 132 133
f 108 133 109
f 109 133 134
f 109 134 135
f 109 135 110
f 110 135 111
f 111 135 136
f 111 136 112
f 112 136 113
f 113 136 135
f 113 135 132
f 113 132 131
f 115 137 138
f 115 138 116
f 115 130 129
f 115 129 128
f 115 128 137
f 116 139 118
f 116 118 117
f 116 138 139
f 118 139 140
f 118 140 120
f 120 140 121
f 121 140 141
f 121 141 122
f 122 141 123
f 123 141 142
f 123 142 124
f 124 142 141
f 124 141 143
f 125 144 126
f 126 144 145
f 126 145 146
f 126 146 127
f 127 146 147
f 127 147 148
f 127 148 149
f 127 149 150
f 127 150 128
f 128 150 137
f 132 135 134
f 132 134 133
f 137 150 138
f 138 150 151
f 138 151 152
f 138 152 153
f 138 153 139
f 139 153 140
f 140 153 152
f 140 152 154
f 140 154 141
f 141 154 155
f 141 155 156
f 141 156 143
f 145 147 146
f 148 156 155
f 148 155 149
f 149 155 154
f 149 154 151
f 149 151 150
f 151 154 152
