v -0.30072 0.0211456 -0.566322
v -0.304502 0.0035285 -0.564661
v -0.319371 0.0205738 -0.550521
v -0.296937 0.049894 -0.566322
v -0.232917 -8.06808e-05 -0.566322
v -0.322366 0.0035285 -0.549422
v -0.328697 0.0213957 -0.542388
v -0.328119 0.0308296 -0.541827
v -0.310492 0.064152 -0.553183
v -0.294993 0.0645809 -0.566322
v -0.329564 0.0035285 -0.54317
v -0.206174 0.107552 -0.566322
v -0.206174 0.182451 -0.529763
v -0.413418 -8.06808e-05 -0.31683
v -0.474548 -8.06808e-05 -0.31683
v -0.413838 0.00209912 -0.44265
v -0.33755 0.0035285 -0.535184
v -0.343618 0.0035285 -0.528957
v -0.356858 0.0186084 -0.513644
v -0.327462 0.0403171 -0.541216
v -0.31769 0.0784101 -0.545173
v -0.318688 0.064152 -0.546052
v -0.334844 0.0349034 -0.534329
v -0.332821 0.064152 -0.532473
v -0.29276 0.0773738 -0.566053
v -0.288741 0.089184 -0.566322
v -0.309284 0.0784101 -0.552304
v -0.206174 0.182451 -0.566322
v -0.369048 0.182451 -0.31683
v -0.4715 0.03267 -0.31683
v -0.473707 0.0076737 -0.31937
v -0.470738 0.00168818 -0.328967
v -0.456369 0.0035285 -0.364257
v -0.450616 0.0035285 -0.376492
v -0.435616 0.0035285 -0.406213
v -0.429179 0.0035285 -0.417862
v -0.425292 0.00713768 -0.42409
v -0.409924 0.00826332 -0.448023
v -0.40199 0.0035285 -0.460136
v -0.39671 0.0035285 -0.467267
v -0.389564 0.0035285 -0.476377
v -0.383969 0.0035285 -0.483508
v -0.377507 0.0035285 -0.491689
v -0.37199 0.0035285 -0.498649
v -0.364713 0.0035285 -0.506733
v -0.358461 0.0035285 -0.513473
v -0.370703 0.0154459 -0.498991
v -0.355755 0.0356359 -0.512472
v -0.339941 0.064152 -0.525074
v -0.324809 0.0784101 -0.538628
v -0.331849 0.0784101 -0.531496
v -0.315799 0.0926146 -0.543512
v -0.338995 0.0784101 -0.524097
v -0.302138 0.0784101 -0.558165
v -0.30072 0.088916 -0.556919
v -0.284958 0.0983499 -0.566322
v -0.252882 0.164762 -0.566322
v -0.241534 0.181772 -0.56515
v -0.257033 0.182451 -0.554209
v -0.434144 0.182451 -0.318686
v -0.441421 0.165441 -0.318344
v -0.469845 0.0452128 -0.31683
v -0.456842 0.10689 -0.329847
v -0.470134 0.0129445 -0.327404
v -0.468164 0.00778091 -0.334218
v -0.462463 0.00713768 -0.349213
v -0.455449 0.0213957 -0.362083
v -0.448199 0.0213957 -0.377713
v -0.442078 0.00533309 -0.393441
v -0.433777 0.0213957 -0.406213
v -0.428864 0.0213957 -0.415493
v -0.424398 0.0213957 -0.422625
v -0.417542 0.00826332 -0.436081
v -0.407638 0.0213957 -0.448927
v -0.399468 0.0458917 -0.456644
v -0.401071 0.0213957 -0.458891
v -0.417279 0.0213957 -0.433834
v -0.395764 0.0213957 -0.466022
v -0.388645 0.0213957 -0.475204
v -0.372174 0.0784101 -0.486609
v -0.366552 0.0784101 -0.49374
v -0.359433 0.0784101 -0.502386
v -0.360352 0.064152 -0.503411
v -0.353837 0.064152 -0.510518
v -0.345799 0.0784101 -0.516966
v -0.322944 0.0926146 -0.536845
v -0.344406 0.0926146 -0.515451
v -0.337314 0.0926146 -0.522583
v -0.330194 0.0926146 -0.529738
v -0.351499 0.0926146 -0.508149
v -0.314196 0.101244 -0.542095
v -0.294047 0.121131 -0.55162
v -0.278364 0.134317 -0.559752
v -0.269222 0.136336 -0.566322
v -0.25811 0.157776 -0.566322
v -0.271875 0.15833 -0.556626
v -0.268355 0.167836 -0.554135
v -0.263626 0.17852 -0.551766
v -0.270798 0.181361 -0.545344
v -0.297278 0.182451 -0.523364
v -0.421798 0.182451 -0.349067
v -0.427787 0.18104 -0.335976
v -0.441605 0.156311 -0.32738
v -0.454793 0.132744 -0.318759
v -0.458523 0.120345 -0.318759
v -0.460887 0.10689 -0.318784
v -0.46425 0.0356359 -0.334951
v -0.456264 0.114859 -0.328357
v -0.449355 0.10689 -0.349213
v -0.451246 0.0926146 -0.349213
v -0.460598 0.0213957 -0.349213
v -0.455712 0.0402278 -0.355465
v -0.456316 0.0307224 -0.357052
v -0.442682 0.10689 -0.365576
v -0.441658 0.0989396 -0.370338
v -0.442314 0.0894699 -0.371608
v -0.442183 0.064152 -0.37847
v -0.427393 0.0985465 -0.398765
v -0.441395 0.0213957 -0.391169
v -0.427472 0.042354 -0.413222
v -0.428102 0.0328486 -0.414272
v -0.412551 0.0926146 -0.426459
v -0.407323 0.0926146 -0.434713
v -0.410869 0.049894 -0.43801
v -0.398838 0.0553971 -0.455716
v -0.389249 0.0926146 -0.462114
v -0.383916 0.0926146 -0.469246
v -0.385177 0.0741398 -0.470784
v -0.37748 0.0926146 -0.477427
v -0.365396 0.0926146 -0.492495
v -0.370913 0.0963131 -0.485022
v -0.358224 0.0926146 -0.501043
v -0.352892 0.0784101 -0.509517
v -0.342988 0.102048 -0.513962
v -0.328645 0.101655 -0.528077
v -0.357147 0.101798 -0.499724
v -0.298776 0.141196 -0.541045
v -0.300693 0.13169 -0.54273
v -0.289844 0.149647 -0.545466
v -0.280991 0.149647 -0.552597
v -0.273898 0.149647 -0.558214
v -0.262655 0.150272 -0.566322
v -0.287217 0.161046 -0.54339
v -0.284774 0.170551 -0.541338
v -0.282121 0.180289 -0.537406
v -0.2998 0.171749 -0.527735
v -0.311753 0.182272 -0.510933
v -0.326359 0.182272 -0.496598
v -0.364923 0.182451 -0.448853
v -0.408295 0.182451 -0.377909
v -0.414652 0.181468 -0.366259
v -0.426211 0.167782 -0.353096
v -0.446176 0.136532 -0.336123
v -0.441605 0.127688 -0.35588
v -0.455055 0.124365 -0.325377
v -0.441448 0.120202 -0.361619
v -0.436929 0.10689 -0.377713
v -0.425055 0.0784101 -0.408533
v -0.428602 0.10689 -0.394124
v -0.422297 0.10689 -0.406213
v -0.424687 0.0933292 -0.405334
v -0.416964 0.0926146 -0.419328
v -0.415913 0.10689 -0.417545
v -0.396342 0.0926146 -0.451882
v -0.397314 0.0784101 -0.453347
v -0.387673 0.10689 -0.459965
v -0.382183 0.10689 -0.467072
v -0.349083 0.106658 -0.505903
v -0.339074 0.121131 -0.510103
v -0.326832 0.145823 -0.512106
v -0.304424 0.149647 -0.532253
v -0.36868 0.109517 -0.48236
v -0.340124 0.149647 -0.4965
v -0.328356 0.172249 -0.499357
v -0.330089 0.163869 -0.501189
v -0.346009 0.121131 -0.502972
v -0.301455 0.163869 -0.529396
v -0.296937 0.149647 -0.539385
v -0.314196 0.172267 -0.513644
v -0.320238 0.177002 -0.50539
v -0.332401 0.177448 -0.492055
v -0.343356 0.180289 -0.477598
v -0.356254 0.180825 -0.46165
v -0.368627 0.166353 -0.453225
v -0.373303 0.181486 -0.437253
v -0.386911 0.182451 -0.416568
v -0.402804 0.182451 -0.388092
v -0.414521 0.174018 -0.372878
v -0.426001 0.153042 -0.367261
v -0.428155 0.158277 -0.357761
v -0.44192 0.134549 -0.348358
v -0.435038 0.135389 -0.363451
v -0.429652 0.135389 -0.374489
v -0.432358 0.122292 -0.378934
v -0.427236 0.120291 -0.390241
v -0.414626 0.117307 -0.41542
v -0.411342 0.10689 -0.424652
v -0.399967 0.103371 -0.443285
v -0.395449 0.107641 -0.448389
v -0.398733 0.112876 -0.44138
v -0.385992 0.116878 -0.457621
v -0.323102 0.163869 -0.50832
v -0.315956 0.163869 -0.515378
v -0.371517 0.124901 -0.471444
v -0.366289 0.121131 -0.479503
v -0.355282 0.168675 -0.469148
v -0.370571 0.156847 -0.456107
v -0.368732 0.138194 -0.468147
v -0.384022 0.126366 -0.45491
v -0.38967 0.121417 -0.449684
v -0.40002 0.1306 -0.428999
v -0.383155 0.180289 -0.423528
v -0.399258 0.15733 -0.413686
v -0.396053 0.182451 -0.400523
v -0.41636 0.163387 -0.377664
v -0.401386 0.162797 -0.4057
v -0.427945 0.143536 -0.371364
v -0.420169 0.135389 -0.391951
v -0.427341 0.127813 -0.384502
v -0.417647 0.121685 -0.406995
v -0.412656 0.12683 -0.412245
v -0.409556 0.121685 -0.42028
v -0.401938 0.121131 -0.431856
v -0.397078 0.121131 -0.438987
v -0.396053 0.149647 -0.423186
v -0.414784 0.135389 -0.401866
f 1 2 3
f 1 3 4
f 1 4 10
f 1 10 26
f 1 26 56
f 1 56 94
f 1 94 142
f 1 142 95
f 1 95 57
f 1 57 28
f 1 28 12
f 1 12 5
f 1 5 2
f 2 6 3
f 2 5 6
f 3 6 7
f 3 7 8
f 3 8 9
f 3 9 4
f 4 9 10
f 5 11 6
f 5 12 13
f 5 13 14
f 5 14 15
f 5 15 16
f 5 16 11
f 6 11 7
f 7 11 17
f 7 17 18
f 7 18 19
f 7 19 8
f 8 20 21
f 8 21 22
f 8 22 9
f 8 19 23
f 8 23 24
f 8 24 20
f 9 22 21
f 9 21 10
f 10 25 26
f 10 21 27
f 10 27 25
f 11 16 17
f 12 28 13
f 13 29 14
f 13 28 59
f 13 59 100
f 13 100 149
f 13 149 186
f 13 186 214
f 13 214 187
f 13 187 150
f 13 150 101
f 13 101 60
f 13 60 29
f 14 29 62
f 14 62 30
f 14 30 15
f 15 30 31
f 15 31 32
f 15 32 33
f 15 33 34
f 15 34 35
f 15 35 16
f 16 35 36
f 16 36 37
f 16 37 38
f 16 38 39
f 16 39 40
f 16 40 41
f 16 41 42
f 16 42 43
f 16 43 44
f 16 44 45
f 16 45 46
f 16 46 18
f 16 18 17
f 18 46 19
f 19 46 45
f 19 45 47
f 19 47 48
f 19 48 49
f 19 49 23
f 20 50 21
f 20 24 51
f 20 51 50
f 21 50 52
f 21 52 27
f 23 49 24
f 24 49 53
f 24 53 51
f 25 27 54
f 25 54 55
f 25 55 26
f 26 55 56
f 27 52 55
f 27 55 54
f 28 57 58
f 28 58 59
f 29 60 61
f 29 61 62
f 30 62 63
f 30 63 64
f 30 64 31
f 31 64 65
f 31 65 32
f 32 65 66
f 32 66 33
f 33 66 67
f 33 67 68
f 33 68 34
f 34 68 69
f 34 69 35
f 35 70 71
f 35 71 36
f 35 69 70
f 36 71 37
f 37 71 72
f 37 72 73
f 37 73 38
f 38 74 75
f 38 75 76
f 38 76 39
f 38 73 77
f 38 77 74
f 39 76 40
f 40 76 78
f 40 78 79
f 40 79 47
f 40 47 41
f 41 47 42
f 42 47 43
f 43 47 44
f 44 47 45
f 47 80 81
f 47 81 82
f 47 82 83
f 47 83 48
f 47 79 80
f 48 84 85
f 48 85 53
f 48 53 49
f 48 83 84
f 50 86 52
f 50 51 87
f 50 87 88
f 50 88 89
f 50 89 86
f 51 53 90
f 51 90 87
f 52 91 55
f 52 86 91
f 53 85 90
f 55 91 92
f 55 92 93
f 55 93 56
f 56 93 94
f 57 95 96
f 57 96 97
f 57 97 98
f 57 98 59
f 57 59 58
f 59 98 99
f 59 99 100
f 60 101 102
f 60 102 61
f 61 102 103
f 61 103 104
f 61 104 62
f 62 104 105
f 62 105 106
f 62 106 63
f 63 107 64
f 63 106 108
f 63 108 109
f 63 109 110
f 63 110 107
f 64 107 66
f 64 66 65
f 66 107 111
f 66 111 112
f 66 112 113
f 66 113 67
f 67 113 114
f 67 114 115
f 67 115 116
f 67 116 68
f 68 116 117
f 68 117 118
f 68 118 119
f 68 119 69
f 69 119 70
f 70 119 120
f 70 120 121
f 70 121 71
f 71 121 122
f 71 122 72
f 72 122 123
f 72 123 124
f 72 124 77
f 72 77 73
f 74 77 125
f 74 125 75
f 75 125 126
f 75 126 76
f 76 126 78
f 77 124 125
f 78 126 127
f 78 127 128
f 78 128 79
f 79 128 80
f 80 129 81
f 80 128 127
f 80 127 129
f 81 130 82
f 81 129 131
f 81 131 130
f 82 130 132
f 82 132 133
f 82 133 84
f 82 84 83
f 84 133 85
f 85 133 90
f 86 89 134
f 86 134 135
f 86 135 91
f 87 90 136
f 87 136 134
f 87 134 88
f 88 134 89
f 90 133 132
f 90 132 136
f 91 137 138
f 91 138 139
f 91 139 140
f 91 140 92
f 91 135 137
f 92 140 93
f 93 140 141
f 93 141 94
f 94 141 142
f 95 142 96
f 96 142 141
f 96 141 140
f 96 140 143
f 96 143 144
f 96 144 97
f 97 144 99
f 97 99 98
f 99 144 145
f 99 145 100
f 100 145 144
f 100 144 146
f 100 146 147
f 100 147 148
f 100 148 149
f 101 150 151
f 101 151 152
f 101 152 103
f 101 103 102
f 103 152 153
f 103 153 104
f 104 153 154
f 104 154 155
f 104 155 105
f 105 155 108
f 105 108 106
f 107 110 112
f 107 112 111
f 108 155 156
f 108 156 114
f 108 114 109
f 109 114 112
f 109 112 110
f 112 114 113
f 114 156 157
f 114 157 115
f 115 157 116
f 116 157 118
f 116 118 117
f 118 158 120
f 118 120 119
f 118 157 159
f 118 159 160
f 118 160 161
f 118 161 158
f 120 158 162
f 120 162 121
f 121 162 122
f 122 162 163
f 122 163 123
f 123 163 164
f 123 164 165
f 123 165 124
f 124 165 125
f 125 165 126
f 126 166 127
f 126 165 164
f 126 164 166
f 127 166 131
f 127 131 129
f 130 131 132
f 131 166 167
f 131 167 136
f 131 136 132
f 134 168 169
f 134 169 170
f 134 170 135
f 134 136 168
f 135 170 171
f 135 171 137
f 136 167 172
f 136 172 173
f 136 173 174
f 136 174 175
f 136 175 176
f 136 176 169
f 136 169 168
f 137 171 177
f 137 177 178
f 137 178 143
f 137 143 139
f 137 139 138
f 139 143 140
f 143 178 146
f 143 146 144
f 146 177 179
f 146 179 147
f 146 178 177
f 147 179 180
f 147 180 148
f 148 180 174
f 148 174 181
f 148 181 182
f 148 182 183
f 148 183 149
f 149 183 184
f 149 184 185
f 149 185 186
f 150 187 188
f 150 188 151
f 151 188 189
f 151 189 190
f 151 190 152
f 152 190 154
f 152 154 191
f 152 191 153
f 153 191 154
f 154 190 192
f 154 192 193
f 154 193 194
f 154 194 156
f 154 156 155
f 156 194 157
f 157 194 195
f 157 195 159
f 158 161 160
f 158 160 162
f 159 195 160
f 160 196 163
f 160 163 162
f 160 195 196
f 163 196 197
f 163 197 164
f 164 197 198
f 164 198 166
f 166 198 199
f 166 199 200
f 166 200 201
f 166 201 167
f 167 201 172
f 169 176 175
f 169 175 202
f 169 202 170
f 170 202 179
f 170 179 203
f 170 203 171
f 171 203 177
f 172 201 204
f 172 204 205
f 172 205 181
f 172 181 173
f 173 181 174
f 174 180 179
f 174 179 202
f 174 202 175
f 177 203 179
f 181 205 204
f 181 204 206
f 181 206 182
f 182 206 183
f 183 207 184
f 183 206 208
f 183 208 201
f 183 201 207
f 184 207 209
f 184 209 210
f 184 210 185
f 185 210 211
f 185 211 212
f 185 212 186
f 186 213 214
f 186 212 213
f 187 215 188
f 187 214 216
f 187 216 215
f 188 215 193
f 188 193 217
f 188 217 189
f 189 217 192
f 189 192 190
f 192 217 193
f 193 215 216
f 193 216 218
f 193 218 219
f 193 219 195
f 193 195 194
f 195 219 220
f 195 220 196
f 196 220 221
f 196 221 213
f 196 213 222
f 196 222 223
f 196 223 200
f 196 200 197
f 197 200 198
f 198 200 199
f 200 223 224
f 200 224 210
f 200 210 201
f 201 210 209
f 201 209 207
f 201 208 204
f 204 208 206
f 210 224 211
f 211 224 223
f 211 223 222
f 211 222 213
f 211 213 225
f 211 225 212
f 212 225 213
f 213 216 214
f 213 221 216
f 216 221 220
f 216 220 226
f 216 226 218
f 218 226 219
f 219 226 220
