v 8.06808e-05 0.294581 -0.510964
v 8.06808e-05 0.232875 -0.566346
v 8.06808e-05 0.294581 -0.566346
v -0.206174 0.294581 -0.425218
v -0.206174 0.107596 -0.566332
v -0.206114 0.107651 -0.566346
v -0.0664838 0.294581 -0.566346
v -0.206174 0.294581 -0.510453
v -0.206174 0.107871 -0.566346
v -0.0763362 0.292641 -0.566346
v -0.0783955 0.294581 -0.564384
v -0.206174 0.287864 -0.516144
v -0.194808 0.294581 -0.517802
v -0.206174 0.221014 -0.566346
v -0.0783955 0.292202 -0.566346
v -0.0800308 0.294581 -0.564011
v -0.206174 0.278162 -0.524212
v -0.192143 0.294581 -0.519501
v -0.18762 0.286838 -0.528826
v -0.206174 0.227274 -0.562105
v -0.205589 0.221471 -0.566346
v -0.0891766 0.288724 -0.566346
v -0.0911956 0.294581 -0.561041
v -0.178151 0.28186 -0.538979
v -0.203307 0.273695 -0.529737
v -0.206174 0.267051 -0.533384
v -0.179645 0.294581 -0.527348
v -0.17054 0.284752 -0.541355
v -0.206174 0.239374 -0.553857
v -0.190527 0.233059 -0.566346
v -0.198482 0.226945 -0.566346
v -0.0983628 0.284935 -0.566346
v -0.0945874 0.294581 -0.559936
v -0.186328 0.27159 -0.542184
v -0.206174 0.264598 -0.535401
v -0.175264 0.294581 -0.530014
v -0.167249 0.294581 -0.534241
v -0.161051 0.287205 -0.5434
v -0.158325 0.271828 -0.556648
v -0.167835 0.268332 -0.554161
v -0.178151 0.274739 -0.544339
v -0.206174 0.249222 -0.547061
v -0.193637 0.250027 -0.553153
v -0.179787 0.241296 -0.566346
v -0.177324 0.248782 -0.562533
v -0.135208 0.269668 -0.566346
v -0.118431 0.294581 -0.552089
v -0.201955 0.258374 -0.54293
v -0.195817 0.267875 -0.539242
v -0.206174 0.250704 -0.546025
v -0.206174 0.262896 -0.536755
v -0.157033 0.294581 -0.538441
v -0.149644 0.294581 -0.541411
v -0.149644 0.289804 -0.545486
v -0.149644 0.280963 -0.552614
v -0.15778 0.258063 -0.566346
v -0.163413 0.263609 -0.559687
v -0.149644 0.273842 -0.55825
v -0.149785 0.262914 -0.566346
v -0.163837 0.253523 -0.566346
v -0.1663 0.251638 -0.566346
v -0.178515 0.263609 -0.551799
v -0.13749 0.268717 -0.566346
v -0.138358 0.283324 -0.554465
v -0.121136 0.294014 -0.551647
v -0.122025 0.294581 -0.550901
v -0.137389 0.294581 -0.545735
v -0.134037 0.294581 -0.546881
f 1 2 3
f 1 3 7
f 1 7 11
f 1 11 16
f 1 16 23
f 1 23 33
f 1 33 47
f 1 47 66
f 1 66 68
f 1 68 67
f 1 67 53
f 1 53 52
f 1 52 37
f 1 37 36
f 1 36 27
f 1 27 18
f 1 18 13
f 1 13 8
f 1 8 4
f 1 4 5
f 1 5 2
f 2 5 6
f 2 6 9
f 2 9 14
f 2 14 21
f 2 21 31
f 2 31 30
f 2 30 44
f 2 44 61
f 2 61 60
f 2 60 56
f 2 56 59
f 2 59 63
f 2 63 46
f 2 46 32
f 2 32 22
f 2 22 15
f 2 15 10
f 2 10 7
f 2 7 3
f 4 8 12
f 4 12 17
f 4 17 26
f 4 26 35
f 4 35 51
f 4 51 50
f 4 50 42
f 4 42 29
f 4 29 20
f 4 20 14
f 4 14 9
f 4 9 5
f 5 9 6
f 7 10 11
f 8 13 12
f 10 15 11
f 11 15 16
f 12 13 18
f 12 18 19
f 12 19 17
f 14 20 21
f 15 22 16
f 16 22 23
f 17 19 24
f 17 24 25
f 17 25 26
f 18 27 28
f 18 28 24
f 18 24 19
f 20 29 30
f 20 30 31
f 20 31 21
f 22 32 33
f 22 33 23
f 24 28 34
f 24 34 35
f 24 35 26
f 24 26 25
f 27 36 28
f 28 36 37
f 28 37 38
f 28 38 39
f 28 39 40
f 28 40 41
f 28 41 34
f 29 42 34
f 29 34 41
f 29 41 43
f 29 43 30
f 30 43 45
f 30 45 44
f 32 46 33
f 33 46 47
f 34 48 49
f 34 49 35
f 34 42 50
f 34 50 48
f 35 49 51
f 37 52 38
f 38 52 53
f 38 53 54
f 38 54 55
f 38 55 39
f 39 56 57
f 39 57 40
f 39 55 58
f 39 58 59
f 39 59 56
f 40 57 60
f 40 60 61
f 40 61 45
f 40 45 62
f 40 62 41
f 41 62 43
f 43 62 45
f 44 45 61
f 46 63 55
f 46 55 64
f 46 64 47
f 47 65 66
f 47 64 65
f 48 50 51
f 48 51 49
f 53 67 54
f 54 67 68
f 54 68 55
f 55 68 66
f 55 66 65
f 55 65 64
f 55 63 58
f 56 60 57
f 58 63 59
