v -0.163249 0.000197035 0.492541
v -0.163249 0.00712998 0.492541
v -0.106036 0.000197035 0.492541
v -0.199774 0.000197035 0.71159
v -0.16141 0.0213791 0.492541
v -0.199774 0.00193898 0.71159
v -0.106318 0.000197035 0.498632
v -0.0844666 0.0638129 0.492541
v -0.0844666 0.0649625 0.505973
v -0.0844666 0.0674361 0.534464
v -0.0844666 0.0686903 0.54872
v -0.199774 0.000197035 0.712995
v -0.159446 0.0356456 0.492541
v -0.199774 0.00193898 0.712995
v -0.191026 0.0498947 0.705477
v -0.193464 0.0356456 0.705477
v -0.106668 0.000197035 0.505973
v -0.0844666 0.0722787 0.575917
v -0.0844666 0.139901 0.492541
v -0.193487 0.000197035 0.715963
v -0.157595 0.0448779 0.492541
v -0.193487 0.00686868 0.715963
v -0.190078 0.0356456 0.716521
v -0.189006 0.0498947 0.716208
v -0.186839 0.0641438 0.714312
v -0.185338 0.0714252 0.712683
v -0.185338 0.0714252 0.712371
v -0.186974 0.0637954 0.706748
v -0.107007 0.000197035 0.512889
v -0.110077 0.000197035 0.562977
v -0.109467 0.000197035 0.555659
v -0.108892 0.000197035 0.54872
v -0.108135 0.000197035 0.534464
v -0.107752 0.000197035 0.527146
v -0.0844666 0.0862665 0.633323
v -0.0938686 0.133195 0.492541
v -0.100979 0.171831 0.709626
v -0.0844666 0.178137 0.706012
v -0.178148 0.000197035 0.720447
v -0.154694 0.0520025 0.492541
v -0.178148 0.0356456 0.720447
v -0.191004 0.0213791 0.716521
v -0.178148 0.0498947 0.720113
v -0.173757 0.0926246 0.71536
v -0.178148 0.0641438 0.718238
v -0.171827 0.100951 0.713665
v -0.171827 0.100951 0.709626
v -0.144615 0.0757278 0.492541
v -0.149355 0.064858 0.492541
v -0.14966 0.0641438 0.492541
v -0.112402 0.000197035 0.578572
v -0.0844666 0.0911266 0.647981
v -0.0844666 0.10055 0.676294
v -0.0948506 0.132445 0.492541
v -0.132899 0.146102 0.705477
v -0.100979 0.171831 0.713665
v -0.103067 0.12614 0.492541
v -0.105054 0.124607 0.492541
v -0.0844666 0.177806 0.710854
v -0.163893 0.000197035 0.720447
v -0.163893 0.0783929 0.720447
v -0.163893 0.0926246 0.719287
v -0.16369 0.106177 0.716007
v -0.158802 0.116646 0.714579
v -0.146093 0.132881 0.705477
v -0.123937 0.105933 0.492541
v -0.133215 0.0938614 0.492541
v -0.140698 0.0833749 0.492541
v -0.141071 0.0828523 0.492541
v -0.141274 0.0824517 0.492541
v -0.116623 0.000197035 0.605725
v -0.0844666 0.111124 0.705521
v -0.140021 0.140006 0.705477
v -0.132323 0.145649 0.71516
v -0.116668 0.158801 0.714579
v -0.105946 0.12391 0.492541
v -0.115867 0.115845 0.492541
v -0.106194 0.163679 0.716007
v -0.0926497 0.173747 0.71536
v -0.0844666 0.176203 0.715583
v -0.0844666 0.12931 0.719399
v -0.0844666 0.135389 0.720068
v -0.0844666 0.143559 0.720447
v -0.148283 0.000197035 0.716208
v -0.135405 0.106891 0.720447
v -0.135405 0.12114 0.720403
v -0.149637 0.106891 0.719956
v -0.1501 0.121297 0.716877
v -0.145653 0.132306 0.71516
v -0.0844666 0.113789 0.712683
v -0.120077 0.000197035 0.626898
v -0.136409 0.136382 0.717234
v -0.121307 0.150091 0.716877
v -0.0926497 0.163888 0.719287
v -0.0844666 0.1715 0.717458
v -0.0844666 0.121384 0.716788
v -0.0844666 0.157808 0.720447
v -0.142922 0.000197035 0.712549
v -0.0926497 0.149638 0.720447
v -0.121149 0.135389 0.720403
v -0.0844666 0.114294 0.71333
v -0.140348 0.000197035 0.706748
v -0.136003 0.000197035 0.69122
v -0.130641 0.000197035 0.671497
v -0.128237 0.000197035 0.66264
v -0.127301 0.000197035 0.659181
v -0.1244 0.000197035 0.648472
v -0.122797 0.000197035 0.641132
v -0.121296 0.000197035 0.634216
v -0.106894 0.149638 0.719956
v -0.0844666 0.163888 0.719934
v -0.0844666 0.11743 0.715316
v -0.142639 0.000197035 0.712348
v -0.14238 0.000197035 0.711724
f 1 2 5
f 1 5 13
f 1 13 21
f 1 21 40
f 1 40 50
f 1 50 49
f 1 49 48
f 1 48 70
f 1 70 69
f 1 69 68
f 1 68 67
f 1 67 66
f 1 66 77
f 1 77 76
f 1 76 58
f 1 58 57
f 1 57 54
f 1 54 36
f 1 36 19
f 1 19 8
f 1 8 3
f 1 3 7
f 1 7 17
f 1 17 29
f 1 29 34
f 1 34 33
f 1 33 32
f 1 32 31
f 1 31 30
f 1 30 51
f 1 51 71
f 1 71 91
f 1 91 109
f 1 109 108
f 1 108 107
f 1 107 106
f 1 106 105
f 1 105 104
f 1 104 103
f 1 103 102
f 1 102 114
f 1 114 113
f 1 113 98
f 1 98 84
f 1 84 60
f 1 60 39
f 1 39 20
f 1 20 12
f 1 12 4
f 1 4 6
f 1 6 2
f 2 6 5
f 3 8 9
f 3 9 10
f 3 10 11
f 3 11 7
f 4 12 14
f 4 14 6
f 5 6 13
f 6 14 15
f 6 15 16
f 6 16 13
f 7 11 18
f 7 18 17
f 8 19 38
f 8 38 59
f 8 59 80
f 8 80 95
f 8 95 111
f 8 111 97
f 8 97 83
f 8 83 82
f 8 82 81
f 8 81 96
f 8 96 112
f 8 112 101
f 8 101 90
f 8 90 72
f 8 72 53
f 8 53 52
f 8 52 35
f 8 35 18
f 8 18 11
f 8 11 10
f 8 10 9
f 12 20 22
f 12 22 14
f 13 16 15
f 13 15 21
f 14 22 23
f 14 23 24
f 14 24 25
f 14 25 15
f 15 25 26
f 15 26 27
f 15 27 28
f 15 28 21
f 17 18 29
f 18 30 31
f 18 31 32
f 18 32 33
f 18 33 34
f 18 34 29
f 18 35 30
f 19 36 37
f 19 37 38
f 20 39 41
f 20 41 22
f 21 28 27
f 21 27 40
f 22 41 42
f 22 42 23
f 23 42 41
f 23 41 43
f 23 43 24
f 24 44 25
f 24 43 45
f 24 45 44
f 25 44 26
f 26 44 46
f 26 46 47
f 26 47 27
f 27 47 48
f 27 48 49
f 27 49 50
f 27 50 40
f 30 35 52
f 30 52 53
f 30 53 51
f 36 54 37
f 37 55 56
f 37 56 38
f 37 54 57
f 37 57 58
f 37 58 55
f 38 56 59
f 39 60 83
f 39 83 97
f 39 97 99
f 39 99 85
f 39 85 61
f 39 61 41
f 41 61 43
f 43 61 62
f 43 62 45
f 44 45 62
f 44 62 63
f 44 63 46
f 46 63 64
f 46 64 65
f 46 65 47
f 47 65 66
f 47 66 67
f 47 67 68
f 47 68 69
f 47 69 70
f 47 70 48
f 51 53 71
f 53 72 71
f 55 73 74
f 55 74 75
f 55 75 56
f 55 58 76
f 55 76 77
f 55 77 73
f 56 75 78
f 56 78 79
f 56 79 80
f 56 80 59
f 60 81 82
f 60 82 83
f 60 84 81
f 61 85 86
f 61 86 87
f 61 87 62
f 62 87 88
f 62 88 63
f 63 88 89
f 63 89 64
f 64 89 65
f 65 89 73
f 65 73 77
f 65 77 66
f 71 72 90
f 71 90 91
f 73 89 74
f 74 89 92
f 74 92 93
f 74 93 78
f 74 78 75
f 78 93 94
f 78 94 79
f 79 94 95
f 79 95 80
f 81 84 96
f 84 98 96
f 85 99 86
f 86 100 92
f 86 92 87
f 86 99 100
f 87 92 88
f 88 92 89
f 90 101 102
f 90 102 103
f 90 103 104
f 90 104 105
f 90 105 106
f 90 106 107
f 90 107 108
f 90 108 109
f 90 109 91
f 92 100 110
f 92 110 94
f 92 94 93
f 94 110 111
f 94 111 95
f 96 98 112
f 97 111 110
f 97 110 100
f 97 100 99
f 98 113 112
f 101 113 114
f 101 114 102
f 101 112 113
