v 8.06808e-05 0.313815 -0.71216
v 8.06808e-05 0.313815 -0.713029
v -0.00213159 0.313815 -0.71216
v 8.06808e-05 0.230363 -0.61606
v 8.06808e-05 0.312279 -0.713754
v -0.00213159 0.313815 -0.713029
v -0.0189694 0.229073 -0.61606
v -0.00723208 0.230363 -0.61606
v -0.0877032 0.300173 -0.711323
v -0.0783932 0.301402 -0.709708
v -0.0641364 0.302631 -0.708257
v 8.06808e-05 0.151797 -0.61606
v 8.06808e-05 0.307516 -0.715992
v -0.00698627 0.307516 -0.715992
v -0.0499103 0.303399 -0.716493
v -0.0641364 0.302631 -0.716186
v -0.0783932 0.301402 -0.715154
v -0.0877032 0.300173 -0.713806
v -0.0313826 0.227444 -0.61606
v -0.0863205 0.212788 -0.61606
v -0.0765189 0.21666 -0.61606
v -0.0635526 0.22133 -0.61606
v -0.0632454 0.221422 -0.61606
v -0.157543 0.27129 -0.711823
v -0.118183 0.286745 -0.710372
v -0.0533824 0.224003 -0.61606
v -0.0499103 0.224618 -0.61606
v 8.06808e-05 -8.06808e-05 -0.619749
v -0.151797 -8.06808e-05 -0.61606
v 8.06808e-05 0.292153 -0.720447
v -0.0356535 0.292153 -0.720447
v -0.0499103 0.292153 -0.720406
v -0.0641364 0.292153 -0.7201
v -0.0783932 0.292153 -0.719078
v -0.106907 0.288896 -0.716033
v -0.118183 0.286745 -0.714562
v -0.157543 0.27129 -0.713346
v -0.149677 0.273072 -0.709749
v -0.106077 0.204154 -0.61606
v -0.21414 0.228305 -0.712232
v -0.173244 0.258232 -0.710628
v -0.13327 0.187071 -0.61606
v -0.123069 0.194445 -0.61606
v -0.115479 0.19973 -0.61606
v 8.06808e-05 -8.06808e-05 -0.720447
v -0.230363 -8.06808e-05 -0.61606
v -0.09265 0.277896 -0.720447
v -0.13542 0.26364 -0.720335
v -0.106907 0.277896 -0.719957
v -0.149677 0.26364 -0.718935
v -0.13542 0.27593 -0.716421
v -0.149677 0.273072 -0.715011
v -0.16292 0.26324 -0.715675
v -0.173244 0.258232 -0.714368
v -0.21414 0.228305 -0.712968
v -0.106907 0.203786 -0.61606
v -0.228305 0.21414 -0.712232
v -0.219671 0.219671 -0.709616
v -0.16292 0.16292 -0.61606
v -0.155884 0.169772 -0.61606
v -0.188945 0.245081 -0.709667
v -0.292153 -8.06808e-05 -0.720447
v -0.230363 0.00723208 -0.61606
v -0.313815 -8.06808e-05 -0.71216
v -0.149677 0.249383 -0.720447
v -0.192386 0.2209 -0.720447
v -0.178129 0.235157 -0.720294
v -0.163873 0.249383 -0.719803
v -0.206643 0.2209 -0.718751
v -0.178068 0.249659 -0.716687
v -0.188945 0.245081 -0.715022
v -0.219671 0.219671 -0.714603
v -0.228305 0.21414 -0.712968
v -0.206643 0.23107 -0.714838
v -0.27129 0.157543 -0.711823
v -0.258232 0.173244 -0.710628
v -0.245081 0.188945 -0.709667
v -0.169772 0.155884 -0.61606
v -0.307516 -8.06808e-05 -0.715992
v -0.292153 0.0356535 -0.720447
v -0.229073 0.0189694 -0.61606
v -0.313815 0.00213159 -0.71216
v -0.313815 -8.06808e-05 -0.713029
v -0.2209 0.192386 -0.720447
v -0.193185 0.235986 -0.717188
v -0.2209 0.206643 -0.718751
v -0.23107 0.206643 -0.714838
v -0.245081 0.188945 -0.715022
v -0.258232 0.173244 -0.714368
v -0.27129 0.157543 -0.713346
v -0.300173 0.0877032 -0.711323
v -0.286745 0.118183 -0.710372
v -0.273072 0.149677 -0.709749
v -0.19973 0.115479 -0.61606
v -0.194445 0.123069 -0.61606
v -0.187071 0.13327 -0.61606
v -0.312279 -8.06808e-05 -0.713754
v -0.307516 0.00698627 -0.715992
v -0.292153 0.0499103 -0.720406
v -0.277896 0.09265 -0.720447
v -0.227444 0.0313826 -0.61606
v -0.302631 0.0641364 -0.708257
v -0.301402 0.0783932 -0.709708
v -0.313815 0.00213159 -0.713029
v -0.249383 0.149677 -0.720447
v -0.26364 0.13542 -0.720335
v -0.235157 0.178129 -0.720294
v -0.249383 0.163873 -0.719803
v -0.26364 0.149677 -0.718935
v -0.249659 0.178068 -0.716687
v -0.235986 0.193185 -0.717188
v -0.26324 0.16292 -0.715675
v -0.273072 0.149677 -0.715011
v -0.286745 0.118183 -0.714562
v -0.300173 0.0877032 -0.713806
v -0.221422 0.0632454 -0.61606
v -0.22133 0.0635526 -0.61606
v -0.21666 0.0765189 -0.61606
v -0.212788 0.0863205 -0.61606
v -0.204154 0.106077 -0.61606
v -0.203786 0.106907 -0.61606
v -0.303399 0.0499103 -0.716493
v -0.292153 0.0641364 -0.7201
v -0.224618 0.0499103 -0.61606
v -0.224003 0.0533824 -0.61606
v -0.301402 0.0783932 -0.715154
v -0.302631 0.0641364 -0.716186
v -0.277896 0.106907 -0.719957
v -0.292153 0.0783932 -0.719078
v -0.288896 0.106907 -0.716033
v -0.27593 0.13542 -0.716421
f 1 2 6
f 1 6 3
f 1 3 8
f 1 8 4
f 1 4 12
f 1 12 28
f 1 28 45
f 1 45 30
f 1 30 13
f 1 13 5
f 1 5 2
f 2 5 6
f 3 7 8
f 3 6 18
f 3 18 9
f 3 9 10
f 3 10 11
f 3 11 7
f 4 8 7
f 4 7 19
f 4 19 27
f 4 27 26
f 4 26 23
f 4 23 22
f 4 22 21
f 4 21 20
f 4 20 39
f 4 39 56
f 4 56 44
f 4 44 43
f 4 43 42
f 4 42 60
f 4 60 59
f 4 59 78
f 4 78 96
f 4 96 95
f 4 95 94
f 4 94 121
f 4 121 120
f 4 120 119
f 4 119 118
f 4 118 117
f 4 117 116
f 4 116 125
f 4 125 124
f 4 124 101
f 4 101 81
f 4 81 63
f 4 63 46
f 4 46 29
f 4 29 12
f 5 13 14
f 5 14 6
f 6 14 15
f 6 15 16
f 6 16 17
f 6 17 18
f 7 11 19
f 9 20 21
f 9 21 22
f 9 22 23
f 9 23 10
f 9 18 37
f 9 37 24
f 9 24 25
f 9 25 20
f 10 23 26
f 10 26 27
f 10 27 11
f 11 27 19
f 12 29 28
f 13 30 31
f 13 31 14
f 14 31 32
f 14 32 33
f 14 33 15
f 15 33 16
f 16 33 34
f 16 34 17
f 17 34 35
f 17 35 18
f 18 35 36
f 18 36 37
f 20 25 38
f 20 38 39
f 24 38 25
f 24 37 55
f 24 55 40
f 24 40 41
f 24 41 42
f 24 42 43
f 24 43 44
f 24 44 38
f 28 29 46
f 28 46 64
f 28 64 83
f 28 83 97
f 28 97 79
f 28 79 62
f 28 62 45
f 30 45 62
f 30 62 80
f 30 80 100
f 30 100 105
f 30 105 84
f 30 84 66
f 30 66 65
f 30 65 47
f 30 47 31
f 31 47 32
f 32 47 33
f 33 47 48
f 33 48 49
f 33 49 34
f 34 49 50
f 34 50 35
f 35 50 51
f 35 51 52
f 35 52 36
f 36 52 37
f 37 52 53
f 37 53 54
f 37 54 55
f 38 44 56
f 38 56 39
f 40 55 73
f 40 73 57
f 40 57 58
f 40 58 59
f 40 59 60
f 40 60 61
f 40 61 41
f 41 61 60
f 41 60 42
f 46 63 82
f 46 82 64
f 47 65 48
f 48 65 66
f 48 66 67
f 48 67 68
f 48 68 50
f 48 50 49
f 50 52 51
f 50 68 69
f 50 69 70
f 50 70 53
f 50 53 52
f 53 70 71
f 53 71 54
f 54 71 55
f 55 72 73
f 55 71 74
f 55 74 72
f 57 73 90
f 57 90 75
f 57 75 76
f 57 76 77
f 57 77 78
f 57 78 59
f 57 59 58
f 62 79 98
f 62 98 80
f 63 81 82
f 64 82 104
f 64 104 83
f 66 69 67
f 66 84 86
f 66 86 69
f 67 69 68
f 69 74 85
f 69 85 70
f 69 86 72
f 69 72 74
f 70 85 71
f 71 85 74
f 72 86 87
f 72 87 73
f 73 87 88
f 73 88 89
f 73 89 90
f 75 90 115
f 75 115 91
f 75 91 92
f 75 92 93
f 75 93 94
f 75 94 95
f 75 95 96
f 75 96 76
f 76 96 78
f 76 78 77
f 79 97 98
f 80 98 99
f 80 99 100
f 81 101 102
f 81 102 82
f 82 102 103
f 82 103 91
f 82 91 115
f 82 115 104
f 83 104 97
f 84 105 106
f 84 106 107
f 84 107 86
f 86 107 108
f 86 108 109
f 86 109 110
f 86 110 111
f 86 111 87
f 87 111 88
f 88 111 110
f 88 110 112
f 88 112 89
f 89 112 90
f 90 113 114
f 90 114 115
f 90 112 113
f 91 103 116
f 91 116 117
f 91 117 118
f 91 118 119
f 91 119 92
f 92 119 93
f 93 119 120
f 93 120 121
f 93 121 94
f 97 104 98
f 98 104 122
f 98 122 123
f 98 123 99
f 99 123 100
f 100 123 106
f 100 106 105
f 101 124 102
f 102 124 103
f 103 124 125
f 103 125 116
f 104 115 126
f 104 126 127
f 104 127 122
f 106 123 128
f 106 128 109
f 106 109 108
f 106 108 107
f 109 112 110
f 109 128 129
f 109 129 130
f 109 130 131
f 109 131 113
f 109 113 112
f 113 131 130
f 113 130 114
f 114 130 115
f 115 130 126
f 122 127 123
f 123 127 129
f 123 129 128
f 126 130 129
f 126 129 127
