v -0.0515139 0.0921365 0.477431
v -0.0517436 0.0921365 0.47492
v -0.0516 0.0921365 0.491682
v -0.106008 4.08183e-05 0.491682
v -0.105979 4.08183e-05 0.477431
v -0.106295 4.08183e-05 0.470282
v -0.106611 4.08183e-05 0.463179
v -0.107315 4.08183e-05 0.448928
v -0.107688 4.08183e-05 0.441779
v -0.108061 4.08183e-05 0.434676
v -0.108822 4.08183e-05 0.420425
v -0.109368 4.08183e-05 0.413276
v -0.109914 4.08183e-05 0.406173
v -0.0532944 0.0921365 0.458791
v -0.0516575 0.0921365 0.492361
v -0.106037 4.08183e-05 0.492519
v -0.110833 4.08183e-05 0.399025
v -0.0570423 0.0921365 0.420855
v -0.0516718 0.0921365 0.492519
v -0.163245 4.08183e-05 0.492519
v -0.111752 4.08183e-05 0.391922
v -0.058392 0.0921365 0.411195
v -0.134425 0.0921365 0.492519
v -0.163245 0.00712718 0.492519
v -0.198181 4.08183e-05 0.261419
v -0.114035 4.08183e-05 0.377716
v -0.120971 4.08183e-05 0.334939
v -0.059268 0.0921365 0.406173
v -0.141059 0.0828503 0.492519
v -0.17535 0.0921365 0.261419
v -0.163144 0.00794761 0.492519
v -0.197937 0.00780336 0.261419
v -0.198181 0.00568466 0.261419
v -0.140069 4.08183e-05 0.261419
v -0.122478 4.08183e-05 0.32779
v -0.061465 0.0921365 0.396378
v -0.124 4.08183e-05 0.320687
v -0.144606 0.0757188 0.492519
v -0.105319 0.0921365 0.261419
v -0.18151 0.0774408 0.261419
v -0.149661 0.0641336 0.492519
v -0.161407 0.021381 0.492519
v -0.196229 0.021381 0.261419
v -0.139853 4.08183e-05 0.262166
v -0.104802 0.0921365 0.262708
v -0.104716 0.0921365 0.262935
v -0.0943625 0.0921365 0.290216
v -0.0863356 0.0921365 0.31139
v -0.0826452 0.0921365 0.321207
v -0.0779066 0.0921365 0.335391
v -0.125537 4.08183e-05 0.314896
v -0.127073 4.08183e-05 0.309173
v -0.128035 4.08183e-05 0.305599
v -0.187254 0.0636107 0.261419
v -0.154428 0.0526296 0.492519
v -0.15944 0.0356349 0.492519
v -0.194376 0.0356349 0.261419
v -0.139423 4.08183e-05 0.263681
v -0.191806 0.0497716 0.261419
v -0.157587 0.044867 0.492519
v -0.154859 0.0515747 0.492519
f 1 2 14
f 1 14 18
f 1 18 22
f 1 22 28
f 1 28 36
f 1 36 50
f 1 50 49
f 1 49 48
f 1 48 47
f 1 47 46
f 1 46 45
f 1 45 39
f 1 39 30
f 1 30 23
f 1 23 19
f 1 19 15
f 1 15 3
f 1 3 4
f 1 4 5
f 1 5 6
f 1 6 7
f 1 7 8
f 1 8 9
f 1 9 10
f 1 10 11
f 1 11 12
f 1 12 13
f 1 13 2
f 2 13 14
f 3 15 16
f 3 16 4
f 4 16 20
f 4 20 25
f 4 25 34
f 4 34 44
f 4 44 58
f 4 58 53
f 4 53 52
f 4 52 51
f 4 51 37
f 4 37 35
f 4 35 27
f 4 27 26
f 4 26 21
f 4 21 17
f 4 17 13
f 4 13 12
f 4 12 11
f 4 11 10
f 4 10 9
f 4 9 8
f 4 8 7
f 4 7 6
f 4 6 5
f 13 17 18
f 13 18 14
f 15 19 16
f 16 19 23
f 16 23 29
f 16 29 38
f 16 38 41
f 16 41 55
f 16 55 61
f 16 61 60
f 16 60 56
f 16 56 42
f 16 42 31
f 16 31 24
f 16 24 20
f 17 21 18
f 18 21 22
f 20 24 33
f 20 33 25
f 21 26 22
f 22 26 27
f 22 27 28
f 23 30 29
f 24 31 32
f 24 32 33
f 25 33 32
f 25 32 43
f 25 43 57
f 25 57 59
f 25 59 54
f 25 54 40
f 25 40 30
f 25 30 39
f 25 39 34
f 27 35 28
f 28 35 37
f 28 37 36
f 29 30 38
f 30 40 41
f 30 41 38
f 31 42 43
f 31 43 32
f 34 39 45
f 34 45 46
f 34 46 47
f 34 47 48
f 34 48 49
f 34 49 50
f 34 50 44
f 36 37 51
f 36 51 52
f 36 52 53
f 36 53 50
f 40 54 41
f 41 54 55
f 42 56 57
f 42 57 43
f 44 50 58
f 50 53 58
f 54 59 60
f 54 60 61
f 54 61 55
f 56 60 59
f 56 59 57
