v -0.327427 -9.61948e-05 -0.4733
v -0.286322 -0.158628 -0.4733
v -0.391987 -9.61948e-05 -0.4733
v -0.413452 -9.61948e-05 -0.316806
v -0.378832 -0.158628 -0.316806
v -0.356004 -0.158628 -0.4733
v -0.391987 -0.00712654 -0.4733
v -0.396704 -9.61948e-05 -0.467279
v -0.474548 -9.61948e-05 -0.316806
v -0.444792 -0.158628 -0.316806
v -0.357422 -0.158628 -0.47163
v -0.358841 -0.151784 -0.4733
v -0.390587 -0.0179747 -0.4733
v -0.396704 -0.00712654 -0.467279
v -0.39932 -9.61948e-05 -0.463755
v -0.470752 -9.61948e-05 -0.328939
v -0.474548 -0.00756109 -0.316806
v -0.45616 -0.131422 -0.316806
v -0.444552 -0.158628 -0.31751
v -0.357846 -0.158628 -0.471124
v -0.370743 -0.128706 -0.470527
v -0.37043 -0.123818 -0.4733
v -0.36739 -0.131159 -0.4733
v -0.38716 -0.0441096 -0.4733
v -0.386773 -0.0498828 -0.472825
v -0.385833 -0.0641453 -0.47163
v -0.384543 -0.0836223 -0.470006
v -0.383954 -0.0926236 -0.46924
v -0.395782 -0.021389 -0.466023
v -0.40107 -0.021389 -0.458899
v -0.401991 -0.00712654 -0.46014
v -0.401991 -9.61948e-05 -0.46014
v -0.470752 -0.00344842 -0.328939
v -0.457892 -9.61948e-05 -0.360667
v -0.472853 -0.00777836 -0.321846
v -0.472263 -0.021389 -0.318797
v -0.473166 -0.0191076 -0.316806
v -0.457155 -0.128365 -0.316806
v -0.455054 -0.124361 -0.325339
v -0.441623 -0.127698 -0.355856
v -0.443594 -0.132555 -0.346358
v -0.446192 -0.136544 -0.336093
v -0.453028 -0.135271 -0.320636
v -0.441623 -0.156316 -0.327346
v -0.44411 -0.158628 -0.318751
v -0.364055 -0.158628 -0.463434
v -0.366414 -0.149642 -0.46518
v -0.368772 -0.138204 -0.468168
v -0.372309 -0.121133 -0.472381
v -0.380048 -0.121443 -0.462698
v -0.371536 -0.121133 -0.4733
v -0.384525 -0.0641453 -0.4733
v -0.382296 -0.0810305 -0.4733
v -0.380748 -0.0926236 -0.4733
v -0.382185 -0.106886 -0.467095
v -0.387694 -0.106886 -0.459971
v -0.38926 -0.0926236 -0.462116
v -0.399467 -0.0458943 -0.456647
v -0.409932 -0.00827498 -0.448022
v -0.413857 -0.00427095 -0.44266
v -0.413857 -9.61948e-05 -0.44266
v -0.462461 -0.00712654 -0.349192
v -0.468173 -0.00777836 -0.334194
v -0.470144 -0.0129464 -0.327376
v -0.457892 -0.00712654 -0.360667
v -0.456363 -9.61948e-05 -0.364282
v -0.469591 -0.021389 -0.325921
v -0.468652 -0.0356359 -0.323424
v -0.460269 -0.106886 -0.320681
v -0.470844 -0.0377621 -0.316806
v -0.471121 -0.0356359 -0.316806
v -0.471508 -0.0326562 -0.316806
v -0.472889 -0.021389 -0.316806
v -0.45791 -0.120217 -0.320636
v -0.459126 -0.120466 -0.316806
v -0.45627 -0.114863 -0.328341
v -0.443097 -0.1182 -0.35938
v -0.439836 -0.122219 -0.363853
v -0.435045 -0.135395 -0.36344
v -0.428191 -0.158287 -0.357725
v -0.440296 -0.136544 -0.350341
v -0.443594 -0.146818 -0.33211
v -0.439707 -0.158628 -0.329659
v -0.441254 -0.158628 -0.325875
v -0.365861 -0.158628 -0.461182
v -0.372107 -0.149642 -0.458041
v -0.385999 -0.116881 -0.457627
v -0.372659 -0.11837 -0.4733
v -0.377468 -0.106126 -0.4733
v -0.398749 -0.112892 -0.441357
v -0.395469 -0.107631 -0.448389
v -0.399983 -0.103379 -0.443272
v -0.396372 -0.0926236 -0.451882
v -0.398841 -0.0553923 -0.455728
v -0.407648 -0.021389 -0.448941
v -0.413249 -0.0137844 -0.44171
v -0.41756 -0.00827498 -0.436057
v -0.425335 -0.00712654 -0.424061
v -0.429757 -0.00712654 -0.416937
v -0.429757 -9.61948e-05 -0.416937
v -0.460619 -0.021389 -0.349192
v -0.456971 -0.021389 -0.358491
v -0.456344 -0.0307162 -0.357021
v -0.466128 -0.021389 -0.334929
v -0.456842 -0.106886 -0.329812
v -0.454852 -0.00712654 -0.367806
v -0.454852 -9.61948e-05 -0.367806
v -0.461521 -0.106886 -0.316806
v -0.469555 -0.0474618 -0.316806
v -0.449361 -0.106886 -0.349192
v -0.444202 -0.106886 -0.362
v -0.441181 -0.106886 -0.369123
v -0.429168 -0.118308 -0.388013
v -0.432374 -0.122297 -0.378913
v -0.429665 -0.135395 -0.37447
v -0.427989 -0.143543 -0.371345
v -0.426017 -0.153041 -0.367224
v -0.424783 -0.158628 -0.36488
v -0.428118 -0.158628 -0.357557
v -0.428302 -0.158628 -0.357128
v -0.431766 -0.158628 -0.348855
v -0.36833 -0.158628 -0.458056
v -0.370596 -0.156859 -0.456111
v -0.384009 -0.126394 -0.454931
v -0.389665 -0.121443 -0.449676
v -0.401973 -0.121133 -0.431844
v -0.414649 -0.117331 -0.415405
v -0.411351 -0.106886 -0.424643
v -0.397109 -0.121133 -0.438968
v -0.41592 -0.106886 -0.417519
v -0.400923 -0.0926236 -0.444743
v -0.401862 -0.0783922 -0.446229
v -0.409932 -0.0641453 -0.436516
v -0.411812 -0.0356359 -0.439458
v -0.424414 -0.021389 -0.422606
v -0.428873 -0.021389 -0.415482
v -0.435616 -0.00712654 -0.406183
v -0.435616 -9.61948e-05 -0.406183
v -0.455718 -0.0402142 -0.355443
v -0.455091 -0.0498828 -0.353788
v -0.458408 -0.0355428 -0.350096
v -0.453562 -0.0780973 -0.34815
v -0.45393 -0.021389 -0.365615
v -0.457781 -0.0926236 -0.332248
v -0.450043 -0.00712654 -0.377687
v -0.4482 -0.021389 -0.377687
v -0.44306 -0.0783922 -0.37303
v -0.442323 -0.0894421 -0.37159
v -0.441697 -0.09894 -0.370318
v -0.450043 -9.61948e-05 -0.377687
v -0.454152 -0.0641453 -0.351368
v -0.436943 -0.106886 -0.377687
v -0.430457 -0.106886 -0.390541
v -0.426809 -0.106886 -0.397649
v -0.422314 -0.106886 -0.406183
v -0.417652 -0.121707 -0.406964
v -0.425299 -0.122297 -0.392425
v -0.427381 -0.127806 -0.384474
v -0.425814 -0.135395 -0.381594
v -0.414096 -0.158628 -0.385455
v -0.418482 -0.158628 -0.37735
v -0.420803 -0.158628 -0.372846
v -0.370246 -0.158628 -0.455574
v -0.40002 -0.1306 -0.428979
v -0.37511 -0.158628 -0.448466
v -0.37756 -0.158628 -0.444881
v -0.409582 -0.121707 -0.420262
v -0.412696 -0.126829 -0.412234
v -0.399283 -0.157324 -0.413674
v -0.416989 -0.0926236 -0.419312
v -0.412586 -0.0926236 -0.426436
v -0.413138 -0.0842741 -0.427309
v -0.413765 -0.0747917 -0.428289
v -0.428118 -0.0328424 -0.414256
v -0.427491 -0.0423403 -0.413199
v -0.433792 -0.021389 -0.406183
v -0.440536 -0.00712654 -0.396516
v -0.440536 -9.61948e-05 -0.396516
v -0.447058 -9.61948e-05 -0.383616
v -0.444129 -0.00712654 -0.389407
v -0.439615 -0.021389 -0.394708
v -0.441807 -0.0427128 -0.384811
v -0.444 -0.0641453 -0.374884
v -0.439117 -0.0935703 -0.376875
v -0.431084 -0.0368154 -0.407546
v -0.428025 -0.0890696 -0.399978
v -0.427399 -0.0985676 -0.398737
v -0.424709 -0.0933375 -0.405309
v -0.425059 -0.0783922 -0.408496
v -0.414815 -0.135395 -0.401847
v -0.41137 -0.152079 -0.395474
v -0.409988 -0.158628 -0.393023
v -0.388431 -0.148944 -0.434831
v -0.386957 -0.158628 -0.431108
v -0.398049 -0.140098 -0.426099
v -0.396077 -0.149642 -0.423173
v -0.399781 -0.158628 -0.41179
v -0.393479 -0.158628 -0.421487
v -0.397846 -0.158628 -0.414992
v -0.399007 -0.158628 -0.413184
v -0.403244 -0.158628 -0.405432
v -0.388615 -0.158628 -0.428672
f 1 2 6
f 1 6 12
f 1 12 23
f 1 23 22
f 1 22 51
f 1 51 88
f 1 88 89
f 1 89 54
f 1 54 53
f 1 53 52
f 1 52 24
f 1 24 13
f 1 13 7
f 1 7 3
f 1 3 8
f 1 8 15
f 1 15 32
f 1 32 61
f 1 61 100
f 1 100 138
f 1 138 178
f 1 178 179
f 1 179 150
f 1 150 107
f 1 107 66
f 1 66 34
f 1 34 16
f 1 16 9
f 1 9 4
f 1 4 2
f 2 4 5
f 2 5 10
f 2 10 19
f 2 19 45
f 2 45 84
f 2 84 83
f 2 83 121
f 2 121 120
f 2 120 119
f 2 119 118
f 2 118 162
f 2 162 161
f 2 161 160
f 2 160 192
f 2 192 201
f 2 201 197
f 2 197 200
f 2 200 199
f 2 199 198
f 2 198 202
f 2 202 194
f 2 194 166
f 2 166 165
f 2 165 163
f 2 163 122
f 2 122 85
f 2 85 46
f 2 46 20
f 2 20 11
f 2 11 6
f 3 7 14
f 3 14 8
f 4 9 17
f 4 17 37
f 4 37 73
f 4 73 72
f 4 72 71
f 4 71 70
f 4 70 109
f 4 109 108
f 4 108 75
f 4 75 38
f 4 38 18
f 4 18 10
f 4 10 5
f 6 11 12
f 7 13 14
f 8 14 15
f 9 16 33
f 9 33 17
f 10 18 19
f 11 20 21
f 11 21 22
f 11 22 23
f 11 23 12
f 13 24 14
f 14 24 25
f 14 25 26
f 14 26 27
f 14 27 28
f 14 28 29
f 14 29 30
f 14 30 31
f 14 31 15
f 15 31 32
f 16 34 65
f 16 65 33
f 17 35 36
f 17 36 37
f 17 33 35
f 18 38 39
f 18 39 40
f 18 40 41
f 18 41 42
f 18 42 43
f 18 43 44
f 18 44 45
f 18 45 19
f 20 46 47
f 20 47 48
f 20 48 21
f 21 49 22
f 21 48 50
f 21 50 49
f 22 49 51
f 24 52 25
f 25 52 26
f 26 52 27
f 27 52 53
f 27 53 28
f 28 53 54
f 28 54 55
f 28 55 56
f 28 56 57
f 28 57 29
f 29 57 30
f 30 58 59
f 30 59 31
f 30 57 58
f 31 59 60
f 31 60 61
f 31 61 32
f 33 62 63
f 33 63 64
f 33 64 35
f 33 65 62
f 34 66 65
f 35 64 36
f 36 64 67
f 36 67 68
f 36 68 69
f 36 69 70
f 36 70 71
f 36 71 72
f 36 72 73
f 36 73 37
f 38 74 39
f 38 75 74
f 39 74 76
f 39 76 77
f 39 77 40
f 40 78 79
f 40 79 80
f 40 80 81
f 40 81 41
f 40 77 78
f 41 81 82
f 41 82 42
f 42 82 43
f 43 82 44
f 44 82 83
f 44 83 84
f 44 84 45
f 46 85 47
f 47 85 86
f 47 86 48
f 48 86 87
f 48 87 50
f 49 88 51
f 49 50 87
f 49 87 88
f 54 89 55
f 55 89 87
f 55 87 56
f 56 87 90
f 56 90 91
f 56 91 92
f 56 92 93
f 56 93 57
f 57 93 94
f 57 94 58
f 58 94 95
f 58 95 59
f 59 95 96
f 59 96 97
f 59 97 60
f 60 97 98
f 60 98 99
f 60 99 100
f 60 100 61
f 62 101 64
f 62 64 63
f 62 65 102
f 62 102 103
f 62 103 101
f 64 101 104
f 64 104 105
f 64 105 67
f 65 66 106
f 65 106 102
f 66 107 106
f 67 105 68
f 68 105 69
f 69 75 108
f 69 108 109
f 69 109 70
f 69 105 76
f 69 76 74
f 69 74 75
f 76 105 110
f 76 110 111
f 76 111 77
f 77 111 112
f 77 112 113
f 77 113 78
f 78 113 114
f 78 114 115
f 78 115 79
f 79 115 116
f 79 116 117
f 79 117 118
f 79 118 80
f 80 119 120
f 80 120 81
f 80 118 119
f 81 120 121
f 81 121 82
f 82 121 83
f 85 122 86
f 86 122 123
f 86 123 87
f 87 89 88
f 87 123 124
f 87 124 125
f 87 125 90
f 90 126 127
f 90 127 128
f 90 128 92
f 90 92 91
f 90 125 129
f 90 129 126
f 92 128 93
f 93 128 130
f 93 130 131
f 93 131 132
f 93 132 94
f 94 132 133
f 94 133 95
f 95 133 134
f 95 134 135
f 95 135 96
f 96 135 97
f 97 135 98
f 98 136 99
f 98 135 136
f 99 136 137
f 99 137 138
f 99 138 100
f 101 103 139
f 101 139 140
f 101 140 141
f 101 141 142
f 101 142 104
f 102 106 143
f 102 143 112
f 102 112 111
f 102 111 103
f 103 111 139
f 104 142 144
f 104 144 105
f 105 144 142
f 105 142 110
f 106 107 150
f 106 150 145
f 106 145 146
f 106 146 147
f 106 147 148
f 106 148 149
f 106 149 112
f 106 112 143
f 110 142 151
f 110 151 140
f 110 140 139
f 110 139 111
f 112 149 152
f 112 152 113
f 113 152 153
f 113 153 154
f 113 154 155
f 113 155 127
f 113 127 156
f 113 156 157
f 113 157 158
f 113 158 114
f 114 158 115
f 115 158 159
f 115 159 116
f 116 159 160
f 116 160 161
f 116 161 162
f 116 162 117
f 117 162 118
f 122 163 123
f 123 163 124
f 124 163 125
f 125 164 129
f 125 163 165
f 125 165 166
f 125 166 164
f 126 129 164
f 126 164 167
f 126 167 127
f 127 168 156
f 127 155 130
f 127 130 128
f 127 167 169
f 127 169 168
f 130 155 170
f 130 170 171
f 130 171 131
f 131 171 172
f 131 172 132
f 132 172 133
f 133 172 173
f 133 173 135
f 133 135 134
f 135 173 172
f 135 172 171
f 135 171 136
f 136 171 174
f 136 174 137
f 137 174 175
f 137 175 176
f 137 176 177
f 137 177 178
f 137 178 138
f 140 151 142
f 140 142 141
f 145 150 179
f 145 179 180
f 145 180 181
f 145 181 146
f 146 181 182
f 146 182 183
f 146 183 147
f 147 183 182
f 147 182 153
f 147 153 184
f 147 184 148
f 148 184 152
f 148 152 149
f 152 184 153
f 153 185 175
f 153 175 186
f 153 186 187
f 153 187 154
f 153 182 181
f 153 181 185
f 154 187 188
f 154 188 155
f 155 188 189
f 155 189 170
f 156 168 158
f 156 158 157
f 158 168 190
f 158 190 159
f 159 190 191
f 159 191 160
f 160 191 192
f 164 166 193
f 164 193 194
f 164 194 195
f 164 195 167
f 166 194 193
f 167 195 196
f 167 196 169
f 168 169 197
f 168 197 190
f 169 196 198
f 169 198 199
f 169 199 200
f 169 200 197
f 170 189 175
f 170 175 174
f 170 174 171
f 175 189 188
f 175 188 187
f 175 187 186
f 175 185 176
f 176 185 181
f 176 181 177
f 177 181 180
f 177 180 179
f 177 179 178
f 190 197 201
f 190 201 191
f 191 201 192
f 194 202 195
f 195 202 196
f 196 202 198
