v 0.175435 0.0919832 0.261419
v 0.105397 0.0919832 0.261419
v 0.17504 0.0928982 0.261419
v 0.134558 0.0919832 0.492519
v 0.00019548 0.139438 0.263681
v 0.00019548 0.140083 0.261419
v 0.105209 0.0919832 0.261871
v 0.00019548 0.114598 0.374187
v 0.00019548 0.119776 0.342268
v 0.00019548 0.120972 0.334939
v 0.00019548 0.122428 0.328016
v 0.00019548 0.123998 0.320687
v 0.00019548 0.125495 0.315077
v 0.00019548 0.127086 0.309173
v 0.00019548 0.128022 0.305712
v 0.00019548 0.13032 0.297251
v 0.171438 0.100291 0.261419
v 0.134009 0.0927527 0.492519
v 0.0519645 0.0919832 0.492519
v 0.166721 0.106956 0.261419
v 0.00019548 0.198196 0.261419
v 0.0935444 0.0919832 0.292546
v 0.00019548 0.111749 0.391922
v 0.00019548 0.113454 0.38129
v 0.133203 0.0938652 0.492519
v 0.00019548 0.106041 0.492519
v 0.00019548 0.10602 0.492112
v 0.00019548 0.105999 0.491682
v 0.0518959 0.0919832 0.491863
v 0.165503 0.108557 0.261419
v 0.00019548 0.163249 0.492519
v 0.00568457 0.198196 0.261419
v 0.0828578 0.0919832 0.321185
v 0.00019548 0.109909 0.406173
v 0.123923 0.105937 0.492519
v 0.15895 0.117135 0.261419
v 0.0518787 0.0919832 0.491682
v 0.00019548 0.105979 0.48476
v 0.00714261 0.163249 0.492519
v 0.00693677 0.198102 0.261419
v 0.0813826 0.0919832 0.325483
v 0.0628054 0.0919832 0.392442
v 0.00019548 0.108817 0.420425
v 0.078415 0.0919832 0.33435
v 0.0781234 0.0919832 0.335391
v 0.116255 0.115368 0.492519
v 0.154302 0.123176 0.261419
v 0.146583 0.133158 0.261419
v 0.0517929 0.0919832 0.477431
v 0.00019548 0.105989 0.477431
v 0.0213799 0.161409 0.492519
v 0.0240216 0.195919 0.261419
v 0.0595291 0.0919832 0.406173
v 0.00019548 0.108058 0.434676
v 0.115844 0.115867 0.492519
v 0.140373 0.140385 0.261419
v 0.0531652 0.0919832 0.463179
v 0.00019548 0.10629 0.470509
v 0.0573164 0.0919832 0.420832
v 0.0348282 0.159558 0.492519
v 0.0356344 0.19438 0.261419
v 0.00019548 0.106613 0.463179
v 0.00019548 0.107309 0.448928
v 0.115364 0.116272 0.492519
v 0.133152 0.146582 0.261419
v 0.0356344 0.159444 0.492519
v 0.0376242 0.194078 0.261419
v 0.105929 0.123935 0.492519
v 0.123168 0.154307 0.261419
v 0.0442969 0.157718 0.492519
v 0.049786 0.191801 0.261419
v 0.0969064 0.130871 0.492519
v 0.117113 0.158955 0.261419
v 0.0448801 0.157593 0.492519
v 0.052136 0.191063 0.261419
v 0.0938531 0.13321 0.492519
v 0.108554 0.165505 0.261419
v 0.0452918 0.157426 0.492519
v 0.0636288 0.187257 0.261419
v 0.0927382 0.134011 0.492519
v 0.106941 0.166732 0.261419
v 0.0519988 0.154692 0.492519
v 0.0645036 0.186904 0.261419
v 0.0828578 0.141071 0.492519
v 0.100286 0.171432 0.261419
v 0.0634916 0.14993 0.492519
v 0.078072 0.181268 0.261419
v 0.0641434 0.149659 0.492519
v 0.0757391 0.144627 0.492519
v 0.0928925 0.17504 0.261419
f 1 2 6
f 1 6 21
f 1 21 32
f 1 32 40
f 1 40 52
f 1 52 61
f 1 61 67
f 1 67 71
f 1 71 75
f 1 75 79
f 1 79 83
f 1 83 87
f 1 87 90
f 1 90 85
f 1 85 81
f 1 81 77
f 1 77 73
f 1 73 69
f 1 69 65
f 1 65 56
f 1 56 48
f 1 48 47
f 1 47 36
f 1 36 30
f 1 30 20
f 1 20 17
f 1 17 3
f 1 3 4
f 1 4 19
f 1 19 29
f 1 29 37
f 1 37 49
f 1 49 57
f 1 57 59
f 1 59 53
f 1 53 42
f 1 42 45
f 1 45 44
f 1 44 41
f 1 41 33
f 1 33 22
f 1 22 7
f 1 7 2
f 2 5 6
f 2 7 8
f 2 8 9
f 2 9 10
f 2 10 11
f 2 11 12
f 2 12 13
f 2 13 14
f 2 14 15
f 2 15 16
f 2 16 5
f 3 17 4
f 4 18 25
f 4 25 35
f 4 35 46
f 4 46 55
f 4 55 64
f 4 64 68
f 4 68 72
f 4 72 76
f 4 76 80
f 4 80 84
f 4 84 89
f 4 89 88
f 4 88 86
f 4 86 82
f 4 82 78
f 4 78 74
f 4 74 70
f 4 70 66
f 4 66 60
f 4 60 51
f 4 51 39
f 4 39 31
f 4 31 26
f 4 26 19
f 4 17 20
f 4 20 18
f 5 16 15
f 5 15 14
f 5 14 13
f 5 13 12
f 5 12 11
f 5 11 10
f 5 10 9
f 5 9 8
f 5 8 24
f 5 24 23
f 5 23 34
f 5 34 43
f 5 43 54
f 5 54 63
f 5 63 62
f 5 62 58
f 5 58 50
f 5 50 38
f 5 38 28
f 5 28 27
f 5 27 26
f 5 26 31
f 5 31 21
f 5 21 6
f 7 22 23
f 7 23 24
f 7 24 8
f 18 20 25
f 19 26 27
f 19 27 28
f 19 28 29
f 20 30 25
f 21 31 39
f 21 39 32
f 22 33 23
f 23 33 34
f 25 30 36
f 25 36 35
f 28 37 29
f 28 38 37
f 32 39 40
f 33 41 34
f 34 42 43
f 34 41 44
f 34 44 45
f 34 45 42
f 35 36 47
f 35 47 48
f 35 48 46
f 37 38 49
f 38 50 49
f 39 51 52
f 39 52 40
f 42 53 43
f 43 53 54
f 46 48 55
f 48 56 55
f 49 50 57
f 50 58 53
f 50 53 59
f 50 59 57
f 51 60 61
f 51 61 52
f 53 58 62
f 53 62 63
f 53 63 54
f 55 56 65
f 55 65 64
f 60 66 61
f 61 66 67
f 64 65 68
f 65 69 68
f 66 70 71
f 66 71 67
f 68 69 72
f 69 73 72
f 70 74 71
f 71 74 75
f 72 73 76
f 73 77 76
f 74 78 83
f 74 83 79
f 74 79 75
f 76 77 81
f 76 81 80
f 78 82 83
f 80 81 84
f 81 85 84
f 82 86 83
f 83 86 88
f 83 88 87
f 84 85 89
f 85 90 89
f 87 88 90
f 88 89 90
