v 0.251513 0.204207 -0.475526
v 0.251513 0.204207 -0.546516
v 0.132003 0.204207 -0.557752
v 0.251513 8.06808e-05 -0.551198
v 0.251513 0.191999 -0.553007
v 0.241241 0.204207 -0.553614
v 0.132003 0.204207 -0.604775
v 0.132003 0.112214 -0.604775
v 0.173688 8.06808e-05 -0.604775
v 0.251513 8.06808e-05 -0.603396
v 0.245699 0.189721 -0.558157
v 0.235356 0.204207 -0.557626
v 0.251513 0.166803 -0.566167
v 0.14176 0.204207 -0.604775
v 0.242692 8.06808e-05 -0.604775
v 0.249407 8.06808e-05 -0.604737
v 0.251513 0.007134 -0.603396
v 0.225575 0.196315 -0.568407
v 0.242364 0.171119 -0.570141
v 0.22382 0.204207 -0.565471
v 0.251513 0.164445 -0.567395
v 0.150886 0.204207 -0.601194
v 0.163767 0.192618 -0.602042
v 0.157391 0.192059 -0.604775
v 0.249325 0.000140623 -0.604775
v 0.249407 0.007134 -0.604737
v 0.248729 0.035647 -0.602965
v 0.251513 0.0205413 -0.60232
v 0.216075 0.202489 -0.571609
v 0.217877 0.204207 -0.569495
v 0.222089 0.204207 -0.566648
v 0.229214 0.186824 -0.570887
v 0.251513 0.163885 -0.567686
v 0.245137 0.163885 -0.57195
v 0.152746 0.204207 -0.600435
v 0.174601 0.188023 -0.600106
v 0.163732 0.187103 -0.604775
v 0.249325 0.007134 -0.604775
v 0.249314 0.00725389 -0.604775
v 0.245839 0.035647 -0.604775
v 0.251513 0.0326698 -0.601346
v 0.247793 0.0498935 -0.602383
v 0.220849 0.191899 -0.573735
v 0.206985 0.193238 -0.581555
v 0.198573 0.198573 -0.583921
v 0.215338 0.204207 -0.571166
v 0.251513 0.158551 -0.570369
v 0.251513 0.151357 -0.573709
v 0.250215 0.150119 -0.575101
v 0.23896 0.149639 -0.582428
v 0.234163 0.163026 -0.579138
v 0.156946 0.204207 -0.598663
v 0.158923 0.20117 -0.599498
v 0.178298 0.204207 -0.589577
v 0.189085 0.202449 -0.585958
v 0.184101 0.184086 -0.598081
v 0.178871 0.178851 -0.6027
v 0.174203 0.178492 -0.604775
v 0.243955 0.0498935 -0.604775
v 0.251513 0.0433197 -0.600422
v 0.246576 0.06414 -0.601472
v 0.251513 0.06414 -0.59817
v 0.251513 0.0498935 -0.599827
v 0.220568 0.178132 -0.580365
v 0.225096 0.167202 -0.582681
v 0.211957 0.182887 -0.583326
v 0.202445 0.189062 -0.585958
v 0.195005 0.204207 -0.582339
v 0.206997 0.204207 -0.575962
v 0.212647 0.204207 -0.572722
v 0.188032 0.174575 -0.600106
v 0.251513 0.149419 -0.574532
v 0.241896 0.141786 -0.584111
v 0.231835 0.149639 -0.586439
v 0.228746 0.157691 -0.584731
v 0.184861 0.204207 -0.586781
v 0.187938 0.204207 -0.585465
v 0.190699 0.204207 -0.58425
v 0.178497 0.174196 -0.604775
v 0.241112 0.0638802 -0.604775
v 0.237006 0.0760887 -0.604775
v 0.236222 0.0784065 -0.604775
v 0.244341 0.0784065 -0.599916
v 0.251466 0.0784065 -0.595322
v 0.251513 0.0781667 -0.595335
v 0.21432 0.143225 -0.598891
v 0.19752 0.168421 -0.597474
v 0.19263 0.178851 -0.59574
v 0.20117 0.15891 -0.599498
v 0.206213 0.14864 -0.601042
v 0.19263 0.163746 -0.602042
v 0.187119 0.163706 -0.604775
v 0.251513 0.136172 -0.579429
v 0.217128 0.135392 -0.600549
v 0.249091 0.136372 -0.581049
v 0.244131 0.132275 -0.585528
v 0.227202 0.126421 -0.598094
v 0.235239 0.0808042 -0.604775
v 0.235637 0.0917938 -0.601877
v 0.23132 0.106879 -0.6007
v 0.242668 0.0864788 -0.59884
v 0.248214 0.0917938 -0.593842
v 0.251513 0.10616 -0.587869
v 0.251513 0.0783465 -0.595297
v 0.209091 0.135392 -0.604775
v 0.20654 0.138769 -0.604775
v 0.192056 0.157372 -0.604775
v 0.251513 0.128299 -0.581783
v 0.221832 0.121466 -0.602573
v 0.217608 0.121626 -0.604775
v 0.251513 0.123644 -0.583137
v 0.246529 0.121126 -0.587072
v 0.234455 0.121466 -0.594778
v 0.229237 0.11693 -0.599359
v 0.226956 0.100685 -0.604775
v 0.224359 0.106879 -0.604775
v 0.221352 0.113873 -0.604775
v 0.251513 0.115991 -0.585237
v 0.251513 0.121126 -0.583833
f 1 2 6
f 1 6 12
f 1 12 20
f 1 20 31
f 1 31 30
f 1 30 46
f 1 46 70
f 1 70 69
f 1 69 68
f 1 68 78
f 1 78 77
f 1 77 76
f 1 76 54
f 1 54 52
f 1 52 35
f 1 35 22
f 1 22 14
f 1 14 7
f 1 7 3
f 1 3 4
f 1 4 10
f 1 10 17
f 1 17 28
f 1 28 41
f 1 41 60
f 1 60 63
f 1 63 62
f 1 62 85
f 1 85 104
f 1 104 103
f 1 103 118
f 1 118 119
f 1 119 111
f 1 111 108
f 1 108 93
f 1 93 72
f 1 72 48
f 1 48 47
f 1 47 33
f 1 33 21
f 1 21 13
f 1 13 5
f 1 5 2
f 2 5 6
f 3 7 8
f 3 8 9
f 3 9 4
f 4 9 15
f 4 15 16
f 4 16 10
f 5 11 12
f 5 12 6
f 5 13 11
f 7 14 24
f 7 24 37
f 7 37 58
f 7 58 79
f 7 79 92
f 7 92 107
f 7 107 106
f 7 106 105
f 7 105 110
f 7 110 117
f 7 117 116
f 7 116 115
f 7 115 98
f 7 98 82
f 7 82 81
f 7 81 80
f 7 80 59
f 7 59 40
f 7 40 39
f 7 39 38
f 7 38 25
f 7 25 15
f 7 15 9
f 7 9 8
f 10 16 26
f 10 26 17
f 11 18 12
f 11 13 19
f 11 19 18
f 12 18 20
f 13 21 19
f 14 22 23
f 14 23 24
f 15 25 16
f 16 25 38
f 16 38 26
f 17 26 27
f 17 27 28
f 18 29 30
f 18 30 31
f 18 31 20
f 18 19 32
f 18 32 29
f 19 21 33
f 19 33 34
f 19 34 32
f 22 35 36
f 22 36 23
f 23 36 37
f 23 37 24
f 26 38 39
f 26 39 40
f 26 40 27
f 27 41 28
f 27 40 42
f 27 42 41
f 29 32 34
f 29 34 43
f 29 43 44
f 29 44 45
f 29 45 46
f 29 46 30
f 33 47 34
f 34 47 48
f 34 48 49
f 34 49 50
f 34 50 51
f 34 51 43
f 35 52 53
f 35 53 36
f 36 53 52
f 36 52 54
f 36 54 55
f 36 55 45
f 36 45 56
f 36 56 57
f 36 57 58
f 36 58 37
f 40 59 42
f 41 42 60
f 42 59 61
f 42 61 62
f 42 62 63
f 42 63 60
f 43 51 64
f 43 64 44
f 44 64 65
f 44 65 66
f 44 66 67
f 44 67 45
f 45 55 68
f 45 68 69
f 45 69 70
f 45 70 46
f 45 67 71
f 45 71 56
f 48 72 49
f 49 72 73
f 49 73 50
f 50 73 74
f 50 74 75
f 50 75 65
f 50 65 64
f 50 64 51
f 54 76 55
f 55 76 77
f 55 77 78
f 55 78 68
f 56 71 57
f 57 71 79
f 57 79 58
f 59 80 61
f 61 80 81
f 61 81 82
f 61 82 83
f 61 83 84
f 61 84 62
f 62 84 85
f 65 75 66
f 66 75 86
f 66 86 87
f 66 87 71
f 66 71 88
f 66 88 67
f 67 88 71
f 71 87 89
f 71 89 90
f 71 90 91
f 71 91 92
f 71 92 79
f 72 93 73
f 73 94 86
f 73 86 74
f 73 93 95
f 73 95 96
f 73 96 97
f 73 97 94
f 74 86 75
f 82 98 99
f 82 99 83
f 83 99 100
f 83 100 101
f 83 101 84
f 84 101 102
f 84 102 103
f 84 103 104
f 84 104 85
f 86 94 90
f 86 90 89
f 86 89 87
f 90 94 105
f 90 105 106
f 90 106 91
f 91 106 107
f 91 107 92
f 93 108 95
f 94 97 109
f 94 109 110
f 94 110 105
f 95 108 111
f 95 111 96
f 96 111 112
f 96 112 97
f 97 112 113
f 97 113 114
f 97 114 109
f 98 115 99
f 99 115 116
f 99 116 100
f 100 117 109
f 100 109 114
f 100 114 101
f 100 116 117
f 101 114 102
f 102 114 103
f 103 114 113
f 103 113 118
f 109 117 110
f 111 119 112
f 112 119 118
f 112 118 113
