v 0.833963 0.475695 0.244295
v 0.833963 0.475602 0.261152
v 0.845136 0.47374 0.261152
v 0.833963 0.475695 -0.244295
v -0.833963 0.475695 0.244295
v 0.833963 0.47374 0.272172
v 0.844302 0.473088 0.271299
v -0.833963 0.475602 0.261152
v 0.845136 0.47374 -0.261152
v 0.849639 0.463309 0.261152
v 0.849805 0.463309 0.244295
v 0.833963 0.475602 -0.261152
v -0.833963 0.475695 -0.244295
v -0.845136 0.47374 0.261152
v 0.833963 0.463309 0.2767
v -0.833963 0.47374 0.272172
v 0.846137 0.463309 0.273154
v -0.844302 0.473088 0.271299
v 0.844302 0.473088 -0.271299
v 0.849805 0.463309 -0.244295
v 0.849639 0.463309 -0.261152
v 0.85164 0.446453 0.261152
v 0.833963 0.47374 -0.272172
v -0.833963 0.475602 -0.261152
v -0.845136 0.47374 -0.261152
v -0.849805 0.463309 0.244295
v -0.849639 0.463309 0.261152
v 0.833963 0.446453 0.278664
v -0.833963 0.463309 0.2767
v 0.84697 0.446453 0.274136
v -0.846137 0.463309 0.273154
v 0.846137 0.463309 -0.273154
v 0.833963 0.463309 -0.2767
v 0.85164 0.446453 -0.261152
v 0.85164 -0.446453 0.261152
v -0.833963 0.47374 -0.272172
v -0.844302 0.473088 -0.271299
v -0.849639 0.463309 -0.261152
v -0.849805 0.463309 -0.244295
v -0.85164 0.446453 0.261152
v 0.833963 -0.446453 0.278664
v -0.833963 0.446453 0.278664
v 0.84697 -0.446453 0.274136
v -0.84697 0.446453 0.274136
v 0.833963 0.446453 -0.278664
v 0.84697 0.446453 -0.274136
v -0.833963 0.463309 -0.2767
v 0.85164 -0.446453 -0.261152
v 0.846137 -0.463309 0.273154
v 0.849639 -0.463309 0.261152
v 0.849805 -0.463309 0.244295
v -0.846137 0.463309 -0.273154
v -0.85164 0.446453 -0.261152
v -0.85164 -0.446453 0.261152
v 0.833963 -0.463309 0.2767
v -0.833963 -0.446453 0.278664
v -0.84697 -0.446453 0.274136
v 0.833963 -0.446453 -0.278664
v -0.833963 0.446453 -0.278664
v 0.84697 -0.446453 -0.274136
v 0.849805 -0.463309 -0.244295
v 0.849639 -0.463309 -0.261152
v 0.846137 -0.463309 -0.273154
v 0.844302 -0.473088 0.271299
v 0.845136 -0.47374 0.261152
v -0.84697 0.446453 -0.274136
v -0.85164 -0.446453 -0.261152
v -0.849805 -0.463309 0.244295
v -0.849639 -0.463309 0.261152
v -0.846137 -0.463309 0.273154
v 0.833963 -0.47374 0.272172
v -0.833963 -0.463309 0.2767
v 0.833963 -0.463309 -0.2767
v -0.833963 -0.446453 -0.278664
v 0.845136 -0.47374 -0.261152
v 0.844302 -0.473088 -0.271299
v 0.833963 -0.475602 0.261152
v 0.833963 -0.475695 0.244295
v -0.84697 -0.446453 -0.274136
v -0.846137 -0.463309 -0.273154
v -0.849639 -0.463309 -0.261152
v -0.849805 -0.463309 -0.244295
v -0.845136 -0.47374 0.261152
v -0.844302 -0.473088 0.271299
v -0.833963 -0.47374 0.272172
v 0.833963 -0.47374 -0.272172
v -0.833963 -0.463309 -0.2767
v 0.833963 -0.475695 -0.244295
v 0.833963 -0.475602 -0.261152
v -0.833963 -0.475602 0.261152
v -0.833963 -0.475695 0.244295
v -0.844302 -0.473088 -0.271299
v -0.845136 -0.47374 -0.261152
v -0.833963 -0.47374 -0.272172
v -0.833963 -0.475695 -0.244295
v -0.833963 -0.475602 -0.261152
f 1 2 3
f 1 3 9
f 1 9 4
f 1 4 13
f 1 13 5
f 1 5 8
f 1 8 2
f 2 6 7
f 2 7 3
f 2 8 16
f 2 16 6
f 3 7 10
f 3 10 11
f 3 11 20
f 3 20 9
f 4 9 12
f 4 12 24
f 4 24 13
f 5 13 25
f 5 25 14
f 5 14 8
f 6 15 7
f 6 16 29
f 6 29 15
f 7 17 10
f 7 15 17
f 8 14 18
f 8 18 16
f 9 19 12
f 9 20 21
f 9 21 19
f 10 17 22
f 10 22 11
f 11 22 34
f 11 34 20
f 12 19 23
f 12 23 36
f 12 36 24
f 13 24 25
f 14 25 39
f 14 39 26
f 14 26 27
f 14 27 18
f 15 28 17
f 15 29 42
f 15 42 28
f 16 18 29
f 17 28 30
f 17 30 22
f 18 27 31
f 18 31 29
f 19 21 32
f 19 32 33
f 19 33 23
f 20 34 21
f 21 34 32
f 22 30 43
f 22 43 35
f 22 35 48
f 22 48 34
f 23 33 47
f 23 47 36
f 24 36 37
f 24 37 25
f 25 37 38
f 25 38 39
f 26 39 53
f 26 53 40
f 26 40 27
f 27 40 31
f 28 41 43
f 28 43 30
f 28 42 56
f 28 56 41
f 29 31 42
f 31 40 44
f 31 44 42
f 32 45 33
f 32 34 46
f 32 46 45
f 33 45 59
f 33 59 47
f 34 48 60
f 34 60 46
f 35 43 49
f 35 49 50
f 35 50 51
f 35 51 61
f 35 61 48
f 36 47 37
f 37 52 38
f 37 47 52
f 38 52 53
f 38 53 39
f 40 53 67
f 40 67 54
f 40 54 57
f 40 57 44
f 41 55 49
f 41 49 43
f 41 56 72
f 41 72 55
f 42 44 57
f 42 57 56
f 45 46 60
f 45 60 58
f 45 58 74
f 45 74 59
f 47 59 52
f 48 61 62
f 48 62 63
f 48 63 60
f 49 64 50
f 49 55 64
f 50 64 65
f 50 65 51
f 51 65 75
f 51 75 61
f 52 66 53
f 52 59 66
f 53 66 79
f 53 79 67
f 54 68 69
f 54 69 70
f 54 70 57
f 54 67 82
f 54 82 68
f 55 71 64
f 55 72 85
f 55 85 71
f 56 57 70
f 56 70 72
f 58 60 63
f 58 63 73
f 58 73 87
f 58 87 74
f 59 74 79
f 59 79 66
f 61 75 62
f 62 75 76
f 62 76 63
f 63 76 73
f 64 71 77
f 64 77 65
f 65 77 78
f 65 78 88
f 65 88 75
f 67 79 80
f 67 80 81
f 67 81 82
f 68 82 93
f 68 93 83
f 68 83 69
f 69 83 84
f 69 84 70
f 70 84 72
f 71 85 90
f 71 90 77
f 72 84 85
f 73 76 86
f 73 86 94
f 73 94 87
f 74 87 80
f 74 80 79
f 75 88 89
f 75 89 76
f 76 89 86
f 77 90 91
f 77 91 78
f 78 91 95
f 78 95 88
f 80 87 92
f 80 92 81
f 81 92 93
f 81 93 82
f 83 93 95
f 83 95 91
f 83 91 90
f 83 90 84
f 84 90 85
f 86 89 96
f 86 96 94
f 87 94 92
f 88 95 96
f 88 96 89
f 92 94 96
f 92 96 93
f 93 96 95
