v -0.0197868 -0.0293299 0.490834
v -0.0197868 -0.040544 0.488482
v -0.0197868 -0.01773 0.489505
v -0.0410039 0.00361018 0.488687
v -0.0527233 0.00361018 0.489402
v -0.147289 -0.0552006 0.499728
v -0.0197868 -0.0431748 0.487767
v -0.0197868 0.00361018 0.484291
v -0.0644301 0.00361018 0.48838
v -0.147289 -0.0409988 0.496456
v -0.147289 -0.0418565 0.496661
v -0.147289 -0.0527137 0.499216
v -0.122989 -0.0552006 0.49615
v -0.0197868 -0.0527137 0.482758
v -0.147289 -0.0552006 -0.541885
v -0.0197868 0.00361018 -0.459795
v -0.0761495 0.00361018 0.486949
v -0.147289 -0.0343325 0.493696
v -0.0668389 -0.0552006 0.487869
v -0.0552069 -0.0552006 0.486131
v -0.0197868 -0.0540205 0.481531
v -0.147289 0.00361018 -0.544645
v -0.132724 0.00361018 -0.541885
v -0.123863 0.00361018 -0.540147
v -0.142784 -0.0552006 -0.540862
v -0.0197868 -0.0552006 -0.481161
v -0.0198117 0.00361018 -0.459999
v -0.147289 0.00361018 0.477851
v -0.0527233 -0.0552006 0.485722
v -0.0197868 -0.0552006 0.480202
v -0.13849 -0.0552006 -0.53984
v -0.120843 0.00361018 -0.539227
v -0.131776 -0.0552006 -0.538102
v -0.120007 -0.0552006 -0.533093
v -0.115526 0.00361018 -0.536978
v -0.111482 0.00361018 -0.534729
v -0.109623 0.00361018 -0.533502
v -0.102908 0.00361018 -0.529004
v -0.0969797 0.00361018 -0.524097
v -0.122752 -0.0552006 -0.534422
f 1 2 7
f 1 7 14
f 1 14 21
f 1 21 30
f 1 30 26
f 1 26 16
f 1 16 8
f 1 8 3
f 1 3 4
f 1 4 5
f 1 5 6
f 1 6 2
f 2 6 7
f 3 8 4
f 4 8 16
f 4 16 27
f 4 27 39
f 4 39 38
f 4 38 37
f 4 37 36
f 4 36 35
f 4 35 32
f 4 32 24
f 4 24 23
f 4 23 22
f 4 22 28
f 4 28 17
f 4 17 9
f 4 9 5
f 5 9 10
f 5 10 11
f 5 11 12
f 5 12 6
f 6 13 14
f 6 14 7
f 6 12 11
f 6 11 10
f 6 10 18
f 6 18 28
f 6 28 22
f 6 22 15
f 6 15 25
f 6 25 31
f 6 31 33
f 6 33 40
f 6 40 34
f 6 34 26
f 6 26 30
f 6 30 29
f 6 29 20
f 6 20 19
f 6 19 13
f 9 17 10
f 10 17 18
f 13 19 14
f 14 19 20
f 14 20 21
f 15 22 23
f 15 23 24
f 15 24 25
f 16 26 27
f 17 28 18
f 20 29 21
f 21 29 30
f 24 31 25
f 24 32 33
f 24 33 31
f 26 34 35
f 26 35 36
f 26 36 37
f 26 37 38
f 26 38 39
f 26 39 27
f 32 35 40
f 32 40 33
f 34 40 35
