v 0.199203 -0.0193225 -0.564195
v 0.0759695 0.18473 -0.565859
v 0.257768 0.117191 -0.566636
v 0.298778 0.0467824 -0.565194
v 0.317846 -0.0190834 -0.563751
v 0.363951 -0.0193225 -0.545558
v 0.0759695 -0.0193225 -0.508283
v 0.0759695 0.258067 -0.563086
v 0.167423 0.248922 -0.560756
v 0.247174 0.176422 -0.559092
v 0.320166 0.145521 -0.544448
v 0.350735 0.104998 -0.541897
v 0.425795 -0.0193225 -0.509947
v 0.0761209 -0.0193225 0.513553
v 0.0759695 0.161121 0.540843
v 0.0762722 0.426796 -0.460248
v 0.108455 0.379219 -0.504179
v 0.187096 0.318733 -0.532689
v 0.0759695 0.57598 0.248636
v 0.223769 0.264044 -0.545669
v 0.315576 0.210072 -0.529139
v 0.354922 0.190169 -0.515716
v 0.384835 0.145163 -0.512499
v 0.41162 0.0986621 -0.505621
v 0.445266 0.0940599 -0.472007
v 0.483401 0.0734395 -0.419867
v 0.474018 -0.0189639 -0.441167
v 0.55387 -0.0186053 -0.281196
v 0.523302 -0.0188443 0.419146
v 0.437851 -0.0190834 0.523981
v 0.232092 -0.0193225 0.565471
v 0.1648 0.124542 0.563585
v 0.157385 0.26769 0.562587
v 0.0789961 0.354475 0.539734
v 0.0760704 0.397987 0.521096
v 0.0838387 0.545378 -0.238486
v 0.0808625 0.486924 -0.362624
v 0.079097 0.461043 -0.40844
v 0.140789 0.456202 -0.399011
v 0.201876 0.424106 -0.428076
v 0.161118 0.399182 -0.47478
v 0.162228 0.359077 -0.513164
v 0.204146 0.37133 -0.491199
v 0.265637 0.323514 -0.500518
v 0.07602 0.561874 0.297226
v 0.13519 0.568389 0.253407
v 0.084898 0.589428 0.189285
v 0.0918087 0.589846 -0.0696404
v 0.296105 0.266255 -0.516492
v 0.365918 0.25215 -0.476666
v 0.406222 0.194891 -0.474115
v 0.423979 0.138409 -0.481104
v 0.440978 0.164887 -0.447823
v 0.462669 0.128905 -0.43329
v 0.490211 0.120777 -0.389692
v 0.511599 0.0783406 -0.363067
v 0.528901 -0.0125685 -0.331561
v 0.537426 0.0865887 -0.307044
v 0.562648 0.0808509 -0.235934
v 0.567793 -0.0179478 -0.234603
v 0.569356 -0.0175892 0.32252
v 0.547615 -0.000853773 0.370556
v 0.53672 0.0777429 0.389969
v 0.499543 -0.000853773 0.463409
v 0.440574 0.0688372 0.522428
v 0.373787 -0.0159156 0.557705
v 0.333836 0.0996185 0.566691
v 0.193351 0.0879037 0.566469
v 0.250655 0.23643 0.563363
v 0.203743 0.269304 0.561033
v 0.134837 0.309469 0.552824
v 0.171509 0.375275 0.524535
v 0.124395 0.399421 0.517768
v 0.187248 0.323335 0.545059
v 0.0969035 0.459011 0.480383
v 0.0952893 0.575203 -0.138532
v 0.140335 0.549143 -0.204206
v 0.135795 0.52673 -0.262559
v 0.092515 0.513401 -0.306268
v 0.12268 0.494335 -0.334446
v 0.175747 0.475089 -0.353194
v 0.225433 0.458653 -0.360294
v 0.260744 0.421656 -0.398789
v 0.249949 0.378323 -0.459582
v 0.293481 0.356089 -0.457474
v 0.319561 0.303432 -0.480993
v 0.0965504 0.542031 0.344375
v 0.103613 0.503002 0.419479
v 0.185129 0.554523 0.267717
v 0.152845 0.582375 0.174753
v 0.144068 0.591281 0.108413
v 0.152694 0.587934 -0.0186096
v 0.158192 0.57843 -0.0643154
v 0.385289 0.294705 -0.429962
v 0.418329 0.252568 -0.426412
v 0.443551 0.21061 -0.420089
v 0.480072 0.178215 -0.379597
v 0.514777 0.149825 -0.32668
v 0.537728 0.137452 -0.281418
v 0.553921 0.142533 -0.218517
v 0.566229 0.134823 -0.172811
v 0.577327 0.0723039 -0.175585
v 0.589786 0.0388331 -0.128991
v 0.588121 -0.016872 -0.143413
v 0.590291 0.00440593 0.250633
v 0.57889 0.0217988 0.294342
v 0.55947 0.0513846 0.345262
v 0.522898 0.17953 0.38298
v 0.503578 0.127351 0.437117
v 0.496567 0.0668649 0.466183
v 0.553467 0.105356 0.342378
v 0.4605 0.108225 0.499575
v 0.422062 0.15102 0.521651
v 0.391493 0.101172 0.545946
v 0.357646 0.134105 0.554932
v 0.308312 0.179709 0.563252
v 0.29676 0.238582 0.553601
v 0.286722 0.29351 0.537959
v 0.238095 0.342999 0.528085
v 0.202683 0.415918 0.493806
v 0.147599 0.441678 0.487372
v 0.209998 0.449508 0.465295
v 0.172316 0.470846 0.450097
v 0.164498 0.563667 -0.129768
v 0.157587 0.553566 -0.178469
v 0.189215 0.536771 -0.209753
v 0.16021 0.505751 -0.298391
v 0.230579 0.510951 -0.248137
v 0.243089 0.478974 -0.308265
v 0.2956 0.450106 -0.31603
v 0.330507 0.416934 -0.346538
v 0.326018 0.391054 -0.392798
v 0.185785 0.52673 0.338717
v 0.158293 0.541672 0.315753
v 0.134938 0.522187 0.372996
v 0.182657 0.496726 0.400287
v 0.232395 0.534619 0.284691
v 0.215193 0.558169 0.219127
v 0.204651 0.57066 0.161995
v 0.188862 0.579984 0.113738
v 0.229519 0.564683 -0.00807062
v 0.201927 0.567791 -0.0666451
v 0.400976 0.347183 -0.360516
v 0.435934 0.286816 -0.376934
v 0.477852 0.22358 -0.356411
v 0.509732 0.221249 -0.290182
v 0.529103 0.205052 -0.249025
v 0.534399 0.228182 -0.204983
v 0.550491 0.204454 -0.165489
v 0.567238 0.180187 -0.115346
v 0.586911 0.136795 -0.0629842
v 0.59019 0.0838394 -0.098262
v 0.591299 0.136974 -0.00795969
v 0.589988 0.080552 0.203707
v 0.579899 0.0999771 0.252408
v 0.565523 0.13548 0.292013
v 0.476642 0.269543 0.409827
v 0.492834 0.180606 0.430239
v 0.549028 0.15353 0.332726
v 0.510388 0.238463 0.370334
v 0.470235 0.148868 0.476722
v 0.446022 0.183594 0.494583
v 0.419186 0.218021 0.502903
v 0.381556 0.186882 0.534631
v 0.341907 0.225851 0.54173
v 0.329549 0.263984 0.534742
v 0.287933 0.336604 0.518434
v 0.298122 0.374258 0.490256
v 0.260542 0.437853 0.45287
v 0.274666 0.464869 0.408163
v 0.221045 0.474252 0.424027
v 0.23865 0.532468 -0.174253
v 0.282838 0.488896 -0.250023
v 0.2728 0.509636 -0.20343
v 0.344732 0.439467 -0.285079
v 0.370862 0.387109 -0.341546
v 0.275826 0.504257 0.328843
v 0.22962 0.497921 0.374549
v 0.276785 0.524638 0.264722
v 0.290253 0.529659 0.201045
v 0.27396 0.544183 0.142581
v 0.279256 0.541792 -0.0217158
v 0.245661 0.550638 -0.0673107
v 0.240264 0.543286 -0.121781
v 0.400674 0.400676 -0.256235
v 0.436236 0.332779 -0.318804
v 0.47528 0.270678 -0.315919
v 0.514323 0.255078 -0.242036
v 0.529859 0.27032 -0.152066
v 0.543277 0.255377 -0.110132
v 0.56749 0.210969 -0.0538874
v 0.58116 0.186224 0.0269853
v 0.585196 0.168652 0.0928816
v 0.587163 0.129563 0.160331
v 0.572434 0.161061 0.228002
v 0.554526 0.191305 0.278145
v 0.537829 0.21587 0.313645
v 0.494952 0.291896 0.348257
v 0.453942 0.323455 0.401174
v 0.453589 0.242168 0.456975
v 0.521133 0.263386 0.307655
v 0.380648 0.266196 0.507562
v 0.400371 0.305882 0.47417
v 0.35815 0.350171 0.476833
v 0.31835 0.407012 0.45165
v 0.335854 0.43349 0.406055
v 0.318148 0.469292 0.362568
v 0.286924 0.528523 -0.091273
v 0.311994 0.504436 -0.146297
v 0.314718 0.49057 -0.195553
v 0.35931 0.451899 -0.2295
v 0.351794 0.488836 0.240871
v 0.330255 0.514238 0.166765
v 0.364001 0.498698 0.112628
v 0.326068 0.518422 -0.00795969
v 0.333786 0.505631 -0.0742997
v 0.439414 0.384419 -0.208533
v 0.456767 0.337321 -0.261782
v 0.508572 0.274085 -0.229167
v 0.495154 0.336664 -0.130877
v 0.505848 0.339174 -0.0584358
v 0.53112 0.294526 -0.0564389
v 0.502923 0.302416 -0.191116
v 0.567944 0.221847 0.111075
v 0.565725 0.208757 0.184737
v 0.545295 0.23649 0.246639
v 0.46741 0.333974 0.347259
v 0.510287 0.301758 0.272599
v 0.497323 0.341923 0.234547
v 0.464939 0.3687 0.284802
v 0.417169 0.388723 0.377655
v 0.408896 0.352562 0.432014
v 0.522242 0.299367 0.220348
v 0.378176 0.396672 0.418369
v 0.376007 0.436419 0.35447
v 0.352601 0.4776 -0.157613
v 0.409804 0.442156 -0.120782
v 0.389072 0.474432 0.183184
v 0.408896 0.429366 0.309762
v 0.374494 0.488956 0.00501988
v 0.422264 0.443412 -0.0614311
v 0.385793 0.473535 -0.0613201
v 0.472102 0.349275 -0.194
v 0.463476 0.377307 -0.150069
v 0.464081 0.39446 -0.0785153
v 0.49465 0.365831 -0.014394
v 0.544337 0.2754 0.122834
v 0.550339 0.263028 0.128714
v 0.548422 0.259561 0.163548
v 0.524714 0.311501 0.157114
v 0.488092 0.368819 0.178525
v 0.460954 0.39715 0.221901
v 0.417169 0.437076 0.250966
v 0.459541 0.406833 0.122834
v 0.459541 0.406833 -0.0116206
v 0.497374 0.364755 0.109744
f 1 2 3
f 1 3 4
f 1 4 5
f 1 5 6
f 1 6 13
f 1 13 31
f 1 31 14
f 1 14 7
f 1 7 2
f 2 8 3
f 2 7 15
f 2 15 19
f 2 19 8
f 3 8 9
f 3 9 10
f 3 10 11
f 3 11 12
f 3 12 4
f 4 12 5
f 5 12 6
f 6 12 13
f 7 14 15
f 8 16 17
f 8 17 18
f 8 18 9
f 8 19 16
f 9 18 20
f 9 20 10
f 10 20 11
f 11 20 21
f 11 21 12
f 12 21 22
f 12 22 23
f 12 23 24
f 12 24 13
f 13 24 25
f 13 25 26
f 13 26 27
f 13 27 28
f 13 28 29
f 13 29 30
f 13 30 31
f 14 31 15
f 15 31 32
f 15 32 33
f 15 33 34
f 15 34 35
f 15 35 19
f 16 36 37
f 16 37 38
f 16 38 39
f 16 39 40
f 16 40 41
f 16 41 17
f 16 19 36
f 17 41 42
f 17 42 18
f 18 42 43
f 18 43 44
f 18 44 20
f 19 35 45
f 19 45 46
f 19 46 47
f 19 47 48
f 19 48 36
f 20 44 49
f 20 49 21
f 21 49 22
f 22 49 50
f 22 50 51
f 22 51 23
f 23 51 52
f 23 52 24
f 24 52 25
f 25 52 53
f 25 53 54
f 25 54 26
f 26 55 56
f 26 56 57
f 26 57 27
f 26 54 55
f 27 57 28
f 28 57 56
f 28 56 58
f 28 58 59
f 28 59 60
f 28 60 61
f 28 61 29
f 29 61 62
f 29 62 63
f 29 63 64
f 29 64 30
f 30 65 66
f 30 66 31
f 30 64 65
f 31 66 67
f 31 67 68
f 31 68 32
f 32 68 33
f 33 69 70
f 33 70 71
f 33 71 34
f 33 68 67
f 33 67 69
f 34 72 73
f 34 73 35
f 34 71 74
f 34 74 72
f 35 73 75
f 35 75 45
f 36 48 76
f 36 76 77
f 36 77 78
f 36 78 79
f 36 79 37
f 37 80 81
f 37 81 39
f 37 39 38
f 37 79 80
f 39 81 40
f 40 81 82
f 40 82 83
f 40 83 84
f 40 84 43
f 40 43 41
f 41 43 42
f 43 84 85
f 43 85 44
f 44 86 49
f 44 85 86
f 45 87 46
f 45 75 88
f 45 88 87
f 46 87 89
f 46 89 90
f 46 90 47
f 47 90 91
f 47 91 48
f 48 92 93
f 48 93 76
f 48 91 92
f 49 86 50
f 50 86 94
f 50 94 95
f 50 95 51
f 51 95 96
f 51 96 53
f 51 53 52
f 53 96 54
f 54 96 97
f 54 97 55
f 55 97 98
f 55 98 58
f 55 58 56
f 58 98 99
f 58 99 59
f 59 99 100
f 59 100 101
f 59 101 102
f 59 102 60
f 60 102 103
f 60 103 104
f 60 104 61
f 61 105 106
f 61 106 107
f 61 107 62
f 61 104 105
f 62 107 63
f 63 108 109
f 63 109 110
f 63 110 64
f 63 107 111
f 63 111 108
f 64 110 65
f 65 110 112
f 65 112 113
f 65 113 114
f 65 114 66
f 66 114 67
f 67 114 115
f 67 115 116
f 67 116 69
f 69 116 117
f 69 117 118
f 69 118 70
f 70 74 71
f 70 118 74
f 72 74 119
f 72 119 120
f 72 120 73
f 73 120 121
f 73 121 75
f 74 118 119
f 75 121 122
f 75 122 123
f 75 123 88
f 76 93 124
f 76 124 125
f 76 125 77
f 77 125 126
f 77 126 78
f 78 127 79
f 78 126 128
f 78 128 127
f 79 127 80
f 80 127 81
f 81 127 82
f 82 127 129
f 82 129 83
f 83 129 130
f 83 130 131
f 83 131 132
f 83 132 84
f 84 132 85
f 85 132 94
f 85 94 86
f 87 133 134
f 87 134 89
f 87 88 135
f 87 135 133
f 88 123 136
f 88 136 135
f 89 134 133
f 89 133 137
f 89 137 138
f 89 138 90
f 90 139 140
f 90 140 91
f 90 138 139
f 91 140 92
f 92 141 142
f 92 142 93
f 92 140 141
f 93 142 124
f 94 132 143
f 94 143 144
f 94 144 95
f 95 144 96
f 96 144 145
f 96 145 97
f 97 145 98
f 98 145 146
f 98 146 99
f 99 146 147
f 99 147 100
f 100 148 149
f 100 149 101
f 100 147 148
f 101 149 150
f 101 150 151
f 101 151 152
f 101 152 102
f 102 152 103
f 103 152 153
f 103 153 105
f 103 105 104
f 105 153 154
f 105 154 155
f 105 155 106
f 106 155 156
f 106 156 107
f 107 156 111
f 108 157 158
f 108 158 109
f 108 111 159
f 108 159 160
f 108 160 157
f 109 161 110
f 109 158 161
f 110 161 112
f 111 156 159
f 112 161 162
f 112 162 113
f 113 162 163
f 113 163 164
f 113 164 114
f 114 164 115
f 115 164 165
f 115 165 116
f 116 165 117
f 117 165 166
f 117 166 118
f 118 166 167
f 118 167 119
f 119 167 120
f 120 168 122
f 120 122 121
f 120 167 168
f 122 169 170
f 122 170 171
f 122 171 123
f 122 168 169
f 123 171 136
f 124 142 172
f 124 172 125
f 125 172 126
f 126 172 128
f 127 128 129
f 128 173 129
f 128 172 174
f 128 174 173
f 129 173 130
f 130 173 175
f 130 175 131
f 131 175 176
f 131 176 132
f 132 176 143
f 133 177 137
f 133 135 136
f 133 136 178
f 133 178 177
f 136 171 178
f 137 179 138
f 137 177 179
f 138 180 139
f 138 179 180
f 139 180 181
f 139 181 140
f 140 181 141
f 141 182 183
f 141 183 142
f 141 181 182
f 142 183 184
f 142 184 172
f 143 176 185
f 143 185 186
f 143 186 144
f 144 186 187
f 144 187 145
f 145 187 146
f 146 188 147
f 146 187 188
f 147 188 148
f 148 188 189
f 148 189 149
f 149 189 190
f 149 190 150
f 150 190 191
f 150 191 151
f 151 191 192
f 151 192 153
f 151 153 152
f 153 192 193
f 153 193 194
f 153 194 154
f 154 194 195
f 154 195 155
f 155 195 156
f 156 195 196
f 156 196 197
f 156 197 159
f 157 160 198
f 157 198 199
f 157 199 200
f 157 200 158
f 158 200 161
f 159 197 160
f 160 197 201
f 160 201 198
f 161 200 162
f 162 200 163
f 163 202 164
f 163 200 203
f 163 203 202
f 164 202 165
f 165 202 166
f 166 202 204
f 166 204 167
f 167 204 168
f 168 204 205
f 168 205 169
f 169 205 206
f 169 206 170
f 170 206 207
f 170 207 177
f 170 177 178
f 170 178 171
f 172 184 208
f 172 208 209
f 172 209 174
f 173 174 210
f 173 210 211
f 173 211 175
f 174 209 210
f 175 211 185
f 175 185 176
f 177 207 179
f 179 207 212
f 179 212 180
f 180 212 213
f 180 213 181
f 181 214 215
f 181 215 182
f 181 213 214
f 182 216 208
f 182 208 183
f 182 215 216
f 183 208 184
f 185 211 217
f 185 217 186
f 186 217 218
f 186 218 187
f 187 218 219
f 187 219 188
f 188 219 189
f 189 220 221
f 189 221 222
f 189 222 190
f 189 219 223
f 189 223 220
f 190 222 191
f 191 222 192
f 192 224 193
f 192 222 224
f 193 224 225
f 193 225 195
f 193 195 194
f 195 225 196
f 196 226 197
f 196 225 226
f 197 226 201
f 198 227 199
f 198 201 228
f 198 228 229
f 198 229 230
f 198 230 227
f 199 231 232
f 199 232 203
f 199 203 200
f 199 227 231
f 201 226 233
f 201 233 228
f 202 203 204
f 203 232 204
f 204 232 234
f 204 234 205
f 205 234 206
f 206 234 235
f 206 235 207
f 207 235 212
f 208 216 209
f 209 216 236
f 209 236 210
f 210 236 211
f 211 236 237
f 211 237 217
f 212 238 213
f 212 235 239
f 212 239 238
f 213 238 214
f 214 240 215
f 214 238 241
f 214 241 240
f 215 240 216
f 216 240 242
f 216 242 236
f 217 243 218
f 217 237 244
f 217 244 243
f 218 243 219
f 219 243 223
f 220 223 243
f 220 243 244
f 220 244 245
f 220 245 221
f 221 246 222
f 221 245 246
f 222 246 247
f 222 247 248
f 222 248 224
f 224 248 249
f 224 249 225
f 225 249 226
f 226 249 233
f 227 230 231
f 228 233 229
f 229 233 250
f 229 250 251
f 229 251 252
f 229 252 230
f 230 239 231
f 230 252 239
f 231 234 232
f 231 239 235
f 231 235 234
f 233 249 250
f 236 242 237
f 237 245 244
f 237 242 241
f 237 241 245
f 238 239 253
f 238 253 252
f 238 252 254
f 238 254 241
f 239 252 253
f 240 241 242
f 241 254 255
f 241 255 245
f 245 255 246
f 246 255 256
f 246 256 247
f 247 256 250
f 247 250 248
f 248 250 249
f 250 256 251
f 251 256 252
f 252 256 254
f 254 256 255
