v 0.592097 -0.0193225 0.240078
v 0.591738 -0.0193225 0.251838
v 0.592097 -0.0292956 0.240078
v 0.592097 -0.0193225 -0.111275
v 0.591438 -0.0292956 0.251838
v 0.592037 -0.0410015 0.240078
v 0.589162 -0.0193225 0.264153
v 0.589102 -0.0292956 0.263487
v 0.592037 -0.0644241 0.228318
v 0.592097 -0.0527128 0.228318
v 0.592097 -0.0748154 -0.112495
v 0.592037 -0.0193225 -0.122924
v 0.590719 -0.0410015 0.251838
v 0.591558 -0.0527128 0.240078
v 0.58461 -0.0193225 0.27802
v 0.585568 -0.0292956 0.275025
v 0.588144 -0.0410015 0.263487
v 0.577423 -0.0527128 0.298656
v 0.586167 -0.0410015 0.271031
v 0.591558 -0.0748154 0.228318
v 0.592097 -0.0748154 0.216559
v 0.591678 -0.0748154 -0.123478
v 0.592037 -0.0644241 -0.122924
v 0.59054 -0.0193225 -0.134683
v 0.589581 -0.0527128 0.251838
v 0.590779 -0.0644241 0.240078
v 0.574847 -0.0193225 0.307309
v 0.574847 -0.0410015 0.307309
v 0.577722 -0.0410015 0.298656
v 0.569756 -0.0644241 0.322064
v 0.576405 -0.0644241 0.298656
v 0.585748 -0.0476556 0.269811
v 0.588144 -0.0644241 0.251838
v 0.57359 -0.0644241 0.309084
v 0.589701 -0.0748154 0.240078
v 0.590001 -0.0748154 -0.135349
v 0.59054 -0.0644241 -0.134683
v 0.586108 -0.0193225 -0.154209
v 0.569577 -0.0193225 0.322952
v 0.569876 -0.0527128 0.322064
v 0.569217 -0.0748154 0.321399
v 0.565444 -0.0644241 0.333824
v 0.565384 -0.0748154 0.333159
v 0.572452 -0.0748154 0.309306
v 0.574847 -0.0748154 0.299765
v 0.586227 -0.0748154 0.254279
v 0.586108 -0.0743809 -0.151658
v 0.586048 -0.0644241 -0.153765
v 0.569816 -0.0748154 -0.216559
v 0.582514 -0.0527128 -0.169852
v 0.566941 -0.0193225 -0.238303
v 0.586108 -0.0527128 -0.154209
v 0.575267 -0.0193225 -0.201914
v 0.565264 -0.0193225 0.334268
v 0.561072 -0.0193225 0.343587
v 0.561131 -0.0644241 0.343365
v 0.561191 -0.0748154 0.343032
v 0.576345 -0.0644241 -0.193261
v 0.57928 -0.0644241 -0.181501
v 0.582154 -0.0644241 -0.169852
v 0.574428 -0.07393 -0.198475
v 0.571613 -0.0410015 -0.216559
v 0.564186 -0.0193225 -0.250063
v 0.566642 -0.0748154 -0.228984
v 0.56754 -0.0644241 -0.228318
v 0.572152 -0.0193225 -0.21556
v 0.504052 -0.0193225 0.457635
v 0.527471 -0.0748154 0.410818
v 0.548314 -0.0748154 0.369104
v 0.554244 -0.0748154 0.357233
v 0.565803 -0.0410015 -0.240078
v 0.568738 -0.0410015 -0.228318
v 0.574668 -0.0527128 -0.202247
v 0.561611 -0.0204632 -0.260381
v 0.556579 -0.0193225 -0.275247
v 0.563467 -0.0748154 -0.240633
v 0.564426 -0.0644241 -0.240078
v 0.563288 -0.0410015 -0.249841
v 0.516151 -0.0748154 0.43345
v 0.500518 -0.0193225 0.46407
v 0.502495 -0.0748154 0.46052
v 0.561311 -0.0300343 -0.259604
v 0.555621 -0.0410015 -0.275247
v 0.55628 -0.0292956 -0.275247
v 0.552087 -0.0410015 -0.284566
v 0.552267 -0.0292956 -0.284677
v 0.551069 -0.0193225 -0.287118
v 0.560532 -0.0748154 -0.250396
v 0.56209 -0.0527128 -0.251283
v 0.561671 -0.0410015 -0.255721
v 0.495128 -0.0193225 0.472391
v 0.495128 -0.0748154 0.472391
v 0.559335 -0.0410015 -0.263487
v 0.554783 -0.0527128 -0.275247
v 0.549272 -0.0644241 -0.289226
v 0.54496 -0.0748154 -0.298656
v 0.549332 -0.0527128 -0.290113
v 0.545199 -0.0644241 -0.298656
v 0.540588 -0.0748154 -0.308086
v 0.545319 -0.0527128 -0.298656
v 0.541306 -0.0193225 -0.306754
v 0.549931 -0.0748154 -0.28501
v 0.553824 -0.0644241 -0.275247
v 0.489917 -0.0193225 0.47816
v 0.489917 -0.0748154 0.47816
v 0.528549 -0.0748154 -0.332271
v 0.526393 -0.0193225 -0.336598
v 0.477339 -0.0193225 0.490807
v 0.466498 -0.0748154 0.501679
v 0.470331 -0.0748154 -0.44876
v 0.470331 -0.0193225 -0.44876
v 0.466498 -0.0193225 0.501679
v 0.460628 -0.0748154 0.507559
v 0.466917 -0.0748154 -0.455527
v 0.457154 -0.0527128 -0.475053
v 0.455657 -0.0410015 -0.478049
v 0.463204 -0.0193225 -0.462628
v 0.455657 -0.0292956 -0.478049
v 0.460628 -0.0193225 0.507559
v 0.45392 -0.0193225 0.514216
v 0.454759 -0.0748154 0.513328
v 0.462605 -0.0748154 -0.463737
v 0.457035 -0.0644241 -0.474831
v 0.451404 -0.0527128 -0.486036
v 0.451584 -0.0410015 -0.486036
v 0.458831 -0.0193225 -0.470948
v 0.451524 -0.0292956 -0.486036
v 0.44835 -0.0193225 0.519319
v 0.449248 -0.0748154 0.518542
v 0.458053 -0.0748154 -0.471947
v 0.446673 -0.0527128 -0.494024
v 0.446852 -0.0410015 -0.494468
v 0.455178 -0.0193225 -0.477494
v 0.446793 -0.0292956 -0.494246
v 0.438108 -0.0193225 0.526308
v 0.438647 -0.0748154 0.525976
v 0.454279 -0.0748154 -0.47816
v 0.445535 -0.0675855 -0.492471
v 0.441582 -0.0527128 -0.499904
v 0.442001 -0.0410015 -0.500237
v 0.445655 -0.0194474 -0.49347
v 0.434574 -0.0193225 -0.504675
v 0.441522 -0.0292956 -0.500126
v 0.426009 -0.0193225 0.532632
v 0.427507 -0.0748154 0.531855
v 0.44805 -0.0748154 -0.487035
v 0.439126 -0.0748154 -0.497353
v 0.440384 -0.0644241 -0.498795
v 0.434574 -0.0644241 -0.504897
v 0.435712 -0.0527128 -0.506006
v 0.436131 -0.0410015 -0.506339
v 0.435652 -0.0292956 -0.505673
v 0.428525 -0.0292956 -0.511553
v 0.423494 -0.0201862 -0.513661
v 0.416246 -0.0193225 -0.518431
v 0.417624 -0.0193225 0.536848
v 0.417624 -0.0748154 0.536848
v 0.426788 -0.0748154 -0.510111
v 0.433676 -0.0715128 -0.504009
v 0.422835 -0.0644241 -0.516545
v 0.429902 -0.0527128 -0.511886
v 0.424033 -0.0527128 -0.517655
v 0.429782 -0.0410015 -0.512219
v 0.423973 -0.0410015 -0.517322
v 0.422655 -0.0292956 -0.516213
v 0.415767 -0.0292956 -0.521094
v 0.405226 -0.0292956 -0.527751
v 0.40289 -0.0194963 -0.526197
v 0.334131 -0.0193225 -0.55948
v 0.388335 -0.0193225 0.551492
v 0.371924 -0.0748154 0.559702
v 0.40301 -0.0748154 -0.529969
v 0.41984 -0.0731967 -0.5171
v 0.409179 -0.0716269 -0.52653
v 0.414869 -0.0644893 -0.523202
v 0.410377 -0.0606271 -0.527307
v 0.413551 -0.0527128 -0.525532
v 0.414929 -0.0409743 -0.523868
v 0.386778 -0.0379813 -0.538956
v 0.39127 -0.0303494 -0.535295
v 0.384622 -0.0271445 -0.537846
v 0.408819 -0.0419412 -0.527751
v 0.375398 -0.0200178 -0.540287
v 0.354016 -0.019719 -0.550605
v 0.345511 -0.0292956 -0.557372
v 0.336766 -0.0292956 -0.561033
v 0.325985 -0.0200286 -0.56303
v 0.311251 -0.0193225 -0.566136
v 0.367372 -0.0193225 0.56181
v 0.364917 -0.0748154 0.563141
v 0.393127 -0.0748154 -0.535849
v 0.386539 -0.0748154 -0.539621
v 0.404088 -0.0527128 -0.530857
v 0.392827 -0.0410015 -0.536071
v 0.369409 -0.0410015 -0.547831
v 0.36318 -0.0349502 -0.550605
v 0.359167 -0.0287415 -0.550937
v 0.339521 -0.0410395 -0.562032
v 0.330896 -0.0292956 -0.563252
v 0.322092 -0.0292956 -0.565471
v 0.322092 -0.0410015 -0.566247
v 0.310353 -0.0292956 -0.566691
v 0.30041 -0.0193225 -0.566691
v 0.356352 -0.0193225 0.565471
v 0.357669 -0.0748154 0.565249
v 0.369109 -0.0748154 -0.548386
v 0.380669 -0.0644241 -0.542617
v 0.34048 -0.0748154 -0.562697
v 0.35719 -0.0410015 -0.553933
v 0.337125 -0.0527128 -0.563696
v 0.322092 -0.0527128 -0.566691
v 0.216797 -0.0193225 -0.566691
v 0.345511 -0.0193225 0.566691
v 0.345511 -0.0748154 0.566691
v 0.333113 -0.0748154 -0.564916
v 0.322092 -0.0748154 -0.566691
v 0.205058 -0.0292956 -0.566691
v 0.205058 -0.0193225 -0.56658
v 0.240216 -0.0193225 0.566691
v 0.240216 -0.0748154 0.566691
v 0.193378 -0.0748154 -0.566691
v 0.193378 -0.0644241 -0.566691
v 0.193378 -0.0527128 -0.56658
v 0.193378 -0.0410015 -0.566247
v 0.193378 -0.0292956 -0.565249
v 0.191761 -0.0193225 -0.563918
v 0.228477 -0.0193225 0.565582
v 0.228477 -0.0748154 0.565582
v 0.181639 -0.0748154 -0.566247
v 0.181639 -0.0644241 -0.565471
v 0.183615 -0.0410015 -0.564029
v 0.185712 -0.0292956 -0.563141
v -0.0186487 -0.0748154 -0.491251
v 0.184035 -0.0193225 -0.560478
v 0.220091 -0.0193225 0.563363
v 0.219852 -0.0292956 0.563363
v 0.219672 -0.0410015 0.563363
v 0.216737 -0.0748154 0.562254
v 0.171756 -0.0748154 -0.564029
v -0.00625055 -0.0748154 -0.496021
v -0.0197867 -0.0193225 -0.465623
v -0.0197867 -0.0748154 0.465068
v -0.0173909 -0.0199417 0.490696
v -0.0197867 -0.0293336 0.490918
v -0.0123598 -0.0361127 0.492138
v -0.00948487 -0.0439184 0.49114
v -0.00163867 -0.047748 0.492471
v 0.206076 -0.0748154 0.558149
v 0.19254 -0.0748154 0.552602
v -0.0197867 -0.0641308 0.474055
v -0.0197867 -0.0418651 0.488033
v -0.0197867 -0.0527128 0.482708
f 1 2 3
f 1 3 10
f 1 10 21
f 1 21 11
f 1 11 4
f 1 4 12
f 1 12 24
f 1 24 38
f 1 38 53
f 1 53 66
f 1 66 51
f 1 51 63
f 1 63 75
f 1 75 87
f 1 87 101
f 1 101 107
f 1 107 111
f 1 111 117
f 1 117 126
f 1 126 133
f 1 133 142
f 1 142 155
f 1 155 169
f 1 169 188
f 1 188 203
f 1 203 212
f 1 212 218
f 1 218 226
f 1 226 234
f 1 234 241
f 1 241 235
f 1 235 227
f 1 227 219
f 1 219 213
f 1 213 204
f 1 204 189
f 1 189 170
f 1 170 156
f 1 156 144
f 1 144 135
f 1 135 128
f 1 128 120
f 1 120 119
f 1 119 112
f 1 112 108
f 1 108 104
f 1 104 91
f 1 91 80
f 1 80 67
f 1 67 55
f 1 55 54
f 1 54 39
f 1 39 27
f 1 27 15
f 1 15 7
f 1 7 2
f 2 5 6
f 2 6 3
f 2 7 8
f 2 8 5
f 3 6 9
f 3 9 10
f 4 11 12
f 5 13 14
f 5 14 6
f 5 8 13
f 6 14 9
f 7 15 16
f 7 16 8
f 8 17 13
f 8 16 18
f 8 18 19
f 8 19 17
f 9 14 20
f 9 20 21
f 9 21 10
f 11 22 23
f 11 23 12
f 11 21 20
f 11 20 35
f 11 35 46
f 11 46 45
f 11 45 44
f 11 44 41
f 11 41 43
f 11 43 57
f 11 57 70
f 11 70 69
f 11 69 68
f 11 68 79
f 11 79 81
f 11 81 92
f 11 92 105
f 11 105 109
f 11 109 113
f 11 113 121
f 11 121 129
f 11 129 136
f 11 136 145
f 11 145 157
f 11 157 171
f 11 171 190
f 11 190 205
f 11 205 214
f 11 214 220
f 11 220 228
f 11 228 238
f 11 238 248
f 11 248 249
f 11 249 242
f 11 242 233
f 11 233 240
f 11 240 239
f 11 239 229
f 11 229 221
f 11 221 216
f 11 216 215
f 11 215 208
f 11 208 206
f 11 206 192
f 11 192 191
f 11 191 172
f 11 172 158
f 11 158 147
f 11 147 146
f 11 146 137
f 11 137 130
f 11 130 122
f 11 122 114
f 11 114 110
f 11 110 106
f 11 106 99
f 11 99 96
f 11 96 102
f 11 102 88
f 11 88 76
f 11 76 64
f 11 64 49
f 11 49 36
f 11 36 22
f 12 23 37
f 12 37 24
f 13 25 26
f 13 26 14
f 13 17 25
f 14 26 20
f 15 27 28
f 15 28 29
f 15 29 16
f 16 29 30
f 16 30 18
f 17 19 31
f 17 31 32
f 17 32 33
f 17 33 25
f 18 34 19
f 18 30 34
f 19 34 31
f 20 26 35
f 22 36 37
f 22 37 23
f 24 37 52
f 24 52 38
f 25 33 35
f 25 35 26
f 27 39 40
f 27 40 28
f 28 40 29
f 29 40 30
f 30 41 34
f 30 40 42
f 30 42 43
f 30 43 41
f 31 34 41
f 31 41 44
f 31 44 32
f 32 44 45
f 32 45 33
f 33 45 46
f 33 46 35
f 36 47 48
f 36 48 37
f 36 49 47
f 37 48 50
f 37 50 51
f 37 51 52
f 38 52 53
f 39 54 42
f 39 42 40
f 42 54 55
f 42 55 56
f 42 56 57
f 42 57 43
f 47 58 59
f 47 59 60
f 47 60 48
f 47 49 61
f 47 61 58
f 48 60 62
f 48 62 63
f 48 63 50
f 49 64 65
f 49 65 61
f 50 63 51
f 51 66 52
f 52 66 53
f 55 67 68
f 55 68 69
f 55 69 70
f 55 70 56
f 56 70 57
f 58 61 65
f 58 65 71
f 58 71 72
f 58 72 59
f 59 72 73
f 59 73 60
f 60 73 72
f 60 72 62
f 62 72 63
f 63 74 75
f 63 72 74
f 64 76 77
f 64 77 65
f 65 77 78
f 65 78 71
f 67 79 68
f 67 80 81
f 67 81 79
f 71 78 74
f 71 74 72
f 74 78 82
f 74 82 83
f 74 83 84
f 74 84 75
f 75 84 85
f 75 85 86
f 75 86 87
f 76 88 89
f 76 89 77
f 77 89 90
f 77 90 78
f 78 90 82
f 80 91 92
f 80 92 81
f 82 90 93
f 82 93 83
f 83 93 94
f 83 94 95
f 83 95 84
f 84 95 85
f 85 95 96
f 85 96 97
f 85 97 86
f 86 97 98
f 86 98 99
f 86 99 100
f 86 100 87
f 87 100 101
f 88 102 103
f 88 103 89
f 89 103 93
f 89 93 90
f 91 104 105
f 91 105 92
f 93 103 94
f 94 103 102
f 94 102 95
f 95 102 96
f 96 99 98
f 96 98 97
f 99 106 100
f 100 106 101
f 101 106 107
f 104 108 105
f 105 108 109
f 106 110 107
f 107 110 111
f 108 112 109
f 109 112 119
f 109 119 113
f 110 114 115
f 110 115 116
f 110 116 118
f 110 118 111
f 111 118 117
f 113 119 120
f 113 120 121
f 114 122 123
f 114 123 115
f 115 123 124
f 115 124 125
f 115 125 116
f 116 125 118
f 117 118 127
f 117 127 126
f 118 125 127
f 120 128 129
f 120 129 121
f 122 130 123
f 123 130 124
f 124 131 132
f 124 132 125
f 124 130 131
f 125 132 127
f 126 127 133
f 127 134 133
f 127 132 134
f 128 135 136
f 128 136 129
f 130 137 131
f 131 137 138
f 131 138 139
f 131 139 140
f 131 140 132
f 132 140 134
f 133 134 141
f 133 141 142
f 134 140 143
f 134 143 141
f 135 144 145
f 135 145 136
f 137 146 138
f 138 146 147
f 138 147 148
f 138 148 139
f 139 148 149
f 139 149 150
f 139 150 151
f 139 151 140
f 140 151 143
f 141 143 142
f 142 143 152
f 142 152 153
f 142 153 154
f 142 154 155
f 143 151 152
f 144 156 157
f 144 157 145
f 147 158 159
f 147 159 148
f 148 159 149
f 149 158 160
f 149 160 161
f 149 161 150
f 149 159 158
f 150 161 151
f 151 161 162
f 151 162 163
f 151 163 152
f 152 163 164
f 152 164 153
f 153 164 165
f 153 165 154
f 154 165 166
f 154 166 155
f 155 166 167
f 155 167 168
f 155 168 169
f 156 170 171
f 156 171 157
f 158 172 173
f 158 173 160
f 160 173 174
f 160 174 175
f 160 175 162
f 160 162 161
f 162 164 163
f 162 175 176
f 162 176 177
f 162 177 164
f 164 177 178
f 164 178 165
f 165 178 166
f 166 178 167
f 167 179 180
f 167 180 181
f 167 181 168
f 167 178 182
f 167 182 179
f 168 181 183
f 168 183 184
f 168 184 169
f 169 185 186
f 169 186 187
f 169 187 188
f 169 184 185
f 170 189 171
f 171 189 190
f 172 191 176
f 172 176 174
f 172 174 173
f 174 176 175
f 176 191 192
f 176 192 193
f 176 193 177
f 177 193 182
f 177 182 178
f 179 182 194
f 179 194 195
f 179 195 196
f 179 196 180
f 180 196 181
f 181 196 197
f 181 197 183
f 182 193 194
f 183 197 184
f 184 197 185
f 185 198 186
f 185 197 196
f 185 196 198
f 186 198 199
f 186 199 187
f 187 199 200
f 187 200 188
f 188 200 201
f 188 201 202
f 188 202 203
f 189 204 190
f 190 204 205
f 192 206 207
f 192 207 193
f 193 207 208
f 193 208 209
f 193 209 195
f 193 195 194
f 195 209 196
f 196 209 198
f 198 209 210
f 198 210 199
f 199 210 200
f 200 210 201
f 201 210 211
f 201 211 202
f 202 211 216
f 202 216 221
f 202 221 222
f 202 222 217
f 202 217 212
f 202 212 203
f 204 213 214
f 204 214 205
f 206 208 207
f 208 215 210
f 208 210 209
f 210 215 211
f 211 215 216
f 212 217 218
f 213 219 220
f 213 220 214
f 217 222 223
f 217 223 218
f 218 223 224
f 218 224 225
f 218 225 226
f 219 227 228
f 219 228 220
f 221 229 222
f 222 229 223
f 223 229 224
f 224 229 230
f 224 230 231
f 224 231 225
f 225 231 226
f 226 231 232
f 226 232 233
f 226 233 234
f 227 235 236
f 227 236 237
f 227 237 228
f 228 237 238
f 229 239 230
f 230 239 231
f 231 239 240
f 231 240 232
f 232 240 233
f 233 241 234
f 233 242 241
f 235 243 244
f 235 244 236
f 235 241 243
f 236 244 237
f 237 244 238
f 238 244 245
f 238 245 246
f 238 246 247
f 238 247 248
f 241 244 243
f 241 242 250
f 241 250 252
f 241 252 251
f 241 251 244
f 242 249 250
f 244 251 245
f 245 251 246
f 246 251 247
f 247 251 252
f 247 252 248
f 248 252 250
f 248 250 249
