v 0.075919 -0.0193225 -0.508436
v -0.0197868 -0.0193225 -0.465585
v -0.0197868 0.190529 -0.563003
v -0.0058562 0.193343 -0.564955
v 0.075919 0.169879 -0.563871
v 0.075919 0.152701 0.540381
v 0.0751508 -0.0193225 0.513368
v -0.0150839 -0.0193225 0.491238
v -0.0197868 0.228537 0.54114
v -0.0197868 0.205014 -0.566583
v 0.0175737 0.193343 -0.56604
v 0.075919 0.181611 -0.566257
v 0.075919 0.16964 0.541465
v -0.0058562 0.216746 0.54114
v -0.0186719 0.212376 0.540055
v 0.0639745 0.157489 0.540055
v 0.0527139 0.16126 0.539513
v 0.075919 0.181611 0.541574
v -0.0197868 0.333822 0.54114
v -0.0197868 0.216746 -0.566691
v -0.0058562 0.205014 -0.566691
v 0.0409849 0.193343 -0.566691
v 0.029284 0.193343 -0.566474
v 0.075919 0.193343 -0.566691
v 0.075919 0.333822 0.541574
v -0.0058562 0.345554 0.54114
v -0.0196462 0.349504 0.539404
v -0.0197868 0.513747 0.412804
v -0.0197868 0.240149 -0.566691
v 0.075919 0.240149 -0.566691
v 0.075919 0.345554 0.541465
v 0.0644242 0.362673 0.538753
v 0.00586344 0.364289 0.537452
v -0.0058562 0.36369 0.536909
v -0.0192247 0.367641 0.533004
v -0.0186719 0.426957 0.503713
v -0.0192247 0.473704 0.46889
v -0.0197868 0.529967 0.380476
v -0.0192247 0.505008 0.430162
v 0.0527139 0.529967 0.380476
v -0.0197868 0.252779 -0.565932
v 0.075919 0.25206 -0.566149
v 0.075919 0.364289 0.53756
v 0.075919 0.38027 0.530075
v 0.0644242 0.380509 0.529966
v 0.0175737 0.380509 0.529966
v -0.0058562 0.380031 0.529749
v -0.0186719 0.38039 0.527363
v -0.0186719 0.411095 0.511958
v -0.0058562 0.42965 0.50469
v -0.0183909 0.441621 0.495035
v -0.0186719 0.462391 0.479847
v 0.00586344 0.450779 0.491563
v 0.0175737 0.450899 0.491672
v 0.0409849 0.483101 0.459669
v -0.0058562 0.49166 0.450882
v -0.0186719 0.485375 0.457065
v -0.0186719 0.496868 0.443505
v -0.0197868 0.535714 0.368977
v -0.0058562 0.50016 0.439274
v 0.029284 0.501836 0.436237
v 0.0527139 0.513687 0.412804
v 0.0527139 0.535714 0.368977
v 0.0644242 0.523922 0.392409
v 0.0644242 0.540143 0.359973
v -0.0197868 0.264391 -0.562569
v 0.075919 0.26445 -0.562569
v 0.075919 0.434618 0.502628
v 0.00586344 0.409778 0.515321
v 0.00586344 0.392421 0.524
v -0.0058562 0.409419 0.515104
v 0.00586344 0.436175 0.501761
v -0.0058562 0.443237 0.496228
v 0.0175737 0.439227 0.500242
v 0.0701669 0.450839 0.491672
v 0.0644242 0.471369 0.471385
v 0.0644242 0.439227 0.500242
v 0.0527139 0.480048 0.462598
v 0.029284 0.49166 0.450882
v -0.0197868 0.546308 0.347606
v 0.0409849 0.553311 0.333612
v 0.0409849 0.496868 0.443397
v 0.0409849 0.504948 0.430053
v 0.0644242 0.51668 0.406512
v 0.075919 0.526017 0.387853
v 0.075919 0.537449 0.364095
v 0.0644242 0.546787 0.345436
v 0.0527139 0.550378 0.339253
v -0.0197868 0.275344 -0.557145
v 0.0644242 0.275344 -0.557145
v 0.075919 0.275524 -0.557036
v 0.075919 0.468317 0.474314
v 0.0644242 0.482203 0.459235
v 0.00586344 0.563426 0.313
v -0.0192247 0.551276 0.337083
v -0.018953 0.56175 0.310396
v -0.0195057 0.566778 0.293364
v -0.0197868 0.572524 0.2708
v 0.029284 0.561152 0.317447
v 0.0175737 0.563426 0.313
v 0.0527139 0.495611 0.442963
v 0.0527139 0.504589 0.429185
v 0.075919 0.516141 0.405644
v 0.075919 0.545171 0.345762
v 0.0644242 0.550917 0.334696
v 0.0527139 0.552832 0.333395
v 0.0409849 0.558518 0.322004
v -0.0197868 0.360877 -0.514294
v 0.075919 0.360877 -0.514294
v 0.075919 0.479151 0.461188
v 0.00586344 0.568574 0.298571
v -0.0058562 0.567616 0.298571
v -0.0058562 0.560972 0.317122
v -0.0186719 0.557441 0.322546
v -0.0058562 0.570609 0.286964
v -0.0058562 0.5745 0.271451
v -0.0197868 0.586111 0.216558
v 0.0409849 0.562588 0.311372
v 0.029284 0.568035 0.298571
v 0.0175737 0.568574 0.298571
v 0.075919 0.491002 0.443722
v 0.075919 0.500698 0.429294
v 0.075919 0.509617 0.415842
v 0.0644242 0.505726 0.424629
v 0.0748698 0.551695 0.327645
v 0.075919 0.563726 0.292279
v 0.0523111 0.56193 0.308226
v 0.075919 0.381287 -0.503988
v -0.0197868 0.381706 -0.503771
v 0.0175737 0.571507 0.286964
v 0.00586344 0.573482 0.279044
v 0.00586344 0.587847 0.22144
v -0.00740196 0.587069 0.220138
v -0.0186719 0.588985 0.205384
v -0.0186719 0.591319 0.193126
v -0.0197868 0.592157 0.169693
v 0.0409849 0.566778 0.298571
v 0.0409849 0.57019 0.286964
v 0.029284 0.571208 0.286964
v 0.029284 0.574919 0.272969
v 0.0409849 0.587847 0.221331
v 0.075919 0.568873 0.275356
v 0.0527139 0.568694 0.286964
v 0.0644242 0.395713 -0.494984
v 0.075919 0.395772 -0.494875
v -0.0197868 0.396012 -0.494767
v 0.029284 0.58665 0.226322
v 0.0409849 0.591319 0.20495
v 0.00586344 0.591319 0.20495
v -0.0058562 0.59078 0.20495
v -0.0058562 0.591977 0.193126
v -0.0186719 0.592097 0.181409
v 0.00586344 0.592157 0.193126
v -0.0186719 0.592157 -0.0749365
v -0.0192247 0.591738 -0.0866527
v -0.0197868 0.569951 -0.179297
v 0.0474677 0.575397 0.265484
v 0.0409849 0.582939 0.23999
v 0.0590093 0.58689 0.218185
v 0.0527139 0.5909 0.20495
v 0.0644242 0.570489 0.275247
v 0.075919 0.578211 0.23999
v -0.0192247 0.407743 -0.483918
v 0.075919 0.407743 -0.483593
v -0.0197868 0.436833 -0.446926
v 0.0527139 0.591977 0.193126
v 0.0409849 0.592157 0.193126
v -0.0058562 0.592157 -0.087846
v 0.00586344 0.591798 -0.0995622
v -0.0058562 0.591319 -0.0995622
v -0.0192247 0.590062 -0.0983689
v -0.0058562 0.580306 -0.146427
v -0.0058562 0.573482 -0.173656
v -0.0058562 0.568574 -0.193183
v -0.0197868 0.566539 -0.192207
v -0.0178194 0.585992 -0.11616
v -0.0058562 0.589104 -0.111278
v 0.0644242 0.589284 0.20495
v 0.0644242 0.591439 0.193126
v 0.075919 0.588386 0.198875
v 0.0644242 0.413669 -0.477843
v -0.0181192 0.423066 -0.466887
v 0.0754225 0.420253 -0.469707
v 0.075919 0.431446 -0.453869
v -0.0197868 0.469993 -0.396806
v 0.0644242 0.470831 -0.395613
v 0.0644242 0.424204 -0.465802
v 0.075919 0.591618 0.181735
v 0.0644242 0.592157 0.181409
v 0.0527139 0.592157 -0.087846
v 0.00586344 0.589942 -0.111278
v 0.0409849 0.591798 -0.0995622
v 0.00586344 0.573901 -0.175392
v -0.0074488 0.563486 -0.208805
v -0.0186345 0.561092 -0.210758
v 0.00586344 0.569173 -0.193183
v -0.0186719 0.552832 -0.23202
v -0.0197868 0.53727 -0.264023
v 0.00586344 0.585633 -0.128527
v 0.0740266 0.443656 -0.435969
v 0.0754412 0.467658 -0.399518
v 0.075919 0.481844 -0.373699
v -0.0197868 0.479569 -0.379341
v 0.0644242 0.479569 -0.379341
v 0.075919 0.592157 0.16991
v 0.0644242 0.592157 -0.0761298
v 0.075919 0.591618 -0.0761298
v 0.0644242 0.591498 -0.087846
v 0.0527139 0.591319 -0.0995622
v 0.029284 0.589942 -0.111278
v 0.0409849 0.589882 -0.111278
v 0.029284 0.585633 -0.128527
v 0.029284 0.584017 -0.134711
v 0.00586344 0.563486 -0.209998
v -0.0058562 0.555047 -0.228332
v 0.0409849 0.584495 -0.131239
v 0.029284 0.574978 -0.167364
v 0.0175737 0.568394 -0.193183
v 0.029284 0.551336 -0.235817
v 0.0527139 0.527932 -0.282682
v -0.0197868 0.497466 -0.34365
v 0.075919 0.492618 -0.352328
v 0.0644242 0.524999 -0.28854
v 0.075919 0.592157 -0.0644136
v 0.075919 0.589882 -0.087846
v 0.0644242 0.589822 -0.0995622
v 0.0551684 0.58683 -0.118221
v 0.0542035 0.550677 -0.234515
v 0.0409849 0.551216 -0.2356
v 0.0175737 0.555047 -0.228332
v 0.0245905 0.563307 -0.206744
v 0.0527139 0.58252 -0.134711
v 0.0409849 0.580126 -0.146427
v 0.0527139 0.568634 -0.181467
v 0.0644242 0.567497 -0.181467
v 0.0409849 0.56612 -0.193183
v 0.0527139 0.579049 -0.146427
v 0.0644242 0.54128 -0.255453
v 0.075919 0.526256 -0.285069
v 0.075104 0.58659 -0.103576
v 0.075919 0.578929 -0.134711
v 0.075207 0.574919 -0.150983
v 0.0644242 0.577851 -0.146427
v 0.0644242 0.547744 -0.240048
v 0.075919 0.540801 -0.255019
v 0.0527139 0.562648 -0.200126
v 0.0644242 0.552174 -0.227247
v 0.0644242 0.572584 -0.164327
v 0.075919 0.564863 -0.186023
v 0.0634499 0.563666 -0.193726
v 0.075919 0.569771 -0.169642
v 0.075919 0.546428 -0.23994
v 0.0634499 0.560254 -0.203815
v 0.075919 0.553012 -0.220847
f 1 2 3
f 1 3 4
f 1 4 5
f 1 5 12
f 1 12 24
f 1 24 30
f 1 30 42
f 1 42 67
f 1 67 91
f 1 91 109
f 1 109 128
f 1 128 145
f 1 145 164
f 1 164 184
f 1 184 202
f 1 202 222
f 1 222 239
f 1 239 245
f 1 245 252
f 1 252 254
f 1 254 249
f 1 249 251
f 1 251 241
f 1 241 225
f 1 225 207
f 1 207 224
f 1 224 205
f 1 205 188
f 1 188 180
f 1 180 162
f 1 162 142
f 1 142 126
f 1 126 104
f 1 104 86
f 1 86 85
f 1 85 103
f 1 103 123
f 1 123 122
f 1 122 121
f 1 121 110
f 1 110 92
f 1 92 68
f 1 68 44
f 1 44 43
f 1 43 31
f 1 31 25
f 1 25 18
f 1 18 13
f 1 13 6
f 1 6 7
f 1 7 8
f 1 8 2
f 2 8 9
f 2 9 19
f 2 19 28
f 2 28 38
f 2 38 59
f 2 59 80
f 2 80 98
f 2 98 117
f 2 117 136
f 2 136 156
f 2 156 175
f 2 175 198
f 2 198 221
f 2 221 203
f 2 203 185
f 2 185 165
f 2 165 146
f 2 146 129
f 2 129 108
f 2 108 89
f 2 89 66
f 2 66 41
f 2 41 29
f 2 29 20
f 2 20 10
f 2 10 3
f 3 10 4
f 4 11 5
f 4 10 11
f 5 11 12
f 6 13 14
f 6 14 15
f 6 15 16
f 6 16 7
f 7 16 17
f 7 17 15
f 7 15 8
f 8 15 9
f 9 15 14
f 9 14 13
f 9 13 18
f 9 18 25
f 9 25 19
f 10 20 21
f 10 21 22
f 10 22 23
f 10 23 11
f 11 23 12
f 12 23 22
f 12 22 24
f 15 17 16
f 19 25 26
f 19 26 27
f 19 27 28
f 20 29 30
f 20 30 24
f 20 24 22
f 20 22 21
f 25 31 26
f 26 31 32
f 26 32 33
f 26 33 34
f 26 34 27
f 27 34 35
f 27 35 36
f 27 36 37
f 27 37 28
f 28 37 39
f 28 39 40
f 28 40 38
f 29 41 42
f 29 42 30
f 31 43 32
f 32 43 44
f 32 44 45
f 32 45 46
f 32 46 33
f 33 46 47
f 33 47 34
f 34 47 35
f 35 47 48
f 35 48 49
f 35 49 36
f 36 49 50
f 36 50 51
f 36 51 52
f 36 52 37
f 37 52 53
f 37 53 54
f 37 54 55
f 37 55 56
f 37 56 57
f 37 57 58
f 37 58 39
f 38 40 63
f 38 63 59
f 39 58 60
f 39 60 61
f 39 61 62
f 39 62 40
f 40 62 64
f 40 64 65
f 40 65 63
f 41 66 67
f 41 67 42
f 44 68 69
f 44 69 45
f 45 69 46
f 46 69 70
f 46 70 47
f 47 70 71
f 47 71 48
f 48 71 49
f 49 71 50
f 50 72 73
f 50 73 51
f 50 71 72
f 51 73 52
f 52 73 53
f 53 73 74
f 53 74 54
f 54 75 76
f 54 76 55
f 54 74 77
f 54 77 75
f 55 76 78
f 55 78 79
f 55 79 56
f 56 60 58
f 56 58 57
f 56 79 60
f 59 63 81
f 59 81 80
f 60 79 82
f 60 82 61
f 61 83 62
f 61 82 83
f 62 84 64
f 62 83 84
f 63 65 81
f 64 84 85
f 64 85 65
f 65 86 87
f 65 87 88
f 65 88 81
f 65 85 86
f 66 89 67
f 67 89 90
f 67 90 91
f 68 74 69
f 68 92 75
f 68 75 77
f 68 77 74
f 69 74 72
f 69 72 71
f 69 71 70
f 72 74 73
f 75 92 76
f 76 92 78
f 78 93 79
f 78 92 93
f 79 93 82
f 80 81 94
f 80 94 95
f 80 95 96
f 80 96 97
f 80 97 98
f 81 99 100
f 81 100 94
f 81 88 99
f 82 101 102
f 82 102 83
f 82 93 101
f 83 102 84
f 84 102 103
f 84 103 85
f 86 104 87
f 87 104 105
f 87 105 106
f 87 106 88
f 88 106 107
f 88 107 99
f 89 108 109
f 89 109 90
f 90 109 91
f 92 110 93
f 93 110 101
f 94 100 120
f 94 120 111
f 94 111 112
f 94 112 113
f 94 113 95
f 95 113 114
f 95 114 96
f 96 114 112
f 96 112 97
f 97 112 115
f 97 115 98
f 98 115 116
f 98 116 117
f 99 107 118
f 99 118 119
f 99 119 100
f 100 119 120
f 101 121 122
f 101 122 123
f 101 123 124
f 101 124 102
f 101 110 121
f 102 124 123
f 102 123 103
f 104 125 105
f 104 126 125
f 105 125 126
f 105 126 127
f 105 127 118
f 105 118 106
f 106 118 107
f 108 128 109
f 108 129 128
f 111 130 131
f 111 131 115
f 111 115 112
f 111 120 130
f 112 114 113
f 115 131 116
f 116 131 132
f 116 132 133
f 116 133 117
f 117 133 134
f 117 134 135
f 117 135 136
f 118 127 126
f 118 126 137
f 118 137 119
f 119 137 138
f 119 138 139
f 119 139 120
f 120 139 140
f 120 140 141
f 120 141 130
f 126 142 143
f 126 143 137
f 128 129 144
f 128 144 145
f 129 146 144
f 130 141 147
f 130 147 131
f 131 147 132
f 132 147 141
f 132 141 148
f 132 148 149
f 132 149 150
f 132 150 133
f 133 150 134
f 134 150 135
f 135 151 152
f 135 152 136
f 135 150 151
f 136 152 153
f 136 153 167
f 136 167 189
f 136 189 205
f 136 205 224
f 136 224 206
f 136 206 190
f 136 190 168
f 136 168 154
f 136 154 155
f 136 155 156
f 137 143 138
f 138 143 157
f 138 157 158
f 138 158 139
f 139 158 140
f 140 158 141
f 141 159 160
f 141 160 148
f 141 158 159
f 142 161 143
f 142 162 159
f 142 159 161
f 143 161 157
f 144 146 163
f 144 163 164
f 144 164 145
f 146 165 163
f 148 160 166
f 148 166 167
f 148 167 153
f 148 153 149
f 149 153 151
f 149 151 150
f 151 153 152
f 154 168 155
f 155 168 169
f 155 169 170
f 155 170 171
f 155 171 156
f 156 172 173
f 156 173 174
f 156 174 175
f 156 171 176
f 156 176 177
f 156 177 172
f 157 161 159
f 157 159 158
f 159 162 178
f 159 178 160
f 160 178 179
f 160 179 166
f 162 180 178
f 163 181 164
f 163 165 182
f 163 182 181
f 164 181 183
f 164 183 184
f 165 185 186
f 165 186 187
f 165 187 182
f 166 179 188
f 166 188 189
f 166 189 167
f 168 190 192
f 168 192 169
f 169 191 170
f 169 192 210
f 169 210 191
f 170 191 177
f 170 177 171
f 171 177 176
f 172 193 173
f 172 177 199
f 172 199 193
f 173 193 174
f 174 194 195
f 174 195 175
f 174 193 196
f 174 196 194
f 175 195 197
f 175 197 198
f 177 191 199
f 178 180 188
f 178 188 179
f 181 182 187
f 181 187 183
f 183 187 184
f 184 187 200
f 184 200 201
f 184 201 202
f 185 203 186
f 186 203 204
f 186 204 202
f 186 202 201
f 186 201 200
f 186 200 187
f 188 205 189
f 190 206 207
f 190 207 208
f 190 208 209
f 190 209 192
f 191 210 212
f 191 212 199
f 192 209 211
f 192 211 210
f 193 199 212
f 193 212 213
f 193 213 196
f 194 196 214
f 194 214 215
f 194 215 197
f 194 197 195
f 196 213 211
f 196 211 216
f 196 216 217
f 196 217 218
f 196 218 214
f 197 215 198
f 198 215 219
f 198 219 220
f 198 220 221
f 202 204 222
f 203 221 204
f 204 221 223
f 204 223 222
f 206 224 207
f 207 225 226
f 207 226 208
f 208 226 209
f 209 226 227
f 209 227 211
f 210 211 212
f 211 227 216
f 211 213 212
f 214 228 229
f 214 229 230
f 214 230 215
f 214 218 231
f 214 231 228
f 215 230 219
f 216 227 232
f 216 232 233
f 216 233 217
f 217 233 218
f 218 234 235
f 218 235 236
f 218 236 231
f 218 233 237
f 218 237 234
f 219 229 238
f 219 238 223
f 219 223 220
f 219 230 229
f 220 223 221
f 222 223 239
f 223 238 239
f 225 240 226
f 225 241 240
f 226 240 241
f 226 241 227
f 227 241 242
f 227 242 243
f 227 243 232
f 228 244 229
f 228 231 244
f 229 244 245
f 229 245 238
f 231 236 246
f 231 246 247
f 231 247 244
f 232 243 248
f 232 248 237
f 232 237 233
f 234 237 235
f 235 249 250
f 235 250 236
f 235 237 248
f 235 248 251
f 235 251 249
f 236 250 246
f 238 245 239
f 241 251 242
f 242 251 243
f 243 251 248
f 244 247 252
f 244 252 245
f 246 253 247
f 246 250 253
f 247 254 252
f 247 253 249
f 247 249 254
f 249 253 250
