v 0.26868 0.547889 -0.292679
v 0.264556 0.547889 -0.294133
v 0.26868 0.547889 -0.332968
v 0.26868 0.720326 -0.373185
v 0.109094 0.547889 -0.383383
v 0.109094 0.726577 -0.451627
v 0.109094 0.720545 -0.449275
v 0.238718 0.547889 -0.355949
v 0.262759 0.711615 -0.408088
v 0.26868 0.706147 -0.401104
v 0.26868 0.72049 -0.373275
v 0.109094 0.547889 -0.416365
v 0.26868 0.727761 -0.377422
v 0.109094 0.730932 -0.457587
v 0.230642 0.547889 -0.362143
v 0.246498 0.714203 -0.421518
v 0.254355 0.71956 -0.417837
v 0.265102 0.720326 -0.409883
v 0.26868 0.720326 -0.407118
v 0.223207 0.547889 -0.367817
v 0.109141 0.705765 -0.47143
v 0.119482 0.696452 -0.466385
v 0.109297 0.547889 -0.416329
v 0.109094 0.705765 -0.47143
v 0.26868 0.732117 -0.384694
v 0.268601 0.732153 -0.384837
v 0.1237 0.733101 -0.458377
v 0.109094 0.731607 -0.471897
v 0.235844 0.705765 -0.423439
v 0.24103 0.71956 -0.42597
v 0.249309 0.723898 -0.423367
v 0.21877 0.566623 -0.378679
v 0.26868 0.725374 -0.407298
v 0.22127 0.547889 -0.369092
v 0.109094 0.720326 -0.476098
v 0.1237 0.720326 -0.473638
v 0.124075 0.705036 -0.468432
v 0.115671 0.56799 -0.421859
v 0.124091 0.547889 -0.411553
v 0.26868 0.732153 -0.384891
v 0.254652 0.733393 -0.40017
v 0.167361 0.733958 -0.443834
v 0.138259 0.734049 -0.458377
v 0.109141 0.731607 -0.471897
v 0.232876 0.698439 -0.42202
v 0.22555 0.705765 -0.427891
v 0.21599 0.715697 -0.435611
v 0.225175 0.720453 -0.433331
v 0.21499 0.556928 -0.376776
v 0.205289 0.551096 -0.37902
v 0.220067 0.725392 -0.437299
v 0.249309 0.729183 -0.423367
v 0.265337 0.72993 -0.410063
v 0.26868 0.731643 -0.403204
v 0.211256 0.547889 -0.375034
v 0.1237 0.731607 -0.47073
v 0.138259 0.730659 -0.468737
v 0.138837 0.71987 -0.46897
v 0.134369 0.709391 -0.467067
v 0.148147 0.729001 -0.466744
v 0.148147 0.724408 -0.466744
v 0.129183 0.699696 -0.4652
v 0.139399 0.547889 -0.405215
v 0.14407 0.714713 -0.465056
v 0.175187 0.712453 -0.451339
v 0.26868 0.732172 -0.385825
v 0.240109 0.733866 -0.414731
v 0.26868 0.732299 -0.400852
v 0.210991 0.733921 -0.429274
v 0.199697 0.547889 -0.380241
v 0.196416 0.547889 -0.381606
v 0.20857 0.547889 -0.376273
v 0.220067 0.728618 -0.437299
v 0.240109 0.730787 -0.425557
v 0.254355 0.731552 -0.414839
v 0.167361 0.731187 -0.455307
v 0.210991 0.730313 -0.439184
v 0.179264 0.72973 -0.453027
v 0.196448 0.731552 -0.442147
f 1 2 5
f 1 5 12
f 1 12 23
f 1 23 39
f 1 39 63
f 1 63 71
f 1 71 70
f 1 70 72
f 1 72 55
f 1 55 34
f 1 34 20
f 1 20 15
f 1 15 8
f 1 8 3
f 1 3 10
f 1 10 19
f 1 19 33
f 1 33 54
f 1 54 68
f 1 68 66
f 1 66 40
f 1 40 25
f 1 25 13
f 1 13 11
f 1 11 4
f 1 4 2
f 2 4 6
f 2 6 7
f 2 7 5
f 3 8 9
f 3 9 10
f 4 11 6
f 5 7 6
f 5 6 14
f 5 14 28
f 5 28 35
f 5 35 24
f 5 24 12
f 6 11 13
f 6 13 14
f 8 15 9
f 9 16 17
f 9 17 18
f 9 18 19
f 9 19 10
f 9 15 20
f 9 20 16
f 12 21 22
f 12 22 23
f 12 24 21
f 13 25 14
f 14 25 26
f 14 26 27
f 14 27 28
f 16 29 30
f 16 30 31
f 16 31 17
f 16 20 32
f 16 32 29
f 17 31 18
f 18 31 19
f 19 31 33
f 20 34 32
f 21 24 35
f 21 35 36
f 21 36 37
f 21 37 22
f 22 37 23
f 23 38 39
f 23 37 38
f 25 40 26
f 26 40 41
f 26 41 42
f 26 42 27
f 27 42 43
f 27 43 28
f 28 43 44
f 28 44 35
f 29 45 46
f 29 46 47
f 29 47 48
f 29 48 30
f 29 32 49
f 29 49 50
f 29 50 45
f 30 48 51
f 30 51 31
f 31 51 73
f 31 73 52
f 31 52 33
f 32 34 49
f 33 52 53
f 33 53 54
f 34 55 49
f 35 44 56
f 35 56 57
f 35 57 36
f 36 58 59
f 36 59 37
f 36 57 60
f 36 60 61
f 36 61 58
f 37 59 62
f 37 62 38
f 38 62 59
f 38 59 39
f 39 59 64
f 39 64 65
f 39 65 63
f 40 66 41
f 41 67 42
f 41 66 68
f 41 68 67
f 42 67 43
f 43 56 44
f 43 67 69
f 43 69 57
f 43 57 56
f 45 50 70
f 45 70 46
f 46 70 47
f 47 65 64
f 47 64 61
f 47 61 51
f 47 51 48
f 47 70 71
f 47 71 65
f 49 55 50
f 50 55 72
f 50 72 70
f 51 61 60
f 51 60 73
f 52 73 74
f 52 74 75
f 52 75 53
f 53 75 54
f 54 75 68
f 57 76 77
f 57 77 78
f 57 78 60
f 57 69 76
f 58 61 64
f 58 64 59
f 60 78 73
f 63 65 71
f 67 68 75
f 67 75 74
f 67 74 69
f 69 79 76
f 69 74 79
f 73 78 77
f 73 77 74
f 74 77 79
f 76 79 77
