v 0.211011 0.733926 0.429275
v 0.196472 0.733179 0.429275
v 0.183471 0.73205 0.444932
v 0.183471 0.732014 0.445149
v 0.196472 0.731558 0.442149
v 0.240128 0.730793 0.42555
v 0.240128 0.733871 0.414735
v 0.366834 0.733671 0.302558
v 0.183471 0.730793 0.429014
v 0.183471 0.720323 0.450658
v 0.211011 0.73032 0.439177
v 0.220081 0.728626 0.437307
v 0.249334 0.729191 0.423361
v 0.254375 0.731558 0.414836
v 0.26981 0.732196 0.400905
v 0.283765 0.733325 0.385625
v 0.298304 0.733725 0.371085
v 0.343147 0.732269 0.343164
v 0.357103 0.732086 0.327754
v 0.371038 0.732979 0.302558
v 0.356947 0.731121 0.302558
v 0.183471 0.730757 0.428927
v 0.183471 0.718574 0.450035
v 0.216013 0.715697 0.43561
v 0.211109 0.72045 0.439293
v 0.220081 0.725385 0.437307
v 0.249334 0.723892 0.423361
v 0.291044 0.727625 0.392917
v 0.307082 0.7289 0.379493
v 0.3231 0.729756 0.366084
v 0.265353 0.729938 0.410067
v 0.312298 0.731267 0.370998
v 0.327733 0.732086 0.35711
v 0.33908 0.730265 0.352645
v 0.352626 0.730265 0.33909
v 0.37098 0.731267 0.312315
v 0.379738 0.730466 0.302558
v 0.354514 0.730284 0.302558
v 0.183471 0.730702 0.428855
v 0.183471 0.706647 0.445686
v 0.22557 0.705772 0.427898
v 0.235866 0.705772 0.423448
v 0.2252 0.72045 0.433334
v 0.206301 0.710289 0.437626
v 0.183471 0.547889 0.386959
v 0.203985 0.547889 0.378449
v 0.241043 0.719558 0.425985
v 0.246512 0.714204 0.42152
v 0.254375 0.719558 0.417837
v 0.291044 0.727552 0.392917
v 0.339372 0.720323 0.352877
v 0.346631 0.720323 0.346658
v 0.35286 0.720323 0.33938
v 0.366075 0.729756 0.323115
v 0.379485 0.7289 0.307096
v 0.38186 0.729373 0.302558
v 0.352568 0.7291 0.302558
v 0.189115 0.727643 0.421983
v 0.183471 0.720323 0.421491
v 0.232888 0.698434 0.422027
v 0.215021 0.556921 0.376753
v 0.218777 0.566627 0.378667
v 0.183471 0.547889 0.35308
v 0.211284 0.547889 0.375028
v 0.223215 0.547889 0.367809
v 0.262784 0.711618 0.408095
v 0.304513 0.715005 0.377522
v 0.307082 0.724711 0.379493
v 0.329932 0.720323 0.360154
v 0.320531 0.712365 0.364112
v 0.33653 0.709852 0.350688
v 0.35068 0.709852 0.336553
v 0.305934 0.55215 0.305951
v 0.36409 0.712365 0.320549
v 0.360139 0.720323 0.329943
v 0.379485 0.724711 0.307096
v 0.382288 0.723036 0.302558
v 0.349843 0.726004 0.302558
v 0.256302 0.547889 0.302558
v 0.225297 0.547889 0.366229
v 0.230669 0.547889 0.36214
v 0.241861 0.547889 0.353558
v 0.312298 0.720049 0.373593
v 0.272126 0.547889 0.330334
v 0.282675 0.547889 0.322231
v 0.288203 0.547889 0.317983
v 0.29844 0.547889 0.310082
v 0.300153 0.547889 0.308734
v 0.307569 0.549655 0.302558
v 0.306751 0.547889 0.302558
v 0.304844 0.547889 0.304863
v 0.37752 0.715005 0.30453
v 0.379758 0.716844 0.302558
f 1 2 3
f 1 3 4
f 1 4 5
f 1 5 6
f 1 6 7
f 1 7 8
f 1 8 2
f 2 9 3
f 2 8 9
f 3 9 22
f 3 22 39
f 3 39 59
f 3 59 63
f 3 63 45
f 3 45 40
f 3 40 23
f 3 23 10
f 3 10 4
f 4 10 11
f 4 11 5
f 5 11 6
f 6 12 13
f 6 13 14
f 6 14 7
f 6 11 12
f 7 14 15
f 7 15 16
f 7 16 17
f 7 17 8
f 8 17 18
f 8 18 19
f 8 19 20
f 8 20 37
f 8 37 56
f 8 56 77
f 8 77 93
f 8 93 89
f 8 89 90
f 8 90 79
f 8 79 78
f 8 78 57
f 8 57 38
f 8 38 21
f 8 21 9
f 9 21 22
f 10 23 24
f 10 24 25
f 10 25 26
f 10 26 12
f 10 12 11
f 12 26 27
f 12 27 13
f 13 27 50
f 13 50 28
f 13 28 29
f 13 29 30
f 13 30 31
f 13 31 14
f 14 31 32
f 14 32 33
f 14 33 15
f 15 33 16
f 16 33 17
f 17 33 18
f 18 33 34
f 18 34 35
f 18 35 19
f 19 35 36
f 19 36 20
f 20 36 37
f 21 38 22
f 22 38 39
f 23 40 24
f 24 41 42
f 24 42 43
f 24 43 26
f 24 26 25
f 24 40 44
f 24 44 45
f 24 45 46
f 24 46 41
f 26 43 47
f 26 47 27
f 27 47 48
f 27 48 49
f 27 49 50
f 28 50 51
f 28 51 29
f 29 51 30
f 30 32 31
f 30 51 34
f 30 34 32
f 32 34 33
f 34 51 52
f 34 52 35
f 35 53 54
f 35 54 36
f 35 52 53
f 36 54 37
f 37 55 56
f 37 54 55
f 38 57 39
f 39 58 59
f 39 57 58
f 40 45 44
f 41 60 42
f 41 46 60
f 42 60 46
f 42 46 61
f 42 61 62
f 42 62 48
f 42 48 47
f 42 47 43
f 45 63 79
f 45 79 90
f 45 90 91
f 45 91 88
f 45 88 87
f 45 87 86
f 45 86 85
f 45 85 84
f 45 84 82
f 45 82 81
f 45 81 80
f 45 80 65
f 45 65 64
f 45 64 46
f 46 64 61
f 48 62 65
f 48 65 66
f 48 66 49
f 49 66 67
f 49 67 68
f 49 68 50
f 50 68 51
f 51 68 69
f 51 69 70
f 51 70 71
f 51 71 52
f 52 72 53
f 52 71 73
f 52 73 72
f 53 72 74
f 53 74 75
f 53 75 76
f 53 76 55
f 53 55 54
f 55 76 77
f 55 77 56
f 57 78 58
f 58 78 59
f 59 78 63
f 61 64 65
f 61 65 62
f 63 78 79
f 65 80 66
f 66 70 67
f 66 80 81
f 66 81 82
f 66 82 70
f 67 70 69
f 67 69 83
f 67 83 68
f 68 83 69
f 70 82 84
f 70 84 85
f 70 85 86
f 70 86 71
f 71 86 87
f 71 87 88
f 71 88 73
f 72 73 89
f 72 89 74
f 73 90 89
f 73 88 91
f 73 91 90
f 74 92 75
f 74 89 92
f 75 92 76
f 76 92 77
f 77 92 93
f 89 93 92
