v -0.00726521 -0.72033 -0.24961
v -0.00726521 -0.694058 -0.24961
v 0.00728194 -0.72033 -0.24961
v -0.00726521 -0.729202 -0.248496
v -0.017845 -0.728278 -0.247821
v -0.019507 -0.72033 -0.248038
v -0.019507 -0.694058 -0.248038
v 0.00728194 -0.694058 -0.24961
v 0.00965881 -0.694058 -0.249306
v 0.0195237 -0.72033 -0.248038
v 0.0178617 -0.728278 -0.247821
v 0.00728194 -0.729202 -0.248496
v 0.0654705 -0.730958 -0.236417
v -0.0590202 -0.730824 -0.236757
v -0.0590202 -0.72033 -0.240686
v -0.0590202 -0.694058 -0.240892
v 0.0195237 -0.694058 -0.248038
v 0.0654705 -0.694058 -0.240129
v 0.0654705 -0.72033 -0.240005
v 0.0775515 -0.729784 -0.234819
v 0.10913 -0.730409 -0.221007
v 0.0654705 -0.730958 -0.228926
v -0.0590202 -0.730824 -0.229519
v -0.0590202 -0.694058 -0.225301
v 0.0682942 -0.694058 -0.239314
v 0.0799462 -0.72033 -0.235814
v 0.11803 -0.728708 -0.219094
v 0.123552 -0.729889 -0.211211
v 0.123552 -0.729885 -0.21102
v 0.123552 -0.729629 -0.201086
v 0.0945827 -0.730525 -0.215398
v -0.0590202 -0.72033 -0.226209
v 0.123552 -0.694058 -0.196946
v 0.0799462 -0.694058 -0.235814
v 0.10913 -0.72033 -0.223724
v 0.118852 -0.72033 -0.219501
v 0.123552 -0.72033 -0.216913
v 0.123552 -0.720468 -0.198209
v 0.123552 -0.72033 -0.198198
v 0.123552 -0.694058 -0.216913
v 0.10913 -0.694058 -0.223724
v 0.111024 -0.694058 -0.222909
v 0.118852 -0.694058 -0.219501
f 1 2 8
f 1 8 3
f 1 3 12
f 1 12 4
f 1 4 5
f 1 5 6
f 1 6 7
f 1 7 2
f 2 7 16
f 2 16 24
f 2 24 33
f 2 33 40
f 2 40 43
f 2 43 42
f 2 42 41
f 2 41 34
f 2 34 25
f 2 25 18
f 2 18 17
f 2 17 9
f 2 9 8
f 3 8 9
f 3 9 10
f 3 10 11
f 3 11 12
f 4 12 13
f 4 13 14
f 4 14 5
f 5 14 15
f 5 15 6
f 6 15 16
f 6 16 7
f 9 17 10
f 10 17 18
f 10 18 19
f 10 19 11
f 11 19 20
f 11 20 13
f 11 13 12
f 13 20 21
f 13 21 22
f 13 22 23
f 13 23 14
f 14 23 32
f 14 32 24
f 14 24 16
f 14 16 15
f 18 25 19
f 19 25 26
f 19 26 20
f 20 26 27
f 20 27 21
f 21 27 28
f 21 28 29
f 21 29 30
f 21 30 31
f 21 31 22
f 22 31 23
f 23 31 30
f 23 30 32
f 24 32 33
f 25 34 26
f 26 34 41
f 26 41 35
f 26 35 27
f 27 35 36
f 27 36 37
f 27 37 28
f 28 37 40
f 28 40 33
f 28 33 39
f 28 39 38
f 28 38 30
f 28 30 29
f 30 38 32
f 32 38 39
f 32 39 33
f 35 41 42
f 35 42 36
f 36 42 43
f 36 43 40
f 36 40 37
