v -0.00716184 0.547829 -0.430404
v 0.0072468 0.547829 -0.430404
v -0.00716184 0.243767 -0.346311
v -0.0214862 0.243767 -0.344458
v -0.0544323 0.243767 -0.34016
v -0.0653862 0.547829 -0.422736
v -0.430237 0.547889 1.12759e-06
v 0.0072468 0.243767 -0.346311
v 0.430322 0.547889 1.12759e-06
v 0.0654712 0.547829 -0.422736
v 0.0327779 0.243767 -0.343025
v -0.346228 0.243737 1.12759e-06
v -0.0796263 0.243767 -0.33679
v -0.0824912 0.547829 -0.420461
v -0.0944563 0.547829 -0.41886
v -0.109202 0.547829 -0.416248
v -0.123948 0.547829 -0.411445
v -0.128919 0.547829 -0.409423
v -0.181919 0.547829 -0.387515
v -0.196328 0.547829 -0.381533
v -0.203827 0.547829 -0.378415
v -0.211158 0.547829 -0.37496
v -0.223123 0.547829 -0.367714
v -0.241745 0.547829 -0.353474
v -0.280673 0.547829 -0.323645
v -0.289099 0.547829 -0.317157
v -0.300053 0.547829 -0.308647
v -0.304772 0.547829 -0.304771
v -0.308564 0.547829 -0.300136
v -0.318759 0.547829 -0.286992
v -0.323562 0.547829 -0.280756
v -0.355834 0.547829 -0.23871
v -0.362996 0.547829 -0.229357
v -0.368305 0.547829 -0.222195
v -0.374877 0.547829 -0.211241
v -0.378332 0.547829 -0.203995
v -0.407992 0.547829 -0.132457
v -0.411446 0.547829 -0.124031
v -0.416249 0.547829 -0.109285
v -0.418946 0.547829 -0.09336
v -0.423327 0.547829 -0.0605825
v -0.426529 0.547829 -0.0363996
v -0.430237 0.547829 -0.00732958
v -0.430405 0.547889 0.00716331
v 0.346313 0.243737 1.12759e-06
v 0.430406 0.547889 0.00716331
v 0.346229 0.243767 -0.00724532
v 0.430069 0.547829 -0.00834071
v 0.428131 0.547829 -0.0240132
v 0.423328 0.547829 -0.0605825
v 0.420294 0.547829 -0.083333
v 0.418609 0.547829 -0.0957193
v 0.41625 0.547829 -0.109285
v 0.411447 0.547829 -0.124031
v 0.405128 0.547829 -0.139367
v 0.380439 0.547829 -0.198939
v 0.375468 0.547829 -0.209893
v 0.366873 0.547829 -0.224133
v 0.35238 0.547829 -0.243176
v 0.323563 0.547829 -0.280756
v 0.308901 0.547829 -0.299715
v 0.300054 0.547829 -0.308647
v 0.286909 0.547829 -0.318842
v 0.280674 0.547829 -0.323645
v 0.222112 0.547829 -0.368304
v 0.20981 0.547829 -0.37555
v 0.199531 0.547829 -0.380184
v 0.196329 0.547829 -0.381533
v 0.18192 0.547829 -0.387515
v 0.12892 0.547829 -0.409423
v 0.123948 0.547829 -0.411445
v 0.109203 0.547829 -0.416248
v 0.0932773 0.547829 -0.419029
v 0.079627 0.243767 -0.33679
v -0.346228 0.243737 0.00716331
v -0.346228 0.243767 -0.00724532
v -0.344964 0.243767 -0.0173566
v -0.336791 0.243767 -0.0797097
v -0.335022 0.243767 -0.0893998
v -0.333252 0.243767 -0.0942869
v -0.327607 0.243767 -0.10878
v -0.306626 0.243767 -0.159421
v -0.302834 0.243767 -0.167931
v -0.297104 0.243767 -0.17779
v -0.295166 0.243767 -0.180654
v -0.289858 0.243767 -0.187732
v -0.285392 0.243767 -0.193631
v -0.27705 0.243767 -0.204584
v -0.25312 0.243767 -0.235677
v -0.251098 0.243767 -0.238205
v -0.245199 0.243767 -0.245283
v -0.240565 0.243767 -0.249243
v -0.238121 0.243767 -0.251181
v -0.228516 0.243767 -0.25868
v -0.199698 0.243767 -0.280756
v -0.18352 0.243767 -0.293059
v -0.180571 0.243767 -0.295249
v -0.167848 0.243767 -0.302917
v -0.161023 0.243767 -0.30595
v -0.121673 0.243767 -0.322297
v -0.108696 0.243767 -0.327606
v -0.0965628 0.243767 -0.332408
v -0.0893164 0.243946 -0.33502
v -0.345976 0.243737 0.010281
v -0.426613 0.547889 0.0362333
v 0.0956366 0.243767 -0.332745
v 0.105916 0.243767 -0.328785
v 0.117629 0.243767 -0.323982
v 0.149227 0.243767 -0.310838
v 0.159338 0.243767 -0.306625
v 0.167848 0.243767 -0.302917
v 0.177707 0.243767 -0.297187
v 0.180572 0.243767 -0.295249
v 0.185964 0.243767 -0.291205
v 0.193548 0.243767 -0.285475
v 0.228516 0.243767 -0.25868
v 0.235594 0.243767 -0.253203
v 0.238122 0.243767 -0.251181
v 0.2452 0.243767 -0.245283
v 0.24916 0.243767 -0.240648
v 0.251098 0.243767 -0.238205
v 0.270141 0.243767 -0.2136
v 0.288679 0.243767 -0.189333
v 0.295167 0.243767 -0.180654
v 0.302835 0.243767 -0.167931
v 0.306626 0.243767 -0.159421
v 0.320951 0.243767 -0.124874
v 0.327607 0.243767 -0.10878
v 0.332326 0.243767 -0.0966462
v 0.336708 0.243767 -0.0797097
v 0.338646 0.243767 -0.0654696
v 0.342016 0.243767 -0.0400228
v 0.345892 0.243767 -0.010363
v 0.346313 0.243737 0.00716331
v 0.426614 0.547889 0.0362333
v 0.345049 0.243737 0.0172746
v 0.335191 0.243946 -0.0886414
v 0.30334 0.542381 -0.303423
v 0.0885587 0.243946 -0.335189
v -0.336791 0.243737 0.0796277
v -0.42476 0.547889 0.0503892
v 0.423412 0.547889 0.0605005
v 0.336876 0.243737 0.0796277
v -0.33519 0.243916 0.0886437
v -0.416334 0.547889 0.109203
v -0.418609 0.547889 0.0956373
v -0.332747 0.243737 0.0957216
v 0.419031 0.547889 0.093278
v 0.335107 0.243737 0.0893178
v 0.416334 0.547889 0.109203
v -0.411446 0.547889 0.123949
v -0.327607 0.243737 0.108698
v 0.333337 0.243737 0.0942049
v 0.411531 0.547889 0.123949
v -0.405127 0.547889 0.139285
v -0.32095 0.243737 0.124792
v -0.38086 0.547889 0.198014
v 0.327692 0.243737 0.108698
v 0.408077 0.547889 0.132375
v -0.306626 0.243737 0.159423
v -0.375551 0.547889 0.209811
v 0.320108 0.243737 0.127067
v 0.382377 0.547889 0.194391
v 0.306711 0.243737 0.159423
v -0.302834 0.243737 0.167849
v -0.367715 0.547889 0.22304
v -0.29525 0.243737 0.180657
v 0.378417 0.547889 0.203828
v 0.302919 0.243737 0.167849
v -0.354486 0.547889 0.240313
v -0.288678 0.243737 0.189336
v 0.374962 0.547889 0.211159
v 0.297189 0.243737 0.177708
v -0.32213 0.547889 0.282528
v -0.270141 0.243737 0.213434
v 0.36839 0.547889 0.222113
v 0.295251 0.243737 0.180657
v -0.258597 0.243737 0.228433
v -0.308901 0.547889 0.299633
v 0.363081 0.547889 0.229275
v 0.289943 0.243737 0.187735
v -0.251098 0.243737 0.238123
v -0.24916 0.243737 0.240566
v -0.245199 0.243737 0.245116
v -0.303339 0.54244 0.303425
v -0.300053 0.547889 0.308565
v 0.317917 0.547889 0.288089
v 0.277135 0.243737 0.204418
v -0.238121 0.243737 0.251099
v -0.280757 0.547889 0.323563
v -0.2286 0.243737 0.258514
v 0.308649 0.547889 0.300054
v 0.251183 0.243737 0.238123
v 0.253205 0.243737 0.235511
v 0.258682 0.243737 0.228433
v -0.240396 0.547889 0.354571
v -0.193547 0.243737 0.285393
v 0.304857 0.547889 0.304689
v 0.245284 0.243737 0.245116
v -0.187649 0.243737 0.289859
v -0.222112 0.547889 0.36839
v 0.300138 0.547889 0.308565
v 0.238206 0.243737 0.251099
v 0.24065 0.243737 0.249077
v -0.180571 0.243737 0.295167
v -0.20981 0.547889 0.375552
v -0.177706 0.243737 0.297105
v 0.289184 0.547889 0.317075
v 0.223124 0.243737 0.262811
v -0.167848 0.243737 0.302835
v -0.199614 0.547889 0.380187
v 0.280758 0.547889 0.323563
v 0.183605 0.243737 0.292976
v 0.240481 0.547889 0.354571
v -0.159337 0.243737 0.306543
v -0.149226 0.243737 0.310756
v -0.117628 0.243737 0.3239
v -0.139283 0.547889 0.405212
v 0.180656 0.243737 0.295167
v 0.231634 0.547889 0.361312
v 0.223208 0.547889 0.367632
v -0.105916 0.243737 0.328703
v -0.123948 0.547889 0.411447
v 0.211243 0.547889 0.374962
v 0.167933 0.243737 0.302835
v -0.0956359 0.243737 0.332748
v -0.109202 0.547889 0.416335
v -0.088558 0.243916 0.335191
v 0.203912 0.547889 0.378333
v 0.161107 0.243737 0.305868
v -0.0796263 0.243737 0.336792
v -0.0932766 0.547889 0.418947
v 0.196413 0.547889 0.381535
v 0.113247 0.243737 0.325838
v -0.0653862 0.243737 0.33873
v -0.0362319 0.547889 0.426614
v 0.132459 0.547889 0.408077
v 0.124033 0.547889 0.411447
v 0.0965635 0.243737 0.332326
v -0.00716184 0.243737 0.346314
v -0.00716184 0.547889 0.430406
v 0.109287 0.547889 0.416335
v 0.0894013 0.243916 0.335023
v 0.0797113 0.243737 0.336792
v 0.0072468 0.243737 0.346314
v 0.00834219 0.547889 0.430153
v 0.0957209 0.547889 0.418694
v 0.0654712 0.243737 0.33873
v 0.0215712 0.243737 0.34446
v 0.0363169 0.547889 0.426614
f 1 2 8
f 1 8 3
f 1 3 4
f 1 4 5
f 1 5 6
f 1 6 7
f 1 7 9
f 1 9 2
f 2 9 10
f 2 10 11
f 2 11 8
f 3 8 45
f 3 45 12
f 3 12 4
f 4 12 5
f 5 13 14
f 5 14 6
f 5 12 13
f 6 14 7
f 7 14 15
f 7 15 16
f 7 16 17
f 7 17 18
f 7 18 19
f 7 19 20
f 7 20 21
f 7 21 22
f 7 22 23
f 7 23 24
f 7 24 25
f 7 25 26
f 7 26 27
f 7 27 28
f 7 28 29
f 7 29 30
f 7 30 31
f 7 31 32
f 7 32 33
f 7 33 34
f 7 34 35
f 7 35 36
f 7 36 37
f 7 37 38
f 7 38 39
f 7 39 40
f 7 40 41
f 7 41 42
f 7 42 43
f 7 43 44
f 7 44 105
f 7 105 141
f 7 141 146
f 7 146 145
f 7 145 151
f 7 151 155
f 7 155 157
f 7 157 161
f 7 161 166
f 7 166 170
f 7 170 174
f 7 174 179
f 7 179 186
f 7 186 190
f 7 190 196
f 7 196 201
f 7 201 206
f 7 206 211
f 7 211 218
f 7 218 223
f 7 223 227
f 7 227 232
f 7 232 236
f 7 236 241
f 7 241 246
f 7 246 250
f 7 250 247
f 7 247 242
f 7 242 238
f 7 238 237
f 7 237 233
f 7 233 229
f 7 229 224
f 7 224 221
f 7 221 220
f 7 220 214
f 7 214 212
f 7 212 208
f 7 208 202
f 7 202 198
f 7 198 192
f 7 192 187
f 7 187 180
f 7 180 176
f 7 176 172
f 7 172 168
f 7 168 163
f 7 163 159
f 7 159 154
f 7 154 150
f 7 150 148
f 7 148 142
f 7 142 135
f 7 135 46
f 7 46 9
f 8 11 45
f 9 46 45
f 9 45 47
f 9 47 48
f 9 48 49
f 9 49 50
f 9 50 51
f 9 51 52
f 9 52 53
f 9 53 54
f 9 54 55
f 9 55 56
f 9 56 57
f 9 57 58
f 9 58 59
f 9 59 60
f 9 60 61
f 9 61 62
f 9 62 63
f 9 63 64
f 9 64 65
f 9 65 66
f 9 66 67
f 9 67 68
f 9 68 69
f 9 69 70
f 9 70 71
f 9 71 72
f 9 72 73
f 9 73 10
f 10 73 74
f 10 74 11
f 11 74 45
f 12 75 44
f 12 44 76
f 12 76 77
f 12 77 78
f 12 78 79
f 12 79 80
f 12 80 81
f 12 81 82
f 12 82 83
f 12 83 84
f 12 84 85
f 12 85 86
f 12 86 87
f 12 87 88
f 12 88 89
f 12 89 90
f 12 90 91
f 12 91 92
f 12 92 93
f 12 93 94
f 12 94 95
f 12 95 96
f 12 96 97
f 12 97 98
f 12 98 99
f 12 99 100
f 12 100 101
f 12 101 102
f 12 102 13
f 12 45 134
f 12 134 136
f 12 136 143
f 12 143 149
f 12 149 153
f 12 153 158
f 12 158 162
f 12 162 164
f 12 164 169
f 12 169 173
f 12 173 177
f 12 177 181
f 12 181 188
f 12 188 195
f 12 195 194
f 12 194 193
f 12 193 199
f 12 199 204
f 12 204 203
f 12 203 209
f 12 209 213
f 12 213 219
f 12 219 225
f 12 225 230
f 12 230 234
f 12 234 239
f 12 239 244
f 12 244 248
f 12 248 249
f 12 249 245
f 12 245 240
f 12 240 235
f 12 235 231
f 12 231 226
f 12 226 222
f 12 222 217
f 12 217 216
f 12 216 215
f 12 215 210
f 12 210 207
f 12 207 205
f 12 205 200
f 12 200 197
f 12 197 191
f 12 191 189
f 12 189 184
f 12 184 183
f 12 183 182
f 12 182 178
f 12 178 175
f 12 175 171
f 12 171 167
f 12 167 165
f 12 165 160
f 12 160 156
f 12 156 152
f 12 152 147
f 12 147 140
f 12 140 104
f 12 104 75
f 13 102 103
f 13 103 16
f 13 16 15
f 13 15 14
f 16 103 17
f 17 103 102
f 17 102 101
f 17 101 18
f 18 101 100
f 18 100 19
f 19 100 20
f 20 100 99
f 20 99 21
f 21 99 98
f 21 98 22
f 22 98 97
f 22 97 23
f 23 97 96
f 23 96 95
f 23 95 24
f 24 95 94
f 24 94 25
f 25 94 26
f 26 94 27
f 27 94 93
f 27 93 92
f 27 92 28
f 28 92 91
f 28 91 90
f 28 90 29
f 29 90 89
f 29 89 30
f 30 89 31
f 31 89 88
f 31 88 32
f 32 88 33
f 33 88 87
f 33 87 86
f 33 86 85
f 33 85 34
f 34 85 84
f 34 84 35
f 35 84 83
f 35 83 36
f 36 83 82
f 36 82 37
f 37 82 81
f 37 81 38
f 38 81 80
f 38 80 79
f 38 79 39
f 39 79 78
f 39 78 40
f 40 78 41
f 41 78 42
f 42 78 77
f 42 77 43
f 43 77 76
f 43 76 44
f 44 75 104
f 44 104 105
f 45 74 106
f 45 106 107
f 45 107 108
f 45 108 109
f 45 109 110
f 45 110 111
f 45 111 112
f 45 112 113
f 45 113 114
f 45 114 115
f 45 115 116
f 45 116 117
f 45 117 118
f 45 118 119
f 45 119 120
f 45 120 121
f 45 121 122
f 45 122 123
f 45 123 124
f 45 124 125
f 45 125 126
f 45 126 127
f 45 127 128
f 45 128 129
f 45 129 130
f 45 130 131
f 45 131 132
f 45 132 133
f 45 133 47
f 45 46 134
f 46 135 136
f 46 136 134
f 47 133 48
f 48 133 49
f 49 133 132
f 49 132 50
f 50 132 131
f 50 131 51
f 51 131 52
f 52 131 130
f 52 130 53
f 53 130 137
f 53 137 54
f 54 137 129
f 54 129 128
f 54 128 55
f 55 128 127
f 55 127 56
f 56 127 126
f 56 126 125
f 56 125 57
f 57 125 124
f 57 124 58
f 58 124 123
f 58 123 59
f 59 123 122
f 59 122 60
f 60 122 61
f 61 138 62
f 61 122 121
f 61 121 120
f 61 120 119
f 61 119 138
f 62 138 119
f 62 119 118
f 62 118 117
f 62 117 63
f 63 117 116
f 63 116 64
f 64 116 115
f 64 115 65
f 65 115 114
f 65 114 113
f 65 113 112
f 65 112 66
f 66 112 111
f 66 111 67
f 67 111 110
f 67 110 68
f 68 110 109
f 68 109 108
f 68 108 69
f 69 108 70
f 70 108 107
f 70 107 71
f 71 107 106
f 71 106 139
f 71 139 72
f 72 139 74
f 72 74 73
f 74 139 106
f 104 140 141
f 104 141 105
f 129 137 130
f 135 142 143
f 135 143 136
f 140 144 145
f 140 145 146
f 140 146 141
f 140 147 144
f 142 148 143
f 143 148 150
f 143 150 149
f 144 151 145
f 144 147 151
f 147 152 151
f 149 150 154
f 149 154 153
f 151 152 155
f 152 156 157
f 152 157 155
f 153 154 158
f 154 159 158
f 156 160 157
f 157 160 165
f 157 165 161
f 158 159 162
f 159 163 164
f 159 164 162
f 161 165 167
f 161 167 166
f 163 168 164
f 164 168 169
f 166 167 171
f 166 171 170
f 168 172 169
f 169 172 173
f 170 171 174
f 171 175 174
f 172 176 173
f 173 176 177
f 174 175 178
f 174 178 179
f 176 180 177
f 177 180 181
f 178 182 179
f 179 182 183
f 179 183 184
f 179 184 185
f 179 185 186
f 180 187 188
f 180 188 181
f 184 189 186
f 184 186 185
f 186 189 191
f 186 191 190
f 187 192 193
f 187 193 194
f 187 194 195
f 187 195 188
f 190 191 196
f 191 197 196
f 192 198 193
f 193 198 199
f 196 197 200
f 196 200 201
f 198 202 203
f 198 203 204
f 198 204 199
f 200 205 201
f 201 205 207
f 201 207 206
f 202 208 203
f 203 208 209
f 206 207 210
f 206 210 211
f 208 212 209
f 209 212 214
f 209 214 213
f 210 215 211
f 211 215 216
f 211 216 217
f 211 217 218
f 213 214 220
f 213 220 221
f 213 221 219
f 217 222 218
f 218 222 223
f 219 221 224
f 219 224 225
f 222 226 223
f 223 226 228
f 223 228 227
f 224 229 225
f 225 229 230
f 226 231 228
f 227 228 231
f 227 231 232
f 229 233 230
f 230 233 234
f 231 235 232
f 232 235 236
f 233 237 234
f 234 237 238
f 234 238 239
f 235 240 241
f 235 241 236
f 238 242 243
f 238 243 239
f 239 243 244
f 240 245 241
f 241 245 246
f 242 247 244
f 242 244 243
f 244 247 248
f 245 249 250
f 245 250 246
f 247 250 248
f 248 250 249
