v 0.429269 0.733924 0.21101
v 0.414724 0.73387 0.2401
v 0.425541 0.730792 0.2401
v 0.442152 0.731557 0.196458
v 0.449627 0.731666 0.176257
v 0.444605 0.732868 0.176257
v 0.429269 0.733178 0.196458
v 0.366822 0.733669 0.302546
v 0.371071 0.733724 0.298318
v 0.400914 0.732194 0.269796
v 0.41484 0.731557 0.254355
v 0.385616 0.733323 0.283766
v 0.423358 0.72919 0.249311
v 0.437304 0.728625 0.220084
v 0.439178 0.730319 0.21101
v 0.453606 0.7301 0.176257
v 0.435566 0.732176 0.176257
v 0.356933 0.73112 0.302546
v 0.371033 0.732977 0.302546
v 0.379744 0.730464 0.302546
v 0.41005 0.729936 0.265333
v 0.423358 0.723909 0.249311
v 0.392917 0.727624 0.291061
v 0.437304 0.725402 0.220084
v 0.453027 0.729736 0.179261
v 0.453625 0.720321 0.176257
v 0.431104 0.730592 0.176257
v 0.354518 0.730282 0.302546
v 0.381869 0.729372 0.302546
v 0.417834 0.719557 0.254355
v 0.421504 0.714203 0.246504
v 0.425966 0.719557 0.241027
v 0.392917 0.727551 0.291061
v 0.382274 0.723035 0.302546
v 0.433325 0.720449 0.22519
v 0.435604 0.715696 0.216004
v 0.439293 0.720449 0.211096
v 0.452718 0.720321 0.17852
v 0.45179 0.715004 0.176257
v 0.424459 0.720321 0.176257
v 0.349863 0.726021 0.302546
v 0.352587 0.729099 0.302546
v 0.40808 0.711617 0.262762
v 0.379763 0.716843 0.302546
v 0.378662 0.566627 0.218774
v 0.423435 0.705771 0.23586
v 0.367788 0.547889 0.223212
v 0.450477 0.71138 0.176257
v 0.427897 0.705771 0.225561
v 0.37845 0.547889 0.203975
v 0.380227 0.547889 0.19971
v 0.35589 0.547925 0.176257
v 0.256299 0.547889 0.302546
v 0.318901 0.547889 0.287018
v 0.35249 0.547889 0.24324
v 0.362128 0.547889 0.230667
v 0.307582 0.549655 0.302546
v 0.308741 0.547889 0.30016
v 0.310093 0.547889 0.298441
v 0.369082 0.547889 0.221296
v 0.37675 0.556921 0.215003
v 0.422025 0.698433 0.232892
v 0.389943 0.547889 0.176257
v 0.375012 0.547889 0.211269
v 0.356643 0.547889 0.176257
v 0.30677 0.547889 0.302546
f 1 2 3
f 1 3 4
f 1 4 5
f 1 5 6
f 1 6 7
f 1 7 8
f 1 8 9
f 1 9 2
f 2 10 11
f 2 11 3
f 2 9 12
f 2 12 10
f 3 13 14
f 3 14 15
f 3 15 4
f 3 11 13
f 4 15 16
f 4 16 5
f 5 16 26
f 5 26 39
f 5 39 48
f 5 48 63
f 5 63 65
f 5 65 52
f 5 52 40
f 5 40 27
f 5 27 17
f 5 17 6
f 6 17 7
f 7 17 8
f 8 18 28
f 8 28 42
f 8 42 41
f 8 41 53
f 8 53 66
f 8 66 57
f 8 57 44
f 8 44 34
f 8 34 29
f 8 29 20
f 8 20 19
f 8 19 9
f 8 17 18
f 9 19 12
f 10 12 20
f 10 20 11
f 11 20 21
f 11 21 13
f 12 19 20
f 13 22 24
f 13 24 14
f 13 21 23
f 13 23 33
f 13 33 22
f 14 24 25
f 14 25 15
f 15 25 16
f 16 25 26
f 17 27 28
f 17 28 18
f 20 29 21
f 21 29 23
f 22 30 31
f 22 31 32
f 22 32 24
f 22 33 30
f 23 29 34
f 23 34 33
f 24 32 35
f 24 35 36
f 24 36 37
f 24 37 38
f 24 38 26
f 24 26 25
f 26 38 39
f 27 40 41
f 27 41 42
f 27 42 28
f 30 43 31
f 30 33 44
f 30 44 43
f 31 45 46
f 31 46 32
f 31 43 47
f 31 47 45
f 32 46 35
f 33 34 44
f 35 46 36
f 36 48 39
f 36 39 38
f 36 38 37
f 36 46 49
f 36 49 50
f 36 50 51
f 36 51 48
f 40 52 53
f 40 53 41
f 43 44 54
f 43 54 55
f 43 55 56
f 43 56 47
f 44 57 58
f 44 58 59
f 44 59 54
f 45 60 61
f 45 61 46
f 45 47 60
f 46 62 49
f 46 61 50
f 46 50 62
f 47 56 55
f 47 55 54
f 47 54 59
f 47 59 58
f 47 58 66
f 47 66 53
f 47 53 65
f 47 65 63
f 47 63 51
f 47 51 50
f 47 50 64
f 47 64 60
f 48 51 63
f 49 62 50
f 50 61 64
f 52 65 53
f 57 66 58
f 60 64 61
