v -0.445138 0.732122 0.182474
v -0.443833 0.733948 0.167334
v -0.458385 0.734057 0.138232
v -0.45531 0.731191 0.167334
v -0.446696 0.731593 0.182474
v -0.429268 0.730753 0.182474
v -0.472937 0.733163 0.0218425
v -0.472937 0.734057 0.0363934
v -0.472937 0.734404 0.0509443
v -0.472937 0.734149 0.0654952
v -0.470727 0.731593 0.123681
v -0.468743 0.730661 0.138232
v -0.453033 0.72973 0.17926
v -0.451063 0.720328 0.182474
v -0.46684 0.727758 7.86709e-05
v -0.471646 0.731191 7.86709e-05
v -0.421892 0.720328 0.182474
v -0.465948 0.72712 7.86709e-05
v -0.478449 0.731392 7.86709e-05
v -0.485745 0.731593 7.86709e-05
v -0.485745 0.731593 0.00729163
v -0.484906 0.731593 0.0218425
v -0.484174 0.731483 0.0363934
v -0.483322 0.731063 0.0509443
v -0.482363 0.730315 0.0654952
v -0.481405 0.729292 0.0800461
v -0.480686 0.728325 0.0909369
v -0.466746 0.729 0.148141
v -0.466746 0.724417 0.148141
v -0.452727 0.720328 0.17851
v -0.451342 0.712459 0.175171
v -0.450184 0.717863 0.182474
v -0.463112 0.721478 7.86709e-05
v -0.465495 0.726225 7.86709e-05
v -0.35334 0.547889 0.182474
v -0.487529 0.726024 7.86709e-05
v -0.48934 0.720328 0.00729163
v -0.480686 0.726079 0.0909369
v -0.473643 0.720328 0.123681
v -0.46897 0.719871 0.138821
v -0.465056 0.714705 0.144052
v -0.44611 0.706726 0.182474
v -0.446696 0.708315 0.182474
v -0.409511 0.547889 0.129037
v -0.387383 0.547889 0.182474
v -0.398806 0.547889 7.86709e-05
v -0.48934 0.720328 7.86709e-05
v -0.485878 0.720328 0.0363934
v -0.487103 0.713116 7.86709e-05
v -0.484813 0.705777 0.00729163
v -0.476079 0.720328 0.10913
v -0.484068 0.720328 0.0509443
v -0.481405 0.723833 0.0800461
v -0.479048 0.716567 0.0800461
v -0.471433 0.705777 0.10913
v -0.4664 0.696447 0.119467
v -0.468424 0.705028 0.124056
v -0.467066 0.709392 0.134358
v -0.411561 0.547889 0.124074
v -0.4304 0.547889 7.86709e-05
v -0.484813 0.705777 7.86709e-05
v -0.480965 0.710962 0.0509443
v -0.480393 0.71255 0.0595677
v -0.436937 0.566383 0.00298885
v -0.4304 0.547889 0.00732734
v -0.479754 0.714413 0.0692624
v -0.41895 0.547889 0.0945791
v -0.418564 0.547889 0.096918
v -0.416341 0.547889 0.109291
v -0.465202 0.699697 0.129162
v -0.421852 0.567972 0.115665
v -0.436937 0.566383 7.86709e-05
v -0.428523 0.547889 0.0218425
v -0.426326 0.547889 0.0385716
v -0.420947 0.547889 0.0794569
f 1 2 3
f 1 3 4
f 1 4 5
f 1 5 14
f 1 14 32
f 1 32 43
f 1 43 42
f 1 42 45
f 1 45 35
f 1 35 17
f 1 17 6
f 1 6 2
f 2 7 8
f 2 8 9
f 2 9 3
f 2 6 7
f 3 9 10
f 3 10 11
f 3 11 12
f 3 12 4
f 4 12 13
f 4 13 5
f 5 13 14
f 6 15 16
f 6 16 7
f 6 17 18
f 6 18 15
f 7 19 20
f 7 20 8
f 7 16 19
f 8 20 9
f 9 20 21
f 9 21 22
f 9 22 10
f 10 22 23
f 10 23 24
f 10 24 11
f 11 24 25
f 11 25 26
f 11 26 27
f 11 27 12
f 12 27 28
f 12 28 13
f 13 28 29
f 13 29 14
f 14 29 30
f 14 30 31
f 14 31 32
f 15 18 34
f 15 34 33
f 15 33 46
f 15 46 60
f 15 60 72
f 15 72 61
f 15 61 49
f 15 49 47
f 15 47 36
f 15 36 20
f 15 20 19
f 15 19 16
f 17 33 34
f 17 34 18
f 17 35 33
f 20 36 21
f 21 23 22
f 21 36 37
f 21 37 23
f 23 37 24
f 24 37 25
f 25 37 26
f 26 37 27
f 27 37 38
f 27 38 39
f 27 39 28
f 28 39 29
f 29 39 40
f 29 40 41
f 29 41 30
f 30 41 31
f 31 42 43
f 31 43 32
f 31 41 44
f 31 44 45
f 31 45 42
f 33 35 46
f 35 45 44
f 35 44 59
f 35 59 69
f 35 69 68
f 35 68 67
f 35 67 75
f 35 75 74
f 35 74 73
f 35 73 65
f 35 65 60
f 35 60 46
f 36 47 37
f 37 48 38
f 37 47 49
f 37 49 50
f 37 50 48
f 38 51 39
f 38 48 52
f 38 52 53
f 38 53 54
f 38 54 55
f 38 55 51
f 39 51 55
f 39 55 56
f 39 56 57
f 39 57 58
f 39 58 40
f 40 58 41
f 41 58 59
f 41 59 44
f 48 50 52
f 49 61 50
f 50 62 63
f 50 63 52
f 50 61 72
f 50 72 64
f 50 64 65
f 50 65 62
f 52 63 66
f 52 66 54
f 52 54 53
f 54 66 55
f 55 66 67
f 55 67 68
f 55 68 56
f 56 68 69
f 56 69 57
f 57 70 58
f 57 69 71
f 57 71 70
f 58 70 71
f 58 71 59
f 59 71 69
f 60 65 64
f 60 64 72
f 62 65 73
f 62 73 63
f 63 73 74
f 63 74 75
f 63 75 67
f 63 67 66
