v 0.506716 0.143108 -0.248861
v 0.504339 0.15294 -0.247587
v 0.452686 0.143108 -0.247587
v 0.500108 0.143108 -0.264925
v 0.501025 0.163701 -0.247587
v 0.495043 0.143108 -0.277107
v 0.475177 0.143108 -0.324824
v 0.474677 0.153708 -0.318245
v 0.321092 0.349747 -0.247587
v 0.293785 0.143108 -0.489554
v 0.497023 0.175556 -0.247587
v 0.476491 0.16184 -0.307575
v 0.467069 0.144646 -0.339851
v 0.464713 0.155185 -0.338399
v 0.463129 0.164571 -0.335287
v 0.468987 0.164571 -0.322987
v 0.437865 0.143108 -0.388636
v 0.396863 0.346834 -0.247587
v 0.388192 0.349747 -0.259146
v 0.293785 0.349747 -0.291126
v 0.293785 0.143108 -0.538102
v 0.486288 0.191617 -0.258642
v 0.492395 0.187855 -0.247587
v 0.475928 0.172258 -0.300076
v 0.452415 0.144707 -0.364095
v 0.453666 0.163418 -0.351825
v 0.453082 0.176749 -0.344741
v 0.4624 0.175879 -0.328263
v 0.45056 0.188583 -0.340977
v 0.461941 0.189372 -0.317415
v 0.392006 0.143108 -0.453247
v 0.411205 0.14323 -0.430248
v 0.427589 0.145556 -0.40384
v 0.415248 0.324603 -0.247587
v 0.403304 0.33763 -0.250225
v 0.391923 0.338379 -0.271179
v 0.376227 0.327172 -0.319371
v 0.377894 0.341271 -0.292608
v 0.373329 0.349747 -0.286472
v 0.304395 0.349747 -0.383449
v 0.294702 0.349424 -0.394475
v 0.293973 0.342708 -0.404048
v 0.293785 0.272493 -0.473639
v 0.293785 0.155529 -0.546638
v 0.29416 0.145961 -0.550372
v 0.314797 0.143108 -0.534516
v 0.475448 0.19538 -0.280723
v 0.487434 0.200559 -0.247587
v 0.412643 0.152373 -0.423787
v 0.424087 0.164571 -0.398298
v 0.426671 0.170984 -0.390266
v 0.44145 0.175535 -0.363977
v 0.438532 0.185387 -0.362287
v 0.451185 0.201631 -0.329418
v 0.439366 0.202197 -0.349217
v 0.440054 0.212676 -0.340473
v 0.461941 0.198698 -0.308464
v 0.380646 0.143108 -0.466348
v 0.389442 0.156884 -0.450224
v 0.39826 0.148125 -0.443852
v 0.403471 0.153627 -0.435257
v 0.401345 0.166392 -0.43173
v 0.426505 0.309552 -0.247587
v 0.414269 0.316713 -0.261932
v 0.387108 0.311009 -0.324113
v 0.392736 0.320152 -0.298624
v 0.398823 0.335182 -0.26288
v 0.384002 0.323045 -0.310954
v 0.379416 0.318777 -0.326543
v 0.368014 0.331602 -0.326988
v 0.364408 0.339896 -0.319638
v 0.355695 0.347583 -0.322364
v 0.34004 0.34823 -0.34403
v 0.316131 0.349747 -0.370171
v 0.305875 0.342283 -0.391392
v 0.294452 0.332492 -0.416614
v 0.293952 0.285925 -0.462139
v 0.303937 0.303888 -0.438073
v 0.311503 0.287118 -0.445423
v 0.304416 0.273909 -0.46288
v 0.294723 0.252972 -0.488843
v 0.293785 0.238994 -0.500669
v 0.293785 0.188745 -0.531433
v 0.293889 0.178206 -0.536442
v 0.296224 0.163823 -0.541125
v 0.302728 0.166938 -0.534634
v 0.320196 0.165037 -0.521267
v 0.323135 0.152373 -0.524142
v 0.331118 0.143108 -0.520793
v 0.482973 0.210997 -0.247587
v 0.410537 0.164349 -0.419815
v 0.415561 0.166311 -0.410776
v 0.41602 0.174443 -0.404789
v 0.427609 0.185164 -0.379478
v 0.43824 0.224206 -0.333775
v 0.448621 0.213606 -0.323343
v 0.426526 0.207194 -0.365636
v 0.428339 0.222709 -0.350758
v 0.426463 0.23774 -0.341274
v 0.452123 0.21573 -0.313206
v 0.474865 0.226816 -0.249751
v 0.352443 0.143108 -0.498802
v 0.377019 0.161375 -0.462198
v 0.392215 0.168981 -0.441214
v 0.390651 0.187086 -0.433508
v 0.403033 0.178125 -0.422483
v 0.464672 0.248602 -0.247587
v 0.434697 0.297597 -0.248269
v 0.426901 0.299094 -0.26208
v 0.403283 0.291245 -0.321742
v 0.402116 0.304596 -0.304581
v 0.396551 0.299114 -0.323787
v 0.3889 0.303221 -0.332056
v 0.371349 0.322458 -0.334605
v 0.364074 0.327313 -0.339081
v 0.353568 0.341332 -0.335405
v 0.340707 0.340644 -0.352803
v 0.32647 0.338783 -0.371772
v 0.321968 0.334171 -0.382767
v 0.305813 0.317887 -0.421742
v 0.296954 0.32345 -0.424854
v 0.29687 0.312223 -0.436413
v 0.294473 0.295392 -0.453573
v 0.308168 0.308116 -0.429952
v 0.320112 0.295898 -0.429715
v 0.320821 0.287381 -0.436561
v 0.315193 0.278359 -0.449394
v 0.31438 0.265069 -0.460746
v 0.316798 0.243646 -0.475209
v 0.295098 0.224611 -0.510301
v 0.296099 0.212737 -0.517
v 0.29637 0.202339 -0.522572
v 0.30748 0.188502 -0.520852
v 0.31069 0.176749 -0.523935
v 0.319612 0.181058 -0.514362
v 0.330743 0.16178 -0.513473
v 0.332932 0.152373 -0.515488
v 0.340561 0.147963 -0.509827
v 0.471259 0.236121 -0.247587
v 0.414248 0.182575 -0.402003
v 0.416728 0.188947 -0.393704
v 0.425483 0.247955 -0.33339
v 0.438157 0.234483 -0.323046
v 0.463567 0.23244 -0.269193
v 0.401491 0.190748 -0.415992
v 0.391027 0.19979 -0.425121
v 0.413247 0.208165 -0.38505
v 0.401178 0.211401 -0.400669
v 0.414144 0.231165 -0.36534
v 0.415582 0.246478 -0.350195
v 0.365992 0.159211 -0.475684
v 0.384481 0.177943 -0.445423
v 0.379395 0.216843 -0.42844
v 0.377686 0.182494 -0.450728
v 0.380437 0.193377 -0.4416
v 0.376123 0.209621 -0.436857
v 0.46142 0.240572 -0.264362
v 0.451102 0.256229 -0.268571
v 0.454187 0.265898 -0.249513
v 0.439491 0.28906 -0.250373
v 0.413247 0.278642 -0.319667
v 0.411559 0.286592 -0.311665
v 0.415603 0.270045 -0.326425
v 0.40814 0.27399 -0.33499
v 0.401407 0.28196 -0.336976
v 0.391464 0.294421 -0.338517
v 0.378853 0.30933 -0.339703
v 0.371849 0.310887 -0.347527
v 0.363178 0.320537 -0.348091
v 0.355945 0.331683 -0.344386
v 0.344563 0.332532 -0.357545
v 0.329889 0.329842 -0.378855
v 0.315693 0.315641 -0.412939
v 0.320925 0.302654 -0.421653
v 0.328242 0.291528 -0.425476
v 0.331702 0.283396 -0.429329
v 0.332411 0.274556 -0.436028
v 0.339185 0.265453 -0.436709
v 0.330097 0.2572 -0.451884
v 0.343688 0.253599 -0.441155
v 0.329013 0.243646 -0.463028
v 0.315672 0.22987 -0.486265
v 0.304916 0.225804 -0.499898
v 0.302332 0.216074 -0.509471
v 0.306313 0.204524 -0.513295
v 0.314734 0.197302 -0.50962
v 0.329117 0.189028 -0.49972
v 0.327783 0.17333 -0.510479
v 0.338602 0.1653 -0.503099
v 0.352401 0.168293 -0.486294
v 0.359197 0.163762 -0.480989
v 0.414686 0.25991 -0.33911
v 0.426275 0.255683 -0.32272
v 0.438741 0.243727 -0.310806
v 0.453374 0.237416 -0.285909
v 0.388004 0.215852 -0.416881
v 0.403325 0.233491 -0.379566
v 0.400553 0.228657 -0.387687
v 0.390255 0.237173 -0.395334
v 0.398468 0.250039 -0.371831
v 0.40814 0.261792 -0.347172
v 0.375914 0.228515 -0.423787
v 0.371328 0.224813 -0.432234
v 0.365888 0.183283 -0.463354
v 0.365283 0.206526 -0.450521
v 0.367847 0.217207 -0.441066
v 0.438324 0.255157 -0.297735
v 0.437198 0.265595 -0.286472
v 0.43995 0.282223 -0.258523
v 0.426088 0.279573 -0.291541
v 0.424816 0.265312 -0.313206
v 0.401491 0.269904 -0.349217
v 0.392444 0.28548 -0.34649
v 0.383272 0.297739 -0.34646
v 0.376039 0.302472 -0.351114
v 0.354757 0.301258 -0.380456
v 0.353214 0.316572 -0.36534
v 0.33856 0.313942 -0.38665
v 0.338831 0.326423 -0.371772
v 0.33954 0.290416 -0.412109
v 0.335642 0.286896 -0.421001
v 0.341478 0.274475 -0.426603
v 0.346794 0.261225 -0.432056
v 0.352255 0.246741 -0.43748
v 0.323218 0.225804 -0.481611
v 0.330681 0.221738 -0.476958
v 0.318361 0.204463 -0.501202
v 0.342938 0.209722 -0.472127
v 0.35336 0.207012 -0.462969
v 0.339936 0.192588 -0.486087
v 0.351838 0.192002 -0.47355
v 0.338602 0.176749 -0.496757
v 0.372016 0.238104 -0.420853
v 0.390235 0.256229 -0.378144
v 0.363595 0.239216 -0.430693
v 0.364199 0.229243 -0.437183
v 0.379249 0.257948 -0.392044
v 0.39036 0.268589 -0.36614
v 0.379312 0.270167 -0.379893
v 0.372329 0.275001 -0.384753
v 0.365325 0.279856 -0.389614
v 0.379333 0.29434 -0.355471
v 0.365075 0.291791 -0.377107
v 0.354131 0.28109 -0.40304
v 0.347086 0.273828 -0.420023
v 0.355507 0.253417 -0.428825
v 0.35409 0.266222 -0.4186
v 0.35607 0.235514 -0.441451
v 0.352151 0.229527 -0.449572
v 0.359447 0.225319 -0.444712
v 0.364262 0.253093 -0.417622
f 1 2 3
f 1 3 10
f 1 10 21
f 1 21 46
f 1 46 89
f 1 89 102
f 1 102 58
f 1 58 31
f 1 31 17
f 1 17 7
f 1 7 6
f 1 6 4
f 1 4 2
f 2 5 11
f 2 11 23
f 2 23 48
f 2 48 90
f 2 90 139
f 2 139 107
f 2 107 63
f 2 63 34
f 2 34 18
f 2 18 9
f 2 9 3
f 2 4 6
f 2 6 7
f 2 7 8
f 2 8 5
f 3 9 10
f 5 8 12
f 5 12 11
f 7 13 14
f 7 14 15
f 7 15 16
f 7 16 8
f 7 17 13
f 8 16 12
f 9 18 19
f 9 19 39
f 9 39 74
f 9 74 40
f 9 40 20
f 9 20 10
f 10 20 43
f 10 43 82
f 10 82 83
f 10 83 44
f 10 44 21
f 11 22 23
f 11 12 16
f 11 16 24
f 11 24 22
f 13 25 14
f 13 17 25
f 14 25 17
f 14 17 26
f 14 26 27
f 14 27 15
f 15 28 16
f 15 27 29
f 15 29 28
f 16 30 24
f 16 28 30
f 17 31 32
f 17 32 33
f 17 33 26
f 18 34 35
f 18 35 36
f 18 36 19
f 19 36 37
f 19 37 38
f 19 38 39
f 20 40 41
f 20 41 42
f 20 42 43
f 21 44 45
f 21 45 46
f 22 47 48
f 22 48 23
f 22 24 47
f 24 30 47
f 26 33 49
f 26 49 50
f 26 50 27
f 27 50 51
f 27 51 52
f 27 52 53
f 27 53 29
f 28 29 54
f 28 54 30
f 29 53 55
f 29 55 56
f 29 56 54
f 30 57 47
f 30 54 57
f 31 58 59
f 31 59 60
f 31 60 32
f 32 60 61
f 32 61 62
f 32 62 49
f 32 49 33
f 34 63 64
f 34 64 65
f 34 65 66
f 34 66 67
f 34 67 35
f 35 67 36
f 36 67 65
f 36 65 68
f 36 68 37
f 37 68 65
f 37 65 69
f 37 69 70
f 37 70 38
f 38 70 71
f 38 71 39
f 39 71 72
f 39 72 73
f 39 73 74
f 40 74 75
f 40 75 42
f 40 42 41
f 42 75 76
f 42 76 77
f 42 77 43
f 43 77 78
f 43 78 79
f 43 79 80
f 43 80 81
f 43 81 82
f 44 83 84
f 44 84 85
f 44 85 86
f 44 86 45
f 45 86 87
f 45 87 88
f 45 88 46
f 46 88 89
f 47 90 48
f 47 57 90
f 49 91 92
f 49 92 50
f 49 62 91
f 50 92 51
f 51 92 53
f 51 53 52
f 53 92 93
f 53 93 94
f 53 94 55
f 54 56 95
f 54 95 96
f 54 96 57
f 55 94 97
f 55 97 56
f 56 97 98
f 56 98 99
f 56 99 95
f 57 96 100
f 57 100 101
f 57 101 90
f 58 102 59
f 59 102 103
f 59 103 104
f 59 104 62
f 59 62 61
f 59 61 60
f 62 104 105
f 62 105 106
f 62 106 91
f 63 107 108
f 63 108 109
f 63 109 110
f 63 110 111
f 63 111 64
f 64 111 65
f 65 67 66
f 65 111 112
f 65 112 113
f 65 113 69
f 69 113 114
f 69 114 70
f 70 114 115
f 70 115 116
f 70 116 72
f 70 72 71
f 72 116 73
f 73 116 117
f 73 117 74
f 74 117 118
f 74 118 119
f 74 119 75
f 75 120 76
f 75 119 120
f 76 120 121
f 76 121 122
f 76 122 123
f 76 123 77
f 77 123 78
f 78 122 124
f 78 124 125
f 78 125 126
f 78 126 79
f 78 123 122
f 79 127 80
f 79 126 127
f 80 127 81
f 81 127 128
f 81 128 82
f 82 128 129
f 82 129 130
f 82 130 83
f 83 130 131
f 83 131 132
f 83 132 133
f 83 133 84
f 84 133 134
f 84 134 86
f 84 86 85
f 86 134 87
f 87 134 135
f 87 135 136
f 87 136 88
f 88 136 137
f 88 137 89
f 89 137 138
f 89 138 102
f 90 101 139
f 91 106 92
f 92 106 93
f 93 106 94
f 94 106 140
f 94 140 141
f 94 141 97
f 95 142 143
f 95 143 96
f 95 99 142
f 96 143 144
f 96 144 100
f 97 141 145
f 97 145 146
f 97 146 147
f 97 147 98
f 98 147 148
f 98 148 149
f 98 149 99
f 99 149 150
f 99 150 142
f 100 144 101
f 101 144 139
f 102 138 151
f 102 151 103
f 103 152 104
f 103 151 152
f 104 152 105
f 105 153 146
f 105 146 106
f 105 152 154
f 105 154 155
f 105 155 156
f 105 156 153
f 106 145 141
f 106 141 140
f 106 146 145
f 107 139 144
f 107 144 157
f 107 157 158
f 107 158 159
f 107 159 108
f 108 159 160
f 108 160 161
f 108 161 162
f 108 162 109
f 109 162 110
f 110 161 163
f 110 163 164
f 110 164 165
f 110 165 112
f 110 112 111
f 110 162 161
f 112 165 113
f 113 165 166
f 113 166 167
f 113 167 114
f 114 167 115
f 115 167 168
f 115 168 169
f 115 169 170
f 115 170 116
f 116 170 117
f 117 171 172
f 117 172 119
f 117 119 118
f 117 170 171
f 119 172 120
f 120 172 173
f 120 173 174
f 120 174 124
f 120 124 121
f 121 124 122
f 124 174 175
f 124 175 125
f 125 175 176
f 125 176 126
f 126 176 177
f 126 177 127
f 127 177 128
f 128 177 178
f 128 178 179
f 128 179 129
f 129 179 178
f 129 178 180
f 129 180 181
f 129 181 182
f 129 182 183
f 129 183 130
f 130 183 184
f 130 184 131
f 131 184 185
f 131 185 132
f 132 185 133
f 133 185 135
f 133 135 134
f 135 185 186
f 135 186 187
f 135 187 188
f 135 188 136
f 136 188 189
f 136 189 138
f 136 138 137
f 138 189 190
f 138 190 191
f 138 191 151
f 142 150 192
f 142 192 163
f 142 163 193
f 142 193 143
f 143 193 194
f 143 194 195
f 143 195 144
f 144 195 157
f 146 153 196
f 146 196 148
f 146 148 147
f 148 196 149
f 149 197 150
f 149 196 198
f 149 198 197
f 150 197 199
f 150 199 200
f 150 200 201
f 150 201 192
f 151 191 154
f 151 154 152
f 153 202 196
f 153 156 203
f 153 203 202
f 154 191 190
f 154 190 204
f 154 204 155
f 155 204 205
f 155 205 156
f 156 205 206
f 156 206 203
f 157 195 194
f 157 194 158
f 158 194 207
f 158 207 159
f 159 207 208
f 159 208 209
f 159 209 160
f 160 209 210
f 160 210 161
f 161 210 163
f 163 210 211
f 163 211 193
f 163 192 164
f 164 192 212
f 164 212 165
f 165 212 213
f 165 213 166
f 166 213 214
f 166 214 167
f 167 214 215
f 167 215 168
f 168 215 216
f 168 216 169
f 169 216 175
f 169 175 217
f 169 217 170
f 170 217 218
f 170 218 171
f 171 218 219
f 171 219 172
f 172 219 174
f 172 174 173
f 174 219 218
f 174 218 175
f 175 220 221
f 175 221 222
f 175 222 176
f 175 218 217
f 175 216 220
f 176 222 178
f 176 178 177
f 178 222 223
f 178 223 180
f 180 223 224
f 180 224 181
f 181 225 182
f 181 224 225
f 182 225 184
f 182 184 183
f 184 225 226
f 184 226 227
f 184 227 185
f 185 227 186
f 186 227 228
f 186 228 229
f 186 229 187
f 187 229 230
f 187 230 188
f 188 230 231
f 188 231 232
f 188 232 204
f 188 204 189
f 189 204 190
f 192 201 212
f 193 211 208
f 193 208 207
f 193 207 194
f 196 202 197
f 196 197 198
f 197 202 199
f 199 202 233
f 199 233 234
f 199 234 200
f 200 234 201
f 201 234 212
f 202 203 235
f 202 235 233
f 203 206 236
f 203 236 235
f 204 231 205
f 204 232 231
f 205 231 230
f 205 230 229
f 205 229 206
f 206 229 236
f 208 211 209
f 209 211 210
f 212 234 237
f 212 237 238
f 212 238 213
f 213 238 239
f 213 239 240
f 213 240 241
f 213 241 242
f 213 242 214
f 214 242 215
f 215 242 241
f 215 241 243
f 215 243 216
f 216 243 244
f 216 244 220
f 220 244 221
f 221 244 245
f 221 245 222
f 222 246 223
f 222 245 247
f 222 247 246
f 223 246 224
f 224 248 226
f 224 226 225
f 224 246 235
f 224 235 248
f 226 249 227
f 226 248 249
f 227 249 250
f 227 250 228
f 228 250 229
f 229 250 236
f 233 251 237
f 233 237 234
f 233 235 246
f 233 246 251
f 235 236 248
f 236 250 249
f 236 249 248
f 237 251 238
f 238 251 239
f 239 251 240
f 240 251 241
f 241 251 247
f 241 247 245
f 241 245 244
f 241 244 243
f 246 247 251
