v 4.34056e-05 0.534195 0.203099
v -0.00675839 0.534195 0.203099
v 4.34056e-05 0.486468 0.203099
v 4.34056e-05 0.535111 0.200151
v -0.0694083 0.529723 0.203099
v -0.00695073 0.535111 0.200151
v -0.0182987 0.534195 0.202093
v -0.030486 0.533736 0.202093
v -0.0426733 0.532875 0.202093
v -0.178587 0.452493 0.203099
v 4.34056e-05 0.516821 -0.0303555
v 4.34056e-05 0.536364 0.195443
v -0.0823475 0.527889 0.203099
v -0.054878 0.531668 0.202093
v -0.0670828 0.530338 0.202093
v -0.0792351 0.528649 0.202093
v -0.00341869 0.536364 0.195443
v -0.0182987 0.536118 0.194415
v -0.030486 0.535894 0.193478
v -0.0426733 0.535469 0.19165
v -0.156031 0.511064 0.203099
v -0.177643 0.504389 0.201613
v -0.178587 0.506704 0.191147
v -0.178587 0.484925 -0.0303555
v 4.34056e-05 0.565766 -0.0303555
v 4.34056e-05 0.554732 0.115759
v -0.0935206 0.526112 0.203099
v -0.0550179 0.535044 0.188245
v -0.0670478 0.533613 0.188908
v -0.0914049 0.526961 0.201088
v -0.0792351 0.531914 0.188908
v -0.00609395 0.554732 0.115759
v -0.00609395 0.546269 0.152345
v -0.00695073 0.537504 0.190073
v -0.0182987 0.537537 0.188336
v -0.030486 0.537314 0.187377
v -0.0400505 0.548784 0.135526
v -0.0426733 0.541786 0.164525
v -0.150278 0.512752 0.203099
v -0.151869 0.513031 0.200242
v -0.158968 0.512047 0.195672
v -0.163637 0.509465 0.200242
v -0.167746 0.511008 0.188908
v -0.170334 0.51179 0.182441
v -0.177643 0.507587 0.188976
v -0.178587 0.510851 0.174351
v -0.178587 0.536911 -0.0303555
v -0.00621635 0.565766 -0.0303555
v 4.34056e-05 0.566683 -0.0182669
v 4.34056e-05 0.557471 0.103556
v -0.101232 0.524748 0.203099
v -0.0914049 0.529902 0.188908
v -0.102805 0.525038 0.200745
v -0.0591794 0.536073 0.182052
v -0.054878 0.543418 0.152345
v -0.0750561 0.536565 0.171975
v -0.0735524 0.548505 0.122158
v -0.0816831 0.547834 0.119301
v -0.0970702 0.536185 0.158126
v -0.00609395 0.557471 0.103556
v -0.0182987 0.55433 0.115759
v -0.0182987 0.551512 0.127939
v -0.0182987 0.543049 0.164525
v -0.030486 0.553927 0.115759
v -0.0426733 0.553111 0.115759
v -0.054878 0.551915 0.115759
v -0.142235 0.515066 0.203099
v -0.140154 0.516195 0.201088
v -0.140154 0.519214 0.188908
v -0.152341 0.515692 0.188908
v -0.161678 0.512864 0.188908
v -0.178587 0.511824 0.170398
v -0.169897 0.523853 0.133126
v -0.172939 0.524826 0.125037
v -0.17773 0.525664 0.115074
v -0.178587 0.523898 0.121198
v -0.178587 0.537795 -0.0192038
v -0.175684 0.537806 -0.0303555
v -0.0182987 0.565375 -0.0303555
v -0.00609395 0.566683 -0.0182669
v 4.34056e-05 0.566672 -0.00608683
v 4.34056e-05 0.558377 0.0974319
v -0.104974 0.524043 0.203099
v -0.103592 0.527722 0.188908
v -0.111181 0.524412 0.196449
v -0.0670478 0.550685 0.115759
v -0.0670478 0.547432 0.129744
v -0.0670478 0.553457 0.103556
v -0.0792351 0.551836 0.103556
v -0.0782559 0.549299 0.115416
v -0.0874532 0.548784 0.111143
v -0.0914049 0.541339 0.140142
v -0.0955314 0.548114 0.108264
v -0.103592 0.544994 0.115759
v -0.103592 0.537023 0.149534
v -0.103592 0.530606 0.176705
v -0.00609395 0.559271 0.0913762
v -0.0182987 0.557069 0.103556
v -0.030486 0.556666 0.103556
v -0.0426733 0.555861 0.103556
v -0.054878 0.554676 0.103556
v -0.130502 0.51804 0.203099
v -0.127967 0.519303 0.201088
v -0.131569 0.523484 0.180361
v -0.13552 0.524446 0.172226
v -0.146746 0.536397 0.110275
v -0.147166 0.524345 0.159566
v -0.165315 0.526335 0.128625
v -0.164529 0.529678 0.115759
v -0.164529 0.532551 0.103556
v -0.178115 0.528012 0.104562
v -0.178587 0.529622 0.0937528
v -0.178587 0.537795 -0.0051499
v -0.164529 0.542166 -0.0182669
v -0.164529 0.541216 -0.0303555
v -0.030486 0.564973 -0.0303555
v -0.0182987 0.566281 -0.0182669
v -0.0182987 0.566281 -0.00608683
v -0.00609395 0.566672 -0.00608683
v 4.34056e-05 0.566225 -3.11013e-05
v 4.34056e-05 0.559271 0.0913762
v -0.109869 0.522993 0.203099
v -0.110307 0.536397 0.14686
v -0.123438 0.524435 0.18436
v -0.127669 0.522434 0.188588
v -0.11543 0.522333 0.200745
v -0.11494 0.534228 0.151499
v -0.0670478 0.555269 0.0913762
v -0.0792351 0.553659 0.0913762
v -0.100952 0.549019 0.100128
v -0.0914399 0.549746 0.103945
v -0.104449 0.547577 0.103945
v -0.00121554 0.560702 0.0741916
v -0.00635623 0.560244 0.0786477
v -0.0182987 0.559808 0.0792419
v -0.0182987 0.558869 0.0913762
v -0.030486 0.558466 0.0913762
v -0.0426733 0.557672 0.0913762
v -0.054878 0.556476 0.0913762
v -0.12718 0.537146 0.127208
v -0.134804 0.536442 0.122637
v -0.139367 0.537146 0.114936
v -0.142934 0.535424 0.11841
v -0.140154 0.539583 0.103556
v -0.149281 0.537169 0.103556
v -0.157937 0.536095 0.0955581
v -0.177643 0.530304 0.0913762
v -0.178587 0.534933 0.0306589
v -0.178587 0.537135 0.00328242
v -0.164529 0.542166 -0.00608683
v -0.152341 0.545833 -0.0182669
v -0.152341 0.544894 -0.0303555
v -0.0426733 0.56419 -0.0303555
v -0.030486 0.565878 -0.0182669
v -0.030486 0.565878 -0.00608683
v -0.0182987 0.565364 0.00611604
v -0.00609395 0.565766 0.00611604
v -0.115779 0.542512 0.115759
v -0.054878 0.557415 0.0792419
v -0.0670478 0.559003 0.042679
v -0.0703526 0.560344 0.0207641
v -0.0733425 0.560657 0.0126517
v -0.0792351 0.554598 0.0792419
v -0.0914049 0.551658 0.0913762
v -0.109048 0.548337 0.0961522
v -0.115779 0.54533 0.103556
v -0.0106052 0.560579 0.0724549
v -0.0315351 0.560322 0.0668333
v -0.030486 0.559405 0.0792419
v -0.0363086 0.560613 0.0608462
v -0.0426733 0.558611 0.0792419
v -0.127967 0.539673 0.115759
v -0.127967 0.54249 0.103556
v -0.140154 0.541439 0.0913762
v -0.153233 0.537839 0.0914447
v -0.152341 0.539091 0.0792419
v -0.160052 0.536755 0.0792419
v -0.166172 0.534899 0.0792419
v -0.163654 0.534687 0.0914447
v -0.170316 0.536162 0.0475692
v -0.178587 0.535726 0.0208555
v -0.178587 0.536509 0.0111663
v -0.174093 0.537325 0.0182961
v -0.175667 0.537806 0.00611604
v -0.164529 0.541204 0.00611604
v -0.152341 0.544883 0.00611604
v -0.152341 0.545833 -0.00608683
v -0.144578 0.548046 -0.0182669
v -0.142602 0.547577 -0.0303555
v -0.054878 0.563005 -0.0303555
v -0.0426733 0.565096 -0.0182669
v -0.0426733 0.565096 -0.00608683
v -0.030486 0.564962 0.00611604
v -0.030486 0.563117 0.0304761
v -0.054948 0.561149 0.0302476
v -0.0670478 0.561798 0.00611604
v -0.0670478 0.562714 -0.00608683
v -0.0748987 0.560914 0.00611604
v -0.0914049 0.552597 0.0792419
v -0.0810011 0.559931 0.00611604
v -0.0914049 0.557292 0.0182961
v -0.0914049 0.555414 0.042679
v -0.104449 0.549455 0.0917875
v -0.103592 0.55339 0.042679
v -0.103592 0.556208 0.00611604
v -0.103592 0.557136 -0.00608683
v -0.110586 0.54865 0.0880398
v -0.115098 0.547297 0.0917875
v -0.127967 0.544335 0.0913762
v -0.0426733 0.564179 0.00611604
v -0.0396483 0.560926 0.0527109
v -0.0433027 0.560322 0.0560016
v -0.047779 0.560534 0.0475007
v -0.140154 0.542401 0.0792419
v -0.144578 0.548046 -0.00608683
v -0.13851 0.549477 -0.0182669
v -0.136517 0.549008 -0.0303555
v -0.0670478 0.561798 -0.0303555
v -0.0670478 0.562714 -0.0182669
v -0.054878 0.563911 -0.0182669
v -0.054878 0.563911 -0.00608683
v -0.054878 0.562994 0.00611604
v -0.0777838 0.561373 -0.00608683
v -0.0838687 0.560389 -0.00608683
v -0.0914049 0.55822 0.00611604
v -0.0914049 0.559148 -0.00608683
v -0.103592 0.557136 -0.0182669
v -0.115779 0.554743 -0.00608683
v -0.115779 0.553804 0.00611604
v -0.127967 0.550998 0.00611604
v -0.127967 0.545296 0.0792419
v -0.142584 0.547577 0.00611604
v -0.13851 0.549477 -0.00608683
v -0.127967 0.551937 -0.0182669
v -0.127967 0.551009 -0.0303555
v -0.0749512 0.560914 -0.0303555
v -0.0777838 0.561373 -0.0182669
v -0.0838862 0.560389 -0.0182669
v -0.0914049 0.559148 -0.0182669
v -0.115779 0.554743 -0.0182669
v -0.0914923 0.55822 -0.0303555
v -0.103592 0.556219 -0.0303555
v -0.127967 0.551937 -0.00608683
v -0.136482 0.549008 0.00611604
v -0.115779 0.553815 -0.0303555
v -0.0811235 0.559919 -0.0303555
f 1 2 5
f 1 5 13
f 1 13 27
f 1 27 51
f 1 51 83
f 1 83 122
f 1 122 102
f 1 102 67
f 1 67 39
f 1 39 21
f 1 21 10
f 1 10 3
f 1 3 11
f 1 11 25
f 1 25 49
f 1 49 81
f 1 81 120
f 1 120 121
f 1 121 82
f 1 82 50
f 1 50 26
f 1 26 12
f 1 12 4
f 1 4 6
f 1 6 2
f 2 6 7
f 2 7 8
f 2 8 9
f 2 9 5
f 3 10 11
f 4 12 17
f 4 17 6
f 5 9 14
f 5 14 15
f 5 15 16
f 5 16 13
f 6 8 7
f 6 17 18
f 6 18 19
f 6 19 8
f 8 19 9
f 9 19 20
f 9 20 14
f 10 21 22
f 10 22 23
f 10 23 46
f 10 46 72
f 10 72 76
f 10 76 112
f 10 112 148
f 10 148 181
f 10 181 182
f 10 182 149
f 10 149 113
f 10 113 77
f 10 77 47
f 10 47 24
f 10 24 11
f 11 24 47
f 11 47 78
f 11 78 115
f 11 115 152
f 11 152 189
f 11 189 217
f 11 217 235
f 11 235 245
f 11 245 242
f 11 242 241
f 11 241 246
f 11 246 236
f 11 236 218
f 11 218 190
f 11 190 153
f 11 153 116
f 11 116 79
f 11 79 48
f 11 48 25
f 12 26 32
f 12 32 17
f 13 16 27
f 14 20 28
f 14 28 29
f 14 29 15
f 15 29 16
f 16 30 27
f 16 29 31
f 16 31 30
f 17 32 33
f 17 33 34
f 17 34 18
f 18 34 35
f 18 35 19
f 19 35 36
f 19 36 37
f 19 37 20
f 20 37 38
f 20 38 28
f 21 39 40
f 21 40 41
f 21 41 42
f 21 42 22
f 22 42 43
f 22 43 44
f 22 44 45
f 22 45 23
f 23 45 46
f 25 48 80
f 25 80 49
f 26 50 60
f 26 60 32
f 27 30 52
f 27 52 53
f 27 53 51
f 28 54 29
f 28 38 55
f 28 55 54
f 29 56 31
f 29 54 57
f 29 57 56
f 30 31 52
f 31 56 57
f 31 57 58
f 31 58 59
f 31 59 52
f 32 60 98
f 32 98 61
f 32 61 62
f 32 62 63
f 32 63 33
f 33 63 35
f 33 35 34
f 35 63 64
f 35 64 36
f 36 64 37
f 37 64 65
f 37 65 66
f 37 66 55
f 37 55 38
f 39 67 68
f 39 68 40
f 40 68 69
f 40 69 70
f 40 70 41
f 41 70 71
f 41 71 44
f 41 44 43
f 41 43 42
f 44 72 46
f 44 46 45
f 44 71 73
f 44 73 74
f 44 74 75
f 44 75 76
f 44 76 72
f 47 77 78
f 48 79 80
f 49 80 119
f 49 119 81
f 50 82 60
f 51 53 83
f 52 84 53
f 52 59 84
f 53 85 83
f 53 84 85
f 54 55 86
f 54 86 87
f 54 87 57
f 55 66 86
f 57 87 86
f 57 86 88
f 57 88 89
f 57 89 90
f 57 90 91
f 57 91 58
f 58 91 92
f 58 92 59
f 59 92 93
f 59 93 94
f 59 94 95
f 59 95 96
f 59 96 84
f 60 82 97
f 60 97 136
f 60 136 98
f 61 98 99
f 61 99 64
f 61 64 62
f 62 64 63
f 64 99 100
f 64 100 65
f 65 100 101
f 65 101 66
f 66 101 88
f 66 88 86
f 67 102 103
f 67 103 68
f 68 103 69
f 69 104 105
f 69 105 106
f 69 106 107
f 69 107 70
f 69 103 104
f 70 107 106
f 70 106 71
f 71 106 108
f 71 108 73
f 73 108 109
f 73 109 74
f 74 109 75
f 75 109 110
f 75 110 111
f 75 111 76
f 76 111 112
f 77 113 150
f 77 150 114
f 77 114 78
f 78 114 115
f 79 116 154
f 79 154 117
f 79 117 80
f 80 117 118
f 80 118 119
f 81 119 120
f 82 121 97
f 83 85 122
f 84 96 123
f 84 123 85
f 85 124 125
f 85 125 103
f 85 103 126
f 85 126 122
f 85 123 127
f 85 127 124
f 88 101 128
f 88 128 129
f 88 129 89
f 89 130 131
f 89 131 93
f 89 93 91
f 89 91 90
f 89 129 130
f 91 93 92
f 93 131 130
f 93 130 132
f 93 132 94
f 94 132 123
f 94 123 95
f 95 123 96
f 97 121 133
f 97 133 134
f 97 134 135
f 97 135 136
f 98 136 137
f 98 137 99
f 99 137 138
f 99 138 100
f 100 138 101
f 101 138 139
f 101 139 128
f 102 122 103
f 103 125 104
f 103 122 126
f 104 125 124
f 104 124 140
f 104 140 141
f 104 141 105
f 105 141 142
f 105 142 143
f 105 143 106
f 106 143 142
f 106 142 144
f 106 144 145
f 106 145 110
f 106 110 109
f 106 109 108
f 110 145 146
f 110 146 111
f 111 146 112
f 112 146 147
f 112 147 148
f 113 149 150
f 114 151 152
f 114 152 115
f 114 150 187
f 114 187 151
f 116 153 191
f 116 191 154
f 117 154 155
f 117 155 118
f 118 155 193
f 118 193 156
f 118 156 157
f 118 157 119
f 119 157 120
f 120 157 133
f 120 133 121
f 123 132 158
f 123 158 127
f 124 127 140
f 127 158 140
f 128 139 159
f 128 159 160
f 128 160 161
f 128 161 162
f 128 162 129
f 129 162 163
f 129 163 199
f 129 199 164
f 129 164 165
f 129 165 130
f 130 165 132
f 132 165 166
f 132 166 158
f 133 157 134
f 134 157 167
f 134 167 135
f 135 167 168
f 135 168 169
f 135 169 137
f 135 137 136
f 137 169 170
f 137 170 138
f 138 170 171
f 138 171 159
f 138 159 139
f 140 158 172
f 140 172 141
f 141 172 142
f 142 172 173
f 142 173 144
f 144 173 165
f 144 165 174
f 144 174 145
f 145 174 146
f 146 174 175
f 146 175 176
f 146 176 177
f 146 177 178
f 146 178 179
f 146 179 147
f 147 179 178
f 147 178 148
f 148 178 180
f 148 180 181
f 149 182 180
f 149 180 183
f 149 183 184
f 149 184 150
f 150 184 185
f 150 185 186
f 150 186 187
f 151 187 215
f 151 215 188
f 151 188 152
f 152 188 189
f 153 190 220
f 153 220 191
f 154 191 192
f 154 192 155
f 155 192 170
f 155 170 193
f 156 193 194
f 156 194 157
f 157 194 168
f 157 168 167
f 158 166 173
f 158 173 172
f 159 171 195
f 159 195 196
f 159 196 160
f 160 196 161
f 161 196 162
f 162 196 197
f 162 197 198
f 162 198 163
f 163 198 200
f 163 200 201
f 163 201 202
f 163 202 199
f 164 203 165
f 164 199 203
f 165 173 166
f 165 203 204
f 165 204 205
f 165 205 206
f 165 206 207
f 165 207 208
f 165 208 209
f 165 209 174
f 168 194 170
f 168 170 169
f 170 194 193
f 170 192 210
f 170 210 211
f 170 211 171
f 171 211 212
f 171 212 213
f 171 213 195
f 174 209 231
f 174 231 214
f 174 214 215
f 174 215 176
f 174 176 175
f 176 215 186
f 176 186 185
f 176 185 180
f 176 180 177
f 177 180 178
f 180 182 181
f 180 185 183
f 183 185 184
f 186 215 187
f 188 215 233
f 188 233 216
f 188 216 189
f 189 216 217
f 190 218 219
f 190 219 220
f 191 220 221
f 191 221 192
f 192 221 222
f 192 222 210
f 195 213 222
f 195 222 196
f 196 222 221
f 196 221 197
f 197 221 220
f 197 220 219
f 197 219 237
f 197 237 223
f 197 223 198
f 198 223 200
f 199 202 205
f 199 205 204
f 199 204 203
f 200 223 224
f 200 224 201
f 201 224 225
f 201 225 205
f 201 205 202
f 205 225 226
f 205 226 206
f 206 226 239
f 206 239 227
f 206 227 240
f 206 240 228
f 206 228 207
f 207 228 229
f 207 229 230
f 207 230 231
f 207 231 209
f 207 209 208
f 210 222 213
f 210 213 212
f 210 212 211
f 214 231 232
f 214 232 215
f 215 232 233
f 216 233 243
f 216 243 234
f 216 234 235
f 216 235 217
f 218 236 219
f 219 236 237
f 223 237 238
f 223 238 224
f 224 238 226
f 224 226 225
f 226 238 239
f 227 239 241
f 227 241 242
f 227 242 240
f 228 240 234
f 228 234 243
f 228 243 230
f 228 230 229
f 230 243 233
f 230 233 244
f 230 244 231
f 231 244 232
f 232 244 233
f 234 240 245
f 234 245 235
f 236 246 237
f 237 246 238
f 238 246 241
f 238 241 239
f 240 242 245
