v -0.213418 -0.340152 -0.393425
v -0.211746 -0.405808 -0.393425
v -0.213418 -0.41072 -0.384729
v -0.213418 -0.433392 -0.22615
v 9.07886e-05 -0.483134 -0.22615
v 9.07886e-05 -0.401601 -0.393425
v -0.189049 -0.416849 -0.393425
v -0.198308 -0.413347 -0.392213
v -0.204515 -0.413118 -0.388053
v -0.211621 -0.415327 -0.379211
v -0.213418 -0.418658 -0.372726
v -0.213418 -0.490253 -0.22615
v -0.00684783 -0.534627 -0.22615
v 9.07886e-05 -0.533789 -0.228803
v 9.07886e-05 -0.458291 -0.392475
v -0.00609546 -0.45772 -0.393425
v -0.175778 -0.422656 -0.393425
v -0.17908 -0.425035 -0.387546
v -0.18512 -0.427643 -0.379424
v -0.201485 -0.432878 -0.359806
v -0.199019 -0.428424 -0.368452
v -0.207148 -0.426577 -0.365586
v -0.213418 -0.424959 -0.363179
v -0.212624 -0.487227 -0.236057
v -0.20416 -0.494156 -0.22615
v -0.213418 -0.481916 -0.247487
v -0.0186351 -0.534284 -0.22615
v -0.0183008 -0.530591 -0.237695
v -0.00300233 -0.530991 -0.237695
v 9.07886e-05 -0.525737 -0.250975
v 9.07886e-05 -0.467791 -0.376296
v -0.00300233 -0.478261 -0.358463
v -0.00300233 -0.461432 -0.38712
v -0.00300233 -0.487931 -0.34199
v -0.0183008 -0.487722 -0.341646
v -0.0165034 -0.457397 -0.393425
v -0.181797 -0.438341 -0.364997
v -0.162674 -0.427833 -0.393425
v -0.170951 -0.426729 -0.390199
v -0.188882 -0.436799 -0.362557
v -0.203972 -0.437313 -0.35116
v -0.211537 -0.439465 -0.342333
v -0.213418 -0.433773 -0.349719
v -0.206271 -0.487112 -0.242918
v -0.201756 -0.490863 -0.238382
v -0.184034 -0.500133 -0.2327
v -0.189258 -0.500019 -0.22615
v -0.213418 -0.476376 -0.260162
v -0.204682 -0.461985 -0.302115
v -0.207462 -0.475443 -0.268448
v -0.0304851 -0.533828 -0.22615
v -0.0304851 -0.530134 -0.237695
v -0.0183008 -0.526118 -0.248977
v -0.00609546 -0.526327 -0.249469
v -0.00300233 -0.506739 -0.298627
v 9.07886e-05 -0.497011 -0.322961
v 9.07886e-05 -0.494289 -0.328971
v -0.00300233 -0.491472 -0.335145
v -0.0183008 -0.491072 -0.335145
v -0.0259918 -0.487588 -0.3414
v -0.0304851 -0.456711 -0.393425
v -0.18441 -0.45161 -0.342317
v -0.150469 -0.432326 -0.393425
v -0.152308 -0.436305 -0.386007
v -0.158829 -0.438893 -0.378032
v -0.161546 -0.452105 -0.355319
v -0.169697 -0.450582 -0.352879
v -0.176719 -0.453076 -0.344675
v -0.188611 -0.446946 -0.346755
v -0.200377 -0.441463 -0.347197
v -0.19254 -0.449858 -0.339419
v -0.201485 -0.448164 -0.335276
v -0.213418 -0.442567 -0.335472
v -0.196552 -0.463812 -0.306324
v -0.195319 -0.475443 -0.280696
v -0.198141 -0.488769 -0.246767
v -0.188422 -0.496612 -0.237122
v -0.179457 -0.49842 -0.240822
v -0.171327 -0.499943 -0.244409
v -0.175904 -0.501275 -0.237122
v -0.164513 -0.504854 -0.237695
v -0.14748 -0.512221 -0.232504
v -0.157387 -0.510851 -0.226658
v -0.177388 -0.504416 -0.22615
v -0.213418 -0.464859 -0.28651
v -0.213418 -0.451248 -0.31759
v -0.201485 -0.454142 -0.323322
v -0.0426695 -0.532971 -0.22615
v -0.0304851 -0.525889 -0.248388
v -0.0183008 -0.5237 -0.255069
v -0.0426695 -0.529259 -0.237695
v -0.0426695 -0.525452 -0.247291
v -0.0183008 -0.506339 -0.298627
v -0.00609546 -0.497011 -0.322961
v -0.0183008 -0.496612 -0.322961
v -0.0304851 -0.496098 -0.322961
v -0.0302343 -0.490006 -0.336209
v -0.0341216 -0.487341 -0.340991
v -0.0304851 -0.477785 -0.357628
v -0.0304851 -0.464516 -0.380177
v -0.0421052 -0.45576 -0.393425
v -0.157387 -0.462784 -0.340663
v -0.164513 -0.461471 -0.338272
v -0.17605 -0.459262 -0.334342
v -0.188611 -0.453799 -0.335276
v -0.139204 -0.436057 -0.393425
v -0.143259 -0.437827 -0.388512
v -0.165182 -0.455189 -0.348212
v -0.19766 -0.452143 -0.331296
v -0.213418 -0.448659 -0.32342
v -0.20579 -0.450296 -0.327612
v -0.19231 -0.462042 -0.314413
v -0.188506 -0.460062 -0.322519
v -0.184201 -0.463679 -0.318163
v -0.188882 -0.476681 -0.283562
v -0.193794 -0.487036 -0.254889
v -0.177868 -0.463431 -0.324402
v -0.172915 -0.488369 -0.2702
v -0.169926 -0.475043 -0.30413
v -0.164513 -0.46899 -0.322961
v -0.161797 -0.47649 -0.307568
v -0.15676 -0.474796 -0.315658
v -0.164513 -0.501009 -0.24698
v -0.157867 -0.499505 -0.255544
v -0.151869 -0.509023 -0.237007
v -0.149717 -0.500742 -0.258508
v -0.144157 -0.499048 -0.26663
v -0.136007 -0.500267 -0.269594
v -0.140124 -0.510775 -0.24115
v -0.140124 -0.513249 -0.235058
v -0.128796 -0.518884 -0.22615
v -0.140834 -0.515819 -0.22615
v -0.0548539 -0.531753 -0.22615
v -0.0548539 -0.52806 -0.237695
v -0.0398481 -0.512183 -0.281139
v -0.0304851 -0.51007 -0.288016
v -0.0183008 -0.499372 -0.316084
v -0.0548539 -0.524861 -0.245801
v -0.0426695 -0.51955 -0.262061
v -0.0304851 -0.501542 -0.30937
v -0.0426695 -0.495165 -0.322961
v -0.0426695 -0.490101 -0.334211
v -0.0426695 -0.486979 -0.340303
v -0.0426695 -0.482867 -0.347328
v -0.0426695 -0.464021 -0.379325
v -0.0548539 -0.4767 -0.355778
v -0.0608939 -0.463108 -0.377786
v -0.0549793 -0.454446 -0.393425
v -0.146289 -0.450943 -0.365636
v -0.149236 -0.46404 -0.342759
v -0.127939 -0.473311 -0.337552
v -0.139455 -0.471712 -0.334244
v -0.152914 -0.466648 -0.336029
v -0.164513 -0.464764 -0.332181
v -0.171557 -0.463469 -0.329741
v -0.126142 -0.44015 -0.39313
v -0.127939 -0.445309 -0.383894
v -0.121795 -0.450924 -0.37777
v -0.127939 -0.449992 -0.376263
v -0.140124 -0.465449 -0.345035
v -0.113205 -0.443481 -0.393425
v -0.152559 -0.473102 -0.322798
v -0.154524 -0.486313 -0.289687
v -0.140124 -0.485951 -0.301018
v -0.140124 -0.492024 -0.286428
v -0.13492 -0.475576 -0.329593
v -0.132454 -0.487074 -0.30372
v -0.12819 -0.490006 -0.29925
v -0.133436 -0.511726 -0.243426
v -0.128796 -0.514696 -0.238694
v -0.115776 -0.518161 -0.237695
v -0.113038 -0.522596 -0.22615
v -0.0982621 -0.524195 -0.231947
v -0.0674563 -0.530401 -0.22615
v -0.0674981 -0.526289 -0.238677
v -0.0637362 -0.524386 -0.244621
v -0.0426695 -0.501085 -0.308207
v -0.0548539 -0.522425 -0.251892
v -0.0548539 -0.493966 -0.322961
v -0.0548539 -0.489511 -0.333081
v -0.0548539 -0.48637 -0.339173
v -0.0548539 -0.481668 -0.347328
v -0.0670383 -0.480145 -0.347328
v -0.0737262 -0.475405 -0.353583
v -0.0670383 -0.462613 -0.376951
v -0.0672264 -0.45279 -0.393425
v -0.127939 -0.476528 -0.331444
v -0.128504 -0.466896 -0.348229
v -0.118556 -0.474529 -0.339844
v -0.124784 -0.463964 -0.354828
v -0.132913 -0.462784 -0.352896
v -0.113665 -0.451895 -0.379391
v -0.115776 -0.461413 -0.362803
v -0.114982 -0.471541 -0.346296
v -0.101961 -0.446184 -0.393425
v -0.141252 -0.47571 -0.324779
v -0.127939 -0.480259 -0.322961
v -0.124303 -0.488102 -0.306226
v -0.115776 -0.483286 -0.322961
v -0.115776 -0.48913 -0.308715
v -0.115776 -0.493261 -0.298627
v -0.110049 -0.511955 -0.256183
v -0.102839 -0.521378 -0.236679
v -0.104678 -0.524081 -0.227558
v -0.0921177 -0.52667 -0.22615
v -0.0978232 -0.499753 -0.2927
v -0.0914489 -0.513763 -0.260653
v -0.0914489 -0.522311 -0.239463
v -0.0914489 -0.524747 -0.233372
v -0.0797452 -0.528669 -0.22615
v -0.0792227 -0.525737 -0.235861
v -0.0718661 -0.523891 -0.243393
v -0.06336 -0.5 -0.305538
v -0.0670383 -0.492481 -0.322961
v -0.0670383 -0.488769 -0.331624
v -0.0670383 -0.485628 -0.337716
v -0.0783658 -0.477975 -0.347967
v -0.081856 -0.474739 -0.35247
v -0.0792227 -0.451362 -0.392508
v -0.114982 -0.477613 -0.335521
v -0.103612 -0.48045 -0.335145
v -0.110405 -0.475481 -0.341531
v -0.103153 -0.459567 -0.370777
v -0.103612 -0.476281 -0.342857
v -0.0949391 -0.450391 -0.389085
v -0.0987637 -0.463412 -0.366094
v -0.0888156 -0.449935 -0.391951
v -0.0914489 -0.486789 -0.32735
v -0.102881 -0.487112 -0.32098
v -0.0914489 -0.489264 -0.321258
v -0.0914489 -0.49783 -0.300118
v -0.0792227 -0.498839 -0.302607
v -0.0792227 -0.52332 -0.241969
v -0.0714899 -0.499448 -0.304146
v -0.0769656 -0.512488 -0.269709
v -0.0800169 -0.490044 -0.324009
v -0.0846357 -0.487379 -0.328758
v -0.0764849 -0.488045 -0.330183
v -0.0800169 -0.485152 -0.334604
v -0.0914489 -0.482924 -0.335145
v -0.0914489 -0.477518 -0.344953
v -0.0914489 -0.473882 -0.351061
f 1 2 3
f 1 3 11
f 1 11 23
f 1 23 43
f 1 43 73
f 1 73 110
f 1 110 86
f 1 86 85
f 1 85 48
f 1 48 26
f 1 26 12
f 1 12 4
f 1 4 5
f 1 5 6
f 1 6 16
f 1 16 36
f 1 36 61
f 1 61 101
f 1 101 148
f 1 148 186
f 1 186 195
f 1 195 161
f 1 161 106
f 1 106 63
f 1 63 38
f 1 38 17
f 1 17 7
f 1 7 2
f 2 7 8
f 2 8 9
f 2 9 10
f 2 10 3
f 3 10 11
f 4 12 25
f 4 25 47
f 4 47 84
f 4 84 132
f 4 132 131
f 4 131 172
f 4 172 205
f 4 205 210
f 4 210 174
f 4 174 133
f 4 133 88
f 4 88 51
f 4 51 27
f 4 27 13
f 4 13 5
f 5 13 14
f 5 14 30
f 5 30 56
f 5 56 57
f 5 57 31
f 5 31 15
f 5 15 6
f 6 15 16
f 7 17 18
f 7 18 19
f 7 19 20
f 7 20 21
f 7 21 22
f 7 22 8
f 8 22 9
f 9 22 10
f 10 23 11
f 10 22 23
f 12 24 25
f 12 26 24
f 13 27 28
f 13 28 29
f 13 29 14
f 14 29 30
f 15 31 32
f 15 32 33
f 15 33 16
f 16 33 32
f 16 32 34
f 16 34 35
f 16 35 36
f 17 37 18
f 17 38 39
f 17 39 37
f 18 37 19
f 19 37 40
f 19 40 20
f 20 41 22
f 20 22 21
f 20 40 41
f 22 42 43
f 22 43 23
f 22 41 42
f 24 26 44
f 24 44 45
f 24 45 46
f 24 46 25
f 25 46 47
f 26 48 49
f 26 49 50
f 26 50 44
f 27 51 52
f 27 52 28
f 28 53 54
f 28 54 29
f 28 52 53
f 29 54 30
f 30 54 55
f 30 55 56
f 31 57 34
f 31 34 32
f 34 58 35
f 34 57 58
f 35 59 60
f 35 60 36
f 35 58 59
f 36 60 61
f 37 62 40
f 37 39 62
f 38 63 64
f 38 64 65
f 38 65 66
f 38 66 67
f 38 67 68
f 38 68 39
f 39 68 62
f 40 62 69
f 40 69 70
f 40 70 41
f 41 70 42
f 42 70 71
f 42 71 72
f 42 72 73
f 42 73 43
f 44 50 74
f 44 74 75
f 44 75 76
f 44 76 45
f 45 76 77
f 45 77 46
f 46 78 79
f 46 79 80
f 46 80 81
f 46 81 82
f 46 82 83
f 46 83 84
f 46 84 47
f 46 77 78
f 48 85 49
f 49 85 86
f 49 86 87
f 49 87 74
f 49 74 50
f 51 88 52
f 52 89 90
f 52 90 53
f 52 88 91
f 52 91 92
f 52 92 89
f 53 90 54
f 54 90 93
f 54 93 94
f 54 94 55
f 55 94 56
f 56 94 57
f 57 94 58
f 58 94 59
f 59 95 96
f 59 96 97
f 59 97 60
f 59 94 95
f 60 97 98
f 60 98 99
f 60 99 100
f 60 100 61
f 61 100 98
f 61 98 101
f 62 68 102
f 62 102 103
f 62 103 104
f 62 104 105
f 62 105 71
f 62 71 69
f 63 102 64
f 63 106 107
f 63 107 102
f 64 102 66
f 64 66 65
f 66 108 67
f 66 102 108
f 67 108 68
f 68 108 102
f 69 71 70
f 71 105 109
f 71 109 72
f 72 109 73
f 73 109 111
f 73 111 110
f 74 112 75
f 74 87 112
f 75 112 113
f 75 113 114
f 75 114 115
f 75 115 116
f 75 116 76
f 76 116 77
f 77 116 78
f 78 116 115
f 78 115 117
f 78 117 118
f 78 118 79
f 79 119 120
f 79 120 121
f 79 121 122
f 79 122 123
f 79 123 81
f 79 81 80
f 79 118 119
f 81 123 124
f 81 124 125
f 81 125 82
f 82 125 126
f 82 126 127
f 82 127 128
f 82 128 129
f 82 129 130
f 82 130 131
f 82 131 132
f 82 132 83
f 83 132 84
f 86 110 111
f 86 111 87
f 87 111 109
f 87 109 113
f 87 113 112
f 88 133 134
f 88 134 91
f 89 92 135
f 89 135 136
f 89 136 137
f 89 137 93
f 89 93 90
f 91 134 138
f 91 138 92
f 92 139 135
f 92 138 139
f 93 137 94
f 94 137 95
f 95 137 96
f 96 140 135
f 96 135 141
f 96 141 142
f 96 142 97
f 96 137 140
f 97 142 98
f 98 142 143
f 98 143 144
f 98 144 145
f 98 145 101
f 98 100 99
f 101 145 146
f 101 146 147
f 101 147 148
f 102 107 149
f 102 149 150
f 102 150 151
f 102 151 152
f 102 152 153
f 102 153 154
f 102 154 103
f 103 154 155
f 103 155 104
f 104 155 105
f 105 155 109
f 106 156 157
f 106 157 158
f 106 158 159
f 106 159 160
f 106 160 149
f 106 149 107
f 106 161 156
f 109 155 113
f 113 155 117
f 113 117 114
f 114 117 115
f 117 155 120
f 117 120 119
f 117 119 118
f 120 155 154
f 120 154 162
f 120 162 122
f 120 122 121
f 122 162 163
f 122 163 124
f 122 124 123
f 124 163 127
f 124 127 126
f 124 126 125
f 127 163 164
f 127 164 165
f 127 165 128
f 128 166 167
f 128 167 168
f 128 168 169
f 128 169 129
f 128 165 164
f 128 164 166
f 129 169 130
f 130 169 170
f 130 170 171
f 130 171 131
f 131 171 173
f 131 173 172
f 133 174 134
f 134 174 175
f 134 175 176
f 134 176 138
f 135 140 136
f 135 139 177
f 135 177 141
f 136 140 137
f 138 178 139
f 138 176 178
f 139 178 177
f 141 177 179
f 141 179 180
f 141 180 142
f 142 180 143
f 143 180 181
f 143 181 182
f 143 182 144
f 144 182 146
f 144 146 145
f 146 182 147
f 147 183 184
f 147 184 185
f 147 185 186
f 147 186 148
f 147 182 183
f 149 160 150
f 150 160 151
f 151 187 166
f 151 166 152
f 151 160 188
f 151 188 189
f 151 189 187
f 152 166 153
f 153 166 154
f 154 166 162
f 156 158 157
f 156 161 158
f 158 189 190
f 158 190 188
f 158 188 191
f 158 191 160
f 158 160 159
f 158 161 192
f 158 192 193
f 158 193 194
f 158 194 189
f 160 191 188
f 161 195 192
f 162 166 196
f 162 196 163
f 163 196 164
f 164 196 166
f 166 187 197
f 166 197 167
f 167 197 168
f 168 197 198
f 168 198 169
f 169 198 199
f 169 199 200
f 169 200 201
f 169 201 202
f 169 202 171
f 169 171 170
f 171 202 203
f 171 203 173
f 172 173 204
f 172 204 205
f 173 206 207
f 173 207 208
f 173 208 209
f 173 209 210
f 173 210 205
f 173 205 204
f 173 203 206
f 174 210 211
f 174 211 175
f 175 211 212
f 175 212 176
f 176 212 213
f 176 213 179
f 176 179 178
f 177 178 179
f 179 213 214
f 179 214 215
f 179 215 180
f 180 215 216
f 180 216 181
f 181 216 183
f 181 183 182
f 183 216 217
f 183 217 184
f 184 217 218
f 184 218 185
f 185 218 186
f 186 218 219
f 186 219 195
f 187 189 220
f 187 220 221
f 187 221 199
f 187 199 197
f 188 190 189
f 189 194 222
f 189 222 221
f 189 221 220
f 192 195 193
f 193 195 223
f 193 223 224
f 193 224 194
f 194 224 222
f 195 225 226
f 195 226 223
f 195 219 227
f 195 227 225
f 197 199 198
f 199 221 228
f 199 228 229
f 199 229 200
f 200 229 201
f 201 229 202
f 202 229 206
f 202 206 203
f 206 229 228
f 206 228 230
f 206 230 231
f 206 231 207
f 207 231 232
f 207 232 233
f 207 233 208
f 208 233 209
f 209 233 211
f 209 211 210
f 211 233 212
f 212 234 214
f 212 214 213
f 212 233 235
f 212 235 234
f 214 234 236
f 214 236 237
f 214 237 238
f 214 238 215
f 215 238 216
f 216 238 239
f 216 239 240
f 216 240 241
f 216 241 217
f 217 241 218
f 218 241 242
f 218 242 219
f 219 242 227
f 221 222 224
f 221 224 240
f 221 240 228
f 223 226 224
f 224 226 242
f 224 242 241
f 224 241 240
f 225 227 226
f 226 227 242
f 228 240 237
f 228 237 230
f 230 237 231
f 231 237 232
f 232 235 233
f 232 237 236
f 232 236 234
f 232 234 235
f 237 240 238
f 238 240 239
