v -0.486799 -8.99622e-05 0.201718
v -0.517056 -0.000135665 -0.0273114
v -0.560706 -0.00127808 0.0741868
v -0.558827 -0.00159795 0.094382
v -0.53524 -0.00390563 0.19956
v -0.533961 -0.0303411 0.2014
v -0.524283 -0.105603 0.201582
v -0.481028 -0.233508 0.20165
v -0.427634 -0.233371 0.201696
v -0.565551 -0.00310594 -0.0303555
v -0.461048 -0.233508 -0.0303555
v -0.566681 -0.00310594 -0.0182702
v -0.566681 -0.00310594 -0.00607131
v -0.564843 -0.00609907 0.0183037
v -0.560583 -0.0106002 0.0724831
v -0.558868 -0.0183001 0.0914061
v -0.55748 -0.00310594 0.103582
v -0.554731 -0.00310594 0.115781
v -0.546278 -0.00609907 0.152332
v -0.535267 -0.018163 0.197902
v -0.535907 -0.0304782 0.193472
v -0.533089 -0.0426792 0.2014
v -0.527727 -0.103616 0.188906
v -0.53641 -0.110356 0.146858
v -0.523439 -0.112778 0.198833
v -0.519193 -0.127972 0.2014
v -0.516103 -0.14015 0.2014
v -0.504806 -0.176524 0.2014
v -0.531878 -0.0548573 0.2014
v -0.530558 -0.0670583 0.2014
v -0.528857 -0.0792365 0.2014
v -0.526869 -0.0914146 0.2014
v -0.490066 -0.21411 0.201514
v -0.486554 -0.22245 0.200537
v -0.485466 -0.23136 0.188906
v -0.487643 -0.232914 0.177661
v -0.502642 -0.233508 0.117598
v -0.565374 -0.0183001 -0.0303555
v -0.515355 -0.233508 -0.0288107
v -0.518907 -0.225397 -0.0303555
v -0.566272 -0.0183001 -0.0182702
v -0.566272 -0.0183001 -0.00607131
v -0.564449 -0.0183001 0.0183037
v -0.559821 -0.0183001 0.0792299
v -0.557085 -0.0183001 0.103582
v -0.558473 -0.0304782 0.0914061
v -0.554336 -0.0183001 0.115781
v -0.551913 -0.00609907 0.127935
v -0.543053 -0.0183001 0.164531
v -0.553927 -0.0304782 0.115781
v -0.548116 -0.0417881 0.137657
v -0.536193 -0.0426792 0.188588
v -0.535893 -0.100348 0.156853
v -0.529905 -0.0914146 0.188906
v -0.525277 -0.115497 0.188588
v -0.544985 -0.103616 0.115781
v -0.542508 -0.115817 0.115781
v -0.539677 -0.127949 0.115781
v -0.535471 -0.130714 0.130774
v -0.52348 -0.131536 0.180365
v -0.523426 -0.125573 0.186453
v -0.519207 -0.14015 0.188906
v -0.515695 -0.152328 0.188906
v -0.511408 -0.157446 0.199924
v -0.511394 -0.16903 0.18568
v -0.507923 -0.176707 0.188906
v -0.502697 -0.190096 0.190065
v -0.499675 -0.19494 0.194903
v -0.499961 -0.189662 0.2014
v -0.535036 -0.0550173 0.18827
v -0.53362 -0.0670355 0.188906
v -0.531905 -0.0792365 0.188906
v -0.493714 -0.213287 0.188906
v -0.495565 -0.201109 0.2014
v -0.499131 -0.205725 0.180569
v -0.490651 -0.226448 0.177502
v -0.506086 -0.233508 0.103741
v -0.506753 -0.225443 0.115781
v -0.564979 -0.0304782 -0.0303555
v -0.516267 -0.233508 -0.0178158
v -0.524542 -0.214498 -0.0182702
v -0.524066 -0.213219 -0.0303555
v -0.51986 -0.225443 -0.0182702
v -0.565878 -0.0304782 -0.0182702
v -0.565878 -0.0304782 -0.00607131
v -0.564966 -0.0304782 0.00610485
v -0.560624 -0.0362817 0.0608521
v -0.556677 -0.0304782 0.103582
v -0.55767 -0.0426792 0.0914061
v -0.553124 -0.0426792 0.115781
v -0.540589 -0.0548573 0.164531
v -0.536084 -0.0591757 0.182046
v -0.541338 -0.0914146 0.140156
v -0.536574 -0.0750552 0.171982
v -0.547952 -0.0894725 0.113305
v -0.548932 -0.0935166 0.106104
v -0.548293 -0.102725 0.102037
v -0.545325 -0.115817 0.103582
v -0.542481 -0.127949 0.103582
v -0.539582 -0.14015 0.103582
v -0.537145 -0.139373 0.114918
v -0.536438 -0.134804 0.122619
v -0.524447 -0.135489 0.172232
v -0.536792 -0.14801 0.106944
v -0.523371 -0.143623 0.167689
v -0.524338 -0.147164 0.159602
v -0.529687 -0.164506 0.115781
v -0.512864 -0.161673 0.188906
v -0.523848 -0.169876 0.133159
v -0.524828 -0.172937 0.125027
v -0.524651 -0.178969 0.11753
v -0.524474 -0.183927 0.111351
v -0.511326 -0.1813 0.168416
v -0.512347 -0.184019 0.160306
v -0.506453 -0.188908 0.176707
v -0.511285 -0.205633 0.131683
v -0.498396 -0.201429 0.190065
v -0.54851 -0.0735472 0.122142
v -0.500152 -0.208215 0.172437
v -0.512306 -0.208192 0.12355
v -0.5081 -0.233508 0.0914061
v -0.512837 -0.218657 0.103401
v -0.513191 -0.222267 0.0914061
v -0.564204 -0.0425649 -0.0303555
v -0.565102 -0.0426792 -0.0182702
v -0.516267 -0.233508 -0.00652564
v -0.524542 -0.214498 -0.00607131
v -0.536519 -0.183516 -0.0121594
v -0.5297 -0.201086 -0.0182702
v -0.52872 -0.201086 -0.0303555
v -0.51986 -0.225443 -0.00607131
v -0.565102 -0.0426792 -0.00607131
v -0.56419 -0.0426792 0.00610485
v -0.560937 -0.0396632 0.0526968
v -0.55861 -0.0426792 0.0792299
v -0.55586 -0.0426792 0.103582
v -0.556486 -0.0548573 0.0914061
v -0.554676 -0.0548573 0.103582
v -0.551913 -0.0548573 0.115781
v -0.550688 -0.0670355 0.115781
v -0.547435 -0.0670355 0.129752
v -0.5493 -0.078254 0.11544
v -0.551831 -0.0792365 0.103582
v -0.553669 -0.0792365 0.0914061
v -0.551654 -0.0914146 0.0914061
v -0.548429 -0.10983 0.0919513
v -0.544332 -0.127949 0.0914061
v -0.541446 -0.14015 0.0914061
v -0.536969 -0.155595 0.0935187
v -0.532559 -0.164506 0.103582
v -0.52872 -0.176707 0.103582
v -0.524256 -0.189411 0.103582
v -0.51986 -0.201086 0.103582
v -0.516934 -0.201086 0.115781
v -0.553465 -0.0670355 0.103582
v -0.513259 -0.2105 0.115781
v -0.509625 -0.233508 0.0732782
v -0.517002 -0.213287 0.0914061
v -0.519016 -0.213287 0.0670538
v -0.518866 -0.225443 0.00610485
v -0.563006 -0.0548573 -0.0303555
v -0.563918 -0.0548573 -0.0182702
v -0.51496 -0.233508 0.00919432
v -0.524746 -0.208946 0.0183037
v -0.5297 -0.201086 -0.00607131
v -0.53607 -0.182168 0.00272006
v -0.53803 -0.177827 -0.00527622
v -0.542154 -0.164506 -0.00607131
v -0.545829 -0.152328 -0.00607131
v -0.545829 -0.152328 -0.0182702
v -0.542154 -0.164506 -0.0182702
v -0.537118 -0.180203 -0.0213824
v -0.533321 -0.188885 -0.0303555
v -0.563918 -0.0548573 -0.00607131
v -0.560542 -0.0477744 0.0475174
v -0.560991 -0.0665785 0.0173496
v -0.558351 -0.0548573 0.0670538
v -0.5562 -0.0670355 0.0792299
v -0.555261 -0.0670355 0.0914061
v -0.560665 -0.0733416 0.0126473
v -0.56042 -0.077957 0.00610485
v -0.558228 -0.0914146 0.00610485
v -0.553546 -0.0914146 0.0670538
v -0.553397 -0.103616 0.0426787
v -0.548987 -0.112092 0.0792299
v -0.546251 -0.127949 0.0670538
v -0.540058 -0.152328 0.0670538
v -0.539078 -0.152328 0.0792299
v -0.543366 -0.14015 0.0670538
v -0.548769 -0.141544 -0.00607131
v -0.543924 -0.152328 0.0183037
v -0.537241 -0.161673 0.0670538
v -0.5349 -0.166174 0.0792299
v -0.534682 -0.163638 0.0914742
v -0.530626 -0.176707 0.0914061
v -0.52495 -0.192198 0.0934733
v -0.522146 -0.20015 0.0914288
v -0.561808 -0.0670355 -0.0303555
v -0.562706 -0.0670355 -0.0182702
v -0.525127 -0.204651 0.0337511
v -0.527727 -0.201086 0.0183037
v -0.533307 -0.188908 0.00610485
v -0.53034 -0.188908 0.0426787
v -0.528353 -0.188908 0.0670538
v -0.527359 -0.188908 0.0792299
v -0.536846 -0.172526 0.0304799
v -0.537322 -0.174103 0.0183037
v -0.541201 -0.164506 0.00610485
v -0.548769 -0.141544 -0.0182702
v -0.54489 -0.152328 -0.0303555
v -0.541215 -0.164506 -0.0303555
v -0.536846 -0.178786 -0.0303555
v -0.562706 -0.0670355 -0.00607131
v -0.561794 -0.0670355 0.00610485
v -0.560883 -0.0808358 -0.00607131
v -0.559154 -0.0914146 -0.00607131
v -0.55714 -0.103616 -0.00607131
v -0.554744 -0.115817 -0.00607131
v -0.550974 -0.115817 0.0426787
v -0.551001 -0.127949 0.00610485
v -0.547313 -0.139487 0.0187581
v -0.55194 -0.127949 -0.00607131
v -0.539282 -0.164506 0.0304799
v -0.560433 -0.0779798 -0.0303555
v -0.560883 -0.0808358 -0.0182702
v -0.55194 -0.127949 -0.0182702
v -0.548306 -0.139533 -0.0303555
v -0.559154 -0.0914146 -0.0182702
v -0.55714 -0.103616 -0.0182702
v -0.554744 -0.115817 -0.0182702
v -0.558242 -0.0914146 -0.0303555
v -0.553846 -0.115702 -0.0303555
v -0.551028 -0.127835 -0.0303555
v -0.556214 -0.103616 -0.0303555
f 1 2 3
f 1 3 4
f 1 4 5
f 1 5 6
f 1 6 7
f 1 7 8
f 1 8 9
f 1 9 2
f 2 10 3
f 2 9 11
f 2 11 10
f 3 10 12
f 3 12 13
f 3 13 14
f 3 14 15
f 3 15 16
f 3 16 4
f 4 17 18
f 4 18 5
f 4 16 17
f 5 19 20
f 5 20 6
f 5 18 19
f 6 20 21
f 6 21 22
f 6 22 7
f 7 23 24
f 7 24 25
f 7 25 26
f 7 26 27
f 7 27 28
f 7 28 8
f 7 22 29
f 7 29 30
f 7 30 31
f 7 31 32
f 7 32 23
f 8 28 33
f 8 33 34
f 8 34 35
f 8 35 36
f 8 36 37
f 8 37 77
f 8 77 121
f 8 121 157
f 8 157 163
f 8 163 126
f 8 126 80
f 8 80 39
f 8 39 11
f 8 11 9
f 10 38 12
f 10 11 40
f 10 40 82
f 10 82 130
f 10 130 173
f 10 173 212
f 10 212 211
f 10 211 210
f 10 210 227
f 10 227 233
f 10 233 232
f 10 232 234
f 10 234 231
f 10 231 224
f 10 224 198
f 10 198 161
f 10 161 124
f 10 124 79
f 10 79 38
f 11 39 40
f 12 38 41
f 12 41 42
f 12 42 13
f 13 42 14
f 14 42 43
f 14 43 15
f 15 43 44
f 15 44 16
f 16 45 17
f 16 44 46
f 16 46 45
f 17 45 47
f 17 47 18
f 18 47 48
f 18 48 19
f 19 48 47
f 19 47 49
f 19 49 20
f 20 49 21
f 21 49 50
f 21 50 51
f 21 51 52
f 21 52 22
f 22 52 29
f 23 53 24
f 23 32 54
f 23 54 53
f 24 55 25
f 24 53 56
f 24 56 57
f 24 57 58
f 24 58 59
f 24 59 60
f 24 60 55
f 25 55 61
f 25 61 26
f 26 60 62
f 26 62 27
f 26 61 60
f 27 62 63
f 27 63 64
f 27 64 28
f 28 64 65
f 28 65 66
f 28 66 67
f 28 67 68
f 28 68 69
f 28 69 33
f 29 52 70
f 29 70 71
f 29 71 30
f 30 71 31
f 31 72 32
f 31 71 72
f 32 72 54
f 33 73 34
f 33 69 74
f 33 74 75
f 33 75 73
f 34 73 76
f 34 76 35
f 35 76 36
f 36 76 37
f 37 76 78
f 37 78 77
f 38 79 84
f 38 84 41
f 39 80 40
f 40 81 82
f 40 80 83
f 40 83 81
f 41 84 85
f 41 85 42
f 42 85 43
f 43 85 86
f 43 86 87
f 43 87 44
f 44 87 46
f 45 46 88
f 45 88 50
f 45 50 47
f 46 87 89
f 46 89 88
f 47 50 49
f 50 88 90
f 50 90 51
f 51 90 52
f 52 90 91
f 52 91 92
f 52 92 70
f 53 54 56
f 54 93 56
f 54 72 94
f 54 94 93
f 55 60 61
f 56 93 95
f 56 95 96
f 56 96 97
f 56 97 98
f 56 98 57
f 57 98 58
f 58 99 100
f 58 100 101
f 58 101 102
f 58 102 59
f 58 98 99
f 59 102 60
f 60 102 103
f 60 103 62
f 62 104 105
f 62 105 106
f 62 106 63
f 62 103 104
f 63 106 107
f 63 107 108
f 63 108 64
f 64 108 65
f 65 109 110
f 65 110 111
f 65 111 112
f 65 112 66
f 65 108 109
f 66 112 113
f 66 113 114
f 66 114 67
f 67 114 115
f 67 115 68
f 68 115 116
f 68 116 75
f 68 75 117
f 68 117 74
f 68 74 69
f 70 92 71
f 71 92 118
f 71 118 94
f 71 94 72
f 73 78 76
f 73 75 119
f 73 119 78
f 74 117 75
f 75 120 119
f 75 116 120
f 77 78 122
f 77 122 123
f 77 123 121
f 78 119 122
f 79 124 125
f 79 125 84
f 80 126 131
f 80 131 83
f 81 127 128
f 81 128 129
f 81 129 82
f 81 83 131
f 81 131 127
f 82 129 130
f 84 125 132
f 84 132 85
f 85 87 86
f 85 132 87
f 87 132 133
f 87 133 134
f 87 134 135
f 87 135 89
f 88 89 136
f 88 136 90
f 89 135 137
f 89 137 138
f 89 138 136
f 90 136 138
f 90 138 155
f 90 155 139
f 90 139 91
f 91 139 140
f 91 140 92
f 92 140 141
f 92 141 118
f 93 94 118
f 93 118 95
f 95 118 142
f 95 142 96
f 96 142 143
f 96 143 97
f 97 143 144
f 97 144 145
f 97 145 146
f 97 146 98
f 98 146 147
f 98 147 99
f 99 147 148
f 99 148 100
f 100 148 149
f 100 149 104
f 100 104 101
f 101 103 102
f 101 104 103
f 104 106 105
f 104 149 150
f 104 150 107
f 104 107 106
f 107 150 151
f 107 151 110
f 107 110 109
f 107 109 108
f 110 151 111
f 111 151 112
f 112 152 153
f 112 153 154
f 112 154 114
f 112 114 113
f 112 151 152
f 114 154 115
f 115 154 116
f 116 154 120
f 118 141 140
f 118 140 155
f 118 155 143
f 118 143 142
f 119 120 156
f 119 156 122
f 120 154 153
f 120 153 156
f 121 123 157
f 122 156 153
f 122 153 158
f 122 158 123
f 123 158 159
f 123 159 127
f 123 127 160
f 123 160 157
f 124 161 162
f 124 162 125
f 125 162 174
f 125 174 132
f 126 163 160
f 126 160 131
f 127 131 160
f 127 159 164
f 127 164 165
f 127 165 128
f 128 165 166
f 128 166 167
f 128 167 168
f 128 168 169
f 128 169 170
f 128 170 171
f 128 171 172
f 128 172 129
f 129 172 173
f 129 173 130
f 132 174 133
f 133 175 134
f 133 174 176
f 133 176 175
f 134 175 135
f 135 175 137
f 137 175 177
f 137 177 176
f 137 176 178
f 137 178 179
f 137 179 155
f 137 155 138
f 139 155 140
f 143 155 144
f 144 155 179
f 144 179 180
f 144 180 181
f 144 181 182
f 144 182 183
f 144 183 145
f 145 183 184
f 145 184 146
f 146 184 185
f 146 185 147
f 147 186 189
f 147 189 148
f 147 185 186
f 148 187 188
f 148 188 149
f 148 189 190
f 148 190 191
f 148 191 187
f 149 192 193
f 149 193 194
f 149 194 195
f 149 195 151
f 149 151 150
f 149 188 187
f 149 187 192
f 151 195 196
f 151 196 152
f 152 196 153
f 153 196 158
f 157 160 163
f 158 196 197
f 158 197 159
f 159 197 164
f 161 198 162
f 162 198 199
f 162 199 213
f 162 213 174
f 164 197 200
f 164 200 165
f 165 200 201
f 165 201 202
f 165 202 166
f 166 202 203
f 166 203 204
f 166 204 205
f 166 205 195
f 166 195 206
f 166 206 207
f 166 207 167
f 167 207 168
f 168 207 208
f 168 208 191
f 168 191 169
f 169 191 190
f 169 190 209
f 169 209 170
f 170 209 210
f 170 210 211
f 170 211 171
f 171 211 172
f 172 211 212
f 172 212 173
f 174 213 214
f 174 214 176
f 175 176 177
f 176 214 180
f 176 180 178
f 178 180 179
f 180 214 213
f 180 213 215
f 180 215 181
f 181 215 182
f 182 215 216
f 182 216 217
f 182 217 184
f 182 184 183
f 184 217 185
f 185 217 218
f 185 218 219
f 185 219 186
f 186 220 190
f 186 190 221
f 186 221 189
f 186 219 220
f 187 191 192
f 189 221 190
f 190 220 222
f 190 222 226
f 190 226 209
f 191 208 223
f 191 223 192
f 192 223 206
f 192 206 193
f 193 206 195
f 193 195 194
f 195 205 196
f 196 205 197
f 197 205 204
f 197 204 203
f 197 203 201
f 197 201 200
f 198 224 199
f 199 224 225
f 199 225 215
f 199 215 213
f 201 203 202
f 206 223 208
f 206 208 207
f 209 226 227
f 209 227 210
f 215 225 228
f 215 228 216
f 216 228 229
f 216 229 217
f 217 229 230
f 217 230 218
f 218 230 226
f 218 226 222
f 218 222 220
f 218 220 219
f 224 231 225
f 225 231 228
f 226 230 232
f 226 232 233
f 226 233 227
f 228 231 229
f 229 234 232
f 229 232 230
f 229 231 234
