v 0.323376 0.188305 0.421545
v 0.323376 0.188305 0.481876
v 0.323376 -8.99713e-05 0.481381
v 0.130473 0.188305 0.567307
v 0.268677 0.0989944 0.610174
v 0.323376 0.176724 0.488522
v 0.2126 0.188305 0.611755
v 0.219959 0.183492 0.61006
v 0.234106 0.162063 0.611565
v 0.24477 0.147919 0.610612
v 0.257186 0.124425 0.610879
v 0.323376 -8.99713e-05 0.530457
v 0.233417 -8.99713e-05 0.562241
v 0.129745 0.188305 0.567859
v 0.269995 0.0914151 0.611507
v 0.280325 0.0610056 0.609413
v 0.323376 0.165235 0.494045
v 0.259055 0.115776 0.612174
v 0.209786 0.188305 0.612669
v 0.212718 0.188084 0.611793
v 0.222556 0.176724 0.611565
v 0.226432 0.165493 0.613374
v 0.237963 0.152123 0.612764
v 0.246856 0.140155 0.611983
v 0.283571 -8.99713e-05 0.612688
v 0.323376 0.00662262 0.530457
v 0.2308 -8.99713e-05 0.56525
v 0.228144 -8.99713e-05 0.568335
v 0.123566 0.188305 0.575933
v 0.271727 0.0792255 0.612574
v 0.280915 0.0548463 0.610231
v 0.262026 0.0914151 0.614859
v 0.323376 0.115776 0.512289
v 0.323376 0.129054 0.508023
v 0.323376 0.129773 0.507775
v 0.323376 0.139805 0.50429
v 0.323376 0.152345 0.499567
v 0.250496 0.128279 0.612955
v 0.249847 0.115776 0.615526
v 0.213289 0.176724 0.614916
v 0.201109 0.188305 0.615278
v 0.237648 0.140155 0.615335
v 0.283571 0.00610626 0.612688
v 0.274225 -8.99713e-05 0.61604
v 0.323376 0.0182959 0.530019
v 0.226452 -8.99713e-05 0.573553
v 0.122405 0.188305 0.578923
v 0.274225 0.0426751 0.614878
v 0.281997 0.0426751 0.611526
v 0.262026 0.0792255 0.615926
v 0.323376 0.102867 0.516021
v 0.249847 0.103586 0.616097
v 0.225468 0.152345 0.61604
v 0.237648 0.127965 0.616097
v 0.201109 0.176724 0.616097
v 0.213289 0.164534 0.616097
v 0.18893 0.188305 0.616097
v 0.283276 0.0182959 0.612536
v 0.274225 0.0182959 0.615887
v 0.274225 0.00610626 0.61604
v 0.262026 -8.99713e-05 0.616097
v 0.323376 0.0304486 0.5292
v 0.224721 -8.99713e-05 0.578923
v 0.122366 0.188305 0.591111
v 0.224701 -8.99713e-05 0.584922
v 0.274225 0.0304855 0.615564
v 0.282784 0.0304855 0.612212
v 0.323376 0.0670359 0.524248
v 0.323376 0.07515 0.522649
v 0.323376 0.0792255 0.52183
v 0.323376 0.0929088 0.518649
v 0.262026 0.0670359 0.616097
v 0.164551 0.188305 0.616097
v 0.323376 0.0426751 0.527924
v 0.249847 -8.99713e-05 0.616097
v 0.122386 0.188305 0.59831
v 0.224681 -8.99713e-05 0.591111
v 0.323376 0.0548463 0.526305
v 0.323376 0.0597701 0.525486
v 0.152313 0.188305 0.615964
v 0.164551 0.176724 0.616097
v 0.237648 0.0182959 0.616097
v 0.237648 -8.99713e-05 0.616078
v 0.122405 0.188305 0.603299
v 0.224721 -8.99713e-05 0.603299
v 0.140173 0.188305 0.614916
v 0.232827 -8.99713e-05 0.614383
v 0.128898 0.188305 0.612288
v 0.228144 -8.99713e-05 0.612726
f 1 2 6
f 1 6 17
f 1 17 37
f 1 37 36
f 1 36 35
f 1 35 34
f 1 34 33
f 1 33 51
f 1 51 71
f 1 71 70
f 1 70 69
f 1 69 68
f 1 68 79
f 1 79 78
f 1 78 74
f 1 74 62
f 1 62 45
f 1 45 26
f 1 26 12
f 1 12 3
f 1 3 4
f 1 4 14
f 1 14 29
f 1 29 47
f 1 47 64
f 1 64 76
f 1 76 84
f 1 84 88
f 1 88 86
f 1 86 80
f 1 80 73
f 1 73 57
f 1 57 41
f 1 41 19
f 1 19 7
f 1 7 2
f 2 5 6
f 2 7 8
f 2 8 9
f 2 9 10
f 2 10 11
f 2 11 5
f 3 12 25
f 3 25 44
f 3 44 61
f 3 61 75
f 3 75 83
f 3 83 87
f 3 87 89
f 3 89 85
f 3 85 77
f 3 77 65
f 3 65 63
f 3 63 46
f 3 46 28
f 3 28 27
f 3 27 13
f 3 13 14
f 3 14 4
f 5 15 16
f 5 16 17
f 5 17 6
f 5 11 18
f 5 18 15
f 7 19 20
f 7 20 8
f 8 20 21
f 8 21 9
f 9 22 23
f 9 23 10
f 9 21 22
f 10 23 24
f 10 24 11
f 11 24 18
f 12 26 43
f 12 43 25
f 13 27 14
f 14 27 28
f 14 28 29
f 15 30 31
f 15 31 16
f 15 18 32
f 15 32 30
f 16 31 33
f 16 33 34
f 16 34 35
f 16 35 36
f 16 36 37
f 16 37 17
f 18 24 38
f 18 38 39
f 18 39 32
f 19 40 20
f 19 41 40
f 20 40 21
f 21 40 22
f 22 40 23
f 23 42 24
f 23 40 42
f 24 42 38
f 25 43 60
f 25 60 44
f 26 45 43
f 28 46 47
f 28 47 29
f 30 48 49
f 30 49 31
f 30 32 50
f 30 50 48
f 31 49 51
f 31 51 33
f 32 39 50
f 38 42 39
f 39 52 50
f 39 42 53
f 39 53 54
f 39 54 52
f 40 41 53
f 40 53 42
f 41 55 56
f 41 56 53
f 41 57 55
f 43 58 59
f 43 59 60
f 43 45 58
f 44 60 72
f 44 72 61
f 45 62 58
f 46 63 47
f 47 63 65
f 47 65 64
f 48 50 66
f 48 66 67
f 48 67 49
f 49 67 68
f 49 68 69
f 49 69 70
f 49 70 71
f 49 71 51
f 50 52 72
f 50 72 59
f 50 59 66
f 52 54 56
f 52 56 55
f 52 55 57
f 52 57 73
f 52 73 81
f 52 81 82
f 52 82 75
f 52 75 61
f 52 61 72
f 53 56 54
f 58 67 66
f 58 66 59
f 58 62 74
f 58 74 67
f 59 72 60
f 64 65 77
f 64 77 76
f 67 74 78
f 67 78 79
f 67 79 68
f 73 80 81
f 75 82 83
f 76 77 85
f 76 85 84
f 80 86 83
f 80 83 81
f 81 83 82
f 83 86 88
f 83 88 87
f 84 85 89
f 84 89 88
f 87 88 89
