v 0.323362 0.18832 0.421565
v 0.323362 0.342176 0.244979
v 0.323362 0.18832 0.481868
v 0.182981 0.18832 0.537231
v 0.182981 0.342176 0.403256
v 0.323362 0.342176 0.346768
v 0.182981 0.188395 0.537158
v 0.323362 0.188501 0.481759
v 0.21261 0.18832 0.611738
v 0.182981 0.18832 0.616097
v 0.182981 0.342176 0.464867
v 0.322854 0.342176 0.347385
v 0.323362 0.33341 0.357666
v 0.323362 0.189088 0.481396
v 0.208267 0.196152 0.610503
v 0.200572 0.20058 0.612065
v 0.209793 0.18832 0.612646
v 0.323362 0.190293 0.480633
v 0.323362 0.201107 0.473731
v 0.323362 0.207509 0.469517
v 0.323362 0.211726 0.46672
v 0.323362 0.212916 0.465921
v 0.323362 0.225688 0.45713
v 0.323362 0.225944 0.456948
v 0.323362 0.227978 0.455495
v 0.323362 0.238717 0.447793
v 0.323362 0.23956 0.447176
v 0.323362 0.249862 0.439511
v 0.323362 0.262198 0.430102
v 0.188918 0.18832 0.616097
v 0.182981 0.188922 0.616097
v 0.182981 0.220145 0.610176
v 0.184493 0.342176 0.463995
v 0.318305 0.330397 0.367329
v 0.305909 0.342176 0.367075
v 0.29956 0.323876 0.397262
v 0.315666 0.315667 0.388617
v 0.319006 0.319011 0.380479
v 0.323362 0.323364 0.369835
v 0.19616 0.208277 0.610503
v 0.323362 0.274458 0.420475
v 0.323362 0.274639 0.42033
v 0.323362 0.278118 0.41746
v 0.323362 0.286929 0.410159
v 0.323362 0.288571 0.408742
v 0.320078 0.295921 0.4054
v 0.308149 0.308151 0.405618
v 0.182981 0.212976 0.613191
v 0.188918 0.201107 0.615225
v 0.201108 0.188922 0.615225
v 0.188107 0.21272 0.611774
v 0.201108 0.18832 0.615261
v 0.188918 0.188922 0.616097
v 0.182981 0.201107 0.615661
v 0.208597 0.342176 0.449247
v 0.204351 0.342176 0.451935
v 0.198565 0.342176 0.455567
v 0.191185 0.342176 0.460072
v 0.183503 0.21995 0.61003
v 0.243091 0.342176 0.425888
v 0.236509 0.342176 0.430538
v 0.232853 0.342176 0.433117
v 0.22851 0.342176 0.436096
v 0.220801 0.342176 0.441255
v 0.213462 0.342176 0.446086
v 0.30404 0.31627 0.401476
v 0.305689 0.342176 0.367329
v 0.291534 0.328198 0.401149
v 0.323335 0.311179 0.384403
v 0.311901 0.311902 0.397408
v 0.316271 0.304039 0.401476
v 0.323362 0.311209 0.38433
v 0.295918 0.32008 0.4054
v 0.283412 0.331678 0.405
v 0.323362 0.299069 0.398316
v 0.323362 0.299852 0.397517
v 0.27092 0.342176 0.404782
v 0.269244 0.342176 0.406163
v 0.263802 0.342176 0.410558
v 0.257425 0.342176 0.415535
v 0.25704 0.342176 0.415826
v 0.249853 0.342176 0.42102
v 0.245263 0.342176 0.424326
v 0.293582 0.342176 0.380879
v 0.286917 0.335594 0.396681
v 0.278547 0.339796 0.400314
v 0.323362 0.300485 0.39679
v 0.277008 0.342176 0.398788
v 0.288731 0.342176 0.386146
v 0.290421 0.33951 0.387781
v 0.281433 0.342176 0.394066
f 1 2 6
f 1 6 13
f 1 13 39
f 1 39 72
f 1 72 87
f 1 87 76
f 1 76 75
f 1 75 45
f 1 45 44
f 1 44 43
f 1 43 42
f 1 42 41
f 1 41 29
f 1 29 28
f 1 28 27
f 1 27 26
f 1 26 25
f 1 25 24
f 1 24 23
f 1 23 22
f 1 22 21
f 1 21 20
f 1 20 19
f 1 19 18
f 1 18 14
f 1 14 8
f 1 8 3
f 1 3 9
f 1 9 17
f 1 17 52
f 1 52 30
f 1 30 10
f 1 10 4
f 1 4 2
f 2 5 11
f 2 11 33
f 2 33 58
f 2 58 57
f 2 57 56
f 2 56 55
f 2 55 65
f 2 65 64
f 2 64 63
f 2 63 62
f 2 62 61
f 2 61 60
f 2 60 83
f 2 83 82
f 2 82 81
f 2 81 80
f 2 80 79
f 2 79 78
f 2 78 77
f 2 77 88
f 2 88 91
f 2 91 89
f 2 89 84
f 2 84 67
f 2 67 35
f 2 35 12
f 2 12 6
f 2 4 7
f 2 7 5
f 3 8 9
f 4 10 31
f 4 31 54
f 4 54 48
f 4 48 32
f 4 32 11
f 4 11 5
f 4 5 7
f 6 12 13
f 8 14 9
f 9 15 16
f 9 16 17
f 9 14 18
f 9 18 19
f 9 19 20
f 9 20 21
f 9 21 22
f 9 22 23
f 9 23 24
f 9 24 25
f 9 25 26
f 9 26 27
f 9 27 28
f 9 28 29
f 9 29 15
f 10 30 53
f 10 53 31
f 11 32 33
f 12 34 13
f 12 35 36
f 12 36 34
f 13 34 37
f 13 37 38
f 13 38 39
f 15 40 16
f 15 29 41
f 15 41 42
f 15 42 43
f 15 43 44
f 15 44 45
f 15 45 46
f 15 46 47
f 15 47 40
f 16 48 49
f 16 49 50
f 16 50 17
f 16 40 51
f 16 51 48
f 17 50 52
f 30 52 53
f 31 53 54
f 32 55 56
f 32 56 57
f 32 57 58
f 32 58 33
f 32 48 51
f 32 51 40
f 32 40 59
f 32 59 60
f 32 60 61
f 32 61 62
f 32 62 63
f 32 63 64
f 32 64 65
f 32 65 55
f 34 36 66
f 34 66 37
f 35 67 68
f 35 68 36
f 36 68 66
f 37 69 38
f 37 66 70
f 37 70 71
f 37 71 69
f 38 69 39
f 39 69 72
f 40 47 73
f 40 73 68
f 40 68 74
f 40 74 59
f 45 75 46
f 46 75 76
f 46 76 71
f 46 71 47
f 47 71 66
f 47 66 73
f 48 54 49
f 49 54 50
f 50 54 53
f 50 53 52
f 59 74 77
f 59 77 78
f 59 78 79
f 59 79 80
f 59 80 81
f 59 81 82
f 59 82 83
f 59 83 60
f 66 68 73
f 66 71 70
f 67 84 68
f 68 85 86
f 68 86 74
f 68 84 85
f 69 71 87
f 69 87 72
f 71 76 87
f 74 86 77
f 77 86 88
f 84 89 86
f 84 86 90
f 84 90 85
f 85 90 86
f 86 89 91
f 86 91 88
