v -9.08067e-05 0.565787 -0.0303745
v -0.0060966 0.565787 -0.0303745
v -9.08067e-05 0.516825 -0.0303745
v -9.08067e-05 0.56072 -0.0985694
v -0.0304772 0.564988 -0.0303745
v -0.0024681 0.56072 -0.0985694
v -0.176153 0.485827 -0.0303745
v -0.182695 0.483363 -0.0304317
v -0.182695 0.447622 -0.225122
v -9.08067e-05 0.483502 -0.225122
v -9.08067e-05 0.559286 -0.115785
v -0.0426676 0.564202 -0.0303745
v -0.0304772 0.562201 -0.0670362
v -0.0362864 0.560628 -0.085205
v -0.0060966 0.559286 -0.115785
v -0.0182869 0.559818 -0.103603
v -0.182695 0.497058 -0.0303745
v -0.182695 0.50276 -0.225122
v -9.08067e-05 0.534938 -0.225122
v -9.08067e-05 0.557482 -0.127967
v -0.0426676 0.56234 -0.0548538
v -0.0548579 0.563011 -0.0303745
v -0.0396468 0.56094 -0.0770834
v -0.0304772 0.559413 -0.103603
v -0.0304772 0.558476 -0.115785
v -0.0426676 0.557678 -0.115785
v -0.0060966 0.557482 -0.127967
v -0.0182869 0.557088 -0.127967
v -0.182695 0.535598 -0.0303745
v -0.176707 0.504969 -0.225122
v -0.182695 0.503917 -0.220546
v -9.08067e-05 0.535123 -0.224531
v -0.00690095 0.534938 -0.225122
v -9.08067e-05 0.55474 -0.14015
v -0.0590584 0.560454 -0.0585142
v -0.0548579 0.562074 -0.0426714
v -0.0426676 0.559552 -0.0914201
v -0.0670482 0.561808 -0.0304699
v -0.0670482 0.561808 -0.0303745
v -0.0304772 0.556672 -0.127967
v -0.0426676 0.555874 -0.127967
v -0.0548579 0.556487 -0.115785
v -0.0060966 0.55474 -0.14015
v -0.0182869 0.554347 -0.14015
v -0.18173 0.535956 -0.0303745
v -0.182695 0.529039 -0.109818
v -0.162587 0.509654 -0.225122
v -0.182695 0.505617 -0.213797
v -0.176707 0.507942 -0.213282
v -0.170344 0.511794 -0.206839
v -0.16777 0.511019 -0.213282
v -0.163641 0.509446 -0.224645
v -0.00693669 0.535123 -0.224531
v -9.08067e-05 0.535968 -0.221366
v -0.0139792 0.534742 -0.225122
v -9.08067e-05 0.536373 -0.219841
v -0.0703371 0.560362 -0.0451498
v -0.0548579 0.559286 -0.0792377
v -0.0548579 0.557424 -0.103603
v -0.07334 0.560674 -0.0370091
v -0.0749308 0.560929 -0.0303745
v -0.0304772 0.553931 -0.14015
v -0.0426676 0.553121 -0.14015
v -0.0548579 0.554683 -0.127967
v -0.0670482 0.555273 -0.115785
v -0.00343331 0.536373 -0.219841
v -0.0060966 0.548066 -0.168976
v -0.0115483 0.536245 -0.219288
v -0.0182869 0.54588 -0.176716
v -0.175689 0.537818 -0.0303745
v -0.174098 0.537333 -0.0426714
v -0.172525 0.536847 -0.0548538
v -0.169361 0.535875 -0.0792377
v -0.166162 0.534915 -0.103603
v -0.176707 0.530636 -0.115785
v -0.182695 0.528531 -0.115804
v -0.156867 0.511412 -0.225122
v -0.158976 0.512048 -0.22005
v -0.182695 0.511851 -0.188689
v -0.181301 0.511343 -0.192807
v -0.182695 0.524054 -0.139254
v -0.181069 0.523487 -0.143867
v -0.176886 0.525835 -0.13994
v -0.172936 0.524841 -0.149415
v -0.169897 0.523858 -0.157537
v -0.167109 0.523013 -0.164534
v -0.164535 0.517901 -0.188899
v -0.152345 0.515703 -0.213282
v -0.0182869 0.534603 -0.225122
v -0.0670482 0.557146 -0.0914201
v -0.0792385 0.553665 -0.115785
v -0.0781303 0.559541 -0.0417181
v -0.081026 0.559945 -0.0303745
v -0.0182869 0.53613 -0.218811
v -0.0304772 0.549073 -0.161121
v -0.04004 0.548795 -0.159901
v -0.0548579 0.55193 -0.14015
v -0.0670482 0.553468 -0.127967
v -0.16466 0.541184 -0.0303745
v -0.164535 0.540247 -0.0426714
v -0.157939 0.536107 -0.119979
v -0.163641 0.534695 -0.115861
v -0.176707 0.528727 -0.127967
v -0.182695 0.52668 -0.127967
v -0.152345 0.512777 -0.225122
v -0.151862 0.513043 -0.224645
v -0.182695 0.524725 -0.136489
v -0.164535 0.529687 -0.14015
v -0.151415 0.533874 -0.139311
v -0.151683 0.521926 -0.188384
v -0.140154 0.519219 -0.213282
v -0.147179 0.524355 -0.18398
v -0.0304772 0.53414 -0.225122
v -0.0304772 0.53591 -0.217839
v -0.0792385 0.551849 -0.127967
v -0.100938 0.549027 -0.124517
v -0.109071 0.548344 -0.120551
v -0.0913931 0.551664 -0.115785
v -0.0913931 0.553549 -0.0914201
v -0.0810975 0.559934 -0.0303745
v -0.0304772 0.547662 -0.167203
v -0.0548579 0.548066 -0.156774
v -0.0426676 0.535482 -0.216028
v -0.0426676 0.536905 -0.209927
v -0.0670482 0.550704 -0.14015
v -0.0735366 0.548518 -0.146537
v -0.152345 0.544897 -0.0303745
v -0.152345 0.543926 -0.0426714
v -0.152345 0.540062 -0.0914201
v -0.153256 0.537842 -0.115861
v -0.140154 0.54145 -0.115785
v -0.149288 0.537182 -0.127967
v -0.164535 0.532556 -0.127967
v -0.151594 0.512997 -0.225122
v -0.140154 0.516293 -0.225122
v -0.146732 0.536407 -0.134678
v -0.135507 0.524459 -0.19662
v -0.131575 0.523487 -0.204741
v -0.127964 0.519404 -0.225122
v -0.030942 0.534117 -0.225122
v -0.0782554 0.549304 -0.139826
v -0.0874429 0.548795 -0.135536
v -0.09554 0.548124 -0.132638
v -0.0914467 0.549755 -0.12833
v -0.104441 0.547581 -0.12833
v -0.103583 0.550576 -0.103603
v -0.104441 0.549454 -0.116204
v -0.115774 0.545337 -0.127967
v -0.127964 0.542503 -0.127967
v -0.140154 0.539588 -0.127967
v -0.127964 0.544342 -0.115785
v -0.115112 0.547315 -0.116204
v -0.11059 0.548656 -0.11243
v -0.115774 0.553827 -0.0303745
v -0.103709 0.556198 -0.0303745
v -0.103583 0.556221 -0.0303745
v -0.103583 0.553399 -0.0670362
v -0.0913931 0.558245 -0.0303745
v -0.0548579 0.546262 -0.164534
v -0.0591835 0.536083 -0.206438
v -0.0426676 0.533284 -0.225122
v -0.0552154 0.532035 -0.225122
v -0.0550188 0.535054 -0.212634
v -0.0550188 0.537564 -0.201863
v -0.0792385 0.543359 -0.164534
v -0.0816695 0.547847 -0.143677
v -0.0670482 0.535656 -0.204589
v -0.0670482 0.53362 -0.213282
v -0.0750559 0.536581 -0.196353
v -0.142603 0.547592 -0.0303745
v -0.152345 0.539091 -0.103603
v -0.140154 0.54241 -0.103603
v -0.139386 0.537148 -0.139311
v -0.13481 0.536442 -0.147013
v -0.127696 0.525327 -0.200833
v -0.127696 0.522435 -0.212977
v -0.130699 0.535482 -0.155135
v -0.127178 0.534268 -0.163733
v -0.115452 0.522342 -0.225122
v -0.119295 0.523476 -0.216848
v -0.11118 0.524424 -0.220813
v -0.0914467 0.54713 -0.139826
v -0.0970593 0.536188 -0.182512
v -0.103583 0.545001 -0.14015
v -0.110322 0.536407 -0.171245
v -0.115774 0.542526 -0.14015
v -0.127964 0.539681 -0.14015
v -0.127964 0.545302 -0.103603
v -0.127303 0.547326 -0.0796762
v -0.122798 0.548668 -0.0759204
v -0.128071 0.550993 -0.0303745
v -0.112074 0.549003 -0.103603
v -0.0670482 0.530763 -0.225122
v -0.0913931 0.541346 -0.164534
v -0.0792385 0.53192 -0.213282
v -0.0831888 0.53591 -0.193493
v -0.0673878 0.530717 -0.225122
v -0.133648 0.548356 -0.0475138
v -0.122584 0.53643 -0.159138
v -0.108624 0.523892 -0.225122
v -0.103583 0.527732 -0.213282
v -0.102815 0.525049 -0.225122
v -0.114934 0.534233 -0.175877
v -0.103583 0.535598 -0.179995
v -0.0913931 0.529907 -0.213282
v -0.0792385 0.529051 -0.225122
v -0.0913931 0.527062 -0.225122
f 1 2 5
f 1 5 12
f 1 12 22
f 1 22 39
f 1 39 61
f 1 61 93
f 1 93 120
f 1 120 158
f 1 158 156
f 1 156 155
f 1 155 154
f 1 154 191
f 1 191 170
f 1 170 127
f 1 127 99
f 1 99 70
f 1 70 45
f 1 45 29
f 1 29 17
f 1 17 7
f 1 7 3
f 1 3 10
f 1 10 19
f 1 19 32
f 1 32 54
f 1 54 56
f 1 56 34
f 1 34 20
f 1 20 11
f 1 11 4
f 1 4 6
f 1 6 2
f 2 6 5
f 3 7 8
f 3 8 9
f 3 9 10
f 4 11 15
f 4 15 6
f 5 6 13
f 5 13 14
f 5 14 12
f 6 15 16
f 6 16 14
f 6 14 13
f 7 17 8
f 8 17 29
f 8 29 46
f 8 46 76
f 8 76 104
f 8 104 107
f 8 107 81
f 8 81 79
f 8 79 48
f 8 48 31
f 8 31 18
f 8 18 9
f 9 18 30
f 9 30 47
f 9 47 77
f 9 77 105
f 9 105 134
f 9 134 135
f 9 135 139
f 9 139 179
f 9 179 200
f 9 200 202
f 9 202 207
f 9 207 206
f 9 206 197
f 9 197 193
f 9 193 162
f 9 162 161
f 9 161 140
f 9 140 113
f 9 113 89
f 9 89 55
f 9 55 33
f 9 33 19
f 9 19 10
f 11 20 27
f 11 27 15
f 12 21 22
f 12 14 23
f 12 23 21
f 14 16 24
f 14 24 25
f 14 25 26
f 14 26 23
f 15 27 28
f 15 28 25
f 15 25 24
f 15 24 16
f 18 31 30
f 19 33 53
f 19 53 32
f 20 34 43
f 20 43 27
f 21 35 36
f 21 36 22
f 21 23 37
f 21 37 35
f 22 38 39
f 22 36 38
f 23 26 37
f 25 28 40
f 25 40 41
f 25 41 26
f 26 41 64
f 26 64 42
f 26 42 59
f 26 59 37
f 27 43 44
f 27 44 28
f 28 44 62
f 28 62 40
f 29 45 46
f 30 31 48
f 30 48 49
f 30 49 50
f 30 50 51
f 30 51 52
f 30 52 47
f 32 53 54
f 33 55 53
f 34 56 66
f 34 66 43
f 35 57 38
f 35 38 36
f 35 37 58
f 35 58 57
f 37 59 58
f 38 60 61
f 38 61 39
f 38 57 60
f 40 62 41
f 41 62 63
f 41 63 97
f 41 97 64
f 42 64 98
f 42 98 65
f 42 65 90
f 42 90 59
f 43 66 67
f 43 67 68
f 43 68 44
f 44 68 69
f 44 69 62
f 45 70 71
f 45 71 72
f 45 72 73
f 45 73 74
f 45 74 75
f 45 75 46
f 46 75 76
f 47 52 51
f 47 51 78
f 47 78 77
f 48 79 80
f 48 80 49
f 49 80 81
f 49 81 50
f 50 81 82
f 50 82 83
f 50 83 84
f 50 84 85
f 50 85 51
f 51 85 86
f 51 86 87
f 51 87 88
f 51 88 78
f 53 55 89
f 53 89 68
f 53 68 66
f 53 66 54
f 54 66 56
f 57 58 59
f 57 59 90
f 57 90 65
f 57 65 60
f 60 65 91
f 60 91 61
f 61 91 92
f 61 92 93
f 62 69 94
f 62 94 95
f 62 95 96
f 62 96 63
f 63 96 97
f 64 97 98
f 65 98 91
f 66 68 67
f 68 89 94
f 68 94 69
f 70 99 71
f 71 99 72
f 72 99 100
f 72 100 73
f 73 100 74
f 74 101 102
f 74 102 75
f 74 100 101
f 75 102 101
f 75 101 103
f 75 103 104
f 75 104 76
f 77 78 106
f 77 106 105
f 78 88 106
f 79 81 80
f 81 107 82
f 82 107 83
f 83 107 103
f 83 103 84
f 84 103 108
f 84 108 85
f 85 108 109
f 85 109 86
f 86 109 110
f 86 110 88
f 86 88 87
f 88 111 106
f 88 110 112
f 88 112 111
f 89 113 114
f 89 114 94
f 91 98 115
f 91 115 116
f 91 116 117
f 91 117 118
f 91 118 119
f 91 119 120
f 91 120 93
f 91 93 92
f 94 114 121
f 94 121 95
f 95 121 96
f 96 122 97
f 96 121 114
f 96 114 123
f 96 123 124
f 96 124 122
f 97 122 125
f 97 125 98
f 98 125 126
f 98 126 115
f 99 127 128
f 99 128 129
f 99 129 100
f 100 129 101
f 101 129 130
f 101 130 131
f 101 131 132
f 101 132 133
f 101 133 103
f 103 133 108
f 103 107 104
f 105 106 134
f 106 111 135
f 106 135 134
f 108 136 109
f 108 133 136
f 109 136 112
f 109 112 110
f 111 137 138
f 111 138 139
f 111 139 135
f 111 112 136
f 111 136 137
f 113 140 114
f 114 140 123
f 115 126 141
f 115 141 142
f 115 142 143
f 115 143 144
f 115 144 116
f 116 144 143
f 116 143 145
f 116 145 117
f 117 146 147
f 117 147 118
f 117 145 148
f 117 148 149
f 117 149 150
f 117 150 131
f 117 131 151
f 117 151 152
f 117 152 153
f 117 153 154
f 117 154 155
f 117 155 156
f 117 156 157
f 117 157 146
f 118 147 146
f 118 146 119
f 119 146 157
f 119 157 156
f 119 156 158
f 119 158 120
f 122 124 159
f 122 159 160
f 122 160 125
f 123 140 161
f 123 161 162
f 123 162 163
f 123 163 124
f 124 163 164
f 124 164 159
f 125 160 126
f 126 165 166
f 126 166 142
f 126 142 141
f 126 160 167
f 126 167 168
f 126 168 169
f 126 169 165
f 127 170 128
f 128 170 129
f 129 131 171
f 129 171 130
f 129 170 131
f 130 171 131
f 131 150 132
f 131 170 172
f 131 172 188
f 131 188 151
f 132 150 136
f 132 136 133
f 136 173 137
f 136 150 173
f 137 173 174
f 137 174 138
f 138 175 176
f 138 176 139
f 138 174 177
f 138 177 178
f 138 178 175
f 139 176 180
f 139 180 181
f 139 181 179
f 142 166 182
f 142 182 143
f 143 182 183
f 143 183 184
f 143 184 145
f 145 184 185
f 145 185 186
f 145 186 148
f 148 186 149
f 149 186 187
f 149 187 173
f 149 173 150
f 151 188 152
f 152 188 189
f 152 189 190
f 152 190 191
f 152 191 192
f 152 192 153
f 153 192 154
f 154 192 191
f 159 164 160
f 160 164 163
f 160 163 168
f 160 168 167
f 162 193 168
f 162 168 163
f 165 194 166
f 165 169 195
f 165 195 196
f 165 196 194
f 166 194 182
f 168 195 169
f 168 193 197
f 168 197 195
f 170 191 198
f 170 198 188
f 170 188 172
f 173 187 174
f 174 187 177
f 175 181 180
f 175 180 176
f 175 178 199
f 175 199 181
f 177 187 178
f 178 187 199
f 179 181 200
f 181 201 202
f 181 202 200
f 181 199 203
f 181 203 185
f 181 185 201
f 182 194 183
f 183 204 184
f 183 194 205
f 183 205 201
f 183 201 204
f 184 204 185
f 185 204 201
f 185 203 199
f 185 199 186
f 186 199 187
f 188 198 189
f 189 198 191
f 189 191 190
f 194 196 205
f 195 197 206
f 195 206 207
f 195 207 205
f 195 205 196
f 201 205 202
f 202 205 207
