v 0.115397 -0.189574 -0.577841
v 0.224042 -0.189574 -0.577841
v 0.296875 -0.189574 -0.459638
v 0.296875 -8.99713e-05 -0.519972
v 0.216936 -8.99713e-05 -0.577841
v 0.230295 -0.189518 -0.577841
v 0.234292 -0.189574 -0.574786
v 0.296875 -0.189574 -0.528685
v 0.296875 -8.99713e-05 -0.577841
v 0.233048 -0.186198 -0.577841
v 0.250972 -0.189574 -0.562891
v 0.241042 -0.189574 -0.569996
v 0.240456 -0.189574 -0.570412
v 0.234718 -0.189574 -0.574485
v 0.296875 -0.186662 -0.530109
v 0.290249 -0.189574 -0.533742
v 0.249622 -0.16357 -0.577841
v 0.296875 -0.0276519 -0.577841
v 0.238626 -0.179168 -0.577841
v 0.261613 -0.189574 -0.555138
v 0.254365 -0.155928 -0.577841
v 0.294548 -0.174031 -0.537896
v 0.296875 -0.176034 -0.535131
v 0.28396 -0.189574 -0.538475
v 0.244311 -0.171304 -0.577841
v 0.296875 -0.0304712 -0.577598
v 0.296733 -0.0293027 -0.577841
v 0.239905 -0.177481 -0.577841
v 0.26259 -0.189574 -0.55442
v 0.26259 -0.141813 -0.577841
v 0.296875 -0.16804 -0.538729
v 0.274243 -0.189574 -0.545765
v 0.296875 -0.0426756 -0.576128
v 0.296626 -0.0304712 -0.577841
v 0.263372 -0.140385 -0.577841
v 0.296875 -0.161845 -0.541483
v 0.296875 -0.1637 -0.540662
v 0.296875 -0.0434917 -0.576013
v 0.295116 -0.0426756 -0.577841
v 0.293819 -0.14875 -0.549526
v 0.296875 -0.151477 -0.545892
v 0.267333 -0.132502 -0.577841
v 0.296875 -0.0548614 -0.574346
v 0.293251 -0.0548614 -0.577841
v 0.296875 -0.140144 -0.550405
v 0.274563 -0.116867 -0.577841
v 0.296875 -0.0582 -0.573745
v 0.296875 -0.0670473 -0.572136
v 0.292007 -0.0612604 -0.577841
v 0.274883 -0.116162 -0.577841
v 0.275132 -0.115605 -0.577841
v 0.296875 -0.125862 -0.555739
v 0.296875 -0.0796041 -0.569405
v 0.290871 -0.0670473 -0.577841
v 0.278524 -0.107203 -0.577841
v 0.292594 -0.122097 -0.560727
v 0.296875 -0.115772 -0.559165
v 0.296875 -0.0884328 -0.567207
v 0.287691 -0.0795485 -0.577841
v 0.290107 -0.0703673 -0.577841
v 0.279839 -0.103586 -0.577841
v 0.296875 -0.106202 -0.562162
v 0.296875 -0.0908811 -0.56657
v 0.287193 -0.0812178 -0.577841
v 0.283889 -0.091419 -0.577841
v 0.296875 -0.103586 -0.562972
f 1 2 7
f 1 7 14
f 1 14 13
f 1 13 12
f 1 12 11
f 1 11 20
f 1 20 29
f 1 29 32
f 1 32 24
f 1 24 16
f 1 16 8
f 1 8 3
f 1 3 4
f 1 4 5
f 1 5 9
f 1 9 18
f 1 18 27
f 1 27 34
f 1 34 39
f 1 39 44
f 1 44 49
f 1 49 54
f 1 54 60
f 1 60 59
f 1 59 64
f 1 64 65
f 1 65 61
f 1 61 55
f 1 55 51
f 1 51 50
f 1 50 46
f 1 46 42
f 1 42 35
f 1 35 30
f 1 30 21
f 1 21 17
f 1 17 25
f 1 25 28
f 1 28 19
f 1 19 10
f 1 10 6
f 1 6 2
f 2 6 7
f 3 8 15
f 3 15 23
f 3 23 31
f 3 31 37
f 3 37 36
f 3 36 41
f 3 41 45
f 3 45 52
f 3 52 57
f 3 57 62
f 3 62 66
f 3 66 63
f 3 63 58
f 3 58 53
f 3 53 48
f 3 48 47
f 3 47 43
f 3 43 38
f 3 38 33
f 3 33 26
f 3 26 18
f 3 18 9
f 3 9 4
f 4 9 5
f 6 10 11
f 6 11 12
f 6 12 13
f 6 13 14
f 6 14 7
f 8 16 17
f 8 17 15
f 10 19 11
f 11 19 20
f 15 17 21
f 15 21 22
f 15 22 23
f 16 24 25
f 16 25 17
f 18 26 27
f 19 28 29
f 19 29 20
f 21 30 22
f 22 31 23
f 22 30 31
f 24 32 25
f 25 32 28
f 26 33 34
f 26 34 27
f 28 32 29
f 30 35 36
f 30 36 37
f 30 37 31
f 33 38 39
f 33 39 34
f 35 40 41
f 35 41 36
f 35 42 40
f 38 43 39
f 39 43 44
f 40 42 45
f 40 45 41
f 42 46 45
f 43 47 44
f 44 47 48
f 44 48 49
f 45 46 50
f 45 50 51
f 45 51 52
f 48 53 54
f 48 54 49
f 51 55 56
f 51 56 52
f 52 56 57
f 53 58 59
f 53 59 60
f 53 60 54
f 55 61 57
f 55 57 56
f 57 61 62
f 58 63 59
f 59 63 64
f 61 65 66
f 61 66 62
f 63 66 64
f 64 66 65
