v 0.168007 -0.443659 -0.248375
v 0.168007 -0.345119 -0.421333
v 0.000107225 -0.474496 -0.248375
v 0.168007 -0.499341 -0.248375
v 0.168007 -0.408074 -0.421333
v 0.000107225 -0.383852 -0.421333
v 0.000107225 -0.526763 -0.248375
v 0.164523 -0.500443 -0.248375
v 0.168007 -0.499234 -0.248646
v 0.168007 -0.408927 -0.420047
v 0.164309 -0.410581 -0.41986
v 0.164342 -0.409585 -0.421333
v 0.000107225 -0.441365 -0.421333
v 0.000107225 -0.526336 -0.249459
v 0.0061066 -0.526781 -0.248375
v 0.163438 -0.500781 -0.248375
v 0.156765 -0.474817 -0.315679
v 0.168007 -0.486607 -0.278497
v 0.161794 -0.476506 -0.307552
v 0.164523 -0.469019 -0.322994
v 0.168007 -0.413302 -0.413359
v 0.159871 -0.411346 -0.421333
v 0.0061066 -0.441365 -0.421333
v 0.000107225 -0.456179 -0.396105
v 0.000107225 -0.523918 -0.255554
v 0.0061066 -0.506756 -0.298612
v 0.0182861 -0.516075 -0.27423
v 0.0182861 -0.526141 -0.248968
v 0.0189272 -0.526354 -0.248375
v 0.000107225 -0.506756 -0.298612
v 0.160447 -0.501706 -0.248375
v 0.143073 -0.474354 -0.326769
v 0.152557 -0.473109 -0.322824
v 0.157866 -0.499518 -0.255537
v 0.153215 -0.502897 -0.25083
v 0.140147 -0.481895 -0.310803
v 0.139473 -0.477093 -0.322824
v 0.168007 -0.474479 -0.307129
v 0.164523 -0.464786 -0.332222
v 0.168007 -0.464146 -0.331002
v 0.168007 -0.467774 -0.322858
v 0.168007 -0.469197 -0.319523
v 0.154628 -0.413356 -0.421333
v 0.168007 -0.413729 -0.412681
v 0.160118 -0.415027 -0.41539
v 0.0152782 -0.441063 -0.421333
v 0.0182861 -0.447999 -0.409363
v 0.0061066 -0.456179 -0.396105
v 0.000107225 -0.470495 -0.371723
v 0.000107225 -0.500817 -0.313512
v 0.0061066 -0.502008 -0.310515
v 0.0182861 -0.496637 -0.322994
v 0.0304821 -0.52591 -0.248375
v 0.152968 -0.503982 -0.248375
v 0.134953 -0.475581 -0.329614
v 0.141512 -0.507397 -0.248375
v 0.136038 -0.500283 -0.269574
v 0.140147 -0.48851 -0.294904
v 0.152919 -0.466654 -0.336031
v 0.157373 -0.462795 -0.34067
v 0.164523 -0.461479 -0.338283
v 0.168007 -0.462475 -0.334084
v 0.152343 -0.414227 -0.421333
v 0.168007 -0.42728 -0.39111
v 0.164309 -0.417677 -0.408652
v 0.0182861 -0.440956 -0.421333
v 0.0182861 -0.441899 -0.419742
v 0.0259949 -0.487603 -0.341415
v 0.0182861 -0.484171 -0.347748
v 0.0061066 -0.470495 -0.371723
v 0.000107225 -0.48618 -0.345005
v 0.0061066 -0.497029 -0.322994
v 0.000107225 -0.497029 -0.322994
v 0.0061066 -0.491498 -0.335151
v 0.0182861 -0.491089 -0.335151
v 0.0304821 -0.496104 -0.322994
v 0.0304821 -0.505849 -0.298612
v 0.0304821 -0.512518 -0.281917
v 0.0398346 -0.512198 -0.281138
v 0.0408208 -0.52518 -0.248375
v 0.127968 -0.473323 -0.337555
v 0.139473 -0.471722 -0.334287
v 0.132455 -0.487087 -0.303725
v 0.127968 -0.480276 -0.322994
v 0.127968 -0.476542 -0.331477
v 0.140147 -0.507788 -0.248375
v 0.140147 -0.507183 -0.249865
v 0.127968 -0.498789 -0.278141
v 0.128214 -0.48538 -0.310481
v 0.129858 -0.510544 -0.248375
v 0.127968 -0.501297 -0.272046
v 0.161564 -0.452124 -0.355316
v 0.165197 -0.455201 -0.348239
v 0.168007 -0.454685 -0.347375
v 0.149253 -0.464057 -0.34277
v 0.146278 -0.450951 -0.365645
v 0.143254 -0.437844 -0.38852
v 0.147955 -0.427227 -0.403216
v 0.168007 -0.460821 -0.337098
v 0.164523 -0.427938 -0.39216
v 0.158836 -0.438911 -0.378056
v 0.149171 -0.415401 -0.421333
v 0.168007 -0.452338 -0.351134
v 0.0265373 -0.440512 -0.421333
v 0.0304821 -0.441579 -0.419183
v 0.0302356 -0.484527 -0.346224
v 0.0341311 -0.487372 -0.340992
v 0.0302356 -0.490022 -0.336217
v 0.0182861 -0.487745 -0.341653
v 0.0304821 -0.455165 -0.396105
v 0.0304821 -0.460945 -0.386285
v 0.0061066 -0.484366 -0.348087
v 0.0061066 -0.487941 -0.341991
v 0.000107225 -0.487941 -0.341991
v 0.000107225 -0.494308 -0.328988
v 0.000107225 -0.491498 -0.335151
v 0.0426617 -0.490128 -0.334236
v 0.0426617 -0.495179 -0.322994
v 0.0426617 -0.525038 -0.248375
v 0.118566 -0.47455 -0.339841
v 0.12851 -0.466903 -0.348239
v 0.140147 -0.465444 -0.345039
v 0.124319 -0.488119 -0.306214
v 0.115772 -0.483299 -0.322994
v 0.104562 -0.485914 -0.323011
v 0.103592 -0.480454 -0.335151
v 0.115016 -0.477626 -0.33554
v 0.118517 -0.513194 -0.248375
v 0.115772 -0.48915 -0.308703
v 0.140147 -0.45657 -0.359532
v 0.140147 -0.451893 -0.367169
v 0.123974 -0.427227 -0.415424
v 0.132093 -0.425982 -0.413409
v 0.140147 -0.42849 -0.405282
v 0.14069 -0.418353 -0.421333
v 0.0304821 -0.440298 -0.421333
v 0.0373527 -0.439711 -0.421333
v 0.0426617 -0.441063 -0.418286
v 0.037254 -0.451004 -0.402302
v 0.0426617 -0.48289 -0.347342
v 0.0426617 -0.486998 -0.340315
v 0.0548577 -0.489524 -0.333102
v 0.0548577 -0.49397 -0.322994
v 0.0548577 -0.500496 -0.306705
v 0.0548577 -0.523847 -0.248375
v 0.0506992 -0.524256 -0.248375
v 0.11043 -0.475492 -0.341534
v 0.115016 -0.471562 -0.346309
v 0.124812 -0.463968 -0.354842
v 0.132932 -0.462795 -0.352912
v 0.121804 -0.450933 -0.377785
v 0.101143 -0.48835 -0.318981
v 0.0913963 -0.486803 -0.327379
v 0.114901 -0.51403 -0.248375
v 0.110052 -0.511967 -0.256164
v 0.0913963 -0.482944 -0.335151
v 0.103592 -0.476293 -0.342872
v 0.115772 -0.425911 -0.421333
v 0.117909 -0.425306 -0.421333
v 0.122988 -0.42383 -0.421333
v 0.128001 -0.423261 -0.419877
v 0.128001 -0.422301 -0.421333
v 0.0426617 -0.439249 -0.421333
v 0.0478228 -0.438698 -0.421333
v 0.0609064 -0.463133 -0.377802
v 0.0418563 -0.453707 -0.396986
v 0.0426617 -0.468521 -0.371723
v 0.0548577 -0.481681 -0.347342
v 0.0548577 -0.486394 -0.33918
v 0.0670372 -0.488777 -0.331646
v 0.0670372 -0.492494 -0.322994
v 0.0633554 -0.500034 -0.305537
v 0.0591476 -0.523384 -0.248375
v 0.115772 -0.465107 -0.356722
v 0.102721 -0.429237 -0.421333
v 0.111235 -0.42712 -0.421333
v 0.115772 -0.428365 -0.417321
v 0.0978066 -0.499767 -0.292686
v 0.0913963 -0.489275 -0.321284
v 0.0845915 -0.48739 -0.328784
v 0.105088 -0.516164 -0.248375
v 0.103592 -0.515879 -0.249865
v 0.0913963 -0.477537 -0.344971
v 0.0764883 -0.488066 -0.330207
v 0.0800222 -0.485167 -0.334626
v 0.0987271 -0.463417 -0.366102
v 0.0548577 -0.437933 -0.421333
v 0.0737269 -0.475421 -0.353606
v 0.0670372 -0.475937 -0.354487
v 0.0670372 -0.480152 -0.347342
v 0.0670372 -0.436226 -0.421333
v 0.0670372 -0.439569 -0.415729
v 0.0695192 -0.435834 -0.421333
v 0.0670372 -0.485629 -0.337724
v 0.0800222 -0.490057 -0.324027
v 0.0714751 -0.499465 -0.304132
v 0.0680892 -0.522371 -0.248375
v 0.0674974 -0.522442 -0.248375
v 0.0913963 -0.432349 -0.42047
v 0.0913963 -0.431815 -0.421333
v 0.0913963 -0.500301 -0.294023
v 0.103494 -0.516502 -0.248375
v 0.0926948 -0.518494 -0.248375
v 0.0913963 -0.518725 -0.248375
v 0.0913963 -0.513781 -0.260651
v 0.0792332 -0.501314 -0.296512
v 0.0792332 -0.495535 -0.310803
v 0.0783621 -0.477982 -0.347985
v 0.0818466 -0.474745 -0.352472
v 0.0824877 -0.438289 -0.413596
v 0.0867612 -0.451235 -0.390518
v 0.0792332 -0.465249 -0.369184
v 0.0783621 -0.471793 -0.358415
v 0.0788387 -0.434216 -0.421333
v 0.0787401 -0.435425 -0.419454
v 0.0769321 -0.512518 -0.269692
v 0.0792332 -0.520148 -0.249865
v 0.0792332 -0.520734 -0.248375
v 0.0809755 -0.52045 -0.248375
f 1 2 3
f 1 3 7
f 1 7 15
f 1 15 29
f 1 29 53
f 1 53 80
f 1 80 119
f 1 119 146
f 1 146 145
f 1 145 173
f 1 173 198
f 1 198 197
f 1 197 218
f 1 218 219
f 1 219 204
f 1 204 203
f 1 203 202
f 1 202 181
f 1 181 154
f 1 154 128
f 1 128 90
f 1 90 86
f 1 86 56
f 1 56 54
f 1 54 31
f 1 31 16
f 1 16 8
f 1 8 4
f 1 4 9
f 1 9 18
f 1 18 38
f 1 38 42
f 1 42 41
f 1 41 40
f 1 40 62
f 1 62 99
f 1 99 94
f 1 94 103
f 1 103 64
f 1 64 44
f 1 44 21
f 1 21 10
f 1 10 5
f 1 5 2
f 2 5 12
f 2 12 22
f 2 22 43
f 2 43 63
f 2 63 102
f 2 102 135
f 2 135 162
f 2 162 160
f 2 160 159
f 2 159 158
f 2 158 176
f 2 176 175
f 2 175 200
f 2 200 214
f 2 214 193
f 2 193 191
f 2 191 187
f 2 187 164
f 2 164 163
f 2 163 137
f 2 137 136
f 2 136 104
f 2 104 66
f 2 66 46
f 2 46 23
f 2 23 13
f 2 13 6
f 2 6 3
f 3 6 13
f 3 13 24
f 3 24 49
f 3 49 71
f 3 71 114
f 3 114 116
f 3 116 115
f 3 115 73
f 3 73 50
f 3 50 30
f 3 30 25
f 3 25 14
f 3 14 7
f 4 8 9
f 5 10 11
f 5 11 12
f 7 14 15
f 8 16 17
f 8 17 9
f 9 17 19
f 9 19 20
f 9 20 18
f 10 21 11
f 11 21 22
f 11 22 12
f 13 23 48
f 13 48 24
f 14 25 15
f 15 26 27
f 15 27 28
f 15 28 29
f 15 25 30
f 15 30 26
f 16 31 17
f 17 32 33
f 17 33 20
f 17 20 19
f 17 31 34
f 17 34 35
f 17 35 36
f 17 36 37
f 17 37 32
f 18 20 38
f 20 33 39
f 20 39 40
f 20 40 41
f 20 41 42
f 20 42 38
f 21 43 22
f 21 44 45
f 21 45 43
f 23 46 47
f 23 47 48
f 24 48 70
f 24 70 49
f 26 30 50
f 26 50 51
f 26 51 52
f 26 52 27
f 27 53 29
f 27 29 28
f 27 52 53
f 31 54 35
f 31 35 34
f 32 55 39
f 32 39 33
f 32 37 55
f 35 54 56
f 35 56 57
f 35 57 58
f 35 58 36
f 36 58 57
f 36 57 37
f 37 57 55
f 39 59 60
f 39 60 61
f 39 61 62
f 39 62 40
f 39 55 59
f 43 45 63
f 44 64 65
f 44 65 45
f 45 65 63
f 46 66 67
f 46 67 47
f 47 68 69
f 47 69 70
f 47 70 48
f 47 67 68
f 49 70 71
f 50 72 51
f 50 73 72
f 51 72 52
f 52 72 74
f 52 74 75
f 52 75 76
f 52 76 77
f 52 77 78
f 52 78 53
f 53 78 79
f 53 79 80
f 55 81 82
f 55 82 59
f 55 57 83
f 55 83 84
f 55 84 85
f 55 85 81
f 56 86 87
f 56 87 57
f 57 88 89
f 57 89 84
f 57 84 83
f 57 87 90
f 57 90 91
f 57 91 88
f 59 82 60
f 60 92 93
f 60 93 94
f 60 94 61
f 60 82 95
f 60 95 96
f 60 96 97
f 60 97 98
f 60 98 92
f 61 94 99
f 61 99 62
f 63 65 100
f 63 100 101
f 63 101 98
f 63 98 102
f 64 100 65
f 64 103 100
f 66 104 105
f 66 105 67
f 67 105 68
f 68 106 107
f 68 107 108
f 68 108 75
f 68 75 109
f 68 109 69
f 68 105 110
f 68 110 111
f 68 111 106
f 69 109 113
f 69 113 112
f 69 112 70
f 70 112 71
f 71 112 113
f 71 113 114
f 72 73 115
f 72 115 74
f 74 113 109
f 74 109 75
f 74 115 116
f 74 116 114
f 74 114 113
f 75 108 76
f 76 108 117
f 76 117 118
f 76 118 79
f 76 79 77
f 77 79 78
f 79 119 80
f 79 118 119
f 81 85 120
f 81 120 121
f 81 121 122
f 81 122 95
f 81 95 82
f 84 89 123
f 84 123 124
f 84 124 85
f 85 124 125
f 85 125 126
f 85 126 127
f 85 127 120
f 86 90 87
f 88 124 123
f 88 123 89
f 88 91 124
f 90 128 129
f 90 129 91
f 91 129 124
f 92 98 93
f 93 98 103
f 93 103 94
f 95 122 130
f 95 130 131
f 95 131 96
f 96 131 97
f 97 132 133
f 97 133 134
f 97 134 98
f 97 131 132
f 98 134 135
f 98 135 102
f 98 101 103
f 100 103 101
f 104 136 105
f 105 136 137
f 105 137 138
f 105 138 139
f 105 139 107
f 105 107 110
f 106 111 107
f 107 140 141
f 107 141 117
f 107 117 108
f 107 111 110
f 107 139 140
f 117 141 169
f 117 169 142
f 117 142 118
f 118 142 143
f 118 143 144
f 118 144 145
f 118 145 146
f 118 146 119
f 120 147 148
f 120 148 149
f 120 149 121
f 120 127 126
f 120 126 147
f 121 149 150
f 121 150 122
f 122 150 151
f 122 151 130
f 124 129 125
f 125 152 153
f 125 153 126
f 125 129 128
f 125 128 154
f 125 154 155
f 125 155 152
f 126 153 156
f 126 156 157
f 126 157 147
f 130 151 132
f 130 132 131
f 132 158 159
f 132 159 160
f 132 160 161
f 132 161 133
f 132 151 158
f 133 161 134
f 134 161 135
f 135 161 162
f 137 163 138
f 138 163 164
f 138 164 165
f 138 165 166
f 138 166 139
f 139 166 167
f 139 167 140
f 140 168 141
f 140 167 165
f 140 165 168
f 141 168 169
f 142 169 170
f 142 170 143
f 143 170 171
f 143 171 172
f 143 172 144
f 144 173 145
f 144 172 173
f 147 157 148
f 148 174 151
f 148 151 149
f 148 157 175
f 148 175 174
f 149 151 150
f 151 174 175
f 151 175 176
f 151 176 177
f 151 177 158
f 152 178 153
f 152 155 178
f 153 178 179
f 153 179 180
f 153 180 156
f 154 181 155
f 155 181 182
f 155 182 178
f 156 183 157
f 156 180 184
f 156 184 185
f 156 185 183
f 157 183 186
f 157 186 175
f 158 177 176
f 160 162 161
f 164 187 165
f 165 188 189
f 165 189 190
f 165 190 168
f 165 167 166
f 165 187 191
f 165 191 192
f 165 192 193
f 165 193 188
f 168 190 169
f 169 194 170
f 169 190 194
f 170 194 184
f 170 184 171
f 171 195 196
f 171 196 172
f 171 184 195
f 172 196 197
f 172 197 198
f 172 198 173
f 175 199 200
f 175 186 199
f 178 201 180
f 178 180 179
f 178 182 202
f 178 202 203
f 178 203 204
f 178 204 205
f 178 205 201
f 180 201 205
f 180 205 206
f 180 206 207
f 180 207 195
f 180 195 184
f 181 202 182
f 183 185 194
f 183 194 208
f 183 208 209
f 183 209 210
f 183 210 211
f 183 211 186
f 184 194 185
f 186 211 210
f 186 210 199
f 188 212 213
f 188 213 209
f 188 209 208
f 188 208 190
f 188 190 189
f 188 193 212
f 190 208 194
f 191 193 192
f 193 214 215
f 193 215 212
f 195 207 196
f 196 207 206
f 196 206 216
f 196 216 197
f 197 216 217
f 197 217 218
f 199 210 215
f 199 215 200
f 200 215 214
f 204 219 217
f 204 217 205
f 205 217 206
f 206 217 216
f 209 213 212
f 209 212 210
f 210 212 215
f 217 219 218
