v -9.08067e-05 0.457723 -0.393441
v -9.08067e-05 0.456163 -0.396122
v -0.00610678 0.457723 -0.393441
v -9.08067e-05 0.401567 -0.393441
v -0.00610678 0.456163 -0.396122
v -9.08067e-05 0.440334 -0.423104
v -0.00959469 0.457621 -0.393441
v -0.138201 0.377018 -0.393441
v -9.08067e-05 0.196505 -0.578305
v -0.0182874 0.45578 -0.396122
v -0.00610678 0.442099 -0.420096
v -9.08067e-05 0.438493 -0.426177
v -0.00610678 0.438493 -0.426177
v -0.0182874 0.457339 -0.393441
v -0.138201 0.436345 -0.393441
v -0.138201 0.196505 -0.568453
v -9.08067e-05 0.196505 -0.616075
v -0.0304816 0.455166 -0.396122
v -0.0215996 0.457186 -0.393441
v -0.0182874 0.441894 -0.419747
v -0.0182874 0.438288 -0.42585
v -9.08067e-05 0.436115 -0.429381
v -0.00610678 0.43366 -0.432672
v -0.0182874 0.433251 -0.432672
v -0.13789 0.436447 -0.393441
v -0.138201 0.436166 -0.393768
v -0.138201 0.196505 -0.616075
v -9.08067e-05 0.262046 -0.616075
v -0.0372546 0.450998 -0.402333
v -0.0304816 0.456726 -0.393441
v -0.0304816 0.447673 -0.40885
v -0.0304816 0.441562 -0.419203
v -0.0304816 0.437956 -0.425283
v -0.0304816 0.432586 -0.432672
v -9.08067e-05 0.43366 -0.432672
v -9.08067e-05 0.430796 -0.436442
v -0.00610678 0.427829 -0.440322
v -0.0182874 0.427625 -0.440082
v -0.0304816 0.427292 -0.439668
v -0.127967 0.439465 -0.393441
v -0.138201 0.434273 -0.396863
v -0.138201 0.225478 -0.616075
v -9.08067e-05 0.268234 -0.616053
v -0.0670371 0.262046 -0.616075
v -0.0453796 0.450614 -0.401636
v -0.042108 0.455754 -0.393441
v -0.0426622 0.44105 -0.418309
v -0.0433923 0.430566 -0.433849
v -0.0426622 0.437419 -0.42439
v -0.0398233 0.426883 -0.439167
v -9.08067e-05 0.427829 -0.440322
v -0.00610678 0.422868 -0.446424
v -0.0182874 0.405531 -0.46726
v -0.0182874 0.389522 -0.486941
v -0.0282645 0.378194 -0.50017
v -0.126656 0.439848 -0.393441
v -0.123966 0.42719 -0.415432
v -0.127967 0.436422 -0.39841
v -0.138201 0.427855 -0.407281
v -0.132091 0.425963 -0.413427
v -0.138201 0.237676 -0.615443
v -0.127967 0.237676 -0.616075
v -0.00610678 0.274244 -0.616032
v -9.08067e-05 0.274244 -0.616032
v -0.103593 0.249874 -0.616075
v -0.0792177 0.262046 -0.615923
v -0.0548564 0.453708 -0.394727
v -0.0454742 0.455422 -0.393441
v -0.0548564 0.43678 -0.4233
v -0.0548564 0.440411 -0.417197
v -0.0548564 0.445679 -0.408305
v -0.0548564 0.430668 -0.432061
v -0.0479482 0.426474 -0.438665
v -0.0426622 0.415683 -0.452549
v -0.0433923 0.422689 -0.443874
v -9.08067e-05 0.422868 -0.446424
v -9.08067e-05 0.387144 -0.490363
v -0.00610678 0.389727 -0.487181
v -0.0182874 0.378475 -0.500519
v -0.0182874 0.373514 -0.5066
v -0.0304816 0.367019 -0.5134
v -0.0315902 0.374051 -0.504834
v -0.0426622 0.372185 -0.505793
v -0.0426622 0.377478 -0.49932
v -0.0426622 0.382465 -0.493218
v -0.115341 0.442994 -0.393441
v -0.118288 0.437828 -0.400677
v -0.128008 0.429952 -0.408937
v -0.115773 0.424633 -0.423431
v -0.128008 0.423226 -0.4199
v -0.138201 0.424454 -0.412773
v -0.138201 0.24747 -0.61213
v -0.115773 0.249874 -0.61553
v -0.0182874 0.274244 -0.615879
v -0.00610678 0.283577 -0.612697
v -9.08067e-05 0.283577 -0.612697
v -0.0913984 0.262046 -0.614855
v -0.0792177 0.271763 -0.612588
v -0.0426622 0.274244 -0.614876
v -0.0304816 0.274244 -0.615574
v -0.0670371 0.449284 -0.399413
v -0.0670371 0.452813 -0.393441
v -0.0549781 0.45445 -0.393441
v -0.0670371 0.429824 -0.430994
v -0.0670371 0.43591 -0.42184
v -0.0670371 0.439567 -0.415759
v -0.0548564 0.426065 -0.438164
v -9.08067e-05 0.37868 -0.500759
v -0.00610678 0.37868 -0.500759
v -0.00610678 0.373719 -0.50684
v -0.0182874 0.367428 -0.513836
v -0.0426622 0.366405 -0.512746
v -0.0304816 0.28281 -0.612217
v -0.050679 0.365945 -0.512245
v -0.106445 0.445142 -0.393441
v -0.110163 0.438876 -0.40242
v -0.106634 0.425835 -0.425414
v -0.127967 0.416757 -0.429751
v -0.136985 0.41535 -0.42792
v -0.138201 0.419288 -0.421055
v -0.124412 0.257213 -0.610888
v -0.115773 0.259079 -0.612174
v -0.128278 0.250513 -0.612959
v -0.138201 0.344464 -0.509934
v -0.0182874 0.283296 -0.612523
v -0.00610678 0.367633 -0.514054
v -9.08067e-05 0.367633 -0.514054
v -0.0913984 0.269999 -0.611498
v -0.0548564 0.280944 -0.610234
v -0.0426622 0.282018 -0.61152
v -0.0792177 0.450819 -0.393441
v -0.0792177 0.428827 -0.429686
v -0.0670371 0.42517 -0.437074
v -0.078731 0.435399 -0.419486
v -0.0824623 0.438288 -0.413601
v -0.0548564 0.420567 -0.444877
v -0.0617106 0.414506 -0.45111
v -9.08067e-05 0.373719 -0.50684
v -0.058804 0.365255 -0.51146
v -0.0670371 0.375714 -0.497163
v -0.0547888 0.369806 -0.506752
v -0.103593 0.444221 -0.396122
v -0.103593 0.445806 -0.393441
v -0.102971 0.429364 -0.421011
v -0.0985094 0.426806 -0.426918
v -0.114976 0.417805 -0.433195
v -0.118504 0.413381 -0.437597
v -0.127967 0.411949 -0.435832
v -0.138201 0.410875 -0.432955
v -0.138201 0.41379 -0.429337
v -0.138201 0.416322 -0.425763
v -0.0989961 0.26872 -0.610169
v -0.136741 0.342316 -0.512986
v -0.138201 0.350167 -0.503483
v -0.127967 0.35009 -0.508038
v -0.0610076 0.280355 -0.609406
v -0.109189 0.353287 -0.5117
v -0.101051 0.354514 -0.513007
v -0.0792177 0.363337 -0.50915
v -0.0670371 0.364539 -0.51061
v -0.0836925 0.450026 -0.393441
v -0.0913984 0.427625 -0.428051
v -0.0792177 0.424147 -0.435788
v -0.0792177 0.418061 -0.44322
v -0.069822 0.413841 -0.450304
v -0.0913984 0.43233 -0.420488
v -0.0913984 0.441024 -0.405995
v -0.0910604 0.447545 -0.395206
v -0.0894516 0.448926 -0.393441
v -0.0913984 0.437368 -0.412097
v -0.0670371 0.397936 -0.470181
v -0.0670371 0.369602 -0.504551
v -0.0938994 0.44798 -0.393441
v -0.0913984 0.422894 -0.434154
v -0.110379 0.414583 -0.439014
v -0.115489 0.408216 -0.444768
v -0.127967 0.405863 -0.44309
v -0.138201 0.403357 -0.442087
v -0.138201 0.404175 -0.441106
v -0.115773 0.352213 -0.510479
v -0.135497 0.353977 -0.500345
v -0.138201 0.359194 -0.493174
v -0.127967 0.355384 -0.501979
v -0.0913984 0.361879 -0.50745
v -0.115773 0.357455 -0.50442
v -0.115773 0.368732 -0.491191
v -0.107148 0.364871 -0.498819
v -0.0990231 0.366073 -0.500257
v -0.0913984 0.367019 -0.501369
v -0.0855311 0.390059 -0.47539
v -0.0792177 0.3684 -0.503069
v -0.0913984 0.416808 -0.441695
v -0.0792177 0.385661 -0.482299
v -0.0821378 0.401567 -0.4624
v -0.0921554 0.448364 -0.393441
v -0.0910604 0.448594 -0.393441
v -0.0792177 0.374512 -0.495724
v -0.103593 0.415376 -0.439995
v -0.112475 0.403024 -0.45196
v -0.0965356 0.37758 -0.487268
v -0.1226 0.390238 -0.463424
v -0.127967 0.400672 -0.449192
v -0.130725 0.388934 -0.46192
v -0.138201 0.398959 -0.447209
v -0.138201 0.380163 -0.468982
v -0.134078 0.365638 -0.487529
v -0.13251 0.377273 -0.474736
v -0.127967 0.36147 -0.494918
v -0.138201 0.387605 -0.460395
v -0.0910334 0.38382 -0.48134
v -0.0913984 0.405633 -0.455099
v -0.138201 0.391773 -0.455556
f 1 2 5
f 1 5 3
f 1 3 7
f 1 7 14
f 1 14 19
f 1 19 30
f 1 30 46
f 1 46 68
f 1 68 103
f 1 103 102
f 1 102 131
f 1 131 161
f 1 161 169
f 1 169 196
f 1 196 195
f 1 195 173
f 1 173 143
f 1 143 115
f 1 115 86
f 1 86 56
f 1 56 40
f 1 40 25
f 1 25 15
f 1 15 8
f 1 8 4
f 1 4 9
f 1 9 17
f 1 17 28
f 1 28 43
f 1 43 64
f 1 64 96
f 1 96 127
f 1 127 138
f 1 138 108
f 1 108 77
f 1 77 76
f 1 76 51
f 1 51 36
f 1 36 35
f 1 35 22
f 1 22 12
f 1 12 6
f 1 6 2
f 2 6 11
f 2 11 5
f 3 5 7
f 4 8 9
f 5 10 7
f 5 11 10
f 6 12 13
f 6 13 11
f 7 10 14
f 8 15 26
f 8 26 41
f 8 41 59
f 8 59 91
f 8 91 120
f 8 120 151
f 8 151 150
f 8 150 149
f 8 149 179
f 8 179 178
f 8 178 204
f 8 204 212
f 8 212 209
f 8 209 205
f 8 205 182
f 8 182 154
f 8 154 124
f 8 124 92
f 8 92 61
f 8 61 42
f 8 42 27
f 8 27 16
f 8 16 9
f 9 16 27
f 9 27 17
f 10 18 19
f 10 19 14
f 10 11 20
f 10 20 18
f 11 13 21
f 11 21 20
f 12 22 13
f 13 22 23
f 13 23 24
f 13 24 21
f 15 25 26
f 17 27 42
f 17 42 62
f 17 62 65
f 17 65 44
f 17 44 28
f 18 29 30
f 18 30 19
f 18 20 31
f 18 31 29
f 20 21 32
f 20 32 31
f 21 33 32
f 21 24 34
f 21 34 33
f 22 35 23
f 23 35 36
f 23 36 37
f 23 37 38
f 23 38 24
f 24 38 39
f 24 39 34
f 25 40 26
f 26 40 41
f 28 44 43
f 29 45 46
f 29 46 30
f 29 31 32
f 29 32 33
f 29 33 47
f 29 47 45
f 33 34 48
f 33 48 49
f 33 49 47
f 34 39 50
f 34 50 48
f 36 51 37
f 37 51 76
f 37 76 52
f 37 52 38
f 38 52 53
f 38 53 39
f 39 53 54
f 39 54 55
f 39 55 50
f 40 56 57
f 40 57 58
f 40 58 41
f 41 58 60
f 41 60 59
f 42 61 62
f 43 63 64
f 43 44 63
f 44 65 66
f 44 66 94
f 44 94 63
f 45 67 68
f 45 68 46
f 45 47 67
f 47 49 69
f 47 69 70
f 47 70 71
f 47 71 67
f 48 72 49
f 48 50 73
f 48 73 72
f 49 72 69
f 50 74 75
f 50 75 73
f 50 55 74
f 52 76 77
f 52 77 78
f 52 78 53
f 53 78 54
f 54 78 109
f 54 109 79
f 54 79 55
f 55 79 80
f 55 80 81
f 55 81 82
f 55 82 83
f 55 83 84
f 55 84 85
f 55 85 74
f 56 86 87
f 56 87 57
f 57 88 58
f 57 87 89
f 57 89 90
f 57 90 60
f 57 60 88
f 58 88 60
f 59 60 91
f 60 90 91
f 61 92 93
f 61 93 62
f 62 93 65
f 63 94 95
f 63 95 96
f 63 96 64
f 65 93 66
f 66 93 97
f 66 97 98
f 66 98 99
f 66 99 100
f 66 100 94
f 67 101 102
f 67 102 103
f 67 103 68
f 67 71 101
f 69 72 104
f 69 104 105
f 69 105 106
f 69 106 70
f 70 106 101
f 70 101 71
f 72 73 107
f 72 107 104
f 73 75 74
f 73 74 85
f 73 85 84
f 73 84 83
f 73 83 107
f 77 108 109
f 77 109 78
f 79 109 110
f 79 110 80
f 80 110 111
f 80 111 81
f 81 112 82
f 81 111 113
f 81 113 112
f 82 112 83
f 83 112 114
f 83 114 107
f 86 115 116
f 86 116 117
f 86 117 87
f 87 117 89
f 89 117 118
f 89 118 119
f 89 119 90
f 90 120 91
f 90 119 120
f 92 121 122
f 92 122 123
f 92 123 93
f 92 124 121
f 93 123 122
f 93 122 97
f 94 100 125
f 94 125 95
f 95 125 111
f 95 111 126
f 95 126 127
f 95 127 96
f 97 122 128
f 97 128 98
f 98 128 129
f 98 129 130
f 98 130 99
f 99 130 113
f 99 113 100
f 100 113 125
f 101 131 102
f 101 106 131
f 104 132 105
f 104 107 133
f 104 133 132
f 105 132 134
f 105 134 106
f 106 135 131
f 106 134 135
f 107 136 137
f 107 137 133
f 107 114 136
f 108 138 110
f 108 110 109
f 110 138 127
f 110 127 126
f 110 126 111
f 111 125 113
f 112 113 114
f 113 130 114
f 114 139 140
f 114 140 141
f 114 141 137
f 114 137 136
f 114 130 139
f 115 142 116
f 115 143 142
f 116 142 144
f 116 144 117
f 117 144 145
f 117 145 146
f 117 146 118
f 118 146 147
f 118 147 148
f 118 148 119
f 119 148 149
f 119 149 150
f 119 150 151
f 119 151 120
f 121 152 122
f 121 124 153
f 121 153 152
f 122 152 128
f 124 154 155
f 124 155 153
f 128 156 129
f 128 152 157
f 128 157 158
f 128 158 156
f 129 156 159
f 129 159 160
f 129 160 130
f 130 160 139
f 131 135 161
f 132 162 134
f 132 133 163
f 132 163 162
f 133 164 163
f 133 137 165
f 133 165 164
f 134 162 166
f 134 166 135
f 135 167 168
f 135 168 169
f 135 169 161
f 135 166 170
f 135 170 167
f 137 171 165
f 137 141 171
f 139 160 172
f 139 172 140
f 140 172 164
f 140 164 165
f 140 165 171
f 140 171 141
f 142 143 173
f 142 173 167
f 142 167 170
f 142 170 166
f 142 166 144
f 144 166 145
f 145 166 162
f 145 162 174
f 145 174 175
f 145 175 146
f 146 175 147
f 147 175 176
f 147 176 177
f 147 177 148
f 148 177 178
f 148 178 179
f 148 179 149
f 152 153 155
f 152 155 180
f 152 180 157
f 154 181 155
f 154 182 181
f 155 181 183
f 155 183 180
f 156 158 184
f 156 184 159
f 157 180 185
f 157 185 186
f 157 186 187
f 157 187 188
f 157 188 158
f 158 188 184
f 159 184 189
f 159 189 190
f 159 190 191
f 159 191 172
f 159 172 160
f 162 163 174
f 163 164 192
f 163 192 174
f 164 193 194
f 164 194 192
f 164 172 193
f 167 173 195
f 167 195 168
f 168 195 196
f 168 196 169
f 172 191 197
f 172 197 193
f 174 192 198
f 174 198 175
f 175 199 176
f 175 198 200
f 175 200 188
f 175 188 199
f 176 199 201
f 176 201 177
f 177 202 178
f 177 201 202
f 178 202 203
f 178 203 204
f 180 183 185
f 181 182 183
f 182 205 206
f 182 206 183
f 183 207 208
f 183 208 185
f 183 206 209
f 183 209 207
f 184 188 189
f 185 208 203
f 185 203 202
f 185 202 186
f 186 202 201
f 186 201 187
f 187 201 199
f 187 199 188
f 188 200 189
f 189 200 198
f 189 198 210
f 189 210 190
f 190 210 211
f 190 211 192
f 190 192 197
f 190 197 191
f 192 194 193
f 192 193 197
f 192 211 198
f 198 211 210
f 203 208 207
f 203 207 204
f 204 207 212
f 205 209 206
f 207 209 212
