v 0.271868 -0.476225 0.143354
v 0.273348 -0.482426 0.116773
v 0.279518 -0.474816 0.132273
v 0.271868 -0.463401 0.191529
v 0.271868 -0.427995 0.116773
v 0.282956 -0.476917 0.116773
v 0.2723 -0.460634 0.200573
v 0.271868 -0.452135 0.221914
v 0.289832 -0.472667 0.116773
v 0.280747 -0.463352 0.171561
v 0.291858 -0.450504 0.193439
v 0.271868 -0.426908 0.275692
v 0.272414 -0.36919 0.277997
v 0.395044 -0.230011 0.278013
v 0.451896 -0.230011 0.116773
v 0.281863 -0.451838 0.209192
v 0.272551 -0.456335 0.211859
v 0.290105 -0.449417 0.201079
v 0.278812 -0.449985 0.217321
v 0.310118 -0.45967 0.116773
v 0.301922 -0.464612 0.118635
v 0.296389 -0.465526 0.127996
v 0.305155 -0.45122 0.159533
v 0.303447 -0.450084 0.167662
v 0.298051 -0.447564 0.189193
v 0.299599 -0.442943 0.20171
v 0.279632 -0.426093 0.267137
v 0.277651 -0.422115 0.278013
v 0.286394 -0.441683 0.224976
v 0.433659 -0.230011 0.278013
v 0.504445 -0.230011 0.116773
v 0.295911 -0.441041 0.213264
v 0.286121 -0.447292 0.213264
v 0.304312 -0.438422 0.206193
v 0.319749 -0.45295 0.116773
v 0.309868 -0.4466 0.163985
v 0.307819 -0.440942 0.188924
v 0.305975 -0.439632 0.198064
v 0.293384 -0.439311 0.220588
v 0.287828 -0.415221 0.278013
v 0.449847 -0.230011 0.27795
v 0.444838 -0.239376 0.278013
v 0.500324 -0.238906 0.117136
v 0.496499 -0.246961 0.116773
v 0.481609 -0.230011 0.204614
v 0.487005 -0.230308 0.184836
v 0.500598 -0.233619 0.125517
v 0.30199 -0.436791 0.213264
v 0.319886 -0.428712 0.201079
v 0.318064 -0.427377 0.208908
v 0.326489 -0.448107 0.116773
v 0.323984 -0.443092 0.140765
v 0.321184 -0.441807 0.152367
v 0.313921 -0.436593 0.188924
v 0.29352 -0.427254 0.245165
v 0.302354 -0.412676 0.262023
v 0.300374 -0.406252 0.278013
v 0.451782 -0.233199 0.269994
v 0.463827 -0.231247 0.245481
v 0.476828 -0.231271 0.216058
v 0.43885 -0.25042 0.278013
v 0.451099 -0.256276 0.244123
v 0.451441 -0.244737 0.257067
v 0.48746 -0.243724 0.158349
v 0.488485 -0.257832 0.125707
v 0.487984 -0.263144 0.116773
v 0.473503 -0.240339 0.213264
v 0.476463 -0.243131 0.201031
v 0.482383 -0.237695 0.188924
v 0.311075 -0.430367 0.213091
v 0.304426 -0.42634 0.231101
v 0.325669 -0.427723 0.190045
v 0.325988 -0.424165 0.201079
v 0.31531 -0.425401 0.217037
v 0.333638 -0.418063 0.201079
v 0.333319 -0.413689 0.212491
v 0.323438 -0.420805 0.213911
v 0.31811 -0.415295 0.233453
v 0.332021 -0.440893 0.127996
v 0.330268 -0.439583 0.137103
v 0.327969 -0.437928 0.1488
v 0.346047 -0.433233 0.116773
v 0.337008 -0.44025 0.117183
v 0.329426 -0.426809 0.183747
v 0.315423 -0.413269 0.241566
v 0.307272 -0.404127 0.272046
v 0.309344 -0.399482 0.278013
v 0.464669 -0.246714 0.22545
v 0.43926 -0.256819 0.269252
v 0.423937 -0.274807 0.278013
v 0.431496 -0.263564 0.276924
v 0.450576 -0.267592 0.230833
v 0.462916 -0.260822 0.212475
v 0.462893 -0.255559 0.218884
v 0.475735 -0.250667 0.188924
v 0.482429 -0.262082 0.140181
v 0.481677 -0.274683 0.116773
v 0.474983 -0.267567 0.157276
v 0.476053 -0.269494 0.149163
v 0.467515 -0.25084 0.214196
v 0.464259 -0.264874 0.203115
v 0.335232 -0.420484 0.189019
v 0.341015 -0.414159 0.194291
v 0.34805 -0.406326 0.200842
v 0.352536 -0.40136 0.204756
v 0.344089 -0.404473 0.213264
v 0.328811 -0.414134 0.218899
v 0.315401 -0.400965 0.265748
v 0.358956 -0.422609 0.116773
v 0.340514 -0.425944 0.156361
v 0.319021 -0.391724 0.278013
v 0.450462 -0.272608 0.224471
v 0.426077 -0.2796 0.267137
v 0.415148 -0.287902 0.278013
v 0.441673 -0.28637 0.224976
v 0.449961 -0.278809 0.217321
v 0.454492 -0.274535 0.213264
v 0.451851 -0.281848 0.209192
v 0.46961 -0.262082 0.188924
v 0.474027 -0.265788 0.164553
v 0.474801 -0.279501 0.132273
v 0.475029 -0.285974 0.116773
v 0.461664 -0.271323 0.199058
v 0.350327 -0.411762 0.176739
v 0.354038 -0.40267 0.196659
v 0.350168 -0.399285 0.213264
v 0.365058 -0.389451 0.20553
v 0.356907 -0.393182 0.213264
v 0.335232 -0.39879 0.238441
v 0.341698 -0.390365 0.244439
v 0.323256 -0.396295 0.262402
v 0.373255 -0.410032 0.116773
v 0.366606 -0.415221 0.119945
v 0.354152 -0.414949 0.155571
v 0.352103 -0.413245 0.166905
v 0.331065 -0.3916 0.25904
v 0.326511 -0.386511 0.276103
v 0.3353 -0.377937 0.278013
v 0.439305 -0.293387 0.220588
v 0.427238 -0.29351 0.245165
v 0.406246 -0.300379 0.278013
v 0.424734 -0.302183 0.237652
v 0.447297 -0.286123 0.213264
v 0.441013 -0.295882 0.213264
v 0.43844 -0.304283 0.206193
v 0.451304 -0.287037 0.201079
v 0.473981 -0.283578 0.126133
v 0.459842 -0.309892 0.116773
v 0.46451 -0.302109 0.118635
v 0.462256 -0.278957 0.179675
v 0.450485 -0.291855 0.193439
v 0.454515 -0.287235 0.189193
v 0.361438 -0.398222 0.188924
v 0.366493 -0.390785 0.197416
v 0.369703 -0.405956 0.140181
v 0.377535 -0.377468 0.206303
v 0.363009 -0.387474 0.213264
v 0.354585 -0.391032 0.221251
v 0.341311 -0.377838 0.268163
v 0.385868 -0.398247 0.116773
v 0.344863 -0.369166 0.278013
v 0.429083 -0.29608 0.237652
v 0.436778 -0.301985 0.213264
v 0.399507 -0.309348 0.278013
v 0.404106 -0.307273 0.272046
v 0.413259 -0.315426 0.241566
v 0.425417 -0.315327 0.217037
v 0.43753 -0.308162 0.199895
v 0.440945 -0.307816 0.188924
v 0.450075 -0.303443 0.167662
v 0.44757 -0.298057 0.189193
v 0.442926 -0.299588 0.20171
v 0.427375 -0.318045 0.208908
v 0.428695 -0.319874 0.201079
v 0.451714 -0.305864 0.15595
v 0.451782 -0.318119 0.124933
v 0.450894 -0.322616 0.116773
v 0.373733 -0.398321 0.152367
v 0.377376 -0.38955 0.169241
v 0.374029 -0.386412 0.188924
v 0.3756 -0.37554 0.213264
v 0.369498 -0.381396 0.213264
v 0.378878 -0.378827 0.198174
v 0.38646 -0.374008 0.188924
v 0.384183 -0.371958 0.201852
v 0.389443 -0.365015 0.20553
v 0.3932 -0.356837 0.213264
v 0.381451 -0.369462 0.213264
v 0.364671 -0.376875 0.229854
v 0.359229 -0.371389 0.249253
v 0.392152 -0.392144 0.116773
v 0.3909 -0.390884 0.124744
v 0.38958 -0.389574 0.132857
v 0.351579 -0.362841 0.278013
v 0.430358 -0.311078 0.213091
v 0.369202 -0.344878 0.278013
v 0.377854 -0.335538 0.277902
v 0.386551 -0.32652 0.276103
v 0.392221 -0.319602 0.276103
v 0.400964 -0.315401 0.265748
v 0.415285 -0.318095 0.233453
v 0.436573 -0.313919 0.188924
v 0.439989 -0.313524 0.177986
v 0.420795 -0.323432 0.213911
v 0.413691 -0.333339 0.212491
v 0.418063 -0.333611 0.201079
v 0.424165 -0.325976 0.201079
v 0.427261 -0.327558 0.186904
v 0.447889 -0.312659 0.152367
v 0.440262 -0.336996 0.117183
v 0.43293 -0.34641 0.116773
v 0.437939 -0.327978 0.1488
v 0.440899 -0.332005 0.127996
v 0.366584 -0.366547 0.245418
v 0.410071 -0.373168 0.116773
v 0.402671 -0.354045 0.196659
v 0.397594 -0.386486 0.116773
v 0.402831 -0.378481 0.123939
v 0.401351 -0.352537 0.204756
v 0.399302 -0.350165 0.213264
v 0.391014 -0.354588 0.221251
v 0.378514 -0.354193 0.244944
v 0.367768 -0.3557 0.262023
v 0.364284 -0.364224 0.253547
v 0.357317 -0.357257 0.278013
v 0.363055 -0.351771 0.277381
v 0.378719 -0.342209 0.265101
v 0.390354 -0.341691 0.244439
v 0.402671 -0.341864 0.22032
v 0.414124 -0.328818 0.218899
v 0.403058 -0.317971 0.257619
v 0.40447 -0.344087 0.213264
v 0.413623 -0.340381 0.197685
v 0.425713 -0.352439 0.124413
v 0.422525 -0.359011 0.116773
v 0.415217 -0.366571 0.119945
v 0.414465 -0.3536 0.158791
v 0.406314 -0.348041 0.200842
f 1 2 3
f 1 3 4
f 1 4 8
f 1 8 12
f 1 12 5
f 1 5 2
f 2 6 3
f 2 5 15
f 2 15 31
f 2 31 44
f 2 44 66
f 2 66 97
f 2 97 122
f 2 122 148
f 2 148 177
f 2 177 211
f 2 211 235
f 2 235 215
f 2 215 217
f 2 217 191
f 2 191 160
f 2 160 132
f 2 132 109
f 2 109 82
f 2 82 51
f 2 51 35
f 2 35 20
f 2 20 9
f 2 9 6
f 3 6 4
f 4 7 8
f 4 6 9
f 4 9 10
f 4 10 11
f 4 11 7
f 5 12 13
f 5 13 14
f 5 14 15
f 7 16 17
f 7 17 8
f 7 11 18
f 7 18 16
f 8 17 19
f 8 19 12
f 9 20 21
f 9 21 22
f 9 22 11
f 9 11 10
f 11 23 24
f 11 24 25
f 11 25 26
f 11 26 18
f 11 22 21
f 11 21 23
f 12 27 28
f 12 28 13
f 12 19 29
f 12 29 27
f 13 28 14
f 14 30 41
f 14 41 45
f 14 45 31
f 14 31 15
f 14 28 40
f 14 40 57
f 14 57 87
f 14 87 111
f 14 111 138
f 14 138 161
f 14 161 194
f 14 194 225
f 14 225 196
f 14 196 164
f 14 164 141
f 14 141 114
f 14 114 90
f 14 90 61
f 14 61 42
f 14 42 30
f 16 32 33
f 16 33 19
f 16 19 17
f 16 18 34
f 16 34 32
f 18 26 34
f 19 33 29
f 20 35 23
f 20 23 21
f 23 36 37
f 23 37 38
f 23 38 24
f 23 35 36
f 24 26 25
f 24 38 26
f 26 38 34
f 27 29 39
f 27 39 40
f 27 40 28
f 29 33 39
f 30 42 41
f 31 43 44
f 31 45 46
f 31 46 47
f 31 47 43
f 32 34 48
f 32 48 39
f 32 39 33
f 34 38 49
f 34 49 50
f 34 50 48
f 35 51 52
f 35 52 53
f 35 53 36
f 36 53 54
f 36 54 37
f 37 54 38
f 38 54 49
f 39 48 55
f 39 55 40
f 40 56 57
f 40 55 56
f 41 42 58
f 41 58 59
f 41 59 60
f 41 60 45
f 42 61 62
f 42 62 63
f 42 63 58
f 43 47 46
f 43 46 64
f 43 64 44
f 44 64 65
f 44 65 66
f 45 60 67
f 45 67 68
f 45 68 46
f 46 68 69
f 46 69 64
f 48 50 70
f 48 70 71
f 48 71 55
f 49 72 73
f 49 73 50
f 49 54 72
f 50 74 70
f 50 73 75
f 50 75 76
f 50 76 77
f 50 77 78
f 50 78 74
f 51 79 80
f 51 80 81
f 51 81 52
f 51 82 83
f 51 83 79
f 52 81 53
f 53 81 54
f 54 81 84
f 54 84 72
f 55 71 56
f 56 85 57
f 56 71 74
f 56 74 85
f 57 85 86
f 57 86 87
f 58 63 88
f 58 88 59
f 59 88 67
f 59 67 60
f 61 89 62
f 61 90 91
f 61 91 89
f 62 89 92
f 62 92 93
f 62 93 94
f 62 94 63
f 63 94 88
f 64 95 96
f 64 96 65
f 64 69 68
f 64 68 95
f 65 96 66
f 66 96 98
f 66 98 99
f 66 99 97
f 67 88 100
f 67 100 93
f 67 93 101
f 67 101 68
f 68 101 95
f 70 74 71
f 72 84 73
f 73 84 75
f 74 78 85
f 75 84 102
f 75 102 103
f 75 103 104
f 75 104 105
f 75 105 76
f 76 105 106
f 76 106 107
f 76 107 77
f 77 107 78
f 78 107 108
f 78 108 87
f 78 87 85
f 79 83 84
f 79 84 80
f 80 84 81
f 82 109 110
f 82 110 84
f 82 84 83
f 84 110 102
f 85 87 86
f 87 108 111
f 88 94 100
f 89 91 112
f 89 112 92
f 90 113 91
f 90 114 113
f 91 113 115
f 91 115 116
f 91 116 112
f 92 112 117
f 92 117 93
f 93 100 94
f 93 117 118
f 93 118 101
f 95 119 96
f 95 101 119
f 96 119 120
f 96 120 98
f 97 99 121
f 97 121 122
f 98 120 119
f 98 119 101
f 98 101 123
f 98 123 99
f 99 123 121
f 101 118 123
f 102 110 103
f 103 124 125
f 103 125 104
f 103 110 124
f 104 125 105
f 105 126 106
f 105 125 127
f 105 127 128
f 105 128 126
f 106 129 107
f 106 126 130
f 106 130 129
f 107 129 131
f 107 131 111
f 107 111 108
f 109 132 133
f 109 133 125
f 109 125 134
f 109 134 135
f 109 135 110
f 110 135 124
f 111 136 137
f 111 137 138
f 111 131 136
f 112 116 117
f 113 114 139
f 113 139 115
f 114 140 139
f 114 141 142
f 114 142 140
f 115 139 143
f 115 143 116
f 116 143 118
f 116 118 117
f 118 143 144
f 118 144 145
f 118 145 146
f 118 146 123
f 121 123 147
f 121 147 122
f 122 147 149
f 122 149 148
f 123 150 147
f 123 146 151
f 123 151 152
f 123 152 150
f 124 135 125
f 125 153 154
f 125 154 127
f 125 135 134
f 125 133 155
f 125 155 153
f 126 128 130
f 127 154 156
f 127 156 128
f 128 156 157
f 128 157 158
f 128 158 130
f 129 130 136
f 129 136 131
f 130 137 136
f 130 158 159
f 130 159 138
f 130 138 137
f 132 160 155
f 132 155 133
f 138 159 161
f 139 140 162
f 139 162 163
f 139 163 144
f 139 144 143
f 140 142 162
f 141 164 165
f 141 165 166
f 141 166 167
f 141 167 142
f 142 163 162
f 142 167 163
f 144 163 145
f 145 168 169
f 145 169 170
f 145 170 171
f 145 171 172
f 145 172 146
f 145 163 173
f 145 173 174
f 145 174 168
f 146 172 151
f 147 150 149
f 148 149 175
f 148 175 176
f 148 176 177
f 149 170 175
f 149 150 151
f 149 151 170
f 150 152 151
f 151 172 171
f 151 171 170
f 153 155 178
f 153 178 179
f 153 179 154
f 154 179 180
f 154 180 156
f 155 160 178
f 156 181 182
f 156 182 157
f 156 180 183
f 156 183 184
f 156 184 185
f 156 185 186
f 156 186 187
f 156 187 188
f 156 188 181
f 157 182 158
f 158 182 189
f 158 189 190
f 158 190 161
f 158 161 159
f 160 191 192
f 160 192 193
f 160 193 179
f 160 179 178
f 161 190 194
f 163 167 195
f 163 195 173
f 164 196 197
f 164 197 198
f 164 198 199
f 164 199 200
f 164 200 201
f 164 201 166
f 164 166 165
f 166 201 167
f 167 201 173
f 167 173 195
f 168 174 202
f 168 202 169
f 169 202 203
f 169 203 175
f 169 175 170
f 173 201 204
f 173 204 205
f 173 205 206
f 173 206 207
f 173 207 174
f 174 207 208
f 174 208 202
f 175 203 209
f 175 209 177
f 175 177 176
f 177 210 211
f 177 209 203
f 177 203 212
f 177 212 213
f 177 213 210
f 179 193 183
f 179 183 180
f 181 188 214
f 181 214 182
f 182 214 189
f 183 193 184
f 184 215 216
f 184 216 185
f 184 193 217
f 184 217 218
f 184 218 215
f 185 216 186
f 186 216 219
f 186 219 187
f 187 219 220
f 187 220 221
f 187 221 188
f 188 221 222
f 188 222 223
f 188 223 214
f 189 214 190
f 190 214 194
f 191 217 192
f 192 217 193
f 194 214 224
f 194 224 225
f 196 225 226
f 196 226 223
f 196 223 222
f 196 222 227
f 196 227 197
f 197 227 228
f 197 228 198
f 198 228 229
f 198 229 230
f 198 230 199
f 199 230 231
f 199 231 200
f 200 231 201
f 201 231 230
f 201 230 204
f 202 208 212
f 202 212 203
f 204 230 205
f 205 230 232
f 205 232 219
f 205 219 206
f 206 219 233
f 206 233 208
f 206 208 207
f 208 233 211
f 208 211 210
f 208 210 212
f 210 213 212
f 211 233 234
f 211 234 235
f 214 223 226
f 214 226 224
f 215 218 217
f 215 235 236
f 215 236 216
f 216 236 237
f 216 237 233
f 216 233 238
f 216 238 219
f 219 238 233
f 219 232 220
f 220 232 228
f 220 228 221
f 221 228 227
f 221 227 222
f 224 226 225
f 228 232 229
f 229 232 230
f 233 237 234
f 234 237 235
f 235 237 236
