v 0.29706 -0.430755 -0.257161
v 0.29953 -0.425752 -0.263831
v 0.304337 -0.426301 -0.255677
v 0.296875 -0.366187 -0.255677
v 0.296875 -0.405112 -0.309788
v 0.298001 -0.409252 -0.299735
v 0.311126 -0.419885 -0.258841
v 0.307294 -0.416217 -0.271937
v 0.318453 -0.415569 -0.256772
v 0.325192 -0.410684 -0.255677
v 0.411338 -0.23034 -0.255677
v 0.296875 -0.23034 -0.431813
v 0.296875 -0.397755 -0.324612
v 0.303563 -0.401345 -0.307719
v 0.32042 -0.405053 -0.274249
v 0.311059 -0.387062 -0.324101
v 0.335242 -0.398794 -0.262857
v 0.33541 -0.402326 -0.255677
v 0.468562 -0.234205 -0.255677
v 0.463167 -0.23087 -0.271791
v 0.449756 -0.23034 -0.302194
v 0.296875 -0.23034 -0.504352
v 0.300085 -0.39079 -0.332718
v 0.296875 -0.3696 -0.365604
v 0.29711 -0.383059 -0.347421
v 0.320201 -0.392693 -0.29864
v 0.32652 -0.40007 -0.274249
v 0.328352 -0.377174 -0.315728
v 0.310521 -0.381333 -0.334592
v 0.318806 -0.379371 -0.32656
v 0.341696 -0.390358 -0.268845
v 0.345342 -0.393948 -0.255677
v 0.452311 -0.264263 -0.255677
v 0.461604 -0.247409 -0.255823
v 0.45179 -0.233185 -0.294404
v 0.43816 -0.23038 -0.327874
v 0.433925 -0.23034 -0.335566
v 0.303799 -0.23034 -0.497706
v 0.315529 -0.246762 -0.473998
v 0.296875 -0.238581 -0.498047
v 0.306286 -0.379077 -0.342966
v 0.296875 -0.346685 -0.395593
v 0.297295 -0.355867 -0.383203
v 0.298051 -0.362851 -0.373247
v 0.297967 -0.37374 -0.358983
v 0.326066 -0.375212 -0.322981
v 0.332873 -0.36911 -0.322981
v 0.322503 -0.371307 -0.334617
v 0.314403 -0.375761 -0.338219
v 0.330419 -0.366854 -0.330941
v 0.341309 -0.377841 -0.292579
v 0.354081 -0.386022 -0.255677
v 0.441353 -0.282136 -0.255677
v 0.444395 -0.27472 -0.259036
v 0.439269 -0.256827 -0.293674
v 0.451117 -0.256278 -0.268529
v 0.436177 -0.237855 -0.32342
v 0.427573 -0.252059 -0.324758
v 0.425472 -0.247998 -0.333375
v 0.427791 -0.239777 -0.337465
v 0.428043 -0.232008 -0.343769
v 0.41396 -0.230772 -0.365945
v 0.389491 -0.230674 -0.402141
v 0.363812 -0.23034 -0.436852
v 0.316016 -0.23034 -0.48556
v 0.32899 -0.243643 -0.463044
v 0.342334 -0.257376 -0.439797
v 0.303076 -0.246625 -0.485949
v 0.3301 -0.257219 -0.45192
v 0.331074 -0.270561 -0.440601
v 0.314386 -0.265106 -0.460756
v 0.296875 -0.248292 -0.490501
v 0.310941 -0.371817 -0.347518
v 0.319226 -0.367619 -0.343915
v 0.296875 -0.33815 -0.406595
v 0.304891 -0.353591 -0.378067
v 0.338956 -0.36344 -0.322981
v 0.343292 -0.367501 -0.308157
v 0.327344 -0.364028 -0.339096
v 0.342889 -0.354925 -0.331306
v 0.34546 -0.357358 -0.322981
v 0.335125 -0.359477 -0.335225
v 0.346368 -0.370778 -0.296887
v 0.354182 -0.378469 -0.269381
v 0.364249 -0.376487 -0.255677
v 0.359224 -0.371405 -0.273689
v 0.436849 -0.289278 -0.255677
v 0.426094 -0.279605 -0.291556
v 0.424817 -0.265361 -0.313196
v 0.438664 -0.26803 -0.28014
v 0.43737 -0.25355 -0.30178
v 0.437807 -0.242034 -0.314851
v 0.425001 -0.259417 -0.320693
v 0.415607 -0.27009 -0.326414
v 0.414515 -0.263105 -0.336199
v 0.414868 -0.256768 -0.341992
v 0.416599 -0.248861 -0.346617
v 0.422665 -0.237717 -0.347153
v 0.402415 -0.23193 -0.382181
v 0.414582 -0.244113 -0.353798
v 0.377424 -0.231694 -0.418742
v 0.368618 -0.232695 -0.429817
v 0.360652 -0.239346 -0.433882
v 0.356064 -0.23552 -0.441453
v 0.352687 -0.23034 -0.448463
v 0.328201 -0.23034 -0.473389
v 0.345057 -0.249882 -0.442524
v 0.352266 -0.246762 -0.437485
v 0.346788 -0.261261 -0.432081
v 0.339192 -0.265499 -0.43673
v 0.327713 -0.278683 -0.437436
v 0.306269 -0.269894 -0.464577
v 0.296875 -0.260182 -0.481057
v 0.315596 -0.364499 -0.352045
v 0.316605 -0.353179 -0.365336
v 0.32373 -0.360183 -0.3482
v 0.296875 -0.333304 -0.412827
v 0.305849 -0.34229 -0.391333
v 0.339864 -0.3521 -0.339436
v 0.33173 -0.355886 -0.344378
v 0.34751 -0.347469 -0.335396
v 0.354972 -0.342859 -0.331306
v 0.352468 -0.352433 -0.31989
v 0.37045 -0.370424 -0.255677
v 0.366568 -0.36654 -0.269819
v 0.426296 -0.304346 -0.255677
v 0.43011 -0.296831 -0.258865
v 0.42727 -0.293496 -0.269576
v 0.413254 -0.278683 -0.319647
v 0.403541 -0.288826 -0.324807
v 0.401406 -0.284765 -0.333862
v 0.408145 -0.274033 -0.334958
v 0.401423 -0.279252 -0.340118
v 0.401625 -0.272974 -0.346082
v 0.408145 -0.26183 -0.347202
v 0.40786 -0.249214 -0.358959
v 0.372013 -0.23809 -0.420811
v 0.36524 -0.243172 -0.42602
v 0.340452 -0.23034 -0.461048
v 0.356787 -0.249882 -0.430207
v 0.354233 -0.257043 -0.427456
v 0.343124 -0.270443 -0.4286
v 0.335444 -0.274563 -0.43303
v 0.331696 -0.283451 -0.429306
v 0.323898 -0.287453 -0.433566
v 0.315916 -0.291475 -0.43785
v 0.319579 -0.283353 -0.441258
v 0.297043 -0.274916 -0.468715
v 0.296875 -0.29689 -0.450191
v 0.317479 -0.34178 -0.378529
v 0.297564 -0.326516 -0.42064
v 0.296875 -0.319649 -0.42916
v 0.352132 -0.339818 -0.339436
v 0.336217 -0.348313 -0.348565
v 0.340704 -0.340661 -0.352824
v 0.343998 -0.343977 -0.344694
v 0.31484 -0.327163 -0.39978
v 0.35951 -0.335109 -0.335225
v 0.366887 -0.33042 -0.330941
v 0.357392 -0.345429 -0.322981
v 0.366854 -0.354709 -0.289755
v 0.376433 -0.362459 -0.258865
v 0.388298 -0.351609 -0.255677
v 0.410683 -0.325201 -0.255677
v 0.415557 -0.318452 -0.256772
v 0.419893 -0.311134 -0.258841
v 0.403053 -0.293731 -0.318649
v 0.41154 -0.286649 -0.311663
v 0.396516 -0.299146 -0.32376
v 0.388869 -0.303267 -0.332061
v 0.391424 -0.294457 -0.338487
v 0.392415 -0.285511 -0.346471
v 0.383374 -0.273484 -0.371008
v 0.390331 -0.268638 -0.366115
v 0.401389 -0.266911 -0.352362
v 0.390197 -0.256278 -0.37814
v 0.363224 -0.250784 -0.421371
v 0.353947 -0.263321 -0.421736
v 0.354266 -0.269187 -0.41548
v 0.347073 -0.273876 -0.420032
v 0.33983 -0.278565 -0.424633
v 0.328234 -0.291573 -0.425509
v 0.3201 -0.295948 -0.42972
v 0.303916 -0.303914 -0.438069
v 0.307782 -0.295811 -0.441501
v 0.303261 -0.290985 -0.449632
v 0.312034 -0.299931 -0.433882
v 0.297379 -0.288768 -0.456715
v 0.296875 -0.307132 -0.441088
v 0.31121 -0.323357 -0.408737
v 0.304068 -0.316294 -0.425825
v 0.298404 -0.312743 -0.434613
v 0.364047 -0.32734 -0.339096
v 0.35593 -0.331695 -0.344378
v 0.329881 -0.32989 -0.378846
v 0.341275 -0.329106 -0.365653
v 0.371341 -0.322513 -0.334617
v 0.378466 -0.317667 -0.330114
v 0.37524 -0.326064 -0.322981
v 0.377206 -0.32836 -0.315728
v 0.369156 -0.332814 -0.322981
v 0.3644 -0.339916 -0.319647
v 0.3805 -0.356279 -0.262054
v 0.393945 -0.345311 -0.255677
v 0.378702 -0.342172 -0.289512
v 0.390348 -0.341642 -0.268845
v 0.400079 -0.338131 -0.255677
v 0.404263 -0.331892 -0.257502
v 0.400079 -0.326516 -0.274249
v 0.405053 -0.320434 -0.274249
v 0.387071 -0.311055 -0.324101
v 0.413254 -0.315431 -0.265973
v 0.401339 -0.303561 -0.307719
v 0.381374 -0.310526 -0.334592
v 0.379122 -0.306288 -0.342966
v 0.383273 -0.297773 -0.346447
v 0.379307 -0.294379 -0.355478
v 0.365324 -0.2799 -0.389556
v 0.365291 -0.255473 -0.413874
v 0.35104 -0.277329 -0.411172
v 0.368165 -0.295576 -0.368987
v 0.342922 -0.282332 -0.416502
v 0.353628 -0.304875 -0.378067
v 0.335629 -0.286963 -0.420981
v 0.316285 -0.304071 -0.425825
v 0.364551 -0.315607 -0.352045
v 0.353207 -0.316627 -0.365336
v 0.330974 -0.30672 -0.404502
v 0.308168 -0.308171 -0.429939
v 0.315697 -0.315686 -0.412949
v 0.360232 -0.323749 -0.3482
v 0.36766 -0.319237 -0.343915
v 0.319562 -0.307563 -0.417695
v 0.375794 -0.31441 -0.338219
v 0.380349 -0.319982 -0.322981
v 0.389508 -0.328517 -0.291605
v 0.372114 -0.299048 -0.36003
f 1 2 3
f 1 3 4
f 1 4 5
f 1 5 6
f 1 6 2
f 2 7 3
f 2 6 8
f 2 8 7
f 3 7 9
f 3 9 10
f 3 10 18
f 3 18 32
f 3 32 52
f 3 52 85
f 3 85 124
f 3 124 163
f 3 163 204
f 3 204 207
f 3 207 164
f 3 164 126
f 3 126 87
f 3 87 53
f 3 53 33
f 3 33 19
f 3 19 11
f 3 11 4
f 4 11 12
f 4 12 22
f 4 22 40
f 4 40 72
f 4 72 113
f 4 113 149
f 4 149 189
f 4 189 152
f 4 152 117
f 4 117 75
f 4 75 42
f 4 42 24
f 4 24 13
f 4 13 5
f 5 13 14
f 5 14 6
f 6 14 8
f 7 8 14
f 7 14 9
f 9 15 10
f 9 14 16
f 9 16 15
f 10 15 17
f 10 17 18
f 11 19 20
f 11 20 21
f 11 21 37
f 11 37 64
f 11 64 105
f 11 105 139
f 11 139 106
f 11 106 65
f 11 65 38
f 11 38 22
f 11 22 12
f 13 23 16
f 13 16 14
f 13 24 25
f 13 25 23
f 15 26 27
f 15 27 17
f 15 16 26
f 16 28 26
f 16 23 29
f 16 29 30
f 16 30 28
f 17 27 26
f 17 26 28
f 17 28 31
f 17 31 18
f 18 31 32
f 19 33 34
f 19 34 20
f 20 35 21
f 20 34 35
f 21 35 36
f 21 36 37
f 22 38 39
f 22 39 40
f 23 25 41
f 23 41 29
f 24 42 43
f 24 43 44
f 24 44 45
f 24 45 25
f 25 45 41
f 28 30 46
f 28 46 47
f 28 47 31
f 29 48 30
f 29 41 49
f 29 49 48
f 30 48 50
f 30 50 46
f 31 51 52
f 31 52 32
f 31 47 51
f 33 53 54
f 33 54 55
f 33 55 56
f 33 56 34
f 34 56 35
f 35 56 57
f 35 57 36
f 36 57 58
f 36 58 59
f 36 59 60
f 36 60 37
f 37 60 61
f 37 61 62
f 37 62 63
f 37 63 64
f 38 65 66
f 38 66 67
f 38 67 39
f 39 68 40
f 39 67 69
f 39 69 70
f 39 70 71
f 39 71 68
f 40 68 72
f 41 45 73
f 41 73 74
f 41 74 49
f 42 75 76
f 42 76 43
f 43 76 44
f 44 76 73
f 44 73 45
f 46 50 47
f 47 77 78
f 47 78 51
f 47 50 77
f 48 49 79
f 48 79 50
f 49 74 79
f 50 80 81
f 50 81 77
f 50 79 82
f 50 82 80
f 51 83 84
f 51 84 52
f 51 78 83
f 52 84 86
f 52 86 85
f 53 87 88
f 53 88 89
f 53 89 90
f 53 90 54
f 54 90 55
f 55 91 92
f 55 92 56
f 55 90 93
f 55 93 58
f 55 58 91
f 56 92 57
f 57 92 58
f 58 93 94
f 58 94 59
f 58 92 91
f 59 95 96
f 59 96 60
f 59 94 95
f 60 96 97
f 60 97 98
f 60 98 61
f 61 98 62
f 62 98 99
f 62 99 63
f 63 99 100
f 63 100 101
f 63 101 64
f 64 101 102
f 64 102 103
f 64 103 104
f 64 104 105
f 65 106 107
f 65 107 66
f 66 107 67
f 67 107 108
f 67 108 109
f 67 109 110
f 67 110 69
f 68 71 72
f 69 110 70
f 70 110 111
f 70 111 71
f 71 112 72
f 71 111 112
f 72 112 113
f 73 114 74
f 73 76 114
f 74 114 115
f 74 115 116
f 74 116 79
f 75 117 76
f 76 117 118
f 76 118 115
f 76 115 114
f 77 81 78
f 78 81 86
f 78 86 83
f 79 119 82
f 79 116 120
f 79 120 119
f 80 82 119
f 80 119 121
f 80 121 122
f 80 122 123
f 80 123 81
f 81 123 86
f 83 86 84
f 85 86 125
f 85 125 124
f 86 123 125
f 87 126 127
f 87 127 128
f 87 128 129
f 87 129 88
f 88 129 94
f 88 94 89
f 89 94 93
f 89 93 90
f 94 129 130
f 94 130 131
f 94 131 132
f 94 132 95
f 95 133 96
f 95 132 133
f 96 133 134
f 96 134 135
f 96 135 97
f 97 135 136
f 97 136 100
f 97 100 98
f 98 100 99
f 100 136 101
f 101 137 138
f 101 138 102
f 101 136 135
f 101 135 137
f 102 138 103
f 103 138 108
f 103 108 104
f 104 108 139
f 104 139 105
f 106 139 108
f 106 108 107
f 108 138 140
f 108 140 141
f 108 141 109
f 109 141 142
f 109 142 110
f 110 142 143
f 110 143 111
f 111 143 144
f 111 144 145
f 111 145 146
f 111 146 147
f 111 147 112
f 112 148 113
f 112 147 146
f 112 146 148
f 113 148 149
f 115 150 120
f 115 120 116
f 115 118 151
f 115 151 150
f 117 152 151
f 117 151 118
f 119 153 121
f 119 120 154
f 119 154 155
f 119 155 156
f 119 156 153
f 120 150 157
f 120 157 154
f 121 153 122
f 122 153 158
f 122 158 159
f 122 159 160
f 122 160 123
f 123 160 161
f 123 161 125
f 124 162 163
f 124 125 162
f 125 161 162
f 126 164 165
f 126 165 166
f 126 166 128
f 126 128 127
f 128 166 167
f 128 167 168
f 128 168 129
f 129 168 130
f 130 168 167
f 130 167 169
f 130 169 170
f 130 170 131
f 131 170 171
f 131 171 133
f 131 133 132
f 133 171 172
f 133 172 134
f 134 172 173
f 134 173 174
f 134 174 175
f 134 175 135
f 135 175 176
f 135 176 138
f 135 138 137
f 138 141 140
f 138 176 175
f 138 175 174
f 138 174 177
f 138 177 141
f 141 177 178
f 141 178 142
f 142 144 143
f 142 178 179
f 142 179 180
f 142 180 181
f 142 181 144
f 144 181 182
f 144 182 145
f 145 182 183
f 145 183 146
f 146 184 185
f 146 185 186
f 146 186 148
f 146 183 187
f 146 187 184
f 148 186 188
f 148 188 149
f 149 184 189
f 149 188 184
f 150 190 157
f 150 151 191
f 150 191 190
f 151 152 191
f 152 189 192
f 152 192 191
f 153 193 158
f 153 156 155
f 153 155 194
f 153 194 193
f 154 157 195
f 154 195 155
f 155 195 196
f 155 196 194
f 157 190 195
f 158 193 159
f 159 193 197
f 159 197 198
f 159 198 199
f 159 199 200
f 159 200 201
f 159 201 160
f 160 201 202
f 160 202 161
f 161 203 162
f 161 202 203
f 162 203 163
f 163 203 205
f 163 205 206
f 163 206 204
f 164 207 208
f 164 208 209
f 164 209 210
f 164 210 165
f 165 210 211
f 165 211 212
f 165 212 166
f 166 212 213
f 166 213 167
f 167 213 169
f 169 211 170
f 169 213 211
f 170 198 214
f 170 214 215
f 170 215 171
f 170 211 198
f 171 215 216
f 171 216 172
f 172 216 217
f 172 217 218
f 172 218 173
f 173 218 179
f 173 179 219
f 173 219 177
f 173 177 174
f 177 219 178
f 178 219 179
f 179 218 220
f 179 220 180
f 180 220 181
f 181 220 221
f 181 221 222
f 181 222 223
f 181 223 224
f 181 224 182
f 182 225 183
f 182 224 223
f 182 223 226
f 182 226 227
f 182 227 228
f 182 228 225
f 183 229 187
f 183 225 229
f 184 188 186
f 184 186 185
f 184 187 229
f 184 229 192
f 184 192 189
f 190 191 195
f 191 192 229
f 191 229 225
f 191 225 230
f 191 230 195
f 193 194 231
f 193 231 232
f 193 232 197
f 194 196 227
f 194 227 231
f 195 230 225
f 195 225 233
f 195 233 196
f 196 233 228
f 196 228 227
f 197 232 234
f 197 234 198
f 198 234 214
f 198 211 235
f 198 235 200
f 198 200 199
f 200 235 236
f 200 236 207
f 200 207 206
f 200 206 205
f 200 205 201
f 201 205 202
f 202 205 203
f 204 206 207
f 207 236 209
f 207 209 208
f 209 236 235
f 209 235 210
f 210 235 211
f 211 213 212
f 214 234 215
f 215 234 232
f 215 232 226
f 215 226 223
f 215 223 237
f 215 237 217
f 215 217 216
f 217 237 218
f 218 237 221
f 218 221 220
f 221 223 222
f 221 237 223
f 225 228 233
f 226 232 227
f 227 232 231
