v -0.405277 -0.269986 -0.21322
v -0.462998 -0.273683 -0.21322
v -0.475942 -0.269986 -0.172968
v -0.440596 -0.269986 -0.0304271
v -0.213474 -0.437653 -0.21322
v -0.454646 -0.287204 -0.21322
v -0.475167 -0.286212 -0.140142
v -0.473978 -0.283582 -0.15047
v -0.482165 -0.274253 -0.140142
v -0.486479 -0.271003 -0.130442
v -0.48977 -0.269986 -0.115801
v -0.495993 -0.272095 -0.0304092
v -0.480422 -0.298617 -0.0303734
v -0.213474 -0.470576 -0.0303734
v -0.213474 -0.493649 -0.21322
v -0.44101 -0.307772 -0.21322
v -0.44975 -0.295615 -0.211431
v -0.462251 -0.306085 -0.141735
v -0.466787 -0.299485 -0.140536
v -0.46416 -0.294226 -0.162247
v -0.471434 -0.297649 -0.12731
v -0.476301 -0.289065 -0.129135
v -0.485788 -0.27728 -0.115801
v -0.487641 -0.28058 -0.0746533
v -0.487696 -0.286807 -0.0304271
v -0.484764 -0.288097 -0.0548759
v -0.475582 -0.305142 -0.0395014
v -0.474006 -0.308814 -0.0304271
v -0.463772 -0.323948 -0.0303734
v -0.225422 -0.518906 -0.0303734
v -0.214912 -0.523421 -0.0304092
v -0.213474 -0.517913 -0.103791
v -0.213474 -0.498189 -0.195287
v -0.226556 -0.502928 -0.15328
v -0.230262 -0.486876 -0.209838
v -0.237618 -0.48246 -0.21322
v -0.435922 -0.314868 -0.21322
v -0.447897 -0.312684 -0.176708
v -0.451714 -0.305861 -0.180288
v -0.450082 -0.303455 -0.191993
v -0.462915 -0.310625 -0.127954
v -0.451797 -0.318118 -0.14927
v -0.475748 -0.293233 -0.119309
v -0.480312 -0.286435 -0.115801
v -0.481445 -0.286435 -0.103612
v -0.476495 -0.294449 -0.103612
v -0.474891 -0.30405 -0.0548759
v -0.463994 -0.312213 -0.115801
v -0.461228 -0.319284 -0.0934821
v -0.454286 -0.337172 -0.0308924
v -0.440208 -0.355283 -0.0304271
v -0.429118 -0.36873 -0.0303734
v -0.45932 -0.323824 -0.0792352
v -0.263644 -0.500496 -0.0304092
v -0.239333 -0.512579 -0.0304092
v -0.241242 -0.510718 -0.0426873
v -0.237701 -0.508262 -0.0914238
v -0.22343 -0.513695 -0.103612
v -0.222324 -0.513174 -0.115801
v -0.308864 -0.473999 -0.0303734
v -0.213474 -0.516772 -0.116839
v -0.213474 -0.509602 -0.149861
v -0.21505 -0.511512 -0.139516
v -0.225505 -0.506724 -0.140142
v -0.244782 -0.500174 -0.131229
v -0.243731 -0.487471 -0.182686
v -0.250645 -0.475761 -0.21322
v -0.429477 -0.323774 -0.21322
v -0.438438 -0.328687 -0.169567
v -0.450912 -0.32298 -0.140142
v -0.452073 -0.32566 -0.128992
v -0.451327 -0.329654 -0.11922
v -0.472153 -0.299634 -0.115801
v -0.456471 -0.323005 -0.115801
v -0.44704 -0.33603 -0.115801
v -0.44964 -0.343126 -0.0332371
v -0.441564 -0.344813 -0.103612
v -0.440983 -0.344069 -0.115801
v -0.436032 -0.350147 -0.115801
v -0.43523 -0.361362 -0.0304271
v -0.423863 -0.374833 -0.0303734
v -0.428537 -0.368011 -0.0426873
v -0.249815 -0.507592 -0.0304271
v -0.286821 -0.487694 -0.0304092
v -0.274264 -0.494815 -0.0304271
v -0.256647 -0.50005 -0.0792352
v -0.259578 -0.501613 -0.0426873
v -0.25059 -0.5 -0.115801
v -0.237701 -0.506203 -0.115801
v -0.220969 -0.512579 -0.124804
v -0.320839 -0.46601 -0.0303734
v -0.317189 -0.463306 -0.0873967
v -0.316635 -0.462934 -0.0955225
v -0.31221 -0.464001 -0.115801
v -0.299654 -0.472139 -0.115801
v -0.296197 -0.477597 -0.0792352
v -0.298631 -0.480425 -0.0304271
v -0.216212 -0.51305 -0.131283
v -0.237701 -0.504218 -0.127954
v -0.251668 -0.49742 -0.127954
v -0.248211 -0.489828 -0.16452
v -0.260242 -0.489803 -0.140142
v -0.267599 -0.474992 -0.181612
v -0.262068 -0.469633 -0.21322
v -0.420655 -0.335063 -0.21322
v -0.426795 -0.329431 -0.208066
v -0.441951 -0.335609 -0.139265
v -0.446376 -0.334145 -0.127202
v -0.434871 -0.348733 -0.127954
v -0.430888 -0.360717 -0.0799511
v -0.424914 -0.363694 -0.115801
v -0.42732 -0.366597 -0.0670645
v -0.418802 -0.370641 -0.115801
v -0.414321 -0.377786 -0.0969006
v -0.417778 -0.381433 -0.0304271
v -0.412053 -0.387586 -0.0303734
v -0.25543 -0.499405 -0.0941622
v -0.281123 -0.487967 -0.0670645
v -0.279934 -0.487273 -0.082779
v -0.272162 -0.48963 -0.103612
v -0.262068 -0.493971 -0.115801
v -0.324601 -0.459907 -0.0670645
v -0.336825 -0.454548 -0.0303734
v -0.322997 -0.456483 -0.115801
v -0.310634 -0.462934 -0.127954
v -0.293237 -0.475736 -0.119309
v -0.329662 -0.451323 -0.11922
v -0.286434 -0.480351 -0.115801
v -0.294454 -0.47648 -0.103612
v -0.271941 -0.486801 -0.12722
v -0.263174 -0.491118 -0.12892
v -0.267157 -0.48695 -0.136885
v -0.274264 -0.482162 -0.140142
v -0.269507 -0.476059 -0.173487
v -0.281345 -0.47591 -0.148483
v -0.273877 -0.462884 -0.21322
v -0.410753 -0.347121 -0.21322
v -0.415427 -0.354762 -0.176708
v -0.432575 -0.347294 -0.139892
v -0.439379 -0.342059 -0.131283
v -0.428758 -0.356176 -0.127954
v -0.423725 -0.362255 -0.127954
v -0.41764 -0.369326 -0.127954
v -0.413298 -0.376744 -0.115801
v -0.401958 -0.389794 -0.107496
v -0.40406 -0.392027 -0.0670645
v -0.405969 -0.394036 -0.0304271
v -0.400105 -0.400115 -0.0304271
v -0.394104 -0.40592 -0.0303734
v -0.279243 -0.486876 -0.0914238
v -0.274237 -0.487446 -0.115801
v -0.332317 -0.453233 -0.0792352
v -0.34504 -0.44842 -0.0303734
v -0.341002 -0.450703 -0.0393761
v -0.336023 -0.44708 -0.115801
v -0.325679 -0.452092 -0.128992
v -0.322969 -0.450901 -0.140142
v -0.305158 -0.451224 -0.183868
v -0.30607 -0.462264 -0.141735
v -0.299488 -0.466804 -0.140536
v -0.297635 -0.471444 -0.12731
v -0.289061 -0.476307 -0.129135
v -0.33417 -0.44641 -0.127202
v -0.28317 -0.477051 -0.140142
v -0.287623 -0.467375 -0.165594
v -0.278966 -0.462264 -0.204021
v -0.287817 -0.45425 -0.21322
v -0.403811 -0.355407 -0.21322
v -0.415289 -0.366696 -0.143794
v -0.417253 -0.356945 -0.16452
v -0.425052 -0.356797 -0.13889
v -0.425163 -0.351785 -0.152331
v -0.412081 -0.375429 -0.127954
v -0.401516 -0.389323 -0.115801
v -0.395431 -0.395475 -0.115801
v -0.389291 -0.401504 -0.115801
v -0.390204 -0.402373 -0.0993706
v -0.381381 -0.417829 -0.0303734
v -0.37939 -0.415869 -0.0670645
v -0.339978 -0.449983 -0.0548759
v -0.353088 -0.438422 -0.0670645
v -0.347114 -0.438496 -0.115801
v -0.35519 -0.440282 -0.0303734
v -0.332013 -0.440903 -0.152331
v -0.327975 -0.437925 -0.173147
v -0.31091 -0.438769 -0.21322
v -0.303443 -0.450082 -0.191993
v -0.295616 -0.44976 -0.211431
v -0.348746 -0.434849 -0.127954
v -0.34208 -0.439364 -0.131283
v -0.335608 -0.441945 -0.139265
v -0.285466 -0.459213 -0.200405
v -0.40276 -0.366299 -0.184637
v -0.398225 -0.361436 -0.21322
v -0.4102 -0.373394 -0.140142
v -0.404116 -0.37992 -0.140142
v -0.398391 -0.386023 -0.140142
v -0.400271 -0.388008 -0.127954
v -0.394187 -0.394235 -0.127954
v -0.387964 -0.400289 -0.127954
v -0.37538 -0.412073 -0.127954
v -0.37668 -0.413314 -0.115801
v -0.374771 -0.423833 -0.0304271
v -0.368631 -0.429143 -0.0304271
v -0.350903 -0.436635 -0.103612
v -0.365091 -0.426141 -0.0914238
v -0.357541 -0.429937 -0.115801
v -0.36133 -0.435196 -0.0304271
v -0.366529 -0.427332 -0.0670645
v -0.365976 -0.426885 -0.0763536
v -0.329441 -0.426811 -0.208066
v -0.323799 -0.42949 -0.213059
v -0.301535 -0.448792 -0.201068
v -0.335636 -0.420211 -0.21322
v -0.35613 -0.428771 -0.127954
v -0.354913 -0.425644 -0.14204
v -0.349575 -0.423337 -0.16452
v -0.386415 -0.374064 -0.21322
v -0.398308 -0.373742 -0.176708
v -0.389568 -0.38962 -0.157199
v -0.390895 -0.390935 -0.149074
v -0.392306 -0.392349 -0.140142
v -0.385945 -0.398403 -0.140142
v -0.384036 -0.396269 -0.152725
v -0.373333 -0.410188 -0.140142
v -0.36664 -0.415299 -0.143794
v -0.369267 -0.417631 -0.127954
v -0.370595 -0.418822 -0.115801
v -0.363625 -0.4249 -0.115801
v -0.344237 -0.416787 -0.201068
v -0.347114 -0.410758 -0.21322
v -0.362215 -0.423734 -0.127954
v -0.353586 -0.414455 -0.183116
v -0.35212 -0.413239 -0.191242
v -0.380358 -0.380341 -0.21322
v -0.374024 -0.386494 -0.21322
v -0.369655 -0.40597 -0.16452
v -0.371563 -0.408153 -0.151919
v -0.361413 -0.398229 -0.21322
v -0.355356 -0.403812 -0.21322
v -0.367885 -0.392225 -0.21322
f 1 2 3
f 1 3 11
f 1 11 4
f 1 4 5
f 1 5 15
f 1 15 36
f 1 36 67
f 1 67 104
f 1 104 136
f 1 136 167
f 1 167 186
f 1 186 214
f 1 214 231
f 1 231 240
f 1 240 239
f 1 239 241
f 1 241 236
f 1 236 235
f 1 235 218
f 1 218 194
f 1 194 168
f 1 168 137
f 1 137 105
f 1 105 68
f 1 68 37
f 1 37 16
f 1 16 6
f 1 6 2
f 2 6 7
f 2 7 8
f 2 8 3
f 3 8 9
f 3 9 10
f 3 10 11
f 4 11 12
f 4 12 13
f 4 13 14
f 4 14 5
f 5 14 32
f 5 32 61
f 5 61 62
f 5 62 33
f 5 33 15
f 6 16 17
f 6 17 18
f 6 18 19
f 6 19 20
f 6 20 7
f 7 20 19
f 7 19 21
f 7 21 22
f 7 22 9
f 7 9 8
f 9 22 10
f 10 23 11
f 10 22 23
f 11 24 12
f 11 23 24
f 12 24 25
f 12 25 13
f 13 25 26
f 13 26 27
f 13 27 28
f 13 28 29
f 13 29 52
f 13 52 81
f 13 81 116
f 13 116 149
f 13 149 178
f 13 178 183
f 13 183 153
f 13 153 123
f 13 123 91
f 13 91 60
f 13 60 30
f 13 30 14
f 14 30 31
f 14 31 32
f 15 33 34
f 15 34 35
f 15 35 36
f 16 37 38
f 16 38 39
f 16 39 40
f 16 40 17
f 17 40 18
f 18 41 21
f 18 21 19
f 18 40 39
f 18 39 42
f 18 42 41
f 21 41 43
f 21 43 22
f 22 43 23
f 23 43 44
f 23 44 45
f 23 45 24
f 24 45 26
f 24 26 25
f 26 45 46
f 26 46 47
f 26 47 27
f 27 47 48
f 27 48 28
f 28 48 49
f 28 49 29
f 29 50 51
f 29 51 52
f 29 49 53
f 29 53 50
f 30 54 55
f 30 55 56
f 30 56 57
f 30 57 58
f 30 58 59
f 30 59 31
f 30 60 54
f 31 59 32
f 32 59 61
f 33 62 63
f 33 63 64
f 33 64 34
f 34 64 65
f 34 65 35
f 35 65 66
f 35 66 36
f 36 66 67
f 37 68 69
f 37 69 38
f 38 70 42
f 38 42 39
f 38 69 70
f 41 48 43
f 41 42 70
f 41 70 71
f 41 71 72
f 41 72 48
f 43 48 73
f 43 73 44
f 44 73 46
f 44 46 45
f 46 73 47
f 47 73 48
f 48 72 74
f 48 74 49
f 49 74 53
f 50 74 75
f 50 75 76
f 50 76 51
f 50 53 74
f 51 76 77
f 51 77 78
f 51 78 79
f 51 79 80
f 51 80 52
f 52 80 82
f 52 82 81
f 54 83 55
f 54 60 84
f 54 84 85
f 54 85 86
f 54 86 87
f 54 87 83
f 55 83 56
f 56 83 88
f 56 88 89
f 56 89 57
f 57 89 59
f 57 59 58
f 59 90 61
f 59 89 90
f 60 91 92
f 60 92 93
f 60 93 94
f 60 94 95
f 60 95 96
f 60 96 97
f 60 97 84
f 61 90 98
f 61 98 63
f 61 63 62
f 63 98 90
f 63 90 64
f 64 90 99
f 64 99 65
f 65 100 101
f 65 101 66
f 65 99 100
f 66 101 102
f 66 102 103
f 66 103 67
f 67 103 104
f 68 105 106
f 68 106 69
f 69 107 70
f 69 106 107
f 70 107 71
f 71 107 108
f 71 108 72
f 72 108 78
f 72 78 75
f 72 75 74
f 75 78 76
f 76 78 77
f 78 109 79
f 78 108 109
f 79 110 80
f 79 109 111
f 79 111 110
f 80 110 111
f 80 111 112
f 80 112 82
f 81 82 112
f 81 112 111
f 81 111 113
f 81 113 114
f 81 114 115
f 81 115 116
f 83 117 88
f 83 87 86
f 83 86 117
f 84 118 85
f 84 97 118
f 85 118 119
f 85 119 86
f 86 119 120
f 86 120 117
f 88 117 121
f 88 121 100
f 88 100 99
f 88 99 89
f 89 99 90
f 91 122 92
f 91 123 122
f 92 122 124
f 92 124 93
f 93 124 94
f 94 125 126
f 94 126 95
f 94 124 127
f 94 127 125
f 95 126 128
f 95 128 129
f 95 129 96
f 96 129 128
f 96 128 118
f 96 118 97
f 100 121 130
f 100 130 131
f 100 131 102
f 100 102 101
f 102 131 132
f 102 132 103
f 103 133 134
f 103 134 135
f 103 135 136
f 103 136 104
f 103 132 133
f 105 137 138
f 105 138 139
f 105 139 106
f 106 139 140
f 106 140 107
f 107 140 108
f 108 140 109
f 109 139 141
f 109 141 111
f 109 140 139
f 111 142 143
f 111 143 113
f 111 141 142
f 113 143 144
f 113 144 114
f 114 144 145
f 114 145 116
f 114 116 115
f 116 145 146
f 116 146 147
f 116 147 148
f 116 148 149
f 117 120 121
f 118 128 119
f 119 150 151
f 119 151 120
f 119 128 150
f 120 151 121
f 121 151 130
f 122 123 152
f 122 152 124
f 123 153 154
f 123 154 152
f 124 152 155
f 124 155 127
f 125 127 156
f 125 156 157
f 125 157 158
f 125 158 159
f 125 159 160
f 125 160 161
f 125 161 126
f 126 162 130
f 126 130 128
f 126 161 162
f 127 155 163
f 127 163 156
f 128 130 151
f 128 151 150
f 130 162 164
f 130 164 133
f 130 133 132
f 130 132 131
f 133 164 135
f 133 135 134
f 135 164 165
f 135 165 166
f 135 166 136
f 136 166 167
f 137 168 138
f 138 169 170
f 138 170 171
f 138 171 172
f 138 172 139
f 138 168 169
f 139 172 171
f 139 171 141
f 141 171 142
f 142 171 169
f 142 169 143
f 143 169 173
f 143 173 144
f 144 173 174
f 144 174 145
f 145 174 175
f 145 175 148
f 145 148 146
f 146 148 147
f 148 175 176
f 148 176 177
f 148 177 149
f 149 177 179
f 149 179 178
f 152 154 180
f 152 180 155
f 153 181 182
f 153 182 154
f 153 183 181
f 154 182 180
f 155 180 182
f 155 182 163
f 156 163 184
f 156 184 157
f 157 184 185
f 157 185 186
f 157 186 158
f 158 186 187
f 158 187 188
f 158 188 159
f 159 188 160
f 160 188 167
f 160 167 165
f 160 165 164
f 160 164 162
f 160 162 161
f 163 182 189
f 163 189 190
f 163 190 191
f 163 191 184
f 165 167 192
f 165 192 166
f 166 192 167
f 167 188 186
f 168 193 169
f 168 194 193
f 169 171 170
f 169 193 195
f 169 195 173
f 173 195 196
f 173 196 197
f 173 197 198
f 173 198 174
f 174 198 199
f 174 199 175
f 175 199 176
f 176 199 200
f 176 200 201
f 176 201 202
f 176 202 177
f 177 202 179
f 178 179 203
f 178 203 204
f 178 204 183
f 179 202 203
f 181 205 182
f 181 183 206
f 181 206 205
f 182 205 207
f 182 207 189
f 183 204 208
f 183 208 209
f 183 209 210
f 183 210 206
f 184 191 190
f 184 190 211
f 184 211 185
f 185 212 186
f 185 211 212
f 186 188 213
f 186 213 187
f 186 212 214
f 187 213 188
f 189 207 215
f 189 215 190
f 190 215 216
f 190 216 217
f 190 217 211
f 193 196 195
f 193 194 218
f 193 218 219
f 193 219 196
f 196 219 197
f 197 219 218
f 197 218 220
f 197 220 221
f 197 221 198
f 198 221 222
f 198 222 199
f 199 222 200
f 200 223 201
f 200 222 221
f 200 221 223
f 201 223 224
f 201 224 225
f 201 225 226
f 201 226 227
f 201 227 202
f 202 227 228
f 202 228 203
f 203 228 206
f 203 206 210
f 203 210 209
f 203 209 204
f 204 209 208
f 205 206 207
f 206 229 207
f 206 228 229
f 207 229 232
f 207 232 215
f 211 214 212
f 211 217 214
f 214 217 230
f 214 230 231
f 215 232 216
f 216 233 234
f 216 234 217
f 216 232 226
f 216 226 233
f 217 234 230
f 218 235 220
f 220 235 236
f 220 236 224
f 220 224 221
f 221 224 223
f 224 236 237
f 224 237 238
f 224 238 226
f 224 226 225
f 226 238 237
f 226 237 239
f 226 239 240
f 226 240 234
f 226 234 233
f 226 232 227
f 227 232 229
f 227 229 228
f 230 234 231
f 231 234 240
f 236 241 237
f 237 241 239
