v -0.289036 -8.99713e-05 0.514535
v -0.28621 -8.99713e-05 0.516947
v -0.289036 -8.99713e-05 0.566719
v -0.289036 0.189686 0.455086
v -0.128928 0.189686 0.567066
v -0.259804 -8.99713e-05 0.539579
v -0.286822 -8.99713e-05 0.603299
v -0.289036 -3.42432e-05 0.566829
v -0.289036 0.189686 0.508988
v -0.120252 0.189686 0.578918
v -0.228159 -8.99713e-05 0.568342
v -0.233414 -8.99713e-05 0.562243
v -0.239511 -8.99713e-05 0.556994
v -0.249608 -8.99713e-05 0.548326
v -0.256201 -8.99713e-05 0.542668
v -0.283567 -8.99713e-05 0.612693
v -0.286822 0.00609596 0.603299
v -0.289036 0.00609596 0.566829
v -0.289003 0.189686 0.510248
v -0.289036 0.189668 0.510233
v -0.120219 0.189686 0.591101
v -0.224689 -8.99713e-05 0.585096
v -0.224722 -8.99713e-05 0.578918
v -0.278956 -8.99713e-05 0.614348
v -0.283567 0.00609596 0.612693
v -0.289036 0.0426728 0.560856
v -0.289036 0.0304867 0.563409
v -0.289036 0.0182821 0.565426
v -0.283269 0.0182821 0.612535
v -0.286244 0.0182821 0.603299
v -0.289036 0.140143 0.532439
v -0.289036 0.137487 0.533464
v -0.289036 0.132267 0.535465
v -0.289036 0.12883 0.536774
v -0.289036 0.124948 0.538239
v -0.289036 0.115864 0.54136
v -0.289036 0.103455 0.545347
v -0.289036 0.0914172 0.548878
v -0.289036 0.0814974 0.551667
v -0.289036 0.067045 0.555308
v -0.211832 0.189686 0.611542
v -0.244783 0.147908 0.610612
v -0.234108 0.162063 0.611558
v -0.219946 0.183482 0.610061
v -0.289036 0.188906 0.510627
v -0.280328 0.0610077 0.609414
v -0.268694 0.0989964 0.610187
v -0.257193 0.124409 0.61088
v -0.120252 0.189686 0.603299
v -0.224689 -8.99713e-05 0.597294
v -0.274213 -8.99713e-05 0.61605
v -0.274213 0.00609596 0.61605
v -0.274213 0.0182821 0.615892
v -0.274213 0.0304867 0.615561
v -0.28279 0.0304867 0.61222
v -0.281997 0.0426728 0.611526
v -0.285252 0.0304867 0.603299
v -0.289036 0.164961 0.521943
v -0.289036 0.164534 0.522132
v -0.289036 0.154484 0.526561
v -0.289036 0.150694 0.528168
v -0.211155 0.189686 0.611826
v -0.212708 0.188089 0.611794
v -0.246848 0.140143 0.611983
v -0.237958 0.152125 0.612771
v -0.22644 0.165481 0.61337
v -0.22254 0.17672 0.611558
v -0.289036 0.179321 0.515308
v -0.280923 0.0548589 0.610234
v -0.269983 0.0914172 0.611495
v -0.259044 0.115771 0.612188
v -0.122053 0.189686 0.607665
v -0.228159 -8.99713e-05 0.61274
v -0.226457 -8.99713e-05 0.608091
v -0.224705 -8.99713e-05 0.603299
v -0.262035 -8.99713e-05 0.616097
v -0.262035 0.067045 0.616097
v -0.262035 0.0792311 0.615939
v -0.274213 0.0426728 0.614883
v -0.271735 0.0792311 0.612582
v -0.289036 0.176181 0.516789
v -0.201075 0.189686 0.615041
v -0.213287 0.17672 0.614915
v -0.250484 0.128273 0.612961
v -0.237661 0.140143 0.615325
v -0.262035 0.0914172 0.614852
v -0.249839 0.115771 0.61553
v -0.126565 0.189686 0.612251
v -0.232968 -8.99713e-05 0.614442
v -0.249839 -8.99713e-05 0.616097
v -0.249839 0.103585 0.616097
v -0.200331 0.189686 0.615246
v -0.201108 0.188906 0.615246
v -0.225465 0.152348 0.61605
v -0.237661 0.127957 0.616097
v -0.127573 0.189686 0.612535
v -0.237661 -8.99713e-05 0.616081
v -0.237661 0.0182821 0.616097
v -0.188152 0.189686 0.616097
v -0.213287 0.164534 0.616097
v -0.139388 0.189686 0.615183
v -0.151583 0.189686 0.616097
f 1 2 6
f 1 6 15
f 1 15 14
f 1 14 13
f 1 13 12
f 1 12 11
f 1 11 23
f 1 23 22
f 1 22 50
f 1 50 75
f 1 75 74
f 1 74 73
f 1 73 89
f 1 89 97
f 1 97 90
f 1 90 76
f 1 76 51
f 1 51 24
f 1 24 16
f 1 16 7
f 1 7 3
f 1 3 8
f 1 8 18
f 1 18 28
f 1 28 27
f 1 27 26
f 1 26 40
f 1 40 39
f 1 39 38
f 1 38 37
f 1 37 36
f 1 36 35
f 1 35 34
f 1 34 33
f 1 33 32
f 1 32 31
f 1 31 61
f 1 61 60
f 1 60 59
f 1 59 58
f 1 58 81
f 1 81 68
f 1 68 45
f 1 45 20
f 1 20 9
f 1 9 4
f 1 4 5
f 1 5 2
f 2 5 6
f 3 7 8
f 4 9 19
f 4 19 41
f 4 41 62
f 4 62 82
f 4 82 92
f 4 92 99
f 4 99 102
f 4 102 101
f 4 101 96
f 4 96 88
f 4 88 72
f 4 72 49
f 4 49 21
f 4 21 10
f 4 10 5
f 5 10 11
f 5 11 12
f 5 12 13
f 5 13 14
f 5 14 15
f 5 15 6
f 7 16 25
f 7 25 17
f 7 17 18
f 7 18 8
f 9 20 19
f 10 21 22
f 10 22 23
f 10 23 11
f 16 24 25
f 17 26 27
f 17 27 28
f 17 28 18
f 17 25 29
f 17 29 30
f 17 30 31
f 17 31 32
f 17 32 33
f 17 33 34
f 17 34 35
f 17 35 36
f 17 36 37
f 17 37 38
f 17 38 39
f 17 39 40
f 17 40 26
f 19 20 41
f 20 42 43
f 20 43 44
f 20 44 41
f 20 45 46
f 20 46 47
f 20 47 48
f 20 48 42
f 21 49 50
f 21 50 22
f 24 51 52
f 24 52 25
f 25 52 53
f 25 53 29
f 29 53 54
f 29 54 55
f 29 55 30
f 30 55 56
f 30 56 57
f 30 57 58
f 30 58 59
f 30 59 60
f 30 60 61
f 30 61 31
f 41 44 63
f 41 63 62
f 42 64 65
f 42 65 43
f 42 48 64
f 43 65 66
f 43 66 67
f 43 67 44
f 44 67 63
f 45 68 69
f 45 69 46
f 46 69 70
f 46 70 47
f 47 70 71
f 47 71 48
f 48 71 64
f 49 72 73
f 49 73 74
f 49 74 75
f 49 75 50
f 51 76 77
f 51 77 52
f 52 77 78
f 52 78 53
f 53 78 54
f 54 79 55
f 54 78 79
f 55 79 56
f 56 69 68
f 56 68 57
f 56 79 80
f 56 80 69
f 57 68 81
f 57 81 58
f 62 63 83
f 62 83 82
f 63 67 83
f 64 84 85
f 64 85 65
f 64 71 84
f 65 85 83
f 65 83 66
f 66 83 67
f 69 80 70
f 70 80 86
f 70 86 71
f 71 87 84
f 71 86 87
f 72 88 73
f 73 88 89
f 76 90 98
f 76 98 102
f 76 102 99
f 76 99 100
f 76 100 95
f 76 95 91
f 76 91 77
f 77 91 78
f 78 86 80
f 78 80 79
f 78 91 87
f 78 87 86
f 82 83 93
f 82 93 92
f 83 85 94
f 83 94 93
f 84 87 85
f 85 87 94
f 87 91 95
f 87 95 94
f 88 96 97
f 88 97 89
f 90 97 98
f 92 93 100
f 92 100 99
f 93 94 100
f 94 95 100
f 96 101 97
f 97 101 102
f 97 102 98
