v 0.323347 0.367899 0.188976
v 0.323376 0.367916 0.188911
v 0.323376 0.36805 0.188976
v 0.173648 0.457971 0.188976
v 0.173648 0.486752 -0.0303555
v 0.323376 0.403058 -0.0303555
v 0.323376 0.429726 0.188976
v 0.173648 0.508972 0.188976
v 0.173648 0.538442 -0.0303555
v 0.323376 0.464197 -0.0303555
v 0.323244 0.429826 0.188976
v 0.323376 0.429927 0.18831
v 0.176653 0.507949 0.188976
v 0.173648 0.508989 0.188911
v 0.173648 0.53861 -0.02823
v 0.175583 0.537855 -0.0303555
v 0.320928 0.465942 -0.0303555
v 0.323376 0.465304 -0.0182682
v 0.313879 0.436623 0.188911
v 0.31385 0.436606 0.188976
v 0.323376 0.436741 0.164522
v 0.177459 0.507663 0.188976
v 0.177048 0.510584 0.177726
v 0.173648 0.512514 0.174741
v 0.173648 0.511188 0.180109
v 0.173648 0.539349 -0.0188264
v 0.175803 0.537788 -0.0303555
v 0.320782 0.466043 -0.0303555
v 0.321647 0.46653 -0.0182682
v 0.323376 0.465304 -0.00607362
v 0.307782 0.440987 0.188911
v 0.307796 0.440953 0.188976
v 0.323376 0.443538 0.140712
v 0.318085 0.451828 0.124911
v 0.190004 0.503015 0.188976
v 0.184054 0.512346 0.160292
v 0.181313 0.511339 0.168429
v 0.183937 0.524496 0.111364
v 0.173648 0.525017 0.123365
v 0.181079 0.523489 0.119501
v 0.17784 0.53804 -0.019084
v 0.182647 0.53621 -0.0236785
v 0.173648 0.539332 -0.00553689
v 0.183541 0.536529 -0.00880022
v 0.183541 0.536529 -0.0155631
v 0.181797 0.535925 -0.0303555
v 0.311856 0.472068 -0.0303555
v 0.312721 0.472622 -0.0182682
v 0.321647 0.46653 -0.00607362
v 0.320855 0.465976 0.00609951
v 0.323376 0.46418 0.00609951
v 0.305114 0.451258 0.159498
v 0.303414 0.4501 0.167635
v 0.298226 0.447515 0.188976
v 0.323376 0.450637 0.115765
v 0.319902 0.45312 0.115765
v 0.191045 0.502629 0.188976
v 0.192657 0.502025 0.188976
v 0.201392 0.513873 0.127766
v 0.201114 0.516944 0.115765
v 0.201114 0.519864 0.103592
v 0.192481 0.52312 0.103592
v 0.186384 0.525402 0.103592
v 0.176726 0.528725 0.103592
v 0.176902 0.525822 0.115572
v 0.173648 0.528977 0.106662
v 0.188817 0.533357 -0.0303555
v 0.173648 0.539047 -0.00169387
v 0.17784 0.53804 -0.00527925
v 0.182647 0.53621 -0.00068481
v 0.18892 0.533307 0.00609951
v 0.201114 0.528725 0.00609951
v 0.201114 0.529699 -0.00607362
v 0.21149 0.525738 -0.00607362
v 0.21149 0.525738 -0.0182682
v 0.201114 0.529699 -0.0182682
v 0.305818 0.475945 -0.0303555
v 0.306624 0.476515 -0.0182682
v 0.312721 0.472622 -0.00607362
v 0.317675 0.46371 0.0548564
v 0.323376 0.463643 0.0118748
v 0.293565 0.451644 0.185283
v 0.31363 0.460891 0.103592
v 0.310229 0.459749 0.116173
v 0.305789 0.463861 0.112351
v 0.304088 0.462754 0.120488
v 0.292759 0.45114 0.188976
v 0.297772 0.447817 0.188976
v 0.323376 0.454127 0.103098
v 0.196922 0.500413 0.188976
v 0.205643 0.511288 0.131674
v 0.201114 0.507898 0.152327
v 0.205745 0.499138 0.180602
v 0.210523 0.513269 0.115765
v 0.208207 0.512295 0.123558
v 0.214129 0.514578 0.104129
v 0.220944 0.512581 0.100436
v 0.194592 0.523909 0.0955409
v 0.176726 0.530622 0.0913973
v 0.173648 0.529699 0.103592
v 0.200982 0.528776 -0.0303555
v 0.173648 0.538258 0.00833232
v 0.173648 0.537469 0.0182941
v 0.173648 0.536496 0.0304887
v 0.173648 0.533559 0.067051
v 0.176726 0.531612 0.0792242
v 0.18892 0.527366 0.0792242
v 0.18892 0.528356 0.067051
v 0.18892 0.531327 0.0304887
v 0.196351 0.52458 0.0792242
v 0.21023 0.525251 0.00609951
v 0.201114 0.527735 0.0182941
v 0.205071 0.523271 0.0548564
v 0.207094 0.524026 0.0360922
v 0.207944 0.524362 0.0279553
v 0.217587 0.523355 -0.00607362
v 0.217587 0.523355 -0.0182682
v 0.210303 0.525235 -0.0303555
v 0.305686 0.476028 -0.0303555
v 0.298592 0.481516 -0.0182682
v 0.306624 0.476515 -0.00607362
v 0.298519 0.480493 -0.0303555
v 0.316063 0.462569 0.0792242
v 0.317147 0.463324 0.0630148
v 0.305759 0.475978 0.00609951
v 0.304528 0.475223 0.0232321
v 0.309145 0.466076 0.0913973
v 0.323376 0.456276 0.0907747
v 0.323376 0.460773 0.0426618
v 0.323376 0.454194 0.10284
v 0.323376 0.45453 0.101016
v 0.315242 0.461998 0.0913973
v 0.307533 0.465019 0.103592
v 0.29761 0.471464 0.102948
v 0.291206 0.474518 0.106576
v 0.299457 0.466815 0.116173
v 0.276887 0.461008 0.188976
v 0.201964 0.498483 0.188976
v 0.213293 0.493684 0.188976
v 0.213293 0.4937 0.188911
v 0.208237 0.500145 0.172466
v 0.218745 0.511607 0.108573
v 0.237666 0.50622 0.0913973
v 0.222292 0.513202 0.0913973
v 0.213293 0.517011 0.0913973
v 0.243983 0.499809 0.110119
v 0.237666 0.50424 0.103592
v 0.245552 0.500598 0.103592
v 0.200161 0.522147 0.0914402
v 0.195471 0.524244 0.087404
v 0.189887 0.526007 0.0914402
v 0.173648 0.531578 0.0914188
v 0.173648 0.531109 0.0944674
v 0.202448 0.522281 0.0792242
v 0.216327 0.522852 0.00609951
v 0.225487 0.51785 0.0182941
v 0.225487 0.519864 -0.00607362
v 0.24391 0.511943 -0.0113551
v 0.24391 0.511943 -0.0129868
v 0.225487 0.519864 -0.0182682
v 0.225414 0.518908 -0.0303555
v 0.216342 0.522852 -0.0303555
v 0.290707 0.4864 -0.0182682
v 0.298592 0.481516 -0.00607362
v 0.298592 0.480442 0.00609951
v 0.289843 0.485863 -0.0303555
v 0.297039 0.478143 0.0426618
v 0.301377 0.473259 0.067051
v 0.299618 0.472169 0.0913973
v 0.292891 0.475559 0.0984607
v 0.323376 0.456208 0.0913973
v 0.28313 0.477052 0.115765
v 0.289227 0.473276 0.115765
v 0.286853 0.478143 0.102948
v 0.285783 0.472068 0.128088
v 0.270804 0.464751 0.188911
v 0.270819 0.464717 0.188976
v 0.281298 0.475928 0.124117
v 0.223186 0.489203 0.188976
v 0.229268 0.486467 0.188911
v 0.220914 0.500397 0.148978
v 0.216562 0.498416 0.164522
v 0.225487 0.506757 0.115765
v 0.237666 0.501487 0.11482
v 0.247501 0.501571 0.0913973
v 0.242327 0.511238 0.00609951
v 0.237666 0.507244 0.0792242
v 0.225487 0.51582 0.0426618
v 0.248761 0.496084 0.11482
v 0.260237 0.489807 0.115765
v 0.251619 0.497443 0.103592
v 0.231174 0.487323 0.182105
v 0.243705 0.487474 0.158317
v 0.269808 0.488414 0.101123
v 0.253583 0.498467 0.0913973
v 0.243177 0.511624 -0.00323967
v 0.248703 0.509224 -0.00680358
v 0.261497 0.502662 -0.00607362
v 0.261497 0.502662 -0.0182682
v 0.248703 0.509224 -0.0175383
v 0.243177 0.511624 -0.0211236
v 0.242342 0.511238 -0.0303555
v 0.284625 0.490059 -0.0182682
v 0.290707 0.4864 -0.00607362
v 0.283658 0.489605 -0.0303555
v 0.289843 0.485863 0.00609951
v 0.29528 0.477052 0.067051
v 0.293521 0.475961 0.0913973
v 0.286413 0.480358 0.0913973
v 0.277238 0.485813 0.0913973
v 0.274014 0.485242 0.104558
v 0.26755 0.475005 0.157244
v 0.26204 0.469618 0.188976
v 0.269456 0.476079 0.149128
v 0.274219 0.482188 0.115765
v 0.229254 0.48645 0.188976
v 0.237681 0.482406 0.188976
v 0.254594 0.499004 0.0792242
v 0.255386 0.499406 0.0697776
v 0.248512 0.502092 0.0792242
v 0.249846 0.506556 0.0182941
v 0.249846 0.50758 0.00609951
v 0.266319 0.486551 0.115765
v 0.267917 0.48739 0.10926
v 0.263124 0.491133 0.104558
v 0.247618 0.477354 0.188976
v 0.242034 0.486669 0.164522
v 0.271141 0.489119 0.0913973
v 0.262025 0.493986 0.0913973
v 0.267594 0.499406 -0.00607362
v 0.26053 0.502142 0.00609951
v 0.267594 0.499406 -0.0182682
v 0.260589 0.502125 -0.0303555
v 0.260428 0.502209 -0.0303555
v 0.249831 0.507596 -0.0303555
v 0.274219 0.495865 -0.0182682
v 0.284625 0.490059 -0.00607362
v 0.283746 0.489538 0.00609951
v 0.280536 0.487642 0.050262
v 0.27416 0.494875 -0.0303555
v 0.288949 0.485326 0.0182941
v 0.286413 0.481449 0.0792242
v 0.279906 0.487273 0.0583989
v 0.25543 0.475055 0.181783
v 0.262025 0.495043 0.0792242
v 0.256045 0.499759 0.0616408
v 0.258566 0.501101 0.0304887
v 0.273105 0.490176 0.067051
v 0.274219 0.495865 -0.00607362
v 0.274219 0.493784 0.0182941
v 0.275186 0.490143 0.0545344
f 1 2 3
f 1 3 7
f 1 7 11
f 1 11 20
f 1 20 32
f 1 32 54
f 1 54 88
f 1 88 87
f 1 87 137
f 1 137 177
f 1 177 213
f 1 213 226
f 1 226 217
f 1 217 216
f 1 216 179
f 1 179 139
f 1 139 138
f 1 138 90
f 1 90 58
f 1 58 57
f 1 57 35
f 1 35 22
f 1 22 13
f 1 13 8
f 1 8 4
f 1 4 5
f 1 5 6
f 1 6 2
f 2 6 10
f 2 10 18
f 2 18 30
f 2 30 51
f 2 51 81
f 2 81 129
f 2 129 128
f 2 128 171
f 2 171 131
f 2 131 130
f 2 130 89
f 2 89 55
f 2 55 33
f 2 33 21
f 2 21 12
f 2 12 7
f 2 7 3
f 4 8 14
f 4 14 25
f 4 25 24
f 4 24 39
f 4 39 66
f 4 66 100
f 4 100 153
f 4 153 152
f 4 152 105
f 4 105 104
f 4 104 103
f 4 103 102
f 4 102 68
f 4 68 43
f 4 43 26
f 4 26 15
f 4 15 9
f 4 9 5
f 5 9 16
f 5 16 27
f 5 27 46
f 5 46 67
f 5 67 101
f 5 101 118
f 5 118 162
f 5 162 161
f 5 161 202
f 5 202 235
f 5 235 234
f 5 234 233
f 5 233 240
f 5 240 205
f 5 205 166
f 5 166 122
f 5 122 119
f 5 119 77
f 5 77 47
f 5 47 28
f 5 28 17
f 5 17 10
f 5 10 6
f 7 12 11
f 8 13 14
f 9 15 16
f 10 17 18
f 11 12 19
f 11 19 20
f 12 21 19
f 13 22 23
f 13 23 24
f 13 24 25
f 13 25 14
f 15 26 16
f 16 26 27
f 17 28 29
f 17 29 18
f 18 29 49
f 18 49 30
f 19 31 32
f 19 32 20
f 19 21 33
f 19 33 34
f 19 34 31
f 22 35 36
f 22 36 37
f 22 37 38
f 22 38 23
f 23 38 24
f 24 38 40
f 24 40 39
f 26 41 42
f 26 42 27
f 26 43 44
f 26 44 45
f 26 45 41
f 27 42 46
f 28 47 48
f 28 48 29
f 29 48 79
f 29 79 49
f 30 49 50
f 30 50 51
f 31 52 53
f 31 53 54
f 31 54 32
f 31 34 52
f 33 55 34
f 34 55 56
f 34 56 52
f 35 57 36
f 36 57 58
f 36 58 38
f 36 38 37
f 38 59 60
f 38 60 61
f 38 61 62
f 38 62 63
f 38 63 64
f 38 64 65
f 38 65 40
f 38 58 59
f 39 40 65
f 39 65 64
f 39 64 66
f 41 45 42
f 42 67 46
f 42 45 67
f 43 68 69
f 43 69 44
f 44 69 70
f 44 70 71
f 44 71 72
f 44 72 73
f 44 73 74
f 44 74 75
f 44 75 45
f 45 75 76
f 45 76 67
f 47 77 48
f 48 78 121
f 48 121 79
f 48 77 78
f 49 79 50
f 50 79 80
f 50 80 51
f 51 80 81
f 52 82 53
f 52 56 83
f 52 83 84
f 52 84 85
f 52 85 86
f 52 86 82
f 53 82 87
f 53 87 88
f 53 88 54
f 55 89 56
f 56 89 83
f 58 90 59
f 59 91 60
f 59 90 92
f 59 92 93
f 59 93 91
f 60 94 61
f 60 91 95
f 60 95 94
f 61 94 96
f 61 96 97
f 61 97 98
f 61 98 62
f 62 98 63
f 63 98 64
f 64 98 99
f 64 99 100
f 64 100 66
f 67 76 101
f 68 70 69
f 68 102 70
f 70 102 103
f 70 103 104
f 70 104 105
f 70 105 106
f 70 106 99
f 70 99 107
f 70 107 108
f 70 108 109
f 70 109 71
f 71 109 110
f 71 110 72
f 72 111 73
f 72 110 112
f 72 112 113
f 72 113 114
f 72 114 115
f 72 115 111
f 73 111 74
f 74 116 117
f 74 117 75
f 74 111 116
f 75 117 118
f 75 118 76
f 76 118 101
f 77 119 78
f 78 120 164
f 78 164 121
f 78 119 122
f 78 122 120
f 79 123 124
f 79 124 80
f 79 121 125
f 79 125 126
f 79 126 127
f 79 127 123
f 80 124 128
f 80 128 129
f 80 129 81
f 82 86 87
f 83 89 130
f 83 130 131
f 83 131 132
f 83 132 133
f 83 133 85
f 83 85 84
f 85 133 134
f 85 134 135
f 85 135 136
f 85 136 86
f 86 136 87
f 87 136 137
f 90 138 93
f 90 93 92
f 91 93 95
f 93 138 139
f 93 139 140
f 93 140 141
f 93 141 95
f 94 142 96
f 94 95 141
f 94 141 142
f 96 142 97
f 97 143 144
f 97 144 145
f 97 145 98
f 97 142 146
f 97 146 147
f 97 147 148
f 97 148 143
f 98 145 149
f 98 149 150
f 98 150 151
f 98 151 99
f 99 152 153
f 99 153 100
f 99 151 107
f 99 106 152
f 105 152 106
f 107 150 108
f 107 151 150
f 108 150 110
f 108 110 109
f 110 150 149
f 110 149 154
f 110 154 112
f 111 115 116
f 112 154 113
f 113 154 145
f 113 145 114
f 114 145 115
f 115 145 155
f 115 155 116
f 116 156 157
f 116 157 158
f 116 158 159
f 116 159 117
f 116 155 145
f 116 145 144
f 116 144 156
f 117 159 160
f 117 160 161
f 117 161 162
f 117 162 118
f 120 122 163
f 120 163 204
f 120 204 164
f 121 164 165
f 121 165 125
f 122 166 163
f 123 128 124
f 123 127 132
f 123 132 128
f 125 165 126
f 126 167 168
f 126 168 127
f 126 165 167
f 127 168 169
f 127 169 170
f 127 170 133
f 127 133 132
f 128 132 171
f 131 171 132
f 133 170 134
f 134 170 135
f 135 172 173
f 135 173 136
f 135 170 174
f 135 174 172
f 136 173 175
f 136 175 137
f 137 176 177
f 137 175 178
f 137 178 176
f 139 179 180
f 139 180 140
f 140 180 181
f 140 181 182
f 140 182 141
f 141 182 183
f 141 183 142
f 142 183 184
f 142 184 146
f 143 185 186
f 143 186 187
f 143 187 144
f 143 148 185
f 144 187 186
f 144 186 188
f 144 188 156
f 145 154 149
f 146 189 190
f 146 190 191
f 146 191 148
f 146 148 147
f 146 184 180
f 146 180 192
f 146 192 193
f 146 193 189
f 148 191 194
f 148 194 195
f 148 195 185
f 156 188 186
f 156 186 157
f 157 186 196
f 157 196 158
f 158 197 198
f 158 198 199
f 158 199 159
f 158 196 197
f 159 199 200
f 159 200 201
f 159 201 160
f 160 201 161
f 161 201 202
f 163 203 237
f 163 237 204
f 163 166 205
f 163 205 203
f 164 204 206
f 164 206 165
f 165 206 167
f 167 207 168
f 167 206 207
f 168 207 208
f 168 208 169
f 169 208 170
f 170 208 209
f 170 209 210
f 170 210 194
f 170 194 174
f 172 174 211
f 172 211 178
f 172 178 173
f 173 178 175
f 174 194 211
f 176 212 213
f 176 213 177
f 176 178 214
f 176 214 212
f 178 211 215
f 178 215 214
f 179 216 180
f 180 216 217
f 180 217 192
f 180 184 181
f 181 184 183
f 181 183 182
f 185 195 218
f 185 218 219
f 185 219 220
f 185 220 221
f 185 221 222
f 185 222 197
f 185 197 196
f 185 196 186
f 189 193 190
f 190 223 224
f 190 224 225
f 190 225 191
f 190 193 226
f 190 226 223
f 191 225 194
f 192 217 227
f 192 227 193
f 193 227 217
f 193 217 226
f 194 210 228
f 194 228 229
f 194 229 195
f 194 225 224
f 194 224 211
f 195 229 218
f 197 222 198
f 198 230 232
f 198 232 199
f 198 222 231
f 198 231 230
f 199 232 233
f 199 233 234
f 199 234 235
f 199 235 200
f 200 235 201
f 201 235 202
f 203 205 236
f 203 236 249
f 203 249 237
f 204 237 238
f 204 238 239
f 204 239 206
f 205 240 236
f 206 239 241
f 206 241 242
f 206 242 207
f 207 242 208
f 208 242 209
f 209 242 239
f 209 239 243
f 209 243 210
f 210 243 228
f 211 224 214
f 211 214 215
f 212 226 244
f 212 244 213
f 212 214 224
f 212 224 223
f 212 223 226
f 213 244 226
f 218 229 219
f 219 229 245
f 219 245 246
f 219 246 220
f 220 246 221
f 221 246 247
f 221 247 222
f 222 247 231
f 228 243 239
f 228 239 248
f 228 248 245
f 228 245 229
f 230 249 236
f 230 236 232
f 230 231 250
f 230 250 249
f 231 247 250
f 232 236 240
f 232 240 233
f 237 249 238
f 238 249 239
f 239 250 251
f 239 251 248
f 239 242 241
f 239 249 250
f 245 248 246
f 246 248 247
f 247 248 250
f 248 251 250
