v 0.462669 -0.230345 -0.0303775
v 0.500498 -0.26366 -0.0303775
v 0.515339 -0.233296 -0.0304437
v 0.512281 -0.230345 -0.0830414
v 0.411325 -0.230345 -0.255655
v 0.296875 -0.422944 -0.0303775
v 0.494831 -0.274245 -0.0303775
v 0.49017 -0.273147 -0.0914438
v 0.500049 -0.256612 -0.0792482
v 0.50161 -0.259563 -0.0426834
v 0.509394 -0.246149 -0.0304216
v 0.511447 -0.230662 -0.0914438
v 0.509694 -0.238979 -0.0670526
v 0.51057 -0.230345 -0.103617
v 0.482578 -0.230345 -0.225838
v 0.469897 -0.231638 -0.255456
v 0.466026 -0.239198 -0.255655
v 0.296875 -0.366166 -0.255655
v 0.296875 -0.479331 -0.054879
v 0.297324 -0.479477 -0.0304216
v 0.308807 -0.474038 -0.0303775
v 0.487668 -0.286878 -0.0303775
v 0.488993 -0.282879 -0.0426834
v 0.488074 -0.278903 -0.0797995
v 0.487454 -0.274221 -0.115813
v 0.493976 -0.262051 -0.115813
v 0.498082 -0.258173 -0.0923921
v 0.49898 -0.254636 -0.103617
v 0.500006 -0.250563 -0.115813
v 0.507876 -0.234003 -0.115813
v 0.504647 -0.230345 -0.139807
v 0.505866 -0.234003 -0.128141
v 0.486449 -0.230345 -0.211371
v 0.482407 -0.237686 -0.213268
v 0.475649 -0.244198 -0.226301
v 0.473511 -0.240344 -0.237637
v 0.476291 -0.231467 -0.241452
v 0.465214 -0.253222 -0.240901
v 0.46068 -0.249246 -0.255655
v 0.307738 -0.42387 -0.255655
v 0.297559 -0.432675 -0.252457
v 0.296875 -0.452527 -0.198492
v 0.296875 -0.465722 -0.150371
v 0.297067 -0.471868 -0.127104
v 0.298265 -0.473014 -0.115813
v 0.299142 -0.474648 -0.0914438
v 0.312207 -0.464014 -0.115813
v 0.316099 -0.462551 -0.103617
v 0.317169 -0.463307 -0.087408
v 0.32089 -0.465965 -0.0303775
v 0.481423 -0.286439 -0.103617
v 0.48044 -0.298609 -0.0303775
v 0.478686 -0.297951 -0.054879
v 0.480333 -0.286439 -0.115813
v 0.4891 -0.266562 -0.129707
v 0.476312 -0.289073 -0.129155
v 0.498809 -0.248222 -0.129618
v 0.500113 -0.23971 -0.140932
v 0.487047 -0.242881 -0.185789
v 0.475735 -0.250661 -0.213268
v 0.469619 -0.262051 -0.213268
v 0.462968 -0.268099 -0.225441
v 0.462926 -0.260807 -0.236843
v 0.452319 -0.26427 -0.255655
v 0.318794 -0.415822 -0.255655
v 0.315629 -0.427626 -0.236358
v 0.307182 -0.428333 -0.24734
v 0.299441 -0.438845 -0.236865
v 0.298243 -0.443845 -0.225993
v 0.297474 -0.448088 -0.213047
v 0.304295 -0.450649 -0.187928
v 0.30607 -0.462258 -0.14177
v 0.298179 -0.467453 -0.141108
v 0.310604 -0.462941 -0.127987
v 0.323007 -0.456478 -0.115813
v 0.323798 -0.459332 -0.0792482
v 0.339986 -0.449991 -0.054879
v 0.339772 -0.452259 -0.0318331
v 0.358334 -0.437699 -0.0304216
v 0.371785 -0.42648 -0.0304216
v 0.403113 -0.397043 -0.0303775
v 0.437692 -0.358313 -0.0304216
v 0.463781 -0.323949 -0.0304437
v 0.474003 -0.308853 -0.0304437
v 0.475222 -0.30456 -0.0476455
v 0.477039 -0.295317 -0.0914438
v 0.47396 -0.296439 -0.117577
v 0.489806 -0.260246 -0.140182
v 0.482193 -0.274245 -0.140182
v 0.475158 -0.286195 -0.140182
v 0.475927 -0.281342 -0.148474
v 0.471437 -0.297634 -0.127347
v 0.46453 -0.30278 -0.141175
v 0.496072 -0.248807 -0.139234
v 0.486983 -0.247783 -0.176218
v 0.475543 -0.268538 -0.177563
v 0.46098 -0.276928 -0.213268
v 0.449411 -0.290073 -0.225441
v 0.449582 -0.283976 -0.235586
v 0.452233 -0.276659 -0.239644
v 0.45249 -0.270684 -0.247076
v 0.446011 -0.274635 -0.255655
v 0.33541 -0.402335 -0.255655
v 0.325958 -0.411554 -0.252743
v 0.333314 -0.4137 -0.236865
v 0.323434 -0.420797 -0.238276
v 0.30622 -0.437967 -0.227404
v 0.322921 -0.426456 -0.225441
v 0.322964 -0.450918 -0.140182
v 0.31086 -0.438772 -0.213268
v 0.325658 -0.452088 -0.129023
v 0.332844 -0.449186 -0.117533
v 0.336821 -0.447649 -0.103617
v 0.331496 -0.452674 -0.0914438
v 0.345525 -0.442138 -0.0914438
v 0.351619 -0.437235 -0.0914438
v 0.358633 -0.434967 -0.0560038
v 0.366032 -0.42687 -0.0763592
v 0.373688 -0.416066 -0.115813
v 0.377794 -0.41431 -0.0969131
v 0.380103 -0.416505 -0.054879
v 0.384551 -0.414871 -0.0304216
v 0.394068 -0.405945 -0.0304437
v 0.39272 -0.404701 -0.054879
v 0.38932 -0.40153 -0.115813
v 0.395479 -0.395433 -0.115813
v 0.401787 -0.389507 -0.111667
v 0.417762 -0.381434 -0.0304437
v 0.426465 -0.371751 -0.0304216
v 0.436623 -0.350899 -0.103617
v 0.438505 -0.347119 -0.115813
v 0.44909 -0.343997 -0.031811
v 0.426871 -0.365996 -0.0763592
v 0.463696 -0.31773 -0.0792482
v 0.453795 -0.33312 -0.0670526
v 0.462562 -0.316096 -0.103617
v 0.464016 -0.312218 -0.115813
v 0.462947 -0.310609 -0.127987
v 0.462199 -0.291049 -0.176703
v 0.462263 -0.278976 -0.204005
v 0.450651 -0.304292 -0.187928
v 0.449817 -0.294805 -0.213091
v 0.440451 -0.302926 -0.226742
v 0.438911 -0.298926 -0.237637
v 0.439317 -0.29339 -0.244959
v 0.439082 -0.28739 -0.253449
v 0.4301 -0.299 -0.255655
v 0.345354 -0.393945 -0.255655
v 0.347107 -0.401872 -0.237637
v 0.352154 -0.403262 -0.224074
v 0.333613 -0.418066 -0.225441
v 0.32754 -0.42726 -0.211239
v 0.33201 -0.440894 -0.152334
v 0.334148 -0.446406 -0.127237
v 0.315715 -0.437894 -0.204159
v 0.327968 -0.437918 -0.17313
v 0.347107 -0.438504 -0.115813
v 0.361349 -0.428041 -0.103617
v 0.360622 -0.427407 -0.115813
v 0.372362 -0.414846 -0.127987
v 0.384958 -0.40314 -0.127987
v 0.394217 -0.394189 -0.127987
v 0.403177 -0.384921 -0.127987
v 0.416072 -0.373629 -0.115813
v 0.414725 -0.37819 -0.0887974
v 0.426315 -0.365288 -0.0879594
v 0.427427 -0.360581 -0.115813
v 0.434869 -0.348753 -0.127987
v 0.446395 -0.334144 -0.127237
v 0.449197 -0.332827 -0.117533
v 0.448235 -0.337607 -0.0914438
v 0.459526 -0.321949 -0.0914659
v 0.452661 -0.33151 -0.0914438
v 0.456468 -0.322998 -0.115813
v 0.452084 -0.325657 -0.129023
v 0.450908 -0.322974 -0.140182
v 0.448791 -0.301512 -0.201072
v 0.449625 -0.315096 -0.164507
v 0.438783 -0.310853 -0.213268
v 0.426444 -0.322925 -0.225441
v 0.427641 -0.315633 -0.236358
v 0.428326 -0.307194 -0.24734
v 0.422851 -0.30917 -0.255655
v 0.351641 -0.388287 -0.255655
v 0.35457 -0.391019 -0.24562
v 0.359959 -0.390336 -0.237637
v 0.359531 -0.396067 -0.225441
v 0.366674 -0.415285 -0.143821
v 0.352111 -0.413261 -0.191236
v 0.344691 -0.413042 -0.212275
v 0.340371 -0.413603 -0.222045
v 0.361435 -0.398238 -0.213268
v 0.335217 -0.42048 -0.213356
v 0.34206 -0.439357 -0.131317
v 0.335602 -0.441942 -0.1393
v 0.348732 -0.43487 -0.127987
v 0.359211 -0.426236 -0.127987
v 0.373389 -0.410213 -0.140182
v 0.382969 -0.401262 -0.140182
v 0.392357 -0.392311 -0.140182
v 0.398451 -0.38597 -0.140182
v 0.410213 -0.373361 -0.140182
v 0.414853 -0.372312 -0.127987
v 0.423749 -0.362215 -0.127987
v 0.425652 -0.354899 -0.142057
v 0.439381 -0.34207 -0.131317
v 0.441947 -0.335607 -0.1393
v 0.439018 -0.329486 -0.1655
v 0.427278 -0.327535 -0.211239
v 0.418061 -0.333632 -0.225441
v 0.4162 -0.331339 -0.235145
v 0.420798 -0.323437 -0.238276
v 0.413249 -0.321998 -0.255655
v 0.358056 -0.382287 -0.255655
v 0.369497 -0.381409 -0.237637
v 0.376554 -0.376507 -0.234152
v 0.37202 -0.384141 -0.226213
v 0.356794 -0.425065 -0.138925
v 0.3473 -0.432577 -0.13994
v 0.377388 -0.389555 -0.193574
v 0.370994 -0.389287 -0.213268
v 0.390282 -0.390214 -0.153128
v 0.392271 -0.38019 -0.176703
v 0.39828 -0.361386 -0.213268
v 0.400205 -0.363459 -0.201072
v 0.415281 -0.366654 -0.143821
v 0.414468 -0.353606 -0.18312
v 0.420499 -0.335241 -0.213356
v 0.413613 -0.340363 -0.222045
v 0.403306 -0.352167 -0.224074
v 0.401937 -0.347143 -0.237637
v 0.402493 -0.335705 -0.254949
v 0.414126 -0.328803 -0.24326
v 0.393982 -0.345363 -0.255655
v 0.364257 -0.376483 -0.255655
v 0.378884 -0.378824 -0.222552
v 0.370459 -0.37041 -0.255655
v 0.379141 -0.366996 -0.246083
v 0.381451 -0.369459 -0.237637
v 0.393233 -0.35685 -0.237637
v 0.39612 -0.359508 -0.225441
v 0.390154 -0.365727 -0.225838
v 0.386455 -0.373995 -0.213268
v 0.415366 -0.342509 -0.210511
v 0.391052 -0.354582 -0.24562
v 0.386775 -0.353313 -0.255655
v 0.378093 -0.362557 -0.255655
f 1 2 3
f 1 3 4
f 1 4 14
f 1 14 31
f 1 31 33
f 1 33 15
f 1 15 5
f 1 5 6
f 1 6 21
f 1 21 50
f 1 50 81
f 1 81 52
f 1 52 22
f 1 22 7
f 1 7 2
f 2 7 8
f 2 8 9
f 2 9 10
f 2 10 11
f 2 11 3
f 3 12 4
f 3 11 13
f 3 13 12
f 4 12 14
f 5 15 16
f 5 16 17
f 5 17 39
f 5 39 64
f 5 64 102
f 5 102 147
f 5 147 183
f 5 183 213
f 5 213 234
f 5 234 246
f 5 246 247
f 5 247 237
f 5 237 235
f 5 235 214
f 5 214 184
f 5 184 148
f 5 148 103
f 5 103 65
f 5 65 40
f 5 40 18
f 5 18 6
f 6 18 42
f 6 42 43
f 6 43 19
f 6 19 20
f 6 20 21
f 7 22 23
f 7 23 24
f 7 24 8
f 8 24 25
f 8 25 26
f 8 26 27
f 8 27 9
f 9 27 28
f 9 28 29
f 9 29 11
f 9 11 10
f 11 29 13
f 12 13 30
f 12 30 14
f 13 29 30
f 14 30 32
f 14 32 31
f 15 33 34
f 15 34 35
f 15 35 36
f 15 36 37
f 15 37 16
f 16 37 17
f 17 37 36
f 17 36 38
f 17 38 39
f 18 40 41
f 18 41 42
f 19 43 44
f 19 44 45
f 19 45 46
f 19 46 21
f 19 21 20
f 21 46 45
f 21 45 47
f 21 47 48
f 21 48 49
f 21 49 50
f 22 51 23
f 22 52 53
f 22 53 51
f 23 51 24
f 24 51 54
f 24 54 25
f 25 55 26
f 25 54 56
f 25 56 55
f 26 55 57
f 26 57 29
f 26 29 28
f 26 28 27
f 29 57 32
f 29 32 30
f 31 32 58
f 31 58 33
f 32 57 58
f 33 58 59
f 33 59 34
f 34 59 35
f 35 59 60
f 35 60 61
f 35 61 62
f 35 62 63
f 35 63 36
f 36 63 38
f 38 63 39
f 39 63 64
f 40 65 66
f 40 66 67
f 40 67 41
f 41 67 68
f 41 68 69
f 41 69 70
f 41 70 42
f 42 70 71
f 42 71 72
f 42 72 73
f 42 73 43
f 43 73 44
f 44 73 72
f 44 72 74
f 44 74 47
f 44 47 45
f 47 74 75
f 47 75 48
f 48 75 49
f 49 75 76
f 49 76 50
f 50 76 77
f 50 77 78
f 50 78 79
f 50 79 80
f 50 80 81
f 51 53 54
f 52 82 83
f 52 83 84
f 52 84 85
f 52 85 53
f 52 81 82
f 53 86 54
f 53 85 86
f 54 86 87
f 54 87 56
f 55 88 57
f 55 56 89
f 55 89 88
f 56 90 91
f 56 91 89
f 56 87 92
f 56 92 93
f 56 93 90
f 57 94 58
f 57 88 94
f 58 94 59
f 59 95 60
f 59 94 95
f 60 95 88
f 60 88 96
f 60 96 61
f 61 96 62
f 62 96 91
f 62 91 97
f 62 97 98
f 62 98 99
f 62 99 63
f 63 99 100
f 63 100 101
f 63 101 64
f 64 101 102
f 65 103 104
f 65 104 105
f 65 105 106
f 65 106 66
f 66 107 68
f 66 68 67
f 66 106 108
f 66 108 107
f 68 107 69
f 69 107 71
f 69 71 70
f 71 109 74
f 71 74 72
f 71 107 110
f 71 110 109
f 74 109 111
f 74 111 75
f 75 111 112
f 75 112 113
f 75 113 114
f 75 114 76
f 76 114 77
f 77 114 113
f 77 113 115
f 77 115 79
f 77 79 78
f 79 116 117
f 79 117 118
f 79 118 80
f 79 115 116
f 80 118 119
f 80 119 120
f 80 120 121
f 80 121 122
f 80 122 81
f 81 122 123
f 81 123 124
f 81 124 125
f 81 125 126
f 81 126 127
f 81 127 128
f 81 128 129
f 81 129 82
f 82 130 131
f 82 131 132
f 82 132 83
f 82 129 133
f 82 133 130
f 83 134 84
f 83 132 135
f 83 135 134
f 84 134 136
f 84 136 137
f 84 137 85
f 85 87 86
f 85 137 87
f 87 137 138
f 87 138 92
f 88 89 96
f 88 95 94
f 89 91 96
f 90 93 139
f 90 139 91
f 91 140 97
f 91 139 140
f 92 138 93
f 93 141 142
f 93 142 139
f 93 138 141
f 97 140 98
f 98 140 139
f 98 139 142
f 98 142 143
f 98 143 99
f 99 102 101
f 99 101 100
f 99 143 144
f 99 144 145
f 99 145 102
f 102 145 146
f 102 146 147
f 103 148 149
f 103 149 105
f 103 105 104
f 105 149 150
f 105 150 151
f 105 151 108
f 105 108 106
f 107 108 110
f 108 151 152
f 108 152 110
f 109 153 154
f 109 154 111
f 109 110 155
f 109 155 156
f 109 156 153
f 110 152 155
f 111 154 112
f 112 154 157
f 112 157 113
f 113 157 115
f 115 157 116
f 116 158 117
f 116 157 158
f 117 158 118
f 118 158 159
f 118 159 119
f 119 159 160
f 119 160 161
f 119 161 125
f 119 125 120
f 120 125 124
f 120 124 121
f 121 124 122
f 122 124 123
f 125 161 162
f 125 162 126
f 126 162 163
f 126 163 164
f 126 164 127
f 127 164 165
f 127 165 128
f 128 165 164
f 128 164 129
f 129 164 166
f 129 166 133
f 130 133 166
f 130 166 167
f 130 167 131
f 131 167 168
f 131 168 169
f 131 169 170
f 131 170 171
f 131 171 132
f 132 171 135
f 134 135 172
f 134 172 136
f 135 171 173
f 135 173 172
f 136 172 174
f 136 174 137
f 137 174 138
f 138 174 170
f 138 170 175
f 138 175 176
f 138 176 141
f 141 143 177
f 141 177 142
f 141 176 178
f 141 178 179
f 141 179 143
f 142 177 143
f 143 179 180
f 143 180 181
f 143 181 144
f 144 181 145
f 145 181 182
f 145 182 147
f 145 147 146
f 147 182 183
f 148 184 185
f 148 185 149
f 149 185 186
f 149 186 187
f 149 187 150
f 150 188 189
f 150 189 190
f 150 190 191
f 150 191 151
f 150 187 192
f 150 192 188
f 151 193 152
f 151 191 193
f 152 193 194
f 152 194 195
f 152 195 153
f 152 153 156
f 152 156 155
f 153 195 154
f 154 195 194
f 154 194 196
f 154 196 157
f 157 196 159
f 157 159 158
f 159 197 160
f 159 196 197
f 160 188 198
f 160 198 161
f 160 197 188
f 161 198 199
f 161 199 200
f 161 200 162
f 162 200 163
f 163 201 202
f 163 202 203
f 163 203 164
f 163 200 201
f 164 203 204
f 164 204 167
f 164 167 166
f 167 204 168
f 168 204 205
f 168 205 206
f 168 206 169
f 169 206 207
f 169 207 175
f 169 175 170
f 170 174 173
f 170 173 171
f 172 173 174
f 175 207 176
f 176 179 178
f 176 207 208
f 176 208 179
f 179 208 209
f 179 209 180
f 180 209 210
f 180 210 211
f 180 211 181
f 181 211 212
f 181 212 213
f 181 213 183
f 181 183 182
f 184 214 186
f 184 186 185
f 186 214 215
f 186 215 216
f 186 216 187
f 187 216 217
f 187 217 192
f 188 192 198
f 188 197 218
f 188 218 189
f 189 218 219
f 189 219 190
f 190 219 193
f 190 193 191
f 192 220 199
f 192 199 198
f 192 217 221
f 192 221 220
f 193 219 194
f 194 219 196
f 196 219 218
f 196 218 197
f 199 220 222
f 199 222 200
f 200 222 201
f 201 223 224
f 201 224 225
f 201 225 202
f 201 222 223
f 202 225 226
f 202 226 203
f 203 226 204
f 204 226 227
f 204 227 205
f 205 227 206
f 206 228 209
f 206 209 208
f 206 208 207
f 206 227 228
f 209 228 210
f 210 228 229
f 210 229 230
f 210 230 211
f 211 230 231
f 211 231 232
f 211 232 233
f 211 233 213
f 211 213 212
f 213 233 232
f 213 232 234
f 214 235 215
f 215 235 216
f 216 236 217
f 216 235 237
f 216 237 238
f 216 238 239
f 216 239 240
f 216 240 241
f 216 241 242
f 216 242 236
f 217 236 221
f 220 221 236
f 220 236 222
f 222 236 223
f 223 236 243
f 223 243 224
f 224 226 225
f 224 243 241
f 224 241 230
f 224 230 226
f 226 230 227
f 227 230 244
f 227 244 228
f 228 244 230
f 228 230 229
f 230 241 240
f 230 240 231
f 231 240 245
f 231 245 234
f 231 234 232
f 234 245 246
f 236 242 243
f 237 247 238
f 238 247 239
f 239 247 246
f 239 246 245
f 239 245 240
f 241 243 242
