v -0.503117 0.187126 -0.217195
v -0.500192 0.189306 -0.225504
v -0.498493 0.18568 -0.235006
v -0.449653 0.184732 -0.216624
v -0.493482 0.211748 -0.216624
v -0.499123 0.197719 -0.217299
v -0.495655 0.201132 -0.225504
v -0.489523 0.18523 -0.256695
v -0.487264 0.212128 -0.236582
v -0.488998 0.204046 -0.240649
v -0.48877 0.198169 -0.246777
v -0.487036 0.193832 -0.254895
v -0.475737 0.184732 -0.289497
v -0.356492 0.184732 -0.393441
v -0.324172 0.36202 -0.216624
v -0.481413 0.237912 -0.216624
v -0.487281 0.224854 -0.217922
v -0.488612 0.216204 -0.22784
v -0.485529 0.189448 -0.262356
v -0.480712 0.225517 -0.237689
v -0.475386 0.219545 -0.256124
v -0.463772 0.208644 -0.293998
v -0.463825 0.196581 -0.306287
v -0.47607 0.19215 -0.282123
v -0.461863 0.185704 -0.321
v -0.427527 0.184946 -0.379697
v -0.417735 0.187007 -0.393441
v -0.324172 0.236987 -0.393441
v -0.324172 0.404227 -0.216624
v -0.476805 0.240921 -0.228377
v -0.485126 0.225114 -0.225729
v -0.469553 0.260544 -0.216624
v -0.476525 0.246088 -0.219566
v -0.475964 0.232935 -0.240736
v -0.450231 0.217886 -0.315288
v -0.452088 0.209758 -0.319495
v -0.452228 0.203667 -0.325466
v -0.462038 0.192363 -0.314405
v -0.454645 0.186699 -0.335125
v -0.450161 0.199615 -0.33329
v -0.439159 0.187884 -0.359549
v -0.43937 0.202198 -0.34918
v -0.414424 0.194378 -0.393441
v -0.329707 0.317515 -0.393441
v -0.32531 0.325075 -0.389823
v -0.324172 0.349057 -0.361591
v -0.324172 0.420959 -0.236495
v -0.325083 0.424821 -0.225504
v -0.326011 0.426812 -0.216624
v -0.473529 0.240353 -0.237689
v -0.46428 0.26488 -0.227511
v -0.462931 0.260804 -0.236893
v -0.448426 0.295404 -0.216693
v -0.462318 0.272796 -0.217818
v -0.436286 0.312941 -0.216624
v -0.461355 0.234712 -0.271409
v -0.450126 0.223574 -0.309109
v -0.440298 0.228266 -0.32557
v -0.448637 0.213621 -0.32332
v -0.449547 0.189638 -0.341962
v -0.438231 0.224214 -0.33374
v -0.440053 0.212696 -0.340422
v -0.426546 0.207198 -0.36559
v -0.412007 0.20317 -0.390741
v -0.403475 0.216938 -0.392801
v -0.391143 0.237793 -0.393441
v -0.335646 0.311187 -0.393441
v -0.334227 0.321923 -0.382692
v -0.340709 0.340644 -0.352746
v -0.327027 0.332279 -0.379109
v -0.32778 0.340028 -0.368654
v -0.328236 0.352636 -0.352435
v -0.324172 0.360196 -0.34764
v -0.324172 0.414441 -0.249875
v -0.331337 0.416195 -0.235197
v -0.33668 0.415579 -0.225504
v -0.342636 0.413351 -0.216866
v -0.360907 0.397639 -0.216624
v -0.467521 0.250851 -0.238624
v -0.463054 0.249737 -0.249875
v -0.45969 0.273554 -0.225486
v -0.449582 0.283981 -0.23563
v -0.451124 0.256254 -0.268552
v -0.462896 0.255567 -0.243298
v -0.452245 0.276682 -0.239697
v -0.45249 0.270687 -0.247123
v -0.449407 0.290096 -0.225504
v -0.440316 0.306163 -0.219549
v -0.440701 0.301945 -0.22836
v -0.427545 0.325027 -0.216624
v -0.435428 0.31031 -0.226127
v -0.44995 0.229712 -0.302531
v -0.451457 0.244737 -0.281483
v -0.449723 0.235305 -0.296473
v -0.436181 0.237864 -0.323389
v -0.425478 0.248007 -0.333342
v -0.42779 0.23976 -0.33741
v -0.427685 0.23367 -0.342914
v -0.429559 0.224925 -0.347121
v -0.427142 0.220493 -0.354304
v -0.413443 0.211772 -0.381947
v -0.414161 0.231181 -0.365278
v -0.405245 0.224949 -0.383696
v -0.399148 0.227698 -0.390533
v -0.403353 0.23348 -0.379507
v -0.414582 0.244144 -0.35375
v -0.407907 0.249216 -0.358908
v -0.408188 0.261847 -0.347138
v -0.401426 0.266919 -0.352313
v -0.390232 0.256254 -0.378087
v -0.38361 0.249785 -0.393441
v -0.345754 0.300215 -0.393164
v -0.353216 0.316567 -0.365296
v -0.34889 0.324577 -0.361384
v -0.354828 0.289195 -0.393441
v -0.348329 0.336165 -0.348523
v -0.35213 0.339815 -0.339401
v -0.344002 0.343962 -0.344628
v -0.33985 0.352091 -0.339401
v -0.336207 0.348299 -0.348523
v -0.331722 0.355906 -0.344316
v -0.328096 0.366808 -0.333965
v -0.325118 0.375979 -0.322956
v -0.324172 0.383894 -0.309282
v -0.324172 0.409536 -0.259551
v -0.328796 0.414133 -0.243315
v -0.342968 0.403564 -0.241203
v -0.350168 0.399274 -0.237689
v -0.350273 0.403825 -0.2272
v -0.354408 0.402995 -0.218822
v -0.366933 0.391193 -0.21922
v -0.373502 0.385837 -0.216624
v -0.438914 0.298935 -0.237689
v -0.439317 0.29339 -0.245011
v -0.441682 0.286375 -0.249391
v -0.439264 0.256847 -0.293669
v -0.437373 0.253553 -0.301787
v -0.43781 0.242035 -0.314804
v -0.438038 0.279218 -0.266648
v -0.427387 0.318012 -0.233327
v -0.409747 0.347114 -0.216624
v -0.41742 0.337611 -0.216866
v -0.415598 0.336616 -0.225504
v -0.426441 0.322871 -0.225504
v -0.427562 0.25206 -0.324705
v -0.414792 0.268791 -0.329794
v -0.414529 0.263103 -0.336146
v -0.414879 0.256776 -0.341962
v -0.416579 0.24886 -0.346549
v -0.412094 0.252273 -0.350081
v -0.401461 0.279265 -0.340076
v -0.401653 0.272985 -0.34603
v -0.390372 0.268625 -0.366075
v -0.377969 0.258316 -0.393441
v -0.353619 0.304883 -0.378001
v -0.364551 0.315548 -0.352002
v -0.367669 0.319174 -0.343884
v -0.360241 0.323676 -0.348159
v -0.355932 0.331686 -0.344316
v -0.373099 0.265189 -0.393441
v -0.366548 0.27526 -0.392454
v -0.362904 0.287228 -0.384855
v -0.379318 0.294409 -0.355446
v -0.379125 0.306258 -0.342932
v -0.371855 0.310903 -0.347467
v -0.354968 0.342848 -0.331282
v -0.347506 0.34747 -0.33535
v -0.36406 0.327302 -0.339037
v -0.359523 0.335099 -0.33516
v -0.342898 0.354911 -0.331282
v -0.335138 0.359461 -0.33516
v -0.332861 0.369106 -0.322956
v -0.328341 0.37714 -0.315686
v -0.326291 0.387686 -0.298619
v -0.324172 0.39572 -0.286399
v -0.326502 0.40008 -0.274247
v -0.335138 0.393397 -0.273451
v -0.337275 0.403185 -0.251035
v -0.34169 0.39034 -0.268864
v -0.356895 0.393208 -0.237689
v -0.365059 0.38944 -0.229952
v -0.35954 0.396075 -0.225486
v -0.372013 0.384131 -0.226282
v -0.379353 0.37932 -0.219601
v -0.38587 0.373491 -0.216624
v -0.425408 0.315287 -0.241446
v -0.426336 0.30441 -0.255518
v -0.429104 0.296068 -0.262061
v -0.414109 0.279905 -0.316275
v -0.426108 0.279621 -0.291557
v -0.425005 0.25943 -0.320654
v -0.416193 0.331284 -0.235197
v -0.420818 0.323368 -0.238313
v -0.4153 0.31806 -0.257872
v -0.397677 0.360883 -0.216624
v -0.403055 0.354366 -0.218822
v -0.403878 0.350242 -0.2272
v -0.414442 0.274431 -0.322956
v -0.403318 0.291281 -0.32171
v -0.401426 0.284763 -0.33381
v -0.408188 0.274028 -0.334935
v -0.391458 0.294456 -0.338466
v -0.392457 0.285522 -0.346428
v -0.371347 0.322468 -0.334554
v -0.378582 0.31242 -0.336371
v -0.383295 0.297798 -0.346411
v -0.3889 0.303272 -0.332009
v -0.36688 0.330383 -0.330919
v -0.363482 0.338914 -0.322956
v -0.357386 0.345408 -0.322956
v -0.352463 0.352423 -0.319841
v -0.345456 0.357352 -0.322956
v -0.338957 0.363442 -0.322956
v -0.341304 0.377851 -0.292578
v -0.349205 0.373822 -0.286433
v -0.362991 0.387496 -0.237689
v -0.37655 0.376524 -0.234193
v -0.389479 0.36503 -0.229952
v -0.39123 0.366902 -0.21922
v -0.413285 0.315382 -0.265991
v -0.402162 0.304623 -0.304591
v -0.408678 0.299125 -0.299363
v -0.423866 0.311045 -0.250827
v -0.411586 0.286636 -0.311636
v -0.399341 0.3501 -0.237689
v -0.403598 0.34292 -0.241203
v -0.414161 0.328772 -0.243315
v -0.396538 0.299172 -0.323735
v -0.379423 0.318771 -0.326505
v -0.376217 0.32716 -0.319321
v -0.36914 0.332824 -0.322956
v -0.377882 0.341261 -0.292578
v -0.367546 0.343251 -0.308122
v -0.363727 0.35138 -0.301181
v -0.366565 0.366523 -0.269833
v -0.353777 0.365907 -0.293063
v -0.348329 0.360433 -0.312415
v -0.346367 0.370765 -0.296888
v -0.369491 0.381382 -0.237689
v -0.381438 0.369462 -0.237689
v -0.393245 0.356854 -0.237689
v -0.392737 0.320169 -0.298619
v -0.390389 0.341663 -0.268864
v -0.400602 0.339294 -0.252853
v -0.393438 0.335099 -0.273451
f 1 2 3
f 1 3 4
f 1 4 5
f 1 5 6
f 1 6 2
f 2 6 7
f 2 7 3
f 3 8 4
f 3 7 9
f 3 9 10
f 3 10 11
f 3 11 12
f 3 12 8
f 4 8 13
f 4 13 14
f 4 14 15
f 4 15 29
f 4 29 49
f 4 49 78
f 4 78 132
f 4 132 185
f 4 185 195
f 4 195 141
f 4 141 90
f 4 90 55
f 4 55 32
f 4 32 16
f 4 16 5
f 5 7 6
f 5 16 17
f 5 17 18
f 5 18 7
f 7 18 9
f 8 12 19
f 8 19 13
f 9 18 20
f 9 20 21
f 9 21 22
f 9 22 23
f 9 23 10
f 10 23 24
f 10 24 11
f 11 24 12
f 12 24 19
f 13 19 24
f 13 24 25
f 13 25 26
f 13 26 14
f 14 26 27
f 14 27 43
f 14 43 66
f 14 66 111
f 14 111 154
f 14 154 160
f 14 160 115
f 14 115 67
f 14 67 44
f 14 44 28
f 14 28 15
f 15 28 46
f 15 46 73
f 15 73 124
f 15 124 175
f 15 175 125
f 15 125 74
f 15 74 47
f 15 47 29
f 16 30 31
f 16 31 17
f 16 32 33
f 16 33 30
f 17 31 18
f 18 31 30
f 18 30 20
f 20 30 34
f 20 34 21
f 21 34 35
f 21 35 22
f 22 36 37
f 22 37 23
f 22 35 36
f 23 37 38
f 23 38 24
f 24 38 25
f 25 39 26
f 25 38 37
f 25 37 40
f 25 40 39
f 26 39 41
f 26 41 42
f 26 42 43
f 26 43 27
f 28 44 45
f 28 45 46
f 29 47 48
f 29 48 49
f 30 50 34
f 30 33 51
f 30 51 52
f 30 52 50
f 32 53 54
f 32 54 51
f 32 51 33
f 32 55 53
f 34 50 56
f 34 56 57
f 34 57 35
f 35 57 58
f 35 58 59
f 35 59 36
f 36 59 37
f 37 59 40
f 39 60 41
f 39 40 60
f 40 59 61
f 40 61 62
f 40 62 60
f 41 60 42
f 42 63 43
f 42 60 62
f 42 62 63
f 43 63 64
f 43 64 65
f 43 65 66
f 44 67 68
f 44 68 69
f 44 69 45
f 45 69 70
f 45 70 46
f 46 70 71
f 46 71 72
f 46 72 73
f 47 74 75
f 47 75 48
f 48 75 76
f 48 76 49
f 49 76 77
f 49 77 78
f 50 52 79
f 50 79 80
f 50 80 56
f 51 54 81
f 51 81 82
f 51 82 52
f 52 83 84
f 52 84 79
f 52 82 85
f 52 85 86
f 52 86 83
f 53 87 54
f 53 55 88
f 53 88 89
f 53 89 87
f 54 87 81
f 55 90 91
f 55 91 88
f 56 92 57
f 56 80 93
f 56 93 94
f 56 94 92
f 57 92 58
f 58 61 59
f 58 92 94
f 58 94 95
f 58 95 96
f 58 96 61
f 61 96 97
f 61 97 98
f 61 98 62
f 62 98 99
f 62 99 63
f 63 99 100
f 63 100 101
f 63 101 64
f 64 101 65
f 65 101 102
f 65 102 103
f 65 103 104
f 65 104 66
f 66 104 105
f 66 105 106
f 66 106 107
f 66 107 108
f 66 108 109
f 66 109 110
f 66 110 111
f 67 112 113
f 67 113 114
f 67 114 68
f 67 115 112
f 68 114 69
f 69 116 117
f 69 117 118
f 69 118 119
f 69 119 120
f 69 120 71
f 69 71 70
f 69 114 116
f 71 120 121
f 71 121 72
f 72 121 73
f 73 121 122
f 73 122 123
f 73 123 124
f 74 125 126
f 74 126 75
f 75 126 127
f 75 127 128
f 75 128 129
f 75 129 76
f 76 129 77
f 77 129 130
f 77 130 78
f 78 131 132
f 78 130 131
f 79 84 80
f 80 84 83
f 80 83 93
f 81 87 82
f 82 87 89
f 82 89 133
f 82 133 134
f 82 134 135
f 82 135 85
f 83 136 137
f 83 137 138
f 83 138 95
f 83 95 93
f 83 86 136
f 85 135 86
f 86 135 139
f 86 139 136
f 88 91 89
f 89 91 140
f 89 140 133
f 90 141 142
f 90 142 143
f 90 143 144
f 90 144 91
f 91 144 140
f 93 95 94
f 95 138 137
f 95 137 145
f 95 145 96
f 96 145 146
f 96 146 147
f 96 147 148
f 96 148 97
f 97 148 149
f 97 149 106
f 97 106 98
f 98 102 99
f 98 106 102
f 99 101 100
f 99 102 101
f 102 104 103
f 102 106 105
f 102 105 104
f 106 149 148
f 106 148 150
f 106 150 107
f 107 150 108
f 108 150 148
f 108 148 151
f 108 151 152
f 108 152 109
f 109 153 154
f 109 154 110
f 109 152 153
f 110 154 111
f 112 155 113
f 112 115 155
f 113 156 157
f 113 157 158
f 113 158 159
f 113 159 114
f 113 155 156
f 114 159 116
f 115 160 161
f 115 161 162
f 115 162 163
f 115 163 164
f 115 164 165
f 115 165 155
f 116 159 117
f 117 166 167
f 117 167 119
f 117 119 118
f 117 159 168
f 117 168 169
f 117 169 166
f 119 170 171
f 119 171 122
f 119 122 121
f 119 121 120
f 119 167 170
f 122 172 123
f 122 171 170
f 122 170 172
f 123 172 173
f 123 173 124
f 124 173 174
f 124 174 175
f 125 175 176
f 125 176 126
f 126 176 177
f 126 177 178
f 126 178 127
f 127 178 177
f 127 177 179
f 127 179 128
f 128 179 180
f 128 180 181
f 128 181 129
f 129 181 182
f 129 182 130
f 130 182 131
f 131 182 183
f 131 183 132
f 132 183 184
f 132 184 185
f 133 140 186
f 133 186 134
f 134 186 187
f 134 187 188
f 134 188 189
f 134 189 190
f 134 190 135
f 135 190 139
f 136 191 145
f 136 145 137
f 136 139 190
f 136 190 191
f 140 144 143
f 140 143 192
f 140 192 193
f 140 193 194
f 140 194 186
f 141 143 142
f 141 195 196
f 141 196 197
f 141 197 143
f 143 197 192
f 145 191 146
f 146 190 198
f 146 198 199
f 146 199 200
f 146 200 201
f 146 201 147
f 146 191 190
f 147 201 151
f 147 151 148
f 151 201 200
f 151 200 202
f 151 202 203
f 151 203 152
f 152 203 153
f 153 160 154
f 153 203 160
f 155 165 156
f 156 165 157
f 157 204 168
f 157 168 158
f 157 165 164
f 157 164 205
f 157 205 204
f 158 168 159
f 160 203 161
f 161 203 163
f 161 163 162
f 163 203 206
f 163 206 164
f 164 207 205
f 164 206 202
f 164 202 207
f 166 169 208
f 166 208 209
f 166 209 210
f 166 210 211
f 166 211 170
f 166 170 167
f 168 208 169
f 168 204 208
f 170 211 212
f 170 212 213
f 170 213 172
f 172 213 214
f 172 214 179
f 172 179 173
f 173 179 177
f 173 177 174
f 174 177 176
f 174 176 175
f 179 214 180
f 180 214 215
f 180 215 216
f 180 216 181
f 181 183 182
f 181 216 217
f 181 217 183
f 183 217 184
f 184 217 218
f 184 218 185
f 185 218 219
f 185 219 195
f 186 194 220
f 186 220 221
f 186 221 222
f 186 222 223
f 186 223 187
f 187 223 222
f 187 222 188
f 188 224 189
f 188 222 224
f 189 198 190
f 189 224 199
f 189 199 198
f 192 197 225
f 192 225 226
f 192 226 227
f 192 227 193
f 193 227 194
f 194 221 220
f 194 227 221
f 195 219 196
f 196 219 218
f 196 218 197
f 197 218 225
f 199 224 222
f 199 222 221
f 199 221 228
f 199 228 200
f 200 228 207
f 200 207 202
f 202 206 203
f 204 205 229
f 204 229 208
f 205 207 229
f 207 228 229
f 208 229 230
f 208 230 231
f 208 231 209
f 209 232 233
f 209 233 234
f 209 234 210
f 209 231 232
f 210 234 211
f 211 234 235
f 211 235 236
f 211 236 237
f 211 237 212
f 212 237 213
f 213 238 214
f 213 237 238
f 214 238 215
f 215 238 237
f 215 237 236
f 215 236 216
f 216 239 217
f 216 236 239
f 217 235 240
f 217 240 218
f 217 239 235
f 218 240 241
f 218 241 225
f 221 227 242
f 221 242 229
f 221 229 228
f 225 241 243
f 225 243 226
f 226 243 244
f 226 244 227
f 227 244 245
f 227 245 242
f 229 242 230
f 230 243 231
f 230 242 243
f 231 243 232
f 232 243 241
f 232 241 233
f 233 241 234
f 234 241 240
f 234 240 235
f 235 239 236
f 242 245 243
f 243 245 244
