v -0.375732 -0.141661 -0.393441
v -0.435286 -0.141661 -0.393441
v -0.401582 -8.99713e-05 -0.393441
v -0.482009 -8.99713e-05 -0.22919
v -0.460688 -0.141661 -0.22919
v -0.435657 -0.140552 -0.393441
v -0.436554 -0.141661 -0.391415
v -0.457735 -8.99713e-05 -0.393441
v -0.533663 -8.99713e-05 -0.22919
v -0.514692 -0.141661 -0.22919
v -0.4381 -0.141661 -0.388923
v -0.439492 -0.127969 -0.393441
v -0.463208 -8.99713e-05 -0.384131
v -0.457735 -0.00610424 -0.393441
v -0.533663 -0.0066447 -0.22919
v -0.531019 -8.99713e-05 -0.237664
v -0.516965 -0.132681 -0.22919
v -0.513595 -0.141661 -0.23276
v -0.439492 -0.141661 -0.386655
v -0.44161 -0.139568 -0.384244
v -0.440497 -0.124353 -0.393441
v -0.451675 -0.141661 -0.366797
v -0.451907 -0.14015 -0.367167
v -0.450948 -0.121817 -0.377796
v -0.487945 -8.99713e-05 -0.342003
v -0.487945 -0.00610424 -0.342003
v -0.457349 -0.0182852 -0.393441
v -0.533338 -0.0182852 -0.22919
v -0.531019 -0.00610424 -0.237664
v -0.525113 -8.99713e-05 -0.252554
v -0.523273 -0.106601 -0.22919
v -0.51327 -0.14015 -0.235027
v -0.513054 -0.141661 -0.234512
v -0.443001 -0.115331 -0.393441
v -0.465218 -0.141661 -0.344672
v -0.461724 -0.14015 -0.351136
v -0.451922 -0.113682 -0.379404
v -0.445831 -0.103594 -0.393441
v -0.444022 -0.111105 -0.393441
v -0.46545 -0.14015 -0.345042
v -0.462806 -0.132944 -0.352905
v -0.466903 -0.12851 -0.348242
v -0.463966 -0.12481 -0.354834
v -0.474541 -0.11856 -0.339848
v -0.471557 -0.115012 -0.346296
v -0.46511 -0.115775 -0.356716
v -0.489693 -8.99713e-05 -0.338626
v -0.487744 -0.0182852 -0.341665
v -0.491486 -0.00610424 -0.335153
v -0.45673 -0.0304801 -0.393441
v -0.487605 -0.0259901 -0.341408
v -0.532874 -0.0304801 -0.22919
v -0.530617 -0.0182852 -0.237664
v -0.526334 -0.00610424 -0.24945
v -0.526133 -0.0182852 -0.248952
v -0.504349 -8.99713e-05 -0.304651
v -0.502015 -0.00610424 -0.310504
v -0.51647 -0.00610424 -0.274229
v -0.521325 -0.00610424 -0.26204
v -0.523474 -0.105755 -0.22919
v -0.518171 -0.115775 -0.237664
v -0.514708 -0.128801 -0.238677
v -0.511739 -0.133429 -0.243404
v -0.510781 -0.14015 -0.241121
v -0.510564 -0.141661 -0.240607
v -0.470011 -0.141661 -0.336166
v -0.47332 -0.127969 -0.337549
v -0.446588 -0.100282 -0.393441
v -0.453097 -0.103594 -0.381381
v -0.463425 -0.0987296 -0.366106
v -0.476535 -0.127969 -0.331455
v -0.477618 -0.115012 -0.335539
v -0.480462 -0.103594 -0.335153
v -0.4755 -0.110439 -0.341537
v -0.472624 -0.103594 -0.348965
v -0.491486 -8.99713e-05 -0.335153
v -0.491099 -0.0182852 -0.335153
v -0.497036 -0.00610424 -0.322965
v -0.494222 -8.99713e-05 -0.329156
v -0.455772 -0.0421067 -0.393441
v -0.487358 -0.0341108 -0.34099
v -0.484529 -0.0302168 -0.346216
v -0.490033 -0.0302168 -0.336215
v -0.532611 -0.0341801 -0.22919
v -0.530153 -0.0304801 -0.237664
v -0.525901 -0.0304801 -0.248373
v -0.520923 -0.0182852 -0.26204
v -0.502015 -8.99713e-05 -0.310504
v -0.499386 -0.0182852 -0.316083
v -0.501814 -0.0182852 -0.310005
v -0.506359 -0.0182852 -0.298605
v -0.524541 -0.100088 -0.22919
v -0.524216 -0.0982307 -0.23194
v -0.511971 -0.110051 -0.256171
v -0.512683 -0.125309 -0.24572
v -0.521387 -0.102818 -0.236667
v -0.488131 -0.124325 -0.30621
v -0.500283 -0.136035 -0.269582
v -0.498057 -0.116689 -0.286417
v -0.489151 -0.115775 -0.308703
v -0.483307 -0.115775 -0.322965
v -0.499433 -0.141661 -0.26754
v -0.470908 -0.141661 -0.334542
v -0.471727 -0.139471 -0.334269
v -0.475592 -0.134954 -0.329606
v -0.450407 -0.094891 -0.3891
v -0.448382 -0.092161 -0.393441
v -0.451257 -0.0867703 -0.390515
v -0.448954 -0.0894449 -0.393441
v -0.476288 -0.103594 -0.342871
v -0.47754 -0.0913988 -0.344978
v -0.480277 -0.127969 -0.322965
v -0.485905 -0.104564 -0.322997
v -0.482936 -0.0913988 -0.335153
v -0.486817 -0.0913988 -0.327355
v -0.496109 -0.0304801 -0.322965
v -0.496634 -0.0182852 -0.322965
v -0.497036 -8.99713e-05 -0.322965
v -0.454659 -0.0531929 -0.393441
v -0.463131 -0.0608979 -0.377812
v -0.466486 -0.0560476 -0.37294
v -0.473119 -0.0548559 -0.361893
v -0.477309 -0.042661 -0.356812
v -0.48289 -0.042661 -0.347341
v -0.486987 -0.042661 -0.340315
v -0.490125 -0.042661 -0.334221
v -0.532008 -0.042661 -0.22919
v -0.529287 -0.042661 -0.237664
v -0.525484 -0.042661 -0.247279
v -0.523474 -0.0304801 -0.254467
v -0.512203 -0.0398341 -0.281127
v -0.510085 -0.0304801 -0.288009
v -0.525391 -0.0953206 -0.22919
v -0.526999 -0.0849411 -0.22919
v -0.524773 -0.0913988 -0.233355
v -0.523335 -0.0792178 -0.241941
v -0.52233 -0.0913988 -0.239449
v -0.511322 -0.0913988 -0.266736
v -0.503375 -0.0913988 -0.286417
v -0.499757 -0.097815 -0.292688
v -0.488347 -0.101141 -0.318961
v -0.485379 -0.128219 -0.310488
v -0.485966 -0.14015 -0.301001
v -0.497268 -0.140123 -0.273875
v -0.497949 -0.141661 -0.271125
v -0.487095 -0.132446 -0.303718
v -0.477092 -0.139471 -0.322804
v -0.475438 -0.141661 -0.3252
v -0.474572 -0.141661 -0.327242
v -0.450824 -0.0792178 -0.393441
v -0.474742 -0.081837 -0.352471
v -0.485178 -0.0800077 -0.334623
v -0.485642 -0.0670369 -0.337726
v -0.477989 -0.0783448 -0.347985
v -0.487389 -0.0845947 -0.32877
v -0.49784 -0.0913988 -0.300116
v -0.495166 -0.042661 -0.322965
v -0.454473 -0.0549806 -0.393441
v -0.453004 -0.0658867 -0.393441
v -0.452788 -0.067411 -0.393441
v -0.475422 -0.0737025 -0.353596
v -0.480153 -0.0670369 -0.347341
v -0.481684 -0.0548559 -0.347341
v -0.486399 -0.0548559 -0.339189
v -0.489522 -0.0548559 -0.333095
v -0.530802 -0.0548559 -0.22919
v -0.528081 -0.0548559 -0.237664
v -0.524881 -0.0548559 -0.245784
v -0.49866 -0.042661 -0.314266
v -0.5005 -0.0548559 -0.306693
v -0.527819 -0.0792178 -0.22919
v -0.525762 -0.0792178 -0.235847
v -0.523922 -0.0718455 -0.243388
v -0.512512 -0.0769175 -0.269694
v -0.511848 -0.085052 -0.268038
v -0.498845 -0.0792178 -0.302609
v -0.496109 -0.141661 -0.275547
v -0.465249 -0.0792178 -0.369177
v -0.471789 -0.0783448 -0.35842
v -0.488054 -0.0764602 -0.330185
v -0.48878 -0.0670369 -0.331632
v -0.490064 -0.0800077 -0.32401
v -0.492491 -0.0670369 -0.322965
v -0.495537 -0.0792178 -0.310793
v -0.493975 -0.0548559 -0.322965
v -0.529442 -0.0671754 -0.22919
v -0.524402 -0.0637387 -0.24461
v -0.526303 -0.0674942 -0.238661
v -0.50002 -0.0633507 -0.305535
v -0.528916 -0.0713743 -0.22919
v -0.499464 -0.0714713 -0.304136
v -0.505385 -0.0792178 -0.286417
f 1 2 6
f 1 6 12
f 1 12 21
f 1 21 34
f 1 34 39
f 1 39 38
f 1 38 68
f 1 68 107
f 1 107 109
f 1 109 150
f 1 150 160
f 1 160 159
f 1 159 158
f 1 158 119
f 1 119 80
f 1 80 50
f 1 50 27
f 1 27 14
f 1 14 8
f 1 8 3
f 1 3 4
f 1 4 5
f 1 5 10
f 1 10 18
f 1 18 33
f 1 33 65
f 1 65 102
f 1 102 145
f 1 145 177
f 1 177 148
f 1 148 149
f 1 149 103
f 1 103 66
f 1 66 35
f 1 35 22
f 1 22 19
f 1 19 11
f 1 11 7
f 1 7 2
f 2 7 6
f 3 8 13
f 3 13 25
f 3 25 47
f 3 47 76
f 3 76 79
f 3 79 118
f 3 118 88
f 3 88 56
f 3 56 30
f 3 30 16
f 3 16 9
f 3 9 4
f 4 9 15
f 4 15 28
f 4 28 52
f 4 52 84
f 4 84 127
f 4 127 166
f 4 166 186
f 4 186 190
f 4 190 171
f 4 171 134
f 4 134 133
f 4 133 92
f 4 92 60
f 4 60 31
f 4 31 17
f 4 17 10
f 4 10 5
f 6 7 11
f 6 11 12
f 8 14 13
f 9 16 29
f 9 29 15
f 10 17 18
f 11 19 20
f 11 20 12
f 12 20 22
f 12 22 23
f 12 23 24
f 12 24 21
f 13 14 26
f 13 26 25
f 14 27 26
f 15 29 28
f 16 30 29
f 17 31 32
f 17 32 33
f 17 33 18
f 19 22 20
f 21 24 34
f 22 35 36
f 22 36 23
f 23 36 24
f 24 37 38
f 24 38 39
f 24 39 34
f 24 36 40
f 24 40 41
f 24 41 42
f 24 42 43
f 24 43 44
f 24 44 45
f 24 45 46
f 24 46 37
f 25 26 47
f 26 48 49
f 26 49 47
f 26 27 48
f 27 50 51
f 27 51 48
f 28 29 53
f 28 53 85
f 28 85 52
f 29 30 54
f 29 54 55
f 29 55 53
f 30 56 57
f 30 57 58
f 30 58 59
f 30 59 54
f 31 60 61
f 31 61 32
f 32 61 62
f 32 62 63
f 32 63 64
f 32 64 65
f 32 65 33
f 35 66 67
f 35 67 40
f 35 40 36
f 37 46 38
f 38 46 69
f 38 69 70
f 38 70 68
f 40 42 41
f 40 67 42
f 42 67 44
f 42 44 43
f 44 67 71
f 44 71 72
f 44 72 73
f 44 73 74
f 44 74 45
f 45 74 46
f 46 74 75
f 46 75 69
f 47 49 76
f 48 51 77
f 48 77 49
f 49 77 78
f 49 78 79
f 49 79 76
f 50 80 81
f 50 81 82
f 50 82 51
f 51 82 81
f 51 81 83
f 51 83 77
f 52 85 84
f 53 55 86
f 53 86 85
f 54 59 55
f 55 59 87
f 55 87 86
f 56 88 57
f 57 89 90
f 57 90 91
f 57 91 58
f 57 88 118
f 57 118 78
f 57 78 89
f 58 91 87
f 58 87 59
f 60 92 93
f 60 93 61
f 61 94 95
f 61 95 63
f 61 63 62
f 61 93 96
f 61 96 94
f 63 97 98
f 63 98 64
f 63 95 94
f 63 94 99
f 63 99 100
f 63 100 101
f 63 101 97
f 64 98 65
f 65 98 102
f 66 103 104
f 66 104 67
f 67 104 105
f 67 105 71
f 68 70 106
f 68 106 107
f 69 75 70
f 70 108 109
f 70 109 107
f 70 107 106
f 70 75 110
f 70 110 111
f 70 111 108
f 71 73 72
f 71 105 112
f 71 112 101
f 71 101 113
f 71 113 73
f 73 114 110
f 73 110 74
f 73 113 115
f 73 115 114
f 74 110 75
f 77 83 116
f 77 116 117
f 77 117 78
f 78 118 79
f 78 117 89
f 80 119 120
f 80 120 121
f 80 121 122
f 80 122 123
f 80 123 124
f 80 124 81
f 81 124 125
f 81 125 126
f 81 126 83
f 83 126 116
f 84 85 128
f 84 128 127
f 85 86 129
f 85 129 128
f 86 87 91
f 86 91 130
f 86 130 131
f 86 131 129
f 89 132 90
f 89 117 116
f 89 116 132
f 90 132 130
f 90 130 91
f 92 133 93
f 93 133 134
f 93 134 135
f 93 135 136
f 93 136 137
f 93 137 138
f 93 138 139
f 93 139 140
f 93 140 96
f 94 100 99
f 94 96 140
f 94 140 141
f 94 141 113
f 94 113 100
f 97 142 98
f 97 101 112
f 97 112 142
f 98 143 144
f 98 144 145
f 98 145 102
f 98 142 146
f 98 146 105
f 98 105 147
f 98 147 148
f 98 148 143
f 100 113 101
f 103 149 105
f 103 105 104
f 105 149 148
f 105 148 147
f 105 146 112
f 108 150 109
f 108 111 151
f 108 151 150
f 110 114 111
f 111 114 152
f 111 152 153
f 111 153 154
f 111 154 151
f 112 146 142
f 113 141 115
f 114 115 155
f 114 155 152
f 115 141 140
f 115 140 156
f 115 156 155
f 116 126 157
f 116 157 131
f 116 131 132
f 119 158 120
f 120 158 159
f 120 159 160
f 120 160 161
f 120 161 162
f 120 162 163
f 120 163 122
f 120 122 121
f 122 163 124
f 122 124 123
f 124 163 125
f 125 164 126
f 125 163 164
f 126 164 165
f 126 165 157
f 127 128 167
f 127 167 166
f 128 129 168
f 128 168 167
f 129 131 169
f 129 169 170
f 129 170 168
f 130 132 131
f 131 157 169
f 134 171 172
f 134 172 135
f 135 172 136
f 136 172 173
f 136 173 174
f 136 174 175
f 136 175 137
f 137 175 138
f 138 175 139
f 139 175 176
f 139 176 155
f 139 155 156
f 139 156 140
f 143 148 144
f 144 177 145
f 144 148 177
f 150 151 178
f 150 178 160
f 151 154 179
f 151 179 178
f 152 155 180
f 152 180 153
f 153 180 181
f 153 181 164
f 153 164 162
f 153 162 154
f 154 162 161
f 154 161 179
f 155 182 183
f 155 183 180
f 155 176 184
f 155 184 182
f 157 165 185
f 157 185 169
f 160 178 179
f 160 179 161
f 162 164 163
f 164 181 165
f 165 181 185
f 166 167 186
f 167 168 187
f 167 187 188
f 167 188 186
f 168 170 187
f 169 185 170
f 170 189 187
f 170 185 189
f 171 190 172
f 172 190 186
f 172 186 188
f 172 188 173
f 173 191 174
f 173 188 187
f 173 187 189
f 173 189 183
f 173 183 191
f 174 191 176
f 174 176 192
f 174 192 175
f 175 192 176
f 176 191 184
f 180 183 181
f 181 183 185
f 182 184 191
f 182 191 183
f 183 189 185
