v -0.213418 -0.490279 -0.226134
v -0.213418 -0.490421 -0.225674
v -0.213418 -0.433382 -0.226134
v -0.201735 -0.495204 -0.226134
v -0.213418 -0.490538 -0.225233
v -0.201088 -0.495683 -0.225444
v -0.213418 -0.524002 -0.0303746
v -0.213397 -0.470618 -0.0303746
v 9.07886e-05 -0.516835 -0.0303746
v 9.07886e-05 -0.483163 -0.226134
v -0.192038 -0.499001 -0.226134
v -0.213418 -0.493 -0.215844
v -0.205727 -0.499144 -0.20496
v -0.192811 -0.498897 -0.225444
v -0.201422 -0.498418 -0.214445
v -0.213418 -0.516951 -0.115799
v -0.206375 -0.523769 -0.0670507
v -0.210283 -0.525233 -0.0303746
v 9.07886e-05 -0.565787 -0.0303746
v 9.07886e-05 -0.534604 -0.226134
v -0.186479 -0.501075 -0.226134
v -0.186751 -0.501165 -0.225444
v -0.213418 -0.493635 -0.21341
v -0.194943 -0.499675 -0.219274
v -0.201359 -0.513867 -0.15213
v -0.205623 -0.511288 -0.156039
v -0.208172 -0.512286 -0.147914
v -0.208214 -0.500155 -0.196835
v -0.205058 -0.523276 -0.0792377
v -0.213418 -0.514865 -0.128484
v -0.194546 -0.523911 -0.119938
v -0.200147 -0.522149 -0.115837
v -0.18884 -0.533333 -0.0303746
v -0.201088 -0.528719 -0.0303746
v -0.0183008 -0.565385 -0.0303746
v -0.00609546 -0.565761 -0.0304321
v -0.00247984 -0.560719 -0.0985722
v 9.07886e-05 -0.560719 -0.0985722
v 9.07886e-05 -0.535109 -0.224505
v -0.00684783 -0.534604 -0.226134
v -0.177388 -0.504419 -0.226134
v -0.176719 -0.504859 -0.225444
v -0.176719 -0.507931 -0.213257
v -0.190074 -0.502708 -0.214445
v -0.213418 -0.496772 -0.201012
v -0.212687 -0.497109 -0.200974
v -0.183887 -0.524494 -0.135727
v -0.201088 -0.516925 -0.140135
v -0.210513 -0.513258 -0.140135
v -0.213418 -0.512687 -0.137605
v -0.213418 -0.499079 -0.191872
v -0.189865 -0.526011 -0.115837
v -0.201088 -0.519855 -0.127986
v -0.186374 -0.525402 -0.127986
v -0.176719 -0.528719 -0.127986
v -0.176719 -0.530612 -0.115799
v -0.188882 -0.527372 -0.103612
v -0.181776 -0.535939 -0.0303746
v -0.0304851 -0.56497 -0.0303746
v -0.0315301 -0.56033 -0.0911948
v -0.0105888 -0.560589 -0.0968476
v -0.00636715 -0.560252 -0.103037
v -0.00609546 -0.55928 -0.115799
v 9.07886e-05 -0.55928 -0.115799
v 9.07886e-05 -0.536366 -0.219829
v -0.00693143 -0.535109 -0.224505
v -0.0183008 -0.534305 -0.226134
v -0.160271 -0.510095 -0.226134
v -0.163615 -0.509447 -0.224639
v -0.167774 -0.511003 -0.213257
v -0.170344 -0.51178 -0.206818
v -0.181275 -0.511339 -0.192792
v -0.184034 -0.512337 -0.184667
v -0.181066 -0.523483 -0.143852
v -0.176886 -0.525829 -0.139943
v -0.164513 -0.529692 -0.140135
v -0.164513 -0.532556 -0.127986
v -0.15793 -0.536094 -0.119995
v -0.163615 -0.534681 -0.115875
v -0.166165 -0.534902 -0.103612
v -0.170303 -0.536159 -0.0719753
v -0.175674 -0.537818 -0.0304896
v -0.175548 -0.537844 -0.0303746
v -0.0425441 -0.564192 -0.0303746
v -0.0426695 -0.564192 -0.0304896
v -0.0362952 -0.560615 -0.0852163
v -0.0304851 -0.558477 -0.115799
v -0.0183008 -0.557077 -0.127986
v -0.00609546 -0.557466 -0.127986
v 9.07886e-05 -0.558399 -0.121816
v -0.00344122 -0.536366 -0.219829
v 9.07886e-05 -0.554744 -0.140135
v -0.0183008 -0.534513 -0.225444
v -0.0304851 -0.533839 -0.226134
v -0.153395 -0.512195 -0.226134
v -0.158954 -0.512052 -0.220021
v -0.169885 -0.523859 -0.157515
v -0.15141 -0.533878 -0.139291
v -0.146749 -0.536392 -0.134673
v -0.149257 -0.537183 -0.127986
v -0.140124 -0.541434 -0.115799
v -0.153249 -0.537844 -0.115875
v -0.158996 -0.536431 -0.111871
v -0.164513 -0.541213 -0.0303746
v -0.0547494 -0.563013 -0.0303746
v -0.0426695 -0.562339 -0.0548637
v -0.03966 -0.560939 -0.0770916
v -0.0669965 -0.561808 -0.0304321
v -0.0548539 -0.56208 -0.0426766
v -0.0432965 -0.561315 -0.0675298
v -0.0426695 -0.557673 -0.115799
v -0.0304851 -0.556675 -0.127986
v -0.0183008 -0.554342 -0.140135
v -0.00609546 -0.554744 -0.140135
v 9.07886e-05 -0.557466 -0.127986
v -0.00609546 -0.549482 -0.162861
v -0.00609546 -0.543456 -0.188883
v -0.0183008 -0.537546 -0.212701
v -0.0183008 -0.536133 -0.218795
v -0.0304851 -0.534046 -0.225444
v -0.0426695 -0.533204 -0.225444
v -0.0426695 -0.532984 -0.226134
v -0.151033 -0.512895 -0.226134
v -0.151869 -0.513037 -0.224639
v -0.152308 -0.515707 -0.213257
v -0.151681 -0.525026 -0.175565
v -0.147167 -0.524352 -0.183958
v -0.140124 -0.519219 -0.213257
v -0.135505 -0.524443 -0.196605
v -0.142903 -0.535433 -0.142798
v -0.139371 -0.537144 -0.139291
v -0.140124 -0.539593 -0.127986
v -0.109046 -0.548329 -0.12057
v -0.127939 -0.54435 -0.115799
v -0.14259 -0.54759 -0.0303746
v -0.152308 -0.539101 -0.103612
v -0.152287 -0.544894 -0.0304321
v -0.0914489 -0.558231 -0.0303746
v -0.0749383 -0.560913 -0.030413
v -0.0426695 -0.559553 -0.0914248
v -0.07335 -0.560667 -0.037043
v -0.0548539 -0.55836 -0.0914248
v -0.0549375 -0.56116 -0.0546337
v -0.0426695 -0.555872 -0.127986
v -0.0548539 -0.556481 -0.115799
v -0.0304851 -0.553928 -0.140135
v -0.0304851 -0.537325 -0.211724
v -0.0304851 -0.535887 -0.217817
v -0.0426695 -0.535472 -0.215997
v -0.0548539 -0.531986 -0.225444
v -0.0548539 -0.531778 -0.226134
v -0.140834 -0.515837 -0.226134
v -0.140124 -0.5162 -0.225444
v -0.127939 -0.519297 -0.225444
v -0.131576 -0.523496 -0.20473
v -0.134794 -0.536444 -0.147014
v -0.127939 -0.539671 -0.140135
v -0.127939 -0.542484 -0.127986
v -0.10449 -0.547564 -0.128312
v -0.101 -0.549029 -0.124537
v -0.0792227 -0.553656 -0.115799
v -0.0914489 -0.551673 -0.115799
v -0.10449 -0.549443 -0.11624
v -0.103612 -0.551517 -0.0914248
v -0.103508 -0.556248 -0.0303746
v -0.110572 -0.548666 -0.112445
v -0.115107 -0.547318 -0.11624
v -0.115776 -0.545335 -0.127986
v -0.127939 -0.546255 -0.0914248
v -0.133624 -0.548355 -0.0475438
v -0.136529 -0.549003 -0.0304321
v -0.127835 -0.551037 -0.0303746
v -0.0914489 -0.556364 -0.0548637
v -0.081041 -0.559928 -0.0304321
v -0.0670383 -0.555263 -0.115799
v -0.0426695 -0.553111 -0.140135
v -0.0548539 -0.554679 -0.127986
v -0.0400571 -0.548795 -0.159891
v -0.0426695 -0.538958 -0.20107
v -0.0550002 -0.535044 -0.212624
v -0.0670383 -0.533619 -0.213257
v -0.0670383 -0.530677 -0.225444
v -0.0670592 -0.530456 -0.226134
v -0.128796 -0.518882 -0.226134
v -0.127668 -0.522434 -0.212969
v -0.127981 -0.519077 -0.226134
v -0.113038 -0.522615 -0.226134
v -0.115462 -0.52233 -0.225099
v -0.111157 -0.524417 -0.220807
v -0.115776 -0.528046 -0.20107
v -0.122589 -0.536431 -0.159124
v -0.115776 -0.542522 -0.140135
v -0.103612 -0.544998 -0.140135
v -0.0955661 -0.548108 -0.132623
v -0.0874571 -0.548795 -0.135536
v -0.0792227 -0.551841 -0.127986
v -0.115713 -0.553837 -0.0303746
v -0.124261 -0.549016 -0.0670507
v -0.0670383 -0.553448 -0.127986
v -0.0670383 -0.550701 -0.140135
v -0.0548539 -0.549482 -0.150655
v -0.0591801 -0.536081 -0.206416
v -0.0670383 -0.535653 -0.204576
v -0.073559 -0.54851 -0.146516
v -0.0750846 -0.536574 -0.196337
v -0.0792227 -0.531921 -0.213257
v -0.0792227 -0.528966 -0.225444
v -0.0678116 -0.530365 -0.226134
v -0.10378 -0.524611 -0.226134
v -0.1103 -0.536392 -0.171235
v -0.114919 -0.537118 -0.163723
v -0.102839 -0.525052 -0.225099
v -0.103612 -0.527722 -0.213257
v -0.103612 -0.535589 -0.179992
v -0.0970918 -0.536172 -0.182502
v -0.0914489 -0.544207 -0.152322
v -0.0782613 -0.549301 -0.139809
v -0.0670383 -0.537079 -0.198483
v -0.07916 -0.534889 -0.200667
v -0.0914489 -0.529899 -0.213257
v -0.0921177 -0.526685 -0.226134
v -0.0802468 -0.528616 -0.226134
v -0.10217 -0.524909 -0.226134
f 1 2 5
f 1 5 12
f 1 12 23
f 1 23 45
f 1 45 51
f 1 51 50
f 1 50 30
f 1 30 16
f 1 16 7
f 1 7 3
f 1 3 10
f 1 10 20
f 1 20 40
f 1 40 67
f 1 67 94
f 1 94 122
f 1 122 151
f 1 151 183
f 1 183 208
f 1 208 222
f 1 222 221
f 1 221 223
f 1 223 209
f 1 209 187
f 1 187 186
f 1 186 184
f 1 184 152
f 1 152 123
f 1 123 95
f 1 95 68
f 1 68 41
f 1 41 21
f 1 21 11
f 1 11 4
f 1 4 2
f 2 4 6
f 2 6 5
f 3 7 8
f 3 8 9
f 3 9 10
f 4 11 6
f 5 6 13
f 5 13 12
f 6 11 14
f 6 14 15
f 6 15 13
f 7 16 17
f 7 17 18
f 7 18 34
f 7 34 33
f 7 33 58
f 7 58 83
f 7 83 104
f 7 104 135
f 7 135 172
f 7 172 197
f 7 197 165
f 7 165 138
f 7 138 105
f 7 105 84
f 7 84 59
f 7 59 35
f 7 35 19
f 7 19 9
f 7 9 8
f 9 19 38
f 9 38 64
f 9 64 90
f 9 90 115
f 9 115 92
f 9 92 65
f 9 65 39
f 9 39 20
f 9 20 10
f 11 21 22
f 11 22 14
f 12 13 23
f 13 15 24
f 13 24 25
f 13 25 26
f 13 26 27
f 13 27 28
f 13 28 23
f 14 24 15
f 14 22 24
f 16 29 17
f 16 30 31
f 16 31 32
f 16 32 29
f 17 29 33
f 17 33 34
f 17 34 18
f 19 35 36
f 19 36 37
f 19 37 38
f 20 39 66
f 20 66 40
f 21 41 42
f 21 42 22
f 22 42 43
f 22 43 44
f 22 44 24
f 23 28 46
f 23 46 45
f 24 44 25
f 25 44 47
f 25 47 48
f 25 48 26
f 26 48 27
f 27 49 28
f 27 48 49
f 28 49 50
f 28 50 51
f 28 51 46
f 29 32 52
f 29 52 33
f 30 50 49
f 30 49 53
f 30 53 31
f 31 52 32
f 31 53 54
f 31 54 55
f 31 55 56
f 31 56 52
f 33 52 57
f 33 57 58
f 35 59 60
f 35 60 61
f 35 61 37
f 35 37 36
f 37 61 62
f 37 62 63
f 37 63 64
f 37 64 38
f 39 65 91
f 39 91 66
f 40 66 67
f 41 68 42
f 42 68 69
f 42 69 70
f 42 70 71
f 42 71 43
f 43 47 72
f 43 72 44
f 43 71 47
f 44 72 73
f 44 73 47
f 45 46 51
f 47 73 72
f 47 71 74
f 47 74 75
f 47 75 55
f 47 55 54
f 47 54 53
f 47 53 48
f 48 53 49
f 52 56 57
f 55 75 76
f 55 76 77
f 55 77 78
f 55 78 56
f 56 78 79
f 56 79 80
f 56 80 58
f 56 58 57
f 58 80 81
f 58 81 82
f 58 82 83
f 59 84 85
f 59 85 86
f 59 86 60
f 60 86 87
f 60 87 61
f 61 63 62
f 61 87 63
f 63 88 89
f 63 89 90
f 63 90 64
f 63 87 88
f 65 92 114
f 65 114 91
f 66 91 93
f 66 93 67
f 67 93 120
f 67 120 94
f 68 95 96
f 68 96 69
f 69 96 70
f 70 96 71
f 71 96 97
f 71 97 75
f 71 75 74
f 75 97 76
f 76 97 98
f 76 98 99
f 76 99 77
f 77 99 100
f 77 100 78
f 78 100 101
f 78 101 102
f 78 102 103
f 78 103 80
f 78 80 79
f 80 103 81
f 81 103 82
f 82 103 104
f 82 104 83
f 84 105 85
f 85 106 107
f 85 107 86
f 85 105 108
f 85 108 109
f 85 109 110
f 85 110 106
f 86 107 111
f 86 111 87
f 87 111 144
f 87 144 112
f 87 112 88
f 88 113 114
f 88 114 89
f 88 112 113
f 89 114 92
f 89 92 115
f 89 115 90
f 91 114 116
f 91 116 117
f 91 117 118
f 91 118 119
f 91 119 93
f 93 119 120
f 94 120 121
f 94 121 122
f 95 123 124
f 95 124 96
f 96 124 125
f 96 125 126
f 96 126 97
f 97 126 98
f 98 126 127
f 98 127 99
f 99 127 128
f 99 128 129
f 99 129 130
f 99 130 131
f 99 131 132
f 99 132 100
f 100 132 101
f 101 132 133
f 101 133 134
f 101 134 135
f 101 135 136
f 101 136 102
f 102 136 103
f 103 136 104
f 104 136 137
f 104 137 135
f 105 138 139
f 105 139 108
f 106 110 107
f 107 110 140
f 107 140 111
f 108 139 141
f 108 141 142
f 108 142 143
f 108 143 109
f 109 143 110
f 110 143 142
f 110 142 140
f 111 140 142
f 111 142 145
f 111 145 177
f 111 177 144
f 112 144 146
f 112 146 113
f 113 146 118
f 113 118 114
f 114 118 116
f 116 118 117
f 118 146 119
f 119 146 147
f 119 147 148
f 119 148 120
f 120 148 121
f 121 148 149
f 121 149 150
f 121 150 151
f 121 151 122
f 123 152 124
f 124 152 128
f 124 128 125
f 125 128 127
f 125 127 126
f 128 152 153
f 128 153 154
f 128 154 155
f 128 155 129
f 129 155 130
f 130 155 156
f 130 156 131
f 131 156 132
f 132 156 157
f 132 157 158
f 132 158 133
f 133 159 160
f 133 160 161
f 133 161 162
f 133 162 163
f 133 163 164
f 133 164 165
f 133 165 166
f 133 166 167
f 133 167 134
f 133 158 168
f 133 168 159
f 134 169 170
f 134 170 135
f 134 167 169
f 135 137 136
f 135 170 171
f 135 171 172
f 138 165 173
f 138 173 174
f 138 174 139
f 139 174 141
f 141 174 173
f 141 173 161
f 141 161 175
f 141 175 142
f 142 175 145
f 144 176 146
f 144 177 176
f 145 175 177
f 146 176 178
f 146 178 147
f 147 178 149
f 147 149 148
f 149 178 179
f 149 179 180
f 149 180 150
f 150 180 181
f 150 181 182
f 150 182 151
f 151 182 183
f 152 184 154
f 152 154 153
f 154 185 155
f 154 184 186
f 154 186 187
f 154 187 188
f 154 188 189
f 154 189 185
f 155 190 191
f 155 191 156
f 155 185 189
f 155 189 190
f 156 191 192
f 156 192 157
f 157 192 168
f 157 168 158
f 159 193 194
f 159 194 160
f 159 168 192
f 159 192 193
f 160 194 195
f 160 195 196
f 160 196 161
f 161 196 199
f 161 199 175
f 161 173 162
f 162 173 165
f 162 165 164
f 162 164 163
f 165 197 166
f 166 197 172
f 166 172 167
f 167 172 198
f 167 198 170
f 167 170 169
f 170 198 172
f 170 172 171
f 175 199 177
f 176 177 200
f 176 200 201
f 176 201 178
f 177 199 200
f 178 201 179
f 179 201 202
f 179 202 180
f 180 202 181
f 181 202 203
f 181 203 204
f 181 204 205
f 181 205 206
f 181 206 182
f 182 206 207
f 182 207 208
f 182 208 183
f 187 209 189
f 187 189 188
f 189 210 211
f 189 211 190
f 189 209 212
f 189 212 213
f 189 213 210
f 190 211 191
f 191 211 192
f 192 211 210
f 192 210 193
f 193 210 214
f 193 214 215
f 193 215 216
f 193 216 194
f 194 216 195
f 195 216 204
f 195 204 217
f 195 217 196
f 196 217 204
f 196 204 199
f 199 204 200
f 200 204 202
f 200 202 201
f 202 204 218
f 202 218 203
f 203 218 204
f 204 216 219
f 204 219 205
f 205 219 206
f 206 219 220
f 206 220 221
f 206 221 207
f 207 221 222
f 207 222 208
f 209 223 212
f 210 213 214
f 212 223 221
f 212 221 220
f 212 220 213
f 213 220 215
f 213 215 214
f 215 220 216
f 216 220 219
