v -0.28716 -0.392957 0.201718
v -0.303698 -0.440095 0.201718
v -0.288566 -0.450244 0.2014
v -0.28716 -0.462508 0.160147
v -0.28716 -0.429648 -0.0303555
v -0.427541 -0.233508 0.201673
v -0.479788 -0.23607 0.201673
v -0.310862 -0.438752 0.188906
v -0.305149 -0.451239 0.159488
v -0.301511 -0.448777 0.176707
v -0.294793 -0.449821 0.188747
v -0.426358 -0.322859 0.2014
v -0.358958 -0.396514 0.2014
v -0.322869 -0.426364 0.2014
v -0.295306 -0.464846 0.13291
v -0.28716 -0.471239 0.128071
v -0.461018 -0.233508 -0.0303555
v -0.28716 -0.484273 0.0426787
v -0.287607 -0.487631 0.00149335
v -0.288388 -0.487408 -0.0228362
v -0.308809 -0.47405 -0.0303555
v -0.48751 -0.233508 0.176934
v -0.474364 -0.247239 0.20081
v -0.463897 -0.266592 0.20081
v -0.449346 -0.289999 0.2014
v -0.483403 -0.235598 0.188906
v -0.477355 -0.247637 0.188906
v -0.329475 -0.439026 0.14111
v -0.321173 -0.441787 0.152332
v -0.327556 -0.427285 0.186862
v -0.322981 -0.450891 0.115781
v -0.310617 -0.462931 0.103582
v -0.302783 -0.464523 0.116758
v -0.440173 -0.30378 0.201241
v -0.438767 -0.31087 0.188906
v -0.427273 -0.327536 0.186862
v -0.415824 -0.336963 0.199515
v -0.404018 -0.351043 0.200219
v -0.381276 -0.375395 0.200832
v -0.369045 -0.387335 0.200628
v -0.361435 -0.398231 0.188906
v -0.351035 -0.404026 0.200219
v -0.336974 -0.415817 0.199515
v -0.28716 -0.474572 0.115781
v -0.509426 -0.24607 -0.0303555
v -0.515028 -0.234205 -0.0288107
v -0.501615 -0.233583 0.121528
v -0.28716 -0.479945 0.0908609
v -0.295306 -0.477035 0.0670538
v -0.297069 -0.478129 0.0426787
v -0.298632 -0.480418 0.00610485
v -0.298632 -0.481487 -0.00607131
v -0.298632 -0.481487 -0.0182702
v -0.309701 -0.474547 -0.0182702
v -0.320816 -0.466015 -0.0303555
v -0.487978 -0.244727 0.15424
v -0.469633 -0.262065 0.188906
v -0.475525 -0.268532 0.153173
v -0.475369 -0.280422 0.128184
v -0.460996 -0.27694 0.188906
v -0.452069 -0.291566 0.188293
v -0.448788 -0.301516 0.176707
v -0.48838 -0.263706 0.114146
v -0.33202 -0.440891 0.127935
v -0.342509 -0.415369 0.186135
v -0.343469 -0.428329 0.140156
v -0.34541 -0.43711 0.105241
v -0.33559 -0.441936 0.114895
v -0.325659 -0.452085 0.104604
v -0.312223 -0.464025 0.0914061
v -0.296445 -0.47395 0.0931553
v -0.293409 -0.473801 0.104014
v -0.323003 -0.456488 0.0914061
v -0.45064 -0.304302 0.163554
v -0.450908 -0.322984 0.115781
v -0.440061 -0.318755 0.164531
v -0.440508 -0.325969 0.144745
v -0.440887 -0.332013 0.127935
v -0.441936 -0.33562 0.114895
v -0.437115 -0.345421 0.105241
v -0.424707 -0.339028 0.164531
v -0.410691 -0.346889 0.189679
v -0.414463 -0.35358 0.158738
v -0.418346 -0.360172 0.12748
v -0.412744 -0.369997 0.117598
v -0.398282 -0.361366 0.188906
v -0.393573 -0.362784 0.199492
v -0.386476 -0.373977 0.188906
v -0.3896 -0.377336 0.169211
v -0.39027 -0.390221 0.128752
v -0.370987 -0.389276 0.188906
v -0.386007 -0.398405 0.115781
v -0.371634 -0.408131 0.127548
v -0.37005 -0.412733 0.117598
v -0.356927 -0.41726 0.140156
v -0.353601 -0.414449 0.158738
v -0.35032 -0.411763 0.176707
v -0.346883 -0.410693 0.189679
v -0.515117 -0.236045 -0.0176795
v -0.502195 -0.260473 -0.0303555
v -0.498423 -0.269403 -0.0182702
v -0.514224 -0.234329 0.0137604
v -0.50715 -0.235598 0.0914061
v -0.505163 -0.235598 0.103673
v -0.498825 -0.248209 0.105195
v -0.302783 -0.47599 0.0268679
v -0.309701 -0.474547 -0.00607131
v -0.324722 -0.464348 -0.0182702
v -0.335189 -0.456861 -0.0182702
v -0.340433 -0.451936 -0.0297421
v -0.358355 -0.437707 -0.0303555
v -0.482176 -0.274253 0.115781
v -0.477043 -0.283159 0.115781
v -0.467356 -0.287611 0.141224
v -0.464522 -0.302785 0.116758
v -0.48896 -0.267562 0.103673
v -0.346593 -0.42216 0.152287
v -0.356793 -0.425046 0.114509
v -0.347107 -0.438503 0.0914061
v -0.333493 -0.447782 0.0979712
v -0.359225 -0.42624 0.103582
v -0.317691 -0.463702 0.0548549
v -0.311889 -0.47206 0.00610485
v -0.331529 -0.452657 0.0670538
v -0.333113 -0.453801 0.0426787
v -0.320102 -0.465393 0.0183037
v -0.462937 -0.310621 0.103582
v -0.452091 -0.32567 0.104604
v -0.438499 -0.347112 0.0914061
v -0.426247 -0.359202 0.103582
v -0.425666 -0.354948 0.117644
v -0.44919 -0.332834 0.0931098
v -0.400201 -0.363455 0.176707
v -0.414864 -0.372311 0.103582
v -0.398461 -0.385942 0.115781
v -0.400291 -0.375744 0.140156
v -0.394198 -0.382261 0.140156
v -0.392345 -0.39231 0.115781
v -0.38498 -0.403131 0.103582
v -0.372371 -0.414847 0.103582
v -0.511769 -0.243234 -0.00811581
v -0.494852 -0.274204 -0.0303555
v -0.488202 -0.287711 -0.0182702
v -0.498423 -0.269403 -0.00607131
v -0.507574 -0.249876 0.00610485
v -0.508243 -0.237687 0.0670538
v -0.500008 -0.250572 0.0914061
v -0.320883 -0.465965 0.00610485
v -0.324722 -0.464348 -0.00607131
v -0.335189 -0.456861 -0.00607131
v -0.345366 -0.449299 -0.0182702
v -0.359047 -0.438304 -0.0182702
v -0.371746 -0.426514 -0.0303555
v -0.473873 -0.293357 0.103855
v -0.493982 -0.262065 0.0914061
v -0.487443 -0.274229 0.0914061
v -0.480346 -0.286442 0.0914061
v -0.360631 -0.427434 0.0914061
v -0.354605 -0.433578 0.0792299
v -0.358333 -0.437707 0.00610485
v -0.345366 -0.449299 -0.00607131
v -0.34146 -0.451065 0.00762687
v -0.339987 -0.449996 0.0304799
v -0.464009 -0.312213 0.0914061
v -0.456488 -0.323009 0.0914061
v -0.473963 -0.296442 0.0931553
v -0.44823 -0.33761 0.0670538
v -0.44939 -0.339202 0.0426787
v -0.449301 -0.345346 -0.00607131
v -0.438432 -0.353082 0.0426787
v -0.436624 -0.350893 0.0792299
v -0.427429 -0.360595 0.0914061
v -0.452671 -0.331516 0.0670538
v -0.41607 -0.373629 0.0914061
v -0.397278 -0.391067 0.103582
v -0.398505 -0.39236 0.0914061
v -0.386409 -0.404474 0.0893161
v -0.373687 -0.416066 0.0914061
v -0.487733 -0.286766 -0.0303555
v -0.480435 -0.298631 -0.0303555
v -0.481484 -0.298631 -0.0182702
v -0.488202 -0.287711 -0.00607131
v -0.499986 -0.262637 0.0183037
v -0.489518 -0.283781 0.00610485
v -0.494808 -0.274253 0.00610485
v -0.500052 -0.256642 0.0548549
v -0.499182 -0.255025 0.0745276
v -0.359047 -0.438304 -0.00607131
v -0.37246 -0.427086 -0.0182702
v -0.385181 -0.415544 -0.0182702
v -0.384512 -0.414922 -0.0303555
v -0.487978 -0.275224 0.0792299
v -0.488045 -0.280099 0.0480399
v -0.482533 -0.286442 0.0670538
v -0.478203 -0.302213 0.00610485
v -0.366032 -0.426862 0.0519699
v -0.358645 -0.434946 0.0316157
v -0.368019 -0.428504 0.0183037
v -0.462558 -0.316093 0.0792299
v -0.474565 -0.3097 -0.00607131
v -0.464277 -0.318506 0.0426787
v -0.452046 -0.340272 0.00646832
v -0.449301 -0.345346 -0.0182702
v -0.438298 -0.359028 -0.00607131
v -0.437718 -0.358306 0.00610485
v -0.456845 -0.335197 -0.00607131
v -0.42888 -0.363356 0.0537645
v -0.425532 -0.364376 0.0792299
v -0.427095 -0.37241 -0.00607131
v -0.414306 -0.377734 0.0725512
v -0.404062 -0.391987 0.0426787
v -0.403683 -0.397733 -0.00607131
v -0.391363 -0.403429 0.0548549
v -0.380807 -0.417136 0.0183037
v -0.377415 -0.413952 0.0792299
v -0.374803 -0.423852 0.00610485
v -0.474007 -0.308855 -0.0303555
v -0.474565 -0.3097 -0.0182702
v -0.481484 -0.298631 -0.00607131
v -0.485836 -0.289875 0.00610485
v -0.489005 -0.282885 0.0183037
v -0.37246 -0.427086 -0.00607131
v -0.385181 -0.415544 -0.00607131
v -0.394733 -0.406564 -0.0182702
v -0.394019 -0.406016 -0.0303555
v -0.484765 -0.288109 0.0304799
v -0.464344 -0.324725 -0.00607131
v -0.456845 -0.335197 -0.0182702
v -0.451935 -0.340446 -0.0297421
v -0.437763 -0.358281 -0.0303555
v -0.438298 -0.359028 -0.0182702
v -0.428523 -0.367933 0.0183037
v -0.427095 -0.37241 -0.0182702
v -0.415534 -0.385146 -0.00607131
v -0.417766 -0.381415 0.00610485
v -0.411427 -0.386838 0.0183037
v -0.403683 -0.397733 -0.0182702
v -0.394733 -0.406564 -0.00607131
v -0.392702 -0.404698 0.0304799
v -0.463786 -0.323954 -0.0303555
v -0.464344 -0.324725 -0.0182702
v -0.403013 -0.397111 -0.0303555
v -0.426514 -0.371689 -0.0303555
v -0.417766 -0.381415 -0.0303555
v -0.415534 -0.385146 -0.0182702
f 1 2 3
f 1 3 4
f 1 4 16
f 1 16 44
f 1 44 48
f 1 48 18
f 1 18 5
f 1 5 6
f 1 6 7
f 1 7 2
f 2 8 9
f 2 9 10
f 2 10 11
f 2 11 3
f 2 7 12
f 2 12 13
f 2 13 14
f 2 14 8
f 3 11 4
f 4 11 15
f 4 15 16
f 5 17 6
f 5 18 19
f 5 19 20
f 5 20 21
f 5 21 55
f 5 55 111
f 5 111 153
f 5 153 191
f 5 191 225
f 5 225 242
f 5 242 244
f 5 244 243
f 5 243 230
f 5 230 240
f 5 240 217
f 5 217 180
f 5 180 179
f 5 179 142
f 5 142 100
f 5 100 45
f 5 45 17
f 6 17 22
f 6 22 7
f 7 23 24
f 7 24 25
f 7 25 12
f 7 22 26
f 7 26 27
f 7 27 23
f 8 28 29
f 8 29 9
f 8 14 30
f 8 30 28
f 9 11 10
f 9 29 31
f 9 31 32
f 9 32 33
f 9 33 11
f 11 33 15
f 12 25 34
f 12 34 35
f 12 35 36
f 12 36 37
f 12 37 38
f 12 38 39
f 12 39 13
f 13 39 40
f 13 40 41
f 13 41 42
f 13 42 14
f 14 42 43
f 14 43 30
f 15 33 44
f 15 44 16
f 17 45 46
f 17 46 47
f 17 47 22
f 18 48 49
f 18 49 50
f 18 50 51
f 18 51 19
f 19 51 52
f 19 52 20
f 20 52 53
f 20 53 21
f 21 53 54
f 21 54 55
f 22 47 56
f 22 56 26
f 23 27 57
f 23 57 24
f 24 57 58
f 24 58 59
f 24 59 60
f 24 60 25
f 25 60 61
f 25 61 62
f 25 62 34
f 26 56 27
f 27 63 57
f 27 56 63
f 28 64 31
f 28 31 29
f 28 30 64
f 30 43 65
f 30 65 66
f 30 66 67
f 30 67 68
f 30 68 64
f 31 69 32
f 31 64 69
f 32 70 71
f 32 71 72
f 32 72 33
f 32 69 73
f 32 73 70
f 33 72 44
f 34 62 74
f 34 74 35
f 35 75 76
f 35 76 36
f 35 74 75
f 36 77 78
f 36 78 79
f 36 79 80
f 36 80 81
f 36 81 37
f 36 76 77
f 37 81 82
f 37 82 38
f 38 82 83
f 38 83 84
f 38 84 85
f 38 85 86
f 38 86 87
f 38 87 39
f 39 88 89
f 39 89 90
f 39 90 40
f 39 87 88
f 40 90 91
f 40 91 41
f 41 91 92
f 41 92 93
f 41 93 94
f 41 94 42
f 42 94 95
f 42 95 96
f 42 96 97
f 42 97 98
f 42 98 43
f 43 98 65
f 44 72 48
f 45 99 46
f 45 100 101
f 45 101 99
f 46 102 47
f 46 99 102
f 47 102 103
f 47 103 104
f 47 104 105
f 47 105 56
f 48 72 71
f 48 71 49
f 49 106 50
f 49 71 106
f 50 106 51
f 51 106 107
f 51 107 52
f 52 107 54
f 52 54 53
f 54 107 149
f 54 149 108
f 54 108 55
f 55 108 109
f 55 109 110
f 55 110 111
f 56 105 63
f 57 63 58
f 58 63 112
f 58 112 59
f 59 113 114
f 59 114 60
f 59 112 113
f 60 114 61
f 61 115 74
f 61 74 62
f 61 114 115
f 63 116 112
f 63 105 116
f 64 68 69
f 65 98 97
f 65 97 117
f 65 117 66
f 66 117 118
f 66 118 67
f 67 119 120
f 67 120 69
f 67 69 68
f 67 118 121
f 67 121 119
f 69 120 73
f 70 122 123
f 70 123 106
f 70 106 71
f 70 73 122
f 73 120 119
f 73 119 124
f 73 124 125
f 73 125 126
f 73 126 122
f 74 115 127
f 74 127 75
f 75 127 128
f 75 128 79
f 75 79 78
f 75 78 77
f 75 77 76
f 79 128 80
f 80 129 130
f 80 130 131
f 80 131 81
f 80 128 132
f 80 132 129
f 81 131 82
f 82 131 83
f 83 131 84
f 84 130 85
f 84 131 130
f 85 133 86
f 85 130 134
f 85 134 135
f 85 135 136
f 85 136 133
f 86 133 89
f 86 89 88
f 86 88 87
f 89 136 137
f 89 137 90
f 89 133 136
f 90 137 135
f 90 135 138
f 90 138 92
f 90 92 91
f 92 139 94
f 92 94 93
f 92 138 139
f 94 139 140
f 94 140 121
f 94 121 95
f 95 121 118
f 95 118 96
f 96 118 117
f 96 117 97
f 99 141 102
f 99 101 141
f 100 142 101
f 101 142 143
f 101 143 182
f 101 182 144
f 101 144 141
f 102 141 145
f 102 145 146
f 102 146 103
f 103 146 147
f 103 147 104
f 104 147 105
f 105 147 116
f 106 123 107
f 107 123 148
f 107 148 149
f 108 149 150
f 108 150 109
f 109 150 161
f 109 161 151
f 109 151 110
f 110 151 111
f 111 151 152
f 111 152 153
f 112 116 113
f 113 116 154
f 113 154 115
f 113 115 114
f 115 154 127
f 116 147 155
f 116 155 156
f 116 156 157
f 116 157 154
f 119 121 158
f 119 158 159
f 119 159 160
f 119 160 161
f 119 161 162
f 119 162 163
f 119 163 124
f 121 140 158
f 122 126 123
f 123 126 148
f 124 163 125
f 125 150 126
f 125 163 150
f 126 149 148
f 126 150 149
f 127 164 165
f 127 165 128
f 127 154 166
f 127 166 164
f 128 165 132
f 129 132 167
f 129 167 168
f 129 168 169
f 129 169 170
f 129 170 171
f 129 171 172
f 129 172 130
f 130 172 134
f 132 165 173
f 132 173 167
f 134 172 174
f 134 174 175
f 134 175 135
f 135 175 138
f 135 137 136
f 138 175 139
f 139 175 176
f 139 176 177
f 139 177 178
f 139 178 140
f 140 178 158
f 141 144 145
f 142 179 143
f 143 180 181
f 143 181 219
f 143 219 182
f 143 179 180
f 144 183 145
f 144 182 184
f 144 184 185
f 144 185 183
f 145 183 186
f 145 186 147
f 145 147 146
f 147 186 187
f 147 187 155
f 150 163 162
f 150 162 161
f 151 161 188
f 151 188 152
f 152 188 222
f 152 222 189
f 152 189 153
f 153 189 190
f 153 190 191
f 154 157 166
f 155 187 186
f 155 186 192
f 155 192 156
f 156 192 193
f 156 193 157
f 157 193 194
f 157 194 195
f 157 195 166
f 158 178 196
f 158 196 197
f 158 197 159
f 159 197 160
f 160 197 196
f 160 196 198
f 160 198 188
f 160 188 161
f 164 199 165
f 164 166 200
f 164 200 199
f 165 199 201
f 165 201 173
f 166 195 200
f 167 173 168
f 168 173 202
f 168 202 169
f 169 203 231
f 169 231 204
f 169 204 205
f 169 205 170
f 169 202 206
f 169 206 228
f 169 228 203
f 170 205 207
f 170 207 208
f 170 208 171
f 171 208 172
f 172 208 174
f 173 201 202
f 174 208 209
f 174 209 210
f 174 210 176
f 174 176 175
f 176 210 211
f 176 211 212
f 176 212 213
f 176 213 177
f 177 213 214
f 177 214 215
f 177 215 178
f 178 216 196
f 178 215 216
f 180 217 218
f 180 218 181
f 181 218 200
f 181 200 219
f 182 219 220
f 182 220 221
f 182 221 184
f 183 185 186
f 184 221 185
f 185 221 193
f 185 193 192
f 185 192 186
f 188 198 222
f 189 222 223
f 189 223 190
f 190 223 238
f 190 238 224
f 190 224 225
f 190 225 191
f 193 221 194
f 194 221 226
f 194 226 195
f 195 226 220
f 195 220 219
f 195 219 200
f 196 216 198
f 198 216 222
f 199 200 201
f 200 218 241
f 200 241 227
f 200 227 201
f 201 227 206
f 201 206 202
f 203 228 229
f 203 229 230
f 203 230 231
f 204 231 233
f 204 233 209
f 204 209 232
f 204 232 205
f 205 232 207
f 206 227 241
f 206 241 228
f 207 232 208
f 208 232 209
f 209 233 245
f 209 245 234
f 209 234 235
f 209 235 210
f 210 235 236
f 210 236 211
f 211 236 212
f 212 236 234
f 212 234 245
f 212 245 237
f 212 237 224
f 212 224 238
f 212 238 239
f 212 239 213
f 213 239 214
f 214 223 216
f 214 216 215
f 214 239 223
f 216 223 222
f 217 240 218
f 218 240 241
f 220 226 221
f 223 239 238
f 224 237 225
f 225 237 242
f 228 241 240
f 228 240 229
f 229 240 230
f 230 243 233
f 230 233 231
f 233 243 244
f 233 244 245
f 234 236 235
f 237 245 242
f 242 245 244
