v 0.323376 0.342211 0.34673
v 0.323376 0.360332 0.324097
v 0.319971 0.352055 0.338441
v 0.316753 0.342211 0.354431
v 0.323376 0.342211 0.244999
v 0.305696 0.342211 0.367276
v 0.323376 0.38382 0.286444
v 0.323133 0.37056 0.310517
v 0.319185 0.367668 0.31957
v 0.323357 0.367981 0.189005
v 0.323376 0.420847 0.213989
v 0.132244 0.342211 0.430177
v 0.315537 0.364549 0.327683
v 0.304854 0.353606 0.353608
v 0.290411 0.343361 0.382736
v 0.269943 0.342437 0.405311
v 0.243077 0.342211 0.425827
v 0.323376 0.396505 0.261842
v 0.311028 0.387096 0.29973
v 0.321636 0.378924 0.298642
v 0.315032 0.378523 0.3089
v 0.30622 0.379133 0.3186
v 0.310878 0.371849 0.323156
v 0.132244 0.471569 0.189005
v 0.323301 0.429785 0.189005
v 0.315574 0.427677 0.212049
v 0.315649 0.415584 0.236563
v 0.323376 0.415097 0.225512
v 0.321599 0.42745 0.201115
v 0.161262 0.342211 0.476883
v 0.134526 0.342507 0.489287
v 0.132244 0.350749 0.481057
v 0.281112 0.354111 0.378651
v 0.276528 0.344633 0.396022
v 0.302478 0.376049 0.326742
v 0.253423 0.355505 0.404458
v 0.259952 0.343378 0.412277
v 0.26622 0.354094 0.394229
v 0.249831 0.343622 0.419566
v 0.246725 0.352265 0.4131
v 0.230654 0.342211 0.434586
v 0.31795 0.403091 0.257668
v 0.323376 0.408597 0.238298
v 0.303245 0.38889 0.307695
v 0.303526 0.401366 0.283328
v 0.294414 0.391469 0.314132
v 0.297726 0.38328 0.322098
v 0.294358 0.379324 0.331122
v 0.132244 0.479079 0.298583
v 0.132356 0.487163 0.279243
v 0.13621 0.520182 0.189005
v 0.313853 0.436598 0.189005
v 0.298905 0.438916 0.213313
v 0.307717 0.425133 0.228804
v 0.302871 0.440466 0.202438
v 0.171402 0.342211 0.471446
v 0.182478 0.377669 0.426386
v 0.163731 0.359199 0.456602
v 0.149101 0.342768 0.482409
v 0.143638 0.352456 0.474179
v 0.142216 0.36413 0.461364
v 0.133179 0.365037 0.464215
v 0.132244 0.377077 0.450723
v 0.279877 0.365315 0.365189
v 0.243114 0.365246 0.401607
v 0.255406 0.365298 0.389497
v 0.250766 0.363207 0.396963
v 0.26766 0.365315 0.377328
v 0.235481 0.356063 0.417068
v 0.239297 0.360663 0.409455
v 0.221355 0.342211 0.440876
v 0.229494 0.35216 0.42518
v 0.281973 0.401436 0.312633
v 0.291234 0.403335 0.297378
v 0.28549 0.392445 0.322098
v 0.132244 0.446303 0.355783
v 0.132431 0.464512 0.325978
v 0.13621 0.472893 0.309518
v 0.141299 0.475716 0.300435
v 0.137146 0.498594 0.24838
v 0.136285 0.512498 0.215077
v 0.13621 0.517464 0.200057
v 0.152319 0.515704 0.189005
v 0.306631 0.441738 0.189005
v 0.289849 0.440501 0.222837
v 0.283245 0.412849 0.289618
v 0.294751 0.4282 0.241443
v 0.283937 0.449579 0.211256
v 0.293591 0.415184 0.269749
v 0.290055 0.449405 0.201115
v 0.297782 0.447785 0.189005
v 0.187847 0.342211 0.46204
v 0.183282 0.365873 0.438966
v 0.161374 0.377024 0.43782
v 0.197782 0.379324 0.415951
v 0.188914 0.381537 0.418449
v 0.185209 0.388542 0.412659
v 0.173385 0.391278 0.415745
v 0.156865 0.389431 0.425856
v 0.152094 0.396017 0.42036
v 0.140176 0.381189 0.442611
v 0.140176 0.387287 0.435586
v 0.140176 0.398648 0.422417
v 0.132244 0.389535 0.436232
v 0.276716 0.387444 0.337735
v 0.228483 0.375944 0.399402
v 0.234994 0.367807 0.404693
v 0.269905 0.40154 0.324861
v 0.258755 0.40398 0.331651
v 0.241131 0.376223 0.387616
v 0.238044 0.372006 0.396463
v 0.229194 0.3642 0.412835
v 0.221411 0.354704 0.427855
v 0.210298 0.342211 0.448137
v 0.273984 0.408179 0.310605
v 0.274377 0.414469 0.298642
v 0.132244 0.424331 0.391613
v 0.140176 0.465435 0.320717
v 0.152225 0.46439 0.316219
v 0.164554 0.463118 0.310899
v 0.164554 0.469007 0.298642
v 0.153722 0.474688 0.293851
v 0.151233 0.484079 0.273099
v 0.153254 0.50288 0.226452
v 0.149681 0.510634 0.210403
v 0.157538 0.511383 0.200057
v 0.164741 0.511923 0.189005
v 0.276641 0.452245 0.215341
v 0.270822 0.428269 0.274275
v 0.279559 0.426126 0.267191
v 0.268053 0.462979 0.201115
v 0.260757 0.462926 0.21252
v 0.289905 0.452576 0.190122
v 0.273853 0.462857 0.189005
v 0.202104 0.342211 0.453339
v 0.206987 0.353345 0.438613
v 0.206519 0.365281 0.426121
v 0.202178 0.372302 0.421065
v 0.187623 0.358868 0.44408
v 0.164554 0.393159 0.41792
v 0.209606 0.376118 0.412482
v 0.201299 0.384029 0.408456
v 0.188914 0.392759 0.405575
v 0.168203 0.403509 0.403841
v 0.164554 0.39924 0.410895
v 0.15361 0.403509 0.410895
v 0.14375 0.403248 0.415569
v 0.132244 0.403509 0.419831
v 0.216846 0.379412 0.404076
v 0.249157 0.4079 0.33462
v 0.244106 0.414609 0.329417
v 0.230934 0.389674 0.377269
v 0.218006 0.389291 0.38888
v 0.213684 0.38673 0.396169
v 0.224798 0.371327 0.407868
v 0.256734 0.414905 0.31763
v 0.261786 0.408179 0.322803
v 0.217202 0.367842 0.416715
v 0.26592 0.414678 0.308636
v 0.252019 0.427607 0.300376
v 0.259372 0.425028 0.29632
v 0.137071 0.412396 0.407162
v 0.142927 0.416177 0.399226
v 0.140176 0.426614 0.383912
v 0.140176 0.456549 0.335207
v 0.143263 0.437835 0.364101
v 0.150074 0.425046 0.381061
v 0.164536 0.452506 0.328594
v 0.176753 0.453082 0.320364
v 0.173834 0.461375 0.307725
v 0.174582 0.476796 0.27163
v 0.172955 0.488383 0.245852
v 0.161842 0.4765 0.283211
v 0.177913 0.463432 0.300082
v 0.167959 0.500493 0.221338
v 0.164554 0.504867 0.213313
v 0.176753 0.504849 0.201115
v 0.177108 0.507776 0.189005
v 0.270635 0.452506 0.222749
v 0.244162 0.475646 0.201967
v 0.261973 0.469635 0.189005
v 0.236584 0.474757 0.214842
v 0.253161 0.465209 0.216605
v 0.256229 0.451113 0.244176
v 0.267548 0.45059 0.230891
v 0.199784 0.391016 0.400755
v 0.189456 0.399206 0.39611
v 0.1781 0.403074 0.398139
v 0.174451 0.416055 0.380444
v 0.163207 0.413546 0.391496
v 0.152356 0.414591 0.396375
v 0.23346 0.403353 0.355107
v 0.24882 0.41663 0.322216
v 0.235668 0.425203 0.320687
v 0.223638 0.427241 0.327359
v 0.209868 0.391469 0.392142
v 0.228614 0.4006 0.363249
v 0.24796 0.425516 0.309018
v 0.239728 0.427816 0.313074
v 0.22824 0.440292 0.301229
v 0.25679 0.439264 0.269308
v 0.253535 0.437382 0.27742
v 0.241991 0.437818 0.2905
v 0.235855 0.438079 0.297172
v 0.164554 0.427956 0.367775
v 0.188577 0.450555 0.316601
v 0.17737 0.442993 0.33606
v 0.181823 0.438341 0.340616
v 0.199597 0.450154 0.308959
v 0.188539 0.460051 0.298201
v 0.189419 0.485526 0.238004
v 0.175967 0.496259 0.224659
v 0.175967 0.501277 0.212784
v 0.192356 0.462055 0.290089
v 0.195368 0.475454 0.256316
v 0.193815 0.487041 0.230538
v 0.189812 0.500005 0.201115
v 0.193834 0.50119 0.190563
v 0.186276 0.498367 0.21055
v 0.212955 0.49382 0.189005
v 0.250616 0.475716 0.189005
v 0.237576 0.482424 0.189005
v 0.219559 0.487616 0.201438
v 0.225509 0.480716 0.213313
v 0.246669 0.464686 0.225512
v 0.220719 0.450172 0.287855
v 0.234676 0.461358 0.247027
v 0.207361 0.40229 0.377887
v 0.204536 0.413128 0.36366
v 0.207174 0.426579 0.341204
v 0.191664 0.404171 0.386881
v 0.199054 0.428426 0.344084
v 0.189101 0.430534 0.347788
v 0.188914 0.438706 0.335178
v 0.224199 0.438236 0.3094
v 0.212693 0.440048 0.316072
v 0.209849 0.415794 0.355548
v 0.213591 0.448621 0.298995
v 0.199035 0.439247 0.327271
v 0.203675 0.452228 0.301141
v 0.179484 0.49842 0.216458
v 0.196566 0.463815 0.281976
v 0.212113 0.487268 0.212226
v 0.201112 0.488888 0.219339
v 0.201131 0.495649 0.201115
v 0.22622 0.487826 0.189005
v 0.21563 0.473607 0.239885
f 1 2 3
f 1 3 4
f 1 4 6
f 1 6 17
f 1 17 41
f 1 41 71
f 1 71 114
f 1 114 135
f 1 135 92
f 1 92 56
f 1 56 30
f 1 30 12
f 1 12 5
f 1 5 11
f 1 11 28
f 1 28 43
f 1 43 18
f 1 18 7
f 1 7 2
f 2 6 3
f 2 7 8
f 2 8 9
f 2 9 6
f 3 6 4
f 5 10 11
f 5 12 10
f 6 9 13
f 6 13 14
f 6 14 15
f 6 15 16
f 6 16 17
f 7 18 19
f 7 19 20
f 7 20 8
f 8 20 21
f 8 21 9
f 9 21 22
f 9 22 23
f 9 23 13
f 10 24 51
f 10 51 83
f 10 83 127
f 10 127 178
f 10 178 220
f 10 220 246
f 10 246 222
f 10 222 221
f 10 221 181
f 10 181 134
f 10 134 91
f 10 91 84
f 10 84 52
f 10 52 25
f 10 25 11
f 10 12 24
f 11 26 27
f 11 27 28
f 11 25 29
f 11 29 26
f 12 30 31
f 12 31 32
f 12 32 63
f 12 63 104
f 12 104 148
f 12 148 117
f 12 117 76
f 12 76 49
f 12 49 24
f 13 23 15
f 13 15 14
f 15 33 34
f 15 34 16
f 15 23 35
f 15 35 33
f 16 36 37
f 16 37 17
f 16 34 38
f 16 38 36
f 17 37 39
f 17 39 40
f 17 40 41
f 18 42 19
f 18 43 42
f 19 44 21
f 19 21 20
f 19 42 45
f 19 45 44
f 21 44 22
f 22 44 46
f 22 46 47
f 22 47 48
f 22 48 35
f 22 35 23
f 24 49 50
f 24 50 51
f 25 52 29
f 26 53 54
f 26 54 27
f 26 29 55
f 26 55 53
f 27 54 45
f 27 45 42
f 27 42 28
f 28 42 43
f 29 52 55
f 30 56 57
f 30 57 58
f 30 58 59
f 30 59 31
f 31 59 60
f 31 60 32
f 32 60 61
f 32 61 62
f 32 62 63
f 33 64 34
f 33 35 64
f 34 64 38
f 35 48 64
f 36 38 65
f 36 65 40
f 36 40 37
f 37 40 39
f 38 66 67
f 38 67 65
f 38 64 68
f 38 68 66
f 40 69 41
f 40 65 70
f 40 70 69
f 41 69 72
f 41 72 71
f 44 73 46
f 44 45 74
f 44 74 73
f 45 54 74
f 46 73 75
f 46 75 47
f 47 75 48
f 48 75 64
f 49 76 77
f 49 77 78
f 49 78 79
f 49 79 50
f 50 79 80
f 50 80 81
f 50 81 82
f 50 82 51
f 51 82 83
f 52 84 55
f 53 85 86
f 53 86 87
f 53 87 54
f 53 55 88
f 53 88 85
f 54 87 86
f 54 86 89
f 54 89 74
f 55 90 88
f 55 84 91
f 55 91 90
f 56 92 93
f 56 93 57
f 57 94 58
f 57 93 95
f 57 95 96
f 57 96 97
f 57 97 98
f 57 98 94
f 58 94 59
f 59 94 60
f 60 94 99
f 60 99 100
f 60 100 61
f 61 101 62
f 61 100 101
f 62 101 102
f 62 102 63
f 63 102 103
f 63 103 104
f 64 75 105
f 64 105 68
f 65 106 107
f 65 107 70
f 65 67 108
f 65 108 109
f 65 109 110
f 65 110 111
f 65 111 106
f 66 68 105
f 66 105 108
f 66 108 67
f 69 70 112
f 69 112 72
f 70 107 112
f 71 72 113
f 71 113 114
f 72 112 113
f 73 74 115
f 73 115 108
f 73 108 75
f 74 89 86
f 74 86 116
f 74 116 115
f 75 108 105
f 76 117 118
f 76 118 77
f 77 118 78
f 78 118 119
f 78 119 120
f 78 120 79
f 79 120 121
f 79 121 122
f 79 122 123
f 79 123 124
f 79 124 125
f 79 125 80
f 80 125 81
f 81 125 82
f 82 125 126
f 82 126 83
f 83 126 127
f 85 88 128
f 85 128 129
f 85 129 130
f 85 130 86
f 86 130 116
f 88 90 131
f 88 131 132
f 88 132 128
f 90 91 133
f 90 133 134
f 90 134 131
f 91 134 133
f 92 135 136
f 92 136 137
f 92 137 138
f 92 138 139
f 92 139 93
f 93 138 95
f 93 139 138
f 94 98 140
f 94 140 99
f 95 141 142
f 95 142 97
f 95 97 96
f 95 138 141
f 97 142 143
f 97 143 144
f 97 144 98
f 98 144 145
f 98 145 140
f 99 140 145
f 99 145 100
f 100 145 146
f 100 146 147
f 100 147 102
f 100 102 101
f 102 147 103
f 103 147 148
f 103 148 104
f 106 149 107
f 106 111 110
f 106 110 109
f 106 109 150
f 106 150 151
f 106 151 152
f 106 152 153
f 106 153 154
f 106 154 149
f 107 155 112
f 107 149 155
f 108 115 156
f 108 156 157
f 108 157 109
f 109 157 156
f 109 156 150
f 112 158 136
f 112 136 113
f 112 155 158
f 113 136 114
f 114 136 135
f 115 116 159
f 115 159 156
f 116 160 159
f 116 130 161
f 116 161 160
f 117 148 162
f 117 162 163
f 117 163 164
f 117 164 165
f 117 165 118
f 118 165 119
f 119 165 166
f 119 166 167
f 119 167 168
f 119 168 169
f 119 169 120
f 120 169 170
f 120 170 121
f 121 171 172
f 121 172 173
f 121 173 122
f 121 170 174
f 121 174 171
f 122 173 175
f 122 175 124
f 122 124 123
f 124 175 176
f 124 176 125
f 125 177 126
f 125 176 177
f 126 177 127
f 127 177 178
f 128 132 179
f 128 179 129
f 129 161 130
f 129 179 161
f 131 180 132
f 131 134 181
f 131 181 180
f 132 182 183
f 132 183 184
f 132 184 185
f 132 185 179
f 132 180 182
f 136 158 137
f 137 158 141
f 137 141 138
f 141 158 155
f 141 155 149
f 141 149 142
f 142 149 186
f 142 186 143
f 143 186 187
f 143 187 188
f 143 188 144
f 144 188 189
f 144 189 190
f 144 190 191
f 144 191 163
f 144 163 162
f 144 162 146
f 144 146 145
f 146 162 147
f 147 162 148
f 149 154 186
f 150 156 151
f 151 192 152
f 151 156 193
f 151 193 194
f 151 194 192
f 152 192 153
f 153 195 196
f 153 196 154
f 153 192 197
f 153 197 194
f 153 194 195
f 154 196 186
f 156 159 198
f 156 198 199
f 156 199 193
f 159 160 198
f 160 200 198
f 160 161 201
f 160 201 202
f 160 202 203
f 160 203 204
f 160 204 200
f 161 179 201
f 163 191 167
f 163 167 164
f 164 167 166
f 164 166 165
f 167 205 168
f 167 191 205
f 168 205 169
f 169 206 170
f 169 205 207
f 169 207 208
f 169 208 206
f 170 209 210
f 170 210 174
f 170 206 209
f 171 174 172
f 172 174 211
f 172 211 212
f 172 212 213
f 172 213 175
f 172 175 173
f 174 210 214
f 174 214 215
f 174 215 216
f 174 216 211
f 175 213 176
f 176 213 177
f 177 217 218
f 177 218 178
f 177 213 219
f 177 219 217
f 178 218 220
f 179 185 201
f 180 181 221
f 180 221 222
f 180 222 223
f 180 223 224
f 180 224 182
f 182 225 183
f 182 224 226
f 182 226 227
f 182 227 225
f 183 225 184
f 184 225 203
f 184 203 202
f 184 202 201
f 184 201 185
f 186 196 228
f 186 228 229
f 186 229 187
f 187 229 230
f 187 230 231
f 187 231 188
f 188 231 232
f 188 232 233
f 188 233 189
f 189 233 234
f 189 234 208
f 189 208 190
f 190 208 207
f 190 207 205
f 190 205 191
f 192 194 197
f 193 199 194
f 194 199 235
f 194 235 236
f 194 236 195
f 195 230 237
f 195 237 228
f 195 228 196
f 195 236 230
f 198 200 235
f 198 235 199
f 200 204 227
f 200 227 226
f 200 226 238
f 200 238 235
f 203 225 204
f 204 225 227
f 206 208 234
f 206 234 239
f 206 239 236
f 206 236 209
f 209 236 235
f 209 235 238
f 209 238 240
f 209 240 210
f 210 240 214
f 211 216 241
f 211 241 212
f 212 241 213
f 213 241 219
f 214 242 215
f 214 240 242
f 215 242 243
f 215 243 244
f 215 244 216
f 216 244 219
f 216 219 241
f 217 219 245
f 217 245 218
f 218 245 220
f 219 244 243
f 219 243 245
f 220 245 223
f 220 223 246
f 222 246 223
f 223 245 243
f 223 243 224
f 224 243 247
f 224 247 238
f 224 238 226
f 228 237 229
f 229 237 230
f 230 236 239
f 230 239 232
f 230 232 231
f 232 239 233
f 233 239 234
f 238 247 240
f 240 247 242
f 242 247 243
