v -0.249849 -0.00010875 0.616097
v -0.262029 -0.00010875 0.616097
v -0.237659 -0.0182881 0.616097
v -0.237659 -0.00010875 0.616081
v -0.268214 -0.00010875 0.616065
v -0.262029 -0.0670417 0.616097
v -0.179478 -0.16453 0.616097
v -0.228166 -0.00010875 0.612733
v -0.274219 -0.00010875 0.616034
v -0.274219 -0.00609966 0.616034
v -0.262029 -0.0792301 0.61594
v -0.249849 -0.103588 0.616097
v -0.274219 -0.0182881 0.615893
v -0.179478 -0.188907 0.616097
v -0.179478 -0.151497 0.614195
v -0.226459 -0.00010875 0.608079
v -0.179478 -0.140153 0.611884
v -0.179478 -0.139383 0.611616
v -0.278961 -0.00010875 0.614336
v -0.283565 -0.00609966 0.612686
v -0.271733 -0.0792301 0.612575
v -0.262029 -0.0914186 0.614855
v -0.249849 -0.115777 0.615531
v -0.274219 -0.0304765 0.615562
v -0.274219 -0.0426649 0.614886
v -0.237659 -0.127965 0.616097
v -0.28328 -0.0182881 0.612528
v -0.188919 -0.188907 0.616097
v -0.179478 -0.191931 0.615893
v -0.224731 -0.00010875 0.603284
v -0.179478 -0.135026 0.603001
v -0.283565 -0.00010875 0.612686
v -0.28682 -0.00609966 0.603284
v -0.285219 -0.00010875 0.607922
v -0.269994 -0.0914186 0.611506
v -0.281995 -0.0426649 0.611538
v -0.28092 -0.0548533 0.610233
v -0.259058 -0.115777 0.612182
v -0.250492 -0.128265 0.612968
v -0.237659 -0.140153 0.615327
v -0.225479 -0.152342 0.61605
v -0.282785 -0.0304765 0.612214
v -0.213289 -0.16453 0.616097
v -0.286241 -0.0182881 0.603284
v -0.201109 -0.176719 0.616097
v -0.201109 -0.188907 0.615248
v -0.188919 -0.191931 0.615877
v -0.179478 -0.191931 0.537068
v -0.22471 -0.00010875 0.597295
v -0.179478 -0.135008 0.594434
v -0.224699 -0.00010875 0.591101
v -0.28682 -0.00010875 0.603284
v -0.287105 -0.00609966 0.577518
v -0.287105 -0.0182881 0.574326
v -0.287105 -0.103588 0.546941
v -0.287105 -0.117148 0.542554
v -0.287105 -0.126463 0.539253
v -0.287105 -0.126895 0.539096
v -0.287105 -0.127308 0.538939
v -0.287105 -0.140153 0.534002
v -0.287105 -0.151478 0.52938
v -0.287105 -0.152736 0.528846
v -0.287105 -0.16453 0.523642
v -0.287105 -0.177132 0.517825
v -0.287105 -0.177526 0.517637
v -0.287105 -0.178766 0.517039
v -0.28033 -0.0610133 0.6094
v -0.268688 -0.098987 0.610186
v -0.285261 -0.0304765 0.603284
v -0.287105 -0.191931 0.510531
v -0.257203 -0.124416 0.610878
v -0.246857 -0.140153 0.611978
v -0.237964 -0.152116 0.612764
v -0.226459 -0.165488 0.613377
v -0.213289 -0.176719 0.614918
v -0.287105 -0.188907 0.512072
v -0.21272 -0.1881 0.611789
v -0.200962 -0.191931 0.614415
v -0.179478 -0.155234 0.558889
v -0.287105 -0.191931 0.455492
v -0.287105 -0.00010875 0.516175
v -0.252704 -0.00010875 0.545667
v -0.239513 -0.00010875 0.557002
v -0.233423 -0.00010875 0.562253
v -0.228166 -0.00010875 0.568337
v -0.179478 -0.135008 0.591101
v -0.22471 -0.00010875 0.585095
v -0.179478 -0.135026 0.5792
v -0.287105 -0.00010875 0.577518
v -0.210592 -0.191931 0.611176
v -0.219948 -0.18348 0.61006
v -0.234108 -0.16207 0.611569
v -0.244781 -0.14791 0.61061
v -0.22255 -0.176719 0.611569
v -0.179478 -0.14868 0.563007
v -0.224731 -0.00010875 0.578917
v -0.179478 -0.139383 0.569532
v -0.179478 -0.139834 0.569186
v -0.179478 -0.146464 0.564407
v -0.179478 -0.135778 0.574515
f 1 2 6
f 1 6 12
f 1 12 26
f 1 26 43
f 1 43 45
f 1 45 28
f 1 28 14
f 1 14 7
f 1 7 3
f 1 3 4
f 1 4 8
f 1 8 16
f 1 16 30
f 1 30 49
f 1 49 51
f 1 51 87
f 1 87 96
f 1 96 85
f 1 85 84
f 1 84 83
f 1 83 82
f 1 82 81
f 1 81 89
f 1 89 52
f 1 52 34
f 1 34 32
f 1 32 19
f 1 19 9
f 1 9 5
f 1 5 2
f 2 5 6
f 3 7 4
f 4 7 8
f 5 9 10
f 5 10 6
f 6 11 12
f 6 10 13
f 6 13 11
f 7 14 29
f 7 29 48
f 7 48 79
f 7 79 95
f 7 95 99
f 7 99 98
f 7 98 97
f 7 97 100
f 7 100 88
f 7 88 86
f 7 86 50
f 7 50 31
f 7 31 18
f 7 18 17
f 7 17 15
f 7 15 8
f 8 15 17
f 8 17 18
f 8 18 16
f 9 19 10
f 10 19 20
f 10 20 13
f 11 21 22
f 11 22 23
f 11 23 12
f 11 13 24
f 11 24 25
f 11 25 21
f 12 23 26
f 13 20 27
f 13 27 24
f 14 28 29
f 16 18 30
f 18 31 30
f 19 32 20
f 20 33 27
f 20 32 34
f 20 34 33
f 21 35 22
f 21 25 36
f 21 36 37
f 21 37 35
f 22 35 38
f 22 38 23
f 23 38 39
f 23 39 40
f 23 40 41
f 23 41 26
f 24 27 42
f 24 42 25
f 25 42 36
f 26 41 43
f 27 33 44
f 27 44 42
f 28 45 46
f 28 46 47
f 28 47 29
f 29 47 78
f 29 78 90
f 29 90 70
f 29 70 80
f 29 80 48
f 30 31 49
f 31 50 51
f 31 51 49
f 33 34 52
f 33 52 89
f 33 89 53
f 33 53 54
f 33 54 55
f 33 55 56
f 33 56 57
f 33 57 58
f 33 58 59
f 33 59 60
f 33 60 61
f 33 61 62
f 33 62 63
f 33 63 64
f 33 64 65
f 33 65 66
f 33 66 44
f 35 37 67
f 35 67 68
f 35 68 38
f 36 42 44
f 36 44 69
f 36 69 37
f 37 69 70
f 37 70 67
f 38 68 71
f 38 71 72
f 38 72 39
f 39 72 40
f 40 72 73
f 40 73 74
f 40 74 75
f 40 75 41
f 41 75 46
f 41 46 43
f 43 46 45
f 44 66 76
f 44 76 69
f 46 75 77
f 46 77 78
f 46 78 47
f 48 80 81
f 48 81 82
f 48 82 83
f 48 83 84
f 48 84 85
f 48 85 79
f 50 86 51
f 51 86 88
f 51 88 87
f 53 89 81
f 53 81 80
f 53 80 70
f 53 70 76
f 53 76 66
f 53 66 65
f 53 65 64
f 53 64 63
f 53 63 62
f 53 62 61
f 53 61 60
f 53 60 59
f 53 59 58
f 53 58 57
f 53 57 56
f 53 56 55
f 53 55 54
f 67 70 68
f 68 70 71
f 69 76 70
f 70 90 91
f 70 91 92
f 70 92 93
f 70 93 71
f 71 93 72
f 72 93 73
f 73 93 92
f 73 92 74
f 74 92 94
f 74 94 75
f 75 94 77
f 77 94 91
f 77 91 90
f 77 90 78
f 79 85 95
f 85 96 97
f 85 97 98
f 85 98 99
f 85 99 95
f 87 88 96
f 88 100 96
f 91 94 92
f 96 100 97
