v 0.000676819 -0.288846 0.567988
v 0.000676819 -0.288846 0.514685
v -0.00609487 -0.288846 0.567988
v 0.000676819 -0.367655 0.489665
v -0.179478 -0.288846 0.461765
v 0.000676819 -0.401215 0.38182
v -0.0199028 -0.288846 0.565674
v -0.0670401 -0.352241 0.498594
v -0.0582404 -0.35303 0.499286
v -0.0501109 -0.353692 0.499888
v -0.042669 -0.360224 0.494476
v -0.0304835 -0.360855 0.495113
v -0.0304835 -0.36704 0.489045
v -0.018298 -0.36745 0.489464
v -0.00609487 -0.367655 0.489665
v 0.000676819 -0.373714 0.482466
v -0.179478 -0.300663 0.506211
v -0.177821 -0.288941 0.51607
v -0.152533 -0.288846 0.527514
v -0.179478 -0.358773 0.38182
v 0.000676819 -0.450015 0.382221
v -0.0241174 -0.449542 0.38182
v -0.0332522 -0.288846 0.563341
v -0.0792432 -0.350947 0.497446
v -0.0792432 -0.357258 0.491359
v -0.0670401 -0.358489 0.492489
v -0.0506928 -0.365967 0.487861
v -0.042669 -0.366441 0.488371
v -0.0315945 -0.374045 0.480444
v -0.0282792 -0.378179 0.475779
v -0.018298 -0.373509 0.48223
v -0.00609487 -0.373714 0.482466
v 0.000676819 -0.394683 0.456717
v -0.178085 -0.320401 0.490703
v -0.178085 -0.313932 0.49628
v -0.178085 -0.307227 0.501692
v -0.174029 -0.294573 0.513519
v -0.179478 -0.35172 0.456535
v -0.163219 -0.289019 0.522722
v -0.166887 -0.302715 0.510275
v -0.168809 -0.31592 0.498922
v -0.148759 -0.293832 0.525127
v -0.140823 -0.288846 0.532307
v -0.129149 -0.431287 0.38182
v -0.176551 -0.413726 0.382585
v -0.179478 -0.400804 0.400535
v -0.00609487 -0.44921 0.383587
v -0.0155294 -0.449479 0.382622
v 0.000676819 -0.442095 0.395724
v -0.00609487 -0.442095 0.395724
v -0.0311713 -0.44839 0.38315
v -0.041417 -0.448027 0.382312
v -0.0563006 -0.446402 0.382348
v -0.0909526 -0.440974 0.38182
v -0.018298 -0.44189 0.395378
v -0.0524915 -0.288846 0.559077
v -0.0913758 -0.343358 0.50151
v -0.0913758 -0.349448 0.496043
v -0.0913758 -0.355822 0.489956
v -0.0792432 -0.363364 0.484781
v -0.0670401 -0.364579 0.48622
v -0.0588224 -0.365289 0.487077
v -0.042669 -0.382471 0.468854
v -0.042669 -0.372184 0.48141
v -0.0670401 -0.425181 0.412726
v -0.0617321 -0.414499 0.42674
v -0.0548546 -0.426064 0.413783
v -0.0479418 -0.42649 0.414312
v -0.0315945 -0.382218 0.470457
v -0.0398122 -0.426885 0.414804
v -0.0304835 -0.427279 0.415296
v -0.018298 -0.400568 0.44899
v -0.00609487 -0.394683 0.456717
v 0.000676819 -0.402966 0.44653
v -0.165265 -0.323383 0.494002
v -0.178085 -0.326949 0.484198
v -0.169867 -0.328685 0.487077
v -0.161756 -0.330752 0.489118
v -0.179478 -0.365163 0.441774
v -0.169162 -0.340565 0.474576
v -0.178085 -0.339224 0.470949
v -0.160662 -0.318066 0.500635
v -0.140153 -0.295883 0.52684
v -0.152339 -0.32007 0.502293
v -0.117263 -0.288846 0.541072
v -0.124688 -0.290976 0.536735
v -0.151651 -0.423714 0.382202
v -0.114477 -0.435436 0.38182
v -0.123965 -0.4272 0.391059
v -0.132094 -0.42597 0.389054
v -0.141282 -0.425923 0.384426
v -0.16433 -0.418412 0.383059
v -0.168245 -0.413442 0.388581
v -0.171807 -0.402714 0.402922
v -0.177838 -0.404907 0.395432
v -0.179478 -0.393736 0.409592
v 0.000676819 -0.438497 0.401811
v -0.00609487 -0.438497 0.401811
v -0.0304835 -0.441574 0.394813
v -0.0304835 -0.437961 0.400936
v -0.042669 -0.441053 0.39392
v -0.0548546 -0.440406 0.392845
v -0.0676573 -0.444509 0.382877
v -0.0794196 -0.442331 0.383259
v -0.082488 -0.438276 0.389237
v -0.0913758 -0.437361 0.387706
v -0.10439 -0.436856 0.383624
v -0.018298 -0.438292 0.401464
v -0.0681158 -0.288846 0.55525
v -0.100299 -0.342143 0.500435
v -0.101057 -0.354544 0.488626
v -0.0913758 -0.361928 0.483068
v -0.0792432 -0.368429 0.478676
v -0.0913758 -0.36704 0.476963
v -0.0920283 -0.373919 0.468562
v -0.0913758 -0.416803 0.417318
v -0.0821706 -0.401562 0.43802
v -0.0670401 -0.375702 0.47279
v -0.0785731 -0.397507 0.443779
v -0.0792432 -0.418049 0.418831
v -0.0670401 -0.380719 0.466703
v -0.042669 -0.404607 0.441756
v -0.069844 -0.413837 0.42592
v -0.0792432 -0.42414 0.411432
v -0.0792432 -0.428826 0.405309
v -0.0670401 -0.42982 0.406603
v -0.0548546 -0.430672 0.407697
v -0.0433921 -0.430561 0.409464
v -0.0304835 -0.432581 0.408316
v -0.018298 -0.433259 0.408316
v -0.018298 -0.427627 0.415697
v -0.00609487 -0.422862 0.422057
v 0.000676819 -0.422862 0.422057
v -0.152339 -0.32616 0.497245
v -0.165441 -0.335658 0.481865
v -0.152339 -0.339019 0.484981
v -0.144844 -0.340676 0.48684
v -0.152339 -0.332929 0.491122
v -0.179478 -0.375497 0.430293
v -0.168263 -0.352383 0.461947
v -0.161015 -0.34249 0.476653
v -0.140153 -0.301989 0.52181
v -0.143927 -0.328069 0.498849
v -0.140153 -0.315479 0.510694
v -0.103438 -0.288862 0.545501
v -0.0825938 -0.288846 0.551569
v -0.133981 -0.316867 0.51186
v -0.115782 -0.293832 0.537373
v -0.145091 -0.413979 0.40161
v -0.152339 -0.416472 0.393355
v -0.10663 -0.425828 0.401027
v -0.115782 -0.428336 0.392972
v -0.115782 -0.424629 0.399059
v -0.127985 -0.423225 0.395542
v -0.140682 -0.418333 0.396963
v -0.152339 -0.412622 0.399478
v -0.160098 -0.415004 0.391022
v -0.164313 -0.410555 0.395505
v -0.164524 -0.404212 0.404817
v -0.164524 -0.399211 0.410904
v -0.173359 -0.391227 0.415806
v -0.179478 -0.386605 0.417883
v 0.000676819 -0.434742 0.406858
v -0.00609487 -0.433654 0.408316
v -0.042669 -0.437424 0.400025
v -0.0670401 -0.439554 0.391387
v -0.0548546 -0.436762 0.398913
v -0.0670401 -0.435926 0.397473
v -0.0743584 -0.438955 0.390366
v -0.0787671 -0.435405 0.395104
v -0.0913758 -0.432312 0.396107
v -0.0985002 -0.426806 0.402539
v -0.102962 -0.429346 0.396617
v -0.108429 -0.340912 0.499341
v -0.109187 -0.353314 0.487314
v -0.0990116 -0.366109 0.475851
v -0.115782 -0.346151 0.492216
v -0.0965428 -0.37758 0.462877
v -0.110351 -0.414578 0.41464
v -0.103597 -0.415383 0.415606
v -0.0913758 -0.422893 0.409792
v -0.074041 -0.402351 0.438986
v -0.0913758 -0.427611 0.403706
v -0.00609487 -0.427816 0.415934
v 0.000676819 -0.42911 0.414239
v -0.160133 -0.354244 0.464025
v -0.152339 -0.344478 0.478895
v -0.136732 -0.342364 0.488608
v -0.152339 -0.350552 0.472079
v -0.143627 -0.352462 0.474211
v -0.140347 -0.335264 0.49371
v -0.167293 -0.364153 0.449282
v -0.135815 -0.329836 0.500325
v -0.115782 -0.299938 0.532216
v -0.115782 -0.313222 0.520936
v -0.115782 -0.32037 0.514849
v -0.115782 -0.32646 0.509637
v -0.103597 -0.296056 0.539286
v -0.106401 -0.328085 0.511004
v -0.136979 -0.415351 0.403542
v -0.140682 -0.410587 0.407879
v -0.151757 -0.405916 0.408735
v -0.12795 -0.416756 0.405364
v -0.114971 -0.417813 0.408808
v -0.155407 -0.401057 0.413091
v -0.164524 -0.393136 0.417993
v -0.158176 -0.377706 0.438676
v -0.115782 -0.33965 0.498302
v -0.115782 -0.352256 0.486093
v -0.115782 -0.363569 0.472917
v -0.115782 -0.36876 0.466831
v -0.107141 -0.364894 0.474448
v -0.12795 -0.344036 0.490248
v -0.112484 -0.403013 0.427578
v -0.118498 -0.413363 0.413218
v -0.159163 -0.365983 0.451341
v -0.12795 -0.350126 0.483651
v -0.12795 -0.337457 0.496334
v -0.142199 -0.364137 0.4614
v -0.134069 -0.365668 0.463168
v -0.156853 -0.389397 0.42592
v -0.12795 -0.331383 0.501619
v -0.115782 -0.333576 0.503532
v -0.12795 -0.411943 0.411469
v -0.140153 -0.403865 0.416353
v -0.147313 -0.402572 0.414877
v -0.12795 -0.355412 0.477564
v -0.12795 -0.361486 0.47053
v -0.12795 -0.36674 0.464444
v -0.130719 -0.388924 0.437565
v -0.12795 -0.405853 0.41874
v -0.120596 -0.401798 0.426157
v -0.140153 -0.392505 0.429546
v -0.140153 -0.398611 0.422476
v -0.132517 -0.37728 0.450357
f 1 2 5
f 1 5 19
f 1 19 43
f 1 43 85
f 1 85 146
f 1 146 109
f 1 109 56
f 1 56 23
f 1 23 7
f 1 7 3
f 1 3 15
f 1 15 4
f 1 4 16
f 1 16 33
f 1 33 74
f 1 74 133
f 1 133 185
f 1 185 163
f 1 163 97
f 1 97 49
f 1 49 21
f 1 21 6
f 1 6 2
f 2 6 5
f 3 7 8
f 3 8 9
f 3 9 10
f 3 10 11
f 3 11 12
f 3 12 13
f 3 13 14
f 3 14 15
f 4 15 32
f 4 32 16
f 5 17 18
f 5 18 19
f 5 6 20
f 5 20 46
f 5 46 96
f 5 96 162
f 5 162 139
f 5 139 79
f 5 79 38
f 5 38 17
f 6 21 22
f 6 22 54
f 6 54 88
f 6 88 44
f 6 44 20
f 7 23 8
f 8 24 25
f 8 25 26
f 8 26 9
f 8 23 24
f 9 26 27
f 9 27 10
f 10 27 11
f 11 27 28
f 11 28 13
f 11 13 12
f 13 28 29
f 13 29 30
f 13 30 31
f 13 31 14
f 14 31 32
f 14 32 15
f 16 32 73
f 16 73 33
f 17 34 35
f 17 35 36
f 17 36 37
f 17 37 18
f 17 38 34
f 18 37 39
f 18 39 19
f 19 39 40
f 19 40 41
f 19 41 42
f 19 42 43
f 20 44 45
f 20 45 46
f 21 47 48
f 21 48 22
f 21 49 50
f 21 50 47
f 22 51 52
f 22 52 53
f 22 53 54
f 22 48 55
f 22 55 51
f 23 56 24
f 24 56 57
f 24 57 58
f 24 58 59
f 24 59 25
f 25 59 60
f 25 60 61
f 25 61 26
f 26 61 62
f 26 62 27
f 27 63 64
f 27 64 28
f 27 62 65
f 27 65 66
f 27 66 67
f 27 67 68
f 27 68 63
f 28 64 29
f 29 64 63
f 29 63 69
f 29 69 30
f 30 69 70
f 30 70 71
f 30 71 72
f 30 72 31
f 31 73 32
f 31 72 73
f 33 73 74
f 34 75 41
f 34 41 35
f 34 38 76
f 34 76 77
f 34 77 78
f 34 78 75
f 35 41 36
f 36 41 40
f 36 40 37
f 37 40 39
f 38 79 80
f 38 80 81
f 38 81 76
f 41 82 42
f 41 75 82
f 42 83 43
f 42 82 84
f 42 84 83
f 43 83 86
f 43 86 85
f 44 87 45
f 44 88 89
f 44 89 90
f 44 90 91
f 44 91 87
f 45 92 93
f 45 93 94
f 45 94 95
f 45 95 46
f 45 87 92
f 46 95 94
f 46 94 96
f 47 50 48
f 48 50 55
f 49 97 98
f 49 98 50
f 50 98 108
f 50 108 55
f 51 55 99
f 51 99 52
f 52 99 100
f 52 100 101
f 52 101 102
f 52 102 53
f 53 103 54
f 53 102 103
f 54 103 104
f 54 104 105
f 54 105 106
f 54 106 107
f 54 107 88
f 55 108 100
f 55 100 99
f 56 109 110
f 56 110 57
f 57 110 58
f 58 110 111
f 58 111 59
f 59 111 112
f 59 112 60
f 60 113 61
f 60 112 114
f 60 114 115
f 60 115 116
f 60 116 117
f 60 117 113
f 61 118 62
f 61 113 119
f 61 119 120
f 61 120 118
f 62 118 121
f 62 121 65
f 63 68 122
f 63 122 69
f 65 123 124
f 65 124 125
f 65 125 126
f 65 126 67
f 65 67 66
f 65 121 123
f 67 126 127
f 67 127 68
f 68 127 128
f 68 128 70
f 68 70 122
f 69 122 70
f 70 128 129
f 70 129 71
f 71 129 130
f 71 130 131
f 71 131 72
f 72 131 132
f 72 132 73
f 73 132 74
f 74 132 133
f 75 134 82
f 75 78 134
f 76 81 77
f 77 81 80
f 77 80 135
f 77 135 78
f 78 135 136
f 78 136 137
f 78 137 138
f 78 138 134
f 79 139 140
f 79 140 80
f 80 140 141
f 80 141 136
f 80 136 135
f 82 134 84
f 83 84 142
f 83 142 86
f 84 134 143
f 84 143 144
f 84 144 142
f 85 145 146
f 85 86 147
f 85 147 148
f 85 148 145
f 86 142 144
f 86 144 147
f 87 91 149
f 87 149 150
f 87 150 92
f 88 107 151
f 88 151 152
f 88 152 89
f 89 152 153
f 89 153 154
f 89 154 90
f 90 154 155
f 90 155 91
f 91 155 149
f 92 150 156
f 92 156 157
f 92 157 93
f 93 157 156
f 93 156 158
f 93 158 94
f 94 158 156
f 94 156 149
f 94 149 159
f 94 159 160
f 94 160 161
f 94 161 96
f 96 161 162
f 97 163 98
f 98 163 164
f 98 164 130
f 98 130 108
f 100 165 101
f 100 108 129
f 100 129 128
f 100 128 165
f 101 165 102
f 102 166 103
f 102 165 167
f 102 167 168
f 102 168 166
f 103 166 169
f 103 169 104
f 104 169 105
f 105 169 170
f 105 170 171
f 105 171 106
f 106 171 107
f 107 171 172
f 107 172 173
f 107 173 151
f 108 130 129
f 109 146 110
f 110 174 111
f 110 146 174
f 111 175 176
f 111 176 112
f 111 174 177
f 111 177 175
f 112 176 115
f 112 115 114
f 113 117 119
f 115 176 178
f 115 178 179
f 115 179 180
f 115 180 116
f 116 180 181
f 116 181 124
f 116 124 120
f 116 120 117
f 117 120 119
f 118 120 182
f 118 182 121
f 120 123 182
f 120 124 123
f 121 182 123
f 124 181 183
f 124 183 125
f 125 183 170
f 125 170 168
f 125 168 126
f 126 168 167
f 126 167 127
f 127 167 165
f 127 165 128
f 130 164 131
f 131 164 184
f 131 184 132
f 132 184 133
f 133 184 185
f 134 138 143
f 136 141 140
f 136 140 186
f 136 186 187
f 136 187 137
f 137 188 138
f 137 187 189
f 137 189 190
f 137 190 188
f 138 191 143
f 138 188 191
f 139 162 140
f 140 162 192
f 140 192 186
f 143 193 147
f 143 147 144
f 143 191 193
f 145 148 194
f 145 194 195
f 145 195 196
f 145 196 197
f 145 197 198
f 145 198 146
f 146 198 199
f 146 199 174
f 147 193 148
f 148 193 194
f 149 200 201
f 149 201 202
f 149 202 159
f 149 156 150
f 149 155 200
f 151 203 153
f 151 153 152
f 151 173 172
f 151 172 204
f 151 204 203
f 153 203 200
f 153 200 154
f 154 200 155
f 159 202 205
f 159 205 160
f 160 205 206
f 160 206 161
f 161 206 207
f 161 207 192
f 161 192 162
f 163 185 164
f 164 185 184
f 166 168 170
f 166 170 169
f 170 183 171
f 171 183 172
f 172 183 181
f 172 181 179
f 172 179 204
f 174 199 208
f 174 208 177
f 175 209 210
f 175 210 211
f 175 211 212
f 175 212 176
f 175 177 213
f 175 213 209
f 176 212 214
f 176 214 179
f 176 179 178
f 177 208 213
f 179 214 215
f 179 215 204
f 179 181 180
f 186 192 216
f 186 216 187
f 187 216 189
f 188 190 217
f 188 217 213
f 188 213 218
f 188 218 191
f 189 216 207
f 189 207 190
f 190 219 220
f 190 220 217
f 190 207 221
f 190 221 219
f 191 218 193
f 192 207 216
f 193 218 222
f 193 222 194
f 194 222 195
f 195 222 196
f 196 222 197
f 197 223 199
f 197 199 198
f 197 222 223
f 199 223 208
f 200 203 224
f 200 224 201
f 201 224 225
f 201 225 226
f 201 226 202
f 202 226 205
f 203 204 215
f 203 215 224
f 205 226 221
f 205 221 206
f 206 221 207
f 208 223 222
f 208 222 218
f 208 218 213
f 209 217 227
f 209 227 228
f 209 228 229
f 209 229 230
f 209 230 210
f 209 213 217
f 210 230 211
f 211 230 231
f 211 231 232
f 211 232 212
f 212 232 214
f 214 232 215
f 215 232 231
f 215 231 224
f 217 220 227
f 219 221 220
f 220 228 227
f 220 221 226
f 220 226 233
f 220 233 234
f 220 234 235
f 220 235 228
f 224 231 225
f 225 231 230
f 225 230 234
f 225 234 226
f 226 234 233
f 228 235 229
f 229 235 230
f 230 235 234
