v 0.458278 0.162229 0.203646
v 0.323394 0.3631 0.203646
v 0.508531 0.163075 0.203646
v 0.488869 0.162229 0.253305
v 0.323394 0.162229 0.436139
v 0.323394 0.420814 0.213982
v 0.324445 0.424251 0.203646
v 0.504092 0.176567 0.203646
v 0.505251 0.163409 0.213242
v 0.499579 0.162819 0.227365
v 0.475422 0.162229 0.285396
v 0.330571 0.162229 0.488987
v 0.323557 0.163768 0.494511
v 0.323394 0.201115 0.473725
v 0.332183 0.41689 0.207234
v 0.323394 0.408604 0.238214
v 0.326928 0.41394 0.222211
v 0.342984 0.403551 0.21683
v 0.353332 0.400909 0.203817
v 0.417576 0.332986 0.203646
v 0.495284 0.199807 0.203646
v 0.498546 0.186699 0.209369
v 0.49976 0.17626 0.216089
v 0.47506 0.169949 0.279758
v 0.469405 0.163409 0.298608
v 0.46319 0.163409 0.311535
v 0.418536 0.162229 0.384088
v 0.342477 0.164178 0.475006
v 0.326928 0.173335 0.486937
v 0.390447 0.162819 0.421845
v 0.358153 0.162998 0.45815
v 0.325043 0.214325 0.463332
v 0.323394 0.225971 0.456954
v 0.327979 0.188187 0.477057
v 0.35335 0.207015 0.438616
v 0.338816 0.215428 0.448354
v 0.350161 0.399293 0.213299
v 0.323394 0.402602 0.249888
v 0.331205 0.40391 0.234968
v 0.338418 0.39188 0.246785
v 0.36629 0.388751 0.20413
v 0.378776 0.376874 0.203988
v 0.400958 0.353276 0.203817
v 0.359947 0.390341 0.213299
v 0.42082 0.323393 0.213954
v 0.425676 0.322033 0.204984
v 0.439341 0.303821 0.203988
v 0.462338 0.267961 0.203845
v 0.413951 0.331011 0.215748
v 0.486984 0.219532 0.203902
v 0.487256 0.212119 0.212217
v 0.488887 0.201115 0.219335
v 0.4878 0.189752 0.23232
v 0.474063 0.177876 0.275145
v 0.462392 0.175875 0.303904
v 0.450558 0.188598 0.316604
v 0.451174 0.176747 0.323381
v 0.453621 0.163742 0.32731
v 0.440845 0.162921 0.348182
v 0.412628 0.165512 0.391548
v 0.401809 0.163409 0.408319
v 0.335554 0.176747 0.47569
v 0.351737 0.165255 0.464158
v 0.365873 0.183262 0.438986
v 0.33994 0.192599 0.461709
v 0.391262 0.173412 0.415723
v 0.378287 0.163409 0.43537
v 0.364151 0.167333 0.449237
v 0.330679 0.221738 0.452569
v 0.352154 0.229511 0.425205
v 0.323394 0.249877 0.439499
v 0.340049 0.229741 0.437506
v 0.352263 0.246748 0.413103
v 0.343691 0.253622 0.416776
v 0.323648 0.239284 0.44713
v 0.365275 0.206528 0.426144
v 0.367848 0.217224 0.416719
v 0.359458 0.22533 0.420336
v 0.326529 0.376746 0.294992
v 0.341317 0.377823 0.268226
v 0.354565 0.391034 0.2213
v 0.323394 0.383954 0.286136
v 0.369497 0.381389 0.213299
v 0.378522 0.372488 0.213299
v 0.388798 0.366229 0.20413
v 0.399345 0.350121 0.213299
v 0.414314 0.316723 0.237559
v 0.427905 0.313158 0.215121
v 0.438924 0.298896 0.213299
v 0.448982 0.286019 0.20917
v 0.454509 0.274553 0.213299
v 0.464077 0.257008 0.214552
v 0.474969 0.244491 0.203988
v 0.403603 0.342913 0.21683
v 0.398819 0.335192 0.238499
v 0.400106 0.326471 0.249888
v 0.387112 0.311003 0.299747
v 0.480714 0.225509 0.213299
v 0.47544 0.207502 0.24408
v 0.461939 0.198704 0.284057
v 0.476074 0.192163 0.257747
v 0.461957 0.189393 0.293055
v 0.45016 0.199602 0.308944
v 0.440047 0.212684 0.316091
v 0.439377 0.202218 0.324861
v 0.438525 0.185391 0.337931
v 0.416035 0.174438 0.380415
v 0.402915 0.175003 0.400518
v 0.396101 0.176696 0.408291
v 0.363716 0.191394 0.436651
v 0.352933 0.187956 0.450348
v 0.378595 0.178414 0.427397
v 0.388544 0.185237 0.412676
v 0.381549 0.188957 0.418485
v 0.37932 0.197806 0.415951
v 0.364187 0.229228 0.412818
v 0.356069 0.235513 0.41709
v 0.339197 0.265524 0.412334
v 0.326747 0.259394 0.429049
v 0.323394 0.274528 0.420393
v 0.360672 0.239361 0.409487
v 0.365257 0.243182 0.401628
v 0.355507 0.253468 0.404447
v 0.34679 0.261266 0.407722
v 0.376112 0.209631 0.412477
v 0.371328 0.224817 0.407892
v 0.327907 0.367025 0.309571
v 0.335917 0.366281 0.298636
v 0.35181 0.376259 0.253106
v 0.323394 0.349505 0.337675
v 0.323449 0.360176 0.324206
v 0.355706 0.367717 0.262047
v 0.36658 0.366537 0.245475
v 0.39215 0.355687 0.217314
v 0.390392 0.341656 0.244507
v 0.402154 0.30459 0.280213
v 0.401084 0.29097 0.302423
v 0.415184 0.293586 0.269763
v 0.427253 0.293484 0.245219
v 0.413299 0.278683 0.295305
v 0.4405 0.289893 0.222838
v 0.451555 0.269141 0.226824
v 0.451102 0.25629 0.244193
v 0.464676 0.246697 0.225514
v 0.474752 0.236642 0.214836
v 0.37941 0.318775 0.302196
v 0.388888 0.303231 0.307691
v 0.376221 0.327163 0.294992
v 0.46357 0.23246 0.24482
v 0.450178 0.220738 0.287873
v 0.450395 0.21017 0.298579
v 0.438235 0.224201 0.3094
v 0.427724 0.236744 0.315835
v 0.428358 0.222739 0.326399
v 0.426546 0.207194 0.341262
v 0.413571 0.18575 0.376485
v 0.391027 0.199807 0.400745
v 0.392748 0.188957 0.405557
v 0.40045 0.191676 0.39263
v 0.384049 0.20132 0.408462
v 0.367794 0.235051 0.404675
v 0.327725 0.278683 0.413046
v 0.33106 0.270552 0.416264
v 0.343129 0.270449 0.404191
v 0.335445 0.274579 0.408633
v 0.323394 0.287969 0.409231
v 0.37941 0.216839 0.404077
v 0.375931 0.22851 0.399407
v 0.372016 0.238104 0.396474
v 0.408188 0.261831 0.322811
v 0.401537 0.269936 0.324833
v 0.390356 0.268628 0.341746
v 0.363227 0.250801 0.396987
v 0.354093 0.266268 0.394225
v 0.339849 0.352096 0.315094
v 0.335137 0.359483 0.310823
v 0.344162 0.356123 0.302794
v 0.33173 0.355892 0.319992
v 0.352462 0.352429 0.295504
v 0.323394 0.323367 0.369794
v 0.327019 0.340732 0.344338
v 0.336225 0.348299 0.324206
v 0.360472 0.348299 0.288101
v 0.363734 0.351378 0.276825
v 0.37787 0.341271 0.268226
v 0.415637 0.27009 0.302053
v 0.391461 0.294433 0.314126
v 0.401447 0.282018 0.312617
v 0.408188 0.27404 0.310596
v 0.426093 0.279607 0.267201
v 0.424825 0.26537 0.288841
v 0.439268 0.256829 0.269308
v 0.461414 0.240592 0.239979
v 0.438743 0.243747 0.286421
v 0.368011 0.331601 0.302594
v 0.371346 0.322443 0.310225
v 0.378577 0.312414 0.312019
v 0.37912 0.306232 0.318597
v 0.364387 0.339912 0.295276
v 0.440301 0.228279 0.301228
v 0.425477 0.248005 0.309029
v 0.414912 0.256777 0.317657
v 0.415618 0.246491 0.325829
v 0.413136 0.228818 0.344423
v 0.402281 0.207348 0.377909
v 0.4158 0.209862 0.355557
v 0.413118 0.204578 0.363672
v 0.388 0.215864 0.392516
v 0.331694 0.283454 0.404931
v 0.34708 0.273886 0.395648
v 0.339831 0.278555 0.400261
v 0.323394 0.299614 0.397699
v 0.328233 0.291586 0.401115
v 0.389667 0.230998 0.377282
v 0.412375 0.264909 0.313585
v 0.39244 0.285532 0.322099
v 0.387456 0.276759 0.337732
v 0.376402 0.278324 0.351428
v 0.37932 0.294356 0.331126
v 0.364115 0.283557 0.362817
v 0.352136 0.339809 0.315094
v 0.347515 0.347453 0.311023
v 0.340701 0.340655 0.32842
v 0.343999 0.343964 0.320305
v 0.354963 0.342836 0.306951
v 0.357373 0.345427 0.298636
v 0.323394 0.311106 0.384373
v 0.326547 0.32901 0.359258
v 0.426274 0.255751 0.298352
v 0.436169 0.237847 0.299063
v 0.35953 0.335089 0.310823
v 0.364061 0.327317 0.314696
v 0.367667 0.319186 0.319565
v 0.364532 0.315569 0.32768
v 0.372107 0.299024 0.335681
v 0.40335 0.233512 0.355101
v 0.400595 0.228638 0.363245
v 0.400124 0.21548 0.374634
v 0.342912 0.282351 0.392118
v 0.339541 0.290457 0.387761
v 0.335627 0.286943 0.396617
v 0.353205 0.316569 0.340978
v 0.355924 0.331703 0.319992
v 0.348349 0.336167 0.324206
v 0.360237 0.3237 0.323836
v 0.350795 0.289277 0.374264
f 1 2 7
f 1 7 20
f 1 20 21
f 1 21 8
f 1 8 3
f 1 3 4
f 1 4 11
f 1 11 27
f 1 27 12
f 1 12 5
f 1 5 2
f 2 6 7
f 2 5 14
f 2 14 33
f 2 33 71
f 2 71 120
f 2 120 166
f 2 166 212
f 2 212 227
f 2 227 180
f 2 180 130
f 2 130 82
f 2 82 38
f 2 38 16
f 2 16 6
f 3 8 9
f 3 9 10
f 3 10 4
f 4 10 11
f 5 12 13
f 5 13 14
f 6 15 7
f 6 16 17
f 6 17 18
f 6 18 15
f 7 19 20
f 7 15 19
f 8 21 22
f 8 22 9
f 9 22 23
f 9 23 10
f 10 23 11
f 11 23 24
f 11 24 25
f 11 25 26
f 11 26 27
f 12 28 29
f 12 29 13
f 12 27 30
f 12 30 31
f 12 31 28
f 13 29 14
f 14 32 33
f 14 29 34
f 14 34 35
f 14 35 36
f 14 36 32
f 15 18 37
f 15 37 19
f 16 38 39
f 16 39 17
f 17 39 18
f 18 39 40
f 18 40 37
f 19 41 42
f 19 42 43
f 19 43 20
f 19 37 44
f 19 44 41
f 20 45 46
f 20 46 47
f 20 47 48
f 20 48 21
f 20 43 49
f 20 49 45
f 21 48 50
f 21 50 51
f 21 51 22
f 22 51 52
f 22 52 23
f 23 52 53
f 23 53 54
f 23 54 24
f 24 54 25
f 25 54 55
f 25 55 26
f 26 55 56
f 26 56 57
f 26 57 58
f 26 58 59
f 26 59 27
f 27 59 60
f 27 60 61
f 27 61 30
f 28 62 29
f 28 31 63
f 28 63 64
f 28 64 62
f 29 62 65
f 29 65 34
f 30 61 66
f 30 66 67
f 30 67 31
f 31 68 63
f 31 67 68
f 32 69 33
f 32 36 70
f 32 70 69
f 33 69 72
f 33 72 73
f 33 73 74
f 33 74 75
f 33 75 71
f 34 65 35
f 35 65 76
f 35 76 77
f 35 77 78
f 35 78 36
f 36 78 70
f 37 40 79
f 37 79 80
f 37 80 81
f 37 81 44
f 38 82 39
f 39 82 40
f 40 82 79
f 41 44 83
f 41 83 42
f 42 83 84
f 42 84 85
f 42 85 43
f 43 85 86
f 43 86 49
f 44 81 83
f 45 49 87
f 45 87 88
f 45 88 46
f 46 88 47
f 47 88 89
f 47 89 90
f 47 90 48
f 48 90 91
f 48 91 92
f 48 92 93
f 48 93 50
f 49 94 95
f 49 95 96
f 49 96 97
f 49 97 87
f 49 86 94
f 50 93 98
f 50 98 51
f 51 98 99
f 51 99 100
f 51 100 52
f 52 100 101
f 52 101 53
f 53 101 54
f 54 101 102
f 54 102 55
f 55 103 56
f 55 102 103
f 56 103 104
f 56 104 105
f 56 105 106
f 56 106 57
f 57 106 60
f 57 60 59
f 57 59 58
f 60 106 107
f 60 107 108
f 60 108 61
f 61 108 109
f 61 109 66
f 62 64 110
f 62 110 111
f 62 111 65
f 63 68 112
f 63 112 64
f 64 112 113
f 64 113 114
f 64 114 115
f 64 115 110
f 65 111 76
f 66 109 113
f 66 113 112
f 66 112 67
f 67 112 68
f 69 70 72
f 70 78 116
f 70 116 117
f 70 117 72
f 71 75 74
f 71 74 118
f 71 118 119
f 71 119 120
f 72 117 73
f 73 117 121
f 73 121 122
f 73 122 123
f 73 123 124
f 73 124 74
f 74 124 118
f 76 111 110
f 76 110 115
f 76 115 125
f 76 125 77
f 77 125 126
f 77 126 116
f 77 116 78
f 79 82 127
f 79 127 128
f 79 128 80
f 80 128 129
f 80 129 81
f 81 129 83
f 82 130 131
f 82 131 127
f 83 129 132
f 83 132 133
f 83 133 84
f 84 86 85
f 84 133 134
f 84 134 86
f 86 134 135
f 86 135 94
f 87 97 136
f 87 136 88
f 88 136 137
f 88 137 138
f 88 138 139
f 88 139 89
f 89 139 140
f 89 140 141
f 89 141 90
f 90 141 91
f 91 141 142
f 91 142 92
f 92 142 143
f 92 143 144
f 92 144 145
f 92 145 93
f 93 145 98
f 94 135 95
f 95 135 97
f 95 97 96
f 97 146 147
f 97 147 137
f 97 137 136
f 97 135 148
f 97 148 146
f 98 145 149
f 98 149 150
f 98 150 151
f 98 151 99
f 99 151 100
f 100 151 102
f 100 102 101
f 102 151 103
f 103 152 104
f 103 151 152
f 104 152 153
f 104 153 154
f 104 154 155
f 104 155 105
f 105 155 156
f 105 156 106
f 106 156 108
f 106 108 107
f 108 157 158
f 108 158 109
f 108 156 159
f 108 159 157
f 109 158 113
f 113 115 114
f 113 158 160
f 113 160 115
f 115 160 125
f 116 121 117
f 116 126 161
f 116 161 121
f 118 162 163
f 118 163 119
f 118 124 164
f 118 164 165
f 118 165 162
f 119 163 120
f 120 163 162
f 120 162 166
f 121 161 122
f 122 161 167
f 122 167 168
f 122 168 169
f 122 169 170
f 122 170 171
f 122 171 172
f 122 172 173
f 122 173 174
f 122 174 123
f 123 174 164
f 123 164 124
f 125 160 167
f 125 167 126
f 126 167 161
f 127 175 176
f 127 176 177
f 127 177 128
f 127 131 178
f 127 178 175
f 128 179 132
f 128 132 129
f 128 177 179
f 130 180 181
f 130 181 182
f 130 182 178
f 130 178 131
f 132 179 133
f 133 179 183
f 133 183 184
f 133 184 134
f 134 184 183
f 134 183 185
f 134 185 135
f 135 185 148
f 137 186 140
f 137 140 139
f 137 139 138
f 137 147 187
f 137 187 188
f 137 188 189
f 137 189 186
f 140 186 190
f 140 190 141
f 141 190 191
f 141 191 142
f 142 191 192
f 142 192 143
f 143 193 144
f 143 192 194
f 143 194 193
f 144 193 149
f 144 149 145
f 146 148 195
f 146 195 196
f 146 196 197
f 146 197 147
f 147 197 198
f 147 198 187
f 148 185 199
f 148 199 195
f 149 193 194
f 149 194 200
f 149 200 150
f 150 200 151
f 151 200 152
f 152 200 201
f 152 201 153
f 153 202 203
f 153 203 204
f 153 204 154
f 153 201 202
f 154 204 205
f 154 205 206
f 154 206 155
f 155 206 207
f 155 207 159
f 155 159 156
f 157 167 160
f 157 160 158
f 157 159 207
f 157 207 206
f 157 206 205
f 157 205 208
f 157 208 167
f 162 165 209
f 162 209 166
f 164 209 165
f 164 174 210
f 164 210 211
f 164 211 209
f 166 209 213
f 166 213 212
f 167 208 168
f 168 208 214
f 168 214 202
f 168 202 169
f 169 202 170
f 170 202 215
f 170 215 171
f 171 215 189
f 171 189 188
f 171 188 216
f 171 216 172
f 172 216 217
f 172 217 173
f 173 217 174
f 174 217 218
f 174 218 219
f 174 219 220
f 174 220 210
f 175 221 222
f 175 222 176
f 175 178 182
f 175 182 223
f 175 223 224
f 175 224 221
f 176 222 177
f 177 222 225
f 177 225 179
f 179 225 226
f 179 226 183
f 180 227 223
f 180 223 228
f 180 228 181
f 181 223 182
f 181 228 223
f 183 226 199
f 183 199 185
f 186 189 215
f 186 215 201
f 186 201 229
f 186 229 191
f 186 191 190
f 187 198 219
f 187 219 216
f 187 216 188
f 191 229 192
f 192 229 194
f 194 229 230
f 194 230 200
f 195 225 231
f 195 231 232
f 195 232 196
f 195 199 226
f 195 226 225
f 196 232 233
f 196 233 197
f 197 233 198
f 198 233 234
f 198 234 235
f 198 235 219
f 200 230 201
f 201 230 229
f 201 215 202
f 202 214 203
f 203 214 236
f 203 236 204
f 204 236 237
f 204 237 208
f 204 208 238
f 204 238 205
f 205 238 208
f 208 237 236
f 208 236 214
f 209 211 213
f 210 220 211
f 211 220 235
f 211 235 239
f 211 239 240
f 211 240 241
f 211 241 213
f 212 213 227
f 213 241 240
f 213 240 234
f 213 234 242
f 213 242 243
f 213 243 244
f 213 244 227
f 216 219 218
f 216 218 217
f 219 235 220
f 221 232 231
f 221 231 225
f 221 225 222
f 221 224 223
f 221 223 244
f 221 244 243
f 221 243 232
f 223 227 244
f 232 243 245
f 232 245 233
f 233 245 242
f 233 242 234
f 234 240 246
f 234 246 235
f 235 246 239
f 239 246 240
f 242 245 243
