v -0.584175 0.0771183 -9.55442e-05
v -0.5659 0.0771183 -0.136916
v -0.596657 0.0771183 -9.55442e-05
v -0.567143 -0.197806 -9.55442e-05
v -0.544902 -0.197779 -0.160242
v -0.564793 0.0771183 -0.14883
v -0.59727 0.0771183 -0.00595838
v -0.596941 0.0710902 -9.55442e-05
v -0.579465 -0.197806 -9.55442e-05
v -0.544962 -0.197806 -0.160022
v -0.563928 0.0771183 -0.160242
v -0.545149 -0.197806 -0.160242
v -0.597204 0.0654657 -9.55442e-05
v -0.597511 0.0771183 -0.0178721
v -0.598059 0.0654657 -0.0178721
v -0.598617 0.053571 -0.0178721
v -0.600288 0.0178599 -0.0178721
v -0.600036 0.0178599 -0.00595838
v -0.599428 0.0178599 -9.55442e-05
v -0.583474 -0.190675 -0.0115234
v -0.580046 -0.197806 -0.00459456
v -0.583721 -0.181014 -9.55442e-05
v -0.575385 0.0771183 -0.160242
v -0.558577 -0.197806 -0.160242
v -0.597483 0.0771183 -0.0181386
v -0.598973 0.0178599 -0.0297702
v -0.599532 0.00593823 -0.0297702
v -0.600841 0.00593823 -0.0178721
v -0.600589 0.00593823 -0.00595838
v -0.599707 0.0118049 -9.55442e-05
v -0.583474 -0.190675 -0.0124796
v -0.580495 -0.197806 -0.0171824
v -0.58032 -0.197806 -0.00674217
v -0.583962 -0.184216 -0.00691461
v -0.585522 -0.172644 -0.00595838
v -0.595353 -0.107223 -0.0118212
v -0.584893 -0.172806 -9.55442e-05
v -0.575911 0.0659771 -0.160242
v -0.583644 0.0771183 -0.108464
v -0.55941 -0.197806 -0.156621
v -0.560127 -0.193608 -0.160242
v -0.596087 0.0771183 -0.030413
v -0.596733 0.0654657 -0.0297702
v -0.598415 0.0297546 -0.0297702
v -0.595736 0.0178599 -0.050102
v -0.586245 0.00593823 -0.113104
v -0.583513 0.00168627 -0.131461
v -0.599532 -0.00595651 -0.0297702
v -0.600841 -0.00595651 -0.0178721
v -0.600589 -0.00595651 -0.00595838
v -0.599981 -0.00595651 -9.55442e-05
v -0.599975 0.00593823 -9.55442e-05
v -0.585725 -0.172644 -0.0178721
v -0.584038 -0.184754 -0.01701
v -0.583775 -0.180933 -0.025961
v -0.57642 -0.196461 -0.0535821
v -0.576092 -0.197806 -0.0536918
v -0.577614 -0.197806 -0.041684
v -0.58032 -0.197806 -0.0194084
v -0.595353 -0.107223 -0.0120563
v -0.587204 -0.160723 -0.00595838
v -0.595545 -0.0971046 -9.55442e-05
v -0.595775 -0.100657 -0.00710272
v -0.596695 -0.0893004 -0.00595838
v -0.596936 -0.0893004 -0.0178721
v -0.587417 -0.154883 -9.55442e-05
v -0.576464 0.0540823 -0.160242
v -0.584088 0.0178599 -0.123152
v -0.588595 0.0771183 -0.0774097
v -0.561025 -0.197806 -0.148845
v -0.560264 -0.193178 -0.160242
v -0.584225 0.00577677 -0.125817
v -0.583513 -0.00173145 -0.131461
v -0.577006 0.0421607 -0.160242
v -0.577428 0.0302659 -0.160242
v -0.578063 0.00644955 -0.160242
v -0.578074 0.00593823 -0.160242
v -0.586245 -0.00595651 -0.113104
v -0.595736 -0.0178782 -0.050102
v -0.598973 -0.0178782 -0.0297702
v -0.59595 -0.0893004 -0.0276383
v -0.600288 -0.0178782 -0.0178721
v -0.600036 -0.0178782 -0.00595838
v -0.599428 -0.0178782 -9.55442e-05
v -0.587406 -0.160723 -0.0178721
v -0.595654 -0.0974545 -0.0257729
v -0.595873 -0.10133 -0.0167591
v -0.586048 -0.160723 -0.0297702
v -0.584345 -0.17259 -0.02988
v -0.572756 -0.173344 -0.101958
v -0.57205 -0.18209 -0.0984782
v -0.572866 -0.185454 -0.090217
v -0.572088 -0.192855 -0.0868623
v -0.574624 -0.196461 -0.0654959
v -0.574306 -0.197806 -0.0654959
v -0.596087 -0.0893004 -9.55442e-05
v -0.5975 -0.0773788 -0.0178721
v -0.598371 -0.0535893 -0.00595838
v -0.599176 -0.0416945 -0.0178721
v -0.57257 -0.197806 -0.0764377
v -0.56113 -0.197107 -0.149206
v -0.560368 -0.192666 -0.160242
v -0.584088 -0.0178782 -0.123152
v -0.584225 -0.00579504 -0.125817
v -0.578074 -0.00595651 -0.160242
v -0.577439 -0.0297729 -0.160242
v -0.577017 -0.0416945 -0.160242
v -0.576475 -0.0535893 -0.160242
v -0.575927 -0.065484 -0.160242
v -0.575374 -0.0773788 -0.160242
v -0.583808 -0.0297729 -0.121397
v -0.588584 -0.0773788 -0.0774097
v -0.595846 -0.0535893 -0.038878
v -0.597856 -0.0416945 -0.0297702
v -0.596087 -0.0768944 -0.03046
v -0.595397 -0.0725886 -0.036072
v -0.57481 -0.0893004 -0.160242
v -0.599482 -0.0297729 -0.00595838
v -0.598316 -0.0416945 -9.55442e-05
v -0.583918 -0.0986924 -0.0982901
v -0.572132 -0.112336 -0.160179
v -0.585424 -0.125012 -0.0654959
v -0.58584 -0.148828 -0.041684
v -0.587735 -0.148828 -0.0297702
v -0.58371 -0.168608 -0.0374358
v -0.563528 -0.172644 -0.160242
v -0.563649 -0.184539 -0.14883
v -0.571913 -0.15744 -0.121428
v -0.597204 -0.065484 -9.55442e-05
v -0.597478 -0.0596443 -9.55442e-05
v -0.561798 -0.184539 -0.160242
v -0.573737 -0.100684 -0.160242
v -0.573687 -0.101195 -0.160242
v -0.57228 -0.111206 -0.160242
v -0.583502 -0.131416 -0.0718603
f 1 2 6
f 1 6 11
f 1 11 23
f 1 23 39
f 1 39 69
f 1 69 42
f 1 42 25
f 1 25 14
f 1 14 7
f 1 7 3
f 1 3 8
f 1 8 13
f 1 13 19
f 1 19 30
f 1 30 52
f 1 52 51
f 1 51 84
f 1 84 119
f 1 119 130
f 1 130 129
f 1 129 96
f 1 96 62
f 1 62 66
f 1 66 37
f 1 37 22
f 1 22 9
f 1 9 4
f 1 4 5
f 1 5 2
f 2 5 6
f 3 7 8
f 4 9 21
f 4 21 33
f 4 33 32
f 4 32 59
f 4 59 58
f 4 58 57
f 4 57 95
f 4 95 100
f 4 100 70
f 4 70 40
f 4 40 24
f 4 24 12
f 4 12 10
f 4 10 5
f 5 11 6
f 5 10 12
f 5 12 24
f 5 24 41
f 5 41 71
f 5 71 102
f 5 102 131
f 5 131 126
f 5 126 134
f 5 134 133
f 5 133 132
f 5 132 117
f 5 117 110
f 5 110 109
f 5 109 108
f 5 108 107
f 5 107 106
f 5 106 105
f 5 105 77
f 5 77 76
f 5 76 75
f 5 75 74
f 5 74 67
f 5 67 38
f 5 38 23
f 5 23 11
f 7 13 8
f 7 14 15
f 7 15 16
f 7 16 17
f 7 17 18
f 7 18 19
f 7 19 13
f 9 20 21
f 9 22 20
f 14 25 15
f 15 25 16
f 16 25 26
f 16 26 27
f 16 27 17
f 17 27 28
f 17 28 29
f 17 29 18
f 18 29 19
f 19 29 30
f 20 31 32
f 20 32 33
f 20 33 21
f 20 22 34
f 20 34 35
f 20 35 36
f 20 36 60
f 20 60 31
f 22 37 35
f 22 35 34
f 23 38 39
f 24 40 41
f 25 42 43
f 25 43 44
f 25 44 26
f 26 44 45
f 26 45 27
f 27 46 47
f 27 47 73
f 27 73 48
f 27 48 49
f 27 49 28
f 27 45 46
f 28 49 50
f 28 50 29
f 29 50 51
f 29 51 52
f 29 52 30
f 31 53 54
f 31 54 55
f 31 55 56
f 31 56 57
f 31 57 58
f 31 58 59
f 31 59 32
f 31 60 53
f 35 37 61
f 35 61 36
f 36 62 63
f 36 63 64
f 36 64 65
f 36 65 60
f 36 61 37
f 36 37 66
f 36 66 62
f 38 67 47
f 38 47 68
f 38 68 39
f 39 68 45
f 39 45 69
f 40 70 41
f 41 70 71
f 42 69 45
f 42 45 44
f 42 44 43
f 45 68 46
f 46 72 47
f 46 68 72
f 47 72 68
f 47 67 74
f 47 74 75
f 47 75 76
f 47 76 77
f 47 77 105
f 47 105 73
f 48 73 78
f 48 78 79
f 48 79 80
f 48 80 81
f 48 81 49
f 49 81 82
f 49 82 83
f 49 83 50
f 50 83 84
f 50 84 51
f 53 85 86
f 53 86 55
f 53 55 54
f 53 60 87
f 53 87 85
f 55 88 89
f 55 89 90
f 55 90 91
f 55 91 92
f 55 92 93
f 55 93 94
f 55 94 56
f 55 86 88
f 56 94 57
f 57 94 95
f 60 65 87
f 62 96 64
f 62 64 63
f 64 97 65
f 64 96 98
f 64 98 99
f 64 99 97
f 65 81 86
f 65 86 87
f 65 97 81
f 70 100 93
f 70 93 101
f 70 101 71
f 71 93 102
f 71 101 93
f 73 103 104
f 73 104 78
f 73 105 106
f 73 106 107
f 73 107 108
f 73 108 109
f 73 109 110
f 73 110 103
f 78 104 103
f 78 103 79
f 79 103 111
f 79 111 112
f 79 112 113
f 79 113 114
f 79 114 80
f 80 114 81
f 81 97 99
f 81 99 82
f 81 114 115
f 81 115 116
f 81 116 112
f 81 112 117
f 81 117 86
f 82 99 98
f 82 98 118
f 82 118 83
f 83 118 84
f 84 118 98
f 84 98 119
f 85 87 86
f 86 117 120
f 86 120 121
f 86 121 122
f 86 122 123
f 86 123 124
f 86 124 88
f 88 125 89
f 88 124 123
f 88 123 125
f 89 125 90
f 90 126 127
f 90 127 91
f 90 125 128
f 90 128 126
f 91 127 92
f 92 127 93
f 93 127 102
f 93 100 95
f 93 95 94
f 96 129 98
f 98 129 130
f 98 130 119
f 102 127 131
f 103 110 111
f 110 117 112
f 110 112 111
f 112 116 113
f 113 116 115
f 113 115 114
f 117 132 120
f 120 132 133
f 120 133 121
f 121 133 134
f 121 134 126
f 121 126 128
f 121 128 122
f 122 128 135
f 122 135 123
f 123 135 128
f 123 128 125
f 126 131 127
