v -0.259927 0.510903 -0.360998
v -0.259927 0.499563 -0.368735
v -0.259927 0.510903 -0.377277
v -0.369745 0.510903 -0.25017
v -0.259927 0.492872 -0.373372
v -0.259927 0.510884 -0.379442
v -0.259956 0.510903 -0.379427
v -0.388943 0.510903 -0.25017
v -0.389103 0.483766 -0.25017
v -0.259927 0.481797 -0.381066
v -0.259927 0.483971 -0.379544
v -0.259927 0.50594 -0.382879
v -0.259927 0.490094 -0.393849
v -0.266535 0.481797 -0.394815
v -0.267133 0.49332 -0.386404
v -0.318439 0.48498 -0.354986
v -0.308388 0.510738 -0.344425
v -0.301853 0.510903 -0.349048
v -0.385383 0.510903 -0.254734
v -0.394282 0.501971 -0.251721
v -0.389891 0.50961 -0.25017
v -0.390576 0.481797 -0.25017
v -0.259927 0.481797 -0.399583
v -0.259927 0.482184 -0.39932
v -0.262567 0.481797 -0.397682
v -0.292618 0.481797 -0.375902
v -0.270255 0.48441 -0.39031
v -0.32601 0.481797 -0.351198
v -0.326725 0.481797 -0.350642
v -0.323545 0.49071 -0.347044
v -0.320117 0.498645 -0.344162
v -0.312181 0.5028 -0.347175
v -0.315201 0.481797 -0.359476
v -0.315317 0.510903 -0.338838
v -0.30849 0.510903 -0.344221
v -0.380321 0.510903 -0.26098
v -0.393932 0.489576 -0.263203
v -0.398075 0.493026 -0.255012
v -0.405048 0.488539 -0.250375
v -0.390328 0.509011 -0.25017
v -0.408943 0.481797 -0.25017
v -0.327236 0.481797 -0.350159
v -0.331495 0.48584 -0.343211
v -0.320438 0.510903 -0.334333
v -0.332619 0.510903 -0.319794
v -0.386725 0.481797 -0.279
v -0.402655 0.481797 -0.259327
v -0.37682 0.481797 -0.291213
v -0.406886 0.481797 -0.253798
v -0.407221 0.481797 -0.25333
v -0.408811 0.482031 -0.25017
v -0.405091 0.488615 -0.25017
v -0.337987 0.481797 -0.339014
v -0.338512 0.481797 -0.338399
v -0.322422 0.510903 -0.3323
v -0.359402 0.48223 -0.31229
v -0.328869 0.510903 -0.324401
v -0.332064 0.498235 -0.331729
v -0.339241 0.481797 -0.337507
v -0.338716 0.481797 -0.338151
v -0.326725 0.510903 -0.327034
f 1 2 5
f 1 5 11
f 1 11 10
f 1 10 23
f 1 23 24
f 1 24 13
f 1 13 12
f 1 12 6
f 1 6 3
f 1 3 7
f 1 7 18
f 1 18 35
f 1 35 34
f 1 34 44
f 1 44 55
f 1 55 61
f 1 61 57
f 1 57 45
f 1 45 36
f 1 36 19
f 1 19 8
f 1 8 4
f 1 4 2
f 2 4 5
f 3 6 7
f 4 8 21
f 4 21 40
f 4 40 52
f 4 52 51
f 4 51 41
f 4 41 22
f 4 22 9
f 4 9 10
f 4 10 11
f 4 11 5
f 6 12 7
f 7 12 13
f 7 13 14
f 7 14 15
f 7 15 16
f 7 16 17
f 7 17 18
f 8 19 20
f 8 20 21
f 9 22 10
f 10 22 41
f 10 41 50
f 10 50 49
f 10 49 47
f 10 47 46
f 10 46 48
f 10 48 59
f 10 59 60
f 10 60 54
f 10 54 53
f 10 53 42
f 10 42 29
f 10 29 28
f 10 28 33
f 10 33 26
f 10 26 14
f 10 14 25
f 10 25 23
f 13 24 25
f 13 25 14
f 14 26 16
f 14 16 27
f 14 27 15
f 15 27 16
f 16 28 29
f 16 29 30
f 16 30 31
f 16 31 32
f 16 32 17
f 16 26 33
f 16 33 28
f 17 32 31
f 17 31 34
f 17 34 35
f 17 35 18
f 19 36 20
f 20 36 37
f 20 37 38
f 20 38 39
f 20 39 40
f 20 40 21
f 23 25 24
f 29 42 43
f 29 43 30
f 30 43 44
f 30 44 31
f 31 44 34
f 36 45 37
f 37 46 47
f 37 47 38
f 37 45 48
f 37 48 46
f 38 47 39
f 39 47 49
f 39 49 50
f 39 50 41
f 39 41 51
f 39 51 52
f 39 52 40
f 42 53 43
f 43 53 54
f 43 54 55
f 43 55 44
f 45 56 48
f 45 57 58
f 45 58 59
f 45 59 56
f 48 56 59
f 54 60 55
f 55 60 58
f 55 58 61
f 57 61 58
f 58 60 59
