v 0.543523 -0.193427 0.200427
v 0.547392 -0.193427 0.192674
v 0.529514 -0.193427 0.200427
v 0.542869 -0.196773 0.200427
v 0.548672 -0.193427 0.190044
v 0.567937 -0.193427 -9.55442e-05
v 0.445758 -0.513371 -9.55442e-05
v 0.445758 -0.427057 0.200427
v 0.541695 -0.201606 0.200427
v 0.550127 -0.196469 0.185039
v 0.557704 -0.193427 0.169513
v 0.537492 -0.218774 0.200427
v 0.580318 -0.193427 -9.55442e-05
v 0.445758 -0.538076 -9.55442e-05
v 0.445758 -0.458453 0.200427
v 0.548819 -0.208399 0.181074
v 0.548672 -0.229994 0.168845
v 0.559145 -0.193427 0.164881
v 0.547498 -0.237936 0.166451
v 0.525312 -0.265818 0.200427
v 0.526326 -0.267913 0.196953
v 0.536705 -0.256017 0.180603
v 0.581945 -0.193427 0.00883535
v 0.576542 -0.214245 -9.55442e-05
v 0.450201 -0.532026 -9.55442e-05
v 0.450401 -0.532567 0.00596961
v 0.445758 -0.538684 0.00596961
v 0.445758 -0.460177 0.198347
v 0.446145 -0.457777 0.200427
v 0.537466 -0.266933 0.172555
v 0.536625 -0.276767 0.168531
v 0.560146 -0.193427 0.160386
v 0.54994 -0.233238 0.161779
v 0.548619 -0.241924 0.158521
v 0.538093 -0.280383 0.161367
v 0.517854 -0.290995 0.200427
v 0.524925 -0.279843 0.192792
v 0.535891 -0.262303 0.178777
v 0.582039 -0.193427 0.015136
v 0.571766 -0.239153 0.0096401
v 0.575862 -0.220295 0.00596961
v 0.575235 -0.220295 -9.55442e-05
v 0.451975 -0.529086 -9.55442e-05
v 0.454003 -0.526619 0.00596961
v 0.445758 -0.538481 0.0150575
v 0.450281 -0.532331 0.0178644
v 0.452376 -0.4643 0.178503
v 0.445758 -0.46528 0.191889
v 0.466037 -0.455581 0.158482
v 0.452776 -0.453046 0.191182
v 0.449761 -0.450748 0.200427
v 0.524004 -0.286095 0.190751
v 0.525339 -0.290725 0.18392
v 0.535091 -0.284709 0.165764
v 0.536772 -0.28863 0.157834
v 0.560306 -0.193427 0.159601
v 0.547445 -0.249866 0.154497
v 0.549526 -0.245168 0.149845
v 0.541001 -0.279843 0.148825
v 0.513825 -0.301979 0.200427
v 0.576849 -0.193427 0.0535879
v 0.576409 -0.196469 0.0535879
v 0.577182 -0.208399 0.0297788
v 0.576022 -0.220295 0.0178644
v 0.571766 -0.239153 0.0149398
v 0.564628 -0.267913 0.0178644
v 0.559946 -0.286737 0.00877646
v 0.564508 -0.267913 0.00596961
v 0.563895 -0.267913 -9.55442e-05
v 0.453696 -0.526045 -9.55442e-05
v 0.45387 -0.526383 0.0178644
v 0.478738 -0.481671 -9.55442e-05
v 0.476296 -0.488193 0.0118188
v 0.476296 -0.488193 0.0119955
v 0.445758 -0.53838 0.0178644
v 0.449574 -0.530708 0.0297788
v 0.445758 -0.535237 0.0363543
v 0.445758 -0.537434 0.0259512
v 0.454203 -0.467172 0.170573
v 0.46569 -0.466497 0.145802
v 0.445758 -0.470586 0.184725
v 0.477604 -0.44338 0.145978
v 0.46577 -0.443414 0.172634
v 0.450681 -0.448923 0.200427
v 0.513158 -0.312726 0.193086
v 0.525899 -0.303128 0.172418
v 0.524618 -0.311543 0.168315
v 0.524765 -0.324048 0.15701
v 0.537492 -0.292246 0.14855
v 0.525419 -0.327799 0.148216
v 0.56112 -0.197145 0.149198
v 0.57218 -0.193427 0.0854251
v 0.548299 -0.252502 0.146548
v 0.560039 -0.204174 0.145488
v 0.547872 -0.286264 0.0962795
v 0.548299 -0.276091 0.110824
v 0.547979 -0.26308 0.132651
v 0.501164 -0.336315 0.200427
v 0.575181 -0.193427 0.0655023
v 0.575568 -0.208399 0.0416932
v 0.574621 -0.196469 0.0655023
v 0.574621 -0.220295 0.0297788
v 0.5729 -0.233205 0.0184925
v 0.563228 -0.267913 0.0297788
v 0.559545 -0.285723 0.0236744
v 0.561266 -0.280992 0.0189636
v 0.559946 -0.286737 0.0157249
v 0.561 -0.279572 -9.55442e-05
v 0.561213 -0.280823 0.00526299
v 0.547979 -0.32229 0.00940457
v 0.549553 -0.316477 0.00563593
v 0.549366 -0.315227 -9.55442e-05
v 0.551034 -0.310124 -9.55442e-05
v 0.452963 -0.52476 0.0297788
v 0.488197 -0.464367 0.0238706
v 0.488343 -0.464604 -9.55442e-05
v 0.48865 -0.465178 0.00596961
v 0.485302 -0.471127 0.00596961
v 0.488584 -0.465043 0.0178644
v 0.452482 -0.523915 0.0358047
v 0.445758 -0.514115 0.112807
v 0.445758 -0.525234 0.0729415
v 0.448146 -0.49333 0.148177
v 0.467051 -0.46893 0.13691
v 0.475416 -0.451322 0.140188
v 0.452869 -0.488836 0.14378
v 0.454057 -0.490931 0.13691
v 0.445758 -0.493499 0.153261
v 0.478431 -0.44703 0.136498
v 0.489184 -0.418946 0.145606
v 0.501431 -0.383731 0.157755
v 0.489624 -0.407793 0.158011
v 0.477831 -0.431822 0.158246
v 0.454283 -0.445881 0.195677
v 0.461394 -0.426922 0.200427
v 0.502098 -0.33885 0.196247
v 0.501124 -0.36004 0.180917
v 0.513558 -0.339357 0.170161
v 0.512598 -0.358857 0.156146
v 0.513238 -0.36298 0.147804
v 0.536385 -0.323203 0.0893115
v 0.523964 -0.345508 0.119461
v 0.512064 -0.369232 0.143152
v 0.515146 -0.363183 0.13691
v 0.562294 -0.208399 0.125015
v 0.571766 -0.203464 0.0729807
v 0.548592 -0.265649 0.125015
v 0.5509 -0.256017 0.125015
v 0.551848 -0.244121 0.13691
v 0.560039 -0.228 0.109764
v 0.549246 -0.302182 0.0535879
v 0.5509 -0.291739 0.0655023
v 0.560706 -0.277984 0.0297788
v 0.550727 -0.279843 0.0893115
v 0.548886 -0.279978 0.100617
v 0.549113 -0.313706 0.0297788
v 0.560026 -0.275449 0.0383171
v 0.549526 -0.268994 0.114122
v 0.500817 -0.347299 0.192125
v 0.489691 -0.367103 0.200427
v 0.572086 -0.216679 0.051154
v 0.572366 -0.229757 0.0297788
v 0.56112 -0.268555 0.0420465
v 0.560239 -0.264567 0.0535879
v 0.537065 -0.348989 0.0297788
v 0.537546 -0.352098 0.0178644
v 0.535998 -0.357809 0.0138994
v 0.547979 -0.32229 0.0147435
v 0.537532 -0.352064 0.00600886
v 0.537359 -0.350712 -9.55442e-05
v 0.535998 -0.357809 0.010013
v 0.478391 -0.479981 0.0297788
v 0.491866 -0.458386 0.0178644
v 0.490171 -0.458859 0.0286207
v 0.489718 -0.455614 0.0416932
v 0.478071 -0.456121 0.113101
v 0.47647 -0.464672 0.0963973
v 0.489624 -0.462002 -9.55442e-05
v 0.491999 -0.458386 0.00596961
v 0.454964 -0.49475 0.124171
v 0.452843 -0.512628 0.0737658
v 0.449694 -0.507119 0.113101
v 0.445758 -0.512121 0.119892
v 0.445758 -0.497014 0.148432
v 0.476523 -0.452944 0.132258
v 0.473134 -0.457507 0.136498
v 0.464369 -0.476263 0.130963
v 0.445758 -0.504246 0.137303
v 0.445758 -0.508944 0.128411
v 0.490158 -0.421109 0.13691
v 0.500697 -0.394241 0.144938
v 0.502685 -0.387415 0.148864
v 0.51085 -0.366765 0.151082
v 0.503392 -0.375654 0.161328
v 0.501431 -0.372105 0.169689
v 0.488143 -0.38096 0.190476
v 0.489944 -0.384609 0.182526
v 0.475389 -0.398128 0.200427
v 0.476376 -0.405022 0.190711
v 0.524471 -0.346995 0.113101
v 0.525285 -0.36129 0.0773971
v 0.536332 -0.34686 0.0390041
v 0.512571 -0.370483 0.13691
v 0.524418 -0.370381 0.0627936
v 0.526072 -0.364163 0.0662482
v 0.508782 -0.373964 0.147804
v 0.501471 -0.395965 0.13691
v 0.559719 -0.238578 0.095887
v 0.487716 -0.372037 0.200427
v 0.527687 -0.375045 0.0297788
v 0.528981 -0.375045 0.0178644
v 0.525365 -0.384272 0.0178644
v 0.525365 -0.384305 0.00596961
v 0.528487 -0.375045 -9.55442e-05
v 0.528981 -0.375045 0.00596961
v 0.500364 -0.441116 0.0140957
v 0.502418 -0.435472 0.0179821
v 0.501965 -0.432802 0.0297788
v 0.48877 -0.453654 0.0535879
v 0.477124 -0.454195 0.125015
v 0.474015 -0.460143 0.125015
v 0.46501 -0.477379 0.123013
v 0.462048 -0.481705 0.126193
v 0.491172 -0.458825 -9.55442e-05
v 0.500364 -0.441116 0.00938494
v 0.445758 -0.5106 0.124603
v 0.488664 -0.429693 0.122032
v 0.490078 -0.446929 0.0645602
v 0.502205 -0.411376 0.0888404
v 0.489958 -0.373018 0.19446
v 0.485982 -0.375924 0.200427
v 0.484515 -0.379067 0.200427
v 0.480926 -0.386705 0.200427
v 0.478898 -0.390896 0.200427
v 0.513518 -0.372781 0.125015
v 0.525152 -0.372173 0.0535879
v 0.512318 -0.381703 0.109097
v 0.513892 -0.385218 0.0893115
v 0.525739 -0.375552 0.0410062
v 0.524031 -0.381298 0.0365898
v 0.524578 -0.382514 0.0297788
v 0.514079 -0.409483 0.0178644
v 0.513798 -0.408841 -9.55442e-05
v 0.525058 -0.383596 -9.55442e-05
v 0.526713 -0.379608 -9.55442e-05
v 0.513278 -0.407658 0.0297788
v 0.501018 -0.430707 0.0416932
v 0.488263 -0.452573 0.0599671
v 0.502338 -0.434492 -9.55442e-05
v 0.502405 -0.423441 0.053529
v 0.501805 -0.420534 0.0655023
v 0.512544 -0.406002 0.0390826
f 1 2 5
f 1 5 11
f 1 11 18
f 1 18 32
f 1 32 56
f 1 56 92
f 1 92 99
f 1 99 61
f 1 61 39
f 1 39 23
f 1 23 13
f 1 13 6
f 1 6 3
f 1 3 8
f 1 8 15
f 1 15 29
f 1 29 51
f 1 51 84
f 1 84 135
f 1 135 198
f 1 198 234
f 1 234 233
f 1 233 232
f 1 232 231
f 1 231 209
f 1 209 160
f 1 160 98
f 1 98 60
f 1 60 36
f 1 36 20
f 1 20 12
f 1 12 9
f 1 9 4
f 1 4 2
f 2 4 5
f 3 6 7
f 3 7 8
f 4 9 5
f 5 10 11
f 5 9 12
f 5 12 10
f 6 13 24
f 6 24 42
f 6 42 69
f 6 69 108
f 6 108 113
f 6 113 112
f 6 112 170
f 6 170 214
f 6 214 245
f 6 245 244
f 6 244 243
f 6 243 249
f 6 249 224
f 6 224 178
f 6 178 116
f 6 116 72
f 6 72 70
f 6 70 43
f 6 43 25
f 6 25 14
f 6 14 7
f 7 14 27
f 7 27 45
f 7 45 75
f 7 75 78
f 7 78 77
f 7 77 122
f 7 122 121
f 7 121 183
f 7 183 226
f 7 226 189
f 7 189 188
f 7 188 184
f 7 184 128
f 7 128 81
f 7 81 48
f 7 48 28
f 7 28 15
f 7 15 8
f 10 12 16
f 10 16 17
f 10 17 11
f 11 17 19
f 11 19 18
f 12 20 21
f 12 21 22
f 12 22 16
f 13 23 24
f 14 25 26
f 14 26 27
f 15 28 29
f 16 22 30
f 16 30 17
f 17 30 31
f 17 31 19
f 18 19 33
f 18 33 34
f 18 34 32
f 19 34 33
f 19 31 35
f 19 35 34
f 20 36 37
f 20 37 21
f 21 30 38
f 21 38 22
f 21 37 31
f 21 31 30
f 22 38 30
f 23 39 40
f 23 40 41
f 23 41 24
f 24 41 42
f 25 43 44
f 25 44 26
f 26 45 27
f 26 44 46
f 26 46 45
f 28 47 29
f 28 48 47
f 29 47 49
f 29 49 50
f 29 50 51
f 31 37 52
f 31 52 53
f 31 53 54
f 31 54 55
f 31 55 35
f 32 34 56
f 34 57 58
f 34 58 56
f 34 35 55
f 34 55 59
f 34 59 57
f 36 60 52
f 36 52 37
f 39 61 62
f 39 62 63
f 39 63 64
f 39 64 40
f 40 42 41
f 40 64 65
f 40 65 66
f 40 66 67
f 40 67 68
f 40 68 69
f 40 69 42
f 43 70 44
f 44 71 46
f 44 70 72
f 44 72 73
f 44 73 74
f 44 74 71
f 45 46 75
f 46 71 76
f 46 76 77
f 46 77 78
f 46 78 75
f 47 48 79
f 47 79 80
f 47 80 49
f 48 81 79
f 49 82 83
f 49 83 50
f 49 80 82
f 50 83 84
f 50 84 51
f 52 60 85
f 52 85 86
f 52 86 53
f 53 86 54
f 54 86 87
f 54 87 88
f 54 88 55
f 55 89 59
f 55 88 90
f 55 90 89
f 56 91 92
f 56 58 91
f 57 59 58
f 58 59 93
f 58 93 94
f 58 94 91
f 59 89 95
f 59 95 96
f 59 96 97
f 59 97 93
f 60 98 85
f 61 99 62
f 62 100 63
f 62 99 101
f 62 101 100
f 63 100 102
f 63 102 64
f 64 103 65
f 64 102 103
f 65 103 66
f 66 104 105
f 66 105 106
f 66 106 107
f 66 107 67
f 66 103 104
f 67 108 109
f 67 109 68
f 67 107 168
f 67 168 110
f 67 110 111
f 67 111 112
f 67 112 113
f 67 113 108
f 68 109 108
f 68 108 69
f 71 114 76
f 71 74 115
f 71 115 114
f 72 116 117
f 72 117 118
f 72 118 73
f 73 118 117
f 73 117 74
f 74 117 119
f 74 119 115
f 76 114 120
f 76 120 121
f 76 121 122
f 76 122 77
f 79 81 123
f 79 123 80
f 80 124 125
f 80 125 82
f 80 123 126
f 80 126 127
f 80 127 124
f 81 128 123
f 82 125 129
f 82 129 130
f 82 130 131
f 82 131 132
f 82 132 133
f 82 133 83
f 83 134 84
f 83 133 135
f 83 135 134
f 84 134 135
f 85 98 136
f 85 136 137
f 85 137 138
f 85 138 86
f 86 138 139
f 86 139 87
f 87 139 88
f 88 139 140
f 88 140 90
f 89 90 141
f 89 141 95
f 90 142 141
f 90 140 143
f 90 143 144
f 90 144 142
f 91 94 92
f 92 101 99
f 92 94 145
f 92 145 146
f 92 146 100
f 92 100 101
f 93 97 147
f 93 147 148
f 93 148 149
f 93 149 94
f 94 149 148
f 94 148 150
f 94 150 145
f 95 151 152
f 95 152 105
f 95 105 153
f 95 153 154
f 95 154 155
f 95 155 96
f 95 141 156
f 95 156 151
f 96 157 158
f 96 158 147
f 96 147 97
f 96 155 154
f 96 154 157
f 98 159 137
f 98 137 136
f 98 160 159
f 100 146 161
f 100 161 162
f 100 162 102
f 102 162 103
f 103 162 104
f 104 163 157
f 104 157 153
f 104 153 105
f 104 162 164
f 104 164 163
f 105 107 106
f 105 152 156
f 105 156 165
f 105 165 166
f 105 166 167
f 105 167 168
f 105 168 107
f 110 169 170
f 110 170 111
f 110 168 167
f 110 167 171
f 110 171 169
f 111 170 112
f 114 115 172
f 114 172 120
f 115 119 173
f 115 173 174
f 115 174 175
f 115 175 176
f 115 176 177
f 115 177 172
f 116 178 179
f 116 179 117
f 117 179 119
f 119 179 173
f 120 172 177
f 120 177 180
f 120 180 181
f 120 181 182
f 120 182 121
f 121 182 180
f 121 180 183
f 123 128 184
f 123 184 126
f 124 185 186
f 124 186 125
f 124 127 187
f 124 187 185
f 125 185 129
f 125 186 185
f 126 184 188
f 126 188 127
f 127 188 189
f 127 189 187
f 129 185 190
f 129 190 191
f 129 191 130
f 130 191 192
f 130 192 131
f 131 192 193
f 131 193 139
f 131 139 194
f 131 194 195
f 131 195 196
f 131 196 197
f 131 197 198
f 131 198 199
f 131 199 132
f 132 199 135
f 132 135 133
f 135 199 198
f 137 160 195
f 137 195 139
f 137 139 138
f 137 159 160
f 139 195 194
f 139 193 143
f 139 143 140
f 141 142 200
f 141 200 201
f 141 201 202
f 141 202 156
f 142 144 200
f 143 203 204
f 143 204 205
f 143 205 144
f 143 193 206
f 143 206 192
f 143 192 191
f 143 191 207
f 143 207 203
f 144 205 201
f 144 201 200
f 145 161 146
f 145 150 161
f 147 164 148
f 147 158 164
f 148 164 208
f 148 208 150
f 150 208 162
f 150 162 161
f 151 156 152
f 153 157 154
f 156 202 165
f 157 163 158
f 158 163 164
f 160 209 195
f 162 208 164
f 165 202 205
f 165 205 204
f 165 204 210
f 165 210 166
f 166 210 167
f 167 210 211
f 167 211 212
f 167 212 213
f 167 213 171
f 169 171 170
f 170 171 214
f 171 213 215
f 171 215 214
f 173 179 216
f 173 216 174
f 174 216 217
f 174 217 218
f 174 218 175
f 175 219 220
f 175 220 176
f 175 218 219
f 176 220 177
f 177 220 221
f 177 221 187
f 177 187 222
f 177 222 223
f 177 223 180
f 178 224 179
f 179 224 225
f 179 225 216
f 180 223 187
f 180 187 183
f 180 182 181
f 183 187 226
f 185 187 221
f 185 221 220
f 185 220 190
f 187 189 226
f 187 223 222
f 190 227 228
f 190 228 229
f 190 229 207
f 190 207 191
f 190 220 227
f 192 206 193
f 195 209 230
f 195 230 231
f 195 231 196
f 196 231 232
f 196 232 233
f 196 233 197
f 197 233 234
f 197 234 198
f 201 205 202
f 203 235 236
f 203 236 204
f 203 207 237
f 203 237 235
f 204 236 210
f 207 238 237
f 207 229 238
f 209 231 230
f 210 236 239
f 210 239 240
f 210 240 241
f 210 241 212
f 210 212 211
f 212 241 242
f 212 242 216
f 212 216 213
f 213 243 244
f 213 244 245
f 213 245 215
f 213 216 225
f 213 225 243
f 214 215 245
f 216 242 217
f 217 242 241
f 217 241 246
f 217 246 218
f 218 246 247
f 218 247 228
f 218 228 248
f 218 248 219
f 219 248 220
f 220 248 228
f 220 228 227
f 224 249 225
f 225 249 243
f 228 247 250
f 228 250 251
f 228 251 229
f 229 251 238
f 235 237 236
f 236 237 239
f 237 238 241
f 237 241 240
f 237 240 239
f 238 251 250
f 238 250 252
f 238 252 241
f 241 252 246
f 246 252 250
f 246 250 247
