v -0.518648 -0.187354 0.26478
v -0.517516 -0.187354 0.267931
v -0.504674 -0.187354 0.26478
v -0.517146 -0.196296 0.26478
v -0.513843 -0.187354 0.277209
v -0.515968 -0.196503 0.267931
v -0.403279 -0.187354 0.40174
v -0.282736 -0.423707 0.40174
v -0.282736 -0.530353 0.329365
v -0.342834 -0.531941 0.26478
v -0.513636 -0.210934 0.26478
v -0.510125 -0.187354 0.283162
v -0.512896 -0.196503 0.275533
v -0.509201 -0.196503 0.281486
v -0.513405 -0.207482 0.267717
v -0.512088 -0.20289 0.274085
v -0.42335 -0.187354 0.40174
v -0.282736 -0.455504 0.40174
v -0.282736 -0.535946 0.328882
v -0.342788 -0.537154 0.26478
v -0.512827 -0.21411 0.26478
v -0.499731 -0.189598 0.297455
v -0.503796 -0.187354 0.292293
v -0.503265 -0.196503 0.290188
v -0.500955 -0.241419 0.275185
v -0.501325 -0.258923 0.26478
v -0.499662 -0.24936 0.273469
v -0.500286 -0.26279 0.26478
v -0.42462 -0.187354 0.400493
v -0.420925 -0.195778 0.40174
v -0.2853 -0.452155 0.40174
v -0.282736 -0.458922 0.399661
v -0.282736 -0.53857 0.329901
v -0.342788 -0.538639 0.26478
v -0.48906 -0.193707 0.310862
v -0.464578 -0.191324 0.345602
v -0.498138 -0.187354 0.30027
v -0.501879 -0.187354 0.295041
v -0.501533 -0.208414 0.287788
v -0.425244 -0.22029 0.388211
v -0.443282 -0.196503 0.372886
v -0.489361 -0.279845 0.275533
v -0.491208 -0.267934 0.278067
v -0.498761 -0.256057 0.271578
v -0.499408 -0.265655 0.26478
v -0.490308 -0.290789 0.26777
v -0.426514 -0.187354 0.398455
v -0.417853 -0.230095 0.394111
v -0.416675 -0.238001 0.39285
v -0.416051 -0.211003 0.40174
v -0.30999 -0.452949 0.38132
v -0.287632 -0.448945 0.40174
v -0.319737 -0.462098 0.367684
v -0.286154 -0.464757 0.393212
v -0.282736 -0.461546 0.397985
v -0.282736 -0.53926 0.337289
v -0.303361 -0.539674 0.315086
v -0.31558 -0.540054 0.303636
v -0.344243 -0.539364 0.26478
v -0.429239 -0.192671 0.393762
v -0.429817 -0.187354 0.394526
v -0.46497 -0.187354 0.346125
v -0.48906 -0.253123 0.28701
v -0.418384 -0.256057 0.383277
v -0.488298 -0.286197 0.274085
v -0.419123 -0.279845 0.37239
v -0.465109 -0.27622 0.310635
v -0.44058 -0.274079 0.34536
v -0.431226 -0.267934 0.360766
v -0.417252 -0.263756 0.381722
v -0.491601 -0.291031 0.26478
v -0.489453 -0.297832 0.26478
v -0.413118 -0.219427 0.40174
v -0.415936 -0.271697 0.380126
v -0.414688 -0.279845 0.378343
v -0.408753 -0.279845 0.385355
v -0.404456 -0.272905 0.392502
v -0.405888 -0.26493 0.393816
v -0.295647 -0.437655 0.40174
v -0.330754 -0.448668 0.366947
v -0.343573 -0.449946 0.355778
v -0.356415 -0.451258 0.344556
v -0.335628 -0.455366 0.359009
v -0.339531 -0.458957 0.353593
v -0.345421 -0.464446 0.34536
v -0.282736 -0.472835 0.390155
v -0.282736 -0.467001 0.394352
v -0.282736 -0.539226 0.338938
v -0.314702 -0.538742 0.315086
v -0.327036 -0.538742 0.302831
v -0.351426 -0.539467 0.267703
v -0.35138 -0.539536 0.26478
v -0.417691 -0.288096 0.370406
v -0.488806 -0.299558 0.26478
v -0.478136 -0.326556 0.26478
v -0.477766 -0.327488 0.26478
v -0.47578 -0.332391 0.26478
v -0.474071 -0.336568 0.26478
v -0.467188 -0.351275 0.26588
v -0.482085 -0.291445 0.279663
v -0.400322 -0.256057 0.401123
v -0.39956 -0.256057 0.40174
v -0.406651 -0.291756 0.382996
v -0.393116 -0.27294 0.40174
v -0.398798 -0.267692 0.398776
v -0.403024 -0.279845 0.391308
v -0.397089 -0.279845 0.396269
v -0.337568 -0.421014 0.377244
v -0.326181 -0.394293 0.40174
v -0.334958 -0.395121 0.394164
v -0.351403 -0.446631 0.35134
v -0.362836 -0.410277 0.362871
v -0.371359 -0.384143 0.370902
v -0.370527 -0.406963 0.358419
v -0.381036 -0.392843 0.357172
v -0.369442 -0.429162 0.345629
v -0.359625 -0.458404 0.336163
v -0.357616 -0.464929 0.333843
v -0.353713 -0.458404 0.342102
v -0.347754 -0.458404 0.347264
v -0.349994 -0.468623 0.338174
v -0.346622 -0.477876 0.334554
v -0.33311 -0.511641 0.321227
v -0.324356 -0.517924 0.323828
v -0.282736 -0.522102 0.354585
v -0.282736 -0.536464 0.342451
v -0.284514 -0.534358 0.344274
v -0.289411 -0.538708 0.336337
v -0.322786 -0.537292 0.310809
v -0.336205 -0.53857 0.291743
v -0.35399 -0.53926 0.26478
v -0.347592 -0.538362 0.276995
v -0.419331 -0.363221 0.325061
v -0.394479 -0.363221 0.359318
v -0.406443 -0.313506 0.371318
v -0.405219 -0.298626 0.381427
v -0.466402 -0.355039 0.26478
v -0.454438 -0.363221 0.276619
v -0.396095 -0.265206 0.40174
v -0.394525 -0.269315 0.40174
v -0.390344 -0.279845 0.40174
v -0.398867 -0.292722 0.389592
v -0.394894 -0.289408 0.394486
v -0.334727 -0.381967 0.40174
v -0.345698 -0.381519 0.393212
v -0.375239 -0.374614 0.372886
v -0.379281 -0.378342 0.367563
v -0.381822 -0.370367 0.369776
v -0.383207 -0.384937 0.359626
v -0.393162 -0.36947 0.357467
v -0.391153 -0.377445 0.354692
v -0.394017 -0.382934 0.346755
v -0.391846 -0.390875 0.343765
v -0.367963 -0.450291 0.331778
v -0.371336 -0.467484 0.312619
v -0.357755 -0.477013 0.322232
v -0.333757 -0.52438 0.310004
v -0.365838 -0.458922 0.327676
v -0.368379 -0.463238 0.320556
v -0.392954 -0.464342 0.28579
v -0.318097 -0.531975 0.318746
v -0.282736 -0.532631 0.346956
v -0.309736 -0.535946 0.322648
v -0.310175 -0.536395 0.321964
v -0.333872 -0.536429 0.298326
v -0.330731 -0.532321 0.306277
v -0.356346 -0.537948 0.26478
v -0.357962 -0.536705 0.26478
v -0.39173 -0.354797 0.367684
v -0.393578 -0.346822 0.369789
v -0.39337 -0.322379 0.381373
v -0.463885 -0.361011 0.26478
v -0.452937 -0.370091 0.274568
v -0.439264 -0.365983 0.295913
v -0.385286 -0.290582 0.40174
v -0.38293 -0.339365 0.382526
v -0.370527 -0.33605 0.39403
v -0.361727 -0.334738 0.40174
v -0.372929 -0.313748 0.40174
v -0.338907 -0.375719 0.40174
v -0.347823 -0.375028 0.394942
v -0.386487 -0.373889 0.362522
v -0.369049 -0.368917 0.380877
v -0.375123 -0.364222 0.378008
v -0.379119 -0.353623 0.379429
v -0.389651 -0.363221 0.365271
v -0.417622 -0.370885 0.322742
v -0.415635 -0.378826 0.319966
v -0.404803 -0.380966 0.333347
v -0.429309 -0.382209 0.298621
v -0.427138 -0.39015 0.295618
v -0.393947 -0.43044 0.31097
v -0.422749 -0.434686 0.267998
v -0.403255 -0.449566 0.283605
v -0.381637 -0.453467 0.310433
v -0.370827 -0.455297 0.323841
v -0.371844 -0.515887 0.265692
v -0.351495 -0.530146 0.280132
v -0.347199 -0.502768 0.31219
v -0.344451 -0.510708 0.308396
v -0.375054 -0.45837 0.315488
v -0.40374 -0.462582 0.272383
v -0.406489 -0.466725 0.26478
v -0.40247 -0.472559 0.26478
v -0.394756 -0.469107 0.278751
v -0.355514 -0.533322 0.271524
v -0.362928 -0.529628 0.26478
v -0.461945 -0.365258 0.26478
v -0.457556 -0.374648 0.26478
v -0.454207 -0.381381 0.26478
v -0.450927 -0.378032 0.271793
v -0.353158 -0.351275 0.401512
v -0.348192 -0.36001 0.40174
v -0.344197 -0.367191 0.40174
v -0.345767 -0.364464 0.40174
v -0.350872 -0.362427 0.398522
v -0.371174 -0.361046 0.382647
v -0.453468 -0.382831 0.26478
v -0.452637 -0.384384 0.26478
v -0.424435 -0.435825 0.26478
v -0.418592 -0.446459 0.26478
v -0.406143 -0.454641 0.275681
v -0.383508 -0.499971 0.26478
v -0.378981 -0.506497 0.26478
v -0.413649 -0.455263 0.26478
v -0.411617 -0.458611 0.26478
v -0.41612 -0.450878 0.26478
f 1 2 5
f 1 5 12
f 1 12 23
f 1 23 38
f 1 38 37
f 1 37 62
f 1 62 61
f 1 61 47
f 1 47 29
f 1 29 17
f 1 17 7
f 1 7 3
f 1 3 10
f 1 10 20
f 1 20 34
f 1 34 59
f 1 59 92
f 1 92 131
f 1 131 167
f 1 167 168
f 1 168 207
f 1 207 224
f 1 224 223
f 1 223 204
f 1 204 203
f 1 203 226
f 1 226 225
f 1 225 227
f 1 227 221
f 1 221 220
f 1 220 219
f 1 219 218
f 1 218 210
f 1 210 209
f 1 209 208
f 1 208 172
f 1 172 137
f 1 137 98
f 1 98 97
f 1 97 96
f 1 96 95
f 1 95 94
f 1 94 72
f 1 72 71
f 1 71 45
f 1 45 28
f 1 28 26
f 1 26 21
f 1 21 11
f 1 11 4
f 1 4 2
f 2 4 6
f 2 6 5
f 3 7 8
f 3 8 9
f 3 9 10
f 4 11 6
f 5 6 13
f 5 13 14
f 5 14 12
f 6 15 16
f 6 16 13
f 6 11 15
f 7 17 30
f 7 30 50
f 7 50 73
f 7 73 102
f 7 102 139
f 7 139 140
f 7 140 104
f 7 104 141
f 7 141 175
f 7 175 179
f 7 179 178
f 7 178 213
f 7 213 215
f 7 215 214
f 7 214 180
f 7 180 144
f 7 144 109
f 7 109 79
f 7 79 52
f 7 52 31
f 7 31 18
f 7 18 8
f 8 18 32
f 8 32 55
f 8 55 87
f 8 87 86
f 8 86 125
f 8 125 162
f 8 162 126
f 8 126 88
f 8 88 56
f 8 56 33
f 8 33 19
f 8 19 9
f 9 19 10
f 10 19 20
f 11 21 15
f 12 22 23
f 12 14 24
f 12 24 22
f 13 16 14
f 14 16 25
f 14 25 24
f 15 21 26
f 15 26 16
f 16 27 25
f 16 26 28
f 16 28 27
f 17 29 30
f 18 31 32
f 19 33 34
f 19 34 20
f 22 35 36
f 22 36 37
f 22 37 38
f 22 38 23
f 22 24 35
f 24 25 39
f 24 39 40
f 24 40 41
f 24 41 36
f 24 36 35
f 25 27 42
f 25 42 43
f 25 43 39
f 27 28 44
f 27 44 42
f 28 45 46
f 28 46 44
f 29 47 48
f 29 48 30
f 30 48 49
f 30 49 50
f 31 51 32
f 31 52 51
f 32 53 54
f 32 54 55
f 32 51 53
f 33 56 57
f 33 57 58
f 33 58 59
f 33 59 34
f 36 41 60
f 36 60 61
f 36 61 62
f 36 62 37
f 39 43 63
f 39 63 40
f 40 63 64
f 40 64 49
f 40 49 60
f 40 60 41
f 42 65 66
f 42 66 67
f 42 67 43
f 42 44 65
f 43 67 68
f 43 68 69
f 43 69 70
f 43 70 64
f 43 64 63
f 44 46 65
f 45 71 46
f 46 71 72
f 46 72 65
f 47 61 60
f 47 60 49
f 47 49 48
f 49 73 50
f 49 64 70
f 49 70 74
f 49 74 75
f 49 75 76
f 49 76 77
f 49 77 78
f 49 78 73
f 51 52 79
f 51 79 80
f 51 80 81
f 51 81 82
f 51 82 83
f 51 83 53
f 53 83 84
f 53 84 85
f 53 85 54
f 54 86 87
f 54 87 55
f 54 85 86
f 56 88 58
f 56 58 57
f 58 88 89
f 58 89 90
f 58 90 91
f 58 91 92
f 58 92 59
f 65 93 66
f 65 72 94
f 65 94 95
f 65 95 96
f 65 96 97
f 65 97 98
f 65 98 99
f 65 99 100
f 65 100 93
f 66 93 75
f 66 75 74
f 66 74 70
f 66 70 68
f 66 68 67
f 68 70 69
f 73 78 101
f 73 101 102
f 75 93 103
f 75 103 76
f 76 103 77
f 77 104 105
f 77 105 78
f 77 103 106
f 77 106 107
f 77 107 104
f 78 105 101
f 79 108 80
f 79 109 110
f 79 110 108
f 80 111 81
f 80 108 112
f 80 112 111
f 81 111 82
f 82 111 112
f 82 112 113
f 82 113 114
f 82 114 115
f 82 115 116
f 82 116 117
f 82 117 118
f 82 118 119
f 82 119 85
f 82 85 120
f 82 120 83
f 83 120 84
f 84 120 85
f 85 119 121
f 85 121 122
f 85 122 123
f 85 123 124
f 85 124 125
f 85 125 86
f 88 126 127
f 88 127 128
f 88 128 89
f 89 128 129
f 89 129 90
f 90 129 130
f 90 130 91
f 91 131 92
f 91 130 132
f 91 132 131
f 93 100 133
f 93 133 134
f 93 134 135
f 93 135 136
f 93 136 103
f 98 137 99
f 99 137 138
f 99 138 100
f 100 138 133
f 101 105 139
f 101 139 102
f 103 136 106
f 104 140 105
f 104 107 141
f 105 140 139
f 106 136 142
f 106 142 143
f 106 143 107
f 107 143 141
f 108 110 113
f 108 113 112
f 109 144 145
f 109 145 110
f 110 145 113
f 113 145 146
f 113 146 147
f 113 147 114
f 114 147 115
f 115 147 148
f 115 148 149
f 115 149 150
f 115 150 151
f 115 151 152
f 115 152 153
f 115 153 154
f 115 154 116
f 116 154 118
f 116 118 117
f 118 155 156
f 118 156 157
f 118 157 123
f 118 123 122
f 118 122 121
f 118 121 119
f 118 154 158
f 118 158 159
f 118 159 160
f 118 160 155
f 123 157 129
f 123 129 161
f 123 161 124
f 124 161 125
f 125 161 127
f 125 127 162
f 126 162 127
f 127 163 164
f 127 164 128
f 127 161 163
f 128 164 129
f 129 165 130
f 129 164 161
f 129 157 166
f 129 166 165
f 130 165 132
f 131 132 167
f 132 165 168
f 132 168 167
f 133 138 150
f 133 150 134
f 134 150 169
f 134 169 170
f 134 170 136
f 134 136 135
f 136 170 148
f 136 148 171
f 136 171 142
f 137 172 138
f 138 173 174
f 138 174 150
f 138 172 173
f 141 143 175
f 142 171 143
f 143 171 176
f 143 176 177
f 143 177 178
f 143 178 179
f 143 179 175
f 144 180 145
f 145 180 181
f 145 181 146
f 146 181 148
f 146 148 147
f 148 182 149
f 148 181 183
f 148 183 184
f 148 184 185
f 148 185 171
f 148 170 169
f 148 169 186
f 148 186 182
f 149 182 150
f 150 186 169
f 150 174 173
f 150 173 187
f 150 187 188
f 150 188 151
f 150 182 186
f 151 188 189
f 151 189 152
f 152 190 153
f 152 189 190
f 153 190 191
f 153 191 192
f 153 192 154
f 154 192 193
f 154 193 194
f 154 194 195
f 154 195 196
f 154 196 158
f 155 160 197
f 155 197 198
f 155 198 199
f 155 199 156
f 156 199 157
f 157 199 200
f 157 200 165
f 157 165 166
f 158 201 159
f 158 196 201
f 159 201 160
f 160 201 202
f 160 202 203
f 160 203 204
f 160 204 205
f 160 205 197
f 161 164 163
f 165 206 168
f 165 200 198
f 165 198 206
f 168 206 207
f 171 185 176
f 172 208 173
f 173 208 209
f 173 209 210
f 173 210 211
f 173 211 188
f 173 188 187
f 176 185 177
f 177 185 178
f 178 185 212
f 178 212 213
f 180 214 181
f 181 214 183
f 183 214 215
f 183 215 216
f 183 216 217
f 183 217 184
f 184 217 185
f 185 217 216
f 185 216 212
f 188 211 190
f 188 190 189
f 190 218 219
f 190 219 191
f 190 211 218
f 191 219 192
f 192 219 193
f 193 220 221
f 193 221 194
f 193 219 220
f 194 222 195
f 194 221 222
f 195 222 196
f 196 222 201
f 197 223 224
f 197 224 207
f 197 207 206
f 197 206 198
f 197 205 204
f 197 204 223
f 198 200 199
f 201 222 202
f 202 222 225
f 202 225 226
f 202 226 203
f 210 218 211
f 212 216 213
f 213 216 215
f 221 227 222
f 222 227 225
