v 0.357556 0.322255 -0.392824
v 0.401538 0.322255 -0.349531
v 0.379185 0.322255 -0.392824
v 0.401538 0.222473 -0.392824
v 0.401538 0.322255 -0.372389
v 0.393384 0.322255 -0.381416
v 0.383882 0.313718 -0.392824
v 0.401538 0.279045 -0.392824
v 0.401538 0.308463 -0.380047
v 0.399062 0.322255 -0.375313
v 0.393504 0.322255 -0.381289
v 0.401538 0.301265 -0.383458
v 0.398851 0.292699 -0.389607
v 0.39623 0.290521 -0.392824
v 0.401219 0.279806 -0.392824
v 0.401538 0.279806 -0.392561
v 0.401538 0.292357 -0.387336
v 0.401538 0.284407 -0.390709
v 0.399166 0.284338 -0.392824
v 0.401538 0.281555 -0.3919
f 1 2 5
f 1 5 10
f 1 10 11
f 1 11 6
f 1 6 3
f 1 3 7
f 1 7 14
f 1 14 19
f 1 19 15
f 1 15 8
f 1 8 4
f 1 4 2
f 2 4 8
f 2 8 16
f 2 16 20
f 2 20 18
f 2 18 17
f 2 17 12
f 2 12 9
f 2 9 5
f 3 6 7
f 5 9 10
f 6 11 9
f 6 9 12
f 6 12 13
f 6 13 14
f 6 14 7
f 8 15 16
f 9 11 10
f 12 17 13
f 13 17 18
f 13 18 14
f 14 18 19
f 15 19 16
f 16 19 20
f 18 20 19
