v 0.180932 -0.524227 0.414846
v 0.181357 -0.523964 0.414846
v 0.184578 -0.51552 0.418882
v 0.180932 -0.516637 0.419535
v 0.180932 -0.497779 0.414846
v 0.194665 -0.515652 0.414846
v 0.19225 -0.513089 0.417403
v 0.180932 -0.499816 0.429685
v 0.216429 -0.477606 0.429458
v 0.208376 -0.480169 0.431003
v 0.182251 -0.478592 0.441952
v 0.180932 -0.188582 0.537351
v 0.390759 -0.188582 0.414846
v 0.210009 -0.505795 0.414846
v 0.214349 -0.500079 0.416751
v 0.208376 -0.501984 0.417896
v 0.180932 -0.479084 0.442139
v 0.219113 -0.493771 0.418682
v 0.224369 -0.475076 0.42774
v 0.220365 -0.470772 0.431896
v 0.20435 -0.465581 0.4413
v 0.196477 -0.468078 0.442805
v 0.180932 -0.462953 0.451516
v 0.180932 -0.188582 0.550911
v 0.409414 -0.188582 0.414846
v 0.216071 -0.50182 0.414846
v 0.222289 -0.497483 0.414953
v 0.227568 -0.489532 0.41759
v 0.229536 -0.467125 0.430324
v 0.217704 -0.454969 0.441846
v 0.184578 -0.455692 0.45414
v 0.180932 -0.460357 0.452968
v 0.181625 -0.188582 0.550698
v 0.180932 -0.189207 0.550818
v 0.406372 -0.188582 0.418589
v 0.409324 -0.189075 0.414846
v 0.222222 -0.49768 0.414846
v 0.222535 -0.497417 0.414846
v 0.229536 -0.491504 0.414846
v 0.235441 -0.485425 0.414846
v 0.239288 -0.477442 0.417577
v 0.237476 -0.463741 0.42814
v 0.238371 -0.440809 0.4407
v 0.232198 -0.443371 0.441899
v 0.191444 -0.453162 0.452822
v 0.180932 -0.456907 0.45482
v 0.184578 -0.431544 0.465756
v 0.180932 -0.432858 0.466448
v 0.184443 -0.188582 0.549686
v 0.180932 -0.190948 0.550472
v 0.181983 -0.196467 0.548993
v 0.400333 -0.188582 0.424397
v 0.40579 -0.193675 0.417896
v 0.408787 -0.191276 0.414846
v 0.241234 -0.47938 0.414846
v 0.251031 -0.465351 0.417443
v 0.240899 -0.45579 0.430617
v 0.243605 -0.445835 0.434253
v 0.25291 -0.396685 0.454473
v 0.249868 -0.404635 0.452276
v 0.250248 -0.381243 0.46449
v 0.195851 -0.44623 0.45446
v 0.244097 -0.383773 0.465689
v 0.230073 -0.419814 0.453927
v 0.190952 -0.428981 0.464543
v 0.182498 -0.407954 0.47777
v 0.180932 -0.408545 0.478063
v 0.216362 -0.193576 0.536579
v 0.250539 -0.191276 0.524085
v 0.25112 -0.188582 0.524298
v 0.180932 -0.196467 0.549366
v 0.180932 -0.197815 0.54906
v 0.397335 -0.188582 0.427167
v 0.403173 -0.210069 0.414846
v 0.407893 -0.194858 0.414846
v 0.393779 -0.192656 0.429272
v 0.392862 -0.237996 0.416684
v 0.247452 -0.472875 0.414846
v 0.252865 -0.467191 0.414846
v 0.258188 -0.461211 0.414846
v 0.258748 -0.460554 0.414846
v 0.262259 -0.452801 0.416964
v 0.248839 -0.450829 0.427713
v 0.251836 -0.442911 0.429951
v 0.252373 -0.419782 0.442246
v 0.263847 -0.38351 0.453834
v 0.255549 -0.386335 0.458123
v 0.228664 -0.371255 0.477211
v 0.220209 -0.375165 0.478729
v 0.216183 -0.382491 0.476985
v 0.258502 -0.375066 0.461839
v 0.261096 -0.367674 0.463584
v 0.25253 -0.375066 0.465862
v 0.25168 -0.347402 0.477038
v 0.240339 -0.359526 0.477131
v 0.207728 -0.386664 0.47825
v 0.203321 -0.393629 0.476625
v 0.196477 -0.396389 0.47793
v 0.182005 -0.38374 0.489465
v 0.180932 -0.384167 0.489665
v 0.196544 -0.219794 0.537538
v 0.267918 -0.196467 0.515986
v 0.275523 -0.196467 0.512909
v 0.276977 -0.188582 0.513708
v 0.239981 -0.205207 0.524604
v 0.267717 -0.207474 0.513415
v 0.274069 -0.202874 0.512096
v 0.180932 -0.246702 0.536699
v 0.394361 -0.188582 0.429698
v 0.394897 -0.236386 0.414846
v 0.3456 -0.191309 0.464597
v 0.372888 -0.196467 0.443311
v 0.346293 -0.228731 0.453195
v 0.381052 -0.226332 0.428686
v 0.381723 -0.263754 0.41727
v 0.380135 -0.271672 0.415952
v 0.378569 -0.278834 0.414846
v 0.391632 -0.244107 0.415592
v 0.390804 -0.248247 0.414846
v 0.39228 -0.244107 0.414846
v 0.26387 -0.454378 0.414846
v 0.264653 -0.446492 0.418696
v 0.262796 -0.429737 0.429258
v 0.285477 -0.425991 0.414846
v 0.289458 -0.420734 0.414846
v 0.312004 -0.384233 0.418509
v 0.298584 -0.382229 0.429325
v 0.319945 -0.378844 0.415632
v 0.271788 -0.378056 0.450957
v 0.274271 -0.393432 0.440847
v 0.232466 -0.36337 0.478756
v 0.202427 -0.369087 0.488173
v 0.194486 -0.372569 0.489692
v 0.274561 -0.370105 0.452968
v 0.263422 -0.359756 0.465436
v 0.262505 -0.334359 0.476651
v 0.25962 -0.34231 0.475026
v 0.256511 -0.3041 0.490904
v 0.244231 -0.351345 0.47861
v 0.263691 -0.300453 0.489172
v 0.180932 -0.375526 0.493342
v 0.203053 -0.2629 0.524138
v 0.281473 -0.196467 0.509233
v 0.282927 -0.188582 0.510018
v 0.252574 -0.232214 0.512949
v 0.256533 -0.268091 0.502346
v 0.263266 -0.264247 0.500668
v 0.273465 -0.249364 0.499682
v 0.275188 -0.241413 0.500961
v 0.180932 -0.280116 0.527921
v 0.185182 -0.280247 0.526402
v 0.192496 -0.276567 0.524644
v 0.196455 -0.267302 0.525536
v 0.348351 -0.188582 0.463132
v 0.345958 -0.188582 0.464863
v 0.297555 -0.188582 0.499855
v 0.297421 -0.189601 0.499735
v 0.310841 -0.193675 0.489093
v 0.290174 -0.196467 0.503279
v 0.286327 -0.215688 0.500481
v 0.345376 -0.274038 0.44062
v 0.372396 -0.27982 0.419135
v 0.378144 -0.27982 0.414846
v 0.295072 -0.413309 0.414846
v 0.321376 -0.378319 0.414846
v 0.325022 -0.373095 0.414846
v 0.322718 -0.370894 0.417643
v 0.287982 -0.372273 0.442152
v 0.279885 -0.375165 0.446561
v 0.318222 -0.382524 0.414846
v 0.206162 -0.361169 0.489612
v 0.180932 -0.354072 0.501827
v 0.180932 -0.356667 0.500868
v 0.180932 -0.358047 0.500348
v 0.325044 -0.36314 0.419335
v 0.295877 -0.365998 0.439275
v 0.276619 -0.36314 0.45446
v 0.26586 -0.351279 0.467207
v 0.274092 -0.286161 0.488333
v 0.252887 -0.312576 0.489252
v 0.256019 -0.291746 0.4955
v 0.241189 -0.291746 0.501254
v 0.203277 -0.334326 0.500415
v 0.20822 -0.291484 0.513975
v 0.267762 -0.290761 0.490318
v 0.226673 -0.274465 0.51215
v 0.228843 -0.267927 0.512989
v 0.296369 -0.188582 0.500694
v 0.25291 -0.27775 0.501174
v 0.271564 -0.256 0.498763
v 0.275523 -0.27982 0.489372
v 0.278051 -0.267927 0.49121
v 0.180932 -0.289282 0.525203
v 0.181625 -0.288987 0.525044
v 0.215802 -0.287344 0.512549
v 0.24998 -0.285701 0.499988
v 0.219985 -0.278999 0.513428
v 0.298785 -0.264773 0.477104
v 0.310595 -0.276206 0.46513
v 0.289682 -0.27982 0.479116
v 0.343587 -0.281989 0.439328
v 0.358774 -0.277422 0.429805
v 0.370405 -0.288067 0.417697
v 0.377943 -0.280247 0.414846
v 0.330994 -0.36314 0.414846
v 0.180932 -0.323451 0.512882
v 0.327371 -0.351148 0.422652
v 0.343721 -0.34139 0.414846
v 0.343139 -0.341587 0.415192
v 0.287065 -0.347534 0.453395
v 0.275926 -0.336987 0.465862
v 0.279661 -0.291451 0.482113
v 0.268075 -0.339649 0.470444
v 0.372933 -0.290334 0.414846
v 0.349246 -0.291746 0.431523
v 0.355643 -0.318786 0.415619
v 0.354592 -0.322466 0.414846
v 0.360072 -0.312905 0.414846
v 0.351729 -0.32746 0.414846
f 1 2 3
f 1 3 4
f 1 4 8
f 1 8 17
f 1 17 23
f 1 23 32
f 1 32 46
f 1 46 48
f 1 48 67
f 1 67 100
f 1 100 141
f 1 141 174
f 1 174 173
f 1 173 172
f 1 172 206
f 1 206 193
f 1 193 150
f 1 150 108
f 1 108 72
f 1 72 71
f 1 71 50
f 1 50 34
f 1 34 24
f 1 24 12
f 1 12 5
f 1 5 13
f 1 13 25
f 1 25 36
f 1 36 54
f 1 54 75
f 1 75 74
f 1 74 110
f 1 110 120
f 1 120 119
f 1 119 117
f 1 117 163
f 1 163 204
f 1 204 214
f 1 214 218
f 1 218 217
f 1 217 219
f 1 219 208
f 1 208 205
f 1 205 166
f 1 166 165
f 1 165 170
f 1 170 164
f 1 164 125
f 1 125 124
f 1 124 121
f 1 121 81
f 1 81 80
f 1 80 79
f 1 79 78
f 1 78 55
f 1 55 40
f 1 40 39
f 1 39 38
f 1 38 37
f 1 37 26
f 1 26 14
f 1 14 6
f 1 6 2
f 2 6 7
f 2 7 3
f 3 8 4
f 3 7 9
f 3 9 10
f 3 10 11
f 3 11 8
f 5 12 13
f 6 14 15
f 6 15 7
f 7 15 16
f 7 16 9
f 8 11 17
f 9 16 15
f 9 15 18
f 9 18 19
f 9 19 20
f 9 20 21
f 9 21 10
f 10 21 11
f 11 21 22
f 11 22 23
f 11 23 17
f 12 24 33
f 12 33 49
f 12 49 70
f 12 70 104
f 12 104 144
f 12 144 188
f 12 188 156
f 12 156 155
f 12 155 154
f 12 154 109
f 12 109 73
f 12 73 52
f 12 52 35
f 12 35 25
f 12 25 13
f 14 26 15
f 15 26 27
f 15 27 18
f 18 27 28
f 18 28 29
f 18 29 19
f 19 29 20
f 20 29 21
f 21 23 22
f 21 29 30
f 21 30 31
f 21 31 32
f 21 32 23
f 24 34 33
f 25 35 36
f 26 37 27
f 27 38 28
f 27 37 38
f 28 38 39
f 28 39 40
f 28 40 41
f 28 41 42
f 28 42 29
f 29 42 43
f 29 43 30
f 30 43 44
f 30 44 45
f 30 45 31
f 31 46 32
f 31 45 47
f 31 47 48
f 31 48 46
f 33 34 50
f 33 50 51
f 33 51 49
f 35 52 53
f 35 53 36
f 36 53 54
f 40 55 41
f 41 55 56
f 41 56 42
f 42 56 57
f 42 57 43
f 43 57 58
f 43 58 59
f 43 59 60
f 43 60 61
f 43 61 44
f 44 62 45
f 44 61 63
f 44 63 64
f 44 64 62
f 45 62 47
f 47 65 66
f 47 66 67
f 47 67 48
f 47 62 65
f 49 51 68
f 49 68 69
f 49 69 70
f 50 71 51
f 51 71 72
f 51 72 68
f 52 73 53
f 53 74 75
f 53 75 54
f 53 73 76
f 53 76 77
f 53 77 74
f 55 78 56
f 56 79 80
f 56 80 57
f 56 78 79
f 57 80 81
f 57 81 82
f 57 82 83
f 57 83 58
f 58 83 82
f 58 82 84
f 58 84 85
f 58 85 59
f 59 85 86
f 59 86 87
f 59 87 61
f 59 61 60
f 61 88 89
f 61 89 90
f 61 90 63
f 61 87 86
f 61 86 91
f 61 91 92
f 61 92 93
f 61 93 94
f 61 94 95
f 61 95 88
f 62 64 65
f 63 90 96
f 63 96 64
f 64 96 97
f 64 97 65
f 65 97 98
f 65 98 66
f 66 98 99
f 66 99 100
f 66 100 67
f 68 72 101
f 68 101 69
f 69 102 103
f 69 103 104
f 69 104 70
f 69 101 105
f 69 105 106
f 69 106 107
f 69 107 102
f 72 108 101
f 73 109 76
f 74 77 110
f 76 109 111
f 76 111 112
f 76 112 113
f 76 113 114
f 76 114 115
f 76 115 77
f 77 115 116
f 77 116 117
f 77 117 118
f 77 118 119
f 77 119 120
f 77 120 110
f 81 121 82
f 82 122 123
f 82 123 84
f 82 121 124
f 82 124 125
f 82 125 122
f 84 123 85
f 85 123 86
f 86 126 127
f 86 127 128
f 86 128 129
f 86 129 91
f 86 123 130
f 86 130 126
f 88 131 132
f 88 132 133
f 88 133 89
f 88 95 131
f 89 99 90
f 89 133 99
f 90 99 96
f 91 134 92
f 91 129 134
f 92 134 135
f 92 135 136
f 92 136 93
f 93 137 94
f 93 136 137
f 94 138 139
f 94 139 95
f 94 137 140
f 94 140 138
f 95 139 131
f 96 98 97
f 96 99 98
f 99 133 141
f 99 141 100
f 101 106 105
f 101 108 142
f 101 142 106
f 102 107 103
f 103 143 104
f 103 107 143
f 104 143 144
f 106 142 145
f 106 145 146
f 106 146 107
f 107 146 147
f 107 147 148
f 107 148 149
f 107 149 143
f 108 150 151
f 108 151 152
f 108 152 153
f 108 153 142
f 109 154 111
f 111 154 155
f 111 155 156
f 111 156 157
f 111 157 158
f 111 158 159
f 111 159 160
f 111 160 112
f 112 160 113
f 113 160 161
f 113 161 115
f 113 115 114
f 115 161 162
f 115 162 116
f 116 162 117
f 117 162 163
f 117 119 118
f 122 125 123
f 123 125 164
f 123 164 126
f 123 126 130
f 126 128 127
f 126 164 128
f 128 165 166
f 128 166 167
f 128 167 168
f 128 168 169
f 128 169 129
f 128 164 170
f 128 170 165
f 129 169 134
f 131 139 171
f 131 171 132
f 132 171 172
f 132 172 173
f 132 173 174
f 132 174 133
f 133 174 141
f 134 169 168
f 134 168 167
f 134 167 175
f 134 175 176
f 134 176 177
f 134 177 135
f 135 177 178
f 135 178 136
f 136 178 179
f 136 179 140
f 136 140 137
f 138 180 139
f 138 140 181
f 138 181 182
f 138 182 180
f 139 183 172
f 139 172 171
f 139 180 182
f 139 182 184
f 139 184 183
f 140 179 185
f 140 185 181
f 142 153 186
f 142 186 187
f 142 187 146
f 142 146 145
f 143 159 144
f 143 149 159
f 144 159 188
f 146 187 186
f 146 186 189
f 146 189 147
f 147 189 181
f 147 181 185
f 147 185 190
f 147 190 148
f 148 190 179
f 148 179 191
f 148 191 149
f 149 191 192
f 149 192 160
f 149 160 159
f 150 193 151
f 151 193 194
f 151 194 195
f 151 195 196
f 151 196 197
f 151 197 152
f 152 197 189
f 152 189 186
f 152 186 153
f 156 188 157
f 157 159 158
f 157 188 159
f 160 192 198
f 160 198 161
f 161 198 192
f 161 192 199
f 161 199 200
f 161 200 201
f 161 201 202
f 161 202 162
f 162 202 201
f 162 201 203
f 162 203 204
f 162 204 163
f 166 205 167
f 167 205 175
f 172 183 206
f 175 207 177
f 175 177 176
f 175 205 208
f 175 208 209
f 175 209 207
f 177 207 210
f 177 210 178
f 178 210 211
f 178 211 212
f 178 212 213
f 178 213 179
f 179 212 203
f 179 203 201
f 179 201 200
f 179 200 191
f 179 190 185
f 179 213 212
f 181 189 196
f 181 196 182
f 182 196 195
f 182 195 184
f 183 184 206
f 184 195 194
f 184 194 193
f 184 193 206
f 189 197 196
f 191 200 199
f 191 199 192
f 203 214 204
f 203 212 215
f 203 215 216
f 203 216 217
f 203 217 218
f 203 218 214
f 207 209 219
f 207 219 215
f 207 215 210
f 208 219 209
f 210 215 212
f 210 212 211
f 215 219 216
f 216 219 217
