v -0.000159524 -0.3904 0.507741
v 0.180932 -0.3904 0.471612
v -0.000159524 -0.3904 0.521486
v -0.000159524 -0.188582 0.568943
v 0.180932 -0.3904 0.486281
v 0.180932 -0.188582 0.537359
v 0.00501653 -0.3904 0.521099
v -0.000159524 -0.383624 0.525076
v -0.000159524 -0.188582 0.581387
v 0.171377 -0.3904 0.4903
v 0.180932 -0.384157 0.489677
v 0.180932 -0.188582 0.550921
v 0.00595602 -0.3904 0.521024
v 0.0184708 -0.3904 0.519971
v 0.0724649 -0.3904 0.51449
v 0.0836856 -0.3904 0.51333
v 0.00595602 -0.382912 0.524764
v -0.000159524 -0.379811 0.526655
v 0.0416744 -0.196465 0.576498
v 0.0495626 -0.188582 0.577099
v -0.000159524 -0.214484 0.576519
v 0.00595602 -0.208379 0.577207
v 0.1489 -0.3904 0.498962
v 0.155725 -0.381766 0.500455
v 0.14883 -0.384552 0.501777
v 0.180932 -0.375523 0.493352
v 0.168222 -0.370465 0.500681
v 0.160121 -0.374693 0.501928
v 0.156753 -0.188582 0.560367
v 0.180932 -0.189195 0.550824
v 0.0863268 -0.3904 0.51305
v 0.113111 -0.383762 0.513233
v 0.0153864 -0.381826 0.52427
v 0.0187544 -0.376175 0.526279
v 0.00595602 -0.375049 0.528009
v -0.000159524 -0.375049 0.528504
v 0.0535865 -0.196465 0.575316
v 0.0980439 -0.191743 0.571812
v 0.0614746 -0.188582 0.576003
v 0.0178681 -0.208379 0.576208
v -0.000159524 -0.220292 0.575262
v 0.144646 -0.3904 0.500584
v 0.134028 -0.371809 0.513179
v 0.180932 -0.359599 0.499735
v 0.179904 -0.358591 0.500595
v 0.17237 -0.3628 0.50196
v 0.137573 -0.363768 0.514877
v 0.148936 -0.188582 0.563183
v 0.155902 -0.192237 0.560045
v 0.180932 -0.196465 0.549373
v 0.113111 -0.3904 0.509676
v 0.121177 -0.382379 0.51261
v 0.113111 -0.375049 0.516726
v 0.0628396 -0.369972 0.524248
v 0.0535865 -0.371157 0.524732
v 0.0416744 -0.372659 0.525355
v 0.0297801 -0.37414 0.525978
v -0.000159524 -0.350748 0.537359
v 0.0297801 -0.208379 0.574972
v 0.0731208 -0.203163 0.571705
v 0.0998165 -0.188582 0.572145
v 0.125006 -0.220292 0.562226
v 0.125006 -0.208379 0.564902
v -0.000159524 -0.267907 0.563924
v 0.00595602 -0.267907 0.563301
v 0.0178681 -0.267907 0.562065
v 0.0293724 -0.268401 0.560754
v 0.0416744 -0.256013 0.56242
v 0.137201 -0.3904 0.503271
v 0.125094 -0.375484 0.514426
v 0.131157 -0.345493 0.523979
v 0.180932 -0.358038 0.500359
v 0.180932 -0.356695 0.500885
v 0.180932 -0.289264 0.525215
v 0.14571 -0.360212 0.513093
v 0.144806 -0.188582 0.564408
v 0.149113 -0.196307 0.561614
v 0.145355 -0.206166 0.560561
v 0.179531 -0.203835 0.548073
v 0.180932 -0.199626 0.5486
v 0.180932 -0.197789 0.549062
v 0.121372 -0.3904 0.508096
v 0.125236 -0.3904 0.507344
v 0.125006 -0.347567 0.524689
v 0.112119 -0.351775 0.525333
v 0.107492 -0.357307 0.523947
v 0.0662962 -0.364222 0.525892
v 0.0535865 -0.363155 0.527569
v 0.00595602 -0.349385 0.537187
v -0.000159524 -0.315264 0.549384
v 0.101199 -0.239931 0.560045
v 0.136918 -0.196465 0.565182
v 0.106907 -0.188582 0.571049
v 0.125006 -0.228748 0.560217
v 0.1316 -0.227049 0.559808
v -0.000159524 -0.27496 0.562173
v 0.0251536 -0.274407 0.559755
v 0.113111 -0.267907 0.552146
v 0.132007 -0.310661 0.536198
v 0.155353 -0.286399 0.536026
v 0.180932 -0.280097 0.527923
v 0.136918 -0.188582 0.566256
v 0.137999 -0.209426 0.562119
v 0.168967 -0.217783 0.548589
v 0.132007 -0.275276 0.548084
v 0.145231 -0.253603 0.54861
v 0.180932 -0.245186 0.537079
v 0.125006 -0.312676 0.536875
v 0.125006 -0.303608 0.539981
v 0.112491 -0.316153 0.537348
v 0.108733 -0.286261 0.54788
v 0.0774105 -0.36193 0.525516
v 0.0178681 -0.347547 0.536574
v 0.0178681 -0.303608 0.551448
v -0.000159524 -0.28474 0.559368
v 0.0273516 -0.310661 0.548084
v 0.0535865 -0.291714 0.55177
v 0.125006 -0.267907 0.550899
v -0.000159524 -0.279623 0.561012
v 0.00595602 -0.27818 0.560754
v 0.101199 -0.27982 0.550405
v 0.125006 -0.277212 0.548589
v 0.13635 -0.302936 0.537316
v 0.148121 -0.290884 0.537165
v 0.157835 -0.27982 0.536972
v 0.161646 -0.268677 0.538509
v 0.180932 -0.246688 0.536693
v 0.179407 -0.251271 0.536112
v 0.168843 -0.26522 0.536628
v 0.112863 -0.280452 0.549019
v 0.0654985 -0.298846 0.548116
f 1 2 5
f 1 5 10
f 1 10 23
f 1 23 42
f 1 42 69
f 1 69 83
f 1 83 82
f 1 82 51
f 1 51 31
f 1 31 16
f 1 16 15
f 1 15 14
f 1 14 13
f 1 13 7
f 1 7 3
f 1 3 8
f 1 8 18
f 1 18 36
f 1 36 58
f 1 58 90
f 1 90 115
f 1 115 119
f 1 119 96
f 1 96 64
f 1 64 41
f 1 41 21
f 1 21 9
f 1 9 4
f 1 4 2
f 2 4 6
f 2 6 12
f 2 12 30
f 2 30 50
f 2 50 81
f 2 81 80
f 2 80 107
f 2 107 127
f 2 127 101
f 2 101 74
f 2 74 73
f 2 73 72
f 2 72 44
f 2 44 26
f 2 26 11
f 2 11 5
f 3 7 8
f 4 9 20
f 4 20 39
f 4 39 61
f 4 61 93
f 4 93 102
f 4 102 76
f 4 76 48
f 4 48 29
f 4 29 12
f 4 12 6
f 5 11 10
f 7 13 8
f 8 13 14
f 8 14 15
f 8 15 16
f 8 16 17
f 8 17 18
f 9 19 20
f 9 21 22
f 9 22 19
f 10 11 23
f 11 24 25
f 11 25 23
f 11 26 27
f 11 27 28
f 11 28 24
f 12 29 30
f 16 31 32
f 16 32 33
f 16 33 17
f 17 33 34
f 17 34 18
f 18 34 35
f 18 35 36
f 19 37 38
f 19 38 39
f 19 39 20
f 19 22 40
f 19 40 37
f 21 41 40
f 21 40 22
f 23 25 42
f 24 28 43
f 24 43 25
f 25 43 42
f 26 44 45
f 26 45 27
f 27 45 46
f 27 46 47
f 27 47 43
f 27 43 28
f 29 48 49
f 29 49 30
f 30 49 50
f 31 51 32
f 32 52 53
f 32 53 54
f 32 54 55
f 32 55 56
f 32 56 33
f 32 51 52
f 33 56 57
f 33 57 34
f 34 57 35
f 35 57 56
f 35 56 55
f 35 55 58
f 35 58 36
f 37 40 59
f 37 59 60
f 37 60 38
f 38 61 39
f 38 60 62
f 38 62 63
f 38 63 61
f 40 41 59
f 41 60 59
f 41 64 65
f 41 65 66
f 41 66 67
f 41 67 68
f 41 68 60
f 42 43 69
f 43 70 52
f 43 52 69
f 43 47 71
f 43 71 70
f 44 72 45
f 45 71 46
f 45 72 73
f 45 73 74
f 45 74 71
f 46 71 75
f 46 75 47
f 47 75 71
f 48 76 77
f 48 77 49
f 49 77 78
f 49 78 79
f 49 79 80
f 49 80 81
f 49 81 50
f 51 82 52
f 52 82 83
f 52 83 69
f 52 70 84
f 52 84 53
f 53 85 86
f 53 86 54
f 53 84 85
f 54 86 87
f 54 87 88
f 54 88 58
f 54 58 55
f 58 89 90
f 58 88 87
f 58 87 89
f 60 68 91
f 60 91 62
f 61 63 92
f 61 92 93
f 62 94 95
f 62 95 63
f 62 91 94
f 63 95 92
f 64 96 97
f 64 97 65
f 65 97 67
f 65 67 66
f 67 97 98
f 67 98 91
f 67 91 68
f 70 71 84
f 71 99 84
f 71 74 100
f 71 100 99
f 74 101 100
f 76 102 92
f 76 92 77
f 77 92 103
f 77 103 78
f 78 104 79
f 78 103 105
f 78 105 106
f 78 106 104
f 79 104 107
f 79 107 80
f 84 99 108
f 84 108 85
f 85 108 109
f 85 109 110
f 85 110 111
f 85 111 86
f 86 112 87
f 86 111 112
f 87 112 113
f 87 113 89
f 89 113 90
f 90 114 115
f 90 113 112
f 90 112 116
f 90 116 117
f 90 117 114
f 91 98 94
f 92 102 93
f 92 95 103
f 94 98 118
f 94 118 95
f 95 118 105
f 95 105 103
f 96 119 120
f 96 120 97
f 97 120 119
f 97 119 121
f 97 121 122
f 97 122 118
f 97 118 98
f 99 123 105
f 99 105 109
f 99 109 108
f 99 100 124
f 99 124 123
f 100 101 125
f 100 125 105
f 100 105 124
f 101 126 125
f 101 127 128
f 101 128 129
f 101 129 126
f 104 106 107
f 105 125 126
f 105 126 106
f 105 118 122
f 105 122 109
f 105 123 124
f 106 126 107
f 107 126 129
f 107 129 128
f 107 128 127
f 109 122 111
f 109 111 110
f 111 122 130
f 111 130 121
f 111 121 119
f 111 119 117
f 111 117 131
f 111 131 112
f 112 131 116
f 114 117 115
f 115 117 119
f 116 131 117
f 121 130 122
