v -0.494358 0.0790456 0.328881
v -0.489072 0.0790456 0.336297
v -0.489368 0.0893217 0.335055
v -0.494259 0.0804795 0.328881
v -0.478224 0.0790456 0.328881
v -0.484536 0.0790456 0.342564
v -0.493529 0.0893217 0.328881
v -0.464339 0.0951288 0.369112
v -0.488697 0.101223 0.33411
v -0.492247 0.101223 0.328881
v -0.292864 0.0790456 0.505397
v -0.416135 0.323186 0.328881
v -0.292864 0.323186 0.444846
v -0.450237 0.0790456 0.389877
v -0.443294 0.101223 0.396718
v -0.44925 0.101223 0.388523
v -0.443965 0.0893217 0.397663
v -0.488184 0.107197 0.333405
v -0.490709 0.111212 0.328881
v -0.292864 0.0790456 0.518282
v -0.433058 0.323186 0.328881
v -0.292864 0.323186 0.462533
v -0.44428 0.0790456 0.398071
v -0.438856 0.101223 0.402687
v -0.437949 0.113124 0.40126
v -0.436923 0.125025 0.399851
v -0.45286 0.109491 0.381589
v -0.439389 0.0893217 0.403614
v -0.465069 0.13695 0.358192
v -0.485601 0.13695 0.329864
v -0.486311 0.13695 0.328881
v -0.292864 0.0882941 0.517874
v -0.303179 0.0790456 0.514444
v -0.429271 0.323186 0.334276
v -0.441302 0.303614 0.328881
v -0.293633 0.323186 0.46194
v -0.292864 0.320294 0.463775
v -0.439665 0.0790456 0.404041
v -0.43292 0.101223 0.409436
v -0.431993 0.113124 0.408435
v -0.429941 0.13695 0.406228
v -0.429152 0.145912 0.405394
v -0.428383 0.153846 0.404616
v -0.431164 0.172653 0.396421
v -0.440671 0.131669 0.393102
v -0.44144 0.172653 0.382257
v -0.428344 0.0790456 0.416407
v -0.427969 0.0893217 0.416036
v -0.466291 0.172653 0.347977
v -0.48491 0.145051 0.328881
v -0.292864 0.0893217 0.517818
v -0.302588 0.0893217 0.514184
v -0.308307 0.0790456 0.51196
v -0.429152 0.323186 0.334443
v -0.444694 0.295488 0.328881
v -0.301306 0.323186 0.455766
v -0.295665 0.317689 0.462719
v -0.299412 0.303614 0.465778
v -0.296986 0.284471 0.475659
v -0.292864 0.293194 0.474714
v -0.427101 0.101223 0.415387
v -0.42578 0.113124 0.414386
v -0.420435 0.172653 0.407953
v -0.419133 0.184578 0.40684
v -0.426391 0.172653 0.402372
v -0.430099 0.184578 0.394956
v -0.440789 0.17999 0.381367
v -0.409113 0.0790456 0.432128
v -0.422013 0.0893217 0.420986
v -0.476804 0.16981 0.334147
v -0.45497 0.184578 0.360677
v -0.465226 0.184578 0.346513
v -0.484102 0.14964 0.328881
v -0.292864 0.0999562 0.517058
v -0.308544 0.0893217 0.511033
v -0.301227 0.101223 0.513573
v -0.307183 0.101223 0.510495
v -0.309136 0.0790456 0.511515
v -0.411658 0.323186 0.358582
v -0.43929 0.303614 0.331681
v -0.44219 0.289705 0.335667
v -0.429724 0.300268 0.346809
v -0.446134 0.291999 0.328881
v -0.34736 0.323186 0.418409
v -0.367103 0.293863 0.415109
v -0.309964 0.286455 0.464665
v -0.298781 0.276513 0.477124
v -0.292864 0.280003 0.479311
v -0.292864 0.288056 0.476772
v -0.421145 0.101223 0.420337
v -0.419843 0.113124 0.419262
v -0.413216 0.172653 0.413904
v -0.411855 0.184578 0.412791
v -0.40509 0.191222 0.416963
v -0.417871 0.193684 0.405802
v -0.42507 0.184578 0.400908
v -0.429251 0.192656 0.393788
v -0.464576 0.191294 0.345623
v -0.388522 0.0790456 0.448869
v -0.408739 0.0893217 0.431813
v -0.381659 0.0980683 0.452948
v -0.477909 0.184578 0.328881
v -0.292864 0.101223 0.516928
v -0.32306 0.0893217 0.501355
v -0.315546 0.101223 0.5051
v -0.292864 0.11169 0.515649
v -0.292864 0.123472 0.513906
v -0.299195 0.113124 0.512664
v -0.299964 0.184578 0.501207
v -0.301838 0.172653 0.502152
v -0.305152 0.113124 0.50979
v -0.310043 0.156881 0.500409
v -0.31095 0.148851 0.501058
v -0.312272 0.13695 0.502022
v -0.313593 0.125025 0.502986
v -0.315546 0.0790456 0.507158
v -0.406431 0.313436 0.371356
v -0.406332 0.323186 0.365905
v -0.418758 0.303614 0.360009
v -0.417673 0.288032 0.370429
v -0.428363 0.285332 0.357024
v -0.450631 0.279811 0.328881
v -0.43931 0.281962 0.343602
v -0.373671 0.323186 0.397051
v -0.382053 0.28765 0.405672
v -0.369213 0.285929 0.416833
v -0.317341 0.279811 0.460994
v -0.311384 0.279811 0.465815
v -0.35805 0.275868 0.42931
v -0.306414 0.267886 0.473694
v -0.310773 0.205537 0.489137
v -0.29815 0.239281 0.48847
v -0.293495 0.255985 0.485986
v -0.292864 0.258279 0.485633
v -0.393611 0.110161 0.441083
v -0.377339 0.13695 0.449463
v -0.382033 0.160752 0.441361
v -0.348168 0.172653 0.466686
v -0.393197 0.179751 0.428847
v -0.405918 0.184578 0.41763
v -0.352764 0.184578 0.460753
v -0.314264 0.184578 0.491955
v -0.345841 0.191963 0.464795
v -0.312469 0.19648 0.490509
v -0.322114 0.215956 0.476772
v -0.381797 0.252066 0.417371
v -0.393138 0.262462 0.405005
v -0.406983 0.220258 0.406581
v -0.405899 0.264923 0.393844
v -0.416668 0.23799 0.39288
v -0.443294 0.19648 0.372913
v -0.417259 0.263728 0.381738
v -0.475108 0.19648 0.328881
v -0.476193 0.191963 0.328881
v -0.44925 0.19648 0.3647
v -0.46641 0.208357 0.336223
v -0.323455 0.0790456 0.50167
v -0.382171 0.0893217 0.453393
v -0.322193 0.101223 0.500632
v -0.321522 0.107269 0.500094
v -0.298012 0.12003 0.512126
v -0.292864 0.184578 0.504266
v -0.298564 0.192202 0.500521
v -0.305901 0.184578 0.497907
v -0.304481 0.1608 0.502671
v -0.316887 0.148851 0.496349
v -0.318228 0.13695 0.497425
v -0.321995 0.168949 0.488581
v -0.404755 0.321394 0.369075
v -0.405208 0.298595 0.38146
v -0.40438 0.323186 0.368556
v -0.406648 0.291712 0.383017
v -0.419113 0.279811 0.372412
v -0.414675 0.279811 0.378363
v -0.451321 0.2703 0.331977
v -0.440592 0.274028 0.345382
v -0.45428 0.267839 0.328881
v -0.434557 0.279668 0.351203
v -0.393157 0.323186 0.381219
v -0.394853 0.28937 0.394511
v -0.397062 0.279811 0.396291
v -0.389745 0.279811 0.402242
v -0.376452 0.279811 0.413051
v -0.370515 0.279811 0.417871
v -0.391639 0.270396 0.403781
v -0.313751 0.267886 0.467743
v -0.309708 0.250345 0.476364
v -0.31312 0.232183 0.479126
v -0.292864 0.242937 0.489953
v -0.292864 0.250489 0.487858
v -0.292864 0.255985 0.486301
v -0.334165 0.113124 0.488785
v -0.325565 0.13695 0.491473
v -0.340831 0.172653 0.472637
v -0.333948 0.18097 0.476697
v -0.398778 0.267647 0.398813
v -0.404439 0.272857 0.392528
v -0.408739 0.279811 0.385371
v -0.415938 0.271662 0.380143
v -0.430395 0.244084 0.371541
v -0.429784 0.277374 0.358804
v -0.441499 0.267886 0.346624
v -0.452584 0.262366 0.333572
v -0.461203 0.244084 0.32903
v -0.461124 0.244705 0.328881
v -0.292864 0.19581 0.502152
v -0.403019 0.279811 0.391323
v -0.398838 0.292692 0.389617
v -0.393374 0.322349 0.381404
v -0.403295 0.306529 0.37929
v -0.398601 0.323186 0.375342
v -0.454812 0.26607 0.328881
f 1 2 3
f 1 3 4
f 1 4 7
f 1 7 10
f 1 10 19
f 1 19 31
f 1 31 50
f 1 50 73
f 1 73 102
f 1 102 154
f 1 154 153
f 1 153 205
f 1 205 212
f 1 212 177
f 1 177 122
f 1 122 83
f 1 83 55
f 1 55 35
f 1 35 21
f 1 21 12
f 1 12 5
f 1 5 11
f 1 11 20
f 1 20 33
f 1 33 53
f 1 53 78
f 1 78 116
f 1 116 157
f 1 157 99
f 1 99 68
f 1 68 47
f 1 47 38
f 1 38 23
f 1 23 14
f 1 14 6
f 1 6 2
f 2 6 3
f 3 7 4
f 3 6 8
f 3 8 9
f 3 9 10
f 3 10 7
f 5 12 13
f 5 13 11
f 6 14 8
f 8 15 16
f 8 16 9
f 8 14 17
f 8 17 15
f 9 16 18
f 9 18 19
f 9 19 10
f 11 13 22
f 11 22 37
f 11 37 60
f 11 60 89
f 11 89 88
f 11 88 134
f 11 134 191
f 11 191 190
f 11 190 189
f 11 189 206
f 11 206 162
f 11 162 107
f 11 107 106
f 11 106 103
f 11 103 74
f 11 74 51
f 11 51 32
f 11 32 20
f 12 21 34
f 12 34 54
f 12 54 79
f 12 79 118
f 12 118 171
f 12 171 211
f 12 211 179
f 12 179 124
f 12 124 84
f 12 84 56
f 12 56 36
f 12 36 22
f 12 22 13
f 14 23 17
f 15 17 24
f 15 24 25
f 15 25 16
f 16 25 26
f 16 26 27
f 16 27 18
f 17 23 28
f 17 28 24
f 18 27 29
f 18 29 30
f 18 30 31
f 18 31 19
f 20 32 33
f 21 35 34
f 22 36 37
f 23 38 28
f 24 28 39
f 24 39 40
f 24 40 41
f 24 41 42
f 24 42 25
f 25 42 43
f 25 43 26
f 26 43 44
f 26 44 45
f 26 45 27
f 27 45 46
f 27 46 29
f 28 38 47
f 28 47 48
f 28 48 39
f 29 46 49
f 29 49 50
f 29 50 30
f 30 50 31
f 32 51 52
f 32 52 33
f 33 52 53
f 34 35 54
f 35 55 54
f 36 56 57
f 36 57 37
f 37 57 58
f 37 58 59
f 37 59 60
f 39 61 40
f 39 48 61
f 40 61 41
f 41 61 42
f 42 61 62
f 42 62 43
f 43 62 63
f 43 63 64
f 43 64 65
f 43 65 66
f 43 66 44
f 44 66 67
f 44 67 46
f 44 46 45
f 46 67 49
f 47 68 69
f 47 69 48
f 48 69 90
f 48 90 61
f 49 70 50
f 49 67 71
f 49 71 72
f 49 72 70
f 50 70 73
f 51 74 52
f 52 75 53
f 52 74 76
f 52 76 77
f 52 77 75
f 53 75 78
f 54 55 80
f 54 80 81
f 54 81 82
f 54 82 79
f 55 83 81
f 55 81 80
f 56 84 85
f 56 85 86
f 56 86 57
f 57 86 58
f 58 86 59
f 59 86 87
f 59 87 88
f 59 88 89
f 59 89 60
f 61 90 62
f 62 90 91
f 62 91 92
f 62 92 63
f 63 92 64
f 64 93 94
f 64 94 95
f 64 95 96
f 64 96 65
f 64 92 93
f 65 96 66
f 66 96 97
f 66 97 98
f 66 98 71
f 66 71 67
f 68 99 100
f 68 100 69
f 69 100 101
f 69 101 90
f 70 72 102
f 70 102 73
f 71 98 72
f 72 98 102
f 74 103 76
f 75 104 78
f 75 77 105
f 75 105 104
f 76 103 106
f 76 106 107
f 76 107 108
f 76 108 109
f 76 109 110
f 76 110 111
f 76 111 77
f 77 111 112
f 77 112 113
f 77 113 114
f 77 114 115
f 77 115 105
f 78 104 116
f 79 117 118
f 79 82 119
f 79 119 120
f 79 120 117
f 81 121 120
f 81 120 82
f 81 83 122
f 81 122 123
f 81 123 121
f 82 120 119
f 84 124 125
f 84 125 85
f 85 125 126
f 85 126 86
f 86 126 127
f 86 127 128
f 86 128 87
f 87 128 127
f 87 127 129
f 87 129 130
f 87 130 131
f 87 131 132
f 87 132 88
f 88 132 133
f 88 133 134
f 90 101 135
f 90 135 91
f 91 135 136
f 91 136 137
f 91 137 92
f 92 137 138
f 92 138 139
f 92 139 140
f 92 140 93
f 93 140 94
f 94 140 141
f 94 141 142
f 94 142 143
f 94 143 144
f 94 144 131
f 94 131 145
f 94 145 146
f 94 146 147
f 94 147 148
f 94 148 95
f 95 97 96
f 95 148 149
f 95 149 150
f 95 150 97
f 97 151 98
f 97 150 152
f 97 152 151
f 98 153 154
f 98 154 102
f 98 151 155
f 98 155 156
f 98 156 153
f 99 157 158
f 99 158 100
f 100 158 101
f 101 159 160
f 101 160 135
f 101 158 104
f 101 104 159
f 104 158 157
f 104 157 116
f 104 105 159
f 105 115 159
f 107 161 108
f 107 162 109
f 107 109 161
f 108 161 109
f 109 162 163
f 109 163 164
f 109 164 112
f 109 112 110
f 110 112 165
f 110 165 111
f 111 165 112
f 112 166 167
f 112 167 160
f 112 160 159
f 112 159 113
f 112 164 142
f 112 142 168
f 112 168 166
f 113 159 114
f 114 159 115
f 117 169 118
f 117 120 170
f 117 170 169
f 118 169 171
f 120 172 170
f 120 121 123
f 120 123 173
f 120 173 174
f 120 174 172
f 122 175 176
f 122 176 123
f 122 177 175
f 123 176 178
f 123 178 173
f 124 179 125
f 125 179 180
f 125 180 181
f 125 181 126
f 126 181 182
f 126 182 183
f 126 183 184
f 126 184 127
f 127 184 129
f 129 185 130
f 129 184 183
f 129 183 182
f 129 182 181
f 129 181 185
f 130 185 186
f 130 186 147
f 130 147 146
f 130 146 187
f 130 187 131
f 131 144 132
f 131 187 188
f 131 188 145
f 132 189 190
f 132 190 191
f 132 191 133
f 132 144 164
f 132 164 163
f 132 163 189
f 133 191 134
f 135 160 192
f 135 192 193
f 135 193 136
f 136 193 137
f 137 193 138
f 138 194 195
f 138 195 139
f 138 193 167
f 138 167 194
f 139 195 140
f 140 195 141
f 141 195 142
f 142 195 168
f 142 164 144
f 142 144 143
f 145 188 146
f 146 188 187
f 147 186 185
f 147 185 196
f 147 196 149
f 147 149 148
f 149 196 197
f 149 197 150
f 150 197 198
f 150 198 174
f 150 174 199
f 150 199 152
f 151 152 200
f 151 200 155
f 152 199 173
f 152 173 201
f 152 201 176
f 152 176 202
f 152 202 203
f 152 203 200
f 153 156 204
f 153 204 205
f 155 200 203
f 155 203 156
f 156 203 204
f 160 167 193
f 160 193 192
f 162 206 163
f 163 206 189
f 166 168 167
f 167 168 194
f 168 195 194
f 169 170 171
f 170 172 207
f 170 207 208
f 170 208 209
f 170 209 179
f 170 179 210
f 170 210 171
f 171 210 211
f 172 174 198
f 172 198 197
f 172 197 207
f 173 199 174
f 173 178 201
f 175 177 203
f 175 203 176
f 176 201 178
f 176 203 202
f 177 212 203
f 179 211 210
f 179 209 180
f 180 208 207
f 180 207 181
f 180 209 208
f 181 207 197
f 181 197 185
f 185 197 196
f 203 212 204
f 204 212 205
