v -0.397589 -0.0059535 0.445671
v -0.397015 -0.0160439 0.445671
v -0.385238 -0.0059535 0.455888
v -0.397589 0.00593594 0.445671
v -0.396905 -0.017869 0.445671
v -0.377894 -0.0059535 0.46185
v -0.345475 -0.00264218 0.488349
v -0.385238 0.00593594 0.455888
v -0.396266 -0.0273858 0.445671
v -0.384797 -0.017869 0.455544
v -0.396905 0.0178515 0.445671
v -0.364177 -0.017869 0.472284
v -0.345475 0.00262463 0.488349
v -0.326111 -0.0059535 0.503865
v -0.377894 0.00593594 0.46185
v -0.384797 0.0178515 0.455544
v -0.396089 0.029767 0.445671
v -0.393465 -0.0654789 0.445671
v -0.330765 -0.0417001 0.497967
v -0.325251 -0.0297845 0.503152
v -0.336785 -0.0773945 0.490947
v -0.326111 0.00593594 0.503865
v -0.364177 0.0178515 0.472284
v -0.318326 -0.0059535 0.509815
v -0.394964 0.0450981 0.445671
v -0.392583 -0.0773945 0.445671
v -0.32481 -0.0417001 0.502795
v -0.3917 -0.0892839 0.445671
v -0.329 -0.0892839 0.49654
v -0.323046 -0.0892839 0.501369
v -0.323487 -0.0773945 0.501725
v -0.318326 0.00593594 0.509815
v -0.325251 0.029767 0.503152
v -0.337226 0.0654875 0.491304
v -0.393465 0.0654875 0.445671
v -0.311357 -0.0297845 0.513038
v -0.312371 -0.0059535 0.51365
v -0.317312 -0.0297845 0.509101
v -0.309548 -0.0713194 0.511968
v -0.309901 -0.0633931 0.512184
v -0.31032 -0.0535895 0.512439
v -0.390928 -0.0944725 0.445671
v -0.381622 -0.0980445 0.452971
v -0.322163 -0.101199 0.500655
v -0.315525 -0.101199 0.505127
v -0.308534 -0.0892839 0.511038
v -0.314533 -0.0666001 0.508821
v -0.316275 -0.0535895 0.508388
v -0.312371 0.00593594 0.51365
v -0.311357 0.029767 0.513038
v -0.31032 0.0535719 0.512439
v -0.309901 0.0633755 0.512184
v -0.309548 0.0713279 0.511968
v -0.317312 0.029767 0.509101
v -0.323421 0.0790456 0.501674
v -0.323487 0.0773769 0.501725
v -0.323928 0.0654875 0.502082
v -0.328559 0.0790456 0.497521
v -0.34274 0.0773769 0.486119
v -0.392583 0.0773769 0.445671
v -0.310828 -0.0417001 0.512745
v -0.288024 -0.0059535 0.524911
v -0.303616 -0.0417001 0.516147
v -0.302579 -0.0892839 0.514185
v -0.303263 -0.0773945 0.51449
v -0.304807 -0.0666001 0.51435
v -0.389804 -0.101486 0.445671
v -0.381997 -0.13692 0.445671
v -0.37269 -0.125004 0.455378
v -0.360714 -0.113115 0.467239
v -0.347438 -0.113115 0.478017
v -0.341417 -0.101199 0.485036
v -0.328118 -0.101199 0.495827
v -0.321502 -0.107248 0.500107
v -0.310034 -0.15684 0.500426
v -0.312239 -0.13692 0.502044
v -0.313562 -0.125004 0.502999
v -0.307167 -0.101199 0.510516
v -0.288024 0.00593594 0.524911
v -0.303616 0.0416564 0.516147
v -0.310828 0.0416564 0.512745
v -0.314533 0.0666086 0.508821
v -0.304807 0.0666086 0.51435
v -0.303263 0.0773769 0.51449
v -0.303153 0.0790456 0.514439
v -0.308291 0.0790456 0.511955
v -0.309107 0.0790456 0.511522
v -0.315525 0.0790456 0.507165
v -0.316275 0.0535719 0.508388
v -0.335705 0.0790456 0.491725
v -0.388503 0.0790456 0.448881
v -0.39245 0.0790456 0.445671
v -0.262816 -0.0059535 0.536186
v -0.287362 -0.017869 0.524618
v -0.2794 -0.0535895 0.526364
v -0.301212 -0.101199 0.513573
v -0.226426 -0.0958022 0.547792
v -0.252119 -0.0892839 0.536721
v -0.252803 -0.0773945 0.537027
v -0.378336 -0.15345 0.445671
v -0.334139 -0.113115 0.488807
v -0.324215 -0.148835 0.490412
v -0.31687 -0.148835 0.496362
v -0.321965 -0.168938 0.488591
v -0.314246 -0.184556 0.491979
v -0.305887 -0.184556 0.497929
v -0.299933 -0.184556 0.501228
v -0.301807 -0.17264 0.502158
v -0.304454 -0.160777 0.502681
v -0.305138 -0.113115 0.509815
v -0.262816 0.00593594 0.536186
v -0.287362 0.0178515 0.524618
v -0.2794 0.0535719 0.526364
v -0.277945 0.0790456 0.525714
v -0.371631 0.0790456 0.445671
v -0.179782 -0.0297845 0.572048
v -0.181127 -0.0059535 0.572647
v -0.276004 -0.101199 0.524848
v -0.299183 -0.113115 0.512669
v -0.22078 -0.100339 0.549626
v -0.194315 -0.101199 0.561309
v -0.195661 -0.0892839 0.561907
v -0.220295 -0.0892839 0.550926
v -0.226867 -0.0892839 0.547996
v -0.197491 -0.0769512 0.561742
v -0.371344 -0.184556 0.445671
v -0.361442 -0.17264 0.455913
v -0.330169 -0.148835 0.485584
v -0.334845 -0.17264 0.477482
v -0.322891 -0.160725 0.48933
v -0.333918 -0.180932 0.476717
v -0.346798 -0.184556 0.465596
v -0.346423 -0.18732 0.465303
v -0.315216 -0.18732 0.490514
v -0.313827 -0.18732 0.491635
v -0.307409 -0.18732 0.496209
v -0.305204 -0.18732 0.49761
v -0.299426 -0.18732 0.500974
v -0.274482 -0.18732 0.512261
v -0.277063 -0.17264 0.51342
v -0.181127 0.00593594 0.572647
v -0.179782 0.029767 0.572048
v -0.197491 0.0769597 0.561742
v -0.252693 0.0790456 0.536989
v -0.174092 0.0790456 0.557652
v -0.172305 -0.18732 0.543104
v -0.349356 -0.18732 0.445671
v -0.179098 -0.0417001 0.571742
v -0.172658 -0.0059535 0.57573
v -0.242768 -0.113115 0.537868
v -0.263918 -0.13692 0.524771
v -0.192264 -0.113115 0.560404
v -0.18223 -0.13692 0.561232
v -0.185229 -0.124665 0.561767
v -0.184567 -0.113115 0.563729
v -0.172305 -0.101199 0.570328
v -0.172305 -0.0956979 0.570914
v -0.172305 -0.0892839 0.5715
v -0.178701 -0.0484791 0.571564
v -0.370506 -0.18732 0.445671
v -0.352753 -0.184556 0.460767
v -0.192705 -0.18732 0.548684
v -0.193279 -0.184556 0.548938
v -0.218531 -0.184556 0.537677
v -0.250553 -0.179993 0.524122
v -0.197645 -0.161846 0.550531
v -0.205431 -0.148835 0.549053
v -0.172658 0.00593594 0.57573
v -0.179098 0.0416564 0.571742
v -0.197182 0.0790456 0.561767
v -0.178701 0.0484355 0.571564
v -0.172305 0.0790456 0.558748
v -0.172305 -0.18732 0.557525
v -0.172305 -0.0059535 0.575794
v -0.172658 -0.017869 0.575157
v -0.172305 -0.0610204 0.573182
v -0.172305 -0.017869 0.575233
v -0.180179 -0.148835 0.560315
v -0.172305 -0.163906 0.561385
v -0.173253 -0.160177 0.561538
v -0.173584 -0.0529116 0.573131
v -0.172305 -0.186772 0.55764
v -0.172305 -0.184556 0.558098
v -0.178966 -0.155823 0.55978
v -0.195374 -0.17264 0.549881
v -0.172305 0.0062749 0.575794
v -0.172305 0.0610028 0.573182
v -0.172658 0.0178515 0.575157
v -0.172305 0.0790456 0.572086
v -0.172305 0.0644967 0.572978
v -0.172305 0.0747174 0.572367
f 1 2 3
f 1 3 8
f 1 8 4
f 1 4 11
f 1 11 17
f 1 17 25
f 1 25 35
f 1 35 60
f 1 60 92
f 1 92 115
f 1 115 147
f 1 147 160
f 1 160 126
f 1 126 100
f 1 100 68
f 1 68 67
f 1 67 42
f 1 42 28
f 1 28 26
f 1 26 18
f 1 18 9
f 1 9 5
f 1 5 2
f 2 5 3
f 3 6 7
f 3 7 13
f 3 13 8
f 3 5 9
f 3 9 10
f 3 10 6
f 4 8 11
f 6 10 12
f 6 12 7
f 7 12 14
f 7 14 22
f 7 22 13
f 8 13 15
f 8 15 16
f 8 16 17
f 8 17 11
f 9 12 10
f 9 18 12
f 12 19 20
f 12 20 14
f 12 18 21
f 12 21 19
f 13 22 23
f 13 23 15
f 14 24 32
f 14 32 22
f 14 20 24
f 15 23 16
f 16 23 17
f 17 23 25
f 18 26 21
f 19 21 20
f 20 21 27
f 20 27 24
f 21 26 28
f 21 28 29
f 21 29 30
f 21 30 31
f 21 31 27
f 22 32 33
f 22 33 23
f 23 33 34
f 23 34 35
f 23 35 25
f 24 36 37
f 24 37 49
f 24 49 32
f 24 27 31
f 24 31 30
f 24 30 38
f 24 38 39
f 24 39 40
f 24 40 41
f 24 41 36
f 28 42 43
f 28 43 29
f 29 43 30
f 30 43 44
f 30 44 45
f 30 45 46
f 30 46 39
f 30 39 47
f 30 47 48
f 30 48 38
f 32 49 50
f 32 50 51
f 32 51 52
f 32 52 53
f 32 53 54
f 32 54 55
f 32 55 56
f 32 56 57
f 32 57 33
f 33 57 58
f 33 58 34
f 34 58 59
f 34 59 35
f 35 59 60
f 36 61 37
f 36 41 61
f 37 62 79
f 37 79 49
f 37 61 63
f 37 63 62
f 38 48 47
f 38 47 39
f 39 46 64
f 39 64 65
f 39 65 66
f 39 66 63
f 39 63 40
f 40 63 41
f 41 63 61
f 42 67 43
f 43 67 68
f 43 68 69
f 43 69 70
f 43 70 71
f 43 71 72
f 43 72 73
f 43 73 44
f 44 73 74
f 44 74 75
f 44 75 76
f 44 76 77
f 44 77 45
f 45 77 78
f 45 78 46
f 46 78 64
f 49 79 80
f 49 80 81
f 49 81 51
f 49 51 50
f 51 81 80
f 51 80 52
f 52 80 53
f 53 82 54
f 53 80 83
f 53 83 84
f 53 84 85
f 53 85 86
f 53 86 87
f 53 87 88
f 53 88 55
f 53 55 82
f 54 82 89
f 54 89 55
f 55 58 56
f 55 89 82
f 55 88 87
f 55 87 86
f 55 86 85
f 55 85 114
f 55 114 144
f 55 144 170
f 55 170 189
f 55 189 172
f 55 172 145
f 55 145 115
f 55 115 92
f 55 92 91
f 55 91 90
f 55 90 58
f 56 58 57
f 58 90 59
f 59 90 91
f 59 91 60
f 60 91 92
f 62 93 111
f 62 111 79
f 62 63 94
f 62 94 93
f 63 66 95
f 63 95 94
f 64 78 96
f 64 96 97
f 64 97 98
f 64 98 99
f 64 99 65
f 65 99 95
f 65 95 66
f 68 100 69
f 69 71 70
f 69 100 71
f 71 101 73
f 71 73 72
f 71 100 101
f 73 101 74
f 74 101 102
f 74 102 103
f 74 103 75
f 75 103 104
f 75 104 105
f 75 105 106
f 75 106 107
f 75 107 108
f 75 108 109
f 75 109 110
f 75 110 78
f 75 78 76
f 76 78 77
f 78 110 96
f 79 111 112
f 79 112 80
f 80 112 83
f 83 113 84
f 83 112 113
f 84 113 114
f 84 114 85
f 93 116 117
f 93 117 141
f 93 141 111
f 93 94 95
f 93 95 116
f 95 99 116
f 96 118 97
f 96 110 107
f 96 107 119
f 96 119 118
f 97 118 120
f 97 120 121
f 97 121 122
f 97 122 123
f 97 123 124
f 97 124 98
f 98 124 99
f 99 125 116
f 99 124 125
f 100 126 127
f 100 127 128
f 100 128 101
f 101 128 102
f 102 128 129
f 102 129 130
f 102 130 103
f 103 130 104
f 104 130 129
f 104 129 131
f 104 131 105
f 105 131 132
f 105 132 133
f 105 133 134
f 105 134 135
f 105 135 136
f 105 136 106
f 106 136 137
f 106 137 138
f 106 138 107
f 107 138 139
f 107 139 140
f 107 140 119
f 107 110 108
f 108 110 109
f 111 141 142
f 111 142 113
f 111 113 112
f 113 142 143
f 113 143 114
f 114 143 144
f 115 145 146
f 115 146 147
f 116 148 149
f 116 149 117
f 116 125 148
f 117 149 168
f 117 168 141
f 118 121 120
f 118 119 150
f 118 150 121
f 119 140 151
f 119 151 150
f 121 150 152
f 121 152 153
f 121 153 154
f 121 154 155
f 121 155 156
f 121 156 157
f 121 157 122
f 122 125 123
f 122 157 158
f 122 158 159
f 122 159 125
f 123 125 124
f 125 159 148
f 126 160 133
f 126 133 161
f 126 161 127
f 127 161 131
f 127 131 129
f 127 129 128
f 131 161 132
f 132 161 133
f 133 160 147
f 133 147 146
f 133 146 173
f 133 173 162
f 133 162 139
f 133 139 138
f 133 138 137
f 133 137 136
f 133 136 135
f 133 135 134
f 139 162 163
f 139 163 164
f 139 164 165
f 139 165 140
f 140 165 166
f 140 166 167
f 140 167 150
f 140 150 151
f 141 168 142
f 142 169 143
f 142 168 169
f 143 170 144
f 143 169 171
f 143 171 170
f 145 172 146
f 146 172 189
f 146 189 191
f 146 191 190
f 146 190 187
f 146 187 186
f 146 186 174
f 146 174 177
f 146 177 176
f 146 176 158
f 146 158 157
f 146 157 156
f 146 156 179
f 146 179 183
f 146 183 182
f 146 182 173
f 148 159 149
f 149 174 186
f 149 186 168
f 149 159 175
f 149 175 176
f 149 176 177
f 149 177 174
f 150 167 152
f 152 167 153
f 153 167 166
f 153 166 178
f 153 178 179
f 153 179 180
f 153 180 155
f 153 155 154
f 155 180 156
f 156 180 179
f 158 176 159
f 159 181 175
f 159 176 181
f 162 173 182
f 162 182 183
f 162 183 163
f 163 165 164
f 163 183 184
f 163 184 185
f 163 185 165
f 165 185 166
f 166 185 184
f 166 184 178
f 168 186 187
f 168 187 188
f 168 188 171
f 168 171 169
f 170 171 189
f 171 187 190
f 171 190 191
f 171 191 189
f 171 188 187
f 175 181 176
f 178 184 179
f 179 184 183
