v -0.501743 -0.201653 0.26478
v -0.566507 -0.201653 -9.55531e-05
v -0.515823 -0.201653 0.26478
v -0.445098 -0.364822 0.26478
v -0.445098 -0.514613 -9.55531e-05
v -0.578651 -0.201653 -9.55531e-05
v -0.524909 -0.201653 0.241472
v -0.513653 -0.210901 0.26478
v -0.445098 -0.39805 0.26478
v -0.445098 -0.539088 -9.55531e-05
v -0.577788 -0.201653 0.0126867
v -0.577592 -0.208391 -9.55531e-05
v -0.5772 -0.208391 0.0059715
v -0.548348 -0.201653 0.180257
v -0.548074 -0.203866 0.179531
v -0.524595 -0.205187 0.239968
v -0.51262 -0.216814 0.263588
v -0.512842 -0.214105 0.26478
v -0.452655 -0.384375 0.26478
v -0.453844 -0.383517 0.263821
v -0.445098 -0.400791 0.262706
v -0.445098 -0.538692 0.0059715
v -0.45021 -0.53202 -9.55531e-05
v -0.5769 -0.201653 0.0245875
v -0.57652 -0.214436 -9.55531e-05
v -0.576207 -0.208391 0.0178723
v -0.561042 -0.201653 0.147069
v -0.54861 -0.253609 0.145228
v -0.5481 -0.239671 0.155781
v -0.536635 -0.265236 0.168848
v -0.502358 -0.268109 0.25651
v -0.500671 -0.264245 0.263251
v -0.501351 -0.258894 0.26478
v -0.453491 -0.382856 0.26478
v -0.45757 -0.374664 0.26478
v -0.461832 -0.375061 0.25848
v -0.464499 -0.381237 0.250235
v -0.458119 -0.386357 0.255524
v -0.454472 -0.396696 0.25288
v -0.445098 -0.409346 0.256224
v -0.445098 -0.537073 0.0181575
v -0.450014 -0.531491 0.0059715
v -0.45204 -0.529014 -9.55531e-05
v -0.575828 -0.201653 0.0364882
v -0.575252 -0.220282 -9.55531e-05
v -0.574625 -0.220282 0.0059715
v -0.573736 -0.208391 0.0416997
v -0.574625 -0.201653 0.0484149
v -0.561813 -0.201653 0.14458
v -0.562114 -0.209448 0.137995
v -0.560558 -0.206178 0.145332
v -0.548087 -0.275277 0.132031
v -0.538504 -0.268671 0.161641
v -0.512149 -0.274451 0.226641
v -0.501194 -0.277754 0.25288
v -0.500331 -0.262726 0.26478
v -0.495521 -0.291726 0.255991
v -0.491638 -0.290999 0.26478
v -0.461962 -0.365317 0.26478
v -0.463583 -0.367728 0.261073
v -0.477127 -0.35957 0.240331
v -0.477205 -0.371262 0.228637
v -0.478735 -0.37516 0.220185
v -0.500462 -0.381766 0.155729
v -0.476983 -0.382493 0.216166
v -0.465688 -0.383781 0.24409
v -0.453936 -0.419784 0.230037
v -0.452315 -0.416613 0.237971
v -0.445098 -0.434581 0.233745
v -0.445098 -0.423813 0.244324
v -0.445098 -0.423285 0.244842
v -0.452275 -0.404623 0.249846
v -0.465858 -0.375061 0.252517
v -0.477036 -0.347415 0.251661
v -0.445098 -0.535158 0.029773
v -0.445098 -0.527131 0.0768575
v -0.452877 -0.524621 0.0158499
v -0.4537 -0.526074 -9.55531e-05
v -0.572612 -0.231413 -9.55531e-05
v -0.572546 -0.21863 0.029773
v -0.572102 -0.204824 0.0655012
v -0.560218 -0.228771 0.125031
v -0.572847 -0.201653 0.0655012
v -0.563957 -0.201653 0.137346
v -0.559813 -0.227053 0.131616
v -0.548597 -0.277226 0.125031
v -0.539982 -0.30365 0.125031
v -0.53619 -0.310685 0.132031
v -0.537315 -0.302956 0.136335
v -0.537171 -0.2909 0.148106
v -0.53602 -0.286408 0.155366
v -0.536975 -0.279835 0.157829
v -0.524647 -0.276565 0.192468
v -0.550897 -0.267911 0.125031
v -0.526399 -0.280265 0.185157
v -0.500005 -0.285681 0.249976
v -0.50126 -0.291726 0.241186
v -0.490919 -0.304112 0.256484
v -0.48918 -0.300446 0.263666
v -0.489494 -0.297804 0.26478
v -0.463897 -0.36099 0.26478
v -0.46544 -0.359768 0.263406
v -0.476656 -0.334368 0.262473
v -0.478761 -0.363401 0.232449
v -0.478604 -0.351345 0.24422
v -0.489363 -0.324756 0.241186
v -0.488187 -0.369115 0.202399
v -0.500684 -0.37047 0.168226
v -0.501926 -0.374698 0.160111
v -0.513169 -0.371791 0.134028
v -0.501783 -0.38454 0.148832
v -0.494972 -0.398876 0.148832
v -0.490553 -0.398843 0.160422
v -0.476303 -0.452483 0.13102
v -0.466028 -0.422162 0.195528
v -0.453557 -0.430948 0.217177
v -0.445098 -0.447166 0.2185
v -0.445098 -0.4361 0.232164
v -0.449674 -0.51894 0.0774019
v -0.445098 -0.52472 0.0892508
v -0.455151 -0.504836 0.101229
v -0.478107 -0.479502 0.0178723
v -0.488357 -0.464638 -9.55531e-05
v -0.559879 -0.263056 0.0500743
v -0.563918 -0.267911 -9.55531e-05
v -0.563304 -0.267911 0.0059715
v -0.571696 -0.203172 0.0731239
v -0.562232 -0.220282 0.125031
v -0.552152 -0.267911 0.11313
v -0.57235 -0.201653 0.0702718
v -0.565055 -0.201653 0.131746
v -0.564912 -0.208391 0.125031
v -0.559761 -0.274418 0.0251579
v -0.550401 -0.279835 0.101229
v -0.549015 -0.280463 0.112897
v -0.547878 -0.286276 0.108748
v -0.537354 -0.316201 0.112508
v -0.525327 -0.351808 0.112145
v -0.53687 -0.3127 0.125031
v -0.523967 -0.345499 0.131176
v -0.524673 -0.347613 0.125031
v -0.525052 -0.288984 0.181605
v -0.512555 -0.287333 0.215777
v -0.500514 -0.346457 0.191587
v -0.500162 -0.29787 0.238282
v -0.489272 -0.312601 0.252854
v -0.48884 -0.299554 0.26478
v -0.465008 -0.358381 0.26478
v -0.46642 -0.355012 0.26478
v -0.474107 -0.336515 0.26478
v -0.475807 -0.332386 0.26478
v -0.477794 -0.327465 0.26478
v -0.478016 -0.327465 0.264469
v -0.501966 -0.362807 0.172375
v -0.514869 -0.363798 0.13758
v -0.514411 -0.37549 0.125109
v -0.512607 -0.382361 0.121194
v -0.501129 -0.407133 0.122049
v -0.501613 -0.396101 0.134909
v -0.489507 -0.431443 0.122594
v -0.477441 -0.454696 0.125031
v -0.465322 -0.4543 0.157259
v -0.452824 -0.453144 0.191431
v -0.453191 -0.442079 0.204291
v -0.445098 -0.458363 0.20424
v -0.445098 -0.521847 0.101229
v -0.473767 -0.471806 0.101229
v -0.453844 -0.502491 0.11313
v -0.47663 -0.464969 0.1088
v -0.477741 -0.466951 0.0893027
v -0.477127 -0.465828 0.101229
v -0.488291 -0.464539 0.00101933
v -0.490461 -0.459222 0.00537517
v -0.491207 -0.458825 -9.55531e-05
v -0.478369 -0.468041 0.0774019
v -0.560754 -0.268407 0.0293841
v -0.561003 -0.279604 -9.55531e-05
v -0.560754 -0.278184 0.0059715
v -0.56014 -0.275872 0.0178723
v -0.571945 -0.201653 0.0741351
v -0.565931 -0.201653 0.125031
v -0.551643 -0.279835 0.0893027
v -0.55176 -0.291726 0.0536004
v -0.54827 -0.287432 0.101229
v -0.536269 -0.322873 0.101229
v -0.526647 -0.351279 0.101229
v -0.524882 -0.360131 0.0893027
v -0.523928 -0.357324 0.10753
v -0.516712 -0.375061 0.11313
v -0.513078 -0.36023 0.145721
v -0.513221 -0.383748 0.11313
v -0.501966 -0.408983 0.11313
v -0.490161 -0.435077 0.112326
v -0.478787 -0.45899 0.112923
v -0.475441 -0.46335 0.11676
v -0.474107 -0.460642 0.125031
v -0.466107 -0.467248 0.136906
v -0.464773 -0.465002 0.143906
v -0.466656 -0.45833 0.148262
v -0.454145 -0.455687 0.184535
v -0.453792 -0.466554 0.170145
v -0.445098 -0.464011 0.196202
v -0.445098 -0.516793 0.113415
v -0.45272 -0.500476 0.119742
v -0.465427 -0.478016 0.121816
v -0.466721 -0.480328 0.11313
v -0.488291 -0.440758 0.107815
v -0.480709 -0.458396 0.101229
v -0.488579 -0.453276 0.0514225
v -0.489089 -0.454333 0.0416997
v -0.489716 -0.455621 0.029773
v -0.490331 -0.456876 0.0178723
v -0.502345 -0.434548 -9.55531e-05
v -0.551447 -0.30365 0.0178723
v -0.550989 -0.310355 -9.55531e-05
v -0.550531 -0.291726 0.0655012
v -0.549355 -0.302527 0.0416997
v -0.536217 -0.334632 0.0634788
v -0.525876 -0.36426 0.0663049
v -0.536112 -0.346226 0.0267395
v -0.524242 -0.369974 0.0628566
v -0.524726 -0.371163 0.0536004
v -0.526268 -0.376184 0.0187797
v -0.524255 -0.381799 0.0153832
v -0.524752 -0.382922 0.0059715
v -0.501783 -0.42051 0.0655012
v -0.500541 -0.417736 0.0893027
v -0.489272 -0.442971 0.0893027
v -0.488644 -0.441583 0.101229
v -0.452929 -0.477025 0.155988
v -0.448236 -0.5051 0.124227
v -0.445098 -0.505662 0.131513
v -0.445098 -0.487099 0.160526
v -0.445098 -0.470551 0.186168
v -0.445098 -0.515108 0.116241
v -0.445098 -0.510022 0.124642
v -0.490514 -0.445745 0.0655012
v -0.490775 -0.447661 0.0546894
v -0.525065 -0.383616 -9.55531e-05
v -0.549381 -0.315276 -9.55531e-05
v -0.549198 -0.313955 0.0059715
v -0.537354 -0.350751 -9.55531e-05
v -0.527562 -0.36317 0.0536004
v -0.528007 -0.375061 0.0059715
v -0.525967 -0.374136 0.029773
v -0.52666 -0.379751 -9.55531e-05
v -0.528504 -0.375061 -9.55531e-05
f 1 2 6
f 1 6 11
f 1 11 24
f 1 24 44
f 1 44 48
f 1 48 83
f 1 83 130
f 1 130 180
f 1 180 181
f 1 181 131
f 1 131 84
f 1 84 49
f 1 49 27
f 1 27 14
f 1 14 7
f 1 7 3
f 1 3 8
f 1 8 18
f 1 18 33
f 1 33 56
f 1 56 58
f 1 58 100
f 1 100 147
f 1 147 152
f 1 152 151
f 1 151 150
f 1 150 149
f 1 149 148
f 1 148 101
f 1 101 59
f 1 59 35
f 1 35 34
f 1 34 19
f 1 19 9
f 1 9 4
f 1 4 5
f 1 5 2
f 2 5 10
f 2 10 23
f 2 23 43
f 2 43 78
f 2 78 123
f 2 123 174
f 2 174 213
f 2 213 239
f 2 239 246
f 2 246 247
f 2 247 242
f 2 242 240
f 2 240 215
f 2 215 177
f 2 177 125
f 2 125 79
f 2 79 45
f 2 45 25
f 2 25 12
f 2 12 6
f 3 7 8
f 4 9 21
f 4 21 40
f 4 40 71
f 4 71 70
f 4 70 69
f 4 69 118
f 4 118 117
f 4 117 165
f 4 165 202
f 4 202 234
f 4 234 233
f 4 233 232
f 4 232 236
f 4 236 235
f 4 235 203
f 4 203 166
f 4 166 120
f 4 120 76
f 4 76 75
f 4 75 41
f 4 41 22
f 4 22 10
f 4 10 5
f 6 12 13
f 6 13 11
f 7 14 15
f 7 15 16
f 7 16 8
f 8 17 18
f 8 16 15
f 8 15 17
f 9 19 20
f 9 20 21
f 10 22 23
f 11 13 24
f 12 25 13
f 13 25 26
f 13 26 24
f 14 27 15
f 15 27 28
f 15 28 29
f 15 29 30
f 15 30 31
f 15 31 17
f 17 31 18
f 18 31 32
f 18 32 33
f 19 34 20
f 20 34 35
f 20 35 36
f 20 36 37
f 20 37 38
f 20 38 39
f 20 39 40
f 20 40 21
f 22 41 23
f 23 41 42
f 23 42 43
f 24 26 44
f 25 45 26
f 26 45 46
f 26 46 47
f 26 47 48
f 26 48 44
f 27 49 50
f 27 50 51
f 27 51 28
f 28 30 29
f 28 51 52
f 28 52 53
f 28 53 30
f 30 53 54
f 30 54 31
f 31 54 55
f 31 55 32
f 32 56 33
f 32 55 57
f 32 57 58
f 32 58 56
f 35 59 60
f 35 60 36
f 36 60 37
f 37 61 62
f 37 62 63
f 37 63 64
f 37 64 65
f 37 65 66
f 37 66 67
f 37 67 68
f 37 68 69
f 37 69 70
f 37 70 71
f 37 71 72
f 37 72 39
f 37 39 38
f 37 60 73
f 37 73 74
f 37 74 61
f 39 72 40
f 40 72 71
f 41 75 42
f 42 75 76
f 42 76 77
f 42 77 43
f 43 77 78
f 45 79 46
f 46 80 47
f 46 79 80
f 47 81 48
f 47 80 82
f 47 82 81
f 48 81 83
f 49 84 50
f 50 84 85
f 50 85 52
f 50 52 51
f 52 86 87
f 52 87 88
f 52 88 89
f 52 89 90
f 52 90 91
f 52 91 92
f 52 92 93
f 52 93 54
f 52 54 53
f 52 85 94
f 52 94 86
f 54 93 55
f 55 93 95
f 55 95 96
f 55 96 57
f 57 96 97
f 57 97 98
f 57 98 99
f 57 99 100
f 57 100 58
f 59 101 60
f 60 101 102
f 60 102 103
f 60 103 73
f 61 104 62
f 61 74 105
f 61 105 106
f 61 106 104
f 62 107 108
f 62 108 63
f 62 104 107
f 63 108 109
f 63 109 64
f 64 109 110
f 64 110 111
f 64 111 112
f 64 112 113
f 64 113 66
f 64 66 65
f 66 113 114
f 66 114 115
f 66 115 116
f 66 116 67
f 67 116 117
f 67 117 118
f 67 118 68
f 68 118 69
f 73 103 74
f 74 103 99
f 74 99 98
f 74 98 105
f 76 119 77
f 76 120 121
f 76 121 119
f 77 119 121
f 77 121 122
f 77 122 123
f 77 123 78
f 79 124 80
f 79 125 126
f 79 126 124
f 80 124 82
f 81 127 83
f 81 82 128
f 81 128 127
f 82 124 129
f 82 129 94
f 82 94 85
f 82 85 128
f 83 127 130
f 84 131 85
f 85 131 132
f 85 132 128
f 86 133 134
f 86 134 135
f 86 135 136
f 86 136 87
f 86 94 129
f 86 129 133
f 87 136 137
f 87 137 138
f 87 138 139
f 87 139 88
f 88 140 91
f 88 91 90
f 88 90 89
f 88 139 141
f 88 141 140
f 91 142 97
f 91 97 143
f 91 143 96
f 91 96 95
f 91 95 92
f 91 140 144
f 91 144 106
f 91 106 142
f 92 95 93
f 96 143 97
f 97 145 146
f 97 146 98
f 97 142 145
f 98 146 105
f 99 147 100
f 99 103 147
f 101 148 102
f 102 148 149
f 102 149 150
f 102 150 103
f 103 150 151
f 103 151 152
f 103 152 153
f 103 153 147
f 104 106 144
f 104 144 154
f 104 154 107
f 105 146 106
f 106 146 145
f 106 145 142
f 107 154 155
f 107 155 108
f 108 110 109
f 108 155 110
f 110 156 157
f 110 157 158
f 110 158 159
f 110 159 111
f 110 155 140
f 110 140 156
f 111 159 112
f 112 159 114
f 112 114 113
f 114 160 161
f 114 161 162
f 114 162 163
f 114 163 164
f 114 164 116
f 114 116 115
f 114 159 160
f 116 164 117
f 117 163 165
f 117 164 163
f 120 166 121
f 121 167 123
f 121 123 122
f 121 166 168
f 121 168 169
f 121 169 167
f 123 170 171
f 123 171 172
f 123 172 173
f 123 173 174
f 123 167 175
f 123 175 170
f 124 126 176
f 124 176 133
f 124 133 129
f 125 177 178
f 125 178 179
f 125 179 133
f 125 133 126
f 126 133 176
f 127 180 130
f 127 128 180
f 128 132 180
f 131 181 132
f 132 181 180
f 133 179 134
f 134 182 136
f 134 136 135
f 134 179 182
f 136 182 177
f 136 177 183
f 136 183 184
f 136 184 137
f 137 184 185
f 137 185 186
f 137 186 138
f 138 141 139
f 138 186 187
f 138 187 188
f 138 188 189
f 138 189 141
f 140 141 156
f 140 155 190
f 140 190 154
f 140 154 144
f 141 189 157
f 141 157 156
f 147 153 152
f 154 190 155
f 157 189 191
f 157 191 192
f 157 192 158
f 158 192 193
f 158 193 194
f 158 194 160
f 158 160 159
f 160 194 161
f 161 194 195
f 161 195 196
f 161 196 197
f 161 197 198
f 161 198 199
f 161 199 162
f 162 199 200
f 162 200 163
f 163 200 165
f 165 200 198
f 165 198 201
f 165 201 202
f 166 203 168
f 167 169 171
f 167 171 170
f 167 170 175
f 168 203 204
f 168 204 205
f 168 205 206
f 168 206 169
f 169 195 194
f 169 194 207
f 169 207 208
f 169 208 171
f 169 206 195
f 171 208 209
f 171 209 210
f 171 210 211
f 171 211 172
f 172 211 212
f 172 212 173
f 173 212 174
f 174 212 213
f 177 214 183
f 177 182 179
f 177 179 178
f 177 215 214
f 183 214 216
f 183 216 184
f 184 216 217
f 184 217 185
f 185 217 218
f 185 218 186
f 186 219 187
f 186 218 220
f 186 220 219
f 187 219 221
f 187 221 188
f 188 221 189
f 189 221 191
f 191 221 222
f 191 222 223
f 191 223 224
f 191 224 225
f 191 225 192
f 192 225 226
f 192 226 227
f 192 227 228
f 192 228 229
f 192 229 207
f 192 207 193
f 193 207 194
f 195 206 205
f 195 205 196
f 196 205 197
f 197 205 198
f 198 205 201
f 198 200 199
f 201 205 230
f 201 230 231
f 201 231 232
f 201 232 233
f 201 233 234
f 201 234 202
f 203 235 204
f 204 235 236
f 204 236 231
f 204 231 205
f 205 231 230
f 207 229 208
f 208 229 209
f 209 237 238
f 209 238 213
f 209 213 210
f 209 229 228
f 209 228 237
f 210 213 211
f 211 213 212
f 213 238 237
f 213 237 226
f 213 226 225
f 213 225 239
f 214 217 216
f 214 215 240
f 214 240 217
f 217 240 241
f 217 241 220
f 217 220 218
f 219 242 243
f 219 243 221
f 219 220 242
f 220 241 240
f 220 240 242
f 221 243 242
f 221 242 222
f 222 242 244
f 222 244 245
f 222 245 223
f 223 244 225
f 223 225 224
f 223 245 244
f 225 244 239
f 226 237 228
f 226 228 227
f 231 236 232
f 239 244 246
f 242 247 244
f 244 247 246
