v 0.546426 0.322255 -9.55442e-05
v 0.5331 0.322255 -9.55442e-05
v 0.549381 0.315199 -9.55442e-05
v 0.542824 0.322255 -0.037107
v 0.513038 0.322255 -0.144314
v 0.513022 0.322231 -0.144357
v 0.5829 0.0771174 -0.00544744
v 0.583006 0.0771174 -0.00491084
v 0.583276 0.080885 -9.55442e-05
v 0.548088 0.310664 -0.0273493
v 0.537717 0.322255 -0.0892986
v 0.559432 0.284434 -9.55442e-05
v 0.55146 0.303608 -0.017874
v 0.513112 0.322255 -0.144357
v 0.5663 0.0771174 -0.144357
v 0.584127 0.0771174 -9.55442e-05
v 0.551779 0.291705 -0.0535863
v 0.535916 0.321775 -0.108108
v 0.536473 0.322255 -0.101203
v 0.548898 0.289234 -0.0892986
v 0.560996 0.279539 -9.55442e-05
v 0.527215 0.322255 -0.144357
v 0.578725 0.0771174 -0.144357
v 0.596634 0.0771174 -9.55442e-05
v 0.547883 0.286234 -0.108729
v 0.537357 0.316159 -0.1125
v 0.536882 0.31268 -0.125011
v 0.535646 0.322255 -0.10856
v 0.536072 0.322255 -0.10503
v 0.5626 0.273107 -9.55442e-05
v 0.560758 0.278171 -0.00595581
v 0.527543 0.322255 -0.143481
v 0.536203 0.310664 -0.132001
v 0.536284 0.297369 -0.144357
v 0.583841 0.0771174 -0.122992
v 0.578447 0.0848447 -0.144357
v 0.596618 0.0775254 -9.55442e-05
v 0.595955 0.0771174 -0.0066901
v 0.550412 0.279803 -0.101203
v 0.549029 0.280427 -0.112867
v 0.548603 0.277187 -0.125011
v 0.539984 0.303608 -0.125011
v 0.53283 0.322255 -0.125011
v 0.563893 0.2679 -9.55442e-05
v 0.563304 0.2679 -0.00595581
v 0.55976 0.274379 -0.0251464
v 0.529777 0.322255 -0.137282
v 0.548096 0.275267 -0.132015
v 0.537324 0.302936 -0.13635
v 0.538413 0.291154 -0.144357
v 0.584905 0.0771174 -0.11281
v 0.578152 0.0893082 -0.144357
v 0.57735 0.101211 -0.144357
v 0.583612 0.0870765 -0.120746
v 0.59607 0.0893082 -9.55442e-05
v 0.584135 0.0903642 -0.114236
v 0.552156 0.2679 -0.113107
v 0.550903 0.2679 -0.125011
v 0.572602 0.231327 -9.55442e-05
v 0.574624 0.220264 -0.00595581
v 0.562068 0.2679 -0.017874
v 0.548832 0.253981 -0.144357
v 0.541859 0.279683 -0.144357
v 0.539632 0.287218 -0.144357
v 0.559809 0.227031 -0.131605
v 0.562117 0.209417 -0.138002
v 0.560775 0.206585 -0.144357
v 0.575975 0.113138 -0.144357
v 0.576531 0.125041 -0.136929
v 0.5778 0.113138 -0.136929
v 0.583342 0.0950197 -0.118953
v 0.595488 0.0963636 -0.00146529
v 0.595709 0.0950677 -9.55442e-05
v 0.560218 0.228735 -0.125011
v 0.56242 0.255997 -0.0416822
v 0.571817 0.191755 -0.0980396
v 0.57523 0.220264 -9.55442e-05
v 0.576212 0.208361 -0.017874
v 0.562224 0.220264 -0.125011
v 0.564908 0.208361 -0.125011
v 0.565178 0.196482 -0.136929
v 0.563009 0.196362 -0.144357
v 0.573118 0.135264 -0.144357
v 0.572095 0.143135 -0.144357
v 0.571915 0.145487 -0.143891
v 0.574943 0.136944 -0.136929
v 0.571718 0.168069 -0.131775
v 0.583833 0.0981394 -0.111017
v 0.576875 0.136944 -0.125011
v 0.595538 0.0970355 -9.55442e-05
v 0.575312 0.196482 -0.0535863
v 0.576499 0.196482 -0.0416822
v 0.58371 0.180956 -9.55442e-05
v 0.576359 0.184579 -0.0654904
v 0.572496 0.185275 -0.101683
v 0.571907 0.18122 -0.113107
v 0.571571 0.17894 -0.119518
v 0.565056 0.184579 -0.144357
v 0.565809 0.180212 -0.144357
v 0.572995 0.149207 -0.137621
v 0.57356 0.16075 -0.125011
v 0.575238 0.148847 -0.125011
v 0.572038 0.172293 -0.124093
v 0.583693 0.10901 -0.0977289
v 0.587712 0.113138 -0.0535863
v 0.588515 0.125041 -0.0297781
v 0.587639 0.148847 -0.00595581
v 0.586566 0.16075 -9.55442e-05
v 0.584095 0.178268 -9.55442e-05
v 0.583644 0.180068 -0.00201601
v 0.584234 0.172988 -0.00596993
v 0.583792 0.169221 -0.0153322
v 0.585232 0.113138 -0.0773945
v 0.585961 0.16075 -0.00595581
v 0.585691 0.166965 -9.55442e-05
v 0.584864 0.17282 -9.55442e-05
f 1 2 9
f 1 9 16
f 1 16 24
f 1 24 37
f 1 37 55
f 1 55 73
f 1 73 90
f 1 90 108
f 1 108 115
f 1 115 116
f 1 116 109
f 1 109 93
f 1 93 77
f 1 77 59
f 1 59 44
f 1 44 30
f 1 30 21
f 1 21 12
f 1 12 3
f 1 3 4
f 1 4 11
f 1 11 19
f 1 19 29
f 1 29 28
f 1 28 43
f 1 43 47
f 1 47 32
f 1 32 22
f 1 22 14
f 1 14 5
f 1 5 2
f 2 5 6
f 2 6 7
f 2 7 8
f 2 8 9
f 3 10 11
f 3 11 4
f 3 12 13
f 3 13 10
f 5 14 6
f 6 14 22
f 6 22 34
f 6 34 50
f 6 50 64
f 6 64 63
f 6 63 62
f 6 62 67
f 6 67 82
f 6 82 98
f 6 98 99
f 6 99 84
f 6 84 83
f 6 83 68
f 6 68 53
f 6 53 52
f 6 52 36
f 6 36 23
f 6 23 15
f 6 15 7
f 7 15 23
f 7 23 35
f 7 35 51
f 7 51 38
f 7 38 24
f 7 24 16
f 7 16 8
f 8 16 9
f 10 13 17
f 10 17 11
f 11 18 19
f 11 17 20
f 11 20 18
f 12 21 17
f 12 17 13
f 17 21 25
f 17 25 20
f 18 26 27
f 18 27 28
f 18 28 29
f 18 29 19
f 18 20 25
f 18 25 26
f 21 30 31
f 21 31 25
f 22 32 33
f 22 33 34
f 23 36 35
f 24 38 37
f 25 31 39
f 25 39 40
f 25 40 41
f 25 41 42
f 25 42 26
f 26 42 27
f 27 33 43
f 27 43 28
f 27 42 33
f 30 44 31
f 31 44 45
f 31 45 46
f 31 46 39
f 32 47 33
f 33 47 43
f 33 42 48
f 33 48 49
f 33 49 34
f 34 49 50
f 35 36 52
f 35 52 53
f 35 53 54
f 35 54 51
f 37 38 55
f 38 51 56
f 38 56 55
f 39 46 41
f 39 41 40
f 41 46 57
f 41 57 58
f 41 58 48
f 41 48 42
f 44 59 45
f 45 59 60
f 45 60 61
f 45 61 46
f 46 61 57
f 48 62 63
f 48 63 64
f 48 64 50
f 48 50 49
f 48 58 65
f 48 65 66
f 48 66 67
f 48 67 62
f 51 54 56
f 53 68 69
f 53 69 70
f 53 70 71
f 53 71 54
f 54 71 56
f 55 56 72
f 55 72 73
f 56 71 72
f 57 74 58
f 57 61 75
f 57 75 76
f 57 76 74
f 58 74 65
f 59 77 60
f 60 77 78
f 60 78 75
f 60 75 61
f 65 74 79
f 65 79 80
f 65 80 81
f 65 81 66
f 66 81 82
f 66 82 67
f 68 83 69
f 69 71 70
f 69 83 84
f 69 84 85
f 69 85 86
f 69 86 87
f 69 87 71
f 71 88 72
f 71 87 89
f 71 89 88
f 72 90 73
f 72 88 90
f 74 76 79
f 75 78 76
f 76 91 92
f 76 92 93
f 76 93 94
f 76 94 95
f 76 95 96
f 76 96 97
f 76 97 80
f 76 80 79
f 76 78 91
f 77 93 78
f 78 93 92
f 78 92 91
f 80 97 87
f 80 87 81
f 81 87 82
f 82 87 98
f 84 99 85
f 85 87 100
f 85 100 86
f 85 99 87
f 86 100 87
f 87 101 102
f 87 102 89
f 87 99 98
f 87 97 103
f 87 103 101
f 88 104 105
f 88 105 90
f 88 89 102
f 88 102 103
f 88 103 104
f 90 105 106
f 90 106 107
f 90 107 108
f 93 109 110
f 93 110 95
f 93 95 94
f 95 110 96
f 96 110 97
f 97 110 103
f 101 103 102
f 103 110 111
f 103 111 112
f 103 112 106
f 103 106 105
f 103 105 113
f 103 113 104
f 104 113 105
f 106 112 107
f 107 112 114
f 107 114 115
f 107 115 108
f 109 116 110
f 110 116 115
f 110 115 111
f 111 115 114
f 111 114 112
