v 0.565946 -0.18423 -0.140709
v 0.557427 -0.18423 -0.140709
v 0.565923 -0.184469 -0.140709
v 0.564048 -0.18423 -0.148847
v 0.550252 -0.18423 -0.149245
v 0.553077 -0.18429 -0.140709
v 0.565912 -0.184559 -0.140709
v 0.564805 -0.19271 -0.140709
v 0.564003 -0.184559 -0.148847
v 0.563935 -0.18423 -0.149179
v 0.450528 -0.18423 -0.344134
v 0.450528 -0.464041 -0.140709
v 0.56407 -0.196425 -0.140709
v 0.561607 -0.196306 -0.149134
v 0.560048 -0.19223 -0.155923
v 0.560726 -0.184559 -0.157715
v 0.560748 -0.18423 -0.157803
v 0.450528 -0.18423 -0.365275
v 0.450528 -0.49032 -0.140709
v 0.561991 -0.206254 -0.140709
v 0.560568 -0.206164 -0.145375
v 0.524084 -0.191271 -0.250549
v 0.549992 -0.185159 -0.185512
v 0.524671 -0.18423 -0.252074
v 0.450562 -0.18423 -0.366602
v 0.450528 -0.184559 -0.36658
v 0.450528 -0.480731 -0.156322
v 0.454301 -0.479323 -0.148847
v 0.45568 -0.481959 -0.140709
v 0.561539 -0.208231 -0.140709
v 0.549721 -0.255696 -0.140709
v 0.548613 -0.253598 -0.145242
v 0.536117 -0.251291 -0.17943
v 0.52501 -0.256025 -0.205326
v 0.513417 -0.207452 -0.267687
v 0.512107 -0.202868 -0.274056
v 0.515982 -0.196485 -0.267886
v 0.512909 -0.196485 -0.275493
v 0.514129 -0.184559 -0.277682
v 0.502356 -0.268101 -0.256519
v 0.51414 -0.18423 -0.277771
v 0.454878 -0.18423 -0.360874
v 0.454979 -0.184559 -0.360653
v 0.450528 -0.196485 -0.362909
v 0.450528 -0.479442 -0.158334
v 0.453793 -0.466558 -0.170165
v 0.452934 -0.477015 -0.156012
v 0.465386 -0.466018 -0.140709
v 0.464188 -0.467996 -0.140709
v 0.543201 -0.279608 -0.140709
v 0.536976 -0.279817 -0.157869
v 0.538512 -0.26867 -0.161673
v 0.509225 -0.196485 -0.281464
v 0.500672 -0.264266 -0.263242
v 0.4997 -0.249343 -0.273436
v 0.500977 -0.241402 -0.275161
v 0.510412 -0.184559 -0.283653
v 0.512152 -0.274454 -0.226666
v 0.501192 -0.27775 -0.252915
v 0.510434 -0.18423 -0.283697
v 0.465284 -0.18423 -0.346545
v 0.464595 -0.191301 -0.345594
v 0.453567 -0.196485 -0.358729
v 0.450528 -0.198942 -0.361936
v 0.450528 -0.469854 -0.17304
v 0.450528 -0.462183 -0.184627
v 0.450528 -0.461044 -0.186286
v 0.450528 -0.456969 -0.192057
v 0.454143 -0.45568 -0.184561
v 0.464764 -0.464999 -0.143916
v 0.469883 -0.457658 -0.140709
v 0.537168 -0.290904 -0.148139
v 0.536026 -0.28638 -0.155371
v 0.539586 -0.291444 -0.140709
v 0.5264 -0.280237 -0.18518
v 0.524648 -0.276551 -0.192478
v 0.503294 -0.196485 -0.290154
v 0.490334 -0.290754 -0.267731
v 0.498774 -0.256025 -0.271535
v 0.495509 -0.291743 -0.255989
v 0.488345 -0.28614 -0.274056
v 0.489385 -0.279817 -0.275493
v 0.491226 -0.267921 -0.278036
v 0.500491 -0.215693 -0.286284
v 0.501553 -0.208381 -0.287766
v 0.499746 -0.189593 -0.29743
v 0.503926 -0.185219 -0.292764
v 0.504209 -0.18423 -0.292609
v 0.510344 -0.18423 -0.28383
v 0.499994 -0.28569 -0.249996
v 0.490006 -0.18423 -0.312423
v 0.490108 -0.184559 -0.312224
v 0.489102 -0.193699 -0.310831
v 0.452629 -0.202988 -0.357425
v 0.450528 -0.256025 -0.33896
v 0.450528 -0.45565 -0.193893
v 0.466662 -0.458317 -0.148272
v 0.452821 -0.453163 -0.19146
v 0.465318 -0.454302 -0.157272
v 0.474402 -0.448609 -0.140709
v 0.525055 -0.288986 -0.18162
v 0.537258 -0.298515 -0.140709
v 0.536117 -0.298545 -0.143695
v 0.512559 -0.287338 -0.215808
v 0.479272 -0.220307 -0.313706
v 0.489181 -0.300433 -0.263662
v 0.490921 -0.304089 -0.256497
v 0.476651 -0.334353 -0.26249
v 0.467205 -0.351253 -0.265851
v 0.477103 -0.31158 -0.274984
v 0.482108 -0.291444 -0.279628
v 0.477532 -0.288777 -0.287479
v 0.453013 -0.287099 -0.322242
v 0.454256 -0.279817 -0.323944
v 0.485068 -0.279817 -0.281464
v 0.465126 -0.276192 -0.31061
v 0.466369 -0.267921 -0.312312
v 0.478379 -0.256025 -0.300548
v 0.503034 -0.18423 -0.29429
v 0.50126 -0.291743 -0.241194
v 0.497734 -0.18423 -0.301676
v 0.455262 -0.244099 -0.337235
v 0.452595 -0.262378 -0.333542
v 0.450528 -0.264355 -0.335554
v 0.450528 -0.444953 -0.207117
v 0.452313 -0.416606 -0.23801
v 0.453194 -0.442076 -0.204331
v 0.477057 -0.443095 -0.140709
v 0.500424 -0.334323 -0.203269
v 0.500243 -0.310022 -0.226643
v 0.536603 -0.300343 -0.140709
v 0.525315 -0.325424 -0.146591
v 0.477035 -0.347388 -0.251676
v 0.489272 -0.312599 -0.25287
v 0.478605 -0.351313 -0.244224
v 0.46586 -0.375045 -0.252539
v 0.463589 -0.367674 -0.261075
v 0.465431 -0.359733 -0.263397
v 0.45446 -0.363149 -0.276599
v 0.450946 -0.317843 -0.30747
v 0.452595 -0.309902 -0.309747
v 0.450528 -0.289196 -0.324453
v 0.450528 -0.281345 -0.328301
v 0.450528 -0.279817 -0.329008
v 0.450528 -0.269569 -0.333387
v 0.450528 -0.423708 -0.233256
v 0.453929 -0.419813 -0.230071
v 0.450528 -0.412591 -0.245153
v 0.452268 -0.40462 -0.249863
v 0.464493 -0.381248 -0.250261
v 0.489486 -0.383735 -0.181996
v 0.489701 -0.416486 -0.140709
v 0.489882 -0.410284 -0.147962
v 0.501779 -0.384544 -0.148847
v 0.512909 -0.335941 -0.169103
v 0.50196 -0.36279 -0.172398
v 0.478764 -0.363359 -0.232459
v 0.477125 -0.359523 -0.240354
v 0.514174 -0.3624 -0.140709
v 0.513078 -0.360213 -0.145729
v 0.461827 -0.375045 -0.258465
v 0.452968 -0.370101 -0.274542
v 0.450528 -0.363149 -0.28184
v 0.450528 -0.349815 -0.289557
v 0.450528 -0.317603 -0.308155
v 0.450528 -0.31164 -0.311583
v 0.465691 -0.383765 -0.244113
v 0.450528 -0.401025 -0.254971
v 0.450528 -0.385982 -0.26647
v 0.454471 -0.39668 -0.252915
v 0.453838 -0.383495 -0.263839
v 0.477216 -0.37124 -0.228678
v 0.47873 -0.375165 -0.220208
v 0.500457 -0.381757 -0.155747
v 0.47699 -0.382476 -0.216184
v 0.500491 -0.393773 -0.140709
v 0.501926 -0.374686 -0.160125
v 0.511508 -0.368723 -0.140709
v 0.503406 -0.387271 -0.140709
v 0.500683 -0.370461 -0.168241
v 0.488176 -0.369082 -0.202429
v 0.450528 -0.372019 -0.276554
v 0.450528 -0.364378 -0.28111
v 0.450957 -0.378042 -0.271778
v 0.450528 -0.377772 -0.272552
f 1 2 6
f 1 6 12
f 1 12 19
f 1 19 29
f 1 29 49
f 1 49 48
f 1 48 71
f 1 71 100
f 1 100 128
f 1 128 152
f 1 152 176
f 1 176 179
f 1 179 178
f 1 178 159
f 1 159 131
f 1 131 102
f 1 102 74
f 1 74 50
f 1 50 31
f 1 31 30
f 1 30 20
f 1 20 13
f 1 13 8
f 1 8 7
f 1 7 3
f 1 3 4
f 1 4 10
f 1 10 17
f 1 17 24
f 1 24 41
f 1 41 60
f 1 60 89
f 1 89 88
f 1 88 119
f 1 119 121
f 1 121 91
f 1 91 61
f 1 61 42
f 1 42 25
f 1 25 18
f 1 18 11
f 1 11 5
f 1 5 2
f 2 5 6
f 3 7 4
f 4 7 8
f 4 8 9
f 4 9 10
f 5 11 6
f 6 11 12
f 8 13 14
f 8 14 9
f 9 14 15
f 9 15 16
f 9 16 17
f 9 17 10
f 11 18 26
f 11 26 44
f 11 44 64
f 11 64 95
f 11 95 124
f 11 124 145
f 11 145 144
f 11 144 143
f 11 143 142
f 11 142 166
f 11 166 165
f 11 165 164
f 11 164 163
f 11 163 183
f 11 183 182
f 11 182 185
f 11 185 169
f 11 169 168
f 11 168 148
f 11 148 146
f 11 146 125
f 11 125 96
f 11 96 68
f 11 68 67
f 11 67 66
f 11 66 65
f 11 65 45
f 11 45 27
f 11 27 19
f 11 19 12
f 13 20 14
f 14 20 21
f 14 21 15
f 15 22 16
f 15 21 22
f 16 22 17
f 17 22 23
f 17 23 24
f 18 25 26
f 19 27 28
f 19 28 29
f 20 30 21
f 21 30 31
f 21 31 32
f 21 32 33
f 21 33 34
f 21 34 22
f 22 35 36
f 22 36 37
f 22 37 38
f 22 38 39
f 22 39 24
f 22 24 23
f 22 34 40
f 22 40 35
f 24 39 41
f 25 42 26
f 26 42 43
f 26 43 44
f 27 45 46
f 27 46 47
f 27 47 28
f 28 47 46
f 28 46 48
f 28 48 49
f 28 49 29
f 31 50 51
f 31 51 32
f 32 51 52
f 32 52 33
f 33 52 34
f 34 52 40
f 35 40 36
f 36 53 38
f 36 38 37
f 36 40 54
f 36 54 55
f 36 55 56
f 36 56 53
f 38 53 39
f 39 57 41
f 39 53 57
f 40 52 58
f 40 58 59
f 40 59 54
f 41 57 60
f 42 61 43
f 43 62 44
f 43 61 62
f 44 62 63
f 44 63 64
f 45 65 46
f 46 65 66
f 46 66 67
f 46 67 68
f 46 68 69
f 46 69 70
f 46 70 48
f 48 70 71
f 50 72 73
f 50 73 51
f 50 74 72
f 51 73 75
f 51 75 59
f 51 59 76
f 51 76 52
f 52 76 58
f 53 77 57
f 53 56 77
f 54 78 79
f 54 79 55
f 54 59 80
f 54 80 78
f 55 79 81
f 55 81 82
f 55 82 56
f 56 82 83
f 56 83 84
f 56 84 85
f 56 85 77
f 57 77 86
f 57 86 87
f 57 87 88
f 57 88 89
f 57 89 60
f 58 76 59
f 59 75 73
f 59 73 90
f 59 90 80
f 61 91 92
f 61 92 62
f 62 92 86
f 62 86 93
f 62 93 77
f 62 77 94
f 62 94 63
f 63 94 64
f 64 94 95
f 68 96 69
f 69 97 70
f 69 96 98
f 69 98 97
f 70 97 71
f 71 97 99
f 71 99 100
f 72 101 73
f 72 74 102
f 72 102 103
f 72 103 101
f 73 101 104
f 73 104 90
f 77 93 86
f 77 85 105
f 77 105 94
f 78 81 79
f 78 80 106
f 78 106 81
f 80 107 106
f 80 90 107
f 81 106 108
f 81 108 109
f 81 109 110
f 81 110 111
f 81 111 112
f 81 112 113
f 81 113 114
f 81 114 115
f 81 115 82
f 82 115 116
f 82 116 83
f 83 116 117
f 83 117 95
f 83 95 118
f 83 118 105
f 83 105 85
f 83 85 84
f 86 92 119
f 86 119 87
f 87 119 88
f 90 104 120
f 90 120 107
f 91 121 92
f 92 121 119
f 94 105 122
f 94 122 95
f 95 122 118
f 95 117 123
f 95 123 124
f 96 125 126
f 96 126 127
f 96 127 98
f 97 98 99
f 98 127 128
f 98 128 100
f 98 100 99
f 101 103 129
f 101 129 130
f 101 130 120
f 101 120 104
f 102 131 103
f 103 131 132
f 103 132 129
f 105 118 122
f 106 107 133
f 106 133 108
f 107 120 134
f 107 134 135
f 107 135 133
f 108 133 136
f 108 136 137
f 108 137 138
f 108 138 109
f 109 138 139
f 109 139 140
f 109 140 110
f 110 140 112
f 110 112 111
f 112 140 141
f 112 141 113
f 113 141 140
f 113 140 142
f 113 142 143
f 113 143 114
f 114 116 115
f 114 143 144
f 114 144 145
f 114 145 116
f 116 145 123
f 116 123 117
f 120 130 134
f 123 145 124
f 125 146 126
f 126 147 127
f 126 146 148
f 126 148 149
f 126 149 150
f 126 150 147
f 127 147 151
f 127 151 128
f 128 151 153
f 128 153 154
f 128 154 152
f 129 155 156
f 129 156 157
f 129 157 158
f 129 158 134
f 129 134 130
f 129 132 155
f 131 159 160
f 131 160 132
f 132 160 156
f 132 156 155
f 133 135 158
f 133 158 150
f 133 150 136
f 134 158 135
f 136 150 137
f 137 150 161
f 137 161 162
f 137 162 138
f 138 162 139
f 139 163 164
f 139 164 140
f 139 162 163
f 140 164 165
f 140 165 166
f 140 166 142
f 147 150 167
f 147 167 151
f 148 168 149
f 149 168 169
f 149 169 170
f 149 170 150
f 150 170 171
f 150 171 161
f 150 158 172
f 150 172 173
f 150 173 174
f 150 174 175
f 150 175 167
f 151 167 175
f 151 175 174
f 151 174 154
f 151 154 153
f 152 154 176
f 154 174 177
f 154 177 178
f 154 178 179
f 154 179 176
f 156 160 180
f 156 180 181
f 156 181 157
f 157 181 172
f 157 172 158
f 159 178 177
f 159 177 180
f 159 180 160
f 161 171 162
f 162 182 183
f 162 183 163
f 162 171 184
f 162 184 182
f 169 185 184
f 169 184 171
f 169 171 170
f 172 181 180
f 172 180 173
f 173 180 177
f 173 177 174
f 182 184 185
