v -0.149813 -0.513863 0.434633
v -0.140335 -0.52081 0.434633
v -0.149813 -0.502285 0.44192
v -0.149813 -0.487596 0.434633
v -0.136878 -0.523333 0.434633
v -0.143778 -0.48884 0.452872
v -0.149813 -0.489946 0.449499
v -0.000174171 -0.529312 0.436911
v -0.0327681 -0.530107 0.434633
v -0.149813 -0.187354 0.550708
v -0.122258 -0.187354 0.554008
v -0.131238 -0.526202 0.434633
v -0.133802 -0.514001 0.44173
v -0.145814 -0.466478 0.465693
v -0.149813 -0.48134 0.454755
v -0.000174171 -0.540303 0.436984
v -0.000174171 -0.187354 0.569195
v -0.0356246 -0.535914 0.434633
v -0.149813 -0.187354 0.56296
v -0.125012 -0.529209 0.434633
v -0.125012 -0.515902 0.442796
v -0.13096 -0.47626 0.464379
v -0.136922 -0.468932 0.467051
v -0.149813 -0.458944 0.467927
v -0.149813 -0.469762 0.461677
v -0.149813 -0.470418 0.461297
v -0.140203 -0.45134 0.475418
v -0.14599 -0.443391 0.477608
v -0.000174171 -0.540303 0.444256
v -0.0059605 -0.540407 0.437189
v -0.0707674 -0.539266 0.434633
v -0.0397263 -0.538679 0.434633
v -0.000174171 -0.187354 0.581753
v -0.0868666 -0.192884 0.572086
v -0.0893716 -0.187354 0.572656
v -0.149813 -0.196928 0.561076
v -0.116941 -0.531905 0.434633
v -0.106906 -0.535015 0.434633
v -0.101208 -0.531179 0.437933
v -0.112619 -0.518667 0.44322
v -0.124177 -0.49475 0.45496
v -0.119636 -0.500246 0.452565
v -0.0963884 -0.464681 0.476469
v -0.125012 -0.460154 0.474016
v -0.132264 -0.452965 0.476528
v -0.136512 -0.457527 0.47314
v -0.149813 -0.447296 0.473666
v -0.136512 -0.44702 0.478441
v -0.149813 -0.435165 0.479623
v -0.149813 -0.435614 0.479404
v -0.145594 -0.418921 0.489188
v -0.149813 -0.38702 0.502549
v -0.149813 -0.411144 0.491086
v -0.0059605 -0.540407 0.444461
v -0.000174171 -0.532043 0.450214
v -0.0059605 -0.532561 0.450404
v -0.0178701 -0.540303 0.437101
v -0.0178701 -0.540303 0.444329
v -0.0760704 -0.539128 0.434633
v -0.00311861 -0.187354 0.58241
v -0.000174171 -0.214486 0.576511
v -0.0654938 -0.196479 0.574612
v -0.0535842 -0.196479 0.576409
v -0.0654938 -0.187354 0.576306
v -0.0805383 -0.187354 0.574043
v -0.145492 -0.204186 0.560039
v -0.109763 -0.227999 0.560039
v -0.0297797 -0.229762 0.572364
v -0.0416746 -0.208403 0.575576
v -0.149813 -0.245177 0.54954
v -0.096447 -0.537193 0.434633
v -0.0535842 -0.537642 0.44173
v -0.0624322 -0.536536 0.441029
v -0.0297797 -0.530695 0.449586
v -0.0892984 -0.526893 0.44227
v -0.0773888 -0.489739 0.465269
v -0.0238762 -0.46437 0.488195
v -0.125012 -0.454174 0.477126
v -0.0599712 -0.452584 0.488254
v -0.122039 -0.429704 0.488662
v -0.136922 -0.421098 0.490152
v -0.144935 -0.394243 0.500695
v -0.148876 -0.3874 0.502681
v -0.147806 -0.373955 0.508785
v -0.149813 -0.369566 0.510026
v -0.000174171 -0.526098 0.453704
v -0.0059605 -0.526617 0.454011
v -0.0178701 -0.532319 0.450287
v -0.0297797 -0.539854 0.443628
v -0.085768 -0.53861 0.434633
v -0.00912468 -0.187354 0.583724
v -0.000174171 -0.220292 0.575255
v -0.0115271 -0.190707 0.583476
v -0.0124793 -0.190707 0.583476
v -0.0150575 -0.187354 0.583783
v -0.125012 -0.256029 0.550898
v -0.060147 -0.262389 0.559718
v -0.0420409 -0.268575 0.56112
v -0.0297797 -0.267919 0.563223
v -0.0184854 -0.233218 0.572904
v -0.0297797 -0.220292 0.574627
v -0.146561 -0.252504 0.548299
v -0.132659 -0.263115 0.547978
v -0.149813 -0.279877 0.540779
v -0.148832 -0.279843 0.540998
v -0.0416746 -0.538886 0.442679
v -0.0358004 -0.523921 0.452478
v -0.0178701 -0.526375 0.453879
v -0.0391843 -0.501041 0.464933
v -0.0119959 -0.488183 0.476294
v -0.0178701 -0.465061 0.488589
v -0.0178701 -0.458391 0.491875
v -0.0286078 -0.45884 0.490181
v -0.0416746 -0.455591 0.489714
v -0.0535842 -0.453656 0.488765
v -0.0645563 -0.446916 0.490079
v -0.0297797 -0.432815 0.501965
v -0.0903091 -0.435718 0.491013
v -0.0888149 -0.411386 0.502199
v -0.124104 -0.399324 0.501994
v -0.136922 -0.395937 0.501469
v -0.143148 -0.369255 0.512056
v -0.149813 -0.36528 0.511778
v -0.000174171 -0.503633 0.466379
v -0.0059605 -0.471144 0.485304
v -0.0118201 -0.488183 0.476294
v -0.000174171 -0.226893 0.573692
v -0.00963739 -0.239163 0.571765
v -0.0178701 -0.220292 0.576029
v -0.0149403 -0.239163 0.571765
v -0.101208 -0.267919 0.551847
v -0.114128 -0.26899 0.549525
v -0.03832 -0.275453 0.560025
v -0.0178701 -0.267919 0.564624
v -0.0297797 -0.278011 0.560711
v -0.0236711 -0.285718 0.559543
v -0.110832 -0.27611 0.548299
v -0.149813 -0.280776 0.540545
v -0.148568 -0.29225 0.537493
v -0.0962566 -0.286237 0.547875
v -0.0059605 -0.465165 0.488662
v -0.0059605 -0.458391 0.492006
v -0.0140907 -0.441144 0.500359
v -0.0179873 -0.435476 0.502418
v -0.0297797 -0.382527 0.52457
v -0.109104 -0.381697 0.512304
v -0.136922 -0.370499 0.512552
v -0.0627984 -0.370361 0.524409
v -0.0662556 -0.36414 0.526074
v -0.136922 -0.363172 0.515151
v -0.148216 -0.327815 0.525417
v -0.147806 -0.362965 0.513224
v -0.149813 -0.361997 0.513078
v -0.000174171 -0.465649 0.487801
v -0.000174171 -0.267919 0.563923
v -0.0087731 -0.286755 0.559937
v -0.0059605 -0.267919 0.564508
v -0.0189688 -0.280983 0.561266
v -0.0157314 -0.286755 0.559937
v -0.100622 -0.279981 0.548883
v -0.0892984 -0.287896 0.54843
v -0.0654938 -0.291732 0.550898
v -0.0428026 -0.304797 0.550066
v -0.0297797 -0.313679 0.549102
v -0.0297797 -0.349002 0.537055
v -0.0178701 -0.352112 0.537537
v -0.0139002 -0.357815 0.536004
v -0.0183828 -0.316548 0.549584
v -0.149813 -0.291767 0.537391
v -0.000174171 -0.464647 0.488356
v -0.000174171 -0.458806 0.491218
v -0.00937371 -0.441144 0.500359
v -0.0059605 -0.38429 0.525373
v -0.0178701 -0.38429 0.525358
v -0.0297797 -0.375061 0.52768
v -0.0365768 -0.381317 0.52403
v -0.0535842 -0.372158 0.525154
v -0.113088 -0.375787 0.514144
v -0.125012 -0.37278 0.513501
v -0.0390085 -0.346859 0.536325
v -0.0773888 -0.361271 0.525285
v -0.0535842 -0.337492 0.537201
v -0.136922 -0.335488 0.524599
v -0.149813 -0.327124 0.5253
v -0.0654938 -0.299405 0.548299
v -0.000174171 -0.274969 0.562171
v -0.00938836 -0.322285 0.547978
v -0.00563823 -0.316479 0.549555
v -0.000174171 -0.315303 0.549379
v -0.000174171 -0.28475 0.559367
v -0.000174171 -0.279635 0.561003
v -0.005272 -0.280845 0.561222
v -0.0147499 -0.322285 0.547978
v -0.0395945 -0.311398 0.548328
v -0.0100036 -0.357815 0.536004
v -0.0178701 -0.375061 0.52898
v -0.000174171 -0.434543 0.502345
v -0.000174171 -0.383633 0.525066
v -0.000174171 -0.379796 0.526658
v -0.0059605 -0.375061 0.52898
v -0.0410008 -0.375545 0.525738
v -0.000174171 -0.350764 0.537362
v -0.000174171 -0.375061 0.528498
f 1 2 3
f 1 3 7
f 1 7 15
f 1 15 26
f 1 26 25
f 1 25 24
f 1 24 47
f 1 47 50
f 1 50 49
f 1 49 53
f 1 53 52
f 1 52 85
f 1 85 123
f 1 123 153
f 1 153 184
f 1 184 169
f 1 169 138
f 1 138 104
f 1 104 70
f 1 70 36
f 1 36 19
f 1 19 10
f 1 10 4
f 1 4 9
f 1 9 18
f 1 18 32
f 1 32 31
f 1 31 59
f 1 59 90
f 1 90 71
f 1 71 38
f 1 38 37
f 1 37 20
f 1 20 12
f 1 12 5
f 1 5 2
f 2 5 3
f 3 5 6
f 3 6 7
f 4 8 9
f 4 10 11
f 4 11 8
f 5 12 13
f 5 13 6
f 6 14 7
f 6 13 14
f 7 14 15
f 8 16 9
f 8 11 17
f 8 17 33
f 8 33 61
f 8 61 92
f 8 92 127
f 8 127 155
f 8 155 186
f 8 186 191
f 8 191 190
f 8 190 189
f 8 189 202
f 8 202 203
f 8 203 199
f 8 199 198
f 8 198 197
f 8 197 171
f 8 171 170
f 8 170 154
f 8 154 124
f 8 124 86
f 8 86 55
f 8 55 29
f 8 29 16
f 9 16 18
f 10 19 35
f 10 35 65
f 10 65 64
f 10 64 95
f 10 95 91
f 10 91 60
f 10 60 33
f 10 33 17
f 10 17 11
f 12 20 13
f 13 20 21
f 13 21 22
f 13 22 23
f 13 23 14
f 14 24 25
f 14 25 26
f 14 26 15
f 14 23 27
f 14 27 28
f 14 28 24
f 16 29 54
f 16 54 30
f 16 30 31
f 16 31 32
f 16 32 18
f 19 34 35
f 19 36 34
f 20 37 21
f 21 37 38
f 21 38 39
f 21 39 40
f 21 40 41
f 21 41 22
f 22 41 42
f 22 42 43
f 22 43 44
f 22 44 45
f 22 45 23
f 23 45 46
f 23 46 27
f 24 28 47
f 27 46 45
f 27 45 48
f 27 48 28
f 28 49 50
f 28 50 47
f 28 48 51
f 28 51 52
f 28 52 53
f 28 53 49
f 29 55 56
f 29 56 54
f 30 54 58
f 30 58 57
f 30 57 31
f 31 57 58
f 31 58 59
f 33 60 61
f 34 62 63
f 34 63 64
f 34 64 65
f 34 65 35
f 34 36 66
f 34 66 67
f 34 67 68
f 34 68 69
f 34 69 62
f 36 70 66
f 38 71 72
f 38 72 73
f 38 73 39
f 39 73 74
f 39 74 75
f 39 75 40
f 40 75 42
f 40 42 41
f 42 75 43
f 43 75 76
f 43 76 77
f 43 77 78
f 43 78 44
f 44 78 45
f 45 78 79
f 45 79 80
f 45 80 81
f 45 81 48
f 48 81 82
f 48 82 51
f 51 82 83
f 51 83 52
f 52 83 84
f 52 84 85
f 54 56 58
f 55 86 87
f 55 87 56
f 56 87 88
f 56 88 58
f 58 89 59
f 58 88 89
f 59 89 90
f 60 91 61
f 61 91 93
f 61 93 92
f 62 69 63
f 63 94 95
f 63 95 64
f 63 69 94
f 66 70 67
f 67 70 96
f 67 96 97
f 67 97 68
f 68 97 98
f 68 98 99
f 68 99 100
f 68 100 101
f 68 101 69
f 69 101 94
f 70 102 103
f 70 103 96
f 70 104 105
f 70 105 102
f 71 90 89
f 71 89 106
f 71 106 72
f 72 106 74
f 72 74 73
f 74 107 75
f 74 106 88
f 74 88 108
f 74 108 77
f 74 77 107
f 75 107 76
f 76 107 109
f 76 109 77
f 77 110 111
f 77 111 112
f 77 112 113
f 77 113 114
f 77 114 78
f 77 109 107
f 77 108 110
f 78 114 115
f 78 115 79
f 79 116 80
f 79 115 117
f 79 117 116
f 80 116 118
f 80 118 119
f 80 119 120
f 80 120 121
f 80 121 81
f 81 121 82
f 82 121 122
f 82 122 83
f 83 122 84
f 84 122 85
f 85 122 123
f 86 124 87
f 87 108 88
f 87 124 125
f 87 125 126
f 87 126 110
f 87 110 108
f 88 106 89
f 91 95 93
f 92 93 127
f 93 95 94
f 93 94 130
f 93 130 128
f 93 128 127
f 94 101 129
f 94 129 130
f 96 103 131
f 96 131 97
f 97 131 98
f 98 131 132
f 98 132 133
f 98 133 99
f 99 134 100
f 99 133 135
f 99 135 136
f 99 136 134
f 100 134 130
f 100 130 129
f 100 129 101
f 102 105 103
f 103 132 131
f 103 105 137
f 103 137 132
f 104 138 105
f 105 138 139
f 105 139 140
f 105 140 137
f 110 126 141
f 110 141 111
f 111 141 142
f 111 142 112
f 112 142 143
f 112 143 113
f 113 143 144
f 113 144 117
f 113 117 114
f 114 117 115
f 116 117 118
f 117 144 145
f 117 145 119
f 117 119 118
f 119 145 146
f 119 146 120
f 120 146 121
f 121 146 147
f 121 147 122
f 122 147 148
f 122 148 149
f 122 149 150
f 122 150 151
f 122 151 152
f 122 152 153
f 122 153 123
f 124 154 125
f 125 154 141
f 125 141 126
f 127 128 155
f 128 130 134
f 128 134 156
f 128 156 157
f 128 157 155
f 132 137 133
f 133 137 135
f 134 136 158
f 134 158 159
f 134 159 156
f 135 137 160
f 135 160 140
f 135 140 136
f 136 159 158
f 136 140 161
f 136 161 162
f 136 162 163
f 136 163 164
f 136 164 165
f 136 165 166
f 136 166 167
f 136 167 168
f 136 168 159
f 137 140 160
f 138 169 139
f 139 161 140
f 139 169 151
f 139 151 161
f 141 154 170
f 141 170 142
f 142 170 171
f 142 171 172
f 142 172 143
f 143 172 173
f 143 173 174
f 143 174 144
f 144 174 145
f 145 174 175
f 145 175 176
f 145 176 146
f 146 176 177
f 146 177 178
f 146 178 179
f 146 179 147
f 147 179 177
f 147 177 148
f 148 177 165
f 148 165 149
f 149 165 180
f 149 180 181
f 149 181 150
f 150 181 180
f 150 180 182
f 150 182 183
f 150 183 151
f 151 184 152
f 151 183 182
f 151 182 185
f 151 185 161
f 151 169 184
f 152 184 153
f 155 157 186
f 156 159 193
f 156 193 187
f 156 187 188
f 156 188 189
f 156 189 190
f 156 190 191
f 156 191 192
f 156 192 157
f 157 192 186
f 159 168 193
f 161 185 163
f 161 163 162
f 163 185 194
f 163 194 164
f 164 194 165
f 165 194 180
f 165 177 175
f 165 175 166
f 166 175 167
f 167 195 187
f 167 187 193
f 167 193 168
f 167 175 196
f 167 196 174
f 167 174 173
f 167 173 195
f 171 197 172
f 172 197 198
f 172 198 173
f 173 198 199
f 173 199 200
f 173 200 195
f 174 196 175
f 175 177 201
f 175 201 176
f 176 201 177
f 177 179 178
f 180 194 185
f 180 185 182
f 186 192 191
f 187 195 188
f 188 195 202
f 188 202 189
f 195 200 203
f 195 203 202
f 199 203 200
