v -0.235211 0.481797 -0.198351
v -0.19019 0.481797 -0.241487
v -0.235211 0.481797 -0.258024
v -0.235211 0.322267 -0.198351
v -0.19019 0.481797 -0.29093
v -0.19019 0.322267 -0.241487
v -0.233272 0.481797 -0.25964
v -0.235211 0.477784 -0.260378
v -0.235211 0.322267 -0.323975
v -0.19019 0.466587 -0.298961
v -0.219622 0.481797 -0.269608
v -0.19019 0.322267 -0.355511
v -0.232478 0.481797 -0.260224
v -0.228882 0.479907 -0.263886
v -0.235211 0.472927 -0.262963
v -0.224228 0.322267 -0.331943
v -0.235211 0.326639 -0.322559
v -0.19019 0.464479 -0.300038
v -0.191543 0.465775 -0.298407
v -0.226299 0.464463 -0.273916
v -0.220997 0.481797 -0.268609
v -0.19019 0.356793 -0.345327
v -0.191679 0.322267 -0.354665
v -0.190353 0.356949 -0.345204
v -0.230989 0.481797 -0.261317
v -0.231557 0.46946 -0.267455
v -0.223655 0.481797 -0.26667
v -0.235211 0.468133 -0.265486
v -0.206876 0.322267 -0.344527
v -0.217119 0.327451 -0.33542
v -0.203667 0.324281 -0.346204
v -0.235211 0.351124 -0.314606
v -0.234567 0.33935 -0.318898
v -0.220821 0.351015 -0.325082
v -0.19019 0.458732 -0.302914
v -0.212888 0.462277 -0.284715
v -0.21558 0.454344 -0.286669
v -0.228353 0.458404 -0.275408
v -0.234307 0.458404 -0.271085
v -0.235211 0.459794 -0.269732
v -0.19019 0.357464 -0.345127
v -0.196726 0.322267 -0.351542
v -0.192173 0.349016 -0.34642
v -0.204117 0.322267 -0.346527
v -0.196272 0.352296 -0.342466
v -0.1974 0.363804 -0.337866
v -0.207929 0.327935 -0.341928
v -0.209084 0.339475 -0.337343
v -0.235211 0.35481 -0.313406
v -0.19019 0.451861 -0.306129
v -0.202173 0.452033 -0.297484
v -0.235211 0.448816 -0.2749
v -0.235211 0.45564 -0.271747
v -0.235211 0.458295 -0.27047
v -0.19019 0.366943 -0.341589
v -0.19409 0.375079 -0.335974
v -0.203808 0.360275 -0.334389
v -0.201997 0.368208 -0.333082
v -0.235211 0.360603 -0.311498
v -0.232544 0.362555 -0.312791
v -0.19019 0.448973 -0.307468
v -0.19019 0.446302 -0.308606
v -0.204496 0.4441 -0.299176
v -0.235211 0.398893 -0.296069
v -0.191737 0.383121 -0.334266
v -0.19019 0.384027 -0.334851
v -0.200044 0.375079 -0.331667
v -0.19019 0.416476 -0.321252
v -0.235211 0.364804 -0.310114
v -0.215395 0.370972 -0.322252
v -0.19019 0.442133 -0.310375
v -0.19108 0.441524 -0.309991
v -0.200507 0.401579 -0.320098
v -0.234321 0.375079 -0.306806
v -0.235211 0.389742 -0.299945
v -0.19019 0.390554 -0.33219
v -0.235211 0.371784 -0.307452
v -0.235211 0.37497 -0.306191
v -0.235211 0.376516 -0.305545
f 1 2 5
f 1 5 11
f 1 11 21
f 1 21 27
f 1 27 25
f 1 25 13
f 1 13 7
f 1 7 3
f 1 3 8
f 1 8 15
f 1 15 28
f 1 28 40
f 1 40 54
f 1 54 53
f 1 53 52
f 1 52 64
f 1 64 75
f 1 75 79
f 1 79 78
f 1 78 77
f 1 77 69
f 1 69 59
f 1 59 49
f 1 49 32
f 1 32 17
f 1 17 9
f 1 9 4
f 1 4 6
f 1 6 2
f 2 6 12
f 2 12 22
f 2 22 41
f 2 41 55
f 2 55 66
f 2 66 76
f 2 76 68
f 2 68 71
f 2 71 62
f 2 62 61
f 2 61 50
f 2 50 35
f 2 35 18
f 2 18 10
f 2 10 5
f 3 7 8
f 4 9 16
f 4 16 29
f 4 29 44
f 4 44 42
f 4 42 23
f 4 23 12
f 4 12 6
f 5 10 11
f 7 13 8
f 8 14 15
f 8 13 14
f 9 17 16
f 10 18 19
f 10 19 20
f 10 20 11
f 11 20 14
f 11 14 21
f 12 23 24
f 12 24 22
f 13 25 14
f 14 20 26
f 14 26 15
f 14 25 27
f 14 27 21
f 15 26 28
f 16 17 30
f 16 30 31
f 16 31 29
f 17 32 33
f 17 33 34
f 17 34 30
f 18 20 19
f 18 35 36
f 18 36 20
f 20 36 37
f 20 37 38
f 20 38 39
f 20 39 40
f 20 40 28
f 20 28 26
f 22 24 41
f 23 42 24
f 24 43 44
f 24 44 31
f 24 31 45
f 24 45 46
f 24 46 41
f 24 42 43
f 29 31 44
f 30 47 31
f 30 34 48
f 30 48 47
f 31 47 48
f 31 48 45
f 32 49 34
f 32 34 33
f 34 49 45
f 34 45 48
f 35 50 51
f 35 51 37
f 35 37 36
f 37 51 52
f 37 52 53
f 37 53 39
f 37 39 38
f 39 53 54
f 39 54 40
f 41 46 56
f 41 56 55
f 42 44 43
f 45 49 57
f 45 57 46
f 46 58 56
f 46 57 58
f 49 59 60
f 49 60 57
f 50 61 51
f 51 61 62
f 51 62 63
f 51 63 52
f 52 63 64
f 55 56 65
f 55 65 66
f 56 58 67
f 56 67 68
f 56 68 65
f 57 60 69
f 57 69 58
f 58 69 70
f 58 70 67
f 59 69 60
f 62 71 72
f 62 72 63
f 63 72 73
f 63 73 64
f 64 73 67
f 64 67 74
f 64 74 75
f 65 76 66
f 65 68 76
f 67 70 74
f 67 73 72
f 67 72 68
f 68 72 71
f 69 77 70
f 70 77 74
f 74 77 78
f 74 78 79
f 74 79 75
