v 0.000149491 0.510882 -0.305683
v 0.000149491 0.322267 -0.309797
v 0.000149491 0.510882 -0.336596
v -0.149163 0.510882 -0.267945
v -0.19019 0.481782 -0.241509
v -0.19019 0.322267 -0.241509
v 0.000149491 0.322267 -0.402535
v 0.000149491 0.465496 -0.356032
v -0.00596162 0.470315 -0.353353
v -0.0655078 0.510882 -0.329817
v -0.149163 0.510882 -0.301427
v -0.19019 0.481782 -0.29096
v -0.19019 0.322267 -0.355496
v -0.00117334 0.357682 -0.39303
v 0.000149491 0.35794 -0.393093
v -0.0774133 0.322267 -0.394449
v -0.0652097 0.328046 -0.394196
v -0.0774133 0.351274 -0.386787
v 0.000149491 0.463557 -0.356852
v -0.00596162 0.462782 -0.356553
v -0.0655078 0.469503 -0.347504
v -0.0774133 0.467934 -0.346842
v -0.0721406 0.500357 -0.333506
v -0.0774319 0.510882 -0.327989
v -0.0978893 0.510882 -0.322519
v -0.16718 0.476907 -0.309892
v -0.172266 0.481782 -0.303823
v -0.173104 0.481782 -0.303224
v -0.183557 0.481782 -0.295752
v -0.19019 0.473159 -0.295515
v -0.180706 0.479142 -0.29922
v -0.19019 0.356795 -0.345313
v -0.188308 0.322267 -0.356537
v 0.000149491 0.363609 -0.391548
v -0.0774133 0.363166 -0.383603
v -0.0865427 0.322267 -0.393408
v -0.0862073 0.322913 -0.393282
v -0.0840274 0.369499 -0.381128
v 0.000149491 0.461028 -0.357877
v -0.00596162 0.456836 -0.358933
v -0.0178671 0.455304 -0.358318
v -0.0297726 0.459698 -0.355307
v -0.0655078 0.458387 -0.35206
v -0.0774133 0.458387 -0.350783
v -0.0774133 0.473898 -0.344241
v -0.0857602 0.466179 -0.346085
v -0.0893002 0.510882 -0.325214
v -0.0941816 0.510882 -0.323748
v -0.10728 0.452626 -0.345345
v -0.173086 0.447419 -0.319587
v -0.169658 0.470315 -0.311405
v -0.178079 0.463668 -0.309246
v -0.17562 0.470315 -0.307512
v -0.160733 0.470315 -0.315488
v -0.161665 0.459126 -0.320091
v -0.166267 0.452017 -0.321336
v -0.19019 0.466586 -0.298983
v -0.19019 0.357478 -0.345108
v -0.182402 0.363166 -0.347015
v -0.179886 0.370736 -0.345865
v -0.172639 0.363166 -0.351019
v -0.108006 0.346769 -0.381396
v -0.1827 0.322267 -0.358744
v 0.000149491 0.369924 -0.389625
v -0.0774133 0.37057 -0.381491
v -0.0931755 0.322267 -0.392494
v -0.0885176 0.362999 -0.38209
v -0.0919645 0.36684 -0.38034
v -0.0885176 0.374115 -0.37859
v -0.0832449 0.404803 -0.369085
v 0.000149491 0.458073 -0.359059
v 0.000149491 0.451537 -0.361518
v -0.036983 0.452793 -0.357325
v -0.0412496 0.457409 -0.355023
v -0.0777114 0.445758 -0.355481
v -0.0819221 0.440089 -0.357025
v -0.0449386 0.451629 -0.356899
v -0.0535836 0.450318 -0.356442
v -0.0893188 0.446496 -0.352643
v -0.0895796 0.458812 -0.347882
v -0.103218 0.426185 -0.356285
v -0.108118 0.418245 -0.357703
v -0.17888 0.405339 -0.333553
v -0.177352 0.438944 -0.320816
v -0.173533 0.459181 -0.314117
v -0.180799 0.455728 -0.3112
v -0.19019 0.45872 -0.30294
v -0.19019 0.464462 -0.300071
v -0.19019 0.366951 -0.341577
v -0.188364 0.363166 -0.344162
v -0.176328 0.378676 -0.344414
v -0.108826 0.38344 -0.369936
v -0.104802 0.354709 -0.380277
v -0.101187 0.339365 -0.385621
v -0.101373 0.322267 -0.390098
v -0.113521 0.322267 -0.385447
v 0.000149491 0.375094 -0.388001
v -0.0774133 0.376534 -0.379441
v -0.0297726 0.383717 -0.381932
v -0.00596162 0.375094 -0.387371
v -0.095579 0.322267 -0.391926
v -0.0968645 0.358919 -0.381491
v -0.101187 0.375094 -0.375201
v -0.101019 0.387243 -0.370976
v -0.0777114 0.43551 -0.359059
v -0.0785125 0.400076 -0.371213
v 0.000149491 0.446496 -0.363362
v -0.0412496 0.447198 -0.358822
v -0.00596162 0.446496 -0.362732
v -0.0178671 0.446496 -0.361502
v -0.0739665 0.441289 -0.357451
v -0.104876 0.391379 -0.368501
v -0.19019 0.384031 -0.334846
v -0.189332 0.391066 -0.332576
v -0.179979 0.431004 -0.322424
v -0.184693 0.445887 -0.312777
v -0.188736 0.449451 -0.308331
v -0.19019 0.44897 -0.307496
v -0.19019 0.451851 -0.306156
v -0.100963 0.362999 -0.379063
v -0.100963 0.350942 -0.382484
v 0.000149491 0.387446 -0.383761
v -0.00270112 0.393761 -0.381286
v 0.000149491 0.434864 -0.367382
v -0.00135966 0.429029 -0.369242
v 0.000149491 0.423046 -0.371465
v -0.19019 0.390567 -0.332182
v -0.18419 0.434808 -0.317837
v -0.19019 0.416491 -0.321273
f 1 2 7
f 1 7 15
f 1 15 34
f 1 34 64
f 1 64 97
f 1 97 122
f 1 122 126
f 1 126 124
f 1 124 107
f 1 107 72
f 1 72 71
f 1 71 39
f 1 39 19
f 1 19 8
f 1 8 3
f 1 3 10
f 1 10 24
f 1 24 47
f 1 47 48
f 1 48 25
f 1 25 11
f 1 11 4
f 1 4 5
f 1 5 6
f 1 6 2
f 2 6 13
f 2 13 33
f 2 33 63
f 2 63 96
f 2 96 95
f 2 95 101
f 2 101 66
f 2 66 36
f 2 36 16
f 2 16 7
f 3 8 9
f 3 9 10
f 4 11 12
f 4 12 5
f 5 12 30
f 5 30 57
f 5 57 88
f 5 88 87
f 5 87 119
f 5 119 118
f 5 118 129
f 5 129 127
f 5 127 113
f 5 113 89
f 5 89 58
f 5 58 32
f 5 32 13
f 5 13 6
f 7 14 15
f 7 16 17
f 7 17 18
f 7 18 14
f 8 19 20
f 8 20 9
f 9 20 21
f 9 21 10
f 10 21 22
f 10 22 23
f 10 23 24
f 11 25 26
f 11 26 27
f 11 27 28
f 11 28 29
f 11 29 12
f 12 29 31
f 12 31 30
f 13 32 33
f 14 34 15
f 14 18 35
f 14 35 34
f 16 36 37
f 16 37 18
f 16 18 17
f 18 37 38
f 18 38 35
f 19 39 20
f 20 40 41
f 20 41 42
f 20 42 21
f 20 39 40
f 21 43 44
f 21 44 22
f 21 42 43
f 22 45 23
f 22 44 46
f 22 46 45
f 23 45 24
f 24 46 47
f 24 45 46
f 25 48 49
f 25 49 26
f 26 50 51
f 26 51 52
f 26 52 53
f 26 53 27
f 26 49 54
f 26 54 55
f 26 55 56
f 26 56 50
f 27 53 31
f 27 31 28
f 28 31 29
f 30 31 57
f 31 52 57
f 31 53 52
f 32 58 59
f 32 59 33
f 33 59 60
f 33 60 61
f 33 61 62
f 33 62 63
f 34 35 38
f 34 38 65
f 34 65 64
f 36 66 37
f 37 66 38
f 38 67 68
f 38 68 69
f 38 69 70
f 38 70 65
f 38 66 67
f 39 71 40
f 40 71 72
f 40 72 41
f 41 73 42
f 41 72 73
f 42 73 74
f 42 74 43
f 43 74 73
f 43 73 44
f 44 75 76
f 44 76 46
f 44 73 77
f 44 77 78
f 44 78 75
f 46 76 79
f 46 79 80
f 46 80 49
f 46 49 48
f 46 48 47
f 49 80 79
f 49 79 81
f 49 81 82
f 49 82 83
f 49 83 56
f 49 56 55
f 49 55 54
f 50 84 85
f 50 85 51
f 50 56 84
f 51 85 52
f 52 85 86
f 52 86 87
f 52 87 88
f 52 88 57
f 56 83 84
f 58 89 90
f 58 90 60
f 58 60 59
f 60 90 83
f 60 83 91
f 60 91 82
f 60 82 92
f 60 92 93
f 60 93 61
f 61 93 62
f 62 93 94
f 62 94 95
f 62 95 96
f 62 96 63
f 64 65 97
f 65 70 98
f 65 98 99
f 65 99 100
f 65 100 97
f 66 101 102
f 66 102 68
f 66 68 67
f 68 102 103
f 68 103 104
f 68 104 76
f 68 76 70
f 68 70 69
f 70 76 105
f 70 105 106
f 70 106 98
f 72 107 73
f 73 108 77
f 73 107 109
f 73 109 110
f 73 110 108
f 75 78 111
f 75 111 76
f 76 111 105
f 76 104 112
f 76 112 81
f 76 81 79
f 77 111 78
f 77 108 111
f 81 112 82
f 82 112 92
f 82 91 83
f 83 90 89
f 83 89 113
f 83 113 114
f 83 114 115
f 83 115 84
f 84 115 116
f 84 116 86
f 84 86 85
f 86 116 117
f 86 117 118
f 86 118 119
f 86 119 87
f 92 112 103
f 92 103 120
f 92 120 93
f 93 120 102
f 93 102 121
f 93 121 94
f 94 121 102
f 94 102 101
f 94 101 95
f 97 100 122
f 98 106 99
f 99 123 122
f 99 122 100
f 99 106 123
f 102 120 103
f 103 112 104
f 105 111 108
f 105 108 110
f 105 110 106
f 106 110 123
f 107 124 109
f 109 125 110
f 109 124 125
f 110 125 126
f 110 126 123
f 113 127 114
f 114 127 115
f 115 127 128
f 115 128 116
f 116 128 129
f 116 129 118
f 116 118 117
f 122 123 126
f 124 126 125
f 127 129 128
