v 0.279841 -0.54127 -0.148847
v 0.290123 -0.540354 -0.136968
v 0.313116 -0.54024 -0.0774411
v 0.314157 -0.540698 -0.0655294
v 0.315492 -0.540507 -0.0297942
v 0.315492 -0.540297 -0.0178824
v 0.232191 -0.540354 -0.208696
v 0.232867 -0.540335 -0.220898
v 0.244294 -0.540144 -0.208051
v 0.279754 -0.539629 -0.160178
v 0.287904 -0.53879 -0.148847
v 0.300701 -0.539667 -0.113112
v 0.311157 -0.53818 -0.0893206
v 0.319359 -0.529538 -0.0779253
v 0.320139 -0.532857 -0.0655294
v 0.321648 -0.536158 -0.0377676
v 0.322064 -0.536921 -0.0297942
v 0.322688 -0.53797 -0.0178824
v 0.323312 -0.538866 -0.00597069
v 0.32352 -0.539133 -9.55265e-05
v 0.318821 -0.539114 -9.55265e-05
v 0.314521 -0.539057 -9.55265e-05
v 0.218839 -0.539648 -0.222222
v 0.228636 -0.54024 -0.224837
v 0.229364 -0.538599 -0.228743
v 0.24041 -0.538485 -0.217315
v 0.275731 -0.53818 -0.169249
v 0.286447 -0.536882 -0.155884
v 0.298915 -0.53776 -0.122344
v 0.309856 -0.536329 -0.0961319
v 0.315509 -0.529786 -0.0893206
v 0.321145 -0.523167 -0.0821864
v 0.346062 -0.46615 -0.0856082
v 0.32215 -0.525399 -0.0742776
v 0.322775 -0.526906 -0.0655294
v 0.323624 -0.530702 -0.0417059
v 0.327734 -0.529786 -0.00597069
v 0.328167 -0.529786 -9.55265e-05
v 0.30996 -0.529786 -9.55265e-05
v 0.309163 -0.536768 -0.0090374
v 0.218839 -0.529786 -0.218284
v 0.218822 -0.39269 -0.311673
v 0.218839 -0.532915 -0.241106
v 0.219238 -0.539629 -0.234166
v 0.237289 -0.534479 -0.225321
v 0.224492 -0.533105 -0.236652
v 0.25123 -0.537436 -0.203951
v 0.297996 -0.512656 -0.155497
v 0.29373 -0.528642 -0.147782
v 0.297302 -0.535166 -0.130318
v 0.26205 -0.535852 -0.190554
v 0.27287 -0.533811 -0.177158
v 0.284193 -0.529786 -0.164536
v 0.297892 -0.500429 -0.166957
v 0.309839 -0.476871 -0.167118
v 0.308348 -0.533125 -0.104041
v 0.321457 -0.511912 -0.0952603
v 0.322948 -0.515232 -0.0873191
v 0.357038 -0.44015 -0.0819605
v 0.350779 -0.458367 -0.0774411
v 0.346825 -0.467905 -0.0774411
v 0.342768 -0.470175 -0.0894497
v 0.333612 -0.464872 -0.119729
v 0.344571 -0.462755 -0.0935171
v 0.347831 -0.458615 -0.0894497
v 0.352565 -0.446464 -0.0893206
v 0.333473 -0.500314 -0.0721147
v 0.347484 -0.469469 -0.0655294
v 0.345681 -0.477138 -0.0513902
v 0.323399 -0.528356 -0.0535854
v 0.347692 -0.483261 -0.00674544
v 0.345611 -0.488907 -0.00325908
v 0.345715 -0.489155 -9.55265e-05
v 0.309787 -0.517883 -9.55265e-05
v 0.218839 -0.346431 -0.218284
v 0.309752 -0.512294 -9.55265e-05
v 0.309735 -0.50598 -9.55265e-05
v 0.218822 -0.363199 -0.324101
v 0.219151 -0.375503 -0.318936
v 0.222255 -0.38649 -0.311673
v 0.218839 -0.410411 -0.303861
v 0.218839 -0.442191 -0.289786
v 0.218839 -0.446464 -0.28785
v 0.218839 -0.457375 -0.282685
v 0.218839 -0.459989 -0.281329
v 0.218839 -0.470251 -0.275841
v 0.218839 -0.529481 -0.243269
v 0.218822 -0.346431 -0.311673
v 0.232243 -0.529805 -0.232132
v 0.251646 -0.466589 -0.251307
v 0.250935 -0.48967 -0.238944
v 0.263125 -0.466493 -0.239589
v 0.249929 -0.511836 -0.224837
v 0.243964 -0.5295 -0.220027
v 0.248351 -0.532495 -0.211924
v 0.296192 -0.520592 -0.150913
v 0.311105 -0.479675 -0.160791
v 0.315422 -0.47027 -0.160791
v 0.321127 -0.463556 -0.153915
v 0.267477 -0.469431 -0.231583
v 0.301204 -0.469927 -0.184614
v 0.309197 -0.463632 -0.178094
v 0.314053 -0.459149 -0.17351
v 0.319532 -0.44738 -0.173058
v 0.321283 -0.451977 -0.166246
v 0.320052 -0.459092 -0.161663
v 0.355478 -0.44572 -0.0777639
v 0.358374 -0.432215 -0.0872546
v 0.380326 -0.366785 -0.0919353
v 0.378575 -0.374129 -0.0885135
v 0.369072 -0.404841 -0.0832517
v 0.379459 -0.376552 -0.0774088
v 0.357455 -0.441352 -0.073987
v 0.355825 -0.448505 -0.0655294
v 0.352079 -0.458367 -0.0655294
v 0.346288 -0.454819 -0.0979396
v 0.347935 -0.446826 -0.101652
v 0.357142 -0.42859 -0.0951635
v 0.369436 -0.393968 -0.0962287
v 0.356536 -0.462755 -0.00597069
v 0.353345 -0.47027 -0.00597069
v 0.356778 -0.463365 -9.55265e-05
v 0.309735 -0.346431 -9.55265e-05
v 0.395949 -0.346393 -0.00138677
v 0.369905 -0.346393 -0.135773
v 0.22574 -0.355969 -0.321034
v 0.249721 -0.368311 -0.29734
v 0.228411 -0.37514 -0.311673
v 0.218822 -0.346431 -0.32988
v 0.220139 -0.350895 -0.327297
v 0.27124 -0.387024 -0.271677
v 0.261513 -0.427827 -0.261573
v 0.249253 -0.45089 -0.261282
v 0.225966 -0.463861 -0.273581
v 0.26205 -0.452511 -0.250113
v 0.255773 -0.457223 -0.252824
v 0.232173 -0.469641 -0.265414
v 0.271119 -0.458329 -0.234327
v 0.273928 -0.464414 -0.226289
v 0.264564 -0.457223 -0.243786
v 0.322809 -0.45562 -0.158338
v 0.284748 -0.46224 -0.21286
v 0.306666 -0.459149 -0.184679
v 0.311139 -0.455697 -0.180741
v 0.320781 -0.438986 -0.177319
v 0.330335 -0.43395 -0.160016
v 0.346236 -0.443183 -0.109722
v 0.344744 -0.451042 -0.105913
v 0.333786 -0.453427 -0.132093
v 0.333543 -0.405375 -0.178901
v 0.344398 -0.378707 -0.176286
v 0.374482 -0.375102 -0.1012
v 0.38147 -0.35885 -0.096487
v 0.385112 -0.351277 -0.0893206
v 0.382077 -0.36297 -0.0885135
v 0.381124 -0.369513 -0.0840587
v 0.381505 -0.370581 -0.0774088
v 0.387383 -0.375102 -0.00597069
v 0.379615 -0.386528 -0.042868
v 0.38291 -0.387959 -0.00642263
v 0.369905 -0.426549 -0.00329135
v 0.362709 -0.446464 -0.00597069
v 0.357299 -0.452759 -0.0370574
v 0.356882 -0.451595 -0.0449663
v 0.370251 -0.386776 -0.101103
v 0.369905 -0.390916 -0.0980042
v 0.358911 -0.456803 -0.00597069
v 0.358928 -0.45789 -9.55265e-05
v 0.363194 -0.446464 -9.55265e-05
v 0.39151 -0.363428 -0.0001278
v 0.369905 -0.346412 -0.0001278
v 0.393054 -0.357781 -0.000676581
v 0.395533 -0.346393 -0.00571244
v 0.382147 -0.346393 -0.103847
v 0.358876 -0.346431 -0.1646
v 0.355356 -0.346431 -0.173671
v 0.354039 -0.346431 -0.176932
v 0.35064 -0.346431 -0.185099
v 0.346236 -0.346431 -0.193492
v 0.34301 -0.346431 -0.198076
v 0.332329 -0.346431 -0.21286
v 0.298308 -0.346431 -0.259829
v 0.295568 -0.346431 -0.26351
v 0.291962 -0.346431 -0.26819
v 0.280101 -0.346431 -0.280134
v 0.280534 -0.351353 -0.278133
v 0.262518 -0.370142 -0.286171
v 0.277327 -0.363199 -0.276648
v 0.256259 -0.37453 -0.289334
v 0.275315 -0.371897 -0.275002
v 0.273737 -0.404669 -0.261831
v 0.273477 -0.427808 -0.2495
v 0.269749 -0.446426 -0.24356
v 0.273009 -0.450355 -0.236942
v 0.285251 -0.379928 -0.26125
v 0.286707 -0.454304 -0.215507
v 0.289707 -0.45831 -0.208696
v 0.297493 -0.451996 -0.202111
v 0.308278 -0.449421 -0.188714
v 0.312717 -0.445854 -0.184679
v 0.322428 -0.431051 -0.179934
v 0.351698 -0.375121 -0.160791
v 0.345854 -0.370772 -0.179869
v 0.334236 -0.383152 -0.191652
v 0.335936 -0.375121 -0.194041
v 0.344137 -0.363218 -0.188327
v 0.347276 -0.374892 -0.172412
v 0.378627 -0.36297 -0.10078
v 0.369905 -0.372107 -0.116049
v 0.369298 -0.369837 -0.119729
v 0.385112 -0.346393 -0.094195
v 0.38643 -0.346393 -0.0893206
v 0.35683 -0.368006 -0.153915
v 0.357975 -0.360051 -0.156917
v 0.369905 -0.348644 -0.134191
v 0.383256 -0.346393 -0.100909
v 0.387435 -0.346393 -0.0822833
v 0.386794 -0.351277 -0.0774088
v 0.383603 -0.363199 -0.0774088
v 0.389794 -0.363199 -0.0178824
v 0.391337 -0.362283 -0.00548647
v 0.387904 -0.375102 -0.0001278
v 0.381332 -0.393911 -0.00141906
v 0.369575 -0.42819 -0.000418336
v 0.39262 -0.356141 -0.00913424
v 0.393938 -0.346393 -0.0211428
v 0.354732 -0.350972 -0.172025
v 0.351021 -0.363218 -0.172574
v 0.346999 -0.363218 -0.182387
v 0.345161 -0.356999 -0.190328
v 0.346392 -0.349064 -0.192136
v 0.342421 -0.352345 -0.196268
v 0.296435 -0.351334 -0.260249
v 0.288511 -0.363199 -0.265414
v 0.284956 -0.355302 -0.273
v 0.286049 -0.34666 -0.275098
v 0.283274 -0.363199 -0.271386
v 0.286933 -0.371955 -0.263445
v 0.284783 -0.40259 -0.248692
v 0.286603 -0.439005 -0.224837
v 0.29777 -0.36936 -0.250113
v 0.317781 -0.434866 -0.18413
v 0.319896 -0.422734 -0.188327
v 0.322237 -0.37102 -0.215346
v 0.333057 -0.368254 -0.201949
v 0.388077 -0.346393 -0.0774088
v 0.393192 -0.346393 -0.0283415
v 0.308556 -0.366156 -0.236748
v 0.294458 -0.363199 -0.257538
f 1 2 3
f 1 3 4
f 1 4 5
f 1 5 6
f 1 6 7
f 1 7 8
f 1 8 9
f 1 9 10
f 1 10 2
f 2 10 11
f 2 11 12
f 2 12 3
f 3 12 13
f 3 13 14
f 3 14 15
f 3 15 16
f 3 16 17
f 3 17 18
f 3 18 19
f 3 19 4
f 4 19 20
f 4 20 5
f 5 20 6
f 6 20 21
f 6 21 22
f 6 22 23
f 6 23 7
f 7 23 24
f 7 24 8
f 8 24 25
f 8 25 26
f 8 26 9
f 9 26 27
f 9 27 10
f 10 27 28
f 10 28 11
f 11 28 29
f 11 29 13
f 11 13 12
f 13 30 31
f 13 31 14
f 13 29 30
f 14 31 32
f 14 32 33
f 14 33 34
f 14 34 15
f 15 34 35
f 15 35 16
f 16 35 36
f 16 36 37
f 16 37 17
f 17 37 18
f 18 37 19
f 19 37 38
f 19 38 20
f 20 38 73
f 20 73 122
f 20 122 168
f 20 168 169
f 20 169 123
f 20 123 77
f 20 77 76
f 20 76 74
f 20 74 39
f 20 39 22
f 20 22 21
f 22 39 40
f 22 40 23
f 23 40 39
f 23 39 41
f 23 41 42
f 23 42 43
f 23 43 44
f 23 44 24
f 24 44 25
f 25 45 26
f 25 44 43
f 25 43 46
f 25 46 45
f 26 47 27
f 26 45 47
f 27 47 28
f 28 48 49
f 28 49 50
f 28 50 29
f 28 47 51
f 28 51 52
f 28 52 53
f 28 53 54
f 28 54 55
f 28 55 48
f 29 50 30
f 30 50 49
f 30 49 56
f 30 56 31
f 31 56 49
f 31 49 57
f 31 57 58
f 31 58 32
f 32 58 33
f 33 59 60
f 33 60 61
f 33 61 34
f 33 58 62
f 33 62 63
f 33 63 64
f 33 64 65
f 33 65 66
f 33 66 59
f 34 67 35
f 34 61 67
f 35 67 61
f 35 61 68
f 35 68 69
f 35 69 70
f 35 70 36
f 36 71 37
f 36 70 71
f 37 72 38
f 37 71 72
f 38 72 73
f 39 74 41
f 41 75 88
f 41 88 42
f 41 74 76
f 41 76 77
f 41 77 123
f 41 123 75
f 42 78 79
f 42 79 80
f 42 80 81
f 42 81 82
f 42 82 83
f 42 83 84
f 42 84 85
f 42 85 86
f 42 86 87
f 42 87 43
f 42 88 129
f 42 129 78
f 43 87 46
f 45 46 89
f 45 89 90
f 45 90 91
f 45 91 92
f 45 92 93
f 45 93 94
f 45 94 95
f 45 95 47
f 46 87 90
f 46 90 89
f 47 95 51
f 48 96 49
f 48 55 96
f 49 96 97
f 49 97 98
f 49 98 99
f 49 99 63
f 49 63 62
f 49 62 57
f 51 95 52
f 52 95 53
f 53 95 93
f 53 93 100
f 53 100 101
f 53 101 54
f 54 101 102
f 54 102 55
f 55 102 103
f 55 103 104
f 55 104 105
f 55 105 106
f 55 106 98
f 55 98 97
f 55 97 96
f 57 62 58
f 59 107 60
f 59 66 108
f 59 108 109
f 59 109 110
f 59 110 111
f 59 111 112
f 59 112 113
f 59 113 114
f 59 114 107
f 60 107 114
f 60 114 115
f 60 115 68
f 60 68 61
f 63 99 64
f 64 116 65
f 64 99 116
f 65 116 66
f 66 116 117
f 66 117 118
f 66 118 119
f 66 119 108
f 68 115 120
f 68 120 121
f 68 121 69
f 69 71 70
f 69 121 71
f 71 121 72
f 72 121 122
f 72 122 73
f 75 123 124
f 75 124 125
f 75 125 88
f 78 126 127
f 78 127 128
f 78 128 79
f 78 129 130
f 78 130 126
f 79 128 80
f 80 128 131
f 80 131 132
f 80 132 81
f 81 132 82
f 82 132 133
f 82 133 83
f 83 133 84
f 84 134 85
f 84 133 135
f 84 135 136
f 84 136 134
f 85 134 86
f 86 134 137
f 86 137 87
f 87 137 90
f 88 125 129
f 90 136 135
f 90 135 91
f 90 137 134
f 90 134 136
f 91 135 92
f 92 138 139
f 92 139 100
f 92 100 93
f 92 135 140
f 92 140 138
f 93 95 94
f 98 106 99
f 99 141 116
f 99 106 141
f 100 139 101
f 101 139 102
f 102 139 142
f 102 142 143
f 102 143 144
f 102 144 103
f 103 144 145
f 103 145 104
f 104 145 105
f 105 146 147
f 105 147 148
f 105 148 149
f 105 149 141
f 105 141 106
f 105 145 150
f 105 150 151
f 105 151 146
f 108 119 109
f 109 119 152
f 109 152 153
f 109 153 154
f 109 154 155
f 109 155 156
f 109 156 110
f 110 156 111
f 111 156 112
f 112 157 158
f 112 158 159
f 112 159 113
f 112 156 157
f 113 159 160
f 113 160 161
f 113 161 162
f 113 162 163
f 113 163 114
f 114 163 164
f 114 164 115
f 115 164 163
f 115 163 120
f 116 141 149
f 116 149 148
f 116 148 117
f 117 148 147
f 117 147 118
f 118 147 165
f 118 165 166
f 118 166 119
f 119 166 152
f 120 167 122
f 120 122 121
f 120 163 167
f 122 167 168
f 123 169 170
f 123 170 171
f 123 171 124
f 124 171 170
f 124 170 172
f 124 172 173
f 124 173 226
f 124 226 247
f 124 247 246
f 124 246 217
f 124 217 212
f 124 212 211
f 124 211 216
f 124 216 174
f 124 174 125
f 125 174 175
f 125 175 176
f 125 176 177
f 125 177 178
f 125 178 179
f 125 179 180
f 125 180 181
f 125 181 182
f 125 182 183
f 125 183 184
f 125 184 185
f 125 185 129
f 126 130 129
f 126 129 186
f 126 186 127
f 127 187 128
f 127 186 188
f 127 188 187
f 128 187 189
f 128 189 131
f 129 185 186
f 131 189 190
f 131 190 191
f 131 191 132
f 132 191 135
f 132 135 133
f 135 192 193
f 135 193 194
f 135 194 140
f 135 191 195
f 135 195 192
f 138 140 194
f 138 194 196
f 138 196 197
f 138 197 142
f 138 142 139
f 142 197 143
f 143 197 196
f 143 196 198
f 143 198 144
f 144 198 199
f 144 199 200
f 144 200 145
f 145 200 201
f 145 201 150
f 146 151 202
f 146 202 147
f 147 202 165
f 150 203 151
f 150 201 204
f 150 204 205
f 150 205 206
f 150 206 203
f 151 203 207
f 151 207 202
f 152 208 153
f 152 166 165
f 152 165 209
f 152 209 210
f 152 210 208
f 153 211 212
f 153 212 154
f 153 208 213
f 153 213 214
f 153 214 215
f 153 215 174
f 153 174 216
f 153 216 211
f 154 212 156
f 154 156 155
f 156 212 217
f 156 217 218
f 156 218 219
f 156 219 220
f 156 220 157
f 157 220 221
f 157 221 158
f 158 221 170
f 158 170 222
f 158 222 223
f 158 223 160
f 158 160 159
f 160 223 161
f 161 223 224
f 161 224 162
f 162 224 169
f 162 169 167
f 162 167 163
f 165 202 209
f 167 169 168
f 169 224 222
f 169 222 170
f 170 221 172
f 172 221 225
f 172 225 173
f 173 225 226
f 174 215 175
f 175 227 176
f 175 215 214
f 175 214 227
f 176 227 177
f 177 227 228
f 177 228 229
f 177 229 178
f 178 230 231
f 178 231 179
f 178 229 230
f 179 231 180
f 180 231 232
f 180 232 181
f 181 232 233
f 181 233 182
f 182 233 183
f 183 233 234
f 183 234 184
f 184 234 235
f 184 235 236
f 184 236 185
f 185 236 186
f 186 236 235
f 186 235 188
f 187 188 190
f 187 190 189
f 188 235 237
f 188 237 190
f 190 237 191
f 191 237 238
f 191 238 195
f 192 195 239
f 192 239 194
f 192 194 193
f 194 239 240
f 194 240 199
f 194 199 198
f 194 198 196
f 195 238 241
f 195 241 205
f 195 205 239
f 199 240 200
f 200 242 201
f 200 240 242
f 201 242 243
f 201 243 205
f 201 205 204
f 202 207 203
f 202 203 213
f 202 213 210
f 202 210 209
f 203 206 230
f 203 230 229
f 203 229 228
f 203 228 213
f 205 244 245
f 205 245 230
f 205 230 206
f 205 243 239
f 205 241 244
f 208 210 213
f 213 228 214
f 214 228 227
f 217 246 218
f 218 246 247
f 218 247 225
f 218 225 219
f 219 225 221
f 219 221 220
f 222 224 223
f 225 247 226
f 230 245 232
f 230 232 231
f 232 245 233
f 233 245 248
f 233 248 249
f 233 249 234
f 234 249 238
f 234 238 235
f 235 238 237
f 238 249 241
f 239 243 240
f 240 243 242
f 241 249 248
f 241 248 245
f 241 245 244
