v -0.371743 0.322267 -0.402066
v -0.375325 0.322267 -0.399049
v -0.371743 0.338679 -0.395187
v -0.371743 0.322267 -0.383
v -0.381419 0.322267 -0.393377
v -0.381404 0.32236 -0.393353
v -0.371743 0.348189 -0.390674
v -0.371743 0.481797 -0.273648
v -0.435563 0.481797 -0.155512
v -0.511044 0.322267 -0.155512
v -0.403104 0.322267 -0.366709
v -0.382548 0.339366 -0.382879
v -0.381179 0.345675 -0.38119
v -0.379463 0.353592 -0.379066
v -0.371743 0.363227 -0.383217
v -0.371743 0.361884 -0.383917
v -0.371743 0.481797 -0.297469
v -0.45186 0.481797 -0.155512
v -0.525476 0.322267 -0.155512
v -0.429273 0.322876 -0.334128
v -0.430522 0.339366 -0.323775
v -0.403104 0.354091 -0.349695
v -0.382683 0.36104 -0.371126
v -0.456013 0.322267 -0.301451
v -0.378034 0.364257 -0.375084
v -0.380893 0.368958 -0.369002
v -0.371743 0.373096 -0.377642
v -0.371743 0.478112 -0.300751
v -0.393593 0.477175 -0.274686
v -0.386731 0.481797 -0.279006
v -0.423765 0.481797 -0.218719
v -0.453801 0.478767 -0.155512
v -0.525145 0.323609 -0.155512
v -0.524768 0.324062 -0.157033
v -0.525054 0.322267 -0.157829
v -0.454659 0.327451 -0.300365
v -0.403104 0.35901 -0.347064
v -0.446413 0.362914 -0.291556
v -0.430191 0.363164 -0.311442
v -0.42536 0.363164 -0.317403
v -0.403104 0.365397 -0.343637
v -0.462078 0.322267 -0.293921
v -0.372917 0.374689 -0.375205
v -0.428806 0.369442 -0.309753
v -0.417655 0.370863 -0.322592
v -0.371743 0.375501 -0.376073
v -0.371743 0.46754 -0.310139
v -0.375069 0.470288 -0.303623
v -0.407618 0.46818 -0.26537
v -0.403104 0.48061 -0.259868
v -0.382082 0.465806 -0.298965
v -0.402667 0.481797 -0.259337
v -0.421989 0.481797 -0.222701
v -0.442064 0.478705 -0.181963
v -0.45353 0.478002 -0.157201
v -0.458632 0.470616 -0.155512
v -0.524874 0.324703 -0.155512
v -0.513527 0.339366 -0.170186
v -0.513437 0.325436 -0.181891
v -0.512624 0.359182 -0.155512
v -0.512579 0.35887 -0.156164
v -0.514024 0.322267 -0.183073
v -0.454313 0.351281 -0.288032
v -0.452838 0.358105 -0.286198
v -0.451123 0.366022 -0.283857
v -0.464561 0.322267 -0.290735
v -0.464124 0.333073 -0.28545
v -0.393232 0.381575 -0.34564
v -0.382082 0.382871 -0.35848
v -0.371743 0.380248 -0.372936
v -0.415564 0.378811 -0.32001
v -0.442936 0.375079 -0.28866
v -0.371743 0.464682 -0.312504
v -0.393232 0.46476 -0.286126
v -0.404323 0.463651 -0.27331
v -0.415564 0.462496 -0.260182
v -0.403104 0.481797 -0.258782
v -0.378861 0.460903 -0.306905
v -0.417716 0.481797 -0.23221
v -0.417324 0.477206 -0.23945
v -0.440965 0.464979 -0.203298
v -0.454192 0.467165 -0.17062
v -0.463357 0.462558 -0.155512
v -0.512293 0.346127 -0.167386
v -0.500496 0.334556 -0.203394
v -0.501534 0.326436 -0.207762
v -0.501459 0.322267 -0.211358
v -0.50173 0.384698 -0.155512
v -0.501414 0.383777 -0.157805
v -0.50337 0.375704 -0.161353
v -0.501414 0.372159 -0.169727
v -0.488141 0.369114 -0.202429
v -0.501113 0.360025 -0.180925
v -0.453726 0.372003 -0.275941
v -0.449151 0.375594 -0.279851
v -0.4411 0.38195 -0.286415
v -0.466005 0.322267 -0.288732
v -0.465719 0.325124 -0.287694
v -0.470399 0.322267 -0.280189
v -0.477532 0.322267 -0.264936
v -0.465795 0.339366 -0.277003
v -0.464591 0.34594 -0.274348
v -0.37537 0.387493 -0.363499
v -0.371743 0.384808 -0.369847
v -0.418784 0.384589 -0.31207
v -0.371743 0.459388 -0.3168
v -0.411215 0.459092 -0.268435
v -0.428024 0.439619 -0.260954
v -0.417987 0.466384 -0.252241
v -0.407242 0.481797 -0.253352
v -0.418002 0.454547 -0.263536
v -0.374527 0.457561 -0.314845
v -0.412524 0.481797 -0.243698
v -0.415519 0.474301 -0.247366
v -0.429483 0.465666 -0.228059
v -0.452372 0.464292 -0.178536
v -0.439189 0.461809 -0.211238
v -0.466005 0.455578 -0.158529
v -0.466652 0.456734 -0.155512
v -0.489631 0.361165 -0.205711
v -0.466577 0.362867 -0.255958
v -0.488713 0.322969 -0.239354
v -0.490173 0.322267 -0.236651
v -0.47839 0.432904 -0.155512
v -0.476674 0.381872 -0.215268
v -0.488126 0.381013 -0.190506
v -0.477818 0.431811 -0.158263
v -0.460001 0.445365 -0.183459
v -0.45356 0.395223 -0.252531
v -0.453726 0.383621 -0.264791
v -0.474899 0.37803 -0.223208
v -0.465193 0.371034 -0.251976
v -0.476674 0.370082 -0.22719
v -0.464892 0.358667 -0.26315
v -0.455622 0.375594 -0.268411
v -0.451725 0.37992 -0.272731
v -0.441913 0.39552 -0.275676
v -0.403089 0.449956 -0.285329
v -0.403089 0.444413 -0.289239
v -0.402713 0.436824 -0.295055
v -0.419521 0.398909 -0.301065
v -0.429574 0.418319 -0.274976
v -0.414826 0.449066 -0.271476
v -0.488803 0.322267 -0.239716
v -0.477231 0.324094 -0.264115
v -0.390975 0.389508 -0.342865
v -0.371743 0.398284 -0.360362
v -0.403104 0.395395 -0.323775
v -0.371743 0.457842 -0.318007
v -0.406881 0.455734 -0.276351
v -0.381344 0.45297 -0.30997
v -0.42998 0.443242 -0.253014
v -0.430145 0.431655 -0.264188
v -0.439746 0.403453 -0.272562
v -0.429814 0.454657 -0.240754
v -0.427557 0.462605 -0.235999
v -0.371743 0.455391 -0.319889
v -0.441311 0.45386 -0.215992
v -0.452778 0.453048 -0.19123
v -0.465749 0.443413 -0.172671
v -0.477532 0.336852 -0.252917
v -0.451002 0.449441 -0.199171
v -0.371743 0.432311 -0.336349
v -0.371743 0.445521 -0.326961
f 1 2 3
f 1 3 7
f 1 7 16
f 1 16 15
f 1 15 27
f 1 27 46
f 1 46 70
f 1 70 104
f 1 104 147
f 1 147 163
f 1 163 164
f 1 164 157
f 1 157 149
f 1 149 106
f 1 106 73
f 1 73 47
f 1 47 28
f 1 28 17
f 1 17 8
f 1 8 4
f 1 4 10
f 1 10 19
f 1 19 35
f 1 35 62
f 1 62 87
f 1 87 123
f 1 123 144
f 1 144 100
f 1 100 99
f 1 99 97
f 1 97 66
f 1 66 42
f 1 42 24
f 1 24 11
f 1 11 5
f 1 5 2
f 2 5 6
f 2 6 3
f 3 6 7
f 4 8 9
f 4 9 10
f 5 11 6
f 6 11 12
f 6 12 13
f 6 13 14
f 6 14 15
f 6 15 16
f 6 16 7
f 8 17 30
f 8 30 52
f 8 52 77
f 8 77 110
f 8 110 113
f 8 113 79
f 8 79 53
f 8 53 31
f 8 31 18
f 8 18 9
f 9 18 32
f 9 32 56
f 9 56 83
f 9 83 119
f 9 119 124
f 9 124 88
f 9 88 60
f 9 60 57
f 9 57 33
f 9 33 19
f 9 19 10
f 11 20 21
f 11 21 22
f 11 22 23
f 11 23 12
f 11 24 20
f 12 14 13
f 12 23 14
f 14 23 25
f 14 25 15
f 15 25 26
f 15 26 27
f 17 28 29
f 17 29 30
f 18 31 32
f 19 33 34
f 19 34 35
f 20 24 36
f 20 36 21
f 21 37 22
f 21 36 38
f 21 38 39
f 21 39 40
f 21 40 37
f 22 37 23
f 23 26 25
f 23 37 41
f 23 41 26
f 24 42 36
f 26 43 27
f 26 41 44
f 26 44 45
f 26 45 43
f 27 43 46
f 28 47 48
f 28 48 29
f 29 49 50
f 29 50 30
f 29 48 51
f 29 51 49
f 30 50 52
f 31 53 54
f 31 54 55
f 31 55 32
f 32 55 56
f 33 57 34
f 34 58 59
f 34 59 35
f 34 57 60
f 34 60 61
f 34 61 58
f 35 59 62
f 36 42 63
f 36 63 38
f 37 40 41
f 38 63 64
f 38 64 65
f 38 65 44
f 38 44 39
f 39 44 40
f 40 44 41
f 42 66 67
f 42 67 63
f 43 68 69
f 43 69 70
f 43 70 46
f 43 45 71
f 43 71 68
f 44 65 72
f 44 72 45
f 45 72 71
f 47 73 51
f 47 51 48
f 49 51 74
f 49 74 75
f 49 75 76
f 49 76 77
f 49 77 50
f 50 77 52
f 51 73 78
f 51 78 74
f 53 79 80
f 53 80 81
f 53 81 54
f 54 81 82
f 54 82 55
f 55 82 56
f 56 82 83
f 58 61 84
f 58 84 59
f 59 85 86
f 59 86 87
f 59 87 62
f 59 84 85
f 60 88 61
f 61 88 89
f 61 89 90
f 61 90 91
f 61 91 92
f 61 92 93
f 61 93 84
f 63 67 64
f 64 67 65
f 65 67 94
f 65 94 95
f 65 95 96
f 65 96 72
f 66 97 98
f 66 98 67
f 67 98 99
f 67 99 100
f 67 100 101
f 67 101 102
f 67 102 94
f 68 71 96
f 68 96 69
f 69 103 104
f 69 104 70
f 69 96 105
f 69 105 103
f 71 72 96
f 73 106 78
f 74 78 107
f 74 107 75
f 75 107 76
f 76 108 109
f 76 109 110
f 76 110 77
f 76 107 111
f 76 111 108
f 78 106 112
f 78 112 107
f 79 113 80
f 80 113 114
f 80 114 115
f 80 115 81
f 81 116 82
f 81 115 117
f 81 117 116
f 82 118 83
f 82 116 118
f 83 118 119
f 84 93 120
f 84 120 121
f 84 121 85
f 85 121 122
f 85 122 86
f 86 122 87
f 87 122 123
f 88 124 89
f 89 125 126
f 89 126 91
f 89 91 90
f 89 124 127
f 89 127 128
f 89 128 129
f 89 129 130
f 89 130 125
f 91 126 131
f 91 131 132
f 91 132 133
f 91 133 92
f 92 133 121
f 92 121 120
f 92 120 93
f 94 102 134
f 94 134 121
f 94 121 132
f 94 132 135
f 94 135 136
f 94 136 137
f 94 137 95
f 95 137 96
f 96 138 139
f 96 139 140
f 96 140 141
f 96 141 105
f 96 137 142
f 96 142 143
f 96 143 138
f 97 99 98
f 100 144 122
f 100 122 145
f 100 145 102
f 100 102 101
f 102 145 121
f 102 121 134
f 103 105 146
f 103 146 147
f 103 147 104
f 105 141 140
f 105 140 148
f 105 148 146
f 106 149 112
f 107 150 111
f 107 112 151
f 107 151 150
f 108 152 109
f 108 111 153
f 108 153 154
f 108 154 136
f 108 136 130
f 108 130 152
f 109 155 156
f 109 156 115
f 109 115 114
f 109 114 110
f 109 152 155
f 110 114 113
f 111 150 151
f 111 151 138
f 111 138 143
f 111 143 142
f 111 142 137
f 111 137 153
f 112 149 157
f 112 157 151
f 115 156 155
f 115 155 117
f 116 117 118
f 117 155 158
f 117 158 118
f 118 158 159
f 118 159 160
f 118 160 127
f 118 127 124
f 118 124 119
f 121 145 161
f 121 161 122
f 121 133 132
f 122 144 123
f 122 161 145
f 125 131 126
f 125 130 131
f 127 160 128
f 128 159 162
f 128 162 152
f 128 152 129
f 128 160 159
f 129 152 130
f 130 136 132
f 130 132 131
f 132 136 135
f 136 154 137
f 137 154 153
f 138 151 147
f 138 147 140
f 138 140 139
f 140 147 146
f 140 146 148
f 147 151 163
f 151 157 164
f 151 164 163
f 152 162 158
f 152 158 155
f 158 162 159
