v -0.230209 0.48206 0.260161
v -0.197197 0.48206 0.286943
v -0.202961 0.510945 0.266414
v -0.21064 0.510945 0.260161
v -0.175173 0.48206 0.260161
v -0.195598 0.48206 0.288225
v -0.184834 0.510945 0.281109
v -0.189878 0.510945 0.277027
v -0.161189 0.510945 0.260161
v -0.165828 0.482077 0.260161
v -0.165063 0.48206 0.260737
v -0.185802 0.48206 0.295699
v -0.178776 0.510945 0.285932
v -0.179722 0.510945 0.28519
v -0.000182049 0.510945 0.30565
v -0.000182049 0.48206 0.309775
v -0.180803 0.48206 0.299013
v -0.178439 0.488046 0.297609
v -0.17756 0.510945 0.286612
v -0.000182049 0.510945 0.336409
v -0.000182049 0.48206 0.348784
v -0.17371 0.48206 0.302528
v -0.172404 0.510945 0.289359
v -0.157722 0.510945 0.296266
v -0.16137 0.510945 0.294618
v -0.000182049 0.48648 0.346935
v -0.000925155 0.510945 0.33647
v -0.0059693 0.48206 0.349246
v -0.15011 0.48206 0.313063
v -0.137005 0.48225 0.318827
v -0.137568 0.510945 0.305284
v -0.0059693 0.510945 0.33688
v -0.0185121 0.48206 0.348496
v -0.0152695 0.489414 0.345828
v -0.11264 0.48206 0.32979
v -0.113202 0.510945 0.316141
v -0.0119592 0.510945 0.33654
v -0.0775557 0.48206 0.339086
v -0.0178816 0.510945 0.336165
v -0.0653732 0.510945 0.328708
v -0.0775782 0.510945 0.326772
v -0.0849192 0.510945 0.325604
v -0.0655083 0.48223 0.340935
v -0.105434 0.48206 0.332807
v -0.0980926 0.510945 0.322604
v -0.104082 0.510945 0.320092
v -0.0893103 0.48206 0.337211
v -0.0893103 0.510945 0.324793
v -0.0954804 0.488354 0.333461
v -0.0999166 0.48206 0.334743
f 1 2 3
f 1 3 4
f 1 4 9
f 1 9 10
f 1 10 5
f 1 5 11
f 1 11 16
f 1 16 21
f 1 21 28
f 1 28 33
f 1 33 38
f 1 38 47
f 1 47 50
f 1 50 44
f 1 44 35
f 1 35 29
f 1 29 22
f 1 22 17
f 1 17 12
f 1 12 6
f 1 6 2
f 2 6 7
f 2 7 8
f 2 8 3
f 3 8 7
f 3 7 14
f 3 14 13
f 3 13 19
f 3 19 23
f 3 23 25
f 3 25 24
f 3 24 31
f 3 31 36
f 3 36 46
f 3 46 45
f 3 45 48
f 3 48 42
f 3 42 41
f 3 41 40
f 3 40 39
f 3 39 37
f 3 37 32
f 3 32 27
f 3 27 20
f 3 20 15
f 3 15 9
f 3 9 4
f 5 10 11
f 6 12 13
f 6 13 14
f 6 14 7
f 9 15 10
f 10 15 16
f 10 16 11
f 12 17 18
f 12 18 13
f 13 18 19
f 15 20 26
f 15 26 21
f 15 21 16
f 17 22 18
f 18 23 19
f 18 22 24
f 18 24 25
f 18 25 23
f 20 27 26
f 21 26 28
f 22 29 30
f 22 30 31
f 22 31 24
f 26 27 32
f 26 32 28
f 28 32 34
f 28 34 33
f 29 35 30
f 30 35 31
f 31 35 36
f 32 37 34
f 33 34 39
f 33 39 40
f 33 40 41
f 33 41 42
f 33 42 43
f 33 43 38
f 34 37 39
f 35 44 45
f 35 45 46
f 35 46 36
f 38 43 42
f 38 42 47
f 42 48 49
f 42 49 47
f 44 50 45
f 45 50 49
f 45 49 48
f 47 49 50
