v 0.0677013 -0.518269 -0.301011
v 0.000149504 -0.518269 -0.309807
v 0.000149504 -0.529858 -0.309837
v 0.0416685 -0.529858 -0.304523
v 0.0677013 -0.527646 -0.301296
v 0.0677013 -0.518269 -0.324982
v 0.000149504 -0.518269 -0.333756
v 0.00902989 -0.536833 -0.309207
v 0.000149504 -0.540441 -0.314453
v 0.0677013 -0.529858 -0.301364
v 0.0677013 -0.526175 -0.321567
v 0.0368811 -0.538747 -0.377683
v 0.0368811 -0.534767 -0.377683
v 0.0297728 -0.533369 -0.377683
v 0.0387127 -0.518269 -0.335497
v 0.016568 -0.518269 -0.335655
v 0.000149504 -0.533015 -0.377683
v 0.017864 -0.538126 -0.308621
v 0.000149504 -0.54577 -0.327444
v 0.017864 -0.543118 -0.315533
v 0.0297728 -0.539405 -0.307841
v 0.0416685 -0.540177 -0.307053
v 0.0677013 -0.538506 -0.304696
v 0.0677013 -0.530962 -0.319308
v 0.0353999 -0.539578 -0.377683
v 0.0677013 -0.533083 -0.318153
v 0.0677013 -0.540422 -0.313304
v 0.017864 -0.533015 -0.377683
v 0.0297728 -0.518269 -0.337096
v 0.000149504 -0.543374 -0.377683
v 0.00595515 -0.545816 -0.327444
v 0.0297728 -0.544359 -0.315533
v 0.0535773 -0.540457 -0.306445
v 0.0677013 -0.540422 -0.305649
v 0.0297728 -0.542527 -0.377683
v 0.0297728 -0.545544 -0.327444
v 0.0297728 -0.542724 -0.375064
v 0.017864 -0.543374 -0.377683
v 0.017864 -0.545835 -0.327444
v 0.0654861 -0.540482 -0.305844
v 0.0271543 -0.542867 -0.377683
f 1 2 3
f 1 3 4
f 1 4 5
f 1 5 10
f 1 10 23
f 1 23 34
f 1 34 27
f 1 27 26
f 1 26 24
f 1 24 11
f 1 11 6
f 1 6 15
f 1 15 29
f 1 29 16
f 1 16 7
f 1 7 2
f 2 7 17
f 2 17 30
f 2 30 19
f 2 19 9
f 2 9 3
f 3 8 4
f 3 9 8
f 4 10 5
f 4 8 10
f 6 11 12
f 6 12 13
f 6 13 14
f 6 14 15
f 7 16 17
f 8 18 10
f 8 9 18
f 9 19 20
f 9 20 21
f 9 21 18
f 10 18 21
f 10 21 22
f 10 22 23
f 11 24 12
f 12 25 35
f 12 35 41
f 12 41 38
f 12 38 30
f 12 30 17
f 12 17 28
f 12 28 14
f 12 14 13
f 12 24 26
f 12 26 27
f 12 27 25
f 14 28 29
f 14 29 15
f 16 29 17
f 17 29 28
f 19 31 32
f 19 32 20
f 19 30 31
f 20 32 22
f 20 22 21
f 22 33 23
f 22 32 33
f 23 33 34
f 25 27 35
f 27 34 36
f 27 36 37
f 27 37 35
f 30 38 39
f 30 39 31
f 31 39 32
f 32 39 36
f 32 36 34
f 32 34 40
f 32 40 33
f 33 40 34
f 35 37 41
f 36 39 38
f 36 38 41
f 36 41 37
