v -0.000159533 -0.188582 0.568946
v 0.136891 -0.188556 0.55361
v 0.129043 -0.188582 0.555176
v -0.000159533 -0.188582 0.581386
v -0.000159533 0.0790457 0.583552
v 0.00293939 0.0790457 0.58307
v 0.136891 -0.188582 0.566204
v 0.136891 0.0790457 0.568084
v 0.0495573 -0.188582 0.577096
v -0.000159533 -0.183107 0.583125
v -0.000159533 0.0790457 0.596577
v 0.136891 -0.188582 0.566263
v 0.136891 0.0790457 0.579911
v 0.0614701 -0.188582 0.576015
v -0.000159533 -0.181064 0.58372
v 0.000336831 0.0790457 0.596527
v -0.000159533 0.0775001 0.59665
v 0.119518 -0.178916 0.57158
v 0.106907 -0.188582 0.571062
v 0.136891 -0.158089 0.571738
v 0.131779 -0.168044 0.571725
v 0.129995 0.0790457 0.581963
v 0.136891 0.0790195 0.580197
v 0.0998108 -0.188582 0.572156
v 0.00202715 -0.180042 0.583647
v -0.000159533 -0.172786 0.5849
v 0.0654946 -0.184548 0.576369
v 0.101689 -0.185229 0.572506
v 0.12255 0.0790457 0.583801
v -0.000159533 0.0474522 0.598053
v -0.000159533 0.029743 0.598879
v 0.0178705 0.0178496 0.597558
v 0.00598465 -0.172969 0.584237
v 0.113105 -0.181195 0.571916
v 0.124092 -0.172262 0.572043
v 0.136891 -0.151514 0.572851
v 0.136891 -0.136948 0.574953
v 0.136891 -0.125055 0.576542
v 0.118954 -0.0950068 0.583347
v 0.125018 -0.136922 0.576878
v 0.125018 -0.148815 0.575248
v 0.125018 -0.160735 0.573573
v 0.130465 0.0702959 0.583043
v 0.131712 0.0623582 0.58357
v 0.136891 0.0666283 0.581459
v -0.000159533 -0.154945 0.587415
v 0.125018 0.029743 0.585844
v 0.125903 0.0659996 0.58406
v -0.000159533 0.0178496 0.599433
v 0.00595782 0.0178496 0.598797
v -0.000159533 0.00593001 0.599987
v 0.125018 0.00593001 0.586952
v 0.125018 0.0178496 0.586398
v 0.101206 -0.160735 0.576052
v 0.0178705 -0.136922 0.588078
v 0.136891 -0.113135 0.577804
v 0.00146371 -0.0963429 0.595497
v 0.111013 -0.0981242 0.583838
v 0.131712 -0.0623654 0.58357
v 0.120752 -0.0870691 0.583611
v 0.114232 -0.0903438 0.584133
v 0.0977449 -0.108996 0.583697
v 0.0654946 -0.113109 0.586475
v 0.136891 0.029743 0.58411
v 0.136891 0.0416626 0.58327
v 0.136891 0.0535561 0.582426
v 0.136891 0.00590382 0.585304
v 0.136891 0.0251062 0.584392
v -0.000159533 -0.097155 0.595547
v -0.000159533 -0.0059634 0.599987
v 0.0400862 -0.0059634 0.595796
v 0.125018 -0.0059634 0.586952
v 0.0535819 -0.113109 0.587715
v 0.136891 -0.101242 0.578826
v -0.000159533 -0.0892959 0.596096
v 0.125903 -0.0659806 0.58406
v 0.136891 -0.0378189 0.583661
v 0.136891 -0.0289643 0.584205
v 0.136891 -0.0251396 0.584396
v 0.136891 -0.00601579 0.5853
v 0.125018 -0.017883 0.586398
v 0.122925 -0.0773763 0.583838
v 0.113105 -0.0654829 0.585418
v 0.101206 -0.0654829 0.586657
v 0.012974 -0.0738135 0.595456
v 0.101206 -0.0892959 0.58554
v -0.000159533 -0.017883 0.599433
v 0.00595782 -0.017883 0.598797
v 0.0178705 -0.017883 0.597558
v 0.00672248 -0.077612 0.595928
v -0.000159533 -0.0774811 0.59665
v 0.125018 -0.0297764 0.585844
v 0.125018 -0.0535894 0.584732
v 0.0892933 -0.041696 0.589009
v 0.00595782 -0.0535894 0.597131
v -0.000159533 -0.0535894 0.597767
f 1 2 3
f 1 3 7
f 1 7 12
f 1 12 19
f 1 19 24
f 1 24 14
f 1 14 9
f 1 9 4
f 1 4 10
f 1 10 15
f 1 15 26
f 1 26 46
f 1 46 69
f 1 69 75
f 1 75 91
f 1 91 96
f 1 96 87
f 1 87 70
f 1 70 51
f 1 51 49
f 1 49 31
f 1 31 30
f 1 30 17
f 1 17 11
f 1 11 5
f 1 5 6
f 1 6 2
f 2 7 3
f 2 6 8
f 2 8 13
f 2 13 23
f 2 23 45
f 2 45 66
f 2 66 65
f 2 65 64
f 2 64 68
f 2 68 67
f 2 67 80
f 2 80 79
f 2 79 78
f 2 78 77
f 2 77 74
f 2 74 56
f 2 56 38
f 2 38 37
f 2 37 36
f 2 36 20
f 2 20 12
f 2 12 7
f 4 9 10
f 5 11 16
f 5 16 29
f 5 29 22
f 5 22 13
f 5 13 8
f 5 8 6
f 9 14 15
f 9 15 10
f 11 17 16
f 12 18 19
f 12 20 21
f 12 21 18
f 13 22 23
f 14 24 15
f 15 25 26
f 15 24 27
f 15 27 28
f 15 28 25
f 16 17 30
f 16 30 31
f 16 31 32
f 16 32 29
f 18 33 25
f 18 25 34
f 18 34 24
f 18 24 19
f 18 21 35
f 18 35 33
f 20 36 21
f 21 36 37
f 21 37 38
f 21 38 39
f 21 39 40
f 21 40 41
f 21 41 42
f 21 42 35
f 22 29 43
f 22 43 23
f 23 43 44
f 23 44 45
f 24 34 28
f 24 28 27
f 25 28 34
f 25 33 26
f 26 33 46
f 29 47 48
f 29 48 44
f 29 44 43
f 29 32 47
f 31 49 50
f 31 50 32
f 32 50 51
f 32 51 52
f 32 52 53
f 32 53 47
f 33 35 54
f 33 54 55
f 33 55 46
f 35 42 54
f 38 56 39
f 39 57 58
f 39 58 41
f 39 41 40
f 39 56 59
f 39 59 60
f 39 60 61
f 39 61 57
f 41 58 42
f 42 58 62
f 42 62 63
f 42 63 54
f 44 64 65
f 44 65 66
f 44 66 45
f 44 48 53
f 44 53 52
f 44 52 67
f 44 67 68
f 44 68 64
f 46 55 57
f 46 57 69
f 47 53 48
f 49 51 50
f 51 70 71
f 51 71 52
f 52 71 72
f 52 72 67
f 54 63 55
f 55 63 73
f 55 73 57
f 56 74 59
f 57 73 63
f 57 63 62
f 57 62 58
f 57 61 75
f 57 75 69
f 59 76 60
f 59 74 77
f 59 77 78
f 59 78 79
f 59 79 80
f 59 80 72
f 59 72 81
f 59 81 76
f 60 76 82
f 60 82 83
f 60 83 84
f 60 84 85
f 60 85 75
f 60 75 86
f 60 86 61
f 61 86 75
f 67 72 80
f 70 87 88
f 70 88 89
f 70 89 71
f 71 89 72
f 72 89 81
f 75 85 90
f 75 90 91
f 76 81 92
f 76 92 93
f 76 93 82
f 81 89 92
f 82 93 83
f 83 93 92
f 83 92 94
f 83 94 84
f 84 94 85
f 85 94 95
f 85 95 91
f 85 91 90
f 87 96 95
f 87 95 88
f 88 95 89
f 89 94 92
f 89 95 94
f 91 95 96
