v -0.000186821 0.48206 0.478488
v -0.000186821 0.48206 0.463672
v -0.00201568 0.48206 0.478714
v -0.000186821 0.481718 0.478714
v -0.000186821 0.323186 0.532807
v -0.27902 0.426744 0.403048
v -0.228194 0.48206 0.403048
v -0.000186821 0.475746 0.482093
v -0.00701092 0.48206 0.479238
v -0.000186821 0.323186 0.546096
v -0.27902 0.323186 0.455005
v -0.27902 0.458344 0.403048
v -0.258547 0.48206 0.403048
v -0.00597366 0.471143 0.485289
v -0.000186821 0.464658 0.488342
v -0.0168103 0.48206 0.479096
v -0.0178749 0.465063 0.488569
v -0.00597366 0.465187 0.488639
v -0.000186821 0.332688 0.543113
v -0.00862142 0.323186 0.547454
v -0.27902 0.323186 0.470585
v -0.27902 0.453943 0.405805
v -0.276345 0.455732 0.406879
v -0.268401 0.459106 0.41122
v -0.273288 0.463663 0.40432
v -0.276481 0.461579 0.403048
v -0.253225 0.48206 0.407134
v -0.259776 0.480707 0.403048
v -0.265344 0.468188 0.407614
v -0.000186821 0.458826 0.491198
v -0.00597366 0.458406 0.49199
v -0.0203589 0.48206 0.478587
v -0.0238801 0.464378 0.488187
v -0.0178749 0.471019 0.485204
v -0.0178749 0.458406 0.491849
v -0.000186821 0.350759 0.537359
v -0.00600096 0.352065 0.537529
v -0.0100135 0.357804 0.536002
v -0.0155001 0.323186 0.547482
v -0.264498 0.323186 0.477386
v -0.27902 0.323668 0.470415
v -0.27902 0.446105 0.4104
v -0.271459 0.449076 0.414811
v -0.263515 0.45455 0.417992
v -0.260158 0.462497 0.415546
v -0.27023 0.468904 0.403048
v -0.252215 0.466384 0.417992
v -0.247356 0.474316 0.415518
v -0.243671 0.48206 0.412351
v -0.268347 0.47105 0.403048
v -0.000186821 0.43455 0.502325
v -0.00938572 0.441144 0.500346
v -0.014108 0.441144 0.500346
v -0.0416774 0.48206 0.475237
v -0.0297761 0.479976 0.478375
v -0.0416774 0.455607 0.4897
v -0.0286297 0.458857 0.490166
v -0.0891732 0.48206 0.467758
v -0.0893096 0.471625 0.473653
v -0.0964067 0.464674 0.476452
v -0.113139 0.456136 0.47805
v -0.000186821 0.375081 0.528509
v -0.0139169 0.357804 0.536002
v -0.00597366 0.375081 0.528975
v -0.00597366 0.384319 0.52537
v -0.0178749 0.352096 0.537543
v -0.0297761 0.349001 0.537062
v -0.0297761 0.33936 0.540243
v -0.0211232 0.323186 0.546648
v -0.212498 0.323186 0.5006
v -0.232125 0.327136 0.490392
v -0.274352 0.345938 0.464605
v -0.277 0.33936 0.465821
v -0.27902 0.337851 0.465411
v -0.27902 0.445514 0.410739
v -0.27427 0.441144 0.417087
v -0.27498 0.41833 0.429571
v -0.264171 0.431673 0.430136
v -0.260922 0.43962 0.428016
v -0.275662 0.395532 0.441913
v -0.252979 0.443259 0.429967
v -0.240723 0.454674 0.429811
v -0.22803 0.465685 0.429472
v -0.239413 0.477208 0.417327
v -0.243671 0.481594 0.412648
v -0.232179 0.48206 0.417539
v -0.000186821 0.38365 0.525073
v -0.0179841 0.435499 0.50241
v -0.0178749 0.384303 0.52537
v -0.0297761 0.432809 0.501957
v -0.125041 0.454208 0.477103
v -0.0536059 0.453663 0.488752
v -0.12586 0.48206 0.461904
v -0.130991 0.47626 0.464379
v -0.125041 0.460148 0.474021
v -0.0178749 0.375081 0.528989
v -0.0297761 0.375081 0.527689
v -0.042469 0.340355 0.537995
v -0.0628048 0.3704 0.524409
v -0.0662715 0.364164 0.526077
v -0.066599 0.328598 0.538151
v -0.0710756 0.323186 0.539197
v -0.210533 0.323186 0.501477
v -0.181845 0.325441 0.513452
v -0.263133 0.358674 0.464916
v -0.170162 0.33936 0.513536
v -0.192135 0.347275 0.500812
v -0.275935 0.371987 0.453733
v -0.27902 0.342361 0.463615
v -0.27902 0.426277 0.421738
v -0.27902 0.422047 0.424156
v -0.27902 0.405967 0.433331
v -0.27902 0.393152 0.440613
v -0.272551 0.403447 0.439736
v -0.272687 0.379918 0.451739
v -0.264771 0.383619 0.453733
v -0.27902 0.387927 0.443341
v -0.27902 0.374817 0.450156
v -0.228221 0.442388 0.441461
v -0.199123 0.449449 0.451004
v -0.215965 0.453865 0.441291
v -0.158479 0.455592 0.466033
v -0.211215 0.461812 0.439185
v -0.203272 0.465 0.440952
v -0.207694 0.46951 0.436216
v -0.232179 0.479836 0.418939
v -0.220387 0.48206 0.422841
v -0.230514 0.48206 0.418289
v -0.0297761 0.382531 0.524578
v -0.059966 0.45259 0.488243
v -0.0645791 0.446945 0.490053
v -0.0495388 0.42931 0.500388
v -0.132274 0.452963 0.476509
v -0.12616 0.48206 0.461848
v -0.136942 0.48206 0.459232
v -0.136942 0.468935 0.467051
v -0.0366002 0.381333 0.524027
v -0.0410223 0.375563 0.525738
v -0.0536059 0.372189 0.525144
v -0.0871805 0.359001 0.524507
v -0.136942 0.335456 0.524606
v -0.0774084 0.32597 0.537331
v -0.125041 0.372811 0.513508
v -0.136942 0.370509 0.512547
v -0.143138 0.369265 0.512052
v -0.136942 0.363169 0.515148
v -0.0805748 0.323186 0.537769
v -0.182691 0.323186 0.513862
v -0.157387 0.323186 0.524918
v -0.157005 0.324057 0.524776
v -0.231551 0.362158 0.477725
v -0.255927 0.362858 0.466584
v -0.251914 0.371038 0.465227
v -0.156131 0.358861 0.512589
v -0.16735 0.346124 0.512292
v -0.180916 0.360012 0.501109
v -0.268401 0.375595 0.455627
v -0.27902 0.369669 0.452729
v -0.223171 0.378021 0.474925
v -0.239986 0.382748 0.465213
v -0.157769 0.383759 0.50142
v -0.22773 0.394334 0.465057
v -0.195684 0.445887 0.454284
v -0.172646 0.443415 0.465764
v -0.19118 0.453057 0.452771
v -0.178514 0.4643 0.452375
v -0.145977 0.443399 0.477583
v -0.145813 0.466493 0.465679
v -0.157169 0.478017 0.453535
v -0.154384 0.48206 0.452291
v -0.109127 0.381722 0.512306
v -0.087044 0.44186 0.488767
v -0.122065 0.429698 0.488654
v -0.136532 0.45752 0.47313
v -0.14019 0.451346 0.475392
v -0.136532 0.447023 0.478418
v -0.136942 0.421114 0.490138
v -0.137133 0.48206 0.459162
v -0.143821 0.333854 0.524055
v -0.136942 0.327447 0.527335
v -0.136942 0.395983 0.501448
v -0.14494 0.394256 0.500685
v -0.14887 0.387429 0.502664
v -0.147806 0.373977 0.508758
v -0.151081 0.366808 0.510836
v -0.147806 0.362967 0.513225
v -0.148215 0.327789 0.525412
v -0.0893096 0.323186 0.536369
v -0.148434 0.323186 0.52684
v -0.202399 0.36911 0.488159
v -0.227157 0.370089 0.476693
v -0.169698 0.372142 0.50142
v -0.161318 0.375688 0.503371
v -0.19047 0.380991 0.48813
v -0.215228 0.381877 0.476679
v -0.158233 0.431829 0.47781
v -0.145595 0.418952 0.489177
v -0.148215 0.48206 0.455019
v -0.12414 0.399342 0.501986
f 1 2 7
f 1 7 13
f 1 13 27
f 1 27 49
f 1 49 86
f 1 86 128
f 1 128 127
f 1 127 170
f 1 170 198
f 1 198 178
f 1 178 135
f 1 135 134
f 1 134 93
f 1 93 58
f 1 58 54
f 1 54 32
f 1 32 16
f 1 16 9
f 1 9 3
f 1 3 4
f 1 4 8
f 1 8 15
f 1 15 30
f 1 30 51
f 1 51 87
f 1 87 62
f 1 62 36
f 1 36 19
f 1 19 10
f 1 10 5
f 1 5 2
f 2 5 6
f 2 6 7
f 3 8 4
f 3 9 8
f 5 10 20
f 5 20 39
f 5 39 69
f 5 69 102
f 5 102 147
f 5 147 188
f 5 188 189
f 5 189 149
f 5 149 148
f 5 148 103
f 5 103 70
f 5 70 40
f 5 40 21
f 5 21 11
f 5 11 6
f 6 11 21
f 6 21 41
f 6 41 74
f 6 74 109
f 6 109 158
f 6 158 118
f 6 118 117
f 6 117 113
f 6 113 112
f 6 112 111
f 6 111 110
f 6 110 75
f 6 75 42
f 6 42 22
f 6 22 12
f 6 12 26
f 6 26 46
f 6 46 50
f 6 50 28
f 6 28 13
f 6 13 7
f 8 9 14
f 8 14 15
f 9 16 17
f 9 17 18
f 9 18 14
f 10 19 20
f 12 22 23
f 12 23 24
f 12 24 25
f 12 25 26
f 13 28 29
f 13 29 27
f 14 18 15
f 15 18 31
f 15 31 30
f 16 32 33
f 16 33 34
f 16 34 17
f 17 35 31
f 17 31 18
f 17 34 33
f 17 33 35
f 19 36 20
f 20 36 37
f 20 37 38
f 20 38 39
f 21 40 41
f 22 42 43
f 22 43 44
f 22 44 23
f 23 44 24
f 24 44 45
f 24 45 25
f 25 46 26
f 25 45 29
f 25 29 46
f 27 47 48
f 27 48 49
f 27 29 45
f 27 45 47
f 28 50 29
f 29 50 46
f 30 31 52
f 30 52 51
f 31 35 53
f 31 53 52
f 32 54 55
f 32 55 33
f 33 56 57
f 33 57 35
f 33 55 58
f 33 58 59
f 33 59 60
f 33 60 61
f 33 61 56
f 35 57 53
f 36 62 38
f 36 38 37
f 38 63 39
f 38 62 64
f 38 64 65
f 38 65 63
f 39 63 66
f 39 66 67
f 39 67 68
f 39 68 69
f 40 70 71
f 40 71 72
f 40 72 73
f 40 73 74
f 40 74 41
f 42 75 43
f 43 76 77
f 43 77 44
f 43 75 76
f 44 78 79
f 44 79 45
f 44 77 80
f 44 80 78
f 45 79 47
f 47 79 81
f 47 81 82
f 47 82 83
f 47 83 48
f 48 84 85
f 48 85 49
f 48 83 84
f 49 85 86
f 51 52 87
f 52 53 65
f 52 65 87
f 53 57 88
f 53 88 89
f 53 89 65
f 54 58 55
f 56 90 57
f 56 61 91
f 56 91 92
f 56 92 90
f 57 90 88
f 58 93 94
f 58 94 59
f 59 94 60
f 60 94 95
f 60 95 91
f 60 91 61
f 62 87 65
f 62 65 64
f 63 65 89
f 63 89 96
f 63 96 97
f 63 97 66
f 66 97 67
f 67 98 68
f 67 97 99
f 67 99 100
f 67 100 98
f 68 98 101
f 68 101 102
f 68 102 69
f 70 103 104
f 70 104 71
f 71 105 72
f 71 104 106
f 71 106 107
f 71 107 105
f 72 108 74
f 72 74 73
f 72 105 108
f 74 108 109
f 75 110 77
f 75 77 76
f 77 110 111
f 77 111 112
f 77 112 113
f 77 113 80
f 78 80 114
f 78 114 79
f 79 114 115
f 79 115 116
f 79 116 81
f 80 108 115
f 80 115 114
f 80 113 117
f 80 117 118
f 80 118 108
f 81 119 120
f 81 120 121
f 81 121 82
f 81 116 119
f 82 121 122
f 82 122 123
f 82 123 83
f 83 123 124
f 83 124 125
f 83 125 84
f 84 126 85
f 84 125 127
f 84 127 126
f 85 126 86
f 86 126 128
f 88 90 129
f 88 129 89
f 89 129 97
f 89 97 96
f 90 92 130
f 90 130 131
f 90 131 132
f 90 132 129
f 91 95 133
f 91 133 130
f 91 130 92
f 93 134 94
f 94 134 135
f 94 135 136
f 94 136 133
f 94 133 95
f 97 129 137
f 97 137 138
f 97 138 139
f 97 139 99
f 98 100 140
f 98 140 141
f 98 141 142
f 98 142 101
f 99 139 143
f 99 143 144
f 99 144 145
f 99 145 100
f 100 145 146
f 100 146 140
f 101 142 147
f 101 147 102
f 103 148 104
f 104 148 149
f 104 149 150
f 104 150 106
f 105 107 151
f 105 151 152
f 105 152 153
f 105 153 108
f 106 150 154
f 106 154 155
f 106 155 107
f 107 155 154
f 107 154 156
f 107 156 151
f 108 157 115
f 108 118 158
f 108 158 109
f 108 153 157
f 115 157 153
f 115 153 116
f 116 153 159
f 116 159 160
f 116 160 161
f 116 161 162
f 116 162 119
f 119 162 163
f 119 163 120
f 120 163 164
f 120 164 165
f 120 165 121
f 121 165 122
f 122 166 123
f 122 165 164
f 122 164 167
f 122 167 168
f 122 168 166
f 123 166 124
f 124 166 168
f 124 168 125
f 125 169 127
f 125 168 169
f 126 127 128
f 127 169 170
f 129 132 171
f 129 171 137
f 130 133 172
f 130 172 131
f 131 172 132
f 132 172 171
f 133 173 172
f 133 136 174
f 133 174 175
f 133 175 176
f 133 176 177
f 133 177 173
f 135 178 168
f 135 168 136
f 136 168 175
f 136 175 174
f 137 171 143
f 137 143 138
f 138 143 139
f 140 146 141
f 141 146 179
f 141 179 180
f 141 180 142
f 142 180 147
f 143 171 144
f 144 171 181
f 144 181 145
f 145 182 183
f 145 183 184
f 145 184 185
f 145 185 154
f 145 154 186
f 145 186 187
f 145 187 179
f 145 179 146
f 145 181 182
f 147 180 188
f 149 189 150
f 150 189 187
f 150 187 186
f 150 186 154
f 151 156 190
f 151 190 152
f 152 190 191
f 152 191 153
f 153 191 192
f 153 192 159
f 154 161 193
f 154 193 192
f 154 192 190
f 154 190 156
f 154 185 161
f 159 192 194
f 159 194 195
f 159 195 160
f 160 195 161
f 161 196 164
f 161 164 163
f 161 163 162
f 161 195 194
f 161 194 192
f 161 192 193
f 161 185 183
f 161 183 197
f 161 197 167
f 161 167 196
f 164 196 167
f 167 197 176
f 167 176 175
f 167 175 168
f 168 178 198
f 168 198 170
f 168 170 169
f 171 172 199
f 171 199 181
f 172 173 199
f 173 177 199
f 176 197 182
f 176 182 177
f 177 182 181
f 177 181 199
f 179 187 180
f 180 187 188
f 182 197 183
f 183 185 184
f 187 189 188
f 190 192 191
