v 0.256253 0.481793 -0.405018
v 0.260785 0.476843 -0.405018
v 0.265357 0.468191 -0.407611
v 0.253806 0.481793 -0.406887
v 0.224307 0.481793 -0.405018
v 0.262209 0.475266 -0.405018
v 0.267061 0.469816 -0.405018
v 0.271614 0.464631 -0.405018
v 0.260163 0.462491 -0.415551
v 0.253325 0.481793 -0.407237
v 0.208084 0.481793 -0.412165
v 0.342403 0.32227 -0.405018
v 0.272797 0.46321 -0.405018
v 0.268405 0.459118 -0.411207
v 0.263532 0.454558 -0.417991
v 0.260945 0.439613 -0.42801
v 0.252222 0.46638 -0.417991
v 0.247369 0.474313 -0.415516
v 0.243699 0.481793 -0.412515
v 0.185283 0.481793 -0.42223
v 0.364341 0.32227 -0.405018
v 0.173752 0.481793 -0.427379
v 0.159474 0.481793 -0.43379
v 0.159474 0.32227 -0.509477
v 0.27769 0.456947 -0.405018
v 0.276366 0.455729 -0.406875
v 0.264174 0.43168 -0.430135
v 0.280959 0.452637 -0.405018
v 0.271473 0.449077 -0.414815
v 0.274963 0.418328 -0.429563
v 0.275664 0.395528 -0.441916
v 0.272536 0.403445 -0.439733
v 0.272697 0.379911 -0.451737
v 0.264755 0.383612 -0.453733
v 0.253004 0.443252 -0.429971
v 0.240751 0.454667 -0.429808
v 0.235999 0.462616 -0.427554
v 0.228057 0.465693 -0.429469
v 0.239428 0.477202 -0.417326
v 0.243158 0.481793 -0.41276
v 0.358145 0.333858 -0.405018
v 0.301473 0.32227 -0.45601
v 0.30037 0.327455 -0.454667
v 0.159474 0.481793 -0.450078
v 0.159474 0.32227 -0.524295
v 0.283285 0.449452 -0.405018
v 0.279996 0.42295 -0.422849
v 0.286413 0.381957 -0.441087
v 0.289361 0.440847 -0.405018
v 0.283606 0.38989 -0.438822
v 0.279856 0.375601 -0.449156
v 0.275945 0.371978 -0.453733
v 0.268405 0.375601 -0.455625
v 0.251941 0.371041 -0.465211
v 0.223184 0.378021 -0.474903
v 0.240009 0.382753 -0.4652
v 0.219655 0.386298 -0.472567
v 0.252523 0.3952 -0.45357
v 0.252763 0.419218 -0.441776
v 0.240511 0.430805 -0.441613
v 0.195691 0.445891 -0.454282
v 0.19914 0.449452 -0.451001
v 0.191219 0.453059 -0.452776
v 0.215985 0.453871 -0.441298
v 0.211232 0.461804 -0.439173
v 0.203291 0.46499 -0.440947
v 0.170584 0.467192 -0.4542
v 0.196473 0.467473 -0.442477
v 0.219294 0.469925 -0.430789
v 0.222683 0.481793 -0.421985
v 0.232188 0.481793 -0.417711
v 0.321948 0.346179 -0.429037
v 0.345511 0.35747 -0.405018
v 0.293953 0.32227 -0.462094
v 0.286213 0.358095 -0.452846
v 0.291567 0.36292 -0.446412
v 0.159474 0.480185 -0.451094
v 0.179849 0.481793 -0.441052
v 0.159474 0.352317 -0.513494
v 0.170183 0.339355 -0.513541
v 0.181874 0.32544 -0.513447
v 0.183077 0.32227 -0.514031
v 0.299247 0.383269 -0.429936
v 0.320003 0.378802 -0.415551
v 0.288679 0.37507 -0.442932
v 0.283866 0.366028 -0.451129
v 0.297884 0.42876 -0.405018
v 0.274341 0.345929 -0.464604
v 0.263151 0.358672 -0.464896
v 0.285471 0.333061 -0.464125
v 0.255952 0.362858 -0.466577
v 0.227175 0.370088 -0.476689
v 0.169702 0.372134 -0.50142
v 0.190477 0.380989 -0.488132
v 0.215243 0.381879 -0.476678
v 0.182556 0.384643 -0.489931
v 0.190978 0.429056 -0.464581
v 0.17267 0.443408 -0.46576
v 0.159474 0.455167 -0.465772
v 0.184561 0.455839 -0.454259
v 0.178525 0.464303 -0.452379
v 0.159474 0.456635 -0.464931
v 0.159474 0.470768 -0.456792
v 0.159474 0.473688 -0.455064
v 0.159474 0.477171 -0.452951
v 0.181954 0.478701 -0.442057
v 0.341841 0.364248 -0.405018
v 0.31144 0.36317 -0.430182
v 0.324735 0.36317 -0.419392
v 0.290765 0.32227 -0.464581
v 0.309755 0.369417 -0.428804
v 0.159474 0.356845 -0.511766
v 0.180932 0.360015 -0.501117
v 0.167375 0.346117 -0.512291
v 0.205698 0.361171 -0.489639
v 0.2139 0.32227 -0.500334
v 0.321687 0.394997 -0.405018
v 0.324515 0.386985 -0.407307
v 0.330792 0.381879 -0.405018
v 0.332276 0.379692 -0.405018
v 0.336547 0.37329 -0.405018
v 0.335424 0.372274 -0.40649
v 0.32259 0.370869 -0.417653
v 0.314889 0.374117 -0.422183
v 0.276988 0.339355 -0.465807
v 0.264916 0.32227 -0.477542
v 0.252904 0.33684 -0.477542
v 0.287697 0.325112 -0.465725
v 0.280197 0.32227 -0.470407
v 0.238405 0.357517 -0.476386
v 0.202409 0.369104 -0.488156
v 0.159474 0.362092 -0.509687
v 0.161359 0.375694 -0.503382
v 0.159474 0.379911 -0.502354
v 0.159474 0.382972 -0.500953
v 0.170283 0.396215 -0.489779
v 0.159474 0.431258 -0.477495
v 0.339054 0.369167 -0.405018
v 0.288759 0.32227 -0.466029
v 0.240992 0.351255 -0.477542
v 0.239708 0.32227 -0.48881
v 0.323051 0.393044 -0.405018
v 0.327282 0.386985 -0.405018
v 0.159474 0.407115 -0.48923
f 1 2 3
f 1 3 4
f 1 4 10
f 1 10 19
f 1 19 40
f 1 40 71
f 1 71 70
f 1 70 78
f 1 78 44
f 1 44 23
f 1 23 22
f 1 22 20
f 1 20 11
f 1 11 5
f 1 5 12
f 1 12 21
f 1 21 41
f 1 41 73
f 1 73 107
f 1 107 138
f 1 138 121
f 1 121 120
f 1 120 119
f 1 119 143
f 1 143 142
f 1 142 117
f 1 117 87
f 1 87 49
f 1 49 46
f 1 46 28
f 1 28 25
f 1 25 13
f 1 13 8
f 1 8 7
f 1 7 6
f 1 6 2
f 2 6 3
f 3 6 7
f 3 7 8
f 3 8 9
f 3 9 4
f 4 9 10
f 5 11 12
f 8 13 9
f 9 13 14
f 9 14 15
f 9 15 16
f 9 16 17
f 9 17 10
f 10 17 18
f 10 18 19
f 11 20 12
f 12 20 22
f 12 22 23
f 12 23 24
f 12 24 45
f 12 45 82
f 12 82 116
f 12 116 141
f 12 141 126
f 12 126 129
f 12 129 139
f 12 139 110
f 12 110 74
f 12 74 42
f 12 42 21
f 13 25 26
f 13 26 14
f 14 26 15
f 15 27 16
f 15 26 28
f 15 28 29
f 15 29 30
f 15 30 31
f 15 31 27
f 16 27 31
f 16 31 32
f 16 32 33
f 16 33 34
f 16 34 35
f 16 35 17
f 17 35 36
f 17 36 37
f 17 37 38
f 17 38 18
f 18 39 19
f 18 38 39
f 19 39 40
f 21 42 43
f 21 43 41
f 23 44 77
f 23 77 105
f 23 105 104
f 23 104 103
f 23 103 102
f 23 102 99
f 23 99 137
f 23 137 144
f 23 144 135
f 23 135 134
f 23 134 132
f 23 132 112
f 23 112 79
f 23 79 45
f 23 45 24
f 25 28 26
f 28 46 29
f 29 47 48
f 29 48 30
f 29 46 49
f 29 49 47
f 30 48 50
f 30 50 31
f 31 51 52
f 31 52 33
f 31 33 32
f 31 50 48
f 31 48 51
f 33 52 53
f 33 53 54
f 33 54 34
f 34 54 55
f 34 55 56
f 34 56 57
f 34 57 58
f 34 58 59
f 34 59 35
f 35 59 60
f 35 60 61
f 35 61 62
f 35 62 63
f 35 63 64
f 35 64 36
f 36 64 65
f 36 65 38
f 36 38 37
f 38 65 66
f 38 66 67
f 38 67 68
f 38 68 69
f 38 69 39
f 39 69 70
f 39 70 71
f 39 71 40
f 41 72 73
f 41 43 72
f 42 74 43
f 43 74 75
f 43 75 76
f 43 76 72
f 44 78 77
f 45 79 80
f 45 80 81
f 45 81 82
f 47 49 83
f 47 83 48
f 48 83 84
f 48 84 85
f 48 85 86
f 48 86 51
f 49 87 83
f 51 86 52
f 52 88 89
f 52 89 54
f 52 54 53
f 52 86 90
f 52 90 88
f 54 89 91
f 54 91 92
f 54 92 93
f 54 93 55
f 55 93 94
f 55 94 95
f 55 95 56
f 56 95 96
f 56 96 57
f 57 96 97
f 57 97 58
f 58 60 59
f 58 97 60
f 60 97 61
f 61 97 98
f 61 98 63
f 61 63 62
f 63 98 99
f 63 99 100
f 63 100 64
f 64 100 65
f 65 100 101
f 65 101 66
f 66 101 67
f 67 101 99
f 67 99 102
f 67 102 103
f 67 103 104
f 67 104 105
f 67 105 77
f 67 77 106
f 67 106 68
f 68 106 69
f 69 106 70
f 70 106 78
f 72 76 73
f 73 76 108
f 73 108 109
f 73 109 107
f 74 110 90
f 74 90 75
f 75 90 86
f 75 86 76
f 76 86 111
f 76 111 108
f 77 78 106
f 79 112 113
f 79 113 114
f 79 114 80
f 80 114 113
f 80 113 115
f 80 115 116
f 80 116 81
f 81 116 82
f 83 87 117
f 83 117 118
f 83 118 84
f 84 118 119
f 84 119 120
f 84 120 121
f 84 121 122
f 84 122 123
f 84 123 124
f 84 124 85
f 85 111 86
f 85 124 123
f 85 123 111
f 88 90 125
f 88 125 126
f 88 126 127
f 88 127 91
f 88 91 89
f 90 110 128
f 90 128 129
f 90 129 126
f 90 126 125
f 91 127 130
f 91 130 115
f 91 115 131
f 91 131 92
f 92 131 93
f 93 113 112
f 93 112 132
f 93 132 133
f 93 133 134
f 93 134 135
f 93 135 94
f 93 131 113
f 94 135 96
f 94 96 95
f 96 135 136
f 96 136 97
f 97 136 98
f 98 136 137
f 98 137 99
f 99 101 100
f 107 109 111
f 107 111 138
f 108 111 109
f 110 139 128
f 111 123 138
f 113 131 115
f 115 130 116
f 116 130 140
f 116 140 127
f 116 127 141
f 117 142 118
f 118 142 143
f 118 143 119
f 121 138 122
f 122 138 123
f 126 141 127
f 127 140 130
f 128 139 129
f 132 134 133
f 135 144 136
f 136 144 137
