v -0.442205 0.0790456 -9.55442e-05
v -0.441574 0.0790456 0.00604144
v -0.440638 0.0851396 0.0127452
v -0.441758 0.08925 -9.55442e-05
v -0.309789 0.0790456 -9.55442e-05
v -0.44076 0.0790456 0.0139179
v -0.432456 0.0893217 0.0893207
v -0.437422 0.0893217 0.0416907
v -0.438664 0.0893217 0.0297685
v -0.441086 0.0892022 0.0065496
v -0.432904 0.0790456 0.0893207
v -0.440435 0.0930975 0.0108885
v -0.441371 0.0950572 -9.55442e-05
v -0.234301 0.0790456 0.199571
v -0.309789 0.323186 -9.55442e-05
v -0.430645 0.0893217 0.101204
v -0.4315 0.101223 0.0893207
v -0.431093 0.0790456 0.101204
v -0.440862 0.0980205 0.0029534
v -0.441025 0.0993349 -9.55442e-05
v -0.394539 0.0790456 0.199571
v -0.234301 0.323186 0.199571
v -0.402212 0.323186 -9.55442e-05
v -0.429037 0.0893217 0.108201
v -0.428813 0.0966822 0.107595
v -0.429627 0.100864 0.101556
v -0.429098 0.113124 0.0975098
v -0.428732 0.119863 0.0956922
v -0.428284 0.127797 0.0918615
v -0.428264 0.139459 0.0796852
v -0.430869 0.0790456 0.102161
v -0.428935 0.147824 0.0643232
v -0.436222 0.13695 0.00596326
v -0.436181 0.142805 -9.55442e-05
v -0.395272 0.0790456 0.197676
v -0.394437 0.0815788 0.199571
v -0.349315 0.323186 0.199571
v -0.402192 0.323186 0.000334431
v -0.404756 0.313675 -9.55442e-05
v -0.418535 0.0893217 0.13568
v -0.429281 0.0790456 0.108826
v -0.428325 0.104616 0.105758
v -0.413508 0.0893217 0.148834
v -0.393969 0.0914247 0.199571
v -0.393073 0.101223 0.199571
v -0.405244 0.101223 0.167772
v -0.418759 0.16092 0.113986
v -0.418352 0.172653 0.111386
v -0.417558 0.184578 0.109315
v -0.421466 0.172653 0.101204
v -0.423562 0.172653 0.0893207
v -0.42865 0.154826 0.0595739
v -0.432334 0.160752 0.0178659
v -0.432232 0.172653 0.00596326
v -0.432843 0.172653 -9.55442e-05
v -0.405672 0.0790456 0.170528
v -0.394132 0.0881268 0.199571
v -0.403474 0.0893217 0.175043
v -0.351187 0.323186 0.196816
v -0.3554 0.304426 0.199571
v -0.401886 0.323186 0.0035202
v -0.410557 0.291712 -9.55442e-05
v -0.405163 0.310879 0.00336384
v -0.422524 0.0790456 0.126494
v -0.413976 0.0790456 0.148834
v -0.391832 0.111666 0.199571
v -0.39175 0.113124 0.199337
v -0.387212 0.160752 0.196464
v -0.391913 0.148851 0.187864
v -0.40557 0.172653 0.144808
v -0.416072 0.172653 0.117348
v -0.392585 0.175832 0.17774
v -0.405082 0.180372 0.143557
v -0.415278 0.184578 0.115276
v -0.404491 0.188307 0.142013
v -0.416988 0.191843 0.107829
v -0.419919 0.184578 0.101204
v -0.422076 0.184578 0.0893207
v -0.428589 0.17815 0.0352214
v -0.427287 0.172653 0.0535933
v -0.430747 0.184578 0.00596326
v -0.431357 0.184578 -9.55442e-05
v -0.353813 0.323186 0.192594
v -0.357904 0.312097 0.191754
v -0.354037 0.315849 0.196014
v -0.35599 0.30249 0.199571
v -0.401622 0.323186 0.00623688
v -0.409966 0.291712 0.00596326
v -0.413548 0.279811 -9.55442e-05
v -0.406466 0.304665 0.00678413
v -0.403698 0.315132 0.00678413
v -0.383813 0.178102 0.199571
v -0.385787 0.172653 0.196464
v -0.38422 0.184578 0.196464
v -0.382551 0.187709 0.199571
v -0.418006 0.196073 0.101262
v -0.381676 0.192871 0.199571
v -0.391242 0.197101 0.172404
v -0.409498 0.19648 0.125009
v -0.40268 0.232016 0.124364
v -0.400034 0.244084 0.125009
v -0.399851 0.267886 0.113106
v -0.405102 0.251468 0.107888
v -0.404329 0.259403 0.105699
v -0.404898 0.274195 0.0955163
v -0.417293 0.205393 0.097373
v -0.420143 0.19648 0.0893207
v -0.428447 0.189167 0.0220093
v -0.427042 0.184578 0.0416907
v -0.428996 0.181233 0.0272863
v -0.428854 0.191724 0.0140547
v -0.430645 0.189191 -9.55442e-05
v -0.356459 0.323186 0.187845
v -0.356764 0.320031 0.189447
v -0.364437 0.279811 0.196464
v -0.36055 0.291999 0.197206
v -0.359593 0.290589 0.199571
v -0.358514 0.294198 0.199571
v -0.368324 0.279811 0.188451
v -0.369077 0.273741 0.190444
v -0.400421 0.323186 0.0178659
v -0.404797 0.285619 0.0711247
v -0.405713 0.289084 0.0535933
v -0.405998 0.302084 0.0178659
v -0.412958 0.279811 0.00596326
v -0.414566 0.275127 -9.55442e-05
v -0.380658 0.197866 0.199571
v -0.371845 0.269033 0.185714
v -0.392544 0.272021 0.130012
v -0.397164 0.279811 0.113106
v -0.403474 0.267886 0.103275
v -0.40213 0.278808 0.100168
v -0.398406 0.291712 0.101204
v -0.393847 0.312958 0.0977639
v -0.392748 0.320916 0.0941286
v -0.401235 0.291712 0.0893207
v -0.40382 0.281651 0.0893207
v -0.405265 0.275677 0.0893207
v -0.406791 0.267886 0.0893207
v -0.40903 0.255985 0.0893207
v -0.41654 0.213328 0.0935228
v -0.423867 0.19648 0.0535933
v -0.429281 0.19397 0.00596326
v -0.429566 0.195763 -9.55442e-05
v -0.358616 0.323186 0.182353
v -0.359634 0.315849 0.185108
v -0.366839 0.291569 0.184131
v -0.362605 0.279811 0.199571
v -0.361608 0.283515 0.199571
v -0.367225 0.269033 0.196327
v -0.367938 0.258853 0.199571
v -0.370604 0.279811 0.182509
v -0.369607 0.287506 0.17989
v -0.370482 0.246832 0.199571
v -0.368548 0.255985 0.199571
v -0.383263 0.279979 0.149342
v -0.381574 0.276107 0.156261
v -0.380048 0.200805 0.199571
v -0.398386 0.323186 0.03743
v -0.404471 0.284256 0.0773985
v -0.402538 0.291712 0.0773985
v -0.394437 0.323186 0.0753463
v -0.415889 0.268914 -9.55442e-05
v -0.393908 0.279811 0.121628
v -0.393073 0.286288 0.119458
v -0.394356 0.290852 0.112794
v -0.391486 0.316375 0.101516
v -0.389634 0.323186 0.101321
v -0.391262 0.323186 0.0965912
v -0.392361 0.323186 0.0925455
v -0.394559 0.316375 0.0898288
v -0.393297 0.322899 0.0861936
v -0.393257 0.323186 0.0858808
v -0.394213 0.323186 0.0773985
v -0.41424 0.267886 0.0178659
v -0.411757 0.267886 0.0416907
v -0.411513 0.255985 0.0654959
v -0.422158 0.232183 0.00596326
v -0.428487 0.20157 -9.55442e-05
v -0.362076 0.323186 0.173323
v -0.368589 0.323186 0.156319
v -0.380577 0.284041 0.153642
v -0.416968 0.263202 -9.55442e-05
v -0.416886 0.262796 0.00154619
v -0.415624 0.267217 0.00568964
v -0.372965 0.323186 0.144886
v -0.416479 0.260574 0.00948128
v -0.41766 0.256368 0.00568964
f 1 2 3
f 1 3 4
f 1 4 13
f 1 13 20
f 1 20 34
f 1 34 55
f 1 55 82
f 1 82 112
f 1 112 144
f 1 144 179
f 1 179 183
f 1 183 163
f 1 163 126
f 1 126 89
f 1 89 62
f 1 62 39
f 1 39 23
f 1 23 15
f 1 15 5
f 1 5 14
f 1 14 21
f 1 21 35
f 1 35 56
f 1 56 65
f 1 65 64
f 1 64 41
f 1 41 31
f 1 31 18
f 1 18 11
f 1 11 6
f 1 6 2
f 2 6 3
f 3 7 8
f 3 8 9
f 3 9 10
f 3 10 4
f 3 6 11
f 3 11 7
f 4 10 12
f 4 12 13
f 5 15 22
f 5 22 14
f 7 16 17
f 7 17 12
f 7 12 8
f 7 11 18
f 7 18 16
f 8 12 9
f 9 12 10
f 12 17 19
f 12 19 13
f 13 19 20
f 14 22 37
f 14 37 60
f 14 60 86
f 14 86 118
f 14 118 117
f 14 117 149
f 14 149 148
f 14 148 151
f 14 151 155
f 14 155 154
f 14 154 158
f 14 158 127
f 14 127 97
f 14 97 95
f 14 95 92
f 14 92 66
f 14 66 45
f 14 45 44
f 14 44 57
f 14 57 36
f 14 36 21
f 15 23 38
f 15 38 61
f 15 61 87
f 15 87 121
f 15 121 159
f 15 159 162
f 15 162 174
f 15 174 173
f 15 173 170
f 15 170 169
f 15 169 168
f 15 168 186
f 15 186 181
f 15 181 180
f 15 180 145
f 15 145 113
f 15 113 83
f 15 83 59
f 15 59 37
f 15 37 22
f 16 24 25
f 16 25 26
f 16 26 17
f 16 18 24
f 17 26 27
f 17 27 28
f 17 28 29
f 17 29 30
f 17 30 19
f 18 31 24
f 19 30 32
f 19 32 33
f 19 33 20
f 20 33 34
f 21 36 35
f 23 39 38
f 24 40 25
f 24 31 41
f 24 41 40
f 25 42 26
f 25 40 43
f 25 43 44
f 25 44 45
f 25 45 46
f 25 46 47
f 25 47 48
f 25 48 49
f 25 49 50
f 25 50 42
f 26 42 28
f 26 28 27
f 28 42 50
f 28 50 51
f 28 51 29
f 29 51 30
f 30 51 32
f 32 52 53
f 32 53 33
f 32 51 52
f 33 53 54
f 33 54 34
f 34 54 55
f 35 36 56
f 36 57 58
f 36 58 56
f 37 59 60
f 38 39 61
f 39 62 63
f 39 63 61
f 40 41 43
f 41 64 43
f 43 58 44
f 43 64 65
f 43 65 56
f 43 56 58
f 44 58 57
f 45 66 67
f 45 67 68
f 45 68 69
f 45 69 46
f 46 69 47
f 47 69 68
f 47 68 70
f 47 70 71
f 47 71 48
f 48 71 72
f 48 72 73
f 48 73 49
f 49 73 74
f 49 74 75
f 49 75 76
f 49 76 77
f 49 77 50
f 50 77 78
f 50 78 51
f 51 78 79
f 51 79 80
f 51 80 52
f 52 80 79
f 52 79 53
f 53 79 54
f 54 79 81
f 54 81 82
f 54 82 55
f 59 83 84
f 59 84 85
f 59 85 60
f 60 84 86
f 60 85 84
f 61 63 87
f 62 88 63
f 62 89 125
f 62 125 88
f 63 90 91
f 63 91 87
f 63 88 90
f 66 92 93
f 66 93 68
f 66 68 67
f 68 93 72
f 68 72 70
f 70 72 71
f 72 94 73
f 72 93 94
f 73 94 74
f 74 94 75
f 75 95 76
f 75 94 95
f 76 96 77
f 76 95 97
f 76 97 98
f 76 98 99
f 76 99 100
f 76 100 101
f 76 101 102
f 76 102 103
f 76 103 104
f 76 104 105
f 76 105 96
f 77 96 106
f 77 106 78
f 78 106 107
f 78 107 108
f 78 108 109
f 78 109 79
f 79 109 110
f 79 110 81
f 81 110 109
f 81 109 108
f 81 108 82
f 82 108 111
f 82 111 112
f 83 113 114
f 83 114 84
f 84 115 116
f 84 116 117
f 84 117 118
f 84 118 86
f 84 114 119
f 84 119 120
f 84 120 115
f 87 91 121
f 88 122 123
f 88 123 124
f 88 124 90
f 88 125 122
f 89 126 125
f 90 124 121
f 90 121 91
f 92 95 93
f 93 95 94
f 96 105 106
f 97 127 120
f 97 120 128
f 97 128 98
f 98 128 101
f 98 101 99
f 99 101 100
f 101 128 102
f 102 128 129
f 102 129 130
f 102 130 131
f 102 131 104
f 102 104 103
f 104 131 105
f 105 131 130
f 105 130 132
f 105 132 133
f 105 133 134
f 105 134 135
f 105 135 136
f 105 136 137
f 105 137 138
f 105 138 139
f 105 139 140
f 105 140 141
f 105 141 106
f 106 141 107
f 107 142 111
f 107 111 108
f 107 141 140
f 107 140 142
f 111 142 143
f 111 143 112
f 112 143 144
f 113 145 114
f 114 145 146
f 114 146 147
f 114 147 119
f 115 148 149
f 115 149 116
f 115 120 150
f 115 150 151
f 115 151 148
f 116 149 117
f 119 152 120
f 119 147 153
f 119 153 152
f 120 154 155
f 120 155 151
f 120 151 150
f 120 152 156
f 120 156 157
f 120 157 129
f 120 129 128
f 120 127 158
f 120 158 154
f 121 124 159
f 122 160 161
f 122 161 123
f 122 125 160
f 123 161 162
f 123 162 159
f 123 159 124
f 125 126 163
f 125 163 138
f 125 138 160
f 129 157 130
f 130 157 164
f 130 164 165
f 130 165 166
f 130 166 133
f 130 133 132
f 133 166 134
f 134 166 167
f 134 167 168
f 134 168 169
f 134 169 135
f 135 169 170
f 135 170 136
f 136 161 160
f 136 160 137
f 136 170 171
f 136 171 172
f 136 172 173
f 136 173 174
f 136 174 161
f 137 160 138
f 138 163 175
f 138 175 176
f 138 176 139
f 139 176 140
f 140 176 175
f 140 175 177
f 140 177 142
f 142 177 178
f 142 178 143
f 143 179 144
f 143 178 179
f 145 180 146
f 146 180 181
f 146 181 166
f 146 166 153
f 146 153 147
f 152 153 182
f 152 182 156
f 153 166 165
f 153 165 182
f 156 182 164
f 156 164 157
f 161 174 162
f 163 183 184
f 163 184 185
f 163 185 175
f 164 182 165
f 166 181 167
f 167 181 186
f 167 186 168
f 170 173 172
f 170 172 171
f 175 185 184
f 175 184 187
f 175 187 178
f 175 178 177
f 178 187 188
f 178 188 184
f 178 184 179
f 179 184 183
f 184 188 187
