v -0.196084 -0.540492 -0.243531
v -0.243518 -0.540337 -0.196082
v -0.220909 -0.54038 -0.232856
v -0.173003 -0.540113 -0.268469
v -0.15847 -0.53993 -0.279742
v -0.161293 -0.539986 -0.267939
v -0.256914 -0.539663 -0.17731
v -0.254881 -0.539944 -0.183459
v -0.243952 -0.539775 -0.207936
v -0.232493 -0.540098 -0.220404
v -0.228744 -0.538665 -0.229337
v -0.217363 -0.538553 -0.240406
v -0.20814 -0.540197 -0.244266
v -0.160185 -0.539691 -0.279725
v -0.15847 -0.538609 -0.282355
v -0.15847 -0.539593 -0.26893
v -0.256914 -0.537668 -0.173809
v -0.256914 -0.539663 -0.183681
v -0.255411 -0.538862 -0.195484
v -0.225304 -0.534506 -0.237263
v -0.239895 -0.538075 -0.21651
v -0.204025 -0.537485 -0.251217
v -0.169263 -0.53823 -0.275711
v -0.15847 -0.534773 -0.28572
v -0.15847 -0.529856 -0.265309
v -0.165621 -0.537429 -0.261124
v -0.256914 -0.532258 -0.17041
v -0.256914 -0.538272 -0.194459
v -0.251055 -0.537246 -0.203682
v -0.236676 -0.533158 -0.224452
v -0.232195 -0.52987 -0.232207
v -0.238979 -0.489714 -0.250893
v -0.239625 -0.466531 -0.263088
v -0.22567 -0.511239 -0.249646
v -0.220071 -0.529561 -0.243958
v -0.211956 -0.532553 -0.248331
v -0.19061 -0.535912 -0.262012
v -0.177205 -0.533874 -0.272824
v -0.164493 -0.529856 -0.284166
v -0.166989 -0.500477 -0.297864
v -0.167191 -0.476914 -0.309872
v -0.158537 -0.529856 -0.288111
v -0.15847 -0.529912 -0.288111
v -0.15847 -0.517941 -0.265258
v -0.256914 -0.529856 -0.170068
v -0.256914 -0.531893 -0.200283
v -0.23604 -0.517941 -0.235572
v -0.256914 -0.529856 -0.201752
v -0.253204 -0.529856 -0.20633
v -0.24002 -0.503498 -0.240474
v -0.251296 -0.466644 -0.251593
v -0.25011 -0.452607 -0.262012
v -0.236811 -0.474456 -0.26097
v -0.243798 -0.457314 -0.264523
v -0.234305 -0.458424 -0.271082
v -0.226297 -0.464466 -0.2739
v -0.231559 -0.469454 -0.267444
v -0.20814 -0.529097 -0.252943
v -0.228879 -0.479907 -0.263874
v -0.184452 -0.493536 -0.288897
v -0.172251 -0.505479 -0.291425
v -0.180712 -0.479163 -0.299197
v -0.17812 -0.463693 -0.309223
v -0.15847 -0.5076 -0.298855
v -0.169678 -0.470311 -0.311375
v -0.173552 -0.459197 -0.314091
v -0.173099 -0.447437 -0.319557
v -0.166276 -0.452031 -0.321316
v -0.161689 -0.459155 -0.320069
v -0.160744 -0.470311 -0.315457
v -0.160744 -0.479725 -0.311153
v -0.15847 -0.482942 -0.310555
v -0.15847 -0.529842 -0.288146
v -0.15847 -0.396968 -0.265258
v -0.256914 -0.52203 -0.170051
v -0.256914 -0.519065 -0.20908
v -0.256692 -0.51922 -0.209251
v -0.255777 -0.469931 -0.243839
v -0.252809 -0.457314 -0.255744
v -0.256914 -0.469131 -0.242968
v -0.256914 -0.460939 -0.248348
v -0.256914 -0.438937 -0.26097
v -0.256914 -0.414222 -0.273217
v -0.256914 -0.408574 -0.275865
v -0.249503 -0.427739 -0.273456
v -0.243567 -0.446468 -0.269699
v -0.236926 -0.450402 -0.272978
v -0.256914 -0.458003 -0.250227
v -0.256914 -0.454209 -0.252567
v -0.256914 -0.447521 -0.256427
v -0.21558 -0.45435 -0.286677
v -0.21984 -0.458368 -0.281604
v -0.212882 -0.462288 -0.284712
v -0.191545 -0.465787 -0.298411
v -0.20496 -0.467852 -0.287599
v -0.180828 -0.455755 -0.311187
v -0.177368 -0.438965 -0.320803
v -0.17892 -0.405342 -0.333563
v -0.171846 -0.409909 -0.334656
v -0.172656 -0.398893 -0.338396
v -0.161689 -0.447437 -0.324766
v -0.15847 -0.447086 -0.326115
v -0.15847 -0.4556 -0.322802
v -0.15847 -0.455811 -0.322716
v -0.15847 -0.460996 -0.320513
v -0.15847 -0.470381 -0.316294
v -0.15847 -0.473093 -0.315064
v -0.15847 -0.396968 -0.344545
v -0.256914 -0.396968 -0.170051
v -0.256914 -0.476788 -0.237775
v -0.25171 -0.4198 -0.275147
v -0.256914 -0.396968 -0.28092
v -0.250293 -0.396968 -0.285942
v -0.236098 -0.425167 -0.284285
v -0.196633 -0.446791 -0.30374
v -0.202175 -0.452045 -0.297489
v -0.18876 -0.449474 -0.308301
v -0.184702 -0.445906 -0.312759
v -0.17999 -0.431026 -0.322443
v -0.187497 -0.396968 -0.331342
v -0.183006 -0.396968 -0.334229
v -0.181609 -0.396968 -0.335083
v -0.180944 -0.398893 -0.334758
v -0.172627 -0.396968 -0.339114
v -0.160031 -0.433921 -0.330369
v -0.15847 -0.423495 -0.334792
v -0.229997 -0.396968 -0.300666
v -0.222654 -0.422709 -0.29508
v -0.201346 -0.426811 -0.308796
v -0.188384 -0.422709 -0.319932
v -0.191082 -0.441536 -0.309992
v -0.184201 -0.434834 -0.317814
v -0.192576 -0.408363 -0.322973
v -0.19646 -0.396968 -0.324988
v -0.201857 -0.396968 -0.321077
f 1 2 3
f 1 3 4
f 1 4 5
f 1 5 6
f 1 6 2
f 2 7 8
f 2 8 9
f 2 9 10
f 2 10 3
f 2 6 7
f 3 10 11
f 3 11 12
f 3 12 13
f 3 13 4
f 4 13 5
f 5 14 15
f 5 15 24
f 5 24 43
f 5 43 73
f 5 73 64
f 5 64 72
f 5 72 107
f 5 107 106
f 5 106 105
f 5 105 104
f 5 104 103
f 5 103 102
f 5 102 126
f 5 126 108
f 5 108 74
f 5 74 44
f 5 44 25
f 5 25 16
f 5 16 6
f 5 13 14
f 6 16 7
f 7 17 27
f 7 27 45
f 7 45 75
f 7 75 109
f 7 109 112
f 7 112 84
f 7 84 83
f 7 83 82
f 7 82 90
f 7 90 89
f 7 89 88
f 7 88 81
f 7 81 80
f 7 80 110
f 7 110 76
f 7 76 48
f 7 48 46
f 7 46 28
f 7 28 18
f 7 18 8
f 7 16 17
f 8 18 9
f 9 18 19
f 9 19 11
f 9 11 10
f 11 20 12
f 11 19 21
f 11 21 20
f 12 20 22
f 12 22 23
f 12 23 13
f 13 23 14
f 14 23 15
f 15 23 24
f 16 25 26
f 16 26 27
f 16 27 17
f 18 28 19
f 19 28 29
f 19 29 21
f 20 21 29
f 20 29 30
f 20 30 31
f 20 31 32
f 20 32 33
f 20 33 34
f 20 34 35
f 20 35 36
f 20 36 22
f 22 36 37
f 22 37 23
f 23 37 24
f 24 37 38
f 24 38 39
f 24 39 40
f 24 40 41
f 24 41 42
f 24 42 43
f 25 44 45
f 25 45 27
f 25 27 26
f 28 46 29
f 29 46 30
f 30 47 31
f 30 46 48
f 30 48 49
f 30 49 47
f 31 47 50
f 31 50 32
f 32 50 51
f 32 51 52
f 32 52 33
f 33 53 34
f 33 52 54
f 33 54 55
f 33 55 56
f 33 56 57
f 33 57 53
f 34 58 36
f 34 36 35
f 34 53 59
f 34 59 58
f 36 58 38
f 36 38 37
f 38 58 39
f 39 60 61
f 39 61 40
f 39 58 60
f 40 61 62
f 40 62 63
f 40 63 41
f 41 64 42
f 41 63 65
f 41 65 66
f 41 66 67
f 41 67 68
f 41 68 69
f 41 69 70
f 41 70 71
f 41 71 72
f 41 72 64
f 42 64 73
f 42 73 43
f 44 74 109
f 44 109 75
f 44 75 45
f 47 49 50
f 48 76 77
f 48 77 49
f 49 77 50
f 50 78 51
f 50 77 78
f 51 79 52
f 51 78 80
f 51 80 81
f 51 81 79
f 52 82 83
f 52 83 84
f 52 84 85
f 52 85 86
f 52 86 87
f 52 87 54
f 52 79 88
f 52 88 89
f 52 89 90
f 52 90 82
f 53 57 59
f 54 87 55
f 55 87 91
f 55 91 92
f 55 92 93
f 55 93 56
f 56 59 57
f 56 93 63
f 56 63 94
f 56 94 95
f 56 95 59
f 58 59 95
f 58 95 60
f 60 95 94
f 60 94 62
f 60 62 61
f 62 94 63
f 63 96 66
f 63 66 65
f 63 93 96
f 66 96 97
f 66 97 67
f 67 97 68
f 68 97 98
f 68 98 99
f 68 99 100
f 68 100 101
f 68 101 102
f 68 102 103
f 68 103 104
f 68 104 69
f 69 104 105
f 69 105 70
f 70 105 106
f 70 106 107
f 70 107 71
f 71 107 72
f 74 108 124
f 74 124 122
f 74 122 121
f 74 121 120
f 74 120 134
f 74 134 135
f 74 135 127
f 74 127 113
f 74 113 112
f 74 112 109
f 76 110 77
f 77 110 78
f 78 110 80
f 79 81 88
f 84 111 85
f 84 112 111
f 85 111 112
f 85 112 113
f 85 113 87
f 85 87 86
f 87 113 114
f 87 114 115
f 87 115 116
f 87 116 91
f 91 116 96
f 91 96 92
f 92 96 93
f 96 116 117
f 96 117 118
f 96 118 119
f 96 119 97
f 97 119 98
f 98 120 121
f 98 121 122
f 98 122 123
f 98 123 124
f 98 124 100
f 98 100 99
f 98 119 120
f 100 124 108
f 100 108 125
f 100 125 101
f 101 125 102
f 102 125 126
f 108 126 125
f 113 127 114
f 114 127 128
f 114 128 115
f 115 129 130
f 115 130 131
f 115 131 118
f 115 118 117
f 115 117 116
f 115 128 129
f 118 130 132
f 118 132 119
f 118 131 130
f 119 132 130
f 119 130 133
f 119 133 134
f 119 134 120
f 122 124 123
f 127 135 128
f 128 135 129
f 129 135 130
f 130 135 134
f 130 134 133
