v -0.172305 -0.18732 0.543107
v -0.00017638 -0.18732 0.569201
v -0.172305 -0.18732 0.55753
v -0.172305 0.0790456 0.558762
v -0.00017638 0.0790456 0.583551
v -0.00017638 -0.18732 0.581754
v -0.167503 -0.18732 0.559961
v -0.172305 -0.184556 0.558101
v -0.172305 0.0790456 0.572089
v -0.00017638 0.0790456 0.596578
v -0.00312523 -0.18732 0.582421
v -0.00017638 -0.183122 0.583127
v -0.168008 -0.184556 0.560175
v -0.163442 -0.18732 0.56082
v -0.16698 -0.107848 0.571631
v -0.172305 -0.163906 0.561396
v -0.172305 0.0747174 0.572372
v -0.170671 0.0790456 0.572897
v -0.00464178 0.0790456 0.597042
v -0.00595613 0.0773769 0.597257
v -0.00595613 0.0535719 0.59837
v -0.00017638 0.0654875 0.597211
v -0.00912404 -0.18732 0.583726
v -0.00017638 -0.181062 0.583721
v -0.170115 -0.17264 0.561051
v -0.168328 -0.101199 0.572095
v -0.0893665 -0.18732 0.572666
v -0.148832 -0.184556 0.563651
v -0.160729 -0.184556 0.561713
v -0.160729 -0.17264 0.563453
v -0.160173 -0.112333 0.572129
v -0.160729 -0.101199 0.57361
v -0.172305 -0.101199 0.570337
v -0.172305 0.0610028 0.573186
v -0.160729 0.0416564 0.576967
v -0.160729 0.0535719 0.576418
v -0.160729 0.0654875 0.575859
v -0.160729 0.0773769 0.575299
v -0.160729 0.0790456 0.57522
v -0.170789 0.0773769 0.572937
v -0.172305 0.0062749 0.575797
v -0.00595613 0.0790456 0.597177
v -0.0178695 0.0773769 0.5975
v -0.0178695 0.0654875 0.598059
v -0.0178695 0.029767 0.599732
v -0.0178695 0.00593594 0.600845
v -0.00595613 0.0178515 0.600037
v -0.00017638 0.029767 0.598879
v -0.0150554 -0.18732 0.583794
v -0.00691661 -0.184217 0.583958
v -0.00595613 -0.17264 0.585523
v -0.0118201 -0.107222 0.595352
v -0.00017638 -0.172797 0.584896
v -0.160729 -0.0892839 0.574729
v -0.169963 -0.0892839 0.572654
v -0.172305 -0.0956979 0.570931
v -0.0805537 -0.18732 0.57405
v -0.0259746 -0.180932 0.583777
v -0.0774026 -0.184556 0.575034
v -0.0902091 -0.185442 0.572858
v -0.0984827 -0.182079 0.572044
v -0.101954 -0.173344 0.572751
v -0.109958 -0.169824 0.571976
v -0.121433 -0.15744 0.571908
v -0.144367 -0.132644 0.571773
v -0.155842 -0.120233 0.571705
v -0.148832 -0.113115 0.57383
v -0.0982974 -0.0986964 0.583918
v -0.160729 0.029767 0.577396
v -0.131459 0.00171206 0.583517
v -0.125814 0.0057795 0.584229
v -0.123152 0.0178515 0.584088
v -0.0297829 0.029767 0.598415
v -0.0297829 0.0654875 0.596737
v -0.0892991 0.0773769 0.586688
v -0.0892991 0.0790456 0.586609
v -0.172305 0.00593594 0.575802
v -0.160729 0.00593594 0.578046
v -0.0178695 0.0790456 0.59742
v -0.0297829 0.0178515 0.598975
v -0.0297829 0.00593594 0.599528
v -0.0297829 -0.0059535 0.599528
v -0.0178695 -0.0059535 0.60084
v -0.00595613 -0.0059535 0.600585
v -0.00595613 0.00593594 0.600585
v -0.00017638 0.00593594 0.599986
v -0.0178695 -0.17264 0.585727
v -0.0170101 -0.184738 0.584037
v -0.0654893 -0.18732 0.576305
v -0.012056 -0.107222 0.595352
v -0.00017638 -0.166852 0.585738
v -0.00017638 -0.0971581 0.59555
v -0.00710197 -0.100652 0.595776
v -0.00595613 -0.0892839 0.596697
v -0.0178695 -0.0892839 0.59694
v -0.00017638 -0.154937 0.587417
v -0.0257893 -0.0974709 0.595651
v -0.148832 -0.0892839 0.576628
v -0.160729 -0.0773945 0.575299
v -0.170789 -0.0773945 0.572937
v -0.172305 -0.0610204 0.573186
v -0.172305 -0.0892839 0.571507
v -0.160729 -0.0535895 0.576418
v -0.160729 -0.0417001 0.576967
v -0.172305 -0.0059535 0.575802
v -0.0297829 -0.148835 0.587739
v -0.0297829 -0.160725 0.586049
v -0.0298671 -0.172588 0.584348
v -0.0892991 -0.17264 0.57487
v -0.0648152 -0.136007 0.583975
v -0.0654893 -0.113115 0.587112
v -0.131459 -0.00172962 0.583517
v -0.0518403 0.00593594 0.596013
v -0.0299851 0.0790456 0.596064
v -0.160729 -0.0059535 0.578046
v -0.0518403 -0.0059535 0.596013
v -0.0297829 -0.017869 0.598975
v -0.0276428 -0.0892839 0.595951
v -0.00595613 -0.017869 0.600037
v -0.0178695 -0.0297845 0.599732
v -0.00017638 -0.0059535 0.599986
v -0.0167742 -0.10133 0.595872
v -0.00017638 -0.0892839 0.596092
v -0.00017638 -0.0839389 0.596347
v -0.00595613 -0.0773945 0.597257
v -0.0178695 -0.0773945 0.5975
v -0.101836 -0.0886321 0.584156
v -0.107414 -0.0841996 0.583478
v -0.0892991 -0.0773945 0.586688
v -0.0406346 -0.0417001 0.596126
v -0.123152 -0.017869 0.584088
v -0.125814 -0.00579706 0.584229
v -0.160729 -0.0297845 0.577396
v -0.0297829 -0.0417001 0.597856
v -0.0178695 -0.0654789 0.598059
v -0.0297829 -0.0654789 0.596737
v -0.0304737 -0.0768991 0.596087
v -0.00595613 -0.0535895 0.59837
v -0.00017638 -0.0297845 0.598879
v -0.00017638 -0.0654789 0.597211
f 1 2 6
f 1 6 11
f 1 11 23
f 1 23 49
f 1 49 89
f 1 89 57
f 1 57 27
f 1 27 14
f 1 14 7
f 1 7 3
f 1 3 8
f 1 8 16
f 1 16 33
f 1 33 56
f 1 56 102
f 1 102 101
f 1 101 105
f 1 105 77
f 1 77 41
f 1 41 34
f 1 34 17
f 1 17 9
f 1 9 4
f 1 4 5
f 1 5 2
f 2 5 10
f 2 10 22
f 2 22 48
f 2 48 86
f 2 86 121
f 2 121 139
f 2 139 140
f 2 140 124
f 2 124 123
f 2 123 92
f 2 92 96
f 2 96 91
f 2 91 53
f 2 53 24
f 2 24 12
f 2 12 6
f 3 7 8
f 4 9 18
f 4 18 39
f 4 39 76
f 4 76 114
f 4 114 79
f 4 79 42
f 4 42 19
f 4 19 10
f 4 10 5
f 6 12 11
f 7 13 8
f 7 14 15
f 7 15 13
f 8 13 16
f 9 17 18
f 10 19 20
f 10 20 21
f 10 21 22
f 11 12 23
f 12 24 23
f 13 25 16
f 13 15 26
f 13 26 25
f 14 27 28
f 14 28 29
f 14 29 30
f 14 30 15
f 15 31 32
f 15 32 26
f 15 30 31
f 16 25 26
f 16 26 33
f 17 34 18
f 18 35 36
f 18 36 37
f 18 37 38
f 18 38 39
f 18 34 40
f 18 40 41
f 18 41 35
f 19 42 20
f 20 42 79
f 20 79 43
f 20 43 44
f 20 44 45
f 20 45 21
f 21 45 46
f 21 46 47
f 21 47 48
f 21 48 22
f 23 24 50
f 23 50 51
f 23 51 52
f 23 52 49
f 24 53 51
f 24 51 50
f 26 32 54
f 26 54 55
f 26 55 56
f 26 56 33
f 27 57 58
f 27 58 59
f 27 59 60
f 27 60 28
f 28 60 59
f 28 59 58
f 28 58 61
f 28 61 62
f 28 62 63
f 28 63 30
f 28 30 29
f 30 63 64
f 30 64 65
f 30 65 66
f 30 66 31
f 31 66 67
f 31 67 32
f 32 67 68
f 32 68 54
f 34 41 40
f 35 41 69
f 35 69 70
f 35 70 36
f 36 70 71
f 36 71 72
f 36 72 37
f 37 72 73
f 37 73 74
f 37 74 38
f 38 74 75
f 38 75 76
f 38 76 39
f 41 77 78
f 41 78 69
f 43 74 44
f 43 79 74
f 44 74 73
f 44 73 80
f 44 80 45
f 45 80 46
f 46 80 81
f 46 81 82
f 46 82 83
f 46 83 84
f 46 84 85
f 46 85 47
f 47 85 86
f 47 86 48
f 49 87 88
f 49 88 58
f 49 58 89
f 49 52 90
f 49 90 87
f 51 53 91
f 51 91 52
f 52 92 93
f 52 93 94
f 52 94 95
f 52 95 90
f 52 91 96
f 52 96 92
f 54 68 97
f 54 97 98
f 54 98 99
f 54 99 55
f 55 100 101
f 55 101 102
f 55 102 56
f 55 99 103
f 55 103 104
f 55 104 105
f 55 105 100
f 57 89 58
f 58 106 107
f 58 107 108
f 58 108 109
f 58 109 62
f 58 62 61
f 58 88 87
f 58 87 97
f 58 97 106
f 62 109 63
f 63 109 64
f 64 109 106
f 64 106 65
f 65 106 66
f 66 106 110
f 66 110 111
f 66 111 67
f 67 111 97
f 67 97 68
f 69 78 70
f 70 78 115
f 70 115 112
f 70 112 82
f 70 82 81
f 70 81 113
f 70 113 71
f 71 113 80
f 71 80 72
f 72 80 73
f 74 79 114
f 74 114 75
f 75 114 76
f 77 105 115
f 77 115 78
f 80 113 81
f 82 112 116
f 82 116 117
f 82 117 118
f 82 118 83
f 83 119 84
f 83 118 120
f 83 120 119
f 84 119 121
f 84 121 86
f 84 86 85
f 87 90 122
f 87 122 97
f 90 95 122
f 92 123 94
f 92 94 93
f 94 123 124
f 94 124 125
f 94 125 126
f 94 126 95
f 95 126 118
f 95 118 97
f 95 97 122
f 97 118 98
f 97 111 106
f 98 118 127
f 98 127 99
f 99 127 128
f 99 128 129
f 99 129 130
f 99 130 103
f 100 105 101
f 103 130 131
f 103 131 132
f 103 132 112
f 103 112 104
f 104 133 105
f 104 112 133
f 105 133 115
f 106 109 107
f 106 111 110
f 107 109 108
f 112 132 116
f 112 115 133
f 116 132 117
f 117 132 131
f 117 131 130
f 117 130 134
f 117 134 118
f 118 128 127
f 118 126 135
f 118 135 120
f 118 134 136
f 118 136 137
f 118 137 129
f 118 129 128
f 119 120 138
f 119 138 139
f 119 139 121
f 120 135 125
f 120 125 138
f 124 140 125
f 125 135 126
f 125 140 138
f 129 137 136
f 129 136 130
f 130 136 134
f 138 140 139
