v 0.527206 0.322255 -0.144357
v 0.525945 0.322255 -0.147757
v 0.513119 0.322255 -0.144357
v 0.536273 0.297369 -0.144357
v 0.513097 0.322255 -0.181499
v 0.525222 0.313255 -0.158263
v 0.512735 0.322255 -0.144967
v 0.513031 0.322231 -0.144357
v 0.5384 0.291154 -0.144357
v 0.537172 0.29089 -0.148149
v 0.514138 0.303512 -0.196451
v 0.500248 0.309992 -0.22664
v 0.500336 0.322135 -0.214957
v 0.500357 0.322255 -0.214782
v 0.536031 0.286378 -0.155386
v 0.510202 0.322255 -0.150395
v 0.466745 0.0771654 -0.345476
v 0.566301 0.0771174 -0.144357
v 0.539627 0.287218 -0.144357
v 0.51257 0.287314 -0.215807
v 0.489263 0.31256 -0.252883
v 0.489844 0.322255 -0.242224
v 0.501256 0.291705 -0.2412
v 0.541842 0.279683 -0.144357
v 0.536974 0.279803 -0.157849
v 0.526406 0.280211 -0.185182
v 0.513447 0.278963 -0.21997
v 0.501191 0.277739 -0.252905
v 0.499996 0.285658 -0.249984
v 0.466734 0.322255 -0.259313
v 0.466745 0.0771174 -0.346936
v 0.578733 0.0771174 -0.144357
v 0.490918 0.304064 -0.256479
v 0.487443 0.30836 -0.260795
v 0.483847 0.322255 -0.256218
v 0.548825 0.253981 -0.144357
v 0.538509 0.268668 -0.161663
v 0.524652 0.276539 -0.192484
v 0.548606 0.253573 -0.14525
v 0.512165 0.274427 -0.226661
v 0.502353 0.268068 -0.256501
v 0.500675 0.264228 -0.263236
v 0.495512 0.291705 -0.255978
v 0.466745 0.322255 -0.283072
v 0.466745 0.320287 -0.284227
v 0.466745 0.314455 -0.287583
v 0.466745 0.291561 -0.300727
v 0.466745 0.281338 -0.305806
v 0.466745 0.278171 -0.307375
v 0.466745 0.274523 -0.30901
v 0.466745 0.267924 -0.311778
v 0.466745 0.2673 -0.312039
v 0.466745 0.235767 -0.324747
v 0.466745 0.207857 -0.335972
v 0.466745 0.194658 -0.341204
v 0.466745 0.188707 -0.343209
v 0.466745 0.182372 -0.344953
v 0.466745 0.171909 -0.347525
v 0.466745 0.16207 -0.349879
v 0.466745 0.114002 -0.361344
v 0.466745 0.113138 -0.36154
v 0.466745 0.101211 -0.364243
v 0.466745 0.091948 -0.365878
v 0.466745 0.0892603 -0.366117
v 0.466745 0.0771174 -0.367033
v 0.577834 0.0771174 -0.14852
v 0.57733 0.0893082 -0.148847
v 0.578448 0.0848447 -0.144357
v 0.489186 0.300417 -0.263651
v 0.478815 0.322255 -0.266179
v 0.481687 0.322255 -0.260817
v 0.560775 0.206585 -0.144357
v 0.560567 0.206153 -0.145359
v 0.524136 0.262884 -0.203056
v 0.512998 0.2679 -0.228841
v 0.549626 0.243806 -0.149065
v 0.536119 0.251269 -0.179428
v 0.512658 0.252613 -0.239849
v 0.512143 0.23867 -0.25042
v 0.513426 0.207425 -0.267683
v 0.51211 0.202842 -0.274048
v 0.490326 0.290746 -0.267727
v 0.4997 0.249325 -0.273437
v 0.498768 0.255997 -0.271541
v 0.474748 0.322255 -0.271912
v 0.477105 0.311528 -0.274985
v 0.477532 0.288754 -0.287474
v 0.488342 0.286114 -0.274069
v 0.479122 0.279803 -0.289676
v 0.485075 0.279803 -0.281459
v 0.491225 0.2679 -0.278036
v 0.500489 0.215657 -0.286297
v 0.478431 0.196482 -0.324442
v 0.489109 0.193675 -0.310841
v 0.499755 0.189595 -0.297436
v 0.479835 0.184579 -0.326382
v 0.500643 0.181652 -0.298416
v 0.491159 0.172653 -0.313674
v 0.501432 0.172653 -0.299506
v 0.514796 0.136944 -0.289611
v 0.467139 0.113138 -0.361017
v 0.468104 0.101211 -0.362412
v 0.478431 0.101211 -0.348266
v 0.524158 0.0969635 -0.286145
v 0.479111 0.0893082 -0.349203
v 0.479626 0.0771174 -0.349486
v 0.577746 0.0771174 -0.148847
v 0.573547 0.0893082 -0.160072
v 0.576453 0.101211 -0.148847
v 0.577352 0.101211 -0.144357
v 0.578152 0.0893082 -0.144357
v 0.573503 0.0771174 -0.161772
v 0.57346 0.0777173 -0.161838
v 0.563012 0.196362 -0.144357
v 0.561608 0.196314 -0.14913
v 0.560052 0.192235 -0.155931
v 0.525452 0.195714 -0.244012
v 0.524082 0.191251 -0.250529
v 0.515991 0.196482 -0.267901
v 0.512921 0.196482 -0.275508
v 0.509238 0.196482 -0.281459
v 0.500971 0.241382 -0.275159
v 0.489383 0.279803 -0.275508
v 0.503285 0.196482 -0.290155
v 0.510422 0.184579 -0.283638
v 0.503921 0.185203 -0.292749
v 0.490107 0.184579 -0.312214
v 0.512143 0.167541 -0.285949
v 0.512538 0.113138 -0.298395
v 0.477412 0.113138 -0.346849
v 0.488704 0.101211 -0.334098
v 0.526011 0.101043 -0.2805
v 0.527491 0.0893082 -0.279802
v 0.524443 0.0893082 -0.286581
v 0.520201 0.0893082 -0.292553
v 0.513557 0.101211 -0.299811
v 0.514138 0.184579 -0.277688
v 0.524049 0.131976 -0.2742
v 0.514599 0.0771174 -0.30125
v 0.54797 0.0893082 -0.226901
v 0.547784 0.0957397 -0.226422
v 0.572955 0.101211 -0.158525
v 0.574874 0.113138 -0.148847
v 0.572089 0.143135 -0.144357
v 0.57312 0.135264 -0.144357
v 0.575981 0.113138 -0.144357
v 0.573164 0.0771174 -0.162688
v 0.537753 0.0771174 -0.255193
v 0.565062 0.184579 -0.144357
v 0.564009 0.184579 -0.148847
v 0.560731 0.184579 -0.157718
v 0.549999 0.185155 -0.185509
v 0.524641 0.184579 -0.251989
v 0.525463 0.113138 -0.277535
v 0.536865 0.101211 -0.252818
v 0.537457 0.0893082 -0.254365
v 0.528105 0.0774054 -0.279802
v 0.524761 0.0774054 -0.28706
v 0.520661 0.0771174 -0.29288
v 0.520552 0.0771174 -0.293033
v 0.524378 0.15799 -0.263193
v 0.527513 0.125041 -0.267901
v 0.549308 0.100323 -0.220667
v 0.572067 0.113138 -0.156214
v 0.572561 0.136944 -0.145577
v 0.571629 0.145871 -0.144357
v 0.561312 0.171981 -0.161206
v 0.528116 0.0771174 -0.279802
v 0.565807 0.180212 -0.144357
v 0.548179 0.181604 -0.191743
v 0.525551 0.172653 -0.254387
v 0.536218 0.109898 -0.251117
v 0.524761 0.0771174 -0.287082
v 0.53647 0.136944 -0.23987
v 0.539408 0.136944 -0.232198
v 0.548858 0.172653 -0.193509
v 0.559745 0.167565 -0.167047
f 1 2 5
f 1 5 14
f 1 14 22
f 1 22 35
f 1 35 71
f 1 71 70
f 1 70 85
f 1 85 44
f 1 44 30
f 1 30 16
f 1 16 7
f 1 7 3
f 1 3 8
f 1 8 18
f 1 18 32
f 1 32 68
f 1 68 111
f 1 111 110
f 1 110 146
f 1 146 145
f 1 145 144
f 1 144 166
f 1 166 169
f 1 169 149
f 1 149 114
f 1 114 72
f 1 72 36
f 1 36 24
f 1 24 19
f 1 19 9
f 1 9 4
f 1 4 2
f 2 4 6
f 2 6 5
f 3 7 8
f 4 9 10
f 4 10 6
f 5 11 12
f 5 12 13
f 5 13 14
f 5 6 10
f 5 10 15
f 5 15 11
f 7 16 17
f 7 17 8
f 8 17 18
f 9 19 10
f 10 19 15
f 11 15 20
f 11 20 12
f 12 21 22
f 12 22 13
f 12 20 23
f 12 23 21
f 13 22 14
f 15 19 24
f 15 24 25
f 15 25 26
f 15 26 27
f 15 27 28
f 15 28 29
f 15 29 20
f 16 30 17
f 17 31 18
f 17 30 31
f 18 31 65
f 18 65 106
f 18 106 139
f 18 139 160
f 18 160 159
f 18 159 173
f 18 173 168
f 18 168 148
f 18 148 147
f 18 147 112
f 18 112 107
f 18 107 66
f 18 66 32
f 20 29 23
f 21 33 34
f 21 34 35
f 21 35 22
f 21 23 33
f 23 29 33
f 24 36 25
f 25 37 38
f 25 38 26
f 25 36 39
f 25 39 37
f 26 38 27
f 27 38 28
f 28 38 40
f 28 40 41
f 28 41 42
f 28 42 43
f 28 43 29
f 29 43 33
f 30 44 45
f 30 45 46
f 30 46 47
f 30 47 48
f 30 48 49
f 30 49 50
f 30 50 51
f 30 51 52
f 30 52 53
f 30 53 54
f 30 54 55
f 30 55 56
f 30 56 57
f 30 57 58
f 30 58 59
f 30 59 60
f 30 60 61
f 30 61 62
f 30 62 63
f 30 63 64
f 30 64 65
f 30 65 31
f 32 66 67
f 32 67 68
f 33 69 34
f 33 43 69
f 34 69 70
f 34 70 71
f 34 71 35
f 36 72 73
f 36 73 39
f 37 74 75
f 37 75 40
f 37 40 38
f 37 39 76
f 37 76 77
f 37 77 74
f 39 73 76
f 40 75 41
f 41 75 78
f 41 78 79
f 41 79 80
f 41 80 81
f 41 81 42
f 42 82 43
f 42 81 83
f 42 83 84
f 42 84 82
f 43 82 69
f 44 85 86
f 44 86 45
f 45 86 46
f 46 86 87
f 46 87 47
f 47 87 48
f 48 87 49
f 49 87 88
f 49 88 89
f 49 89 50
f 50 89 90
f 50 90 91
f 50 91 51
f 51 91 52
f 52 91 53
f 53 91 92
f 53 92 93
f 53 93 54
f 54 93 55
f 55 93 94
f 55 94 56
f 56 94 95
f 56 95 96
f 56 96 57
f 57 96 58
f 58 96 97
f 58 97 98
f 58 98 59
f 59 98 99
f 59 99 100
f 59 100 101
f 59 101 60
f 60 101 61
f 61 101 62
f 62 101 102
f 62 102 63
f 63 102 103
f 63 103 104
f 63 104 105
f 63 105 64
f 64 105 106
f 64 106 65
f 66 107 67
f 67 108 109
f 67 109 110
f 67 110 111
f 67 111 68
f 67 107 112
f 67 112 113
f 67 113 108
f 69 82 88
f 69 88 70
f 70 86 85
f 70 88 86
f 72 114 115
f 72 115 73
f 73 115 116
f 73 116 76
f 74 77 78
f 74 78 75
f 76 116 77
f 77 116 79
f 77 79 78
f 79 116 117
f 79 117 80
f 80 117 118
f 80 118 81
f 81 118 119
f 81 119 120
f 81 120 121
f 81 121 122
f 81 122 83
f 82 84 88
f 83 122 123
f 83 123 88
f 83 88 84
f 86 88 87
f 88 123 90
f 88 90 89
f 90 123 91
f 91 123 122
f 91 122 92
f 92 122 124
f 92 124 93
f 93 124 94
f 94 124 95
f 95 124 125
f 95 125 126
f 95 126 97
f 95 97 127
f 95 127 96
f 96 127 97
f 97 128 99
f 97 99 98
f 97 126 128
f 99 128 100
f 100 128 104
f 100 104 129
f 100 129 130
f 100 130 101
f 101 130 131
f 101 131 103
f 101 103 102
f 103 131 104
f 104 132 133
f 104 133 134
f 104 134 135
f 104 135 105
f 104 131 136
f 104 136 129
f 104 128 137
f 104 137 138
f 104 138 132
f 105 135 106
f 106 135 139
f 108 140 141
f 108 141 142
f 108 142 109
f 108 113 140
f 109 142 143
f 109 143 144
f 109 144 145
f 109 145 146
f 109 146 110
f 112 147 113
f 113 147 148
f 113 148 140
f 114 149 150
f 114 150 115
f 115 150 116
f 116 150 151
f 116 151 118
f 116 118 117
f 118 120 119
f 118 151 152
f 118 152 153
f 118 153 137
f 118 137 120
f 120 137 121
f 121 124 122
f 121 137 125
f 121 125 124
f 125 137 128
f 125 128 126
f 129 136 131
f 129 131 130
f 132 138 154
f 132 154 155
f 132 155 133
f 133 155 141
f 133 141 156
f 133 156 157
f 133 157 134
f 134 157 158
f 134 158 159
f 134 159 135
f 135 159 160
f 135 160 139
f 137 153 161
f 137 161 138
f 138 161 162
f 138 162 155
f 138 155 154
f 140 156 141
f 140 148 156
f 141 163 142
f 141 155 163
f 142 164 143
f 142 163 164
f 143 164 165
f 143 165 144
f 144 165 167
f 144 167 151
f 144 151 150
f 144 150 166
f 148 168 157
f 148 157 156
f 149 169 150
f 150 169 166
f 151 167 170
f 151 170 153
f 151 153 152
f 153 170 171
f 153 171 161
f 155 162 172
f 155 172 163
f 157 168 158
f 158 168 173
f 158 173 159
f 161 171 174
f 161 174 172
f 161 172 162
f 163 172 164
f 164 172 175
f 164 175 176
f 164 176 165
f 165 176 177
f 165 177 167
f 167 177 176
f 167 176 170
f 170 176 171
f 171 176 175
f 171 175 174
f 172 174 175
