v -0.235229 0.322267 -0.492439
v -0.238797 0.322267 -0.491111
v -0.241202 0.324749 -0.489334
v -0.235229 0.362055 -0.478175
v -0.235229 0.322267 -0.478175
v -0.242217 0.322267 -0.489805
v -0.251692 0.347408 -0.477018
v -0.244235 0.351327 -0.478582
v -0.24036 0.359557 -0.477104
v -0.244115 0.383808 -0.465667
v -0.235229 0.377234 -0.471664
v -0.250262 0.381294 -0.464467
v -0.235229 0.481797 -0.398928
v -0.37173 0.481781 -0.273653
v -0.37173 0.322267 -0.383035
v -0.256248 0.322267 -0.483808
v -0.262516 0.334369 -0.476633
v -0.252547 0.375079 -0.465838
v -0.255794 0.338725 -0.478261
v -0.235229 0.387056 -0.467359
v -0.235229 0.442117 -0.441293
v -0.261112 0.367708 -0.463568
v -0.258493 0.375079 -0.461811
v -0.263852 0.383543 -0.453822
v -0.252921 0.396722 -0.454444
v -0.238369 0.440821 -0.440672
v -0.235229 0.481797 -0.404325
v -0.3308 0.481797 -0.32405
v -0.350122 0.481797 -0.32405
v -0.37173 0.481781 -0.29747
v -0.37173 0.322267 -0.402076
v -0.260845 0.322267 -0.481645
v -0.271936 0.322267 -0.474727
v -0.285927 0.322267 -0.464703
v -0.268075 0.339647 -0.470422
v -0.263438 0.35976 -0.46541
v -0.264493 0.327451 -0.477982
v -0.235229 0.461481 -0.430498
v -0.274569 0.37016 -0.452944
v -0.29182 0.446615 -0.398928
v -0.251852 0.442914 -0.42992
v -0.252387 0.419787 -0.442214
v -0.271789 0.378077 -0.450931
v -0.298622 0.382278 -0.429299
v -0.357165 0.392928 -0.381022
v -0.334755 0.442367 -0.370142
v -0.243607 0.445834 -0.434225
v -0.240908 0.455797 -0.430584
v -0.237487 0.463714 -0.428121
v -0.235229 0.481766 -0.417197
v -0.243674 0.481797 -0.411372
v -0.33851 0.481797 -0.338421
v -0.37173 0.478112 -0.300747
v -0.37173 0.338679 -0.395201
v -0.371516 0.339366 -0.395115
v -0.369792 0.346814 -0.393552
v -0.36879 0.322267 -0.404582
v -0.266204 0.322267 -0.478796
v -0.2917 0.327404 -0.458385
v -0.365556 0.322267 -0.406938
v -0.361347 0.327451 -0.407859
v -0.298194 0.358105 -0.440907
v -0.295909 0.366037 -0.439237
v -0.235229 0.467259 -0.426985
v -0.357472 0.369535 -0.393123
v -0.279887 0.375204 -0.44654
v -0.262262 0.452798 -0.41694
v -0.310408 0.453501 -0.381643
v -0.248845 0.450831 -0.427692
v -0.333352 0.380997 -0.404796
v -0.359623 0.384964 -0.383164
v -0.369766 0.370457 -0.381815
v -0.367561 0.378374 -0.379287
v -0.358421 0.406982 -0.370527
v -0.34455 0.451284 -0.356413
v -0.345619 0.429187 -0.369435
v -0.346755 0.382996 -0.39398
v -0.354692 0.377484 -0.39111
v -0.331748 0.450284 -0.367936
v -0.275665 0.454641 -0.406146
v -0.272377 0.462605 -0.403747
v -0.258961 0.460762 -0.414542
v -0.251024 0.465369 -0.417412
v -0.239304 0.477471 -0.41754
v -0.235229 0.479782 -0.418632
v -0.244088 0.481797 -0.411093
v -0.360038 0.468133 -0.32405
v -0.337976 0.481797 -0.339042
v -0.334555 0.477877 -0.346603
v -0.345352 0.464448 -0.345404
v -0.342492 0.472396 -0.34187
v -0.37173 0.4706 -0.307429
v -0.37173 0.339366 -0.394901
v -0.37173 0.348189 -0.390703
v -0.37173 0.361884 -0.383935
v -0.367681 0.354763 -0.391688
v -0.359316 0.363164 -0.394473
v -0.367307 0.327451 -0.403511
v -0.348572 0.351281 -0.407217
v -0.365262 0.363164 -0.389611
v -0.36251 0.37397 -0.386462
v -0.323811 0.455297 -0.370827
v -0.315459 0.458358 -0.375046
v -0.37173 0.363227 -0.38325
v -0.37173 0.373096 -0.377681
v -0.37173 0.375501 -0.376117
v -0.37173 0.380248 -0.372969
v -0.370902 0.384183 -0.371363
v -0.351338 0.446677 -0.351401
v -0.355775 0.449988 -0.343583
v -0.370167 0.454188 -0.322808
v -0.358995 0.455359 -0.335658
v -0.347249 0.458389 -0.34776
v -0.342105 0.458389 -0.353693
v -0.333846 0.464932 -0.357633
v -0.327633 0.45892 -0.365837
v -0.285794 0.46437 -0.392931
v -0.245277 0.481797 -0.410236
v -0.370902 0.466837 -0.311799
v -0.327205 0.481797 -0.35018
v -0.326711 0.481797 -0.350673
v -0.338163 0.468664 -0.349966
v -0.363338 0.458748 -0.327712
v -0.367681 0.462137 -0.319745
v -0.356496 0.463323 -0.332574
v -0.37173 0.46754 -0.310149
v -0.307107 0.461418 -0.379244
v -0.37173 0.384808 -0.369906
v -0.37173 0.39894 -0.359947
v -0.362496 0.445365 -0.338571
v -0.366933 0.448676 -0.330754
v -0.369672 0.453345 -0.324028
v -0.37173 0.455406 -0.319938
v -0.36847 0.455328 -0.324028
v -0.370608 0.451674 -0.32405
v -0.37173 0.449691 -0.32405
v -0.322207 0.477018 -0.357762
v -0.312586 0.467508 -0.37132
v -0.295001 0.481797 -0.374211
v -0.37173 0.459404 -0.316832
v -0.37173 0.464682 -0.312505
v -0.325989 0.481797 -0.351229
v -0.37173 0.432311 -0.336387
v -0.315179 0.481797 -0.359497
f 1 2 3
f 1 3 4
f 1 4 11
f 1 11 20
f 1 20 21
f 1 21 38
f 1 38 64
f 1 64 85
f 1 85 50
f 1 50 27
f 1 27 13
f 1 13 5
f 1 5 15
f 1 15 31
f 1 31 57
f 1 57 60
f 1 60 34
f 1 34 33
f 1 33 58
f 1 58 32
f 1 32 16
f 1 16 6
f 1 6 2
f 2 6 3
f 3 6 7
f 3 7 8
f 3 8 9
f 3 9 4
f 4 10 11
f 4 9 12
f 4 12 10
f 5 13 14
f 5 14 15
f 6 16 7
f 7 17 18
f 7 18 12
f 7 12 9
f 7 9 8
f 7 16 19
f 7 19 17
f 10 20 11
f 10 12 21
f 10 21 20
f 12 22 23
f 12 23 24
f 12 24 25
f 12 25 26
f 12 26 21
f 12 18 22
f 13 27 51
f 13 51 86
f 13 86 118
f 13 118 139
f 13 139 144
f 13 144 142
f 13 142 121
f 13 121 120
f 13 120 88
f 13 88 52
f 13 52 29
f 13 29 28
f 13 28 14
f 14 28 29
f 14 29 30
f 14 30 53
f 14 53 92
f 14 92 126
f 14 126 141
f 14 141 140
f 14 140 133
f 14 133 136
f 14 136 143
f 14 143 129
f 14 129 128
f 14 128 107
f 14 107 106
f 14 106 105
f 14 105 104
f 14 104 95
f 14 95 94
f 14 94 93
f 14 93 54
f 14 54 31
f 14 31 15
f 16 32 17
f 16 17 19
f 17 33 34
f 17 34 35
f 17 35 36
f 17 36 22
f 17 22 18
f 17 32 37
f 17 37 33
f 21 26 38
f 22 39 23
f 22 36 39
f 23 39 24
f 24 40 41
f 24 41 42
f 24 42 25
f 24 39 43
f 24 43 44
f 24 44 45
f 24 45 46
f 24 46 40
f 25 42 47
f 25 47 26
f 26 47 48
f 26 48 49
f 26 49 38
f 27 50 51
f 29 52 30
f 30 52 53
f 31 54 55
f 31 55 56
f 31 56 57
f 32 58 37
f 33 37 58
f 34 59 35
f 34 60 61
f 34 61 59
f 35 59 62
f 35 62 36
f 36 62 63
f 36 63 39
f 38 49 64
f 39 63 65
f 39 65 66
f 39 66 43
f 40 67 41
f 40 46 68
f 40 68 67
f 41 47 42
f 41 67 69
f 41 69 47
f 43 66 70
f 43 70 44
f 44 70 45
f 45 71 72
f 45 72 73
f 45 73 74
f 45 74 75
f 45 75 76
f 45 76 46
f 45 70 77
f 45 77 78
f 45 78 65
f 45 65 71
f 46 76 79
f 46 79 68
f 47 69 48
f 48 69 67
f 48 67 80
f 48 80 81
f 48 81 82
f 48 82 83
f 48 83 49
f 49 83 84
f 49 84 85
f 49 85 64
f 50 85 84
f 50 84 86
f 50 86 51
f 52 87 53
f 52 88 89
f 52 89 90
f 52 90 91
f 52 91 87
f 53 87 92
f 54 93 55
f 55 93 56
f 56 94 95
f 56 95 72
f 56 72 96
f 56 96 65
f 56 65 97
f 56 97 98
f 56 98 57
f 56 93 94
f 57 98 61
f 57 61 60
f 59 61 99
f 59 99 62
f 61 98 97
f 61 97 99
f 62 99 97
f 62 97 63
f 63 97 65
f 65 96 100
f 65 100 101
f 65 101 71
f 65 78 66
f 66 78 70
f 67 68 80
f 68 79 102
f 68 102 103
f 68 103 81
f 68 81 80
f 70 78 77
f 71 101 72
f 72 101 100
f 72 100 96
f 72 95 104
f 72 104 105
f 72 105 106
f 72 106 73
f 73 106 107
f 73 107 108
f 73 108 74
f 74 108 75
f 75 109 110
f 75 110 111
f 75 111 112
f 75 112 113
f 75 113 90
f 75 90 114
f 75 114 115
f 75 115 76
f 75 108 109
f 76 115 79
f 79 115 116
f 79 116 102
f 81 103 117
f 81 117 83
f 81 83 82
f 83 118 84
f 83 117 118
f 84 118 86
f 87 119 92
f 87 91 90
f 87 90 119
f 88 120 89
f 89 120 121
f 89 121 115
f 89 115 122
f 89 122 90
f 90 122 115
f 90 115 114
f 90 113 123
f 90 123 124
f 90 124 125
f 90 125 119
f 92 119 126
f 102 116 103
f 103 127 117
f 103 116 115
f 103 115 127
f 107 128 108
f 108 128 109
f 109 128 129
f 109 129 130
f 109 130 131
f 109 131 110
f 110 131 132
f 110 132 111
f 111 133 134
f 111 134 112
f 111 132 135
f 111 135 136
f 111 136 133
f 112 134 123
f 112 123 113
f 115 121 137
f 115 137 138
f 115 138 117
f 115 117 127
f 117 138 139
f 117 139 118
f 119 124 140
f 119 140 141
f 119 141 126
f 119 125 124
f 121 142 137
f 123 134 124
f 124 134 133
f 124 133 140
f 129 143 130
f 130 143 131
f 131 143 135
f 131 135 132
f 135 143 136
f 137 142 144
f 137 144 139
f 137 139 138
