v 0.466734 0.322255 -0.259319
v 0.466734 0.322255 -0.28309
v 0.401538 0.322255 -0.349514
v 0.401538 0.0771174 -0.421793
v 0.466734 0.0771654 -0.3455
v 0.466734 0.320287 -0.284247
v 0.464628 0.322111 -0.286141
v 0.464711 0.322255 -0.28593
v 0.401538 0.322255 -0.372374
v 0.401538 0.0771174 -0.438395
v 0.465821 0.0771174 -0.346744
v 0.466734 0.0771174 -0.346955
v 0.466734 0.315511 -0.287
v 0.429477 0.322255 -0.334543
v 0.466734 0.291705 -0.300673
v 0.404582 0.322255 -0.368798
v 0.403306 0.306536 -0.379264
v 0.401538 0.308456 -0.380035
v 0.402055 0.0771174 -0.437992
v 0.401538 0.0774054 -0.438395
v 0.466734 0.0771174 -0.367027
v 0.411034 0.316111 -0.363486
v 0.412495 0.322255 -0.357946
v 0.433051 0.303992 -0.340083
v 0.41769 0.288034 -0.370411
v 0.466734 0.281338 -0.305828
v 0.463613 0.284122 -0.308843
v 0.453007 0.287074 -0.322254
v 0.406956 0.322255 -0.365555
v 0.406452 0.313447 -0.371322
v 0.405227 0.298593 -0.381437
v 0.401538 0.301257 -0.383454
v 0.409209 0.0771174 -0.432189
v 0.401538 0.0891163 -0.437676
v 0.408749 0.0893082 -0.431821
v 0.464877 0.0771174 -0.369815
v 0.466734 0.0892603 -0.366116
v 0.409311 0.322255 -0.362329
v 0.439318 0.281962 -0.343606
v 0.419132 0.279803 -0.372392
v 0.414697 0.279803 -0.378352
v 0.406656 0.291705 -0.383015
v 0.466734 0.278171 -0.307388
v 0.454251 0.279803 -0.323972
v 0.465113 0.276179 -0.310613
v 0.401538 0.284386 -0.390694
v 0.401538 0.292353 -0.387328
v 0.403031 0.279803 -0.391307
v 0.428424 0.0771174 -0.416481
v 0.401538 0.0893082 -0.437659
v 0.401538 0.0997713 -0.436414
v 0.421162 0.101211 -0.420321
v 0.422017 0.0893082 -0.420952
v 0.444487 0.0771174 -0.397934
v 0.450282 0.0774054 -0.389922
v 0.464583 0.0871725 -0.369411
v 0.464341 0.0950917 -0.369096
v 0.466734 0.091948 -0.365888
v 0.440607 0.274019 -0.345377
v 0.417263 0.263724 -0.381718
v 0.416675 0.237974 -0.39285
v 0.408743 0.279803 -0.385364
v 0.404454 0.272843 -0.392517
v 0.466734 0.274523 -0.309036
v 0.466734 0.267924 -0.311805
v 0.401538 0.281554 -0.391886
v 0.401538 0.279803 -0.392552
v 0.439726 0.0771174 -0.404087
v 0.427971 0.0893082 -0.416026
v 0.439394 0.0893082 -0.403596
v 0.401538 0.101211 -0.436239
v 0.427116 0.101211 -0.415377
v 0.419847 0.113138 -0.419251
v 0.425801 0.113138 -0.41436
v 0.444334 0.0771174 -0.398144
v 0.443977 0.0893082 -0.397653
v 0.454251 0.0893082 -0.383489
v 0.443294 0.101211 -0.396707
v 0.449248 0.101211 -0.388502
v 0.453568 0.101211 -0.382542
v 0.466734 0.114002 -0.361347
v 0.466734 0.101211 -0.36424
v 0.4415 0.2679 -0.346621
v 0.431239 0.2679 -0.360769
v 0.418392 0.255997 -0.383278
v 0.417862 0.230031 -0.39413
v 0.417888 0.193675 -0.405788
v 0.405903 0.264924 -0.393832
v 0.429267 0.192643 -0.393779
v 0.401538 0.270179 -0.395743
v 0.401538 0.275603 -0.39399
v 0.453511 0.255997 -0.334858
v 0.466734 0.235767 -0.324761
v 0.432923 0.101211 -0.409417
v 0.438871 0.101211 -0.40265
v 0.401538 0.160366 -0.42558
v 0.406554 0.113138 -0.430033
v 0.432011 0.113138 -0.408417
v 0.429171 0.145895 -0.405384
v 0.41852 0.125041 -0.418182
v 0.413229 0.172653 -0.413887
v 0.420453 0.172653 -0.407926
v 0.428405 0.153838 -0.404596
v 0.437952 0.113138 -0.401247
v 0.45286 0.109466 -0.38156
v 0.466734 0.123961 -0.358981
v 0.42524 0.220264 -0.388222
v 0.425087 0.184579 -0.400897
v 0.419132 0.184579 -0.406822
v 0.405099 0.191227 -0.416937
v 0.406988 0.220264 -0.406577
v 0.401538 0.255997 -0.400108
v 0.401538 0.266604 -0.396865
v 0.431296 0.208361 -0.384663
v 0.46459 0.191299 -0.345622
v 0.430115 0.184579 -0.394936
v 0.466734 0.233199 -0.325795
v 0.401538 0.170445 -0.423757
v 0.401538 0.172653 -0.423353
v 0.411876 0.184579 -0.412782
v 0.432202 0.16075 -0.397811
v 0.426408 0.172653 -0.402352
v 0.431175 0.172653 -0.396391
v 0.436925 0.125041 -0.399827
v 0.466734 0.171909 -0.347551
v 0.405922 0.184579 -0.417603
v 0.401538 0.184291 -0.421162
v 0.401538 0.193987 -0.418918
v 0.401538 0.201618 -0.416622
v 0.401538 0.208361 -0.414588
v 0.405527 0.228063 -0.405384
v 0.466734 0.188707 -0.343221
v 0.466734 0.182372 -0.344974
v 0.465241 0.184579 -0.346516
v 0.466415 0.208361 -0.336226
v 0.466734 0.208385 -0.33577
v 0.466734 0.207857 -0.33598
v 0.466734 0.194658 -0.341222
v 0.440798 0.179996 -0.38135
f 1 2 8
f 1 8 14
f 1 14 23
f 1 23 38
f 1 38 29
f 1 29 16
f 1 16 9
f 1 9 3
f 1 3 4
f 1 4 5
f 1 5 12
f 1 12 21
f 1 21 37
f 1 37 58
f 1 58 82
f 1 82 81
f 1 81 106
f 1 106 125
f 1 125 133
f 1 133 132
f 1 132 138
f 1 138 137
f 1 137 136
f 1 136 117
f 1 117 93
f 1 93 65
f 1 65 64
f 1 64 43
f 1 43 26
f 1 26 15
f 1 15 13
f 1 13 6
f 1 6 2
f 2 6 7
f 2 7 8
f 3 9 18
f 3 18 32
f 3 32 47
f 3 47 46
f 3 46 66
f 3 66 67
f 3 67 91
f 3 91 90
f 3 90 113
f 3 113 112
f 3 112 130
f 3 130 129
f 3 129 128
f 3 128 127
f 3 127 119
f 3 119 118
f 3 118 96
f 3 96 71
f 3 71 51
f 3 51 50
f 3 50 34
f 3 34 20
f 3 20 10
f 3 10 4
f 4 10 19
f 4 19 33
f 4 33 49
f 4 49 68
f 4 68 75
f 4 75 54
f 4 54 36
f 4 36 21
f 4 21 12
f 4 12 11
f 4 11 5
f 5 11 12
f 6 13 7
f 7 14 8
f 7 13 15
f 7 15 14
f 9 16 17
f 9 17 18
f 10 20 19
f 14 22 23
f 14 15 24
f 14 24 25
f 14 25 22
f 15 26 27
f 15 27 28
f 15 28 25
f 15 25 24
f 16 29 30
f 16 30 31
f 16 31 17
f 17 31 18
f 18 31 32
f 19 20 33
f 20 34 35
f 20 35 33
f 21 36 37
f 22 30 23
f 22 25 30
f 23 30 38
f 25 28 39
f 25 39 40
f 25 40 41
f 25 41 42
f 25 42 31
f 25 31 30
f 26 43 27
f 27 43 28
f 28 44 39
f 28 43 45
f 28 45 44
f 29 38 30
f 31 46 47
f 31 47 32
f 31 42 48
f 31 48 46
f 33 35 49
f 34 50 35
f 35 50 51
f 35 51 52
f 35 52 53
f 35 53 49
f 36 54 55
f 36 55 56
f 36 56 37
f 37 56 57
f 37 57 58
f 39 44 45
f 39 45 59
f 39 59 40
f 40 59 60
f 40 60 41
f 41 60 61
f 41 61 62
f 41 62 42
f 42 62 63
f 42 63 48
f 43 64 45
f 45 64 65
f 45 65 59
f 46 48 66
f 48 63 67
f 48 67 66
f 49 53 69
f 49 69 70
f 49 70 68
f 51 71 52
f 52 72 69
f 52 69 53
f 52 71 73
f 52 73 74
f 52 74 72
f 54 75 76
f 54 76 55
f 55 76 77
f 55 77 56
f 56 77 57
f 57 78 79
f 57 79 80
f 57 80 81
f 57 81 82
f 57 82 58
f 57 77 76
f 57 76 78
f 59 65 83
f 59 83 84
f 59 84 60
f 60 84 85
f 60 85 61
f 61 86 87
f 61 87 88
f 61 88 63
f 61 63 62
f 61 85 89
f 61 89 86
f 63 88 90
f 63 90 91
f 63 91 67
f 65 92 83
f 65 93 92
f 68 70 75
f 69 72 94
f 69 94 70
f 70 94 95
f 70 95 76
f 70 76 75
f 71 96 97
f 71 97 73
f 72 98 94
f 72 74 99
f 72 99 98
f 73 97 100
f 73 100 74
f 74 100 101
f 74 101 102
f 74 102 103
f 74 103 99
f 76 95 78
f 78 95 104
f 78 104 79
f 79 104 105
f 79 105 81
f 79 81 80
f 81 105 106
f 83 92 85
f 83 85 84
f 85 92 107
f 85 107 89
f 86 89 87
f 87 89 108
f 87 108 109
f 87 109 110
f 87 110 111
f 87 111 88
f 88 111 112
f 88 112 113
f 88 113 90
f 89 114 115
f 89 115 116
f 89 116 108
f 89 107 114
f 92 93 117
f 92 117 115
f 92 115 114
f 92 114 107
f 94 98 95
f 95 98 99
f 95 99 104
f 96 118 101
f 96 101 97
f 97 101 100
f 99 103 104
f 101 118 119
f 101 119 120
f 101 120 109
f 101 109 102
f 102 109 103
f 103 121 104
f 103 109 122
f 103 122 116
f 103 116 123
f 103 123 121
f 104 124 106
f 104 106 105
f 104 121 123
f 104 123 124
f 106 124 125
f 108 116 122
f 108 122 109
f 109 120 110
f 110 120 126
f 110 126 127
f 110 127 128
f 110 128 129
f 110 129 130
f 110 130 112
f 110 112 131
f 110 131 111
f 111 131 112
f 115 132 133
f 115 133 134
f 115 134 116
f 115 117 135
f 115 135 136
f 115 136 137
f 115 137 138
f 115 138 132
f 116 134 139
f 116 139 123
f 117 136 135
f 119 127 126
f 119 126 120
f 123 139 125
f 123 125 124
f 125 139 134
f 125 134 133
