v 0.379798 -0.539843 0.220284
v 0.388083 -0.539225 0.200441
v 0.385326 -0.539843 0.220284
v 0.379798 -0.538502 0.231156
v 0.379798 -0.538674 0.21126
v 0.395707 -0.539018 0.200441
v 0.379798 -0.538571 0.210526
v 0.386712 -0.535958 0.200441
v 0.383086 -0.538434 0.230121
v 0.379798 -0.53613 0.238884
v 0.394578 -0.538021 0.206099
v 0.39922 -0.534617 0.200441
v 0.379798 -0.53276 0.21033
v 0.386519 -0.529184 0.200441
v 0.392644 -0.53558 0.214037
v 0.39129 -0.53331 0.220284
v 0.387341 -0.53025 0.232741
v 0.380942 -0.535717 0.238059
v 0.379798 -0.533276 0.241622
v 0.401267 -0.531453 0.200441
v 0.398882 -0.529803 0.208352
v 0.379798 -0.388989 0.334227
v 0.457537 -0.188651 0.334227
v 0.530457 -0.188582 0.200441
v 0.395062 -0.527361 0.220284
v 0.393466 -0.524748 0.227436
v 0.39158 -0.521859 0.235374
v 0.383489 -0.515395 0.253083
v 0.379798 -0.510546 0.261937
v 0.405071 -0.488504 0.250371
v 0.398092 -0.493009 0.255021
v 0.405442 -0.524885 0.200441
v 0.407328 -0.521825 0.200441
v 0.379798 -0.421243 0.334227
v 0.457569 -0.188582 0.334227
v 0.544464 -0.188582 0.200441
v 0.40628 -0.502431 0.229466
v 0.417321 -0.477191 0.239434
v 0.415516 -0.474302 0.247372
v 0.37991 -0.498545 0.272481
v 0.39324 -0.464777 0.28613
v 0.379798 -0.485994 0.283785
v 0.417982 -0.466359 0.252231
v 0.415548 -0.462473 0.260169
v 0.407618 -0.468181 0.265369
v 0.418434 -0.490911 0.218097
v 0.441596 -0.466015 0.200441
v 0.379798 -0.425611 0.331162
v 0.381716 -0.417908 0.334227
v 0.474816 -0.188582 0.334227
v 0.542868 -0.196801 0.200441
v 0.537275 -0.188582 0.217639
v 0.536727 -0.194119 0.21642
v 0.427041 -0.473615 0.222603
v 0.429475 -0.465671 0.228065
v 0.38207 -0.465809 0.298953
v 0.379798 -0.467253 0.300459
v 0.404314 -0.463677 0.273293
v 0.411212 -0.459103 0.268421
v 0.379798 -0.460272 0.306196
v 0.427557 -0.462611 0.236002
v 0.429813 -0.454667 0.240744
v 0.429974 -0.443251 0.253004
v 0.428024 -0.439606 0.260942
v 0.417998 -0.454564 0.263548
v 0.44374 -0.462198 0.200441
v 0.440951 -0.464983 0.203296
v 0.379798 -0.454014 0.311056
v 0.381345 -0.452982 0.309955
v 0.382667 -0.431491 0.323499
v 0.385616 -0.411099 0.334227
v 0.475509 -0.188582 0.333414
v 0.474751 -0.188857 0.334227
v 0.538887 -0.197454 0.209439
v 0.537549 -0.208389 0.206335
v 0.541691 -0.201615 0.200441
v 0.513194 -0.188582 0.271918
v 0.512001 -0.190577 0.27387
v 0.439178 -0.461785 0.211234
v 0.379798 -0.457865 0.308069
v 0.44274 -0.458072 0.20771
v 0.44129 -0.453876 0.215975
v 0.450687 -0.448925 0.200441
v 0.45802 -0.433863 0.200441
v 0.441773 -0.419215 0.252768
v 0.453733 -0.38359 0.264779
v 0.430136 -0.431663 0.26419
v 0.451734 -0.37991 0.272704
v 0.439742 -0.403431 0.272547
v 0.414823 -0.449062 0.271473
v 0.441918 -0.395488 0.275677
v 0.429571 -0.418321 0.27497
v 0.446141 -0.457762 0.200441
v 0.39922 -0.447068 0.292115
v 0.402718 -0.436821 0.295036
v 0.407312 -0.38696 0.324521
v 0.394594 -0.395419 0.334227
v 0.474429 -0.190198 0.334227
v 0.475767 -0.188892 0.333008
v 0.489838 -0.188582 0.315666
v 0.537484 -0.218774 0.200441
v 0.512743 -0.205363 0.263653
v 0.523945 -0.226442 0.226349
v 0.525315 -0.265815 0.200441
v 0.512162 -0.188582 0.274223
v 0.500847 -0.188582 0.299202
v 0.500509 -0.192227 0.298547
v 0.502378 -0.196285 0.292102
v 0.501089 -0.208389 0.288003
v 0.449768 -0.450747 0.200441
v 0.476911 -0.394972 0.200441
v 0.472285 -0.397998 0.207527
v 0.476686 -0.381836 0.215255
v 0.474913 -0.377985 0.223192
v 0.465209 -0.371004 0.251943
v 0.455635 -0.375578 0.268408
v 0.453733 -0.371967 0.275939
v 0.418965 -0.434585 0.276581
v 0.410374 -0.445761 0.279292
v 0.449155 -0.375578 0.279869
v 0.441096 -0.381939 0.286418
v 0.438823 -0.389883 0.283615
v 0.427669 -0.391189 0.296451
v 0.429942 -0.383246 0.299241
v 0.415564 -0.378776 0.320015
v 0.403653 -0.379257 0.334227
v 0.472737 -0.196388 0.334227
v 0.479716 -0.196491 0.325739
v 0.48568 -0.196491 0.318417
v 0.490515 -0.196491 0.312457
v 0.491466 -0.188582 0.313649
v 0.514354 -0.232116 0.244542
v 0.501782 -0.244117 0.265749
v 0.513049 -0.244117 0.240508
v 0.489709 -0.266778 0.279633
v 0.500412 -0.275065 0.250803
v 0.513645 -0.279845 0.218045
v 0.517852 -0.290986 0.200441
v 0.500702 -0.252439 0.263339
v 0.488194 -0.262033 0.285789
v 0.497462 -0.188582 0.304886
v 0.488468 -0.239303 0.298128
v 0.490225 -0.243601 0.291919
v 0.480909 -0.386719 0.200441
v 0.477975 -0.386272 0.207527
v 0.48597 -0.375922 0.200441
v 0.478088 -0.374443 0.219643
v 0.488162 -0.369079 0.202405
v 0.466579 -0.362855 0.255951
v 0.464903 -0.358694 0.263168
v 0.451122 -0.366018 0.283877
v 0.464597 -0.345936 0.274354
v 0.464113 -0.333076 0.285488
v 0.442934 -0.375062 0.288684
v 0.41766 -0.370832 0.322595
v 0.407199 -0.372758 0.334227
v 0.47098 -0.202406 0.334227
v 0.469223 -0.208389 0.334227
v 0.473091 -0.208389 0.329472
v 0.458375 -0.244117 0.334227
v 0.495415 -0.188582 0.308109
v 0.476363 -0.250375 0.309693
v 0.475154 -0.258319 0.3082
v 0.489129 -0.205569 0.310754
v 0.488936 -0.276544 0.275546
v 0.502121 -0.279329 0.244202
v 0.512517 -0.287238 0.21553
v 0.514193 -0.291399 0.208326
v 0.516031 -0.295938 0.200441
v 0.479442 -0.280258 0.292495
v 0.477121 -0.276544 0.298769
v 0.487695 -0.372036 0.200441
v 0.489629 -0.36117 0.205693
v 0.477717 -0.362167 0.231562
v 0.489677 -0.367119 0.200441
v 0.501153 -0.336308 0.200441
v 0.489838 -0.314747 0.243626
v 0.489564 -0.289542 0.265068
v 0.476927 -0.311378 0.275323
v 0.452846 -0.358109 0.286221
v 0.446415 -0.362923 0.291578
v 0.428814 -0.369388 0.309759
v 0.478136 -0.303022 0.279489
v 0.476621 -0.29862 0.286392
v 0.465806 -0.339368 0.277
v 0.477895 -0.291743 0.288697
v 0.475654 -0.284487 0.296975
v 0.465773 -0.303641 0.299398
v 0.419401 -0.363164 0.324743
v 0.408488 -0.369973 0.334227
v 0.455442 -0.253745 0.334227
v 0.452846 -0.263236 0.33386
v 0.473688 -0.267913 0.306393
v 0.47841 -0.267913 0.300446
v 0.49095 -0.280223 0.268578
v 0.512823 -0.299961 0.204318
v 0.46774 -0.267913 0.313728
v 0.455055 -0.279845 0.324665
v 0.461002 -0.279845 0.31733
v 0.465822 -0.279845 0.31137
v 0.464661 -0.286482 0.309942
v 0.454329 -0.351266 0.288055
v 0.446641 -0.339644 0.30376
v 0.441692 -0.359829 0.299058
v 0.467643 -0.290952 0.30376
v 0.460954 -0.303641 0.305358
v 0.45802 -0.31461 0.303118
v 0.411761 -0.362786 0.334227
v 0.430522 -0.339368 0.323774
v 0.418224 -0.348137 0.334227
v 0.452443 -0.26358 0.334227
v 0.450235 -0.270457 0.334227
v 0.449075 -0.274068 0.334227
v 0.447189 -0.279845 0.334227
v 0.453523 -0.288201 0.322779
v 0.458246 -0.291296 0.315299
v 0.453298 -0.311515 0.310597
v 0.426138 -0.329912 0.334227
v 0.439742 -0.298551 0.334227
v 0.443578 -0.289404 0.334227
v 0.442676 -0.291777 0.334227
f 1 2 3
f 1 3 4
f 1 4 10
f 1 10 19
f 1 19 29
f 1 29 42
f 1 42 57
f 1 57 60
f 1 60 80
f 1 80 68
f 1 68 48
f 1 48 34
f 1 34 22
f 1 22 13
f 1 13 7
f 1 7 5
f 1 5 2
f 2 6 3
f 2 5 7
f 2 7 8
f 2 8 14
f 2 14 24
f 2 24 36
f 2 36 51
f 2 51 76
f 2 76 101
f 2 101 104
f 2 104 138
f 2 138 169
f 2 169 176
f 2 176 175
f 2 175 172
f 2 172 146
f 2 146 144
f 2 144 111
f 2 111 84
f 2 84 83
f 2 83 110
f 2 110 93
f 2 93 66
f 2 66 47
f 2 47 33
f 2 33 32
f 2 32 20
f 2 20 12
f 2 12 6
f 3 6 9
f 3 9 4
f 4 9 10
f 6 11 9
f 6 12 11
f 7 13 14
f 7 14 8
f 9 11 15
f 9 15 16
f 9 16 17
f 9 17 18
f 9 18 10
f 10 18 19
f 11 12 20
f 11 20 21
f 11 21 15
f 13 22 23
f 13 23 14
f 14 23 24
f 15 21 16
f 16 21 25
f 16 25 26
f 16 26 27
f 16 27 17
f 17 27 18
f 18 28 29
f 18 29 19
f 18 27 30
f 18 30 31
f 18 31 28
f 20 32 21
f 21 32 33
f 21 33 25
f 22 34 49
f 22 49 71
f 22 71 97
f 22 97 126
f 22 126 156
f 22 156 190
f 22 190 208
f 22 208 210
f 22 210 218
f 22 218 219
f 22 219 221
f 22 221 220
f 22 220 214
f 22 214 213
f 22 213 212
f 22 212 211
f 22 211 191
f 22 191 160
f 22 160 158
f 22 158 157
f 22 157 127
f 22 127 98
f 22 98 73
f 22 73 50
f 22 50 35
f 22 35 23
f 23 35 24
f 24 35 50
f 24 50 72
f 24 72 100
f 24 100 131
f 24 131 161
f 24 161 141
f 24 141 106
f 24 106 105
f 24 105 77
f 24 77 52
f 24 52 36
f 25 33 37
f 25 37 26
f 26 37 38
f 26 38 39
f 26 39 27
f 27 39 30
f 28 40 29
f 28 31 41
f 28 41 40
f 29 40 42
f 30 39 43
f 30 43 44
f 30 44 45
f 30 45 31
f 31 45 41
f 33 46 37
f 33 47 46
f 34 48 49
f 36 52 53
f 36 53 51
f 37 46 54
f 37 54 38
f 38 54 55
f 38 55 39
f 39 55 43
f 40 41 56
f 40 56 57
f 40 57 42
f 41 45 58
f 41 58 59
f 41 59 60
f 41 60 56
f 43 55 61
f 43 61 62
f 43 62 63
f 43 63 64
f 43 64 44
f 44 64 65
f 44 65 59
f 44 59 58
f 44 58 45
f 46 47 54
f 47 66 67
f 47 67 55
f 47 55 54
f 48 68 69
f 48 69 70
f 48 70 49
f 49 70 71
f 50 73 72
f 51 74 75
f 51 75 76
f 51 53 74
f 52 77 78
f 52 78 53
f 53 78 75
f 53 75 74
f 55 67 79
f 55 79 62
f 55 62 61
f 56 60 57
f 59 65 69
f 59 69 80
f 59 80 60
f 62 79 81
f 62 81 82
f 62 82 63
f 63 82 83
f 63 83 84
f 63 84 85
f 63 85 86
f 63 86 64
f 64 87 65
f 64 86 88
f 64 88 89
f 64 89 87
f 65 90 69
f 65 87 91
f 65 91 92
f 65 92 90
f 66 79 67
f 66 93 79
f 68 80 69
f 69 90 94
f 69 94 70
f 70 94 95
f 70 95 96
f 70 96 97
f 70 97 71
f 72 73 98
f 72 98 99
f 72 99 100
f 75 101 76
f 75 78 102
f 75 102 103
f 75 103 104
f 75 104 101
f 77 105 78
f 78 105 106
f 78 106 107
f 78 107 108
f 78 108 109
f 78 109 102
f 79 93 81
f 81 93 82
f 82 110 83
f 82 93 110
f 84 111 112
f 84 112 86
f 84 86 85
f 86 112 113
f 86 113 114
f 86 114 115
f 86 115 116
f 86 116 88
f 87 89 91
f 88 116 117
f 88 117 91
f 88 91 89
f 90 92 118
f 90 118 119
f 90 119 94
f 91 117 120
f 91 120 121
f 91 121 122
f 91 122 92
f 92 122 121
f 92 121 118
f 94 119 95
f 95 119 118
f 95 118 123
f 95 123 96
f 96 121 124
f 96 124 125
f 96 125 126
f 96 126 97
f 96 123 121
f 98 127 128
f 98 128 99
f 99 128 129
f 99 129 130
f 99 130 100
f 100 130 131
f 102 109 103
f 103 109 132
f 103 132 133
f 103 133 134
f 103 134 104
f 104 135 136
f 104 136 137
f 104 137 138
f 104 134 133
f 104 133 139
f 104 139 140
f 104 140 135
f 106 141 107
f 107 141 142
f 107 142 143
f 107 143 108
f 108 143 109
f 109 143 140
f 109 140 133
f 109 133 132
f 111 144 145
f 111 145 113
f 111 113 112
f 113 145 144
f 113 144 146
f 113 146 114
f 114 146 147
f 114 147 115
f 115 117 116
f 115 147 148
f 115 148 149
f 115 149 150
f 115 150 117
f 117 151 120
f 117 150 152
f 117 152 153
f 117 153 151
f 118 121 123
f 120 151 121
f 121 151 154
f 121 154 125
f 121 125 124
f 125 154 155
f 125 155 156
f 125 156 126
f 127 157 128
f 128 157 158
f 128 158 129
f 129 158 159
f 129 159 160
f 129 160 130
f 130 161 131
f 130 160 162
f 130 162 163
f 130 163 164
f 130 164 142
f 130 142 161
f 133 140 139
f 135 165 136
f 135 140 165
f 136 165 166
f 136 166 137
f 137 166 167
f 137 167 138
f 138 167 168
f 138 168 169
f 140 143 142
f 140 142 170
f 140 170 165
f 141 161 142
f 142 164 171
f 142 171 170
f 146 172 148
f 146 148 147
f 148 173 174
f 148 174 149
f 148 172 175
f 148 175 176
f 148 176 173
f 149 174 150
f 150 174 173
f 150 173 176
f 150 176 177
f 150 177 178
f 150 178 179
f 150 179 152
f 151 180 181
f 151 181 182
f 151 182 154
f 151 153 180
f 152 179 183
f 152 183 184
f 152 184 185
f 152 185 153
f 153 185 184
f 153 184 186
f 153 186 187
f 153 187 188
f 153 188 180
f 154 182 155
f 155 182 189
f 155 189 190
f 155 190 156
f 158 160 159
f 160 191 163
f 160 163 162
f 163 191 192
f 163 192 193
f 163 193 164
f 164 193 194
f 164 194 171
f 165 170 186
f 165 186 178
f 165 178 195
f 165 195 166
f 166 195 167
f 167 196 168
f 167 195 178
f 167 178 177
f 167 177 176
f 167 176 196
f 168 196 169
f 169 196 176
f 170 171 187
f 170 187 186
f 171 194 193
f 171 193 197
f 171 197 198
f 171 198 199
f 171 199 200
f 171 200 201
f 171 201 187
f 178 186 184
f 178 184 183
f 178 183 179
f 180 202 181
f 180 188 202
f 181 189 182
f 181 202 203
f 181 203 204
f 181 204 189
f 187 201 205
f 187 205 188
f 188 205 201
f 188 201 206
f 188 206 207
f 188 207 202
f 189 208 190
f 189 204 209
f 189 209 210
f 189 210 208
f 191 211 192
f 192 211 197
f 192 197 193
f 197 211 198
f 198 211 212
f 198 212 213
f 198 213 214
f 198 214 215
f 198 215 201
f 198 201 199
f 199 201 200
f 201 215 216
f 201 216 206
f 202 207 203
f 203 207 217
f 203 217 209
f 203 209 204
f 206 216 207
f 207 216 215
f 207 215 217
f 209 218 210
f 209 217 215
f 209 215 219
f 209 219 218
f 214 220 215
f 215 220 221
f 215 221 219
