v 0.402459 0.32227 -9.55442e-05
v 0.393084 0.357829 -9.55442e-05
v 0.309786 0.32227 -9.55442e-05
v 0.401866 0.32227 -0.00630597
v 0.393049 0.357673 -0.00117562
v 0.39284 0.358735 -9.55442e-05
v 0.309786 0.481793 -9.55442e-05
v 0.224431 0.32227 -0.212289
v 0.401152 0.32227 -0.0132018
v 0.391358 0.362249 -0.00547514
v 0.391533 0.363404 -9.55442e-05
v 0.39873 0.32227 -0.0365065
v 0.389285 0.351255 -0.0536008
v 0.383604 0.36317 -0.077404
v 0.348873 0.481793 -9.55442e-05
v 0.224431 0.481793 -0.212289
v 0.340595 0.32227 -0.212289
v 0.389807 0.36317 -0.0178752
v 0.381512 0.370572 -0.077404
v 0.387385 0.37507 -0.00597364
v 0.389529 0.369979 -9.55442e-05
v 0.394809 0.32227 -0.074143
v 0.392665 0.332421 -0.0689503
v 0.389947 0.339355 -0.077404
v 0.386793 0.351255 -0.077404
v 0.381129 0.369495 -0.084009
v 0.355495 0.466474 -9.55442e-05
v 0.348472 0.481793 -0.0052259
v 0.274915 0.481793 -0.212289
v 0.340003 0.324113 -0.212289
v 0.34652 0.32227 -0.204105
v 0.369087 0.404788 -0.0832405
v 0.357046 0.440113 -0.0818904
v 0.367693 0.410285 -0.0785256
v 0.380083 0.378318 -0.0655024
v 0.379892 0.389671 -0.0297768
v 0.380885 0.392545 -0.010647
v 0.381286 0.393747 -0.00271265
v 0.387908 0.37507 -9.55442e-05
v 0.39446 0.32227 -0.077404
v 0.393798 0.3248 -0.077404
v 0.393554 0.32227 -0.0854214
v 0.393293 0.322911 -0.0861899
v 0.382088 0.362951 -0.0885163
v 0.380327 0.366762 -0.0919434
v 0.378567 0.374102 -0.0885163
v 0.392526 0.32227 -0.0931897
v 0.356802 0.463413 -9.55442e-05
v 0.353369 0.470315 -0.00597364
v 0.34835 0.481793 -0.00661753
v 0.276013 0.479732 -0.212289
v 0.288281 0.481793 -0.193865
v 0.331917 0.349021 -0.212289
v 0.34375 0.339355 -0.200283
v 0.345213 0.356955 -0.190334
v 0.346416 0.349021 -0.192162
v 0.351557 0.32227 -0.196711
v 0.359067 0.435522 -0.0777155
v 0.358423 0.432164 -0.0872077
v 0.352585 0.4465 -0.0893055
v 0.346102 0.466192 -0.0855461
v 0.350807 0.458415 -0.077404
v 0.355512 0.445766 -0.0777155
v 0.355843 0.44853 -0.0655024
v 0.356471 0.450326 -0.0536008
v 0.358527 0.444376 -0.0536008
v 0.374228 0.398885 -0.0536008
v 0.364382 0.4346 -0.0297768
v 0.36562 0.4346 -0.0178752
v 0.37076 0.423403 -0.005579
v 0.369244 0.429056 -0.00136256
v 0.382209 0.391717 -9.55442e-05
v 0.393415 0.32227 -0.086543
v 0.38146 0.358829 -0.0964507
v 0.37449 0.37507 -0.101228
v 0.369471 0.393935 -0.0962222
v 0.391881 0.32227 -0.0955783
v 0.357778 0.460977 -9.55442e-05
v 0.356558 0.462804 -0.00597364
v 0.344359 0.481793 -0.0451056
v 0.347252 0.481793 -0.0173144
v 0.347514 0.469519 -0.0655024
v 0.343471 0.481793 -0.0536423
v 0.280858 0.47055 -0.212289
v 0.291976 0.470768 -0.196794
v 0.301212 0.469972 -0.184622
v 0.298511 0.481793 -0.179741
v 0.331185 0.351255 -0.212289
v 0.334392 0.360265 -0.203793
v 0.34246 0.352301 -0.196254
v 0.356558 0.32227 -0.188319
v 0.354676 0.32227 -0.191643
v 0.337859 0.36381 -0.197396
v 0.335977 0.37507 -0.194073
v 0.344185 0.36317 -0.188382
v 0.345876 0.370728 -0.179886
v 0.347026 0.36317 -0.18242
v 0.347827 0.458665 -0.0894302
v 0.357168 0.428541 -0.0951629
v 0.347949 0.446859 -0.101623
v 0.346311 0.454855 -0.0979046
v 0.340717 0.481793 -0.077404
v 0.344237 0.473907 -0.077404
v 0.346851 0.467957 -0.077404
v 0.344603 0.462788 -0.0934804
v 0.333642 0.464912 -0.119714
v 0.342791 0.470222 -0.0894302
v 0.337319 0.481793 -0.0899079
v 0.352114 0.458415 -0.0655024
v 0.356924 0.451638 -0.0449186
v 0.362744 0.4465 -0.00597364
v 0.363232 0.4465 -9.55442e-05
v 0.369297 0.429181 -9.55442e-05
v 0.378637 0.362951 -0.10075
v 0.389895 0.32227 -0.101373
v 0.385137 0.339355 -0.101228
v 0.382262 0.350193 -0.10075
v 0.379944 0.353441 -0.104406
v 0.358004 0.360015 -0.156873
v 0.366195 0.398307 -0.100605
v 0.369349 0.369791 -0.119693
v 0.367902 0.37774 -0.115892
v 0.358963 0.457931 -9.55442e-05
v 0.358945 0.456838 -0.00597364
v 0.355948 0.461258 -0.0178752
v 0.342233 0.481793 -0.0655024
v 0.2845 0.463553 -0.212289
v 0.287619 0.467832 -0.204936
v 0.309245 0.463678 -0.1781
v 0.303617 0.481793 -0.172554
v 0.32716 0.363514 -0.212289
v 0.333085 0.368214 -0.201986
v 0.351034 0.36317 -0.172637
v 0.358318 0.32544 -0.181507
v 0.358754 0.32227 -0.18269
v 0.33427 0.383128 -0.191726
v 0.333573 0.405319 -0.17891
v 0.323709 0.372868 -0.212289
v 0.313271 0.397558 -0.212289
v 0.344429 0.378662 -0.176314
v 0.347287 0.374851 -0.172471
v 0.356854 0.367949 -0.153882
v 0.342896 0.38686 -0.172471
v 0.35262 0.4346 -0.101228
v 0.344778 0.451076 -0.10586
v 0.343262 0.458665 -0.101623
v 0.333816 0.453481 -0.132072
v 0.321148 0.463585 -0.153902
v 0.334862 0.479482 -0.0991093
v 0.322664 0.466942 -0.145968
v 0.312521 0.481793 -0.154733
v 0.357708 0.453746 -0.0297768
v 0.357325 0.452793 -0.0369842
v 0.361298 0.451763 -9.55442e-05
v 0.364051 0.32227 -0.168878
v 0.357603 0.346726 -0.167715
v 0.370098 0.348803 -0.133547
v 0.354746 0.350911 -0.172077
v 0.355443 0.363654 -0.160798
v 0.35837 0.372321 -0.145947
v 0.356924 0.38027 -0.142146
v 0.285441 0.461711 -0.212289
v 0.307503 0.470315 -0.175608
v 0.30989 0.476905 -0.167175
v 0.311389 0.470315 -0.169667
v 0.31409 0.459181 -0.173531
v 0.311197 0.455729 -0.1808
v 0.300271 0.458415 -0.194073
v 0.303808 0.481793 -0.172264
v 0.325574 0.367949 -0.212289
v 0.360305 0.32227 -0.178661
v 0.329512 0.387048 -0.196004
v 0.312783 0.445891 -0.184684
v 0.317819 0.434819 -0.184186
v 0.322437 0.431008 -0.179969
v 0.320799 0.438942 -0.177352
v 0.321322 0.452013 -0.166261
v 0.296263 0.437661 -0.212289
v 0.307154 0.4346 -0.199058
v 0.311476 0.4346 -0.193097
v 0.33467 0.409895 -0.171827
v 0.332178 0.42534 -0.163519
v 0.322838 0.455651 -0.158326
v 0.320067 0.459134 -0.161671
v 0.315467 0.470315 -0.160736
v 0.310779 0.481793 -0.159282
v 0.288125 0.45626 -0.212289
v 0.309001 0.481793 -0.163581
v 0.311162 0.479716 -0.160736
v 0.319562 0.447421 -0.173094
v 0.308322 0.449452 -0.188755
v 0.2975 0.452028 -0.202153
v 0.292272 0.447062 -0.212289
v 0.290477 0.451169 -0.212289
f 1 2 6
f 1 6 11
f 1 11 21
f 1 21 39
f 1 39 72
f 1 72 113
f 1 113 112
f 1 112 154
f 1 154 123
f 1 123 78
f 1 78 48
f 1 48 27
f 1 27 15
f 1 15 7
f 1 7 3
f 1 3 8
f 1 8 17
f 1 17 31
f 1 31 57
f 1 57 92
f 1 92 91
f 1 91 135
f 1 135 171
f 1 171 155
f 1 155 115
f 1 115 77
f 1 77 47
f 1 47 73
f 1 73 42
f 1 42 40
f 1 40 22
f 1 22 12
f 1 12 9
f 1 9 4
f 1 4 5
f 1 5 2
f 2 5 6
f 3 7 16
f 3 16 8
f 4 9 5
f 5 10 11
f 5 11 6
f 5 9 12
f 5 12 13
f 5 13 14
f 5 14 10
f 7 15 28
f 7 28 50
f 7 50 81
f 7 81 80
f 7 80 83
f 7 83 126
f 7 126 102
f 7 102 108
f 7 108 151
f 7 151 186
f 7 186 188
f 7 188 169
f 7 169 130
f 7 130 87
f 7 87 52
f 7 52 29
f 7 29 16
f 8 16 29
f 8 29 51
f 8 51 84
f 8 84 127
f 8 127 162
f 8 162 187
f 8 187 194
f 8 194 193
f 8 193 178
f 8 178 139
f 8 139 138
f 8 138 170
f 8 170 131
f 8 131 88
f 8 88 53
f 8 53 30
f 8 30 17
f 10 18 19
f 10 19 20
f 10 20 21
f 10 21 11
f 10 14 18
f 12 22 13
f 13 22 23
f 13 23 24
f 13 24 25
f 13 25 14
f 14 25 26
f 14 26 18
f 15 27 28
f 17 30 31
f 18 26 19
f 19 26 32
f 19 32 33
f 19 33 34
f 19 34 35
f 19 35 36
f 19 36 20
f 20 36 37
f 20 37 38
f 20 38 39
f 20 39 21
f 22 40 41
f 22 41 24
f 22 24 23
f 24 41 42
f 24 42 25
f 25 42 43
f 25 43 26
f 26 44 45
f 26 45 46
f 26 46 32
f 26 43 47
f 26 47 44
f 27 48 49
f 27 49 28
f 28 49 50
f 29 52 51
f 30 53 54
f 30 54 31
f 31 54 55
f 31 55 56
f 31 56 57
f 32 46 45
f 32 45 33
f 33 58 34
f 33 45 59
f 33 59 60
f 33 60 61
f 33 61 62
f 33 62 63
f 33 63 64
f 33 64 65
f 33 65 66
f 33 66 58
f 34 58 66
f 34 66 67
f 34 67 35
f 35 67 36
f 36 67 66
f 36 66 68
f 36 68 69
f 36 69 70
f 36 70 37
f 37 70 71
f 37 71 38
f 38 71 72
f 38 72 39
f 40 42 41
f 42 73 43
f 43 73 47
f 44 47 45
f 45 47 74
f 45 74 75
f 45 75 76
f 45 76 59
f 47 77 74
f 48 78 79
f 48 79 49
f 49 80 81
f 49 81 50
f 49 79 82
f 49 82 83
f 49 83 80
f 51 52 85
f 51 85 84
f 52 86 85
f 52 87 86
f 53 88 89
f 53 89 90
f 53 90 54
f 54 90 55
f 55 91 92
f 55 92 57
f 55 57 56
f 55 90 93
f 55 93 94
f 55 94 95
f 55 95 96
f 55 96 97
f 55 97 91
f 59 76 60
f 60 98 61
f 60 76 99
f 60 99 100
f 60 100 101
f 60 101 98
f 61 102 103
f 61 103 104
f 61 104 62
f 61 98 101
f 61 101 105
f 61 105 106
f 61 106 107
f 61 107 108
f 61 108 102
f 62 104 82
f 62 82 109
f 62 109 64
f 62 64 63
f 64 109 65
f 65 110 66
f 65 109 110
f 66 110 68
f 68 110 69
f 69 110 111
f 69 111 70
f 70 111 71
f 71 111 112
f 71 112 113
f 71 113 72
f 74 114 75
f 74 77 115
f 74 115 116
f 74 116 117
f 74 117 118
f 74 118 119
f 74 119 114
f 75 120 99
f 75 99 76
f 75 114 121
f 75 121 122
f 75 122 120
f 78 123 124
f 78 124 79
f 79 124 125
f 79 125 82
f 82 104 126
f 82 126 83
f 82 125 109
f 84 85 128
f 84 128 127
f 85 86 129
f 85 129 128
f 86 87 129
f 87 130 129
f 88 131 89
f 89 132 93
f 89 93 90
f 89 131 132
f 91 97 96
f 91 96 133
f 91 133 134
f 91 134 135
f 93 132 94
f 94 136 137
f 94 137 95
f 94 132 138
f 94 138 139
f 94 139 136
f 95 137 96
f 96 137 140
f 96 140 141
f 96 141 142
f 96 142 133
f 99 120 122
f 99 122 143
f 99 143 144
f 99 144 100
f 100 145 101
f 100 144 145
f 101 146 105
f 101 145 147
f 101 147 148
f 101 148 146
f 102 126 103
f 103 126 104
f 105 146 148
f 105 148 106
f 106 149 107
f 106 148 150
f 106 150 151
f 106 151 149
f 107 149 108
f 108 149 151
f 109 125 152
f 109 152 153
f 109 153 110
f 110 153 111
f 111 124 112
f 111 153 152
f 111 152 124
f 112 124 154
f 114 119 142
f 114 142 121
f 115 155 116
f 116 155 156
f 116 156 157
f 116 157 117
f 117 157 119
f 117 119 118
f 119 157 156
f 119 156 158
f 119 158 133
f 119 133 159
f 119 159 142
f 121 142 160
f 121 160 140
f 121 140 122
f 122 140 161
f 122 161 143
f 123 154 124
f 124 152 125
f 127 128 129
f 127 129 162
f 129 130 163
f 129 163 164
f 129 164 165
f 129 165 166
f 129 166 167
f 129 167 168
f 129 168 162
f 130 169 164
f 130 164 163
f 131 170 132
f 132 170 138
f 133 142 159
f 133 158 134
f 134 171 135
f 134 158 156
f 134 156 171
f 136 139 172
f 136 172 173
f 136 173 174
f 136 174 175
f 136 175 137
f 137 175 176
f 137 176 177
f 137 177 140
f 139 178 179
f 139 179 180
f 139 180 172
f 140 177 181
f 140 181 143
f 140 143 161
f 140 160 141
f 141 160 142
f 143 181 177
f 143 177 182
f 143 182 144
f 144 182 177
f 144 177 145
f 145 177 147
f 147 177 183
f 147 183 148
f 148 183 184
f 148 184 185
f 148 185 150
f 150 185 151
f 151 185 186
f 155 171 156
f 162 168 187
f 164 188 186
f 164 186 189
f 164 189 185
f 164 185 184
f 164 184 177
f 164 177 190
f 164 190 165
f 164 169 188
f 165 190 166
f 166 190 176
f 166 176 167
f 167 176 175
f 167 175 173
f 167 173 191
f 167 191 192
f 167 192 187
f 167 187 168
f 172 180 173
f 173 180 191
f 173 175 174
f 176 190 177
f 177 184 183
f 178 193 191
f 178 191 179
f 179 191 180
f 185 189 186
f 187 192 194
f 191 193 192
f 192 193 194
