v 0.0001495 0.510885 -0.44711
v 0.000124039 0.322267 -0.533089
v 0.0001495 0.484277 -0.462157
v 0.0001495 0.510885 -0.461794
v -0.259927 0.510885 -0.361004
v 0.000124039 0.322267 -0.546411
v 0.0001495 0.481784 -0.463827
v -0.235182 0.322267 -0.478165
v 0.0001495 0.506527 -0.464553
v -0.00596036 0.510885 -0.461304
v -0.259927 0.510885 -0.377303
v -0.259927 0.499548 -0.368773
v 0.000124039 0.350795 -0.537336
v 0.0001495 0.481784 -0.478674
v -0.0371716 0.322267 -0.542799
v -0.0536427 0.327455 -0.539641
v -0.0179 0.339383 -0.539351
v -0.00598581 0.339383 -0.540476
v -0.259927 0.498015 -0.369825
v -0.259927 0.485071 -0.378792
v -0.259927 0.481784 -0.381097
v -0.235182 0.322267 -0.492414
v 0.0001495 0.503628 -0.466349
v -0.0181801 0.510885 -0.460287
v -0.256057 0.510885 -0.382258
v -0.259927 0.510867 -0.379463
v 0.000124039 0.375094 -0.528479
v -0.0536427 0.363166 -0.527553
v -0.0628839 0.369998 -0.524231
v -0.00598581 0.375094 -0.527988
v 0.000124039 0.383662 -0.525048
v 0.000124039 0.434533 -0.502324
v 0.000124039 0.458814 -0.491179
v 0.000124039 0.464631 -0.488312
v -0.00104701 0.464538 -0.488257
v -0.038088 0.481784 -0.474699
v -0.0178746 0.501966 -0.465424
v -0.0893345 0.322267 -0.537681
v -0.0663207 0.364256 -0.525865
v -0.105016 0.322267 -0.536047
v -0.107537 0.35735 -0.523923
v -0.259927 0.481784 -0.39961
v -0.235182 0.327271 -0.490635
v -0.229479 0.336909 -0.489419
v -0.214714 0.322267 -0.500327
v -0.0297888 0.510885 -0.459144
v -0.253461 0.510885 -0.384146
v -0.259927 0.509888 -0.380153
v -0.0536427 0.371198 -0.524703
v -0.113163 0.375094 -0.516681
v -0.113163 0.38381 -0.513214
v -0.0298143 0.37419 -0.525937
v -0.0187911 0.376221 -0.526246
v -0.0154052 0.381853 -0.524249
v -0.0547119 0.447643 -0.490762
v -0.0514788 0.453275 -0.488566
v -0.0417285 0.454327 -0.489074
v -0.0298143 0.455601 -0.489691
v -0.0179 0.456857 -0.490308
v -0.00542575 0.45922 -0.490417
v -0.101249 0.465849 -0.477095
v -0.089309 0.495375 -0.461703
v -0.101529 0.481784 -0.468092
v -0.086025 0.510885 -0.453299
v -0.108631 0.322267 -0.535612
v -0.11217 0.35181 -0.525302
v -0.259927 0.490094 -0.393875
v -0.244067 0.481784 -0.411118
v -0.235182 0.467253 -0.427036
v -0.235182 0.461473 -0.430539
v -0.235182 0.442103 -0.441338
v -0.235182 0.38706 -0.467384
v -0.235182 0.377236 -0.471686
v -0.235182 0.362058 -0.478165
v -0.207662 0.32668 -0.501452
v -0.179888 0.358605 -0.500581
v -0.134038 0.339383 -0.525066
v -0.181441 0.322267 -0.513069
v -0.245976 0.510885 -0.389573
v -0.259927 0.503721 -0.384436
v -0.125026 0.3476 -0.524667
v -0.121182 0.382407 -0.512597
v -0.113163 0.409014 -0.501924
v -0.101249 0.441568 -0.48862
v -0.101249 0.458371 -0.48067
v -0.108861 0.464963 -0.476605
v -0.101223 0.504829 -0.455114
v -0.0890799 0.510885 -0.4529
v -0.125026 0.322267 -0.532798
v -0.125026 0.339383 -0.527517
v -0.240961 0.491128 -0.406907
v -0.235487 0.485404 -0.414838
v -0.229505 0.467123 -0.430339
v -0.227545 0.489558 -0.417597
v -0.217667 0.454955 -0.441865
v -0.232152 0.443359 -0.441919
v -0.229505 0.395627 -0.465642
v -0.216139 0.382536 -0.476949
v -0.228639 0.371272 -0.477185
v -0.232407 0.363406 -0.478728
v -0.202392 0.36913 -0.488148
v -0.146538 0.325424 -0.525302
v -0.145698 0.36023 -0.513069
v -0.131136 0.345514 -0.523959
v -0.137271 0.322267 -0.529749
v -0.147735 0.322267 -0.525919
v -0.239942 0.510885 -0.393929
v -0.229225 0.503222 -0.407016
v -0.125103 0.375538 -0.514394
v -0.134013 0.371845 -0.513159
v -0.122048 0.407131 -0.501108
v -0.112374 0.435087 -0.490127
v -0.107868 0.440774 -0.488257
v -0.112959 0.45898 -0.478764
v -0.116778 0.463356 -0.475407
v -0.113163 0.480326 -0.466731
v -0.101223 0.510885 -0.451194
v -0.113137 0.502483 -0.453826
v -0.113214 0.510885 -0.448653
v -0.219093 0.493768 -0.418705
v -0.224337 0.475063 -0.427762
v -0.216394 0.477611 -0.429468
v -0.220315 0.470761 -0.4319
v -0.204302 0.465572 -0.44132
v -0.225712 0.510885 -0.404039
v -0.225024 0.510885 -0.404475
v -0.218354 0.510885 -0.408195
v -0.222275 0.49748 -0.414947
v -0.14389 0.465018 -0.46477
v -0.148218 0.458316 -0.466658
v -0.15723 0.45429 -0.465333
v -0.19142 0.453127 -0.452846
v -0.184546 0.431542 -0.465769
v -0.148804 0.384604 -0.501761
v -0.155728 0.381816 -0.500436
v -0.220187 0.375205 -0.478692
v -0.168203 0.370497 -0.500654
v -0.137551 0.363794 -0.514847
v -0.143458 0.322267 -0.527498
v -0.236989 0.510885 -0.396053
v -0.23228 0.510885 -0.399411
v -0.134904 0.396144 -0.50158
v -0.122557 0.431449 -0.489473
v -0.125026 0.454696 -0.477421
v -0.125026 0.460642 -0.4741
v -0.121819 0.478018 -0.465406
v -0.119756 0.500489 -0.452718
v -0.124721 0.510885 -0.444569
v -0.214332 0.500083 -0.416762
v -0.208324 0.480159 -0.431029
v -0.212321 0.510885 -0.410755
v -0.13689 0.467216 -0.466114
v -0.131009 0.452481 -0.47626
v -0.193558 0.510885 -0.418178
v -0.208324 0.510885 -0.412388
f 1 2 3
f 1 3 7
f 1 7 14
f 1 14 23
f 1 23 9
f 1 9 4
f 1 4 10
f 1 10 24
f 1 24 46
f 1 46 64
f 1 64 88
f 1 88 117
f 1 117 119
f 1 119 148
f 1 148 154
f 1 154 155
f 1 155 151
f 1 151 127
f 1 127 126
f 1 126 125
f 1 125 141
f 1 141 140
f 1 140 107
f 1 107 79
f 1 79 47
f 1 47 25
f 1 25 11
f 1 11 5
f 1 5 2
f 2 6 14
f 2 14 7
f 2 7 3
f 2 5 8
f 2 8 22
f 2 22 45
f 2 45 78
f 2 78 106
f 2 106 139
f 2 139 105
f 2 105 89
f 2 89 65
f 2 65 40
f 2 40 38
f 2 38 15
f 2 15 6
f 4 9 10
f 5 11 26
f 5 26 48
f 5 48 80
f 5 80 67
f 5 67 42
f 5 42 21
f 5 21 20
f 5 20 19
f 5 19 12
f 5 12 8
f 6 13 14
f 6 15 16
f 6 16 17
f 6 17 18
f 6 18 13
f 8 12 19
f 8 19 20
f 8 20 21
f 8 21 42
f 8 42 22
f 9 23 24
f 9 24 10
f 11 25 26
f 13 27 14
f 13 18 17
f 13 17 28
f 13 28 29
f 13 29 30
f 13 30 27
f 14 27 31
f 14 31 32
f 14 32 33
f 14 33 34
f 14 34 35
f 14 35 36
f 14 36 37
f 14 37 23
f 15 38 16
f 16 38 17
f 17 39 28
f 17 38 40
f 17 40 41
f 17 41 39
f 22 43 44
f 22 44 45
f 22 42 43
f 23 37 46
f 23 46 24
f 25 47 26
f 26 47 48
f 27 30 31
f 28 39 29
f 29 49 30
f 29 39 41
f 29 41 50
f 29 50 51
f 29 51 49
f 30 49 52
f 30 52 53
f 30 53 31
f 31 53 54
f 31 54 32
f 32 54 51
f 32 51 55
f 32 55 56
f 32 56 57
f 32 57 58
f 32 58 59
f 32 59 33
f 33 59 60
f 33 60 35
f 33 35 34
f 35 60 59
f 35 59 58
f 35 58 61
f 35 61 36
f 36 62 37
f 36 61 63
f 36 63 62
f 37 62 64
f 37 64 46
f 40 65 66
f 40 66 41
f 41 66 50
f 42 67 68
f 42 68 69
f 42 69 70
f 42 70 71
f 42 71 72
f 42 72 73
f 42 73 74
f 42 74 43
f 43 74 44
f 44 75 45
f 44 74 76
f 44 76 77
f 44 77 75
f 45 75 78
f 47 79 48
f 48 79 80
f 49 51 54
f 49 54 53
f 49 53 52
f 50 66 81
f 50 81 82
f 50 82 51
f 51 82 83
f 51 83 84
f 51 84 55
f 55 84 56
f 56 84 85
f 56 85 61
f 56 61 57
f 57 61 58
f 61 85 86
f 61 86 63
f 62 63 64
f 63 86 87
f 63 87 64
f 64 87 88
f 65 89 90
f 65 90 66
f 66 90 81
f 67 80 91
f 67 91 92
f 67 92 68
f 68 92 69
f 69 93 70
f 69 92 94
f 69 94 93
f 70 93 71
f 71 93 95
f 71 95 96
f 71 96 97
f 71 97 72
f 72 97 98
f 72 98 99
f 72 99 73
f 73 99 74
f 74 99 100
f 74 100 101
f 74 101 76
f 75 102 78
f 75 77 102
f 76 101 103
f 76 103 77
f 77 104 105
f 77 105 102
f 77 103 104
f 78 102 106
f 79 91 80
f 79 107 108
f 79 108 91
f 81 90 104
f 81 104 109
f 81 109 82
f 82 109 110
f 82 110 111
f 82 111 83
f 83 112 113
f 83 113 84
f 83 111 112
f 84 113 85
f 85 113 86
f 86 113 114
f 86 114 115
f 86 115 116
f 86 116 87
f 87 117 88
f 87 116 118
f 87 118 119
f 87 119 117
f 89 105 90
f 90 105 104
f 91 108 92
f 92 108 94
f 93 94 120
f 93 120 121
f 93 121 122
f 93 122 123
f 93 123 124
f 93 124 95
f 94 125 126
f 94 126 127
f 94 127 128
f 94 128 120
f 94 108 125
f 95 124 129
f 95 129 130
f 95 130 131
f 95 131 132
f 95 132 96
f 96 132 133
f 96 133 97
f 97 133 134
f 97 134 135
f 97 135 98
f 98 135 136
f 98 136 99
f 99 136 110
f 99 110 137
f 99 137 101
f 99 101 100
f 101 137 138
f 101 138 103
f 102 139 106
f 102 105 139
f 103 138 104
f 104 138 110
f 104 110 109
f 107 140 108
f 108 140 141
f 108 141 125
f 110 138 137
f 110 136 135
f 110 135 134
f 110 134 142
f 110 142 111
f 111 142 143
f 111 143 114
f 111 114 112
f 112 114 113
f 114 143 144
f 114 144 115
f 115 144 145
f 115 145 146
f 115 146 116
f 116 146 118
f 118 146 147
f 118 147 119
f 119 147 148
f 120 128 127
f 120 127 149
f 120 149 122
f 120 122 121
f 122 149 150
f 122 150 124
f 122 124 123
f 124 150 129
f 127 151 149
f 129 150 147
f 129 147 146
f 129 146 152
f 129 152 144
f 129 144 130
f 130 144 131
f 131 144 153
f 131 153 132
f 132 153 133
f 133 153 134
f 134 153 142
f 142 153 143
f 143 153 144
f 144 152 145
f 145 152 146
f 147 150 149
f 147 149 148
f 148 149 154
f 149 151 155
f 149 155 154
