v -0.469199 0.00593347 -0.368852
v -0.468243 0.0219612 -0.368852
v -0.424296 0.0178485 -0.423302
v -0.42465 0.00593347 -0.423739
v -0.42465 -0.00595809 -0.423739
v -0.466664 -0.00595809 -0.371961
v -0.469178 -0.00595809 -0.368852
v -0.465002 0.0756612 -0.368852
v -0.464586 0.0752852 -0.369407
v -0.464877 0.0654852 -0.369776
v -0.465604 0.0416551 -0.37065
v -0.453761 0.0771183 -0.382629
v -0.432192 0.0771183 -0.409207
v -0.444036 0.0416551 -0.397228
v -0.41692 0.0654852 -0.42888
v -0.417273 0.0535702 -0.429316
v -0.41798 0.0297636 -0.430173
v -0.418686 0.00593347 -0.43103
v -0.418686 -0.00595809 -0.43103
v -0.41798 -0.0297882 -0.430173
v -0.417273 -0.0535713 -0.429316
v -0.424296 -0.0178731 -0.423302
v -0.468763 -0.0132434 -0.368852
v -0.464856 0.0771183 -0.368852
v -0.462342 0.0771183 -0.372028
v -0.416733 0.0715015 -0.428661
v -0.419226 0.0771183 -0.424948
v -0.412847 0.00593347 -0.436977
v -0.412847 -0.00595809 -0.436977
v -0.41692 -0.0654864 -0.42888
v -0.444036 -0.0416798 -0.397228
v -0.467246 -0.0385776 -0.368852
v -0.465604 -0.0416798 -0.37065
v -0.448046 0.0771183 -0.368852
v -0.413014 0.0771183 -0.431551
v -0.404079 0.0771183 -0.439733
v -0.404785 0.059187 -0.440522
v -0.411434 0.0416551 -0.435701
v -0.411912 0.0297636 -0.436121
v -0.406427 0.0178485 -0.441732
v -0.406884 0.00593347 -0.442068
v -0.405118 0.0512436 -0.440774
v -0.406884 -0.00595809 -0.442068
v -0.406427 -0.0178731 -0.441732
v -0.405118 -0.0512447 -0.440774
v -0.404785 -0.0591881 -0.440522
v -0.411912 -0.0297882 -0.436121
v -0.416733 -0.0715026 -0.428661
v -0.438135 -0.0773779 -0.401865
v -0.466456 -0.0516912 -0.368852
v -0.448919 -0.0773779 -0.388576
v -0.460057 -0.0654864 -0.375724
v -0.464586 -0.0752863 -0.369407
v -0.256945 0.0771183 -0.523263
v -0.434623 -0.162969 -0.368852
v -0.256945 -0.162969 -0.512125
v -0.403954 0.0771183 -0.439833
v -0.398136 0.0771183 -0.444353
v -0.358012 0.0178485 -0.476844
v -0.392941 0.000410712 -0.452501
v -0.302201 0.0535702 -0.515266
v -0.392941 -0.000435329 -0.452501
v -0.358012 -0.0178731 -0.476844
v -0.397658 -0.089293 -0.444
v -0.403601 -0.089293 -0.439413
v -0.416026 -0.089293 -0.427972
v -0.420951 -0.089293 -0.422025
v -0.431818 -0.089293 -0.408753
v -0.464566 -0.0829712 -0.368852
v -0.453387 -0.089293 -0.382175
v -0.256945 0.0771183 -0.536855
v -0.450685 -0.162969 -0.368852
v -0.256945 -0.162969 -0.526002
v -0.301079 0.0771183 -0.514729
v -0.310034 0.00593347 -0.51231
v -0.293058 0.0771183 -0.520542
v -0.293515 0.0654852 -0.520878
v -0.310034 -0.00595809 -0.51231
v -0.337421 -0.0297882 -0.491091
v -0.293515 -0.0654864 -0.520878
v -0.292559 -0.089293 -0.520189
v -0.369087 -0.0950977 -0.464345
v -0.396702 -0.101208 -0.443311
v -0.402666 -0.101208 -0.438876
v -0.409419 -0.101208 -0.432928
v -0.415382 -0.101208 -0.427116
v -0.420307 -0.101208 -0.421168
v -0.45295 -0.0980589 -0.381654
v -0.464004 -0.089575 -0.368852
v -0.279822 0.0771183 -0.528119
v -0.256945 0.0656968 -0.537644
v -0.451413 -0.162969 -0.368869
v -0.452119 -0.159726 -0.368852
v -0.262222 -0.162969 -0.523767
v -0.26322 -0.157963 -0.524372
v -0.256945 -0.161794 -0.526203
v -0.2899 0.00593347 -0.526606
v -0.29445 0.0416551 -0.52155
v -0.294928 0.0297636 -0.521869
v -0.287094 0.0771183 -0.524758
v -0.2899 -0.00595809 -0.526606
v -0.294928 -0.0297882 -0.521869
v -0.29445 -0.0416798 -0.52155
v -0.286617 -0.089293 -0.524439
v -0.28618 -0.0969308 -0.524154
v -0.305795 -0.101208 -0.509235
v -0.348288 -0.101208 -0.478423
v -0.401253 -0.1131 -0.437969
v -0.405388 -0.145884 -0.429182
v -0.408401 -0.1131 -0.432021
v -0.414364 -0.1131 -0.425805
v -0.42627 -0.101208 -0.413827
v -0.419247 -0.1131 -0.419858
v -0.460555 -0.1131 -0.368852
v -0.46255 -0.101255 -0.368852
v -0.425211 -0.1131 -0.412516
v -0.458498 -0.125015 -0.368852
v -0.459828 -0.117377 -0.368852
v -0.288507 0.0416551 -0.525682
v -0.286928 0.0771183 -0.524842
v -0.256945 0.0651327 -0.537678
v -0.26216 0.0610435 -0.53588
v -0.263427 0.0416551 -0.536367
v -0.264965 0.0178485 -0.536955
v -0.265734 0.00593347 -0.537241
v -0.451039 -0.162969 -0.36934
v -0.452888 -0.155966 -0.368852
v -0.441148 -0.162969 -0.381772
v -0.267542 -0.162969 -0.521499
v -0.279967 -0.162969 -0.516022
v -0.274232 -0.131971 -0.524053
v -0.265007 -0.148821 -0.525061
v -0.256945 -0.161441 -0.526254
v -0.268414 -0.136319 -0.525632
v -0.267916 -0.125015 -0.527514
v -0.265734 -0.00595809 -0.537241
v -0.279822 -0.0773779 -0.528102
v -0.288507 -0.0416798 -0.525682
v -0.287094 -0.0773779 -0.524758
v -0.279822 -0.089293 -0.52748
v -0.298419 -0.1131 -0.512528
v -0.299832 -0.101208 -0.513553
v -0.280528 -0.10102 -0.526018
v -0.285536 -0.162969 -0.513066
v -0.286513 -0.162969 -0.512528
v -0.289629 -0.136906 -0.514779
v -0.33341 -0.107177 -0.488184
v -0.393876 -0.125015 -0.441261
v -0.397554 -0.162969 -0.432021
v -0.404598 -0.153827 -0.428409
v -0.413263 -0.125015 -0.424478
v -0.414676 -0.162969 -0.414314
v -0.418686 -0.162969 -0.409475
v -0.417335 -0.134321 -0.417489
v -0.42947 -0.162969 -0.396186
v -0.454633 -0.146424 -0.368852
v -0.256945 0.0546982 -0.538199
v -0.256945 0.0312441 -0.539358
v -0.256945 0.0178485 -0.539996
v -0.256945 0.00593347 -0.540467
v -0.453054 -0.15512 -0.368852
v -0.441356 -0.160736 -0.382024
v -0.275458 -0.125015 -0.524574
v -0.256945 -0.101208 -0.534771
v -0.277557 -0.1131 -0.525464
v -0.256945 -0.00595809 -0.54045
v -0.256945 -0.0167451 -0.540063
v -0.256945 -0.0285426 -0.539492
v -0.264965 -0.0178731 -0.536955
v -0.26216 -0.0610447 -0.53588
v -0.263427 -0.0416798 -0.536367
v -0.256945 -0.0656979 -0.537644
v -0.256945 -0.0750748 -0.537073
v -0.256945 -0.0847573 -0.536418
v -0.256945 -0.089293 -0.536065
v -0.346875 -0.1131 -0.477399
v -0.294159 -0.148821 -0.509437
v -0.290523 -0.162969 -0.509621
v -0.300954 -0.160736 -0.502448
v -0.334969 -0.162969 -0.477399
v -0.402396 -0.162969 -0.428325
v -0.403497 -0.162969 -0.427435
v -0.408712 -0.162969 -0.421488
v -0.256945 -0.0535713 -0.538249
f 1 2 3
f 1 3 4
f 1 4 5
f 1 5 6
f 1 6 7
f 1 7 23
f 1 23 32
f 1 32 50
f 1 50 69
f 1 69 89
f 1 89 115
f 1 115 114
f 1 114 118
f 1 118 117
f 1 117 156
f 1 156 161
f 1 161 127
f 1 127 93
f 1 93 72
f 1 72 55
f 1 55 34
f 1 34 24
f 1 24 8
f 1 8 2
f 2 8 9
f 2 9 10
f 2 10 11
f 2 11 12
f 2 12 13
f 2 13 14
f 2 14 3
f 3 14 15
f 3 15 16
f 3 16 4
f 4 16 17
f 4 17 18
f 4 18 19
f 4 19 5
f 5 19 20
f 5 20 21
f 5 21 30
f 5 30 22
f 5 22 23
f 5 23 6
f 6 23 7
f 8 24 25
f 8 25 9
f 9 25 12
f 9 12 10
f 10 12 11
f 12 25 24
f 12 24 34
f 12 34 54
f 12 54 71
f 12 71 90
f 12 90 120
f 12 120 100
f 12 100 76
f 12 76 74
f 12 74 58
f 12 58 57
f 12 57 36
f 12 36 35
f 12 35 27
f 12 27 13
f 13 26 15
f 13 15 14
f 13 27 26
f 15 26 28
f 15 28 16
f 16 28 17
f 17 28 18
f 18 28 29
f 18 29 19
f 19 29 20
f 20 29 21
f 21 29 30
f 22 30 31
f 22 31 23
f 23 31 33
f 23 33 32
f 26 27 35
f 26 35 36
f 26 36 37
f 26 37 38
f 26 38 39
f 26 39 28
f 28 40 41
f 28 41 43
f 28 43 29
f 28 39 37
f 28 37 42
f 28 42 40
f 29 43 44
f 29 44 45
f 29 45 46
f 29 46 47
f 29 47 48
f 29 48 30
f 30 48 49
f 30 49 31
f 31 49 51
f 31 51 33
f 32 33 50
f 33 51 52
f 33 52 53
f 33 53 50
f 34 55 56
f 34 56 54
f 36 57 37
f 37 39 38
f 37 57 58
f 37 58 42
f 40 59 60
f 40 60 41
f 40 42 59
f 41 60 62
f 41 62 43
f 42 58 61
f 42 61 59
f 43 62 44
f 44 62 63
f 44 63 45
f 45 64 46
f 45 63 64
f 46 64 65
f 46 65 48
f 46 48 47
f 48 65 66
f 48 66 67
f 48 67 68
f 48 68 49
f 49 68 70
f 49 70 51
f 50 53 69
f 51 70 53
f 51 53 52
f 53 70 69
f 54 56 73
f 54 73 96
f 54 96 133
f 54 133 164
f 54 164 175
f 54 175 174
f 54 174 173
f 54 173 172
f 54 172 184
f 54 184 168
f 54 168 167
f 54 167 166
f 54 166 160
f 54 160 159
f 54 159 158
f 54 158 157
f 54 157 121
f 54 121 91
f 54 91 71
f 55 72 92
f 55 92 126
f 55 126 128
f 55 128 155
f 55 155 153
f 55 153 152
f 55 152 183
f 55 183 182
f 55 182 181
f 55 181 149
f 55 149 180
f 55 180 178
f 55 178 145
f 55 145 144
f 55 144 130
f 55 130 129
f 55 129 94
f 55 94 73
f 55 73 56
f 58 74 61
f 59 75 60
f 59 61 75
f 60 75 78
f 60 78 62
f 61 74 76
f 61 76 77
f 61 77 75
f 62 78 63
f 63 78 79
f 63 79 80
f 63 80 64
f 64 81 82
f 64 82 83
f 64 83 84
f 64 84 65
f 64 80 81
f 65 84 85
f 65 85 66
f 66 85 86
f 66 86 87
f 66 87 67
f 67 87 68
f 68 87 88
f 68 88 70
f 69 70 89
f 70 88 89
f 71 91 90
f 72 93 92
f 73 94 95
f 73 95 96
f 75 97 101
f 75 101 78
f 75 77 98
f 75 98 99
f 75 99 97
f 76 100 77
f 77 100 98
f 78 101 102
f 78 102 103
f 78 103 80
f 78 80 79
f 80 104 81
f 80 103 104
f 81 104 105
f 81 105 82
f 82 105 106
f 82 106 107
f 82 107 83
f 83 107 108
f 83 108 84
f 84 108 109
f 84 109 110
f 84 110 85
f 85 110 86
f 86 110 109
f 86 109 111
f 86 111 87
f 87 112 88
f 87 111 113
f 87 113 116
f 87 116 112
f 88 114 115
f 88 115 89
f 88 112 116
f 88 116 117
f 88 117 118
f 88 118 114
f 90 119 120
f 90 91 121
f 90 121 122
f 90 122 123
f 90 123 124
f 90 124 125
f 90 125 97
f 90 97 119
f 92 93 126
f 93 127 128
f 93 128 126
f 94 129 95
f 95 129 130
f 95 130 131
f 95 131 132
f 95 132 96
f 96 132 134
f 96 134 135
f 96 135 133
f 97 125 136
f 97 136 101
f 97 99 119
f 98 100 99
f 99 100 119
f 100 120 119
f 101 136 137
f 101 137 138
f 101 138 102
f 102 138 139
f 102 139 104
f 102 104 103
f 104 139 137
f 104 137 140
f 104 140 105
f 105 141 142
f 105 142 106
f 105 140 143
f 105 143 131
f 105 131 130
f 105 130 144
f 105 144 145
f 105 145 146
f 105 146 141
f 106 142 141
f 106 141 147
f 106 147 107
f 107 147 108
f 108 147 148
f 108 148 149
f 108 149 150
f 108 150 109
f 109 150 111
f 111 150 151
f 111 151 152
f 111 152 153
f 111 153 154
f 111 154 113
f 113 154 153
f 113 153 116
f 116 153 117
f 117 153 155
f 117 155 156
f 121 157 123
f 121 123 122
f 123 157 158
f 123 158 124
f 124 158 125
f 125 158 159
f 125 159 160
f 125 160 136
f 127 161 128
f 128 161 162
f 128 162 155
f 131 163 135
f 131 135 134
f 131 134 132
f 131 143 163
f 133 135 164
f 135 163 165
f 135 165 143
f 135 143 164
f 136 160 166
f 136 166 167
f 136 167 168
f 136 168 169
f 136 169 137
f 137 170 140
f 137 139 138
f 137 169 171
f 137 171 170
f 140 170 172
f 140 172 173
f 140 173 174
f 140 174 175
f 140 175 143
f 141 176 147
f 141 146 177
f 141 177 176
f 143 175 164
f 143 165 163
f 145 178 177
f 145 177 146
f 147 176 148
f 148 177 179
f 148 179 149
f 148 176 177
f 149 179 180
f 149 181 150
f 150 181 182
f 150 182 183
f 150 183 151
f 151 183 152
f 155 162 161
f 155 161 156
f 168 184 171
f 168 171 169
f 170 171 172
f 171 184 172
f 177 178 179
f 178 180 179
