v -0.000159524 0.510945 0.461753
v -0.000159524 0.526099 0.453697
v -0.00598847 0.526632 0.453969
v -0.00598847 0.510945 0.462251
v -0.000159524 0.510945 0.305616
v -0.000159524 0.528994 0.452022
v -0.00598847 0.53258 0.450484
v -0.0178723 0.532341 0.450348
v -0.0178723 0.526389 0.453833
v -0.0178723 0.510945 0.46207
v -0.305614 0.510945 -9.55442e-05
v -0.000159524 0.520486 -9.55442e-05
v -0.000159524 0.53205 0.450212
v -0.000159524 0.536313 0.447316
v -0.000159524 0.540367 0.444284
v -0.00598847 0.540473 0.44451
v -0.0178723 0.540395 0.444374
v -0.0298013 0.53072 0.449533
v -0.0298013 0.539885 0.443605
v -0.0416851 0.538918 0.442654
v -0.0536141 0.537646 0.441704
v -0.0298013 0.510945 0.460621
v -0.0298013 0.524772 0.452928
v -0.46173 0.510945 -9.55442e-05
v -0.000159524 0.53111 -9.55442e-05
v -0.000159524 0.54223 0.439667
v -0.000159524 0.544172 0.434599
v -0.00598847 0.544257 0.434599
v -0.0178723 0.544182 0.434599
v -0.0298013 0.54384 0.434599
v -0.0416851 0.543191 0.434599
v -0.10124 0.54009 0.431974
v -0.0624704 0.536566 0.44098
v -0.0774269 0.52857 0.443197
v -0.113123 0.539215 0.431023
v -0.0417303 0.510945 0.458811
v -0.0536141 0.515478 0.454421
v -0.0405554 0.518486 0.454783
v -0.453687 0.526092 -9.55442e-05
v -0.461685 0.510945 0.000900121
v -0.327439 0.545755 -9.55442e-05
v -0.000159524 0.545755 0.32743
v -0.0774269 0.54436 0.422651
v -0.00598847 0.54584 0.32743
v -0.0893107 0.544278 0.422651
v -0.10124 0.543998 0.422651
v -0.113123 0.543406 0.422651
v -0.125052 0.542241 0.422651
v -0.10124 0.531182 0.437902
v -0.10124 0.52523 0.441297
v -0.112988 0.510945 0.447542
v -0.136259 0.539858 0.423013
v -0.125052 0.537667 0.429847
v -0.0705587 0.510945 0.454285
v -0.450208 0.532043 -9.55442e-05
v -0.461278 0.510945 0.00596891
v -0.460239 0.510945 0.0181883
v -0.459923 0.510945 0.0216731
v -0.45911 0.510945 0.0297741
v -0.455495 0.517385 0.0297741
v -0.453371 0.525538 0.00596891
v -0.443114 0.530683 0.0766604
v -0.449982 0.53149 0.00596891
v -0.434574 0.544172 -9.55442e-05
v -0.42269 0.54437 0.0893324
v -0.31551 0.5457 0.0774298
v -0.255955 0.545861 0.196501
v -0.136936 0.544316 0.410748
v -0.0893107 0.545731 0.315527
v -0.196491 0.545868 0.255969
v -0.148865 0.543249 0.410748
v -0.125052 0.515915 0.442745
v -0.112626 0.51867 0.443197
v -0.124646 0.510945 0.445551
v -0.13183 0.536364 0.428987
v -0.196491 0.539868 0.396628
v -0.148865 0.538928 0.419211
v -0.447316 0.536354 -9.55442e-05
v -0.44221 0.538374 0.0416767
v -0.442798 0.539147 0.0297741
v -0.44343 0.539783 0.0178715
v -0.458567 0.510945 0.0349787
v -0.453009 0.512989 0.0774298
v -0.443069 0.528403 0.0893324
v -0.440583 0.535934 0.07218
v -0.440945 0.536504 0.0655272
v -0.441578 0.537482 0.0536246
v -0.444289 0.540364 -9.55442e-05
v -0.434574 0.544087 0.00596891
v -0.42269 0.544285 0.101235
v -0.386948 0.544268 0.196501
v -0.291697 0.545714 0.136943
v -0.363135 0.544305 0.232164
v -0.339323 0.54422 0.267872
v -0.279768 0.544299 0.32743
v -0.196491 0.543943 0.386943
v -0.220304 0.544189 0.37504
v -0.220304 0.54021 0.385404
v -0.133818 0.514038 0.441704
v -0.135355 0.510945 0.44279
v -0.139738 0.533513 0.427222
v -0.145205 0.525579 0.429666
v -0.136259 0.529671 0.431114
v -0.156592 0.53698 0.417491
v -0.181354 0.53754 0.406041
v -0.214068 0.535592 0.392736
v -0.206115 0.538029 0.394546
v -0.444018 0.540251 0.00596891
v -0.432812 0.540456 0.101235
v -0.453235 0.510945 0.0860287
v -0.452603 0.512295 0.0849877
v -0.439499 0.534354 0.0893324
v -0.440086 0.535205 0.0801
v -0.442346 0.527097 0.101235
v -0.434574 0.543352 0.0297741
v -0.434574 0.543779 0.0178715
v -0.42269 0.543451 0.113138
v -0.410761 0.544124 0.136943
v -0.434574 0.54277 0.0416767
v -0.398877 0.5437 0.172651
v -0.386948 0.543164 0.208404
v -0.375064 0.544087 0.220306
v -0.351252 0.543663 0.255969
v -0.31551 0.543752 0.303625
v -0.267884 0.544175 0.339332
v -0.255955 0.543854 0.351235
v -0.244071 0.54328 0.363138
v -0.233317 0.540983 0.376217
v -0.230154 0.538439 0.383051
v -0.159619 0.510945 0.4322
v -0.208375 0.529835 0.398845
v -0.220304 0.52737 0.395044
v -0.227443 0.524772 0.39346
v -0.184426 0.510945 0.421157
v -0.220304 0.533322 0.391333
v -0.438776 0.533045 0.101235
v -0.43132 0.539229 0.113138
v -0.452829 0.510945 0.0891061
v -0.451157 0.510945 0.101235
v -0.441487 0.525524 0.109743
v -0.420747 0.540152 0.136943
v -0.410761 0.542733 0.148845
v -0.395172 0.538726 0.208404
v -0.386903 0.539718 0.219763
v -0.375607 0.540784 0.232526
v -0.363135 0.542671 0.244066
v -0.397476 0.540374 0.196501
v -0.327439 0.543047 0.291677
v -0.326987 0.539065 0.30281
v -0.314651 0.539055 0.315029
v -0.303581 0.543078 0.315527
v -0.244071 0.538887 0.372551
v -0.28022 0.540856 0.339921
v -0.267749 0.540231 0.351371
v -0.238016 0.535739 0.380924
v -0.23273 0.530252 0.387305
v -0.23535 0.521887 0.391559
v -0.232413 0.510945 0.399524
v -0.216101 0.513259 0.405589
v -0.195768 0.510945 0.416088
v -0.429648 0.537349 0.121827
v -0.418533 0.538275 0.148845
v -0.406197 0.53778 0.182245
v -0.407914 0.539595 0.172651
v -0.448581 0.510945 0.113228
v -0.444515 0.510945 0.124723
v -0.442165 0.514691 0.12504
v -0.429016 0.524547 0.143912
v -0.417177 0.536511 0.155996
v -0.39359 0.536839 0.215419
v -0.404616 0.535581 0.190165
v -0.403441 0.533568 0.196501
v -0.382881 0.538046 0.228815
v -0.347546 0.538388 0.276968
v -0.351387 0.540169 0.267645
v -0.340091 0.540972 0.280453
v -0.33616 0.53861 0.291677
v -0.333855 0.536453 0.29833
v -0.322785 0.537315 0.310775
v -0.289392 0.538761 0.3363
v -0.255323 0.539366 0.362821
v -0.27656 0.538258 0.347479
v -0.263727 0.537561 0.358612
v -0.250894 0.536703 0.36979
v -0.253063 0.515406 0.383458
v -0.25469 0.510945 0.385359
v -0.247596 0.510945 0.390925
v -0.245924 0.510945 0.392102
v -0.24005 0.51395 0.394093
v -0.258802 0.532317 0.366577
v -0.275204 0.525418 0.358295
v -0.217412 0.510945 0.406358
v -0.241541 0.510945 0.394999
v -0.442436 0.510945 0.1302
v -0.441397 0.510945 0.132915
v -0.407056 0.52762 0.196501
v -0.401272 0.529391 0.208358
v -0.403848 0.522585 0.212296
v -0.406423 0.514647 0.217365
v -0.404119 0.511174 0.22533
v -0.404028 0.510945 0.225692
v -0.393545 0.524841 0.22714
v -0.390789 0.532775 0.223339
v -0.37999 0.534351 0.236735
v -0.36919 0.53592 0.250131
v -0.358346 0.537318 0.263527
v -0.405519 0.525114 0.204331
v -0.35812 0.513321 0.287015
v -0.344338 0.510945 0.308241
v -0.33372 0.524407 0.309961
v -0.330692 0.532344 0.30625
v -0.355499 0.533346 0.271492
v -0.333087 0.511673 0.321184
v -0.318085 0.532002 0.318695
v -0.310133 0.536422 0.321954
v -0.284467 0.534388 0.344265
v -0.261016 0.510948 0.380245
v -0.261016 0.510945 0.380245
v -0.32161 0.524068 0.321592
v -0.313838 0.510945 0.337386
v -0.29739 0.510945 0.350737
v -0.267884 0.510945 0.374678
v -0.419482 0.510945 0.190029
v -0.418849 0.515546 0.184599
v -0.417358 0.513098 0.192247
v -0.412342 0.510945 0.208358
v -0.40814 0.510945 0.218406
v -0.40439 0.510945 0.225104
v -0.410671 0.510945 0.212386
v -0.404209 0.510945 0.22542
v -0.393907 0.510945 0.239903
v -0.382204 0.510945 0.256059
v -0.418126 0.510945 0.193559
v -0.35446 0.510945 0.294302
v -0.33878 0.510945 0.315256
v -0.334262 0.510945 0.32046
v -0.333358 0.510945 0.321456
v -0.332319 0.510945 0.322316
v -0.326987 0.510945 0.326706
v -0.324321 0.517953 0.323809
f 1 2 3
f 1 3 4
f 1 4 10
f 1 10 22
f 1 22 36
f 1 36 54
f 1 54 51
f 1 51 74
f 1 74 100
f 1 100 130
f 1 130 134
f 1 134 160
f 1 160 192
f 1 192 158
f 1 158 193
f 1 193 188
f 1 188 187
f 1 187 186
f 1 186 218
f 1 218 222
f 1 222 221
f 1 221 220
f 1 220 239
f 1 239 238
f 1 238 237
f 1 237 236
f 1 236 235
f 1 235 209
f 1 209 234
f 1 234 232
f 1 232 231
f 1 231 201
f 1 201 230
f 1 230 228
f 1 228 227
f 1 227 229
f 1 229 226
f 1 226 233
f 1 233 223
f 1 223 195
f 1 195 194
f 1 194 166
f 1 166 165
f 1 165 139
f 1 139 138
f 1 138 110
f 1 110 82
f 1 82 59
f 1 59 58
f 1 58 57
f 1 57 56
f 1 56 40
f 1 40 24
f 1 24 11
f 1 11 5
f 1 5 12
f 1 12 25
f 1 25 42
f 1 42 27
f 1 27 26
f 1 26 15
f 1 15 14
f 1 14 13
f 1 13 6
f 1 6 2
f 2 6 3
f 3 6 7
f 3 7 8
f 3 8 9
f 3 9 10
f 3 10 4
f 5 11 12
f 6 13 7
f 7 13 14
f 7 14 15
f 7 15 16
f 7 16 17
f 7 17 8
f 8 18 9
f 8 17 19
f 8 19 20
f 8 20 21
f 8 21 18
f 9 22 10
f 9 18 23
f 9 23 22
f 11 24 39
f 11 39 55
f 11 55 78
f 11 78 88
f 11 88 64
f 11 64 41
f 11 41 25
f 11 25 12
f 15 26 16
f 16 26 27
f 16 27 28
f 16 28 29
f 16 29 17
f 17 29 30
f 17 30 31
f 17 31 32
f 17 32 19
f 18 21 33
f 18 33 34
f 18 34 23
f 19 32 35
f 19 35 20
f 20 35 21
f 21 35 33
f 22 23 36
f 23 37 38
f 23 38 36
f 23 34 37
f 24 40 39
f 25 41 42
f 27 42 44
f 27 44 28
f 28 43 29
f 28 44 43
f 29 43 45
f 29 45 46
f 29 46 30
f 30 46 47
f 30 47 31
f 31 47 32
f 32 47 48
f 32 48 35
f 33 35 49
f 33 49 34
f 34 49 50
f 34 50 51
f 34 51 37
f 35 48 52
f 35 52 53
f 35 53 49
f 36 38 37
f 36 37 54
f 37 51 54
f 39 40 56
f 39 56 57
f 39 57 58
f 39 58 59
f 39 59 60
f 39 60 61
f 39 61 62
f 39 62 63
f 39 63 55
f 41 64 65
f 41 65 66
f 41 66 67
f 41 67 44
f 41 44 42
f 43 68 45
f 43 44 69
f 43 69 68
f 44 70 69
f 44 67 70
f 45 68 46
f 46 68 47
f 47 68 71
f 47 71 48
f 48 71 52
f 49 53 72
f 49 72 73
f 49 73 50
f 50 73 51
f 51 73 72
f 51 72 74
f 52 75 53
f 52 71 76
f 52 76 77
f 52 77 75
f 53 75 72
f 55 63 79
f 55 79 80
f 55 80 81
f 55 81 78
f 59 82 83
f 59 83 60
f 60 83 62
f 60 62 61
f 62 83 84
f 62 84 85
f 62 85 63
f 63 85 86
f 63 86 87
f 63 87 79
f 64 88 89
f 64 89 90
f 64 90 65
f 65 90 91
f 65 91 67
f 65 67 92
f 65 92 66
f 66 92 67
f 67 91 93
f 67 93 94
f 67 94 95
f 67 95 70
f 68 96 71
f 68 69 70
f 68 70 97
f 68 97 96
f 70 95 97
f 71 96 98
f 71 98 76
f 72 99 74
f 72 75 99
f 74 99 100
f 75 101 102
f 75 102 103
f 75 103 99
f 75 77 104
f 75 104 105
f 75 105 106
f 75 106 101
f 76 98 107
f 76 107 77
f 77 107 105
f 77 105 104
f 78 108 88
f 78 81 108
f 79 87 109
f 79 109 80
f 80 109 81
f 81 109 108
f 82 110 111
f 82 111 83
f 83 111 84
f 84 112 113
f 84 113 85
f 84 111 110
f 84 110 114
f 84 114 112
f 85 113 109
f 85 109 86
f 86 109 87
f 88 108 115
f 88 115 116
f 88 116 89
f 89 116 90
f 90 109 117
f 90 117 118
f 90 118 91
f 90 116 115
f 90 115 119
f 90 119 109
f 91 118 120
f 91 120 121
f 91 121 122
f 91 122 93
f 93 122 94
f 94 122 123
f 94 123 124
f 94 124 95
f 95 124 125
f 95 125 97
f 96 97 98
f 97 125 126
f 97 126 127
f 97 127 128
f 97 128 98
f 98 128 129
f 98 129 107
f 99 103 102
f 99 102 130
f 99 130 100
f 101 106 131
f 101 131 132
f 101 132 133
f 101 133 102
f 102 133 134
f 102 134 130
f 105 107 106
f 106 107 129
f 106 129 135
f 106 135 133
f 106 133 132
f 106 132 131
f 108 119 115
f 108 109 119
f 109 136 137
f 109 137 117
f 109 113 112
f 109 112 136
f 110 138 114
f 112 114 136
f 114 139 140
f 114 140 136
f 114 138 139
f 117 137 141
f 117 141 142
f 117 142 121
f 117 121 120
f 117 120 118
f 121 143 144
f 121 144 145
f 121 145 146
f 121 146 123
f 121 123 122
f 121 142 147
f 121 147 143
f 123 146 148
f 123 148 124
f 124 148 149
f 124 149 150
f 124 150 151
f 124 151 127
f 124 127 126
f 124 126 125
f 127 152 128
f 127 151 153
f 127 153 154
f 127 154 152
f 128 152 129
f 129 152 155
f 129 155 156
f 129 156 135
f 133 135 157
f 133 157 158
f 133 158 159
f 133 159 134
f 134 159 160
f 135 156 157
f 136 140 137
f 137 140 161
f 137 161 162
f 137 162 163
f 137 163 143
f 137 143 164
f 137 164 141
f 139 165 140
f 140 165 166
f 140 166 167
f 140 167 168
f 140 168 169
f 140 169 161
f 141 164 147
f 141 147 142
f 143 170 144
f 143 147 164
f 143 163 171
f 143 171 172
f 143 172 170
f 144 170 173
f 144 173 174
f 144 174 175
f 144 175 145
f 145 175 146
f 146 175 148
f 148 175 176
f 148 176 149
f 149 176 175
f 149 175 177
f 149 177 178
f 149 178 179
f 149 179 150
f 150 179 180
f 150 180 154
f 150 154 153
f 150 153 151
f 152 154 181
f 152 181 182
f 152 182 183
f 152 183 184
f 152 184 155
f 154 180 181
f 155 185 186
f 155 186 187
f 155 187 188
f 155 188 189
f 155 189 157
f 155 157 156
f 155 184 190
f 155 190 191
f 155 191 185
f 157 189 158
f 158 192 159
f 158 189 193
f 159 192 160
f 161 169 163
f 161 163 162
f 163 169 171
f 166 194 167
f 167 194 195
f 167 195 196
f 167 196 168
f 168 196 169
f 169 196 172
f 169 172 171
f 170 172 197
f 170 197 198
f 170 198 199
f 170 199 200
f 170 200 201
f 170 201 202
f 170 202 203
f 170 203 204
f 170 204 205
f 170 205 178
f 170 178 206
f 170 206 173
f 172 196 207
f 172 207 197
f 173 206 174
f 174 206 178
f 174 178 177
f 174 177 175
f 178 208 209
f 178 209 210
f 178 210 211
f 178 211 179
f 178 205 212
f 178 212 208
f 179 213 214
f 179 214 215
f 179 215 182
f 179 182 180
f 179 211 210
f 179 210 213
f 180 182 181
f 182 215 183
f 183 215 184
f 184 215 216
f 184 216 190
f 185 191 217
f 185 217 186
f 186 217 218
f 188 193 189
f 190 216 191
f 191 216 215
f 191 215 219
f 191 219 220
f 191 220 221
f 191 221 222
f 191 222 217
f 195 223 224
f 195 224 196
f 196 224 225
f 196 225 207
f 197 207 198
f 198 207 226
f 198 226 199
f 199 227 228
f 199 228 200
f 199 226 229
f 199 229 227
f 200 228 230
f 200 230 201
f 201 231 202
f 202 204 203
f 202 231 232
f 202 232 208
f 202 208 212
f 202 212 204
f 204 212 205
f 207 225 233
f 207 233 226
f 208 234 209
f 208 232 234
f 209 235 210
f 210 235 236
f 210 236 213
f 213 236 237
f 213 237 238
f 213 238 239
f 213 239 240
f 213 240 219
f 213 219 214
f 214 219 215
f 217 222 218
f 219 240 220
f 220 240 239
f 223 233 225
f 223 225 224
