v -0.491533 0.323186 0.199571
v -0.532824 0.323186 -9.55442e-05
v -0.505516 0.323186 0.199571
v -0.545008 0.0790456 0.199571
v -0.583071 0.0790456 0.00293386
v -0.546098 0.323186 -9.55442e-05
v -0.583287 0.0810291 -9.55442e-05
v -0.512929 0.323186 0.181024
v -0.512744 0.311619 0.192438
v -0.513526 0.301845 0.199571
v -0.558076 0.0790456 0.199571
v -0.583771 0.0790456 -9.55442e-05
v -0.549378 0.315252 -9.55442e-05
v -0.542458 0.323186 0.0379381
v -0.525771 0.323186 0.147387
v -0.536207 0.310663 0.132006
v -0.525236 0.313244 0.158254
v -0.514297 0.315562 0.184659
v -0.536125 0.298523 0.143674
v -0.525062 0.28894 0.18161
v -0.516949 0.291641 0.199571
v -0.560575 0.0790456 0.194978
v -0.557562 0.0893217 0.199571
v -0.596561 0.0790456 -9.55442e-05
v -0.548576 0.312121 0.0178659
v -0.5374 0.323186 0.0893207
v -0.559382 0.284663 -9.55442e-05
v -0.551455 0.303614 0.0178659
v -0.526892 0.323186 0.144378
v -0.537328 0.302944 0.136345
v -0.529401 0.323186 0.1374
v -0.532506 0.323186 0.125009
v -0.536886 0.312671 0.125009
v -0.539991 0.303614 0.125009
v -0.548083 0.275271 0.132006
v -0.537174 0.290876 0.148111
v -0.536032 0.286359 0.155362
v -0.526409 0.280218 0.185167
v -0.524661 0.276537 0.192457
v -0.519499 0.283205 0.199571
v -0.561017 0.0790456 0.194138
v -0.557552 0.089489 0.199571
v -0.56076 0.0893217 0.193473
v -0.59652 0.0790456 0.000393071
v -0.596088 0.0893217 -9.55442e-05
v -0.548083 0.310663 0.0273645
v -0.535919 0.321776 0.108123
v -0.536392 0.323186 0.0989952
v -0.55053 0.291712 0.0654959
v -0.561007 0.279596 -9.55442e-05
v -0.551763 0.291712 0.0535933
v -0.535128 0.323186 0.109432
v -0.537359 0.31616 0.1125
v -0.547877 0.28624 0.108728
v -0.548597 0.277206 0.125009
v -0.548607 0.253595 0.145218
v -0.53852 0.268651 0.161635
v -0.536989 0.279811 0.157844
v -0.550889 0.267886 0.125009
v -0.559814 0.227021 0.131595
v -0.562117 0.209408 0.138006
v -0.560565 0.206158 0.145355
v -0.525555 0.267265 0.196444
v -0.524887 0.265186 0.199571
v -0.573468 0.0790456 0.161616
v -0.55676 0.101223 0.199571
v -0.57354 0.0893217 0.160052
v -0.560164 0.101223 0.191929
v -0.572954 0.101223 0.158508
v -0.587092 0.0790456 0.0909624
v -0.585539 0.0893217 0.101204
v -0.58413 0.0903493 0.11424
v -0.595492 0.0963476 0.00146802
v -0.595738 0.0948899 -9.55442e-05
v -0.536125 0.323186 0.101204
v -0.56076 0.278162 0.00596326
v -0.55164 0.279811 0.0893207
v -0.562662 0.272953 -9.55442e-05
v -0.549018 0.280433 0.112872
v -0.559752 0.274387 0.025156
v -0.552154 0.267886 0.113106
v -0.549625 0.243797 0.149049
v -0.536639 0.26521 0.168847
v -0.560215 0.228742 0.125009
v -0.56223 0.220258 0.125009
v -0.564903 0.208357 0.125009
v -0.565181 0.19648 0.136912
v -0.561613 0.196312 0.149127
v -0.536618 0.229387 0.192594
v -0.536886 0.217773 0.199571
v -0.577334 0.0893217 0.148834
v -0.577684 0.0790456 0.148834
v -0.556534 0.103135 0.199571
v -0.57646 0.101223 0.148834
v -0.559691 0.107627 0.190679
v -0.555218 0.112503 0.199571
v -0.550098 0.148851 0.199571
v -0.574877 0.113124 0.148834
v -0.583801 0.0790456 0.122546
v -0.583339 0.0950333 0.11895
v -0.583606 0.0870753 0.120748
v -0.583832 0.09814 0.111015
v -0.585662 0.101223 0.0893207
v -0.586475 0.113124 0.0654959
v -0.588079 0.13695 0.0178659
v -0.595543 0.0971363 -9.55442e-05
v -0.56331 0.267886 0.00596326
v -0.563916 0.267886 -9.55442e-05
v -0.560966 0.256774 0.0538669
v -0.561881 0.232183 0.101204
v -0.571813 0.191748 0.0980571
v -0.571576 0.178939 0.119517
v -0.57172 0.168089 0.131771
v -0.564009 0.184578 0.148834
v -0.560051 0.192226 0.155909
v -0.539117 0.208357 0.199571
v -0.548998 0.19648 0.181962
v -0.571916 0.145482 0.143889
v -0.576532 0.125025 0.136912
v -0.577797 0.113124 0.136912
v -0.56002 0.133628 0.179636
v -0.549594 0.152221 0.199571
v -0.54871 0.158124 0.199571
v -0.573098 0.124093 0.149186
v -0.572553 0.13695 0.14557
v -0.576871 0.13695 0.125009
v -0.575237 0.148851 0.125009
v -0.583688 0.109013 0.0977444
v -0.576481 0.148851 0.113106
v -0.575607 0.172653 0.0893207
v -0.584501 0.161708 0.0187258
v -0.585745 0.166775 -9.55442e-05
v -0.574147 0.224942 -9.55442e-05
v -0.571885 0.227714 0.0153251
v -0.572101 0.20482 0.0654959
v -0.576213 0.208357 0.0178659
v -0.574075 0.19648 0.0654959
v -0.575309 0.19648 0.0535933
v -0.576501 0.19648 0.0416907
v -0.583719 0.181042 -9.55442e-05
v -0.576357 0.184578 0.0654959
v -0.572502 0.185271 0.101692
v -0.583647 0.180062 0.00203481
v -0.584891 0.172821 -9.55442e-05
v -0.573561 0.160752 0.125009
v -0.572029 0.172295 0.12409
v -0.574938 0.13695 0.136912
v -0.572995 0.14921 0.137615
v -0.560729 0.184578 0.157687
v -0.549995 0.185176 0.185499
v -0.541852 0.196623 0.199571
v -0.559752 0.167563 0.16703
v -0.561315 0.171984 0.161186
v -0.544217 0.184985 0.199571
v -0.548175 0.181591 0.191714
v -0.548854 0.172653 0.193493
v -0.575247 0.220258 -9.55442e-05
v -0.584141 0.178102 -9.55442e-05
v -0.5436 0.188402 0.199571
f 1 2 6
f 1 6 14
f 1 14 26
f 1 26 48
f 1 48 75
f 1 75 52
f 1 52 32
f 1 32 31
f 1 31 29
f 1 29 15
f 1 15 8
f 1 8 3
f 1 3 10
f 1 10 21
f 1 21 40
f 1 40 64
f 1 64 90
f 1 90 116
f 1 116 151
f 1 151 159
f 1 159 154
f 1 154 123
f 1 123 122
f 1 122 97
f 1 97 96
f 1 96 93
f 1 93 66
f 1 66 42
f 1 42 23
f 1 23 11
f 1 11 4
f 1 4 5
f 1 5 2
f 2 5 7
f 2 7 12
f 2 12 24
f 2 24 45
f 2 45 74
f 2 74 106
f 2 106 132
f 2 132 144
f 2 144 158
f 2 158 140
f 2 140 157
f 2 157 133
f 2 133 108
f 2 108 78
f 2 78 50
f 2 50 27
f 2 27 13
f 2 13 6
f 3 8 9
f 3 9 10
f 4 11 22
f 4 22 41
f 4 41 65
f 4 65 92
f 4 92 99
f 4 99 70
f 4 70 44
f 4 44 24
f 4 24 12
f 4 12 5
f 5 12 7
f 6 13 14
f 8 15 16
f 8 16 17
f 8 17 18
f 8 18 9
f 9 18 17
f 9 17 19
f 9 19 20
f 9 20 10
f 10 20 21
f 11 23 22
f 13 25 26
f 13 26 14
f 13 27 28
f 13 28 25
f 15 29 16
f 16 30 19
f 16 19 17
f 16 29 31
f 16 31 32
f 16 32 33
f 16 33 34
f 16 34 35
f 16 35 30
f 19 30 36
f 19 36 37
f 19 37 20
f 20 37 38
f 20 38 39
f 20 39 21
f 21 39 40
f 22 23 41
f 23 42 43
f 23 43 41
f 24 44 45
f 25 46 26
f 25 28 46
f 26 47 48
f 26 46 49
f 26 49 47
f 27 50 51
f 27 51 28
f 28 51 49
f 28 49 46
f 30 35 36
f 32 52 33
f 33 52 47
f 33 47 53
f 33 53 34
f 34 53 54
f 34 54 55
f 34 55 35
f 35 56 57
f 35 57 39
f 35 39 58
f 35 58 37
f 35 37 36
f 35 55 59
f 35 59 60
f 35 60 61
f 35 61 62
f 35 62 56
f 37 58 38
f 38 58 39
f 39 57 63
f 39 63 64
f 39 64 40
f 41 43 65
f 42 66 43
f 43 67 65
f 43 66 68
f 43 68 69
f 43 69 67
f 44 70 45
f 45 71 72
f 45 72 73
f 45 73 74
f 45 70 71
f 47 52 75
f 47 75 48
f 47 49 54
f 47 54 53
f 49 51 54
f 50 76 77
f 50 77 54
f 50 54 51
f 50 78 76
f 54 77 79
f 54 79 55
f 55 80 81
f 55 81 59
f 55 79 77
f 55 77 80
f 56 82 83
f 56 83 57
f 56 62 82
f 57 83 63
f 59 81 84
f 59 84 60
f 60 84 85
f 60 85 86
f 60 86 87
f 60 87 61
f 61 87 88
f 61 88 62
f 62 88 83
f 62 83 82
f 63 83 64
f 64 83 89
f 64 89 90
f 65 67 91
f 65 91 92
f 66 93 68
f 67 69 94
f 67 94 91
f 68 95 69
f 68 93 96
f 68 96 97
f 68 97 95
f 69 95 98
f 69 98 94
f 70 99 71
f 71 99 72
f 72 100 73
f 72 99 101
f 72 101 100
f 73 102 103
f 73 103 104
f 73 104 105
f 73 105 106
f 73 106 74
f 73 100 102
f 76 78 107
f 76 107 80
f 76 80 77
f 78 108 107
f 80 107 81
f 81 107 109
f 81 109 110
f 81 110 84
f 83 88 89
f 84 110 85
f 85 110 111
f 85 111 86
f 86 111 112
f 86 112 113
f 86 113 87
f 87 113 114
f 87 114 88
f 88 114 115
f 88 115 90
f 88 90 89
f 90 115 117
f 90 117 116
f 91 101 99
f 91 99 92
f 91 94 101
f 94 98 118
f 94 118 119
f 94 119 120
f 94 120 100
f 94 100 101
f 95 121 98
f 95 97 122
f 95 122 123
f 95 123 121
f 98 121 124
f 98 124 125
f 98 125 118
f 100 120 119
f 100 119 113
f 100 113 126
f 100 126 127
f 100 127 102
f 102 128 103
f 102 127 129
f 102 129 128
f 103 128 104
f 104 128 129
f 104 129 112
f 104 112 130
f 104 130 105
f 105 130 131
f 105 131 132
f 105 132 106
f 107 108 133
f 107 133 134
f 107 134 109
f 109 134 110
f 110 134 135
f 110 135 111
f 111 135 136
f 111 136 137
f 111 137 138
f 111 138 139
f 111 139 140
f 111 140 141
f 111 141 142
f 111 142 112
f 112 142 143
f 112 143 144
f 112 144 131
f 112 131 130
f 112 129 127
f 112 127 145
f 112 145 146
f 112 146 113
f 113 146 145
f 113 145 127
f 113 127 126
f 113 119 147
f 113 147 148
f 113 148 118
f 113 118 114
f 114 149 115
f 114 118 149
f 115 149 150
f 115 150 117
f 116 117 151
f 117 150 151
f 118 148 147
f 118 147 119
f 118 125 152
f 118 152 153
f 118 153 149
f 121 123 152
f 121 152 125
f 121 125 124
f 123 154 155
f 123 155 156
f 123 156 152
f 131 144 132
f 133 157 136
f 133 136 135
f 133 135 134
f 136 140 139
f 136 139 138
f 136 138 137
f 136 157 140
f 140 158 143
f 140 143 142
f 140 142 141
f 143 158 144
f 149 155 150
f 149 153 155
f 150 155 159
f 150 159 151
f 152 156 155
f 152 155 153
f 154 159 155
