v -0.463771 0.481797 -9.55442e-05
v -0.435567 0.481797 -0.155512
v -0.471739 0.481797 -9.55442e-05
v -0.533112 0.322267 -9.55442e-05
v -0.451875 0.481797 -0.155512
v -0.511047 0.322267 -0.155512
v -0.478683 0.481797 -0.000156393
v -0.478727 0.481703 -9.55442e-05
v -0.546449 0.322267 -9.55442e-05
v -0.453812 0.478767 -0.155512
v -0.454924 0.481797 -0.148818
v -0.525485 0.322267 -0.155512
v -0.478727 0.481797 -0.000567153
v -0.482061 0.4758 -9.55442e-05
v -0.547979 0.322267 -0.00939072
v -0.537359 0.35075 -9.55442e-05
v -0.458632 0.470616 -0.155512
v -0.465686 0.466493 -0.145806
v -0.455188 0.481797 -0.14821
v -0.527125 0.322267 -0.148484
v -0.525155 0.323609 -0.155512
v -0.479398 0.481797 -0.00697184
v -0.485296 0.471147 -0.00596778
v -0.488345 0.464651 -9.55442e-05
v -0.547979 0.322267 -0.0147457
v -0.536006 0.357808 -0.00999924
v -0.528501 0.375079 -9.55442e-05
v -0.463353 0.462558 -0.155512
v -0.467051 0.468929 -0.136922
v -0.459381 0.481797 -0.136922
v -0.466677 0.456734 -0.155512
v -0.477604 0.443398 -0.145989
v -0.475414 0.451346 -0.140193
v -0.536072 0.322267 -0.0931842
v -0.525419 0.327794 -0.14821
v -0.52488 0.324687 -0.155512
v -0.479387 0.481797 -0.00817367
v -0.488653 0.465182 -0.00596778
v -0.491206 0.458842 -9.55442e-05
v -0.546922 0.322267 -0.021835
v -0.536006 0.357808 -0.013909
v -0.537546 0.352108 -0.0178644
v -0.537062 0.349001 -0.0297762
v -0.540254 0.33935 -0.0297762
v -0.528974 0.375079 -0.00596778
v -0.525375 0.384323 -0.00596778
v -0.525067 0.383636 -9.55442e-05
v -0.473136 0.45753 -0.136511
v -0.476526 0.45297 -0.132251
v -0.464366 0.476269 -0.130958
v -0.462 0.481797 -0.126181
v -0.478408 0.43292 -0.155512
v -0.489181 0.418944 -0.145593
v -0.47843 0.447021 -0.136511
v -0.501737 0.384698 -0.155512
v -0.537921 0.322267 -0.0816071
v -0.524055 0.333853 -0.143828
v -0.515152 0.363164 -0.136922
v -0.512049 0.36927 -0.143144
v -0.513226 0.362961 -0.147799
v -0.512632 0.359182 -0.155512
v -0.479255 0.481797 -0.0168299
v -0.488587 0.465057 -0.0178644
v -0.491987 0.458404 -0.00596778
v -0.500351 0.441133 -0.0093755
v -0.502332 0.434544 -9.55442e-05
v -0.538152 0.328606 -0.066607
v -0.525364 0.384308 -0.0178644
v -0.528985 0.375079 -0.0178644
v -0.527686 0.375079 -0.0297762
v -0.537987 0.34035 -0.0424639
v -0.524418 0.370394 -0.0627885
v -0.52608 0.364164 -0.0662571
v -0.513798 0.408871 -9.55442e-05
v -0.502442 0.43559 -0.00563309
v -0.500351 0.441133 -0.0140916
v -0.49015 0.421099 -0.136922
v -0.488664 0.429703 -0.122043
v -0.488257 0.452595 -0.0599589
v -0.47712 0.454204 -0.12501
v -0.474017 0.460153 -0.12501
v -0.47646 0.464682 -0.0963789
v -0.477032 0.465681 -0.0892897
v -0.477978 0.467352 -0.0774083
v -0.476735 0.477081 -0.0505116
v -0.477439 0.478315 -0.041688
v -0.467898 0.481797 -0.0891527
v -0.502673 0.387431 -0.148879
v -0.500681 0.394255 -0.144939
v -0.510838 0.366803 -0.151085
v -0.508769 0.37397 -0.147799
v -0.512555 0.370504 -0.136922
v -0.501451 0.395973 -0.136922
v -0.478562 0.481797 -0.0215459
v -0.488191 0.46437 -0.0238735
v -0.491855 0.458404 -0.0178644
v -0.524572 0.382543 -0.0297762
v -0.502409 0.435496 -0.0179861
v -0.524033 0.381325 -0.0365764
v -0.525738 0.375563 -0.0410034
v -0.525144 0.37219 -0.0535846
v -0.513501 0.372815 -0.12501
v -0.490172 0.458857 -0.02862
v -0.49081 0.423659 -0.125618
v -0.512302 0.381716 -0.109097
v -0.514514 0.387899 -0.0778038
v -0.489379 0.43128 -0.113113
v -0.490072 0.446943 -0.0645532
v -0.501957 0.43281 -0.0297762
v -0.488763 0.453657 -0.0535846
v -0.489709 0.455609 -0.041688
v -0.478066 0.456125 -0.113113
v -0.478386 0.479985 -0.0297762
v -0.476504 0.481797 -0.0347965
v -0.51327 0.407669 -0.0297762
v -0.514151 0.375813 -0.113083
f 1 2 5
f 1 5 11
f 1 11 19
f 1 19 30
f 1 30 51
f 1 51 87
f 1 87 114
f 1 114 94
f 1 94 62
f 1 62 37
f 1 37 22
f 1 22 13
f 1 13 7
f 1 7 3
f 1 3 8
f 1 8 14
f 1 14 24
f 1 24 39
f 1 39 66
f 1 66 74
f 1 74 47
f 1 47 27
f 1 27 16
f 1 16 9
f 1 9 4
f 1 4 2
f 2 4 6
f 2 6 12
f 2 12 21
f 2 21 36
f 2 36 61
f 2 61 55
f 2 55 52
f 2 52 31
f 2 31 28
f 2 28 17
f 2 17 10
f 2 10 5
f 3 7 8
f 4 9 15
f 4 15 25
f 4 25 40
f 4 40 56
f 4 56 34
f 4 34 20
f 4 20 12
f 4 12 6
f 5 10 11
f 7 13 14
f 7 14 8
f 9 16 15
f 10 17 18
f 10 18 11
f 11 18 19
f 12 20 21
f 13 22 14
f 14 23 24
f 14 22 23
f 15 16 26
f 15 26 41
f 15 41 25
f 16 27 26
f 17 28 18
f 18 29 30
f 18 30 19
f 18 28 31
f 18 31 32
f 18 32 33
f 18 33 29
f 20 34 35
f 20 35 36
f 20 36 21
f 22 37 38
f 22 38 23
f 23 38 24
f 24 38 39
f 25 41 42
f 25 42 43
f 25 43 44
f 25 44 40
f 26 27 45
f 26 45 46
f 26 46 41
f 27 47 46
f 27 46 45
f 29 33 48
f 29 48 49
f 29 49 50
f 29 50 30
f 30 50 51
f 31 52 32
f 32 53 54
f 32 54 33
f 32 52 55
f 32 55 53
f 33 54 49
f 33 49 48
f 34 56 35
f 35 56 57
f 35 57 58
f 35 58 59
f 35 59 60
f 35 60 36
f 36 60 61
f 37 62 63
f 37 63 38
f 38 63 64
f 38 64 39
f 39 64 65
f 39 65 66
f 40 44 67
f 40 67 56
f 41 46 68
f 41 68 69
f 41 69 70
f 41 70 42
f 42 70 43
f 43 67 71
f 43 71 44
f 43 70 72
f 43 72 73
f 43 73 67
f 44 71 67
f 46 47 74
f 46 74 75
f 46 75 65
f 46 65 76
f 46 76 68
f 49 54 77
f 49 77 78
f 49 78 79
f 49 79 80
f 49 80 81
f 49 81 50
f 50 81 82
f 50 82 83
f 50 83 51
f 51 83 84
f 51 84 85
f 51 85 86
f 51 86 87
f 53 55 88
f 53 88 89
f 53 89 54
f 54 89 77
f 55 61 90
f 55 90 88
f 56 67 57
f 57 67 73
f 57 73 58
f 58 73 59
f 59 91 90
f 59 90 61
f 59 61 60
f 59 73 72
f 59 72 92
f 59 92 93
f 59 93 89
f 59 89 88
f 59 88 91
f 62 94 95
f 62 95 63
f 63 95 96
f 63 96 64
f 64 96 76
f 64 76 65
f 65 75 66
f 66 75 74
f 68 97 70
f 68 70 69
f 68 76 98
f 68 98 97
f 70 97 99
f 70 99 100
f 70 100 101
f 70 101 72
f 72 101 102
f 72 102 92
f 76 96 103
f 76 103 98
f 77 104 78
f 77 89 93
f 77 93 104
f 78 104 93
f 78 93 105
f 78 105 106
f 78 106 107
f 78 107 79
f 79 107 108
f 79 108 109
f 79 109 110
f 79 110 80
f 80 110 111
f 80 111 112
f 80 112 82
f 80 82 81
f 82 112 95
f 82 95 83
f 83 95 84
f 84 95 86
f 84 86 85
f 86 113 87
f 86 95 113
f 87 113 114
f 88 90 91
f 92 102 105
f 92 105 93
f 94 114 113
f 94 113 95
f 95 112 111
f 95 111 103
f 95 103 96
f 97 106 105
f 97 105 99
f 97 98 115
f 97 115 108
f 97 108 106
f 98 103 109
f 98 109 115
f 99 105 116
f 99 116 100
f 100 116 101
f 101 116 102
f 102 116 105
f 103 111 109
f 106 108 107
f 108 115 109
f 109 111 110
