v 0.000133372 -0.396966 -0.309796
v 0.0676792 -0.407655 -0.301
v 0.000133372 -0.396966 -0.380485
v -0.15847 -0.396966 -0.265272
v 0.0676792 -0.503807 -0.301
v 0.0676792 -0.407655 -0.368688
v 0.0297552 -0.407643 -0.379481
v 0.0178445 -0.407643 -0.378635
v 0.0178445 -0.422719 -0.373436
v 0.0178445 -0.43197 -0.370245
v 0.000133372 -0.446534 -0.363377
v -0.0739434 -0.441327 -0.357456
v -0.0752939 -0.406014 -0.3695
v -0.078504 -0.40007 -0.371215
v -0.0654863 -0.396966 -0.373639
v -0.15847 -0.396966 -0.344532
v -0.15847 -0.518432 -0.265272
v 0.0676792 -0.517932 -0.301011
v 0.0676792 -0.410711 -0.367628
v 0.037526 -0.432457 -0.370335
v 0.0297552 -0.43361 -0.370752
v 0.0297552 -0.439567 -0.368745
v 0.0178445 -0.446534 -0.365204
v -0.0369936 -0.452812 -0.35732
v -0.0449414 -0.451659 -0.356903
v -0.0297763 -0.446523 -0.360264
v -0.0818691 -0.440126 -0.357039
v -0.0831974 -0.404814 -0.369083
v -0.0782383 -0.396966 -0.372308
v -0.15847 -0.423504 -0.334788
v -0.101794 -0.396966 -0.367155
v -0.108126 -0.418273 -0.357715
v 0.000133372 -0.518432 -0.309819
v 0.0676792 -0.518253 -0.301022
v -0.15847 -0.518432 -0.293342
v 0.0676792 -0.435049 -0.35917
v 0.0371496 -0.466711 -0.3582
v 0.0676792 -0.446178 -0.355302
v 0.0297552 -0.446534 -0.366196
v 0.0297552 -0.458424 -0.361809
v 0.0178445 -0.458424 -0.360771
v -0.0297763 -0.453763 -0.357704
v -0.0412664 -0.457437 -0.35502
v -0.0654863 -0.4584 -0.352065
v -0.0773971 -0.4584 -0.350779
v -0.0654863 -0.448556 -0.355809
v -0.077707 -0.445785 -0.355493
v -0.0857213 -0.466188 -0.346088
v -0.0892856 -0.446523 -0.352652
v -0.103211 -0.426215 -0.356283
v -0.0943333 -0.396966 -0.369094
v -0.0891085 -0.396966 -0.370391
v -0.08105 -0.396966 -0.371846
v -0.15847 -0.447081 -0.326115
v -0.107262 -0.452658 -0.345355
v 0.000133372 -0.518432 -0.333683
v 0.0676792 -0.518253 -0.324976
v -0.15847 -0.515697 -0.294797
v -0.155437 -0.512701 -0.298011
v -0.15216 -0.518432 -0.296703
v 0.0386993 -0.518253 -0.335498
v 0.0297552 -0.518253 -0.3371
v 0.0297552 -0.467175 -0.358403
v 0.0676792 -0.458424 -0.3507
v 0.0676792 -0.459839 -0.350125
v 0.0676792 -0.468947 -0.346325
v 0.0178445 -0.465748 -0.357794
v 0.000133372 -0.463572 -0.356869
v -0.00597697 -0.456867 -0.358944
v -0.0178656 -0.455321 -0.358324
v -0.0535756 -0.4584 -0.353328
v -0.0297763 -0.459696 -0.355313
v -0.0654863 -0.469505 -0.347498
v -0.0773971 -0.467948 -0.346844
v -0.0654863 -0.518432 -0.327096
v -0.0784819 -0.518432 -0.324672
v -0.0874038 -0.518432 -0.322585
v -0.0892856 -0.518432 -0.322055
v -0.0922301 -0.518432 -0.321198
v -0.0895292 -0.458828 -0.347881
v -0.15847 -0.455606 -0.322833
v -0.0965693 -0.513271 -0.322067
v -0.100909 -0.518432 -0.318097
v -0.15847 -0.470385 -0.316315
v -0.15847 -0.460969 -0.320533
v -0.02909 -0.518432 -0.331021
v 0.0676792 -0.518051 -0.325066
v -0.15847 -0.511072 -0.297177
v -0.15847 -0.507588 -0.298868
v -0.15847 -0.482941 -0.310575
v -0.00597697 -0.462788 -0.356554
v -0.15847 -0.480503 -0.311691
v -0.15847 -0.473084 -0.315086
f 1 2 6
f 1 6 3
f 1 3 15
f 1 15 29
f 1 29 53
f 1 53 52
f 1 52 51
f 1 51 31
f 1 31 16
f 1 16 4
f 1 4 2
f 2 5 18
f 2 18 34
f 2 34 57
f 2 57 87
f 2 87 66
f 2 66 65
f 2 65 64
f 2 64 38
f 2 38 36
f 2 36 19
f 2 19 6
f 2 4 17
f 2 17 5
f 3 6 7
f 3 7 8
f 3 8 9
f 3 9 10
f 3 10 11
f 3 11 12
f 3 12 13
f 3 13 14
f 3 14 15
f 4 16 30
f 4 30 54
f 4 54 81
f 4 81 85
f 4 85 84
f 4 84 93
f 4 93 92
f 4 92 90
f 4 90 89
f 4 89 88
f 4 88 58
f 4 58 35
f 4 35 17
f 5 17 18
f 6 19 20
f 6 20 7
f 7 20 21
f 7 21 8
f 8 21 22
f 8 22 9
f 9 22 10
f 10 23 11
f 10 22 23
f 11 23 24
f 11 24 25
f 11 25 26
f 11 26 12
f 12 27 13
f 12 26 25
f 12 25 27
f 13 27 14
f 14 27 28
f 14 28 29
f 14 29 15
f 16 31 32
f 16 32 30
f 17 33 34
f 17 34 18
f 17 35 60
f 17 60 83
f 17 83 79
f 17 79 78
f 17 78 77
f 17 77 76
f 17 76 75
f 17 75 86
f 17 86 56
f 17 56 33
f 19 36 20
f 20 37 22
f 20 22 21
f 20 36 38
f 20 38 37
f 22 37 39
f 22 39 23
f 23 39 40
f 23 40 41
f 23 41 42
f 23 42 24
f 24 42 43
f 24 43 44
f 24 44 45
f 24 45 25
f 25 45 46
f 25 46 47
f 25 47 27
f 27 48 49
f 27 49 50
f 27 50 31
f 27 31 51
f 27 51 52
f 27 52 28
f 27 47 45
f 27 45 48
f 28 53 29
f 28 52 53
f 30 32 54
f 31 50 32
f 32 50 55
f 32 55 54
f 33 56 57
f 33 57 34
f 35 58 59
f 35 59 60
f 37 61 62
f 37 62 63
f 37 63 40
f 37 40 39
f 37 38 64
f 37 64 65
f 37 65 66
f 37 66 61
f 40 63 41
f 41 63 67
f 41 67 68
f 41 68 69
f 41 69 70
f 41 70 42
f 42 70 43
f 43 71 44
f 43 70 72
f 43 72 71
f 44 73 45
f 44 71 73
f 45 73 74
f 45 74 48
f 45 47 46
f 48 74 75
f 48 75 76
f 48 76 77
f 48 77 78
f 48 78 79
f 48 79 55
f 48 55 80
f 48 80 49
f 49 80 55
f 49 55 50
f 54 55 81
f 55 79 82
f 55 82 83
f 55 83 84
f 55 84 85
f 55 85 81
f 56 62 61
f 56 61 57
f 56 86 62
f 57 61 87
f 58 88 59
f 59 83 60
f 59 88 89
f 59 89 90
f 59 90 83
f 61 66 87
f 62 67 63
f 62 86 67
f 67 86 68
f 68 86 91
f 68 91 69
f 69 91 72
f 69 72 70
f 71 72 73
f 72 91 73
f 73 75 74
f 73 91 86
f 73 86 75
f 79 83 82
f 83 90 92
f 83 92 93
f 83 93 84
