v -0.451381 -0.163148 -0.368866
v -0.450677 -0.163005 -0.368836
v -0.441139 -0.163005 -0.381789
v -0.447688 -0.184592 -0.368836
v -0.43461 -0.163005 -0.368836
v -0.430365 -0.163005 -0.395081
v -0.440721 -0.167738 -0.381266
v -0.428842 -0.179787 -0.393204
v -0.41761 -0.184592 -0.405943
v -0.416944 -0.191261 -0.405112
v -0.446203 -0.190616 -0.368836
v -0.256924 -0.163005 -0.51211
v -0.256924 -0.502584 -0.368836
v -0.424425 -0.163005 -0.402404
v -0.413879 -0.172687 -0.41325
v -0.429489 -0.172687 -0.394004
v -0.412775 -0.184592 -0.411896
v -0.40577 -0.193735 -0.417912
v -0.406569 -0.220342 -0.407004
v -0.437713 -0.196497 -0.377559
v -0.442529 -0.196497 -0.371605
v -0.406817 -0.184592 -0.419158
v -0.444642 -0.196891 -0.368836
v -0.256924 -0.163005 -0.526002
v -0.256924 -0.529299 -0.368836
v -0.418676 -0.163005 -0.409481
v -0.407921 -0.172687 -0.420465
v -0.400896 -0.184592 -0.425096
v -0.393777 -0.192696 -0.429281
v -0.392863 -0.238057 -0.416696
v -0.393815 -0.264986 -0.405927
v -0.405389 -0.228124 -0.405543
v -0.418562 -0.244152 -0.383297
v -0.441273 -0.204852 -0.370036
v -0.403504 -0.163005 -0.42745
v -0.402343 -0.172687 -0.426419
v -0.442586 -0.203668 -0.368836
v -0.256924 -0.170356 -0.524787
v -0.277731 -0.184592 -0.51411
v -0.262254 -0.163005 -0.523756
v -0.2657 -0.515852 -0.371836
v -0.256924 -0.519438 -0.375697
v -0.314338 -0.469164 -0.368836
v -0.312624 -0.467479 -0.371328
v -0.277426 -0.503768 -0.371713
v -0.413556 -0.163005 -0.415666
v -0.40872 -0.163005 -0.421496
v -0.394938 -0.184592 -0.430127
v -0.345634 -0.191333 -0.464572
v -0.310873 -0.193735 -0.48908
v -0.290199 -0.196497 -0.503264
v -0.287801 -0.208437 -0.501525
v -0.349022 -0.256057 -0.443265
v -0.388218 -0.220342 -0.42525
v -0.383269 -0.256057 -0.418404
v -0.381708 -0.263767 -0.417281
v -0.378338 -0.279867 -0.414712
v -0.385344 -0.279867 -0.408758
v -0.392501 -0.272911 -0.404481
v -0.398783 -0.267711 -0.398804
v -0.401125 -0.256057 -0.400312
v -0.40596 -0.256057 -0.394358
v -0.419762 -0.267962 -0.372882
v -0.423017 -0.267962 -0.368836
v -0.402381 -0.163005 -0.428342
v -0.256924 -0.184592 -0.522264
v -0.267927 -0.196497 -0.515971
v -0.275541 -0.196497 -0.512894
v -0.2815 -0.196497 -0.509218
v -0.283689 -0.184592 -0.510402
v -0.285992 -0.167559 -0.51211
v -0.285555 -0.163005 -0.513064
v -0.28051 -0.172005 -0.514494
v -0.279977 -0.163005 -0.516002
v -0.267546 -0.163005 -0.521494
v -0.264024 -0.50219 -0.382528
v -0.256924 -0.506887 -0.384405
v -0.319268 -0.463893 -0.368836
v -0.282014 -0.472284 -0.390205
v -0.30402 -0.47067 -0.375359
v -0.285802 -0.464323 -0.392958
v -0.381327 -0.180038 -0.440819
v -0.346528 -0.184592 -0.465234
v -0.396385 -0.172687 -0.431188
v -0.297452 -0.189648 -0.499725
v -0.312244 -0.184592 -0.49008
v -0.275199 -0.241427 -0.500941
v -0.286335 -0.215717 -0.500464
v -0.278073 -0.267962 -0.491203
v -0.346623 -0.267962 -0.441527
v -0.352582 -0.267962 -0.437204
v -0.345386 -0.274058 -0.440619
v -0.37238 -0.279867 -0.419142
v -0.3704 -0.288079 -0.417712
v -0.382983 -0.291772 -0.406681
v -0.391321 -0.279867 -0.40305
v -0.396271 -0.279867 -0.397097
v -0.403752 -0.270437 -0.391651
v -0.417858 -0.279867 -0.370513
v -0.420485 -0.275887 -0.368836
v -0.397546 -0.163005 -0.432019
v -0.256924 -0.185524 -0.522094
v -0.256924 -0.195887 -0.52011
v -0.256924 -0.22045 -0.514248
v -0.267717 -0.207505 -0.513402
v -0.274095 -0.202915 -0.512079
v -0.292788 -0.185237 -0.503895
v -0.305486 -0.172687 -0.497095
v -0.290523 -0.163005 -0.509618
v -0.286525 -0.163005 -0.51251
v -0.298442 -0.181687 -0.500618
v -0.262349 -0.488528 -0.393204
v -0.256924 -0.476802 -0.405235
v -0.320201 -0.462853 -0.368836
v -0.264443 -0.466905 -0.40665
v -0.268231 -0.470634 -0.401327
v -0.307142 -0.461383 -0.379266
v -0.272381 -0.462566 -0.403773
v -0.396023 -0.163005 -0.433142
v -0.388237 -0.163005 -0.438788
v -0.273485 -0.249388 -0.499664
v -0.275541 -0.279867 -0.489356
v -0.2815 -0.279867 -0.485049
v -0.310626 -0.276246 -0.465095
v -0.343616 -0.282019 -0.439342
v -0.358769 -0.277429 -0.429819
v -0.322257 -0.287147 -0.453003
v -0.335678 -0.289764 -0.442219
v -0.34927 -0.291772 -0.431527
v -0.371314 -0.313503 -0.406466
v -0.381422 -0.298657 -0.405235
v -0.394481 -0.289442 -0.394881
v -0.389608 -0.292741 -0.398866
v -0.405655 -0.28772 -0.382051
v -0.416811 -0.285999 -0.369236
v -0.41919 -0.279867 -0.368836
v -0.256924 -0.267891 -0.502233
v -0.263625 -0.216864 -0.512602
v -0.263282 -0.264269 -0.500649
v -0.256924 -0.471172 -0.409127
v -0.32536 -0.456721 -0.368836
v -0.323856 -0.455287 -0.370836
v -0.256924 -0.461885 -0.415312
v -0.256924 -0.469666 -0.410158
v -0.267337 -0.45769 -0.410373
v -0.25898 -0.460702 -0.414589
v -0.271582 -0.256057 -0.498741
v -0.274095 -0.286179 -0.48831
v -0.287515 -0.288796 -0.477511
v -0.312948 -0.327488 -0.443003
v -0.336477 -0.315582 -0.430896
v -0.343178 -0.341616 -0.415204
v -0.359302 -0.363131 -0.394497
v -0.369791 -0.346779 -0.393574
v -0.369772 -0.370374 -0.38182
v -0.381365 -0.322396 -0.393389
v -0.381137 -0.345704 -0.381235
v -0.394272 -0.312714 -0.382712
v -0.398993 -0.315834 -0.375236
v -0.417211 -0.285641 -0.368836
v -0.394043 -0.336022 -0.370528
v -0.399107 -0.327488 -0.368836
v -0.416982 -0.286286 -0.368836
v -0.256924 -0.274955 -0.500141
v -0.256924 -0.280943 -0.498356
v -0.256924 -0.291701 -0.495079
v -0.267775 -0.290804 -0.49031
v -0.3293 -0.451845 -0.368836
v -0.310435 -0.453458 -0.381651
v -0.275675 -0.454642 -0.406158
v -0.256924 -0.458837 -0.417158
v -0.262273 -0.452777 -0.416973
v -0.256924 -0.456363 -0.418635
v -0.263701 -0.30045 -0.489156
v -0.262521 -0.334372 -0.476634
v -0.277293 -0.303677 -0.478726
v -0.26589 -0.351226 -0.467188
v -0.303772 -0.363346 -0.434711
v -0.295929 -0.366 -0.43928
v -0.357455 -0.369478 -0.393143
v -0.367678 -0.354704 -0.391728
v -0.38087 -0.368904 -0.369036
v -0.377996 -0.364207 -0.375112
v -0.379423 -0.353557 -0.379112
v -0.36526 -0.363131 -0.389635
v -0.3625 -0.373924 -0.386481
v -0.359625 -0.384933 -0.383205
v -0.35717 -0.392857 -0.38102
v -0.367564 -0.378335 -0.379297
v -0.372875 -0.374641 -0.375236
v -0.38264 -0.360979 -0.371174
v -0.396613 -0.333225 -0.368836
v -0.384087 -0.361948 -0.368836
v -0.256924 -0.303893 -0.490787
v -0.331052 -0.449586 -0.368836
v -0.283613 -0.44955 -0.403281
v -0.264672 -0.446466 -0.418712
v -0.259798 -0.437645 -0.427081
v -0.256924 -0.439509 -0.428111
v -0.256924 -0.446681 -0.424158
v -0.256924 -0.304538 -0.490556
v -0.260826 -0.308411 -0.487418
v -0.256924 -0.33803 -0.477972
v -0.256924 -0.344054 -0.47568
v -0.259627 -0.342333 -0.475003
v -0.256924 -0.371235 -0.464665
v -0.261131 -0.367649 -0.463557
v -0.263434 -0.359724 -0.465418
v -0.274571 -0.370087 -0.452942
v -0.322733 -0.370876 -0.41765
v -0.354695 -0.377438 -0.391143
v -0.377862 -0.374928 -0.368836
v -0.380718 -0.369478 -0.368836
v -0.381079 -0.368761 -0.368836
v -0.351992 -0.387909 -0.387528
v -0.346262 -0.406053 -0.381728
v -0.334783 -0.442342 -0.370128
v -0.345653 -0.429146 -0.369436
v -0.358407 -0.40695 -0.370528
v -0.370895 -0.384144 -0.371359
v -0.375768 -0.378837 -0.368836
v -0.333031 -0.446968 -0.368836
v -0.3131 -0.446466 -0.383589
v -0.324389 -0.432409 -0.383128
v -0.268003 -0.434668 -0.422773
v -0.263339 -0.406591 -0.441557
v -0.256924 -0.416739 -0.440604
v -0.256924 -0.375036 -0.462865
v -0.258504 -0.375036 -0.461803
v -0.27181 -0.378012 -0.450942
v -0.279901 -0.375143 -0.446573
v -0.287991 -0.372239 -0.442157
v -0.319972 -0.378837 -0.41565
v -0.346795 -0.382925 -0.39402
v -0.325169 -0.386941 -0.407512
v -0.344967 -0.430975 -0.368836
v -0.345938 -0.429541 -0.368836
v -0.356941 -0.411898 -0.368836
v -0.359378 -0.407667 -0.368836
v -0.372304 -0.385184 -0.368836
v -0.271277 -0.401356 -0.43868
v -0.276722 -0.386941 -0.442634
v -0.263872 -0.383463 -0.453819
v -0.256924 -0.394005 -0.452973
v -0.256924 -0.376183 -0.462311
v -0.298633 -0.382208 -0.429342
v -0.333374 -0.380952 -0.404804
v -0.312034 -0.384216 -0.418527
v -0.256924 -0.385829 -0.457388
f 1 2 3
f 1 3 4
f 1 4 2
f 2 4 11
f 2 11 23
f 2 23 37
f 2 37 64
f 2 64 100
f 2 100 136
f 2 136 160
f 2 160 163
f 2 163 162
f 2 162 192
f 2 192 193
f 2 193 214
f 2 214 213
f 2 213 212
f 2 212 221
f 2 221 240
f 2 240 239
f 2 239 238
f 2 238 237
f 2 237 236
f 2 236 222
f 2 222 195
f 2 195 168
f 2 168 141
f 2 141 114
f 2 114 78
f 2 78 43
f 2 43 25
f 2 25 13
f 2 13 5
f 2 5 12
f 2 12 24
f 2 24 40
f 2 40 75
f 2 75 74
f 2 74 72
f 2 72 110
f 2 110 109
f 2 109 120
f 2 120 119
f 2 119 101
f 2 101 65
f 2 65 35
f 2 35 47
f 2 47 46
f 2 46 26
f 2 26 14
f 2 14 6
f 2 6 3
f 3 6 7
f 3 7 4
f 4 8 9
f 4 9 10
f 4 10 11
f 4 7 8
f 5 13 12
f 6 14 7
f 7 14 15
f 7 15 16
f 7 16 8
f 8 16 15
f 8 15 9
f 9 15 17
f 9 17 10
f 10 18 19
f 10 19 20
f 10 20 21
f 10 21 11
f 10 17 22
f 10 22 18
f 11 21 23
f 12 13 25
f 12 25 42
f 12 42 77
f 12 77 113
f 12 113 140
f 12 140 144
f 12 144 143
f 12 143 171
f 12 171 173
f 12 173 200
f 12 200 199
f 12 199 227
f 12 227 244
f 12 244 249
f 12 249 245
f 12 245 228
f 12 228 206
f 12 206 204
f 12 204 203
f 12 203 201
f 12 201 194
f 12 194 166
f 12 166 165
f 12 165 164
f 12 164 137
f 12 137 104
f 12 104 103
f 12 103 102
f 12 102 66
f 12 66 38
f 12 38 24
f 14 26 15
f 15 22 17
f 15 26 27
f 15 27 22
f 18 22 28
f 18 28 29
f 18 29 30
f 18 30 31
f 18 31 32
f 18 32 19
f 19 32 20
f 20 32 33
f 20 33 34
f 20 34 21
f 21 34 23
f 22 27 35
f 22 35 36
f 22 36 28
f 23 34 37
f 24 38 39
f 24 39 40
f 25 41 42
f 25 43 44
f 25 44 45
f 25 45 41
f 26 46 27
f 27 46 47
f 27 47 35
f 28 48 29
f 28 36 48
f 29 49 50
f 29 50 51
f 29 51 52
f 29 52 53
f 29 53 54
f 29 54 30
f 29 48 49
f 30 54 55
f 30 55 56
f 30 56 57
f 30 57 58
f 30 58 59
f 30 59 31
f 31 59 60
f 31 60 61
f 31 61 32
f 32 61 62
f 32 62 33
f 33 62 63
f 33 63 34
f 34 63 64
f 34 64 37
f 35 65 48
f 35 48 36
f 38 66 67
f 38 67 39
f 39 67 68
f 39 68 69
f 39 69 70
f 39 70 71
f 39 71 72
f 39 72 73
f 39 73 74
f 39 74 75
f 39 75 40
f 41 45 76
f 41 76 42
f 42 76 77
f 43 78 44
f 44 79 80
f 44 80 45
f 44 78 81
f 44 81 79
f 45 80 79
f 45 79 76
f 48 82 83
f 48 83 49
f 48 65 84
f 48 84 82
f 49 85 50
f 49 83 86
f 49 86 85
f 50 85 51
f 51 85 70
f 51 70 69
f 51 69 87
f 51 87 52
f 52 87 88
f 52 88 53
f 53 88 89
f 53 89 90
f 53 90 91
f 53 91 54
f 54 91 55
f 55 91 56
f 56 91 92
f 56 92 93
f 56 93 57
f 57 93 94
f 57 94 95
f 57 95 58
f 58 95 59
f 59 95 96
f 59 96 97
f 59 97 98
f 59 98 60
f 60 98 63
f 60 63 61
f 61 63 62
f 63 98 99
f 63 99 100
f 63 100 64
f 65 101 84
f 66 102 67
f 67 102 103
f 67 103 104
f 67 104 105
f 67 105 106
f 67 106 68
f 68 106 69
f 69 106 87
f 70 85 107
f 70 107 71
f 71 108 109
f 71 109 110
f 71 110 72
f 71 107 111
f 71 111 108
f 72 74 73
f 76 79 112
f 76 112 77
f 77 112 113
f 78 114 81
f 79 81 115
f 79 115 116
f 79 116 112
f 81 114 117
f 81 117 118
f 81 118 115
f 82 111 83
f 82 84 108
f 82 108 111
f 83 111 86
f 84 101 119
f 84 119 120
f 84 120 108
f 85 86 111
f 85 111 107
f 87 121 122
f 87 122 89
f 87 89 88
f 87 106 121
f 89 122 123
f 89 123 124
f 89 124 92
f 89 92 90
f 90 92 91
f 92 124 123
f 92 123 125
f 92 125 126
f 92 126 93
f 93 126 125
f 93 125 94
f 94 125 127
f 94 127 128
f 94 128 129
f 94 129 130
f 94 130 131
f 94 131 95
f 95 131 96
f 96 132 97
f 96 131 133
f 96 133 132
f 97 132 134
f 97 134 135
f 97 135 99
f 97 99 98
f 99 136 100
f 99 135 136
f 104 137 138
f 104 138 105
f 105 138 137
f 105 137 106
f 106 137 139
f 106 139 121
f 108 120 109
f 112 116 115
f 112 115 113
f 113 115 140
f 114 141 142
f 114 142 117
f 115 118 143
f 115 143 144
f 115 144 140
f 117 142 118
f 118 142 145
f 118 145 146
f 118 146 143
f 121 139 147
f 121 147 148
f 121 148 122
f 122 148 123
f 123 148 125
f 125 148 127
f 127 148 128
f 128 148 149
f 128 149 150
f 128 150 151
f 128 151 129
f 129 151 152
f 129 152 130
f 130 152 153
f 130 153 131
f 131 153 154
f 131 154 155
f 131 155 156
f 131 156 133
f 132 133 156
f 132 156 157
f 132 157 158
f 132 158 134
f 134 158 159
f 134 159 135
f 135 160 136
f 135 159 161
f 135 161 162
f 135 162 163
f 135 163 160
f 137 164 139
f 139 164 165
f 139 165 166
f 139 166 167
f 139 167 147
f 141 168 142
f 142 169 170
f 142 170 145
f 142 168 169
f 143 146 171
f 145 170 172
f 145 172 146
f 146 172 173
f 146 173 171
f 147 167 148
f 148 167 174
f 148 174 175
f 148 175 176
f 148 176 149
f 149 176 150
f 150 176 177
f 150 177 178
f 150 178 152
f 150 152 151
f 152 178 153
f 153 178 179
f 153 179 180
f 153 180 154
f 154 180 181
f 154 181 155
f 155 182 183
f 155 183 184
f 155 184 157
f 155 157 156
f 155 181 185
f 155 185 186
f 155 186 187
f 155 187 188
f 155 188 189
f 155 189 190
f 155 190 182
f 157 184 191
f 157 191 161
f 157 161 159
f 157 159 158
f 161 192 162
f 161 191 193
f 161 193 192
f 166 194 174
f 166 174 167
f 168 195 169
f 169 172 170
f 169 195 196
f 169 196 172
f 172 196 197
f 172 197 198
f 172 198 199
f 172 199 200
f 172 200 173
f 174 194 201
f 174 201 202
f 174 202 203
f 174 203 204
f 174 204 205
f 174 205 175
f 175 205 206
f 175 206 207
f 175 207 208
f 175 208 177
f 175 177 176
f 177 208 178
f 178 208 179
f 179 209 180
f 179 208 209
f 180 185 181
f 180 209 210
f 180 210 233
f 180 233 211
f 180 211 188
f 180 188 187
f 180 187 186
f 180 186 185
f 182 190 212
f 182 212 213
f 182 213 214
f 182 214 193
f 182 193 191
f 182 191 183
f 183 191 184
f 188 211 215
f 188 215 216
f 188 216 217
f 188 217 218
f 188 218 219
f 188 219 189
f 189 219 220
f 189 220 190
f 190 220 221
f 190 221 212
f 195 222 217
f 195 217 223
f 195 223 196
f 196 223 224
f 196 224 197
f 197 224 225
f 197 225 226
f 197 226 198
f 198 226 227
f 198 227 199
f 201 203 202
f 204 206 205
f 206 228 207
f 207 228 229
f 207 229 209
f 207 209 208
f 209 229 230
f 209 230 231
f 209 231 232
f 209 232 210
f 210 232 231
f 210 231 233
f 211 233 234
f 211 234 215
f 215 235 216
f 215 234 235
f 216 235 224
f 216 224 217
f 217 222 218
f 217 224 223
f 218 222 236
f 218 236 237
f 218 237 238
f 218 238 219
f 219 238 220
f 220 238 239
f 220 239 240
f 220 240 221
f 224 235 241
f 224 241 225
f 225 241 226
f 226 241 242
f 226 242 243
f 226 243 227
f 227 243 244
f 228 245 229
f 229 245 243
f 229 243 230
f 230 243 246
f 230 246 233
f 230 233 231
f 233 246 247
f 233 247 234
f 234 247 246
f 234 246 248
f 234 248 235
f 235 242 241
f 235 248 242
f 242 248 246
f 242 246 243
f 243 245 249
f 243 249 244
