v 0.532782 0.323201 -9.55442e-05
v 0.463573 0.48206 -9.55442e-05
v 0.546066 0.323201 -9.55442e-05
v 0.459485 0.323201 0.270741
v 0.402967 0.438578 0.270741
v 0.478471 0.48206 -9.55442e-05
v 0.402967 0.48206 0.228323
v 0.542996 0.332968 -9.55442e-05
v 0.547453 0.323201 0.00862657
v 0.474184 0.323201 0.270741
v 0.402967 0.468437 0.270741
v 0.478725 0.48206 0.00199883
v 0.478711 0.481671 -9.55442e-05
v 0.402967 0.48206 0.258678
v 0.537351 0.350712 -9.55442e-05
v 0.537521 0.352065 0.00600199
v 0.536007 0.357804 0.0100051
v 0.547481 0.323201 0.0112512
v 0.465964 0.346606 0.270741
v 0.476829 0.323201 0.265598
v 0.403264 0.468048 0.270741
v 0.402967 0.469308 0.269998
v 0.488331 0.464627 -9.55442e-05
v 0.481951 0.475949 -9.55442e-05
v 0.47915 0.48206 0.00616105
v 0.48529 0.471143 0.00597547
v 0.402967 0.480972 0.259659
v 0.407607 0.468188 0.265359
v 0.406999 0.48206 0.253403
v 0.528481 0.375081 -9.55442e-05
v 0.528976 0.375081 0.00597547
v 0.525369 0.384319 0.00597547
v 0.536007 0.357804 0.0139023
v 0.547481 0.323201 0.0154929
v 0.465356 0.348286 0.270741
v 0.477381 0.323201 0.264511
v 0.405386 0.465125 0.270741
v 0.402967 0.472496 0.267188
v 0.491161 0.458842 -9.55442e-05
v 0.488642 0.465187 0.00597547
v 0.491981 0.458406 0.00597547
v 0.479235 0.48206 0.0070094
v 0.415544 0.462496 0.260136
v 0.407126 0.48206 0.253217
v 0.525057 0.383619 -9.55442e-05
v 0.500342 0.441144 0.00939539
v 0.500342 0.441144 0.0140878
v 0.525369 0.384303 0.0178789
v 0.52899 0.375081 0.0178789
v 0.527689 0.375081 0.0297823
v 0.537535 0.352096 0.0178789
v 0.537054 0.348986 0.0297823
v 0.540252 0.339359 0.0297823
v 0.546646 0.323201 0.0211132
v 0.464917 0.358674 0.263132
v 0.463319 0.353542 0.270741
v 0.490213 0.323201 0.235773
v 0.513542 0.339359 0.170158
v 0.407932 0.461283 0.270741
v 0.502323 0.434504 -9.55442e-05
v 0.479235 0.48206 0.00793728
v 0.488572 0.465062 0.0178789
v 0.491854 0.458406 0.0178789
v 0.411215 0.459106 0.268408
v 0.418005 0.45455 0.26353
v 0.428021 0.43962 0.260932
v 0.417991 0.466384 0.25221
v 0.415515 0.474316 0.247358
v 0.408555 0.48206 0.250619
v 0.502408 0.435499 0.017985
v 0.524576 0.382531 0.0297823
v 0.524039 0.381333 0.0365957
v 0.525736 0.375563 0.0409965
v 0.525142 0.372189 0.0535892
v 0.524421 0.3704 0.0627885
v 0.537988 0.340355 0.0424546
v 0.526076 0.364164 0.0662615
v 0.538144 0.328598 0.0666061
v 0.539191 0.323201 0.0710865
v 0.540464 0.327447 0.0535892
v 0.466587 0.362858 0.255921
v 0.465215 0.371038 0.251918
v 0.455043 0.374475 0.270741
v 0.462852 0.35474 0.270741
v 0.477721 0.362158 0.231558
v 0.501474 0.323201 0.210534
v 0.513443 0.325441 0.181849
v 0.524916 0.323201 0.157406
v 0.51258 0.358861 0.156134
v 0.512297 0.346124 0.167348
v 0.409319 0.459122 0.270741
v 0.479093 0.48206 0.016792
v 0.485205 0.471019 0.0178789
v 0.48819 0.464378 0.0238704
v 0.490156 0.458857 0.0286159
v 0.409955 0.458126 0.270741
v 0.430129 0.431673 0.264166
v 0.415119 0.449589 0.270741
v 0.426607 0.429294 0.270741
v 0.427781 0.427195 0.270741
v 0.440245 0.404412 0.270741
v 0.452227 0.380835 0.270741
v 0.453727 0.383619 0.264776
v 0.429974 0.443259 0.252978
v 0.429818 0.454674 0.24073
v 0.427555 0.462605 0.235985
v 0.429464 0.465685 0.228032
v 0.417326 0.477208 0.239405
v 0.41253 0.48206 0.243302
v 0.412346 0.48206 0.243673
v 0.501955 0.432809 0.0297823
v 0.513273 0.407662 0.0297823
v 0.48877 0.44186 0.0870461
v 0.512933 0.383121 0.101229
v 0.512297 0.381722 0.10913
v 0.51415 0.375812 0.113106
v 0.513499 0.372811 0.125036
v 0.512551 0.370509 0.136913
v 0.512042 0.369265 0.143143
v 0.536389 0.323201 0.089273
v 0.537762 0.323201 0.0805774
v 0.51514 0.363169 0.136913
v 0.524506 0.359001 0.0871787
v 0.488161 0.36911 0.202395
v 0.476688 0.370089 0.227157
v 0.47492 0.378021 0.22318
v 0.455637 0.375595 0.268408
v 0.453515 0.377943 0.270741
v 0.50112 0.360012 0.180895
v 0.513867 0.323201 0.182698
v 0.524774 0.324057 0.157009
v 0.52684 0.323201 0.148446
v 0.51323 0.362967 0.147809
v 0.510839 0.366808 0.151097
v 0.501417 0.383759 0.157751
v 0.50337 0.375688 0.16133
v 0.501417 0.372142 0.169681
v 0.478584 0.48206 0.0203709
v 0.489703 0.455607 0.0416858
v 0.478372 0.479976 0.0297823
v 0.467025 0.48206 0.0937269
v 0.473646 0.471625 0.0893261
v 0.476447 0.464674 0.0964045
v 0.47857 0.459075 0.100726
v 0.47806 0.456136 0.113133
v 0.465215 0.382748 0.239988
v 0.472585 0.386294 0.219628
v 0.465059 0.394334 0.22774
v 0.441617 0.430802 0.240492
v 0.441461 0.442388 0.228217
v 0.451011 0.449449 0.199135
v 0.452779 0.453057 0.191181
v 0.466035 0.455592 0.158493
v 0.439184 0.461812 0.211224
v 0.440952 0.465 0.20327
v 0.436213 0.46951 0.207698
v 0.418939 0.479836 0.232167
v 0.422844 0.48206 0.220396
v 0.488756 0.453663 0.0535892
v 0.488246 0.45259 0.0599784
v 0.476504 0.452963 0.132274
v 0.488657 0.429698 0.122067
v 0.501983 0.399342 0.124135
v 0.501446 0.395983 0.136913
v 0.500682 0.394256 0.14492
v 0.502662 0.387429 0.14887
v 0.50876 0.373977 0.147809
v 0.525411 0.327789 0.148207
v 0.524053 0.333854 0.143833
v 0.527335 0.327447 0.136913
v 0.488133 0.380991 0.190466
v 0.476674 0.381877 0.215227
v 0.47782 0.431829 0.158255
v 0.48993 0.384646 0.182539
v 0.489166 0.418952 0.145582
v 0.477593 0.443399 0.14598
v 0.476221 0.48206 0.0355352
v 0.467747 0.48206 0.089167
v 0.461904 0.48206 0.125858
v 0.465002 0.477379 0.123048
v 0.464366 0.47626 0.130975
v 0.474014 0.460148 0.125036
v 0.477098 0.454192 0.125036
v 0.464422 0.440631 0.178695
v 0.465766 0.443415 0.172624
v 0.452383 0.4643 0.178509
v 0.465681 0.466493 0.145794
v 0.454208 0.467193 0.170582
v 0.453543 0.478017 0.157168
v 0.455043 0.48206 0.14818
v 0.467054 0.468935 0.136913
v 0.473137 0.45752 0.136489
v 0.475401 0.451346 0.140201
v 0.478428 0.447023 0.136489
v 0.490142 0.421098 0.136913
v 0.461848 0.48206 0.126176
v 0.460065 0.48206 0.133493
v 0.45923 0.48206 0.136913
f 1 2 6
f 1 6 13
f 1 13 24
f 1 24 23
f 1 23 39
f 1 39 60
f 1 60 45
f 1 45 30
f 1 30 15
f 1 15 8
f 1 8 3
f 1 3 9
f 1 9 18
f 1 18 34
f 1 34 54
f 1 54 79
f 1 79 121
f 1 121 120
f 1 120 132
f 1 132 88
f 1 88 130
f 1 130 86
f 1 86 57
f 1 57 36
f 1 36 20
f 1 20 10
f 1 10 4
f 1 4 5
f 1 5 2
f 2 5 7
f 2 7 14
f 2 14 29
f 2 29 44
f 2 44 69
f 2 69 110
f 2 110 109
f 2 109 158
f 2 158 190
f 2 190 198
f 2 198 197
f 2 197 196
f 2 196 179
f 2 179 141
f 2 141 178
f 2 178 177
f 2 177 138
f 2 138 92
f 2 92 61
f 2 61 42
f 2 42 25
f 2 25 12
f 2 12 6
f 3 8 9
f 4 10 19
f 4 19 35
f 4 35 56
f 4 56 84
f 4 84 83
f 4 83 128
f 4 128 102
f 4 102 101
f 4 101 100
f 4 100 99
f 4 99 98
f 4 98 96
f 4 96 91
f 4 91 59
f 4 59 37
f 4 37 21
f 4 21 11
f 4 11 5
f 5 11 22
f 5 22 38
f 5 38 27
f 5 27 14
f 5 14 7
f 6 12 13
f 8 15 9
f 9 16 17
f 9 17 18
f 9 15 16
f 10 20 19
f 11 21 22
f 12 23 24
f 12 24 13
f 12 25 26
f 12 26 23
f 14 27 28
f 14 28 29
f 15 30 17
f 15 17 16
f 17 30 31
f 17 31 32
f 17 32 33
f 17 33 34
f 17 34 18
f 19 20 36
f 19 36 35
f 21 37 22
f 22 28 38
f 22 37 28
f 23 26 40
f 23 40 41
f 23 41 39
f 25 42 26
f 26 42 40
f 27 38 28
f 28 43 29
f 28 37 43
f 29 43 44
f 30 45 32
f 30 32 31
f 32 46 47
f 32 47 48
f 32 48 33
f 32 45 46
f 33 48 49
f 33 49 50
f 33 50 51
f 33 51 34
f 34 51 52
f 34 52 53
f 34 53 54
f 35 55 56
f 35 36 57
f 35 57 58
f 35 58 55
f 37 59 43
f 39 41 46
f 39 46 60
f 40 42 61
f 40 61 62
f 40 62 63
f 40 63 41
f 41 63 47
f 41 47 46
f 43 59 64
f 43 64 65
f 43 65 66
f 43 66 67
f 43 67 44
f 44 67 68
f 44 68 69
f 45 60 46
f 47 63 70
f 47 70 48
f 48 70 71
f 48 71 50
f 48 50 49
f 50 71 72
f 50 72 73
f 50 73 74
f 50 74 75
f 50 75 52
f 50 52 51
f 52 76 53
f 52 75 77
f 52 77 76
f 53 76 78
f 53 78 79
f 53 79 80
f 53 80 54
f 54 80 79
f 55 81 82
f 55 82 83
f 55 83 84
f 55 84 56
f 55 58 85
f 55 85 81
f 57 86 58
f 58 86 87
f 58 87 88
f 58 88 89
f 58 89 90
f 58 90 85
f 59 91 64
f 61 92 62
f 62 92 93
f 62 93 94
f 62 94 63
f 63 94 95
f 63 95 70
f 64 91 96
f 64 96 65
f 65 97 66
f 65 96 98
f 65 98 99
f 65 99 100
f 65 100 97
f 66 97 101
f 66 101 102
f 66 102 103
f 66 103 104
f 66 104 67
f 67 104 105
f 67 105 106
f 67 106 107
f 67 107 68
f 68 108 109
f 68 109 110
f 68 110 69
f 68 107 108
f 70 95 111
f 70 111 112
f 70 112 71
f 71 112 72
f 72 74 73
f 72 112 111
f 72 111 113
f 72 113 114
f 72 114 115
f 72 115 116
f 72 116 74
f 74 116 117
f 74 117 75
f 75 117 118
f 75 118 119
f 75 119 77
f 76 77 120
f 76 120 121
f 76 121 78
f 77 119 122
f 77 122 123
f 77 123 120
f 78 121 79
f 81 85 124
f 81 124 125
f 81 125 82
f 82 125 126
f 82 126 103
f 82 103 127
f 82 127 83
f 83 127 128
f 85 90 129
f 85 129 124
f 86 130 87
f 87 130 88
f 88 131 89
f 88 132 131
f 89 131 133
f 89 133 119
f 89 119 134
f 89 134 135
f 89 135 136
f 89 136 137
f 89 137 124
f 89 124 129
f 89 129 90
f 92 138 94
f 92 94 93
f 94 139 95
f 94 138 140
f 94 140 141
f 94 141 142
f 94 142 143
f 94 143 144
f 94 144 145
f 94 145 139
f 95 139 111
f 97 100 101
f 102 128 127
f 102 127 103
f 103 126 146
f 103 146 147
f 103 147 148
f 103 148 149
f 103 149 104
f 104 149 150
f 104 150 151
f 104 151 105
f 105 107 106
f 105 151 152
f 105 152 153
f 105 153 154
f 105 154 107
f 107 154 155
f 107 155 156
f 107 156 108
f 108 157 109
f 108 156 158
f 108 158 157
f 109 157 158
f 111 139 159
f 111 159 160
f 111 160 113
f 113 161 162
f 113 162 114
f 113 160 161
f 114 162 163
f 114 163 164
f 114 164 115
f 115 164 118
f 115 118 117
f 115 117 116
f 118 164 119
f 119 165 166
f 119 166 167
f 119 167 134
f 119 133 168
f 119 168 169
f 119 169 122
f 119 164 165
f 120 123 169
f 120 169 170
f 120 170 168
f 120 168 132
f 122 169 123
f 124 137 125
f 125 137 126
f 126 137 171
f 126 171 172
f 126 172 146
f 131 132 168
f 131 168 133
f 134 167 166
f 134 166 135
f 135 173 148
f 135 148 147
f 135 147 174
f 135 174 146
f 135 146 172
f 135 172 171
f 135 171 137
f 135 137 136
f 135 166 175
f 135 175 176
f 135 176 173
f 138 177 140
f 139 145 159
f 140 177 178
f 140 178 141
f 141 179 142
f 142 179 180
f 142 180 143
f 143 180 181
f 143 181 182
f 143 182 183
f 143 183 145
f 143 145 144
f 145 183 159
f 146 174 147
f 148 150 149
f 148 173 184
f 148 184 151
f 148 151 150
f 151 184 185
f 151 185 152
f 152 185 153
f 153 186 154
f 153 185 176
f 153 176 187
f 153 187 186
f 154 186 155
f 155 186 187
f 155 187 188
f 155 188 156
f 156 188 158
f 158 188 189
f 158 189 190
f 159 183 160
f 160 183 161
f 161 183 182
f 161 182 181
f 161 181 191
f 161 191 192
f 161 192 193
f 161 193 194
f 161 194 195
f 161 195 162
f 162 195 164
f 162 164 163
f 164 195 165
f 165 175 166
f 165 195 194
f 165 194 175
f 168 170 169
f 173 185 184
f 173 176 185
f 175 194 176
f 176 194 193
f 176 193 187
f 179 196 181
f 179 181 180
f 181 196 197
f 181 197 198
f 181 198 191
f 187 193 191
f 187 191 198
f 187 198 190
f 187 190 189
f 187 189 188
f 191 193 192
