v 0.178085 0.431649 -0.00775483
v 0.178085 0.0246789 -0.00775483
v 0.178085 0.431649 -0.102879
v -0.254588 0.431649 -0.00775483
v 0.178085 -0.00071968 -0.102879
v 0.144679 -0.035026 -0.00775483
v -0.221301 0.431649 -0.102879
v -0.256378 0.431649 -0.00784795
v -0.256378 0.431558 -0.00775483
v 0.126961 -0.035026 -0.0505256
v 0.105247 -0.035026 -0.102879
v -0.431344 -0.035026 -0.00775483
v -0.221718 0.431558 -0.102879
v -0.223448 0.431649 -0.100197
v -0.316032 0.378751 -0.0863123
v -0.317165 0.379025 -0.0706213
v -0.32504 0.372447 -0.0392393
v -0.332377 0.365778 -0.00775483
v -0.254409 0.431649 -0.0235483
v -0.392688 -0.035026 -0.102879
v -0.428659 -0.023423 -0.00775483
v -0.40778 0.0618174 -0.0140778
v -0.423111 -0.00282098 -0.0119919
v -0.424245 -0.0132819 -0.0175699
v -0.427526 -0.035026 -0.0234179
v -0.306666 0.381446 -0.102879
v -0.231263 0.431649 -0.0868058
v -0.31466 0.377655 -0.0965184
v -0.33011 0.362808 -0.0499669
v -0.330945 0.364636 -0.0392393
v -0.33184 0.365732 -0.0235483
v -0.251784 0.431649 -0.0340617
v -0.249756 0.431649 -0.0419398
v -0.246296 0.431649 -0.0549396
v -0.332377 0.365778 -0.00784795
v -0.337209 0.35317 -0.00775483
v -0.395253 -0.035026 -0.0988278
v -0.38875 -0.00674955 -0.101165
v -0.385052 0.00786832 -0.102879
v -0.414104 0.0392511 -0.00775483
v -0.417742 0.0235825 -0.00784795
v -0.410166 0.0558789 -0.00775483
v -0.406587 0.0704511 -0.00845324
v -0.402889 0.086348 -0.00784795
v -0.39913 0.102154 -0.00775483
v -0.376104 0.185932 -0.0271148
v -0.335241 0.33741 -0.0549396
v -0.377297 0.175471 -0.0338755
v -0.327963 0.353398 -0.0708448
v -0.360713 0.218685 -0.0618399
v -0.423946 -0.0302752 -0.0321248
v -0.424483 -0.035026 -0.0335961
v -0.39233 0.0942964 -0.0471546
v -0.313526 0.373954 -0.102879
v -0.240032 0.431649 -0.0706213
v -0.235677 0.431649 -0.0789277
v -0.320148 0.368792 -0.0863123
v -0.337985 0.33741 -0.0392393
v -0.334226 0.353124 -0.0392393
v -0.329096 0.358834 -0.0604244
v -0.331423 0.353398 -0.0550886
v -0.336016 0.353124 -0.0235483
v -0.341206 0.337501 -0.00775483
v -0.40259 -0.035026 -0.0853531
v -0.39221 -0.000811028 -0.0938831
v -0.385589 0.00786832 -0.102013
v -0.376342 0.0549653 -0.102879
v -0.391912 0.132349 -0.00775483
v -0.330289 0.348373 -0.0657603
v -0.328977 0.342709 -0.0762179
v -0.33017 0.332248 -0.0803246
v -0.323787 0.353124 -0.0863123
v -0.408436 0.0176897 -0.0481789
v -0.393284 0.086348 -0.0495385
v -0.423052 -0.035026 -0.03774
v -0.314958 0.368153 -0.102879
v -0.315495 0.367331 -0.101854
v -0.34574 0.315894 -0.0195347
v -0.387856 0.149205 -0.00775483
v -0.384038 0.164919 -0.00775483
v -0.344248 0.325533 -0.00784795
v -0.344248 0.325487 -0.00775483
v -0.407363 -0.035026 -0.076013
v -0.372823 0.0738771 -0.102879
v -0.410584 -0.035026 -0.0696901
v -0.391435 0.00786832 -0.0922628
v -0.35785 0.153956 -0.102879
v -0.329633 0.314158 -0.0943114
v -0.410942 -0.00743476 -0.0558056
v -0.414581 -0.0235144 -0.0549396
v -0.421739 -0.035026 -0.0414369
v -0.315316 0.366554 -0.102879
v -0.353077 0.29045 -0.00775483
v -0.34914 0.306118 -0.00775483
v -0.416907 -0.035026 -0.0549396
v -0.409868 -0.0235144 -0.0665239
v -0.389944 0.0235825 -0.0890966
v -0.349498 0.197672 -0.102879
v -0.31812 0.353124 -0.102879
v -0.330468 0.306027 -0.0963973
v -0.377118 0.11234 -0.0795051
v -0.376044 0.122801 -0.0767487
v -0.407601 -0.00190737 -0.0616257
v -0.408735 -0.0123683 -0.0642518
v -0.382129 0.0706338 -0.0863123
v -0.347171 0.209641 -0.102879
v -0.32671 0.31128 -0.102879
v -0.334584 0.274644 -0.102013
v -0.337746 0.25893 -0.102013
v -0.337507 0.258108 -0.102879
v -0.331542 0.287663 -0.102879
v -0.334405 0.273548 -0.102879
f 1 2 5
f 1 5 3
f 1 3 7
f 1 7 14
f 1 14 27
f 1 27 56
f 1 56 55
f 1 55 34
f 1 34 33
f 1 33 32
f 1 32 19
f 1 19 8
f 1 8 4
f 1 4 9
f 1 9 18
f 1 18 36
f 1 36 63
f 1 63 82
f 1 82 94
f 1 94 93
f 1 93 80
f 1 80 79
f 1 79 68
f 1 68 45
f 1 45 42
f 1 42 40
f 1 40 21
f 1 21 12
f 1 12 6
f 1 6 2
f 2 6 5
f 3 5 11
f 3 11 20
f 3 20 39
f 3 39 67
f 3 67 84
f 3 84 87
f 3 87 98
f 3 98 106
f 3 106 110
f 3 110 112
f 3 112 111
f 3 111 107
f 3 107 99
f 3 99 92
f 3 92 76
f 3 76 54
f 3 54 26
f 3 26 13
f 3 13 7
f 4 8 9
f 5 6 10
f 5 10 11
f 6 12 25
f 6 25 52
f 6 52 75
f 6 75 91
f 6 91 95
f 6 95 85
f 6 85 83
f 6 83 64
f 6 64 37
f 6 37 20
f 6 20 11
f 6 11 10
f 7 13 14
f 8 15 16
f 8 16 17
f 8 17 18
f 8 18 9
f 8 19 15
f 12 21 22
f 12 22 23
f 12 23 24
f 12 24 25
f 13 26 14
f 14 26 27
f 15 28 29
f 15 29 30
f 15 30 31
f 15 31 16
f 15 19 32
f 15 32 33
f 15 33 34
f 15 34 28
f 16 31 17
f 17 31 35
f 17 35 18
f 18 35 36
f 20 37 38
f 20 38 39
f 21 40 41
f 21 41 22
f 22 41 40
f 22 40 42
f 22 42 43
f 22 43 44
f 22 44 45
f 22 45 46
f 22 46 47
f 22 47 48
f 22 48 23
f 23 48 24
f 24 48 49
f 24 49 50
f 24 50 25
f 25 51 52
f 25 50 53
f 25 53 51
f 26 54 28
f 26 28 34
f 26 34 55
f 26 55 56
f 26 56 27
f 28 54 57
f 28 57 29
f 29 58 59
f 29 59 30
f 29 57 60
f 29 60 61
f 29 61 47
f 29 47 46
f 29 46 58
f 30 59 62
f 30 62 31
f 31 62 36
f 31 36 35
f 36 62 63
f 37 64 65
f 37 65 38
f 38 65 39
f 39 65 66
f 39 66 67
f 42 45 44
f 42 44 43
f 45 68 46
f 46 68 59
f 46 59 58
f 47 61 60
f 47 60 48
f 48 60 69
f 48 69 49
f 49 69 60
f 49 60 57
f 49 57 70
f 49 70 50
f 50 70 71
f 50 71 72
f 50 72 53
f 51 73 52
f 51 53 74
f 51 74 73
f 52 73 75
f 53 72 74
f 54 76 77
f 54 77 57
f 57 77 72
f 57 72 70
f 59 78 62
f 59 68 79
f 59 79 80
f 59 80 78
f 62 78 81
f 62 81 63
f 63 81 82
f 64 83 65
f 65 84 67
f 65 67 66
f 65 83 85
f 65 85 86
f 65 86 87
f 65 87 84
f 70 72 71
f 72 77 88
f 72 88 74
f 73 89 90
f 73 90 75
f 73 74 88
f 73 88 89
f 75 90 91
f 76 92 77
f 77 92 88
f 78 93 94
f 78 94 81
f 78 80 93
f 81 94 82
f 85 95 96
f 85 96 97
f 85 97 86
f 86 97 98
f 86 98 87
f 88 92 99
f 88 99 100
f 88 100 101
f 88 101 102
f 88 102 89
f 89 103 90
f 89 102 103
f 90 103 104
f 90 104 95
f 90 95 91
f 95 104 96
f 96 105 97
f 96 104 106
f 96 106 105
f 97 105 106
f 97 106 98
f 99 107 100
f 100 107 108
f 100 108 101
f 101 104 102
f 101 108 109
f 101 109 106
f 101 106 104
f 102 104 103
f 106 109 110
f 107 111 108
f 108 111 112
f 108 112 109
f 109 112 110
