v 0.293679 -0.201119 -0.102879
v 0.294151 -0.201119 -0.101715
v 0.383206 -0.201119 -0.102879
v 0.336121 -0.40208 -0.102879
v 0.336392 -0.40208 -0.102162
v 0.312242 -0.201119 -0.0580405
v 0.341636 -0.40208 -0.089497
v 0.386293 -0.211879 -0.102879
v 0.383163 -0.201119 -0.102301
v 0.439651 -0.40208 -0.102879
v 0.328647 -0.201119 -0.0184638
v 0.37446 -0.40208 -0.0102784
v 0.392694 -0.234245 -0.102879
v 0.383134 -0.201119 -0.102013
v 0.439594 -0.40208 -0.102571
v 0.438208 -0.396827 -0.102879
v 0.331005 -0.201119 -0.0138729
v 0.376061 -0.40208 -0.00775483
v 0.334506 -0.201119 -0.00775483
v 0.39218 -0.236074 -0.0954475
v 0.394066 -0.239064 -0.102879
v 0.386207 -0.211879 -0.102013
v 0.380662 -0.201119 -0.0859212
v 0.43948 -0.40208 -0.102013
v 0.408485 -0.296642 -0.0921883
v 0.434793 -0.384533 -0.102879
v 0.430277 -0.368816 -0.102013
v 0.434635 -0.384513 -0.102013
v 0.402283 -0.40208 -0.00775483
v 0.35374 -0.201119 -0.00775483
v 0.409342 -0.293652 -0.102013
v 0.404012 -0.274669 -0.102013
v 0.399597 -0.258972 -0.102013
v 0.394695 -0.242094 -0.101212
v 0.412815 -0.306025 -0.102013
v 0.399697 -0.258972 -0.102879
v 0.378047 -0.201119 -0.0730331
v 0.436236 -0.40208 -0.088184
v 0.409857 -0.306084 -0.0867034
v 0.407327 -0.300891 -0.0817307
v 0.42469 -0.357524 -0.0902793
v 0.417187 -0.321723 -0.102013
v 0.39258 -0.250316 -0.0776054
v 0.425518 -0.351151 -0.102879
v 0.403183 -0.40208 -0.00905854
v 0.399797 -0.391359 -0.00775483
v 0.354012 -0.201119 -0.0080342
v 0.407199 -0.285567 -0.102879
v 0.404141 -0.274709 -0.102879
v 0.423818 -0.345033 -0.102879
v 0.412929 -0.306025 -0.102879
v 0.377461 -0.201119 -0.0705282
v 0.436064 -0.401745 -0.0878674
v 0.436122 -0.40208 -0.0877463
v 0.423418 -0.362226 -0.0798217
v 0.408742 -0.311336 -0.0760596
v 0.37659 -0.204325 -0.063097
v 0.403769 -0.40208 -0.010027
v 0.403112 -0.401312 -0.00923547
v 0.363186 -0.227576 -0.0118429
v 0.3618 -0.216403 -0.0140405
v 0.360513 -0.205938 -0.0167876
v 0.359928 -0.201119 -0.0182217
v 0.376218 -0.201119 -0.0652668
v 0.424804 -0.372691 -0.0750352
v 0.43112 -0.40208 -0.0706213
v 0.392623 -0.265837 -0.0619423
v 0.373203 -0.201119 -0.0545671
v 0.37799 -0.21479 -0.0583944
v 0.410585 -0.40208 -0.0221701
v 0.406999 -0.396808 -0.0176816
v 0.392837 -0.343243 -0.0149811
v 0.409599 -0.384513 -0.0283627
v 0.408442 -0.375051 -0.0306069
v 0.377147 -0.249195 -0.0302903
v 0.392823 -0.311966 -0.0303834
v 0.363157 -0.201119 -0.0259508
v 0.426319 -0.384238 -0.0701277
v 0.430634 -0.400211 -0.0706213
v 0.407242 -0.316962 -0.0655927
v 0.408628 -0.327408 -0.0611508
v 0.42206 -0.367989 -0.0701277
v 0.425704 -0.40208 -0.0552376
v 0.423189 -0.378848 -0.0645684
v 0.424532 -0.389293 -0.0606852
v 0.376404 -0.220731 -0.0479368
v 0.368216 -0.201119 -0.0392393
v 0.411128 -0.40208 -0.0231851
v 0.410943 -0.401312 -0.0231665
v 0.419588 -0.40208 -0.0404964
v 0.419931 -0.40208 -0.0412414
v 0.407156 -0.364606 -0.0334192
v 0.375832 -0.23873 -0.0336147
v 0.391537 -0.30152 -0.0334192
v 0.422546 -0.397122 -0.0502369
v 0.408099 -0.345092 -0.0469777
v 0.425404 -0.40208 -0.0544553
v 0.39228 -0.282813 -0.0473129
v 0.377761 -0.231196 -0.0440723
v 0.371002 -0.211879 -0.0392393
f 1 2 6
f 1 6 11
f 1 11 17
f 1 17 19
f 1 19 30
f 1 30 47
f 1 47 63
f 1 63 77
f 1 77 87
f 1 87 68
f 1 68 64
f 1 64 52
f 1 52 37
f 1 37 23
f 1 23 14
f 1 14 9
f 1 9 3
f 1 3 8
f 1 8 13
f 1 13 21
f 1 21 36
f 1 36 49
f 1 49 48
f 1 48 51
f 1 51 50
f 1 50 44
f 1 44 26
f 1 26 16
f 1 16 10
f 1 10 4
f 1 4 5
f 1 5 2
f 2 5 7
f 2 7 6
f 3 9 8
f 4 10 15
f 4 15 24
f 4 24 38
f 4 38 54
f 4 54 66
f 4 66 83
f 4 83 97
f 4 97 91
f 4 91 90
f 4 90 88
f 4 88 70
f 4 70 58
f 4 58 45
f 4 45 29
f 4 29 18
f 4 18 12
f 4 12 7
f 4 7 5
f 6 7 12
f 6 12 11
f 8 9 13
f 9 14 13
f 10 16 15
f 11 12 17
f 12 18 19
f 12 19 17
f 13 20 21
f 13 14 22
f 13 22 20
f 14 23 20
f 14 20 22
f 15 16 25
f 15 25 24
f 16 26 27
f 16 27 28
f 16 28 25
f 18 29 46
f 18 46 30
f 18 30 19
f 20 31 32
f 20 32 33
f 20 33 34
f 20 34 21
f 20 23 25
f 20 25 35
f 20 35 31
f 21 34 33
f 21 33 36
f 23 37 25
f 24 25 39
f 24 39 40
f 24 40 41
f 24 41 38
f 25 28 27
f 25 27 42
f 25 42 35
f 25 37 43
f 25 43 39
f 26 44 27
f 27 44 42
f 29 45 46
f 30 46 47
f 31 48 32
f 31 35 48
f 32 48 33
f 33 48 49
f 33 49 36
f 35 42 50
f 35 50 51
f 35 51 48
f 37 52 43
f 38 53 54
f 38 41 40
f 38 40 55
f 38 55 53
f 39 43 40
f 40 56 55
f 40 43 57
f 40 57 56
f 42 44 50
f 43 52 57
f 45 58 59
f 45 59 46
f 46 59 60
f 46 60 47
f 47 60 61
f 47 61 62
f 47 62 63
f 52 64 57
f 53 55 54
f 54 55 65
f 54 65 66
f 55 56 57
f 55 57 67
f 55 67 65
f 57 64 68
f 57 68 69
f 57 69 67
f 58 70 71
f 58 71 72
f 58 72 59
f 59 72 60
f 60 72 61
f 61 72 73
f 61 73 74
f 61 74 62
f 62 75 63
f 62 74 76
f 62 76 75
f 63 75 77
f 65 78 79
f 65 79 66
f 65 67 80
f 65 80 81
f 65 81 82
f 65 82 78
f 66 79 84
f 66 84 85
f 66 85 83
f 67 69 68
f 67 68 86
f 67 86 80
f 68 87 86
f 70 88 71
f 71 88 89
f 71 89 72
f 72 89 73
f 73 89 90
f 73 90 74
f 74 90 91
f 74 91 92
f 74 92 76
f 75 93 77
f 75 76 94
f 75 94 95
f 75 95 96
f 75 96 93
f 76 92 91
f 76 91 94
f 77 93 87
f 78 82 84
f 78 84 79
f 80 86 81
f 81 84 82
f 81 86 84
f 83 85 95
f 83 95 97
f 84 86 98
f 84 98 85
f 85 96 95
f 85 98 96
f 86 87 99
f 86 99 98
f 87 93 100
f 87 100 99
f 88 90 89
f 91 97 95
f 91 95 94
f 93 98 100
f 93 96 98
f 98 99 100
