v -0.433583 -0.38555 -0.103073
v -0.424238 -0.413068 -0.110481
v -0.391143 -0.682627 -0.116507
v -0.401738 -0.684743 -0.1029
v -0.430726 -0.413465 -0.1029
v -0.429714 -0.258478 -0.1029
v -0.432809 -0.321782 -0.109466
v -0.43263 -0.337592 -0.109293
v -0.425666 -0.384624 -0.111971
v -0.379953 -0.682627 -0.129163
v -0.377572 -0.708756 -0.123526
v -0.392989 -0.707168 -0.106161
v -0.380906 -0.729725 -0.106723
v -0.353764 -0.761675 -0.1029
v -0.424654 -0.269062 -0.111043
v -0.431737 -0.306105 -0.108861
v -0.422333 -0.211909 -0.1029
v -0.39412 -0.11758 -0.120092
v -0.418643 -0.290494 -0.120524
v -0.416024 -0.313977 -0.1256
v -0.415905 -0.337592 -0.125535
v -0.415012 -0.357172 -0.124736
v -0.368228 -0.682627 -0.140762
v -0.361204 -0.710409 -0.138818
v -0.365668 -0.730915 -0.122533
v -0.364894 -0.746924 -0.108861
v -0.344062 -0.746196 -0.130135
v -0.336919 -0.765776 -0.11344
v -0.320015 -0.780726 -0.1029
v -0.426261 -0.290494 -0.112684
v -0.388405 -0.133323 -0.129509
v -0.419595 -0.195041 -0.1029
v -0.406203 -0.133456 -0.107436
v -0.321741 -0.11758 -0.179725
v -0.355371 -0.117646 -0.15899
v -0.371739 -0.117646 -0.144045
v -0.383168 -0.117646 -0.132446
v -0.405905 -0.117646 -0.104218
v 0.120388 -0.11758 -0.1029
v -0.410786 -0.290494 -0.1283
v -0.39662 -0.196297 -0.130027
v -0.38162 -0.146289 -0.138386
v -0.399 -0.313977 -0.140394
v -0.398643 -0.337592 -0.140092
v -0.39037 -0.4474 -0.13966
v -0.365013 -0.666949 -0.145189
v -0.351561 -0.682627 -0.155643
v -0.340252 -0.706705 -0.158278
v -0.349776 -0.730651 -0.137975
v -0.328884 -0.744807 -0.144325
v -0.321681 -0.764982 -0.127781
v -0.305968 -0.769084 -0.133872
v -0.297635 -0.785356 -0.109747
v -0.266743 -0.79217 -0.1029
v -0.333943 -0.133456 -0.174606
v -0.337336 -0.117646 -0.172403
v -0.290373 -0.11758 -0.192748
v -0.342038 -0.180488 -0.171344
v -0.3418 -0.133456 -0.170869
v -0.378227 -0.280968 -0.15493
v -0.392036 -0.253384 -0.141086
v -0.390608 -0.227718 -0.139768
v -0.378942 -0.16481 -0.14344
v 0.156577 -0.178172 -0.104045
v 0.142292 -0.170896 -0.128278
v 0.088722 -0.11758 -0.179509
v 0.167767 -0.197819 -0.1029
v -0.389655 -0.211909 -0.138904
v -0.380549 -0.303988 -0.154196
v -0.378584 -0.327471 -0.155643
v -0.38043 -0.350822 -0.153612
v -0.384418 -0.368881 -0.149401
v -0.352335 -0.666949 -0.156291
v -0.332098 -0.684611 -0.170783
v -0.321146 -0.705117 -0.172381
v -0.33186 -0.730056 -0.153159
v -0.311087 -0.743219 -0.158062
v -0.311444 -0.756912 -0.145189
v -0.28198 -0.772523 -0.139315
v -0.27454 -0.785885 -0.120373
v -0.291087 -0.757441 -0.153289
v -0.243172 -0.790648 -0.11776
v -0.227458 -0.791641 -0.11776
v -0.211804 -0.792567 -0.11776
v -0.19609 -0.793162 -0.11776
v -0.243172 -0.79303 -0.1029
v -0.338109 -0.153102 -0.1729
v -0.0535949 -0.11758 -0.264843
v -0.268647 -0.117646 -0.200869
v -0.2746 -0.133456 -0.198796
v -0.290254 -0.180488 -0.19277
v -0.29948 -0.384624 -0.188947
v -0.327931 -0.525721 -0.177198
v -0.307396 -0.243329 -0.185707
v -0.314539 -0.219846 -0.182748
v 0.156756 -0.188492 -0.117716
v 0.140982 -0.188822 -0.156507
v 0.125328 -0.172947 -0.172295
v 0.068306 -0.11758 -0.228774
v 0.174493 -0.214488 -0.105794
v 0.15741 -0.203177 -0.134649
v 0.157529 -0.79336 -0.1029
v -0.33799 -0.537429 -0.172878
v -0.332633 -0.604107 -0.174606
v -0.331741 -0.635528 -0.174282
v -0.305968 -0.698238 -0.180588
v -0.326205 -0.666949 -0.175923
v -0.306087 -0.721721 -0.172468
v -0.285611 -0.735546 -0.17156
v -0.264659 -0.740441 -0.174671
v -0.27454 -0.76399 -0.151733
v -0.258826 -0.766173 -0.154023
v -0.187579 -0.768819 -0.172468
v -0.258826 -0.772656 -0.146183
v -0.260374 -0.781387 -0.13277
v -0.227458 -0.787407 -0.131237
v -0.256088 -0.785422 -0.12709
v -0.232161 -0.754531 -0.173807
v 0.0705083 -0.790251 -0.211906
v 0.133304 -0.791111 -0.227543
v -0.180376 -0.79131 -0.13344
v -0.149068 -0.78959 -0.149142
v -0.00794156 -0.79217 -0.180545
v -0.102046 -0.792765 -0.149142
v -0.0864509 -0.793228 -0.149142
v -0.133354 -0.79336 -0.13344
v -0.219661 -0.793228 -0.1029
v 0.00777222 -0.792897 -0.180545
v 0.0705083 -0.793162 -0.196225
v -0.0238339 -0.11758 -0.273655
v -0.0864509 -0.117712 -0.255123
v -0.254124 -0.16481 -0.204951
v -0.2746 -0.16481 -0.198623
v -0.29942 -0.400368 -0.188904
v -0.290313 -0.219846 -0.192705
v -0.321681 -0.557075 -0.179746
v 0.092948 -0.18955 -0.273158
v 0.0935433 -0.173542 -0.24981
v 0.0556873 -0.11758 -0.258925
v 0.157529 -0.79336 -0.211906
v 0.155387 -0.672043 -0.320522
v 0.157529 -0.47505 -0.323546
v 0.157529 -0.40738 -0.316548
v 0.156934 -0.233473 -0.166874
v 0.157827 -0.218391 -0.150351
v 0.1089 -0.206021 -0.254929
v -0.180376 -0.79336 -0.11033
v -0.321681 -0.596302 -0.179573
v -0.326979 -0.619851 -0.17696
v -0.321681 -0.635528 -0.179077
v -0.305968 -0.674755 -0.183785
v -0.285671 -0.682627 -0.189357
v -0.234601 -0.688514 -0.20385
v -0.282992 -0.698701 -0.187349
v -0.268886 -0.707896 -0.189033
v -0.251743 -0.722316 -0.188601
v -0.0943078 -0.721985 -0.235426
v 0.0142601 -0.722713 -0.267197
v 0.130685 -0.729526 -0.298039
v -0.172341 -0.73753 -0.204022
v 0.0547945 -0.740838 -0.269033
v 0.00777222 -0.742095 -0.254216
v -0.187876 -0.753142 -0.188277
v -0.164722 -0.764585 -0.183699
v -0.0791297 -0.76915 -0.204238
v -0.211804 -0.77206 -0.160999
v -0.00794156 -0.764321 -0.230415
v -0.0393096 -0.773516 -0.210091
v -0.0707372 -0.776625 -0.196225
v -0.149068 -0.78099 -0.166507
v -0.243172 -0.782115 -0.136788
v 0.133304 -0.786679 -0.239594
v 0.11759 -0.785621 -0.237327
v -0.217518 -0.784364 -0.14061
v -0.0496069 -0.785026 -0.189077
v 0.15116 -0.76108 -0.280696
v 0.11759 -0.789722 -0.227543
v 0.153303 -0.78701 -0.244627
v 0.153303 -0.792236 -0.227543
v 0.101936 -0.792368 -0.211906
v 0.023486 -0.793294 -0.180545
v 0.125447 -0.793162 -0.211906
v 0.00765318 -0.11758 -0.282488
v -0.00794156 -0.117646 -0.278341
v 0.0547945 -0.243329 -0.29562
v 0.0547945 -0.290494 -0.295123
v -0.252696 -0.243329 -0.204562
v -0.290313 -0.400368 -0.191733
v -0.298885 -0.4474 -0.188645
v -0.305968 -0.572753 -0.18521
v 0.0804484 -0.175593 -0.282013
v 0.0960432 -0.207146 -0.285404
v 0.0467591 -0.119366 -0.277866
v 0.0234265 -0.11758 -0.284389
v 0.153303 -0.775235 -0.264346
v 0.153958 -0.737597 -0.300069
v 0.136459 -0.666949 -0.315274
v 0.153839 -0.70644 -0.314367
v 0.139018 -0.687257 -0.314518
v -0.0790702 -0.67621 -0.251236
v 0.123542 -0.384624 -0.314453
v 0.153303 -0.451567 -0.322445
v 0.155387 -0.430201 -0.321883
v 0.109495 -0.258147 -0.298125
v 0.110447 -0.239427 -0.284043
v 0.141518 -0.234532 -0.205016
v 0.122769 -0.227255 -0.243547
v 0.108007 -0.218854 -0.270868
v -0.305968 -0.588496 -0.185059
v -0.305968 -0.619851 -0.184757
v -0.236506 -0.677996 -0.204411
v 0.0276525 -0.687059 -0.281667
v -0.126212 -0.69116 -0.235577
v -0.0176436 -0.692814 -0.267326
v 0.0952099 -0.704853 -0.297844
v -0.0624636 -0.705646 -0.250955
v -0.219839 -0.706308 -0.20413
v -0.11151 -0.707366 -0.235858
v -0.0519878 -0.710012 -0.25251
v 0.112293 -0.719935 -0.297412
v 0.0632466 -0.721456 -0.282294
v 0.0737225 -0.724499 -0.283849
v 0.0977693 -0.738655 -0.283244
v 0.13253 -0.753472 -0.282683
v 0.0749129 -0.752679 -0.266333
v 0.132768 -0.769084 -0.266938
v 0.0889601 -0.770208 -0.252618
v -0.0196674 -0.769944 -0.220826
v 0.0391998 -0.770605 -0.237391
v 0.0547945 -0.765644 -0.247543
v 0.11759 -0.781123 -0.245167
v 0.0862221 -0.783173 -0.232597
v -0.0236553 -0.782776 -0.200718
v 0.133304 -0.782578 -0.247435
v 0.0111054 -0.133456 -0.283784
v 0.124257 -0.363986 -0.314389
v 0.0648537 -0.153962 -0.284346
v 0.0391998 -0.133456 -0.285987
v 0.0547945 -0.16481 -0.290026
v 0.0547945 -0.180488 -0.29238
v 0.0883053 -0.238104 -0.299399
v 0.0461638 -0.706771 -0.282726
f 1 2 3
f 1 3 4
f 1 4 5
f 1 5 6
f 1 6 7
f 1 7 8
f 1 8 9
f 1 9 2
f 2 9 10
f 2 10 3
f 3 10 11
f 3 11 12
f 3 12 4
f 4 12 13
f 4 13 14
f 4 14 29
f 4 29 54
f 4 54 86
f 4 86 127
f 4 127 102
f 4 102 67
f 4 67 39
f 4 39 32
f 4 32 17
f 4 17 6
f 4 6 5
f 6 15 16
f 6 16 7
f 6 17 18
f 6 18 15
f 7 16 19
f 7 19 20
f 7 20 21
f 7 21 8
f 8 21 22
f 8 22 9
f 9 22 23
f 9 23 10
f 10 23 11
f 11 24 25
f 11 25 13
f 11 13 12
f 11 23 24
f 13 25 26
f 13 26 14
f 14 26 27
f 14 27 28
f 14 28 29
f 15 30 16
f 15 18 31
f 15 31 30
f 16 30 19
f 17 32 33
f 17 33 18
f 18 34 35
f 18 35 36
f 18 36 37
f 18 37 31
f 18 33 38
f 18 38 39
f 18 39 66
f 18 66 99
f 18 99 139
f 18 139 194
f 18 194 183
f 18 183 130
f 18 130 88
f 18 88 57
f 18 57 34
f 19 40 20
f 19 30 41
f 19 41 42
f 19 42 40
f 20 43 21
f 20 40 43
f 21 43 44
f 21 44 45
f 21 45 46
f 21 46 22
f 22 46 23
f 23 47 24
f 23 46 47
f 24 47 48
f 24 48 49
f 24 49 25
f 25 49 27
f 25 27 26
f 27 49 50
f 27 50 51
f 27 51 28
f 28 51 29
f 29 51 52
f 29 52 53
f 29 53 54
f 30 31 41
f 31 37 42
f 31 42 41
f 32 39 38
f 32 38 33
f 34 55 56
f 34 56 35
f 34 57 58
f 34 58 55
f 35 56 59
f 35 59 60
f 35 60 61
f 35 61 62
f 35 62 63
f 35 63 36
f 36 63 42
f 36 42 37
f 39 64 65
f 39 65 66
f 39 67 64
f 40 42 63
f 40 63 68
f 40 68 62
f 40 62 61
f 40 61 43
f 43 61 60
f 43 60 69
f 43 69 70
f 43 70 44
f 44 70 71
f 44 71 72
f 44 72 73
f 44 73 45
f 45 73 46
f 46 73 47
f 47 74 48
f 47 73 74
f 48 75 76
f 48 76 49
f 48 74 75
f 49 76 50
f 50 77 78
f 50 78 51
f 50 76 77
f 51 78 52
f 52 79 80
f 52 80 53
f 52 78 81
f 52 81 79
f 53 80 54
f 54 80 82
f 54 82 83
f 54 83 84
f 54 84 85
f 54 85 86
f 55 87 59
f 55 59 56
f 55 58 87
f 57 88 89
f 57 89 90
f 57 90 91
f 57 91 92
f 57 92 93
f 57 93 94
f 57 94 95
f 57 95 58
f 58 95 93
f 58 93 70
f 58 70 87
f 59 87 70
f 59 70 69
f 59 69 60
f 62 68 63
f 64 67 96
f 64 96 97
f 64 97 98
f 64 98 65
f 65 98 66
f 66 98 99
f 67 100 101
f 67 101 97
f 67 97 96
f 67 102 100
f 70 93 103
f 70 103 104
f 70 104 105
f 70 105 71
f 71 105 72
f 72 105 73
f 73 105 74
f 74 106 75
f 74 105 107
f 74 107 106
f 75 106 108
f 75 108 76
f 76 108 77
f 77 81 78
f 77 108 109
f 77 109 110
f 77 110 81
f 79 81 111
f 79 111 112
f 79 112 113
f 79 113 114
f 79 114 115
f 79 115 80
f 80 116 82
f 80 115 117
f 80 117 116
f 81 110 118
f 81 118 111
f 82 119 120
f 82 120 121
f 82 121 83
f 82 116 122
f 82 122 119
f 83 123 84
f 83 121 123
f 84 124 85
f 84 123 124
f 85 125 126
f 85 126 127
f 85 127 86
f 85 124 128
f 85 128 129
f 85 129 125
f 88 130 131
f 88 131 89
f 89 131 132
f 89 132 133
f 89 133 90
f 90 133 134
f 90 134 92
f 90 92 135
f 90 135 91
f 91 135 92
f 92 134 136
f 92 136 93
f 93 136 103
f 93 95 94
f 97 137 138
f 97 138 98
f 97 101 137
f 98 138 99
f 99 138 139
f 100 140 141
f 100 141 142
f 100 142 143
f 100 143 144
f 100 144 145
f 100 145 101
f 100 102 140
f 101 145 146
f 101 146 137
f 102 127 147
f 102 147 126
f 102 126 140
f 103 136 148
f 103 148 104
f 104 148 149
f 104 149 105
f 105 149 150
f 105 150 107
f 106 107 151
f 106 151 152
f 106 152 153
f 106 153 154
f 106 154 155
f 106 155 108
f 107 150 151
f 108 156 109
f 108 155 156
f 109 156 157
f 109 157 158
f 109 158 159
f 109 159 160
f 109 160 110
f 110 160 161
f 110 161 162
f 110 162 163
f 110 163 118
f 111 118 164
f 111 164 113
f 111 113 112
f 113 165 166
f 113 166 114
f 113 164 167
f 113 167 165
f 114 166 168
f 114 168 169
f 114 169 170
f 114 170 115
f 115 170 171
f 115 171 117
f 116 172 122
f 116 117 173
f 116 173 172
f 117 171 174
f 117 174 175
f 117 175 173
f 118 163 176
f 118 176 167
f 118 167 164
f 119 122 177
f 119 177 120
f 120 177 178
f 120 178 179
f 120 179 180
f 120 180 123
f 120 123 121
f 122 172 177
f 123 180 124
f 124 180 128
f 125 129 181
f 125 181 126
f 126 147 127
f 126 181 140
f 128 180 129
f 129 180 182
f 129 182 181
f 130 183 184
f 130 184 185
f 130 185 131
f 131 185 186
f 131 186 187
f 131 187 132
f 132 187 188
f 132 188 133
f 133 188 134
f 134 188 189
f 134 189 190
f 134 190 148
f 134 148 136
f 137 191 139
f 137 139 138
f 137 146 192
f 137 192 191
f 139 193 194
f 139 191 193
f 140 181 182
f 140 182 179
f 140 179 178
f 140 178 195
f 140 195 196
f 140 196 141
f 141 197 142
f 141 196 198
f 141 198 199
f 141 199 200
f 141 200 197
f 142 197 186
f 142 186 201
f 142 201 202
f 142 202 203
f 142 203 143
f 143 203 204
f 143 204 205
f 143 205 206
f 143 206 144
f 144 206 207
f 144 207 145
f 145 207 208
f 145 208 146
f 146 208 192
f 148 190 209
f 148 209 210
f 148 210 150
f 148 150 149
f 150 210 151
f 151 210 211
f 151 211 152
f 152 211 200
f 152 200 153
f 153 212 213
f 153 213 154
f 153 200 212
f 154 213 214
f 154 214 215
f 154 215 216
f 154 216 217
f 154 217 155
f 155 217 218
f 155 218 219
f 155 219 157
f 155 157 156
f 157 219 220
f 157 220 221
f 157 221 158
f 158 222 159
f 158 221 222
f 159 196 223
f 159 223 160
f 159 222 221
f 159 221 220
f 159 220 198
f 159 198 196
f 160 223 161
f 161 223 224
f 161 224 225
f 161 225 162
f 162 225 163
f 163 225 224
f 163 224 176
f 165 226 227
f 165 227 228
f 165 228 166
f 165 167 226
f 166 229 168
f 166 228 229
f 167 176 230
f 167 230 226
f 168 195 231
f 168 231 169
f 168 229 227
f 168 227 195
f 169 231 170
f 170 231 232
f 170 232 233
f 170 233 171
f 171 233 174
f 172 178 177
f 172 173 178
f 173 175 232
f 173 232 234
f 173 234 178
f 174 233 232
f 174 232 175
f 176 224 196
f 176 196 195
f 176 195 226
f 176 226 230
f 178 234 195
f 179 182 180
f 183 235 184
f 183 194 236
f 183 236 235
f 184 235 185
f 185 201 186
f 185 235 201
f 186 197 210
f 186 210 187
f 187 210 188
f 188 210 189
f 189 210 209
f 189 209 190
f 191 192 237
f 191 237 193
f 192 208 205
f 192 205 204
f 192 204 237
f 193 237 238
f 193 238 194
f 194 238 239
f 194 239 240
f 194 240 236
f 195 234 231
f 195 227 226
f 196 224 223
f 197 200 210
f 198 220 215
f 198 215 199
f 199 215 214
f 199 214 213
f 199 213 212
f 199 212 200
f 200 211 210
f 201 235 236
f 201 236 202
f 202 236 203
f 203 236 241
f 203 241 204
f 204 241 237
f 205 208 207
f 205 207 206
f 215 220 242
f 215 242 216
f 216 242 218
f 216 218 217
f 218 242 219
f 219 242 220
f 227 229 228
f 231 234 232
f 236 240 241
f 237 239 238
f 237 241 239
f 239 241 240
