v 0.301286 -0.112633 -0.00774552
v 0.30155 -0.112633 -0.00707561
v 0.33328 -0.112633 -0.00774552
v 0.326021 -0.181306 -0.00774552
v 0.31238 -0.129807 0.00252407
v 0.308777 -0.112633 0.00662567
v 0.326037 -0.180848 -0.00731355
v 0.338127 -0.132183 -0.00774552
v 0.333183 -0.112633 -0.0075005
v 0.326225 -0.181873 -0.00774552
v 0.328439 -0.175855 0.00130038
v 0.313516 -0.112633 0.0067234
v 0.34517 -0.220021 8.66149e-05
v 0.343948 -0.211868 0.000861331
v 0.342892 -0.225907 -0.00774552
v 0.348789 -0.175614 -0.00774552
v 0.333668 -0.116444 -0.00643686
v 0.330997 -0.112633 -0.00257886
v 0.322251 -0.112633 0.00651095
v 0.346603 -0.211868 0.000861331
v 0.35195 -0.235845 -0.00774552
v 0.345542 -0.220021 8.66149e-05
v 0.349242 -0.17963 -0.00662806
v 0.349759 -0.179727 -0.00774552
v 0.327076 -0.112633 0.00189381
v 0.330727 -0.120822 0.00185841
v 0.333996 -0.149104 0.00432277
v 0.332257 -0.133414 0.00355938
v 0.356296 -0.226739 -0.00774552
v 0.34712 -0.196177 0.00150575
v 0.351713 -0.226184 -0.0050149
v 0.346231 -0.184298 0.000946309
v 0.352963 -0.19479 -0.00774552
v 0.354832 -0.21147 -0.00774552
v 0.353232 -0.196177 -0.00774552
f 1 2 6
f 1 6 12
f 1 12 19
f 1 19 25
f 1 25 18
f 1 18 9
f 1 9 3
f 1 3 8
f 1 8 16
f 1 16 24
f 1 24 33
f 1 33 35
f 1 35 34
f 1 34 29
f 1 29 21
f 1 21 15
f 1 15 10
f 1 10 4
f 1 4 2
f 2 5 6
f 2 4 7
f 2 7 5
f 3 9 8
f 4 10 7
f 5 7 11
f 5 11 6
f 6 11 13
f 6 13 14
f 6 14 12
f 7 10 15
f 7 15 11
f 8 9 17
f 8 17 18
f 8 18 16
f 9 18 17
f 11 15 13
f 12 14 20
f 12 20 19
f 13 15 21
f 13 21 22
f 13 22 20
f 13 20 14
f 16 23 24
f 16 18 23
f 18 25 26
f 18 26 23
f 19 20 27
f 19 27 28
f 19 28 26
f 19 26 25
f 20 22 29
f 20 29 30
f 20 30 27
f 21 29 31
f 21 31 22
f 22 31 29
f 23 32 33
f 23 33 24
f 23 26 32
f 26 28 32
f 27 30 32
f 27 32 28
f 29 34 30
f 30 34 35
f 30 35 32
f 32 35 33
