v 0.180535 0.40004 0.0494814
v 0.171577 0.40004 0.0688743
v 0.187945 0.379513 0.0446675
v -0.253106 0.40004 0.0473083
v 0.156018 0.388073 0.0999031
v 0.171914 0.380152 0.0772367
v 0.18882 0.33961 0.0637579
v 0.204177 0.310225 0.0469507
v 0.14093 0.40004 0.117453
v 0.220882 0.247368 0.0439798
v -0.353333 0.290338 0.0439798
v -0.329489 0.36184 0.0494814
v -0.317499 0.363543 0.109888
v -0.246371 0.40004 0.0705523
v 0.155075 0.368739 0.107413
v 0.188281 0.259122 0.094209
v 0.219737 0.165092 0.0785296
v 0.204043 0.23587 0.0786671
v 0.188281 0.30618 0.078502
v 0.204245 0.275858 0.0632628
v 0.236374 0.177314 0.0468406
v 0.219265 0.249497 0.046318
v 0.126515 0.40004 0.134893
v 0.141334 0.365885 0.12576
v 0.172116 0.280415 0.109366
v 0.204784 0.17659 0.0951992
v 0.235229 0.0935893 0.078337
v 0.156758 0.352769 0.109778
v 0.248498 0.124635 0.0471707
v 0.167266 -0.035021 0.0469232
v -0.437259 -0.0292719 0.0441999
v -0.423316 0.0251533 0.0439798
v -0.360338 0.264615 0.0439798
v -0.361079 0.259505 0.0549829
v -0.345654 0.315378 0.0549829
v -0.331509 0.35724 0.0726429
v -0.326929 0.343315 0.113464
v -0.309416 0.359625 0.132362
v -0.295676 0.364267 0.147024
v -0.238153 0.40004 0.090743
v 0.248498 0.0711464 0.0663986
v 0.238058 0.117736 0.0668388
v 0.235027 0.144778 0.0622725
v 0.220141 0.206145 0.0636204
v 0.125101 0.380492 0.140835
v 0.115334 0.40004 0.146941
v 0.219804 0.10611 0.0943465
v 0.217043 0.133407 0.090908
v 0.237586 0.0706353 0.0813078
v 0.24385 0.0513012 0.078282
v 0.248498 0.0923969 0.0594117
v 0.248498 -0.00478482 0.0524522
v 0.175955 -0.035021 0.0678566
v -0.439482 -0.035021 0.0637304
v -0.431803 -0.00661603 0.0494814
v -0.407353 0.0869033 0.0439798
v -0.365053 0.246985 0.0439798
v -0.393814 0.137751 0.0599068
v -0.437596 -0.0292719 0.0869194
v -0.407824 0.0779176 0.0920083
v -0.361011 0.251371 0.0789147
v -0.391861 0.108537 0.138359
v -0.345385 0.275177 0.124825
v -0.329421 0.321596 0.125128
v -0.298976 0.350597 0.154891
v -0.283753 0.359796 0.168232
v -0.269204 0.360434 0.184957
v -0.219158 0.376489 0.218379
v -0.221314 0.40004 0.120561
v 0.248498 0.0157843 0.0743759
v 0.204312 0.111859 0.110273
v 0.202292 0.133407 0.108073
v 0.0407705 0.290338 0.244621
v 0.0724281 0.40004 0.190211
v 0.0625266 0.383686 0.203855
v 0.0514802 0.337395 0.224376
v 0.232602 0.0549636 0.0910731
v 0.237317 0.0392493 0.0889275
v 0.199867 -0.035021 0.131317
v 0.195758 -0.035021 0.115637
v 0.182825 -0.035021 0.0844162
v -0.437057 -0.035021 0.110191
v -0.408835 0.0817077 0.0549829
v -0.424933 0.0204688 0.0549829
v -0.399337 0.117736 0.0439798
v -0.394016 0.138134 0.0439798
v -0.39927 0.117736 0.0549829
v -0.403446 0.102021 0.0549829
v -0.423451 0.0149752 0.107798
v -0.428637 -0.0281646 0.152195
v -0.408094 0.0318393 0.157174
v -0.293924 0.337395 0.167462
v -0.329286 0.226969 0.172331
v -0.280318 0.331902 0.18592
v -0.256609 0.355196 0.201627
v -0.239029 0.357624 0.217251
v -0.205687 0.372827 0.236589
v -0.164734 0.384964 0.243246
v -0.188713 0.40004 0.157532
v -0.209863 0.40004 0.1347
v 0.19111 -0.035021 0.150847
v 0.221084 0.0549636 0.103617
v 0.223239 0.0706353 0.0981701
v 0.0624593 0.223094 0.235049
v 0.173193 -0.035021 0.169663
v 0.0453507 0.321681 0.233728
v 0.028781 0.297279 0.253589
v 0.0554542 0.40004 0.20446
v 0.0499983 0.35311 0.22267
v -0.42399 -0.035021 0.166994
v -0.411057 -0.035021 0.184902
v -0.376908 0.0558579 0.188643
v -0.391457 -0.0179014 0.203002
v -0.298505 0.275603 0.18867
v -0.26678 0.322022 0.204075
v -0.222661 0.352002 0.231995
v -0.297966 0.195967 0.219589
v -0.330095 0.0643326 0.235874
v -0.266106 0.23374 0.234883
v -0.199154 0.35311 0.247977
v -0.181439 0.372827 0.252488
v -0.133279 0.388754 0.258925
v -0.0833677 0.398847 0.249105
v -0.029213 0.40004 0.243768
v 0.0640758 0.196179 0.236369
v 0.0934433 0.133407 0.219204
v 0.143422 0.0157417 0.190101
v 0.0287136 0.274623 0.256284
v 0.149551 -0.026376 0.187405
v 0.125236 -0.035021 0.200664
v 0.0297914 0.351832 0.236506
v 0.0234598 0.337395 0.244401
v 0.0136931 0.323853 0.253011
v 0.00776576 0.306009 0.261043
v 0.00109746 0.292126 0.26759
v 0.00877611 0.274623 0.26726
v 0.0435995 0.377469 0.220084
v -0.00227036 0.398379 0.235351
v 0.0295219 0.398464 0.220167
v -0.367612 -0.035021 0.235544
v -0.397788 -0.0333602 0.201709
v -0.393679 0.00403052 0.190183
v -0.382835 -0.0328065 0.219204
v -0.376571 -0.0157721 0.219644
v -0.32895 0.155424 0.203387
v -0.314468 0.0567096 0.251608
v -0.326323 -0.0319122 0.269048
v -0.283282 0.0805579 0.267343
v -0.349426 0.0244293 0.231748
v -0.350706 -0.035021 0.250948
v -0.180428 0.35311 0.258788
v -0.219158 0.234166 0.266517
v -0.159683 0.368228 0.265472
v -0.13631 0.374616 0.272129
v -0.113476 0.387647 0.265362
v -0.0513733 0.389052 0.255597
v -0.0238245 0.384538 0.248335
v 0.0937801 0.117736 0.219507
v 0.123148 0.0549636 0.202452
v 0.034641 0.258951 0.253121
v 0.0180713 0.258951 0.262281
v 0.12308 0.0392493 0.202644
v 0.0640085 0.149122 0.236094
v 0.0846196 -0.00780844 0.223083
v -0.0171562 -0.035021 0.278043
v 0.0234598 0.384496 0.228254
v 0.0197552 0.369718 0.235186
v -0.00166415 0.351193 0.25048
v -0.0114309 0.365502 0.249683
v -0.0179644 0.319339 0.266077
v -0.00792831 0.274623 0.2751
v -0.0236224 0.290338 0.276228
v -0.00792831 0.258951 0.276393
v -0.304903 -0.035021 0.283875
v -0.172346 0.337012 0.266682
v -0.251018 0.0940577 0.282444
v -0.268396 0.0510883 0.283462
v -0.14904 0.35311 0.273092
v -0.133279 0.35311 0.278428
v -0.117585 0.35311 0.279446
v -0.109771 0.368739 0.274357
v -0.0799998 0.381174 0.26539
v -0.0434926 0.3411 0.26748
v -0.035073 0.325982 0.269406
v -0.0555494 0.360434 0.265362
v 0.0347757 0.235401 0.252956
v -0.0259125 0.196179 0.285498
v 0.0633349 0.0863496 0.235736
v -0.0279332 0.00786327 0.284397
v -0.0331197 -0.035021 0.286681
v -0.0239592 0.26568 0.282527
v -0.0393165 0.235401 0.291935
v -0.0215343 0.243237 0.2836
v -0.0403268 0.281437 0.28327
v -0.0255757 0.227523 0.285635
v -0.275805 -0.035021 0.299142
v -0.289816 -0.0292719 0.290779
v -0.202656 0.201418 0.281922
v -0.156584 0.290167 0.282444
v -0.23391 0.0599462 0.297629
v -0.158201 0.190515 0.298536
v -0.133279 0.258951 0.29353
v -0.117585 0.313845 0.287808
v -0.124253 0.337736 0.282417
v -0.101891 0.306009 0.288909
v -0.10216 0.32875 0.28327
v -0.0863313 0.331391 0.279914
v -0.0863313 0.35311 0.27433
v -0.0566271 0.296555 0.283022
v -0.0393165 0.0392493 0.290917
v -0.0535287 -0.035021 0.297546
v -0.0471972 0.258951 0.290807
v -0.0566271 0.233953 0.297794
v -0.0552126 0.207891 0.298756
v -0.0579742 0.180508 0.300159
v -0.0500935 0.149122 0.296941
v -0.0550106 0.274623 0.288496
v -0.0500935 0.0863496 0.296886
v -0.0447723 0.0667174 0.294025
v -0.256407 -0.035021 0.307174
v -0.253241 0.0128884 0.299197
v -0.243205 -0.00780844 0.307009
v -0.2395 -0.0288034 0.312235
v -0.187703 0.0465315 0.313803
v -0.131797 0.241661 0.296281
v -0.125533 0.235444 0.298179
v -0.109771 0.282459 0.293475
v -0.0786527 0.248944 0.298536
v -0.0707046 0.274623 0.291604
v -0.0707046 0.290338 0.287561
v -0.0777097 -0.035021 0.308384
v -0.078518 0.227523 0.300957
v -0.0707046 0.211809 0.301782
v -0.0948856 0.0722536 0.313996
v -0.0926629 0.0471277 0.314491
v -0.0579742 0.0706353 0.300187
v -0.139072 -0.035021 0.324999
v -0.217003 -0.0321252 0.31859
v -0.195045 -0.0292719 0.322358
v -0.157258 0.0789396 0.313941
v -0.103979 0.252223 0.298426
v -0.101891 0.227523 0.301232
v -0.101891 -0.00780844 0.318122
v -0.108963 -0.0292719 0.32024
v -0.0863313 0.211809 0.302635
v -0.133279 0.00786327 0.321423
v -0.117585 -0.00780844 0.321423
v -0.164734 -0.00780844 0.322908
v -0.171537 -0.0292719 0.324641
v -0.180428 2.74209e-05 0.320653
v -0.117585 0.196179 0.303735
v -0.14904 0.0549636 0.317077
v -0.125533 0.0952076 0.313996
f 1 2 3
f 1 3 4
f 1 4 14
f 1 14 40
f 1 40 69
f 1 69 100
f 1 100 99
f 1 99 124
f 1 124 108
f 1 108 74
f 1 74 46
f 1 46 23
f 1 23 9
f 1 9 2
f 2 5 6
f 2 6 7
f 2 7 8
f 2 8 3
f 2 9 5
f 3 8 10
f 3 10 11
f 3 11 4
f 4 11 12
f 4 12 13
f 4 13 14
f 5 15 16
f 5 16 17
f 5 17 18
f 5 18 19
f 5 19 6
f 5 9 15
f 6 19 20
f 6 20 7
f 7 20 21
f 7 21 22
f 7 22 8
f 8 22 10
f 9 23 24
f 9 24 25
f 9 25 26
f 9 26 27
f 9 27 28
f 9 28 15
f 10 22 21
f 10 21 29
f 10 29 30
f 10 30 31
f 10 31 32
f 10 32 56
f 10 56 85
f 10 85 86
f 10 86 57
f 10 57 33
f 10 33 11
f 11 33 34
f 11 34 35
f 11 35 12
f 12 35 36
f 12 36 13
f 13 37 38
f 13 38 39
f 13 39 40
f 13 40 14
f 13 36 37
f 15 28 16
f 16 28 27
f 16 27 17
f 17 27 41
f 17 41 42
f 17 42 18
f 18 42 43
f 18 43 19
f 19 43 44
f 19 44 20
f 20 44 29
f 20 29 21
f 23 45 24
f 23 46 45
f 24 45 47
f 24 47 25
f 25 47 26
f 26 47 48
f 26 48 49
f 26 49 27
f 27 49 50
f 27 50 41
f 29 51 41
f 29 41 70
f 29 70 52
f 29 52 30
f 29 44 43
f 29 43 51
f 30 52 53
f 30 53 81
f 30 81 80
f 30 80 79
f 30 79 101
f 30 101 105
f 30 105 130
f 30 130 165
f 30 165 190
f 30 190 211
f 30 211 231
f 30 231 237
f 30 237 220
f 30 220 196
f 30 196 174
f 30 174 150
f 30 150 140
f 30 140 111
f 30 111 110
f 30 110 82
f 30 82 54
f 30 54 31
f 31 54 55
f 31 55 32
f 32 55 56
f 33 57 58
f 33 58 59
f 33 59 34
f 34 59 60
f 34 60 35
f 35 60 61
f 35 61 36
f 36 61 62
f 36 62 63
f 36 63 37
f 37 64 38
f 37 63 64
f 38 64 65
f 38 65 66
f 38 66 39
f 39 66 67
f 39 67 68
f 39 68 69
f 39 69 40
f 41 50 70
f 41 51 42
f 42 51 43
f 45 71 72
f 45 72 47
f 45 46 73
f 45 73 71
f 46 74 75
f 46 75 76
f 46 76 73
f 47 72 77
f 47 77 49
f 47 49 48
f 49 77 50
f 50 77 78
f 50 78 70
f 52 70 79
f 52 79 80
f 52 80 81
f 52 81 53
f 54 82 59
f 54 59 83
f 54 83 84
f 54 84 55
f 55 84 56
f 56 84 85
f 57 86 87
f 57 87 58
f 58 87 59
f 59 82 60
f 59 87 88
f 59 88 83
f 60 82 89
f 60 89 61
f 61 89 90
f 61 90 62
f 62 90 91
f 62 91 63
f 63 91 64
f 64 91 65
f 65 92 66
f 65 91 93
f 65 93 92
f 66 92 67
f 67 92 94
f 67 94 95
f 67 95 96
f 67 96 97
f 67 97 68
f 68 97 98
f 68 98 99
f 68 99 100
f 68 100 69
f 70 78 101
f 70 101 79
f 71 102 103
f 71 103 72
f 71 73 104
f 71 104 105
f 71 105 102
f 72 103 77
f 73 76 106
f 73 106 107
f 73 107 104
f 74 108 75
f 75 108 109
f 75 109 76
f 76 109 106
f 77 103 102
f 77 102 78
f 78 102 101
f 82 110 90
f 82 90 89
f 83 88 86
f 83 86 84
f 84 86 85
f 86 88 87
f 90 110 91
f 91 110 111
f 91 111 112
f 91 112 93
f 92 93 113
f 92 113 114
f 92 114 94
f 93 112 113
f 94 115 95
f 94 114 115
f 95 115 96
f 96 116 97
f 96 115 117
f 96 117 118
f 96 118 119
f 96 119 116
f 97 120 121
f 97 121 122
f 97 122 98
f 97 116 120
f 98 122 99
f 99 122 123
f 99 123 124
f 101 102 105
f 104 125 126
f 104 126 127
f 104 127 105
f 104 107 128
f 104 128 125
f 105 127 129
f 105 129 130
f 106 109 107
f 107 131 132
f 107 132 133
f 107 133 134
f 107 134 135
f 107 135 136
f 107 136 128
f 107 109 137
f 107 137 131
f 108 124 138
f 108 138 139
f 108 139 137
f 108 137 109
f 111 140 141
f 111 141 142
f 111 142 112
f 112 142 113
f 113 142 141
f 113 141 143
f 113 143 144
f 113 144 114
f 114 145 115
f 114 144 145
f 115 145 144
f 115 144 117
f 116 119 146
f 116 146 147
f 116 147 148
f 116 148 120
f 117 144 149
f 117 149 118
f 118 149 140
f 118 140 150
f 118 150 119
f 119 150 146
f 120 151 121
f 120 148 152
f 120 152 151
f 121 151 153
f 121 153 154
f 121 154 122
f 122 154 155
f 122 155 123
f 123 155 124
f 124 156 157
f 124 157 138
f 124 155 156
f 125 158 159
f 125 159 126
f 125 128 160
f 125 160 158
f 126 159 127
f 127 159 129
f 128 136 161
f 128 161 160
f 129 159 158
f 129 158 162
f 129 162 130
f 130 162 158
f 130 158 163
f 130 163 164
f 130 164 165
f 131 139 166
f 131 166 167
f 131 167 132
f 131 137 139
f 132 167 138
f 132 138 133
f 133 138 168
f 133 168 134
f 134 168 169
f 134 169 157
f 134 157 170
f 134 170 135
f 135 171 136
f 135 170 172
f 135 172 171
f 136 171 173
f 136 173 161
f 138 157 169
f 138 169 168
f 138 167 166
f 138 166 139
f 140 149 144
f 140 144 143
f 140 143 141
f 146 150 147
f 147 150 174
f 147 174 148
f 148 174 152
f 151 175 153
f 151 152 175
f 152 176 175
f 152 174 177
f 152 177 176
f 153 175 178
f 153 178 154
f 154 178 179
f 154 179 180
f 154 180 181
f 154 181 155
f 155 181 182
f 155 182 156
f 156 183 184
f 156 184 170
f 156 170 157
f 156 182 185
f 156 185 183
f 158 160 186
f 158 186 163
f 160 161 186
f 161 173 187
f 161 187 186
f 163 188 164
f 163 186 187
f 163 187 188
f 164 188 187
f 164 187 189
f 164 189 165
f 165 189 190
f 170 184 172
f 171 172 191
f 171 191 192
f 171 192 193
f 171 193 173
f 172 184 194
f 172 194 191
f 173 193 195
f 173 195 187
f 174 196 197
f 174 197 177
f 175 198 178
f 175 176 196
f 175 196 198
f 176 177 196
f 177 197 196
f 178 199 179
f 178 198 200
f 178 200 199
f 179 199 201
f 179 201 202
f 179 202 203
f 179 203 204
f 179 204 180
f 180 205 206
f 180 206 181
f 180 204 203
f 180 203 205
f 181 206 207
f 181 207 208
f 181 208 182
f 182 209 185
f 182 208 209
f 183 194 184
f 183 185 194
f 185 209 194
f 187 195 210
f 187 210 189
f 189 210 190
f 190 210 211
f 191 194 212
f 191 212 213
f 191 213 192
f 192 213 214
f 192 214 215
f 192 215 216
f 192 216 195
f 192 195 193
f 194 209 217
f 194 217 212
f 195 216 218
f 195 218 219
f 195 219 210
f 196 220 221
f 196 221 198
f 198 221 200
f 199 200 222
f 199 222 223
f 199 223 201
f 200 221 220
f 200 220 222
f 201 223 224
f 201 224 202
f 202 225 226
f 202 226 203
f 202 224 225
f 203 226 227
f 203 227 205
f 205 227 228
f 205 228 229
f 205 229 206
f 206 229 207
f 207 229 208
f 208 229 230
f 208 230 217
f 208 217 209
f 210 219 211
f 211 219 218
f 211 218 231
f 212 217 229
f 212 229 228
f 212 228 213
f 213 228 232
f 213 232 233
f 213 233 234
f 213 234 214
f 214 234 235
f 214 235 215
f 215 235 216
f 216 235 231
f 216 231 236
f 216 236 218
f 217 230 229
f 218 236 231
f 220 237 238
f 220 238 223
f 220 223 222
f 223 238 224
f 224 239 240
f 224 240 226
f 224 226 225
f 224 238 239
f 226 241 227
f 226 240 241
f 227 241 228
f 228 241 242
f 228 242 232
f 231 235 243
f 231 243 244
f 231 244 237
f 232 242 245
f 232 245 233
f 233 245 246
f 233 246 234
f 234 246 237
f 234 237 247
f 234 247 235
f 235 247 243
f 237 244 247
f 237 246 248
f 237 248 249
f 237 249 239
f 237 239 238
f 239 249 250
f 239 250 240
f 240 250 248
f 240 248 251
f 240 251 241
f 241 251 242
f 242 251 252
f 242 252 253
f 242 253 245
f 243 247 244
f 245 253 246
f 246 253 248
f 248 250 249
f 248 253 252
f 248 252 251
