v 0.181213 0.0210401 0.0439798
v 0.181213 0.0246629 -0.00774046
v 0.301281 -0.11258 -0.00774046
v 0.301534 -0.11258 -0.00707212
v 0.308768 -0.11258 0.00662882
v 0.27139 -0.0320243 0.0439798
v 0.181213 0.406662 0.0439798
v 0.181213 0.431596 -0.00774046
v 0.33327 -0.11258 -0.00774046
v 0.313502 -0.11258 0.00672502
v 0.311343 -0.0980883 0.0165982
v 0.278297 -0.0346881 0.0439798
v 0.187108 0.384126 0.0439798
v 0.187063 0.384499 0.0438634
v 0.181213 0.413109 0.040066
v 0.181213 0.431596 0.0263904
v 0.190115 0.431596 -0.00774046
v 0.333076 -0.111727 -0.00774046
v 0.333181 -0.11258 -0.00749743
v 0.32224 -0.11258 0.00651237
v 0.314856 -0.0980883 0.0165982
v 0.296815 -0.0638842 0.0318282
v 0.285011 -0.0346881 0.0439798
v 0.189862 0.373311 0.0439798
v 0.204718 0.332234 0.0330333
v 0.190189 0.384499 0.0360155
v 0.185247 0.399896 0.0385167
v 0.181213 0.414547 0.0391749
v 0.181928 0.431596 0.024355
v 0.181213 0.415933 0.0381774
v 0.187525 0.404904 0.0289118
v 0.194476 0.415773 -0.00774046
v 0.186632 0.431596 0.00801613
v 0.189162 0.426748 0.00323143
v 0.32282 -0.0705971 -0.00774046
v 0.313844 -0.0472083 -9.00067e-05
v 0.330992 -0.11258 -0.00257602
v 0.327063 -0.11258 0.00189982
v 0.314856 -0.0890844 0.0165982
v 0.298705 -0.0638842 0.0318282
v 0.329385 -0.110342 -0.000262154
v 0.284653 -0.0266965 0.0439798
v 0.298705 -0.0589294 0.0318282
v 0.202782 0.321738 0.0439798
v 0.234861 0.217421 0.0300156
v 0.235665 0.236281 0.0162843
v 0.203393 0.342729 0.0295397
v 0.188894 0.394462 0.0328054
v 0.298125 0.0154992 -0.000150764
v 0.282376 0.0780469 -0.000327975
v 0.18221 0.431596 0.0235398
v 0.190576 0.399896 0.0236259
v 0.189236 0.411351 0.0184513
v 0.23431 0.246777 0.0123401
v 0.266523 0.140222 -0.000839355
v 0.219752 0.298243 0.0157527
v 0.211267 0.354663 -0.00774046
v 0.186557 0.431596 0.00833005
v 0.187837 0.421846 0.0136919
v 0.228817 0.290304 -0.00774046
v 0.22459 0.305915 -0.00774046
v 0.220779 0.319927 -0.00774046
v 0.218948 0.32664 -0.00774046
v 0.314931 -0.0392167 -0.00774046
v 0.312847 -0.0392167 -0.00257096
v 0.282808 0.0483714 0.0163349
v 0.236156 0.206925 0.0329168
v 0.313814 -0.0785888 0.0156413
v 0.297797 -0.048487 0.0310738
v 0.312877 -0.0705971 0.0136919
v 0.298363 -0.0149755 0.016021
v 0.283567 -0.0207295 0.0439798
v 0.205566 0.310443 0.0439798
v 0.311284 -0.0248318 -0.00774046
v 0.306997 -0.00794287 -0.00774046
v 0.298944 0.0235441 -0.00774046
v 0.290905 0.0548712 -0.00774046
v 0.290563 0.0562032 -0.00774046
v 0.281319 0.0863582 -0.00344183
v 0.236037 0.253436 0.00187957
v 0.203824 0.360151 0.0149375
v 0.285532 0.075756 -0.00774046
v 0.282793 0.0863582 -0.00774046
v 0.279711 0.0982391 -0.00774046
v 0.27465 0.117739 -0.00774046
v 0.274233 0.119337 -0.00774046
v 0.234653 0.263879 -0.00292538
v 0.21999 0.314812 0.000851745
v 0.233268 0.273788 -0.00774046
v 0.250461 0.154287 0.0299194
v 0.251726 0.143791 0.0326029
v 0.285517 -0.00783631 0.036461
v 0.29686 -0.0392167 0.0292561
v 0.267237 0.0803379 0.032213
v 0.282688 0.0165115 0.0317168
v 0.283686 0.00788054 0.0334383
v 0.280843 -0.00783631 0.0439798
v 0.233655 0.196163 0.0434837
v 0.236305 0.184176 0.0439798
v 0.220958 0.247363 0.0439798
v 0.237496 0.196163 0.0356357
v 0.269619 0.136919 -0.00774046
v 0.265793 0.151463 -0.00774046
v 0.263903 0.158602 -0.00774046
v 0.253572 0.197548 -0.00774046
v 0.241455 0.243154 -0.00774046
v 0.235293 0.266223 -0.00774046
v 0.280456 -0.00607815 0.0439798
v 0.269202 0.0439494 0.0439798
v 0.279042 0.00788054 0.0412862
v 0.249494 0.128554 0.0439798
v 0.251354 0.120616 0.0439798
v 0.266657 0.0549778 0.0439798
v 0.233893 0.194138 0.0439798
f 1 2 3
f 1 3 4
f 1 4 5
f 1 5 6
f 1 6 12
f 1 12 23
f 1 23 42
f 1 42 72
f 1 72 97
f 1 97 108
f 1 108 109
f 1 109 113
f 1 113 112
f 1 112 111
f 1 111 99
f 1 99 114
f 1 114 100
f 1 100 73
f 1 73 44
f 1 44 24
f 1 24 13
f 1 13 7
f 1 7 15
f 1 15 28
f 1 28 30
f 1 30 16
f 1 16 8
f 1 8 2
f 2 8 17
f 2 17 32
f 2 32 57
f 2 57 63
f 2 63 62
f 2 62 61
f 2 61 60
f 2 60 89
f 2 89 107
f 2 107 106
f 2 106 105
f 2 105 104
f 2 104 103
f 2 103 102
f 2 102 86
f 2 86 85
f 2 85 84
f 2 84 83
f 2 83 82
f 2 82 78
f 2 78 77
f 2 77 76
f 2 76 75
f 2 75 74
f 2 74 64
f 2 64 35
f 2 35 18
f 2 18 9
f 2 9 3
f 3 9 19
f 3 19 37
f 3 37 38
f 3 38 20
f 3 20 10
f 3 10 5
f 3 5 4
f 5 10 11
f 5 11 6
f 6 11 12
f 7 13 14
f 7 14 15
f 8 16 29
f 8 29 51
f 8 51 58
f 8 58 33
f 8 33 17
f 9 18 19
f 10 20 21
f 10 21 11
f 11 21 40
f 11 40 22
f 11 22 12
f 12 22 40
f 12 40 23
f 13 24 14
f 14 24 25
f 14 25 26
f 14 26 27
f 14 27 28
f 14 28 15
f 16 30 31
f 16 31 29
f 17 33 34
f 17 34 32
f 18 35 36
f 18 36 19
f 19 36 37
f 20 38 21
f 21 39 43
f 21 43 40
f 21 38 41
f 21 41 39
f 23 40 43
f 23 43 42
f 24 44 45
f 24 45 25
f 25 46 47
f 25 47 48
f 25 48 26
f 25 45 49
f 25 49 50
f 25 50 46
f 26 48 27
f 27 48 28
f 28 48 30
f 29 31 51
f 30 48 31
f 31 52 53
f 31 53 51
f 31 48 54
f 31 54 55
f 31 55 56
f 31 56 52
f 32 34 57
f 33 58 34
f 34 58 59
f 34 59 60
f 34 60 61
f 34 61 62
f 34 62 63
f 34 63 57
f 35 64 49
f 35 49 65
f 35 65 36
f 36 66 41
f 36 41 37
f 36 65 49
f 36 49 45
f 36 45 67
f 36 67 66
f 37 41 38
f 39 41 68
f 39 68 69
f 39 69 42
f 39 42 43
f 41 70 68
f 41 66 71
f 41 71 70
f 42 69 72
f 44 73 67
f 44 67 45
f 46 55 54
f 46 54 48
f 46 48 47
f 46 50 55
f 49 64 50
f 50 64 74
f 50 74 75
f 50 75 76
f 50 76 77
f 50 77 78
f 50 78 79
f 50 79 55
f 51 59 58
f 51 53 59
f 52 56 80
f 52 80 81
f 52 81 53
f 53 81 80
f 53 80 59
f 55 80 56
f 55 79 82
f 55 82 83
f 55 83 84
f 55 84 85
f 55 85 86
f 55 86 80
f 59 80 87
f 59 87 88
f 59 88 89
f 59 89 60
f 66 67 90
f 66 90 91
f 66 91 71
f 67 73 90
f 68 92 93
f 68 93 69
f 68 70 71
f 68 71 94
f 68 94 95
f 68 95 96
f 68 96 92
f 69 93 92
f 69 92 97
f 69 97 72
f 71 91 98
f 71 98 99
f 71 99 94
f 73 100 101
f 73 101 90
f 78 82 79
f 80 86 102
f 80 102 103
f 80 103 87
f 87 103 104
f 87 104 105
f 87 105 106
f 87 106 107
f 87 107 89
f 87 89 88
f 90 101 91
f 91 101 100
f 91 100 98
f 92 108 97
f 92 96 109
f 92 109 110
f 92 110 108
f 94 99 95
f 95 99 111
f 95 111 112
f 95 112 113
f 95 113 96
f 96 113 109
f 98 114 99
f 98 100 114
f 108 110 109
