v -0.405945 -0.117472 -0.104194
v -0.394174 -0.117472 -0.120046
v 0.0674843 -0.117472 -0.102879
v -0.393479 -0.0391568 -0.102879
v -0.393294 -0.0565722 -0.108139
v -0.383284 -0.117472 -0.132397
v -0.313076 0.222504 -0.155909
v -0.314327 0.20697 -0.157526
v 0.0674843 -0.117472 -0.230744
v 0.0674843 0.431596 -0.102879
v -0.384118 0.0128743 -0.102879
v -0.312937 0.277491 -0.143167
v -0.31011 0.258893 -0.151661
v -0.371837 -0.117472 -0.144002
v -0.351447 0.00792916 -0.147983
v -0.345191 -0.00798118 -0.156922
v -0.299683 0.290284 -0.158788
v -0.30098 0.274588 -0.160494
v -0.298941 0.258893 -0.165967
v -0.297319 0.237715 -0.17169
v 0.0556671 -0.117472 -0.259072
v 0.0674843 0.0565739 -0.260707
v 0.0674843 0.431112 -0.191416
v 0.0548793 0.431596 -0.19593
v -0.220021 0.431596 -0.105491
v -0.306263 0.381661 -0.102879
v -0.376332 0.0549614 -0.102879
v -0.346257 0.193478 -0.111675
v -0.310759 0.322803 -0.132717
v -0.307654 0.33737 -0.133428
v -0.300749 0.33737 -0.144446
v -0.302185 0.321674 -0.146827
v -0.306588 0.290284 -0.149102
v -0.366832 -0.101938 -0.147005
v -0.358491 -0.101938 -0.154825
v -0.355432 -0.117472 -0.158948
v -0.298802 0.216806 -0.17336
v -0.300285 0.196166 -0.174764
v -0.312242 0.133438 -0.171086
v -0.280683 0.22417 -0.189568
v -0.2849 0.18047 -0.190563
v -0.298571 0.0821595 -0.188679
v -0.29908 0.307538 -0.155109
v -0.287773 0.258893 -0.177714
v -0.289071 0.243198 -0.17926
v 0.0493646 -0.117472 -0.273414
v 0.0409304 -0.117472 -0.281784
v 0.027862 -0.106776 -0.282886
v 0.0235058 -0.117472 -0.284432
v 0.0548793 0.0863521 -0.257028
v 0.0674843 0.0895234 -0.256317
v 0.0674843 0.403269 -0.198009
v 0.0671136 0.379833 -0.203625
v 0.0548793 0.415846 -0.199484
v 0.0450085 0.411654 -0.203465
v 0.0303181 0.429714 -0.203501
v 0.0077959 0.431596 -0.207997
v -0.210567 0.431596 -0.116474
v -0.270812 0.393593 -0.144251
v -0.281053 0.391443 -0.133428
v -0.290322 0.389078 -0.117718
v -0.30149 0.380747 -0.123049
v -0.314049 0.370427 -0.103909
v -0.318081 0.353065 -0.102879
v -0.337359 0.258893 -0.102879
v -0.358491 0.149133 -0.103483
v -0.347091 0.205948 -0.104638
v -0.313307 0.33307 -0.124329
v -0.309971 0.367255 -0.116189
v -0.301305 0.352151 -0.138759
v -0.299451 0.366718 -0.135809
v -0.288144 0.36876 -0.14537
v -0.337405 -0.117472 -0.172383
v -0.330917 -0.0548522 -0.173805
v -0.331844 -0.0705475 -0.174338
v -0.277022 0.243198 -0.190368
v -0.260663 0.227556 -0.204656
v -0.298895 0.0706567 -0.188857
v -0.332447 -0.0862428 -0.174586
v -0.287541 0.321674 -0.160476
v -0.274751 0.258893 -0.188413
v 0.00770321 -0.117472 -0.282513
v 0.0134496 -0.106829 -0.282886
v -0.0439217 0.0192169 -0.267247
v -0.117744 0.196166 -0.245157
v -0.00791402 -0.0391568 -0.27464
v 0.0391694 0.149133 -0.24896
v 0.0548793 0.102047 -0.254931
v 0.0189643 0.252336 -0.235578
v 0.0548793 0.136018 -0.250364
v 0.0674843 0.105219 -0.254114
v 0.0674843 0.340487 -0.212067
v 0.0674843 0.324846 -0.215372
v 0.0672526 0.300658 -0.220508
v 0.0615989 0.312698 -0.219459
v 0.0235058 0.415846 -0.207837
v -0.00791402 0.431596 -0.210378
v 0.0235058 0.400151 -0.21084
v 0.0309205 0.344895 -0.219655
v -0.19495 0.431596 -0.132397
v -0.208111 0.408966 -0.174764
v -0.254407 0.3944 -0.159054
v -0.285039 0.380801 -0.143184
v -0.327673 0.30657 -0.102879
v -0.331195 0.28937 -0.102879
v -0.312798 0.355054 -0.115301
v -0.264695 0.381929 -0.157508
v -0.277161 0.36876 -0.153225
v -0.321695 -0.0862428 -0.179758
v -0.321788 -0.117472 -0.179705
v -0.258809 0.243198 -0.203696
v -0.243238 0.243198 -0.211391
v -0.243238 0.227556 -0.2118
v -0.260987 0.211861 -0.204816
v -0.264926 0.196166 -0.203216
v -0.29908 0.0549614 -0.188946
v -0.269005 0.318933 -0.174231
v -0.265761 0.274266 -0.190119
v -0.00805304 -0.117472 -0.278319
v -0.00791402 -0.101938 -0.278514
v -0.0492047 0.00792916 -0.267389
v -0.160796 0.258893 -0.236342
v -0.161723 0.271955 -0.235134
v -0.149118 0.258893 -0.237213
v -0.133454 0.227556 -0.241194
v -0.149118 0.273943 -0.235312
v -0.0392875 0.415846 -0.214839
v -0.0256166 0.380371 -0.219335
v 0.0293912 0.250293 -0.235294
v 0.0548793 0.149133 -0.248498
v -0.0235776 0.400151 -0.216545
v -0.00791402 0.353065 -0.222498
v -0.0235776 0.415846 -0.214288
v 0.0674843 0.12172 -0.251679
v 0.0674843 0.262064 -0.227883
v 0.0465378 0.328985 -0.219602
v -0.00791402 0.415846 -0.212937
v -0.0235776 0.431596 -0.211871
v 0.0565013 0.229921 -0.235649
v 0.00876908 0.361665 -0.219833
v 0.0404206 0.338767 -0.21898
v 0.0548793 0.290284 -0.225164
v 0.0671599 0.220031 -0.235738
v -0.186979 0.431596 -0.140252
v -0.189806 0.408805 -0.189017
v -0.122518 0.42493 -0.205136
v -0.233507 0.386875 -0.175066
v -0.248521 0.371717 -0.171139
v -0.252229 0.357204 -0.173396
v -0.265761 0.333392 -0.17201
v -0.290322 0.0549614 -0.192767
v -0.307422 -0.0391568 -0.185694
v -0.307422 -0.117472 -0.185694
v -0.24917 0.260721 -0.205011
v -0.219882 0.273513 -0.217753
v -0.227528 0.243198 -0.217149
v -0.196155 0.274588 -0.226515
v -0.243238 0.196166 -0.21164
v -0.264185 -0.0391568 -0.203234
v -0.257095 0.117743 -0.206415
v -0.257095 0.133438 -0.206451
v -0.257095 0.18047 -0.206486
v -0.264926 0.18047 -0.203234
v -0.250607 0.312967 -0.188093
v -0.0259874 -0.117472 -0.273023
v -0.0235776 -0.0705475 -0.274231
v -0.161213 0.227556 -0.236662
v -0.165384 0.243198 -0.23556
v -0.180399 0.274588 -0.231437
v -0.180399 0.290284 -0.230229
v -0.164828 0.290284 -0.233126
v -0.149118 0.290284 -0.233126
v -0.0549511 0.415846 -0.214821
v -0.0392875 0.431596 -0.21212
v -0.149118 0.305979 -0.230993
v -0.149118 0.321674 -0.228789
v -0.117744 0.374243 -0.221112
v 0.0674843 0.152251 -0.246952
v 0.0674843 0.246369 -0.230833
v 0.0674843 0.183588 -0.241869
v 0.0674843 0.166334 -0.244713
v 0.0548793 0.211861 -0.238813
v -0.133454 0.431596 -0.179189
v -0.148237 0.40687 -0.205029
v -0.180399 0.400151 -0.195983
v -0.19546 0.398646 -0.190172
v -0.132945 0.415739 -0.206309
v -0.102034 0.427672 -0.207499
v -0.102034 0.415846 -0.213275
v -0.117744 0.415846 -0.210254
v -0.11844 0.431596 -0.188875
v -0.102034 0.431596 -0.197298
v -0.209919 0.386445 -0.187417
v -0.219558 0.368653 -0.188324
v -0.222014 0.310763 -0.205313
v -0.234665 0.343927 -0.187951
v -0.234063 0.289263 -0.205331
v -0.243563 0.274588 -0.204229
v -0.294956 -0.101938 -0.190847
v -0.290368 -0.117472 -0.192713
v -0.211865 0.305979 -0.212084
v -0.20167 0.292004 -0.221343
v -0.243238 0.164775 -0.211462
v -0.196155 0.258893 -0.226621
v -0.227528 0.227556 -0.216989
v -0.243238 0.102047 -0.211
v -0.263397 -0.0862428 -0.203021
v -0.274612 -0.117472 -0.198827
v -0.274612 -0.0548522 -0.199147
v -0.264324 -0.0234615 -0.203234
v -0.274612 -0.0234615 -0.199218
v -0.15505 -0.117472 -0.234796
v -0.157274 0.00792916 -0.235489
v -0.160101 0.164775 -0.236325
v -0.180399 0.305979 -0.226497
v -0.164828 0.321674 -0.226799
v -0.164828 0.305979 -0.230407
v -0.070661 0.415846 -0.214786
v -0.0549511 0.431596 -0.210947
v -0.0863709 0.415846 -0.214608
v -0.149118 0.33737 -0.225946
v -0.133454 0.353065 -0.224151
v -0.134242 0.377737 -0.218802
v -0.102034 0.400151 -0.217007
v -0.162557 0.398001 -0.203358
v -0.133454 0.400151 -0.211711
v -0.150925 0.362633 -0.219033
v -0.174004 0.386015 -0.203145
v -0.182855 0.370588 -0.204656
v -0.19115 0.357795 -0.205296
v -0.202179 0.348926 -0.203181
v -0.0838221 0.431058 -0.206504
v -0.117744 0.400151 -0.215319
v -0.19064 0.310441 -0.220775
v -0.243238 -0.117472 -0.208654
v -0.258995 -0.117472 -0.203963
v -0.182577 0.323072 -0.220153
v -0.17734 0.334682 -0.218553
v -0.167608 0.339896 -0.220615
v -0.159869 0.348389 -0.220757
f 1 2 6
f 1 6 14
f 1 14 36
f 1 36 73
f 1 73 110
f 1 110 153
f 1 153 200
f 1 200 208
f 1 208 236
f 1 236 235
f 1 235 212
f 1 212 165
f 1 165 119
f 1 119 82
f 1 82 49
f 1 49 47
f 1 47 46
f 1 46 21
f 1 21 9
f 1 9 3
f 1 3 4
f 1 4 5
f 1 5 2
f 2 5 7
f 2 7 8
f 2 8 6
f 3 9 22
f 3 22 51
f 3 51 91
f 3 91 134
f 3 134 178
f 3 178 181
f 3 181 180
f 3 180 179
f 3 179 135
f 3 135 93
f 3 93 92
f 3 92 52
f 3 52 23
f 3 23 10
f 3 10 26
f 3 26 64
f 3 64 104
f 3 104 105
f 3 105 65
f 3 65 27
f 3 27 11
f 3 11 4
f 4 11 12
f 4 12 5
f 5 12 13
f 5 13 7
f 6 8 15
f 6 15 16
f 6 16 14
f 7 13 17
f 7 17 18
f 7 18 8
f 8 18 19
f 8 19 20
f 8 20 15
f 9 21 22
f 10 23 24
f 10 24 57
f 10 57 97
f 10 97 138
f 10 138 174
f 10 174 219
f 10 219 192
f 10 192 191
f 10 191 183
f 10 183 144
f 10 144 100
f 10 100 58
f 10 58 25
f 10 25 26
f 11 27 28
f 11 28 29
f 11 29 12
f 12 29 30
f 12 30 31
f 12 31 32
f 12 32 33
f 12 33 13
f 13 33 17
f 14 16 34
f 14 34 35
f 14 35 36
f 15 20 37
f 15 37 16
f 16 37 38
f 16 38 39
f 16 39 40
f 16 40 41
f 16 41 42
f 16 42 35
f 16 35 34
f 17 33 43
f 17 43 44
f 17 44 19
f 17 19 18
f 19 44 20
f 20 44 45
f 20 45 37
f 21 46 22
f 22 46 47
f 22 47 48
f 22 48 49
f 22 49 50
f 22 50 51
f 23 52 24
f 24 52 53
f 24 53 54
f 24 54 55
f 24 55 56
f 24 56 57
f 25 58 59
f 25 59 60
f 25 60 61
f 25 61 26
f 26 61 62
f 26 62 63
f 26 63 64
f 27 65 66
f 27 66 28
f 28 66 67
f 28 67 68
f 28 68 30
f 28 30 29
f 30 68 69
f 30 69 70
f 30 70 31
f 31 43 32
f 31 70 71
f 31 71 72
f 31 72 43
f 32 43 33
f 35 42 36
f 36 42 74
f 36 74 75
f 36 75 73
f 37 45 38
f 38 45 40
f 38 40 39
f 40 45 76
f 40 76 77
f 40 77 41
f 41 77 42
f 42 78 79
f 42 79 75
f 42 75 74
f 42 77 78
f 43 72 80
f 43 80 81
f 43 81 44
f 44 81 76
f 44 76 45
f 47 49 48
f 49 82 83
f 49 83 84
f 49 84 85
f 49 85 86
f 49 86 50
f 50 87 88
f 50 88 51
f 50 86 87
f 51 88 89
f 51 89 90
f 51 90 91
f 52 92 53
f 53 55 54
f 53 92 55
f 55 92 93
f 55 93 94
f 55 94 56
f 56 94 95
f 56 95 96
f 56 96 57
f 57 96 98
f 57 98 99
f 57 99 97
f 58 100 101
f 58 101 59
f 59 102 103
f 59 103 62
f 59 62 60
f 59 101 102
f 60 62 61
f 62 103 71
f 62 71 69
f 62 69 63
f 63 69 64
f 64 69 104
f 65 67 66
f 65 105 69
f 65 69 106
f 65 106 68
f 65 68 67
f 68 106 69
f 69 71 70
f 69 105 104
f 71 103 72
f 72 103 107
f 72 107 108
f 72 108 80
f 73 75 79
f 73 79 109
f 73 109 110
f 76 81 111
f 76 111 77
f 77 111 112
f 77 112 113
f 77 113 114
f 77 114 115
f 77 115 78
f 78 116 109
f 78 109 79
f 78 115 116
f 80 117 118
f 80 118 81
f 80 108 117
f 81 118 111
f 82 119 120
f 82 120 121
f 82 121 83
f 83 121 84
f 84 121 122
f 84 122 123
f 84 123 124
f 84 124 125
f 84 125 85
f 85 125 126
f 85 126 127
f 85 127 128
f 85 128 86
f 86 128 87
f 87 89 88
f 87 128 89
f 89 129 130
f 89 130 90
f 89 128 131
f 89 131 132
f 89 132 133
f 89 133 129
f 90 130 91
f 91 130 134
f 93 135 94
f 94 135 95
f 95 136 96
f 95 135 136
f 96 136 98
f 97 137 138
f 97 99 139
f 97 139 140
f 97 140 137
f 98 136 141
f 98 141 99
f 99 141 142
f 99 142 143
f 99 143 139
f 100 144 101
f 101 145 102
f 101 144 146
f 101 146 145
f 102 145 147
f 102 147 107
f 102 107 103
f 107 147 148
f 107 148 149
f 107 149 150
f 107 150 108
f 108 150 117
f 109 116 115
f 109 115 151
f 109 151 152
f 109 152 153
f 109 153 110
f 111 118 154
f 111 154 155
f 111 155 112
f 112 156 113
f 112 155 157
f 112 157 156
f 113 156 158
f 113 158 159
f 113 159 160
f 113 160 161
f 113 161 162
f 113 162 114
f 114 162 115
f 115 162 163
f 115 163 151
f 117 150 118
f 118 150 164
f 118 164 154
f 119 165 166
f 119 166 120
f 120 166 121
f 121 166 167
f 121 167 168
f 121 168 169
f 121 169 122
f 122 169 170
f 122 170 171
f 122 171 123
f 123 171 124
f 124 171 126
f 124 126 125
f 126 171 172
f 126 172 127
f 127 173 174
f 127 174 138
f 127 138 133
f 127 133 131
f 127 131 128
f 127 172 175
f 127 175 176
f 127 176 177
f 127 177 173
f 129 178 134
f 129 134 130
f 129 133 138
f 129 138 137
f 129 137 140
f 129 140 178
f 131 133 132
f 135 179 136
f 136 142 141
f 136 179 142
f 139 143 180
f 139 180 181
f 139 181 182
f 139 182 140
f 140 182 178
f 142 179 143
f 143 179 180
f 144 183 146
f 145 184 185
f 145 185 186
f 145 186 147
f 145 146 187
f 145 187 184
f 146 188 189
f 146 189 190
f 146 190 187
f 146 183 191
f 146 191 192
f 146 192 188
f 147 193 194
f 147 194 195
f 147 195 196
f 147 196 148
f 147 186 193
f 148 196 197
f 148 197 198
f 148 198 164
f 148 164 149
f 149 164 150
f 151 199 153
f 151 153 152
f 151 163 162
f 151 162 199
f 153 199 200
f 154 164 198
f 154 198 155
f 155 198 197
f 155 197 195
f 155 195 201
f 155 201 202
f 155 202 170
f 155 170 157
f 156 203 158
f 156 157 169
f 156 169 204
f 156 204 205
f 156 205 206
f 156 206 159
f 156 159 203
f 157 170 169
f 158 203 159
f 159 207 208
f 159 208 209
f 159 209 210
f 159 210 160
f 159 206 207
f 160 210 209
f 160 209 211
f 160 211 161
f 161 211 162
f 162 211 199
f 165 212 213
f 165 213 214
f 165 214 167
f 165 167 166
f 167 214 207
f 167 207 206
f 167 206 205
f 167 205 204
f 167 204 169
f 167 169 168
f 170 202 215
f 170 215 216
f 170 216 217
f 170 217 171
f 171 217 176
f 171 176 175
f 171 175 172
f 173 218 174
f 173 177 218
f 174 218 220
f 174 220 219
f 176 217 221
f 176 221 222
f 176 222 177
f 177 223 224
f 177 224 220
f 177 220 218
f 177 222 223
f 178 182 181
f 184 225 185
f 184 187 226
f 184 226 227
f 184 227 225
f 185 225 228
f 185 228 229
f 185 229 186
f 186 229 230
f 186 230 231
f 186 231 193
f 187 190 226
f 188 192 232
f 188 232 219
f 188 219 189
f 189 219 220
f 189 220 224
f 189 224 233
f 189 233 190
f 190 233 223
f 190 223 226
f 192 219 232
f 193 231 201
f 193 201 194
f 194 201 195
f 195 197 196
f 199 211 200
f 200 211 209
f 200 209 208
f 201 231 202
f 202 231 234
f 202 234 215
f 207 213 212
f 207 212 235
f 207 235 236
f 207 236 208
f 207 214 213
f 215 234 237
f 215 237 238
f 215 238 239
f 215 239 240
f 215 240 216
f 216 240 227
f 216 227 223
f 216 223 221
f 216 221 217
f 221 223 222
f 223 233 224
f 223 227 226
f 225 227 240
f 225 240 228
f 228 240 239
f 228 239 238
f 228 238 229
f 229 238 237
f 229 237 230
f 230 237 234
f 230 234 231
