v -0.19643 -0.114647 0.366711
v -0.19643 -0.114647 0.532346
v -0.19643 -0.0860697 0.366711
v 0.39576 -0.114647 0.366711
v -0.19643 -0.0860697 0.532346
v 0.485777 -0.114647 0.532346
v 0.444442 -0.0860697 0.366711
v 0.459467 -0.114647 0.431441
v 0.485777 -0.0860697 0.532346
v 0.485777 -0.114647 0.475967
v 0.485777 -0.0860697 0.519764
v 0.485777 -0.0889285 0.51524
v 0.484976 -0.114647 0.473811
v 0.465677 -0.114647 0.438657
v 0.460068 -0.114647 0.432138
f 1 2 5
f 1 5 3
f 1 3 7
f 1 7 4
f 1 4 8
f 1 8 15
f 1 15 14
f 1 14 13
f 1 13 10
f 1 10 6
f 1 6 2
f 2 6 9
f 2 9 5
f 3 5 9
f 3 9 11
f 3 11 7
f 4 7 8
f 6 10 12
f 6 12 11
f 6 11 9
f 7 11 12
f 7 12 10
f 7 10 13
f 7 13 14
f 7 14 15
f 7 15 8
