v -0.360532 0.333096 -0.680443
v -0.363707 0.336282 -0.679554
v -0.34679 0.333096 -0.68043
v -0.374231 0.333096 -0.680377
v -0.37745 0.336282 -0.679541
v -0.349964 0.336282 -0.679527
v -0.509266 0.357385 -0.672746
v -0.504656 0.357385 -0.672746
v -0.336265 0.333096 -0.68039
v -0.387974 0.333096 -0.680098
v -0.391149 0.349608 -0.675095
v -0.336265 0.336282 -0.679474
v -0.510962 0.35 -0.673024
v -0.517833 0.35 -0.671711
v -0.51418 0.362667 -0.669189
v -0.500959 0.374831 -0.662567
v -0.500437 0.362667 -0.669985
v -0.401717 0.333096 -0.679541
v -0.404891 0.35671 -0.67248
v -0.333091 0.333096 -0.680364
v -0.322523 0.336282 -0.679289
v -0.510527 0.340057 -0.672971
v -0.52253 0.333096 -0.665194
v -0.525096 0.336282 -0.663801
v -0.526357 0.35 -0.664849
v -0.525835 0.363726 -0.663018
v -0.514919 0.333096 -0.670596
v -0.514702 0.373842 -0.661996
v -0.523661 0.372092 -0.660496
v -0.500959 0.38169 -0.653927
v -0.432333 0.380545 -0.654046
v -0.432333 0.373686 -0.661465
v -0.391149 0.356467 -0.672348
v -0.415416 0.333096 -0.678652
v -0.319348 0.333096 -0.680178
v -0.0885069 0.333096 -0.674882
v -0.51131 0.333096 -0.67102
v -0.418591 0.333096 -0.678426
v -0.524704 0.333096 -0.663376
v -0.531402 0.363726 -0.651949
v -0.514006 0.380733 -0.651166
v -0.52627 0.374274 -0.651949
v -0.508961 0.384673 -0.64607
v -0.500959 0.385112 -0.647065
v -0.487217 0.3853 -0.647291
v -0.432333 0.385685 -0.647185
v -0.418591 0.373058 -0.661054
v -0.102945 0.354262 -0.655161
v -0.102945 0.347403 -0.662819
v -0.0885069 0.339798 -0.669348
v -0.0885069 0.339445 -0.66968
v -0.0885069 0.333096 -0.544875
v -0.524487 0.333096 -0.651246
v -0.532793 0.363726 -0.638227
v -0.527792 0.376173 -0.638227
v -0.518007 0.383032 -0.638227
v -0.511136 0.385316 -0.638227
v -0.510135 0.398705 -0.552984
v -0.432333 0.404057 -0.583336
v -0.432333 0.401781 -0.597072
v -0.432333 0.39927 -0.609666
v -0.432333 0.397802 -0.616514
v -0.432333 0.39544 -0.624504
v -0.432333 0.39019 -0.638227
v -0.418591 0.389193 -0.638227
v -0.418591 0.385128 -0.646309
v -0.102945 0.358924 -0.6483
v -0.0932038 0.357935 -0.647092
v -0.0885069 0.34639 -0.662487
v -0.0885069 0.3461 -0.662845
v -0.493653 0.333096 -0.544875
v -0.0885069 0.394443 -0.544875
v -0.522312 0.383009 -0.544875
v -0.530575 0.363726 -0.624504
v -0.523356 0.38833 -0.55589
v -0.524139 0.38829 -0.569613
v -0.522312 0.386729 -0.544875
v -0.524139 0.387247 -0.583336
v -0.52353 0.386156 -0.597072
v -0.52253 0.385159 -0.607848
v -0.514702 0.394522 -0.569613
v -0.511701 0.399474 -0.544875
v -0.409936 0.411575 -0.547516
v -0.418591 0.407769 -0.569613
v -0.418591 0.40536 -0.583336
v -0.418591 0.402527 -0.597072
v -0.418591 0.399552 -0.609388
v -0.418591 0.397582 -0.616236
v -0.418591 0.394781 -0.624504
v -0.130431 0.383856 -0.602739
v -0.130431 0.380403 -0.610794
v -0.11347 0.370334 -0.630755
v -0.122646 0.370656 -0.631471
v -0.105424 0.372234 -0.621597
v -0.0885069 0.360046 -0.638731
v -0.0885069 0.357071 -0.645367
v -0.0885069 0.353595 -0.65179
v -0.0885069 0.35343 -0.652042
v -0.116166 0.400463 -0.544875
v -0.0885069 0.386015 -0.569931
v -0.109338 0.384492 -0.590781
v -0.116688 0.38862 -0.583336
v -0.116688 0.393007 -0.569613
v -0.119341 0.399003 -0.552333
v -0.518355 0.392348 -0.544875
v -0.512701 0.398987 -0.544875
v -0.410936 0.41174 -0.544875
v -0.40737 0.412148 -0.544875
v -0.403935 0.41247 -0.544875
v -0.400803 0.412038 -0.550542
v -0.404891 0.408428 -0.569613
v -0.404891 0.405532 -0.583336
v -0.404891 0.402228 -0.597072
v -0.14413 0.403767 -0.544875
v -0.136171 0.398155 -0.56315
v -0.130431 0.3911 -0.583336
v -0.130431 0.386587 -0.595877
v -0.116688 0.379046 -0.610794
v -0.116688 0.383025 -0.600058
v -0.0885069 0.372257 -0.608379
v -0.0885069 0.369542 -0.615227
v -0.0885069 0.365845 -0.624504
v -0.127473 0.402417 -0.544875
v -0.0885069 0.381706 -0.582154
v -0.116688 0.385363 -0.593196
v -0.126995 0.397661 -0.561491
v -0.391149 0.413239 -0.544875
v -0.391149 0.412211 -0.551166
v -0.391149 0.410751 -0.558027
v -0.37745 0.412085 -0.550382
v -0.391149 0.408201 -0.569613
v -0.391149 0.405038 -0.583336
v -0.141651 0.403633 -0.544875
v -0.364664 0.412815 -0.544875
v -0.130561 0.40288 -0.544875
v -0.131126 0.399568 -0.556501
v -0.131126 0.395927 -0.568472
v -0.37745 0.41327 -0.544875
f 1 2 3
f 1 3 9
f 1 9 20
f 1 20 35
f 1 35 36
f 1 36 52
f 1 52 71
f 1 71 53
f 1 53 39
f 1 39 23
f 1 23 27
f 1 27 37
f 1 37 38
f 1 38 34
f 1 34 18
f 1 18 10
f 1 10 4
f 1 4 5
f 1 5 2
f 2 6 3
f 2 5 7
f 2 7 8
f 2 8 6
f 3 6 9
f 4 10 7
f 4 7 5
f 6 8 11
f 6 11 12
f 6 12 9
f 7 13 14
f 7 14 15
f 7 15 16
f 7 16 17
f 7 17 8
f 7 10 18
f 7 18 13
f 8 17 19
f 8 19 11
f 9 12 20
f 11 19 21
f 11 21 12
f 12 21 35
f 12 35 20
f 13 22 14
f 13 18 22
f 14 23 24
f 14 24 25
f 14 25 26
f 14 26 15
f 14 22 27
f 14 27 23
f 15 28 16
f 15 26 29
f 15 29 28
f 16 28 30
f 16 30 31
f 16 31 32
f 16 32 33
f 16 33 19
f 16 19 17
f 18 34 22
f 19 33 21
f 21 36 35
f 21 33 36
f 22 37 27
f 22 34 38
f 22 38 37
f 23 39 24
f 24 39 40
f 24 40 25
f 25 40 26
f 26 40 29
f 28 41 30
f 28 29 41
f 29 40 42
f 29 42 41
f 30 41 43
f 30 43 44
f 30 44 45
f 30 45 46
f 30 46 31
f 31 47 32
f 31 46 48
f 31 48 49
f 31 49 47
f 32 47 50
f 32 50 51
f 32 51 36
f 32 36 33
f 36 51 50
f 36 50 70
f 36 70 69
f 36 69 98
f 36 98 97
f 36 97 96
f 36 96 95
f 36 95 122
f 36 122 121
f 36 121 120
f 36 120 124
f 36 124 100
f 36 100 72
f 36 72 52
f 39 53 54
f 39 54 40
f 40 54 55
f 40 55 42
f 41 42 56
f 41 56 43
f 42 55 56
f 43 56 57
f 43 57 58
f 43 58 59
f 43 59 60
f 43 60 61
f 43 61 62
f 43 62 44
f 44 62 63
f 44 63 64
f 44 64 45
f 45 64 46
f 46 64 65
f 46 65 66
f 46 66 67
f 46 67 48
f 47 49 50
f 48 67 68
f 48 68 69
f 48 69 70
f 48 70 49
f 49 70 50
f 52 72 99
f 52 99 123
f 52 123 135
f 52 135 133
f 52 133 114
f 52 114 134
f 52 134 138
f 52 138 127
f 52 127 109
f 52 109 108
f 52 108 107
f 52 107 82
f 52 82 106
f 52 106 105
f 52 105 77
f 52 77 73
f 52 73 71
f 53 73 74
f 53 74 54
f 53 71 73
f 54 75 76
f 54 76 55
f 54 74 73
f 54 73 77
f 54 77 75
f 55 76 78
f 55 78 79
f 55 79 80
f 55 80 56
f 56 80 81
f 56 81 82
f 56 82 57
f 57 82 58
f 58 82 83
f 58 83 84
f 58 84 59
f 59 84 60
f 60 84 85
f 60 85 61
f 61 85 86
f 61 86 62
f 62 86 87
f 62 87 88
f 62 88 63
f 63 88 89
f 63 89 64
f 64 89 90
f 64 90 91
f 64 91 65
f 65 91 92
f 65 92 93
f 65 93 66
f 66 93 67
f 67 93 92
f 67 92 68
f 68 92 94
f 68 94 95
f 68 95 96
f 68 96 97
f 68 97 98
f 68 98 69
f 72 100 101
f 72 101 102
f 72 102 103
f 72 103 104
f 72 104 99
f 75 77 105
f 75 105 106
f 75 106 76
f 76 106 78
f 78 106 79
f 79 106 81
f 79 81 80
f 81 106 82
f 82 107 83
f 83 107 108
f 83 108 109
f 83 109 110
f 83 110 84
f 84 110 85
f 85 110 111
f 85 111 86
f 86 111 112
f 86 112 113
f 86 113 87
f 87 113 114
f 87 114 115
f 87 115 88
f 88 115 116
f 88 116 89
f 89 116 117
f 89 117 90
f 90 117 118
f 90 118 92
f 90 92 91
f 92 118 94
f 94 118 119
f 94 119 101
f 94 101 120
f 94 120 121
f 94 121 122
f 94 122 95
f 99 104 123
f 100 124 101
f 101 119 125
f 101 125 102
f 101 124 120
f 102 125 116
f 102 116 126
f 102 126 103
f 103 126 104
f 104 126 123
f 109 127 110
f 110 127 128
f 110 128 111
f 111 128 112
f 112 128 129
f 112 129 130
f 112 130 131
f 112 131 132
f 112 132 113
f 113 132 114
f 114 133 115
f 114 132 130
f 114 130 134
f 115 133 135
f 115 135 136
f 115 136 126
f 115 126 137
f 115 137 116
f 116 137 126
f 116 125 119
f 116 119 117
f 117 119 118
f 123 126 135
f 126 136 135
f 127 138 128
f 128 138 129
f 129 138 130
f 130 132 131
f 130 138 134
