v 0.356883 0.146844 0.433557
v 0.448876 0.146844 0.433557
v 0.356883 0.146844 0.514835
v 0.356883 0.282491 0.433557
v 0.449602 0.155664 0.514835
v 0.447061 0.15511 0.514835
v 0.399244 0.146844 0.514795
v 0.449602 0.194181 0.433557
v 0.391293 0.146844 0.514835
v 0.356883 0.234728 0.514835
v 0.356883 0.277023 0.443989
v 0.404899 0.281198 0.446082
v 0.404899 0.286524 0.435809
v 0.404899 0.287646 0.433557
v 0.449602 0.243861 0.514835
v 0.449602 0.291921 0.433557
v 0.377451 0.236901 0.514835
v 0.377451 0.237427 0.514047
v 0.391184 0.245025 0.504761
v 0.356883 0.239756 0.50714
v 0.356883 0.273373 0.450856
v 0.418623 0.282633 0.446082
v 0.404899 0.276043 0.455559
v 0.418623 0.276796 0.456848
v 0.449602 0.286652 0.44426
v 0.449602 0.2444 0.514055
v 0.447823 0.243719 0.514835
v 0.390222 0.238251 0.514835
v 0.404899 0.245693 0.505755
v 0.391184 0.24947 0.497893
v 0.356883 0.245948 0.497615
v 0.377451 0.244287 0.503607
v 0.404899 0.239713 0.514835
v 0.356883 0.26826 0.459809
v 0.449602 0.279139 0.458257
v 0.449602 0.285644 0.446185
v 0.356883 0.258588 0.476591
v 0.449602 0.274396 0.466501
v 0.449602 0.277918 0.460477
v 0.446071 0.243577 0.514835
v 0.449602 0.2493 0.506742
v 0.437748 0.247255 0.508143
v 0.449602 0.254455 0.498785
v 0.449602 0.260236 0.489625
v 0.449602 0.265107 0.481716
v 0.449602 0.271441 0.471363
v 0.407577 0.261244 0.481151
v 0.356883 0.251927 0.487859
v 0.377451 0.248732 0.496739
v 0.356883 0.247624 0.495005
v 0.446071 0.247653 0.508739
f 1 2 7
f 1 7 9
f 1 9 3
f 1 3 10
f 1 10 20
f 1 20 31
f 1 31 50
f 1 50 48
f 1 48 37
f 1 37 34
f 1 34 21
f 1 21 11
f 1 11 4
f 1 4 14
f 1 14 16
f 1 16 8
f 1 8 2
f 2 5 6
f 2 6 7
f 2 8 5
f 3 9 6
f 3 6 5
f 3 5 15
f 3 15 27
f 3 27 40
f 3 40 33
f 3 33 28
f 3 28 17
f 3 17 10
f 4 11 12
f 4 12 13
f 4 13 14
f 5 8 16
f 5 16 25
f 5 25 36
f 5 36 35
f 5 35 39
f 5 39 38
f 5 38 46
f 5 46 45
f 5 45 44
f 5 44 43
f 5 43 41
f 5 41 26
f 5 26 15
f 6 9 7
f 10 17 18
f 10 18 19
f 10 19 20
f 11 21 12
f 12 22 13
f 12 21 23
f 12 23 24
f 12 24 22
f 13 25 14
f 13 22 25
f 14 25 16
f 15 26 27
f 17 28 18
f 18 28 19
f 19 29 30
f 19 30 31
f 19 31 32
f 19 32 20
f 19 28 33
f 19 33 29
f 20 32 31
f 21 34 23
f 22 35 36
f 22 36 25
f 22 24 35
f 23 34 37
f 23 37 24
f 24 38 39
f 24 39 35
f 24 37 38
f 26 40 27
f 26 41 40
f 29 33 42
f 29 42 41
f 29 41 43
f 29 43 30
f 30 43 44
f 30 44 45
f 30 45 46
f 30 46 38
f 30 38 47
f 30 47 48
f 30 48 49
f 30 49 31
f 31 49 50
f 33 40 51
f 33 51 42
f 37 48 38
f 38 48 47
f 40 41 51
f 41 42 51
f 48 50 49
