v -0.0885069 0.333088 -0.54488
v -0.0885069 0.254492 -0.54488
v -0.0885069 0.333088 -0.602886
v -0.493651 0.333088 -0.54488
v -0.0885069 0.254492 -0.602886
v -0.500731 0.254492 -0.54488
v -0.474838 0.333088 -0.602886
v -0.491183 0.333088 -0.552893
v -0.494419 0.329957 -0.549809
v -0.495067 0.331065 -0.54488
v -0.473381 0.254492 -0.602886
v -0.501823 0.295094 -0.54488
v -0.498627 0.295094 -0.555885
v -0.495269 0.295094 -0.565476
v -0.494905 0.281375 -0.564636
v -0.496725 0.254492 -0.553733
v -0.476739 0.309459 -0.602886
v -0.492154 0.295094 -0.572342
v -0.494703 0.308821 -0.564108
v -0.494136 0.315815 -0.562847
v -0.495269 0.321255 -0.554988
v -0.498101 0.32227 -0.54488
v -0.475081 0.261824 -0.602886
v -0.501257 0.306105 -0.54488
v -0.497615 0.308821 -0.555885
v -0.477306 0.280975 -0.602886
v -0.476861 0.275004 -0.602886
v -0.475121 0.262063 -0.602886
v -0.47771 0.295094 -0.602886
v -0.47771 0.291178 -0.602886
v -0.501054 0.308821 -0.54488
f 1 2 5
f 1 5 3
f 1 3 7
f 1 7 8
f 1 8 4
f 1 4 10
f 1 10 22
f 1 22 31
f 1 31 24
f 1 24 12
f 1 12 6
f 1 6 2
f 2 6 16
f 2 16 11
f 2 11 5
f 3 5 11
f 3 11 23
f 3 23 28
f 3 28 27
f 3 27 26
f 3 26 30
f 3 30 29
f 3 29 17
f 3 17 7
f 4 8 9
f 4 9 10
f 6 12 13
f 6 13 14
f 6 14 15
f 6 15 16
f 7 17 18
f 7 18 19
f 7 19 20
f 7 20 21
f 7 21 9
f 7 9 8
f 9 21 22
f 9 22 10
f 11 16 23
f 12 24 13
f 13 24 25
f 13 25 14
f 14 25 19
f 14 19 18
f 14 18 15
f 15 18 26
f 15 26 27
f 15 27 16
f 16 27 28
f 16 28 23
f 17 29 18
f 18 29 30
f 18 30 26
f 19 25 20
f 20 25 31
f 20 31 22
f 20 22 21
f 24 31 25
