v 0.449611 0.155658 0.514835
v 0.449611 0.19419 0.433557
v 0.459743 0.157861 0.514835
v 0.449611 0.24386 0.514835
v 0.54215 0.17944 0.514835
v 0.449611 0.291929 0.433557
v 0.543386 0.253083 0.433557
v 0.459813 0.244654 0.514835
v 0.449611 0.244394 0.514055
v 0.549403 0.191549 0.507251
v 0.544362 0.181095 0.514835
v 0.449611 0.286648 0.44426
v 0.458288 0.293448 0.433557
v 0.549961 0.258611 0.433557
v 0.46321 0.244777 0.514835
v 0.473531 0.24854 0.509925
v 0.473531 0.25467 0.500973
v 0.459813 0.248239 0.509591
v 0.449611 0.244777 0.51349
v 0.549781 0.187307 0.514835
v 0.549692 0.186938 0.514835
v 0.549831 0.204822 0.493087
v 0.550419 0.199759 0.501999
v 0.459813 0.285963 0.448596
v 0.459813 0.289562 0.441737
v 0.459813 0.293708 0.433557
v 0.449611 0.285635 0.446185
v 0.550578 0.261813 0.433557
v 0.550319 0.257954 0.435307
v 0.473531 0.244845 0.514835
v 0.482148 0.248061 0.509177
v 0.475742 0.244585 0.514835
v 0.473531 0.260047 0.493023
v 0.459813 0.254041 0.500973
v 0.449611 0.249292 0.506742
v 0.551246 0.213128 0.501586
v 0.550309 0.198582 0.514835
v 0.550758 0.213839 0.48801
v 0.473531 0.286702 0.450132
v 0.473531 0.290397 0.443273
v 0.449611 0.279149 0.458257
v 0.459813 0.279792 0.459809
v 0.473531 0.295446 0.433557
v 0.471787 0.295227 0.433557
v 0.550877 0.264659 0.433557
v 0.551076 0.240576 0.460206
v 0.487249 0.240015 0.514835
v 0.538125 0.221119 0.509328
v 0.537936 0.234542 0.495466
v 0.546623 0.245735 0.478978
v 0.537468 0.24776 0.481206
v 0.54209 0.251564 0.47406
v 0.549223 0.274757 0.439581
v 0.54215 0.276057 0.441371
v 0.482397 0.275592 0.468323
v 0.473531 0.264659 0.486156
v 0.459813 0.259719 0.49245
v 0.449611 0.254451 0.498785
v 0.550777 0.222897 0.497408
v 0.55015 0.208804 0.510235
v 0.551385 0.240768 0.47406
v 0.548337 0.205889 0.514835
v 0.483582 0.289767 0.442167
v 0.473531 0.281284 0.459809
v 0.449611 0.277918 0.460477
v 0.459813 0.275195 0.467798
v 0.541503 0.281516 0.433557
v 0.550797 0.266615 0.433557
v 0.53179 0.217602 0.514835
v 0.542061 0.212266 0.514835
v 0.547281 0.217944 0.506559
v 0.547091 0.232024 0.492713
v 0.550379 0.249525 0.469835
v 0.550548 0.236594 0.483562
v 0.55021 0.276727 0.433557
v 0.473531 0.275947 0.468936
v 0.473531 0.271514 0.475787
v 0.459813 0.264111 0.485583
v 0.449611 0.260239 0.489625
v 0.550389 0.276139 0.433557
v 0.542748 0.211664 0.514835
v 0.449611 0.274401 0.466501
v 0.449611 0.271446 0.471363
v 0.449611 0.26511 0.481716
v 0.459813 0.27098 0.474649
f 1 2 3
f 1 3 5
f 1 5 11
f 1 11 21
f 1 21 20
f 1 20 37
f 1 37 62
f 1 62 81
f 1 81 70
f 1 70 69
f 1 69 47
f 1 47 32
f 1 32 30
f 1 30 15
f 1 15 8
f 1 8 4
f 1 4 9
f 1 9 19
f 1 19 35
f 1 35 58
f 1 58 79
f 1 79 84
f 1 84 83
f 1 83 82
f 1 82 65
f 1 65 41
f 1 41 27
f 1 27 12
f 1 12 6
f 1 6 2
f 2 5 3
f 2 6 13
f 2 13 26
f 2 26 44
f 2 44 43
f 2 43 67
f 2 67 75
f 2 75 80
f 2 80 68
f 2 68 45
f 2 45 28
f 2 28 14
f 2 14 7
f 2 7 5
f 4 8 9
f 5 10 11
f 5 7 10
f 6 12 13
f 7 14 10
f 8 15 16
f 8 16 17
f 8 17 18
f 8 18 9
f 9 18 19
f 10 20 21
f 10 21 11
f 10 14 22
f 10 22 23
f 10 23 20
f 12 24 25
f 12 25 26
f 12 26 13
f 12 27 24
f 14 28 29
f 14 29 22
f 15 30 16
f 16 31 17
f 16 30 32
f 16 32 31
f 17 31 33
f 17 33 18
f 18 33 34
f 18 34 19
f 19 34 35
f 20 23 36
f 20 36 37
f 22 29 23
f 23 29 38
f 23 38 36
f 24 39 40
f 24 40 25
f 24 27 41
f 24 41 42
f 24 42 39
f 25 40 43
f 25 43 44
f 25 44 26
f 28 45 46
f 28 46 29
f 29 46 38
f 31 32 47
f 31 47 48
f 31 48 49
f 31 49 50
f 31 50 51
f 31 51 52
f 31 52 53
f 31 53 54
f 31 54 55
f 31 55 33
f 33 55 56
f 33 56 34
f 34 56 57
f 34 57 35
f 35 57 58
f 36 59 60
f 36 60 37
f 36 38 46
f 36 46 61
f 36 61 59
f 37 60 62
f 39 63 40
f 39 42 64
f 39 64 55
f 39 55 63
f 40 63 43
f 41 65 42
f 42 65 66
f 42 66 64
f 43 63 67
f 45 61 46
f 45 68 61
f 47 69 48
f 48 69 70
f 48 70 71
f 48 71 72
f 48 72 50
f 48 50 49
f 50 73 53
f 50 53 52
f 50 52 51
f 50 72 74
f 50 74 73
f 53 75 67
f 53 67 54
f 53 73 75
f 54 67 55
f 55 67 63
f 55 64 76
f 55 76 77
f 55 77 56
f 56 77 57
f 57 77 76
f 57 76 78
f 57 78 58
f 58 78 79
f 59 72 71
f 59 71 60
f 59 61 74
f 59 74 72
f 60 71 62
f 61 73 74
f 61 68 80
f 61 80 73
f 62 71 81
f 64 66 76
f 65 82 66
f 66 82 83
f 66 83 84
f 66 84 85
f 66 85 76
f 70 81 71
f 73 80 75
f 76 85 78
f 78 85 79
f 79 85 84
