v 0.336248 0.316059 0.366695
v 0.336248 0.314999 0.369059
v 0.356883 0.311073 0.377455
v 0.349951 0.315926 0.366695
v 0.0618117 0.314767 0.366695
v 0.253868 0.304696 0.390202
v 0.253868 0.301483 0.397061
v 0.336248 0.311057 0.377455
v 0.349951 0.311106 0.377455
v 0.356883 0.314899 0.368841
v 0.356883 0.304978 0.39042
v 0.356883 0.315347 0.367812
v 0.356883 0.315827 0.366695
v -0.130353 0.310444 0.366695
v 0.0618117 0.314187 0.367826
v 0.267625 0.287834 0.424745
v 0.253868 0.29764 0.404907
v 0.356883 0.301549 0.397279
v 0.267625 0.291246 0.417871
v 0.356883 0.146861 0.366695
v -0.144327 0.310046 0.366695
v -0.130353 0.305127 0.376223
v 0.267625 0.283743 0.432358
v 0.253868 0.287685 0.424513
v 0.356883 0.273374 0.450848
v 0.356883 0.277018 0.443974
v 0.356883 0.28313 0.432358
v 0.356883 0.146861 0.514843
v -0.19643 0.146861 0.366695
v -0.14411 0.304895 0.37557
v -0.130353 0.290518 0.402006
v -0.130353 0.296679 0.391188
v -0.19643 0.303967 0.366695
v 0.267625 0.27725 0.4438
v 0.356883 0.268256 0.459795
v 0.356883 0.234731 0.514843
v -0.19643 0.146861 0.514843
v -0.14411 0.300804 0.382429
v -0.130353 0.286493 0.408866
v -0.19643 0.265672 0.429951
v -0.14411 0.289838 0.40073
v 0.281328 0.258235 0.47608
v 0.356883 0.251924 0.487855
v 0.356883 0.258583 0.476588
v 0.356883 0.245945 0.497615
v 0.291781 0.247038 0.494077
v 0.281328 0.246872 0.493859
v 0.308788 0.233091 0.514843
v -0.19643 0.211111 0.514843
v -0.130353 0.280596 0.41864
v -0.19643 0.263966 0.432764
v -0.13929 0.274964 0.426238
v 0.281328 0.251378 0.487
v 0.356883 0.247634 0.495005
v -0.130353 0.275461 0.42705
v -0.11665 0.264579 0.445366
v -0.11665 0.260322 0.452225
v -0.11665 0.255254 0.459795
v -0.130353 0.237149 0.486086
v -0.130353 0.232545 0.49296
v -0.14411 0.217207 0.514843
v -0.19643 0.222192 0.497992
v -0.158571 0.215716 0.514843
v -0.154563 0.220271 0.508854
v -0.19643 0.256264 0.445076
v -0.130353 0.271155 0.43391
v -0.130353 0.264297 0.444641
v -0.130353 0.254458 0.459795
v -0.130353 0.248529 0.468916
v -0.130353 0.244007 0.475776
v -0.14411 0.220768 0.50955
v -0.19643 0.229215 0.487246
v -0.14411 0.226383 0.500979
v -0.19643 0.234168 0.47959
f 1 2 3
f 1 3 4
f 1 4 13
f 1 13 20
f 1 20 29
f 1 29 33
f 1 33 21
f 1 21 14
f 1 14 5
f 1 5 2
f 2 6 7
f 2 7 8
f 2 8 9
f 2 9 3
f 2 5 6
f 3 10 4
f 3 9 11
f 3 11 18
f 3 18 27
f 3 27 26
f 3 26 25
f 3 25 35
f 3 35 44
f 3 44 43
f 3 43 54
f 3 54 45
f 3 45 36
f 3 36 28
f 3 28 20
f 3 20 13
f 3 13 12
f 3 12 10
f 4 10 12
f 4 12 13
f 5 14 15
f 5 15 16
f 5 16 17
f 5 17 7
f 5 7 6
f 7 17 11
f 7 11 9
f 7 9 8
f 11 17 19
f 11 19 16
f 11 16 18
f 14 21 22
f 14 22 23
f 14 23 15
f 15 23 24
f 15 24 16
f 16 24 23
f 16 23 25
f 16 25 26
f 16 26 27
f 16 27 18
f 16 19 17
f 20 28 37
f 20 37 29
f 21 30 31
f 21 31 32
f 21 32 22
f 21 33 30
f 22 32 23
f 23 34 25
f 23 32 34
f 25 34 35
f 28 36 48
f 28 48 61
f 28 61 63
f 28 63 49
f 28 49 37
f 29 37 49
f 29 49 62
f 29 62 72
f 29 72 74
f 29 74 65
f 29 65 51
f 29 51 40
f 29 40 33
f 30 38 39
f 30 39 31
f 30 33 38
f 31 39 34
f 31 34 32
f 33 40 41
f 33 41 38
f 34 42 43
f 34 43 44
f 34 44 35
f 34 39 42
f 36 45 46
f 36 46 47
f 36 47 48
f 38 41 39
f 39 41 50
f 39 50 42
f 40 51 52
f 40 52 41
f 41 52 50
f 42 53 54
f 42 54 43
f 42 50 55
f 42 55 56
f 42 56 57
f 42 57 53
f 45 54 46
f 46 53 47
f 46 54 53
f 47 53 57
f 47 57 58
f 47 58 59
f 47 59 60
f 47 60 61
f 47 61 48
f 49 63 64
f 49 64 62
f 50 52 55
f 51 65 52
f 52 66 55
f 52 65 66
f 55 66 57
f 55 57 56
f 57 66 67
f 57 67 68
f 57 68 69
f 57 69 70
f 57 70 59
f 57 59 58
f 59 70 71
f 59 71 60
f 60 71 61
f 61 71 64
f 61 64 63
f 62 64 72
f 64 71 73
f 64 73 68
f 64 68 67
f 64 67 74
f 64 74 72
f 65 74 67
f 65 67 66
f 68 73 69
f 69 73 71
f 69 71 70
