v -0.19643 -0.0860697 0.458081
v -0.19643 -0.0860697 0.532346
v -0.19643 -0.0380236 0.458081
v 0.382967 -0.0860697 0.458081
v -0.19643 -0.0380236 0.532346
v 0.50647 -0.0860697 0.532346
v 0.444891 -0.0380236 0.458081
v 0.430442 -0.0555112 0.458081
v 0.445992 -0.0860697 0.475513
v 0.390329 -0.0380236 0.532346
v 0.460509 -0.0860697 0.484193
v 0.43918 -0.050041 0.532346
v 0.441588 -0.0380236 0.463526
v 0.416612 -0.0409021 0.532346
v 0.422323 -0.0424073 0.532346
v 0.428309 -0.0443686 0.532346
v 0.453422 -0.0860697 0.478305
v 0.443446 -0.0422944 0.458081
v 0.434914 -0.0525056 0.458081
v 0.404296 -0.0389831 0.532346
v 0.441519 -0.0380236 0.463635
v 0.404847 -0.0390349 0.532346
v 0.407943 -0.0395099 0.532346
v 0.440831 -0.0464664 0.458081
v 0.442139 -0.0448154 0.458081
f 1 2 5
f 1 5 3
f 1 3 7
f 1 7 18
f 1 18 25
f 1 25 24
f 1 24 19
f 1 19 8
f 1 8 4
f 1 4 9
f 1 9 17
f 1 17 11
f 1 11 6
f 1 6 2
f 2 6 12
f 2 12 16
f 2 16 15
f 2 15 14
f 2 14 23
f 2 23 22
f 2 22 20
f 2 20 10
f 2 10 5
f 3 5 10
f 3 10 21
f 3 21 13
f 3 13 7
f 4 8 9
f 6 11 7
f 6 7 12
f 7 13 14
f 7 14 15
f 7 15 16
f 7 16 12
f 7 11 17
f 7 17 18
f 8 19 9
f 9 19 17
f 10 20 21
f 13 21 22
f 13 22 23
f 13 23 14
f 17 19 24
f 17 24 25
f 17 25 18
f 20 22 21
