v -0.19643 -0.0393192 0.402972
v -0.19643 -0.238341 0.402972
v -0.19643 -0.0393192 0.332185
v -0.389715 -0.0393192 0.402972
v -0.19643 -0.243015 0.396576
v -0.408005 -0.228289 0.402972
v -0.19643 -0.287945 0.332185
v -0.377799 -0.0393192 0.332185
v -0.390079 -0.0393192 0.400921
v -0.462226 -0.10966 0.402972
v -0.19643 -0.248467 0.388898
v -0.418621 -0.227681 0.402972
v -0.432332 -0.231843 0.395876
v -0.418621 -0.232232 0.396445
v -0.19643 -0.283077 0.339427
v -0.19643 -0.276651 0.348747
v -0.199032 -0.287848 0.332185
v -0.429678 -0.0790652 0.332185
v -0.430407 -0.0783837 0.33628
v -0.422966 -0.0705708 0.350001
v -0.402646 -0.050856 0.37745
v -0.388961 -0.0393192 0.391171
v -0.394971 -0.0437489 0.391171
v -0.437275 -0.0844685 0.33628
v -0.445028 -0.0937175 0.332185
v -0.452496 -0.106739 0.332185
v -0.462226 -0.145755 0.339316
v -0.462226 -0.220306 0.402972
v -0.416487 -0.0640479 0.363729
v -0.421535 -0.22751 0.402972
v -0.432332 -0.236492 0.389009
v -0.418621 -0.243818 0.379501
v -0.418621 -0.236954 0.389584
v -0.432332 -0.226829 0.402972
v -0.445523 -0.225101 0.402972
v -0.446069 -0.230894 0.394359
v -0.206785 -0.287361 0.332185
v -0.404883 -0.248807 0.373195
v -0.418621 -0.248394 0.372641
v -0.431031 -0.0801118 0.332185
v -0.442973 -0.0915756 0.332185
v -0.436026 -0.0845416 0.332185
v -0.462226 -0.150963 0.332185
v -0.462226 -0.221596 0.40106
v -0.459781 -0.22128 0.402972
v -0.432332 -0.243355 0.378386
v -0.446069 -0.235396 0.387498
v -0.458428 -0.221693 0.402972
v -0.455279 -0.234155 0.38562
v -0.404883 -0.254819 0.363729
v -0.404883 -0.25993 0.35542
v -0.391172 -0.27468 0.332185
v -0.432332 -0.247639 0.371525
v -0.418621 -0.25387 0.363729
v -0.462226 -0.263265 0.332185
v -0.462226 -0.230967 0.386632
v -0.459833 -0.229336 0.390589
v -0.459781 -0.222083 0.401774
v -0.439513 -0.247104 0.370694
v -0.448671 -0.246154 0.369127
v -0.444872 -0.242674 0.37614
v -0.45325 -0.260904 0.343363
v -0.462226 -0.234764 0.380582
v -0.418621 -0.259371 0.354436
v -0.404883 -0.263971 0.34856
v -0.403817 -0.273658 0.332185
v -0.432332 -0.252264 0.363729
v -0.458714 -0.264701 0.332185
v -0.45861 -0.262875 0.335684
v -0.462226 -0.262364 0.333834
v -0.446069 -0.261512 0.34443
v -0.446069 -0.268376 0.332185
v -0.446069 -0.266137 0.33628
v -0.462226 -0.248053 0.358497
v -0.462226 -0.253724 0.34892
v -0.462226 -0.258762 0.3403
v -0.462226 -0.259127 0.339662
v -0.432332 -0.258543 0.353009
v -0.432332 -0.26251 0.346148
v -0.418621 -0.263314 0.347576
v -0.418621 -0.269763 0.33628
v -0.418621 -0.2721 0.332185
v -0.432332 -0.268157 0.33628
v -0.432332 -0.270469 0.332185
f 1 2 5
f 1 5 11
f 1 11 16
f 1 16 15
f 1 15 7
f 1 7 3
f 1 3 8
f 1 8 22
f 1 22 9
f 1 9 4
f 1 4 10
f 1 10 28
f 1 28 45
f 1 45 48
f 1 48 35
f 1 35 34
f 1 34 30
f 1 30 12
f 1 12 6
f 1 6 2
f 2 6 5
f 3 7 17
f 3 17 37
f 3 37 52
f 3 52 66
f 3 66 82
f 3 82 84
f 3 84 72
f 3 72 68
f 3 68 55
f 3 55 43
f 3 43 26
f 3 26 25
f 3 25 41
f 3 41 42
f 3 42 40
f 3 40 18
f 3 18 8
f 4 9 10
f 5 6 11
f 6 12 13
f 6 13 14
f 6 14 15
f 6 15 16
f 6 16 11
f 7 15 17
f 8 18 19
f 8 19 20
f 8 20 21
f 8 21 22
f 9 22 23
f 9 23 10
f 10 24 25
f 10 25 26
f 10 26 27
f 10 27 43
f 10 43 55
f 10 55 70
f 10 70 77
f 10 77 76
f 10 76 75
f 10 75 74
f 10 74 63
f 10 63 56
f 10 56 44
f 10 44 28
f 10 23 21
f 10 21 29
f 10 29 24
f 12 30 13
f 13 31 32
f 13 32 33
f 13 33 14
f 13 30 34
f 13 34 35
f 13 35 36
f 13 36 31
f 14 33 15
f 15 33 32
f 15 32 17
f 17 32 38
f 17 38 39
f 17 39 37
f 18 40 19
f 19 40 24
f 19 24 20
f 20 29 21
f 20 24 29
f 21 23 22
f 24 41 25
f 24 40 42
f 24 42 41
f 26 43 27
f 28 44 45
f 31 46 39
f 31 39 32
f 31 36 47
f 31 47 46
f 32 39 38
f 35 48 36
f 36 48 49
f 36 49 47
f 37 39 50
f 37 50 51
f 37 51 52
f 39 46 53
f 39 53 54
f 39 54 51
f 39 51 50
f 44 56 57
f 44 57 58
f 44 58 45
f 45 58 48
f 46 47 59
f 46 59 53
f 47 60 61
f 47 61 59
f 47 49 60
f 48 58 49
f 49 62 60
f 49 58 57
f 49 57 56
f 49 56 63
f 49 63 62
f 51 54 64
f 51 64 65
f 51 65 52
f 52 65 66
f 53 67 54
f 53 59 67
f 54 67 64
f 55 68 69
f 55 69 70
f 59 61 62
f 59 62 71
f 59 71 67
f 60 62 61
f 62 69 68
f 62 68 72
f 62 72 73
f 62 73 71
f 62 63 74
f 62 74 75
f 62 75 76
f 62 76 77
f 62 77 70
f 62 70 69
f 64 67 78
f 64 78 79
f 64 79 80
f 64 80 66
f 64 66 65
f 66 80 81
f 66 81 82
f 67 71 78
f 71 73 83
f 71 83 79
f 71 79 78
f 72 84 73
f 73 84 83
f 79 83 80
f 80 83 81
f 81 83 82
f 82 83 84
