v -0.128014 0.412431 0.0546093
v -0.13039 0.410852 0.0637649
v -0.116623 0.410801 0.0634893
v -0.00683599 0.405251 0.0892413
v 0.00693107 0.405099 0.0892413
v -0.114387 0.412278 0.0545481
v -0.00935179 0.411005 0.0538744
v -0.161209 0.411565 0.0538744
v -0.142131 0.412176 0.0544256
v -0.144087 0.410852 0.0629994
v -0.144087 0.408714 0.0755232
v -0.13039 0.408714 0.0755232
v -0.116623 0.403622 0.10299
v 0.00693107 0.402706 0.10299
v 0.00693107 0.41075 0.0538744
v -0.00683599 0.407492 0.0755232
v 0.0206283 0.404793 0.0892413
v -0.17274 0.411107 0.0538744
v -0.151984 0.411769 0.0552524
v -0.157016 0.410852 0.060611
v -0.185249 0.405862 0.0892413
v -0.185249 0.403571 0.10299
v -0.171552 0.403622 0.10299
v -0.144087 0.403673 0.10299
v -0.116623 0.401127 0.116708
v -0.13039 0.403673 0.10299
v -0.00683599 0.40016 0.116708
v 0.00693107 0.399956 0.116708
v 0.0206283 0.399702 0.116708
v 0.0206283 0.4024 0.10299
v 0.0206283 0.406983 0.0755232
v 0.102951 0.407186 0.0618052
v 0.0892539 0.408765 0.0538744
v 0.0343254 0.402044 0.10299
v 0.116718 0.40464 0.0755232
v -0.189791 0.410394 0.0538744
v -0.19643 0.407339 0.0755232
v -0.185249 0.407797 0.0755232
v -0.19643 0.405659 0.0879552
v -0.19643 0.403622 0.101673
v -0.19643 0.401025 0.115391
v -0.13039 0.401127 0.116708
v -0.116623 0.398938 0.12767
v -0.0479974 0.397258 0.133335
v -0.00683599 0.398378 0.125374
v -0.0205332 0.39848 0.125864
v 0.116718 0.394712 0.130426
v 0.0892539 0.39741 0.120382
v 0.0480925 0.399243 0.115881
v 0.00693107 0.394101 0.144144
v 0.102951 0.397258 0.119494
v 0.116718 0.397105 0.118453
v 0.116718 0.40683 0.0618052
v 0.102951 0.408408 0.0538744
v 0.102951 0.400211 0.10299
v 0.116718 0.402247 0.0892413
v 0.130485 0.401687 0.0892413
v 0.130485 0.404029 0.0755232
v -0.19643 -0.107729 0.0538744
v -0.19643 0.409732 0.0567221
v -0.19643 0.397563 0.132447
v -0.13039 0.398938 0.127456
v -0.19643 0.39517 0.144144
v -0.19643 0.392166 0.157862
v -0.102926 0.397359 0.134407
v -0.0754616 0.397308 0.133917
v -0.0754616 0.395017 0.144144
v -0.0205332 0.39461 0.144144
v -0.0205332 0.397054 0.132723
v 0.00693107 0.391097 0.157862
v 0.0206283 0.390791 0.157862
v 0.00693107 0.38794 0.17158
v 0.130485 0.391097 0.144144
v 0.130485 0.394304 0.130426
v 0.128738 0.397563 0.113217
v 0.116718 0.407899 0.0538744
v 0.130485 0.406168 0.0618052
v 0.135657 0.397919 0.109359
v 0.144182 0.403113 0.0755232
v -0.19643 -0.107729 0.366664
v 0.5175 -0.107729 0.0538744
v -0.19643 0.384376 0.189891
v -0.102926 0.39186 0.157862
v -0.102926 0.395119 0.144144
v -0.0891588 0.395068 0.144144
v -0.00683599 0.3913 0.157862
v 0.00693107 0.385241 0.182144
v 0.473474 0.329997 0.345352
v 0.0206283 0.387533 0.17158
v -0.00683599 0.385292 0.182451
v -0.00683599 0.383561 0.18934
v 0.482069 0.329794 0.344954
v 0.473474 0.332187 0.336228
v 0.473474 0.335394 0.322509
v 0.468372 0.343286 0.288888
v 0.404848 0.357645 0.237078
v 0.391151 0.360598 0.226452
v 0.144182 0.393541 0.130426
v 0.144182 0.396087 0.116708
v 0.130485 0.407237 0.0538744
v 0.157949 0.404233 0.0618052
v 0.391151 0.363144 0.212734
v 0.185204 0.400058 0.0755232
v 0.402332 -0.107729 0.365654
v 0.449084 -0.0842567 0.366664
v -0.13039 0.310445 0.366664
v -0.19643 0.305456 0.364215
v 0.5175 0.350007 0.0538744
v 0.5175 -0.107729 0.187136
v -0.19643 0.382085 0.199047
v 0.00693107 0.383408 0.189003
v 0.473474 0.328062 0.352211
v 0.00693107 0.380659 0.199047
v -0.00683599 0.380964 0.199047
v -0.19643 0.37852 0.212734
v 0.473474 0.32404 0.365164
v 0.51743 0.330048 0.335339
v 0.5175 0.333052 0.320764
v 0.459776 0.347818 0.267607
v 0.431264 0.355455 0.238976
v 0.425953 0.356881 0.233618
v 0.418615 0.357187 0.235087
v 0.432312 0.352604 0.253889
v 0.418615 0.355863 0.241946
v 0.404848 0.359834 0.226452
v 0.157949 0.405302 0.0538744
v 0.171507 0.403215 0.0618052
v 0.418615 0.358714 0.226452
v 0.404848 0.362024 0.212734
v 0.367251 0.370374 0.176847
v 0.185204 0.402146 0.0618052
v 0.465926 -0.107729 0.287602
v 0.466835 -0.0961202 0.315957
v 0.455444 -0.0836458 0.360571
v 0.458379 -0.0791651 0.366664
v -0.140174 0.315741 0.356988
v -0.144367 0.31126 0.364521
v 0.0617897 0.314773 0.366664
v -0.19643 0.313195 0.35117
v -0.149329 0.315588 0.356713
v 0.5175 0.349956 0.0615908
v 0.484306 0.362278 0.0538744
v 0.487241 0.361463 0.0618052
v 0.5175 -0.0149089 0.343423
v 0.507227 -0.026416 0.354906
v 0.496815 -0.0362937 0.36596
v 0.490106 -0.0453568 0.366664
v 0.48158 -0.0564565 0.366664
v 0.480881 -0.0692874 0.344434
v 0.478994 -0.0807435 0.32649
v 0.481021 -0.0830857 0.317335
v 0.480811 -0.0964766 0.289409
v 0.481021 -0.107729 0.261758
v -0.00683599 0.377095 0.212734
v 0.00392608 0.370628 0.233556
v -0.19643 0.374651 0.226452
v 0.5175 0.281729 0.366664
v 0.5175 0.319712 0.363419
v 0.5175 0.325771 0.348629
v -0.19643 0.371596 0.235914
v -0.185249 0.364773 0.253889
v -0.171552 0.356677 0.274159
v -0.171552 0.353368 0.281355
v -0.157784 0.343592 0.302912
v -0.157784 0.340181 0.309771
v -0.15457 0.329845 0.330195
v -0.144087 0.326331 0.337207
v 0.5175 0.346851 0.144144
v 0.486262 0.358969 0.130426
v 0.484585 0.358459 0.144144
v 0.482768 0.357798 0.157862
v 0.480182 0.356779 0.178011
v 0.471167 0.357747 0.185329
v 0.468302 0.357187 0.194883
v 0.462572 0.357237 0.20168
v 0.455863 0.357288 0.208846
v 0.459776 0.352146 0.24017
v 0.459776 0.350058 0.253889
v 0.443773 0.356474 0.223635
v 0.168572 0.404488 0.0538744
v 0.418615 0.3607 0.212734
v 0.448316 0.357187 0.215521
v 0.37389 0.370934 0.167691
v 0.363687 0.373174 0.157862
v 0.198971 0.400924 0.0618052
v 0.185204 0.403164 0.0538744
v 0.471098 -0.107729 0.279855
v 0.467603 -0.0830857 0.344893
v 0.468861 -0.0975968 0.308791
v 0.478575 -0.0943382 0.298564
v 0.464598 -0.0808963 0.354049
v 0.469281 -0.0712731 0.365164
v 0.476898 -0.0621082 0.366664
v -0.144437 0.318745 0.351262
v -0.19643 0.317574 0.343331
v 0.5175 0.349702 0.0727674
v 0.487241 0.361311 0.0755232
v 0.473474 0.365129 0.0538744
v 0.473474 0.365079 0.0618052
v 0.5175 -0.00757699 0.35166
v 0.509743 -0.0172511 0.360785
v 0.50548 -0.0202042 0.366664
v 0.477667 -0.107729 0.268372
v 0.510582 0.00352274 0.366664
v 0.5175 0.00525389 0.3561
v -0.19643 0.368846 0.242773
v -0.185249 0.359529 0.266657
v -0.168267 0.34349 0.302729
v -0.185249 0.356321 0.273516
v 0.5175 0.347818 0.130426
v 0.49395 0.356779 0.122587
v 0.487241 0.360241 0.10299
v 0.473474 0.362329 0.130426
v 0.473474 0.361413 0.144144
v 0.488499 0.359019 0.117504
v 0.473474 0.360241 0.157862
v 0.474732 0.358459 0.172713
v 0.459776 0.361158 0.17158
v 0.459776 0.359681 0.185329
v 0.446009 0.359732 0.199047
v 0.432312 0.361107 0.199047
v 0.446009 0.361362 0.185329
v 0.295061 0.392421 0.0538744
v 0.23587 0.398276 0.0538744
v 0.212738 0.3996 0.0618052
v 0.220635 0.399752 0.0538744
v -0.19643 0.345272 0.292164
v -0.177422 0.342981 0.301687
v 0.5175 0.348378 0.116708
v 0.487241 0.360903 0.0892413
v 0.473474 0.364773 0.0755232
v 0.459776 0.367726 0.0538744
v 0.459776 0.367573 0.0618052
v 0.510302 -0.00660958 0.366175
v -0.19643 0.364264 0.253889
v -0.19643 0.359121 0.265402
v -0.19643 0.35571 0.272261
v 0.473474 0.363755 0.10299
v 0.473474 0.363093 0.116708
v 0.459776 0.363653 0.144144
v 0.459776 0.362533 0.157862
v 0.432312 0.365791 0.157862
v 0.446009 0.362787 0.17158
v 0.308758 0.390791 0.0538744
v -0.19643 0.351026 0.281355
v 0.473474 0.364315 0.0892413
v 0.447058 0.369814 0.0538744
v 0.399118 0.377298 0.0538744
v 0.459776 0.367013 0.0755232
v 0.391151 0.37852 0.0538744
v 0.377384 0.380608 0.0538744
v 0.316725 0.38962 0.0538744
v 0.459776 0.364417 0.130426
f 1 2 3
f 1 3 4
f 1 4 5
f 1 5 6
f 1 6 7
f 1 7 8
f 1 8 9
f 1 9 10
f 1 10 2
f 2 10 11
f 2 11 12
f 2 12 25
f 2 25 13
f 2 13 3
f 3 13 14
f 3 14 4
f 4 14 5
f 5 15 7
f 5 7 16
f 5 16 6
f 5 14 30
f 5 30 17
f 5 17 15
f 6 16 7
f 7 15 33
f 7 33 54
f 7 54 76
f 7 76 100
f 7 100 126
f 7 126 180
f 7 180 186
f 7 186 226
f 7 226 224
f 7 224 223
f 7 223 244
f 7 244 252
f 7 252 251
f 7 251 250
f 7 250 248
f 7 248 247
f 7 247 232
f 7 232 198
f 7 198 142
f 7 142 108
f 7 108 81
f 7 81 59
f 7 59 36
f 7 36 18
f 7 18 8
f 8 18 19
f 8 19 9
f 9 19 20
f 9 20 21
f 9 21 10
f 10 21 22
f 10 22 11
f 11 22 23
f 11 23 24
f 11 24 26
f 11 26 12
f 12 26 25
f 13 25 14
f 14 27 28
f 14 28 29
f 14 29 30
f 14 25 27
f 15 17 31
f 15 31 32
f 15 32 33
f 17 32 31
f 17 30 34
f 17 34 35
f 17 35 32
f 18 36 37
f 18 37 38
f 18 38 19
f 19 38 20
f 20 38 21
f 21 38 39
f 21 39 40
f 21 40 22
f 22 40 41
f 22 41 42
f 22 42 23
f 23 42 24
f 24 42 25
f 24 25 26
f 25 42 43
f 25 43 44
f 25 44 27
f 27 45 28
f 27 44 46
f 27 46 45
f 28 45 29
f 29 47 48
f 29 48 49
f 29 49 30
f 29 45 50
f 29 50 47
f 30 49 48
f 30 48 51
f 30 51 52
f 30 52 34
f 32 35 53
f 32 53 33
f 33 53 54
f 34 52 55
f 34 55 56
f 34 56 35
f 35 56 57
f 35 57 58
f 35 58 53
f 36 59 60
f 36 60 37
f 37 60 59
f 37 59 80
f 37 80 107
f 37 107 139
f 37 139 195
f 37 195 227
f 37 227 245
f 37 245 237
f 37 237 236
f 37 236 235
f 37 235 206
f 37 206 160
f 37 160 156
f 37 156 115
f 37 115 110
f 37 110 82
f 37 82 64
f 37 64 63
f 37 63 61
f 37 61 41
f 37 41 40
f 37 40 39
f 37 39 38
f 41 61 42
f 42 62 43
f 42 61 62
f 43 62 63
f 43 63 64
f 43 64 65
f 43 65 66
f 43 66 44
f 44 66 67
f 44 67 68
f 44 68 69
f 44 69 46
f 45 46 69
f 45 69 68
f 45 68 50
f 47 52 51
f 47 51 48
f 47 50 70
f 47 70 71
f 47 71 72
f 47 72 73
f 47 73 74
f 47 74 52
f 50 68 70
f 52 74 75
f 52 75 56
f 52 56 55
f 53 76 54
f 53 58 77
f 53 77 100
f 53 100 76
f 56 75 57
f 57 75 78
f 57 78 58
f 58 78 79
f 58 79 77
f 59 81 109
f 59 109 153
f 59 153 203
f 59 203 187
f 59 187 132
f 59 132 104
f 59 104 80
f 61 63 62
f 64 82 83
f 64 83 84
f 64 84 65
f 65 84 85
f 65 85 67
f 65 67 66
f 67 85 83
f 67 83 72
f 67 72 86
f 67 86 68
f 68 86 70
f 70 86 72
f 70 72 71
f 72 87 88
f 72 88 89
f 72 89 73
f 72 83 82
f 72 82 90
f 72 90 91
f 72 91 87
f 73 89 88
f 73 88 92
f 73 92 93
f 73 93 94
f 73 94 74
f 74 94 95
f 74 95 96
f 74 96 97
f 74 97 125
f 74 125 98
f 74 98 99
f 74 99 78
f 74 78 75
f 77 79 101
f 77 101 126
f 77 126 100
f 78 99 102
f 78 102 79
f 79 102 103
f 79 103 101
f 80 104 105
f 80 105 135
f 80 135 193
f 80 193 148
f 80 148 147
f 80 147 202
f 80 202 204
f 80 204 157
f 80 157 138
f 80 138 106
f 80 106 107
f 81 108 141
f 81 141 196
f 81 196 229
f 81 229 210
f 81 210 168
f 81 168 118
f 81 118 159
f 81 159 158
f 81 158 157
f 81 157 205
f 81 205 200
f 81 200 144
f 81 144 109
f 82 110 90
f 83 85 84
f 87 91 111
f 87 111 88
f 88 112 92
f 88 111 113
f 88 113 114
f 88 114 112
f 90 110 91
f 91 114 111
f 91 110 115
f 91 115 114
f 92 94 93
f 92 112 116
f 92 116 117
f 92 117 94
f 94 117 95
f 95 117 118
f 95 118 119
f 95 119 120
f 95 120 121
f 95 121 122
f 95 122 123
f 95 123 124
f 95 124 96
f 96 124 125
f 96 125 97
f 98 125 99
f 99 125 102
f 101 103 127
f 101 127 126
f 102 125 128
f 102 128 129
f 102 129 130
f 102 130 131
f 102 131 127
f 102 127 103
f 104 132 133
f 104 133 134
f 104 134 105
f 105 134 135
f 106 136 137
f 106 137 107
f 106 138 136
f 107 137 140
f 107 140 139
f 108 142 143
f 108 143 141
f 109 144 145
f 109 145 146
f 109 146 147
f 109 147 148
f 109 148 149
f 109 149 150
f 109 150 151
f 109 151 152
f 109 152 153
f 111 114 113
f 112 114 154
f 112 154 155
f 112 155 116
f 114 115 156
f 114 156 154
f 116 157 158
f 116 158 159
f 116 159 117
f 116 155 160
f 116 160 161
f 116 161 162
f 116 162 163
f 116 163 164
f 116 164 165
f 116 165 166
f 116 166 167
f 116 167 138
f 116 138 157
f 117 159 118
f 118 168 169
f 118 169 170
f 118 170 171
f 118 171 172
f 118 172 173
f 118 173 174
f 118 174 175
f 118 175 176
f 118 176 177
f 118 177 178
f 118 178 119
f 119 178 120
f 120 178 121
f 121 178 179
f 121 179 128
f 121 128 125
f 121 125 122
f 122 125 123
f 123 125 124
f 126 127 180
f 127 131 180
f 128 181 129
f 128 179 182
f 128 182 181
f 129 181 130
f 130 181 183
f 130 183 184
f 130 184 185
f 130 185 131
f 131 185 186
f 131 186 180
f 132 187 133
f 133 188 134
f 133 187 189
f 133 189 190
f 133 190 188
f 134 188 135
f 135 188 191
f 135 191 192
f 135 192 193
f 136 194 140
f 136 140 137
f 136 138 194
f 138 167 194
f 139 140 166
f 139 166 195
f 140 194 166
f 141 143 197
f 141 197 196
f 142 198 143
f 143 198 199
f 143 199 197
f 144 200 201
f 144 201 145
f 145 201 146
f 146 202 147
f 146 201 202
f 148 193 149
f 149 193 150
f 150 193 192
f 150 192 188
f 150 188 190
f 150 190 152
f 150 152 151
f 152 190 189
f 152 189 203
f 152 203 153
f 154 156 155
f 155 156 160
f 157 204 205
f 160 206 161
f 161 206 207
f 161 207 162
f 162 207 163
f 163 208 164
f 163 207 209
f 163 209 208
f 164 208 165
f 165 208 166
f 166 208 195
f 166 194 167
f 168 210 211
f 168 211 169
f 169 212 213
f 169 213 214
f 169 214 170
f 169 211 215
f 169 215 212
f 170 214 171
f 171 214 172
f 172 214 216
f 172 216 217
f 172 217 173
f 173 217 216
f 173 216 218
f 173 218 219
f 173 219 174
f 174 219 175
f 175 219 176
f 176 220 182
f 176 182 177
f 176 219 220
f 177 182 179
f 177 179 178
f 181 182 220
f 181 220 221
f 181 221 183
f 183 221 220
f 183 220 184
f 184 220 222
f 184 222 223
f 184 223 224
f 184 224 225
f 184 225 185
f 185 225 186
f 186 225 226
f 187 203 189
f 188 192 191
f 195 208 228
f 195 228 227
f 196 197 230
f 196 230 229
f 197 199 231
f 197 231 230
f 198 232 199
f 199 232 233
f 199 233 231
f 200 205 234
f 200 234 201
f 201 234 202
f 202 234 204
f 204 234 205
f 206 235 207
f 207 235 236
f 207 236 209
f 208 209 237
f 208 237 228
f 209 236 237
f 210 229 230
f 210 230 212
f 210 212 211
f 211 212 215
f 212 230 238
f 212 238 239
f 212 239 213
f 213 239 253
f 213 253 240
f 213 240 214
f 214 240 241
f 214 241 216
f 216 241 218
f 218 241 242
f 218 242 243
f 218 243 222
f 218 222 219
f 219 222 220
f 222 243 242
f 222 242 223
f 223 242 241
f 223 241 244
f 224 226 225
f 227 228 245
f 228 237 245
f 230 231 246
f 230 246 238
f 231 233 246
f 232 247 233
f 233 247 248
f 233 248 249
f 233 249 238
f 233 238 246
f 238 249 248
f 238 248 250
f 238 250 251
f 238 251 239
f 239 251 252
f 239 252 253
f 240 253 244
f 240 244 241
f 244 253 252
