v -0.19643 -0.0278822 0.228574
v -0.19643 -0.1569 0.228574
v -0.19643 -0.0278822 0.182528
v -0.452537 -0.0278822 0.228574
v -0.19643 -0.1569 0.182528
v -0.486972 -0.1569 0.228574
v -0.481989 -0.0278822 0.182528
v -0.453569 -0.0278822 0.227005
v -0.497585 -0.1569 0.182528
v -0.459318 -0.0278822 0.218179
v -0.46772 -0.0278822 0.205107
v -0.474294 -0.0278822 0.194748
v -0.483729 -0.0342851 0.182528
v -0.486824 -0.0478739 0.182528
v -0.48989 -0.0617658 0.182528
v -0.49048 -0.0645694 0.182528
v -0.49275 -0.0758597 0.182528
v -0.493693 -0.0826667 0.182528
v -0.494578 -0.0892212 0.182528
v -0.495197 -0.100208 0.182528
v -0.480486 -0.0278822 0.18494
f 1 2 5
f 1 5 3
f 1 3 7
f 1 7 21
f 1 21 12
f 1 12 11
f 1 11 10
f 1 10 8
f 1 8 4
f 1 4 6
f 1 6 2
f 2 6 9
f 2 9 5
f 3 5 9
f 3 9 20
f 3 20 19
f 3 19 18
f 3 18 17
f 3 17 16
f 3 16 15
f 3 15 14
f 3 14 13
f 3 13 7
f 4 8 6
f 6 8 10
f 6 10 11
f 6 11 12
f 6 12 13
f 6 13 14
f 6 14 15
f 6 15 16
f 6 16 17
f 6 17 18
f 6 18 19
f 6 19 20
f 6 20 9
f 7 13 21
f 12 21 13
