v 0.542154 -0.31958 -0.185322
v 0.542154 -0.319569 -0.171609
v 0.530868 -0.317865 -0.0755108
v 0.530905 -0.317854 -0.0892237
v 0.532849 -0.317279 -0.185322
v 0.542154 -0.319193 -0.199035
v 0.548997 -0.31569 -0.37069
v 0.549035 -0.31569 -0.37069
v 0.551328 -0.316683 -0.308793
v 0.552359 -0.317258 -0.2676
v 0.552578 -0.317426 -0.253887
v 0.552634 -0.31799 -0.199035
v 0.552503 -0.31798 -0.185322
v 0.542154 -0.319423 -0.144129
v 0.53033 -0.317687 -0.020605
v 0.50592 -0.309196 0.0255202
v 0.50592 -0.309155 0.0205879
v 0.50592 -0.308517 -0.020605
v 0.50592 -0.306582 -0.0892237
v 0.50592 -0.2953 -0.391124
v 0.50592 -0.294955 -0.399959
v 0.50592 -0.294348 -0.413672
v 0.542154 -0.311319 -0.404891
v 0.542154 -0.310451 -0.418604
v 0.542154 -0.309521 -0.432317
v 0.542154 -0.308579 -0.44603
v 0.555878 -0.309081 -0.487223
v 0.555878 -0.310043 -0.47351
v 0.555878 -0.310692 -0.459797
v 0.54936 -0.315794 -0.363698
v 0.566515 -0.305317 -0.499906
v 0.551797 -0.316861 -0.29508
v 0.566533 -0.305631 -0.487223
v 0.552697 -0.317833 -0.212748
v 0.551766 -0.317739 -0.144129
v 0.551928 -0.317854 -0.157897
v 0.552178 -0.317928 -0.171609
v 0.542154 -0.319235 -0.116704
v 0.566208 -0.305819 -0.47351
v 0.565927 -0.305798 -0.459797
v 0.530418 -0.317572 -0.00689211
v 0.50592 -0.309155 0.0392331
v 0.50592 -0.309196 0.0343008
v 0.542154 -0.31912 -0.102991
v 0.50592 -0.293564 -0.427385
v 0.50592 -0.293261 -0.432317
v 0.542154 -0.307513 -0.459797
v 0.555878 -0.308025 -0.499906
v 0.569552 -0.295917 -0.499906
v 0.551447 -0.317572 -0.130417
v 0.542154 -0.318576 -0.0617979
v 0.542154 -0.318806 -0.0755108
v 0.542154 -0.318973 -0.0892237
v 0.559028 -0.30882 -0.226461
v 0.563827 -0.30446 -0.336273
v 0.540579 -0.317572 -0.00689211
v 0.530799 -0.31729 0.00682079
v 0.524562 -0.314843 0.0343008
v 0.50592 -0.308872 0.052946
v 0.50592 -0.308935 0.0500733
v 0.50592 -0.308977 0.0480137
v 0.50592 -0.286851 -0.499906
v 0.543329 -0.305411 -0.487223
v 0.544441 -0.304658 -0.499906
v 0.545423 -0.304951 -0.499906
v 0.569764 -0.295091 -0.499906
v 0.549916 -0.316526 -0.0617979
v 0.551135 -0.317373 -0.116704
v 0.562884 -0.302379 -0.272315
v 0.558578 -0.30882 -0.212748
v 0.54906 -0.315721 -0.0270007
v 0.539929 -0.31729 0.00682079
v 0.532449 -0.31637 0.0480137
v 0.531424 -0.316673 0.0343008
v 0.525587 -0.314676 0.0480137
v 0.50592 -0.308841 0.0538132
v 0.50592 -0.212777 -0.499906
v 0.551241 -0.212777 -0.499906
v 0.555953 -0.212777 -0.459797
v 0.557259 -0.212777 -0.44603
v 0.558303 -0.212777 -0.432317
v 0.559209 -0.212777 -0.418604
v 0.560003 -0.212777 -0.404891
v 0.56079 -0.212777 -0.391124
v 0.561259 -0.212777 -0.377736
v 0.561415 -0.212777 -0.368793
v 0.561465 -0.212777 -0.363698
v 0.561465 -0.212777 -0.362452
v 0.561315 -0.212777 -0.348847
v 0.560103 -0.212777 -0.254917
v 0.553934 -0.212777 0.0538132
v 0.549591 -0.316202 -0.048085
v 0.549178 -0.302431 0.0538132
v 0.55614 -0.30882 -0.144129
v 0.551441 -0.30882 -0.0343179
v 0.547166 -0.304972 0.0538132
v 0.546791 -0.313013 0.00682079
v 0.536505 -0.316171 0.0538132
v 0.537036 -0.31637 0.0480137
v 0.538017 -0.316673 0.0343008
v 0.533199 -0.316171 0.0538132
v 0.531093 -0.315721 0.0538132
v 0.526899 -0.314686 0.0538132
v 0.50592 -0.212777 0.0538132
v 0.543335 -0.309385 0.0538132
v 0.543891 -0.309688 0.0480137
v 0.539767 -0.312982 0.0538132
f 1 2 3
f 1 3 4
f 1 4 5
f 1 5 6
f 1 6 7
f 1 7 8
f 1 8 9
f 1 9 10
f 1 10 11
f 1 11 12
f 1 12 2
f 2 12 13
f 2 13 14
f 2 14 15
f 2 15 3
f 3 15 16
f 3 16 4
f 4 16 17
f 4 17 5
f 5 17 18
f 5 18 19
f 5 19 20
f 5 20 21
f 5 21 22
f 5 22 23
f 5 23 7
f 5 7 6
f 7 23 24
f 7 24 25
f 7 25 26
f 7 26 27
f 7 27 28
f 7 28 8
f 8 28 29
f 8 29 30
f 8 30 9
f 9 30 29
f 9 29 31
f 9 31 32
f 9 32 10
f 10 32 33
f 10 33 11
f 11 33 34
f 11 34 12
f 12 34 33
f 12 33 13
f 13 35 36
f 13 36 37
f 13 37 38
f 13 38 14
f 13 33 39
f 13 39 40
f 13 40 35
f 14 38 15
f 15 41 42
f 15 42 43
f 15 43 16
f 15 38 44
f 15 44 41
f 16 43 42
f 16 42 61
f 16 61 60
f 16 60 59
f 16 59 76
f 16 76 104
f 16 104 77
f 16 77 62
f 16 62 46
f 16 46 45
f 16 45 22
f 16 22 21
f 16 21 20
f 16 20 19
f 16 19 18
f 16 18 17
f 22 45 23
f 23 45 46
f 23 46 24
f 24 46 25
f 25 46 26
f 26 47 27
f 26 46 47
f 27 48 31
f 27 31 28
f 27 47 48
f 28 31 29
f 31 48 65
f 31 65 64
f 31 64 62
f 31 62 77
f 31 77 78
f 31 78 66
f 31 66 49
f 31 49 33
f 31 33 32
f 33 49 39
f 35 50 51
f 35 51 52
f 35 52 53
f 35 53 44
f 35 44 36
f 35 40 54
f 35 54 50
f 36 44 37
f 37 44 38
f 39 49 55
f 39 55 40
f 40 55 54
f 41 44 53
f 41 53 52
f 41 52 51
f 41 51 56
f 41 56 72
f 41 72 57
f 41 57 58
f 41 58 59
f 41 59 60
f 41 60 61
f 41 61 42
f 46 62 47
f 47 62 63
f 47 63 64
f 47 64 65
f 47 65 48
f 49 66 55
f 50 67 68
f 50 68 51
f 50 54 67
f 51 68 67
f 51 67 56
f 54 55 69
f 54 69 70
f 54 70 67
f 55 66 69
f 56 71 72
f 56 67 71
f 57 72 99
f 57 99 73
f 57 73 74
f 57 74 58
f 58 74 75
f 58 75 59
f 59 75 76
f 62 64 63
f 66 78 79
f 66 79 80
f 66 80 81
f 66 81 82
f 66 82 83
f 66 83 84
f 66 84 85
f 66 85 86
f 66 86 87
f 66 87 88
f 66 88 89
f 66 89 90
f 66 90 91
f 66 91 69
f 67 92 71
f 67 70 92
f 69 91 93
f 69 93 94
f 69 94 70
f 70 94 71
f 70 71 92
f 71 95 93
f 71 93 96
f 71 96 97
f 71 97 98
f 71 98 99
f 71 99 100
f 71 100 72
f 71 94 95
f 72 100 99
f 73 99 98
f 73 98 101
f 73 101 102
f 73 102 103
f 73 103 75
f 73 75 74
f 75 103 76
f 76 103 102
f 76 102 101
f 76 101 98
f 76 98 107
f 76 107 105
f 76 105 96
f 76 96 93
f 76 93 91
f 76 91 104
f 77 104 91
f 77 91 90
f 77 90 89
f 77 89 88
f 77 88 87
f 77 87 86
f 77 86 85
f 77 85 84
f 77 84 83
f 77 83 82
f 77 82 81
f 77 81 80
f 77 80 79
f 77 79 78
f 93 95 94
f 96 105 106
f 96 106 97
f 97 106 105
f 97 105 107
f 97 107 98
