v 0.547341 0.281445 0.225488
v 0.517507 0.281445 0.225488
v 0.549547 0.276017 0.225488
v 0.547634 0.281445 0.212733
v 0.517507 0.281445 0.0538132
v 0.517507 -0.0694179 0.225488
v 0.549619 0.276288 0.212733
v 0.550927 0.268237 0.225488
v 0.568096 0.185282 0.075491
v 0.546287 0.281445 0.130408
v 0.544289 0.281445 0.0538132
v 0.517507 -0.180643 0.0538132
v 0.517507 -0.180643 0.15622
v 0.519114 -0.180643 0.155144
v 0.536362 -0.0480233 0.225488
v 0.548435 0.272172 0.0892203
v 0.565382 0.198987 0.075491
v 0.561861 0.215271 0.0617785
v 0.55933 0.226443 0.0617785
v 0.555945 0.240193 0.0617785
v 0.550062 0.26489 0.075491
v 0.56054 0.212738 0.225488
v 0.560853 0.212738 0.212733
v 0.569984 0.171532 0.0892203
v 0.570127 0.171532 0.075491
v 0.567771 0.185282 0.0617785
v 0.565161 0.198987 0.0617785
v 0.548298 0.27172 0.075491
v 0.545011 0.281354 0.075491
v 0.544979 0.281445 0.0754238
v 0.544575 0.281445 0.0616945
v 0.544321 0.281354 0.0538132
v 0.565089 -0.180643 0.0538132
v 0.529677 -0.180643 0.147431
v 0.541022 -0.0411933 0.225488
v 0.538321 -0.180643 0.140222
v 0.563267 0.208396 0.0617785
v 0.561764 0.214683 0.0538132
v 0.560176 0.221739 0.0538132
v 0.559108 0.226443 0.0538132
v 0.555665 0.240193 0.0538132
v 0.552463 0.253899 0.0617785
v 0.549873 0.263985 0.0617785
v 0.562128 0.202606 0.225488
v 0.571767 0.157826 0.0892203
v 0.562239 0.201882 0.225488
v 0.569743 0.171532 0.0617785
v 0.571637 0.157826 0.075491
v 0.576603 0.110785 0.0538132
v 0.567433 0.185282 0.0538132
v 0.565949 0.193243 0.0538132
v 0.563931 0.203872 0.0538132
v 0.569437 0.171532 0.0538132
v 0.548064 0.270861 0.0617785
v 0.545773 0.276922 0.0538132
v 0.565148 -0.180643 0.0582496
v 0.56615 -0.176708 0.0538132
v 0.544198 -0.0365344 0.225488
v 0.540644 -0.180643 0.137802
v 0.549684 0.263262 0.0538132
v 0.57879 0.0892099 0.0538132
v 0.577416 0.103051 0.0538132
v 0.563091 0.195052 0.225488
v 0.58138 0.048049 0.185292
v 0.582922 0.0343438 0.171562
v 0.547875 0.270137 0.0538132
v 0.565181 -0.180643 0.0617785
v 0.567608 -0.171551 0.0617785
v 0.567524 -0.171551 0.0538132
v 0.548213 -0.0396554 0.218632
v 0.550433 -0.0304733 0.221589
v 0.545467 -0.0340014 0.225488
v 0.545831 -0.180643 0.132021
v 0.579154 0.0834202 0.0538132
v 0.575939 0.0742834 0.225488
v 0.576759 0.0708458 0.22211
v 0.578516 0.0617542 0.212733
v 0.580736 0.048049 0.199004
v 0.582734 0.0343438 0.185292
v 0.583716 0.0205933 0.171562
v 0.583612 0.0205933 0.157833
v 0.564985 -0.180643 0.0722982
v 0.570921 -0.157801 0.0617785
v 0.570648 -0.157801 0.075491
v 0.567309 -0.171551 0.075491
v 0.570804 -0.157801 0.0538132
v 0.572223 0.0218598 0.225488
v 0.551572 -0.0212913 0.225488
v 0.550563 -0.180643 0.125837
v 0.579525 0.0754594 0.0538132
v 0.577176 0.0617542 0.225488
v 0.577306 0.0617542 0.224665
v 0.579584 0.048049 0.212733
v 0.581471 0.0343438 0.199004
v 0.582571 0.0205933 0.185292
v 0.58302 0.00688808 0.171562
v 0.58399 0.00688808 0.157833
v 0.583775 0.00688808 0.144104
v 0.564914 -0.180643 0.075491
v 0.574162 -0.144096 0.0617785
v 0.573928 -0.144096 0.075491
v 0.56947 -0.157801 0.0892203
v 0.566118 -0.171551 0.0892203
v 0.56384 -0.180643 0.0882456
v 0.573999 -0.144096 0.0538132
v 0.572516 0.0226287 0.225488
v 0.555099 -0.180643 0.116965
v 0.583788 -0.00686237 0.130408
v 0.581868 -0.0617285 0.0538132
v 0.577644 0.0483656 0.225488
v 0.577651 0.048049 0.225488
v 0.5792 0.0343438 0.212733
v 0.580143 0.0205933 0.199004
v 0.579486 -0.0754789 0.130408
v 0.581198 -0.0617285 0.130408
v 0.583215 -0.00686237 0.157833
v 0.583202 -0.0205676 0.144104
v 0.583163 -0.0342728 0.130408
v 0.583892 -0.00686237 0.144104
v 0.57521 -0.138577 0.0538132
v 0.57603 -0.134778 0.0538132
v 0.576115 -0.135004 0.0617785
v 0.572685 -0.144096 0.0892203
v 0.575998 -0.134416 0.075491
v 0.575366 -0.132019 0.0892203
v 0.562948 -0.179195 0.0967823
v 0.576479 -0.12356 0.0961606
v 0.574318 -0.129033 0.101622
v 0.563365 -0.180643 0.0917242
v 0.563755 -0.180643 0.0892203
v 0.576329 0.0343438 0.225488
v 0.573381 -0.0884152 0.143112
v 0.560475 -0.180643 0.103437
v 0.562805 -0.164902 0.109991
v 0.569776 -0.11664 0.130408
v 0.583664 -0.0205676 0.130408
v 0.58345 -0.0205676 0.116679
v 0.581614 -0.0754789 0.0538132
v 0.577644 0.0479585 0.225488
v 0.577078 0.0343438 0.222497
v 0.576531 0.0272876 0.219825
v 0.577436 -0.0754789 0.14044
v 0.577468 -0.0884152 0.129854
v 0.57752 -0.102392 0.116259
v 0.579473 -0.0891842 0.116679
v 0.581035 -0.0754789 0.116679
v 0.582395 -0.0480233 0.130408
v 0.582148 -0.0617285 0.116679
v 0.582857 -0.0480233 0.116679
v 0.577221 -0.127903 0.0538132
v 0.577189 -0.128174 0.0617785
v 0.577097 -0.127586 0.075491
v 0.576759 -0.125143 0.0892203
v 0.562109 -0.180643 0.0982107
v 0.562746 -0.180643 0.0955892
v 0.57042 -0.144096 0.10295
v 0.57685 -0.111348 0.111402
v 0.574449 -0.116233 0.116259
v 0.570544 -0.13039 0.116679
v 0.578048 -0.11664 0.0892203
v 0.577176 -0.116233 0.101622
v 0.575744 -0.12053 0.105302
v 0.575685 -0.0924409 0.134072
v 0.582454 -0.0617285 0.10295
v 0.582317 -0.0617285 0.0892203
v 0.581055 -0.0891842 0.0538132
v 0.576661 -0.083304 0.137903
v 0.576779 -0.0974616 0.12493
v 0.579063 -0.102935 0.10295
v 0.58166 -0.0754789 0.10295
v 0.580527 -0.0891842 0.10295
v 0.578145 -0.12148 0.0538132
v 0.578796 -0.11664 0.0538132
v 0.578738 -0.11664 0.0617785
v 0.578549 -0.11664 0.075491
v 0.575757 -0.106598 0.120561
v 0.579727 -0.102935 0.0892203
v 0.581797 -0.0754789 0.0892203
v 0.580228 -0.102935 0.0538132
v 0.580898 -0.0891842 0.0892203
v 0.579642 -0.108679 0.0538132
v 0.579987 -0.102935 0.075491
f 1 2 6
f 1 6 15
f 1 15 35
f 1 35 58
f 1 58 72
f 1 72 88
f 1 88 87
f 1 87 106
f 1 106 131
f 1 131 139
f 1 139 111
f 1 111 110
f 1 110 91
f 1 91 75
f 1 75 63
f 1 63 46
f 1 46 44
f 1 44 22
f 1 22 8
f 1 8 3
f 1 3 4
f 1 4 10
f 1 10 30
f 1 30 31
f 1 31 11
f 1 11 5
f 1 5 2
f 2 5 12
f 2 12 13
f 2 13 6
f 3 7 4
f 3 8 9
f 3 9 7
f 4 7 10
f 5 11 32
f 5 32 55
f 5 55 66
f 5 66 60
f 5 60 41
f 5 41 40
f 5 40 39
f 5 39 38
f 5 38 52
f 5 52 51
f 5 51 50
f 5 50 53
f 5 53 49
f 5 49 62
f 5 62 61
f 5 61 74
f 5 74 90
f 5 90 109
f 5 109 138
f 5 138 166
f 5 166 179
f 5 179 181
f 5 181 173
f 5 173 172
f 5 172 150
f 5 150 121
f 5 121 120
f 5 120 105
f 5 105 86
f 5 86 69
f 5 69 57
f 5 57 33
f 5 33 12
f 6 13 14
f 6 14 15
f 7 16 10
f 7 9 17
f 7 17 18
f 7 18 19
f 7 19 20
f 7 20 21
f 7 21 16
f 8 22 23
f 8 23 9
f 9 24 25
f 9 25 26
f 9 26 27
f 9 27 17
f 9 23 24
f 10 16 28
f 10 28 29
f 10 29 30
f 11 31 32
f 12 33 56
f 12 56 67
f 12 67 82
f 12 82 99
f 12 99 104
f 12 104 130
f 12 130 129
f 12 129 155
f 12 155 154
f 12 154 133
f 12 133 107
f 12 107 89
f 12 89 73
f 12 73 59
f 12 59 36
f 12 36 34
f 12 34 14
f 12 14 13
f 14 34 15
f 15 34 36
f 15 36 35
f 16 21 28
f 17 27 37
f 17 37 18
f 18 37 38
f 18 38 39
f 18 39 19
f 19 39 40
f 19 40 20
f 20 40 41
f 20 41 42
f 20 42 21
f 21 42 43
f 21 43 28
f 22 44 23
f 23 44 24
f 24 45 25
f 24 44 46
f 24 46 45
f 25 47 26
f 25 45 48
f 25 48 49
f 25 49 47
f 26 50 51
f 26 51 52
f 26 52 27
f 26 47 53
f 26 53 50
f 27 52 38
f 27 38 37
f 28 54 32
f 28 32 31
f 28 31 30
f 28 30 29
f 28 43 54
f 32 54 55
f 33 57 56
f 35 36 58
f 36 59 58
f 41 60 43
f 41 43 42
f 43 60 66
f 43 66 54
f 45 61 62
f 45 62 49
f 45 49 48
f 45 46 63
f 45 63 64
f 45 64 65
f 45 65 61
f 47 49 53
f 54 66 55
f 56 57 68
f 56 68 67
f 57 69 68
f 58 70 71
f 58 71 72
f 58 59 73
f 58 73 70
f 61 65 74
f 63 75 76
f 63 76 77
f 63 77 78
f 63 78 64
f 64 78 79
f 64 79 65
f 65 79 80
f 65 80 81
f 65 81 74
f 67 68 82
f 68 69 83
f 68 83 84
f 68 84 85
f 68 85 82
f 69 86 83
f 70 73 71
f 71 87 88
f 71 88 72
f 71 73 89
f 71 89 87
f 74 81 90
f 75 91 92
f 75 92 76
f 76 92 77
f 77 92 93
f 77 93 78
f 78 93 79
f 79 94 95
f 79 95 80
f 79 93 94
f 80 95 96
f 80 96 97
f 80 97 81
f 81 97 98
f 81 98 90
f 82 85 99
f 83 86 100
f 83 100 101
f 83 101 84
f 84 101 102
f 84 102 85
f 85 102 103
f 85 103 104
f 85 104 99
f 86 105 100
f 87 89 106
f 89 107 106
f 90 98 108
f 90 108 109
f 91 110 92
f 92 110 93
f 93 110 111
f 93 111 94
f 94 112 95
f 94 111 112
f 95 112 113
f 95 113 114
f 95 114 115
f 95 115 96
f 96 116 97
f 96 115 116
f 97 116 117
f 97 117 118
f 97 118 119
f 97 119 108
f 97 108 98
f 100 105 120
f 100 120 121
f 100 121 122
f 100 122 101
f 101 123 102
f 101 122 124
f 101 124 125
f 101 125 123
f 102 126 103
f 102 123 127
f 102 127 128
f 102 128 126
f 103 126 129
f 103 129 130
f 103 130 104
f 106 107 132
f 106 132 131
f 107 133 134
f 107 134 135
f 107 135 132
f 108 119 136
f 108 136 137
f 108 137 109
f 109 137 136
f 109 136 138
f 111 139 112
f 112 139 140
f 112 140 113
f 113 140 141
f 113 141 142
f 113 142 114
f 114 142 143
f 114 143 144
f 114 144 145
f 114 145 115
f 115 145 146
f 115 146 147
f 115 147 116
f 116 147 117
f 117 147 118
f 118 147 148
f 118 148 149
f 118 149 136
f 118 136 119
f 121 150 122
f 122 150 151
f 122 151 152
f 122 152 124
f 123 125 127
f 124 152 153
f 124 153 125
f 125 153 127
f 126 154 155
f 126 155 129
f 126 128 156
f 126 156 157
f 126 157 158
f 126 158 159
f 126 159 154
f 127 153 160
f 127 160 161
f 127 161 157
f 127 157 162
f 127 162 128
f 128 162 156
f 131 141 140
f 131 140 139
f 131 132 141
f 132 135 163
f 132 163 141
f 133 154 159
f 133 159 163
f 133 163 134
f 134 163 135
f 136 149 164
f 136 164 165
f 136 165 138
f 138 165 164
f 138 164 166
f 141 163 167
f 141 167 142
f 142 167 143
f 143 167 168
f 143 168 157
f 143 157 144
f 144 157 145
f 145 157 169
f 145 169 146
f 146 170 148
f 146 148 147
f 146 169 171
f 146 171 170
f 148 170 164
f 148 164 149
f 150 172 151
f 151 172 173
f 151 173 174
f 151 174 152
f 152 174 175
f 152 175 160
f 152 160 153
f 156 162 157
f 157 161 169
f 157 168 176
f 157 176 158
f 158 176 163
f 158 163 159
f 160 175 177
f 160 177 169
f 160 169 161
f 163 176 168
f 163 168 167
f 164 170 178
f 164 178 166
f 166 178 179
f 169 177 171
f 170 171 180
f 170 180 178
f 171 177 180
f 173 181 174
f 174 181 182
f 174 182 175
f 175 182 177
f 177 182 180
f 178 180 179
f 179 180 182
f 179 182 181
