v -0.088448 0.254492 -0.686407
v -0.088448 0.295112 -0.684914
v -0.0882122 0.267671 -0.686319
v -0.0750672 0.267653 -0.68626
v -0.0707052 0.255159 -0.68626
v 0.0338065 0.254492 -0.685119
v -0.088448 0.254492 -0.387353
v -0.088448 0.308833 -0.683304
v -0.0754208 0.308833 -0.68427
v -0.0754208 0.295112 -0.685646
v -0.0616864 0.281392 -0.686026
v 0.130419 0.254492 -0.68386
v 0.103009 0.432877 -0.387353
v -0.0827302 0.438683 -0.388553
v -0.088448 0.435744 -0.405268
v 0.513747 0.254492 -0.387353
v -0.088448 0.322211 -0.679908
v -0.0754208 0.327674 -0.677771
v 0.322525 0.314891 -0.672326
v 0.281322 0.308833 -0.675137
v 0.267587 0.295112 -0.679001
v 0.253912 0.281392 -0.681196
v 0.253912 0.267653 -0.682074
v 0.267057 0.254492 -0.682016
v 0.0892749 0.433544 -0.389285
v 0.0755404 0.434157 -0.389285
v 0.0324507 0.435473 -0.389285
v 0.183471 0.427486 -0.387353
v 0.156002 0.42947 -0.389285
v 0.142268 0.430353 -0.389285
v 0.0618059 0.433184 -0.404916
v 0.0892749 0.430786 -0.418675
v 0.0755404 0.43111 -0.418675
v 0.0892749 0.428875 -0.432375
v -0.0616864 0.43587 -0.404916
v -0.0754208 0.435924 -0.404916
v -0.0616864 0.433364 -0.418675
v -0.088448 0.432769 -0.418675
v 0.513747 0.254492 -0.65687
v 0.513747 0.363301 -0.387353
v -0.088448 0.336166 -0.672297
v 0.432283 0.340746 -0.657368
v 0.404814 0.334399 -0.661788
v 0.391138 0.322554 -0.667613
v 0.336201 0.314242 -0.672122
v 0.349935 0.310041 -0.672824
v 0.281322 0.295112 -0.678591
v 0.267587 0.281392 -0.680874
v 0.295056 0.267653 -0.681167
v 0.281322 0.267653 -0.681489
v 0.308201 0.254492 -0.681372
v 0.295056 0.254492 -0.681635
v 0.0892749 0.432246 -0.404916
v 0.0755404 0.432805 -0.404916
v 0.169736 0.428496 -0.389285
v 0.387307 0.407509 -0.387353
v 0.34799 0.414216 -0.388319
v 0.336201 0.415226 -0.389285
v 0.349935 0.413928 -0.404916
v 0.354651 0.412233 -0.430647
v 0.391138 0.406157 -0.473533
v 0.157888 0.428045 -0.404916
v 0.144154 0.428929 -0.404916
v 0.116744 0.429433 -0.418675
v 0.103009 0.430209 -0.418675
v 0.116744 0.428027 -0.432375
v 0.103009 0.428586 -0.432375
v 0.103009 0.426549 -0.444669
v -0.0479519 0.433202 -0.418675
v 0.0480715 0.425593 -0.453539
v 0.0343959 0.425665 -0.453803
v -0.0479519 0.430479 -0.432375
v -0.0434131 0.425665 -0.453627
v -0.088448 0.429055 -0.432375
v 0.513747 0.349995 -0.641619
v 0.432283 0.254492 -0.677274
v 0.449436 0.256096 -0.673644
v 0.448552 0.268194 -0.672765
v 0.443424 0.286332 -0.671858
v 0.446017 0.308833 -0.667526
v 0.513747 0.366798 -0.433341
v 0.473427 0.38829 -0.487262
v 0.471895 0.386811 -0.459862
v 0.462522 0.385081 -0.387353
v -0.088448 0.346263 -0.662666
v -0.0479519 0.346641 -0.662286
v 0.485865 0.356125 -0.644868
v 0.446017 0.336617 -0.65889
v 0.432283 0.333876 -0.661144
v 0.404814 0.322554 -0.667145
v 0.36367 0.309194 -0.672619
v 0.281322 0.281392 -0.680435
v 0.391138 0.307264 -0.672122
v 0.349935 0.295112 -0.67622
v 0.336201 0.281392 -0.67862
v 0.308791 0.267653 -0.680816
v 0.321936 0.254492 -0.68105
v 0.349935 0.413423 -0.418675
v 0.446017 0.391445 -0.387353
v 0.416721 0.401073 -0.388319
v 0.402928 0.404462 -0.388319
v 0.404814 0.404787 -0.404916
v 0.404814 0.405292 -0.418675
v 0.36585 0.411584 -0.388319
v 0.365379 0.412017 -0.404916
v 0.364966 0.411909 -0.418675
v 0.377404 0.409276 -0.446104
v 0.391138 0.407023 -0.459862
v 0.404814 0.403903 -0.487262
v 0.130419 0.42855 -0.418675
v 0.404814 0.402497 -0.50102
v 0.130419 0.424151 -0.454447
v 0.116744 0.426332 -0.444201
v 0.418548 0.400171 -0.51472
v 0.429925 0.398368 -0.523736
v 0.0674058 0.425467 -0.452895
v 0.144154 0.420527 -0.473533
v 0.130419 0.420761 -0.473533
v 0.144154 0.417804 -0.487262
v 0.0206615 0.424908 -0.457315
v -0.00680746 0.42123 -0.473533
v -0.0205419 0.421176 -0.473533
v -0.0342174 0.420689 -0.473533
v -0.048954 0.397467 -0.550257
v -0.088448 0.404192 -0.51472
v -0.0342174 0.416867 -0.487262
v -0.0342174 0.412341 -0.50304
v -0.0342174 0.408934 -0.51472
v 0.46152 0.334183 -0.657983
v 0.513747 0.364563 -0.635823
v 0.418548 0.254492 -0.678298
v 0.418548 0.267653 -0.677215
v 0.432283 0.267653 -0.676103
v 0.432283 0.281392 -0.674463
v 0.432283 0.294157 -0.672356
v 0.432283 0.308833 -0.669604
v 0.446017 0.322554 -0.664159
v 0.513747 0.376084 -0.582458
v 0.493705 0.384161 -0.559771
v 0.473427 0.389299 -0.50102
v 0.459752 0.393014 -0.473533
v 0.459752 0.39195 -0.459862
v -0.088448 0.355999 -0.646976
v -0.0342174 0.361444 -0.642936
v -0.0205419 0.361714 -0.642907
v 0.487162 0.372081 -0.627392
v 0.432283 0.322554 -0.665828
v 0.418548 0.322554 -0.666618
v 0.377404 0.308292 -0.672356
v 0.377404 0.295112 -0.675224
v 0.418548 0.308833 -0.67057
v 0.403576 0.299566 -0.673205
v 0.349935 0.281392 -0.678123
v 0.446017 0.394871 -0.432375
v 0.431517 0.397755 -0.404916
v 0.430102 0.397106 -0.390251
v 0.429512 0.399378 -0.418675
v 0.418548 0.40165 -0.404916
v 0.418548 0.402371 -0.418675
v 0.418548 0.40302 -0.432375
v 0.404814 0.405688 -0.432375
v 0.377404 0.410106 -0.418675
v 0.377404 0.409907 -0.432375
v 0.404814 0.404769 -0.473533
v 0.432283 0.400009 -0.50102
v 0.441243 0.397954 -0.517852
v 0.446017 0.396583 -0.528449
v 0.446017 0.394871 -0.54212
v 0.144154 0.422636 -0.459862
v 0.459752 0.389949 -0.569607
v 0.476021 0.385838 -0.587639
v 0.144154 0.414649 -0.50102
v 0.157888 0.41144 -0.513432
v 0.006927 0.41784 -0.487262
v 0.0206615 0.413297 -0.505148
v -0.00680746 0.417714 -0.487262
v -0.0205419 0.41748 -0.487262
v -0.088448 0.376318 -0.597036
v -0.088448 0.381691 -0.582136
v -0.088448 0.386 -0.569929
v -0.088448 0.398945 -0.531669
v -0.0342174 0.404895 -0.528449
v -0.0205419 0.40567 -0.528449
v -0.0205419 0.401433 -0.54212
v -0.0342174 0.397142 -0.553331
v -0.0342174 0.391481 -0.569607
v -0.0348069 0.38371 -0.591445
v -0.0479519 0.384972 -0.58518
v -0.0195988 0.411674 -0.507724
v 0.513747 0.37282 -0.624611
v 0.418548 0.281392 -0.675576
v 0.418548 0.297096 -0.672883
v 0.513747 0.376841 -0.596158
v 0.493528 0.384251 -0.580789
v 0.473427 0.390796 -0.54212
v 0.473427 0.390724 -0.528449
v 0.473427 0.390111 -0.51472
v 0.459752 0.393951 -0.487262
v 0.447491 0.396313 -0.459862
v -0.088448 0.365807 -0.624465
v -0.0479519 0.370206 -0.623645
v -0.0342174 0.370639 -0.62467
v -0.00680746 0.369485 -0.628768
v 0.006927 0.369503 -0.629236
v 0.487162 0.379311 -0.610765
v 0.0343959 0.373379 -0.622357
v 0.0480715 0.379257 -0.610765
v 0.0618059 0.384936 -0.598646
v 0.391138 0.295112 -0.674639
v 0.437706 0.398458 -0.444347
v 0.430986 0.399757 -0.432375
v 0.418548 0.403399 -0.446104
v 0.440594 0.398477 -0.459862
v 0.432283 0.400622 -0.459862
v 0.404814 0.405634 -0.446104
v 0.391138 0.407888 -0.432375
v 0.418548 0.403309 -0.459862
v 0.391138 0.407582 -0.446104
v 0.404814 0.405256 -0.459862
v 0.418548 0.402894 -0.473533
v 0.432283 0.400478 -0.487262
v 0.445546 0.397936 -0.50102
v 0.459752 0.3946 -0.528449
v 0.459752 0.393663 -0.54212
v 0.459752 0.392058 -0.555849
v 0.473427 0.388939 -0.569607
v 0.513747 0.376174 -0.609828
v 0.157888 0.407509 -0.528449
v 0.0343959 0.413351 -0.505265
v 0.006927 0.411061 -0.51232
v 0.006927 0.414216 -0.50102
v 0.0618059 0.394654 -0.569607
v -0.00680746 0.412431 -0.506406
v -0.00680746 0.406157 -0.528449
v -0.088448 0.370873 -0.61176
v -0.0479519 0.380645 -0.597036
v -0.00680746 0.401812 -0.54212
v 0.0618059 0.390562 -0.583278
v -0.0205419 0.397431 -0.554122
v -0.0205419 0.392058 -0.569607
v -0.0479519 0.375507 -0.610765
v 0.0480715 0.384738 -0.598324
v -0.0342174 0.376408 -0.610765
v 0.473427 0.390201 -0.555849
v 0.459752 0.394889 -0.51472
v 0.459752 0.3946 -0.50102
v 0.445133 0.397755 -0.473533
v 0.0343959 0.378986 -0.610765
v 0.0206615 0.373127 -0.622357
v 0.171623 0.398531 -0.557459
v 0.171623 0.403309 -0.54212
v 0.432283 0.400694 -0.473533
v 0.445723 0.397936 -0.487262
f 1 2 3
f 1 3 4
f 1 4 5
f 1 5 6
f 1 6 12
f 1 12 24
f 1 24 52
f 1 52 51
f 1 51 97
f 1 97 131
f 1 131 76
f 1 76 39
f 1 39 16
f 1 16 7
f 1 7 15
f 1 15 38
f 1 38 74
f 1 74 125
f 1 125 181
f 1 181 180
f 1 180 179
f 1 179 178
f 1 178 235
f 1 235 200
f 1 200 143
f 1 143 85
f 1 85 41
f 1 41 17
f 1 17 8
f 1 8 2
f 2 8 9
f 2 9 10
f 2 10 3
f 3 10 11
f 3 11 4
f 4 11 6
f 4 6 5
f 6 11 12
f 7 13 14
f 7 14 15
f 7 16 40
f 7 40 84
f 7 84 99
f 7 99 56
f 7 56 28
f 7 28 13
f 8 17 9
f 9 17 18
f 9 18 19
f 9 19 20
f 9 20 21
f 9 21 22
f 9 22 10
f 10 22 23
f 10 23 11
f 11 23 12
f 12 23 24
f 13 25 26
f 13 26 27
f 13 27 14
f 13 28 29
f 13 29 30
f 13 30 25
f 14 27 31
f 14 31 32
f 14 32 33
f 14 33 34
f 14 34 35
f 14 35 36
f 14 36 15
f 15 36 37
f 15 37 38
f 16 39 75
f 16 75 130
f 16 130 190
f 16 190 227
f 16 227 193
f 16 193 138
f 16 138 81
f 16 81 40
f 17 41 18
f 18 41 42
f 18 42 43
f 18 43 44
f 18 44 19
f 19 44 45
f 19 45 20
f 20 45 46
f 20 46 21
f 21 46 47
f 21 47 48
f 21 48 22
f 22 48 49
f 22 49 50
f 22 50 23
f 23 50 51
f 23 51 52
f 23 52 24
f 25 30 53
f 25 53 26
f 26 53 54
f 26 54 27
f 27 54 31
f 28 55 29
f 28 56 57
f 28 57 58
f 28 58 59
f 28 59 55
f 29 55 60
f 29 60 61
f 29 61 62
f 29 62 63
f 29 63 30
f 30 63 64
f 30 64 53
f 31 54 32
f 32 53 65
f 32 65 66
f 32 66 67
f 32 67 33
f 32 54 53
f 33 67 34
f 34 67 68
f 34 68 35
f 35 69 37
f 35 37 36
f 35 68 69
f 37 69 70
f 37 70 71
f 37 71 72
f 37 72 73
f 37 73 38
f 38 73 74
f 39 76 77
f 39 77 78
f 39 78 79
f 39 79 80
f 39 80 75
f 40 81 82
f 40 82 83
f 40 83 84
f 41 85 86
f 41 86 87
f 41 87 42
f 42 87 88
f 42 88 89
f 42 89 43
f 43 89 44
f 44 89 90
f 44 90 45
f 45 91 46
f 45 90 91
f 46 91 47
f 47 92 48
f 47 91 93
f 47 93 94
f 47 94 95
f 47 95 92
f 48 92 96
f 48 96 49
f 49 96 97
f 49 97 51
f 49 51 50
f 53 64 65
f 55 59 98
f 55 98 60
f 56 99 100
f 56 100 101
f 56 101 102
f 56 102 103
f 56 103 104
f 56 104 57
f 57 104 105
f 57 105 59
f 57 59 58
f 59 105 106
f 59 106 98
f 60 98 107
f 60 107 61
f 61 107 108
f 61 108 109
f 61 109 110
f 61 110 62
f 62 110 64
f 62 64 63
f 64 110 109
f 64 109 111
f 64 111 66
f 64 66 65
f 66 112 113
f 66 113 67
f 66 111 114
f 66 114 115
f 66 115 112
f 67 113 68
f 68 116 70
f 68 70 69
f 68 113 117
f 68 117 118
f 68 118 116
f 70 116 118
f 70 118 71
f 71 118 119
f 71 119 120
f 71 120 72
f 72 121 73
f 72 120 121
f 73 121 122
f 73 122 123
f 73 123 74
f 74 124 125
f 74 123 126
f 74 126 127
f 74 127 128
f 74 128 124
f 75 80 129
f 75 129 87
f 75 87 130
f 76 131 132
f 76 132 133
f 76 133 78
f 76 78 77
f 78 133 79
f 79 133 134
f 79 134 135
f 79 135 80
f 80 135 136
f 80 136 137
f 80 137 129
f 81 138 139
f 81 139 140
f 81 140 82
f 82 140 141
f 82 141 83
f 83 141 142
f 83 142 84
f 84 142 99
f 85 143 144
f 85 144 145
f 85 145 86
f 86 145 146
f 86 146 130
f 86 130 87
f 87 129 88
f 88 147 89
f 88 129 147
f 89 147 148
f 89 148 90
f 90 148 149
f 90 149 91
f 91 149 93
f 92 95 132
f 92 132 96
f 93 150 94
f 93 149 148
f 93 148 151
f 93 151 152
f 93 152 150
f 94 150 153
f 94 153 95
f 95 153 132
f 96 132 131
f 96 131 97
f 98 106 107
f 99 142 141
f 99 141 154
f 99 154 155
f 99 155 156
f 99 156 100
f 100 156 155
f 100 155 157
f 100 157 158
f 100 158 101
f 101 158 159
f 101 159 160
f 101 160 102
f 102 160 103
f 103 160 161
f 103 161 104
f 104 161 105
f 105 162 106
f 105 161 162
f 106 162 163
f 106 163 107
f 107 163 108
f 108 163 164
f 108 164 109
f 109 114 111
f 109 164 165
f 109 165 166
f 109 166 167
f 109 167 114
f 112 115 168
f 112 168 169
f 112 169 117
f 112 117 113
f 114 167 115
f 115 167 168
f 117 119 118
f 117 169 170
f 117 170 171
f 117 171 119
f 119 172 120
f 119 171 173
f 119 173 172
f 120 172 121
f 121 172 174
f 121 174 122
f 122 174 175
f 122 175 176
f 122 176 177
f 122 177 123
f 123 177 126
f 124 178 179
f 124 179 180
f 124 180 181
f 124 181 125
f 124 128 182
f 124 182 183
f 124 183 184
f 124 184 185
f 124 185 186
f 124 186 187
f 124 187 188
f 124 188 178
f 126 177 189
f 126 189 127
f 127 189 183
f 127 183 128
f 128 183 182
f 129 137 147
f 130 146 190
f 132 191 134
f 132 134 133
f 132 153 191
f 134 191 135
f 135 191 192
f 135 192 136
f 136 192 151
f 136 151 147
f 136 147 137
f 138 193 139
f 139 193 194
f 139 194 195
f 139 195 196
f 139 196 197
f 139 197 140
f 140 197 198
f 140 198 141
f 141 198 199
f 141 199 154
f 143 200 201
f 143 201 202
f 143 202 144
f 144 202 203
f 144 203 204
f 144 204 145
f 145 204 146
f 146 205 190
f 146 204 206
f 146 206 207
f 146 207 208
f 146 208 205
f 147 151 148
f 150 152 209
f 150 209 191
f 150 191 153
f 151 192 152
f 152 192 209
f 154 199 155
f 155 199 157
f 157 199 210
f 157 210 211
f 157 211 158
f 158 211 159
f 159 211 160
f 160 212 161
f 160 211 213
f 160 213 214
f 160 214 212
f 161 212 215
f 161 215 216
f 161 216 162
f 162 216 163
f 163 216 215
f 163 215 217
f 163 217 218
f 163 218 164
f 164 218 219
f 164 219 220
f 164 220 165
f 165 221 222
f 165 222 166
f 165 220 221
f 166 222 223
f 166 223 167
f 167 224 225
f 167 225 168
f 167 223 224
f 168 225 170
f 168 170 169
f 170 225 226
f 170 226 171
f 171 226 194
f 171 194 227
f 171 227 205
f 171 205 228
f 171 228 173
f 172 173 229
f 172 229 174
f 173 228 229
f 174 229 175
f 175 230 231
f 175 231 176
f 175 229 228
f 175 228 232
f 175 232 230
f 176 231 177
f 177 231 233
f 177 233 234
f 177 234 189
f 178 188 236
f 178 236 235
f 183 189 234
f 183 234 184
f 184 234 237
f 184 237 238
f 184 238 239
f 184 239 185
f 185 239 240
f 185 240 186
f 186 240 187
f 187 241 236
f 187 236 188
f 187 240 242
f 187 242 243
f 187 243 241
f 190 205 227
f 191 209 192
f 193 227 194
f 194 226 244
f 194 244 195
f 195 244 223
f 195 223 245
f 195 245 196
f 196 245 246
f 196 246 197
f 197 246 198
f 198 246 247
f 198 247 213
f 198 213 199
f 199 213 210
f 200 235 241
f 200 241 201
f 201 241 243
f 201 243 202
f 202 243 242
f 202 242 248
f 202 248 203
f 203 248 249
f 203 249 206
f 203 206 204
f 205 208 238
f 205 238 250
f 205 250 251
f 205 251 228
f 206 249 207
f 207 249 248
f 207 248 208
f 208 248 242
f 208 242 238
f 210 213 211
f 212 217 215
f 212 214 252
f 212 252 217
f 213 247 214
f 214 247 253
f 214 253 252
f 217 220 219
f 217 219 218
f 217 252 221
f 217 221 220
f 221 252 222
f 222 252 253
f 222 253 245
f 222 245 223
f 223 244 224
f 224 244 226
f 224 226 225
f 228 251 238
f 228 238 232
f 230 232 234
f 230 234 233
f 230 233 231
f 232 238 234
f 234 238 237
f 235 236 241
f 238 251 250
f 238 242 240
f 238 240 239
f 245 253 246
f 246 253 247
