v -0.19643 -0.156917 0.332185
v -0.19643 -0.287943 0.332185
v -0.19643 -0.156917 0.182528
v -0.472323 -0.156917 0.332185
v -0.199052 -0.287839 0.332185
v -0.199052 -0.288964 0.330515
v -0.199052 -0.294142 0.322546
v -0.19643 -0.293173 0.324084
v -0.19643 -0.333817 0.182528
v -0.497609 -0.156917 0.182528
v -0.495275 -0.156917 0.275609
v -0.481805 -0.161558 0.332185
v -0.206775 -0.287354 0.332185
v -0.210043 -0.288635 0.329988
v -0.212773 -0.3001 0.312643
v -0.199052 -0.300255 0.313038
v -0.19643 -0.299112 0.314826
v -0.19643 -0.333817 0.255921
v -0.541071 -0.333817 0.182528
v -0.557773 -0.259178 0.182528
v -0.563018 -0.260321 0.189984
v -0.563125 -0.246467 0.23046
v -0.554217 -0.200973 0.322546
v -0.554577 -0.198791 0.332185
v -0.497933 -0.156917 0.25513
v -0.49743 -0.156917 0.268168
v -0.543621 -0.192384 0.332185
v -0.391146 -0.274677 0.332185
v -0.213887 -0.29248 0.323879
v -0.212773 -0.304221 0.305787
v -0.19643 -0.313988 0.291269
v -0.199052 -0.304637 0.306182
v -0.19643 -0.304637 0.306168
v -0.19643 -0.330267 0.262308
v -0.350019 -0.333817 0.237888
v -0.541574 -0.333817 0.187758
v -0.560898 -0.267265 0.182528
v -0.563018 -0.261897 0.189984
v -0.563233 -0.259646 0.199023
v -0.563305 -0.245895 0.240202
v -0.563089 -0.23263 0.272343
v -0.555978 -0.201943 0.332185
v -0.497538 -0.156917 0.267757
v -0.497933 -0.156917 0.255232
v -0.399479 -0.274019 0.332185
v -0.38249 -0.301831 0.288017
v -0.377461 -0.312984 0.269984
v -0.377461 -0.317071 0.263114
v -0.19643 -0.317348 0.285439
v -0.377461 -0.322474 0.253928
v -0.36374 -0.328466 0.245432
v -0.350019 -0.332951 0.239396
v -0.36374 -0.332362 0.238561
v -0.363596 -0.333817 0.235983
v -0.539024 -0.333817 0.19788
v -0.54962 -0.302922 0.235558
v -0.549907 -0.304325 0.226476
v -0.563377 -0.261862 0.212749
v -0.563233 -0.262174 0.199023
v -0.563377 -0.257723 0.212749
v -0.563305 -0.249601 0.240202
v -0.563089 -0.23263 0.278788
v -0.559462 -0.212749 0.322546
v -0.558636 -0.212749 0.332185
v -0.403825 -0.273673 0.332185
v -0.391146 -0.316499 0.262147
v -0.377461 -0.327946 0.244406
v -0.391146 -0.321262 0.253928
v -0.391146 -0.331116 0.236452
v -0.391146 -0.333817 0.23153
v -0.538521 -0.333817 0.199814
v -0.549835 -0.28912 0.262059
v -0.550877 -0.291406 0.253928
v -0.554541 -0.281362 0.253928
v -0.563161 -0.261464 0.222096
v -0.563125 -0.248112 0.251541
v -0.563089 -0.234968 0.278788
v -0.557989 -0.216836 0.332185
v -0.418624 -0.272097 0.332185
v -0.400018 -0.315997 0.261312
v -0.528428 -0.333817 0.206392
v -0.391146 -0.327306 0.243308
v -0.537695 -0.333817 0.201455
v -0.548578 -0.246778 0.328977
v -0.551452 -0.238812 0.332185
v -0.551667 -0.281085 0.26704
v -0.536941 -0.330717 0.207681
v -0.554038 -0.231331 0.332185
v -0.555618 -0.226482 0.332185
v -0.561294 -0.239817 0.282568
v -0.432345 -0.270486 0.332185
v -0.446066 -0.268374 0.332185
v -0.539419 -0.248389 0.331775
v -0.546244 -0.245653 0.332185
v -0.539778 -0.248008 0.332185
v -0.538844 -0.248216 0.332185
f 1 2 8
f 1 8 17
f 1 17 33
f 1 33 31
f 1 31 49
f 1 49 34
f 1 34 18
f 1 18 9
f 1 9 3
f 1 3 10
f 1 10 25
f 1 25 44
f 1 44 43
f 1 43 26
f 1 26 11
f 1 11 4
f 1 4 12
f 1 12 27
f 1 27 24
f 1 24 42
f 1 42 64
f 1 64 78
f 1 78 89
f 1 89 88
f 1 88 85
f 1 85 94
f 1 94 95
f 1 95 96
f 1 96 92
f 1 92 91
f 1 91 79
f 1 79 65
f 1 65 45
f 1 45 28
f 1 28 13
f 1 13 5
f 1 5 2
f 2 5 6
f 2 6 7
f 2 7 8
f 3 9 19
f 3 19 37
f 3 37 20
f 3 20 10
f 4 11 12
f 5 13 14
f 5 14 6
f 6 14 15
f 6 15 7
f 7 16 8
f 7 15 16
f 8 16 17
f 9 18 35
f 9 35 54
f 9 54 70
f 9 70 81
f 9 81 83
f 9 83 71
f 9 71 55
f 9 55 36
f 9 36 19
f 10 20 21
f 10 21 22
f 10 22 23
f 10 23 24
f 10 24 25
f 11 26 27
f 11 27 12
f 13 28 14
f 14 29 15
f 14 28 29
f 15 30 31
f 15 31 32
f 15 32 16
f 15 29 28
f 15 28 30
f 16 32 17
f 17 32 33
f 18 34 35
f 19 36 37
f 20 37 21
f 21 37 38
f 21 38 59
f 21 59 39
f 21 39 22
f 22 39 40
f 22 40 41
f 22 41 23
f 23 41 24
f 24 41 42
f 24 27 43
f 24 43 44
f 24 44 25
f 26 43 27
f 28 45 46
f 28 46 30
f 30 46 47
f 30 47 48
f 30 48 31
f 31 33 32
f 31 48 50
f 31 50 51
f 31 51 52
f 31 52 49
f 34 49 35
f 35 49 52
f 35 52 51
f 35 51 53
f 35 53 54
f 36 55 56
f 36 56 57
f 36 57 58
f 36 58 59
f 36 59 38
f 36 38 37
f 39 59 58
f 39 58 60
f 39 60 40
f 40 60 58
f 40 58 61
f 40 61 77
f 40 77 62
f 40 62 41
f 41 62 63
f 41 63 42
f 42 63 64
f 45 65 46
f 46 65 66
f 46 66 47
f 47 66 48
f 48 66 50
f 50 67 51
f 50 66 68
f 50 68 67
f 51 67 53
f 53 67 54
f 54 67 69
f 54 69 70
f 55 71 56
f 56 72 73
f 56 73 74
f 56 74 75
f 56 75 57
f 56 71 72
f 57 75 58
f 58 75 76
f 58 76 61
f 61 76 77
f 62 77 63
f 63 77 64
f 64 77 78
f 65 79 66
f 66 79 80
f 66 80 81
f 66 81 68
f 67 68 82
f 67 82 69
f 68 81 82
f 69 82 81
f 69 81 70
f 71 83 72
f 72 84 85
f 72 85 86
f 72 86 73
f 72 83 87
f 72 87 84
f 73 86 74
f 74 88 89
f 74 89 90
f 74 90 77
f 74 77 76
f 74 76 75
f 74 86 88
f 77 90 78
f 78 90 89
f 79 91 81
f 79 81 80
f 81 91 92
f 81 92 93
f 81 93 87
f 81 87 83
f 84 87 94
f 84 94 85
f 85 88 86
f 87 93 95
f 87 95 94
f 92 96 93
f 93 96 95
