v -0.528809 0.34606 0.332193
v -0.535902 0.343712 0.332193
v -0.535902 0.343712 0.332202
v -0.528977 0.345079 0.336574
v -0.524775 0.343861 0.346236
v -0.518959 0.343861 0.346236
v -0.432326 0.345406 0.332193
v -0.537785 0.336906 0.332193
v -0.537886 0.33432 0.350002
v -0.537617 0.332418 0.363733
v -0.536508 0.330576 0.377447
v -0.5356 0.329684 0.38513
v -0.533919 0.342404 0.34135
v -0.51469 0.333785 0.377447
v -0.528406 0.337798 0.363733
v -0.528406 0.333726 0.377447
v -0.446076 0.33007 0.386436
v -0.446076 0.332894 0.377447
v -0.446076 0.337114 0.363733
v -0.432326 0.340621 0.350002
v -0.432326 0.34282 0.342033
v -0.432326 0.344633 0.335167
v -0.377428 0.342642 0.332193
v -0.539869 0.322521 0.363733
v -0.539567 0.322521 0.377447
v -0.537449 0.326028 0.332193
v -0.537718 0.322729 0.390294
v -0.536911 0.318063 0.404901
v -0.535869 0.31625 0.413047
v -0.528406 0.317499 0.415406
v -0.528406 0.322402 0.404901
v -0.528406 0.327425 0.394051
v -0.528406 0.330516 0.387185
v -0.446076 0.327812 0.393293
v -0.343878 0.34077 0.332193
v -0.432326 0.336401 0.363733
v -0.358501 0.341632 0.332193
v -0.367074 0.342107 0.332193
v -0.538861 0.293812 0.417394
v -0.538962 0.293901 0.418245
v -0.539668 0.30882 0.404901
v -0.538121 0.308999 0.418245
v -0.538457 0.292088 0.418245
v -0.478685 0.189255 0.332193
v -0.528406 0.316013 0.418245
v -0.51469 0.322819 0.404901
v -0.446748 0.318212 0.418245
v -0.446076 0.323472 0.404901
v -0.308848 0.337857 0.332193
v -0.317757 0.33866 0.332193
v -0.322564 0.339076 0.332193
v -0.330868 0.339789 0.332193
v -0.33628 0.340205 0.332193
v -0.452698 0.138345 0.332193
v -0.447757 0.129488 0.332193
v -0.441974 0.119205 0.332193
v -0.438041 0.112458 0.332193
v -0.431553 0.102799 0.332193
v -0.42614 0.0952501 0.332193
v -0.470079 0.201649 0.418245
v -0.470818 0.172404 0.332193
v -0.46786 0.166103 0.332193
v -0.466885 0.164172 0.332193
v -0.454749 0.14203 0.332193
v -0.445672 0.318093 0.418245
v -0.294863 0.33643 0.332193
v -0.304713 0.337471 0.332193
v -0.424964 0.0937046 0.332193
v -0.421938 0.089841 0.332193
v -0.420257 0.0877011 0.332193
v -0.342163 0.0424668 0.418245
v -0.435318 0.316726 0.418245
v -0.19643 0.323591 0.332193
v -0.295098 0.330546 0.345731
v -0.29103 0.335955 0.332193
v -0.413803 0.0800036 0.332193
v -0.381092 0.0424668 0.332193
v -0.19643 0.0424668 0.418245
v -0.425871 0.315329 0.418245
v -0.362838 0.305313 0.418245
v -0.19643 0.322492 0.334291
v -0.19643 0.0424668 0.332193
v -0.416828 0.313902 0.418245
v -0.19643 0.27268 0.418245
v -0.35245 0.30353 0.418245
v -0.19643 0.317588 0.34338
v -0.19643 0.306978 0.361812
v -0.294224 0.293128 0.418245
v -0.35003 0.303114 0.418245
v -0.308848 0.295892 0.418245
v -0.19643 0.316696 0.344989
v -0.19643 0.312862 0.351847
v -0.19643 0.313605 0.350558
f 1 2 3
f 1 3 4
f 1 4 5
f 1 5 6
f 1 6 7
f 1 7 23
f 1 23 38
f 1 38 37
f 1 37 35
f 1 35 53
f 1 53 52
f 1 52 51
f 1 51 50
f 1 50 49
f 1 49 67
f 1 67 66
f 1 66 75
f 1 75 73
f 1 73 82
f 1 82 77
f 1 77 76
f 1 76 70
f 1 70 69
f 1 69 68
f 1 68 59
f 1 59 58
f 1 58 57
f 1 57 56
f 1 56 55
f 1 55 54
f 1 54 64
f 1 64 63
f 1 63 62
f 1 62 61
f 1 61 44
f 1 44 26
f 1 26 8
f 1 8 2
f 2 8 3
f 3 8 9
f 3 9 10
f 3 10 11
f 3 11 12
f 3 12 13
f 3 13 4
f 4 13 5
f 5 14 6
f 5 13 12
f 5 12 15
f 5 15 16
f 5 16 14
f 6 14 17
f 6 17 18
f 6 18 19
f 6 19 20
f 6 20 21
f 6 21 22
f 6 22 7
f 7 22 23
f 8 24 25
f 8 25 9
f 8 26 24
f 9 25 10
f 10 25 11
f 11 25 27
f 11 27 12
f 12 27 28
f 12 28 29
f 12 29 30
f 12 30 31
f 12 31 32
f 12 32 33
f 12 33 16
f 12 16 15
f 14 16 33
f 14 33 34
f 14 34 17
f 17 34 35
f 17 35 36
f 17 36 18
f 18 36 19
f 19 36 20
f 20 36 35
f 20 35 37
f 20 37 38
f 20 38 21
f 21 38 23
f 21 23 22
f 24 39 40
f 24 40 41
f 24 41 25
f 24 26 39
f 25 41 42
f 25 42 27
f 26 43 39
f 26 44 43
f 27 42 28
f 28 42 29
f 29 42 45
f 29 45 30
f 30 46 31
f 30 45 47
f 30 47 46
f 31 46 32
f 32 46 47
f 32 47 33
f 33 47 48
f 33 48 34
f 34 48 49
f 34 49 50
f 34 50 51
f 34 51 52
f 34 52 53
f 34 53 35
f 39 43 40
f 40 43 60
f 40 60 71
f 40 71 78
f 40 78 84
f 40 84 88
f 40 88 90
f 40 90 89
f 40 89 85
f 40 85 80
f 40 80 83
f 40 83 79
f 40 79 72
f 40 72 65
f 40 65 47
f 40 47 45
f 40 45 42
f 40 42 41
f 43 54 55
f 43 55 56
f 43 56 57
f 43 57 58
f 43 58 59
f 43 59 60
f 43 44 61
f 43 61 62
f 43 62 63
f 43 63 64
f 43 64 54
f 47 65 66
f 47 66 48
f 48 66 67
f 48 67 49
f 59 68 60
f 60 68 69
f 60 69 70
f 60 70 71
f 65 72 73
f 65 73 74
f 65 74 75
f 65 75 66
f 70 76 71
f 71 77 82
f 71 82 78
f 71 76 77
f 72 79 73
f 73 80 81
f 73 81 86
f 73 86 91
f 73 91 93
f 73 93 92
f 73 92 87
f 73 87 84
f 73 84 78
f 73 78 82
f 73 75 74
f 73 79 83
f 73 83 80
f 80 85 86
f 80 86 81
f 84 87 88
f 85 89 86
f 86 90 91
f 86 89 90
f 87 92 88
f 88 92 93
f 88 93 90
f 90 93 91
