v 0.506471 -0.0860697 0.532346
v 0.485785 -0.0860697 0.532346
v 0.514508 -0.0887953 0.532346
v 0.485785 -0.0860697 0.519764
v 0.485785 -0.150017 0.532346
v 0.5238 -0.0933494 0.532346
v 0.523831 -0.163714 0.410281
v 0.521692 -0.178377 0.384256
v 0.525558 -0.190108 0.366711
v 0.485785 -0.141133 0.431555
v 0.485785 -0.153606 0.527206
v 0.529112 -0.144842 0.532346
v 0.524295 -0.0936427 0.532346
v 0.524242 -0.0937634 0.532071
v 0.528412 -0.161403 0.418923
v 0.525832 -0.190228 0.366711
v 0.525672 -0.190142 0.366711
v 0.485785 -0.181758 0.366711
v 0.485785 -0.161334 0.51584
v 0.542157 -0.234752 0.399952
v 0.533268 -0.143704 0.532346
v 0.550278 -0.234165 0.399141
v 0.539744 -0.116155 0.532346
v 0.539021 -0.115999 0.529476
v 0.53447 -0.110979 0.525617
v 0.537537 -0.120398 0.514705
v 0.534402 -0.124504 0.496901
v 0.535924 -0.163783 0.42369
v 0.535475 -0.178188 0.397536
v 0.534798 -0.192885 0.371381
v 0.531944 -0.193868 0.366711
v 0.485785 -0.262301 0.366711
v 0.542157 -0.240531 0.39118
v 0.539082 -0.140685 0.532346
v 0.542157 -0.245965 0.382456
v 0.555879 -0.248759 0.373554
v 0.562782 -0.247103 0.370668
v 0.543573 -0.130559 0.532346
v 0.544676 -0.130404 0.528422
v 0.543466 -0.130404 0.514705
v 0.549661 -0.163714 0.464422
v 0.546777 -0.15471 0.473519
v 0.563102 -0.232682 0.368462
v 0.536046 -0.19844 0.366711
v 0.541906 -0.255125 0.366711
v 0.542157 -0.24995 0.375597
v 0.555323 -0.253038 0.366711
v 0.558969 -0.251278 0.366711
v 0.563337 -0.248328 0.366711
v 0.563041 -0.240186 0.372565
v 0.563102 -0.232682 0.373149
v 0.563353 -0.23527 0.366711
v 0.560659 -0.231336 0.366711
v 0.563528 -0.239703 0.366711
f 1 2 5
f 1 5 12
f 1 12 21
f 1 21 34
f 1 34 38
f 1 38 23
f 1 23 13
f 1 13 6
f 1 6 3
f 1 3 4
f 1 4 2
f 2 4 10
f 2 10 18
f 2 18 32
f 2 32 19
f 2 19 11
f 2 11 5
f 3 6 7
f 3 7 4
f 4 7 8
f 4 8 9
f 4 9 10
f 5 11 12
f 6 13 14
f 6 14 7
f 7 14 15
f 7 15 16
f 7 16 17
f 7 17 8
f 8 17 9
f 9 18 10
f 9 17 16
f 9 16 31
f 9 31 44
f 9 44 53
f 9 53 52
f 9 52 54
f 9 54 49
f 9 49 48
f 9 48 47
f 9 47 45
f 9 45 32
f 9 32 18
f 11 19 20
f 11 20 12
f 12 20 22
f 12 22 21
f 13 23 24
f 13 24 25
f 13 25 26
f 13 26 27
f 13 27 28
f 13 28 29
f 13 29 14
f 14 29 15
f 15 29 30
f 15 30 31
f 15 31 16
f 19 32 20
f 20 32 33
f 20 33 22
f 21 22 34
f 22 33 35
f 22 35 36
f 22 36 37
f 22 37 34
f 23 38 39
f 23 39 40
f 23 40 24
f 24 40 41
f 24 41 42
f 24 42 26
f 24 26 25
f 26 42 27
f 27 42 28
f 28 42 43
f 28 43 29
f 29 43 30
f 30 44 31
f 30 43 44
f 32 45 46
f 32 46 35
f 32 35 33
f 34 37 38
f 35 46 47
f 35 47 36
f 36 47 48
f 36 48 37
f 37 48 49
f 37 49 50
f 37 50 39
f 37 39 38
f 39 41 40
f 39 50 51
f 39 51 43
f 39 43 41
f 41 43 42
f 43 51 52
f 43 52 53
f 43 53 44
f 45 47 46
f 49 54 50
f 50 54 51
f 51 54 52
