v -0.19643 0.113689 0.514843
v -0.19643 0.113689 0.643299
v -0.19643 0.21109 0.514843
v 0.382516 0.113689 0.514843
v -0.19643 0.137532 0.617921
v 0.322476 0.113689 0.655079
v 0.322476 0.124782 0.646093
v 0.336242 0.131844 0.640491
v 0.322476 0.131651 0.640326
v 0.322476 0.139509 0.633459
v 0.404848 0.154583 0.621279
v 0.391156 0.154403 0.621045
v 0.391156 0.161259 0.614068
v 0.391156 0.167821 0.607214
v -0.19643 0.190688 0.546757
v -0.158576 0.2157 0.514843
v 0.542135 0.179428 0.514843
v 0.54089 0.113689 0.557808
v -0.19643 0.145248 0.609306
v 0.404848 0.174895 0.600099
v 0.404848 0.181071 0.593232
v 0.33053 0.113689 0.655203
v 0.336242 0.124987 0.646203
v 0.336242 0.139676 0.633638
v 0.404848 0.140485 0.633996
v 0.404848 0.147354 0.628133
v 0.404848 0.161452 0.614247
v 0.418613 0.154506 0.621169
v 0.418613 0.161362 0.614192
v 0.404848 0.168039 0.60738
v -0.19643 0.18473 0.555895
v -0.15777 0.208715 0.525811
v -0.144078 0.217189 0.514843
v 0.544331 0.181071 0.514843
v 0.549676 0.186926 0.514843
v 0.542281 0.113689 0.56012
v -0.19643 0.150526 0.603347
v 0.418613 0.174844 0.600127
v 0.418613 0.181225 0.59326
v 0.418613 0.188082 0.585388
v 0.418613 0.193859 0.578534
v 0.349934 0.113689 0.655437
v 0.404848 0.131972 0.640849
v 0.418613 0.140331 0.633817
v 0.418613 0.1472 0.628023
v 0.418613 0.167975 0.607325
v 0.432305 0.146802 0.627596
v 0.432305 0.154121 0.620729
v 0.432305 0.16099 0.613917
v 0.446071 0.174305 0.599755
v 0.432305 0.167782 0.607049
v 0.446071 0.18102 0.592902
v 0.432305 0.174651 0.599989
v -0.19643 0.179325 0.564084
v -0.16619 0.19237 0.549345
v -0.144078 0.21611 0.516425
v 0.459763 0.243549 0.516467
v 0.459763 0.244653 0.514843
v 0.549749 0.187298 0.514843
v 0.547846 0.113689 0.569754
v -0.19643 0.151604 0.602054
v 0.432305 0.181135 0.593122
v 0.446071 0.187876 0.585401
v 0.432305 0.188004 0.585456
v 0.432305 0.193988 0.578603
v 0.432305 0.200857 0.570497
v 0.432305 0.206583 0.56363
v 0.404848 0.113689 0.653978
v 0.404848 0.125116 0.646285
v 0.418613 0.131626 0.640684
v 0.432305 0.139946 0.633555
v 0.446071 0.139548 0.63328
v 0.459763 0.139162 0.632977
v 0.446071 0.146404 0.627115
v 0.459763 0.146032 0.626605
v 0.446071 0.153633 0.620261
v 0.446071 0.160502 0.61349
v 0.446071 0.167435 0.606623
v 0.459763 0.153093 0.619738
v 0.459763 0.159963 0.612857
v 0.459763 0.166793 0.60599
v 0.459763 0.17365 0.599095
v 0.459763 0.180429 0.592227
v 0.459763 0.187285 0.584989
v 0.459763 0.193615 0.578121
v -0.19643 0.175537 0.569644
v -0.185227 0.179928 0.564923
v -0.185227 0.175049 0.571777
v -0.171535 0.180455 0.565377
v 0.459763 0.23668 0.526059
v 0.463131 0.244781 0.514843
v 0.54953 0.113689 0.580034
v 0.548505 0.113689 0.572988
v 0.548212 0.113689 0.571378
v 0.550262 0.197865 0.514843
v 0.55158 0.113689 0.600031
v 0.550189 0.113689 0.584865
v -0.19643 0.157215 0.594925
v 0.446071 0.193936 0.578562
v 0.446071 0.200793 0.570511
v 0.446071 0.206622 0.563643
v 0.446071 0.212939 0.555895
v 0.446071 0.219051 0.548312
v 0.432305 0.212605 0.555895
v 0.446071 0.113689 0.652189
v 0.418613 0.124756 0.645996
v 0.432305 0.131163 0.640423
v 0.462545 0.123228 0.644881
v 0.469355 0.138405 0.632344
v 0.446071 0.130688 0.640134
v 0.458664 0.129045 0.640767
v 0.470233 0.152195 0.618857
v 0.47016 0.165818 0.60504
v 0.469867 0.179415 0.591209
v 0.469281 0.192935 0.577309
v 0.46811 0.206262 0.563203
v 0.459763 0.200472 0.570359
v -0.19643 0.169053 0.578988
v -0.19643 0.163802 0.586268
v 0.459763 0.231467 0.532913
v 0.473528 0.243395 0.516797
v 0.473528 0.244846 0.514843
v 0.550262 0.198661 0.514843
v 0.550994 0.113689 0.614068
v 0.446071 0.224366 0.541459
v 0.459763 0.206506 0.563492
v 0.459763 0.212849 0.555895
v 0.459763 0.219076 0.548381
v 0.459763 0.22461 0.541514
v 0.453612 0.113689 0.651845
v 0.432305 0.124307 0.645652
v 0.453393 0.123575 0.645115
v 0.459104 0.113689 0.65157
v 0.473528 0.113689 0.64901
v 0.528369 0.113689 0.63734
v 0.446071 0.123832 0.645308
v 0.479386 0.150641 0.617316
v 0.479312 0.164367 0.60354
v 0.478946 0.177977 0.589709
v 0.478434 0.191523 0.575864
v 0.477262 0.20503 0.561854
v 0.473015 0.210641 0.556721
v 0.473528 0.218409 0.547624
v 0.473528 0.224097 0.540757
v 0.473528 0.230966 0.532431
v 0.473528 0.236526 0.525564
v 0.475725 0.244589 0.514843
v 0.550408 0.113689 0.618183
v 0.548285 0.205877 0.514843
v 0.531445 0.113689 0.636087
v 0.540524 0.113689 0.63145
v 0.48722 0.208792 0.552207
v 0.484365 0.222248 0.538459
v 0.483339 0.235229 0.523857
v 0.48722 0.240018 0.514843
v 0.547992 0.113689 0.622642
v 0.54272 0.211642 0.514843
v 0.545283 0.113689 0.62739
v 0.543013 0.113689 0.629619
v 0.542061 0.212259 0.514843
v 0.531737 0.217587 0.514843
f 1 2 5
f 1 5 19
f 1 19 37
f 1 37 61
f 1 61 98
f 1 98 119
f 1 119 118
f 1 118 86
f 1 86 54
f 1 54 31
f 1 31 15
f 1 15 3
f 1 3 16
f 1 16 33
f 1 33 58
f 1 58 91
f 1 91 122
f 1 122 147
f 1 147 155
f 1 155 161
f 1 161 160
f 1 160 157
f 1 157 149
f 1 149 123
f 1 123 95
f 1 95 59
f 1 59 35
f 1 35 34
f 1 34 17
f 1 17 4
f 1 4 18
f 1 18 36
f 1 36 60
f 1 60 94
f 1 94 93
f 1 93 92
f 1 92 97
f 1 97 96
f 1 96 124
f 1 124 148
f 1 148 156
f 1 156 158
f 1 158 159
f 1 159 151
f 1 151 150
f 1 150 135
f 1 135 134
f 1 134 133
f 1 133 130
f 1 130 105
f 1 105 68
f 1 68 42
f 1 42 22
f 1 22 6
f 1 6 2
f 2 6 7
f 2 7 8
f 2 8 9
f 2 9 10
f 2 10 11
f 2 11 12
f 2 12 13
f 2 13 14
f 2 14 5
f 3 15 16
f 4 17 18
f 5 14 20
f 5 20 21
f 5 21 19
f 6 22 23
f 6 23 7
f 7 23 8
f 8 24 10
f 8 10 9
f 8 23 25
f 8 25 26
f 8 26 24
f 10 24 26
f 10 26 11
f 11 27 13
f 11 13 12
f 11 26 28
f 11 28 29
f 11 29 27
f 13 27 30
f 13 30 14
f 14 30 20
f 15 31 32
f 15 32 16
f 16 32 33
f 17 34 18
f 18 34 35
f 18 35 36
f 19 21 37
f 20 30 38
f 20 38 39
f 20 39 21
f 21 39 40
f 21 40 41
f 21 41 37
f 22 42 23
f 23 42 25
f 25 42 43
f 25 43 44
f 25 44 45
f 25 45 26
f 26 45 28
f 27 29 46
f 27 46 30
f 28 45 47
f 28 47 48
f 28 48 49
f 28 49 50
f 28 50 51
f 28 51 29
f 29 51 52
f 29 52 53
f 29 53 46
f 30 46 38
f 31 54 55
f 31 55 32
f 32 55 33
f 33 55 56
f 33 56 57
f 33 57 58
f 35 59 60
f 35 60 36
f 37 41 61
f 38 46 53
f 38 53 52
f 38 52 62
f 38 62 39
f 39 62 63
f 39 63 64
f 39 64 65
f 39 65 40
f 40 65 66
f 40 66 41
f 41 66 67
f 41 67 61
f 42 68 69
f 42 69 43
f 43 69 44
f 44 69 70
f 44 70 71
f 44 71 45
f 45 71 72
f 45 72 73
f 45 73 47
f 47 74 48
f 47 73 74
f 48 74 75
f 48 75 76
f 48 76 77
f 48 77 78
f 48 78 49
f 49 78 50
f 50 52 51
f 50 78 79
f 50 79 80
f 50 80 81
f 50 81 82
f 50 82 83
f 50 83 52
f 52 63 62
f 52 83 84
f 52 84 85
f 52 85 63
f 54 86 87
f 54 87 55
f 55 87 88
f 55 88 89
f 55 89 90
f 55 90 57
f 55 57 56
f 57 90 91
f 57 91 58
f 59 92 93
f 59 93 94
f 59 94 60
f 59 95 96
f 59 96 97
f 59 97 92
f 61 67 98
f 63 99 64
f 63 85 99
f 64 99 65
f 65 99 100
f 65 100 101
f 65 101 66
f 66 101 67
f 67 101 102
f 67 102 103
f 67 103 104
f 67 104 98
f 68 105 106
f 68 106 69
f 69 106 70
f 70 106 107
f 70 107 73
f 70 73 72
f 70 72 71
f 73 108 109
f 73 109 75
f 73 75 74
f 73 107 106
f 73 106 110
f 73 110 111
f 73 111 108
f 75 79 76
f 75 109 112
f 75 112 79
f 76 79 77
f 77 79 78
f 79 112 80
f 80 112 81
f 81 112 82
f 82 112 83
f 83 112 113
f 83 113 114
f 83 114 115
f 83 115 84
f 84 115 116
f 84 116 85
f 85 117 99
f 85 116 117
f 86 118 87
f 87 118 88
f 88 118 119
f 88 119 89
f 89 119 90
f 90 120 121
f 90 121 122
f 90 122 91
f 90 119 120
f 95 123 96
f 96 123 124
f 98 104 103
f 98 103 125
f 98 125 120
f 98 120 119
f 99 117 126
f 99 126 100
f 100 126 101
f 101 126 127
f 101 127 128
f 101 128 102
f 102 128 103
f 103 128 129
f 103 129 120
f 103 120 125
f 105 130 106
f 106 130 131
f 106 131 111
f 106 111 110
f 108 111 132
f 108 132 133
f 108 133 134
f 108 134 135
f 108 135 109
f 109 135 112
f 111 131 136
f 111 136 132
f 112 135 137
f 112 137 138
f 112 138 113
f 113 138 114
f 114 138 139
f 114 139 140
f 114 140 115
f 115 140 141
f 115 141 116
f 116 142 143
f 116 143 144
f 116 144 145
f 116 145 128
f 116 128 127
f 116 127 126
f 116 126 117
f 116 141 142
f 120 129 146
f 120 146 121
f 121 146 147
f 121 147 122
f 123 148 124
f 123 149 148
f 128 145 146
f 128 146 129
f 130 136 131
f 130 133 136
f 132 136 133
f 135 150 140
f 135 140 139
f 135 139 138
f 135 138 137
f 140 150 141
f 141 150 151
f 141 151 152
f 141 152 153
f 141 153 154
f 141 154 143
f 141 143 142
f 143 154 144
f 144 154 145
f 145 154 146
f 146 154 147
f 147 154 155
f 148 149 156
f 149 157 158
f 149 158 156
f 151 159 160
f 151 160 154
f 151 154 153
f 151 153 152
f 154 160 161
f 154 161 155
f 157 160 158
f 158 160 159
