v -0.0975418 0.422639 0.569049
v -0.0758138 0.517389 0.566264
v -0.143605 0.695319 0.54844
v -0.195084 0.609649 0.536519
v -0.146279 0.422639 0.552784
v -0.178771 -0.0811304 0.536519
v -0.129967 -0.0650214 0.552784
v -0.113654 -0.422639 0.552784
v -0.105631 -0.577285 0.548662
v -0.0839033 -0.494544 0.545877
v -0.0595012 0.574503 0.558132
v -0.0723374 0.695612 0.555904
v -0.225636 0.694587 0.517358
v -0.197758 0.728709 0.493072
v -0.305462 -0.229625 0.481152
v -0.227642 0.162407 0.520254
v -0.203173 0.447096 0.532397
v -0.211263 -0.45515 0.520254
v -0.162592 -0.45515 0.536519
v -0.199095 -0.719483 0.518138
v -0.15136 -0.74101 0.527607
v -0.0800257 -0.742182 0.526827
v -0.035099 -0.718018 0.460542
v -0.0229313 0.651532 0.501204
v -0.0231988 0.698102 0.488727
v -0.0486038 0.715382 0.50399
v -0.126557 0.730759 0.497194
v -0.305328 0.708353 0.465555
v -0.200098 0.747454 0.344348
v -0.338689 -0.726073 0.433471
v -0.308938 -0.727684 0.466892
v -0.260067 -0.0975322 0.50399
v -0.333942 0.0527201 0.453858
v -0.195084 -0.74804 0.130008
v 0.0323579 -0.74804 0.211332
v 0.00401131 -0.745989 0.312821
v 0.20451 -0.724169 -0.136804
v 0.143605 -0.685361 0.0378772
v 0 -0.682725 0.390135
v 0.0459295 -0.490443 0.314269
v 0.0134379 -0.522808 0.379218
v 0.00802263 -0.227575 0.4064
v -0.0107637 -0.173391 0.444389
v -0.0107637 0.606867 0.476807
v 0.0459295 0.598666 0.363064
v 0.0431885 0.685361 0.352147
v 0.0242016 0.707328 0.382003
v -0.00802263 0.707328 0.447062
v 0.264145 0.743793 -0.300678
v -0.0649164 0.731491 0.4064
v -0.129967 0.74804 0.308811
v -0.296971 0.713918 0.389801
v -0.308871 0.666616 0.37387
v -0.341497 -0.0325107 0.43893
v 0.195084 0.74804 -0.43893
v 0.12542 0.745257 -0.483269
v -0.199095 0.745989 0.27227
v -0.341497 -0.504063 0.37387
v -0.335279 -0.727537 0.386013
v -0.154302 -0.723583 -0.105611
v -0.00768835 -0.725048 -0.448733
v -0.113788 -0.74804 -0.024286
v 0.0486038 -0.74804 0.146273
v 0.237069 -0.724169 -0.218017
v 0.27638 -0.682725 -0.292546
v 0.227642 -0.666616 -0.162538
v 0.195084 -0.666616 -0.0812132
v 0.0649164 -0.650214 0.243862
v 0.0975418 -0.601448 0.178803
v 0.0323579 -0.634106 0.325076
v 0.0975418 -0.504063 0.195068
v 0.113654 -0.45515 0.162538
v 0.0975418 -0.308852 0.211332
v 0.0649164 -0.178809 0.292546
v 0.0459295 -0.213956 0.330534
v 0.0270095 -0.232994 0.368523
v 0.0432553 0.140733 0.352258
v 0.0459295 0.533791 0.363064
v 0.00802263 0.568938 0.438818
v 0.113654 0.601448 0.211332
v 0.0975418 0.634106 0.243862
v 0.129967 0.552682 0.178803
v 0.0975418 0.682725 0.227597
v 0.0893186 0.707328 0.23573
v 0.337017 0.711868 -0.359945
v 0.32398 0.719629 -0.435699
v 0.0425868 0.724462 -0.453078
v -0.185924 0.709232 0.0852237
v -0.270229 0.702056 0.288424
v -0.29062 0.675696 0.325076
v -0.292625 0.601448 0.308811
v -0.308871 0.552682 0.357605
v -0.341497 -0.130043 0.422665
v 0.170615 0.745989 -0.472462
v 0.101821 0.707767 -0.529612
v 0.0645822 0.713479 -0.508334
v -0.308871 0.146298 0.308811
v -0.325117 -0.325107 0.325076
v -0.325117 -0.504063 0.308811
v -0.325117 -0.650214 0.308811
v -0.321106 -0.711282 0.320954
v -0.0179841 -0.688583 -0.481932
v -0.0975418 -0.666616 -0.292546
v 0.0522139 -0.720801 -0.541533
v 0.108439 -0.724023 -0.544206
v -0.0649164 -0.74804 -0.0486833
v 0.0649164 -0.74804 0.0161535
v 0.284335 -0.719776 -0.345017
v 0.305462 -0.710843 -0.395705
v 0.260067 -0.666616 -0.243862
v 0.292625 -0.471405 -0.308811
v 0.260067 -0.504063 -0.211332
v 0.243821 -0.504063 -0.162538
v 0.195084 -0.61785 -0.0649483
v 0.113654 -0.634106 0.130008
v 0.162592 -0.552682 0.0324184
v 0.129967 -0.536573 0.113743
v 0.178771 -0.504063 0
v 0.129967 -0.390129 0.130008
v 0.129967 -0.178809 0.146273
v 0.129967 0.0650214 0.162538
v 0.0812291 0.178809 0.276392
v 0.0621754 0.143516 0.314269
v 0.129967 0.406531 0.178803
v 0.211263 0.61785 -0.0161535
v 0.178771 0.569084 0.0649483
v 0.27638 0.650214 -0.178803
v 0.227642 0.552682 -0.0486833
v 0.308871 0.666616 -0.260127
v 0.319702 0.701763 -0.298004
v 0.280458 0.703227 -0.207211
v 0.341497 0.634106 -0.357605
v 0.33802 0.6199 -0.444611
v 0.288547 0.711282 -0.46433
v 0.000668552 0.714357 -0.378549
v -0.0419182 0.707914 -0.28575
v -0.241749 0.675696 0.195068
v -0.243821 0.61785 0.178803
v -0.243821 0.552682 0.162538
v -0.260067 0.487807 0.195068
v -0.27638 0.487807 0.243862
v -0.27638 0.0975322 0.195068
v 0.166603 0.686826 -0.518138
v 0.129967 0.569084 -0.536519
v 0.0975418 0.37402 -0.552784
v 0.0893186 0.414585 -0.548662
v 0.0758138 0.587975 -0.533734
v 0.0595012 0.449878 -0.525602
v 0.0432553 0.579921 -0.493072
v 0.0242685 0.685801 -0.453078
v -0.292625 0.0487661 0.243862
v -0.308871 -0.211173 0.276392
v -0.292625 -0.357618 0.211332
v -0.27638 -0.325107 0.162538
v -0.27638 -0.585339 0.162538
v -0.308871 -0.634106 0.260127
v -0.27638 -0.682872 0.186935
v -0.0431885 -0.636742 -0.433471
v -0.0256056 -0.619168 -0.468675
v 0.0270095 -0.663834 -0.549999
v -0.113654 -0.634106 -0.260127
v 0.0812291 -0.666616 -0.569049
v 0.165266 -0.704545 -0.533734
v 0.241147 -0.711575 -0.499645
v 0.295567 -0.713039 -0.468452
v 0.0486038 -0.74804 -0.0486833
v 0.0161121 -0.74804 -0.0812132
v 0.325117 -0.487807 -0.43893
v 0.308871 -0.276341 -0.34134
v 0.195084 -0.552682 -0.0486833
v 0.292625 -0.178809 -0.276392
v 0.27638 -0.178809 -0.227597
v 0.292625 0.552682 -0.211332
v 0.243821 0.0811304 -0.113743
v 0.211263 -0.146298 -0.0486833
v 0.195084 -0.243684 -0.0161535
v 0.178771 -0.341216 0.0161535
v 0.162592 -0.227575 0.0649483
v 0.178771 0.0811304 0.0486833
v 0.162592 0.260086 0.0974781
v 0.178771 0.390129 0.0649483
v 0.227642 0.439041 -0.0486833
v 0.292625 0.61785 -0.211332
v 0.341497 0.227575 -0.422665
v 0.325117 0.569084 -0.308811
v 0.296637 0.605549 -0.469343
v 0.339023 0.176759 -0.443609
v 0.337352 0.511971 -0.447062
v 0.247899 0.686826 -0.485608
v -0.0812291 0.634106 -0.227597
v -0.226238 0.667788 0.15162
v -0.162592 0.61785 -0.0324184
v -0.211263 0.569084 0.0812132
v -0.162592 0.487807 -0.0649483
v -0.211263 0.146298 0.0161535
v -0.260067 0.0975322 0.146273
v 0.211263 0.634106 -0.50399
v 0.178771 0.45515 -0.520254
v 0.227642 0.260086 -0.50399
v 0.219352 -0.577285 -0.516133
v 0.0662535 -0.447828 -0.565596
v 0.0758138 0.262722 -0.549999
v 0.0595012 0.189646 -0.541867
v 0.0270095 -0.460715 -0.541867
v -0.0270095 -0.0270923 -0.417206
v -0.0270095 0.509335 -0.368523
v -0.0459295 0.620486 -0.314269
v -0.243821 -0.162407 0.0812132
v -0.260067 -0.37402 0.113743
v -0.260067 -0.552682 0.113743
v -0.227642 -0.585339 0.0324184
v -0.195084 -0.61785 -0.0486833
v -0.0975418 -0.585339 -0.308811
v -0.0975418 -0.536573 -0.308811
v -0.0812291 -0.45515 -0.34134
v -0.0621754 -0.420003 -0.379218
v -0.0758138 -0.0270923 -0.319728
v -0.178771 -0.585339 -0.0974781
v 0.315757 -0.293475 -0.465667
v 0.317629 -0.524272 -0.453858
v 0.292625 0.178809 -0.243862
v 0.260067 0.471405 -0.130008
v 0.308871 0.552682 -0.260127
v 0.211263 0.29245 -0.0161535
v 0.211263 0.0650214 -0.0324184
v 0.260067 0.504063 -0.487725
v 0.313618 -0.0790801 -0.469009
v 0.27638 -0.178809 -0.487725
v -0.0812291 0.569084 -0.243862
v -0.129967 0.61785 -0.113743
v -0.113654 0.504063 -0.178803
v -0.129967 0.341216 -0.162538
v -0.146279 0.146298 -0.146273
v -0.178771 -0.0487661 -0.0812132
v -0.195084 -0.162407 -0.0486833
v 0.251977 -0.317053 -0.499868
v 0.243821 -0.390129 -0.50399
v -0.0948007 0.148934 -0.265475
v -0.0812291 0.45515 -0.260127
v -0.211263 -0.341216 -0.0161535
v -0.162592 -0.45515 -0.146273
v -0.162592 -0.536573 -0.146273
v -0.211263 -0.552682 -0.0161535
v -0.129967 -0.45515 -0.227597
v -0.113654 -0.341216 -0.260127
v -0.0975418 -0.276341 -0.292546
v -0.078488 -0.224793 -0.330534
v -0.113654 -0.113641 -0.243862
v -0.129967 -0.178809 -0.211332
v -0.162592 -0.162407 -0.130008
v -0.178771 -0.276341 -0.0974781
v -0.0975418 -0.0650214 -0.276392
v -0.146279 -0.29245 -0.178803
f 1 2 3
f 1 3 4
f 1 4 5
f 1 5 6
f 1 6 7
f 1 7 8
f 1 8 9
f 1 9 10
f 1 10 2
f 2 11 12
f 2 12 3
f 2 10 11
f 3 13 4
f 3 12 14
f 3 14 13
f 4 13 15
f 4 15 16
f 4 16 17
f 4 17 5
f 5 17 6
f 6 18 19
f 6 19 7
f 6 17 16
f 6 16 18
f 7 19 8
f 8 19 20
f 8 20 9
f 9 20 21
f 9 21 22
f 9 22 10
f 10 22 23
f 10 23 11
f 11 24 12
f 11 23 24
f 12 24 25
f 12 25 26
f 12 26 27
f 12 27 14
f 13 14 28
f 13 28 15
f 14 27 29
f 14 29 28
f 15 30 31
f 15 31 18
f 15 18 32
f 15 32 16
f 15 28 33
f 15 33 30
f 16 32 18
f 18 31 20
f 18 20 19
f 20 31 21
f 21 31 30
f 21 30 34
f 21 34 22
f 22 34 35
f 22 35 36
f 22 36 37
f 22 37 23
f 23 37 38
f 23 38 39
f 23 39 40
f 23 40 41
f 23 41 42
f 23 42 43
f 23 43 24
f 24 44 45
f 24 45 46
f 24 46 25
f 24 43 44
f 25 47 48
f 25 48 26
f 25 46 47
f 26 49 50
f 26 50 27
f 26 48 47
f 26 47 49
f 27 50 51
f 27 51 29
f 28 29 52
f 28 52 53
f 28 53 54
f 28 54 33
f 29 51 55
f 29 55 56
f 29 56 57
f 29 57 52
f 30 58 59
f 30 59 34
f 30 33 54
f 30 54 58
f 34 59 60
f 34 60 61
f 34 61 62
f 34 62 106
f 34 106 167
f 34 167 166
f 34 166 107
f 34 107 63
f 34 63 35
f 35 63 64
f 35 64 36
f 36 64 37
f 37 64 38
f 38 64 65
f 38 65 66
f 38 66 67
f 38 67 68
f 38 68 39
f 39 68 69
f 39 69 70
f 39 70 40
f 40 70 71
f 40 71 72
f 40 72 73
f 40 73 74
f 40 74 75
f 40 75 76
f 40 76 41
f 41 76 42
f 42 76 77
f 42 77 78
f 42 78 79
f 42 79 44
f 42 44 43
f 44 79 78
f 44 78 45
f 45 80 81
f 45 81 46
f 45 78 124
f 45 124 82
f 45 82 80
f 46 81 83
f 46 83 84
f 46 84 47
f 47 84 49
f 49 55 51
f 49 51 50
f 49 84 85
f 49 85 86
f 49 86 55
f 52 57 87
f 52 87 88
f 52 88 89
f 52 89 53
f 53 90 91
f 53 91 92
f 53 92 93
f 53 93 54
f 53 89 90
f 54 93 58
f 55 86 94
f 55 94 56
f 56 94 95
f 56 95 96
f 56 96 87
f 56 87 57
f 58 93 92
f 58 92 97
f 58 97 98
f 58 98 99
f 58 99 100
f 58 100 59
f 59 100 101
f 59 101 60
f 60 102 61
f 60 101 103
f 60 103 102
f 61 102 104
f 61 104 105
f 61 105 62
f 62 105 106
f 63 107 108
f 63 108 64
f 64 108 109
f 64 109 65
f 65 110 66
f 65 109 111
f 65 111 112
f 65 112 113
f 65 113 110
f 66 110 114
f 66 114 67
f 67 114 115
f 67 115 68
f 68 115 69
f 69 116 117
f 69 117 71
f 69 71 70
f 69 115 114
f 69 114 116
f 71 117 72
f 72 117 118
f 72 118 119
f 72 119 73
f 73 119 120
f 73 120 121
f 73 121 74
f 74 121 122
f 74 122 75
f 75 122 123
f 75 123 76
f 76 123 77
f 77 123 78
f 78 123 122
f 78 122 124
f 80 125 81
f 80 82 126
f 80 126 125
f 81 127 83
f 81 125 127
f 82 124 182
f 82 182 128
f 82 128 126
f 83 127 129
f 83 129 130
f 83 130 131
f 83 131 84
f 84 131 85
f 85 131 130
f 85 130 132
f 85 132 133
f 85 133 86
f 86 133 134
f 86 134 94
f 87 96 135
f 87 135 88
f 88 136 89
f 88 135 136
f 89 136 137
f 89 137 90
f 90 137 138
f 90 138 91
f 91 138 139
f 91 139 140
f 91 140 141
f 91 141 142
f 91 142 97
f 91 97 92
f 94 134 95
f 95 134 143
f 95 143 144
f 95 144 145
f 95 145 146
f 95 146 147
f 95 147 96
f 96 147 148
f 96 148 149
f 96 149 150
f 96 150 135
f 97 142 151
f 97 151 152
f 97 152 99
f 97 99 98
f 99 152 153
f 99 153 154
f 99 154 155
f 99 155 100
f 100 155 156
f 100 156 157
f 100 157 101
f 101 157 103
f 102 103 158
f 102 158 159
f 102 159 160
f 102 160 104
f 103 161 158
f 103 157 161
f 104 160 162
f 104 162 105
f 105 162 163
f 105 163 164
f 105 164 165
f 105 165 108
f 105 108 166
f 105 166 167
f 105 167 106
f 107 166 108
f 108 165 109
f 109 165 168
f 109 168 169
f 109 169 111
f 110 170 114
f 110 113 170
f 111 169 171
f 111 171 112
f 112 171 172
f 112 172 113
f 113 172 173
f 113 173 174
f 113 174 175
f 113 175 176
f 113 176 177
f 113 177 118
f 113 118 170
f 114 170 116
f 116 170 118
f 116 118 117
f 118 177 119
f 119 177 178
f 119 178 120
f 120 178 179
f 120 179 121
f 121 179 180
f 121 180 124
f 121 124 122
f 124 180 181
f 124 181 182
f 125 126 128
f 125 128 183
f 125 183 127
f 127 183 129
f 128 182 173
f 128 173 183
f 129 183 132
f 129 132 130
f 132 184 133
f 132 183 173
f 132 173 185
f 132 185 169
f 132 169 168
f 132 168 184
f 133 186 134
f 133 184 187
f 133 187 188
f 133 188 186
f 134 186 189
f 134 189 143
f 135 150 136
f 136 150 190
f 136 190 191
f 136 191 137
f 137 191 138
f 138 192 193
f 138 193 139
f 138 191 192
f 139 193 194
f 139 194 140
f 140 194 195
f 140 195 196
f 140 196 142
f 140 142 141
f 142 196 154
f 142 154 153
f 142 153 151
f 143 189 197
f 143 197 144
f 144 198 145
f 144 197 198
f 145 198 199
f 145 199 200
f 145 200 162
f 145 162 201
f 145 201 202
f 145 202 146
f 146 202 147
f 147 202 203
f 147 203 148
f 148 203 204
f 148 204 149
f 149 204 159
f 149 159 150
f 150 159 205
f 150 205 206
f 150 206 207
f 150 207 190
f 151 153 152
f 154 208 209
f 154 209 210
f 154 210 155
f 154 196 208
f 155 210 211
f 155 211 212
f 155 212 156
f 156 212 157
f 157 212 161
f 158 161 213
f 158 213 214
f 158 214 215
f 158 215 216
f 158 216 159
f 159 204 160
f 159 216 217
f 159 217 205
f 160 204 203
f 160 203 202
f 160 202 201
f 160 201 162
f 161 212 218
f 161 218 213
f 162 200 163
f 163 200 164
f 164 200 165
f 165 200 219
f 165 219 220
f 165 220 168
f 168 220 187
f 168 187 184
f 169 185 171
f 171 185 221
f 171 221 172
f 172 221 173
f 173 182 222
f 173 222 174
f 173 221 223
f 173 223 185
f 174 222 182
f 174 182 224
f 174 224 225
f 174 225 175
f 175 225 176
f 176 225 179
f 176 179 178
f 176 178 177
f 179 225 224
f 179 224 180
f 180 224 181
f 181 224 182
f 185 223 221
f 186 226 197
f 186 197 189
f 186 188 227
f 186 227 228
f 186 228 226
f 187 220 219
f 187 219 227
f 187 227 188
f 190 207 229
f 190 229 230
f 190 230 192
f 190 192 191
f 192 230 194
f 192 194 193
f 194 230 229
f 194 229 231
f 194 231 232
f 194 232 233
f 194 233 195
f 195 233 234
f 195 234 235
f 195 235 208
f 195 208 196
f 197 226 198
f 198 226 199
f 199 226 236
f 199 236 200
f 200 236 237
f 200 237 227
f 200 227 219
f 205 217 206
f 206 217 238
f 206 238 239
f 206 239 207
f 207 239 229
f 208 235 240
f 208 240 209
f 209 240 241
f 209 241 242
f 209 242 210
f 210 242 243
f 210 243 211
f 211 218 212
f 211 243 218
f 213 218 242
f 213 242 241
f 213 241 214
f 214 241 244
f 214 244 245
f 214 245 215
f 215 245 246
f 215 246 247
f 215 247 216
f 216 247 217
f 217 247 238
f 218 243 242
f 226 228 236
f 227 237 228
f 228 237 236
f 229 239 231
f 231 239 232
f 232 238 233
f 232 239 238
f 233 238 248
f 233 248 249
f 233 249 250
f 233 250 234
f 234 250 235
f 235 250 251
f 235 251 240
f 238 247 252
f 238 252 248
f 240 251 241
f 241 251 244
f 244 251 253
f 244 253 245
f 245 253 249
f 245 249 246
f 246 249 248
f 246 248 252
f 246 252 247
f 249 253 250
f 250 253 251
