v -0.280015 -0.0915978 0.162983
v -0.280015 -0.135879 0.162983
v -0.280015 -0.0915978 0.0980188
v -0.336668 -0.0915978 0.225037
v -0.280015 -0.140007 0.162709
v -0.336668 -0.135879 0.225037
v -0.336717 -0.139633 0.225037
v -0.336727 -0.140007 0.225037
v -0.280015 -0.140007 0.107147
v -0.283136 -0.0915978 0.100344
v -0.37984 -0.0915978 0.225037
v -0.376583 -0.140007 0.225037
v -0.292195 -0.140007 0.119321
v -0.355197 -0.0915978 0.172334
v -0.379948 -0.0915978 0.21581
v -0.376778 -0.140007 0.21581
v -0.356126 -0.140007 0.183253
v -0.362427 -0.0915978 0.180256
v -0.358191 -0.140007 0.185317
v -0.364119 -0.140007 0.191423
v -0.366183 -0.140007 0.193612
v -0.375516 -0.0915978 0.19973
v -0.375536 -0.140007 0.212216
v -0.369157 -0.0915978 0.18962
v -0.370214 -0.140007 0.199531
v -0.371574 -0.140007 0.201596
f 1 2 5
f 1 5 9
f 1 9 3
f 1 3 10
f 1 10 14
f 1 14 18
f 1 18 24
f 1 24 22
f 1 22 15
f 1 15 11
f 1 11 4
f 1 4 6
f 1 6 2
f 2 6 7
f 2 7 8
f 2 8 5
f 3 9 10
f 4 11 12
f 4 12 8
f 4 8 7
f 4 7 6
f 5 8 12
f 5 12 16
f 5 16 23
f 5 23 26
f 5 26 25
f 5 25 21
f 5 21 20
f 5 20 19
f 5 19 17
f 5 17 13
f 5 13 9
f 9 13 14
f 9 14 10
f 11 15 16
f 11 16 12
f 13 17 14
f 14 17 19
f 14 19 20
f 14 20 21
f 14 21 18
f 15 22 16
f 16 22 23
f 18 21 24
f 21 25 24
f 22 24 26
f 22 26 23
f 24 25 26
