v -0.386681 -0.0557348 0.215805
v -0.386681 -0.0557348 0.216043
v -0.386681 -0.0539508 0.199818
v -0.385658 -0.071934 0.215805
v -0.386681 -0.0556987 0.222939
v -0.386681 -0.0453016 0.136074
v -0.384363 -0.081286 0.215805
v -0.384342 -0.08125 0.222939
v -0.385626 -0.071934 0.222939
v -0.386681 0.0556962 0.222939
v -0.35477 -0.0818266 0.136074
v -0.369065 -0.0813401 0.156959
v -0.375519 -0.091593 0.199724
v -0.379946 -0.091593 0.215805
v -0.384018 -0.0804932 0.205728
v -0.386681 0.0454253 0.136074
v -0.379862 -0.091593 0.222939
v -0.385626 0.0719316 0.222939
v -0.385658 0.0719316 0.215805
v -0.386681 0.0557323 0.216
v -0.314151 -0.091593 0.136074
v -0.3217 -0.091593 0.142239
v -0.347043 -0.091593 0.164638
v -0.355198 -0.091593 0.172342
v -0.362424 -0.091593 0.180251
v -0.369159 -0.091593 0.189622
v -0.386681 0.0539484 0.199818
v -0.384363 0.0812835 0.215805
v -0.384018 0.0804907 0.205728
v -0.379748 0.0924915 0.215805
v -0.376834 0.0924915 0.204044
v -0.369065 0.0813376 0.156951
v -0.35477 0.0818241 0.136074
v -0.336664 -0.091593 0.222939
v -0.385063 0.076058 0.222939
v -0.386681 0.0557323 0.215541
v -0.280016 -0.091593 0.136074
v -0.384342 0.0812475 0.222939
v -0.379633 0.0924915 0.222939
v -0.375237 0.0924915 0.199843
v -0.36067 0.0924915 0.180599
v -0.329323 0.0924915 0.150335
v -0.314234 0.0924915 0.136074
v -0.280016 -0.091593 0.162988
v -0.280016 -0.0365623 0.222939
v -0.280016 0.0924915 0.136074
v -0.336664 0.0924915 0.222939
v -0.280016 0.0365238 0.222939
v -0.280016 0.0924915 0.162988
f 1 2 5
f 1 5 10
f 1 10 20
f 1 20 36
f 1 36 27
f 1 27 16
f 1 16 6
f 1 6 3
f 1 3 4
f 1 4 2
f 2 4 5
f 3 6 4
f 4 7 8
f 4 8 9
f 4 9 5
f 4 6 7
f 5 9 8
f 5 8 17
f 5 17 34
f 5 34 45
f 5 45 48
f 5 48 47
f 5 47 39
f 5 39 38
f 5 38 35
f 5 35 18
f 5 18 10
f 6 11 12
f 6 12 13
f 6 13 14
f 6 14 15
f 6 15 7
f 6 16 33
f 6 33 43
f 6 43 46
f 6 46 37
f 6 37 21
f 6 21 11
f 7 15 14
f 7 14 8
f 8 14 17
f 10 18 19
f 10 19 20
f 11 21 22
f 11 22 23
f 11 23 24
f 11 24 25
f 11 25 26
f 11 26 12
f 12 26 13
f 13 26 25
f 13 25 24
f 13 24 23
f 13 23 22
f 13 22 21
f 13 21 37
f 13 37 44
f 13 44 34
f 13 34 17
f 13 17 14
f 16 27 19
f 16 19 28
f 16 28 29
f 16 29 30
f 16 30 31
f 16 31 32
f 16 32 33
f 18 35 19
f 19 27 36
f 19 36 20
f 19 35 28
f 28 35 38
f 28 38 30
f 28 30 29
f 30 39 47
f 30 47 49
f 30 49 46
f 30 46 43
f 30 43 42
f 30 42 41
f 30 41 40
f 30 40 31
f 30 38 39
f 31 40 32
f 32 40 33
f 33 40 41
f 33 41 42
f 33 42 43
f 34 44 45
f 37 46 49
f 37 49 48
f 37 48 45
f 37 45 44
f 47 48 49
