v 0.544389 0.295735 -0.025992
v 0.500552 0.306736 -0.0188146
v 0.506725 0.295735 -0.0188146
v 0.507101 0.279742 -0.0188146
v 0.544389 0.135524 -0.025992
v 0.544389 0.307282 -0.0289703
v 0.497883 0.307584 -0.0188146
v 0.507101 0.199665 -0.0188146
v 0.507059 0.183841 -0.0188146
v 0.507017 0.183709 -0.0188146
v 0.501762 0.169939 -0.0188146
v 0.487456 0.165061 -0.0188146
v 0.471564 0.163968 -0.0188146
v 0.45559 0.163836 -0.0188146
v 0.199828 0.135524 -0.025992
v 0.544389 0.135524 -0.517618
v 0.544389 0.309976 -0.0350735
v 0.482367 0.310598 -0.0188146
v 0.215844 0.163836 -0.0188146
v 0.183853 0.135524 -0.0276032
v 0.199828 0.163855 -0.0188146
v 0.183853 0.164137 -0.0188146
v 0.118286 0.167622 -0.0188146
v 0.118286 0.135524 -0.517618
v 0.544389 0.263768 -0.517618
v 0.544389 0.312142 -0.0400049
v 0.466392 0.311332 -0.0188146
v 0.183645 0.135524 -0.027652
v 0.166586 0.135524 -0.0400049
v 0.174385 0.135524 -0.0305816
v 0.118286 0.311332 -0.0188146
v 0.118286 0.135524 -0.100061
v 0.118286 0.263768 -0.517618
v 0.544389 0.269551 -0.516251
v 0.544389 0.313197 -0.0488424
v 0.118286 0.311596 -0.0223789
v 0.544389 0.314026 -0.0559709
v 0.487539 0.312877 -0.0400049
v 0.118286 0.276747 -0.514542
v 0.544389 0.276747 -0.514542
v 0.118286 0.320921 -0.150595
v 0.544389 0.315194 -0.0719369
v 0.544389 0.316362 -0.0879517
v 0.544389 0.31817 -0.112804
v 0.544389 0.321015 -0.151913
v 0.118286 0.277557 -0.514005
v 0.544389 0.284734 -0.509073
v 0.544389 0.326308 -0.224712
v 0.118286 0.3245 -0.19986
v 0.118286 0.284734 -0.509073
v 0.118286 0.285695 -0.508292
v 0.544389 0.294247 -0.501115
v 0.544389 0.326817 -0.231841
v 0.118286 0.326704 -0.23023
v 0.118286 0.294247 -0.501115
v 0.544389 0.302253 -0.492717
v 0.544389 0.327947 -0.247807
v 0.118286 0.327834 -0.246196
v 0.118286 0.302253 -0.492717
v 0.544389 0.305455 -0.484709
v 0.544389 0.327721 -0.263773
v 0.118286 0.327947 -0.247807
v 0.118286 0.305455 -0.484709
v 0.544389 0.306567 -0.47885
v 0.544389 0.326892 -0.27261
v 0.118286 0.327721 -0.263773
v 0.118286 0.307942 -0.471575
v 0.544389 0.307942 -0.471575
v 0.544389 0.326214 -0.279739
v 0.118286 0.326214 -0.279739
v 0.118286 0.311144 -0.437983
v 0.544389 0.311671 -0.432466
v 0.544389 0.318604 -0.359667
v 0.118286 0.318698 -0.35869
f 1 2 3
f 1 3 4
f 1 4 8
f 1 8 5
f 1 5 16
f 1 16 25
f 1 25 34
f 1 34 40
f 1 40 47
f 1 47 52
f 1 52 56
f 1 56 60
f 1 60 64
f 1 64 68
f 1 68 72
f 1 72 73
f 1 73 69
f 1 69 65
f 1 65 61
f 1 61 57
f 1 57 53
f 1 53 48
f 1 48 45
f 1 45 44
f 1 44 43
f 1 43 42
f 1 42 37
f 1 37 35
f 1 35 26
f 1 26 17
f 1 17 6
f 1 6 2
f 2 7 18
f 2 18 27
f 2 27 31
f 2 31 23
f 2 23 22
f 2 22 21
f 2 21 19
f 2 19 14
f 2 14 13
f 2 13 12
f 2 12 11
f 2 11 10
f 2 10 9
f 2 9 8
f 2 8 4
f 2 4 3
f 2 6 7
f 5 8 9
f 5 9 10
f 5 10 11
f 5 11 12
f 5 12 13
f 5 13 14
f 5 14 19
f 5 19 15
f 5 15 20
f 5 20 28
f 5 28 30
f 5 30 29
f 5 29 32
f 5 32 24
f 5 24 16
f 6 17 18
f 6 18 7
f 15 19 21
f 15 21 22
f 15 22 23
f 15 23 20
f 16 24 33
f 16 33 25
f 17 26 18
f 18 26 27
f 20 23 28
f 23 29 30
f 23 30 28
f 23 31 36
f 23 36 41
f 23 41 49
f 23 49 54
f 23 54 58
f 23 58 62
f 23 62 66
f 23 66 70
f 23 70 74
f 23 74 71
f 23 71 67
f 23 67 63
f 23 63 59
f 23 59 55
f 23 55 51
f 23 51 50
f 23 50 46
f 23 46 39
f 23 39 33
f 23 33 24
f 23 24 32
f 23 32 29
f 25 33 34
f 26 35 27
f 27 36 31
f 27 35 37
f 27 37 38
f 27 38 36
f 33 39 34
f 34 39 40
f 36 38 41
f 37 42 38
f 38 42 43
f 38 43 44
f 38 44 45
f 38 45 41
f 39 46 40
f 40 46 47
f 41 45 48
f 41 48 49
f 46 50 47
f 47 50 51
f 47 51 52
f 48 53 54
f 48 54 49
f 51 55 52
f 52 55 59
f 52 59 56
f 53 57 58
f 53 58 54
f 56 59 63
f 56 63 60
f 57 61 66
f 57 66 62
f 57 62 58
f 60 63 64
f 61 65 66
f 63 67 64
f 64 67 68
f 65 69 70
f 65 70 66
f 67 71 72
f 67 72 68
f 69 73 74
f 69 74 70
f 71 74 72
f 72 74 73
