v -0.280026 0.263755 0.359902
v -0.489073 0.263755 0.359902
v -0.280026 0.215841 0.359902
v -0.280026 0.277403 0.355693
v -0.743295 0.263737 0.359902
v -0.489073 0.277403 0.355693
v -0.359741 0.19984 0.359902
v -0.343736 0.183856 0.35973
v -0.280026 0.19984 0.359644
v -0.280026 0.2843 0.343668
v -0.563832 0.278985 0.35303
v -0.743295 0.140062 0.359902
v -0.743295 0.277403 0.355607
v -0.755067 0.275508 0.354405
v -0.756977 0.263737 0.355607
v -0.679378 0.140062 0.359902
v -0.343736 0.171845 0.355607
v -0.280026 0.187314 0.355521
v -0.280026 0.286084 0.327949
v -0.489073 0.285956 0.329151
v -0.489073 0.2843 0.343668
v -0.743295 0.2843 0.343496
v -0.756977 0.140062 0.355607
v -0.757597 0.27801 0.343496
v -0.763844 0.263737 0.343496
v -0.665387 0.140062 0.355607
v -0.280026 0.162391 0.329752
v -0.332894 0.173206 0.354319
v -0.280026 0.286121 0.327605
v -0.743295 0.286103 0.327691
v -0.489073 0.286121 0.327605
v -0.751504 0.287758 0.304327
v -0.766942 0.287409 0.271085
v -0.763844 0.140062 0.343496
v -0.767303 0.271922 0.304327
v -0.765651 0.263737 0.327691
v -0.663476 0.140062 0.352601
v -0.658623 0.140062 0.343496
v -0.489073 0.140062 -0.139844
v -0.280026 0.151779 -0.231324
v -0.280026 0.293111 0.231744
v -0.359741 0.293111 0.231744
v -0.489073 0.326825 -0.231668
v -0.775254 0.320976 -0.151698
v -0.7593 0.297727 0.167837
v -0.775254 0.312828 -0.0400326
v -0.791259 0.327855 -0.247559
v -0.791259 0.326549 -0.231754
v -0.791259 0.325188 -0.215605
v -0.78336 0.303797 0.0487845
v -0.767819 0.288255 0.260606
v -0.765651 0.140062 0.327691
v -0.806128 0.311687 -0.231754
v -0.807419 0.311687 -0.247559
v -0.792395 0.295704 -0.0400326
v -0.778455 0.27972 0.15186
v -0.799623 0.295704 -0.138728
v -0.489073 0.140062 -0.517618
v -0.280026 0.151779 -0.517532
v -0.280026 0.326825 -0.231668
v -0.775254 0.327947 -0.247559
v -0.775254 0.314005 -0.0560093
v -0.803289 0.323717 -0.247559
v -0.802566 0.322999 -0.231754
v -0.801791 0.322208 -0.215605
v -0.800965 0.321362 -0.199714
v -0.800036 0.320498 -0.183652
v -0.79952 0.319928 -0.173516
v -0.775254 0.327689 -0.263536
v -0.791259 0.327579 -0.263536
v -0.803134 0.323588 -0.263536
v -0.799623 0.140062 -0.138728
v -0.807471 0.295704 -0.247559
v -0.806335 0.295704 -0.231754
v -0.807161 0.311687 -0.263536
v -0.807264 0.295704 -0.263536
v -0.743295 0.140062 -0.517618
v -0.489073 0.263737 -0.517618
v -0.280026 0.263755 -0.517532
v -0.280026 0.327947 -0.247731
v -0.489073 0.327947 -0.247559
v -0.489073 0.327947 -0.247731
v -0.489073 0.327708 -0.263707
v -0.775254 0.326181 -0.279684
v -0.775254 0.318566 -0.359654
v -0.775254 0.313987 -0.407498
v -0.775254 0.312423 -0.423389
v -0.775254 0.310749 -0.439538
v -0.791259 0.325832 -0.279684
v -0.799313 0.319744 -0.31997
v -0.799933 0.320369 -0.311724
v -0.801069 0.321509 -0.295575
v -0.802153 0.322595 -0.279684
v -0.806335 0.140062 -0.231754
v -0.807471 0.140062 -0.247559
v -0.805405 0.311687 -0.279684
v -0.792033 0.295704 -0.423389
v -0.801172 0.295704 -0.327529
v -0.807264 0.140062 -0.263536
v -0.78749 0.27972 -0.471577
v -0.804631 0.140062 -0.291538
v -0.743295 0.263737 -0.517618
v -0.756254 0.140062 -0.514525
v -0.280026 0.276722 -0.514525
v -0.280026 0.327708 -0.263707
v -0.280026 0.326236 -0.279426
v -0.489073 0.323165 -0.311638
v -0.489073 0.317077 -0.375545
v -0.489073 0.307935 -0.471491
v -0.7593 0.307899 -0.471577
v -0.775254 0.308947 -0.455429
v -0.775254 0.307071 -0.471577
v -0.783721 0.304165 -0.480768
v -0.788523 0.295704 -0.455429
v -0.790278 0.295704 -0.439538
v -0.786612 0.295704 -0.471577
v -0.784496 0.295704 -0.483173
v -0.785012 0.27972 -0.484719
v -0.78749 0.140062 -0.471577
v -0.756254 0.263737 -0.514525
v -0.754654 0.275049 -0.513323
v -0.743295 0.276722 -0.514525
v -0.758371 0.140062 -0.513151
v -0.489073 0.284705 -0.509114
v -0.280026 0.284742 -0.509028
v -0.280026 0.307935 -0.471491
v -0.489073 0.305452 -0.484633
v -0.775254 0.3049 -0.483173
v -0.7593 0.305415 -0.484719
v -0.7593 0.301369 -0.492708
v -0.775564 0.296035 -0.490732
v -0.780933 0.27972 -0.492708
v -0.781759 0.263737 -0.492708
v -0.785012 0.140062 -0.484719
v -0.764257 0.263737 -0.509114
v -0.772931 0.27972 -0.499322
v -0.770452 0.290922 -0.496831
v -0.7593 0.293368 -0.499322
v -0.743295 0.284705 -0.509114
v -0.764257 0.140062 -0.509114
v -0.563832 0.292044 -0.502929
v -0.280026 0.294251 -0.50104
v -0.280026 0.305452 -0.484633
v -0.489073 0.302252 -0.492622
v -0.743295 0.302215 -0.492708
v -0.743295 0.294214 -0.500868
v -0.773757 0.263737 -0.500868
v -0.775873 0.140062 -0.49872
v -0.781759 0.140062 -0.492708
v -0.773757 0.140062 -0.500868
v -0.489073 0.294251 -0.50104
v -0.489073 0.302215 -0.492708
v -0.280026 0.302252 -0.492622
f 1 2 5
f 1 5 12
f 1 12 16
f 1 16 7
f 1 7 3
f 1 3 9
f 1 9 18
f 1 18 27
f 1 27 40
f 1 40 59
f 1 59 79
f 1 79 104
f 1 104 125
f 1 125 142
f 1 142 153
f 1 153 143
f 1 143 126
f 1 126 106
f 1 106 105
f 1 105 80
f 1 80 60
f 1 60 41
f 1 41 29
f 1 29 19
f 1 19 10
f 1 10 4
f 1 4 6
f 1 6 2
f 2 6 5
f 3 7 8
f 3 8 9
f 4 10 11
f 4 11 6
f 5 6 13
f 5 13 14
f 5 14 15
f 5 15 23
f 5 23 12
f 6 11 13
f 7 16 8
f 8 16 17
f 8 17 18
f 8 18 9
f 10 19 20
f 10 20 21
f 10 21 11
f 11 21 22
f 11 22 13
f 12 23 34
f 12 34 52
f 12 52 72
f 12 72 94
f 12 94 95
f 12 95 99
f 12 99 101
f 12 101 119
f 12 119 134
f 12 134 149
f 12 149 148
f 12 148 150
f 12 150 140
f 12 140 123
f 12 123 103
f 12 103 77
f 12 77 58
f 12 58 39
f 12 39 38
f 12 38 37
f 12 37 26
f 12 26 16
f 13 22 14
f 14 22 24
f 14 24 25
f 14 25 15
f 15 25 34
f 15 34 23
f 16 26 27
f 16 27 17
f 17 27 28
f 17 28 18
f 18 28 27
f 19 29 31
f 19 31 20
f 20 30 21
f 20 31 30
f 21 30 22
f 22 30 32
f 22 32 33
f 22 33 24
f 24 33 25
f 25 33 35
f 25 35 36
f 25 36 52
f 25 52 34
f 26 37 27
f 27 37 38
f 27 38 39
f 27 39 40
f 29 41 42
f 29 42 31
f 30 31 42
f 30 42 43
f 30 43 44
f 30 44 45
f 30 45 32
f 32 45 46
f 32 46 47
f 32 47 48
f 32 48 49
f 32 49 50
f 32 50 51
f 32 51 33
f 33 51 35
f 35 51 50
f 35 50 53
f 35 53 54
f 35 54 55
f 35 55 56
f 35 56 36
f 36 56 57
f 36 57 72
f 36 72 52
f 39 58 59
f 39 59 40
f 41 60 43
f 41 43 42
f 43 60 81
f 43 81 61
f 43 61 44
f 44 62 45
f 44 61 47
f 44 47 62
f 45 62 46
f 46 62 47
f 47 63 64
f 47 64 65
f 47 65 66
f 47 66 67
f 47 67 68
f 47 68 48
f 47 61 69
f 47 69 70
f 47 70 71
f 47 71 63
f 48 68 49
f 49 68 50
f 50 68 53
f 53 68 54
f 54 73 74
f 54 74 57
f 54 57 55
f 54 68 66
f 54 66 65
f 54 65 64
f 54 64 63
f 54 63 71
f 54 71 75
f 54 75 76
f 54 76 73
f 55 57 56
f 57 74 94
f 57 94 72
f 58 77 102
f 58 102 78
f 58 78 79
f 58 79 59
f 60 80 81
f 61 81 80
f 61 80 82
f 61 82 83
f 61 83 69
f 66 68 67
f 69 83 84
f 69 84 70
f 70 84 85
f 70 85 86
f 70 86 87
f 70 87 88
f 70 88 89
f 70 89 90
f 70 90 91
f 70 91 92
f 70 92 93
f 70 93 71
f 71 93 75
f 73 95 94
f 73 94 74
f 73 76 99
f 73 99 95
f 75 93 92
f 75 92 91
f 75 91 90
f 75 90 96
f 75 96 115
f 75 115 97
f 75 97 98
f 75 98 76
f 76 98 100
f 76 100 101
f 76 101 99
f 77 103 120
f 77 120 102
f 78 102 122
f 78 122 104
f 78 104 79
f 80 105 83
f 80 83 82
f 83 105 106
f 83 106 84
f 84 106 107
f 84 107 85
f 85 108 109
f 85 109 110
f 85 110 86
f 85 107 108
f 86 110 87
f 87 110 88
f 88 110 111
f 88 111 90
f 88 90 89
f 90 111 112
f 90 112 113
f 90 113 114
f 90 114 96
f 96 114 115
f 97 115 100
f 97 100 98
f 100 115 114
f 100 114 116
f 100 116 117
f 100 117 118
f 100 118 134
f 100 134 119
f 100 119 101
f 102 120 121
f 102 121 122
f 103 123 120
f 104 124 125
f 104 122 139
f 104 139 124
f 106 126 109
f 106 109 108
f 106 108 107
f 109 126 143
f 109 143 127
f 109 127 129
f 109 129 110
f 110 128 112
f 110 112 111
f 110 129 128
f 112 128 113
f 113 128 130
f 113 130 131
f 113 131 132
f 113 132 117
f 113 117 116
f 113 116 114
f 117 132 118
f 118 132 133
f 118 133 149
f 118 149 134
f 120 123 135
f 120 135 121
f 121 135 136
f 121 136 137
f 121 137 138
f 121 138 139
f 121 139 122
f 123 140 135
f 124 139 141
f 124 141 142
f 124 142 125
f 127 143 153
f 127 153 144
f 127 144 129
f 128 129 130
f 129 144 145
f 129 145 130
f 130 145 146
f 130 146 139
f 130 139 138
f 130 138 131
f 131 138 137
f 131 137 136
f 131 136 132
f 132 136 135
f 132 135 147
f 132 147 133
f 133 147 148
f 133 148 149
f 135 140 150
f 135 150 147
f 139 146 141
f 141 146 151
f 141 151 142
f 142 152 153
f 142 151 145
f 142 145 152
f 144 153 152
f 144 152 145
f 145 151 146
f 147 150 148
