v 0.759308 0.310484 -0.00786653
v 0.66331 0.310484 -0.00786653
v 0.775303 0.310227 -0.00786653
v 0.759308 0.310548 -0.00801624
v 0.647367 0.308879 -0.00786653
v 0.663439 0.310548 -0.00801624
v 0.544415 0.312153 -0.0400004
v 0.775303 0.311575 -0.0239834
v 0.78643 0.306824 -0.00786653
v 0.799541 0.319922 -0.173675
v 0.791298 0.326599 -0.231806
v 0.775303 0.312859 -0.0400004
v 0.775303 0.321013 -0.15187
v 0.544415 0.30997 -0.0350606
v 0.544415 0.307274 -0.0289731
v 0.637708 0.305476 -0.00786653
v 0.544415 0.321013 -0.15187
v 0.544415 0.314015 -0.0559676
v 0.786456 0.30676 -0.00786653
v 0.800107 0.320499 -0.183854
v 0.791298 0.327819 -0.247823
v 0.78983 0.295717 -0.00786653
v 0.804795 0.311704 -0.215839
v 0.80616 0.311704 -0.231806
v 0.807448 0.311704 -0.247823
v 0.775303 0.326791 -0.231806
v 0.544415 0.326278 -0.22467
v 0.544415 0.322811 -0.176719
v 0.544415 0.302137 -0.0276259
v 0.544415 0.295717 -0.0259793
v 0.635493 0.295717 -0.00786653
v 0.800983 0.321398 -0.199871
v 0.801807 0.322233 -0.215839
v 0.802606 0.323003 -0.231806
v 0.803327 0.32371 -0.247823
v 0.803198 0.323581 -0.26374
v 0.791298 0.327626 -0.26374
v 0.775303 0.327947 -0.247823
v 0.790114 0.279731 -0.00786653
v 0.79117 0.295717 -0.0239834
v 0.792432 0.295717 -0.0400004
v 0.793617 0.295717 -0.0559676
v 0.801756 0.295717 -0.167887
v 0.802915 0.295717 -0.183854
v 0.806392 0.295717 -0.231806
v 0.807526 0.295717 -0.247823
v 0.807294 0.295717 -0.26374
v 0.807191 0.311704 -0.26374
v 0.544415 0.327433 -0.240687
v 0.635029 0.279731 -0.00786653
v 0.544415 -0.295717 -0.0259793
v 0.802194 0.322618 -0.279707
v 0.775303 0.314015 -0.407594
v 0.775303 0.315556 -0.391627
v 0.775303 0.326213 -0.279707
v 0.775303 0.32769 -0.26374
v 0.801112 0.321527 -0.295724
v 0.799979 0.320371 -0.311691
v 0.79936 0.319729 -0.320174
v 0.791298 0.324031 -0.295724
v 0.775303 0.308943 -0.455595
v 0.775303 0.310741 -0.439578
v 0.775303 0.31241 -0.423611
v 0.544415 0.327947 -0.247823
v 0.544415 0.327819 -0.256655
v 0.790114 -0.279859 -0.00786653
v 0.793617 -0.295717 -0.0559676
v 0.801756 -0.295717 -0.167887
v 0.802915 -0.295717 -0.183854
v 0.806392 -0.295717 -0.231806
v 0.807526 -0.295717 -0.247823
v 0.799876 0.295717 -0.341829
v 0.807294 -0.295717 -0.26374
v 0.796656 0.295717 -0.37566
v 0.793617 0.295717 -0.407594
v 0.792045 0.295717 -0.423611
v 0.790345 0.295717 -0.439578
v 0.805439 0.311704 -0.279707
v 0.635029 -0.279731 -0.00786653
v 0.544415 -0.307274 -0.0289731
v 0.637785 -0.30554 -0.00786653
v 0.637682 -0.305412 -0.00786653
v 0.635493 -0.295717 -0.00786653
v 0.759308 0.307916 -0.471562
v 0.544415 0.319023 -0.355252
v 0.759308 0.309457 -0.455595
v 0.544415 0.308622 -0.464427
v 0.544415 0.326213 -0.279707
v 0.544415 0.32769 -0.26374
v 0.788542 0.295717 -0.455595
v 0.786688 0.295717 -0.471562
v 0.783777 0.304192 -0.480943
v 0.775303 0.307081 -0.471562
v 0.78983 -0.295717 -0.00786653
v 0.79117 -0.295717 -0.0239834
v 0.792432 -0.295717 -0.0400004
v 0.807448 -0.311704 -0.247823
v 0.799876 -0.295717 -0.341829
v 0.807191 -0.311704 -0.26374
v 0.796656 -0.295717 -0.37566
v 0.787512 0.279731 -0.471562
v 0.793617 -0.295717 -0.407594
v 0.544415 -0.312153 -0.0400004
v 0.647444 -0.308943 -0.00786653
v 0.775303 0.304898 -0.483189
v 0.759308 0.305412 -0.484735
v 0.544415 0.306567 -0.478848
v 0.544415 0.307916 -0.471562
v 0.784524 0.295717 -0.483189
v 0.78097 0.279731 -0.492719
v 0.775638 0.296038 -0.490923
v 0.759308 0.301367 -0.492719
v 0.804795 -0.311704 -0.215839
v 0.80616 -0.311704 -0.231806
v 0.78643 -0.306824 -0.00786653
v 0.799541 -0.319922 -0.173675
v 0.800107 -0.320499 -0.183854
v 0.800983 -0.321398 -0.199871
v 0.801807 -0.322233 -0.215839
v 0.802606 -0.323003 -0.231806
v 0.803327 -0.32371 -0.247823
v 0.803198 -0.323581 -0.26374
v 0.805439 -0.311704 -0.279707
v 0.790345 -0.295717 -0.439578
v 0.792045 -0.295717 -0.423611
v 0.802194 -0.322618 -0.279707
v 0.801112 -0.321527 -0.295724
v 0.799979 -0.320371 -0.311691
v 0.79936 -0.319729 -0.320174
v 0.785014 0.279731 -0.484735
v 0.787512 -0.279731 -0.471562
v 0.663439 -0.310548 -0.00801624
v 0.544415 -0.312988 -0.0471357
v 0.663439 -0.310484 -0.00786653
v 0.743338 0.302202 -0.492719
v 0.544415 0.303678 -0.489126
v 0.544415 0.305412 -0.484735
v 0.78182 0.263744 -0.492719
v 0.773835 0.263744 -0.501102
v 0.764305 0.263744 -0.509085
v 0.772985 0.279731 -0.499305
v 0.770512 0.290902 -0.49686
v 0.759308 0.293406 -0.499305
v 0.743338 0.284739 -0.509085
v 0.743338 0.294241 -0.501102
v 0.77538 -0.310227 -0.00786653
v 0.791298 -0.326599 -0.231806
v 0.791298 -0.327818 -0.247823
v 0.791298 -0.327626 -0.26374
v 0.788542 -0.295717 -0.455595
v 0.791298 -0.324031 -0.295724
v 0.775303 -0.308943 -0.455595
v 0.775303 -0.307081 -0.471562
v 0.783777 -0.304192 -0.480943
v 0.786688 -0.295717 -0.471562
v 0.785014 -0.279731 -0.484735
v 0.784524 -0.295717 -0.483189
v 0.759308 -0.310548 -0.00801624
v 0.544415 -0.314015 -0.0559676
v 0.544415 -0.321013 -0.15187
v 0.759437 -0.310484 -0.00786653
v 0.544415 0.302202 -0.492719
v 0.78182 -0.263744 -0.492719
v 0.773835 -0.263744 -0.501102
v 0.75632 0.263744 -0.514574
v 0.754646 0.275044 -0.513526
v 0.764305 -0.263744 -0.509085
v 0.544415 0.280309 -0.512129
v 0.544415 0.284739 -0.509085
v 0.544415 0.288976 -0.505543
v 0.743338 0.276713 -0.514574
v 0.544415 0.294241 -0.501102
v 0.775303 -0.311575 -0.0239834
v 0.775303 -0.312859 -0.0400004
v 0.775303 -0.326791 -0.231806
v 0.775303 -0.327947 -0.247823
v 0.775303 -0.321013 -0.15187
v 0.775303 -0.32769 -0.26374
v 0.775303 -0.326213 -0.279707
v 0.775303 -0.315556 -0.391627
v 0.775303 -0.314015 -0.407594
v 0.775303 -0.31241 -0.423611
v 0.775303 -0.310741 -0.439578
v 0.759308 -0.307916 -0.471562
v 0.775303 -0.304898 -0.483189
v 0.759308 -0.301367 -0.492719
v 0.775638 -0.296038 -0.490923
v 0.78097 -0.279731 -0.492719
v 0.544415 -0.326791 -0.231806
v 0.743338 0.263744 -0.517618
v 0.75632 -0.263744 -0.514574
v 0.772985 -0.279731 -0.499305
v 0.754646 -0.275044 -0.513526
v 0.544415 0.276713 -0.514574
v 0.544415 -0.327947 -0.247823
v 0.544415 -0.32769 -0.26374
v 0.544415 -0.327048 -0.270875
v 0.544415 -0.326213 -0.279707
v 0.544415 -0.32249 -0.318827
v 0.544415 -0.311832 -0.430746
v 0.759308 -0.309457 -0.455595
v 0.544415 -0.306824 -0.4774
v 0.759308 -0.305412 -0.484735
v 0.544415 -0.307916 -0.471562
v 0.743338 -0.302202 -0.492719
v 0.743338 -0.294241 -0.501102
v 0.743338 -0.284739 -0.509085
v 0.759308 -0.293406 -0.499305
v 0.770512 -0.290902 -0.49686
v 0.544415 0.263744 -0.517618
v 0.743338 -0.263744 -0.517618
v 0.743338 -0.276713 -0.514574
v 0.544415 -0.309457 -0.455595
v 0.544415 -0.305412 -0.484735
v 0.544415 -0.303999 -0.488278
v 0.544415 -0.298671 -0.496461
v 0.544415 -0.302202 -0.492719
v 0.544415 -0.294241 -0.501102
v 0.544415 -0.284739 -0.509085
v 0.544415 -0.263744 -0.517618
v 0.544415 -0.276713 -0.514574
f 1 2 5
f 1 5 16
f 1 16 31
f 1 31 50
f 1 50 79
f 1 79 83
f 1 83 82
f 1 82 81
f 1 81 104
f 1 104 134
f 1 134 161
f 1 161 146
f 1 146 115
f 1 115 94
f 1 94 66
f 1 66 39
f 1 39 22
f 1 22 19
f 1 19 9
f 1 9 3
f 1 3 4
f 1 4 6
f 1 6 2
f 2 6 7
f 2 7 5
f 3 8 4
f 3 9 10
f 3 10 11
f 3 11 8
f 4 8 12
f 4 12 13
f 4 13 17
f 4 17 6
f 5 7 14
f 5 14 15
f 5 15 16
f 6 17 18
f 6 18 7
f 7 18 17
f 7 17 28
f 7 28 27
f 7 27 49
f 7 49 64
f 7 64 65
f 7 65 89
f 7 89 88
f 7 88 85
f 7 85 87
f 7 87 108
f 7 108 107
f 7 107 137
f 7 137 136
f 7 136 162
f 7 162 172
f 7 172 170
f 7 170 169
f 7 169 168
f 7 168 194
f 7 194 210
f 7 210 220
f 7 220 221
f 7 221 219
f 7 219 218
f 7 218 216
f 7 216 217
f 7 217 215
f 7 215 214
f 7 214 202
f 7 202 204
f 7 204 213
f 7 213 200
f 7 200 199
f 7 199 198
f 7 198 197
f 7 197 196
f 7 196 195
f 7 195 189
f 7 189 160
f 7 160 159
f 7 159 133
f 7 133 103
f 7 103 80
f 7 80 51
f 7 51 30
f 7 30 29
f 7 29 15
f 7 15 14
f 8 11 12
f 9 19 10
f 10 20 21
f 10 21 11
f 10 19 22
f 10 22 23
f 10 23 24
f 10 24 25
f 10 25 20
f 11 21 12
f 12 21 13
f 13 21 26
f 13 26 27
f 13 27 28
f 13 28 17
f 15 29 16
f 16 29 30
f 16 30 31
f 20 32 21
f 20 25 32
f 21 32 33
f 21 33 34
f 21 34 35
f 21 35 36
f 21 36 37
f 21 37 38
f 21 38 26
f 22 39 40
f 22 40 24
f 22 24 23
f 24 40 25
f 25 40 41
f 25 41 42
f 25 42 43
f 25 43 44
f 25 44 45
f 25 45 46
f 25 46 47
f 25 47 48
f 25 48 36
f 25 36 35
f 25 35 34
f 25 34 33
f 25 33 32
f 26 38 49
f 26 49 27
f 30 50 31
f 30 51 79
f 30 79 50
f 36 52 37
f 36 48 52
f 37 53 54
f 37 54 55
f 37 55 56
f 37 56 38
f 37 52 57
f 37 57 58
f 37 58 59
f 37 59 60
f 37 60 61
f 37 61 62
f 37 62 63
f 37 63 53
f 38 64 49
f 38 56 65
f 38 65 64
f 39 42 41
f 39 41 40
f 39 66 67
f 39 67 42
f 42 67 68
f 42 68 43
f 43 68 69
f 43 69 44
f 44 69 70
f 44 70 45
f 45 70 71
f 45 71 46
f 46 71 73
f 46 73 47
f 47 72 48
f 47 73 98
f 47 98 72
f 48 72 74
f 48 74 75
f 48 75 76
f 48 76 77
f 48 77 78
f 48 78 59
f 48 59 58
f 48 58 57
f 48 57 52
f 51 80 81
f 51 81 82
f 51 82 83
f 51 83 79
f 53 63 84
f 53 84 86
f 53 86 54
f 54 85 55
f 54 86 87
f 54 87 85
f 55 88 89
f 55 89 56
f 55 85 88
f 56 89 65
f 59 78 90
f 59 90 91
f 59 91 92
f 59 92 93
f 59 93 61
f 59 61 60
f 61 93 84
f 61 84 62
f 62 84 63
f 66 94 95
f 66 95 96
f 66 96 67
f 67 96 97
f 67 97 68
f 68 97 69
f 69 97 70
f 70 97 71
f 71 97 73
f 72 98 100
f 72 100 74
f 73 97 99
f 73 99 98
f 74 100 102
f 74 102 75
f 75 101 76
f 75 102 131
f 75 131 101
f 76 101 77
f 77 90 78
f 77 101 90
f 80 103 104
f 80 104 81
f 84 87 86
f 84 93 105
f 84 105 106
f 84 106 107
f 84 107 108
f 84 108 87
f 90 101 91
f 91 109 92
f 91 101 109
f 92 109 110
f 92 110 111
f 92 111 112
f 92 112 105
f 92 105 93
f 94 113 114
f 94 114 95
f 94 115 116
f 94 116 113
f 95 114 97
f 95 97 96
f 97 114 116
f 97 116 117
f 97 117 118
f 97 118 119
f 97 119 120
f 97 120 121
f 97 121 122
f 97 122 99
f 98 99 100
f 99 123 124
f 99 124 125
f 99 125 102
f 99 102 100
f 99 122 126
f 99 126 127
f 99 127 128
f 99 128 129
f 99 129 123
f 101 130 109
f 101 131 156
f 101 156 130
f 102 125 131
f 103 132 104
f 103 133 132
f 104 132 134
f 105 112 106
f 106 112 135
f 106 135 136
f 106 136 137
f 106 137 107
f 109 130 110
f 110 130 138
f 110 138 139
f 110 139 140
f 110 140 141
f 110 141 111
f 111 141 142
f 111 142 143
f 111 143 112
f 112 143 144
f 112 144 145
f 112 145 135
f 113 116 114
f 115 146 116
f 116 147 148
f 116 148 117
f 116 146 147
f 117 148 118
f 118 148 119
f 119 148 120
f 120 148 121
f 121 148 122
f 122 148 149
f 122 149 126
f 123 150 124
f 123 129 150
f 124 150 131
f 124 131 125
f 126 149 127
f 127 149 128
f 128 149 129
f 129 149 151
f 129 151 152
f 129 152 153
f 129 153 154
f 129 154 155
f 129 155 150
f 130 156 163
f 130 163 138
f 131 150 155
f 131 155 157
f 131 157 156
f 132 158 161
f 132 161 134
f 132 133 159
f 132 159 160
f 132 160 177
f 132 177 158
f 135 145 172
f 135 172 162
f 135 162 136
f 138 163 164
f 138 164 139
f 139 164 167
f 139 167 140
f 140 165 166
f 140 166 141
f 140 167 191
f 140 191 165
f 141 166 142
f 142 166 143
f 143 166 144
f 144 168 169
f 144 169 170
f 144 170 145
f 144 166 171
f 144 171 168
f 145 170 172
f 146 161 158
f 146 158 173
f 146 173 147
f 147 173 174
f 147 174 148
f 148 175 176
f 148 176 149
f 148 174 177
f 148 177 175
f 149 176 178
f 149 178 179
f 149 179 180
f 149 180 181
f 149 181 182
f 149 182 183
f 149 183 152
f 149 152 151
f 152 183 184
f 152 184 153
f 153 184 185
f 153 185 154
f 154 185 186
f 154 186 187
f 154 187 188
f 154 188 157
f 154 157 155
f 156 157 188
f 156 188 163
f 158 177 174
f 158 174 173
f 160 189 175
f 160 175 177
f 163 188 164
f 164 188 167
f 165 190 166
f 165 191 211
f 165 211 190
f 166 190 171
f 167 188 192
f 167 192 193
f 167 193 191
f 168 171 194
f 171 190 210
f 171 210 194
f 175 189 195
f 175 195 176
f 176 195 196
f 176 196 178
f 178 196 197
f 178 197 179
f 179 197 198
f 179 198 199
f 179 199 200
f 179 200 180
f 180 200 201
f 180 201 184
f 180 184 181
f 181 184 182
f 182 184 183
f 184 202 203
f 184 203 185
f 184 201 213
f 184 213 204
f 184 204 202
f 185 203 186
f 186 203 205
f 186 205 206
f 186 206 207
f 186 207 208
f 186 208 187
f 187 208 209
f 187 209 192
f 187 192 188
f 190 211 220
f 190 220 210
f 191 193 211
f 192 209 193
f 193 212 211
f 193 209 208
f 193 208 207
f 193 207 212
f 200 213 201
f 202 214 203
f 203 215 205
f 203 214 215
f 205 216 206
f 205 215 217
f 205 217 216
f 206 216 218
f 206 218 219
f 206 219 207
f 207 219 221
f 207 221 212
f 211 212 221
f 211 221 220
