v -0.279994 -0.0524184 0.372823
v -0.270384 -0.072104 0.372823
v -0.279994 -0.0427478 0.386138
v -0.279994 0.0524875 0.372823
v -0.232225 -0.130885 0.372823
v -0.231787 -0.130885 0.372928
v -0.264254 -0.0435977 0.386138
v -0.279994 0.0427481 0.386138
v -0.270384 0.0721042 0.372823
v -0.230732 -0.130885 0.372823
v -0.165314 -0.0434599 0.386138
v -0.192819 -0.0440801 0.386138
v -0.255183 0.0442411 0.386138
v -0.231787 0.10378 0.372991
v -0.231922 0.10378 0.372963
v -0.232494 0.10378 0.372823
v -0.185657 -0.0719202 0.372823
v -0.165314 -0.0439193 0.372823
v -0.165314 0.0428399 0.386138
v -0.178808 0.0436439 0.386138
v -0.230114 0.10378 0.372823
v -0.167885 0.0430467 0.386138
v -0.165314 0.0434372 0.372823
v -0.185657 0.0719205 0.372823
v -0.191472 0.0773185 0.372823
v -0.215811 0.0965677 0.372823
f 1 2 3
f 1 3 8
f 1 8 4
f 1 4 9
f 1 9 16
f 1 16 21
f 1 21 26
f 1 26 25
f 1 25 24
f 1 24 23
f 1 23 18
f 1 18 17
f 1 17 10
f 1 10 5
f 1 5 2
f 2 5 3
f 3 5 6
f 3 6 7
f 3 7 12
f 3 12 11
f 3 11 19
f 3 19 22
f 3 22 20
f 3 20 13
f 3 13 8
f 4 8 9
f 5 10 6
f 6 10 11
f 6 11 12
f 6 12 7
f 8 13 14
f 8 14 15
f 8 15 16
f 8 16 9
f 10 17 11
f 11 17 18
f 11 18 23
f 11 23 19
f 13 20 14
f 14 21 16
f 14 16 15
f 14 20 22
f 14 22 19
f 14 19 21
f 19 23 24
f 19 24 25
f 19 25 26
f 19 26 21
