v -0.126781 0.0837943 0.132634
v -0.105607 0.082469 0.132634
v -0.0691654 0.0829168 0.124162
v -0.0691654 0.0845106 0.11873
v -0.0691654 0.0886475 0.103908
v -0.0691654 0.0910652 0.0879234
v -0.0719404 0.0909757 0.0879234
v -0.103904 0.0911368 0.0559548
v -0.119894 0.0905817 0.0466067
v -0.126781 0.0887371 0.0466067
v -0.126781 -0.0833653 0.132634
v -0.0691654 0.0719208 0.131211
v -0.0691654 0.078547 0.127977
v -0.0691654 0.055803 0.132634
v -0.0691654 0.0914771 0.0719391
v -0.0719404 0.0914771 0.0719391
v -0.0879249 0.0914771 0.0559548
v -0.103904 0.0913338 0.0466067
v -0.126781 -0.0902781 0.0466067
v -0.11325 -0.0913347 0.0466067
v -0.0691654 -0.0910123 0.0906941
v -0.0691654 -0.0884156 0.106678
v -0.107401 -0.0828102 0.132634
v -0.0691654 -0.0558576 0.132634
v -0.0691654 0.0914771 0.0466067
v -0.0879249 0.0914771 0.0466067
v -0.0972709 -0.091478 0.0466067
v -0.0879249 -0.091478 0.0559548
v -0.0691654 -0.091478 0.0747182
v -0.0691654 -0.0839026 0.121501
v -0.105607 -0.0824699 0.132634
v -0.0691654 -0.0829176 0.124162
v -0.0691654 -0.0592244 0.132356
v -0.0691654 -0.091478 0.0466067
v -0.0691654 -0.0719217 0.131211
f 1 2 3
f 1 3 4
f 1 4 5
f 1 5 6
f 1 6 7
f 1 7 8
f 1 8 9
f 1 9 10
f 1 10 19
f 1 19 11
f 1 11 23
f 1 23 31
f 1 31 24
f 1 24 14
f 1 14 2
f 2 12 13
f 2 13 3
f 2 14 12
f 3 13 12
f 3 12 14
f 3 14 24
f 3 24 33
f 3 33 35
f 3 35 32
f 3 32 30
f 3 30 22
f 3 22 21
f 3 21 29
f 3 29 34
f 3 34 25
f 3 25 15
f 3 15 6
f 3 6 5
f 3 5 4
f 6 15 16
f 6 16 8
f 6 8 7
f 8 16 17
f 8 17 18
f 8 18 9
f 9 18 26
f 9 26 25
f 9 25 34
f 9 34 27
f 9 27 20
f 9 20 19
f 9 19 10
f 11 19 20
f 11 20 21
f 11 21 22
f 11 22 23
f 15 25 26
f 15 26 17
f 15 17 16
f 17 26 18
f 20 27 28
f 20 28 29
f 20 29 21
f 22 30 23
f 23 30 32
f 23 32 31
f 24 31 33
f 27 34 29
f 27 29 28
f 31 32 35
f 31 35 33
