v -0.775305 -0.327947 -0.247731
v -0.775305 -0.327718 -0.263707
v -0.641615 -0.327809 -0.257866
v -0.641615 -0.327947 -0.247731
v -0.641615 -0.327535 -0.24189
v -0.775305 -0.325657 -0.215777
v -0.791302 -0.327855 -0.247731
v -0.641615 -0.326756 -0.273929
v -0.641615 -0.327718 -0.263707
v -0.791302 -0.327626 -0.263707
v -0.775305 -0.324695 -0.295661
v -0.641615 -0.32639 -0.225913
v -0.641615 -0.325657 -0.215777
v -0.775305 -0.322175 -0.167847
v -0.775305 -0.316358 -0.087877
v -0.775305 -0.314022 -0.0560093
v -0.775305 -0.312831 -0.0400325
v -0.751529 -0.287775 0.304327
v -0.791302 -0.326573 -0.231754
v -0.799535 -0.319931 -0.173602
v -0.800104 -0.320526 -0.183823
v -0.800981 -0.321397 -0.1998
v -0.801825 -0.322221 -0.215777
v -0.802621 -0.323046 -0.231754
v -0.803336 -0.323733 -0.247731
v -0.803189 -0.323595 -0.263707
v -0.641615 -0.325244 -0.289906
v -0.802199 -0.322588 -0.279684
v -0.801127 -0.321534 -0.295661
v -0.799974 -0.320389 -0.311724
v -0.799357 -0.319748 -0.320141
v -0.791302 -0.32584 -0.279684
v -0.775305 -0.31077 -0.439538
v -0.775305 -0.312464 -0.423561
v -0.775305 -0.314022 -0.407584
v -0.775305 -0.318602 -0.359654
v -0.641615 -0.322175 -0.167847
v -0.641615 -0.319198 -0.126874
v -0.743344 -0.288462 0.295737
v -0.759324 -0.297761 0.167837
v -0.759324 -0.29657 0.183814
v -0.743344 -0.286126 0.327691
v -0.743344 -0.284294 0.343668
v -0.767006 -0.287409 0.271257
v -0.767867 -0.288279 0.260606
v -0.783393 -0.303807 0.0487845
v -0.791302 -0.325199 -0.215777
v -0.804797 -0.311686 -0.215777
v -0.806178 -0.311686 -0.231754
v -0.807444 -0.311686 -0.247731
v -0.807201 -0.311686 -0.263707
v -0.641615 -0.318602 -0.359654
v -0.805447 -0.311686 -0.279684
v -0.788557 -0.2957 -0.455514
v -0.786689 -0.2957 -0.471577
v -0.783766 -0.304174 -0.48094
v -0.775305 -0.307105 -0.471577
v -0.775305 -0.308983 -0.455514
v -0.759324 -0.30793 -0.471577
v -0.759324 -0.31251 -0.423561
v -0.641615 -0.31306 -0.417806
v -0.641615 -0.288462 0.295737
v -0.641615 -0.286126 0.327691
v -0.641615 -0.284294 0.343668
v -0.641615 -0.28182 0.348048
v -0.743344 -0.277423 0.355779
v -0.755118 -0.275545 0.354405
v -0.757619 -0.278018 0.343668
v -0.763904 -0.263727 0.343668
v -0.767363 -0.271926 0.304327
v -0.806405 -0.2957 -0.231754
v -0.807526 -0.2957 -0.247731
v -0.807298 -0.2957 -0.263707
v -0.792438 -0.2957 -0.0400325
v -0.794777 -0.2957 -0.0719861
v -0.798269 -0.2957 -0.119831
v -0.805788 -0.2957 -0.279684
v -0.802751 -0.2957 -0.311724
v -0.796661 -0.2957 -0.375631
v -0.793608 -0.2957 -0.407584
v -0.792049 -0.2957 -0.423561
v -0.79036 -0.2957 -0.439538
v -0.787518 -0.279713 -0.471577
v -0.784513 -0.2957 -0.483173
v -0.780973 -0.279713 -0.492708
v -0.77563 -0.296066 -0.490904
v -0.759324 -0.301379 -0.492708
v -0.775305 -0.304907 -0.483173
v -0.759324 -0.305456 -0.484719
v -0.641615 -0.30793 -0.471577
v -0.641615 -0.277423 0.355779
v -0.743344 -0.263727 0.359902
v -0.757018 -0.263727 0.355779
v -0.763904 0.140007 0.343668
v -0.765707 -0.263727 0.327691
v -0.777335 -0.279713 0.167837
v -0.806405 0.140007 -0.231754
v -0.807526 0.140007 -0.247731
v -0.807363 0.140007 -0.259584
v -0.807298 0.140007 -0.263707
v -0.798269 0.140007 -0.119831
v -0.766811 -0.263727 0.312573
v -0.805788 0.140007 -0.279684
v -0.802751 0.140007 -0.311724
v -0.792487 0.140007 -0.419438
v -0.787518 0.140007 -0.471577
v -0.785033 -0.279713 -0.484719
v -0.781817 -0.263727 -0.492708
v -0.773827 -0.263727 -0.50104
v -0.764326 -0.263727 -0.509114
v -0.772982 -0.279713 -0.499322
v -0.77053 -0.290936 -0.496831
v -0.759324 -0.293409 -0.499322
v -0.743344 -0.284706 -0.509114
v -0.743344 -0.294234 -0.50104
v -0.743344 -0.30225 -0.492708
v -0.641615 -0.305456 -0.484719
v -0.641615 -0.263727 0.359902
v -0.743344 0.140007 0.359902
v -0.757018 0.140007 0.355779
v -0.765707 0.140007 0.327691
v -0.766811 0.140007 0.312573
v -0.785033 0.140007 -0.484719
v -0.775889 0.140007 -0.498892
v -0.781817 0.140007 -0.492708
v -0.773827 0.140007 -0.50104
v -0.764326 0.140007 -0.509114
v -0.758399 0.140007 -0.513151
v -0.756336 -0.263727 -0.514525
v -0.754663 -0.275087 -0.513495
v -0.641615 -0.284706 -0.509114
v -0.641615 -0.288187 -0.506193
v -0.743344 -0.276736 -0.514525
v -0.641615 -0.294234 -0.50104
v -0.641615 -0.297165 -0.498033
v -0.641615 -0.30225 -0.492708
v -0.641615 -0.199782 0.359902
v -0.679406 0.140007 0.359902
v -0.756336 0.140007 -0.514525
v -0.743344 -0.263727 -0.517618
v -0.641615 -0.276736 -0.514525
v -0.641615 -0.268491 -0.516501
v -0.641615 -0.183795 0.359816
v -0.665407 0.140007 0.355779
v -0.743344 0.140007 -0.517618
v -0.641615 -0.263727 -0.517618
v -0.641615 -0.171016 0.355693
v -0.658635 0.140007 0.343668
v -0.663539 0.140007 0.352601
v -0.641615 0.140007 -0.517618
v -0.641615 0.140007 0.0906162
f 1 2 3
f 1 3 4
f 1 4 5
f 1 5 12
f 1 12 6
f 1 6 7
f 1 7 10
f 1 10 2
f 2 8 9
f 2 9 3
f 2 10 11
f 2 11 27
f 2 27 8
f 3 9 8
f 3 8 27
f 3 27 52
f 3 52 61
f 3 61 90
f 3 90 117
f 3 117 136
f 3 136 135
f 3 135 134
f 3 134 132
f 3 132 131
f 3 131 141
f 3 141 142
f 3 142 146
f 3 146 150
f 3 150 151
f 3 151 147
f 3 147 143
f 3 143 137
f 3 137 118
f 3 118 91
f 3 91 65
f 3 65 64
f 3 64 63
f 3 63 62
f 3 62 38
f 3 38 37
f 3 37 13
f 3 13 12
f 3 12 5
f 3 5 4
f 6 12 13
f 6 13 37
f 6 37 14
f 6 14 7
f 7 14 15
f 7 15 16
f 7 16 17
f 7 17 18
f 7 18 19
f 7 19 20
f 7 20 21
f 7 21 22
f 7 22 23
f 7 23 24
f 7 24 25
f 7 25 26
f 7 26 10
f 10 26 28
f 10 28 29
f 10 29 30
f 10 30 31
f 10 31 32
f 10 32 58
f 10 58 33
f 10 33 34
f 10 34 35
f 10 35 36
f 10 36 11
f 11 36 27
f 14 37 38
f 14 38 39
f 14 39 15
f 15 39 40
f 15 40 16
f 16 40 41
f 16 41 17
f 17 41 18
f 18 41 40
f 18 40 42
f 18 42 43
f 18 43 44
f 18 44 45
f 18 45 46
f 18 46 47
f 18 47 19
f 19 47 20
f 20 48 49
f 20 49 50
f 20 50 21
f 20 47 46
f 20 46 48
f 21 50 22
f 22 50 23
f 23 50 24
f 24 50 25
f 25 50 26
f 26 51 28
f 26 50 51
f 27 36 52
f 28 51 29
f 29 51 30
f 30 51 31
f 31 51 53
f 31 53 54
f 31 54 55
f 31 55 56
f 31 56 57
f 31 57 58
f 31 58 32
f 33 58 59
f 33 59 34
f 34 59 35
f 35 59 36
f 36 59 60
f 36 60 61
f 36 61 52
f 38 62 39
f 39 62 63
f 39 63 42
f 39 42 40
f 42 63 64
f 42 64 43
f 43 64 65
f 43 65 66
f 43 66 67
f 43 67 68
f 43 68 44
f 44 68 69
f 44 69 70
f 44 70 45
f 45 70 46
f 46 70 48
f 48 70 49
f 49 70 50
f 50 71 72
f 50 72 73
f 50 73 51
f 50 70 74
f 50 74 75
f 50 75 76
f 50 76 71
f 51 73 77
f 51 77 78
f 51 78 79
f 51 79 80
f 51 80 81
f 51 81 82
f 51 82 53
f 53 82 54
f 54 82 83
f 54 83 55
f 55 83 84
f 55 84 56
f 56 84 85
f 56 85 86
f 56 86 87
f 56 87 88
f 56 88 57
f 57 88 89
f 57 89 59
f 57 59 58
f 59 90 61
f 59 61 60
f 59 89 117
f 59 117 90
f 65 91 66
f 66 91 118
f 66 118 92
f 66 92 67
f 67 69 68
f 67 92 93
f 67 93 69
f 69 94 121
f 69 121 95
f 69 95 70
f 69 93 120
f 69 120 94
f 70 95 96
f 70 96 74
f 71 97 98
f 71 98 72
f 71 76 101
f 71 101 97
f 72 98 99
f 72 99 73
f 73 99 100
f 73 100 103
f 73 103 77
f 74 96 75
f 75 96 76
f 76 96 102
f 76 102 122
f 76 122 101
f 77 103 104
f 77 104 78
f 78 104 105
f 78 105 83
f 78 83 79
f 79 83 80
f 80 83 81
f 81 83 82
f 83 105 106
f 83 106 123
f 83 123 107
f 83 107 84
f 84 107 85
f 85 108 109
f 85 109 110
f 85 110 111
f 85 111 86
f 85 107 108
f 86 111 112
f 86 112 113
f 86 113 87
f 87 113 114
f 87 114 115
f 87 115 116
f 87 116 89
f 87 89 88
f 89 116 136
f 89 136 117
f 92 118 137
f 92 137 138
f 92 138 119
f 92 119 120
f 92 120 93
f 94 120 119
f 94 119 138
f 94 138 144
f 94 144 149
f 94 149 148
f 94 148 151
f 94 151 150
f 94 150 145
f 94 145 139
f 94 139 128
f 94 128 127
f 94 127 126
f 94 126 124
f 94 124 125
f 94 125 123
f 94 123 106
f 94 106 105
f 94 105 104
f 94 104 103
f 94 103 100
f 94 100 99
f 94 99 98
f 94 98 97
f 94 97 101
f 94 101 122
f 94 122 121
f 95 121 122
f 95 122 102
f 95 102 96
f 107 123 125
f 107 125 108
f 108 124 109
f 108 125 124
f 109 124 126
f 109 126 127
f 109 127 110
f 110 127 128
f 110 128 129
f 110 129 130
f 110 130 111
f 111 130 112
f 112 130 113
f 113 130 114
f 114 131 132
f 114 132 115
f 114 130 133
f 114 133 141
f 114 141 131
f 115 132 134
f 115 134 135
f 115 135 116
f 116 135 136
f 128 139 129
f 129 139 145
f 129 145 140
f 129 140 130
f 130 140 133
f 133 142 141
f 133 140 142
f 137 143 138
f 138 143 144
f 140 146 142
f 140 145 150
f 140 150 146
f 143 147 148
f 143 148 149
f 143 149 144
f 147 151 148
