v -0.279984 -0.167307 -0.517618
v -0.0610801 -0.167307 -0.517618
v -0.280005 -0.167307 -0.512779
v -0.280005 -0.151844 -0.517618
v -0.0610801 0.139977 -0.517618
v -0.0610801 -0.167307 -0.185849
v -0.280005 -0.167307 -0.209849
v -0.280005 0.136126 -0.517618
v -0.279941 0.139977 -0.517618
v -0.0610801 0.139977 -0.21407
v -0.0698448 -0.167307 -0.185979
v -0.280005 0.139977 -0.231802
v -0.280005 0.139977 -0.305683
f 1 2 6
f 1 6 11
f 1 11 7
f 1 7 3
f 1 3 4
f 1 4 8
f 1 8 9
f 1 9 5
f 1 5 2
f 2 5 10
f 2 10 6
f 3 7 12
f 3 12 13
f 3 13 8
f 3 8 4
f 5 9 13
f 5 13 12
f 5 12 10
f 6 10 11
f 7 11 12
f 8 13 9
f 10 12 11
