v -0.0906842 0.10378 0.253656
v -0.0939201 0.10378 0.257816
v 0.0239766 0.0914683 0.315245
v 0.0399613 0.0910319 0.295734
v 0.0399613 0.0914224 0.279757
v 0.118286 0.0843015 0.276465
v 0.118286 0.0843015 0.268784
v 0.0399613 0.0914683 0.253656
v -0.255053 0.10378 0.253656
v -0.101912 0.10378 0.265884
v 0.0364134 0.0896536 0.315245
v -0.151504 0.10378 0.315245
v 0.0401172 0.0882754 0.315245
v 0.0481875 0.0838191 0.315245
v 0.049747 0.0826017 0.315245
v 0.118286 0.0719205 0.281168
v 0.118286 0.0719205 0.265805
v 0.0681489 0.0832908 0.253656
v 0.0559459 0.088597 0.253656
v -0.280005 0.0316533 0.253656
v -0.280005 0.10378 0.282989
v -0.280005 0.10378 0.315245
v 0.0515404 0.0719205 0.315245
v 0.118286 -0.0719202 0.281168
v 0.118286 -0.0719202 0.265805
v 0.0730222 0.0559331 0.253656
v 0.0723985 0.0719205 0.253656
v 0.0709949 0.0770199 0.253656
v -0.280005 -0.0316531 0.253656
v -0.280005 -0.130885 0.315245
v 0.0515404 -0.0719202 0.315245
v 0.118286 -0.0732295 0.280716
v 0.0513065 -0.075228 0.315245
v 0.049747 -0.0826015 0.315245
v 0.118286 -0.082992 0.268398
v 0.0681489 -0.0832906 0.253656
v 0.0723985 -0.0719202 0.253656
v 0.0730222 -0.0559328 0.253656
v -0.280005 -0.130885 0.282989
v -0.255053 -0.130885 0.253656
v -0.151582 -0.130885 0.315245
v 0.118286 -0.0843013 0.276465
v 0.0401172 -0.0882752 0.315245
v 0.118286 -0.0843013 0.268784
v 0.061755 -0.0868969 0.253656
v -0.0908792 -0.130885 0.253656
v -0.117975 -0.130885 0.281644
v -0.10199 -0.130885 0.265654
v -0.0940371 -0.130885 0.25766
v 0.0559459 -0.0885967 0.253656
f 1 2 3
f 1 3 4
f 1 4 5
f 1 5 6
f 1 6 7
f 1 7 8
f 1 8 19
f 1 19 18
f 1 18 28
f 1 28 27
f 1 27 26
f 1 26 38
f 1 38 37
f 1 37 36
f 1 36 45
f 1 45 50
f 1 50 46
f 1 46 40
f 1 40 29
f 1 29 20
f 1 20 9
f 1 9 21
f 1 21 22
f 1 22 12
f 1 12 10
f 1 10 2
f 2 10 3
f 3 11 6
f 3 6 4
f 3 10 12
f 3 12 22
f 3 22 30
f 3 30 41
f 3 41 43
f 3 43 34
f 3 34 33
f 3 33 31
f 3 31 23
f 3 23 15
f 3 15 14
f 3 14 13
f 3 13 11
f 4 6 5
f 6 11 13
f 6 13 14
f 6 14 15
f 6 15 16
f 6 16 24
f 6 24 32
f 6 32 42
f 6 42 44
f 6 44 35
f 6 35 25
f 6 25 17
f 6 17 7
f 7 17 18
f 7 18 19
f 7 19 8
f 9 20 21
f 15 23 16
f 16 23 31
f 16 31 24
f 17 25 38
f 17 38 26
f 17 26 27
f 17 27 28
f 17 28 18
f 20 29 39
f 20 39 30
f 20 30 22
f 20 22 21
f 24 31 33
f 24 33 34
f 24 34 32
f 25 35 36
f 25 36 37
f 25 37 38
f 29 40 39
f 30 39 40
f 30 40 46
f 30 46 49
f 30 49 48
f 30 48 47
f 30 47 41
f 32 34 42
f 34 43 42
f 35 44 36
f 36 44 45
f 41 47 42
f 41 42 43
f 42 47 48
f 42 48 49
f 42 49 46
f 42 46 44
f 44 50 45
f 44 46 50
