v -0.0563185 0.167417 0.231357
v -0.0565375 0.167417 0.247118
v -0.0783039 0.10378 0.23114
v -0.0781288 0.10378 0.215937
v -0.0563185 0.167417 0.215782
v -0.0569973 0.167417 0.262724
v -0.0800996 0.10378 0.239114
v -0.0781288 0.10378 0.215782
v -0.0568002 0.167417 0.199897
v -0.0729171 0.167417 0.278765
v -0.101954 0.10378 0.265858
v -0.0939609 0.10378 0.257791
v -0.0862091 0.10378 0.247894
v -0.0801434 0.10378 0.239207
v -0.0797492 0.10378 0.207436
v -0.0852237 0.10378 0.199462
v -0.0931945 0.10378 0.189007
v -0.0724791 0.167417 0.183887
v -0.120873 0.167417 0.326731
v -0.189786 0.10378 0.353692
v -0.101012 0.10378 0.181095
v -0.0883332 0.167417 0.167878
v -0.137165 0.167417 0.342399
v -0.19883 0.10378 0.361666
v -0.18902 0.10378 0.0931053
v -0.152275 0.167417 0.103933
v -0.200209 0.167417 0.360425
v -0.208881 0.157874 0.367406
v -0.207195 0.147216 0.368057
v -0.206888 0.135879 0.368275
v -0.206801 0.10378 0.368306
v -0.197582 0.10378 0.0851626
v -0.199859 0.167417 0.0566808
v -0.18429 0.167417 0.0719766
v -0.183852 0.167417 0.0724109
v -0.16826 0.167417 0.087955
v -0.214574 0.167417 0.364365
v -0.219523 0.161287 0.368709
v -0.214837 0.152274 0.369764
v -0.215801 0.135879 0.371315
v -0.215801 0.10378 0.371377
v -0.205574 0.10378 0.0785541
v -0.215801 0.167417 0.0561223
v -0.205662 0.10378 0.078492
v -0.215669 0.10378 0.0746138
v -0.215801 0.10378 0.0745828
v -0.231786 0.10378 0.0729384
v -0.231786 0.167417 0.365296
v -0.231786 0.161667 0.368957
v -0.231786 0.151863 0.371563
v -0.231786 0.135879 0.372898
v -0.231786 0.10378 0.372991
v -0.231786 0.167417 0.0560292
v -0.277268 0.167417 0.0584492
v -0.2631 0.167417 0.0566497
v -0.247399 0.167417 0.0562774
v -0.245691 0.10378 0.0768477
v -0.234173 0.167417 0.364986
v -0.24118 0.160839 0.368306
v -0.243042 0.151863 0.369267
v -0.244202 0.135879 0.369857
v -0.231917 0.10378 0.37296
v -0.280005 0.167417 0.0738381
v -0.253662 0.10378 0.0814085
v -0.262618 0.10378 0.0893821
v -0.270523 0.10378 0.0969525
v -0.280005 0.10378 0.10654
v -0.247049 0.167417 0.363062
v -0.254845 0.167417 0.359091
v -0.260801 0.167417 0.355988
v -0.251034 0.151863 0.364738
v -0.244246 0.10378 0.369919
v -0.252195 0.135879 0.365296
v -0.280005 0.167417 0.312955
v -0.280005 0.10378 0.339296
v -0.26102 0.167417 0.355771
v -0.269538 0.135879 0.349473
v -0.261545 0.135879 0.357291
v -0.252348 0.10378 0.365265
v -0.26172 0.10378 0.357354
v -0.280005 0.164856 0.327382
v -0.279983 0.167417 0.31311
v -0.277684 0.10378 0.341654
v -0.280005 0.135879 0.339017
v -0.269341 0.167417 0.343082
v -0.280005 0.156983 0.335201
v -0.280005 0.151863 0.33728
v -0.280005 0.145939 0.338024
v -0.269801 0.10378 0.349566
v -0.276699 0.167417 0.327569
f 1 2 3
f 1 3 4
f 1 4 8
f 1 8 5
f 1 5 9
f 1 9 18
f 1 18 22
f 1 22 26
f 1 26 36
f 1 36 35
f 1 35 34
f 1 34 33
f 1 33 43
f 1 43 53
f 1 53 56
f 1 56 55
f 1 55 54
f 1 54 63
f 1 63 74
f 1 74 82
f 1 82 90
f 1 90 85
f 1 85 76
f 1 76 70
f 1 70 69
f 1 69 68
f 1 68 58
f 1 58 48
f 1 48 37
f 1 37 27
f 1 27 23
f 1 23 19
f 1 19 10
f 1 10 6
f 1 6 2
f 2 6 3
f 3 6 7
f 3 7 14
f 3 14 13
f 3 13 12
f 3 12 11
f 3 11 20
f 3 20 24
f 3 24 31
f 3 31 41
f 3 41 52
f 3 52 62
f 3 62 72
f 3 72 79
f 3 79 80
f 3 80 89
f 3 89 83
f 3 83 75
f 3 75 67
f 3 67 66
f 3 66 65
f 3 65 64
f 3 64 57
f 3 57 47
f 3 47 46
f 3 46 45
f 3 45 44
f 3 44 42
f 3 42 32
f 3 32 25
f 3 25 21
f 3 21 17
f 3 17 16
f 3 16 15
f 3 15 8
f 3 8 4
f 5 8 9
f 6 10 11
f 6 11 12
f 6 12 13
f 6 13 14
f 6 14 7
f 8 15 9
f 9 15 16
f 9 16 17
f 9 17 18
f 10 19 11
f 11 19 20
f 17 21 18
f 18 21 22
f 19 23 20
f 20 23 24
f 21 25 26
f 21 26 22
f 23 27 28
f 23 28 29
f 23 29 30
f 23 30 31
f 23 31 24
f 25 32 33
f 25 33 34
f 25 34 35
f 25 35 36
f 25 36 26
f 27 37 38
f 27 38 28
f 28 38 39
f 28 39 29
f 29 39 40
f 29 40 30
f 30 40 41
f 30 41 31
f 32 42 33
f 33 42 44
f 33 44 45
f 33 45 46
f 33 46 47
f 33 47 43
f 37 48 38
f 38 49 50
f 38 50 39
f 38 48 49
f 39 50 40
f 40 50 51
f 40 51 52
f 40 52 41
f 43 47 53
f 47 54 55
f 47 55 56
f 47 56 53
f 47 57 54
f 48 58 59
f 48 59 49
f 49 59 50
f 50 59 60
f 50 60 51
f 51 60 61
f 51 61 62
f 51 62 52
f 54 57 64
f 54 64 65
f 54 65 66
f 54 66 67
f 54 67 63
f 58 68 59
f 59 68 69
f 59 69 70
f 59 70 60
f 60 71 61
f 60 70 71
f 61 72 62
f 61 71 73
f 61 73 72
f 63 67 75
f 63 75 84
f 63 84 88
f 63 88 87
f 63 87 86
f 63 86 81
f 63 81 74
f 70 76 77
f 70 77 78
f 70 78 73
f 70 73 71
f 72 73 79
f 73 78 80
f 73 80 79
f 74 81 82
f 75 83 84
f 76 85 86
f 76 86 87
f 76 87 88
f 76 88 84
f 76 84 77
f 77 89 78
f 77 84 89
f 78 89 80
f 81 86 85
f 81 85 90
f 81 90 82
f 83 89 84
