v -0.280026 0.0692438 0.512674
v -0.280026 0.0436235 0.512674
v -0.280026 0.0719321 0.512646
v -0.286656 0.0719321 0.511285
v -0.286656 0.0559553 0.511313
v -0.286656 0.0436235 0.511313
v -0.280026 0.0436235 0.276882
v -0.280026 0.0782224 0.512051
v -0.295741 0.0719321 0.509243
v -0.295741 0.0559553 0.509271
v -0.295741 0.0436235 0.509271
v -0.329607 0.0436235 0.222939
v -0.280026 0.0444653 0.276939
v -0.280026 0.0848092 0.50652
v -0.311743 0.0851967 0.500337
v -0.327725 0.0829532 0.4977
v -0.336871 0.0807863 0.495998
v -0.311743 0.0719321 0.505102
v -0.311743 0.0559553 0.50513
v -0.311743 0.0436235 0.50513
v -0.489054 0.0436235 0.222939
v -0.336687 0.0924915 0.222939
v -0.280026 0.0924915 0.283008
v -0.280026 0.0857611 0.504932
v -0.295741 0.085699 0.502379
v -0.342806 0.0849432 0.488142
v -0.311743 0.0909704 0.487547
v -0.327725 0.0887269 0.487547
v -0.359687 0.0837377 0.482924
v -0.345445 0.0719321 0.49302
v -0.337444 0.0719321 0.496225
v -0.327725 0.0719321 0.499827
v -0.369264 0.0813603 0.4804
v -0.359687 0.0719321 0.48627
v -0.324062 0.0436235 0.501047
v -0.489054 0.0914726 0.222939
v -0.489054 0.0436235 0.359923
v -0.379639 0.0924915 0.222939
v -0.280026 0.0924915 0.34577
v -0.280026 0.0914726 0.487547
v -0.295741 0.0914726 0.487547
v -0.343706 0.0913243 0.47158
v -0.359687 0.0895114 0.47158
v -0.375035 0.0851536 0.47192
v -0.388315 0.0833598 0.466815
v -0.345445 0.0436235 0.49302
v -0.337444 0.0436235 0.496225
v -0.327725 0.0436235 0.499827
v -0.378043 0.0719321 0.476429
v -0.370062 0.0719321 0.480797
v -0.416697 0.081346 0.448522
v -0.390648 0.0719321 0.468431
v -0.359687 0.0436235 0.48627
v -0.489054 0.0914726 0.231816
v -0.482342 0.0436235 0.372061
v -0.489054 0.0562518 0.359923
v -0.379536 0.0924915 0.231816
v -0.281049 0.0924915 0.344948
v -0.39165 0.0914726 0.439588
v -0.327725 0.0914726 0.47158
v -0.375689 0.0911617 0.455584
v -0.407632 0.0896501 0.439588
v -0.392837 0.0866078 0.456889
v -0.407632 0.0838765 0.451925
v -0.378043 0.0436235 0.476429
v -0.370062 0.0436235 0.480797
v -0.42521 0.0719321 0.441687
v -0.417229 0.0719321 0.448976
v -0.407632 0.0719321 0.456265
v -0.398628 0.0719321 0.462873
v -0.422652 0.0842113 0.438823
v -0.433108 0.0818052 0.433009
v -0.433865 0.0719321 0.433689
v -0.396807 0.0436235 0.464149
v -0.390648 0.0436235 0.468431
v -0.489054 0.0914583 0.247783
v -0.48756 0.0914726 0.295742
v -0.477308 0.0436235 0.380059
v -0.482342 0.0719321 0.372061
v -0.489054 0.0719321 0.359866
v -0.374912 0.0924915 0.247018
v -0.289357 0.0924915 0.337319
v -0.407632 0.0914726 0.423621
v -0.423613 0.0899945 0.423621
v -0.42521 0.0436235 0.441687
v -0.423388 0.0436235 0.44336
v -0.43188 0.0436235 0.435533
v -0.417229 0.0436235 0.448976
v -0.415039 0.0436235 0.450649
v -0.407632 0.0436235 0.456265
v -0.398628 0.0436235 0.462873
v -0.438899 0.0843357 0.422799
v -0.441866 0.0719321 0.425578
v -0.448701 0.0815469 0.416928
v -0.440025 0.0436235 0.42745
v -0.433865 0.0436235 0.433689
v -0.489054 0.0914248 0.263779
v -0.48756 0.0914104 0.311737
v -0.471578 0.0914726 0.3437
v -0.469593 0.0436235 0.39163
v -0.477308 0.0719321 0.380059
v -0.463782 0.0802697 0.399883
v -0.481421 0.0824892 0.370586
v -0.489054 0.0720613 0.359837
v -0.373132 0.0924915 0.249457
v -0.439595 0.0914726 0.39163
v -0.353139 0.0924915 0.273223
v -0.439595 0.0898032 0.407626
v -0.455597 0.0913291 0.375663
v -0.455597 0.0886982 0.39163
v -0.454656 0.0834125 0.406179
v -0.441866 0.0436235 0.425578
v -0.449253 0.0719321 0.41758
v -0.447555 0.0436235 0.419424
v -0.489054 0.0913435 0.279775
v -0.489054 0.0911187 0.295742
v -0.489054 0.0907982 0.311596
v -0.48756 0.0904155 0.327733
v -0.471578 0.0905111 0.359696
v -0.468284 0.0436235 0.393559
v -0.469593 0.0719321 0.39163
v -0.463884 0.0719321 0.399997
v -0.457254 0.0719321 0.407994
v -0.466585 0.0829245 0.39163
v -0.472274 0.0859668 0.375805
v -0.484327 0.0847375 0.359696
v -0.489054 0.0787246 0.354761
v -0.367688 0.0924915 0.256207
v -0.360547 0.0924915 0.264715
v -0.449253 0.0436235 0.41758
v -0.489054 0.0897075 0.327733
v -0.463884 0.0436235 0.399997
v -0.457254 0.0436235 0.407994
v -0.488665 0.0860625 0.344296
v -0.489054 0.0859047 0.344097
f 1 2 7
f 1 7 13
f 1 13 23
f 1 23 39
f 1 39 40
f 1 40 24
f 1 24 14
f 1 14 8
f 1 8 3
f 1 3 4
f 1 4 5
f 1 5 6
f 1 6 2
f 2 6 11
f 2 11 20
f 2 20 35
f 2 35 48
f 2 48 47
f 2 47 46
f 2 46 53
f 2 53 66
f 2 66 65
f 2 65 75
f 2 75 74
f 2 74 91
f 2 91 90
f 2 90 89
f 2 89 88
f 2 88 86
f 2 86 85
f 2 85 87
f 2 87 96
f 2 96 95
f 2 95 112
f 2 112 114
f 2 114 130
f 2 130 133
f 2 133 132
f 2 132 120
f 2 120 100
f 2 100 78
f 2 78 55
f 2 55 37
f 2 37 21
f 2 21 12
f 2 12 7
f 3 8 4
f 4 8 9
f 4 9 10
f 4 10 5
f 5 10 11
f 5 11 6
f 7 12 13
f 8 14 15
f 8 15 16
f 8 16 17
f 8 17 18
f 8 18 9
f 9 18 19
f 9 19 10
f 10 19 20
f 10 20 11
f 12 21 36
f 12 36 38
f 12 38 22
f 12 22 23
f 12 23 13
f 14 24 25
f 14 25 15
f 15 26 16
f 15 25 27
f 15 27 28
f 15 28 26
f 16 26 29
f 16 29 17
f 17 30 31
f 17 31 32
f 17 32 18
f 17 29 33
f 17 33 34
f 17 34 30
f 18 32 19
f 19 32 35
f 19 35 20
f 21 37 56
f 21 56 80
f 21 80 104
f 21 104 127
f 21 127 135
f 21 135 131
f 21 131 117
f 21 117 116
f 21 116 115
f 21 115 97
f 21 97 76
f 21 76 54
f 21 54 36
f 22 38 57
f 22 57 81
f 22 81 105
f 22 105 128
f 22 128 129
f 22 129 107
f 22 107 82
f 22 82 58
f 22 58 39
f 22 39 23
f 24 40 41
f 24 41 27
f 24 27 25
f 26 28 29
f 27 41 42
f 27 42 43
f 27 43 28
f 28 43 29
f 29 43 44
f 29 44 45
f 29 45 33
f 30 46 47
f 30 47 31
f 30 34 53
f 30 53 46
f 31 47 48
f 31 48 32
f 32 48 35
f 33 49 50
f 33 50 34
f 33 45 51
f 33 51 52
f 33 52 49
f 34 50 66
f 34 66 53
f 36 54 38
f 37 55 79
f 37 79 56
f 38 54 57
f 39 58 59
f 39 59 60
f 39 60 41
f 39 41 40
f 41 60 42
f 42 60 59
f 42 59 61
f 42 61 43
f 43 61 62
f 43 62 63
f 43 63 44
f 44 63 45
f 45 63 64
f 45 64 51
f 49 65 66
f 49 66 50
f 49 52 75
f 49 75 65
f 51 67 68
f 51 68 69
f 51 69 70
f 51 70 52
f 51 64 71
f 51 71 72
f 51 72 73
f 51 73 67
f 52 70 74
f 52 74 75
f 54 76 77
f 54 77 57
f 55 78 101
f 55 101 79
f 56 79 80
f 57 77 81
f 58 82 59
f 59 83 84
f 59 84 61
f 59 82 83
f 61 84 62
f 62 71 64
f 62 64 63
f 62 84 71
f 67 85 86
f 67 86 68
f 67 73 87
f 67 87 85
f 68 86 88
f 68 88 89
f 68 89 69
f 69 90 91
f 69 91 70
f 69 89 90
f 70 91 74
f 71 84 92
f 71 92 72
f 72 93 73
f 72 92 94
f 72 94 93
f 73 93 95
f 73 95 96
f 73 96 87
f 76 97 77
f 77 97 98
f 77 98 99
f 77 99 81
f 78 100 121
f 78 121 101
f 79 101 102
f 79 102 103
f 79 103 104
f 79 104 80
f 81 99 106
f 81 106 105
f 82 106 83
f 82 107 106
f 83 106 84
f 84 108 92
f 84 106 109
f 84 109 108
f 92 108 110
f 92 110 111
f 92 111 94
f 93 112 95
f 93 94 113
f 93 113 114
f 93 114 112
f 94 111 102
f 94 102 113
f 97 115 98
f 98 115 116
f 98 116 117
f 98 117 118
f 98 118 119
f 98 119 99
f 99 119 109
f 99 109 106
f 100 120 121
f 101 121 102
f 102 122 123
f 102 123 113
f 102 111 124
f 102 124 103
f 102 121 122
f 103 124 125
f 103 125 126
f 103 126 127
f 103 127 104
f 105 106 128
f 106 107 129
f 106 129 128
f 108 109 119
f 108 119 110
f 110 119 125
f 110 125 124
f 110 124 111
f 113 123 133
f 113 133 130
f 113 130 114
f 117 131 118
f 118 131 126
f 118 126 119
f 119 126 125
f 120 122 121
f 120 132 122
f 122 132 133
f 122 133 123
f 126 131 134
f 126 134 135
f 126 135 127
f 131 135 134
