v 0.484656 9.26547e-05 -0.227708
v 0.483016 9.26547e-05 -0.216686
v 0.484656 -0.00584667 -0.227708
v 0.436461 9.26547e-05 -0.340835
v 0.483016 -0.00584667 -0.216686
v 0.478036 9.26547e-05 -0.214049
v 0.482257 -0.017523 -0.216804
v 0.481498 -0.0291994 -0.216997
v 0.480708 -0.0408758 -0.217441
v 0.479949 -0.0525522 -0.218463
v 0.47919 -0.0642285 -0.220389
v 0.478764 -0.0703885 -0.221708
v 0.478764 -0.0703885 -0.22196
v 0.47919 -0.0642285 -0.222849
v 0.434973 -0.017523 -0.340835
v 0.436006 -0.00948749 -0.340835
v 0.436461 -0.00584667 -0.340835
v 0.256983 9.26547e-05 -0.340835
v 0.472903 -0.00584667 -0.211338
v 0.472903 -0.017523 -0.211456
v 0.472903 -0.0291994 -0.211649
v 0.472903 -0.0408758 -0.212093
v 0.472903 9.26547e-05 -0.211338
v 0.472903 -0.0525522 -0.213115
v 0.46935 -0.122592 -0.217338
v 0.468227 -0.131271 -0.219101
v 0.468227 -0.131271 -0.224271
v 0.470838 -0.110916 -0.227708
v 0.424192 -0.0992393 -0.340835
v 0.425741 -0.0875813 -0.340835
v 0.174411 -0.187759 -0.340835
v 0.258016 9.26547e-05 -0.333264
v 0.338219 -0.00584667 -0.189485
v 0.337733 -0.00983687 -0.189485
v 0.333785 -0.0408758 -0.189485
v 0.332267 -0.0525522 -0.189485
v 0.461211 -0.110916 -0.21153
v 0.461211 -0.122592 -0.211989
v 0.338219 9.26547e-05 -0.189485
v 0.459359 -0.145945 -0.216834
v 0.455593 -0.16402 -0.221071
v 0.44624 -0.180974 -0.217545
v 0.444843 -0.187759 -0.219189
v 0.466344 -0.12513 -0.232064
v 0.468955 -0.121783 -0.227989
v 0.455593 -0.16402 -0.22233
v 0.412227 -0.13767 -0.340835
v 0.416934 -0.126233 -0.340835
v 0.41827 -0.122868 -0.340835
v 0.41988 -0.118786 -0.340835
v 0.421186 -0.114887 -0.340835
v 0.422036 -0.111044 -0.340835
v 0.21304 -0.187759 -0.189485
v 0.285013 9.26547e-05 -0.189485
v 0.280671 9.26547e-05 -0.212434
v 0.276723 9.26547e-05 -0.233456
v 0.264667 9.26547e-05 -0.297753
v 0.391455 -0.187759 -0.340835
v 0.330293 -0.0671155 -0.189485
v 0.329078 -0.0759049 -0.189485
v 0.328866 -0.0771185 -0.189485
v 0.32762 -0.0840876 -0.189485
v 0.327195 -0.0859448 -0.189485
v 0.44955 -0.145945 -0.211471
v 0.437858 -0.180974 -0.212197
v 0.44955 -0.157621 -0.213515
v 0.325889 -0.0908176 -0.189485
v 0.438283 -0.187759 -0.214493
v 0.441867 -0.187759 -0.216789
v 0.444813 -0.187759 -0.224286
v 0.392761 -0.184615 -0.340835
v 0.404028 -0.157456 -0.340835
v 0.409889 -0.143315 -0.340835
v 0.279638 -0.187759 -0.189485
v 0.437858 -0.169298 -0.211323
v 0.322792 -0.0992393 -0.189485
v 0.321638 -0.102089 -0.189485
v 0.318388 -0.110051 -0.189485
v 0.308306 -0.13436 -0.189485
v 0.298376 -0.158154 -0.189485
v 0.431116 -0.187759 -0.211634
v 0.283282 -0.183125 -0.189485
v 0.296614 -0.161979 -0.189485
v 0.294185 -0.167091 -0.189485
v 0.290935 -0.172718 -0.189485
v 0.284953 -0.180937 -0.189485
f 1 2 5
f 1 5 3
f 1 3 17
f 1 17 4
f 1 4 18
f 1 18 32
f 1 32 57
f 1 57 56
f 1 56 55
f 1 55 54
f 1 54 39
f 1 39 23
f 1 23 6
f 1 6 2
f 2 6 5
f 3 5 7
f 3 7 8
f 3 8 9
f 3 9 10
f 3 10 11
f 3 11 12
f 3 12 13
f 3 13 14
f 3 14 15
f 3 15 16
f 3 16 17
f 4 17 16
f 4 16 15
f 4 15 30
f 4 30 29
f 4 29 52
f 4 52 51
f 4 51 50
f 4 50 49
f 4 49 48
f 4 48 47
f 4 47 73
f 4 73 72
f 4 72 71
f 4 71 58
f 4 58 31
f 4 31 18
f 5 6 19
f 5 19 20
f 5 20 21
f 5 21 22
f 5 22 7
f 6 23 19
f 7 22 8
f 8 22 9
f 9 22 24
f 9 24 25
f 9 25 10
f 10 25 11
f 11 25 12
f 12 25 26
f 12 26 27
f 12 27 13
f 13 27 28
f 13 28 29
f 13 29 30
f 13 30 15
f 13 15 14
f 18 31 32
f 19 23 39
f 19 39 33
f 19 33 20
f 20 33 21
f 21 33 34
f 21 34 35
f 21 35 36
f 21 36 37
f 21 37 22
f 22 37 38
f 22 38 24
f 24 38 25
f 25 38 40
f 25 40 26
f 26 41 46
f 26 46 27
f 26 40 42
f 26 42 43
f 26 43 41
f 27 44 45
f 27 45 28
f 27 46 47
f 27 47 48
f 27 48 49
f 27 49 50
f 27 50 51
f 27 51 44
f 28 45 29
f 29 45 52
f 31 53 54
f 31 54 55
f 31 55 56
f 31 56 57
f 31 57 32
f 31 58 70
f 31 70 43
f 31 43 69
f 31 69 68
f 31 68 81
f 31 81 74
f 31 74 53
f 33 39 54
f 33 54 53
f 33 53 74
f 33 74 82
f 33 82 86
f 33 86 85
f 33 85 84
f 33 84 83
f 33 83 80
f 33 80 79
f 33 79 78
f 33 78 77
f 33 77 76
f 33 76 67
f 33 67 63
f 33 63 62
f 33 62 61
f 33 61 60
f 33 60 59
f 33 59 36
f 33 36 35
f 33 35 34
f 36 59 37
f 37 59 60
f 37 60 61
f 37 61 62
f 37 62 63
f 37 63 38
f 38 64 65
f 38 65 66
f 38 66 40
f 38 63 67
f 38 67 64
f 40 66 42
f 41 43 46
f 42 66 65
f 42 65 68
f 42 68 69
f 42 69 43
f 43 70 46
f 44 51 45
f 45 51 52
f 46 70 58
f 46 58 71
f 46 71 72
f 46 72 73
f 46 73 47
f 64 75 65
f 64 67 76
f 64 76 77
f 64 77 78
f 64 78 79
f 64 79 80
f 64 80 75
f 65 75 81
f 65 81 68
f 74 81 82
f 75 80 83
f 75 83 84
f 75 84 81
f 81 84 85
f 81 85 86
f 81 86 82
