v -0.26793 -0.290508 0.403743
v -0.151442 -0.363301 0.403743
v -0.26793 -0.256117 0.268865
v -0.26793 -0.450407 0.403743
v -0.15143 -0.367061 0.403743
v -0.15143 -0.362048 0.397549
v -0.267896 -0.256092 0.268548
v -0.26793 -0.257044 0.268548
v -0.15143 -0.349013 0.332804
v -0.15143 -0.342922 0.302535
v -0.15143 -0.339914 0.28758
v -0.15143 -0.338485 0.280446
v -0.15143 -0.336104 0.268548
v -0.26793 -0.46294 0.36781
v -0.258019 -0.467527 0.374785
v -0.26403 -0.453114 0.403743
v -0.15143 -0.500891 0.403743
v -0.26793 -0.362499 0.268548
v -0.15143 -0.425466 0.268548
v -0.26793 -0.46294 0.356137
v -0.264429 -0.465121 0.36781
v -0.258589 -0.467778 0.36781
v -0.175358 -0.502169 0.373872
v -0.227112 -0.469608 0.403743
v -0.251325 -0.459431 0.403743
v -0.254438 -0.458002 0.403743
v -0.261897 -0.454317 0.403743
v -0.168127 -0.494048 0.403743
v -0.15143 -0.512146 0.36781
v -0.262501 -0.367036 0.268548
v -0.251051 -0.414512 0.274345
v -0.262729 -0.402831 0.27408
v -0.26793 -0.402831 0.274821
v -0.15143 -0.461236 0.274927
v -0.151909 -0.42529 0.268548
v -0.26793 -0.444491 0.291206
v -0.258019 -0.467527 0.349599
v -0.264429 -0.465121 0.356137
v -0.258589 -0.467778 0.356137
v -0.175449 -0.502219 0.36781
v -0.169324 -0.504751 0.36781
v -0.169324 -0.504751 0.356137
v -0.15143 -0.512096 0.356137
v -0.249534 -0.377489 0.268548
v -0.239372 -0.426193 0.275231
v -0.26793 -0.410702 0.276714
v -0.236156 -0.387615 0.268548
v -0.227717 -0.392955 0.268548
v -0.157646 -0.461236 0.275589
v -0.181003 -0.449555 0.27502
v -0.204348 -0.437874 0.274517
v -0.156665 -0.423511 0.268548
v -0.15143 -0.467302 0.277031
v -0.262729 -0.44607 0.289988
v -0.2469 -0.456072 0.291127
v -0.26793 -0.44196 0.289737
v -0.221957 -0.467101 0.291881
v -0.175358 -0.502169 0.350168
v -0.175449 -0.502219 0.356137
v -0.15143 -0.493246 0.289538
v -0.164238 -0.490739 0.291537
v -0.157646 -0.492017 0.290346
v -0.263858 -0.415665 0.277323
v -0.227694 -0.426193 0.274159
v -0.216015 -0.437874 0.275906
v -0.239372 -0.435342 0.278871
v -0.247664 -0.433437 0.279665
v -0.251359 -0.426794 0.277984
v -0.26793 -0.414311 0.277971
v -0.214248 -0.399647 0.268548
v -0.19267 -0.449555 0.276714
v -0.15143 -0.471563 0.278778
v -0.250891 -0.450031 0.288453
v -0.262729 -0.437874 0.285475
v -0.239372 -0.457501 0.289909
v -0.189191 -0.47971 0.290875
v -0.26793 -0.437673 0.287394
v -0.15143 -0.489761 0.287421
v -0.157646 -0.484573 0.285806
v -0.181003 -0.481239 0.289631
v -0.260711 -0.423285 0.279202
v -0.263858 -0.426794 0.28132
v -0.26793 -0.421104 0.280393
v -0.227591 -0.4385 0.278143
v -0.239372 -0.441183 0.281306
v -0.255453 -0.431081 0.280592
v -0.251359 -0.437548 0.282127
v -0.181003 -0.459105 0.278686
v -0.203276 -0.44978 0.278646
v -0.231412 -0.442837 0.280618
v -0.165914 -0.468079 0.279824
v -0.15143 -0.475148 0.280274
v -0.239372 -0.449555 0.285131
v -0.26793 -0.43266 0.284893
v -0.26793 -0.426569 0.282418
v -0.15143 -0.484096 0.284284
v -0.181003 -0.472892 0.284681
v -0.26793 -0.42341 0.281227
v -0.206458 -0.453841 0.280896
v -0.19267 -0.462539 0.282153
v -0.227591 -0.448828 0.282471
v -0.15143 -0.479635 0.282167
v -0.157646 -0.475624 0.281558
v -0.16961 -0.47234 0.282259
v -0.203276 -0.460108 0.283
f 1 2 3
f 1 3 8
f 1 8 18
f 1 18 33
f 1 33 46
f 1 46 69
f 1 69 83
f 1 83 98
f 1 98 95
f 1 95 94
f 1 94 77
f 1 77 56
f 1 56 36
f 1 36 20
f 1 20 14
f 1 14 4
f 1 4 16
f 1 16 27
f 1 27 26
f 1 26 25
f 1 25 24
f 1 24 28
f 1 28 17
f 1 17 5
f 1 5 2
f 2 5 6
f 2 6 3
f 3 7 8
f 3 6 9
f 3 9 10
f 3 10 11
f 3 11 12
f 3 12 13
f 3 13 7
f 4 14 15
f 4 15 16
f 5 17 29
f 5 29 43
f 5 43 60
f 5 60 78
f 5 78 96
f 5 96 102
f 5 102 92
f 5 92 72
f 5 72 53
f 5 53 34
f 5 34 19
f 5 19 13
f 5 13 12
f 5 12 11
f 5 11 10
f 5 10 9
f 5 9 6
f 7 13 19
f 7 19 35
f 7 35 52
f 7 52 70
f 7 70 48
f 7 48 47
f 7 47 44
f 7 44 30
f 7 30 18
f 7 18 8
f 14 20 38
f 14 38 21
f 14 21 15
f 15 21 22
f 15 22 23
f 15 23 24
f 15 24 25
f 15 25 26
f 15 26 27
f 15 27 16
f 17 28 23
f 17 23 29
f 18 30 31
f 18 31 32
f 18 32 33
f 19 34 35
f 20 36 37
f 20 37 38
f 21 38 39
f 21 39 22
f 22 39 59
f 22 59 40
f 22 40 23
f 23 40 41
f 23 41 29
f 23 28 24
f 29 41 42
f 29 42 43
f 30 44 31
f 31 45 46
f 31 46 33
f 31 33 32
f 31 44 47
f 31 47 48
f 31 48 45
f 34 49 50
f 34 50 51
f 34 51 52
f 34 52 35
f 34 53 49
f 36 54 55
f 36 55 37
f 36 56 54
f 37 39 38
f 37 55 57
f 37 57 58
f 37 58 39
f 39 58 59
f 40 59 42
f 40 42 41
f 42 59 58
f 42 58 43
f 43 58 61
f 43 61 62
f 43 62 60
f 45 63 46
f 45 48 64
f 45 64 51
f 45 51 50
f 45 50 49
f 45 49 65
f 45 65 66
f 45 66 67
f 45 67 68
f 45 68 63
f 46 63 69
f 48 70 64
f 49 71 65
f 49 53 72
f 49 72 71
f 51 64 52
f 52 64 70
f 54 73 55
f 54 56 74
f 54 74 73
f 55 73 75
f 55 75 76
f 55 76 61
f 55 61 57
f 56 77 74
f 57 61 58
f 60 62 79
f 60 79 78
f 61 76 62
f 62 76 75
f 62 75 80
f 62 80 79
f 63 68 81
f 63 81 82
f 63 82 83
f 63 83 69
f 65 84 66
f 65 71 84
f 66 84 85
f 66 85 67
f 67 86 68
f 67 85 87
f 67 87 86
f 68 86 81
f 71 88 89
f 71 89 90
f 71 90 84
f 71 72 91
f 71 91 88
f 72 92 91
f 73 74 87
f 73 87 93
f 73 93 75
f 74 77 94
f 74 94 95
f 74 95 86
f 74 86 87
f 75 93 79
f 75 79 80
f 78 79 96
f 79 97 96
f 79 93 97
f 81 86 82
f 82 86 95
f 82 95 98
f 82 98 83
f 84 90 85
f 85 90 99
f 85 99 100
f 85 100 101
f 85 101 93
f 85 93 87
f 88 90 89
f 88 91 90
f 90 91 99
f 91 92 99
f 92 102 103
f 92 103 104
f 92 104 99
f 93 101 105
f 93 105 97
f 96 97 102
f 97 105 102
f 99 104 100
f 100 104 101
f 101 104 105
f 102 105 104
f 102 104 103
