v 0.326097 -0.152544 0.221206
v 0.416095 -0.152544 0.221206
v 0.330491 -0.152544 0.243042
v 0.371084 9.26547e-05 0.269398
v 0.369762 9.26547e-05 0.262728
v 0.363089 9.26547e-05 0.227221
v 0.362384 9.26547e-05 0.221206
v 0.418437 -0.145925 0.221206
v 0.436253 -0.128908 0.269398
v 0.433949 -0.1346 0.269398
v 0.426142 -0.152544 0.269398
v 0.334369 -0.152544 0.262313
v 0.454623 9.26547e-05 0.269398
v 0.335805 -0.152544 0.269398
v 0.441679 9.26547e-05 0.221206
v 0.426268 -0.122827 0.221206
v 0.430184 -0.110993 0.221206
v 0.440974 -0.110919 0.269398
v 0.454686 9.26547e-05 0.26937
v 0.454723 6.2779e-05 0.269398
v 0.441944 -0.0175227 0.221206
v 0.440722 -0.0525593 0.221206
v 0.445293 -0.0865051 0.269398
v 0.454711 -0.00589866 0.269398
v 0.441742 -0.0408754 0.221206
v 0.45354 -0.0162229 0.269398
f 1 2 11
f 1 11 14
f 1 14 12
f 1 12 3
f 1 3 4
f 1 4 5
f 1 5 6
f 1 6 7
f 1 7 15
f 1 15 21
f 1 21 25
f 1 25 22
f 1 22 17
f 1 17 16
f 1 16 8
f 1 8 2
f 2 8 9
f 2 9 10
f 2 10 11
f 3 12 4
f 4 13 19
f 4 19 15
f 4 15 7
f 4 7 6
f 4 6 5
f 4 12 14
f 4 14 11
f 4 11 10
f 4 10 9
f 4 9 18
f 4 18 23
f 4 23 26
f 4 26 24
f 4 24 20
f 4 20 13
f 8 16 9
f 9 16 17
f 9 17 18
f 13 20 19
f 15 19 20
f 15 20 21
f 17 22 18
f 18 22 23
f 20 24 21
f 21 24 25
f 22 25 24
f 22 24 26
f 22 26 23
