v 0.00584555 0.454931 0.269575
v 9.21327e-05 0.454931 0.269575
v 0.0175155 0.453471 0.269575
v 0.0540082 0.442531 0.220313
v 0.0424272 0.443299 0.220313
v 0.019369 0.443526 0.220313
v 0.0175155 0.443538 0.220313
v 9.21327e-05 0.44345 0.220313
v 9.21327e-05 0.371116 0.269575
v 0.0292003 0.451985 0.269575
v 0.0311724 0.451733 0.269575
v 0.11092 0.441096 0.269575
v 0.112654 0.431768 0.220313
v 9.21327e-05 0.362279 0.220313
v 9.21327e-05 0.369757 0.262727
v 0.15152 0.326339 0.220313
v 0.151579 0.326867 0.223023
v 0.151579 0.331147 0.24432
v 0.151579 0.336233 0.269575
v 0.112595 0.440655 0.269575
v 0.122664 0.437899 0.269575
v 0.147605 0.420023 0.220313
v 9.21327e-05 0.362279 0.220318
v 9.21327e-05 0.363085 0.227224
v 0.151579 0.337341 0.220313
v 0.151579 0.326792 0.222637
v 9.21327e-05 0.362506 0.222271
v 0.151579 0.426229 0.269575
v 0.131961 0.434588 0.269575
v 0.151579 0.417983 0.220313
f 1 2 9
f 1 9 19
f 1 19 28
f 1 28 29
f 1 29 21
f 1 21 20
f 1 20 12
f 1 12 11
f 1 11 10
f 1 10 3
f 1 3 4
f 1 4 5
f 1 5 6
f 1 6 7
f 1 7 2
f 2 7 8
f 2 8 14
f 2 14 23
f 2 23 27
f 2 27 24
f 2 24 15
f 2 15 9
f 3 10 4
f 4 10 11
f 4 11 12
f 4 12 13
f 4 13 22
f 4 22 30
f 4 30 25
f 4 25 16
f 4 16 14
f 4 14 8
f 4 8 7
f 4 7 6
f 4 6 5
f 9 15 16
f 9 16 17
f 9 17 18
f 9 18 19
f 12 20 13
f 13 20 21
f 13 21 22
f 14 16 23
f 15 24 16
f 16 25 26
f 16 26 17
f 16 24 27
f 16 27 23
f 17 26 25
f 17 25 30
f 17 30 28
f 17 28 19
f 17 19 18
f 21 29 22
f 22 28 30
f 22 29 28
