v -0.26793 -0.241462 0.220672
v -0.26793 -0.151272 -0.0688279
v -0.26793 -0.35097 0.220672
v -0.15143 -0.326464 0.220672
v -0.15143 -0.275484 -0.0297178
v -0.15143 -0.267936 -0.0684594
v -0.15143 -0.267864 -0.0688279
v -0.26793 -0.343135 -0.0688279
v -0.263368 -0.356229 0.220672
v -0.26793 -0.449532 0.218943
v -0.262729 -0.449532 0.219085
v -0.15143 -0.417012 0.220672
v -0.15143 -0.407925 -0.0688279
v -0.238095 -0.366246 -0.0688279
v -0.26468 -0.370647 -0.0571232
v -0.26793 -0.365674 -0.0581718
v -0.262729 -0.356694 0.220672
v -0.26793 -0.461373 0.216704
v -0.262729 -0.46123 0.218291
v -0.251051 -0.46123 0.218971
v -0.239372 -0.46123 0.219085
v -0.218217 -0.385672 0.220672
v -0.228196 -0.379913 0.220672
v -0.157589 -0.414972 0.220672
v -0.157646 -0.496254 0.219085
v -0.15143 -0.496254 0.219085
v -0.15143 -0.429712 -0.0572082
v -0.157578 -0.405814 -0.0688279
v -0.224843 -0.376478 -0.0688279
v -0.26793 -0.36943 -0.0563013
v -0.251051 -0.381737 -0.0567548
v -0.250857 -0.391289 -0.0509166
v -0.26793 -0.468993 0.212765
v -0.262729 -0.47021 0.213842
v -0.239372 -0.472893 0.217526
v -0.181003 -0.496254 0.217894
v -0.204348 -0.484591 0.21849
v -0.227694 -0.472893 0.218801
v -0.169324 -0.496254 0.218886
v -0.19267 -0.484591 0.219028
v -0.216015 -0.472893 0.219085
v -0.15143 -0.507917 0.217838
v -0.15143 -0.433218 -0.0546859
v -0.157646 -0.428424 -0.056528
v -0.169176 -0.401378 -0.0688279
v -0.216015 -0.381272 -0.0688279
v -0.230465 -0.395189 -0.057605
v -0.23984 -0.391253 -0.0561879
v -0.244037 -0.38442 -0.0580017
v -0.26793 -0.373258 -0.053864
v -0.259696 -0.387497 -0.048791
v -0.2383 -0.402415 -0.0494995
v -0.246843 -0.398265 -0.0480825
v -0.26793 -0.468993 0.209789
v -0.24682 -0.479368 0.211433
v -0.239372 -0.480907 0.213077
v -0.181003 -0.504661 0.213417
v -0.204348 -0.494 0.21404
v -0.157646 -0.507917 0.216903
v -0.15143 -0.51661 0.213388
v -0.15143 -0.436974 -0.0518518
v -0.157646 -0.436187 -0.0506899
v -0.19267 -0.423093 -0.0496979
v -0.216015 -0.404669 -0.0562446
v -0.181003 -0.417763 -0.0570948
v -0.19267 -0.391683 -0.0688279
v -0.20152 -0.38789 -0.0688279
v -0.222676 -0.397407 -0.0585686
v -0.227021 -0.401914 -0.0545442
v -0.26793 -0.377623 -0.0509733
v -0.26793 -0.380986 -0.0430662
v -0.26793 -0.468958 0.206416
v -0.233704 -0.408783 -0.0468639
v -0.24682 -0.479368 0.20891
v -0.2219 -0.490423 0.210214
v -0.164169 -0.514035 0.210781
v -0.189123 -0.503016 0.211801
v -0.157646 -0.515358 0.212453
v -0.15143 -0.516753 0.204999
v -0.15143 -0.439801 -0.0444549
v -0.169324 -0.43379 -0.0487627
v -0.201041 -0.421412 -0.0480542
v -0.227694 -0.410035 -0.0483092
v -0.216015 -0.412397 -0.0504065
v -0.176076 -0.432395 -0.0472606
v -0.2219 -0.490423 0.210129
v -0.164169 -0.514035 0.209619
f 1 2 8
f 1 8 16
f 1 16 30
f 1 30 50
f 1 50 70
f 1 70 71
f 1 71 72
f 1 72 54
f 1 54 33
f 1 33 18
f 1 18 10
f 1 10 3
f 1 3 9
f 1 9 17
f 1 17 23
f 1 23 22
f 1 22 24
f 1 24 12
f 1 12 4
f 1 4 2
f 2 4 5
f 2 5 6
f 2 6 7
f 2 7 13
f 2 13 28
f 2 28 45
f 2 45 66
f 2 66 67
f 2 67 46
f 2 46 29
f 2 29 14
f 2 14 8
f 3 10 11
f 3 11 9
f 4 12 26
f 4 26 42
f 4 42 60
f 4 60 79
f 4 79 80
f 4 80 61
f 4 61 43
f 4 43 27
f 4 27 13
f 4 13 7
f 4 7 6
f 4 6 5
f 8 14 15
f 8 15 16
f 9 11 17
f 10 18 19
f 10 19 20
f 10 20 11
f 11 20 21
f 11 21 22
f 11 22 23
f 11 23 17
f 12 24 25
f 12 25 26
f 13 27 28
f 14 29 15
f 15 30 16
f 15 29 31
f 15 31 32
f 15 32 30
f 18 33 34
f 18 34 19
f 19 34 35
f 19 35 36
f 19 36 37
f 19 37 38
f 19 38 20
f 20 38 39
f 20 39 40
f 20 40 41
f 20 41 21
f 21 41 22
f 22 41 24
f 24 41 25
f 25 40 39
f 25 39 42
f 25 42 26
f 25 41 40
f 27 43 44
f 27 44 45
f 27 45 28
f 29 46 47
f 29 47 48
f 29 48 49
f 29 49 31
f 30 32 50
f 31 49 48
f 31 48 32
f 32 51 50
f 32 48 52
f 32 52 53
f 32 53 51
f 33 54 74
f 33 74 55
f 33 55 34
f 34 55 56
f 34 56 57
f 34 57 58
f 34 58 59
f 34 59 35
f 35 59 36
f 36 59 42
f 36 42 37
f 37 42 39
f 37 39 38
f 42 59 60
f 43 61 62
f 43 62 44
f 44 63 64
f 44 64 65
f 44 65 45
f 44 62 63
f 45 65 66
f 46 67 68
f 46 68 47
f 47 68 64
f 47 64 69
f 47 69 52
f 47 52 48
f 50 51 70
f 51 71 70
f 51 53 72
f 51 72 71
f 52 69 73
f 52 73 53
f 53 73 72
f 54 72 74
f 55 74 86
f 55 86 75
f 55 75 76
f 55 76 77
f 55 77 56
f 56 77 78
f 56 78 57
f 57 78 60
f 57 60 59
f 57 59 58
f 60 78 79
f 61 80 62
f 62 80 81
f 62 81 63
f 63 82 83
f 63 83 84
f 63 84 64
f 63 81 82
f 64 84 83
f 64 83 69
f 64 68 67
f 64 67 66
f 64 66 65
f 69 83 73
f 72 73 74
f 73 83 82
f 73 82 85
f 73 85 86
f 73 86 74
f 75 86 87
f 75 87 76
f 76 87 79
f 76 79 78
f 76 78 77
f 79 87 85
f 79 85 81
f 79 81 80
f 81 85 82
f 85 87 86
