v -0.152544 0.472892 0.590268
v -0.152544 0.477994 0.589866
v -0.157646 0.472892 0.590268
v -0.152544 0.419649 0.590268
v -0.169321 0.472892 0.589811
v -0.152544 0.485058 0.588112
v -0.19267 0.461223 0.590085
v -0.21602 0.449554 0.590268
v -0.157646 0.414547 0.590268
v -0.152544 0.414547 0.590103
v -0.204357 0.461223 0.589117
v -0.227695 0.449554 0.589683
v -0.152544 0.489088 0.586633
v -0.169321 0.482651 0.586596
v -0.180996 0.472892 0.588368
v -0.251045 0.437859 0.589957
v -0.23937 0.437859 0.590268
v -0.26272 0.356149 0.590268
v -0.269122 0.349765 0.590158
v -0.152544 0.407613 0.588277
v -0.269122 0.344218 0.588971
v -0.269122 0.337625 0.587254
v -0.227695 0.458895 0.586468
v -0.251045 0.44822 0.58676
v -0.152544 0.491992 0.585208
v -0.204357 0.469596 0.585902
v -0.263518 0.438748 0.587418
v -0.269122 0.432286 0.588185
v -0.269122 0.42619 0.5895
v -0.26272 0.42619 0.590231
v -0.269122 0.419806 0.590249
v -0.269122 0.414547 0.590268
v -0.269122 0.356149 0.590268
v -0.152544 0.403637 0.586888
v -0.269122 0.335061 0.586212
v -0.23727 0.456932 0.58519
v -0.260163 0.445891 0.585591
v -0.152544 0.493379 0.583929
v -0.154599 0.491573 0.584897
v -0.269122 0.436786 0.586523
v -0.161492 0.396206 0.584897
v -0.152544 0.398482 0.578814
v -0.269122 0.331738 0.58086
v -0.265778 0.3365 0.585719
v -0.245053 0.45531 0.583765
v -0.2123 0.467947 0.58466
v -0.267946 0.443249 0.583399
v -0.269122 0.441705 0.58382
v -0.251045 0.454054 0.58245
v -0.268871 0.467267 0.560694
v -0.264306 0.450601 0.578851
v -0.152544 0.497748 0.579436
v -0.162382 0.489925 0.583363
v -0.187352 0.478962 0.584057
v -0.152544 0.398037 0.577993
v -0.269122 0.330378 0.577773
v -0.220094 0.466325 0.583071
v -0.227695 0.464755 0.581408
v -0.24091 0.461877 0.578668
v -0.26272 0.468575 0.562064
v -0.269122 0.442778 0.582998
v -0.268449 0.45531 0.572092
v -0.269122 0.454394 0.572458
v -0.26854 0.478727 0.548803
v -0.269122 0.495576 0.530737
v -0.269122 0.47857 0.548638
v -0.269122 0.46745 0.560329
v -0.269122 0.466901 0.560858
v -0.152544 0.509129 0.567434
v -0.161891 0.501437 0.571471
v -0.204357 0.486811 0.568348
v -0.227695 0.476137 0.569407
v -0.152544 0.396834 0.572732
v -0.269122 0.322215 0.542976
v -0.269122 0.289536 0.403657
v -0.260757 0.480349 0.550501
v -0.269122 0.455048 0.571855
v -0.263906 0.496754 0.531796
v -0.268038 0.490213 0.536893
v -0.269122 0.499998 0.526079
v -0.152544 0.54827 0.526115
v -0.169321 0.511275 0.557845
v -0.181235 0.531395 0.531395
v -0.204357 0.509548 0.544346
v -0.152544 0.380298 0.490587
v -0.152544 0.362821 0.403657
v -0.152544 0.375092 0.464703
v -0.269122 0.449502 0.403657
v -0.251045 0.5051 0.528618
v -0.267547 0.501672 0.525001
v -0.269122 0.501332 0.524654
v -0.152544 0.548846 0.525494
v -0.159905 0.547328 0.523887
v -0.177092 0.537936 0.526298
v -0.169321 0.534011 0.533842
v -0.152544 0.500364 0.403657
v -0.269122 0.455886 0.413393
v -0.267478 0.454708 0.409739
v -0.263963 0.453086 0.403657
v -0.242577 0.512687 0.524307
v -0.251045 0.510934 0.522426
v -0.269122 0.503923 0.521823
v -0.152544 0.549238 0.525056
v -0.156664 0.552143 0.51985
v -0.1761 0.549186 0.514315
v -0.169321 0.545366 0.521768
v -0.19267 0.534691 0.522882
v -0.184876 0.536313 0.524599
v -0.152636 0.500338 0.403657
v -0.152544 0.548506 0.489765
v -0.269122 0.467424 0.431458
v -0.26911 0.467424 0.43144
v -0.263244 0.453505 0.403657
v -0.258748 0.514519 0.51479
v -0.269122 0.506591 0.518718
v -0.152544 0.553791 0.51943
v -0.169321 0.550494 0.515923
v -0.152544 0.5568 0.508105
v -0.1761 0.549186 0.512562
v -0.233823 0.52556 0.51395
v -0.169138 0.493562 0.403657
v -0.165155 0.5495 0.500853
v -0.152544 0.549108 0.490843
v -0.269122 0.490657 0.472704
v -0.26272 0.468784 0.428956
v -0.251319 0.459366 0.403657
v -0.258371 0.456226 0.403657
v -0.262001 0.454211 0.403657
v -0.258748 0.514519 0.511429
v -0.269122 0.50892 0.507831
v -0.269122 0.508135 0.513183
v -0.157646 0.555125 0.50794
v -0.152544 0.551829 0.496542
v -0.156664 0.550677 0.496706
v -0.17295 0.547878 0.50478
v -0.233823 0.52556 0.513402
v -0.215096 0.474567 0.403657
v -0.222868 0.525874 0.501346
v -0.197909 0.536863 0.502844
v -0.269122 0.492175 0.475408
v -0.227113 0.469543 0.403657
v -0.255621 0.513237 0.503629
v -0.262674 0.511615 0.507685
v -0.269122 0.504629 0.497656
v -0.269122 0.497068 0.484139
v -0.247826 0.514859 0.500159
f 1 2 3
f 1 3 8
f 1 8 17
f 1 17 32
f 1 32 33
f 1 33 18
f 1 18 9
f 1 9 4
f 1 4 10
f 1 10 20
f 1 20 34
f 1 34 42
f 1 42 55
f 1 55 73
f 1 73 85
f 1 85 87
f 1 87 86
f 1 86 96
f 1 96 110
f 1 110 123
f 1 123 133
f 1 133 118
f 1 118 116
f 1 116 103
f 1 103 92
f 1 92 81
f 1 81 69
f 1 69 52
f 1 52 38
f 1 38 25
f 1 25 13
f 1 13 6
f 1 6 2
f 2 5 3
f 2 6 5
f 3 5 7
f 3 7 8
f 4 9 10
f 5 11 12
f 5 12 7
f 5 6 11
f 6 13 14
f 6 14 15
f 6 15 11
f 7 12 16
f 7 16 8
f 8 16 17
f 9 18 19
f 9 19 10
f 10 19 21
f 10 21 22
f 10 22 20
f 11 23 24
f 11 24 12
f 11 15 14
f 11 14 23
f 12 24 16
f 13 25 14
f 14 25 26
f 14 26 23
f 16 27 28
f 16 28 29
f 16 29 30
f 16 30 17
f 16 24 27
f 17 30 31
f 17 31 32
f 18 33 19
f 19 33 32
f 19 32 31
f 19 31 29
f 19 29 28
f 19 28 40
f 19 40 48
f 19 48 61
f 19 61 63
f 19 63 77
f 19 77 68
f 19 68 67
f 19 67 66
f 19 66 65
f 19 65 80
f 19 80 91
f 19 91 102
f 19 102 115
f 19 115 131
f 19 131 130
f 19 130 144
f 19 144 145
f 19 145 140
f 19 140 124
f 19 124 111
f 19 111 97
f 19 97 88
f 19 88 75
f 19 75 74
f 19 74 56
f 19 56 43
f 19 43 35
f 19 35 22
f 19 22 21
f 20 22 34
f 22 35 34
f 23 26 36
f 23 36 24
f 24 36 37
f 24 37 27
f 25 38 39
f 25 39 26
f 26 39 36
f 27 37 40
f 27 40 28
f 29 31 30
f 34 41 42
f 34 35 41
f 35 43 44
f 35 44 41
f 36 45 37
f 36 39 46
f 36 46 45
f 37 47 48
f 37 48 40
f 37 45 49
f 37 49 50
f 37 50 51
f 37 51 47
f 38 52 53
f 38 53 39
f 39 53 54
f 39 54 46
f 41 55 42
f 41 44 43
f 41 43 55
f 43 56 55
f 45 46 54
f 45 54 57
f 45 57 58
f 45 58 59
f 45 59 60
f 45 60 49
f 47 61 48
f 47 51 62
f 47 62 63
f 47 63 61
f 49 60 50
f 50 60 64
f 50 64 65
f 50 65 66
f 50 66 67
f 50 67 68
f 50 68 62
f 50 62 51
f 52 54 53
f 52 69 70
f 52 70 54
f 54 71 72
f 54 72 59
f 54 59 58
f 54 58 57
f 54 70 71
f 55 56 74
f 55 74 75
f 55 75 73
f 59 72 60
f 60 72 76
f 60 76 64
f 62 77 63
f 62 68 77
f 64 76 78
f 64 78 79
f 64 79 80
f 64 80 65
f 69 81 82
f 69 82 70
f 70 82 71
f 71 76 72
f 71 82 83
f 71 83 84
f 71 84 76
f 73 75 85
f 75 86 87
f 75 87 85
f 75 88 99
f 75 99 113
f 75 113 128
f 75 128 127
f 75 127 126
f 75 126 141
f 75 141 137
f 75 137 121
f 75 121 109
f 75 109 96
f 75 96 86
f 76 84 83
f 76 83 89
f 76 89 78
f 78 80 79
f 78 89 90
f 78 90 80
f 80 90 91
f 81 92 93
f 81 93 94
f 81 94 95
f 81 95 82
f 82 95 83
f 83 95 94
f 83 94 89
f 88 97 98
f 88 98 99
f 89 94 100
f 89 100 90
f 90 100 101
f 90 101 91
f 91 101 102
f 92 103 93
f 93 103 104
f 93 104 105
f 93 105 106
f 93 106 107
f 93 107 101
f 93 101 100
f 93 100 108
f 93 108 94
f 94 108 100
f 96 109 110
f 97 111 112
f 97 112 98
f 98 112 99
f 99 112 113
f 101 107 106
f 101 106 105
f 101 105 114
f 101 114 102
f 102 114 115
f 103 116 104
f 104 116 117
f 104 117 105
f 105 117 118
f 105 118 119
f 105 119 136
f 105 136 120
f 105 120 114
f 109 121 110
f 110 122 123
f 110 121 122
f 111 124 112
f 112 125 126
f 112 126 127
f 112 127 128
f 112 128 113
f 112 124 125
f 114 129 130
f 114 130 131
f 114 131 115
f 114 120 136
f 114 136 129
f 116 118 117
f 118 132 119
f 118 133 134
f 118 134 132
f 119 132 135
f 119 135 136
f 121 137 122
f 122 138 139
f 122 139 135
f 122 135 132
f 122 132 134
f 122 134 123
f 122 137 138
f 123 134 133
f 124 140 141
f 124 141 125
f 125 141 126
f 129 142 143
f 129 143 130
f 129 136 142
f 130 143 142
f 130 142 144
f 135 139 142
f 135 142 136
f 137 141 145
f 137 145 144
f 137 144 146
f 137 146 138
f 138 146 142
f 138 142 139
f 140 145 141
f 142 146 144
