v 9.21327e-05 0.371108 0.26958
v 0.151564 0.33623 0.26958
v 9.21327e-05 0.380712 0.321121
v 9.21327e-05 0.454939 0.26958
v 0.151564 0.426243 0.26958
v 0.151579 0.350228 0.339076
v 0.151564 0.337203 0.274419
v 9.21327e-05 0.396071 0.403089
v 9.21327e-05 0.38182 0.327049
v 9.21327e-05 0.484587 0.274262
v 0.00584555 0.484587 0.274223
v 0.00584555 0.454939 0.26958
v 0.131961 0.434603 0.26958
v 0.145959 0.461238 0.274328
v 0.151564 0.461238 0.274931
v 0.151564 0.363195 0.403548
v 0.151564 0.361951 0.397397
v 0.151564 0.361893 0.397109
v 0.151564 0.467148 0.27699
v 0.151564 0.471522 0.278787
v 0.151564 0.476888 0.281029
v 0.151564 0.479551 0.282144
v 0.151564 0.4841 0.284321
v 0.151564 0.489641 0.287377
v 0.151564 0.493218 0.289554
v 0.151564 0.512057 0.356138
v 0.151564 0.512076 0.365017
v 0.151564 0.512076 0.36781
v 0.151564 0.500723 0.403548
v 9.21327e-05 0.396207 0.403548
v 9.21327e-05 0.489913 0.276085
v 0.00584555 0.495396 0.278013
v 0.0175155 0.484587 0.274354
v 0.0292003 0.451984 0.26958
v 0.122664 0.437889 0.26958
v 0.122604 0.472902 0.27501
v 0.134274 0.472902 0.276373
v 0.145277 0.473311 0.278446
v 0.148717 0.477471 0.28078
v 0.145277 0.483614 0.28276
v 0.145959 0.494327 0.288833
v 0.131027 0.502745 0.291128
v 0.142593 0.514779 0.348938
v 0.143824 0.515284 0.356138
v 0.149666 0.512874 0.36781
v 0.142593 0.514779 0.375745
v 0.148421 0.502045 0.403548
v 9.21327e-05 0.524208 0.403548
v 9.21327e-05 0.495396 0.278013
v 0.0175155 0.494638 0.278354
v 0.052555 0.484587 0.275914
v 0.0408702 0.484587 0.275272
v 0.0292003 0.484587 0.274721
v 9.21327e-05 0.504533 0.282118
v 0.00584555 0.507935 0.283652
v 0.11092 0.472902 0.274485
v 0.11092 0.441096 0.26958
v 0.0311724 0.451731 0.26958
v 0.112595 0.440649 0.26958
v 0.0642249 0.484587 0.276596
v 0.11092 0.482642 0.278498
v 0.122604 0.481865 0.278852
v 0.134274 0.480368 0.279534
v 0.140932 0.479085 0.280111
v 0.134274 0.4862 0.282065
v 0.13466 0.497126 0.288229
v 0.122604 0.496251 0.285737
v 0.122604 0.503425 0.290367
v 0.0493965 0.514118 0.291469
v 0.0726919 0.525802 0.349738
v 0.134274 0.51579 0.347731
v 0.134274 0.517792 0.356138
v 0.143824 0.515284 0.36781
v 0.134274 0.517792 0.36781
v 0.134274 0.51579 0.377436
v 0.135238 0.506613 0.403548
v 0.141036 0.504708 0.403548
v 0.145959 0.503075 0.403548
v 0.00584555 0.524208 0.403548
v 9.21327e-05 0.534842 0.36781
v 0.0175155 0.50047 0.280977
v 0.052555 0.498176 0.282013
v 9.21327e-05 0.507935 0.283652
v 9.21327e-05 0.512251 0.286328
v 0.00584555 0.516703 0.289108
v 0.0175155 0.507935 0.2844
v 0.0992496 0.496251 0.283941
v 0.0875648 0.496251 0.283233
v 0.122604 0.487717 0.281462
v 0.11092 0.496251 0.284754
v 0.11092 0.504144 0.289724
v 0.0292003 0.515401 0.290078
v 0.0408702 0.514662 0.290826
v 0.00584555 0.534784 0.356138
v 0.0175155 0.533345 0.356138
v 0.0292003 0.531868 0.356138
v 0.0740117 0.525977 0.356138
v 0.122604 0.519561 0.356138
v 0.122604 0.519561 0.36781
v 0.0726919 0.525802 0.374564
v 0.122604 0.508869 0.403548
v 0.0642249 0.526346 0.375797
v 0.00584555 0.534842 0.36781
v 0.0175896 0.522789 0.403548
v 9.21327e-05 0.534784 0.356138
v 9.21327e-05 0.516703 0.289108
v 0.0175155 0.516081 0.289515
v 0.0292003 0.507935 0.285318
v 0.0175155 0.533403 0.36781
v 0.0292003 0.531868 0.36781
v 0.0740117 0.525977 0.36781
v 0.052555 0.518317 0.403548
v 0.109911 0.510735 0.403548
f 1 2 3
f 1 3 9
f 1 9 8
f 1 8 30
f 1 30 48
f 1 48 80
f 1 80 105
f 1 105 106
f 1 106 84
f 1 84 83
f 1 83 54
f 1 54 49
f 1 49 31
f 1 31 10
f 1 10 4
f 1 4 12
f 1 12 34
f 1 34 58
f 1 58 57
f 1 57 59
f 1 59 35
f 1 35 13
f 1 13 5
f 1 5 2
f 2 5 6
f 2 6 7
f 2 7 8
f 2 8 9
f 2 9 3
f 4 10 11
f 4 11 12
f 5 13 14
f 5 14 15
f 5 15 6
f 6 16 17
f 6 17 18
f 6 18 7
f 6 15 19
f 6 19 20
f 6 20 21
f 6 21 22
f 6 22 23
f 6 23 24
f 6 24 25
f 6 25 26
f 6 26 27
f 6 27 28
f 6 28 29
f 6 29 16
f 7 18 8
f 8 18 17
f 8 17 16
f 8 16 30
f 10 31 11
f 11 31 32
f 11 32 33
f 11 33 12
f 12 33 34
f 13 35 14
f 14 36 15
f 14 35 36
f 15 36 37
f 15 37 19
f 16 29 47
f 16 47 78
f 16 78 77
f 16 77 76
f 16 76 101
f 16 101 113
f 16 113 112
f 16 112 104
f 16 104 79
f 16 79 48
f 16 48 30
f 19 37 20
f 20 37 38
f 20 38 39
f 20 39 21
f 21 39 22
f 22 39 40
f 22 40 23
f 23 40 24
f 24 40 41
f 24 41 25
f 25 41 42
f 25 42 43
f 25 43 26
f 26 43 44
f 26 44 27
f 27 44 45
f 27 45 28
f 28 45 46
f 28 46 29
f 29 46 47
f 31 49 32
f 32 50 51
f 32 51 52
f 32 52 53
f 32 53 33
f 32 49 54
f 32 54 55
f 32 55 81
f 32 81 50
f 33 53 56
f 33 56 57
f 33 57 58
f 33 58 34
f 35 59 56
f 35 56 36
f 36 56 53
f 36 53 52
f 36 52 51
f 36 51 60
f 36 60 61
f 36 61 62
f 36 62 63
f 36 63 37
f 37 63 64
f 37 64 39
f 37 39 38
f 39 64 40
f 40 64 63
f 40 63 65
f 40 65 41
f 41 66 42
f 41 65 66
f 42 66 67
f 42 67 68
f 42 68 69
f 42 69 70
f 42 70 71
f 42 71 43
f 43 71 72
f 43 72 44
f 44 73 45
f 44 72 74
f 44 74 73
f 45 73 46
f 46 73 74
f 46 74 75
f 46 75 76
f 46 76 77
f 46 77 78
f 46 78 47
f 48 79 103
f 48 103 80
f 50 81 82
f 50 82 60
f 50 60 51
f 54 83 55
f 55 83 84
f 55 84 85
f 55 85 86
f 55 86 87
f 55 87 88
f 55 88 82
f 55 82 81
f 56 59 57
f 60 89 61
f 60 82 89
f 61 89 62
f 62 89 65
f 62 65 63
f 65 89 67
f 65 67 66
f 67 90 91
f 67 91 68
f 67 89 90
f 68 91 92
f 68 92 93
f 68 93 69
f 69 93 94
f 69 94 70
f 70 94 95
f 70 95 96
f 70 96 97
f 70 97 98
f 70 98 72
f 70 72 71
f 72 98 99
f 72 99 74
f 74 99 100
f 74 100 75
f 75 101 76
f 75 100 101
f 79 100 102
f 79 102 103
f 79 104 100
f 80 103 94
f 80 94 105
f 82 88 89
f 84 106 85
f 85 106 105
f 85 105 94
f 85 94 107
f 85 107 86
f 86 107 108
f 86 108 90
f 86 90 87
f 87 90 89
f 87 89 88
f 90 108 91
f 91 108 107
f 91 107 92
f 92 107 94
f 92 94 93
f 94 103 109
f 94 109 95
f 95 109 96
f 96 109 110
f 96 110 111
f 96 111 97
f 97 111 99
f 97 99 98
f 99 111 100
f 100 111 110
f 100 110 109
f 100 109 103
f 100 103 102
f 100 104 112
f 100 112 113
f 100 113 101
