v -0.484629 -9.26373e-05 -0.227718
v -0.483841 -9.26373e-05 -0.222282
v -0.484629 0.00587182 -0.227718
v -0.436567 -9.26373e-05 -0.390616
v -0.483027 -9.26373e-05 -0.21669
v -0.483027 0.00587182 -0.21669
v -0.436513 0.00638307 -0.390616
v -0.436567 0.00587182 -0.390616
v -0.482266 0.0175451 -0.216806
v -0.481479 0.0292184 -0.217001
v -0.480719 0.0408917 -0.217447
v -0.479931 0.052565 -0.218476
v -0.479171 0.0642384 -0.220398
v -0.478791 0.0703732 -0.221699
v -0.478791 0.0703732 -0.221952
v -0.247308 -9.26373e-05 -0.390616
v -0.472899 -9.26373e-05 -0.211331
v -0.472899 0.00587182 -0.211331
v -0.472899 0.0175451 -0.211467
v -0.472899 0.0292184 -0.211661
v -0.472899 0.0408917 -0.212088
v -0.433553 0.0297723 -0.390616
v -0.472899 0.052565 -0.213117
v -0.469341 0.122647 -0.21735
v -0.468228 0.131296 -0.219097
v -0.468228 0.131296 -0.224281
v -0.470835 0.110932 -0.227718
v -0.424212 0.0998121 -0.390616
v -0.424294 0.0992583 -0.390616
v -0.253716 -9.26373e-05 -0.356133
v -0.207257 0.133767 -0.390616
v -0.207257 0.188683 -0.210807
v -0.207257 0.190642 -0.204419
v -0.207257 0.194264 -0.192673
v -0.336833 -9.26373e-05 -0.192284
v -0.336833 0.00587182 -0.192284
v -0.335774 0.0167783 -0.192284
v -0.461223 0.110932 -0.211525
v -0.461223 0.122647 -0.211991
v -0.459349 0.145994 -0.216826
v -0.455602 0.164058 -0.221078
v -0.446261 0.181014 -0.217544
v -0.444605 0.189023 -0.219486
v -0.455602 0.164058 -0.22234
v -0.418619 0.122221 -0.390616
v -0.418836 0.121625 -0.390616
v -0.422067 0.111954 -0.390616
v -0.468961 0.121795 -0.22799
v -0.422122 0.111656 -0.390616
v -0.255943 -9.26373e-05 -0.344212
v -0.207257 0.383252 -0.390616
v -0.207257 0.206022 -0.192284
v -0.207311 0.194349 -0.192284
v -0.284535 -9.26373e-05 -0.192284
v -0.284454 -9.26373e-05 -0.192673
v -0.28144 -9.26373e-05 -0.208341
v -0.277801 -9.26373e-05 -0.227718
v -0.330913 0.052565 -0.192284
v -0.325048 0.0885222 -0.192284
v -0.328904 0.0672632 -0.192284
v -0.328062 0.0733129 -0.192284
v -0.327682 0.0759117 -0.192284
v -0.32684 0.0806406 -0.192284
v -0.324994 0.0886926 -0.192284
v -0.449547 0.145994 -0.211486
v -0.426195 0.204361 -0.211584
v -0.437871 0.181014 -0.212205
v -0.449547 0.157667 -0.213506
v -0.420791 0.245814 -0.220515
v -0.43559 0.204361 -0.216942
v -0.422339 0.239338 -0.218379
v -0.43358 0.213989 -0.218767
v -0.39896 0.169895 -0.390616
v -0.410011 0.143182 -0.390616
v -0.413677 0.134321 -0.390616
v -0.420791 0.245814 -0.222728
v -0.444605 0.189023 -0.223718
v -0.386225 0.200569 -0.390616
v -0.389375 0.193028 -0.390616
v -0.216027 0.379119 -0.390616
v -0.245842 0.420785 -0.222728
v -0.213964 0.433566 -0.225077
v -0.207257 0.435143 -0.227621
v -0.207257 0.262983 -0.192284
v -0.321301 0.0992583 -0.192284
v -0.317119 0.109866 -0.192284
v -0.414519 0.227665 -0.21137
v -0.414519 0.239338 -0.21304
v -0.296782 0.158434 -0.192284
v -0.414166 0.250244 -0.217272
v -0.410066 0.25868 -0.219078
v -0.374766 0.305032 -0.219389
v -0.385546 0.292166 -0.221214
v -0.370693 0.229113 -0.390616
v -0.374956 0.223532 -0.390616
v -0.379111 0.216034 -0.390616
v -0.383428 0.206917 -0.390616
v -0.383781 0.20615 -0.390616
v -0.43358 0.213989 -0.225077
v -0.385546 0.292166 -0.222243
v -0.223576 0.374944 -0.390616
v -0.245842 0.420785 -0.220515
v -0.229767 0.370215 -0.390616
v -0.29222 0.38551 -0.222243
v -0.213964 0.433566 -0.218767
v -0.207257 0.435143 -0.226048
v -0.207718 0.262685 -0.192284
v -0.207257 0.423256 -0.211486
v -0.227703 0.414523 -0.21137
v -0.296211 0.15967 -0.192284
v -0.293306 0.165932 -0.192284
v -0.290319 0.171045 -0.192284
v -0.402843 0.251011 -0.211778
v -0.367815 0.297747 -0.21203
v -0.40306 0.262642 -0.216107
v -0.367842 0.309122 -0.216321
v -0.363986 0.317898 -0.21869
v -0.353233 0.330765 -0.218496
v -0.344952 0.262727 -0.390616
v -0.348536 0.336346 -0.227718
v -0.363986 0.317898 -0.225446
v -0.314296 0.302433 -0.390616
v -0.318884 0.296597 -0.390616
v -0.334823 0.275934 -0.390616
v -0.239379 0.422362 -0.218379
v -0.29222 0.38551 -0.221214
v -0.305063 0.374731 -0.219389
v -0.258712 0.410049 -0.219078
v -0.250268 0.414182 -0.217272
v -0.269764 0.339541 -0.390616
v -0.317934 0.363995 -0.225446
v -0.275955 0.334769 -0.390616
v -0.296619 0.318836 -0.390616
v -0.302457 0.314277 -0.390616
v -0.207257 0.434972 -0.217505
v -0.227296 0.248072 -0.192284
v -0.251055 0.402849 -0.211778
v -0.262731 0.391176 -0.211409
v -0.207257 0.426452 -0.212535
v -0.239379 0.414523 -0.21304
v -0.283531 0.180801 -0.192284
v -0.391167 0.262727 -0.211409
v -0.356139 0.30942 -0.211448
v -0.345603 0.333875 -0.215622
v -0.356709 0.32152 -0.215797
v -0.342481 0.342438 -0.218379
v -0.342725 0.342694 -0.227718
v -0.308458 0.308398 -0.390616
v -0.317934 0.363995 -0.21869
v -0.309163 0.367829 -0.216321
v -0.26265 0.40302 -0.216107
v -0.336371 0.34853 -0.227718
v -0.207257 0.433694 -0.21667
v -0.238619 0.238571 -0.192284
v -0.309462 0.356114 -0.211448
v -0.297786 0.367787 -0.21203
v -0.248095 0.227239 -0.192284
v -0.34449 0.321094 -0.211312
v -0.332814 0.332767 -0.211234
v -0.333927 0.345591 -0.215622
v -0.330778 0.353217 -0.218496
v -0.321545 0.35671 -0.215797
v -0.321138 0.34444 -0.211312
f 1 2 3
f 1 3 8
f 1 8 4
f 1 4 16
f 1 16 30
f 1 30 50
f 1 50 57
f 1 57 56
f 1 56 55
f 1 55 54
f 1 54 35
f 1 35 17
f 1 17 5
f 1 5 2
f 2 5 6
f 2 6 3
f 3 7 8
f 3 6 9
f 3 9 10
f 3 10 11
f 3 11 12
f 3 12 13
f 3 13 14
f 3 14 15
f 3 15 7
f 4 8 7
f 4 7 22
f 4 22 29
f 4 29 28
f 4 28 49
f 4 49 47
f 4 47 46
f 4 46 45
f 4 45 75
f 4 75 74
f 4 74 73
f 4 73 79
f 4 79 78
f 4 78 98
f 4 98 97
f 4 97 96
f 4 96 95
f 4 95 94
f 4 94 119
f 4 119 124
f 4 124 123
f 4 123 122
f 4 122 148
f 4 148 134
f 4 134 133
f 4 133 132
f 4 132 130
f 4 130 103
f 4 103 101
f 4 101 80
f 4 80 51
f 4 51 31
f 4 31 16
f 5 17 18
f 5 18 6
f 6 18 19
f 6 19 20
f 6 20 21
f 6 21 9
f 7 15 22
f 9 21 10
f 10 21 11
f 11 21 23
f 11 23 24
f 11 24 12
f 12 24 13
f 13 24 14
f 14 24 25
f 14 25 26
f 14 26 15
f 15 26 27
f 15 27 28
f 15 28 29
f 15 29 22
f 16 31 32
f 16 32 33
f 16 33 34
f 16 34 30
f 17 35 36
f 17 36 18
f 18 36 19
f 19 36 37
f 19 37 20
f 20 37 38
f 20 38 21
f 21 38 39
f 21 39 23
f 23 39 24
f 24 39 40
f 24 40 25
f 25 41 44
f 25 44 26
f 25 40 42
f 25 42 43
f 25 43 41
f 26 44 45
f 26 45 46
f 26 46 47
f 26 47 48
f 26 48 27
f 27 48 28
f 28 48 49
f 30 34 50
f 31 51 83
f 31 83 106
f 31 106 135
f 31 135 153
f 31 153 139
f 31 139 108
f 31 108 84
f 31 84 52
f 31 52 34
f 31 34 33
f 31 33 32
f 34 52 53
f 34 53 54
f 34 54 55
f 34 55 56
f 34 56 57
f 34 57 50
f 35 54 53
f 35 53 52
f 35 52 84
f 35 84 107
f 35 107 136
f 35 136 154
f 35 154 157
f 35 157 141
f 35 141 112
f 35 112 111
f 35 111 110
f 35 110 89
f 35 89 86
f 35 86 85
f 35 85 64
f 35 64 59
f 35 59 63
f 35 63 62
f 35 62 61
f 35 61 60
f 35 60 58
f 35 58 37
f 35 37 36
f 37 58 38
f 38 59 39
f 38 58 60
f 38 60 61
f 38 61 62
f 38 62 63
f 38 63 59
f 39 59 64
f 39 64 65
f 39 65 66
f 39 66 67
f 39 67 68
f 39 68 40
f 40 68 42
f 41 43 69
f 41 69 76
f 41 76 44
f 42 67 70
f 42 70 71
f 42 71 72
f 42 72 43
f 42 68 67
f 43 72 69
f 44 73 74
f 44 74 75
f 44 75 45
f 44 76 77
f 44 77 78
f 44 78 79
f 44 79 73
f 47 49 48
f 51 80 81
f 51 81 82
f 51 82 83
f 64 85 65
f 65 85 86
f 65 86 66
f 66 87 88
f 66 88 67
f 66 86 89
f 66 89 87
f 67 88 70
f 69 72 71
f 69 71 90
f 69 90 91
f 69 91 92
f 69 92 93
f 69 93 100
f 69 100 76
f 70 88 71
f 71 88 90
f 76 94 95
f 76 95 96
f 76 96 97
f 76 97 98
f 76 98 78
f 76 78 99
f 76 99 77
f 76 100 94
f 77 99 78
f 80 101 81
f 81 102 105
f 81 105 82
f 81 101 103
f 81 103 104
f 81 104 126
f 81 126 102
f 82 105 106
f 82 106 83
f 84 108 109
f 84 109 107
f 87 89 110
f 87 110 111
f 87 111 112
f 87 112 113
f 87 113 88
f 88 113 114
f 88 114 115
f 88 115 90
f 90 115 116
f 90 116 91
f 91 116 92
f 92 116 117
f 92 117 118
f 92 118 93
f 93 118 100
f 94 100 119
f 100 118 120
f 100 120 121
f 100 121 122
f 100 122 123
f 100 123 124
f 100 124 119
f 102 125 105
f 102 126 127
f 102 127 128
f 102 128 129
f 102 129 125
f 103 130 104
f 104 131 149
f 104 149 126
f 104 130 132
f 104 132 133
f 104 133 134
f 104 134 131
f 105 135 106
f 105 125 135
f 107 109 137
f 107 137 138
f 107 138 136
f 108 139 109
f 109 139 140
f 109 140 137
f 112 141 113
f 113 141 142
f 113 142 143
f 113 143 114
f 114 143 144
f 114 144 145
f 114 145 116
f 114 116 115
f 116 145 118
f 116 118 117
f 118 145 144
f 118 144 146
f 118 146 147
f 118 147 120
f 120 147 122
f 120 122 121
f 122 147 148
f 125 129 140
f 125 140 135
f 126 149 127
f 127 149 128
f 128 149 150
f 128 150 129
f 129 150 151
f 129 151 140
f 131 134 152
f 131 152 149
f 134 148 147
f 134 147 152
f 135 140 153
f 136 138 155
f 136 155 154
f 137 140 156
f 137 156 155
f 137 155 138
f 139 153 140
f 140 151 156
f 141 157 143
f 141 143 142
f 143 158 144
f 143 157 154
f 143 154 158
f 144 158 159
f 144 159 160
f 144 160 146
f 146 160 161
f 146 161 147
f 147 161 152
f 149 152 161
f 149 161 150
f 150 161 162
f 150 162 156
f 150 156 151
f 154 155 163
f 154 163 159
f 154 159 158
f 155 156 160
f 155 160 163
f 156 162 160
f 159 163 160
f 160 162 161
