v -0.116525 0.320738 -0.208146
v -0.116525 0.44955 -0.211165
v -0.122609 0.44955 -0.211165
v -0.134288 0.44955 -0.211219
v -0.145967 0.309147 -0.208146
v -0.116525 0.254653 -0.208146
v -0.116525 0.455641 -0.211361
v -0.116525 0.461206 -0.211754
v -0.145967 0.44955 -0.211487
v -0.169307 0.437861 -0.211326
v -0.192665 0.426204 -0.211236
v -0.157646 0.437861 -0.211165
v -0.169307 0.298578 -0.208146
v -0.207248 0.189489 -0.208146
v -0.207248 0.188666 -0.210808
v -0.207248 0.133743 -0.390635
v -0.116525 0.254126 -0.210718
v -0.116525 0.465948 -0.214541
v -0.122609 0.461206 -0.211987
v -0.204344 0.426204 -0.211594
v -0.207248 0.423274 -0.211487
v -0.207248 0.414515 -0.211165
v -0.183508 0.289095 -0.208146
v -0.207248 0.269602 -0.208146
v -0.116525 0.217445 -0.390635
v -0.207248 0.383234 -0.390635
v -0.116525 0.469833 -0.217096
v -0.122609 0.469339 -0.217346
v -0.145967 0.459362 -0.216828
v -0.157646 0.44955 -0.213505
v -0.180986 0.437861 -0.212201
v -0.204344 0.435589 -0.216953
v -0.207248 0.433712 -0.216667
v -0.207248 0.426435 -0.21254
v -0.204344 0.272335 -0.208146
v -0.116525 0.420508 -0.390635
v -0.207248 0.435128 -0.227617
v -0.206884 0.383432 -0.390635
v -0.116525 0.470096 -0.22274
v -0.131277 0.46822 -0.224276
v -0.131277 0.46822 -0.219096
v -0.180986 0.446257 -0.217542
v -0.207248 0.434963 -0.217506
v -0.122227 0.418631 -0.390635
v -0.121792 0.468944 -0.227992
v -0.116525 0.469866 -0.227849
v -0.207248 0.435128 -0.226045
v -0.188988 0.444578 -0.223705
v -0.206395 0.383662 -0.390635
v -0.164022 0.455608 -0.222329
v -0.164022 0.455608 -0.221079
v -0.188988 0.444578 -0.219489
v -0.134661 0.413527 -0.390635
v -0.20056 0.38623 -0.390635
v -0.143187 0.410004 -0.390635
v -0.169849 0.398973 -0.390635
v -0.192665 0.389523 -0.390635
f 1 2 3
f 1 3 4
f 1 4 5
f 1 5 13
f 1 13 23
f 1 23 35
f 1 35 24
f 1 24 14
f 1 14 6
f 1 6 17
f 1 17 25
f 1 25 36
f 1 36 46
f 1 46 39
f 1 39 27
f 1 27 18
f 1 18 8
f 1 8 7
f 1 7 2
f 2 7 3
f 3 7 4
f 4 7 8
f 4 8 9
f 4 9 10
f 4 10 11
f 4 11 12
f 4 12 5
f 5 12 11
f 5 11 13
f 6 14 15
f 6 15 16
f 6 16 17
f 8 18 19
f 8 19 9
f 9 19 20
f 9 20 10
f 10 20 11
f 11 20 21
f 11 21 22
f 11 22 13
f 13 22 23
f 14 24 22
f 14 22 21
f 14 21 34
f 14 34 33
f 14 33 43
f 14 43 47
f 14 47 37
f 14 37 26
f 14 26 16
f 14 16 15
f 16 25 17
f 16 26 38
f 16 38 49
f 16 49 54
f 16 54 57
f 16 57 56
f 16 56 55
f 16 55 53
f 16 53 44
f 16 44 36
f 16 36 25
f 18 27 19
f 19 27 28
f 19 28 29
f 19 29 30
f 19 30 31
f 19 31 20
f 20 31 32
f 20 32 33
f 20 33 34
f 20 34 21
f 22 24 35
f 22 35 23
f 26 37 38
f 27 39 28
f 28 39 40
f 28 40 41
f 28 41 29
f 29 41 42
f 29 42 30
f 30 42 31
f 31 42 32
f 32 43 33
f 32 42 43
f 36 44 40
f 36 40 45
f 36 45 46
f 37 47 52
f 37 52 48
f 37 48 49
f 37 49 38
f 39 46 40
f 40 50 51
f 40 51 41
f 40 46 45
f 40 44 50
f 41 51 52
f 41 52 42
f 42 52 43
f 43 52 47
f 44 53 50
f 48 52 51
f 48 51 50
f 48 50 54
f 48 54 49
f 50 53 55
f 50 55 56
f 50 56 57
f 50 57 54
