v 0.224663 -0.403048 -0.110148
v 0.224663 -0.401628 -0.118827
v 0.227704 -0.400799 -0.118623
v 0.23585 -0.39851 -0.117739
v 0.23585 -0.39851 -0.113328
v 0.228609 -0.401075 -0.110029
v 0.233112 -0.396734 -0.105534
v 0.224663 -0.378898 -0.0673775
v 0.224663 -0.251436 -0.189485
v 0.269574 -0.374399 -0.117344
v 0.269574 -0.374399 -0.115049
v 0.254557 -0.383515 -0.110937
v 0.266719 -0.372189 -0.107267
v 0.22717 -0.377556 -0.0673775
v 0.225592 -0.378464 -0.0673775
v 0.224663 -0.209725 -0.0673775
v 0.224663 -0.172592 -0.189485
v 0.229282 -0.247885 -0.189485
v 0.315993 -0.33912 -0.117189
v 0.262797 -0.377319 -0.111069
v 0.315993 -0.33912 -0.115515
v 0.313068 -0.33691 -0.107734
v 0.27208 -0.343303 -0.0673775
v 0.224663 -0.206845 -0.0764385
v 0.307916 9.26199e-05 -0.0673775
v 0.2997 9.26199e-05 -0.110937
v 0.290973 9.26199e-05 -0.15739
v 0.289859 9.26199e-05 -0.163343
v 0.287677 9.26199e-05 -0.175057
v 0.285008 9.26199e-05 -0.189485
v 0.233112 -0.244846 -0.189485
v 0.328201 -0.328189 -0.117607
v 0.328201 -0.328189 -0.114129
v 0.320936 -0.33253 -0.110925
v 0.325903 -0.325861 -0.106335
v 0.273659 -0.34208 -0.0673775
v 0.440349 9.26199e-05 -0.0673775
v 0.338251 9.26199e-05 -0.189485
v 0.239169 -0.239164 -0.189485
v 0.339156 -0.315956 -0.117189
v 0.244856 -0.233087 -0.189485
v 0.339156 -0.315956 -0.115515
v 0.332564 -0.320928 -0.110925
v 0.336928 -0.313036 -0.107734
v 0.342103 -0.273614 -0.0673775
v 0.316968 -0.305144 -0.0673775
v 0.311235 -0.311181 -0.0673775
v 0.3052 -0.316943 -0.0673775
v 0.461772 9.26199e-05 -0.110937
v 0.440349 -0.00602393 -0.0673775
v 0.459636 9.26199e-05 -0.118934
v 0.338251 -0.0058661 -0.189485
v 0.374388 -0.269549 -0.117344
v 0.247896 -0.229259 -0.189485
v 0.254139 -0.221169 -0.189485
v 0.259942 -0.213632 -0.189485
v 0.374388 -0.269549 -0.115049
v 0.372206 -0.266669 -0.107267
v 0.377567 -0.227128 -0.0673775
v 0.461772 -0.0058661 -0.110937
v 0.439165 -0.0169154 -0.0673775
v 0.459636 -0.0058661 -0.118934
v 0.337137 -0.014666 -0.189485
v 0.456828 -0.0525493 -0.118014
v 0.456271 -0.06423 -0.117619
v 0.283267 -0.183168 -0.189485
v 0.284938 -0.180958 -0.189485
v 0.398502 -0.235809 -0.117739
v 0.398502 -0.235809 -0.113328
v 0.383532 -0.254514 -0.110937
v 0.377335 -0.262762 -0.111069
v 0.396739 -0.233087 -0.105534
v 0.378473 -0.225549 -0.0673775
v 0.455783 -0.0735429 -0.117177
v 0.455528 -0.0362121 -0.104996
v 0.455018 -0.0439861 -0.105833
v 0.455783 -0.0735429 -0.115563
v 0.437889 -0.0276095 -0.0673775
v 0.333794 -0.0409081 -0.189485
v 0.330336 -0.0671501 -0.189485
v 0.331938 -0.0551932 -0.189485
v 0.332286 -0.0525493 -0.189485
v 0.290926 -0.17275 -0.189485
v 0.409805 -0.213553 -0.117655
v 0.294199 -0.167107 -0.189485
v 0.409805 -0.213553 -0.113866
v 0.401102 -0.228588 -0.110029
v 0.382929 -0.216947 -0.0673775
v 0.406881 -0.216868 -0.110363
v 0.389381 -0.203924 -0.0673775
v 0.444573 -0.130841 -0.1175
v 0.445641 -0.122633 -0.118193
v 0.329083 -0.0759106 -0.189485
v 0.454461 -0.0525493 -0.106885
v 0.453695 -0.06423 -0.108343
v 0.453346 -0.0768577 -0.111379
v 0.444132 -0.118135 -0.104781
v 0.447683 -0.110953 -0.110937
v 0.445525 -0.122278 -0.110746
v 0.444573 -0.130841 -0.114511
v 0.436195 -0.0402372 -0.0673775
v 0.421016 -0.188574 -0.117356
v 0.296613 -0.162016 -0.189485
v 0.298377 -0.158188 -0.189485
v 0.421016 -0.188574 -0.115001
v 0.419159 -0.183957 -0.107219
v 0.408134 -0.208857 -0.106084
v 0.423685 -0.121647 -0.0673775
v 0.432133 -0.163752 -0.116866
v 0.318383 -0.110084 -0.189485
v 0.322793 -0.099272 -0.189485
v 0.325903 -0.0908272 -0.189485
v 0.32718 -0.0859734 -0.189485
v 0.327597 -0.0840792 -0.189485
v 0.328294 -0.0802514 -0.189485
v 0.428164 -0.0991536 -0.0673775
v 0.426656 -0.109887 -0.0673775
v 0.442786 -0.125909 -0.106729
v 0.432133 -0.163752 -0.116484
v 0.306802 -0.137984 -0.189485
v 0.317223 -0.112886 -0.189485
f 1 2 3
f 1 3 4
f 1 4 5
f 1 5 6
f 1 6 7
f 1 7 8
f 1 8 16
f 1 16 24
f 1 24 17
f 1 17 9
f 1 9 2
f 2 9 3
f 3 9 4
f 4 10 11
f 4 11 5
f 4 9 10
f 5 7 6
f 5 11 12
f 5 12 7
f 7 12 13
f 7 13 14
f 7 14 15
f 7 15 8
f 8 15 14
f 8 14 23
f 8 23 36
f 8 36 48
f 8 48 47
f 8 47 46
f 8 46 45
f 8 45 59
f 8 59 73
f 8 73 88
f 8 88 90
f 8 90 108
f 8 108 117
f 8 117 116
f 8 116 101
f 8 101 78
f 8 78 61
f 8 61 50
f 8 50 37
f 8 37 25
f 8 25 16
f 9 17 30
f 9 30 38
f 9 38 52
f 9 52 63
f 9 63 79
f 9 79 82
f 9 82 81
f 9 81 80
f 9 80 93
f 9 93 115
f 9 115 114
f 9 114 113
f 9 113 112
f 9 112 111
f 9 111 110
f 9 110 121
f 9 121 120
f 9 120 104
f 9 104 103
f 9 103 85
f 9 85 83
f 9 83 67
f 9 67 66
f 9 66 56
f 9 56 55
f 9 55 54
f 9 54 41
f 9 41 39
f 9 39 31
f 9 31 18
f 9 18 19
f 9 19 10
f 10 19 21
f 10 21 11
f 11 13 20
f 11 20 12
f 11 21 13
f 12 20 13
f 13 21 22
f 13 22 23
f 13 23 14
f 16 25 26
f 16 26 27
f 16 27 28
f 16 28 29
f 16 29 30
f 16 30 24
f 17 24 30
f 18 31 19
f 19 32 33
f 19 33 21
f 19 31 32
f 21 33 34
f 21 34 22
f 22 34 35
f 22 35 36
f 22 36 23
f 25 37 49
f 25 49 51
f 25 51 38
f 25 38 30
f 25 30 29
f 25 29 28
f 25 28 27
f 25 27 26
f 31 39 32
f 32 40 42
f 32 42 33
f 32 39 41
f 32 41 40
f 33 42 43
f 33 43 35
f 33 35 34
f 35 43 44
f 35 44 45
f 35 45 46
f 35 46 47
f 35 47 48
f 35 48 36
f 37 50 60
f 37 60 49
f 38 51 62
f 38 62 52
f 40 53 57
f 40 57 42
f 40 41 54
f 40 54 55
f 40 55 56
f 40 56 53
f 42 44 43
f 42 57 58
f 42 58 44
f 44 58 45
f 45 58 59
f 49 60 62
f 49 62 51
f 50 61 60
f 52 62 64
f 52 64 65
f 52 65 63
f 53 56 66
f 53 66 67
f 53 67 68
f 53 68 69
f 53 69 57
f 57 69 70
f 57 70 71
f 57 71 58
f 58 71 70
f 58 70 72
f 58 72 59
f 59 72 73
f 60 74 65
f 60 65 62
f 60 61 75
f 60 75 76
f 60 76 77
f 60 77 74
f 61 78 76
f 61 76 75
f 62 65 64
f 63 65 79
f 65 74 80
f 65 80 81
f 65 81 82
f 65 82 79
f 67 83 68
f 68 84 86
f 68 86 69
f 68 83 85
f 68 85 84
f 69 86 87
f 69 87 72
f 69 72 70
f 72 88 73
f 72 87 89
f 72 89 90
f 72 90 88
f 74 91 92
f 74 92 93
f 74 93 80
f 74 77 100
f 74 100 91
f 76 78 94
f 76 94 77
f 77 94 95
f 77 95 96
f 77 96 97
f 77 97 98
f 77 98 99
f 77 99 100
f 78 101 95
f 78 95 94
f 84 102 105
f 84 105 86
f 84 85 103
f 84 103 104
f 84 104 102
f 86 89 87
f 86 105 89
f 89 105 106
f 89 106 107
f 89 107 90
f 90 107 106
f 90 106 108
f 91 100 119
f 91 119 109
f 91 109 102
f 91 102 110
f 91 110 111
f 91 111 112
f 91 112 92
f 92 112 113
f 92 113 114
f 92 114 115
f 92 115 93
f 95 101 116
f 95 116 117
f 95 117 97
f 95 97 96
f 97 117 108
f 97 108 118
f 97 118 99
f 97 99 98
f 99 118 100
f 100 118 119
f 102 104 120
f 102 120 121
f 102 121 110
f 102 109 119
f 102 119 105
f 105 119 106
f 106 119 118
f 106 118 108
