v -0.262729 -0.356169 0.590268
v -0.26793 -0.344161 0.588716
v -0.26793 -0.356169 0.590268
v -0.157646 -0.414535 0.590268
v -0.15143 -0.414535 0.590067
v -0.26793 -0.335574 0.586032
v -0.15143 -0.403937 0.586854
v -0.26793 -0.414535 0.590268
v -0.15143 -0.426203 0.590268
v -0.265774 -0.336513 0.585722
v -0.26793 -0.331267 0.577634
v -0.15143 -0.398508 0.577999
v -0.161489 -0.396211 0.5849
v -0.26793 -0.426203 0.589629
v -0.262729 -0.426203 0.590231
v -0.239372 -0.437871 0.590268
v -0.15143 -0.472901 0.590268
v -0.26793 -0.32602 0.555306
v -0.15143 -0.397124 0.571847
v -0.26793 -0.290598 0.40414
v -0.26793 -0.293522 0.416628
v -0.26793 -0.303101 0.457523
v -0.26793 -0.319442 0.527245
v -0.26793 -0.437192 0.586726
v -0.263528 -0.438759 0.58742
v -0.251051 -0.437871 0.589957
v -0.216015 -0.449539 0.590268
v -0.157646 -0.472901 0.590268
v -0.15143 -0.484961 0.588332
v -0.15143 -0.396863 0.570587
v -0.26793 -0.29052 0.403757
v -0.26793 -0.443248 0.583385
v -0.260163 -0.445911 0.585576
v -0.251051 -0.448208 0.586744
v -0.227694 -0.449539 0.589665
v -0.169324 -0.472901 0.589811
v -0.19267 -0.461233 0.590085
v -0.169324 -0.482664 0.586598
v -0.15143 -0.492217 0.585357
v -0.204348 -0.461233 0.589099
v -0.181003 -0.472901 0.588369
v -0.15143 -0.393653 0.554649
v -0.15143 -0.381906 0.496282
v -0.15143 -0.377208 0.472931
v -0.15143 -0.366401 0.41922
v -0.15143 -0.365461 0.414546
v -0.151442 -0.363295 0.403757
v -0.26793 -0.4504 0.403757
v -0.26793 -0.454734 0.572924
v -0.264303 -0.450609 0.578839
v -0.26793 -0.466141 0.56217
v -0.251051 -0.454055 0.582454
v -0.245052 -0.455308 0.583768
v -0.237274 -0.456926 0.585192
v -0.227694 -0.45891 0.58647
v -0.204348 -0.469586 0.585904
v -0.154601 -0.491565 0.5849
v -0.15143 -0.497986 0.57966
v -0.15143 -0.363373 0.404104
v -0.15143 -0.36708 0.403757
v -0.26403 -0.453115 0.403757
v -0.267474 -0.454707 0.409727
v -0.26793 -0.454107 0.409307
v -0.26793 -0.467446 0.560893
v -0.262729 -0.468568 0.562061
v -0.251051 -0.459615 0.576612
v -0.251051 -0.465462 0.570459
v -0.227694 -0.470291 0.575571
v -0.195133 -0.477339 0.582362
v -0.187344 -0.478957 0.584042
v -0.212309 -0.467942 0.584663
v -0.162379 -0.48992 0.583348
v -0.181003 -0.486109 0.579295
v -0.15143 -0.501797 0.575662
v -0.15143 -0.50091 0.403757
v -0.261897 -0.454316 0.403757
v -0.26793 -0.467655 0.430977
v -0.26793 -0.454551 0.41
v -0.26793 -0.478278 0.549537
v -0.26793 -0.479688 0.548058
v -0.204348 -0.515084 0.53851
v -0.161398 -0.512917 0.559578
v -0.160406 -0.535862 0.535789
v -0.152126 -0.548939 0.525584
v -0.15143 -0.509367 0.567666
v -0.15143 -0.549017 0.490056
v -0.152115 -0.548939 0.490221
v -0.168127 -0.494045 0.403757
v -0.254438 -0.458023 0.403757
v -0.259696 -0.456874 0.406002
v -0.262729 -0.468803 0.428969
v -0.26793 -0.468594 0.432639
v -0.251325 -0.459432 0.403757
v -0.260255 -0.491826 0.538601
v -0.26793 -0.501588 0.524927
v -0.259764 -0.503285 0.526716
v -0.205306 -0.52174 0.531061
v -0.169324 -0.539542 0.527994
v -0.159904 -0.547321 0.523886
v -0.156665 -0.55215 0.519851
v -0.15143 -0.554238 0.519322
v -0.15143 -0.549017 0.525694
v -0.15143 -0.548417 0.526332
v -0.15143 -0.525029 0.551107
v -0.15143 -0.549461 0.490878
v -0.156665 -0.550688 0.496702
v -0.169142 -0.493627 0.403757
v -0.227112 -0.469612 0.403757
v -0.266402 -0.489529 0.468678
v -0.26793 -0.489268 0.46939
v -0.26793 -0.506887 0.518957
v -0.258749 -0.514509 0.514794
v -0.251051 -0.510933 0.522426
v -0.242577 -0.512682 0.524306
v -0.209834 -0.525316 0.525292
v -0.184881 -0.536305 0.524598
v -0.169324 -0.545363 0.521768
v -0.176099 -0.549174 0.514301
v -0.19267 -0.534687 0.522882
v -0.169324 -0.550479 0.515926
v -0.15143 -0.555778 0.513827
v -0.15143 -0.55215 0.496501
v -0.15143 -0.55476 0.502507
v -0.15143 -0.557162 0.508149
v -0.157646 -0.555126 0.50793
v -0.165162 -0.549487 0.500864
v -0.190127 -0.538498 0.499659
v -0.247835 -0.514849 0.500152
v -0.26793 -0.504877 0.497231
v -0.26793 -0.50352 0.494803
v -0.26793 -0.497595 0.484214
v -0.26793 -0.509419 0.507802
v -0.258749 -0.514509 0.511417
v -0.233818 -0.525577 0.513936
v -0.176099 -0.549174 0.512567
v -0.17294 -0.547895 0.504771
v -0.197916 -0.53688 0.502836
v -0.22287 -0.525864 0.501357
v -0.255613 -0.513256 0.503639
v -0.26793 -0.507984 0.504041
v -0.262672 -0.511612 0.507692
v -0.233818 -0.525577 0.513388
f 1 2 3
f 1 3 8
f 1 8 16
f 1 16 27
f 1 27 28
f 1 28 17
f 1 17 9
f 1 9 4
f 1 4 5
f 1 5 2
f 2 6 11
f 2 11 18
f 2 18 23
f 2 23 22
f 2 22 21
f 2 21 20
f 2 20 31
f 2 31 48
f 2 48 63
f 2 63 78
f 2 78 77
f 2 77 92
f 2 92 110
f 2 110 131
f 2 131 130
f 2 130 129
f 2 129 140
f 2 140 132
f 2 132 111
f 2 111 95
f 2 95 80
f 2 80 79
f 2 79 64
f 2 64 51
f 2 51 49
f 2 49 32
f 2 32 24
f 2 24 14
f 2 14 8
f 2 8 3
f 2 5 7
f 2 7 6
f 4 9 5
f 5 9 17
f 5 17 29
f 5 29 39
f 5 39 58
f 5 58 74
f 5 74 85
f 5 85 104
f 5 104 103
f 5 103 102
f 5 102 101
f 5 101 121
f 5 121 124
f 5 124 123
f 5 123 122
f 5 122 105
f 5 105 86
f 5 86 75
f 5 75 60
f 5 60 59
f 5 59 46
f 5 46 45
f 5 45 44
f 5 44 43
f 5 43 42
f 5 42 30
f 5 30 19
f 5 19 12
f 5 12 7
f 6 10 11
f 6 7 10
f 7 12 13
f 7 13 10
f 8 14 15
f 8 15 16
f 10 13 12
f 10 12 11
f 11 12 18
f 12 19 20
f 12 20 21
f 12 21 22
f 12 22 23
f 12 23 18
f 14 24 25
f 14 25 26
f 14 26 15
f 15 26 16
f 16 26 27
f 17 28 29
f 19 30 20
f 20 30 31
f 24 32 33
f 24 33 25
f 25 33 34
f 25 34 26
f 26 34 35
f 26 35 36
f 26 36 37
f 26 37 27
f 27 37 28
f 28 37 36
f 28 36 29
f 29 38 39
f 29 36 40
f 29 40 41
f 29 41 38
f 30 42 31
f 31 42 43
f 31 43 44
f 31 44 45
f 31 45 46
f 31 46 47
f 31 47 60
f 31 60 75
f 31 75 88
f 31 88 107
f 31 107 108
f 31 108 93
f 31 93 89
f 31 89 76
f 31 76 61
f 31 61 48
f 32 49 50
f 32 50 33
f 33 50 51
f 33 51 52
f 33 52 53
f 33 53 54
f 33 54 34
f 34 54 55
f 34 55 40
f 34 40 35
f 35 40 36
f 38 41 40
f 38 40 55
f 38 55 56
f 38 56 39
f 39 57 58
f 39 56 57
f 46 59 47
f 47 59 60
f 48 61 62
f 48 62 63
f 49 51 50
f 51 64 52
f 52 64 65
f 52 65 66
f 52 66 53
f 53 66 67
f 53 67 68
f 53 68 69
f 53 69 70
f 53 70 71
f 53 71 54
f 54 71 57
f 54 57 56
f 54 56 55
f 57 72 58
f 57 71 70
f 57 70 72
f 58 72 70
f 58 70 73
f 58 73 74
f 61 76 77
f 61 77 62
f 62 78 63
f 62 77 78
f 64 79 65
f 65 79 80
f 65 80 67
f 65 67 66
f 67 73 68
f 67 80 81
f 67 81 82
f 67 82 73
f 68 73 69
f 69 73 70
f 73 82 74
f 74 82 83
f 74 83 84
f 74 84 85
f 75 86 87
f 75 87 88
f 76 89 90
f 76 90 77
f 77 91 92
f 77 90 89
f 77 89 93
f 77 93 91
f 80 94 81
f 80 95 96
f 80 96 94
f 81 96 97
f 81 97 83
f 81 83 82
f 81 94 96
f 83 97 98
f 83 98 84
f 84 98 116
f 84 116 99
f 84 99 100
f 84 100 101
f 84 101 102
f 84 102 103
f 84 103 104
f 84 104 85
f 86 105 87
f 87 105 106
f 87 106 88
f 88 106 107
f 91 93 108
f 91 108 109
f 91 109 110
f 91 110 92
f 95 111 112
f 95 112 113
f 95 113 114
f 95 114 96
f 96 114 115
f 96 115 97
f 97 115 98
f 98 115 116
f 99 117 118
f 99 118 100
f 99 116 114
f 99 114 113
f 99 113 119
f 99 119 117
f 100 118 120
f 100 120 101
f 101 120 118
f 101 118 121
f 105 122 106
f 106 122 123
f 106 123 124
f 106 124 125
f 106 125 126
f 106 126 127
f 106 127 107
f 107 127 108
f 108 127 128
f 108 128 129
f 108 129 130
f 108 130 131
f 108 131 109
f 109 131 110
f 111 132 112
f 112 132 133
f 112 133 142
f 112 142 134
f 112 134 118
f 112 118 117
f 112 117 113
f 113 117 119
f 114 116 115
f 118 134 142
f 118 142 135
f 118 135 124
f 118 124 121
f 124 135 125
f 125 135 136
f 125 136 126
f 126 136 137
f 126 137 138
f 126 138 127
f 127 138 128
f 128 138 139
f 128 139 129
f 129 139 140
f 132 139 141
f 132 141 133
f 132 140 139
f 133 141 139
f 133 139 142
f 135 142 136
f 136 142 139
f 136 139 137
f 137 139 138
