v 0.201304 0.161699 -0.324969
v 0.259605 0.000135441 -0.324969
v 0.201304 0.16247 -0.322378
v 0.201304 0.3905 -0.324969
v 0.44075 0.000135441 -0.324969
v 0.263599 0.000135441 -0.3035
v 0.201304 0.201331 -0.192015
v 0.201304 0.437321 -0.228209
v 0.205048 0.435652 -0.228469
v 0.204105 0.389344 -0.324969
v 0.455672 0.000135441 -0.292551
v 0.44075 0.00587043 -0.324969
v 0.28013 0.000135441 -0.215307
v 0.201331 0.201331 -0.191976
v 0.201304 0.211688 -0.191976
v 0.284429 0.000135441 -0.192679
v 0.284568 0.000135441 -0.191976
v 0.201304 0.43638 -0.216752
v 0.213979 0.433598 -0.21877
v 0.213979 0.433598 -0.225084
v 0.21201 0.385877 -0.324969
v 0.217141 0.430645 -0.228469
v 0.227709 0.426621 -0.227701
v 0.229789 0.418789 -0.242022
v 0.234282 0.420673 -0.234237
v 0.234282 0.409117 -0.257802
v 0.455672 0.00231816 -0.292551
v 0.484628 0.000135441 -0.227701
v 0.439418 0.0172548 -0.324969
v 0.484628 0.00587043 -0.227701
v 0.201304 0.267711 -0.191976
v 0.336989 0.000135441 -0.191976
v 0.204355 0.435566 -0.216947
v 0.201304 0.426194 -0.211492
v 0.204355 0.426194 -0.211596
v 0.239385 0.422342 -0.218366
v 0.245848 0.420758 -0.220514
v 0.245848 0.420758 -0.222715
v 0.217807 0.38331 -0.324969
v 0.238664 0.422128 -0.22705
v 0.222439 0.385663 -0.316012
v 0.483852 0.000135441 -0.222285
v 0.438836 0.0217058 -0.324969
v 0.483131 0.0175544 -0.227701
v 0.48302 0.00587043 -0.216687
v 0.478776 0.0704104 -0.22196
v 0.478776 0.0704104 -0.221699
v 0.479164 0.0642474 -0.220397
v 0.479941 0.0525635 -0.21847
v 0.480717 0.0408795 -0.217442
v 0.481494 0.0291955 -0.216999
v 0.482271 0.0175544 -0.216817
v 0.204826 0.265058 -0.191976
v 0.262739 0.391142 -0.211401
v 0.251062 0.402826 -0.211778
v 0.227709 0.41451 -0.211375
v 0.472896 0.000135441 -0.211336
v 0.336989 0.00587043 -0.191976
v 0.239385 0.41451 -0.213041
v 0.250286 0.414167 -0.217273
v 0.258718 0.410059 -0.219082
v 0.305065 0.37475 -0.219382
v 0.292223 0.385535 -0.221217
v 0.292223 0.385535 -0.222246
v 0.258718 0.410059 -0.224316
v 0.25084 0.414338 -0.227402
v 0.226488 0.378045 -0.324969
v 0.219083 0.382582 -0.324969
v 0.48302 0.000135441 -0.216687
v 0.42849 0.0998557 -0.324969
v 0.470843 0.11094 -0.227701
v 0.472896 0.00587043 -0.211336
v 0.472896 0.0408795 -0.212091
v 0.472896 0.0291955 -0.211648
v 0.472896 0.0175544 -0.211453
v 0.468208 0.131313 -0.224277
v 0.468208 0.131313 -0.219095
v 0.469346 0.122624 -0.217338
v 0.472896 0.0525635 -0.213119
v 0.212232 0.259451 -0.191976
v 0.309447 0.356133 -0.211453
v 0.29777 0.367816 -0.212026
v 0.335768 0.0170836 -0.191976
v 0.262656 0.40304 -0.216101
v 0.30917 0.367859 -0.216322
v 0.317934 0.363965 -0.218692
v 0.330776 0.353222 -0.218496
v 0.336379 0.348557 -0.227701
v 0.272724 0.342651 -0.324969
v 0.252505 0.358144 -0.324969
v 0.426632 0.111283 -0.324969
v 0.467182 0.11736 -0.233807
v 0.468957 0.121811 -0.227988
v 0.461219 0.122624 -0.211987
v 0.461219 0.11094 -0.211531
v 0.331192 0.0517075 -0.191976
v 0.46635 0.12515 -0.232063
v 0.433178 0.119671 -0.306052
v 0.42322 0.122239 -0.324969
v 0.417951 0.135122 -0.324969
v 0.413513 0.145907 -0.324969
v 0.403805 0.169403 -0.324969
v 0.455616 0.164053 -0.222337
v 0.459361 0.145992 -0.21683
v 0.455616 0.164053 -0.221074
v 0.444605 0.189005 -0.219486
v 0.446241 0.181001 -0.217546
v 0.227293 0.247981 -0.191976
v 0.321124 0.344449 -0.21131
v 0.333938 0.345561 -0.215606
v 0.238581 0.238565 -0.191976
v 0.32154 0.356732 -0.215788
v 0.342481 0.342437 -0.218379
v 0.34273 0.342694 -0.227701
v 0.340262 0.340212 -0.236372
v 0.337876 0.337815 -0.244158
v 0.305897 0.317015 -0.324969
v 0.298214 0.323007 -0.324969
v 0.425606 0.114621 -0.324969
v 0.44455 0.119243 -0.282096
v 0.449542 0.157676 -0.21351
v 0.437865 0.181001 -0.212195
v 0.426188 0.204369 -0.211596
v 0.449542 0.145992 -0.211479
v 0.32509 0.0889421 -0.191976
v 0.32534 0.0880005 -0.191976
v 0.327864 0.0759314 -0.191976
v 0.329611 0.0632631 -0.191976
v 0.389382 0.204113 -0.324969
v 0.433594 0.213999 -0.225084
v 0.42078 0.245798 -0.222715
v 0.42078 0.245798 -0.220514
v 0.433594 0.213999 -0.21877
v 0.422361 0.239336 -0.218366
v 0.435591 0.204369 -0.216947
v 0.332801 0.332765 -0.211232
v 0.345587 0.333877 -0.215606
v 0.248039 0.227267 -0.191976
v 0.356127 0.309397 -0.211453
v 0.34445 0.321081 -0.21131
v 0.353214 0.330753 -0.218496
v 0.348555 0.336317 -0.227701
v 0.317047 0.305844 -0.324969
v 0.315188 0.315132 -0.315126
v 0.308753 0.314532 -0.324969
v 0.414511 0.239336 -0.213041
v 0.414511 0.227695 -0.211375
v 0.296966 0.158404 -0.191976
v 0.307006 0.134308 -0.191976
v 0.317102 0.109999 -0.191976
v 0.321789 0.098529 -0.191976
v 0.383308 0.217808 -0.324969
v 0.386803 0.215026 -0.320386
v 0.409131 0.234243 -0.257802
v 0.420696 0.234243 -0.234237
v 0.426632 0.227695 -0.227701
v 0.422167 0.238608 -0.22705
v 0.385694 0.222388 -0.316012
v 0.378066 0.226453 -0.324969
v 0.414345 0.250806 -0.227402
v 0.410074 0.258681 -0.224316
v 0.385527 0.292192 -0.222246
v 0.410074 0.258681 -0.219082
v 0.414179 0.250249 -0.217273
v 0.385527 0.292192 -0.221217
v 0.374765 0.305031 -0.219382
v 0.367804 0.297755 -0.212026
v 0.356709 0.321509 -0.215788
v 0.283541 0.180787 -0.191976
v 0.391158 0.262704 -0.211401
v 0.402834 0.25102 -0.211778
v 0.367859 0.30914 -0.216322
v 0.364004 0.317871 -0.218692
v 0.323065 0.298184 -0.324969
v 0.364004 0.317871 -0.225436
v 0.342703 0.272718 -0.324969
v 0.314578 0.308712 -0.324969
v 0.311832 0.311793 -0.324969
v 0.403056 0.262618 -0.216101
v 0.290392 0.171243 -0.191976
v 0.291945 0.168547 -0.191976
v 0.294885 0.162812 -0.191976
v 0.382587 0.219049 -0.324969
f 1 2 3
f 1 3 7
f 1 7 15
f 1 15 31
f 1 31 34
f 1 34 18
f 1 18 8
f 1 8 4
f 1 4 10
f 1 10 21
f 1 21 39
f 1 39 68
f 1 68 67
f 1 67 90
f 1 90 89
f 1 89 118
f 1 118 117
f 1 117 145
f 1 145 178
f 1 178 177
f 1 177 143
f 1 143 174
f 1 174 176
f 1 176 159
f 1 159 183
f 1 183 152
f 1 152 129
f 1 129 102
f 1 102 101
f 1 101 100
f 1 100 99
f 1 99 119
f 1 119 91
f 1 91 70
f 1 70 43
f 1 43 29
f 1 29 12
f 1 12 5
f 1 5 2
f 2 5 11
f 2 11 28
f 2 28 42
f 2 42 69
f 2 69 57
f 2 57 32
f 2 32 17
f 2 17 16
f 2 16 13
f 2 13 6
f 2 6 7
f 2 7 3
f 4 8 9
f 4 9 10
f 5 12 27
f 5 27 11
f 6 13 7
f 7 14 15
f 7 13 16
f 7 16 17
f 7 17 14
f 8 18 19
f 8 19 20
f 8 20 9
f 9 20 10
f 10 20 22
f 10 22 23
f 10 23 24
f 10 24 25
f 10 25 26
f 10 26 21
f 11 27 30
f 11 30 28
f 12 29 30
f 12 30 27
f 14 17 32
f 14 32 58
f 14 58 83
f 14 83 96
f 14 96 128
f 14 128 127
f 14 127 126
f 14 126 125
f 14 125 151
f 14 151 150
f 14 150 149
f 14 149 148
f 14 148 182
f 14 182 181
f 14 181 180
f 14 180 169
f 14 169 138
f 14 138 111
f 14 111 108
f 14 108 80
f 14 80 53
f 14 53 31
f 14 31 15
f 18 33 19
f 18 34 35
f 18 35 33
f 19 33 36
f 19 36 37
f 19 37 38
f 19 38 20
f 20 38 23
f 20 23 22
f 21 26 39
f 23 38 40
f 23 40 25
f 23 25 24
f 25 40 26
f 26 40 38
f 26 38 41
f 26 41 39
f 28 30 42
f 29 43 44
f 29 44 30
f 30 45 42
f 30 44 46
f 30 46 47
f 30 47 48
f 30 48 49
f 30 49 50
f 30 50 51
f 30 51 52
f 30 52 45
f 31 53 54
f 31 54 55
f 31 55 56
f 31 56 35
f 31 35 34
f 32 57 72
f 32 72 58
f 33 35 59
f 33 59 36
f 35 56 59
f 36 59 60
f 36 60 37
f 37 60 61
f 37 61 62
f 37 62 63
f 37 63 64
f 37 64 38
f 38 64 65
f 38 65 66
f 38 66 67
f 38 67 41
f 39 41 68
f 41 67 68
f 42 45 69
f 43 46 44
f 43 70 71
f 43 71 46
f 45 72 57
f 45 57 69
f 45 52 73
f 45 73 74
f 45 74 75
f 45 75 72
f 46 71 76
f 46 76 77
f 46 77 47
f 47 77 78
f 47 78 48
f 48 78 49
f 49 78 50
f 50 78 79
f 50 79 73
f 50 73 51
f 51 73 52
f 53 80 54
f 54 81 55
f 54 80 81
f 55 59 56
f 55 81 82
f 55 82 59
f 58 72 75
f 58 75 83
f 59 82 84
f 59 84 60
f 60 84 85
f 60 85 61
f 61 85 62
f 62 85 86
f 62 86 87
f 62 87 63
f 63 87 88
f 63 88 64
f 64 88 89
f 64 89 65
f 65 89 90
f 65 90 67
f 65 67 66
f 70 91 92
f 70 92 71
f 71 92 93
f 71 93 76
f 73 79 94
f 73 94 95
f 73 95 74
f 74 96 83
f 74 83 75
f 74 95 96
f 76 93 97
f 76 97 98
f 76 98 99
f 76 99 100
f 76 100 101
f 76 101 102
f 76 102 103
f 76 103 105
f 76 105 77
f 77 104 78
f 77 105 106
f 77 106 107
f 77 107 104
f 78 104 94
f 78 94 79
f 80 108 81
f 81 109 110
f 81 110 82
f 81 108 111
f 81 111 109
f 82 112 85
f 82 85 84
f 82 110 112
f 85 112 87
f 85 87 86
f 87 110 113
f 87 113 88
f 87 112 110
f 88 113 114
f 88 114 115
f 88 115 116
f 88 116 117
f 88 117 118
f 88 118 89
f 91 119 98
f 91 98 120
f 91 120 97
f 91 97 93
f 91 93 92
f 94 104 121
f 94 121 122
f 94 122 123
f 94 123 124
f 94 124 125
f 94 125 95
f 95 125 126
f 95 126 127
f 95 127 128
f 95 128 96
f 97 120 98
f 98 119 99
f 102 129 130
f 102 130 103
f 103 130 131
f 103 131 132
f 103 132 105
f 104 107 121
f 105 132 106
f 106 132 133
f 106 133 107
f 107 133 134
f 107 134 135
f 107 135 122
f 107 122 121
f 109 136 110
f 109 111 136
f 110 136 137
f 110 137 113
f 111 138 139
f 111 139 140
f 111 140 136
f 113 137 141
f 113 141 114
f 114 142 115
f 114 141 142
f 115 142 116
f 116 142 143
f 116 143 144
f 116 144 117
f 117 144 145
f 122 135 146
f 122 146 123
f 123 146 147
f 123 147 148
f 123 148 149
f 123 149 150
f 123 150 124
f 124 150 151
f 124 151 125
f 129 152 153
f 129 153 154
f 129 154 155
f 129 155 156
f 129 156 130
f 130 156 131
f 131 156 157
f 131 157 154
f 131 154 158
f 131 158 159
f 131 159 160
f 131 160 161
f 131 161 162
f 131 162 165
f 131 165 132
f 132 163 164
f 132 164 134
f 132 134 133
f 132 165 166
f 132 166 163
f 134 164 146
f 134 146 135
f 136 140 137
f 137 140 139
f 137 139 167
f 137 167 168
f 137 168 141
f 138 169 139
f 139 169 170
f 139 170 171
f 139 171 167
f 141 168 172
f 141 172 173
f 141 173 166
f 141 166 165
f 141 165 142
f 142 174 143
f 142 165 162
f 142 162 175
f 142 175 176
f 142 176 174
f 143 177 144
f 144 177 178
f 144 178 145
f 146 164 179
f 146 179 167
f 146 167 171
f 146 171 147
f 147 171 180
f 147 180 181
f 147 181 182
f 147 182 148
f 152 183 158
f 152 158 153
f 153 158 154
f 154 157 155
f 155 157 156
f 158 183 159
f 159 176 161
f 159 161 160
f 161 176 162
f 162 176 175
f 163 166 172
f 163 172 164
f 164 172 179
f 166 173 172
f 167 172 168
f 167 179 172
f 169 171 170
f 169 180 171
