v 0.052555 0.496253 0.590268
v 0.0642249 0.496253 0.590158
v 0.00584555 0.507925 0.589061
v 9.21327e-05 0.496253 0.590268
v 0.122604 0.484581 0.590268
v 0.134274 0.484581 0.590176
v 0.0758949 0.496253 0.589847
v 9.21327e-05 0.507925 0.589061
v 0.0875648 0.496253 0.58939
v 0.0642249 0.506207 0.586941
v 0.00584555 0.515909 0.585845
v 9.21327e-05 0.449565 0.590268
v 0.151579 0.472909 0.590268
v 0.145959 0.484581 0.589372
v 0.134274 0.495352 0.58696
v 0.11092 0.496253 0.588129
v 0.0992496 0.496253 0.588806
v 9.21327e-05 0.515909 0.585845
v 0.0758949 0.505473 0.586631
v 0.0875648 0.504698 0.586174
v 0.0992496 0.503922 0.585607
v 0.0175155 0.515154 0.585205
v 0.00584555 0.521734 0.579631
v 9.21327e-05 0.437893 0.588477
v 0.0292003 0.437893 0.589847
v 0.0408702 0.437893 0.590176
v 0.052555 0.437893 0.590268
v 0.151579 0.484979 0.588294
v 0.151579 0.426222 0.590268
v 0.145959 0.493361 0.586156
v 0.127972 0.502016 0.583761
v 0.120187 0.502539 0.58431
v 0.11092 0.503168 0.584913
v 9.21327e-05 0.521734 0.579631
v 0.0292003 0.514379 0.584456
v 0.0361548 0.513918 0.583999
v 0.0175155 0.52098 0.578772
v 0.00584555 0.526889 0.573801
v 0.00236088 0.549101 0.549147
v 0.145959 0.41455 0.589902
v 9.21327e-05 0.43102 0.58526
v 0.151579 0.403884 0.58685
v 0.151579 0.41455 0.590067
v 0.134274 0.426222 0.590268
v 0.151579 0.492209 0.585333
v 0.134274 0.501198 0.582902
v 0.123494 0.50673 0.579119
v 0.0992496 0.509769 0.579302
v 0.134274 0.512388 0.570676
v 0.134274 0.517711 0.564828
v 0.134274 0.523536 0.558394
v 0.134274 0.528754 0.552546
v 0.134274 0.5346 0.545949
v 9.21327e-05 0.549101 0.549147
v 0.052555 0.518004 0.576944
v 0.0403809 0.517857 0.578918
v 0.0289482 0.521085 0.576963
v 0.112076 0.509957 0.577182
v 0.0175155 0.526135 0.572942
v 0.00584555 0.532735 0.567185
v 0.00584555 0.559872 0.536445
v 0.00584555 0.570873 0.523981
v 9.21327e-05 0.428883 0.578004
v 0.151579 0.398435 0.578004
v 0.151579 0.497971 0.579631
v 0.145959 0.499208 0.580782
v 0.145959 0.50474 0.574934
v 0.145959 0.510565 0.568775
v 0.145959 0.516076 0.562945
v 0.145959 0.521923 0.556731
v 0.151579 0.548535 0.526174
v 0.145959 0.549688 0.52643
v 0.134274 0.550736 0.527654
v 0.122604 0.540531 0.540978
v 9.21327e-05 0.570873 0.523981
v 0.0326849 0.52515 0.571809
v 0.0408702 0.557588 0.53385
v 0.0249 0.525653 0.572394
v 0.0175155 0.559118 0.535586
v 0.0136453 0.537387 0.56077
v 0.0292003 0.569344 0.522263
v 0.0408702 0.573367 0.515519
v 0.00584555 0.575504 0.518151
v 9.21327e-05 0.417923 0.519613
v 0.151579 0.363189 0.40358
v 0.151579 0.396927 0.571206
v 0.151579 0.50629 0.570859
v 0.151579 0.525129 0.550956
v 0.151579 0.548996 0.525662
v 0.146211 0.556331 0.518791
v 0.134274 0.556582 0.520965
v 0.122604 0.557358 0.521898
v 0.0717429 0.56071 0.525699
v 9.21327e-05 0.575504 0.518151
v 0.0408702 0.568568 0.521349
v 0.052555 0.572655 0.514514
v 0.00584555 0.577244 0.507935
v 0.134274 0.561402 0.515117
v 9.21327e-05 0.398121 0.414052
v 0.151579 0.500737 0.40358
v 9.21327e-05 0.396214 0.40358
v 0.151579 0.554172 0.519321
v 0.142489 0.560857 0.51435
v 9.21327e-05 0.577244 0.507935
v 0.0590943 0.572256 0.513911
v 0.0175155 0.573157 0.500204
v 0.00584555 0.573912 0.498742
v 0.0590943 0.572256 0.513454
v 0.0342123 0.572047 0.502452
v 0.0264274 0.572571 0.501319
v 0.145959 0.503063 0.40358
v 0.151579 0.548996 0.490097
v 9.21327e-05 0.524207 0.40358
v 0.151579 0.555765 0.513692
v 0.142489 0.560857 0.512467
v 0.151579 0.557106 0.508136
v 9.21327e-05 0.573912 0.498742
v 0.0516208 0.518444 0.40358
v 0.0175896 0.522782 0.40358
v 0.00584555 0.529948 0.414545
v 9.21327e-05 0.524626 0.404347
v 0.052555 0.570852 0.506235
v 0.134274 0.561402 0.510621
v 0.134274 0.559621 0.504791
v 0.126044 0.560165 0.503092
v 0.11826 0.560668 0.501721
v 0.11092 0.561171 0.500789
v 0.141036 0.504719 0.40358
v 0.140917 0.514107 0.419772
v 0.145959 0.553711 0.496275
v 0.151579 0.549332 0.490737
v 0.14197 0.526135 0.442416
v 0.00584555 0.524207 0.40358
v 0.146211 0.558845 0.508319
v 0.151579 0.554654 0.502342
v 0.109911 0.510733 0.40358
v 0.00584555 0.526177 0.407326
v 0.134274 0.555723 0.496275
v 0.135238 0.506626 0.40358
v 0.134274 0.538812 0.463872
v 0.134274 0.547697 0.480886
v 0.151579 0.552119 0.496494
v 0.134274 0.526868 0.441008
v 0.134274 0.514798 0.418456
v 0.134274 0.523767 0.435178
v 0.122604 0.508868 0.40358
f 1 2 3
f 1 3 8
f 1 8 4
f 1 4 12
f 1 12 27
f 1 27 44
f 1 44 29
f 1 29 13
f 1 13 5
f 1 5 6
f 1 6 2
f 2 7 3
f 2 6 7
f 3 7 9
f 3 9 10
f 3 10 11
f 3 11 18
f 3 18 8
f 4 8 18
f 4 18 34
f 4 34 54
f 4 54 75
f 4 75 94
f 4 94 104
f 4 104 117
f 4 117 121
f 4 121 113
f 4 113 101
f 4 101 99
f 4 99 84
f 4 84 63
f 4 63 41
f 4 41 24
f 4 24 12
f 5 13 6
f 6 13 14
f 6 14 15
f 6 15 16
f 6 16 17
f 6 17 9
f 6 9 7
f 9 17 19
f 9 19 10
f 10 19 11
f 11 19 20
f 11 20 21
f 11 21 22
f 11 22 23
f 11 23 34
f 11 34 18
f 12 24 25
f 12 25 26
f 12 26 27
f 13 28 14
f 13 29 43
f 13 43 42
f 13 42 64
f 13 64 86
f 13 86 85
f 13 85 100
f 13 100 112
f 13 112 131
f 13 131 142
f 13 142 135
f 13 135 116
f 13 116 114
f 13 114 102
f 13 102 89
f 13 89 71
f 13 71 88
f 13 88 87
f 13 87 65
f 13 65 45
f 13 45 28
f 14 28 30
f 14 30 15
f 15 31 32
f 15 32 33
f 15 33 21
f 15 21 20
f 15 20 19
f 15 19 16
f 15 30 31
f 16 19 17
f 21 33 22
f 22 33 35
f 22 35 23
f 23 35 36
f 23 36 37
f 23 37 59
f 23 59 38
f 23 38 39
f 23 39 54
f 23 54 34
f 24 40 25
f 24 41 42
f 24 42 40
f 25 40 43
f 25 43 26
f 26 43 27
f 27 43 44
f 28 45 30
f 29 44 43
f 30 45 46
f 30 46 31
f 31 47 48
f 31 48 36
f 31 36 32
f 31 46 49
f 31 49 50
f 31 50 51
f 31 51 52
f 31 52 53
f 31 53 47
f 32 36 33
f 33 36 35
f 36 55 56
f 36 56 57
f 36 57 37
f 36 48 58
f 36 58 55
f 37 57 59
f 38 59 60
f 38 60 39
f 39 61 62
f 39 62 75
f 39 75 54
f 39 60 61
f 40 42 43
f 41 63 64
f 41 64 42
f 45 65 66
f 45 66 46
f 46 66 67
f 46 67 68
f 46 68 69
f 46 69 70
f 46 70 71
f 46 71 49
f 47 58 48
f 47 53 58
f 49 71 50
f 50 71 72
f 50 72 51
f 51 72 52
f 52 72 53
f 53 72 73
f 53 73 74
f 53 74 58
f 55 76 56
f 55 58 77
f 55 77 76
f 56 76 57
f 57 76 78
f 57 78 59
f 58 74 77
f 59 78 79
f 59 79 80
f 59 80 60
f 60 80 61
f 61 80 79
f 61 79 62
f 62 79 81
f 62 81 82
f 62 82 83
f 62 83 94
f 62 94 75
f 63 84 85
f 63 85 86
f 63 86 64
f 65 87 66
f 66 87 88
f 66 88 67
f 67 88 68
f 68 88 69
f 69 88 71
f 69 71 70
f 71 89 72
f 72 89 90
f 72 90 73
f 73 90 91
f 73 91 92
f 73 92 74
f 74 92 93
f 74 93 77
f 76 77 79
f 76 79 78
f 77 93 81
f 77 81 79
f 81 95 82
f 81 93 92
f 81 92 95
f 82 96 97
f 82 97 83
f 82 95 92
f 82 92 98
f 82 98 96
f 83 97 104
f 83 104 94
f 84 99 85
f 85 99 101
f 85 101 113
f 85 113 133
f 85 133 119
f 85 119 118
f 85 118 136
f 85 136 146
f 85 146 139
f 85 139 128
f 85 128 111
f 85 111 100
f 89 102 90
f 90 102 103
f 90 103 91
f 91 103 98
f 91 98 92
f 96 105 97
f 96 98 105
f 97 106 107
f 97 107 117
f 97 117 104
f 97 105 108
f 97 108 109
f 97 109 110
f 97 110 106
f 98 103 105
f 100 111 112
f 102 114 103
f 103 115 108
f 103 108 105
f 103 114 116
f 103 116 115
f 106 110 118
f 106 118 107
f 107 118 119
f 107 119 120
f 107 120 121
f 107 121 117
f 108 122 109
f 108 115 123
f 108 123 124
f 108 124 122
f 109 122 125
f 109 125 126
f 109 126 110
f 110 126 127
f 110 127 118
f 111 128 129
f 111 129 112
f 112 130 131
f 112 129 132
f 112 132 130
f 113 121 133
f 115 116 134
f 115 134 124
f 115 124 123
f 116 135 134
f 118 127 136
f 119 133 137
f 119 137 120
f 120 137 121
f 121 137 133
f 122 124 125
f 124 134 130
f 124 130 138
f 124 138 125
f 125 138 126
f 126 138 127
f 127 138 136
f 128 139 129
f 129 139 132
f 130 140 141
f 130 141 138
f 130 134 135
f 130 135 142
f 130 142 131
f 130 132 143
f 130 143 140
f 132 139 144
f 132 144 145
f 132 145 143
f 136 143 146
f 136 138 141
f 136 141 140
f 136 140 143
f 139 146 144
f 143 145 146
f 144 146 145
