v -0.539419 -0.00587603 0.205485
v -0.539419 -0.00587603 0.213637
v -0.539419 -0.000138538 0.205485
v -0.53655 -0.00587603 0.199654
v -0.537426 -0.0374093 0.209546
v -0.531288 -0.0175346 0.21737
v -0.531288 -0.00587603 0.218084
v -0.539419 -0.000138538 0.213637
v -0.537426 -0.0374093 0.210855
v -0.538675 -0.0175346 0.212923
v -0.527435 -0.0992826 0.213384
v -0.528205 -0.0875781 0.213919
v -0.53655 -0.000138538 0.199654
v -0.473676 -0.0171674 0.0761655
v -0.472161 -0.0292391 0.0761655
v -0.475084 -0.00587603 0.0761655
v -0.469105 -0.0528777 0.0761655
v -0.525548 -0.129255 0.209962
v -0.519622 -0.0992826 0.217846
v -0.437615 -0.0171215 0.228124
v -0.437961 -0.00587603 0.228124
v -0.531288 -0.000138538 0.218084
v -0.519622 -0.0875781 0.218367
v -0.519622 -0.0759195 0.218694
v -0.519622 -0.0642609 0.218932
v -0.519622 -0.0525563 0.219051
v -0.537931 -0.0291932 0.211837
v -0.525548 -0.129255 0.210424
v -0.525973 -0.122646 0.211271
v -0.526691 -0.110941 0.212536
v -0.519622 -0.122646 0.215734
v -0.519622 -0.110941 0.216983
v -0.475084 -0.000138538 0.0761655
v -0.461346 -0.110941 0.0761655
v -0.522545 -0.133616 0.205381
v -0.517762 -0.146835 0.203403
v -0.514041 -0.164185 0.20962
v -0.50793 -0.145963 0.218679
v -0.435861 -0.0400257 0.228124
v -0.437961 -0.000138538 0.228124
v -0.50793 -0.134304 0.219066
v -0.435755 -0.0408977 0.228124
v -0.517735 -0.145963 0.214231
v -0.514041 -0.164185 0.210781
v -0.51537 -0.157667 0.212461
v -0.334801 -0.000138538 0.0761655
v -0.459087 -0.1226 0.0761655
v -0.513032 -0.136462 0.188156
v -0.515131 -0.14353 0.195951
v -0.456509 -0.131045 0.0761655
v -0.51537 -0.157667 0.207136
v -0.435542 -0.181857 0.0761655
v -0.490444 -0.221927 0.210141
v -0.412662 -0.145871 0.228124
v -0.424594 -0.112823 0.228124
v -0.50793 -0.157667 0.216909
v -0.496264 -0.18103 0.217891
v -0.484571 -0.204348 0.2185
v -0.472905 -0.227711 0.218828
v -0.496264 -0.169326 0.218887
v -0.363262 -0.000138538 0.228124
v -0.424913 -0.111813 0.228124
v -0.504661 -0.18103 0.213428
v -0.494005 -0.204348 0.214053
v -0.490444 -0.221927 0.210215
v -0.479389 -0.246805 0.211435
v -0.503013 -0.189155 0.211807
v -0.480904 -0.239369 0.213086
v -0.267941 -0.197325 0.0761655
v -0.346786 -0.000138538 0.14023
v -0.267941 -0.243684 0.228124
v -0.267941 -0.243546 0.227693
v -0.267941 -0.238268 0.210424
v -0.267941 -0.197692 0.0774149
v -0.421671 -0.215364 0.0761655
v -0.479389 -0.246805 0.208906
v -0.409899 -0.152481 0.228124
v -0.472905 -0.239369 0.217534
v -0.461213 -0.262687 0.218292
v -0.461213 -0.251028 0.218976
v -0.361029 -0.000138538 0.216254
v -0.470221 -0.262687 0.21383
v -0.468361 -0.270627 0.212223
v -0.267941 -0.389187 0.0761655
v -0.267941 -0.343562 0.228124
v -0.416888 -0.226701 0.0761655
v -0.470088 -0.262778 0.204013
v -0.468361 -0.270627 0.207687
v -0.388002 -0.201502 0.228124
v -0.461585 -0.274483 0.214737
v -0.437881 -0.297754 0.217385
v -0.426188 -0.309413 0.218292
v -0.449547 -0.274391 0.218798
v -0.376522 -0.224406 0.228124
v -0.380933 -0.216052 0.228124
v -0.444179 -0.304226 0.211019
v -0.43339 -0.317032 0.21209
v -0.457918 -0.283571 0.212774
v -0.267941 -0.456293 0.185003
v -0.269403 -0.455972 0.185851
v -0.274505 -0.463453 0.204013
v -0.280404 -0.455513 0.198316
v -0.297412 -0.4467 0.205024
v -0.304241 -0.444175 0.209367
v -0.270758 -0.38703 0.0761655
v -0.304906 -0.316665 0.228124
v -0.274425 -0.449546 0.218798
v -0.267941 -0.449546 0.218962
v -0.416622 -0.227252 0.0761655
v -0.466182 -0.26668 0.199907
v -0.411334 -0.237855 0.0761655
v -0.40764 -0.243684 0.0761655
v -0.463472 -0.274483 0.204013
v -0.444179 -0.304226 0.209367
v -0.437509 -0.308633 0.213607
v -0.426374 -0.32098 0.214603
v -0.391217 -0.367476 0.214365
v -0.402857 -0.344435 0.217013
v -0.391191 -0.356139 0.218084
v -0.379525 -0.367798 0.218634
v -0.414523 -0.321071 0.218724
v -0.316704 -0.304869 0.228124
v -0.351941 -0.258418 0.228124
v -0.37615 -0.224957 0.228124
v -0.376309 -0.224727 0.228124
v -0.408889 -0.350585 0.210602
v -0.398126 -0.363391 0.211822
v -0.387338 -0.376243 0.212536
v -0.422628 -0.32993 0.21267
v -0.267941 -0.464693 0.198821
v -0.267941 -0.465748 0.200562
v -0.270652 -0.468365 0.207687
v -0.282876 -0.457349 0.20434
v -0.288722 -0.452896 0.20434
v -0.304241 -0.444175 0.211019
v -0.350612 -0.408878 0.209799
v -0.317156 -0.351457 0.0761655
v -0.367832 -0.379456 0.218634
v -0.321116 -0.414524 0.218724
v -0.310433 -0.311478 0.228124
v -0.30945 -0.426182 0.218292
v -0.297784 -0.437841 0.217385
v -0.267941 -0.461388 0.216716
v -0.401608 -0.251808 0.0761655
v -0.457386 -0.282837 0.20434
v -0.408889 -0.350585 0.209799
v -0.379897 -0.379869 0.214797
v -0.311496 -0.310377 0.228124
v -0.387338 -0.376243 0.206958
v -0.376283 -0.387305 0.212536
v -0.267941 -0.468961 0.206422
v -0.267941 -0.469007 0.209784
v -0.270652 -0.468365 0.212223
v -0.317076 -0.433389 0.21209
v -0.363421 -0.398092 0.211822
v -0.350612 -0.408878 0.210602
v -0.376283 -0.387305 0.206958
v -0.330098 -0.341451 0.0761655
v -0.356166 -0.391161 0.218084
v -0.321036 -0.426366 0.214603
v -0.274505 -0.461571 0.214737
v -0.344474 -0.402819 0.217013
v -0.267941 -0.469007 0.212774
v -0.351622 -0.31694 0.0761655
v -0.347131 -0.32277 0.0761655
v -0.398126 -0.363391 0.208371
v -0.36754 -0.391161 0.214365
v -0.341312 -0.330297 0.0761655
v -0.374662 -0.374637 0.1853
v -0.380588 -0.380558 0.203061
v -0.308652 -0.43752 0.213607
v -0.28362 -0.457899 0.212774
v -0.330549 -0.341084 0.0761655
v -0.336156 -0.336127 0.0761655
f 1 2 8
f 1 8 3
f 1 3 13
f 1 13 4
f 1 4 5
f 1 5 9
f 1 9 2
f 2 6 7
f 2 7 22
f 2 22 8
f 2 9 10
f 2 10 11
f 2 11 12
f 2 12 6
f 3 8 22
f 3 22 40
f 3 40 61
f 3 61 81
f 3 81 70
f 3 70 46
f 3 46 33
f 3 33 13
f 4 14 15
f 4 15 5
f 4 13 33
f 4 33 16
f 4 16 14
f 5 15 17
f 5 17 18
f 5 18 28
f 5 28 9
f 6 12 19
f 6 19 7
f 7 20 21
f 7 21 40
f 7 40 22
f 7 19 23
f 7 23 24
f 7 24 25
f 7 25 26
f 7 26 20
f 9 27 10
f 9 28 29
f 9 29 27
f 10 27 30
f 10 30 11
f 11 30 31
f 11 31 32
f 11 32 12
f 12 32 19
f 14 16 33
f 14 33 46
f 14 46 69
f 14 69 84
f 14 84 105
f 14 105 137
f 14 137 158
f 14 158 173
f 14 173 174
f 14 174 168
f 14 168 165
f 14 165 164
f 14 164 144
f 14 144 112
f 14 112 111
f 14 111 109
f 14 109 86
f 14 86 75
f 14 75 52
f 14 52 50
f 14 50 47
f 14 47 34
f 14 34 17
f 14 17 15
f 17 34 18
f 18 34 35
f 18 35 36
f 18 36 37
f 18 37 44
f 18 44 28
f 19 32 38
f 19 38 23
f 20 26 39
f 20 39 42
f 20 42 62
f 20 62 55
f 20 55 54
f 20 54 77
f 20 77 89
f 20 89 95
f 20 95 94
f 20 94 125
f 20 125 124
f 20 124 123
f 20 123 122
f 20 122 148
f 20 148 140
f 20 140 106
f 20 106 85
f 20 85 71
f 20 71 61
f 20 61 40
f 20 40 21
f 23 38 41
f 23 41 24
f 24 41 25
f 25 42 39
f 25 39 26
f 25 41 42
f 27 29 30
f 28 43 29
f 28 44 45
f 28 45 43
f 29 43 30
f 30 43 31
f 31 43 32
f 32 43 38
f 34 47 35
f 35 48 49
f 35 49 36
f 35 47 48
f 36 49 50
f 36 50 51
f 36 51 37
f 37 51 50
f 37 50 52
f 37 52 53
f 37 53 65
f 37 65 44
f 38 54 55
f 38 55 41
f 38 43 56
f 38 56 57
f 38 57 58
f 38 58 59
f 38 59 60
f 38 60 54
f 41 55 62
f 41 62 42
f 43 45 63
f 43 63 64
f 43 64 56
f 44 65 66
f 44 66 67
f 44 67 45
f 45 67 68
f 45 68 63
f 46 70 71
f 46 71 72
f 46 72 73
f 46 73 74
f 46 74 69
f 47 50 49
f 47 49 48
f 52 75 53
f 53 75 76
f 53 76 66
f 53 66 65
f 54 60 59
f 54 59 77
f 56 64 78
f 56 78 57
f 57 78 79
f 57 79 58
f 58 79 59
f 59 79 80
f 59 80 77
f 61 71 81
f 63 68 82
f 63 82 64
f 64 82 78
f 66 76 88
f 66 88 83
f 66 83 82
f 66 82 68
f 66 68 67
f 69 74 73
f 69 73 72
f 69 72 71
f 69 71 85
f 69 85 108
f 69 108 143
f 69 143 163
f 69 163 152
f 69 152 151
f 69 151 131
f 69 131 130
f 69 130 99
f 69 99 84
f 70 81 71
f 75 86 87
f 75 87 76
f 76 87 88
f 77 80 89
f 78 82 79
f 79 82 90
f 79 90 91
f 79 91 92
f 79 92 93
f 79 93 80
f 80 93 94
f 80 94 95
f 80 95 89
f 82 83 90
f 83 88 114
f 83 114 96
f 83 96 97
f 83 97 98
f 83 98 90
f 84 99 100
f 84 100 101
f 84 101 102
f 84 102 103
f 84 103 104
f 84 104 105
f 85 106 107
f 85 107 108
f 86 109 110
f 86 110 87
f 87 110 88
f 88 110 111
f 88 111 112
f 88 112 113
f 88 113 114
f 90 98 115
f 90 115 116
f 90 116 91
f 91 116 117
f 91 117 118
f 91 118 119
f 91 119 92
f 92 119 120
f 92 120 121
f 92 121 93
f 93 122 123
f 93 123 124
f 93 124 125
f 93 125 94
f 93 121 122
f 96 114 146
f 96 146 126
f 96 126 127
f 96 127 97
f 97 127 128
f 97 128 129
f 97 129 115
f 97 115 98
f 99 130 100
f 100 130 131
f 100 131 132
f 100 132 101
f 101 132 104
f 101 104 133
f 101 133 102
f 102 133 134
f 102 134 103
f 103 134 104
f 104 134 133
f 104 132 153
f 104 153 135
f 104 135 156
f 104 156 136
f 104 136 137
f 104 137 105
f 106 138 139
f 106 139 107
f 106 140 138
f 107 139 141
f 107 141 142
f 107 142 143
f 107 143 108
f 109 111 110
f 112 144 113
f 113 144 145
f 113 145 114
f 114 145 144
f 114 144 146
f 115 129 128
f 115 128 117
f 115 117 116
f 117 128 147
f 117 147 119
f 117 119 118
f 119 147 120
f 120 147 138
f 120 138 140
f 120 140 148
f 120 148 122
f 120 122 121
f 126 146 149
f 126 149 128
f 126 128 127
f 128 149 157
f 128 157 150
f 128 150 147
f 131 151 132
f 132 151 152
f 132 152 163
f 132 163 153
f 135 154 155
f 135 155 156
f 135 153 154
f 136 156 150
f 136 150 157
f 136 157 137
f 137 157 158
f 138 147 159
f 138 159 141
f 138 141 139
f 141 159 142
f 142 160 161
f 142 161 143
f 142 159 162
f 142 162 160
f 143 161 163
f 144 164 146
f 146 164 165
f 146 165 166
f 146 166 149
f 147 150 167
f 147 167 159
f 149 166 165
f 149 165 168
f 149 168 169
f 149 169 170
f 149 170 157
f 150 156 155
f 150 155 154
f 150 154 171
f 150 171 167
f 153 163 161
f 153 161 172
f 153 172 154
f 154 172 171
f 157 170 169
f 157 169 173
f 157 173 158
f 159 167 162
f 160 171 161
f 160 162 167
f 160 167 171
f 161 171 172
f 168 174 169
f 169 174 173
