v -0.152544 0.335813 0.269411
v -0.152544 0.336807 0.274413
v -0.152544 0.42616 0.269411
v 7.71949e-05 0.371079 0.269411
v 7.71949e-05 0.380704 0.321125
v 7.71949e-05 0.396058 0.403088
v -0.152544 0.337879 0.279756
v -0.1346 0.433974 0.269411
v -0.152544 0.461232 0.275043
v -0.145955 0.461232 0.274321
v 7.71949e-05 0.454704 0.269411
v 7.71949e-05 0.396194 0.403521
v -0.152544 0.362799 0.403521
v -0.152544 0.361688 0.398047
v -0.152544 0.361357 0.396406
v -0.152544 0.359545 0.387426
v -0.152544 0.341503 0.297769
v -0.128908 0.436253 0.269411
v -0.152544 0.471246 0.278837
v -0.134272 0.472902 0.276369
v -0.122603 0.472902 0.275017
v -0.00589918 0.454704 0.269411
v 7.71949e-05 0.484573 0.274255
v 7.71949e-05 0.524184 0.403521
v -0.152544 0.500297 0.403521
v -0.110919 0.440968 0.269411
v -0.110919 0.472902 0.274479
v -0.152544 0.474676 0.280268
v -0.145283 0.473312 0.278444
v -0.134272 0.480365 0.279533
v -0.14872 0.477481 0.28078
v -0.145283 0.483619 0.282763
v -0.122603 0.481865 0.278851
v -0.110919 0.482645 0.278496
v -0.0525597 0.484573 0.275923
v -0.0408759 0.484573 0.27528
v -0.029207 0.484573 0.274715
v -0.0162234 0.453535 0.269411
v -0.0175232 0.484573 0.274439
v -0.00583942 0.484573 0.274295
v 7.71949e-05 0.489912 0.27608
v 7.71949e-05 0.534842 0.367811
v -0.00583942 0.524184 0.403521
v -0.144745 0.50357 0.403521
v -0.142594 0.514774 0.375741
v -0.152544 0.511676 0.367811
v -0.0865055 0.445294 0.269411
v -0.152544 0.476682 0.281122
v -0.134272 0.48621 0.282067
v -0.152544 0.484184 0.284562
v -0.145955 0.494335 0.288828
v -0.122603 0.48771 0.281463
v -0.0875663 0.484184 0.2778
v -0.0642286 0.484573 0.276606
v -0.00583942 0.495406 0.27801
v 7.71949e-05 0.495406 0.27801
v 7.71949e-05 0.534784 0.35614
v -0.00583942 0.534842 0.367811
v -0.0642286 0.526347 0.375793
v -0.0727001 0.525801 0.374573
v -0.0174186 0.522801 0.403521
v -0.136752 0.506162 0.403521
v -0.134272 0.515787 0.377435
v -0.134272 0.517794 0.367811
v -0.143834 0.51528 0.367811
v -0.135243 0.50661 0.403521
v -0.143834 0.51528 0.35614
v -0.152544 0.511656 0.35614
v -0.13466 0.497141 0.288225
v -0.122603 0.496264 0.285743
v -0.152544 0.493029 0.289682
v -0.13103 0.502732 0.291126
v -0.0875663 0.490029 0.280426
v -0.110919 0.496264 0.284745
v -0.0992501 0.496264 0.283931
v -0.0875663 0.496264 0.283236
v -0.0525597 0.498173 0.282015
v -0.0408759 0.493107 0.279047
v -0.0175232 0.500472 0.280977
v -0.00583942 0.507935 0.283656
v 7.71949e-05 0.507935 0.283656
v 7.71949e-05 0.516702 0.289104
v -0.00583942 0.534784 0.35614
v -0.0175232 0.5334 0.367811
v -0.0531574 0.518222 0.403521
v -0.0525597 0.5183 0.403521
v -0.0525597 0.528802 0.367811
v -0.074 0.525977 0.367811
v -0.122603 0.519567 0.367811
v -0.109903 0.510721 0.403521
v -0.123395 0.508714 0.403521
v -0.122603 0.50885 0.403521
v -0.134272 0.517794 0.35614
v -0.142594 0.514774 0.348945
v -0.122603 0.503434 0.290365
v -0.110919 0.504155 0.289721
v -0.134272 0.515787 0.347737
v -0.0727001 0.525801 0.349733
v -0.0493922 0.514131 0.291467
v -0.029207 0.507935 0.285323
v -0.0175232 0.507935 0.284404
v -0.00583942 0.516702 0.289104
v -0.0175232 0.533342 0.35614
v -0.0175232 0.516079 0.289511
v -0.029207 0.515397 0.290089
v -0.0408759 0.514676 0.290837
v -0.029207 0.531861 0.35614
v -0.0525597 0.528802 0.35614
v -0.074 0.525977 0.35614
v -0.122603 0.519567 0.35614
f 1 2 7
f 1 7 17
f 1 17 16
f 1 16 15
f 1 15 14
f 1 14 13
f 1 13 25
f 1 25 46
f 1 46 68
f 1 68 71
f 1 71 50
f 1 50 48
f 1 48 28
f 1 28 19
f 1 19 9
f 1 9 3
f 1 3 8
f 1 8 18
f 1 18 26
f 1 26 47
f 1 47 38
f 1 38 22
f 1 22 11
f 1 11 4
f 1 4 5
f 1 5 6
f 1 6 2
f 2 6 7
f 3 9 10
f 3 10 8
f 4 11 23
f 4 23 41
f 4 41 56
f 4 56 81
f 4 81 82
f 4 82 57
f 4 57 42
f 4 42 24
f 4 24 12
f 4 12 6
f 4 6 5
f 6 12 13
f 6 13 14
f 6 14 15
f 6 15 16
f 6 16 17
f 6 17 7
f 8 10 18
f 9 19 20
f 9 20 21
f 9 21 10
f 10 21 18
f 11 22 23
f 12 24 43
f 12 43 61
f 12 61 86
f 12 86 85
f 12 85 90
f 12 90 92
f 12 92 91
f 12 91 66
f 12 66 62
f 12 62 44
f 12 44 25
f 12 25 13
f 18 21 27
f 18 27 26
f 19 28 29
f 19 29 20
f 20 30 21
f 20 29 28
f 20 28 31
f 20 31 32
f 20 32 30
f 21 30 33
f 21 33 34
f 21 34 35
f 21 35 36
f 21 36 37
f 21 37 27
f 22 38 39
f 22 39 40
f 22 40 23
f 23 40 41
f 24 42 58
f 24 58 43
f 25 44 45
f 25 45 46
f 26 27 47
f 27 37 39
f 27 39 47
f 28 48 32
f 28 32 31
f 30 32 49
f 30 49 33
f 32 48 50
f 32 50 51
f 32 51 49
f 33 49 52
f 33 52 34
f 34 53 35
f 34 52 53
f 35 53 54
f 35 54 55
f 35 55 36
f 36 55 37
f 37 55 39
f 38 47 39
f 39 55 40
f 40 55 41
f 41 55 56
f 42 57 83
f 42 83 58
f 43 58 59
f 43 59 60
f 43 60 61
f 44 62 45
f 45 63 64
f 45 64 65
f 45 65 46
f 45 62 66
f 45 66 63
f 46 65 67
f 46 67 68
f 49 51 69
f 49 69 70
f 49 70 52
f 50 71 51
f 51 72 69
f 51 71 72
f 52 73 53
f 52 70 74
f 52 74 75
f 52 75 76
f 52 76 77
f 52 77 73
f 53 73 78
f 53 78 55
f 53 55 54
f 55 78 77
f 55 77 79
f 55 79 80
f 55 80 81
f 55 81 56
f 57 82 102
f 57 102 83
f 58 83 103
f 58 103 84
f 58 84 60
f 58 60 59
f 60 85 86
f 60 86 61
f 60 84 87
f 60 87 88
f 60 88 89
f 60 89 64
f 60 64 63
f 60 63 90
f 60 90 85
f 63 66 91
f 63 91 92
f 63 92 90
f 64 89 110
f 64 110 93
f 64 93 67
f 64 67 65
f 67 94 68
f 67 93 94
f 68 94 71
f 69 72 70
f 70 72 95
f 70 95 96
f 70 96 74
f 71 94 72
f 72 94 97
f 72 97 98
f 72 98 99
f 72 99 95
f 73 77 78
f 74 96 100
f 74 100 101
f 74 101 75
f 75 77 76
f 75 101 80
f 75 80 77
f 77 80 79
f 80 101 102
f 80 102 82
f 80 82 81
f 83 98 103
f 83 102 104
f 83 104 105
f 83 105 106
f 83 106 99
f 83 99 98
f 84 103 107
f 84 107 108
f 84 108 87
f 87 108 109
f 87 109 88
f 88 109 110
f 88 110 89
f 93 110 98
f 93 98 97
f 93 97 94
f 95 99 106
f 95 106 105
f 95 105 96
f 96 105 104
f 96 104 100
f 98 110 109
f 98 109 108
f 98 108 107
f 98 107 103
f 100 104 101
f 101 104 102
