v -0.461772 -0.0058568 -0.110941
v -0.438743 -0.0058568 -0.0688398
v -0.461772 -0.000132118 -0.110941
v -0.459653 -0.0058568 -0.118923
v -0.456276 -0.0642486 -0.117613
v -0.455787 -0.073566 -0.117172
v -0.455787 -0.073566 -0.115564
v -0.455019 -0.0439951 -0.105831
v -0.455531 -0.0361779 -0.104997
v -0.437323 -0.0175431 -0.0688398
v -0.438743 -0.000132118 -0.0688398
v -0.459653 -0.000132118 -0.118923
v -0.337711 -0.0058568 -0.190534
v -0.456835 -0.0525623 -0.118006
v -0.333706 -0.0377177 -0.190534
v -0.331774 -0.0525623 -0.190534
v -0.33033 -0.0632616 -0.190534
v -0.328724 -0.0748294 -0.190534
v -0.328561 -0.0759349 -0.190534
v -0.445659 -0.12264 -0.118185
v -0.444588 -0.130852 -0.117506
v -0.453692 -0.0642486 -0.108344
v -0.45446 -0.0525623 -0.106879
v -0.444588 -0.130852 -0.114503
v -0.445519 -0.122246 -0.110751
v -0.447684 -0.110954 -0.110941
v -0.444145 -0.11814 -0.104782
v -0.453343 -0.0768429 -0.111382
v -0.426519 -0.0992679 -0.0688398
v -0.307674 -0.000132118 -0.0688398
v -0.337711 -0.000132118 -0.190534
v -0.326395 -0.0868315 -0.190534
v -0.325557 -0.0900294 -0.190534
v -0.323135 -0.097057 -0.190534
v -0.32225 -0.0992679 -0.190534
v -0.318734 -0.107835 -0.190534
v -0.317826 -0.110046 -0.190534
v -0.421 -0.188573 -0.117351
v -0.43213 -0.16374 -0.116874
v -0.43213 -0.16374 -0.116481
v -0.442771 -0.125917 -0.106724
v -0.421978 -0.118495 -0.0688398
v -0.424377 -0.110954 -0.0688398
v -0.299711 -0.000132118 -0.110941
v -0.223896 -0.210248 -0.0688398
v -0.284855 -0.000132118 -0.190534
v -0.307744 -0.134366 -0.190534
v -0.409824 -0.213525 -0.11766
v -0.297778 -0.158291 -0.190534
v -0.409824 -0.213525 -0.11386
v -0.421 -0.188573 -0.115004
v -0.419161 -0.183954 -0.107213
v -0.431781 -0.151185 -0.105604
v -0.411826 -0.143999 -0.0688398
v -0.415761 -0.134287 -0.0688398
v -0.293028 -0.000132118 -0.146431
v -0.223896 -0.376974 -0.0688398
v -0.223896 -0.173294 -0.190534
v -0.286602 -0.000132118 -0.180992
v -0.287696 -0.000132118 -0.175059
v -0.289862 -0.000132118 -0.163348
v -0.398507 -0.235831 -0.117744
v -0.293936 -0.166464 -0.190534
v -0.398507 -0.235831 -0.113324
v -0.401092 -0.228567 -0.110036
v -0.406867 -0.216881 -0.110358
v -0.408147 -0.208866 -0.106081
v -0.391662 -0.192679 -0.0688398
v -0.401395 -0.169188 -0.0688398
v -0.224851 -0.376461 -0.0688398
v -0.233117 -0.396754 -0.105533
v -0.223896 -0.403426 -0.110167
v -0.223896 -0.251347 -0.190534
v -0.29361 -0.167056 -0.190534
v -0.2907 -0.17211 -0.190534
v -0.285647 -0.179137 -0.190534
v -0.374408 -0.269548 -0.117339
v -0.396738 -0.233068 -0.105533
v -0.374408 -0.269548 -0.115051
v -0.383535 -0.254545 -0.110941
v -0.381277 -0.216012 -0.0688398
v -0.38789 -0.201523 -0.0688398
v -0.284366 -0.330822 -0.0688398
v -0.254562 -0.383528 -0.110941
v -0.235841 -0.398491 -0.113324
v -0.228623 -0.401097 -0.110036
v -0.27957 -0.361419 -0.105938
v -0.266717 -0.372197 -0.107272
v -0.235841 -0.398491 -0.117744
v -0.223896 -0.402953 -0.115719
v -0.223896 -0.401847 -0.118876
v -0.227715 -0.400821 -0.118614
v -0.269581 -0.374408 -0.117339
v -0.315987 -0.339152 -0.117184
v -0.229182 -0.247281 -0.190534
v -0.284343 -0.180874 -0.190534
v -0.339155 -0.315937 -0.117184
v -0.259545 -0.213288 -0.190534
v -0.37648 -0.224816 -0.0688398
v -0.372219 -0.266666 -0.107272
v -0.361438 -0.279536 -0.105938
v -0.339155 -0.315937 -0.115516
v -0.297546 -0.320399 -0.0688398
v -0.325906 -0.325887 -0.106343
v -0.313076 -0.336902 -0.107737
v -0.269581 -0.374408 -0.115051
v -0.315987 -0.339152 -0.115516
v -0.328211 -0.328176 -0.117601
v -0.237704 -0.23974 -0.190534
v -0.248718 -0.227343 -0.190534
v -0.247297 -0.229159 -0.190534
v -0.330842 -0.284313 -0.0688398
v -0.336943 -0.313016 -0.107737
v -0.328211 -0.328176 -0.114122
v -0.332565 -0.320912 -0.110929
v -0.30977 -0.309739 -0.0688398
v -0.320411 -0.2975 -0.0688398
v -0.239777 -0.237687 -0.190534
v -0.238775 -0.238753 -0.190534
f 1 2 11
f 1 11 3
f 1 3 12
f 1 12 4
f 1 4 5
f 1 5 6
f 1 6 7
f 1 7 8
f 1 8 9
f 1 9 2
f 2 10 29
f 2 29 43
f 2 43 42
f 2 42 55
f 2 55 54
f 2 54 69
f 2 69 68
f 2 68 82
f 2 82 81
f 2 81 99
f 2 99 112
f 2 112 117
f 2 117 116
f 2 116 103
f 2 103 83
f 2 83 70
f 2 70 57
f 2 57 45
f 2 45 30
f 2 30 11
f 2 9 10
f 3 11 30
f 3 30 44
f 3 44 56
f 3 56 61
f 3 61 60
f 3 60 59
f 3 59 46
f 3 46 31
f 3 31 12
f 4 12 31
f 4 31 13
f 4 13 14
f 4 14 5
f 5 14 13
f 5 13 15
f 5 15 16
f 5 16 6
f 6 16 17
f 6 17 18
f 6 18 19
f 6 19 20
f 6 20 21
f 6 21 24
f 6 24 7
f 7 22 23
f 7 23 8
f 7 24 25
f 7 25 26
f 7 26 27
f 7 27 28
f 7 28 22
f 8 23 29
f 8 29 10
f 8 10 9
f 13 31 46
f 13 46 58
f 13 58 73
f 13 73 95
f 13 95 109
f 13 109 119
f 13 119 118
f 13 118 111
f 13 111 110
f 13 110 98
f 13 98 96
f 13 96 76
f 13 76 75
f 13 75 74
f 13 74 63
f 13 63 49
f 13 49 47
f 13 47 37
f 13 37 36
f 13 36 35
f 13 35 34
f 13 34 33
f 13 33 32
f 13 32 19
f 13 19 18
f 13 18 17
f 13 17 16
f 13 16 15
f 19 32 20
f 20 32 33
f 20 33 21
f 21 33 34
f 21 34 35
f 21 35 36
f 21 36 37
f 21 37 38
f 21 38 39
f 21 39 40
f 21 40 24
f 22 28 27
f 22 27 29
f 22 29 23
f 24 40 41
f 24 41 25
f 25 27 26
f 25 41 27
f 27 41 42
f 27 42 43
f 27 43 29
f 30 45 44
f 37 47 38
f 38 48 39
f 38 47 49
f 38 49 48
f 39 48 50
f 39 50 40
f 40 50 51
f 40 51 52
f 40 52 41
f 41 53 54
f 41 54 55
f 41 55 42
f 41 52 53
f 44 45 56
f 45 57 72
f 45 72 90
f 45 90 91
f 45 91 73
f 45 73 58
f 45 58 46
f 45 46 59
f 45 59 60
f 45 60 61
f 45 61 56
f 48 62 64
f 48 64 50
f 48 49 63
f 48 63 62
f 50 64 65
f 50 65 66
f 50 66 51
f 51 66 52
f 52 66 67
f 52 67 53
f 53 67 68
f 53 68 69
f 53 69 54
f 57 70 71
f 57 71 72
f 62 63 74
f 62 74 75
f 62 75 76
f 62 76 77
f 62 77 79
f 62 79 64
f 64 78 65
f 64 79 80
f 64 80 78
f 65 78 66
f 66 78 67
f 67 78 81
f 67 81 82
f 67 82 68
f 70 83 71
f 71 84 85
f 71 85 86
f 71 86 72
f 71 83 87
f 71 87 88
f 71 88 84
f 72 86 85
f 72 85 89
f 72 89 90
f 73 91 92
f 73 92 89
f 73 89 93
f 73 93 94
f 73 94 95
f 76 96 77
f 77 97 102
f 77 102 79
f 77 96 98
f 77 98 97
f 78 99 81
f 78 80 100
f 78 100 101
f 78 101 99
f 79 102 100
f 79 100 80
f 83 103 104
f 83 104 105
f 83 105 87
f 84 88 106
f 84 106 85
f 85 106 93
f 85 93 89
f 87 105 88
f 88 105 107
f 88 107 106
f 89 92 90
f 90 92 91
f 93 106 107
f 93 107 94
f 94 107 114
f 94 114 108
f 94 108 95
f 95 108 109
f 97 108 114
f 97 114 102
f 97 98 110
f 97 110 111
f 97 111 108
f 99 101 112
f 100 102 113
f 100 113 101
f 101 113 112
f 102 114 115
f 102 115 113
f 103 116 104
f 104 115 114
f 104 114 107
f 104 107 105
f 104 116 117
f 104 117 112
f 104 112 113
f 104 113 115
f 108 111 118
f 108 118 119
f 108 119 109
