v -0.390047 0.195751 0.228521
v -0.387798 0.201943 0.228521
v -0.3092 0.195751 0.228521
v -0.472827 0.195751 0.288363
v -0.38097 0.216046 0.228521
v -0.470551 0.204365 0.289036
v -0.468275 0.216046 0.290736
v -0.456075 0.246917 0.291125
v -0.299223 0.203108 0.228521
v -0.304754 0.195751 0.228556
v -0.467111 0.221962 0.291904
v -0.492119 0.195751 0.348312
v -0.376313 0.224752 0.228521
v -0.446072 0.262736 0.289992
v -0.44414 0.269143 0.291515
v -0.503208 0.282847 0.50794
v -0.500349 0.288672 0.50794
v -0.299011 0.203354 0.228521
v -0.292845 0.211386 0.228521
v -0.269133 0.242288 0.228521
v -0.269133 0.330396 0.577768
v -0.380018 0.195751 0.57791
v -0.491166 0.200319 0.349268
v -0.53949 0.195751 0.508223
v -0.538114 0.201054 0.510595
v -0.52557 0.233826 0.513393
v -0.514508 0.258751 0.51141
v -0.347255 0.263349 0.228521
v -0.433343 0.281958 0.290736
v -0.408837 0.315496 0.291763
v -0.398066 0.328342 0.290948
v -0.493998 0.298175 0.508258
v -0.490928 0.304276 0.512366
v -0.503446 0.283399 0.515517
v -0.490928 0.304276 0.514384
v -0.269133 0.342689 0.228521
v -0.269133 0.331745 0.580849
v -0.381976 0.195751 0.583469
v -0.53949 0.195751 0.509569
v -0.538114 0.201054 0.515092
v -0.52557 0.233826 0.513924
v -0.514508 0.258751 0.514774
v -0.311264 0.31007 0.228521
v -0.387242 0.341156 0.290346
v -0.455652 0.35066 0.513074
v -0.412939 0.403482 0.507727
v -0.409525 0.409521 0.511516
v -0.500244 0.274416 0.523485
v -0.492278 0.283368 0.527415
v -0.496962 0.287261 0.520227
v -0.493389 0.297777 0.516757
v -0.455652 0.35066 0.514066
v -0.487356 0.297777 0.522599
v -0.476108 0.311879 0.52306
v -0.269266 0.342597 0.228521
v -0.269133 0.444102 0.291479
v -0.269133 0.335055 0.586195
v -0.383299 0.195751 0.585771
v -0.539172 0.195751 0.516332
v -0.533985 0.195751 0.522245
v -0.510935 0.251056 0.522422
v -0.310073 0.311266 0.228521
v -0.376365 0.354001 0.289992
v -0.365727 0.365712 0.289673
v -0.409525 0.409521 0.514738
v -0.350642 0.455629 0.513074
v -0.403518 0.412924 0.507727
v -0.315498 0.408816 0.291763
v -0.328333 0.398025 0.290948
v -0.341142 0.387203 0.290346
v -0.35403 0.37635 0.289992
v -0.501673 0.26758 0.525007
v -0.494421 0.274416 0.529646
v -0.467269 0.268898 0.560665
v -0.48987 0.291155 0.524936
v -0.440805 0.358201 0.522812
v -0.412224 0.402838 0.517288
v -0.479099 0.304092 0.525786
v -0.419264 0.383922 0.524476
v -0.443796 0.350445 0.525538
v -0.281968 0.433341 0.290736
v -0.304277 0.490915 0.512366
v -0.298164 0.493981 0.508258
v -0.28869 0.500327 0.50794
v -0.282842 0.503208 0.50794
v -0.274426 0.506734 0.50794
v -0.269133 0.50891 0.507833
v -0.269133 0.337631 0.587258
v -0.388671 0.195751 0.588143
v -0.532133 0.195751 0.524228
v -0.524035 0.216046 0.523945
v -0.402856 0.412219 0.517288
v -0.350642 0.455629 0.514066
v -0.408493 0.396768 0.525291
v -0.39624 0.396216 0.536586
v -0.396796 0.408509 0.525291
v -0.515778 0.227726 0.527557
v -0.490214 0.26807 0.536905
v -0.478728 0.268561 0.548803
v -0.468566 0.262736 0.562046
v -0.454064 0.251056 0.582442
v -0.445913 0.260191 0.585558
v -0.455308 0.268469 0.572102
v -0.47325 0.286556 0.543279
v -0.477802 0.290695 0.536268
v -0.458933 0.309457 0.54034
v -0.390974 0.344191 0.577803
v -0.434719 0.342137 0.539561
v -0.399442 0.388429 0.539313
v -0.304277 0.490915 0.514384
v -0.283397 0.503423 0.515517
v -0.269133 0.508144 0.51318
v -0.269133 0.344222 0.588957
v -0.391185 0.195751 0.588957
v -0.527131 0.195751 0.52954
v -0.498179 0.204365 0.556345
v -0.510247 0.227726 0.533399
v -0.383934 0.41927 0.524476
v -0.358211 0.440822 0.522812
v -0.354427 0.44821 0.518456
v -0.373957 0.373928 0.572386
v -0.367844 0.37632 0.574581
v -0.367844 0.388613 0.563462
v -0.304092 0.479112 0.525786
v -0.481666 0.227726 0.563569
v -0.459621 0.251056 0.576599
v -0.455308 0.245078 0.583752
v -0.456922 0.237291 0.585204
v -0.448215 0.251056 0.586727
v -0.438768 0.263533 0.587399
v -0.43493 0.274416 0.585664
v -0.410927 0.306545 0.585452
v -0.421698 0.293669 0.584885
v -0.432469 0.280823 0.584177
v -0.44324 0.267978 0.583398
v -0.44721 0.274416 0.575325
v -0.397193 0.327177 0.583965
v -0.37266 0.360654 0.582902
v -0.382188 0.367797 0.569305
v -0.388645 0.367797 0.563462
v -0.376339 0.367797 0.574581
v -0.311873 0.476108 0.52306
v -0.297767 0.487359 0.522599
v -0.297767 0.493398 0.516757
v -0.287261 0.496954 0.520227
v -0.283371 0.492264 0.527415
v -0.274426 0.500265 0.523485
v -0.274426 0.505324 0.517677
v -0.269133 0.506611 0.518704
v -0.269133 0.349771 0.590126
v -0.391185 0.204365 0.59002
v -0.399786 0.195751 0.590197
v -0.47722 0.195751 0.58223
v -0.479416 0.211846 0.572881
v -0.36488 0.364854 0.585735
v -0.360672 0.372641 0.582902
v -0.345244 0.4151 0.555176
v -0.361202 0.38472 0.571607
v -0.301472 0.418718 0.582336
v -0.286547 0.473257 0.543279
v -0.290701 0.477794 0.536268
v -0.291151 0.489873 0.524936
v -0.274426 0.44076 0.581167
v -0.461871 0.240939 0.578653
v -0.467931 0.212336 0.584673
v -0.469598 0.204365 0.585877
v -0.458907 0.227726 0.586443
v -0.461236 0.204365 0.589099
v -0.449539 0.227726 0.589666
v -0.437868 0.251056 0.589949
v -0.426197 0.274416 0.588887
v -0.414685 0.297654 0.586727
v -0.375651 0.352867 0.585275
v -0.386422 0.340053 0.584708
v -0.379541 0.344161 0.586514
v -0.269133 0.467156 0.560594
v -0.269133 0.467432 0.560311
v -0.274426 0.49441 0.529646
v -0.269133 0.501338 0.524653
v -0.269133 0.503913 0.52182
v -0.269133 0.489965 0.536657
v -0.269133 0.495575 0.530744
v -0.269133 0.356117 0.590268
v -0.402856 0.195751 0.590268
v -0.476823 0.195751 0.582584
v -0.352892 0.375614 0.585275
v -0.3684 0.356515 0.587116
v -0.356544 0.368379 0.587116
v -0.34003 0.386406 0.584708
v -0.327169 0.397166 0.583965
v -0.28083 0.432452 0.584177
v -0.269133 0.442784 0.582973
v -0.274426 0.447198 0.575325
v -0.269133 0.455046 0.571855
v -0.282921 0.480645 0.538959
v -0.472086 0.195751 0.586231
v -0.469466 0.195751 0.587258
v -0.461236 0.195751 0.589807
v -0.449539 0.216046 0.590268
v -0.426197 0.262736 0.590197
v -0.391185 0.309457 0.590161
v -0.367844 0.344498 0.589737
v -0.414527 0.286096 0.589453
v -0.437868 0.239406 0.590268
v -0.379515 0.332818 0.589276
v -0.391185 0.321137 0.588639
v -0.403597 0.310039 0.587293
v -0.269133 0.414518 0.590268
v -0.449539 0.195751 0.590268
v -0.306527 0.410931 0.585452
v -0.344159 0.379508 0.586514
v -0.356147 0.356117 0.590055
v -0.344476 0.367797 0.589737
v -0.332806 0.379477 0.589276
v -0.321135 0.391158 0.588639
v -0.310047 0.403574 0.587293
v -0.297661 0.414702 0.586727
v -0.293692 0.421692 0.584885
v -0.269133 0.441711 0.583823
v -0.274426 0.434905 0.585664
v -0.458139 0.195751 0.590126
v -0.414527 0.274416 0.590268
v -0.379515 0.321137 0.590268
v -0.274426 0.414518 0.590268
v -0.269133 0.419791 0.590232
v -0.367844 0.332818 0.590268
v -0.321135 0.379477 0.590268
v -0.309464 0.391158 0.590161
v -0.297767 0.402838 0.589843
v -0.286097 0.414518 0.589453
v -0.274426 0.426198 0.588887
v -0.269133 0.432268 0.588178
v -0.269133 0.436775 0.586514
v -0.269133 0.426198 0.589489
f 1 2 5
f 1 5 13
f 1 13 28
f 1 28 43
f 1 43 62
f 1 62 55
f 1 55 36
f 1 36 20
f 1 20 19
f 1 19 18
f 1 18 9
f 1 9 3
f 1 3 10
f 1 10 22
f 1 22 38
f 1 38 58
f 1 58 89
f 1 89 114
f 1 114 152
f 1 152 184
f 1 184 209
f 1 209 221
f 1 221 198
f 1 198 197
f 1 197 196
f 1 196 185
f 1 185 153
f 1 153 115
f 1 115 90
f 1 90 60
f 1 60 59
f 1 59 39
f 1 39 24
f 1 24 12
f 1 12 4
f 1 4 2
f 2 4 6
f 2 6 7
f 2 7 8
f 2 8 5
f 3 9 10
f 4 11 7
f 4 7 6
f 4 12 11
f 5 8 14
f 5 14 13
f 7 11 8
f 8 15 14
f 8 11 16
f 8 16 17
f 8 17 15
f 9 18 10
f 10 18 19
f 10 19 20
f 10 20 21
f 10 21 22
f 11 12 23
f 11 23 24
f 11 24 25
f 11 25 26
f 11 26 27
f 11 27 16
f 12 24 23
f 13 14 15
f 13 15 29
f 13 29 28
f 15 30 31
f 15 31 29
f 15 17 32
f 15 32 33
f 15 33 30
f 16 27 34
f 16 34 17
f 17 34 35
f 17 35 33
f 17 33 32
f 20 36 56
f 20 56 87
f 20 87 112
f 20 112 149
f 20 149 180
f 20 180 179
f 20 179 182
f 20 182 181
f 20 181 177
f 20 177 176
f 20 176 194
f 20 194 192
f 20 192 219
f 20 219 233
f 20 233 232
f 20 232 234
f 20 234 225
f 20 225 208
f 20 208 183
f 20 183 150
f 20 150 113
f 20 113 88
f 20 88 57
f 20 57 37
f 20 37 21
f 21 37 38
f 21 38 22
f 24 39 40
f 24 40 25
f 25 40 41
f 25 41 26
f 26 41 42
f 26 42 27
f 27 42 34
f 28 29 31
f 28 31 44
f 28 44 43
f 30 33 45
f 30 45 46
f 30 46 47
f 30 47 31
f 31 47 44
f 33 35 52
f 33 52 45
f 34 48 49
f 34 49 50
f 34 50 51
f 34 51 35
f 34 42 48
f 35 51 53
f 35 53 54
f 35 54 52
f 36 55 56
f 37 57 38
f 38 57 58
f 39 59 40
f 40 42 41
f 40 59 60
f 40 60 61
f 40 61 42
f 42 61 48
f 43 44 63
f 43 63 64
f 43 64 62
f 44 47 63
f 45 52 65
f 45 65 47
f 45 47 46
f 47 65 93
f 47 93 66
f 47 66 67
f 47 67 68
f 47 68 69
f 47 69 70
f 47 70 71
f 47 71 64
f 47 64 63
f 48 61 72
f 48 72 73
f 48 73 49
f 49 73 74
f 49 74 75
f 49 75 50
f 50 75 51
f 51 75 53
f 52 54 76
f 52 76 77
f 52 77 65
f 53 75 78
f 53 78 54
f 54 79 76
f 54 78 80
f 54 80 79
f 55 62 81
f 55 81 56
f 56 81 69
f 56 69 68
f 56 68 82
f 56 82 83
f 56 83 84
f 56 84 85
f 56 85 86
f 56 86 87
f 57 88 58
f 58 88 89
f 60 90 91
f 60 91 61
f 61 91 72
f 62 64 71
f 62 71 70
f 62 70 81
f 65 92 93
f 65 77 94
f 65 94 95
f 65 95 96
f 65 96 92
f 66 93 110
f 66 110 82
f 66 82 68
f 66 68 67
f 69 81 70
f 72 97 98
f 72 98 73
f 72 91 97
f 73 98 99
f 73 99 74
f 74 99 100
f 74 100 101
f 74 101 102
f 74 102 103
f 74 103 75
f 75 103 104
f 75 104 105
f 75 105 78
f 76 79 77
f 77 79 94
f 78 105 104
f 78 104 106
f 78 106 107
f 78 107 108
f 78 108 80
f 79 80 108
f 79 108 107
f 79 107 109
f 79 109 94
f 82 110 84
f 82 84 83
f 84 110 111
f 84 111 85
f 85 111 86
f 86 111 87
f 87 111 112
f 88 113 114
f 88 114 89
f 90 115 91
f 91 115 116
f 91 116 117
f 91 117 97
f 92 118 119
f 92 119 120
f 92 120 110
f 92 110 93
f 92 96 118
f 94 109 121
f 94 121 95
f 95 121 96
f 96 121 122
f 96 122 123
f 96 123 124
f 96 124 118
f 97 117 98
f 98 117 125
f 98 125 99
f 99 125 126
f 99 126 101
f 99 101 100
f 101 126 127
f 101 127 102
f 102 127 128
f 102 128 129
f 102 129 130
f 102 130 131
f 102 131 132
f 102 132 133
f 102 133 134
f 102 134 135
f 102 135 103
f 103 135 104
f 104 135 136
f 104 136 106
f 106 136 107
f 107 136 135
f 107 135 137
f 107 137 138
f 107 138 139
f 107 139 140
f 107 140 109
f 109 140 139
f 109 139 138
f 109 138 141
f 109 141 121
f 110 120 119
f 110 119 142
f 110 142 143
f 110 143 144
f 110 144 111
f 111 144 145
f 111 145 146
f 111 146 147
f 111 147 148
f 111 148 149
f 111 149 112
f 113 150 114
f 114 150 151
f 114 151 152
f 115 153 116
f 116 125 117
f 116 153 154
f 116 154 125
f 118 124 119
f 119 124 142
f 121 141 138
f 121 138 155
f 121 155 156
f 121 156 122
f 122 156 123
f 123 157 124
f 123 156 158
f 123 158 159
f 123 159 157
f 124 160 161
f 124 161 162
f 124 162 143
f 124 143 142
f 124 157 159
f 124 159 163
f 124 163 160
f 125 154 164
f 125 164 126
f 126 164 127
f 127 165 128
f 127 164 153
f 127 153 165
f 128 165 166
f 128 166 167
f 128 167 129
f 129 167 168
f 129 168 169
f 129 169 170
f 129 170 130
f 130 170 171
f 130 171 172
f 130 172 131
f 131 172 132
f 132 173 174
f 132 174 133
f 132 172 175
f 132 175 173
f 133 174 134
f 134 174 137
f 134 137 135
f 137 174 138
f 138 174 173
f 138 173 155
f 143 162 144
f 144 162 145
f 145 162 146
f 146 162 176
f 146 176 177
f 146 177 178
f 146 178 147
f 147 179 180
f 147 180 148
f 147 178 181
f 147 181 182
f 147 182 179
f 148 180 149
f 150 152 151
f 150 183 152
f 152 183 184
f 153 185 165
f 153 164 154
f 155 186 156
f 155 173 187
f 155 187 188
f 155 188 186
f 156 186 189
f 156 189 190
f 156 190 159
f 156 159 158
f 159 190 191
f 159 191 192
f 159 192 163
f 160 162 161
f 160 163 193
f 160 193 194
f 160 194 162
f 162 194 195
f 162 195 176
f 163 192 194
f 163 194 193
f 165 185 166
f 166 196 197
f 166 197 167
f 166 185 196
f 167 197 168
f 168 197 198
f 168 198 169
f 169 198 199
f 169 199 170
f 170 200 201
f 170 201 202
f 170 202 203
f 170 203 171
f 170 199 204
f 170 204 200
f 171 203 205
f 171 205 206
f 171 206 207
f 171 207 172
f 172 207 187
f 172 187 175
f 173 175 187
f 176 195 194
f 177 181 178
f 183 208 224
f 183 224 227
f 183 227 226
f 183 226 223
f 183 223 222
f 183 222 204
f 183 204 199
f 183 199 209
f 183 209 184
f 186 210 189
f 186 188 211
f 186 211 210
f 187 207 206
f 187 206 205
f 187 205 202
f 187 202 212
f 187 212 188
f 188 212 213
f 188 213 214
f 188 214 215
f 188 215 216
f 188 216 217
f 188 217 211
f 189 191 190
f 189 210 218
f 189 218 191
f 191 219 192
f 191 218 220
f 191 220 219
f 198 221 199
f 199 221 209
f 200 204 222
f 200 222 223
f 200 223 201
f 201 212 202
f 201 223 212
f 202 205 203
f 208 225 224
f 210 220 218
f 210 211 217
f 210 217 220
f 212 223 226
f 212 226 227
f 212 227 228
f 212 228 213
f 213 228 229
f 213 229 230
f 213 230 214
f 214 230 231
f 214 231 215
f 215 231 216
f 216 231 217
f 217 231 232
f 217 232 233
f 217 233 220
f 219 220 233
f 224 225 227
f 225 234 230
f 225 230 229
f 225 229 228
f 225 228 227
f 230 234 231
f 231 234 232
