v -0.410512 -0.796309 -0.0155911
v -0.400627 -0.812721 -0.0902515
v -0.409547 -0.818246 0
v -0.410512 -0.796309 0.0155911
v -0.410512 0.796309 -0.0155911
v -0.400627 0.812721 -0.0902515
v -0.391224 -0.796309 -0.124166
v -0.388572 -0.824096 -0.114924
v -0.393554 -0.826858 -0.0790002
v -0.400627 -0.812721 0.0902515
v -0.393554 -0.826858 0.0790002
v -0.410512 0.796309 0.0155911
v -0.409547 0.818246 0
v -0.391224 0.796309 -0.124166
v -0.393554 0.826858 -0.0790002
v -0.388572 0.824095 -0.114924
v -0.361167 -0.796309 -0.196737
v -0.360122 -0.82247 -0.185325
v -0.374749 -0.82637 -0.142329
v -0.369444 -0.830108 -0.123041
v -0.391224 -0.796309 0.124166
v -0.400627 0.812721 0.0902515
v -0.388572 -0.824096 0.114924
v -0.369444 -0.830108 0.123041
v -0.374749 -0.82637 0.142329
v -0.393554 0.826858 0.0790002
v -0.360122 0.82247 -0.185325
v -0.361167 0.796309 -0.196737
v -0.32026 0.829783 -0.221731
v -0.374749 0.82637 -0.142329
v -0.333762 -0.812721 -0.23684
v -0.349996 -0.817921 -0.209113
v -0.331994 -0.823933 -0.234509
v -0.32026 -0.830108 -0.221731
v -0.360122 -0.82247 0.185325
v -0.361167 -0.796309 0.196737
v -0.391224 0.796309 0.124166
v -0.388572 0.824095 0.114924
v -0.32026 -0.830108 0.221731
v -0.331994 -0.823933 0.234509
v -0.32026 0.829783 0.221731
v -0.374749 0.82637 0.142329
v -0.349996 0.817921 -0.209113
v -0.331994 0.823933 -0.234509
v -0.333762 0.812721 -0.23684
v -0.123041 0.829945 -0.369444
v -0.221731 0.829783 -0.32026
v -0.28739 0.829458 -0.270915
v -0.303785 0.82832 -0.25452
v -0.309572 -0.817271 -0.267781
v -0.303303 -0.82442 -0.26979
v -0.303785 -0.82832 -0.25452
v -0.28739 -0.829295 -0.270915
v -0.221731 -0.830108 -0.32026
v -0.349996 -0.817921 0.209113
v -0.333762 -0.812721 0.23684
v -0.361167 0.796309 0.196737
v -0.360122 0.82247 0.185325
v -0.221731 -0.830108 0.32026
v -0.28739 -0.829295 0.270915
v -0.303785 -0.82832 0.25452
v -0.303303 -0.82442 0.26979
v -0.309572 -0.817271 0.267781
v -0.221731 0.829783 0.32026
v 0.123041 0.829945 0.369444
v -0.331994 0.823933 0.234509
v -0.303785 0.82832 0.25452
v -0.28739 0.829458 0.270915
v -0.303303 0.82442 -0.26979
v -0.309572 0.817271 -0.267781
v 0.123041 0.829945 -0.369444
v -0.0790002 0.826858 -0.393554
v -0.142329 0.82637 -0.374749
v -0.234509 0.823933 -0.331994
v -0.23684 -0.812721 -0.333762
v -0.234509 -0.823933 -0.331994
v -0.123041 -0.830108 -0.369444
v -0.142329 -0.82637 -0.374749
v -0.333762 0.812721 0.23684
v -0.349996 0.817921 0.209113
v -0.123041 -0.830108 0.369444
v -0.142329 -0.82637 0.374749
v -0.234509 -0.823933 0.331994
v -0.23684 -0.812721 0.333762
v -0.309572 0.817271 0.267781
v -0.0790002 0.826858 0.393554
v -0.234509 0.823933 0.331994
v -0.142329 0.82637 0.374749
v 0.221731 0.829783 0.32026
v 0.369444 0.829945 0.123041
v 0.0790002 0.826858 0.393554
v 0.142329 0.82637 0.374749
v -0.303303 0.82442 0.26979
v -0.23684 0.812721 -0.333762
v 0.369444 0.829945 -0.123041
v 0.221731 0.829783 -0.32026
v 0.142329 0.82637 -0.374749
v 0.0790002 0.826858 -0.393554
v 0 0.818246 -0.409547
v -0.0902515 0.812721 -0.400627
v -0.114924 0.824095 -0.388572
v -0.185325 0.82247 -0.360122
v -0.209113 0.817921 -0.349996
v -0.196737 -0.796309 -0.361167
v -0.209113 -0.817921 -0.349996
v -0.185325 -0.82247 -0.360122
v -0.0790002 -0.826858 -0.393554
v 0.123041 -0.830108 -0.369444
v -0.114924 -0.824096 -0.388572
v 0.123041 -0.830108 0.369444
v -0.0676685 -0.826533 0.395483
v -0.0902515 -0.82702 0.391626
v -0.114924 -0.824096 0.388572
v -0.185325 -0.82247 0.360122
v -0.209113 -0.817921 0.349996
v -0.196737 -0.796309 0.361167
v -0.23684 0.812721 0.333762
v -0.114924 0.824095 0.388572
v -0.0902515 0.812721 0.400627
v 0 0.818246 0.409547
v -0.209113 0.817921 0.349996
v -0.185325 0.82247 0.360122
v 0.25452 0.82832 0.303785
v 0.270915 0.829458 0.28739
v 0.32026 0.829783 0.221731
v 0.234509 0.823933 0.331994
v 0.374749 0.82637 0.142329
v 0.391626 0.82702 0.0902515
v 0.395483 0.826533 0.0676685
v 0.0902515 0.812721 0.400627
v 0.114924 0.824095 0.388572
v 0.185325 0.82247 0.360122
v -0.196737 0.796309 -0.361167
v 0.395483 0.826533 -0.0676685
v 0.391626 0.82702 -0.0902515
v 0.374749 0.82637 -0.142329
v 0.32026 0.829783 -0.221731
v 0.28739 0.829458 -0.270915
v 0.234509 0.823933 -0.331994
v 0.185325 0.82247 -0.360122
v 0.114924 0.824095 -0.388572
v 0.0902515 0.812721 -0.400627
v 0.0155911 0.796309 -0.410512
v -0.0155911 0.796309 -0.410512
v -0.0902515 -0.812721 -0.400627
v -0.124166 0.796309 -0.391224
v -0.124166 -0.796309 -0.391224
v 0 -0.818246 -0.409547
v 0.0676685 -0.826533 -0.395483
v 0.0902515 -0.82702 -0.391626
v 0.142329 -0.82637 -0.374749
v 0.221731 -0.830108 -0.32026
v 0.221731 -0.830108 0.32026
v 0.142329 -0.82637 0.374749
v 0.0902515 -0.82702 0.391626
v 0.0676685 -0.826533 0.395483
v 0 -0.818246 0.409547
v -0.0902515 -0.812721 0.400627
v -0.124166 -0.796309 0.391224
v -0.196737 0.796309 0.361167
v -0.124166 0.796309 0.391224
v -0.0155911 0.796309 0.410512
v 0.0155911 0.796309 0.410512
v 0.26979 0.82442 0.303303
v 0.331994 0.823933 0.234509
v 0.209113 0.817921 0.349996
v 0.23684 0.812721 0.333762
v 0.267781 0.817271 0.309572
v 0.360122 0.82247 0.185325
v 0.388572 0.824095 0.114924
v 0.400627 0.812721 0.0902515
v 0.409547 0.818246 0
v 0.124166 0.796309 0.391224
v 0.0902515 -0.812721 0.400627
v 0.196737 0.796309 0.361167
v 0.400627 0.812721 -0.0902515
v 0.388572 0.824095 -0.114924
v 0.360122 0.82247 -0.185325
v 0.331994 0.823933 -0.234509
v 0.303785 0.82832 -0.25452
v 0.303303 0.82442 -0.26979
v 0.309572 0.817271 -0.267781
v 0.23684 0.812721 -0.333762
v 0.209113 0.817921 -0.349996
v 0.196737 0.796309 -0.361167
v 0.124166 0.796309 -0.391224
v 0.0902515 -0.812721 -0.400627
v 0.0155911 -0.796309 -0.410512
v -0.0155911 -0.796309 -0.410512
v 0.114924 -0.824096 -0.388572
v 0.185325 -0.82247 -0.360122
v 0.234509 -0.823933 -0.331994
v 0.28739 -0.829295 -0.270915
v 0.32026 -0.830108 -0.221731
v 0.32026 -0.830108 0.221731
v 0.270915 -0.829295 0.28739
v 0.25452 -0.82832 0.303785
v 0.234509 -0.823933 0.331994
v 0.114924 -0.824096 0.388572
v 0.185325 -0.82247 0.360122
v 0.0155911 -0.796309 0.410512
v -0.0155911 -0.796309 0.410512
v 0.333762 0.812721 0.23684
v 0.349996 0.817921 0.209113
v 0.23684 -0.812721 0.333762
v 0.267781 -0.817271 0.309572
v 0.361167 0.796309 0.196737
v 0.410512 0.796309 0.0155911
v 0.400627 -0.812721 0.0902515
v 0.410512 0.796309 -0.0155911
v 0.124166 -0.796309 0.391224
v 0.196737 -0.796309 0.361167
v 0.361167 0.796309 -0.196737
v 0.400627 -0.812721 -0.0902515
v 0.349996 0.817921 -0.209113
v 0.333762 0.812721 -0.23684
v 0.309572 -0.817271 -0.267781
v 0.23684 -0.812721 -0.333762
v 0.196737 -0.796309 -0.361167
v 0.124166 -0.796309 -0.391224
v 0.209113 -0.817921 -0.349996
v 0.303303 -0.82442 -0.26979
v 0.303785 -0.82832 -0.25452
v 0.374749 -0.82637 -0.142329
v 0.369444 -0.830108 -0.123041
v 0.331994 -0.823933 -0.234509
v 0.369444 -0.830108 0.123041
v 0.374749 -0.82637 0.142329
v 0.331994 -0.823933 0.234509
v 0.26979 -0.82442 0.303303
v 0.209113 -0.817921 0.349996
v 0.333762 -0.812721 0.23684
v 0.361167 -0.796309 0.196737
v 0.410512 -0.796309 0.0155911
v 0.388572 -0.824096 0.114924
v 0.391626 -0.82702 0.0902515
v 0.395483 -0.826533 0.0676685
v 0.409547 -0.818246 0
v 0.410512 -0.796309 -0.0155911
v 0.361167 -0.796309 -0.196737
v 0.395483 -0.826533 -0.0676685
v 0.391626 -0.82702 -0.0902515
v 0.388572 -0.824096 -0.114924
v 0.333762 -0.812721 -0.23684
v 0.360122 -0.82247 -0.185325
v 0.349996 -0.817921 -0.209113
v 0.360122 -0.82247 0.185325
v 0.349996 -0.817921 0.209113
f 1 2 3
f 1 3 4
f 1 4 12
f 1 12 5
f 1 5 6
f 1 6 2
f 2 6 14
f 2 14 7
f 2 7 8
f 2 8 9
f 2 9 3
f 3 10 4
f 3 9 11
f 3 11 10
f 4 10 22
f 4 22 12
f 5 12 13
f 5 13 6
f 6 13 15
f 6 15 16
f 6 16 14
f 7 17 18
f 7 18 8
f 7 14 28
f 7 28 17
f 8 19 9
f 8 18 19
f 9 20 24
f 9 24 11
f 9 19 20
f 10 21 37
f 10 37 22
f 10 11 23
f 10 23 21
f 11 24 25
f 11 25 23
f 12 22 13
f 13 22 26
f 13 26 15
f 14 16 27
f 14 27 28
f 15 26 41
f 15 41 29
f 15 29 30
f 15 30 16
f 16 30 27
f 17 31 32
f 17 32 18
f 17 28 45
f 17 45 31
f 18 32 33
f 18 33 19
f 19 33 34
f 19 34 20
f 20 34 54
f 20 54 77
f 20 77 108
f 20 108 152
f 20 152 194
f 20 194 225
f 20 225 227
f 20 227 195
f 20 195 153
f 20 153 110
f 20 110 81
f 20 81 59
f 20 59 39
f 20 39 24
f 21 23 35
f 21 35 36
f 21 36 57
f 21 57 37
f 22 37 38
f 22 38 26
f 23 25 35
f 24 39 25
f 25 40 35
f 25 39 40
f 26 38 42
f 26 42 41
f 27 43 28
f 27 30 44
f 27 44 43
f 28 43 45
f 29 41 46
f 29 46 47
f 29 47 48
f 29 48 49
f 29 49 44
f 29 44 30
f 31 50 33
f 31 33 32
f 31 45 70
f 31 70 50
f 33 51 52
f 33 52 34
f 33 50 51
f 34 52 53
f 34 53 54
f 35 55 36
f 35 40 55
f 36 55 56
f 36 56 79
f 36 79 57
f 37 57 58
f 37 58 38
f 38 58 42
f 39 59 60
f 39 60 61
f 39 61 40
f 40 61 62
f 40 62 63
f 40 63 56
f 40 56 55
f 41 64 65
f 41 65 46
f 41 42 66
f 41 66 67
f 41 67 68
f 41 68 64
f 42 58 66
f 43 44 45
f 44 49 69
f 44 69 70
f 44 70 45
f 46 65 90
f 46 90 95
f 46 95 71
f 46 71 98
f 46 98 72
f 46 72 73
f 46 73 47
f 47 73 74
f 47 74 48
f 48 74 69
f 48 69 49
f 50 75 76
f 50 76 51
f 50 70 94
f 50 94 75
f 51 76 53
f 51 53 52
f 53 76 54
f 54 76 78
f 54 78 77
f 56 63 85
f 56 85 79
f 57 79 80
f 57 80 58
f 58 80 66
f 59 81 82
f 59 82 83
f 59 83 60
f 60 62 61
f 60 83 62
f 62 83 63
f 63 83 84
f 63 84 117
f 63 117 85
f 64 86 65
f 64 68 87
f 64 87 88
f 64 88 86
f 65 89 125
f 65 125 90
f 65 86 91
f 65 91 92
f 65 92 89
f 66 93 67
f 66 80 79
f 66 79 85
f 66 85 93
f 67 93 68
f 68 93 87
f 69 74 70
f 70 74 94
f 71 95 137
f 71 137 96
f 71 96 97
f 71 97 98
f 72 98 99
f 72 99 100
f 72 100 101
f 72 101 73
f 73 101 102
f 73 102 74
f 74 102 103
f 74 103 94
f 75 104 105
f 75 105 76
f 75 94 133
f 75 133 104
f 76 105 106
f 76 106 78
f 77 78 107
f 77 107 108
f 78 106 109
f 78 109 107
f 81 110 156
f 81 156 111
f 81 111 112
f 81 112 82
f 82 112 113
f 82 113 114
f 82 114 83
f 83 114 115
f 83 115 84
f 84 116 160
f 84 160 117
f 84 115 116
f 85 117 87
f 85 87 93
f 86 88 118
f 86 118 119
f 86 119 120
f 86 120 91
f 87 117 121
f 87 121 122
f 87 122 88
f 88 122 118
f 89 123 124
f 89 124 125
f 89 92 126
f 89 126 123
f 90 125 127
f 90 127 128
f 90 128 129
f 90 129 134
f 90 134 95
f 91 120 130
f 91 130 131
f 91 131 92
f 92 131 132
f 92 132 126
f 94 103 133
f 95 134 135
f 95 135 136
f 95 136 137
f 96 137 138
f 96 138 139
f 96 139 97
f 97 139 140
f 97 140 141
f 97 141 98
f 98 141 142
f 98 142 99
f 99 142 143
f 99 143 144
f 99 144 100
f 100 144 189
f 100 189 145
f 100 145 147
f 100 147 146
f 100 146 101
f 101 146 102
f 102 146 133
f 102 133 103
f 104 147 106
f 104 106 105
f 104 133 146
f 104 146 147
f 106 147 109
f 107 109 145
f 107 145 148
f 107 148 149
f 107 149 108
f 108 149 150
f 108 150 151
f 108 151 152
f 109 147 145
f 110 153 154
f 110 154 155
f 110 155 156
f 111 156 157
f 111 157 158
f 111 158 112
f 112 158 113
f 113 158 159
f 113 159 114
f 114 159 116
f 114 116 115
f 116 159 161
f 116 161 160
f 117 160 121
f 118 122 161
f 118 161 119
f 119 162 120
f 119 161 159
f 119 159 158
f 119 158 202
f 119 202 162
f 120 162 163
f 120 163 130
f 121 160 122
f 122 160 161
f 123 126 164
f 123 164 124
f 124 164 165
f 124 165 125
f 125 165 127
f 126 132 166
f 126 166 167
f 126 167 168
f 126 168 164
f 127 165 169
f 127 169 170
f 127 170 128
f 128 170 171
f 128 171 129
f 129 171 172
f 129 172 134
f 130 173 131
f 130 163 201
f 130 201 174
f 130 174 211
f 130 211 173
f 131 173 132
f 132 173 175
f 132 175 166
f 134 172 176
f 134 176 135
f 135 176 177
f 135 177 136
f 136 177 178
f 136 178 179
f 136 179 137
f 137 180 138
f 137 179 180
f 138 180 181
f 138 181 139
f 139 181 182
f 139 182 183
f 139 183 184
f 139 184 140
f 140 184 185
f 140 185 186
f 140 186 141
f 141 186 142
f 142 186 220
f 142 220 187
f 142 187 188
f 142 188 143
f 143 188 189
f 143 189 144
f 145 189 148
f 148 189 188
f 148 188 187
f 148 187 149
f 149 187 150
f 150 187 190
f 150 190 151
f 151 190 191
f 151 191 192
f 151 192 152
f 152 193 194
f 152 192 193
f 153 195 196
f 153 196 197
f 153 197 198
f 153 198 154
f 154 199 155
f 154 198 200
f 154 200 199
f 155 199 174
f 155 174 156
f 156 174 157
f 157 174 201
f 157 201 202
f 157 202 158
f 162 202 201
f 162 201 163
f 164 168 165
f 165 168 203
f 165 203 204
f 165 204 169
f 166 175 167
f 167 175 212
f 167 212 205
f 167 205 206
f 167 206 168
f 168 206 232
f 168 232 203
f 169 204 207
f 169 207 170
f 170 207 171
f 171 208 172
f 171 207 233
f 171 233 209
f 171 209 234
f 171 234 208
f 172 208 210
f 172 210 176
f 173 211 212
f 173 212 175
f 174 199 211
f 176 213 177
f 176 210 239
f 176 239 214
f 176 214 240
f 176 240 213
f 177 213 178
f 178 213 215
f 178 215 179
f 179 181 180
f 179 215 216
f 179 216 182
f 179 182 181
f 182 216 244
f 182 244 217
f 182 217 218
f 182 218 183
f 183 185 184
f 183 218 219
f 183 219 185
f 185 219 220
f 185 220 186
f 187 220 190
f 190 220 191
f 191 220 219
f 191 219 221
f 191 221 192
f 192 221 218
f 192 218 217
f 192 217 222
f 192 222 193
f 193 222 223
f 193 223 194
f 194 224 225
f 194 223 226
f 194 226 224
f 195 227 228
f 195 228 229
f 195 229 196
f 196 230 197
f 196 229 230
f 197 230 198
f 198 206 205
f 198 205 231
f 198 231 200
f 198 230 206
f 199 200 211
f 200 231 212
f 200 212 211
f 203 207 204
f 203 232 233
f 203 233 207
f 205 212 231
f 206 230 229
f 206 229 232
f 208 234 239
f 208 239 210
f 209 235 236
f 209 236 237
f 209 237 238
f 209 238 234
f 209 233 235
f 213 216 215
f 213 240 244
f 213 244 216
f 214 238 241
f 214 241 242
f 214 242 243
f 214 243 240
f 214 239 238
f 217 244 226
f 217 226 222
f 218 221 219
f 222 226 223
f 224 243 242
f 224 242 225
f 224 226 245
f 224 245 243
f 225 242 241
f 225 241 237
f 225 237 227
f 226 244 246
f 226 246 245
f 227 237 236
f 227 236 228
f 228 236 235
f 228 235 247
f 228 247 229
f 229 247 248
f 229 248 232
f 232 248 233
f 233 248 247
f 233 247 235
f 234 238 239
f 237 241 238
f 240 243 245
f 240 245 246
f 240 246 244
