v -0.332787 -0.00215129 -0.514166
v -0.184233 0.0320508 -0.507532
v -0.0585078 0.0229835 -0.506296
v 0.0365093 -0.0187355 -0.507195
v -0.256741 -0.0178429 -0.510793
v -0.737293 -0.0107488 -0.497694
v -0.768644 0.0466148 -0.479704
v -0.335681 0.0577023 -0.486001
v -0.260922 0.0700113 -0.476556
v -0.143718 0.0685079 -0.477456
v 0.0434226 0.0368898 -0.497076
v 0.778318 0.000573597 -0.463682
v 0.798897 -0.0508705 -0.441026
v -0.0144559 -0.0632264 -0.480716
v -0.166387 -0.0444341 -0.494434
v -0.650315 -0.066609 -0.464413
v -0.778291 -0.0713541 -0.421575
v -0.819609 -0.0119703 -0.462333
v -0.818002 0.0459101 -0.4322
v -0.781667 0.0792666 -0.404428
v -0.714785 0.0939246 -0.414491
v -0.708354 0.0694476 -0.461546
v -0.376839 0.0897903 -0.444287
v -0.175872 0.104401 -0.414548
v -0.0554531 0.0910118 -0.435911
v -0.0146166 0.0715147 -0.465987
v 0.721887 0.0724543 -0.398244
v 0.774781 0.0521586 -0.407014
v 0.822531 0.00639923 -0.41511
v 0.815457 -0.06675 -0.391217
v 0.764813 -0.0996836 -0.365525
v 0.698253 -0.0935291 -0.407408
v -0.0506299 -0.0892538 -0.443444
v -0.173782 -0.0791529 -0.45851
v 0.637963 -0.0996366 -0.404428
v 0.586033 -0.108563 -0.393185
v -0.644045 -0.083804 -0.43979
v -0.71382 -0.0859652 -0.419945
v -0.487612 -0.086435 -0.441813
v -0.755461 -0.0848376 0.0595959
v -0.675235 -0.109831 -0.365469
v -0.629414 -0.157423 -0.131546
v -0.644206 -0.159443 -0.0788693
v -0.692437 -0.138772 -0.100007
v -0.71575 -0.127026 -0.0145558
v -0.780381 -0.0329707 0.059877
v -0.773628 0.0433732 0.0597646
v -0.722181 0.118402 0.0601581
v -0.666553 0.159134 0.0601581
v -0.728129 0.107173 -0.353382
v -0.669286 0.114737 -0.359004
v -0.604655 0.106938 -0.394365
v -0.651923 0.0902601 -0.43102
v -0.290825 0.102804 -0.41882
v -0.0495045 0.113751 -0.388406
v -0.231822 0.107173 -0.408307
v 0.0593391 0.143161 -0.313074
v 0.0329723 0.115583 -0.380198
v 0.119951 0.112858 -0.380423
v 0.144871 0.0992804 -0.405721
v 0.0575706 0.0891325 -0.431076
v 0.140851 0.0901661 -0.422531
v 0.306448 0.102052 -0.385933
v 0.335387 0.118824 -0.350065
v 0.386031 0.12761 -0.32398
v 0.714009 0.101817 -0.333312
v 0.762723 0.0873473 -0.311893
v 0.813045 -0.0187825 -0.204517
v 0.793913 0.036467 -0.179106
v 0.809187 -0.0628976 -0.252808
v 0.792948 -0.0901934 -0.321338
v 0.6333 -0.169215 -0.10265
v 0.532335 -0.198343 -0.10383
v 0.57092 -0.17786 -0.179668
v 0.581853 -0.161416 -0.248479
v 0.614651 -0.144503 -0.297277
v 0.663847 -0.125711 -0.336461
v 0.579441 -0.134168 -0.341127
v -0.107704 -0.109972 -0.406002
v -0.144843 -0.0947506 -0.433662
v -0.173782 -0.0846497 -0.45019
v 0.526065 -0.11857 -0.379355
v 0.0350624 -0.0984621 -0.425623
v -0.650315 -0.10269 -0.4001
v -0.455618 -0.0968178 -0.426635
v -0.591793 -0.0931063 -0.426747
v -0.528127 -0.11514 -0.389587
v -0.692116 -0.139382 0.0430678
v -0.616392 -0.17194 0.046216
v -0.236002 -0.234895 0.0595959
v -0.160277 -0.237713 0.0601581
v -0.603691 -0.124067 -0.348042
v -0.559156 -0.141778 -0.298232
v -0.547098 -0.173725 -0.135537
v -0.580057 -0.176215 -0.0774076
v -0.614784 -0.172081 -0.0166358
v -0.669447 -0.15202 -0.0166358
v -0.594044 0.184974 0.0571223
v 0.405645 0.224437 0.0601581
v -0.517194 0.198598 0.0264272
v -0.461728 0.20884 0.0404255
v -0.38118 0.215464 0.0247969
v -0.33134 0.207195 -0.0466563
v -0.227963 0.216122 -0.0372679
v -0.145165 0.213491 -0.0724042
v -0.0877686 0.203672 -0.119909
v -0.071852 0.190423 -0.168369
v -0.0557746 0.173087 -0.226892
v -0.483914 0.108442 -0.397176
v -0.34163 0.109616 -0.400943
v 0.122041 0.141704 -0.314255
v -0.0232984 0.153402 -0.286258
v 0.0620723 0.164255 -0.256181
v 0.116896 0.16604 -0.249604
v 0.18426 0.149785 -0.290924
v 0.166093 0.124838 -0.351583
v 0.236833 0.116663 -0.363277
v 0.284583 0.139496 -0.308239
v 0.455646 0.143301 -0.273384
v 0.5833 0.140248 -0.251571
v 0.681211 0.119623 -0.287495
v 0.680889 0.135315 -0.189282
v 0.723494 0.115019 -0.221214
v 0.757418 0.0823673 -0.145038
v 0.731694 0.0833069 0.0597084
v 0.747932 0.000761521 0.0601581
v 0.723012 -0.0541591 0.0601581
v 0.770601 -0.0953144 -0.197152
v 0.696806 -0.139007 -0.137955
v 0.66224 -0.151175 -0.051997
v 0.580084 -0.189746 -0.0528965
v 0.51272 -0.210042 -0.0197278
v 0.459504 -0.220612 -0.0236631
v 0.441498 -0.215679 -0.090394
v 0.490212 -0.191343 -0.175789
v 0.530727 -0.171846 -0.234369
v 0.526386 -0.153477 -0.297277
v 0.448089 -0.143564 -0.331626
v -0.115904 -0.11716 -0.391836
v -0.44774 -0.120167 -0.383459
v -0.512211 -0.136986 -0.334999
v -0.41028 -0.145866 -0.325161
v -0.562372 -0.187773 0.0461036
v -0.296453 -0.227988 0.0281138
v -0.122978 -0.230102 -0.0474996
v -0.0475752 -0.234848 -0.0320958
v -0.373463 -0.222726 0.0438549
v -0.0226553 -0.240438 0.0323301
v 0.0469596 -0.241801 0.0419434
v 0.138922 -0.24166 0.0461036
v 0.332654 -0.235881 0.0461598
v 0.443266 -0.222867 0.0461036
v 0.674298 -0.110066 0.0601581
v -0.475233 -0.153853 -0.285358
v -0.452885 -0.169403 -0.228241
v -0.48713 -0.189511 -0.0959596
v -0.477966 -0.201961 -0.0183224
v -0.542275 -0.18937 -0.0250686
v -0.331501 0.222182 0.0460474
v 0.496161 0.209545 0.0601581
v 0.461916 0.167685 -0.184278
v 0.298731 0.231719 0.0445857
v 0.213521 0.23623 0.0428429
v 0.137314 0.238156 0.0448106
v -0.296613 0.218424 0.000791779
v -0.156258 0.226129 0.000960442
v -0.0951641 0.226552 -0.0156239
v -0.0557746 0.220303 -0.056382
v -0.0226553 0.207571 -0.110183
v 0.015448 0.194135 -0.159992
v 0.00837396 0.176846 -0.217335
v 0.0813651 0.184833 -0.191024
v 0.163038 0.184974 -0.185852
v 0.223167 0.166322 -0.242239
v 0.316577 0.156315 -0.259779
v 0.389729 0.152839 -0.257587
v 0.460791 0.15049 -0.249772
v 0.383619 0.171866 -0.193329
v 0.566097 0.190611 0.0601581
v 0.629924 0.162282 0.0601581
v 0.680246 0.132355 0.0601581
v 0.606773 -0.166678 0.0382893
v 0.555486 -0.191907 0.0464971
v 0.49809 -0.21131 0.0414375
v 0.388603 -0.231559 0.0315993
v 0.37124 -0.2317 -0.024675
v 0.365613 -0.221552 -0.0959596
v 0.421883 -0.197592 -0.17534
v 0.443105 -0.171752 -0.255956
v 0.361915 -0.170954 -0.26512
v 0.377831 -0.146993 -0.325498
v -0.0495045 -0.125805 -0.37334
v -0.140663 -0.126322 -0.372834
v -0.223622 -0.131396 -0.362152
v -0.285681 -0.135718 -0.352708
v -0.348222 -0.135483 -0.352652
v -0.390666 -0.167994 -0.25843
v -0.289218 -0.156953 -0.301662
v -0.33134 -0.169027 -0.264389
v -0.505297 -0.200739 0.0319366
v -0.253526 -0.214646 -0.0923054
v -0.352562 -0.214975 -0.0343445
v -0.0982188 -0.222773 -0.0974213
v -0.191467 -0.216478 -0.107259
v 0.0143226 -0.23419 -0.0436768
v 0.0858668 -0.239546 -0.0103956
v -0.436647 -0.211639 0.0168702
v -0.413174 -0.203182 -0.0699306
v 0.201784 -0.240015 0.00304051
v 0.25275 -0.239499 0.0433489
v 0.288763 -0.23715 -0.0135438
v -0.401277 -0.182276 -0.192992
v -0.0480575 0.232706 0.0193437
v -0.243237 0.224954 0.0301939
v 0.0582137 0.236418 0.0304187
v 0.242299 0.226599 -0.00128829
v 0.115449 0.231766 -0.00342458
v 0.017538 0.227491 -0.0268675
v 0.0320077 0.210202 -0.101019
v 0.130562 0.203766 -0.119627
v 0.232331 0.18145 -0.19035
v 0.293908 0.175014 -0.20328
v 0.281528 0.191833 -0.14099
v 0.299213 -0.227472 -0.0778574
v 0.243264 -0.215304 -0.130534
v 0.362397 -0.208162 -0.149142
v 0.362879 -0.190686 -0.207215
v 0.295998 -0.184907 -0.227735
v 0.241174 -0.178189 -0.246849
v 0.282332 -0.161182 -0.291711
v -0.190503 -0.135201 -0.353776
v -0.30208 -0.189605 -0.197208
v -0.190985 -0.160947 -0.292048
v -0.109634 -0.18143 -0.237236
v -0.251918 -0.173678 -0.255731
v -0.175872 -0.187256 -0.218852
v -0.180053 -0.203417 -0.164771
v -0.297256 -0.20431 -0.130309
v -0.355939 -0.195525 -0.149029
v -0.0278001 -0.211028 -0.144588
v 0.0630369 -0.225122 -0.0912935
v 0.115771 -0.232874 -0.0560447
v -0.243237 -0.199095 -0.171461
v 0.142781 -0.239123 -0.0124757
v 0.216897 -0.231794 -0.0587432
v 0.184742 0.223592 -0.0292287
v 0.0884391 0.21941 -0.0613292
v 0.209019 0.200571 -0.121258
v 0.140851 -0.227331 -0.082917
v 0.19664 -0.200035 -0.183098
v 0.28619 -0.204357 -0.1673
v 0.156286 -0.215304 -0.131321
v -0.00802493 -0.199424 -0.184166
v -0.0863216 -0.203042 -0.17073
f 1 2 3
f 1 3 4
f 1 4 5
f 1 5 6
f 1 6 7
f 1 7 2
f 2 7 8
f 2 8 9
f 2 9 10
f 2 10 11
f 2 11 3
f 3 11 12
f 3 12 4
f 4 12 13
f 4 13 14
f 4 14 15
f 4 15 5
f 5 15 16
f 5 16 6
f 6 16 17
f 6 17 18
f 6 18 7
f 7 18 19
f 7 19 20
f 7 20 21
f 7 21 22
f 7 22 8
f 8 22 9
f 9 22 23
f 9 23 10
f 10 23 24
f 10 24 25
f 10 25 26
f 10 26 11
f 11 27 12
f 11 26 27
f 12 27 28
f 12 28 29
f 12 29 13
f 13 29 30
f 13 30 31
f 13 31 32
f 13 32 14
f 14 33 34
f 14 34 16
f 14 16 15
f 14 32 35
f 14 35 36
f 14 36 33
f 16 37 38
f 16 38 17
f 16 34 39
f 16 39 37
f 17 40 18
f 17 38 41
f 17 41 42
f 17 42 43
f 17 43 44
f 17 44 45
f 17 45 40
f 18 46 19
f 18 40 46
f 19 46 47
f 19 47 48
f 19 48 20
f 20 48 49
f 20 49 50
f 20 50 21
f 21 50 51
f 21 51 52
f 21 52 53
f 21 53 22
f 22 53 23
f 23 53 54
f 23 54 24
f 24 55 25
f 24 54 56
f 24 56 57
f 24 57 55
f 25 55 58
f 25 58 59
f 25 59 60
f 25 60 61
f 25 61 26
f 26 61 62
f 26 62 27
f 27 62 63
f 27 63 64
f 27 64 65
f 27 65 66
f 27 66 28
f 28 67 29
f 28 66 67
f 29 68 30
f 29 67 69
f 29 69 68
f 30 68 70
f 30 70 71
f 30 71 31
f 31 71 72
f 31 72 73
f 31 73 74
f 31 74 75
f 31 75 76
f 31 76 77
f 31 77 32
f 32 77 78
f 32 78 35
f 33 79 80
f 33 80 81
f 33 81 34
f 33 36 82
f 33 82 83
f 33 83 79
f 34 81 39
f 35 78 36
f 36 78 82
f 37 84 38
f 37 39 85
f 37 85 86
f 37 86 87
f 37 87 84
f 38 84 41
f 39 81 85
f 40 45 88
f 40 88 89
f 40 89 90
f 40 90 91
f 40 91 46
f 41 84 92
f 41 92 93
f 41 93 94
f 41 94 42
f 42 94 95
f 42 95 43
f 43 95 96
f 43 96 97
f 43 97 44
f 44 97 45
f 45 97 88
f 46 48 47
f 46 91 48
f 48 91 153
f 48 153 127
f 48 127 126
f 48 126 181
f 48 181 180
f 48 180 179
f 48 179 160
f 48 160 99
f 48 99 49
f 49 98 50
f 49 99 98
f 50 98 100
f 50 100 101
f 50 101 51
f 51 101 102
f 51 102 103
f 51 103 104
f 51 104 105
f 51 105 106
f 51 106 107
f 51 107 52
f 52 107 108
f 52 108 109
f 52 109 53
f 53 109 54
f 54 109 110
f 54 110 56
f 55 57 111
f 55 111 58
f 56 110 112
f 56 112 57
f 57 113 114
f 57 114 115
f 57 115 111
f 57 112 113
f 58 111 116
f 58 116 59
f 59 116 117
f 59 117 60
f 60 62 61
f 60 117 63
f 60 63 62
f 63 117 64
f 64 117 116
f 64 116 118
f 64 118 65
f 65 119 66
f 65 118 119
f 66 119 120
f 66 120 121
f 66 121 122
f 66 122 67
f 67 122 123
f 67 123 124
f 67 124 69
f 68 69 125
f 68 125 126
f 68 126 70
f 69 124 125
f 70 126 127
f 70 127 128
f 70 128 71
f 71 128 129
f 71 129 72
f 72 129 130
f 72 130 131
f 72 131 73
f 73 131 132
f 73 132 133
f 73 133 134
f 73 134 74
f 74 134 135
f 74 135 75
f 75 135 136
f 75 136 76
f 76 136 137
f 76 137 78
f 76 78 77
f 78 137 138
f 78 138 82
f 79 139 140
f 79 140 85
f 79 85 80
f 79 83 82
f 79 82 138
f 79 138 139
f 80 85 81
f 84 87 141
f 84 141 92
f 85 140 87
f 85 87 86
f 87 140 142
f 87 142 141
f 88 97 89
f 89 97 96
f 89 96 143
f 89 143 90
f 90 144 145
f 90 145 146
f 90 146 91
f 90 143 147
f 90 147 144
f 91 146 148
f 91 148 149
f 91 149 150
f 91 150 151
f 91 151 152
f 91 152 153
f 92 141 93
f 93 141 154
f 93 154 155
f 93 155 156
f 93 156 94
f 94 156 157
f 94 157 95
f 95 157 158
f 95 158 96
f 96 158 143
f 98 159 101
f 98 101 100
f 98 99 159
f 99 160 121
f 99 121 120
f 99 120 161
f 99 161 162
f 99 162 163
f 99 163 164
f 99 164 159
f 101 159 102
f 102 159 165
f 102 165 103
f 103 165 104
f 104 165 166
f 104 166 167
f 104 167 105
f 105 167 168
f 105 168 106
f 106 168 169
f 106 169 107
f 107 169 170
f 107 170 171
f 107 171 108
f 108 112 110
f 108 110 109
f 108 171 113
f 108 113 112
f 111 115 116
f 113 172 114
f 113 171 172
f 114 172 173
f 114 173 174
f 114 174 115
f 115 174 175
f 115 175 118
f 115 118 116
f 118 175 119
f 119 175 176
f 119 176 177
f 119 177 120
f 120 177 178
f 120 178 161
f 121 160 122
f 122 160 179
f 122 179 180
f 122 180 123
f 123 180 181
f 123 181 124
f 124 181 125
f 125 181 126
f 127 153 128
f 128 153 130
f 128 130 129
f 130 153 182
f 130 182 183
f 130 183 131
f 131 183 184
f 131 184 132
f 132 184 152
f 132 152 133
f 133 152 185
f 133 185 186
f 133 186 134
f 134 186 187
f 134 187 135
f 135 187 188
f 135 188 136
f 136 188 137
f 137 188 189
f 137 189 138
f 138 189 190
f 138 190 191
f 138 191 139
f 139 191 192
f 139 192 193
f 139 193 194
f 139 194 140
f 140 194 195
f 140 195 196
f 140 196 142
f 141 142 197
f 141 197 154
f 142 196 198
f 142 198 199
f 142 199 197
f 143 158 200
f 143 200 147
f 144 201 145
f 144 147 202
f 144 202 201
f 145 203 146
f 145 201 204
f 145 204 203
f 146 203 205
f 146 205 206
f 146 206 148
f 147 200 207
f 147 207 208
f 147 208 202
f 148 206 149
f 149 206 209
f 149 209 150
f 150 209 210
f 150 210 151
f 151 210 211
f 151 211 186
f 151 186 185
f 151 185 152
f 152 184 183
f 152 183 153
f 153 183 182
f 154 197 155
f 155 197 212
f 155 212 156
f 156 212 208
f 156 208 157
f 157 200 158
f 157 208 207
f 157 207 200
f 159 213 214
f 159 214 166
f 159 166 165
f 159 164 215
f 159 215 213
f 161 178 216
f 161 216 162
f 162 216 163
f 163 216 217
f 163 217 164
f 164 217 215
f 166 213 167
f 166 214 213
f 167 213 218
f 167 218 168
f 168 218 219
f 168 219 169
f 169 219 170
f 170 219 172
f 170 172 171
f 172 219 220
f 172 220 173
f 173 220 221
f 173 221 174
f 174 221 222
f 174 222 175
f 175 222 176
f 176 222 177
f 177 222 178
f 178 222 223
f 178 223 216
f 186 211 224
f 186 224 187
f 187 224 225
f 187 225 226
f 187 226 188
f 188 226 227
f 188 227 189
f 189 227 190
f 190 227 228
f 190 228 229
f 190 229 230
f 190 230 191
f 191 230 195
f 191 195 231
f 191 231 193
f 191 193 192
f 193 231 194
f 194 231 195
f 195 198 196
f 195 230 198
f 197 199 232
f 197 232 212
f 198 230 233
f 198 233 234
f 198 234 235
f 198 235 199
f 199 235 236
f 199 236 237
f 199 237 232
f 201 202 238
f 201 238 204
f 202 208 239
f 202 239 238
f 203 240 241
f 203 241 242
f 203 242 205
f 203 204 237
f 203 237 240
f 204 238 232
f 204 232 243
f 204 243 237
f 205 242 206
f 206 242 244
f 206 244 209
f 208 212 239
f 209 211 210
f 209 244 211
f 211 244 245
f 211 245 224
f 212 232 239
f 213 215 218
f 215 217 218
f 216 223 246
f 216 246 217
f 217 247 218
f 217 246 247
f 218 247 219
f 219 247 220
f 220 247 248
f 220 248 221
f 221 223 222
f 221 248 223
f 223 248 246
f 224 245 249
f 224 249 225
f 225 250 251
f 225 251 226
f 225 249 252
f 225 252 250
f 226 251 227
f 227 251 228
f 228 251 250
f 228 250 234
f 228 234 229
f 229 234 233
f 229 233 230
f 232 238 239
f 232 237 243
f 234 253 236
f 234 236 235
f 234 250 253
f 236 253 254
f 236 254 237
f 237 254 240
f 240 254 253
f 240 253 252
f 240 252 241
f 241 252 249
f 241 249 242
f 242 249 245
f 242 245 244
f 246 248 247
f 250 252 253
