v 0.166557 -0.396587 -0.298111
v 0.166557 -0.396915 -0.302215
v 0.00892834 -0.411994 -0.357069
v 0.16245 -0.397292 -0.298111
v 0.17477 -0.397898 -0.298111
v 0.352796 -0.415895 -0.357069
v 0.178876 -0.399914 -0.326886
v 0.166557 -0.398423 -0.314548
v 0.00892834 -0.551071 -0.357069
v 0.00892834 -0.444956 -0.298111
v 0.150097 -0.400357 -0.298111
v 0.154204 -0.399062 -0.298111
v 0.195302 -0.404864 -0.357069
v 0.178876 -0.398718 -0.298111
v 0.352796 -0.441695 -0.298111
v 0.352796 -0.555628 -0.357069
v 0.203515 -0.404701 -0.357069
v 0.00892834 -0.557218 -0.327244
v 0.034577 -0.555513 -0.357069
v 0.00892834 -0.553235 -0.298111
v 0.352796 -0.557595 -0.298111
v 0.339197 -0.556627 -0.357069
v 0.352796 -0.560086 -0.314548
v 0.339197 -0.562463 -0.314548
v 0.314525 -0.563102 -0.326886
v 0.00892834 -0.558791 -0.314334
v 0.0430929 -0.555955 -0.357069
v 0.00892834 -0.556529 -0.305475
v 0.326878 -0.560791 -0.302215
v 0.326878 -0.558758 -0.298111
v 0.34566 -0.558267 -0.298111
v 0.339197 -0.560512 -0.302215
v 0.352796 -0.558922 -0.301511
v 0.302205 -0.563823 -0.326886
v 0.326878 -0.55707 -0.357069
v 0.352796 -0.560037 -0.313301
v 0.352796 -0.559135 -0.302215
v 0.35155 -0.559283 -0.302215
v 0.326878 -0.563577 -0.314548
v 0.302205 -0.564003 -0.314548
v 0.00892834 -0.558381 -0.312401
v 0.0555134 -0.556578 -0.357069
v 0.0678665 -0.557086 -0.357069
v 0.314525 -0.564036 -0.314548
v 0.332869 -0.558807 -0.298111
v 0.339197 -0.55866 -0.298111
v 0.190859 -0.557988 -0.357069
v 0.178876 -0.557906 -0.357069
f 1 2 3
f 1 3 4
f 1 4 12
f 1 12 11
f 1 11 10
f 1 10 20
f 1 20 30
f 1 30 45
f 1 45 46
f 1 46 31
f 1 31 21
f 1 21 15
f 1 15 14
f 1 14 5
f 1 5 6
f 1 6 2
f 2 6 7
f 2 7 8
f 2 8 3
f 3 9 18
f 3 18 26
f 3 26 41
f 3 41 28
f 3 28 20
f 3 20 10
f 3 10 11
f 3 11 12
f 3 12 4
f 3 8 7
f 3 7 13
f 3 13 17
f 3 17 6
f 3 6 16
f 3 16 22
f 3 22 35
f 3 35 47
f 3 47 48
f 3 48 43
f 3 43 42
f 3 42 27
f 3 27 19
f 3 19 9
f 5 14 6
f 6 15 21
f 6 21 33
f 6 33 37
f 6 37 36
f 6 36 23
f 6 23 16
f 6 17 7
f 6 14 15
f 7 17 13
f 9 19 18
f 16 23 24
f 16 24 25
f 16 25 22
f 18 19 26
f 19 27 26
f 20 28 29
f 20 29 30
f 21 31 32
f 21 32 33
f 22 25 34
f 22 34 35
f 23 36 24
f 24 36 37
f 24 37 38
f 24 38 32
f 24 32 39
f 24 39 25
f 25 39 34
f 26 40 41
f 26 27 42
f 26 42 43
f 26 43 34
f 26 34 40
f 28 41 40
f 28 40 29
f 29 40 44
f 29 44 32
f 29 32 45
f 29 45 30
f 31 46 32
f 32 38 33
f 32 46 45
f 32 44 39
f 33 38 37
f 34 47 35
f 34 39 44
f 34 44 40
f 34 43 48
f 34 48 47
