v -0.381422 0.425565 -0.0924977
v -0.381617 0.415142 -0.0920648
v -0.381617 0.415142 -0.104162
v -0.381475 0.424852 -0.104162
v -0.381475 0.425565 -0.104162
v -0.382272 0.432012 -0.104162
v -0.382237 0.432057 -0.0924977
v -0.38229 0.431957 -0.0852826
v -0.38245 0.418661 -0.0431704
v -0.382538 0.415142 -0.0308326
v -0.382219 0.415142 -0.0431704
v -0.540044 0.415142 -0.104162
v -0.389731 0.47211 -0.103874
v -0.389749 0.47211 -0.104162
v -0.382715 0.416804 -0.0308326
v -0.38291 0.415142 -0.0258542
v -0.556255 0.437902 -0.0519969
v -0.555723 0.450226 -0.0511311
v -0.553367 0.461787 -0.0545462
v -0.551524 0.47211 -0.0552918
v -0.530476 0.47211 -0.104162
v -0.556308 0.415142 -0.0476919
v -0.556149 0.425565 -0.0512032
v -0.385515 0.425565 -0.0184947
v -0.40387 0.47211 0.0185188
v -0.395631 0.428867 0.0924977
v -0.395011 0.430891 0.0801599
v -0.393115 0.424723 0.0801599
v -0.39106 0.415142 0.0801599
v -0.558133 0.425565 -0.0431704
v -0.557814 0.437902 -0.0431704
v -0.555192 0.457159 -0.0498083
v -0.552481 0.47211 -0.0431704
v -0.557389 0.415142 -0.0438438
v -0.404525 0.47211 0.023377
v -0.404614 0.43702 0.141536
v -0.400255 0.425889 0.141536
v -0.400131 0.425565 0.141536
v -0.393718 0.422699 0.0924977
v -0.392229 0.415142 0.0924977
v -0.558983 0.415142 -0.0308326
v -0.556556 0.450226 -0.0431704
v -0.562102 0.449914 0.141536
v -0.562084 0.450199 0.141536
v -0.560968 0.462563 0.141536
v -0.555334 0.457889 -0.0431704
v -0.554182 0.464057 -0.0431704
v -0.558913 0.47211 0.141536
v -0.423731 0.47211 0.141536
v -0.407484 0.443038 0.141536
v -0.397314 0.41541 0.141536
v -0.397243 0.415142 0.141536
v -0.562421 0.437584 0.141536
v -0.559887 0.415142 0.119073
v -0.561818 0.425197 0.141536
v -0.561854 0.425565 0.141536
v -0.559993 0.415142 0.141536
f 1 2 3
f 1 3 4
f 1 4 5
f 1 5 6
f 1 6 7
f 1 7 8
f 1 8 9
f 1 9 10
f 1 10 11
f 1 11 2
f 2 11 10
f 2 10 16
f 2 16 29
f 2 29 40
f 2 40 52
f 2 52 57
f 2 57 54
f 2 54 41
f 2 41 34
f 2 34 22
f 2 22 12
f 2 12 3
f 3 12 21
f 3 21 14
f 3 14 6
f 3 6 5
f 3 5 4
f 6 13 7
f 6 14 13
f 7 13 8
f 8 13 15
f 8 15 9
f 9 15 10
f 10 15 16
f 12 17 18
f 12 18 19
f 12 19 20
f 12 20 21
f 12 22 23
f 12 23 17
f 13 24 15
f 13 14 21
f 13 21 20
f 13 20 33
f 13 33 48
f 13 48 49
f 13 49 35
f 13 35 25
f 13 25 26
f 13 26 27
f 13 27 28
f 13 28 24
f 15 24 29
f 15 29 16
f 17 23 30
f 17 30 31
f 17 31 18
f 18 32 19
f 18 31 32
f 19 32 20
f 20 32 33
f 22 34 23
f 23 34 30
f 24 28 29
f 25 35 36
f 25 36 26
f 26 36 37
f 26 37 38
f 26 38 39
f 26 39 27
f 27 39 28
f 28 39 29
f 29 39 40
f 30 41 31
f 30 34 41
f 31 42 32
f 31 41 43
f 31 43 44
f 31 44 45
f 31 45 42
f 32 42 46
f 32 46 47
f 32 47 33
f 33 47 45
f 33 45 48
f 35 49 50
f 35 50 36
f 36 50 49
f 36 49 48
f 36 48 45
f 36 45 44
f 36 44 43
f 36 43 53
f 36 53 56
f 36 56 55
f 36 55 57
f 36 57 52
f 36 52 51
f 36 51 38
f 36 38 37
f 38 51 39
f 39 51 52
f 39 52 40
f 41 53 43
f 41 54 55
f 41 55 56
f 41 56 53
f 42 45 46
f 45 47 46
f 54 57 55
