v 0.561241 0.144393 0.338668
v 0.570429 0.144393 0.3407
v 0.558816 0.144393 0.339362
v 0.511923 0.14696 0.252897
v 0.511923 0.14724 0.242562
v 0.572744 0.144393 0.34132
v 0.551815 0.144393 0.342485
v 0.505051 0.147356 0.252897
v 0.523462 0.144393 0.365408
v 0.518593 0.14759 0.242562
v 0.60637 0.144393 0.355941
v 0.5054 0.147683 0.242562
v 0.49895 0.166185 0.242538
v 0.546799 0.166185 0.242538
v 0.514789 0.144393 0.400673
v 0.512952 0.144393 0.413312
v 0.505014 0.147333 0.265238
v 0.447445 0.240777 0.242538
v 0.551209 0.167538 0.242538
v 0.560506 0.170478 0.242538
v 0.565596 0.172438 0.242538
v 0.608888 0.144393 0.362261
v 0.567856 0.174048 0.242538
v 0.573663 0.179088 0.242538
v 0.578679 0.183847 0.242538
v 0.580461 0.186064 0.242538
v 0.582887 0.19115 0.242538
v 0.45384 0.231235 0.242538
v 0.454519 0.230231 0.242538
v 0.516259 0.144393 0.423795
v 0.438974 0.289844 0.27758
v 0.431385 0.282308 0.24794
v 0.432488 0.274095 0.244198
v 0.432249 0.273255 0.242538
v 0.433223 0.270479 0.242538
v 0.434142 0.267866 0.242538
v 0.434987 0.265509 0.242538
v 0.440316 0.25375 0.242538
v 0.44083 0.25263 0.242538
v 0.441198 0.25186 0.242538
v 0.441859 0.250577 0.242538
v 0.443991 0.246634 0.242538
v 0.505345 0.147613 0.27758
v 0.609512 0.144393 0.363921
v 0.58658 0.203656 0.242538
v 0.516884 0.144393 0.425233
v 0.454813 0.351534 0.349349
v 0.44377 0.319313 0.309276
v 0.435189 0.289844 0.265213
v 0.437027 0.302187 0.27758
v 0.434656 0.302187 0.265213
v 0.431385 0.286998 0.24794
v 0.430889 0.279205 0.242538
v 0.590163 0.204263 0.253814
v 0.592166 0.208859 0.258547
v 0.592387 0.215882 0.257952
v 0.610321 0.166162 0.363921
v 0.610799 0.144393 0.373686
v 0.589869 0.289868 0.242538
v 0.590439 0.215882 0.251781
v 0.534524 0.144393 0.46486
v 0.45757 0.351534 0.355495
v 0.45983 0.363877 0.363921
v 0.456706 0.363877 0.356511
v 0.447941 0.339191 0.326897
v 0.443752 0.326849 0.309623
v 0.439544 0.31453 0.289897
v 0.443972 0.333592 0.309177
v 0.437578 0.31453 0.27758
v 0.433774 0.302187 0.252897
v 0.430944 0.288584 0.242538
v 0.430889 0.280582 0.242538
v 0.589943 0.295304 0.242538
v 0.590035 0.302654 0.242538
v 0.610431 0.178878 0.363921
v 0.617781 0.20354 0.426373
v 0.617119 0.144393 0.428231
v 0.540128 0.144393 0.476458
v 0.467878 0.376219 0.383945
v 0.464185 0.376219 0.376189
v 0.455126 0.363877 0.350365
v 0.451524 0.351534 0.339238
v 0.465894 0.382729 0.380996
v 0.462219 0.382729 0.370365
v 0.459793 0.376219 0.363921
v 0.445369 0.338305 0.313812
v 0.44355 0.334642 0.302238
v 0.43721 0.31453 0.265213
v 0.441087 0.326849 0.289897
v 0.432157 0.296424 0.242538
v 0.589961 0.31453 0.242538
v 0.613794 0.31453 0.38853
v 0.618608 0.20354 0.437872
v 0.617083 0.326849 0.417178
v 0.617119 0.339191 0.417501
v 0.617505 0.144393 0.435443
v 0.542701 0.144393 0.480968
v 0.473593 0.382729 0.395791
v 0.469183 0.382729 0.387911
v 0.455953 0.371133 0.348383
v 0.449338 0.351534 0.326897
v 0.461373 0.382729 0.363921
v 0.443347 0.334782 0.289897
v 0.434528 0.30417 0.242538
v 0.433866 0.302187 0.242538
v 0.589722 0.326826 0.242538
v 0.616862 0.376219 0.41874
v 0.617028 0.363877 0.417922
v 0.617101 0.351534 0.417699
v 0.617616 0.144393 0.437872
v 0.618498 0.215882 0.437872
v 0.617597 0.215882 0.446843
v 0.617561 0.20354 0.447016
v 0.617175 0.144393 0.445232
v 0.547772 0.144393 0.486717
v 0.49612 0.382729 0.428925
v 0.490681 0.382729 0.422754
v 0.484324 0.382729 0.413709
v 0.481476 0.382729 0.409372
v 0.480557 0.382729 0.407935
v 0.460693 0.382729 0.358593
v 0.455934 0.371086 0.339238
v 0.443697 0.333802 0.280182
v 0.437853 0.31453 0.252897
v 0.438974 0.31453 0.242538
v 0.589245 0.339168 0.242538
v 0.616715 0.382729 0.419211
v 0.616734 0.382612 0.41931
v 0.616862 0.376219 0.419929
v 0.617028 0.363877 0.420896
v 0.617524 0.302187 0.436112
v 0.614584 0.289844 0.450213
v 0.61576 0.20354 0.453187
v 0.616348 0.302187 0.442283
v 0.611662 0.166558 0.46253
v 0.611644 0.166162 0.46253
v 0.614731 0.144393 0.45113
v 0.549665 0.144393 0.4887
v 0.5201 0.382729 0.453931
v 0.461814 0.382729 0.352075
v 0.456247 0.370316 0.332274
v 0.444174 0.332869 0.271954
v 0.439691 0.315976 0.242538
v 0.582979 0.382729 0.242538
v 0.609163 0.382729 0.376189
v 0.616715 0.382729 0.419483
v 0.616734 0.382612 0.419384
v 0.615484 0.215882 0.453014
v 0.613922 0.302187 0.450213
v 0.608097 0.291034 0.463769
v 0.61157 0.19122 0.46253
v 0.611901 0.178878 0.46253
v 0.615172 0.382729 0.425084
v 0.606977 0.178878 0.472319
v 0.606683 0.166558 0.471922
v 0.610321 0.154192 0.46253
v 0.609035 0.144393 0.46253
v 0.554534 0.144393 0.493756
v 0.526237 0.382729 0.4603
v 0.463468 0.382729 0.344071
v 0.443145 0.322066 0.242538
v 0.502717 0.382729 0.242538
v 0.608134 0.302187 0.461663
v 0.609935 0.382729 0.437872
v 0.604992 0.287698 0.469494
v 0.601997 0.178878 0.478465
v 0.606664 0.166162 0.471873
v 0.601666 0.166558 0.478093
v 0.595621 0.144393 0.481959
v 0.605892 0.144393 0.467858
v 0.561205 0.144393 0.495614
v 0.552127 0.376219 0.482777
v 0.545953 0.376219 0.478465
v 0.539044 0.376219 0.472294
v 0.532889 0.382729 0.466446
v 0.594923 0.351534 0.472691
v 0.592313 0.382729 0.469073
v 0.589043 0.351534 0.478837
v 0.592718 0.277525 0.481588
v 0.598873 0.277525 0.475863
v 0.595823 0.178878 0.483843
v 0.595492 0.166558 0.483744
v 0.604919 0.144393 0.469444
v 0.601501 0.144393 0.474351
v 0.594353 0.144393 0.483347
v 0.563832 0.144393 0.495713
v 0.561223 0.376219 0.485181
v 0.556923 0.382729 0.483644
v 0.552789 0.382729 0.48243
v 0.549886 0.382729 0.480373
v 0.546633 0.382729 0.478044
v 0.539044 0.382729 0.471898
v 0.585974 0.382729 0.475243
v 0.579432 0.382729 0.480894
v 0.582869 0.351534 0.482604
v 0.5859 0.265206 0.485924
v 0.5859 0.19122 0.489022
v 0.5859 0.178878 0.489518
v 0.58048 0.144393 0.493805
v 0.581454 0.144393 0.493136
v 0.586397 0.144393 0.489667
v 0.588344 0.144393 0.488254
v 0.573736 0.144393 0.495614
v 0.573552 0.351534 0.485354
v 0.567507 0.382729 0.48419
v 0.561223 0.382729 0.48476
v 0.573552 0.265206 0.489865
v 0.576989 0.382729 0.481984
v 0.573883 0.382729 0.483248
v 0.580186 0.150693 0.493632
v 0.575463 0.144393 0.495218
f 1 2 6
f 1 6 11
f 1 11 22
f 1 22 44
f 1 44 58
f 1 58 77
f 1 77 96
f 1 96 110
f 1 110 114
f 1 114 137
f 1 137 157
f 1 157 170
f 1 170 183
f 1 183 184
f 1 184 169
f 1 169 185
f 1 185 202
f 1 202 201
f 1 201 200
f 1 200 199
f 1 199 211
f 1 211 203
f 1 203 186
f 1 186 171
f 1 171 158
f 1 158 138
f 1 138 115
f 1 115 97
f 1 97 78
f 1 78 61
f 1 61 46
f 1 46 30
f 1 30 16
f 1 16 15
f 1 15 9
f 1 9 7
f 1 7 3
f 1 3 4
f 1 4 5
f 1 5 2
f 2 5 6
f 3 7 4
f 4 8 5
f 4 7 9
f 4 9 8
f 5 10 11
f 5 11 6
f 5 8 12
f 5 12 13
f 5 13 14
f 5 14 10
f 8 9 15
f 8 15 16
f 8 16 17
f 8 17 18
f 8 18 12
f 10 14 19
f 10 19 20
f 10 20 21
f 10 21 11
f 11 21 23
f 11 23 24
f 11 24 25
f 11 25 26
f 11 26 27
f 11 27 22
f 12 18 28
f 12 28 29
f 12 29 13
f 13 29 28
f 13 28 18
f 13 18 42
f 13 42 41
f 13 41 40
f 13 40 39
f 13 39 38
f 13 38 37
f 13 37 36
f 13 36 35
f 13 35 34
f 13 34 53
f 13 53 72
f 13 72 71
f 13 71 90
f 13 90 105
f 13 105 104
f 13 104 125
f 13 125 143
f 13 143 161
f 13 161 162
f 13 162 144
f 13 144 126
f 13 126 106
f 13 106 91
f 13 91 74
f 13 74 73
f 13 73 59
f 13 59 45
f 13 45 27
f 13 27 26
f 13 26 25
f 13 25 24
f 13 24 23
f 13 23 21
f 13 21 20
f 13 20 19
f 13 19 14
f 16 30 31
f 16 31 32
f 16 32 33
f 16 33 34
f 16 34 35
f 16 35 36
f 16 36 37
f 16 37 38
f 16 38 39
f 16 39 40
f 16 40 41
f 16 41 42
f 16 42 18
f 16 18 43
f 16 43 17
f 17 43 18
f 22 27 44
f 27 45 44
f 30 46 47
f 30 47 48
f 30 48 31
f 31 48 49
f 31 49 32
f 32 49 50
f 32 50 51
f 32 51 52
f 32 52 72
f 32 72 53
f 32 53 34
f 32 34 33
f 44 45 54
f 44 54 55
f 44 55 56
f 44 56 57
f 44 57 58
f 45 59 60
f 45 60 55
f 45 55 54
f 46 61 47
f 47 62 63
f 47 63 64
f 47 64 65
f 47 65 48
f 47 61 62
f 48 65 66
f 48 66 67
f 48 67 50
f 48 50 49
f 50 67 51
f 51 67 68
f 51 68 69
f 51 69 70
f 51 70 71
f 51 71 52
f 52 71 72
f 55 60 56
f 56 60 59
f 56 59 73
f 56 73 74
f 56 74 75
f 56 75 57
f 57 75 76
f 57 76 77
f 57 77 58
f 61 78 79
f 61 79 63
f 61 63 62
f 63 79 80
f 63 80 64
f 64 81 82
f 64 82 65
f 64 80 83
f 64 83 84
f 64 84 85
f 64 85 81
f 65 68 66
f 65 82 68
f 66 68 67
f 68 82 86
f 68 86 87
f 68 87 69
f 69 88 70
f 69 87 89
f 69 89 88
f 70 88 90
f 70 90 71
f 74 91 92
f 74 92 75
f 75 92 76
f 76 93 77
f 76 92 94
f 76 94 95
f 76 95 93
f 77 93 96
f 78 97 98
f 78 98 99
f 78 99 79
f 79 99 80
f 80 99 83
f 81 100 101
f 81 101 82
f 81 85 100
f 82 101 86
f 83 99 98
f 83 98 120
f 83 120 119
f 83 119 118
f 83 118 117
f 83 117 116
f 83 116 139
f 83 139 159
f 83 159 175
f 83 175 192
f 83 192 191
f 83 191 190
f 83 190 189
f 83 189 188
f 83 188 206
f 83 206 205
f 83 205 209
f 83 209 208
f 83 208 194
f 83 194 193
f 83 193 177
f 83 177 164
f 83 164 153
f 83 153 146
f 83 146 127
f 83 127 145
f 83 145 144
f 83 144 162
f 83 162 160
f 83 160 140
f 83 140 121
f 83 121 102
f 83 102 84
f 84 102 100
f 84 100 85
f 86 101 87
f 87 101 103
f 87 103 89
f 88 104 105
f 88 105 90
f 88 89 103
f 88 103 104
f 91 106 92
f 92 106 107
f 92 107 108
f 92 108 109
f 92 109 95
f 92 95 94
f 93 110 96
f 93 95 109
f 93 109 108
f 93 108 111
f 93 111 112
f 93 112 113
f 93 113 114
f 93 114 110
f 97 115 116
f 97 116 117
f 97 117 118
f 97 118 119
f 97 119 120
f 97 120 98
f 100 102 121
f 100 121 122
f 100 122 103
f 100 103 101
f 103 123 124
f 103 124 104
f 103 122 123
f 104 124 125
f 106 126 127
f 106 127 107
f 107 127 128
f 107 128 147
f 107 147 129
f 107 129 130
f 107 130 108
f 108 130 111
f 111 130 131
f 111 131 112
f 112 132 133
f 112 133 113
f 112 131 134
f 112 134 132
f 113 133 114
f 114 133 135
f 114 135 136
f 114 136 137
f 115 138 116
f 116 138 139
f 121 140 141
f 121 141 122
f 122 141 123
f 123 141 142
f 123 142 125
f 123 125 124
f 125 142 143
f 126 144 145
f 126 145 127
f 127 146 147
f 127 147 128
f 129 147 131
f 129 131 130
f 131 147 146
f 131 146 134
f 132 148 133
f 132 134 149
f 132 149 150
f 132 150 148
f 133 148 150
f 133 150 151
f 133 151 152
f 133 152 135
f 134 146 153
f 134 153 149
f 135 152 154
f 135 154 155
f 135 155 136
f 136 156 137
f 136 155 156
f 137 156 157
f 138 158 139
f 139 158 159
f 140 160 141
f 141 160 161
f 141 161 142
f 142 161 143
f 149 163 150
f 149 153 164
f 149 164 163
f 150 165 154
f 150 154 151
f 150 163 165
f 151 154 152
f 154 165 166
f 154 166 155
f 155 167 156
f 155 166 168
f 155 168 169
f 155 169 167
f 156 167 157
f 157 167 170
f 158 171 172
f 158 172 173
f 158 173 174
f 158 174 175
f 158 175 159
f 160 162 161
f 163 176 165
f 163 164 176
f 164 177 176
f 165 176 178
f 165 178 179
f 165 179 180
f 165 180 166
f 166 180 179
f 166 179 181
f 166 181 182
f 166 182 168
f 167 183 170
f 167 169 184
f 167 184 183
f 168 182 185
f 168 185 169
f 171 186 187
f 171 187 172
f 172 187 188
f 172 188 189
f 172 189 173
f 173 189 190
f 173 190 191
f 173 191 192
f 173 192 175
f 173 175 174
f 176 177 178
f 177 193 178
f 178 193 194
f 178 194 195
f 178 195 179
f 179 195 196
f 179 196 197
f 179 197 181
f 181 197 198
f 181 198 199
f 181 199 200
f 181 200 201
f 181 201 182
f 182 201 202
f 182 202 185
f 186 203 187
f 187 204 205
f 187 205 206
f 187 206 188
f 187 203 207
f 187 207 204
f 194 208 195
f 195 208 209
f 195 209 204
f 195 204 207
f 195 207 210
f 195 210 196
f 196 210 199
f 196 199 197
f 197 199 198
f 199 210 211
f 203 211 207
f 204 209 205
f 207 211 210
