v 0.536578 -0.579816 0.322487
v 0.548906 -0.579364 0.322487
v 0.52425 -0.57879 0.322487
v 0.52425 -0.57555 0.252883
v 0.536578 -0.576436 0.252883
v 0.55665 -0.577633 0.322487
v 0.548906 -0.57385 0.215868
v 0.511913 -0.577653 0.322487
v 0.511913 -0.573116 0.24054
v 0.52425 -0.572894 0.215868
v 0.536578 -0.574132 0.215868
v 0.499674 -0.576325 0.322487
v 0.49492 -0.575732 0.322487
v 0.560957 -0.576456 0.322487
v 0.548906 -0.572059 0.203538
v 0.558486 -0.568447 0.194002
v 0.562058 -0.569131 0.204533
v 0.561243 -0.570449 0.215868
v 0.492279 -0.570932 0.252883
v 0.499575 -0.571184 0.24054
v 0.511913 -0.57215 0.228211
v 0.492279 -0.565882 0.208565
v 0.535754 -0.567089 0.183307
v 0.536578 -0.571506 0.203538
v 0.492279 -0.575229 0.322487
v 0.569301 -0.568819 0.265199
v 0.570608 -0.570459 0.322487
v 0.567448 -0.567431 0.209301
v 0.567698 -0.567592 0.215868
v 0.536578 -0.567129 0.183307
v 0.549425 -0.56722 0.183307
v 0.553893 -0.566676 0.183307
v 0.566704 -0.567049 0.201086
v 0.561557 -0.564302 0.183307
v 0.492279 -0.569675 0.240785
v 0.492279 -0.559503 0.183307
v 0.492279 -0.47703 0.322487
v 0.572972 -0.561243 0.215868
v 0.572604 -0.56734 0.322487
v 0.575102 -0.561243 0.265199
v 0.571038 -0.562259 0.204533
v 0.569874 -0.558104 0.183307
v 0.492279 -0.47703 0.183307
v 0.576275 -0.47703 0.322487
v 0.578854 -0.551534 0.215868
v 0.579283 -0.553536 0.252883
v 0.576705 -0.560619 0.322487
v 0.573768 -0.548908 0.183307
v 0.578084 -0.548244 0.204015
v 0.567618 -0.47703 0.183307
v 0.579042 -0.546805 0.322487
v 0.580125 -0.539742 0.310539
v 0.583339 -0.511912 0.265199
v 0.58154 -0.47703 0.266575
v 0.579964 -0.543686 0.208456
v 0.580402 -0.545366 0.215868
v 0.581029 -0.547369 0.252883
v 0.579373 -0.553768 0.265199
v 0.577967 -0.55584 0.322487
v 0.581038 -0.5476 0.265199
v 0.574682 -0.54102 0.183307
v 0.574261 -0.524248 0.183307
v 0.56811 -0.47703 0.185323
v 0.579803 -0.517557 0.209492
v 0.579122 -0.548938 0.322487
v 0.580125 -0.545105 0.310539
v 0.583733 -0.524248 0.265199
v 0.581128 -0.47703 0.255363
v 0.581602 -0.47703 0.265199
v 0.580895 -0.536573 0.215868
v 0.580098 -0.536573 0.207993
v 0.575102 -0.536573 0.183307
v 0.582524 -0.536573 0.252883
v 0.582999 -0.536573 0.265199
v 0.572497 -0.47703 0.203538
v 0.579982 -0.524248 0.20877
v 0.58102 -0.47703 0.254123
f 1 2 6
f 1 6 14
f 1 14 27
f 1 27 39
f 1 39 47
f 1 47 59
f 1 59 65
f 1 65 51
f 1 51 44
f 1 44 37
f 1 37 25
f 1 25 13
f 1 13 12
f 1 12 8
f 1 8 3
f 1 3 4
f 1 4 5
f 1 5 2
f 2 5 7
f 2 7 6
f 3 8 4
f 4 9 10
f 4 10 11
f 4 11 5
f 4 8 12
f 4 12 13
f 4 13 9
f 5 11 7
f 6 7 14
f 7 11 15
f 7 15 16
f 7 16 17
f 7 17 18
f 7 18 14
f 9 13 19
f 9 19 20
f 9 20 21
f 9 21 10
f 10 21 22
f 10 22 23
f 10 23 24
f 10 24 11
f 11 24 15
f 13 25 19
f 14 26 27
f 14 18 28
f 14 28 29
f 14 29 26
f 15 24 30
f 15 30 31
f 15 31 32
f 15 32 16
f 16 33 17
f 16 32 34
f 16 34 33
f 17 33 18
f 18 33 28
f 19 35 20
f 19 25 37
f 19 37 43
f 19 43 36
f 19 36 22
f 19 22 35
f 20 35 22
f 20 22 21
f 22 36 23
f 23 36 43
f 23 43 50
f 23 50 62
f 23 62 72
f 23 72 61
f 23 61 48
f 23 48 42
f 23 42 34
f 23 34 32
f 23 32 31
f 23 31 30
f 23 30 24
f 26 29 38
f 26 38 27
f 27 38 40
f 27 40 39
f 28 38 29
f 28 33 41
f 28 41 38
f 33 34 42
f 33 42 41
f 37 44 54
f 37 54 69
f 37 69 68
f 37 68 77
f 37 77 75
f 37 75 63
f 37 63 50
f 37 50 43
f 38 41 45
f 38 45 46
f 38 46 40
f 39 40 47
f 40 46 47
f 41 42 45
f 42 48 49
f 42 49 45
f 44 51 52
f 44 52 53
f 44 53 54
f 45 49 55
f 45 55 56
f 45 56 57
f 45 57 46
f 46 57 58
f 46 58 47
f 47 58 60
f 47 60 59
f 48 61 55
f 48 55 49
f 50 63 64
f 50 64 62
f 51 65 52
f 52 65 66
f 52 66 67
f 52 67 53
f 53 68 69
f 53 69 54
f 53 67 70
f 53 70 64
f 53 64 68
f 55 71 70
f 55 70 56
f 55 61 72
f 55 72 71
f 56 70 73
f 56 73 74
f 56 74 57
f 57 74 60
f 57 60 58
f 59 60 74
f 59 74 65
f 62 64 72
f 63 75 64
f 64 70 76
f 64 76 72
f 64 75 77
f 64 77 68
f 65 74 66
f 66 74 67
f 67 74 73
f 67 73 70
f 70 71 76
f 71 72 76
