v -0.106405 -0.556131 -0.314997
v -0.106405 -0.555848 -0.313367
v -0.106405 -0.556018 -0.325158
v -0.0555006 -0.560848 -0.326879
v -0.0431838 -0.561229 -0.314543
v -0.106405 -0.554888 -0.309097
v -0.106405 -0.554591 -0.330513
v -0.0602196 -0.559224 -0.330513
v -0.0555006 -0.55969 -0.330513
v -0.0473158 -0.56034 -0.330513
v -0.0431838 -0.561823 -0.326879
v -0.0308445 -0.56195 -0.314543
v -0.0185051 -0.555608 -0.290202
v -0.0308445 -0.554874 -0.290202
v -0.106405 -0.54897 -0.290202
v -0.106405 -0.421038 -0.330513
v -0.0430258 -0.560622 -0.330513
v -0.0308445 -0.562345 -0.326879
v -0.0185051 -0.561907 -0.314543
v -0.00617698 -0.555227 -0.290202
v -0.106405 -0.444328 -0.290202
v -0.0801681 -0.418072 -0.330513
v -0.0341071 -0.560989 -0.330513
v -0.0185051 -0.562133 -0.326879
v -0.0310251 -0.561046 -0.330513
v -0.00617698 -0.561046 -0.314543
v -0.00308367 -0.55486 -0.290202
v -0.0801681 -0.441786 -0.290202
v -0.06784 -0.421603 -0.324586
v -0.06784 -0.418284 -0.330513
v -0.0761378 -0.431263 -0.307589
v -0.0701769 -0.431263 -0.307589
v -0.0221177 -0.560891 -0.330513
v -0.0185051 -0.560679 -0.330513
v -0.00617698 -0.560326 -0.326879
v 0.0061624 -0.559337 -0.314543
v 0.00588017 -0.553532 -0.290202
v 0.00892832 -0.444978 -0.290202
v -0.0597116 -0.41923 -0.330513
v -0.010625 -0.559521 -0.330513
v -0.00617698 -0.55873 -0.330513
v 0.00892832 -0.557218 -0.327238
v 0.00892832 -0.5588 -0.314334
v 0.00892832 -0.558376 -0.312396
v 0.00609467 -0.55349 -0.290202
v 0.00892832 -0.430896 -0.330513
v 0.00892832 -0.552812 -0.290202
v 0.00892832 -0.555735 -0.330513
f 1 2 6
f 1 6 15
f 1 15 21
f 1 21 16
f 1 16 7
f 1 7 3
f 1 3 4
f 1 4 5
f 1 5 2
f 2 5 6
f 3 7 4
f 4 8 9
f 4 9 10
f 4 10 11
f 4 11 5
f 4 7 8
f 5 11 12
f 5 12 13
f 5 13 14
f 5 14 6
f 6 14 15
f 7 16 22
f 7 22 30
f 7 30 39
f 7 39 46
f 7 46 48
f 7 48 41
f 7 41 40
f 7 40 34
f 7 34 33
f 7 33 25
f 7 25 23
f 7 23 17
f 7 17 10
f 7 10 9
f 7 9 8
f 10 17 11
f 11 18 12
f 11 17 18
f 12 18 19
f 12 19 13
f 13 19 20
f 13 20 27
f 13 27 37
f 13 37 45
f 13 45 47
f 13 47 38
f 13 38 28
f 13 28 21
f 13 21 15
f 13 15 14
f 16 21 22
f 17 23 18
f 18 24 19
f 18 23 25
f 18 25 24
f 19 24 26
f 19 26 20
f 20 26 27
f 21 28 22
f 22 29 30
f 22 28 31
f 22 31 32
f 22 32 29
f 24 25 33
f 24 33 34
f 24 34 35
f 24 35 36
f 24 36 26
f 26 36 27
f 27 36 37
f 28 38 32
f 28 32 31
f 29 32 38
f 29 38 30
f 30 38 39
f 34 40 35
f 35 40 41
f 35 41 42
f 35 42 36
f 36 42 43
f 36 43 44
f 36 44 37
f 37 44 45
f 38 46 39
f 38 47 44
f 38 44 43
f 38 43 42
f 38 42 48
f 38 48 46
f 41 48 42
f 44 47 45
