v -0.234257 -0.328112 -0.480099
v -0.232424 -0.328112 -0.480741
v -0.234257 -0.328112 -0.401211
v -0.234257 -0.309304 -0.483915
v -0.226854 -0.328112 -0.482486
v -0.141848 -0.328112 -0.389999
v -0.154179 -0.302201 -0.388716
v -0.154179 -0.289862 -0.388953
v -0.16651 -0.289862 -0.391148
v -0.213285 0.0125396 -0.418693
v -0.215547 0.0125396 -0.419121
v -0.234257 0.0125396 -0.422757
v -0.189838 -0.328112 -0.491941
v -0.202454 -0.328112 -0.489161
v -0.203525 -0.328112 -0.488902
v -0.214618 -0.328112 -0.486054
v -0.215856 -0.328112 -0.485716
v -0.234257 -0.301867 -0.484377
v -0.0678645 -0.328112 -0.382108
v -0.141848 -0.302201 -0.387478
v -0.141848 -0.289862 -0.387624
v -0.204049 0.0125396 -0.417455
v -0.234257 0.0125396 -0.478985
v -0.17884 -0.328112 -0.493439
v -0.234257 -0.295298 -0.484602
v -0.215856 -0.117185 -0.486763
v -0.129518 -0.289862 -0.387129
v -0.0629132 -0.328112 -0.382221
v -0.0801951 -0.0318135 -0.406423
v -0.0925258 -0.032347 -0.406412
v -0.102571 -0.0342479 -0.406682
v -0.191171 0.0125396 -0.416397
v -0.197122 0.0125396 -0.416881
v -0.234257 0.0122395 -0.47903
v -0.17884 0.0125396 -0.483364
v -0.17884 0.00613678 -0.48539
v -0.16651 -0.228168 -0.492673
v -0.0678645 -0.191184 -0.496512
v -0.0678645 -0.203523 -0.496624
v -0.168914 -0.328112 -0.49381
v -0.203525 -0.117185 -0.488148
v -0.191171 -0.117185 -0.48915
v -0.234257 -0.0868046 -0.482666
v -0.234257 -0.00987035 -0.481405
v -0.228353 -0.00623539 -0.482024
v -0.05551 -0.328112 -0.382638
v -0.0718874 -0.0335142 -0.406693
v -0.0678645 -0.0185075 -0.408224
v -0.0801951 -0.025644 -0.407189
v -0.0925258 -0.026211 -0.407279
v -0.117163 0.0125396 -0.413346
v -0.191171 -0.0061687 -0.485964
v -0.05551 0.0125396 -0.488542
v -0.16651 0.00613678 -0.485795
v -0.17884 -0.0061687 -0.487045
v -0.17884 -0.117185 -0.489746
v -0.05551 -0.191184 -0.496928
v -0.05551 -0.289862 -0.497097
v -0.16651 -0.328112 -0.493889
v -0.0453456 -0.328112 -0.384416
v -0.0244454 0.0125396 -0.415755
v -0.0308487 0.00613678 -0.41419
v -0.0431794 0.00613678 -0.412468
v -0.05551 -0.0061687 -0.410172
v -0.05551 0.00613678 -0.411658
v -0.0678645 -0.0061687 -0.409857
v -0.0801951 -0.0185075 -0.408213
v -0.104856 0.0125396 -0.413053
v -0.0495828 0.0125396 -0.488654
v -0.16651 -0.0061687 -0.487281
v -0.0431794 -0.191184 -0.496816
v -0.0431794 -0.289862 -0.497029
v -0.0431794 0.0125396 -0.488654
v -0.157821 -0.328112 -0.493697
v -0.0431794 -0.302201 -0.495577
v -0.044203 -0.328112 -0.384619
v -0.0141381 0.0125396 -0.417804
v -0.0308487 0.0125396 -0.414843
v -0.036776 0.0125396 -0.41401
v -0.0431794 0.0125396 -0.413436
v -0.0491067 0.0125396 -0.413042
v -0.05551 0.0125396 -0.412727
v -0.0678645 0.0125396 -0.412626
v -0.0678645 0.00613678 -0.411646
v -0.0308487 -0.191184 -0.496467
v -0.0308487 -0.289862 -0.496106
v -0.0308487 -0.302201 -0.494936
v -0.0372521 0.0125396 -0.488474
v -0.0431794 -0.328112 -0.485322
v -0.0431794 -0.309971 -0.493923
v -0.0308487 -0.309037 -0.49363
v -0.0431794 -0.31614 -0.491773
v -0.0431794 -0.326878 -0.486144
v -0.0437745 -0.328112 -0.38472
v 0.00892832 -0.200522 -0.405872
v 0.00892832 0.0125396 -0.42305
v 0.00892832 -0.193352 -0.406446
v -0.0185181 -0.191184 -0.495183
v -0.0308487 0.0125396 -0.48826
v -0.0120195 0.0125396 -0.486797
v 0.000358755 0.0125396 -0.485761
v 0.00892832 0.0125396 -0.484928
v -0.0110673 -0.297832 -0.49363
v -0.0195893 -0.302034 -0.493979
v -0.0162091 -0.306036 -0.493078
v -0.0244454 -0.308403 -0.493416
v -0.0417987 -0.328112 -0.485199
v -0.0308487 -0.315206 -0.491176
v -0.00618744 -0.314539 -0.488801
v -0.0314438 -0.327679 -0.484332
v -0.0314438 -0.328112 -0.484073
v -0.0435603 -0.328112 -0.384776
v 0.00892832 -0.328112 -0.39932
v -0.0102342 -0.181714 -0.493799
v -0.0103056 -0.191184 -0.493788
v 0.00892832 -0.191184 -0.489082
v 0.00616702 -0.191184 -0.490016
v -0.00414026 -0.191184 -0.492561
v 0.00616702 -0.289862 -0.490118
v 0.00616702 -0.302201 -0.489938
v -0.00663972 -0.302034 -0.492459
v -0.0195893 -0.313339 -0.490771
v 0.00616702 -0.314539 -0.486403
v 0.00892832 -0.32301 -0.481551
v -0.00618744 -0.323543 -0.48342
v 0.00892832 -0.328112 -0.477938
v 0.00892832 -0.289862 -0.489431
v 0.00892832 -0.302201 -0.489127
v 0.00892832 -0.305169 -0.488339
v 0.00892832 -0.314606 -0.485626
v 0.00892832 -0.316974 -0.484501
f 1 2 5
f 1 5 17
f 1 17 16
f 1 16 15
f 1 15 14
f 1 14 13
f 1 13 24
f 1 24 40
f 1 40 59
f 1 59 74
f 1 74 89
f 1 89 107
f 1 107 111
f 1 111 126
f 1 126 113
f 1 113 112
f 1 112 94
f 1 94 76
f 1 76 60
f 1 60 46
f 1 46 28
f 1 28 19
f 1 19 6
f 1 6 3
f 1 3 12
f 1 12 23
f 1 23 34
f 1 34 44
f 1 44 43
f 1 43 25
f 1 25 18
f 1 18 4
f 1 4 2
f 2 4 5
f 3 6 7
f 3 7 8
f 3 8 9
f 3 9 10
f 3 10 11
f 3 11 12
f 4 13 14
f 4 14 15
f 4 15 16
f 4 16 17
f 4 17 5
f 4 18 13
f 6 19 7
f 7 20 21
f 7 21 8
f 7 19 20
f 8 21 22
f 8 22 10
f 8 10 9
f 10 22 33
f 10 33 32
f 10 32 51
f 10 51 68
f 10 68 83
f 10 83 82
f 10 82 81
f 10 81 80
f 10 80 79
f 10 79 78
f 10 78 61
f 10 61 77
f 10 77 96
f 10 96 102
f 10 102 101
f 10 101 100
f 10 100 99
f 10 99 88
f 10 88 73
f 10 73 69
f 10 69 53
f 10 53 35
f 10 35 23
f 10 23 12
f 10 12 11
f 13 18 25
f 13 25 26
f 13 26 24
f 19 27 21
f 19 21 20
f 19 28 29
f 19 29 30
f 19 30 27
f 21 27 30
f 21 30 31
f 21 31 32
f 21 32 33
f 21 33 22
f 23 35 36
f 23 36 34
f 24 37 38
f 24 38 39
f 24 39 40
f 24 26 41
f 24 41 42
f 24 42 37
f 25 43 26
f 26 43 44
f 26 44 45
f 26 45 41
f 28 46 47
f 28 47 29
f 29 47 48
f 29 48 49
f 29 49 30
f 30 49 50
f 30 50 51
f 30 51 32
f 30 32 31
f 34 36 52
f 34 52 45
f 34 45 44
f 35 53 36
f 36 54 55
f 36 55 52
f 36 53 54
f 37 42 56
f 37 56 38
f 38 57 39
f 38 56 55
f 38 55 57
f 39 57 58
f 39 58 59
f 39 59 40
f 41 45 52
f 41 52 55
f 41 55 42
f 42 55 56
f 46 60 61
f 46 61 62
f 46 62 63
f 46 63 64
f 46 64 48
f 46 48 47
f 48 64 65
f 48 65 66
f 48 66 49
f 49 66 67
f 49 67 50
f 50 67 68
f 50 68 51
f 53 69 70
f 53 70 55
f 53 55 54
f 55 70 57
f 57 71 72
f 57 72 58
f 57 70 69
f 57 69 73
f 57 73 71
f 58 72 59
f 59 72 75
f 59 75 74
f 60 76 61
f 61 78 62
f 61 76 77
f 62 78 79
f 62 79 63
f 63 79 80
f 63 80 81
f 63 81 65
f 63 65 64
f 65 81 82
f 65 82 83
f 65 83 84
f 65 84 66
f 66 84 67
f 67 84 68
f 68 84 83
f 71 85 72
f 71 73 85
f 72 86 87
f 72 87 75
f 72 85 86
f 73 88 85
f 74 75 90
f 74 90 91
f 74 91 92
f 74 92 93
f 74 93 89
f 75 87 91
f 75 91 90
f 76 94 95
f 76 95 77
f 77 95 97
f 77 97 96
f 85 98 86
f 85 88 99
f 85 99 100
f 85 100 101
f 85 101 102
f 85 102 98
f 86 103 104
f 86 104 87
f 86 98 103
f 87 104 105
f 87 105 106
f 87 106 91
f 89 93 107
f 91 106 92
f 92 106 108
f 92 108 93
f 93 108 109
f 93 109 110
f 93 110 111
f 93 111 107
f 94 112 95
f 95 112 113
f 95 113 126
f 95 126 124
f 95 124 131
f 95 131 130
f 95 130 129
f 95 129 128
f 95 128 127
f 95 127 116
f 95 116 102
f 95 102 96
f 95 96 97
f 98 114 115
f 98 115 103
f 98 102 114
f 102 116 117
f 102 117 118
f 102 118 114
f 103 119 120
f 103 120 121
f 103 121 105
f 103 105 104
f 103 115 118
f 103 118 119
f 105 109 106
f 105 121 109
f 106 109 122
f 106 122 108
f 108 122 109
f 109 121 120
f 109 120 123
f 109 123 124
f 109 124 125
f 109 125 111
f 109 111 110
f 111 125 124
f 111 124 126
f 114 118 115
f 116 127 117
f 117 127 119
f 117 119 118
f 119 127 120
f 120 127 128
f 120 128 129
f 120 129 123
f 123 129 130
f 123 130 131
f 123 131 124
