v 0.322751 0.574936 -0.335081
v 0.253119 0.576773 -0.353343
v 0.253119 0.574818 -0.335081
v 0.326878 0.574799 -0.335081
v 0.314535 0.582324 -0.413217
v 0.302216 0.582422 -0.413217
v 0.253119 0.57906 -0.413217
v 0.253119 0.461445 -0.335081
v 0.335071 0.574349 -0.335081
v 0.326878 0.581582 -0.413217
v 0.326878 0.580721 -0.423681
v 0.314535 0.581034 -0.424674
v 0.302216 0.581015 -0.423259
v 0.253119 0.577711 -0.424629
v 0.253119 0.57904 -0.414196
v 0.253119 0.382729 -0.386585
v 0.37565 0.382729 -0.335337
v 0.283923 0.444244 -0.335081
v 0.339209 0.574095 -0.335081
v 0.345866 0.579803 -0.406939
v 0.339209 0.580507 -0.413217
v 0.345986 0.579803 -0.419646
v 0.339209 0.580155 -0.421317
v 0.326878 0.579314 -0.429853
v 0.314535 0.579431 -0.430832
v 0.253119 0.57732 -0.425517
v 0.253119 0.382729 -0.482712
v 0.37565 0.382729 -0.475486
v 0.37565 0.425068 -0.335081
v 0.302216 0.437422 -0.335081
v 0.293015 0.440041 -0.335081
v 0.289549 0.441487 -0.335081
v 0.35154 0.572903 -0.335081
v 0.363883 0.577438 -0.413217
v 0.352368 0.579138 -0.413217
v 0.346202 0.579822 -0.413217
v 0.363847 0.571241 -0.335081
v 0.374475 0.569619 -0.335081
v 0.339209 0.578728 -0.427475
v 0.37565 0.574486 -0.42499
v 0.37565 0.574427 -0.425547
v 0.363883 0.576167 -0.425547
v 0.35154 0.573489 -0.437893
v 0.339209 0.574506 -0.437893
v 0.35154 0.569169 -0.446128
v 0.339209 0.569345 -0.446068
v 0.314535 0.558164 -0.460506
v 0.253119 0.567273 -0.443839
v 0.253119 0.570655 -0.439037
v 0.253119 0.57087 -0.438721
v 0.253119 0.400888 -0.484413
v 0.314535 0.450245 -0.488885
v 0.326878 0.43791 -0.487469
v 0.326878 0.425576 -0.48616
v 0.339209 0.425576 -0.485166
v 0.339209 0.43791 -0.486461
v 0.35154 0.43791 -0.484082
v 0.36092 0.43791 -0.481839
v 0.367086 0.43791 -0.480348
v 0.37565 0.43791 -0.478105
v 0.37565 0.569404 -0.335081
v 0.37565 0.575444 -0.413217
v 0.363883 0.572004 -0.437893
v 0.37565 0.569834 -0.43851
v 0.363883 0.568524 -0.445496
v 0.363883 0.562836 -0.451668
v 0.363883 0.556679 -0.458157
v 0.326878 0.55793 -0.460235
v 0.326878 0.551909 -0.466407
v 0.314535 0.552026 -0.466663
v 0.253119 0.5566 -0.458443
v 0.253119 0.563129 -0.449576
v 0.302216 0.450245 -0.488553
v 0.253119 0.511896 -0.487244
v 0.314535 0.462579 -0.488237
v 0.326878 0.450245 -0.488538
v 0.339209 0.450245 -0.486973
v 0.35154 0.450245 -0.484278
v 0.361292 0.450245 -0.481929
v 0.367458 0.450245 -0.480439
v 0.37565 0.450245 -0.478406
v 0.372244 0.56786 -0.444668
v 0.37565 0.569404 -0.439534
v 0.37565 0.556366 -0.457299
v 0.37565 0.556073 -0.4576
v 0.37565 0.54927 -0.462899
v 0.37565 0.541999 -0.467913
v 0.37565 0.535763 -0.472053
v 0.326878 0.545752 -0.470231
v 0.253119 0.556464 -0.458563
v 0.253119 0.529645 -0.480559
v 0.253119 0.523468 -0.484202
v 0.37565 0.52423 -0.477096
v 0.37565 0.51303 -0.478993
v 0.37565 0.511642 -0.479219
v 0.326878 0.462579 -0.48756
v 0.37565 0.567488 -0.444005
v 0.37565 0.563755 -0.448597
v 0.37565 0.524719 -0.476961
f 1 2 3
f 1 3 8
f 1 8 18
f 1 18 32
f 1 32 31
f 1 31 30
f 1 30 29
f 1 29 61
f 1 61 38
f 1 38 37
f 1 37 33
f 1 33 19
f 1 19 9
f 1 9 4
f 1 4 5
f 1 5 6
f 1 6 2
f 2 6 7
f 2 7 15
f 2 15 14
f 2 14 26
f 2 26 50
f 2 50 49
f 2 49 48
f 2 48 72
f 2 72 71
f 2 71 90
f 2 90 91
f 2 91 92
f 2 92 74
f 2 74 51
f 2 51 27
f 2 27 16
f 2 16 8
f 2 8 3
f 4 9 5
f 5 10 11
f 5 11 12
f 5 12 6
f 5 9 10
f 6 12 13
f 6 13 14
f 6 14 15
f 6 15 7
f 8 16 17
f 8 17 18
f 9 19 10
f 10 19 20
f 10 20 21
f 10 21 22
f 10 22 23
f 10 23 11
f 11 23 24
f 11 24 12
f 12 24 25
f 12 25 13
f 13 25 14
f 14 25 26
f 16 27 28
f 16 28 17
f 17 28 60
f 17 60 81
f 17 81 95
f 17 95 94
f 17 94 93
f 17 93 99
f 17 99 88
f 17 88 87
f 17 87 86
f 17 86 85
f 17 85 84
f 17 84 98
f 17 98 97
f 17 97 83
f 17 83 64
f 17 64 41
f 17 41 40
f 17 40 62
f 17 62 61
f 17 61 29
f 17 29 30
f 17 30 31
f 17 31 32
f 17 32 18
f 19 33 20
f 20 34 35
f 20 35 36
f 20 36 21
f 20 33 37
f 20 37 38
f 20 38 34
f 21 36 22
f 22 39 23
f 22 36 35
f 22 35 34
f 22 34 40
f 22 40 41
f 22 41 42
f 22 42 39
f 23 39 24
f 24 39 43
f 24 43 44
f 24 44 25
f 25 44 45
f 25 45 46
f 25 46 47
f 25 47 48
f 25 48 49
f 25 49 50
f 25 50 26
f 27 51 52
f 27 52 53
f 27 53 54
f 27 54 28
f 28 54 55
f 28 55 56
f 28 56 57
f 28 57 58
f 28 58 59
f 28 59 60
f 34 62 40
f 34 38 62
f 38 61 62
f 39 42 63
f 39 63 43
f 41 64 63
f 41 63 42
f 43 63 65
f 43 65 44
f 44 65 45
f 45 65 66
f 45 66 67
f 45 67 68
f 45 68 47
f 45 47 46
f 47 68 69
f 47 69 70
f 47 70 71
f 47 71 72
f 47 72 48
f 51 73 52
f 51 74 73
f 52 74 75
f 52 75 76
f 52 76 53
f 52 73 74
f 53 76 56
f 53 56 55
f 53 55 54
f 56 76 77
f 56 77 57
f 57 77 78
f 57 78 58
f 58 78 79
f 58 79 80
f 58 80 59
f 59 80 81
f 59 81 60
f 63 64 82
f 63 82 65
f 64 83 82
f 65 82 84
f 65 84 66
f 66 84 67
f 67 84 85
f 67 85 69
f 67 69 68
f 69 85 86
f 69 86 87
f 69 87 88
f 69 88 89
f 69 89 70
f 70 90 71
f 70 89 91
f 70 91 90
f 74 92 93
f 74 93 94
f 74 94 95
f 74 95 96
f 74 96 75
f 75 96 76
f 76 96 95
f 76 95 77
f 77 95 78
f 78 95 79
f 79 95 80
f 80 95 81
f 82 83 97
f 82 97 98
f 82 98 84
f 88 99 92
f 88 92 89
f 89 92 91
f 92 99 93
