v -0.499892 0.0125985 -0.487781
v -0.505466 0.0125985 -0.487504
v -0.499557 0.21585 -0.49443
v -0.474896 0.0925231 -0.491189
v -0.462574 0.0925231 -0.491327
v -0.394971 0.0125985 -0.486756
v -0.507934 0.21585 -0.493931
v -0.506926 0.20654 -0.49371
v -0.511476 0.0125985 -0.486756
v -0.489971 0.207129 -0.493987
v -0.50748 0.223241 -0.493821
v -0.49776 0.273856 -0.491715
v -0.486849 0.273856 -0.4913
v -0.382145 0.240531 -0.488141
v -0.382632 0.0125985 -0.486424
v -0.388558 0.0125985 -0.486645
v -0.514111 0.21585 -0.492186
v -0.518124 0.0125985 -0.484512
v -0.511274 0.273856 -0.488225
v -0.499557 0.273856 -0.491604
v -0.483105 0.273856 -0.491106
v -0.382145 0.252858 -0.485648
v -0.382145 0.0125985 -0.486396
v -0.520507 0.0125985 -0.483238
v -0.523277 0.21585 -0.486036
v -0.520541 0.273856 -0.483349
v -0.474896 0.273856 -0.48997
v -0.382145 0.260787 -0.482019
v -0.382145 0.0125985 -0.360706
v -0.529455 0.21585 -0.478695
v -0.530513 0.0125985 -0.469303
v -0.525124 0.273856 -0.476866
v -0.382145 0.273856 -0.475259
v -0.382145 0.272296 -0.476091
v -0.382145 0.263754 -0.480551
v -0.382145 0.0140308 -0.360429
v -0.393359 0.0125985 -0.302613
v -0.531805 0.21585 -0.472517
v -0.531604 0.228178 -0.471519
v -0.526719 0.273856 -0.474262
v -0.53058 0.0125985 -0.469165
v -0.382145 0.273856 -0.36018
v -0.382145 0.0185066 -0.359571
v -0.394686 0.0125985 -0.296961
v -0.382145 0.0200667 -0.359321
v -0.382145 0.0308086 -0.358324
v -0.382145 0.0317804 -0.358269
v -0.382145 0.0431873 -0.358241
v -0.539494 0.0431873 -0.42556
v -0.54077 0.191169 -0.42556
v -0.54077 0.252858 -0.42556
v -0.540451 0.265186 -0.42556
v -0.539796 0.273856 -0.42556
v -0.530143 0.273856 -0.462821
v -0.535918 0.0125985 -0.42556
v -0.537043 0.0185066 -0.42556
v -0.53894 0.0308597 -0.42556
v -0.394753 0.273856 -0.308514
v -0.394837 0.0125985 -0.296435
v -0.541861 0.154187 -0.413204
v -0.543758 0.0308597 -0.374032
v -0.544094 0.0431873 -0.375195
v -0.541962 0.166514 -0.413204
v -0.553629 0.0431873 -0.265213
v -0.541458 0.252858 -0.413204
v -0.54683 0.273856 -0.277541
v -0.540333 0.0125985 -0.376165
v -0.543103 0.0228545 -0.371982
v -0.429452 0.273856 -0.211441
v -0.421713 0.0125985 -0.211441
v -0.552756 0.0308597 -0.265213
v -0.545101 0.0308597 -0.215874
v -0.54683 0.067868 -0.215874
v -0.550003 0.141859 -0.215874
v -0.550439 0.154187 -0.215874
v -0.550859 0.166514 -0.215874
v -0.550272 0.178842 -0.215874
v -0.544832 0.273856 -0.211441
v -0.548408 0.0125985 -0.265213
v -0.549936 0.0185066 -0.265213
v -0.541492 0.0125985 -0.211441
v -0.543103 0.0125985 -0.219448
v -0.543691 0.0185577 -0.215957
v -0.543254 0.0212688 -0.211441
v -0.544144 0.0308597 -0.211441
v -0.544463 0.0372025 -0.211441
v -0.544732 0.0431873 -0.211441
v -0.548945 0.141859 -0.211441
v -0.549113 0.146258 -0.211441
v -0.549382 0.154187 -0.211441
v -0.549734 0.166514 -0.211441
v -0.542146 0.0125985 -0.21291
v -0.542281 0.0147469 -0.211441
v -0.542768 0.0125985 -0.217037
v -0.542381 0.0144912 -0.211912
f 1 2 3
f 1 3 4
f 1 4 5
f 1 5 6
f 1 6 16
f 1 16 15
f 1 15 23
f 1 23 29
f 1 29 37
f 1 37 44
f 1 44 59
f 1 59 70
f 1 70 81
f 1 81 92
f 1 92 94
f 1 94 82
f 1 82 79
f 1 79 67
f 1 67 55
f 1 55 41
f 1 41 31
f 1 31 24
f 1 24 18
f 1 18 9
f 1 9 2
f 2 7 8
f 2 8 3
f 2 9 7
f 3 10 5
f 3 5 4
f 3 8 7
f 3 7 11
f 3 11 12
f 3 12 13
f 3 13 14
f 3 14 10
f 5 10 15
f 5 15 16
f 5 16 6
f 7 9 17
f 7 17 11
f 9 18 17
f 10 14 15
f 11 17 19
f 11 19 20
f 11 20 12
f 12 20 19
f 12 19 26
f 12 26 32
f 12 32 40
f 12 40 54
f 12 54 53
f 12 53 66
f 12 66 78
f 12 78 69
f 12 69 58
f 12 58 42
f 12 42 33
f 12 33 27
f 12 27 21
f 12 21 13
f 13 21 14
f 14 21 22
f 14 22 28
f 14 28 35
f 14 35 34
f 14 34 33
f 14 33 42
f 14 42 48
f 14 48 47
f 14 47 46
f 14 46 45
f 14 45 43
f 14 43 36
f 14 36 29
f 14 29 23
f 14 23 15
f 17 18 24
f 17 24 25
f 17 25 26
f 17 26 19
f 21 27 22
f 22 27 28
f 24 30 25
f 24 31 30
f 25 30 26
f 26 30 32
f 27 33 34
f 27 34 35
f 27 35 28
f 29 36 37
f 30 38 39
f 30 39 40
f 30 40 32
f 30 31 41
f 30 41 38
f 36 43 37
f 37 43 45
f 37 45 46
f 37 46 47
f 37 47 48
f 37 48 42
f 37 42 44
f 38 41 49
f 38 49 50
f 38 50 51
f 38 51 52
f 38 52 39
f 39 52 53
f 39 53 54
f 39 54 40
f 41 55 56
f 41 56 57
f 41 57 49
f 42 58 44
f 44 58 59
f 49 60 50
f 49 57 61
f 49 61 62
f 49 62 60
f 50 60 63
f 50 63 51
f 51 63 64
f 51 64 65
f 51 65 52
f 52 65 66
f 52 66 53
f 55 67 68
f 55 68 56
f 56 68 57
f 57 68 61
f 58 69 70
f 58 70 59
f 60 62 64
f 60 64 63
f 61 68 71
f 61 71 64
f 61 64 62
f 64 71 72
f 64 72 73
f 64 73 74
f 64 74 75
f 64 75 76
f 64 76 66
f 64 66 65
f 66 76 77
f 66 77 78
f 67 79 80
f 67 80 68
f 68 80 71
f 69 78 91
f 69 91 90
f 69 90 89
f 69 89 88
f 69 88 87
f 69 87 86
f 69 86 85
f 69 85 84
f 69 84 93
f 69 93 81
f 69 81 70
f 71 80 82
f 71 82 83
f 71 83 72
f 72 83 84
f 72 84 85
f 72 85 86
f 72 86 73
f 73 86 87
f 73 87 74
f 74 87 88
f 74 88 89
f 74 89 75
f 75 89 76
f 76 89 90
f 76 90 91
f 76 91 78
f 76 78 77
f 79 82 80
f 81 93 92
f 82 94 83
f 83 94 95
f 83 95 84
f 84 95 93
f 92 93 95
f 92 95 94
