v 0.581074 0.4823 0.257643
v 0.581074 0.4823 0.252578
v 0.580531 0.4823 0.262509
v 0.588509 0.448057 0.293108
v 0.591057 0.439011 0.293108
v 0.592477 0.433601 0.293108
v 0.580489 0.4823 0.244938
v 0.592477 0.433592 0.293043
v 0.584583 0.459325 0.293108
v 0.587778 0.450231 0.293108
v 0.575372 0.4823 0.293108
v 0.593354 0.425881 0.293108
v 0.589073 0.43789 0.2652
v 0.586044 0.433153 0.232934
v 0.580614 0.462259 0.232934
v 0.576688 0.4823 0.232934
v 0.592999 0.426008 0.289309
v 0.423625 0.4823 0.293108
v 0.593584 0.422245 0.293108
v 0.586817 0.425569 0.232934
v 0.380644 0.4823 0.232934
v 0.587089 0.420832 0.232934
v 0.446389 0.448262 0.293108
v 0.593981 0.413229 0.293108
v 0.446493 0.421973 0.232934
v 0.499916 0.382729 0.293108
v 0.453197 0.438573 0.293108
v 0.451234 0.441341 0.293108
v 0.587214 0.413229 0.232934
v 0.593876 0.410003 0.293108
v 0.452654 0.416943 0.232934
v 0.502381 0.382729 0.232934
v 0.589407 0.382729 0.293108
v 0.586984 0.408492 0.232934
v 0.593354 0.401756 0.293108
v 0.583601 0.382729 0.232934
v 0.590388 0.386219 0.293108
v 0.58642 0.400898 0.232934
v 0.592769 0.39542 0.293108
v 0.584645 0.388558 0.232934
v 0.592289 0.393071 0.293108
v 0.585919 0.396161 0.232934
f 1 2 7
f 1 7 16
f 1 16 21
f 1 21 18
f 1 18 11
f 1 11 3
f 1 3 4
f 1 4 5
f 1 5 6
f 1 6 2
f 2 6 8
f 2 8 7
f 3 9 10
f 3 10 4
f 3 11 9
f 4 10 9
f 4 9 11
f 4 11 18
f 4 18 23
f 4 23 28
f 4 28 27
f 4 27 26
f 4 26 33
f 4 33 37
f 4 37 41
f 4 41 39
f 4 39 35
f 4 35 30
f 4 30 24
f 4 24 19
f 4 19 12
f 4 12 6
f 4 6 5
f 6 12 8
f 7 8 13
f 7 13 14
f 7 14 15
f 7 15 16
f 8 12 17
f 8 17 13
f 12 19 17
f 13 17 14
f 14 17 20
f 14 20 22
f 14 22 29
f 14 29 34
f 14 34 38
f 14 38 42
f 14 42 40
f 14 40 36
f 14 36 32
f 14 32 31
f 14 31 25
f 14 25 21
f 14 21 16
f 14 16 15
f 17 19 22
f 17 22 20
f 18 21 23
f 19 24 22
f 21 25 26
f 21 26 27
f 21 27 28
f 21 28 23
f 22 24 29
f 24 30 29
f 25 31 26
f 26 32 36
f 26 36 33
f 26 31 32
f 29 30 34
f 30 35 34
f 33 36 37
f 34 35 38
f 35 39 38
f 36 40 39
f 36 39 41
f 36 41 37
f 38 39 42
f 39 40 42
