v 0.00889478 0.415116 -0.386587
v 0.00889478 0.415116 -0.482828
v 0.00882765 0.415116 -0.386575
v 0.00889478 0.317297 -0.397737
v 0.00889478 0.413218 -0.482977
v 0.00842489 0.415116 -0.482903
v 0.00614259 0.314544 -0.397563
v -0.131064 0.415116 -0.369981
v 0.00889478 0.314544 -0.398072
v 0.00889478 0.262465 -0.486264
v 0.00614259 0.265218 -0.486809
v -0.0061751 0.265218 -0.489315
v 0.00614259 0.413218 -0.483399
v 0.00614259 0.415116 -0.48325
v -0.0061751 0.314544 -0.396521
v -0.0061751 0.302218 -0.398605
v 0.00889478 0.202063 -0.4198
v -0.133749 0.415116 -0.369757
v 0.00889478 0.250118 -0.486214
v -0.0061751 0.413218 -0.484813
v 0.00889478 0.20392 -0.483225
v -0.0185264 0.265218 -0.490654
v -0.00624223 0.415116 -0.48449
v -0.141871 0.408358 -0.370266
v -0.333953 0.202063 -0.402896
v 0.00889478 0.202063 -0.48289
v -0.13875 0.415116 -0.369373
v -0.0185264 0.400871 -0.486487
v -0.0185264 0.413218 -0.485916
v -0.0308441 0.265218 -0.49089
v -0.265182 0.202063 -0.486164
v -0.277534 0.400871 -0.495578
v -0.277534 0.413218 -0.495466
v -0.0308441 0.388544 -0.487801
v -0.0308441 0.400871 -0.487454
v -0.0185264 0.415116 -0.485544
v -0.141871 0.414511 -0.369236
v -0.154222 0.415116 -0.368877
v -0.333953 0.415116 -0.369187
v -0.333953 0.202063 -0.479132
v -0.141871 0.415116 -0.369162
v -0.0308441 0.413218 -0.486412
v -0.277534 0.388544 -0.495007
v -0.276057 0.202063 -0.486078
v -0.289851 0.388544 -0.494251
v -0.289851 0.400871 -0.494635
v -0.289851 0.413218 -0.494573
v -0.291798 0.415116 -0.494275
v -0.280554 0.415116 -0.495069
v -0.277534 0.415116 -0.495206
v -0.333953 0.415116 -0.483473
v -0.333953 0.208466 -0.480211
v -0.277534 0.202063 -0.486003
v -0.296363 0.381224 -0.493457
v -0.296832 0.388544 -0.493556
v -0.29747 0.400871 -0.493693
v -0.297336 0.413218 -0.49368
v -0.297101 0.415116 -0.493643
v -0.333953 0.240544 -0.483262
v -0.316433 0.415116 -0.488459
v -0.31452 0.400871 -0.489439
v -0.31452 0.388544 -0.489501
v -0.333953 0.228218 -0.48232
v -0.333953 0.233161 -0.482766
v -0.303008 0.388544 -0.492316
v -0.303646 0.400871 -0.492353
v -0.303512 0.413218 -0.492192
v -0.305223 0.415116 -0.491473
f 1 2 6
f 1 6 14
f 1 14 23
f 1 23 36
f 1 36 50
f 1 50 49
f 1 49 48
f 1 48 58
f 1 58 68
f 1 68 60
f 1 60 51
f 1 51 39
f 1 39 38
f 1 38 41
f 1 41 27
f 1 27 18
f 1 18 8
f 1 8 3
f 1 3 4
f 1 4 9
f 1 9 17
f 1 17 26
f 1 26 21
f 1 21 19
f 1 19 10
f 1 10 5
f 1 5 2
f 2 5 6
f 3 7 4
f 3 8 7
f 4 7 9
f 5 10 11
f 5 11 12
f 5 12 13
f 5 13 6
f 6 13 14
f 7 15 16
f 7 16 17
f 7 17 9
f 7 8 15
f 8 18 15
f 10 19 12
f 10 12 11
f 12 20 13
f 12 19 21
f 12 21 22
f 12 22 20
f 13 20 14
f 14 20 23
f 15 18 24
f 15 24 16
f 16 24 25
f 16 25 17
f 17 25 40
f 17 40 53
f 17 53 44
f 17 44 31
f 17 31 26
f 18 27 24
f 20 22 28
f 20 28 29
f 20 29 23
f 21 30 22
f 21 26 31
f 21 31 30
f 22 30 32
f 22 32 33
f 22 33 34
f 22 34 35
f 22 35 28
f 23 29 36
f 24 27 37
f 24 37 38
f 24 38 25
f 25 38 39
f 25 39 51
f 25 51 59
f 25 59 64
f 25 64 63
f 25 63 52
f 25 52 40
f 27 41 37
f 28 35 29
f 29 35 42
f 29 42 36
f 30 31 43
f 30 43 32
f 31 44 43
f 32 43 45
f 32 45 46
f 32 46 47
f 32 47 33
f 33 47 48
f 33 48 49
f 33 49 50
f 33 50 42
f 33 42 35
f 33 35 34
f 36 42 50
f 37 41 38
f 40 52 53
f 43 44 53
f 43 53 45
f 45 54 46
f 45 53 54
f 46 54 55
f 46 55 56
f 46 56 57
f 46 57 47
f 47 57 58
f 47 58 48
f 51 60 61
f 51 61 62
f 51 62 59
f 52 63 53
f 53 63 64
f 53 64 59
f 53 59 54
f 54 59 55
f 55 59 56
f 56 59 65
f 56 65 66
f 56 66 57
f 57 66 67
f 57 67 58
f 58 67 68
f 59 62 66
f 59 66 65
f 60 68 67
f 60 67 61
f 61 67 66
f 61 66 62
