v 0.616728 0.382729 0.419513
v 0.615185 0.382729 0.425085
v 0.616728 0.382729 0.419231
v 0.613581 0.416757 0.413209
v 0.613306 0.416757 0.422027
v 0.613184 0.416757 0.425555
v 0.61352 0.413223 0.425555
v 0.614253 0.400889 0.425555
v 0.609456 0.416757 0.437882
v 0.609517 0.413223 0.437882
v 0.613153 0.382729 0.430058
v 0.611366 0.388558 0.388573
v 0.611213 0.400889 0.388573
v 0.610693 0.413223 0.388573
v 0.614864 0.400889 0.413209
v 0.613902 0.413223 0.413209
v 0.609181 0.382729 0.376227
v 0.610403 0.416757 0.388573
v 0.605591 0.416757 0.4461
v 0.609945 0.382729 0.437882
v 0.593979 0.413223 0.293108
v 0.608555 0.413223 0.376227
v 0.609884 0.416757 0.385027
v 0.591718 0.382729 0.297798
v 0.59181 0.383538 0.297329
v 0.59265 0.391759 0.294684
v 0.592757 0.395416 0.293108
v 0.593353 0.401752 0.293108
v 0.593872 0.409992 0.293108
v 0.593567 0.416757 0.467171
v 0.592329 0.382729 0.469084
v 0.593643 0.382729 0.466776
v 0.593826 0.416757 0.293108
v 0.608356 0.416757 0.376227
v 0.589396 0.382729 0.293108
v 0.590389 0.386216 0.293108
v 0.592283 0.393071 0.293108
v 0.592375 0.416757 0.469103
v 0.585989 0.382729 0.475257
v 0.503914 0.416757 0.293108
v 0.499941 0.382729 0.293108
v 0.587807 0.416757 0.4731
v 0.579449 0.382729 0.480924
v 0.468453 0.382729 0.334874
v 0.465061 0.382729 0.340465
v 0.463442 0.382729 0.344068
v 0.467949 0.395613 0.356414
v 0.46694 0.397401 0.3639
v 0.469767 0.405925 0.376227
v 0.477269 0.416757 0.381049
v 0.585912 0.416757 0.474563
v 0.579022 0.400889 0.480792
v 0.577005 0.382729 0.482012
v 0.461792 0.382729 0.352061
v 0.464924 0.388751 0.352004
v 0.460661 0.382729 0.358571
v 0.462785 0.388558 0.3639
v 0.46691 0.39976 0.376227
v 0.474977 0.416757 0.392119
v 0.47545 0.416757 0.388573
v 0.580183 0.416757 0.478766
v 0.577891 0.413223 0.480511
v 0.572865 0.400889 0.482931
v 0.573155 0.388558 0.483344
v 0.573903 0.382729 0.48325
v 0.462189 0.382729 0.370411
v 0.464358 0.388558 0.376227
v 0.467918 0.398764 0.384539
v 0.476337 0.416757 0.401107
v 0.577234 0.416757 0.480361
v 0.572834 0.416757 0.481637
v 0.571719 0.413223 0.482293
v 0.561238 0.382729 0.484789
v 0.567532 0.382729 0.484207
v 0.465871 0.382729 0.38103
v 0.467399 0.388558 0.385327
v 0.475298 0.413223 0.400881
v 0.476688 0.416757 0.40317
v 0.571077 0.416757 0.482087
v 0.561238 0.388558 0.484414
v 0.556945 0.382729 0.483644
v 0.467613 0.382729 0.384689
v 0.469171 0.382729 0.387954
v 0.470348 0.388558 0.391462
v 0.474396 0.400889 0.400881
v 0.479132 0.413223 0.410413
v 0.479438 0.416757 0.409981
v 0.564507 0.416757 0.482087
v 0.5534 0.388558 0.482143
v 0.552804 0.382729 0.482443
v 0.473571 0.382729 0.395815
v 0.475466 0.388558 0.400881
v 0.479178 0.400889 0.410113
v 0.483013 0.413223 0.416586
v 0.483044 0.416757 0.416154
v 0.480278 0.416757 0.411745
v 0.55835 0.416757 0.479873
v 0.551949 0.416757 0.476702
v 0.548908 0.416757 0.475163
v 0.542736 0.416757 0.471542
v 0.540261 0.413223 0.470416
v 0.549886 0.382729 0.480417
v 0.480553 0.382729 0.407936
v 0.480034 0.388558 0.408837
v 0.483884 0.388558 0.41501
v 0.483227 0.400889 0.416286
v 0.484816 0.416757 0.418575
v 0.489399 0.400889 0.423509
v 0.540673 0.416757 0.470173
v 0.546632 0.382729 0.478072
v 0.533309 0.400889 0.466533
v 0.481455 0.382729 0.4094
v 0.484312 0.382729 0.413715
v 0.490668 0.382729 0.422778
v 0.490041 0.388558 0.423397
v 0.489216 0.416757 0.423322
v 0.495602 0.388558 0.42957
v 0.519559 0.388558 0.454749
v 0.536288 0.416757 0.466382
v 0.534104 0.413223 0.465125
v 0.539069 0.382729 0.471899
v 0.532912 0.388558 0.466758
v 0.526159 0.400889 0.46036
v 0.525731 0.388558 0.460604
v 0.496107 0.382729 0.428951
v 0.520093 0.382729 0.453924
v 0.526251 0.382729 0.460303
v 0.532912 0.382729 0.466476
f 1 2 11
f 1 11 20
f 1 20 32
f 1 32 31
f 1 31 39
f 1 39 43
f 1 43 53
f 1 53 65
f 1 65 74
f 1 74 73
f 1 73 81
f 1 81 90
f 1 90 102
f 1 102 110
f 1 110 121
f 1 121 128
f 1 128 127
f 1 127 126
f 1 126 125
f 1 125 114
f 1 114 113
f 1 113 112
f 1 112 103
f 1 103 91
f 1 91 83
f 1 83 82
f 1 82 75
f 1 75 66
f 1 66 56
f 1 56 54
f 1 54 46
f 1 46 45
f 1 45 44
f 1 44 41
f 1 41 35
f 1 35 24
f 1 24 17
f 1 17 3
f 1 3 4
f 1 4 5
f 1 5 6
f 1 6 7
f 1 7 8
f 1 8 2
f 2 8 9
f 2 9 10
f 2 10 11
f 3 12 13
f 3 13 14
f 3 14 15
f 3 15 16
f 3 16 4
f 3 17 12
f 4 16 18
f 4 18 23
f 4 23 34
f 4 34 33
f 4 33 40
f 4 40 50
f 4 50 60
f 4 60 59
f 4 59 69
f 4 69 78
f 4 78 87
f 4 87 96
f 4 96 95
f 4 95 107
f 4 107 116
f 4 116 119
f 4 119 109
f 4 109 100
f 4 100 99
f 4 99 98
f 4 98 97
f 4 97 88
f 4 88 79
f 4 79 71
f 4 71 70
f 4 70 61
f 4 61 51
f 4 51 42
f 4 42 38
f 4 38 30
f 4 30 19
f 4 19 9
f 4 9 6
f 4 6 5
f 6 9 7
f 7 9 8
f 9 19 10
f 10 20 11
f 10 19 20
f 12 17 21
f 12 21 13
f 13 21 22
f 13 22 14
f 14 22 23
f 14 23 18
f 14 18 16
f 14 16 15
f 17 24 25
f 17 25 26
f 17 26 27
f 17 27 28
f 17 28 29
f 17 29 21
f 19 30 31
f 19 31 32
f 19 32 20
f 21 29 28
f 21 28 27
f 21 27 37
f 21 37 36
f 21 36 35
f 21 35 41
f 21 41 40
f 21 40 33
f 21 33 22
f 22 33 34
f 22 34 23
f 24 35 25
f 25 35 36
f 25 36 37
f 25 37 26
f 26 37 27
f 30 38 31
f 31 38 39
f 38 42 39
f 39 42 43
f 40 41 44
f 40 44 45
f 40 45 46
f 40 46 47
f 40 47 48
f 40 48 49
f 40 49 50
f 42 51 52
f 42 52 43
f 43 52 53
f 46 54 48
f 46 48 55
f 46 55 47
f 47 55 48
f 48 54 56
f 48 56 57
f 48 57 49
f 49 57 58
f 49 58 59
f 49 59 60
f 49 60 50
f 51 61 52
f 52 62 63
f 52 63 64
f 52 64 65
f 52 65 53
f 52 61 62
f 56 66 58
f 56 58 57
f 58 66 67
f 58 67 68
f 58 68 69
f 58 69 59
f 61 70 62
f 62 71 72
f 62 72 63
f 62 70 71
f 63 72 73
f 63 73 74
f 63 74 64
f 64 74 65
f 66 75 76
f 66 76 67
f 67 76 68
f 68 76 77
f 68 77 78
f 68 78 69
f 71 79 72
f 72 80 73
f 72 79 80
f 73 80 81
f 75 82 76
f 76 82 83
f 76 83 84
f 76 84 85
f 76 85 77
f 77 85 86
f 77 86 78
f 78 86 87
f 79 88 80
f 80 89 81
f 80 88 89
f 81 89 90
f 83 91 92
f 83 92 84
f 84 92 93
f 84 93 85
f 85 93 86
f 86 93 94
f 86 94 95
f 86 95 96
f 86 96 87
f 88 97 89
f 89 97 98
f 89 98 99
f 89 99 100
f 89 100 101
f 89 101 90
f 90 101 102
f 91 103 104
f 91 104 92
f 92 104 93
f 93 104 105
f 93 105 106
f 93 106 94
f 94 107 95
f 94 106 108
f 94 108 107
f 100 109 101
f 101 110 102
f 101 109 111
f 101 111 110
f 103 112 104
f 104 112 105
f 105 112 113
f 105 113 114
f 105 114 115
f 105 115 106
f 106 115 108
f 107 108 116
f 108 115 117
f 108 117 118
f 108 118 116
f 109 119 120
f 109 120 111
f 110 111 122
f 110 122 121
f 111 120 123
f 111 123 124
f 111 124 122
f 114 125 115
f 115 125 117
f 116 118 123
f 116 123 120
f 116 120 119
f 117 125 118
f 118 126 127
f 118 127 124
f 118 124 123
f 118 125 126
f 121 122 124
f 121 124 128
f 124 127 128
