v 0.423481 0.138702 -0.321735
v 0.417828 0.171167 -0.321735
v 0.587205 0.138702 -0.321735
v 0.428684 0.138702 -0.178858
v 0.420519 0.163164 -0.14187
v 0.418225 0.170283 -0.12952
v 0.41566 0.178859 -0.117202
v 0.415335 0.178859 -0.12952
v 0.412029 0.19121 -0.104851
v 0.412084 0.19121 -0.117202
v 0.415985 0.184019 -0.321735
v 0.588054 0.149046 -0.321735
v 0.587404 0.138702 -0.318973
v 0.42937 0.138702 -0.170017
v 0.416888 0.180269 -0.0925328
v 0.412662 0.19121 -0.0925328
v 0.410584 0.203537 -0.0801821
v 0.41035 0.203537 -0.0925328
v 0.414396 0.196346 -0.321735
v 0.588397 0.154206 -0.321735
v 0.592551 0.138702 -0.223905
v 0.587711 0.138702 -0.31452
v 0.429677 0.138702 -0.167612
v 0.419219 0.197039 0.0103029
v 0.418984 0.196633 0.0061427
v 0.417557 0.181463 -0.0801821
v 0.418388 0.195414 -0.00617549
v 0.415443 0.203537 -0.00617549
v 0.414558 0.203537 -0.0185262
v 0.409591 0.215887 -0.0678639
v 0.412571 0.215887 -0.00617549
v 0.411867 0.215887 -0.0185262
v 0.411271 0.215887 -0.0308444
v 0.409464 0.215887 -0.0801821
v 0.40885 0.240541 -0.240513
v 0.413655 0.203537 -0.321735
v 0.588632 0.161396 -0.321735
v 0.592606 0.141855 -0.224035
v 0.59257 0.138702 -0.221922
v 0.588776 0.166532 -0.321735
v 0.4304 0.138702 -0.164102
v 0.431447 0.172409 -0.023629
v 0.429749 0.182944 0.0103029
v 0.429298 0.182466 0.0061427
v 0.427311 0.186074 0.0103029
v 0.423391 0.191162 0.0103029
v 0.423138 0.190469 0.0061427
v 0.417015 0.203417 0.0103029
v 0.416491 0.203537 0.0061427
v 0.413366 0.215887 0.0061427
v 0.41053 0.228214 -0.0308444
v 0.410024 0.228214 -0.043195
v 0.409826 0.228214 -0.0555132
v 0.408074 0.265194 -0.252864
v 0.411235 0.228214 -0.0185262
v 0.408128 0.252892 -0.252864
v 0.408326 0.252892 -0.265182
v 0.409501 0.240541 -0.277533
v 0.410819 0.228214 -0.289851
v 0.409772 0.240541 -0.289851
v 0.413276 0.208697 -0.321735
v 0.592461 0.154206 -0.218867
v 0.592533 0.141401 -0.215292
v 0.592533 0.138702 -0.215422
v 0.589065 0.166532 -0.31452
v 0.590655 0.376207 -0.289851
v 0.582888 0.382729 -0.321735
v 0.590492 0.382729 -0.289851
v 0.432531 0.138702 -0.154221
v 0.444073 0.138702 -0.104851
v 0.476424 0.138702 0.0103029
v 0.447054 0.138702 -0.0940603
v 0.447397 0.138702 -0.0928253
v 0.415805 0.207669 0.0103029
v 0.413727 0.215887 0.0103029
v 0.413474 0.22002 0.0103029
v 0.411867 0.240541 -0.0308444
v 0.410747 0.339203 -0.321735
v 0.40829 0.265194 -0.265182
v 0.412589 0.240541 -0.0185262
v 0.412066 0.228214 -0.00617549
v 0.413583 0.232347 0.0103029
v 0.408832 0.252892 -0.277533
v 0.409609 0.252892 -0.289851
v 0.410747 0.326972 -0.321735
v 0.412138 0.240851 -0.321735
v 0.412842 0.215887 -0.321735
v 0.589625 0.382729 -0.104851
v 0.58856 0.382729 -0.00617549
v 0.589156 0.166532 -0.0185262
v 0.589138 0.154206 -0.0185262
v 0.588198 0.141855 -0.0185262
v 0.587404 0.138702 -0.0185262
v 0.419435 0.382729 -0.321735
v 0.575355 0.138702 0.0103029
v 0.413204 0.228214 0.0103029
v 0.416545 0.252892 0.0103029
v 0.415154 0.244674 0.0103029
v 0.584531 0.382729 0.0063052
v 0.588614 0.178859 -0.00617549
v 0.588325 0.166532 -0.00617549
v 0.586898 0.154206 -0.00617549
v 0.583466 0.14121 -0.00529794
v 0.583068 0.138702 -0.00614298
v 0.417214 0.256045 0.0103029
v 0.418532 0.262017 0.0103029
v 0.419706 0.266126 0.0103029
v 0.420356 0.268204 0.0103029
v 0.424077 0.277521 0.0103029
v 0.475593 0.382729 0.0103029
v 0.580196 0.178859 0.0103029
v 0.583267 0.166532 0.0043876
v 0.58361 0.178859 0.00549266
v 0.582003 0.382729 0.0103029
v 0.580377 0.19121 0.0103029
f 1 2 11
f 1 11 19
f 1 19 36
f 1 36 61
f 1 61 87
f 1 87 86
f 1 86 85
f 1 85 78
f 1 78 94
f 1 94 67
f 1 67 40
f 1 40 37
f 1 37 20
f 1 20 12
f 1 12 3
f 1 3 13
f 1 13 22
f 1 22 21
f 1 21 39
f 1 39 64
f 1 64 93
f 1 93 104
f 1 104 95
f 1 95 71
f 1 71 73
f 1 73 72
f 1 72 70
f 1 70 69
f 1 69 41
f 1 41 23
f 1 23 14
f 1 14 4
f 1 4 5
f 1 5 6
f 1 6 7
f 1 7 8
f 1 8 9
f 1 9 10
f 1 10 2
f 2 10 11
f 3 12 13
f 4 14 6
f 4 6 5
f 6 14 15
f 6 15 7
f 7 9 8
f 7 15 16
f 7 16 9
f 9 16 17
f 9 17 18
f 9 18 10
f 10 18 19
f 10 19 11
f 12 20 21
f 12 21 22
f 12 22 13
f 14 23 24
f 14 24 25
f 14 25 26
f 14 26 15
f 15 26 25
f 15 25 27
f 15 27 16
f 16 27 28
f 16 28 29
f 16 29 17
f 17 30 18
f 17 29 31
f 17 31 32
f 17 32 33
f 17 33 30
f 18 30 34
f 18 34 35
f 18 35 36
f 18 36 19
f 20 37 21
f 21 38 39
f 21 37 40
f 21 40 38
f 23 41 42
f 23 42 43
f 23 43 44
f 23 44 45
f 23 45 46
f 23 46 47
f 23 47 24
f 24 47 46
f 24 46 45
f 24 45 43
f 24 43 71
f 24 71 95
f 24 95 111
f 24 111 115
f 24 115 114
f 24 114 110
f 24 110 109
f 24 109 108
f 24 108 107
f 24 107 106
f 24 106 105
f 24 105 97
f 24 97 98
f 24 98 82
f 24 82 96
f 24 96 76
f 24 76 75
f 24 75 74
f 24 74 48
f 24 48 49
f 24 49 25
f 25 49 28
f 25 28 27
f 28 49 50
f 28 50 29
f 29 50 31
f 30 33 51
f 30 51 52
f 30 52 53
f 30 53 54
f 30 54 34
f 31 50 55
f 31 55 51
f 31 51 32
f 32 51 33
f 34 54 56
f 34 56 35
f 35 56 57
f 35 57 58
f 35 58 59
f 35 59 36
f 36 59 60
f 36 60 61
f 38 62 63
f 38 63 64
f 38 64 39
f 38 40 65
f 38 65 66
f 38 66 62
f 40 67 68
f 40 68 66
f 40 66 65
f 41 69 42
f 42 70 43
f 42 69 70
f 43 45 44
f 43 70 72
f 43 72 73
f 43 73 71
f 48 74 49
f 49 74 50
f 50 74 75
f 50 75 76
f 50 76 55
f 51 55 77
f 51 77 52
f 52 77 78
f 52 78 54
f 52 54 53
f 54 78 79
f 54 79 57
f 54 57 56
f 55 80 77
f 55 76 81
f 55 81 82
f 55 82 80
f 57 79 83
f 57 83 60
f 57 60 58
f 58 60 59
f 60 84 85
f 60 85 86
f 60 86 87
f 60 87 61
f 60 83 84
f 62 66 88
f 62 88 63
f 63 88 89
f 63 89 90
f 63 90 64
f 64 90 91
f 64 91 92
f 64 92 93
f 66 68 88
f 67 94 110
f 67 110 114
f 67 114 99
f 67 99 89
f 67 89 88
f 67 88 68
f 76 96 81
f 77 80 78
f 78 85 79
f 78 80 97
f 78 97 94
f 79 85 83
f 80 82 98
f 80 98 97
f 81 96 82
f 83 85 84
f 89 99 100
f 89 100 90
f 90 100 91
f 91 100 101
f 91 101 92
f 92 101 102
f 92 102 103
f 92 103 93
f 93 103 104
f 94 97 105
f 94 105 106
f 94 106 107
f 94 107 108
f 94 108 109
f 94 109 110
f 95 104 103
f 95 103 102
f 95 102 112
f 95 112 111
f 99 113 100
f 99 114 113
f 100 113 101
f 101 113 112
f 101 112 102
f 111 112 113
f 111 113 115
f 113 114 115
