v 0.00892832 -0.328112 -0.399328
v 0.00892832 -0.4309 -0.330517
v 0.00892832 -0.328112 -0.477946
v -0.0435603 -0.328112 -0.384782
v 0.00892832 -0.555736 -0.330517
v -0.044203 -0.328112 -0.384618
v -0.05551 -0.328112 -0.38264
v -0.234257 -0.383473 -0.330517
v 0.00892832 -0.37034 -0.493621
v 0.00381038 -0.368972 -0.494095
v -0.0314438 -0.328112 -0.484076
v 0.00154897 -0.555508 -0.376233
v 0.00892832 -0.55373 -0.37486
v -0.00618744 -0.558723 -0.330517
v -0.00618744 -0.557082 -0.376233
v -0.0629132 -0.328112 -0.382232
v -0.234257 -0.368242 -0.343413
v -0.234257 -0.546639 -0.330517
v 0.00892832 -0.374079 -0.494095
v -0.00618744 -0.376223 -0.4964
v -0.00618744 -0.368014 -0.494716
v -0.0417987 -0.328112 -0.485204
v 0.00892832 -0.550766 -0.425545
v -0.0106389 -0.559521 -0.330517
v -0.0185181 -0.560661 -0.330517
v -0.0185181 -0.558678 -0.376233
v -0.0122337 -0.555098 -0.419465
v -0.0678645 -0.328112 -0.382117
v -0.141848 -0.328112 -0.389995
v -0.234257 -0.328112 -0.401224
v -0.234257 -0.553342 -0.413238
v -0.188695 -0.554847 -0.330517
v 0.00892832 -0.376793 -0.494209
v 0.00721441 -0.375653 -0.494504
v -0.00618744 -0.388558 -0.496138
v -0.0185181 -0.388558 -0.497004
v -0.0185181 -0.376223 -0.496939
v -0.154179 -0.330324 -0.493981
v -0.157821 -0.328112 -0.493703
v -0.0431794 -0.328112 -0.485318
v 0.00892832 -0.547414 -0.437886
v -0.0221125 -0.560889 -0.330517
v -0.0185181 -0.555463 -0.420871
v -0.0308487 -0.559863 -0.363893
v -0.0308487 -0.559248 -0.376233
v -0.05551 -0.557241 -0.425545
v -0.0308487 -0.556056 -0.423371
v -0.234257 -0.328112 -0.480088
v -0.160106 -0.557515 -0.330517
v -0.16651 -0.557104 -0.330517
v -0.173199 -0.556671 -0.330517
v -0.182482 -0.555782 -0.330517
v -0.186148 -0.555258 -0.330517
v -0.234257 -0.55243 -0.419269
v -0.172913 -0.555075 -0.419432
v -0.154179 -0.557788 -0.330517
v 0.00892832 -0.377978 -0.494209
v -0.00618744 -0.487219 -0.492019
v -0.0153521 -0.487219 -0.493163
v -0.0215174 -0.487219 -0.493703
v -0.0308487 -0.474883 -0.494847
v 0.00892832 -0.385845 -0.493981
v 0.00892832 -0.487219 -0.489764
v -0.0431794 -0.474883 -0.495239
v -0.0308487 -0.388558 -0.497299
v -0.0308487 -0.376223 -0.497102
v -0.154179 -0.339216 -0.495582
v -0.16651 -0.328112 -0.493883
v 0.00892832 -0.544769 -0.443492
v -0.0308487 -0.554414 -0.429533
v -0.0386804 -0.554893 -0.431021
v -0.0469167 -0.555326 -0.432345
v -0.05551 -0.552818 -0.439438
v -0.0310392 -0.561049 -0.330517
v -0.0431794 -0.560274 -0.363893
v -0.05551 -0.555668 -0.43326
v -0.0429651 -0.556352 -0.426362
v -0.0678645 -0.557104 -0.425545
v -0.0678645 -0.55585 -0.433914
v -0.232424 -0.328112 -0.480741
v -0.234257 -0.351233 -0.482948
v -0.234257 -0.551062 -0.425545
v -0.16651 -0.554003 -0.426101
v -0.0801951 -0.555691 -0.433603
v -0.0341099 -0.560981 -0.330517
v -0.00618744 -0.499554 -0.490107
v -0.0234694 -0.493672 -0.493474
v 0.00616702 -0.499554 -0.488293
v -0.0308487 -0.487219 -0.494275
v -0.0431794 -0.487219 -0.494716
v 0.00892832 -0.499554 -0.487851
v -0.05551 -0.487219 -0.49501
v -0.05551 -0.474883 -0.495403
v -0.0431794 -0.388558 -0.497429
v -0.05551 -0.388558 -0.497462
v -0.0431794 -0.376223 -0.497086
v -0.16651 -0.339216 -0.495631
v -0.168914 -0.328112 -0.493801
v 0.00892832 -0.543811 -0.445257
v -0.0678645 -0.553456 -0.440076
v -0.0801951 -0.553502 -0.439782
v -0.226854 -0.328112 -0.482474
v -0.225568 -0.328112 -0.482866
v -0.215856 -0.328112 -0.48571
v -0.214618 -0.328112 -0.486053
v -0.234257 -0.376063 -0.485449
v -0.234257 -0.545658 -0.434927
v -0.17884 -0.544541 -0.446793
v -0.17884 -0.549306 -0.437886
v -0.16651 -0.55015 -0.437886
v -0.00618744 -0.510567 -0.48468
v -0.0308487 -0.500535 -0.491954
v -0.019018 -0.498505 -0.491758
v 0.00892832 -0.501492 -0.487067
v 0.00892832 -0.509222 -0.483585
v 0.00616702 -0.509496 -0.483814
v -0.0431794 -0.501629 -0.492363
v -0.05551 -0.502632 -0.492706
v -0.0308487 -0.494356 -0.493637
v -0.0431794 -0.49545 -0.493866
v -0.05551 -0.496476 -0.494046
v -0.0678645 -0.487219 -0.495108
v -0.17884 -0.4379 -0.497478
v -0.17884 -0.425564 -0.497315
v -0.154179 -0.351552 -0.496007
v -0.17884 -0.339216 -0.494912
v -0.17884 -0.330483 -0.493785
v -0.17884 -0.328112 -0.493441
v -0.0308487 -0.518548 -0.481624
v -0.0235884 -0.518206 -0.481232
v 0.00892832 -0.516655 -0.476688
v -0.0678645 -0.5473 -0.448657
v -0.0801951 -0.547323 -0.449294
v -0.0925258 -0.546981 -0.44931
v -0.16651 -0.545043 -0.447055
v -0.203525 -0.328112 -0.488897
v -0.228187 -0.425564 -0.489371
v -0.234257 -0.407187 -0.486838
v -0.202454 -0.328112 -0.489159
v -0.192956 -0.339216 -0.492412
v -0.186791 -0.339216 -0.493785
v -0.209524 -0.420115 -0.493376
v -0.234257 -0.524476 -0.466342
v -0.191171 -0.543811 -0.445813
v -0.17884 -0.540209 -0.452955
v -0.0190894 -0.512802 -0.484566
v -0.0308487 -0.51189 -0.486348
v -0.0431794 -0.51189 -0.487345
v 0.00892832 -0.510613 -0.48236
v -0.05551 -0.51189 -0.488113
v -0.0678645 -0.503043 -0.492837
v -0.0678645 -0.496886 -0.494095
v -0.0801951 -0.487219 -0.494961
v -0.234257 -0.487219 -0.486952
v -0.234257 -0.474883 -0.488325
v -0.191171 -0.4379 -0.496334
v -0.191171 -0.425564 -0.496351
v -0.0925258 -0.494971 -0.493834
v -0.100191 -0.494036 -0.493605
v -0.185434 -0.332467 -0.493474
v -0.189838 -0.328112 -0.491938
v -0.0431794 -0.519026 -0.482196
v 0.00892832 -0.515401 -0.478061
v -0.05551 -0.519414 -0.482637
v -0.0801951 -0.519323 -0.482621
v -0.0678645 -0.519505 -0.482768
v -0.17884 -0.534052 -0.461373
v -0.17884 -0.529241 -0.467535
v -0.234257 -0.462548 -0.488309
v -0.234257 -0.425564 -0.487655
v -0.214856 -0.424766 -0.492379
v -0.19029 -0.328112 -0.491839
v -0.204668 -0.424766 -0.494389
v -0.210072 -0.428346 -0.49349
v -0.234257 -0.520942 -0.471082
v -0.0678645 -0.51189 -0.488374
v -0.0801951 -0.51189 -0.487966
v -0.0801951 -0.502382 -0.492575
v -0.0801951 -0.496225 -0.494013
v -0.234257 -0.493603 -0.485612
v -0.210072 -0.432314 -0.49349
v -0.234257 -0.4996 -0.484337
v -0.0925258 -0.518981 -0.482196
v -0.234257 -0.517476 -0.474122
v -0.234257 -0.509496 -0.479908
v -0.234257 -0.506714 -0.481787
v -0.234257 -0.504913 -0.482523
f 1 2 5
f 1 5 13
f 1 13 23
f 1 23 41
f 1 41 69
f 1 69 99
f 1 99 131
f 1 131 163
f 1 163 149
f 1 149 115
f 1 115 114
f 1 114 91
f 1 91 63
f 1 63 62
f 1 62 57
f 1 57 33
f 1 33 19
f 1 19 9
f 1 9 3
f 1 3 11
f 1 11 22
f 1 22 40
f 1 40 39
f 1 39 68
f 1 68 98
f 1 98 128
f 1 128 161
f 1 161 172
f 1 172 139
f 1 139 136
f 1 136 105
f 1 105 104
f 1 104 103
f 1 103 102
f 1 102 80
f 1 80 48
f 1 48 30
f 1 30 29
f 1 29 28
f 1 28 16
f 1 16 7
f 1 7 6
f 1 6 4
f 1 4 2
f 2 4 6
f 2 6 7
f 2 7 8
f 2 8 18
f 2 18 32
f 2 32 53
f 2 53 52
f 2 52 51
f 2 51 50
f 2 50 49
f 2 49 56
f 2 56 85
f 2 85 74
f 2 74 42
f 2 42 25
f 2 25 24
f 2 24 14
f 2 14 5
f 3 9 10
f 3 10 11
f 5 12 13
f 5 14 15
f 5 15 12
f 7 16 8
f 8 17 30
f 8 30 48
f 8 48 81
f 8 81 106
f 8 106 138
f 8 138 170
f 8 170 169
f 8 169 155
f 8 155 154
f 8 154 180
f 8 180 182
f 8 182 187
f 8 187 186
f 8 186 185
f 8 185 184
f 8 184 175
f 8 175 143
f 8 143 107
f 8 107 82
f 8 82 54
f 8 54 31
f 8 31 18
f 8 16 17
f 9 19 20
f 9 20 10
f 10 20 21
f 10 21 22
f 10 22 11
f 12 23 13
f 12 15 23
f 14 24 15
f 15 24 25
f 15 25 26
f 15 26 27
f 15 27 23
f 16 28 17
f 17 29 30
f 17 28 29
f 18 31 32
f 19 33 34
f 19 34 20
f 20 35 36
f 20 36 37
f 20 37 38
f 20 38 39
f 20 39 21
f 20 34 35
f 21 40 22
f 21 39 40
f 23 27 41
f 25 42 26
f 26 43 27
f 26 42 44
f 26 44 45
f 26 45 46
f 26 46 47
f 26 47 43
f 27 43 41
f 31 49 50
f 31 50 51
f 31 51 52
f 31 52 53
f 31 53 32
f 31 54 55
f 31 55 56
f 31 56 49
f 33 57 34
f 34 57 35
f 35 58 59
f 35 59 60
f 35 60 61
f 35 61 36
f 35 57 62
f 35 62 63
f 35 63 58
f 36 61 64
f 36 64 65
f 36 65 37
f 37 65 66
f 37 66 67
f 37 67 38
f 38 67 39
f 39 67 68
f 41 43 70
f 41 70 71
f 41 71 72
f 41 72 73
f 41 73 69
f 42 74 75
f 42 75 44
f 43 47 71
f 43 71 70
f 44 75 45
f 45 75 46
f 46 76 77
f 46 77 47
f 46 75 78
f 46 78 79
f 46 79 76
f 47 77 72
f 47 72 71
f 48 80 81
f 54 82 83
f 54 83 55
f 55 83 84
f 55 84 78
f 55 78 75
f 55 75 56
f 56 75 85
f 58 86 87
f 58 87 59
f 58 63 88
f 58 88 86
f 59 87 60
f 60 87 89
f 60 89 61
f 61 89 90
f 61 90 64
f 63 91 88
f 64 90 92
f 64 92 93
f 64 93 65
f 65 93 94
f 65 94 66
f 66 94 95
f 66 95 96
f 66 96 97
f 66 97 67
f 67 97 68
f 68 97 98
f 69 73 99
f 72 77 76
f 72 76 73
f 73 76 100
f 73 100 99
f 74 85 75
f 76 79 100
f 78 84 79
f 79 84 101
f 79 101 100
f 80 102 81
f 81 102 103
f 81 103 104
f 81 104 105
f 81 105 106
f 82 107 108
f 82 108 109
f 82 109 110
f 82 110 84
f 82 84 83
f 84 110 101
f 86 111 112
f 86 112 113
f 86 113 87
f 86 88 114
f 86 114 115
f 86 115 116
f 86 116 111
f 87 113 112
f 87 112 117
f 87 117 118
f 87 118 119
f 87 119 90
f 87 90 89
f 88 91 114
f 90 120 92
f 90 119 120
f 92 121 122
f 92 122 93
f 92 120 121
f 93 122 123
f 93 123 94
f 94 123 95
f 95 123 124
f 95 124 125
f 95 125 97
f 95 97 96
f 97 124 126
f 97 126 127
f 97 127 128
f 97 128 98
f 97 125 124
f 99 129 130
f 99 130 131
f 99 100 132
f 99 132 129
f 100 101 133
f 100 133 132
f 101 134 133
f 101 110 135
f 101 135 134
f 105 136 106
f 106 137 138
f 106 136 139
f 106 139 140
f 106 140 141
f 106 141 142
f 106 142 137
f 107 143 144
f 107 144 108
f 108 144 143
f 108 143 145
f 108 145 135
f 108 135 110
f 108 110 109
f 111 130 146
f 111 146 147
f 111 147 112
f 111 116 130
f 112 147 148
f 112 148 117
f 115 149 130
f 115 130 116
f 117 148 118
f 118 121 120
f 118 120 119
f 118 148 150
f 118 150 151
f 118 151 121
f 121 151 152
f 121 152 122
f 122 152 153
f 122 153 123
f 123 154 155
f 123 155 156
f 123 156 157
f 123 157 124
f 123 153 158
f 123 158 159
f 123 159 154
f 124 157 126
f 126 157 141
f 126 141 160
f 126 160 127
f 127 160 128
f 128 160 161
f 129 147 130
f 129 132 162
f 129 162 148
f 129 148 147
f 130 147 146
f 130 149 163
f 130 163 131
f 132 133 164
f 132 164 162
f 133 165 166
f 133 166 164
f 133 134 165
f 134 135 145
f 134 145 167
f 134 167 168
f 134 168 165
f 137 169 170
f 137 170 138
f 137 142 171
f 137 171 169
f 139 172 160
f 139 160 140
f 140 160 141
f 141 157 173
f 141 173 142
f 142 173 174
f 142 174 171
f 143 175 167
f 143 167 145
f 148 162 150
f 150 162 164
f 150 164 176
f 150 176 151
f 151 176 177
f 151 177 178
f 151 178 179
f 151 179 152
f 152 179 153
f 153 179 158
f 154 159 180
f 155 169 174
f 155 174 181
f 155 181 156
f 156 181 173
f 156 173 157
f 158 179 178
f 158 178 182
f 158 182 159
f 159 182 180
f 160 172 161
f 164 166 176
f 165 177 176
f 165 176 166
f 165 168 183
f 165 183 177
f 167 175 168
f 168 175 184
f 168 184 183
f 169 171 174
f 173 181 174
f 177 183 185
f 177 185 186
f 177 186 178
f 178 186 187
f 178 187 182
f 183 184 185
