v -0.598513 -0.195081 0.273652
v -0.598455 -0.191192 0.273652
v -0.597856 -0.199727 0.273652
v -0.609132 -0.199727 0.318356
v -0.612575 -0.178859 0.326872
v -0.612587 -0.166526 0.326872
v -0.597568 -0.182743 0.273652
v -0.60927 -0.166526 0.315404
v -0.498474 -0.199727 0.273652
v -0.61041 -0.199727 0.326872
v -0.614453 -0.1972 0.370627
v -0.614568 -0.19548 0.370627
v -0.614821 -0.191625 0.370627
v -0.615167 -0.182067 0.370627
v -0.615109 -0.178859 0.370627
v -0.613911 -0.166381 0.370627
v -0.610721 -0.154193 0.326872
v -0.608037 -0.154193 0.315821
v -0.596889 -0.179136 0.273652
v -0.498463 -0.199641 0.273652
v -0.498463 -0.199727 0.273747
v -0.61413 -0.199727 0.370627
v -0.607865 -0.140769 0.370627
v -0.608037 -0.140769 0.352627
v -0.608026 -0.140769 0.340295
v -0.606817 -0.140769 0.325875
v -0.606218 -0.144105 0.31791
v -0.593768 -0.170179 0.273652
v -0.497864 -0.191192 0.273652
v -0.498117 -0.199727 0.277544
v -0.512087 -0.199727 0.370627
v -0.534247 -0.140769 0.370627
v -0.606794 -0.140769 0.325799
v -0.59933 -0.140769 0.314654
v -0.598398 -0.140769 0.313476
v -0.582607 -0.158019 0.273652
v -0.588504 -0.164038 0.273652
v -0.497841 -0.187302 0.273652
v -0.497518 -0.191192 0.277544
v -0.497818 -0.199727 0.286078
v -0.508229 -0.199727 0.36419
v -0.513124 -0.191509 0.370627
v -0.515796 -0.181415 0.370627
v -0.505442 -0.184659 0.334523
v -0.504705 -0.183706 0.326872
v -0.499545 -0.178859 0.277544
v -0.500455 -0.176048 0.273652
v -0.503346 -0.170802 0.273652
v -0.53845 -0.140769 0.339213
v -0.572841 -0.140769 0.303186
v -0.561301 -0.150268 0.273652
v -0.569685 -0.152259 0.273652
v -0.573739 -0.153512 0.273652
v -0.498025 -0.191192 0.289876
v -0.499223 -0.178859 0.273652
v -0.498278 -0.199727 0.29841
v -0.506433 -0.199727 0.359947
v -0.505868 -0.197811 0.357023
v -0.505027 -0.199727 0.355143
v -0.503968 -0.199727 0.34902
v -0.504509 -0.191105 0.338862
v -0.502586 -0.191192 0.326872
v -0.500858 -0.191192 0.314549
v -0.499315 -0.191192 0.302217
v -0.544831 -0.152733 0.273652
v -0.552755 -0.140769 0.30311
v -0.541549 -0.140769 0.331191
v -0.561358 -0.140769 0.300338
v -0.561243 -0.140769 0.300309
v -0.557051 -0.15028 0.273652
v -0.500478 -0.199727 0.323074
v -0.49928 -0.199727 0.310752
v -0.501906 -0.199727 0.335406
v -0.549461 -0.150851 0.273652
f 1 2 7
f 1 7 19
f 1 19 28
f 1 28 37
f 1 37 36
f 1 36 53
f 1 53 52
f 1 52 51
f 1 51 70
f 1 70 74
f 1 74 65
f 1 65 48
f 1 48 47
f 1 47 55
f 1 55 38
f 1 38 29
f 1 29 20
f 1 20 9
f 1 9 3
f 1 3 4
f 1 4 5
f 1 5 6
f 1 6 2
f 2 6 8
f 2 8 7
f 3 9 21
f 3 21 30
f 3 30 40
f 3 40 56
f 3 56 72
f 3 72 71
f 3 71 73
f 3 73 60
f 3 60 59
f 3 59 57
f 3 57 41
f 3 41 31
f 3 31 22
f 3 22 10
f 3 10 4
f 4 10 5
f 5 10 11
f 5 11 12
f 5 12 13
f 5 13 14
f 5 14 6
f 6 14 15
f 6 15 16
f 6 16 17
f 6 17 18
f 6 18 8
f 7 8 18
f 7 18 19
f 9 20 21
f 10 22 11
f 11 22 31
f 11 31 42
f 11 42 43
f 11 43 32
f 11 32 23
f 11 23 16
f 11 16 15
f 11 15 14
f 11 14 13
f 11 13 12
f 16 23 24
f 16 24 25
f 16 25 17
f 17 25 26
f 17 26 27
f 17 27 18
f 18 27 19
f 19 27 28
f 20 29 30
f 20 30 21
f 23 32 49
f 23 49 67
f 23 67 66
f 23 66 69
f 23 69 68
f 23 68 50
f 23 50 35
f 23 35 34
f 23 34 33
f 23 33 26
f 23 26 25
f 23 25 24
f 26 33 27
f 27 33 34
f 27 34 35
f 27 35 36
f 27 36 37
f 27 37 28
f 29 38 39
f 29 39 30
f 30 39 40
f 31 41 42
f 32 43 44
f 32 44 45
f 32 45 46
f 32 46 47
f 32 47 48
f 32 48 49
f 35 50 51
f 35 51 52
f 35 52 53
f 35 53 36
f 38 54 39
f 38 55 54
f 39 54 56
f 39 56 40
f 41 57 42
f 42 57 43
f 43 57 58
f 43 58 44
f 44 58 59
f 44 59 60
f 44 60 61
f 44 61 62
f 44 62 63
f 44 63 46
f 44 46 45
f 46 64 54
f 46 54 55
f 46 55 47
f 46 63 64
f 48 65 66
f 48 66 67
f 48 67 49
f 50 68 51
f 51 69 70
f 51 68 69
f 54 64 71
f 54 71 72
f 54 72 56
f 57 59 58
f 60 73 62
f 60 62 61
f 62 73 63
f 63 73 64
f 64 73 71
f 65 74 66
f 66 74 69
f 69 74 70
