v 0.00892832 0.00318674 -0.48178
v 0.00892832 0.00318674 -0.423102
v 0.00892832 0.00444991 -0.482405
v 0.0101394 0.00318674 -0.481948
v 0.166516 0.00318674 -0.408377
v 0.00892832 0.317305 -0.397732
v 0.0198782 0.00318674 -0.483218
v 0.00892832 0.00682762 -0.483263
v 0.176281 0.00318674 -0.407485
v 0.266681 0.276252 -0.380855
v 0.266681 0.277515 -0.380788
v 0.00892832 0.326853 -0.397275
v 0.167778 0.00318674 -0.493284
v 0.00892832 0.0152982 -0.485704
v 0.184026 0.00318674 -0.407028
v 0.266681 0.260908 -0.382048
v 0.266681 0.302184 -0.379763
v 0.00892832 0.329639 -0.397208
v 0.171083 0.00318674 -0.493496
v 0.00892832 0.0185304 -0.486106
v 0.266681 0.00318674 -0.402915
v 0.266681 0.215843 -0.385671
v 0.266681 0.314518 -0.379685
v 0.00892832 0.382729 -0.397252
v 0.174918 0.00318674 -0.493496
v 0.00892832 0.0280784 -0.486618
v 0.170276 0.00619604 -0.493552
v 0.266681 0.00318674 -0.480421
v 0.266681 0.382729 -0.382661
v 0.00892832 0.382729 -0.481858
v 0.184228 0.00318674 -0.49295
v 0.175852 0.00619604 -0.493552
v 0.182008 0.00619604 -0.493284
v 0.191192 0.00619604 -0.492749
v 0.00892832 0.0308648 -0.486685
v 0.0555286 0.104871 -0.489929
v 0.0555286 0.215843 -0.491122
v 0.170099 0.0135149 -0.493552
v 0.263224 0.00318674 -0.481558
v 0.266681 0.00389264 -0.480532
v 0.266681 0.382729 -0.480432
v 0.184682 0.382729 -0.485548
v 0.0678662 0.326853 -0.486195
v 0.00892832 0.28985 -0.48557
v 0.191192 0.00318674 -0.492537
v 0.175725 0.0135149 -0.493552
v 0.203529 0.154209 -0.491122
v 0.203529 0.00619604 -0.491913
v 0.215842 0.154209 -0.490375
v 0.00892832 0.163794 -0.486607
v 0.043191 0.215843 -0.490208
v 0.19702 0.382729 -0.485727
v 0.0678662 0.215843 -0.491155
v 0.255705 0.00318674 -0.483709
v 0.252854 0.00619604 -0.485035
v 0.262719 0.00619604 -0.482182
v 0.266681 0.00619604 -0.480889
v 0.266681 0.154877 -0.48226
v 0.252854 0.154209 -0.485403
v 0.261281 0.382729 -0.481491
v 0.00892832 0.262432 -0.486273
v 0.203529 0.00318674 -0.491623
v 0.209332 0.382729 -0.485626
v 0.22167 0.382729 -0.48537
v 0.228179 0.382729 -0.485203
v 0.215842 0.00619604 -0.490988
v 0.228179 0.154209 -0.489316
v 0.240517 0.382729 -0.4843
v 0.252854 0.00318674 -0.4844
v 0.244024 0.00318674 -0.486496
v 0.240517 0.00619604 -0.487956
v 0.252854 0.0185304 -0.485325
v 0.264258 0.0185304 -0.482505
v 0.266681 0.0185304 -0.481836
v 0.240517 0.154209 -0.487677
v 0.256387 0.382729 -0.482226
v 0.215842 0.00318674 -0.490497
v 0.228179 0.00619604 -0.489818
v 0.252854 0.382729 -0.482739
v 0.240794 0.00318674 -0.487109
v 0.228179 0.00318674 -0.489115
f 1 2 6
f 1 6 12
f 1 12 18
f 1 18 24
f 1 24 30
f 1 30 44
f 1 44 61
f 1 61 50
f 1 50 35
f 1 35 26
f 1 26 20
f 1 20 14
f 1 14 8
f 1 8 3
f 1 3 4
f 1 4 7
f 1 7 13
f 1 13 19
f 1 19 25
f 1 25 31
f 1 31 45
f 1 45 62
f 1 62 77
f 1 77 81
f 1 81 80
f 1 80 70
f 1 70 69
f 1 69 54
f 1 54 39
f 1 39 28
f 1 28 21
f 1 21 15
f 1 15 9
f 1 9 5
f 1 5 2
f 2 5 6
f 3 7 4
f 3 8 7
f 5 9 6
f 6 10 11
f 6 11 12
f 6 9 10
f 7 8 14
f 7 14 13
f 9 15 16
f 9 16 10
f 10 16 22
f 10 22 21
f 10 21 28
f 10 28 40
f 10 40 57
f 10 57 74
f 10 74 58
f 10 58 41
f 10 41 29
f 10 29 23
f 10 23 17
f 10 17 11
f 11 17 12
f 12 17 18
f 13 14 19
f 14 20 19
f 15 21 22
f 15 22 16
f 17 23 18
f 18 23 24
f 19 20 26
f 19 26 27
f 19 27 32
f 19 32 25
f 23 29 24
f 24 29 41
f 24 41 60
f 24 60 76
f 24 76 79
f 24 79 68
f 24 68 65
f 24 65 64
f 24 64 63
f 24 63 52
f 24 52 42
f 24 42 30
f 25 32 33
f 25 33 34
f 25 34 31
f 26 35 27
f 27 35 36
f 27 36 37
f 27 37 38
f 27 38 46
f 27 46 32
f 28 39 40
f 30 42 43
f 30 43 37
f 30 37 44
f 31 34 45
f 32 46 33
f 33 46 47
f 33 47 34
f 34 48 45
f 34 47 49
f 34 49 48
f 35 50 51
f 35 51 37
f 35 37 36
f 37 51 44
f 37 43 42
f 37 42 52
f 37 52 53
f 37 53 38
f 38 53 46
f 39 54 55
f 39 55 56
f 39 56 57
f 39 57 40
f 41 58 59
f 41 59 60
f 44 51 61
f 45 48 62
f 46 53 47
f 47 53 63
f 47 63 64
f 47 64 65
f 47 65 49
f 48 66 62
f 48 49 66
f 49 67 66
f 49 65 68
f 49 68 67
f 50 61 51
f 52 63 53
f 54 69 55
f 55 69 70
f 55 70 71
f 55 71 72
f 55 72 73
f 55 73 74
f 55 74 56
f 56 74 57
f 58 74 73
f 58 73 72
f 58 72 59
f 59 72 71
f 59 71 75
f 59 75 60
f 60 75 76
f 62 66 77
f 66 78 77
f 66 67 78
f 67 75 78
f 67 68 79
f 67 79 75
f 70 80 71
f 71 80 81
f 71 81 78
f 71 78 75
f 75 79 76
f 77 78 81
