v 0.578515 0.482304 0.32951
v 0.589507 0.4379 0.32951
v 0.592606 0.435295 0.310448
v 0.591601 0.441968 0.302213
v 0.588769 0.450227 0.302213
v 0.577678 0.482304 0.314211
v 0.430351 0.482304 0.32951
v 0.591366 0.42499 0.32951
v 0.593092 0.424586 0.31455
v 0.594215 0.425567 0.302213
v 0.592774 0.435802 0.302213
v 0.592489 0.433543 0.293108
v 0.592472 0.433614 0.293108
v 0.591065 0.439017 0.293108
v 0.588518 0.448071 0.293108
v 0.587781 0.450227 0.293108
v 0.584581 0.459332 0.293108
v 0.576857 0.482304 0.302213
v 0.423616 0.482304 0.293108
v 0.446386 0.44827 0.293108
v 0.451245 0.441346 0.293108
v 0.453188 0.438587 0.293108
v 0.455467 0.443008 0.311175
v 0.456975 0.444708 0.319393
v 0.459522 0.447609 0.32951
v 0.591366 0.416757 0.32951
v 0.593679 0.416757 0.314546
v 0.594014 0.416757 0.311015
v 0.594768 0.416757 0.302213
v 0.594449 0.416757 0.298646
v 0.593595 0.422244 0.293108
v 0.59336 0.425875 0.293108
v 0.575382 0.482304 0.293108
v 0.458567 0.433107 0.293108
v 0.465738 0.441924 0.32951
v 0.510172 0.416757 0.32951
v 0.593829 0.416757 0.293108
v 0.464213 0.43013 0.293108
v 0.503906 0.416757 0.293108
f 1 2 3
f 1 3 4
f 1 4 5
f 1 5 6
f 1 6 18
f 1 18 33
f 1 33 19
f 1 19 7
f 1 7 25
f 1 25 35
f 1 35 36
f 1 36 26
f 1 26 8
f 1 8 2
f 2 8 3
f 3 9 10
f 3 10 11
f 3 11 4
f 3 8 9
f 4 11 12
f 4 12 13
f 4 13 14
f 4 14 15
f 4 15 16
f 4 16 5
f 5 16 17
f 5 17 18
f 5 18 6
f 7 19 20
f 7 20 21
f 7 21 22
f 7 22 23
f 7 23 24
f 7 24 25
f 8 26 27
f 8 27 9
f 9 27 10
f 10 27 28
f 10 28 29
f 10 29 30
f 10 30 31
f 10 31 32
f 10 32 12
f 10 12 11
f 12 32 31
f 12 31 37
f 12 37 39
f 12 39 38
f 12 38 34
f 12 34 22
f 12 22 21
f 12 21 20
f 12 20 19
f 12 19 33
f 12 33 17
f 12 17 16
f 12 16 15
f 12 15 14
f 12 14 13
f 17 33 18
f 22 34 23
f 23 34 24
f 24 34 35
f 24 35 25
f 26 36 39
f 26 39 37
f 26 37 30
f 26 30 29
f 26 29 28
f 26 28 27
f 30 37 31
f 34 38 36
f 34 36 35
f 36 38 39
