v 0.154176 -0.614923 0.388545
v 0.0925114 -0.612048 0.388545
v 0.0185167 -0.606251 0.351525
v 0.141846 -0.611395 0.351525
v 0.160326 -0.612179 0.363854
v 0.160326 -0.613142 0.376216
v 0.160326 -0.613763 0.388545
v 0.154176 -0.614874 0.400873
v 0.141846 -0.614727 0.400873
v 0.0555214 -0.611215 0.413202
v 0.0431766 -0.610595 0.413202
v 0.00892832 -0.605532 0.351525
v 0.00892832 -0.605157 0.343665
v 0.00916544 -0.605124 0.342686
v 0.160326 -0.610089 0.351525
v 0.160326 -0.611379 0.357657
v 0.0185167 -0.605402 0.342295
v 0.00892832 -0.575467 0.166528
v 0.160326 -0.565375 0.142555
v 0.160326 -0.613355 0.400873
v 0.160326 -0.61213 0.407005
v 0.154176 -0.612261 0.413202
v 0.141846 -0.612489 0.425531
v 0.141846 -0.61422 0.413202
v 0.0431766 -0.60937 0.425531
v 0.0308466 -0.60692 0.437893
v 0.0308466 -0.608031 0.425531
v 0.00892832 -0.605826 0.388545
v 0.00892832 -0.606284 0.376216
v 0.00892832 -0.605091 0.342947
v 0.00892832 -0.570601 0.156775
v 0.0555214 -0.566012 0.142555
v 0.0678514 -0.566649 0.142555
v 0.0801814 -0.566861 0.142555
v 0.0813966 -0.566845 0.142555
v 0.160326 -0.448087 0.142555
v 0.160326 -0.610807 0.413202
v 0.160326 -0.609158 0.418551
v 0.142795 -0.60808 0.438838
v 0.129516 -0.609795 0.437893
v 0.0224587 -0.605042 0.44559
v 0.0217622 -0.605696 0.437893
v 0.00892832 -0.598641 0.450156
v 0.00892832 -0.561374 0.142555
v 0.0431766 -0.564918 0.142555
v 0.00892832 -0.472355 0.142555
v 0.00892832 -0.468974 0.194284
v 0.00892832 -0.468974 0.194708
v 0.0113884 -0.468697 0.197741
v 0.00892832 -0.469121 0.200318
v 0.00892832 -0.487118 0.388545
v 0.0185167 -0.486791 0.388545
v 0.0308466 -0.486448 0.388545
v 0.0431766 -0.486791 0.388545
v 0.0801814 -0.484684 0.363854
v 0.104841 -0.48439 0.351525
v 0.117171 -0.486742 0.351525
v 0.160326 -0.490841 0.326835
v 0.160326 -0.60194 0.438447
v 0.160326 -0.599114 0.445688
v 0.160326 -0.596632 0.451298
v 0.139297 -0.60581 0.446112
v 0.129516 -0.606251 0.446862
v 0.0185167 -0.595571 0.459256
v 0.0184129 -0.601907 0.449895
v 0.00892832 -0.594509 0.458865
v 0.00892832 -0.489077 0.398101
v 0.00892832 -0.48978 0.400873
v 0.0308466 -0.489943 0.400873
v 0.0555214 -0.49868 0.425531
v 0.0555214 -0.487689 0.388545
v 0.0678514 -0.488734 0.388545
v 0.0801814 -0.490106 0.388545
v 0.0878432 -0.493062 0.395524
v 0.160326 -0.516905 0.438675
v 0.160326 -0.588205 0.462355
v 0.141846 -0.594885 0.458832
v 0.129516 -0.601335 0.453026
v 0.154176 -0.581493 0.47015
v 0.00892832 -0.58507 0.464507
v 0.00892832 -0.491805 0.40756
v 0.00892832 -0.492393 0.409451
v 0.0308466 -0.494581 0.415616
v 0.0431766 -0.498157 0.425531
v 0.0555214 -0.502959 0.436229
v 0.0678514 -0.503824 0.435968
v 0.160326 -0.518342 0.443046
v 0.0801814 -0.492507 0.396731
v 0.160326 -0.581183 0.469856
v 0.154176 -0.573573 0.473998
v 0.00892832 -0.573573 0.466171
v 0.00892832 -0.495397 0.415616
v 0.0431766 -0.503171 0.434892
v 0.0555214 -0.507466 0.442426
v 0.0678514 -0.506764 0.442133
v 0.160326 -0.518652 0.443731
v 0.160326 -0.573573 0.472889
v 0.154176 -0.561243 0.475727
v 0.0555214 -0.548897 0.466823
v 0.00892832 -0.561798 0.463039
v 0.00892832 -0.50175 0.423868
v 0.0308466 -0.504608 0.432902
v 0.0555214 -0.513639 0.447579
v 0.0678514 -0.51292 0.448721
v 0.0801814 -0.513672 0.448884
v 0.160326 -0.528484 0.45831
v 0.160326 -0.525756 0.454983
v 0.160326 -0.561504 0.473835
v 0.160326 -0.553568 0.472629
v 0.160326 -0.543263 0.469987
v 0.154176 -0.548897 0.472465
v 0.0678514 -0.536567 0.463561
v 0.0555214 -0.536567 0.462485
v 0.00892832 -0.560051 0.462224
v 0.00892832 -0.509867 0.429739
v 0.048156 -0.529512 0.456973
v 0.0555214 -0.521723 0.453744
v 0.0244742 -0.50567 0.431761
v 0.0678514 -0.520367 0.454885
v 0.0801814 -0.520171 0.455081
v 0.160326 -0.531064 0.460463
v 0.160326 -0.541761 0.469302
v 0.154176 -0.541859 0.469269
v 0.0678514 -0.526524 0.458669
v 0.0555214 -0.527896 0.457951
f 1 2 3
f 1 3 4
f 1 4 5
f 1 5 6
f 1 6 7
f 1 7 8
f 1 8 9
f 1 9 10
f 1 10 2
f 2 10 11
f 2 11 3
f 3 12 13
f 3 13 14
f 3 14 4
f 3 11 12
f 4 15 16
f 4 16 5
f 4 14 17
f 4 17 18
f 4 18 19
f 4 19 15
f 5 16 15
f 5 15 19
f 5 19 36
f 5 36 58
f 5 58 75
f 5 75 87
f 5 87 96
f 5 96 107
f 5 107 106
f 5 106 121
f 5 121 122
f 5 122 110
f 5 110 109
f 5 109 108
f 5 108 97
f 5 97 89
f 5 89 76
f 5 76 61
f 5 61 60
f 5 60 59
f 5 59 38
f 5 38 37
f 5 37 21
f 5 21 20
f 5 20 7
f 5 7 6
f 7 20 8
f 8 20 21
f 8 21 22
f 8 22 23
f 8 23 24
f 8 24 9
f 9 24 10
f 10 24 25
f 10 25 11
f 11 25 26
f 11 26 27
f 11 27 28
f 11 28 29
f 11 29 12
f 12 29 28
f 12 28 43
f 12 43 66
f 12 66 80
f 12 80 91
f 12 91 100
f 12 100 114
f 12 114 115
f 12 115 101
f 12 101 92
f 12 92 82
f 12 82 81
f 12 81 68
f 12 68 67
f 12 67 51
f 12 51 50
f 12 50 48
f 12 48 47
f 12 47 46
f 12 46 44
f 12 44 31
f 12 31 18
f 12 18 30
f 12 30 13
f 13 30 14
f 14 30 18
f 14 18 17
f 18 31 32
f 18 32 33
f 18 33 34
f 18 34 35
f 18 35 19
f 19 35 34
f 19 34 33
f 19 33 32
f 19 32 45
f 19 45 44
f 19 44 46
f 19 46 36
f 21 37 22
f 22 37 23
f 23 25 24
f 23 37 38
f 23 38 39
f 23 39 40
f 23 40 26
f 23 26 25
f 26 40 41
f 26 41 42
f 26 42 27
f 27 42 28
f 28 42 43
f 31 44 45
f 31 45 32
f 36 46 47
f 36 47 48
f 36 48 49
f 36 49 50
f 36 50 51
f 36 51 52
f 36 52 53
f 36 53 54
f 36 54 55
f 36 55 56
f 36 56 57
f 36 57 58
f 38 59 39
f 39 59 60
f 39 60 61
f 39 61 62
f 39 62 40
f 40 62 63
f 40 63 41
f 41 63 64
f 41 64 65
f 41 65 43
f 41 43 42
f 43 65 66
f 48 50 49
f 51 67 52
f 52 67 53
f 53 67 68
f 53 68 69
f 53 69 54
f 54 69 70
f 54 70 71
f 54 71 55
f 55 71 72
f 55 72 56
f 56 72 73
f 56 73 74
f 56 74 75
f 56 75 57
f 57 75 58
f 61 76 62
f 62 76 77
f 62 77 78
f 62 78 63
f 63 78 64
f 64 66 65
f 64 78 77
f 64 77 79
f 64 79 80
f 64 80 66
f 68 81 69
f 69 81 82
f 69 82 83
f 69 83 84
f 69 84 70
f 70 84 85
f 70 85 86
f 70 86 87
f 70 87 74
f 70 74 88
f 70 88 72
f 70 72 71
f 72 88 73
f 73 88 74
f 74 87 75
f 76 89 77
f 77 89 79
f 79 89 90
f 79 90 80
f 80 90 91
f 82 92 84
f 82 84 83
f 84 92 85
f 85 92 93
f 85 93 94
f 85 94 95
f 85 95 86
f 86 95 96
f 86 96 87
f 89 97 90
f 90 97 98
f 90 98 91
f 91 98 99
f 91 99 100
f 92 101 93
f 93 102 94
f 93 101 102
f 94 102 103
f 94 103 104
f 94 104 95
f 95 104 105
f 95 105 106
f 95 106 107
f 95 107 96
f 97 108 98
f 98 108 109
f 98 109 110
f 98 110 111
f 98 111 99
f 99 111 112
f 99 112 113
f 99 113 100
f 100 113 114
f 101 115 116
f 101 116 117
f 101 117 118
f 101 118 102
f 102 118 103
f 103 117 119
f 103 119 104
f 103 118 117
f 104 119 120
f 104 120 105
f 105 120 106
f 106 120 121
f 110 122 123
f 110 123 111
f 111 123 112
f 112 123 124
f 112 124 113
f 113 124 125
f 113 125 116
f 113 116 114
f 114 116 115
f 116 125 117
f 117 125 119
f 119 125 124
f 119 124 120
f 120 124 123
f 120 123 122
f 120 122 121
