v -0.378469 0.501564 0.198891
v -0.378469 0.491619 0.389416
v -0.378469 0.583726 0.198891
v -0.321967 0.480373 0.198891
v -0.378469 0.492417 0.39713
v -0.345895 0.480949 0.368599
v -0.345895 0.480949 0.37058
v -0.378469 0.584598 0.20354
v -0.302172 0.587081 0.20354
v -0.302172 0.585972 0.198891
v -0.315141 0.478038 0.198891
v -0.376193 0.49218 0.397447
v -0.378469 0.495727 0.403048
v -0.314535 0.474846 0.339196
v -0.302172 0.472866 0.339196
v -0.314535 0.475304 0.351533
v -0.339183 0.480491 0.371425
v -0.363869 0.488176 0.388544
v -0.378469 0.603484 0.315182
v -0.363869 0.605006 0.31785
v -0.351545 0.605538 0.316054
v -0.191179 0.586105 0.198891
v -0.339183 0.605892 0.315816
v -0.178892 0.586977 0.20354
v -0.302172 0.476368 0.198891
v -0.271457 0.468699 0.295791
v -0.302172 0.472778 0.326885
v -0.363869 0.49187 0.396892
v -0.376193 0.495683 0.403602
v -0.378469 0.501771 0.411184
v -0.271457 0.468699 0.296425
v -0.289848 0.471462 0.326885
v -0.289848 0.473797 0.339196
v -0.302172 0.475644 0.351533
v -0.326859 0.480447 0.371267
v -0.326859 0.478393 0.36387
v -0.339183 0.483255 0.377607
v -0.378469 0.604326 0.326832
v -0.373994 0.604562 0.319884
v -0.351545 0.606247 0.36387
v -0.2652 0.610074 0.388544
v -0.252838 0.610266 0.376207
v -0.141882 0.614581 0.400881
v -0.178892 0.585913 0.198891
v -0.0555367 0.617094 0.405161
v -0.0431746 0.617079 0.40524
v -0.12952 0.606897 0.326885
v 0.00616014 0.611434 0.36387
v 0.00889042 0.581894 0.198891
v -0.191179 0.466275 0.215877
v -0.203503 0.46632 0.228214
v -0.240513 0.466793 0.265226
v -0.253824 0.46765 0.276744
v -0.260953 0.468241 0.280337
v -0.1886 0.468137 0.198891
v -0.191065 0.467709 0.203197
v 0.00889042 0.519903 0.424974
v 0.00889042 0.526493 0.437655
v 0.00889042 0.528163 0.440112
v 0.00889042 0.530779 0.443625
v -0.314535 0.539217 0.447747
v -0.326859 0.539557 0.447403
v -0.339183 0.540162 0.446743
v -0.363869 0.541478 0.445422
v -0.373084 0.542113 0.444761
v -0.3768 0.547817 0.448883
v -0.378469 0.548142 0.448883
v -0.0431746 0.542335 0.456755
v -0.0875038 0.542719 0.456412
v -0.0957326 0.542793 0.456332
v -0.104871 0.542896 0.456253
v -0.265124 0.468344 0.290957
v -0.253179 0.468064 0.290349
v -0.2652 0.46861 0.296901
v -0.257502 0.46861 0.296795
v -0.249273 0.468965 0.294761
v 0.00889042 0.516578 0.414011
v 0.00889042 0.517627 0.417974
v 0.00889042 0.518573 0.42117
v -0.378469 0.604326 0.329342
v -0.351545 0.606247 0.376207
v -0.314535 0.607917 0.388544
v -0.289848 0.608449 0.400881
v -0.277524 0.608981 0.400881
v -0.12952 0.614774 0.413218
v -0.0741178 0.616754 0.4194
v -0.0741178 0.616754 0.419295
v -0.0638792 0.616901 0.406271
v -0.0679368 0.616872 0.414381
v -0.0555367 0.617153 0.413218
v -0.0434021 0.617034 0.413694
v -0.0360455 0.616872 0.409916
v -0.0360455 0.616872 0.406403
v 0.00616014 0.612705 0.376207
v 0.00889042 0.612306 0.37346
v 0.00889042 0.611316 0.36387
v 0.00889042 0.610828 0.361123
v 0.00889042 0.488205 0.198891
v -0.191179 0.466202 0.228214
v -0.183746 0.468123 0.198891
v -0.178892 0.46765 0.20354
v -0.178892 0.466807 0.215877
v -0.203503 0.466453 0.240552
v -0.239717 0.46765 0.278355
v 0.00889042 0.537222 0.450811
v -0.302172 0.546502 0.454008
v -0.314535 0.546827 0.453902
v -0.363869 0.548911 0.451313
v -0.378469 0.557807 0.455593
v -0.376193 0.55757 0.455725
v 0.00889042 0.541611 0.455672
v 0.00889042 0.543473 0.457442
v 0.00889042 0.548054 0.46085
v -0.0431746 0.548911 0.461193
v -0.104871 0.549058 0.46011
v -0.117196 0.549369 0.460031
v -0.243282 0.468256 0.286545
v -0.196943 0.468684 0.259203
v 0.00889042 0.514095 0.400881
v -0.378469 0.603971 0.375864
v -0.326859 0.606439 0.400881
v -0.314535 0.607267 0.400881
v -0.378469 0.603513 0.388544
v -0.378469 0.602952 0.400881
v -0.16653 0.60638 0.435726
v -0.0790096 0.614655 0.424314
v -0.0678609 0.614434 0.425661
v -0.0678609 0.616783 0.419506
v -0.302172 0.606188 0.413218
v -0.326859 0.604016 0.41734
v -0.30915 0.604459 0.419506
v -0.339183 0.601237 0.425556
v -0.0555367 0.616813 0.419585
v -0.0476492 0.616783 0.419479
v -0.0394204 0.616695 0.418132
v 0.00889042 0.61303 0.422782
v 0.00889042 0.613399 0.413218
v 0.00889042 0.612527 0.376207
v -0.183443 0.468507 0.248028
v -0.179158 0.468167 0.239706
v -0.178892 0.467118 0.228214
v -0.171005 0.468418 0.20354
v -0.16964 0.468862 0.198891
v -0.191179 0.467029 0.240552
v -0.178892 0.468182 0.198891
v -0.172143 0.46864 0.198891
v -0.215827 0.551379 0.459027
v -0.314535 0.552989 0.457336
v -0.363869 0.556491 0.456095
v -0.326859 0.547802 0.453558
v -0.302172 0.552664 0.457548
v -0.378469 0.563969 0.457098
v 0.00889042 0.562092 0.467454
v -0.00620198 0.561146 0.46756
v -0.192165 0.468241 0.25244
v -0.346957 0.604533 0.407697
v -0.339183 0.604799 0.409177
v -0.326859 0.605227 0.411158
v -0.378469 0.601045 0.413218
v -0.178892 0.602952 0.441301
v -0.154206 0.606764 0.435964
v -0.352152 0.594839 0.439055
v -0.0678609 0.609173 0.437893
v -0.0555367 0.609409 0.437893
v 0.00889042 0.607207 0.44492
v 0.00889042 0.610163 0.437893
v -0.0555367 0.614522 0.42574
v -0.313776 0.605405 0.413958
v -0.339183 0.603676 0.415358
v -0.351545 0.600425 0.425556
v 0.00889042 0.610769 0.435119
v 0.00889042 0.612838 0.425556
v -0.228189 0.561235 0.462541
v -0.378469 0.570412 0.457098
v -0.252838 0.573574 0.462593
v 0.00889042 0.572761 0.467956
v 0.000282439 0.567338 0.468722
v 0.00509836 0.562432 0.467666
v -0.00620198 0.567323 0.468749
v -0.0126106 0.567353 0.468722
v -0.0174265 0.562447 0.467639
v -0.351242 0.60338 0.412373
v -0.378469 0.600439 0.415464
v -0.0678609 0.605316 0.445369
v -0.356664 0.592016 0.443942
v -0.348436 0.592253 0.444259
v -0.2652 0.594455 0.447562
v -0.378469 0.593494 0.437259
v -0.378469 0.591248 0.442304
v 0.00889042 0.606277 0.44706
v -0.378469 0.597676 0.425556
v -0.378469 0.597041 0.427431
v -0.378469 0.593952 0.436123
v -0.378469 0.576589 0.455487
v -0.252838 0.583785 0.459053
v -0.2652 0.583312 0.458631
v -0.0126106 0.567515 0.468722
v -0.0174265 0.572407 0.468168
v -0.00620198 0.573766 0.46822
v -0.00620198 0.585913 0.465024
v 0.00889042 0.576278 0.467243
v 0.00509836 0.572436 0.468141
v 0.000282439 0.56756 0.468722
v -0.00620198 0.567589 0.468749
v -0.0678609 0.600129 0.451551
v -0.00620198 0.601607 0.452819
v 0.00889042 0.601888 0.453215
v -0.252838 0.589962 0.454113
v -0.378469 0.590125 0.443625
v -0.378469 0.585086 0.449332
v -0.2652 0.589475 0.453743
v -0.00620198 0.595445 0.459344
v 0.00889042 0.585913 0.465077
v 0.00616014 0.585913 0.465129
v 0.00889042 0.588174 0.463914
v 0.00889042 0.595711 0.459608
v 0.00889042 0.5971 0.458234
f 1 2 5
f 1 5 13
f 1 13 30
f 1 30 67
f 1 67 109
f 1 109 152
f 1 152 174
f 1 174 194
f 1 194 210
f 1 210 209
f 1 209 189
f 1 189 188
f 1 188 193
f 1 193 192
f 1 192 191
f 1 191 183
f 1 183 159
f 1 159 124
f 1 124 123
f 1 123 120
f 1 120 80
f 1 80 38
f 1 38 19
f 1 19 8
f 1 8 3
f 1 3 10
f 1 10 22
f 1 22 44
f 1 44 49
f 1 49 98
f 1 98 143
f 1 143 146
f 1 146 145
f 1 145 100
f 1 100 55
f 1 55 25
f 1 25 11
f 1 11 4
f 1 4 2
f 2 4 6
f 2 6 7
f 2 7 5
f 3 8 9
f 3 9 10
f 4 11 6
f 5 12 13
f 5 7 12
f 6 11 14
f 6 14 7
f 7 14 15
f 7 15 16
f 7 16 17
f 7 17 18
f 7 18 12
f 8 19 20
f 8 20 21
f 8 21 9
f 9 22 10
f 9 21 23
f 9 23 24
f 9 24 22
f 11 25 26
f 11 26 27
f 11 27 14
f 12 18 28
f 12 28 29
f 12 29 13
f 13 29 30
f 14 27 15
f 15 27 31
f 15 31 32
f 15 32 33
f 15 33 34
f 15 34 16
f 16 34 35
f 16 35 36
f 16 36 17
f 17 36 35
f 17 35 37
f 17 37 28
f 17 28 18
f 19 38 39
f 19 39 20
f 20 39 40
f 20 40 21
f 21 40 41
f 21 41 42
f 21 42 43
f 21 43 23
f 22 24 44
f 23 43 45
f 23 45 46
f 23 46 47
f 23 47 24
f 24 47 48
f 24 48 49
f 24 49 44
f 25 50 51
f 25 51 52
f 25 52 53
f 25 53 54
f 25 54 26
f 25 55 56
f 25 56 50
f 26 54 53
f 26 53 52
f 26 52 31
f 26 31 27
f 28 37 35
f 28 35 57
f 28 57 58
f 28 58 29
f 29 58 59
f 29 59 60
f 29 60 30
f 30 61 62
f 30 62 63
f 30 63 64
f 30 64 65
f 30 65 66
f 30 66 67
f 30 60 68
f 30 68 69
f 30 69 70
f 30 70 71
f 30 71 61
f 31 72 73
f 31 73 74
f 31 74 32
f 31 52 72
f 32 74 75
f 32 75 33
f 33 75 76
f 33 76 77
f 33 77 34
f 34 77 78
f 34 78 79
f 34 79 35
f 35 79 57
f 38 80 81
f 38 81 40
f 38 40 39
f 40 81 82
f 40 82 41
f 41 82 83
f 41 83 84
f 41 84 85
f 41 85 43
f 41 43 42
f 43 85 86
f 43 86 87
f 43 87 88
f 43 88 45
f 45 88 89
f 45 89 90
f 45 90 46
f 46 90 91
f 46 91 92
f 46 92 93
f 46 93 94
f 46 94 48
f 46 48 47
f 48 94 95
f 48 95 96
f 48 96 97
f 48 97 49
f 49 97 96
f 49 96 95
f 49 95 138
f 49 138 137
f 49 137 136
f 49 136 172
f 49 172 171
f 49 171 166
f 49 166 165
f 49 165 190
f 49 190 207
f 49 207 217
f 49 217 216
f 49 216 215
f 49 215 213
f 49 213 201
f 49 201 176
f 49 176 153
f 49 153 113
f 49 113 112
f 49 112 111
f 49 111 105
f 49 105 60
f 49 60 59
f 49 59 58
f 49 58 57
f 49 57 79
f 49 79 78
f 49 78 77
f 49 77 119
f 49 119 98
f 50 99 51
f 50 56 55
f 50 55 100
f 50 100 101
f 50 101 102
f 50 102 99
f 51 99 52
f 52 99 103
f 52 103 104
f 52 104 73
f 52 73 72
f 60 105 68
f 61 106 107
f 61 107 62
f 61 71 106
f 62 107 108
f 62 108 63
f 63 108 64
f 64 108 66
f 64 66 65
f 66 109 67
f 66 108 110
f 66 110 109
f 68 105 111
f 68 111 112
f 68 112 113
f 68 113 114
f 68 114 69
f 69 114 70
f 70 114 71
f 71 114 115
f 71 115 116
f 71 116 106
f 73 75 74
f 73 104 117
f 73 117 75
f 75 117 76
f 76 117 118
f 76 118 119
f 76 119 77
f 80 120 81
f 81 121 122
f 81 122 82
f 81 120 123
f 81 123 124
f 81 124 121
f 82 122 83
f 83 122 86
f 83 86 85
f 83 85 84
f 86 125 126
f 86 126 127
f 86 127 128
f 86 128 90
f 86 90 87
f 86 122 129
f 86 129 130
f 86 130 131
f 86 131 132
f 86 132 125
f 87 90 89
f 87 89 88
f 90 133 134
f 90 134 91
f 90 128 133
f 91 134 135
f 91 135 92
f 92 135 136
f 92 136 137
f 92 137 93
f 93 137 138
f 93 138 94
f 94 138 95
f 98 119 139
f 98 139 140
f 98 140 141
f 98 141 102
f 98 102 142
f 98 142 143
f 99 102 141
f 99 141 144
f 99 144 103
f 100 145 101
f 101 145 146
f 101 146 143
f 101 143 102
f 102 143 142
f 103 144 104
f 104 144 117
f 106 147 107
f 106 116 147
f 107 148 149
f 107 149 150
f 107 150 108
f 107 147 151
f 107 151 148
f 108 149 110
f 108 150 149
f 109 110 152
f 110 149 152
f 113 153 154
f 113 154 114
f 114 154 116
f 114 116 115
f 116 154 147
f 117 144 155
f 117 155 118
f 118 155 139
f 118 139 119
f 121 124 156
f 121 156 122
f 122 156 157
f 122 157 158
f 122 158 129
f 124 159 156
f 125 160 161
f 125 161 126
f 125 132 162
f 125 162 160
f 126 163 127
f 126 161 163
f 127 163 164
f 127 164 165
f 127 165 166
f 127 166 167
f 127 167 128
f 128 167 133
f 129 158 168
f 129 168 130
f 130 168 158
f 130 158 169
f 130 169 170
f 130 170 132
f 130 132 131
f 132 170 162
f 133 167 166
f 133 166 134
f 134 166 171
f 134 171 135
f 135 171 172
f 135 172 136
f 139 141 140
f 139 155 144
f 139 144 141
f 147 173 151
f 147 154 173
f 148 152 149
f 148 151 173
f 148 173 152
f 152 173 175
f 152 175 174
f 153 176 177
f 153 177 178
f 153 178 154
f 154 178 177
f 154 177 179
f 154 179 180
f 154 180 181
f 154 181 173
f 156 182 169
f 156 169 157
f 156 159 182
f 157 169 158
f 159 183 170
f 159 170 169
f 159 169 182
f 160 184 161
f 160 162 185
f 160 185 186
f 160 186 187
f 160 187 184
f 161 184 163
f 162 170 188
f 162 188 189
f 162 189 185
f 163 184 190
f 163 190 164
f 164 190 165
f 170 183 191
f 170 191 192
f 170 192 193
f 170 193 188
f 173 181 180
f 173 180 175
f 174 175 194
f 175 195 196
f 175 196 194
f 175 180 197
f 175 197 198
f 175 198 199
f 175 199 200
f 175 200 195
f 176 201 202
f 176 202 203
f 176 203 177
f 177 203 204
f 177 204 179
f 179 204 197
f 179 197 180
f 184 205 206
f 184 206 207
f 184 207 190
f 184 187 208
f 184 208 205
f 185 189 209
f 185 209 210
f 185 210 211
f 185 211 208
f 185 208 186
f 186 208 187
f 194 196 210
f 195 208 211
f 195 211 196
f 195 200 212
f 195 212 208
f 196 211 210
f 197 204 199
f 197 199 198
f 199 204 203
f 199 203 202
f 199 202 201
f 199 201 213
f 199 213 214
f 199 214 200
f 200 214 215
f 200 215 216
f 200 216 212
f 205 208 206
f 206 208 207
f 207 212 217
f 207 208 212
f 212 216 217
f 213 215 214
