v -0.563342 -0.304568 -0.131818
v -0.56316 -0.31455 -0.131818
v -0.563468 -0.304568 -0.129953
v -0.443879 -0.304568 -0.131818
v -0.562306 -0.32688 -0.129515
v -0.563314 -0.31455 -0.129515
v -0.558566 -0.369428 -0.131818
v -0.563496 -0.304568 -0.129515
v -0.440504 -0.304568 -0.064976
v -0.43521 -0.311947 -0.131818
v -0.558707 -0.369428 -0.129515
v -0.558608 -0.369428 -0.064976
v -0.421653 -0.369428 -0.131818
v -0.55872 -0.304568 -0.064976
v -0.435504 -0.369428 -0.064976
v -0.428039 -0.369428 -0.0740322
v -0.42556 -0.369428 -0.0855816
v -0.421569 -0.336373 -0.131818
v -0.424944 -0.326309 -0.131818
v -0.426247 -0.323433 -0.131818
v -0.428866 -0.31848 -0.131818
v -0.429398 -0.317572 -0.131818
v -0.420533 -0.351688 -0.131818
v -0.421541 -0.369428 -0.122173
v -0.423852 -0.369428 -0.0981059
v -0.420435 -0.347777 -0.131818
v -0.421149 -0.339211 -0.131818
v -0.422283 -0.369428 -0.110028
f 1 2 3
f 1 3 8
f 1 8 14
f 1 14 9
f 1 9 4
f 1 4 10
f 1 10 22
f 1 22 21
f 1 21 20
f 1 20 19
f 1 19 18
f 1 18 27
f 1 27 26
f 1 26 23
f 1 23 13
f 1 13 7
f 1 7 2
f 2 5 6
f 2 6 3
f 2 7 5
f 3 6 8
f 4 9 10
f 5 7 11
f 5 11 12
f 5 12 6
f 6 12 8
f 7 13 24
f 7 24 28
f 7 28 25
f 7 25 17
f 7 17 16
f 7 16 15
f 7 15 12
f 7 12 11
f 8 12 14
f 9 15 16
f 9 16 17
f 9 17 18
f 9 18 19
f 9 19 20
f 9 20 21
f 9 21 22
f 9 22 10
f 9 14 12
f 9 12 15
f 13 23 24
f 17 25 26
f 17 26 27
f 17 27 18
f 23 26 24
f 24 26 28
f 25 28 26
