v 0.265663 0.565123 -0.200253
v 0.277541 0.564454 -0.200253
v 0.297759 0.567621 -0.209347
v 0.289876 0.567725 -0.209109
v 0.277541 0.56774 -0.209003
v 0.268244 0.567636 -0.209201
v 0.265663 0.567532 -0.209729
v 0.265663 0.46749 -0.200253
v 0.297888 0.56325 -0.200253
v 0.318189 0.567859 -0.220063
v 0.308434 0.57974 -0.320656
v 0.303395 0.579309 -0.315746
v 0.302073 0.562848 -0.200253
v 0.305981 0.566997 -0.211432
v 0.289876 0.57861 -0.314545
v 0.265663 0.576662 -0.314545
v 0.265663 0.456978 -0.335081
v 0.280389 0.446658 -0.335081
v 0.283161 0.444725 -0.335081
v 0.308362 0.431729 -0.295989
v 0.318189 0.42883 -0.277539
v 0.318189 0.429038 -0.276206
v 0.318189 0.429796 -0.272959
v 0.318189 0.431611 -0.267152
v 0.318189 0.459684 -0.200253
v 0.318189 0.578461 -0.315311
v 0.313345 0.578922 -0.315746
v 0.318189 0.566417 -0.215708
v 0.3083 0.57974 -0.320656
v 0.308434 0.57974 -0.320722
v 0.313838 0.559354 -0.200253
v 0.3083 0.57974 -0.320722
v 0.265663 0.571041 -0.334975
v 0.265663 0.571011 -0.335081
v 0.283922 0.444235 -0.335081
v 0.308362 0.431729 -0.296148
v 0.318189 0.427849 -0.286685
v 0.318189 0.5547 -0.200253
v 0.318189 0.578223 -0.319719
v 0.318189 0.565197 -0.213887
v 0.318189 0.577465 -0.326093
v 0.318189 0.576305 -0.330501
v 0.318189 0.574788 -0.335081
v 0.318189 0.558506 -0.204609
v 0.318189 0.560558 -0.207169
v 0.314178 0.574654 -0.335081
v 0.289547 0.441484 -0.335081
v 0.293003 0.440041 -0.335081
v 0.318189 0.428399 -0.297335
v 0.318189 0.436503 -0.335081
v 0.302207 0.43741 -0.335081
v 0.302207 0.436339 -0.326872
v 0.318189 0.430495 -0.310718
v 0.314543 0.436622 -0.335081
v 0.306341 0.436904 -0.335081
f 1 2 3
f 1 3 4
f 1 4 5
f 1 5 6
f 1 6 7
f 1 7 16
f 1 16 33
f 1 33 34
f 1 34 17
f 1 17 8
f 1 8 25
f 1 25 38
f 1 38 31
f 1 31 13
f 1 13 9
f 1 9 2
f 2 9 3
f 3 10 11
f 3 11 12
f 3 12 4
f 3 9 13
f 3 13 14
f 3 14 10
f 4 12 5
f 5 12 6
f 6 12 15
f 6 15 7
f 7 15 16
f 8 17 18
f 8 18 19
f 8 19 20
f 8 20 21
f 8 21 22
f 8 22 23
f 8 23 24
f 8 24 25
f 10 26 27
f 10 27 11
f 10 14 28
f 10 28 40
f 10 40 45
f 10 45 44
f 10 44 38
f 10 38 25
f 10 25 24
f 10 24 23
f 10 23 22
f 10 22 21
f 10 21 37
f 10 37 49
f 10 49 53
f 10 53 50
f 10 50 43
f 10 43 42
f 10 42 41
f 10 41 39
f 10 39 26
f 11 29 12
f 11 27 26
f 11 26 30
f 11 30 32
f 11 32 29
f 12 29 15
f 13 31 28
f 13 28 14
f 15 29 32
f 15 32 16
f 16 32 33
f 17 34 46
f 17 46 43
f 17 43 50
f 17 50 54
f 17 54 55
f 17 55 51
f 17 51 48
f 17 48 47
f 17 47 35
f 17 35 19
f 17 19 18
f 19 35 20
f 20 35 36
f 20 36 37
f 20 37 21
f 26 39 30
f 28 31 40
f 30 39 41
f 30 41 42
f 30 42 43
f 30 43 32
f 31 44 45
f 31 45 40
f 31 38 44
f 32 43 46
f 32 46 34
f 32 34 33
f 35 47 36
f 36 48 49
f 36 49 37
f 36 47 48
f 48 51 52
f 48 52 49
f 49 52 51
f 49 51 53
f 50 53 54
f 51 55 53
f 53 55 54
