v -0.459575 0.273856 0.0449707
v -0.43349 0.273856 -0.154737
v -0.553839 0.273856 0.0449707
v -0.456026 0.189737 0.0449707
v -0.432346 0.273856 -0.16533
v -0.455983 0.188612 0.0449707
v -0.455669 0.178842 0.0449707
v -0.421715 0.0125985 -0.211416
v -0.556586 0.273856 0.0274749
v -0.562539 0.16833 0.0449707
v -0.432231 0.273856 -0.16651
v -0.455669 0.177358 0.0449707
v -0.429441 0.273856 -0.211416
v -0.429398 0.273856 -0.203509
v -0.456026 0.169097 0.0449707
v -0.456842 0.161322 0.0449707
v -0.424562 0.0125985 -0.197585
v -0.541491 0.0125985 -0.211416
v -0.556915 0.273856 0.0251154
v -0.562682 0.166514 0.0449707
v -0.544825 0.273856 -0.211416
v -0.457772 0.154187 0.0449707
v -0.476731 0.0125985 0.0449707
v -0.55092 0.0125985 -0.12951
v -0.542278 0.0147469 -0.211416
v -0.557531 0.273856 0.0184886
v -0.563411 0.156002 0.0449707
v -0.555713 0.250684 -0.124314
v -0.552551 0.273856 -0.11716
v -0.549733 0.166514 -0.211416
v -0.561494 0.0125985 0.0449707
v -0.565443 0.0125985 0.00633946
v -0.566574 0.018481 0.00649007
v -0.543251 0.0212688 -0.211416
v -0.557616 0.273856 -0.030861
v -0.567461 0.0627784 0.0121128
v -0.567461 0.0627784 0.013895
v -0.567604 0.0555148 0.0157274
v -0.567275 0.0555148 0.0219024
v -0.564384 0.0555148 0.0449707
v -0.567876 0.0431873 0.0102051
v -0.549389 0.154187 -0.211416
v -0.567861 0.0308597 0.00982856
v -0.567618 0.0225731 0.0131671
v -0.567618 0.0225731 0.0108075
v -0.544152 0.0308597 -0.211416
v -0.567876 0.0431873 0.0161039
v -0.567861 0.0308597 0.0145226
v -0.54896 0.141859 -0.211416
v -0.544739 0.0431873 -0.211416
f 1 2 5
f 1 5 11
f 1 11 14
f 1 14 13
f 1 13 21
f 1 21 29
f 1 29 35
f 1 35 26
f 1 26 19
f 1 19 9
f 1 9 3
f 1 3 10
f 1 10 20
f 1 20 27
f 1 27 40
f 1 40 31
f 1 31 23
f 1 23 22
f 1 22 16
f 1 16 15
f 1 15 12
f 1 12 7
f 1 7 6
f 1 6 4
f 1 4 2
f 2 4 6
f 2 6 7
f 2 7 8
f 2 8 5
f 3 9 10
f 5 8 11
f 7 12 8
f 8 13 14
f 8 14 11
f 8 12 15
f 8 15 16
f 8 16 17
f 8 17 23
f 8 23 31
f 8 31 32
f 8 32 24
f 8 24 18
f 8 18 25
f 8 25 34
f 8 34 46
f 8 46 50
f 8 50 49
f 8 49 42
f 8 42 30
f 8 30 21
f 8 21 13
f 9 19 10
f 10 19 20
f 16 22 17
f 17 22 23
f 18 24 25
f 19 26 20
f 20 26 27
f 21 28 29
f 21 30 28
f 24 32 33
f 24 33 34
f 24 34 25
f 26 35 27
f 27 35 36
f 27 36 37
f 27 37 38
f 27 38 39
f 27 39 40
f 28 35 29
f 28 30 41
f 28 41 36
f 28 36 35
f 30 42 43
f 30 43 41
f 31 44 32
f 31 40 44
f 32 44 45
f 32 45 33
f 33 45 34
f 34 45 46
f 36 41 47
f 36 47 37
f 37 47 38
f 38 47 39
f 39 47 40
f 40 47 48
f 40 48 44
f 41 43 48
f 41 48 47
f 42 49 43
f 43 45 44
f 43 44 48
f 43 49 45
f 45 49 50
f 45 50 46
