v -0.572502 -0.17237 0.0989898
v -0.572327 -0.166537 0.0989898
v -0.570165 -0.0431792 0.0555063
v -0.570915 -0.0555187 0.0431628
v -0.571019 -0.0678582 0.0431628
v -0.569171 -0.0678582 -0.043162
v -0.567549 -0.248987 -0.0495826
v -0.569868 -0.314536 0.0555063
v -0.570985 -0.314536 0.0989898
v -0.572048 -0.160068 0.0989898
v -0.568177 -0.0555187 0.089407
v -0.56952 -0.0308397 0.0555063
v -0.568526 -0.0556309 -0.0434991
v -0.565439 0.0125356 0.0063407
v -0.56802 -0.0454601 -0.0396146
v -0.567723 -0.0598188 -0.0500481
v -0.56788 -0.0678582 -0.0505938
v -0.560242 -0.277518 -0.0649599
v -0.560068 -0.289857 -0.0649599
v -0.558603 -0.369391 -0.0649599
v -0.56005 -0.369391 -0.0610433
v -0.561968 -0.369391 -0.0555056
v -0.564044 -0.369391 -0.0428249
v -0.567636 -0.265178 -0.0396628
v -0.565073 -0.0678582 -0.0567576
v -0.570723 -0.326876 0.0989898
v -0.57088 -0.320369 0.0989898
v -0.567479 -0.273105 -0.0377527
v -0.566398 -0.0431044 0.0989898
v -0.565979 -0.0353641 0.0989898
v -0.564898 -0.0244829 0.0989898
v -0.56066 0.0125356 0.0989898
v -0.567985 -0.0187245 0.0543346
v -0.567409 -0.012293 0.0494389
v -0.561009 0.0125356 0.092505
v -0.552394 0.0125356 -0.0483627
v -0.555394 0.000831747 -0.0499999
v -0.56148 -0.0185375 -0.043162
v -0.564358 -0.0308397 -0.043162
v -0.566485 -0.0420948 -0.0434991
v -0.567008 -0.0515925 -0.047833
v -0.560085 -0.0555561 -0.0649599
v -0.548767 0.0059919 -0.0649599
v -0.551017 -0.00619803 -0.0649599
v -0.560817 -0.0678582 -0.0649599
v -0.435499 -0.369391 -0.0649599
v -0.565439 -0.369391 0.0555063
v -0.56788 -0.360043 0.0968228
v -0.569276 -0.346133 0.0989898
v -0.484939 0.0125356 0.0989898
v -0.547267 0.0125356 -0.0649599
v -0.556283 -0.00619803 -0.0515248
v -0.399783 -0.302197 0.0431628
v -0.399748 -0.314536 0.0678339
v -0.401702 -0.333345 0.0989898
v -0.403829 -0.339327 0.0989898
v -0.405434 -0.343291 0.0989898
v -0.406707 -0.345983 0.0989898
v -0.411799 -0.352265 0.0989898
v -0.417711 -0.35922 0.0989898
v -0.425 -0.365166 0.0989898
v -0.430267 -0.369391 0.0989898
v -0.398004 -0.231039 -0.0649599
v -0.398283 -0.289857 0.0308352
v -0.565334 -0.369391 0.061638
v -0.56788 -0.360043 0.0989898
v -0.401457 -0.178839 -0.0308345
v -0.399574 -0.166537 -0.0555056
v -0.400777 -0.157077 -0.0649599
v -0.401789 -0.15401 -0.0649599
v -0.477353 0.0125356 0.0491018
v -0.406794 -0.270264 0.0989898
v -0.401632 -0.228197 0.0308352
v -0.40205 -0.215858 0.0184917
v -0.466628 0.0125356 -0.0649599
v -0.397987 -0.302197 0.0555063
v -0.400516 -0.326876 0.092505
v -0.400149 -0.326876 0.0989898
v -0.564672 -0.369391 0.0989898
v -0.397377 -0.228197 -0.0649599
v -0.397656 -0.265178 -0.00616339
v -0.39708 -0.277518 0.0184917
v -0.564794 -0.369391 0.0925692
v -0.399591 -0.215858 0.00618018
v -0.398981 -0.178839 -0.043162
v -0.39708 -0.178839 -0.0555056
v -0.398161 -0.166537 -0.0649599
v -0.40505 -0.144849 -0.0649599
v -0.476464 0.0125356 0.0431628
v -0.405992 -0.27318 0.0989898
v -0.404736 -0.277779 0.0989898
v -0.403289 -0.277518 0.092505
v -0.398824 -0.240499 0.0308352
v -0.399051 -0.228197 0.0184917
v -0.475627 0.0125356 0.0367582
v -0.397551 -0.302197 0.0678339
v -0.398876 -0.314536 0.0801774
v -0.396871 -0.289857 0.0431628
v -0.399312 -0.321005 0.0989898
v -0.395668 -0.218699 -0.0649599
v -0.396696 -0.252839 -0.0184909
v -0.396016 -0.277518 0.0308352
v -0.396226 -0.265178 0.00618018
v -0.395807 -0.178689 -0.0649599
v -0.397586 -0.169416 -0.0649599
v -0.396958 -0.240499 0.0184917
v -0.403166 -0.284024 0.0989898
v -0.401928 -0.289857 0.0989898
v -0.400673 -0.289857 0.092505
v -0.398719 -0.252839 0.0431628
v -0.396766 -0.252839 0.0308352
v -0.398772 -0.314536 0.092505
v -0.396574 -0.289857 0.0555063
v -0.399068 -0.314536 0.0989898
v -0.395354 -0.215858 -0.0649599
v -0.395563 -0.265178 0.0184917
v -0.396051 -0.277518 0.0431628
v -0.394848 -0.210548 -0.0649599
v -0.394761 -0.185719 -0.0649599
v -0.400655 -0.296364 0.0989898
v -0.396819 -0.265178 0.0431628
v -0.395702 -0.265178 0.0308352
v -0.395755 -0.252839 0.0184917
v -0.397952 -0.302197 0.0801774
v -0.397411 -0.289857 0.0678339
v -0.399173 -0.308666 0.0989898
v -0.394464 -0.202321 -0.0649599
v -0.39436 -0.194058 -0.0649599
v -0.39436 -0.192151 -0.0649599
v -0.394517 -0.194993 -0.0592616
v -0.39987 -0.302197 0.0989898
v -0.398824 -0.289857 0.0801774
v -0.399016 -0.302197 0.092505
v -0.397098 -0.277518 0.0555063
f 1 2 3
f 1 3 4
f 1 4 5
f 1 5 6
f 1 6 7
f 1 7 8
f 1 8 9
f 1 9 27
f 1 27 26
f 1 26 49
f 1 49 66
f 1 66 79
f 1 79 62
f 1 62 61
f 1 61 60
f 1 60 59
f 1 59 58
f 1 58 57
f 1 57 56
f 1 56 55
f 1 55 78
f 1 78 99
f 1 99 114
f 1 114 126
f 1 126 131
f 1 131 120
f 1 120 108
f 1 108 107
f 1 107 91
f 1 91 90
f 1 90 72
f 1 72 50
f 1 50 32
f 1 32 31
f 1 31 30
f 1 30 29
f 1 29 10
f 1 10 2
f 2 10 3
f 3 11 12
f 3 12 4
f 3 10 11
f 4 13 6
f 4 6 5
f 4 12 14
f 4 14 15
f 4 15 13
f 6 13 16
f 6 16 17
f 6 17 7
f 7 18 19
f 7 19 20
f 7 20 21
f 7 21 22
f 7 22 23
f 7 23 24
f 7 24 8
f 7 17 25
f 7 25 18
f 8 23 26
f 8 26 27
f 8 27 9
f 8 24 28
f 8 28 23
f 10 29 11
f 11 29 30
f 11 30 12
f 12 30 31
f 12 31 32
f 12 32 33
f 12 33 34
f 12 34 14
f 13 15 16
f 14 34 35
f 14 35 32
f 14 32 50
f 14 50 71
f 14 71 89
f 14 89 95
f 14 95 75
f 14 75 51
f 14 51 36
f 14 36 37
f 14 37 38
f 14 38 39
f 14 39 15
f 15 39 40
f 15 40 41
f 15 41 16
f 16 42 25
f 16 25 17
f 16 41 43
f 16 43 44
f 16 44 42
f 18 25 45
f 18 45 42
f 18 42 44
f 18 44 43
f 18 43 51
f 18 51 75
f 18 75 88
f 18 88 70
f 18 70 69
f 18 69 87
f 18 87 105
f 18 105 104
f 18 104 119
f 18 119 129
f 18 129 128
f 18 128 127
f 18 127 118
f 18 118 115
f 18 115 100
f 18 100 80
f 18 80 63
f 18 63 46
f 18 46 20
f 18 20 19
f 20 46 62
f 20 62 79
f 20 79 83
f 20 83 65
f 20 65 47
f 20 47 23
f 20 23 22
f 20 22 21
f 23 47 48
f 23 48 49
f 23 49 26
f 23 28 24
f 25 42 45
f 32 35 34
f 32 34 33
f 36 51 37
f 37 51 43
f 37 43 52
f 37 52 41
f 37 41 39
f 37 39 38
f 39 41 40
f 41 52 43
f 46 53 54
f 46 54 55
f 46 55 56
f 46 56 57
f 46 57 58
f 46 58 59
f 46 59 60
f 46 60 61
f 46 61 62
f 46 63 64
f 46 64 53
f 47 65 66
f 47 66 48
f 48 66 49
f 50 67 68
f 50 68 69
f 50 69 70
f 50 70 71
f 50 72 73
f 50 73 74
f 50 74 67
f 53 76 54
f 53 64 76
f 54 76 77
f 54 77 55
f 55 77 78
f 63 80 81
f 63 81 64
f 64 81 82
f 64 82 76
f 65 83 66
f 66 83 79
f 67 74 68
f 68 74 84
f 68 84 85
f 68 85 86
f 68 86 87
f 68 87 69
f 70 88 89
f 70 89 71
f 72 90 73
f 73 90 91
f 73 91 92
f 73 92 93
f 73 93 94
f 73 94 74
f 74 94 84
f 75 95 88
f 76 96 97
f 76 97 77
f 76 82 98
f 76 98 96
f 77 97 78
f 78 97 99
f 80 100 101
f 80 101 82
f 80 82 81
f 82 102 98
f 82 101 103
f 82 103 102
f 84 94 85
f 85 94 86
f 86 104 105
f 86 105 87
f 86 94 106
f 86 106 104
f 88 95 89
f 91 107 92
f 92 107 93
f 93 106 94
f 93 107 108
f 93 108 109
f 93 109 110
f 93 110 111
f 93 111 106
f 96 112 99
f 96 99 97
f 96 98 113
f 96 113 112
f 98 102 113
f 99 112 114
f 100 115 103
f 100 103 101
f 102 116 117
f 102 117 113
f 102 103 115
f 102 115 118
f 102 118 116
f 104 106 119
f 106 111 119
f 108 120 109
f 109 120 110
f 110 120 111
f 111 120 121
f 111 121 122
f 111 122 123
f 111 123 119
f 112 113 124
f 112 124 114
f 113 117 125
f 113 125 124
f 114 124 126
f 116 122 117
f 116 118 127
f 116 127 128
f 116 128 122
f 117 122 125
f 119 123 122
f 119 122 130
f 119 130 129
f 120 131 121
f 121 132 133
f 121 133 134
f 121 134 122
f 121 131 132
f 122 134 125
f 122 128 129
f 122 129 130
f 124 125 126
f 125 134 126
f 126 134 133
f 126 133 131
f 131 133 132
