v -0.382129 0.415137 -0.355362
v -0.333953 0.415137 -0.369194
v -0.382129 0.415137 -0.478658
v -0.382129 0.385701 -0.355532
v -0.333953 0.415137 -0.483473
v -0.382129 0.0317633 -0.358285
v -0.382129 0.0308176 -0.358338
v -0.369547 0.0338518 -0.369481
v -0.333953 0.0656912 -0.405495
v -0.382129 0.351537 -0.488496
v -0.351552 0.339203 -0.486683
v -0.363884 0.339203 -0.487831
v -0.333953 0.117194 -0.48526
v -0.339216 0.117194 -0.486461
v -0.382129 0.02006 -0.359342
v -0.382129 0.0185232 -0.35959
v -0.370203 0.0256161 -0.370251
v -0.333953 0.012573 -0.413324
v -0.333953 0.0606474 -0.406095
v -0.382129 0.345114 -0.488653
v -0.351552 0.117194 -0.488066
v -0.37622 0.339203 -0.488444
v -0.333953 0.012573 -0.48205
v -0.339636 0.012573 -0.482977
v -0.382129 0.012573 -0.360712
v -0.380572 0.012573 -0.362304
v -0.382129 0.240532 -0.488144
v -0.363884 0.117194 -0.488301
v -0.345625 0.012573 -0.483734
v -0.351552 0.012573 -0.484386
v -0.357956 0.012573 -0.484934
v -0.370288 0.012573 -0.48573
v -0.382129 0.012573 -0.486396
v -0.37622 0.117194 -0.487583
f 1 2 5
f 1 5 3
f 1 3 10
f 1 10 20
f 1 20 27
f 1 27 33
f 1 33 25
f 1 25 16
f 1 16 15
f 1 15 7
f 1 7 6
f 1 6 4
f 1 4 2
f 2 4 6
f 2 6 7
f 2 7 8
f 2 8 9
f 2 9 19
f 2 19 18
f 2 18 23
f 2 23 13
f 2 13 5
f 3 5 10
f 5 11 12
f 5 12 10
f 5 13 14
f 5 14 11
f 7 15 8
f 8 15 16
f 8 16 17
f 8 17 18
f 8 18 19
f 8 19 9
f 10 12 20
f 11 14 21
f 11 21 12
f 12 22 20
f 12 21 22
f 13 23 14
f 14 23 24
f 14 24 21
f 16 25 17
f 17 25 26
f 17 26 18
f 18 26 25
f 18 25 33
f 18 33 32
f 18 32 31
f 18 31 30
f 18 30 29
f 18 29 24
f 18 24 23
f 20 22 21
f 20 21 28
f 20 28 27
f 21 24 29
f 21 29 30
f 21 30 31
f 21 31 32
f 21 32 33
f 21 33 28
f 27 28 34
f 27 34 33
f 28 33 34
