v 0.265657 0.563971 -0.0566342
v 0.252866 0.566894 -0.0566342
v 0.265657 0.446564 -0.0566342
v 0.265657 0.571048 -0.0795042
v 0.2401 0.569718 -0.0566342
v 0.264778 0.446219 -0.0566342
v 0.265657 0.456991 -0.335081
v 0.265657 0.574398 -0.0925338
v 0.228188 0.571377 -0.0566342
v 0.253645 0.442048 -0.0566342
v 0.191172 0.445759 -0.335081
v 0.265657 0.571015 -0.335081
v 0.240527 0.437204 -0.0566342
v 0.22854 0.432902 -0.0566342
v 0.22359 0.431227 -0.0566342
v 0.217056 0.429585 -0.0566342
v 0.20243 0.426547 -0.0566342
v 0.191172 0.425546 -0.0678648
v 0.178858 0.424462 -0.0801856
v 0.234948 0.579899 -0.133694
v 0.228842 0.580671 -0.129551
v 0.21585 0.582247 -0.129524
v 0.0801973 0.584218 -0.0678648
v 0.191172 0.576401 -0.0678648
v 0.203511 0.573675 -0.0566342
v 0.21585 0.572657 -0.0566342
v 0.265657 0.576664 -0.314528
v 0.176672 0.443674 -0.334563
v 0.177049 0.443822 -0.335081
v 0.15418 0.421851 -0.0925338
v 0.141841 0.421046 -0.104855
v 0.252866 0.574907 -0.335081
v 0.190091 0.42548 -0.0566342
v 0.166519 0.422951 -0.0801856
v 0.203511 0.58297 -0.129524
v 0.237084 0.580063 -0.314528
v 0.228188 0.580868 -0.314528
v 0.0678584 0.585712 -0.0801856
v 0.0678584 0.584562 -0.0678648
v 0.0801973 0.58113 -0.0594691
v 0.0801973 0.579308 -0.0566342
v 0.240653 0.576943 -0.335081
v 0.237059 0.58003 -0.321615
v 0.117189 0.436268 -0.302207
v 0.10485 0.437188 -0.314528
v 0.1725 0.443543 -0.335081
v 0.129528 0.420439 -0.117203
v 0.141841 0.420817 -0.0925338
v 0.140736 0.425234 -0.0566342
v 0.129528 0.423214 -0.0678648
v 0.141841 0.421654 -0.0801856
v 0.15418 0.422097 -0.0801856
v 0.0925362 0.587764 -0.129524
v 0.191172 0.583101 -0.26519
v 0.228188 0.580391 -0.322787
v 0.21585 0.581459 -0.314528
v 0.0555195 0.585531 -0.0801856
v 0.0801973 0.587961 -0.129524
v 0.0553436 0.582592 -0.0672105
v 0.00892832 0.572493 -0.0566342
v 0.0593393 0.580523 -0.0602051
v 0.0678584 0.58113 -0.0593601
v 0.0745933 0.579406 -0.0566342
v 0.228188 0.577896 -0.335081
v 0.10485 0.435628 -0.302207
v 0.117189 0.421917 -0.141872
v 0.0925362 0.438534 -0.326876
v 0.166519 0.443263 -0.335081
v 0.129528 0.420209 -0.104855
v 0.117189 0.42062 -0.117203
v 0.117189 0.420915 -0.129524
v 0.129528 0.420932 -0.0925338
v 0.129528 0.425349 -0.0566342
v 0.128422 0.425365 -0.0566342
v 0.117189 0.423411 -0.0678648
v 0.129528 0.421785 -0.0801856
v 0.0925362 0.587157 -0.314528
v 0.0801973 0.587534 -0.314528
v 0.0925362 0.586451 -0.326876
v 0.21585 0.578684 -0.335081
v 0.0431806 0.583495 -0.0801856
v 0.0678584 0.587551 -0.129524
v 0.0555195 0.586582 -0.129524
v 0.00892832 0.580835 -0.130805
v 0.0678584 0.587255 -0.314528
v 0.00892832 0.572707 -0.0579154
v 0.00892832 0.442327 -0.0566342
v 0.0678584 0.579439 -0.0566342
v 0.0925362 0.436991 -0.314528
v 0.10485 0.423345 -0.154193
v 0.0801973 0.438764 -0.326876
v 0.0843186 0.439864 -0.335081
v 0.0925362 0.440012 -0.335081
v 0.10485 0.422491 -0.0801856
v 0.0925362 0.423132 -0.0801856
v 0.00892832 0.426235 -0.117203
v 0.116108 0.42594 -0.0566342
v 0.10485 0.424002 -0.0678648
v 0.0801973 0.587009 -0.326876
v 0.0678584 0.586993 -0.326876
v 0.100729 0.583708 -0.335081
v 0.00892832 0.583758 -0.326876
v 0.103769 0.427303 -0.0566342
v 0.00892832 0.432245 -0.0880906
v 0.0920084 0.431096 -0.241093
v 0.059666 0.441211 -0.335081
v 0.0719797 0.440357 -0.335081
v 0.0801973 0.439947 -0.335081
v 0.00892832 0.427533 -0.104855
v 0.00892832 0.426416 -0.11445
v 0.00892832 0.42727 -0.126771
v 0.0187039 0.4475 -0.335081
v 0.0232022 0.446465 -0.335081
v 0.0311433 0.444758 -0.335081
v 0.0356165 0.443871 -0.335081
v 0.0451911 0.44259 -0.335081
v 0.10485 0.427171 -0.0566342
v 0.0925362 0.425562 -0.0678648
v 0.0883897 0.584201 -0.335081
v 0.0760508 0.584004 -0.335081
v 0.0678584 0.583823 -0.335081
v 0.00892832 0.582001 -0.335081
v 0.00892832 0.583446 -0.328675
v 0.00892832 0.430406 -0.0942511
v 0.00892832 0.449947 -0.335081
f 1 2 5
f 1 5 9
f 1 9 26
f 1 26 25
f 1 25 41
f 1 41 63
f 1 63 88
f 1 88 60
f 1 60 87
f 1 87 103
f 1 103 117
f 1 117 97
f 1 97 74
f 1 74 73
f 1 73 49
f 1 49 33
f 1 33 17
f 1 17 16
f 1 16 15
f 1 15 14
f 1 14 13
f 1 13 10
f 1 10 6
f 1 6 3
f 1 3 7
f 1 7 12
f 1 12 27
f 1 27 8
f 1 8 4
f 1 4 2
f 2 4 5
f 3 6 7
f 4 8 5
f 5 8 9
f 6 10 7
f 7 11 29
f 7 29 46
f 7 46 68
f 7 68 93
f 7 93 92
f 7 92 108
f 7 108 107
f 7 107 106
f 7 106 116
f 7 116 115
f 7 115 114
f 7 114 113
f 7 113 112
f 7 112 125
f 7 125 122
f 7 122 121
f 7 121 120
f 7 120 119
f 7 119 101
f 7 101 80
f 7 80 64
f 7 64 42
f 7 42 32
f 7 32 12
f 7 10 13
f 7 13 14
f 7 14 15
f 7 15 16
f 7 16 17
f 7 17 18
f 7 18 19
f 7 19 11
f 8 20 21
f 8 21 22
f 8 22 23
f 8 23 24
f 8 24 25
f 8 25 26
f 8 26 9
f 8 27 20
f 11 28 29
f 11 19 30
f 11 30 31
f 11 31 28
f 12 32 27
f 17 33 34
f 17 34 30
f 17 30 18
f 18 30 19
f 20 27 21
f 21 27 22
f 22 35 23
f 22 27 36
f 22 36 37
f 22 37 35
f 23 38 39
f 23 39 40
f 23 40 25
f 23 25 24
f 23 35 38
f 25 40 41
f 27 32 42
f 27 42 43
f 27 43 36
f 28 44 45
f 28 45 46
f 28 46 29
f 28 31 47
f 28 47 44
f 30 34 48
f 30 48 31
f 31 48 47
f 33 49 50
f 33 50 51
f 33 51 52
f 33 52 34
f 34 52 48
f 35 53 38
f 35 37 54
f 35 54 53
f 36 43 37
f 37 43 55
f 37 55 56
f 37 56 54
f 38 57 39
f 38 53 58
f 38 58 57
f 39 59 60
f 39 60 61
f 39 61 62
f 39 62 40
f 39 57 59
f 40 62 63
f 40 63 41
f 42 64 43
f 43 64 55
f 44 65 45
f 44 47 66
f 44 66 65
f 45 65 67
f 45 67 68
f 45 68 46
f 47 48 69
f 47 69 70
f 47 70 71
f 47 71 66
f 48 52 51
f 48 51 72
f 48 72 69
f 49 73 50
f 50 73 74
f 50 74 75
f 50 75 76
f 50 76 51
f 51 76 72
f 53 54 77
f 53 77 78
f 53 78 58
f 54 56 77
f 55 79 56
f 55 64 80
f 55 80 79
f 56 79 77
f 57 81 59
f 57 58 82
f 57 82 83
f 57 83 84
f 57 84 81
f 58 78 85
f 58 85 82
f 59 81 60
f 60 86 84
f 60 84 102
f 60 102 123
f 60 123 122
f 60 122 125
f 60 125 111
f 60 111 96
f 60 96 110
f 60 110 109
f 60 109 124
f 60 124 104
f 60 104 87
f 60 88 62
f 60 62 61
f 60 81 86
f 62 88 63
f 65 89 67
f 65 66 89
f 66 71 90
f 66 90 89
f 67 91 92
f 67 92 93
f 67 93 68
f 67 89 91
f 69 72 94
f 69 94 95
f 69 95 96
f 69 96 70
f 70 96 71
f 71 96 90
f 72 76 94
f 74 97 75
f 75 97 98
f 75 98 94
f 75 94 76
f 77 79 99
f 77 99 78
f 78 99 100
f 78 100 85
f 79 80 99
f 80 101 99
f 81 84 86
f 82 85 102
f 82 102 83
f 83 102 84
f 85 100 102
f 87 104 103
f 89 105 96
f 89 96 91
f 89 90 105
f 90 96 105
f 91 106 107
f 91 107 108
f 91 108 92
f 91 96 106
f 94 98 95
f 95 109 110
f 95 110 96
f 95 98 109
f 96 111 112
f 96 112 113
f 96 113 114
f 96 114 115
f 96 115 116
f 96 116 106
f 97 117 98
f 98 117 103
f 98 103 118
f 98 118 109
f 99 101 119
f 99 119 100
f 100 119 120
f 100 120 121
f 100 121 122
f 100 122 123
f 100 123 102
f 103 104 118
f 104 124 118
f 109 118 124
f 111 125 112
