v -0.240273 -0.454685 -0.118429
v -0.307816 -0.454694 0.00616646
v -0.240536 -0.454694 -0.118193
v -0.240273 -0.454694 -0.120591
v -0.240273 -0.400903 -0.190396
v -0.344811 -0.394164 -0.0360074
v -0.352289 -0.401242 -0.0125425
v -0.352289 -0.405178 -0.0061752
v -0.315546 -0.454694 0.0177613
v -0.240306 -0.400572 -0.190789
v -0.240273 -0.454694 -0.330517
v -0.240273 -0.400617 -0.190789
v -0.309241 -0.383017 -0.112455
v -0.322717 -0.384025 -0.0894617
v -0.333572 -0.382776 -0.0748404
v -0.352289 -0.391603 -0.0294828
v -0.352289 -0.399483 -0.0156083
v -0.352289 -0.412478 0.00538037
v -0.352289 -0.454694 0.0710191
v -0.240273 -0.400546 -0.190907
v -0.240273 -0.393932 -0.203524
v -0.245306 -0.3937 -0.195309
v -0.352289 -0.454694 -0.330517
v -0.240273 -0.378938 -0.330517
v -0.296018 -0.382365 -0.135605
v -0.320063 -0.381972 -0.0976764
v -0.34446 -0.381749 -0.0602191
v -0.347366 -0.383757 -0.0520044
v -0.352289 -0.385364 -0.0421782
v -0.240273 -0.390549 -0.212092
v -0.242784 -0.392129 -0.203524
v -0.282959 -0.38183 -0.158992
v -0.352289 -0.364247 -0.330517
v -0.241534 -0.378286 -0.330517
v -0.240273 -0.378322 -0.289837
v -0.302509 -0.380348 -0.130692
v -0.317794 -0.38066 -0.104869
v -0.289735 -0.379402 -0.154589
v -0.33094 -0.381053 -0.083055
v -0.35151 -0.379839 -0.0558955
v -0.352289 -0.380098 -0.0540875
v -0.352289 -0.384802 -0.0433967
v -0.342004 -0.380437 -0.0678442
v -0.240273 -0.389773 -0.214136
v -0.269965 -0.38149 -0.182574
v -0.280799 -0.3805 -0.166499
v -0.352289 -0.370816 -0.104004
v -0.345567 -0.370031 -0.110647
v -0.298024 -0.363515 -0.330517
v -0.254023 -0.373128 -0.330517
v -0.240273 -0.378429 -0.277809
v -0.302202 -0.376787 -0.141815
v -0.313824 -0.378795 -0.116818
v -0.326851 -0.379759 -0.0931563
v -0.289877 -0.375457 -0.166499
v -0.352289 -0.379804 -0.0549915
v -0.351543 -0.376153 -0.0678442
v -0.326872 -0.376091 -0.104869
v -0.338298 -0.378599 -0.079439
v -0.339208 -0.374225 -0.0925275
v -0.259571 -0.38274 -0.198375
v -0.240273 -0.385034 -0.227853
v -0.26763 -0.380152 -0.191182
v -0.352289 -0.371494 -0.0917807
v -0.345238 -0.370031 -0.110647
v -0.306281 -0.369656 -0.166499
v -0.293901 -0.369486 -0.191182
v -0.287531 -0.364318 -0.330517
v -0.319087 -0.369718 -0.145235
v -0.27763 -0.366541 -0.330517
v -0.240273 -0.378661 -0.265507
v -0.314537 -0.374547 -0.129552
v -0.300118 -0.371182 -0.166499
v -0.303178 -0.372681 -0.154943
v -0.277542 -0.375243 -0.191182
v -0.290656 -0.372244 -0.178998
v -0.352289 -0.376109 -0.0671367
v -0.351543 -0.373333 -0.0801858
v -0.3148 -0.371521 -0.141422
v -0.310864 -0.370637 -0.151366
v -0.32253 -0.370227 -0.13702
v -0.240273 -0.384837 -0.228443
v -0.257487 -0.381446 -0.206589
v -0.264297 -0.378938 -0.202895
v -0.352289 -0.373324 -0.0794783
v -0.351543 -0.371459 -0.0925275
v -0.340359 -0.371467 -0.105852
v -0.307936 -0.369941 -0.159581
v -0.295283 -0.369807 -0.183203
v -0.285656 -0.370504 -0.203524
v -0.265207 -0.37311 -0.240509
v -0.277937 -0.366469 -0.330517
v -0.252871 -0.3756 -0.252851
v -0.240273 -0.37867 -0.265193
v -0.297794 -0.370396 -0.174989
v -0.277542 -0.373065 -0.203524
v -0.240273 -0.381838 -0.240509
v -0.240273 -0.380223 -0.249432
v -0.240273 -0.384543 -0.229622
v -0.240273 -0.379795 -0.252144
v -0.240273 -0.379875 -0.251436
f 1 2 3
f 1 3 4
f 1 4 11
f 1 11 24
f 1 24 35
f 1 35 51
f 1 51 71
f 1 71 94
f 1 94 100
f 1 100 101
f 1 101 98
f 1 98 97
f 1 97 99
f 1 99 82
f 1 82 62
f 1 62 44
f 1 44 30
f 1 30 21
f 1 21 20
f 1 20 12
f 1 12 5
f 1 5 2
f 2 6 7
f 2 7 8
f 2 8 9
f 2 9 19
f 2 19 23
f 2 23 11
f 2 11 4
f 2 4 3
f 2 5 10
f 2 10 6
f 5 12 10
f 6 13 14
f 6 14 15
f 6 15 16
f 6 16 17
f 6 17 7
f 6 10 13
f 7 17 16
f 7 16 29
f 7 29 42
f 7 42 41
f 7 41 56
f 7 56 77
f 7 77 85
f 7 85 64
f 7 64 47
f 7 47 33
f 7 33 23
f 7 23 19
f 7 19 18
f 7 18 8
f 8 18 9
f 9 18 19
f 10 12 20
f 10 20 21
f 10 21 22
f 10 22 13
f 11 23 33
f 11 33 49
f 11 49 68
f 11 68 92
f 11 92 70
f 11 70 50
f 11 50 34
f 11 34 24
f 13 25 26
f 13 26 15
f 13 15 14
f 13 22 25
f 15 26 27
f 15 27 16
f 16 27 28
f 16 28 29
f 21 30 31
f 21 31 22
f 22 31 32
f 22 32 25
f 24 34 35
f 25 36 37
f 25 37 26
f 25 32 38
f 25 38 36
f 26 37 39
f 26 39 27
f 27 40 41
f 27 41 42
f 27 42 28
f 27 39 43
f 27 43 40
f 28 42 29
f 30 44 45
f 30 45 31
f 31 45 32
f 32 45 46
f 32 46 38
f 33 47 48
f 33 48 49
f 34 50 35
f 35 50 51
f 36 38 52
f 36 52 53
f 36 53 37
f 37 54 39
f 37 53 54
f 38 46 55
f 38 55 52
f 39 54 43
f 40 56 41
f 40 43 57
f 40 57 56
f 43 54 58
f 43 58 59
f 43 59 60
f 43 60 57
f 44 61 45
f 44 62 61
f 45 63 55
f 45 55 46
f 45 61 63
f 47 64 48
f 48 64 65
f 48 65 49
f 49 66 67
f 49 67 68
f 49 65 69
f 49 69 66
f 50 70 71
f 50 71 51
f 52 72 58
f 52 58 53
f 52 55 72
f 53 58 54
f 55 73 74
f 55 74 72
f 55 63 75
f 55 75 76
f 55 76 73
f 56 57 77
f 57 60 78
f 57 78 77
f 58 60 59
f 58 72 60
f 60 72 79
f 60 79 80
f 60 80 81
f 60 81 78
f 61 62 82
f 61 82 63
f 63 82 83
f 63 83 84
f 63 84 75
f 64 85 86
f 64 86 65
f 65 86 87
f 65 87 81
f 65 81 69
f 66 88 89
f 66 89 67
f 66 69 88
f 67 89 90
f 67 90 68
f 68 91 92
f 68 90 91
f 69 81 88
f 70 92 91
f 70 91 93
f 70 93 94
f 70 94 71
f 72 74 79
f 73 88 80
f 73 80 74
f 73 76 95
f 73 95 88
f 74 80 79
f 75 96 76
f 75 84 97
f 75 97 98
f 75 98 96
f 76 89 95
f 76 96 89
f 77 78 85
f 78 81 87
f 78 87 86
f 78 86 85
f 80 88 81
f 82 99 83
f 83 99 97
f 83 97 84
f 88 95 89
f 89 96 90
f 90 96 93
f 90 93 91
f 93 100 94
f 93 96 100
f 96 98 101
f 96 101 100
