v 0.37565 0.401996 -0.228173
v 0.36696 0.405883 -0.240521
v 0.37565 0.402048 -0.228936
v 0.37565 0.402324 -0.216588
v 0.366645 0.405399 -0.228173
v 0.368456 0.406608 -0.248453
v 0.360796 0.408215 -0.240521
v 0.318194 0.428392 -0.297328
v 0.326884 0.424747 -0.289859
v 0.37565 0.403741 -0.240521
v 0.37565 0.402359 -0.215852
v 0.367545 0.405641 -0.215852
v 0.360475 0.408681 -0.228173
v 0.318194 0.427856 -0.28667
v 0.37565 0.403827 -0.241093
v 0.318194 0.430499 -0.310712
v 0.344535 0.419202 -0.284162
v 0.37565 0.425075 -0.335081
v 0.37565 0.403568 -0.204321
v 0.37565 0.403654 -0.203504
v 0.368963 0.406401 -0.203504
v 0.318194 0.428841 -0.277538
v 0.318194 0.436511 -0.335081
v 0.37565 0.569406 -0.335081
v 0.37565 0.405174 -0.192573
v 0.369919 0.406988 -0.196934
v 0.318194 0.470162 -0.0566342
v 0.318194 0.429048 -0.276202
v 0.318194 0.574796 -0.335081
v 0.374475 0.569631 -0.335081
v 0.37565 0.571617 -0.326876
v 0.37565 0.405209 -0.192382
v 0.37565 0.407818 -0.178862
v 0.37565 0.410512 -0.166541
v 0.37565 0.412119 -0.159644
v 0.37565 0.413276 -0.154738
v 0.37565 0.416455 -0.141872
v 0.37565 0.420014 -0.129524
v 0.37565 0.441192 -0.0672923
v 0.37565 0.444095 -0.0605322
v 0.37565 0.445788 -0.0566342
v 0.318194 0.575176 -0.0566342
v 0.318194 0.576299 -0.330501
v 0.322756 0.574934 -0.335081
v 0.363855 0.571237 -0.335081
v 0.363884 0.573725 -0.326876
v 0.351549 0.573794 -0.0566342
v 0.363889 0.571324 -0.0566342
v 0.374227 0.569147 -0.0566342
v 0.375268 0.568784 -0.0566342
v 0.37565 0.568646 -0.0566342
v 0.326884 0.576005 -0.0566342
v 0.318194 0.578476 -0.315291
v 0.318194 0.577474 -0.326085
v 0.326884 0.574796 -0.335081
v 0.351549 0.572896 -0.335081
v 0.351549 0.575245 -0.326876
v 0.351549 0.575228 -0.314528
v 0.339219 0.57547 -0.0566342
v 0.339219 0.576575 -0.314528
v 0.339219 0.576213 -0.326876
v 0.318194 0.578216 -0.319707
v 0.326884 0.576955 -0.326876
v 0.335085 0.574347 -0.335081
v 0.339219 0.574088 -0.335081
f 1 2 3
f 1 3 10
f 1 10 15
f 1 15 18
f 1 18 24
f 1 24 31
f 1 31 51
f 1 51 41
f 1 41 40
f 1 40 39
f 1 39 38
f 1 38 37
f 1 37 36
f 1 36 35
f 1 35 34
f 1 34 33
f 1 33 32
f 1 32 25
f 1 25 20
f 1 20 19
f 1 19 11
f 1 11 4
f 1 4 5
f 1 5 2
f 2 6 3
f 2 5 7
f 2 7 8
f 2 8 9
f 2 9 6
f 3 6 10
f 4 11 5
f 5 11 12
f 5 12 13
f 5 13 14
f 5 14 7
f 6 15 10
f 6 9 16
f 6 16 17
f 6 17 18
f 6 18 15
f 7 14 8
f 8 14 22
f 8 22 28
f 8 28 27
f 8 27 42
f 8 42 53
f 8 53 62
f 8 62 54
f 8 54 43
f 8 43 29
f 8 29 23
f 8 23 16
f 8 16 9
f 11 19 12
f 12 19 20
f 12 20 21
f 12 21 22
f 12 22 14
f 12 14 13
f 16 23 18
f 16 18 17
f 18 23 29
f 18 29 44
f 18 44 55
f 18 55 64
f 18 64 65
f 18 65 56
f 18 56 45
f 18 45 30
f 18 30 24
f 20 25 21
f 21 25 26
f 21 26 27
f 21 27 28
f 21 28 22
f 24 30 31
f 25 32 26
f 26 32 33
f 26 33 34
f 26 34 27
f 27 34 35
f 27 35 36
f 27 36 37
f 27 37 38
f 27 38 39
f 27 39 40
f 27 40 41
f 27 41 51
f 27 51 50
f 27 50 49
f 27 49 48
f 27 48 47
f 27 47 59
f 27 59 52
f 27 52 42
f 29 43 44
f 30 45 46
f 30 46 31
f 31 46 47
f 31 47 48
f 31 48 49
f 31 49 50
f 31 50 51
f 42 52 53
f 43 54 44
f 44 54 55
f 45 56 46
f 46 56 57
f 46 57 58
f 46 58 59
f 46 59 47
f 52 59 53
f 53 60 57
f 53 57 61
f 53 61 62
f 53 59 60
f 54 62 63
f 54 63 55
f 55 63 64
f 56 65 57
f 57 60 58
f 57 65 61
f 58 60 59
f 61 65 64
f 61 64 63
f 61 63 62
