v 0.00892832 -0.463999 0.100902
v -0.177717 -0.459467 0.100902
v 0.00892832 -0.563033 0.100902
v 0.00892832 -0.459399 0.089897
v -0.177717 -0.459332 0.100105
v -0.177717 -0.565181 0.100902
v 0.00892832 -0.457151 0.0844684
v 0.00892832 -0.454817 0.0783318
v 0.00892832 -0.451199 0.0678287
v 0.00892832 -0.447614 0.0554964
v 0.00892832 -0.407489 -0.0827553
v 0.00892832 -0.406796 -0.0860891
v 0.0073023 -0.563405 0.100902
v 0.00892832 -0.567852 0.0753815
v -0.177717 -0.458131 0.0924933
v 0.00892832 -0.406137 -0.0899836
v 0.00892832 -0.405731 -0.0924913
v -0.166518 -0.566364 0.100902
v -0.177717 -0.574396 0.0678287
v -0.166518 -0.575799 0.0678287
v -0.00546838 -0.566246 0.100902
v 0.00615129 -0.56819 0.0764141
v -0.0061809 -0.570794 0.0678287
v 0.00892832 -0.567971 0.071251
v -0.177717 -0.458013 0.0913427
v 0.00892832 -0.404395 -0.104116
v -0.154186 -0.567244 0.100902
v -0.177717 -0.574125 0.056647
v -0.154186 -0.576442 0.0678287
v -0.177717 -0.570084 -0.0308593
v -0.161366 -0.567599 -0.114294
v -0.158753 -0.567362 -0.122526
v -0.141853 -0.567227 0.100902
v -0.129503 -0.573466 0.080161
v -0.141853 -0.576425 0.0678287
v -0.0308453 -0.572756 0.0678287
v -0.0185131 -0.570203 0.080161
v -0.0185131 -0.572198 0.0678287
v -0.00623572 -0.56907 0.0808395
v -0.0185131 -0.571623 -0.0308593
v -0.0061809 -0.570101 -0.0308593
v 0.00892832 -0.568072 -0.0290006
v 0.00892832 -0.568123 -0.018409
v -0.177717 -0.457286 0.0792464
v 0.00892832 -0.403719 -0.117156
v 0.00615129 -0.404311 -0.117156
v -0.00311156 -0.406357 -0.117156
v -0.129503 -0.433935 -0.129518
v -0.141853 -0.573534 0.080161
v -0.0431775 -0.573551 -0.0308593
v -0.150532 -0.56748 -0.123824
v -0.177717 -0.569492 -0.042041
v -0.177717 -0.564792 -0.128485
v -0.177717 -0.564724 -0.129518
v -0.166518 -0.565891 -0.129518
v -0.154186 -0.559888 -0.178847
v -0.0308453 -0.564403 -0.178847
v -0.0308453 -0.572891 -0.0308593
v 0.00147419 -0.567683 -0.0869742
v 0.00892832 -0.564589 -0.0918717
v -0.141853 -0.436826 -0.129518
v -0.172784 -0.444046 -0.135566
v -0.177717 -0.445534 -0.140817
v 0.00892832 -0.404243 -0.129518
v 0.00615129 -0.404801 -0.129518
v -0.0628177 -0.41914 -0.136717
v -0.0627994 -0.41914 -0.129518
v -0.172784 -0.444046 -0.136008
v -0.0231902 -0.56743 -0.123647
v -0.177717 -0.559635 -0.166515
v -0.166518 -0.559077 -0.178847
v -0.177717 -0.552279 -0.200502
v -0.166518 -0.552736 -0.200502
v -0.129503 -0.554072 -0.200502
v -0.0239758 -0.556202 -0.200502
v -0.0185131 -0.556253 -0.200502
v -0.0119907 -0.556185 -0.200502
v -0.0061809 -0.555864 -0.200502
v -0.0185131 -0.563202 -0.178847
v 0.00892832 -0.562103 -0.129518
v -0.171341 -0.444334 -0.14424
v -0.177717 -0.450336 -0.200502
v 0.00892832 -0.404547 -0.132262
v -0.11454 -0.431043 -0.139018
v -0.177717 -0.557487 -0.179467
v 0.00892832 -0.554122 -0.200502
v 0.00892832 -0.555881 -0.187521
v 0.00892832 -0.405799 -0.141083
v 0.00892832 -0.406187 -0.142971
v 0.00892832 -0.406492 -0.144358
v 0.00892832 -0.408318 -0.151468
v 0.00892832 -0.412393 -0.166397
v 0.00892832 -0.420019 -0.194307
v 0.00892832 -0.421727 -0.200502
f 1 2 6
f 1 6 18
f 1 18 27
f 1 27 33
f 1 33 21
f 1 21 13
f 1 13 3
f 1 3 14
f 1 14 24
f 1 24 43
f 1 43 42
f 1 42 60
f 1 60 80
f 1 80 87
f 1 87 86
f 1 86 94
f 1 94 93
f 1 93 92
f 1 92 91
f 1 91 90
f 1 90 89
f 1 89 88
f 1 88 83
f 1 83 64
f 1 64 45
f 1 45 26
f 1 26 17
f 1 17 16
f 1 16 12
f 1 12 11
f 1 11 10
f 1 10 9
f 1 9 8
f 1 8 7
f 1 7 4
f 1 4 2
f 2 5 15
f 2 15 25
f 2 25 44
f 2 44 63
f 2 63 82
f 2 82 72
f 2 72 85
f 2 85 70
f 2 70 54
f 2 54 53
f 2 53 52
f 2 52 30
f 2 30 28
f 2 28 19
f 2 19 6
f 2 4 7
f 2 7 8
f 2 8 9
f 2 9 10
f 2 10 11
f 2 11 12
f 2 12 5
f 3 13 14
f 5 12 16
f 5 16 17
f 5 17 15
f 6 19 20
f 6 20 18
f 13 21 14
f 14 22 23
f 14 23 24
f 14 21 22
f 15 17 26
f 15 26 25
f 18 20 27
f 19 28 20
f 20 29 27
f 20 28 30
f 20 30 31
f 20 31 32
f 20 32 29
f 21 33 34
f 21 34 35
f 21 35 36
f 21 36 37
f 21 37 38
f 21 38 39
f 21 39 22
f 22 39 23
f 23 39 38
f 23 38 40
f 23 40 41
f 23 41 42
f 23 42 43
f 23 43 24
f 25 26 44
f 26 45 46
f 26 46 47
f 26 47 48
f 26 48 44
f 27 49 33
f 27 29 49
f 29 50 35
f 29 35 49
f 29 32 51
f 29 51 50
f 30 52 31
f 31 53 32
f 31 52 53
f 32 53 54
f 32 54 55
f 32 55 56
f 32 56 57
f 32 57 51
f 33 49 34
f 34 49 35
f 35 50 36
f 36 38 37
f 36 50 38
f 38 50 58
f 38 58 40
f 40 58 59
f 40 59 41
f 41 59 42
f 42 59 60
f 44 48 61
f 44 61 62
f 44 62 63
f 45 64 65
f 45 65 66
f 45 66 46
f 46 66 67
f 46 67 47
f 47 67 48
f 48 67 66
f 48 66 68
f 48 68 62
f 48 62 61
f 50 51 57
f 50 57 69
f 50 69 58
f 54 70 55
f 55 70 71
f 55 71 56
f 56 71 72
f 56 72 73
f 56 73 57
f 57 73 74
f 57 74 75
f 57 75 76
f 57 76 77
f 57 77 78
f 57 78 79
f 57 79 59
f 57 59 69
f 58 69 59
f 59 79 80
f 59 80 60
f 62 68 63
f 63 68 81
f 63 81 82
f 64 83 66
f 64 66 65
f 66 83 82
f 66 82 81
f 66 81 84
f 66 84 68
f 68 84 81
f 70 85 71
f 71 85 72
f 72 82 94
f 72 94 86
f 72 86 78
f 72 78 77
f 72 77 76
f 72 76 75
f 72 75 74
f 72 74 73
f 78 86 79
f 79 86 87
f 79 87 80
f 82 88 89
f 82 89 90
f 82 90 91
f 82 91 92
f 82 92 93
f 82 93 94
f 82 83 88
