v 0.551519 -0.137477 0.225557
v 0.549835 -0.137477 0.225557
v 0.557414 -0.137477 0.224902
v 0.555175 -0.00917777 0.222079
v 0.542389 -0.0972578 0.222281
v 0.542389 -0.102187 0.222281
v 0.491791 0.00318675 0.199795
v 0.543416 -0.137477 0.222591
v 0.554158 -0.00917777 0.222079
v 0.548982 0.00318675 0.221579
v 0.547719 -0.0420443 0.22271
v 0.54243 -0.0453901 0.222222
v 0.559868 -0.137477 0.223246
v 0.556397 -0.0431733 0.222722
v 0.561357 0.00318675 0.2161
v 0.559693 0.00318675 0.216898
v 0.54281 -0.0371701 0.222019
v 0.490168 0.00318675 0.190945
v 0.49252 -0.00617614 0.19883
v 0.511128 -0.137477 0.203582
v 0.512772 -0.137477 0.206167
v 0.51691 -0.137477 0.210109
v 0.516972 -0.129518 0.2103
v 0.566297 -0.137477 0.214826
v 0.568053 -0.0335213 0.210871
v 0.567498 -0.00986622 0.209871
v 0.566471 0.00318675 0.204166
v 0.483811 0.00318675 0.141862
v 0.484325 -0.00617614 0.141862
v 0.493187 -0.0134461 0.197794
v 0.509793 -0.137477 0.196305
v 0.581917 -0.137477 0.188492
v 0.586518 -0.137477 0.178856
v 0.580284 -0.0185131 0.173889
v 0.579986 -0.0110366 0.173258
v 0.575365 0.00318675 0.178642
v 0.483503 0.00318675 0.138884
v 0.483031 -0.00617614 0.129523
v 0.484253 -0.0185131 0.129523
v 0.485896 -0.0185131 0.141862
v 0.509013 -0.137477 0.191612
v 0.587863 -0.137477 0.166517
v 0.581598 -0.0179348 0.117803
v 0.580602 -0.0101967 0.114099
v 0.577213 0.00318675 0.166445
v 0.576874 0.00318675 0.169185
v 0.581383 -0.0308501 0.166517
v 0.582615 -0.0308501 0.117184
v 0.483041 0.00318675 0.129523
v 0.482949 -0.0185131 0.103892
v 0.482959 -0.019477 0.103892
v 0.48339 -0.0308501 0.103892
v 0.483462 -0.0318139 0.103892
v 0.484705 -0.0431733 0.103892
v 0.484838 -0.0441509 0.103892
v 0.500674 -0.137477 0.117184
v 0.579709 -0.137477 0.103892
v 0.581578 -0.0308501 0.106536
v 0.581455 -0.0185131 0.105392
v 0.580602 -0.0101967 0.106941
v 0.575919 0.00318675 0.103892
v 0.483144 0.00318675 0.126545
v 0.483904 -0.00713997 0.103892
v 0.499195 -0.137477 0.103892
v 0.580982 -0.0185131 0.103892
v 0.578785 -0.00642398 0.103892
v 0.485598 0.00318675 0.103892
v 0.484006 -0.00617614 0.103892
f 1 2 8
f 1 8 22
f 1 22 21
f 1 21 20
f 1 20 31
f 1 31 41
f 1 41 56
f 1 56 64
f 1 64 57
f 1 57 42
f 1 42 33
f 1 33 32
f 1 32 24
f 1 24 13
f 1 13 3
f 1 3 4
f 1 4 9
f 1 9 2
f 2 5 6
f 2 6 7
f 2 7 8
f 2 9 10
f 2 10 11
f 2 11 12
f 2 12 5
f 3 13 14
f 3 14 4
f 4 14 15
f 4 15 16
f 4 16 10
f 4 10 9
f 5 12 7
f 5 7 6
f 7 12 17
f 7 17 10
f 7 10 16
f 7 16 15
f 7 15 27
f 7 27 36
f 7 36 46
f 7 46 45
f 7 45 61
f 7 61 67
f 7 67 62
f 7 62 49
f 7 49 37
f 7 37 28
f 7 28 18
f 7 18 19
f 7 19 20
f 7 20 21
f 7 21 22
f 7 22 23
f 7 23 8
f 8 23 22
f 10 17 12
f 10 12 11
f 13 24 25
f 13 25 15
f 13 15 14
f 15 26 27
f 15 25 26
f 18 28 29
f 18 29 30
f 18 30 19
f 19 30 20
f 20 30 31
f 24 32 25
f 25 32 33
f 25 33 26
f 26 34 35
f 26 35 36
f 26 36 27
f 26 33 34
f 28 37 38
f 28 38 29
f 29 38 39
f 29 39 40
f 29 40 30
f 30 40 41
f 30 41 31
f 33 42 35
f 33 35 34
f 35 43 44
f 35 44 45
f 35 45 46
f 35 46 36
f 35 42 47
f 35 47 48
f 35 48 43
f 37 49 38
f 38 49 50
f 38 50 51
f 38 51 52
f 38 52 53
f 38 53 39
f 39 53 54
f 39 54 55
f 39 55 41
f 39 41 40
f 41 55 56
f 42 57 58
f 42 58 59
f 42 59 48
f 42 48 47
f 43 59 60
f 43 60 44
f 43 48 59
f 44 60 45
f 45 60 61
f 49 62 50
f 50 63 68
f 50 68 67
f 50 67 61
f 50 61 66
f 50 66 65
f 50 65 57
f 50 57 64
f 50 64 55
f 50 55 54
f 50 54 53
f 50 53 52
f 50 52 51
f 50 62 63
f 55 64 56
f 57 65 59
f 57 59 58
f 59 65 60
f 60 66 61
f 60 65 66
f 62 67 68
f 62 68 63
