v 0.425563 0.576183 -0.41321
v 0.437901 0.575974 -0.41321
v 0.375671 0.574441 -0.425548
v 0.375671 0.574497 -0.424973
v 0.375671 0.575444 -0.41321
v 0.413246 0.572869 -0.31455
v 0.437901 0.573342 -0.425548
v 0.437901 0.57285 -0.326887
v 0.450239 0.574876 -0.41321
v 0.450239 0.572926 -0.425548
v 0.375671 0.56982 -0.438496
v 0.375671 0.5716 -0.326887
v 0.375671 0.571562 -0.326313
v 0.375671 0.570653 -0.31455
v 0.400908 0.569271 -0.30488
v 0.413246 0.569536 -0.304084
v 0.425563 0.572528 -0.31455
v 0.450239 0.569214 -0.43455
v 0.375671 0.569404 -0.439533
v 0.555341 0.55558 -0.298489
v 0.450239 0.571392 -0.326887
v 0.536564 0.561696 -0.363899
v 0.548902 0.561924 -0.41321
v 0.548902 0.561128 -0.425548
v 0.462577 0.568646 -0.43368
v 0.548902 0.558818 -0.437885
v 0.548902 0.556413 -0.445758
v 0.375671 0.568059 -0.307511
v 0.400908 0.565862 -0.298489
v 0.413246 0.566733 -0.298489
v 0.425563 0.566241 -0.298489
v 0.425563 0.569063 -0.304713
v 0.548902 0.556243 -0.298489
v 0.450239 0.556716 -0.458539
v 0.375671 0.567491 -0.444016
v 0.556608 0.555315 -0.298489
v 0.562403 0.557682 -0.412377
v 0.56124 0.558458 -0.425548
v 0.560783 0.556678 -0.437088
v 0.556379 0.555826 -0.444924
v 0.536564 0.545979 -0.458632
v 0.536564 0.552134 -0.45213
v 0.375671 0.562814 -0.298489
v 0.375775 0.562852 -0.298489
v 0.376232 0.562946 -0.298489
v 0.38857 0.564537 -0.298489
v 0.451444 0.548024 -0.465504
v 0.437901 0.549672 -0.464967
v 0.437901 0.556906 -0.458799
v 0.524226 0.547172 -0.459114
v 0.375671 0.56376 -0.448592
v 0.561697 0.552702 -0.298489
v 0.567762 0.55541 -0.415952
v 0.56799 0.555618 -0.425548
v 0.567824 0.555466 -0.432439
v 0.546243 0.544483 -0.457706
v 0.564584 0.551698 -0.440663
v 0.567928 0.518465 -0.469172
v 0.56124 0.502066 -0.479527
v 0.451444 0.537799 -0.472359
v 0.375671 0.422779 -0.298489
v 0.456367 0.542722 -0.468728
v 0.448141 0.543328 -0.46908
v 0.437901 0.536568 -0.473989
v 0.425563 0.528065 -0.480139
v 0.413246 0.528482 -0.480083
v 0.375671 0.549255 -0.462893
v 0.375671 0.556072 -0.457595
v 0.375671 0.556356 -0.457298
v 0.568447 0.548195 -0.298489
v 0.570753 0.54632 -0.298489
v 0.579061 0.541472 -0.388573
v 0.573495 0.548895 -0.425548
v 0.570192 0.548119 -0.437088
v 0.579082 0.54081 -0.425548
v 0.580557 0.532951 -0.433346
v 0.568053 0.54348 -0.444665
v 0.570317 0.511894 -0.470932
v 0.567616 0.493677 -0.481176
v 0.578978 0.504357 -0.46769
v 0.56124 0.495893 -0.48201
v 0.548902 0.497786 -0.48314
v 0.437901 0.526835 -0.479713
v 0.375671 0.382729 -0.335334
v 0.431587 0.382729 -0.298489
v 0.437901 0.52068 -0.48188
v 0.425563 0.521892 -0.482121
v 0.413246 0.522309 -0.482306
v 0.400908 0.521173 -0.482065
v 0.400908 0.527346 -0.479472
v 0.376232 0.535507 -0.472247
v 0.375671 0.535754 -0.472044
v 0.375671 0.542003 -0.467913
v 0.375671 0.548895 -0.463152
v 0.572622 0.543423 -0.298489
v 0.576839 0.536113 -0.298489
v 0.578563 0.5328 -0.298489
v 0.581803 0.535299 -0.388573
v 0.576299 0.536871 -0.437625
v 0.58118 0.508258 -0.459466
v 0.580972 0.534636 -0.425548
v 0.584773 0.499566 -0.450222
v 0.585666 0.48722 -0.462559
v 0.582468 0.499964 -0.46317
v 0.573308 0.499017 -0.474822
v 0.575655 0.48722 -0.478175
v 0.569486 0.48722 -0.482084
v 0.56124 0.48722 -0.484307
v 0.580806 0.49612 -0.470191
v 0.548902 0.48722 -0.485992
v 0.375671 0.382729 -0.475471
v 0.587827 0.382729 -0.298489
v 0.413246 0.511894 -0.484029
v 0.425563 0.511894 -0.483955
v 0.400908 0.511894 -0.483232
v 0.39181 0.519525 -0.48151
v 0.388051 0.52388 -0.479398
v 0.375671 0.53547 -0.472173
v 0.580204 0.52424 -0.298489
v 0.58469 0.52424 -0.388573
v 0.586684 0.48722 -0.450222
v 0.586518 0.474911 -0.462559
v 0.58253 0.474911 -0.473526
v 0.581969 0.48722 -0.472007
v 0.578106 0.474911 -0.479694
v 0.56124 0.474911 -0.486344
v 0.571937 0.474911 -0.483325
v 0.548902 0.474911 -0.48703
v 0.375671 0.437909 -0.47812
v 0.376232 0.382729 -0.475637
v 0.584462 0.382729 -0.400873
v 0.586476 0.425563 -0.450222
v 0.586767 0.437909 -0.450222
v 0.587432 0.474911 -0.450222
v 0.585376 0.511894 -0.388573
v 0.587515 0.388561 -0.298489
v 0.413246 0.499566 -0.48401
v 0.548902 0.462583 -0.487697
v 0.425563 0.499566 -0.484381
v 0.388051 0.51161 -0.481732
v 0.383585 0.51553 -0.48088
v 0.416632 0.382729 -0.481361
v 0.381882 0.504868 -0.481176
v 0.381882 0.507311 -0.481176
v 0.376232 0.52424 -0.477249
v 0.375671 0.524733 -0.476953
v 0.582115 0.462583 -0.473044
v 0.579871 0.382729 -0.468191
v 0.579747 0.382729 -0.468672
v 0.577981 0.462583 -0.479212
v 0.571812 0.462583 -0.483473
v 0.56124 0.462583 -0.486863
v 0.375671 0.450237 -0.478397
v 0.400908 0.382729 -0.479713
v 0.38857 0.382729 -0.478027
v 0.581782 0.382729 -0.450222
v 0.581097 0.382729 -0.460058
v 0.580868 0.382729 -0.462559
v 0.41956 0.382729 -0.481472
v 0.548902 0.450237 -0.487104
v 0.536564 0.450237 -0.486956
v 0.377146 0.51161 -0.479639
v 0.375671 0.511648 -0.479212
v 0.375671 0.51303 -0.47899
v 0.375671 0.52424 -0.477101
v 0.405 0.382729 -0.480157
v 0.57956 0.382729 -0.46895
v 0.573204 0.382729 -0.473952
v 0.564895 0.382729 -0.48012
v 0.561094 0.382729 -0.481269
v 0.558352 0.382729 -0.481899
v 0.425563 0.382729 -0.481584
v 0.548902 0.382729 -0.482195
f 1 2 3
f 1 3 4
f 1 4 5
f 1 5 6
f 1 6 2
f 2 7 3
f 2 6 8
f 2 8 9
f 2 9 10
f 2 10 7
f 3 11 19
f 3 19 35
f 3 35 51
f 3 51 69
f 3 69 68
f 3 68 67
f 3 67 94
f 3 94 93
f 3 93 92
f 3 92 118
f 3 118 146
f 3 146 165
f 3 165 164
f 3 164 163
f 3 163 153
f 3 153 129
f 3 129 111
f 3 111 84
f 3 84 61
f 3 61 43
f 3 43 28
f 3 28 14
f 3 14 13
f 3 13 12
f 3 12 5
f 3 5 4
f 3 7 11
f 5 12 6
f 6 12 13
f 6 13 14
f 6 14 15
f 6 15 16
f 6 16 17
f 6 17 8
f 7 10 18
f 7 18 19
f 7 19 11
f 8 17 20
f 8 20 21
f 8 21 9
f 9 21 22
f 9 22 23
f 9 23 24
f 9 24 10
f 10 25 18
f 10 24 26
f 10 26 27
f 10 27 25
f 14 28 15
f 15 29 30
f 15 30 16
f 15 28 29
f 16 30 31
f 16 31 32
f 16 32 17
f 17 32 33
f 17 33 20
f 18 25 27
f 18 27 34
f 18 34 35
f 18 35 19
f 20 36 23
f 20 23 22
f 20 22 21
f 20 33 31
f 20 31 30
f 20 30 29
f 20 29 46
f 20 46 45
f 20 45 44
f 20 44 43
f 20 43 61
f 20 61 85
f 20 85 112
f 20 112 136
f 20 136 119
f 20 119 97
f 20 97 96
f 20 96 95
f 20 95 71
f 20 71 70
f 20 70 52
f 20 52 36
f 23 36 37
f 23 37 38
f 23 38 24
f 24 38 39
f 24 39 26
f 26 39 40
f 26 40 27
f 27 40 41
f 27 41 42
f 27 42 34
f 28 43 44
f 28 44 45
f 28 45 46
f 28 46 29
f 31 33 32
f 34 47 48
f 34 48 49
f 34 49 35
f 34 42 50
f 34 50 47
f 35 49 51
f 36 52 53
f 36 53 37
f 37 53 54
f 37 54 38
f 38 54 55
f 38 55 39
f 39 55 40
f 40 56 41
f 40 55 57
f 40 57 58
f 40 58 56
f 41 50 42
f 41 56 58
f 41 58 59
f 41 59 60
f 41 60 50
f 47 62 63
f 47 63 48
f 47 50 62
f 48 63 64
f 48 64 65
f 48 65 66
f 48 66 67
f 48 67 68
f 48 68 49
f 49 68 69
f 49 69 51
f 50 60 62
f 52 70 53
f 53 70 71
f 53 71 72
f 53 72 54
f 54 72 73
f 54 73 55
f 55 74 57
f 55 73 75
f 55 75 76
f 55 76 74
f 57 74 77
f 57 77 58
f 58 78 79
f 58 79 59
f 58 77 80
f 58 80 78
f 59 79 81
f 59 81 82
f 59 82 83
f 59 83 60
f 60 83 65
f 60 65 63
f 60 63 62
f 61 84 85
f 63 65 64
f 65 83 82
f 65 82 86
f 65 86 87
f 65 87 88
f 65 88 66
f 66 88 89
f 66 89 90
f 66 90 91
f 66 91 92
f 66 92 93
f 66 93 94
f 66 94 67
f 71 95 72
f 72 95 96
f 72 96 97
f 72 97 98
f 72 98 75
f 72 75 73
f 74 76 99
f 74 99 100
f 74 100 80
f 74 80 77
f 75 98 101
f 75 101 76
f 76 101 102
f 76 102 103
f 76 103 104
f 76 104 100
f 76 100 99
f 78 80 105
f 78 105 79
f 79 105 106
f 79 106 107
f 79 107 108
f 79 108 81
f 80 100 109
f 80 109 105
f 81 108 110
f 81 110 82
f 82 110 87
f 82 87 86
f 84 111 130
f 84 130 155
f 84 155 154
f 84 154 166
f 84 166 142
f 84 142 159
f 84 159 172
f 84 172 173
f 84 173 171
f 84 171 170
f 84 170 169
f 84 169 168
f 84 168 167
f 84 167 149
f 84 149 148
f 84 148 158
f 84 158 157
f 84 157 156
f 84 156 131
f 84 131 112
f 84 112 85
f 87 110 88
f 88 113 89
f 88 110 114
f 88 114 113
f 89 113 115
f 89 115 116
f 89 116 117
f 89 117 90
f 90 117 91
f 91 118 92
f 91 117 118
f 97 119 120
f 97 120 98
f 98 120 101
f 100 104 109
f 101 120 121
f 101 121 102
f 102 121 103
f 103 121 122
f 103 122 123
f 103 123 124
f 103 124 109
f 103 109 104
f 105 109 106
f 106 109 124
f 106 124 125
f 106 125 107
f 107 126 108
f 107 125 127
f 107 127 126
f 108 126 110
f 110 126 128
f 110 128 113
f 110 113 114
f 111 129 130
f 112 131 132
f 112 132 133
f 112 133 134
f 112 134 135
f 112 135 136
f 113 137 115
f 113 128 138
f 113 138 139
f 113 139 137
f 115 140 141
f 115 141 116
f 115 137 142
f 115 142 143
f 115 143 144
f 115 144 140
f 116 141 145
f 116 145 117
f 117 145 146
f 117 146 118
f 119 136 135
f 119 135 120
f 120 135 134
f 120 134 121
f 121 134 122
f 122 147 123
f 122 134 133
f 122 133 132
f 122 132 148
f 122 148 149
f 122 149 147
f 123 147 150
f 123 150 125
f 123 125 124
f 125 150 151
f 125 151 127
f 126 152 138
f 126 138 128
f 126 127 152
f 127 151 152
f 129 153 143
f 129 143 154
f 129 154 155
f 129 155 130
f 131 156 132
f 132 156 157
f 132 157 158
f 132 158 148
f 137 139 138
f 137 138 159
f 137 159 142
f 138 152 160
f 138 160 161
f 138 161 159
f 140 144 141
f 141 144 162
f 141 162 163
f 141 163 164
f 141 164 165
f 141 165 145
f 142 166 143
f 143 153 163
f 143 163 144
f 143 166 154
f 144 163 162
f 145 165 146
f 147 149 150
f 149 167 150
f 150 167 168
f 150 168 169
f 150 169 151
f 151 169 152
f 152 169 170
f 152 170 171
f 152 171 160
f 159 161 172
f 160 171 173
f 160 173 172
f 160 172 161
