v -0.496617 0.580242 -0.220807
v -0.487241 0.580174 -0.221027
v -0.496617 0.580242 -0.226144
v -0.511904 0.576974 -0.2282
v -0.511904 0.576943 -0.215869
v -0.511922 0.57392 -0.203504
v -0.480757 0.579814 -0.221916
v -0.487241 0.580174 -0.228154
v -0.487241 0.577785 -0.262507
v -0.489936 0.577755 -0.262507
v -0.499569 0.577311 -0.262507
v -0.500262 0.579324 -0.229436
v -0.511904 0.574463 -0.262507
v -0.52424 0.571562 -0.2282
v -0.502263 0.576714 -0.262507
v -0.525087 0.57072 -0.216297
v -0.522812 0.570337 -0.203504
v -0.499423 0.571723 -0.203504
v -0.480757 0.579814 -0.226086
v -0.450277 0.570322 -0.215973
v -0.450277 0.574593 -0.2282
v -0.450277 0.576109 -0.262466
v -0.452937 0.576507 -0.262507
v -0.46257 0.577418 -0.262507
v -0.465273 0.577586 -0.262507
v -0.477609 0.577824 -0.262507
v -0.513872 0.573529 -0.262507
v -0.521477 0.569802 -0.262507
v -0.530494 0.56749 -0.234674
v -0.530648 0.567643 -0.2282
v -0.530639 0.567635 -0.220698
v -0.52898 0.565737 -0.203533
v -0.528988 0.565722 -0.203504
v -0.450277 0.561802 -0.203504
v -0.450277 0.566709 -0.210452
v -0.450277 0.567306 -0.262507
v -0.52797 0.561864 -0.262507
v -0.532932 0.56168 -0.239485
v -0.533993 0.561244 -0.2282
v -0.532496 0.559567 -0.203504
v -0.450277 0.50205 -0.203504
v -0.450277 0.50205 -0.262507
v -0.530006 0.548912 -0.262507
v -0.536833 0.548912 -0.240531
v -0.532222 0.557853 -0.250158
v -0.537671 0.548912 -0.2282
v -0.534908 0.548912 -0.203504
v -0.53312 0.50205 -0.203504
v -0.510005 0.50205 -0.262507
v -0.529707 0.546478 -0.262507
v -0.533958 0.536098 -0.240947
v -0.531195 0.50316 -0.223418
v -0.536935 0.53658 -0.2282
v -0.534266 0.51191 -0.203504
v -0.531392 0.50205 -0.219641
v -0.517337 0.50205 -0.262495
v -0.517337 0.502066 -0.262507
v -0.531024 0.50205 -0.222419
f 1 2 8
f 1 8 3
f 1 3 4
f 1 4 5
f 1 5 6
f 1 6 2
f 2 7 19
f 2 19 8
f 2 6 7
f 3 8 9
f 3 9 10
f 3 10 11
f 3 11 12
f 3 12 4
f 4 13 14
f 4 14 5
f 4 12 11
f 4 11 15
f 4 15 13
f 5 14 16
f 5 16 17
f 5 17 6
f 6 17 33
f 6 33 40
f 6 40 47
f 6 47 54
f 6 54 48
f 6 48 41
f 6 41 34
f 6 34 18
f 6 18 7
f 7 18 20
f 7 20 21
f 7 21 22
f 7 22 23
f 7 23 19
f 8 19 24
f 8 24 25
f 8 25 26
f 8 26 9
f 9 26 25
f 9 25 24
f 9 24 23
f 9 23 36
f 9 36 42
f 9 42 49
f 9 49 57
f 9 57 50
f 9 50 43
f 9 43 37
f 9 37 28
f 9 28 27
f 9 27 13
f 9 13 15
f 9 15 11
f 9 11 10
f 13 27 14
f 14 27 28
f 14 28 29
f 14 29 30
f 14 30 31
f 14 31 16
f 16 31 17
f 17 31 32
f 17 32 33
f 18 34 35
f 18 35 20
f 19 23 24
f 20 35 34
f 20 34 41
f 20 41 42
f 20 42 36
f 20 36 22
f 20 22 21
f 22 36 23
f 28 37 29
f 29 37 38
f 29 38 39
f 29 39 30
f 30 39 31
f 31 39 40
f 31 40 33
f 31 33 32
f 37 43 44
f 37 44 45
f 37 45 38
f 38 44 39
f 38 45 44
f 39 44 46
f 39 46 40
f 40 46 47
f 41 48 55
f 41 55 58
f 41 58 56
f 41 56 49
f 41 49 42
f 43 50 44
f 44 51 52
f 44 52 53
f 44 53 46
f 44 50 51
f 46 53 54
f 46 54 47
f 48 54 53
f 48 53 52
f 48 52 55
f 49 56 57
f 50 52 51
f 50 57 56
f 50 56 52
f 52 58 55
f 52 56 58
