v -0.565746 0.400867 0.456684
v -0.569205 0.400867 0.456684
v -0.566421 0.388523 0.456615
v -0.561231 0.166539 0.455117
v -0.559523 0.414174 0.455739
v -0.565408 0.414174 0.456592
v -0.568593 0.414174 0.456615
v -0.575575 0.388523 0.455785
v -0.575238 0.376209 0.455878
v -0.569374 0.388523 0.456615
v -0.57355 0.129537 0.453988
v -0.561231 0.154224 0.454795
v -0.54887 0.166539 0.45127
v -0.55773 0.415137 0.455232
v -0.573909 0.415137 0.455371
v -0.574837 0.413211 0.455255
v -0.575386 0.400867 0.455555
v -0.585911 0.388523 0.451247
v -0.585911 0.376209 0.451362
v -0.585933 0.117106 0.449219
v -0.57355 0.117018 0.453251
v -0.561231 0.141881 0.453942
v -0.54887 0.154224 0.450579
v -0.540074 0.166539 0.44604
v -0.53923 0.2282 0.446155
v -0.54809 0.415137 0.451016
v -0.540601 0.154224 0.445694
v -0.604643 0.415137 0.40298
v -0.597133 0.414174 0.438115
v -0.59283 0.414174 0.444865
v -0.585911 0.414174 0.449887
v -0.585911 0.400867 0.450694
v -0.593632 0.388523 0.445671
v -0.593315 0.400867 0.445349
v -0.593674 0.376209 0.445671
v -0.592978 0.117106 0.444934
v -0.597661 0.117076 0.437792
v -0.603187 0.117018 0.424683
v -0.547795 0.117018 0.446478
v -0.561253 0.117106 0.451938
v -0.537965 0.117018 0.441202
v -0.533619 0.178883 0.441547
v -0.533071 0.215914 0.442285
v -0.526975 0.117018 0.434313
v -0.539779 0.415137 0.445533
v -0.604348 0.415137 0.39888
v -0.605634 0.400867 0.400861
v -0.60652 0.388523 0.400861
v -0.604727 0.414174 0.410698
v -0.604116 0.414174 0.417126
v -0.602512 0.414174 0.425535
v -0.598062 0.400867 0.437861
v -0.59861 0.388523 0.437861
v -0.598863 0.376209 0.437861
v -0.598948 0.363836 0.437861
v -0.602576 0.129537 0.427286
v -0.603757 0.339206 0.429636
v -0.60363 0.314519 0.429498
v -0.605803 0.117018 0.414039
v -0.605086 0.129537 0.421112
v -0.607301 0.129537 0.413187
v -0.604664 0.120461 0.420283
v -0.526026 0.203541 0.435903
v -0.526047 0.215914 0.43611
v -0.520794 0.117018 0.429268
v -0.484534 0.415137 0.391254
v -0.600698 0.415137 0.352502
v -0.601795 0.414174 0.363861
v -0.60882 0.314519 0.376186
v -0.607027 0.376209 0.400861
v -0.606689 0.376209 0.413187
v -0.606162 0.388523 0.413187
v -0.605213 0.401684 0.414269
v -0.60439 0.406324 0.419108
v -0.604559 0.398124 0.41996
v -0.60477 0.388523 0.420836
v -0.605044 0.376209 0.421895
v -0.60323 0.388523 0.426987
v -0.603462 0.376209 0.42807
v -0.603652 0.363836 0.428968
v -0.603757 0.351521 0.429498
v -0.605381 0.141881 0.421388
v -0.605613 0.339206 0.423485
v -0.612785 0.203541 0.400861
v -0.608946 0.2282 0.413187
v -0.609452 0.129537 0.400861
v -0.607702 0.117018 0.400792
v -0.607955 0.141881 0.413187
v -0.610528 0.141881 0.400861
v -0.514972 0.117018 0.42307
v -0.47848 0.415137 0.385218
v -0.598251 0.415137 0.341098
v -0.592472 0.410789 0.307761
v -0.600783 0.413211 0.351535
v -0.607596 0.314519 0.363861
v -0.60825 0.302175 0.363861
v -0.609326 0.302175 0.376186
v -0.613692 0.203541 0.388535
v -0.605487 0.351521 0.423324
v -0.605297 0.363836 0.422794
v -0.612595 0.191197 0.400861
v -0.613861 0.191197 0.388535
v -0.613692 0.178883 0.388535
v -0.611077 0.129537 0.388535
v -0.6123 0.141881 0.388535
v -0.609157 0.117018 0.388374
v -0.611119 0.154224 0.400861
v -0.508855 0.117018 0.414523
v -0.456036 0.415137 0.358239
v -0.458904 0.415137 0.361787
v -0.465106 0.415137 0.369344
v -0.472637 0.415137 0.378513
v -0.592008 0.415137 0.314581
v -0.568699 0.415137 0.221343
v -0.576061 0.203541 0.221343
v -0.597534 0.302175 0.314581
v -0.604875 0.289831 0.344255
v -0.606478 0.289831 0.351535
v -0.608714 0.289831 0.363861
v -0.61384 0.178883 0.376186
v -0.61327 0.166539 0.388535
v -0.613924 0.166539 0.376186
v -0.613608 0.154224 0.376186
v -0.612047 0.129537 0.376186
v -0.610191 0.117018 0.376186
v -0.613144 0.141881 0.376186
v -0.505121 0.117018 0.408256
v -0.431799 0.415137 0.320824
v -0.434119 0.415137 0.324672
v -0.445594 0.415137 0.343149
v -0.453631 0.415137 0.354852
v -0.4056 0.415137 0.252906
v -0.399989 0.41394 0.221343
v -0.57239 0.190614 0.221343
v -0.596944 0.117018 0.315295
v -0.602428 0.117018 0.326814
v -0.606837 0.154224 0.339186
v -0.610106 0.154224 0.351535
v -0.610191 0.166539 0.351535
v -0.609895 0.178883 0.351535
v -0.612722 0.166539 0.363861
v -0.612321 0.178883 0.363861
v -0.612532 0.154224 0.363861
v -0.611836 0.141881 0.363861
v -0.610528 0.129537 0.363861
v -0.608588 0.117018 0.363676
v -0.490123 0.117018 0.376739
v -0.419416 0.415137 0.29608
v -0.429879 0.415137 0.317276
v -0.408236 0.415137 0.263918
v -0.406929 0.414174 0.259587
v -0.405347 0.413211 0.252906
v -0.403047 0.414174 0.240534
v -0.401022 0.414174 0.228231
v -0.398554 0.400867 0.221343
v -0.568403 0.183844 0.221343
v -0.497485 0.158076 0.221343
v -0.585911 0.117018 0.311908
v -0.563531 0.178037 0.221343
v -0.559607 0.173484 0.221343
v -0.556865 0.171587 0.221343
v -0.54887 0.168844 0.221343
v -0.486959 0.117018 0.363953
v -0.419627 0.272468 0.245718
v -0.418826 0.280668 0.248321
v -0.418066 0.289831 0.250348
v -0.406886 0.356394 0.247146
v -0.406401 0.363836 0.248344
v -0.407435 0.386218 0.257997
v -0.413594 0.400867 0.27758
v -0.418045 0.415137 0.292717
v -0.412582 0.414174 0.27758
v -0.408722 0.413211 0.265808
v -0.40695 0.400867 0.259472
v -0.40522 0.400867 0.252906
v -0.402204 0.400867 0.240557
v -0.399693 0.400867 0.228231
v -0.398428 0.388523 0.221343
v -0.488689 0.158193 0.221343
v -0.548195 0.117018 0.307231
v -0.551634 0.117018 0.307208
v -0.55754 0.117018 0.307185
v -0.490841 0.117018 0.355244
v -0.480378 0.147454 0.257444
v -0.479239 0.146521 0.265232
v -0.478037 0.145295 0.27758
v -0.471856 0.15259 0.27758
v -0.46808 0.15939 0.268134
v -0.458018 0.175294 0.265232
v -0.445046 0.199076 0.240557
v -0.444856 0.198843 0.252906
v -0.441671 0.205 0.252906
v -0.437093 0.215914 0.252906
v -0.438949 0.215914 0.265232
v -0.435595 0.2282 0.265232
v -0.418762 0.269054 0.237493
v -0.414712 0.277516 0.228231
v -0.411654 0.284374 0.221343
v -0.410346 0.29021 0.221343
v -0.41197 0.289831 0.228231
v -0.409122 0.303284 0.227125
v -0.415092 0.289831 0.240557
v -0.41294 0.302175 0.240557
v -0.411 0.314519 0.240557
v -0.408089 0.314519 0.230259
v -0.404208 0.363836 0.240557
v -0.405768 0.376209 0.250325
v -0.407055 0.394447 0.259149
v -0.408954 0.400867 0.265646
v -0.402478 0.388523 0.240557
v -0.399757 0.388523 0.228231
v -0.399018 0.376209 0.221343
v -0.482719 0.161666 0.221343
v -0.527038 0.117018 0.314281
v -0.528894 0.117018 0.313198
v -0.536573 0.117018 0.308798
v -0.482002 0.160995 0.22413
v -0.47 0.173951 0.221343
v -0.469409 0.173338 0.224153
v -0.457069 0.185886 0.225467
v -0.472299 0.154837 0.264494
v -0.452998 0.190468 0.229038
v -0.450382 0.191197 0.240557
v -0.446079 0.200623 0.228231
v -0.442493 0.20681 0.228231
v -0.441818 0.205234 0.240557
v -0.436967 0.215914 0.240557
v -0.418847 0.259424 0.221803
v -0.414965 0.271709 0.221343
v -0.413405 0.277516 0.221343
v -0.408933 0.297156 0.221343
v -0.407245 0.305939 0.221343
v -0.406844 0.308391 0.221573
v -0.406549 0.314519 0.224084
v -0.405431 0.318633 0.221343
v -0.401465 0.363836 0.228231
v -0.403026 0.376209 0.240557
v -0.400368 0.376209 0.228231
v -0.399525 0.370752 0.221343
v -0.457913 0.186879 0.221343
v -0.446944 0.202578 0.221343
v -0.443231 0.208239 0.221343
v -0.441544 0.211362 0.221343
v -0.43587 0.222101 0.221343
v -0.437958 0.215914 0.228231
v -0.433359 0.225748 0.228231
v -0.424331 0.246963 0.221343
v -0.405937 0.314519 0.221343
v -0.400179 0.363836 0.221343
v -0.428993 0.236721 0.221343
f 1 2 10
f 1 10 3
f 1 3 4
f 1 4 5
f 1 5 6
f 1 6 7
f 1 7 2
f 2 7 8
f 2 8 9
f 2 9 10
f 3 10 4
f 4 11 12
f 4 12 13
f 4 13 14
f 4 14 5
f 4 10 11
f 5 14 6
f 6 14 15
f 6 15 7
f 7 15 16
f 7 16 17
f 7 17 8
f 8 18 19
f 8 19 9
f 8 17 18
f 9 19 20
f 9 20 11
f 9 11 10
f 11 20 21
f 11 21 12
f 12 21 22
f 12 22 23
f 12 23 13
f 13 24 25
f 13 25 26
f 13 26 14
f 13 23 27
f 13 27 24
f 14 26 45
f 14 45 66
f 14 66 91
f 14 91 112
f 14 112 111
f 14 111 110
f 14 110 109
f 14 109 131
f 14 131 130
f 14 130 129
f 14 129 128
f 14 128 149
f 14 149 148
f 14 148 171
f 14 171 150
f 14 150 132
f 14 132 114
f 14 114 113
f 14 113 92
f 14 92 67
f 14 67 46
f 14 46 28
f 14 28 15
f 15 28 29
f 15 29 30
f 15 30 31
f 15 31 16
f 16 32 18
f 16 18 17
f 16 31 32
f 18 33 19
f 18 32 34
f 18 34 33
f 19 33 35
f 19 35 36
f 19 36 20
f 20 36 21
f 21 36 37
f 21 37 38
f 21 38 59
f 21 59 87
f 21 87 106
f 21 106 125
f 21 125 146
f 21 146 136
f 21 136 135
f 21 135 158
f 21 158 182
f 21 182 181
f 21 181 180
f 21 180 216
f 21 216 215
f 21 215 214
f 21 214 183
f 21 183 163
f 21 163 147
f 21 147 127
f 21 127 108
f 21 108 90
f 21 90 65
f 21 65 44
f 21 44 41
f 21 41 39
f 21 39 40
f 21 40 22
f 22 40 23
f 23 40 39
f 23 39 41
f 23 41 27
f 24 42 43
f 24 43 25
f 24 27 44
f 24 44 42
f 25 43 26
f 26 43 45
f 27 41 44
f 28 46 47
f 28 47 48
f 28 48 49
f 28 49 50
f 28 50 51
f 28 51 29
f 29 51 52
f 29 52 34
f 29 34 30
f 30 34 31
f 31 34 32
f 33 34 53
f 33 53 54
f 33 54 55
f 33 55 35
f 34 52 53
f 35 55 36
f 36 55 37
f 37 56 38
f 37 55 57
f 37 57 58
f 37 58 56
f 38 56 60
f 38 60 61
f 38 61 62
f 38 62 59
f 42 44 43
f 43 63 64
f 43 64 45
f 43 44 65
f 43 65 63
f 45 64 66
f 46 67 68
f 46 68 47
f 47 68 48
f 48 69 70
f 48 70 71
f 48 71 72
f 48 72 49
f 48 68 69
f 49 73 50
f 49 72 73
f 50 73 72
f 50 72 74
f 50 74 51
f 51 74 75
f 51 75 76
f 51 76 77
f 51 77 78
f 51 78 79
f 51 79 52
f 52 79 80
f 52 80 53
f 53 80 81
f 53 81 54
f 54 81 55
f 55 81 57
f 56 82 60
f 56 58 82
f 57 81 83
f 57 83 84
f 57 84 85
f 57 85 82
f 57 82 58
f 59 62 61
f 59 61 86
f 59 86 87
f 60 82 88
f 60 88 61
f 61 88 89
f 61 89 86
f 63 65 64
f 64 65 90
f 64 90 91
f 64 91 66
f 67 92 93
f 67 93 94
f 67 94 68
f 68 94 69
f 69 95 96
f 69 96 97
f 69 97 70
f 69 94 95
f 70 97 98
f 70 98 71
f 71 99 100
f 71 100 77
f 71 77 76
f 71 76 75
f 71 75 74
f 71 74 72
f 71 98 84
f 71 84 99
f 77 100 79
f 77 79 78
f 79 100 80
f 80 100 99
f 80 99 81
f 81 99 83
f 82 85 84
f 82 84 101
f 82 101 88
f 83 99 84
f 84 98 102
f 84 102 103
f 84 103 101
f 86 104 87
f 86 89 105
f 86 105 104
f 87 104 106
f 88 101 107
f 88 107 89
f 89 107 105
f 90 108 109
f 90 109 110
f 90 110 111
f 90 111 112
f 90 112 91
f 92 113 93
f 93 113 114
f 93 114 115
f 93 115 116
f 93 116 117
f 93 117 118
f 93 118 94
f 94 118 96
f 94 96 95
f 96 118 119
f 96 119 97
f 97 119 120
f 97 120 98
f 98 120 102
f 101 103 121
f 101 121 105
f 101 105 107
f 102 120 122
f 102 122 103
f 103 122 123
f 103 123 121
f 104 124 125
f 104 125 106
f 104 105 124
f 105 126 124
f 105 121 126
f 108 127 128
f 108 128 129
f 108 129 130
f 108 130 131
f 108 131 109
f 114 132 133
f 114 133 155
f 114 155 178
f 114 178 212
f 114 212 239
f 114 239 249
f 114 249 235
f 114 235 248
f 114 248 232
f 114 232 231
f 114 231 199
f 114 199 198
f 114 198 230
f 114 230 229
f 114 229 247
f 114 247 250
f 114 250 244
f 114 244 243
f 114 243 242
f 114 242 241
f 114 241 240
f 114 240 218
f 114 218 213
f 114 213 179
f 114 179 157
f 114 157 162
f 114 162 161
f 114 161 160
f 114 160 159
f 114 159 156
f 114 156 134
f 114 134 115
f 115 134 135
f 115 135 136
f 115 136 137
f 115 137 138
f 115 138 139
f 115 139 116
f 116 139 140
f 116 140 117
f 117 140 118
f 118 140 141
f 118 141 142
f 118 142 119
f 119 142 120
f 120 142 141
f 120 141 122
f 121 123 126
f 122 141 143
f 122 143 123
f 123 143 126
f 124 126 144
f 124 144 145
f 124 145 125
f 125 145 146
f 126 143 144
f 127 147 148
f 127 148 149
f 127 149 128
f 132 150 151
f 132 151 152
f 132 152 153
f 132 153 154
f 132 154 133
f 133 154 155
f 134 156 135
f 135 157 158
f 135 156 159
f 135 159 160
f 135 160 161
f 135 161 162
f 135 162 157
f 136 146 145
f 136 145 144
f 136 144 138
f 136 138 137
f 138 144 143
f 138 143 141
f 138 141 139
f 139 141 140
f 147 163 164
f 147 164 165
f 147 165 166
f 147 166 167
f 147 167 168
f 147 168 169
f 147 169 170
f 147 170 148
f 148 170 171
f 150 171 172
f 150 172 173
f 150 173 151
f 151 173 174
f 151 174 175
f 151 175 176
f 151 176 152
f 152 176 177
f 152 177 153
f 153 177 155
f 153 155 154
f 155 177 178
f 157 179 180
f 157 180 181
f 157 181 182
f 157 182 158
f 163 183 184
f 163 184 185
f 163 185 186
f 163 186 187
f 163 187 188
f 163 188 189
f 163 189 190
f 163 190 191
f 163 191 192
f 163 192 193
f 163 193 194
f 163 194 195
f 163 195 164
f 164 196 197
f 164 197 198
f 164 198 199
f 164 199 200
f 164 200 201
f 164 201 202
f 164 202 165
f 164 195 196
f 165 202 203
f 165 203 204
f 165 204 166
f 166 204 167
f 167 204 205
f 167 205 206
f 167 206 168
f 168 206 207
f 168 207 169
f 169 207 208
f 169 208 171
f 169 171 170
f 171 208 209
f 171 209 172
f 172 209 173
f 173 209 174
f 174 209 208
f 174 208 175
f 175 208 210
f 175 210 176
f 176 210 211
f 176 211 177
f 177 211 178
f 178 211 212
f 179 213 184
f 179 184 214
f 179 214 215
f 179 215 216
f 179 216 180
f 183 214 184
f 184 213 217
f 184 217 218
f 184 218 219
f 184 219 220
f 184 220 221
f 184 221 185
f 185 221 186
f 186 221 187
f 187 221 188
f 188 221 220
f 188 220 222
f 188 222 223
f 188 223 190
f 188 190 189
f 190 223 224
f 190 224 225
f 190 225 226
f 190 226 191
f 191 226 192
f 192 226 227
f 192 227 193
f 193 227 228
f 193 228 194
f 194 228 229
f 194 229 196
f 194 196 195
f 196 229 197
f 197 229 230
f 197 230 198
f 199 231 200
f 200 231 201
f 201 203 202
f 201 231 232
f 201 232 233
f 201 233 205
f 201 205 203
f 203 205 204
f 205 233 234
f 205 234 206
f 206 234 235
f 206 235 236
f 206 236 237
f 206 237 207
f 207 237 208
f 208 237 210
f 210 237 211
f 211 237 238
f 211 238 212
f 212 238 236
f 212 236 239
f 213 218 217
f 218 240 220
f 218 220 219
f 220 240 241
f 220 241 224
f 220 224 222
f 222 224 223
f 224 241 242
f 224 242 225
f 225 242 243
f 225 243 244
f 225 244 245
f 225 245 226
f 226 245 246
f 226 246 227
f 227 246 247
f 227 247 228
f 228 247 229
f 232 248 233
f 233 248 234
f 234 248 235
f 235 249 236
f 236 238 237
f 236 249 239
f 244 250 245
f 245 250 246
f 246 250 247
