v 0.524253 -0.548894 0.483948
v 0.515669 -0.539719 0.482051
v 0.51522 -0.548894 0.482209
v 0.516672 -0.556424 0.481593
v 0.524253 -0.558454 0.482509
v 0.53658 -0.558917 0.482241
v 0.53658 -0.548894 0.483189
v 0.561247 -0.400915 0.482525
v 0.561247 -0.388579 0.482414
v 0.551051 -0.400915 0.482019
v 0.509045 -0.548894 0.479727
v 0.544875 -0.400915 0.480502
v 0.53658 -0.400915 0.476835
v 0.524253 -0.564622 0.479917
v 0.49227 -0.571355 0.468537
v 0.49227 -0.581712 0.464538
v 0.53658 -0.565085 0.480534
v 0.543193 -0.557041 0.481229
v 0.556811 -0.532497 0.481593
v 0.547951 -0.561204 0.479174
v 0.568183 -0.494642 0.481213
v 0.570061 -0.388579 0.481877
v 0.553032 -0.388579 0.481593
v 0.569508 -0.380201 0.481514
v 0.561247 -0.339518 0.478415
v 0.499574 -0.548894 0.47459
v 0.49227 -0.560176 0.469848
v 0.546869 -0.388579 0.479617
v 0.547928 -0.339518 0.47263
v 0.54779 -0.339518 0.472567
v 0.527271 -0.400915 0.471224
v 0.49227 -0.541492 0.469295
v 0.53658 -0.573566 0.47674
v 0.49227 -0.585902 0.46253
v 0.548919 -0.573566 0.475412
v 0.573575 -0.524222 0.476819
v 0.573575 -0.511886 0.479
v 0.572803 -0.499088 0.479917
v 0.558666 -0.573566 0.471129
v 0.576224 -0.388579 0.479316
v 0.585914 -0.363907 0.474827
v 0.573609 -0.37614 0.479949
v 0.573575 -0.339518 0.476787
v 0.552053 -0.339518 0.474432
v 0.49227 -0.548894 0.470244
v 0.547583 -0.339518 0.472425
v 0.528803 -0.390917 0.469959
v 0.517363 -0.379815 0.457109
v 0.521107 -0.400915 0.46547
v 0.49227 -0.541107 0.469232
v 0.49227 -0.541184 0.469248
v 0.53658 -0.582226 0.471097
v 0.548919 -0.581841 0.470528
v 0.49227 -0.5932 0.457599
v 0.556108 -0.580479 0.469343
v 0.582734 -0.524222 0.471619
v 0.584854 -0.511886 0.473468
v 0.567054 -0.566447 0.468458
v 0.585407 -0.49955 0.473768
v 0.564841 -0.573566 0.467146
v 0.593506 -0.363907 0.470196
v 0.592965 -0.354989 0.469548
v 0.584393 -0.339518 0.471635
v 0.538562 -0.339518 0.463905
v 0.515289 -0.351571 0.446345
v 0.518826 -0.371591 0.455971
v 0.513446 -0.363907 0.448478
v 0.507282 -0.363907 0.441429
v 0.49227 -0.534271 0.467082
v 0.50507 -0.342807 0.43272
v 0.548919 -0.593611 0.458326
v 0.548919 -0.588009 0.464506
v 0.556569 -0.593226 0.457678
v 0.49227 -0.595693 0.453252
v 0.560452 -0.585233 0.462277
v 0.569657 -0.58179 0.458658
v 0.591018 -0.511886 0.465486
v 0.571973 -0.573566 0.460965
v 0.579462 -0.566627 0.455923
v 0.591571 -0.49955 0.467525
v 0.604578 -0.346817 0.456603
v 0.604578 -0.344041 0.456603
v 0.599232 -0.339518 0.46046
v 0.590534 -0.339518 0.467588
v 0.512386 -0.339518 0.438868
v 0.517029 -0.343296 0.44489
v 0.505565 -0.339518 0.432008
v 0.509114 -0.351571 0.440069
v 0.49227 -0.53093 0.465818
v 0.503319 -0.339518 0.42733
v 0.502892 -0.339518 0.426271
v 0.501084 -0.351571 0.425559
v 0.548919 -0.59798 0.450217
v 0.548919 -0.601835 0.437888
v 0.558839 -0.594819 0.450217
v 0.565003 -0.590193 0.450217
v 0.57369 -0.583691 0.44968
v 0.49227 -0.597312 0.450217
v 0.580349 -0.580582 0.445207
v 0.578137 -0.573566 0.453805
v 0.592792 -0.511886 0.459322
v 0.593863 -0.49955 0.461361
v 0.583425 -0.562001 0.451181
v 0.591893 -0.56655 0.431202
v 0.594474 -0.561949 0.426476
v 0.581651 -0.573566 0.447641
v 0.606548 -0.339518 0.450976
v 0.599232 -0.474879 0.450217
v 0.60452 -0.469173 0.432435
v 0.606513 -0.339518 0.451071
v 0.606433 -0.339518 0.451229
v 0.599336 -0.339518 0.460365
v 0.49227 -0.524273 0.462973
v 0.49871 -0.339518 0.413215
v 0.53658 -0.602041 0.437888
v 0.548919 -0.601784 0.425559
v 0.561247 -0.598957 0.425559
v 0.562122 -0.596259 0.438378
v 0.56922 -0.593226 0.434585
v 0.573436 -0.588908 0.438378
v 0.49227 -0.59924 0.442915
v 0.59043 -0.574131 0.426476
v 0.577515 -0.590605 0.425559
v 0.581778 -0.582278 0.437888
v 0.596755 -0.548894 0.425559
v 0.59823 -0.487214 0.450217
v 0.593241 -0.570379 0.422983
v 0.597815 -0.56123 0.413215
v 0.609924 -0.339518 0.438204
v 0.599405 -0.548894 0.413215
v 0.604935 -0.470278 0.425559
v 0.60997 -0.339518 0.437888
v 0.49227 -0.520084 0.460665
v 0.497339 -0.339518 0.400902
v 0.49227 -0.600216 0.437888
v 0.548919 -0.599291 0.400902
v 0.561247 -0.597646 0.400902
v 0.561247 -0.598623 0.413215
v 0.49227 -0.599728 0.430586
v 0.499574 -0.596901 0.388557
v 0.571351 -0.594125 0.425559
v 0.579807 -0.592121 0.394532
v 0.579819 -0.592121 0.400902
v 0.579784 -0.592095 0.407414
v 0.57907 -0.59171 0.415633
v 0.591536 -0.578654 0.413215
v 0.58399 -0.584437 0.425559
v 0.594163 -0.572486 0.413215
v 0.598495 -0.56123 0.400902
v 0.599797 -0.548894 0.400902
v 0.605004 -0.470407 0.413215
v 0.605396 -0.462568 0.413215
v 0.60967 -0.339518 0.42586
v 0.49227 -0.51569 0.45801
v 0.497535 -0.339518 0.388557
v 0.49227 -0.382436 0.322487
v 0.49227 -0.406312 0.358478
v 0.49227 -0.406748 0.358952
v 0.49227 -0.410526 0.362919
v 0.49227 -0.495181 0.442409
v 0.49227 -0.497237 0.444258
v 0.49227 -0.501632 0.447894
v 0.49227 -0.509368 0.453884
v 0.49227 -0.514687 0.457377
v 0.49227 -0.592815 0.356755
v 0.544207 -0.592275 0.357355
v 0.561247 -0.595667 0.388557
v 0.49227 -0.593843 0.363899
v 0.572987 -0.593097 0.389679
v 0.49227 -0.595667 0.381254
v 0.49227 -0.594382 0.368926
v 0.584128 -0.586493 0.389679
v 0.591352 -0.578474 0.388557
v 0.59187 -0.579322 0.400902
v 0.585775 -0.585902 0.400902
v 0.573575 -0.58621 0.363899
v 0.581271 -0.581121 0.355522
v 0.584266 -0.586904 0.412203
v 0.594566 -0.573154 0.400902
v 0.597504 -0.56123 0.388557
v 0.594197 -0.572306 0.388557
v 0.598552 -0.548894 0.388557
v 0.604612 -0.469353 0.405691
v 0.60702 -0.388579 0.400902
v 0.609647 -0.339518 0.425575
v 0.499102 -0.339518 0.376212
v 0.510934 -0.339518 0.322487
v 0.49227 -0.57521 0.322487
v 0.53658 -0.581892 0.327671
v 0.49492 -0.575724 0.322487
v 0.499678 -0.576316 0.322487
v 0.511913 -0.577652 0.322487
v 0.524253 -0.578783 0.322487
v 0.53658 -0.579811 0.322487
v 0.561247 -0.589654 0.363899
v 0.568482 -0.592352 0.381428
v 0.548919 -0.579348 0.322487
v 0.55665 -0.577626 0.322487
v 0.556385 -0.580376 0.330769
v 0.592101 -0.567449 0.357687
v 0.560947 -0.576444 0.322487
v 0.570602 -0.570456 0.322487
v 0.593103 -0.56123 0.356138
v 0.593875 -0.548894 0.354842
v 0.604025 -0.462568 0.397993
v 0.605626 -0.388579 0.390043
v 0.605085 -0.339518 0.388557
v 0.584808 -0.339518 0.322487
v 0.572607 -0.567321 0.322487
v 0.576697 -0.560613 0.322487
v 0.577964 -0.555833 0.322487
v 0.579116 -0.54892 0.322487
v 0.591121 -0.436098 0.322487
v 0.592965 -0.437897 0.330121
v 0.59823 -0.425586 0.351554
v 0.600626 -0.41325 0.363899
v 0.598702 -0.41325 0.351554
v 0.600499 -0.339518 0.364199
v 0.600442 -0.339518 0.363899
v 0.591916 -0.395749 0.322487
v 0.591905 -0.408676 0.322487
v 0.593241 -0.425586 0.329426
v 0.591916 -0.39963 0.322487
f 1 2 3
f 1 3 4
f 1 4 5
f 1 5 6
f 1 6 7
f 1 7 8
f 1 8 9
f 1 9 10
f 1 10 2
f 2 11 3
f 2 10 12
f 2 12 13
f 2 13 11
f 3 11 4
f 4 14 5
f 4 11 15
f 4 15 16
f 4 16 14
f 5 14 17
f 5 17 6
f 6 18 19
f 6 19 7
f 6 17 20
f 6 20 18
f 7 19 21
f 7 21 8
f 8 22 9
f 8 21 22
f 9 23 10
f 9 22 24
f 9 24 25
f 9 25 23
f 10 23 12
f 11 13 26
f 11 26 27
f 11 27 15
f 12 23 25
f 12 25 28
f 12 28 13
f 13 28 29
f 13 29 30
f 13 30 31
f 13 31 32
f 13 32 26
f 14 33 17
f 14 16 34
f 14 34 33
f 15 27 45
f 15 45 32
f 15 32 51
f 15 51 50
f 15 50 69
f 15 69 89
f 15 89 113
f 15 113 133
f 15 133 154
f 15 154 164
f 15 164 163
f 15 163 162
f 15 162 161
f 15 161 160
f 15 160 159
f 15 159 158
f 15 158 157
f 15 157 156
f 15 156 188
f 15 188 165
f 15 165 168
f 15 168 171
f 15 171 170
f 15 170 139
f 15 139 135
f 15 135 121
f 15 121 98
f 15 98 74
f 15 74 54
f 15 54 34
f 15 34 16
f 17 33 35
f 17 35 20
f 18 20 19
f 19 36 37
f 19 37 38
f 19 38 21
f 19 20 36
f 20 35 39
f 20 39 36
f 21 38 22
f 22 40 41
f 22 41 42
f 22 42 24
f 22 38 40
f 24 42 43
f 24 43 25
f 25 43 63
f 25 63 84
f 25 84 83
f 25 83 112
f 25 112 111
f 25 111 110
f 25 110 107
f 25 107 129
f 25 129 132
f 25 132 153
f 25 153 185
f 25 185 207
f 25 207 218
f 25 218 219
f 25 219 208
f 25 208 187
f 25 187 186
f 25 186 155
f 25 155 134
f 25 134 114
f 25 114 91
f 25 91 90
f 25 90 87
f 25 87 85
f 25 85 64
f 25 64 46
f 25 46 30
f 25 30 29
f 25 29 44
f 25 44 28
f 26 32 45
f 26 45 27
f 28 44 29
f 30 46 31
f 31 46 47
f 31 47 48
f 31 48 49
f 31 49 50
f 31 50 51
f 31 51 32
f 33 34 52
f 33 52 53
f 33 53 35
f 34 54 52
f 35 53 55
f 35 55 39
f 36 56 57
f 36 57 37
f 36 39 58
f 36 58 56
f 37 57 59
f 37 59 38
f 38 59 40
f 39 55 60
f 39 60 58
f 40 59 41
f 41 59 61
f 41 61 62
f 41 62 63
f 41 63 43
f 41 43 42
f 46 64 65
f 46 65 66
f 46 66 48
f 46 48 47
f 48 66 67
f 48 67 68
f 48 68 50
f 48 50 49
f 50 68 70
f 50 70 69
f 52 54 71
f 52 71 72
f 52 72 53
f 53 72 73
f 53 73 55
f 54 74 71
f 55 73 75
f 55 75 76
f 55 76 60
f 56 77 57
f 56 58 78
f 56 78 79
f 56 79 77
f 57 77 80
f 57 80 59
f 58 60 78
f 59 80 61
f 60 76 78
f 61 81 82
f 61 82 62
f 61 80 81
f 62 82 83
f 62 83 84
f 62 84 63
f 64 85 86
f 64 86 65
f 65 86 85
f 65 85 87
f 65 87 88
f 65 88 67
f 65 67 66
f 67 88 68
f 68 88 70
f 69 70 90
f 69 90 91
f 69 91 92
f 69 92 89
f 70 88 87
f 70 87 90
f 71 74 93
f 71 93 73
f 71 73 72
f 73 93 94
f 73 94 95
f 73 95 96
f 73 96 97
f 73 97 76
f 73 76 75
f 74 98 93
f 76 97 99
f 76 99 100
f 76 100 78
f 77 101 102
f 77 102 80
f 77 79 103
f 77 103 104
f 77 104 105
f 77 105 101
f 78 100 79
f 79 100 106
f 79 106 103
f 80 102 81
f 81 107 82
f 81 102 108
f 81 108 109
f 81 109 107
f 82 107 110
f 82 110 111
f 82 111 112
f 82 112 83
f 89 92 114
f 89 114 113
f 91 114 92
f 93 98 115
f 93 115 94
f 94 115 116
f 94 116 117
f 94 117 118
f 94 118 95
f 95 118 119
f 95 119 120
f 95 120 96
f 96 120 99
f 96 99 97
f 98 121 115
f 99 122 104
f 99 104 106
f 99 106 100
f 99 120 123
f 99 123 124
f 99 124 122
f 101 105 125
f 101 125 102
f 102 126 108
f 102 125 126
f 103 106 104
f 104 122 127
f 104 127 105
f 105 127 128
f 105 128 125
f 107 109 129
f 108 126 109
f 109 126 125
f 109 125 130
f 109 130 131
f 109 131 132
f 109 132 129
f 113 114 133
f 114 134 133
f 115 121 135
f 115 135 116
f 116 136 137
f 116 137 138
f 116 138 117
f 116 135 139
f 116 139 140
f 116 140 136
f 117 141 118
f 117 138 142
f 117 142 143
f 117 143 144
f 117 144 145
f 117 145 141
f 118 141 119
f 119 141 123
f 119 123 120
f 122 124 146
f 122 146 127
f 123 145 147
f 123 147 124
f 123 141 145
f 124 147 146
f 125 128 130
f 127 146 148
f 127 148 128
f 128 149 130
f 128 148 149
f 130 150 131
f 130 149 150
f 131 150 151
f 131 151 152
f 131 152 132
f 132 152 153
f 133 134 154
f 134 155 156
f 134 156 157
f 134 157 158
f 134 158 159
f 134 159 160
f 134 160 161
f 134 161 162
f 134 162 163
f 134 163 164
f 134 164 154
f 136 165 166
f 136 166 167
f 136 167 137
f 136 140 168
f 136 168 165
f 137 167 169
f 137 169 142
f 137 142 138
f 139 170 140
f 140 170 171
f 140 171 168
f 142 172 173
f 142 173 174
f 142 174 175
f 142 175 143
f 142 169 176
f 142 176 177
f 142 177 172
f 143 175 144
f 144 175 174
f 144 174 178
f 144 178 145
f 145 178 147
f 146 174 179
f 146 179 148
f 146 147 178
f 146 178 174
f 148 179 149
f 149 180 150
f 149 179 181
f 149 181 180
f 150 182 183
f 150 183 151
f 150 180 182
f 151 183 152
f 152 183 184
f 152 184 153
f 153 184 185
f 155 186 156
f 156 186 187
f 156 187 208
f 156 208 220
f 156 220 223
f 156 223 221
f 156 221 213
f 156 213 212
f 156 212 211
f 156 211 210
f 156 210 209
f 156 209 202
f 156 202 201
f 156 201 198
f 156 198 197
f 156 197 194
f 156 194 193
f 156 193 192
f 156 192 191
f 156 191 190
f 156 190 188
f 165 189 166
f 165 188 190
f 165 190 191
f 165 191 192
f 165 192 193
f 165 193 194
f 165 194 189
f 166 195 196
f 166 196 167
f 166 189 197
f 166 197 198
f 166 198 199
f 166 199 195
f 167 196 169
f 169 196 176
f 172 177 173
f 173 181 174
f 173 177 200
f 173 200 181
f 174 181 179
f 176 196 195
f 176 195 201
f 176 201 177
f 177 201 202
f 177 202 200
f 180 200 203
f 180 203 182
f 180 181 200
f 182 204 205
f 182 205 183
f 182 203 204
f 183 205 184
f 184 206 207
f 184 207 185
f 184 205 206
f 189 194 197
f 195 199 201
f 198 201 199
f 200 209 210
f 200 210 203
f 200 202 209
f 203 210 211
f 203 211 212
f 203 212 204
f 204 212 213
f 204 213 214
f 204 214 215
f 204 215 205
f 205 215 216
f 205 216 206
f 206 216 217
f 206 217 207
f 207 217 218
f 208 219 220
f 213 221 222
f 213 222 214
f 214 222 217
f 214 217 215
f 215 217 216
f 217 221 223
f 217 223 220
f 217 220 219
f 217 219 218
f 217 222 221
