v 0.425558 -0.606084 0.413224
v 0.429536 -0.606014 0.413224
v 0.429536 -0.605897 0.41719
v 0.429536 -0.605336 0.425302
v 0.426274 -0.605265 0.42523
v 0.417799 -0.604821 0.420906
v 0.416158 -0.605125 0.413224
v 0.414761 -0.605078 0.40086
v 0.415941 -0.604751 0.392999
v 0.425558 -0.605382 0.40086
v 0.429536 -0.60557 0.404862
v 0.429536 -0.604797 0.430161
v 0.389343 -0.597684 0.43788
v 0.389343 -0.600118 0.413224
v 0.408599 -0.604142 0.40086
v 0.425558 -0.604657 0.393427
v 0.389343 -0.599954 0.388532
v 0.389343 -0.59745 0.364662
v 0.389343 -0.597357 0.363876
v 0.413223 -0.574238 0.154192
v 0.425558 -0.575338 0.154192
v 0.429536 -0.604727 0.395822
v 0.429536 -0.605195 0.400646
v 0.429536 -0.603721 0.433556
v 0.389343 -0.594268 0.451494
v 0.389343 -0.594361 0.451173
v 0.389343 -0.59752 0.438666
v 0.389343 -0.600469 0.40086
v 0.389343 -0.600001 0.389318
v 0.429536 -0.575268 0.154192
v 0.389343 -0.562983 0.105702
v 0.400892 -0.572273 0.154192
v 0.403567 -0.568459 0.121389
v 0.425558 -0.570214 0.117208
v 0.429536 -0.570518 0.117208
v 0.429536 -0.595157 0.450279
v 0.419927 -0.592139 0.456461
v 0.398527 -0.592279 0.456676
v 0.392987 -0.592279 0.456676
v 0.389343 -0.594104 0.451959
v 0.389343 -0.562679 0.10488
v 0.429536 -0.568576 0.108311
v 0.425558 -0.568365 0.109097
v 0.41399 -0.568927 0.117244
v 0.429536 -0.591343 0.455639
v 0.429536 -0.590477 0.456354
v 0.429536 -0.585985 0.459963
v 0.412507 -0.587131 0.460821
v 0.401938 -0.587131 0.461321
v 0.389343 -0.587669 0.46007
v 0.389343 -0.562305 0.10388
v 0.429536 -0.565838 0.10388
v 0.429536 -0.58189 0.462107
v 0.400892 -0.577538 0.468468
v 0.389343 -0.586453 0.460999
v 0.389343 -0.487264 0.10388
v 0.429536 -0.367039 0.10388
v 0.429536 -0.57356 0.466359
v 0.408403 -0.570986 0.468789
v 0.400892 -0.571384 0.468896
v 0.391854 -0.569114 0.468932
v 0.389343 -0.573794 0.46786
v 0.412798 -0.574472 0.468075
v 0.399082 -0.413229 0.10388
v 0.389343 -0.435318 0.264573
v 0.422933 -0.373497 0.10388
v 0.389343 -0.429374 0.3022
v 0.389343 -0.430872 0.310883
v 0.389343 -0.432533 0.316279
v 0.400892 -0.438406 0.326856
v 0.409469 -0.443016 0.335075
v 0.429536 -0.454482 0.350369
v 0.429536 -0.569605 0.466645
v 0.408403 -0.567219 0.468789
v 0.429536 -0.561228 0.466824
v 0.400892 -0.566634 0.468896
v 0.391854 -0.56654 0.468932
v 0.389343 -0.563498 0.468289
v 0.389343 -0.571945 0.468146
v 0.403571 -0.399891 0.10388
v 0.389343 -0.432603 0.274328
v 0.389343 -0.431808 0.277544
v 0.389343 -0.430872 0.282046
v 0.389343 -0.429351 0.291016
v 0.417323 -0.379183 0.10388
v 0.416902 -0.379675 0.10388
v 0.409965 -0.388496 0.10388
v 0.407679 -0.391866 0.10388
v 0.405475 -0.39568 0.10388
v 0.389343 -0.432837 0.317065
v 0.400892 -0.442361 0.335682
v 0.421926 -0.455769 0.358623
v 0.429536 -0.457196 0.356551
v 0.429536 -0.556946 0.464716
v 0.389343 -0.547774 0.461643
v 0.389343 -0.561813 0.467824
v 0.389343 -0.439038 0.327928
v 0.389343 -0.441401 0.332002
v 0.39063 -0.442852 0.334539
v 0.416976 -0.455769 0.358623
v 0.429536 -0.460308 0.363411
v 0.425558 -0.465971 0.37431
v 0.429536 -0.466251 0.374203
v 0.429536 -0.548031 0.460213
v 0.389343 -0.547165 0.46125
v 0.389343 -0.443039 0.334289
v 0.389343 -0.525381 0.438773
v 0.429536 -0.4787 0.390962
v 0.429536 -0.543913 0.457497
v 0.389343 -0.5368 0.452209
v 0.429536 -0.542649 0.456461
v 0.389343 -0.534975 0.450387
v 0.389343 -0.535817 0.451244
f 1 2 3
f 1 3 4
f 1 4 5
f 1 5 6
f 1 6 7
f 1 7 8
f 1 8 9
f 1 9 10
f 1 10 11
f 1 11 2
f 2 11 23
f 2 23 22
f 2 22 30
f 2 30 35
f 2 35 42
f 2 42 52
f 2 52 57
f 2 57 72
f 2 72 93
f 2 93 101
f 2 101 103
f 2 103 108
f 2 108 111
f 2 111 109
f 2 109 104
f 2 104 94
f 2 94 75
f 2 75 73
f 2 73 58
f 2 58 53
f 2 53 47
f 2 47 46
f 2 46 45
f 2 45 36
f 2 36 24
f 2 24 12
f 2 12 4
f 2 4 3
f 4 12 5
f 5 12 13
f 5 13 6
f 6 14 7
f 6 13 14
f 7 14 15
f 7 15 8
f 8 15 9
f 9 16 10
f 9 15 17
f 9 17 18
f 9 18 19
f 9 19 20
f 9 20 21
f 9 21 16
f 10 16 22
f 10 22 23
f 10 23 11
f 12 24 25
f 12 25 26
f 12 26 27
f 12 27 13
f 13 27 26
f 13 26 25
f 13 25 40
f 13 40 50
f 13 50 55
f 13 55 62
f 13 62 79
f 13 79 78
f 13 78 96
f 13 96 95
f 13 95 105
f 13 105 110
f 13 110 113
f 13 113 112
f 13 112 107
f 13 107 106
f 13 106 98
f 13 98 97
f 13 97 90
f 13 90 69
f 13 69 68
f 13 68 67
f 13 67 84
f 13 84 83
f 13 83 82
f 13 82 81
f 13 81 65
f 13 65 56
f 13 56 51
f 13 51 41
f 13 41 31
f 13 31 19
f 13 19 18
f 13 18 17
f 13 17 29
f 13 29 28
f 13 28 14
f 14 28 15
f 15 28 29
f 15 29 17
f 16 21 30
f 16 30 22
f 19 31 32
f 19 32 20
f 20 32 33
f 20 33 34
f 20 34 21
f 21 34 35
f 21 35 30
f 24 36 37
f 24 37 38
f 24 38 39
f 24 39 40
f 24 40 25
f 31 41 42
f 31 42 43
f 31 43 44
f 31 44 33
f 31 33 32
f 33 44 34
f 34 43 42
f 34 42 35
f 34 44 43
f 36 45 37
f 37 45 46
f 37 46 47
f 37 47 48
f 37 48 49
f 37 49 38
f 38 49 39
f 39 49 50
f 39 50 40
f 41 51 42
f 42 51 52
f 47 53 54
f 47 54 48
f 48 54 49
f 49 55 50
f 49 54 55
f 51 56 64
f 51 64 80
f 51 80 89
f 51 89 88
f 51 88 87
f 51 87 86
f 51 86 85
f 51 85 66
f 51 66 57
f 51 57 52
f 53 58 54
f 54 59 60
f 54 60 61
f 54 61 62
f 54 62 55
f 54 58 63
f 54 63 59
f 56 65 64
f 57 66 67
f 57 67 68
f 57 68 69
f 57 69 70
f 57 70 71
f 57 71 72
f 58 73 63
f 59 74 76
f 59 76 60
f 59 63 73
f 59 73 75
f 59 75 74
f 60 76 77
f 60 77 61
f 61 77 78
f 61 78 79
f 61 79 62
f 64 65 81
f 64 81 82
f 64 82 83
f 64 83 84
f 64 84 80
f 66 85 67
f 67 85 86
f 67 86 87
f 67 87 88
f 67 88 89
f 67 89 84
f 69 90 70
f 70 90 91
f 70 91 71
f 71 91 92
f 71 92 72
f 72 92 93
f 74 75 76
f 75 94 95
f 75 95 96
f 75 96 78
f 75 78 76
f 76 78 77
f 80 84 89
f 90 97 91
f 91 97 98
f 91 98 99
f 91 99 100
f 91 100 92
f 92 101 93
f 92 100 102
f 92 102 103
f 92 103 101
f 94 104 95
f 95 104 105
f 98 106 99
f 99 106 107
f 99 107 102
f 99 102 100
f 102 107 108
f 102 108 103
f 104 109 105
f 105 109 111
f 105 111 110
f 107 112 108
f 108 112 111
f 110 111 113
f 111 112 113
