v 0.413246 0.575678 -0.178865
v 0.413246 0.574903 -0.228192
v 0.400897 0.574525 -0.178865
v 0.413246 0.570521 -0.129519
v 0.425575 0.571466 -0.129519
v 0.437903 0.571598 -0.129519
v 0.450232 0.570975 -0.129519
v 0.437903 0.575432 -0.228192
v 0.425575 0.575526 -0.228192
v 0.400897 0.565856 -0.298471
v 0.388568 0.564534 -0.298471
v 0.400897 0.573336 -0.228192
v 0.437903 0.57513 -0.240533
v 0.425575 0.574412 -0.240533
v 0.388568 0.570616 -0.228192
v 0.388568 0.571711 -0.178865
v 0.375672 0.566744 -0.130708
v 0.391745 0.567707 -0.122627
v 0.425575 0.569275 -0.120159
v 0.400897 0.568142 -0.121713
v 0.413246 0.568727 -0.120744
v 0.437903 0.569313 -0.120378
v 0.536573 0.563156 -0.111694
v 0.450232 0.574242 -0.228192
v 0.413246 0.566725 -0.298471
v 0.37624 0.562948 -0.298471
v 0.375777 0.562853 -0.298471
v 0.450232 0.573883 -0.240533
v 0.548902 0.557735 -0.28986
v 0.425491 0.566253 -0.298471
v 0.379164 0.568198 -0.228192
v 0.375672 0.567273 -0.228192
v 0.378343 0.568841 -0.178865
v 0.375672 0.567915 -0.178865
v 0.375672 0.563118 -0.111694
v 0.37624 0.563212 -0.111694
v 0.388273 0.564836 -0.111694
v 0.409585 0.565422 -0.111694
v 0.413246 0.565498 -0.111694
v 0.422482 0.565535 -0.111694
v 0.548902 0.561682 -0.111694
v 0.548902 0.562287 -0.178865
v 0.375672 0.562816 -0.298471
v 0.548902 0.561871 -0.191206
v 0.548902 0.558906 -0.277537
v 0.557717 0.556167 -0.28986
v 0.556286 0.555525 -0.29816
v 0.55534 0.555582 -0.298471
v 0.548902 0.556243 -0.298471
v 0.375672 0.426943 -0.111694
v 0.56102 0.557603 -0.111694
v 0.561231 0.558774 -0.178865
v 0.561231 0.558812 -0.191206
v 0.375672 0.422788 -0.298471
v 0.558348 0.556602 -0.277537
v 0.563881 0.553315 -0.28986
v 0.561693 0.552711 -0.298471
v 0.556602 0.555299 -0.298471
v 0.375672 0.425999 -0.114034
v 0.376534 0.425715 -0.111694
v 0.566722 0.554619 -0.111694
v 0.568215 0.55562 -0.178865
v 0.568468 0.55579 -0.191206
v 0.375672 0.406205 -0.249217
v 0.431592 0.382729 -0.298471
v 0.57156 0.547158 -0.28986
v 0.568447 0.548178 -0.298471
v 0.375672 0.424658 -0.117489
v 0.377207 0.424771 -0.111694
v 0.567963 0.553202 -0.111694
v 0.580123 0.543343 -0.193875
v 0.580123 0.543343 -0.198135
v 0.375672 0.403826 -0.241118
v 0.434684 0.382729 -0.277062
v 0.37624 0.402126 -0.215851
v 0.37624 0.401786 -0.228192
v 0.375672 0.402012 -0.228192
v 0.375672 0.40205 -0.22896
v 0.587844 0.382729 -0.298471
v 0.572633 0.543419 -0.298471
v 0.570761 0.546308 -0.298471
v 0.577725 0.537602 -0.28986
v 0.375672 0.420012 -0.129519
v 0.381752 0.418538 -0.111694
v 0.571687 0.548915 -0.111694
v 0.578166 0.537469 -0.111694
v 0.579828 0.533201 -0.111694
v 0.580207 0.531973 -0.111694
v 0.581575 0.537658 -0.190346
v 0.574611 0.544023 -0.111694
v 0.584836 0.52423 -0.191206
v 0.580081 0.531444 -0.28986
v 0.466221 0.382729 -0.111694
v 0.400897 0.400539 -0.117197
v 0.375672 0.402352 -0.215851
v 0.375672 0.402315 -0.216582
v 0.580186 0.52423 -0.298471
v 0.590348 0.388565 -0.28986
v 0.590495 0.382729 -0.28986
v 0.576841 0.536109 -0.298471
v 0.578566 0.532804 -0.298471
v 0.579913 0.530878 -0.296551
v 0.375672 0.416461 -0.14186
v 0.379164 0.415592 -0.129519
v 0.380973 0.417519 -0.117197
v 0.383708 0.415989 -0.111694
v 0.589443 0.388565 -0.111694
v 0.588475 0.499563 -0.203546
v 0.587024 0.511896 -0.203546
v 0.589085 0.382729 -0.111694
v 0.400897 0.401162 -0.111694
v 0.375672 0.403561 -0.204351
v 0.580354 0.52423 -0.29794
v 0.581112 0.52423 -0.28986
v 0.590579 0.388565 -0.277537
v 0.589106 0.383069 -0.111694
v 0.375672 0.413288 -0.154731
v 0.377628 0.41427 -0.14186
v 0.38476 0.409416 -0.129519
v 0.386022 0.411343 -0.117197
v 0.386422 0.412646 -0.111694
v 0.396079 0.403674 -0.111694
v 0.392187 0.405053 -0.117197
v 0.375672 0.403656 -0.203546
v 0.375672 0.412117 -0.159631
v 0.375672 0.410512 -0.166542
v 0.375672 0.407811 -0.178865
v 0.392881 0.405563 -0.111694
v 0.375672 0.405204 -0.192376
f 1 2 3
f 1 3 4
f 1 4 5
f 1 5 6
f 1 6 7
f 1 7 8
f 1 8 9
f 1 9 2
f 2 10 11
f 2 11 12
f 2 12 3
f 2 9 13
f 2 13 14
f 2 14 10
f 3 12 15
f 3 15 16
f 3 16 17
f 3 17 18
f 3 18 4
f 4 18 5
f 5 19 6
f 5 18 20
f 5 20 21
f 5 21 19
f 6 19 22
f 6 22 23
f 6 23 7
f 7 23 8
f 8 24 13
f 8 13 9
f 8 23 24
f 10 14 25
f 10 25 30
f 10 30 49
f 10 49 48
f 10 48 58
f 10 58 57
f 10 57 67
f 10 67 81
f 10 81 80
f 10 80 100
f 10 100 101
f 10 101 97
f 10 97 79
f 10 79 65
f 10 65 54
f 10 54 43
f 10 43 27
f 10 27 26
f 10 26 11
f 11 26 12
f 12 26 27
f 12 27 15
f 13 24 28
f 13 28 29
f 13 29 30
f 13 30 25
f 13 25 14
f 15 27 31
f 15 31 16
f 16 31 32
f 16 32 33
f 16 33 17
f 17 33 34
f 17 34 32
f 17 32 43
f 17 43 54
f 17 54 64
f 17 64 73
f 17 73 78
f 17 78 77
f 17 77 96
f 17 96 95
f 17 95 112
f 17 112 124
f 17 124 129
f 17 129 127
f 17 127 126
f 17 126 125
f 17 125 117
f 17 117 103
f 17 103 83
f 17 83 68
f 17 68 59
f 17 59 50
f 17 50 35
f 17 35 36
f 17 36 18
f 18 36 37
f 18 37 20
f 19 21 37
f 19 37 38
f 19 38 39
f 19 39 40
f 19 40 22
f 20 37 21
f 22 40 23
f 23 41 42
f 23 42 24
f 23 40 39
f 23 39 38
f 23 38 37
f 23 37 36
f 23 36 35
f 23 35 50
f 23 50 60
f 23 60 69
f 23 69 84
f 23 84 106
f 23 106 121
f 23 121 128
f 23 128 122
f 23 122 111
f 23 111 93
f 23 93 110
f 23 110 116
f 23 116 107
f 23 107 88
f 23 88 87
f 23 87 86
f 23 86 90
f 23 90 85
f 23 85 70
f 23 70 61
f 23 61 51
f 23 51 41
f 24 42 28
f 27 32 31
f 27 43 32
f 28 42 44
f 28 44 45
f 28 45 29
f 29 45 46
f 29 46 47
f 29 47 48
f 29 48 49
f 29 49 30
f 32 34 33
f 41 51 52
f 41 52 42
f 42 52 53
f 42 53 44
f 44 53 55
f 44 55 45
f 45 55 46
f 46 55 56
f 46 56 47
f 47 56 57
f 47 57 58
f 47 58 48
f 50 59 60
f 51 61 62
f 51 62 63
f 51 63 52
f 52 63 53
f 53 63 55
f 54 65 64
f 55 63 56
f 56 63 66
f 56 66 67
f 56 67 57
f 59 68 69
f 59 69 60
f 61 70 71
f 61 71 62
f 62 71 63
f 63 71 72
f 63 72 66
f 64 65 73
f 65 74 75
f 65 75 76
f 65 76 77
f 65 77 78
f 65 78 73
f 65 79 99
f 65 99 110
f 65 110 93
f 65 93 74
f 66 80 81
f 66 81 67
f 66 72 82
f 66 82 80
f 68 83 69
f 69 83 84
f 70 85 71
f 71 86 87
f 71 87 88
f 71 88 89
f 71 89 72
f 71 85 90
f 71 90 86
f 72 89 91
f 72 91 92
f 72 92 82
f 74 93 75
f 75 94 95
f 75 95 96
f 75 96 76
f 75 93 94
f 76 96 77
f 79 97 98
f 79 98 99
f 80 82 100
f 82 101 100
f 82 92 102
f 82 102 101
f 83 103 104
f 83 104 105
f 83 105 84
f 84 105 106
f 88 107 108
f 88 108 109
f 88 109 91
f 88 91 89
f 91 109 92
f 92 109 102
f 93 111 94
f 94 111 112
f 94 112 95
f 97 101 102
f 97 102 113
f 97 113 98
f 98 114 108
f 98 108 115
f 98 115 99
f 98 113 114
f 99 115 107
f 99 107 116
f 99 116 110
f 102 109 114
f 102 114 113
f 103 117 104
f 104 118 119
f 104 119 120
f 104 120 121
f 104 121 106
f 104 106 105
f 104 117 118
f 107 115 108
f 108 114 109
f 111 122 123
f 111 123 112
f 112 123 124
f 117 125 119
f 117 119 118
f 119 125 126
f 119 126 127
f 119 127 123
f 119 123 128
f 119 128 120
f 120 128 121
f 122 128 123
f 123 127 129
f 123 129 124
