v -0.564398 0.0555166 0.0449958
v -0.561495 0.012573 0.0449958
v -0.562213 0.012573 0.0495797
v -0.562702 0.012573 0.0555113
v -0.563929 0.0431737 0.0555113
v -0.563869 0.0431737 0.0820996
v -0.56331 0.0801682 0.0820996
v -0.563061 0.129004 0.0555113
v -0.563061 0.129004 0.0549955
v -0.562991 0.129004 0.0449958
v -0.47674 0.012573 0.0449958
v -0.560029 0.012573 0.0820996
v -0.561266 0.0185108 0.0820996
v -0.561635 0.0204369 0.0820996
v -0.563001 0.0308423 0.0820996
v -0.563251 0.0327683 0.0820996
v -0.560557 0.129004 0.0820996
v -0.463344 0.129004 0.0449958
v -0.477338 0.012573 0.0491039
v -0.463025 0.129004 0.0560234
v -0.462496 0.129004 0.0806903
v -0.462685 0.127591 0.0820996
v -0.483413 0.012573 0.0820996
v -0.462566 0.129004 0.0820996
f 1 2 3
f 1 3 4
f 1 4 5
f 1 5 6
f 1 6 7
f 1 7 8
f 1 8 9
f 1 9 10
f 1 10 18
f 1 18 11
f 1 11 2
f 2 11 19
f 2 19 23
f 2 23 12
f 2 12 4
f 2 4 3
f 4 12 13
f 4 13 14
f 4 14 15
f 4 15 16
f 4 16 6
f 4 6 5
f 6 16 15
f 6 15 14
f 6 14 13
f 6 13 12
f 6 12 23
f 6 23 22
f 6 22 24
f 6 24 17
f 6 17 7
f 7 17 8
f 8 17 24
f 8 24 21
f 8 21 20
f 8 20 18
f 8 18 10
f 8 10 9
f 11 18 20
f 11 20 21
f 11 21 22
f 11 22 19
f 19 22 23
f 21 24 22
