v -0.499558 0.415137 -0.502004
v -0.499558 0.462583 -0.502027
v -0.489135 0.415137 -0.501957
v -0.50147 0.415137 -0.501723
v -0.511893 0.462583 -0.500644
v -0.487224 0.45024 -0.501746
v -0.487224 0.415137 -0.50191
v -0.487224 0.51189 -0.500925
v -0.474889 0.51189 -0.50055
v -0.511893 0.415137 -0.500081
v -0.499558 0.524234 -0.498112
v -0.513428 0.415137 -0.499472
v -0.522234 0.462583 -0.49633
v -0.509671 0.524234 -0.495064
v -0.378469 0.462583 -0.497479
v -0.476801 0.415137 -0.500714
v -0.378469 0.45024 -0.496846
v -0.378469 0.442343 -0.495181
v -0.487224 0.524234 -0.498956
v -0.462555 0.524234 -0.497784
v -0.462555 0.51189 -0.499425
v -0.378469 0.47491 -0.496166
v -0.507645 0.532316 -0.494103
v -0.499558 0.534024 -0.495134
v -0.521874 0.415137 -0.495931
v -0.52127 0.47491 -0.495392
v -0.522822 0.415137 -0.495228
v -0.528033 0.415137 -0.491102
v -0.527952 0.42557 -0.491242
v -0.528393 0.462583 -0.490773
v -0.527445 0.47491 -0.490469
v -0.515846 0.524234 -0.49218
v -0.474889 0.415137 -0.500433
v -0.378469 0.440585 -0.494759
v -0.487224 0.534143 -0.495298
v -0.450237 0.532519 -0.494595
v -0.450237 0.524234 -0.496611
v -0.378469 0.548904 -0.48456
v -0.512415 0.537119 -0.488077
v -0.508952 0.545252 -0.483904
v -0.499558 0.540196 -0.491829
v -0.487224 0.540297 -0.492016
v -0.52885 0.415137 -0.490164
v -0.533245 0.42557 -0.485076
v -0.532265 0.47491 -0.484302
v -0.521842 0.524234 -0.486014
v -0.520175 0.533703 -0.483998
v -0.464466 0.415137 -0.498299
v -0.378469 0.435529 -0.492766
v -0.378469 0.434413 -0.492251
v -0.437903 0.557595 -0.482591
v -0.425568 0.557511 -0.482521
v -0.388565 0.557071 -0.482333
v -0.378469 0.556682 -0.482052
v -0.517169 0.541921 -0.479355
v -0.502548 0.55347 -0.479262
v -0.494314 0.555465 -0.481395
v -0.498888 0.549175 -0.484959
v -0.507661 0.556699 -0.471032
v -0.487224 0.555837 -0.4817
v -0.487224 0.548904 -0.486483
v -0.533196 0.415137 -0.484935
v -0.53813 0.42557 -0.474901
v -0.535565 0.47491 -0.474901
v -0.531497 0.483754 -0.482896
v -0.527168 0.524234 -0.474901
v -0.521744 0.537305 -0.475112
v -0.378469 0.427176 -0.487608
v -0.378469 0.415137 -0.478816
v -0.450237 0.557173 -0.48238
v -0.437903 0.563767 -0.476425
v -0.425568 0.563683 -0.476495
v -0.388565 0.563243 -0.476096
v -0.378469 0.562854 -0.476096
v -0.519669 0.557494 -0.44761
v -0.514555 0.561451 -0.451127
v -0.50624 0.56769 -0.456848
v -0.450237 0.563344 -0.475651
v -0.499558 0.568908 -0.458536
v -0.487224 0.570176 -0.460505
v -0.487224 0.560538 -0.474901
v -0.450237 0.567741 -0.469485
v -0.533947 0.415137 -0.483365
v -0.537689 0.415137 -0.474901
v -0.540466 0.42557 -0.462545
v -0.536578 0.47491 -0.462545
v -0.534683 0.487254 -0.462545
v -0.533735 0.548904 -0.339221
v -0.526351 0.548904 -0.425548
v -0.524635 0.548904 -0.43788
v -0.378469 0.415137 -0.357368
v -0.437903 0.568113 -0.470258
v -0.425568 0.568164 -0.470329
v -0.378469 0.568164 -0.46993
v -0.52078 0.559117 -0.43788
v -0.515585 0.565272 -0.43788
v -0.507727 0.568552 -0.450212
v -0.499558 0.571714 -0.450212
v -0.487224 0.574352 -0.450212
v -0.378469 0.583246 -0.44693
v -0.378469 0.582502 -0.448735
v -0.538048 0.415137 -0.472978
v -0.540842 0.437913 -0.425548
v -0.539714 0.415137 -0.462545
v -0.545367 0.415137 -0.339221
v -0.544664 0.42557 -0.339221
v -0.536251 0.536561 -0.326888
v -0.535744 0.536561 -0.339221
v -0.534111 0.548904 -0.326888
v -0.531464 0.557291 -0.326888
v -0.53117 0.556598 -0.339221
v -0.378469 0.45653 -0.262507
v -0.384987 0.415137 -0.262507
v -0.378469 0.578782 -0.454902
v -0.51828 0.567589 -0.395162
v -0.527298 0.56277 -0.339221
v -0.509409 0.569516 -0.43788
v -0.499558 0.573473 -0.43788
v -0.487224 0.576195 -0.43788
v -0.388565 0.58602 -0.43788
v -0.378469 0.586848 -0.43788
v -0.544501 0.415137 -0.326795
v -0.53514 0.548904 -0.277559
v -0.532199 0.558931 -0.277559
v -0.527854 0.563446 -0.326888
v -0.528736 0.565103 -0.277559
v -0.378469 0.583297 -0.262507
v -0.53826 0.415137 -0.262507
v -0.521139 0.569888 -0.339221
v -0.511893 0.57606 -0.326888
v -0.50276 0.579307 -0.326888
v -0.388565 0.587677 -0.425548
v -0.495392 0.580068 -0.334719
v -0.378469 0.587152 -0.435629
v -0.541054 0.415137 -0.277559
v -0.540858 0.415137 -0.275636
v -0.539175 0.42557 -0.265226
v -0.532722 0.548904 -0.267102
v -0.531726 0.558221 -0.268087
v -0.521695 0.570328 -0.326888
v -0.527968 0.561856 -0.262507
v -0.521466 0.569787 -0.262507
v -0.522577 0.570514 -0.277559
v -0.378926 0.583331 -0.262507
v -0.378469 0.586121 -0.277559
v -0.539306 0.415137 -0.265226
v -0.538048 0.425654 -0.262507
v -0.511893 0.575604 -0.277559
v -0.499558 0.578191 -0.277559
v -0.496585 0.580186 -0.326888
v -0.378469 0.58788 -0.425548
v -0.487224 0.581048 -0.326888
v -0.388565 0.587541 -0.326888
v -0.53001 0.548904 -0.262507
v -0.513869 0.573524 -0.262507
v -0.521629 0.569939 -0.265226
v -0.511893 0.574724 -0.265226
v -0.388565 0.58372 -0.262507
v -0.388565 0.586189 -0.277559
v -0.378469 0.587135 -0.326888
v -0.499558 0.577599 -0.265226
v -0.400899 0.585478 -0.277559
v -0.511893 0.574454 -0.262507
v -0.50227 0.576703 -0.262507
v -0.400899 0.583399 -0.262507
v -0.499558 0.577311 -0.262507
f 1 2 3
f 1 3 7
f 1 7 16
f 1 16 33
f 1 33 48
f 1 48 69
f 1 69 91
f 1 91 113
f 1 113 128
f 1 128 146
f 1 146 136
f 1 136 135
f 1 135 122
f 1 122 105
f 1 105 104
f 1 104 102
f 1 102 84
f 1 84 83
f 1 83 62
f 1 62 43
f 1 43 28
f 1 28 27
f 1 27 25
f 1 25 12
f 1 12 10
f 1 10 4
f 1 4 5
f 1 5 2
f 2 6 7
f 2 7 3
f 2 5 8
f 2 8 9
f 2 9 6
f 4 10 5
f 5 11 8
f 5 10 12
f 5 12 13
f 5 13 14
f 5 14 11
f 6 9 15
f 6 15 7
f 7 15 17
f 7 17 18
f 7 18 16
f 8 19 9
f 8 11 19
f 9 19 20
f 9 20 21
f 9 21 22
f 9 22 15
f 11 14 23
f 11 23 24
f 11 24 19
f 12 25 13
f 13 26 14
f 13 25 27
f 13 27 28
f 13 28 29
f 13 29 30
f 13 30 31
f 13 31 26
f 14 32 23
f 14 26 32
f 15 22 38
f 15 38 54
f 15 54 74
f 15 74 94
f 15 94 114
f 15 114 101
f 15 101 100
f 15 100 121
f 15 121 134
f 15 134 151
f 15 151 160
f 15 160 145
f 15 145 127
f 15 127 112
f 15 112 91
f 15 91 69
f 15 69 68
f 15 68 50
f 15 50 49
f 15 49 34
f 15 34 18
f 15 18 17
f 16 18 34
f 16 34 33
f 19 24 35
f 19 35 36
f 19 36 20
f 20 37 21
f 20 36 38
f 20 38 37
f 21 37 22
f 22 37 38
f 23 32 39
f 23 39 40
f 23 40 41
f 23 41 24
f 24 41 42
f 24 42 35
f 26 31 32
f 28 43 29
f 29 43 44
f 29 44 30
f 30 44 45
f 30 45 31
f 31 45 46
f 31 46 32
f 32 46 47
f 32 47 39
f 33 34 49
f 33 49 50
f 33 50 48
f 35 42 51
f 35 51 52
f 35 52 53
f 35 53 36
f 36 53 54
f 36 54 38
f 39 47 55
f 39 55 40
f 40 56 57
f 40 57 58
f 40 58 41
f 40 55 59
f 40 59 56
f 41 58 57
f 41 57 60
f 41 60 61
f 41 61 51
f 41 51 42
f 43 62 44
f 44 62 63
f 44 63 45
f 45 63 64
f 45 64 65
f 45 65 46
f 46 65 66
f 46 66 47
f 47 67 55
f 47 66 67
f 48 50 68
f 48 68 69
f 51 61 70
f 51 70 71
f 51 71 72
f 51 72 52
f 52 72 53
f 53 72 73
f 53 73 74
f 53 74 54
f 55 67 75
f 55 75 76
f 55 76 77
f 55 77 59
f 56 59 77
f 56 77 57
f 57 78 60
f 57 77 79
f 57 79 80
f 57 80 81
f 57 81 82
f 57 82 78
f 60 78 71
f 60 71 70
f 60 70 61
f 62 83 63
f 63 84 85
f 63 85 64
f 63 83 84
f 64 85 86
f 64 86 87
f 64 87 66
f 64 66 65
f 66 87 88
f 66 88 89
f 66 89 90
f 66 90 75
f 66 75 67
f 71 78 82
f 71 82 92
f 71 92 93
f 71 93 72
f 72 93 94
f 72 94 73
f 73 94 74
f 75 90 95
f 75 95 96
f 75 96 76
f 76 96 77
f 77 96 97
f 77 97 98
f 77 98 79
f 79 98 99
f 79 99 80
f 80 92 82
f 80 82 81
f 80 99 100
f 80 100 101
f 80 101 92
f 84 102 85
f 85 103 86
f 85 102 104
f 85 104 105
f 85 105 106
f 85 106 103
f 86 103 107
f 86 107 108
f 86 108 87
f 87 108 88
f 88 108 107
f 88 107 109
f 88 109 110
f 88 110 111
f 88 111 89
f 89 95 90
f 89 111 95
f 91 112 113
f 92 101 114
f 92 114 93
f 93 114 94
f 95 115 96
f 95 111 116
f 95 116 115
f 96 117 97
f 96 115 117
f 97 117 118
f 97 118 98
f 98 118 119
f 98 119 99
f 99 119 120
f 99 120 121
f 99 121 100
f 103 106 107
f 105 122 123
f 105 123 106
f 106 123 107
f 107 123 109
f 109 123 124
f 109 124 110
f 110 125 111
f 110 124 126
f 110 126 125
f 111 125 116
f 112 127 144
f 112 144 158
f 112 158 165
f 112 165 166
f 112 166 164
f 112 164 163
f 112 163 155
f 112 155 142
f 112 142 141
f 112 141 154
f 112 154 147
f 112 147 128
f 112 128 113
f 115 116 125
f 115 125 129
f 115 129 130
f 115 130 117
f 117 130 118
f 118 130 131
f 118 131 119
f 119 132 120
f 119 131 133
f 119 133 132
f 120 132 134
f 120 134 121
f 122 135 123
f 123 135 136
f 123 136 137
f 123 137 138
f 123 138 139
f 123 139 124
f 124 139 126
f 125 140 129
f 125 126 140
f 126 139 141
f 126 141 142
f 126 142 143
f 126 143 140
f 127 145 144
f 128 137 146
f 128 147 137
f 129 140 130
f 130 140 143
f 130 143 148
f 130 148 131
f 131 148 149
f 131 149 150
f 131 150 133
f 132 151 134
f 132 133 150
f 132 150 152
f 132 152 153
f 132 153 151
f 136 146 137
f 137 147 138
f 138 147 154
f 138 154 141
f 138 141 139
f 142 155 156
f 142 156 143
f 143 156 155
f 143 155 157
f 143 157 148
f 144 145 158
f 145 159 158
f 145 160 153
f 145 153 159
f 148 157 161
f 148 161 149
f 149 161 162
f 149 162 152
f 149 152 150
f 151 153 160
f 152 162 153
f 153 162 159
f 155 163 157
f 157 163 164
f 157 164 161
f 158 159 165
f 159 162 165
f 161 164 166
f 161 166 162
f 162 166 165
