v 0.49227 -0.56539 0.166793
v 0.49227 -0.565116 0.154136
v 0.492278 -0.565144 0.121762
v 0.503046 -0.567949 0.158101
v 0.503046 -0.567949 0.163512
v 0.506541 -0.567066 0.171738
v 0.49227 -0.559505 0.183307
v 0.492278 -0.564798 0.117245
v 0.49227 -0.563349 0.146999
v 0.503962 -0.567849 0.122143
v 0.524258 -0.569753 0.166521
v 0.511154 -0.568596 0.167182
v 0.514763 -0.568086 0.173923
v 0.49227 -0.47703 0.183307
v 0.535739 -0.567075 0.183307
v 0.519993 -0.567211 0.111849
v 0.49227 -0.562092 0.142233
v 0.492278 -0.561117 0.108677
v 0.511917 -0.567995 0.119981
v 0.536574 -0.57009 0.166521
v 0.536574 -0.568605 0.177694
v 0.524258 -0.568487 0.17561
v 0.567622 -0.47703 0.183307
v 0.49227 -0.47703 0.142233
v 0.536574 -0.56712 0.183307
v 0.492278 -0.561072 0.108576
v 0.492278 -0.558048 0.10388
v 0.528215 -0.567503 0.110861
v 0.53128 -0.567503 0.110861
v 0.548794 -0.568332 0.154408
v 0.550132 -0.56866 0.167734
v 0.54684 -0.568241 0.176706
v 0.549418 -0.567221 0.183307
v 0.574214 -0.523277 0.10388
v 0.572227 -0.511909 0.10388
v 0.56544 -0.477039 0.10388
v 0.565084 -0.47703 0.168193
v 0.574262 -0.524234 0.183307
v 0.558516 -0.47703 0.142233
v 0.492278 -0.477039 0.10388
v 0.535601 -0.561482 0.10388
v 0.548899 -0.562128 0.10388
v 0.548899 -0.565462 0.11719
v 0.539056 -0.567029 0.11719
v 0.555589 -0.56764 0.158661
v 0.555589 -0.56764 0.164437
v 0.555062 -0.567412 0.172663
v 0.553894 -0.566665 0.183307
v 0.574319 -0.524234 0.104859
v 0.574303 -0.524234 0.10388
v 0.575106 -0.536577 0.183307
v 0.56137 -0.557829 0.10388
v 0.56124 -0.560525 0.11719
v 0.560308 -0.564342 0.154408
v 0.560308 -0.564934 0.167734
v 0.561548 -0.564296 0.183307
v 0.574895 -0.536568 0.11719
v 0.573679 -0.535602 0.10388
v 0.574676 -0.541013 0.183307
v 0.562075 -0.557337 0.10388
v 0.5678 -0.55547 0.109796
v 0.568214 -0.555925 0.11719
v 0.569632 -0.557674 0.15419
v 0.569868 -0.558148 0.166521
v 0.569868 -0.558102 0.183307
v 0.573581 -0.536568 0.10388
v 0.573808 -0.548902 0.166521
v 0.57346 -0.548902 0.15419
v 0.571806 -0.548902 0.11719
v 0.57376 -0.548902 0.183307
v 0.566478 -0.554021 0.10388
v 0.569243 -0.549621 0.10388
v 0.569681 -0.54892 0.10388
v 0.57007 -0.547727 0.10388
f 1 2 3
f 1 3 4
f 1 4 5
f 1 5 6
f 1 6 7
f 1 7 14
f 1 14 24
f 1 24 17
f 1 17 9
f 1 9 2
f 2 8 3
f 2 9 8
f 3 8 10
f 3 10 4
f 4 10 11
f 4 11 5
f 5 11 12
f 5 12 13
f 5 13 6
f 6 13 7
f 7 13 15
f 7 15 25
f 7 25 33
f 7 33 48
f 7 48 56
f 7 56 65
f 7 65 70
f 7 70 59
f 7 59 51
f 7 51 38
f 7 38 23
f 7 23 14
f 8 16 10
f 8 9 17
f 8 17 18
f 8 18 16
f 10 19 20
f 10 20 11
f 10 16 19
f 11 20 21
f 11 21 22
f 11 22 13
f 11 13 12
f 13 22 15
f 14 23 37
f 14 37 39
f 14 39 24
f 15 22 25
f 16 18 26
f 16 26 27
f 16 27 28
f 16 28 19
f 17 27 26
f 17 26 18
f 17 24 40
f 17 40 27
f 19 28 29
f 19 29 20
f 20 30 31
f 20 31 32
f 20 32 21
f 20 29 30
f 21 32 33
f 21 33 25
f 21 25 22
f 23 34 35
f 23 35 36
f 23 36 37
f 23 38 34
f 24 39 36
f 24 36 40
f 27 41 28
f 27 40 36
f 27 36 35
f 27 35 34
f 27 34 50
f 27 50 58
f 27 58 66
f 27 66 74
f 27 74 73
f 27 73 72
f 27 72 71
f 27 71 60
f 27 60 52
f 27 52 42
f 27 42 41
f 28 41 42
f 28 42 29
f 29 43 44
f 29 44 30
f 29 42 43
f 30 44 45
f 30 45 31
f 31 45 46
f 31 46 47
f 31 47 48
f 31 48 32
f 32 48 33
f 34 49 50
f 34 38 49
f 36 39 37
f 38 51 49
f 42 52 43
f 43 45 44
f 43 52 53
f 43 53 45
f 45 53 54
f 45 54 55
f 45 55 56
f 45 56 46
f 46 56 47
f 47 56 48
f 49 51 57
f 49 57 50
f 50 57 58
f 51 59 57
f 52 60 61
f 52 61 53
f 53 61 62
f 53 62 54
f 54 62 63
f 54 63 64
f 54 64 55
f 55 64 56
f 56 64 65
f 57 66 58
f 57 59 67
f 57 67 68
f 57 68 69
f 57 69 66
f 59 70 67
f 60 71 61
f 61 71 72
f 61 72 73
f 61 73 69
f 61 69 62
f 62 69 63
f 63 69 68
f 63 68 64
f 64 68 67
f 64 67 65
f 65 67 70
f 66 69 74
f 69 73 74
