v -0.378469 0.467874 -0.196244
v -0.21158 0.431243 -0.14185
v -0.212869 0.431093 -0.129514
v -0.219505 0.432131 -0.117178
v -0.252838 0.438513 -0.0678514
v -0.271646 0.443956 -0.0431793
v -0.271381 0.444057 -0.0367227
v -0.277524 0.446552 -0.0119965
v -0.289848 0.450421 -0.0119965
v -0.378469 0.483702 -0.0119965
v -0.378469 0.576259 -0.196244
v -0.154206 0.42374 -0.196244
v -0.16653 0.424661 -0.178858
v -0.178892 0.426302 -0.166522
v -0.191179 0.428011 -0.154186
v -0.203503 0.429786 -0.14185
v -0.16653 0.424292 -0.166522
v -0.213362 0.431193 -0.117178
v -0.252838 0.439032 -0.0555154
v -0.2652 0.442348 -0.0431793
v -0.270509 0.444191 -0.0284987
v -0.265579 0.444559 -0.0119965
v -0.378469 0.578838 -0.0119965
v -0.378469 0.580479 -0.186379
v -0.289848 0.582992 -0.196244
v -0.141882 0.42168 -0.196244
v -0.154206 0.423304 -0.191194
v -0.154206 0.422701 -0.178858
v -0.154206 0.42322 -0.166522
v -0.212225 0.431394 -0.108972
v -0.252838 0.440087 -0.0431793
v -0.240513 0.436888 -0.0678514
v -0.252838 0.441527 -0.0308432
v -0.252838 0.443219 -0.0191925
v -0.252838 0.444291 -0.0119965
v -0.378469 0.582389 -0.0159642
v -0.314535 0.582942 -0.0119965
v -0.378469 0.582121 -0.178858
v -0.277524 0.583896 -0.191194
v -0.277524 0.583092 -0.196244
v -0.141882 0.421512 -0.191194
v -0.12952 0.42106 -0.196244
v -0.141882 0.421914 -0.178858
v 0.00889042 0.42642 -0.114418
v 0.00889042 0.427525 -0.104842
v -0.240513 0.43796 -0.0555154
v -0.240513 0.439601 -0.0431793
v 0.00889042 0.430406 -0.0942369
v 0.00889042 0.432248 -0.0880688
v 0.00616014 0.442281 -0.0560744
v 0.00616014 0.444258 -0.0499064
v 0.00616014 0.446736 -0.0431793
v 0.00616014 0.451527 -0.0308432
v 0.00616014 0.455212 -0.0218257
v 0.00889042 0.455882 -0.0206353
v 0.00616014 0.457858 -0.0156576
v 0.00889042 0.459014 -0.0135295
v 0.00889042 0.459734 -0.0119965
v -0.378469 0.583226 -0.0171545
v -0.378469 0.58388 -0.0183809
v -0.184543 0.584885 -0.0119965
v -0.16088 0.592154 -0.0244588
v -0.378469 0.583109 -0.166522
v -0.376193 0.583176 -0.166522
v -0.277524 0.58738 -0.14185
v -0.0555367 0.585739 -0.178858
v -0.0678609 0.583528 -0.191194
v -0.0678609 0.581903 -0.196244
v -0.12952 0.421177 -0.191194
v -0.0852286 0.422668 -0.196244
v 0.00889042 0.426235 -0.117178
v 0.00889042 0.444358 -0.0502491
v 0.00889042 0.445011 -0.0483915
v 0.00889042 0.446954 -0.0431793
v 0.00889042 0.447993 -0.0404199
v 0.00889042 0.451711 -0.0308432
v 0.00889042 0.452431 -0.0290217
v 0.00889042 0.455295 -0.022024
v 0.00889042 0.457942 -0.015856
v 0.00889042 0.574098 -0.0119965
v -0.378469 0.587464 -0.0286069
v -0.174342 0.584834 -0.0119965
v -0.159439 0.592154 -0.0244588
v -0.16088 0.592154 -0.0249998
v -0.378469 0.587832 -0.0308432
v -0.289848 0.587447 -0.129514
v -0.159439 0.592154 -0.0249998
v -0.0431746 0.585136 -0.178858
v -0.0555367 0.582992 -0.191194
v -0.0555367 0.581216 -0.196244
v -0.0729044 0.423689 -0.196244
v 0.00889042 0.427274 -0.126754
v 0.00889042 0.575907 -0.0186695
v -0.0431746 0.5812 -0.0210321
v -0.056371 0.579793 -0.0119965
v -0.0308504 0.580597 -0.0229078
v -0.0308504 0.582439 -0.0308432
v -0.0431746 0.583511 -0.0308432
v 0.00889042 0.580848 -0.130794
v 0.00889042 0.580814 -0.138513
v -0.0308504 0.583344 -0.178858
v -0.0308504 0.5812 -0.1882
v -0.0437813 0.581669 -0.191879
v -0.0470425 0.580379 -0.196244
v -0.0605801 0.425783 -0.196244
v 0.00889042 0.427743 -0.129514
v 0.00889042 0.57718 -0.030735
v -0.0182607 0.580814 -0.0304825
v -0.0222045 0.580094 -0.024044
v -0.0102974 0.580128 -0.0343601
v 0.00889042 0.575522 -0.181617
v -0.00961484 0.580178 -0.174998
v 0.00889042 0.572976 -0.196244
v -0.0221286 0.580329 -0.186036
v 0.00889042 0.439551 -0.196244
f 1 2 3
f 1 3 4
f 1 4 5
f 1 5 6
f 1 6 7
f 1 7 8
f 1 8 9
f 1 9 10
f 1 10 23
f 1 23 36
f 1 36 59
f 1 59 60
f 1 60 81
f 1 81 85
f 1 85 63
f 1 63 38
f 1 38 24
f 1 24 11
f 1 11 25
f 1 25 40
f 1 40 68
f 1 68 90
f 1 90 104
f 1 104 113
f 1 113 115
f 1 115 105
f 1 105 91
f 1 91 70
f 1 70 42
f 1 42 26
f 1 26 12
f 1 12 13
f 1 13 14
f 1 14 2
f 2 15 16
f 2 16 3
f 2 14 15
f 3 16 15
f 3 15 17
f 3 17 18
f 3 18 4
f 4 18 5
f 5 18 19
f 5 19 20
f 5 20 7
f 5 7 6
f 7 21 8
f 7 20 21
f 8 21 19
f 8 19 22
f 8 22 35
f 8 35 58
f 8 58 80
f 8 80 95
f 8 95 82
f 8 82 61
f 8 61 37
f 8 37 23
f 8 23 10
f 8 10 9
f 11 24 25
f 12 26 27
f 12 27 13
f 13 27 28
f 13 28 17
f 13 17 14
f 14 17 15
f 17 28 29
f 17 29 30
f 17 30 18
f 18 30 19
f 19 31 22
f 19 21 20
f 19 30 32
f 19 32 31
f 22 31 33
f 22 33 34
f 22 34 35
f 23 37 36
f 24 38 25
f 25 39 40
f 25 38 39
f 26 41 28
f 26 28 27
f 26 42 41
f 28 41 43
f 28 43 29
f 29 43 44
f 29 44 45
f 29 45 46
f 29 46 30
f 30 46 32
f 31 32 46
f 31 46 33
f 33 46 47
f 33 47 45
f 33 45 34
f 34 45 35
f 35 45 48
f 35 48 49
f 35 49 50
f 35 50 51
f 35 51 52
f 35 52 53
f 35 53 54
f 35 54 55
f 35 55 56
f 35 56 57
f 35 57 58
f 36 37 59
f 37 60 59
f 37 61 62
f 37 62 60
f 38 63 64
f 38 64 39
f 39 64 65
f 39 65 66
f 39 66 40
f 40 66 67
f 40 67 68
f 41 42 69
f 41 69 43
f 42 70 71
f 42 71 69
f 43 69 71
f 43 71 44
f 44 71 92
f 44 92 106
f 44 106 115
f 44 115 113
f 44 113 111
f 44 111 100
f 44 100 99
f 44 99 107
f 44 107 93
f 44 93 80
f 44 80 58
f 44 58 57
f 44 57 79
f 44 79 55
f 44 55 78
f 44 78 77
f 44 77 76
f 44 76 75
f 44 75 74
f 44 74 73
f 44 73 72
f 44 72 49
f 44 49 48
f 44 48 45
f 45 47 46
f 49 72 50
f 50 72 51
f 51 72 73
f 51 73 52
f 52 73 74
f 52 74 75
f 52 75 76
f 52 76 53
f 53 76 77
f 53 77 54
f 54 77 78
f 54 78 55
f 55 79 56
f 56 79 57
f 60 62 81
f 61 82 83
f 61 83 62
f 62 83 87
f 62 87 84
f 62 84 85
f 62 85 81
f 63 85 86
f 63 86 65
f 63 65 64
f 65 86 84
f 65 84 87
f 65 87 66
f 66 87 88
f 66 88 89
f 66 89 67
f 67 89 68
f 68 89 90
f 70 91 71
f 71 91 92
f 80 93 94
f 80 94 95
f 82 95 83
f 83 95 94
f 83 94 96
f 83 96 97
f 83 97 98
f 83 98 99
f 83 99 88
f 83 88 87
f 84 86 85
f 88 99 100
f 88 100 101
f 88 101 102
f 88 102 103
f 88 103 89
f 89 103 90
f 90 103 104
f 91 105 92
f 92 105 106
f 93 107 108
f 93 108 97
f 93 97 109
f 93 109 96
f 93 96 94
f 96 109 97
f 97 108 110
f 97 110 99
f 97 99 98
f 99 110 107
f 100 111 112
f 100 112 101
f 101 112 113
f 101 113 114
f 101 114 102
f 102 114 113
f 102 113 103
f 103 113 104
f 105 115 106
f 107 110 108
f 111 113 112
