v -0.000101781 0.376487 -0.246505
v -0.158404 0.376487 -0.218596
v -0.000101781 0.374174 -0.246709
v -0.000101781 0.376487 -0.277952
v -0.158404 0.374174 -0.218985
v -0.000101781 0.361493 -0.248783
v -0.158404 0.376487 -0.273988
v -0.145853 0.376487 -0.277952
v -0.000101781 0.218909 -0.407793
v -0.158404 0.361493 -0.223133
v -0.000101781 0.34218 -0.253598
v -0.000101781 0.348813 -0.251894
v -0.000101781 0.355045 -0.250357
v -0.157629 0.376487 -0.274581
v -0.158404 0.218909 -0.407793
v -0.000101781 0.218909 -0.35866
v -0.158404 0.355307 -0.226189
v -0.000101781 0.314474 -0.265043
v -0.000101781 0.318886 -0.263025
v -0.000101781 0.323437 -0.26095
v -0.000101781 0.32953 -0.258487
v -0.000101781 0.335839 -0.25595
v -0.000101781 0.338955 -0.254783
v -0.158404 0.218909 -0.35866
v -0.000101781 0.241338 -0.330195
v -0.158404 0.34906 -0.229282
v -0.000101781 0.308118 -0.268432
v -0.158404 0.241338 -0.330195
v -0.000101781 0.2528 -0.315954
v -0.158404 0.344941 -0.231634
v -0.000101781 0.303012 -0.271562
v -0.158404 0.2528 -0.315954
v -0.000101781 0.257922 -0.309639
v -0.158404 0.335701 -0.237338
v -0.000101781 0.298076 -0.274599
v -0.158404 0.257922 -0.309639
v -0.000101781 0.264262 -0.302249
v -0.158404 0.264262 -0.302212
v -0.158404 0.257999 -0.309546
v -0.158404 0.323082 -0.247042
v -0.000101781 0.291489 -0.278877
v -0.000101781 0.267548 -0.299119
v -0.158404 0.290024 -0.27684
v -0.158404 0.322897 -0.24719
v -0.000101781 0.285149 -0.283785
v -0.000101781 0.270941 -0.295897
v -0.000101781 0.277281 -0.290119
v -0.158404 0.316695 -0.252783
f 1 2 3
f 1 3 6
f 1 6 13
f 1 13 12
f 1 12 11
f 1 11 23
f 1 23 22
f 1 22 21
f 1 21 20
f 1 20 19
f 1 19 18
f 1 18 27
f 1 27 31
f 1 31 35
f 1 35 41
f 1 41 45
f 1 45 47
f 1 47 46
f 1 46 42
f 1 42 37
f 1 37 33
f 1 33 29
f 1 29 25
f 1 25 16
f 1 16 9
f 1 9 4
f 1 4 8
f 1 8 14
f 1 14 7
f 1 7 2
f 2 5 6
f 2 6 3
f 2 7 15
f 2 15 24
f 2 24 28
f 2 28 32
f 2 32 36
f 2 36 39
f 2 39 38
f 2 38 43
f 2 43 48
f 2 48 44
f 2 44 40
f 2 40 34
f 2 34 30
f 2 30 26
f 2 26 17
f 2 17 10
f 2 10 5
f 4 9 15
f 4 15 8
f 5 10 11
f 5 11 12
f 5 12 13
f 5 13 6
f 7 14 15
f 8 15 14
f 9 16 24
f 9 24 15
f 10 17 18
f 10 18 19
f 10 19 20
f 10 20 21
f 10 21 22
f 10 22 23
f 10 23 11
f 16 25 28
f 16 28 24
f 17 26 18
f 18 26 27
f 25 29 32
f 25 32 28
f 26 30 27
f 27 30 31
f 29 33 36
f 29 36 32
f 30 34 35
f 30 35 31
f 33 37 38
f 33 38 39
f 33 39 36
f 34 40 41
f 34 41 35
f 37 42 43
f 37 43 38
f 40 44 45
f 40 45 41
f 42 46 43
f 43 46 47
f 43 47 48
f 44 48 47
f 44 47 45
