v 0.585347 0.0777701 -0.0037045
v 0.584953 0.0790965 -0.00315218
v 0.584953 0.0790965 0.00307391
v 0.585286 0.0778945 0.00362623
v 0.585317 0.0777701 0.00362623
v 0.58222 0.0777701 -0.00993059
v 0.581066 0.0829791 -0.00696818
v 0.574598 0.0955663 -0.00671714
v 0.572048 0.103262 -0.0027505
v 0.572048 0.103262 0.00267223
v 0.572625 0.101508 0.00362623
v 0.584406 0.0796354 0.00362623
v 0.584831 0.078834 0.00362623
v 0.546299 0.0777701 0.00362623
v 0.57976 0.0777701 -0.0144495
v 0.57226 0.0916146 -0.0153031
v 0.569953 0.100071 -0.0111859
v 0.545692 0.139932 -0.000641663
v 0.566795 0.107628 -0.00671714
v 0.538829 0.145542 -0.00596398
v 0.545692 0.139932 0.000613596
v 0.570864 0.104257 0.00362623
v 0.571835 0.102917 0.00362623
v 0.410905 0.21891 0.00362623
v 0.275146 0.0777701 -0.468603
v 0.576967 0.0777701 -0.0193199
v 0.574538 0.0825922 -0.0193199
v 0.569831 0.0869031 -0.0237385
v 0.55893 0.0904264 -0.0395046
v 0.50801 0.0900948 -0.128026
v 0.419559 0.0906612 -0.280716
v 0.519062 0.0997666 -0.0998073
v 0.556623 0.0988823 -0.0355379
v 0.559052 0.102779 -0.0271026
v 0.560874 0.107338 -0.0180647
v 0.558353 0.114495 -0.0131441
v 0.532392 0.100913 -0.0755557
v 0.545722 0.101908 -0.051304
v 0.534062 0.154012 -0.00280072
v 0.543566 0.137058 -0.00912723
v 0.531937 0.151152 -0.0112361
v 0.534062 0.154012 0.00272243
v 0.53385 0.153722 0.00362623
v 0.535368 0.151704 0.00362623
v 0.541805 0.14311 0.00362623
v 0.467838 0.21891 0.00362623
v 0.275146 0.21891 -0.240798
v 0.275146 0.0777701 -0.509324
v 0.572108 0.0777701 -0.0277553
v 0.571957 0.0784471 -0.0274541
v 0.472453 0.0821777 -0.196563
v 0.48135 0.087511 -0.176479
v 0.355308 0.0890723 -0.393438
v 0.317747 0.089998 -0.457657
v 0.331077 0.0912277 -0.433456
v 0.37969 0.0999876 -0.340968
v 0.3421 0.100844 -0.405237
v 0.443911 0.101438 -0.228296
v 0.534821 0.104299 -0.0671203
v 0.551309 0.119925 -0.0183157
v 0.427727 0.10796 -0.247928
v 0.424569 0.132692 -0.221367
v 0.546724 0.128602 -0.0150018
v 0.520246 0.165107 -0.0130938
v 0.521886 0.166778 -0.00636566
v 0.530267 0.146509 -0.0202739
v 0.521036 0.153542 -0.0271528
v 0.522827 0.158074 -0.0180145
v 0.521886 0.166778 0.00362623
v 0.532908 0.154965 0.00362623
v 0.469295 0.217984 0.00362623
v 0.470813 0.21703 0.00297349
v 0.467838 0.21891 -0.00425682
v 0.275146 0.21891 -0.338508
v 0.275146 0.0842778 -0.506462
v 0.28541 0.0789583 -0.508671
v 0.28541 0.0777701 -0.509173
v 0.55559 0.0777701 -0.0563753
v 0.500297 0.0777701 -0.152177
v 0.447858 0.0777701 -0.243008
v 0.339913 0.0831034 -0.425322
v 0.302717 0.0836837 -0.48924
v 0.304387 0.0887269 -0.481909
v 0.296432 0.0958426 -0.488989
v 0.31544 0.098454 -0.453691
v 0.32877 0.0996837 -0.429439
v 0.304539 0.101618 -0.469457
v 0.508435 0.140969 -0.0653127
v 0.532665 0.139449 -0.025295
v 0.339488 0.108209 -0.400417
v 0.310855 0.107919 -0.450377
v 0.291482 0.139159 -0.443448
v 0.392565 0.151331 -0.252598
v 0.430156 0.150682 -0.188328
v 0.507372 0.177583 -0.0127424
v 0.515358 0.17312 -0.00636566
v 0.506916 0.164374 -0.0373455
v 0.469356 0.164941 -0.101615
v 0.496653 0.192132 -0.00385514
v 0.50971 0.155338 -0.0444252
v 0.408354 0.155462 -0.21986
v 0.496653 0.192132 0.00362623
v 0.470662 0.216879 0.00362623
v 0.483718 0.204609 0.00342539
v 0.470813 0.21703 -0.00305176
v 0.471573 0.216036 0.00362623
v 0.483384 0.204844 0.00362623
v 0.460156 0.218647 -0.0190689
v 0.460368 0.21891 -0.0180647
v 0.27797 0.21891 -0.333939
v 0.275146 0.216326 -0.344081
v 0.275146 0.093245 -0.502194
v 0.292879 0.0777701 -0.508219
v 0.275146 0.104216 -0.496369
v 0.282161 0.10347 -0.495918
v 0.423536 0.0777701 -0.285134
v 0.305693 0.0777701 -0.48924
v 0.303689 0.0777701 -0.492654
v 0.293486 0.0920706 -0.497022
v 0.290602 0.100527 -0.493708
v 0.293638 0.104008 -0.485223
v 0.29048 0.112464 -0.47975
v 0.289752 0.124181 -0.465841
v 0.280582 0.141549 -0.459214
v 0.311128 0.146329 -0.400116
v 0.319417 0.155255 -0.374157
v 0.466502 0.212955 -0.0190689
v 0.481562 0.202537 -0.011939
v 0.500935 0.186329 -0.00742008
v 0.429822 0.176174 -0.149716
v 0.425449 0.209763 -0.0960415
v 0.418466 0.164761 -0.190086
v 0.279094 0.164899 -0.431247
v 0.376259 0.173493 -0.247376
v 0.483718 0.204609 -0.00345344
v 0.483688 0.204554 0.00362623
v 0.468658 0.214999 -0.0114871
v 0.422474 0.21891 -0.0837902
v 0.459822 0.21891 -0.0190689
v 0.457757 0.216657 -0.0273536
v 0.420196 0.217058 -0.091623
v 0.369306 0.21692 -0.180094
v 0.358193 0.218219 -0.196613
v 0.28295 0.21891 -0.325403
v 0.280794 0.217169 -0.332784
v 0.278365 0.214958 -0.341219
v 0.275146 0.213328 -0.349755
v 0.295794 0.0822329 -0.501139
v 0.298132 0.0777701 -0.50129
v 0.275146 0.108913 -0.493307
v 0.275146 0.126198 -0.481407
v 0.275238 0.126309 -0.481306
v 0.282009 0.117853 -0.48467
v 0.28131 0.129832 -0.472821
v 0.277393 0.149991 -0.453741
v 0.279853 0.153252 -0.445255
v 0.293183 0.154122 -0.421054
v 0.281493 0.157908 -0.436318
v 0.404437 0.214212 -0.12431
v 0.393537 0.215911 -0.140076
v 0.361199 0.208975 -0.208764
v 0.275146 0.156816 -0.448619
v 0.275146 0.160602 -0.443548
v 0.275146 0.162495 -0.440887
v 0.275146 0.166944 -0.434259
v 0.275146 0.170454 -0.427933
v 0.275146 0.180886 -0.408953
v 0.29042 0.176298 -0.390877
v 0.295248 0.180886 -0.374157
v 0.279944 0.191096 -0.38204
v 0.293729 0.204803 -0.333185
v 0.340187 0.213424 -0.237032
v 0.320936 0.21891 -0.259627
v 0.406866 0.216505 -0.115824
v 0.305055 0.216188 -0.292766
v 0.331715 0.217321 -0.244363
v 0.291695 0.21558 -0.317018
v 0.289843 0.213825 -0.323445
v 0.276179 0.212885 -0.348801
v 0.275146 0.211822 -0.352517
v 0.275146 0.126323 -0.481306
v 0.275146 0.126488 -0.481156
v 0.275146 0.142599 -0.465339
v 0.277606 0.138288 -0.467649
v 0.275146 0.15415 -0.452084
v 0.329286 0.215124 -0.252799
v 0.275146 0.199773 -0.374509
v 0.275541 0.199594 -0.374157
v 0.277515 0.188775 -0.390476
v 0.286047 0.209887 -0.337202
v 0.275146 0.151469 -0.455197
f 1 2 3
f 1 3 4
f 1 4 5
f 1 5 14
f 1 14 25
f 1 25 48
f 1 48 77
f 1 77 113
f 1 113 149
f 1 149 118
f 1 118 117
f 1 117 116
f 1 116 80
f 1 80 79
f 1 79 78
f 1 78 49
f 1 49 26
f 1 26 15
f 1 15 6
f 1 6 2
f 2 6 7
f 2 7 8
f 2 8 9
f 2 9 10
f 2 10 3
f 3 10 11
f 3 11 12
f 3 12 13
f 3 13 4
f 4 13 12
f 4 12 11
f 4 11 23
f 4 23 22
f 4 22 45
f 4 45 44
f 4 44 43
f 4 43 70
f 4 70 69
f 4 69 102
f 4 102 136
f 4 136 107
f 4 107 106
f 4 106 103
f 4 103 71
f 4 71 46
f 4 46 24
f 4 24 14
f 4 14 5
f 6 15 16
f 6 16 7
f 7 16 17
f 7 17 8
f 8 17 9
f 9 18 21
f 9 21 10
f 9 17 19
f 9 19 20
f 9 20 18
f 10 21 22
f 10 22 23
f 10 23 11
f 14 24 25
f 15 26 27
f 15 27 16
f 16 27 28
f 16 28 29
f 16 29 30
f 16 30 31
f 16 31 32
f 16 32 33
f 16 33 17
f 17 34 35
f 17 35 36
f 17 36 19
f 17 33 37
f 17 37 38
f 17 38 34
f 18 20 39
f 18 39 42
f 18 42 21
f 19 36 40
f 19 40 20
f 20 40 41
f 20 41 39
f 21 42 43
f 21 43 44
f 21 44 45
f 21 45 22
f 24 46 73
f 24 73 109
f 24 109 139
f 24 139 138
f 24 138 173
f 24 173 144
f 24 144 110
f 24 110 74
f 24 74 47
f 24 47 25
f 25 47 74
f 25 74 111
f 25 111 147
f 25 147 180
f 25 180 187
f 25 187 167
f 25 167 166
f 25 166 165
f 25 165 164
f 25 164 163
f 25 163 162
f 25 162 185
f 25 185 191
f 25 191 183
f 25 183 182
f 25 182 181
f 25 181 151
f 25 151 150
f 25 150 114
f 25 114 112
f 25 112 75
f 25 75 48
f 26 49 50
f 26 50 28
f 26 28 27
f 28 50 51
f 28 51 52
f 28 52 30
f 28 30 29
f 30 52 53
f 30 53 31
f 31 53 54
f 31 54 55
f 31 55 32
f 32 37 33
f 32 55 56
f 32 56 57
f 32 57 58
f 32 58 37
f 34 59 35
f 34 38 58
f 34 58 59
f 35 60 36
f 35 59 61
f 35 61 62
f 35 62 60
f 36 41 40
f 36 60 63
f 36 63 41
f 37 58 38
f 39 41 64
f 39 64 65
f 39 65 69
f 39 69 42
f 41 63 66
f 41 66 67
f 41 67 68
f 41 68 64
f 42 69 70
f 42 70 43
f 46 71 72
f 46 72 105
f 46 105 73
f 48 75 76
f 48 76 77
f 49 78 50
f 50 78 79
f 50 79 51
f 51 79 80
f 51 80 81
f 51 81 53
f 51 53 52
f 53 81 82
f 53 82 83
f 53 83 54
f 54 83 84
f 54 84 85
f 54 85 55
f 55 85 56
f 56 85 86
f 56 86 57
f 57 86 87
f 57 87 58
f 58 87 61
f 58 61 59
f 60 88 89
f 60 89 63
f 60 62 88
f 61 87 90
f 61 90 62
f 62 90 91
f 62 91 92
f 62 92 93
f 62 93 94
f 62 94 88
f 63 89 67
f 63 67 66
f 64 95 96
f 64 96 65
f 64 68 97
f 64 97 98
f 64 98 95
f 65 96 99
f 65 99 102
f 65 102 69
f 67 100 97
f 67 97 68
f 67 89 88
f 67 88 94
f 67 94 101
f 67 101 100
f 71 103 72
f 72 104 135
f 72 135 105
f 72 103 106
f 72 106 107
f 72 107 104
f 73 108 109
f 73 105 108
f 74 110 111
f 75 112 76
f 76 113 77
f 76 112 114
f 76 114 115
f 76 115 113
f 80 116 81
f 81 116 117
f 81 117 82
f 82 117 118
f 82 118 119
f 82 119 84
f 82 84 83
f 84 119 120
f 84 120 121
f 84 121 87
f 84 87 85
f 85 87 86
f 87 121 122
f 87 122 91
f 87 91 90
f 91 122 123
f 91 123 92
f 92 123 124
f 92 124 125
f 92 125 93
f 93 125 126
f 93 126 101
f 93 101 94
f 95 127 128
f 95 128 129
f 95 129 96
f 95 98 130
f 95 130 131
f 95 131 127
f 96 129 99
f 97 100 132
f 97 132 98
f 98 132 133
f 98 133 134
f 98 134 130
f 99 129 128
f 99 128 135
f 99 135 104
f 99 104 102
f 100 101 132
f 101 126 132
f 102 104 136
f 104 107 136
f 105 135 137
f 105 137 108
f 108 138 139
f 108 139 109
f 108 137 140
f 108 140 141
f 108 141 142
f 108 142 143
f 108 143 138
f 110 144 145
f 110 145 111
f 111 145 146
f 111 146 147
f 113 119 148
f 113 148 149
f 113 115 120
f 113 120 119
f 114 150 115
f 115 150 151
f 115 151 152
f 115 152 153
f 115 153 120
f 118 149 119
f 119 149 148
f 120 153 154
f 120 154 121
f 121 154 122
f 122 154 124
f 122 124 123
f 124 154 155
f 124 155 156
f 124 156 157
f 124 157 125
f 125 157 126
f 126 157 158
f 126 158 133
f 126 133 132
f 127 140 137
f 127 137 128
f 127 131 159
f 127 159 160
f 127 160 140
f 128 137 135
f 130 134 161
f 130 161 131
f 131 161 172
f 131 172 159
f 133 158 156
f 133 156 162
f 133 162 163
f 133 163 164
f 133 164 165
f 133 165 166
f 133 166 167
f 133 167 168
f 133 168 134
f 134 168 169
f 134 169 170
f 134 170 171
f 134 171 172
f 134 172 161
f 138 143 173
f 140 160 174
f 140 174 142
f 140 142 141
f 142 174 160
f 142 160 175
f 142 175 176
f 142 176 143
f 143 176 144
f 143 144 173
f 144 176 145
f 145 176 175
f 145 175 177
f 145 177 146
f 146 177 178
f 146 178 179
f 146 179 147
f 147 179 180
f 151 181 152
f 152 181 182
f 152 182 183
f 152 183 153
f 153 183 184
f 153 184 154
f 154 184 185
f 154 185 155
f 155 185 162
f 155 162 156
f 156 158 157
f 159 172 186
f 159 186 160
f 160 186 175
f 167 187 188
f 167 188 189
f 167 189 168
f 168 189 170
f 168 170 169
f 170 188 190
f 170 190 171
f 170 189 188
f 171 190 172
f 172 190 178
f 172 178 186
f 175 186 177
f 177 186 178
f 178 190 179
f 179 188 187
f 179 187 180
f 179 190 188
f 183 191 184
f 184 191 185
