v -0.133117 0.371941 0.246854
v -0.133117 0.371941 0.277621
v -0.133117 0.374185 0.246504
v -0.000101781 0.374185 0.246681
v -0.000101781 0.371941 0.247046
v -0.125722 0.371941 0.278552
v -0.133117 0.371956 0.278552
v -0.133117 0.386871 0.245657
v -0.107806 0.386871 0.245615
v -0.000101781 0.386871 0.245615
v -0.000101781 0.380637 0.246139
v -0.000101781 0.371941 0.278552
v -0.120488 0.466692 0.293037
v -0.133117 0.466648 0.293009
v -0.133117 0.399558 0.2454
v -0.107806 0.399558 0.245269
v -0.000101781 0.399558 0.245269
v -0.000101781 0.466692 0.293037
v -0.133117 0.467027 0.293037
v -0.133117 0.412245 0.245914
v -0.000101781 0.412245 0.245966
v -0.000101781 0.520745 0.293037
v -0.12248 0.520745 0.293037
v -0.133117 0.520731 0.293028
v -0.133117 0.424932 0.247074
v -0.000101781 0.424932 0.247327
v -0.000101781 0.519682 0.292055
v -0.133117 0.519653 0.292027
v -0.133117 0.437546 0.249477
v -0.000101781 0.437604 0.249763
v -0.000101781 0.513346 0.286664
v -0.120488 0.513346 0.286664
v -0.133117 0.513302 0.286631
v -0.133117 0.437604 0.249491
v -0.000101781 0.443168 0.251165
v -0.000101781 0.509486 0.283545
v -0.120488 0.505495 0.280324
v -0.133117 0.505451 0.2803
v -0.133117 0.448514 0.252386
v -0.000101781 0.454879 0.254144
v -0.000101781 0.451762 0.253344
v -0.000101781 0.448543 0.252521
v -0.000101781 0.505495 0.280324
v -0.133117 0.499101 0.276116
v -0.133117 0.454893 0.254135
v -0.133117 0.462919 0.257286
v -0.000101781 0.462963 0.257323
v -0.000101781 0.499144 0.276148
v -0.000101781 0.48905 0.269803
v -0.133117 0.489021 0.269784
v -0.133117 0.47565 0.262775
v -0.000101781 0.47565 0.262803
v -0.000101781 0.485933 0.267919
v -0.133117 0.48267 0.265946
v -0.000101781 0.4827 0.265969
v -0.000101781 0.479233 0.264412
f 1 2 7
f 1 7 14
f 1 14 19
f 1 19 24
f 1 24 28
f 1 28 33
f 1 33 38
f 1 38 44
f 1 44 50
f 1 50 54
f 1 54 51
f 1 51 46
f 1 46 45
f 1 45 39
f 1 39 34
f 1 34 29
f 1 29 25
f 1 25 20
f 1 20 15
f 1 15 8
f 1 8 3
f 1 3 4
f 1 4 5
f 1 5 12
f 1 12 6
f 1 6 2
f 2 6 7
f 3 8 9
f 3 9 10
f 3 10 11
f 3 11 4
f 4 11 10
f 4 10 17
f 4 17 21
f 4 21 26
f 4 26 30
f 4 30 35
f 4 35 42
f 4 42 41
f 4 41 40
f 4 40 47
f 4 47 52
f 4 52 56
f 4 56 55
f 4 55 53
f 4 53 49
f 4 49 48
f 4 48 43
f 4 43 36
f 4 36 31
f 4 31 27
f 4 27 22
f 4 22 18
f 4 18 12
f 4 12 5
f 6 12 18
f 6 18 13
f 6 13 7
f 7 13 14
f 8 15 16
f 8 16 9
f 9 16 17
f 9 17 10
f 13 18 22
f 13 22 23
f 13 23 19
f 13 19 14
f 15 20 16
f 16 20 17
f 17 20 21
f 19 23 24
f 20 25 21
f 21 25 26
f 22 27 28
f 22 28 23
f 23 28 24
f 25 29 26
f 26 29 30
f 27 31 28
f 28 31 32
f 28 32 33
f 29 34 30
f 30 34 35
f 31 36 32
f 32 36 37
f 32 37 33
f 33 37 38
f 34 39 40
f 34 40 41
f 34 41 42
f 34 42 35
f 36 43 37
f 37 44 38
f 37 43 44
f 39 45 40
f 40 45 46
f 40 46 47
f 43 48 44
f 44 48 49
f 44 49 50
f 46 51 47
f 47 51 52
f 49 53 50
f 50 53 54
f 51 54 55
f 51 55 56
f 51 56 52
f 53 55 54
