v 0.169017 0.539071 0.345331
v 0.142612 0.543958 0.343382
v 0.142612 0.539071 0.345331
v 0.169017 0.537216 0.345302
v 0.169017 0.544495 0.343165
v 0.142612 0.545639 0.342703
v 0.142612 0.53635 0.345273
v 0.169017 0.528499 0.3451
v 0.142612 0.528499 0.3451
v 0.169017 0.545639 0.342703
v 0.169017 0.548013 0.337273
v 0.142612 0.548516 0.336118
v 0.145869 0.371469 0.278601
v 0.155805 0.371469 0.276464
v 0.157899 0.371469 0.275612
v 0.165243 0.371469 0.270427
v 0.166504 0.371469 0.269084
v 0.169017 0.371469 0.264752
v 0.142612 0.371469 0.278601
v 0.169017 0.548516 0.336118
v 0.169017 0.548273 0.325028
v 0.142612 0.548273 0.325042
v 0.169017 0.371469 0.201517
v 0.142612 0.371469 0.268478
v 0.169017 0.5442 0.318688
v 0.142612 0.544166 0.318703
v 0.142733 0.371469 0.243842
v 0.142612 0.371504 0.243871
v 0.169017 0.372873 0.201054
v 0.169017 0.534131 0.304522
v 0.169017 0.513006 0.27642
v 0.169017 0.501499 0.261518
v 0.142612 0.539539 0.312796
v 0.142612 0.374138 0.243481
v 0.169017 0.386876 0.198527
v 0.169017 0.379389 0.199769
v 0.169017 0.37419 0.200636
v 0.169017 0.488414 0.246124
v 0.142612 0.532832 0.304291
v 0.142612 0.386789 0.242297
v 0.169017 0.389892 0.198354
v 0.169017 0.477496 0.234745
v 0.142612 0.526385 0.298284
v 0.169017 0.475763 0.232983
v 0.169017 0.399562 0.19782
v 0.142612 0.399562 0.241922
v 0.142612 0.519678 0.292045
v 0.169017 0.463407 0.222311
v 0.169017 0.412248 0.199221
v 0.142612 0.411121 0.242586
v 0.142612 0.412248 0.242658
v 0.142612 0.424933 0.243972
v 0.142612 0.513335 0.286688
v 0.169017 0.462783 0.221777
v 0.142612 0.437619 0.245777
v 0.169017 0.417187 0.200275
v 0.142612 0.507512 0.281966
v 0.142612 0.505485 0.280348
v 0.169017 0.450288 0.213286
v 0.142612 0.449906 0.248738
v 0.169017 0.424933 0.201935
v 0.142612 0.500771 0.277171
v 0.169017 0.442836 0.209473
v 0.142612 0.477461 0.262139
v 0.142612 0.484671 0.266543
v 0.142612 0.451553 0.249185
v 0.169017 0.438018 0.207018
f 1 2 3
f 1 3 4
f 1 4 8
f 1 8 18
f 1 18 23
f 1 23 29
f 1 29 37
f 1 37 36
f 1 36 35
f 1 35 41
f 1 41 45
f 1 45 49
f 1 49 56
f 1 56 61
f 1 61 67
f 1 67 63
f 1 63 59
f 1 59 54
f 1 54 48
f 1 48 44
f 1 44 42
f 1 42 38
f 1 38 32
f 1 32 31
f 1 31 30
f 1 30 25
f 1 25 21
f 1 21 20
f 1 20 11
f 1 11 10
f 1 10 5
f 1 5 2
f 2 5 6
f 2 6 12
f 2 12 22
f 2 22 26
f 2 26 33
f 2 33 39
f 2 39 43
f 2 43 47
f 2 47 53
f 2 53 57
f 2 57 58
f 2 58 62
f 2 62 65
f 2 65 64
f 2 64 66
f 2 66 60
f 2 60 55
f 2 55 52
f 2 52 51
f 2 51 50
f 2 50 46
f 2 46 40
f 2 40 34
f 2 34 28
f 2 28 24
f 2 24 19
f 2 19 9
f 2 9 7
f 2 7 3
f 3 7 4
f 4 7 9
f 4 9 8
f 5 10 6
f 6 10 11
f 6 11 12
f 8 9 19
f 8 19 13
f 8 13 14
f 8 14 15
f 8 15 16
f 8 16 17
f 8 17 18
f 11 20 12
f 12 20 21
f 12 21 22
f 13 19 24
f 13 24 27
f 13 27 23
f 13 23 18
f 13 18 17
f 13 17 16
f 13 16 15
f 13 15 14
f 21 25 22
f 22 25 26
f 23 27 28
f 23 28 29
f 24 28 27
f 25 30 26
f 26 30 31
f 26 31 32
f 26 32 33
f 28 34 35
f 28 35 36
f 28 36 37
f 28 37 29
f 32 38 39
f 32 39 33
f 34 40 35
f 35 40 41
f 38 42 39
f 39 42 44
f 39 44 43
f 40 45 41
f 40 46 45
f 43 44 47
f 44 48 47
f 45 46 50
f 45 50 51
f 45 51 52
f 45 52 49
f 47 48 54
f 47 54 53
f 49 52 55
f 49 55 56
f 53 54 57
f 54 58 57
f 54 59 58
f 55 60 61
f 55 61 56
f 58 59 62
f 59 63 64
f 59 64 65
f 59 65 62
f 60 66 61
f 61 66 67
f 63 67 64
f 64 67 66
