v -0.260296 -0.349801 -0.462802
v -0.260296 -0.349801 -0.460097
v -0.260296 -0.349775 -0.498524
v -0.260016 -0.349801 -0.498515
v -0.000101781 -0.349801 -0.461791
v -0.000101781 -0.0804659 -0.521281
v -0.260016 -0.0804659 -0.521281
v -0.260296 -0.0804923 -0.521291
v -0.260296 -0.348799 -0.499067
v -0.000101781 -0.349801 -0.498515
v -0.000101781 -0.0804659 -0.552613
v -0.260296 -0.0804659 -0.525522
v -0.260296 -0.336908 -0.504955
v -0.000101781 -0.348799 -0.499067
v -0.000101781 -0.101375 -0.554335
v -0.260296 -0.0804659 -0.552613
v -0.260296 -0.33058 -0.507717
v -0.000101781 -0.333691 -0.50636
v -0.000101781 -0.336908 -0.504955
v -0.000101781 -0.107834 -0.554859
v -0.260296 -0.107544 -0.554841
v -0.000101781 -0.33058 -0.507717
v -0.260296 -0.285387 -0.527375
v -0.000101781 -0.114057 -0.555281
v -0.260296 -0.120253 -0.555702
v -0.000101781 -0.285387 -0.527375
v -0.260296 -0.274445 -0.531429
v -0.000101781 -0.120517 -0.555711
v -0.260296 -0.120517 -0.555711
v -0.000101781 -0.274445 -0.531429
v -0.260296 -0.274313 -0.531466
v -0.000101781 -0.126766 -0.555627
v -0.260296 -0.132935 -0.555534
v -0.260296 -0.267933 -0.533235
v -0.000101781 -0.271202 -0.532327
v -0.000101781 -0.133199 -0.555524
v -0.260296 -0.133199 -0.555524
v -0.260296 -0.260023 -0.535257
v -0.000101781 -0.260023 -0.535257
v -0.000101781 -0.268091 -0.533189
v -0.000101781 -0.139448 -0.555019
v -0.260296 -0.145881 -0.554485
v -0.260296 -0.217467 -0.545966
v -0.000101781 -0.220763 -0.545133
v -0.000101781 -0.183929 -0.551358
v -0.260296 -0.183929 -0.551358
v -0.260296 -0.1583 -0.553465
v -0.260296 -0.209293 -0.548007
v -0.000101781 -0.209293 -0.548007
v -0.000101781 -0.213406 -0.546977
v -0.000101781 -0.190177 -0.550797
v -0.260296 -0.196611 -0.550216
v -0.260296 -0.20903 -0.548054
v -0.000101781 -0.20286 -0.549131
v -0.000101781 -0.196611 -0.550216
f 1 2 8
f 1 8 12
f 1 12 16
f 1 16 21
f 1 21 25
f 1 25 29
f 1 29 33
f 1 33 37
f 1 37 42
f 1 42 47
f 1 47 46
f 1 46 52
f 1 52 53
f 1 53 48
f 1 48 43
f 1 43 38
f 1 38 34
f 1 34 31
f 1 31 27
f 1 27 23
f 1 23 17
f 1 17 13
f 1 13 9
f 1 9 3
f 1 3 4
f 1 4 10
f 1 10 5
f 1 5 2
f 2 5 6
f 2 6 7
f 2 7 8
f 3 9 4
f 4 9 14
f 4 14 10
f 5 10 14
f 5 14 19
f 5 19 18
f 5 18 22
f 5 22 26
f 5 26 30
f 5 30 35
f 5 35 40
f 5 40 39
f 5 39 44
f 5 44 50
f 5 50 49
f 5 49 54
f 5 54 55
f 5 55 51
f 5 51 45
f 5 45 41
f 5 41 36
f 5 36 32
f 5 32 28
f 5 28 24
f 5 24 20
f 5 20 15
f 5 15 11
f 5 11 6
f 6 11 16
f 6 16 12
f 6 12 7
f 7 12 8
f 9 13 19
f 9 19 14
f 11 15 16
f 13 17 18
f 13 18 19
f 15 20 21
f 15 21 16
f 17 22 18
f 17 23 26
f 17 26 22
f 20 24 25
f 20 25 21
f 23 27 30
f 23 30 26
f 24 28 25
f 25 28 29
f 27 31 30
f 28 32 29
f 29 32 33
f 30 31 34
f 30 34 35
f 32 36 33
f 33 36 37
f 34 38 39
f 34 39 40
f 34 40 35
f 36 41 37
f 37 41 42
f 38 43 39
f 39 43 44
f 41 45 46
f 41 46 47
f 41 47 42
f 43 48 49
f 43 49 50
f 43 50 44
f 45 51 46
f 46 51 52
f 48 53 49
f 49 53 54
f 51 55 52
f 52 54 53
f 52 55 54
