v 0.15866 0.372064 -0.219266
v 0.15866 0.361494 -0.222735
v 0.15866 0.372064 -0.274646
v -0.000101781 0.372064 -0.247058
v -0.000101781 0.367731 -0.247759
v -0.000101781 0.361494 -0.248774
v -0.000101781 0.34881 -0.251893
v -0.000101781 0.342183 -0.25359
v 0.15866 0.360025 -0.223455
v -0.000101781 0.335841 -0.255934
v -0.000101781 0.329544 -0.258481
v -0.000101781 0.323442 -0.260954
v -0.000101781 0.314476 -0.26505
v 0.157665 0.372064 -0.275532
v 0.15866 0.21891 -0.407773
v -0.000101781 0.372064 -0.27854
v 0.15866 0.349125 -0.228844
v -0.000101781 0.311252 -0.266767
v 0.156407 0.372064 -0.27603
v 0.15866 0.21891 -0.358667
v -0.000101781 0.21891 -0.407773
v 0.138084 0.372064 -0.27854
v 0.145855 0.372064 -0.278522
v 0.148217 0.372064 -0.278503
v 0.15866 0.335691 -0.236963
v -0.000101781 0.308134 -0.268427
v -0.000101781 0.21891 -0.358667
v 0.15866 0.230005 -0.344587
v -0.000101781 0.227456 -0.347816
v 0.15866 0.323067 -0.24667
v -0.000101781 0.303021 -0.271565
v -0.000101781 0.298073 -0.274609
v -0.000101781 0.291491 -0.278891
v -0.000101781 0.288268 -0.281364
v 0.15866 0.236347 -0.336541
v -0.000101781 0.238805 -0.333422
v 0.15866 0.322977 -0.246744
v -0.000101781 0.285149 -0.283781
v -0.000101781 0.281146 -0.286992
v -0.000101781 0.277278 -0.290129
v 0.15866 0.241339 -0.330211
v -0.000101781 0.241339 -0.330211
v 0.15866 0.322872 -0.246836
v -0.000101781 0.274054 -0.293063
v 0.15866 0.309813 -0.258647
v -0.000101781 0.244023 -0.326871
v 0.15866 0.246842 -0.323365
v -0.000101781 0.270936 -0.295905
v 0.15866 0.290052 -0.276676
v -0.000101781 0.252794 -0.315965
v 0.15866 0.252794 -0.315965
v -0.000101781 0.264264 -0.302254
v 0.15866 0.264249 -0.302198
v 0.15866 0.257907 -0.309635
v -0.000101781 0.257922 -0.309635
v -0.000101781 0.26104 -0.306
v 0.15866 0.257967 -0.309561
f 1 2 9
f 1 9 17
f 1 17 25
f 1 25 30
f 1 30 37
f 1 37 43
f 1 43 45
f 1 45 49
f 1 49 53
f 1 53 57
f 1 57 54
f 1 54 51
f 1 51 47
f 1 47 41
f 1 41 35
f 1 35 28
f 1 28 20
f 1 20 15
f 1 15 3
f 1 3 14
f 1 14 19
f 1 19 24
f 1 24 23
f 1 23 22
f 1 22 16
f 1 16 4
f 1 4 5
f 1 5 6
f 1 6 7
f 1 7 8
f 1 8 2
f 2 8 10
f 2 10 11
f 2 11 12
f 2 12 13
f 2 13 9
f 3 15 14
f 4 16 21
f 4 21 27
f 4 27 29
f 4 29 36
f 4 36 42
f 4 42 46
f 4 46 50
f 4 50 55
f 4 55 56
f 4 56 52
f 4 52 48
f 4 48 44
f 4 44 40
f 4 40 39
f 4 39 38
f 4 38 34
f 4 34 33
f 4 33 32
f 4 32 31
f 4 31 26
f 4 26 18
f 4 18 13
f 4 13 12
f 4 12 11
f 4 11 10
f 4 10 8
f 4 8 7
f 4 7 6
f 4 6 5
f 9 13 17
f 13 18 17
f 14 15 19
f 15 20 27
f 15 27 21
f 15 21 16
f 15 16 22
f 15 22 23
f 15 23 24
f 15 24 19
f 17 18 26
f 17 26 25
f 20 28 29
f 20 29 27
f 25 26 31
f 25 31 32
f 25 32 33
f 25 33 34
f 25 34 30
f 28 35 29
f 29 35 36
f 30 34 38
f 30 38 39
f 30 39 40
f 30 40 37
f 35 41 36
f 36 41 42
f 37 40 43
f 40 44 45
f 40 45 43
f 41 46 42
f 41 47 46
f 44 48 45
f 45 48 49
f 46 47 50
f 47 51 50
f 48 52 49
f 49 52 53
f 50 51 54
f 50 54 55
f 52 56 53
f 53 56 55
f 53 55 57
f 54 57 55
