v 0.636881 -0.107816 -8.9174e-05
v 0.636311 -0.095144 -8.9174e-05
v 0.636881 -0.112934 -8.9174e-05
v 0.636881 -0.107816 -0.00563678
v 0.635708 -0.0824587 -8.9174e-05
v 0.636311 -0.095144 -0.00449463
v 0.636847 -0.119989 -8.9174e-05
v 0.636847 -0.119961 -0.00754038
v 0.634132 -0.115369 -0.0125985
v 0.635708 -0.0824587 -0.00329809
v 0.635607 -0.080439 -8.9174e-05
v 0.63316 -0.095144 -0.0108581
v 0.632489 -0.080439 -0.00944397
v 0.63678 -0.133062 -8.9174e-05
v 0.63678 -0.133076 -0.00737723
v 0.634367 -0.128773 -0.0130336
v 0.634367 -0.123821 -0.0130336
v 0.592798 -0.107816 -0.0830314
v 0.629707 -0.107816 -0.0190707
v 0.627293 -0.0824587 -0.0190707
v 0.620622 -0.120501 -0.0365294
v 0.601414 -0.120501 -0.0698151
v 0.484955 -0.120501 -0.271542
v 0.379323 -0.120501 -0.454504
v 0.443855 -0.116088 -0.342246
v 0.49471 -0.113556 -0.253811
v 0.392498 -0.107816 -0.429975
v 0.635104 -0.080439 -0.00411393
v 0.635607 -0.080439 -0.00308055
v 0.598866 -0.080439 -8.9174e-05
v 0.631551 -0.080439 -0.01113
v 0.63668 -0.145872 -8.9174e-05
v 0.63668 -0.145872 -0.00520169
v 0.633562 -0.145872 -0.0115651
v 0.633964 -0.13724 -0.0123266
v 0.626858 -0.171229 -0.0190707
v 0.631115 -0.133076 -0.017983
v 0.624176 -0.133186 -0.0300028
v 0.606844 -0.133186 -0.0600252
v 0.583445 -0.126947 -0.101523
v 0.583445 -0.126698 -0.101523
v 0.59434 -0.080439 -0.0758522
v 0.416869 -0.080439 -0.383255
v 0.621896 -0.080439 -0.0280992
v 0.627092 -0.080439 -0.0190707
v 0.44409 -0.124554 -0.342681
v 0.341979 -0.120501 -0.519172
v 0.331989 -0.120501 -0.536467
v 0.355354 -0.112187 -0.494969
v 0.327832 -0.107816 -0.54196
v 0.326625 -0.080439 -0.539567
v 0.587602 -0.221763 -8.9174e-05
v 0.294443 -0.080439 -0.519552
v 0.635741 -0.165847 -8.9174e-05
v 0.635104 -0.179183 -8.9174e-05
v 0.635473 -0.171229 -0.00286298
v 0.636076 -0.158543 -0.00405953
v 0.632959 -0.158543 -0.010423
v 0.624846 -0.184938 -0.0202673
v 0.629271 -0.145872 -0.0190707
v 0.618745 -0.184938 -0.030873
v 0.623572 -0.145872 -0.0289694
v 0.425485 -0.133186 -0.374172
v 0.359578 -0.133186 -0.488334
v 0.44409 -0.128317 -0.342681
v 0.328201 -0.133186 -0.542613
v 0.328301 -0.120501 -0.542831
v 0.320289 -0.0824587 -0.548541
v 0.320189 -0.080439 -0.548433
v 0.325519 -0.080439 -0.541145
v 0.326625 -0.0824587 -0.539894
v 0.624679 -0.221763 -8.9174e-05
v 0.294443 -0.221763 -0.510034
v 0.294443 -0.080439 -0.552566
v 0.63487 -0.183914 -8.9174e-05
v 0.63487 -0.183914 -0.00155767
v 0.631752 -0.183914 -0.0079211
v 0.624746 -0.196599 -0.0183637
v 0.62146 -0.189849 -0.0253254
v 0.598095 -0.183914 -0.0668237
v 0.580763 -0.183914 -0.0968461
v 0.406142 -0.141818 -0.406262
v 0.378016 -0.158543 -0.45222
v 0.357399 -0.171229 -0.485832
v 0.330179 -0.16878 -0.533367
v 0.331855 -0.133186 -0.536304
v 0.327597 -0.145872 -0.54158
v 0.325452 -0.183914 -0.539024
v 0.318781 -0.196599 -0.547019
v 0.319451 -0.183914 -0.547726
v 0.321865 -0.133186 -0.550227
v 0.321965 -0.120501 -0.550336
v 0.321496 -0.107816 -0.549792
v 0.320893 -0.095144 -0.549194
v 0.310769 -0.120501 -0.555503
v 0.310769 -0.107816 -0.554524
v 0.310769 -0.080439 -0.552077
v 0.634434 -0.192657 -8.9174e-05
v 0.624679 -0.221763 -0.00705089
v 0.294443 -0.221763 -0.544843
v 0.298097 -0.080439 -0.552566
v 0.294443 -0.0818777 -0.552729
v 0.634434 -0.192657 -0.000633063
v 0.631584 -0.196765 -0.00547363
v 0.617035 -0.196599 -0.0317432
v 0.623472 -0.209285 -0.0161337
v 0.596754 -0.205093 -0.0645394
v 0.583412 -0.2027 -0.0887966
v 0.611102 -0.196599 -0.0420226
v 0.519114 -0.196599 -0.201381
v 0.482072 -0.191094 -0.266538
v 0.380296 -0.187538 -0.443463
v 0.48653 -0.183914 -0.260066
v 0.343119 -0.183914 -0.508457
v 0.333129 -0.183914 -0.525753
v 0.329776 -0.177246 -0.53266
v 0.326994 -0.158543 -0.540546
v 0.328804 -0.196599 -0.530974
v 0.324144 -0.196599 -0.539024
v 0.342716 -0.192269 -0.507696
v 0.317976 -0.205716 -0.546257
v 0.310769 -0.196599 -0.549412
v 0.310769 -0.183914 -0.550663
v 0.310769 -0.158543 -0.553001
v 0.310769 -0.145872 -0.554143
v 0.310769 -0.133186 -0.555286
v 0.298097 -0.107816 -0.554851
v 0.298097 -0.120501 -0.555721
v 0.298097 -0.095144 -0.553817
v 0.624511 -0.221763 -0.00737723
v 0.622198 -0.218069 -0.0139582
v 0.628567 -0.209285 -0.00634384
v 0.294443 -0.209285 -0.547998
v 0.298097 -0.221763 -0.544843
v 0.294443 -0.095144 -0.553817
v 0.586898 -0.19772 -0.0837385
v 0.619818 -0.209285 -0.0224972
v 0.582507 -0.209285 -0.087165
v 0.494944 -0.20389 -0.241519
v 0.614488 -0.209285 -0.0317432
v 0.606174 -0.209285 -0.0461561
v 0.444056 -0.203295 -0.329955
v 0.393135 -0.202299 -0.418445
v 0.342247 -0.200736 -0.506934
v 0.430815 -0.196599 -0.354321
v 0.314825 -0.214168 -0.544626
v 0.310668 -0.209672 -0.546964
v 0.32753 -0.209285 -0.528744
v 0.320893 -0.209672 -0.539839
v 0.319384 -0.221763 -0.536413
v 0.319217 -0.221763 -0.536576
v 0.298097 -0.196599 -0.550173
v 0.298097 -0.209285 -0.547998
v 0.298097 -0.158543 -0.553436
v 0.298097 -0.145872 -0.55447
v 0.298097 -0.133186 -0.555503
v 0.298097 -0.183914 -0.551315
v 0.294443 -0.107816 -0.554851
v 0.294443 -0.120501 -0.555721
v 0.62431 -0.221763 -0.00775795
v 0.618745 -0.221763 -0.0180917
v 0.611035 -0.221763 -0.0314713
v 0.294443 -0.196599 -0.550173
v 0.306377 -0.216962 -0.545713
v 0.309394 -0.221763 -0.542939
v 0.594307 -0.221763 -0.0604603
v 0.44285 -0.211747 -0.327833
v 0.355589 -0.204332 -0.482677
v 0.310869 -0.221763 -0.542559
v 0.310702 -0.221763 -0.542668
v 0.331184 -0.209285 -0.522435
v 0.325821 -0.221763 -0.525481
v 0.294443 -0.158543 -0.553436
v 0.294443 -0.180276 -0.551642
v 0.294443 -0.145872 -0.55447
v 0.294443 -0.133186 -0.555503
v 0.294443 -0.183914 -0.551315
v 0.397962 -0.221763 -0.400551
v 0.339934 -0.221763 -0.50106
v 0.344862 -0.209285 -0.498776
f 1 2 5
f 1 5 11
f 1 11 30
f 1 30 52
f 1 52 72
f 1 72 98
f 1 98 75
f 1 75 55
f 1 55 54
f 1 54 32
f 1 32 14
f 1 14 7
f 1 7 3
f 1 3 4
f 1 4 6
f 1 6 2
f 2 6 10
f 2 10 5
f 3 7 8
f 3 8 4
f 4 8 9
f 4 9 6
f 5 10 29
f 5 29 11
f 6 9 12
f 6 12 13
f 6 13 10
f 7 14 15
f 7 15 8
f 8 15 16
f 8 16 17
f 8 17 9
f 9 18 19
f 9 19 20
f 9 20 12
f 9 17 21
f 9 21 22
f 9 22 23
f 9 23 24
f 9 24 25
f 9 25 26
f 9 26 27
f 9 27 18
f 10 28 29
f 10 13 28
f 11 29 28
f 11 28 13
f 11 13 31
f 11 31 45
f 11 45 44
f 11 44 42
f 11 42 43
f 11 43 51
f 11 51 70
f 11 70 69
f 11 69 97
f 11 97 101
f 11 101 74
f 11 74 53
f 11 53 30
f 12 31 13
f 12 20 31
f 14 32 15
f 15 33 34
f 15 34 35
f 15 35 16
f 15 32 33
f 16 35 36
f 16 36 37
f 16 37 38
f 16 38 39
f 16 39 40
f 16 40 41
f 16 41 17
f 17 41 22
f 17 22 21
f 18 42 19
f 18 27 43
f 18 43 42
f 19 44 20
f 19 42 44
f 20 44 45
f 20 45 31
f 22 41 23
f 23 41 24
f 24 46 47
f 24 47 25
f 24 41 46
f 25 47 48
f 25 48 49
f 25 49 26
f 26 49 27
f 27 49 50
f 27 50 51
f 27 51 43
f 30 53 52
f 32 54 33
f 33 54 55
f 33 55 56
f 33 56 57
f 33 57 58
f 33 58 34
f 34 36 35
f 34 58 59
f 34 59 36
f 36 60 37
f 36 59 61
f 36 61 62
f 36 62 60
f 37 60 62
f 37 62 38
f 38 62 39
f 39 62 63
f 39 63 40
f 40 63 64
f 40 64 65
f 40 65 46
f 40 46 41
f 46 65 48
f 46 48 47
f 48 66 67
f 48 67 50
f 48 50 49
f 48 65 66
f 50 67 68
f 50 68 69
f 50 69 70
f 50 70 71
f 50 71 51
f 51 71 70
f 52 53 73
f 52 73 100
f 52 100 134
f 52 134 165
f 52 165 170
f 52 170 169
f 52 169 151
f 52 151 150
f 52 150 172
f 52 172 179
f 52 179 178
f 52 178 166
f 52 166 162
f 52 162 161
f 52 161 160
f 52 160 130
f 52 130 99
f 52 99 72
f 53 74 102
f 53 102 135
f 53 135 158
f 53 158 159
f 53 159 176
f 53 176 175
f 53 175 173
f 53 173 174
f 53 174 177
f 53 177 163
f 53 163 133
f 53 133 100
f 53 100 73
f 55 75 76
f 55 76 56
f 56 76 77
f 56 77 58
f 56 58 57
f 58 77 78
f 58 78 59
f 59 79 61
f 59 78 79
f 61 79 80
f 61 80 62
f 62 80 81
f 62 81 82
f 62 82 64
f 62 64 63
f 64 83 84
f 64 84 85
f 64 85 86
f 64 86 65
f 64 82 83
f 65 86 66
f 66 86 87
f 66 87 88
f 66 88 89
f 66 89 90
f 66 90 91
f 66 91 67
f 67 91 92
f 67 92 93
f 67 93 94
f 67 94 68
f 68 94 95
f 68 95 69
f 69 95 96
f 69 96 97
f 72 99 103
f 72 103 98
f 74 101 102
f 75 98 103
f 75 103 76
f 76 103 77
f 77 104 78
f 77 103 104
f 78 105 79
f 78 104 106
f 78 106 107
f 78 107 108
f 78 108 105
f 79 81 80
f 79 105 109
f 79 109 110
f 79 110 111
f 79 111 112
f 79 112 81
f 81 113 84
f 81 84 83
f 81 83 82
f 81 112 113
f 84 114 85
f 84 113 114
f 85 114 115
f 85 115 116
f 85 116 88
f 85 88 117
f 85 117 86
f 86 117 87
f 87 117 88
f 88 118 119
f 88 119 89
f 88 116 115
f 88 115 120
f 88 120 118
f 89 121 122
f 89 122 123
f 89 123 124
f 89 124 125
f 89 125 126
f 89 126 90
f 89 119 121
f 90 126 91
f 91 126 95
f 91 95 92
f 92 95 93
f 93 95 94
f 95 127 96
f 95 126 156
f 95 156 128
f 95 128 127
f 96 127 129
f 96 129 101
f 96 101 97
f 99 130 131
f 99 131 132
f 99 132 103
f 100 133 153
f 100 153 134
f 101 129 102
f 102 129 135
f 103 132 104
f 104 132 106
f 105 108 136
f 105 136 109
f 106 132 131
f 106 131 137
f 106 137 107
f 107 138 139
f 107 139 108
f 107 137 140
f 107 140 141
f 107 141 138
f 108 110 136
f 108 139 142
f 108 142 143
f 108 143 144
f 108 144 110
f 109 136 110
f 110 144 145
f 110 145 111
f 111 145 112
f 112 145 120
f 112 120 115
f 112 115 114
f 112 114 113
f 118 120 144
f 118 144 119
f 119 144 121
f 120 145 144
f 121 146 147
f 121 147 122
f 121 144 148
f 121 148 149
f 121 149 150
f 121 150 151
f 121 151 146
f 122 152 123
f 122 147 153
f 122 153 152
f 123 152 124
f 124 152 125
f 125 152 157
f 125 157 126
f 126 154 155
f 126 155 156
f 126 157 154
f 127 128 159
f 127 159 158
f 127 158 135
f 127 135 129
f 128 156 176
f 128 176 159
f 130 160 131
f 131 160 161
f 131 161 162
f 131 162 137
f 133 163 152
f 133 152 153
f 134 164 165
f 134 153 164
f 137 162 140
f 138 141 166
f 138 166 167
f 138 167 168
f 138 168 139
f 139 168 142
f 140 162 141
f 141 162 166
f 142 168 143
f 143 168 144
f 144 168 148
f 146 164 147
f 146 151 169
f 146 169 170
f 146 170 164
f 147 164 153
f 148 171 172
f 148 172 149
f 148 168 171
f 149 172 150
f 152 163 177
f 152 177 157
f 154 173 175
f 154 175 155
f 154 157 174
f 154 174 173
f 155 175 176
f 155 176 156
f 157 177 174
f 164 170 165
f 166 178 167
f 167 178 179
f 167 179 180
f 167 180 168
f 168 180 171
f 171 180 172
f 172 180 179
