v -0.299332 -0.22749 -0.50234
v -0.299332 -0.323013 -0.50234
v -0.2603 -0.261799 -0.50234
v -0.299332 -0.0804396 -0.516256
v -0.299332 -0.317786 -0.506468
v -0.298377 -0.324883 -0.50234
v -0.2603 -0.342179 -0.50234
v -0.2603 -0.0804908 -0.521293
v -0.270534 -0.0804396 -0.521288
v -0.299332 -0.0804396 -0.552549
v -0.291873 -0.329982 -0.507476
v -0.293638 -0.333672 -0.50234
v -0.299332 -0.299568 -0.518064
v -0.272712 -0.342179 -0.50234
v -0.2603 -0.3369 -0.504952
v -0.2603 -0.0804396 -0.525531
v -0.298075 -0.0804396 -0.552611
v -0.299332 -0.0824638 -0.552726
v -0.285391 -0.310739 -0.516339
v -0.285391 -0.323423 -0.510727
v -0.285391 -0.330341 -0.507623
v -0.281211 -0.340667 -0.50234
v -0.285189 -0.339488 -0.50234
v -0.299332 -0.294417 -0.521309
v -0.299332 -0.285373 -0.525699
v -0.298075 -0.285373 -0.526242
v -0.299332 -0.273099 -0.531484
v -0.298075 -0.27438 -0.531128
v -0.285391 -0.285373 -0.527381
v -0.285391 -0.29698 -0.522333
v -0.272712 -0.3369 -0.504952
v -0.2603 -0.336772 -0.50501
v -0.2603 -0.0804396 -0.552611
v -0.298075 -0.0824638 -0.552779
v -0.299332 -0.107831 -0.554832
v -0.299332 -0.0951472 -0.553782
v -0.272712 -0.330572 -0.507712
v -0.299332 -0.267949 -0.533166
v -0.298075 -0.268051 -0.533192
v -0.285391 -0.274432 -0.531431
v -0.2603 -0.285373 -0.527381
v -0.2603 -0.303181 -0.519637
v -0.2603 -0.330418 -0.50778
v -0.2603 -0.0824638 -0.552779
v -0.2603 -0.107549 -0.554843
v -0.298075 -0.107831 -0.554864
v -0.299332 -0.120514 -0.555695
v -0.299332 -0.222904 -0.544543
v -0.298075 -0.260006 -0.535257
v -0.285391 -0.268103 -0.533192
v -0.2603 -0.274303 -0.531468
v -0.2603 -0.274432 -0.531431
v -0.2603 -0.107831 -0.554864
v -0.298075 -0.120514 -0.555721
v -0.299332 -0.131942 -0.555527
v -0.299332 -0.217523 -0.545896
v -0.298075 -0.217625 -0.545922
v -0.298075 -0.234639 -0.541643
v -0.2603 -0.25975 -0.535325
v -0.2603 -0.267923 -0.533239
v -0.2603 -0.268103 -0.533192
v -0.2603 -0.120514 -0.555721
v -0.2603 -0.132916 -0.555533
v -0.298075 -0.133197 -0.555527
v -0.299332 -0.133197 -0.555506
v -0.299332 -0.209349 -0.547908
v -0.298075 -0.209298 -0.548013
v -0.2603 -0.223852 -0.54436
v -0.2603 -0.247066 -0.538517
v -0.2603 -0.133197 -0.555527
v -0.298075 -0.145881 -0.554487
v -0.298075 -0.171248 -0.552402
v -0.299332 -0.144625 -0.554566
v -0.299332 -0.208042 -0.548154
v -0.299332 -0.196614 -0.55014
v -0.298075 -0.196614 -0.550213
v -0.2603 -0.209042 -0.54806
v -0.2603 -0.209298 -0.548013
v -0.2603 -0.145881 -0.554487
v -0.2603 -0.171248 -0.552402
v -0.298075 -0.183931 -0.551357
v -0.299332 -0.157309 -0.553515
v -0.299332 -0.195359 -0.55026
v -0.2603 -0.196614 -0.550213
v -0.2603 -0.196333 -0.550239
v -0.2603 -0.183931 -0.551357
v -0.299332 -0.182675 -0.551404
f 1 2 6
f 1 6 12
f 1 12 23
f 1 23 22
f 1 22 14
f 1 14 7
f 1 7 3
f 1 3 4
f 1 4 10
f 1 10 18
f 1 18 36
f 1 36 35
f 1 35 47
f 1 47 55
f 1 55 65
f 1 65 73
f 1 73 82
f 1 82 87
f 1 87 83
f 1 83 75
f 1 75 74
f 1 74 66
f 1 66 56
f 1 56 48
f 1 48 38
f 1 38 27
f 1 27 25
f 1 25 24
f 1 24 13
f 1 13 5
f 1 5 2
f 2 5 6
f 3 7 15
f 3 15 32
f 3 32 43
f 3 43 42
f 3 42 41
f 3 41 52
f 3 52 51
f 3 51 61
f 3 61 60
f 3 60 59
f 3 59 69
f 3 69 68
f 3 68 78
f 3 78 77
f 3 77 84
f 3 84 85
f 3 85 86
f 3 86 80
f 3 80 79
f 3 79 70
f 3 70 63
f 3 63 62
f 3 62 53
f 3 53 45
f 3 45 44
f 3 44 33
f 3 33 16
f 3 16 8
f 3 8 4
f 4 8 9
f 4 9 16
f 4 16 33
f 4 33 17
f 4 17 10
f 5 11 12
f 5 12 6
f 5 13 11
f 7 14 31
f 7 31 15
f 8 16 9
f 10 17 18
f 11 19 20
f 11 20 21
f 11 21 14
f 11 14 22
f 11 22 23
f 11 23 12
f 11 13 24
f 11 24 25
f 11 25 26
f 11 26 27
f 11 27 28
f 11 28 29
f 11 29 30
f 11 30 19
f 14 21 31
f 15 31 32
f 17 34 35
f 17 35 36
f 17 36 18
f 17 33 44
f 17 44 34
f 19 37 31
f 19 31 20
f 19 30 37
f 20 31 21
f 25 27 26
f 27 38 28
f 28 38 39
f 28 39 40
f 28 40 29
f 29 40 52
f 29 52 41
f 29 41 42
f 29 42 30
f 30 42 37
f 31 37 32
f 32 37 43
f 34 44 45
f 34 45 46
f 34 46 35
f 35 46 47
f 37 42 43
f 38 48 49
f 38 49 39
f 39 49 50
f 39 50 40
f 40 51 52
f 40 50 51
f 45 53 46
f 46 53 62
f 46 62 54
f 46 54 47
f 47 54 55
f 48 56 57
f 48 57 58
f 48 58 49
f 49 59 50
f 49 58 69
f 49 69 59
f 50 59 60
f 50 60 61
f 50 61 51
f 54 62 63
f 54 63 64
f 54 64 55
f 55 64 65
f 56 66 67
f 56 67 57
f 57 68 58
f 57 67 68
f 58 68 69
f 63 70 64
f 64 71 65
f 64 70 79
f 64 79 71
f 65 71 72
f 65 72 73
f 66 74 67
f 67 74 75
f 67 75 76
f 67 76 77
f 67 77 78
f 67 78 68
f 71 79 80
f 71 80 72
f 72 80 86
f 72 86 81
f 72 81 73
f 73 81 82
f 75 83 76
f 76 84 77
f 76 83 87
f 76 87 81
f 76 81 85
f 76 85 84
f 81 86 85
f 81 87 82
