v -0.000128535 0.124921 0.483332
v -0.000128535 0.110769 0.492493
v -0.000128535 0.124921 0.446125
v -0.260003 0.124921 0.483332
v -0.000128535 0.107553 0.494553
v -0.260003 0.110769 0.492493
v -0.000128535 -0.0804395 0.521248
v -0.273463 0.124921 0.418538
v -0.268459 0.124921 0.483214
v -0.272687 0.110769 0.492427
v -0.272687 0.104437 0.496548
v -0.000128535 0.104437 0.496548
v -0.000128535 -0.0804395 0.552602
v -0.273463 -0.0804395 0.521248
v -0.273463 0.124921 0.482519
v -0.271323 0.124921 0.48282
v -0.271617 0.121423 0.485301
v -0.273463 0.110166 0.492716
v -0.273463 0.104357 0.496496
v -0.272687 0.0951298 0.50147
v -0.000128535 0.0951298 0.50147
v -0.000128535 -0.0761981 0.552261
v -0.273463 -0.0804395 0.552602
v -0.273463 0.123996 0.483175
v -0.273463 0.0945067 0.501693
v -0.273463 0.085099 0.506103
v -0.272687 0.085501 0.505932
v -0.000128535 0.085501 0.505932
v -0.000128535 -0.0697454 0.551736
v -0.273463 -0.0697454 0.551736
v -0.273463 0.0443928 0.523847
v -0.272687 0.0697613 0.512796
v -0.000128535 0.0822847 0.507336
v -0.000128535 -0.0570611 0.550686
v -0.273463 -0.0578451 0.550751
v -0.273463 0.0317085 0.52911
v -0.000128535 0.0443928 0.523847
v -0.000128535 0.0697613 0.512796
v -0.000128535 -0.0443769 0.548875
v -0.273463 -0.0570611 0.550686
v -0.273463 0.0231653 0.532167
v -0.000128535 0.0317085 0.52911
v -0.000128535 -0.0337229 0.546499
v -0.273463 -0.0443769 0.548875
v -0.273463 0.0168332 0.533769
v -0.000128535 0.019949 0.532981
v -0.000128535 0.0231653 0.532167
v -0.000128535 -9.25478e-05 0.538034
v -0.273463 -0.0277728 0.545003
v -0.273463 -0.0337229 0.546499
v -0.273463 0.00636014 0.536407
v -0.000128535 0.0168332 0.533769
f 1 2 5
f 1 5 12
f 1 12 21
f 1 21 28
f 1 28 33
f 1 33 38
f 1 38 37
f 1 37 42
f 1 42 47
f 1 47 46
f 1 46 52
f 1 52 48
f 1 48 43
f 1 43 39
f 1 39 34
f 1 34 29
f 1 29 22
f 1 22 13
f 1 13 7
f 1 7 3
f 1 3 8
f 1 8 15
f 1 15 16
f 1 16 9
f 1 9 4
f 1 4 6
f 1 6 2
f 2 6 5
f 3 7 8
f 4 9 10
f 4 10 11
f 4 11 6
f 5 6 11
f 5 11 12
f 7 13 23
f 7 23 14
f 7 14 8
f 8 14 23
f 8 23 30
f 8 30 35
f 8 35 40
f 8 40 44
f 8 44 50
f 8 50 49
f 8 49 51
f 8 51 45
f 8 45 41
f 8 41 36
f 8 36 31
f 8 31 26
f 8 26 25
f 8 25 19
f 8 19 18
f 8 18 24
f 8 24 15
f 9 16 17
f 9 17 10
f 10 17 18
f 10 18 11
f 11 18 19
f 11 19 20
f 11 20 21
f 11 21 12
f 13 22 23
f 15 24 17
f 15 17 16
f 17 24 18
f 19 25 20
f 20 25 26
f 20 26 27
f 20 27 28
f 20 28 21
f 22 29 30
f 22 30 23
f 26 31 32
f 26 32 27
f 27 32 33
f 27 33 28
f 29 34 35
f 29 35 30
f 31 36 42
f 31 42 37
f 31 37 38
f 31 38 32
f 32 38 33
f 34 39 44
f 34 44 40
f 34 40 35
f 36 41 47
f 36 47 42
f 39 43 50
f 39 50 44
f 41 45 46
f 41 46 47
f 43 48 49
f 43 49 50
f 45 51 48
f 45 48 52
f 45 52 46
f 48 51 49
