v -0.198129 -0.503037 0.310937
v -0.198129 -0.503037 0.364254
v -0.198129 -0.493197 0.310937
v -0.178261 -0.503037 0.310937
v -0.196598 -0.503037 0.364658
v -0.198129 -0.497532 0.371506
v -0.198129 -0.349816 0.461781
v -0.000101781 -0.349816 0.461781
v -0.000101781 -0.503037 0.313618
v -0.198129 -0.481858 0.391537
v -0.198129 -0.486253 0.385955
v -0.198129 -0.492597 0.377859
v -0.000101781 -0.503037 0.364658
v -0.198129 -0.349816 0.498482
v -0.000101781 -0.349816 0.498482
v -0.198129 -0.481258 0.392289
v -0.000101781 -0.486253 0.385955
v -0.000101781 -0.483793 0.389076
v -0.000101781 -0.481258 0.392289
v -0.198129 -0.355831 0.495104
v -0.000101781 -0.355831 0.495104
v -0.198129 -0.475393 0.39956
v -0.000101781 -0.478378 0.395869
v -0.198129 -0.363361 0.490239
v -0.000101781 -0.359056 0.493029
v -0.198129 -0.469783 0.406371
v -0.000101781 -0.475393 0.39956
v -0.000101781 -0.472633 0.40292
v -0.198129 -0.38688 0.475
v -0.000101781 -0.38688 0.475
v -0.198129 -0.463783 0.411898
v -0.000101781 -0.469783 0.406371
v -0.198129 -0.395205 0.469602
v -0.000101781 -0.39444 0.470098
v -0.198129 -0.456553 0.418507
v -0.000101781 -0.462958 0.41265
v -0.000101781 -0.459808 0.415533
v -0.198129 -0.40077 0.465985
v -0.000101781 -0.40077 0.465985
v -0.198129 -0.423629 0.448525
v -0.000101781 -0.456553 0.418507
v -0.000101781 -0.453433 0.421353
v -0.198129 -0.410099 0.459633
v -0.000101781 -0.410099 0.459633
v -0.198129 -0.416444 0.454878
v -0.000101781 -0.423629 0.448525
v -0.198129 -0.410864 0.459064
v -0.000101781 -0.413324 0.457228
v -0.000101781 -0.416444 0.454878
f 1 2 6
f 1 6 12
f 1 12 11
f 1 11 10
f 1 10 16
f 1 16 22
f 1 22 26
f 1 26 31
f 1 31 35
f 1 35 40
f 1 40 45
f 1 45 47
f 1 47 43
f 1 43 38
f 1 38 33
f 1 33 29
f 1 29 24
f 1 24 20
f 1 20 14
f 1 14 7
f 1 7 3
f 1 3 4
f 1 4 9
f 1 9 13
f 1 13 5
f 1 5 2
f 2 5 6
f 3 7 8
f 3 8 9
f 3 9 4
f 5 10 11
f 5 11 12
f 5 12 6
f 5 13 10
f 7 14 15
f 7 15 8
f 8 15 21
f 8 21 25
f 8 25 30
f 8 30 34
f 8 34 39
f 8 39 44
f 8 44 48
f 8 48 49
f 8 49 46
f 8 46 42
f 8 42 41
f 8 41 37
f 8 37 36
f 8 36 32
f 8 32 28
f 8 28 27
f 8 27 23
f 8 23 19
f 8 19 18
f 8 18 17
f 8 17 13
f 8 13 9
f 10 13 17
f 10 17 18
f 10 18 19
f 10 19 16
f 14 20 21
f 14 21 15
f 16 19 23
f 16 23 22
f 20 24 25
f 20 25 21
f 22 23 27
f 22 27 28
f 22 28 26
f 24 29 25
f 25 29 30
f 26 28 32
f 26 32 31
f 29 33 30
f 30 33 34
f 31 32 36
f 31 36 37
f 31 37 35
f 33 38 39
f 33 39 34
f 35 37 41
f 35 41 42
f 35 42 40
f 38 43 44
f 38 44 39
f 40 42 46
f 40 46 49
f 40 49 45
f 43 47 44
f 44 47 48
f 45 49 48
f 45 48 47
