v -0.169156 0.539059 0.345346
v -0.18392 0.539059 0.345346
v -0.169156 0.528504 0.345109
v -0.169156 0.540152 0.344906
v -0.19563 0.538295 0.343791
v -0.196604 0.530223 0.344027
v -0.18392 0.528504 0.345109
v -0.18392 0.545655 0.342675
v -0.190738 0.545568 0.342608
v -0.169156 0.371941 0.264293
v -0.169156 0.545655 0.342675
v -0.203245 0.533556 0.342777
v -0.203245 0.532202 0.342777
v -0.18392 0.548502 0.336118
v -0.19563 0.547044 0.335713
v -0.203776 0.546055 0.331251
v -0.199194 0.54201 0.339701
v -0.180069 0.371941 0.245466
v -0.169156 0.371941 0.201086
v -0.169156 0.548502 0.336118
v -0.205259 0.538295 0.335713
v -0.216593 0.535222 0.318711
v -0.254157 0.534025 0.254457
v -0.342611 0.533191 0.101781
v -0.342611 0.532428 0.101781
v -0.254157 0.531924 0.254457
v -0.196604 0.549283 0.323443
v -0.205923 0.547166 0.323443
v -0.241385 0.545742 0.26703
v -0.228015 0.545013 0.291265
v -0.214556 0.543676 0.315466
v -0.217035 0.546419 0.306982
v -0.267925 0.546523 0.218527
v -0.305534 0.546263 0.154273
v -0.343164 0.545968 0.0900862
v -0.292274 0.545864 0.178541
v -0.208402 0.371941 0.196422
v -0.169156 0.373174 0.200681
v -0.281981 0.371941 4.23378e-05
v -0.169156 0.548467 0.334293
v -0.305047 0.534476 0.166035
v -0.278993 0.545308 0.20281
v -0.355959 0.53491 0.0775463
v -0.393523 0.533677 0.013292
v -0.393523 0.532132 0.013292
v -0.296613 0.371941 0.0436109
v -0.254799 0.371941 0.116079
v -0.234677 0.54904 0.26
v -0.209908 0.548068 0.311038
v -0.169156 0.548277 0.325032
v -0.348809 0.549127 0.0570972
v -0.336125 0.549162 0.0824473
v -0.374176 0.548988 0.0190381
v -0.323441 0.548901 0.107831
v -0.219625 0.547547 0.298059
v -0.256924 0.547287 0.23465
v -0.318815 0.54661 0.130072
v -0.380773 0.545638 0.0258657
v -0.329883 0.545499 0.114355
v -0.356423 0.54635 0.0658176
v -0.169156 0.374198 0.200376
v -0.318815 0.371941 4.23378e-05
v -0.281849 0.374198 4.23378e-05
v -0.169156 0.38687 0.198247
v -0.367336 0.54477 0.0500667
v -0.369306 0.536299 0.0533115
v -0.391464 0.542131 0.00984441
v -0.395205 0.538364 0.00592359
v -0.395249 0.529772 0.00636299
v -0.318815 0.371941 0.00392936
v -0.316225 0.371941 0.0091684
v -0.315716 0.371941 0.0101148
v -0.310846 0.371941 0.0189029
v -0.306928 0.371941 0.0257305
v -0.247671 0.547912 0.247122
v -0.169156 0.544197 0.318677
v -0.325544 0.511718 4.23378e-05
v -0.331764 0.518071 4.23378e-05
v -0.338095 0.524165 4.23378e-05
v -0.345068 0.530518 4.23378e-05
v -0.351421 0.535344 4.23378e-05
v -0.36167 0.542183 4.23378e-05
v -0.373269 0.548138 4.23378e-05
v -0.361493 0.548884 0.0317132
v -0.387081 0.54779 4.23378e-05
v -0.387081 0.54779 0.00592359
v -0.34934 0.548033 0.0699412
v -0.298472 0.547981 0.158532
v -0.270648 0.547634 0.209266
v -0.358903 0.547478 0.0570972
v -0.345223 0.547079 0.0824473
v -0.369705 0.546679 0.0416166
v -0.382588 0.546732 0.0190381
v -0.393811 0.545968 0.00139435
v -0.395271 0.529754 4.23378e-05
v -0.281539 0.381211 4.23378e-05
v -0.169709 0.39956 0.196591
v -0.169156 0.39956 0.197571
v -0.281295 0.38687 4.23378e-05
v -0.395205 0.538382 4.23378e-05
v -0.336236 0.547773 0.0946492
v -0.169156 0.533261 0.303366
v -0.319213 0.50467 4.23378e-05
v -0.322357 0.508177 4.23378e-05
v -0.393811 0.545968 4.23378e-05
v -0.374021 0.547443 0.030733
v -0.281207 0.393432 4.23378e-05
v -0.28114 0.39956 4.23378e-05
v -0.281561 0.425963 4.23378e-05
v -0.169156 0.41225 0.198957
v -0.169156 0.502969 0.263887
v -0.314344 0.498334 4.23378e-05
v -0.284438 0.437611 4.23378e-05
v -0.169156 0.438011 0.206765
v -0.177302 0.432265 0.189729
v -0.169156 0.424922 0.201695
v -0.169156 0.418916 0.200376
v -0.169156 0.499532 0.259493
v -0.307725 0.488578 4.23378e-05
v -0.169156 0.494428 0.253172
v -0.169156 0.488405 0.245905
v -0.286563 0.444191 4.23378e-05
v -0.169156 0.450301 0.213018
v -0.169156 0.443288 0.209435
v -0.169156 0.440424 0.207981
v -0.169156 0.42855 0.203047
v -0.300155 0.476166 4.23378e-05
v -0.176682 0.483388 0.226707
v -0.169156 0.48311 0.239889
v -0.288556 0.450336 4.23378e-05
v -0.177324 0.457193 0.202472
v -0.169156 0.453946 0.215485
v -0.297056 0.469917 4.23378e-05
v -0.169156 0.476756 0.23367
v -0.169156 0.475767 0.232757
v -0.294001 0.463754 4.23378e-05
v -0.169156 0.462765 0.221535
v -0.169156 0.469795 0.227518
v -0.169156 0.46365 0.222279
f 1 2 7
f 1 7 3
f 1 3 10
f 1 10 19
f 1 19 38
f 1 38 61
f 1 61 64
f 1 64 98
f 1 98 110
f 1 110 117
f 1 117 116
f 1 116 126
f 1 126 114
f 1 114 125
f 1 125 124
f 1 124 123
f 1 123 132
f 1 132 137
f 1 137 139
f 1 139 138
f 1 138 135
f 1 135 134
f 1 134 129
f 1 129 121
f 1 121 120
f 1 120 118
f 1 118 111
f 1 111 102
f 1 102 76
f 1 76 50
f 1 50 40
f 1 40 20
f 1 20 11
f 1 11 4
f 1 4 2
f 2 5 6
f 2 6 7
f 2 4 8
f 2 8 9
f 2 9 5
f 3 7 10
f 4 11 8
f 5 12 6
f 5 9 12
f 6 12 13
f 6 13 10
f 6 10 7
f 8 14 9
f 8 11 20
f 8 20 14
f 9 14 15
f 9 15 16
f 9 16 17
f 9 17 12
f 10 13 18
f 10 18 37
f 10 37 47
f 10 47 46
f 10 46 74
f 10 74 73
f 10 73 72
f 10 72 71
f 10 71 70
f 10 70 62
f 10 62 39
f 10 39 19
f 12 17 16
f 12 16 21
f 12 21 22
f 12 22 23
f 12 23 24
f 12 24 25
f 12 25 13
f 13 25 26
f 13 26 18
f 14 20 27
f 14 27 15
f 15 27 28
f 15 28 16
f 16 29 30
f 16 30 31
f 16 31 21
f 16 28 32
f 16 32 33
f 16 33 34
f 16 34 35
f 16 35 36
f 16 36 29
f 18 26 25
f 18 25 37
f 19 39 38
f 20 40 27
f 21 31 22
f 22 41 23
f 22 31 30
f 22 30 42
f 22 42 43
f 22 43 41
f 23 41 24
f 24 41 44
f 24 44 45
f 24 45 25
f 25 45 46
f 25 46 47
f 25 47 37
f 27 48 49
f 27 49 28
f 27 40 50
f 27 50 51
f 27 51 52
f 27 52 53
f 27 53 54
f 27 54 48
f 28 49 55
f 28 55 56
f 28 56 57
f 28 57 33
f 28 33 32
f 29 36 58
f 29 58 59
f 29 59 42
f 29 42 30
f 33 57 60
f 33 60 34
f 34 60 35
f 35 60 58
f 35 58 36
f 38 39 61
f 39 62 95
f 39 95 100
f 39 100 105
f 39 105 85
f 39 85 83
f 39 83 82
f 39 82 81
f 39 81 80
f 39 80 79
f 39 79 78
f 39 78 77
f 39 77 104
f 39 104 103
f 39 103 112
f 39 112 119
f 39 119 127
f 39 127 133
f 39 133 136
f 39 136 130
f 39 130 122
f 39 122 113
f 39 113 109
f 39 109 108
f 39 108 107
f 39 107 99
f 39 99 96
f 39 96 63
f 39 63 64
f 39 64 61
f 41 43 44
f 42 59 65
f 42 65 43
f 43 65 66
f 43 66 44
f 44 66 65
f 44 65 58
f 44 58 67
f 44 67 68
f 44 68 69
f 44 69 45
f 45 69 70
f 45 70 71
f 45 71 72
f 45 72 73
f 45 73 74
f 45 74 46
f 48 54 49
f 49 54 75
f 49 75 55
f 50 76 77
f 50 77 78
f 50 78 79
f 50 79 80
f 50 80 81
f 50 81 82
f 50 82 83
f 50 83 84
f 50 84 51
f 51 84 53
f 51 53 52
f 53 84 83
f 53 83 85
f 53 85 86
f 53 86 87
f 53 87 54
f 54 87 88
f 54 88 75
f 55 75 89
f 55 89 56
f 56 89 90
f 56 90 91
f 56 91 92
f 56 92 57
f 57 92 60
f 58 65 59
f 58 60 92
f 58 92 93
f 58 93 94
f 58 94 67
f 62 70 95
f 63 96 64
f 64 97 98
f 64 96 99
f 64 99 97
f 67 94 68
f 68 94 100
f 68 100 95
f 68 95 69
f 69 95 70
f 75 88 101
f 75 101 89
f 76 102 103
f 76 103 104
f 76 104 77
f 85 105 94
f 85 94 86
f 86 93 106
f 86 106 90
f 86 90 101
f 86 101 87
f 86 94 93
f 87 101 88
f 89 101 90
f 90 106 93
f 90 93 92
f 90 92 91
f 94 105 100
f 97 99 107
f 97 107 108
f 97 108 109
f 97 109 98
f 98 109 110
f 102 111 112
f 102 112 103
f 109 113 114
f 109 114 115
f 109 115 116
f 109 116 117
f 109 117 110
f 111 118 112
f 112 118 120
f 112 120 121
f 112 121 119
f 113 122 123
f 113 123 124
f 113 124 125
f 113 125 114
f 114 126 115
f 115 126 116
f 119 121 128
f 119 128 127
f 121 129 128
f 122 130 123
f 123 131 132
f 123 130 131
f 127 128 134
f 127 134 135
f 127 135 133
f 128 129 134
f 130 136 131
f 131 137 132
f 131 136 137
f 133 135 136
f 135 138 136
f 136 138 139
f 136 139 137
