v 0.251774 0.21891 -0.379143
v 0.248203 0.21891 -0.385484
v 0.21012 0.21891 -0.379143
v 0.254727 0.216553 -0.379143
v 0.246452 0.21891 -0.388538
v 0.243219 0.217568 -0.397058
v 0.21012 0.21891 -0.380883
v 0.21012 0.201864 -0.379143
v 0.256637 0.214799 -0.379143
v 0.254116 0.216027 -0.381285
v 0.242442 0.21891 -0.3955
v 0.247401 0.211815 -0.400599
v 0.240584 0.215413 -0.405516
v 0.220699 0.21891 -0.407792
v 0.21012 0.218859 -0.407841
v 0.21012 0.0908645 -0.468073
v 0.275146 0.150513 -0.379143
v 0.261143 0.210524 -0.379143
v 0.251672 0.213721 -0.389743
v 0.26775 0.204258 -0.379143
v 0.270379 0.201763 -0.379143
v 0.23749 0.21891 -0.402401
v 0.255695 0.192163 -0.422068
v 0.232131 0.21738 -0.407634
v 0.268056 0.166606 -0.446957
v 0.252525 0.189844 -0.430527
v 0.242621 0.20427 -0.419902
v 0.221972 0.21891 -0.40778
v 0.221972 0.21827 -0.408498
v 0.21012 0.21827 -0.408498
v 0.21012 0.0908645 -0.503477
v 0.275146 0.0908645 -0.457314
v 0.275146 0.197226 -0.379143
v 0.267018 0.203568 -0.381674
v 0.272257 0.196173 -0.386092
v 0.275146 0.189706 -0.392883
v 0.275146 0.180882 -0.408973
v 0.275146 0.174841 -0.419987
v 0.275146 0.170454 -0.427983
v 0.27416 0.198166 -0.379143
v 0.275146 0.193378 -0.386177
v 0.233136 0.21891 -0.404908
v 0.266159 0.177373 -0.430916
v 0.234658 0.20506 -0.420596
v 0.229992 0.21891 -0.406307
v 0.275146 0.166945 -0.4343
v 0.275146 0.162495 -0.44092
v 0.272721 0.158647 -0.450352
v 0.268934 0.155589 -0.459359
v 0.263307 0.164049 -0.455415
v 0.254574 0.178212 -0.444547
v 0.221972 0.211515 -0.414839
v 0.21012 0.211515 -0.414839
v 0.272702 0.0908645 -0.503477
v 0.21012 0.0948628 -0.501627
v 0.275146 0.0908645 -0.503319
v 0.234658 0.198216 -0.426936
v 0.247337 0.178563 -0.444851
v 0.275146 0.160602 -0.443573
v 0.275146 0.156805 -0.448636
v 0.275146 0.154173 -0.452117
v 0.275146 0.15149 -0.455245
v 0.275146 0.142604 -0.465334
v 0.275146 0.13932 -0.468596
v 0.275146 0.126486 -0.481168
v 0.275146 0.126323 -0.481314
v 0.259456 0.159311 -0.460198
v 0.254854 0.165152 -0.456839
v 0.21012 0.204721 -0.421034
v 0.21012 0.211101 -0.415216
v 0.234658 0.191874 -0.432742
v 0.272702 0.0951386 -0.501493
v 0.21012 0.0951386 -0.501493
v 0.275146 0.093246 -0.502211
v 0.247337 0.17162 -0.451204
v 0.275146 0.108913 -0.493351
v 0.271684 0.121447 -0.485306
v 0.260023 0.14941 -0.467282
v 0.247337 0.165278 -0.456949
v 0.260023 0.143068 -0.471602
v 0.21012 0.178125 -0.445277
v 0.21012 0.103862 -0.496893
v 0.272702 0.104476 -0.496564
v 0.275146 0.104213 -0.496406
v 0.21012 0.17162 -0.451204
v 0.272702 0.110818 -0.492438
v 0.26677 0.126912 -0.482032
v 0.247337 0.158547 -0.461464
v 0.21012 0.165278 -0.456949
v 0.21012 0.126523 -0.482324
v 0.21012 0.143068 -0.471602
v 0.247337 0.14941 -0.467489
v 0.260023 0.110818 -0.492499
v 0.21012 0.104476 -0.496564
v 0.21012 0.157945 -0.461866
v 0.21012 0.158547 -0.461464
v 0.21012 0.110818 -0.492499
v 0.21012 0.14941 -0.467489
f 1 2 5
f 1 5 11
f 1 11 22
f 1 22 42
f 1 42 45
f 1 45 28
f 1 28 14
f 1 14 7
f 1 7 3
f 1 3 8
f 1 8 17
f 1 17 33
f 1 33 40
f 1 40 21
f 1 21 20
f 1 20 18
f 1 18 9
f 1 9 4
f 1 4 2
f 2 4 6
f 2 6 5
f 3 7 15
f 3 15 30
f 3 30 53
f 3 53 70
f 3 70 69
f 3 69 81
f 3 81 85
f 3 85 89
f 3 89 96
f 3 96 95
f 3 95 98
f 3 98 91
f 3 91 90
f 3 90 97
f 3 97 94
f 3 94 82
f 3 82 73
f 3 73 55
f 3 55 31
f 3 31 16
f 3 16 8
f 4 9 10
f 4 10 6
f 5 6 11
f 6 10 12
f 6 12 13
f 6 13 11
f 7 14 15
f 8 16 17
f 9 18 10
f 10 19 12
f 10 18 20
f 10 20 21
f 10 21 19
f 11 13 22
f 12 19 23
f 12 23 13
f 13 24 22
f 13 23 25
f 13 25 26
f 13 26 27
f 13 27 24
f 14 28 29
f 14 29 30
f 14 30 15
f 16 31 54
f 16 54 56
f 16 56 32
f 16 32 17
f 17 32 56
f 17 56 74
f 17 74 84
f 17 84 76
f 17 76 66
f 17 66 65
f 17 65 64
f 17 64 63
f 17 63 62
f 17 62 61
f 17 61 60
f 17 60 59
f 17 59 47
f 17 47 46
f 17 46 39
f 17 39 38
f 17 38 37
f 17 37 36
f 17 36 41
f 17 41 33
f 19 21 34
f 19 34 35
f 19 35 36
f 19 36 37
f 19 37 38
f 19 38 39
f 19 39 23
f 21 40 41
f 21 41 35
f 21 35 34
f 22 24 42
f 23 39 43
f 23 43 25
f 24 44 29
f 24 29 28
f 24 28 45
f 24 45 42
f 24 27 44
f 25 43 46
f 25 46 47
f 25 47 48
f 25 48 49
f 25 49 50
f 25 50 26
f 26 50 51
f 26 51 27
f 27 51 44
f 29 44 52
f 29 52 53
f 29 53 30
f 31 55 54
f 33 41 40
f 35 41 36
f 39 46 43
f 44 57 52
f 44 51 58
f 44 58 57
f 47 59 48
f 48 59 60
f 48 60 61
f 48 61 49
f 49 61 62
f 49 62 63
f 49 63 64
f 49 64 65
f 49 65 66
f 49 66 50
f 50 66 67
f 50 67 68
f 50 68 51
f 51 68 58
f 52 69 70
f 52 70 53
f 52 57 58
f 52 58 71
f 52 71 69
f 54 55 72
f 54 72 56
f 55 73 72
f 56 72 74
f 58 68 75
f 58 75 71
f 66 76 77
f 66 77 78
f 66 78 68
f 66 68 67
f 68 79 75
f 68 78 80
f 68 80 79
f 69 71 75
f 69 75 81
f 72 82 83
f 72 83 74
f 72 73 82
f 74 83 84
f 75 79 89
f 75 89 85
f 75 85 81
f 76 84 83
f 76 83 86
f 76 86 77
f 77 87 78
f 77 86 87
f 78 87 80
f 79 80 88
f 79 88 96
f 79 96 89
f 80 90 91
f 80 91 98
f 80 98 92
f 80 92 88
f 80 87 86
f 80 86 83
f 80 83 93
f 80 93 90
f 82 94 83
f 83 94 97
f 83 97 93
f 88 95 96
f 88 92 95
f 90 93 97
f 92 98 95
