v 0.212792 -0.505707 0.243419
v 0.212792 -0.505707 0.352002
v 0.199845 -0.505707 0.260032
v 0.17125 -0.416275 0.412962
v 0.212792 -0.416267 0.412962
v 0.212792 -0.505681 0.352809
v 0.212772 -0.505707 0.352789
v 0.17125 -0.505707 0.301667
v 0.17125 -0.416267 0.414723
v 0.174718 -0.416267 0.412983
v 0.212792 -0.416267 0.454991
v 0.212792 -0.500052 0.364906
v 0.207111 -0.505707 0.358899
v 0.17125 -0.505707 0.30177
v 0.17125 -0.416267 0.454991
v 0.212792 -0.416442 0.454867
v 0.212792 -0.496532 0.370582
v 0.209287 -0.497031 0.371162
v 0.1966 -0.505707 0.361281
v 0.17957 -0.505707 0.361302
v 0.17125 -0.505699 0.361302
v 0.17125 -0.416442 0.454867
v 0.212792 -0.421642 0.450289
v 0.212792 -0.490447 0.37953
v 0.209287 -0.492601 0.3775
v 0.192249 -0.505707 0.361302
v 0.209287 -0.486262 0.385931
v 0.17125 -0.481263 0.392269
v 0.17125 -0.423621 0.448528
v 0.212792 -0.423621 0.448528
v 0.212792 -0.484809 0.387381
v 0.209287 -0.481263 0.392269
v 0.212792 -0.479574 0.394279
v 0.17125 -0.475398 0.39954
v 0.17125 -0.43692 0.436411
v 0.212792 -0.43692 0.436411
v 0.212792 -0.473848 0.401425
v 0.209287 -0.475398 0.39954
v 0.17125 -0.469786 0.406375
v 0.17125 -0.443258 0.430631
v 0.212792 -0.443258 0.430631
v 0.212792 -0.469786 0.406375
v 0.17125 -0.462966 0.412652
v 0.212792 -0.461197 0.414267
v 0.212792 -0.462966 0.412652
f 1 2 7
f 1 7 13
f 1 13 19
f 1 19 26
f 1 26 20
f 1 20 14
f 1 14 8
f 1 8 3
f 1 3 4
f 1 4 5
f 1 5 11
f 1 11 16
f 1 16 23
f 1 23 30
f 1 30 36
f 1 36 41
f 1 41 44
f 1 44 45
f 1 45 42
f 1 42 37
f 1 37 33
f 1 33 31
f 1 31 24
f 1 24 17
f 1 17 12
f 1 12 6
f 1 6 2
f 2 6 7
f 3 8 4
f 4 9 10
f 4 10 5
f 4 8 14
f 4 14 21
f 4 21 28
f 4 28 34
f 4 34 39
f 4 39 43
f 4 43 40
f 4 40 35
f 4 35 29
f 4 29 22
f 4 22 15
f 4 15 9
f 5 10 9
f 5 9 15
f 5 15 11
f 6 12 7
f 7 12 13
f 11 15 22
f 11 22 16
f 12 17 13
f 13 17 18
f 13 18 19
f 14 20 21
f 16 22 23
f 17 24 18
f 18 24 25
f 18 25 19
f 19 25 27
f 19 27 26
f 20 26 32
f 20 32 28
f 20 28 21
f 22 29 23
f 23 29 30
f 24 31 25
f 25 31 27
f 26 27 32
f 27 31 33
f 27 33 32
f 28 32 38
f 28 38 34
f 29 35 36
f 29 36 30
f 32 33 37
f 32 37 38
f 34 38 42
f 34 42 39
f 35 40 41
f 35 41 36
f 37 42 38
f 39 42 45
f 39 45 43
f 40 43 44
f 40 44 41
f 43 45 44
