v -0.209672 0.218896 -0.401859
v -0.209672 0.218896 -0.407789
v -0.237836 0.218896 -0.401859
v -0.209672 0.179355 -0.401859
v -0.209672 0.218464 -0.40828
v -0.221972 0.218273 -0.408491
v -0.221972 0.218896 -0.407779
v -0.237478 0.218896 -0.402381
v -0.238036 0.218769 -0.401859
v -0.273746 0.137359 -0.401859
v -0.209672 0.0889789 -0.469268
v -0.209672 0.218273 -0.408491
v -0.209672 0.211723 -0.414641
v -0.221972 0.211519 -0.414831
v -0.234662 0.205058 -0.42059
v -0.232115 0.217382 -0.407628
v -0.233125 0.218896 -0.404909
v -0.240571 0.215411 -0.405511
v -0.241712 0.21634 -0.401859
v -0.273746 0.0889789 -0.461192
v -0.273746 0.186083 -0.401859
v -0.209672 0.0889789 -0.504351
v -0.209672 0.211519 -0.414831
v -0.209672 0.198432 -0.42677
v -0.221972 0.205173 -0.42062
v -0.234662 0.191882 -0.432739
v -0.247339 0.178554 -0.444869
v -0.234662 0.198216 -0.426931
v -0.242609 0.20427 -0.419898
v -0.254571 0.17821 -0.444558
v -0.247677 0.210833 -0.401859
v -0.252514 0.189847 -0.430512
v -0.268051 0.166598 -0.446966
v -0.255687 0.192162 -0.422065
v -0.273746 0.0889789 -0.504161
v -0.271476 0.188245 -0.401859
v -0.273746 0.180347 -0.412333
v -0.209672 0.0951345 -0.501492
v -0.272705 0.0889789 -0.504351
v -0.209672 0.192073 -0.432569
v -0.209672 0.171838 -0.451019
v -0.234662 0.178579 -0.444869
v -0.247339 0.171622 -0.451209
v -0.254847 0.165149 -0.456838
v -0.263302 0.164042 -0.455413
v -0.248562 0.210006 -0.401859
v -0.268929 0.155584 -0.459356
v -0.272718 0.15865 -0.450357
v -0.273746 0.159476 -0.447467
v -0.273746 0.167667 -0.435358
v -0.266156 0.177371 -0.430903
v -0.260919 0.184773 -0.426479
v -0.266583 0.190471 -0.406284
v -0.260191 0.198966 -0.401859
v -0.273439 0.0889789 -0.504221
v -0.273746 0.0951981 -0.501282
v -0.267863 0.191679 -0.401859
v -0.272774 0.173784 -0.425978
v -0.273746 0.17353 -0.424754
v -0.209672 0.10447 -0.496566
v -0.272705 0.0951345 -0.501492
v -0.273746 0.096063 -0.50088
v -0.209672 0.165479 -0.456767
v -0.247339 0.165276 -0.456948
v -0.260022 0.14307 -0.471595
v -0.260022 0.149403 -0.467281
v -0.273746 0.124285 -0.482972
v -0.259451 0.159311 -0.460198
v -0.269123 0.141887 -0.470833
v -0.273746 0.156729 -0.451109
v -0.273746 0.129347 -0.478769
v -0.273746 0.145066 -0.464001
v -0.273746 0.157861 -0.449624
v -0.273746 0.15856 -0.448701
v -0.272705 0.10447 -0.496566
v -0.209672 0.104661 -0.496446
v -0.273746 0.104355 -0.496496
v -0.209672 0.165276 -0.456948
v -0.209672 0.158751 -0.461332
v -0.247339 0.158548 -0.461462
v -0.260022 0.120507 -0.486223
v -0.272705 0.110816 -0.492443
v -0.266771 0.126905 -0.482029
v -0.247339 0.149403 -0.467492
v -0.271683 0.121449 -0.4853
v -0.260022 0.110816 -0.492503
v -0.209672 0.110816 -0.492503
v -0.209672 0.149403 -0.467492
v -0.209672 0.127134 -0.481929
v -0.209672 0.14326 -0.471475
f 1 2 7
f 1 7 17
f 1 17 8
f 1 8 3
f 1 3 9
f 1 9 19
f 1 19 31
f 1 31 46
f 1 46 54
f 1 54 57
f 1 57 36
f 1 36 21
f 1 21 10
f 1 10 4
f 1 4 11
f 1 11 22
f 1 22 38
f 1 38 60
f 1 60 76
f 1 76 87
f 1 87 89
f 1 89 90
f 1 90 88
f 1 88 79
f 1 79 78
f 1 78 63
f 1 63 41
f 1 41 40
f 1 40 24
f 1 24 23
f 1 23 13
f 1 13 12
f 1 12 5
f 1 5 2
f 2 5 6
f 2 6 7
f 3 8 9
f 4 10 11
f 5 12 6
f 6 12 13
f 6 13 14
f 6 14 15
f 6 15 16
f 6 16 7
f 7 16 17
f 8 17 18
f 8 18 9
f 9 18 19
f 10 20 11
f 10 21 37
f 10 37 59
f 10 59 50
f 10 50 49
f 10 49 74
f 10 74 73
f 10 73 70
f 10 70 72
f 10 72 71
f 10 71 67
f 10 67 77
f 10 77 62
f 10 62 56
f 10 56 35
f 10 35 20
f 11 20 35
f 11 35 55
f 11 55 39
f 11 39 22
f 13 23 14
f 14 23 24
f 14 24 25
f 14 25 26
f 14 26 27
f 14 27 28
f 14 28 15
f 15 29 16
f 15 28 27
f 15 27 30
f 15 30 29
f 16 29 18
f 16 18 17
f 18 31 19
f 18 29 32
f 18 32 33
f 18 33 34
f 18 34 31
f 21 36 37
f 22 39 61
f 22 61 38
f 24 40 26
f 24 26 25
f 26 40 41
f 26 41 42
f 26 42 43
f 26 43 27
f 27 43 44
f 27 44 30
f 29 30 32
f 30 44 45
f 30 45 32
f 31 34 46
f 32 45 33
f 33 45 47
f 33 47 48
f 33 48 49
f 33 49 50
f 33 50 51
f 33 51 52
f 33 52 34
f 34 52 53
f 34 53 54
f 34 54 46
f 35 56 55
f 36 57 53
f 36 53 37
f 37 53 51
f 37 51 58
f 37 58 59
f 38 61 75
f 38 75 60
f 39 55 56
f 39 56 62
f 39 62 61
f 41 63 64
f 41 64 43
f 41 43 42
f 43 64 44
f 44 64 65
f 44 65 66
f 44 66 67
f 44 67 68
f 44 68 45
f 45 68 69
f 45 69 47
f 47 70 48
f 47 69 71
f 47 71 72
f 47 72 70
f 48 70 73
f 48 73 74
f 48 74 49
f 50 59 58
f 50 58 51
f 51 53 52
f 53 57 54
f 60 75 76
f 61 62 75
f 62 77 75
f 63 78 64
f 64 78 79
f 64 79 80
f 64 80 65
f 65 81 75
f 65 75 82
f 65 82 83
f 65 83 66
f 65 80 84
f 65 84 81
f 66 83 85
f 66 85 67
f 67 85 82
f 67 82 77
f 67 71 69
f 67 69 68
f 75 77 82
f 75 81 86
f 75 86 76
f 76 86 87
f 79 88 84
f 79 84 80
f 81 89 86
f 81 84 89
f 82 85 83
f 84 88 90
f 84 90 89
f 86 89 87
