v -0.000101781 -0.0804654 0.55261
v -0.000101781 -0.0824595 0.552776
v -0.000101781 -0.0804654 0.521263
v -0.298056 -0.0804654 0.55261
v -0.000101781 -0.0951488 0.553822
v -0.298056 -0.0824595 0.552776
v -0.000101781 -0.265963 0.500924
v -0.299198 -0.0804654 0.516345
v -0.299198 -0.0804654 0.552567
v -0.299198 -0.0806208 0.552583
v -0.299198 -0.083573 0.552835
v -0.000101781 -0.101597 0.554353
v -0.298056 -0.0951488 0.553822
v -0.299198 -0.0962623 0.553886
v -0.000101781 -0.344999 0.500924
v -0.299198 -0.230899 0.500924
v -0.000101781 -0.107838 0.554863
v -0.298056 -0.107838 0.554863
v -0.299198 -0.107838 0.554836
v -0.000101781 -0.336893 0.504941
v -0.272702 -0.344999 0.500924
v -0.299198 -0.32524 0.500924
v -0.000101781 -0.11426 0.555297
v -0.299198 -0.108952 0.554922
v -0.298056 -0.120502 0.555715
v -0.000101781 -0.285385 0.527378
v -0.272702 -0.336893 0.504941
v -0.285379 -0.330316 0.507612
v -0.291849 -0.329979 0.507468
v -0.284998 -0.341943 0.500924
v -0.299198 -0.323375 0.502206
v -0.294104 -0.334666 0.500924
v -0.000101781 -0.120502 0.555715
v -0.299198 -0.120502 0.555699
v -0.299198 -0.121641 0.555683
v -0.298056 -0.133191 0.555528
v -0.000101781 -0.12695 0.555624
v -0.000101781 -0.274431 0.531433
v -0.285379 -0.285385 0.527378
v -0.285379 -0.303305 0.519568
v -0.285379 -0.310738 0.516329
v -0.285379 -0.323427 0.510707
v -0.298056 -0.274405 0.531133
v -0.298056 -0.285385 0.526241
v -0.299198 -0.28655 0.525276
v -0.299198 -0.294475 0.521328
v -0.299198 -0.309754 0.511265
v -0.288131 -0.339457 0.500924
v -0.299198 -0.133191 0.555506
v -0.298056 -0.14588 0.554487
v -0.000101781 -0.139639 0.555002
v -0.000101781 -0.133191 0.555528
v -0.000101781 -0.271323 0.532302
v -0.285379 -0.274431 0.531433
v -0.298056 -0.26806 0.533193
v -0.299198 -0.267957 0.533171
v -0.299198 -0.275855 0.530001
v -0.298056 -0.183922 0.551355
v -0.298056 -0.171259 0.552401
v -0.299198 -0.171259 0.552352
v -0.000101781 -0.165018 0.552915
v -0.000101781 -0.268086 0.533198
v -0.285379 -0.268086 0.533198
v -0.298056 -0.260006 0.535258
v -0.299198 -0.261224 0.534893
v -0.299198 -0.183922 0.551301
v -0.298056 -0.196612 0.550212
v -0.000101781 -0.190371 0.550775
v -0.000101781 -0.183922 0.551355
v -0.000101781 -0.171259 0.552401
v -0.000101781 -0.264124 0.534212
v -0.298056 -0.223984 0.544328
v -0.299198 -0.217536 0.5459
v -0.000101781 -0.260006 0.535258
v -0.000101781 -0.253765 0.536829
v -0.299198 -0.196612 0.550148
v -0.298056 -0.209301 0.548013
v -0.000101781 -0.20306 0.549096
v -0.000101781 -0.196612 0.550212
v -0.298056 -0.21764 0.545921
v -0.000101781 -0.223984 0.544328
v -0.299198 -0.210337 0.547707
v -0.299198 -0.209327 0.547916
v -0.000101781 -0.209301 0.548013
v -0.000101781 -0.21764 0.545921
f 1 2 5
f 1 5 12
f 1 12 17
f 1 17 23
f 1 23 33
f 1 33 37
f 1 37 52
f 1 52 51
f 1 51 61
f 1 61 70
f 1 70 69
f 1 69 68
f 1 68 79
f 1 79 78
f 1 78 84
f 1 84 85
f 1 85 81
f 1 81 75
f 1 75 74
f 1 74 71
f 1 71 62
f 1 62 53
f 1 53 38
f 1 38 26
f 1 26 20
f 1 20 15
f 1 15 7
f 1 7 3
f 1 3 8
f 1 8 9
f 1 9 4
f 1 4 6
f 1 6 2
f 2 6 13
f 2 13 5
f 3 7 8
f 4 9 10
f 4 10 11
f 4 11 6
f 5 13 12
f 6 11 14
f 6 14 13
f 7 15 21
f 7 21 30
f 7 30 48
f 7 48 32
f 7 32 22
f 7 22 16
f 7 16 8
f 8 16 22
f 8 22 31
f 8 31 47
f 8 47 46
f 8 46 45
f 8 45 57
f 8 57 56
f 8 56 65
f 8 65 73
f 8 73 82
f 8 82 83
f 8 83 76
f 8 76 66
f 8 66 60
f 8 60 49
f 8 49 35
f 8 35 34
f 8 34 24
f 8 24 19
f 8 19 14
f 8 14 11
f 8 11 10
f 8 10 9
f 12 13 18
f 12 18 17
f 13 14 19
f 13 19 18
f 15 20 27
f 15 27 21
f 17 18 23
f 18 19 24
f 18 24 25
f 18 25 23
f 20 26 39
f 20 39 27
f 21 27 28
f 21 28 29
f 21 29 30
f 22 32 29
f 22 29 31
f 23 25 33
f 24 34 25
f 25 34 35
f 25 35 36
f 25 36 37
f 25 37 33
f 26 38 54
f 26 54 39
f 27 39 40
f 27 40 41
f 27 41 42
f 27 42 28
f 28 42 29
f 29 43 44
f 29 44 45
f 29 45 46
f 29 46 47
f 29 47 31
f 29 32 48
f 29 48 30
f 29 42 41
f 29 41 40
f 29 40 39
f 29 39 43
f 35 49 36
f 36 49 50
f 36 50 51
f 36 51 52
f 36 52 37
f 38 53 54
f 39 54 43
f 43 55 56
f 43 56 57
f 43 57 45
f 43 45 44
f 43 54 55
f 49 58 59
f 49 59 50
f 49 60 58
f 50 59 61
f 50 61 51
f 53 62 63
f 53 63 54
f 54 63 55
f 55 64 56
f 55 63 64
f 56 64 65
f 58 60 66
f 58 66 67
f 58 67 68
f 58 68 69
f 58 69 70
f 58 70 59
f 59 70 61
f 62 71 63
f 63 71 64
f 64 72 73
f 64 73 65
f 64 71 74
f 64 74 75
f 64 75 72
f 66 76 67
f 67 76 77
f 67 77 78
f 67 78 79
f 67 79 68
f 72 80 73
f 72 75 81
f 72 81 85
f 72 85 80
f 73 80 82
f 76 83 77
f 77 83 82
f 77 82 80
f 77 80 85
f 77 85 84
f 77 84 78
