v -0.169157 0.399555 -0.197577
v -0.169157 0.38687 -0.198253
v -0.169157 0.401449 -0.197779
v -0.281562 0.425956 4.23378e-05
v -0.16971 0.399555 -0.196596
v -0.169157 0.380274 -0.199369
v -0.281297 0.38687 4.23378e-05
v -0.281739 0.376503 4.23378e-05
v -0.169157 0.41224 -0.198963
v -0.283045 0.432044 4.23378e-05
v -0.281119 0.399555 4.23378e-05
v -0.169157 0.416789 -0.199943
v -0.169157 0.424924 -0.201701
v -0.177303 0.432247 -0.189733
v -0.169157 0.437998 -0.206773
v -0.169157 0.376503 -0.200011
v -0.318485 0.376503 4.23378e-05
v -0.28444 0.437609 4.23378e-05
v -0.169157 0.443258 -0.209444
v -0.169157 0.376503 -0.262897
v -0.395251 0.529766 4.23378e-05
v -0.395273 0.529766 -0.00634774
v -0.318485 0.376503 -0.00300056
v -0.286565 0.444205 4.23378e-05
v -0.169157 0.450293 -0.213028
v -0.186046 0.376503 -0.233753
v -0.203246 0.532202 -0.34279
v -0.196605 0.530223 -0.344041
v -0.183921 0.528498 -0.345089
v -0.169157 0.528498 -0.345089
v -0.395229 0.534248 4.23378e-05
v -0.395207 0.538375 4.23378e-05
v -0.395207 0.538375 -0.0059082
v -0.393547 0.53369 -0.0132788
v -0.393547 0.532117 -0.0132788
v -0.315341 0.376503 -0.00935682
v -0.288557 0.450344 4.23378e-05
v -0.169157 0.462792 -0.221514
v -0.177325 0.457194 -0.202479
v -0.254158 0.531914 -0.254479
v -0.237224 0.376503 -0.145104
v -0.342635 0.532422 -0.101759
v -0.203246 0.533555 -0.34279
v -0.195631 0.53829 -0.343804
v -0.183921 0.539068 -0.34536
v -0.169157 0.539068 -0.34536
v -0.393813 0.545969 4.23378e-05
v -0.391466 0.542147 -0.00983015
v -0.393813 0.545969 -0.00137768
v -0.380775 0.545647 -0.0258899
v -0.36736 0.544768 -0.050064
v -0.369308 0.536312 -0.0533097
v -0.35596 0.534925 -0.0775514
v -0.305048 0.534485 -0.166032
v -0.254158 0.534028 -0.254479
v -0.342635 0.5332 -0.101759
v -0.309852 0.376503 -0.0192631
v -0.268901 0.376503 -0.0902301
v -0.294002 0.463756 4.23378e-05
v -0.169157 0.475764 -0.232739
v -0.216594 0.535212 -0.318718
v -0.20526 0.53829 -0.335724
v -0.203777 0.546053 -0.331261
v -0.199217 0.542011 -0.339713
v -0.190761 0.54558 -0.342621
v -0.183921 0.545664 -0.342689
v -0.169157 0.545664 -0.342689
v -0.387083 0.547795 4.23378e-05
v -0.387083 0.547795 -0.0059082
v -0.38259 0.54673 -0.0190265
v -0.356425 0.546358 -0.0658194
v -0.343166 0.545986 -0.0900949
v -0.241408 0.545732 -0.267056
v -0.329885 0.545512 -0.11437
v -0.278994 0.545326 -0.202817
v -0.267506 0.535601 -0.230237
v -0.297057 0.469929 4.23378e-05
v -0.169157 0.477692 -0.234734
v -0.176661 0.483375 -0.226721
v -0.300156 0.47617 4.23378e-05
v -0.228016 0.545005 -0.291264
v -0.214557 0.543669 -0.315472
v -0.267927 0.546527 -0.218539
v -0.217036 0.546425 -0.306985
v -0.205924 0.54717 -0.323417
v -0.195631 0.547034 -0.335724
v -0.183921 0.548523 -0.336096
v -0.169157 0.548049 -0.337212
v -0.373271 0.548151 4.23378e-05
v -0.374178 0.548996 -0.0190265
v -0.349342 0.548032 -0.0699442
v -0.336237 0.547778 -0.0946592
v -0.358927 0.547474 -0.0570964
v -0.374023 0.54744 -0.0307585
v -0.345247 0.547085 -0.0824539
v -0.369707 0.546679 -0.0416115
v -0.318817 0.546611 -0.130092
v -0.169157 0.488415 -0.245891
v -0.307727 0.488567 4.23378e-05
v -0.256925 0.547288 -0.234632
v -0.219626 0.547542 -0.29806
v -0.209909 0.548066 -0.311043
v -0.196605 0.549267 -0.323417
v -0.169157 0.548523 -0.336096
v -0.361494 0.548878 -0.031739
v -0.361671 0.542197 4.23378e-05
v -0.169157 0.548269 -0.32504
v -0.348811 0.549115 -0.0570964
v -0.336127 0.549165 -0.0824539
v -0.323443 0.548912 -0.107845
v -0.298496 0.547981 -0.158526
v -0.247672 0.547914 -0.247108
v -0.270671 0.547626 -0.209275
v -0.307904 0.547389 -0.145881
v -0.169157 0.501505 -0.261342
v -0.314345 0.498326 4.23378e-05
v -0.234657 0.549047 -0.260023
v -0.351423 0.535348 4.23378e-05
v -0.169157 0.544869 -0.319732
v -0.34507 0.530511 4.23378e-05
v -0.338097 0.524168 4.23378e-05
v -0.331766 0.518063 4.23378e-05
v -0.325546 0.51172 4.23378e-05
v -0.169157 0.513023 -0.27632
v -0.319215 0.504668 4.23378e-05
v -0.169157 0.534096 -0.30445
v -0.169157 0.544193 -0.318684
f 1 2 6
f 1 6 16
f 1 16 20
f 1 20 30
f 1 30 46
f 1 46 67
f 1 67 88
f 1 88 104
f 1 104 107
f 1 107 119
f 1 119 127
f 1 127 126
f 1 126 124
f 1 124 115
f 1 115 98
f 1 98 78
f 1 78 60
f 1 60 38
f 1 38 25
f 1 25 19
f 1 19 15
f 1 15 13
f 1 13 12
f 1 12 9
f 1 9 3
f 1 3 4
f 1 4 5
f 1 5 2
f 2 5 7
f 2 7 8
f 2 8 6
f 3 9 4
f 4 10 18
f 4 18 24
f 4 24 37
f 4 37 59
f 4 59 77
f 4 77 80
f 4 80 99
f 4 99 116
f 4 116 125
f 4 125 123
f 4 123 122
f 4 122 121
f 4 121 120
f 4 120 118
f 4 118 106
f 4 106 89
f 4 89 68
f 4 68 47
f 4 47 32
f 4 32 31
f 4 31 21
f 4 21 17
f 4 17 8
f 4 8 7
f 4 7 11
f 4 11 5
f 4 9 12
f 4 12 13
f 4 13 14
f 4 14 15
f 4 15 10
f 5 11 7
f 6 8 16
f 8 17 23
f 8 23 36
f 8 36 57
f 8 57 58
f 8 58 41
f 8 41 26
f 8 26 20
f 8 20 16
f 10 15 18
f 13 15 14
f 15 19 18
f 17 21 22
f 17 22 23
f 18 19 25
f 18 25 24
f 20 26 27
f 20 27 28
f 20 28 29
f 20 29 30
f 21 31 22
f 22 31 32
f 22 32 33
f 22 33 34
f 22 34 35
f 22 35 23
f 23 35 36
f 24 25 37
f 25 38 39
f 25 39 37
f 26 40 27
f 26 41 42
f 26 42 40
f 27 43 28
f 27 40 42
f 27 42 56
f 27 56 43
f 28 43 44
f 28 44 45
f 28 45 29
f 29 45 46
f 29 46 30
f 32 47 49
f 32 49 33
f 33 48 34
f 33 49 48
f 34 48 50
f 34 50 51
f 34 51 52
f 34 52 53
f 34 53 54
f 34 54 55
f 34 55 56
f 34 56 42
f 34 42 35
f 35 57 36
f 35 42 58
f 35 58 57
f 37 39 59
f 38 60 59
f 38 59 39
f 41 58 42
f 43 61 62
f 43 62 63
f 43 63 64
f 43 64 65
f 43 65 44
f 43 56 55
f 43 55 61
f 44 65 45
f 45 65 66
f 45 66 67
f 45 67 46
f 47 68 69
f 47 69 49
f 48 49 50
f 49 69 70
f 49 70 50
f 50 70 71
f 50 71 72
f 50 72 73
f 50 73 74
f 50 74 51
f 51 74 75
f 51 75 53
f 51 53 52
f 53 75 76
f 53 76 61
f 53 61 54
f 54 61 55
f 59 60 77
f 60 78 79
f 60 79 80
f 60 80 77
f 61 81 82
f 61 82 62
f 61 76 75
f 61 75 81
f 62 82 63
f 63 83 84
f 63 84 85
f 63 85 86
f 63 86 65
f 63 65 64
f 63 82 81
f 63 81 73
f 63 73 72
f 63 72 83
f 65 86 87
f 65 87 66
f 66 87 88
f 66 88 67
f 68 89 90
f 68 90 69
f 69 90 91
f 69 91 92
f 69 92 93
f 69 93 94
f 69 94 70
f 70 94 93
f 70 93 95
f 70 95 96
f 70 96 71
f 71 97 72
f 71 96 97
f 72 97 83
f 73 81 75
f 73 75 74
f 78 98 79
f 79 98 99
f 79 99 80
f 83 85 84
f 83 97 85
f 85 100 101
f 85 101 102
f 85 102 103
f 85 103 86
f 85 97 100
f 86 103 87
f 87 103 104
f 87 104 88
f 89 105 90
f 89 106 107
f 89 107 105
f 90 105 108
f 90 108 109
f 90 109 103
f 90 103 110
f 90 110 91
f 91 110 111
f 91 111 92
f 92 111 112
f 92 112 113
f 92 113 93
f 93 113 114
f 93 114 95
f 95 97 96
f 95 114 100
f 95 100 97
f 98 115 99
f 99 115 116
f 100 114 113
f 100 113 101
f 101 113 112
f 101 112 102
f 102 112 110
f 102 110 117
f 102 117 103
f 103 117 110
f 103 109 108
f 103 108 104
f 104 108 107
f 105 107 108
f 106 118 107
f 107 118 120
f 107 120 121
f 107 121 122
f 107 122 123
f 107 123 119
f 110 112 111
f 115 124 116
f 116 124 126
f 116 126 125
f 119 123 127
f 123 125 127
f 125 126 127
