v 0.290968 -0.080439 0.552608
v 0.290968 -0.082459 0.55278
v 0.290968 -0.080439 0.520758
v -0.00010179 -0.080439 0.552608
v 0.290968 -0.102251 0.554407
v -0.00010179 -0.082459 0.55278
v 0.290968 -0.288866 0.479466
v -0.00010179 -0.080439 0.521258
v 0.290968 -0.107821 0.554862
v -0.00010179 -0.0889067 0.55331
v -0.00010179 -0.107821 0.554862
v 0.290968 -0.288866 0.525356
v -0.00010179 -0.288866 0.491797
v 0.290968 -0.114942 0.55534
v -0.00010179 -0.114269 0.555295
v 0.290968 -0.280562 0.529029
v 0.285383 -0.288866 0.525849
v -0.00010179 -0.288866 0.525849
v 0.290968 -0.120513 0.555713
v -0.00010179 -0.120513 0.555713
v 0.290968 -0.27442 0.531298
v 0.285383 -0.274441 0.531432
v 0.285383 -0.285377 0.527371
v -0.00010179 -0.285377 0.527371
v 0.290968 -0.127613 0.555609
v -0.00010179 -0.12696 0.555624
v 0.290968 -0.271645 0.532208
v -0.00010179 -0.274441 0.531432
v -0.00010179 -0.279991 0.529372
v 0.290968 -0.133183 0.555527
v -0.00010179 -0.133183 0.555527
v 0.290968 -0.268075 0.533194
v 0.285383 -0.268095 0.533194
v -0.00010179 -0.268095 0.533194
v 0.290968 -0.140304 0.554944
v -0.00010179 -0.158566 0.553444
v 0.290968 -0.264545 0.534097
v 0.290968 -0.260015 0.535254
v -0.00010179 -0.264116 0.534209
v 0.290968 -0.158566 0.553444
v -0.00010179 -0.165014 0.552914
v 0.290968 -0.234653 0.541643
v -0.00010179 -0.253771 0.536829
v -0.00010179 -0.260015 0.535254
v 0.290968 -0.178358 0.551817
v -0.00010179 -0.177685 0.551869
v 0.290968 -0.217636 0.54592
v -0.00010179 -0.234653 0.541643
v 0.290968 -0.183928 0.551354
v -0.00010179 -0.183928 0.551354
v 0.290968 -0.213963 0.546838
v -0.00010179 -0.217636 0.54592
v 0.290968 -0.196599 0.550212
v -0.00010179 -0.196599 0.550212
v 0.290968 -0.20927 0.54801
v -0.00010179 -0.20927 0.54801
v -0.00010179 -0.213514 0.54695
v 0.290968 -0.2037 0.548981
v -0.00010179 -0.203047 0.549092
f 1 2 5
f 1 5 9
f 1 9 14
f 1 14 19
f 1 19 25
f 1 25 30
f 1 30 35
f 1 35 40
f 1 40 45
f 1 45 49
f 1 49 53
f 1 53 58
f 1 58 55
f 1 55 51
f 1 51 47
f 1 47 42
f 1 42 38
f 1 38 37
f 1 37 32
f 1 32 27
f 1 27 21
f 1 21 16
f 1 16 12
f 1 12 7
f 1 7 3
f 1 3 8
f 1 8 4
f 1 4 6
f 1 6 2
f 2 6 5
f 3 7 8
f 4 8 13
f 4 13 18
f 4 18 24
f 4 24 29
f 4 29 28
f 4 28 34
f 4 34 39
f 4 39 44
f 4 44 43
f 4 43 48
f 4 48 52
f 4 52 57
f 4 57 56
f 4 56 59
f 4 59 54
f 4 54 50
f 4 50 46
f 4 46 41
f 4 41 36
f 4 36 31
f 4 31 26
f 4 26 20
f 4 20 15
f 4 15 11
f 4 11 10
f 4 10 6
f 5 6 10
f 5 10 11
f 5 11 9
f 7 12 17
f 7 17 18
f 7 18 13
f 7 13 8
f 9 11 15
f 9 15 14
f 12 16 17
f 14 15 19
f 15 20 19
f 16 21 22
f 16 22 23
f 16 23 17
f 17 23 24
f 17 24 18
f 19 20 26
f 19 26 25
f 21 27 22
f 22 27 28
f 22 28 29
f 22 29 23
f 23 29 24
f 25 26 30
f 26 31 30
f 27 32 33
f 27 33 34
f 27 34 28
f 30 31 35
f 31 36 35
f 32 37 33
f 33 37 38
f 33 38 39
f 33 39 34
f 35 36 40
f 36 41 40
f 38 42 43
f 38 43 44
f 38 44 39
f 40 41 45
f 41 46 45
f 42 47 52
f 42 52 48
f 42 48 43
f 45 46 50
f 45 50 49
f 47 51 52
f 49 50 54
f 49 54 53
f 51 55 56
f 51 56 57
f 51 57 52
f 53 54 58
f 54 59 58
f 55 58 56
f 56 58 59
