v -0.000118319 0.548516 0.336124
v -0.000118319 0.545648 0.342704
v -0.000118319 0.548275 0.325049
v -0.169117 0.548275 0.325034
v -0.169117 0.548516 0.336124
v -0.169117 0.546129 0.341613
v -0.000118319 0.539073 0.345346
v -0.169117 0.545648 0.342704
v -0.000118319 0.546257 0.321931
v -0.169117 0.544199 0.3187
v -0.000118319 0.52851 0.34511
v -0.169117 0.539073 0.345346
v -0.000118319 0.544175 0.318715
v -0.169117 0.533259 0.303396
v -0.000118319 0.525282 0.342678
v -0.169117 0.52851 0.34511
v -0.000118319 0.541107 0.314803
v -0.169117 0.526764 0.296043
v -0.000118319 0.537936 0.310764
v -0.000118319 0.535429 0.307589
v -0.000118319 0.532834 0.304307
v -0.000118319 0.522167 0.340323
v -0.169117 0.523216 0.341116
v -0.169117 0.524097 0.293037
v -0.000118319 0.526387 0.298291
v -0.000118319 0.466697 0.293037
v -0.169117 0.522167 0.340323
v -0.169117 0.471871 0.293037
v -0.000118319 0.520741 0.293037
v -0.145854 0.466697 0.293037
v -0.167033 0.469444 0.293037
v -0.165378 0.468475 0.293037
v -0.158545 0.466938 0.293037
f 1 2 7
f 1 7 11
f 1 11 15
f 1 15 22
f 1 22 26
f 1 26 29
f 1 29 25
f 1 25 21
f 1 21 20
f 1 20 19
f 1 19 17
f 1 17 13
f 1 13 9
f 1 9 3
f 1 3 4
f 1 4 5
f 1 5 6
f 1 6 2
f 2 6 8
f 2 8 12
f 2 12 7
f 3 9 10
f 3 10 4
f 4 10 14
f 4 14 18
f 4 18 24
f 4 24 28
f 4 28 27
f 4 27 23
f 4 23 16
f 4 16 12
f 4 12 8
f 4 8 6
f 4 6 5
f 7 12 16
f 7 16 11
f 9 13 10
f 10 13 14
f 11 16 15
f 13 17 14
f 14 17 19
f 14 19 20
f 14 20 21
f 14 21 18
f 15 16 23
f 15 23 22
f 18 21 24
f 21 25 24
f 22 23 27
f 22 27 30
f 22 30 26
f 24 25 29
f 24 29 26
f 24 26 30
f 24 30 33
f 24 33 32
f 24 32 31
f 24 31 28
f 27 28 31
f 27 31 32
f 27 32 33
f 27 33 30
