v 0.272039 0.114976 0.433745
v 0.272039 0.170147 0.433745
v 0.204595 0.143279 0.433745
v 0.272039 0.218909 0.246148
v 0.265107 0.176597 0.433745
v 0.272039 0.174186 0.42651
v 0.266157 0.17737 0.430881
v 0.204595 0.190739 0.433745
v 0.204595 0.218909 0.356014
v 0.272039 0.218909 0.34395
v 0.26273 0.178734 0.433745
v 0.260921 0.184767 0.426474
v 0.255686 0.192163 0.422048
v 0.272039 0.174837 0.425335
v 0.204595 0.211503 0.414813
v 0.23466 0.190739 0.433745
v 0.204595 0.218909 0.407762
v 0.270078 0.218909 0.347622
v 0.26982 0.218584 0.348798
v 0.272039 0.21659 0.348798
v 0.258591 0.182254 0.433745
v 0.252504 0.189843 0.430495
v 0.259957 0.194065 0.411195
v 0.253679 0.202937 0.405889
v 0.248444 0.210333 0.401463
v 0.240568 0.21541 0.405503
v 0.272039 0.183007 0.410443
v 0.221978 0.211503 0.414813
v 0.204595 0.218258 0.408459
v 0.241974 0.189904 0.433745
v 0.23466 0.198206 0.426914
v 0.209289 0.218909 0.407762
v 0.267972 0.218909 0.351295
v 0.267444 0.21661 0.357024
v 0.243209 0.217566 0.397037
v 0.272039 0.21016 0.360899
v 0.25018 0.187758 0.433745
v 0.242602 0.20427 0.419881
v 0.272039 0.195948 0.386846
v 0.262499 0.211951 0.374175
v 0.251666 0.213711 0.389711
v 0.254108 0.21602 0.381264
v 0.240548 0.218909 0.397956
v 0.237472 0.218909 0.402363
v 0.233135 0.218909 0.404879
v 0.221978 0.218258 0.408459
v 0.23466 0.205043 0.420561
v 0.245295 0.189518 0.433745
v 0.244054 0.191329 0.432221
v 0.221978 0.218909 0.407725
v 0.24647 0.218909 0.38848
v 0.265008 0.214331 0.365471
v 0.272039 0.209428 0.362258
v 0.232118 0.217373 0.407596
f 1 2 5
f 1 5 11
f 1 11 21
f 1 21 37
f 1 37 48
f 1 48 30
f 1 30 16
f 1 16 8
f 1 8 3
f 1 3 4
f 1 4 10
f 1 10 20
f 1 20 36
f 1 36 53
f 1 53 39
f 1 39 27
f 1 27 14
f 1 14 6
f 1 6 2
f 2 6 7
f 2 7 5
f 3 8 15
f 3 15 29
f 3 29 17
f 3 17 9
f 3 9 4
f 4 9 17
f 4 17 32
f 4 32 50
f 4 50 45
f 4 45 44
f 4 44 43
f 4 43 51
f 4 51 33
f 4 33 18
f 4 18 10
f 5 7 12
f 5 12 13
f 5 13 11
f 6 14 7
f 7 14 12
f 8 16 28
f 8 28 15
f 10 18 19
f 10 19 20
f 11 13 22
f 11 22 21
f 12 14 23
f 12 23 24
f 12 24 25
f 12 25 13
f 13 25 26
f 13 26 22
f 14 27 23
f 15 28 46
f 15 46 29
f 16 30 31
f 16 31 28
f 17 29 46
f 17 46 32
f 18 33 19
f 19 34 20
f 19 33 35
f 19 35 34
f 20 34 36
f 21 22 37
f 22 26 38
f 22 38 37
f 23 27 39
f 23 39 24
f 24 39 40
f 24 40 25
f 25 41 35
f 25 35 26
f 25 40 42
f 25 42 41
f 26 35 43
f 26 43 44
f 26 44 45
f 26 45 38
f 28 31 47
f 28 47 46
f 30 48 49
f 30 49 31
f 31 49 47
f 32 46 50
f 33 51 35
f 34 42 52
f 34 52 53
f 34 53 36
f 34 35 42
f 35 51 43
f 35 41 42
f 37 38 48
f 38 47 49
f 38 49 48
f 38 45 54
f 38 54 47
f 39 53 40
f 40 53 52
f 40 52 42
f 45 50 54
f 46 54 50
f 46 47 54
