v -0.299198 -0.120517 0.555702
v -0.310768 -0.120517 0.555484
v -0.299198 -0.133199 0.555484
v -0.299198 -0.107834 0.554831
v -0.310768 -0.133199 0.555267
v -0.310768 -0.107834 0.554559
v -0.320255 -0.0824698 0.548575
v -0.321479 -0.107834 0.549826
v -0.321974 -0.120517 0.550316
v -0.321842 -0.133199 0.550207
v -0.299198 -0.145881 0.554451
v -0.299198 -0.0835772 0.552818
v -0.321247 -0.145881 0.549609
v -0.319429 -0.183929 0.547704
v -0.318768 -0.196611 0.547052
v -0.310768 -0.183929 0.550697
v -0.299198 -0.183929 0.551295
v -0.299198 -0.0804659 0.552546
v -0.308785 -0.0804659 0.552166
v -0.310768 -0.0804659 0.552057
v -0.320156 -0.0804659 0.548466
v -0.327826 -0.107834 0.541938
v -0.328288 -0.120517 0.542808
v -0.328189 -0.133199 0.54259
v -0.317975 -0.205734 0.546235
v -0.310768 -0.196611 0.549445
v -0.325446 -0.183929 0.539054
v -0.324123 -0.196611 0.539054
v -0.299198 -0.196611 0.550098
v -0.299198 -0.0804659 0.516313
v -0.325512 -0.0804659 0.541122
v -0.326603 -0.0824698 0.53987
v -0.326603 -0.0804659 0.539544
v -0.340189 -0.0804659 0.516041
v -0.336817 -0.107834 0.526378
v -0.355363 -0.112264 0.494987
v -0.331859 -0.133199 0.53628
v -0.341974 -0.120517 0.519142
v -0.444089 -0.124683 0.342656
v -0.444089 -0.128242 0.342656
v -0.326999 -0.158564 0.540523
v -0.310669 -0.209689 0.546943
v -0.342239 -0.200698 0.506901
v -0.327528 -0.209293 0.528772
v -0.320884 -0.209689 0.53987
v -0.316652 -0.239747 0.532091
v -0.30852 -0.272098 0.526868
v -0.304917 -0.267458 0.533015
v -0.299198 -0.210348 0.547704
v -0.380288 -0.187488 0.443466
v -0.342702 -0.19226 0.507717
v -0.327065 -0.172274 0.538184
v -0.584419 -0.183929 0.0904934
v -0.332454 -0.196611 0.524637
v -0.299198 -0.349801 0.405329
v -0.528948 -0.349801 -8.9174e-05
v -0.598865 -0.0804659 -8.9174e-05
v -0.369809 -0.0804659 0.464738
v -0.453478 -0.0956003 0.322309
v -0.369313 -0.120517 0.471811
v -0.596551 -0.109944 0.076838
v -0.545642 -0.111789 0.165299
v -0.4947 -0.113635 0.253814
v -0.634104 -0.115454 0.0125869
v -0.365544 -0.133199 0.477959
v -0.58346 -0.126818 0.101483
v -0.58346 -0.126898 0.101483
v -0.306371 -0.216966 0.545746
v -0.366139 -0.196611 0.466316
v -0.393147 -0.20228 0.418441
v -0.355561 -0.204336 0.482637
v -0.320851 -0.260497 0.514572
v -0.316751 -0.265059 0.51936
v -0.320884 -0.235159 0.527248
v -0.368916 -0.206604 0.458428
v -0.351495 -0.208871 0.487479
v -0.315528 -0.272705 0.517293
v -0.30657 -0.285387 0.52257
v -0.304818 -0.292427 0.520448
v -0.299198 -0.294457 0.521318
v -0.299198 -0.286547 0.525236
v -0.299198 -0.275843 0.529969
v -0.299198 -0.274155 0.530676
v -0.299198 -0.267959 0.533124
v -0.299198 -0.261235 0.534865
v -0.482072 -0.191074 0.266545
v -0.621476 -0.189808 0.0253175
v -0.610501 -0.133199 0.053662
v -0.299198 -0.349801 0.47872
v -0.572551 -0.349801 -8.9174e-05
v -0.635592 -0.0804659 -8.9174e-05
v -0.585146 -0.0804659 0.0917447
v -0.593278 -0.120517 0.0838561
v -0.634369 -0.123918 0.0130222
v -0.617807 -0.0804659 0.0351646
v -0.620121 -0.107834 0.0356542
v -0.629674 -0.107834 0.019061
v -0.633774 -0.107834 0.0119341
v -0.636914 -0.107834 0.00562323
v -0.636848 -0.120016 0.00752738
v -0.634369 -0.128717 0.0130222
v -0.580055 -0.131934 0.106597
v -0.570105 -0.196611 0.113017
v -0.532518 -0.20112 0.177268
v -0.444056 -0.203282 0.329925
v -0.583427 -0.202675 0.0887525
v -0.36766 -0.265639 0.430899
v -0.465213 -0.246391 0.271659
v -0.4668 -0.260023 0.262029
v -0.507031 -0.265217 0.189726
v -0.330074 -0.267247 0.49515
v -0.494932 -0.203888 0.241519
v -0.387495 -0.209293 0.424915
v -0.317809 -0.28043 0.508534
v -0.312917 -0.284965 0.513158
v -0.342073 -0.277767 0.468547
v -0.299198 -0.323355 0.502168
v -0.299198 -0.30975 0.511254
v -0.306735 -0.297226 0.513104
v -0.305115 -0.305769 0.508479
v -0.301313 -0.336407 0.488404
v -0.299198 -0.335985 0.491995
v -0.299198 -0.325517 0.500699
v -0.621873 -0.181345 0.0260247
v -0.628055 -0.158564 0.019061
v -0.624848 -0.18493 0.0202579
v -0.624749 -0.196611 0.0183538
v -0.624154 -0.133199 0.0299962
v -0.299198 -0.348931 0.479754
v -0.301545 -0.349801 0.474749
v -0.572551 -0.349801 0.00426313
v -0.584187 -0.331212 -8.9174e-05
v -0.635658 -0.0814415 -8.9174e-05
v -0.635592 -0.0804659 0.00306626
v -0.627096 -0.0804659 0.019061
v -0.628484 -0.0951521 0.019061
v -0.633179 -0.0951521 0.010846
v -0.636782 -0.133041 0.00741856
v -0.635691 -0.0824698 0.00328386
v -0.636583 -0.100874 -8.9174e-05
v -0.636914 -0.107834 -8.9174e-05
v -0.636782 -0.133067 -8.9174e-05
v -0.633972 -0.13718 0.0123149
v -0.596749 -0.205101 0.0645427
v -0.608848 -0.266403 0.0127502
v -0.504618 -0.209952 0.221716
v -0.557973 -0.215173 0.126672
v -0.619823 -0.209293 0.0224885
v -0.568782 -0.260023 0.0853795
v -0.394338 -0.269831 0.382425
v -0.454866 -0.272705 0.276011
v -0.343429 -0.269304 0.470886
v -0.466866 -0.209293 0.287436
v -0.355396 -0.279481 0.444282
v -0.331165 -0.281749 0.484324
v -0.305446 -0.319057 0.496401
v -0.457213 -0.280193 0.267415
v -0.466072 -0.285572 0.247394
v -0.466634 -0.29865 0.235045
v -0.443891 -0.278796 0.291571
v -0.569906 -0.276396 0.0746619
v -0.53232 -0.277899 0.138913
v -0.303628 -0.340836 0.48057
v -0.299198 -0.340309 0.488186
v -0.632947 -0.158564 0.0104108
v -0.632352 -0.171246 0.00921389
v -0.631757 -0.183929 0.00790821
v -0.631592 -0.196769 0.00546002
v -0.62346 -0.209293 0.0161232
v -0.306074 -0.345108 0.472083
v -0.339098 -0.349801 0.409736
v -0.571328 -0.349801 0.00676573
v -0.573014 -0.348245 0.00535121
v -0.584187 -0.331212 0.00159734
v -0.609575 -0.280589 -8.9174e-05
v -0.635096 -0.0804659 0.00409992
v -0.632484 -0.0804659 0.00943152
v -0.636683 -0.145881 0.005188
v -0.636088 -0.158564 0.00404553
v -0.636683 -0.145881 -8.9174e-05
v -0.622203 -0.218021 0.0139471
v -0.62098 -0.226484 0.0117709
v -0.622931 -0.234632 0.00306626
v -0.62184 -0.242146 0.000781283
v -0.61384 -0.260023 0.0063849
v -0.610534 -0.271466 0.00611288
v -0.607493 -0.274867 0.0101388
v -0.604286 -0.271466 0.0178097
v -0.594171 -0.272705 0.034675
v -0.494766 -0.279217 0.203164
v -0.443031 -0.340573 0.239397
v -0.596584 -0.279929 0.0261879
v -0.596914 -0.293245 0.0140559
v -0.461048 -0.323988 0.222641
v -0.583229 -0.278426 0.0503977
v -0.367858 -0.342471 0.367845
v -0.31695 -0.342128 0.456306
v -0.456354 -0.341891 0.215133
v -0.635459 -0.171246 0.00284863
v -0.634864 -0.183929 0.00154295
v -0.634435 -0.192656 0.000618075
v -0.628584 -0.209293 0.0063849
v -0.330305 -0.343288 0.432096
v -0.432122 -0.343868 0.255174
v -0.432453 -0.349801 0.248102
v -0.565444 -0.349801 0.0175921
v -0.571493 -0.343657 0.0139471
v -0.579658 -0.335721 0.00605846
v -0.582072 -0.32702 0.01003
v -0.609575 -0.280589 0.00170616
v -0.62184 -0.242146 -8.9174e-05
v -0.636088 -0.158564 -8.9174e-05
v -0.635724 -0.166184 -8.9174e-05
v -0.556121 -0.336117 0.0473511
v -0.544816 -0.341284 0.062421
v -0.5986 -0.284649 0.0185714
v -0.605113 -0.285045 0.00611288
v -0.594766 -0.301682 0.0100844
v -0.584187 -0.318556 0.0140014
v -0.573146 -0.335326 0.018517
v -0.507229 -0.342234 0.126672
v -0.634864 -0.183929 -8.9174e-05
v -0.634435 -0.192656 -8.9174e-05
v -0.54951 -0.349801 0.0452837
v -0.564055 -0.349801 0.0200403
v -0.558138 -0.34255 0.0381568
v -0.569047 -0.339017 0.0223797
v -0.562964 -0.349801 0.0219444
f 1 2 5
f 1 5 3
f 1 3 11
f 1 11 17
f 1 17 29
f 1 29 49
f 1 49 85
f 1 85 84
f 1 84 83
f 1 83 82
f 1 82 81
f 1 81 80
f 1 80 118
f 1 118 117
f 1 117 123
f 1 123 122
f 1 122 164
f 1 164 129
f 1 129 89
f 1 89 55
f 1 55 30
f 1 30 18
f 1 18 12
f 1 12 4
f 1 4 2
f 2 4 6
f 2 6 7
f 2 7 8
f 2 8 9
f 2 9 10
f 2 10 5
f 3 5 11
f 4 12 6
f 5 10 13
f 5 13 14
f 5 14 15
f 5 15 16
f 5 16 17
f 5 17 11
f 6 12 18
f 6 18 19
f 6 19 20
f 6 20 21
f 6 21 7
f 7 21 22
f 7 22 23
f 7 23 8
f 8 23 9
f 9 23 10
f 10 23 24
f 10 24 13
f 13 24 14
f 14 24 15
f 15 25 26
f 15 26 16
f 15 24 27
f 15 27 28
f 15 28 25
f 16 26 29
f 16 29 17
f 18 30 57
f 18 57 91
f 18 91 134
f 18 134 176
f 18 176 177
f 18 177 135
f 18 135 95
f 18 95 92
f 18 92 58
f 18 58 34
f 18 34 33
f 18 33 31
f 18 31 21
f 18 21 20
f 18 20 19
f 21 31 22
f 22 31 32
f 22 32 33
f 22 33 34
f 22 34 35
f 22 35 36
f 22 36 23
f 23 37 24
f 23 36 38
f 23 38 39
f 23 39 40
f 23 40 37
f 24 37 41
f 24 41 27
f 25 42 26
f 25 28 43
f 25 43 44
f 25 44 45
f 25 45 46
f 25 46 47
f 25 47 48
f 25 48 42
f 26 42 49
f 26 49 29
f 27 50 51
f 27 51 28
f 27 41 52
f 27 52 53
f 27 53 50
f 28 51 54
f 28 54 43
f 30 55 56
f 30 56 57
f 31 33 32
f 34 58 59
f 34 59 36
f 34 36 35
f 36 60 38
f 36 59 61
f 36 61 62
f 36 62 63
f 36 63 64
f 36 64 60
f 37 65 52
f 37 52 41
f 37 40 65
f 38 60 39
f 39 60 66
f 39 66 67
f 39 67 40
f 40 67 65
f 42 68 49
f 42 48 68
f 43 54 69
f 43 69 70
f 43 70 71
f 43 71 44
f 44 72 73
f 44 73 74
f 44 74 45
f 44 71 75
f 44 75 76
f 44 76 72
f 45 74 46
f 46 74 73
f 46 73 77
f 46 77 47
f 47 78 48
f 47 77 78
f 48 78 79
f 48 79 80
f 48 80 81
f 48 81 82
f 48 82 83
f 48 83 84
f 48 84 85
f 48 85 68
f 49 68 85
f 50 86 51
f 50 53 87
f 50 87 86
f 51 69 54
f 51 86 69
f 52 65 88
f 52 88 53
f 53 88 87
f 55 89 130
f 55 130 171
f 55 171 205
f 55 205 224
f 55 224 228
f 55 228 225
f 55 225 206
f 55 206 172
f 55 172 131
f 55 131 90
f 55 90 56
f 56 90 132
f 56 132 175
f 56 175 211
f 56 211 223
f 56 223 222
f 56 222 213
f 56 213 212
f 56 212 180
f 56 180 142
f 56 142 141
f 56 141 140
f 56 140 133
f 56 133 91
f 56 91 57
f 58 92 59
f 59 92 61
f 60 64 93
f 60 93 94
f 60 94 66
f 61 92 95
f 61 95 96
f 61 96 64
f 61 64 62
f 62 64 63
f 64 96 97
f 64 97 98
f 64 98 99
f 64 99 100
f 64 100 94
f 64 94 93
f 65 67 101
f 65 101 102
f 65 102 88
f 66 94 101
f 66 101 67
f 69 86 87
f 69 87 103
f 69 103 104
f 69 104 70
f 70 105 71
f 70 104 106
f 70 106 105
f 71 105 75
f 72 107 73
f 72 76 108
f 72 108 109
f 72 109 110
f 72 110 107
f 73 111 77
f 73 107 111
f 75 105 112
f 75 112 76
f 76 113 108
f 76 112 113
f 77 114 115
f 77 115 78
f 77 111 116
f 77 116 114
f 78 115 79
f 79 117 118
f 79 118 80
f 79 115 119
f 79 119 120
f 79 120 121
f 79 121 122
f 79 122 123
f 79 123 117
f 87 88 124
f 87 124 125
f 87 125 126
f 87 126 127
f 87 127 103
f 88 102 101
f 88 101 128
f 88 128 125
f 88 125 124
f 89 129 130
f 90 131 174
f 90 174 132
f 91 133 134
f 94 100 101
f 95 135 96
f 96 135 136
f 96 136 97
f 97 136 98
f 98 137 99
f 98 136 135
f 98 135 137
f 99 138 100
f 99 137 139
f 99 139 133
f 99 133 140
f 99 140 141
f 99 141 142
f 99 142 138
f 100 138 101
f 101 138 143
f 101 143 125
f 101 125 128
f 103 127 104
f 104 127 106
f 105 106 112
f 106 127 144
f 106 144 112
f 107 110 145
f 107 145 111
f 108 113 146
f 108 146 147
f 108 147 148
f 108 148 149
f 108 149 110
f 108 110 109
f 110 149 145
f 111 150 151
f 111 151 152
f 111 152 116
f 111 145 150
f 112 144 148
f 112 148 146
f 112 146 153
f 112 153 113
f 113 153 146
f 114 116 154
f 114 154 155
f 114 155 115
f 115 156 120
f 115 120 119
f 115 155 157
f 115 157 158
f 115 158 159
f 115 159 156
f 116 160 154
f 116 152 151
f 116 151 161
f 116 161 162
f 116 162 160
f 120 156 121
f 121 156 163
f 121 163 164
f 121 164 122
f 125 143 126
f 126 143 165
f 126 165 127
f 127 165 166
f 127 166 167
f 127 167 168
f 127 168 169
f 127 169 144
f 129 163 170
f 129 170 130
f 129 164 163
f 130 170 171
f 131 172 173
f 131 173 174
f 132 174 210
f 132 210 175
f 133 139 134
f 134 139 176
f 135 177 137
f 137 177 139
f 138 142 178
f 138 178 179
f 138 179 165
f 138 165 143
f 139 177 176
f 142 180 178
f 144 169 148
f 145 149 148
f 145 148 181
f 145 181 182
f 145 182 183
f 145 183 184
f 145 184 185
f 145 185 186
f 145 186 187
f 145 187 188
f 145 188 189
f 145 189 161
f 145 161 151
f 145 151 150
f 146 148 147
f 148 169 181
f 154 160 190
f 154 190 157
f 154 157 155
f 156 159 191
f 156 191 163
f 157 190 192
f 157 192 193
f 157 193 158
f 158 193 159
f 159 193 194
f 159 194 191
f 160 162 195
f 160 195 190
f 161 189 195
f 161 195 162
f 163 196 197
f 163 197 170
f 163 191 198
f 163 198 196
f 165 179 166
f 166 179 199
f 166 199 200
f 166 200 167
f 167 200 201
f 167 201 168
f 168 201 202
f 168 202 169
f 169 202 181
f 170 197 203
f 170 203 204
f 170 204 205
f 170 205 171
f 172 206 207
f 172 207 173
f 173 207 208
f 173 208 174
f 174 208 209
f 174 209 210
f 175 210 184
f 175 184 211
f 178 180 212
f 178 212 179
f 179 200 199
f 179 212 213
f 179 213 200
f 181 202 182
f 182 202 183
f 183 202 184
f 184 210 186
f 184 186 185
f 184 202 201
f 184 201 223
f 184 223 211
f 186 210 187
f 187 210 192
f 187 192 188
f 188 192 195
f 188 195 189
f 190 195 192
f 191 194 193
f 191 193 214
f 191 214 215
f 191 215 198
f 192 210 216
f 192 216 193
f 193 216 217
f 193 217 218
f 193 218 209
f 193 209 219
f 193 219 220
f 193 220 214
f 196 203 197
f 196 198 203
f 198 204 203
f 198 215 221
f 198 221 204
f 200 213 222
f 200 222 223
f 200 223 201
f 204 221 207
f 204 207 205
f 205 207 224
f 206 225 207
f 207 226 227
f 207 227 220
f 207 220 219
f 207 219 209
f 207 209 208
f 207 225 228
f 207 228 224
f 207 221 226
f 209 218 210
f 210 218 217
f 210 217 216
f 214 220 215
f 215 220 227
f 215 227 226
f 215 226 221
