v -9.06959e-05 -0.0544793 -0.658684
v -0.0437204 -0.0992647 -0.651504
v -0.0770471 -0.0501552 -0.653453
v -0.154004 -0.0267843 -0.640733
v 0.140996 -0.0399626 -0.643913
v 0.0752888 -0.0907195 -0.649555
v 0.0353387 -0.162376 -0.637553
v -0.052972 -0.175812 -0.630988
v -0.120887 -0.134218 -0.63304
v -0.15106 -0.0968453 -0.63345
v -0.207726 -0.0749674 -0.616319
v -0.233588 -0.0227691 -0.610575
v 0.196506 -0.019629 -0.625859
v 0.188621 -0.116767 -0.615499
v 0.136055 -0.154346 -0.621961
v 0.0767606 -0.227238 -0.607703
v -0.0205914 -0.250763 -0.602164
v -0.108271 -0.251329 -0.591803
v -0.161888 -0.19141 -0.602677
v -0.240106 -0.128555 -0.592316
v -0.292147 -0.0456766 -0.580417
v -0.369944 -0.0396023 -0.522768
v -0.532898 -0.03569 0.0661306
v -0.336512 -0.011444 0.340629
v 0.534609 -0.0125251 -0.0971732
v 0.45944 -0.017364 -0.37957
v 0.389738 -0.0194745 -0.506971
v 0.321612 -0.0222543 -0.56103
v 0.264421 -0.0329102 -0.596317
v 0.27567 -0.0982867 -0.583187
v 0.225837 -0.178489 -0.584828
v 0.129852 -0.277943 -0.571903
v 0.0380721 -0.338738 -0.547797
v -0.0560208 -0.332201 -0.55108
v -0.140652 -0.31094 -0.547695
v -0.219606 -0.251124 -0.552824
v -0.237163 -0.190792 -0.57498
v -0.311806 -0.112031 -0.554978
v -0.337879 -0.171797 -0.516101
v -0.395701 -0.144256 -0.466043
v -0.423456 -0.0550455 -0.451477
v -0.467401 -0.0486108 -0.353105
v -0.531847 -0.0480446 -0.108662
v -0.537734 -0.0461399 0.00653295
v -0.51429 -0.148374 0.0483847
v -0.512608 -0.113009 0.0993658
v -0.511767 -0.0382124 0.141833
v -0.403691 -0.0410951 0.308727
v -0.37436 -0.139366 0.316523
v -0.326209 -0.0371828 0.343809
v -0.264602 -0.0312114 0.361247
v -0.188382 -0.0336824 0.380942
v 0.258744 -0.0314173 0.36258
v 0.332861 -0.0222543 0.341655
v 0.404036 -0.0125251 0.314164
v 0.457968 -0.011444 0.248206
v 0.521047 -0.0151504 0.11106
v 0.536291 -0.0350722 0.017201
v 0.534504 -0.0774383 -0.0347033
v 0.531771 -0.0807328 -0.0968655
v 0.445142 -0.109715 -0.380903
v 0.427795 -0.0230265 -0.448399
v 0.387635 -0.0972571 -0.498457
v 0.321823 -0.0511332 -0.559491
v 0.331705 -0.119187 -0.53795
v 0.28797 -0.166855 -0.552619
v 0.205337 -0.283709 -0.540001
v 0.24413 -0.230996 -0.550362
v 0.136265 -0.364014 -0.510254
v 0.0238793 -0.396084 -0.49897
v -0.0262685 -0.353101 -0.536616
v -0.13529 -0.359741 -0.511587
v -0.233273 -0.304609 -0.512613
v -0.291411 -0.242887 -0.517024
v -0.297719 -0.284635 -0.482968
v -0.422405 -0.162788 -0.397008
v -0.448688 -0.107192 -0.375877
v -0.349128 -0.262655 -0.435988
v -0.390445 -0.241858 -0.381211
v -0.516077 -0.151926 -0.0860948
v -0.529429 -0.097566 -0.0409606
v -0.502305 -0.201139 0.00653295
v -0.480332 -0.201757 0.122651
v -0.486535 -0.181114 0.128806
v -0.480543 -0.129482 0.189532
v -0.464247 -0.057465 0.235794
v -0.422615 -0.145183 0.264824
v -0.325684 -0.223995 0.319498
v -0.315276 -0.131026 0.339706
v -0.405163 -0.179209 0.270363
v -0.24284 -0.114708 0.360529
v -0.145908 -0.104567 0.384019
v 0.0844352 -0.131438 0.389251
v 0.16791 -0.065547 0.383404
v 0.233091 -0.104515 0.364324
v 0.324346 -0.0906165 0.340526
v 0.326554 -0.0434116 0.343296
v 0.399305 -0.0715183 0.312522
v 0.459756 -0.0792915 0.240103
v 0.494554 -0.0211218 0.192199
v 0.50738 -0.0753792 0.149116
v 0.530614 -0.0714154 0.0665409
v 0.516422 -0.14333 0.0385372
v 0.520732 -0.134836 -0.0772731
v 0.41108 -0.206595 -0.377826
v 0.402143 -0.172157 -0.435475
v 0.480151 -0.237225 -0.102712
v 0.344952 -0.198771 -0.499278
v 0.280085 -0.260441 -0.51446
v 0.26358 -0.312124 -0.488097
v 0.202708 -0.350475 -0.492405
v 0.120285 -0.403291 -0.463991
v 0.0916893 -0.443701 -0.395572
v 0.0155739 -0.450496 -0.398444
v -0.0813575 -0.402159 -0.480506
v -0.167145 -0.41266 -0.416806
v -0.224337 -0.35202 -0.470146
v -0.284787 -0.311146 -0.463478
v -0.323686 -0.323758 -0.384596
v -0.493264 -0.216325 -0.082402
v -0.341559 -0.315213 -0.366235
v -0.380352 -0.287776 -0.331461
v -0.408738 -0.303579 -0.212163
v -0.472132 -0.256889 -0.0330621
v -0.44259 -0.309551 -0.0264971
v -0.459937 -0.261162 0.0822353
v -0.421354 -0.302601 0.131062
v -0.430185 -0.235063 0.204098
v -0.455732 -0.180702 0.204405
v -0.359957 -0.268008 0.263798
v -0.235691 -0.329575 0.314369
v -0.226439 -0.269913 0.336013
v -0.260817 -0.208191 0.341962
v -0.260817 -0.19527 0.344527
v -0.263971 -0.175091 0.346989
v -0.166619 -0.188372 0.365042
v -0.0681109 -0.168965 0.383096
v -0.00650373 -0.175452 0.385148
v 0.047534 -0.195785 0.37848
v 0.117447 -0.237688 0.361555
v 0.165387 -0.202889 0.362478
v 0.214273 -0.169686 0.3594
v 0.275985 -0.183379 0.342373
v 0.328656 -0.160008 0.331192
v 0.39941 -0.157023 0.28575
v 0.464381 -0.162634 0.199482
v 0.475105 -0.215913 0.120087
v 0.4832 -0.234702 0.0179191
v 0.497182 -0.21092 -0.0502951
v 0.382379 -0.303476 -0.291148
v 0.36745 -0.292717 -0.351771
v 0.340221 -0.271612 -0.437116
v 0.461122 -0.276862 -0.0813762
v 0.25559 -0.350166 -0.443476
v 0.293542 -0.33879 -0.406753
v 0.243289 -0.358557 -0.440809
v 0.199975 -0.414153 -0.380083
v 0.128065 -0.447047 -0.365517
v 0.082648 -0.530492 -0.0945062
v 0.00642747 -0.536875 -0.0890695
v -0.0196452 -0.531831 -0.11215
v -0.100492 -0.445606 -0.384699
v -0.17892 -0.505629 -0.0974809
v -0.217608 -0.408748 -0.369928
v -0.19879 -0.389392 -0.431064
v -0.278374 -0.348262 -0.414344
v -0.303185 -0.375751 -0.309612
v -0.428923 -0.316809 -0.117278
v -0.391601 -0.367051 -0.0907108
v -0.428503 -0.329472 -0.0165471
v -0.400012 -0.356755 0.0475641
v -0.395176 -0.328494 0.141012
v -0.327681 -0.352895 0.215279
v -0.290149 -0.356086 0.250668
v -0.195741 -0.386612 0.281544
v -0.115841 -0.388105 0.314266
v -0.131295 -0.323964 0.336731
v -0.280056 -0.368081 0.246052
v -0.178394 -0.271045 0.344424
v -0.0983889 -0.250969 0.360529
v -0.0275301 -0.237379 0.36894
v 0.0320796 -0.263375 0.361555
v 0.117762 -0.337657 0.334269
v 0.174954 -0.264096 0.346989
v 0.203655 -0.263015 0.342373
v 0.252436 -0.219671 0.341552
v 0.265262 -0.206081 0.341449
v 0.276931 -0.278818 0.319703
v 0.361562 -0.264971 0.262977
v 0.429793 -0.246902 0.195686
v 0.414233 -0.311455 0.130857
v 0.458599 -0.274185 0.0635662
v 0.432947 -0.321493 0.0295104
v 0.464276 -0.271457 -0.0583988
v 0.369447 -0.389341 -0.0890695
v 0.316356 -0.42172 -0.145385
v 0.315199 -0.34157 -0.366235
v 0.416862 -0.341724 -0.0833252
v 0.425272 -0.33426 -0.0132646
v 0.27546 -0.382391 -0.347155
v 0.30353 -0.408851 -0.212163
v 0.238348 -0.481589 -0.0947113
v 0.177161 -0.509283 -0.07317
v 0.0860122 -0.532088 -0.0264971
v -0.0575978 -0.536772 -0.0453714
v -0.088086 -0.52972 -0.0993273
v 0.0196741 -0.537339 0.00653295
v -0.200997 -0.501613 -0.0330621
v -0.22276 -0.492759 -0.0396271
v -0.263551 -0.46841 -0.0866077
v -0.349759 -0.410395 -0.0507055
v -0.330309 -0.427177 0.00755872
v -0.345764 -0.400151 0.0920828
v -0.297298 -0.409314 0.167272
v -0.250199 -0.428103 0.197122
v -0.150009 -0.457497 0.215997
v -0.0927118 -0.479375 0.209432
v -0.0584388 -0.437369 0.273748
v 0.0109481 -0.413947 0.303393
v -0.0534976 -0.357528 0.333346
v 0.0370208 -0.326281 0.343809
v 0.202814 -0.337657 0.321344
v 0.275775 -0.343423 0.272004
v 0.339695 -0.363345 0.188096
v 0.387109 -0.324531 0.174863
v 0.397097 -0.35202 0.0807993
v 0.414864 -0.345688 -0.00669959
v 0.339169 -0.419043 -0.00916146
v 0.306158 -0.442054 -0.0868128
v 0.233512 -0.485449 -0.0857871
v 0.215219 -0.494201 0.00961028
v 0.151194 -0.51057 0.0680796
v 0.0767606 -0.532603 0.0386398
v -0.0114449 -0.533221 0.0656178
v -0.0775728 -0.528639 0.0720801
v -0.208462 -0.496105 0.0482821
v -0.264707 -0.463829 0.0629507
v -0.217503 -0.472014 0.126344
v -0.0768369 -0.507688 0.147372
v 0.018833 -0.497444 0.188814
v 0.0426979 -0.462079 0.243898
v 0.0588882 -0.445657 0.263285
v 0.120075 -0.411425 0.287288
v 0.16013 -0.402828 0.284519
v 0.280296 -0.387076 0.224408
v 0.299955 -0.423625 0.128498
v 0.321928 -0.414204 0.110137
v 0.261687 -0.463005 0.067977
v 0.301427 -0.447099 -0.0198295
v 0.241187 -0.481331 -0.0643483
v 0.124385 -0.50012 0.131165
v 0.0580472 -0.520506 0.113316
v 0.184626 -0.470058 0.175273
v -0.160522 -0.504239 0.0847998
v 0.138473 -0.459556 0.219279
v 0.224576 -0.436443 0.204918
f 1 2 3
f 1 3 4
f 1 4 5
f 1 5 6
f 1 6 7
f 1 7 2
f 2 7 8
f 2 8 9
f 2 9 3
f 3 9 10
f 3 10 4
f 4 10 11
f 4 11 12
f 4 12 13
f 4 13 5
f 5 13 14
f 5 14 15
f 5 15 6
f 6 15 7
f 7 15 16
f 7 16 17
f 7 17 8
f 8 17 18
f 8 18 9
f 9 18 19
f 9 19 10
f 10 19 20
f 10 20 11
f 11 20 21
f 11 21 12
f 12 21 22
f 12 22 23
f 12 23 24
f 12 24 13
f 13 25 26
f 13 26 27
f 13 27 28
f 13 28 29
f 13 29 30
f 13 30 14
f 13 24 25
f 14 30 31
f 14 31 15
f 15 32 16
f 15 31 32
f 16 33 17
f 16 32 33
f 17 34 18
f 17 33 34
f 18 35 36
f 18 36 19
f 18 34 35
f 19 36 37
f 19 37 20
f 20 37 38
f 20 38 21
f 21 38 22
f 22 38 39
f 22 39 40
f 22 40 41
f 22 41 42
f 22 42 23
f 23 42 43
f 23 43 44
f 23 44 45
f 23 45 46
f 23 46 47
f 23 47 24
f 24 47 48
f 24 48 49
f 24 49 50
f 24 50 51
f 24 51 52
f 24 52 53
f 24 53 54
f 24 54 55
f 24 55 56
f 24 56 25
f 25 56 57
f 25 57 58
f 25 58 59
f 25 59 60
f 25 60 26
f 26 60 61
f 26 61 62
f 26 62 27
f 27 62 63
f 27 63 64
f 27 64 28
f 28 64 29
f 29 64 30
f 30 64 65
f 30 65 66
f 30 66 31
f 31 67 32
f 31 66 68
f 31 68 67
f 32 67 69
f 32 69 33
f 33 69 70
f 33 70 71
f 33 71 34
f 34 71 72
f 34 72 35
f 35 72 73
f 35 73 36
f 36 73 74
f 36 74 37
f 37 74 39
f 37 39 38
f 39 74 75
f 39 75 40
f 40 76 77
f 40 77 41
f 40 75 78
f 40 78 79
f 40 79 76
f 41 77 42
f 42 77 80
f 42 80 43
f 43 80 81
f 43 81 44
f 44 81 45
f 45 81 82
f 45 82 83
f 45 83 84
f 45 84 46
f 46 84 85
f 46 85 47
f 47 85 86
f 47 86 48
f 48 86 87
f 48 87 49
f 49 88 89
f 49 89 50
f 49 87 90
f 49 90 88
f 50 89 51
f 51 89 91
f 51 91 52
f 52 91 92
f 52 92 93
f 52 93 94
f 52 94 53
f 53 94 95
f 53 95 96
f 53 96 97
f 53 97 54
f 54 97 55
f 55 97 98
f 55 98 99
f 55 99 56
f 56 99 100
f 56 100 57
f 57 100 101
f 57 101 102
f 57 102 58
f 58 102 59
f 59 102 103
f 59 103 104
f 59 104 60
f 60 104 61
f 61 105 106
f 61 106 63
f 61 63 62
f 61 104 107
f 61 107 105
f 63 108 65
f 63 65 64
f 63 106 108
f 65 108 66
f 66 108 109
f 66 109 68
f 67 68 109
f 67 109 110
f 67 110 111
f 67 111 69
f 69 112 70
f 69 111 112
f 70 112 113
f 70 113 114
f 70 114 115
f 70 115 71
f 71 115 72
f 72 115 116
f 72 116 117
f 72 117 73
f 73 117 75
f 73 75 74
f 75 117 118
f 75 118 119
f 75 119 78
f 76 120 80
f 76 80 77
f 76 79 120
f 78 119 121
f 78 121 122
f 78 122 79
f 79 122 123
f 79 123 120
f 80 120 82
f 80 82 81
f 82 120 124
f 82 124 125
f 82 125 126
f 82 126 83
f 83 126 127
f 83 127 128
f 83 128 129
f 83 129 84
f 84 129 85
f 85 129 87
f 85 87 86
f 87 129 90
f 88 90 130
f 88 130 131
f 88 131 132
f 88 132 133
f 88 133 134
f 88 134 89
f 89 134 135
f 89 135 91
f 90 129 128
f 90 128 130
f 91 135 92
f 92 135 134
f 92 134 136
f 92 136 137
f 92 137 138
f 92 138 93
f 93 138 139
f 93 139 140
f 93 140 141
f 93 141 142
f 93 142 94
f 94 142 95
f 95 142 143
f 95 143 144
f 95 144 96
f 96 144 98
f 96 98 97
f 98 144 145
f 98 145 99
f 99 146 101
f 99 101 100
f 99 145 146
f 101 146 147
f 101 147 102
f 102 147 103
f 103 147 148
f 103 148 149
f 103 149 104
f 104 149 107
f 105 107 150
f 105 150 151
f 105 151 152
f 105 152 106
f 106 152 108
f 107 149 153
f 107 153 150
f 108 152 110
f 108 110 109
f 110 154 111
f 110 152 155
f 110 155 154
f 111 154 156
f 111 156 157
f 111 157 112
f 112 157 158
f 112 158 113
f 113 158 159
f 113 159 114
f 114 160 161
f 114 161 162
f 114 162 115
f 114 159 160
f 115 162 116
f 116 163 164
f 116 164 165
f 116 165 117
f 116 162 163
f 117 165 166
f 117 166 118
f 118 166 119
f 119 166 167
f 119 167 121
f 120 123 168
f 120 168 125
f 120 125 124
f 121 169 123
f 121 123 122
f 121 167 169
f 123 169 168
f 125 168 170
f 125 170 126
f 126 170 171
f 126 171 127
f 127 171 172
f 127 172 128
f 128 172 173
f 128 173 130
f 130 173 174
f 130 174 131
f 131 175 176
f 131 176 177
f 131 177 132
f 131 174 178
f 131 178 175
f 132 177 179
f 132 179 136
f 132 136 133
f 133 136 134
f 136 179 180
f 136 180 137
f 137 180 181
f 137 181 138
f 138 181 182
f 138 182 139
f 139 182 140
f 140 183 184
f 140 184 141
f 140 182 183
f 141 184 185
f 141 185 186
f 141 186 142
f 142 186 187
f 142 187 143
f 143 187 144
f 144 187 188
f 144 188 145
f 145 188 189
f 145 189 190
f 145 190 146
f 146 190 147
f 147 190 191
f 147 191 192
f 147 192 148
f 148 192 193
f 148 193 194
f 148 194 149
f 149 194 153
f 150 195 196
f 150 196 197
f 150 197 151
f 150 153 198
f 150 198 195
f 151 197 152
f 152 197 155
f 153 194 193
f 153 193 199
f 153 199 198
f 154 155 200
f 154 200 157
f 154 157 156
f 155 197 200
f 157 200 201
f 157 201 202
f 157 202 158
f 158 202 203
f 158 203 159
f 159 203 204
f 159 204 160
f 160 205 206
f 160 206 161
f 160 204 207
f 160 207 205
f 161 206 162
f 162 206 163
f 163 208 209
f 163 209 210
f 163 210 164
f 163 206 208
f 164 210 167
f 164 167 166
f 164 166 165
f 167 210 169
f 168 169 170
f 169 210 211
f 169 211 170
f 170 211 171
f 171 211 212
f 171 212 213
f 171 213 172
f 172 213 214
f 172 214 173
f 173 214 215
f 173 215 178
f 173 178 174
f 175 178 215
f 175 215 216
f 175 216 176
f 176 217 218
f 176 218 219
f 176 219 220
f 176 220 177
f 176 216 217
f 177 220 180
f 177 180 179
f 180 220 181
f 181 220 221
f 181 221 182
f 182 221 183
f 183 222 184
f 183 221 219
f 183 219 222
f 184 222 185
f 185 222 188
f 185 188 186
f 186 188 187
f 188 222 223
f 188 223 189
f 189 224 225
f 189 225 190
f 189 223 224
f 190 225 191
f 191 193 192
f 191 225 226
f 191 226 193
f 193 226 227
f 193 227 199
f 195 228 229
f 195 229 196
f 195 198 227
f 195 227 228
f 196 229 202
f 196 202 201
f 196 201 197
f 197 201 200
f 198 199 227
f 202 230 203
f 202 229 230
f 203 230 231
f 203 231 232
f 203 232 233
f 203 233 204
f 204 233 207
f 205 207 234
f 205 234 235
f 205 235 208
f 205 208 206
f 207 233 234
f 208 236 209
f 208 235 236
f 209 236 237
f 209 237 212
f 209 212 210
f 210 212 211
f 212 237 213
f 213 237 214
f 214 237 238
f 214 238 215
f 215 238 216
f 216 238 217
f 217 239 240
f 217 240 241
f 217 241 218
f 217 238 239
f 218 241 219
f 219 241 242
f 219 242 243
f 219 243 222
f 219 221 220
f 222 243 244
f 222 244 223
f 223 244 245
f 223 245 224
f 224 245 246
f 224 246 247
f 224 247 225
f 225 247 226
f 226 247 228
f 226 228 227
f 228 247 248
f 228 248 249
f 228 249 229
f 229 249 230
f 230 249 250
f 230 250 231
f 231 250 249
f 231 249 248
f 231 248 232
f 232 251 252
f 232 252 233
f 232 248 253
f 232 253 251
f 233 252 234
f 234 240 239
f 234 239 235
f 234 252 240
f 235 239 254
f 235 254 236
f 236 254 238
f 236 238 237
f 238 254 239
f 240 252 251
f 240 251 253
f 240 253 255
f 240 255 241
f 241 255 242
f 242 255 243
f 243 255 244
f 244 255 256
f 244 256 245
f 245 256 246
f 246 256 253
f 246 253 248
f 246 248 247
f 253 256 255
