v 0.0329302 0.00694637 0.366084
v 0.0329302 0.00622488 0.365978
v 0.0329302 0.0393634 0.365767
v 0.0266243 0.0142607 0.415235
v 0.0266243 0.0119818 0.415235
v 0.0329302 -0.011444 0.362702
v 0.0329302 0.0393883 0.348643
v 0.026013 0.0393883 0.366401
v 0.00598861 0.0362436 0.415235
v 0.00656129 0.0360993 0.415235
v 0.0176159 0.0308847 0.415235
v 0.0178604 0.0307056 0.415235
v 0.0244366 0.0208138 0.415235
v 0.0265986 0.0143752 0.415235
v 0.0241277 0.00549842 0.415235
v 0.0240698 0.00539393 0.415235
v 0.0174808 -0.00350273 0.415235
v 0.00658703 -0.00771222 0.415235
v 0.00658703 -0.010021 0.401811
v 0.00658703 -0.0107176 0.388598
v 0.00658703 -0.011444 0.368198
v 0.0329302 -0.011444 -0.660688
v 0.0329302 0.0393883 -0.659103
v -0.0328055 0.0393883 0.365661
v -0.00650093 0.0333826 0.415235
v -0.00658458 -0.00473174 0.415235
v -0.0328055 -0.0113943 0.361116
v -0.0246143 -0.011444 0.361116
v 0.0246167 -0.011444 -0.662379
v 0.0329302 -0.0114391 -0.661322
v 0.0329302 0.0393684 -0.659208
v 0.0318621 0.0393883 -0.659314
v -0.0173432 0.0206148 0.415235
v -0.0169893 0.0218338 0.415235
v -0.0144541 0.0279142 0.415235
v -0.00682909 0.0332184 0.415235
v -0.00671327 0.033288 0.415235
v -0.0328055 0.0393883 -0.659208
v -0.0136562 -0.000517273 0.415235
v -0.0328055 -0.011444 0.344627
v -0.0137591 -0.00039288 0.415235
v -0.016629 0.00659806 0.415235
v -0.0166933 0.00685183 0.415235
v 0.0197586 -0.011444 -0.662908
v 0.0197586 -0.00658272 -0.663225
v 0.0329302 -0.00658272 -0.661534
v 0.0329302 0.0350893 -0.659631
v 0.0329302 0.0340095 -0.659737
v 0.0197586 0.0197589 -0.662274
v 0.0197586 0.0329348 -0.6609
v 0.0194498 0.0393883 -0.66016
v -0.0318596 0.0393883 -0.659314
v -0.0328055 0.0339996 -0.659737
v -0.0328055 -0.011444 -0.661322
v 0.0114387 -0.011444 -0.663754
v 0.00658703 -0.00658272 -0.664599
v 0.0197586 0.00658811 -0.663225
v 0.0329302 0.00658811 -0.661534
v 0.0329302 0.0197589 -0.6609
v 0.00658703 0.00658811 -0.664493
v 0.00658703 0.0197589 -0.663225
v 0.00658703 0.0329348 -0.661534
v 0.00658703 0.0393883 -0.660688
v -0.0269243 0.0393883 -0.659737
v -0.0197626 0.0197589 -0.662274
v -0.0328055 0.0196296 -0.661005
v -0.0328055 -0.00671707 -0.661534
v -0.0197626 -0.00658272 -0.663225
v -0.0197626 -0.011444 -0.662908
v 0.00658703 -0.011444 -0.664071
v -0.00658458 -0.011444 -0.664071
v -0.00658458 -0.00658272 -0.664493
v -0.00658458 0.00658811 -0.664493
v -0.00658458 0.0197589 -0.663225
v -0.00658458 0.0329348 -0.661534
v -0.00658458 0.0393883 -0.660688
v -0.0194409 0.0393883 -0.66016
v -0.0197626 0.00658811 -0.663225
v -0.0328055 0.00658811 -0.661534
v -0.0124658 0.0393883 -0.660477
f 1 2 6
f 1 6 22
f 1 22 30
f 1 30 46
f 1 46 58
f 1 58 59
f 1 59 48
f 1 48 47
f 1 47 31
f 1 31 23
f 1 23 7
f 1 7 3
f 1 3 4
f 1 4 5
f 1 5 2
f 2 5 6
f 3 7 8
f 3 8 9
f 3 9 10
f 3 10 11
f 3 11 12
f 3 12 13
f 3 13 14
f 3 14 4
f 4 14 13
f 4 13 12
f 4 12 11
f 4 11 10
f 4 10 9
f 4 9 25
f 4 25 37
f 4 37 36
f 4 36 35
f 4 35 34
f 4 34 33
f 4 33 43
f 4 43 42
f 4 42 41
f 4 41 39
f 4 39 26
f 4 26 18
f 4 18 17
f 4 17 16
f 4 16 15
f 4 15 5
f 5 15 6
f 6 15 16
f 6 16 17
f 6 17 18
f 6 18 19
f 6 19 20
f 6 20 21
f 6 21 28
f 6 28 40
f 6 40 54
f 6 54 69
f 6 69 71
f 6 71 70
f 6 70 55
f 6 55 44
f 6 44 29
f 6 29 22
f 7 23 32
f 7 32 51
f 7 51 63
f 7 63 76
f 7 76 80
f 7 80 77
f 7 77 64
f 7 64 52
f 7 52 38
f 7 38 24
f 7 24 8
f 8 24 9
f 9 24 25
f 18 26 27
f 18 27 19
f 19 27 20
f 20 27 21
f 21 27 28
f 22 29 30
f 23 31 32
f 24 27 33
f 24 33 34
f 24 34 35
f 24 35 36
f 24 36 37
f 24 37 25
f 24 38 53
f 24 53 66
f 24 66 79
f 24 79 67
f 24 67 54
f 24 54 40
f 24 40 27
f 26 39 27
f 27 40 28
f 27 39 41
f 27 41 42
f 27 42 43
f 27 43 33
f 29 44 45
f 29 45 30
f 30 45 46
f 31 47 32
f 32 47 48
f 32 48 49
f 32 49 50
f 32 50 51
f 38 52 53
f 44 55 56
f 44 56 45
f 45 57 58
f 45 58 46
f 45 56 57
f 48 59 49
f 49 57 60
f 49 60 61
f 49 61 50
f 49 59 57
f 50 61 51
f 51 61 62
f 51 62 63
f 52 64 65
f 52 65 53
f 53 65 66
f 54 67 68
f 54 68 69
f 55 70 56
f 56 71 72
f 56 72 73
f 56 73 60
f 56 60 57
f 56 70 71
f 57 59 58
f 60 73 74
f 60 74 61
f 61 74 75
f 61 75 62
f 62 75 76
f 62 76 63
f 64 77 74
f 64 74 65
f 65 74 73
f 65 73 78
f 65 78 66
f 66 78 79
f 67 79 78
f 67 78 68
f 68 78 73
f 68 73 72
f 68 72 69
f 69 72 71
f 74 77 80
f 74 80 75
f 75 80 76
