v -0.0142567 0.475817 0.498738
v 0.0220684 0.475817 0.497761
v -0.111514 0.475817 0.485945
v -0.021385 -0.695546 0.497859
v -6.41192e-08 -0.70542 0.497957
v 0.0213848 -0.695546 0.497859
v 0.0741147 0.475817 0.490925
v -0.145398 0.475817 0.476961
v -0.12538 -0.697309 0.483015
v -0.0932538 -0.713883 0.488093
v -0.0464805 -0.709886 0.494441
v -0.0286109 -0.722934 0.486238
v 0.0286108 -0.722934 0.486238
v 0.0464803 -0.709886 0.494441
v 0.114639 0.475817 0.485554
v 0.0932537 -0.713883 0.488093
v -0.220587 0.475817 0.445906
v -0.156139 -0.695546 0.472566
v -0.187289 -0.717645 0.459285
v -0.179184 -0.71929 0.460945
v -0.126161 -0.721994 0.471297
v -0.0644477 -0.721289 0.486238
v -0.16483 -0.724815 0.451668
v 0.126161 -0.721994 0.471297
v 0.0644476 -0.721289 0.486238
v 0.16483 -0.724815 0.451668
v 0.144324 0.475817 0.477351
v 0.12538 -0.697309 0.483015
v 0.179184 -0.71929 0.460945
v 0.187289 -0.717645 0.459285
v -0.246268 0.475817 0.434188
v -0.220391 -0.712825 0.444734
v -0.272926 -0.717645 0.414168
v -0.207892 -0.72411 0.43741
v -0.179184 -0.723287 0.451668
v -0.193538 -0.72505 0.43741
v 0.179184 -0.723287 0.451668
v 0.193538 -0.72505 0.43741
v 0.207892 -0.72411 0.43741
v 0.156139 -0.695546 0.472566
v 0.227129 0.475817 0.443172
v 0.265309 -0.71929 0.418856
v 0.220391 -0.712825 0.444734
v -0.269118 0.475817 0.419149
v -0.26072 -0.695546 0.425496
v -0.340303 -0.714353 0.361141
v -0.30388 -0.720818 0.386337
v -0.272438 -0.72364 0.401571
v -0.301146 -0.724815 0.37286
v -0.408754 -0.72505 0.250889
v 0.250955 -0.72505 0.4087
v 0.272438 -0.72364 0.401571
v 0.250955 0.475817 0.431942
v 0.30388 -0.720818 0.386337
v 0.288452 -0.718585 0.40284
v 0.264919 -0.703657 0.422274
v -0.333468 0.475817 0.369735
v -0.364129 -0.713413 0.339169
v -0.386295 -0.720818 0.303818
v -0.344111 -0.724462 0.337021
v -0.37282 -0.724815 0.301083
v -0.437365 -0.72505 0.193565
v -0.401528 -0.72364 0.27247
v -0.437365 -0.72411 0.207823
v 0.408754 -0.72505 0.250889
v 0.301146 -0.724815 0.37286
v 0.271461 0.475817 0.417293
v 0.386295 -0.720818 0.303818
v 0.364129 -0.713413 0.339169
v 0.340303 -0.714353 0.361141
v 0.344111 -0.724462 0.337021
v 0.296557 -0.709886 0.398055
v 0.310813 0.475817 0.387215
v -0.362079 0.475817 0.343075
v -0.425452 -0.695546 0.260654
v -0.414222 -0.717645 0.272959
v -0.437365 -0.72505 -0.193541
v -0.451719 -0.724815 0.164854
v -0.429163 -0.71882 0.24376
v -0.460996 -0.71929 0.17921
v -0.451719 -0.723287 0.17921
v 0.37282 -0.724815 0.301083
v 0.437365 -0.72505 0.193565
v 0.437365 -0.72411 0.207823
v 0.401528 -0.72364 0.27247
v 0.414222 -0.717645 0.272959
v 0.425452 -0.695546 0.260654
v 0.369695 0.475817 0.333505
v 0.343037 0.475817 0.362118
v -0.387174 0.475817 0.310751
v -0.444786 -0.712825 0.22042
v -0.42555 0.475817 0.260068
v -0.443126 0.475817 0.227158
v -0.408754 -0.72505 -0.250864
v -0.451719 -0.724815 -0.16483
v -0.437365 -0.72411 -0.207896
v -0.471346 -0.721994 0.126183
v -0.486189 -0.722934 0.0285276
v -0.459336 -0.717645 0.187315
v -0.488044 -0.713883 0.093273
v 0.437365 -0.72505 -0.193541
v 0.451719 -0.724815 0.164854
v 0.451719 -0.723287 0.17921
v 0.460996 -0.71929 0.17921
v 0.429162 -0.71882 0.24376
v 0.444786 -0.712825 0.22042
v 0.434435 0.475817 0.245908
v 0.419105 0.475817 0.26915
v -0.477401 0.475817 0.144347
v -0.472616 -0.695546 0.156065
v -0.37282 -0.724815 -0.301059
v -0.301146 -0.724815 -0.372836
v -0.250955 -0.72505 -0.408773
v -0.401528 -0.72364 -0.272446
v -0.486189 -0.722934 -0.0286008
v -0.471346 -0.721994 -0.126158
v -0.451719 -0.723287 -0.179185
v -0.460996 -0.71929 -0.179185
v -0.429163 -0.71882 -0.243735
v -0.486189 -0.721289 0.0644647
v -0.494489 -0.709886 0.0464961
v -0.497907 -0.70542 1.22254e-05
v -0.483064 -0.697309 0.125402
v -0.485505 0.475817 0.11466
v 0.408754 -0.72505 -0.250864
v 0.437365 -0.72411 -0.207896
v 0.451719 -0.724815 -0.16483
v 0.486189 -0.722934 0.0285276
v 0.471346 -0.721994 0.126183
v 0.459336 -0.717645 0.187315
v 0.488044 -0.713883 0.093273
v 0.44586 0.475817 0.220616
v -0.344111 -0.724462 -0.336996
v -0.30388 -0.720818 -0.386312
v -0.272438 -0.72364 -0.401546
v -0.193538 -0.72505 -0.437386
v -0.207892 -0.72411 -0.437386
v -0.414222 -0.717645 -0.272934
v -0.386295 -0.720818 -0.303793
v -0.494489 -0.709886 -0.0465693
v -0.486189 -0.721289 -0.0644403
v -0.488044 -0.713883 -0.0932486
v -0.459336 -0.717645 -0.187291
v -0.444786 -0.712825 -0.220396
v -0.490876 0.475817 0.0741326
v -0.497809 -0.695546 0.0213987
v -0.498786 0.475817 -0.0142454
v -0.497809 -0.695546 -0.0213743
v 0.250955 -0.72505 -0.408773
v 0.301146 -0.724815 -0.372836
v 0.37282 -0.724815 -0.301059
v 0.401528 -0.72364 -0.272446
v 0.429162 -0.71882 -0.243735
v 0.460996 -0.71929 -0.179185
v 0.451719 -0.723287 -0.179185
v 0.471346 -0.721994 -0.126158
v 0.486189 -0.722934 -0.0286008
v 0.486189 -0.721289 0.0644647
v 0.497907 -0.70542 1.22254e-05
v 0.494489 -0.709886 0.0464961
v 0.483064 -0.697309 0.125402
v 0.472616 -0.695546 0.156065
v 0.485896 0.475817 0.111535
v 0.476912 0.475817 0.145421
v -0.364129 -0.713413 -0.339242
v -0.340303 -0.714353 -0.361215
v -0.272926 -0.717645 -0.414242
v -0.243729 -0.71882 -0.429183
v 0.193538 -0.72505 -0.437386
v -0.16483 -0.724815 -0.451644
v -0.179184 -0.71929 -0.461018
v -0.179184 -0.723287 -0.451644
v -0.425452 -0.695546 -0.260727
v -0.485896 0.475817 -0.11151
v -0.483064 -0.697309 -0.125377
v -0.472616 -0.695546 -0.156139
v -0.44586 0.475817 -0.220591
v -0.434436 0.475817 -0.245884
v -0.497711 0.475817 0.0220823
v 0.207892 -0.72411 -0.437386
v 0.272438 -0.72364 -0.401546
v 0.30388 -0.720818 -0.386312
v 0.344111 -0.724462 -0.336996
v 0.386295 -0.720818 -0.303793
v 0.414222 -0.717645 -0.272934
v 0.444786 -0.712825 -0.220396
v 0.459336 -0.717645 -0.187291
v 0.488044 -0.713883 -0.0932486
v 0.486189 -0.721289 -0.0644403
v 0.494489 -0.709886 -0.0465693
v 0.497809 -0.695546 -0.0213743
v 0.498785 0.475817 0.0142699
v 0.497809 -0.695546 0.0213987
v -0.369695 0.475817 -0.333481
v -0.343037 0.475817 -0.362094
v -0.26072 -0.695546 -0.425472
v -0.220391 -0.712825 -0.44471
v -0.187289 -0.717645 -0.459261
v 0.16483 -0.724815 -0.451644
v -0.126161 -0.721994 -0.471272
v -0.0286109 -0.722934 -0.486213
v -0.0932538 -0.713883 -0.488069
v -0.419105 0.475817 -0.269126
v -0.476912 0.475817 -0.145396
v 0.179184 -0.723287 -0.451644
v 0.179184 -0.71929 -0.461018
v 0.265309 -0.71929 -0.418929
v 0.288452 -0.718585 -0.402816
v 0.340303 -0.714353 -0.361215
v 0.364129 -0.713413 -0.339242
v 0.425452 -0.695546 -0.260727
v 0.443126 0.475817 -0.227134
v 0.472616 -0.695546 -0.156139
v 0.483064 -0.697309 -0.125377
v 0.485505 0.475817 -0.114635
v 0.490876 0.475817 -0.0741081
v 0.497711 0.475817 -0.0220579
v -0.310813 0.475817 -0.387191
v -0.260036 0.475817 -0.42557
v -0.227129 0.475817 -0.443147
v -0.156139 -0.695546 -0.472639
v -0.12538 -0.697309 -0.482991
v 0.0286108 -0.722934 -0.486213
v 0.126161 -0.721994 -0.471272
v -0.0644477 -0.721289 -0.486213
v -0.0464805 -0.709886 -0.494416
v -6.41192e-08 -0.70542 -0.497932
v -0.114639 0.475817 -0.48553
v -0.021385 -0.695546 -0.497834
v 0.187289 -0.717645 -0.459261
v 0.0932537 -0.713883 -0.488069
v 0.220391 -0.712825 -0.44471
v 0.264919 -0.703657 -0.422249
v 0.296557 -0.709886 -0.398031
v 0.333468 0.475817 -0.369711
v 0.362078 0.475817 -0.343051
v 0.387174 0.475817 -0.310825
v 0.425549 0.475817 -0.260044
v 0.477401 0.475817 -0.144322
v -0.144324 0.475817 -0.477327
v 0.0644476 -0.721289 -0.486213
v 0.0464803 -0.709886 -0.494416
v 0.0213848 -0.695546 -0.497834
v 0.0106436 0.475817 -0.498713
v -0.0262673 0.475817 -0.497249
v 0.12538 -0.697309 -0.482991
v 0.156139 -0.695546 -0.472639
v 0.22957 0.475817 -0.442073
v 0.111514 0.475817 -0.48592
v 0.260232 0.475817 -0.42557
v 0.296557 0.475817 -0.398031
v 0.145398 0.475817 -0.476936
f 1 2 7
f 1 7 15
f 1 15 27
f 1 27 41
f 1 41 53
f 1 53 67
f 1 67 73
f 1 73 89
f 1 89 88
f 1 88 108
f 1 108 107
f 1 107 132
f 1 132 164
f 1 164 163
f 1 163 192
f 1 192 217
f 1 217 216
f 1 216 215
f 1 215 239
f 1 239 212
f 1 212 238
f 1 238 237
f 1 237 236
f 1 236 235
f 1 235 251
f 1 251 250
f 1 250 248
f 1 248 252
f 1 252 249
f 1 249 244
f 1 244 245
f 1 245 228
f 1 228 240
f 1 240 220
f 1 220 219
f 1 219 218
f 1 218 195
f 1 195 194
f 1 194 203
f 1 203 178
f 1 178 177
f 1 177 204
f 1 204 174
f 1 174 147
f 1 147 179
f 1 179 145
f 1 145 124
f 1 124 109
f 1 109 93
f 1 93 92
f 1 92 90
f 1 90 74
f 1 74 57
f 1 57 44
f 1 44 31
f 1 31 17
f 1 17 8
f 1 8 3
f 1 3 4
f 1 4 5
f 1 5 6
f 1 6 2
f 2 6 7
f 3 8 9
f 3 9 10
f 3 10 4
f 4 10 11
f 4 11 5
f 5 11 12
f 5 12 13
f 5 13 14
f 5 14 6
f 6 15 7
f 6 14 16
f 6 16 15
f 8 17 18
f 8 18 9
f 9 18 19
f 9 19 10
f 10 19 20
f 10 20 21
f 10 21 22
f 10 22 11
f 11 22 12
f 12 22 21
f 12 21 23
f 12 23 26
f 12 26 13
f 13 24 25
f 13 25 14
f 13 26 24
f 14 25 16
f 15 16 28
f 15 28 27
f 16 25 24
f 16 24 29
f 16 29 30
f 16 30 28
f 17 31 32
f 17 32 19
f 17 19 18
f 19 33 20
f 19 32 33
f 20 33 34
f 20 34 35
f 20 35 21
f 21 35 23
f 23 36 38
f 23 38 26
f 23 35 34
f 23 34 36
f 24 26 37
f 24 37 29
f 26 38 39
f 26 39 37
f 27 28 40
f 27 40 41
f 28 30 40
f 29 37 39
f 29 39 42
f 29 42 30
f 30 42 43
f 30 43 41
f 30 41 40
f 31 44 45
f 31 45 32
f 32 45 33
f 33 45 46
f 33 46 47
f 33 47 48
f 33 48 34
f 34 48 49
f 34 49 36
f 36 50 62
f 36 62 77
f 36 77 94
f 36 94 113
f 36 113 136
f 36 136 169
f 36 169 149
f 36 149 125
f 36 125 101
f 36 101 83
f 36 83 65
f 36 65 51
f 36 51 38
f 36 49 50
f 38 51 39
f 39 52 42
f 39 51 52
f 41 43 53
f 42 54 55
f 42 55 56
f 42 56 43
f 42 52 54
f 43 56 53
f 44 57 45
f 45 57 46
f 46 57 58
f 46 58 47
f 47 58 59
f 47 59 60
f 47 60 49
f 47 49 48
f 49 61 50
f 49 60 61
f 50 61 63
f 50 63 64
f 50 64 62
f 51 65 66
f 51 66 52
f 52 66 54
f 53 56 67
f 54 68 69
f 54 69 70
f 54 70 55
f 54 66 71
f 54 71 68
f 55 70 72
f 55 72 56
f 56 72 73
f 56 73 67
f 57 74 58
f 58 74 75
f 58 75 76
f 58 76 59
f 59 76 63
f 59 63 60
f 60 63 61
f 62 64 78
f 62 78 95
f 62 95 77
f 63 76 79
f 63 79 64
f 64 79 80
f 64 80 81
f 64 81 78
f 65 82 66
f 65 83 84
f 65 84 85
f 65 85 82
f 66 82 71
f 68 71 85
f 68 85 86
f 68 86 69
f 69 87 88
f 69 88 89
f 69 89 70
f 69 86 87
f 70 89 72
f 71 82 85
f 72 89 73
f 74 90 75
f 75 91 76
f 75 90 92
f 75 92 93
f 75 93 91
f 76 91 79
f 77 95 96
f 77 96 94
f 78 81 97
f 78 97 98
f 78 98 115
f 78 115 95
f 79 91 99
f 79 99 80
f 80 97 81
f 80 99 100
f 80 100 97
f 83 101 127
f 83 127 102
f 83 102 84
f 84 103 104
f 84 104 105
f 84 105 85
f 84 102 103
f 85 105 86
f 86 105 106
f 86 106 87
f 87 106 107
f 87 107 108
f 87 108 88
f 91 93 99
f 93 109 110
f 93 110 99
f 94 111 112
f 94 112 113
f 94 96 114
f 94 114 111
f 95 115 116
f 95 116 117
f 95 117 96
f 96 117 118
f 96 118 119
f 96 119 114
f 97 100 120
f 97 120 98
f 98 120 121
f 98 121 122
f 98 122 115
f 99 110 123
f 99 123 100
f 100 123 124
f 100 124 121
f 100 121 120
f 101 125 126
f 101 126 127
f 102 127 157
f 102 157 128
f 102 128 129
f 102 129 103
f 103 129 104
f 104 130 105
f 104 129 131
f 104 131 130
f 105 130 106
f 106 132 107
f 106 130 132
f 109 124 123
f 109 123 110
f 111 133 112
f 111 114 133
f 112 133 134
f 112 134 135
f 112 135 113
f 113 135 137
f 113 137 136
f 114 119 138
f 114 138 139
f 114 139 133
f 115 122 140
f 115 140 141
f 115 141 116
f 116 141 142
f 116 142 118
f 116 118 117
f 118 143 119
f 118 142 143
f 119 143 144
f 119 144 138
f 121 124 145
f 121 145 146
f 121 146 122
f 122 146 147
f 122 147 148
f 122 148 140
f 125 149 150
f 125 150 151
f 125 151 152
f 125 152 126
f 126 152 153
f 126 153 154
f 126 154 155
f 126 155 127
f 127 155 156
f 127 156 157
f 128 158 129
f 128 157 159
f 128 159 160
f 128 160 158
f 129 158 131
f 130 131 161
f 130 161 162
f 130 162 132
f 131 160 163
f 131 163 161
f 131 158 160
f 132 162 164
f 133 139 134
f 134 139 165
f 134 165 166
f 134 166 167
f 134 167 135
f 135 167 168
f 135 168 137
f 136 137 170
f 136 170 199
f 136 199 169
f 137 168 171
f 137 171 172
f 137 172 170
f 138 144 173
f 138 173 165
f 138 165 139
f 140 148 147
f 140 147 174
f 140 174 142
f 140 142 141
f 142 174 175
f 142 175 143
f 143 175 176
f 143 176 177
f 143 177 144
f 144 177 178
f 144 178 173
f 145 179 146
f 146 179 147
f 149 169 180
f 149 180 181
f 149 181 150
f 150 181 182
f 150 182 183
f 150 183 151
f 151 183 152
f 152 183 184
f 152 184 185
f 152 185 153
f 153 185 186
f 153 186 187
f 153 187 154
f 154 156 155
f 154 187 188
f 154 188 156
f 156 188 189
f 156 189 157
f 157 189 190
f 157 190 159
f 159 191 192
f 159 192 193
f 159 193 160
f 159 190 191
f 160 193 192
f 160 192 163
f 161 163 164
f 161 164 162
f 165 173 194
f 165 194 195
f 165 195 166
f 166 195 196
f 166 196 167
f 167 196 197
f 167 197 168
f 168 197 198
f 168 198 171
f 169 199 180
f 170 172 200
f 170 200 201
f 170 201 223
f 170 223 199
f 171 200 172
f 171 198 202
f 171 202 200
f 173 178 203
f 173 203 194
f 174 204 175
f 175 204 176
f 176 204 177
f 180 205 206
f 180 206 207
f 180 207 181
f 180 199 205
f 181 207 182
f 182 207 208
f 182 208 209
f 182 209 210
f 182 210 184
f 182 184 183
f 184 210 185
f 185 210 211
f 185 211 186
f 186 211 212
f 186 212 187
f 187 212 213
f 187 213 214
f 187 214 188
f 188 214 215
f 188 215 190
f 188 190 189
f 190 215 216
f 190 216 191
f 191 216 217
f 191 217 192
f 195 218 196
f 196 218 219
f 196 219 220
f 196 220 197
f 197 220 198
f 198 220 221
f 198 221 222
f 198 222 202
f 199 223 224
f 199 224 205
f 200 202 225
f 200 225 201
f 201 225 226
f 201 226 227
f 201 227 223
f 202 222 228
f 202 228 229
f 202 229 226
f 202 226 225
f 205 224 206
f 206 230 207
f 206 224 231
f 206 231 230
f 207 230 232
f 207 232 233
f 207 233 208
f 208 233 234
f 208 234 209
f 209 234 235
f 209 235 210
f 210 235 236
f 210 236 211
f 211 236 237
f 211 237 238
f 211 238 212
f 212 239 213
f 213 239 214
f 214 239 215
f 220 240 221
f 221 240 222
f 222 240 228
f 223 241 224
f 223 227 242
f 223 242 241
f 224 241 231
f 226 229 227
f 227 243 242
f 227 229 244
f 227 244 243
f 228 245 229
f 229 245 244
f 230 231 246
f 230 246 247
f 230 247 248
f 230 248 232
f 231 242 243
f 231 243 249
f 231 249 246
f 231 241 242
f 232 248 233
f 233 248 250
f 233 250 251
f 233 251 234
f 234 251 235
f 243 244 249
f 246 249 252
f 246 252 247
f 247 252 248
