v -0.765658 0.106003 -0.387182
v -0.765502 0.0712037 -0.387182
v -0.765502 0.0712037 -0.28318
v -0.765502 0.106003 -0.28318
v -0.00899595 0.106003 -0.387182
v -0.765192 0.0553826 -0.387182
v -0.765425 0.0649155 -0.28318
v 0.0274126 0.106003 -0.28318
v 0.0274126 0.106003 -0.374294
v 0.0274126 0.0375235 -0.367881
v -0.0391165 0.0375235 -0.387182
v -0.762087 0.0447905 -0.387182
v -0.762164 0.0447637 -0.34018
v -0.762164 0.0447369 -0.292719
v -0.765192 0.0553826 -0.28318
v 0.0274126 0.0375235 -0.28318
v -0.716828 0.0375235 -0.387182
v -0.761776 0.0446966 -0.387182
v -0.751529 0.0415928 -0.28318
v -0.762164 0.0447369 -0.28318
v -0.717061 0.0375235 -0.28318
v -0.716906 0.0375235 -0.37182
v -0.751529 0.0416397 -0.32437
v -0.751529 0.0417134 -0.387182
v -0.717061 0.0375235 -0.308539
f 1 2 3
f 1 3 4
f 1 4 8
f 1 8 9
f 1 9 5
f 1 5 11
f 1 11 17
f 1 17 24
f 1 24 18
f 1 18 12
f 1 12 6
f 1 6 2
f 2 6 7
f 2 7 3
f 3 7 15
f 3 15 20
f 3 20 19
f 3 19 21
f 3 21 16
f 3 16 8
f 3 8 4
f 5 9 10
f 5 10 11
f 6 12 13
f 6 13 14
f 6 14 20
f 6 20 15
f 6 15 7
f 8 16 10
f 8 10 9
f 10 16 21
f 10 21 25
f 10 25 22
f 10 22 17
f 10 17 11
f 12 18 13
f 13 18 19
f 13 19 14
f 14 19 20
f 17 22 19
f 17 19 23
f 17 23 24
f 18 24 23
f 18 23 19
f 19 22 25
f 19 25 21
