v 0.482544 0.351946 -0.466761
v 0.482544 0.351915 -0.435122
v 0.498399 0.350807 -0.466761
v 0.482544 0.351946 -0.48258
v 0.0274126 0.351946 -0.466761
v 0.482544 0.351854 -0.394814
v 0.498399 0.350715 -0.394814
v 0.0274126 0.351915 -0.435122
v 0.0274126 0.351885 -0.407156
v 0.498399 0.350807 -0.48258
v 0.509744 0.348837 -0.403473
v 0.50989 0.348868 -0.450931
v 0.509962 0.348868 -0.466761
v 0.498399 0.349453 -0.492388
v 0.482544 0.350038 -0.493095
v 0.0274126 0.351515 -0.485022
v 0.0274126 0.351946 -0.48258
v 0.0274126 0.351854 -0.394814
v 0.503562 0.349853 -0.394814
v 0.509962 0.348868 -0.48258
v 0.508799 0.348622 -0.49129
v 0.509744 0.348807 -0.394814
v 0.514108 0.347883 -0.394814
v 0.517672 0.347144 -0.403473
v 0.530035 0.344559 -0.450931
v 0.51789 0.347175 -0.466761
v 0.498399 0.340157 -0.496696
v 0.561672 0.335048 -0.493711
v 0.545817 0.336556 -0.494593
v 0.482544 0.340157 -0.497394
v 0.0274126 0.350038 -0.493095
v 0.0274126 0.113767 -0.394814
v 0.586472 0.332493 -0.48258
v 0.586109 0.332401 -0.490746
v 0.652946 0.317349 -0.491772
v 0.6408 0.318642 -0.493219
v 0.609163 0.327537 -0.394814
v 0.530035 0.344497 -0.403473
v 0.609163 0.327568 -0.419303
v 0.6408 0.320858 -0.48258
v 0.561672 0.324336 -0.49802
v 0.545817 0.324336 -0.498902
v 0.624945 0.320273 -0.494409
v 0.530035 0.324336 -0.499107
v 0.0274126 0.336494 -0.497794
v 0.0274126 0.340157 -0.497394
v 0.0807222 0.0375543 -0.394814
v 0.0274126 0.113951 -0.466761
v 0.655055 0.31778 -0.48258
v 0.662909 0.315995 -0.48258
v 0.672437 0.313594 -0.48258
v 0.684582 0.304236 -0.493372
v 0.672437 0.307007 -0.494809
v 0.632145 0.322612 -0.394814
v 0.654909 0.31778 -0.435122
v 0.662909 0.316087 -0.466761
v 0.6408 0.308515 -0.497538
v 0.624945 0.308515 -0.498728
v 0.609163 0.308515 -0.499128
v 0.498399 0.324336 -0.499107
v 0.102904 0.0712281 -0.499569
v 0.0274126 0.324336 -0.499097
v 0.751783 0.0375543 -0.394814
v 0.0808676 0.0375543 -0.470577
v 0.0274126 0.114352 -0.48258
v 0.672437 0.313809 -0.466761
v 0.686837 0.306145 -0.48258
v 0.672437 0.292694 -0.499138
v 0.694691 0.299065 -0.48258
v 0.699928 0.289031 -0.493342
v 0.689237 0.293679 -0.49566
v 0.659128 0.316826 -0.394814
v 0.662837 0.316087 -0.450931
v 0.672437 0.313778 -0.435122
v 0.118686 0.0375543 -0.49962
v 0.0274126 0.134513 -0.499435
v 0.751783 0.0375543 -0.435122
v 0.752437 0.038293 -0.394814
v 0.0812313 0.0375543 -0.48258
v 0.0274126 0.120323 -0.494891
v 0.686837 0.306206 -0.394814
v 0.68691 0.306237 -0.466761
v 0.688219 0.276873 -0.499117
v 0.73571 0.213588 -0.4992
v 0.73571 0.055407 -0.499415
v 0.694764 0.299065 -0.466761
v 0.770401 0.22944 -0.394814
v 0.770401 0.228701 -0.403473
v 0.701746 0.291155 -0.48258
v 0.745456 0.239413 -0.492336
v 0.730255 0.255973 -0.492757
v 0.715055 0.272502 -0.493085
v 0.735637 0.244892 -0.494696
v 0.720146 0.261174 -0.495137
v 0.704728 0.277427 -0.495486
v 0.73571 0.229409 -0.498399
v 0.719855 0.24523 -0.498707
v 0.704073 0.261051 -0.498943
v 0.662691 0.316056 -0.394814
v 0.672437 0.313717 -0.394814
v 0.102904 0.0375543 -0.499538
v 0.719855 0.0395858 -0.499435
v 0.704073 0.0375543 -0.499425
v 0.0274126 0.130788 -0.498348
v 0.0882132 0.0375543 -0.495065
v 0.753165 0.0392472 -0.466761
v 0.753237 0.0392472 -0.403473
v 0.75171 0.0375543 -0.48258
v 0.753237 0.0392472 -0.394814
v 0.691201 0.302266 -0.394814
v 0.694764 0.299035 -0.394814
v 0.694764 0.299065 -0.450931
v 0.751565 0.213588 -0.495517
v 0.751565 0.0712281 -0.495619
v 0.751565 0.055407 -0.495455
v 0.73571 0.0395858 -0.498112
v 0.719855 0.0375543 -0.499312
v 0.770401 0.0883421 -0.394814
v 0.770401 0.224392 -0.417589
v 0.75971 0.222022 -0.490931
v 0.746401 0.240459 -0.48258
v 0.716655 0.274256 -0.48258
v 0.751056 0.228147 -0.493598
v 0.753165 0.039278 -0.48258
v 0.759638 0.0471578 -0.466761
v 0.756728 0.0435565 -0.394814
v 0.759565 0.0472809 -0.490705
v 0.748656 0.0375543 -0.492665
v 0.759856 0.213588 -0.491156
v 0.759856 0.118692 -0.491167
v 0.759856 0.0712281 -0.491167
v 0.750619 0.0410325 -0.493136
v 0.75971 0.055407 -0.490992
v 0.735637 0.0375543 -0.497568
v 0.770401 0.0889885 -0.402673
v 0.759638 0.0471578 -0.394814
v 0.759638 0.0471886 -0.48258
v 0.770401 0.213588 -0.422616
v 0.770401 0.118692 -0.424319
v 0.770401 0.102286 -0.419662
v 0.770401 0.101701 -0.419477
v 0.770401 0.0901274 -0.404294
v 0.770401 0.212911 -0.422698
v 0.770401 0.198444 -0.424268
v 0.770401 0.197767 -0.42433
v 0.770401 0.134513 -0.42433
f 1 2 3
f 1 3 10
f 1 10 4
f 1 4 17
f 1 17 5
f 1 5 8
f 1 8 2
f 2 6 7
f 2 7 3
f 2 8 9
f 2 9 6
f 3 7 11
f 3 11 12
f 3 12 13
f 3 13 20
f 3 20 10
f 4 10 14
f 4 14 15
f 4 15 16
f 4 16 17
f 5 17 16
f 5 16 31
f 5 31 46
f 5 46 45
f 5 45 62
f 5 62 76
f 5 76 104
f 5 104 80
f 5 80 65
f 5 65 48
f 5 48 32
f 5 32 18
f 5 18 9
f 5 9 8
f 6 9 18
f 6 18 32
f 6 32 47
f 6 47 63
f 6 63 78
f 6 78 109
f 6 109 126
f 6 126 136
f 6 136 118
f 6 118 87
f 6 87 111
f 6 111 110
f 6 110 81
f 6 81 100
f 6 100 99
f 6 99 72
f 6 72 54
f 6 54 37
f 6 37 23
f 6 23 22
f 6 22 19
f 6 19 7
f 7 19 11
f 10 20 21
f 10 21 14
f 11 19 22
f 11 22 23
f 11 23 24
f 11 24 12
f 12 24 25
f 12 25 26
f 12 26 13
f 13 26 20
f 14 27 15
f 14 21 28
f 14 28 29
f 14 29 27
f 15 27 30
f 15 30 46
f 15 46 31
f 15 31 16
f 20 26 33
f 20 33 34
f 20 34 21
f 21 34 35
f 21 35 36
f 21 36 28
f 23 37 24
f 24 38 25
f 24 37 38
f 25 38 37
f 25 37 39
f 25 39 40
f 25 40 26
f 26 40 33
f 27 29 41
f 27 41 42
f 27 42 30
f 28 36 43
f 28 43 29
f 29 43 41
f 30 42 44
f 30 44 45
f 30 45 46
f 32 48 47
f 33 40 34
f 34 40 49
f 34 49 35
f 35 49 50
f 35 50 51
f 35 51 52
f 35 52 53
f 35 53 36
f 36 53 43
f 37 54 39
f 39 54 55
f 39 55 40
f 40 55 56
f 40 56 49
f 41 43 57
f 41 57 58
f 41 58 42
f 42 58 59
f 42 59 44
f 43 53 57
f 44 60 45
f 44 59 61
f 44 61 60
f 45 60 62
f 47 48 64
f 47 64 79
f 47 79 105
f 47 105 101
f 47 101 75
f 47 75 103
f 47 103 117
f 47 117 134
f 47 134 128
f 47 128 108
f 47 108 77
f 47 77 63
f 48 65 64
f 49 56 50
f 50 56 66
f 50 66 51
f 51 66 67
f 51 67 52
f 52 68 53
f 52 67 69
f 52 69 70
f 52 70 71
f 52 71 68
f 53 68 57
f 54 72 55
f 55 72 73
f 55 73 56
f 56 73 74
f 56 74 66
f 57 68 58
f 58 68 59
f 59 68 75
f 59 75 61
f 60 61 62
f 61 75 76
f 61 76 62
f 63 77 78
f 64 65 79
f 65 80 79
f 66 74 81
f 66 81 82
f 66 82 67
f 67 82 69
f 68 71 83
f 68 83 84
f 68 84 85
f 68 85 75
f 69 82 86
f 69 86 87
f 69 87 88
f 69 88 89
f 69 89 90
f 69 90 91
f 69 91 70
f 70 92 93
f 70 93 94
f 70 94 95
f 70 95 71
f 70 91 92
f 71 95 96
f 71 96 97
f 71 97 98
f 71 98 83
f 72 99 73
f 73 99 74
f 74 99 100
f 74 100 81
f 75 101 76
f 75 85 102
f 75 102 103
f 76 101 105
f 76 105 104
f 77 106 107
f 77 107 78
f 77 108 106
f 78 107 109
f 79 80 105
f 80 104 105
f 81 110 82
f 82 110 111
f 82 111 112
f 82 112 86
f 83 98 84
f 84 96 113
f 84 113 85
f 84 98 97
f 84 97 96
f 85 113 114
f 85 114 115
f 85 115 116
f 85 116 117
f 85 117 102
f 86 112 87
f 87 118 135
f 87 135 142
f 87 142 141
f 87 141 140
f 87 140 139
f 87 139 146
f 87 146 145
f 87 145 144
f 87 144 143
f 87 143 138
f 87 138 119
f 87 119 88
f 87 112 111
f 88 119 120
f 88 120 90
f 88 90 121
f 88 121 122
f 88 122 89
f 89 122 90
f 90 120 123
f 90 123 93
f 90 93 91
f 90 122 121
f 91 93 92
f 93 123 96
f 93 96 94
f 94 96 95
f 96 123 113
f 102 117 103
f 106 124 137
f 106 137 125
f 106 125 107
f 106 108 124
f 107 125 126
f 107 126 109
f 108 127 124
f 108 128 127
f 113 123 120
f 113 120 129
f 113 129 114
f 114 130 131
f 114 131 115
f 114 129 130
f 115 132 116
f 115 131 133
f 115 133 127
f 115 127 132
f 116 132 134
f 116 134 117
f 118 136 125
f 118 125 137
f 118 137 127
f 118 127 135
f 119 138 120
f 120 138 129
f 124 127 137
f 125 136 126
f 127 133 139
f 127 139 140
f 127 140 141
f 127 141 142
f 127 142 135
f 127 128 132
f 128 134 132
f 129 138 143
f 129 143 144
f 129 144 145
f 129 145 130
f 130 145 146
f 130 146 131
f 131 146 139
f 131 139 133
