v -0.0385147 0.0375235 -0.384926
v 0.00795867 -0.00724877 -0.384926
v -0.0393662 0.0375235 -0.482576
v -0.716813 0.0375235 -0.384926
v 0.00795867 -0.0809109 -0.384926
v 0.00795867 -0.00831533 -0.48261
v -0.042559 0.0375235 -0.492768
v -0.716813 0.0375235 -0.403479
v -0.649551 -0.0325911 -0.384926
v 0.00795867 -0.0809109 -0.489948
v -0.369221 -0.0809109 -0.384926
v 0.00795867 -0.0121294 -0.49451
v -0.0432685 0.0375235 -0.494465
v -0.716742 0.0375235 -0.435122
v -0.649551 -0.0325448 -0.466755
v -0.649551 -0.0325911 -0.387657
v -0.648061 -0.0335186 -0.384926
v 0.00795867 -0.0798559 -0.491521
v -0.147497 -0.0809109 -0.489948
v -0.371349 -0.0809109 -0.387196
v -0.435064 -0.0805399 -0.384926
v 0.00795867 -0.0237804 -0.499117
v -0.0534855 0.0375235 -0.498477
v -0.716671 0.0375235 -0.466755
v -0.64948 -0.0325332 -0.482576
v -0.640753 -0.0378544 -0.466755
v -0.640753 -0.0379007 -0.435122
v -0.640753 -0.0379587 -0.387657
v -0.640753 -0.0379587 -0.384926
v 0.0078877 -0.0798327 -0.491544
v 0.00795867 -0.0712191 -0.496095
v -0.292735 -0.0798327 -0.491544
v -0.289897 -0.0809109 -0.489937
v -0.371349 -0.0809109 -0.387657
v -0.44819 -0.0801805 -0.384926
v -0.435064 -0.0805399 -0.387657
v 0.00795867 -0.0395933 -0.49969
v -0.0692368 0.0375235 -0.499589
v -0.0554012 0.0375235 -0.499095
v -0.715607 0.0375235 -0.482576
v -0.649267 -0.0322317 -0.491162
v -0.640753 -0.0377153 -0.482576
v -0.624931 -0.0439639 -0.466755
v -0.624931 -0.0439871 -0.450933
v -0.638057 -0.0390137 -0.384926
v 0.0078877 -0.0711959 -0.496106
v 0.00795867 -0.0554178 -0.499623
v -0.387597 -0.0711959 -0.496106
v -0.435064 -0.0797516 -0.491544
v -0.435064 -0.0711959 -0.496095
v -0.305719 -0.0809109 -0.489914
v -0.371207 -0.0809109 -0.4193
v -0.450886 -0.0800994 -0.384926
v -0.450886 -0.0800994 -0.387657
v -0.450886 -0.0800646 -0.4193
v -0.435064 -0.0804819 -0.435122
v -0.369717 -0.0809109 -0.464698
v -0.370924 -0.0809109 -0.450135
v -0.371136 -0.0809109 -0.4351
v -0.0237568 -0.039547 -0.49969
v -0.0237568 -0.0237225 -0.499713
v -0.0712235 0.0375235 -0.499601
v 0.0078877 -0.0553714 -0.499634
v -0.213624 -0.0553714 -0.499634
v -0.712556 0.0375235 -0.486318
v -0.69943 0.0279013 -0.493218
v -0.652957 -0.0237225 -0.493252
v -0.640753 -0.0237225 -0.497758
v -0.640753 -0.0346083 -0.493252
v -0.624931 -0.0436277 -0.482576
v -0.684246 0.011358 -0.493465
v -0.604993 -0.0482649 -0.450933
v -0.61294 -0.0465839 -0.435122
v -0.604851 -0.0482417 -0.482576
v -0.577464 -0.0541194 -0.482576
v -0.624931 -0.0440682 -0.387657
v -0.624931 -0.0440682 -0.384926
v -0.435064 -0.0804124 -0.482576
v -0.450886 -0.0795429 -0.491195
v -0.450886 -0.0711959 -0.495735
v -0.320974 -0.0809109 -0.489622
v -0.3341 -0.0809109 -0.488094
v -0.482531 -0.0553714 -0.499556
v -0.355953 -0.0553714 -0.499601
v -0.308557 -0.0553714 -0.499612
v -0.46011 -0.0793922 -0.384926
v -0.460039 -0.079369 -0.4193
v -0.459897 -0.0793342 -0.466755
v -0.459826 -0.0793226 -0.482576
v -0.450886 -0.0799834 -0.482576
v -0.354747 -0.0809109 -0.48134
v -0.624931 -0.0237225 -0.499522
v -0.656575 0.00790332 -0.499477
v -0.672397 0.0375235 -0.499432
v -0.703687 0.0375235 -0.495005
v -0.689 0.023067 -0.495701
v -0.702765 0.0375235 -0.495375
v -0.688362 0.0375235 -0.498769
v -0.686233 0.0375235 -0.49923
v -0.672397 0.0237278 -0.499443
v -0.640753 -0.00792116 -0.499499
v -0.624931 -0.0374718 -0.495016
v -0.603645 -0.0479751 -0.491308
v -0.536383 -0.0629533 -0.466755
v -0.605135 -0.0482997 -0.403479
v -0.459471 -0.0792531 -0.490723
v -0.574768 -0.0548266 -0.384926
v -0.606554 -0.0480099 -0.384926
v -0.482531 -0.0686339 -0.495027
v -0.498353 -0.0553714 -0.499106
v -0.561642 -0.039547 -0.499432
v -0.461529 -0.0790908 -0.384926
v -0.467915 -0.0776648 -0.435122
v -0.577464 -0.039547 -0.498758
v -0.577464 -0.0507806 -0.494241
v -0.593286 -0.049088 -0.492679
v -0.526308 -0.0641821 -0.491802
v -0.511479 -0.0683904 -0.384926
v -0.514175 -0.0654806 -0.493297
v -0.498353 -0.06715 -0.494578
v -0.514175 -0.0553714 -0.497825
f 1 2 3
f 1 3 7
f 1 7 13
f 1 13 23
f 1 23 39
f 1 39 38
f 1 38 62
f 1 62 94
f 1 94 99
f 1 99 98
f 1 98 97
f 1 97 95
f 1 95 65
f 1 65 40
f 1 40 24
f 1 24 14
f 1 14 8
f 1 8 4
f 1 4 9
f 1 9 17
f 1 17 29
f 1 29 45
f 1 45 77
f 1 77 108
f 1 108 107
f 1 107 118
f 1 118 112
f 1 112 86
f 1 86 53
f 1 53 35
f 1 35 21
f 1 21 11
f 1 11 5
f 1 5 2
f 2 5 10
f 2 10 18
f 2 18 31
f 2 31 47
f 2 47 37
f 2 37 22
f 2 22 12
f 2 12 6
f 2 6 3
f 3 6 7
f 4 8 16
f 4 16 9
f 5 11 20
f 5 20 34
f 5 34 52
f 5 52 59
f 5 59 58
f 5 58 57
f 5 57 91
f 5 91 82
f 5 82 81
f 5 81 51
f 5 51 33
f 5 33 19
f 5 19 10
f 6 12 7
f 7 12 13
f 8 14 15
f 8 15 16
f 9 16 17
f 10 19 18
f 11 21 20
f 12 22 23
f 12 23 13
f 14 24 15
f 15 25 26
f 15 26 27
f 15 27 28
f 15 28 17
f 15 17 16
f 15 24 25
f 17 28 29
f 18 30 31
f 18 19 32
f 18 32 30
f 19 33 32
f 20 21 36
f 20 36 34
f 21 35 36
f 22 37 38
f 22 38 39
f 22 39 23
f 24 40 41
f 24 41 25
f 25 41 42
f 25 42 26
f 26 42 43
f 26 43 27
f 27 43 44
f 27 44 45
f 27 45 28
f 28 45 29
f 30 32 31
f 31 46 47
f 31 32 48
f 31 48 46
f 32 33 49
f 32 49 50
f 32 50 48
f 33 51 49
f 34 36 52
f 35 53 54
f 35 54 55
f 35 55 36
f 36 55 56
f 36 56 57
f 36 57 58
f 36 58 59
f 36 59 52
f 37 60 61
f 37 61 62
f 37 62 38
f 37 47 63
f 37 63 64
f 37 64 60
f 40 65 66
f 40 66 41
f 41 67 68
f 41 68 69
f 41 69 70
f 41 70 42
f 41 66 71
f 41 71 67
f 42 70 43
f 43 72 73
f 43 73 44
f 43 70 74
f 43 74 75
f 43 75 72
f 44 73 76
f 44 76 45
f 45 76 77
f 46 63 47
f 46 48 64
f 46 64 63
f 48 50 85
f 48 85 64
f 49 78 79
f 49 79 80
f 49 80 50
f 49 51 81
f 49 81 82
f 49 82 78
f 50 80 83
f 50 83 84
f 50 84 85
f 53 86 54
f 54 86 87
f 54 87 88
f 54 88 89
f 54 89 55
f 55 89 90
f 55 90 56
f 56 90 78
f 56 78 57
f 57 78 91
f 60 64 61
f 61 64 85
f 61 85 84
f 61 84 92
f 61 92 93
f 61 93 94
f 61 94 62
f 65 95 66
f 66 95 71
f 67 71 96
f 67 96 68
f 68 96 97
f 68 97 98
f 68 98 99
f 68 99 100
f 68 100 93
f 68 93 101
f 68 101 92
f 68 92 102
f 68 102 69
f 69 102 103
f 69 103 70
f 70 103 74
f 71 95 97
f 71 97 96
f 72 75 104
f 72 104 73
f 73 104 105
f 73 105 76
f 74 103 106
f 74 106 75
f 75 106 89
f 75 89 104
f 76 105 107
f 76 107 108
f 76 108 77
f 78 90 79
f 78 82 91
f 79 90 106
f 79 106 109
f 79 109 80
f 80 109 110
f 80 110 83
f 83 110 111
f 83 111 92
f 83 92 84
f 86 112 87
f 87 112 113
f 87 113 88
f 88 113 104
f 88 104 89
f 89 106 90
f 92 111 114
f 92 114 102
f 92 101 93
f 93 100 94
f 94 100 99
f 102 114 115
f 102 115 116
f 102 116 103
f 103 116 117
f 103 117 106
f 104 113 105
f 105 113 118
f 105 118 107
f 106 117 119
f 106 119 120
f 106 120 109
f 109 120 110
f 110 120 121
f 110 121 114
f 110 114 111
f 112 118 113
f 114 121 120
f 114 120 115
f 115 120 119
f 115 119 116
f 116 119 117
