v 0.0177991 -0.245253 0.120586
v 0.0177991 -0.245204 0.118609
v 0.00798339 -0.245204 0.12069
v 0.0115933 -0.364819 0.111304
v 0.0177991 -0.364732 0.111242
v 0.0177991 -0.245204 -0.0919096
v -0.00805832 -0.245204 0.117797
v -0.023735 -0.355997 0.10658
v 0.00694909 -0.368234 0.104291
v 0.0177991 -0.368964 0.103355
v -0.0522288 -0.366279 0.0968828
v -0.0395739 -0.367887 0.0989222
v -0.023735 -0.368469 0.100566
v 0.0177991 -0.33756 -0.0919096
v -0.184558 -0.245204 -0.0919096
v -0.0395739 -0.355997 0.103063
v -0.011222 -0.245204 0.116424
v -0.0712112 -0.340171 0.0906188
v -0.062227 -0.340171 0.0944688
v -0.0542974 -0.355997 0.097736
v -0.00791636 -0.368642 0.101856
v -0.0395739 -0.3716 0.0870186
v 0.0177991 -0.369088 0.097403
v -0.0622067 -0.355997 0.0943855
v -0.0712112 -0.355997 0.0905356
v -0.0838863 -0.366848 0.0819825
v -0.0712112 -0.368481 0.0849792
v -0.0870095 -0.369731 -0.0919096
v 0.0177991 -0.367937 0.00664868
v -0.185044 -0.245253 -0.0919096
v -0.185065 -0.245204 -0.0870191
v -0.0712112 -0.245204 0.0881216
v -0.0831157 -0.245204 0.0824403
v -0.0859955 -0.340171 0.0831687
v -0.0859752 -0.355997 0.0831479
v -0.0712112 -0.371364 0.0711819
v -0.118667 -0.371402 0.03955
v -0.166123 -0.371575 -0.0395505
v -0.023735 -0.370907 0.00791812
v 0.0177991 -0.369657 0.0237132
v -0.0938845 -0.355997 0.0783407
v -0.111873 -0.365029 0.064148
v -0.117754 -0.367751 0.0549914
v -0.0882872 -0.369125 0.0724721
v -0.164987 -0.368073 -0.0919096
v 0.0177991 -0.369038 0.0171163
v -0.00791636 -0.370189 0.00791812
v -0.0870095 -0.370511 -0.0711824
v -0.166123 -0.371055 -0.0553665
v -0.166123 -0.370164 -0.0711824
v -0.189384 -0.335531 -0.0919096
v -0.185065 -0.245204 -0.0869359
v -0.0939048 -0.340171 0.0784447
v -0.102423 -0.245204 0.0689343
v -0.102828 -0.370857 0.0553659
v -0.13408 -0.367652 0.0385303
v -0.134486 -0.370808 0.0237132
v -0.150304 -0.371476 -0.00789782
v -0.163486 -0.368321 -0.00789782
v -0.1775 -0.367652 -0.0395505
v -0.17896 -0.368296 -0.0553665
v -0.179954 -0.36842 -0.0711824
v -0.182976 -0.36764 -0.0919096
v -0.0870095 -0.370795 -0.0553665
v -0.102828 -0.340171 0.0717229
v -0.102828 -0.355997 0.0715981
v -0.112258 -0.355997 0.0644393
v -0.120168 -0.355997 0.0581129
v -0.129253 -0.355997 0.0502049
v -0.128523 -0.366044 0.0494766
v -0.171152 -0.367937 -0.0919096
v -0.184639 -0.340171 -0.0553665
v -0.180279 -0.245204 -0.0399875
v -0.182124 -0.245204 -0.0553665
v -0.183605 -0.245204 -0.0711824
v -0.189303 -0.360884 -0.0919096
v -0.119296 -0.245204 0.0569267
v -0.143125 -0.364856 0.0325785
v -0.14637 -0.366823 0.0237132
v -0.160728 -0.36665 0.00452601
v -0.151481 -0.369038 0.00904188
v -0.175634 -0.36597 -0.027751
v -0.184477 -0.355997 -0.0553665
v -0.186565 -0.365697 -0.0919096
v -0.182976 -0.36764 -0.0885799
v -0.112279 -0.340171 0.0644601
v -0.120188 -0.340171 0.0581337
v -0.129253 -0.340171 0.0502258
v -0.137163 -0.355997 0.0407778
v -0.181191 -0.340171 -0.0395505
v -0.181191 -0.355997 -0.0395505
v -0.179792 -0.245204 -0.0384892
v -0.12031 -0.245204 0.0560111
v -0.143348 -0.355997 0.0328698
v -0.150264 -0.355997 0.0237132
v -0.15722 -0.355997 0.0143694
v -0.161742 -0.355997 0.00646139
v -0.168516 -0.355997 -0.00789782
v -0.176304 -0.355997 -0.0261278
v -0.135236 -0.245204 0.0404865
v -0.135439 -0.245204 0.0402576
v -0.137163 -0.340171 0.0407986
v -0.176324 -0.340171 -0.026107
v -0.173018 -0.340171 -0.018199
v -0.168658 -0.340171 -0.00789782
v -0.165149 -0.245204 -0.00460977
v -0.143348 -0.340171 0.0328907
v -0.150406 -0.340171 0.0237132
v -0.157362 -0.340171 0.0143902
v -0.161763 -0.340171 0.0064822
v -0.147566 -0.245204 0.0231306
v -0.157747 -0.245204 0.00798055
v -0.155618 -0.245204 0.0113102
f 1 2 3
f 1 3 4
f 1 4 5
f 1 5 10
f 1 10 23
f 1 23 40
f 1 40 46
f 1 46 29
f 1 29 14
f 1 14 6
f 1 6 2
f 2 6 15
f 2 15 31
f 2 31 52
f 2 52 75
f 2 75 74
f 2 74 73
f 2 73 92
f 2 92 106
f 2 106 112
f 2 112 113
f 2 113 111
f 2 111 101
f 2 101 100
f 2 100 93
f 2 93 77
f 2 77 54
f 2 54 33
f 2 33 32
f 2 32 17
f 2 17 7
f 2 7 3
f 3 7 8
f 3 8 4
f 4 9 10
f 4 10 5
f 4 8 11
f 4 11 12
f 4 12 13
f 4 13 9
f 6 14 28
f 6 28 45
f 6 45 71
f 6 71 63
f 6 63 84
f 6 84 76
f 6 76 51
f 6 51 30
f 6 30 15
f 7 16 8
f 7 17 18
f 7 18 19
f 7 19 20
f 7 20 16
f 8 16 11
f 9 21 10
f 9 13 21
f 10 21 22
f 10 22 23
f 11 16 20
f 11 20 24
f 11 24 25
f 11 25 26
f 11 26 27
f 11 27 12
f 12 27 22
f 12 22 13
f 13 22 21
f 14 29 28
f 15 30 31
f 17 32 18
f 18 32 33
f 18 33 34
f 18 34 35
f 18 35 25
f 18 25 19
f 19 25 24
f 19 24 20
f 22 27 36
f 22 36 37
f 22 37 38
f 22 38 39
f 22 39 40
f 22 40 23
f 25 35 26
f 26 35 41
f 26 41 42
f 26 42 43
f 26 43 44
f 26 44 27
f 27 44 36
f 28 29 46
f 28 46 40
f 28 40 47
f 28 47 39
f 28 39 48
f 28 48 49
f 28 49 50
f 28 50 45
f 30 51 31
f 31 51 52
f 33 53 34
f 33 54 53
f 34 53 35
f 35 53 41
f 36 44 55
f 36 55 37
f 37 55 43
f 37 43 56
f 37 56 57
f 37 57 58
f 37 58 38
f 38 58 59
f 38 59 60
f 38 60 61
f 38 61 62
f 38 62 63
f 38 63 49
f 38 49 48
f 38 48 64
f 38 64 39
f 39 47 40
f 39 64 48
f 41 53 65
f 41 65 66
f 41 66 42
f 42 66 67
f 42 67 68
f 42 68 69
f 42 69 70
f 42 70 43
f 43 70 56
f 43 55 44
f 45 50 71
f 49 63 50
f 50 63 71
f 51 72 73
f 51 73 74
f 51 74 75
f 51 75 52
f 51 76 72
f 53 54 77
f 53 77 65
f 56 78 79
f 56 79 80
f 56 80 81
f 56 81 57
f 56 70 78
f 57 81 58
f 58 81 59
f 59 81 80
f 59 80 82
f 59 82 60
f 60 82 83
f 60 83 76
f 60 76 84
f 60 84 61
f 61 84 85
f 61 85 62
f 62 85 63
f 63 85 84
f 65 77 86
f 65 86 67
f 65 67 66
f 67 86 87
f 67 87 68
f 68 87 69
f 69 88 102
f 69 102 89
f 69 89 78
f 69 78 70
f 69 87 88
f 72 90 73
f 72 76 83
f 72 83 91
f 72 91 90
f 73 90 92
f 77 87 86
f 77 93 88
f 77 88 87
f 78 89 94
f 78 94 95
f 78 95 96
f 78 96 80
f 78 80 79
f 80 97 98
f 80 98 82
f 80 96 97
f 82 99 91
f 82 91 83
f 82 98 99
f 88 93 100
f 88 100 101
f 88 101 102
f 89 102 107
f 89 107 94
f 90 91 103
f 90 103 92
f 91 99 103
f 92 103 104
f 92 104 105
f 92 105 106
f 94 107 108
f 94 108 95
f 95 108 109
f 95 109 96
f 96 109 97
f 97 110 105
f 97 105 98
f 97 109 110
f 98 105 99
f 99 105 104
f 99 104 103
f 101 111 109
f 101 109 108
f 101 108 107
f 101 107 102
f 105 110 106
f 106 110 109
f 106 109 112
f 109 111 113
f 109 113 112
