v -0.452458 0.213589 0.31732
v -0.450732 0.213589 0.356001
v -0.449359 0.228784 0.31732
v -0.452406 0.150302 0.31732
v -0.450653 0.0870369 0.356001
v -0.450692 0.150302 0.356001
v -0.444875 0.213589 0.364593
v -0.444265 0.225578 0.364372
v -0.446963 0.230278 0.357212
v -0.449222 0.229421 0.31732
v -0.452366 0.102848 0.31732
v -0.452353 0.0870369 0.31732
v -0.449694 0.0712042 0.356001
v -0.444422 0.0712042 0.364485
v -0.444724 0.0870369 0.364532
v -0.444744 0.102848 0.364541
v -0.444764 0.11868 0.36455
v -0.444856 0.197778 0.364588
v -0.435113 0.213589 0.365278
v -0.435993 0.230278 0.364738
v -0.431298 0.241455 0.364377
v -0.441849 0.236141 0.363292
v -0.444455 0.238754 0.352743
v -0.444455 0.238754 0.346869
v -0.448696 0.230278 0.31732
v -0.45125 0.0712042 0.31732
v -0.445886 0.0603782 0.356001
v -0.443759 0.0625522 0.364259
v -0.435113 0.0712042 0.36509
v -0.435113 0.0870369 0.365151
v -0.422173 0.213589 0.364597
v -0.422114 0.229421 0.364602
v -0.423794 0.241455 0.364377
v -0.422691 0.0712042 0.364522
v -0.422632 0.0870369 0.364532
v -0.42258 0.102848 0.364541
v -0.418831 0.246132 0.363043
v -0.419291 0.25608 0.355132
v -0.428626 0.254411 0.352762
v -0.435238 0.245386 0.358024
v -0.428626 0.254411 0.346752
v -0.427267 0.253555 0.31732
v -0.436308 0.24409 0.31732
v -0.448171 0.0646603 0.31732
v -0.446103 0.0601587 0.345902
v -0.438028 0.0524729 0.356001
v -0.427944 0.0469172 0.364255
v -0.433977 0.0565134 0.364569
v -0.424648 0.0469172 0.364255
v -0.423046 0.0553935 0.364471
v -0.414439 0.166134 0.363452
v -0.414268 0.213589 0.363475
v -0.414209 0.229421 0.36348
v -0.414787 0.0712042 0.363395
v -0.414728 0.0870369 0.363409
v -0.403475 0.256848 0.353752
v -0.403475 0.245232 0.35964
v -0.403475 0.259264 0.340184
v -0.403475 0.26236 0.31732
v -0.418844 0.259286 0.31732
v -0.445932 0.0610809 0.31732
v -0.427353 0.0429645 0.31732
v -0.430346 0.0449628 0.345766
v -0.430117 0.0451604 0.356001
v -0.419343 0.0438868 0.357212
v -0.403475 0.0553935 0.359489
v -0.415141 0.0553935 0.363184
v -0.403475 0.0433598 0.353686
v -0.39343 0.0448969 0.350898
v -0.403475 0.0712042 0.359705
v -0.403475 0.181945 0.359818
v -0.403475 0.213589 0.359846
v -0.403475 0.229421 0.359855
v -0.403475 0.0870369 0.359724
v -0.403475 0.11868 0.359757
v -0.393463 0.255443 0.350926
v -0.392386 0.245232 0.352362
v -0.389602 0.259176 0.31732
v -0.412909 0.0392534 0.31732
v -0.403475 0.0380456 0.31732
v -0.403475 0.040505 0.340184
v -0.392366 0.0553935 0.352306
v -0.389163 0.0553935 0.340184
v -0.392366 0.0436013 0.340184
v -0.389589 0.0412517 0.31732
v -0.385611 0.0553935 0.31732
v -0.392366 0.150302 0.352348
v -0.392366 0.229421 0.352381
v -0.388027 0.254213 0.31732
v -0.389209 0.245232 0.340184
v -0.385552 0.245232 0.31732
v -0.389163 0.229421 0.340184
v -0.399056 0.0389679 0.31732
v -0.385479 0.0712042 0.31732
v -0.385473 0.0808004 0.31732
v -0.385427 0.15992 0.31732
v -0.385401 0.207418 0.31732
v -0.385394 0.223251 0.31732
v -0.385394 0.229421 0.31732
v -0.385479 0.239061 0.31732
f 1 2 3
f 1 3 10
f 1 10 25
f 1 25 43
f 1 43 42
f 1 42 60
f 1 60 59
f 1 59 78
f 1 78 89
f 1 89 91
f 1 91 100
f 1 100 99
f 1 99 98
f 1 98 97
f 1 97 96
f 1 96 95
f 1 95 94
f 1 94 86
f 1 86 85
f 1 85 93
f 1 93 80
f 1 80 79
f 1 79 62
f 1 62 61
f 1 61 44
f 1 44 26
f 1 26 12
f 1 12 11
f 1 11 4
f 1 4 5
f 1 5 6
f 1 6 2
f 2 7 8
f 2 8 9
f 2 9 10
f 2 10 3
f 2 6 7
f 4 11 5
f 5 11 12
f 5 12 13
f 5 13 14
f 5 14 15
f 5 15 16
f 5 16 17
f 5 17 18
f 5 18 7
f 5 7 6
f 7 18 19
f 7 19 8
f 8 19 20
f 8 20 21
f 8 21 22
f 8 22 9
f 9 22 23
f 9 23 10
f 10 23 24
f 10 24 25
f 12 26 13
f 13 26 27
f 13 27 28
f 13 28 14
f 14 28 29
f 14 29 15
f 15 29 30
f 15 30 19
f 15 19 16
f 16 19 17
f 17 19 18
f 19 31 32
f 19 32 33
f 19 33 21
f 19 21 20
f 19 30 34
f 19 34 35
f 19 35 36
f 19 36 31
f 21 33 37
f 21 37 38
f 21 38 39
f 21 39 40
f 21 40 22
f 22 40 23
f 23 40 39
f 23 39 41
f 23 41 24
f 24 41 42
f 24 42 43
f 24 43 25
f 26 44 45
f 26 45 27
f 27 45 46
f 27 46 28
f 28 46 47
f 28 47 48
f 28 48 29
f 29 34 30
f 29 48 47
f 29 47 49
f 29 49 50
f 29 50 34
f 31 51 52
f 31 52 53
f 31 53 32
f 31 36 51
f 32 53 33
f 33 53 37
f 34 50 54
f 34 54 55
f 34 55 35
f 35 55 36
f 36 55 51
f 37 56 38
f 37 53 57
f 37 57 56
f 38 56 58
f 38 58 59
f 38 59 39
f 39 59 60
f 39 60 41
f 41 60 42
f 44 61 45
f 45 61 62
f 45 62 63
f 45 63 46
f 46 63 64
f 46 64 47
f 47 64 65
f 47 65 49
f 49 66 67
f 49 67 50
f 49 65 68
f 49 68 69
f 49 69 66
f 50 67 54
f 51 55 70
f 51 70 52
f 52 70 53
f 53 71 72
f 53 72 73
f 53 73 57
f 53 70 74
f 53 74 75
f 53 75 71
f 54 67 66
f 54 66 70
f 54 70 55
f 56 57 76
f 56 76 58
f 57 77 76
f 57 73 77
f 58 78 59
f 58 76 78
f 62 79 64
f 62 64 63
f 64 79 65
f 65 79 80
f 65 80 81
f 65 81 68
f 66 82 70
f 66 69 82
f 68 81 69
f 69 83 82
f 69 81 84
f 69 84 85
f 69 85 86
f 69 86 83
f 70 82 74
f 71 75 82
f 71 82 72
f 72 82 73
f 73 82 87
f 73 87 88
f 73 88 77
f 74 82 75
f 76 89 78
f 76 77 90
f 76 90 91
f 76 91 89
f 77 88 92
f 77 92 90
f 80 93 81
f 81 93 85
f 81 85 84
f 82 83 87
f 83 86 94
f 83 94 95
f 83 95 96
f 83 96 97
f 83 97 98
f 83 98 99
f 83 99 92
f 83 92 88
f 83 88 87
f 90 92 99
f 90 99 100
f 90 100 91
