v 0.399726 -0.158038 -0.390507
v 0.395189 -0.208278 0.223221
v 0.395267 -0.208278 -0.394291
v 0.381031 -0.241095 -0.681015
v 0.383065 -0.0871699 -0.692855
v 0.395659 -0.0949052 -0.392338
v 0.399648 -0.158038 0.226883
v 0.383065 -0.263988 0.223221
v 0.388306 -0.212966 0.428773
v 0.380875 -0.252971 0.416689
v 0.382596 -0.265941 -0.394291
v 0.361398 -0.285319 -0.685043
v 0.376964 -0.172961 -0.694442
v 0.364839 -0.312666 -0.394291
v 0.364527 -0.0967805 -0.704085
v 0.327841 0.0433143 -0.694442
v 0.365543 -0.000597145 -0.673081
v 0.381109 -0.0282567 -0.394291
v 0.39558 -0.0949052 0.222244
v 0.388462 -0.0902172 0.436951
v 0.391747 -0.166398 0.444397
v 0.364761 -0.312666 0.223221
v 0.36523 -0.294773 0.432801
v 0.358582 -0.258597 0.492123
v 0.318298 -0.383143 -0.670884
v 0.33402 -0.344935 -0.686019
v 0.284897 -0.391816 -0.701399
v 0.321583 -0.386034 -0.394291
v 0.332534 -0.37111 0.221268
v 0.0594643 0.215679 -0.703962
v 0.233976 0.135278 -0.703352
v 0.284115 0.0851943 -0.703352
v -0.0762493 -0.507689 -0.703596
v -0.156191 -0.4687 -0.704207
v -0.364572 -0.111704 -0.704207
v 0.309068 0.0932422 -0.681869
v 0.348569 0.0459709 -0.394291
v 0.377198 -0.0171616 0.223221
v 0.380562 -0.0455244 0.41852
v 0.373991 -0.0514626 0.471495
v 0.377902 -0.141161 0.487607
v 0.368438 -0.193823 0.497738
v 0.333082 -0.35939 0.424989
v 0.322287 -0.343685 0.489194
v 0.305235 -0.237891 0.542779
v 0.332691 -0.304774 0.50201
v 0.279422 -0.427914 -0.670517
v 0.233663 -0.457917 -0.684555
v 0.189233 -0.485499 -0.686874
v 0.0939598 -0.518002 -0.692367
v 0.267689 -0.445963 -0.394291
v 0.299055 -0.414318 0.222244
v 0.304687 -0.398379 0.431092
v -0.282753 0.0669109 -0.704085
v -0.0539563 0.218491 -0.700301
v 0.00830768 0.236228 -0.6837
v 0.0664259 0.237478 -0.678574
v 0.134478 0.216851 -0.678696
v 0.204721 0.175908 -0.686263
v 0.248134 0.156062 -0.681015
v 0.274807 0.122543 -0.685287
v -0.0300989 -0.539724 -0.686752
v -0.126389 -0.503157 -0.701277
v -0.208286 -0.439009 -0.704085
v -0.377166 -0.175305 -0.697371
v -0.390542 -0.110298 -0.683944
v -0.378261 -0.0664644 -0.688827
v -0.361834 -0.0157552 -0.687606
v -0.307314 0.0810532 -0.692367
v -0.325775 -0.345326 -0.697249
v 0.30899 0.10504 -0.394291
v 0.347787 0.0475336 0.223221
v 0.364057 -0.00145663 0.43512
v 0.32831 0.0306566 0.492978
v 0.346927 -0.0166147 0.497616
v 0.364292 -0.0851385 0.499081
v 0.318141 -0.148584 0.542779
v 0.314621 -0.192886 0.542779
v 0.294128 -0.390644 0.485166
v 0.282081 -0.294304 0.542779
v 0.238356 -0.358218 0.542779
v 0.220209 -0.482764 -0.394291
v 0.147228 -0.504016 -0.68663
v 0.177343 -0.507767 -0.394291
v 0.0563354 -0.540271 -0.670884
v 0.0133921 -0.53652 -0.68663
v 0.238669 -0.469325 0.222244
v 0.272695 -0.432914 0.432313
v -0.169411 0.193488 -0.693587
v -0.116924 0.217007 -0.687606
v -0.05951 0.246151 -0.394291
v -0.0128902 0.250527 -0.390507
v 0.050156 0.247089 -0.394291
v 0.121337 0.231931 -0.394291
v 0.194709 0.199661 -0.394291
v 0.262839 0.151843 -0.394779
v -0.0779702 -0.53652 -0.67186
v -0.0287691 -0.547693 -0.392338
v -0.148369 -0.515502 -0.667344
v -0.195928 -0.486202 -0.686263
v -0.233552 -0.455183 -0.687606
v -0.372785 -0.236797 -0.689315
v -0.393671 -0.219451 -0.394291
v -0.399381 -0.165461 -0.388676
v -0.39719 -0.104203 -0.394291
v -0.389134 -0.0561506 -0.394291
v -0.376305 -0.0134112 -0.394291
v -0.337117 0.0366729 -0.686874
v -0.348615 0.0459709 -0.394291
v -0.249978 0.14567 -0.683822
v -0.307314 0.106916 -0.394291
v -0.305046 -0.39455 -0.677963
v -0.360427 -0.289147 -0.686996
v 0.268002 0.147155 0.223465
v 0.30899 0.10504 0.223221
v 0.310085 0.0939454 0.427675
v 0.336914 0.0537062 0.432557
v 0.279578 0.094883 0.495663
v 0.262057 0.0293283 0.542779
v 0.298273 -0.0395862 0.542779
v 0.312118 -0.0912329 0.542779
v 0.194709 -0.46448 0.498715
v 0.245005 -0.440962 0.482236
v 0.177656 -0.412052 0.542779
v 0.177343 -0.507689 0.223221
v 0.138468 -0.524175 -0.394291
v 0.13706 -0.524722 0.223221
v 0.0911438 -0.53863 -0.395146
v 0.0446023 -0.546287 -0.394291
v 0.239295 -0.462293 0.423647
v 0.192753 -0.493859 0.416689
v 0.204721 -0.481826 0.460265
v -0.197805 0.198176 -0.394291
v -0.121305 0.231931 -0.394291
v -0.120835 0.231931 0.223221
v -0.05951 0.245995 0.223221
v 0.010185 0.250058 0.225052
v 0.0762036 0.243338 0.225052
v 0.131741 0.22818 0.223221
v 0.196195 0.19888 0.223221
v -0.0874349 -0.539411 -0.395146
v -0.138513 -0.524175 -0.394291
v -0.0874349 -0.539333 0.223587
v -0.0268918 -0.547615 0.225052
v -0.195067 -0.497766 -0.394291
v -0.268595 -0.439634 -0.665879
v -0.382641 -0.265941 -0.394291
v -0.383032 -0.263988 0.223221
v -0.393592 -0.219451 0.223221
v -0.398755 -0.176634 0.213822
v -0.396095 -0.0986557 0.223221
v -0.38092 -0.0281004 0.223221
v -0.348537 0.0459709 0.223221
v -0.262885 0.151843 -0.394779
v -0.298554 0.116604 0.225296
v -0.30927 -0.402989 -0.394291
v -0.33391 -0.369 -0.394291
v -0.364807 -0.312666 -0.394291
v 0.220052 0.177471 0.424867
v 0.262839 0.14067 0.448059
v 0.209727 0.159891 0.493954
v 0.208945 0.089648 0.542779
v 0.0965411 -0.512924 0.490415
v 0.158414 -0.494484 0.481748
v 0.118834 -0.443697 0.542779
v 0.138076 -0.51769 0.431825
v 0.101078 -0.530816 0.416689
v 0.0911438 -0.53863 0.223587
v 0.0446023 -0.546209 0.223221
v -0.261633 0.153327 0.221268
v -0.197727 0.198176 0.223221
v -0.148995 0.216382 0.416689
v -0.102219 0.231071 0.432313
v -0.050671 0.241229 0.431214
v -0.00553745 0.244823 0.431459
v 0.0524244 0.240291 0.435853
v 0.104129 0.231462 0.41852
v 0.150748 0.215757 0.414736
v -0.137027 -0.524722 0.223221
v -0.195067 -0.497688 0.223221
v -0.0587278 -0.538239 0.433656
v -0.111605 -0.526832 0.42975
v 9.44667e-05 -0.54449 0.416689
v -0.267656 -0.445963 -0.394291
v -0.255063 -0.457214 0.223221
v -0.364729 -0.312666 0.223221
v -0.365667 -0.294304 0.43451
v -0.384753 -0.237969 0.41852
v -0.393827 -0.173899 0.42267
v -0.389681 -0.0915455 0.434022
v -0.379356 -0.0392736 0.422182
v -0.364181 -0.00130035 0.436463
v -0.334144 0.0580036 0.437196
v -0.284709 0.120511 0.446106
v -0.252169 0.153327 0.434022
v -0.299101 -0.414318 0.222244
v -0.33258 -0.37111 0.221268
v 0.194787 0.187238 0.465758
v 0.153017 0.187316 0.499691
v 0.147228 0.131919 0.542779
v 0.0711974 -0.459089 0.542779
v 0.025751 -0.466512 0.542779
v 0.0187111 -0.523316 0.491635
v 0.0596207 -0.53777 0.434266
v -0.20899 0.185128 0.424867
v -0.150481 0.211381 0.459411
v -0.0763275 0.220601 0.488828
v 0.0054135 0.235056 0.479063
v 0.107257 0.215132 0.483457
v 0.14848 0.21185 0.458923
v -0.157443 -0.511595 0.412905
v -0.207113 -0.485342 0.414736
v -0.156269 -0.507532 0.458678
v -0.0665499 -0.518002 0.492978
v -0.250682 -0.45237 0.434998
v -0.287681 -0.419709 0.416689
v -0.337664 -0.352514 0.431825
v -0.314667 -0.355014 0.491391
v -0.347051 -0.282584 0.497738
v -0.378887 -0.220467 0.471251
v -0.389603 -0.139286 0.463927
v -0.37169 -0.0490404 0.474058
v -0.315762 0.0462834 0.498227
v -0.301135 0.0915232 0.472227
v -0.23011 0.148639 0.491025
v -0.194441 0.174971 0.486509
v -0.31631 -0.386268 0.416689
v 0.0636882 0.215522 0.499081
v 0.0862941 0.156765 0.542779
v -0.0299424 -0.465887 0.542779
v -0.13515 0.196067 0.498227
v -0.0888429 0.156453 0.542779
v -0.0426925 0.165985 0.542779
v 0.0204319 0.16786 0.542779
v -0.200699 -0.48378 0.460387
v -0.125841 -0.498313 0.498349
v -0.204141 -0.461199 0.495907
v -0.0916589 -0.453307 0.542779
v -0.272662 -0.408849 0.490048
v -0.302543 -0.397676 0.457336
v -0.225339 -0.374157 0.542779
v -0.265075 -0.324386 0.542779
v -0.30442 -0.240782 0.542779
v -0.317014 -0.178743 0.542779
v -0.370048 -0.14874 0.500424
v -0.367545 -0.0885764 0.49664
v -0.337117 -0.00169102 0.502255
v -0.283301 -0.00442573 0.542779
v -0.254593 0.0412828 0.542779
v -0.254281 0.114182 0.503963
v -0.145475 0.133169 0.542779
v -0.175434 -0.414084 0.542779
v -0.318031 -0.130378 0.542779
v -0.305437 -0.060995 0.542779
v -0.209225 0.0895698 0.542779
f 1 2 3
f 1 3 4
f 1 4 5
f 1 5 6
f 1 6 7
f 1 7 2
f 2 8 3
f 2 7 9
f 2 9 10
f 2 10 8
f 3 8 11
f 3 11 4
f 4 12 13
f 4 13 5
f 4 11 14
f 4 14 12
f 5 13 15
f 5 15 16
f 5 16 17
f 5 17 6
f 6 18 19
f 6 19 7
f 6 17 18
f 7 20 21
f 7 21 9
f 7 19 20
f 8 22 11
f 8 10 23
f 8 23 22
f 9 21 24
f 9 24 23
f 9 23 10
f 11 22 14
f 12 14 25
f 12 25 26
f 12 26 27
f 12 27 13
f 13 27 15
f 14 28 25
f 14 22 29
f 14 29 28
f 15 30 31
f 15 31 32
f 15 32 16
f 15 27 33
f 15 33 34
f 15 34 35
f 15 35 30
f 16 32 36
f 16 36 17
f 17 36 37
f 17 37 18
f 18 37 38
f 18 38 19
f 19 38 39
f 19 39 20
f 20 40 41
f 20 41 21
f 20 39 40
f 21 41 42
f 21 42 24
f 22 23 43
f 22 43 29
f 23 24 44
f 23 44 43
f 24 42 45
f 24 45 46
f 24 46 44
f 25 47 27
f 25 27 26
f 25 28 47
f 27 47 48
f 27 48 49
f 27 49 50
f 27 50 33
f 28 51 47
f 28 29 52
f 28 52 51
f 29 43 53
f 29 53 52
f 30 35 54
f 30 54 55
f 30 55 56
f 30 56 57
f 30 57 58
f 30 58 59
f 30 59 31
f 31 59 60
f 31 60 32
f 32 60 61
f 32 61 36
f 33 50 62
f 33 62 63
f 33 63 34
f 34 64 35
f 34 63 64
f 35 65 66
f 35 66 67
f 35 67 68
f 35 68 69
f 35 69 54
f 35 64 70
f 35 70 65
f 36 61 60
f 36 60 71
f 36 71 37
f 37 71 72
f 37 72 38
f 38 72 73
f 38 73 39
f 39 73 40
f 40 73 74
f 40 74 75
f 40 75 76
f 40 76 41
f 41 76 42
f 42 76 77
f 42 77 78
f 42 78 45
f 43 44 79
f 43 79 53
f 44 46 79
f 45 78 77
f 45 77 121
f 45 121 120
f 45 120 119
f 45 119 162
f 45 162 200
f 45 200 229
f 45 229 234
f 45 234 233
f 45 233 232
f 45 232 251
f 45 251 255
f 45 255 249
f 45 249 248
f 45 248 254
f 45 254 253
f 45 253 244
f 45 244 243
f 45 243 242
f 45 242 241
f 45 241 252
f 45 252 238
f 45 238 230
f 45 230 202
f 45 202 201
f 45 201 165
f 45 165 124
f 45 124 81
f 45 81 80
f 45 80 46
f 46 80 81
f 46 81 79
f 47 51 82
f 47 82 48
f 48 82 49
f 49 83 50
f 49 82 84
f 49 84 83
f 50 83 85
f 50 85 86
f 50 86 62
f 51 52 87
f 51 87 82
f 52 53 88
f 52 88 87
f 53 79 88
f 54 69 89
f 54 89 55
f 55 89 90
f 55 90 56
f 56 90 91
f 56 91 92
f 56 92 57
f 57 92 93
f 57 93 94
f 57 94 58
f 58 60 59
f 58 94 95
f 58 95 60
f 60 95 96
f 60 96 71
f 62 97 63
f 62 86 85
f 62 85 98
f 62 98 97
f 63 97 99
f 63 99 100
f 63 100 64
f 64 100 101
f 64 101 70
f 65 70 102
f 65 102 66
f 66 103 104
f 66 104 105
f 66 105 106
f 66 106 67
f 66 102 103
f 67 106 107
f 67 107 68
f 68 108 69
f 68 107 109
f 68 109 108
f 69 110 89
f 69 108 109
f 69 109 111
f 69 111 110
f 70 101 112
f 70 112 113
f 70 113 102
f 71 114 115
f 71 115 72
f 71 96 114
f 72 115 116
f 72 116 117
f 72 117 73
f 73 117 74
f 74 118 119
f 74 119 75
f 74 117 116
f 74 116 118
f 75 119 120
f 75 120 76
f 76 120 121
f 76 121 77
f 79 81 122
f 79 122 123
f 79 123 88
f 81 124 122
f 82 87 125
f 82 125 84
f 83 84 126
f 83 126 85
f 84 125 127
f 84 127 126
f 85 126 128
f 85 128 129
f 85 129 98
f 87 88 130
f 87 130 131
f 87 131 125
f 88 132 130
f 88 123 132
f 89 110 133
f 89 133 90
f 90 133 134
f 90 134 91
f 91 134 135
f 91 135 136
f 91 136 92
f 92 136 137
f 92 137 93
f 93 137 138
f 93 138 94
f 94 138 139
f 94 139 95
f 95 139 140
f 95 140 96
f 96 140 114
f 97 141 142
f 97 142 99
f 97 98 141
f 98 143 141
f 98 129 144
f 98 144 143
f 99 142 145
f 99 145 100
f 100 145 146
f 100 146 101
f 101 146 112
f 102 113 147
f 102 147 103
f 103 147 148
f 103 148 149
f 103 149 150
f 103 150 104
f 104 150 151
f 104 151 105
f 105 151 106
f 106 151 152
f 106 152 107
f 107 152 153
f 107 153 109
f 109 153 111
f 110 154 133
f 110 111 154
f 111 153 155
f 111 155 154
f 112 146 156
f 112 156 157
f 112 157 158
f 112 158 113
f 113 158 147
f 114 140 159
f 114 159 160
f 114 160 116
f 114 116 115
f 116 160 118
f 118 160 161
f 118 161 162
f 118 162 119
f 122 163 164
f 122 164 132
f 122 132 123
f 122 124 165
f 122 165 163
f 125 131 166
f 125 166 127
f 126 127 128
f 127 166 167
f 127 167 168
f 127 168 128
f 128 168 129
f 129 168 169
f 129 169 144
f 130 132 131
f 131 132 166
f 132 164 166
f 133 170 171
f 133 171 134
f 133 154 170
f 134 171 135
f 135 171 172
f 135 172 173
f 135 173 136
f 136 173 174
f 136 174 175
f 136 175 137
f 137 175 176
f 137 176 138
f 138 176 177
f 138 177 139
f 139 177 178
f 139 178 140
f 140 178 159
f 141 143 179
f 141 179 142
f 142 179 180
f 142 180 145
f 143 144 181
f 143 181 182
f 143 182 179
f 144 183 181
f 144 169 183
f 145 184 146
f 145 180 185
f 145 185 184
f 146 184 156
f 147 158 186
f 147 186 148
f 148 186 187
f 148 187 188
f 148 188 149
f 149 188 189
f 149 189 150
f 150 189 151
f 151 189 190
f 151 190 191
f 151 191 152
f 152 191 192
f 152 192 153
f 153 192 193
f 153 193 155
f 154 155 170
f 155 193 194
f 155 194 195
f 155 195 170
f 156 184 196
f 156 196 197
f 156 197 157
f 157 197 186
f 157 186 158
f 159 178 198
f 159 198 160
f 160 198 161
f 161 199 200
f 161 200 162
f 161 198 199
f 163 165 201
f 163 201 202
f 163 202 203
f 163 203 204
f 163 204 166
f 163 166 164
f 166 204 167
f 167 204 168
f 168 204 169
f 169 204 183
f 170 195 205
f 170 205 171
f 171 205 172
f 172 205 206
f 172 206 173
f 173 206 207
f 173 207 174
f 174 207 208
f 174 208 175
f 175 208 176
f 176 208 209
f 176 209 210
f 176 210 177
f 177 210 178
f 178 210 198
f 179 182 211
f 179 211 180
f 180 211 212
f 180 212 185
f 181 213 182
f 181 183 203
f 181 203 214
f 181 214 213
f 182 213 211
f 183 204 203
f 184 185 196
f 185 212 215
f 185 215 216
f 185 216 196
f 186 197 217
f 186 217 187
f 187 217 218
f 187 218 219
f 187 219 220
f 187 220 188
f 188 220 189
f 189 220 221
f 189 221 190
f 190 221 222
f 190 222 191
f 191 222 192
f 192 222 223
f 192 223 193
f 193 224 194
f 193 223 224
f 194 224 225
f 194 225 195
f 195 225 226
f 195 226 205
f 196 216 227
f 196 227 197
f 197 227 217
f 198 210 199
f 199 210 209
f 199 209 228
f 199 228 229
f 199 229 200
f 202 230 203
f 203 230 214
f 205 226 206
f 206 226 231
f 206 231 207
f 207 231 232
f 207 232 233
f 207 233 208
f 208 233 234
f 208 234 228
f 208 228 209
f 211 213 212
f 212 213 235
f 212 235 215
f 213 214 236
f 213 236 237
f 213 237 235
f 214 230 238
f 214 238 236
f 215 235 239
f 215 239 240
f 215 240 216
f 216 240 227
f 217 227 240
f 217 240 218
f 218 239 241
f 218 241 242
f 218 242 219
f 218 240 239
f 219 242 243
f 219 243 244
f 219 244 245
f 219 245 220
f 220 245 221
f 221 245 246
f 221 246 222
f 222 246 247
f 222 247 223
f 223 247 248
f 223 248 249
f 223 249 250
f 223 250 224
f 224 250 225
f 225 250 251
f 225 251 231
f 225 231 226
f 228 234 229
f 231 251 232
f 235 237 239
f 236 238 252
f 236 252 237
f 237 252 241
f 237 241 239
f 244 253 245
f 245 253 246
f 246 253 254
f 246 254 247
f 247 254 248
f 249 255 250
f 250 255 251
