v 0.154083 0.00707086 0.31073
v 0.155241 0.174176 0.31073
v 0.219625 0.0253369 0.31073
v 0.219516 0.00745823 0.310783
v 0.310305 0.00707086 0.35697
v 0.154083 0.00707086 0.452401
v 0.154083 0.311454 0.411698
v 0.156181 0.296466 0.367462
v 0.156868 0.280495 0.358393
v 0.176455 0.283325 0.362822
v 0.210057 0.260411 0.359448
v 0.24366 0.243635 0.360449
v 0.167918 0.159814 0.31073
v 0.218232 0.0406231 0.31073
v 0.215139 0.0588295 0.31073
v 0.316834 0.0252177 0.362664
v 0.324864 0.0077562 0.365089
v 0.338825 0.00707086 0.411698
v 0.232284 0.00707086 0.826059
v 0.222157 0.00948447 0.807869
v 0.154083 0.18991 0.831753
v 0.155476 0.307759 0.389659
v 0.154083 0.311484 0.428464
v 0.178824 0.30323 0.411698
v 0.193256 0.296347 0.394879
v 0.193166 0.282789 0.367778
v 0.174393 0.301353 0.388604
v 0.208574 0.284964 0.379905
v 0.210057 0.273611 0.366091
v 0.202009 0.10141 0.31073
v 0.188536 0.127632 0.31073
v 0.180397 0.14122 0.31073
v 0.228993 0.266937 0.368622
v 0.249393 0.254332 0.369624
v 0.265941 0.22671 0.367831
v 0.266466 0.210023 0.362928
v 0.211414 0.0756354 0.31073
v 0.310829 0.0420236 0.361504
v 0.306055 0.0924413 0.366038
v 0.320161 0.0468806 0.368622
v 0.329873 0.0252177 0.378059
v 0.336275 0.0159804 0.393139
v 0.336113 0.0256646 0.411698
v 0.338844 0.00707086 0.446601
v 0.245143 0.00707086 0.837816
v 0.237782 0.0218505 0.838186
v 0.154083 0.203944 0.845356
v 0.229228 0.286424 0.428464
v 0.154083 0.311454 0.445336
v 0.174628 0.304631 0.445336
v 0.193256 0.298254 0.411698
v 0.218883 0.285828 0.394246
v 0.210057 0.292235 0.411698
v 0.227582 0.285799 0.411698
v 0.242177 0.268158 0.379747
v 0.254529 0.266102 0.394668
v 0.267388 0.240655 0.380116
v 0.275255 0.193187 0.364562
v 0.28551 0.193187 0.378165
v 0.287409 0.17662 0.370836
v 0.294028 0.109247 0.361451
v 0.283177 0.159605 0.362822
v 0.291261 0.142859 0.364826
v 0.303215 0.120868 0.371838
v 0.325695 0.0420236 0.378059
v 0.320143 0.0662193 0.379219
v 0.330705 0.0420236 0.394879
v 0.332315 0.0420236 0.411698
v 0.336113 0.0256646 0.445336
v 0.338825 0.00707086 0.530644
v 0.260425 0.00707086 0.845672
v 0.154083 0.226799 0.849363
v 0.238524 0.282729 0.478974
v 0.249683 0.276561 0.428464
v 0.249393 0.275489 0.411698
v 0.210057 0.292771 0.478974
v 0.229011 0.286335 0.49574
v 0.154083 0.311365 0.462102
v 0.17461 0.304601 0.462102
v 0.269468 0.245065 0.394879
v 0.262993 0.260411 0.411698
v 0.278601 0.226799 0.394879
v 0.284352 0.207371 0.388763
v 0.296108 0.159605 0.378059
v 0.296307 0.176411 0.394879
v 0.302745 0.144408 0.385704
v 0.319564 0.0853494 0.393191
v 0.326509 0.0588295 0.394879
v 0.30213 0.157311 0.396302
v 0.311299 0.126023 0.411698
v 0.332315 0.0420236 0.428464
v 0.332297 0.0420236 0.546145
v 0.336095 0.025605 0.529379
v 0.336076 0.0255454 0.546145
v 0.338789 0.00707086 0.54741
v 0.277227 0.00707086 0.848994
v 0.260425 0.0252177 0.84794
v 0.277227 0.0252177 0.849363
v 0.154083 0.243635 0.849363
v 0.238216 0.282372 0.512559
v 0.24366 0.279541 0.529379
v 0.249664 0.276442 0.49574
v 0.255723 0.272688 0.478974
v 0.182803 0.30177 0.478974
v 0.193256 0.298075 0.49574
v 0.210057 0.291967 0.529379
v 0.222446 0.286961 0.579783
v 0.231344 0.284279 0.562964
v 0.154083 0.311156 0.478974
v 0.270408 0.246764 0.411698
v 0.263608 0.260411 0.428464
v 0.282399 0.221316 0.411698
v 0.29231 0.193187 0.411698
v 0.297898 0.176411 0.411698
v 0.302637 0.160469 0.411698
v 0.307086 0.142859 0.781296
v 0.311299 0.126023 0.781296
v 0.323905 0.0756354 0.680487
v 0.33226 0.0420236 0.562964
v 0.319456 0.093365 0.764477
v 0.335118 0.0290616 0.579783
v 0.33604 0.0253071 0.562964
v 0.338735 0.00707086 0.564229
v 0.294028 0.00707086 0.847729
v 0.277227 0.0588295 0.849363
v 0.176455 0.243635 0.849363
v 0.156868 0.260411 0.84852
v 0.157953 0.286752 0.836235
v 0.157519 0.302217 0.805075
v 0.154083 0.305942 0.747658
v 0.255072 0.271615 0.562964
v 0.255416 0.272121 0.529379
v 0.25556 0.27239 0.512559
v 0.230856 0.2841 0.579783
v 0.230367 0.283921 0.596444
v 0.24366 0.279124 0.546145
v 0.254132 0.270602 0.630082
v 0.254656 0.271108 0.596444
v 0.26822 0.250995 0.747658
v 0.26359 0.260411 0.49574
v 0.159653 0.307521 0.579783
v 0.186872 0.298939 0.562964
v 0.193256 0.295632 0.630082
v 0.210057 0.291043 0.579783
v 0.176455 0.298314 0.781296
v 0.193256 0.293725 0.730891
v 0.193256 0.292741 0.781296
v 0.213313 0.286722 0.747658
v 0.154083 0.309905 0.546145
v 0.272524 0.242622 0.428464
v 0.268329 0.250995 0.646849
v 0.265977 0.255703 0.478974
v 0.282399 0.221316 0.428464
v 0.286143 0.211632 0.445336
v 0.29231 0.193187 0.445336
v 0.297898 0.176411 0.445336
v 0.302637 0.160469 0.445336
v 0.302618 0.160469 0.781296
v 0.315188 0.109247 0.798115
v 0.315495 0.109247 0.781296
v 0.319456 0.0933948 0.747658
v 0.31942 0.0932458 0.781296
v 0.323471 0.0756354 0.764477
v 0.32329 0.0756354 0.781296
v 0.337198 0.00707086 0.782298
v 0.337939 0.00707086 0.700891
v 0.300358 0.0420236 0.84504
v 0.294028 0.0756354 0.84562
v 0.277227 0.0924413 0.848889
v 0.277227 0.0756354 0.84931
v 0.318696 0.00707086 0.835813
v 0.260425 0.126023 0.849363
v 0.226859 0.226799 0.849363
v 0.193256 0.243635 0.849099
v 0.176455 0.273403 0.842562
v 0.210057 0.243635 0.848414
v 0.176455 0.260411 0.847149
v 0.209913 0.266072 0.840189
v 0.176455 0.288153 0.827746
v 0.176455 0.297747 0.798115
v 0.160793 0.30323 0.781296
v 0.156036 0.304958 0.766638
v 0.176455 0.293993 0.814881
v 0.166381 0.301919 0.764477
v 0.154083 0.306985 0.697253
v 0.263825 0.255226 0.781296
v 0.212318 0.286365 0.781296
v 0.229843 0.283713 0.613263
v 0.226859 0.280644 0.781296
v 0.24366 0.27823 0.579783
v 0.253517 0.270065 0.663668
v 0.259376 0.259368 0.798115
v 0.270155 0.246257 0.798115
v 0.270354 0.246764 0.764477
v 0.272524 0.242622 0.747658
v 0.268238 0.250995 0.730891
v 0.268292 0.250995 0.680487
v 0.156868 0.307461 0.630082
v 0.168226 0.302485 0.701946
v 0.177232 0.299952 0.680487
v 0.17168 0.300519 0.747658
v 0.154083 0.30767 0.663668
v 0.282272 0.22072 0.781296
v 0.282146 0.220452 0.798115
v 0.301787 0.158384 0.804653
v 0.318552 0.0909216 0.804495
v 0.322802 0.0756354 0.798115
v 0.336691 0.00707086 0.798115
v 0.299671 0.0588295 0.84446
v 0.291333 0.109247 0.843353
v 0.277227 0.126023 0.846885
v 0.277227 0.109247 0.84794
v 0.260425 0.142859 0.849099
v 0.260425 0.159605 0.848309
v 0.319311 0.0252177 0.832966
v 0.299218 0.0908322 0.840822
v 0.333309 0.00707086 0.813563
v 0.24366 0.193187 0.849099
v 0.24366 0.210023 0.848414
v 0.24366 0.226799 0.846885
v 0.193256 0.260411 0.845514
v 0.226859 0.249743 0.844565
v 0.242394 0.254749 0.836129
v 0.229391 0.267413 0.830962
v 0.191647 0.286544 0.821366
v 0.209587 0.285441 0.805127
v 0.226859 0.280137 0.798115
v 0.226859 0.277008 0.814881
v 0.24366 0.276323 0.646849
v 0.24366 0.277306 0.613263
v 0.25216 0.268933 0.735689
v 0.251618 0.268546 0.758044
v 0.246355 0.270214 0.798115
v 0.244112 0.268814 0.814881
v 0.256537 0.256537 0.82105
v 0.268835 0.244082 0.814881
v 0.272524 0.242413 0.781296
v 0.273772 0.229332 0.82047
v 0.284569 0.202484 0.815672
v 0.287101 0.181656 0.825637
v 0.301606 0.138181 0.821314
v 0.311462 0.109247 0.814881
v 0.317521 0.0756354 0.819047
v 0.279777 0.151858 0.843089
v 0.260425 0.193187 0.845251
v 0.317955 0.0420236 0.830593
v 0.303034 0.115773 0.829222
v 0.289669 0.158533 0.832333
v 0.319203 0.0587401 0.823106
v 0.26605 0.209427 0.840136
v 0.259611 0.236185 0.835128
f 1 2 13
f 1 13 32
f 1 32 31
f 1 31 30
f 1 30 37
f 1 37 15
f 1 15 14
f 1 14 3
f 1 3 4
f 1 4 5
f 1 5 18
f 1 18 44
f 1 44 70
f 1 70 95
f 1 95 123
f 1 123 166
f 1 166 165
f 1 165 208
f 1 208 217
f 1 217 171
f 1 171 124
f 1 124 96
f 1 96 71
f 1 71 45
f 1 45 19
f 1 19 6
f 1 6 21
f 1 21 47
f 1 47 72
f 1 72 99
f 1 99 130
f 1 130 185
f 1 185 202
f 1 202 149
f 1 149 109
f 1 109 78
f 1 78 49
f 1 49 23
f 1 23 7
f 1 7 2
f 2 8 9
f 2 9 10
f 2 10 11
f 2 11 12
f 2 12 13
f 2 7 8
f 3 14 5
f 3 5 4
f 5 14 15
f 5 15 16
f 5 16 17
f 5 17 18
f 6 19 20
f 6 20 21
f 7 22 8
f 7 23 24
f 7 24 25
f 7 25 22
f 8 26 10
f 8 10 9
f 8 22 27
f 8 27 28
f 8 28 26
f 10 26 29
f 10 29 11
f 11 29 12
f 12 30 31
f 12 31 32
f 12 32 13
f 12 29 33
f 12 33 34
f 12 34 35
f 12 35 36
f 12 36 30
f 15 37 16
f 16 38 39
f 16 39 17
f 16 37 38
f 17 39 40
f 17 40 41
f 17 41 42
f 17 42 18
f 18 42 43
f 18 43 44
f 19 45 46
f 19 46 47
f 19 47 20
f 20 47 21
f 22 25 27
f 23 48 24
f 23 49 50
f 23 50 48
f 24 51 25
f 24 48 51
f 25 52 28
f 25 28 27
f 25 51 53
f 25 53 54
f 25 54 52
f 26 28 33
f 26 33 29
f 28 52 55
f 28 55 33
f 30 36 37
f 33 55 34
f 34 55 56
f 34 56 57
f 34 57 35
f 35 58 36
f 35 57 59
f 35 59 60
f 35 60 58
f 36 58 37
f 37 61 38
f 37 58 62
f 37 62 63
f 37 63 61
f 38 61 39
f 39 61 63
f 39 63 60
f 39 60 64
f 39 64 40
f 40 64 65
f 40 65 41
f 41 65 66
f 41 66 67
f 41 67 42
f 42 67 43
f 43 68 91
f 43 91 69
f 43 69 44
f 43 67 68
f 44 69 70
f 45 71 46
f 46 71 47
f 47 71 72
f 48 73 74
f 48 74 75
f 48 75 54
f 48 54 53
f 48 53 51
f 48 50 76
f 48 76 77
f 48 77 73
f 49 78 79
f 49 79 50
f 50 79 76
f 52 54 75
f 52 75 55
f 55 75 56
f 56 80 57
f 56 75 81
f 56 81 80
f 57 80 82
f 57 82 83
f 57 83 59
f 58 63 62
f 58 60 63
f 59 84 60
f 59 83 85
f 59 85 84
f 60 84 64
f 64 84 66
f 64 66 65
f 66 84 86
f 66 86 87
f 66 87 67
f 67 88 89
f 67 89 68
f 67 87 88
f 68 89 90
f 68 90 117
f 68 117 91
f 69 91 92
f 69 92 93
f 69 93 70
f 70 93 94
f 70 94 95
f 71 96 97
f 71 97 72
f 72 96 98
f 72 98 125
f 72 125 172
f 72 172 173
f 72 173 126
f 72 126 99
f 72 97 96
f 73 77 100
f 73 100 101
f 73 101 102
f 73 102 74
f 74 81 75
f 74 102 103
f 74 103 81
f 76 79 104
f 76 104 77
f 77 104 105
f 77 105 106
f 77 106 107
f 77 107 108
f 77 108 100
f 78 109 104
f 78 104 79
f 80 81 110
f 80 110 82
f 81 103 111
f 81 111 110
f 82 110 112
f 82 112 113
f 82 113 85
f 82 85 83
f 84 85 86
f 85 113 114
f 85 114 89
f 85 89 86
f 86 89 87
f 87 89 88
f 89 114 115
f 89 115 90
f 90 115 116
f 90 116 117
f 91 117 118
f 91 118 92
f 92 119 94
f 92 94 93
f 92 118 120
f 92 120 119
f 94 119 121
f 94 121 122
f 94 122 123
f 94 123 95
f 96 124 98
f 98 124 125
f 99 126 127
f 99 127 128
f 99 128 129
f 99 129 130
f 100 108 101
f 101 131 132
f 101 132 133
f 101 133 102
f 101 108 134
f 101 134 135
f 101 135 136
f 101 136 137
f 101 137 138
f 101 138 131
f 102 133 103
f 103 133 139
f 103 139 140
f 103 140 111
f 104 109 105
f 105 109 141
f 105 141 142
f 105 142 143
f 105 143 106
f 106 144 107
f 106 143 144
f 107 144 143
f 107 143 145
f 107 145 146
f 107 146 147
f 107 147 148
f 107 148 108
f 108 148 134
f 109 149 141
f 110 111 150
f 110 150 112
f 111 140 151
f 111 151 152
f 111 152 150
f 112 150 195
f 112 195 153
f 112 153 154
f 112 154 113
f 113 154 155
f 113 155 156
f 113 156 114
f 114 156 157
f 114 157 115
f 115 157 116
f 116 158 159
f 116 159 117
f 116 157 158
f 117 159 160
f 117 160 118
f 118 160 161
f 118 161 120
f 119 120 162
f 119 162 121
f 120 161 160
f 120 160 162
f 121 162 163
f 121 163 164
f 121 164 165
f 121 165 122
f 122 165 166
f 122 166 123
f 124 167 168
f 124 168 169
f 124 169 170
f 124 170 125
f 124 171 167
f 125 170 172
f 126 173 174
f 126 174 127
f 127 175 128
f 127 174 176
f 127 176 177
f 127 177 175
f 128 175 178
f 128 178 179
f 128 179 129
f 129 180 181
f 129 181 182
f 129 182 130
f 129 179 183
f 129 183 180
f 130 182 184
f 130 184 185
f 131 138 186
f 131 186 139
f 131 139 132
f 132 139 133
f 134 148 187
f 134 187 135
f 135 187 188
f 135 188 189
f 135 189 136
f 136 190 137
f 136 189 190
f 137 191 192
f 137 192 186
f 137 186 138
f 137 190 191
f 139 186 193
f 139 193 194
f 139 194 195
f 139 195 196
f 139 196 140
f 140 196 197
f 140 197 151
f 141 149 198
f 141 198 184
f 141 184 199
f 141 199 200
f 141 200 142
f 142 200 143
f 143 200 201
f 143 201 145
f 145 181 180
f 145 180 147
f 145 147 146
f 145 201 184
f 145 184 181
f 147 180 187
f 147 187 148
f 149 202 198
f 150 152 195
f 151 197 195
f 151 195 152
f 153 195 203
f 153 203 154
f 154 203 158
f 154 158 155
f 155 158 156
f 156 158 157
f 158 203 204
f 158 204 205
f 158 205 159
f 159 205 206
f 159 206 207
f 159 207 162
f 159 162 160
f 162 207 164
f 162 164 163
f 164 207 165
f 165 207 208
f 167 209 168
f 167 171 209
f 168 209 210
f 168 210 211
f 168 211 212
f 168 212 169
f 169 213 170
f 169 212 214
f 169 214 213
f 170 213 172
f 171 215 216
f 171 216 209
f 171 217 215
f 172 213 173
f 173 213 218
f 173 218 219
f 173 219 220
f 173 220 176
f 173 176 174
f 175 177 221
f 175 221 178
f 176 220 222
f 176 222 221
f 176 221 177
f 178 223 224
f 178 224 179
f 178 221 222
f 178 222 223
f 179 225 183
f 179 224 225
f 180 183 226
f 180 226 227
f 180 227 187
f 181 184 182
f 183 225 228
f 183 228 226
f 184 201 199
f 184 198 202
f 184 202 185
f 186 192 193
f 187 227 189
f 187 189 188
f 189 227 229
f 189 229 230
f 189 230 190
f 190 230 231
f 190 231 191
f 191 231 192
f 192 231 232
f 192 232 233
f 192 233 234
f 192 234 235
f 192 235 236
f 192 236 193
f 193 204 237
f 193 237 194
f 193 236 204
f 194 237 195
f 195 197 196
f 195 237 203
f 199 201 200
f 203 237 204
f 204 236 238
f 204 238 239
f 204 239 205
f 205 239 240
f 205 240 241
f 205 241 242
f 205 242 206
f 206 242 243
f 206 243 217
f 206 217 208
f 206 208 207
f 209 216 210
f 210 216 244
f 210 244 211
f 211 220 219
f 211 219 214
f 211 214 212
f 211 244 245
f 211 245 220
f 213 214 219
f 213 219 218
f 215 246 216
f 215 217 246
f 216 246 247
f 216 247 248
f 216 248 244
f 217 243 249
f 217 249 246
f 220 245 250
f 220 250 251
f 220 251 223
f 220 223 222
f 223 251 235
f 223 235 224
f 224 235 234
f 224 234 228
f 224 228 225
f 226 228 227
f 227 228 234
f 227 234 233
f 227 233 229
f 229 231 230
f 229 233 231
f 231 233 232
f 235 251 236
f 236 251 238
f 238 240 239
f 238 251 250
f 238 250 240
f 240 250 248
f 240 248 241
f 241 248 247
f 241 247 243
f 241 243 242
f 243 247 249
f 244 248 250
f 244 250 245
f 246 249 247
