v 0.356248 -0.0756268 0.78131
v 0.355751 -0.058826 0.764507
v 0.355569 -0.058826 0.78131
v 0.355725 -0.0756268 0.798114
v 0.356039 -0.0924097 0.798114
v 0.356248 -0.0924097 0.78131
v 0.356248 -0.0756268 0.49247
v 0.354053 -0.0466594 0.714096
v 0.354053 -0.0466773 0.747703
v 0.354053 -0.0466951 0.764507
v 0.355751 -0.058826 0.49247
v 0.35387 -0.047053 0.78131
v 0.353426 -0.0483949 0.792035
v 0.35421 -0.0590944 0.797834
v 0.353426 -0.0648736 0.808035
v 0.354027 -0.0756268 0.810236
v 0.35434 -0.0924097 0.812367
v 0.353609 -0.10921 0.809852
v 0.354549 -0.10921 0.798114
v 0.354759 -0.10921 0.78131
v 0.355046 -0.106008 0.49247
v 0.356248 -0.0924097 0.49247
v 0.354053 -0.0466594 0.49247
v 0.338819 0.00707086 0.530619
v 0.337957 0.00707086 0.700961
v 0.337226 0.00707086 0.78131
v 0.338793 0.00707086 0.547423
v 0.338636 0.00707086 0.58103
v 0.337173 0.00707086 0.783337
v 0.336703 0.00707086 0.798114
v 0.336598 0.00272306 0.807931
v 0.352015 -0.0536731 0.803249
v 0.345247 -0.0420074 0.814917
v 0.349689 -0.0590944 0.814149
v 0.351153 -0.0756268 0.818655
v 0.352119 -0.0924097 0.820786
v 0.35178 -0.10921 0.818271
v 0.352851 -0.117638 0.806603
v 0.352956 -0.11787 0.798114
v 0.35306 -0.118067 0.78131
v 0.3534 -0.116385 0.49247
v 0.354759 -0.10921 0.49247
v 0.338819 0.00707086 0.49247
v 0.333698 0.00707086 0.812647
v 0.335841 -0.017513 0.822848
v 0.337382 -0.0287135 0.825817
v 0.339107 -0.0420074 0.828612
v 0.340204 -0.0598459 0.832734
v 0.343601 -0.0756268 0.831686
v 0.345195 -0.0924097 0.831686
v 0.344646 -0.10921 0.831686
v 0.339682 -0.125117 0.831267
v 0.347651 -0.124347 0.813276
v 0.340309 -0.139878 0.798114
v 0.348723 -0.126262 0.798114
v 0.348853 -0.126476 0.78131
v 0.352276 -0.119677 0.49247
v 0.35306 -0.118067 0.49247
v 0.204095 0.00707086 0.49247
v 0.33294 0.00707086 0.814498
v 0.324213 0.00707086 0.830603
v 0.333123 -0.0420074 0.836996
v 0.334874 -0.0549434 0.839057
v 0.336233 -0.0661439 0.840245
v 0.336886 -0.0756268 0.840664
v 0.337513 -0.0924097 0.841084
v 0.337304 -0.10921 0.840944
v 0.336703 -0.118926 0.840525
v 0.336938 -0.135691 0.825363
v 0.333515 -0.130126 0.836577
v 0.338793 -0.138017 0.814917
v 0.331869 -0.146408 0.814917
v 0.333175 -0.148287 0.798114
v 0.340466 -0.140057 0.78131
v 0.348853 -0.126476 0.49247
v 0.0893332 -0.175716 0.49247
v 0.203781 0.00707086 0.59448
v 0.317498 0.00707086 0.838883
v 0.320581 -0.0128968 0.840979
v 0.322384 -0.0252066 0.842097
v 0.324709 -0.0420074 0.84318
v 0.328629 -0.0598459 0.843145
v 0.327636 -0.0756268 0.844507
v 0.327636 -0.0924097 0.844926
v 0.327636 -0.10921 0.844717
v 0.327793 -0.125117 0.842865
v 0.322305 -0.138071 0.841782
v 0.327375 -0.142472 0.831721
v 0.32126 -0.153243 0.826865
v 0.316975 -0.149271 0.838079
v 0.323455 -0.155444 0.814917
v 0.324762 -0.15675 0.798114
v 0.333306 -0.148466 0.78131
v 0.339107 -0.141667 0.49247
v 0.340466 -0.140057 0.49247
v 0.302708 -0.175716 0.49247
v 0.0894116 -0.175716 0.512488
v 0.203807 0.00707086 0.597694
v 0.316923 0.00707086 0.839197
v 0.309214 0.00707086 0.84311
v 0.310835 -0.0252066 0.846638
v 0.310835 -0.0420074 0.847791
v 0.310835 -0.058826 0.848385
v 0.310835 -0.0756268 0.84856
v 0.310835 -0.0924097 0.84856
v 0.310835 -0.10921 0.848525
v 0.310835 -0.126011 0.847826
v 0.311148 -0.143331 0.843739
v 0.305765 -0.153905 0.841433
v 0.304198 -0.169597 0.825922
v 0.306445 -0.171905 0.814917
v 0.314859 -0.163835 0.814917
v 0.28784 -0.169775 0.841049
v 0.299024 -0.165106 0.837136
v 0.305818 -0.175716 0.798114
v 0.324918 -0.156893 0.78131
v 0.333306 -0.148466 0.49247
v 0.307621 -0.172137 0.49247
v 0.302891 -0.175716 0.495684
v 0.0896729 -0.175716 0.529292
v 0.208171 0.00707086 0.680594
v 0.294033 0.00707086 0.847756
v 0.294033 -0.00840587 0.848525
v 0.294033 -0.0252066 0.849258
v 0.294033 -0.0420074 0.849363
v 0.294033 -0.10921 0.849363
v 0.294033 -0.126011 0.849328
v 0.294033 -0.142812 0.847826
v 0.293667 -0.159559 0.84318
v 0.277232 -0.159613 0.847127
v 0.292256 -0.175716 0.830778
v 0.292465 -0.175716 0.830533
v 0.300278 -0.175716 0.819634
v 0.302316 -0.175716 0.814917
v 0.303832 -0.175716 0.808524
v 0.27616 -0.175716 0.842481
v 0.276317 -0.175716 0.842411
v 0.284234 -0.175716 0.838184
v 0.291864 -0.175716 0.831162
v 0.306105 -0.175716 0.78131
v 0.324918 -0.156893 0.512488
v 0.324918 -0.156857 0.495684
v 0.326512 -0.155247 0.49247
v 0.309241 -0.170849 0.49247
v 0.307699 -0.172191 0.495684
v 0.303623 -0.175716 0.512488
v 0.0910316 -0.175716 0.546095
v 0.210941 0.00707086 0.7309
v 0.210836 0.00707086 0.729572
v 0.209896 0.00707086 0.712769
v 0.277232 0.00707086 0.849049
v 0.277232 -0.0252066 0.849363
v 0.227533 -0.175716 0.849363
v 0.277232 -0.142812 0.849153
v 0.26043 -0.159613 0.848909
v 0.244334 -0.175716 0.848629
v 0.261136 -0.175716 0.846254
v 0.26043 -0.175716 0.846359
v 0.306105 -0.175716 0.66372
v 0.308117 -0.173694 0.613309
v 0.3164 -0.165285 0.529292
v 0.31627 -0.165285 0.512488
v 0.324918 -0.156822 0.49247
v 0.308117 -0.173658 0.596506
v 0.316034 -0.165231 0.49247
v 0.307856 -0.172495 0.512488
v 0.304903 -0.175716 0.546095
v 0.304302 -0.175716 0.529292
v 0.0928084 -0.175716 0.563702
v 0.212326 0.00707086 0.746376
v 0.210052 -0.175716 0.849293
v 0.26043 -0.058826 0.849328
v 0.26043 0.00707086 0.84566
v 0.193251 -0.175716 0.847512
v 0.193956 -0.175716 0.847651
v 0.210052 -0.159613 0.848874
v 0.226828 -0.142812 0.849363
v 0.226828 -0.175716 0.849363
v 0.243629 -0.175716 0.848664
v 0.306027 -0.175716 0.613309
v 0.316087 -0.165249 0.495684
v 0.305948 -0.175716 0.596506
v 0.308065 -0.173086 0.546095
v 0.307986 -0.172799 0.529292
v 0.305321 -0.175716 0.562899
v 0.0958395 -0.175716 0.589135
v 0.212482 0.00707086 0.747703
v 0.259594 0.00707086 0.845346
v 0.176502 -0.175716 0.842551
v 0.177495 -0.175716 0.8429
v 0.193251 -0.159613 0.845765
v 0.305713 -0.175716 0.579702
v 0.111752 -0.175716 0.708646
v 0.117788 -0.175716 0.747703
v 0.123171 -0.175716 0.78131
v 0.12615 -0.175716 0.799651
v 0.215409 0.00707086 0.764996
v 0.113973 -0.175716 0.723528
v 0.249665 0.00707086 0.841363
v 0.169212 -0.175716 0.839546
v 0.126281 -0.175716 0.8
v 0.224502 0.00707086 0.813415
v 0.22121 0.00707086 0.798114
v 0.218231 0.00707086 0.78131
v 0.249012 0.00707086 0.840874
v 0.143213 -0.175716 0.82704
v 0.144101 -0.175716 0.827529
v 0.160719 -0.175716 0.835739
v 0.161869 -0.175716 0.836298
v 0.163594 -0.175716 0.837066
v 0.131088 -0.175716 0.812088
v 0.132526 -0.175716 0.814917
v 0.23255 0.00707086 0.826551
v 0.241277 0.00707086 0.83497
v 0.150842 -0.150506 0.823686
v 0.13506 -0.175716 0.818481
v 0.240546 0.00707086 0.834306
f 1 2 3
f 1 3 4
f 1 4 5
f 1 5 6
f 1 6 22
f 1 22 7
f 1 7 11
f 1 11 2
f 2 8 9
f 2 9 10
f 2 10 3
f 2 11 23
f 2 23 8
f 3 12 13
f 3 13 14
f 3 14 4
f 3 10 12
f 4 14 15
f 4 15 16
f 4 16 17
f 4 17 5
f 5 17 18
f 5 18 19
f 5 19 20
f 5 20 6
f 6 20 21
f 6 21 22
f 7 22 21
f 7 21 42
f 7 42 41
f 7 41 58
f 7 58 57
f 7 57 75
f 7 75 95
f 7 95 94
f 7 94 117
f 7 117 143
f 7 143 163
f 7 163 165
f 7 165 144
f 7 144 118
f 7 118 96
f 7 96 76
f 7 76 59
f 7 59 43
f 7 43 23
f 7 23 11
f 8 23 43
f 8 43 24
f 8 24 9
f 9 24 10
f 10 25 26
f 10 26 12
f 10 24 27
f 10 27 28
f 10 28 25
f 12 26 29
f 12 29 30
f 12 30 13
f 13 30 31
f 13 31 32
f 13 32 15
f 13 15 14
f 15 32 31
f 15 31 33
f 15 33 34
f 15 34 35
f 15 35 16
f 16 35 36
f 16 36 17
f 17 36 37
f 17 37 18
f 18 38 19
f 18 37 38
f 19 38 39
f 19 39 20
f 20 39 40
f 20 40 41
f 20 41 42
f 20 42 21
f 24 43 59
f 24 59 77
f 24 77 98
f 24 98 121
f 24 121 150
f 24 150 149
f 24 149 148
f 24 148 170
f 24 170 187
f 24 187 197
f 24 197 204
f 24 204 203
f 24 203 202
f 24 202 213
f 24 213 217
f 24 217 214
f 24 214 205
f 24 205 199
f 24 199 188
f 24 188 173
f 24 173 151
f 24 151 122
f 24 122 100
f 24 100 99
f 24 99 78
f 24 78 61
f 24 61 60
f 24 60 44
f 24 44 30
f 24 30 29
f 24 29 26
f 24 26 25
f 24 25 28
f 24 28 27
f 30 44 31
f 31 44 33
f 33 45 46
f 33 46 34
f 33 44 45
f 34 46 47
f 34 47 35
f 35 47 48
f 35 48 49
f 35 49 36
f 36 49 50
f 36 50 51
f 36 51 37
f 37 51 52
f 37 52 53
f 37 53 38
f 38 54 55
f 38 55 39
f 38 53 54
f 39 55 56
f 39 56 40
f 40 56 57
f 40 57 58
f 40 58 41
f 44 60 45
f 45 60 61
f 45 61 46
f 46 61 47
f 47 61 62
f 47 62 63
f 47 63 48
f 48 63 64
f 48 64 49
f 49 64 65
f 49 65 50
f 50 65 66
f 50 66 67
f 50 67 51
f 51 67 68
f 51 68 52
f 52 69 53
f 52 68 70
f 52 70 69
f 53 69 71
f 53 71 54
f 54 71 72
f 54 72 73
f 54 73 74
f 54 74 55
f 55 74 56
f 56 74 95
f 56 95 75
f 56 75 57
f 59 76 77
f 61 78 62
f 62 78 63
f 63 78 79
f 63 79 80
f 63 80 64
f 64 80 81
f 64 81 82
f 64 82 65
f 65 82 83
f 65 83 66
f 66 83 84
f 66 84 85
f 66 85 67
f 67 85 68
f 68 85 86
f 68 86 87
f 68 87 70
f 69 70 88
f 69 88 89
f 69 89 72
f 69 72 71
f 70 87 90
f 70 90 88
f 72 89 91
f 72 91 73
f 73 91 92
f 73 92 93
f 73 93 74
f 74 93 94
f 74 94 95
f 76 96 119
f 76 119 146
f 76 146 168
f 76 168 167
f 76 167 185
f 76 185 192
f 76 192 182
f 76 182 180
f 76 180 159
f 76 159 140
f 76 140 115
f 76 115 135
f 76 135 134
f 76 134 133
f 76 133 132
f 76 132 131
f 76 131 139
f 76 139 138
f 76 138 137
f 76 137 136
f 76 136 157
f 76 157 158
f 76 158 156
f 76 156 179
f 76 179 153
f 76 153 178
f 76 178 171
f 76 171 175
f 76 175 174
f 76 174 190
f 76 190 189
f 76 189 200
f 76 200 210
f 76 210 209
f 76 209 208
f 76 208 207
f 76 207 206
f 76 206 216
f 76 216 212
f 76 212 211
f 76 211 201
f 76 201 196
f 76 196 195
f 76 195 194
f 76 194 198
f 76 198 193
f 76 193 186
f 76 186 169
f 76 169 147
f 76 147 120
f 76 120 97
f 76 97 77
f 77 97 98
f 78 99 79
f 79 100 80
f 79 99 100
f 80 100 101
f 80 101 81
f 81 101 82
f 82 101 102
f 82 102 83
f 83 102 103
f 83 103 84
f 84 103 104
f 84 104 105
f 84 105 106
f 84 106 85
f 85 106 107
f 85 107 86
f 86 107 87
f 87 107 108
f 87 108 109
f 87 109 90
f 88 90 89
f 89 110 111
f 89 111 112
f 89 112 91
f 89 90 110
f 90 109 113
f 90 113 114
f 90 114 110
f 91 112 115
f 91 115 92
f 92 115 116
f 92 116 93
f 93 116 141
f 93 141 117
f 93 117 94
f 96 118 119
f 97 120 98
f 98 120 121
f 100 122 101
f 101 122 102
f 102 123 124
f 102 124 103
f 102 122 123
f 103 124 104
f 104 124 125
f 104 125 126
f 104 126 105
f 105 126 127
f 105 127 106
f 106 127 107
f 107 127 128
f 107 128 108
f 108 129 109
f 108 128 130
f 108 130 129
f 109 129 113
f 110 131 132
f 110 132 133
f 110 133 134
f 110 134 111
f 110 114 131
f 111 134 135
f 111 135 112
f 112 135 115
f 113 129 136
f 113 136 137
f 113 137 138
f 113 138 114
f 114 138 139
f 114 139 131
f 115 140 116
f 116 140 159
f 116 159 141
f 117 141 142
f 117 142 143
f 118 144 145
f 118 145 119
f 119 145 146
f 120 147 148
f 120 148 149
f 120 149 150
f 120 150 121
f 122 151 123
f 123 151 124
f 124 151 152
f 124 152 125
f 125 152 177
f 125 177 178
f 125 178 153
f 125 153 126
f 126 153 127
f 127 153 154
f 127 154 128
f 128 154 155
f 128 155 156
f 128 156 130
f 129 130 157
f 129 157 136
f 130 158 157
f 130 156 158
f 141 159 160
f 141 160 164
f 141 164 142
f 142 161 162
f 142 162 163
f 142 163 143
f 142 164 161
f 144 165 166
f 144 166 145
f 145 166 167
f 145 167 168
f 145 168 146
f 147 169 170
f 147 170 148
f 151 171 172
f 151 172 152
f 151 173 174
f 151 174 175
f 151 175 176
f 151 176 171
f 152 172 177
f 153 179 155
f 153 155 154
f 155 179 156
f 159 180 160
f 160 180 164
f 161 164 162
f 162 181 163
f 162 164 182
f 162 182 181
f 163 181 165
f 164 180 182
f 165 181 183
f 165 183 184
f 165 184 166
f 166 184 167
f 167 184 183
f 167 183 185
f 169 186 187
f 169 187 170
f 171 178 177
f 171 177 172
f 171 176 175
f 173 188 189
f 173 189 190
f 173 190 191
f 173 191 174
f 174 191 190
f 181 182 192
f 181 192 183
f 183 192 185
f 186 193 187
f 187 194 195
f 187 195 196
f 187 196 197
f 187 193 198
f 187 198 194
f 188 199 189
f 189 199 200
f 196 201 202
f 196 202 203
f 196 203 204
f 196 204 197
f 199 205 206
f 199 206 207
f 199 207 208
f 199 208 209
f 199 209 210
f 199 210 200
f 201 211 202
f 202 211 212
f 202 212 213
f 205 214 215
f 205 215 206
f 206 215 216
f 212 216 215
f 212 215 213
f 213 215 217
f 214 217 215
