v -0.0172509 -0.392775 -0.562874
v -0.0172509 -0.392775 -0.378083
v -0.0172509 -0.392734 -0.63435
v 0.00843585 -0.392775 -0.63435
v 0.0420294 -0.392775 -0.394892
v 0.0168242 -0.392694 -0.378083
v -0.0172509 -0.38823 -0.35539
v -0.0172509 -0.174411 -0.63435
v 0.0756229 -0.392775 -0.63435
v 0.0756229 -0.392775 -0.512446
v 0.0756229 -0.392694 -0.487233
v 0.0588462 -0.392533 -0.403296
v 0.0420294 -0.390201 -0.37092
v 0.00843585 -0.387346 -0.354403
v 0.0271391 -0.386139 -0.352613
v -0.0172509 -0.376729 -0.3369
v -0.0172509 0.0180548 -0.565322
v 0.162557 0.0180146 -0.633984
v 0.392775 0.0180548 -0.63435
v 0.0974567 -0.39012 -0.63435
v 0.0924397 -0.391327 -0.554469
v 0.0756229 -0.392413 -0.462055
v 0.0827269 -0.389839 -0.411664
v 0.0781514 -0.388029 -0.387401
v 0.0598095 -0.387627 -0.370226
v 0.0756229 -0.380027 -0.361273
v 0.0756229 -0.369973 -0.343514
v 0.0458423 -0.373633 -0.339568
v 0.0168242 -0.367239 -0.329555
v -0.0172509 -0.361247 -0.325572
v -0.0172509 0.0180548 -0.261039
v 0.355408 0.0156018 -0.323964
v 0.39141 0.0156018 -0.384075
v 0.392775 -0.0420253 -0.394892
v 0.392775 -0.0756445 -0.63435
v 0.126033 -0.381675 -0.596456
v 0.118247 -0.384088 -0.571242
v 0.105203 -0.387989 -0.537624
v 0.132696 -0.379383 -0.63435
v 0.0924397 -0.390885 -0.520851
v 0.0924397 -0.390402 -0.495601
v 0.0918778 -0.388914 -0.445283
v 0.109257 -0.382037 -0.411664
v 0.109257 -0.381072 -0.394892
v 0.135224 -0.367158 -0.368655
v 0.0994233 -0.366957 -0.348447
v 0.124508 -0.353003 -0.339458
v 0.0924397 -0.356702 -0.332807
v 0.0924397 -0.339249 -0.322466
v 0.00839571 -0.226931 -0.261039
v -0.0129564 -0.227976 -0.261039
v 0.22573 0.0133498 -0.261039
v 0.226894 -0.00844639 -0.261039
v 0.355408 -0.016811 -0.323672
v 0.374392 -0.016811 -0.339421
v 0.37367 0.0131889 -0.339641
v 0.38559 0.0131889 -0.362077
v 0.388841 -0.016811 -0.369641
v 0.387075 -0.0505106 -0.37019
v 0.386152 -0.0739153 -0.379763
v 0.392293 -0.0588349 -0.403296
v 0.392775 -0.0588349 -0.428474
v 0.391209 -0.0924139 -0.60486
v 0.389965 -0.0984058 -0.632194
v 0.379128 -0.133392 -0.63435
v 0.392775 -0.0756445 -0.562874
v 0.150797 -0.372466 -0.60486
v 0.150476 -0.372104 -0.579683
v 0.126033 -0.380188 -0.529256
v 0.126033 -0.378137 -0.462055
v 0.103678 -0.387426 -0.504042
v 0.158383 -0.36933 -0.63435
v 0.0994635 -0.387547 -0.471922
v 0.126033 -0.376045 -0.403296
v 0.162356 -0.35634 -0.371067
v 0.145178 -0.351233 -0.346255
v 0.160189 -0.338928 -0.340043
v 0.14285 -0.33378 -0.329263
v 0.109257 -0.331408 -0.320785
v 0.0327179 -0.222226 -0.261039
v 0.221516 -0.0318109 -0.261039
v 0.348866 -0.0420253 -0.320749
v 0.369416 -0.0493041 -0.338069
v 0.371944 -0.0756445 -0.349032
v 0.378526 -0.0756445 -0.361273
v 0.380212 -0.0924139 -0.378083
v 0.371021 -0.13291 -0.393869
v 0.379971 -0.109223 -0.403296
v 0.387718 -0.0828429 -0.403296
v 0.39137 -0.0756445 -0.428474
v 0.392333 -0.0756445 -0.495601
v 0.392614 -0.0756445 -0.520851
v 0.390246 -0.0924139 -0.537624
v 0.386674 -0.109947 -0.596456
v 0.384266 -0.118231 -0.613265
v 0.375877 -0.142883 -0.613265
v 0.368934 -0.159371 -0.63435
v 0.176444 -0.360402 -0.613265
v 0.176444 -0.359839 -0.588051
v 0.156938 -0.368284 -0.550267
v 0.151238 -0.369611 -0.512739
v 0.13992 -0.372104 -0.445283
v 0.132615 -0.374397 -0.428474
v 0.192377 -0.352399 -0.632194
v 0.176444 -0.360442 -0.632194
v 0.246641 -0.319786 -0.63435
v 0.215696 -0.339893 -0.633253
v 0.144455 -0.368365 -0.403296
v 0.159627 -0.360563 -0.394892
v 0.178892 -0.349866 -0.378083
v 0.199321 -0.339209 -0.375671
v 0.196993 -0.33374 -0.357217
v 0.178812 -0.334826 -0.34578
v 0.193461 -0.322038 -0.340152
v 0.176444 -0.323566 -0.33288
v 0.168376 -0.3074 -0.322429
v 0.129726 -0.322601 -0.320675
v 0.0821249 -0.206663 -0.261039
v 0.0588462 -0.215027 -0.261039
v 0.214452 -0.0588349 -0.261039
v 0.343207 -0.0752826 -0.322795
v 0.353402 -0.0588349 -0.326047
v 0.357897 -0.0756445 -0.331748
v 0.366365 -0.0756445 -0.340664
v 0.368493 -0.0950278 -0.350969
v 0.369817 -0.123861 -0.375488
v 0.369215 -0.141998 -0.411664
v 0.375958 -0.126033 -0.420105
v 0.349268 -0.174049 -0.369495
v 0.356693 -0.16669 -0.399094
v 0.384306 -0.101502 -0.428474
v 0.388721 -0.0911672 -0.462055
v 0.389684 -0.0924139 -0.512446
v 0.384145 -0.110349 -0.512446
v 0.381296 -0.126033 -0.588051
v 0.372386 -0.150805 -0.588051
v 0.360265 -0.176462 -0.588051
v 0.360425 -0.176462 -0.63435
v 0.203254 -0.346528 -0.613265
v 0.186558 -0.353726 -0.562874
v 0.185033 -0.352922 -0.518805
v 0.193702 -0.350871 -0.588051
v 0.179935 -0.354571 -0.495601
v 0.173674 -0.355657 -0.445283
v 0.278147 -0.294893 -0.63435
v 0.2641 -0.3074 -0.633253
v 0.265023 -0.306354 -0.571242
v 0.24925 -0.317413 -0.588051
v 0.21967 -0.336877 -0.596456
v 0.186598 -0.347051 -0.394892
v 0.209234 -0.33563 -0.394892
v 0.230908 -0.321796 -0.384331
v 0.214934 -0.321032 -0.353453
v 0.212245 -0.309169 -0.338069
v 0.217743 -0.293847 -0.329701
v 0.19302 -0.293204 -0.322028
v 0.126394 -0.185027 -0.261039
v 0.206666 -0.0819984 -0.261039
v 0.328237 -0.117467 -0.322356
v 0.34999 -0.0924139 -0.329994
v 0.328437 -0.15929 -0.331126
v 0.348064 -0.124183 -0.337375
v 0.343167 -0.15173 -0.34187
v 0.354285 -0.152615 -0.358679
v 0.372065 -0.139867 -0.453651
v 0.361188 -0.159692 -0.420105
v 0.369777 -0.151569 -0.51811
v 0.377202 -0.126033 -0.453651
v 0.334257 -0.201636 -0.364964
v 0.329681 -0.219974 -0.394892
v 0.352519 -0.184223 -0.495601
v 0.378045 -0.126033 -0.478865
v 0.379369 -0.126033 -0.520851
v 0.371864 -0.150363 -0.562874
v 0.355689 -0.183982 -0.562874
v 0.346579 -0.203204 -0.588051
v 0.346739 -0.203285 -0.63435
v 0.218265 -0.335952 -0.531083
v 0.208672 -0.339732 -0.495601
v 0.215295 -0.334424 -0.445283
v 0.206264 -0.338485 -0.428474
v 0.269277 -0.302815 -0.546065
v 0.29954 -0.273298 -0.63435
v 0.294884 -0.278083 -0.546065
v 0.286536 -0.286488 -0.487233
v 0.278147 -0.294893 -0.579683
v 0.248728 -0.317131 -0.562874
v 0.227777 -0.331206 -0.579683
v 0.238975 -0.321676 -0.495601
v 0.231951 -0.323566 -0.411664
v 0.262013 -0.303539 -0.428474
v 0.285572 -0.285603 -0.428327
v 0.25812 -0.301126 -0.387035
v 0.241343 -0.303861 -0.35729
v 0.259444 -0.287775 -0.354294
v 0.245597 -0.283553 -0.335109
v 0.226814 -0.277239 -0.324257
v 0.152643 -0.16492 -0.261039
v 0.243109 -0.259625 -0.321918
v 0.185073 -0.126154 -0.261039
v 0.307807 -0.16862 -0.32232
v 0.321775 -0.142883 -0.323599
v 0.32342 -0.176462 -0.332807
v 0.335742 -0.17618 -0.344464
v 0.318484 -0.20996 -0.345122
v 0.317761 -0.225041 -0.359081
v 0.320571 -0.230349 -0.376255
v 0.316918 -0.240604 -0.392407
v 0.326752 -0.22677 -0.411664
v 0.335983 -0.218285 -0.509523
v 0.342244 -0.20996 -0.562874
v 0.334217 -0.224076 -0.571242
v 0.334136 -0.225041 -0.63435
v 0.23765 -0.320831 -0.436878
v 0.266909 -0.301086 -0.453651
v 0.263377 -0.304504 -0.478865
v 0.247163 -0.316005 -0.487233
v 0.248046 -0.316649 -0.529256
v 0.284127 -0.288137 -0.453651
v 0.31439 -0.254397 -0.63435
v 0.306322 -0.265014 -0.537624
v 0.297252 -0.272051 -0.445283
v 0.303352 -0.261797 -0.420105
v 0.302188 -0.260188 -0.394892
v 0.290509 -0.274022 -0.394892
v 0.278789 -0.28689 -0.403296
v 0.302028 -0.268231 -0.485625
v 0.281559 -0.275349 -0.371067
v 0.2877 -0.259384 -0.354038
v 0.264581 -0.263083 -0.331601
v 0.170865 -0.146301 -0.261039
v 0.259645 -0.243097 -0.321954
v 0.275699 -0.225403 -0.32316
v 0.293559 -0.193432 -0.321918
v 0.29673 -0.219169 -0.331273
v 0.316999 -0.194719 -0.335146
v 0.283967 -0.246274 -0.334817
v 0.301025 -0.253713 -0.372382
v 0.319246 -0.239518 -0.420105
v 0.321694 -0.238995 -0.478865
v 0.31736 -0.249089 -0.546065
v 0.313707 -0.25492 -0.562874
v 0.316798 -0.248285 -0.512446
v 0.30564 -0.264772 -0.512446
v 0.301466 -0.267427 -0.462055
v 0.307446 -0.259022 -0.462055
v 0.316316 -0.247601 -0.487233
f 1 2 7
f 1 7 16
f 1 16 30
f 1 30 31
f 1 31 17
f 1 17 8
f 1 8 3
f 1 3 4
f 1 4 9
f 1 9 10
f 1 10 5
f 1 5 2
f 2 5 6
f 2 6 7
f 3 8 19
f 3 19 35
f 3 35 65
f 3 65 97
f 3 97 138
f 3 138 177
f 3 177 213
f 3 213 220
f 3 220 183
f 3 183 145
f 3 145 106
f 3 106 72
f 3 72 39
f 3 39 20
f 3 20 9
f 3 9 4
f 5 10 11
f 5 11 12
f 5 12 6
f 6 12 13
f 6 13 14
f 6 14 7
f 7 14 15
f 7 15 16
f 8 17 18
f 8 18 19
f 9 20 21
f 9 21 10
f 10 21 11
f 11 21 22
f 11 22 12
f 12 22 23
f 12 23 24
f 12 24 13
f 13 24 25
f 13 25 15
f 13 15 14
f 15 25 26
f 15 26 27
f 15 27 28
f 15 28 16
f 16 28 29
f 16 29 30
f 17 31 19
f 17 19 18
f 19 31 32
f 19 32 33
f 19 33 34
f 19 34 62
f 19 62 66
f 19 66 35
f 20 36 37
f 20 37 38
f 20 38 21
f 20 39 36
f 21 38 40
f 21 40 22
f 22 40 41
f 22 41 23
f 23 42 43
f 23 43 44
f 23 44 24
f 23 41 42
f 24 44 45
f 24 45 25
f 25 45 26
f 26 45 46
f 26 46 27
f 27 46 47
f 27 47 48
f 27 48 28
f 28 48 29
f 29 48 49
f 29 49 50
f 29 50 30
f 30 50 51
f 30 51 31
f 31 51 50
f 31 50 80
f 31 80 119
f 31 119 118
f 31 118 157
f 31 157 198
f 31 198 231
f 31 231 200
f 31 200 158
f 31 158 120
f 31 120 81
f 31 81 53
f 31 53 52
f 31 52 32
f 32 52 53
f 32 53 54
f 32 54 55
f 32 55 56
f 32 56 33
f 33 56 57
f 33 57 58
f 33 58 34
f 34 58 59
f 34 59 60
f 34 60 61
f 34 61 62
f 35 63 64
f 35 64 65
f 35 66 63
f 36 39 67
f 36 67 68
f 36 68 37
f 37 68 69
f 37 69 38
f 38 69 70
f 38 70 71
f 38 71 41
f 38 41 40
f 39 72 67
f 41 71 42
f 42 71 73
f 42 73 43
f 43 73 71
f 43 71 74
f 43 74 44
f 44 74 45
f 45 74 75
f 45 75 76
f 45 76 46
f 46 76 47
f 47 76 77
f 47 77 78
f 47 78 48
f 48 78 79
f 48 79 49
f 49 79 80
f 49 80 50
f 53 81 82
f 53 82 54
f 54 82 83
f 54 83 55
f 55 58 57
f 55 57 56
f 55 83 59
f 55 59 58
f 59 83 84
f 59 84 85
f 59 85 60
f 60 85 86
f 60 86 87
f 60 87 88
f 60 88 89
f 60 89 61
f 61 89 90
f 61 90 62
f 62 90 91
f 62 91 92
f 62 92 66
f 63 93 94
f 63 94 64
f 63 66 92
f 63 92 91
f 63 91 93
f 64 94 95
f 64 95 65
f 65 95 96
f 65 96 97
f 67 72 98
f 67 98 68
f 68 98 99
f 68 99 100
f 68 100 101
f 68 101 102
f 68 102 70
f 68 70 69
f 70 102 103
f 70 103 74
f 70 74 71
f 72 104 105
f 72 105 98
f 72 106 107
f 72 107 104
f 74 103 102
f 74 102 108
f 74 108 75
f 75 108 109
f 75 109 110
f 75 110 111
f 75 111 112
f 75 112 76
f 76 112 113
f 76 113 77
f 77 113 114
f 77 114 115
f 77 115 78
f 78 115 116
f 78 116 117
f 78 117 79
f 79 117 118
f 79 118 119
f 79 119 80
f 81 120 82
f 82 120 121
f 82 121 122
f 82 122 83
f 83 122 123
f 83 123 124
f 83 124 84
f 84 124 125
f 84 125 85
f 85 125 126
f 85 126 86
f 86 126 87
f 87 127 128
f 87 128 88
f 87 126 129
f 87 129 130
f 87 130 127
f 88 128 131
f 88 131 89
f 89 131 90
f 90 131 132
f 90 132 133
f 90 133 93
f 90 93 91
f 93 133 94
f 94 133 132
f 94 132 134
f 94 134 135
f 94 135 95
f 95 135 96
f 96 135 136
f 96 136 97
f 97 136 137
f 97 137 138
f 98 105 104
f 98 104 139
f 98 139 99
f 99 140 141
f 99 141 100
f 99 139 142
f 99 142 140
f 100 141 143
f 100 143 101
f 101 143 144
f 101 144 109
f 101 109 108
f 101 108 102
f 104 107 139
f 106 145 146
f 106 146 147
f 106 147 148
f 106 148 149
f 106 149 107
f 107 149 139
f 109 144 150
f 109 150 110
f 110 150 151
f 110 151 111
f 111 151 152
f 111 152 153
f 111 153 112
f 112 153 113
f 113 153 114
f 114 153 154
f 114 154 115
f 115 154 155
f 115 155 156
f 115 156 116
f 116 156 157
f 116 157 117
f 117 157 118
f 120 158 159
f 120 159 121
f 121 159 160
f 121 160 123
f 121 123 122
f 123 160 161
f 123 161 162
f 123 162 124
f 124 162 163
f 124 163 125
f 125 163 164
f 125 164 126
f 126 164 129
f 127 165 128
f 127 130 166
f 127 166 167
f 127 167 165
f 128 165 168
f 128 168 131
f 129 164 169
f 129 169 170
f 129 170 130
f 130 170 171
f 130 171 166
f 131 168 172
f 131 172 132
f 132 172 134
f 134 172 173
f 134 173 135
f 135 173 174
f 135 174 136
f 136 174 137
f 137 175 176
f 137 176 177
f 137 177 138
f 137 174 167
f 137 167 175
f 139 149 178
f 139 178 142
f 140 142 179
f 140 179 141
f 141 179 180
f 141 180 181
f 141 181 151
f 141 151 143
f 142 178 179
f 143 151 144
f 144 151 150
f 145 182 146
f 145 183 184
f 145 184 185
f 145 185 186
f 145 186 182
f 146 182 147
f 147 182 187
f 147 187 148
f 148 187 188
f 148 188 149
f 149 188 189
f 149 189 178
f 151 181 180
f 151 180 190
f 151 190 152
f 152 190 191
f 152 191 192
f 152 192 193
f 152 193 194
f 152 194 153
f 153 194 195
f 153 195 196
f 153 196 154
f 154 196 155
f 155 196 197
f 155 197 156
f 156 197 157
f 157 197 199
f 157 199 198
f 158 200 201
f 158 201 202
f 158 202 159
f 159 202 160
f 160 202 161
f 161 201 203
f 161 203 163
f 161 163 162
f 161 202 201
f 163 203 204
f 163 204 164
f 164 204 169
f 165 167 174
f 165 174 168
f 166 171 167
f 167 171 175
f 168 174 172
f 169 204 205
f 169 205 206
f 169 206 207
f 169 207 170
f 170 207 208
f 170 208 209
f 170 209 210
f 170 210 171
f 171 210 175
f 172 174 173
f 175 210 211
f 175 211 176
f 176 211 212
f 176 212 213
f 176 213 177
f 178 189 214
f 178 214 190
f 178 190 180
f 178 180 179
f 182 215 216
f 182 216 214
f 182 214 217
f 182 217 218
f 182 218 187
f 182 186 185
f 182 185 219
f 182 219 215
f 183 220 221
f 183 221 184
f 184 221 185
f 185 192 219
f 185 221 192
f 187 218 189
f 187 189 188
f 189 218 217
f 189 217 214
f 190 214 191
f 191 215 219
f 191 219 192
f 191 214 215
f 192 222 223
f 192 223 224
f 192 224 225
f 192 225 226
f 192 226 193
f 192 221 227
f 192 227 222
f 193 226 225
f 193 225 228
f 193 228 195
f 193 195 194
f 195 228 229
f 195 229 230
f 195 230 196
f 196 230 197
f 197 230 199
f 198 199 232
f 198 232 231
f 199 230 232
f 200 231 233
f 200 233 234
f 200 234 201
f 201 234 203
f 203 234 235
f 203 235 236
f 203 236 204
f 204 236 205
f 205 236 237
f 205 237 206
f 206 237 229
f 206 229 238
f 206 238 207
f 207 238 224
f 207 224 208
f 208 239 209
f 208 224 223
f 208 223 239
f 209 239 210
f 210 239 240
f 210 240 241
f 210 241 212
f 210 212 211
f 212 241 242
f 212 242 213
f 213 242 220
f 214 216 215
f 220 242 221
f 221 242 241
f 221 241 243
f 221 243 244
f 221 244 227
f 222 227 245
f 222 245 223
f 223 245 239
f 224 238 225
f 225 238 228
f 227 244 246
f 227 246 245
f 228 238 229
f 229 237 230
f 230 237 233
f 230 233 232
f 231 232 233
f 233 237 235
f 233 235 234
f 235 237 236
f 239 245 246
f 239 246 244
f 239 244 247
f 239 247 243
f 239 243 240
f 240 243 241
f 243 247 244
