v -0.0917652 0.372779 0.595967
v -0.0913494 0.374473 0.49564
v -0.0919037 0.374114 0.54604
v -0.109226 0.372746 0.49564
v -0.105567 0.371672 0.54604
v -0.102131 0.370304 0.595967
v -0.0913494 0.221005 0.595967
v -0.0919037 0.354377 0.368462
v -0.0919037 0.361738 0.377934
v -0.0919037 0.370206 0.393101
v -0.0919037 0.374114 0.411691
v -0.0919037 0.374473 0.42795
v -0.0924303 0.374505 0.47885
v -0.0919037 0.37444 0.51243
v -0.0919037 0.374342 0.52925
v -0.0913494 0.0987061 0.294545
v -0.109226 0.37304 0.47885
v -0.118177 0.369913 0.506735
v -0.139767 0.350827 0.595967
v -0.231531 0.0417745 0.595967
v -0.180176 0.0417745 0.512135
v -0.169505 0.0417745 0.492424
v -0.162688 0.0417745 0.479175
v -0.14592 0.0417745 0.445566
v -0.138104 0.0417745 0.429071
v -0.0913494 0.111539 0.42733
v -0.107008 0.34972 0.367045
v -0.115545 0.352195 0.37038
v -0.109669 0.35822 0.376813
v -0.091876 0.226346 0.294545
v -0.107729 0.369164 0.396937
v -0.113327 0.370499 0.40812
v -0.109226 0.37304 0.428481
v -0.0913494 0.0933973 0.362914
v -0.127434 0.0417745 0.294545
v -0.123776 0.36848 0.47885
v -0.123222 0.368219 0.49564
v -0.148137 0.350599 0.52925
v -0.155343 0.339851 0.595967
v -0.141042 0.357699 0.49564
v -0.144811 0.354019 0.51243
v -0.37102 0.0435333 0.595967
v -0.373432 0.0417745 0.529014
v -0.133171 0.0417745 0.413963
v -0.0913494 0.101572 0.407206
v -0.126021 0.341415 0.365865
v -0.139241 0.338255 0.367842
v -0.150493 0.335617 0.370291
v -0.126021 0.352651 0.378022
v -0.126021 0.36138 0.394901
v -0.101521 0.219442 0.294545
v -0.181894 0.283832 0.353649
v -0.159639 0.310832 0.359078
v -0.144035 0.329071 0.363947
v -0.12203 0.368284 0.413727
v -0.123776 0.36848 0.428481
v -0.0913494 0.0930065 0.377963
v -0.127406 0.0417745 0.327712
v -0.2307 0.0417745 0.294545
v -0.141208 0.35796 0.47885
v -0.14944 0.351251 0.49564
v -0.15817 0.342196 0.52925
v -0.157671 0.341577 0.54604
v -0.166069 0.334217 0.54604
v -0.163768 0.332067 0.595967
v -0.374235 0.0586456 0.595967
v -0.374041 0.0419048 0.51243
v -0.374208 0.0419048 0.49564
v -0.374208 0.0419048 0.394812
v -0.347768 0.0417745 0.355537
v -0.129735 0.0417745 0.393101
v -0.0913494 0.0954492 0.392422
v -0.159639 0.32412 0.366278
v -0.169533 0.320537 0.368432
v -0.157366 0.335454 0.379114
v -0.136414 0.354182 0.390298
v -0.140405 0.357341 0.411691
v -0.159473 0.174593 0.294545
v -0.200269 0.267742 0.353442
v -0.194089 0.277839 0.355951
v -0.17563 0.31018 0.365452
v -0.167898 0.167916 0.294545
v -0.141208 0.35796 0.428481
v -0.347795 0.058841 0.355419
v -0.346576 0.0756143 0.355744
v -0.22851 0.059297 0.294545
v -0.149606 0.351348 0.47885
v -0.158669 0.342848 0.49564
v -0.158392 0.34262 0.51243
v -0.166568 0.334673 0.52925
v -0.175603 0.32627 0.52925
v -0.201766 0.302526 0.516739
v -0.174993 0.325814 0.54604
v -0.216122 0.283408 0.595967
v -0.207946 0.291029 0.595967
v -0.198661 0.29966 0.595967
v -0.374485 0.0756143 0.595967
v -0.374485 0.058841 0.54604
v -0.370133 0.0419048 0.376075
v -0.374485 0.058841 0.394901
v -0.370494 0.058841 0.375219
v -0.359962 0.0419048 0.363918
v -0.360572 0.058841 0.3638
v -0.172554 0.323176 0.378081
v -0.192675 0.29357 0.364744
v -0.186661 0.304155 0.368108
v -0.232224 0.265951 0.374422
v -0.215041 0.282431 0.375013
v -0.180979 0.315619 0.378081
v -0.157228 0.340991 0.394901
v -0.146031 0.349394 0.394901
v -0.148802 0.350827 0.411691
v -0.206283 0.256506 0.350846
v -0.223245 0.239895 0.350669
v -0.217452 0.251099 0.353383
v -0.211161 0.261456 0.355655
v -0.176351 0.159514 0.294545
v -0.149606 0.351348 0.428481
v -0.360212 0.0756143 0.364154
v -0.226321 0.0756143 0.294545
v -0.358715 0.0924202 0.365068
v -0.343139 0.0919317 0.356246
v -0.325984 0.190976 0.411691
v -0.184887 0.319267 0.471798
v -0.202431 0.303113 0.47885
v -0.219697 0.286763 0.49564
v -0.307886 0.206805 0.445271
v -0.316311 0.198858 0.445271
v -0.225101 0.274777 0.595967
v -0.374485 0.0924202 0.595967
v -0.374374 0.0756143 0.394901
v -0.374485 0.0924202 0.411691
v -0.370272 0.0756143 0.375809
v -0.165625 0.334054 0.394901
v -0.201239 0.302038 0.390386
v -0.20972 0.276992 0.36436
v -0.203872 0.287675 0.367872
v -0.300541 0.199802 0.372357
v -0.304144 0.203287 0.38354
v -0.235716 0.269273 0.385635
v -0.175326 0.325651 0.394901
v -0.158447 0.342424 0.411691
v -0.256807 0.206479 0.350669
v -0.251209 0.217618 0.353295
v -0.234358 0.234391 0.353324
v -0.228012 0.244748 0.355478
v -0.289345 0.205111 0.367311
v -0.243643 0.243673 0.363888
v -0.226709 0.260381 0.364095
v -0.184693 0.151111 0.294545
v -0.273575 0.18964 0.350669
v -0.166845 0.334966 0.411691
v -0.184887 0.319267 0.419776
v -0.344442 0.109226 0.359639
v -0.221305 0.0897169 0.294545
v -0.36908 0.0924202 0.378613
v -0.356248 0.109226 0.366662
v -0.334354 0.183322 0.411691
v -0.308302 0.207 0.428481
v -0.316727 0.199379 0.411691
v -0.218893 0.286014 0.390563
v -0.316699 0.199281 0.428481
v -0.290536 0.222926 0.445271
v -0.228344 0.279272 0.47885
v -0.325706 0.190943 0.428481
v -0.334104 0.183029 0.428481
v -0.233194 0.26683 0.595967
v -0.342723 0.174593 0.428481
v -0.373016 0.109226 0.595967
v -0.374014 0.109226 0.54604
v -0.374318 0.109226 0.52925
v -0.374457 0.109226 0.51243
v -0.374485 0.109226 0.49564
v -0.374208 0.109226 0.411691
v -0.373487 0.0924202 0.394901
v -0.374485 0.109226 0.428481
v -0.370078 0.103038 0.385488
v -0.201849 0.302592 0.401599
v -0.194671 0.308454 0.39555
v -0.183723 0.318225 0.394901
v -0.221 0.271227 0.367665
v -0.238072 0.254747 0.367488
v -0.255172 0.238169 0.3674
v -0.317447 0.183061 0.372003
v -0.321217 0.186742 0.383216
v -0.332497 0.181433 0.394901
v -0.324099 0.189347 0.394901
v -0.284827 0.184006 0.353295
v -0.244807 0.228007 0.35536
v -0.278397 0.194461 0.355301
v -0.294583 0.193809 0.363711
v -0.306251 0.188598 0.367282
v -0.19176 0.142675 0.294545
v -0.301539 0.166679 0.353295
v -0.29037 0.172802 0.350816
v -0.329642 0.126032 0.355508
v -0.3458 0.126944 0.364242
v -0.341947 0.142838 0.36557
v -0.326039 0.141307 0.357013
v -0.211577 0.109226 0.294545
v -0.368914 0.114242 0.38838
v -0.365228 0.108868 0.379173
v -0.354253 0.121961 0.368314
v -0.342668 0.174919 0.411691
v -0.351121 0.166321 0.428481
v -0.241897 0.258167 0.595967
v -0.368471 0.123752 0.595967
v -0.371935 0.12297 0.52925
v -0.373182 0.126032 0.445271
v -0.373348 0.126032 0.428481
v -0.37163 0.108868 0.39434
v -0.370688 0.130722 0.407176
v -0.323018 0.171857 0.367282
v -0.33427 0.16619 0.371973
v -0.32773 0.17658 0.377609
v -0.337818 0.170066 0.383186
v -0.340451 0.172997 0.394901
v -0.295192 0.177622 0.355301
v -0.311461 0.177101 0.363711
v -0.202292 0.12753 0.294545
v -0.310824 0.160523 0.355744
v -0.338843 0.154986 0.367606
v -0.328256 0.160197 0.36436
v -0.352313 0.133165 0.370291
v -0.369302 0.12512 0.396966
v -0.358549 0.126944 0.376783
v -0.351093 0.165669 0.411691
v -0.358188 0.157918 0.428481
v -0.357717 0.156973 0.445271
v -0.350872 0.149254 0.595967
v -0.342225 0.157918 0.595967
v -0.292061 0.208107 0.595967
v -0.358022 0.140753 0.595967
v -0.369967 0.135054 0.475723
v -0.370383 0.135835 0.462031
v -0.368775 0.141275 0.428481
v -0.368415 0.139223 0.412783
v -0.353726 0.152674 0.390534
v -0.343915 0.15883 0.379085
v -0.348848 0.162282 0.394901
v -0.352867 0.142838 0.378317
v -0.357191 0.157266 0.411691
v -0.368443 0.140851 0.445271
f 1 2 3
f 1 3 4
f 1 4 5
f 1 5 6
f 1 6 19
f 1 19 39
f 1 39 65
f 1 65 96
f 1 96 95
f 1 95 94
f 1 94 129
f 1 129 167
f 1 167 206
f 1 206 232
f 1 232 231
f 1 231 230
f 1 230 233
f 1 233 207
f 1 207 169
f 1 169 130
f 1 130 97
f 1 97 66
f 1 66 42
f 1 42 20
f 1 20 7
f 1 7 2
f 2 8 9
f 2 9 10
f 2 10 11
f 2 11 12
f 2 12 13
f 2 13 14
f 2 14 15
f 2 15 3
f 2 7 26
f 2 26 45
f 2 45 72
f 2 72 57
f 2 57 34
f 2 34 16
f 2 16 8
f 3 15 17
f 3 17 4
f 4 18 5
f 4 17 18
f 5 18 6
f 6 18 19
f 7 20 21
f 7 21 22
f 7 22 23
f 7 23 24
f 7 24 25
f 7 25 26
f 8 27 28
f 8 28 29
f 8 29 9
f 8 16 30
f 8 30 27
f 9 29 10
f 10 29 31
f 10 31 11
f 11 31 32
f 11 32 33
f 11 33 12
f 12 33 13
f 13 33 17
f 13 17 14
f 14 17 15
f 16 34 35
f 16 35 59
f 16 59 86
f 16 86 120
f 16 120 155
f 16 155 200
f 16 200 220
f 16 220 193
f 16 193 150
f 16 150 117
f 16 117 82
f 16 82 78
f 16 78 51
f 16 51 30
f 17 33 56
f 17 56 36
f 17 36 18
f 18 36 37
f 18 37 19
f 19 38 39
f 19 37 40
f 19 40 41
f 19 41 38
f 20 42 43
f 20 43 70
f 20 70 59
f 20 59 35
f 20 35 58
f 20 58 71
f 20 71 44
f 20 44 25
f 20 25 24
f 20 24 23
f 20 23 22
f 20 22 21
f 25 44 45
f 25 45 26
f 27 46 28
f 27 30 46
f 28 46 47
f 28 47 48
f 28 48 49
f 28 49 29
f 29 50 31
f 29 49 50
f 30 51 52
f 30 52 53
f 30 53 54
f 30 54 46
f 31 50 32
f 32 50 55
f 32 55 33
f 33 55 56
f 34 57 35
f 35 57 58
f 36 56 83
f 36 83 60
f 36 60 40
f 36 40 37
f 38 41 61
f 38 61 62
f 38 62 63
f 38 63 39
f 39 64 65
f 39 63 64
f 40 60 61
f 40 61 41
f 42 66 43
f 43 66 67
f 43 67 68
f 43 68 69
f 43 69 70
f 44 71 72
f 44 72 45
f 46 54 47
f 47 54 73
f 47 73 48
f 48 73 74
f 48 74 75
f 48 75 76
f 48 76 49
f 49 76 50
f 50 76 77
f 50 77 55
f 51 78 52
f 52 79 80
f 52 80 81
f 52 81 74
f 52 74 73
f 52 73 53
f 52 78 82
f 52 82 79
f 53 73 54
f 55 77 56
f 56 77 83
f 57 72 71
f 57 71 58
f 59 70 84
f 59 84 85
f 59 85 86
f 60 83 118
f 60 118 87
f 60 87 61
f 61 87 88
f 61 88 89
f 61 89 62
f 62 89 90
f 62 90 64
f 62 64 63
f 64 90 91
f 64 91 92
f 64 92 93
f 64 93 94
f 64 94 95
f 64 95 96
f 64 96 65
f 66 68 67
f 66 97 98
f 66 98 68
f 68 98 100
f 68 100 69
f 69 99 70
f 69 100 101
f 69 101 99
f 70 99 102
f 70 102 103
f 70 103 84
f 74 104 75
f 74 81 105
f 74 105 106
f 74 106 107
f 74 107 108
f 74 108 109
f 74 109 104
f 75 104 110
f 75 110 111
f 75 111 76
f 76 111 77
f 77 111 110
f 77 110 112
f 77 112 83
f 79 113 114
f 79 114 115
f 79 115 116
f 79 116 80
f 79 82 113
f 80 105 81
f 80 116 105
f 82 117 114
f 82 114 113
f 83 112 118
f 84 103 119
f 84 119 85
f 85 120 86
f 85 119 121
f 85 121 122
f 85 122 120
f 87 118 123
f 87 123 124
f 87 124 88
f 88 90 89
f 88 124 125
f 88 125 90
f 90 125 126
f 90 126 92
f 90 92 91
f 92 126 127
f 92 127 128
f 92 128 94
f 92 94 93
f 94 128 129
f 97 130 173
f 97 173 176
f 97 176 132
f 97 132 100
f 97 100 98
f 99 101 102
f 100 131 101
f 100 132 131
f 101 131 133
f 101 133 119
f 101 119 103
f 101 103 102
f 104 134 110
f 104 109 135
f 104 135 134
f 105 116 136
f 105 136 137
f 105 137 106
f 106 137 138
f 106 138 107
f 107 138 139
f 107 139 140
f 107 140 108
f 108 140 109
f 109 140 135
f 110 134 112
f 112 134 141
f 112 141 142
f 112 142 118
f 114 143 144
f 114 144 145
f 114 145 115
f 114 117 143
f 115 145 146
f 115 146 116
f 116 146 147
f 116 147 148
f 116 148 149
f 116 149 136
f 117 150 151
f 117 151 143
f 118 142 152
f 118 152 153
f 118 153 123
f 119 133 121
f 120 122 154
f 120 154 155
f 121 133 156
f 121 156 157
f 121 157 154
f 121 154 122
f 123 158 159
f 123 159 124
f 123 153 160
f 123 160 135
f 123 135 161
f 123 161 158
f 124 159 125
f 125 159 162
f 125 162 163
f 125 163 164
f 125 164 126
f 126 164 163
f 126 163 165
f 126 165 127
f 127 165 166
f 127 166 128
f 128 166 129
f 129 166 168
f 129 168 167
f 130 169 170
f 130 170 171
f 130 171 172
f 130 172 173
f 131 132 174
f 131 174 175
f 131 175 133
f 132 176 174
f 133 175 177
f 133 177 156
f 134 135 141
f 135 178 179
f 135 179 180
f 135 180 141
f 135 140 161
f 135 160 178
f 136 181 137
f 136 149 182
f 136 182 181
f 137 181 138
f 138 181 182
f 138 182 183
f 138 183 147
f 138 147 184
f 138 184 185
f 138 185 139
f 139 185 186
f 139 186 140
f 140 186 187
f 140 187 161
f 141 180 142
f 142 180 152
f 143 151 188
f 143 188 144
f 144 189 145
f 144 188 190
f 144 190 189
f 145 189 146
f 146 189 191
f 146 191 192
f 146 192 147
f 147 183 149
f 147 149 148
f 147 192 184
f 149 183 182
f 150 193 194
f 150 194 195
f 150 195 151
f 151 195 188
f 152 180 178
f 152 178 153
f 153 178 160
f 154 196 155
f 154 157 197
f 154 197 198
f 154 198 196
f 155 196 199
f 155 199 200
f 156 177 201
f 156 201 202
f 156 202 203
f 156 203 157
f 157 203 197
f 158 166 165
f 158 165 162
f 158 162 159
f 158 161 187
f 158 187 186
f 158 186 204
f 158 204 205
f 158 205 168
f 158 168 166
f 162 165 163
f 167 168 205
f 167 205 206
f 169 207 208
f 169 208 209
f 169 209 170
f 170 209 171
f 171 209 210
f 171 210 172
f 172 210 173
f 173 210 176
f 174 211 175
f 174 176 210
f 174 210 212
f 174 212 211
f 175 211 177
f 177 211 201
f 178 180 179
f 184 192 213
f 184 213 214
f 184 214 215
f 184 215 185
f 185 215 216
f 185 216 186
f 186 216 217
f 186 217 204
f 188 195 194
f 188 194 218
f 188 218 190
f 189 190 219
f 189 219 191
f 190 218 219
f 191 219 192
f 192 219 213
f 193 220 194
f 194 213 218
f 194 220 221
f 194 221 222
f 194 222 223
f 194 223 213
f 196 198 199
f 197 203 198
f 198 222 199
f 198 203 224
f 198 224 222
f 199 222 221
f 199 221 220
f 199 220 200
f 201 211 225
f 201 225 226
f 201 226 202
f 202 226 203
f 203 226 224
f 204 217 227
f 204 227 205
f 205 227 228
f 205 228 229
f 205 229 230
f 205 230 231
f 205 231 232
f 205 232 206
f 207 233 234
f 207 234 235
f 207 235 208
f 208 235 209
f 209 235 210
f 210 235 236
f 210 236 212
f 211 212 225
f 212 236 237
f 212 237 238
f 212 238 225
f 213 219 218
f 213 223 222
f 213 222 214
f 214 216 215
f 214 222 239
f 214 239 216
f 216 239 238
f 216 238 240
f 216 240 217
f 217 240 227
f 222 224 241
f 222 241 239
f 224 226 241
f 225 238 241
f 225 241 226
f 227 240 242
f 227 242 228
f 228 242 236
f 228 236 243
f 228 243 229
f 229 243 233
f 229 233 230
f 233 243 234
f 234 243 235
f 235 243 236
f 236 242 237
f 237 242 238
f 238 242 240
f 238 239 241
