v 0.0756229 0.392738 -0.462037
v 0.0756229 0.392628 -0.445287
v 0.0979784 0.389254 -0.478824
v 0.0979784 0.389291 -0.495647
v 0.078312 0.392335 -0.635473
v 0.0756229 0.392738 -0.529256
v 0.0588462 0.392738 -0.394891
v 0.0756229 0.392335 -0.428501
v 0.0977376 0.388961 -0.462037
v 0.126033 0.375649 -0.394891
v 0.14875 0.371174 -0.635473
v 0.128722 0.378692 -0.635473
v 0.0988614 0.388484 -0.635473
v 0.115759 0.383056 -0.635473
v 0.0642244 0.392738 -0.635473
v 0.0252125 0.392738 -0.378068
v 0.0420294 0.392225 -0.378068
v 0.0588462 0.391124 -0.378068
v 0.0756229 0.391454 -0.394891
v 0.0756229 0.391931 -0.411715
v 0.0972961 0.388447 -0.445287
v 0.109257 0.382726 -0.411715
v 0.126033 0.374035 -0.378068
v 0.13984 0.368204 -0.375869
v 0.141325 0.368827 -0.394891
v 0.109257 0.381809 -0.394891
v 0.161754 0.365124 -0.635473
v -0.0172509 0.392738 -0.635473
v -0.0172509 0.392738 -0.394891
v -0.0127959 0.392701 -0.378068
v 0.00843585 0.390134 -0.361282
v 0.0420294 0.387237 -0.359303
v 0.0588462 0.38599 -0.362088
v 0.0760243 0.38621 -0.369785
v 0.0900717 0.386064 -0.379864
v 0.0939649 0.386907 -0.394891
v 0.0953696 0.387384 -0.411715
v 0.0990621 0.38698 -0.426668
v 0.126033 0.369818 -0.361025
v 0.141285 0.364977 -0.362711
v 0.109257 0.379793 -0.378068
v 0.166048 0.353572 -0.363591
v 0.159627 0.358889 -0.378068
v 0.174196 0.351665 -0.378068
v 0.179133 0.349941 -0.394891
v 0.185875 0.353315 -0.635363
v 0.214894 0.338279 -0.635473
v -0.0172509 0.237943 -0.635473
v -0.0127959 0.228555 -0.261039
v -0.0127959 0.362666 -0.326719
v -0.0127959 0.374255 -0.334343
v -0.0127959 0.38445 -0.347867
v -0.0127959 0.389914 -0.360915
v -0.0172509 0.0180915 -0.261039
v 0.00843585 0.38445 -0.347501
v 0.0263765 0.387274 -0.355564
v 0.0420294 0.375942 -0.339108
v 0.0614149 0.373705 -0.339877
v 0.075061 0.373522 -0.343542
v 0.0924397 0.379169 -0.361282
v 0.148951 0.355955 -0.348747
v 0.111424 0.370111 -0.351972
v 0.188565 0.337802 -0.35047
v 0.202652 0.334502 -0.360805
v 0.211883 0.332742 -0.378068
v 0.208432 0.335235 -0.394891
v 0.226814 0.325591 -0.394891
v 0.240701 0.317266 -0.394891
v 0.242467 0.320273 -0.635473
v -0.0172509 0.0180915 -0.565285
v 0.11901 0.0659492 -0.635473
v 0.00899775 0.228665 -0.261039
v 0.00843585 0.3612 -0.32562
v 0.00843585 0.373522 -0.332913
v 0.223723 0.0220155 -0.261039
v 0.373349 0.0180915 -0.339731
v 0.0252125 0.373191 -0.333097
v 0.0802786 0.368571 -0.337312
v 0.0924397 0.369781 -0.343652
v 0.128682 0.355772 -0.338594
v 0.172149 0.334759 -0.337385
v 0.194745 0.328378 -0.343432
v 0.215375 0.322253 -0.349223
v 0.228379 0.320016 -0.361282
v 0.232714 0.320896 -0.376126
v 0.261611 0.303184 -0.394891
v 0.2818 0.289615 -0.411715
v 0.264622 0.305017 -0.635473
v 0.161914 0.0213921 -0.635473
v 0.392775 0.0180915 -0.635473
v 0.0252125 0.227895 -0.261039
v 0.0252125 0.3612 -0.32573
v 0.214291 0.0594215 -0.261039
v 0.349589 0.0216854 -0.320378
v 0.348545 0.0420387 -0.320745
v 0.344371 0.0924634 -0.324044
v 0.385189 0.0180915 -0.362125
v 0.371142 0.0588714 -0.34182
v 0.36773 0.0429188 -0.334819
v 0.361228 0.0216854 -0.327855
v 0.0420294 0.3612 -0.326793
v 0.0588462 0.3612 -0.328808
v 0.109257 0.356836 -0.33295
v 0.14285 0.34202 -0.33229
v 0.156617 0.338536 -0.334196
v 0.205502 0.317523 -0.337715
v 0.226493 0.310518 -0.344642
v 0.239617 0.305604 -0.34948
v 0.250694 0.304284 -0.362015
v 0.260126 0.301937 -0.378068
v 0.287057 0.283894 -0.396321
v 0.286495 0.286388 -0.428501
v 0.276702 0.295226 -0.635473
v 0.384105 0.118097 -0.635473
v 0.392775 0.0756674 -0.632761
v 0.392775 0.0420387 -0.394891
v 0.392373 0.0180915 -0.391336
v 0.0423505 0.224228 -0.261039
v 0.209596 0.0756674 -0.261039
v 0.344371 0.109259 -0.325986
v 0.360104 0.0588714 -0.330018
v 0.357816 0.0924634 -0.33196
v 0.356612 0.109259 -0.33295
v 0.389965 0.0180915 -0.375539
v 0.390045 0.0420387 -0.378068
v 0.386032 0.0582846 -0.369968
v 0.370058 0.0756674 -0.343469
v 0.379811 0.0756674 -0.361282
v 0.0924397 0.344404 -0.324044
v 0.109257 0.344404 -0.325986
v 0.14285 0.327608 -0.32507
v 0.161232 0.329221 -0.330458
v 0.176444 0.325187 -0.33229
v 0.192177 0.317009 -0.332327
v 0.215496 0.306044 -0.333646
v 0.232192 0.299993 -0.338301
v 0.245156 0.295079 -0.343286
v 0.256554 0.290202 -0.34827
v 0.269358 0.286168 -0.360109
v 0.274053 0.290275 -0.378068
v 0.293359 0.277219 -0.411715
v 0.286215 0.278173 -0.378068
v 0.301546 0.259433 -0.378068
v 0.303352 0.261817 -0.394891
v 0.299058 0.273882 -0.546043
v 0.286536 0.286388 -0.445287
v 0.303112 0.269665 -0.529256
v 0.286536 0.286534 -0.632761
v 0.299138 0.273919 -0.634117
v 0.311018 0.260423 -0.635473
v 0.37945 0.131446 -0.635473
v 0.375275 0.126055 -0.394891
v 0.381216 0.109259 -0.411715
v 0.388039 0.0887961 -0.428501
v 0.389684 0.0997979 -0.632761
v 0.392775 0.0588714 -0.428501
v 0.391169 0.0756674 -0.428501
v 0.392654 0.0588714 -0.411715
v 0.392052 0.0588714 -0.394891
v 0.0583646 0.218397 -0.261039
v 0.202451 0.0938569 -0.261039
v 0.342003 0.142851 -0.33229
v 0.327634 0.142851 -0.32507
v 0.368774 0.0924634 -0.345595
v 0.369416 0.109699 -0.352852
v 0.355609 0.128696 -0.338594
v 0.386513 0.0748239 -0.379644
v 0.37664 0.0924634 -0.361282
v 0.075663 0.210842 -0.261039
v 0.12792 0.185832 -0.261039
v 0.176444 0.310812 -0.32507
v 0.0895098 0.204351 -0.261039
v 0.109337 0.195 -0.261039
v 0.209957 0.294016 -0.32595
v 0.226693 0.294236 -0.331704
v 0.24628 0.283894 -0.334746
v 0.262053 0.27887 -0.342699
v 0.273411 0.273406 -0.34827
v 0.28188 0.273479 -0.360182
v 0.301948 0.268088 -0.462037
v 0.30251 0.268932 -0.491359
v 0.303754 0.262404 -0.411715
v 0.297814 0.255729 -0.361978
v 0.319567 0.227712 -0.361282
v 0.320571 0.233763 -0.378948
v 0.31756 0.241134 -0.394891
v 0.294964 0.278136 -0.613262
v 0.305921 0.264898 -0.512433
v 0.321293 0.246708 -0.635473
v 0.374593 0.144758 -0.635473
v 0.369054 0.141715 -0.394891
v 0.368252 0.139881 -0.375906
v 0.37355 0.126055 -0.378068
v 0.380533 0.109259 -0.394891
v 0.386433 0.0924267 -0.411715
v 0.390768 0.0756674 -0.411715
v 0.386754 0.0848722 -0.393205
v 0.194786 0.109919 -0.261039
v 0.338551 0.15664 -0.334196
v 0.325226 0.176443 -0.33229
v 0.3292 0.161224 -0.330458
v 0.310778 0.176443 -0.32507
v 0.183708 0.132143 -0.261039
v 0.369496 0.126055 -0.361868
v 0.35593 0.148939 -0.348747
v 0.334738 0.172153 -0.337385
v 0.382139 0.0924634 -0.378068
v 0.147265 0.172116 -0.261039
v 0.226814 0.277219 -0.324154
v 0.256313 0.273112 -0.333793
v 0.26715 0.263137 -0.334746
v 0.278428 0.261964 -0.343103
v 0.289225 0.256463 -0.34915
v 0.308329 0.260423 -0.495647
v 0.322176 0.215133 -0.34937
v 0.334498 0.202738 -0.360805
v 0.334939 0.207908 -0.378068
v 0.32619 0.226795 -0.394891
v 0.320651 0.237393 -0.411715
v 0.316316 0.247368 -0.478824
v 0.334417 0.226428 -0.634117
v 0.345615 0.205928 -0.634117
v 0.369697 0.157007 -0.635473
v 0.352398 0.192433 -0.613262
v 0.360907 0.159647 -0.411715
v 0.357375 0.165515 -0.394891
v 0.356452 0.164892 -0.378068
v 0.353562 0.166028 -0.363591
v 0.364961 0.141311 -0.362748
v 0.378045 0.109259 -0.378068
v 0.316999 0.192249 -0.332327
v 0.294041 0.209999 -0.326279
v 0.172029 0.147399 -0.261039
v 0.337829 0.188582 -0.35047
v 0.328397 0.194853 -0.343432
v 0.31748 0.205525 -0.337788
v 0.159787 0.160418 -0.261039
v 0.242788 0.259617 -0.322724
v 0.282964 0.241207 -0.332693
v 0.283485 0.249715 -0.337935
v 0.29954 0.231709 -0.338924
v 0.310135 0.225988 -0.345045
v 0.333494 0.213299 -0.394891
v 0.342324 0.193239 -0.378068
v 0.326832 0.226795 -0.411715
v 0.334417 0.21517 -0.445287
v 0.340438 0.215353 -0.613262
v 0.357214 0.182824 -0.632761
v 0.335019 0.216416 -0.478824
v 0.305921 0.215243 -0.33372
v 0.293961 0.226391 -0.33196
v 0.277184 0.226795 -0.32485
v 0.253384 0.244471 -0.321735
v 0.3353 0.21704 -0.495647
f 1 2 3
f 1 3 4
f 1 4 5
f 1 5 6
f 1 6 15
f 1 15 28
f 1 28 29
f 1 29 16
f 1 16 7
f 1 7 2
f 2 8 3
f 2 7 8
f 3 8 9
f 3 9 10
f 3 10 11
f 3 11 12
f 3 12 4
f 4 13 5
f 4 12 14
f 4 14 13
f 5 15 6
f 5 13 14
f 5 14 12
f 5 12 11
f 5 11 27
f 5 27 47
f 5 47 69
f 5 69 88
f 5 88 113
f 5 113 150
f 5 150 189
f 5 189 223
f 5 223 190
f 5 190 151
f 5 151 114
f 5 114 90
f 5 90 89
f 5 89 71
f 5 71 48
f 5 48 28
f 5 28 15
f 7 16 17
f 7 17 18
f 7 18 19
f 7 19 20
f 7 20 8
f 8 20 9
f 9 21 22
f 9 22 10
f 9 20 19
f 9 19 21
f 10 23 24
f 10 24 25
f 10 25 11
f 10 22 26
f 10 26 23
f 11 25 27
f 16 29 30
f 16 30 31
f 16 31 17
f 17 31 18
f 18 31 32
f 18 32 33
f 18 33 34
f 18 34 35
f 18 35 19
f 19 35 36
f 19 36 37
f 19 37 21
f 21 37 38
f 21 38 22
f 22 38 26
f 23 39 40
f 23 40 24
f 23 26 41
f 23 41 39
f 24 40 42
f 24 42 43
f 24 43 25
f 25 43 44
f 25 44 45
f 25 45 46
f 25 46 27
f 26 38 37
f 26 37 36
f 26 36 41
f 27 46 47
f 28 48 70
f 28 70 54
f 28 54 29
f 29 49 50
f 29 50 51
f 29 51 52
f 29 52 53
f 29 53 30
f 29 54 49
f 30 53 31
f 31 53 55
f 31 55 56
f 31 56 32
f 32 56 57
f 32 57 58
f 32 58 59
f 32 59 33
f 33 59 60
f 33 60 34
f 34 60 35
f 35 60 39
f 35 39 41
f 35 41 36
f 39 61 40
f 39 60 62
f 39 62 61
f 40 61 42
f 42 63 64
f 42 64 65
f 42 65 44
f 42 44 43
f 42 61 63
f 44 65 66
f 44 66 45
f 45 66 46
f 46 66 47
f 47 66 67
f 47 67 68
f 47 68 69
f 48 71 70
f 49 54 75
f 49 75 93
f 49 93 119
f 49 119 161
f 49 161 198
f 49 198 203
f 49 203 233
f 49 233 237
f 49 237 208
f 49 208 170
f 49 170 173
f 49 173 172
f 49 172 169
f 49 169 160
f 49 160 118
f 49 118 91
f 49 91 72
f 49 72 73
f 49 73 50
f 50 73 74
f 50 74 51
f 51 74 52
f 52 74 55
f 52 55 53
f 54 70 90
f 54 90 117
f 54 117 124
f 54 124 97
f 54 97 76
f 54 76 75
f 55 74 77
f 55 77 57
f 55 57 56
f 57 77 58
f 58 77 78
f 58 78 59
f 59 78 79
f 59 79 62
f 59 62 60
f 61 62 80
f 61 80 81
f 61 81 63
f 62 79 80
f 63 81 82
f 63 82 83
f 63 83 64
f 64 83 84
f 64 84 85
f 64 85 65
f 65 85 67
f 65 67 66
f 67 85 68
f 68 85 86
f 68 86 69
f 69 86 87
f 69 87 88
f 70 71 89
f 70 89 90
f 72 91 92
f 72 92 73
f 73 92 74
f 74 92 77
f 75 76 94
f 75 94 95
f 75 95 96
f 75 96 93
f 76 97 98
f 76 98 99
f 76 99 100
f 76 100 94
f 77 92 101
f 77 101 102
f 77 102 78
f 78 103 80
f 78 80 79
f 78 102 103
f 80 104 105
f 80 105 81
f 80 103 104
f 81 105 106
f 81 106 82
f 82 106 83
f 83 106 107
f 83 107 108
f 83 108 84
f 84 108 109
f 84 109 110
f 84 110 85
f 85 110 86
f 86 110 111
f 86 111 87
f 87 111 112
f 87 112 88
f 88 112 113
f 90 114 115
f 90 115 156
f 90 156 116
f 90 116 117
f 91 118 101
f 91 101 92
f 93 96 120
f 93 120 119
f 94 100 95
f 95 100 121
f 95 121 122
f 95 122 123
f 95 123 96
f 96 123 120
f 97 124 125
f 97 125 126
f 97 126 98
f 98 127 123
f 98 123 99
f 98 126 128
f 98 128 127
f 99 123 122
f 99 122 121
f 99 121 100
f 101 118 129
f 101 129 130
f 101 130 102
f 102 130 103
f 103 130 104
f 104 130 131
f 104 131 132
f 104 132 133
f 104 133 105
f 105 133 134
f 105 134 106
f 106 134 135
f 106 135 136
f 106 136 107
f 107 136 108
f 108 136 137
f 108 137 138
f 108 138 109
f 109 138 139
f 109 139 140
f 109 140 110
f 110 140 111
f 111 141 112
f 111 140 142
f 111 142 143
f 111 143 144
f 111 144 141
f 112 145 146
f 112 146 113
f 112 141 147
f 112 147 145
f 113 146 148
f 113 148 149
f 113 149 150
f 114 151 152
f 114 152 153
f 114 153 154
f 114 154 155
f 114 155 115
f 115 155 157
f 115 157 158
f 115 158 156
f 116 156 158
f 116 158 159
f 116 159 125
f 116 125 124
f 116 124 117
f 118 160 130
f 118 130 129
f 119 120 161
f 120 123 162
f 120 162 163
f 120 163 161
f 123 127 164
f 123 164 165
f 123 165 166
f 123 166 162
f 125 167 126
f 125 159 167
f 126 167 128
f 127 128 164
f 128 167 168
f 128 168 165
f 128 165 164
f 130 160 169
f 130 169 131
f 131 170 171
f 131 171 132
f 131 169 172
f 131 172 173
f 131 173 170
f 132 171 133
f 133 171 134
f 134 174 135
f 134 171 174
f 135 174 175
f 135 175 176
f 135 176 136
f 136 176 137
f 137 176 177
f 137 177 138
f 138 177 178
f 138 178 139
f 139 178 179
f 139 179 142
f 139 142 140
f 141 180 181
f 141 181 147
f 141 144 182
f 141 182 180
f 142 183 143
f 142 179 183
f 143 183 184
f 143 184 185
f 143 185 144
f 144 185 186
f 144 186 182
f 145 149 187
f 145 187 146
f 145 147 149
f 146 187 148
f 147 181 188
f 147 188 189
f 147 189 150
f 147 150 149
f 148 187 149
f 151 190 152
f 152 190 191
f 152 191 192
f 152 192 193
f 152 193 194
f 152 194 153
f 153 194 195
f 153 195 154
f 154 195 196
f 154 196 157
f 154 157 155
f 157 196 158
f 158 196 159
f 159 196 197
f 159 197 167
f 161 163 198
f 162 199 200
f 162 200 201
f 162 201 163
f 162 166 199
f 163 201 202
f 163 202 203
f 163 203 198
f 165 204 205
f 165 205 166
f 165 168 204
f 166 205 206
f 166 206 199
f 167 197 207
f 167 207 204
f 167 204 168
f 170 208 174
f 170 174 171
f 174 209 175
f 174 208 209
f 175 209 210
f 175 210 176
f 176 210 177
f 177 210 211
f 177 211 212
f 177 212 178
f 178 212 213
f 178 213 179
f 179 213 183
f 180 182 186
f 180 186 181
f 181 186 214
f 181 214 188
f 183 213 215
f 183 215 184
f 184 215 216
f 184 216 185
f 185 216 217
f 185 217 218
f 185 218 186
f 186 218 219
f 186 219 214
f 188 214 220
f 188 220 221
f 188 221 189
f 189 221 222
f 189 222 223
f 190 223 191
f 191 223 224
f 191 224 225
f 191 225 226
f 191 226 227
f 191 227 192
f 192 227 228
f 192 228 229
f 192 229 193
f 193 230 194
f 193 229 204
f 193 204 230
f 194 230 197
f 194 197 195
f 195 197 196
f 197 230 207
f 199 206 231
f 199 231 200
f 200 231 202
f 200 202 201
f 202 231 232
f 202 232 203
f 203 232 233
f 204 229 205
f 204 207 230
f 205 229 234
f 205 234 206
f 206 235 236
f 206 236 231
f 206 234 235
f 208 237 238
f 208 238 209
f 209 238 210
f 210 238 239
f 210 239 211
f 211 239 240
f 211 240 212
f 212 240 213
f 213 241 242
f 213 242 215
f 213 240 241
f 214 219 220
f 215 235 234
f 215 234 216
f 215 242 236
f 215 236 235
f 216 234 228
f 216 228 217
f 217 243 218
f 217 228 244
f 217 244 243
f 218 245 219
f 218 243 246
f 218 246 245
f 219 245 247
f 219 247 221
f 219 221 220
f 221 247 222
f 222 247 224
f 222 224 248
f 222 248 223
f 223 248 224
f 224 247 249
f 224 249 246
f 224 246 243
f 224 243 226
f 224 226 225
f 226 244 227
f 226 243 244
f 227 244 228
f 228 234 229
f 231 236 250
f 231 250 232
f 232 251 252
f 232 252 233
f 232 250 251
f 233 252 253
f 233 253 238
f 233 238 237
f 236 242 241
f 236 241 250
f 238 253 252
f 238 252 239
f 239 252 251
f 239 251 250
f 239 250 240
f 240 250 241
f 245 246 249
f 245 249 254
f 245 254 247
f 247 254 249
