v 0.00721788 0.228392 0.0998348
v 0.00721788 0.22866 -0.260969
v -0.00840138 0.228705 -0.261039
v -0.0252221 0.228392 0.0998348
v 0.00721788 -0.224979 0.0998348
v -0.00775443 0.22866 -0.261039
v 0.00721788 0.226109 -0.261039
v -0.0252221 0.228436 -0.042028
v -0.0245521 0.228257 -0.261039
v -0.0252221 0.228392 -0.243624
v -0.0252221 0.228436 -0.22681
v -0.0420198 0.226333 0.0998348
v -0.00098454 -0.225695 0.0998348
v 0.00721788 -0.225069 0.0923814
v 0.00721788 -0.226993 -0.261039
v -0.0252221 0.228213 -0.261039
v -0.0420198 0.226243 -0.243624
v -0.0420198 0.226333 -0.22681
v -0.0588174 0.221499 -0.0084345
v -0.0494366 0.224184 0.0998348
v -0.00840138 -0.226322 0.0998348
v -0.00840138 -0.226411 0.0923814
v 0.00721788 -0.225427 0.0419734
v 0.00721788 -0.226456 -0.143974
v -0.00840138 -0.22856 -0.261039
v -0.0414652 0.22584 -0.261039
v -0.0420198 0.225706 -0.261039
v -0.0588174 0.22123 -0.261039
v -0.0588174 0.221454 -0.243624
v -0.0588174 0.221499 -0.22681
v -0.0677592 0.218634 -0.261039
v -0.0588174 0.221454 0.0998348
v -0.0252221 -0.222383 0.0998348
v -0.0252221 -0.225516 -0.159623
v -0.025199 -0.226456 -0.261039
v -0.00840138 -0.226635 0.0587879
v -0.0252221 -0.225695 -0.176402
v -0.0252221 -0.225874 -0.193217
v 0.00721788 -0.22574 -0.00956489
v -0.00840138 -0.227575 -0.0924006
v -0.00840138 -0.227888 -0.142809
v 0.00721788 -0.226277 -0.109215
v 0.00721788 -0.226188 -0.0924006
v -0.0089559 -0.228515 -0.261039
v -0.0675743 0.218545 0.0998348
v -0.0760771 0.215814 -0.261039
v -0.076054 0.215769 -0.042028
v -0.0722647 0.216978 0.0998348
v -0.053041 -0.215445 0.0998348
v -0.0494597 -0.218176 -0.0588424
v -0.0498294 -0.218265 -0.0756215
v -0.0258229 -0.226322 -0.261039
v -0.0924358 0.210085 -0.261039
v -0.0759847 0.215725 0.0998348
v -0.0588174 -0.213968 0.0998348
v -0.0588174 -0.214729 0.0251943
v -0.0588174 -0.215042 -0.0084345
v -0.0588174 -0.215177 -0.0252136
v -0.0588174 -0.215714 -0.0924006
v -0.0500604 -0.21831 -0.0924006
v -0.0425743 -0.221667 -0.261039
v -0.105976 0.204266 -0.261039
v -0.0924358 0.209772 0.0923814
v -0.0832398 0.213084 0.0998348
v -0.0681982 -0.211104 0.0998348
v -0.075615 -0.209671 0.0251943
v -0.075615 -0.210119 -0.0252136
v -0.075615 -0.210522 -0.0756215
v -0.0756612 -0.211596 -0.261039
v -0.105675 0.204042 0.0998348
v -0.139432 0.187437 -0.261039
v -0.143938 0.184885 0.0998348
v -0.0982814 0.20722 0.0998348
v -0.0924358 0.209727 0.0998348
v -0.075615 -0.208821 0.0998348
v -0.0907491 -0.204792 -0.0756215
v -0.102186 -0.202331 -0.261039
v -0.0924358 -0.206091 -0.261039
v -0.0762158 -0.211417 -0.261039
v -0.147773 0.18305 -0.261039
v -0.147658 0.183005 0.0998348
v -0.0826391 -0.205956 0.0998348
v -0.0894321 -0.2043 0.00837992
v -0.0881844 -0.203673 0.0998348
v -0.0918812 -0.201838 0.0998348
v -0.103619 -0.195975 0.0998348
v -0.163762 -0.165896 0.0998348
v -0.164224 -0.166075 0.0587879
v -0.164432 -0.16612 0.0419734
v -0.164548 -0.166165 0.0251943
v -0.133379 -0.184293 -0.125994
v -0.110943 -0.197452 -0.261039
v -0.159511 0.174725 -0.261039
v -0.159441 0.174591 0.0998348
v -0.169793 -0.161197 0.0998348
v -0.174552 -0.157482 0.0998348
v -0.164779 -0.166165 -0.0084345
v -0.156461 -0.170999 -0.042028
v -0.174645 -0.15775 0.0419734
v -0.125315 -0.18935 -0.261039
v -0.167852 0.167832 -0.261039
v -0.167852 0.167832 0.0998348
v -0.164132 0.170831 0.0998348
v -0.178272 -0.15314 0.0998348
v -0.164871 -0.16621 -0.042028
v -0.182963 -0.147634 0.0998348
v -0.182963 -0.147679 0.0923814
v -0.183055 -0.147813 0.0419734
v -0.183055 -0.147858 0.0251943
v -0.183055 -0.147992 -0.0756215
v -0.174645 -0.157884 -0.142809
v -0.165079 -0.166254 -0.176402
v -0.165033 -0.166254 -0.142809
v -0.164964 -0.166254 -0.109215
v -0.133402 -0.18474 -0.261039
v -0.174506 0.159462 -0.261039
v -0.184418 0.150599 -0.142809
v -0.18458 0.150868 -0.125994
v -0.184649 0.150957 -0.109215
v -0.184649 0.151002 -0.0588424
v -0.184649 0.151047 0.0419734
v -0.184649 0.151047 0.0756023
v -0.184649 0.151002 0.0923814
v -0.180814 0.154717 0.0998348
v -0.1569 -0.171312 -0.261039
v -0.143429 -0.179011 -0.261039
v -0.185343 -0.142979 0.0998348
v -0.187237 -0.139264 0.0998348
v -0.187399 -0.139488 0.00837992
v -0.200592 -0.115049 -0.261039
v -0.187515 -0.139578 -0.0588424
v -0.187538 -0.139578 -0.0756215
v -0.183055 -0.147992 -0.159623
v -0.187561 -0.139578 -0.109215
v -0.174645 -0.157884 -0.159623
v -0.164987 -0.166075 -0.261039
v -0.182824 0.147735 -0.261039
v -0.183194 0.148227 -0.243624
v -0.18421 0.150241 -0.159623
v -0.199807 0.130816 0.0587879
v -0.199968 0.131218 0.0756023
v -0.191558 0.142632 0.0756023
v -0.191373 0.142632 0.0923814
v -0.184534 0.150868 0.0998348
v -0.199853 -0.114065 0.0998348
v -0.200384 -0.115139 -0.209996
v -0.204659 -0.106948 -0.261039
v -0.1941 -0.125971 -0.261039
v -0.182917 -0.147858 -0.176402
v -0.187561 -0.139578 -0.159623
v -0.174529 -0.15784 -0.176402
v -0.165495 -0.165583 -0.261039
v -0.187561 0.139409 -0.261039
v -0.188716 0.141826 -0.159623
v -0.199622 0.130413 0.0419734
v -0.204659 0.106645 -0.261039
v -0.20385 0.122043 0.0419734
v -0.20422 0.122804 0.0756023
v -0.199784 0.131174 0.0923814
v -0.20422 0.122759 0.0923814
v -0.191165 0.142453 0.0998348
v -0.210689 -0.0924009 0.0998348
v -0.216951 -0.0809425 -0.0756215
v -0.216974 -0.0809425 -0.0924006
v -0.216997 -0.0809872 -0.125994
v -0.21159 -0.0924009 -0.243624
v -0.211267 -0.0930276 -0.261039
v -0.219007 -0.0757503 0.0998348
v -0.220856 -0.0720353 0.0998348
v -0.220948 -0.0723038 0.0251943
v -0.220971 -0.0723486 0.00837992
v -0.193776 -0.126508 -0.261039
v -0.182639 -0.14759 -0.193217
v -0.172866 -0.157526 -0.261039
v -0.174229 -0.15775 -0.193217
v -0.173882 -0.157705 -0.209996
v -0.194654 0.126026 -0.261039
v -0.199414 0.130055 0.0251943
v -0.211775 0.0924118 -0.261039
v -0.221341 0.0730308 -0.261039
v -0.218638 0.0844446 -0.125994
v -0.218753 0.0847131 -0.109215
v -0.209811 0.109197 0.0419734
v -0.210204 0.109197 0.0756023
v -0.199576 0.13086 0.0998348
v -0.195856 0.136052 0.0998348
v -0.201563 0.127145 0.0998348
v -0.209973 0.109197 0.0923814
v -0.207247 0.114881 0.0998348
v -0.204035 0.122446 0.0998348
v -0.216997 -0.0809872 -0.209996
v -0.220971 -0.0723934 -0.0084345
v -0.220971 -0.0725724 -0.0924006
v -0.220971 -0.0725724 -0.209996
v -0.220925 -0.0725724 -0.22681
v -0.21672 -0.0801815 -0.261039
v -0.223051 -0.0662165 0.0998348
v -0.225846 -0.0587864 0.0998348
v -0.225962 -0.0587864 0.00837992
v -0.186844 -0.137429 -0.261039
v -0.187376 -0.138414 -0.22681
v -0.18227 -0.147232 -0.209996
v -0.181923 -0.146829 -0.22681
v -0.180976 -0.146292 -0.261039
v -0.226424 0.0587525 -0.261039
v -0.221503 0.0737022 -0.22681
v -0.221572 0.0740603 -0.209996
v -0.218776 0.0848026 -0.0924006
v -0.215957 0.093486 0.0251943
v -0.221803 0.0755821 -0.125994
v -0.221919 0.0755821 -0.109215
v -0.21598 0.093486 0.0419734
v -0.21598 0.093486 0.0756023
v -0.209626 0.109197 0.0998348
v -0.215772 0.0933517 0.0923814
v -0.217043 0.0895024 0.0998348
v -0.225962 -0.0587864 -0.209996
v -0.220555 -0.0723038 -0.243624
v -0.225916 -0.0587864 -0.22681
v -0.219931 -0.0713191 -0.261039
v -0.226979 -0.0513563 0.0998348
v -0.228388 -0.0420015 0.0998348
v -0.228411 -0.0420015 0.0756023
v -0.228457 -0.0420015 -0.0252136
v -0.181484 -0.145531 -0.261039
v -0.181276 -0.145844 -0.261039
v -0.226586 0.0587973 -0.209996
v -0.228688 0.0419676 -0.261039
v -0.221965 0.0755821 -0.0924006
v -0.218753 0.0849817 0.0923814
v -0.221965 0.0755821 0.0756023
v -0.221942 0.0755821 0.0998348
v -0.218707 0.0848026 0.0998348
v -0.228457 -0.0420015 -0.22681
v -0.225361 -0.0587864 -0.243624
v -0.228249 -0.0420015 -0.243624
v -0.224067 -0.059234 -0.261039
v -0.228388 0.0419676 0.0998348
v -0.228411 0.0251827 0.0923814
v -0.228804 0.0251827 -0.261039
v -0.228735 0.00839786 -0.261039
v -0.226609 0.0587973 -0.193217
v -0.228411 0.0419676 0.0923814
v -0.227649 0.0493977 0.0998348
v -0.226632 0.0587973 0.0998348
v -0.22855 -0.0251719 -0.243624
v -0.228411 -0.0251719 -0.260404
v -0.227672 -0.0420015 -0.260404
v -0.227649 -0.0420015 -0.261039
v -0.227533 -0.0425834 -0.261039
v -0.224206 -0.0587864 -0.261039
v -0.228365 -0.0257985 -0.261039
v -0.228573 -0.00834226 -0.261039
v -0.228388 -0.0251719 -0.261039
f 1 2 3
f 1 3 4
f 1 4 12
f 1 12 20
f 1 20 32
f 1 32 45
f 1 45 48
f 1 48 54
f 1 54 64
f 1 64 74
f 1 74 73
f 1 73 70
f 1 70 72
f 1 72 81
f 1 81 94
f 1 94 103
f 1 103 102
f 1 102 124
f 1 124 144
f 1 144 161
f 1 161 186
f 1 186 185
f 1 185 187
f 1 187 190
f 1 190 189
f 1 189 214
f 1 214 216
f 1 216 233
f 1 233 232
f 1 232 245
f 1 245 244
f 1 244 238
f 1 238 222
f 1 222 221
f 1 221 198
f 1 198 197
f 1 197 169
f 1 169 168
f 1 168 162
f 1 162 145
f 1 145 128
f 1 128 127
f 1 127 106
f 1 106 104
f 1 104 96
f 1 96 95
f 1 95 87
f 1 87 86
f 1 86 85
f 1 85 84
f 1 84 82
f 1 82 75
f 1 75 65
f 1 65 55
f 1 55 49
f 1 49 33
f 1 33 21
f 1 21 13
f 1 13 5
f 1 5 14
f 1 14 23
f 1 23 39
f 1 39 43
f 1 43 42
f 1 42 24
f 1 24 15
f 1 15 7
f 1 7 2
f 2 6 3
f 2 7 6
f 3 8 4
f 3 6 7
f 3 7 15
f 3 15 25
f 3 25 44
f 3 44 35
f 3 35 52
f 3 52 61
f 3 61 69
f 3 69 79
f 3 79 78
f 3 78 77
f 3 77 92
f 3 92 100
f 3 100 115
f 3 115 126
f 3 126 125
f 3 125 136
f 3 136 152
f 3 152 174
f 3 174 204
f 3 204 226
f 3 226 225
f 3 225 200
f 3 200 172
f 3 172 148
f 3 148 130
f 3 130 147
f 3 147 167
f 3 167 196
f 3 196 220
f 3 220 237
f 3 237 251
f 3 251 250
f 3 250 249
f 3 249 252
f 3 252 254
f 3 254 253
f 3 253 241
f 3 241 240
f 3 240 228
f 3 228 205
f 3 205 180
f 3 180 179
f 3 179 156
f 3 156 177
f 3 177 153
f 3 153 137
f 3 137 116
f 3 116 101
f 3 101 93
f 3 93 80
f 3 80 71
f 3 71 62
f 3 62 53
f 3 53 46
f 3 46 31
f 3 31 28
f 3 28 27
f 3 27 26
f 3 26 16
f 3 16 9
f 3 9 10
f 3 10 11
f 3 11 8
f 4 8 12
f 5 13 14
f 8 11 18
f 8 18 12
f 9 16 10
f 10 16 17
f 10 17 18
f 10 18 11
f 12 18 30
f 12 30 19
f 12 19 20
f 13 21 22
f 13 22 14
f 14 22 23
f 15 24 25
f 16 26 17
f 17 26 27
f 17 27 28
f 17 28 29
f 17 29 18
f 18 29 30
f 19 30 31
f 19 31 32
f 19 32 20
f 21 33 34
f 21 34 22
f 22 35 36
f 22 36 23
f 22 34 37
f 22 37 38
f 22 38 35
f 23 36 40
f 23 40 41
f 23 41 39
f 24 42 25
f 25 42 43
f 25 43 39
f 25 39 41
f 25 41 44
f 28 31 29
f 29 31 30
f 31 45 32
f 31 46 47
f 31 47 48
f 31 48 45
f 33 49 34
f 34 49 50
f 34 50 51
f 34 51 37
f 35 44 41
f 35 41 40
f 35 40 36
f 35 38 52
f 37 51 38
f 38 51 52
f 46 53 47
f 47 54 48
f 47 53 54
f 49 55 50
f 50 55 51
f 51 55 56
f 51 56 57
f 51 57 58
f 51 58 59
f 51 59 60
f 51 60 61
f 51 61 52
f 53 62 63
f 53 63 54
f 54 63 64
f 55 65 66
f 55 66 56
f 56 66 57
f 57 66 67
f 57 67 58
f 58 67 59
f 59 67 68
f 59 68 61
f 59 61 60
f 61 68 69
f 62 70 63
f 62 71 72
f 62 72 70
f 63 70 73
f 63 73 74
f 63 74 64
f 65 75 66
f 66 75 76
f 66 76 77
f 66 77 78
f 66 78 67
f 67 78 68
f 68 78 79
f 68 79 69
f 71 80 81
f 71 81 72
f 75 82 76
f 76 82 83
f 76 83 77
f 77 83 84
f 77 84 85
f 77 85 86
f 77 86 87
f 77 87 88
f 77 88 89
f 77 89 90
f 77 90 91
f 77 91 92
f 80 93 81
f 81 93 94
f 82 84 83
f 87 95 88
f 88 95 96
f 88 96 89
f 89 96 90
f 90 97 98
f 90 98 91
f 90 96 99
f 90 99 97
f 91 98 92
f 92 98 100
f 93 101 102
f 93 102 103
f 93 103 94
f 96 104 99
f 97 105 98
f 97 99 105
f 98 105 100
f 99 104 106
f 99 106 107
f 99 107 108
f 99 108 109
f 99 109 110
f 99 110 111
f 99 111 112
f 99 112 113
f 99 113 114
f 99 114 105
f 100 105 115
f 101 116 117
f 101 117 118
f 101 118 119
f 101 119 120
f 101 120 121
f 101 121 122
f 101 122 102
f 102 122 123
f 102 123 124
f 105 114 125
f 105 125 126
f 105 126 115
f 106 127 108
f 106 108 107
f 108 127 128
f 108 128 129
f 108 129 130
f 108 130 131
f 108 131 109
f 109 131 132
f 109 132 110
f 110 133 135
f 110 135 111
f 110 132 134
f 110 134 150
f 110 150 133
f 111 135 112
f 112 135 136
f 112 136 125
f 112 125 113
f 113 125 114
f 116 137 138
f 116 138 139
f 116 139 117
f 117 139 140
f 117 140 141
f 117 141 118
f 118 141 119
f 119 141 142
f 119 142 120
f 120 142 121
f 121 142 122
f 122 142 123
f 123 142 143
f 123 143 144
f 123 144 124
f 128 145 146
f 128 146 130
f 128 130 129
f 130 146 147
f 130 148 149
f 130 149 133
f 130 133 150
f 130 150 134
f 130 134 132
f 130 132 131
f 133 149 151
f 133 151 135
f 135 151 136
f 136 151 152
f 137 153 138
f 138 153 139
f 139 153 154
f 139 154 140
f 140 154 155
f 140 155 156
f 140 156 157
f 140 157 158
f 140 158 141
f 141 159 143
f 141 143 142
f 141 158 160
f 141 160 159
f 143 159 161
f 143 161 144
f 145 162 147
f 145 147 146
f 147 163 164
f 147 164 165
f 147 165 166
f 147 166 167
f 147 162 168
f 147 168 169
f 147 169 170
f 147 170 171
f 147 171 163
f 148 172 149
f 149 172 173
f 149 173 174
f 149 174 175
f 149 175 151
f 151 175 152
f 152 175 176
f 152 176 174
f 153 177 178
f 153 178 154
f 154 178 155
f 155 178 156
f 156 179 157
f 156 178 177
f 157 179 158
f 158 179 180
f 158 180 181
f 158 181 182
f 158 182 183
f 158 183 184
f 158 184 160
f 159 185 186
f 159 186 161
f 159 160 187
f 159 187 185
f 160 184 188
f 160 188 189
f 160 189 190
f 160 190 187
f 163 171 164
f 164 171 165
f 165 191 166
f 165 171 192
f 165 192 193
f 165 193 194
f 165 194 191
f 166 191 194
f 166 194 167
f 167 194 195
f 167 195 196
f 169 197 170
f 170 197 198
f 170 198 171
f 171 198 199
f 171 199 192
f 172 200 201
f 172 201 173
f 173 202 174
f 173 201 200
f 173 200 202
f 174 176 175
f 174 202 203
f 174 203 204
f 180 205 206
f 180 206 207
f 180 207 182
f 180 182 181
f 182 208 209
f 182 209 184
f 182 184 183
f 182 207 210
f 182 210 211
f 182 211 208
f 184 209 212
f 184 212 213
f 184 213 188
f 188 214 189
f 188 213 215
f 188 215 216
f 188 216 214
f 192 199 193
f 193 199 217
f 193 217 194
f 194 217 219
f 194 219 195
f 195 218 196
f 195 219 218
f 196 218 220
f 198 221 199
f 199 221 222
f 199 222 223
f 199 223 224
f 199 224 234
f 199 234 217
f 200 225 203
f 200 203 202
f 203 225 226
f 203 226 204
f 205 227 211
f 205 211 210
f 205 210 207
f 205 207 206
f 205 228 227
f 208 211 229
f 208 229 209
f 209 229 212
f 211 227 229
f 212 229 231
f 212 231 213
f 213 230 216
f 213 216 215
f 213 231 232
f 213 232 230
f 216 230 233
f 217 234 219
f 218 219 235
f 218 235 220
f 219 234 236
f 219 236 235
f 220 235 237
f 222 238 243
f 222 243 239
f 222 239 240
f 222 240 223
f 223 240 224
f 224 240 241
f 224 241 234
f 227 242 229
f 227 228 242
f 228 240 243
f 228 243 244
f 228 244 245
f 228 245 242
f 229 242 245
f 229 245 231
f 230 232 233
f 231 245 232
f 234 241 246
f 234 246 247
f 234 247 236
f 235 236 248
f 235 248 249
f 235 249 250
f 235 250 251
f 235 251 237
f 236 247 252
f 236 252 248
f 238 244 243
f 239 243 240
f 241 253 246
f 246 253 247
f 247 253 254
f 247 254 252
f 248 252 249
