v -0.00840231 0.228688 0.201416
v -0.00840231 0.228399 0.0998448
v -0.0252078 0.228399 0.0998448
v -0.0252078 0.228644 0.201416
v 0.000198022 0.228644 0.201416
v 0.00721775 0.228399 0.109221
v 0.00721775 0.228377 0.0998448
v -0.0326459 0.227487 0.0998448
v -0.0420133 0.226931 0.201416
v -0.033413 0.227932 0.201416
v 0.00721775 0.228599 0.201416
v 0.00721775 0.0840816 0.0998448
v -0.0420133 0.226331 0.0998448
v -0.0501953 0.224863 0.201416
v 0.00721775 0.104651 0.201416
v -0.106679 0.00153818 0.201416
v -0.101402 0.00153818 0.0998448
v -0.0588188 0.221461 0.0998448
v -0.0588188 0.222462 0.201416
v -0.230221 0.00153818 0.201416
v -0.228385 0.00153818 0.0998448
v -0.0675819 0.218548 0.0998448
v -0.0644904 0.220572 0.201416
v -0.230221 0.00840938 0.201416
v -0.228408 0.0252205 0.0998448
v -0.075973 0.215746 0.0998448
v -0.0690927 0.219037 0.201416
v -0.229803 0.0252205 0.201416
v -0.228408 0.0420093 0.0998448
v -0.0924299 0.209765 0.0998448
v -0.0774839 0.216147 0.201416
v -0.228269 0.0588204 0.201416
v -0.228338 0.0588204 0.176419
v -0.228315 0.0588204 0.159614
v -0.22792 0.0588204 0.14283
v -0.227641 0.0494365 0.0998448
v -0.0924299 0.210543 0.201416
v -0.105679 0.20405 0.0998448
v -0.22613 0.0756315 0.201416
v -0.226153 0.0756315 0.193223
v -0.22606 0.0756315 0.176419
v -0.226642 0.0588204 0.0998448
v -0.105865 0.204405 0.201416
v -0.126018 0.193865 0.0998448
v -0.223736 0.082436 0.201416
v -0.221202 0.0895963 0.201416
v -0.221202 0.0896186 0.193223
v -0.225433 0.0756315 0.159614
v -0.221063 0.0894407 0.176419
v -0.221923 0.0756315 0.0998448
v -0.139244 0.187239 0.0998448
v -0.143939 0.184881 0.0998448
v -0.147658 0.183014 0.0998448
v -0.110165 0.202226 0.201416
v -0.219064 0.0939103 0.201416
v -0.214276 0.103472 0.201416
v -0.21137 0.109232 0.193223
v -0.204048 0.12244 0.0998448
v -0.220528 0.0887513 0.159614
v -0.217042 0.0895074 0.0998448
v -0.218715 0.0848154 0.0998448
v -0.207256 0.114902 0.0998448
v -0.209627 0.109232 0.0998448
v -0.152865 0.1793 0.0998448
v -0.147658 0.183014 0.176419
v -0.139267 0.187239 0.201416
v -0.207976 0.116014 0.201416
v -0.204397 0.12313 0.201416
v -0.204374 0.123085 0.193223
v -0.19998 0.131491 0.193223
v -0.201561 0.127132 0.0998448
v -0.159443 0.174608 0.176419
v -0.159443 0.174608 0.0998448
v -0.153399 0.178811 0.201416
v -0.147658 0.182902 0.201416
v -0.200004 0.131535 0.201416
v -0.191171 0.142476 0.0998448
v -0.195866 0.136071 0.0998448
v -0.199562 0.130846 0.0998448
v -0.164138 0.170828 0.0998448
v -0.167834 0.167848 0.201416
v -0.163743 0.171095 0.201416
v -0.159443 0.174497 0.201416
v -0.191613 0.142631 0.201416
v -0.191589 0.142631 0.193223
v -0.191496 0.142631 0.176419
v -0.184523 0.150881 0.0998448
v -0.167834 0.167848 0.0998448
v -0.176248 0.159442 0.201416
v -0.188056 0.146945 0.201416
v -0.184639 0.151037 0.159614
v -0.180827 0.15475 0.0998448
v -0.176248 0.159442 0.159614
v -0.184639 0.151037 0.201416
f 1 2 3
f 1 3 4
f 1 4 10
f 1 10 9
f 1 9 14
f 1 14 19
f 1 19 23
f 1 23 27
f 1 27 31
f 1 31 37
f 1 37 43
f 1 43 54
f 1 54 66
f 1 66 75
f 1 75 74
f 1 74 83
f 1 83 82
f 1 82 81
f 1 81 89
f 1 89 94
f 1 94 90
f 1 90 84
f 1 84 76
f 1 76 68
f 1 68 67
f 1 67 56
f 1 56 55
f 1 55 46
f 1 46 45
f 1 45 39
f 1 39 32
f 1 32 28
f 1 28 24
f 1 24 20
f 1 20 16
f 1 16 15
f 1 15 11
f 1 11 5
f 1 5 6
f 1 6 7
f 1 7 2
f 2 7 12
f 2 12 17
f 2 17 21
f 2 21 25
f 2 25 29
f 2 29 36
f 2 36 42
f 2 42 50
f 2 50 61
f 2 61 60
f 2 60 63
f 2 63 62
f 2 62 58
f 2 58 71
f 2 71 79
f 2 79 78
f 2 78 77
f 2 77 87
f 2 87 92
f 2 92 88
f 2 88 80
f 2 80 73
f 2 73 64
f 2 64 53
f 2 53 52
f 2 52 51
f 2 51 44
f 2 44 38
f 2 38 30
f 2 30 26
f 2 26 22
f 2 22 18
f 2 18 13
f 2 13 8
f 2 8 3
f 3 8 9
f 3 9 10
f 3 10 4
f 5 11 6
f 6 11 15
f 6 15 12
f 6 12 7
f 8 13 9
f 9 13 14
f 12 15 16
f 12 16 17
f 13 18 19
f 13 19 14
f 16 20 21
f 16 21 17
f 18 22 19
f 19 22 23
f 20 24 29
f 20 29 25
f 20 25 21
f 22 26 27
f 22 27 23
f 24 28 29
f 26 30 31
f 26 31 27
f 28 32 33
f 28 33 34
f 28 34 29
f 29 34 35
f 29 35 36
f 30 37 31
f 30 38 37
f 32 39 40
f 32 40 33
f 33 40 34
f 34 40 41
f 34 41 35
f 35 41 42
f 35 42 36
f 37 38 43
f 38 44 43
f 39 45 40
f 40 45 46
f 40 46 47
f 40 47 41
f 41 48 42
f 41 47 49
f 41 49 48
f 42 48 50
f 43 44 51
f 43 51 52
f 43 52 53
f 43 53 54
f 46 55 47
f 47 55 56
f 47 56 57
f 47 57 58
f 47 58 49
f 48 49 59
f 48 59 60
f 48 60 61
f 48 61 50
f 49 58 62
f 49 62 63
f 49 63 59
f 53 64 65
f 53 65 54
f 54 65 66
f 56 67 57
f 57 67 68
f 57 68 69
f 57 69 58
f 58 69 70
f 58 70 71
f 59 63 60
f 64 72 65
f 64 73 72
f 65 72 74
f 65 74 75
f 65 75 66
f 68 76 70
f 68 70 69
f 70 76 77
f 70 77 78
f 70 78 79
f 70 79 71
f 72 73 80
f 72 80 81
f 72 81 82
f 72 82 83
f 72 83 74
f 76 84 85
f 76 85 86
f 76 86 77
f 77 86 87
f 80 88 81
f 81 88 93
f 81 93 89
f 84 90 91
f 84 91 85
f 85 91 87
f 85 87 86
f 87 91 92
f 88 92 91
f 88 91 93
f 89 93 91
f 89 91 94
f 90 94 91
