v -0.241875 -0.00841522 0.310559
v -0.241285 0.00707086 0.310559
v -0.240278 -0.0252211 0.310559
v -0.31083 -0.0420095 0.338747
v -0.327626 -0.0252211 0.34528
v -0.327626 0.00707086 0.34528
v -0.108545 0.00707086 0.310559
v -0.237086 -0.0390002 0.310559
v -0.31083 -0.0588154 0.339774
v -0.327626 -0.0420095 0.345537
v -0.338662 -0.0252211 0.351186
v -0.339044 -0.00841522 0.351186
v -0.338315 0.00707086 0.350701
v -0.108545 0.00707086 0.310873
v -0.0129029 -0.0921633 0.382569
v -0.0129029 -0.0921985 0.378061
v -0.0129029 -0.0952605 0.310559
v -0.234205 -0.047412 0.310559
v -0.294034 -0.14281 0.341286
v -0.294034 -0.126004 0.33946
v -0.31083 -0.109216 0.344909
v -0.328563 -0.058745 0.348162
v -0.336892 -0.0530961 0.35207
v -0.337864 -0.0420095 0.351414
v -0.346956 0.00707086 0.355779
v -0.339217 0.00707086 0.351186
v -0.0129029 -0.0921809 0.394865
v -0.10917 0.00707086 0.328676
v -0.0129029 -0.172709 0.310559
v -0.229833 -0.0588154 0.310559
v -0.277237 -0.159616 0.338747
v -0.294034 -0.159616 0.344253
v -0.308262 -0.14281 0.348647
v -0.312045 -0.126444 0.348019
v -0.222233 -0.0768356 0.310559
v -0.353966 -0.0212792 0.367733
v -0.355528 -0.00841522 0.365879
v -0.357228 0.00707086 0.36468
v -0.320165 -0.121129 0.352013
v -0.356603 0.00707086 0.364024
v -0.347615 0.00707086 0.356293
v -0.0129029 -0.092744 0.399373
v -0.126486 0.00707086 0.411697
v -0.0129029 -0.0943454 0.411669
v -0.0129029 -0.172709 0.463165
v -0.153694 -0.172709 0.310559
v -0.277237 -0.172709 0.341143
v -0.28095 -0.172709 0.342342
v -0.20561 -0.110412 0.310559
v -0.197663 -0.125124 0.310559
v -0.188571 -0.139554 0.310559
v -0.294693 -0.172709 0.347791
v -0.301217 -0.172709 0.351043
v -0.303542 -0.17123 0.35187
v -0.305451 -0.159616 0.350358
v -0.352543 -0.032489 0.3705
v -0.365002 0.00707086 0.379373
v -0.364169 0.00707086 0.37749
v -0.318465 -0.132322 0.353782
v -0.323635 -0.126444 0.360144
v -0.32197 -0.14281 0.364737
v -0.132317 0.00707086 0.427617
v -0.0129029 -0.0952957 0.415635
v -0.0562125 -0.172709 0.513777
v -0.0129029 -0.14281 0.45783
v -0.155984 -0.171354 0.310559
v -0.182324 -0.147966 0.310559
v -0.182185 -0.148124 0.310559
v -0.173926 -0.156923 0.310559
v -0.164382 -0.165335 0.310559
v -0.30323 -0.172709 0.352156
v -0.304757 -0.172709 0.354124
v -0.327314 -0.14281 0.378061
v -0.332381 -0.12449 0.379601
v -0.356118 -0.0262066 0.376891
v -0.360872 -0.00841522 0.378061
v -0.320339 -0.155093 0.367762
v -0.367431 0.00707086 0.394865
v -0.336094 -0.117891 0.38622
v -0.30965 -0.172709 0.360629
v -0.314613 -0.160267 0.361799
v -0.13249 0.00707086 0.428016
v -0.0129029 -0.0985865 0.424707
v -0.0742928 -0.172709 0.532749
v -0.0129029 -0.126285 0.452352
v -0.32249 -0.160267 0.377176
v -0.320859 -0.172709 0.38177
v -0.318673 -0.166303 0.370985
v -0.367431 0.00707086 0.477915
v -0.329951 -0.14281 0.394865
v -0.322456 -0.172709 0.394865
v -0.321553 -0.172709 0.385735
v -0.312114 -0.172709 0.364367
v -0.139917 0.00707086 0.443109
v -0.0129029 -0.104517 0.435777
v -0.148974 0.00707086 0.46114
v -0.149252 0.00707086 0.461682
v -0.157407 0.00707086 0.477259
v -0.15876 0.00707086 0.479627
v -0.0911586 -0.172709 0.548812
v -0.230666 0.00701807 0.601991
v -0.0129029 -0.115445 0.44599
v -0.317632 -0.172709 0.373353
v -0.367292 0.00707086 0.495661
v -0.329951 -0.14281 0.478857
v -0.322456 -0.172709 0.495661
v -0.322386 -0.172709 0.512465
v -0.0129029 -0.110694 0.442453
v -0.165632 0.00707086 0.491381
v -0.166083 0.00707086 0.492151
v -0.108233 -0.172709 0.564018
v -0.230249 0.00707086 0.600137
v -0.307603 0.00707086 0.601991
v -0.161537 -0.172709 0.601991
v -0.126348 -0.172709 0.578768
v -0.125966 -0.172709 0.578483
v -0.366945 0.00707086 0.50907
v -0.322039 -0.172709 0.528869
v -0.320235 -0.172709 0.601991
v -0.361635 0.00707086 0.601991
v -0.366841 0.00707086 0.511723
v -0.33776 -0.0993608 0.601991
v -0.366147 0.00707086 0.529269
v -0.365245 0.00707086 0.546073
v -0.3599 -0.00334705 0.601991
v -0.355111 -0.026101 0.601991
v -0.358998 -0.00841522 0.601991
f 1 2 7
f 1 7 17
f 1 17 29
f 1 29 46
f 1 46 66
f 1 66 70
f 1 70 69
f 1 69 68
f 1 68 67
f 1 67 51
f 1 51 50
f 1 50 49
f 1 49 35
f 1 35 30
f 1 30 18
f 1 18 8
f 1 8 3
f 1 3 4
f 1 4 5
f 1 5 6
f 1 6 2
f 2 6 13
f 2 13 26
f 2 26 25
f 2 25 41
f 2 41 40
f 2 40 38
f 2 38 58
f 2 58 57
f 2 57 78
f 2 78 89
f 2 89 104
f 2 104 117
f 2 117 121
f 2 121 123
f 2 123 124
f 2 124 120
f 2 120 113
f 2 113 112
f 2 112 110
f 2 110 109
f 2 109 99
f 2 99 98
f 2 98 97
f 2 97 96
f 2 96 94
f 2 94 82
f 2 82 62
f 2 62 43
f 2 43 28
f 2 28 14
f 2 14 7
f 3 8 9
f 3 9 4
f 4 9 10
f 4 10 5
f 5 10 11
f 5 11 12
f 5 12 13
f 5 13 6
f 7 14 15
f 7 15 16
f 7 16 17
f 8 18 19
f 8 19 20
f 8 20 9
f 9 20 21
f 9 21 10
f 10 22 23
f 10 23 24
f 10 24 11
f 10 21 22
f 11 24 25
f 11 25 12
f 12 26 13
f 12 25 26
f 14 27 15
f 14 28 27
f 15 27 42
f 15 42 44
f 15 44 63
f 15 63 83
f 15 83 95
f 15 95 108
f 15 108 102
f 15 102 85
f 15 85 65
f 15 65 45
f 15 45 29
f 15 29 17
f 15 17 16
f 18 30 19
f 19 31 32
f 19 32 33
f 19 33 34
f 19 34 21
f 19 21 20
f 19 30 35
f 19 35 31
f 21 34 23
f 21 23 22
f 23 36 37
f 23 37 38
f 23 38 24
f 23 34 39
f 23 39 36
f 24 38 40
f 24 40 41
f 24 41 25
f 27 28 42
f 28 43 44
f 28 44 42
f 29 45 64
f 29 64 84
f 29 84 100
f 29 100 111
f 29 111 116
f 29 116 115
f 29 115 114
f 29 114 119
f 29 119 118
f 29 118 107
f 29 107 106
f 29 106 91
f 29 91 92
f 29 92 87
f 29 87 103
f 29 103 93
f 29 93 80
f 29 80 72
f 29 72 71
f 29 71 53
f 29 53 52
f 29 52 48
f 29 48 47
f 29 47 46
f 31 47 48
f 31 48 32
f 31 35 49
f 31 49 50
f 31 50 51
f 31 51 47
f 32 52 53
f 32 53 54
f 32 54 55
f 32 55 33
f 32 48 52
f 33 55 39
f 33 39 34
f 36 56 57
f 36 57 58
f 36 58 37
f 36 39 59
f 36 59 60
f 36 60 61
f 36 61 56
f 37 58 38
f 39 55 54
f 39 54 59
f 43 62 63
f 43 63 44
f 45 65 64
f 46 47 66
f 47 51 67
f 47 67 68
f 47 68 69
f 47 69 70
f 47 70 66
f 53 71 54
f 54 71 72
f 54 72 59
f 56 73 74
f 56 74 75
f 56 75 76
f 56 76 57
f 56 61 77
f 56 77 73
f 57 76 79
f 57 79 78
f 59 72 80
f 59 80 81
f 59 81 77
f 59 77 61
f 59 61 60
f 62 82 83
f 62 83 63
f 64 65 85
f 64 85 84
f 73 86 87
f 73 87 79
f 73 79 74
f 73 77 88
f 73 88 86
f 74 79 75
f 75 79 76
f 77 81 80
f 77 80 88
f 78 79 90
f 78 90 105
f 78 105 89
f 79 91 90
f 79 87 92
f 79 92 91
f 80 93 88
f 82 94 83
f 83 94 96
f 83 96 97
f 83 97 98
f 83 98 99
f 83 99 95
f 84 85 101
f 84 101 100
f 85 102 101
f 86 88 87
f 87 88 103
f 88 93 103
f 89 105 106
f 89 106 107
f 89 107 104
f 90 91 106
f 90 106 105
f 95 99 109
f 95 109 110
f 95 110 101
f 95 101 108
f 100 101 111
f 101 112 113
f 101 113 120
f 101 120 125
f 101 125 127
f 101 127 126
f 101 126 122
f 101 122 119
f 101 119 114
f 101 114 115
f 101 115 116
f 101 116 111
f 101 102 108
f 101 110 112
f 104 107 118
f 104 118 119
f 104 119 117
f 117 119 121
f 119 122 123
f 119 123 121
f 120 124 125
f 122 126 123
f 123 126 127
f 123 127 124
f 124 127 125
