v -0.0128667 -0.357554 0.462015
v -0.0128667 -0.357554 0.492454
v -0.0128667 -0.357479 0.445237
v 0.028142 -0.37171 0.445237
v 0.028142 -0.37171 0.492454
v -0.0128667 -0.194515 0.492454
v -0.0128667 -0.357367 0.428444
v 0.0293705 -0.37115 0.428444
v 0.0420525 -0.373578 0.428444
v 0.0420525 -0.374138 0.445237
v 0.0420525 -0.374138 0.492454
v 0.204028 0.00707086 0.492454
v -0.0128667 -0.113126 0.444199
v -0.0128667 -0.35606 0.41165
v 0.033092 -0.369805 0.410401
v 0.0454849 -0.371038 0.399318
v 0.0084506 -0.360393 0.394873
v 0.0588534 -0.374325 0.41165
v 0.0588534 -0.374512 0.428444
v 0.0588534 -0.374474 0.492454
v 0.338797 0.00707086 0.492454
v 0.11482 0.00707086 0.438195
v -0.0128667 -0.104535 0.435762
v -0.0128667 -0.353782 0.395944
v 0.0252515 -0.364912 0.394873
v 0.0252515 -0.35931 0.378079
v 0.0420525 -0.36185 0.378079
v 0.0588534 -0.370291 0.392926
v -0.00332812 -0.35423 0.382525
v 0.0756543 -0.369656 0.395327
v 0.0800623 -0.371075 0.409378
v 0.0740284 -0.37298 0.492454
v 0.338797 0.00707086 0.41165
v 0.354008 -0.0466779 0.492454
v 0.105246 0.00707086 0.428914
v -0.0128667 -0.0985964 0.424696
v 0.0924191 0.00707086 0.411991
v -0.0128667 -0.348515 0.375369
v 0.0104378 -0.353558 0.371686
v 0.0252515 -0.354155 0.367841
v 0.0420525 -0.355126 0.366964
v 0.0588534 -0.362746 0.378079
v 0.0756543 -0.361625 0.378079
v 0.0903596 -0.353782 0.372027
v 0.0909739 -0.364688 0.396106
v 0.092925 -0.365435 0.41165
v 0.0893119 -0.368386 0.492454
v 0.354008 -0.0466779 0.41165
v 0.338074 0.00707086 0.394159
v 0.355706 -0.0588171 0.492454
v -0.0128667 -0.0948613 0.41363
v 0.0883002 0.00707086 0.394873
v -0.0124693 -0.238702 0.326692
v -0.0117105 -0.325469 0.344897
v -0.0117105 -0.339513 0.355379
v -0.0128667 -0.0952348 0.326692
v 0.0084506 -0.338281 0.351177
v 0.0420525 -0.346722 0.358559
v 0.0588534 -0.355238 0.367143
v 0.0756543 -0.354454 0.368019
v 0.0920217 -0.345415 0.364044
v 0.109256 -0.339663 0.366413
v 0.105824 -0.350831 0.380659
v 0.106113 -0.357031 0.41165
v 0.109184 -0.352698 0.394873
v 0.118217 -0.353184 0.488446
v 0.107883 -0.358936 0.492454
v 0.355706 -0.0588171 0.41165
v 0.35361 -0.0479105 0.40099
v 0.335689 0.00639854 0.381973
v 0.325067 0.00707086 0.365163
v 0.356248 -0.0756253 0.492454
v -0.0128667 -0.0925081 0.397128
v 0.0883724 0.00707086 0.376684
v -0.0128667 -0.0922093 0.380318
v 0.00906482 -0.244827 0.326692
v -0.0105905 -0.310827 0.339105
v 0.0084506 -0.327636 0.345287
v 0.101524 0.00707086 0.326692
v 0.0252515 -0.338356 0.351177
v 0.0588534 -0.345938 0.358754
v 0.0420525 -0.338356 0.351177
v 0.0588534 -0.337534 0.351793
v 0.0750401 -0.343024 0.358673
v 0.0733419 -0.334135 0.351923
v 0.0924553 -0.328756 0.352231
v 0.113773 -0.320539 0.35202
v 0.119445 -0.337608 0.373601
v 0.137438 -0.305187 0.350885
v 0.123347 -0.341194 0.394873
v 0.126744 -0.346237 0.492454
v 0.356248 -0.0756253 0.41165
v 0.352671 -0.0588171 0.395067
v 0.342735 -0.042009 0.378079
v 0.33652 -0.00842999 0.3767
v 0.309205 0.00707086 0.356385
v 0.337062 -0.0262466 0.371394
v 0.326115 -0.00842999 0.364514
v 0.307435 -0.00630096 0.354341
v 0.356248 -0.0924334 0.492454
v 0.0420525 -0.24479 0.326692
v 0.0420525 -0.306233 0.33745
v 0.0084506 -0.306233 0.33745
v 0.0420525 -0.327636 0.345287
v 0.227621 0.00707086 0.326692
v 0.0588534 -0.327636 0.346228
v 0.0924553 -0.310827 0.342837
v 0.109256 -0.310827 0.345709
v 0.124756 -0.310753 0.349473
v 0.129128 -0.331109 0.378079
v 0.142027 -0.309968 0.362421
v 0.13686 -0.321435 0.373146
v 0.126057 -0.294019 0.342204
v 0.142966 -0.294094 0.348175
v 0.154348 -0.288603 0.350852
v 0.165548 -0.283113 0.356272
v 0.148639 -0.299734 0.356612
v 0.136318 -0.337945 0.492454
v 0.20121 -0.268471 0.38895
v 0.149325 -0.317439 0.394873
v 0.352852 -0.0756253 0.394499
v 0.356248 -0.0924334 0.428444
v 0.355814 -0.0924334 0.41165
v 0.352635 -0.0924334 0.395148
v 0.343819 -0.0588171 0.378079
v 0.293994 -0.00842999 0.348792
v 0.337171 -0.0588171 0.368717
v 0.332257 -0.042009 0.36625
v 0.308519 -0.0252382 0.354
v 0.293994 -0.0252382 0.347266
v 0.354875 -0.107673 0.492454
v 0.0584559 -0.243109 0.326692
v 0.0756543 -0.294019 0.336087
v 0.0588534 -0.30571 0.337791
v 0.0756543 -0.310827 0.340646
v 0.277193 -0.0252382 0.34089
v 0.232463 -0.0116422 0.326692
v 0.0924553 -0.295439 0.337547
v 0.155612 -0.306457 0.378079
v 0.152505 -0.303619 0.367824
v 0.164031 -0.298539 0.378079
v 0.104234 -0.288977 0.337304
v 0.122589 -0.273737 0.336801
v 0.142858 -0.277211 0.341847
v 0.15984 -0.277398 0.348143
v 0.171185 -0.271907 0.350852
v 0.232716 -0.215955 0.355541
v 0.199114 -0.249571 0.35585
v 0.182313 -0.266342 0.356028
v 0.288611 -0.170984 0.366526
v 0.271665 -0.18753 0.366494
v 0.299811 -0.165493 0.373731
v 0.169523 -0.286997 0.367467
v 0.282866 -0.182152 0.374087
v 0.166885 -0.301303 0.394873
v 0.316034 -0.165119 0.41165
v 0.324886 -0.156753 0.428444
v 0.329475 -0.152308 0.492454
v 0.218227 -0.251812 0.38723
v 0.305737 -0.17117 0.394873
v 0.34371 -0.0924334 0.378079
v 0.343999 -0.0756253 0.378079
v 0.353899 -0.113686 0.428444
v 0.352996 -0.111856 0.410352
v 0.351623 -0.106253 0.398166
v 0.327596 -0.0588171 0.363541
v 0.337207 -0.0756253 0.368717
v 0.308519 -0.0924334 0.354
v 0.293994 -0.0756253 0.346747
v 0.293994 -0.0588171 0.346763
v 0.293994 -0.042009 0.346828
v 0.277193 -0.042009 0.340062
v 0.350792 -0.122501 0.492454
v 0.0719328 -0.23986 0.326692
v 0.109834 -0.27934 0.335989
v 0.268088 -0.0756253 0.336265
v 0.264222 -0.0924334 0.335211
v 0.229898 -0.0619173 0.326692
v 0.265848 -0.198773 0.374461
v 0.229103 -0.235863 0.37743
v 0.198391 -0.265744 0.378079
v 0.181193 -0.282179 0.378079
v 0.235245 -0.235265 0.38637
v 0.134945 -0.20206 0.326692
v 0.130826 -0.265184 0.336655
v 0.243808 -0.193394 0.348143
v 0.176604 -0.260627 0.348143
v 0.226285 -0.175951 0.337839
v 0.243591 -0.176474 0.341863
v 0.204714 -0.238366 0.350852
v 0.249517 -0.199109 0.355412
v 0.266318 -0.18204 0.355298
v 0.305448 -0.15425 0.367175
v 0.303316 -0.168929 0.384926
v 0.320334 -0.145473 0.376132
v 0.31 -0.158882 0.379247
v 0.314119 -0.163177 0.394873
v 0.324597 -0.156753 0.41165
v 0.333269 -0.148535 0.428444
v 0.340423 -0.140094 0.492454
v 0.335689 -0.125041 0.379734
v 0.332835 -0.107822 0.368652
v 0.348841 -0.126498 0.428444
v 0.350792 -0.121269 0.41595
v 0.341687 -0.127394 0.39364
v 0.327596 -0.0756253 0.363541
v 0.332293 -0.0924334 0.366315
v 0.293994 -0.0924334 0.346747
v 0.307616 -0.111595 0.354454
v 0.293994 -0.109242 0.347429
v 0.277193 -0.0924334 0.339397
v 0.277193 -0.0756253 0.33951
v 0.277193 -0.0588171 0.339738
v 0.106221 -0.223724 0.326692
v 0.266751 -0.109242 0.336444
v 0.227188 -0.0756253 0.326692
v 0.151963 -0.185476 0.326692
v 0.168764 -0.168742 0.326692
v 0.164428 -0.231605 0.336655
v 0.255117 -0.187904 0.350852
v 0.260609 -0.176474 0.348386
v 0.214759 -0.181255 0.336655
v 0.23156 -0.16441 0.336655
v 0.240123 -0.156192 0.336801
v 0.248361 -0.14622 0.336655
v 0.260392 -0.159629 0.342642
v 0.271521 -0.170872 0.351242
v 0.320984 -0.137031 0.3681
v 0.321309 -0.15354 0.38981
v 0.335653 -0.133894 0.387214
v 0.333016 -0.147788 0.41165
v 0.340423 -0.140094 0.428444
v 0.323838 -0.12605 0.36625
v 0.30935 -0.124892 0.35744
v 0.339772 -0.139384 0.41165
v 0.334894 -0.140057 0.396025
v 0.277193 -0.109242 0.34003
v 0.297499 -0.12732 0.351842
v 0.277193 -0.12605 0.342139
v 0.220034 -0.102556 0.326692
v 0.22437 -0.08952 0.326692
v 0.258875 -0.141513 0.338634
v 0.258224 -0.128291 0.336574
v 0.185493 -0.151972 0.326692
v 0.201752 -0.134603 0.326692
v 0.277193 -0.142858 0.345546
v 0.277157 -0.15862 0.349749
v 0.297318 -0.142858 0.355931
v 0.287635 -0.147602 0.351826
f 1 2 6
f 1 6 13
f 1 13 23
f 1 23 36
f 1 36 51
f 1 51 73
f 1 73 75
f 1 75 56
f 1 56 38
f 1 38 24
f 1 24 14
f 1 14 7
f 1 7 3
f 1 3 4
f 1 4 5
f 1 5 2
f 2 5 11
f 2 11 20
f 2 20 32
f 2 32 47
f 2 47 67
f 2 67 91
f 2 91 118
f 2 118 158
f 2 158 200
f 2 200 173
f 2 173 131
f 2 131 100
f 2 100 72
f 2 72 50
f 2 50 34
f 2 34 21
f 2 21 12
f 2 12 6
f 3 7 4
f 4 7 8
f 4 8 9
f 4 9 10
f 4 10 11
f 4 11 5
f 6 12 13
f 7 14 8
f 8 15 16
f 8 16 9
f 8 14 17
f 8 17 15
f 9 18 10
f 9 16 18
f 10 18 19
f 10 19 11
f 11 19 20
f 12 21 33
f 12 33 49
f 12 49 71
f 12 71 96
f 12 96 105
f 12 105 79
f 12 79 74
f 12 74 52
f 12 52 37
f 12 37 35
f 12 35 22
f 12 22 13
f 13 22 23
f 14 24 17
f 15 17 25
f 15 25 16
f 16 25 26
f 16 26 27
f 16 27 28
f 16 28 18
f 17 24 29
f 17 29 25
f 18 28 30
f 18 30 31
f 18 31 32
f 18 32 19
f 19 32 20
f 21 34 48
f 21 48 33
f 22 35 23
f 23 35 37
f 23 37 36
f 24 38 29
f 25 29 26
f 26 29 39
f 26 39 40
f 26 40 27
f 27 40 41
f 27 41 42
f 27 42 28
f 28 42 43
f 28 43 30
f 29 38 39
f 30 43 44
f 30 44 45
f 30 45 31
f 31 45 46
f 31 46 47
f 31 47 32
f 33 48 49
f 34 50 68
f 34 68 48
f 36 37 51
f 37 52 51
f 38 53 54
f 38 54 55
f 38 55 39
f 38 56 53
f 39 55 40
f 40 55 57
f 40 57 41
f 41 57 58
f 41 58 59
f 41 59 42
f 42 59 43
f 43 59 60
f 43 60 44
f 44 60 61
f 44 61 62
f 44 62 63
f 44 63 45
f 45 64 46
f 45 63 65
f 45 65 64
f 46 64 66
f 46 66 67
f 46 67 47
f 48 68 69
f 48 69 49
f 49 70 71
f 49 69 70
f 50 72 92
f 50 92 68
f 51 52 73
f 52 74 75
f 52 75 73
f 53 76 77
f 53 77 54
f 53 56 79
f 53 79 105
f 53 105 137
f 53 137 178
f 53 178 216
f 53 216 241
f 53 241 240
f 53 240 245
f 53 245 244
f 53 244 218
f 53 218 217
f 53 217 184
f 53 184 214
f 53 214 174
f 53 174 132
f 53 132 101
f 53 101 76
f 54 77 78
f 54 78 57
f 54 57 55
f 56 75 74
f 56 74 79
f 57 78 80
f 57 80 58
f 58 81 59
f 58 80 82
f 58 82 81
f 59 81 60
f 60 81 83
f 60 83 84
f 60 84 61
f 61 84 85
f 61 85 86
f 61 86 87
f 61 87 62
f 62 88 63
f 62 87 89
f 62 89 88
f 63 88 65
f 64 65 90
f 64 90 66
f 65 88 90
f 66 90 91
f 66 91 67
f 68 92 69
f 69 92 93
f 69 93 94
f 69 94 95
f 69 95 70
f 70 95 71
f 71 95 97
f 71 97 98
f 71 98 99
f 71 99 96
f 72 100 122
f 72 122 92
f 76 101 102
f 76 102 103
f 76 103 77
f 77 103 102
f 77 102 104
f 77 104 78
f 78 104 82
f 78 82 80
f 81 82 83
f 82 104 106
f 82 106 83
f 83 85 84
f 83 106 85
f 85 106 107
f 85 107 86
f 86 107 108
f 86 108 87
f 87 108 109
f 87 109 89
f 88 110 90
f 88 89 111
f 88 111 112
f 88 112 110
f 89 109 113
f 89 113 114
f 89 114 115
f 89 115 116
f 89 116 117
f 89 117 111
f 90 118 91
f 90 110 119
f 90 119 120
f 90 120 118
f 92 121 93
f 92 122 123
f 92 123 124
f 92 124 121
f 93 121 125
f 93 125 94
f 94 97 95
f 94 125 97
f 96 99 126
f 96 126 105
f 97 125 127
f 97 127 128
f 97 128 98
f 98 128 129
f 98 129 99
f 99 129 130
f 99 130 126
f 100 131 122
f 101 132 102
f 102 132 133
f 102 133 134
f 102 134 104
f 104 134 135
f 104 135 106
f 105 126 136
f 105 136 137
f 106 135 107
f 107 135 138
f 107 138 113
f 107 113 108
f 108 113 109
f 110 112 139
f 110 139 119
f 111 117 140
f 111 140 112
f 112 140 141
f 112 141 139
f 113 138 142
f 113 142 143
f 113 143 144
f 113 144 114
f 114 144 145
f 114 145 115
f 115 145 146
f 115 146 147
f 115 147 148
f 115 148 149
f 115 149 116
f 116 149 150
f 116 150 151
f 116 151 152
f 116 152 117
f 117 153 140
f 117 152 154
f 117 154 153
f 118 120 155
f 118 155 156
f 118 156 157
f 118 157 158
f 119 155 120
f 119 139 159
f 119 159 160
f 119 160 156
f 119 156 155
f 121 124 161
f 121 161 162
f 121 162 125
f 122 131 163
f 122 163 123
f 123 163 164
f 123 164 165
f 123 165 124
f 124 165 161
f 125 162 127
f 126 130 136
f 127 166 128
f 127 162 167
f 127 167 166
f 128 166 129
f 129 166 206
f 129 206 168
f 129 168 208
f 129 208 169
f 129 169 170
f 129 170 171
f 129 171 130
f 130 171 172
f 130 172 136
f 131 173 163
f 132 174 133
f 133 175 138
f 133 138 134
f 133 174 175
f 134 138 135
f 136 172 137
f 137 172 176
f 137 176 177
f 137 177 178
f 138 175 142
f 139 141 159
f 140 153 154
f 140 154 179
f 140 179 180
f 140 180 181
f 140 181 182
f 140 182 141
f 141 182 183
f 141 183 159
f 142 175 143
f 143 184 185
f 143 185 144
f 143 175 184
f 144 186 187
f 144 187 145
f 144 185 188
f 144 188 189
f 144 189 186
f 145 187 190
f 145 190 146
f 146 190 191
f 146 191 147
f 147 191 150
f 147 150 148
f 148 150 149
f 150 192 193
f 150 193 152
f 150 152 151
f 150 191 192
f 152 194 154
f 152 193 195
f 152 195 196
f 152 196 194
f 154 194 179
f 156 160 197
f 156 197 198
f 156 198 157
f 157 198 199
f 157 199 158
f 158 199 200
f 159 183 197
f 159 197 160
f 161 167 162
f 161 165 201
f 161 201 202
f 161 202 167
f 163 173 203
f 163 203 204
f 163 204 164
f 164 204 205
f 164 205 165
f 165 205 201
f 166 167 206
f 167 202 207
f 167 207 206
f 168 206 207
f 168 207 209
f 168 209 210
f 168 210 208
f 169 208 211
f 169 211 170
f 170 211 171
f 171 211 212
f 171 212 213
f 171 213 172
f 172 213 176
f 173 200 203
f 174 214 175
f 175 214 184
f 176 213 212
f 176 212 211
f 176 211 177
f 177 211 215
f 177 215 178
f 178 215 216
f 179 183 180
f 179 194 183
f 180 183 181
f 181 183 182
f 183 194 197
f 184 217 185
f 185 217 218
f 185 218 219
f 185 219 188
f 186 220 190
f 186 190 187
f 186 189 221
f 186 221 220
f 188 219 222
f 188 222 223
f 188 223 224
f 188 224 189
f 189 224 225
f 189 225 226
f 189 226 221
f 190 220 191
f 191 220 192
f 192 227 193
f 192 220 227
f 193 227 228
f 193 228 195
f 194 196 229
f 194 229 197
f 195 229 196
f 195 228 230
f 195 230 229
f 197 229 231
f 197 231 198
f 198 231 199
f 199 231 232
f 199 232 200
f 200 232 203
f 201 205 230
f 201 230 228
f 201 228 233
f 201 233 202
f 202 233 234
f 202 234 209
f 202 209 207
f 203 232 235
f 203 235 204
f 204 235 205
f 205 235 236
f 205 236 230
f 208 210 237
f 208 237 211
f 209 234 238
f 209 238 210
f 210 238 239
f 210 239 237
f 211 237 215
f 215 240 241
f 215 241 216
f 215 237 239
f 215 239 242
f 215 242 243
f 215 243 240
f 218 222 219
f 218 244 222
f 220 221 227
f 221 226 227
f 222 244 223
f 223 244 224
f 224 244 245
f 224 245 225
f 225 245 243
f 225 243 242
f 225 242 226
f 226 242 239
f 226 239 246
f 226 246 247
f 226 247 227
f 227 247 228
f 228 248 233
f 228 247 249
f 228 249 248
f 229 230 236
f 229 236 231
f 231 236 235
f 231 235 232
f 233 248 234
f 234 248 249
f 234 249 238
f 238 249 246
f 238 246 239
f 240 243 245
f 246 249 247
