v -0.0144558 0.0989538 0.20143
v 0.154043 0.00707086 0.201417
v 0.0962066 0.00707086 0.20143
v 0.0948273 0.00707086 0.20853
v 0.0942067 0.00707086 0.225333
v 0.0942297 0.00707086 0.226854
v 0.0947354 0.00707086 0.242136
v 0.0995628 0.00707086 0.337747
v -0.0144558 0.119188 0.337747
v -0.0144558 0.228652 0.20143
v 0.210455 0.00707086 0.201417
v 0.154043 0.163011 0.201417
v 0.154043 0.00707086 0.337747
v -0.0144558 0.244951 0.337747
v -0.0083641 0.228652 0.20143
v 0.210478 0.0084214 0.201417
v 0.220386 0.0084214 0.310721
v 0.220271 0.00709415 0.310721
v 0.218846 0.00707086 0.300472
v 0.000233269 0.228628 0.20143
v 0.00841686 0.228582 0.20143
v 0.0252208 0.226323 0.20143
v 0.0336573 0.223832 0.20143
v 0.0426914 0.221084 0.20143
v 0.0583 0.215798 0.20143
v 0.0756097 0.209465 0.20143
v 0.0820462 0.206694 0.20143
v 0.0885517 0.203853 0.20143
v 0.122114 0.187088 0.20143
v 0.130527 0.182687 0.20143
v 0.136527 0.178379 0.20143
v 0.142871 0.173676 0.20143
v 0.150434 0.167226 0.20143
v 0.156917 0.159681 0.201417
v 0.218662 0.00707086 0.310721
v 0.154043 0.181523 0.337747
v -0.0107548 0.244881 0.337747
v 0.210524 0.0252332 0.201417
v 0.210524 0.0420218 0.201417
v 0.218547 0.0344308 0.300725
v 0.219581 0.0253264 0.310721
v -0.0083641 0.244835 0.337747
v 0.0087157 0.243717 0.337747
v 0.0237496 0.24048 0.337747
v 0.0757706 0.224973 0.337747
v 0.109401 0.210256 0.337747
v 0.143009 0.192234 0.337747
v 0.164802 0.163942 0.310721
v 0.168181 0.151438 0.250263
v 0.167652 0.150553 0.239066
v 0.165882 0.14727 0.201417
v 0.188686 0.127268 0.310721
v 0.188341 0.127874 0.310721
v 0.180663 0.140704 0.310721
v 0.180272 0.141356 0.310721
v 0.171031 0.155606 0.310721
v 0.218846 0.0363868 0.310721
v 0.217535 0.0449091 0.310721
v 0.215099 0.0588336 0.310721
v 0.211375 0.0756454 0.310721
v 0.205283 0.0939242 0.310721
v 0.204248 0.0964622 0.310721
v 0.199697 0.106545 0.310721
v 0.198639 0.108664 0.310721
v 0.209398 0.0506372 0.201417
v 0.211444 0.0588336 0.243644
v 0.213558 0.0420218 0.243644
v 0.214754 0.0420218 0.260433
v 0.217236 0.0408342 0.294679
v 0.17025 0.154465 0.294025
v 0.168664 0.15216 0.260433
v 0.17779 0.1428 0.294025
v 0.184502 0.133858 0.30577
v 0.18395 0.132787 0.294025
v 0.168135 0.142963 0.201417
v 0.212478 0.0588336 0.260433
v 0.213397 0.0588336 0.277236
v 0.210225 0.0756454 0.294025
v 0.209007 0.0756454 0.277236
v 0.207582 0.0756454 0.260433
v 0.203789 0.0717102 0.201417
v 0.201582 0.100723 0.302767
v 0.199628 0.0800928 0.201417
v 0.187054 0.105287 0.201417
v 0.17025 0.138864 0.201417
v 0.208248 0.0588336 0.201417
v 0.206064 0.0653534 0.201417
f 1 2 3
f 1 3 4
f 1 4 5
f 1 5 6
f 1 6 7
f 1 7 8
f 1 8 9
f 1 9 14
f 1 14 10
f 1 10 12
f 1 12 2
f 2 11 19
f 2 19 35
f 2 35 13
f 2 13 8
f 2 8 7
f 2 7 6
f 2 6 5
f 2 5 4
f 2 4 3
f 2 12 34
f 2 34 51
f 2 51 75
f 2 75 85
f 2 85 84
f 2 84 83
f 2 83 81
f 2 81 87
f 2 87 86
f 2 86 65
f 2 65 39
f 2 39 38
f 2 38 16
f 2 16 11
f 8 13 36
f 8 36 47
f 8 47 46
f 8 46 45
f 8 45 44
f 8 44 43
f 8 43 42
f 8 42 37
f 8 37 14
f 8 14 9
f 10 14 15
f 10 15 12
f 11 16 17
f 11 17 18
f 11 18 19
f 12 15 20
f 12 20 21
f 12 21 22
f 12 22 23
f 12 23 24
f 12 24 25
f 12 25 26
f 12 26 27
f 12 27 28
f 12 28 29
f 12 29 30
f 12 30 31
f 12 31 32
f 12 32 33
f 12 33 34
f 13 35 18
f 13 18 17
f 13 17 36
f 14 37 21
f 14 21 20
f 14 20 15
f 16 38 17
f 17 38 39
f 17 39 40
f 17 40 41
f 17 41 36
f 18 35 19
f 21 37 42
f 21 42 43
f 21 43 22
f 22 43 44
f 22 44 23
f 23 44 45
f 23 45 24
f 24 45 25
f 25 45 26
f 26 45 27
f 27 45 28
f 28 45 46
f 28 46 29
f 29 46 30
f 30 46 47
f 30 47 31
f 31 47 32
f 32 47 33
f 33 47 36
f 33 36 34
f 34 36 48
f 34 48 49
f 34 49 50
f 34 50 51
f 36 52 53
f 36 53 54
f 36 54 55
f 36 55 56
f 36 56 48
f 36 41 57
f 36 57 58
f 36 58 59
f 36 59 60
f 36 60 61
f 36 61 62
f 36 62 63
f 36 63 64
f 36 64 52
f 39 65 66
f 39 66 67
f 39 67 40
f 40 57 41
f 40 67 68
f 40 68 66
f 40 66 69
f 40 69 57
f 48 56 70
f 48 70 71
f 48 71 49
f 49 71 55
f 49 55 72
f 49 72 73
f 49 73 50
f 50 73 51
f 51 73 74
f 51 74 64
f 51 64 75
f 52 64 74
f 52 74 73
f 52 73 53
f 53 73 54
f 54 73 55
f 55 73 72
f 55 71 70
f 55 70 56
f 57 69 58
f 58 69 76
f 58 76 77
f 58 77 59
f 59 77 60
f 60 77 76
f 60 76 66
f 60 66 78
f 60 78 61
f 61 78 79
f 61 79 80
f 61 80 81
f 61 81 62
f 62 81 82
f 62 82 63
f 63 82 81
f 63 81 83
f 63 83 64
f 64 83 84
f 64 84 85
f 64 85 75
f 65 86 66
f 66 68 67
f 66 86 79
f 66 79 78
f 66 76 69
f 79 86 87
f 79 87 80
f 80 87 81
