v -0.0144723 0.162584 0.468408
v -0.0144723 0.360073 0.468408
v 0.116412 0.167649 0.468408
v 0.116412 0.184235 0.714994
v 0.116412 0.184467 0.718238
v 0.116412 0.184969 0.724914
v 0.116412 0.188391 0.764483
v 0.116412 0.190054 0.781787
v 0.116412 0.19102 0.7885
v 0.116412 0.192431 0.798084
v -0.0144723 0.233356 0.796891
v -0.0144723 0.359995 0.478887
v 0.00638508 0.354544 0.468408
v 0.116412 0.323034 0.468408
v 0.116412 0.193997 0.805282
v 0.116412 0.196162 0.81509
v 0.102588 0.20229 0.82102
v -0.0144723 0.235618 0.803753
v 0.00620571 0.354505 0.478887
v -0.0144723 0.359783 0.495707
v 0.0147895 0.352282 0.468408
v 0.109212 0.325122 0.468408
v 0.116412 0.322995 0.470534
v 0.116412 0.200106 0.826726
v 0.113785 0.200377 0.825644
v -0.0144723 0.239658 0.814605
v -0.0144723 0.237918 0.810354
v 0.0146102 0.352243 0.478887
v -0.0144723 0.359705 0.501748
v -0.0144723 0.359454 0.518568
v -0.0144723 0.359203 0.53535
v 0.0212338 0.350465 0.468408
v 0.0924026 0.329974 0.468408
v 0.0420143 0.344356 0.478887
v 0.0587976 0.339504 0.478887
v 0.0773745 0.33413 0.478887
v 0.0924026 0.32978 0.478887
v 0.116412 0.322821 0.478887
v -0.0144723 0.355375 0.7477
v 0.116412 0.201382 0.828814
v -0.0144723 0.248125 0.829187
v 0.0252054 0.349208 0.478887
v -0.0144723 0.358661 0.568989
v -0.0144723 0.358082 0.602591
v -0.0144723 0.357579 0.62989
v 0.035711 0.346309 0.468408
v 0.0654597 0.337745 0.468408
v 0.116412 0.322647 0.487017
v -0.0144723 0.354757 0.764483
v -0.0129862 0.354331 0.764483
v 0.116412 0.316036 0.781302
v 0.116412 0.316442 0.764483
v 0.116412 0.317331 0.727002
v 0.116412 0.318027 0.697279
v 0.116412 0.318897 0.658084
v 0.116412 0.32025 0.596512
v 0.116412 0.321932 0.519798
v 0.116412 0.204842 0.834371
v -0.0144723 0.252165 0.834557
v -0.0144723 0.353732 0.775559
v 0.0471006 0.335155 0.798084
v 0.101076 0.319303 0.806699
v 0.101934 0.319554 0.798084
v 0.116412 0.315359 0.798084
v 0.116412 0.31563 0.791595
v 0.116412 0.212884 0.843172
v 0.0971557 0.217079 0.841382
v -0.0144723 0.25464 0.837578
v -0.0144723 0.353539 0.777349
v 0.0387089 0.337397 0.798084
v 0.0363644 0.336701 0.808303
v 0.0419887 0.332815 0.814307
v 0.0587976 0.327828 0.814904
v 0.0815127 0.31853 0.821654
v 0.107687 0.314567 0.813337
v 0.116412 0.311725 0.814083
v 0.116412 0.313619 0.806065
v 0.109212 0.214914 0.842949
v 0.116412 0.226841 0.84817
v 0.109212 0.226841 0.847573
v 0.0587976 0.232892 0.842054
v 0.0118557 0.250251 0.841606
v -0.0144723 0.263029 0.84321
v -0.0144723 0.349711 0.798084
v -0.0144723 0.348493 0.804126
v -0.0144723 0.346096 0.815016
v -0.0144723 0.340065 0.830455
v 0.0252054 0.334691 0.819826
v 0.0703153 0.320115 0.825159
v 0.116412 0.305133 0.828106
v 0.0587976 0.24364 0.846641
v 0.116412 0.24364 0.849363
v 0.109212 0.24364 0.849363
v 0.0924026 0.24364 0.849139
v 0.0756065 0.24364 0.848356
v 0.0252054 0.260439 0.84761
v -0.0144723 0.277238 0.847498
v -0.0144723 0.336817 0.836161
v 0.0587976 0.321777 0.828031
v 0.109212 0.306158 0.829747
v 0.116412 0.301943 0.832917
v 0.116412 0.260439 0.849363
v 0.0252054 0.277238 0.849363
v 0.0587976 0.260439 0.849288
v 0.00840932 0.277238 0.849065
v 0.0420143 0.260439 0.848766
v -0.0144723 0.294037 0.849027
v -0.0144723 0.335058 0.838921
v 0.0462678 0.318046 0.838958
v 0.109212 0.300571 0.838138
v 0.116412 0.29943 0.836497
v 0.0924026 0.277238 0.849065
v 0.0756065 0.277238 0.849363
v 0.116412 0.277238 0.847685
v 0.109212 0.277238 0.848207
v 0.00840932 0.294037 0.849363
v -0.0144723 0.310836 0.848356
v 0.0350704 0.319535 0.840338
v -0.0144723 0.326745 0.843657
v 0.0994747 0.302059 0.839779
v 0.116412 0.291021 0.84306
v 0.0420143 0.294037 0.848692
v 0.0252054 0.294037 0.849251
v 0.109212 0.292162 0.843583
v 0.0756065 0.294037 0.846342
v 0.0587976 0.294037 0.84761
v -0.00839959 0.310836 0.84802
v 0.0587976 0.307646 0.843023
v 0.0412072 0.311802 0.843433
v 0.00840932 0.310836 0.846939
v 0.0252054 0.310836 0.845596
f 1 2 13
f 1 13 21
f 1 21 32
f 1 32 46
f 1 46 47
f 1 47 33
f 1 33 22
f 1 22 14
f 1 14 3
f 1 3 4
f 1 4 5
f 1 5 6
f 1 6 7
f 1 7 8
f 1 8 9
f 1 9 10
f 1 10 11
f 1 11 18
f 1 18 27
f 1 27 26
f 1 26 41
f 1 41 59
f 1 59 68
f 1 68 83
f 1 83 97
f 1 97 107
f 1 107 117
f 1 117 119
f 1 119 108
f 1 108 98
f 1 98 87
f 1 87 86
f 1 86 85
f 1 85 84
f 1 84 69
f 1 69 60
f 1 60 49
f 1 49 39
f 1 39 45
f 1 45 44
f 1 44 43
f 1 43 31
f 1 31 30
f 1 30 29
f 1 29 20
f 1 20 12
f 1 12 2
f 2 12 13
f 3 14 23
f 3 23 38
f 3 38 48
f 3 48 57
f 3 57 56
f 3 56 55
f 3 55 54
f 3 54 53
f 3 53 52
f 3 52 51
f 3 51 65
f 3 65 64
f 3 64 77
f 3 77 76
f 3 76 90
f 3 90 101
f 3 101 111
f 3 111 121
f 3 121 114
f 3 114 102
f 3 102 92
f 3 92 79
f 3 79 66
f 3 66 58
f 3 58 40
f 3 40 24
f 3 24 16
f 3 16 15
f 3 15 10
f 3 10 9
f 3 9 8
f 3 8 7
f 3 7 6
f 3 6 5
f 3 5 4
f 10 15 11
f 11 15 16
f 11 16 17
f 11 17 18
f 12 19 13
f 12 20 19
f 13 19 28
f 13 28 21
f 14 22 23
f 16 24 25
f 16 25 17
f 17 25 26
f 17 26 27
f 17 27 18
f 19 20 29
f 19 29 30
f 19 30 31
f 19 31 28
f 21 28 32
f 22 33 42
f 22 42 34
f 22 34 35
f 22 35 36
f 22 36 37
f 22 37 23
f 23 37 39
f 23 39 38
f 24 40 25
f 25 40 41
f 25 41 26
f 28 42 32
f 28 31 43
f 28 43 44
f 28 44 45
f 28 45 39
f 28 39 42
f 32 42 46
f 33 47 42
f 34 42 39
f 34 39 35
f 35 39 36
f 36 39 37
f 38 39 48
f 39 49 50
f 39 50 51
f 39 51 52
f 39 52 53
f 39 53 54
f 39 54 55
f 39 55 56
f 39 56 57
f 39 57 48
f 40 58 41
f 41 58 59
f 42 47 46
f 49 60 61
f 49 61 62
f 49 62 63
f 49 63 50
f 50 63 64
f 50 64 65
f 50 65 51
f 58 66 67
f 58 67 59
f 59 67 68
f 60 69 70
f 60 70 61
f 61 70 71
f 61 71 62
f 62 71 72
f 62 72 73
f 62 73 74
f 62 74 75
f 62 75 76
f 62 76 77
f 62 77 64
f 62 64 63
f 66 78 67
f 66 79 80
f 66 80 78
f 67 78 81
f 67 81 82
f 67 82 68
f 68 82 83
f 69 84 71
f 69 71 70
f 71 84 85
f 71 85 86
f 71 86 87
f 71 87 88
f 71 88 72
f 72 88 89
f 72 89 74
f 72 74 73
f 74 89 90
f 74 90 76
f 74 76 75
f 78 80 91
f 78 91 83
f 78 83 82
f 78 82 81
f 79 92 93
f 79 93 94
f 79 94 95
f 79 95 80
f 80 95 96
f 80 96 91
f 83 91 96
f 83 96 97
f 87 98 99
f 87 99 89
f 87 89 88
f 89 99 90
f 90 99 100
f 90 100 101
f 92 102 113
f 92 113 116
f 92 116 103
f 92 103 93
f 93 103 104
f 93 104 94
f 94 104 105
f 94 105 106
f 94 106 95
f 95 106 96
f 96 106 97
f 97 106 105
f 97 105 107
f 98 108 99
f 99 108 109
f 99 109 110
f 99 110 100
f 100 110 101
f 101 110 111
f 102 112 113
f 102 114 115
f 102 115 112
f 103 116 107
f 103 107 105
f 103 105 104
f 107 116 117
f 108 118 109
f 108 119 118
f 109 118 120
f 109 120 110
f 110 120 121
f 110 121 111
f 112 122 123
f 112 123 113
f 112 115 122
f 113 123 116
f 114 124 125
f 114 125 126
f 114 126 115
f 114 121 124
f 115 126 122
f 116 123 117
f 117 123 122
f 117 122 127
f 117 127 119
f 118 128 124
f 118 124 120
f 118 119 129
f 118 129 128
f 119 127 130
f 119 130 131
f 119 131 129
f 120 124 121
f 122 126 130
f 122 130 127
f 124 129 131
f 124 131 125
f 124 128 129
f 125 130 126
f 125 131 130
