v -0.243378 0.00707086 0.277237
v -0.24308 0.00707086 0.260433
v -0.242604 0.00707086 0.294041
v -0.243289 0.00840321 0.277237
v -0.242991 0.00840321 0.260433
v -0.241235 0.00840321 0.243637
v -0.241309 0.00707086 0.243637
v -0.216115 0.00707086 0.294515
v -0.242559 0.00711384 0.294515
v -0.242515 0.00840321 0.294041
v -0.242396 0.00889748 0.294515
v -0.226294 0.0756228 0.294515
v -0.22613 0.0756228 0.201426
v -0.23747 0.00840321 0.227844
v -0.228288 0.0588179 0.201426
v -0.2375 0.00707086 0.227835
v -0.108508 0.00707086 0.294515
v -0.24247 0.00840321 0.294515
v -0.221264 0.0896985 0.294515
v -0.221219 0.0896126 0.201426
v -0.223749 0.082435 0.201426
v -0.229821 0.0252081 0.201426
v -0.230208 0.00840321 0.201426
v -0.230208 0.00707086 0.201426
v -0.108061 0.00707086 0.21237
v -0.0913494 0.0404658 0.201435
v -0.0913494 0.0428081 0.205645
v -0.0913494 0.0986812 0.294515
v -0.211279 0.109705 0.294515
v -0.204478 0.123287 0.294515
v -0.204418 0.123179 0.210037
v -0.207975 0.116045 0.201426
v -0.110011 0.00707086 0.201426
v -0.108151 0.00707086 0.210037
v -0.0914238 0.0404013 0.201426
v -0.0913494 0.0728077 0.201426
v -0.0913494 0.226609 0.294515
v -0.200207 0.131453 0.294515
v -0.200118 0.131582 0.226842
v -0.204404 0.123136 0.201426
v -0.0913494 0.210943 0.201426
v -0.0913494 0.223901 0.276225
v -0.0940578 0.222655 0.275815
v -0.100754 0.218379 0.269263
v -0.0923911 0.226072 0.294515
v -0.199865 0.131947 0.294515
v -0.191725 0.142649 0.226842
v -0.200043 0.131582 0.210037
v -0.200013 0.131539 0.201426
v -0.0924209 0.210556 0.201426
v -0.0913494 0.221516 0.260433
v -0.0913494 0.221774 0.262091
v -0.09943 0.217583 0.260433
v -0.11016 0.202218 0.201426
v -0.139282 0.18724 0.201426
v -0.143583 0.185027 0.201426
v -0.147676 0.182899 0.201426
v -0.0927185 0.225835 0.294515
v -0.15342 0.178816 0.201426
v -0.159447 0.174497 0.201426
v -0.19171 0.142649 0.294515
v -0.191725 0.142649 0.277237
v -0.184939 0.150815 0.294515
v -0.184656 0.15103 0.201426
v -0.188064 0.146947 0.201426
v -0.19162 0.142628 0.201426
v -0.105859 0.20441 0.201426
v -0.101528 0.219431 0.294515
v -0.163762 0.171101 0.201426
v -0.159462 0.174626 0.226842
v -0.184418 0.151352 0.294515
v -0.184656 0.151051 0.226842
v -0.180563 0.155134 0.201426
v -0.159462 0.174626 0.277237
v -0.159462 0.174561 0.294515
v -0.16784 0.167856 0.201426
v -0.167617 0.168114 0.294515
v -0.176293 0.159497 0.294515
v -0.176248 0.159454 0.201426
v -0.168167 0.16762 0.294515
f 1 2 7
f 1 7 16
f 1 16 24
f 1 24 33
f 1 33 34
f 1 34 25
f 1 25 17
f 1 17 8
f 1 8 3
f 1 3 10
f 1 10 4
f 1 4 5
f 1 5 2
f 2 5 6
f 2 6 7
f 3 8 9
f 3 9 10
f 4 10 11
f 4 11 12
f 4 12 13
f 4 13 5
f 5 13 6
f 6 14 7
f 6 13 15
f 6 15 14
f 7 14 16
f 8 17 28
f 8 28 37
f 8 37 45
f 8 45 58
f 8 58 68
f 8 68 75
f 8 75 77
f 8 77 80
f 8 80 78
f 8 78 71
f 8 71 63
f 8 63 61
f 8 61 46
f 8 46 38
f 8 38 30
f 8 30 29
f 8 29 19
f 8 19 12
f 8 12 11
f 8 11 18
f 8 18 9
f 9 18 10
f 10 18 11
f 12 19 20
f 12 20 21
f 12 21 13
f 13 21 20
f 13 20 32
f 13 32 40
f 13 40 49
f 13 49 66
f 13 66 65
f 13 65 64
f 13 64 73
f 13 73 79
f 13 79 76
f 13 76 69
f 13 69 60
f 13 60 59
f 13 59 57
f 13 57 56
f 13 56 55
f 13 55 54
f 13 54 67
f 13 67 50
f 13 50 41
f 13 41 36
f 13 36 35
f 13 35 33
f 13 33 24
f 13 24 23
f 13 23 22
f 13 22 15
f 14 15 22
f 14 22 16
f 16 22 23
f 16 23 24
f 17 25 26
f 17 26 27
f 17 27 28
f 19 29 20
f 20 29 30
f 20 30 31
f 20 31 32
f 25 34 26
f 26 34 33
f 26 33 35
f 26 35 36
f 26 36 41
f 26 41 51
f 26 51 52
f 26 52 42
f 26 42 37
f 26 37 28
f 26 28 27
f 30 38 39
f 30 39 31
f 31 39 40
f 31 40 32
f 37 42 43
f 37 43 44
f 37 44 45
f 38 46 39
f 39 46 47
f 39 47 48
f 39 48 40
f 40 48 49
f 41 50 51
f 42 52 43
f 43 52 51
f 43 51 44
f 44 51 53
f 44 53 54
f 44 54 55
f 44 55 56
f 44 56 57
f 44 57 45
f 45 57 59
f 45 59 60
f 45 60 58
f 46 61 62
f 46 62 47
f 47 62 63
f 47 63 64
f 47 64 65
f 47 65 66
f 47 66 48
f 48 66 49
f 50 67 51
f 51 67 53
f 53 67 54
f 58 60 68
f 60 69 70
f 60 70 68
f 61 63 62
f 63 71 72
f 63 72 64
f 64 72 71
f 64 71 73
f 68 70 74
f 68 74 75
f 69 76 70
f 70 76 77
f 70 77 74
f 71 78 73
f 73 78 79
f 74 77 75
f 76 79 80
f 76 80 77
f 78 80 79
