v -0.18668 0.019337 -0.798099
v -0.1867 0.019337 -0.780818
v -0.18791 -0.0540072 -0.798077
v -0.190674 -0.0540072 -0.814824
v -0.189706 0.019337 -0.812431
v -0.18674 0.019337 -0.764072
v -0.186801 0.019337 -0.747325
v -0.186882 0.019337 -0.7306
v -0.188132 -0.0540072 -0.781309
v -0.197271 -0.0540072 -0.827896
v -0.190271 0.019337 -0.814909
v -0.187164 0.019337 -0.714003
v -0.190291 -0.0540072 -0.764563
v -0.187305 0.019337 -0.710265
v -0.18783 0.019337 -0.697321
v -0.18906 0.019337 -0.68051
v -0.191138 0.019337 -0.6637
v -0.197997 0.019337 -0.827298
v -0.199773 -0.0540072 -0.831335
v -0.194628 -0.0540072 -0.749782
v -0.194527 0.019337 -0.646911
v -0.197735 0.019337 -0.634394
v -0.207217 0.019337 -0.835458
v -0.216255 -0.0540072 -0.842549
v -0.215306 0.019337 -0.841203
v -0.198865 0.019337 -0.631168
v -0.210525 -0.0540072 -0.714623
v -0.231647 -0.0540072 -0.846202
v -0.227088 0.019337 -0.845347
v -0.392754 0.019337 -0.631168
v -0.251337 -0.0540072 -0.631168
v -0.243529 -0.0540072 -0.646441
v -0.227088 -0.0540072 -0.680404
v -0.24365 -0.0540072 -0.847889
v -0.24365 0.019337 -0.848509
v -0.392754 -0.0540072 -0.631168
v -0.392754 0.019337 -0.798099
v -0.248452 -0.0540072 -0.848466
v -0.260455 -0.0540072 -0.849128
v -0.260455 0.019337 -0.849278
v -0.392754 -0.0540072 -0.781309
v -0.392714 0.019337 -0.803973
v -0.392754 -0.0420034 -0.798099
v -0.265257 -0.0540072 -0.849235
v -0.27726 0.019337 -0.84932
v -0.27726 -0.0540072 -0.849363
v -0.27726 -0.0251965 -0.849363
v -0.392633 -0.0540072 -0.798099
v -0.392633 0.019337 -0.814909
v -0.392633 -0.00840403 -0.814909
v -0.344438 0.019337 -0.84932
v -0.31563 -0.0540072 -0.849363
v -0.344438 -0.0251965 -0.849363
v -0.392069 -0.0251965 -0.814909
v -0.390677 -0.0420034 -0.814909
v -0.389365 -0.0540072 -0.815464
v -0.391544 0.019337 -0.820142
v -0.389486 0.00839564 -0.829883
v -0.389486 -0.00840403 -0.82969
v -0.361243 0.019337 -0.84868
v -0.327634 -0.0420034 -0.849363
v -0.327634 -0.0540072 -0.849278
v -0.332435 -0.0540072 -0.849214
v -0.344438 -0.0420034 -0.849149
v -0.361243 -0.00840403 -0.84868
v -0.388901 -0.0251965 -0.828259
v -0.387529 -0.0420034 -0.825482
v -0.38755 -0.0540072 -0.820527
v -0.389486 0.019337 -0.829883
v -0.384887 0.00839564 -0.838277
v -0.384705 -0.00840403 -0.838085
v -0.376474 0.019337 -0.844066
v -0.344438 -0.0540072 -0.848338
v -0.361243 -0.0251965 -0.848039
v -0.376313 -0.00840403 -0.844066
v -0.376474 0.00839564 -0.844066
v -0.383515 -0.0251965 -0.836675
v -0.38642 -0.0540072 -0.823282
v -0.384887 0.019337 -0.838277
v -0.381961 0.019337 -0.840306
v -0.375123 -0.0251965 -0.843425
v -0.34924 -0.0540072 -0.847526
v -0.361243 -0.0420034 -0.846309
v -0.372742 -0.0420034 -0.841908
v -0.370785 -0.0530595 -0.840734
v -0.381134 -0.0420034 -0.833877
v -0.378935 -0.0540072 -0.832125
v -0.361747 -0.0540072 -0.844066
v -0.364995 -0.0540072 -0.842827
v -0.369313 -0.0540072 -0.841139
v -0.370563 -0.0540072 -0.840627
v -0.372258 -0.0540072 -0.838939
f 1 2 3
f 1 3 4
f 1 4 5
f 1 5 11
f 1 11 18
f 1 18 23
f 1 23 25
f 1 25 29
f 1 29 35
f 1 35 40
f 1 40 45
f 1 45 51
f 1 51 60
f 1 60 72
f 1 72 80
f 1 80 79
f 1 79 69
f 1 69 57
f 1 57 49
f 1 49 42
f 1 42 37
f 1 37 30
f 1 30 26
f 1 26 22
f 1 22 21
f 1 21 17
f 1 17 16
f 1 16 15
f 1 15 14
f 1 14 12
f 1 12 8
f 1 8 7
f 1 7 6
f 1 6 2
f 2 6 3
f 3 6 7
f 3 7 8
f 3 8 9
f 3 9 13
f 3 13 20
f 3 20 27
f 3 27 33
f 3 33 32
f 3 32 31
f 3 31 36
f 3 36 41
f 3 41 48
f 3 48 56
f 3 56 68
f 3 68 78
f 3 78 87
f 3 87 92
f 3 92 91
f 3 91 90
f 3 90 89
f 3 89 88
f 3 88 82
f 3 82 73
f 3 73 63
f 3 63 62
f 3 62 52
f 3 52 46
f 3 46 44
f 3 44 39
f 3 39 38
f 3 38 34
f 3 34 28
f 3 28 24
f 3 24 19
f 3 19 10
f 3 10 4
f 4 10 11
f 4 11 5
f 8 12 9
f 9 12 14
f 9 14 15
f 9 15 16
f 9 16 17
f 9 17 13
f 10 18 11
f 10 19 18
f 13 17 21
f 13 21 22
f 13 22 20
f 18 19 23
f 19 24 25
f 19 25 23
f 20 22 26
f 20 26 27
f 24 28 29
f 24 29 25
f 26 30 36
f 26 36 31
f 26 31 32
f 26 32 33
f 26 33 27
f 28 34 35
f 28 35 29
f 30 37 43
f 30 43 41
f 30 41 36
f 34 38 35
f 35 38 39
f 35 39 40
f 37 42 43
f 39 44 40
f 40 44 46
f 40 46 47
f 40 47 45
f 41 43 48
f 42 49 50
f 42 50 43
f 43 50 48
f 45 47 53
f 45 53 51
f 46 52 61
f 46 61 53
f 46 53 47
f 48 50 54
f 48 54 55
f 48 55 56
f 49 57 50
f 50 57 58
f 50 58 59
f 50 59 54
f 51 53 60
f 52 62 61
f 53 61 62
f 53 62 63
f 53 63 64
f 53 64 65
f 53 65 60
f 54 59 66
f 54 66 55
f 55 66 56
f 56 66 67
f 56 67 68
f 57 69 58
f 58 69 79
f 58 79 70
f 58 70 59
f 59 70 71
f 59 71 66
f 60 65 76
f 60 76 72
f 63 73 64
f 64 73 74
f 64 74 65
f 65 74 75
f 65 75 76
f 66 71 77
f 66 77 67
f 67 78 68
f 67 77 78
f 70 79 80
f 70 80 76
f 70 76 75
f 70 75 71
f 71 75 81
f 71 81 77
f 72 76 80
f 73 82 74
f 74 82 83
f 74 83 81
f 74 81 75
f 77 81 84
f 77 84 85
f 77 85 86
f 77 86 78
f 78 86 87
f 81 83 84
f 82 88 83
f 83 88 89
f 83 89 84
f 84 89 85
f 85 90 91
f 85 91 92
f 85 92 86
f 85 89 90
f 86 92 87
