v 0.470299 0.475543 0.0720547
v 0.468259 0.475543 0.0864329
v 0.428865 0.475543 0.0720547
v 0.470005 0.501484 0.0720547
v 0.46491 0.501484 0.110732
v 0.464701 0.475543 0.110732
v 0.37338 0.475543 0.22794
v 0.37337 0.475551 0.227971
v 0.440222 0.500651 0.0720547
v 0.469464 0.509229 0.0720547
v 0.469009 0.508239 0.0788775
v 0.459113 0.512417 0.123752
v 0.462329 0.501484 0.123752
v 0.462339 0.475543 0.123752
v 0.381701 0.475543 0.227971
v 0.386929 0.501315 0.227971
v 0.443316 0.50714 0.0720547
v 0.443221 0.506947 0.0720547
v 0.469284 0.509386 0.0720547
v 0.460403 0.513061 0.110732
v 0.449378 0.516659 0.123752
v 0.436351 0.516055 0.162811
v 0.44767 0.512944 0.149807
v 0.433078 0.512199 0.188866
v 0.457462 0.510589 0.134055
v 0.45825 0.501484 0.135948
v 0.458411 0.475543 0.136039
v 0.420317 0.475543 0.227971
v 0.390733 0.507615 0.227971
v 0.449796 0.513181 0.0720547
v 0.462434 0.514417 0.0720547
v 0.461921 0.514429 0.0720547
v 0.449378 0.516047 0.110732
v 0.410307 0.51649 0.214921
v 0.423324 0.516619 0.188866
v 0.410288 0.515572 0.227971
v 0.42118 0.512819 0.214921
v 0.431105 0.510259 0.198421
v 0.444985 0.511165 0.162811
v 0.418486 0.510561 0.22794
v 0.443382 0.50912 0.17058
v 0.458373 0.475543 0.136146
v 0.420136 0.50144 0.227971
v 0.447338 0.475543 0.162811
v 0.431883 0.475543 0.200115
v 0.396739 0.512976 0.227971
v 0.449378 0.515089 0.0976973
v 0.403409 0.514268 0.227971
v 0.418486 0.510533 0.227971
v 0.420146 0.501484 0.22794
v 0.43192 0.475543 0.200024
f 1 2 6
f 1 6 14
f 1 14 27
f 1 27 42
f 1 42 44
f 1 44 51
f 1 51 45
f 1 45 28
f 1 28 15
f 1 15 7
f 1 7 3
f 1 3 9
f 1 9 18
f 1 18 17
f 1 17 30
f 1 30 32
f 1 32 31
f 1 31 19
f 1 19 10
f 1 10 4
f 1 4 5
f 1 5 2
f 2 5 6
f 3 7 8
f 3 8 9
f 4 10 11
f 4 11 5
f 5 12 13
f 5 13 14
f 5 14 6
f 5 11 12
f 7 15 8
f 8 15 28
f 8 28 43
f 8 43 49
f 8 49 36
f 8 36 48
f 8 48 46
f 8 46 29
f 8 29 16
f 8 16 17
f 8 17 18
f 8 18 9
f 10 19 20
f 10 20 12
f 10 12 11
f 12 20 21
f 12 21 22
f 12 22 23
f 12 23 24
f 12 24 25
f 12 25 13
f 13 25 26
f 13 26 27
f 13 27 14
f 16 29 17
f 17 29 30
f 19 31 20
f 20 31 21
f 21 31 32
f 21 32 33
f 21 33 34
f 21 34 35
f 21 35 22
f 22 35 36
f 22 36 37
f 22 37 24
f 22 24 23
f 24 38 39
f 24 39 25
f 24 37 40
f 24 40 38
f 25 39 38
f 25 38 41
f 25 41 26
f 26 42 27
f 26 41 43
f 26 43 44
f 26 44 42
f 28 45 43
f 29 46 30
f 30 47 32
f 30 46 34
f 30 34 47
f 32 47 33
f 33 47 34
f 34 46 48
f 34 48 36
f 34 36 35
f 36 49 40
f 36 40 37
f 38 40 49
f 38 49 41
f 41 49 50
f 41 50 43
f 43 50 49
f 43 45 51
f 43 51 44
