v 0.00608356 0.474673 0.384539
v 0.00608356 0.479351 -0.107819
v -0.0333009 0.479351 -0.00682256
v -0.0453736 0.479351 0.00640678
v -0.0586312 0.479351 0.0141176
v -0.0707039 0.479351 0.0186534
v -0.0833282 0.479351 0.0200897
v -0.0846968 0.479351 0.0201653
v -0.12402 0.474673 0.384539
v 0.00608356 -0.658332 0.384539
v 0.00608356 0.479351 -0.150455
v -0.0956665 0.479351 0.0181998
v -0.202605 0.47445 0.384539
v -0.0586312 -0.658332 0.384539
v 0.00608356 -0.658444 0.384161
v 0.00608356 0.474785 -0.387752
v 0.00604271 0.479351 -0.150682
v -0.0964427 0.479351 0.017973
v -0.202605 0.474673 0.345834
v -0.202605 -0.614785 0.384539
v -0.121344 0.479351 0.00534843
v -0.121793 0.479351 0.00451687
v -0.0977297 -0.657998 0.384539
v -0.0977297 -0.65811 0.384161
v -0.0977297 -0.658444 0.371159
v -0.0325859 -0.658444 0.384161
v 0.00608356 -0.658444 -0.384199
v -0.202605 0.476232 -0.387752
v -0.0201251 0.479351 -0.174797
v 0.00187548 0.479351 -0.158091
v 0.00608356 -0.658332 -0.387752
v -0.122365 0.479351 -0.00568862
v -0.180911 -0.635501 0.384539
v -0.202605 -0.644633 0.370856
v -0.196334 -0.638842 0.378038
v -0.110681 -0.657664 0.384539
v -0.110681 -0.657775 0.384161
v -0.136746 -0.657998 0.371159
v -0.188857 -0.658221 0.345153
v -0.149779 -0.658332 0.358156
v -0.136746 -0.658444 0.358156
v -0.0325859 -0.658444 -0.384199
v -0.122365 0.479351 -0.0059154
v -0.109373 0.479351 -0.0445451
v -0.0837572 0.479351 -0.108802
v -0.0833895 0.479351 -0.109709
v -0.0574055 0.479351 -0.173134
v -0.0569765 0.479351 -0.174117
v -0.0455983 0.479351 -0.17767
v -0.0333622 0.479351 -0.178199
v -0.0325859 0.479351 -0.178199
v -0.202605 -0.610553 -0.387752
v -0.00652028 -0.658332 -0.387752
v -0.17321 -0.642183 0.384539
v -0.20189 -0.644856 0.371083
v -0.202605 -0.645524 0.370251
v -0.188857 -0.641069 0.379625
v -0.123734 -0.656773 0.384539
v -0.123734 -0.656884 0.384161
v -0.149779 -0.65733 0.371159
v -0.175824 -0.657664 0.358156
v -0.20189 -0.657775 0.345153
v -0.202605 -0.658332 0.332075
v -0.188857 -0.658444 0.332075
v -0.0977501 -0.658444 -0.371196
v -0.0586312 -0.658332 -0.384199
v -0.0325859 -0.658221 -0.387752
v -0.163078 -0.644188 -0.387752
v -0.196334 -0.638842 -0.378076
v -0.202605 -0.644633 -0.370818
v -0.169288 -0.644967 0.384539
v -0.198765 -0.652095 0.366018
v -0.179563 -0.649979 0.376375
v -0.188857 -0.647529 0.374485
v -0.202605 -0.6541 0.359139
v -0.127002 -0.656328 0.384539
v -0.162812 -0.655993 0.371159
v -0.188857 -0.65655 0.358156
v -0.202605 -0.657664 0.345153
v -0.202605 -0.657775 0.344397
v -0.202605 -0.658444 0.319073
v -0.136746 -0.658444 -0.358118
v -0.149779 -0.658332 -0.358118
v -0.0977501 -0.65811 -0.384199
v -0.0586312 -0.657887 -0.387752
v -0.188857 -0.641069 -0.379588
v -0.159196 -0.646304 -0.387752
v -0.202605 -0.645636 -0.370214
v -0.165733 -0.646749 0.384539
v -0.162812 -0.652652 0.379928
v -0.170881 -0.65165 0.37834
v -0.188857 -0.653209 0.367908
v -0.156316 -0.651093 0.384539
v -0.202605 -0.654211 0.358761
v -0.141853 -0.654211 0.384539
v -0.149779 -0.653766 0.382574
v -0.202605 -0.658444 -0.319111
v -0.188857 -0.658444 -0.332113
v -0.202605 -0.658332 -0.332113
v -0.188857 -0.658221 -0.345116
v -0.162812 -0.65811 -0.358118
v -0.11066 -0.657775 -0.384199
v -0.0977501 -0.65733 -0.387752
v -0.188857 -0.647529 -0.374447
v -0.149779 -0.650425 -0.387752
v -0.170881 -0.65165 -0.378302
v -0.179542 -0.649979 -0.376337
v -0.202605 -0.651538 -0.365224
v -0.148186 -0.653098 0.384539
v -0.202605 -0.657664 -0.345116
v -0.20189 -0.657775 -0.345116
v -0.175804 -0.657664 -0.358118
v -0.149779 -0.65733 -0.371196
v -0.123734 -0.656884 -0.384199
v -0.11064 -0.656773 -0.387752
v -0.162812 -0.652652 -0.37989
v -0.140178 -0.652986 -0.387752
v -0.198765 -0.652095 -0.36598
v -0.202605 -0.654211 -0.358723
v -0.188857 -0.65655 -0.358118
v -0.162812 -0.655993 -0.371196
v -0.123734 -0.655659 -0.387752
v -0.136746 -0.653766 -0.387752
v -0.149779 -0.653766 -0.382611
v -0.188857 -0.653209 -0.367946
f 1 2 3
f 1 3 4
f 1 4 5
f 1 5 6
f 1 6 7
f 1 7 8
f 1 8 9
f 1 9 13
f 1 13 20
f 1 20 33
f 1 33 54
f 1 54 71
f 1 71 89
f 1 89 93
f 1 93 109
f 1 109 95
f 1 95 76
f 1 76 58
f 1 58 36
f 1 36 23
f 1 23 14
f 1 14 10
f 1 10 15
f 1 15 27
f 1 27 31
f 1 31 16
f 1 16 11
f 1 11 2
f 2 11 17
f 2 17 30
f 2 30 29
f 2 29 51
f 2 51 50
f 2 50 49
f 2 49 48
f 2 48 47
f 2 47 46
f 2 46 45
f 2 45 44
f 2 44 43
f 2 43 32
f 2 32 22
f 2 22 21
f 2 21 18
f 2 18 12
f 2 12 8
f 2 8 7
f 2 7 6
f 2 6 5
f 2 5 4
f 2 4 3
f 8 12 9
f 9 12 13
f 10 14 26
f 10 26 15
f 11 16 17
f 12 18 13
f 13 19 28
f 13 28 52
f 13 52 70
f 13 70 88
f 13 88 108
f 13 108 119
f 13 119 110
f 13 110 99
f 13 99 97
f 13 97 81
f 13 81 63
f 13 63 80
f 13 80 79
f 13 79 94
f 13 94 75
f 13 75 56
f 13 56 34
f 13 34 20
f 13 18 21
f 13 21 22
f 13 22 19
f 14 23 24
f 14 24 25
f 14 25 26
f 15 26 25
f 15 25 41
f 15 41 64
f 15 64 81
f 15 81 97
f 15 97 98
f 15 98 82
f 15 82 65
f 15 65 42
f 15 42 27
f 16 28 29
f 16 29 30
f 16 30 17
f 16 31 53
f 16 53 67
f 16 67 85
f 16 85 103
f 16 103 115
f 16 115 122
f 16 122 123
f 16 123 117
f 16 117 105
f 16 105 87
f 16 87 68
f 16 68 52
f 16 52 28
f 19 22 32
f 19 32 28
f 20 34 35
f 20 35 33
f 23 36 37
f 23 37 24
f 24 37 38
f 24 38 39
f 24 39 40
f 24 40 25
f 25 40 41
f 27 42 53
f 27 53 31
f 28 32 43
f 28 43 44
f 28 44 45
f 28 45 46
f 28 46 47
f 28 47 48
f 28 48 49
f 28 49 50
f 28 50 51
f 28 51 29
f 33 35 54
f 34 55 35
f 34 56 55
f 35 55 57
f 35 57 54
f 36 58 59
f 36 59 37
f 37 59 60
f 37 60 61
f 37 61 38
f 38 61 62
f 38 62 39
f 39 63 40
f 39 62 63
f 40 63 41
f 41 63 64
f 42 65 66
f 42 66 67
f 42 67 53
f 52 68 69
f 52 69 70
f 54 57 71
f 55 56 57
f 56 72 73
f 56 73 74
f 56 74 57
f 56 75 72
f 57 74 73
f 57 73 71
f 58 76 77
f 58 77 59
f 59 77 78
f 59 78 60
f 60 78 61
f 61 78 62
f 62 78 79
f 62 79 80
f 62 80 63
f 63 81 64
f 65 82 83
f 65 83 84
f 65 84 66
f 66 84 67
f 67 84 85
f 68 86 69
f 68 87 86
f 69 86 88
f 69 88 70
f 71 73 89
f 72 90 91
f 72 91 73
f 72 75 92
f 72 92 90
f 73 91 93
f 73 93 89
f 75 94 78
f 75 78 92
f 76 95 77
f 77 95 96
f 77 96 92
f 77 92 78
f 78 94 79
f 82 98 99
f 82 99 83
f 83 99 100
f 83 100 84
f 84 100 101
f 84 101 102
f 84 102 103
f 84 103 85
f 86 87 104
f 86 104 88
f 87 105 106
f 87 106 107
f 87 107 104
f 88 104 107
f 88 107 108
f 90 93 91
f 90 92 96
f 90 96 109
f 90 109 93
f 95 109 96
f 97 99 98
f 99 110 111
f 99 111 100
f 100 111 101
f 101 111 112
f 101 112 102
f 102 112 113
f 102 113 114
f 102 114 115
f 102 115 103
f 105 116 106
f 105 117 116
f 106 116 118
f 106 118 108
f 106 108 107
f 108 118 119
f 110 119 120
f 110 120 111
f 111 120 112
f 112 120 113
f 113 120 114
f 114 120 121
f 114 121 122
f 114 122 115
f 116 117 123
f 116 123 124
f 116 124 125
f 116 125 118
f 118 125 119
f 119 125 120
f 120 125 121
f 121 125 124
f 121 124 122
f 122 124 123
