v 0.205367 -0.658444 -0.226401
v 0.205367 -0.579454 -0.476506
v 0.205896 -0.652778 -0.360151
v 0.210157 -0.65811 -0.331302
v 0.210157 -0.658444 -0.319155
v 0.307749 -0.658444 -0.226401
v 0.205367 0.47474 -0.226401
v 0.206648 -0.570566 -0.483725
v 0.229926 -0.578565 -0.467475
v 0.244822 -0.585342 -0.454742
v 0.210908 -0.586009 -0.467422
v 0.205367 -0.553569 -0.493581
v 0.256043 -0.585342 -0.448829
v 0.218705 -0.652222 -0.353784
v 0.210157 -0.656888 -0.344328
v 0.227949 -0.658221 -0.319155
v 0.280072 -0.658221 -0.280077
v 0.32078 -0.658221 -0.226401
v 0.375521 0.476518 -0.226401
v 0.365859 0.476518 -0.235325
v 0.205367 0.476518 -0.386389
v 0.24446 -0.571233 -0.467609
v 0.258326 -0.575899 -0.458152
v 0.2238 -0.561456 -0.482872
v 0.205367 -0.529572 -0.498082
v 0.208319 -0.540681 -0.495632
v 0.235355 -0.554457 -0.480954
v 0.28514 -0.585453 -0.428717
v 0.268768 -0.582231 -0.44494
v 0.232014 -0.652778 -0.342703
v 0.241063 -0.654 -0.332474
v 0.227949 -0.656888 -0.332181
v 0.24098 -0.657333 -0.319155
v 0.267041 -0.657999 -0.293103
v 0.280072 -0.656666 -0.293103
v 0.293131 -0.656666 -0.280077
v 0.293131 -0.657999 -0.267051
v 0.319165 -0.657333 -0.240999
v 0.332975 -0.656777 -0.226801
v 0.348178 -0.651778 -0.226401
v 0.420544 0.476518 -0.227334
v 0.467377 0.399084 -0.226401
v 0.210351 0.476518 -0.427545
v 0.205367 0.396862 -0.476665
v 0.255625 -0.560901 -0.46958
v 0.271413 -0.567789 -0.45666
v 0.281492 -0.574121 -0.443927
v 0.205367 -0.514463 -0.498509
v 0.217424 -0.527461 -0.493261
v 0.25401 -0.527461 -0.478104
v 0.25401 -0.540459 -0.476745
v 0.238028 -0.540459 -0.483378
v 0.265426 -0.552902 -0.468568
v 0.322506 -0.584453 -0.401333
v 0.336846 -0.585231 -0.389319
v 0.299507 -0.586009 -0.416703
v 0.314515 -0.574788 -0.418222
v 0.328855 -0.575788 -0.406208
v 0.279098 -0.653111 -0.305703
v 0.267041 -0.655888 -0.306129
v 0.290709 -0.652778 -0.296992
v 0.303377 -0.652555 -0.283806
v 0.306134 -0.655888 -0.267051
v 0.332474 -0.654 -0.241079
v 0.340438 -0.652222 -0.23679
v 0.448806 -0.585342 -0.256049
v 0.455627 -0.585898 -0.240519
v 0.458384 -0.587453 -0.2272
v 0.468324 -0.579121 -0.226801
v 0.488177 -0.540459 -0.226401
v 0.460305 0.413304 -0.226721
v 0.454959 0.415193 -0.237509
v 0.454235 0.407749 -0.249123
v 0.4441 0.413637 -0.262256
v 0.415003 0.476518 -0.238601
v 0.470524 0.387641 -0.226401
v 0.461836 0.397195 -0.240999
v 0.22742 0.476518 -0.420513
v 0.237499 0.415193 -0.454955
v 0.20882 0.409305 -0.470246
v 0.220821 0.40275 -0.468621
v 0.257463 0.393751 -0.455914
v 0.254038 0.358867 -0.466943
v 0.205367 0.382308 -0.480661
v 0.282495 -0.554457 -0.456847
v 0.299034 -0.559012 -0.442409
v 0.313373 -0.56079 -0.430395
v 0.318302 -0.565789 -0.422644
v 0.250252 -0.514463 -0.479889
v 0.205367 0.306096 -0.498509
v 0.27041 -0.529127 -0.470725
v 0.27055 -0.514463 -0.470938
v 0.274309 -0.540348 -0.466756
v 0.354666 -0.584787 -0.375947
v 0.339825 -0.567678 -0.404636
v 0.360513 -0.569122 -0.387535
v 0.37023 -0.568789 -0.380076
v 0.375966 -0.584787 -0.354717
v 0.313067 -0.651556 -0.274163
v 0.42873 -0.585453 -0.285165
v 0.444935 -0.582231 -0.268756
v 0.458161 -0.575899 -0.25834
v 0.468547 -0.572455 -0.24012
v 0.481828 -0.559123 -0.228133
v 0.482524 -0.549014 -0.235911
v 0.476761 -0.540459 -0.254025
v 0.489597 -0.527461 -0.226401
v 0.455906 0.393751 -0.257461
v 0.447775 0.398084 -0.26817
v 0.441455 0.406638 -0.271739
v 0.43054 0.408305 -0.284659
v 0.417092 0.41086 -0.300029
v 0.403643 0.416637 -0.312495
v 0.406622 0.476518 -0.251148
v 0.479489 0.354867 -0.226401
v 0.484195 0.330204 -0.231356
v 0.474283 0.332093 -0.254025
v 0.468603 0.344091 -0.259779
v 0.23814 0.476518 -0.415291
v 0.251059 0.407083 -0.453837
v 0.272304 0.399195 -0.444327
v 0.272944 0.363311 -0.455408
v 0.266652 0.332093 -0.468568
v 0.259802 0.34398 -0.468594
v 0.25401 0.332093 -0.474268
v 0.236274 0.328315 -0.482659
v 0.206231 0.330426 -0.494513
v 0.205367 0.319094 -0.497337
v 0.287367 -0.544014 -0.456447
v 0.303489 -0.552235 -0.441557
v 0.349431 -0.554346 -0.405489
v 0.367557 -0.556901 -0.390465
v 0.250252 0.306096 -0.479889
v 0.249555 0.319094 -0.479063
v 0.280601 -0.514463 -0.464279
v 0.284666 -0.527461 -0.460896
v 0.27055 0.306096 -0.470938
v 0.367641 -0.582565 -0.367663
v 0.383651 -0.555568 -0.37664
v 0.387132 -0.56279 -0.367503
v 0.378862 -0.574455 -0.366171
v 0.389331 -0.585231 -0.336869
v 0.401332 -0.584453 -0.322511
v 0.406232 -0.575788 -0.328878
v 0.418233 -0.574788 -0.31452
v 0.443933 -0.574121 -0.281515
v 0.456658 -0.567789 -0.271419
v 0.469577 -0.560901 -0.255623
v 0.468575 -0.552902 -0.265426
v 0.466765 -0.540348 -0.274296
v 0.470719 -0.529127 -0.270407
v 0.478125 -0.527461 -0.254025
v 0.489819 -0.514463 -0.226401
v 0.456129 0.358867 -0.27387
v 0.468575 0.332093 -0.266678
v 0.403197 0.401972 -0.324935
v 0.433352 0.383308 -0.293476
v 0.391197 0.404528 -0.339267
v 0.377748 0.410416 -0.351733
v 0.341718 0.476518 -0.33559
v 0.37307 0.476518 -0.294994
v 0.381312 0.476518 -0.284232
v 0.488678 0.319094 -0.226401
v 0.477206 0.319094 -0.254025
v 0.250753 0.476518 -0.406874
v 0.266234 0.411971 -0.442196
v 0.284666 0.408305 -0.430555
v 0.339268 0.404528 -0.391184
v 0.324956 0.401972 -0.403198
v 0.293465 0.383308 -0.433325
v 0.283274 0.345091 -0.453331
v 0.276759 0.345091 -0.458312
v 0.275478 0.317872 -0.466863
v 0.336874 -0.542237 -0.418861
v 0.372569 -0.540459 -0.391797
v 0.280601 0.306096 -0.464279
v 0.340605 -0.514463 -0.418248
v 0.34041 -0.527461 -0.418115
v 0.402557 -0.554902 -0.353012
v 0.386018 -0.540459 -0.37933
v 0.400803 -0.540459 -0.360897
v 0.404618 -0.567678 -0.339826
v 0.38922 -0.571122 -0.356235
v 0.430373 -0.56079 -0.313401
v 0.446244 -0.554013 -0.296539
v 0.456435 -0.551013 -0.284659
v 0.448583 -0.540459 -0.298617
v 0.460918 -0.527461 -0.284659
v 0.470941 -0.514463 -0.270567
v 0.479907 -0.514463 -0.250242
v 0.489819 0.306096 -0.226401
v 0.4583 0.345091 -0.276774
v 0.454458 0.330315 -0.287988
v 0.466876 0.317872 -0.275468
v 0.38251 0.384641 -0.359165
v 0.372709 0.397195 -0.365931
v 0.368671 0.411527 -0.362282
v 0.327908 0.476518 -0.347711
v 0.479907 0.306096 -0.250242
v 0.470941 0.306096 -0.270567
v 0.287757 0.476518 -0.378638
v 0.312482 0.416637 -0.403651
v 0.301373 0.412082 -0.415238
v 0.361153 0.388863 -0.379543
v 0.347426 0.397195 -0.387455
v 0.352995 0.411638 -0.375867
v 0.347092 0.3582 -0.400214
v 0.318803 0.385197 -0.413294
v 0.332474 0.330982 -0.420113
v 0.29224 0.370976 -0.4382
v 0.300983 0.332093 -0.443901
v 0.283831 0.329093 -0.457992
v 0.294718 0.319094 -0.452105
v 0.373627 -0.527461 -0.392596
v 0.340605 0.306096 -0.418248
v 0.377024 -0.514463 -0.390225
v 0.418317 -0.542792 -0.337482
v 0.386853 -0.527461 -0.380236
v 0.41311 -0.527461 -0.346938
v 0.417593 -0.537793 -0.339746
v 0.44616 -0.527461 -0.303918
v 0.434772 -0.514463 -0.319075
v 0.434772 0.306096 -0.319075
v 0.457131 0.319094 -0.288201
v 0.414725 0.322427 -0.342516
v 0.390361 0.332093 -0.370699
v 0.388691 0.3582 -0.362069
v 0.405202 0.3582 -0.340572
v 0.378639 0.380531 -0.365851
v 0.378055 0.352534 -0.378025
v 0.370453 0.345202 -0.386363
v 0.362017 0.3582 -0.388707
v 0.370704 0.332093 -0.390358
v 0.339268 0.322427 -0.417236
v 0.372931 0.319094 -0.392063
v 0.377024 0.306096 -0.390225
v 0.386992 -0.514463 -0.380369
v 0.40175 -0.514463 -0.362095
v 0.434104 0.319094 -0.318222
v 0.40175 0.306096 -0.362095
v 0.386296 0.319094 -0.379623
v 0.381368 0.332093 -0.381328
v 0.386992 0.306096 -0.380369
f 1 2 3
f 1 3 4
f 1 4 5
f 1 5 6
f 1 6 18
f 1 18 40
f 1 40 70
f 1 70 107
f 1 107 153
f 1 153 191
f 1 191 163
f 1 163 115
f 1 115 76
f 1 76 42
f 1 42 19
f 1 19 7
f 1 7 21
f 1 21 44
f 1 44 84
f 1 84 128
f 1 128 90
f 1 90 48
f 1 48 25
f 1 25 12
f 1 12 2
f 2 8 9
f 2 9 10
f 2 10 11
f 2 11 3
f 2 12 8
f 3 11 10
f 3 10 13
f 3 13 14
f 3 14 15
f 3 15 4
f 4 16 5
f 4 15 16
f 5 16 17
f 5 17 6
f 6 17 18
f 7 19 20
f 7 20 21
f 8 22 23
f 8 23 9
f 8 12 24
f 8 24 22
f 9 23 10
f 10 23 13
f 12 25 26
f 12 26 27
f 12 27 24
f 13 28 14
f 13 23 29
f 13 29 28
f 14 30 31
f 14 31 32
f 14 32 15
f 14 28 30
f 15 32 33
f 15 33 16
f 16 33 34
f 16 34 17
f 17 34 35
f 17 35 36
f 17 36 37
f 17 37 18
f 18 37 38
f 18 38 39
f 18 39 40
f 19 41 75
f 19 75 114
f 19 114 162
f 19 162 161
f 19 161 160
f 19 160 198
f 19 198 201
f 19 201 165
f 19 165 119
f 19 119 78
f 19 78 43
f 19 43 21
f 19 21 20
f 19 42 41
f 21 43 44
f 22 24 45
f 22 45 23
f 23 45 46
f 23 46 47
f 23 47 29
f 24 27 45
f 25 48 49
f 25 49 50
f 25 50 51
f 25 51 52
f 25 52 26
f 26 52 27
f 27 52 51
f 27 51 53
f 27 53 45
f 28 29 54
f 28 54 55
f 28 55 56
f 28 56 30
f 29 47 57
f 29 57 58
f 29 58 54
f 30 59 31
f 30 56 59
f 31 59 60
f 31 60 32
f 32 35 33
f 32 60 35
f 33 35 34
f 35 60 59
f 35 59 61
f 35 61 36
f 36 61 62
f 36 62 63
f 36 63 39
f 36 39 38
f 36 38 37
f 39 63 64
f 39 64 40
f 40 64 65
f 40 65 66
f 40 66 67
f 40 67 68
f 40 68 69
f 40 69 70
f 41 71 72
f 41 72 73
f 41 73 74
f 41 74 75
f 41 42 71
f 42 76 77
f 42 77 73
f 42 73 71
f 43 78 79
f 43 79 80
f 43 80 44
f 44 81 82
f 44 82 83
f 44 83 84
f 44 80 81
f 45 53 46
f 46 53 85
f 46 85 86
f 46 86 87
f 46 87 47
f 47 87 88
f 47 88 57
f 48 89 50
f 48 50 49
f 48 90 133
f 48 133 89
f 50 91 51
f 50 89 92
f 50 92 91
f 51 91 93
f 51 93 53
f 53 93 85
f 54 58 55
f 55 58 94
f 55 94 59
f 55 59 56
f 57 88 95
f 57 95 96
f 57 96 58
f 58 96 97
f 58 97 94
f 59 94 61
f 61 94 98
f 61 98 62
f 62 99 65
f 62 65 64
f 62 64 63
f 62 98 99
f 65 99 100
f 65 100 66
f 66 100 101
f 66 101 102
f 66 102 67
f 67 102 69
f 67 69 68
f 69 102 103
f 69 103 104
f 69 104 70
f 70 104 105
f 70 105 106
f 70 106 107
f 71 73 72
f 73 77 108
f 73 108 74
f 74 108 109
f 74 109 110
f 74 110 111
f 74 111 112
f 74 112 113
f 74 113 114
f 74 114 75
f 76 115 116
f 76 116 117
f 76 117 118
f 76 118 77
f 77 118 108
f 78 119 120
f 78 120 79
f 79 120 80
f 80 120 81
f 81 120 82
f 82 120 121
f 82 121 122
f 82 122 123
f 82 123 124
f 82 124 83
f 83 124 125
f 83 125 126
f 83 126 127
f 83 127 84
f 84 127 128
f 85 93 129
f 85 129 130
f 85 130 131
f 85 131 86
f 86 132 87
f 86 131 132
f 87 95 88
f 87 132 96
f 87 96 95
f 89 133 137
f 89 137 92
f 90 128 134
f 90 134 133
f 91 92 135
f 91 135 136
f 91 136 93
f 92 137 176
f 92 176 135
f 93 136 129
f 94 138 98
f 94 97 138
f 96 132 97
f 97 132 139
f 97 139 140
f 97 140 141
f 97 141 138
f 98 138 141
f 98 141 142
f 98 142 99
f 99 142 100
f 100 142 143
f 100 143 101
f 101 143 144
f 101 144 145
f 101 145 146
f 101 146 102
f 102 146 147
f 102 147 148
f 102 148 103
f 103 148 104
f 104 148 105
f 105 148 149
f 105 149 106
f 106 150 151
f 106 151 152
f 106 152 107
f 106 149 150
f 107 152 153
f 108 154 109
f 108 118 155
f 108 155 154
f 109 156 110
f 109 154 157
f 109 157 156
f 110 156 158
f 110 158 111
f 111 158 112
f 112 158 159
f 112 159 113
f 113 159 160
f 113 160 161
f 113 161 162
f 113 162 114
f 115 163 116
f 116 163 164
f 116 164 117
f 117 164 155
f 117 155 118
f 119 165 166
f 119 166 120
f 120 166 121
f 121 166 167
f 121 167 168
f 121 168 169
f 121 169 170
f 121 170 122
f 122 170 171
f 122 171 172
f 122 172 123
f 123 125 124
f 123 172 173
f 123 173 134
f 123 134 125
f 125 134 126
f 126 134 128
f 126 128 127
f 129 174 130
f 129 136 174
f 130 174 131
f 131 174 175
f 131 175 132
f 132 175 139
f 133 134 137
f 134 173 137
f 135 176 215
f 135 215 177
f 135 177 136
f 136 175 174
f 136 177 178
f 136 178 175
f 137 173 176
f 139 179 140
f 139 175 180
f 139 180 181
f 139 181 179
f 140 182 183
f 140 183 141
f 140 179 184
f 140 184 182
f 141 183 145
f 141 145 144
f 141 144 142
f 142 144 143
f 145 183 182
f 145 182 184
f 145 184 146
f 146 184 147
f 147 184 185
f 147 185 186
f 147 186 149
f 147 149 148
f 149 186 150
f 150 186 187
f 150 187 188
f 150 188 151
f 151 188 189
f 151 189 152
f 152 189 190
f 152 190 153
f 153 190 199
f 153 199 191
f 154 155 192
f 154 192 193
f 154 193 157
f 155 164 194
f 155 194 192
f 156 157 195
f 156 195 158
f 157 193 195
f 158 195 196
f 158 196 197
f 158 197 159
f 159 197 160
f 160 197 198
f 163 191 164
f 164 191 199
f 164 199 200
f 164 200 194
f 165 201 202
f 165 202 166
f 166 202 203
f 166 203 167
f 167 203 168
f 168 196 204
f 168 204 205
f 168 205 169
f 168 203 202
f 168 202 206
f 168 206 196
f 169 205 207
f 169 207 208
f 169 208 170
f 170 208 209
f 170 209 210
f 170 210 171
f 171 209 211
f 171 211 212
f 171 212 172
f 171 210 209
f 172 212 173
f 173 212 213
f 173 213 176
f 175 178 214
f 175 214 180
f 176 213 215
f 177 215 236
f 177 236 216
f 177 216 214
f 177 214 178
f 179 217 186
f 179 186 185
f 179 185 184
f 179 181 217
f 180 214 218
f 180 218 181
f 181 218 219
f 181 219 220
f 181 220 217
f 186 217 187
f 187 220 188
f 187 217 220
f 188 220 221
f 188 221 222
f 188 222 223
f 188 223 200
f 188 200 189
f 189 200 199
f 189 199 190
f 192 194 193
f 193 194 224
f 193 224 225
f 193 225 226
f 193 226 227
f 193 227 228
f 193 228 195
f 194 200 223
f 194 223 224
f 195 228 227
f 195 227 226
f 195 226 229
f 195 229 196
f 196 206 197
f 196 229 230
f 196 230 204
f 197 206 198
f 198 206 202
f 198 202 201
f 204 230 231
f 204 231 232
f 204 232 207
f 204 207 205
f 207 232 231
f 207 231 233
f 207 233 209
f 207 209 208
f 209 233 234
f 209 234 212
f 209 212 211
f 212 234 213
f 213 235 215
f 213 234 235
f 214 216 218
f 215 235 236
f 216 236 243
f 216 243 237
f 216 237 218
f 218 237 238
f 218 238 219
f 219 221 220
f 219 238 221
f 221 238 222
f 222 238 240
f 222 240 223
f 223 239 224
f 223 240 239
f 224 239 225
f 225 239 241
f 225 241 226
f 226 241 242
f 226 242 230
f 226 230 229
f 230 242 233
f 230 233 231
f 233 242 235
f 233 235 234
f 235 242 241
f 235 241 236
f 236 241 243
f 237 243 240
f 237 240 238
f 239 240 241
f 240 243 241
