v 0.00608356 -0.658444 -0.384257
v 0.0325741 -0.658444 -0.384257
v 0.00608356 -0.658444 -0.384213
v 0.00608356 -0.657984 -0.397714
v 0.0846774 -0.658214 -0.384257
v 0.0325741 -0.658444 -0.384213
v 0.00608356 0.474752 -0.384213
v 0.0195434 -0.657869 -0.397283
v 0.0977081 -0.658099 -0.384257
v 0.00608356 -0.654993 -0.410303
v 0.00653223 -0.654993 -0.410303
v 0.0846774 -0.658214 -0.384213
v 0.205367 0.475097 -0.384213
v 0.205367 0.501897 -0.398214
v 0.205367 0.509603 -0.402523
v 0.205367 0.509718 -0.402646
v 0.205367 0.514089 -0.409622
v 0.175834 0.515124 -0.423329
v 0.149792 0.515009 -0.434291
v 0.137541 0.512134 -0.434291
v 0.00608356 0.474752 -0.397283
v 0.0456048 -0.657408 -0.397283
v 0.058616 -0.657063 -0.397283
v 0.1107 -0.657753 -0.384257
v 0.0977081 -0.658099 -0.384213
v 0.00608356 -0.651772 -0.41751
v 0.00653223 -0.651772 -0.41751
v 0.0716467 -0.653153 -0.406631
v 0.0977081 -0.655453 -0.397283
v 0.0716467 -0.656603 -0.397283
v 0.205367 -0.613355 -0.384213
v 0.205367 0.513284 -0.423569
v 0.188864 0.51662 -0.423329
v 0.162979 0.515354 -0.434291
v 0.00614208 0.474752 -0.434291
v 0.00608356 0.474522 -0.410303
v 0.12373 -0.656833 -0.384257
v 0.1107 -0.657753 -0.384213
v 0.00608356 -0.651542 -0.417686
v 0.00653223 -0.644756 -0.422844
v 0.0147057 -0.651427 -0.417015
v 0.0846774 -0.652693 -0.405847
v 0.0977081 -0.652117 -0.404999
v 0.106018 -0.651657 -0.404317
v 0.110505 -0.653843 -0.397979
v 0.181471 -0.636014 -0.384213
v 0.205367 -0.594952 -0.434291
v 0.205367 0.502587 -0.42932
v 0.198423 0.510178 -0.431104
v 0.188864 0.512134 -0.433085
v 0.184573 0.512364 -0.434291
v 0.00608356 0.469231 -0.434291
v 0.00608356 0.473141 -0.423329
v 0.12373 -0.653383 -0.394527
v 0.143257 -0.654188 -0.384213
v 0.12373 -0.656833 -0.384213
v 0.00608356 -0.644756 -0.422844
v 0.0456048 -0.642686 -0.419564
v 0.00608356 -0.617151 -0.434291
v 0.0233863 -0.650852 -0.416353
v 0.114699 -0.650392 -0.402783
v 0.134362 -0.652347 -0.392449
v 0.0716467 -0.646711 -0.413137
v 0.173493 -0.642571 -0.384213
v 0.17004 -0.645101 -0.384213
v 0.166022 -0.647056 -0.384213
v 0.156775 -0.651197 -0.384213
v 0.143062 -0.651082 -0.390649
v 0.058616 -0.641535 -0.41875
v 0.205367 0.461984 -0.434291
v 0.205367 0.501437 -0.429492
v 0.188864 0.508108 -0.434291
v 0.19378 0.501437 -0.434291
v 0.148465 -0.653268 -0.384213
f 1 2 6
f 1 6 3
f 1 3 7
f 1 7 21
f 1 21 36
f 1 36 53
f 1 53 52
f 1 52 59
f 1 59 57
f 1 57 39
f 1 39 26
f 1 26 10
f 1 10 4
f 1 4 2
f 2 5 12
f 2 12 6
f 2 4 5
f 3 6 12
f 3 12 25
f 3 25 38
f 3 38 56
f 3 56 55
f 3 55 74
f 3 74 67
f 3 67 66
f 3 66 65
f 3 65 64
f 3 64 46
f 3 46 31
f 3 31 13
f 3 13 7
f 4 8 9
f 4 9 5
f 4 10 11
f 4 11 8
f 5 9 25
f 5 25 12
f 7 13 14
f 7 14 15
f 7 15 16
f 7 16 17
f 7 17 18
f 7 18 19
f 7 19 20
f 7 20 21
f 8 11 22
f 8 22 9
f 9 22 23
f 9 23 24
f 9 24 38
f 9 38 25
f 10 26 27
f 10 27 11
f 11 27 28
f 11 28 29
f 11 29 30
f 11 30 23
f 11 23 22
f 13 31 47
f 13 47 70
f 13 70 71
f 13 71 48
f 13 48 32
f 13 32 17
f 13 17 16
f 13 16 15
f 13 15 14
f 17 32 33
f 17 33 18
f 18 33 19
f 19 33 34
f 19 34 51
f 19 51 72
f 19 72 73
f 19 73 70
f 19 70 47
f 19 47 59
f 19 59 52
f 19 52 35
f 19 35 20
f 20 35 21
f 21 35 36
f 23 30 24
f 24 30 29
f 24 29 37
f 24 37 56
f 24 56 38
f 26 39 27
f 27 39 40
f 27 40 41
f 27 41 42
f 27 42 28
f 28 42 29
f 29 42 43
f 29 43 44
f 29 44 45
f 29 45 37
f 31 46 47
f 32 48 49
f 32 49 50
f 32 50 33
f 33 50 51
f 33 51 34
f 35 52 53
f 35 53 36
f 37 45 54
f 37 54 55
f 37 55 56
f 39 57 40
f 40 58 41
f 40 57 59
f 40 59 47
f 40 47 58
f 41 60 44
f 41 44 43
f 41 43 42
f 41 58 60
f 44 61 62
f 44 62 54
f 44 54 45
f 44 60 63
f 44 63 47
f 44 47 61
f 46 64 47
f 47 64 65
f 47 65 66
f 47 66 67
f 47 67 68
f 47 68 61
f 47 63 69
f 47 69 58
f 48 71 49
f 49 72 51
f 49 51 50
f 49 71 73
f 49 73 72
f 54 62 74
f 54 74 55
f 58 69 60
f 60 69 63
f 61 68 62
f 62 68 67
f 62 67 74
f 70 73 71
