v 0.487034 0.597675 0.205858
v 0.487034 0.59778 0.0624591
v 0.474381 0.597463 0.205858
v 0.489574 0.597357 0.205858
v 0.499677 0.596405 0.0822369
v 0.423788 0.596405 0.0624591
v 0.423788 0.596405 0.205858
v 0.498276 0.596088 0.0624591
v 0.497517 0.596193 0.205858
v 0.498223 0.596193 0.196075
v 0.506209 0.594712 0.0822369
v 0.506167 0.594712 0.0749097
v 0.500172 0.595982 0.0702495
v 0.410977 0.59577 0.0624591
v 0.414011 0.595982 0.205858
v 0.501416 0.591644 0.0624591
v 0.503196 0.588152 0.205858
v 0.50446 0.588152 0.196075
v 0.506009 0.5945 0.114114
v 0.506051 0.594606 0.107531
v 0.506905 0.588152 0.0822369
v 0.506504 0.588152 0.0730288
v 0.50485 0.588152 0.0667122
v 0.503649 0.588152 0.0624591
v 0.406742 0.595241 0.0624591
v 0.405635 0.595135 0.205858
v 0.411114 0.59577 0.205858
v 0.504408 0.578418 0.205858
v 0.50583 0.575561 0.196075
v 0.50603 0.582333 0.179132
v 0.506093 0.583179 0.170767
v 0.506273 0.585507 0.145472
v 0.506357 0.586671 0.132839
v 0.506357 0.589104 0.119069
v 0.506747 0.588152 0.094884
v 0.50741 0.575561 0.0822369
v 0.506747 0.575561 0.0716532
v 0.50563 0.575561 0.0653226
v 0.504966 0.575561 0.0624591
v 0.404224 0.594924 0.0624591
v 0.404192 0.594924 0.205858
v 0.504713 0.575561 0.205858
v 0.50583 0.524986 0.196075
v 0.506051 0.575561 0.180157
v 0.50741 0.524986 0.0822369
v 0.506747 0.524986 0.0716532
v 0.50563 0.524986 0.0653226
v 0.504966 0.524986 0.0624591
v 0.40316 0.59249 0.0624591
v 0.401706 0.588046 0.205858
v 0.504713 0.524986 0.205858
v 0.50603 0.518426 0.179132
v 0.506051 0.524986 0.180157
v 0.498571 -0.483131 0.196075
v 0.498919 -0.483131 0.170767
v 0.499319 -0.483131 0.14157
v 0.50013 -0.483131 0.0822369
v 0.498982 -0.483131 0.0695898
v 0.497391 -0.483131 0.0624591
v 0.401927 0.588258 0.0624591
v 0.400715 0.581169 0.0624591
v 0.399788 0.575561 0.205858
v 0.497338 -0.483131 0.205858
v 0.41478 -0.483131 0.0624591
v 0.40003 0.575561 0.0624591
v 0.399788 0.524986 0.205858
v 0.414591 -0.483131 0.205858
v 0.400041 0.524986 0.0624591
v 0.40003 0.530488 0.0624591
f 1 2 3
f 1 3 7
f 1 7 15
f 1 15 27
f 1 27 26
f 1 26 41
f 1 41 50
f 1 50 62
f 1 62 66
f 1 66 67
f 1 67 63
f 1 63 51
f 1 51 42
f 1 42 28
f 1 28 17
f 1 17 9
f 1 9 4
f 1 4 5
f 1 5 2
f 2 6 7
f 2 7 3
f 2 5 8
f 2 8 16
f 2 16 24
f 2 24 39
f 2 39 48
f 2 48 59
f 2 59 64
f 2 64 68
f 2 68 69
f 2 69 65
f 2 65 61
f 2 61 60
f 2 60 49
f 2 49 40
f 2 40 25
f 2 25 14
f 2 14 6
f 4 9 10
f 4 10 5
f 5 10 11
f 5 11 12
f 5 12 13
f 5 13 8
f 6 14 15
f 6 15 7
f 8 13 12
f 8 12 16
f 9 17 18
f 9 18 19
f 9 19 10
f 10 19 20
f 10 20 11
f 11 20 21
f 11 21 12
f 12 21 22
f 12 22 23
f 12 23 24
f 12 24 16
f 14 25 26
f 14 26 27
f 14 27 15
f 17 28 18
f 18 28 29
f 18 29 30
f 18 30 19
f 19 30 31
f 19 31 32
f 19 32 33
f 19 33 34
f 19 34 35
f 19 35 21
f 19 21 20
f 21 35 32
f 21 32 31
f 21 31 36
f 21 36 22
f 22 36 37
f 22 37 38
f 22 38 39
f 22 39 23
f 23 39 24
f 25 40 26
f 26 40 41
f 28 42 29
f 29 42 51
f 29 51 43
f 29 43 53
f 29 53 44
f 29 44 30
f 30 44 36
f 30 36 31
f 32 35 33
f 33 35 34
f 36 45 46
f 36 46 37
f 36 44 53
f 36 53 45
f 37 46 47
f 37 47 38
f 38 47 48
f 38 48 39
f 40 49 41
f 41 49 50
f 43 52 53
f 43 51 54
f 43 54 52
f 45 53 52
f 45 52 54
f 45 54 55
f 45 55 56
f 45 56 57
f 45 57 46
f 46 57 58
f 46 58 47
f 47 58 59
f 47 59 48
f 49 60 50
f 50 60 61
f 50 61 62
f 51 63 54
f 54 63 67
f 54 67 64
f 54 64 59
f 54 59 58
f 54 58 57
f 54 57 56
f 54 56 55
f 61 65 62
f 62 65 69
f 62 69 66
f 64 67 66
f 64 66 68
f 66 69 68
