v -0.284723 -0.505547 0.54803
v -0.284723 -0.487067 0.543562
v -0.297281 -0.487067 0.5361
v -0.291335 -0.505547 0.544095
v -0.284723 -0.505547 0.411186
v -0.284723 -0.487067 0.440498
v -0.304451 -0.487067 0.531796
v -0.308294 -0.505547 0.533846
v -0.285346 -0.505547 0.399174
v -0.398757 -0.505547 0.129216
v -0.419107 -0.487067 0.129216
v -0.314391 -0.505547 0.529951
v -0.312437 -0.505547 0.531304
v -0.310763 -0.487067 0.527122
v -0.50328 -0.505547 0.129216
v -0.499438 -0.487067 0.129216
v -0.318405 -0.487067 0.520809
v -0.321131 -0.505547 0.523474
v -0.503345 -0.505547 0.132865
v -0.503516 -0.505547 0.145492
v -0.50386 -0.505547 0.170786
v -0.500167 -0.487067 0.183454
v -0.330877 -0.487067 0.508018
v -0.327529 -0.505547 0.517201
v -0.325468 -0.505547 0.519292
v -0.50401 -0.505547 0.183454
v -0.503495 -0.505547 0.188414
v -0.498794 -0.487067 0.196081
v -0.33779 -0.505547 0.506665
v -0.355844 -0.487067 0.482355
v -0.364967 -0.505547 0.478747
v -0.502615 -0.505547 0.196163
v -0.495724 -0.487067 0.208748
v -0.393261 -0.487067 0.44386
v -0.389912 -0.505547 0.453043
v -0.499545 -0.505547 0.208748
v -0.491624 -0.505547 0.240479
v -0.486128 -0.487067 0.24671
v -0.399551 -0.487067 0.436849
v -0.402299 -0.505547 0.439719
v -0.398907 -0.505547 0.443491
v -0.478829 -0.505547 0.291068
v -0.473312 -0.487067 0.297299
v -0.405111 -0.487067 0.430536
v -0.407193 -0.505547 0.433365
v -0.477198 -0.505547 0.29734
v -0.470092 -0.487067 0.309967
v -0.408975 -0.487067 0.423772
v -0.416574 -0.505547 0.418032
v -0.413204 -0.505547 0.423731
v -0.410714 -0.505547 0.42783
v -0.475416 -0.505547 0.304064
v -0.473849 -0.505547 0.309967
v -0.468267 -0.487067 0.316731
v -0.417175 -0.505547 0.416966
v -0.437269 -0.487067 0.373183
v -0.47226 -0.505547 0.314723
v -0.470006 -0.505547 0.320954
v -0.467258 -0.505547 0.327185
v -0.465026 -0.487067 0.323045
v -0.454077 -0.505547 0.350963
v -0.458714 -0.487067 0.334811
v -0.465884 -0.505547 0.329686
f 1 2 3
f 1 3 4
f 1 4 8
f 1 8 13
f 1 13 12
f 1 12 18
f 1 18 25
f 1 25 24
f 1 24 29
f 1 29 31
f 1 31 35
f 1 35 41
f 1 41 40
f 1 40 45
f 1 45 51
f 1 51 50
f 1 50 49
f 1 49 55
f 1 55 61
f 1 61 63
f 1 63 59
f 1 59 58
f 1 58 57
f 1 57 53
f 1 53 52
f 1 52 46
f 1 46 42
f 1 42 37
f 1 37 36
f 1 36 32
f 1 32 27
f 1 27 26
f 1 26 21
f 1 21 20
f 1 20 19
f 1 19 15
f 1 15 10
f 1 10 9
f 1 9 5
f 1 5 6
f 1 6 2
f 2 6 11
f 2 11 16
f 2 16 22
f 2 22 28
f 2 28 33
f 2 33 38
f 2 38 43
f 2 43 47
f 2 47 54
f 2 54 60
f 2 60 62
f 2 62 56
f 2 56 48
f 2 48 44
f 2 44 39
f 2 39 34
f 2 34 30
f 2 30 23
f 2 23 17
f 2 17 14
f 2 14 7
f 2 7 3
f 3 7 4
f 4 7 8
f 5 9 6
f 6 9 10
f 6 10 11
f 7 12 13
f 7 13 8
f 7 14 12
f 10 15 16
f 10 16 11
f 12 14 17
f 12 17 18
f 15 19 16
f 16 19 20
f 16 20 21
f 16 21 22
f 17 23 24
f 17 24 25
f 17 25 18
f 21 26 22
f 22 26 27
f 22 27 28
f 23 29 24
f 23 30 31
f 23 31 29
f 27 32 28
f 28 32 33
f 30 34 31
f 31 34 35
f 32 36 33
f 33 36 37
f 33 37 38
f 34 39 40
f 34 40 41
f 34 41 35
f 37 42 38
f 38 42 43
f 39 44 40
f 40 44 45
f 42 46 47
f 42 47 43
f 44 48 49
f 44 49 50
f 44 50 51
f 44 51 45
f 46 52 47
f 47 52 53
f 47 53 54
f 48 55 49
f 48 56 55
f 53 57 54
f 54 57 58
f 54 58 59
f 54 59 60
f 55 56 61
f 56 62 61
f 59 63 62
f 59 62 60
f 61 62 63
