v -0.284702 -0.505547 0.41124
v -0.284702 -0.487099 0.440512
v -0.272724 -0.505547 0.411897
v -0.284702 -0.505547 0.548013
v -0.284702 -0.487099 0.54359
v 0.0129917 -0.487099 0.551231
v 0.0129917 -0.505547 0.526119
v -0.284556 -0.505547 0.5481
v -0.281204 -0.487099 0.545692
v 0.0129917 -0.487099 0.631517
v 0.0129917 -0.505547 0.634889
v -0.249206 -0.505547 0.569316
v -0.271966 -0.487099 0.551209
v 0.00623055 -0.487099 0.63143
v 0.00194656 -0.505547 0.634758
v -0.221258 -0.505547 0.585846
v -0.208726 -0.487099 0.588889
v -0.217732 -0.487099 0.583525
v -0.0569509 -0.487099 0.630576
v -0.0569509 -0.505547 0.633969
v -0.210271 -0.505547 0.592283
v -0.20555 -0.505547 0.594932
v -0.204297 -0.505547 0.595611
v -0.199925 -0.487099 0.593597
v -0.0695989 -0.487099 0.629963
v -0.0695989 -0.505547 0.633532
v -0.196224 -0.505547 0.598895
v -0.193601 -0.487099 0.595917
v -0.0822469 -0.487099 0.627664
v -0.0772343 -0.505547 0.632831
v -0.0770303 -0.505211 0.632787
v -0.189288 -0.505547 0.601172
v -0.183226 -0.505547 0.603055
v -0.183489 -0.487099 0.599048
v -0.077788 -0.505547 0.6327
v -0.0948948 -0.487099 0.624117
v -0.0946325 -0.505547 0.628124
v -0.0839371 -0.505547 0.631101
f 1 2 3
f 1 3 7
f 1 7 11
f 1 11 15
f 1 15 20
f 1 20 26
f 1 26 30
f 1 30 35
f 1 35 38
f 1 38 37
f 1 37 33
f 1 33 32
f 1 32 27
f 1 27 23
f 1 23 22
f 1 22 21
f 1 21 16
f 1 16 12
f 1 12 8
f 1 8 4
f 1 4 5
f 1 5 2
f 2 5 9
f 2 9 13
f 2 13 18
f 2 18 17
f 2 17 24
f 2 24 28
f 2 28 34
f 2 34 36
f 2 36 29
f 2 29 25
f 2 25 19
f 2 19 14
f 2 14 10
f 2 10 6
f 2 6 3
f 3 6 7
f 4 8 9
f 4 9 5
f 6 10 11
f 6 11 7
f 8 12 9
f 9 12 13
f 10 14 15
f 10 15 11
f 12 16 17
f 12 17 18
f 12 18 13
f 14 19 20
f 14 20 15
f 16 21 17
f 17 22 23
f 17 23 24
f 17 21 22
f 19 25 26
f 19 26 20
f 23 27 24
f 24 27 28
f 25 29 30
f 25 30 31
f 25 31 26
f 26 31 30
f 27 32 28
f 28 32 33
f 28 33 34
f 29 35 30
f 29 36 37
f 29 37 38
f 29 38 35
f 33 37 36
f 33 36 34
