v 0.487021 0.597722 0.0624591
v 0.487021 0.597722 0.0442725
v 0.436422 0.597822 -0.0948501
v 0.335241 0.597722 -0.221356
v 0.481498 0.597622 0.0624591
v 0.498269 0.596118 0.0624591
v 0.474379 0.597722 -0.00634827
v 0.495667 0.596118 0.0442725
v 0.487021 0.597221 0.031625
v 0.423781 0.597722 -0.120176
v 0.398498 0.597722 -0.158118
v 0.347899 0.597722 -0.208708
v 0.461721 0.597722 -0.0442908
v 0.461721 0.597421 -0.0569383
v 0.461721 0.597221 0.0624591
v 0.335241 0.597321 -0.234003
v 0.333461 0.597321 -0.234003
v 0.333461 0.597622 -0.221356
v 0.333461 0.597622 -0.219602
v 0.333461 0.59702 -0.181629
v 0.335241 0.596319 -0.132823
v 0.411139 0.596219 0.0442725
v 0.423781 0.596419 0.05692
v 0.44354 0.59682 0.0624591
v 0.501408 0.591708 0.0624591
v 0.494575 0.595617 0.031625
v 0.474379 0.597221 -0.0189958
v 0.482975 0.596118 -0.00634827
v 0.411139 0.597522 -0.145471
v 0.398498 0.59702 -0.170766
v 0.38584 0.597121 -0.183413
v 0.461654 0.596219 -0.0690627
v 0.433803 0.596118 -0.120176
v 0.46988 0.595818 -0.0569383
v 0.334368 0.595717 -0.245728
v 0.333461 0.595617 -0.247236
v 0.333461 0.595818 -0.24582
v 0.333461 0.59662 -0.156334
v 0.333461 0.596219 -0.1327
v 0.411139 0.596018 0.05692
v 0.423781 0.596319 0.0624591
v 0.430899 0.596519 0.0624591
v 0.503641 0.5882 0.0624591
v 0.493753 0.594916 0.0236242
v 0.481044 0.594916 -0.0267812
v 0.481867 0.595517 -0.0189958
v 0.411223 0.596319 -0.157934
v 0.406523 0.595417 -0.170766
v 0.397306 0.595316 -0.182152
v 0.384715 0.595417 -0.194892
v 0.468705 0.595116 -0.0644776
v 0.448828 0.596018 -0.0938653
v 0.431453 0.595517 -0.129131
v 0.418425 0.595316 -0.153595
v 0.367205 0.594815 -0.215386
v 0.342124 0.594916 -0.240896
v 0.333461 0.591207 -0.250467
v 0.333461 0.595417 -0.119591
v 0.404223 0.594916 0.0624591
v 0.406741 0.595216 0.0624591
v 0.410988 0.595717 0.0624591
v 0.49654 0.5882 0.031625
v 0.50495 0.57557 0.0624591
v 0.494223 0.5882 0.0217778
v 0.481498 0.5882 -0.0285353
v 0.472801 0.5882 -0.0569383
v 0.404844 0.594515 -0.177105
v 0.379763 0.594715 -0.202646
v 0.455611 0.594715 -0.0889725
v 0.46936 0.5882 -0.0656469
v 0.419265 0.5882 -0.155103
v 0.333461 0.5882 -0.251113
v 0.333461 0.595316 -0.118391
v 0.333461 0.594715 -0.111221
v 0.333461 0.590204 -0.106328
v 0.403165 0.59251 0.0624591
v 0.503658 0.57557 0.05692
v 0.50495 0.524951 0.0624591
v 0.490848 0.57557 0.00629923
v 0.478039 0.57557 -0.0442908
v 0.473893 0.57557 -0.0569383
v 0.415319 0.5882 -0.161442
v 0.416125 0.57557 -0.162026
v 0.40518 0.5882 -0.177474
v 0.392706 0.5882 -0.190306
v 0.367742 0.5882 -0.21594
v 0.336601 0.5882 -0.247913
v 0.456013 0.5882 -0.0896495
v 0.469696 0.57557 -0.0662008
v 0.442852 0.583188 -0.114021
v 0.333461 0.57557 -0.251913
v 0.333461 0.589002 -0.105282
v 0.401923 0.5883 0.0624591
v 0.503658 0.524951 0.05692
v 0.497362 -0.426185 0.0624591
v 0.496355 -0.426185 0.0579663
v 0.49612 -0.426185 0.05692
v 0.490848 0.524951 0.00629923
v 0.478039 0.524951 -0.0442908
v 0.473893 0.524951 -0.0569383
v 0.416125 0.524951 -0.162026
v 0.410468 0.57557 -0.170766
v 0.456299 0.57557 -0.0901726
v 0.405499 0.57557 -0.177813
v 0.399371 0.57557 -0.184152
v 0.355622 0.57557 -0.229141
v 0.469696 0.524951 -0.0662008
v 0.466153 0.57557 -0.07254
v 0.333461 0.524951 -0.251913
v 0.333461 0.579078 -0.101989
v 0.400714 0.581183 0.0624591
v 0.494357 -0.426185 0.0499039
v 0.483932 -0.426185 0.00869949
v 0.414866 -0.426185 0.0624591
v 0.479617 -0.426185 -0.00834849
v 0.474329 -0.426185 -0.029243
v 0.470518 -0.426185 -0.0442908
v 0.468873 -0.426185 -0.0502299
v 0.468487 -0.426185 -0.0516147
v 0.410468 0.524951 -0.170766
v 0.456299 0.524951 -0.0901726
v 0.416159 -0.426185 -0.14704
v 0.409964 -0.426185 -0.158118
v 0.406455 -0.426185 -0.164181
v 0.405616 -0.426185 -0.165596
v 0.405499 0.524951 -0.177813
v 0.399371 0.524951 -0.184152
v 0.355622 0.524951 -0.229141
v 0.466153 0.524951 -0.07254
v 0.466086 -0.426185 -0.0567537
v 0.465515 -0.426185 -0.0579538
v 0.459455 -0.426185 -0.0695858
v 0.456383 -0.426185 -0.0750941
v 0.455661 -0.426185 -0.0763866
v 0.351693 -0.426185 -0.22271
v 0.344206 -0.426185 -0.230403
v 0.333461 -0.426185 -0.24142
v 0.333461 0.57557 -0.100974
v 0.400042 0.57557 0.0624591
v 0.333461 -0.426185 -0.125838
v 0.400042 0.524951 0.0624591
v 0.401419 -0.426185 -0.170735
v 0.400429 -0.426185 -0.171935
v 0.394116 -0.426185 -0.179074
v 0.38913 -0.426185 -0.184213
v 0.363008 -0.426185 -0.211078
v 0.333461 0.567752 -0.100943
v 0.400026 0.56284 0.0624591
v 0.333461 0.524951 -0.101035
v 0.400026 0.530464 0.0624591
v 0.333461 0.537581 -0.100943
f 1 2 3
f 1 3 4
f 1 4 5
f 1 5 15
f 1 15 24
f 1 24 42
f 1 42 41
f 1 41 61
f 1 61 60
f 1 60 59
f 1 59 76
f 1 76 93
f 1 93 111
f 1 111 139
f 1 139 148
f 1 148 150
f 1 150 141
f 1 141 114
f 1 114 95
f 1 95 78
f 1 78 63
f 1 63 43
f 1 43 25
f 1 25 6
f 1 6 2
f 2 7 3
f 2 6 8
f 2 8 9
f 2 9 27
f 2 27 7
f 3 10 11
f 3 11 12
f 3 12 4
f 3 7 13
f 3 13 14
f 3 14 10
f 4 15 5
f 4 12 16
f 4 16 17
f 4 17 18
f 4 18 19
f 4 19 20
f 4 20 38
f 4 38 21
f 4 21 40
f 4 40 22
f 4 22 23
f 4 23 24
f 4 24 15
f 6 25 26
f 6 26 8
f 7 27 14
f 7 14 13
f 8 27 9
f 8 26 28
f 8 28 27
f 10 14 29
f 10 29 11
f 11 16 12
f 11 29 30
f 11 30 31
f 11 31 16
f 14 32 33
f 14 33 29
f 14 27 34
f 14 34 32
f 16 31 35
f 16 35 36
f 16 36 37
f 16 37 17
f 17 37 36
f 17 36 57
f 17 57 72
f 17 72 91
f 17 91 109
f 17 109 137
f 17 137 140
f 17 140 149
f 17 149 151
f 17 151 147
f 17 147 138
f 17 138 110
f 17 110 92
f 17 92 75
f 17 75 74
f 17 74 73
f 17 73 58
f 17 58 39
f 17 39 38
f 17 38 20
f 17 20 19
f 17 19 18
f 21 38 39
f 21 39 40
f 22 40 23
f 23 40 41
f 23 41 42
f 23 42 24
f 25 43 26
f 26 43 44
f 26 44 45
f 26 45 46
f 26 46 28
f 27 28 34
f 28 46 34
f 29 33 47
f 29 47 30
f 30 47 48
f 30 48 49
f 30 49 50
f 30 50 31
f 31 50 35
f 32 34 51
f 32 51 52
f 32 52 33
f 33 52 53
f 33 53 54
f 33 54 47
f 34 46 45
f 34 45 51
f 35 50 36
f 36 50 55
f 36 55 56
f 36 56 57
f 39 58 59
f 39 59 60
f 39 60 40
f 40 60 61
f 40 61 41
f 43 62 44
f 43 63 62
f 44 62 64
f 44 64 45
f 45 64 65
f 45 65 66
f 45 66 51
f 47 54 48
f 48 54 67
f 48 67 49
f 49 67 68
f 49 68 55
f 49 55 50
f 51 69 54
f 51 54 53
f 51 53 52
f 51 66 70
f 51 70 69
f 54 69 71
f 54 71 67
f 55 68 56
f 56 68 72
f 56 72 57
f 58 73 59
f 59 73 74
f 59 74 75
f 59 75 76
f 62 63 77
f 62 77 64
f 63 78 94
f 63 94 77
f 64 77 65
f 65 77 79
f 65 79 80
f 65 80 66
f 66 80 81
f 66 81 70
f 67 71 82
f 67 82 83
f 67 83 84
f 67 84 85
f 67 85 86
f 67 86 87
f 67 87 68
f 68 87 72
f 69 70 88
f 69 88 71
f 70 81 89
f 70 89 90
f 70 90 88
f 71 88 90
f 71 90 83
f 71 83 82
f 72 87 91
f 75 92 76
f 76 92 93
f 77 94 98
f 77 98 79
f 78 95 96
f 78 96 97
f 78 97 94
f 79 98 99
f 79 99 80
f 80 99 100
f 80 100 81
f 81 100 107
f 81 107 89
f 83 101 120
f 83 120 102
f 83 102 84
f 83 90 103
f 83 103 121
f 83 121 101
f 84 102 104
f 84 104 105
f 84 105 85
f 85 105 106
f 85 106 91
f 85 91 86
f 86 91 87
f 89 107 129
f 89 129 108
f 89 108 90
f 90 108 103
f 91 106 128
f 91 128 109
f 92 110 111
f 92 111 93
f 94 97 112
f 94 112 113
f 94 113 98
f 95 114 140
f 95 140 137
f 95 137 136
f 95 136 135
f 95 135 146
f 95 146 145
f 95 145 144
f 95 144 143
f 95 143 142
f 95 142 125
f 95 125 124
f 95 124 123
f 95 123 122
f 95 122 134
f 95 134 133
f 95 133 132
f 95 132 131
f 95 131 130
f 95 130 119
f 95 119 118
f 95 118 117
f 95 117 116
f 95 116 115
f 95 115 113
f 95 113 112
f 95 112 97
f 95 97 96
f 98 113 115
f 98 115 116
f 98 116 99
f 99 116 117
f 99 117 118
f 99 118 119
f 99 119 100
f 100 119 107
f 101 121 122
f 101 122 123
f 101 123 124
f 101 124 125
f 101 125 120
f 102 120 126
f 102 126 104
f 103 108 129
f 103 129 121
f 104 126 127
f 104 127 105
f 105 127 128
f 105 128 106
f 107 119 130
f 107 130 131
f 107 131 132
f 107 132 133
f 107 133 134
f 107 134 129
f 109 128 135
f 109 135 136
f 109 136 137
f 110 138 139
f 110 139 111
f 114 141 140
f 120 125 126
f 121 129 134
f 121 134 122
f 125 142 126
f 126 142 143
f 126 143 144
f 126 144 127
f 127 144 145
f 127 145 146
f 127 146 128
f 128 146 135
f 138 147 139
f 139 147 148
f 140 141 149
f 141 150 149
f 147 151 150
f 147 150 148
f 149 150 151
