v -0.320242 -0.505547 -0.109871
v -0.320242 -0.489456 -0.13998
v -0.320708 -0.505547 -0.107517
v -0.320242 -0.505547 -0.25867
v -0.324363 -0.505547 -0.0948738
v -0.320242 -0.489456 -0.25381
v -0.418811 -0.489456 0.129216
v -0.39876 -0.505547 0.129216
v -0.327588 -0.505547 -0.251684
v -0.323861 -0.489456 -0.250317
v -0.499838 -0.489456 0.129216
v -0.503296 -0.505547 0.129216
v -0.354878 -0.505547 -0.225106
v -0.382795 -0.489456 -0.192946
v -0.349449 -0.489456 -0.225409
v -0.499802 -0.489456 0.126217
v -0.499516 -0.489456 0.105106
v -0.503171 -0.505547 0.120142
v -0.380107 -0.505547 -0.200502
v -0.391665 -0.505547 -0.189225
v -0.38912 -0.489456 -0.18672
v -0.499372 -0.489456 0.0948547
v -0.502813 -0.505547 0.0948547
v -0.392561 -0.505547 -0.1882
v -0.394908 -0.489456 -0.180417
v -0.393851 -0.489456 -0.181594
v -0.499014 -0.489456 0.0695677
v -0.502544 -0.505547 0.0763641
v -0.397201 -0.505547 -0.182467
v -0.403491 -0.505547 -0.174
v -0.401323 -0.489456 -0.170811
v -0.498763 -0.489456 0.0671378
v -0.501863 -0.505547 0.0636826
v -0.502436 -0.505547 0.0695677
v -0.417646 -0.505547 -0.150308
v -0.418883 -0.489456 -0.141461
v -0.49767 -0.489456 0.0569242
v -0.501146 -0.505547 0.0569242
v -0.455598 -0.505547 -0.0866726
v -0.456691 -0.489456 -0.0780158
v -0.494911 -0.489456 0.0455337
v -0.499731 -0.505547 0.0510391
v -0.458662 -0.505547 -0.0814329
v -0.464682 -0.505547 -0.0697386
v -0.459988 -0.489456 -0.0714852
v -0.497903 -0.505547 0.043977
v -0.490324 -0.489456 0.0291693
v -0.493065 -0.505547 0.0265115
v -0.467818 -0.505547 -0.0622968
v -0.460955 -0.489456 -0.0695488
v -0.486776 -0.489456 0.0165258
v -0.476723 -0.505547 -0.0315044
v -0.473158 -0.489456 -0.0316562
v -0.469753 -0.489456 -0.0434265
v -0.467531 -0.489456 -0.0510961
v -0.465739 -0.489456 -0.0571331
v -0.464951 -0.489456 -0.0593732
f 1 2 3
f 1 3 5
f 1 5 8
f 1 8 12
f 1 12 18
f 1 18 23
f 1 23 28
f 1 28 34
f 1 34 33
f 1 33 38
f 1 38 42
f 1 42 46
f 1 46 48
f 1 48 52
f 1 52 49
f 1 49 44
f 1 44 43
f 1 43 39
f 1 39 35
f 1 35 30
f 1 30 29
f 1 29 24
f 1 24 20
f 1 20 19
f 1 19 13
f 1 13 9
f 1 9 4
f 1 4 6
f 1 6 2
f 2 5 3
f 2 6 10
f 2 10 15
f 2 15 14
f 2 14 21
f 2 21 26
f 2 26 25
f 2 25 31
f 2 31 36
f 2 36 40
f 2 40 45
f 2 45 50
f 2 50 57
f 2 57 56
f 2 56 55
f 2 55 54
f 2 54 53
f 2 53 51
f 2 51 47
f 2 47 41
f 2 41 37
f 2 37 32
f 2 32 27
f 2 27 22
f 2 22 17
f 2 17 16
f 2 16 11
f 2 11 7
f 2 7 8
f 2 8 5
f 4 9 6
f 6 9 10
f 7 11 12
f 7 12 8
f 9 13 14
f 9 14 15
f 9 15 10
f 11 16 12
f 12 16 17
f 12 17 18
f 13 19 14
f 14 19 20
f 14 20 21
f 17 22 18
f 18 22 27
f 18 27 23
f 20 24 25
f 20 25 26
f 20 26 21
f 23 27 28
f 24 29 25
f 25 29 30
f 25 30 31
f 27 32 33
f 27 33 34
f 27 34 28
f 30 35 36
f 30 36 31
f 32 37 38
f 32 38 33
f 35 39 36
f 36 39 40
f 37 41 42
f 37 42 38
f 39 43 40
f 40 43 44
f 40 44 45
f 41 46 42
f 41 47 48
f 41 48 46
f 44 49 50
f 44 50 45
f 47 51 48
f 48 51 52
f 49 52 53
f 49 53 54
f 49 54 55
f 49 55 56
f 49 56 57
f 49 57 50
f 51 53 52
