v -0.320242 -0.489456 -0.139957
v -0.320242 -0.489456 -0.253827
v -0.320242 -0.369241 -0.141344
v -0.419238 -0.369241 0.129216
v -0.418816 -0.489456 0.129216
v -0.336627 -0.489456 -0.237892
v -0.339545 -0.369241 -0.234443
v -0.32033 -0.369241 -0.253115
v -0.320242 -0.369241 -0.25319
v -0.49937 -0.369241 0.129216
v -0.499845 -0.489456 0.129216
v -0.376306 -0.489456 -0.199273
v -0.376007 -0.369241 -0.198973
v -0.363173 -0.369241 -0.211459
v -0.49879 -0.369241 0.0861351
v -0.499546 -0.489456 0.107507
v -0.382793 -0.489456 -0.192936
v -0.384481 -0.369241 -0.190724
v -0.498614 -0.369241 0.0734994
v -0.499194 -0.489456 0.0821981
v -0.387909 -0.489456 -0.187912
v -0.388824 -0.369241 -0.18645
v -0.498544 -0.369241 0.0695625
v -0.499019 -0.489456 0.0695625
v -0.389122 -0.489456 -0.186712
v -0.393852 -0.489456 -0.181613
v -0.39466 -0.369241 -0.180113
v -0.49763 -0.369241 0.0608638
v -0.498773 -0.489456 0.0671254
v -0.394924 -0.489456 -0.180413
v -0.400937 -0.369241 -0.170777
v -0.497208 -0.369241 0.0568894
v -0.497683 -0.489456 0.0568894
v -0.399987 -0.489456 -0.172839
v -0.401323 -0.489456 -0.170815
v -0.418886 -0.489456 -0.141456
v -0.456685 -0.489456 -0.0780158
v -0.448316 -0.369241 -0.0912514
v -0.494659 -0.369241 0.0459785
v -0.494922 -0.489456 0.0455285
v -0.45999 -0.489456 -0.0714918
v -0.460605 -0.369241 -0.069542
v -0.457739 -0.369241 -0.0750912
v -0.456438 -0.369241 -0.0776034
v -0.477254 -0.369241 -0.0155875
v -0.473158 -0.489456 -0.0316351
v -0.483882 -0.489456 0.0063093
v -0.487451 -0.489456 0.0189449
v -0.490334 -0.489456 0.0291809
v -0.460957 -0.489456 -0.069542
v -0.462152 -0.369241 -0.0656051
v -0.468253 -0.369241 -0.0473828
v -0.465545 -0.369241 -0.0569439
v -0.469765 -0.489456 -0.0434459
v -0.464947 -0.489456 -0.059381
v -0.465739 -0.489456 -0.0571314
v -0.467532 -0.489456 -0.0510948
f 1 2 9
f 1 9 3
f 1 3 4
f 1 4 5
f 1 5 11
f 1 11 16
f 1 16 20
f 1 20 24
f 1 24 29
f 1 29 33
f 1 33 40
f 1 40 49
f 1 49 48
f 1 48 47
f 1 47 46
f 1 46 54
f 1 54 57
f 1 57 56
f 1 56 55
f 1 55 50
f 1 50 41
f 1 41 37
f 1 37 36
f 1 36 35
f 1 35 34
f 1 34 30
f 1 30 26
f 1 26 25
f 1 25 21
f 1 21 17
f 1 17 12
f 1 12 6
f 1 6 2
f 2 6 7
f 2 7 8
f 2 8 9
f 3 9 8
f 3 8 7
f 3 7 14
f 3 14 13
f 3 13 18
f 3 18 22
f 3 22 27
f 3 27 31
f 3 31 38
f 3 38 44
f 3 44 43
f 3 43 42
f 3 42 51
f 3 51 53
f 3 53 52
f 3 52 45
f 3 45 39
f 3 39 32
f 3 32 28
f 3 28 23
f 3 23 19
f 3 19 15
f 3 15 10
f 3 10 4
f 4 10 11
f 4 11 5
f 6 12 13
f 6 13 14
f 6 14 7
f 10 15 11
f 11 15 16
f 12 17 18
f 12 18 13
f 15 19 24
f 15 24 20
f 15 20 16
f 17 21 18
f 18 21 22
f 19 23 24
f 21 25 22
f 22 25 26
f 22 26 27
f 23 28 29
f 23 29 24
f 26 30 27
f 27 30 31
f 28 32 29
f 29 32 33
f 30 34 31
f 31 34 35
f 31 35 36
f 31 36 37
f 31 37 38
f 32 39 33
f 33 39 40
f 37 41 42
f 37 42 43
f 37 43 44
f 37 44 38
f 39 45 46
f 39 46 47
f 39 47 48
f 39 48 49
f 39 49 40
f 41 50 42
f 42 50 51
f 45 52 46
f 46 52 53
f 46 53 54
f 50 55 51
f 51 55 53
f 53 55 56
f 53 56 57
f 53 57 54
