v 0.185634 -0.483131 0.508425
v 0.329028 -0.483131 0.396414
v 0.185634 -0.483131 0.599178
v 0.185634 0.524918 0.492001
v 0.42369 -0.483131 0.396414
v 0.308705 0.524918 0.396414
v 0.186334 -0.483131 0.59891
v 0.188216 0.524918 0.606739
v 0.185634 0.524918 0.607462
v 0.185634 0.575495 0.492001
v 0.308681 0.536875 0.396414
v 0.422459 -0.483131 0.3985
v 0.43221 0.524918 0.396414
v 0.192802 -0.483131 0.596245
v 0.196085 0.524918 0.602773
v 0.188216 0.575495 0.606739
v 0.185634 0.575495 0.607462
v 0.185634 0.588193 0.493861
v 0.310998 0.588827 0.396414
v 0.308705 0.575495 0.396414
v 0.308681 0.562904 0.396414
v 0.419442 -0.483131 0.403603
v 0.43221 0.575495 0.396414
v 0.404695 0.524918 0.442586
v 0.41809 -0.483131 0.405876
v 0.21677 -0.483131 0.582878
v 0.206608 0.524918 0.596906
v 0.196085 0.575495 0.602773
v 0.196085 0.588193 0.601616
v 0.187251 0.588193 0.605975
v 0.185634 0.588193 0.606533
v 0.185634 0.59507 0.498715
v 0.189472 0.594647 0.49322
v 0.311239 0.58978 0.396414
v 0.431558 0.586394 0.396414
v 0.418259 0.588193 0.418828
v 0.404695 0.575495 0.442586
v 0.399337 0.524918 0.449093
v 0.394027 -0.483131 0.444962
v 0.399747 -0.483131 0.43645
v 0.401147 -0.483131 0.434178
v 0.404212 -0.483131 0.429137
v 0.282348 -0.483131 0.54623
v 0.221404 0.524918 0.588642
v 0.206608 0.575495 0.596906
v 0.278438 0.582796 0.556663
v 0.206005 0.588193 0.596513
v 0.204388 0.595388 0.595604
v 0.185634 0.596128 0.600645
v 0.185634 0.595282 0.500244
v 0.32309 0.595599 0.396414
v 0.322149 0.595493 0.396414
v 0.312373 0.59507 0.401269
v 0.315004 0.594435 0.396414
v 0.31206 0.591261 0.396414
v 0.431389 0.588193 0.396414
v 0.404019 0.588193 0.441945
v 0.417777 0.594859 0.418043
v 0.398323 0.588193 0.449093
v 0.392771 0.588193 0.456035
v 0.399337 0.575495 0.449093
v 0.393133 0.524918 0.456365
v 0.389803 -0.483131 0.449341
v 0.284303 -0.483131 0.545135
v 0.296154 0.524918 0.54685
v 0.221404 0.575495 0.588642
v 0.296154 0.575495 0.54685
v 0.302478 0.575495 0.543235
v 0.295502 0.588193 0.546395
v 0.254036 0.588193 0.569822
v 0.25336 0.594647 0.56943
v 0.228886 0.59507 0.582527
v 0.293571 0.595493 0.54528
v 0.284641 0.596128 0.547573
v 0.196085 0.596022 0.597505
v 0.185634 0.596446 0.598951
v 0.185634 0.596128 0.510119
v 0.335231 0.596234 0.396414
v 0.43011 0.593166 0.396414
v 0.392337 0.594647 0.455601
v 0.427021 0.595917 0.396414
v 0.406481 0.595599 0.433372
v 0.386279 0.588193 0.462356
v 0.367259 0.585759 0.481135
v 0.393133 0.575495 0.456365
v 0.379569 0.594541 0.468141
v 0.3738 0.524918 0.475185
v 0.364267 -0.483131 0.474297
v 0.377083 -0.483131 0.461819
v 0.387896 -0.483131 0.451283
v 0.288672 -0.483131 0.542677
v 0.302478 0.524918 0.543235
v 0.309839 0.575495 0.536913
v 0.301826 0.588193 0.54247
v 0.306919 0.595599 0.534041
v 0.297578 0.596446 0.538008
v 0.284641 0.597715 0.537636
v 0.246699 0.597186 0.562922
v 0.221404 0.597398 0.575586
v 0.196085 0.59761 0.588229
v 0.185634 0.597715 0.588229
v 0.185634 0.596234 0.512329
v 0.337282 0.59634 0.396414
v 0.394726 0.595493 0.449093
v 0.384589 0.595282 0.46058
v 0.373173 0.595388 0.471219
v 0.319711 0.595599 0.521956
v 0.425259 0.59634 0.396414
v 0.410874 0.596022 0.422878
v 0.399168 0.596552 0.437132
v 0.379955 0.588193 0.468512
v 0.328955 0.582479 0.518713
v 0.372159 0.589251 0.47597
v 0.3738 0.575495 0.475185
v 0.366753 0.594224 0.480639
v 0.316163 0.524918 0.531211
v 0.328955 0.518464 0.518713
v 0.33861 -0.483131 0.499252
v 0.291327 -0.483131 0.541003
v 0.309839 0.524918 0.536913
v 0.297288 -0.483131 0.537244
v 0.299557 -0.483131 0.535694
v 0.304626 -0.483131 0.532203
v 0.316163 0.575495 0.531211
v 0.315511 0.588193 0.530571
v 0.309188 0.588193 0.536149
v 0.328159 0.590944 0.517907
v 0.310636 0.596552 0.525695
v 0.347878 0.597715 0.4744
v 0.259346 0.597821 0.550279
v 0.373173 0.597081 0.461736
v 0.38582 0.597081 0.449093
v 0.185634 0.597715 0.586019
v 0.185634 0.596763 0.537636
v 0.398468 0.597504 0.396414
v 0.347878 0.596552 0.396414
v 0.358329 0.595599 0.484605
v 0.423811 0.596552 0.396414
v 0.411115 0.597186 0.411143
v 0.398468 0.597715 0.423787
v 0.306581 -0.483131 0.530323
v 0.312953 -0.483131 0.524187
v 0.38582 0.597715 0.43645
v 0.413191 0.597715 0.396414
v 0.411115 0.597715 0.396414
v 0.185634 0.596975 0.548069
f 1 2 5
f 1 5 12
f 1 12 22
f 1 22 25
f 1 25 42
f 1 42 41
f 1 41 40
f 1 40 39
f 1 39 63
f 1 63 90
f 1 90 89
f 1 89 88
f 1 88 118
f 1 118 142
f 1 142 141
f 1 141 123
f 1 123 122
f 1 122 121
f 1 121 119
f 1 119 91
f 1 91 64
f 1 64 43
f 1 43 26
f 1 26 14
f 1 14 7
f 1 7 3
f 1 3 9
f 1 9 17
f 1 17 31
f 1 31 49
f 1 49 76
f 1 76 101
f 1 101 133
f 1 133 146
f 1 146 134
f 1 134 102
f 1 102 77
f 1 77 50
f 1 50 32
f 1 32 18
f 1 18 10
f 1 10 4
f 1 4 2
f 2 4 6
f 2 6 11
f 2 11 21
f 2 21 20
f 2 20 19
f 2 19 34
f 2 34 55
f 2 55 54
f 2 54 52
f 2 52 51
f 2 51 78
f 2 78 103
f 2 103 136
f 2 136 135
f 2 135 145
f 2 145 144
f 2 144 138
f 2 138 108
f 2 108 81
f 2 81 79
f 2 79 56
f 2 56 35
f 2 35 23
f 2 23 13
f 2 13 5
f 3 7 8
f 3 8 9
f 4 10 21
f 4 21 11
f 4 11 6
f 5 13 12
f 7 14 8
f 8 15 28
f 8 28 16
f 8 16 17
f 8 17 9
f 8 14 15
f 10 18 19
f 10 19 20
f 10 20 21
f 12 13 22
f 13 23 37
f 13 37 24
f 13 24 25
f 13 25 22
f 14 26 27
f 14 27 15
f 15 27 45
f 15 45 28
f 16 28 29
f 16 29 30
f 16 30 31
f 16 31 17
f 18 32 33
f 18 33 34
f 18 34 19
f 23 35 36
f 23 36 37
f 24 37 61
f 24 61 38
f 24 38 39
f 24 39 40
f 24 40 41
f 24 41 42
f 24 42 25
f 26 43 44
f 26 44 27
f 27 44 66
f 27 66 45
f 28 45 46
f 28 46 47
f 28 47 29
f 29 47 48
f 29 48 30
f 30 48 31
f 31 48 49
f 32 50 51
f 32 51 52
f 32 52 53
f 32 53 33
f 33 53 54
f 33 54 55
f 33 55 34
f 35 56 36
f 36 57 37
f 36 56 58
f 36 58 57
f 37 57 59
f 37 59 60
f 37 60 61
f 38 61 85
f 38 85 62
f 38 62 39
f 39 62 63
f 43 64 65
f 43 65 44
f 44 65 67
f 44 67 66
f 45 66 46
f 46 66 67
f 46 67 68
f 46 68 69
f 46 69 70
f 46 70 47
f 47 70 71
f 47 71 72
f 47 72 48
f 48 72 73
f 48 73 74
f 48 74 75
f 48 75 49
f 49 75 76
f 50 77 51
f 51 77 78
f 52 54 53
f 56 79 58
f 57 58 80
f 57 80 59
f 58 79 81
f 58 81 82
f 58 82 80
f 59 80 60
f 60 83 84
f 60 84 85
f 60 85 61
f 60 80 86
f 60 86 83
f 62 85 114
f 62 114 87
f 62 87 88
f 62 88 89
f 62 89 90
f 62 90 63
f 64 91 65
f 65 92 68
f 65 68 67
f 65 91 92
f 68 93 126
f 68 126 94
f 68 94 69
f 68 92 120
f 68 120 93
f 69 94 73
f 69 73 71
f 69 71 70
f 71 73 72
f 73 94 95
f 73 95 96
f 73 96 74
f 74 96 97
f 74 97 98
f 74 98 75
f 75 98 99
f 75 99 100
f 75 100 76
f 76 100 101
f 77 102 103
f 77 103 78
f 80 82 104
f 80 104 105
f 80 105 106
f 80 106 107
f 80 107 86
f 81 108 82
f 82 108 109
f 82 109 110
f 82 110 104
f 83 111 84
f 83 86 111
f 84 112 85
f 84 111 113
f 84 113 112
f 85 112 114
f 86 107 95
f 86 95 115
f 86 115 113
f 86 113 111
f 87 116 117
f 87 117 118
f 87 118 88
f 87 114 124
f 87 124 116
f 91 119 92
f 92 119 121
f 92 121 122
f 92 122 123
f 92 123 120
f 93 124 125
f 93 125 126
f 93 120 116
f 93 116 124
f 94 126 95
f 95 126 127
f 95 127 115
f 95 107 128
f 95 128 96
f 96 128 97
f 97 129 130
f 97 130 100
f 97 100 99
f 97 99 98
f 97 128 131
f 97 131 132
f 97 132 129
f 100 130 101
f 101 130 133
f 102 134 135
f 102 135 136
f 102 136 103
f 104 110 132
f 104 132 105
f 105 132 131
f 105 131 106
f 106 131 137
f 106 137 107
f 107 137 128
f 108 138 139
f 108 139 110
f 108 110 109
f 110 139 140
f 110 140 132
f 112 124 114
f 112 113 115
f 112 115 125
f 112 125 124
f 115 127 125
f 116 120 123
f 116 123 141
f 116 141 142
f 116 142 118
f 116 118 117
f 125 127 126
f 128 137 131
f 129 143 130
f 129 132 143
f 130 143 140
f 130 140 144
f 130 144 145
f 130 145 133
f 132 140 143
f 133 145 146
f 134 146 135
f 135 146 145
f 138 144 139
f 139 144 140
