v -0.0778449 -0.168914 0.703843
v -0.0654948 -0.168516 0.703794
v 0.0734432 -0.169014 0.703797
v -0.0777843 -0.132886 0.737064
v -0.0778449 -0.132919 0.737015
v -0.0778449 -0.157777 0.703794
v 0.000341827 -0.168516 0.703794
v 0.0767729 -0.169014 0.703797
v 0.0767729 -0.132919 0.736784
v 0.000341827 -0.121517 0.737064
v -0.0778449 -0.123108 0.737064
v -0.0778449 0.169594 0.703794
v 0.000341827 0.169163 0.703794
v 0.0767729 0.169528 0.703797
v 0.0767729 0.133499 0.736784
v 0.000341827 0.122098 0.737064
v -0.0778449 0.136648 0.737064
v -0.0730017 0.169594 0.703794
v 0.0767729 0.134461 0.736706
v 0.0759102 0.133997 0.736784
f 1 2 3
f 1 3 4
f 1 4 5
f 1 5 11
f 1 11 17
f 1 17 12
f 1 12 6
f 1 6 2
f 2 7 8
f 2 8 3
f 2 6 12
f 2 12 18
f 2 18 13
f 2 13 7
f 3 8 4
f 4 8 9
f 4 9 10
f 4 10 16
f 4 16 17
f 4 17 11
f 4 11 5
f 7 13 14
f 7 14 8
f 8 14 19
f 8 19 15
f 8 15 9
f 9 15 16
f 9 16 10
f 12 17 18
f 13 18 14
f 14 18 17
f 14 17 19
f 15 19 20
f 15 20 16
f 16 20 17
f 17 20 19
