v 0.217114 -0.360235 0.164952
v 0.338675 -0.359671 0.529692
v 0.147656 -0.360094 0.32129
v 0.129446 -0.360094 0.303935
v 0.129446 -0.360094 0.164952
v 0.147656 -0.360023 -0.824994
v 0.251842 -0.360023 -0.824994
v 0.321322 -0.359953 -0.824994
v 0.321322 -0.359953 -0.807639
v 0.353613 -0.353464 0.547046
v 0.338675 -0.359459 0.547046
v 0.286571 -0.359671 0.547046
v 0.338675 -0.359812 -0.807639
v 0.129446 -0.359671 0.547046
v 0.129446 -0.359882 -0.808363
v 0.129446 -0.359812 -0.825717
v 0.129446 -0.359741 -0.842349
v 0.147656 -0.359812 -0.842349
v 0.251842 -0.359812 -0.842349
v 0.338675 -0.359741 -0.842349
v 0.338675 -0.359812 -0.824994
v 0.359932 -0.338653 0.547046
v 0.351898 -0.351983 0.564401
v 0.338675 -0.357484 0.564401
v 0.353613 -0.353464 -0.842349
v 0.321322 -0.357766 0.564401
v 0.304059 -0.351701 0.599689
v 0.129446 -0.356144 0.564401
v 0.129446 -0.359106 -0.859704
v 0.338675 -0.359106 -0.859704
v 0.353365 -0.353253 -0.859704
v 0.359977 -0.321303 0.547046
v 0.356434 -0.338653 0.564401
v 0.359932 -0.338653 -0.842349
v 0.349236 -0.349444 0.574525
v 0.338675 -0.351489 0.578285
v 0.318095 -0.351137 0.594338
v 0.303946 -0.351631 0.599979
v 0.129446 -0.350008 0.575248
v 0.289076 -0.350784 0.599979
v 0.287992 -0.350714 0.599979
v 0.129446 -0.352971 -0.873009
v 0.338675 -0.352971 -0.873009
v 0.351199 -0.351066 -0.871563
v 0.35939 -0.338653 -0.859704
v 0.359977 0.33863 0.547046
v 0.356457 -0.321303 0.564401
v 0.359977 -0.321303 -0.842349
v 0.350161 -0.338653 0.575248
v 0.338675 -0.338653 0.583491
v 0.315681 -0.338653 0.599979
v 0.129446 -0.338653 0.583491
v 0.129446 -0.315379 0.599979
v 0.129446 -0.352265 -0.873298
v 0.338675 -0.338653 -0.877492
v 0.353117 -0.338653 -0.873009
v 0.359413 -0.321303 -0.859704
v 0.353659 0.353723 0.547046
v 0.351921 0.352241 0.564401
v 0.356457 0.33863 0.564401
v 0.359977 0.33863 -0.842349
v 0.350161 0.33863 0.575248
v 0.338675 -0.321303 0.583636
v 0.315681 0.33863 0.599979
v 0.129446 0.31599 0.599979
v 0.129446 -0.338653 -0.877059
v 0.129446 0.33863 -0.877059
v 0.338675 0.33863 -0.877348
v 0.353117 0.33863 -0.873009
v 0.359413 0.33863 -0.859704
v 0.338675 0.360211 0.547046
v 0.338675 0.358236 0.564401
v 0.353659 0.353723 -0.842349
v 0.349236 0.349561 0.574525
v 0.353388 0.353511 -0.859704
v 0.338675 0.33863 0.583491
v 0.338675 0.32128 0.583636
v 0.313085 0.344624 0.599979
v 0.287947 0.350972 0.599979
v 0.129446 0.329672 0.590289
v 0.129446 0.339335 -0.876914
v 0.129446 0.353229 -0.873009
v 0.338675 0.353229 -0.873009
v 0.351199 0.351254 -0.871418
v 0.321322 0.360282 0.547046
v 0.321322 0.35873 0.564401
v 0.338675 0.360211 -0.842349
v 0.304059 0.351959 0.599689
v 0.303946 0.351889 0.599979
v 0.318095 0.351254 0.594338
v 0.338675 0.351748 0.578285
v 0.338675 0.359647 -0.859704
v 0.303856 0.351889 0.599979
v 0.129446 0.356755 0.564401
v 0.129446 0.350267 0.575393
v 0.129446 0.349773 0.575826
v 0.129446 0.33863 0.583925
v 0.129446 0.353511 -0.872431
v 0.129446 0.360282 0.547046
v 0.321322 0.360282 -0.842349
v 0.129446 0.359647 -0.859704
v 0.129446 0.359717 -0.858836
v 0.129446 0.360282 -0.842349
f 1 2 3
f 1 3 4
f 1 4 5
f 1 5 6
f 1 6 7
f 1 7 8
f 1 8 9
f 1 9 2
f 2 10 11
f 2 11 12
f 2 12 3
f 2 9 13
f 2 13 10
f 3 12 14
f 3 14 4
f 4 14 28
f 4 28 39
f 4 39 52
f 4 52 53
f 4 53 65
f 4 65 80
f 4 80 97
f 4 97 96
f 4 96 95
f 4 95 94
f 4 94 99
f 4 99 103
f 4 103 102
f 4 102 101
f 4 101 98
f 4 98 82
f 4 82 81
f 4 81 67
f 4 67 66
f 4 66 54
f 4 54 42
f 4 42 29
f 4 29 17
f 4 17 16
f 4 16 15
f 4 15 5
f 5 15 6
f 6 15 16
f 6 16 17
f 6 17 18
f 6 18 19
f 6 19 7
f 7 19 20
f 7 20 8
f 8 21 13
f 8 13 9
f 8 20 21
f 10 22 23
f 10 23 24
f 10 24 11
f 10 13 21
f 10 21 25
f 10 25 34
f 10 34 22
f 11 24 26
f 11 26 12
f 12 26 14
f 14 26 27
f 14 27 28
f 17 29 18
f 18 29 30
f 18 30 19
f 19 30 20
f 20 25 21
f 20 30 31
f 20 31 25
f 22 32 33
f 22 33 23
f 22 34 48
f 22 48 32
f 23 33 35
f 23 35 24
f 24 35 36
f 24 36 37
f 24 37 38
f 24 38 27
f 24 27 26
f 25 31 34
f 27 38 28
f 28 38 40
f 28 40 41
f 28 41 39
f 29 42 43
f 29 43 30
f 30 43 44
f 30 44 31
f 31 45 34
f 31 44 45
f 32 46 60
f 32 60 47
f 32 47 33
f 32 48 61
f 32 61 46
f 33 47 49
f 33 49 35
f 34 45 48
f 35 49 50
f 35 50 51
f 35 51 37
f 35 37 36
f 37 51 38
f 38 51 64
f 38 64 78
f 38 78 89
f 38 89 93
f 38 93 79
f 38 79 65
f 38 65 53
f 38 53 41
f 38 41 40
f 39 41 52
f 41 53 52
f 42 54 43
f 43 54 55
f 43 55 44
f 44 55 56
f 44 56 45
f 45 57 48
f 45 56 57
f 46 58 59
f 46 59 60
f 46 61 73
f 46 73 58
f 47 60 62
f 47 62 49
f 48 57 70
f 48 70 61
f 49 62 77
f 49 77 63
f 49 63 50
f 50 63 51
f 51 63 77
f 51 77 64
f 54 66 55
f 55 66 67
f 55 67 68
f 55 68 69
f 55 69 56
f 56 69 70
f 56 70 57
f 58 71 72
f 58 72 59
f 58 73 87
f 58 87 71
f 59 72 74
f 59 74 60
f 60 74 62
f 61 70 75
f 61 75 73
f 62 76 77
f 62 74 76
f 64 77 76
f 64 76 74
f 64 74 78
f 65 79 80
f 67 81 68
f 68 81 82
f 68 82 83
f 68 83 84
f 68 84 69
f 69 84 70
f 70 84 75
f 71 85 86
f 71 86 72
f 71 87 100
f 71 100 85
f 72 86 88
f 72 88 89
f 72 89 90
f 72 90 91
f 72 91 74
f 73 75 87
f 74 91 90
f 74 90 78
f 75 92 87
f 75 84 92
f 78 90 89
f 79 93 94
f 79 94 95
f 79 95 96
f 79 96 97
f 79 97 80
f 82 98 83
f 83 98 92
f 83 92 84
f 85 99 86
f 85 100 103
f 85 103 99
f 86 99 88
f 87 92 100
f 88 99 94
f 88 94 93
f 88 93 89
f 92 101 102
f 92 102 100
f 92 98 101
f 100 102 103
