v 0.0767819 -0.168953 0.703794
v 0.135783 -0.338629 0.703794
v 0.102631 -0.349083 0.728365
v 0.0891338 -0.338629 0.736784
v 0.0767819 -0.132913 0.736784
v 0.0767819 0.169506 0.703794
v 0.145989 -0.351216 0.703794
v 0.133962 -0.351009 0.708603
v 0.0972393 -0.350872 0.736784
v 0.0767819 0.133466 0.736784
v 0.0767819 0.134498 0.736707
v 0.0891338 0.338633 0.736784
v 0.102631 0.349156 0.728365
v 0.135783 0.338633 0.703794
v 0.14781 -0.351147 0.703794
v 0.112008 -0.351078 0.736784
v 0.0902518 0.342072 0.736784
v 0.0972393 0.351082 0.736784
v 0.133962 0.35115 0.708603
v 0.13847 0.345373 0.703794
v 0.114622 -0.35094 0.736784
v 0.162723 -0.350253 0.703794
v 0.0981318 0.351357 0.736784
v 0.147053 0.351425 0.703794
v 0.145989 0.351357 0.703794
v 0.14763 -0.350321 0.715301
v 0.125234 -0.350459 0.732072
v 0.122223 -0.338629 0.736784
v 0.156574 -0.347639 0.712307
v 0.168881 -0.338629 0.703794
v 0.113126 0.351288 0.736784
v 0.1622 0.350738 0.703794
v 0.156709 -0.338629 0.712401
v 0.122223 0.338633 0.736784
v 0.165391 -0.338629 0.706262
v 0.168881 0.338633 0.703794
v 0.114622 0.35115 0.736784
v 0.162723 0.350463 0.703794
v 0.125234 0.3506 0.732072
v 0.14763 0.350463 0.715301
v 0.156709 0.338633 0.712401
v 0.156574 0.347711 0.712307
v 0.120302 0.34496 0.736784
v 0.165391 0.338633 0.706262
v 0.168195 0.34159 0.703794
f 1 2 3
f 1 3 4
f 1 4 5
f 1 5 10
f 1 10 11
f 1 11 6
f 1 6 14
f 1 14 20
f 1 20 25
f 1 25 24
f 1 24 32
f 1 32 38
f 1 38 45
f 1 45 36
f 1 36 30
f 1 30 22
f 1 22 15
f 1 15 7
f 1 7 2
f 2 7 8
f 2 8 3
f 3 8 9
f 3 9 4
f 4 9 16
f 4 16 21
f 4 21 28
f 4 28 34
f 4 34 43
f 4 43 37
f 4 37 31
f 4 31 23
f 4 23 18
f 4 18 17
f 4 17 12
f 4 12 10
f 4 10 5
f 6 11 12
f 6 12 13
f 6 13 14
f 7 15 16
f 7 16 9
f 7 9 8
f 10 12 11
f 12 17 13
f 13 17 18
f 13 18 19
f 13 19 20
f 13 20 14
f 15 21 16
f 15 22 21
f 18 23 19
f 19 23 24
f 19 24 25
f 19 25 20
f 21 22 26
f 21 26 27
f 21 27 28
f 22 29 26
f 22 30 29
f 23 31 24
f 24 31 32
f 26 29 27
f 27 29 28
f 28 29 33
f 28 33 41
f 28 41 34
f 29 30 35
f 29 35 33
f 30 36 44
f 30 44 35
f 31 37 32
f 32 37 39
f 32 39 40
f 32 40 38
f 33 35 44
f 33 44 41
f 34 41 42
f 34 42 43
f 36 45 42
f 36 42 44
f 37 43 39
f 38 40 42
f 38 42 45
f 39 43 42
f 39 42 40
f 41 44 42
