v -0.0607805 -0.360235 0.14761
v 0.0434248 -0.360023 -0.824862
v 0.0781428 -0.360235 0.14761
v -0.0260626 -0.360094 0.321243
v -0.0954985 -0.360094 0.303911
v -0.13406 -0.359953 0.164942
v -0.13406 -0.359671 -0.842194
v 0.0781428 -0.360023 -0.824862
v 0.0434248 -0.359812 -0.842194
v 0.0955017 -0.360023 -0.807375
v 0.129446 -0.360094 0.164942
v 0.129446 -0.360094 0.303911
v 0.0955017 -0.360094 0.321243
v -0.13406 -0.359671 0.547029
v -0.13406 -0.359882 0.338576
v -0.13406 -0.359106 -0.859681
v 0.0781428 -0.359812 -0.842194
v 0.129446 -0.359741 -0.842194
v 0.129446 -0.359812 -0.825636
v 0.129446 -0.359882 -0.808303
v 0.129446 -0.359671 0.547029
v -0.13406 -0.35692 0.560647
v -0.13406 -0.357766 -0.862622
v 0.129446 -0.359106 -0.859681
v 0.129446 -0.356144 0.564361
v -0.13406 -0.356144 0.564361
v 0.129446 -0.358824 -0.8603
v -0.13406 -0.352971 -0.87299
v 0.129446 -0.352971 -0.87299
v 0.129446 -0.35029 0.57473
v -0.13406 -0.351348 0.572872
v 0.129446 -0.352265 -0.8733
v -0.13406 -0.349867 -0.873919
v -0.13406 -0.350008 0.575194
v 0.129446 -0.350008 0.575194
v -0.13406 -0.338653 -0.877169
v 0.129446 -0.338653 -0.877169
v -0.13406 -0.197385 0.703794
v 0.129446 -0.192378 0.703794
v -0.13406 0.33863 -0.877014
v 0.129446 0.33863 -0.877014
v -0.13406 0.198843 0.703794
v 0.129446 0.192777 0.703794
v -0.13406 0.341803 -0.87624
v 0.129446 0.339335 -0.876859
v 0.129446 0.349773 0.575813
v -0.13406 0.350267 0.575348
v 0.000349842 0.345612 -0.875157
v -0.13406 0.353229 -0.87299
v 0.129446 0.353229 -0.87299
v 0.129446 0.350267 0.575348
v -0.13406 0.355345 0.566837
v 0.000349842 0.356332 -0.866645
v -0.13406 0.359647 -0.859681
v 0.129446 0.359647 -0.859681
v 0.129446 0.356403 0.56498
v -0.13406 0.356755 0.564361
v -0.13406 0.360282 -0.842194
v 0.129446 0.359717 -0.858753
v 0.129446 0.356755 0.564361
v -0.13406 0.359506 0.550897
v 0.129446 0.360282 -0.842194
v -0.13406 0.360282 0.547029
v 0.129446 0.360282 0.547029
v 0.000349842 0.358589 0.555385
f 1 2 8
f 1 8 3
f 1 3 13
f 1 13 4
f 1 4 5
f 1 5 6
f 1 6 7
f 1 7 2
f 2 7 9
f 2 9 17
f 2 17 8
f 3 8 10
f 3 10 11
f 3 11 12
f 3 12 13
f 4 13 21
f 4 21 14
f 4 14 5
f 5 14 15
f 5 15 6
f 6 15 14
f 6 14 22
f 6 22 26
f 6 26 31
f 6 31 34
f 6 34 38
f 6 38 42
f 6 42 47
f 6 47 52
f 6 52 57
f 6 57 61
f 6 61 63
f 6 63 58
f 6 58 54
f 6 54 49
f 6 49 44
f 6 44 40
f 6 40 36
f 6 36 33
f 6 33 28
f 6 28 23
f 6 23 16
f 6 16 7
f 7 16 9
f 8 17 18
f 8 18 19
f 8 19 20
f 8 20 10
f 9 16 24
f 9 24 17
f 10 20 11
f 11 20 19
f 11 19 18
f 11 18 24
f 11 24 27
f 11 27 29
f 11 29 32
f 11 32 37
f 11 37 41
f 11 41 45
f 11 45 50
f 11 50 55
f 11 55 59
f 11 59 62
f 11 62 64
f 11 64 60
f 11 60 56
f 11 56 51
f 11 51 46
f 11 46 43
f 11 43 39
f 11 39 35
f 11 35 30
f 11 30 25
f 11 25 21
f 11 21 12
f 12 21 13
f 14 21 22
f 16 23 27
f 16 27 24
f 17 24 18
f 21 25 22
f 22 25 26
f 23 28 29
f 23 29 27
f 25 30 31
f 25 31 26
f 28 32 29
f 28 33 32
f 30 34 31
f 30 35 34
f 32 33 36
f 32 36 37
f 34 35 38
f 35 39 38
f 36 40 41
f 36 41 37
f 38 39 43
f 38 43 42
f 40 44 45
f 40 45 41
f 42 46 47
f 42 43 46
f 44 48 45
f 44 49 50
f 44 50 48
f 45 48 50
f 46 51 47
f 47 51 52
f 49 53 50
f 49 54 53
f 50 53 55
f 51 56 52
f 52 56 60
f 52 60 57
f 53 54 55
f 54 58 59
f 54 59 55
f 57 60 65
f 57 65 61
f 58 62 59
f 58 63 64
f 58 64 62
f 60 64 65
f 61 65 64
f 61 64 63
