v 0.162135 -0.114987 0.443012
v 0.118597 0.000239494 0.458066
v 0.162102 -0.114987 0.458066
v 0.162135 -0.114987 -0.443012
v 0.115774 0.000239494 0.473026
v 0.160559 -0.114987 0.4717
v 0.118597 0.000239494 -0.458066
v 0.162102 -0.114987 -0.458066
v 0.109043 0.000239494 0.48202
v 0.150709 -0.104407 0.480979
v 0.160034 -0.114987 0.47331
v 0.161971 -0.114987 -0.461569
v 0.160493 -0.114987 -0.472647
v 0.115774 0.000239494 -0.473026
v 0.154025 -0.114987 0.481736
v 0.0976165 0.000239494 0.48363
v 0.155962 -0.114987 -0.480505
v 0.112326 0.000239494 -0.477665
v 0.142665 -0.11263 0.483157
v 0.142665 -0.114987 0.483157
v 0.127627 -0.11263 0.48363
v 0.127627 -0.0976174 0.483535
v -0.142662 0.000239494 0.48363
v 0.154025 -0.114987 -0.481736
v 0.109043 0.000239494 -0.48202
v 0.127627 -0.114987 0.48363
v -0.157667 0.000239494 0.483535
v -0.142662 -0.0976174 0.48363
v 0.145193 -0.114987 -0.482967
v 0.103165 0.000239494 -0.482873
v -0.127657 -0.114987 0.48363
v -0.157667 -0.00752048 0.483535
v -0.167156 0.000239494 0.48202
v -0.167287 -0.00752048 0.48202
v -0.142662 -0.11263 0.483535
v 0.142665 -0.114987 -0.483157
v 0.142665 -0.11263 -0.483157
v 0.0976165 0.000239494 -0.48363
v -0.142662 -0.114987 0.483441
v -0.157667 -0.0225329 0.483441
v -0.169093 0.000239494 0.477665
v -0.171359 -0.00752048 0.473026
v -0.167058 -0.0225329 0.481926
v -0.152282 -0.11263 0.48202
v -0.144041 -0.114987 0.483251
v 0.129991 -0.114987 -0.48363
v -0.142662 0.000239494 -0.48363
v -0.157667 -0.0375566 0.483062
v -0.170899 0.000239494 0.473026
v -0.170702 -0.0225329 0.473026
v -0.171851 0.000239494 0.465735
v -0.173296 -0.00752048 0.458066
v -0.166335 -0.0375566 0.481547
v -0.152151 -0.114987 0.481926
v -0.127657 -0.114987 -0.48363
v -0.157667 0.000239494 -0.483535
v -0.142662 -0.0976174 -0.48363
v -0.168798 -0.0375566 0.473026
v -0.165679 -0.0488807 0.480979
v -0.172442 -0.0225329 0.458066
v -0.172705 0.000239494 0.458066
v -0.173296 -0.00752048 -0.458066
v -0.164595 -0.0588739 0.479369
v -0.155993 -0.114987 0.473026
v -0.140298 -0.114987 -0.483535
v -0.142662 -0.11263 -0.483535
v -0.157667 -0.00752048 -0.483535
v -0.162494 0.000239494 -0.482778
v -0.165646 -0.0629682 0.469333
v -0.166499 -0.0533585 0.473878
v -0.160688 -0.0976174 0.458066
v -0.172442 -0.0225329 -0.458066
v -0.172705 0.000239494 -0.458066
v -0.170899 0.000239494 -0.473026
v -0.171359 -0.00752048 -0.473026
v -0.170702 -0.0225329 -0.473026
v -0.158324 -0.11263 0.458066
v -0.157864 -0.114987 0.458066
v -0.142662 -0.114987 -0.483441
v -0.150772 -0.114987 -0.48221
v -0.157667 -0.0225329 -0.483441
v -0.167287 -0.00752048 -0.48202
v -0.167156 0.000239494 -0.48202
v -0.160688 -0.0976174 -0.458066
v -0.168798 -0.0375566 -0.473026
v -0.165646 -0.0629682 -0.469333
v -0.167058 -0.0225329 -0.481926
v -0.166335 -0.0375566 -0.481547
v -0.165679 -0.0488807 -0.480979
v -0.158324 -0.11263 -0.458066
v -0.157864 -0.114987 -0.458066
v -0.152282 -0.11263 -0.48202
v -0.157667 -0.0375566 -0.483062
v -0.152151 -0.114987 -0.481926
v -0.166499 -0.0533585 -0.473878
v -0.164595 -0.0588739 -0.479369
v -0.155993 -0.114987 -0.473026
v -0.157667 -0.114987 -0.460338
v -0.155599 -0.114987 -0.474351
f 1 2 3
f 1 3 6
f 1 6 11
f 1 11 15
f 1 15 20
f 1 20 26
f 1 26 31
f 1 31 39
f 1 39 45
f 1 45 54
f 1 54 64
f 1 64 78
f 1 78 91
f 1 91 98
f 1 98 97
f 1 97 99
f 1 99 94
f 1 94 80
f 1 80 79
f 1 79 65
f 1 65 55
f 1 55 46
f 1 46 36
f 1 36 29
f 1 29 24
f 1 24 17
f 1 17 13
f 1 13 12
f 1 12 8
f 1 8 4
f 1 4 7
f 1 7 2
f 2 5 6
f 2 6 3
f 2 7 14
f 2 14 18
f 2 18 25
f 2 25 30
f 2 30 38
f 2 38 47
f 2 47 56
f 2 56 68
f 2 68 83
f 2 83 74
f 2 74 73
f 2 73 61
f 2 61 51
f 2 51 49
f 2 49 41
f 2 41 33
f 2 33 27
f 2 27 23
f 2 23 16
f 2 16 9
f 2 9 5
f 4 8 7
f 5 9 10
f 5 10 11
f 5 11 6
f 7 8 12
f 7 12 13
f 7 13 14
f 9 15 10
f 9 16 15
f 10 15 11
f 13 17 14
f 14 17 18
f 15 19 20
f 15 16 19
f 16 21 22
f 16 22 19
f 16 23 28
f 16 28 31
f 16 31 26
f 16 26 21
f 17 24 25
f 17 25 18
f 19 22 21
f 19 21 26
f 19 26 20
f 23 27 32
f 23 32 28
f 24 29 30
f 24 30 25
f 27 33 34
f 27 34 32
f 28 32 40
f 28 40 35
f 28 35 31
f 29 36 37
f 29 37 38
f 29 38 30
f 31 35 39
f 32 34 40
f 33 41 42
f 33 42 34
f 34 42 43
f 34 43 40
f 35 40 44
f 35 44 45
f 35 45 39
f 36 46 37
f 37 46 38
f 38 46 55
f 38 55 57
f 38 57 47
f 40 43 48
f 40 48 44
f 41 49 42
f 42 50 43
f 42 49 51
f 42 51 52
f 42 52 50
f 43 53 44
f 43 44 48
f 43 50 53
f 44 53 54
f 44 54 45
f 47 57 67
f 47 67 56
f 50 58 59
f 50 59 53
f 50 52 60
f 50 60 58
f 51 61 52
f 52 61 73
f 52 73 62
f 52 62 72
f 52 72 60
f 53 59 54
f 54 59 63
f 54 63 64
f 55 65 66
f 55 66 57
f 56 67 68
f 57 66 81
f 57 81 67
f 58 60 69
f 58 69 70
f 58 70 59
f 59 70 63
f 60 71 69
f 60 72 84
f 60 84 71
f 62 73 74
f 62 74 75
f 62 75 76
f 62 76 72
f 63 70 69
f 63 69 64
f 64 69 77
f 64 77 78
f 65 79 66
f 66 79 80
f 66 80 81
f 67 81 82
f 67 82 68
f 68 82 83
f 69 71 77
f 71 84 90
f 71 90 77
f 72 76 85
f 72 85 86
f 72 86 84
f 74 83 75
f 75 83 82
f 75 82 87
f 75 87 76
f 76 87 88
f 76 88 89
f 76 89 85
f 77 90 91
f 77 91 78
f 80 92 87
f 80 87 93
f 80 93 81
f 80 94 92
f 81 93 87
f 81 87 82
f 84 86 90
f 85 89 95
f 85 95 86
f 86 95 96
f 86 96 97
f 86 97 98
f 86 98 90
f 87 92 88
f 88 92 94
f 88 94 89
f 89 94 96
f 89 96 95
f 90 98 91
f 94 99 96
f 96 99 97
