v -0.386962 -0.413015 0.472354
v -0.386962 -0.420965 0.469522
v -0.386962 -0.405198 0.46839
v -0.398014 -0.405071 0.469428
v -0.48811 -0.4191 0.480942
v -0.478167 -0.419903 0.480659
v -0.478167 -0.420633 0.480659
v -0.74935 -0.465935 0.468673
v -0.386962 -0.421412 0.458009
v -0.70178 -0.451358 0.481225
v -0.386962 -0.404884 0.458009
v -0.398014 -0.404637 0.458009
v -0.413036 -0.404981 0.470183
v -0.413036 -0.40445 0.458009
v -0.503132 -0.41843 0.48132
v -0.48811 -0.420899 0.480942
v -0.713369 -0.452293 0.481791
v -0.728391 -0.452909 0.481791
v -0.751496 -0.465935 0.468673
v -0.748563 -0.466111 0.458009
v -0.386962 -0.421412 -0.458009
v -0.386962 -0.404884 -0.458009
v -0.398014 -0.404637 -0.458009
v -0.428058 -0.405059 0.469522
v -0.56322 -0.418665 0.48198
v -0.548198 -0.418309 0.482075
v -0.533176 -0.418158 0.481886
v -0.518154 -0.4182 0.481603
v -0.428058 -0.404607 0.458009
v -0.413036 -0.40445 -0.458009
v -0.503132 -0.421303 0.48132
v -0.533176 -0.422118 0.481886
v -0.548198 -0.422552 0.482075
v -0.653281 -0.437692 0.48198
v -0.728391 -0.448955 0.481791
v -0.739121 -0.452179 0.481131
v -0.751603 -0.458064 0.469428
v -0.752319 -0.458064 0.458009
v -0.751782 -0.466111 0.458009
v -0.748563 -0.466111 -0.458009
v -0.74935 -0.465935 -0.468673
v -0.386962 -0.421327 -0.460745
v -0.386962 -0.405083 -0.46537
v -0.386962 -0.405198 -0.46839
v -0.398014 -0.405071 -0.469428
v -0.44308 -0.405228 0.468107
v -0.578206 -0.419178 0.481697
v -0.653281 -0.433454 0.48198
v -0.458102 -0.405283 0.458009
v -0.465935 -0.405488 0.465653
v -0.458102 -0.405397 0.466597
v -0.428058 -0.404607 -0.458009
v -0.413036 -0.404981 -0.470183
v -0.428058 -0.405059 -0.469522
v -0.668303 -0.434305 0.481603
v -0.67846 -0.435078 0.481036
v -0.739121 -0.449873 0.481131
v -0.751282 -0.450326 0.467541
v -0.75146 -0.450217 0.458009
v -0.752319 -0.458064 -0.458009
v -0.751782 -0.466111 -0.458009
v -0.386962 -0.420965 -0.469522
v -0.751496 -0.465935 -0.468673
v -0.728391 -0.452909 -0.481791
v -0.713369 -0.452293 -0.481791
v -0.70178 -0.451358 -0.481225
v -0.386962 -0.410927 -0.471599
v -0.48811 -0.4191 -0.480942
v -0.593228 -0.419945 0.481036
v -0.466078 -0.405482 0.458009
v -0.458102 -0.405283 -0.458009
v -0.56322 -0.41511 0.473014
v -0.56322 -0.41342 0.458009
v -0.44308 -0.405228 -0.468107
v -0.458102 -0.405397 -0.466597
v -0.465935 -0.405488 -0.465653
v -0.503132 -0.41843 -0.48132
v -0.518154 -0.4182 -0.481603
v -0.533176 -0.418158 -0.481886
v -0.548198 -0.418309 -0.482075
v -0.56322 -0.418665 -0.48198
v -0.578206 -0.419178 -0.481697
v -0.60124 -0.420452 0.480659
v -0.683432 -0.434432 0.472543
v -0.743842 -0.449112 0.472731
v -0.691623 -0.435362 0.467163
v -0.728391 -0.444181 0.458009
v -0.743413 -0.447977 0.458009
v -0.75146 -0.450217 -0.458009
v -0.751282 -0.450326 -0.467541
v -0.751603 -0.458064 -0.469428
v -0.386962 -0.418907 -0.470561
v -0.478167 -0.420633 -0.480659
v -0.739121 -0.452179 -0.481131
v -0.728391 -0.448955 -0.481791
v -0.653281 -0.437692 -0.48198
v -0.548198 -0.422552 -0.482075
v -0.533176 -0.422118 -0.481886
v -0.503132 -0.421303 -0.48132
v -0.48811 -0.420899 -0.480942
v -0.386962 -0.413015 -0.472354
v -0.478167 -0.419903 -0.480659
v -0.466078 -0.405482 -0.458009
v -0.578206 -0.416486 0.473014
v -0.578206 -0.415134 0.458009
v -0.56322 -0.41342 -0.458009
v -0.593228 -0.419945 -0.481036
v -0.56322 -0.41511 -0.473014
v -0.653281 -0.433454 -0.48198
v -0.668303 -0.434305 -0.481603
v -0.593228 -0.418279 0.473014
v -0.604459 -0.419939 0.473014
v -0.668303 -0.430382 0.458009
v -0.683325 -0.433472 0.458009
v -0.69198 -0.435277 0.458009
v -0.728391 -0.444181 -0.458009
v -0.743413 -0.447977 -0.458009
v -0.691623 -0.435362 -0.467163
v -0.743842 -0.449112 -0.472731
v -0.739121 -0.449873 -0.481131
v -0.67846 -0.435078 -0.481036
v -0.593228 -0.417192 0.458009
v -0.578206 -0.415134 -0.458009
v -0.578206 -0.416486 -0.473014
v -0.60124 -0.420452 -0.480659
v -0.607464 -0.419456 0.458009
v -0.668303 -0.430382 -0.458009
v -0.683325 -0.433472 -0.458009
v -0.69198 -0.435277 -0.458009
v -0.683432 -0.434432 -0.472543
v -0.604459 -0.419939 -0.473014
v -0.593228 -0.417192 -0.458009
v -0.593228 -0.418279 -0.473014
v -0.607464 -0.419456 -0.458009
f 1 2 9
f 1 9 21
f 1 21 42
f 1 42 62
f 1 62 92
f 1 92 101
f 1 101 67
f 1 67 44
f 1 44 43
f 1 43 22
f 1 22 11
f 1 11 3
f 1 3 4
f 1 4 5
f 1 5 6
f 1 6 7
f 1 7 2
f 2 8 9
f 2 7 10
f 2 10 8
f 3 11 12
f 3 12 4
f 4 13 5
f 4 12 14
f 4 14 13
f 5 15 31
f 5 31 16
f 5 16 7
f 5 7 6
f 5 13 15
f 7 16 17
f 7 17 10
f 8 10 17
f 8 17 18
f 8 18 19
f 8 19 39
f 8 39 20
f 8 20 9
f 9 20 40
f 9 40 21
f 11 22 23
f 11 23 12
f 12 23 30
f 12 30 14
f 13 14 24
f 13 24 25
f 13 25 26
f 13 26 27
f 13 27 28
f 13 28 15
f 14 29 24
f 14 30 52
f 14 52 29
f 15 28 27
f 15 27 32
f 15 32 31
f 16 31 17
f 17 31 32
f 17 32 33
f 17 33 34
f 17 34 18
f 18 34 48
f 18 48 35
f 18 35 57
f 18 57 36
f 18 36 19
f 19 36 37
f 19 37 38
f 19 38 39
f 20 39 61
f 20 61 40
f 21 40 41
f 21 41 42
f 22 43 23
f 23 43 44
f 23 44 45
f 23 45 30
f 24 29 46
f 24 46 47
f 24 47 25
f 25 47 48
f 25 48 26
f 26 48 34
f 26 34 33
f 26 33 32
f 26 32 27
f 29 49 50
f 29 50 51
f 29 51 46
f 29 52 71
f 29 71 49
f 30 45 53
f 30 53 54
f 30 54 52
f 35 48 55
f 35 55 56
f 35 56 57
f 36 57 37
f 37 57 58
f 37 58 38
f 38 58 59
f 38 59 89
f 38 89 60
f 38 60 61
f 38 61 39
f 40 61 63
f 40 63 41
f 41 62 42
f 41 63 64
f 41 64 65
f 41 65 66
f 41 66 62
f 44 67 45
f 45 67 68
f 45 68 53
f 46 51 47
f 47 69 55
f 47 55 48
f 47 51 50
f 47 50 69
f 49 70 50
f 49 71 103
f 49 103 70
f 50 72 69
f 50 70 73
f 50 73 72
f 52 54 74
f 52 74 75
f 52 75 76
f 52 76 71
f 53 68 77
f 53 77 78
f 53 78 79
f 53 79 80
f 53 80 81
f 53 81 54
f 54 81 82
f 54 82 74
f 55 69 83
f 55 83 56
f 56 83 84
f 56 84 85
f 56 85 57
f 57 85 58
f 58 85 86
f 58 86 87
f 58 87 88
f 58 88 59
f 59 88 117
f 59 117 89
f 60 89 90
f 60 90 91
f 60 91 63
f 60 63 61
f 62 66 93
f 62 93 92
f 63 91 94
f 63 94 64
f 64 94 120
f 64 120 95
f 64 95 109
f 64 109 96
f 64 96 65
f 65 96 97
f 65 97 98
f 65 98 99
f 65 99 100
f 65 100 93
f 65 93 66
f 67 101 102
f 67 102 68
f 68 102 93
f 68 93 100
f 68 100 99
f 68 99 77
f 69 72 83
f 70 103 106
f 70 106 73
f 71 76 103
f 72 104 83
f 72 73 104
f 73 105 104
f 73 106 123
f 73 123 105
f 74 82 75
f 75 82 76
f 76 82 107
f 76 107 108
f 76 108 106
f 76 106 103
f 77 99 98
f 77 98 79
f 77 79 78
f 79 98 97
f 79 97 80
f 80 97 96
f 80 96 109
f 80 109 81
f 81 109 82
f 82 109 110
f 82 110 107
f 83 104 111
f 83 111 112
f 83 112 84
f 84 86 85
f 84 112 86
f 86 112 113
f 86 113 114
f 86 114 115
f 86 115 87
f 87 115 129
f 87 129 116
f 87 116 117
f 87 117 88
f 89 117 90
f 90 117 116
f 90 116 118
f 90 118 119
f 90 119 120
f 90 120 91
f 91 120 94
f 92 93 101
f 93 102 101
f 95 120 121
f 95 121 110
f 95 110 109
f 104 105 111
f 105 122 111
f 105 123 132
f 105 132 122
f 106 108 124
f 106 124 123
f 107 110 125
f 107 125 108
f 108 125 124
f 110 121 125
f 111 122 112
f 112 122 126
f 112 126 113
f 113 126 134
f 113 134 127
f 113 127 128
f 113 128 114
f 114 128 129
f 114 129 115
f 116 129 118
f 118 130 119
f 118 129 128
f 118 128 127
f 118 127 131
f 118 131 130
f 119 130 121
f 119 121 120
f 121 130 125
f 122 132 134
f 122 134 126
f 123 124 133
f 123 133 132
f 124 125 133
f 125 131 133
f 125 130 131
f 127 134 131
f 131 134 132
f 131 132 133
