v -0.142641 0.000239505 -0.48363
v -0.142641 0.0976447 -0.48363
v 0.182751 0.172752 -0.48363
v 0.100386 0.000239505 -0.483251
v -0.161242 0.000239505 -0.482967
v -0.157661 0.0225376 -0.483251
v -0.142641 0.112657 -0.483535
v -0.127622 0.142727 -0.48363
v 0.182751 0.42801 -0.48363
v 0.182751 0.157739 -0.483441
v 0.182751 0.141049 -0.481452
v 0.110677 0.000239505 -0.479843
v -0.172437 0.00390435 -0.458066
v -0.170664 0.00390435 -0.473026
v -0.166979 0.00756919 -0.481926
v -0.171812 0.000239505 0.465735
v -0.166492 0.0225376 -0.481736
v -0.152585 0.112657 -0.48202
v -0.127622 0.157739 -0.483251
v -0.112602 0.187809 -0.483535
v -0.0975822 0.21779 -0.48363
v 0.172668 0.42801 -0.48363
v 0.182751 0.44236 -0.481926
v 0.182751 0.135927 -0.473026
v 0.115753 0.000239505 -0.473026
v -0.168926 0.0375502 -0.458066
v -0.165623 0.0643079 -0.469333
v -0.167778 0.0375502 -0.473026
v -0.169169 0.0225376 -0.473026
v -0.172437 0.00390435 0.458066
v -0.165449 0.0484123 -0.480884
v -0.165901 0.0375502 -0.481263
v -0.157661 0.000239505 0.483535
v -0.167535 0.00390435 0.480884
v -0.170664 0.00390435 0.473026
v -0.151403 0.124358 -0.481452
v -0.137044 0.157739 -0.481736
v -0.112602 0.202777 -0.482873
v -0.0981037 0.233244 -0.482399
v -0.0825624 0.247726 -0.483062
v -0.0675427 0.262739 -0.483535
v -0.052523 0.27784 -0.48363
v 0.127609 0.412997 -0.48363
v 0.157649 0.42801 -0.483535
v 0.157649 0.438386 -0.48202
v 0.182751 0.449204 -0.475582
v 0.182751 0.134646 -0.458066
v 0.11857 0.000239505 -0.458066
v -0.168926 0.0375502 0.458066
v -0.162494 0.0976447 -0.458066
v -0.159678 0.0976447 -0.473026
v -0.164545 0.0584354 -0.479369
v -0.166179 0.0530485 -0.473878
v -0.169169 0.0225376 0.473026
v -0.167778 0.0375502 0.473026
v -0.165623 0.0643079 0.469333
v -0.142641 0.000239505 0.48363
v -0.142641 0.0976447 0.48363
v -0.142641 0.112657 0.483535
v -0.157661 0.0225376 0.483251
v -0.166492 0.0225376 0.481736
v -0.165901 0.0375502 0.481263
v -0.165449 0.0484123 0.480884
v -0.157244 0.112657 -0.473026
v -0.149386 0.134381 -0.478991
v -0.135862 0.167321 -0.481168
v -0.121259 0.202777 -0.481358
v -0.112324 0.216421 -0.481831
v -0.107109 0.228607 -0.481547
v -0.0819366 0.261679 -0.481926
v -0.0674384 0.277619 -0.482304
v -0.0375033 0.307821 -0.483251
v 0.00748631 0.33789 -0.48363
v 0.0675652 0.382928 -0.48363
v 0.0825501 0.397941 -0.483251
v 0.112624 0.412997 -0.482967
v 0.146175 0.436885 -0.481547
v 0.157649 0.443508 -0.473026
v 0.181047 0.45075 -0.467724
v 0.182751 0.451324 -0.458066
v 0.182751 0.134646 0.458066
v 0.11857 0.000239505 0.458066
v -0.162494 0.0976447 0.458066
v -0.159434 0.112657 -0.458066
v -0.166179 0.0530485 0.473878
v -0.164545 0.0584354 0.479369
v -0.159678 0.0976447 0.473026
v 0.0976046 0.000239505 0.48363
v -0.127622 0.142727 0.48363
v -0.112602 0.187809 0.483535
v -0.127622 0.157739 0.483251
v -0.152585 0.112657 0.48202
v -0.151403 0.124358 0.481452
v -0.15255 0.12873 -0.473594
v -0.150568 0.136324 -0.468954
v -0.120459 0.211255 -0.476813
v -0.0905591 0.255983 -0.480884
v -0.0765476 0.272497 -0.481452
v -0.0458476 0.316299 -0.481168
v -0.0486986 0.307821 -0.481736
v -0.036356 0.32195 -0.481736
v -0.0224836 0.322834 -0.483062
v 0.037491 0.367871 -0.483441
v 0.0525454 0.382928 -0.483157
v 0.0680867 0.397852 -0.482115
v 0.0825501 0.407434 -0.481736
v 0.0734757 0.406065 -0.481074
v 0.136162 0.434501 -0.478328
v 0.14176 0.438077 -0.473215
v 0.157649 0.445804 -0.458066
v 0.171486 0.449557 -0.458066
v 0.171486 0.449557 0.458066
v 0.182299 0.451147 0.461759
v 0.182751 0.448674 0.476718
v 0.182751 0.13575 0.471511
v 0.115753 0.000239505 0.473026
v -0.157244 0.112657 0.473026
v -0.159434 0.112657 0.458066
v -0.154289 0.127714 -0.458066
v 0.182751 0.155267 0.483251
v 0.182751 0.167762 0.48363
v 0.109043 0.000239505 0.48202
v -0.0975822 0.21779 0.48363
v -0.112602 0.202777 0.482873
v -0.137044 0.157739 0.481736
v -0.121259 0.202777 0.481358
v -0.135862 0.167321 0.481168
v -0.149386 0.134381 0.478991
v -0.150777 0.136854 -0.458066
v -0.137496 0.171339 -0.458066
v -0.125327 0.202777 -0.458066
v -0.121259 0.213242 -0.458066
v -0.118026 0.220704 -0.458066
v -0.116809 0.219423 -0.473026
v -0.109334 0.231522 -0.473026
v -0.091463 0.257176 -0.473026
v -0.0604501 0.300889 -0.468481
v -0.0550263 0.306629 -0.47331
v -0.0590941 0.299387 -0.478423
v -0.0469602 0.317579 -0.473026
v -0.0392417 0.32513 -0.473026
v -0.0305845 0.33087 -0.480884
v 0.0282775 0.376791 -0.481358
v 0.022958 0.367606 -0.482304
v 0.038534 0.382222 -0.481926
v 0.0525454 0.39273 -0.481642
v 0.0442359 0.391053 -0.480979
v 0.0713549 0.407081 -0.473026
v 0.103932 0.420945 -0.476813
v 0.134354 0.435825 -0.468292
v 0.142664 0.439843 -0.458066
v 0.157649 0.445804 0.458066
v 0.157649 0.443508 0.473026
v 0.146175 0.436885 0.481547
v 0.157649 0.438386 0.48202
v 0.182751 0.440241 0.48221
v 0.182751 0.13915 0.479937
v -0.15255 0.12873 0.473594
v -0.150568 0.136324 0.468954
v -0.154289 0.127714 0.458066
v 0.182751 0.42801 0.48363
v -0.052523 0.27784 0.48363
v -0.0675427 0.262739 0.483535
v -0.0825624 0.247726 0.483062
v -0.0981037 0.233244 0.482399
v -0.112324 0.216421 0.481831
v -0.107109 0.228607 0.481547
v -0.120459 0.211255 0.476813
v -0.150777 0.136854 0.458066
v -0.137496 0.171339 0.458066
v -0.125327 0.202777 0.458066
v -0.121259 0.213242 0.458066
v -0.118026 0.220704 0.458066
v -0.110516 0.232758 -0.458066
v -0.105092 0.24022 -0.458066
v -0.0606587 0.301198 -0.458066
v -0.0551654 0.30866 -0.458066
v -0.0476555 0.318418 -0.458066
v -0.0400414 0.325924 -0.458066
v -0.0316971 0.331753 -0.473026
v 0.0430191 0.392024 -0.473026
v 0.0525454 0.399089 -0.458066
v 0.0625586 0.404299 -0.458066
v 0.0700684 0.407699 -0.458066
v 0.142664 0.439843 0.458066
v 0.134354 0.435825 0.468292
v 0.14176 0.438077 0.473215
v 0.0734757 0.406065 0.481074
v 0.0825501 0.407434 0.481736
v 0.0825501 0.397941 0.483251
v 0.112624 0.412997 0.482967
v 0.157649 0.42801 0.483535
v 0.136162 0.434501 0.478328
v 0.172668 0.42801 0.48363
v 0.00748631 0.33789 0.48363
v -0.0375033 0.307821 0.483251
v -0.0674384 0.277619 0.482304
v -0.0819366 0.261679 0.481926
v -0.0765476 0.272497 0.481452
v -0.0905591 0.255983 0.480884
v -0.109334 0.231522 0.473026
v -0.116809 0.219423 0.473026
v -0.110516 0.232758 0.458066
v -0.105092 0.24022 0.458066
v -0.0606587 0.301198 0.458066
v -0.0551654 0.30866 0.458066
v -0.0476555 0.318418 0.458066
v -0.0400414 0.325924 0.458066
v -0.0324967 0.332371 -0.458066
v -0.0154605 0.34575 -0.468197
v 0.0421846 0.39273 -0.458066
v 0.0525454 0.399089 0.458066
v 0.0625586 0.404299 0.458066
v 0.0700684 0.407699 0.458066
v 0.0713549 0.407081 0.473026
v 0.103932 0.420945 0.476813
v 0.0442359 0.391053 0.480979
v 0.0525454 0.39273 0.481642
v 0.0680867 0.397852 0.482115
v 0.0525454 0.382928 0.483157
v 0.0675652 0.382928 0.48363
v 0.127609 0.412997 0.48363
v 0.037491 0.367871 0.483441
v -0.0224836 0.322834 0.483062
v -0.036356 0.32195 0.481736
v -0.0458476 0.316299 0.481168
v -0.0486986 0.307821 0.481736
v -0.0590941 0.299387 0.478423
v -0.0550263 0.306629 0.47331
v -0.0604501 0.300889 0.468481
v -0.091463 0.257176 0.473026
v -0.0469602 0.317579 0.473026
v -0.0324967 0.332371 0.458066
v -0.0392417 0.32513 0.473026
v -0.0316971 0.331753 0.473026
v -0.00749864 0.352638 -0.458066
v 0.00856411 0.365619 -0.458066
v 0.025357 0.379175 -0.458066
v 0.0421846 0.39273 0.458066
v 0.0430191 0.392024 0.473026
v -0.0305845 0.33087 0.480884
v 0.0282775 0.376791 0.481358
v 0.038534 0.382222 0.481926
v 0.022958 0.367606 0.482304
v -0.0154605 0.34575 0.468197
v -0.00749864 0.352638 0.458066
v 0.00856411 0.365619 0.458066
v 0.025357 0.379175 0.458066
f 1 2 8
f 1 8 21
f 1 21 42
f 1 42 73
f 1 73 74
f 1 74 43
f 1 43 22
f 1 22 9
f 1 9 3
f 1 3 4
f 1 4 12
f 1 12 25
f 1 25 48
f 1 48 82
f 1 82 116
f 1 116 122
f 1 122 88
f 1 88 57
f 1 57 33
f 1 33 16
f 1 16 5
f 1 5 6
f 1 6 2
f 2 6 7
f 2 7 8
f 3 9 23
f 3 23 46
f 3 46 80
f 3 80 114
f 3 114 156
f 3 156 161
f 3 161 121
f 3 121 120
f 3 120 157
f 3 157 115
f 3 115 81
f 3 81 47
f 3 47 24
f 3 24 11
f 3 11 10
f 3 10 4
f 4 10 11
f 4 11 12
f 5 13 14
f 5 14 15
f 5 15 6
f 5 16 13
f 6 15 17
f 6 17 18
f 6 18 7
f 7 19 20
f 7 20 8
f 7 18 19
f 8 20 21
f 9 22 23
f 11 24 25
f 11 25 12
f 13 26 27
f 13 27 28
f 13 28 29
f 13 29 14
f 13 16 30
f 13 30 49
f 13 49 26
f 14 29 31
f 14 31 32
f 14 32 17
f 14 17 15
f 16 33 34
f 16 34 35
f 16 35 30
f 17 32 18
f 18 32 31
f 18 31 36
f 18 36 37
f 18 37 19
f 19 38 20
f 19 37 38
f 20 38 21
f 21 38 39
f 21 39 40
f 21 40 41
f 21 41 42
f 22 43 44
f 22 44 23
f 23 44 45
f 23 45 46
f 24 47 48
f 24 48 25
f 26 49 83
f 26 83 50
f 26 50 27
f 27 51 52
f 27 52 53
f 27 53 28
f 27 50 51
f 28 53 31
f 28 31 29
f 30 35 54
f 30 54 55
f 30 55 56
f 30 56 49
f 31 52 36
f 31 53 52
f 33 57 58
f 33 58 59
f 33 59 60
f 33 60 61
f 33 61 34
f 34 61 35
f 35 61 62
f 35 62 63
f 35 63 54
f 36 52 64
f 36 64 65
f 36 65 66
f 36 66 67
f 36 67 37
f 37 67 38
f 38 67 68
f 38 68 39
f 39 68 69
f 39 69 70
f 39 70 40
f 40 70 71
f 40 71 72
f 40 72 41
f 41 72 42
f 42 72 73
f 43 74 75
f 43 75 44
f 44 75 76
f 44 76 77
f 44 77 45
f 45 77 46
f 46 77 78
f 46 78 79
f 46 79 80
f 47 81 82
f 47 82 48
f 49 56 83
f 50 84 64
f 50 64 51
f 50 83 118
f 50 118 84
f 51 64 52
f 54 63 55
f 55 63 85
f 55 85 56
f 56 85 86
f 56 86 87
f 56 87 83
f 57 88 121
f 57 121 161
f 57 161 194
f 57 194 222
f 57 222 221
f 57 221 195
f 57 195 162
f 57 162 123
f 57 123 89
f 57 89 58
f 58 89 59
f 59 89 90
f 59 90 91
f 59 91 92
f 59 92 60
f 60 92 61
f 61 92 62
f 62 92 63
f 63 92 93
f 63 93 86
f 63 86 85
f 64 84 94
f 64 94 65
f 65 94 95
f 65 95 96
f 65 96 66
f 66 96 67
f 67 69 68
f 67 96 69
f 69 96 97
f 69 97 98
f 69 98 70
f 70 98 99
f 70 99 100
f 70 100 71
f 71 100 72
f 72 100 99
f 72 99 101
f 72 101 102
f 72 102 103
f 72 103 73
f 73 103 74
f 74 103 104
f 74 104 75
f 75 104 105
f 75 105 106
f 75 106 77
f 75 77 76
f 77 106 107
f 77 107 108
f 77 108 109
f 77 109 78
f 78 109 110
f 78 110 79
f 79 110 111
f 79 111 80
f 80 111 112
f 80 112 113
f 80 113 114
f 81 115 82
f 82 115 116
f 83 87 117
f 83 117 118
f 84 118 160
f 84 160 119
f 84 119 95
f 84 95 94
f 86 93 117
f 86 117 87
f 88 120 121
f 88 122 120
f 89 123 90
f 90 123 124
f 90 124 91
f 91 124 125
f 91 125 92
f 92 125 93
f 93 126 127
f 93 127 128
f 93 128 117
f 93 125 126
f 95 119 129
f 95 129 130
f 95 130 131
f 95 131 132
f 95 132 96
f 96 132 133
f 96 133 134
f 96 134 135
f 96 135 97
f 97 99 98
f 97 135 136
f 97 136 137
f 97 137 138
f 97 138 139
f 97 139 99
f 99 139 138
f 99 138 140
f 99 140 141
f 99 141 142
f 99 142 101
f 101 142 143
f 101 143 144
f 101 144 102
f 102 144 103
f 103 144 104
f 104 144 145
f 104 145 146
f 104 146 105
f 105 146 106
f 106 146 107
f 107 146 147
f 107 147 148
f 107 148 149
f 107 149 108
f 108 149 109
f 109 149 150
f 109 150 110
f 110 151 185
f 110 185 152
f 110 152 112
f 110 112 111
f 110 150 151
f 112 152 153
f 112 153 114
f 112 114 113
f 114 153 154
f 114 154 155
f 114 155 156
f 115 157 116
f 116 157 122
f 117 158 118
f 117 128 158
f 118 158 159
f 118 159 160
f 119 160 169
f 119 169 129
f 120 122 157
f 123 162 163
f 123 163 164
f 123 164 165
f 123 165 124
f 124 165 166
f 124 166 126
f 124 126 125
f 126 166 167
f 126 167 168
f 126 168 127
f 127 168 128
f 128 168 159
f 128 159 158
f 129 169 170
f 129 170 130
f 130 170 171
f 130 171 131
f 131 171 172
f 131 172 132
f 132 172 173
f 132 173 133
f 133 173 203
f 133 203 174
f 133 174 135
f 133 135 134
f 135 174 136
f 136 174 137
f 137 174 175
f 137 175 176
f 137 176 177
f 137 177 178
f 137 178 140
f 137 140 138
f 140 178 179
f 140 179 141
f 141 179 180
f 141 180 142
f 142 147 143
f 142 180 181
f 142 181 147
f 143 147 145
f 143 145 144
f 145 147 146
f 147 181 148
f 148 181 182
f 148 182 183
f 148 183 184
f 148 184 150
f 148 150 149
f 150 184 151
f 151 184 214
f 151 214 185
f 152 185 186
f 152 186 187
f 152 187 153
f 153 187 154
f 154 188 189
f 154 189 190
f 154 190 191
f 154 191 192
f 154 192 155
f 154 187 193
f 154 193 188
f 155 192 156
f 156 192 194
f 156 194 161
f 159 168 172
f 159 172 171
f 159 171 170
f 159 170 169
f 159 169 160
f 162 195 196
f 162 196 163
f 163 196 164
f 164 196 197
f 164 197 198
f 164 198 165
f 165 198 167
f 165 167 166
f 167 198 199
f 167 199 200
f 167 200 168
f 168 201 202
f 168 202 173
f 168 173 172
f 168 200 201
f 173 202 201
f 173 201 203
f 174 203 204
f 174 204 175
f 175 204 205
f 175 205 176
f 176 205 206
f 176 206 177
f 177 206 207
f 177 207 178
f 178 207 208
f 178 208 179
f 179 208 233
f 179 233 209
f 179 209 180
f 180 209 210
f 180 210 181
f 181 210 211
f 181 211 182
f 182 211 239
f 182 239 212
f 182 212 213
f 182 213 183
f 183 213 214
f 183 214 184
f 185 214 186
f 186 215 216
f 186 216 187
f 186 214 215
f 187 216 193
f 188 217 218
f 188 218 189
f 188 193 216
f 188 216 215
f 188 215 217
f 189 218 219
f 189 219 190
f 190 219 220
f 190 220 221
f 190 221 222
f 190 222 192
f 190 192 191
f 192 222 194
f 195 221 223
f 195 223 196
f 196 223 224
f 196 224 225
f 196 225 226
f 196 226 227
f 196 227 197
f 197 227 198
f 198 227 226
f 198 226 199
f 199 226 200
f 200 226 228
f 200 228 229
f 200 229 230
f 200 230 231
f 200 231 201
f 201 231 203
f 203 231 230
f 203 230 204
f 204 230 205
f 205 230 206
f 206 230 207
f 207 230 232
f 207 232 208
f 208 232 234
f 208 234 235
f 208 235 233
f 209 236 210
f 209 233 246
f 209 246 236
f 210 236 237
f 210 237 238
f 210 238 211
f 211 238 248
f 211 248 239
f 212 239 240
f 212 240 215
f 212 215 213
f 213 215 214
f 215 240 217
f 217 241 242
f 217 242 243
f 217 243 218
f 217 240 241
f 218 243 220
f 218 220 219
f 220 244 223
f 220 223 221
f 220 243 244
f 223 244 224
f 224 244 225
f 225 242 241
f 225 241 226
f 225 244 242
f 226 241 234
f 226 234 232
f 226 232 229
f 226 229 228
f 229 232 230
f 233 235 245
f 233 245 246
f 234 241 235
f 235 240 245
f 235 241 240
f 236 246 247
f 236 247 237
f 237 247 248
f 237 248 238
f 239 248 245
f 239 245 240
f 242 244 243
f 245 248 247
f 245 247 246
