v -0.0592332 -0.667785 -0.0888695
v -0.141478 -0.661771 -0.0940814
v -0.115816 -0.639678 -0.218632
v 0.0889572 -0.652751 -0.148205
v 0.168716 -0.648567 -0.123081
v 0.124502 -0.664778 0.119339
v -0.169336 -0.662687 0.00120275
v -0.0147298 -0.630526 -0.244558
v -0.0889984 -0.552479 -0.396772
v -0.101309 -0.620591 -0.279304
v 0.194147 -0.623597 -0.202195
v 0.169757 -0.650006 -0.023654
v 0.162012 -0.657065 0.0555936
v 0.124618 -0.647914 0.186158
v 0.0110474 -0.660203 0.170389
v -0.177369 -0.655888 0.117334
v -0.207655 -0.608171 0.192707
v -0.11859 -0.207604 -0.38568
v -0.0889984 -0.341214 -0.504485
v -0.0809068 -0.486981 -0.464794
v -0.087669 -0.593921 -0.339842
v 0.140223 -0.592221 -0.306433
v -0.0642037 -0.453775 -0.51678
v -0.00120543 -0.527901 -0.431385
v 0.187905 -0.550125 -0.360957
v 0.226975 -0.580194 -0.268747
v 0.207613 -0.608171 -0.0740356
v 0.163168 -0.608302 0.140721
v 0.122075 -0.606733 0.270217
v -0.00738966 -0.629219 0.254447
v -0.208637 -0.59562 0.260194
v -0.228404 -0.538752 0.367906
v -0.251464 -0.409587 0.489918
v -0.293656 -0.0758253 0.613534
v -0.267012 -0.0296764 0.400514
v -0.252158 -0.0888986 0.326211
v -0.133502 -0.073995 -0.326211
v -0.11859 0 -0.415348
v -0.103736 0.0145114 -0.489651
v -0.0889984 -0.0590914 -0.548986
v -0.0815426 -0.192831 -0.56382
v -0.0642037 -0.130864 -0.633579
v 8.29566e-06 -0.571173 -0.370846
v 0.118665 -0.55627 -0.370846
v -0.045362 -0.3922 -0.557138
v 0.0222022 -0.303955 -0.61193
v 0.0542792 -0.405404 -0.538964
v 0.0283286 -0.457305 -0.501812
v -0.0357678 -0.232836 -0.6424
v 0.143344 -0.507506 -0.429514
v 0.231599 -0.496655 -0.415081
v 0.222583 -0.578625 -0.148205
v 0.245875 -0.529731 -0.329419
v 0.237321 -0.534176 -0.20754
v 0.207613 -0.415339 -0.0147002
v 0.192875 -0.519142 0.0295341
v 0.177964 -0.585946 0.0813858
v 0.148314 -0.578625 0.222374
v 0.102077 -0.563329 0.36216
v -0.0147876 -0.593398 0.326345
v 0.0110474 -0.558754 0.388086
v -0.0481362 -0.505545 0.453569
v -0.1409 -0.486981 0.45731
v -0.217827 -0.490119 0.428044
v -0.18916 -0.426452 0.501946
v -0.244066 -0.362915 0.531747
v -0.264815 -0.272056 0.571705
v -0.264526 -0.174137 0.609792
v -0.24476 -0.073995 0.63799
v -0.27782 0.00653666 0.63251
v -0.272445 0.258198 0.580124
v -0.281808 0.266957 0.474817
v -0.267012 0.0888986 0.38568
v -0.252158 0.118575 0.296544
v -0.252158 0.0145114 0.311377
v -0.133502 0.177928 -0.356013
v -0.222566 0.252184 0.118537
v -0.11859 0.163155 -0.430316
v -0.0889984 0.177928 -0.56382
v -0.0740869 0.073995 -0.623156
v -0.0351898 -0.0517703 -0.678749
v -0.0147298 -0.155703 -0.667657
v 0.0741035 -0.163155 -0.652823
v 0.170624 -0.246301 -0.608723
v 0.189003 -0.344613 -0.556069
v 0.150799 -0.412855 -0.516646
v 0.250614 -0.4475 -0.454905
v 0.266566 -0.453252 -0.37539
v 0.263272 -0.348665 -0.318861
v 0.207613 0.341214 0
v 0.163168 0.355856 0.222374
v 0.192875 -0.266957 0.0593354
v 0.177964 -0.415339 0.118537
v 0.133518 -0.489596 0.311377
v 0.222583 -0.192831 -0.0888695
v 0.118607 -0.489596 0.370846
v 0.103753 -0.430112 0.445149
v 0.0845068 -0.502669 0.442076
v 0.0148042 -0.47966 0.494462
v -0.0592332 -0.449984 0.509296
v -0.155753 -0.388147 0.539231
v -0.189102 -0.337422 0.564622
v -0.202106 -0.264996 0.595626
v -0.200257 -0.200153 0.619414
v -0.163209 -0.163155 0.63799
v -0.044495 -0.133217 0.667657
v -0.0963385 -0.073995 0.667657
v -0.192859 0 0.652823
v -0.271057 0.175313 0.604446
v -0.237304 0.0888986 0.63799
v -0.250251 0.325264 0.551525
v -0.260654 0.401743 0.494462
v -0.197656 0.216233 0.614068
v -0.0406805 0.28173 0.61928
v -0.267012 0.415339 0.38568
v -0.148298 0.237281 -0.28171
v -0.177947 0.400436 -0.133371
v -0.163209 0.459789 -0.20754
v -0.133502 0.385663 -0.356013
v -0.222566 0.519142 0.118537
v -0.207655 0.355856 0.0295341
v -0.11859 0.28173 -0.430316
v -0.0889984 0.252184 -0.56382
v -0.0740869 0.163155 -0.623156
v -0.038253 0.16041 -0.666054
v -0.0200471 0.0705959 -0.681288
v 0.0148042 0 -0.682625
v 0.0593075 -0.103671 -0.667657
v 0.15577 -0.0963504 -0.652823
v 0.171028 -0.159364 -0.637054
v 0.235992 -0.23532 -0.596161
v 0.274253 -0.280815 -0.564221
v 0.268993 -0.364746 -0.494061
v 0.293326 -0.205643 -0.570502
v 0.296793 -0.148382 -0.534153
v 0.267028 0.237281 -0.356013
v 0.222583 0.341214 -0.0888695
v 0.177964 0.623205 0
v 0.114908 0.574834 0.300285
v 0.0852582 0.485674 0.448758
v 0.0741035 0.222377 0.548986
v 0.0741035 -0.0888986 0.56382
v 0.0527765 -0.29245 0.609124
v 0.067977 -0.363046 0.55353
v 0.0693063 -0.453252 0.503282
v -0.00548237 -0.336769 0.595493
v -0.0323578 -0.3922 0.558341
v -0.0685384 -0.320819 0.595626
v -0.0629899 -0.211265 0.643469
v 0.0153822 -0.168254 0.665385
v -0.0221856 -0.0590914 0.682625
v -0.0295257 0.0443186 0.682625
v -0.0777858 0.100011 0.667657
v -0.0889984 0.163155 0.652823
v -0.0357678 0.349711 0.583465
v -0.178005 0.37089 0.541369
v -0.187888 0.449984 0.479494
v -0.247708 0.474954 0.428578
v -0.051893 0.211265 0.64534
v 0.0173473 0.221724 0.646275
v -0.235166 0.582939 0.253913
v -0.237304 0.519142 0.20754
v -0.207655 0.474692 0.0295341
v -0.148298 0.534176 -0.266876
v -0.148298 0.430112 -0.28171
v -0.192859 0.519142 -0.0445016
v -0.192859 0.593398 -0.0295341
v -0.11859 0.445016 -0.415348
v -0.103736 0.370759 -0.489651
v -0.207655 0.578625 0.0445016
v -0.065244 0.300425 -0.608055
v -0.0488876 0.237281 -0.641598
v 0.165017 0.198192 -0.644404
v 0.181721 0.118444 -0.658303
v 0.200273 -0.0147729 -0.652823
v 0.229923 -0.073995 -0.63799
v 0.268126 -0.133217 -0.614336
v 0.288182 -0.0452337 -0.61781
v 0.296793 0 -0.548986
v 0.281824 0.237281 -0.459983
v 0.267028 0.311407 -0.38568
v 0.237321 0.519142 -0.296544
v 0.222583 0.563722 -0.237208
v 0.187905 0.629219 -0.0825885
v 0.160047 0.659941 -0.0224512
v 0.148025 0.652489 0.0773766
v 0.140858 0.645299 0.140721
v 0.116815 0.63471 0.21596
v 0.0886682 0.60974 0.303626
v 0.0716182 0.546334 0.412809
v 0.0601745 0.44214 0.510899
v 0.0527187 0.375335 0.562751
v 0.0542792 0.31389 0.58841
v 0.0592497 0.0888986 0.608322
v 0.0271149 -0.102364 0.67621
v 0.00769523 -0.24251 0.6424
v 0.0209306 0.0912518 0.677546
v -0.0394667 0.435211 0.52413
v -0.0543204 0.486981 0.472144
v -0.18049 0.498224 0.431385
v -0.237189 0.526201 0.374187
v 0.0234159 0.153219 0.663247
v -0.22875 0.5598 0.321801
v -0.204129 0.602942 0.258857
v -0.213781 0.619806 0.169053
v -0.222566 0.563722 0.133371
v -0.163209 0.563722 -0.185223
v -0.160377 0.633795 -0.146334
v -0.126046 0.504369 -0.370846
v -0.182976 0.646606 0.0165712
v -0.177947 0.593398 -0.103703
v -0.0712548 0.399259 -0.548452
v 0.0518518 0.368275 -0.575981
v 0.0852582 0.305262 -0.611262
v 0.162243 0.289443 -0.609525
v 0.270727 0.226561 -0.586539
v 0.283327 0.145898 -0.596428
v 0.273848 0.0202636 -0.625294
v 0.271536 0.305654 -0.528139
v 0.254891 0.419131 -0.468402
v 0.240557 0.497178 -0.390358
v 0.18987 0.58307 -0.302023
v 0.18357 0.628173 -0.151813
v 0.0870499 0.665824 0.13885
v 0.118607 0.652751 -0.163039
v 0.0888994 0.667785 -0.0962196
v 0.0505803 0.643992 0.232263
v -0.0160013 0.643992 0.232263
v -0.0221278 0.585946 0.348529
v -0.0172729 0.535222 0.423901
v 0.0376338 0.49391 0.47896
v -0.111019 0.641377 0.213688
v -0.174306 0.65079 0.125887
v -0.165001 0.661118 -0.0573309
v -0.13905 0.63301 -0.207941
v -0.120382 0.572873 -0.33316
v -0.0818894 0.485935 -0.474015
v 0.00740625 0.43142 -0.527738
v 0.140916 0.378211 -0.557673
v 0.247088 0.379388 -0.517047
v 0.172936 0.44227 -0.493927
v 0.166867 0.555616 -0.359086
v 0.159411 0.496394 -0.440606
v 0.103753 0.583462 -0.331156
v 0.139645 0.613662 -0.260595
v -0.0147876 0.667785 0.148205
v 0.0741035 0.637847 -0.222374
v -0.0740869 0.652751 -0.192707
v -0.0889406 0.667785 -0.118537
v -0.117434 0.615361 -0.275696
v -0.0706191 0.534699 -0.421629
v 0.00364948 0.501885 -0.45731
v -0.00738966 0.565552 -0.374455
v 8.29566e-06 0.60451 -0.303894
v -0.0592909 0.629219 -0.254447
f 1 2 3
f 1 3 4
f 1 4 5
f 1 5 6
f 1 6 7
f 1 7 2
f 2 7 3
f 3 8 4
f 3 7 9
f 3 9 10
f 3 10 8
f 4 8 11
f 4 11 5
f 5 11 12
f 5 12 13
f 5 13 6
f 6 13 14
f 6 14 15
f 6 15 7
f 7 15 16
f 7 16 17
f 7 17 18
f 7 18 19
f 7 19 20
f 7 20 9
f 8 10 21
f 8 21 22
f 8 22 11
f 9 20 23
f 9 23 24
f 9 24 21
f 9 21 10
f 11 22 25
f 11 25 26
f 11 26 27
f 11 27 12
f 12 27 13
f 13 28 29
f 13 29 14
f 13 27 28
f 14 29 30
f 14 30 15
f 15 30 16
f 16 30 31
f 16 31 17
f 17 31 32
f 17 32 33
f 17 33 34
f 17 34 35
f 17 35 36
f 17 36 18
f 18 37 38
f 18 38 39
f 18 39 40
f 18 40 41
f 18 41 19
f 18 36 37
f 19 41 42
f 19 42 23
f 19 23 20
f 21 24 43
f 21 43 22
f 22 43 44
f 22 44 25
f 23 45 46
f 23 46 47
f 23 47 48
f 23 48 24
f 23 42 49
f 23 49 45
f 24 48 50
f 24 50 44
f 24 44 43
f 25 44 50
f 25 50 51
f 25 51 26
f 26 52 27
f 26 51 53
f 26 53 52
f 27 52 54
f 27 54 55
f 27 55 56
f 27 56 57
f 27 57 28
f 28 57 58
f 28 58 29
f 29 58 59
f 29 59 30
f 30 59 60
f 30 60 31
f 31 60 32
f 32 60 61
f 32 61 62
f 32 62 63
f 32 63 64
f 32 64 33
f 33 64 65
f 33 65 66
f 33 66 67
f 33 67 34
f 34 68 69
f 34 69 70
f 34 70 71
f 34 71 72
f 34 72 35
f 34 67 68
f 35 73 74
f 35 74 75
f 35 75 36
f 35 72 73
f 36 75 37
f 37 76 38
f 37 75 74
f 37 74 77
f 37 77 76
f 38 76 78
f 38 78 39
f 39 78 79
f 39 79 80
f 39 80 40
f 40 80 41
f 41 80 42
f 42 80 81
f 42 81 49
f 45 49 46
f 46 49 82
f 46 82 83
f 46 83 84
f 46 84 85
f 46 85 47
f 47 85 86
f 47 86 48
f 48 86 50
f 49 81 82
f 50 86 51
f 51 86 87
f 51 87 53
f 52 53 54
f 53 87 88
f 53 88 54
f 54 88 89
f 54 89 55
f 55 90 91
f 55 91 92
f 55 92 93
f 55 93 94
f 55 94 58
f 55 58 56
f 55 89 95
f 55 95 90
f 56 58 57
f 58 94 96
f 58 96 59
f 59 96 97
f 59 97 98
f 59 98 99
f 59 99 61
f 59 61 60
f 61 99 62
f 62 99 63
f 63 99 100
f 63 100 65
f 63 65 64
f 65 100 101
f 65 101 66
f 66 101 102
f 66 102 67
f 67 102 103
f 67 103 68
f 68 104 105
f 68 105 69
f 68 103 104
f 69 105 106
f 69 106 107
f 69 107 108
f 69 108 70
f 70 109 71
f 70 108 110
f 70 110 109
f 71 111 112
f 71 112 72
f 71 109 113
f 71 113 114
f 71 114 111
f 72 112 115
f 72 115 73
f 73 115 120
f 73 120 77
f 73 77 74
f 76 77 116
f 76 116 117
f 76 117 118
f 76 118 119
f 76 119 122
f 76 122 78
f 77 120 163
f 77 163 121
f 77 121 116
f 78 122 123
f 78 123 79
f 79 123 124
f 79 124 80
f 80 124 81
f 81 124 125
f 81 125 126
f 81 126 127
f 81 127 82
f 82 127 128
f 82 128 83
f 83 128 129
f 83 129 130
f 83 130 84
f 84 131 132
f 84 132 85
f 84 130 131
f 85 87 86
f 85 132 87
f 87 132 133
f 87 133 88
f 88 133 134
f 88 134 135
f 88 135 89
f 89 135 136
f 89 136 137
f 89 137 90
f 89 90 95
f 90 138 91
f 90 137 138
f 91 94 93
f 91 93 92
f 91 138 139
f 91 139 140
f 91 140 141
f 91 141 142
f 91 142 97
f 91 97 94
f 94 97 96
f 97 142 143
f 97 143 144
f 97 144 145
f 97 145 98
f 98 145 99
f 99 145 146
f 99 146 147
f 99 147 100
f 100 147 101
f 101 147 102
f 102 147 148
f 102 148 103
f 103 148 149
f 103 149 104
f 104 149 105
f 105 149 106
f 106 149 150
f 106 150 151
f 106 151 107
f 107 151 108
f 108 151 152
f 108 152 110
f 109 110 113
f 110 152 153
f 110 153 154
f 110 154 113
f 111 114 155
f 111 155 156
f 111 156 112
f 112 157 158
f 112 158 115
f 112 156 157
f 113 154 159
f 113 159 114
f 114 159 160
f 114 160 155
f 115 161 162
f 115 162 120
f 115 158 161
f 116 121 117
f 117 121 163
f 117 163 118
f 118 164 165
f 118 165 119
f 118 163 166
f 118 166 167
f 118 167 164
f 119 165 164
f 119 164 168
f 119 168 169
f 119 169 122
f 120 170 163
f 120 162 170
f 122 169 123
f 123 169 171
f 123 171 124
f 124 171 172
f 124 172 125
f 125 172 173
f 125 173 174
f 125 174 126
f 126 174 127
f 127 174 175
f 127 175 128
f 128 175 129
f 129 175 176
f 129 176 130
f 130 176 177
f 130 177 131
f 131 177 132
f 132 177 134
f 132 134 133
f 134 177 178
f 134 178 179
f 134 179 135
f 135 179 180
f 135 180 136
f 136 181 137
f 136 180 181
f 137 181 182
f 137 182 138
f 138 182 183
f 138 183 184
f 138 184 185
f 138 185 186
f 138 186 187
f 138 187 139
f 139 187 188
f 139 188 189
f 139 189 190
f 139 190 140
f 140 191 192
f 140 192 193
f 140 193 141
f 140 190 191
f 141 193 194
f 141 194 142
f 142 194 143
f 143 194 195
f 143 195 150
f 143 150 196
f 143 196 146
f 143 146 145
f 143 145 144
f 146 196 148
f 146 148 147
f 148 196 149
f 149 196 150
f 150 195 151
f 151 195 197
f 151 197 152
f 152 197 153
f 153 197 159
f 153 159 154
f 155 198 156
f 155 160 192
f 155 192 198
f 156 198 157
f 157 199 200
f 157 200 158
f 157 198 199
f 158 200 201
f 158 201 161
f 159 197 202
f 159 202 160
f 160 202 193
f 160 193 192
f 161 201 203
f 161 203 204
f 161 204 205
f 161 205 170
f 161 170 206
f 161 206 162
f 162 206 170
f 163 170 166
f 164 167 207
f 164 207 208
f 164 208 209
f 164 209 168
f 166 170 167
f 167 170 205
f 167 205 210
f 167 210 208
f 167 208 211
f 167 211 207
f 168 209 169
f 169 212 171
f 169 209 212
f 171 213 214
f 171 214 172
f 171 212 213
f 172 214 173
f 173 214 215
f 173 215 216
f 173 216 174
f 174 216 217
f 174 217 218
f 174 218 175
f 175 218 178
f 175 178 176
f 176 178 177
f 178 218 217
f 178 217 179
f 179 217 180
f 180 217 219
f 180 219 220
f 180 220 182
f 180 182 181
f 182 220 221
f 182 221 183
f 183 221 222
f 183 222 223
f 183 223 184
f 184 223 185
f 185 224 186
f 185 223 225
f 185 225 226
f 185 226 224
f 186 224 187
f 187 224 188
f 188 227 189
f 188 224 227
f 189 227 228
f 189 228 229
f 189 229 190
f 190 229 230
f 190 230 231
f 190 231 191
f 191 231 192
f 192 231 198
f 193 202 197
f 193 197 194
f 194 197 195
f 198 231 199
f 199 231 230
f 199 230 200
f 200 230 229
f 200 229 201
f 201 229 203
f 203 229 204
f 204 232 233
f 204 233 205
f 204 229 232
f 205 233 210
f 207 211 208
f 208 210 234
f 208 234 235
f 208 235 236
f 208 236 209
f 209 236 237
f 209 237 212
f 210 233 234
f 212 237 238
f 212 238 213
f 213 238 239
f 213 239 214
f 214 239 215
f 215 239 240
f 215 240 216
f 216 240 219
f 216 219 217
f 219 240 220
f 220 240 241
f 220 241 221
f 221 242 222
f 221 241 243
f 221 243 242
f 222 242 244
f 222 244 245
f 222 245 225
f 222 225 223
f 224 246 227
f 224 226 246
f 225 245 247
f 225 247 248
f 225 248 226
f 226 248 249
f 226 249 246
f 227 246 228
f 228 246 232
f 228 232 229
f 232 246 233
f 233 246 234
f 234 249 235
f 234 246 249
f 235 249 248
f 235 248 250
f 235 250 236
f 236 251 237
f 236 250 251
f 237 252 238
f 237 251 252
f 238 252 241
f 238 241 239
f 239 241 240
f 241 252 243
f 242 253 244
f 242 243 253
f 243 252 253
f 244 254 247
f 244 247 245
f 244 253 254
f 247 254 255
f 247 255 248
f 248 255 250
f 250 255 254
f 250 254 253
f 250 253 251
f 251 253 252
