v -0.357287 -0.198619 0.165083
v -0.444935 -0.198619 0.165083
v -0.358637 -0.201593 0.165083
v -0.446168 -0.198667 -0.00759187
v -0.448001 -0.198619 -0.00759187
v -0.445368 -0.198619 0.164593
v -0.444901 -0.199012 0.165083
v -0.358754 -0.201776 0.165083
v -0.449484 -0.204666 -0.00759187
v -0.52745 -0.198619 -0.00759187
v -0.45095 -0.198619 0.156716
v -0.447151 -0.206605 0.159336
v -0.444035 -0.202235 0.165083
v -0.358904 -0.201997 0.165083
v -0.457482 -0.213647 -0.00759187
v -0.35972 -0.202973 0.165083
v -0.527484 -0.199192 -0.00759187
v -0.526484 -0.198619 -0.00373812
v -0.452833 -0.200682 0.153133
v -0.461415 -0.198619 0.140575
v -0.461415 -0.199794 0.140558
v -0.436703 -0.212689 0.165083
v -0.464764 -0.209447 0.130213
v -0.450917 -0.211227 0.148671
v -0.46593 -0.221629 -0.00759187
v -0.365485 -0.209157 0.165083
v -0.5275 -0.199794 -0.00759187
v -0.526517 -0.199794 -0.00361981
v -0.523051 -0.198619 0.00799214
v -0.466264 -0.198619 0.13258
v -0.466247 -0.199794 0.132563
v -0.49569 -0.208106 0.0803006
v -0.430188 -0.222932 0.157866
v -0.426339 -0.221089 0.165083
v -0.444552 -0.221879 0.140828
v -0.48201 -0.210923 0.100262
v -0.472679 -0.217227 0.105857
v -0.460431 -0.220836 0.119869
v -0.455333 -0.215663 0.135521
v -0.449101 -0.224827 0.130163
v -0.473895 -0.228682 -0.00759187
v -0.379866 -0.219202 0.165083
v -0.527317 -0.204273 -0.00759187
v -0.523101 -0.199794 0.00799214
v -0.517819 -0.199794 0.0239818
v -0.517736 -0.198619 0.0239818
v -0.478628 -0.198619 0.111756
v -0.479011 -0.199794 0.111114
v -0.49569 -0.20478 0.0803006
v -0.51322 -0.199794 0.0364727
v -0.51282 -0.210137 0.035374
v -0.497407 -0.210721 0.0719339
v -0.493708 -0.222033 0.0605417
v -0.490525 -0.21871 0.0719339
v -0.477144 -0.221574 0.0914562
v -0.41954 -0.225686 0.164103
v -0.419074 -0.225462 0.165083
v -0.463164 -0.223527 0.111452
v -0.466497 -0.225719 0.100786
v -0.452433 -0.226299 0.119869
v -0.439369 -0.226641 0.135639
v -0.487059 -0.235919 -0.00759187
v -0.384931 -0.222723 0.165083
v -0.523934 -0.215255 -0.00759187
v -0.513187 -0.198619 0.0363713
v -0.517436 -0.198619 0.02481
v -0.478994 -0.198619 0.111097
v -0.482993 -0.198619 0.103694
v -0.491491 -0.198619 0.0875517
v -0.495474 -0.198619 0.0798611
v -0.497773 -0.198619 0.0744355
v -0.498307 -0.198619 0.0731678
v -0.505405 -0.199794 0.0559442
v -0.510021 -0.199794 0.0444506
v -0.509621 -0.198619 0.0452957
v -0.512953 -0.198619 0.0369628
v -0.51487 -0.213423 0.0239818
v -0.511304 -0.223604 0.0156151
v -0.509554 -0.221412 0.0239818
v -0.496324 -0.224533 0.0498932
v -0.479977 -0.224122 0.0808077
v -0.424339 -0.227111 0.152254
v -0.417258 -0.225991 0.165083
v -0.456899 -0.228194 0.105232
v -0.482527 -0.225661 0.0719339
v -0.488025 -0.227735 0.0555048
v -0.487476 -0.232016 0.0399715
v -0.471496 -0.230584 0.0719339
v -0.439553 -0.229876 0.119869
v -0.487476 -0.236095 -0.00759187
v -0.392346 -0.226281 0.165083
v -0.523801 -0.215479 -0.00759187
v -0.523834 -0.215384 -0.00747355
v -0.505338 -0.198619 0.0559442
v -0.517336 -0.217278 0.00937814
v -0.513203 -0.225492 0.00496661
v -0.498307 -0.226153 0.0399715
v -0.412109 -0.22714 0.165083
v -0.455516 -0.231759 0.0879067
v -0.501556 -0.228389 0.0239818
v -0.503505 -0.234799 -0.00759187
v -0.503072 -0.234946 -0.00759187
v -0.487476 -0.234678 0.0239818
v -0.423573 -0.229391 0.135842
v -0.487476 -0.236125 0.00799214
v -0.393763 -0.226652 0.165083
v -0.51522 -0.227438 -0.00759187
v -0.515053 -0.227555 -0.00759187
v -0.408076 -0.227236 0.165083
v -0.504972 -0.22989 0.00937814
f 1 2 7
f 1 7 13
f 1 13 22
f 1 22 34
f 1 34 57
f 1 57 83
f 1 83 98
f 1 98 109
f 1 109 106
f 1 106 91
f 1 91 63
f 1 63 42
f 1 42 26
f 1 26 16
f 1 16 14
f 1 14 8
f 1 8 3
f 1 3 4
f 1 4 5
f 1 5 10
f 1 10 18
f 1 18 29
f 1 29 46
f 1 46 66
f 1 66 65
f 1 65 76
f 1 76 75
f 1 75 94
f 1 94 72
f 1 72 71
f 1 71 70
f 1 70 69
f 1 69 68
f 1 68 67
f 1 67 47
f 1 47 30
f 1 30 20
f 1 20 11
f 1 11 6
f 1 6 2
f 2 6 7
f 3 8 9
f 3 9 4
f 4 9 15
f 4 15 25
f 4 25 41
f 4 41 62
f 4 62 90
f 4 90 102
f 4 102 101
f 4 101 108
f 4 108 107
f 4 107 92
f 4 92 64
f 4 64 43
f 4 43 27
f 4 27 17
f 4 17 10
f 4 10 5
f 6 11 12
f 6 12 7
f 7 12 13
f 8 14 9
f 9 14 16
f 9 16 15
f 10 17 18
f 11 19 12
f 11 20 21
f 11 21 19
f 12 22 13
f 12 19 21
f 12 21 23
f 12 23 24
f 12 24 22
f 15 16 26
f 15 26 25
f 17 27 28
f 17 28 18
f 18 28 29
f 20 30 21
f 21 30 31
f 21 31 32
f 21 32 23
f 22 33 34
f 22 24 35
f 22 35 33
f 23 36 37
f 23 37 38
f 23 38 39
f 23 39 24
f 23 32 36
f 24 39 40
f 24 40 35
f 25 26 41
f 26 42 41
f 27 43 28
f 28 44 29
f 28 43 44
f 29 44 45
f 29 45 46
f 30 47 48
f 30 48 31
f 31 48 32
f 32 49 50
f 32 50 51
f 32 51 52
f 32 52 53
f 32 53 54
f 32 54 55
f 32 55 36
f 32 48 49
f 33 56 57
f 33 57 34
f 33 35 40
f 33 40 56
f 36 55 37
f 37 55 58
f 37 58 38
f 38 58 40
f 38 40 39
f 40 58 59
f 40 59 60
f 40 60 61
f 40 61 56
f 41 42 63
f 41 63 62
f 43 64 51
f 43 51 44
f 44 51 45
f 45 51 50
f 45 50 65
f 45 65 66
f 45 66 46
f 47 67 48
f 48 67 68
f 48 68 49
f 49 68 69
f 49 69 70
f 49 70 71
f 49 71 72
f 49 72 73
f 49 73 74
f 49 74 50
f 50 74 75
f 50 75 76
f 50 76 65
f 51 64 77
f 51 77 78
f 51 78 79
f 51 79 52
f 52 80 53
f 52 79 80
f 53 80 81
f 53 81 55
f 53 55 54
f 55 59 58
f 55 81 59
f 56 61 82
f 56 82 83
f 56 83 57
f 59 84 60
f 59 81 85
f 59 85 86
f 59 86 87
f 59 87 88
f 59 88 84
f 60 84 61
f 61 84 89
f 61 89 82
f 62 63 91
f 62 91 90
f 64 92 93
f 64 93 77
f 72 94 73
f 73 94 75
f 73 75 74
f 77 95 78
f 77 93 95
f 78 95 93
f 78 93 96
f 78 96 97
f 78 97 80
f 78 80 79
f 80 97 86
f 80 86 85
f 80 85 81
f 82 98 83
f 82 89 98
f 84 88 99
f 84 99 89
f 86 97 87
f 87 97 100
f 87 100 101
f 87 101 102
f 87 102 103
f 87 103 88
f 88 103 99
f 89 104 98
f 89 99 104
f 90 105 102
f 90 91 106
f 90 106 105
f 92 107 96
f 92 96 93
f 96 100 97
f 96 107 108
f 96 108 100
f 98 104 109
f 99 103 105
f 99 105 104
f 100 108 110
f 100 110 101
f 101 110 108
f 102 105 103
f 104 106 109
f 104 105 106
