v -0.446174 -0.198668 -0.00761377
v -0.446233 -0.19862 -0.00800823
v -0.448013 -0.19862 -0.00761377
v -0.449496 -0.204666 -0.00761377
v -0.465089 -0.221267 -0.231473
v -0.46501 -0.221124 -0.231473
v -0.461361 -0.213273 -0.231473
v -0.458632 -0.198639 -0.231473
v -0.460501 -0.19862 -0.217075
v -0.527452 -0.19862 -0.00761377
v -0.457485 -0.213646 -0.00761377
v -0.465227 -0.22143 -0.231473
v -0.540138 -0.19862 -0.231473
v -0.527482 -0.19919 -0.00761377
v -0.528352 -0.19862 -0.011164
v -0.465742 -0.221444 -0.00761377
v -0.473078 -0.228759 -0.231473
v -0.54174 -0.19862 -0.231473
v -0.527511 -0.199793 -0.00761377
v -0.531595 -0.19862 -0.0239841
v -0.465949 -0.221631 -0.00761377
v -0.48354 -0.236863 -0.231473
v -0.473899 -0.228682 -0.00761377
v -0.54174 -0.199793 -0.231473
v -0.543035 -0.19862 -0.21999
v -0.527314 -0.204273 -0.00761377
v -0.52853 -0.199793 -0.0116461
v -0.528302 -0.209793 -0.0124788
v -0.531644 -0.199793 -0.0239841
v -0.535145 -0.19862 -0.0387985
v -0.535481 -0.199793 -0.03996
v -0.491391 -0.242708 -0.231473
v -0.48708 -0.23592 -0.00761377
v -0.540909 -0.215389 -0.231473
v -0.543797 -0.21052 -0.210852
v -0.543035 -0.199793 -0.21999
v -0.54526 -0.199793 -0.199785
v -0.54524 -0.19862 -0.199785
v -0.523942 -0.215255 -0.00761377
v -0.531625 -0.217126 -0.0388424
v -0.527185 -0.223349 -0.03275
v -0.536084 -0.215777 -0.0559578
v -0.535422 -0.19862 -0.03996
v -0.538398 -0.19862 -0.0547744
v -0.538694 -0.199793 -0.0559578
v -0.503464 -0.247519 -0.231473
v -0.487495 -0.236092 -0.00761377
v -0.54088 -0.215777 -0.231473
v -0.544291 -0.21582 -0.198514
v -0.546605 -0.199793 -0.183787
v -0.542501 -0.21582 -0.216002
v -0.545339 -0.19862 -0.198601
v -0.523882 -0.215365 -0.00761377
v -0.528718 -0.225202 -0.0434006
v -0.51529 -0.2275 -0.00800823
v -0.515221 -0.227438 -0.00761377
v -0.525771 -0.22097 -0.0239841
v -0.543915 -0.20985 -0.0911749
v -0.539021 -0.215777 -0.0719337
v -0.542452 -0.220535 -0.103907
v -0.530211 -0.226777 -0.0559578
v -0.538635 -0.19862 -0.0559578
v -0.541196 -0.19862 -0.0707503
v -0.541453 -0.199793 -0.0719337
v -0.519453 -0.246073 -0.215761
v -0.519453 -0.245125 -0.231473
v -0.503464 -0.246739 -0.199785
v -0.519453 -0.24625 -0.199785
v -0.503068 -0.234944 -0.00761377
v -0.503464 -0.237284 -0.0239841
v -0.508467 -0.239702 -0.0483095
v -0.503266 -0.239099 -0.0410996
v -0.497808 -0.239778 -0.04717
v -0.495435 -0.239778 -0.04717
v -0.534433 -0.231468 -0.231473
v -0.543025 -0.221176 -0.203006
v -0.54347 -0.223838 -0.192356
v -0.5453 -0.215777 -0.183787
v -0.54706 -0.199793 -0.167811
v -0.54704 -0.19862 -0.167811
v -0.546615 -0.19862 -0.182625
v -0.546575 -0.19862 -0.183787
v -0.521964 -0.218046 -0.00761377
v -0.520896 -0.230482 -0.0388424
v -0.517782 -0.229558 -0.0239841
v -0.526681 -0.239304 -0.0987355
v -0.503464 -0.234915 -0.00800823
v -0.503503 -0.2348 -0.00761377
v -0.515053 -0.227552 -0.00761377
v -0.544429 -0.212541 -0.103907
v -0.543154 -0.222718 -0.114426
v -0.541611 -0.215417 -0.0866604
v -0.543124 -0.199793 -0.0821679
v -0.544103 -0.199793 -0.0901449
v -0.545349 -0.199793 -0.103907
v -0.546437 -0.199793 -0.119861
v -0.531793 -0.228495 -0.0719337
v -0.541394 -0.19862 -0.0719337
v -0.543095 -0.19862 -0.0823213
v -0.528945 -0.241176 -0.215761
v -0.52937 -0.241506 -0.199785
v -0.528025 -0.240315 -0.231473
v -0.505333 -0.24198 -0.0879096
v -0.516961 -0.24198 -0.0879096
v -0.519453 -0.245623 -0.183787
v -0.528243 -0.240358 -0.119861
v -0.529172 -0.241147 -0.167811
v -0.5294 -0.24142 -0.183787
v -0.51264 -0.240319 -0.0589601
v -0.51442 -0.24109 -0.0719337
v -0.534314 -0.231755 -0.231473
v -0.543599 -0.224034 -0.183787
v -0.535985 -0.231755 -0.215761
v -0.538339 -0.2302 -0.198514
v -0.545596 -0.215777 -0.167811
v -0.547188 -0.199793 -0.151835
v -0.54706 -0.19862 -0.166628
v -0.518563 -0.235738 -0.0545553
v -0.533217 -0.230228 -0.0879096
v -0.527808 -0.240042 -0.109408
v -0.544815 -0.216743 -0.119796
v -0.543678 -0.224139 -0.125077
v -0.544093 -0.19862 -0.0903202
v -0.545329 -0.19862 -0.103907
v -0.546338 -0.19862 -0.1187
v -0.546417 -0.19862 -0.119861
v -0.547109 -0.199793 -0.135837
v -0.528154 -0.240147 -0.231473
v -0.537399 -0.232023 -0.183787
v -0.52059 -0.241942 -0.103995
v -0.537162 -0.232191 -0.167811
v -0.543698 -0.224197 -0.167811
v -0.545092 -0.21728 -0.136955
v -0.547168 -0.19862 -0.151835
v -0.533276 -0.233091 -0.103995
v -0.547089 -0.19862 -0.135837
f 1 2 3
f 1 3 10
f 1 10 14
f 1 14 19
f 1 19 26
f 1 26 39
f 1 39 53
f 1 53 83
f 1 83 56
f 1 56 89
f 1 89 88
f 1 88 69
f 1 69 47
f 1 47 33
f 1 33 23
f 1 23 21
f 1 21 16
f 1 16 11
f 1 11 4
f 1 4 5
f 1 5 6
f 1 6 7
f 1 7 8
f 1 8 2
f 2 8 9
f 2 9 13
f 2 13 18
f 2 18 25
f 2 25 38
f 2 38 52
f 2 52 82
f 2 82 81
f 2 81 80
f 2 80 117
f 2 117 134
f 2 134 136
f 2 136 126
f 2 126 125
f 2 125 124
f 2 124 123
f 2 123 99
f 2 99 98
f 2 98 63
f 2 63 62
f 2 62 44
f 2 44 43
f 2 43 30
f 2 30 20
f 2 20 15
f 2 15 10
f 2 10 3
f 4 11 12
f 4 12 5
f 5 12 17
f 5 17 22
f 5 22 32
f 5 32 46
f 5 46 66
f 5 66 102
f 5 102 128
f 5 128 111
f 5 111 75
f 5 75 48
f 5 48 34
f 5 34 24
f 5 24 18
f 5 18 13
f 5 13 8
f 5 8 7
f 5 7 6
f 8 13 9
f 10 15 14
f 11 16 12
f 12 16 17
f 14 15 19
f 15 20 19
f 16 21 17
f 17 21 23
f 17 23 22
f 18 24 36
f 18 36 25
f 19 20 27
f 19 27 28
f 19 28 26
f 20 29 27
f 20 30 31
f 20 31 29
f 22 23 32
f 23 33 32
f 24 34 35
f 24 35 36
f 25 37 38
f 25 36 37
f 26 28 39
f 27 29 28
f 28 40 41
f 28 41 39
f 28 29 31
f 28 31 42
f 28 42 40
f 30 43 31
f 31 43 44
f 31 44 45
f 31 45 42
f 32 33 47
f 32 47 46
f 34 48 35
f 35 49 50
f 35 50 37
f 35 37 36
f 35 48 51
f 35 51 49
f 37 50 38
f 38 50 52
f 39 41 53
f 40 54 41
f 40 42 54
f 41 54 55
f 41 55 56
f 41 56 57
f 41 57 53
f 42 45 58
f 42 58 59
f 42 59 60
f 42 60 61
f 42 61 54
f 44 62 45
f 45 62 63
f 45 63 64
f 45 64 58
f 46 65 66
f 46 47 67
f 46 67 68
f 46 68 65
f 47 69 70
f 47 70 71
f 47 71 72
f 47 72 73
f 47 73 74
f 47 74 67
f 48 75 76
f 48 76 51
f 49 77 78
f 49 78 50
f 49 51 76
f 49 76 77
f 50 78 79
f 50 79 80
f 50 80 81
f 50 81 82
f 50 82 52
f 53 57 83
f 54 84 85
f 54 85 55
f 54 61 86
f 54 86 84
f 55 85 87
f 55 87 88
f 55 88 89
f 55 89 56
f 56 83 57
f 58 90 91
f 58 91 60
f 58 60 92
f 58 92 59
f 58 64 93
f 58 93 94
f 58 94 95
f 58 95 96
f 58 96 90
f 59 92 60
f 60 91 61
f 61 91 97
f 61 97 86
f 63 98 64
f 64 98 99
f 64 99 93
f 65 100 66
f 65 68 101
f 65 101 100
f 66 100 102
f 67 74 103
f 67 103 104
f 67 104 68
f 68 104 105
f 68 105 106
f 68 106 107
f 68 107 108
f 68 108 101
f 69 88 87
f 69 87 70
f 70 87 109
f 70 109 71
f 71 73 72
f 71 109 73
f 73 109 110
f 73 110 104
f 73 104 103
f 73 103 74
f 75 111 76
f 76 111 77
f 77 112 78
f 77 111 113
f 77 113 114
f 77 114 112
f 78 112 115
f 78 115 79
f 79 115 116
f 79 116 117
f 79 117 80
f 84 86 118
f 84 118 85
f 85 118 87
f 86 119 120
f 86 120 104
f 86 104 109
f 86 109 118
f 86 97 119
f 87 118 109
f 90 96 121
f 90 121 91
f 91 119 97
f 91 121 122
f 91 122 119
f 93 99 123
f 93 123 94
f 94 123 124
f 94 124 95
f 95 124 125
f 95 125 96
f 96 125 126
f 96 126 136
f 96 136 127
f 96 127 121
f 100 101 114
f 100 114 113
f 100 113 128
f 100 128 102
f 101 108 129
f 101 129 114
f 104 110 109
f 104 120 130
f 104 130 105
f 105 130 106
f 106 122 107
f 106 130 120
f 106 120 122
f 107 122 108
f 108 122 131
f 108 131 129
f 111 128 113
f 112 114 129
f 112 129 132
f 112 132 115
f 115 132 122
f 115 122 133
f 115 133 127
f 115 127 116
f 116 127 136
f 116 136 134
f 116 134 117
f 119 122 135
f 119 135 120
f 120 135 122
f 121 127 133
f 121 133 122
f 122 132 129
f 122 129 131
