v -0.0720575 -0.231758 -0.693695
v -0.0731195 -0.198622 -0.692878
v -0.0720575 -0.198622 -0.693014
v -0.0720575 -0.247623 -0.69162
v -0.103898 -0.242631 -0.688269
v -0.112492 -0.240076 -0.687368
v -0.0879089 -0.231758 -0.691382
v -0.0879089 -0.198622 -0.69065
v -0.0720575 -0.198622 -0.562269
v -0.0720575 -0.24774 -0.691603
v -0.0911736 -0.253911 -0.686483
v -0.103898 -0.250622 -0.685309
v -0.118648 -0.246335 -0.683898
v -0.0866699 -0.248249 -0.689392
v -0.112492 -0.238257 -0.687368
v -0.135876 -0.24774 -0.679424
v -0.164629 -0.243628 -0.67274
v -0.135876 -0.231758 -0.681806
v -0.10203 -0.198622 -0.688303
v -0.0891676 -0.198622 -0.690446
v -0.272954 -0.198622 -0.519934
v -0.272954 -0.243402 -0.53912
v -0.0720575 -0.253984 -0.62549
v -0.0720575 -0.256305 -0.68781
v -0.0805142 -0.255832 -0.687368
v -0.135876 -0.25827 -0.67371
v -0.146988 -0.256829 -0.67223
v -0.119789 -0.198622 -0.684731
v -0.109936 -0.198622 -0.686942
v -0.121067 -0.198622 -0.684442
v -0.157628 -0.254282 -0.670478
v -0.152121 -0.248467 -0.674543
v -0.165534 -0.231758 -0.67308
v -0.151846 -0.231758 -0.677281
v -0.169113 -0.248467 -0.668981
v -0.210709 -0.242361 -0.656429
v -0.183804 -0.231758 -0.66694
v -0.173499 -0.231758 -0.670529
v -0.151846 -0.198622 -0.676652
v -0.137037 -0.198622 -0.680564
v -0.135876 -0.198622 -0.68087
v -0.272954 -0.198622 -0.626579
v -0.272954 -0.251378 -0.548288
v -0.0720575 -0.260505 -0.633416
v -0.0866699 -0.261523 -0.680394
v -0.0720575 -0.26394 -0.67939
v -0.103898 -0.261713 -0.677315
v -0.119887 -0.260097 -0.675615
v -0.135876 -0.266261 -0.664185
v -0.1439 -0.27172 -0.655323
v -0.150764 -0.263554 -0.662892
v -0.167835 -0.260417 -0.660528
v -0.183804 -0.257848 -0.6575
v -0.193048 -0.256196 -0.655765
v -0.203707 -0.253016 -0.653503
v -0.198948 -0.247703 -0.658164
v -0.165337 -0.198622 -0.672655
v -0.164747 -0.198622 -0.672842
v -0.183804 -0.198622 -0.66677
v -0.172712 -0.198622 -0.670308
v -0.152888 -0.198622 -0.676346
v -0.21592 -0.247703 -0.651037
v -0.243257 -0.242914 -0.641087
v -0.231752 -0.231758 -0.647754
v -0.219441 -0.231758 -0.653418
v -0.211456 -0.231758 -0.656803
v -0.199774 -0.231758 -0.661208
v -0.199774 -0.198622 -0.661242
v -0.272954 -0.231758 -0.627055
v -0.264576 -0.198622 -0.631222
v -0.272954 -0.25747 -0.556078
v -0.0720575 -0.260563 -0.633501
v -0.0720575 -0.264027 -0.679288
v -0.0879089 -0.27089 -0.668675
v -0.103898 -0.269704 -0.666991
v -0.119887 -0.268088 -0.665749
v -0.135876 -0.272185 -0.656191
v -0.177629 -0.272018 -0.639981
v -0.183293 -0.266581 -0.646104
v -0.198948 -0.260497 -0.647822
v -0.215763 -0.258481 -0.642703
v -0.225675 -0.256531 -0.640305
v -0.236334 -0.253569 -0.637583
v -0.2313 -0.248038 -0.643587
v -0.26316 -0.247871 -0.627548
v -0.272954 -0.243373 -0.625371
v -0.263711 -0.231758 -0.632055
v -0.25252 -0.231758 -0.637753
v -0.244516 -0.231758 -0.641648
v -0.231752 -0.198622 -0.647482
v -0.220109 -0.198622 -0.652874
v -0.219224 -0.198622 -0.653282
v -0.244241 -0.198622 -0.641512
v -0.21183 -0.198622 -0.656548
v -0.21124 -0.198622 -0.656786
v -0.200659 -0.198622 -0.660902
v -0.263711 -0.198622 -0.631681
v -0.272954 -0.259355 -0.56101
v -0.0720575 -0.272549 -0.653384
v -0.0720575 -0.268517 -0.64539
v -0.0720575 -0.27145 -0.66973
v -0.119887 -0.272826 -0.657755
v -0.167835 -0.272163 -0.640679
v -0.193343 -0.271792 -0.623959
v -0.263711 -0.267135 -0.599382
v -0.247722 -0.265446 -0.615353
v -0.215763 -0.265686 -0.631324
v -0.2313 -0.260599 -0.631885
v -0.247722 -0.258481 -0.626732
v -0.257457 -0.256538 -0.624282
v -0.268116 -0.253285 -0.621323
v -0.272954 -0.245287 -0.624095
v -0.252245 -0.198622 -0.637634
v -0.272954 -0.26156 -0.567218
v -0.0879089 -0.27284 -0.652432
v -0.0720575 -0.272549 -0.661735
v -0.263711 -0.265541 -0.583394
v -0.191061 -0.271792 -0.623143
v -0.0879089 -0.27284 -0.660681
v -0.103898 -0.272964 -0.658997
v -0.119887 -0.272826 -0.650272
v -0.167835 -0.272163 -0.636937
v -0.193343 -0.271792 -0.623143
v -0.247722 -0.268088 -0.599382
v -0.272954 -0.266094 -0.583394
v -0.272954 -0.264362 -0.600198
v -0.26316 -0.26033 -0.615744
v -0.272954 -0.258845 -0.612138
v -0.272954 -0.251742 -0.619418
v -0.103898 -0.272964 -0.6517
f 1 2 3
f 1 3 9
f 1 9 23
f 1 23 44
f 1 44 72
f 1 72 100
f 1 100 99
f 1 99 116
f 1 116 101
f 1 101 73
f 1 73 46
f 1 46 24
f 1 24 10
f 1 10 4
f 1 4 5
f 1 5 6
f 1 6 7
f 1 7 2
f 2 7 8
f 2 8 20
f 2 20 19
f 2 19 29
f 2 29 28
f 2 28 30
f 2 30 41
f 2 41 40
f 2 40 39
f 2 39 61
f 2 61 58
f 2 58 57
f 2 57 60
f 2 60 59
f 2 59 68
f 2 68 96
f 2 96 95
f 2 95 94
f 2 94 92
f 2 92 91
f 2 91 90
f 2 90 93
f 2 93 113
f 2 113 97
f 2 97 70
f 2 70 42
f 2 42 21
f 2 21 9
f 2 9 3
f 4 10 5
f 5 11 12
f 5 12 13
f 5 13 6
f 5 10 14
f 5 14 11
f 6 15 7
f 6 13 16
f 6 16 17
f 6 17 18
f 6 18 15
f 7 15 19
f 7 19 20
f 7 20 8
f 9 21 22
f 9 22 23
f 10 24 25
f 10 25 14
f 11 14 25
f 11 25 26
f 11 26 27
f 11 27 12
f 12 27 16
f 12 16 13
f 15 28 29
f 15 29 19
f 15 18 30
f 15 30 28
f 16 27 31
f 16 31 32
f 16 32 17
f 17 33 34
f 17 34 18
f 17 32 31
f 17 31 35
f 17 35 36
f 17 36 37
f 17 37 38
f 17 38 33
f 18 34 39
f 18 39 40
f 18 40 41
f 18 41 30
f 21 42 69
f 21 69 86
f 21 86 112
f 21 112 129
f 21 129 128
f 21 128 126
f 21 126 125
f 21 125 114
f 21 114 98
f 21 98 71
f 21 71 43
f 21 43 22
f 22 43 23
f 23 43 44
f 24 45 25
f 24 46 45
f 25 45 47
f 25 47 48
f 25 48 26
f 26 48 49
f 26 49 27
f 27 49 50
f 27 50 51
f 27 51 52
f 27 52 53
f 27 53 54
f 27 54 31
f 31 54 55
f 31 55 56
f 31 56 36
f 31 36 35
f 33 57 58
f 33 58 34
f 33 38 59
f 33 59 60
f 33 60 57
f 34 58 61
f 34 61 39
f 36 56 55
f 36 55 62
f 36 62 63
f 36 63 64
f 36 64 65
f 36 65 66
f 36 66 67
f 36 67 37
f 37 67 68
f 37 68 38
f 38 68 59
f 42 70 69
f 43 71 44
f 44 71 72
f 45 46 73
f 45 73 74
f 45 74 47
f 47 74 75
f 47 75 76
f 47 76 48
f 48 76 49
f 49 76 50
f 50 76 75
f 50 75 74
f 50 74 77
f 50 77 78
f 50 78 79
f 50 79 80
f 50 80 53
f 50 53 52
f 50 52 51
f 53 80 54
f 54 80 81
f 54 81 82
f 54 82 55
f 55 82 83
f 55 83 84
f 55 84 62
f 62 84 63
f 63 84 83
f 63 83 85
f 63 85 86
f 63 86 87
f 63 87 88
f 63 88 89
f 63 89 64
f 64 90 91
f 64 91 92
f 64 92 65
f 64 89 93
f 64 93 90
f 65 92 94
f 65 94 66
f 66 94 95
f 66 95 96
f 66 96 68
f 66 68 67
f 69 70 87
f 69 87 86
f 70 97 87
f 71 98 99
f 71 99 100
f 71 100 72
f 73 101 74
f 74 101 102
f 74 102 77
f 77 102 78
f 78 102 103
f 78 103 104
f 78 104 105
f 78 105 106
f 78 106 107
f 78 107 79
f 79 107 108
f 79 108 80
f 80 108 81
f 81 108 109
f 81 109 82
f 82 109 110
f 82 110 83
f 83 110 111
f 83 111 85
f 85 111 86
f 86 111 112
f 87 97 113
f 87 113 88
f 88 113 89
f 89 113 93
f 98 114 99
f 99 115 119
f 99 119 116
f 99 114 117
f 99 117 118
f 99 118 115
f 101 116 119
f 101 119 120
f 101 120 102
f 102 121 122
f 102 122 103
f 102 120 130
f 102 130 121
f 103 122 123
f 103 123 104
f 104 123 105
f 105 123 124
f 105 124 125
f 105 125 126
f 105 126 106
f 106 126 127
f 106 127 108
f 106 108 107
f 108 127 109
f 109 127 110
f 110 127 128
f 110 128 111
f 111 128 129
f 111 129 112
f 114 125 117
f 115 130 120
f 115 120 119
f 115 118 130
f 117 125 118
f 118 125 123
f 118 123 130
f 121 130 123
f 121 123 122
f 123 125 124
f 126 128 127
