v -0.0793687 0.240355 0.232344
v -0.0793687 0.240151 0.220369
v -0.135874 0.240034 0.205115
v -0.151885 0.239979 0.207847
v -0.161934 0.239875 0.207073
v -0.0894925 0.240169 0.2333
v -0.0998788 0.239675 0.238536
v -0.085143 0.239057 0.245776
v -0.0836432 0.234985 0.263671
v -0.0836432 0.228943 0.280882
v -0.0806811 0.206874 0.321042
v -0.0793687 0.206867 -0.144121
v -0.119939 0.239927 0.206755
v -0.40753 0.219849 -0.139978
v -0.40753 0.220992 -0.119852
v -0.183831 0.238712 0.18376
v -0.167521 0.238657 0.214768
v -0.151885 0.239292 0.219458
v -0.140411 0.239682 0.222327
v -0.215815 0.237636 0.167778
v -0.199842 0.238436 0.18376
v -0.231788 0.237121 0.167778
v -0.215815 0.237518 0.18376
v -0.199842 0.237415 0.199742
v -0.103928 0.237753 0.247689
v -0.135387 0.238626 0.230249
v -0.103928 0.23347 0.263671
v -0.104978 0.226941 0.28111
v -0.0836432 0.223062 0.294405
v -0.0832308 0.212599 0.312436
v -0.103928 0.211816 0.309477
v -0.0913298 0.206104 0.319995
v -0.455786 0.2051 -0.0381664
v -0.458374 0.205179 -0.0528735
v -0.462348 0.205856 -0.119852
v -0.456386 0.208327 -0.137883
v -0.439513 0.214342 -0.139978
v -0.423503 0.217996 -0.139978
v -0.103928 0.205559 0.317991
v -0.116339 0.2051 0.315578
v -0.40753 0.22163 -0.103825
v -0.399093 0.223746 -0.0631639
v -0.375546 0.227217 -0.00793265
v -0.3436 0.230026 0.0400134
v -0.183831 0.236769 0.215724
v -0.151885 0.237108 0.231707
v -0.327589 0.231759 0.0719319
v -0.247761 0.236431 0.151796
v -0.247761 0.235796 0.167778
v -0.263772 0.235375 0.151796
v -0.231788 0.235962 0.18376
v -0.215815 0.235589 0.199742
v -0.119939 0.236497 0.247689
v -0.119939 0.231869 0.263671
v -0.115477 0.223283 0.286665
v -0.102653 0.222417 0.291764
v -0.119939 0.226506 0.277922
v -0.119939 0.217755 0.295635
v -0.119939 0.210601 0.30761
v -0.392681 0.2051 0.121062
v -0.443188 0.205273 0.0115554
v -0.450762 0.205742 -0.0185873
v -0.444538 0.209407 -0.0255538
v -0.450462 0.209162 -0.0558787
v -0.460698 0.205587 -0.0719062
v -0.462386 0.205863 -0.103825
v -0.452937 0.210218 -0.103825
v -0.452862 0.210138 -0.119852
v -0.439513 0.214804 -0.119852
v -0.423503 0.219166 -0.103825
v -0.423503 0.21868 -0.119852
v -0.135874 0.207088 0.307883
v -0.146223 0.206577 0.305379
v -0.15571 0.2055 0.303557
v -0.166396 0.2051 0.300142
v -0.40753 0.222155 -0.0878883
v -0.400143 0.223887 -0.0525093
v -0.375546 0.227469 0.00804937
v -0.3436 0.230616 0.0559954
v -0.199842 0.234585 0.215724
v -0.167858 0.235358 0.231707
v -0.135874 0.234802 0.247689
v -0.311654 0.232797 0.10385
v -0.295643 0.233771 0.119832
v -0.27967 0.234623 0.135814
v -0.27967 0.233453 0.151796
v -0.263772 0.233774 0.167778
v -0.247761 0.233743 0.18376
v -0.231788 0.233284 0.199742
v -0.151885 0.232991 0.247689
v -0.135874 0.229968 0.263671
v -0.135874 0.225564 0.275464
v -0.135874 0.221592 0.283477
v -0.135874 0.21489 0.295635
v -0.150948 0.211488 0.296363
v -0.357623 0.2051 0.166048
v -0.37967 0.205242 0.139002
v -0.385107 0.206518 0.12944
v -0.399581 0.205928 0.107038
v -0.411242 0.205304 0.0882782
v -0.431189 0.205921 0.0418347
v -0.435314 0.206608 0.0270366
v -0.435576 0.209686 0.00804937
v -0.447612 0.206063 -0.00793265
v -0.437976 0.210591 -0.00793265
v -0.423503 0.216409 -0.00793265
v -0.439513 0.212433 -0.0398967
v -0.451812 0.209714 -0.0719062
v -0.461936 0.205801 -0.0878883
v -0.452637 0.210087 -0.0878883
v -0.439513 0.215053 -0.103825
v -0.439513 0.214873 -0.0878883
v -0.423503 0.219397 -0.0878883
v -0.40753 0.222431 -0.0719062
v -0.167858 0.210511 0.291855
v -0.179744 0.208948 0.289397
v -0.188856 0.206222 0.289123
v -0.203066 0.205197 0.28416
v -0.262422 0.2051 0.250694
v -0.400555 0.223987 -0.0398967
v -0.375546 0.227021 0.0239859
v -0.35961 0.228646 0.0559954
v -0.35961 0.229012 0.0400134
v -0.392681 0.224981 -0.00911649
v -0.3436 0.23043 0.0719319
v -0.215815 0.232176 0.215724
v -0.183831 0.233167 0.231707
v -0.167858 0.230906 0.247689
v -0.327589 0.230558 0.10385
v -0.311654 0.23171 0.119832
v -0.295643 0.232621 0.135814
v -0.295643 0.230482 0.151796
v -0.27967 0.230855 0.167778
v -0.263772 0.230855 0.18376
v -0.247761 0.230389 0.199742
v -0.152972 0.227031 0.265037
v -0.150685 0.222724 0.276283
v -0.163434 0.223121 0.270273
v -0.167858 0.217389 0.279653
v -0.348999 0.205266 0.175474
v -0.353986 0.209038 0.162542
v -0.364485 0.205217 0.157852
v -0.330214 0.2051 0.195553
v -0.368947 0.208492 0.145467
v -0.38627 0.209027 0.119832
v -0.400443 0.208227 0.0975213
v -0.403068 0.209479 0.0879594
v -0.416416 0.20608 0.0754835
v -0.422753 0.207298 0.0564052
v -0.423915 0.210207 0.0384198
v -0.423503 0.214832 0.00804937
v -0.423503 0.212578 0.0239859
v -0.40753 0.218873 0.0239859
v -0.40753 0.220381 0.00804937
v -0.423503 0.217403 -0.0239602
v -0.439513 0.214183 -0.0719062
v -0.423503 0.218086 -0.0398967
v -0.423503 0.219094 -0.0719062
v -0.408542 0.222186 -0.0398967
v -0.184581 0.212571 0.280882
v -0.199842 0.210963 0.27683
v -0.212403 0.209214 0.273915
v -0.221627 0.205711 0.274371
v -0.233813 0.205266 0.268133
v -0.252073 0.205942 0.255976
v -0.263772 0.209514 0.242771
v -0.273408 0.20656 0.241314
v -0.283907 0.205214 0.235713
v -0.404155 0.222938 -0.0239602
v -0.393394 0.224222 0.00804937
v -0.375546 0.226361 0.0400134
v -0.375958 0.22525 0.0548571
v -0.35961 0.227404 0.0719319
v -0.401043 0.223266 -0.0110744
v -0.3436 0.229164 0.0879594
v -0.231788 0.229205 0.215724
v -0.199842 0.230513 0.231707
v -0.185294 0.227317 0.249191
v -0.167858 0.226096 0.261303
v -0.327589 0.228663 0.119832
v -0.311654 0.229598 0.135814
v -0.327814 0.225771 0.135723
v -0.32264 0.224657 0.147698
v -0.315478 0.224843 0.155439
v -0.307754 0.224909 0.163681
v -0.296318 0.226586 0.168553
v -0.280345 0.226582 0.184398
v -0.266959 0.224805 0.203112
v -0.247049 0.22582 0.215633
v -0.183081 0.223159 0.260848
v -0.199842 0.217955 0.263671
v -0.336551 0.2055 0.188405
v -0.3436 0.216599 0.151796
v -0.359423 0.21058 0.151205
v -0.3385 0.2092 0.178888
v -0.343712 0.211305 0.167824
v -0.30258 0.205252 0.220824
v -0.31949 0.205473 0.205115
v -0.322715 0.209193 0.194734
v -0.35961 0.214997 0.135814
v -0.375546 0.213348 0.119832
v -0.375546 0.217316 0.10385
v -0.391556 0.21458 0.0879594
v -0.391931 0.210656 0.103258
v -0.408242 0.210994 0.0717498
v -0.416641 0.208334 0.0662858
v -0.40753 0.217002 0.0400134
v -0.40753 0.214532 0.0559954
v -0.393169 0.221968 0.0400134
v -0.391369 0.223715 0.0239859
v -0.216977 0.212744 0.265037
v -0.231788 0.210635 0.26062
v -0.242549 0.208803 0.257341
v -0.247799 0.211788 0.248326
v -0.231788 0.217134 0.247689
v -0.263772 0.214704 0.231707
v -0.278357 0.210073 0.231069
v -0.289756 0.208665 0.225332
v -0.384545 0.224018 0.0443846
v -0.381545 0.223159 0.0594104
v -0.374608 0.223476 0.0719319
v -0.368309 0.223977 0.0813572
v -0.359985 0.225461 0.0871854
v -0.3436 0.227279 0.10385
v -0.231788 0.225333 0.228018
v -0.219827 0.225216 0.235987
v -0.199842 0.225971 0.245366
v -0.195717 0.223231 0.254427
v -0.343112 0.22516 0.118649
v -0.327814 0.221841 0.152525
v -0.333288 0.223031 0.141005
v -0.312516 0.222093 0.168553
v -0.286157 0.223311 0.190135
v -0.277945 0.223363 0.197785
v -0.261634 0.222935 0.212901
v -0.251923 0.222672 0.22087
v -0.214503 0.223042 0.244774
v -0.327589 0.217461 0.167778
v -0.3403 0.222707 0.133037
v -0.358335 0.220088 0.118649
v -0.327852 0.211464 0.184034
v -0.306517 0.209089 0.210352
v -0.311766 0.211402 0.199925
v -0.362497 0.222051 0.10385
v -0.374384 0.221102 0.0871854
v -0.391556 0.217907 0.0719319
v -0.390169 0.221075 0.0548571
v -0.231788 0.222279 0.236032
v -0.244162 0.222144 0.227745
v -0.27967 0.216378 0.215724
v -0.295343 0.21097 0.215724
v -0.365572 0.223166 0.0919663
v -0.353311 0.224294 0.108176
v -0.311654 0.217492 0.18376
v -0.296318 0.222037 0.184398
v -0.295643 0.217254 0.199742
f 1 2 3
f 1 3 4
f 1 4 5
f 1 5 6
f 1 6 7
f 1 7 8
f 1 8 9
f 1 9 10
f 1 10 11
f 1 11 12
f 1 12 2
f 2 13 3
f 2 12 14
f 2 14 13
f 3 5 4
f 3 13 14
f 3 14 15
f 3 15 16
f 3 16 5
f 5 17 18
f 5 18 19
f 5 19 6
f 5 16 20
f 5 20 21
f 5 21 22
f 5 22 23
f 5 23 24
f 5 24 17
f 6 19 7
f 7 25 8
f 7 19 26
f 7 26 25
f 8 25 9
f 9 25 27
f 9 27 10
f 10 28 29
f 10 29 11
f 10 27 28
f 11 29 30
f 11 30 31
f 11 31 32
f 11 32 12
f 12 33 34
f 12 34 35
f 12 35 36
f 12 36 37
f 12 37 38
f 12 38 14
f 12 32 39
f 12 39 40
f 12 40 33
f 14 38 15
f 15 38 41
f 15 41 42
f 15 42 43
f 15 43 44
f 15 44 16
f 16 44 20
f 17 24 45
f 17 45 46
f 17 46 18
f 18 46 19
f 19 46 26
f 20 44 47
f 20 47 48
f 20 48 21
f 21 48 22
f 22 49 23
f 22 48 50
f 22 50 49
f 23 49 51
f 23 51 24
f 24 51 52
f 24 52 45
f 25 26 46
f 25 46 53
f 25 53 27
f 27 53 54
f 27 54 28
f 28 55 56
f 28 56 29
f 28 54 57
f 28 57 55
f 29 56 30
f 30 56 31
f 31 58 59
f 31 59 39
f 31 39 32
f 31 56 58
f 33 60 61
f 33 61 62
f 33 62 63
f 33 63 34
f 33 40 75
f 33 75 119
f 33 119 143
f 33 143 96
f 33 96 60
f 34 63 64
f 34 64 65
f 34 65 66
f 34 66 35
f 35 66 67
f 35 67 68
f 35 68 36
f 36 68 37
f 37 68 69
f 37 69 70
f 37 70 71
f 37 71 38
f 38 71 41
f 39 59 40
f 40 59 72
f 40 72 73
f 40 73 74
f 40 74 75
f 41 71 76
f 41 76 42
f 42 76 77
f 42 77 43
f 43 77 78
f 43 78 79
f 43 79 47
f 43 47 44
f 45 80 81
f 45 81 46
f 45 52 80
f 46 81 82
f 46 82 53
f 47 79 83
f 47 83 84
f 47 84 48
f 48 84 85
f 48 85 50
f 49 50 86
f 49 86 87
f 49 87 51
f 50 85 86
f 51 88 52
f 51 87 88
f 52 88 89
f 52 89 80
f 53 82 54
f 54 82 90
f 54 90 91
f 54 91 92
f 54 92 57
f 55 57 92
f 55 92 93
f 55 93 58
f 55 58 56
f 58 94 59
f 58 93 94
f 59 94 95
f 59 95 73
f 59 73 72
f 60 96 97
f 60 97 98
f 60 98 99
f 60 99 100
f 60 100 61
f 61 101 102
f 61 102 103
f 61 103 104
f 61 104 62
f 61 100 101
f 62 104 105
f 62 105 63
f 63 105 106
f 63 106 107
f 63 107 64
f 64 107 108
f 64 108 65
f 65 108 109
f 65 109 66
f 66 109 110
f 66 110 67
f 67 111 68
f 67 110 112
f 67 112 111
f 68 111 69
f 69 111 70
f 70 111 113
f 70 113 114
f 70 114 76
f 70 76 71
f 73 95 115
f 73 115 74
f 74 115 75
f 75 115 116
f 75 116 117
f 75 117 118
f 75 118 119
f 76 114 77
f 77 114 120
f 77 120 78
f 78 121 122
f 78 122 123
f 78 123 79
f 78 120 124
f 78 124 121
f 79 125 83
f 79 123 125
f 80 126 127
f 80 127 81
f 80 89 126
f 81 127 128
f 81 128 90
f 81 90 82
f 83 125 129
f 83 129 130
f 83 130 84
f 84 130 131
f 84 131 85
f 85 131 86
f 86 132 133
f 86 133 87
f 86 131 132
f 87 134 88
f 87 133 134
f 88 134 89
f 89 134 135
f 89 135 126
f 90 128 91
f 91 128 136
f 91 136 92
f 92 137 93
f 92 136 138
f 92 138 137
f 93 137 94
f 94 137 95
f 95 137 139
f 95 139 115
f 96 140 141
f 96 141 142
f 96 142 97
f 96 143 140
f 97 142 144
f 97 144 98
f 98 145 99
f 98 144 145
f 99 146 100
f 99 145 146
f 100 146 147
f 100 147 148
f 100 148 101
f 101 148 149
f 101 149 150
f 101 150 102
f 102 150 103
f 103 151 105
f 103 105 104
f 103 150 152
f 103 152 151
f 105 151 106
f 106 151 153
f 106 153 154
f 106 154 155
f 106 155 107
f 107 155 108
f 108 155 156
f 108 156 112
f 108 112 110
f 108 110 109
f 111 112 113
f 112 156 155
f 112 155 157
f 112 157 158
f 112 158 113
f 113 158 159
f 113 159 120
f 113 120 114
f 115 139 160
f 115 160 116
f 116 160 161
f 116 161 162
f 116 162 118
f 116 118 117
f 118 162 163
f 118 163 164
f 118 164 119
f 119 164 165
f 119 165 166
f 119 166 167
f 119 167 168
f 119 168 143
f 120 169 124
f 120 159 169
f 121 124 170
f 121 170 171
f 121 171 122
f 122 172 173
f 122 173 125
f 122 125 123
f 122 171 172
f 124 169 174
f 124 174 170
f 125 173 175
f 125 175 129
f 126 176 177
f 126 177 127
f 126 135 176
f 127 177 128
f 128 178 179
f 128 179 136
f 128 177 178
f 129 175 180
f 129 180 130
f 130 180 181
f 130 181 131
f 131 181 132
f 132 181 182
f 132 182 183
f 132 183 184
f 132 184 133
f 133 184 185
f 133 185 186
f 133 186 134
f 134 186 187
f 134 187 188
f 134 188 135
f 135 188 189
f 135 189 176
f 136 179 138
f 137 138 139
f 138 179 190
f 138 190 191
f 138 191 139
f 139 161 160
f 139 191 161
f 140 143 192
f 140 192 141
f 141 193 194
f 141 194 144
f 141 144 142
f 141 192 195
f 141 195 196
f 141 196 193
f 143 168 197
f 143 197 198
f 143 198 199
f 143 199 192
f 144 194 200
f 144 200 201
f 144 201 145
f 145 201 202
f 145 202 203
f 145 203 204
f 145 204 147
f 145 147 146
f 147 204 203
f 147 203 205
f 147 205 206
f 147 206 148
f 148 206 149
f 149 206 150
f 150 207 152
f 150 206 208
f 150 208 207
f 151 152 207
f 151 207 153
f 153 207 209
f 153 209 154
f 154 170 174
f 154 174 155
f 154 209 210
f 154 210 170
f 155 174 169
f 155 169 157
f 157 169 158
f 158 169 159
f 161 191 211
f 161 211 162
f 162 211 212
f 162 212 163
f 163 212 164
f 164 212 213
f 164 213 165
f 165 213 166
f 166 213 212
f 166 212 214
f 166 214 215
f 166 215 216
f 166 216 217
f 166 217 167
f 167 217 218
f 167 218 168
f 168 218 197
f 170 210 171
f 171 210 219
f 171 219 172
f 172 220 221
f 172 221 222
f 172 222 223
f 172 223 173
f 172 219 220
f 173 223 224
f 173 224 175
f 175 224 180
f 176 189 225
f 176 225 226
f 176 226 177
f 177 226 227
f 177 227 178
f 178 227 179
f 179 228 190
f 179 227 228
f 180 224 229
f 180 229 182
f 180 182 181
f 182 229 183
f 183 230 184
f 183 229 231
f 183 231 230
f 184 230 232
f 184 232 185
f 185 232 233
f 185 233 187
f 185 187 186
f 187 233 234
f 187 234 188
f 188 234 235
f 188 235 189
f 189 235 236
f 189 236 225
f 190 228 191
f 191 228 237
f 191 237 215
f 191 215 211
f 192 199 195
f 193 196 238
f 193 238 230
f 193 230 231
f 193 231 239
f 193 239 240
f 193 240 200
f 193 200 194
f 195 199 241
f 195 241 196
f 196 241 238
f 197 218 242
f 197 242 198
f 198 242 199
f 199 242 243
f 199 243 241
f 200 240 201
f 201 240 202
f 202 240 244
f 202 244 245
f 202 245 246
f 202 246 203
f 203 246 205
f 205 246 208
f 205 208 206
f 207 247 209
f 207 208 247
f 208 246 247
f 209 247 220
f 209 220 219
f 209 219 210
f 211 215 212
f 212 215 214
f 215 237 248
f 215 248 216
f 216 249 236
f 216 236 250
f 216 250 217
f 216 248 249
f 217 250 251
f 217 251 218
f 218 251 242
f 220 247 221
f 221 246 245
f 221 245 252
f 221 252 222
f 221 247 246
f 222 252 253
f 222 253 223
f 223 253 224
f 224 253 229
f 225 236 249
f 225 249 248
f 225 248 226
f 226 248 237
f 226 237 227
f 227 237 228
f 229 239 231
f 229 253 239
f 230 238 232
f 232 254 255
f 232 255 233
f 232 238 254
f 233 255 234
f 234 255 256
f 234 256 235
f 235 250 236
f 235 256 250
f 238 241 254
f 239 253 240
f 240 253 244
f 241 243 254
f 242 251 243
f 243 256 254
f 243 251 256
f 244 253 252
f 244 252 245
f 250 256 251
f 254 256 255
