v -0.197296 -0.198617 0.287496
v -0.197296 -0.203494 0.292331
v -0.197296 -0.198617 0.353617
v 0.0782531 -0.198617 0.324969
v -0.197296 -0.204948 0.29381
v -0.197296 -0.204687 0.349101
v -0.189258 -0.206707 0.350689
v -0.19112 -0.198617 0.355881
v 0.0782531 -0.198617 0.383179
v 0.0782531 -0.200477 0.327659
v -0.197296 -0.210269 0.300272
v -0.197296 -0.210769 0.343006
v -0.183864 -0.200745 0.356943
v -0.178577 -0.2089 0.352615
v -0.167923 -0.198617 0.363683
v 0.0719146 -0.198617 0.384211
v 0.0782531 -0.203126 0.379595
v 0.0782531 -0.206741 0.337139
v -0.197296 -0.210877 0.301344
v 0.0782531 -0.211907 0.34512
v -0.197296 -0.212156 0.341249
v -0.168436 -0.199223 0.363077
v -0.167815 -0.210481 0.354332
v -0.151821 -0.203854 0.364546
v -0.165442 -0.198617 0.364417
v 0.05592 -0.198617 0.386206
v 0.0719146 -0.203772 0.380022
v 0.0782531 -0.210916 0.371604
v -0.197296 -0.21611 0.311459
v 0.0782531 -0.21504 0.359623
v -0.197296 -0.21696 0.314169
v -0.197296 -0.217307 0.330329
v -0.167815 -0.21632 0.343631
v -0.183864 -0.21284 0.344673
v -0.151821 -0.211954 0.356556
v -0.116703 -0.208915 0.368656
v -0.127357 -0.207656 0.367475
v -0.135853 -0.206466 0.366482
v -0.136258 -0.198617 0.372408
v -0.151821 -0.198617 0.368428
v 0.0530339 -0.198617 0.386454
v 0.0399524 -0.205847 0.38159
v 0.05592 -0.205016 0.380856
v 0.0719146 -0.211153 0.372031
v 0.05592 -0.211517 0.372865
v 0.0399524 -0.211794 0.373599
v 0.0239578 -0.211994 0.374076
v 0.00799015 -0.212144 0.374394
v -0.0399666 -0.216394 0.359623
v -0.183783 -0.218632 0.327659
v -0.197296 -0.218216 0.327659
v -0.151821 -0.217728 0.343631
v -0.103891 -0.215083 0.359623
v -0.0878965 -0.210977 0.371217
v -0.103891 -0.210056 0.369887
v -0.0878965 -0.202371 0.379208
v -0.104754 -0.198837 0.37889
v -0.121153 -0.201313 0.373689
v -0.135098 -0.198617 0.372676
v -0.135853 -0.198617 0.372508
v 0.0399524 -0.198617 0.387536
v 0.0239578 -0.198617 0.388519
v 0.0239578 -0.206358 0.382067
v 0.00799015 -0.206668 0.382384
v -0.00800444 -0.20678 0.382533
v -0.00800444 -0.212211 0.374542
v -0.0559612 -0.216469 0.359623
v -0.135853 -0.217723 0.343631
v -0.0719019 -0.216394 0.359623
v -0.0878965 -0.215996 0.359623
v -0.0719019 -0.211529 0.372319
v -0.0559612 -0.205016 0.381114
v -0.0719019 -0.203978 0.38031
v -0.0878965 -0.198617 0.382087
v -0.104592 -0.198617 0.379089
v 0.0234723 -0.198617 0.388539
v 0.00799015 -0.198676 0.388876
v -0.0161501 -0.198617 0.388678
v -0.023999 -0.198617 0.388499
v -0.023999 -0.206443 0.382236
v -0.0399666 -0.212074 0.373699
v -0.023999 -0.212174 0.374245
v -0.00800444 -0.198788 0.388718
v -0.0559612 -0.211878 0.373123
v -0.0399666 -0.205775 0.38169
v -0.0399666 -0.198617 0.387457
v -0.0418008 -0.198617 0.387318
v -0.0559612 -0.198617 0.386057
v -0.0595755 -0.198617 0.38569
v -0.0719019 -0.198617 0.384419
v 0.011092 -0.198617 0.388847
v 0.00799015 -0.198617 0.388906
v -0.00800444 -0.198617 0.388797
f 1 2 5
f 1 5 11
f 1 11 19
f 1 19 29
f 1 29 31
f 1 31 51
f 1 51 32
f 1 32 21
f 1 21 12
f 1 12 6
f 1 6 3
f 1 3 8
f 1 8 15
f 1 15 25
f 1 25 40
f 1 40 39
f 1 39 60
f 1 60 59
f 1 59 75
f 1 75 74
f 1 74 90
f 1 90 89
f 1 89 88
f 1 88 87
f 1 87 86
f 1 86 79
f 1 79 78
f 1 78 93
f 1 93 92
f 1 92 91
f 1 91 76
f 1 76 62
f 1 62 61
f 1 61 41
f 1 41 26
f 1 26 16
f 1 16 9
f 1 9 4
f 1 4 2
f 2 4 5
f 3 6 7
f 3 7 8
f 4 9 17
f 4 17 28
f 4 28 30
f 4 30 20
f 4 20 18
f 4 18 10
f 4 10 11
f 4 11 5
f 6 12 7
f 7 13 8
f 7 12 14
f 7 14 13
f 8 13 15
f 9 16 17
f 10 18 11
f 11 18 20
f 11 20 19
f 12 21 14
f 13 14 22
f 13 22 15
f 14 21 23
f 14 23 24
f 14 24 22
f 15 22 24
f 15 24 25
f 16 26 27
f 16 27 17
f 17 27 28
f 19 20 29
f 20 30 31
f 20 31 29
f 21 32 33
f 21 33 34
f 21 34 23
f 23 34 33
f 23 33 35
f 23 35 36
f 23 36 37
f 23 37 38
f 23 38 24
f 24 38 39
f 24 39 40
f 24 40 25
f 26 41 42
f 26 42 43
f 26 43 27
f 27 43 28
f 28 43 44
f 28 44 30
f 30 44 45
f 30 45 46
f 30 46 47
f 30 47 48
f 30 48 49
f 30 49 50
f 30 50 31
f 31 50 51
f 32 51 33
f 33 52 53
f 33 53 35
f 33 51 52
f 35 53 54
f 35 54 55
f 35 55 36
f 36 55 56
f 36 56 57
f 36 57 58
f 36 58 37
f 37 58 59
f 37 59 60
f 37 60 38
f 38 60 39
f 41 61 42
f 42 45 44
f 42 44 43
f 42 61 62
f 42 62 63
f 42 63 45
f 45 63 46
f 46 63 47
f 47 63 64
f 47 64 48
f 48 64 65
f 48 65 66
f 48 66 49
f 49 66 67
f 49 67 68
f 49 68 50
f 50 68 52
f 50 52 51
f 52 68 67
f 52 67 69
f 52 69 70
f 52 70 53
f 53 70 71
f 53 71 54
f 54 71 72
f 54 72 73
f 54 73 55
f 55 73 56
f 56 74 75
f 56 75 57
f 56 73 74
f 57 75 58
f 58 75 59
f 62 76 63
f 63 76 64
f 64 77 65
f 64 76 77
f 65 78 79
f 65 79 80
f 65 80 81
f 65 81 82
f 65 82 66
f 65 77 83
f 65 83 78
f 66 82 69
f 66 69 67
f 69 82 81
f 69 81 70
f 70 81 84
f 70 84 71
f 71 84 80
f 71 80 85
f 71 85 72
f 72 85 86
f 72 86 87
f 72 87 88
f 72 88 73
f 73 88 89
f 73 89 90
f 73 90 74
f 76 91 77
f 77 91 92
f 77 92 83
f 78 83 93
f 79 86 80
f 80 86 85
f 80 84 81
f 83 92 93
