v 0.426812 0.219772 -0.103878
v 0.426744 0.219772 -0.107065
v 0.423556 0.220787 -0.103878
v 0.423556 0.220719 -0.0878858
v 0.426632 0.219772 -0.090983
v 0.425787 0.219772 -0.119871
v 0.423556 0.220433 -0.119871
v 0.411784 0.223356 -0.0878858
v 0.412336 0.22321 -0.071923
v 0.41237 0.223051 -0.0559303
v 0.411796 0.222867 -0.0399377
v 0.423556 0.220342 -0.071923
v 0.42653 0.219772 -0.0878858
v 0.425618 0.219772 -0.121926
v 0.407493 0.223399 -0.104593
v 0.423556 0.220132 -0.126125
v 0.403786 0.224239 -0.0878858
v 0.404338 0.224577 -0.071923
v 0.404383 0.224821 -0.0559303
v 0.403798 0.22477 -0.0399377
v 0.423556 0.219772 -0.0550369
v 0.423556 0.219808 -0.0559303
v 0.402558 0.224499 -0.0239451
v 0.410557 0.222485 -0.0239451
v 0.421619 0.219772 -0.0399377
v 0.425483 0.219772 -0.073829
v 0.424874 0.219772 -0.126125
v 0.413823 0.22144 -0.126125
v 0.407571 0.22258 -0.119871
v 0.402108 0.223965 -0.0997686
v 0.391586 0.226147 -0.0559303
v 0.391586 0.226476 -0.0399377
v 0.391586 0.226494 -0.0239451
v 0.375602 0.228501 0.00801032
v 0.375602 0.228039 0.0240029
v 0.391586 0.226062 -0.00798229
v 0.423658 0.219772 -0.0559303
v 0.40097 0.224146 -0.00798229
v 0.399934 0.223875 0.00136906
v 0.408957 0.221848 -0.00798229
v 0.41709 0.219772 -0.0168869
v 0.418634 0.219772 -0.0239451
v 0.421168 0.219772 -0.0370192
v 0.383949 0.219772 -0.126125
v 0.407571 0.222151 -0.126125
v 0.391586 0.223964 -0.0992921
v 0.391586 0.224707 -0.0878858
v 0.391586 0.225597 -0.071923
v 0.359628 0.229825 0.00801032
v 0.375602 0.228471 -0.00798229
v 0.359628 0.230305 0.0240029
v 0.359628 0.230221 0.039936
v 0.375602 0.227302 0.039936
v 0.388793 0.225177 0.0240029
v 0.406186 0.221447 0.00720622
v 0.386607 0.22472 0.039936
v 0.396791 0.222944 0.0240029
v 0.412325 0.219772 0.00184557
v 0.414849 0.219772 -0.00798229
v 0.387283 0.220624 -0.126125
v 0.311729 0.219772 0.00619365
v 0.311729 0.229995 0.055869
v 0.311729 0.232653 0.0718616
v 0.397838 0.221969 -0.126125
v 0.391586 0.22337 -0.107303
v 0.383408 0.223831 -0.0965819
v 0.311729 0.233793 0.0878245
v 0.343643 0.231509 0.039936
v 0.343643 0.231693 0.0559286
v 0.327658 0.232505 0.087884
v 0.359628 0.229355 0.0559286
v 0.376356 0.225686 0.0559881
v 0.384794 0.224215 0.0506871
v 0.406096 0.219772 0.0240029
v 0.407245 0.219772 0.0201313
v 0.391586 0.221722 -0.126125
v 0.311729 0.219772 0.178122
v 0.391586 0.22228 -0.119871
v 0.311729 0.233904 0.103817
v 0.327658 0.231582 0.103877
v 0.343643 0.229728 0.087884
v 0.343643 0.227799 0.103877
v 0.382191 0.223336 0.0613488
v 0.390708 0.221096 0.0559881
v 0.396205 0.219772 0.0507466
v 0.400407 0.219772 0.039936
v 0.394605 0.221992 0.039936
v 0.405183 0.219772 0.0268917
v 0.354795 0.224695 0.103877
v 0.366015 0.223283 0.0922023
v 0.321237 0.219772 0.167817
v 0.315188 0.222136 0.167817
v 0.311729 0.219921 0.177705
v 0.311729 0.232747 0.11981
v 0.327658 0.229401 0.119869
v 0.343384 0.225314 0.118708
v 0.386213 0.219772 0.0719212
v 0.391068 0.219772 0.0624805
v 0.393986 0.219772 0.0559584
v 0.352125 0.223933 0.112603
v 0.362793 0.222129 0.103877
v 0.381358 0.219772 0.0810641
v 0.334034 0.219772 0.15248
v 0.318916 0.223513 0.158913
v 0.311729 0.223323 0.167817
v 0.32821 0.221897 0.152897
v 0.311729 0.23043 0.135773
v 0.32821 0.226191 0.136041
v 0.337887 0.224518 0.130829
v 0.348543 0.222685 0.123264
v 0.358321 0.220237 0.118708
v 0.368888 0.219772 0.103877
v 0.343463 0.219772 0.140508
v 0.311729 0.226405 0.155786
v 0.33391 0.223147 0.141491
v 0.323253 0.224957 0.148281
v 0.343384 0.221162 0.136041
v 0.311729 0.230254 0.136666
v 0.312822 0.226771 0.152897
v 0.346932 0.219772 0.136011
v 0.358434 0.219772 0.120167
v 0.360946 0.219772 0.116444
v 0.311729 0.226858 0.15385
f 1 2 3
f 1 3 4
f 1 4 5
f 1 5 13
f 1 13 26
f 1 26 37
f 1 37 21
f 1 21 25
f 1 25 43
f 1 43 42
f 1 42 41
f 1 41 59
f 1 59 58
f 1 58 75
f 1 75 74
f 1 74 88
f 1 88 86
f 1 86 85
f 1 85 99
f 1 99 98
f 1 98 97
f 1 97 102
f 1 102 112
f 1 112 122
f 1 122 121
f 1 121 120
f 1 120 113
f 1 113 103
f 1 103 91
f 1 91 77
f 1 77 61
f 1 61 44
f 1 44 27
f 1 27 14
f 1 14 6
f 1 6 2
f 2 6 7
f 2 7 3
f 3 7 8
f 3 8 9
f 3 9 4
f 4 9 10
f 4 10 11
f 4 11 12
f 4 12 13
f 4 13 5
f 6 14 7
f 7 15 8
f 7 14 16
f 7 16 15
f 8 17 18
f 8 18 19
f 8 19 9
f 8 15 17
f 9 19 10
f 10 19 20
f 10 20 11
f 11 21 22
f 11 22 12
f 11 20 23
f 11 23 24
f 11 24 25
f 11 25 21
f 12 26 13
f 12 22 26
f 14 27 16
f 15 16 28
f 15 28 29
f 15 29 30
f 15 30 17
f 16 27 44
f 16 44 60
f 16 60 76
f 16 76 64
f 16 64 45
f 16 45 28
f 17 31 18
f 17 30 31
f 18 31 32
f 18 32 19
f 19 32 33
f 19 33 20
f 20 33 34
f 20 34 35
f 20 35 36
f 20 36 23
f 21 37 22
f 22 37 26
f 23 36 35
f 23 35 38
f 23 38 24
f 24 38 39
f 24 39 40
f 24 40 41
f 24 41 42
f 24 42 43
f 24 43 25
f 28 45 29
f 29 45 30
f 30 45 46
f 30 46 47
f 30 47 48
f 30 48 31
f 31 48 49
f 31 49 50
f 31 50 32
f 32 50 34
f 32 34 33
f 34 50 51
f 34 51 52
f 34 52 35
f 35 52 53
f 35 53 38
f 38 53 54
f 38 54 39
f 39 55 40
f 39 54 56
f 39 56 57
f 39 57 55
f 40 55 58
f 40 58 59
f 40 59 41
f 44 61 62
f 44 62 63
f 44 63 60
f 45 64 65
f 45 65 46
f 46 65 66
f 46 66 67
f 46 67 47
f 47 67 68
f 47 68 48
f 48 68 49
f 49 68 51
f 49 51 50
f 51 68 69
f 51 69 52
f 52 69 70
f 52 70 71
f 52 71 53
f 53 71 72
f 53 72 73
f 53 73 56
f 53 56 54
f 55 57 74
f 55 74 75
f 55 75 58
f 56 73 57
f 57 73 74
f 60 63 76
f 61 77 93
f 61 93 105
f 61 105 114
f 61 114 123
f 61 123 118
f 61 118 107
f 61 107 94
f 61 94 79
f 61 79 67
f 61 67 63
f 61 63 62
f 63 67 66
f 63 66 76
f 64 76 78
f 64 78 65
f 65 78 66
f 66 78 76
f 67 79 69
f 67 69 68
f 69 79 70
f 70 79 80
f 70 80 71
f 71 80 81
f 71 81 72
f 72 81 82
f 72 82 73
f 73 83 84
f 73 84 85
f 73 85 86
f 73 86 87
f 73 87 88
f 73 88 74
f 73 82 89
f 73 89 90
f 73 90 83
f 77 91 92
f 77 92 93
f 79 94 80
f 80 94 95
f 80 95 82
f 80 82 81
f 82 95 96
f 82 96 89
f 83 97 98
f 83 98 84
f 83 90 97
f 84 98 99
f 84 99 85
f 86 88 87
f 89 96 100
f 89 100 90
f 90 100 101
f 90 101 102
f 90 102 97
f 91 103 92
f 92 104 105
f 92 105 93
f 92 103 106
f 92 106 104
f 94 107 95
f 95 107 108
f 95 108 96
f 96 108 109
f 96 109 100
f 100 109 110
f 100 110 111
f 100 111 101
f 101 111 112
f 101 112 102
f 103 113 106
f 104 114 105
f 104 106 115
f 104 115 116
f 104 116 114
f 106 113 117
f 106 117 115
f 107 118 108
f 108 118 119
f 108 119 116
f 108 116 109
f 109 116 115
f 109 115 110
f 110 115 117
f 110 117 111
f 111 117 120
f 111 120 121
f 111 121 122
f 111 122 112
f 113 120 117
f 114 116 123
f 116 119 123
f 118 123 119
