v 0.161941 0.00798897 0.631333
v 0.160425 0.0167458 0.647321
v 0.161913 0.00798897 0.647321
v 0.161341 -0.00247059 0.631333
v 0.160719 -0.00143786 0.619749
v 0.16067 0.00798897 0.619312
v 0.160062 0.0163063 0.621568
v 0.160432 0.0167543 0.631333
v 0.151839 0.0228909 0.631333
v 0.151839 0.0227928 0.647321
v 0.160062 0.0162935 0.656881
v 0.160544 0.00687516 0.662652
v 0.159922 0.000811092 0.671665
v 0.159922 -0.000157623 0.671665
v 0.160544 -0.001105 0.663295
v 0.161313 -0.0023767 0.647321
v 0.151839 -0.0100795 0.647321
v 0.151839 -0.0101392 0.631333
v 0.153153 -0.00657162 0.614799
v 0.150163 -0.00631557 0.599385
v 0.148185 -0.00506094 0.583398
v 0.146062 -0.00282052 0.570433
v 0.152279 0.00798897 0.583398
v 0.156394 0.00798897 0.599385
v 0.159056 0.00798897 0.611325
v 0.145768 0.0183162 0.571595
v 0.147941 0.0203731 0.583398
v 0.150079 0.0214955 0.599385
v 0.153104 0.0208895 0.615893
v 0.135855 0.0270005 0.679282
v 0.135855 0.0264884 0.583398
v 0.135855 0.026689 0.599385
v 0.153013 0.0207231 0.662652
v 0.149722 0.0208426 0.679282
v 0.147557 0.019302 0.692193
v 0.159126 0.0114627 0.667534
v 0.157121 0.00687516 0.677901
v 0.152077 0.00779266 0.692193
v 0.14945 -0.00288453 0.692193
v 0.148612 -0.00507801 0.692193
v 0.152426 -0.00547915 0.677901
v 0.151839 -0.00856026 0.663295
v 0.137406 -0.0133142 0.692193
v 0.130964 -0.0162204 0.692193
v 0.129798 -0.0165105 0.692193
v 0.135855 -0.0122644 0.583398
v 0.13735 -0.00768543 0.566029
v 0.146949 0.00798897 0.568832
v 0.133745 -0.00616621 0.552489
v 0.138468 0.00798897 0.552489
v 0.143079 0.00798897 0.560832
v 0.133486 0.0185893 0.552489
v 0.132599 0.020083 0.552489
v 0.136938 0.0222466 0.566726
v 0.122958 0.0263519 0.692193
v 0.135855 0.0256051 0.692193
v 0.119877 0.0261171 0.56741
v 0.119877 0.0252594 0.552489
v 0.138523 0.0244187 0.692193
v 0.122881 -0.0165959 0.692193
v 0.118794 -0.0143427 0.552489
v 0.119241 -0.014189 0.552489
v 0.119675 0.0254088 0.692193
v 0.102607 0.0217003 0.552489
v 0.116985 -0.0141848 0.692193
v 0.104214 -0.0128491 0.552489
v 0.109572 0.0202537 0.692193
v 0.102335 0.0216022 0.552489
v 0.11447 -0.0126186 0.692193
v 0.103844 -0.01264 0.552489
v 0.108231 0.0192935 0.692193
v 0.0907095 0.00811272 0.552489
v 0.106722 -0.00561144 0.692193
v 0.0929521 -0.00422452 0.552489
v 0.103194 0.0072763 0.692193
v 0.0905698 0.0078396 0.552489
v 0.103655 0.00381112 0.692193
v 0.0925259 -0.00369108 0.552489
f 1 2 3
f 1 3 4
f 1 4 5
f 1 5 6
f 1 6 7
f 1 7 8
f 1 8 2
f 2 8 9
f 2 9 10
f 2 10 11
f 2 11 3
f 3 11 12
f 3 12 13
f 3 13 14
f 3 14 15
f 3 15 16
f 3 16 4
f 4 17 18
f 4 18 5
f 4 16 17
f 5 19 20
f 5 20 21
f 5 21 22
f 5 22 23
f 5 23 24
f 5 24 25
f 5 25 6
f 5 18 19
f 6 25 7
f 7 25 24
f 7 24 23
f 7 23 26
f 7 26 27
f 7 27 28
f 7 28 29
f 7 29 8
f 8 29 9
f 9 30 10
f 9 29 28
f 9 28 31
f 9 31 32
f 9 32 30
f 10 33 11
f 10 30 34
f 10 34 33
f 11 33 34
f 11 34 35
f 11 35 36
f 11 36 12
f 12 36 13
f 13 36 37
f 13 37 38
f 13 38 14
f 14 38 39
f 14 39 40
f 14 40 41
f 14 41 15
f 15 41 42
f 15 42 16
f 16 42 17
f 17 42 43
f 17 43 44
f 17 44 18
f 18 44 45
f 18 45 46
f 18 46 20
f 18 20 19
f 20 46 21
f 21 46 47
f 21 47 22
f 22 48 23
f 22 47 49
f 22 49 50
f 22 50 51
f 22 51 48
f 23 48 26
f 26 48 51
f 26 51 50
f 26 50 52
f 26 52 53
f 26 53 54
f 26 54 27
f 27 54 31
f 27 31 28
f 30 55 56
f 30 56 34
f 30 32 57
f 30 57 55
f 31 54 58
f 31 58 57
f 31 57 32
f 34 56 59
f 34 59 35
f 35 59 56
f 35 56 55
f 35 55 63
f 35 63 67
f 35 67 71
f 35 71 75
f 35 75 77
f 35 77 73
f 35 73 69
f 35 69 65
f 35 65 60
f 35 60 45
f 35 45 44
f 35 44 43
f 35 43 40
f 35 40 39
f 35 39 38
f 35 38 36
f 36 38 37
f 40 43 41
f 41 43 42
f 45 60 61
f 45 61 46
f 46 61 62
f 46 62 47
f 47 62 49
f 49 62 61
f 49 61 66
f 49 66 70
f 49 70 74
f 49 74 78
f 49 78 76
f 49 76 72
f 49 72 68
f 49 68 64
f 49 64 58
f 49 58 53
f 49 53 52
f 49 52 50
f 53 58 54
f 55 57 64
f 55 64 63
f 57 58 64
f 60 65 66
f 60 66 61
f 63 64 68
f 63 68 67
f 65 69 70
f 65 70 66
f 67 68 71
f 68 72 71
f 69 73 74
f 69 74 70
f 71 72 76
f 71 76 75
f 73 77 78
f 73 78 74
f 75 76 77
f 76 78 77
