v -0.398639 -0.191276 0.224775
v -0.398639 -0.190713 0.224775
v -0.398312 -0.192801 0.224775
v -0.383808 -0.192207 0.239983
v -0.39395 -0.166818 0.224775
v -0.383808 -0.190934 0.239983
v -0.38926 -0.166818 0.229651
v -0.394459 -0.198612 0.224775
v -0.391405 -0.198612 0.227976
v -0.387843 -0.198612 0.231459
v -0.375119 -0.198612 0.243582
v -0.374938 -0.198438 0.243881
v -0.37352 -0.198612 0.245042
v -0.339676 -0.196368 0.27506
v -0.322372 -0.194681 0.289705
v -0.340839 -0.183806 0.276105
v -0.285183 -0.166818 0.224775
v -0.348836 -0.183806 0.269372
v -0.358324 -0.183806 0.261378
v -0.366322 -0.183806 0.254595
v -0.364686 -0.166818 0.253168
v -0.373447 -0.166818 0.245174
v -0.380936 -0.166818 0.238109
v -0.298415 -0.198612 0.224775
v -0.342038 -0.198612 0.271478
v -0.334114 -0.198612 0.277697
v -0.330878 -0.183806 0.284099
v -0.326298 -0.198612 0.283718
v -0.311139 -0.198612 0.294515
v -0.304195 -0.192387 0.304068
v -0.339494 -0.166818 0.274961
v -0.285183 -0.168461 0.224775
v -0.0272617 -0.166818 0.309159
v -0.346982 -0.166818 0.268559
v -0.356689 -0.166818 0.260167
v -0.297834 -0.197993 0.224775
v -0.0272617 -0.167612 0.309424
v -0.0272617 -0.179237 0.314151
v -0.0272617 -0.182826 0.315843
v -0.0272617 -0.189188 0.319707
v -0.0272617 -0.190551 0.32057
v -0.0272617 -0.196502 0.326142
v -0.0272617 -0.198597 0.328282
v -0.0272617 -0.198612 0.329857
v -0.304195 -0.189465 0.304068
v -0.322881 -0.183806 0.290053
v -0.328806 -0.166818 0.283336
v -0.329315 -0.166818 0.282955
v -0.310157 -0.198612 0.295178
v -0.295689 -0.198612 0.304565
v -0.295689 -0.195845 0.306738
v -0.27435 -0.194024 0.321183
v -0.274895 -0.183806 0.321498
v -0.287073 -0.175228 0.224775
v -0.0272617 -0.166818 0.393079
v -0.289545 -0.183806 0.224775
v -0.0272617 -0.198612 0.388286
v -0.282857 -0.183806 0.316755
v -0.296852 -0.184005 0.307982
v -0.293762 -0.166818 0.3077
v -0.301251 -0.166818 0.302708
v -0.310957 -0.166818 0.29604
v -0.321318 -0.166818 0.288892
v -0.287001 -0.198612 0.309872
v -0.278712 -0.198612 0.314931
v -0.264389 -0.198612 0.322908
v -0.242723 -0.194037 0.337105
v -0.251848 -0.183806 0.333705
v -0.263699 -0.183806 0.327552
v -0.263808 -0.166818 0.325429
v -0.272423 -0.166818 0.320586
v -0.280784 -0.166818 0.315727
v -0.0272617 -0.167827 0.393228
v -0.0399851 -0.166818 0.392382
v -0.0272617 -0.19831 0.388518
v -0.0399851 -0.197781 0.38812
v -0.0399851 -0.198612 0.387457
v -0.247049 -0.198612 0.331549
v -0.231745 -0.183806 0.34349
v -0.24385 -0.183806 0.337669
v -0.231745 -0.198612 0.338896
v -0.231745 -0.197467 0.339758
v -0.210079 -0.193237 0.352578
v -0.250176 -0.167827 0.332842
v -0.242178 -0.167827 0.336856
v -0.242069 -0.166818 0.336806
v -0.262754 -0.166818 0.325993
v -0.0272617 -0.183806 0.394207
v -0.0399851 -0.167827 0.392532
v -0.0559438 -0.166818 0.390923
v -0.0272617 -0.186679 0.393112
v -0.0559438 -0.197022 0.387291
v -0.0418027 -0.198612 0.387324
v -0.0399851 -0.183806 0.393444
v -0.231745 -0.167827 0.341898
v -0.218767 -0.183806 0.349461
v -0.241524 -0.166818 0.337072
v -0.226147 -0.198612 0.3414
v -0.215095 -0.198612 0.346309
v -0.199791 -0.198612 0.352695
v -0.199791 -0.196066 0.354618
v -0.163547 -0.193514 0.368716
v -0.183832 -0.183806 0.363326
v -0.199791 -0.183806 0.357338
v -0.210806 -0.183806 0.35291
v -0.249558 -0.166818 0.333041
v -0.250067 -0.166818 0.332776
v -0.0559438 -0.167827 0.391072
v -0.071939 -0.166818 0.389049
v -0.0559438 -0.198612 0.386063
v -0.071939 -0.195985 0.386428
v -0.071939 -0.198612 0.384422
v -0.0559438 -0.183806 0.391885
v -0.231745 -0.166818 0.341782
v -0.209533 -0.170699 0.352379
v -0.191139 -0.198612 0.355879
v -0.167946 -0.198612 0.363674
v -0.151842 -0.195861 0.370457
v -0.100039 -0.19287 0.384305
v -0.110727 -0.187544 0.38336
v -0.135883 -0.183806 0.377854
v -0.151842 -0.183806 0.373542
v -0.165583 -0.183806 0.369396
v -0.173581 -0.183806 0.366875
v -0.171727 -0.167827 0.366162
v -0.183832 -0.167827 0.361849
v -0.071939 -0.183806 0.390077
v -0.071939 -0.167827 0.389198
v -0.0869162 -0.166818 0.386942
v -0.0879341 -0.167827 0.386959
v -0.0879341 -0.194376 0.385334
v -0.0785188 -0.198612 0.38346
v -0.230727 -0.166818 0.342246
v -0.202227 -0.166818 0.354751
v -0.208879 -0.166818 0.352098
v -0.214586 -0.166818 0.349577
v -0.220439 -0.166818 0.346923
v -0.195828 -0.166818 0.357189
v -0.201318 -0.166818 0.355099
v -0.165474 -0.198612 0.364404
v -0.151842 -0.198612 0.368417
v -0.135883 -0.198612 0.372514
v -0.135883 -0.198472 0.372613
v -0.10462 -0.198612 0.379081
v -0.0879341 -0.183806 0.387838
v -0.104802 -0.18285 0.384803
v -0.112109 -0.17689 0.383642
v -0.118434 -0.18285 0.38195
v -0.151842 -0.167827 0.372381
v -0.112109 -0.175577 0.383642
v -0.163729 -0.167827 0.368865
v -0.163547 -0.166818 0.368815
v -0.171036 -0.166818 0.366278
v -0.183832 -0.166818 0.361733
v -0.0879341 -0.166818 0.386793
v -0.100585 -0.166818 0.384471
v -0.102693 -0.16928 0.384455
v -0.0879341 -0.198612 0.382083
v -0.151842 -0.166818 0.372265
v -0.135883 -0.167827 0.376577
v -0.118616 -0.166818 0.380557
v -0.135883 -0.166818 0.376444
f 1 2 5
f 1 5 17
f 1 17 32
f 1 32 54
f 1 54 56
f 1 56 36
f 1 36 24
f 1 24 8
f 1 8 3
f 1 3 4
f 1 4 6
f 1 6 2
f 2 6 7
f 2 7 5
f 3 8 9
f 3 9 4
f 4 9 10
f 4 10 11
f 4 11 12
f 4 12 13
f 4 13 14
f 4 14 15
f 4 15 16
f 4 16 6
f 5 7 23
f 5 23 22
f 5 22 21
f 5 21 35
f 5 35 34
f 5 34 31
f 5 31 48
f 5 48 47
f 5 47 63
f 5 63 62
f 5 62 61
f 5 61 60
f 5 60 72
f 5 72 71
f 5 71 70
f 5 70 87
f 5 87 107
f 5 107 106
f 5 106 86
f 5 86 97
f 5 97 114
f 5 114 133
f 5 133 137
f 5 137 136
f 5 136 135
f 5 135 134
f 5 134 139
f 5 139 138
f 5 138 154
f 5 154 153
f 5 153 152
f 5 152 159
f 5 159 162
f 5 162 161
f 5 161 156
f 5 156 155
f 5 155 129
f 5 129 109
f 5 109 90
f 5 90 74
f 5 74 55
f 5 55 33
f 5 33 17
f 6 16 18
f 6 18 19
f 6 19 20
f 6 20 21
f 6 21 22
f 6 22 23
f 6 23 7
f 8 24 44
f 8 44 57
f 8 57 77
f 8 77 93
f 8 93 110
f 8 110 112
f 8 112 132
f 8 132 158
f 8 158 144
f 8 144 142
f 8 142 141
f 8 141 140
f 8 140 117
f 8 117 116
f 8 116 100
f 8 100 99
f 8 99 98
f 8 98 81
f 8 81 78
f 8 78 66
f 8 66 65
f 8 65 64
f 8 64 50
f 8 50 49
f 8 49 29
f 8 29 28
f 8 28 26
f 8 26 25
f 8 25 13
f 8 13 11
f 8 11 10
f 8 10 9
f 11 13 12
f 13 25 14
f 14 25 26
f 14 26 15
f 15 27 16
f 15 26 28
f 15 28 29
f 15 29 30
f 15 30 27
f 16 27 31
f 16 31 18
f 17 33 32
f 18 31 19
f 19 31 20
f 20 31 34
f 20 34 35
f 20 35 21
f 24 36 33
f 24 33 37
f 24 37 38
f 24 38 39
f 24 39 40
f 24 40 41
f 24 41 42
f 24 42 43
f 24 43 44
f 27 30 45
f 27 45 46
f 27 46 47
f 27 47 48
f 27 48 31
f 29 49 30
f 30 49 50
f 30 50 51
f 30 51 52
f 30 52 53
f 30 53 45
f 32 33 54
f 33 55 73
f 33 73 88
f 33 88 91
f 33 91 75
f 33 75 57
f 33 57 44
f 33 44 43
f 33 43 42
f 33 42 41
f 33 41 40
f 33 40 39
f 33 39 38
f 33 38 37
f 33 36 56
f 33 56 54
f 45 53 58
f 45 58 59
f 45 59 60
f 45 60 61
f 45 61 62
f 45 62 63
f 45 63 46
f 46 63 47
f 50 64 51
f 51 64 65
f 51 65 52
f 52 65 66
f 52 66 67
f 52 67 68
f 52 68 69
f 52 69 53
f 53 69 70
f 53 70 71
f 53 71 72
f 53 72 58
f 55 74 89
f 55 89 73
f 57 75 76
f 57 76 77
f 58 72 60
f 58 60 59
f 66 78 67
f 67 79 80
f 67 80 68
f 67 78 81
f 67 81 82
f 67 82 83
f 67 83 79
f 68 84 69
f 68 80 85
f 68 85 86
f 68 86 84
f 69 84 87
f 69 87 70
f 73 89 88
f 74 90 108
f 74 108 89
f 75 91 76
f 76 92 93
f 76 93 77
f 76 91 88
f 76 88 94
f 76 94 92
f 79 95 80
f 79 83 96
f 79 96 95
f 80 95 97
f 80 97 85
f 81 98 82
f 82 98 83
f 83 99 100
f 83 100 101
f 83 101 102
f 83 102 103
f 83 103 104
f 83 104 105
f 83 105 96
f 83 98 99
f 84 86 106
f 84 106 107
f 84 107 87
f 85 97 86
f 88 89 94
f 89 108 94
f 90 109 128
f 90 128 108
f 92 110 93
f 92 94 111
f 92 111 112
f 92 112 110
f 94 113 111
f 94 108 113
f 95 114 97
f 95 96 115
f 95 115 114
f 96 105 115
f 100 116 101
f 101 116 102
f 102 117 118
f 102 118 119
f 102 119 120
f 102 120 121
f 102 121 122
f 102 122 123
f 102 123 124
f 102 124 103
f 102 116 117
f 103 124 125
f 103 125 126
f 103 126 104
f 104 126 115
f 104 115 105
f 108 127 113
f 108 128 127
f 109 129 130
f 109 130 128
f 111 131 112
f 111 113 131
f 112 131 132
f 113 127 131
f 114 115 133
f 115 134 135
f 115 135 136
f 115 136 137
f 115 137 133
f 115 126 138
f 115 138 139
f 115 139 134
f 117 140 118
f 118 140 141
f 118 141 142
f 118 142 143
f 118 143 119
f 119 144 131
f 119 131 127
f 119 127 145
f 119 145 120
f 119 143 142
f 119 142 144
f 120 145 146
f 120 146 147
f 120 147 148
f 120 148 121
f 121 149 122
f 121 148 147
f 121 147 150
f 121 150 149
f 122 149 151
f 122 151 123
f 123 151 124
f 124 151 125
f 125 151 152
f 125 152 153
f 125 153 154
f 125 154 126
f 126 154 138
f 127 128 130
f 127 130 145
f 129 155 130
f 130 155 156
f 130 156 157
f 130 157 150
f 130 150 145
f 131 144 158
f 131 158 132
f 145 150 147
f 145 147 146
f 149 159 152
f 149 152 151
f 149 150 160
f 149 160 159
f 150 157 156
f 150 156 161
f 150 161 162
f 150 162 160
f 159 160 162
