v 0.327669 0.21977 -0.202761
v 0.312042 0.21977 -0.19871
v 0.315952 0.244505 -0.193811
v 0.329122 0.248996 -0.194494
v 0.339254 0.247739 -0.193653
v 0.344314 0.21977 -0.199438
v 0.311052 0.21977 -0.198012
v 0.324776 0.255158 -0.19126
v 0.311052 0.248996 -0.187719
v 0.335423 0.255743 -0.191808
v 0.335674 0.255743 -0.191808
v 0.407562 0.21977 -0.169556
v 0.296257 0.21977 -0.183788
v 0.303297 0.256092 -0.176413
v 0.311686 0.25758 -0.179857
v 0.329122 0.258304 -0.185078
v 0.301725 0.247739 -0.179114
v 0.338832 0.25737 -0.183803
v 0.408341 0.21977 -0.167823
v 0.289982 0.21977 -0.167823
v 0.299017 0.247739 -0.167823
v 0.302875 0.256466 -0.167823
v 0.311686 0.260032 -0.167823
v 0.327669 0.262733 -0.167823
v 0.342253 0.25917 -0.167823
v 0.422951 0.21977 -0.13527
v 0.289942 0.21977 -0.16633
v 0.290207 0.21977 -0.151843
v 0.302994 0.256352 -0.158415
v 0.312188 0.258161 -0.152593
v 0.327669 0.260621 -0.151843
v 0.339954 0.258047 -0.151843
v 0.42488 0.21977 -0.126133
v 0.423546 0.21977 -0.133612
v 0.290352 0.21977 -0.150478
v 0.300867 0.247432 -0.152593
v 0.302584 0.241901 -0.142578
v 0.307207 0.252555 -0.147762
v 0.317855 0.256516 -0.142833
v 0.327669 0.256823 -0.142518
v 0.336797 0.256403 -0.143095
v 0.423546 0.220132 -0.126133
v 0.383943 0.21977 -0.126133
v 0.29664 0.21977 -0.136793
v 0.309321 0.21977 -0.129516
v 0.312188 0.247432 -0.139974
v 0.297749 0.21977 -0.136118
v 0.327669 0.247739 -0.136928
v 0.407562 0.222151 -0.126133
v 0.413823 0.22144 -0.126133
v 0.41484 0.221306 -0.126133
v 0.327669 0.21977 -0.126418
v 0.391578 0.221722 -0.126133
v 0.311686 0.21977 -0.128901
v 0.322729 0.21977 -0.126965
v 0.39784 0.22197 -0.126133
f 1 2 3
f 1 3 4
f 1 4 5
f 1 5 6
f 1 6 12
f 1 12 19
f 1 19 26
f 1 26 34
f 1 34 33
f 1 33 43
f 1 43 52
f 1 52 55
f 1 55 54
f 1 54 45
f 1 45 47
f 1 47 44
f 1 44 35
f 1 35 28
f 1 28 27
f 1 27 20
f 1 20 13
f 1 13 7
f 1 7 2
f 2 7 3
f 3 8 4
f 3 7 9
f 3 9 8
f 4 10 11
f 4 11 5
f 4 8 10
f 5 11 12
f 5 12 6
f 7 13 9
f 8 9 14
f 8 14 15
f 8 15 16
f 8 16 10
f 9 13 17
f 9 17 14
f 10 16 11
f 11 16 18
f 11 18 12
f 12 18 19
f 13 20 17
f 14 17 20
f 14 20 21
f 14 21 22
f 14 22 23
f 14 23 15
f 15 23 24
f 15 24 16
f 16 24 18
f 18 24 25
f 18 25 26
f 18 26 19
f 20 27 21
f 21 27 28
f 21 28 29
f 21 29 22
f 22 29 23
f 23 30 24
f 23 29 30
f 24 31 32
f 24 32 25
f 24 30 31
f 25 33 34
f 25 34 26
f 25 32 33
f 28 35 29
f 29 35 36
f 29 36 37
f 29 37 38
f 29 38 39
f 29 39 30
f 30 39 31
f 31 39 40
f 31 40 41
f 31 41 32
f 32 41 33
f 33 42 51
f 33 51 50
f 33 50 49
f 33 49 56
f 33 56 53
f 33 53 43
f 33 41 42
f 35 44 37
f 35 37 36
f 37 45 46
f 37 46 39
f 37 39 38
f 37 44 47
f 37 47 45
f 39 46 48
f 39 48 40
f 40 48 49
f 40 49 50
f 40 50 51
f 40 51 42
f 40 42 41
f 43 53 52
f 45 54 46
f 46 54 48
f 48 54 55
f 48 55 52
f 48 52 53
f 48 53 56
f 48 56 49
