v 0.246191 -0.0558094 -0.596285
v 0.246191 -0.198615 -0.596285
v 0.246191 -0.0558094 -0.646239
v -0.263929 -0.0558094 -0.596285
v 0.246191 -0.198615 -0.637857
v -0.263929 -0.198615 -0.596285
v 0.246191 -0.103155 -0.643501
v 0.226467 -0.0558094 -0.65675
v -0.263929 -0.0558094 -0.641665
v 0.230662 -0.198615 -0.645281
v -0.263929 -0.198615 -0.631593
v 0.214833 -0.198615 -0.652548
v 0.226367 -0.0558094 -0.656795
v -0.263929 -0.0879183 -0.646813
v -0.262431 -0.0558094 -0.642352
v -0.263929 -0.151829 -0.638792
v -0.252245 -0.198615 -0.637643
v 0.213634 -0.198615 -0.653077
v 0.210988 -0.198615 -0.654238
v 0.208241 -0.196658 -0.655522
v 0.215731 -0.0558094 -0.661234
v -0.183087 -0.0879183 -0.673807
v -0.181739 -0.103896 -0.673334
v -0.183786 -0.198615 -0.666777
v -0.199765 -0.198615 -0.661245
v -0.263929 -0.103896 -0.645529
v -0.215744 -0.0558094 -0.662541
v -0.201213 -0.0558094 -0.66876
v -0.193274 -0.0558094 -0.671801
v -0.193224 -0.0559492 -0.671824
v -0.183886 -0.0558094 -0.675091
v -0.167808 -0.0559492 -0.680499
v -0.231722 -0.198615 -0.6475
v -0.244256 -0.198615 -0.641529
v 0.205195 -0.198615 -0.65657
v 0.18702 -0.103896 -0.669481
v 0.188218 -0.0879183 -0.669942
v 0.180229 -0.0879183 -0.672984
v 0.181377 -0.0719268 -0.673424
v 0.182526 -0.0558094 -0.673852
v -0.167808 -0.0719268 -0.67962
v -0.167808 -0.0879183 -0.678719
v -0.180241 -0.119888 -0.672815
v -0.167808 -0.103896 -0.67775
v -0.164712 -0.198615 -0.672849
v -0.172701 -0.198615 -0.670314
v -0.21125 -0.198615 -0.656784
v -0.211799 -0.198615 -0.656547
v -0.219239 -0.198615 -0.653302
v -0.167808 -0.0558094 -0.680499
v -0.152827 -0.0558094 -0.685208
v 0.201101 -0.198615 -0.658102
v 0.177682 -0.119888 -0.671982
v 0.185671 -0.119888 -0.668974
v 0.17903 -0.103896 -0.6725
v 0.167795 -0.0558094 -0.679226
v 0.182376 -0.0558094 -0.673908
v -0.151829 -0.198615 -0.676657
v -0.144888 -0.0558094 -0.687551
v 0.182825 -0.198615 -0.664602
v 0.176534 -0.131448 -0.671565
v 0.161604 -0.198615 -0.671903
v 0.167795 -0.119888 -0.675249
v 0.167795 -0.103896 -0.676319
v 0.167795 -0.0879183 -0.677311
v 0.167795 -0.0719268 -0.678268
v 0.0813105 -0.103896 -0.703831
v 0.151817 -0.0559492 -0.684262
v 0.151717 -0.0558094 -0.684296
v -0.13585 -0.198615 -0.680871
v -0.143889 -0.0643084 -0.687304
v -0.13585 -0.0559492 -0.690064
v -0.131406 -0.103896 -0.688272
v -0.13585 -0.0558094 -0.690064
v 0.160805 -0.198615 -0.672162
v 0.151817 -0.198615 -0.675024
v 0.071923 -0.103896 -0.706478
v 0.0820096 -0.0879183 -0.704045
v 0.142279 -0.0558094 -0.686909
v -0.119871 -0.103896 -0.691123
v -0.12102 -0.198615 -0.684442
v -0.119871 -0.0558094 -0.694007
v 0.135838 -0.198615 -0.679429
v 0.119859 -0.198615 -0.683113
v 0.106078 -0.198615 -0.686087
v 0.0558944 -0.103896 -0.709813
v 0.071923 -0.0879183 -0.706478
v 0.134639 -0.198615 -0.67971
v 0.0801121 -0.0558094 -0.703324
v -0.119772 -0.198615 -0.684735
v -0.087864 -0.0719268 -0.700496
v -0.103843 -0.0558094 -0.697488
v 0.0980882 -0.198615 -0.687698
v 0.0558944 -0.198615 -0.693827
v 0.0399157 -0.103896 -0.711368
v 0.0399157 -0.0879183 -0.710805
v 0.0558944 -0.0879183 -0.70916
v 0.0971894 -0.198615 -0.687844
v 0.0879018 -0.198615 -0.689354
v 0.071923 -0.198615 -0.691788
v 0.0707246 -0.198615 -0.691945
v 0.0733212 -0.0558094 -0.704022
v -0.109885 -0.198615 -0.686943
v -0.0880138 -0.0558094 -0.700643
v -0.0753807 -0.0719268 -0.702783
v 0.0399157 -0.198615 -0.695066
v 0.023937 -0.103896 -0.710816
v 0.023937 -0.0879183 -0.710748
v 0.023937 -0.198615 -0.695731
v 0.0227885 -0.198615 -0.695776
v 0.00795828 -0.198615 -0.696271
v -0.00802043 -0.198615 -0.696531
v -0.0239492 -0.198615 -0.696384
v -0.0251476 -0.198615 -0.696373
v -0.0399279 -0.198615 -0.696057
v 0.0238371 -0.0558094 -0.707019
v 0.023937 -0.0558094 -0.707019
v 0.0399157 -0.0558094 -0.706388
v 0.0558944 -0.0558094 -0.705408
v -0.102794 -0.198615 -0.68816
v -0.0753307 -0.0558094 -0.702693
v -0.087864 -0.198615 -0.69065
v -0.0891124 -0.198615 -0.690447
v -0.101995 -0.198615 -0.688295
v -0.0673414 -0.0559492 -0.703651
v -0.0673913 -0.0719268 -0.703617
v -0.0655438 -0.0819215 -0.703425
v -0.0712861 -0.087513 -0.702197
v -0.0411263 -0.198615 -0.695979
v -0.0559066 -0.198615 -0.694998
v 0.00785841 -0.0558094 -0.706918
v -0.0559066 -0.0558094 -0.704507
v -0.0400777 -0.0558094 -0.705408
v -0.024099 -0.0558094 -0.706073
v -0.0673913 -0.0558094 -0.703639
v -0.0730837 -0.198615 -0.69288
v -0.057105 -0.198615 -0.694852
v -0.0718853 -0.198615 -0.693038
f 1 2 5
f 1 5 7
f 1 7 3
f 1 3 8
f 1 8 13
f 1 13 21
f 1 21 40
f 1 40 57
f 1 57 56
f 1 56 69
f 1 69 79
f 1 79 89
f 1 89 102
f 1 102 119
f 1 119 118
f 1 118 117
f 1 117 116
f 1 116 131
f 1 131 134
f 1 134 133
f 1 133 132
f 1 132 135
f 1 135 121
f 1 121 104
f 1 104 92
f 1 92 82
f 1 82 74
f 1 74 59
f 1 59 51
f 1 51 50
f 1 50 31
f 1 31 29
f 1 29 28
f 1 28 27
f 1 27 15
f 1 15 9
f 1 9 4
f 1 4 6
f 1 6 2
f 2 6 11
f 2 11 17
f 2 17 34
f 2 34 33
f 2 33 49
f 2 49 48
f 2 48 47
f 2 47 25
f 2 25 24
f 2 24 46
f 2 46 45
f 2 45 58
f 2 58 70
f 2 70 81
f 2 81 90
f 2 90 103
f 2 103 120
f 2 120 124
f 2 124 123
f 2 123 122
f 2 122 136
f 2 136 138
f 2 138 137
f 2 137 130
f 2 130 129
f 2 129 115
f 2 115 114
f 2 114 113
f 2 113 112
f 2 112 111
f 2 111 110
f 2 110 109
f 2 109 106
f 2 106 94
f 2 94 101
f 2 101 100
f 2 100 99
f 2 99 98
f 2 98 93
f 2 93 85
f 2 85 84
f 2 84 88
f 2 88 83
f 2 83 76
f 2 76 75
f 2 75 62
f 2 62 60
f 2 60 52
f 2 52 35
f 2 35 19
f 2 19 18
f 2 18 12
f 2 12 10
f 2 10 5
f 3 7 8
f 4 9 14
f 4 14 26
f 4 26 16
f 4 16 11
f 4 11 6
f 5 10 8
f 5 8 7
f 8 10 12
f 8 12 13
f 9 15 14
f 11 16 17
f 12 18 13
f 13 18 19
f 13 19 20
f 13 20 21
f 14 22 23
f 14 23 24
f 14 24 25
f 14 25 26
f 14 15 27
f 14 27 28
f 14 28 29
f 14 29 30
f 14 30 31
f 14 31 32
f 14 32 22
f 16 26 33
f 16 33 34
f 16 34 17
f 19 35 20
f 20 35 36
f 20 36 21
f 21 36 37
f 21 37 38
f 21 38 39
f 21 39 40
f 22 32 41
f 22 41 42
f 22 42 23
f 23 43 24
f 23 42 44
f 23 44 45
f 23 45 43
f 24 43 46
f 25 47 26
f 26 47 48
f 26 48 49
f 26 49 33
f 29 31 30
f 31 50 32
f 32 50 51
f 32 51 41
f 35 52 53
f 35 53 54
f 35 54 36
f 36 54 55
f 36 55 38
f 36 38 37
f 38 55 56
f 38 56 39
f 39 56 57
f 39 57 40
f 41 51 42
f 42 51 44
f 43 45 46
f 44 51 45
f 45 51 58
f 51 59 58
f 52 60 53
f 53 60 61
f 53 61 62
f 53 62 63
f 53 63 64
f 53 64 65
f 53 65 55
f 53 55 54
f 55 65 66
f 55 66 56
f 56 66 67
f 56 67 68
f 56 68 69
f 58 59 71
f 58 71 72
f 58 72 73
f 58 73 70
f 59 74 72
f 59 72 71
f 60 62 61
f 62 75 63
f 63 75 76
f 63 76 67
f 63 67 64
f 64 67 65
f 65 67 66
f 67 77 78
f 67 78 69
f 67 69 68
f 67 76 77
f 69 78 79
f 70 73 80
f 70 80 81
f 72 74 82
f 72 82 80
f 72 80 73
f 76 83 77
f 77 84 85
f 77 85 86
f 77 86 87
f 77 87 78
f 77 83 88
f 77 88 84
f 78 87 89
f 78 89 79
f 80 90 81
f 80 82 91
f 80 91 90
f 82 92 91
f 85 93 86
f 86 94 95
f 86 95 96
f 86 96 97
f 86 97 87
f 86 93 98
f 86 98 99
f 86 99 100
f 86 100 101
f 86 101 94
f 87 97 89
f 89 97 96
f 89 96 102
f 90 91 103
f 91 92 104
f 91 104 105
f 91 105 103
f 94 106 95
f 95 107 108
f 95 108 96
f 95 106 109
f 95 109 110
f 95 110 111
f 95 111 112
f 95 112 113
f 95 113 114
f 95 114 115
f 95 115 107
f 96 108 116
f 96 116 117
f 96 117 118
f 96 118 119
f 96 119 102
f 103 105 120
f 104 121 105
f 105 122 123
f 105 123 124
f 105 124 120
f 105 121 125
f 105 125 126
f 105 126 127
f 105 127 128
f 105 128 122
f 107 115 129
f 107 129 130
f 107 130 127
f 107 127 126
f 107 126 125
f 107 125 108
f 108 131 116
f 108 125 132
f 108 132 133
f 108 133 134
f 108 134 131
f 121 135 125
f 122 128 136
f 125 135 132
f 127 130 137
f 127 137 138
f 127 138 136
f 127 136 128
