v 0.423544 -0.10389 -0.793079
v 0.439958 -0.0870962 -0.787479
v 0.439527 -0.10389 -0.792393
v 0.423544 -0.119873 -0.790993
v 0.407528 -0.11859 -0.786009
v 0.399396 -0.112415 -0.783335
v 0.407031 -0.10509 -0.786527
v 0.412 -0.0909947 -0.785505
v 0.422434 -0.0865665 -0.787605
v 0.434906 -0.0783889 -0.784385
v 0.445556 -0.0812279 -0.781907
v 0.449962 -0.0918886 -0.785295
v 0.451634 -0.10389 -0.786527
v 0.450558 -0.116347 -0.785533
v 0.440504 -0.120957 -0.788109
v 0.435834 -0.129921 -0.785085
v 0.423544 -0.130741 -0.785715
v 0.412844 -0.12964 -0.784651
v 0.399396 -0.111224 -0.783335
v 0.402178 -0.123068 -0.780114
v 0.317609 -0.11571 -0.674564
v 0.315124 -0.10389 -0.676608
v 0.307158 -0.0879156 -0.667143
v 0.40135 -0.100571 -0.781416
v 0.416356 -0.0803422 -0.782859
v 0.427006 -0.0783889 -0.784385
v 0.439958 -0.0748049 -0.776026
v 0.422434 -0.0742007 -0.776586
v 0.449978 -0.0774949 -0.771252
v 0.453556 -0.0870962 -0.776026
v 0.463344 -0.0984522 -0.765344
v 0.460297 -0.103816 -0.773912
v 0.463676 -0.112291 -0.767738
v 0.446483 -0.127008 -0.782285
v 0.455659 -0.119649 -0.775004
v 0.440504 -0.133505 -0.77625
v 0.423544 -0.137569 -0.775186
v 0.407528 -0.132247 -0.774948
v 0.398534 -0.129036 -0.76946
v 0.321153 -0.12637 -0.669201
v 0.30469 -0.119873 -0.650063
v 0.297502 -0.1074 -0.650063
v 0.296243 -0.104693 -0.650063
v 0.301559 -0.10115 -0.658757
v 0.301228 -0.0879156 -0.659149
v 0.302537 -0.0787034 -0.656979
v 0.406302 -0.0861195 -0.77681
v 0.411271 -0.0764852 -0.772204
v 0.317642 -0.0781405 -0.673094
v 0.312921 -0.0730916 -0.661977
v 0.318851 -0.0633496 -0.656307
v 0.423544 -0.0669336 -0.759197
v 0.439527 -0.0688621 -0.759197
v 0.451701 -0.0760713 -0.759197
v 0.460363 -0.0890082 -0.759687
v 0.463808 -0.0950669 -0.754689
v 0.46399 -0.103816 -0.759687
v 0.463676 -0.109096 -0.767738
v 0.463874 -0.112738 -0.759197
v 0.459386 -0.120725 -0.759197
v 0.450111 -0.130443 -0.77163
v 0.439527 -0.138819 -0.759197
v 0.423544 -0.141318 -0.759197
v 0.32695 -0.131552 -0.663643
v 0.313915 -0.130095 -0.650063
v 0.317824 -0.129093 -0.658547
v 0.294967 -0.0909533 -0.650063
v 0.294785 -0.0870465 -0.650063
v 0.299969 -0.0763445 -0.650063
v 0.308615 -0.0684731 -0.650063
v 0.316598 -0.062224 -0.650063
v 0.327944 -0.0587063 -0.650063
v 0.329153 -0.0622488 -0.662313
v 0.330412 -0.0581186 -0.650063
v 0.343645 -0.056844 -0.650063
v 0.346395 -0.0567695 -0.650063
v 0.439527 -0.0702774 -0.743209
v 0.359628 -0.0583835 -0.650063
v 0.362212 -0.058938 -0.650063
v 0.450574 -0.0773129 -0.743209
v 0.463808 -0.0950669 -0.750041
v 0.463974 -0.10389 -0.747983
v 0.463825 -0.112606 -0.748081
v 0.45874 -0.118706 -0.742943
v 0.451403 -0.131726 -0.759197
v 0.449796 -0.130087 -0.743209
v 0.439527 -0.135475 -0.743209
v 0.359628 -0.136683 -0.650063
v 0.343645 -0.137006 -0.650063
v 0.343645 -0.136236 -0.663307
v 0.327546 -0.134805 -0.650063
v 0.448471 -0.0791421 -0.734094
v 0.371951 -0.0620833 -0.650063
v 0.45874 -0.0890082 -0.744105
v 0.462251 -0.10389 -0.740003
v 0.451601 -0.119873 -0.731728
v 0.447974 -0.128266 -0.734752
v 0.375744 -0.131709 -0.650063
v 0.45122 -0.0879156 -0.73107
v 0.379653 -0.0671322 -0.650063
v 0.381077 -0.0683158 -0.650063
v 0.388067 -0.0750201 -0.650063
v 0.394609 -0.0879156 -0.650063
v 0.454268 -0.10389 -0.728788
v 0.395454 -0.10389 -0.650063
v 0.390071 -0.116421 -0.650063
v 0.38858 -0.119807 -0.650063
v 0.386659 -0.122265 -0.650063
v 0.384108 -0.128315 -0.654319
v 0.378195 -0.130459 -0.650063
f 1 2 3
f 1 3 4
f 1 4 5
f 1 5 6
f 1 6 7
f 1 7 8
f 1 8 9
f 1 9 2
f 2 10 11
f 2 11 12
f 2 12 3
f 2 9 10
f 3 12 13
f 3 13 14
f 3 14 15
f 3 15 4
f 4 15 16
f 4 16 17
f 4 17 18
f 4 18 5
f 5 18 6
f 6 19 7
f 6 18 20
f 6 20 21
f 6 21 22
f 6 22 23
f 6 23 19
f 7 19 24
f 7 24 8
f 8 25 9
f 8 24 25
f 9 25 26
f 9 26 10
f 10 27 11
f 10 26 28
f 10 28 27
f 11 29 30
f 11 30 12
f 11 27 29
f 12 30 31
f 12 31 32
f 12 32 13
f 13 32 33
f 13 33 14
f 14 34 15
f 14 33 35
f 14 35 34
f 15 34 16
f 16 34 36
f 16 36 37
f 16 37 17
f 17 37 18
f 18 38 39
f 18 39 20
f 18 37 38
f 19 23 24
f 20 39 40
f 20 40 21
f 21 40 41
f 21 41 42
f 21 42 43
f 21 43 22
f 22 43 44
f 22 44 23
f 23 44 45
f 23 45 46
f 23 46 24
f 24 47 25
f 24 46 47
f 25 48 28
f 25 28 26
f 25 47 49
f 25 49 50
f 25 50 51
f 25 51 48
f 27 28 52
f 27 52 53
f 27 53 29
f 28 48 51
f 28 51 52
f 29 53 54
f 29 54 55
f 29 55 30
f 30 55 31
f 31 56 57
f 31 57 58
f 31 58 32
f 31 55 56
f 32 58 33
f 33 58 57
f 33 57 59
f 33 59 60
f 33 60 61
f 33 61 35
f 34 35 61
f 34 61 36
f 36 62 37
f 36 61 62
f 37 62 63
f 37 63 64
f 37 64 38
f 38 64 65
f 38 65 66
f 38 66 40
f 38 40 39
f 40 66 65
f 40 65 41
f 41 65 91
f 41 91 89
f 41 89 88
f 41 88 98
f 41 98 110
f 41 110 108
f 41 108 107
f 41 107 106
f 41 106 105
f 41 105 103
f 41 103 102
f 41 102 101
f 41 101 100
f 41 100 93
f 41 93 79
f 41 79 78
f 41 78 76
f 41 76 75
f 41 75 74
f 41 74 72
f 41 72 71
f 41 71 70
f 41 70 69
f 41 69 68
f 41 68 67
f 41 67 43
f 41 43 42
f 43 67 44
f 44 67 68
f 44 68 45
f 45 68 46
f 46 68 69
f 46 69 51
f 46 51 50
f 46 50 49
f 46 49 47
f 51 69 70
f 51 70 71
f 51 71 72
f 51 72 73
f 51 73 52
f 52 73 72
f 52 72 74
f 52 74 75
f 52 75 76
f 52 76 53
f 53 77 54
f 53 76 78
f 53 78 79
f 53 79 77
f 54 80 81
f 54 81 55
f 54 77 80
f 55 81 56
f 56 81 57
f 57 82 59
f 57 81 82
f 59 82 83
f 59 83 60
f 60 83 84
f 60 84 85
f 60 85 61
f 61 85 62
f 62 85 86
f 62 86 87
f 62 87 88
f 62 88 63
f 63 88 89
f 63 89 90
f 63 90 91
f 63 91 64
f 64 91 65
f 77 92 80
f 77 79 93
f 77 93 92
f 80 92 94
f 80 94 81
f 81 94 95
f 81 95 82
f 82 95 83
f 83 95 84
f 84 95 96
f 84 96 97
f 84 97 86
f 84 86 85
f 86 97 87
f 87 97 98
f 87 98 88
f 89 91 90
f 92 99 94
f 92 93 100
f 92 100 101
f 92 101 102
f 92 102 99
f 94 99 95
f 95 99 103
f 95 103 104
f 95 104 96
f 96 104 105
f 96 105 106
f 96 106 107
f 96 107 97
f 97 107 108
f 97 108 109
f 97 109 110
f 97 110 98
f 99 102 103
f 103 105 104
f 108 110 109
