v -0.328184 0.2051 -0.407058
v -0.34365 0.2051 -0.405022
v -0.34365 0.206096 -0.391589
v -0.391579 0.212305 -0.279714
v -0.391579 0.212889 -0.263731
v -0.391579 0.213227 -0.243293
v -0.382666 0.21098 -0.243293
v -0.379384 0.20996 -0.243293
v -0.368329 0.2051 -0.243293
v -0.352494 0.2051 -0.398722
v -0.370666 0.208094 -0.355008
v -0.407564 0.213959 -0.243293
v -0.391579 0.21131 -0.295696
v -0.396036 0.213593 -0.243293
v -0.444611 0.2051 -0.243293
v -0.359634 0.2051 -0.392631
v -0.359634 0.205253 -0.391589
v -0.386535 0.208194 -0.339009
v -0.391579 0.210141 -0.311678
v -0.41202 0.213352 -0.243293
v -0.407564 0.211166 -0.279714
v -0.445797 0.20513 -0.243293
v -0.44582 0.2051 -0.243485
v -0.371288 0.2051 -0.379919
v -0.375618 0.2051 -0.375158
v -0.397176 0.207435 -0.332854
v -0.391741 0.208729 -0.327564
v -0.423548 0.211678 -0.243293
v -0.420116 0.208989 -0.279714
v -0.423548 0.211292 -0.247749
v -0.400804 0.208088 -0.32221
v -0.408497 0.209386 -0.296353
v -0.442987 0.206312 -0.243293
v -0.444565 0.2051 -0.247749
v -0.391649 0.2051 -0.353693
v -0.406873 0.2051 -0.330738
v -0.406712 0.205699 -0.327564
v -0.41445 0.207552 -0.302108
v -0.434293 0.208576 -0.247749
v -0.434995 0.20877 -0.243293
v -0.417398 0.208315 -0.291464
v -0.430458 0.207496 -0.269198
v -0.424492 0.209561 -0.263812
v -0.432496 0.20809 -0.258538
v -0.442285 0.206056 -0.247749
v -0.438588 0.2051 -0.265078
v -0.410869 0.2051 -0.323652
v -0.417422 0.2051 -0.311678
v -0.423203 0.2051 -0.301034
v -0.423053 0.205901 -0.296353
v -0.428108 0.206785 -0.279714
v -0.438507 0.205306 -0.263812
v -0.43283 0.2051 -0.279714
v -0.425402 0.2051 -0.296257
f 1 2 3
f 1 3 4
f 1 4 5
f 1 5 6
f 1 6 7
f 1 7 8
f 1 8 9
f 1 9 15
f 1 15 23
f 1 23 34
f 1 34 46
f 1 46 53
f 1 53 54
f 1 54 49
f 1 49 48
f 1 48 47
f 1 47 36
f 1 36 35
f 1 35 25
f 1 25 24
f 1 24 16
f 1 16 10
f 1 10 2
f 2 10 11
f 2 11 3
f 3 11 4
f 4 12 5
f 4 11 13
f 4 13 12
f 5 12 14
f 5 14 6
f 6 14 12
f 6 12 20
f 6 20 28
f 6 28 40
f 6 40 33
f 6 33 22
f 6 22 15
f 6 15 9
f 6 9 8
f 6 8 7
f 10 16 17
f 10 17 11
f 11 17 18
f 11 18 19
f 11 19 13
f 12 13 19
f 12 19 21
f 12 21 20
f 15 22 23
f 16 24 17
f 17 24 25
f 17 25 18
f 18 26 27
f 18 27 19
f 18 25 26
f 19 27 21
f 20 21 28
f 21 29 30
f 21 30 28
f 21 27 31
f 21 31 32
f 21 32 29
f 22 33 23
f 23 33 34
f 25 35 26
f 26 35 36
f 26 36 37
f 26 37 38
f 26 38 31
f 26 31 27
f 28 30 39
f 28 39 40
f 29 32 41
f 29 41 42
f 29 42 43
f 29 43 30
f 30 43 44
f 30 44 39
f 31 38 41
f 31 41 32
f 33 40 39
f 33 39 44
f 33 44 45
f 33 45 34
f 34 45 46
f 36 47 37
f 37 47 38
f 38 47 48
f 38 48 49
f 38 49 50
f 38 50 41
f 41 51 42
f 41 50 51
f 42 46 52
f 42 52 45
f 42 45 44
f 42 44 43
f 42 51 53
f 42 53 46
f 45 52 46
f 49 54 50
f 50 54 51
f 51 54 53
