v 0.0328092 0.248123 0.611779
v 0.0442171 0.233548 0.609616
v 0.0946907 0.248123 0.604967
v 0.0328092 0.248123 0.538173
v 0.0328092 0.169419 0.606867
v 0.09471 0.233548 0.604057
v 0.0442171 0.195654 0.607251
v 0.0587239 0.195654 0.605654
v 0.0965888 0.248123 0.604623
v 0.101024 0.0757116 0.593504
v 0.230656 0.248123 0.46117
v 0.0328092 0.242208 0.405252
v 0.0328092 0.0188698 0.597466
v 0.09471 0.195654 0.601692
v 0.0328092 -0.0520325 0.593039
v 0.09471 -0.0190248 0.588288
v 0.107338 0.248123 0.602662
v 0.095969 -0.12122 0.581759
v 0.0878924 -0.554693 0.555559
v 0.101005 -0.126278 0.580869
v 0.230656 0.248123 0.550626
v 0.230656 0.242208 0.405252
v 0.0328092 -0.593016 0.405252
v 0.0568452 -0.157914 0.58378
v 0.0328092 -0.422919 0.569872
v 0.0694539 -0.498794 0.561098
v 0.0795447 -0.561894 0.556044
v 0.082082 -0.536688 0.557338
v 0.113904 0.137526 0.593605
v 0.119966 0.248123 0.598599
v 0.0858588 -0.561894 0.555336
v 0.09471 -0.574497 0.552708
v 0.0893257 -0.546291 0.555821
v 0.101179 -0.316437 0.568295
v 0.226685 0.248123 0.553537
v 0.230656 0.247437 0.550585
v 0.230656 -0.626024 0.405252
v 0.195444 -0.625938 0.405252
v 0.0328092 -0.622594 0.463737
v 0.0328092 -0.548091 0.562048
v 0.0328092 -0.573297 0.560471
v 0.0700737 -0.574669 0.556286
v 0.0816171 -0.574669 0.555013
v 0.115647 -0.0316277 0.581657
v 0.123046 -0.0190248 0.579616
v 0.125196 0.195654 0.59308
v 0.117797 0.183051 0.595121
v 0.119966 0.246237 0.598477
v 0.101779 -0.309321 0.568537
v 0.101799 -0.498794 0.555922
v 0.137204 0.248123 0.591887
v 0.0747027 -0.578955 0.555498
v 0.09471 -0.587186 0.549271
v 0.116093 -0.583328 0.543934
v 0.107338 -0.574497 0.548705
v 0.101179 -0.50591 0.55568
v 0.100094 -0.514312 0.555397
v 0.225562 0.248123 0.554346
v 0.225465 0.246237 0.554285
v 0.224806 0.233548 0.5538
v 0.223489 0.208343 0.552829
v 0.230656 0.195654 0.546603
v 0.230656 -0.625595 0.410427
v 0.220971 -0.627138 0.410427
v 0.220971 -0.627395 0.405252
v 0.208343 -0.627481 0.405252
v 0.0328092 -0.627052 0.473562
v 0.0328092 -0.574497 0.56039
v 0.118901 -0.18312 0.570296
v 0.127365 -0.157914 0.568679
v 0.196568 0.0188698 0.553496
v 0.198717 0.233548 0.56696
v 0.164126 0.240064 0.580869
v 0.134725 0.233548 0.591887
v 0.199957 0.248123 0.567446
v 0.107338 -0.561894 0.549554
v 0.11892 -0.561894 0.545046
v 0.126668 -0.545176 0.543146
v 0.0662775 -0.581956 0.555963
v 0.082082 -0.587186 0.551657
v 0.106951 -0.587357 0.54541
v 0.09471 -0.594731 0.544622
v 0.102496 -0.593873 0.54349
v 0.110902 -0.59173 0.541913
v 0.179775 -0.583757 0.518907
v 0.152117 -0.581613 0.530592
v 0.117836 -0.574497 0.544622
v 0.220197 0.248123 0.557964
v 0.217834 0.220946 0.557681
v 0.21518 0.170448 0.555963
v 0.214793 0.162989 0.5557
v 0.21518 0.00626681 0.543368
v 0.204199 -0.574497 0.506717
v 0.230656 -0.364963 0.503442
v 0.230656 -0.62148 0.422901
v 0.220971 -0.624223 0.423042
v 0.195715 -0.626024 0.435677
v 0.208343 -0.62671 0.423042
v 0.170459 -0.627052 0.448312
v 0.183087 -0.627395 0.435677
v 0.195715 -0.627653 0.423042
v 0.208343 -0.627738 0.410427
v 0.195715 -0.627481 0.410427
v 0.0328092 -0.627138 0.474775
v 0.0328092 -0.586157 0.557803
v 0.0442171 -0.585043 0.557176
v 0.0568452 -0.583414 0.556488
v 0.188898 -0.186464 0.542802
v 0.191338 -0.157914 0.543752
v 0.188917 -0.565324 0.517532
v 0.201642 -0.111361 0.542822
v 0.200887 0.069453 0.555174
v 0.208343 0.246237 0.563968
v 0.208343 0.248123 0.56409
v 0.202339 0.0865141 0.55574
v 0.15297 -0.574497 0.530935
v 0.181809 -0.574497 0.519695
v 0.184056 -0.56138 0.519695
v 0.0568452 -0.589758 0.553638
v 0.082082 -0.595674 0.545855
v 0.09471 -0.600046 0.536677
v 0.106951 -0.596874 0.537303
v 0.119966 -0.595845 0.533786
v 0.157831 -0.595159 0.520079
v 0.166179 -0.594045 0.518442
v 0.138521 -0.593273 0.530228
v 0.174585 -0.592159 0.516885
v 0.195812 -0.587186 0.508738
v 0.20325 -0.582985 0.506029
v 0.188123 -0.574497 0.517188
v 0.18363 -0.587615 0.515288
v 0.219248 0.248123 0.558591
v 0.219151 0.246237 0.55853
v 0.218492 0.233548 0.558106
v 0.214173 0.154501 0.555397
v 0.189556 -0.556836 0.517815
v 0.201894 -0.289517 0.530288
v 0.202378 -0.281029 0.530592
v 0.202882 -0.435608 0.518361
v 0.201913 -0.453612 0.517653
v 0.195715 -0.574497 0.512458
v 0.225426 -0.574497 0.49113
v 0.230656 -0.566438 0.487916
v 0.230656 -0.541061 0.489877
v 0.230656 -0.47496 0.494971
v 0.195735 -0.62148 0.448636
v 0.170459 -0.623966 0.460927
v 0.230656 -0.619936 0.426378
v 0.182196 -0.620622 0.460604
v 0.183087 -0.625081 0.448312
v 0.157831 -0.626281 0.460927
v 0.145203 -0.62731 0.460927
v 0.157831 -0.627738 0.448312
v 0.0328092 -0.627738 0.486197
v 0.0328092 -0.591901 0.555255
v 0.0442171 -0.591387 0.554346
v 0.208343 0.233548 0.563119
v 0.0568452 -0.596617 0.547331
v 0.0568452 -0.602961 0.537728
v 0.0694539 -0.602447 0.537041
v 0.0808618 -0.602618 0.535423
v 0.0842512 -0.605876 0.529884
v 0.0328092 -0.592502 0.554972
v 0.09471 -0.605104 0.528469
v 0.107338 -0.603733 0.526063
v 0.17042 -0.597131 0.512175
v 0.157831 -0.600646 0.511427
v 0.183087 -0.595931 0.508738
v 0.191667 -0.594473 0.506595
v 0.200073 -0.591387 0.503684
v 0.230656 -0.586414 0.483711
v 0.230656 -0.574497 0.487289
v 0.170459 -0.620108 0.469802
v 0.157211 -0.621308 0.474088
v 0.145203 -0.623795 0.473562
v 0.230656 -0.618651 0.429188
v 0.228254 -0.619079 0.430057
v 0.214096 -0.618565 0.44158
v 0.230656 -0.610677 0.446392
v 0.195735 -0.615993 0.460604
v 0.20079 -0.605705 0.47896
v 0.182196 -0.61505 0.472551
v 0.177374 -0.618908 0.467679
v 0.132575 -0.625509 0.473562
v 0.09471 -0.626109 0.486197
v 0.119966 -0.626795 0.473562
v 0.082082 -0.627138 0.486197
v 0.107338 -0.627481 0.473562
v 0.132575 -0.627653 0.460927
v 0.09471 -0.627738 0.473562
v 0.0442171 -0.627738 0.486197
v 0.0328092 -0.625509 0.498812
v 0.0328092 -0.597474 0.548665
v 0.0328092 -0.603818 0.539062
v 0.0758454 -0.606133 0.530369
v 0.0442171 -0.620708 0.508516
v 0.0694539 -0.619851 0.507121
v 0.082082 -0.619251 0.50609
v 0.0888802 -0.618822 0.505322
v 0.09471 -0.608534 0.522162
v 0.123414 -0.605533 0.516622
v 0.170459 -0.603904 0.501157
v 0.182584 -0.602447 0.498003
v 0.195812 -0.597045 0.499216
v 0.205806 -0.595159 0.495274
v 0.22837 -0.593959 0.480618
v 0.214231 -0.593102 0.492181
v 0.230656 -0.592673 0.479789
v 0.182584 -0.608448 0.486238
v 0.178032 -0.606476 0.493232
v 0.160988 -0.61805 0.478636
v 0.170459 -0.607334 0.494829
v 0.157831 -0.608705 0.497296
v 0.146171 -0.609734 0.499964
v 0.124944 -0.618479 0.491979
v 0.132575 -0.621051 0.484176
v 0.120431 -0.621908 0.487127
v 0.107338 -0.624566 0.486197
v 0.0937416 -0.621051 0.499196
v 0.230656 -0.606476 0.455368
v 0.223373 -0.604761 0.464364
v 0.196238 -0.603733 0.486238
v 0.186438 -0.60519 0.490463
v 0.082082 -0.623194 0.498812
v 0.0694539 -0.627567 0.486197
v 0.0694539 -0.624223 0.498812
v 0.0568452 -0.624738 0.498812
v 0.0568452 -0.627653 0.486197
v 0.0442171 -0.625166 0.498812
v 0.0328092 -0.621051 0.509122
v 0.0328092 -0.607505 0.532735
v 0.0328092 -0.620708 0.509729
v 0.0973054 -0.617965 0.503684
v 0.157831 -0.605276 0.503603
v 0.230656 -0.597217 0.473259
v 0.230656 -0.603476 0.461534
v 0.230656 -0.595074 0.47708
f 1 2 3
f 1 3 9
f 1 9 17
f 1 17 30
f 1 30 51
f 1 51 75
f 1 75 114
f 1 114 132
f 1 132 88
f 1 88 58
f 1 58 35
f 1 35 21
f 1 21 11
f 1 11 4
f 1 4 12
f 1 12 23
f 1 23 39
f 1 39 67
f 1 67 104
f 1 104 154
f 1 154 192
f 1 192 230
f 1 230 232
f 1 232 231
f 1 231 194
f 1 194 193
f 1 193 163
f 1 163 155
f 1 155 105
f 1 105 68
f 1 68 41
f 1 41 40
f 1 40 25
f 1 25 15
f 1 15 13
f 1 13 5
f 1 5 7
f 1 7 2
f 2 6 3
f 2 7 8
f 2 8 6
f 3 6 10
f 3 10 9
f 4 11 12
f 5 13 7
f 6 8 14
f 6 14 10
f 7 13 15
f 7 15 16
f 7 16 8
f 8 16 14
f 9 10 17
f 10 16 18
f 10 18 19
f 10 19 20
f 10 20 17
f 10 14 16
f 11 21 36
f 11 36 62
f 11 62 94
f 11 94 145
f 11 145 144
f 11 144 143
f 11 143 172
f 11 172 171
f 11 171 208
f 11 208 237
f 11 237 235
f 11 235 236
f 11 236 220
f 11 220 179
f 11 179 176
f 11 176 148
f 11 148 95
f 11 95 63
f 11 63 37
f 11 37 22
f 11 22 12
f 12 22 37
f 12 37 65
f 12 65 66
f 12 66 38
f 12 38 23
f 15 24 16
f 15 25 24
f 16 24 25
f 16 25 26
f 16 26 27
f 16 27 28
f 16 28 18
f 17 29 30
f 17 20 29
f 18 28 19
f 19 28 31
f 19 31 32
f 19 32 33
f 19 33 20
f 20 33 34
f 20 34 29
f 21 35 36
f 23 38 39
f 25 40 27
f 25 27 26
f 27 40 41
f 27 41 42
f 27 42 43
f 27 43 28
f 28 43 31
f 29 44 45
f 29 45 46
f 29 46 47
f 29 47 48
f 29 48 30
f 29 34 49
f 29 49 50
f 29 50 44
f 30 48 51
f 31 43 32
f 32 43 52
f 32 52 53
f 32 53 54
f 32 54 55
f 32 55 56
f 32 56 57
f 32 57 34
f 32 34 33
f 34 57 56
f 34 56 50
f 34 50 49
f 35 58 59
f 35 59 36
f 36 59 60
f 36 60 61
f 36 61 62
f 37 63 64
f 37 64 65
f 38 66 67
f 38 67 39
f 41 68 52
f 41 52 42
f 42 52 43
f 44 69 45
f 44 50 69
f 45 69 70
f 45 70 71
f 45 71 72
f 45 72 46
f 46 72 73
f 46 73 74
f 46 74 48
f 46 48 47
f 48 74 73
f 48 73 75
f 48 75 51
f 50 56 55
f 50 55 76
f 50 76 77
f 50 77 78
f 50 78 69
f 52 68 79
f 52 79 80
f 52 80 53
f 53 81 54
f 53 80 82
f 53 82 83
f 53 83 81
f 54 81 84
f 54 84 127
f 54 127 85
f 54 85 86
f 54 86 55
f 55 86 87
f 55 87 76
f 58 88 59
f 59 88 89
f 59 89 90
f 59 90 91
f 59 91 60
f 60 91 61
f 61 91 92
f 61 92 62
f 62 92 93
f 62 93 94
f 63 95 96
f 63 96 97
f 63 97 98
f 63 98 64
f 64 98 99
f 64 99 100
f 64 100 101
f 64 101 102
f 64 102 65
f 65 102 66
f 66 102 103
f 66 103 67
f 67 103 104
f 68 105 106
f 68 106 107
f 68 107 79
f 69 78 70
f 70 78 71
f 71 78 108
f 71 108 109
f 71 109 110
f 71 110 111
f 71 111 112
f 71 112 72
f 72 75 73
f 72 112 75
f 75 113 114
f 75 112 115
f 75 115 113
f 76 87 77
f 77 87 116
f 77 116 78
f 78 116 117
f 78 117 118
f 78 118 108
f 79 107 80
f 80 107 119
f 80 119 120
f 80 120 82
f 81 83 84
f 82 120 121
f 82 121 83
f 83 121 122
f 83 122 123
f 83 123 124
f 83 124 125
f 83 125 126
f 83 126 84
f 84 126 127
f 85 128 129
f 85 129 130
f 85 130 86
f 85 127 131
f 85 131 128
f 86 130 117
f 86 117 116
f 86 116 87
f 88 132 133
f 88 133 134
f 88 134 89
f 89 134 114
f 89 114 90
f 90 114 91
f 91 114 113
f 91 113 135
f 91 135 110
f 91 110 136
f 91 136 137
f 91 137 138
f 91 138 139
f 91 139 92
f 92 139 93
f 93 139 140
f 93 140 141
f 93 141 129
f 93 129 142
f 93 142 143
f 93 143 144
f 93 144 145
f 93 145 94
f 95 146 147
f 95 147 96
f 95 148 149
f 95 149 146
f 96 147 150
f 96 150 97
f 97 151 99
f 97 99 98
f 97 150 151
f 99 152 153
f 99 153 100
f 99 151 152
f 100 153 101
f 101 153 102
f 102 153 190
f 102 190 191
f 102 191 154
f 102 154 103
f 103 154 104
f 105 155 106
f 106 155 156
f 106 156 107
f 107 156 119
f 108 118 109
f 109 118 110
f 110 118 117
f 110 117 130
f 110 130 141
f 110 141 136
f 110 135 111
f 111 135 157
f 111 157 113
f 111 113 115
f 111 115 112
f 113 157 135
f 114 134 133
f 114 133 132
f 119 156 120
f 120 158 159
f 120 159 160
f 120 160 161
f 120 161 162
f 120 162 121
f 120 156 163
f 120 163 158
f 121 162 164
f 121 164 165
f 121 165 122
f 122 166 124
f 122 124 123
f 122 165 167
f 122 167 166
f 124 166 125
f 125 166 168
f 125 168 127
f 125 127 126
f 127 168 169
f 127 169 131
f 128 131 169
f 128 169 170
f 128 170 129
f 129 170 171
f 129 171 172
f 129 172 142
f 129 141 130
f 136 141 137
f 137 141 140
f 137 140 139
f 137 139 138
f 142 172 143
f 146 149 147
f 147 149 173
f 147 173 174
f 147 174 175
f 147 175 151
f 147 151 150
f 148 176 177
f 148 177 149
f 149 177 178
f 149 178 179
f 149 179 180
f 149 180 181
f 149 181 182
f 149 182 183
f 149 183 173
f 151 175 184
f 151 184 185
f 151 185 186
f 151 186 152
f 152 186 187
f 152 187 188
f 152 188 189
f 152 189 153
f 153 189 190
f 154 191 192
f 155 163 156
f 158 193 194
f 158 194 159
f 158 163 193
f 159 194 162
f 159 162 161
f 159 161 160
f 162 194 195
f 162 195 196
f 162 196 197
f 162 197 198
f 162 198 199
f 162 199 164
f 164 199 200
f 164 200 201
f 164 201 165
f 165 201 202
f 165 202 167
f 166 167 202
f 166 202 168
f 168 202 203
f 168 203 169
f 169 203 204
f 169 204 205
f 169 205 206
f 169 206 207
f 169 207 170
f 170 207 171
f 171 207 208
f 173 183 209
f 173 209 210
f 173 210 174
f 174 211 212
f 174 212 213
f 174 213 214
f 174 214 215
f 174 215 216
f 174 216 217
f 174 217 175
f 174 210 211
f 175 218 184
f 175 217 219
f 175 219 218
f 176 179 177
f 177 179 178
f 179 220 181
f 179 181 180
f 181 220 221
f 181 221 222
f 181 222 223
f 181 223 182
f 182 223 209
f 182 209 183
f 184 218 185
f 185 187 186
f 185 218 224
f 185 224 226
f 185 226 187
f 187 225 188
f 187 226 227
f 187 227 229
f 187 229 225
f 188 225 190
f 188 190 189
f 190 225 228
f 190 228 191
f 191 228 192
f 192 229 230
f 192 228 225
f 192 225 229
f 194 231 195
f 195 231 196
f 196 232 230
f 196 230 226
f 196 226 197
f 196 231 232
f 197 226 224
f 197 224 198
f 198 224 199
f 199 224 219
f 199 219 216
f 199 216 233
f 199 233 200
f 200 233 201
f 201 234 202
f 201 233 215
f 201 215 214
f 201 214 213
f 201 213 234
f 202 234 213
f 202 213 212
f 202 212 210
f 202 210 203
f 203 210 223
f 203 223 204
f 204 235 205
f 204 223 222
f 204 222 236
f 204 236 235
f 205 237 206
f 205 235 237
f 206 237 208
f 206 208 207
f 209 223 210
f 210 212 211
f 215 233 216
f 216 219 217
f 218 219 224
f 220 236 221
f 221 236 222
f 226 230 227
f 227 230 229
