v 0.0327899 0.24816 0.538198
v 0.17955 0.24816 0.497013
v 0.0327899 0.24816 0.611771
v 0.0327899 0.587166 0.566914
v 0.17955 0.24816 0.57539
v 0.17955 0.587166 0.527526
v 0.0334507 0.24816 0.611705
v 0.0327899 0.258878 0.61245
v 0.0327899 0.594917 0.567646
v 0.17955 0.255281 0.575869
v 0.16484 0.248568 0.581152
v 0.165443 0.24816 0.580886
v 0.17955 0.59132 0.527951
v 0.0946919 0.24816 0.604971
v 0.0947206 0.29678 0.608005
v 0.0442106 0.511399 0.626968
v 0.0327899 0.462111 0.625145
v 0.0327899 0.596178 0.567805
v 0.17955 0.267445 0.576681
v 0.172037 0.258878 0.579036
v 0.136884 0.258878 0.592729
v 0.135965 0.24816 0.59237
v 0.17955 0.598218 0.52887
v 0.107334 0.24816 0.602669
v 0.100984 0.277904 0.606129
v 0.0991309 0.473534 0.618558
v 0.0947206 0.536655 0.622989
v 0.0327899 0.587166 0.632956
v 0.0327899 0.602446 0.568937
v 0.17955 0.29678 0.578637
v 0.119961 0.29678 0.601844
v 0.119961 0.258878 0.599316
v 0.121541 0.24816 0.597985
v 0.119961 0.460887 0.612783
v 0.17955 0.599961 0.529189
v 0.119961 0.24816 0.598598
v 0.112865 0.318587 0.605943
v 0.11387 0.516443 0.618851
v 0.112549 0.508024 0.618571
v 0.107334 0.587166 0.624519
v 0.100955 0.479987 0.618757
v 0.0947206 0.587166 0.626143
v 0.0420989 0.597402 0.631851
v 0.0327899 0.588353 0.632943
v 0.0327899 0.611346 0.573275
v 0.177697 0.604263 0.530759
v 0.17955 0.602594 0.529695
v 0.17955 0.536617 0.594619
v 0.116686 0.359901 0.607327
v 0.11387 0.327006 0.606222
v 0.17955 0.574965 0.597174
v 0.153994 0.574557 0.607101
v 0.145216 0.587166 0.611359
v 0.121915 0.536655 0.617067
v 0.125147 0.574557 0.618332
v 0.114517 0.524045 0.619103
v 0.115594 0.536655 0.619516
v 0.118841 0.574557 0.620753
v 0.120981 0.587277 0.620767
v 0.120593 0.599182 0.62062
v 0.107334 0.599813 0.624133
v 0.0947206 0.599813 0.62573
v 0.0375737 0.605821 0.631359
v 0.0327899 0.601036 0.63245
v 0.0327899 0.600888 0.632463
v 0.0327899 0.612348 0.57386
v 0.17955 0.607489 0.531957
v 0.17955 0.587166 0.597985
v 0.126598 0.591579 0.61889
v 0.131526 0.587277 0.616695
v 0.126598 0.594546 0.61889
v 0.125233 0.602965 0.618332
v 0.116815 0.60812 0.619982
v 0.107334 0.609863 0.621046
v 0.0947206 0.61105 0.621845
v 0.0327899 0.61168 0.628019
v 0.0327899 0.611495 0.628139
v 0.17955 0.612607 0.535031
v 0.0327899 0.619023 0.578877
v 0.17955 0.600109 0.59756
v 0.154583 0.599813 0.607327
v 0.152888 0.607044 0.606661
v 0.120593 0.612385 0.615258
v 0.107334 0.616168 0.616429
v 0.17955 0.608787 0.595071
v 0.145216 0.609232 0.608125
v 0.136669 0.617762 0.605131
v 0.0947206 0.617354 0.617427
v 0.0820931 0.618244 0.618238
v 0.0752838 0.618689 0.618691
v 0.0668654 0.619097 0.619157
v 0.0568381 0.61958 0.619689
v 0.0442106 0.620062 0.620314
v 0.0327899 0.620433 0.62086
v 0.17955 0.614981 0.536907
v 0.0327899 0.619876 0.579555
v 0.17955 0.607601 0.595564
v 0.12825 0.619357 0.606901
v 0.119961 0.620395 0.608378
v 0.107334 0.621471 0.610108
v 0.17955 0.614276 0.590933
v 0.172755 0.616835 0.591744
v 0.164337 0.618801 0.593581
v 0.0947206 0.621953 0.611119
v 0.0327899 0.62084 0.620101
v 0.0568381 0.623474 0.61245
v 0.17955 0.619988 0.541338
v 0.17955 0.62084 0.542935
v 0.0327899 0.623511 0.586408
v 0.157844 0.619691 0.594739
v 0.17955 0.620729 0.584452
v 0.145216 0.621137 0.597081
v 0.132503 0.621879 0.600474
v 0.119961 0.624438 0.599822
v 0.107334 0.625847 0.599822
v 0.17955 0.619283 0.586289
v 0.0442106 0.624141 0.61245
v 0.0327899 0.624623 0.61245
v 0.0327899 0.623919 0.587194
v 0.17955 0.62377 0.549136
v 0.17955 0.623807 0.577879
v 0.157844 0.623511 0.587194
v 0.17955 0.625105 0.574565
v 0.145216 0.625439 0.587194
v 0.132589 0.626552 0.587194
v 0.0947206 0.626441 0.599822
v 0.0327899 0.62492 0.611226
v 0.17955 0.625105 0.552875
v 0.0327899 0.6267 0.598598
v 0.17955 0.626737 0.56549
v 0.170471 0.626144 0.574565
v 0.157844 0.626886 0.574565
v 0.119961 0.626886 0.587194
v 0.0694656 0.626811 0.599822
v 0.0568381 0.626923 0.599822
v 0.0442106 0.626997 0.599822
v 0.0327899 0.62696 0.599822
v 0.170471 0.626589 0.56195
v 0.17955 0.626848 0.56195
f 1 2 5
f 1 5 12
f 1 12 22
f 1 22 33
f 1 33 36
f 1 36 24
f 1 24 14
f 1 14 7
f 1 7 3
f 1 3 8
f 1 8 17
f 1 17 28
f 1 28 44
f 1 44 65
f 1 65 64
f 1 64 77
f 1 77 76
f 1 76 94
f 1 94 105
f 1 105 118
f 1 118 127
f 1 127 137
f 1 137 129
f 1 129 119
f 1 119 109
f 1 109 96
f 1 96 79
f 1 79 66
f 1 66 45
f 1 45 29
f 1 29 18
f 1 18 9
f 1 9 4
f 1 4 2
f 2 4 6
f 2 6 13
f 2 13 23
f 2 23 35
f 2 35 47
f 2 47 67
f 2 67 78
f 2 78 95
f 2 95 107
f 2 107 108
f 2 108 120
f 2 120 128
f 2 128 139
f 2 139 130
f 2 130 123
f 2 123 121
f 2 121 111
f 2 111 116
f 2 116 101
f 2 101 85
f 2 85 97
f 2 97 80
f 2 80 68
f 2 68 51
f 2 51 48
f 2 48 30
f 2 30 19
f 2 19 10
f 2 10 5
f 3 7 8
f 4 9 6
f 5 10 11
f 5 11 12
f 6 9 13
f 7 14 8
f 8 14 15
f 8 15 16
f 8 16 17
f 9 18 13
f 10 19 20
f 10 20 11
f 11 20 21
f 11 21 22
f 11 22 12
f 13 18 23
f 14 24 25
f 14 25 26
f 14 26 15
f 15 26 27
f 15 27 16
f 16 27 28
f 16 28 17
f 18 29 23
f 19 21 20
f 19 30 21
f 21 31 32
f 21 32 33
f 21 33 22
f 21 30 34
f 21 34 31
f 23 29 35
f 24 36 37
f 24 37 38
f 24 38 25
f 25 38 39
f 25 39 40
f 25 40 41
f 25 41 26
f 26 41 42
f 26 42 27
f 27 42 28
f 28 42 43
f 28 43 44
f 29 45 46
f 29 46 47
f 29 47 35
f 30 48 34
f 31 34 49
f 31 49 32
f 32 36 33
f 32 49 50
f 32 50 36
f 34 48 51
f 34 51 52
f 34 52 53
f 34 53 54
f 34 54 38
f 34 38 49
f 36 50 37
f 37 50 38
f 38 54 55
f 38 55 56
f 38 56 40
f 38 40 39
f 38 50 49
f 40 56 57
f 40 57 58
f 40 58 59
f 40 59 60
f 40 60 61
f 40 61 42
f 40 42 41
f 42 61 62
f 42 62 43
f 43 62 63
f 43 63 64
f 43 64 65
f 43 65 44
f 45 66 67
f 45 67 46
f 46 67 47
f 51 68 53
f 51 53 52
f 53 68 69
f 53 69 70
f 53 70 55
f 53 55 54
f 55 70 69
f 55 69 59
f 55 59 56
f 56 59 58
f 56 58 57
f 59 69 71
f 59 71 60
f 60 72 73
f 60 73 61
f 60 71 72
f 61 63 62
f 61 73 74
f 61 74 63
f 63 74 75
f 63 75 76
f 63 76 77
f 63 77 64
f 66 78 67
f 66 79 78
f 68 71 69
f 68 80 71
f 71 80 81
f 71 81 72
f 72 81 80
f 72 80 82
f 72 82 73
f 73 83 84
f 73 84 74
f 73 82 85
f 73 85 86
f 73 86 87
f 73 87 83
f 74 84 88
f 74 88 75
f 75 88 89
f 75 89 90
f 75 90 76
f 76 90 91
f 76 91 92
f 76 92 93
f 76 93 94
f 78 79 95
f 79 96 95
f 80 97 82
f 82 97 85
f 83 87 98
f 83 98 84
f 84 98 99
f 84 99 100
f 84 100 88
f 85 101 102
f 85 102 103
f 85 103 86
f 86 103 87
f 87 103 98
f 88 100 89
f 89 100 90
f 90 100 104
f 90 104 91
f 91 104 92
f 92 104 93
f 93 105 94
f 93 104 106
f 93 106 105
f 95 96 107
f 96 108 107
f 96 109 108
f 98 103 110
f 98 110 99
f 99 110 111
f 99 111 112
f 99 112 113
f 99 113 114
f 99 114 100
f 100 114 115
f 100 115 104
f 101 116 102
f 102 116 103
f 103 116 111
f 103 111 110
f 104 115 106
f 105 106 117
f 105 117 118
f 106 115 117
f 108 109 119
f 108 119 120
f 111 121 122
f 111 122 112
f 112 122 113
f 113 122 114
f 114 122 121
f 114 121 123
f 114 123 124
f 114 124 115
f 115 125 126
f 115 126 117
f 115 124 131
f 115 131 125
f 117 126 118
f 118 126 127
f 119 128 120
f 119 129 128
f 123 130 131
f 123 131 124
f 125 131 132
f 125 132 133
f 125 133 126
f 126 133 134
f 126 134 127
f 127 134 135
f 127 135 136
f 127 136 137
f 128 129 138
f 128 138 139
f 129 137 138
f 130 139 132
f 130 132 131
f 132 139 136
f 132 136 133
f 133 136 135
f 133 135 134
f 136 139 137
f 137 139 138
