v -0.250712 0.250068 0.537506
v -0.250712 0.250068 0.447039
v -0.319057 0.250068 0.482594
v -0.307091 0.248091 0.492145
v -0.250712 -0.564841 0.472643
v -0.377682 0.250068 0.166489
v -0.250712 0.242162 0.166489
v -0.327595 0.250068 0.473878
v -0.315649 0.0260621 0.467086
v -0.318263 0.23357 0.48194
v -0.317663 0.220939 0.481432
v -0.315591 0.178063 0.479725
v -0.29046 -0.39136 0.454557
v -0.294178 -0.157903 0.470173
v -0.275049 -0.574551 0.452342
v -0.251467 -0.580222 0.470173
v -0.250712 -0.591392 0.465597
v -0.448485 0.250068 0.168522
v -0.44196 0.14017 0.166489
v -0.250712 -0.592939 0.166489
v -0.334991 0.250068 0.464254
v -0.329473 0.220939 0.468721
v -0.317101 -0.0568552 0.456446
v -0.290402 -0.542243 0.441846
v -0.2826 -0.574551 0.446022
v -0.259018 -0.587783 0.460985
v -0.266898 -0.58933 0.453685
v -0.279076 -0.590361 0.443008
v -0.271525 -0.595001 0.444679
v -0.253326 -0.595774 0.457826
v -0.250751 -0.603164 0.445623
v -0.250712 -0.608405 0.434474
v -0.445193 0.250068 0.19961
v -0.447362 0.23357 0.17052
v -0.446762 0.246201 0.183158
v -0.439482 0.107261 0.17052
v -0.445 0.195677 0.17052
v -0.416965 -0.260153 0.166489
v -0.250712 -0.626449 0.342845
v -0.301419 -0.623184 0.166489
v -0.366626 0.250068 0.421109
v -0.382522 0.248091 0.399246
v -0.378669 0.241905 0.403858
v -0.382987 0.23357 0.397103
v -0.343606 0.183046 0.445514
v -0.325097 0.107261 0.462765
v -0.315552 -0.578503 0.403822
v -0.296385 -0.524027 0.435636
v -0.291351 -0.574551 0.437016
v -0.289821 -0.586494 0.434074
v -0.290189 -0.593197 0.428953
v -0.280896 -0.595259 0.435636
v -0.271525 -0.599727 0.435636
v -0.259638 -0.597751 0.449109
v -0.264671 -0.605913 0.428844
v -0.256269 -0.60746 0.432258
v -0.250712 -0.613561 0.422961
v -0.439637 0.250068 0.250127
v -0.443799 0.220939 0.195797
v -0.442018 0.226524 0.215154
v -0.438282 0.132523 0.195797
v -0.419947 -0.18325 0.183158
v -0.40409 -0.466028 0.166489
v -0.398456 -0.549289 0.17052
v -0.250712 -0.627566 0.355411
v -0.311409 -0.627051 0.166489
v -0.41348 0.250068 0.334347
v -0.391525 0.249036 0.386426
v -0.374468 0.132523 0.39812
v -0.378998 0.010166 0.379053
v -0.377023 0.0189303 0.382685
v -0.34926 -0.435611 0.37288
v -0.347537 -0.220971 0.397757
v -0.3432 -0.549289 0.369211
v -0.326646 -0.574551 0.389113
v -0.339908 -0.574551 0.371027
v -0.341651 -0.585721 0.364454
v -0.304032 -0.583057 0.417949
v -0.30169 -0.591478 0.41479
v -0.327808 -0.592853 0.378073
v -0.316249 -0.593798 0.3922
v -0.293287 -0.595173 0.420528
v -0.285252 -0.598094 0.424051
v -0.270402 -0.606085 0.422198
v -0.251583 -0.618888 0.409705
v -0.250712 -0.624044 0.39536
v -0.438378 0.250068 0.260805
v -0.437643 0.23357 0.258916
v -0.436481 0.170415 0.233676
v -0.435281 0.195677 0.258916
v -0.419347 -0.170619 0.195797
v -0.3941 -0.574551 0.195797
v -0.389937 -0.574551 0.233676
v -0.396965 -0.574551 0.168522
v -0.368969 -0.607718 0.166489
v -0.250712 -0.627652 0.368049
v -0.322038 -0.627738 0.166489
v -0.408291 0.248091 0.347312
v -0.399947 0.249036 0.368812
v -0.42318 0.250068 0.309433
v -0.415707 0.23357 0.325812
v -0.416984 0.197911 0.316443
v -0.377972 -0.18325 0.351416
v -0.392822 0.220939 0.38116
v -0.39166 0.186226 0.379162
v -0.366355 -0.267714 0.366451
v -0.353597 -0.442227 0.366197
v -0.347265 -0.574551 0.359878
v -0.352299 -0.574551 0.350363
v -0.352261 -0.584862 0.344843
v -0.342096 -0.594314 0.355447
v -0.330886 -0.595001 0.369647
v -0.322967 -0.597922 0.373315
v -0.297198 -0.597063 0.410504
v -0.296172 -0.602734 0.397394
v -0.288486 -0.60514 0.401352
v -0.28078 -0.605484 0.410541
v -0.260586 -0.61906 0.398701
v -0.258902 -0.624044 0.385118
v -0.258902 -0.626621 0.37248
v -0.250712 -0.626965 0.380651
v -0.429356 0.113018 0.26538
v -0.436094 0.249036 0.273443
v -0.429104 0.104597 0.263165
v -0.41743 -0.133156 0.234474
v -0.407672 -0.246233 0.258916
v -0.416481 -0.0974975 0.263201
v -0.391622 -0.577816 0.21628
v -0.388543 -0.574551 0.246278
v -0.389337 -0.56192 0.246278
v -0.376888 -0.602906 0.167505
v -0.391583 -0.591048 0.16914
v -0.391854 -0.588643 0.183158
v -0.391873 -0.582198 0.208399
v -0.345349 -0.621208 0.168522
v -0.35987 -0.612873 0.17052
v -0.368195 -0.607288 0.183158
v -0.258902 -0.627652 0.359878
v -0.271525 -0.627738 0.334674
v -0.322038 -0.627738 0.183158
v -0.334661 -0.625676 0.168522
v -0.392338 0.132523 0.368449
v -0.397488 0.23357 0.37248
v -0.432628 0.248091 0.28481
v -0.421244 0.220939 0.309433
v -0.418882 0.107261 0.296069
v -0.4062 -0.157903 0.283285
v -0.39137 0.177805 0.378618
v -0.393596 0.170415 0.371681
v -0.366065 -0.276049 0.365907
v -0.353693 -0.532276 0.353813
v -0.353422 -0.540697 0.353159
v -0.383838 -0.56192 0.271554
v -0.382987 -0.574551 0.271554
v -0.37925 -0.582112 0.278963
v -0.365523 -0.592509 0.301407
v -0.343955 -0.595517 0.347312
v -0.333519 -0.602047 0.346295
v -0.334913 -0.596805 0.359733
v -0.309976 -0.604539 0.373751
v -0.294429 -0.607976 0.385118
v -0.266975 -0.619575 0.388605
v -0.284149 -0.624903 0.347312
v -0.271525 -0.625934 0.359878
v -0.272397 -0.622153 0.373243
v -0.296772 -0.623614 0.334674
v -0.284149 -0.626965 0.334674
v -0.271525 -0.627395 0.347312
v -0.416752 -0.0890769 0.26538
v -0.404129 -0.290914 0.265344
v -0.429182 0.15366 0.277256
v -0.429608 0.166205 0.278564
v -0.403858 -0.29942 0.263201
v -0.385174 -0.587182 0.246278
v -0.386646 -0.574551 0.258916
v -0.391428 -0.517325 0.252452
v -0.373132 -0.602648 0.208399
v -0.384129 -0.597235 0.183158
v -0.383432 -0.596805 0.195797
v -0.38198 -0.59586 0.221037
v -0.380508 -0.594829 0.246278
v -0.391157 -0.587268 0.195797
v -0.343935 -0.620435 0.195797
v -0.334661 -0.625332 0.183158
v -0.334661 -0.624903 0.195797
v -0.334661 -0.623872 0.221037
v -0.342541 -0.619661 0.221037
v -0.365426 -0.605656 0.233676
v -0.284149 -0.627738 0.322035
v -0.309395 -0.627738 0.258916
v -0.322038 -0.627652 0.208399
v -0.322038 -0.62748 0.221037
v -0.322038 -0.627223 0.233676
v -0.430169 0.183046 0.280016
v -0.391544 -0.481323 0.265489
v -0.383238 -0.587182 0.258916
v -0.378785 -0.588557 0.272063
v -0.379192 -0.593712 0.262148
v -0.372822 -0.59629 0.270356
v -0.357624 -0.59629 0.309433
v -0.33621 -0.603422 0.334674
v -0.326278 -0.606429 0.344734
v -0.313597 -0.607288 0.360822
v -0.308253 -0.61485 0.346223
v -0.298263 -0.618888 0.347966
v -0.296772 -0.625848 0.322035
v -0.307808 -0.617943 0.336308
v -0.308001 -0.62138 0.322035
v -0.296772 -0.627051 0.309433
v -0.391273 -0.489743 0.264182
v -0.372512 -0.600328 0.246278
v -0.372512 -0.598782 0.258916
v -0.338243 -0.621208 0.233676
v -0.322038 -0.626707 0.246278
v -0.322038 -0.625676 0.258916
v -0.332938 -0.621208 0.258916
v -0.338979 -0.619747 0.246895
v -0.361573 -0.60703 0.246278
v -0.309395 -0.627395 0.271554
v -0.360199 -0.606257 0.258916
v -0.357953 -0.604968 0.271554
v -0.346588 -0.603078 0.309615
v -0.339463 -0.605312 0.317968
v -0.309395 -0.624989 0.296795
v -0.317256 -0.619575 0.307036
v -0.322038 -0.624044 0.271554
v -0.310596 -0.622239 0.310523
v -0.327304 -0.618201 0.287825
v -0.347304 -0.613475 0.258916
v -0.349744 -0.606773 0.284592
v -0.343606 -0.607546 0.296795
f 1 2 6
f 1 6 18
f 1 18 33
f 1 33 58
f 1 58 87
f 1 87 100
f 1 100 67
f 1 67 41
f 1 41 21
f 1 21 8
f 1 8 3
f 1 3 4
f 1 4 5
f 1 5 17
f 1 17 32
f 1 32 57
f 1 57 86
f 1 86 121
f 1 121 96
f 1 96 65
f 1 65 39
f 1 39 20
f 1 20 7
f 1 7 2
f 2 7 6
f 3 8 9
f 3 9 10
f 3 10 4
f 4 10 11
f 4 11 12
f 4 12 13
f 4 13 14
f 4 14 15
f 4 15 5
f 5 15 16
f 5 16 17
f 6 7 20
f 6 20 40
f 6 40 66
f 6 66 97
f 6 97 95
f 6 95 63
f 6 63 38
f 6 38 19
f 6 19 18
f 8 21 22
f 8 22 9
f 9 23 24
f 9 24 13
f 9 13 12
f 9 12 11
f 9 11 10
f 9 22 23
f 13 24 25
f 13 25 15
f 13 15 14
f 15 25 16
f 16 26 17
f 16 25 26
f 17 26 27
f 17 27 28
f 17 28 29
f 17 29 30
f 17 30 31
f 17 31 32
f 18 19 34
f 18 34 35
f 18 35 33
f 19 36 37
f 19 37 34
f 19 38 36
f 20 39 40
f 21 41 42
f 21 42 43
f 21 43 44
f 21 44 45
f 21 45 22
f 22 45 46
f 22 46 23
f 23 47 48
f 23 48 24
f 23 46 45
f 23 45 47
f 24 48 47
f 24 47 49
f 24 49 25
f 25 49 50
f 25 50 28
f 25 28 26
f 26 28 27
f 28 50 51
f 28 51 52
f 28 52 29
f 29 52 53
f 29 53 54
f 29 54 30
f 30 54 31
f 31 54 53
f 31 53 55
f 31 55 56
f 31 56 32
f 32 56 57
f 33 35 59
f 33 59 60
f 33 60 58
f 34 37 59
f 34 59 35
f 36 61 59
f 36 59 37
f 36 38 62
f 36 62 91
f 36 91 61
f 38 63 64
f 38 64 62
f 39 65 66
f 39 66 40
f 41 67 68
f 41 68 42
f 42 44 43
f 42 68 44
f 44 69 45
f 44 68 70
f 44 70 71
f 44 71 72
f 44 72 69
f 45 69 73
f 45 73 74
f 45 74 47
f 47 74 75
f 47 75 76
f 47 76 77
f 47 77 78
f 47 78 49
f 49 78 50
f 50 78 51
f 51 79 80
f 51 80 81
f 51 81 82
f 51 82 83
f 51 83 52
f 51 78 79
f 52 83 84
f 52 84 53
f 53 84 55
f 55 84 85
f 55 85 57
f 55 57 56
f 57 85 86
f 58 60 88
f 58 88 87
f 59 61 89
f 59 89 90
f 59 90 60
f 60 90 88
f 61 91 89
f 62 64 92
f 62 92 93
f 62 93 91
f 63 94 64
f 63 95 94
f 64 94 92
f 65 96 97
f 65 97 66
f 67 98 99
f 67 99 68
f 67 100 101
f 67 101 102
f 67 102 103
f 67 103 98
f 68 99 104
f 68 104 105
f 68 105 70
f 69 72 73
f 70 106 107
f 70 107 74
f 70 74 72
f 70 72 71
f 70 105 106
f 72 74 73
f 74 108 76
f 74 76 75
f 74 107 108
f 76 108 77
f 77 108 109
f 77 109 110
f 77 110 111
f 77 111 80
f 77 80 78
f 78 80 79
f 80 111 112
f 80 112 81
f 81 112 82
f 82 112 113
f 82 113 114
f 82 114 83
f 83 114 115
f 83 115 116
f 83 116 117
f 83 117 84
f 84 117 118
f 84 118 85
f 85 118 86
f 86 119 120
f 86 120 121
f 86 118 119
f 87 88 122
f 87 122 123
f 87 123 100
f 88 90 124
f 88 124 122
f 89 91 125
f 89 125 90
f 90 125 126
f 90 126 127
f 90 127 124
f 91 93 125
f 92 94 128
f 92 128 93
f 93 128 129
f 93 129 130
f 93 130 126
f 93 126 125
f 94 95 131
f 94 131 132
f 94 132 133
f 94 133 134
f 94 134 128
f 95 97 135
f 95 135 136
f 95 136 137
f 95 137 131
f 96 138 139
f 96 139 97
f 96 121 138
f 97 139 189
f 97 189 190
f 97 190 140
f 97 140 141
f 97 141 135
f 98 142 143
f 98 143 99
f 98 103 142
f 99 143 104
f 100 123 144
f 100 144 145
f 100 145 102
f 100 102 101
f 102 145 146
f 102 146 147
f 102 147 103
f 103 147 109
f 103 109 148
f 103 148 149
f 103 149 142
f 104 143 105
f 105 143 148
f 105 148 106
f 106 150 107
f 106 148 150
f 107 150 108
f 108 150 151
f 108 151 152
f 108 152 109
f 109 152 150
f 109 150 148
f 109 147 153
f 109 153 154
f 109 154 155
f 109 155 110
f 110 155 156
f 110 156 111
f 111 156 157
f 111 157 158
f 111 158 159
f 111 159 112
f 112 159 113
f 113 159 160
f 113 160 115
f 113 115 114
f 115 160 116
f 116 160 161
f 116 161 162
f 116 162 118
f 116 118 117
f 118 162 119
f 119 163 164
f 119 164 120
f 119 162 165
f 119 165 166
f 119 166 163
f 120 164 167
f 120 167 121
f 121 167 168
f 121 168 138
f 122 124 169
f 122 169 123
f 123 169 170
f 123 170 171
f 123 171 172
f 123 172 144
f 124 127 169
f 126 130 173
f 126 173 127
f 127 173 169
f 128 134 129
f 129 134 174
f 129 174 175
f 129 175 176
f 129 176 130
f 130 176 173
f 131 177 178
f 131 178 132
f 131 137 177
f 132 178 179
f 132 179 180
f 132 180 181
f 132 181 133
f 133 181 174
f 133 174 182
f 133 182 134
f 134 182 174
f 135 183 136
f 135 141 184
f 135 184 185
f 135 185 186
f 135 186 183
f 136 183 187
f 136 187 137
f 137 187 188
f 137 188 177
f 138 189 139
f 138 168 189
f 140 190 191
f 140 191 141
f 141 191 192
f 141 192 193
f 141 193 184
f 142 149 143
f 143 149 148
f 144 172 194
f 144 194 145
f 145 194 146
f 146 194 147
f 147 194 153
f 150 152 151
f 153 195 154
f 153 194 195
f 154 195 175
f 154 175 155
f 155 196 197
f 155 197 156
f 155 175 196
f 156 198 199
f 156 199 157
f 156 197 198
f 157 199 200
f 157 200 201
f 157 201 158
f 158 201 202
f 158 202 159
f 159 202 203
f 159 203 160
f 160 203 161
f 161 203 204
f 161 204 162
f 162 204 205
f 162 205 165
f 163 206 167
f 163 167 164
f 163 166 206
f 165 205 166
f 166 205 204
f 166 204 207
f 166 207 208
f 166 208 206
f 167 209 189
f 167 189 168
f 167 206 209
f 169 173 170
f 170 173 176
f 170 176 175
f 170 175 210
f 170 210 195
f 170 195 172
f 170 172 171
f 172 195 194
f 174 196 175
f 174 181 198
f 174 198 196
f 175 195 210
f 177 211 179
f 177 179 178
f 177 188 211
f 179 211 180
f 180 211 181
f 181 211 212
f 181 212 198
f 183 186 213
f 183 213 187
f 184 193 185
f 185 193 186
f 186 193 214
f 186 214 215
f 186 215 216
f 186 216 217
f 186 217 213
f 187 213 218
f 187 218 188
f 188 218 211
f 189 209 219
f 189 219 190
f 190 219 193
f 190 193 192
f 190 192 191
f 193 219 214
f 196 198 197
f 198 212 199
f 199 212 220
f 199 220 221
f 199 221 222
f 199 222 200
f 200 222 201
f 201 222 223
f 201 223 208
f 201 208 202
f 202 208 207
f 202 207 204
f 202 204 203
f 206 224 215
f 206 215 209
f 206 208 224
f 208 225 216
f 208 216 226
f 208 226 227
f 208 227 224
f 208 223 225
f 209 215 214
f 209 214 219
f 211 218 212
f 212 218 220
f 213 217 218
f 215 224 226
f 215 226 216
f 216 225 228
f 216 228 229
f 216 229 217
f 217 229 220
f 217 220 218
f 220 229 221
f 221 229 230
f 221 230 223
f 221 223 222
f 223 230 231
f 223 231 225
f 224 227 226
f 225 231 228
f 228 231 229
f 229 231 230
