v 0.42303 0.626813 0.289222
v 0.43566 0.62596 0.246235
v 0.43566 0.626442 0.233613
v 0.42303 0.626961 0.284129
v 0.417927 0.626627 0.289222
v 0.430556 0.624996 0.289222
v 0.43566 0.625366 0.258871
v 0.44829 0.625033 0.183111
v 0.43566 0.626739 0.220976
v 0.42303 0.626961 0.271493
v 0.43566 0.626924 0.208369
v 0.43566 0.626961 0.195747
v 0.410412 0.625404 0.289222
v 0.43566 0.626961 0.139302
v 0.43566 0.62392 0.284129
v 0.43566 0.624699 0.271493
v 0.435966 0.623067 0.289222
v 0.44829 0.625144 0.170489
v 0.44829 0.624328 0.195747
v 0.457219 0.620768 0.183111
v 0.457354 0.620879 0.170489
v 0.42303 0.624699 0.139302
v 0.405569 0.623549 0.289222
v 0.44829 0.624662 0.157853
v 0.44829 0.624143 0.145231
v 0.44829 0.623809 0.139302
v 0.442869 0.619507 0.289222
v 0.443322 0.619878 0.284129
v 0.44417 0.620508 0.271493
v 0.445064 0.621064 0.258871
v 0.44829 0.623401 0.208369
v 0.456359 0.620211 0.195747
v 0.463533 0.613907 0.183111
v 0.463669 0.614166 0.170489
v 0.456143 0.620063 0.145231
v 0.414543 0.620508 0.139302
v 0.399944 0.620953 0.289222
v 0.455849 0.619803 0.139302
v 0.454163 0.61832 0.224998
v 0.454887 0.619025 0.216573
v 0.447701 0.612757 0.289222
v 0.448991 0.612423 0.284129
v 0.451379 0.61476 0.258871
v 0.452352 0.616206 0.246235
v 0.455487 0.619507 0.208369
v 0.468049 0.607602 0.183111
v 0.468185 0.607862 0.170489
v 0.461383 0.612423 0.139302
v 0.458973 0.615761 0.139302
v 0.411589 0.617207 0.139302
v 0.393743 0.615019 0.289222
v 0.456879 0.609901 0.246235
v 0.452986 0.600333 0.289222
v 0.454514 0.605488 0.27729
v 0.45517 0.607157 0.268866
v 0.455928 0.608455 0.258871
v 0.46746 0.606564 0.190919
v 0.469611 0.599814 0.183111
v 0.469893 0.599814 0.170489
v 0.467653 0.606897 0.160362
v 0.467189 0.605785 0.151938
v 0.464314 0.605636 0.139302
v 0.407855 0.612497 0.139302
v 0.391864 0.612572 0.289222
v 0.453959 0.600667 0.284496
v 0.453552 0.587167 0.289222
v 0.454061 0.587167 0.286933
v 0.455023 0.597069 0.280548
v 0.466793 0.60267 0.199343
v 0.467856 0.598998 0.195381
v 0.467313 0.594251 0.202616
v 0.469973 0.587167 0.183111
v 0.468309 0.600852 0.156825
v 0.470256 0.587167 0.170489
v 0.467687 0.597366 0.147403
v 0.466397 0.600444 0.139302
v 0.389589 0.609493 0.289222
v 0.403781 0.606712 0.139302
v 0.441794 0.397433 0.289222
v 0.446569 0.460888 0.284129
v 0.455034 0.587167 0.280622
v 0.467313 0.592137 0.202616
v 0.468004 0.587612 0.196305
v 0.467438 0.565027 0.190743
v 0.468196 0.561244 0.184124
v 0.454627 0.327896 0.176991
v 0.467268 0.529721 0.177079
v 0.466838 0.536656 0.167994
v 0.467098 0.545111 0.165455
v 0.467358 0.55353 0.162989
v 0.468898 0.587167 0.157853
v 0.467268 0.529721 0.176404
v 0.454469 0.343065 0.16547
v 0.467721 0.587167 0.147124
v 0.467019 0.587167 0.140813
v 0.466849 0.587167 0.139302
v 0.466781 0.589504 0.139302
v 0.386149 0.60037 0.289222
v 0.40343 0.605229 0.139302
v 0.431993 0.248123 0.289222
v 0.433204 0.248123 0.284129
v 0.465684 0.549302 0.195747
v 0.466295 0.587612 0.207445
v 0.456438 0.587167 0.271493
v 0.445506 0.258878 0.208369
v 0.46694 0.549302 0.187499
v 0.447441 0.258878 0.195747
v 0.454785 0.363314 0.190611
v 0.454842 0.334646 0.178385
v 0.466544 0.536656 0.184857
v 0.448686 0.248123 0.183111
v 0.449025 0.248123 0.170489
v 0.454627 0.327896 0.176507
v 0.454729 0.351483 0.16296
v 0.455001 0.359902 0.160568
v 0.464167 0.5114 0.157853
v 0.447724 0.248123 0.157853
v 0.454842 0.334646 0.174393
v 0.453835 0.323038 0.171575
v 0.454208 0.334646 0.168082
v 0.448833 0.248123 0.168611
v 0.458973 0.460888 0.139302
v 0.463703 0.536656 0.139302
v 0.46565 0.567845 0.139302
v 0.4024 0.600074 0.139302
v 0.384384 0.587501 0.289222
v 0.354643 0.248123 0.289222
v 0.44116 0.248123 0.232277
v 0.444827 0.248123 0.208369
v 0.446762 0.248123 0.195747
v 0.450157 0.271525 0.183111
v 0.446128 0.248123 0.143352
v 0.446354 0.258878 0.139302
v 0.400827 0.587167 0.139302
v 0.372591 0.248123 0.139302
v 0.445675 0.248123 0.139302
v 0.445936 0.252203 0.139302
f 1 2 3
f 1 3 4
f 1 4 5
f 1 5 13
f 1 13 23
f 1 23 37
f 1 37 51
f 1 51 64
f 1 64 77
f 1 77 98
f 1 98 126
f 1 126 127
f 1 127 100
f 1 100 79
f 1 79 66
f 1 66 53
f 1 53 41
f 1 41 27
f 1 27 17
f 1 17 6
f 1 6 7
f 1 7 2
f 2 7 8
f 2 8 3
f 3 8 9
f 3 9 4
f 4 10 5
f 4 9 11
f 4 11 12
f 4 12 14
f 4 14 10
f 5 10 14
f 5 14 13
f 6 15 16
f 6 16 7
f 6 17 15
f 7 16 8
f 8 18 11
f 8 11 9
f 8 16 19
f 8 19 20
f 8 20 21
f 8 21 18
f 11 18 12
f 12 18 14
f 13 14 22
f 13 22 23
f 14 18 24
f 14 24 25
f 14 25 26
f 14 26 38
f 14 38 49
f 14 49 48
f 14 48 62
f 14 62 76
f 14 76 97
f 14 97 96
f 14 96 124
f 14 124 123
f 14 123 122
f 14 122 133
f 14 133 137
f 14 137 136
f 14 136 135
f 14 135 134
f 14 134 125
f 14 125 99
f 14 99 78
f 14 78 63
f 14 63 50
f 14 50 36
f 14 36 22
f 15 19 16
f 15 17 27
f 15 27 28
f 15 28 29
f 15 29 30
f 15 30 31
f 15 31 19
f 18 21 24
f 19 31 20
f 20 31 32
f 20 32 33
f 20 33 34
f 20 34 21
f 21 35 26
f 21 26 25
f 21 25 24
f 21 34 35
f 22 36 37
f 22 37 23
f 26 35 38
f 27 39 40
f 27 40 28
f 27 41 42
f 27 42 43
f 27 43 44
f 27 44 39
f 28 40 45
f 28 45 32
f 28 32 29
f 29 32 30
f 30 32 31
f 32 45 33
f 33 46 47
f 33 47 34
f 33 45 40
f 33 40 39
f 33 39 46
f 34 47 48
f 34 48 49
f 34 49 38
f 34 38 35
f 36 50 51
f 36 51 37
f 39 44 52
f 39 52 46
f 41 53 54
f 41 54 42
f 42 54 55
f 42 55 56
f 42 56 43
f 43 56 44
f 44 56 52
f 46 55 57
f 46 57 58
f 46 58 59
f 46 59 47
f 46 52 56
f 46 56 55
f 47 59 60
f 47 60 48
f 48 60 61
f 48 61 62
f 50 63 51
f 51 63 64
f 53 65 54
f 53 66 67
f 53 67 68
f 53 68 65
f 54 69 57
f 54 57 55
f 54 65 68
f 54 68 70
f 54 70 69
f 57 69 58
f 58 69 70
f 58 70 71
f 58 71 72
f 58 72 74
f 58 74 59
f 59 73 61
f 59 61 60
f 59 74 75
f 59 75 73
f 61 73 75
f 61 75 76
f 61 76 62
f 63 77 64
f 63 78 77
f 66 79 67
f 67 80 81
f 67 81 82
f 67 82 71
f 67 71 68
f 67 79 80
f 68 71 70
f 71 82 72
f 72 82 83
f 72 83 84
f 72 84 85
f 72 85 86
f 72 86 87
f 72 87 74
f 74 88 89
f 74 89 90
f 74 90 91
f 74 91 75
f 74 87 92
f 74 92 93
f 74 93 88
f 75 91 94
f 75 94 95
f 75 95 96
f 75 96 97
f 75 97 76
f 77 78 98
f 78 99 98
f 79 100 101
f 79 101 80
f 80 102 103
f 80 103 104
f 80 104 81
f 80 101 105
f 80 105 102
f 81 104 82
f 82 104 103
f 82 103 83
f 83 103 102
f 83 102 84
f 84 106 85
f 84 102 107
f 84 107 108
f 84 108 109
f 84 109 106
f 85 106 110
f 85 110 109
f 85 109 86
f 86 109 111
f 86 111 112
f 86 112 113
f 86 113 92
f 86 92 87
f 88 93 89
f 89 93 114
f 89 114 115
f 89 115 90
f 90 116 91
f 90 115 117
f 90 117 116
f 91 116 94
f 92 113 118
f 92 118 119
f 92 119 120
f 92 120 93
f 93 120 121
f 93 121 117
f 93 117 114
f 94 122 123
f 94 123 124
f 94 124 95
f 94 116 117
f 94 117 122
f 95 124 96
f 98 99 125
f 98 125 126
f 100 127 135
f 100 135 136
f 100 136 132
f 100 132 117
f 100 117 121
f 100 121 112
f 100 112 111
f 100 111 130
f 100 130 129
f 100 129 128
f 100 128 101
f 101 128 105
f 102 105 107
f 105 128 129
f 105 129 130
f 105 130 107
f 106 109 110
f 107 130 111
f 107 111 131
f 107 131 108
f 108 131 109
f 109 131 111
f 112 121 120
f 112 120 119
f 112 119 118
f 112 118 113
f 114 117 115
f 117 132 133
f 117 133 122
f 125 134 126
f 126 134 127
f 127 134 135
f 132 136 137
f 132 137 133
