v -0.102754 -0.627652 0.473559
v -0.0947007 -0.627738 0.473559
v -0.056821 -0.627652 0.486171
v -0.069452 -0.627394 0.486171
v -0.0820697 -0.62705 0.486171
v -0.102754 -0.627136 0.478141
v -0.102754 -0.627566 0.465509
v -0.0820697 -0.627738 0.473559
v -0.0441901 -0.627738 0.486171
v -0.00632369 -0.626535 0.498804
v -0.0189547 -0.626277 0.498804
v -0.0441901 -0.625159 0.498804
v -0.056821 -0.624557 0.498804
v -0.0947007 -0.626277 0.486171
v -0.102754 -0.625417 0.486171
v -0.102754 -0.627308 0.460926
v 0.0327899 -0.627136 0.474774
v 0.0327899 -0.627738 0.486171
v 0.00630727 -0.626363 0.498804
v -0.00632369 -0.622064 0.510929
v -0.0189547 -0.621806 0.51046
v -0.069452 -0.623783 0.498804
v -0.0820697 -0.622838 0.498804
v -0.102754 -0.623697 0.490585
v -0.102754 -0.624471 0.452228
v 0.0327899 -0.62705 0.473559
v 0.0327899 -0.625503 0.498804
v 0.0315692 -0.625589 0.498804
v 0.00630727 -0.621892 0.51058
v -0.00632369 -0.614584 0.52406
v -0.0189547 -0.618195 0.516767
v -0.0215817 -0.609253 0.53205
v -0.0820697 -0.619054 0.505619
v -0.0884383 -0.61871 0.50512
v -0.0934668 -0.621204 0.499511
v -0.102754 -0.620774 0.49718
v -0.102754 -0.622923 0.448751
v 0.0327899 -0.62258 0.463735
v 0.0327899 -0.621032 0.509116
v 0.0327899 -0.620688 0.509733
v 0.00630727 -0.618281 0.516886
v 0.00630727 -0.614154 0.52406
v -0.00632369 -0.609941 0.53205
v -0.00937529 -0.609855 0.53205
v -0.0189547 -0.609425 0.53205
v -0.0441901 -0.607275 0.53205
v -0.0947007 -0.604954 0.528334
v -0.0947007 -0.608565 0.522017
v -0.0968633 -0.618281 0.504194
v -0.0934668 -0.615357 0.510172
v -0.102754 -0.61957 0.499601
v -0.102754 -0.593089 0.430271
v -0.0948334 -0.593089 0.430271
v 0.0327899 -0.593003 0.430271
v 0.0327899 -0.617421 0.515432
v 0.0304547 -0.608049 0.53205
v 0.00630727 -0.609511 0.53205
v -0.0660554 -0.605298 0.53205
v -0.0717341 -0.604782 0.53205
v -0.0764442 -0.604352 0.53205
v -0.0890884 -0.603148 0.53205
v -0.0947007 -0.602546 0.53205
v -0.100565 -0.601687 0.53205
v -0.102754 -0.60246 0.530316
v -0.102754 -0.604352 0.527288
v -0.102754 -0.607963 0.520971
v -0.102754 -0.617679 0.503158
v -0.102754 0.242196 0.430271
v 0.0327899 0.242196 0.430271
v 0.0327899 -0.607877 0.53205
v 0.0316754 -0.607963 0.53205
v -0.102754 -0.601343 0.53205
v -0.102754 0.250622 0.53205
v 0.0327899 0.245205 0.53205
f 1 2 3
f 1 3 4
f 1 4 5
f 1 5 6
f 1 6 15
f 1 15 24
f 1 24 36
f 1 36 51
f 1 51 67
f 1 67 66
f 1 66 65
f 1 65 64
f 1 64 72
f 1 72 73
f 1 73 68
f 1 68 52
f 1 52 37
f 1 37 25
f 1 25 16
f 1 16 7
f 1 7 2
f 2 8 18
f 2 18 9
f 2 9 3
f 2 7 8
f 3 9 10
f 3 10 11
f 3 11 4
f 4 11 5
f 5 11 12
f 5 12 13
f 5 13 22
f 5 22 14
f 5 14 6
f 6 14 15
f 7 16 17
f 7 17 18
f 7 18 8
f 9 18 10
f 10 18 19
f 10 19 20
f 10 20 11
f 11 20 21
f 11 21 12
f 12 21 13
f 13 21 22
f 14 22 23
f 14 23 15
f 15 23 24
f 16 25 26
f 16 26 17
f 17 26 38
f 17 38 54
f 17 54 69
f 17 69 74
f 17 74 70
f 17 70 55
f 17 55 40
f 17 40 39
f 17 39 27
f 17 27 18
f 18 27 28
f 18 28 19
f 19 28 29
f 19 29 20
f 20 29 30
f 20 30 21
f 21 31 32
f 21 32 33
f 21 33 23
f 21 23 22
f 21 30 31
f 23 33 34
f 23 34 35
f 23 35 24
f 24 35 36
f 25 37 26
f 26 37 38
f 27 39 28
f 28 39 29
f 29 39 40
f 29 40 41
f 29 41 30
f 30 42 57
f 30 57 43
f 30 43 44
f 30 44 45
f 30 45 31
f 30 41 42
f 31 45 32
f 32 45 44
f 32 44 43
f 32 43 57
f 32 57 56
f 32 56 71
f 32 71 70
f 32 70 74
f 32 74 73
f 32 73 72
f 32 72 63
f 32 63 62
f 32 62 61
f 32 61 60
f 32 60 59
f 32 59 58
f 32 58 46
f 32 46 33
f 33 46 47
f 33 47 48
f 33 48 34
f 34 49 35
f 34 48 50
f 34 50 49
f 35 49 51
f 35 51 36
f 37 52 53
f 37 53 54
f 37 54 38
f 40 55 56
f 40 56 41
f 41 56 42
f 42 56 57
f 46 58 47
f 47 58 59
f 47 59 60
f 47 60 61
f 47 61 62
f 47 62 63
f 47 63 64
f 47 64 65
f 47 65 66
f 47 66 48
f 48 66 49
f 48 49 50
f 49 67 51
f 49 66 67
f 52 68 69
f 52 69 54
f 52 54 53
f 55 70 71
f 55 71 56
f 63 72 64
f 68 73 69
f 69 73 74
