v 0.192443 -0.59299 -0.0345687
v 0.222714 -0.622333 -0.0345687
v 0.192443 -0.59299 0.139302
v 0.192443 0.242166 -0.0345687
v 0.230053 -0.625593 -0.0345687
v 0.30939 -0.627309 0.139302
v 0.192443 0.242166 0.139302
v 0.316679 0.248772 -0.0345687
v 0.233623 -0.626537 -0.0345687
v 0.243268 -0.627652 -0.0345687
v 0.316108 -0.627567 0.139302
v 0.373032 0.248772 0.139302
v 0.40023 0.248772 -0.0345687
v 0.246267 -0.627652 -0.0345687
v 0.258887 -0.627738 -0.0189278
v 0.30939 -0.627738 0.0946937
v 0.322009 -0.627652 0.139302
v 0.445724 0.248772 0.139302
v 0.401841 0.248772 -0.0305861
v 0.401841 0.247228 -0.0303479
v 0.399437 0.236589 -0.0345687
v 0.255887 -0.627395 -0.0345687
v 0.284151 -0.627738 0.0189574
v 0.284151 -0.627567 0.00632896
v 0.30939 -0.627738 0.0820653
v 0.322009 -0.627652 0.132579
v 0.328703 -0.626366 0.139302
v 0.4427 0.200296 0.139302
v 0.444039 0.233586 0.132579
v 0.444708 0.248772 0.13006
v 0.405734 0.248772 -0.0206128
v 0.410321 0.248772 -0.00883533
v 0.416618 0.216169 0.0128985
v 0.392098 0.125652 -0.0345687
v 0.400453 0.233586 -0.0315562
v 0.258887 -0.626966 -0.0345687
v 0.271506 -0.626966 -0.0189278
v 0.29677 -0.627738 0.0442142
v 0.30939 -0.627652 0.0694369
v 0.284151 -0.626451 -0.00629944
v 0.29677 -0.626623 0.0189574
v 0.29677 -0.627481 0.0315858
v 0.322009 -0.627567 0.119951
v 0.322009 -0.627395 0.107322
v 0.334629 -0.624907 0.139302
v 0.41875 -0.183134 0.139302
v 0.427477 -0.031615 0.132579
v 0.440096 0.170439 0.132579
v 0.429832 0.069369 0.0966339
v 0.438039 0.248772 0.0694369
v 0.425072 0.248772 0.0290499
v 0.429386 0.188714 0.0504092
v 0.418329 0.119904 0.0337642
v 0.416717 -0.0758867 0.0631227
v 0.40318 -0.145297 0.0402316
v 0.402114 0.0441445 0.00508654
v 0.390462 0.0315322 -0.0226721
v 0.379875 -0.170522 -0.0152857
v 0.357413 -0.486172 -0.0189278
v 0.35362 -0.505648 -0.0253101
v 0.380768 -0.0563248 -0.0325093
v 0.380073 -0.0546088 -0.0345687
v 0.268506 -0.624993 -0.0345687
v 0.30939 -0.627052 0.0568255
v 0.322009 -0.627052 0.0946937
v 0.271506 -0.624735 -0.0315562
v 0.284151 -0.62362 -0.0189278
v 0.29677 -0.625164 0.00632896
v 0.30939 -0.625937 0.0442142
v 0.322009 -0.626366 0.0820653
v 0.334629 -0.624735 0.132579
v 0.339761 -0.62259 0.139302
v 0.402189 -0.448249 0.139302
v 0.398296 -0.498784 0.132579
v 0.426089 -0.031615 0.119951
v 0.42113 -0.0442273 0.0820653
v 0.436303 0.220974 0.0694369
v 0.41642 -0.157909 0.103765
v 0.389396 -0.574544 0.0946937
v 0.391974 -0.51071 0.0819122
v 0.429188 0.115957 0.0644843
v 0.42946 0.124365 0.0627823
v 0.435386 0.248772 0.0568255
v 0.426138 0.248772 0.03179
v 0.428841 0.246198 0.0391764
v 0.431295 0.246198 0.0454906
v 0.429113 0.180306 0.0511921
v 0.391528 -0.506077 0.0755299
v 0.385404 -0.574544 0.0694369
v 0.404098 -0.265242 0.0631227
v 0.389643 -0.435637 0.0551576
v 0.366437 -0.45803 -0.000580914
v 0.378611 -0.577461 0.051107
v 0.366115 -0.541511 0.0128814
v 0.35357 -0.580721 -0.0125966
v 0.353297 -0.514056 -0.0246293
v 0.344769 -0.574544 -0.0307393
v 0.351314 -0.453569 -0.0345687
v 0.351711 -0.448249 -0.0345687
v 0.364454 -0.276139 -0.0345687
v 0.36557 -0.261038 -0.0345687
v 0.366363 -0.250056 -0.0345687
v 0.367033 -0.240704 -0.0345687
v 0.37809 -0.0836943 -0.0345687
v 0.378834 -0.0728838 -0.0345687
v 0.379454 -0.0637892 -0.0345687
v 0.271556 -0.623877 -0.0345687
v 0.334629 -0.62362 0.107322
v 0.334629 -0.624221 0.119951
v 0.279911 -0.620617 -0.0345687
v 0.297415 -0.621904 -0.00672492
v 0.30939 -0.624306 0.0315858
v 0.322009 -0.625079 0.0694369
v 0.30701 -0.620874 0.00632896
v 0.334629 -0.622934 0.0946937
v 0.343975 -0.620445 0.139302
v 0.397825 -0.518089 0.139302
v 0.393561 -0.574544 0.132579
v 0.391602 -0.570425 0.112411
v 0.391329 -0.578834 0.114794
v 0.387982 -0.574544 0.0820653
v 0.388776 -0.561931 0.0820653
v 0.391255 -0.514485 0.0775892
v 0.431295 0.248772 0.0450651
v 0.384635 -0.587156 0.0820653
v 0.38171 -0.587928 0.0692327
v 0.380247 -0.584153 0.0594976
v 0.380718 -0.573771 0.0559065
v 0.381859 -0.561931 0.0568255
v 0.391453 -0.454684 0.0631057
v 0.391676 -0.448249 0.0625611
v 0.392098 -0.435637 0.0614718
v 0.366909 -0.582866 0.0234675
v 0.372041 -0.561931 0.0315858
v 0.355206 -0.584496 -0.00418903
v 0.352107 -0.5881 -0.00755887
v 0.34762 -0.587156 -0.0189278
v 0.34286 -0.587156 -0.0280162
v 0.351587 -0.575745 -0.0180939
v 0.352479 -0.536621 -0.0226891
v 0.352008 -0.549233 -0.0216169
v 0.351537 -0.561931 -0.0205277
v 0.342091 -0.574544 -0.0345687
v 0.283605 -0.618901 -0.0345687
v 0.30939 -0.612209 -0.0189278
v 0.319034 -0.607662 -0.0189278
v 0.304877 -0.619673 -0.00281046
v 0.310208 -0.621732 0.0188723
v 0.323224 -0.622333 0.0556512
v 0.331926 -0.620703 0.0694369
v 0.335298 -0.621303 0.0829674
v 0.327835 -0.60586 -0.0115074
v 0.322009 -0.612809 0.00632896
v 0.341099 -0.618815 0.0877668
v 0.341521 -0.619073 0.0946937
v 0.342215 -0.619502 0.107322
v 0.343603 -0.620274 0.132579
v 0.34695 -0.618815 0.139302
v 0.395445 -0.556011 0.139302
v 0.395073 -0.561931 0.139302
v 0.39428 -0.574544 0.139302
v 0.3918 -0.581922 0.123218
v 0.392296 -0.583381 0.132579
v 0.38947 -0.58973 0.132579
v 0.389842 -0.590588 0.139302
v 0.379553 -0.594106 0.0732833
v 0.378214 -0.592647 0.0648757
v 0.364876 -0.591274 0.0286414
v 0.353198 -0.59299 0.000984871
v 0.341099 -0.593591 -0.0254973
v 0.338298 -0.587156 -0.0343304
v 0.341025 -0.577976 -0.0345687
v 0.307555 -0.607747 -0.0345687
v 0.316431 -0.60646 -0.0262292
v 0.325331 -0.604659 -0.0189278
v 0.339959 -0.618215 0.0793592
v 0.341223 -0.606289 0.0245567
v 0.352926 -0.605774 0.0521963
v 0.356273 -0.607576 0.0694369
v 0.334629 -0.599597 -0.0189278
v 0.342686 -0.594706 -0.0189278
v 0.334083 -0.603372 -0.00689511
v 0.337678 -0.604315 0.00632896
v 0.347843 -0.615469 0.0946937
v 0.358008 -0.608605 0.0820653
v 0.364305 -0.605088 0.0820653
v 0.359545 -0.609549 0.107322
v 0.367231 -0.606718 0.132579
v 0.359892 -0.611351 0.139302
v 0.392668 -0.584239 0.139302
v 0.391354 -0.587242 0.139302
v 0.38352 -0.596851 0.139302
v 0.382429 -0.596165 0.119951
v 0.380247 -0.59462 0.0820653
v 0.372512 -0.599854 0.0820653
v 0.362595 -0.604144 0.0694369
v 0.373404 -0.59728 0.0692327
v 0.370355 -0.596336 0.0568255
v 0.367851 -0.594706 0.0442142
v 0.366487 -0.593677 0.037049
v 0.354735 -0.594363 0.00940948
v 0.345438 -0.596508 -0.00629944
v 0.334108 -0.595564 -0.03045
v 0.3321 -0.594964 -0.0345687
v 0.338124 -0.587156 -0.0345687
v 0.313257 -0.605088 -0.0345687
v 0.317943 -0.602685 -0.0345687
v 0.321464 -0.600798 -0.0345687
v 0.359892 -0.599768 0.0442142
v 0.365148 -0.605517 0.0946937
v 0.372512 -0.600884 0.0946937
v 0.370578 -0.605173 0.139302
v 0.373925 -0.603114 0.139302
v 0.373553 -0.602943 0.132579
v 0.35662 -0.59565 0.0189574
v 0.330488 -0.595907 -0.0345687
f 1 2 3
f 1 3 7
f 1 7 4
f 1 4 8
f 1 8 13
f 1 13 21
f 1 21 34
f 1 34 62
f 1 62 106
f 1 106 105
f 1 105 104
f 1 104 103
f 1 103 102
f 1 102 101
f 1 101 100
f 1 100 99
f 1 99 98
f 1 98 143
f 1 143 172
f 1 172 205
f 1 205 204
f 1 204 216
f 1 216 208
f 1 208 207
f 1 207 206
f 1 206 173
f 1 173 144
f 1 144 110
f 1 110 107
f 1 107 63
f 1 63 36
f 1 36 22
f 1 22 14
f 1 14 10
f 1 10 9
f 1 9 5
f 1 5 2
f 2 5 3
f 3 5 6
f 3 6 11
f 3 11 17
f 3 17 27
f 3 27 45
f 3 45 72
f 3 72 116
f 3 116 158
f 3 158 189
f 3 189 212
f 3 212 213
f 3 213 192
f 3 192 165
f 3 165 191
f 3 191 190
f 3 190 161
f 3 161 160
f 3 160 159
f 3 159 117
f 3 117 73
f 3 73 46
f 3 46 28
f 3 28 18
f 3 18 12
f 3 12 7
f 4 7 8
f 5 9 6
f 6 9 10
f 6 10 11
f 7 12 8
f 8 12 18
f 8 18 30
f 8 30 50
f 8 50 83
f 8 83 124
f 8 124 84
f 8 84 51
f 8 51 32
f 8 32 31
f 8 31 19
f 8 19 13
f 10 14 15
f 10 15 16
f 10 16 17
f 10 17 11
f 13 19 20
f 13 20 21
f 14 22 15
f 15 23 38
f 15 38 25
f 15 25 16
f 15 22 24
f 15 24 23
f 16 25 26
f 16 26 17
f 17 26 27
f 18 28 29
f 18 29 30
f 19 31 20
f 20 31 32
f 20 32 33
f 20 33 34
f 20 34 35
f 20 35 21
f 21 35 34
f 22 36 37
f 22 37 24
f 23 24 38
f 24 39 38
f 24 37 40
f 24 40 41
f 24 41 42
f 24 42 39
f 25 38 39
f 25 39 43
f 25 43 26
f 26 43 27
f 27 43 44
f 27 44 45
f 28 46 47
f 28 47 48
f 28 48 29
f 29 48 49
f 29 49 50
f 29 50 30
f 32 51 33
f 33 52 53
f 33 53 54
f 33 54 55
f 33 55 56
f 33 56 57
f 33 57 34
f 33 51 52
f 34 57 58
f 34 58 59
f 34 59 60
f 34 60 61
f 34 61 62
f 36 63 37
f 37 63 40
f 39 42 64
f 39 64 65
f 39 65 44
f 39 44 43
f 40 63 66
f 40 66 67
f 40 67 68
f 40 68 41
f 41 68 69
f 41 69 70
f 41 70 64
f 41 64 42
f 44 65 71
f 44 71 45
f 45 71 72
f 46 73 74
f 46 74 47
f 47 75 49
f 47 49 48
f 47 74 75
f 49 76 77
f 49 77 50
f 49 75 74
f 49 74 78
f 49 78 79
f 49 79 80
f 49 80 76
f 50 77 81
f 50 81 82
f 50 82 83
f 51 84 52
f 52 84 85
f 52 85 86
f 52 86 83
f 52 83 82
f 52 82 87
f 52 87 54
f 52 54 53
f 54 87 82
f 54 82 88
f 54 88 89
f 54 89 90
f 54 90 91
f 54 91 55
f 55 58 57
f 55 57 56
f 55 91 58
f 58 91 92
f 58 92 59
f 59 92 93
f 59 93 94
f 59 94 95
f 59 95 60
f 60 95 96
f 60 96 97
f 60 97 98
f 60 98 99
f 60 99 100
f 60 100 101
f 60 101 102
f 60 102 103
f 60 103 104
f 60 104 105
f 60 105 106
f 60 106 62
f 60 62 61
f 63 107 66
f 64 70 65
f 65 70 115
f 65 115 108
f 65 108 109
f 65 109 71
f 66 107 67
f 67 107 110
f 67 110 111
f 67 111 68
f 68 112 113
f 68 113 69
f 68 111 114
f 68 114 112
f 69 113 70
f 70 113 115
f 71 109 72
f 72 109 108
f 72 108 116
f 73 117 74
f 74 117 118
f 74 118 119
f 74 119 78
f 76 80 77
f 77 80 81
f 78 119 79
f 79 119 118
f 79 118 120
f 79 120 121
f 79 121 122
f 79 122 123
f 79 123 80
f 80 123 81
f 81 123 88
f 81 88 82
f 83 86 124
f 84 124 86
f 84 86 85
f 88 123 121
f 88 121 89
f 89 121 125
f 89 125 126
f 89 126 127
f 89 127 93
f 89 93 128
f 89 128 129
f 89 129 130
f 89 130 90
f 90 130 131
f 90 131 132
f 90 132 91
f 91 132 93
f 91 93 92
f 93 127 133
f 93 133 95
f 93 95 134
f 93 134 94
f 93 132 128
f 94 134 95
f 95 133 135
f 95 135 136
f 95 136 137
f 95 137 138
f 95 138 97
f 95 97 139
f 95 139 96
f 96 139 140
f 96 140 97
f 97 140 141
f 97 141 142
f 97 142 139
f 97 138 143
f 97 143 98
f 108 115 116
f 110 144 111
f 111 144 145
f 111 145 146
f 111 146 147
f 111 147 114
f 112 114 148
f 112 148 149
f 112 149 113
f 113 149 150
f 113 150 151
f 113 151 115
f 114 147 152
f 114 152 153
f 114 153 150
f 114 150 148
f 115 151 154
f 115 154 155
f 115 155 156
f 115 156 157
f 115 157 116
f 116 157 158
f 117 159 118
f 118 159 160
f 118 160 161
f 118 161 120
f 120 162 121
f 120 161 162
f 121 123 122
f 121 162 125
f 125 162 163
f 125 163 164
f 125 164 165
f 125 165 166
f 125 166 126
f 126 166 167
f 126 167 127
f 127 167 168
f 127 168 133
f 128 132 131
f 128 131 130
f 128 130 129
f 133 168 169
f 133 169 135
f 135 169 136
f 136 169 137
f 137 169 170
f 137 170 138
f 138 171 172
f 138 172 143
f 138 170 171
f 139 142 141
f 139 141 140
f 144 173 174
f 144 174 145
f 145 174 146
f 146 174 175
f 146 175 147
f 147 175 152
f 148 150 149
f 150 176 151
f 150 153 177
f 150 177 178
f 150 178 179
f 150 179 176
f 151 176 154
f 152 175 180
f 152 180 181
f 152 181 182
f 152 182 183
f 152 183 177
f 152 177 153
f 154 184 155
f 154 176 185
f 154 185 186
f 154 186 184
f 155 184 156
f 156 184 158
f 156 158 157
f 158 184 187
f 158 187 188
f 158 188 189
f 161 190 163
f 161 163 162
f 163 190 191
f 163 191 164
f 164 191 165
f 165 192 193
f 165 193 194
f 165 194 166
f 166 194 195
f 166 195 186
f 166 186 196
f 166 196 197
f 166 197 198
f 166 198 199
f 166 199 200
f 166 200 167
f 167 169 168
f 167 200 169
f 169 200 201
f 169 201 202
f 169 202 181
f 169 181 170
f 170 181 180
f 170 180 203
f 170 203 204
f 170 204 205
f 170 205 171
f 171 205 172
f 173 206 174
f 174 206 175
f 175 206 207
f 175 207 208
f 175 208 203
f 175 203 180
f 176 179 196
f 176 196 185
f 177 183 196
f 177 196 178
f 178 196 179
f 181 202 182
f 182 196 183
f 182 202 209
f 182 209 196
f 184 186 210
f 184 210 187
f 185 196 186
f 186 195 211
f 186 211 210
f 187 210 188
f 188 210 212
f 188 212 189
f 192 213 214
f 192 214 211
f 192 211 193
f 193 211 194
f 194 211 195
f 196 209 198
f 196 198 197
f 198 209 202
f 198 202 215
f 198 215 199
f 199 215 201
f 199 201 200
f 201 215 202
f 203 208 216
f 203 216 204
f 210 211 214
f 210 214 212
f 212 214 213
