v -0.287214 0.251135 -0.0786135
v -0.287214 0.251135 -0.175997
v -0.102772 0.251135 -0.196405
v -0.102772 0.587061 -0.223531
v -0.287214 0.587171 -0.116507
v -0.230897 0.251135 -0.217313
v -0.287214 0.25625 -0.176394
v -0.102772 0.251135 -0.27238
v -0.102772 0.600823 -0.225514
v -0.287214 0.597916 -0.118469
v -0.224542 0.296764 -0.225388
v -0.222447 0.258899 -0.223928
v -0.222014 0.251135 -0.223615
v -0.232631 0.284143 -0.218586
v -0.229326 0.385189 -0.22879
v -0.227087 0.342798 -0.227162
v -0.287214 0.297132 -0.179545
v -0.102772 0.368372 -0.281957
v -0.200581 0.251135 -0.234027
v -0.102772 0.604209 -0.226515
v -0.287214 0.598763 -0.118677
v -0.227557 0.515306 -0.240099
v -0.218114 0.251135 -0.226286
v -0.235646 0.385189 -0.224157
v -0.231313 0.423054 -0.23025
v -0.287214 0.334813 -0.182445
v -0.234617 0.462096 -0.230835
v -0.102772 0.391224 -0.283543
v -0.208345 0.251135 -0.230981
v -0.287214 0.599131 -0.118802
v -0.102772 0.607815 -0.228247
v -0.236964 0.57455 -0.237762
v -0.237632 0.587171 -0.238242
v -0.229994 0.561928 -0.241789
v -0.220985 0.587171 -0.248196
v -0.227033 0.506879 -0.239786
v -0.215694 0.251135 -0.227913
v -0.287214 0.347287 -0.183405
v -0.247364 0.587171 -0.231106
v -0.102772 0.587503 -0.291744
v -0.208345 0.271521 -0.232358
v -0.214358 0.418528 -0.239807
v -0.21257 0.587171 -0.251743
v -0.113877 0.592286 -0.290513
v -0.107828 0.587723 -0.291139
v -0.287214 0.603914 -0.121265
v -0.102772 0.612562 -0.231168
v -0.287214 0.609839 -0.124436
v -0.252763 0.591403 -0.227454
v -0.252763 0.594641 -0.227454
v -0.231313 0.587171 -0.242687
v -0.231024 0.599793 -0.242478
v -0.220985 0.599793 -0.247757
v -0.212083 0.599793 -0.251513
v -0.287214 0.561634 -0.19989
v -0.281725 0.57455 -0.204918
v -0.267461 0.587171 -0.216353
v -0.113877 0.594163 -0.290513
v -0.102772 0.595009 -0.291577
v -0.177578 0.595966 -0.265473
v -0.102772 0.614733 -0.232838
v -0.287214 0.613703 -0.127858
v -0.287214 0.587171 -0.201851
v -0.287214 0.599793 -0.201392
v -0.282086 0.599793 -0.205169
v -0.267172 0.599793 -0.216124
v -0.237325 0.599793 -0.237992
v -0.251914 0.603068 -0.226807
v -0.229362 0.60822 -0.24133
v -0.203849 0.607337 -0.253245
v -0.176224 0.604356 -0.26493
v -0.205781 0.599793 -0.253996
v -0.287214 0.573041 -0.200766
v -0.171403 0.600014 -0.267372
v -0.141791 0.599793 -0.278932
v -0.118842 0.598947 -0.287946
v -0.110699 0.60259 -0.28997
v -0.106835 0.598947 -0.290993
v -0.102772 0.599241 -0.291452
v -0.102772 0.620289 -0.237804
v -0.287214 0.615469 -0.130049
v -0.287214 0.612488 -0.195257
v -0.280226 0.608551 -0.203812
v -0.266088 0.607116 -0.215331
v -0.220028 0.612451 -0.242854
v -0.261322 0.615543 -0.211763
v -0.233985 0.613077 -0.233839
v -0.223603 0.616646 -0.237783
v -0.195724 0.609581 -0.25481
v -0.167792 0.608367 -0.266579
v -0.140148 0.606969 -0.278285
v -0.215189 0.618965 -0.240162
v -0.132601 0.609103 -0.279725
v -0.119835 0.613077 -0.281728
v -0.102772 0.607005 -0.290158
v -0.102772 0.605644 -0.290659
v -0.102772 0.621688 -0.240496
v -0.287214 0.620216 -0.136497
v -0.287214 0.619885 -0.136038
v -0.287214 0.615763 -0.19244
v -0.275387 0.616978 -0.20014
v -0.252889 0.618928 -0.214913
v -0.238607 0.617898 -0.226286
v -0.230193 0.620069 -0.229353
v -0.187617 0.617971 -0.251743
v -0.151596 0.618781 -0.265202
v -0.208345 0.619848 -0.241393
v -0.179203 0.61948 -0.253475
v -0.11552 0.619333 -0.278515
v -0.220028 0.621099 -0.233589
v -0.208345 0.623785 -0.23361
v -0.123934 0.617714 -0.276741
v -0.106835 0.611384 -0.286381
v -0.102772 0.61212 -0.286444
v -0.102772 0.624374 -0.246234
v -0.287214 0.622276 -0.140942
v -0.287214 0.620253 -0.186347
v -0.281093 0.620179 -0.191731
v -0.266955 0.619627 -0.203333
v -0.257801 0.620731 -0.207861
v -0.234075 0.62224 -0.221632
v -0.195724 0.621283 -0.243772
v -0.170482 0.620547 -0.25504
v -0.132601 0.621099 -0.268686
v -0.119835 0.621835 -0.272108
v -0.10734 0.62408 -0.271483
v -0.10734 0.620069 -0.279412
v -0.220985 0.625809 -0.220986
v -0.195724 0.625588 -0.23361
v -0.170482 0.624668 -0.246234
v -0.145222 0.623454 -0.258858
v -0.102772 0.617714 -0.281999
v -0.102772 0.625551 -0.250825
v -0.287214 0.626361 -0.154776
v -0.287214 0.622019 -0.183134
v -0.271306 0.621651 -0.195862
v -0.246245 0.624006 -0.208361
v -0.132601 0.625367 -0.258858
v -0.11998 0.626545 -0.258858
v -0.102772 0.624374 -0.271483
v -0.102772 0.622828 -0.274675
v -0.102772 0.620289 -0.279704
v -0.271487 0.625993 -0.183113
v -0.233606 0.626398 -0.208361
v -0.208345 0.62695 -0.220986
v -0.258866 0.625183 -0.195716
v -0.183121 0.626655 -0.23361
v -0.157861 0.626103 -0.246234
v -0.102772 0.626913 -0.258858
v -0.284126 0.626471 -0.157864
v -0.287214 0.626582 -0.157864
v -0.287214 0.622792 -0.181277
v -0.102772 0.626214 -0.263449
v -0.145222 0.626876 -0.246234
v -0.10734 0.62695 -0.258858
v -0.287214 0.625993 -0.170489
v -0.284126 0.626508 -0.170489
v -0.287214 0.626619 -0.1674
v -0.246245 0.626839 -0.195716
v -0.258866 0.627023 -0.183113
v -0.271487 0.626876 -0.170489
f 1 2 6
f 1 6 13
f 1 13 23
f 1 23 37
f 1 37 29
f 1 29 19
f 1 19 8
f 1 8 3
f 1 3 4
f 1 4 5
f 1 5 10
f 1 10 21
f 1 21 30
f 1 30 46
f 1 46 48
f 1 48 62
f 1 62 81
f 1 81 99
f 1 99 98
f 1 98 116
f 1 116 134
f 1 134 151
f 1 151 158
f 1 158 156
f 1 156 152
f 1 152 135
f 1 135 117
f 1 117 100
f 1 100 82
f 1 82 64
f 1 64 63
f 1 63 73
f 1 73 55
f 1 55 38
f 1 38 26
f 1 26 17
f 1 17 7
f 1 7 2
f 2 7 6
f 3 8 18
f 3 18 28
f 3 28 40
f 3 40 59
f 3 59 79
f 3 79 96
f 3 96 95
f 3 95 114
f 3 114 132
f 3 132 142
f 3 142 141
f 3 141 140
f 3 140 153
f 3 153 149
f 3 149 133
f 3 133 115
f 3 115 97
f 3 97 80
f 3 80 61
f 3 61 47
f 3 47 31
f 3 31 20
f 3 20 9
f 3 9 4
f 4 9 5
f 5 9 10
f 6 11 12
f 6 12 13
f 6 7 14
f 6 14 15
f 6 15 16
f 6 16 11
f 7 17 14
f 8 19 18
f 9 20 21
f 9 21 10
f 11 16 22
f 11 22 12
f 12 23 13
f 12 22 23
f 14 17 24
f 14 24 25
f 14 25 15
f 15 25 22
f 15 22 16
f 17 26 27
f 17 27 24
f 18 19 29
f 18 29 28
f 20 30 21
f 20 31 30
f 22 27 32
f 22 32 33
f 22 33 34
f 22 34 35
f 22 35 36
f 22 36 37
f 22 37 23
f 22 25 27
f 24 27 25
f 26 38 39
f 26 39 27
f 27 39 32
f 28 29 41
f 28 41 42
f 28 42 43
f 28 43 44
f 28 44 45
f 28 45 40
f 29 37 42
f 29 42 41
f 30 31 46
f 31 47 48
f 31 48 46
f 32 39 33
f 33 39 49
f 33 49 50
f 33 50 51
f 33 51 34
f 34 51 35
f 35 51 52
f 35 52 53
f 35 53 54
f 35 54 43
f 35 43 42
f 35 42 37
f 35 37 36
f 38 55 56
f 38 56 39
f 39 56 57
f 39 57 49
f 40 45 44
f 40 44 58
f 40 58 59
f 43 54 60
f 43 60 58
f 43 58 44
f 47 61 48
f 48 61 62
f 49 57 63
f 49 63 50
f 50 63 64
f 50 64 65
f 50 65 66
f 50 66 67
f 50 67 52
f 50 52 51
f 52 67 68
f 52 68 69
f 52 69 53
f 53 69 70
f 53 70 54
f 54 70 71
f 54 71 72
f 54 72 60
f 55 73 56
f 56 73 63
f 56 63 57
f 58 60 74
f 58 74 75
f 58 75 76
f 58 76 77
f 58 77 78
f 58 78 79
f 58 79 59
f 60 72 74
f 61 80 62
f 62 80 81
f 64 82 83
f 64 83 84
f 64 84 68
f 64 68 65
f 65 68 66
f 66 68 67
f 68 84 69
f 69 85 70
f 69 84 83
f 69 83 86
f 69 86 87
f 69 87 88
f 69 88 85
f 70 89 90
f 70 90 91
f 70 91 71
f 70 85 92
f 70 92 89
f 71 91 76
f 71 76 75
f 71 75 74
f 71 74 72
f 76 91 77
f 77 91 93
f 77 93 94
f 77 94 95
f 77 95 96
f 77 96 78
f 78 96 79
f 80 97 98
f 80 98 99
f 80 99 81
f 82 100 83
f 83 100 101
f 83 101 86
f 85 88 92
f 86 101 102
f 86 102 103
f 86 103 87
f 87 103 88
f 88 103 104
f 88 104 92
f 89 92 105
f 89 105 106
f 89 106 90
f 90 93 91
f 90 106 93
f 92 107 108
f 92 108 109
f 92 109 106
f 92 106 105
f 92 104 110
f 92 110 111
f 92 111 107
f 93 106 112
f 93 112 94
f 94 113 95
f 94 112 109
f 94 109 113
f 95 113 114
f 97 115 98
f 98 115 116
f 100 117 118
f 100 118 101
f 101 118 119
f 101 119 102
f 102 119 104
f 102 104 103
f 104 119 120
f 104 120 121
f 104 121 110
f 106 109 112
f 107 122 123
f 107 123 108
f 107 111 122
f 108 123 109
f 109 123 124
f 109 124 125
f 109 125 126
f 109 126 127
f 109 127 113
f 110 121 128
f 110 128 111
f 111 128 129
f 111 129 130
f 111 130 131
f 111 131 122
f 113 127 114
f 114 127 132
f 115 133 134
f 115 134 116
f 117 135 118
f 118 135 136
f 118 136 120
f 118 120 119
f 120 136 121
f 121 137 128
f 121 136 137
f 122 124 123
f 122 131 124
f 124 131 125
f 125 131 126
f 126 138 139
f 126 139 140
f 126 140 141
f 126 141 142
f 126 142 127
f 126 131 138
f 127 142 132
f 128 143 144
f 128 144 145
f 128 145 129
f 128 137 146
f 128 146 143
f 129 138 130
f 129 145 147
f 129 147 148
f 129 148 138
f 130 138 131
f 133 149 134
f 134 149 150
f 134 150 151
f 135 152 136
f 136 152 137
f 137 152 146
f 138 148 139
f 139 153 140
f 139 148 147
f 139 147 154
f 139 154 155
f 139 155 153
f 143 146 152
f 143 152 156
f 143 156 157
f 143 157 144
f 144 157 158
f 144 158 159
f 144 159 145
f 145 159 160
f 145 160 155
f 145 155 154
f 145 154 147
f 149 153 155
f 149 155 160
f 149 160 161
f 149 161 151
f 149 151 150
f 151 161 158
f 156 158 157
f 158 161 160
f 158 160 159
