v 0.0328121 0.248809 -0.295271
v 0.126363 0.252142 -0.265205
v 0.129808 0.248809 -0.263478
v 0.0328121 0.248809 -0.207038
v 0.0328121 0.397879 -0.307237
v 0.132608 0.587196 -0.284435
v 0.138829 0.518178 -0.277767
v 0.139496 0.52662 -0.278065
v 0.141252 0.549281 -0.278839
v 0.134185 0.271507 -0.263101
v 0.142829 0.248809 -0.257763
v 0.25978 0.248809 -0.105251
v 0.0328121 0.587196 -0.234365
v 0.0328121 0.410431 -0.307495
v 0.0328121 0.448272 -0.307892
v 0.0328121 0.460898 -0.307992
v 0.119986 0.587196 -0.287412
v 0.132608 0.599822 -0.284038
v 0.14374 0.599822 -0.27993
v 0.144163 0.587196 -0.280109
v 0.143207 0.57457 -0.279692
v 0.0328121 0.423057 -0.307674
v 0.0328121 0.435683 -0.307793
v 0.230492 0.57457 -0.241331
v 0.22367 0.48615 -0.238334
v 0.196427 0.296759 -0.237461
v 0.219715 0.260139 -0.22474
v 0.213404 0.248809 -0.226745
v 0.25978 0.248809 -0.196738
v 0.25978 0.587196 -0.139524
v 0.0328121 0.599822 -0.235933
v 0.0328121 0.599822 -0.300371
v 0.101653 0.594342 -0.290528
v 0.119986 0.599822 -0.286995
v 0.132608 0.610338 -0.280506
v 0.141518 0.607968 -0.278938
v 0.176317 0.604598 -0.264967
v 0.231025 0.599822 -0.241549
v 0.177561 0.596193 -0.265522
v 0.170472 0.587196 -0.268559
v 0.177472 0.587196 -0.265483
v 0.210782 0.587196 -0.250837
v 0.220981 0.587196 -0.246352
v 0.231447 0.587196 -0.241748
v 0.237781 0.587196 -0.23895
v 0.226337 0.334674 -0.226884
v 0.223426 0.296759 -0.225594
v 0.22147 0.271507 -0.22474
v 0.20836 0.309422 -0.233075
v 0.220759 0.248809 -0.22351
v 0.253535 0.248809 -0.201759
v 0.259668 0.258881 -0.197631
v 0.25978 0.284133 -0.199556
v 0.25978 0.592639 -0.140358
v 0.25978 0.599822 -0.141469
v 0.25978 0.601599 -0.141906
v 0.0328121 0.608634 -0.238493
v 0.0328121 0.61367 -0.294517
v 0.0442116 0.611782 -0.29412
v 0.0568332 0.61056 -0.293187
v 0.0694548 0.60919 -0.292234
v 0.0820987 0.607635 -0.291282
v 0.089965 0.606561 -0.290667
v 0.0983869 0.602747 -0.290012
v 0.0568332 0.599822 -0.296719
v 0.0820987 0.599822 -0.292869
v 0.094387 0.599044 -0.291083
v 0.119897 0.613448 -0.281339
v 0.124052 0.618335 -0.27737
v 0.132608 0.616669 -0.275882
v 0.220981 0.609967 -0.242502
v 0.229159 0.607486 -0.240736
v 0.202738 0.606672 -0.252861
v 0.152473 0.619076 -0.265582
v 0.160895 0.617076 -0.263558
v 0.237336 0.599822 -0.238731
v 0.246225 0.599822 -0.233274
v 0.246225 0.587196 -0.23373
v 0.240225 0.438904 -0.227499
v 0.239758 0.430536 -0.227201
v 0.228248 0.359926 -0.227737
v 0.226981 0.343005 -0.227161
v 0.232203 0.248809 -0.217655
v 0.257735 0.3473 -0.206224
v 0.247158 0.248809 -0.20684
v 0.240047 0.276616 -0.214758
v 0.240425 0.284133 -0.215056
v 0.243558 0.3473 -0.217576
v 0.247002 0.448272 -0.222855
v 0.252824 0.565535 -0.227519
v 0.25978 0.372441 -0.206582
v 0.25978 0.610819 -0.146807
v 0.0328121 0.614929 -0.243038
v 0.0328121 0.619039 -0.290766
v 0.0376785 0.618706 -0.290389
v 0.115631 0.619002 -0.278104
v 0.119897 0.621779 -0.272488
v 0.132608 0.621557 -0.269571
v 0.145229 0.620113 -0.267051
v 0.220981 0.616262 -0.237719
v 0.213648 0.618298 -0.239426
v 0.24498 0.611411 -0.229325
v 0.252847 0.606487 -0.227538
v 0.239936 0.618743 -0.2273
v 0.17885 0.619446 -0.253437
v 0.253602 0.599822 -0.228154
v 0.253891 0.587196 -0.228372
v 0.240691 0.448272 -0.227836
v 0.253269 0.57457 -0.227876
v 0.239069 0.258881 -0.214063
v 0.238514 0.248809 -0.213647
v 0.258868 0.536654 -0.220374
v 0.245402 0.248809 -0.208229
v 0.25958 0.57457 -0.222815
v 0.25978 0.5742 -0.222617
v 0.25978 0.611782 -0.147641
v 0.25978 0.617447 -0.152701
v 0.0328121 0.621112 -0.249348
v 0.0328121 0.622075 -0.285348
v 0.0568332 0.621779 -0.282371
v 0.0820987 0.620779 -0.280446
v 0.0947204 0.620224 -0.279573
v 0.107342 0.61952 -0.2787
v 0.107342 0.623445 -0.271496
v 0.132608 0.625889 -0.258854
v 0.15714 0.621446 -0.259152
v 0.145229 0.624037 -0.258854
v 0.170472 0.620557 -0.255163
v 0.205226 0.619779 -0.241252
v 0.25978 0.599933 -0.223172
v 0.248358 0.614929 -0.223907
v 0.25978 0.610338 -0.218767
v 0.233603 0.619742 -0.22863
v 0.233603 0.623371 -0.220989
v 0.24498 0.620335 -0.220215
v 0.25358 0.619335 -0.215492
v 0.25978 0.616928 -0.212932
v 0.25978 0.613744 -0.21581
v 0.25978 0.599822 -0.223192
v 0.25978 0.587196 -0.223649
v 0.25978 0.620927 -0.157961
v 0.0328121 0.625444 -0.258854
v 0.0328121 0.626814 -0.271496
v 0.0442116 0.626592 -0.271496
v 0.0568332 0.626222 -0.271496
v 0.0694548 0.625667 -0.271496
v 0.0820987 0.625037 -0.271496
v 0.0947204 0.624334 -0.271496
v 0.0442116 0.622186 -0.283483
v 0.119986 0.62674 -0.258854
v 0.157829 0.626222 -0.246233
v 0.220981 0.625667 -0.220989
v 0.195716 0.625185 -0.233611
v 0.170472 0.624667 -0.246233
v 0.195716 0.620964 -0.243276
v 0.183072 0.62189 -0.246848
v 0.209004 0.622297 -0.234564
v 0.220981 0.621334 -0.231408
v 0.246225 0.624667 -0.208348
v 0.258224 0.621112 -0.20803
v 0.25978 0.620853 -0.207256
v 0.25978 0.621038 -0.158258
v 0.258868 0.625296 -0.170483
v 0.25978 0.625407 -0.170483
v 0.258868 0.627037 -0.183124
v 0.0442116 0.625963 -0.258854
v 0.0820987 0.626925 -0.258854
v 0.0947204 0.626962 -0.258854
v 0.107342 0.626925 -0.258854
v 0.145229 0.626925 -0.246233
v 0.20836 0.62674 -0.220989
v 0.183094 0.626518 -0.233611
v 0.233603 0.626666 -0.208348
v 0.258868 0.625407 -0.195746
v 0.25978 0.625148 -0.195746
v 0.25978 0.626925 -0.183124
v 0.246225 0.626925 -0.195746
v 0.170472 0.626962 -0.233611
f 1 2 3
f 1 3 11
f 1 11 28
f 1 28 50
f 1 50 83
f 1 83 111
f 1 111 113
f 1 113 85
f 1 85 51
f 1 51 29
f 1 29 12
f 1 12 4
f 1 4 13
f 1 13 31
f 1 31 57
f 1 57 93
f 1 93 118
f 1 118 142
f 1 142 143
f 1 143 119
f 1 119 94
f 1 94 58
f 1 58 32
f 1 32 16
f 1 16 15
f 1 15 23
f 1 23 22
f 1 22 14
f 1 14 5
f 1 5 2
f 2 5 6
f 2 6 7
f 2 7 8
f 2 8 9
f 2 9 3
f 3 10 11
f 3 9 10
f 4 12 13
f 5 14 6
f 6 15 16
f 6 16 17
f 6 17 18
f 6 18 19
f 6 19 20
f 6 20 21
f 6 21 9
f 6 9 8
f 6 8 7
f 6 14 22
f 6 22 23
f 6 23 15
f 9 21 24
f 9 24 25
f 9 25 26
f 9 26 11
f 9 11 10
f 11 26 27
f 11 27 28
f 12 29 53
f 12 53 91
f 12 91 115
f 12 115 140
f 12 140 139
f 12 139 130
f 12 130 132
f 12 132 138
f 12 138 137
f 12 137 161
f 12 161 175
f 12 175 176
f 12 176 164
f 12 164 162
f 12 162 141
f 12 141 117
f 12 117 116
f 12 116 92
f 12 92 56
f 12 56 55
f 12 55 54
f 12 54 30
f 12 30 13
f 13 30 31
f 16 32 33
f 16 33 34
f 16 34 17
f 17 34 18
f 18 34 35
f 18 35 36
f 18 36 19
f 19 36 37
f 19 37 38
f 19 38 39
f 19 39 20
f 20 39 40
f 20 40 21
f 21 40 41
f 21 41 24
f 24 41 42
f 24 42 43
f 24 43 44
f 24 44 45
f 24 45 46
f 24 46 47
f 24 47 25
f 25 47 48
f 25 48 49
f 25 49 26
f 26 49 48
f 26 48 27
f 27 50 28
f 27 48 50
f 29 51 52
f 29 52 53
f 30 54 31
f 31 55 56
f 31 56 57
f 31 54 55
f 32 58 59
f 32 59 60
f 32 60 61
f 32 61 62
f 32 62 63
f 32 63 64
f 32 64 65
f 32 65 33
f 33 65 66
f 33 66 67
f 33 67 64
f 33 64 34
f 34 64 63
f 34 63 35
f 35 68 69
f 35 69 70
f 35 70 36
f 35 63 68
f 36 71 72
f 36 72 73
f 36 73 37
f 36 70 74
f 36 74 75
f 36 75 71
f 37 73 38
f 38 73 76
f 38 76 45
f 38 45 39
f 39 45 44
f 39 44 43
f 39 43 42
f 39 42 41
f 39 41 40
f 45 76 77
f 45 77 78
f 45 78 79
f 45 79 80
f 45 80 81
f 45 81 82
f 45 82 46
f 46 82 50
f 46 50 47
f 47 50 48
f 50 82 80
f 50 80 83
f 51 84 53
f 51 53 52
f 51 85 86
f 51 86 87
f 51 87 88
f 51 88 89
f 51 89 90
f 51 90 84
f 53 84 91
f 56 92 57
f 57 92 93
f 58 60 59
f 58 94 95
f 58 95 60
f 60 95 61
f 61 95 69
f 61 69 62
f 62 69 68
f 62 68 63
f 64 67 66
f 64 66 65
f 69 95 96
f 69 96 97
f 69 97 98
f 69 98 99
f 69 99 74
f 69 74 70
f 71 100 72
f 71 75 101
f 71 101 100
f 72 102 103
f 72 103 76
f 72 76 73
f 72 100 104
f 72 104 102
f 74 105 104
f 74 104 101
f 74 101 75
f 74 99 105
f 76 103 77
f 77 103 106
f 77 106 78
f 78 106 107
f 78 107 108
f 78 108 79
f 79 108 107
f 79 107 109
f 79 109 90
f 79 90 89
f 79 89 87
f 79 87 86
f 79 86 80
f 80 86 110
f 80 110 111
f 80 111 83
f 80 82 81
f 84 90 112
f 84 112 91
f 85 113 86
f 86 113 110
f 87 89 88
f 90 109 114
f 90 114 112
f 91 112 114
f 91 114 115
f 92 116 93
f 93 116 117
f 93 117 118
f 94 119 120
f 94 120 121
f 94 121 122
f 94 122 123
f 94 123 96
f 94 96 95
f 96 123 97
f 97 123 122
f 97 122 124
f 97 124 125
f 97 125 98
f 98 126 99
f 98 125 127
f 98 127 126
f 99 126 128
f 99 128 129
f 99 129 105
f 100 101 104
f 102 104 103
f 103 130 106
f 103 104 131
f 103 131 132
f 103 132 130
f 104 105 129
f 104 129 133
f 104 133 134
f 104 134 135
f 104 135 136
f 104 136 137
f 104 137 138
f 104 138 131
f 106 130 139
f 106 139 140
f 106 140 107
f 107 140 114
f 107 114 109
f 110 113 111
f 114 140 115
f 117 141 118
f 118 141 142
f 119 143 144
f 119 144 145
f 119 145 146
f 119 146 147
f 119 147 148
f 119 148 149
f 119 149 120
f 120 149 124
f 120 124 121
f 121 124 122
f 124 149 148
f 124 148 125
f 125 150 151
f 125 151 152
f 125 152 153
f 125 153 154
f 125 154 127
f 125 148 150
f 126 155 128
f 126 127 156
f 126 156 155
f 127 154 157
f 127 157 158
f 127 158 156
f 128 155 129
f 129 155 158
f 129 158 133
f 131 138 132
f 133 158 134
f 134 157 154
f 134 154 153
f 134 153 152
f 134 152 159
f 134 159 135
f 134 158 157
f 135 160 136
f 135 159 160
f 136 160 161
f 136 161 137
f 141 162 142
f 142 163 164
f 142 164 165
f 142 165 166
f 142 166 143
f 142 162 163
f 143 166 165
f 143 165 167
f 143 167 168
f 143 168 169
f 143 169 150
f 143 150 144
f 144 150 145
f 145 150 146
f 146 150 147
f 147 150 148
f 150 169 170
f 150 170 171
f 150 171 172
f 150 172 151
f 151 172 152
f 152 172 171
f 152 171 173
f 152 173 159
f 155 156 158
f 159 173 174
f 159 174 175
f 159 175 160
f 160 175 161
f 162 164 163
f 164 176 165
f 165 176 174
f 165 174 177
f 165 177 178
f 165 178 168
f 165 168 167
f 168 178 170
f 168 170 169
f 170 178 171
f 171 178 177
f 171 177 173
f 173 177 174
f 174 176 175
