v -0.435648 0.626882 0.166452
v -0.296776 0.626845 -0.157842
v -0.309419 0.626955 -0.145188
v -0.435648 0.626955 0.145181
v -0.448272 0.625079 0.157836
v -0.448272 0.624968 0.166452
v -0.421895 0.622871 0.166452
v -0.287232 0.626477 -0.156292
v -0.287232 0.626293 -0.16891
v -0.309419 0.625262 -0.157842
v -0.347293 0.627029 -0.0946777
v -0.322044 0.626734 -0.132569
v -0.359918 0.626955 -0.0820592
v -0.435648 0.626955 0.132563
v -0.423023 0.626992 0.0567799
v -0.435648 0.626808 0.119908
v -0.435648 0.626624 0.107326
v -0.448272 0.624747 0.145181
v -0.45728 0.620847 0.157836
v -0.458086 0.619596 0.166452
v -0.415753 0.619559 0.166452
v -0.287232 0.622282 -0.140933
v -0.287232 0.622392 -0.182178
v -0.296776 0.624306 -0.170461
v -0.347293 0.626035 -0.107332
v -0.334668 0.626403 -0.119951
v -0.308577 0.62092 -0.1701
v -0.317352 0.619743 -0.165666
v -0.321757 0.621178 -0.157301
v -0.322044 0.624747 -0.145188
v -0.397756 0.626955 -0.00638454
v -0.41038 0.626955 0.0188884
v -0.372542 0.626734 -0.0694408
v -0.385131 0.626845 -0.0441678
v -0.423023 0.626845 0.0441614
v -0.435648 0.626293 0.0946713
v -0.435648 0.624416 0.0567799
v -0.448272 0.623975 0.132563
v -0.45685 0.620552 0.145181
v -0.435648 0.625704 0.0820168
v -0.435648 0.625079 0.0694344
v -0.463601 0.614113 0.157836
v -0.463386 0.613634 0.166452
v -0.411365 0.613524 0.166452
v -0.287232 0.620037 -0.136247
v -0.296776 0.620405 -0.179798
v -0.287232 0.615769 -0.192417
v -0.288396 0.619191 -0.187513
v -0.359918 0.62552 -0.0946777
v -0.303814 0.61908 -0.177311
v -0.31223 0.615879 -0.174102
v -0.321381 0.611831 -0.169848
v -0.325768 0.616173 -0.161123
v -0.329296 0.619375 -0.152723
v -0.372309 0.621251 -0.094173
v -0.334668 0.623901 -0.132569
v -0.372542 0.624784 -0.0820592
v -0.385131 0.625998 -0.0568223
v -0.397756 0.626698 -0.0189309
v -0.41038 0.626477 0.00626997
v -0.423023 0.626182 0.0315069
v -0.435648 0.623386 0.0441614
v -0.444691 0.620847 0.0694344
v -0.448272 0.622981 0.119908
v -0.443813 0.620221 0.0567799
v -0.45599 0.61989 0.132563
v -0.463959 0.611794 0.144064
v -0.467827 0.607231 0.147489
v -0.468132 0.607747 0.157836
v -0.46815 0.606054 0.166452
v -0.287232 0.614591 -0.128892
v -0.405151 0.599651 0.166452
v -0.287232 0.61242 -0.195229
v -0.316994 0.607452 -0.177707
v -0.329565 0.607783 -0.165629
v -0.33773 0.615106 -0.147495
v -0.341115 0.61886 -0.139059
v -0.379813 0.619375 -0.0895943
v -0.384469 0.620516 -0.0809416
v -0.391614 0.61886 -0.0759663
v -0.385131 0.62368 -0.0694408
v -0.397756 0.62563 -0.0315493
v -0.397756 0.62357 -0.0441678
v -0.423023 0.624637 0.0188884
v -0.435916 0.621362 0.032264
v -0.442291 0.619007 0.0369869
v -0.442936 0.619559 0.0441614
v -0.455095 0.619228 0.119908
v -0.454612 0.618786 0.113383
v -0.456492 0.609329 0.0820168
v -0.455525 0.607783 0.0694344
v -0.454898 0.606716 0.0610701
v -0.467183 0.605907 0.139088
v -0.468526 0.600902 0.144064
v -0.469797 0.599798 0.157836
v -0.469314 0.599798 0.166452
v -0.287232 0.609807 -0.124385
v -0.40354 0.586551 0.166452
v -0.287232 0.598437 -0.118545
v -0.287232 0.603883 -0.121249
v -0.294412 0.609697 -0.192272
v -0.287232 0.599798 -0.201394
v -0.302829 0.604876 -0.189208
v -0.318247 0.599798 -0.178645
v -0.324568 0.599798 -0.173273
v -0.341348 0.606643 -0.152002
v -0.391864 0.606716 -0.0889093
v -0.380063 0.60782 -0.102573
v -0.330639 0.599798 -0.166927
v -0.376356 0.616247 -0.0980306
v -0.388229 0.615143 -0.0844027
v -0.393941 0.6115 -0.0809416
v -0.400084 0.61242 -0.0699455
v -0.402107 0.616578 -0.0590576
v -0.404131 0.618786 -0.0506212
v -0.393243 0.619964 -0.0694408
v -0.397845 0.621067 -0.0556326
v -0.408142 0.621288 -0.0315493
v -0.423614 0.621877 0.00634208
v -0.431887 0.620552 0.0188884
v -0.430186 0.619412 0.0105963
v -0.440304 0.616983 0.0285506
v -0.445031 0.612677 0.032264
v -0.448201 0.61242 0.0441614
v -0.451925 0.615621 0.0820168
v -0.454218 0.603294 0.0526698
v -0.455346 0.599393 0.0568159
v -0.467684 0.597443 0.135807
v -0.469206 0.587176 0.145181
v -0.470173 0.587176 0.157836
v -0.469654 0.587176 0.166452
v -0.287232 0.587176 -0.116454
v -0.379186 0.251135 0.166452
v -0.287232 0.587176 -0.201862
v -0.303688 0.596486 -0.189821
v -0.318552 0.587176 -0.178861
v -0.324855 0.587176 -0.173525
v -0.33696 0.599798 -0.15914
v -0.353131 0.603147 -0.138302
v -0.405366 0.608151 -0.0660518
v -0.387495 0.599798 -0.0960838
v -0.392545 0.599798 -0.0897385
v -0.398365 0.599798 -0.0820592
v -0.403576 0.599798 -0.0747766
v -0.330872 0.587176 -0.167216
v -0.353775 0.592954 -0.139131
v -0.443563 0.608593 0.0215203
v -0.418009 0.619706 -0.0157943
v -0.405438 0.619706 -0.0441678
v -0.419997 0.62092 -0.00638454
v -0.449956 0.599798 0.0315069
v -0.453465 0.599393 0.0447743
v -0.454737 0.59288 0.049389
v -0.453788 0.586845 0.0447743
v -0.454486 0.582429 0.0511196
v -0.454988 0.536616 0.0731118
v -0.467505 0.549274 0.14958
v -0.467272 0.541988 0.151094
v -0.467254 0.542099 0.164614
v -0.454629 0.340334 0.151202
v -0.451173 0.28418 0.157836
v -0.467469 0.548538 0.166452
v -0.287232 0.251135 -0.0785621
v -0.454594 0.340849 0.165551
v -0.448756 0.251135 0.164541
v -0.301002 0.536616 -0.187874
v -0.287232 0.251135 -0.175977
v -0.310619 0.371907 -0.168117
v -0.315615 0.367233 -0.164043
v -0.315991 0.375697 -0.164404
v -0.342028 0.599798 -0.152831
v -0.41749 0.607379 -0.0396612
v -0.392777 0.587176 -0.0900269
v -0.39883 0.587176 -0.0820592
v -0.403808 0.587176 -0.0752092
v -0.406423 0.599798 -0.0684674
v -0.429595 0.606606 -0.0133067
v -0.337193 0.587176 -0.159428
v -0.328526 0.528152 -0.164368
v -0.376374 0.587176 -0.110541
v -0.4417 0.604324 0.01312
v -0.444386 0.599945 0.0179511
v -0.442255 0.595861 0.0118942
v -0.450368 0.587176 0.0315069
v -0.45291 0.574555 0.0441614
v -0.441951 0.416837 0.0378522
v -0.452122 0.561896 0.0441614
v -0.434537 0.251135 0.0567799
v -0.446929 0.448263 0.0567799
v -0.452481 0.536616 0.0567799
v -0.437224 0.251135 0.0742654
v -0.444225 0.251135 0.119908
v -0.448093 0.251135 0.145181
v -0.449096 0.251135 0.157836
v -0.303617 0.258899 -0.164548
v -0.303348 0.251135 -0.164115
v -0.314576 0.347289 -0.163106
v -0.316564 0.258899 -0.152542
v -0.392276 0.574555 -0.089414
v -0.391524 0.428429 -0.0758582
v -0.40662 0.587176 -0.0689
v -0.382588 0.251135 -0.0686116
v -0.391506 0.327638 -0.0632037
v -0.39122 0.319212 -0.0625908
v -0.43015 0.599798 -0.0145325
v -0.324891 0.309423 -0.147207
v -0.37847 0.385191 -0.0878998
v -0.375873 0.574555 -0.109928
v -0.44521 0.587176 0.0188884
v -0.434126 0.587176 -0.00638454
v -0.439426 0.587176 0.00569313
v -0.44222 0.425227 0.0371672
v -0.444959 0.448263 0.0441614
v -0.448147 0.49875 0.0441614
v -0.440698 0.460885 0.0280819
v -0.440268 0.448263 0.0290553
v -0.430293 0.258899 0.0356169
v -0.43049 0.251135 0.0378882
v -0.432156 0.251135 0.0441614
v -0.433069 0.251135 0.0489925
v -0.308846 0.251135 -0.159104
v -0.309938 0.258899 -0.158852
v -0.31737 0.251135 -0.15074
v -0.323942 0.251135 -0.142592
v -0.390772 0.536616 -0.0875393
v -0.389268 0.49875 -0.0856645
v -0.378505 0.258899 -0.0753174
v -0.378183 0.251135 -0.0749208
v -0.40234 0.460885 -0.0591657
v -0.385006 0.251135 -0.0643573
v -0.39652 0.359911 -0.0568223
v -0.38916 0.258899 -0.05794
v -0.392151 0.251135 -0.0499723
v -0.41133 0.251135 -0.00638454
v -0.34407 0.251135 -0.117499
v -0.374888 0.270822 -0.0810137
v -0.442112 0.502798 0.0248371
v -0.424706 0.448263 -0.00638454
v -0.427267 0.251135 0.0298845
v -0.374548 0.251135 -0.0794634
v -0.389196 0.251135 -0.0566421
f 1 2 3
f 1 3 4
f 1 4 5
f 1 5 6
f 1 6 20
f 1 20 43
f 1 43 70
f 1 70 96
f 1 96 131
f 1 131 162
f 1 162 133
f 1 133 98
f 1 98 72
f 1 72 44
f 1 44 21
f 1 21 7
f 1 7 8
f 1 8 2
f 2 8 9
f 2 9 10
f 2 10 3
f 3 11 4
f 3 10 12
f 3 12 33
f 3 33 13
f 3 13 11
f 4 14 5
f 4 11 15
f 4 15 14
f 5 14 16
f 5 16 17
f 5 17 36
f 5 36 18
f 5 18 19
f 5 19 6
f 6 19 20
f 7 21 8
f 8 21 22
f 8 22 45
f 8 45 71
f 8 71 97
f 8 97 100
f 8 100 99
f 8 99 132
f 8 132 163
f 8 163 167
f 8 167 134
f 8 134 102
f 8 102 73
f 8 73 47
f 8 47 23
f 8 23 9
f 9 23 24
f 9 24 10
f 10 25 26
f 10 26 12
f 10 24 27
f 10 27 28
f 10 28 29
f 10 29 30
f 10 30 49
f 10 49 25
f 11 13 31
f 11 31 32
f 11 32 15
f 12 26 33
f 13 33 34
f 13 34 31
f 14 15 16
f 15 32 35
f 15 35 16
f 16 35 17
f 17 35 36
f 18 37 38
f 18 38 39
f 18 39 19
f 18 36 40
f 18 40 41
f 18 41 37
f 19 39 42
f 19 42 20
f 20 42 43
f 21 44 45
f 21 45 22
f 23 46 27
f 23 27 24
f 23 47 48
f 23 48 46
f 25 49 33
f 25 33 26
f 27 46 50
f 27 50 28
f 28 50 51
f 28 51 52
f 28 52 53
f 28 53 54
f 28 54 29
f 29 55 56
f 29 56 30
f 29 54 55
f 30 56 57
f 30 57 49
f 31 34 32
f 32 34 35
f 33 49 57
f 33 57 58
f 33 58 34
f 34 58 59
f 34 59 35
f 35 59 60
f 35 60 61
f 35 61 37
f 35 37 41
f 35 41 40
f 35 40 36
f 37 62 63
f 37 63 38
f 37 61 62
f 38 63 64
f 38 64 39
f 39 64 63
f 39 63 65
f 39 65 66
f 39 66 42
f 42 66 67
f 42 67 68
f 42 68 69
f 42 69 43
f 43 69 70
f 44 71 45
f 44 72 71
f 46 48 50
f 47 73 74
f 47 74 51
f 47 51 50
f 47 50 48
f 51 74 52
f 52 74 75
f 52 75 53
f 53 76 77
f 53 77 54
f 53 75 76
f 54 78 79
f 54 79 55
f 54 77 80
f 54 80 78
f 55 79 57
f 55 57 56
f 57 79 81
f 57 81 58
f 58 82 61
f 58 61 60
f 58 60 59
f 58 81 83
f 58 83 82
f 61 82 84
f 61 84 62
f 62 84 85
f 62 85 86
f 62 86 87
f 62 87 65
f 62 65 63
f 65 87 66
f 66 87 88
f 66 88 67
f 67 88 89
f 67 89 68
f 68 89 90
f 68 90 91
f 68 91 92
f 68 92 93
f 68 93 94
f 68 94 95
f 68 95 69
f 69 95 70
f 70 95 96
f 71 72 97
f 72 98 99
f 72 99 100
f 72 100 97
f 73 101 74
f 73 102 101
f 74 101 103
f 74 103 104
f 74 104 105
f 74 105 75
f 75 106 107
f 75 107 108
f 75 108 76
f 75 105 109
f 75 109 106
f 76 110 77
f 76 108 110
f 77 110 80
f 78 80 79
f 79 80 81
f 80 110 111
f 80 111 107
f 80 107 112
f 80 112 113
f 80 113 114
f 80 114 115
f 80 115 116
f 80 116 81
f 81 116 117
f 81 117 83
f 82 83 84
f 83 117 118
f 83 118 119
f 83 119 84
f 84 119 85
f 85 119 120
f 85 120 86
f 86 120 121
f 86 121 115
f 86 115 122
f 86 122 123
f 86 123 124
f 86 124 90
f 86 90 125
f 86 125 89
f 86 89 87
f 87 89 88
f 89 125 90
f 90 124 91
f 91 124 92
f 92 126 93
f 92 124 126
f 93 126 127
f 93 127 128
f 93 128 94
f 94 128 129
f 94 129 95
f 95 129 130
f 95 130 96
f 96 130 131
f 98 132 99
f 98 133 132
f 101 102 103
f 102 134 135
f 102 135 103
f 103 135 104
f 104 135 136
f 104 136 137
f 104 137 105
f 105 137 109
f 106 109 138
f 106 138 139
f 106 139 107
f 107 140 112
f 107 111 108
f 107 139 141
f 107 141 142
f 107 142 143
f 107 143 144
f 107 144 140
f 108 111 110
f 109 137 145
f 109 145 146
f 109 146 138
f 112 140 113
f 113 140 114
f 114 122 115
f 114 140 147
f 114 147 122
f 115 121 148
f 115 148 149
f 115 149 117
f 115 117 116
f 117 149 118
f 118 149 150
f 118 150 119
f 119 150 120
f 120 150 149
f 120 149 148
f 120 148 121
f 122 147 123
f 123 147 151
f 123 151 126
f 123 126 124
f 126 151 152
f 126 152 127
f 127 152 153
f 127 153 128
f 128 153 129
f 129 153 154
f 129 154 155
f 129 155 156
f 129 156 157
f 129 157 158
f 129 158 130
f 130 159 131
f 130 158 160
f 130 160 161
f 130 161 159
f 131 159 162
f 132 133 163
f 133 164 165
f 133 165 194
f 133 194 193
f 133 193 192
f 133 192 191
f 133 191 188
f 133 188 220
f 133 220 219
f 133 219 218
f 133 218 239
f 133 239 234
f 133 234 233
f 133 233 241
f 133 241 230
f 133 230 202
f 133 202 228
f 133 228 240
f 133 240 235
f 133 235 224
f 133 224 223
f 133 223 221
f 133 221 196
f 133 196 167
f 133 167 163
f 133 162 164
f 134 166 136
f 134 136 135
f 134 167 166
f 136 166 168
f 136 168 169
f 136 169 170
f 136 170 137
f 137 170 145
f 138 146 171
f 138 171 139
f 139 171 141
f 140 172 147
f 140 144 172
f 141 171 146
f 141 146 142
f 142 146 173
f 142 173 174
f 142 174 143
f 143 174 175
f 143 175 144
f 144 175 176
f 144 176 177
f 144 177 172
f 145 178 146
f 145 170 169
f 145 169 179
f 145 179 178
f 146 178 180
f 146 180 173
f 147 172 177
f 147 177 181
f 147 181 151
f 151 182 183
f 151 183 184
f 151 184 152
f 151 181 182
f 152 184 154
f 152 154 153
f 154 185 186
f 154 186 187
f 154 187 188
f 154 188 189
f 154 189 190
f 154 190 155
f 154 184 185
f 155 190 156
f 156 190 189
f 156 189 191
f 156 191 192
f 156 192 160
f 156 160 157
f 157 160 158
f 159 161 164
f 159 164 162
f 160 192 193
f 160 193 194
f 160 194 161
f 161 194 164
f 164 194 165
f 166 167 195
f 166 195 168
f 167 196 195
f 168 195 169
f 169 195 196
f 169 196 197
f 169 197 198
f 169 198 179
f 173 180 208
f 173 208 199
f 173 199 200
f 173 200 174
f 174 200 175
f 175 201 176
f 175 200 202
f 175 202 203
f 175 203 204
f 175 204 201
f 176 201 183
f 176 183 205
f 176 205 181
f 176 181 177
f 178 179 206
f 178 206 207
f 178 207 208
f 178 208 180
f 179 198 206
f 181 205 182
f 182 205 183
f 183 209 184
f 183 201 210
f 183 210 211
f 183 211 209
f 184 209 212
f 184 212 186
f 184 186 185
f 186 213 214
f 186 214 187
f 186 212 215
f 186 215 216
f 186 216 217
f 186 217 218
f 186 218 219
f 186 219 220
f 186 220 188
f 186 188 213
f 187 214 188
f 188 214 213
f 188 191 189
f 196 221 197
f 197 221 222
f 197 222 198
f 198 222 221
f 198 221 223
f 198 223 224
f 198 224 206
f 199 208 225
f 199 225 200
f 200 226 227
f 200 227 228
f 200 228 202
f 200 225 226
f 201 204 229
f 201 229 210
f 202 230 204
f 202 204 203
f 204 231 229
f 204 230 232
f 204 232 233
f 204 233 234
f 204 234 231
f 206 224 235
f 206 235 207
f 207 226 208
f 207 235 236
f 207 236 227
f 207 227 226
f 208 226 225
f 209 211 237
f 209 237 212
f 210 229 238
f 210 238 239
f 210 239 215
f 210 215 211
f 211 215 237
f 212 237 215
f 215 239 216
f 216 239 217
f 217 239 218
f 227 235 240
f 227 240 228
f 227 236 235
f 229 231 238
f 230 241 232
f 231 234 238
f 232 241 233
f 234 239 238
