v 0.050589 0.242166 -0.0345687
v 0.050589 0.248772 -0.205321
v 0.0327899 0.242166 -0.0345687
v 0.050589 -0.592983 -0.0345687
v 0.050589 0.248772 -0.277032
v 0.0327899 0.248772 -0.207031
v 0.0327899 -0.592983 -0.0345687
v 0.050589 -0.625328 -0.132615
v 0.050589 0.248257 -0.277032
v 0.0327899 0.248772 -0.295278
v 0.0327899 -0.627302 -0.144023
v 0.050589 -0.626787 -0.138842
v 0.0327899 0.233586 -0.295151
v 0.050589 0.246198 -0.27693
v 0.0327899 0.195835 -0.294564
v 0.0327899 0.208276 -0.294844
v 0.0327899 0.220974 -0.295023
v 0.0327899 -0.627559 -0.145222
v 0.050589 -0.627731 -0.145222
v 0.050589 0.233586 -0.276292
v 0.050589 0.220974 -0.275577
v 0.050589 0.208276 -0.274837
v 0.050589 0.0682552 -0.266262
v 0.0327899 -0.00621664 -0.281906
v 0.0327899 -0.627559 -0.156655
v 0.050589 -0.627473 -0.151475
v 0.050589 -0.561924 -0.22589
v 0.050589 -0.574193 -0.225099
v 0.0364647 -0.577368 -0.227064
v 0.0327899 -0.574365 -0.22783
v 0.0327899 -0.627473 -0.157854
v 0.0441977 -0.627216 -0.157854
v 0.050589 -0.626958 -0.157854
v 0.050589 -0.587149 -0.22173
v 0.0327899 -0.585004 -0.225354
v 0.0327899 -0.624385 -0.169236
v 0.050589 -0.624985 -0.164107
v 0.0327899 -0.58672 -0.224818
v 0.050589 -0.591009 -0.219434
v 0.0327899 -0.623956 -0.170461
v 0.0441977 -0.623183 -0.170461
v 0.050589 -0.622411 -0.170997
v 0.0327899 -0.58732 -0.224461
v 0.050589 -0.595042 -0.216703
v 0.0327899 -0.619751 -0.178525
v 0.050589 -0.618979 -0.177173
v 0.0327899 -0.596072 -0.218158
v 0.050589 -0.597787 -0.212722
v 0.0327899 -0.616148 -0.184854
v 0.050589 -0.61263 -0.1883
v 0.050589 -0.600705 -0.208358
v 0.0327899 -0.60345 -0.206801
v 0.0327899 -0.608941 -0.197436
v 0.036977 -0.606024 -0.201902
v 0.050589 -0.605423 -0.200855
v 0.050589 -0.603278 -0.2043
f 1 2 3
f 1 3 7
f 1 7 4
f 1 4 8
f 1 8 12
f 1 12 19
f 1 19 26
f 1 26 33
f 1 33 37
f 1 37 42
f 1 42 46
f 1 46 50
f 1 50 55
f 1 55 56
f 1 56 51
f 1 51 48
f 1 48 44
f 1 44 39
f 1 39 34
f 1 34 28
f 1 28 27
f 1 27 23
f 1 23 22
f 1 22 21
f 1 21 20
f 1 20 14
f 1 14 9
f 1 9 5
f 1 5 2
f 2 5 10
f 2 10 6
f 2 6 3
f 3 6 10
f 3 10 13
f 3 13 17
f 3 17 16
f 3 16 15
f 3 15 24
f 3 24 30
f 3 30 35
f 3 35 38
f 3 38 43
f 3 43 47
f 3 47 52
f 3 52 53
f 3 53 49
f 3 49 45
f 3 45 40
f 3 40 36
f 3 36 31
f 3 31 25
f 3 25 18
f 3 18 11
f 3 11 7
f 4 7 8
f 5 9 10
f 7 11 8
f 8 11 12
f 9 13 10
f 9 14 15
f 9 15 16
f 9 16 17
f 9 17 13
f 11 18 12
f 12 18 19
f 14 20 15
f 15 20 21
f 15 21 22
f 15 22 23
f 15 23 24
f 18 25 19
f 19 25 26
f 23 27 24
f 24 27 28
f 24 28 29
f 24 29 30
f 25 31 32
f 25 32 26
f 26 32 33
f 28 34 29
f 29 34 35
f 29 35 30
f 31 36 32
f 32 36 33
f 33 36 37
f 34 38 35
f 34 39 43
f 34 43 38
f 36 40 37
f 37 40 41
f 37 41 42
f 39 44 43
f 40 45 41
f 41 45 42
f 42 45 46
f 43 44 47
f 44 48 47
f 45 49 46
f 46 49 50
f 47 48 51
f 47 51 52
f 49 53 54
f 49 54 50
f 50 54 55
f 51 56 52
f 52 56 55
f 52 55 54
f 52 54 53
