v 0.129553 0.242166 -0.0345687
v 0.129553 0.248772 -0.185317
v 0.0505907 0.242166 -0.0345687
v 0.129553 -0.589987 -0.0345687
v 0.129553 0.248772 -0.263551
v 0.0505907 0.248772 -0.205326
v 0.0505907 -0.59299 -0.0345687
v 0.119961 -0.59299 -0.0345687
v 0.129553 -0.59299 -0.0346161
v 0.124853 0.243624 -0.264928
v 0.122256 0.248772 -0.265687
v 0.129553 0.0700554 -0.251469
v 0.126832 0.0721145 -0.252798
v 0.114025 -0.570683 -0.214821
v 0.114002 -0.380984 -0.227425
v 0.0505907 0.248772 -0.277057
v 0.0505907 -0.625336 -0.132599
v 0.129553 -0.626022 -0.110382
v 0.129553 -0.624907 -0.107272
v 0.116645 0.233586 -0.265687
v 0.120316 0.248772 -0.266019
v 0.112827 -0.389392 -0.227163
v 0.129553 -0.0976793 -0.2401
v 0.129553 -0.462663 -0.215343
v 0.118925 -0.574715 -0.2124
v 0.113113 -0.579091 -0.214536
v 0.107331 0.248772 -0.268108
v 0.0505907 0.246198 -0.276938
v 0.0505907 -0.626795 -0.138841
v 0.0568282 -0.625937 -0.132599
v 0.119961 -0.627395 -0.119971
v 0.129553 -0.627567 -0.119971
v 0.0505907 0.0682536 -0.266281
v 0.0505907 0.208361 -0.274826
v 0.0505907 0.220974 -0.275585
v 0.108274 -0.574715 -0.215841
v 0.107331 -0.561931 -0.216862
v 0.0947094 -0.574544 -0.21831
v 0.0947094 -0.561931 -0.219117
v 0.129553 -0.532245 -0.210619
v 0.121012 -0.561931 -0.212352
v 0.129553 -0.574544 -0.207747
v 0.129553 -0.584668 -0.205113
v 0.129553 -0.586727 -0.204519
v 0.119961 -0.587156 -0.208412
v 0.108274 -0.587242 -0.212589
v 0.104688 -0.583038 -0.215438
v 0.0505907 0.233586 -0.276273
v 0.0505907 -0.627652 -0.145226
v 0.0568282 -0.627738 -0.145226
v 0.129553 -0.627652 -0.123009
v 0.0820875 -0.574544 -0.220256
v 0.0694579 -0.574544 -0.222203
v 0.0505907 -0.567337 -0.225549
v 0.129553 -0.589558 -0.203071
v 0.126701 -0.593591 -0.202193
v 0.0947094 -0.591446 -0.213444
v 0.119961 -0.59462 -0.203665
v 0.0947094 -0.585097 -0.216292
v 0.0505907 -0.574115 -0.225098
v 0.0568282 -0.574544 -0.224125
v 0.0505907 -0.627481 -0.151469
v 0.107331 -0.627738 -0.132599
v 0.0820875 -0.627738 -0.145226
v 0.119961 -0.627652 -0.132599
v 0.129553 -0.627309 -0.132599
v 0.129553 -0.595135 -0.198561
v 0.129553 -0.595993 -0.197327
v 0.0851869 -0.592733 -0.21418
v 0.0505907 -0.587156 -0.221728
v 0.107331 -0.596165 -0.205848
v 0.119961 -0.599597 -0.195713
v 0.0505907 -0.626966 -0.15783
v 0.0947094 -0.627567 -0.145226
v 0.107331 -0.626966 -0.145226
v 0.129553 -0.626795 -0.135637
v 0.129553 -0.596851 -0.195927
v 0.0767697 -0.593591 -0.214797
v 0.0505907 -0.591017 -0.219425
v 0.107494 -0.602943 -0.194954
v 0.103389 -0.606546 -0.190254
v 0.0947094 -0.603372 -0.19747
v 0.0947094 -0.597108 -0.20713
v 0.129553 -0.602514 -0.186646
v 0.119961 -0.60483 -0.186954
v 0.111814 -0.605688 -0.188711
v 0.0505907 -0.624993 -0.164073
v 0.0820875 -0.625679 -0.15783
v 0.0947094 -0.624821 -0.15783
v 0.119961 -0.625593 -0.145226
v 0.129553 -0.624135 -0.145226
v 0.0505907 -0.595049 -0.21672
v 0.107494 -0.609206 -0.18394
v 0.104672 -0.619587 -0.165758
v 0.0947094 -0.620445 -0.167254
v 0.0947094 -0.617014 -0.173567
v 0.0947094 -0.611694 -0.183086
v 0.0947094 -0.607061 -0.191156
v 0.0820875 -0.603972 -0.198443
v 0.0505907 -0.603286 -0.204306
v 0.0568282 -0.600111 -0.208341
v 0.0505907 -0.597795 -0.212732
v 0.129553 -0.604058 -0.184059
v 0.129553 -0.607061 -0.178552
v 0.119961 -0.608176 -0.180641
v 0.0505907 -0.622419 -0.171004
v 0.0694579 -0.621732 -0.169414
v 0.0820875 -0.621218 -0.16844
v 0.108266 -0.622247 -0.158946
v 0.129553 -0.623019 -0.147861
v 0.129553 -0.619244 -0.155528
v 0.119961 -0.621132 -0.156074
v 0.0820875 -0.607662 -0.192129
v 0.0694579 -0.604573 -0.199416
v 0.0505907 -0.600712 -0.208341
v 0.0568282 -0.605173 -0.200365
v 0.0505907 -0.605431 -0.200864
v 0.0505907 -0.618987 -0.177175
v 0.0565964 -0.621647 -0.171502
v 0.129553 -0.620016 -0.154009
f 1 2 3
f 1 3 7
f 1 7 8
f 1 8 4
f 1 4 9
f 1 9 19
f 1 19 18
f 1 18 32
f 1 32 51
f 1 51 66
f 1 66 76
f 1 76 91
f 1 91 110
f 1 110 120
f 1 120 111
f 1 111 104
f 1 104 103
f 1 103 84
f 1 84 77
f 1 77 68
f 1 68 67
f 1 67 55
f 1 55 44
f 1 44 43
f 1 43 42
f 1 42 40
f 1 40 24
f 1 24 23
f 1 23 12
f 1 12 5
f 1 5 2
f 2 5 11
f 2 11 21
f 2 21 27
f 2 27 16
f 2 16 6
f 2 6 3
f 3 6 16
f 3 16 28
f 3 28 48
f 3 48 35
f 3 35 34
f 3 34 33
f 3 33 54
f 3 54 60
f 3 60 70
f 3 70 79
f 3 79 92
f 3 92 102
f 3 102 115
f 3 115 100
f 3 100 117
f 3 117 118
f 3 118 106
f 3 106 87
f 3 87 73
f 3 73 62
f 3 62 49
f 3 49 29
f 3 29 17
f 3 17 7
f 4 8 9
f 5 10 11
f 5 12 13
f 5 13 14
f 5 14 15
f 5 15 10
f 7 17 18
f 7 18 19
f 7 19 8
f 8 19 9
f 10 20 21
f 10 21 11
f 10 15 22
f 10 22 20
f 12 23 13
f 13 23 14
f 14 24 25
f 14 25 26
f 14 26 15
f 14 23 24
f 15 26 22
f 16 27 28
f 17 29 30
f 17 30 18
f 18 30 31
f 18 31 32
f 20 33 34
f 20 34 21
f 20 22 33
f 21 34 35
f 21 35 27
f 22 26 36
f 22 36 37
f 22 37 38
f 22 38 39
f 22 39 33
f 24 40 41
f 24 41 25
f 25 41 42
f 25 42 26
f 26 42 43
f 26 43 44
f 26 44 45
f 26 45 46
f 26 46 47
f 26 47 38
f 26 38 36
f 27 35 48
f 27 48 28
f 29 49 31
f 29 31 30
f 31 49 32
f 32 49 50
f 32 50 51
f 33 39 38
f 33 38 52
f 33 52 53
f 33 53 54
f 36 38 37
f 38 47 52
f 40 42 41
f 44 55 45
f 45 55 56
f 45 56 46
f 46 57 47
f 46 56 58
f 46 58 57
f 47 57 59
f 47 59 60
f 47 60 61
f 47 61 53
f 47 53 52
f 49 62 50
f 50 63 51
f 50 62 64
f 50 64 63
f 51 63 65
f 51 65 66
f 53 61 54
f 54 61 60
f 55 67 56
f 56 67 68
f 56 68 58
f 57 69 70
f 57 70 59
f 57 58 71
f 57 71 69
f 58 68 72
f 58 72 71
f 59 70 60
f 62 73 64
f 63 64 65
f 64 73 74
f 64 74 65
f 65 74 66
f 66 74 75
f 66 75 76
f 68 77 72
f 69 71 78
f 69 78 70
f 70 78 79
f 71 72 80
f 71 80 81
f 71 81 82
f 71 82 83
f 71 83 78
f 72 77 84
f 72 84 85
f 72 85 86
f 72 86 80
f 73 87 88
f 73 88 74
f 74 88 75
f 75 88 89
f 75 89 90
f 75 90 76
f 76 90 91
f 78 83 92
f 78 92 79
f 80 86 81
f 81 86 93
f 81 93 94
f 81 94 95
f 81 95 96
f 81 96 97
f 81 97 98
f 81 98 82
f 82 98 113
f 82 113 99
f 82 99 100
f 82 100 101
f 82 101 83
f 83 102 92
f 83 101 102
f 84 103 85
f 85 103 104
f 85 104 105
f 85 105 94
f 85 94 93
f 85 93 86
f 87 106 88
f 88 106 89
f 89 106 107
f 89 107 108
f 89 108 95
f 89 95 109
f 89 109 91
f 89 91 90
f 91 109 110
f 94 105 111
f 94 111 112
f 94 112 109
f 94 109 95
f 95 108 96
f 96 108 97
f 97 108 113
f 97 113 98
f 99 114 100
f 99 113 114
f 100 115 101
f 100 114 116
f 100 116 117
f 101 115 102
f 104 111 105
f 106 118 119
f 106 119 107
f 107 119 108
f 108 119 118
f 108 118 116
f 108 116 113
f 109 112 110
f 110 112 120
f 111 120 112
f 113 116 114
f 116 118 117
