v -0.366794 0.251098 0.068374
v -0.202026 0.251098 -0.15361
v -0.436335 0.251098 0.068374
v -0.202026 0.242152 0.068374
v -0.205214 0.250152 -0.232135
v -0.220351 0.251098 -0.224721
v -0.202026 0.17032 -0.228075
v -0.424179 0.251098 0.0229181
v -0.431174 0.249808 0.040718
v -0.434569 0.248604 0.0580177
v -0.429179 0.179009 0.0513979
v -0.421541 0.0440349 0.0568114
v -0.391358 -0.453193 0.063696
v -0.409042 -0.183244 0.068374
v -0.202026 -0.592984 0.068374
v -0.204182 0.205763 -0.229605
v -0.213447 0.234237 -0.22784
v -0.214755 0.0627024 -0.214659
v -0.228034 0.195698 -0.215159
v -0.234089 0.251098 -0.214983
v -0.202026 -0.0310654 -0.21463
v -0.389179 0.251098 -0.056696
v -0.393147 0.250754 -0.0476931
v -0.416702 0.248604 0.00626561
v -0.427092 0.246195 0.0303028
v -0.429408 0.232431 0.037717
v -0.429569 0.191569 0.0493973
v -0.416794 -0.0143764 0.0501622
v -0.404019 -0.220149 0.050986
v -0.406473 -0.195718 0.0568114
v -0.404569 -0.233569 0.0598713
v -0.390808 -0.472634 0.0681092
v -0.382803 -0.561929 0.0568114
v -0.385189 -0.561929 0.068374
v -0.391588 -0.460849 0.068374
v -0.28386 -0.622749 0.068374
v -0.202026 -0.626964 -0.0694943
v -0.20214 -0.218085 -0.202067
v -0.217071 -0.0569591 -0.203773
v -0.224067 0.119909 -0.212247
v -0.202186 -0.383856 -0.189474
v -0.202026 -0.561929 -0.175911
v -0.25847 0.251098 -0.197095
v -0.235007 0.0440349 -0.198389
v -0.256543 0.17032 -0.192299
v -0.38379 0.251098 -0.0665227
v -0.379822 0.17032 -0.0646398
v -0.378904 0.143824 -0.0632864
v -0.387069 0.220903 -0.0568431
v -0.391083 0.233549 -0.0497232
v -0.367276 -0.129393 -0.047899
v -0.415762 0.0566806 0.0336863
v -0.422505 0.17032 0.0315385
v -0.386955 -0.435643 0.0441603
v -0.391427 -0.410352 0.0506624
v -0.381978 -0.574488 0.0568114
v -0.384317 -0.574919 0.068374
v -0.296772 -0.627394 0.068374
v -0.205214 -0.627566 -0.0820866
v -0.205214 -0.626018 -0.0946789
v -0.202393 -0.61862 -0.116627
v -0.202026 -0.611221 -0.13275
v -0.260167 -0.536637 -0.135192
v -0.202026 -0.574488 -0.174911
v -0.252323 -0.565714 -0.138693
v -0.276704 0.251098 -0.183708
v -0.298997 0.17032 -0.161112
v -0.376336 0.251098 -0.0772321
v -0.376955 0.220903 -0.0734662
v -0.353584 -0.303336 -0.0505764
v -0.344226 -0.574488 -0.0315996
v -0.345097 -0.561929 -0.0315996
v -0.379203 0.0693264 -0.0514002
v -0.355785 -0.561499 -0.00735646
v -0.365785 -0.549283 0.0135033
v -0.379042 -0.549283 0.0436895
v -0.378606 -0.561929 0.0446604
v -0.379363 -0.578188 0.0492502
v -0.378698 -0.587478 0.0568114
v -0.376863 -0.593414 0.0677562
v -0.359799 -0.605544 0.068374
v -0.30941 -0.627652 0.068374
v -0.296772 -0.627652 0.0568114
v -0.221016 -0.627738 -0.0694943
v -0.221016 -0.626448 -0.0820866
v -0.204984 -0.621889 -0.107301
v -0.217576 -0.619738 -0.103123
v -0.230236 -0.605372 -0.124659
v -0.204204 -0.605286 -0.143607
v -0.20503 -0.597715 -0.157641
v -0.202416 -0.590833 -0.168115
v -0.268768 -0.536637 -0.128867
v -0.215168 -0.581715 -0.164466
v -0.255374 -0.574488 -0.135751
v -0.267438 -0.561929 -0.127866
v -0.287392 0.233549 -0.174499
v -0.306015 0.251098 -0.161671
v -0.303194 0.0871337 -0.151609
v -0.316726 0.248604 -0.151315
v -0.315786 0.239227 -0.15158
v -0.364111 0.0566806 -0.0732014
v -0.311657 -0.524336 -0.0810275
v -0.341152 -0.457236 -0.0508118
v -0.340006 -0.48614 -0.0493113
v -0.338997 -0.511432 -0.0479873
v -0.336978 -0.561929 -0.04531
v -0.336474 -0.574488 -0.0446333
v -0.34168 -0.582403 -0.0347771
v -0.360877 -0.574488 0.00626561
v -0.371978 -0.574488 0.0315385
v -0.367047 -0.583177 0.0232711
v -0.37473 -0.586532 0.0449547
v -0.365005 -0.591608 0.0279491
v -0.367643 -0.594446 0.0402472
v -0.3709 -0.596769 0.0568114
v -0.357299 -0.6052 0.0576352
v -0.348056 -0.612168 0.068374
v -0.296772 -0.627738 0.0441603
v -0.322001 -0.625244 0.068374
v -0.30941 -0.627222 0.0568114
v -0.284158 -0.627566 0.00626561
v -0.27152 -0.627738 -0.00635613
v -0.246268 -0.627566 -0.0442214
v -0.233654 -0.626706 -0.0694943
v -0.233654 -0.623437 -0.0820866
v -0.221475 -0.621889 -0.0953556
v -0.233654 -0.618448 -0.0940317
v -0.24941 -0.605028 -0.111302
v -0.240993 -0.60649 -0.114362
v -0.245626 -0.602447 -0.119128
v -0.233654 -0.600038 -0.132574
v -0.221567 -0.597543 -0.145931
v -0.217713 -0.594791 -0.153698
v -0.226131 -0.592382 -0.150638
v -0.21198 -0.590145 -0.162142
v -0.276428 -0.486484 -0.127072
v -0.266406 -0.578446 -0.127101
v -0.229319 -0.583951 -0.152963
v -0.27308 -0.574488 -0.122041
v -0.273745 -0.561929 -0.122629
v -0.276405 -0.511432 -0.124983
v -0.279639 -0.574488 -0.115745
v -0.290626 -0.330176 -0.126425
v -0.291497 -0.435643 -0.114921
v -0.286979 -0.549283 -0.109272
v -0.30746 -0.574488 -0.0812628
v -0.318836 -0.574488 -0.0670523
v -0.330671 -0.561929 -0.0534891
v -0.330166 -0.574488 -0.0528418
v -0.329387 -0.583263 -0.0518709
v -0.33402 -0.586274 -0.043427
v -0.339937 -0.591694 -0.0282456
v -0.352873 -0.592468 0.00152878
v -0.354937 -0.584123 -0.00314921
v -0.344799 -0.596081 -0.00635613
v -0.360418 -0.596855 0.0318916
v -0.359868 -0.600468 0.0441603
v -0.352574 -0.605544 0.0475732
v -0.348377 -0.609759 0.05587
v -0.332116 -0.620856 0.068374
v -0.284158 -0.627738 0.0189168
v -0.322001 -0.623609 0.0568114
v -0.30941 -0.626018 0.0441603
v -0.284158 -0.62662 -0.00635613
v -0.296772 -0.626362 0.0189168
v -0.27152 -0.62705 -0.0189485
v -0.258906 -0.627308 -0.0315996
v -0.246268 -0.626276 -0.0568431
v -0.258906 -0.625674 -0.0442214
v -0.259479 -0.621803 -0.057255
v -0.252713 -0.620254 -0.069965
v -0.241543 -0.619394 -0.0852935
v -0.256796 -0.605114 -0.105035
v -0.267965 -0.594963 -0.116098
v -0.258745 -0.596683 -0.120158
v -0.233654 -0.595049 -0.141518
v -0.254433 -0.594274 -0.127543
v -0.240259 -0.593586 -0.139076
v -0.262851 -0.590833 -0.124512
v -0.271199 -0.586962 -0.119658
v -0.278883 -0.583177 -0.114833
v -0.290671 -0.581371 -0.101269
v -0.28597 -0.574488 -0.108007
v -0.326978 -0.591694 -0.0488699
v -0.330235 -0.594618 -0.0404555
v -0.332781 -0.596339 -0.0315996
v -0.33918 -0.596253 -0.0182424
v -0.333836 -0.602791 -0.00617961
v -0.346152 -0.602275 0.0197994
v -0.349042 -0.603651 0.0315385
v -0.342735 -0.607092 0.0315385
v -0.339364 -0.605286 0.0161806
v -0.318217 -0.620082 0.0315385
v -0.329295 -0.619222 0.0533986
v -0.30941 -0.624211 0.0315385
v -0.322277 -0.621028 0.0451312
v -0.310006 -0.621458 0.0191522
v -0.296772 -0.624727 0.00626561
v -0.284158 -0.624125 -0.0189485
v -0.27152 -0.624899 -0.0315996
v -0.271589 -0.6212 -0.043986
v -0.267438 -0.619738 -0.0532831
v -0.258906 -0.6132 -0.0820866
v -0.267461 -0.604855 -0.093914
v -0.27191 -0.597027 -0.107536
v -0.279823 -0.594618 -0.103505
v -0.276383 -0.591608 -0.11192
v -0.315212 -0.592898 -0.0625509
v -0.303401 -0.593672 -0.0762024
v -0.318607 -0.595135 -0.0541364
v -0.32246 -0.597199 -0.0444862
v -0.319226 -0.604769 -0.0292753
v -0.322162 -0.606146 -0.0189485
v -0.337185 -0.604081 0.00626561
v -0.327254 -0.605544 -0.0102397
v -0.306359 -0.620426 0.00626561
v -0.302208 -0.619738 -0.00594424
v -0.292277 -0.619566 -0.0224496
v -0.283722 -0.620512 -0.0307464
v -0.275855 -0.617845 -0.0480756
v -0.305396 -0.607178 -0.0408085
v -0.278447 -0.606404 -0.0765554
v -0.275052 -0.604855 -0.0848816
v -0.284089 -0.596339 -0.0942965
v -0.306107 -0.595221 -0.0694943
v -0.291589 -0.594188 -0.0898244
v -0.310373 -0.597973 -0.0577258
v -0.309524 -0.603737 -0.0446921
v -0.311657 -0.60692 -0.0334826
v -0.295855 -0.615093 -0.0307464
v -0.302024 -0.60563 -0.0491936
v -0.297392 -0.604511 -0.0579317
v -0.296772 -0.600124 -0.0694943
f 1 2 6
f 1 6 20
f 1 20 43
f 1 43 66
f 1 66 97
f 1 97 68
f 1 68 46
f 1 46 22
f 1 22 8
f 1 8 3
f 1 3 14
f 1 14 35
f 1 35 34
f 1 34 57
f 1 57 81
f 1 81 117
f 1 117 160
f 1 160 119
f 1 119 82
f 1 82 58
f 1 58 36
f 1 36 15
f 1 15 4
f 1 4 2
f 2 5 6
f 2 4 15
f 2 15 37
f 2 37 62
f 2 62 64
f 2 64 42
f 2 42 21
f 2 21 7
f 2 7 5
f 3 8 9
f 3 9 10
f 3 10 11
f 3 11 12
f 3 12 13
f 3 13 14
f 5 7 16
f 5 16 17
f 5 17 6
f 6 17 18
f 6 18 19
f 6 19 20
f 7 21 16
f 8 22 23
f 8 23 24
f 8 24 25
f 8 25 9
f 9 25 26
f 9 26 27
f 9 27 10
f 10 27 11
f 11 27 28
f 11 28 29
f 11 29 30
f 11 30 12
f 12 30 31
f 12 31 13
f 13 32 14
f 13 31 30
f 13 30 29
f 13 29 33
f 13 33 34
f 13 34 32
f 14 32 35
f 15 36 37
f 16 21 17
f 17 21 38
f 17 38 18
f 18 39 40
f 18 40 19
f 18 38 41
f 18 41 42
f 18 42 39
f 19 40 20
f 20 40 44
f 20 44 45
f 20 45 43
f 21 42 38
f 22 46 47
f 22 47 48
f 22 48 49
f 22 49 50
f 22 50 23
f 23 50 51
f 23 51 52
f 23 52 24
f 24 52 53
f 24 53 25
f 25 53 26
f 26 28 27
f 26 53 52
f 26 52 54
f 26 54 55
f 26 55 29
f 26 29 28
f 29 55 56
f 29 56 33
f 32 34 35
f 33 56 34
f 34 56 57
f 36 58 37
f 37 58 59
f 37 59 60
f 37 60 61
f 37 61 62
f 38 42 41
f 39 44 40
f 39 42 63
f 39 63 44
f 42 64 65
f 42 65 63
f 43 45 66
f 44 63 45
f 45 67 66
f 45 63 67
f 46 68 47
f 47 68 69
f 47 69 48
f 48 51 49
f 48 69 70
f 48 70 71
f 48 71 72
f 48 72 51
f 49 51 73
f 49 73 50
f 50 73 51
f 51 72 74
f 51 74 75
f 51 75 52
f 52 75 76
f 52 76 54
f 54 76 77
f 54 77 55
f 55 77 78
f 55 78 56
f 56 78 79
f 56 79 57
f 57 79 80
f 57 80 81
f 58 82 83
f 58 83 59
f 59 83 84
f 59 84 85
f 59 85 60
f 60 85 86
f 60 86 61
f 61 87 88
f 61 88 62
f 61 86 87
f 62 88 89
f 62 89 90
f 62 90 91
f 62 91 64
f 63 65 92
f 63 92 67
f 64 93 94
f 64 94 65
f 64 91 93
f 65 95 92
f 65 94 95
f 66 96 97
f 66 67 96
f 67 98 97
f 67 97 96
f 67 92 98
f 68 97 99
f 68 99 100
f 68 100 69
f 69 101 70
f 69 100 102
f 69 102 101
f 70 102 103
f 70 103 104
f 70 104 105
f 70 105 106
f 70 106 107
f 70 107 71
f 70 101 102
f 71 107 108
f 71 108 78
f 71 78 109
f 71 109 72
f 72 109 74
f 74 109 77
f 74 77 75
f 75 77 76
f 77 109 110
f 77 110 78
f 78 110 109
f 78 108 111
f 78 111 112
f 78 112 79
f 79 112 113
f 79 113 114
f 79 114 115
f 79 115 80
f 80 115 81
f 81 115 116
f 81 116 117
f 82 118 83
f 82 119 120
f 82 120 121
f 82 121 118
f 83 118 84
f 84 122 123
f 84 123 124
f 84 124 85
f 84 118 161
f 84 161 122
f 85 125 86
f 85 124 125
f 86 125 126
f 86 126 87
f 87 126 127
f 87 127 128
f 87 128 129
f 87 129 88
f 88 128 130
f 88 130 131
f 88 131 89
f 88 129 128
f 89 131 90
f 90 131 132
f 90 132 133
f 90 133 91
f 91 133 134
f 91 134 135
f 91 135 93
f 92 95 136
f 92 136 98
f 93 137 94
f 93 135 134
f 93 134 138
f 93 138 137
f 94 137 95
f 95 137 139
f 95 139 140
f 95 140 141
f 95 141 136
f 97 98 100
f 97 100 99
f 98 136 141
f 98 141 142
f 98 142 143
f 98 143 100
f 100 143 144
f 100 144 102
f 102 144 145
f 102 145 146
f 102 146 147
f 102 147 103
f 103 147 148
f 103 148 104
f 104 148 149
f 104 149 105
f 105 149 106
f 106 149 107
f 107 149 150
f 107 150 108
f 108 150 151
f 108 151 152
f 108 152 153
f 108 153 154
f 108 154 111
f 111 154 113
f 111 113 112
f 113 154 153
f 113 153 114
f 114 153 155
f 114 155 156
f 114 156 115
f 115 156 157
f 115 157 116
f 116 157 158
f 116 158 159
f 116 159 117
f 117 159 160
f 118 121 161
f 119 162 163
f 119 163 120
f 119 160 162
f 120 164 121
f 120 163 165
f 120 165 164
f 121 164 166
f 121 166 167
f 121 167 123
f 121 123 122
f 121 122 161
f 123 167 124
f 124 167 166
f 124 166 164
f 124 164 168
f 124 168 125
f 125 168 169
f 125 169 170
f 125 170 171
f 125 171 172
f 125 172 127
f 125 127 126
f 127 172 173
f 127 173 128
f 128 173 174
f 128 174 175
f 128 175 130
f 130 175 131
f 131 175 132
f 132 175 133
f 133 176 177
f 133 177 178
f 133 178 134
f 133 175 176
f 134 179 138
f 134 178 179
f 137 138 179
f 137 179 180
f 137 180 181
f 137 181 139
f 139 181 142
f 139 142 140
f 140 142 141
f 142 182 183
f 142 183 145
f 142 145 143
f 142 181 182
f 143 145 144
f 145 183 146
f 146 183 182
f 146 182 147
f 147 182 149
f 147 149 148
f 149 182 150
f 150 181 184
f 150 184 151
f 150 182 181
f 151 184 152
f 152 184 185
f 152 185 186
f 152 186 187
f 152 187 153
f 153 187 155
f 155 187 188
f 155 188 156
f 156 188 189
f 156 189 157
f 157 189 190
f 157 190 158
f 158 191 159
f 158 190 192
f 158 192 191
f 159 191 193
f 159 193 194
f 159 194 160
f 160 194 162
f 162 195 163
f 162 194 196
f 162 196 197
f 162 197 195
f 163 195 198
f 163 198 165
f 164 165 198
f 164 198 199
f 164 199 169
f 164 169 168
f 169 199 200
f 169 200 170
f 170 201 202
f 170 202 171
f 170 200 199
f 170 199 201
f 171 202 203
f 171 203 172
f 172 203 173
f 173 204 205
f 173 205 174
f 173 203 204
f 174 206 207
f 174 207 179
f 174 179 177
f 174 177 175
f 174 205 206
f 175 177 176
f 177 179 178
f 179 207 180
f 180 207 181
f 181 207 184
f 184 207 208
f 184 208 185
f 185 208 209
f 185 209 210
f 185 210 211
f 185 211 212
f 185 212 186
f 186 212 213
f 186 213 188
f 186 188 187
f 188 214 189
f 188 213 215
f 188 215 214
f 189 214 190
f 190 214 192
f 191 192 215
f 191 215 193
f 192 214 215
f 193 216 197
f 193 197 196
f 193 196 194
f 193 215 216
f 195 197 198
f 197 216 198
f 198 216 217
f 198 217 199
f 199 217 218
f 199 218 219
f 199 219 201
f 201 219 220
f 201 220 202
f 202 220 203
f 203 220 221
f 203 221 222
f 203 222 223
f 203 223 204
f 204 223 205
f 205 223 224
f 205 224 206
f 206 224 225
f 206 225 226
f 206 226 207
f 207 226 209
f 207 209 208
f 209 226 210
f 210 226 225
f 210 225 224
f 210 224 227
f 210 227 211
f 211 227 228
f 211 228 212
f 212 228 229
f 212 229 218
f 212 218 217
f 212 217 213
f 213 217 215
f 215 217 216
f 218 229 230
f 218 230 219
f 219 230 220
f 220 230 221
f 221 230 229
f 221 229 228
f 221 228 231
f 221 231 222
f 222 231 232
f 222 232 223
f 223 232 233
f 223 233 224
f 224 233 227
f 227 233 228
f 228 232 231
f 228 233 232
