v 0.23216 0.247523 0.549473
v 0.255444 0.248123 0.532448
v 0.230696 0.248123 0.461127
v 0.230696 0.194539 0.546513
v 0.276572 0.246237 0.516801
v 0.285336 0.248123 0.510501
v 0.365375 0.248123 0.250153
v 0.230696 0.242208 0.250153
v 0.230696 -0.158 0.51935
v 0.28251 -0.132708 0.48328
v 0.288834 0.0314727 0.491279
v 0.288183 0.182965 0.50341
v 0.297842 0.247094 0.501242
v 0.306688 0.248123 0.494561
v 0.438418 0.248123 0.250153
v 0.230696 -0.593016 0.250153
v 0.230696 -0.554264 0.488818
v 0.302865 0.17885 0.492305
v 0.266242 -0.486105 0.467984
v 0.278056 -0.380995 0.467398
v 0.305529 0.233463 0.494414
v 0.303292 0.187252 0.492627
v 0.304309 0.208257 0.493447
v 0.312545 0.248123 0.489169
v 0.302987 0.0261572 0.479734
v 0.433172 0.248123 0.284173
v 0.435205 0.247094 0.270577
v 0.429329 0.202084 0.290473
v 0.415725 -0.0942138 0.257889
v 0.393864 -0.460985 0.250153
v 0.287512 -0.622166 0.250153
v 0.230696 -0.623194 0.359567
v 0.230696 -0.564123 0.488056
v 0.277853 -0.543119 0.454593
v 0.290603 -0.254194 0.467369
v 0.261605 -0.574497 0.464556
v 0.269983 -0.574497 0.458227
v 0.317588 0.233463 0.482137
v 0.318625 0.248123 0.482283
v 0.31407 0.145071 0.477771
v 0.428271 0.248123 0.300553
v 0.430854 0.247094 0.293755
v 0.429918 0.220946 0.292026
v 0.416721 0.012011 0.290561
v 0.391485 -0.430121 0.27799
v 0.391689 -0.436722 0.27421
v 0.393763 -0.410402 0.271514
v 0.404561 -0.246221 0.268379
v 0.387764 -0.536688 0.258915
v 0.387276 -0.565838 0.250153
v 0.296785 -0.626624 0.250153
v 0.23216 -0.626967 0.372518
v 0.23216 -0.627653 0.385177
v 0.23216 -0.627224 0.397835
v 0.230696 -0.610677 0.446359
v 0.230696 -0.586414 0.483661
v 0.23216 -0.574497 0.486151
v 0.240193 -0.577669 0.480027
v 0.277446 -0.55152 0.454183
v 0.281676 -0.574497 0.44674
v 0.254163 -0.583499 0.468365
v 0.268174 -0.584957 0.456849
v 0.276287 -0.574497 0.45304
v 0.276918 -0.561894 0.453685
v 0.3244 0.246237 0.474929
v 0.375746 0.248123 0.410992
v 0.328955 0.233463 0.467984
v 0.319967 -0.574926 0.399007
v 0.424957 0.248123 0.30823
v 0.418693 0.233463 0.320273
v 0.411881 -0.0191105 0.296802
v 0.378633 -0.552892 0.290063
v 0.377901 -0.574497 0.288363
v 0.380565 -0.574497 0.282063
v 0.383372 -0.574497 0.271514
v 0.385385 -0.574497 0.258915
v 0.39297 -0.423005 0.271514
v 0.386727 -0.574497 0.250153
v 0.309413 -0.627738 0.250153
v 0.296785 -0.627138 0.258915
v 0.246273 -0.627738 0.372548
v 0.258901 -0.627653 0.359948
v 0.246273 -0.626967 0.385177
v 0.23216 -0.625338 0.410376
v 0.23397 -0.618908 0.426112
v 0.247005 -0.609648 0.436514
v 0.251702 -0.60579 0.44129
v 0.237549 -0.605276 0.452835
v 0.230696 -0.606476 0.455326
v 0.230696 -0.603475 0.461508
v 0.231266 -0.595245 0.475837
v 0.236817 -0.589415 0.477537
v 0.250991 -0.591901 0.466021
v 0.280232 -0.585043 0.444923
v 0.292027 -0.584014 0.431269
v 0.303801 -0.582556 0.417585
v 0.315595 -0.579384 0.403901
v 0.265144 -0.593359 0.454534
v 0.272993 -0.589244 0.449729
v 0.380423 0.248123 0.404985
v 0.360088 -0.082211 0.397835
v 0.379081 0.223775 0.404399
v 0.333998 -0.410402 0.397835
v 0.332229 -0.574497 0.383712
v 0.332737 -0.561894 0.384356
v 0.413406 0.248123 0.334514
v 0.391384 0.247094 0.384532
v 0.41912 0.246237 0.32124
v 0.368181 -0.511397 0.320273
v 0.346463 -0.574497 0.359948
v 0.365944 -0.577241 0.315174
v 0.379854 -0.583585 0.280334
v 0.380891 -0.5859 0.271514
v 0.381135 -0.591387 0.250153
v 0.322041 -0.626195 0.250153
v 0.309413 -0.627738 0.258915
v 0.284157 -0.627653 0.32206
v 0.284157 -0.627738 0.309402
v 0.271529 -0.627481 0.347289
v 0.258901 -0.626624 0.372548
v 0.246273 -0.624566 0.397835
v 0.241819 -0.619594 0.418493
v 0.258006 -0.606219 0.434697
v 0.260121 -0.598331 0.449495
v 0.247005 -0.60399 0.448469
v 0.246578 -0.597217 0.46145
v 0.242572 -0.594645 0.469098
v 0.277812 -0.593359 0.441905
v 0.289607 -0.592416 0.428251
v 0.301401 -0.591044 0.414596
v 0.330175 -0.587186 0.381133
v 0.341705 -0.582985 0.367654
v 0.256725 -0.595245 0.457611
v 0.269394 -0.595845 0.446125
v 0.384815 0.248123 0.397835
v 0.366331 -0.0652356 0.391682
v 0.378756 0.215373 0.403959
v 0.378959 0.111377 0.39174
v 0.338513 -0.574497 0.375097
v 0.340017 -0.536688 0.377441
v 0.340831 -0.516198 0.378701
v 0.341156 -0.507882 0.379141
v 0.378674 0.102975 0.391184
v 0.381135 0.107176 0.386261
v 0.353845 -0.42069 0.366892
v 0.342315 -0.574497 0.368768
v 0.353825 -0.581699 0.341575
v 0.353398 -0.351331 0.378525
v 0.339651 -0.591387 0.363317
v 0.365741 -0.592844 0.302076
v 0.376051 -0.587529 0.284378
v 0.377962 -0.592244 0.271514
v 0.378654 -0.593273 0.26413
v 0.372838 -0.598846 0.250153
v 0.333774 -0.621823 0.250153
v 0.322041 -0.625852 0.258915
v 0.309413 -0.627481 0.271514
v 0.296785 -0.627738 0.284173
v 0.284157 -0.627138 0.33466
v 0.271529 -0.626024 0.359948
v 0.284157 -0.625338 0.347289
v 0.258901 -0.623709 0.385177
v 0.25825 -0.620279 0.396692
v 0.248184 -0.619251 0.411812
v 0.259816 -0.609734 0.423826
v 0.264615 -0.60579 0.428602
v 0.272769 -0.598417 0.436895
v 0.328365 -0.593359 0.378877
v 0.281188 -0.595331 0.433496
v 0.304736 -0.594473 0.406186
v 0.33656 -0.587186 0.372137
v 0.353703 -0.342929 0.379082
v 0.330541 -0.594902 0.372548
v 0.341441 -0.593873 0.354908
v 0.353621 -0.593445 0.328507
v 0.36751 -0.594388 0.293667
v 0.369625 -0.595845 0.284173
v 0.371659 -0.597217 0.271514
v 0.373672 -0.597217 0.25953
v 0.363077 -0.604333 0.258915
v 0.363748 -0.604676 0.250153
v 0.350185 -0.612478 0.250153
v 0.339326 -0.617879 0.258915
v 0.333063 -0.621308 0.258915
v 0.309413 -0.626538 0.284173
v 0.322041 -0.62448 0.271514
v 0.296785 -0.626881 0.309402
v 0.296785 -0.625509 0.32206
v 0.296785 -0.623537 0.33466
v 0.298717 -0.619165 0.347934
v 0.292372 -0.619594 0.355963
v 0.284523 -0.621565 0.360094
v 0.272403 -0.622166 0.373309
v 0.277202 -0.618479 0.378056
v 0.296785 -0.61162 0.372548
v 0.315168 -0.605876 0.365427
v 0.299998 -0.604676 0.387638
v 0.271936 -0.604161 0.423826
v 0.284055 -0.603475 0.410552
v 0.296195 -0.602704 0.397366
v 0.322041 -0.599703 0.372548
v 0.297029 -0.596874 0.410376
v 0.321248 -0.595159 0.383946
v 0.335117 -0.596702 0.35945
v 0.319865 -0.605533 0.358864
v 0.343129 -0.594988 0.347289
v 0.334628 -0.600303 0.347289
v 0.347257 -0.59936 0.32206
v 0.360861 -0.597646 0.297447
v 0.358909 -0.602532 0.283587
v 0.361613 -0.603475 0.271514
v 0.356773 -0.607934 0.258915
v 0.355309 -0.607076 0.271514
v 0.347257 -0.611534 0.271514
v 0.337435 -0.61685 0.271514
v 0.331151 -0.620194 0.271514
v 0.322773 -0.621651 0.284231
v 0.307461 -0.621051 0.32206
v 0.303963 -0.619165 0.337971
v 0.308234 -0.614964 0.346205
v 0.312362 -0.604504 0.372548
v 0.326474 -0.605019 0.347289
v 0.32017 -0.608448 0.347289
v 0.334323 -0.603561 0.33551
v 0.350164 -0.604247 0.296802
v 0.354069 -0.60639 0.278986
v 0.329321 -0.619251 0.280041
v 0.334628 -0.612563 0.296802
v 0.32802 -0.605962 0.340257
v 0.338309 -0.604676 0.32206
v 0.347704 -0.608705 0.283587
f 1 2 3
f 1 3 4
f 1 4 2
f 2 5 6
f 2 6 14
f 2 14 24
f 2 24 39
f 2 39 66
f 2 66 100
f 2 100 135
f 2 135 106
f 2 106 69
f 2 69 41
f 2 41 26
f 2 26 15
f 2 15 7
f 2 7 3
f 2 4 5
f 3 7 8
f 3 8 16
f 3 16 32
f 3 32 55
f 3 55 89
f 3 89 90
f 3 90 56
f 3 56 33
f 3 33 17
f 3 17 9
f 3 9 4
f 4 9 10
f 4 10 11
f 4 11 12
f 4 12 5
f 5 13 6
f 5 12 13
f 6 13 14
f 7 15 30
f 7 30 50
f 7 50 78
f 7 78 114
f 7 114 154
f 7 154 181
f 7 181 182
f 7 182 155
f 7 155 115
f 7 115 79
f 7 79 51
f 7 51 31
f 7 31 16
f 7 16 8
f 9 17 10
f 10 18 11
f 10 17 19
f 10 19 20
f 10 20 18
f 11 18 12
f 12 18 13
f 13 21 14
f 13 18 22
f 13 22 23
f 13 23 21
f 14 21 25
f 14 25 24
f 15 26 27
f 15 27 28
f 15 28 29
f 15 29 30
f 16 31 32
f 17 33 19
f 18 25 22
f 18 20 34
f 18 34 35
f 18 35 25
f 19 33 36
f 19 36 20
f 20 36 37
f 20 37 34
f 21 23 25
f 22 25 23
f 24 38 39
f 24 25 38
f 25 40 38
f 25 35 40
f 26 41 42
f 26 42 28
f 26 28 27
f 28 43 41
f 28 41 44
f 28 44 45
f 28 45 46
f 28 46 47
f 28 47 48
f 28 48 29
f 28 42 43
f 29 48 47
f 29 47 49
f 29 49 50
f 29 50 30
f 31 51 32
f 32 51 52
f 32 52 53
f 32 53 54
f 32 54 55
f 33 56 57
f 33 57 58
f 33 58 36
f 34 59 60
f 34 60 40
f 34 40 35
f 34 37 59
f 36 58 61
f 36 61 37
f 37 61 62
f 37 62 63
f 37 63 64
f 37 64 59
f 38 65 39
f 38 40 65
f 39 65 66
f 40 67 65
f 40 60 68
f 40 68 67
f 41 69 44
f 41 43 42
f 44 69 70
f 44 70 71
f 44 71 72
f 44 72 73
f 44 73 74
f 44 74 45
f 45 74 75
f 45 75 46
f 46 75 76
f 46 76 77
f 46 77 47
f 47 77 76
f 47 76 49
f 49 76 50
f 50 76 78
f 51 79 80
f 51 80 52
f 52 80 53
f 53 79 81
f 53 81 54
f 53 80 79
f 54 81 82
f 54 82 83
f 54 83 84
f 54 84 55
f 55 85 86
f 55 86 87
f 55 87 88
f 55 88 89
f 55 84 85
f 56 61 58
f 56 58 57
f 56 90 91
f 56 91 92
f 56 92 93
f 56 93 61
f 59 64 60
f 60 64 63
f 60 63 94
f 60 94 95
f 60 95 96
f 60 96 97
f 60 97 68
f 61 93 98
f 61 98 62
f 62 94 63
f 62 98 99
f 62 99 94
f 65 67 66
f 66 67 101
f 66 101 102
f 66 102 100
f 67 68 103
f 67 103 101
f 68 97 104
f 68 104 105
f 68 105 103
f 69 106 107
f 69 107 108
f 69 108 70
f 70 108 107
f 70 107 71
f 71 107 109
f 71 109 72
f 72 109 110
f 72 110 111
f 72 111 73
f 73 111 112
f 73 112 74
f 74 112 75
f 75 112 113
f 75 113 76
f 76 113 78
f 78 113 114
f 79 115 116
f 79 116 158
f 79 158 118
f 79 118 81
f 81 117 82
f 81 118 117
f 82 117 119
f 82 119 83
f 83 119 159
f 83 159 120
f 83 120 84
f 84 120 121
f 84 121 122
f 84 122 85
f 85 122 86
f 86 122 87
f 87 122 123
f 87 123 124
f 87 124 125
f 87 125 88
f 88 125 90
f 88 90 89
f 90 125 124
f 90 124 126
f 90 126 127
f 90 127 91
f 91 127 92
f 92 127 93
f 93 127 98
f 94 99 128
f 94 128 129
f 94 129 95
f 95 129 130
f 95 130 96
f 96 130 131
f 96 131 97
f 97 131 132
f 97 132 104
f 98 128 99
f 98 127 133
f 98 133 124
f 98 124 134
f 98 134 128
f 100 102 135
f 101 136 102
f 101 103 105
f 101 105 136
f 102 136 137
f 102 137 138
f 102 138 135
f 104 132 139
f 104 139 140
f 104 140 141
f 104 141 142
f 104 142 105
f 105 142 136
f 106 135 107
f 107 135 138
f 107 138 143
f 107 143 144
f 107 144 109
f 109 145 110
f 109 144 145
f 110 146 132
f 110 132 147
f 110 147 111
f 110 145 148
f 110 148 146
f 111 147 112
f 112 147 149
f 112 149 150
f 112 150 151
f 112 151 152
f 112 152 113
f 113 152 153
f 113 153 114
f 114 153 154
f 115 155 156
f 115 156 157
f 115 157 116
f 116 157 117
f 116 117 158
f 117 118 158
f 117 157 159
f 117 159 119
f 120 160 121
f 120 159 160
f 121 160 161
f 121 161 162
f 121 162 163
f 121 163 122
f 122 163 164
f 122 164 165
f 122 165 166
f 122 166 123
f 123 166 167
f 123 167 134
f 123 134 124
f 124 133 127
f 124 127 126
f 128 168 129
f 128 134 167
f 128 167 169
f 128 169 170
f 128 170 168
f 129 168 130
f 130 168 131
f 131 171 132
f 131 168 171
f 132 146 139
f 132 171 149
f 132 149 147
f 136 138 137
f 136 142 141
f 136 141 172
f 136 172 138
f 138 172 143
f 139 146 140
f 140 146 141
f 141 146 172
f 143 172 148
f 143 148 145
f 143 145 144
f 146 148 172
f 149 168 173
f 149 173 174
f 149 174 175
f 149 175 150
f 149 171 168
f 150 152 151
f 150 175 176
f 150 176 152
f 152 176 177
f 152 177 178
f 152 178 153
f 153 178 179
f 153 179 154
f 154 179 178
f 154 178 180
f 154 180 181
f 155 182 183
f 155 183 184
f 155 184 156
f 156 185 157
f 156 184 186
f 156 186 185
f 157 187 159
f 157 185 187
f 159 187 188
f 159 188 161
f 159 161 160
f 161 188 189
f 161 189 190
f 161 190 191
f 161 191 192
f 161 192 162
f 162 193 163
f 162 192 193
f 163 192 191
f 163 191 194
f 163 194 165
f 163 165 164
f 163 193 192
f 165 194 195
f 165 195 196
f 165 196 197
f 165 197 166
f 166 197 198
f 166 198 167
f 167 198 199
f 167 199 200
f 167 200 201
f 167 201 202
f 167 202 169
f 168 170 203
f 168 203 173
f 169 202 170
f 170 202 203
f 173 204 174
f 173 203 201
f 173 201 205
f 173 205 204
f 174 204 206
f 174 206 177
f 174 177 175
f 175 177 176
f 177 204 207
f 177 207 208
f 177 208 209
f 177 209 210
f 177 210 211
f 177 211 178
f 177 206 204
f 178 211 180
f 180 211 213
f 180 213 212
f 180 212 182
f 180 182 181
f 182 212 183
f 183 212 213
f 183 213 214
f 183 214 184
f 184 214 215
f 184 215 216
f 184 216 186
f 185 186 188
f 185 188 187
f 186 189 188
f 186 216 217
f 186 217 189
f 189 217 218
f 189 218 219
f 189 219 220
f 189 220 190
f 190 220 205
f 190 205 196
f 190 196 191
f 191 195 194
f 191 196 195
f 196 205 201
f 196 201 221
f 196 221 197
f 197 221 201
f 197 201 200
f 197 200 199
f 197 199 198
f 201 203 202
f 204 205 222
f 204 222 207
f 205 220 223
f 205 223 222
f 207 222 224
f 207 224 210
f 207 210 208
f 208 210 209
f 210 224 225
f 210 225 226
f 210 226 211
f 211 226 213
f 213 226 214
f 214 226 215
f 215 226 216
f 216 227 217
f 216 226 227
f 217 227 218
f 218 227 228
f 218 228 229
f 218 229 223
f 218 223 219
f 219 223 220
f 222 223 229
f 222 229 224
f 224 229 230
f 224 230 225
f 225 230 229
f 225 229 226
f 226 229 231
f 226 231 227
f 227 231 228
f 228 231 229
