v -0.424257 0.587152 0.364361
v -0.401787 0.250104 0.364361
v -0.403832 0.283422 0.364817
v -0.415948 0.498748 0.370566
v -0.417207 0.574533 0.380191
v -0.416358 0.587152 0.384446
v -0.420638 0.59977 0.372542
v -0.423375 0.60132 0.364361
v -0.321128 0.250104 0.364361
v -0.398577 0.250104 0.372542
v -0.399175 0.258923 0.372542
v -0.400024 0.271541 0.372542
v -0.402511 0.322052 0.374821
v -0.405815 0.347326 0.370667
v -0.404021 0.367324 0.378671
v -0.404116 0.454215 0.391538
v -0.409308 0.587152 0.397794
v -0.416137 0.59977 0.383965
v -0.404304 0.375736 0.37933
v -0.417585 0.607555 0.376012
v -0.419473 0.611245 0.364361
v -0.102754 0.250104 0.531199
v -0.352221 0.587152 0.364361
v -0.391559 0.250104 0.386548
v -0.404273 0.578518 0.40438
v -0.391118 0.281798 0.391032
v -0.39222 0.309434 0.392526
v -0.394171 0.359945 0.395185
v -0.37982 0.271541 0.405469
v -0.402259 0.587152 0.407976
v -0.405091 0.602058 0.402936
v -0.404116 0.611577 0.397262
v -0.410252 0.612352 0.384927
v -0.413525 0.614861 0.372542
v -0.412203 0.619288 0.364361
v -0.105083 0.250326 0.601917
v -0.119969 0.250104 0.599434
v -0.102754 0.587152 0.556908
v -0.102754 0.448237 0.614708
v -0.353542 0.596782 0.364361
v -0.366603 0.250104 0.421172
v -0.381016 0.250215 0.401568
v -0.384446 0.258923 0.397794
v -0.351528 0.587152 0.477123
v -0.36248 0.587152 0.462205
v -0.340356 0.460893 0.479099
v -0.337209 0.258923 0.462179
v -0.362228 0.59977 0.461901
v -0.366319 0.606338 0.454834
v -0.39244 0.607555 0.418108
v -0.394863 0.61202 0.409648
v -0.388821 0.615968 0.413346
v -0.39329 0.619805 0.401366
v -0.403203 0.619953 0.385003
v -0.4072 0.620875 0.372542
v -0.397758 0.62593 0.364361
v -0.10779 0.335409 0.606856
v -0.125885 0.36725 0.60607
v -0.105083 0.587152 0.623091
v -0.130228 0.250104 0.59642
v -0.102754 0.596523 0.558149
v -0.102754 0.621244 0.609667
v -0.35606 0.605268 0.364361
v -0.338468 0.250104 0.45952
v -0.345171 0.587152 0.485709
v -0.344983 0.59977 0.48538
v -0.340482 0.587152 0.492016
v -0.331387 0.271541 0.471424
v -0.328398 0.314599 0.479985
v -0.354833 0.607887 0.468993
v -0.340136 0.59977 0.491687
v -0.351182 0.6163 0.464206
v -0.365847 0.618477 0.441613
v -0.35713 0.62069 0.448325
v -0.384793 0.620986 0.409648
v -0.385107 0.62438 0.397794
v -0.354424 0.619325 0.455771
v -0.397758 0.625118 0.372542
v -0.385107 0.626483 0.385181
v -0.385107 0.626963 0.372542
v -0.385107 0.62652 0.364361
v -0.126011 0.568851 0.618709
v -0.127049 0.5773 0.618963
v -0.126829 0.375662 0.606324
v -0.119969 0.587152 0.620761
v -0.105083 0.59977 0.622711
v -0.140141 0.251248 0.592469
v -0.205631 0.250104 0.56362
v -0.13262 0.271541 0.597054
v -0.102754 0.615525 0.566127
v -0.102754 0.621982 0.573954
v -0.105083 0.626705 0.587175
v -0.105083 0.625487 0.599789
v -0.119969 0.624712 0.599789
v -0.119969 0.620543 0.608426
v -0.105083 0.61202 0.618076
v -0.360497 0.612942 0.364361
v -0.327516 0.250104 0.473957
v -0.328335 0.466981 0.492523
v -0.333559 0.574533 0.496778
v -0.334157 0.587152 0.497285
v -0.333873 0.59977 0.497031
v -0.327988 0.306187 0.47958
v -0.317823 0.250104 0.483607
v -0.343283 0.609179 0.483126
v -0.331576 0.609437 0.495182
v -0.339664 0.617591 0.478263
v -0.34706 0.621207 0.460381
v -0.34278 0.619916 0.469828
v -0.372802 0.621871 0.423123
v -0.335101 0.622056 0.47383
v -0.347217 0.624675 0.448325
v -0.372488 0.62545 0.410433
v -0.359868 0.626151 0.423072
v -0.347217 0.626631 0.435686
v -0.372488 0.626889 0.397794
v -0.359868 0.627 0.410433
v -0.119969 0.626889 0.587175
v -0.36912 0.620543 0.364361
v -0.131235 0.587152 0.618279
v -0.145239 0.587152 0.613011
v -0.138819 0.44285 0.60607
v -0.130102 0.599254 0.618304
v -0.121605 0.606522 0.618431
v -0.204184 0.322052 0.569167
v -0.225584 0.250104 0.554856
v -0.13262 0.626778 0.587175
v -0.157859 0.62379 0.587175
v -0.145239 0.621428 0.597839
v -0.134949 0.619731 0.604956
v -0.145239 0.625745 0.587175
v -0.133438 0.613496 0.611035
v -0.325754 0.258923 0.477098
v -0.2529 0.502253 0.555844
v -0.305928 0.587152 0.52003
v -0.325786 0.574533 0.503085
v -0.313575 0.296815 0.490826
v -0.316093 0.347326 0.492827
v -0.320121 0.587152 0.508632
v -0.277793 0.593387 0.543003
v -0.3261 0.59977 0.503338
v -0.290727 0.606449 0.530566
v -0.304386 0.607592 0.518788
v -0.318012 0.608589 0.506985
v -0.309326 0.250104 0.490497
v -0.335636 0.613533 0.48728
v -0.327076 0.617849 0.491459
v -0.331261 0.620395 0.48305
v -0.322481 0.622203 0.486824
v -0.322009 0.626188 0.473552
v -0.334629 0.625635 0.460964
v -0.334629 0.626963 0.448325
v -0.296738 0.627037 0.486191
v -0.157859 0.626889 0.574562
v -0.18313 0.626963 0.561923
v -0.145239 0.59977 0.612605
v -0.189865 0.592871 0.59366
v -0.233671 0.587152 0.574182
v -0.153327 0.549259 0.606906
v -0.145239 0.549259 0.610452
v -0.153768 0.607666 0.607109
v -0.145239 0.610212 0.608933
v -0.226937 0.267704 0.555439
v -0.232539 0.250104 0.550753
v -0.239462 0.533726 0.568002
v -0.22102 0.626705 0.549309
v -0.17051 0.626077 0.574562
v -0.221461 0.622129 0.562759
v -0.195561 0.621724 0.575068
v -0.18313 0.624454 0.574562
v -0.208369 0.620801 0.571345
v -0.18313 0.620395 0.583224
v -0.161321 0.619436 0.594419
v -0.208369 0.625007 0.561923
v -0.257085 0.587152 0.559213
v -0.247707 0.397837 0.55169
v -0.242735 0.373818 0.553716
v -0.239588 0.363634 0.555363
v -0.252302 0.331571 0.542724
v -0.241917 0.250104 0.544548
v -0.256802 0.59977 0.558985
v -0.305644 0.59977 0.519802
v -0.254977 0.608625 0.557541
v -0.299854 0.616005 0.515065
v -0.27773 0.618698 0.530313
v -0.291451 0.619288 0.518535
v -0.31861 0.6201 0.494802
v -0.309232 0.621687 0.498906
v -0.284087 0.624601 0.511393
v -0.296738 0.625376 0.498779
v -0.309326 0.62593 0.486191
v -0.271499 0.626705 0.511393
v -0.284087 0.626889 0.498779
v -0.233671 0.626963 0.53667
v -0.188637 0.603275 0.593102
v -0.155813 0.59977 0.607995
v -0.233671 0.59977 0.573751
v -0.245693 0.587152 0.567673
v -0.24113 0.561878 0.568964
v -0.240249 0.545717 0.568407
v -0.180172 0.608404 0.594977
v -0.233671 0.609585 0.570585
v -0.217149 0.603054 0.580539
v -0.173185 0.616816 0.591709
v -0.258911 0.626336 0.524031
v -0.24626 0.62593 0.53667
v -0.233671 0.625192 0.549309
v -0.233671 0.621059 0.559339
v -0.217527 0.61962 0.569445
v -0.191155 0.619325 0.581603
v -0.248557 0.59977 0.565292
v -0.241633 0.603497 0.569243
v -0.245725 0.612131 0.561492
v -0.250351 0.617038 0.553767
v -0.24198 0.619731 0.55706
v -0.284087 0.62069 0.521473
v -0.296077 0.621059 0.511063
v -0.304984 0.619731 0.506631
v -0.246197 0.621724 0.549461
v -0.22593 0.618071 0.567521
v -0.233671 0.615894 0.565646
f 1 2 3
f 1 3 4
f 1 4 5
f 1 5 6
f 1 6 7
f 1 7 8
f 1 8 21
f 1 21 35
f 1 35 56
f 1 56 81
f 1 81 119
f 1 119 97
f 1 97 63
f 1 63 40
f 1 40 23
f 1 23 9
f 1 9 2
f 2 9 22
f 2 22 37
f 2 37 60
f 2 60 88
f 2 88 126
f 2 126 164
f 2 164 180
f 2 180 145
f 2 145 104
f 2 104 98
f 2 98 64
f 2 64 41
f 2 41 24
f 2 24 10
f 2 10 11
f 2 11 12
f 2 12 13
f 2 13 3
f 3 13 14
f 3 14 4
f 4 14 13
f 4 13 15
f 4 15 5
f 5 15 6
f 6 16 17
f 6 17 18
f 6 18 7
f 6 15 19
f 6 19 16
f 7 18 20
f 7 20 8
f 8 20 21
f 9 23 22
f 10 15 11
f 10 24 16
f 10 16 15
f 11 15 12
f 12 15 13
f 15 16 19
f 16 25 17
f 16 24 26
f 16 26 27
f 16 27 28
f 16 28 29
f 16 29 25
f 17 25 30
f 17 30 31
f 17 31 18
f 18 31 20
f 20 31 32
f 20 32 33
f 20 33 34
f 20 34 21
f 21 34 35
f 22 36 37
f 22 23 38
f 22 38 61
f 22 61 90
f 22 90 91
f 22 91 62
f 22 62 39
f 22 39 36
f 23 40 38
f 24 41 42
f 24 42 43
f 24 43 26
f 25 44 45
f 25 45 30
f 25 29 46
f 25 46 44
f 26 43 27
f 27 43 42
f 27 42 29
f 27 29 28
f 29 42 47
f 29 47 46
f 30 45 48
f 30 48 31
f 31 49 50
f 31 50 32
f 31 48 49
f 32 51 52
f 32 52 53
f 32 53 54
f 32 54 33
f 32 50 51
f 33 54 34
f 34 54 35
f 35 54 55
f 35 55 56
f 36 57 58
f 36 58 37
f 36 39 59
f 36 59 57
f 37 58 60
f 38 40 61
f 39 62 59
f 40 63 61
f 41 64 42
f 42 64 47
f 44 65 66
f 44 66 48
f 44 48 45
f 44 46 65
f 46 67 65
f 46 47 68
f 46 68 69
f 46 69 67
f 47 64 68
f 48 66 49
f 49 70 50
f 49 66 71
f 49 71 70
f 50 70 52
f 50 52 51
f 52 70 72
f 52 72 73
f 52 73 53
f 53 74 75
f 53 75 76
f 53 76 54
f 53 73 77
f 53 77 74
f 54 76 78
f 54 78 55
f 55 78 56
f 56 78 79
f 56 79 80
f 56 80 81
f 57 59 58
f 58 59 82
f 58 82 83
f 58 83 84
f 58 84 60
f 59 85 82
f 59 62 86
f 59 86 85
f 60 87 88
f 60 84 89
f 60 89 87
f 61 63 90
f 62 91 92
f 62 92 93
f 62 93 94
f 62 94 95
f 62 95 96
f 62 96 86
f 63 97 90
f 64 98 68
f 65 67 66
f 66 67 71
f 67 69 99
f 67 99 100
f 67 100 101
f 67 101 102
f 67 102 71
f 68 98 103
f 68 103 69
f 69 103 104
f 69 104 99
f 70 105 72
f 70 71 105
f 71 102 106
f 71 106 105
f 72 107 73
f 72 105 107
f 73 107 77
f 74 108 75
f 74 77 109
f 74 109 108
f 75 108 110
f 75 110 76
f 76 110 111
f 76 111 112
f 76 112 113
f 76 113 79
f 76 79 78
f 77 107 109
f 79 113 114
f 79 114 115
f 79 115 116
f 79 116 80
f 80 117 118
f 80 118 92
f 80 92 81
f 80 116 117
f 81 92 91
f 81 91 119
f 82 85 83
f 83 85 120
f 83 120 84
f 84 120 121
f 84 121 122
f 84 122 89
f 85 86 123
f 85 123 120
f 86 96 124
f 86 124 123
f 87 125 126
f 87 126 88
f 87 89 122
f 87 122 125
f 90 97 119
f 90 119 91
f 92 118 93
f 93 118 127
f 93 127 94
f 94 128 129
f 94 129 130
f 94 130 95
f 94 127 131
f 94 131 128
f 95 130 132
f 95 132 96
f 96 132 124
f 98 104 133
f 98 133 103
f 99 134 135
f 99 135 136
f 99 136 100
f 99 104 137
f 99 137 138
f 99 138 134
f 100 136 101
f 101 139 140
f 101 140 102
f 101 136 139
f 102 140 141
f 102 141 142
f 102 142 143
f 102 143 144
f 102 144 106
f 103 133 104
f 104 145 137
f 105 106 146
f 105 146 107
f 106 144 147
f 106 147 146
f 107 147 148
f 107 148 109
f 107 146 147
f 108 109 111
f 108 111 110
f 109 148 111
f 111 149 150
f 111 150 151
f 111 151 112
f 111 148 149
f 112 151 113
f 113 151 114
f 114 150 115
f 114 151 150
f 115 152 116
f 115 150 152
f 116 152 117
f 117 153 118
f 117 152 153
f 118 154 127
f 118 153 155
f 118 155 154
f 120 123 156
f 120 156 121
f 121 157 158
f 121 158 159
f 121 159 160
f 121 160 122
f 121 156 157
f 122 160 159
f 122 159 158
f 122 158 125
f 123 124 161
f 123 161 156
f 124 132 162
f 124 162 161
f 125 158 126
f 126 163 164
f 126 158 165
f 126 165 163
f 127 154 166
f 127 166 167
f 127 167 131
f 128 168 169
f 128 169 129
f 128 131 170
f 128 170 168
f 129 169 171
f 129 171 172
f 129 172 173
f 129 173 130
f 130 173 132
f 131 167 174
f 131 174 170
f 132 173 162
f 134 175 135
f 134 138 137
f 134 137 176
f 134 176 177
f 134 177 178
f 134 178 175
f 135 175 140
f 135 140 139
f 135 139 136
f 137 179 176
f 137 145 180
f 137 180 179
f 140 175 181
f 140 181 182
f 140 182 141
f 141 182 142
f 142 183 143
f 142 182 181
f 142 181 183
f 143 183 144
f 144 183 184
f 144 184 147
f 147 184 185
f 147 185 186
f 147 186 187
f 147 187 148
f 148 187 149
f 149 187 188
f 149 188 189
f 149 189 190
f 149 190 191
f 149 191 150
f 150 191 192
f 150 192 193
f 150 193 153
f 150 153 152
f 153 193 194
f 153 194 155
f 154 155 166
f 155 194 166
f 156 161 195
f 156 195 196
f 156 196 157
f 157 196 197
f 157 197 158
f 158 197 198
f 158 198 199
f 158 199 200
f 158 200 165
f 161 201 202
f 161 202 203
f 161 203 195
f 161 162 201
f 162 173 204
f 162 204 201
f 163 178 164
f 163 165 178
f 164 178 180
f 165 200 178
f 166 194 192
f 166 192 205
f 166 205 206
f 166 206 207
f 166 207 174
f 166 174 167
f 168 208 171
f 168 171 169
f 168 170 174
f 168 174 207
f 168 207 208
f 171 208 209
f 171 209 172
f 172 209 210
f 172 210 173
f 173 210 204
f 175 198 211
f 175 211 181
f 175 178 198
f 176 179 180
f 176 180 177
f 177 180 178
f 178 200 198
f 181 211 183
f 183 211 212
f 183 212 213
f 183 213 214
f 183 214 184
f 184 214 185
f 185 214 215
f 185 215 186
f 186 215 216
f 186 216 217
f 186 217 218
f 186 218 187
f 187 217 188
f 187 218 217
f 188 219 189
f 188 217 219
f 189 219 207
f 189 207 190
f 190 207 206
f 190 206 191
f 191 206 205
f 191 205 192
f 192 194 193
f 195 203 197
f 195 197 196
f 197 203 212
f 197 212 198
f 198 200 199
f 198 212 211
f 201 204 202
f 202 212 203
f 202 204 220
f 202 220 221
f 202 221 213
f 202 213 212
f 204 210 220
f 207 219 208
f 208 219 215
f 208 215 220
f 208 220 209
f 209 220 210
f 213 221 215
f 213 215 214
f 215 221 220
f 215 219 216
f 216 219 217
