v 0.323318 -0.297975 -0.00707741
v 0.323318 0.289282 -0.321959
v 0.323318 -0.291607 -0.318807
v 0.323415 -0.294995 -0.280255
v 0.324704 -0.297858 -0.18537
v 0.326089 -0.297508 -0.111984
v 0.334046 -0.295346 -0.157487
v 0.331855 -0.295287 0.0301814
v 0.32873 -0.295813 0.0682484
v 0.324188 -0.296105 0.107285
v 0.323576 -0.294528 0.153838
v 0.326347 0.277423 -0.39979
v 0.323318 0.271522 -0.435028
v 0.324704 0.298863 -0.034476
v 0.332145 0.293781 -0.234186
v 0.348479 0.284667 -0.277264
v 0.356887 0.278533 -0.309512
v 0.363781 0.272632 -0.34273
v 0.331694 0.281687 -0.363258
v 0.38034 -0.269407 -0.329475
v 0.370772 -0.27519 -0.307653
v 0.323318 -0.220916 -0.544056
v 0.32538 -0.274139 -0.43616
v 0.326089 -0.286232 -0.360268
v 0.368002 -0.269348 -0.374008
v 0.364716 -0.280682 -0.266272
v 0.333402 -0.293593 -0.249704
v 0.330084 -0.29593 -0.214466
v 0.348994 -0.290205 -0.181975
v 0.367261 -0.279747 0.111892
v 0.364039 -0.280448 0.142928
v 0.356791 -0.286699 -0.0910511
v 0.356791 -0.286232 -0.0491047
v 0.342777 -0.288569 0.132825
v 0.361107 -0.279864 0.183742
v 0.324059 -0.293184 0.180429
v 0.326862 0.296702 0.153838
v 0.342777 0.274326 -0.384676
v 0.349864 0.263226 -0.433492
v 0.336817 0.256916 -0.475358
v 0.324027 0.244356 -0.514718
v 0.323318 0.198962 -0.557554
v 0.350766 0.289516 -0.14698
v 0.332145 0.296234 -0.114166
v 0.331888 0.296176 -0.146333
v 0.365618 0.279876 -0.244208
v 0.333434 0.295241 -0.181248
v 0.366455 0.28122 -0.213415
v 0.370772 0.274735 -0.28672
v 0.391326 0.261473 -0.339254
v 0.367808 0.267841 -0.367299
v 0.390102 -0.268297 -0.293671
v 0.419161 -0.249017 -0.363743
v 0.323318 -0.197431 -0.558524
v 0.614357 -0.0571013 -0.624474
v 0.597153 -0.0820475 -0.610088
v 0.358144 -0.224246 -0.532014
v 0.337622 -0.242416 -0.515041
v 0.328859 -0.266018 -0.465336
v 0.353054 -0.262338 -0.447232
v 0.353601 -0.26742 -0.421612
v 0.333434 -0.278637 -0.39882
v 0.387814 -0.256729 -0.407145
v 0.409399 -0.249777 -0.392031
v 0.373253 -0.278929 -0.220366
v 0.348576 -0.289737 -0.213415
v 0.362461 -0.284538 -0.140029
v 0.369419 -0.279163 0.0839278
v 0.384786 -0.272036 0.118843
v 0.394612 -0.267011 0.162325
v 0.371062 -0.279922 -0.0491047
v 0.373607 -0.277936 0.0349498
v 0.418548 -0.25521 0.170811
v 0.445706 -0.240955 0.183742
v 0.478019 -0.219397 0.186814
v 0.361559 0.282739 0.186814
v 0.33904 0.291619 0.182288
v 0.360624 0.26457 -0.40375
v 0.373382 0.252067 -0.444727
v 0.395417 0.236001 -0.474146
v 0.373704 0.238397 -0.492492
v 0.363524 0.227705 -0.520457
v 0.392776 0.210179 -0.532014
v 0.324027 0.225661 -0.538237
v 0.606915 0.0666363 -0.616392
v 0.601567 0.0420991 -0.632556
v 0.323318 0.166421 -0.572021
v 0.371868 0.280344 -0.136473
v 0.362332 0.284375 -0.169691
v 0.384786 0.273333 0.186814
v 0.408948 0.263226 0.186814
v 0.396706 0.262875 -0.28963
v 0.395675 0.26603 -0.241218
v 0.420191 0.252009 -0.286963
v 0.417904 0.250841 -0.314685
v 0.415134 0.249438 -0.34273
v 0.40447 0.252243 -0.365683
v 0.429502 0.235943 -0.398658
v 0.418999 -0.252523 -0.325596
v 0.393323 -0.268881 -0.244774
v 0.432627 -0.239261 -0.39098
v 0.441486 -0.238209 -0.360187
v 0.323318 -0.168278 -0.571132
v 0.584074 -0.0488639 -0.631263
v 0.601567 -0.0279488 -0.637648
v 0.629015 -0.024794 -0.632475
v 0.635748 -0.0585035 -0.601601
v 0.586458 -0.10267 -0.591418
v 0.380791 -0.225123 -0.519648
v 0.362428 -0.246797 -0.488209
v 0.385366 -0.241948 -0.477863
v 0.376088 -0.253866 -0.446828
v 0.416938 -0.241831 -0.421692
v 0.412782 -0.260176 -0.00707741
v 0.398349 -0.267187 -0.0420732
v 0.384786 -0.272853 0.0349498
v 0.404148 -0.263506 0.0768963
v 0.412782 -0.25854 0.146807
v 0.39603 -0.267771 0.0209677
v 0.429341 -0.251354 0.0821497
v 0.449959 -0.239202 0.132825
v 0.457304 -0.234996 0.0629141
v 0.471318 -0.22559 0.0313937
v 0.474894 -0.223195 0.00690472
v 0.488103 -0.213672 -0.0298691
v 0.513746 -0.19264 0.0908784
v 0.501504 -0.201111 0.186814
v 0.424605 0.224901 -0.470751
v 0.460558 0.20568 -0.48441
v 0.473444 0.194989 -0.500898
v 0.551536 0.141241 -0.542036
v 0.598184 0.0912319 -0.591499
v 0.625503 0.0456628 -0.623827
v 0.601567 0.0139397 -0.63886
v 0.573604 0.0376006 -0.633203
v 0.323318 0.142585 -0.579699
v 0.40505 0.265446 -0.0560553
v 0.487716 0.216722 0.186814
v 0.457562 0.238455 0.170811
v 0.430501 0.253177 0.170811
v 0.426764 0.255222 0.132825
v 0.436074 0.251016 0.024443
v 0.44081 0.239974 -0.297227
v 0.440584 0.235885 -0.349761
v 0.43849 0.232671 -0.391708
v 0.464263 0.212749 -0.442302
v 0.44561 -0.238385 -0.31816
v 0.433561 -0.246447 -0.280335
v 0.442292 -0.244636 0.00601568
v 0.462072 -0.220274 -0.423147
v 0.469868 -0.222435 -0.349761
v 0.474765 -0.216301 -0.390091
v 0.323318 -0.139885 -0.580184
v 0.323318 -0.113245 -0.587054
v 0.55959 -0.0244435 -0.634819
v 0.640581 0.0169192 -0.622292
v 0.648506 -0.0209382 -0.61421
v 0.610942 -0.0933814 -0.575819
v 0.643448 -0.0529534 -0.57
v 0.629047 -0.0746279 -0.57
v 0.589261 -0.115406 -0.56111
v 0.559976 -0.136906 -0.553432
v 0.460945 -0.195503 -0.516981
v 0.476312 -0.196029 -0.50405
v 0.456531 -0.209875 -0.487724
v 0.421738 -0.230673 -0.465094
v 0.461041 -0.215483 -0.454749
v 0.412782 -0.259942 0.0209677
v 0.450088 -0.239319 0.104861
v 0.450474 -0.239553 0.0349498
v 0.457433 -0.235171 -0.0351225
v 0.517484 -0.190245 -0.0385979
v 0.494868 -0.20596 -0.349034
v 0.517226 -0.188492 -0.363743
v 0.533269 -0.174705 0.101385
v 0.5295 -0.176224 0.186814
v 0.486395 0.194347 -0.482632
v 0.497832 0.182545 -0.5051
v 0.577759 0.119391 -0.557958
v 0.534494 0.159702 -0.515284
v 0.631947 0.0640073 -0.57291
v 0.646315 0.0394701 -0.594166
v 0.563101 0.0139397 -0.63587
v 0.323318 0.0865581 -0.591984
v 0.323318 0.11723 -0.58576
v 0.434077 0.251951 0.0908784
v 0.535814 0.175535 0.186814
v 0.505338 0.202759 0.0803716
v 0.492581 0.212048 -0.0211404
v 0.476602 0.224492 0.048932
v 0.453116 0.241201 0.146807
v 0.45637 0.238806 0.111892
v 0.452472 0.24085 0.048932
v 0.463232 0.233431 0.024443
v 0.467935 0.223265 -0.293671
v 0.449959 0.235417 -0.265707
v 0.463844 0.2242 -0.332223
v 0.473605 0.215145 -0.377725
v 0.462716 0.21865 -0.405932
v 0.491099 0.196742 -0.454668
v 0.48807 0.196508 -0.466791
v 0.472446 -0.221734 -0.321635
v 0.44809 -0.238034 -0.258756
v 0.47934 -0.203799 -0.470509
v 0.499636 -0.193633 -0.46865
v 0.487297 -0.205727 -0.423147
v 0.323318 -0.0838586 -0.592145
v 0.529017 -0.0299936 -0.629889
v 0.323318 -0.0291172 -0.599662
v 0.517548 0.0138813 -0.629485
v 0.65089 0.0244556 -0.571778
v 0.652436 -0.0244435 -0.577032
v 0.598764 -0.112544 -0.46865
v 0.575343 -0.134335 -0.486107
v 0.643899 -0.0499739 -0.524578
v 0.623377 -0.0831575 -0.458143
v 0.571187 -0.133985 -0.538561
v 0.54593 -0.154082 -0.532014
v 0.510171 -0.184052 -0.489825
v 0.548153 -0.161618 -0.0491047
v 0.547315 -0.162378 -0.356712
v 0.508044 -0.193867 -0.394375
v 0.532367 -0.168454 -0.504535
v 0.551632 -0.153089 -0.503565
v 0.555305 -0.153089 0.104861
v 0.55392 -0.152212 0.186814
v 0.510976 0.181961 -0.4756
v 0.565292 0.138612 -0.489583
v 0.58591 0.120618 -0.482632
v 0.642836 0.0474739 -0.524578
v 0.607656 0.0987683 -0.46865
v 0.630948 0.068681 -0.459517
v 0.323318 0.0243972 -0.599743
v 0.559783 0.151114 0.186814
v 0.555208 0.156606 0.101385
v 0.530595 0.180851 0.0908784
v 0.526601 0.183597 -0.0491047
v 0.50479 0.20235 -0.0420732
v 0.476312 0.2242 -0.000126756
v 0.493579 0.204337 -0.351458
v 0.499894 0.193412 -0.433654
v 0.615871 0.044728 0.186814
v 0.616064 -0.0374132 0.186814
v 0.609879 -0.0693699 0.186814
v 0.579982 -0.125104 0.104861
v 0.595156 -0.100334 0.186814
v 0.572476 -0.132057 0.186814
v 0.507561 0.191367 -0.393405
v 0.516324 0.186693 -0.363258
v 0.544964 0.161864 -0.363743
v 0.549861 0.16163 -0.0491047
v 0.603822 0.0886029 0.186814
v 0.580079 0.128563 0.104861
v 0.580852 0.12611 0.186814
f 1 2 13
f 1 13 42
f 1 42 87
f 1 87 136
f 1 136 185
f 1 185 184
f 1 184 233
f 1 233 209
f 1 209 207
f 1 207 154
f 1 154 153
f 1 153 103
f 1 103 54
f 1 54 22
f 1 22 3
f 1 3 4
f 1 4 5
f 1 5 6
f 1 6 7
f 1 7 8
f 1 8 9
f 1 9 10
f 1 10 11
f 1 11 2
f 2 12 13
f 2 11 14
f 2 14 15
f 2 15 16
f 2 16 17
f 2 17 18
f 2 18 19
f 2 19 12
f 3 20 21
f 3 21 4
f 3 22 23
f 3 23 24
f 3 24 25
f 3 25 20
f 4 21 26
f 4 26 27
f 4 27 28
f 4 28 5
f 5 7 6
f 5 28 7
f 7 28 29
f 7 29 8
f 8 30 31
f 8 31 9
f 8 29 32
f 8 32 33
f 8 33 30
f 9 34 10
f 9 31 34
f 10 34 11
f 11 35 36
f 11 36 37
f 11 37 14
f 11 34 35
f 12 19 38
f 12 38 39
f 12 39 13
f 13 39 40
f 13 40 41
f 13 41 42
f 14 43 44
f 14 44 45
f 14 45 15
f 14 37 43
f 15 46 16
f 15 45 47
f 15 47 48
f 15 48 46
f 16 46 49
f 16 49 17
f 17 50 18
f 17 49 50
f 18 50 51
f 18 51 19
f 19 51 38
f 20 52 21
f 20 25 53
f 20 53 52
f 21 52 26
f 22 54 55
f 22 55 56
f 22 56 57
f 22 57 58
f 22 58 59
f 22 59 23
f 23 59 60
f 23 60 61
f 23 61 62
f 23 62 24
f 24 62 25
f 25 62 63
f 25 63 64
f 25 64 53
f 26 65 66
f 26 66 27
f 26 52 65
f 27 66 28
f 28 66 29
f 29 67 32
f 29 66 65
f 29 65 67
f 30 33 68
f 30 68 69
f 30 69 70
f 30 70 31
f 31 70 35
f 31 35 34
f 32 67 71
f 32 71 72
f 32 72 33
f 33 72 68
f 35 70 73
f 35 73 74
f 35 74 75
f 35 75 76
f 35 76 36
f 36 76 77
f 36 77 37
f 37 77 76
f 37 76 43
f 38 78 39
f 38 51 78
f 39 79 40
f 39 78 79
f 40 79 80
f 40 80 81
f 40 81 41
f 41 81 82
f 41 82 83
f 41 83 84
f 41 84 42
f 42 84 85
f 42 85 86
f 42 86 87
f 43 88 89
f 43 89 47
f 43 47 45
f 43 45 44
f 43 76 90
f 43 90 91
f 43 91 88
f 46 92 49
f 46 48 92
f 47 89 48
f 48 89 93
f 48 93 92
f 49 92 50
f 50 92 94
f 50 94 95
f 50 95 96
f 50 96 97
f 50 97 51
f 51 97 98
f 51 98 79
f 51 79 78
f 52 53 99
f 52 99 100
f 52 100 65
f 53 64 101
f 53 101 102
f 53 102 99
f 54 103 104
f 54 104 55
f 55 104 105
f 55 105 106
f 55 106 107
f 55 107 56
f 56 107 108
f 56 108 57
f 57 109 58
f 57 108 109
f 58 109 110
f 58 110 59
f 59 110 111
f 59 111 60
f 60 111 112
f 60 112 61
f 61 63 62
f 61 112 63
f 63 112 113
f 63 113 64
f 64 113 101
f 65 100 114
f 65 114 115
f 65 115 67
f 67 115 71
f 68 72 69
f 69 72 71
f 69 71 116
f 69 116 117
f 69 117 70
f 70 117 118
f 70 118 73
f 71 115 119
f 71 119 116
f 73 118 120
f 73 120 74
f 74 121 75
f 74 120 121
f 75 121 122
f 75 122 123
f 75 123 124
f 75 124 125
f 75 125 126
f 75 126 127
f 75 127 176
f 75 176 226
f 75 226 247
f 75 247 246
f 75 246 244
f 75 244 243
f 75 243 242
f 75 242 252
f 75 252 254
f 75 254 234
f 75 234 187
f 75 187 138
f 75 138 91
f 75 91 90
f 75 90 76
f 79 128 80
f 79 98 128
f 80 128 129
f 80 129 130
f 80 130 81
f 81 130 82
f 82 130 83
f 83 130 131
f 83 131 132
f 83 132 85
f 83 85 84
f 85 132 133
f 85 133 86
f 86 134 135
f 86 135 87
f 86 133 134
f 87 135 136
f 88 91 137
f 88 137 93
f 88 93 89
f 91 138 139
f 91 139 140
f 91 140 141
f 91 141 137
f 92 93 94
f 93 137 142
f 93 142 94
f 94 143 144
f 94 144 95
f 94 142 143
f 95 144 96
f 96 144 145
f 96 145 97
f 97 145 98
f 98 145 146
f 98 146 128
f 99 147 148
f 99 148 100
f 99 102 147
f 100 148 149
f 100 149 114
f 101 113 150
f 101 150 102
f 102 151 147
f 102 150 152
f 102 152 151
f 103 153 104
f 104 153 154
f 104 154 155
f 104 155 105
f 105 155 134
f 105 134 106
f 106 134 156
f 106 156 157
f 106 157 107
f 107 158 108
f 107 157 159
f 107 159 160
f 107 160 158
f 108 158 161
f 108 161 162
f 108 162 109
f 109 163 164
f 109 164 110
f 109 162 163
f 110 164 111
f 111 164 165
f 111 165 166
f 111 166 112
f 112 166 113
f 113 166 167
f 113 167 150
f 114 149 120
f 114 120 168
f 114 168 119
f 114 119 115
f 116 119 117
f 117 119 168
f 117 168 120
f 117 120 118
f 120 149 121
f 121 149 169
f 121 169 122
f 122 169 170
f 122 170 171
f 122 171 123
f 123 171 124
f 124 171 125
f 125 172 126
f 125 171 173
f 125 173 174
f 125 174 172
f 126 175 176
f 126 176 127
f 126 172 175
f 128 177 129
f 128 146 177
f 129 177 130
f 130 178 131
f 130 177 178
f 131 179 132
f 131 178 180
f 131 180 179
f 132 181 182
f 132 182 133
f 132 179 181
f 133 182 156
f 133 156 134
f 134 155 183
f 134 183 135
f 135 183 184
f 135 184 185
f 135 185 136
f 137 141 186
f 137 186 142
f 138 187 188
f 138 188 189
f 138 189 190
f 138 190 139
f 139 191 140
f 139 190 192
f 139 192 191
f 140 191 186
f 140 186 141
f 142 186 191
f 142 191 193
f 142 193 194
f 142 194 195
f 142 195 196
f 142 196 143
f 143 196 195
f 143 195 197
f 143 197 198
f 143 198 144
f 144 198 199
f 144 199 145
f 145 199 146
f 146 200 201
f 146 201 177
f 146 199 200
f 147 151 202
f 147 202 203
f 147 203 148
f 148 203 171
f 148 171 149
f 149 171 170
f 149 170 169
f 150 167 204
f 150 204 205
f 150 205 206
f 150 206 152
f 151 152 206
f 151 206 173
f 151 173 202
f 154 207 208
f 154 208 155
f 155 208 209
f 155 209 210
f 155 210 183
f 156 182 157
f 157 182 211
f 157 211 212
f 157 212 159
f 158 160 213
f 158 213 214
f 158 214 161
f 159 215 216
f 159 216 160
f 159 212 215
f 160 216 213
f 161 217 218
f 161 218 162
f 161 214 217
f 162 218 163
f 163 218 164
f 164 218 219
f 164 219 165
f 165 204 166
f 165 219 204
f 166 204 167
f 171 203 202
f 171 202 173
f 172 220 175
f 172 174 221
f 172 221 220
f 173 206 222
f 173 222 174
f 174 222 223
f 174 223 224
f 174 224 214
f 174 214 221
f 175 225 176
f 175 220 225
f 176 225 226
f 177 201 227
f 177 227 180
f 177 180 178
f 179 180 228
f 179 228 229
f 179 229 181
f 180 227 228
f 181 230 182
f 181 229 231
f 181 231 232
f 181 232 230
f 182 230 211
f 183 210 184
f 184 210 233
f 187 234 235
f 187 235 236
f 187 236 188
f 188 236 237
f 188 237 238
f 188 238 189
f 189 239 190
f 189 238 240
f 189 240 239
f 190 194 192
f 190 239 194
f 191 192 193
f 192 194 193
f 194 239 195
f 195 239 240
f 195 240 197
f 197 240 198
f 198 240 241
f 198 241 200
f 198 200 199
f 200 241 227
f 200 227 201
f 204 219 205
f 205 219 223
f 205 223 206
f 206 223 222
f 207 209 208
f 209 233 210
f 211 230 242
f 211 242 212
f 212 242 243
f 212 243 244
f 212 244 215
f 213 216 245
f 213 245 225
f 213 225 220
f 213 220 221
f 213 221 214
f 214 224 217
f 215 244 246
f 215 246 216
f 216 246 245
f 217 224 223
f 217 223 218
f 218 223 219
f 225 245 247
f 225 247 226
f 227 241 248
f 227 248 228
f 228 248 249
f 228 249 250
f 228 250 229
f 229 250 251
f 229 251 231
f 230 232 252
f 230 252 242
f 231 251 235
f 231 235 253
f 231 253 232
f 232 253 254
f 232 254 252
f 234 254 253
f 234 253 235
f 235 251 236
f 236 251 237
f 237 251 250
f 237 250 249
f 237 249 238
f 238 249 240
f 240 249 248
f 240 248 241
f 245 246 247
