v -0.342577 -0.257998 0.342837
v -0.33588 -0.301919 0.195354
v -0.335459 -0.285007 0.268936
v -0.335459 -0.270988 0.311089
v -0.300752 -0.280698 0.29626
v -0.286747 -0.281534 0.298029
v -0.23084 -0.278062 0.317708
v -0.313112 -0.251632 0.363471
v -0.342577 -0.248481 0.364108
v -0.342577 0.221789 0.18693
v -0.238073 -0.318125 0.187921
v -0.303622 -0.307771 0.196698
v -0.333431 -0.296325 0.228269
v -0.300752 -0.283914 0.286845
v -0.313648 -0.293624 0.251275
v -0.266198 -0.291695 0.276192
v -0.238379 -0.297547 0.267343
v -0.209794 -0.296068 0.276935
v -0.208072 -0.285328 0.304471
v -0.216797 -0.273946 0.328821
v -0.24829 -0.264943 0.344359
v -0.279782 -0.254011 0.363046
v -0.307755 -0.238707 0.386158
v -0.33565 -0.237742 0.384672
v -0.336339 -0.222952 0.406722
v -0.337372 -0.20366 0.431815
v -0.342577 -0.152729 0.481755
v -0.342577 0.287445 0.272723
v -0.339745 0.305322 0.195035
v -0.284451 0.315676 0.191283
v -0.0349958 0.330402 0.187921
v 0.0139462 -0.326034 0.187425
v -0.108734 -0.325777 0.187921
v -0.185801 -0.320825 0.1973
v -0.216185 -0.318961 0.194929
v -0.237805 -0.314009 0.2099
v -0.280433 -0.311308 0.197052
v -0.307755 -0.29999 0.230888
v -0.258774 -0.300569 0.251876
v -0.266657 -0.307257 0.224694
v -0.238073 -0.306742 0.2391
v -0.206312 -0.308736 0.240834
v -0.17834 -0.302305 0.264406
v -0.169615 -0.292081 0.292897
v -0.174857 -0.28102 0.31746
v -0.195827 -0.274782 0.328821
v -0.216797 -0.264751 0.347721
v -0.255292 -0.255105 0.363471
v -0.279782 -0.239543 0.387468
v -0.258277 -0.236199 0.393839
v -0.307755 -0.215364 0.419499
v -0.307755 -0.190541 0.449689
v -0.33389 -0.178259 0.459882
v -0.304272 -0.168742 0.472978
v -0.307755 -0.140383 0.49701
v -0.342577 -0.127136 0.501505
v -0.333393 0.278442 0.305497
v -0.256746 0.30648 0.247134
v -0.332053 0.294776 0.25308
v -0.33565 0.301271 0.223845
v -0.342577 0.198446 0.443601
v -0.339094 0.254456 0.363507
v -0.318354 0.309374 0.195991
v -0.296045 0.309567 0.215138
v -0.258774 0.315676 0.2099
v -0.217906 0.322749 0.194893
v -0.186758 0.325579 0.192381
v -0.15362 0.326865 0.195531
v -0.121974 0.32783 0.195389
v -0.0977135 0.328473 0.195389
v -0.0664886 0.328794 0.195389
v -0.0135287 0.328794 0.195389
v 0.0106936 0.328344 0.195177
v 0.0449798 0.327186 0.195884
v 0.0448267 -0.32314 0.19684
v 0.0139462 -0.321147 0.209723
v -0.0247023 -0.322112 0.208626
v -0.0140261 -0.326356 0.187921
v -0.036029 -0.326549 0.187921
v -0.0706596 -0.324684 0.196451
v -0.108466 -0.318253 0.221403
v -0.148645 -0.322755 0.197336
v -0.181822 -0.314974 0.22388
v -0.152281 -0.309315 0.247594
v -0.153888 -0.316324 0.22388
v -0.146923 -0.300505 0.272865
v -0.132956 -0.296068 0.28504
v -2.08584e-05 -0.282049 0.321459
v -0.153888 -0.277033 0.326981
v -0.139959 -0.266165 0.350446
v -0.1651 -0.265715 0.349597
v -0.216797 -0.254011 0.367612
v -0.237805 -0.246102 0.379434
v -0.209794 -0.249832 0.374655
v -0.174857 -0.250089 0.375186
v 0.0477349 -0.252275 0.376177
v -0.211554 -0.226681 0.408314
v -0.234323 -0.227324 0.406863
v -0.269297 -0.2189 0.416986
v -0.279782 -0.189512 0.451919
v -0.25269 -0.169578 0.473969
v -0.279476 -0.156395 0.485861
v -0.279782 -0.133952 0.50423
v -0.297155 -0.109451 0.517573
v -0.342577 -0.0967189 0.519343
v -0.286747 0.284937 0.300861
v -0.266848 0.295226 0.278952
v -0.332206 0.266031 0.338023
v -0.314757 0.3032 0.230888
v -0.209603 0.30976 0.248656
v -0.195827 0.316254 0.230888
v -0.237805 0.31484 0.22388
v -0.342577 0.179797 0.462891
v -0.320956 0.189057 0.456661
v -0.314757 0.212079 0.429621
v -0.33565 0.217159 0.421764
v -0.33565 0.241595 0.386795
v -0.291568 0.252849 0.373098
v -0.300752 0.260308 0.356782
v -0.166095 0.31947 0.22519
v -0.110265 0.322299 0.221686
v -0.0385163 0.322492 0.222677
v -0.0140261 0.322428 0.222642
v 0.0144054 0.322685 0.219669
v 0.0416506 0.320756 0.223845
v 0.0449798 0.310403 0.254071
v 0.0483471 0.264488 0.36517
v 0.0483471 -0.229254 0.404032
v 0.0449798 -0.316581 0.223633
v 0.0139462 -0.315488 0.230888
v -0.0769734 -0.31626 0.230888
v -0.0560038 -0.314138 0.237861
v -0.0874965 -0.3097 0.251487
v -0.121591 -0.304299 0.264441
v -0.0419985 -0.29356 0.293393
v -0.0874965 -0.301726 0.272865
v -0.00354131 -0.290923 0.298808
v 0.0312806 -0.281534 0.320929
v 0.0416506 -0.268352 0.349066
v 0.00346134 -0.271953 0.342837
v -0.0699708 -0.26668 0.351367
v -0.111948 -0.2643 0.354587
v -0.181822 -0.254526 0.368108
v -0.139959 -0.252661 0.372072
v 0.0139462 -0.19665 0.445229
v -0.0140261 -0.212791 0.426967
v -0.132956 -0.221087 0.416278
v -0.188824 -0.223659 0.412668
v 0.0416506 -0.289959 0.298135
v -0.244769 -0.213627 0.424135
v -0.115469 -0.208226 0.431886
v -0.0629681 -0.208483 0.432099
v -0.0349958 -0.208611 0.432205
v -0.0070235 -0.187262 0.456555
v 0.0143671 -0.171314 0.4705
v 0.0144436 -0.139482 0.492833
v 0.00415012 -0.10077 0.508619
v -0.294515 -0.0821857 0.528156
v -0.342577 -0.0590999 0.534491
v -0.300752 0.277478 0.316257
v -0.272818 0.285966 0.300861
v -0.236044 0.293619 0.287871
v -0.244769 0.285195 0.307479
v -0.300752 0.264552 0.346943
v -0.264897 0.26751 0.346164
v -0.153888 0.313232 0.244869
v -0.342577 0.155875 0.484233
v -0.308252 0.166357 0.48041
v -0.292027 0.200889 0.444592
v -0.279782 0.175939 0.473225
v -0.286747 0.222046 0.417446
v -0.300752 0.227191 0.41019
v -0.300752 0.239152 0.393662
v -0.264667 0.247318 0.383822
v -0.23084 0.263459 0.359507
v -0.236044 0.268218 0.349066
v -0.0769734 0.32172 0.224942
v -0.0839761 0.313682 0.248125
v -0.0490011 0.315161 0.244869
v 0.00698179 0.314775 0.244869
v 0.0139462 0.306737 0.266812
v 0.0312806 0.29902 0.286845
v 0.0416506 0.290468 0.309709
v 0.0401965 0.281401 0.332325
v 0.00346134 0.282751 0.330768
v -0.0625089 0.279214 0.336572
v -0.188824 0.268218 0.35349
v -0.0070235 0.221017 0.423144
v 0.0483471 0.244553 0.391821
v 0.0483471 -0.202245 0.432736
v 0.0383598 -0.309379 0.246461
v -0.0140261 -0.313752 0.237861
v -0.0349958 -0.311694 0.244869
v -0.0560038 -0.304427 0.265361
v -0.0279932 -0.305778 0.260548
v 0.00346134 -0.304878 0.261114
v -0.164373 -0.218193 0.419569
v 0.0483471 -0.180767 0.453653
v 0.0483471 -0.156202 0.474287
v 0.0483471 -0.125592 0.491878
v 0.0483471 -0.0994197 0.502319
v 0.0483471 -0.0700319 0.509787
v -0.0137966 -0.0821857 0.514706
v -0.342577 -0.0279114 0.543764
v -0.244769 0.276256 0.328821
v -0.223378 0.281272 0.320079
v -0.195827 0.277928 0.331086
v -0.111948 0.311946 0.250921
v -0.146923 0.278635 0.332821
v -0.0909787 0.279407 0.334803
v -0.0349958 0.295419 0.298029
v -0.342577 0.13176 0.502779
v -0.314757 0.138448 0.502637
v -0.279782 0.159734 0.488657
v -0.258774 0.181212 0.468093
v -0.223799 0.19761 0.449866
v -0.272818 0.222175 0.417587
v -2.08584e-05 0.180311 0.468943
v -0.209794 0.270211 0.34804
v -0.0629681 0.307509 0.265255
v -0.0349958 0.306287 0.269184
v -0.0140261 0.311946 0.253434
v -0.0070235 0.302364 0.279872
v 0.010464 0.292847 0.305462
v -0.0140261 0.291432 0.30932
v -0.188824 0.273427 0.342837
v -2.08584e-05 0.201918 0.446716
v 0.0209488 0.19433 0.453193
v 0.0483471 0.217931 0.421622
v 0.0483471 -0.0316412 0.514989
v -0.0279932 -0.0489395 0.52136
v -0.342577 6.16867e-05 0.548507
v -0.0349958 0.299728 0.286845
v -0.342577 0.11234 0.514459
v -0.314757 0.131439 0.507132
v -0.282997 0.137034 0.505858
v 0.018385 0.140377 0.494426
v 0.0242014 0.177804 0.46827
v 0.0483471 0.195681 0.444628
v 0.0483471 0.0104793 0.516547
v -0.0349958 -2.61935e-06 0.526032
v -0.0349958 -0.0279114 0.524192
v -0.0349958 0.0279062 0.524687
v -0.342577 0.028292 0.545782
v -0.283265 0.11279 0.519237
v -0.342577 0.0910547 0.525006
v 0.0483471 0.140442 0.487029
v 0.0483471 0.168286 0.469155
v -2.08584e-05 0.124301 0.50331
v 0.0483471 0.118835 0.49708
v 0.0483471 0.0592232 0.512158
v -0.0273809 0.0538215 0.521006
v -0.0070235 0.0978712 0.511521
v -0.293749 0.0880966 0.528156
v -0.342577 0.0695122 0.533394
v 0.0483471 0.0966493 0.504513
f 1 2 3
f 1 3 4
f 1 4 5
f 1 5 6
f 1 6 7
f 1 7 8
f 1 8 9
f 1 9 27
f 1 27 56
f 1 56 105
f 1 105 159
f 1 159 204
f 1 204 232
f 1 232 244
f 1 244 255
f 1 255 246
f 1 246 234
f 1 234 212
f 1 212 167
f 1 167 113
f 1 113 61
f 1 61 28
f 1 28 10
f 1 10 2
f 2 11 12
f 2 12 13
f 2 13 3
f 2 10 11
f 3 14 4
f 3 13 15
f 3 15 14
f 4 14 5
f 5 14 16
f 5 16 6
f 6 16 17
f 6 17 18
f 6 18 19
f 6 19 7
f 7 19 20
f 7 20 21
f 7 21 8
f 8 21 22
f 8 22 23
f 8 23 24
f 8 24 9
f 9 24 25
f 9 25 26
f 9 26 27
f 10 28 29
f 10 29 30
f 10 30 31
f 10 31 32
f 10 32 11
f 11 32 33
f 11 33 34
f 11 34 35
f 11 35 36
f 11 36 37
f 11 37 12
f 12 37 38
f 12 38 13
f 13 38 15
f 14 15 39
f 14 39 16
f 15 38 40
f 15 40 39
f 16 39 17
f 17 39 41
f 17 41 42
f 17 42 18
f 18 42 43
f 18 43 44
f 18 44 19
f 19 45 20
f 19 44 45
f 20 45 46
f 20 46 47
f 20 47 21
f 21 47 48
f 21 48 22
f 22 48 49
f 22 49 23
f 23 49 25
f 23 25 24
f 25 49 50
f 25 50 51
f 25 51 26
f 26 52 53
f 26 53 27
f 26 51 52
f 27 53 54
f 27 54 55
f 27 55 56
f 28 57 58
f 28 58 59
f 28 59 60
f 28 60 29
f 28 61 62
f 28 62 57
f 29 60 63
f 29 63 30
f 30 63 64
f 30 64 65
f 30 65 66
f 30 66 67
f 30 67 31
f 31 67 68
f 31 68 69
f 31 69 70
f 31 70 71
f 31 71 72
f 31 72 73
f 31 73 74
f 31 74 32
f 32 75 76
f 32 76 77
f 32 77 78
f 32 78 79
f 32 79 33
f 32 74 75
f 33 79 80
f 33 80 81
f 33 81 82
f 33 82 34
f 34 82 83
f 34 83 36
f 34 36 35
f 36 83 41
f 36 41 40
f 36 40 37
f 37 40 38
f 39 40 41
f 41 83 42
f 42 84 43
f 42 83 85
f 42 85 84
f 43 86 44
f 43 84 86
f 44 86 87
f 44 87 88
f 44 88 45
f 45 88 89
f 45 89 90
f 45 90 46
f 46 90 91
f 46 91 47
f 47 91 48
f 48 92 93
f 48 93 49
f 48 91 90
f 48 90 92
f 49 93 50
f 50 93 94
f 50 94 95
f 50 95 96
f 50 96 97
f 50 97 98
f 50 98 99
f 50 99 51
f 51 99 52
f 52 100 54
f 52 54 53
f 52 99 100
f 54 100 101
f 54 101 102
f 54 102 55
f 55 102 103
f 55 103 56
f 56 103 104
f 56 104 105
f 57 106 107
f 57 107 58
f 57 62 108
f 57 108 106
f 58 109 59
f 58 107 110
f 58 110 111
f 58 111 112
f 58 112 109
f 59 109 60
f 60 109 64
f 60 64 63
f 61 113 114
f 61 114 115
f 61 115 116
f 61 116 117
f 61 117 62
f 62 117 118
f 62 118 119
f 62 119 108
f 64 109 65
f 65 109 112
f 65 112 66
f 66 112 67
f 67 112 111
f 67 111 120
f 67 120 68
f 68 120 121
f 68 121 69
f 69 121 70
f 70 121 71
f 71 121 122
f 71 122 72
f 72 122 123
f 72 123 124
f 72 124 73
f 73 124 74
f 74 124 125
f 74 125 126
f 74 126 127
f 74 127 75
f 75 128 96
f 75 96 129
f 75 129 76
f 75 127 128
f 76 129 130
f 76 130 77
f 77 131 80
f 77 80 79
f 77 79 78
f 77 130 132
f 77 132 131
f 80 131 81
f 81 131 85
f 81 85 82
f 82 85 83
f 84 85 131
f 84 131 133
f 84 133 134
f 84 134 86
f 86 134 87
f 87 135 88
f 87 134 136
f 87 136 135
f 88 137 138
f 88 138 139
f 88 139 140
f 88 140 90
f 88 90 89
f 88 135 137
f 90 141 142
f 90 142 143
f 90 143 92
f 90 140 141
f 92 143 94
f 92 94 93
f 94 143 95
f 95 143 144
f 95 144 96
f 96 128 145
f 96 145 146
f 96 146 147
f 96 147 148
f 96 148 97
f 96 144 142
f 96 142 141
f 96 141 140
f 96 140 139
f 96 139 149
f 96 149 129
f 97 148 99
f 97 99 98
f 99 148 150
f 99 150 100
f 100 150 151
f 100 151 152
f 100 152 153
f 100 153 154
f 100 154 101
f 101 154 102
f 102 154 155
f 102 155 103
f 103 155 156
f 103 156 104
f 104 157 158
f 104 158 159
f 104 159 105
f 104 156 157
f 106 108 160
f 106 160 161
f 106 161 107
f 107 162 110
f 107 161 163
f 107 163 162
f 108 119 164
f 108 164 165
f 108 165 160
f 110 166 120
f 110 120 111
f 110 162 166
f 113 167 168
f 113 168 114
f 114 169 115
f 114 168 170
f 114 170 169
f 115 169 171
f 115 171 172
f 115 172 116
f 116 172 173
f 116 173 117
f 117 173 118
f 118 173 174
f 118 174 175
f 118 175 119
f 119 175 176
f 119 176 165
f 119 165 164
f 120 166 121
f 121 177 122
f 121 166 178
f 121 178 177
f 122 177 179
f 122 179 123
f 123 125 124
f 123 179 180
f 123 180 125
f 125 180 126
f 126 180 181
f 126 181 182
f 126 182 183
f 126 183 127
f 127 183 184
f 127 184 185
f 127 185 186
f 127 186 187
f 127 187 174
f 127 174 188
f 127 188 189
f 127 189 229
f 127 229 239
f 127 239 248
f 127 248 247
f 127 247 250
f 127 250 256
f 127 256 251
f 127 251 240
f 127 240 230
f 127 230 202
f 127 202 201
f 127 201 200
f 127 200 199
f 127 199 198
f 127 198 190
f 127 190 128
f 128 190 145
f 129 149 191
f 129 191 130
f 130 191 192
f 130 192 132
f 131 132 133
f 132 192 193
f 132 193 133
f 133 193 194
f 133 194 136
f 133 136 134
f 135 136 194
f 135 194 137
f 137 149 138
f 137 194 195
f 137 195 196
f 137 196 149
f 138 149 139
f 142 144 143
f 145 190 155
f 145 155 154
f 145 154 146
f 146 154 153
f 146 153 147
f 147 197 148
f 147 153 197
f 148 197 150
f 149 196 191
f 150 197 151
f 151 197 152
f 152 197 153
f 155 190 198
f 155 198 199
f 155 199 156
f 156 199 200
f 156 200 201
f 156 201 157
f 157 201 202
f 157 202 203
f 157 203 158
f 158 203 204
f 158 204 159
f 160 205 161
f 160 165 205
f 161 205 163
f 162 163 206
f 162 206 207
f 162 207 166
f 163 205 206
f 165 176 205
f 166 208 178
f 166 207 209
f 166 209 210
f 166 210 211
f 166 211 208
f 167 212 213
f 167 213 168
f 168 213 214
f 168 214 170
f 169 170 215
f 169 215 216
f 169 216 217
f 169 217 171
f 170 214 218
f 170 218 215
f 171 217 172
f 172 217 174
f 172 174 173
f 174 217 188
f 174 187 175
f 175 187 219
f 175 219 176
f 176 219 206
f 176 206 205
f 177 178 179
f 178 208 211
f 178 211 220
f 178 220 221
f 178 221 179
f 179 222 180
f 179 221 223
f 179 223 222
f 180 222 223
f 180 223 224
f 180 224 181
f 181 224 183
f 181 183 182
f 183 224 184
f 184 224 185
f 185 224 225
f 185 225 186
f 186 225 210
f 186 210 226
f 186 226 187
f 187 226 219
f 188 216 227
f 188 227 189
f 188 217 216
f 189 227 228
f 189 228 229
f 191 196 192
f 192 196 193
f 193 196 195
f 193 195 194
f 202 230 231
f 202 231 203
f 203 231 204
f 204 231 232
f 206 219 226
f 206 226 207
f 207 226 209
f 209 226 210
f 210 225 211
f 211 225 233
f 211 233 220
f 212 234 235
f 212 235 213
f 213 235 236
f 213 236 214
f 214 236 218
f 215 218 227
f 215 227 216
f 218 228 227
f 218 236 237
f 218 237 238
f 218 238 228
f 220 233 221
f 221 233 225
f 221 225 223
f 223 225 224
f 228 238 239
f 228 239 229
f 230 240 241
f 230 241 242
f 230 242 231
f 231 242 232
f 232 241 243
f 232 243 244
f 232 242 241
f 234 245 235
f 234 246 245
f 235 245 236
f 236 245 237
f 237 247 248
f 237 248 238
f 237 245 249
f 237 249 250
f 237 250 247
f 238 248 239
f 240 243 241
f 240 251 243
f 243 251 252
f 243 252 244
f 244 252 253
f 244 253 254
f 244 254 255
f 245 246 255
f 245 255 254
f 245 254 249
f 249 254 253
f 249 253 256
f 249 256 250
f 251 256 253
f 251 253 252
