v 0.115726 0.326669 0.187943
v 0.0820048 -0.324141 0.186939
v 0.0666478 0.325459 0.200605
v 0.131019 0.320935 0.212349
v 0.15719 0.321509 0.203705
v 0.200125 0.31998 0.194536
v 0.305576 0.303034 0.18755
v 0.336674 0.292459 0.186939
v 0.112911 -0.322675 0.189078
v 0.0681195 -0.321975 0.199295
v 0.416722 -0.255785 0.186939
v 0.227384 -0.313438 0.191436
v 0.0486674 -0.316496 0.223658
v 0.0484754 0.320235 0.224749
v 0.0770138 0.317623 0.230905
v 0.14516 0.311889 0.24169
v 0.174978 0.311443 0.239026
v 0.242421 0.303863 0.24885
v 0.266032 0.304946 0.234529
v 0.232759 0.314756 0.204403
v 0.262641 0.311953 0.19506
v 0.284076 0.306092 0.210647
v 0.316262 0.297237 0.221256
v 0.37641 0.275323 0.251077
v 0.366172 0.280419 0.22392
v 0.367004 0.280547 0.195191
v 0.407188 0.263983 0.198684
v 0.431375 0.252516 0.195191
v 0.4658 0.23264 0.186939
v 0.195646 -0.315541 0.198815
v 0.155526 -0.317961 0.201827
v 0.118989 -0.317898 0.209904
v 0.50912 -0.194565 0.186939
v 0.478982 -0.218582 0.192047
v 0.44814 -0.239222 0.204229
v 0.457482 -0.232724 0.266009
v 0.406356 -0.259416 0.235664
v 0.390807 -0.267953 0.198815
v 0.3663 -0.277445 0.195409
v 0.33437 -0.28853 0.196675
v 0.258802 -0.308151 0.197461
v 0.246644 -0.301589 0.239637
v 0.216314 -0.308151 0.225884
v 0.129483 -0.310826 0.234049
v 0.05577 -0.308023 0.248894
v 0.055898 -0.29318 0.288538
v 0.0592893 -0.266106 0.352719
v 0.0484754 -0.22922 0.404108
v 0.0484754 0.231366 0.407033
v 0.05577 0.293096 0.301287
v 0.0523147 0.310106 0.254308
v 0.104976 0.31036 0.249636
v 0.139977 0.293224 0.293166
v 0.206396 0.290739 0.293471
v 0.237942 0.29437 0.279325
v 0.206396 0.306729 0.247933
v 0.27883 0.295262 0.266052
v 0.310759 0.290676 0.26531
v 0.293867 0.299913 0.237891
v 0.33789 0.286089 0.259154
v 0.363805 0.274749 0.283342
v 0.401877 0.263091 0.279718
v 0.400341 0.266659 0.236145
v 0.440653 0.247866 0.22392
v 0.453323 0.241177 0.216934
v 0.460361 0.236972 0.216934
v 0.477574 0.225251 0.209904
v 0.502273 0.20512 0.186939
v 0.164996 -0.309106 0.235708
v 0.529212 -0.176473 0.186939
v 0.541369 -0.170357 0.30085
v 0.507648 -0.199152 0.286835
v 0.491203 -0.210937 0.251862
v 0.490499 -0.211383 0.292074
v 0.460169 -0.228201 0.310717
v 0.415826 -0.251644 0.281639
v 0.493507 -0.207879 0.330627
v 0.362269 -0.273941 0.260813
v 0.296426 -0.299105 0.207809
v 0.314918 -0.286109 0.260158
v 0.280493 -0.29197 0.260376
v 0.283053 -0.280694 0.293559
v 0.090963 -0.296302 0.27736
v 0.0665198 -0.282032 0.315957
v 0.106 -0.266997 0.346738
v 0.143497 -0.265596 0.346039
v 0.0649202 -0.2526 0.376165
v 0.0968498 -0.217435 0.424105
v 0.0965938 -0.18966 0.455497
v 0.0484754 -0.202209 0.432749
v 0.0613369 0.258759 0.373458
v 0.0596092 0.278635 0.336696
v 0.0484754 0.206203 0.434016
v 0.0980016 0.194354 0.456763
v 0.0980016 0.21595 0.432706
v 0.090963 0.286726 0.314865
v 0.16794 0.289402 0.30085
v 0.139977 0.284815 0.314865
v 0.230903 0.281375 0.312988
v 0.265904 0.280674 0.3098
v 0.265904 0.287044 0.293864
v 0.30628 0.282267 0.294956
v 0.349663 0.270163 0.311067
v 0.388312 0.262709 0.306264
v 0.438606 0.240412 0.328924
v 0.42664 0.250414 0.299016
v 0.446732 0.244107 0.265004
v 0.471879 0.228882 0.297357
v 0.499394 0.211618 0.307836
v 0.502657 0.20907 0.279849
v 0.522365 0.193908 0.311329
v 0.535802 0.175497 0.186939
v 0.215162 -0.280758 0.302771
v 0.15399 -0.29713 0.26841
v 0.553655 -0.152392 0.186939
v 0.535994 -0.175644 0.349794
v 0.518142 -0.190679 0.320104
v 0.645029 -0.0757552 0.515836
v 0.460809 -0.223551 0.339053
v 0.478022 -0.21202 0.356823
v 0.419282 -0.245274 0.3129
v 0.526652 -0.180805 0.377824
v 0.514942 -0.183225 0.406815
v 0.366812 -0.267252 0.289629
v 0.321893 -0.273495 0.30085
v 0.293867 -0.268526 0.321633
v 0.265904 -0.270437 0.321938
v 0.104976 -0.29146 0.288057
v 0.104976 -0.27891 0.319711
v 0.146952 -0.273304 0.328837
v 0.188991 -0.271457 0.328837
v 0.227064 -0.266806 0.335386
v 0.150471 -0.238394 0.392669
v 0.0927546 -0.241898 0.391359
v 0.246068 -0.223869 0.405854
v 0.286892 -0.1931 0.444058
v 0.293867 -0.180486 0.460037
v 0.0914749 -0.170038 0.473616
v 0.691483 -0.0116043 0.630315
v 0.0484754 -0.180741 0.453619
v 0.0839884 0.250605 0.386469
v 0.104976 0.259269 0.370838
v 0.15399 0.271628 0.342808
v 0.090963 0.281884 0.326479
v 0.0484754 0.18346 0.456195
v 0.0892353 0.163775 0.481824
v 0.677662 0.0217134 0.632978
v 0.108495 0.237609 0.404195
v 0.37769 0.169063 0.477153
v 0.282285 0.196329 0.448336
v 0.160965 0.280292 0.322986
v 0.197566 0.279145 0.32172
v 0.196414 0.266468 0.349314
v 0.230903 0.265066 0.348309
v 0.286892 0.270481 0.328837
v 0.321957 0.268506 0.32578
v 0.356446 0.252962 0.350842
v 0.392215 0.253663 0.332941
v 0.457034 0.228436 0.351453
v 0.486916 0.21372 0.360709
v 0.47847 0.222448 0.33102
v 0.511359 0.201616 0.33997
v 0.533947 0.183715 0.363809
v 0.542521 0.176835 0.339315
v 0.542713 0.175433 0.304343
v 0.646628 0.0836346 0.512605
v 0.556534 0.154538 0.186939
v 0.174914 -0.277381 0.315826
v 0.146952 -0.28458 0.30085
v 0.57957 -0.122833 0.186939
v 0.668256 -0.0511014 0.531598
v 0.611435 -0.105951 0.491954
v 0.417042 -0.238139 0.3439
v 0.496258 -0.195839 0.391053
v 0.586992 -0.125636 0.479248
v 0.49709 -0.181824 0.433623
v 0.554423 -0.146977 0.466194
v 0.380057 -0.251899 0.330845
v 0.349855 -0.25604 0.334338
v 0.323237 -0.259162 0.334862
v 0.188991 -0.237183 0.390748
v 0.34896 -0.232788 0.379876
v 0.314918 -0.221958 0.402798
v 0.282477 -0.220493 0.407644
v 0.351583 -0.20909 0.417861
v 0.320869 -0.20291 0.428558
v 0.349855 -0.191316 0.4417
v 0.341089 -0.17367 0.465408
v 0.493123 -0.138377 0.498372
v 0.0897472 -0.128248 0.498503
v 0.0484754 -0.156214 0.474315
v 0.536122 -0.140033 0.489771
v 0.576498 -0.127292 0.492085
v 0.702105 0.00464046 0.605952
v 0.0484754 -0.0423738 0.514002
v 0.0484754 -0.0698943 0.509811
v 0.0484754 -0.0991986 0.502345
v 0.146952 0.256848 0.370838
v 0.35747 0.216969 0.414325
v 0.0484754 0.150461 0.481213
v 0.090963 0.128164 0.500991
v 0.672095 0.0566874 0.533737
v 0.597294 0.124788 0.488941
v 0.532411 0.158615 0.472917
v 0.509824 0.147021 0.494966
v 0.450251 0.154474 0.490469
v 0.42664 0.155175 0.491211
v 0.0484754 0.118609 0.497149
v 0.0484754 0.0867561 0.506929
v 0.0484754 0.0557318 0.512823
v 0.0484754 0.0209489 0.516011
v 0.0484754 -0.0109035 0.516447
v 0.286892 0.213402 0.424629
v 0.414738 0.16798 0.475799
v 0.354271 0.182122 0.462002
v 0.318374 0.192188 0.451349
v 0.279853 0.252516 0.365031
v 0.308392 0.253408 0.359967
v 0.346336 0.240731 0.377082
v 0.391191 0.239075 0.369354
v 0.428944 0.225251 0.384592
v 0.480197 0.210216 0.389045
v 0.521021 0.187792 0.401357
v 0.569652 0.147849 0.461871
v 0.580785 0.126189 0.186939
v 0.605484 -0.0800234 0.186939
v 0.443661 -0.219091 0.376427
v 0.51699 -0.162203 0.46126
v 0.465352 -0.195775 0.419433
v 0.383961 -0.239795 0.358089
v 0.378778 -0.222468 0.393149
v 0.401749 -0.21202 0.406902
v 0.417938 -0.196157 0.428995
v 0.380569 -0.19826 0.429911
v 0.47911 -0.154176 0.479598
v 0.423185 -0.1594 0.477283
v 0.0484754 -0.125445 0.49191
v 0.488708 -0.168318 0.458902
v 0.616042 -0.0374048 0.186939
v 0.616234 0.0424812 0.186939
v 0.610923 0.0705751 0.186939
v 0.384728 0.181167 0.460736
v 0.412691 0.197539 0.436068
v 0.393495 0.21028 0.420306
v 0.420945 0.210153 0.416857
v 0.598894 0.099306 0.186939
v 0.514879 0.182377 0.435762
v 0.468616 0.198686 0.42489
v 0.489156 0.174669 0.459121
v 0.461641 0.170401 0.468639
v 0.448652 0.209961 0.409653
v 0.496002 0.1948 0.418691
v 0.461641 -0.182779 0.442137
v 0.437134 -0.20635 0.408605
v 0.434255 -0.180996 0.448031
v 0.461577 0.186645 0.445979
f 1 2 3
f 1 3 4
f 1 4 5
f 1 5 6
f 1 6 7
f 1 7 8
f 1 8 2
f 2 9 10
f 2 10 3
f 2 8 29
f 2 29 68
f 2 68 112
f 2 112 167
f 2 167 225
f 2 225 246
f 2 246 241
f 2 241 240
f 2 240 239
f 2 239 226
f 2 226 170
f 2 170 115
f 2 115 70
f 2 70 33
f 2 33 11
f 2 11 12
f 2 12 9
f 3 10 13
f 3 13 14
f 3 14 4
f 4 14 15
f 4 15 16
f 4 16 17
f 4 17 5
f 5 17 18
f 5 18 6
f 6 18 19
f 6 19 20
f 6 20 21
f 6 21 7
f 7 21 22
f 7 22 23
f 7 23 24
f 7 24 25
f 7 25 8
f 8 25 26
f 8 26 27
f 8 27 28
f 8 28 29
f 9 12 30
f 9 30 31
f 9 31 32
f 9 32 10
f 10 32 13
f 11 33 34
f 11 34 35
f 11 35 36
f 11 36 37
f 11 37 38
f 11 38 39
f 11 39 40
f 11 40 12
f 12 40 41
f 12 41 42
f 12 42 43
f 12 43 30
f 13 32 44
f 13 44 45
f 13 45 46
f 13 46 47
f 13 47 48
f 13 48 14
f 14 48 90
f 14 90 140
f 14 140 191
f 14 191 237
f 14 237 197
f 14 197 196
f 14 196 195
f 14 195 212
f 14 212 211
f 14 211 210
f 14 210 209
f 14 209 208
f 14 208 200
f 14 200 145
f 14 145 93
f 14 93 49
f 14 49 50
f 14 50 51
f 14 51 15
f 15 51 52
f 15 52 16
f 16 52 53
f 16 53 54
f 16 54 55
f 16 55 17
f 17 55 56
f 17 56 18
f 18 56 55
f 18 55 57
f 18 57 19
f 19 57 58
f 19 58 59
f 19 59 22
f 19 22 21
f 19 21 20
f 22 59 23
f 23 59 60
f 23 60 24
f 24 60 61
f 24 61 62
f 24 62 63
f 24 63 25
f 25 63 26
f 26 63 27
f 27 63 64
f 27 64 28
f 28 64 65
f 28 65 29
f 29 65 66
f 29 66 67
f 29 67 68
f 30 43 31
f 31 43 69
f 31 69 32
f 32 69 44
f 33 70 71
f 33 71 72
f 33 72 34
f 34 72 73
f 34 73 35
f 35 73 74
f 35 74 36
f 36 75 76
f 36 76 37
f 36 74 77
f 36 77 75
f 37 78 39
f 37 39 38
f 37 76 78
f 39 78 40
f 40 78 79
f 40 79 41
f 41 79 80
f 41 80 81
f 41 81 42
f 42 69 43
f 42 81 82
f 42 82 69
f 44 69 45
f 45 69 83
f 45 83 46
f 46 83 84
f 46 84 47
f 47 84 85
f 47 85 86
f 47 86 87
f 47 87 48
f 48 87 88
f 48 88 89
f 48 89 90
f 49 91 92
f 49 92 50
f 49 93 94
f 49 94 95
f 49 95 91
f 50 92 96
f 50 96 97
f 50 97 53
f 50 53 52
f 50 52 51
f 53 97 54
f 54 97 98
f 54 98 99
f 54 99 100
f 54 100 101
f 54 101 55
f 55 101 57
f 57 101 102
f 57 102 58
f 58 102 103
f 58 103 61
f 58 61 60
f 58 60 59
f 61 103 104
f 61 104 62
f 62 104 105
f 62 105 106
f 62 106 107
f 62 107 63
f 63 107 64
f 64 107 65
f 65 107 108
f 65 108 66
f 66 108 109
f 66 109 67
f 67 109 110
f 67 110 68
f 68 110 111
f 68 111 112
f 69 113 114
f 69 114 83
f 69 82 113
f 70 115 71
f 71 116 117
f 71 117 72
f 71 115 118
f 71 118 116
f 72 117 74
f 72 74 73
f 74 117 77
f 75 119 76
f 75 77 120
f 75 120 119
f 76 119 121
f 76 121 78
f 77 117 122
f 77 122 123
f 77 123 120
f 78 121 124
f 78 124 80
f 78 80 79
f 80 125 81
f 80 124 125
f 81 125 82
f 82 125 126
f 82 126 127
f 82 127 113
f 83 128 129
f 83 129 84
f 83 114 128
f 84 129 130
f 84 130 85
f 85 130 131
f 85 131 132
f 85 132 86
f 86 133 87
f 86 132 133
f 87 133 134
f 87 134 88
f 88 134 133
f 88 133 135
f 88 135 136
f 88 136 137
f 88 137 89
f 89 138 90
f 89 137 139
f 89 139 138
f 90 138 140
f 91 95 141
f 91 141 142
f 91 142 92
f 92 142 143
f 92 143 144
f 92 144 96
f 93 145 94
f 94 145 146
f 94 146 147
f 94 147 95
f 95 148 141
f 95 147 149
f 95 149 150
f 95 150 148
f 96 144 98
f 96 98 97
f 98 144 151
f 98 151 152
f 98 152 99
f 99 152 153
f 99 153 154
f 99 154 100
f 100 154 155
f 100 155 156
f 100 156 101
f 101 156 102
f 102 156 103
f 103 157 158
f 103 158 104
f 103 156 157
f 104 158 159
f 104 159 105
f 105 159 160
f 105 160 161
f 105 161 106
f 106 161 107
f 107 161 108
f 108 161 109
f 109 161 162
f 109 162 163
f 109 163 111
f 109 111 110
f 111 163 164
f 111 164 165
f 111 165 112
f 112 165 166
f 112 166 167
f 113 127 131
f 113 131 168
f 113 168 169
f 113 169 114
f 114 169 128
f 115 170 171
f 115 171 118
f 116 118 172
f 116 172 122
f 116 122 117
f 118 171 139
f 118 139 172
f 119 173 121
f 119 120 174
f 119 174 173
f 120 123 174
f 121 173 124
f 122 172 175
f 122 175 123
f 123 176 174
f 123 175 177
f 123 177 176
f 124 173 178
f 124 178 125
f 125 178 179
f 125 179 126
f 126 179 180
f 126 180 132
f 126 132 127
f 127 132 131
f 128 169 129
f 129 169 168
f 129 168 131
f 129 131 130
f 132 181 133
f 132 180 182
f 132 182 183
f 132 183 181
f 133 181 183
f 133 183 135
f 135 183 184
f 135 184 185
f 135 185 186
f 135 186 136
f 136 186 187
f 136 187 137
f 137 187 188
f 137 188 189
f 137 189 139
f 138 190 191
f 138 191 140
f 138 139 190
f 139 189 192
f 139 192 193
f 139 193 175
f 139 175 172
f 139 171 194
f 139 194 147
f 139 147 195
f 139 195 196
f 139 196 197
f 139 197 190
f 141 198 142
f 141 148 199
f 141 199 198
f 142 198 154
f 142 154 153
f 142 153 143
f 143 153 152
f 143 152 151
f 143 151 144
f 145 200 146
f 146 200 201
f 146 201 147
f 147 194 202
f 147 202 166
f 147 166 203
f 147 203 204
f 147 204 205
f 147 205 206
f 147 206 207
f 147 207 149
f 147 201 208
f 147 208 209
f 147 209 210
f 147 210 211
f 147 211 212
f 147 212 195
f 148 150 213
f 148 213 199
f 149 207 206
f 149 206 214
f 149 214 215
f 149 215 150
f 150 216 213
f 150 215 216
f 154 198 217
f 154 217 218
f 154 218 155
f 155 218 156
f 156 218 157
f 157 218 219
f 157 219 220
f 157 220 158
f 158 220 221
f 158 221 222
f 158 222 159
f 159 222 160
f 160 222 223
f 160 223 162
f 160 162 161
f 162 223 163
f 163 224 203
f 163 203 166
f 163 166 164
f 163 223 224
f 164 166 165
f 166 202 167
f 167 202 225
f 170 226 171
f 171 226 194
f 173 174 227
f 173 227 178
f 174 176 227
f 175 193 177
f 176 177 228
f 176 228 229
f 176 229 227
f 177 193 228
f 178 230 179
f 178 227 230
f 179 230 180
f 180 230 231
f 180 231 182
f 182 231 183
f 183 231 232
f 183 232 185
f 183 185 184
f 185 232 233
f 185 233 234
f 185 234 187
f 185 187 186
f 187 234 235
f 187 235 188
f 188 235 236
f 188 236 189
f 189 235 192
f 189 236 235
f 190 197 237
f 190 237 191
f 192 235 238
f 192 238 228
f 192 228 193
f 194 226 239
f 194 239 240
f 194 240 241
f 194 241 202
f 198 199 217
f 199 242 243
f 199 243 244
f 199 244 245
f 199 245 219
f 199 219 217
f 199 213 216
f 199 216 242
f 200 208 201
f 202 241 246
f 202 246 225
f 203 224 247
f 203 247 204
f 204 247 248
f 204 248 249
f 204 249 205
f 205 249 250
f 205 250 206
f 206 250 214
f 214 250 242
f 214 242 215
f 215 242 216
f 217 219 218
f 219 245 220
f 220 245 251
f 220 251 221
f 221 251 252
f 221 252 222
f 222 252 247
f 222 247 223
f 223 247 224
f 227 229 230
f 228 238 229
f 229 253 254
f 229 254 230
f 229 238 253
f 230 254 231
f 231 254 232
f 232 254 253
f 232 253 233
f 233 253 238
f 233 238 255
f 233 255 234
f 234 255 235
f 235 255 238
f 242 250 243
f 243 250 256
f 243 256 244
f 244 256 245
f 245 256 248
f 245 248 251
f 247 252 248
f 248 252 251
f 248 256 249
f 249 256 250
