v 0.101836 0.572981 0.0642393
v 0.0889062 0.572981 0.152837
v 0.152648 0.560051 0.140133
v 0.152194 0.560278 0.0392428
v -0.101525 0.572981 0.0392428
v 0.0698517 0.572981 0.203817
v 0.161722 0.552339 0.19691
v 0.231928 0.524778 0.21944
v 0.210038 0.54111 0.0422029
v 0.283421 0.507538 0.0392428
v -0.171846 0.5537 0.0392428
v -0.0921116 0.572981 0.156044
v -0.000128233 0.572981 0.216521
v 0.136089 0.537141 0.256359
v 0.225804 0.48372 0.283247
v 0.308487 0.483607 0.22277
v 0.33514 0.475327 0.169858
v 0.280018 0.509126 0.111478
v 0.36066 0.46251 0.0934704
v 0.36066 0.46251 0.0392428
v -0.281182 0.508559 0.0514944
v -0.204737 0.538615 0.194238
v -0.334716 0.475554 0.0392428
v -0.141789 0.553927 0.207969
v -0.0132849 0.537254 0.277943
v 0.0422907 0.513436 0.29706
v 0.144142 0.475327 0.309764
v 0.233516 0.414988 0.321194
v 0.289546 0.416802 0.302364
v 0.335707 0.432795 0.268939
v 0.364289 0.450261 0.211752
v 0.435063 0.396954 0.185069
v 0.429505 0.404099 0.086029
v 0.48837 0.327995 0.0392428
v -0.317136 0.490525 0.136968
v -0.193168 0.513209 0.251672
v -0.321333 0.480544 0.202213
v -0.273583 0.499712 0.219522
v -0.461633 0.348864 0.0392428
v -0.4005 0.422473 0.0607858
v -0.392447 0.43064 0.15921
v -0.10799 0.496877 0.293237
v -0.0592199 0.46251 0.32255
v 0.0390015 0.398769 0.360703
v 0.0868646 0.475214 0.316137
v -0.0263282 0.402965 0.358565
v 0.104898 0.419978 0.343723
v 0.14607 0.349658 0.370529
v 0.248147 0.330944 0.356468
v 0.321416 0.334119 0.327813
v 0.404099 0.3086 0.29595
v 0.413627 0.362701 0.260963
v 0.463758 0.341265 0.233212
v 0.487917 0.33514 0.18252
v 0.487917 0.33514 0.118919
v 0.523984 0.275822 0.151809
v 0.547235 0.21673 0.0392428
v -0.316569 0.421679 0.275271
v -0.242052 0.433248 0.299651
v -0.365793 0.440961 0.222112
v -0.436907 0.386066 0.140092
v -0.497587 0.290339 0.0392428
v -0.475357 0.33514 0.114643
v -0.468551 0.3348 0.200816
v -0.144171 0.438012 0.323578
v -0.0932458 0.415782 0.34582
v 0.0635002 0.292721 0.407407
v -0.0593333 0.33514 0.386152
v 0.101609 0.324592 0.388289
v 0.170909 0.267996 0.397046
v 0.292721 0.286256 0.356468
v 0.235558 0.248147 0.388331
v 0.350112 0.273553 0.337392
v 0.413627 0.248147 0.311902
v 0.46614 0.281606 0.265733
v 0.519787 0.274688 0.208051
v 0.547462 0.216276 0.165623
v 0.572868 0.122365 0.0703651
v 0.565496 -0.161184 0.0451219
v 0.323231 -0.487492 0.0392428
v -0.295927 0.350112 0.324606
v -0.366927 0.375631 0.277121
v -0.191581 0.3703 0.350301
v -0.400953 0.334119 0.276874
v -0.572897 0.0648612 0.0392428
v -0.546017 0.178848 0.0451219
v -0.52821 0.228979 0.0955672
v -0.503485 0.288298 0.177135
v -0.502918 0.229093 0.254632
v -0.18625 0.307579 0.379286
v -0.0783878 0.284215 0.405269
v -0.00114901 0.132119 0.45925
v 0.0752958 0.11624 0.45925
v 0.127129 0.222628 0.42007
v 0.3086 0.187581 0.378751
v 0.362474 0.200057 0.354577
v 0.182364 0.182364 0.417973
v 0.230567 0.157412 0.412135
v 0.446632 0.188715 0.309764
v 0.494268 0.144142 0.290688
v 0.52285 0.19087 0.25159
v 0.555741 0.0910612 0.237735
v 0.560051 0.159 0.184699
v 0.572981 0.0635002 0.191113
v 0.572981 -0.0507134 0.203776
v 0.532604 -0.197478 0.233582
v 0.54111 -0.216306 0.0828633
v 0.481678 -0.325643 0.068885
v 0.440167 -0.382806 0.0642393
v 0.366784 -0.456415 0.0451219
v 0.330377 -0.470366 0.222934
v 0.258809 -0.519817 0.178286
v 0.238507 -0.529911 0.0650204
v 0.143007 -0.566546 0.0453686
v -0.100618 -0.573011 0.0392428
v -0.346058 0.295897 0.326209
v -0.305227 0.270151 0.354248
v -0.419441 0.248941 0.303556
v -0.572897 -0.0384641 0.0451219
v -0.584807 0.0268656 0.124223
v -0.566206 0.117828 0.0529744
v -0.530365 -0.224926 0.0392428
v -0.563257 0.135068 0.130554
v -0.5408 0.141873 0.243408
v -0.546017 0.0722335 0.263389
v -0.486812 0.159793 0.292908
v -0.255322 0.197222 0.393059
v -0.161184 0.244972 0.406215
v -0.103567 0.0873183 0.45925
v 0.12418 0.0679236 0.45925
v 0.309621 0.0708725 0.398897
v 0.338316 0.13779 0.376655
v 0.402965 0.118168 0.349027
v 0.51026 0.0835755 0.287481
v 0.449694 0.0676967 0.328882
v 0.563 0.0169981 0.236131
v 0.55801 -0.0401654 0.246204
v 0.545193 -0.121941 0.244601
v 0.504022 -0.241372 0.256893
v 0.497557 -0.287307 0.223674
v 0.517632 -0.263035 0.10194
v 0.424175 -0.398798 0.140133
v 0.401944 -0.421029 0.184699
v 0.425876 -0.377362 0.25307
v 0.249508 -0.477058 0.274983
v 0.181683 -0.530365 0.248712
v 0.15038 -0.560648 0.205872
v 0.0656552 -0.582878 0.190332
v 0.0092856 -0.585714 0.0547012
v -0.00636631 -0.585714 0.15921
v -0.0889358 -0.572897 0.181534
v -0.152564 -0.560081 0.127388
v -0.152564 -0.560081 0.0392428
v -0.362504 0.179755 0.353673
v -0.309764 0.200398 0.37316
v -0.559854 -0.155513 0.059388
v -0.572897 -0.10799 0.0828633
v -0.585714 -0.0571783 0.168748
v -0.585714 0.00304752 0.181534
v -0.475243 -0.328705 0.0392428
v -0.518796 -0.26088 0.114643
v -0.566433 -0.152678 0.156044
v -0.57199 0.0587366 0.211752
v -0.556452 9.86063e-05 0.252453
v -0.51029 -0.0540026 0.287481
v -0.457209 -0.0284831 0.325181
v -0.500649 0.101723 0.293854
v -0.445867 0.0793789 0.330197
v -0.273583 0.114426 0.400993
v -0.209955 0.127129 0.42007
v -0.129767 0.0244838 0.45925
v 0.141419 -0.00795419 0.45925
v 0.305424 -0.0508268 0.400993
v 0.393438 0.0123479 0.363375
v 0.487917 -0.00829445 0.309764
v 0.478956 -0.0897298 0.311902
v 0.481565 -0.18659 0.295457
v 0.458201 -0.271995 0.289619
v 0.464552 -0.325756 0.252659
v 0.393778 -0.35309 0.293196
v 0.303836 -0.416378 0.293607
v 0.213895 -0.425679 0.319755
v 0.165464 -0.481595 0.29706
v 0.120777 -0.532633 0.265239
v -0.0253074 -0.567567 0.227128
v -0.106516 -0.548059 0.245217
v -0.171619 -0.540233 0.219851
v -0.229916 -0.516982 0.222688
v -0.238536 -0.52356 0.135364
v -0.224926 -0.530365 0.0392428
v -0.382239 0.0857304 0.362018
v -0.564164 -0.106062 0.21907
v -0.451425 -0.355812 0.19395
v -0.486018 -0.312486 0.177834
v -0.328705 -0.475243 0.0392428
v -0.347759 -0.46254 0.123154
v -0.533087 -0.232298 0.168748
v -0.530819 -0.194303 0.229882
v -0.468325 -0.231618 0.280286
v -0.481595 -0.131922 0.294265
v -0.390745 -0.0809964 0.358318
v -0.334149 -0.0412996 0.386727
v -0.299896 0.0435383 0.400623
v -0.131695 -0.0358554 0.45925
v -0.256116 -0.0397117 0.419288
v 0.0997945 -0.0991436 0.45925
v 0.279905 -0.127158 0.400993
v 0.248147 -0.0571783 0.42007
v 0.369053 -0.17332 0.359634
v 0.386179 -0.110032 0.360703
v 0.417823 -0.062509 0.351165
v 0.389241 -0.2264 0.33842
v 0.400924 -0.295927 0.311902
v 0.334006 -0.333242 0.326209
v 0.228979 -0.351616 0.353303
v 0.117601 -0.378043 0.364115
v 0.13348 -0.437021 0.328882
v 0.0825547 -0.468892 0.316137
v -0.0762328 -0.500649 0.29706
v -0.139861 -0.504959 0.284562
v -0.242619 -0.444733 0.299774
v -0.323374 -0.446661 0.252042
v -0.364546 -0.444166 0.196745
v -0.303299 -0.491122 0.164513
v -0.39721 -0.39721 0.230581
v -0.502464 -0.263715 0.227046
v -0.438382 -0.315775 0.264376
v -0.38825 -0.273583 0.316712
v -0.388704 -0.18228 0.343148
v -0.350028 -0.127158 0.372379
v -0.286173 -0.0824709 0.404241
v -0.0713558 -0.109918 0.45925
v -0.253735 -0.148708 0.406215
v -0.187724 -0.200427 0.412135
v 0.0121211 -0.134757 0.45925
v 0.0889062 -0.279935 0.407407
v 0.146297 -0.261674 0.405803
v 0.233743 -0.196004 0.403419
v 0.293288 -0.274377 0.363786
v 0.216276 -0.294225 0.378792
v 0.0890196 -0.33086 0.388289
v 0.00508907 -0.409006 0.355605
v -0.10368 -0.457096 0.321769
v -0.174908 -0.429535 0.325469
v -0.274037 -0.390292 0.318603
v -0.340387 -0.391313 0.29003
v -0.362731 -0.327798 0.308325
v -0.353204 -0.225833 0.350918
v -0.298989 -0.178084 0.385124
v -0.106516 -0.256116 0.412957
v -0.306928 -0.262468 0.358442
v -0.184435 -0.273583 0.391496
v -0.0667056 -0.321333 0.393059
v -0.128746 -0.389725 0.355276
v -0.239444 -0.325416 0.359017
v -0.149502 -0.321333 0.381958
f 1 2 3
f 1 3 4
f 1 4 5
f 1 5 12
f 1 12 13
f 1 13 6
f 1 6 2
f 2 6 3
f 3 7 8
f 3 8 9
f 3 9 4
f 3 6 7
f 4 9 10
f 4 10 20
f 4 20 34
f 4 34 57
f 4 57 80
f 4 80 115
f 4 115 153
f 4 153 190
f 4 190 195
f 4 195 160
f 4 160 122
f 4 122 85
f 4 85 62
f 4 62 39
f 4 39 23
f 4 23 11
f 4 11 5
f 5 11 12
f 6 13 14
f 6 14 7
f 7 14 8
f 8 14 15
f 8 15 16
f 8 16 17
f 8 17 18
f 8 18 9
f 9 18 10
f 10 18 19
f 10 19 20
f 11 21 22
f 11 22 12
f 11 23 21
f 12 22 24
f 12 24 13
f 13 24 25
f 13 25 14
f 14 25 26
f 14 26 27
f 14 27 15
f 15 28 29
f 15 29 30
f 15 30 16
f 15 27 28
f 16 30 31
f 16 31 17
f 17 31 19
f 17 19 18
f 19 31 32
f 19 32 33
f 19 33 20
f 20 33 34
f 21 35 22
f 21 23 35
f 22 36 24
f 22 35 37
f 22 37 38
f 22 38 36
f 23 39 40
f 23 40 41
f 23 41 35
f 24 36 25
f 25 36 42
f 25 42 43
f 25 43 26
f 26 44 45
f 26 45 27
f 26 43 46
f 26 46 44
f 27 45 47
f 27 47 48
f 27 48 28
f 28 49 29
f 28 48 49
f 29 49 50
f 29 50 30
f 30 50 51
f 30 51 52
f 30 52 53
f 30 53 31
f 31 53 32
f 32 53 54
f 32 54 33
f 33 54 55
f 33 55 34
f 34 55 56
f 34 56 57
f 35 41 37
f 36 38 58
f 36 58 59
f 36 59 42
f 37 41 60
f 37 60 38
f 38 60 58
f 39 61 40
f 39 62 63
f 39 63 61
f 40 61 41
f 41 61 64
f 41 64 60
f 42 65 66
f 42 66 43
f 42 59 65
f 43 66 46
f 44 67 47
f 44 47 45
f 44 46 67
f 46 66 68
f 46 68 67
f 47 69 48
f 47 67 69
f 48 69 70
f 48 70 49
f 49 71 50
f 49 70 72
f 49 72 71
f 50 73 51
f 50 71 73
f 51 73 74
f 51 74 75
f 51 75 52
f 52 75 53
f 53 75 76
f 53 76 54
f 54 76 56
f 54 56 55
f 56 76 77
f 56 77 57
f 57 77 78
f 57 78 79
f 57 79 80
f 58 81 59
f 58 60 82
f 58 82 81
f 59 83 65
f 59 81 83
f 60 64 84
f 60 84 82
f 61 63 64
f 62 85 86
f 62 86 87
f 62 87 88
f 62 88 63
f 63 88 64
f 64 88 89
f 64 89 84
f 65 83 66
f 66 83 90
f 66 90 68
f 67 68 91
f 67 91 92
f 67 92 93
f 67 93 94
f 67 94 70
f 67 70 69
f 68 90 91
f 70 94 72
f 71 72 95
f 71 95 96
f 71 96 73
f 72 94 97
f 72 97 98
f 72 98 95
f 73 96 74
f 74 99 75
f 74 96 99
f 75 100 101
f 75 101 76
f 75 99 100
f 76 101 102
f 76 102 103
f 76 103 77
f 77 103 78
f 78 103 104
f 78 104 105
f 78 105 79
f 79 105 106
f 79 106 107
f 79 107 108
f 79 108 109
f 79 109 110
f 79 110 80
f 80 110 111
f 80 111 112
f 80 112 113
f 80 113 114
f 80 114 115
f 81 82 116
f 81 116 117
f 81 117 90
f 81 90 83
f 82 84 116
f 84 89 118
f 84 118 116
f 85 119 120
f 85 120 121
f 85 121 86
f 85 122 119
f 86 121 123
f 86 123 87
f 87 123 88
f 88 123 124
f 88 124 89
f 89 124 125
f 89 125 126
f 89 126 118
f 90 117 127
f 90 127 128
f 90 128 91
f 91 128 92
f 92 128 129
f 92 129 171
f 92 171 204
f 92 204 232
f 92 232 235
f 92 235 206
f 92 206 172
f 92 172 130
f 92 130 93
f 93 130 97
f 93 97 94
f 95 98 131
f 95 131 132
f 95 132 96
f 96 132 133
f 96 133 99
f 97 130 98
f 98 130 131
f 99 133 100
f 100 134 101
f 100 133 135
f 100 135 134
f 101 134 102
f 102 136 104
f 102 104 103
f 102 134 136
f 104 136 105
f 105 136 137
f 105 137 138
f 105 138 106
f 106 138 139
f 106 139 140
f 106 140 107
f 107 140 141
f 107 141 108
f 108 141 140
f 108 140 142
f 108 142 109
f 109 142 110
f 110 142 143
f 110 143 111
f 111 143 144
f 111 144 145
f 111 145 146
f 111 146 147
f 111 147 112
f 112 147 113
f 113 147 114
f 114 147 148
f 114 148 149
f 114 149 115
f 115 150 151
f 115 151 152
f 115 152 153
f 115 149 150
f 116 118 154
f 116 154 117
f 117 155 127
f 117 154 155
f 118 126 154
f 119 156 157
f 119 157 158
f 119 158 120
f 119 122 156
f 120 158 159
f 120 159 123
f 120 123 121
f 122 160 161
f 122 161 162
f 122 162 156
f 123 159 163
f 123 163 124
f 124 163 125
f 125 163 164
f 125 164 165
f 125 165 166
f 125 166 167
f 125 167 126
f 126 167 168
f 126 168 154
f 127 155 169
f 127 169 170
f 127 170 129
f 127 129 128
f 129 170 171
f 130 172 131
f 131 172 173
f 131 173 174
f 131 174 133
f 131 133 132
f 133 174 135
f 134 135 175
f 134 175 137
f 134 137 136
f 135 174 175
f 137 175 176
f 137 176 177
f 137 177 138
f 138 177 139
f 139 177 178
f 139 178 179
f 139 179 140
f 140 179 144
f 140 144 143
f 140 143 142
f 144 180 145
f 144 179 180
f 145 181 182
f 145 182 183
f 145 183 146
f 145 180 181
f 146 183 184
f 146 184 147
f 147 184 148
f 148 184 185
f 148 185 150
f 148 150 149
f 150 185 151
f 151 185 186
f 151 186 187
f 151 187 152
f 152 187 188
f 152 188 189
f 152 189 190
f 152 190 153
f 154 168 191
f 154 191 155
f 155 191 169
f 156 162 157
f 157 162 158
f 158 162 192
f 158 192 159
f 159 192 164
f 159 164 163
f 160 193 194
f 160 194 161
f 160 195 196
f 160 196 193
f 161 194 197
f 161 197 162
f 162 197 198
f 162 198 192
f 164 192 165
f 165 192 198
f 165 198 199
f 165 199 200
f 165 200 166
f 166 201 202
f 166 202 191
f 166 191 168
f 166 168 167
f 166 200 201
f 169 191 203
f 169 203 171
f 169 171 170
f 171 203 205
f 171 205 204
f 172 206 207
f 172 207 208
f 172 208 173
f 173 208 207
f 173 207 209
f 173 209 210
f 173 210 211
f 173 211 174
f 174 211 175
f 175 211 176
f 176 211 177
f 177 211 209
f 177 209 212
f 177 212 178
f 178 212 213
f 178 213 180
f 178 180 179
f 180 213 214
f 180 214 181
f 181 215 182
f 181 214 215
f 182 215 216
f 182 216 217
f 182 217 183
f 183 217 218
f 183 218 184
f 184 218 219
f 184 219 185
f 185 219 186
f 186 220 188
f 186 188 187
f 186 219 220
f 188 221 222
f 188 222 223
f 188 223 224
f 188 224 189
f 188 220 221
f 189 224 190
f 190 224 195
f 191 202 203
f 193 196 223
f 193 223 225
f 193 225 226
f 193 226 194
f 194 226 197
f 195 224 196
f 196 224 223
f 197 226 198
f 198 226 199
f 199 227 228
f 199 228 229
f 199 229 200
f 199 226 227
f 200 229 201
f 201 229 230
f 201 230 202
f 202 230 231
f 202 231 205
f 202 205 203
f 204 205 233
f 204 233 234
f 204 234 232
f 205 231 233
f 206 235 236
f 206 236 237
f 206 237 238
f 206 238 207
f 207 238 209
f 209 211 210
f 209 238 239
f 209 239 212
f 212 239 213
f 213 239 214
f 214 239 215
f 215 239 240
f 215 240 237
f 215 237 216
f 216 237 241
f 216 241 242
f 216 242 218
f 216 218 217
f 218 242 219
f 219 243 220
f 219 242 243
f 220 243 244
f 220 244 221
f 221 244 245
f 221 245 246
f 221 246 222
f 222 246 225
f 222 225 223
f 225 227 226
f 225 246 227
f 227 246 247
f 227 247 228
f 228 247 248
f 228 248 229
f 229 248 230
f 230 248 249
f 230 249 231
f 231 249 233
f 232 234 250
f 232 250 235
f 233 249 234
f 234 249 251
f 234 251 252
f 234 252 250
f 235 250 253
f 235 253 236
f 236 241 237
f 236 253 241
f 237 240 238
f 238 240 239
f 241 253 242
f 242 253 254
f 242 254 243
f 243 254 244
f 244 255 245
f 244 254 255
f 245 255 251
f 245 251 247
f 245 247 246
f 247 251 248
f 248 251 249
f 250 256 253
f 250 252 256
f 251 255 252
f 252 255 256
f 253 256 254
f 254 256 255
