v 0.60338 -0.387871 0.532877
v 0.60338 0.409054 0.532877
v -0.15822 -0.386701 0.532877
v -0.15822 -0.386701 -0.475288
v 0.60338 -0.387559 -0.475402
v -0.15822 0.409054 0.532877
v 0.60338 0.409054 -0.609178
v -0.15822 -0.363533 -0.622521
v 0.60338 -0.366809 -0.614994
v 0.60338 -0.386233 -0.488631
v -0.15822 0.409054 -0.609178
v 0.60338 0.407338 -0.622521
v -0.15822 0.407884 -0.618301
v -0.15822 -0.363064 -0.624916
v 0.60338 -0.365405 -0.622521
v 0.60338 0.40531 -0.627197
v -0.15822 0.407338 -0.622521
v 0.60338 -0.364781 -0.625714
v -0.15822 -0.36205 -0.62982
v -0.15822 0.403671 -0.630732
v 0.60338 0.403671 -0.630732
v 0.60338 -0.362518 -0.62982
v -0.15822 -0.354796 -0.631303
v 0.60338 -0.35932 -0.630504
v -0.15822 0.394935 -0.632215
v 0.60338 0.394935 -0.632215
v 0.60338 -0.348945 -0.631759
v 0.60338 -0.354796 -0.631303
v -0.15822 -0.341378 -0.632215
v 0.60338 -0.341378 -0.632215
f 1 2 6
f 1 6 3
f 1 3 4
f 1 4 5
f 1 5 10
f 1 10 9
f 1 9 15
f 1 15 18
f 1 18 22
f 1 22 24
f 1 24 28
f 1 28 27
f 1 27 30
f 1 30 26
f 1 26 21
f 1 21 16
f 1 16 12
f 1 12 7
f 1 7 2
f 2 7 11
f 2 11 6
f 3 6 11
f 3 11 13
f 3 13 17
f 3 17 20
f 3 20 25
f 3 25 29
f 3 29 23
f 3 23 19
f 3 19 14
f 3 14 8
f 3 8 4
f 4 8 9
f 4 9 10
f 4 10 5
f 7 12 13
f 7 13 11
f 8 14 18
f 8 18 15
f 8 15 9
f 12 16 17
f 12 17 13
f 14 19 18
f 16 20 17
f 16 21 20
f 18 19 22
f 19 23 24
f 19 24 22
f 20 21 26
f 20 26 25
f 23 27 28
f 23 28 24
f 23 29 27
f 25 26 30
f 25 30 29
f 27 29 30
