v 0.636014 -0.409054 -0.609194
v 0.623796 -0.40537 -0.609194
v 0.624796 -0.404489 -0.622561
v 0.636014 -0.407372 -0.622561
v 0.662788 -0.409054 -0.609194
v 0.603387 -0.409054 0.568969
v 0.603387 -0.387512 -0.475399
v 0.603387 -0.386231 -0.488642
v 0.617878 -0.39496 -0.609194
v 0.603387 -0.364769 -0.625779
v 0.603387 -0.362527 -0.629863
v 0.626968 -0.402968 -0.630235
v 0.662788 -0.407372 -0.622561
v 0.636014 -0.403689 -0.63073
v 0.672324 -0.404489 -0.622561
v 0.673158 -0.40537 -0.609194
v 0.662788 -0.409054 0.609194
v 0.603387 -0.409054 0.609194
v 0.603387 -0.366851 -0.615011
v 0.603387 -0.36541 -0.622561
v 0.603387 -0.359324 -0.630482
v 0.603387 -0.354759 -0.631348
v 0.636014 -0.39496 -0.632215
v 0.662788 -0.403689 -0.63073
v 0.670821 -0.402968 -0.630235
v 0.675172 -0.39496 -0.622561
v 0.676847 -0.39496 -0.609194
v 0.673158 -0.40537 0.609194
v 0.672324 -0.404489 0.622561
v 0.662788 -0.407372 0.622561
v 0.603387 -0.407372 0.622561
v 0.603387 -0.341385 -0.632215
v 0.662788 -0.39496 -0.632215
v 0.671489 -0.39496 -0.63073
v 0.675172 0.39496 -0.622561
v 0.676847 0.39496 -0.609194
v 0.676847 -0.39496 0.609194
v 0.675172 -0.39496 0.622561
v 0.670821 -0.402968 0.630235
v 0.662788 -0.403689 0.63073
v 0.603387 -0.403689 0.63073
v 0.603387 0.39496 -0.632215
v 0.662788 0.39496 -0.632215
v 0.671489 0.39496 -0.63073
v 0.672324 0.404489 -0.622561
v 0.670821 0.402968 -0.630235
v 0.673158 0.40537 -0.609194
v 0.676847 0.39496 0.609194
v 0.675172 0.39496 0.622561
v 0.671489 -0.39496 0.63073
v 0.662788 -0.39496 0.632215
v 0.603387 -0.39496 0.632215
v 0.603387 0.403689 -0.63073
v 0.662788 0.403689 -0.63073
v 0.662788 0.407372 -0.622561
v 0.662788 0.409054 -0.609194
v 0.673158 0.40537 0.609194
v 0.672324 0.404489 0.622561
v 0.670821 0.402968 0.630235
v 0.671489 0.39496 0.63073
v 0.662788 0.39496 0.632215
v 0.603387 0.39496 0.632215
v 0.603387 0.407372 -0.622561
v 0.603387 0.409054 -0.609194
v 0.662788 0.409054 0.609194
v 0.662788 0.407372 0.622561
v 0.662788 0.403689 0.63073
v 0.603387 0.403689 0.63073
v 0.603387 0.409054 0.609194
v 0.603387 0.405771 0.62615
v 0.603387 0.407372 0.622561
f 1 2 3
f 1 3 4
f 1 4 13
f 1 13 5
f 1 5 17
f 1 17 18
f 1 18 6
f 1 6 2
f 2 7 8
f 2 8 9
f 2 9 3
f 2 6 7
f 3 10 11
f 3 11 12
f 3 12 4
f 3 9 10
f 4 12 14
f 4 14 24
f 4 24 13
f 5 13 15
f 5 15 16
f 5 16 28
f 5 28 17
f 6 18 31
f 6 31 41
f 6 41 52
f 6 52 62
f 6 62 68
f 6 68 70
f 6 70 71
f 6 71 69
f 6 69 64
f 6 64 63
f 6 63 53
f 6 53 42
f 6 42 32
f 6 32 22
f 6 22 21
f 6 21 11
f 6 11 10
f 6 10 20
f 6 20 19
f 6 19 8
f 6 8 7
f 8 19 9
f 9 19 20
f 9 20 10
f 11 21 12
f 12 21 22
f 12 22 23
f 12 23 14
f 13 24 25
f 13 25 15
f 14 23 33
f 14 33 24
f 15 25 26
f 15 26 27
f 15 27 16
f 16 27 37
f 16 37 28
f 17 28 29
f 17 29 30
f 17 30 31
f 17 31 18
f 22 32 23
f 23 32 42
f 23 42 43
f 23 43 33
f 24 33 25
f 25 33 34
f 25 34 26
f 26 34 44
f 26 44 35
f 26 35 36
f 26 36 27
f 27 36 48
f 27 48 37
f 28 37 29
f 29 38 39
f 29 39 30
f 29 37 38
f 30 39 40
f 30 40 41
f 30 41 31
f 33 43 44
f 33 44 34
f 35 45 36
f 35 44 46
f 35 46 45
f 36 45 47
f 36 47 57
f 36 57 48
f 37 48 49
f 37 49 38
f 38 49 60
f 38 60 50
f 38 50 39
f 39 50 51
f 39 51 40
f 40 51 52
f 40 52 41
f 42 53 54
f 42 54 43
f 43 54 46
f 43 46 44
f 45 46 55
f 45 55 56
f 45 56 47
f 46 54 55
f 47 56 65
f 47 65 57
f 48 57 58
f 48 58 49
f 49 58 59
f 49 59 60
f 50 60 61
f 50 61 51
f 51 61 62
f 51 62 52
f 53 63 55
f 53 55 54
f 55 63 64
f 55 64 56
f 56 64 69
f 56 69 65
f 57 65 58
f 58 65 66
f 58 66 59
f 59 66 67
f 59 67 61
f 59 61 60
f 61 67 68
f 61 68 62
f 65 69 71
f 65 71 66
f 66 70 67
f 66 71 70
f 67 70 68
