v -0.60234 -0.409054 0.569044
v -0.158338 -0.409054 0.569044
v -0.60234 -0.409054 0.609224
v -0.60234 -0.387352 0.390351
v -0.158338 -0.409054 0.609224
v -0.158338 -0.386711 0.390351
v -0.60234 -0.407372 0.622602
v -0.60234 0.409054 0.390351
v -0.158338 -0.407372 0.622602
v -0.158338 0.409054 0.390351
v -0.60234 -0.403689 0.630747
v -0.60234 0.409054 0.609224
v -0.158338 -0.403689 0.630747
v -0.158338 0.409054 0.609224
v -0.60234 -0.399204 0.631505
v -0.60234 0.407372 0.622602
v -0.158338 -0.39496 0.632215
v -0.158338 0.407372 0.622602
v -0.60234 -0.39496 0.632215
v -0.60234 0.403689 0.630747
v -0.158338 0.39496 0.632215
v -0.158338 0.403689 0.630747
v -0.60234 0.39496 0.632215
v -0.158338 0.400886 0.63122
f 1 2 5
f 1 5 3
f 1 3 7
f 1 7 11
f 1 11 15
f 1 15 19
f 1 19 23
f 1 23 20
f 1 20 16
f 1 16 12
f 1 12 8
f 1 8 4
f 1 4 2
f 2 4 6
f 2 6 10
f 2 10 14
f 2 14 18
f 2 18 22
f 2 22 24
f 2 24 21
f 2 21 17
f 2 17 13
f 2 13 9
f 2 9 5
f 3 5 9
f 3 9 7
f 4 8 10
f 4 10 6
f 7 9 13
f 7 13 11
f 8 12 14
f 8 14 10
f 11 13 15
f 12 16 18
f 12 18 14
f 13 17 15
f 15 17 19
f 16 20 22
f 16 22 18
f 17 21 23
f 17 23 19
f 20 24 22
f 20 23 24
f 21 24 23
