v -0.450888 0.388484 -0.065772
v -0.450888 0.51068 -0.065772
v -0.417002 0.388484 -0.065772
v -0.480941 0.388484 0.00680935
v -0.450805 0.5243 -0.065772
v -0.480941 0.51068 0.00680935
v -0.431498 0.524329 -0.065772
v -0.477183 0.388484 0.156609
v -0.492609 0.388484 0.035089
v -0.45007 0.531773 -0.065772
v -0.477341 0.5243 -0.00168372
v -0.477089 0.531673 -0.00106396
v -0.492609 0.51068 0.035089
v -0.492553 0.5243 0.0351808
v -0.433824 0.532843 -0.065772
v -0.495363 0.5243 0.168729
v -0.482319 0.388484 0.168729
v -0.492702 0.388484 0.0354104
v -0.46424 0.532444 -0.03017
v -0.450972 0.532629 -0.061273
v -0.448004 0.5329 -0.065772
v -0.491753 0.532686 0.0371319
v -0.496126 0.51068 0.0476679
v -0.49594 0.5243 0.0476679
v -0.437788 0.53347 -0.065772
v -0.444822 0.533998 -0.0476611
v -0.499839 0.534183 0.168729
v -0.512046 0.388484 0.168729
v -0.496126 0.388484 0.0476679
v -0.478653 0.533028 0.00680935
v -0.466008 0.533642 -0.0204144
v -0.453494 0.533998 -0.0476611
v -0.442077 0.533314 -0.065772
v -0.504026 0.531331 0.107762
v -0.493009 0.533813 0.0476679
v -0.496182 0.388484 0.0480352
v -0.498183 0.51068 0.0612798
v -0.504137 0.5243 0.106959
v -0.486087 0.534169 0.0612798
v -0.48672 0.534169 0.0748917
v -0.507515 0.534183 0.168729
v -0.510706 0.51068 0.156609
v -0.510753 0.388484 0.156953
v -0.512027 0.49706 0.168729
v -0.481221 0.533998 0.0204442
v -0.4938 0.534169 0.0612798
v -0.505291 0.5243 0.11575
v -0.507059 0.5243 0.129362
v -0.508817 0.5243 0.142974
v -0.510446 0.5243 0.156609
v -0.511581 0.5243 0.168729
v -0.504547 0.531987 0.11575
v -0.505431 0.532943 0.129362
v -0.506287 0.533656 0.142974
v -0.507031 0.534069 0.156609
v -0.498183 0.388484 0.0612798
v -0.504202 0.388484 0.106959
v -0.508948 0.51068 0.142974
v -0.512018 0.51068 0.168729
v -0.508948 0.388484 0.142974
f 1 2 5
f 1 5 10
f 1 10 21
f 1 21 33
f 1 33 25
f 1 25 15
f 1 15 7
f 1 7 3
f 1 3 8
f 1 8 17
f 1 17 28
f 1 28 43
f 1 43 60
f 1 60 57
f 1 57 56
f 1 56 36
f 1 36 29
f 1 29 18
f 1 18 9
f 1 9 4
f 1 4 6
f 1 6 2
f 2 6 5
f 3 7 8
f 4 9 13
f 4 13 6
f 5 6 11
f 5 11 12
f 5 12 10
f 6 13 14
f 6 14 11
f 7 15 16
f 7 16 8
f 8 16 17
f 9 18 13
f 10 19 20
f 10 20 21
f 10 12 19
f 11 14 12
f 12 14 22
f 12 22 19
f 13 18 23
f 13 23 14
f 14 23 24
f 14 24 22
f 15 25 26
f 15 26 27
f 15 27 16
f 16 27 41
f 16 41 51
f 16 51 59
f 16 59 44
f 16 44 28
f 16 28 17
f 18 29 23
f 19 22 30
f 19 30 20
f 20 30 31
f 20 31 32
f 20 32 21
f 21 32 33
f 22 24 34
f 22 34 35
f 22 35 30
f 23 36 37
f 23 37 24
f 23 29 36
f 24 37 38
f 24 38 34
f 25 33 32
f 25 32 26
f 26 32 46
f 26 46 39
f 26 39 40
f 26 40 27
f 27 40 39
f 27 39 46
f 27 46 41
f 28 42 43
f 28 44 42
f 30 35 31
f 31 35 45
f 31 45 32
f 32 45 46
f 34 38 47
f 34 47 48
f 34 48 49
f 34 49 50
f 34 50 51
f 34 51 52
f 34 52 35
f 35 52 53
f 35 53 54
f 35 54 55
f 35 55 46
f 35 46 45
f 36 56 37
f 37 56 57
f 37 57 58
f 37 58 38
f 38 58 47
f 41 46 55
f 41 55 51
f 42 44 59
f 42 59 50
f 42 50 49
f 42 49 58
f 42 58 43
f 43 58 60
f 47 58 48
f 48 58 49
f 50 59 51
f 51 55 54
f 51 54 53
f 51 53 52
f 57 60 58
