v 0.492803 0.533621 0.303627
v 0.505204 0.532716 0.224716
v 0.506066 0.533506 0.211089
v 0.493634 0.534139 0.292786
v 0.483597 0.533621 0.303627
v 0.495536 0.524309 0.303627
v 0.50388 0.531106 0.245131
v 0.504322 0.531696 0.238317
v 0.511557 0.524309 0.183861
v 0.50686 0.534009 0.197475
v 0.507506 0.534182 0.183861
v 0.494259 0.534182 0.279172
v 0.48592 0.534139 0.292786
v 0.486566 0.534182 0.279172
v 0.487207 0.534038 0.265558
v 0.48798 0.533578 0.251931
v 0.478637 0.524309 0.303627
v 0.49737 0.524309 0.292786
v 0.495725 0.510685 0.303627
v 0.497727 0.510685 0.292786
v 0.503912 0.524309 0.245355
v 0.504831 0.524309 0.238317
v 0.506607 0.524309 0.224716
v 0.508368 0.524309 0.211089
v 0.51006 0.524309 0.197475
v 0.51172 0.524309 0.170234
v 0.511978 0.510685 0.183861
v 0.512183 0.510685 0.170234
v 0.507574 0.534196 0.170234
v 0.499908 0.534196 0.170234
v 0.499839 0.534182 0.168742
v 0.488841 0.532817 0.238317
v 0.489724 0.531811 0.224716
v 0.490197 0.531207 0.217414
v 0.472757 0.387378 0.168742
v 0.458906 0.387378 0.292786
v 0.458548 0.387378 0.303627
v 0.495725 0.387378 0.303627
v 0.49759 0.387378 0.293539
v 0.506691 0.510685 0.224716
v 0.497727 0.387378 0.292786
v 0.510275 0.510685 0.197475
v 0.511584 0.524309 0.168742
v 0.511205 0.525372 0.168742
v 0.507516 0.534182 0.168742
v 0.511983 0.49706 0.183861
v 0.51202 0.510685 0.168742
v 0.511988 0.512179 0.168742
v 0.512188 0.49706 0.170234
v 0.512025 0.498569 0.168742
v 0.499303 0.533104 0.168742
v 0.495368 0.524309 0.168742
v 0.512056 0.387378 0.168742
v 0.506691 0.387378 0.224716
v 0.510275 0.387378 0.197475
v 0.512014 0.388125 0.183861
v 0.512225 0.387378 0.170234
v 0.512014 0.387378 0.183861
f 1 2 3
f 1 3 4
f 1 4 13
f 1 13 5
f 1 5 17
f 1 17 37
f 1 37 38
f 1 38 19
f 1 19 6
f 1 6 7
f 1 7 8
f 1 8 2
f 2 8 9
f 2 9 3
f 3 10 4
f 3 9 10
f 4 11 12
f 4 12 14
f 4 14 13
f 4 10 11
f 5 13 14
f 5 14 15
f 5 15 16
f 5 16 17
f 6 18 7
f 6 19 20
f 6 20 18
f 7 18 20
f 7 20 21
f 7 21 22
f 7 22 23
f 7 23 24
f 7 24 25
f 7 25 9
f 7 9 8
f 9 26 11
f 9 11 10
f 9 25 27
f 9 27 28
f 9 28 26
f 11 29 12
f 11 26 29
f 12 29 30
f 12 30 14
f 14 30 31
f 14 31 15
f 15 31 16
f 16 32 17
f 16 31 32
f 17 32 33
f 17 33 34
f 17 34 35
f 17 35 36
f 17 36 37
f 19 38 39
f 19 39 20
f 20 40 21
f 20 39 41
f 20 41 54
f 20 54 40
f 21 40 42
f 21 42 22
f 22 42 23
f 23 42 24
f 24 42 27
f 24 27 25
f 26 43 44
f 26 44 45
f 26 45 29
f 26 28 43
f 27 42 46
f 27 46 49
f 27 49 28
f 28 47 48
f 28 48 43
f 28 49 50
f 28 50 47
f 29 45 31
f 29 31 30
f 31 45 44
f 31 44 43
f 31 43 48
f 31 48 47
f 31 47 50
f 31 50 53
f 31 53 35
f 31 35 52
f 31 52 51
f 31 51 34
f 31 34 33
f 31 33 32
f 34 51 52
f 34 52 35
f 35 53 57
f 35 57 58
f 35 58 55
f 35 55 54
f 35 54 41
f 35 41 39
f 35 39 38
f 35 38 37
f 35 37 36
f 40 54 55
f 40 55 42
f 42 55 58
f 42 58 56
f 42 56 46
f 46 56 57
f 46 57 49
f 49 57 50
f 50 57 53
f 56 58 57
