v 0.0959942 -0.199638 -0.6741
v 0.0959942 -0.224716 -0.6741
v 0.0956641 -0.199638 -0.681422
v 0.0959575 -0.199638 -0.660477
v 0.0959758 -0.238335 -0.6741
v 0.0956641 -0.224716 -0.681422
v 0.0959575 -0.279191 -0.660477
v 0.0896501 -0.199638 -0.684317
v 0.0957925 -0.199638 -0.617462
v 0.0949674 -0.251954 -0.340401
v 0.095004 -0.264734 -0.340401
v 0.0958475 -0.251954 -0.6741
v 0.0956458 -0.238335 -0.681388
v 0.0885133 -0.224716 -0.684862
v 0.0957925 -0.320032 -0.619607
v 0.0957925 -0.306413 -0.646854
v 0.0957008 -0.292536 -0.66017
v 0.0955358 -0.28783 -0.667799
v 0.0956458 -0.279191 -0.668719
v 0.095004 -0.333651 -0.340401
v 0.0885133 -0.199638 -0.684862
v 0.0957375 -0.199638 -0.606018
v 0.0892651 -0.238158 -0.340401
v 0.0955174 -0.199638 -0.598662
v 0.0955174 -0.251954 -0.681184
v 0.0885133 -0.238335 -0.684726
v 0.0748901 -0.224716 -0.687791
v 0.0956458 -0.333651 -0.578772
v 0.0957191 -0.333651 -0.606018
v 0.0954991 -0.316357 -0.646854
v 0.0953891 -0.313343 -0.653802
v 0.0956275 -0.321096 -0.634286
v 0.0940873 -0.296904 -0.664496
v 0.0891367 -0.292536 -0.670251
v 0.0953891 -0.259287 -0.68098
v 0.0927121 -0.344884 -0.340401
v 0.0953341 -0.3405 -0.501257
v 0.0748901 -0.199638 -0.687791
v 0.0748901 -0.233113 -0.340401
v 0.0885133 -0.199638 -0.593145
v 0.0067922 -0.223169 -0.340401
v 0.0748901 -0.238335 -0.687587
v 0.0885133 -0.251954 -0.684045
v 0.0612668 -0.224716 -0.687859
v 0.0954074 -0.340855 -0.537903
v 0.0954808 -0.341145 -0.578772
v 0.0954991 -0.341048 -0.592395
v 0.0954991 -0.340839 -0.606018
v 0.0954258 -0.340629 -0.613341
v 0.0955725 -0.332732 -0.618586
v 0.0952607 -0.32635 -0.639531
v 0.0898335 -0.322643 -0.646888
v 0.0885133 -0.315132 -0.65547
v 0.0850112 -0.301111 -0.66831
v 0.0840761 -0.274002 -0.681491
v 0.0885866 -0.264525 -0.682308
v 0.0917587 -0.34727 -0.340401
v 0.0953524 -0.340597 -0.510725
v 0.0612668 -0.199638 -0.687859
v 0.0748901 -0.199638 -0.588172
v -0.00679437 -0.223169 -0.340401
v 0.0612668 -0.238335 -0.687655
v 0.0748901 -0.251954 -0.686633
v 0.0204154 -0.238335 -0.687825
v -0.061269 -0.224716 -0.688336
v 0.0362023 -0.199638 -0.687962
v 0.0954258 -0.340984 -0.551526
v 0.0954441 -0.341097 -0.565149
v 0.0882016 -0.353604 -0.340401
v 0.0897601 -0.347914 -0.565149
v 0.0885133 -0.345174 -0.606018
v 0.0874865 -0.341951 -0.618586
v 0.0822609 -0.340581 -0.626657
v 0.0829577 -0.354361 -0.565149
v 0.0825359 -0.354264 -0.574924
v 0.0861847 -0.328654 -0.642358
v 0.0748901 -0.323674 -0.650294
v 0.0748901 -0.316873 -0.657071
v 0.0748901 -0.3019 -0.668821
v 0.0748901 -0.292794 -0.673964
v 0.0748901 -0.308702 -0.663883
v 0.0748901 -0.281657 -0.679277
v 0.0748901 -0.27484 -0.681797
v 0.0748901 -0.265573 -0.684283
v 0.0727265 -0.199638 -0.588172
v -0.0748922 -0.233355 -0.340401
v 0.0591032 -0.199638 -0.588206
v -0.0476641 -0.199638 -0.588615
v -0.061269 -0.199638 -0.588683
v -0.0748922 -0.199638 -0.589296
v -0.0765241 -0.199638 -0.590113
v -0.0851784 -0.199638 -0.594541
v 0.0612668 -0.251954 -0.686701
v -0.061269 -0.251954 -0.687178
v -0.00679437 -0.238335 -0.687927
v -0.061269 -0.238335 -0.688132
v -0.0748922 -0.238335 -0.687996
v -0.0748922 -0.224716 -0.688166
v -0.061269 -0.199638 -0.688336
v 0.0848095 -0.357327 -0.340401
v 0.0748901 -0.352524 -0.592395
v 0.0748901 -0.349155 -0.606018
v 0.0748901 -0.34395 -0.619607
v 0.0748901 -0.340662 -0.626794
v 0.0748901 -0.336391 -0.633605
v 0.0748901 -0.329589 -0.643516
v 0.0748901 -0.358358 -0.340401
v 0.0748901 -0.354361 -0.576422
v 0.0748901 -0.353926 -0.5832
v 0.0067922 -0.364289 -0.340401
v 0.0476619 -0.323739 -0.650362
v 0.0612668 -0.316905 -0.657105
v 0.0476619 -0.308782 -0.663951
v 0.0612668 -0.301932 -0.668855
v 0.0204154 -0.292794 -0.674202
v 0.0612668 -0.292794 -0.674032
v -0.0340408 -0.282205 -0.679481
v -0.0476641 -0.275484 -0.682036
v 0.0067922 -0.275194 -0.681933
v -0.061269 -0.265573 -0.684794
v -0.00679437 -0.265573 -0.68459
v -0.0824098 -0.235724 -0.340401
v -0.0857285 -0.199638 -0.596346
v -0.0748922 -0.265573 -0.684794
v -0.0748922 -0.251954 -0.68711
v -0.0847934 -0.251954 -0.683977
v -0.0850134 -0.238335 -0.684385
v -0.0748922 -0.199638 -0.688166
v -0.0850134 -0.224716 -0.68442
v -0.0833999 -0.199638 -0.685033
v -0.0204176 -0.352572 -0.592395
v -0.061269 -0.3493 -0.606018
v 0.0476619 -0.349188 -0.606018
v -0.061269 -0.344175 -0.619607
v 0.0476619 -0.343998 -0.619607
v -0.00679437 -0.340742 -0.62693
v -0.0476641 -0.336568 -0.63381
v 0.0340387 -0.336455 -0.633673
v 0.0204154 -0.32967 -0.643618
v -0.061269 -0.323948 -0.650566
v -0.0204176 -0.323868 -0.650498
v 0.0204154 -0.323787 -0.65043
v -0.00679437 -0.354361 -0.576524
v -0.061269 -0.353942 -0.583404
v -0.0476641 -0.353942 -0.58337
v 0.0612668 -0.353926 -0.583234
v -0.061269 -0.352588 -0.592395
v -0.00679437 -0.364289 -0.340401
v -0.061269 -0.354361 -0.576592
v 0.0340387 -0.316954 -0.657173
v -0.0204176 -0.308959 -0.664087
v 0.0340387 -0.308814 -0.663985
v -0.0476641 -0.302223 -0.669059
v -0.061269 -0.292794 -0.674509
v -0.00679437 -0.292794 -0.674304
v -0.061269 -0.28235 -0.679515
v -0.0748922 -0.275581 -0.68207
v -0.0877637 -0.238431 -0.340401
v -0.0886255 -0.199638 -0.606018
v -0.0826848 -0.274517 -0.681661
v -0.0838949 -0.265573 -0.682853
v -0.087232 -0.265573 -0.6741
v -0.0881488 -0.251954 -0.6741
v -0.0883504 -0.238335 -0.6741
v -0.0850134 -0.199638 -0.68442
v -0.0748922 -0.34901 -0.606018
v -0.0748922 -0.344159 -0.619607
v -0.0748922 -0.340791 -0.627032
v -0.061269 -0.340791 -0.626998
v -0.0476641 -0.340774 -0.626998
v -0.0748922 -0.336584 -0.633844
v -0.061269 -0.329783 -0.643754
v -0.0340408 -0.323884 -0.650532
v -0.0748922 -0.329783 -0.643754
v -0.0748922 -0.323932 -0.650566
v -0.0748922 -0.317131 -0.657344
v -0.061269 -0.317131 -0.657344
v -0.0748922 -0.354345 -0.576558
v -0.0748922 -0.353878 -0.583336
v -0.0748922 -0.352266 -0.592395
v -0.0783026 -0.358116 -0.340401
v -0.0819881 -0.354248 -0.574992
v -0.0204176 -0.31705 -0.657275
v -0.061269 -0.309072 -0.664155
v -0.0748922 -0.302271 -0.669094
v -0.0748922 -0.292794 -0.674304
v -0.0748922 -0.282383 -0.679311
v -0.0897256 -0.244298 -0.340401
v -0.0885155 -0.199638 -0.63541
v -0.0913208 -0.251954 -0.340401
v -0.0829965 -0.301384 -0.66848
v -0.084335 -0.292794 -0.67066
v -0.0849584 -0.279111 -0.674713
v -0.0877087 -0.292794 -0.660477
v -0.0884055 -0.279191 -0.660477
v -0.0883504 -0.199638 -0.6741
v -0.0913025 -0.333651 -0.340401
v -0.0835649 -0.342289 -0.619607
v -0.0820064 -0.340678 -0.626828
v -0.0835466 -0.328783 -0.642528
v -0.0836932 -0.315809 -0.656117
v -0.0748922 -0.309088 -0.664155
v -0.0842433 -0.35665 -0.340401
v -0.0821347 -0.354345 -0.565149
v -0.0856735 -0.34727 -0.565149
v -0.0846834 -0.348527 -0.579215
v -0.0851784 -0.34619 -0.592395
v -0.0850684 -0.344594 -0.606018
v -0.0884055 -0.199638 -0.662657
v -0.0850134 -0.306107 -0.660579
v -0.0882771 -0.306413 -0.646854
v -0.0885705 -0.320032 -0.619607
v -0.0886988 -0.34727 -0.340401
v -0.0885338 -0.333651 -0.606018
v -0.0869936 -0.333651 -0.619607
v -0.0843533 -0.333457 -0.632107
v -0.0853618 -0.320225 -0.64699
v -0.0882038 -0.320032 -0.633231
f 1 2 6
f 1 6 3
f 1 3 8
f 1 8 21
f 1 21 38
f 1 38 59
f 1 59 66
f 1 66 99
f 1 99 128
f 1 128 130
f 1 130 165
f 1 165 196
f 1 196 209
f 1 209 189
f 1 189 159
f 1 159 123
f 1 123 92
f 1 92 91
f 1 91 90
f 1 90 89
f 1 89 88
f 1 88 87
f 1 87 85
f 1 85 60
f 1 60 40
f 1 40 24
f 1 24 22
f 1 22 9
f 1 9 4
f 1 4 7
f 1 7 2
f 2 5 6
f 2 7 5
f 3 6 8
f 4 9 10
f 4 10 11
f 4 11 20
f 4 20 7
f 5 12 13
f 5 13 6
f 5 7 12
f 6 13 14
f 6 14 8
f 7 15 16
f 7 16 17
f 7 17 18
f 7 18 19
f 7 19 12
f 7 20 15
f 8 14 21
f 9 22 10
f 10 23 39
f 10 39 41
f 10 41 61
f 10 61 86
f 10 86 122
f 10 122 158
f 10 158 188
f 10 188 190
f 10 190 197
f 10 197 213
f 10 213 203
f 10 203 181
f 10 181 148
f 10 148 110
f 10 110 107
f 10 107 100
f 10 100 69
f 10 69 57
f 10 57 36
f 10 36 20
f 10 20 11
f 10 22 24
f 10 24 23
f 12 19 25
f 12 25 13
f 13 25 26
f 13 26 14
f 14 26 27
f 14 27 38
f 14 38 21
f 15 20 28
f 15 28 29
f 15 29 16
f 16 30 31
f 16 31 17
f 16 29 32
f 16 32 30
f 17 31 18
f 18 33 34
f 18 34 35
f 18 35 25
f 18 25 19
f 18 31 33
f 20 36 37
f 20 37 28
f 23 24 39
f 24 40 41
f 24 41 39
f 25 35 26
f 26 42 27
f 26 35 43
f 26 43 42
f 27 42 62
f 27 62 44
f 27 44 59
f 27 59 38
f 28 37 29
f 29 37 45
f 29 45 46
f 29 46 47
f 29 47 48
f 29 48 49
f 29 49 50
f 29 50 32
f 30 51 31
f 30 32 49
f 30 49 51
f 31 51 52
f 31 52 53
f 31 53 54
f 31 54 33
f 32 50 49
f 33 54 34
f 34 54 55
f 34 55 35
f 35 55 56
f 35 56 43
f 36 57 45
f 36 45 58
f 36 58 37
f 37 58 45
f 40 60 41
f 41 60 85
f 41 85 61
f 42 43 63
f 42 63 93
f 42 93 62
f 43 56 63
f 44 62 64
f 44 64 65
f 44 65 66
f 44 66 59
f 45 67 46
f 45 57 67
f 46 67 68
f 46 68 57
f 46 57 69
f 46 69 47
f 47 69 48
f 48 69 70
f 48 70 49
f 49 71 72
f 49 72 73
f 49 73 51
f 49 70 74
f 49 74 75
f 49 75 71
f 51 73 76
f 51 76 52
f 52 76 53
f 53 76 77
f 53 77 78
f 53 78 54
f 54 79 80
f 54 80 55
f 54 78 81
f 54 81 79
f 55 82 83
f 55 83 84
f 55 84 63
f 55 63 56
f 55 80 82
f 57 68 67
f 61 85 87
f 61 87 88
f 61 88 89
f 61 89 90
f 61 90 91
f 61 91 92
f 61 92 86
f 62 93 64
f 63 84 93
f 64 93 94
f 64 94 95
f 64 95 65
f 65 95 96
f 65 96 97
f 65 97 98
f 65 98 128
f 65 128 99
f 65 99 66
f 69 100 70
f 70 100 74
f 71 101 102
f 71 102 72
f 71 75 101
f 72 102 73
f 73 103 104
f 73 104 105
f 73 105 106
f 73 106 76
f 73 102 103
f 74 100 107
f 74 107 75
f 75 108 109
f 75 109 101
f 75 107 110
f 75 110 108
f 76 106 77
f 77 111 78
f 77 106 111
f 78 112 152
f 78 152 113
f 78 113 81
f 78 111 112
f 79 114 115
f 79 115 116
f 79 116 80
f 79 81 113
f 79 113 152
f 79 152 114
f 80 116 82
f 82 117 118
f 82 118 119
f 82 119 83
f 82 116 117
f 83 119 120
f 83 120 121
f 83 121 84
f 84 121 94
f 84 94 93
f 86 92 122
f 92 123 122
f 94 121 120
f 94 120 124
f 94 124 125
f 94 125 96
f 94 96 95
f 96 125 97
f 97 125 126
f 97 126 127
f 97 127 98
f 98 127 129
f 98 129 130
f 98 130 128
f 101 131 132
f 101 132 133
f 101 133 102
f 101 109 131
f 102 133 134
f 102 134 135
f 102 135 103
f 103 135 104
f 104 135 136
f 104 136 137
f 104 137 138
f 104 138 105
f 105 138 139
f 105 139 106
f 106 139 140
f 106 140 141
f 106 141 142
f 106 142 111
f 108 143 144
f 108 144 145
f 108 145 109
f 108 110 143
f 109 145 144
f 109 144 146
f 109 146 147
f 109 147 131
f 110 148 149
f 110 149 143
f 111 142 150
f 111 150 112
f 112 150 151
f 112 151 152
f 114 153 154
f 114 154 155
f 114 155 115
f 114 152 151
f 114 151 153
f 115 155 156
f 115 156 117
f 115 117 116
f 117 156 118
f 118 156 157
f 118 157 120
f 118 120 119
f 120 157 124
f 122 123 159
f 122 159 158
f 124 157 160
f 124 160 125
f 125 160 161
f 125 161 126
f 126 161 162
f 126 162 163
f 126 163 127
f 127 163 164
f 127 164 129
f 129 164 196
f 129 196 165
f 129 165 130
f 131 147 132
f 132 147 166
f 132 166 167
f 132 167 134
f 132 134 133
f 134 167 168
f 134 168 169
f 134 169 170
f 134 170 136
f 134 136 135
f 136 170 137
f 137 170 168
f 137 168 171
f 137 171 172
f 137 172 138
f 138 172 139
f 139 172 140
f 140 173 141
f 140 172 174
f 140 174 175
f 140 175 176
f 140 176 177
f 140 177 173
f 141 173 142
f 142 173 183
f 142 183 150
f 143 149 144
f 144 149 178
f 144 178 179
f 144 179 147
f 144 147 146
f 147 180 166
f 147 179 180
f 148 181 182
f 148 182 178
f 148 178 149
f 150 183 184
f 150 184 151
f 151 184 153
f 153 185 154
f 153 184 185
f 154 185 186
f 154 186 187
f 154 187 156
f 154 156 155
f 156 187 157
f 157 187 160
f 158 159 188
f 159 189 190
f 159 190 188
f 160 187 186
f 160 186 191
f 160 191 192
f 160 192 161
f 161 192 193
f 161 193 162
f 162 192 194
f 162 194 163
f 162 193 192
f 163 194 195
f 163 195 164
f 164 195 197
f 164 197 190
f 164 190 196
f 166 180 182
f 166 182 198
f 166 198 199
f 166 199 167
f 167 199 168
f 168 170 169
f 168 199 171
f 171 199 174
f 171 174 172
f 173 177 183
f 174 199 200
f 174 200 175
f 175 200 201
f 175 201 176
f 176 201 202
f 176 202 177
f 177 202 184
f 177 184 183
f 178 182 179
f 179 182 180
f 181 203 204
f 181 204 182
f 182 204 205
f 182 205 206
f 182 206 207
f 182 207 208
f 182 208 198
f 184 202 185
f 185 202 191
f 185 191 186
f 189 209 190
f 190 209 196
f 191 202 201
f 191 201 210
f 191 210 192
f 192 210 194
f 194 210 211
f 194 211 195
f 195 211 212
f 195 212 197
f 197 212 214
f 197 214 213
f 198 215 216
f 198 216 200
f 198 200 199
f 198 208 215
f 200 216 217
f 200 217 201
f 201 217 210
f 203 213 205
f 203 205 204
f 205 214 207
f 205 207 206
f 205 213 214
f 207 214 208
f 208 214 215
f 210 217 211
f 211 217 218
f 211 218 214
f 211 214 212
f 214 218 215
f 215 218 217
f 215 217 216
