v -0.484934 0.387378 0.33363
v -0.484714 0.510626 0.33363
v -0.444444 0.387378 0.33363
v -0.479783 0.387378 0.346535
v -0.479482 0.510683 0.347283
v -0.484701 0.510683 0.333673
v -0.484523 0.524244 0.33363
v -0.466647 0.524301 0.33363
v -0.433157 0.387378 0.351471
v -0.479482 0.387378 0.347283
v -0.478852 0.523426 0.348586
v -0.476811 0.387378 0.353736
v -0.473989 0.387378 0.360551
v -0.46851 0.387378 0.373777
v -0.464196 0.510683 0.384183
v -0.476647 0.518317 0.354099
v -0.484509 0.524301 0.333673
v -0.480509 0.533929 0.33363
v -0.471743 0.533958 0.33363
v -0.345014 0.527415 0.53082
v -0.345014 0.524301 0.529517
v -0.349548 0.387378 0.485716
v -0.464154 0.524301 0.384097
v -0.476537 0.527386 0.353992
v -0.452032 0.387378 0.41354
v -0.451745 0.510683 0.414224
v -0.45169 0.524301 0.414138
v -0.478441 0.532882 0.344933
v -0.480482 0.533972 0.333673
v -0.471743 0.533972 0.333673
v -0.345014 0.53347 0.537764
v -0.35063 0.533097 0.527786
v -0.345014 0.387378 0.500651
v -0.463757 0.531992 0.383114
v -0.451745 0.387378 0.414224
v -0.448745 0.387378 0.42104
v -0.448553 0.510683 0.42104
v -0.448444 0.524301 0.420954
v -0.450895 0.532667 0.412215
v -0.465401 0.533312 0.374525
v -0.452786 0.533815 0.401746
v -0.429267 0.533815 0.442662
v -0.38827 0.5338 0.496869
v -0.360245 0.533642 0.523684
v -0.346562 0.533542 0.537187
v -0.345014 0.532839 0.54802
v -0.345014 0.387378 0.551866
v -0.444964 0.387378 0.428561
v -0.444567 0.510683 0.428988
v -0.444389 0.524301 0.428988
v -0.437581 0.53271 0.438154
v -0.440006 0.533714 0.428988
v -0.424925 0.53314 0.453089
v -0.383819 0.533068 0.507167
v -0.37034 0.532781 0.524303
v -0.375176 0.533599 0.511291
v -0.347274 0.532667 0.547165
v -0.345014 0.524301 0.551609
v -0.345014 0.510683 0.551866
v -0.347274 0.415374 0.550135
v -0.354205 0.387378 0.544815
v -0.444745 0.387378 0.428988
v -0.444745 0.388138 0.428988
v -0.438595 0.510683 0.439479
v -0.43854 0.524301 0.439415
v -0.409022 0.531605 0.477233
v -0.396434 0.532509 0.492211
v -0.367847 0.531275 0.53129
v -0.359547 0.532408 0.536674
v -0.354095 0.531117 0.544729
v -0.345014 0.514185 0.551802
v -0.35415 0.524301 0.544772
v -0.347274 0.510683 0.550135
v -0.361012 0.387378 0.538298
v -0.354205 0.510683 0.544815
v -0.438951 0.387378 0.438902
v -0.438595 0.387378 0.439479
v -0.404105 0.510683 0.484455
v -0.409282 0.524301 0.477575
v -0.367957 0.524301 0.53144
v -0.360971 0.524301 0.538234
v -0.361012 0.510683 0.538298
v -0.367998 0.387378 0.531482
v -0.404105 0.387378 0.484455
v -0.385641 0.387378 0.508514
v -0.373518 0.510683 0.524303
v -0.367998 0.510683 0.531482
v -0.373518 0.415374 0.524303
v -0.373874 0.387378 0.523833
f 1 2 7
f 1 7 18
f 1 18 19
f 1 19 8
f 1 8 3
f 1 3 9
f 1 9 22
f 1 22 33
f 1 33 47
f 1 47 61
f 1 61 74
f 1 74 83
f 1 83 89
f 1 89 85
f 1 85 84
f 1 84 77
f 1 77 76
f 1 76 62
f 1 62 48
f 1 48 36
f 1 36 35
f 1 35 25
f 1 25 14
f 1 14 13
f 1 13 12
f 1 12 10
f 1 10 4
f 1 4 5
f 1 5 6
f 1 6 2
f 2 6 17
f 2 17 7
f 3 8 9
f 4 10 5
f 5 11 6
f 5 10 12
f 5 12 13
f 5 13 14
f 5 14 15
f 5 15 16
f 5 16 11
f 6 11 17
f 7 17 18
f 8 19 20
f 8 20 21
f 8 21 22
f 8 22 9
f 11 16 23
f 11 23 24
f 11 24 17
f 14 25 15
f 15 25 26
f 15 26 16
f 16 26 27
f 16 27 23
f 17 24 28
f 17 28 18
f 18 28 29
f 18 29 19
f 19 29 30
f 19 30 31
f 19 31 32
f 19 32 20
f 20 32 31
f 20 31 46
f 20 46 58
f 20 58 71
f 20 71 59
f 20 59 47
f 20 47 33
f 20 33 21
f 21 33 22
f 23 27 24
f 24 27 34
f 24 34 28
f 25 35 26
f 26 35 36
f 26 36 37
f 26 37 27
f 27 37 38
f 27 38 39
f 27 39 34
f 28 34 39
f 28 39 40
f 28 40 29
f 29 40 41
f 29 41 42
f 29 42 43
f 29 43 30
f 30 43 44
f 30 44 45
f 30 45 31
f 31 45 46
f 36 48 49
f 36 49 37
f 37 49 38
f 38 49 50
f 38 50 39
f 39 50 51
f 39 51 52
f 39 52 41
f 39 41 40
f 41 52 42
f 42 52 53
f 42 53 43
f 43 53 54
f 43 54 55
f 43 55 46
f 43 46 56
f 43 56 45
f 43 45 44
f 45 56 46
f 46 57 58
f 46 55 57
f 47 59 73
f 47 73 60
f 47 60 61
f 48 62 63
f 48 63 49
f 49 63 64
f 49 64 65
f 49 65 50
f 50 65 51
f 51 65 66
f 51 66 67
f 51 67 54
f 51 54 53
f 51 53 52
f 54 68 55
f 54 67 68
f 55 68 69
f 55 69 57
f 57 69 70
f 57 70 58
f 58 70 71
f 59 71 70
f 59 70 72
f 59 72 73
f 60 73 75
f 60 75 61
f 61 75 82
f 61 82 74
f 62 76 63
f 63 76 64
f 64 76 77
f 64 77 84
f 64 84 78
f 64 78 79
f 64 79 65
f 65 79 68
f 65 68 66
f 66 68 67
f 68 80 70
f 68 70 69
f 68 79 80
f 70 80 81
f 70 81 72
f 72 81 82
f 72 82 75
f 72 75 73
f 74 82 87
f 74 87 83
f 78 84 85
f 78 85 86
f 78 86 80
f 78 80 79
f 80 86 87
f 80 87 82
f 80 82 81
f 83 87 86
f 83 86 88
f 83 88 89
f 85 89 88
f 85 88 86
