v 0.0954759 0.292793 -0.534389
v 0.0954576 0.209292 -0.534389
v 0.0954576 0.306405 -0.534389
v 0.0950005 0.292793 -0.34042
v 0.0950005 0.224712 -0.34042
v 0.0953479 0.204243 -0.515856
v 0.0953662 0.204165 -0.524306
v 0.0953845 0.203827 -0.534389
v 0.0953845 0.313301 -0.534389
v 0.0953296 0.313236 -0.513331
v 0.0953114 0.312637 -0.504254
v 0.0948542 0.306405 -0.34042
v 0.0947811 0.212051 -0.34042
v 0.0947445 0.211088 -0.34042
v 0.0921847 0.203554 -0.34042
v 0.0907219 0.198232 -0.534389
v 0.089058 0.198843 -0.34042
v 0.0935926 0.314186 -0.534389
v 0.0893322 0.31904 -0.34042
v 0.0889666 0.197074 -0.534389
v 0.0828595 0.197386 -0.34042
v 0.0748873 0.19196 -0.534389
v 0.0885094 0.316684 -0.534389
v 0.0748873 0.322228 -0.34042
v 0.0849805 0.317556 -0.534389
v 0.0748873 0.31999 -0.534389
v 0.0748873 0.195968 -0.34042
v 0.0612652 0.191921 -0.534389
v 0.00679495 0.19291 -0.34042
v 0.00679495 0.324843 -0.34042
v -0.0648081 0.31999 -0.534389
v -0.00697346 0.192025 -0.534389
v -0.0068089 0.19291 -0.34042
v -0.0068089 0.324843 -0.34042
v -0.0749013 0.319977 -0.534389
v -0.047657 0.19209 -0.534389
v -0.0749013 0.195968 -0.34042
v -0.0749013 0.192402 -0.534389
v -0.0612791 0.192129 -0.534389
v -0.0531973 0.192103 -0.534389
v -0.0749013 0.322228 -0.34042
v -0.0851773 0.31658 -0.534389
v -0.0816666 0.320289 -0.34042
v -0.0869143 0.199416 -0.34042
v -0.085287 0.197711 -0.534389
v -0.0887794 0.306405 -0.534389
v -0.0892914 0.313054 -0.34042
v -0.0872069 0.318454 -0.34042
v -0.0909004 0.211088 -0.34042
v -0.0862378 0.200613 -0.534389
v -0.0888891 0.292793 -0.534389
v -0.0913027 0.292793 -0.34042
v -0.0912295 0.300718 -0.34042
v -0.0911015 0.306405 -0.34042
v -0.091321 0.224712 -0.34042
v -0.0888891 0.211088 -0.534389
v -0.091321 0.28712 -0.34042
f 1 2 8
f 1 8 16
f 1 16 20
f 1 20 22
f 1 22 28
f 1 28 32
f 1 32 36
f 1 36 40
f 1 40 39
f 1 39 38
f 1 38 45
f 1 45 50
f 1 50 56
f 1 56 51
f 1 51 46
f 1 46 42
f 1 42 35
f 1 35 31
f 1 31 26
f 1 26 25
f 1 25 23
f 1 23 18
f 1 18 9
f 1 9 3
f 1 3 4
f 1 4 5
f 1 5 2
f 2 6 7
f 2 7 8
f 2 5 6
f 3 9 10
f 3 10 11
f 3 11 4
f 4 12 19
f 4 19 24
f 4 24 30
f 4 30 34
f 4 34 41
f 4 41 43
f 4 43 48
f 4 48 47
f 4 47 54
f 4 54 53
f 4 53 52
f 4 52 57
f 4 57 55
f 4 55 49
f 4 49 44
f 4 44 37
f 4 37 33
f 4 33 29
f 4 29 27
f 4 27 21
f 4 21 17
f 4 17 15
f 4 15 14
f 4 14 13
f 4 13 5
f 4 11 12
f 5 13 6
f 6 8 7
f 6 13 14
f 6 14 15
f 6 15 8
f 8 15 17
f 8 17 16
f 9 18 19
f 9 19 10
f 10 19 12
f 10 12 11
f 16 17 20
f 17 21 22
f 17 22 20
f 18 23 19
f 19 23 25
f 19 25 26
f 19 26 24
f 21 27 22
f 22 27 29
f 22 29 28
f 24 26 30
f 26 31 34
f 26 34 30
f 28 29 33
f 28 33 32
f 31 35 34
f 32 33 36
f 33 37 38
f 33 38 39
f 33 39 40
f 33 40 36
f 34 35 41
f 35 42 43
f 35 43 41
f 37 44 38
f 38 44 45
f 42 46 47
f 42 47 48
f 42 48 43
f 44 49 45
f 45 49 50
f 46 51 52
f 46 52 53
f 46 53 54
f 46 54 47
f 49 55 56
f 49 56 50
f 51 57 52
f 51 56 55
f 51 55 57
