v 0.436274 -0.121013 0.717532
v 0.436188 -0.0431927 0.717532
v 0.435162 -0.071293 0.782558
v 0.433794 -0.207492 0.821402
v 0.43294 -0.240851 0.782558
v 0.431828 -0.188475 -0.477738
v 0.432769 -0.129672 -0.51008
v 0.433452 -0.0777736 -0.561929
v 0.434478 -6.39345e-06 -0.570656
v 0.434564 0.0345214 -0.51008
v 0.432085 0.132421 0.81952
v 0.435846 -0.00855866 0.665683
v 0.435248 0.0388772 0.713254
v 0.433538 0.0178949 0.80891
v 0.433367 -0.139392 0.823284
v 0.43123 -0.0777736 0.841594
v 0.422595 -0.13833 0.855112
v 0.391989 -0.207014 0.862299
v 0.355228 -0.266349 0.823113
v 0.415585 -0.259709 0.354416
v 0.432427 -0.242285 0.631117
v 0.432256 -0.238939 0.440832
v 0.427896 -0.233467 -0.561929
v 0.422681 -0.236336 -0.765219
v 0.433111 0.00700541 -0.714397
v 0.431315 -0.233467 0.0429787
v 0.431914 0.0704303 -0.748621
v 0.432256 0.110695 -0.618227
v 0.434222 0.0821167 -0.414937
v 0.415927 0.242804 0.752269
v 0.418492 0.217253 0.835776
v 0.415585 0.138317 0.865037
v 0.431914 0.155847 -0.427942
v 0.428067 0.220015 -0.412884
v 0.398316 -0.103749 0.865037
v -0.389054 -0.159153 0.867775
v -0.216106 -0.260505 0.848781
v -0.138224 -0.260718 0.848952
v 0.2075 -0.265817 0.838685
v 0.324195 -0.0929127 0.868289
v 0.250759 -0.103749 0.869658
v 0.133465 -0.10104 0.87154
v -0.0128948 -0.0972685 0.87308
v -0.129675 -0.146935 0.870684
v 0.283929 -0.269376 0.813873
v 0.413277 -0.259284 0.250718
v 0.419859 -0.246004 -0.570656
v -0.394525 -0.245579 -0.743658
v 0.404984 -0.228262 -0.842736
v 0.42687 0.0388772 -0.838801
v 0.430546 0.0269784 -0.792427
v 0.428152 0.216191 -0.752385
v 0.431059 0.134015 -0.702589
v 0.429092 0.0950779 -0.817068
v 0.431914 0.143417 -0.531812
v 0.393443 0.249869 0.739264
v 0.41644 0.243388 0.665683
v 0.406437 0.248328 0.665683
v -0.337247 0.22623 0.865037
v 0.406437 0.146976 0.866064
v 0.426357 0.233455 -0.613778
v 0.389083 0.0431799 0.866749
v -0.328612 -0.142633 0.870342
v -0.394867 0.173961 0.86692
v -0.404528 0.0942811 0.865037
v -0.413162 -0.236177 0.823969
v -0.318268 -0.261143 0.834065
v -0.224741 -0.26518 0.817124
v 0.14475 -0.266986 0.828418
v 0.28316 -0.0237509 0.869829
v 0.181511 -0.0150924 0.872224
v 0.0496845 -0.0583318 0.873422
v -0.0820568 -0.103749 0.872909
v -0.0777822 -0.0777736 0.873935
v 0.114486 -0.271395 0.76305
v 0.179374 -0.271182 0.747992
v 0.181597 -0.264702 0.146848
v 0.139279 -0.259443 -0.328864
v 0.017198 -0.258752 -0.388927
v -0.103686 -0.256734 -0.458231
v -0.233375 -0.254928 -0.458231
v -0.354516 -0.250572 -0.561929
v -0.393414 -0.248022 -0.618227
v -0.397689 -0.24866 -0.484241
v -0.421626 -0.233467 -0.717648
v -0.41453 -0.216257 -0.825624
v -0.400681 -0.170786 -0.868404
v 0.216135 -0.18157 -0.87388
v 0.389852 0.166418 -0.870287
v 0.413106 0.225965 -0.842052
v 0.397717 0.25959 -0.787978
v 0.419774 0.247531 -0.613778
v -0.406323 0.252843 0.734815
v 0.397717 0.251781 0.531696
v 0.380448 0.255074 0.432105
v 0.256145 0.260971 0.244215
v 0.195617 0.259855 0.370502
v 0.095593 0.261821 0.307872
v -0.0431585 0.0431799 0.873251
v -0.418292 0.223574 0.8303
v 0.0388271 0.0107769 0.873935
v 0.0993546 -6.39345e-06 0.873593
v -0.242095 -0.00430909 0.872395
v -0.155579 -0.0691151 0.873935
v -0.239958 -0.0993933 0.872224
v -0.154724 0.0113081 0.873251
v -0.429833 -0.0669903 0.747992
v -0.425644 -0.225871 0.724206
v -0.419489 -0.247279 0.67441
v -0.345881 -0.262311 0.752269
v -0.311258 -0.264011 0.769553
v -0.238847 -0.266295 0.771777
v -0.144807 -0.268526 0.760997
v -0.0258039 -0.0431927 0.874107
v -0.0626504 -0.270386 0.717532
v 0.0366899 -0.271182 0.721981
v -0.0172548 -0.271023 0.66363
v 0.0258325 -0.270545 0.579268
v 0.0820855 -0.263958 -0.0343674
v -7.11494e-05 -0.259655 -0.326126
v -0.156092 -0.259443 -0.29464
v -0.146944 -0.257318 -0.40621
v -0.208669 -0.259443 -0.208225
v -0.259365 -0.257159 -0.267946
v -0.328527 -0.255725 -0.15552
v -0.417693 -0.244676 -0.0949437
v -0.41889 -0.24611 0.31985
v -0.432911 -0.137799 -0.743658
v -0.424533 -0.233467 0.31985
v -0.432825 0.0183199 -0.832469
v -0.433509 -0.0756488 -0.808512
v -0.433338 0.077814 -0.835036
v -0.40316 0.0999649 -0.866009
v -0.36751 -0.0658748 -0.870458
v -0.285354 -0.0864321 -0.871142
v -0.0950514 0.0604969 -0.873024
v 0.129618 0.112342 -0.87388
v 0.216135 0.125356 -0.874051
v 0.287434 0.105914 -0.87388
v 0.33719 0.198874 -0.870458
v 0.164242 0.264848 -0.821518
v 0.262642 0.264902 -0.810737
v -0.172848 0.260546 -0.849239
v 0.23879 0.268248 -0.721926
v 0.378567 0.262989 -0.659296
v 0.0474617 0.263042 0.228986
v -0.0529044 0.264158 0.127341
v -0.103686 0.269257 -0.40621
v -0.393414 0.256509 0.401988
v -0.406323 0.254809 0.527418
v -0.415214 0.25943 -0.205145
v -0.416924 0.260333 -0.354361
v -0.432312 0.242113 0.06916
v -0.43009 0.228727 0.727286
v 0.250759 0.262033 0.164303
v 0.263668 0.267717 -0.664601
v 0.22477 0.266601 -0.302512
v 0.22477 0.262458 0.164303
v 0.190231 0.261502 0.268001
v 0.0949946 0.263733 0.164303
v -0.0647877 0.0042963 0.873935
v -0.432654 0.103365 0.712912
v -0.432483 -0.0554634 0.676292
v -0.429577 -0.146935 0.708976
v -0.427012 -0.21615 0.579268
v -0.425046 -0.233467 0.544701
v -0.311258 -0.263427 0.67441
v -0.268085 -0.264436 0.544701
v -0.222604 -0.26672 0.622561
v -0.192853 -0.267942 0.699222
v -0.0925721 -0.270067 0.636593
v -0.029138 -0.270704 0.600829
v -0.0345239 -0.269801 0.510135
v 0.0355785 -0.265764 0.118614
v -0.0734222 -0.265499 0.129565
v -0.0799195 -0.266295 0.207425
v -0.112321 -0.266455 0.276557
v -0.177208 -0.265658 0.328406
v -0.198837 -0.26433 0.250718
v -0.24637 -0.262418 0.200922
v -0.435561 -0.0658748 -0.72415
v -0.436416 0.0075366 -0.753925
v -0.436159 0.077814 -0.786951
v -0.435647 0.157759 -0.799785
v -0.419318 0.244344 -0.821346
v -0.391277 0.21465 -0.865153
v -0.337247 0.16424 -0.870629
v -0.337247 0.129712 -0.8708
v -0.324252 0.0474826 -0.870971
v -0.216106 0.0431799 -0.872169
v -0.259365 -0.00861178 -0.871656
v -0.177208 0.104268 -0.87234
v -0.0258894 0.129712 -0.873024
v 0.103715 0.159937 -0.872682
v -0.337247 0.181557 -0.870287
v -0.105823 0.26267 -0.839485
v -0.0301639 0.267133 -0.804234
v 0.185871 0.267398 -0.782502
v -0.311258 0.266601 -0.786951
v -0.183705 0.266283 -0.808512
v 0.163131 0.269417 -0.722953
v 0.198866 0.269098 -0.622505
v 0.0474617 0.265433 0.0429787
v 0.0431017 0.264105 0.146848
v 0.0269439 0.267345 -0.14474
v -0.0258894 0.267823 -0.216096
v 0.0258325 0.268407 -0.250663
v -0.00853473 0.270904 -0.544646
v -0.0642747 0.27016 -0.490743
v -0.294672 0.267611 -0.724493
v -0.164213 0.268195 -0.40621
v -0.406323 0.257677 0.181586
v -0.25073 0.265486 -0.302512
v -0.389054 0.261236 -0.18153
v -0.393414 0.265167 -0.739209
v -0.418976 0.261714 -0.735102
v -0.43274 0.221928 0.406266
v -0.432141 0.216191 0.6484
v -0.434193 0.226124 -0.531812
v -0.433509 0.227187 -0.172803
v 0.190231 0.266654 -0.207369
v 0.198866 0.26453 2.76817e-05
v 0.246399 0.267876 -0.600944
v 0.211775 0.26777 -0.417162
v 0.198866 0.26352 0.0948279
v 0.0993546 0.26607 -0.0333406
v 0.112349 0.265061 0.0429787
v 0.112349 0.263786 0.146848
v -0.432825 0.203176 0.548979
v -0.433766 0.0766984 0.557706
v -0.432996 0.0345214 0.672186
v -0.433766 0.0258629 0.475569
v -0.4371 0.0604969 -0.579212
v -0.436929 0.0172575 -0.691638
v -0.220466 -0.266349 0.553428
v -0.108046 -0.269005 0.527418
v -0.0647877 -0.268739 0.432105
v -0.0864168 -0.267783 0.362972
v -0.196101 -0.266402 0.479847
v -0.436929 0.0907752 -0.760941
v -0.437014 0.0950779 -0.691638
v -0.261587 0.125356 -0.871656
v -0.135061 0.268514 -0.776
v 0.0723395 0.268036 -0.782502
v 0.0939687 0.270213 -0.711145
v -0.168573 0.269257 -0.708921
v 0.0345526 0.271276 -0.622505
v 0.112349 0.270426 -0.613778
v 0.154753 0.269629 -0.539855
v 0.0431872 0.268407 -0.250663
v 0.0388271 0.269204 -0.345805
v 0.0949946 0.269576 -0.423493
v -0.432996 0.216191 0.337133
v 0.172877 0.266229 -0.133788
v -0.0399098 0.270107 -0.719701
v 0.021558 0.270532 -0.711145
f 1 2 3
f 1 3 4
f 1 4 5
f 1 5 6
f 1 6 7
f 1 7 8
f 1 8 9
f 1 9 10
f 1 10 2
f 2 11 3
f 2 10 12
f 2 12 13
f 2 13 11
f 3 11 14
f 3 14 4
f 4 14 15
f 4 15 16
f 4 16 17
f 4 17 18
f 4 18 5
f 5 18 19
f 5 19 20
f 5 20 21
f 5 21 22
f 5 22 6
f 6 23 24
f 6 24 25
f 6 25 8
f 6 8 7
f 6 22 26
f 6 26 23
f 8 25 9
f 9 25 10
f 10 25 27
f 10 27 28
f 10 28 29
f 10 29 12
f 11 30 31
f 11 31 32
f 11 32 16
f 11 16 15
f 11 15 14
f 11 13 33
f 11 33 34
f 11 34 30
f 12 29 13
f 13 29 33
f 16 32 17
f 17 32 35
f 17 35 18
f 18 36 37
f 18 37 38
f 18 38 39
f 18 39 19
f 18 35 40
f 18 40 41
f 18 41 42
f 18 42 43
f 18 43 44
f 18 44 36
f 19 39 45
f 19 45 46
f 19 46 20
f 20 46 47
f 20 47 21
f 21 47 23
f 21 23 22
f 22 23 26
f 23 47 24
f 24 48 49
f 24 49 50
f 24 50 51
f 24 51 25
f 24 47 48
f 25 51 27
f 27 52 53
f 27 53 28
f 27 51 54
f 27 54 52
f 28 53 55
f 28 55 29
f 29 55 33
f 30 56 31
f 30 34 57
f 30 57 58
f 30 58 56
f 31 56 59
f 31 59 60
f 31 60 32
f 32 60 35
f 33 55 52
f 33 52 34
f 34 52 61
f 34 61 57
f 35 60 62
f 35 62 40
f 36 63 64
f 36 64 65
f 36 65 66
f 36 66 67
f 36 67 37
f 36 44 63
f 37 67 68
f 37 68 69
f 37 69 39
f 37 39 38
f 39 69 45
f 40 62 70
f 40 70 71
f 40 71 41
f 41 71 42
f 42 71 72
f 42 72 43
f 43 73 44
f 43 72 74
f 43 74 73
f 44 73 63
f 45 69 68
f 45 68 75
f 45 75 76
f 45 76 77
f 45 77 46
f 46 77 78
f 46 78 47
f 47 78 79
f 47 79 80
f 47 80 48
f 48 80 81
f 48 81 82
f 48 82 83
f 48 83 84
f 48 84 85
f 48 85 86
f 48 86 49
f 49 86 87
f 49 87 88
f 49 88 89
f 49 89 50
f 50 89 90
f 50 90 54
f 50 54 51
f 52 54 90
f 52 90 91
f 52 91 92
f 52 92 61
f 52 55 53
f 56 93 59
f 56 58 94
f 56 94 95
f 56 95 96
f 56 96 97
f 56 97 98
f 56 98 93
f 57 61 92
f 57 92 91
f 57 91 58
f 58 91 94
f 59 64 99
f 59 99 60
f 59 93 100
f 59 100 64
f 60 70 62
f 60 99 101
f 60 101 102
f 60 102 71
f 60 71 70
f 63 103 64
f 63 73 74
f 63 74 104
f 63 104 105
f 63 105 103
f 64 100 65
f 64 103 106
f 64 106 99
f 65 100 66
f 66 100 107
f 66 107 108
f 66 108 109
f 66 109 110
f 66 110 67
f 67 110 111
f 67 111 68
f 68 111 112
f 68 112 113
f 68 113 75
f 71 102 72
f 72 102 114
f 72 114 74
f 74 114 104
f 75 113 115
f 75 115 116
f 75 116 117
f 75 117 118
f 75 118 76
f 76 118 119
f 76 119 77
f 77 119 78
f 78 119 79
f 79 119 120
f 79 120 121
f 79 121 80
f 80 121 122
f 80 122 81
f 81 122 121
f 81 121 82
f 82 121 123
f 82 123 124
f 82 124 125
f 82 125 83
f 83 125 110
f 83 110 84
f 84 126 85
f 84 110 109
f 84 109 127
f 84 127 126
f 85 128 86
f 85 126 127
f 85 127 109
f 85 109 129
f 85 129 128
f 86 130 87
f 86 128 131
f 86 131 130
f 87 130 132
f 87 132 133
f 87 133 134
f 87 134 135
f 87 135 88
f 88 135 136
f 88 136 137
f 88 137 138
f 88 138 139
f 88 139 89
f 89 140 90
f 89 139 140
f 90 141 142
f 90 142 91
f 90 140 143
f 90 143 141
f 91 142 144
f 91 144 145
f 91 145 94
f 93 98 146
f 93 146 147
f 93 147 148
f 93 148 149
f 93 149 150
f 93 150 151
f 93 151 152
f 93 152 153
f 93 153 154
f 93 154 100
f 94 145 95
f 95 155 96
f 95 145 156
f 95 156 157
f 95 157 155
f 96 155 158
f 96 158 159
f 96 159 97
f 97 159 98
f 98 159 160
f 98 160 146
f 99 106 161
f 99 161 101
f 100 154 162
f 100 162 107
f 101 161 114
f 101 114 102
f 103 105 104
f 103 104 106
f 104 114 161
f 104 161 106
f 107 162 163
f 107 163 164
f 107 164 108
f 108 164 165
f 108 165 166
f 108 166 109
f 109 166 129
f 110 167 111
f 110 125 167
f 111 167 168
f 111 168 169
f 111 169 170
f 111 170 112
f 112 170 113
f 113 170 115
f 115 170 171
f 115 171 117
f 115 117 116
f 117 171 172
f 117 172 118
f 118 172 173
f 118 173 174
f 118 174 119
f 119 121 120
f 119 174 175
f 119 175 121
f 121 175 176
f 121 176 123
f 123 176 177
f 123 177 178
f 123 178 179
f 123 179 180
f 123 180 124
f 124 180 125
f 125 180 168
f 125 168 167
f 128 181 131
f 128 129 166
f 128 166 165
f 128 165 164
f 128 164 181
f 130 131 132
f 131 181 182
f 131 182 183
f 131 183 132
f 132 183 184
f 132 184 185
f 132 185 186
f 132 186 133
f 133 186 187
f 133 187 134
f 134 187 188
f 134 188 189
f 134 189 190
f 134 190 191
f 134 191 135
f 135 191 190
f 135 190 136
f 136 192 193
f 136 193 137
f 136 190 192
f 137 193 138
f 138 193 194
f 138 194 140
f 138 140 139
f 140 195 186
f 140 186 143
f 140 194 195
f 141 143 196
f 141 196 197
f 141 197 198
f 141 198 142
f 142 198 144
f 143 186 185
f 143 185 199
f 143 199 200
f 143 200 196
f 144 198 201
f 144 201 202
f 144 202 156
f 144 156 145
f 146 160 203
f 146 203 204
f 146 204 147
f 147 204 203
f 147 203 205
f 147 205 206
f 147 206 148
f 148 206 207
f 148 207 208
f 148 208 209
f 148 209 210
f 148 210 211
f 148 211 149
f 149 212 150
f 149 211 213
f 149 213 214
f 149 214 212
f 150 212 151
f 151 212 152
f 152 212 215
f 152 215 216
f 152 216 153
f 153 217 218
f 153 218 154
f 153 216 219
f 153 219 220
f 153 220 217
f 154 218 162
f 155 157 221
f 155 221 222
f 155 222 158
f 156 202 223
f 156 223 157
f 157 223 224
f 157 224 221
f 158 222 225
f 158 225 226
f 158 226 227
f 158 227 228
f 158 228 159
f 159 228 160
f 160 228 227
f 160 227 226
f 160 226 203
f 162 218 229
f 162 229 230
f 162 230 231
f 162 231 163
f 163 231 230
f 163 230 232
f 163 232 233
f 163 233 234
f 163 234 181
f 163 181 164
f 168 235 169
f 168 180 235
f 169 235 170
f 170 235 236
f 170 236 171
f 171 236 172
f 172 236 237
f 172 237 173
f 173 237 176
f 173 176 175
f 173 175 174
f 176 237 238
f 176 238 177
f 177 238 236
f 177 236 178
f 178 236 239
f 178 239 235
f 178 235 179
f 179 235 180
f 181 234 182
f 182 240 183
f 182 234 240
f 183 240 184
f 184 240 241
f 184 241 219
f 184 219 185
f 185 219 216
f 185 216 215
f 185 215 199
f 186 195 187
f 187 193 242
f 187 242 188
f 187 195 193
f 188 242 189
f 189 242 190
f 190 242 192
f 192 242 193
f 193 195 194
f 196 200 197
f 197 200 243
f 197 243 244
f 197 244 198
f 198 244 245
f 198 245 201
f 199 215 210
f 199 210 246
f 199 246 243
f 199 243 200
f 201 245 247
f 201 247 248
f 201 248 202
f 202 248 249
f 202 249 224
f 202 224 223
f 203 226 250
f 203 250 205
f 205 250 207
f 205 207 206
f 207 250 208
f 208 250 251
f 208 251 252
f 208 252 247
f 208 247 246
f 208 246 209
f 209 246 210
f 210 215 214
f 210 214 213
f 210 213 211
f 212 214 215
f 217 220 219
f 217 219 253
f 217 253 229
f 217 229 218
f 219 241 253
f 221 254 222
f 221 224 249
f 221 249 252
f 221 252 254
f 222 254 226
f 222 226 225
f 226 254 252
f 226 252 250
f 229 253 241
f 229 241 233
f 229 233 230
f 230 233 232
f 233 241 234
f 234 241 240
f 235 239 236
f 236 238 237
f 243 246 255
f 243 255 256
f 243 256 244
f 244 256 245
f 245 256 247
f 246 247 255
f 247 252 249
f 247 249 248
f 247 256 255
f 250 252 251
