v 0.230569 -0.602723 -0.229633
v 0.196724 -0.684454 -0.25719
v 0.199119 -0.674833 -0.285448
v 0.229891 -0.600901 -0.25599
v 0.229484 -0.417657 -0.202225
v 0.230478 -0.489496 -0.188321
v 0.22596 -0.557453 -0.165414
v 0.224378 -0.610859 -0.18372
v 0.190308 -0.696675 -0.197924
v 0.168754 -0.705959 -0.251839
v 0.163467 -0.706499 -0.263492
v 0.183801 -0.701165 -0.225832
v 0.206259 -0.655084 -0.293651
v 0.170516 -0.691138 -0.297452
v 0.188591 -0.670579 -0.314407
v 0.228129 -0.474439 -0.248488
v 0.226457 -0.595026 -0.288049
v 0.187687 -0.413234 -0.0982454
v 0.217736 -0.42424 -0.134256
v 0.227496 -0.42424 -0.166715
v 0.22361 -0.413741 -0.252439
v 0.226095 -0.497598 -0.15006
v 0.211952 -0.560862 -0.133105
v 0.212811 -0.621392 -0.153161
v 0.172324 -0.704777 -0.14876
v 0.175848 -0.709199 -0.180769
v 0.150589 -0.719226 -0.237135
v 0.13622 -0.721927 -0.265393
v 0.146477 -0.709942 -0.285648
v 0.147019 -0.723581 -0.210877
v 0.17273 -0.651201 -0.36137
v 0.209874 -0.584224 -0.336513
v 0.130481 -0.707174 -0.315157
v 0.149821 -0.691982 -0.322909
v 0.157367 -0.675002 -0.346116
v 0.211545 -0.464717 -0.302903
v 0.147607 -0.413234 -0.0392286
v 0.190579 -0.446386 -0.0668365
v 0.211681 -0.440511 -0.105197
v 0.211003 -0.413234 -0.286699
v 0.19686 -0.51387 -0.0888427
v 0.202101 -0.564812 -0.113
v 0.198803 -0.626895 -0.123953
v 0.182445 -0.634761 -0.102997
v 0.144263 -0.712913 -0.115
v 0.135135 -0.72537 -0.135106
v 0.151764 -0.72115 -0.166565
v 0.127951 -0.732054 -0.225832
v 0.0866503 -0.738232 -0.272245
v 0.108295 -0.741068 -0.192072
v 0.137169 -0.654476 -0.390328
v 0.103912 -0.630541 -0.429289
v 0.162112 -0.57153 -0.401131
v 0.180864 -0.574265 -0.380625
v 0.197041 -0.57889 -0.36022
v 0.0623852 -0.725775 -0.321459
v 0.117196 -0.687222 -0.36057
v 0.197447 -0.456918 -0.32766
v 0.101155 -0.413234 0.00873496
v 0.16776 -0.453171 -0.0384784
v 0.193561 -0.413234 -0.316107
v 0.196408 -0.573218 -0.104497
v 0.161163 -0.519609 -0.0463306
v 0.158948 -0.579835 -0.0602346
v 0.159129 -0.641614 -0.0788399
v 0.13274 -0.643268 -0.0557833
v 0.0529413 -0.713554 -0.0410291
v 0.108746 -0.726383 -0.096945
v 0.102285 -0.734485 -0.120552
v 0.111955 -0.736544 -0.15086
v 0.127951 -0.731717 -0.165714
v 0.0752634 -0.745895 -0.240936
v 0.0454856 -0.754707 -0.212578
v 0.0677172 -0.733708 -0.293651
v 0.0918919 -0.745186 -0.165714
v 0.0871474 -0.683745 -0.383226
v 0.0936994 -0.664773 -0.402982
v 0.0814087 -0.64418 -0.429539
v 0.0599 -0.624194 -0.449095
v 0.104409 -0.566196 -0.441843
v 0.134548 -0.568526 -0.424288
v 0.160711 -0.448175 -0.371473
v 0.181768 -0.450335 -0.347866
v 0.189043 -0.51073 -0.354968
v -0.0623743 -0.725775 -0.321459
v 0.0299414 -0.717538 -0.347216
v 0.0685758 -0.413234 0.0292908
v 0.121128 -0.528116 -0.0145717
v 0.173815 -0.413234 -0.339514
v 0.120676 -0.587599 -0.029976
v 0.0795109 -0.650459 -0.0282755
v 0.0269591 -0.708625 -0.0296759
v -0.000694904 -0.718078 -0.0374781
v 0.03324 -0.738198 -0.0780897
v 0.0627467 -0.738333 -0.0946444
v 0.0601259 -0.748124 -0.134256
v 0.0225309 -0.75788 -0.188321
v -0.0112685 -0.758116 -0.192072
v -0.0454746 -0.754707 -0.212578
v -0.0677515 -0.733708 -0.293651
v 0.0411928 -0.685669 -0.39558
v 0.0596289 -0.657514 -0.422287
v 0.0394758 -0.645631 -0.438392
v 0.0276369 -0.627806 -0.453746
v 0.0451241 -0.564812 -0.462299
v 0.0728233 -0.560626 -0.454446
v 0.0765286 -0.496248 -0.437241
v 0.118326 -0.504552 -0.420387
v 0.119275 -0.440343 -0.400081
v 0.150273 -0.413234 -0.35972
v -0.0866394 -0.738232 -0.272195
v -0.134175 -0.70822 -0.308155
v -0.119174 -0.696405 -0.345165
v -0.0825726 -0.681551 -0.388128
v -0.0299305 -0.717538 -0.347216
v -1.71087e-05 -0.713284 -0.358869
v 0.0444011 -0.413234 0.0382433
v 0.0909882 -0.52788 0.000232538
v 0.0904008 -0.587397 -0.0150718
v 0.0570984 -0.532775 0.0104354
v 0.0336919 -0.64867 -0.0146217
v -1.71087e-05 -0.534665 0.0184877
v -0.00751804 -0.652282 -0.0126711
v -0.0372959 -0.705351 -0.0302761
v -0.0333195 -0.722467 -0.0461306
v -1.71087e-05 -0.739076 -0.0763892
v 0.0112343 -0.754133 -0.133955
v 0.0376231 -0.745153 -0.105447
v -0.015019 -0.754707 -0.137557
v -0.0790029 -0.747685 -0.156312
v -0.0978456 -0.744545 -0.180769
v -0.0752524 -0.745895 -0.240936
v -1.71087e-05 -0.682834 -0.403632
v -1.71087e-05 -0.637428 -0.448545
v -0.027626 -0.627806 -0.453746
v 0.000208823 -0.564711 -0.46715
v 2.80777e-05 -0.496923 -0.451846
v 0.0526702 -0.504552 -0.445844
v 0.0605778 -0.438081 -0.425438
v 0.11322 -0.413234 -0.384527
v -0.125003 -0.734181 -0.214578
v -0.137248 -0.723209 -0.25694
v -0.184242 -0.676048 -0.312156
v -0.150578 -0.685298 -0.334562
v -0.148771 -0.711326 -0.277696
v -0.176244 -0.691206 -0.287149
v -0.117999 -0.679762 -0.370773
v -0.104985 -0.660013 -0.402982
v -0.0585786 -0.65029 -0.429839
v -0.0411819 -0.685636 -0.39558
v 0.0150751 -0.413234 0.0433948
v 0.0350023 -0.589186 0.000632668
v -0.0132567 -0.413234 0.0437949
v -0.0489087 -0.529163 0.0156869
v -0.0320542 -0.649345 -0.0141715
v -0.048231 -0.588207 0.000332582
v -0.087769 -0.701199 -0.04398
v -0.0635943 -0.712204 -0.04388
v -0.0978456 -0.710381 -0.0563835
v -0.0766984 -0.732797 -0.0889427
v -0.0318283 -0.738165 -0.0776895
v -0.0376122 -0.745153 -0.105447
v -0.0582171 -0.747651 -0.129604
v -0.102319 -0.734485 -0.120552
v -0.104307 -0.739245 -0.15151
v -0.121342 -0.735498 -0.177018
v -0.0225199 -0.648534 -0.437642
v -0.0451131 -0.564812 -0.462199
v -0.059889 -0.624228 -0.449045
v -0.0462879 -0.442098 -0.428489
v 2.80777e-05 -0.446656 -0.436341
v 0.030077 -0.444292 -0.43284
v 0.0296251 -0.413234 -0.414735
v 0.0601259 -0.413234 -0.408783
v -0.152566 -0.720948 -0.167965
v -0.175837 -0.709199 -0.180769
v -0.148771 -0.722298 -0.214578
v -0.162236 -0.709773 -0.251839
v -0.183429 -0.701739 -0.225832
v -0.171047 -0.657683 -0.357419
v -0.199153 -0.674833 -0.285448
v -0.196894 -0.685129 -0.25604
v -0.140185 -0.644821 -0.39828
v -0.0941403 -0.637765 -0.429089
v -0.0429441 -0.413234 0.0384434
v -0.0928751 -0.528926 0.00103278
v -0.129521 -0.700084 -0.0694372
v -0.112893 -0.579835 -0.0225239
v -0.108735 -0.726383 -0.096895
v -0.135124 -0.72537 -0.135106
v -0.0753428 -0.568964 -0.453846
v -0.060612 -0.504215 -0.442743
v -0.120122 -0.628617 -0.421387
v -0.072496 -0.446993 -0.423588
v -0.0817592 -0.413234 -0.400881
v -0.0569971 -0.413234 -0.407933
v -0.0119915 -0.413234 -0.416035
v -0.170957 -0.708592 -0.152311
v -0.190161 -0.698835 -0.201025
v -0.212348 -0.609408 -0.328711
v -0.190206 -0.593203 -0.369522
v -0.228525 -0.643774 -0.213728
v -0.229745 -0.631689 -0.253489
v -0.224503 -0.61248 -0.300803
v -0.162372 -0.585574 -0.401381
v -0.0741227 -0.413234 0.0262399
v -0.118451 -0.519609 -0.00957023
v -0.160474 -0.690328 -0.0905932
v -0.150668 -0.511912 -0.030076
v -0.123376 -0.575176 -0.43084
v -0.10973 -0.507962 -0.423738
v -0.113525 -0.45415 -0.406833
v -0.109323 -0.413234 -0.390978
v -0.190342 -0.677837 -0.124253
v -0.212709 -0.664908 -0.163764
v -0.206519 -0.537197 -0.328661
v -0.196081 -0.415091 -0.314307
v -0.182389 -0.524301 -0.363671
v -0.226762 -0.589929 -0.176768
v -0.230287 -0.579835 -0.203325
v -0.231055 -0.564812 -0.248488
v -0.226039 -0.55617 -0.286449
v -0.157808 -0.519609 -0.390778
v -0.136118 -0.511338 -0.407133
v -0.106702 -0.413234 0.00468381
v -0.180943 -0.617949 -0.0900931
v -0.173939 -0.499826 -0.0518822
v -0.181124 -0.558398 -0.0747887
v -0.135395 -0.452226 -0.391428
v -0.136796 -0.413234 -0.375074
v -0.199334 -0.60988 -0.1152
v -0.211083 -0.603061 -0.134956
v -0.220075 -0.594824 -0.158162
v -0.211534 -0.480482 -0.303003
v -0.179497 -0.413504 -0.336963
v -0.207648 -0.416475 -0.287649
v -0.210631 -0.413234 -0.192222
v -0.16079 -0.460632 -0.371523
v -0.220436 -0.534665 -0.143108
v -0.226762 -0.530817 -0.161863
v -0.227982 -0.45729 -0.165114
v -0.230377 -0.450808 -0.195673
v -0.230739 -0.504552 -0.233384
v -0.22613 -0.496045 -0.271695
v -0.150307 -0.413234 -0.0432798
v -0.199696 -0.549756 -0.0996458
v -0.197798 -0.483926 -0.0837413
v -0.159344 -0.413234 -0.358469
v -0.211173 -0.543375 -0.119701
v -0.228027 -0.438587 -0.22208
v -0.214562 -0.418433 -0.243287
v -0.204892 -0.413234 -0.15041
v -0.223283 -0.472076 -0.136856
v -0.194228 -0.413234 -0.118351
v -0.178729 -0.414956 -0.0877924
v -0.211399 -0.48055 -0.107498
f 1 2 3
f 1 3 4
f 1 4 5
f 1 5 6
f 1 6 7
f 1 7 8
f 1 8 9
f 1 9 2
f 2 10 11
f 2 11 3
f 2 9 12
f 2 12 10
f 3 13 4
f 3 11 14
f 3 14 15
f 3 15 13
f 4 16 5
f 4 13 17
f 4 17 16
f 5 18 19
f 5 19 20
f 5 20 6
f 5 16 21
f 5 21 18
f 6 20 22
f 6 22 7
f 7 22 23
f 7 23 24
f 7 24 8
f 8 24 9
f 9 24 25
f 9 25 26
f 9 26 12
f 10 12 27
f 10 27 28
f 10 28 11
f 11 28 29
f 11 29 14
f 12 26 30
f 12 30 27
f 13 15 31
f 13 31 32
f 13 32 17
f 14 33 34
f 14 34 15
f 14 29 33
f 15 34 35
f 15 35 31
f 16 17 21
f 17 32 36
f 17 36 21
f 18 37 38
f 18 38 39
f 18 39 19
f 18 21 40
f 18 40 61
f 18 61 89
f 18 89 110
f 18 110 140
f 18 140 174
f 18 174 173
f 18 173 197
f 18 197 196
f 18 196 195
f 18 195 213
f 18 213 230
f 18 230 248
f 18 248 237
f 18 237 252
f 18 252 254
f 18 254 245
f 18 245 225
f 18 225 206
f 18 206 185
f 18 185 153
f 18 153 151
f 18 151 117
f 18 117 87
f 18 87 59
f 18 59 37
f 19 39 20
f 20 39 22
f 21 36 40
f 22 39 41
f 22 41 23
f 23 42 43
f 23 43 24
f 23 41 42
f 24 43 25
f 25 43 44
f 25 44 45
f 25 45 46
f 25 46 26
f 26 47 30
f 26 46 47
f 27 30 48
f 27 48 28
f 28 49 33
f 28 33 29
f 28 48 49
f 30 47 50
f 30 50 48
f 31 51 52
f 31 52 53
f 31 53 54
f 31 54 55
f 31 55 32
f 31 35 51
f 32 55 36
f 33 56 57
f 33 57 35
f 33 35 34
f 33 49 56
f 35 57 51
f 36 55 58
f 36 58 40
f 37 59 60
f 37 60 38
f 38 41 39
f 38 60 41
f 40 58 61
f 41 44 62
f 41 62 43
f 41 43 42
f 41 60 63
f 41 63 44
f 43 62 44
f 44 63 64
f 44 64 65
f 44 65 45
f 45 65 66
f 45 66 67
f 45 67 68
f 45 68 46
f 46 68 69
f 46 69 70
f 46 70 71
f 46 71 47
f 47 71 50
f 48 50 72
f 48 72 49
f 49 72 73
f 49 73 74
f 49 74 56
f 50 71 75
f 50 75 73
f 50 73 72
f 51 57 76
f 51 76 77
f 51 77 78
f 51 78 52
f 52 78 79
f 52 79 80
f 52 80 81
f 52 81 53
f 53 82 54
f 53 81 82
f 54 82 83
f 54 83 84
f 54 84 55
f 55 84 58
f 56 74 100
f 56 100 85
f 56 85 115
f 56 115 86
f 56 86 76
f 56 76 57
f 58 84 83
f 58 83 61
f 59 87 88
f 59 88 60
f 60 88 63
f 61 83 89
f 63 88 64
f 64 88 90
f 64 90 66
f 64 66 65
f 66 90 91
f 66 91 67
f 67 91 92
f 67 92 93
f 67 93 94
f 67 94 95
f 67 95 68
f 68 95 69
f 69 96 75
f 69 75 70
f 69 95 96
f 70 75 71
f 73 75 97
f 73 97 98
f 73 98 99
f 73 99 100
f 73 100 74
f 75 96 97
f 76 86 101
f 76 101 102
f 76 102 77
f 77 102 78
f 78 102 103
f 78 103 79
f 79 103 104
f 79 104 105
f 79 105 106
f 79 106 80
f 80 106 107
f 80 107 108
f 80 108 81
f 81 108 82
f 82 108 109
f 82 109 110
f 82 110 89
f 82 89 83
f 85 100 111
f 85 111 112
f 85 112 113
f 85 113 114
f 85 114 115
f 86 115 116
f 86 116 101
f 87 117 118
f 87 118 88
f 88 119 90
f 88 118 119
f 90 119 91
f 91 119 120
f 91 120 121
f 91 121 92
f 92 121 122
f 92 122 123
f 92 123 124
f 92 124 93
f 93 124 125
f 93 125 126
f 93 126 94
f 94 126 127
f 94 127 128
f 94 128 95
f 95 128 96
f 96 128 127
f 96 127 97
f 97 127 129
f 97 129 98
f 98 129 130
f 98 130 99
f 99 130 131
f 99 131 132
f 99 132 111
f 99 111 100
f 101 133 103
f 101 103 102
f 101 116 133
f 103 134 104
f 103 133 134
f 104 135 136
f 104 136 105
f 104 134 135
f 105 136 137
f 105 137 138
f 105 138 106
f 106 138 107
f 107 139 109
f 107 109 108
f 107 138 139
f 109 140 110
f 109 139 140
f 111 132 141
f 111 141 142
f 111 142 112
f 112 143 144
f 112 144 113
f 112 142 145
f 112 145 146
f 112 146 143
f 113 144 147
f 113 147 114
f 114 147 148
f 114 148 149
f 114 149 150
f 114 150 115
f 115 150 116
f 116 150 133
f 117 151 120
f 117 120 118
f 118 120 119
f 120 152 121
f 120 151 122
f 120 122 152
f 121 152 122
f 122 151 153
f 122 153 154
f 122 154 123
f 123 155 124
f 123 154 156
f 123 156 155
f 124 155 156
f 124 156 157
f 124 157 158
f 124 158 125
f 125 158 159
f 125 159 160
f 125 160 161
f 125 161 126
f 126 161 129
f 126 129 127
f 129 161 162
f 129 162 163
f 129 163 130
f 130 163 164
f 130 164 165
f 130 165 131
f 131 166 141
f 131 141 132
f 131 165 166
f 133 150 167
f 133 167 134
f 134 167 135
f 135 168 136
f 135 167 149
f 135 149 169
f 135 169 168
f 136 168 137
f 137 168 170
f 137 170 171
f 137 171 172
f 137 172 138
f 138 172 139
f 139 172 173
f 139 173 174
f 139 174 140
f 141 166 175
f 141 175 176
f 141 176 177
f 141 177 142
f 142 178 145
f 142 177 179
f 142 179 178
f 143 180 144
f 143 146 181
f 143 181 180
f 144 180 147
f 145 178 146
f 146 178 182
f 146 182 181
f 147 183 148
f 147 180 183
f 148 183 184
f 148 184 149
f 149 184 169
f 149 167 150
f 153 185 154
f 154 185 186
f 154 186 156
f 156 186 157
f 157 187 159
f 157 159 158
f 157 186 188
f 157 188 187
f 159 187 189
f 159 189 160
f 160 189 164
f 160 164 163
f 160 163 162
f 160 162 161
f 164 190 165
f 164 189 190
f 165 190 166
f 166 190 175
f 168 191 192
f 168 192 170
f 168 169 191
f 169 184 193
f 169 193 191
f 170 192 194
f 170 194 195
f 170 195 196
f 170 196 197
f 170 197 171
f 171 197 173
f 171 173 172
f 175 190 198
f 175 198 176
f 176 199 179
f 176 179 177
f 176 198 199
f 178 179 182
f 179 199 182
f 180 181 200
f 180 200 201
f 180 201 183
f 181 182 202
f 181 202 203
f 181 203 204
f 181 204 200
f 182 199 202
f 183 205 193
f 183 193 184
f 183 201 205
f 185 206 186
f 186 206 207
f 186 207 188
f 187 208 189
f 187 188 209
f 187 209 208
f 188 207 209
f 189 208 190
f 190 208 198
f 191 193 210
f 191 210 211
f 191 211 194
f 191 194 192
f 193 205 210
f 194 211 212
f 194 212 213
f 194 213 195
f 198 208 214
f 198 214 215
f 198 215 199
f 199 215 202
f 200 204 216
f 200 216 201
f 201 216 217
f 201 217 218
f 201 218 205
f 202 215 219
f 202 219 220
f 202 220 203
f 203 221 204
f 203 220 221
f 204 221 222
f 204 222 216
f 205 218 223
f 205 223 224
f 205 224 210
f 206 225 209
f 206 209 207
f 208 209 226
f 208 226 214
f 209 225 227
f 209 227 228
f 209 228 226
f 210 224 211
f 211 224 212
f 212 224 229
f 212 229 230
f 212 230 213
f 214 231 232
f 214 232 215
f 214 226 231
f 215 232 233
f 215 233 219
f 216 222 234
f 216 234 217
f 217 235 218
f 217 234 236
f 217 236 237
f 217 237 235
f 218 238 223
f 218 235 238
f 219 233 239
f 219 239 240
f 219 240 220
f 220 240 241
f 220 241 242
f 220 242 221
f 221 242 243
f 221 243 244
f 221 244 222
f 222 244 234
f 223 238 229
f 223 229 224
f 225 245 227
f 226 228 246
f 226 246 231
f 227 245 247
f 227 247 246
f 227 246 228
f 229 238 248
f 229 248 230
f 231 246 232
f 232 246 249
f 232 249 239
f 232 239 233
f 234 244 236
f 235 248 238
f 235 237 248
f 236 244 250
f 236 250 251
f 236 251 237
f 237 250 252
f 237 251 250
f 239 253 240
f 239 249 253
f 240 253 241
f 241 253 254
f 241 254 252
f 241 252 242
f 242 252 250
f 242 250 243
f 243 250 244
f 245 255 247
f 245 254 255
f 246 247 256
f 246 256 249
f 247 255 256
f 249 256 253
f 253 256 254
f 254 256 255
