v 0.324052 -0.0549506 -0.00759784
v 0.322657 -0.0549506 -0.0201506
v 0.322974 -0.0549506 0.0101853
v 0.270062 -0.157119 -0.113878
v 0.269237 -0.157119 -0.128593
v 0.321007 -0.0549506 -0.0339587
v 0.321071 -0.0549506 0.0214131
v 0.264288 -0.157119 -0.0526484
v 0.266065 -0.157119 -0.0686881
v 0.268856 -0.157119 -0.0978385
v 0.264605 -0.157119 -0.158092
v 0.314345 -0.0549506 -0.0810317
v 0.316312 -0.0549506 -0.0677118
v 0.31701 -0.0549506 0.0437292
v 0.259149 -0.157119 -0.0328429
v 0.312379 -0.0549506 0.0688348
v 0.309524 -0.0549506 0.0833402
v 0.262195 -0.157119 -0.173155
v 0.257817 -0.157119 -0.192682
v 0.310539 -0.0549506 -0.0974898
v 0.244621 -0.157119 0.0081629
v 0.306288 -0.0549506 0.0951259
v 0.239291 -0.157119 -0.237105
v 0.28421 -0.0549506 -0.173155
v 0.2903 -0.0549506 -0.158162
v 0.240053 -0.157119 0.0198091
v 0.29988 -0.0549506 0.109352
v 0.234152 -0.157119 -0.248402
v 0.277294 -0.0549506 -0.187033
v 0.230028 -0.157119 0.037662
v 0.282687 -0.0549506 0.144709
v 0.27685 -0.0549506 0.156635
v 0.269681 -0.0549506 0.170791
v 0.251409 -0.0549506 -0.2332
v 0.259974 -0.0549506 -0.218066
v 0.225524 -0.157119 -0.263257
v 0.258642 -0.0577611 0.183274
v 0.209853 -0.157119 0.0685558
v 0.25198 -0.0549506 0.195688
v 0.240687 -0.0549506 -0.248123
v 0.195959 -0.157119 -0.301403
v 0.197291 -0.157119 0.0859903
v 0.215056 -0.0549506 0.235299
v 0.209346 -0.0549506 -0.284317
v 0.18898 -0.157119 -0.308865
v 0.186823 -0.157119 0.0967996
v 0.200273 -0.0582312 0.24555
v 0.071038 -0.0549506 0.313335
v 0.128772 -0.0553306 0.293251
v 0.170391 -0.0554607 0.270098
v 0.19063 -0.0558307 0.257475
v 0.201796 -0.0549506 -0.292337
v 0.17718 -0.157119 -0.320093
v 0.156116 -0.157119 0.124834
v 0.181113 -0.0906271 0.21117
v 0.167663 -0.10662 0.197431
v 0.184349 -0.0775947 0.229092
v -0.142895 -0.0549506 0.286068
v -0.0817985 -0.0551606 0.311174
v -0.00890141 -0.0552606 0.323099
v 0.0108931 -0.0590813 0.318078
v 0.0527027 -0.0577811 0.312917
v 0.0835364 -0.0554007 0.310755
v 0.109675 -0.0569409 0.301062
v 0.0990802 -0.10647 0.236066
v 0.128201 -0.0652424 0.279373
v 0.172865 -0.0701934 0.247573
v 0.181557 -0.0606216 0.256429
v 0.177687 -0.0741541 0.239134
v 0.190439 -0.0549506 -0.302658
v 0.164174 -0.157119 -0.330135
v 0.143935 -0.157119 0.134807
v 0.158083 -0.10856 0.20036
v 0.129597 -0.157119 0.143803
v -0.127542 -0.0551506 0.294297
v -0.172904 -0.0549506 0.269331
v -0.157804 -0.0549906 0.277699
v -0.173158 -0.0569709 0.266332
v -0.112949 -0.0941477 0.246317
v -0.0526777 -0.0577811 0.312917
v -0.112886 -0.0565509 0.300364
v -0.0968982 -0.0590913 0.302945
v -0.0828136 -0.0774047 0.281396
v -0.0109316 -0.0616918 0.31487
v 0.00746713 -0.073814 0.299179
v 0.0225668 -0.0985585 0.263543
v 0.0827751 -0.0934476 0.260126
v 0.0954639 -0.0580111 0.304827
v 0.0870258 -0.10614 0.241854
v 0.134482 -0.089967 0.24032
v 0.0978747 -0.117272 0.220724
v 0.128011 -0.1092 0.216191
v 0.153832 -0.10425 0.209077
v 0.142539 -0.157119 -0.346593
v 0.168742 -0.0549506 -0.318489
v 0.0999049 -0.157119 0.158727
v -0.200312 -0.0582312 0.24576
v -0.185656 -0.0586613 0.256639
v -0.229306 -0.0549506 0.220026
v -0.175125 -0.0768746 0.236484
v -0.163578 -0.0895769 0.224699
v -0.153554 -0.0915172 0.227488
v -0.143974 -0.101709 0.218143
v -0.0969616 -0.10915 0.233555
v -0.109143 -0.0896369 0.254895
v -0.0443666 -0.090267 0.270935
v -0.0376415 -0.0643923 0.30671
v -0.0870643 -0.10616 0.241854
v -0.0828136 -0.100909 0.249874
v -0.0526777 -0.116022 0.23495
v -0.0185449 -0.10511 0.255523
v -0.00871107 -0.110531 0.249874
v -8.26987e-05 -0.10598 0.256639
v 0.00746713 -0.118912 0.238646
v 0.00854568 -0.110511 0.249804
v 0.0143191 -0.10534 0.255802
v 0.0225668 -0.117952 0.237461
v 0.0527027 -0.116032 0.23495
v 0.0685002 -0.116052 0.23223
v 0.0827751 -0.100969 0.249874
v 0.0783975 -0.119892 0.224838
v 0.0844246 -0.157119 0.166189
v 0.135941 -0.1088 -0.346593
v 0.156878 -0.0549506 -0.327067
v 0.128011 -0.157119 -0.355729
v -0.184451 -0.0775947 0.229092
v -0.199868 -0.157119 0.0828521
v -0.187115 -0.157119 0.0963812
v -0.181152 -0.0906771 0.211239
v -0.167638 -0.10657 0.197362
v -0.2491 -0.0549506 0.198547
v -0.158122 -0.10595 0.204056
v -0.139532 -0.10697 0.212983
v -0.126463 -0.10845 0.218143
v -0.128493 -0.157119 0.1445
v -0.0978498 -0.117332 0.220793
v -0.0828136 -0.157119 0.167165
v -0.0828136 -0.119472 0.224071
v -0.0828136 -0.113041 0.233346
v -0.069871 -0.119362 0.227418
v -0.0225419 -0.117992 0.237461
v -0.0225419 -0.110461 0.247642
v -0.00750564 -0.118932 0.238716
v 0.00473904 -0.157119 0.18188
v 0.0225668 -0.157119 0.179648
v 0.0532102 -0.157119 0.174836
v 0.037603 -0.122363 0.228674
v 0.0527027 -0.121543 0.227418
v 0.0639322 -0.120903 0.226442
v 0.0677389 -0.157119 0.172186
v 0.125854 -0.0549506 -0.345477
v 0.144506 -0.0549506 -0.335505
v 0.11824 -0.157119 -0.360471
v -0.208179 -0.157119 0.0712756
v -0.257855 -0.0577411 0.184042
v -0.156155 -0.157119 0.124974
v -0.143022 -0.157119 0.135504
v -0.268514 -0.0549506 0.173162
v -0.0982939 -0.157119 0.159633
v -0.0677139 -0.157119 0.172186
v -0.0541369 -0.157119 0.174766
v -0.0526777 -0.121523 0.227418
v -0.0376415 -0.122363 0.228674
v -0.0107413 -0.157119 0.181461
v 0.0808083 -0.157119 -0.376023
v 0.0852494 -0.0549506 -0.361936
v -0.229877 -0.157119 0.0378015
v -0.276127 -0.0549506 0.158169
v -0.238124 -0.157119 0.0239236
v 0.0678023 -0.157119 -0.380277
v 0.0761135 -0.147788 -0.37679
v 0.0677389 -0.0549506 -0.367445
v -0.292559 -0.0549506 0.124346
v -0.244405 -0.157119 0.00899975
v -0.298079 -0.0549506 0.112839
v -0.305565 -0.0549506 0.0963812
v 0.0521951 -0.157119 -0.383345
v 0.0615214 -0.118272 -0.37672
v 0.0742102 -0.137746 -0.376092
v 0.0537812 -0.0549506 -0.369746
v -0.260774 -0.157119 -0.0375851
v -0.309816 -0.0549506 0.0822244
v 0.0215517 -0.157119 -0.38746
v 0.0247873 -0.0549506 -0.373582
v 0.00746713 -0.157119 -0.389342
v -0.2642 -0.157119 -0.0521603
v -0.312671 -0.0549506 0.067719
v -0.0224784 -0.0549506 -0.373861
v 0.00201095 -0.0555907 -0.376092
v -0.00750564 -0.157119 -0.389273
v -0.265913 -0.157119 -0.0666657
v -0.315399 -0.0549506 0.0526556
v -0.320728 -0.0549506 0.0228776
v -0.323203 -0.0549506 0.00837211
v -0.0376415 -0.0549506 -0.371908
v -0.0531853 -0.157119 -0.383275
v -0.0526777 -0.0549506 -0.369955
v -0.267309 -0.157119 -0.0817291
v -0.324091 -0.0549506 -0.00759784
v -0.270037 -0.157119 -0.113669
v -0.268704 -0.157119 -0.0968622
v -0.068158 -0.157119 -0.380207
v -0.0615599 -0.118052 -0.37672
v -0.0665719 -0.0549506 -0.367654
v -0.322441 -0.0549506 -0.0228704
v -0.269593 -0.157119 -0.12664
v -0.0769133 -0.152588 -0.376929
v -0.0741218 -0.138026 -0.376092
v -0.0641611 -0.128004 -0.377417
v -0.114853 -0.157119 -0.361936
v -0.0837018 -0.0549506 -0.362493
v -0.320855 -0.0549506 -0.0351443
v -0.266991 -0.157119 -0.143029
v -0.319269 -0.0549506 -0.0469997
v -0.317556 -0.0549506 -0.0590643
v -0.314067 -0.0549506 -0.0827752
v -0.112949 -0.0549506 -0.350777
v -0.127986 -0.157119 -0.355729
v -0.135599 -0.10493 -0.346384
v -0.125575 -0.0549506 -0.345547
v -0.26458 -0.157119 -0.158092
v -0.310514 -0.0549506 -0.0978385
v -0.259251 -0.157119 -0.187661
v -0.26217 -0.157119 -0.172597
v -0.139152 -0.157119 -0.349104
v -0.153744 -0.0549506 -0.329159
v -0.14391 -0.0549506 -0.335714
v -0.306009 -0.0549506 -0.111856
v -0.255127 -0.157119 -0.200562
v -0.1474 -0.157119 -0.342897
v -0.193714 -0.0549506 -0.300287
v -0.185276 -0.0549506 -0.306633
v -0.16694 -0.0549506 -0.319814
v -0.290212 -0.0549506 -0.158441
v -0.240916 -0.157119 -0.233269
v -0.28539 -0.0549506 -0.170296
v -0.156662 -0.157119 -0.335854
v -0.2012 -0.0549506 -0.292965
v -0.177789 -0.157119 -0.319674
v -0.189273 -0.157119 -0.308586
v -0.234254 -0.157119 -0.248054
v -0.276952 -0.0549506 -0.187731
v -0.208179 -0.0549506 -0.285573
v -0.215729 -0.157119 -0.276019
v -0.198028 -0.153979 -0.298404
v -0.236348 -0.0549506 -0.253284
v -0.214904 -0.0549506 -0.277901
v -0.259378 -0.0549506 -0.219043
v -0.251003 -0.0549506 -0.233827
v -0.225689 -0.157119 -0.262908
v -0.243454 -0.0549506 -0.244985
f 1 2 6
f 1 6 13
f 1 13 12
f 1 12 20
f 1 20 25
f 1 25 24
f 1 24 29
f 1 29 35
f 1 35 34
f 1 34 40
f 1 40 44
f 1 44 52
f 1 52 70
f 1 70 95
f 1 95 124
f 1 124 152
f 1 152 151
f 1 151 166
f 1 166 172
f 1 172 180
f 1 180 184
f 1 184 188
f 1 188 195
f 1 195 197
f 1 197 204
f 1 204 211
f 1 211 217
f 1 217 220
f 1 220 227
f 1 227 226
f 1 226 233
f 1 233 232
f 1 232 231
f 1 231 238
f 1 238 243
f 1 243 247
f 1 247 246
f 1 246 251
f 1 251 249
f 1 249 248
f 1 248 242
f 1 242 236
f 1 236 234
f 1 234 228
f 1 228 222
f 1 222 216
f 1 216 215
f 1 215 214
f 1 214 212
f 1 212 205
f 1 205 199
f 1 199 194
f 1 194 193
f 1 193 192
f 1 192 187
f 1 187 182
f 1 182 176
f 1 176 175
f 1 175 173
f 1 173 168
f 1 168 158
f 1 158 131
f 1 131 99
f 1 99 76
f 1 76 58
f 1 58 48
f 1 48 43
f 1 43 39
f 1 39 33
f 1 33 32
f 1 32 31
f 1 31 27
f 1 27 22
f 1 22 17
f 1 17 16
f 1 16 14
f 1 14 7
f 1 7 3
f 1 3 4
f 1 4 5
f 1 5 2
f 2 5 6
f 3 7 8
f 3 8 9
f 3 9 10
f 3 10 4
f 4 10 9
f 4 9 8
f 4 8 15
f 4 15 21
f 4 21 26
f 4 26 30
f 4 30 38
f 4 38 42
f 4 42 46
f 4 46 54
f 4 54 72
f 4 72 74
f 4 74 96
f 4 96 122
f 4 122 150
f 4 150 146
f 4 146 145
f 4 145 144
f 4 144 164
f 4 164 161
f 4 161 160
f 4 160 137
f 4 137 159
f 4 159 135
f 4 135 157
f 4 157 156
f 4 156 128
f 4 128 127
f 4 127 154
f 4 154 167
f 4 167 169
f 4 169 174
f 4 174 181
f 4 181 186
f 4 186 191
f 4 191 198
f 4 198 201
f 4 201 200
f 4 200 206
f 4 206 213
f 4 213 221
f 4 221 224
f 4 224 223
f 4 223 229
f 4 229 235
f 4 235 241
f 4 241 250
f 4 250 244
f 4 244 240
f 4 240 239
f 4 239 237
f 4 237 230
f 4 230 225
f 4 225 218
f 4 218 210
f 4 210 202
f 4 202 196
f 4 196 190
f 4 190 185
f 4 185 183
f 4 183 177
f 4 177 170
f 4 170 165
f 4 165 153
f 4 153 125
f 4 125 94
f 4 94 71
f 4 71 53
f 4 53 45
f 4 45 41
f 4 41 36
f 4 36 28
f 4 28 23
f 4 23 19
f 4 19 18
f 4 18 11
f 4 11 5
f 5 11 12
f 5 12 13
f 5 13 6
f 7 14 8
f 8 14 16
f 8 16 17
f 8 17 15
f 11 18 12
f 12 18 19
f 12 19 20
f 15 17 22
f 15 22 21
f 19 23 24
f 19 24 25
f 19 25 20
f 21 22 26
f 22 27 26
f 23 28 24
f 24 28 29
f 26 27 31
f 26 31 32
f 26 32 33
f 26 33 30
f 28 34 35
f 28 35 29
f 28 36 34
f 30 33 37
f 30 37 38
f 33 39 37
f 34 36 40
f 36 41 40
f 37 39 42
f 37 42 38
f 39 43 42
f 40 41 44
f 41 45 44
f 42 43 47
f 42 47 46
f 43 48 49
f 43 49 50
f 43 50 51
f 43 51 47
f 44 45 52
f 45 53 52
f 46 47 55
f 46 55 56
f 46 56 54
f 47 57 55
f 47 51 57
f 48 58 59
f 48 59 60
f 48 60 61
f 48 61 62
f 48 62 63
f 48 63 49
f 49 63 64
f 49 64 65
f 49 65 66
f 49 66 50
f 50 66 67
f 50 67 68
f 50 68 51
f 51 68 69
f 51 69 56
f 51 56 57
f 52 53 70
f 53 71 70
f 54 56 72
f 55 57 56
f 56 73 74
f 56 74 72
f 56 69 73
f 58 75 59
f 58 76 77
f 58 77 78
f 58 78 79
f 58 79 75
f 59 80 60
f 59 75 81
f 59 81 82
f 59 82 83
f 59 83 80
f 60 80 84
f 60 84 61
f 61 84 85
f 61 85 62
f 62 85 86
f 62 86 87
f 62 87 63
f 63 88 64
f 63 87 88
f 64 88 89
f 64 89 65
f 65 90 66
f 65 89 91
f 65 91 92
f 65 92 90
f 66 90 93
f 66 93 67
f 67 69 68
f 67 93 69
f 69 93 73
f 70 71 94
f 70 94 95
f 73 93 92
f 73 92 74
f 74 92 91
f 74 91 96
f 75 79 81
f 76 97 98
f 76 98 78
f 76 78 77
f 76 99 97
f 78 98 100
f 78 100 101
f 78 101 102
f 78 102 103
f 78 103 79
f 79 104 105
f 79 105 81
f 79 103 104
f 80 83 106
f 80 106 107
f 80 107 84
f 81 105 104
f 81 104 108
f 81 108 82
f 82 108 109
f 82 109 83
f 83 109 110
f 83 110 106
f 84 107 111
f 84 111 112
f 84 112 113
f 84 113 85
f 85 113 114
f 85 114 115
f 85 115 116
f 85 116 86
f 86 116 117
f 86 117 118
f 86 118 119
f 86 119 87
f 87 119 120
f 87 120 89
f 87 89 88
f 89 120 121
f 89 121 91
f 90 92 93
f 91 121 122
f 91 122 96
f 94 123 124
f 94 124 95
f 94 125 123
f 97 126 98
f 97 99 127
f 97 127 128
f 97 128 129
f 97 129 126
f 98 126 130
f 98 130 100
f 99 131 127
f 100 130 132
f 100 132 101
f 101 132 103
f 101 103 102
f 103 133 134
f 103 134 104
f 103 132 133
f 104 134 135
f 104 135 136
f 104 136 137
f 104 137 138
f 104 138 108
f 106 110 111
f 106 111 107
f 108 138 139
f 108 139 140
f 108 140 109
f 109 140 110
f 110 141 142
f 110 142 111
f 110 140 141
f 111 142 112
f 112 142 141
f 112 141 143
f 112 143 113
f 113 143 114
f 114 143 144
f 114 144 145
f 114 145 146
f 114 146 147
f 114 147 148
f 114 148 149
f 114 149 117
f 114 117 115
f 115 117 116
f 117 149 118
f 118 149 119
f 119 149 121
f 119 121 120
f 121 149 150
f 121 150 122
f 123 151 152
f 123 152 124
f 123 125 153
f 123 153 151
f 126 129 130
f 127 131 155
f 127 155 154
f 128 156 129
f 129 156 130
f 130 156 157
f 130 157 135
f 130 135 132
f 131 158 155
f 132 134 133
f 132 135 134
f 135 159 136
f 136 159 137
f 137 160 138
f 138 160 140
f 138 140 139
f 140 160 161
f 140 161 162
f 140 162 141
f 141 162 143
f 143 162 163
f 143 163 161
f 143 161 164
f 143 164 144
f 146 149 148
f 146 148 147
f 146 150 149
f 151 153 165
f 151 165 166
f 154 155 158
f 154 158 167
f 158 168 169
f 158 169 167
f 161 163 162
f 165 170 171
f 165 171 166
f 166 171 172
f 168 173 169
f 169 173 175
f 169 175 176
f 169 176 174
f 170 177 178
f 170 178 172
f 170 172 179
f 170 179 171
f 171 179 172
f 172 178 177
f 172 177 180
f 174 176 181
f 176 182 181
f 177 183 180
f 180 183 185
f 180 185 184
f 181 182 186
f 182 187 186
f 184 185 189
f 184 189 188
f 185 190 189
f 186 187 192
f 186 192 193
f 186 193 194
f 186 194 191
f 188 189 190
f 188 190 195
f 190 196 197
f 190 197 195
f 191 194 198
f 194 199 200
f 194 200 201
f 194 201 198
f 196 202 203
f 196 203 204
f 196 204 197
f 199 205 206
f 199 206 200
f 202 207 208
f 202 208 204
f 202 204 209
f 202 209 203
f 202 210 207
f 203 209 204
f 204 208 211
f 205 212 206
f 206 212 214
f 206 214 215
f 206 215 216
f 206 216 213
f 207 210 217
f 207 217 211
f 207 211 208
f 210 218 219
f 210 219 220
f 210 220 217
f 213 216 221
f 216 222 223
f 216 223 224
f 216 224 221
f 218 225 219
f 219 226 227
f 219 227 220
f 219 225 226
f 222 228 229
f 222 229 223
f 225 230 231
f 225 231 232
f 225 232 233
f 225 233 226
f 228 234 229
f 229 234 236
f 229 236 235
f 230 237 231
f 231 237 239
f 231 239 240
f 231 240 238
f 235 236 241
f 236 242 241
f 238 240 243
f 240 244 245
f 240 245 246
f 240 246 247
f 240 247 243
f 241 242 248
f 241 248 249
f 241 249 250
f 244 250 251
f 244 251 245
f 245 251 246
f 249 251 250
