v 0.44211 0.064566 0.195978
v 0.441932 0.064566 0.164624
v 0.440864 0.0734723 0.242117
v 0.439484 0.0689633 0.313874
v 0.385945 0.0676217 0.421065
v -0.0124598 0.064566 0.509774
v 0.438816 0.064566 -0.295108
v 0.440241 0.0649759 -0.113484
v 0.437392 0.0797701 -0.145093
v 0.43352 0.10988 0.219557
v 0.433609 0.10988 0.251039
v 0.438238 0.0861797 0.28252
v 0.431829 0.0941916 0.329424
v 0.42818 0.0724662 0.35517
v 0.431562 0.11383 0.292207
v 0.28403 0.0811862 0.509774
v 0.409354 0.0755219 0.391113
v 0.382162 0.109731 0.414182
v 0.00289422 0.291025 0.509774
v -0.0113027 0.44478 0.223126
v -0.0124598 0.312564 -0.786194
v -0.0124598 0.064566 -0.733045
v 0.27544 0.064566 -0.786832
v 0.431518 0.0723171 -0.678494
v 0.432897 0.0758573 -0.64115
v 0.433654 0.0777578 -0.596413
v 0.436858 0.0786894 -0.235204
v 0.433209 0.102055 -0.10214
v 0.424798 0.139841 0.251039
v 0.429559 0.117743 -0.0549818
v 0.420214 0.136897 0.329169
v 0.409666 0.136674 0.362053
v 0.417009 0.108278 0.363327
v 0.422394 0.143307 0.29705
v 0.267207 0.126053 0.509774
v 0.36129 0.157952 0.417241
v 0.392309 0.15512 0.381171
v 0.373306 0.176547 0.394554
v 0.0472653 0.287708 0.509774
v 0.00280522 0.3881 0.420045
v 0.00280522 0.413626 0.388436
v 0.00293873 0.435687 0.342042
v 0.00280522 0.443327 0.296413
v 0.00925839 0.444668 0.251549
v 0.015756 0.445227 0.205792
v 0.000490985 0.439973 -0.635287
v -0.00275786 0.422048 -0.739163
v -0.0118813 0.353891 -0.784155
v 0.0479774 0.341966 -0.785939
v 0.113844 0.313868 -0.787341
v 0.298182 0.145245 -0.792312
v 0.309976 0.0941916 -0.792185
v -0.0124598 0.2772 -0.781223
v 0.327555 0.0711619 -0.79091
v 0.419145 0.121507 -0.690348
v 0.409443 0.0776833 -0.748595
v 0.424486 0.0764163 -0.71877
v 0.425287 0.113309 -0.608139
v 0.428936 0.117743 -0.133622
v 0.410601 0.176994 0.251039
v 0.409978 0.176771 0.282393
v 0.422083 0.136077 -0.258911
v 0.419412 0.154933 0.209743
v 0.409488 0.172597 0.314129
v 0.398006 0.177553 0.349944
v 0.34331 0.200397 0.413417
v 0.241439 0.168833 0.509774
v 0.375843 0.202968 0.371357
v 0.352923 0.233451 0.377985
v 0.0906572 0.277125 0.509774
v 0.0942176 0.386647 0.40628
v 0.0542525 0.386125 0.415711
v 0.0505586 0.410235 0.388181
v 0.0510927 0.42611 0.360778
v 0.0450846 0.439041 0.317316
v 0.0471318 0.442581 0.266716
v 0.0468647 0.443289 0.180301
v 0.0589255 0.435464 -0.63363
v 0.0471318 0.435911 -0.674798
v 0.015756 0.438296 -0.674798
v 0.00249368 0.43524 -0.703476
v 0.0471318 0.432147 -0.706152
v 0.0415242 0.415788 -0.743752
v 0.00280522 0.397304 -0.765419
v 0.015756 0.36153 -0.78288
v 0.170988 0.305782 -0.786067
v 0.121232 0.354152 -0.778292
v 0.153409 0.336078 -0.780969
v 0.208016 0.266803 -0.788743
v 0.239302 0.237438 -0.789763
v 0.290349 0.182509 -0.790783
v 0.329513 0.135518 -0.787979
v 0.349674 0.10988 -0.785047
v 0.363426 0.0772361 -0.78288
v 0.410066 0.156238 -0.659121
v 0.419546 0.130115 -0.639493
v 0.399875 0.155679 -0.723486
v 0.407085 0.157617 -0.691112
v 0.41069 0.105595 -0.735977
v 0.388037 0.0818569 -0.76886
v 0.372104 0.150164 -0.76389
v 0.423373 0.124339 -0.509998
v 0.393066 0.213253 0.251039
v 0.415496 0.164846 0.180301
v 0.400988 0.198235 0.213694
v 0.392665 0.212508 0.282393
v 0.417766 0.138723 -0.572834
v 0.411001 0.157169 -0.600237
v 0.413449 0.164846 -0.0785611
v 0.393155 0.204049 0.321904
v 0.368989 0.234457 0.345866
v 0.320924 0.235575 0.41176
v 0.294844 0.255698 0.419535
v 0.204856 0.210682 0.509774
v 0.336545 0.268107 0.363837
v 0.306282 0.279696 0.390475
v 0.125994 0.263747 0.509774
v 0.128753 0.373641 0.408701
v 0.125282 0.393578 0.388181
v 0.0923484 0.409825 0.37722
v 0.0824239 0.428234 0.341405
v 0.0774394 0.437141 0.298452
v 0.0802432 0.438296 0.262765
v 0.0812223 0.438072 0.156849
v 0.0959533 0.428682 -0.643444
v 0.0785075 0.431029 -0.674798
v 0.0942176 0.434159 -0.0549818
v 0.0775729 0.426483 -0.707554
v 0.12141 0.40867 -0.728075
v 0.0785075 0.40118 -0.754713
v 0.0914583 0.376436 -0.771537
v 0.0490455 0.376995 -0.775361
v 0.236187 0.280293 -0.783008
v 0.158838 0.369356 -0.761595
v 0.218875 0.337159 -0.762742
v 0.284074 0.231699 -0.78339
v 0.324306 0.173231 -0.785047
v 0.393911 0.192049 -0.668935
v 0.405928 0.168759 -0.631591
v 0.382607 0.199167 -0.715839
v 0.362447 0.186832 -0.757007
v 0.361557 0.217017 -0.739673
v 0.311222 0.212247 -0.780204
v 0.376733 0.240382 0.25499
v 0.394445 0.20498 -0.12572
v 0.381806 0.227637 -0.133622
v 0.382073 0.231699 0.192154
v 0.40971 0.173491 -0.110043
v 0.377089 0.236544 0.304698
v 0.361067 0.259163 0.313747
v 0.336278 0.286851 0.324071
v 0.278734 0.282268 0.411378
v 0.243085 0.301944 0.419663
v 0.160885 0.245077 0.509774
v 0.298894 0.304738 0.369827
v 0.310554 0.308651 0.343317
v 0.265605 0.307012 0.400289
v 0.22337 0.312191 0.422339
v 0.168896 0.366486 0.399397
v 0.203387 0.377032 0.364347
v 0.159995 0.398795 0.359886
v 0.128753 0.413403 0.351601
v 0.113711 0.42775 0.313747
v 0.109928 0.431253 0.282393
v 0.111841 0.431625 0.238293
v 0.109928 0.43211 0.184252
v 0.121632 0.419067 -0.686142
v 0.124837 0.423576 -0.44729
v 0.12813 0.421452 -0.572834
v 0.1304 0.419589 -0.643444
v 0.117761 0.428868 -0.015853
v 0.129198 0.389404 -0.753056
v 0.156925 0.406248 -0.694554
v 0.168318 0.392385 -0.72629
v 0.263157 0.265722 -0.780459
v 0.194086 0.360077 -0.753948
v 0.231915 0.354711 -0.7333
v 0.249717 0.318601 -0.759429
v 0.379269 0.218433 -0.676583
v 0.394267 0.194509 -0.619865
v 0.361245 0.239637 -0.707427
v 0.339349 0.229985 -0.75484
v 0.339883 0.257486 -0.729222
v 0.310866 0.255139 -0.762488
v 0.355103 0.270604 0.280354
v 0.375531 0.241612 0.13327
v 0.347716 0.281634 0.239695
v 0.379981 0.231177 -0.0962774
v 0.370279 0.236767 -0.62662
v 0.28937 0.333991 0.324963
v 0.311444 0.319309 0.280481
v 0.246557 0.328402 0.393662
v 0.260042 0.337606 0.369827
v 0.214691 0.345581 0.396466
v 0.230268 0.367381 0.352748
v 0.194175 0.392236 0.341022
v 0.160574 0.412993 0.31362
v 0.142327 0.422086 0.282393
v 0.134628 0.425328 0.137221
v 0.152652 0.419552 0.252059
v 0.137877 0.423502 0.0311781
v 0.161509 0.409937 -0.541352
v 0.16854 0.405428 -0.643444
v 0.1879 0.393466 -0.690475
v 0.20183 0.380498 -0.717751
v 0.285721 0.287112 -0.759556
v 0.261777 0.337457 -0.7268
v 0.355415 0.25499 -0.676328
v 0.328801 0.282454 -0.707554
v 0.306282 0.303322 -0.714182
v 0.365517 0.254505 -0.0511582
v 0.358486 0.263523 -0.0943656
v 0.346113 0.283199 0.205792
v 0.321502 0.310738 0.15481
v 0.311133 0.320986 0.20388
v 0.347627 0.269672 -0.572834
v 0.245756 0.367679 0.323051
v 0.269343 0.354785 0.297305
v 0.299784 0.331383 0.239186
v 0.203877 0.393913 0.314129
v 0.172635 0.411092 0.282393
v 0.157014 0.418098 0.219557
v 0.188834 0.404906 0.251039
v 0.172768 0.408074 -0.237243
v 0.174815 0.404124 -0.572834
v 0.171834 0.41195 0.176477
v 0.204811 0.389292 -0.627767
v 0.218563 0.377852 -0.686142
v 0.253722 0.354748 -0.68971
v 0.282427 0.3287 -0.707554
v 0.320078 0.298478 -0.674798
v 0.334142 0.284727 -0.639493
v 0.322749 0.299037 -0.572834
v 0.305659 0.325271 0.105867
v 0.305436 0.315284 -0.631591
v 0.29796 0.329408 -0.133622
v 0.299829 0.331085 0.141172
v 0.234407 0.379529 0.282393
v 0.270901 0.354822 0.268755
v 0.282071 0.346922 0.195978
v 0.204233 0.396559 0.282393
v 0.221545 0.387951 0.251039
v 0.204188 0.397379 0.207831
v 0.182159 0.407031 0.109818
v 0.236721 0.371554 -0.545303
v 0.235653 0.370399 -0.645356
v 0.221901 0.387392 0.164624
v 0.237522 0.378076 0.125495
v 0.273437 0.344239 -0.627767
v 0.280425 0.336525 -0.661033
v 0.259285 0.363803 0.235362
v 0.245889 0.373418 0.211783
v 0.269922 0.347742 -0.572834
v 0.250073 0.361866 -0.613874
f 1 2 3
f 1 3 4
f 1 4 5
f 1 5 6
f 1 6 22
f 1 22 23
f 1 23 7
f 1 7 2
f 2 7 8
f 2 8 3
f 3 8 9
f 3 9 10
f 3 10 11
f 3 11 12
f 3 12 4
f 4 13 14
f 4 14 5
f 4 12 15
f 4 15 13
f 5 16 6
f 5 14 17
f 5 17 18
f 5 18 16
f 6 16 35
f 6 35 67
f 6 67 114
f 6 114 154
f 6 154 117
f 6 117 70
f 6 70 39
f 6 39 19
f 6 19 20
f 6 20 21
f 6 21 53
f 6 53 22
f 7 23 24
f 7 24 25
f 7 25 26
f 7 26 27
f 7 27 8
f 8 27 9
f 9 28 10
f 9 27 28
f 10 29 11
f 10 28 30
f 10 30 29
f 11 29 15
f 11 15 12
f 13 15 31
f 13 31 32
f 13 32 33
f 13 33 14
f 14 33 17
f 15 29 34
f 15 34 31
f 16 18 36
f 16 36 35
f 17 33 32
f 17 32 37
f 17 37 18
f 18 37 38
f 18 38 36
f 19 39 40
f 19 40 20
f 20 40 41
f 20 41 42
f 20 42 43
f 20 43 44
f 20 44 45
f 20 45 46
f 20 46 47
f 20 47 48
f 20 48 21
f 21 48 49
f 21 49 50
f 21 50 51
f 21 51 52
f 21 52 23
f 21 23 53
f 22 53 23
f 23 52 54
f 23 54 24
f 24 55 25
f 24 54 56
f 24 56 57
f 24 57 55
f 25 55 58
f 25 58 26
f 26 28 27
f 26 58 28
f 28 58 59
f 28 59 30
f 29 60 61
f 29 61 34
f 29 30 62
f 29 62 63
f 29 63 60
f 30 59 62
f 31 64 65
f 31 65 32
f 31 34 64
f 32 65 37
f 34 61 64
f 35 36 66
f 35 66 67
f 36 38 66
f 37 65 68
f 37 68 38
f 38 68 69
f 38 69 66
f 39 70 71
f 39 71 72
f 39 72 40
f 40 72 73
f 40 73 41
f 41 73 74
f 41 74 42
f 42 74 75
f 42 75 43
f 43 76 44
f 43 75 76
f 44 76 45
f 45 76 77
f 45 77 46
f 46 78 79
f 46 79 80
f 46 80 81
f 46 81 47
f 46 77 78
f 47 81 82
f 47 82 83
f 47 83 84
f 47 84 48
f 48 84 85
f 48 85 49
f 49 86 50
f 49 85 87
f 49 87 88
f 49 88 86
f 50 89 90
f 50 90 51
f 50 86 89
f 51 90 91
f 51 91 92
f 51 92 54
f 51 54 52
f 54 92 93
f 54 93 94
f 54 94 56
f 55 95 96
f 55 96 58
f 55 57 97
f 55 97 98
f 55 98 95
f 56 99 57
f 56 94 100
f 56 100 101
f 56 101 99
f 57 99 97
f 58 96 102
f 58 102 59
f 59 102 62
f 60 103 61
f 60 63 104
f 60 104 105
f 60 105 103
f 61 103 106
f 61 106 64
f 62 102 107
f 62 107 108
f 62 108 109
f 62 109 63
f 63 109 104
f 64 110 65
f 64 106 110
f 65 110 111
f 65 111 68
f 66 69 112
f 66 112 67
f 67 113 114
f 67 112 113
f 68 111 69
f 69 111 115
f 69 115 116
f 69 116 112
f 70 117 118
f 70 118 71
f 71 118 119
f 71 119 120
f 71 120 73
f 71 73 72
f 73 120 74
f 74 120 121
f 74 121 75
f 75 121 122
f 75 122 76
f 76 123 77
f 76 122 123
f 77 123 124
f 77 124 78
f 78 125 126
f 78 126 79
f 78 124 127
f 78 127 125
f 79 126 82
f 79 82 80
f 80 82 81
f 82 128 83
f 82 126 128
f 83 128 129
f 83 129 130
f 83 130 84
f 84 131 132
f 84 132 85
f 84 130 131
f 85 132 87
f 86 88 133
f 86 133 89
f 87 132 131
f 87 131 134
f 87 134 88
f 88 134 135
f 88 135 133
f 89 133 90
f 90 133 91
f 91 133 136
f 91 136 137
f 91 137 92
f 92 137 93
f 93 137 101
f 93 101 100
f 93 100 94
f 95 98 138
f 95 138 139
f 95 139 108
f 95 108 96
f 96 108 107
f 96 107 102
f 97 140 98
f 97 99 101
f 97 101 141
f 97 141 142
f 97 142 140
f 98 140 138
f 101 137 143
f 101 143 141
f 103 144 106
f 103 105 145
f 103 145 146
f 103 146 147
f 103 147 144
f 104 109 148
f 104 148 105
f 105 148 145
f 106 149 110
f 106 144 149
f 108 139 148
f 108 148 109
f 110 149 111
f 111 149 150
f 111 150 151
f 111 151 115
f 112 116 113
f 113 116 152
f 113 152 114
f 114 152 153
f 114 153 154
f 115 155 116
f 115 151 156
f 115 156 155
f 116 157 152
f 116 155 157
f 117 154 158
f 117 158 159
f 117 159 118
f 118 159 119
f 119 159 160
f 119 160 161
f 119 161 162
f 119 162 120
f 120 162 121
f 121 162 163
f 121 163 122
f 122 163 164
f 122 164 123
f 123 164 165
f 123 165 166
f 123 166 124
f 124 166 127
f 125 167 126
f 125 127 168
f 125 168 169
f 125 169 170
f 125 170 167
f 126 167 128
f 127 171 168
f 127 166 171
f 128 167 129
f 129 172 130
f 129 167 173
f 129 173 174
f 129 174 172
f 130 172 131
f 131 172 134
f 133 135 175
f 133 175 136
f 134 172 176
f 134 176 135
f 135 176 177
f 135 177 178
f 135 178 175
f 136 175 143
f 136 143 137
f 138 179 180
f 138 180 139
f 138 140 179
f 139 180 148
f 140 181 179
f 140 142 181
f 141 182 142
f 141 143 182
f 142 182 183
f 142 183 181
f 143 175 184
f 143 184 182
f 144 185 149
f 144 147 186
f 144 186 187
f 144 187 185
f 145 148 180
f 145 180 146
f 146 188 147
f 146 180 189
f 146 189 188
f 147 188 186
f 149 185 150
f 150 185 151
f 151 190 156
f 151 185 191
f 151 191 190
f 152 157 153
f 153 158 154
f 153 157 192
f 153 192 158
f 155 156 193
f 155 193 157
f 156 190 193
f 157 193 192
f 158 192 194
f 158 194 159
f 159 194 160
f 160 193 195
f 160 195 196
f 160 196 161
f 160 194 192
f 160 192 193
f 161 196 162
f 162 196 197
f 162 197 163
f 163 197 198
f 163 198 164
f 164 198 165
f 165 199 166
f 165 198 200
f 165 200 199
f 166 199 171
f 167 170 173
f 168 171 199
f 168 199 201
f 168 201 169
f 169 201 202
f 169 202 170
f 170 203 173
f 170 202 203
f 172 174 176
f 173 204 205
f 173 205 174
f 173 203 204
f 174 205 177
f 174 177 176
f 175 178 206
f 175 206 184
f 177 205 207
f 177 207 178
f 178 207 206
f 179 208 189
f 179 189 180
f 179 181 208
f 181 183 209
f 181 209 208
f 182 184 183
f 183 184 206
f 183 206 210
f 183 210 209
f 185 187 191
f 186 188 211
f 186 211 187
f 187 211 212
f 187 212 213
f 187 213 214
f 187 214 215
f 187 215 191
f 188 189 211
f 189 208 216
f 189 216 211
f 190 217 195
f 190 195 193
f 190 191 218
f 190 218 217
f 191 215 219
f 191 219 218
f 195 217 196
f 196 217 220
f 196 220 197
f 197 221 198
f 197 220 221
f 198 221 200
f 199 200 222
f 199 222 201
f 200 221 223
f 200 223 222
f 201 222 202
f 202 224 225
f 202 225 203
f 202 222 226
f 202 226 224
f 203 225 227
f 203 227 204
f 204 227 228
f 204 228 205
f 205 228 229
f 205 229 207
f 206 207 210
f 207 229 230
f 207 230 210
f 208 231 232
f 208 232 216
f 208 209 231
f 209 210 230
f 209 230 231
f 211 216 212
f 212 216 213
f 213 216 232
f 213 232 233
f 213 233 214
f 214 234 215
f 214 233 235
f 214 235 236
f 214 236 234
f 215 234 237
f 215 237 219
f 217 218 238
f 217 238 220
f 218 219 239
f 218 239 238
f 219 237 240
f 219 240 239
f 220 238 241
f 220 241 221
f 221 241 223
f 222 223 226
f 223 241 242
f 223 242 243
f 223 243 244
f 223 244 226
f 224 226 244
f 224 244 225
f 225 244 227
f 227 245 246
f 227 246 228
f 227 244 243
f 227 243 247
f 227 247 248
f 227 248 245
f 228 246 229
f 229 246 249
f 229 249 250
f 229 250 230
f 230 250 231
f 231 250 235
f 231 235 233
f 231 233 232
f 234 236 237
f 235 250 249
f 235 249 236
f 236 249 240
f 236 240 237
f 238 239 251
f 238 251 252
f 238 252 242
f 238 242 241
f 239 240 251
f 240 252 251
f 240 249 253
f 240 253 254
f 240 254 252
f 242 252 248
f 242 248 247
f 242 247 243
f 245 254 246
f 245 248 252
f 245 252 254
f 246 254 249
f 249 254 253
