v 0.00279157 -0.444229 -0.621741
v -0.00589112 -0.436161 -0.713912
v 0.00279157 -0.442187 -0.672918
v 0.0466098 -0.439697 -0.674701
v 0.049624 -0.440444 -0.611938
v 0.0157481 -0.44154 0.203852
v 0.0078752 -0.442038 0.164769
v 0.00252163 -0.441739 0.252484
v -0.00175222 -0.439896 0.301498
v -0.0118745 -0.314142 -0.786859
v -0.00395663 -0.401099 -0.764962
v 0.0293345 -0.425951 -0.736191
v 0.030909 -0.437257 -0.705509
v 0.0892584 -0.432276 -0.67381
v 0.0942071 -0.432725 -0.627724
v 0.0717131 -0.42889 -0.716076
v 0.0643351 -0.436908 0.23517
v 0.0388719 -0.43905 0.285839
v 0.0530431 -0.434318 0.323649
v 0.00220672 -0.430782 0.350002
v 0.00279157 -0.4137 0.385267
v 0.00279157 -0.389097 0.41582
v 0.00270159 -0.286949 0.509774
v -0.0124144 0.064566 0.509774
v 0.263902 0.064566 -0.78495
v 0.301197 0.064566 -0.790551
v 0.0393218 -0.321712 -0.789023
v 0.0224963 -0.36539 -0.783295
v -0.0124144 0.064566 -0.733008
v 0.0471497 -0.399456 -0.765217
v 0.087189 -0.403589 -0.755287
v 0.1396 -0.41868 -0.666935
v 0.125519 -0.413899 -0.719895
v 0.15656 -0.410014 -0.694052
v 0.136676 -0.420573 -0.627724
v 0.106984 -0.42874 0.23899
v 0.107659 -0.427844 0.278455
v 0.0961416 -0.427147 0.323013
v 0.0514685 -0.424407 0.360951
v 0.0824652 -0.412056 0.376864
v 0.0470597 -0.393629 0.409073
v 0.0620407 -0.281072 0.509774
v 0.291749 0.0455907 0.509774
v 0.442414 0.0596852 0.286221
v 0.441964 0.064566 0.170752
v 0.388923 0.0596852 -0.771837
v 0.348209 0.0477821 -0.788132
v 0.337412 -7.93126e-05 -0.790296
v 0.243252 -0.211845 -0.790551
v 0.129523 -0.310705 -0.790296
v 0.44003 0.064566 -0.147645
v 0.434451 0.0596852 -0.662352
v 0.057047 -0.345817 -0.787114
v 0.108648 -0.340289 -0.78635
v 0.0942071 -0.376446 -0.775019
v 0.167133 -0.384315 -0.747394
v 0.131412 -0.378638 -0.76649
v 0.173701 -0.405831 -0.657132
v 0.186118 -0.394326 -0.707801
v 0.149137 -0.415742 0.243191
v 0.137845 -0.418481 0.29806
v 0.144819 -0.412753 0.329124
v 0.126778 -0.409367 0.359168
v 0.14059 -0.389595 0.387431
v 0.0931274 -0.39084 0.404999
v 0.0956467 -0.364344 0.431097
v 0.109998 -0.267675 0.509774
v 0.295348 -0.00396401 0.509774
v 0.388383 0.0445449 0.421549
v 0.445158 0.0234779 0.294114
v 0.444303 0.0494754 0.251084
v 0.442594 0.0621256 0.21722
v 0.436116 0.0492264 0.340963
v 0.443539 0.0548543 0.164769
v 0.443314 0.0548543 0.125431
v 0.440345 0.064566 -0.108689
v 0.417266 0.0451923 -0.742556
v 0.395087 0.02547 -0.769673
v 0.375697 -0.0108369 -0.780366
v 0.358107 -0.0686093 -0.784695
v 0.274654 -0.180568 -0.790042
v 0.321756 -0.125635 -0.789023
v 0.219724 -0.266779 -0.789533
v 0.174691 -0.296213 -0.790169
v 0.439175 0.062524 -0.293286
v 0.436206 0.0596852 -0.614484
v 0.439265 0.0238265 -0.616394
v 0.433686 0.0300022 -0.701181
v 0.205642 -0.305227 -0.784695
v 0.164703 -0.344174 -0.778457
v 0.206452 -0.361057 -0.750067
v 0.245367 -0.353786 -0.725879
v 0.236099 -0.325447 -0.765726
v 0.217969 -0.380779 -0.69036
v 0.188547 -0.399605 -0.611938
v 0.185533 -0.401099 0.247137
v 0.17514 -0.404685 0.296151
v 0.204743 -0.384365 0.338672
v 0.173656 -0.393928 0.355986
v 0.174556 -0.377393 0.386667
v 0.158495 -0.343377 0.430716
v 0.14032 -0.25363 0.509774
v 0.287745 -0.0624834 0.509774
v 0.386584 -0.0589474 0.421677
v 0.398776 -0.0157675 0.412638
v 0.408763 0.0156587 0.40118
v 0.41875 0.0427519 0.38272
v 0.444393 -0.0157675 0.3099
v 0.446823 -0.0157675 0.251084
v 0.446688 0.0156587 0.239244
v 0.445563 0.0274124 0.0979321
v 0.431572 -7.93126e-05 0.360696
v 0.443764 0.0392159 -0.0471991
v 0.441874 0.0548543 -0.0707511
v 0.420505 -7.93126e-05 -0.742683
v 0.409438 -0.0470443 -0.752995
v 0.399405 -0.0860406 -0.758215
v 0.378486 -0.133055 -0.765471
v 0.352528 -0.104368 -0.783931
v 0.300072 -0.19023 -0.786859
v 0.317077 -0.161145 -0.786732
v 0.265341 -0.248002 -0.785204
v 0.439805 0.0497743 -0.392331
v 0.439535 0.0476825 -0.443509
v 0.43967 -0.0116338 -0.627724
v 0.436161 -0.0157675 -0.690487
v 0.441469 0.0392159 -0.305889
v 0.444348 0.0234779 -0.117855
v 0.443449 0.0156587 -0.251019
v 0.441334 0.00778969 -0.478646
v 0.432652 -0.0471439 -0.702327
v 0.248876 -0.290485 -0.777566
v 0.2702 -0.325846 -0.74001
v 0.286441 -0.330179 -0.699653
v 0.262732 -0.35264 -0.677629
v 0.281582 -0.27664 -0.771582
v 0.247391 -0.365539 -0.629634
v 0.2132 -0.386855 -0.58062
v 0.213425 -0.387104 0.25694
v 0.216844 -0.383718 0.305954
v 0.253195 -0.354732 0.340327
v 0.221928 -0.363647 0.36808
v 0.203168 -0.351744 0.401307
v 0.219409 -0.309809 0.430843
v 0.172261 -0.234257 0.509774
v 0.270965 -0.113582 0.509774
v 0.356982 -0.117766 0.436062
v 0.38204 -0.107058 0.415311
v 0.412002 -0.0594952 0.389722
v 0.440569 -0.0670156 0.29144
v 0.436296 -0.0467953 0.340836
v 0.441829 -0.0655215 0.241281
v 0.443674 -0.0550129 0.196087
v 0.446958 -0.0216443 0.197996
v 0.447138 -0.00789851 0.125431
v 0.417851 -0.0974955 -0.725879
v 0.411327 -0.135446 -0.715694
v 0.36409 -0.194663 -0.753504
v 0.356487 -0.160099 -0.773746
v 0.316088 -0.2233 -0.775147
v 0.435126 -0.0628321 -0.647329
v 0.442009 -0.00789851 -0.431415
v 0.439535 -0.0322027 -0.552994
v 0.445248 0.00778969 -0.0707511
v 0.443044 0.00385519 -0.321675
v 0.430312 -0.0785203 -0.690487
v 0.312129 -0.254328 -0.765089
v 0.311319 -0.288593 -0.736318
v 0.329584 -0.288443 -0.693288
v 0.304436 -0.319023 -0.64542
v 0.276678 -0.343775 -0.643383
v 0.27101 -0.348706 -0.557195
v 0.281852 -0.342381 0.270689
v 0.245142 -0.36783 0.286348
v 0.23349 -0.37555 -0.0707511
v 0.274969 -0.345369 0.313719
v 0.285451 -0.330179 0.340327
v 0.260168 -0.333466 0.3761
v 0.234839 -0.335259 0.397361
v 0.202223 -0.210052 0.509774
v 0.266826 -0.290635 0.416202
v 0.246671 -0.158356 0.509774
v 0.34389 -0.169611 0.428424
v 0.38213 -0.142568 0.401307
v 0.412092 -0.106012 0.374573
v 0.428963 -0.0785203 0.348984
v 0.432517 -0.102077 0.307863
v 0.432337 -0.111889 0.202961
v 0.435531 -0.0909214 -0.0982496
v 0.440345 -0.0626328 -0.141152
v 0.444933 -0.0432094 0.156876
v 0.442414 -0.0392749 -0.219574
v 0.442909 -0.0275212 -0.254966
v 0.442639 -0.0235867 -0.305889
v 0.394952 -0.178128 -0.714548
v 0.421315 -0.121202 -0.682212
v 0.409123 -0.156762 -0.690742
v 0.354957 -0.23092 -0.739501
v 0.43904 -0.059047 -0.337334
v 0.426533 -0.110195 -0.644401
v 0.440165 -0.0527717 -0.298123
v 0.354238 -0.25378 -0.706655
v 0.349514 -0.267376 -0.663116
v 0.339077 -0.282417 -0.627724
v 0.331429 -0.292577 -0.525623
v 0.312894 -0.312947 -0.439435
v 0.297058 -0.328535 -0.258912
v 0.306325 -0.322011 0.201943
v 0.30925 -0.318624 0.256049
v 0.301377 -0.324601 0.29806
v 0.317662 -0.304978 0.32314
v 0.336107 -0.277536 0.346056
v 0.295258 -0.300545 0.379156
v 0.226427 -0.185449 0.509774
v 0.300252 -0.245562 0.423841
v 0.333993 -0.251489 0.385776
v 0.332328 -0.208558 0.41964
v 0.367014 -0.198996 0.386922
v 0.393107 -0.163286 0.374063
v 0.409528 -0.148146 0.350002
v 0.423114 -0.120704 0.335489
v 0.415376 -0.158455 0.29806
v 0.429053 -0.122397 0.251084
v 0.423159 -0.142668 0.224094
v 0.427118 -0.12419 -0.117855
v 0.396841 -0.188885 -0.674828
v 0.377361 -0.218967 -0.70029
v 0.412137 -0.15726 -0.640455
v 0.382265 -0.219266 -0.640455
v 0.360581 -0.254477 -0.610028
v 0.356082 -0.264687 -0.30207
v 0.335568 -0.28929 -0.337334
v 0.329989 -0.298603 0.211746
v 0.313209 -0.313245 -0.321675
v 0.340111 -0.285804 0.279728
v 0.360041 -0.256917 0.314738
v 0.360041 -0.242026 0.355222
v 0.396571 -0.184353 0.345164
v 0.395627 -0.203478 0.294114
v 0.410652 -0.174791 0.237335
v 0.41902 -0.153923 0.185265
v 0.419695 -0.146602 -0.156811
v 0.407008 -0.178327 -0.266806
v 0.395896 -0.201087 -0.296086
v 0.389328 -0.214186 -0.258912
v 0.374482 -0.238092 -0.325495
v 0.36427 -0.255573 0.0076707
v 0.350728 -0.273651 0.092076
v 0.341596 -0.285056 0.243191
v 0.36364 -0.257166 0.235298
v 0.369399 -0.248301 0.270689
v 0.382895 -0.214285 0.338926
v 0.387979 -0.219913 0.251084
v 0.393737 -0.206665 -0.196022
v 0.385504 -0.223051 -0.0119347
f 1 2 3
f 1 3 4
f 1 4 5
f 1 5 6
f 1 6 7
f 1 7 8
f 1 8 9
f 1 9 2
f 2 10 11
f 2 11 12
f 2 12 13
f 2 13 3
f 2 9 10
f 3 13 4
f 4 14 15
f 4 15 5
f 4 13 16
f 4 16 14
f 5 15 17
f 5 17 6
f 6 17 18
f 6 18 8
f 6 8 7
f 8 18 9
f 9 18 19
f 9 19 20
f 9 20 21
f 9 21 22
f 9 22 23
f 9 23 24
f 9 24 10
f 10 25 26
f 10 26 27
f 10 27 28
f 10 28 11
f 10 24 29
f 10 29 25
f 11 30 12
f 11 28 30
f 12 30 31
f 12 31 16
f 12 16 13
f 14 32 15
f 14 16 33
f 14 33 34
f 14 34 32
f 15 32 35
f 15 35 36
f 15 36 17
f 16 31 33
f 17 36 37
f 17 37 18
f 18 37 38
f 18 38 19
f 19 39 20
f 19 38 39
f 20 39 21
f 21 39 40
f 21 40 41
f 21 41 22
f 22 41 23
f 23 42 67
f 23 67 102
f 23 102 145
f 23 145 180
f 23 180 214
f 23 214 182
f 23 182 146
f 23 146 103
f 23 103 68
f 23 68 43
f 23 43 24
f 23 41 42
f 24 43 44
f 24 44 45
f 24 45 76
f 24 76 51
f 24 51 26
f 24 26 25
f 24 25 29
f 26 46 47
f 26 47 48
f 26 48 49
f 26 49 50
f 26 50 27
f 26 51 52
f 26 52 46
f 27 50 53
f 27 53 28
f 28 53 54
f 28 54 55
f 28 55 30
f 30 55 31
f 31 56 33
f 31 55 57
f 31 57 56
f 32 58 35
f 32 34 58
f 33 59 34
f 33 56 59
f 34 59 58
f 35 58 60
f 35 60 36
f 36 60 61
f 36 61 37
f 37 61 38
f 38 61 62
f 38 62 63
f 38 63 39
f 39 63 40
f 40 63 64
f 40 64 65
f 40 65 41
f 41 65 66
f 41 66 42
f 42 66 67
f 43 68 69
f 43 69 44
f 44 70 71
f 44 71 72
f 44 72 45
f 44 69 73
f 44 73 70
f 45 72 74
f 45 74 75
f 45 75 76
f 46 77 78
f 46 78 79
f 46 79 47
f 46 52 77
f 47 79 80
f 47 80 48
f 48 81 49
f 48 80 82
f 48 82 81
f 49 81 83
f 49 83 84
f 49 84 50
f 50 84 54
f 50 54 53
f 51 85 86
f 51 86 52
f 51 76 85
f 52 86 87
f 52 87 88
f 52 88 77
f 54 84 89
f 54 89 90
f 54 90 55
f 55 90 57
f 56 57 91
f 56 91 92
f 56 92 59
f 57 90 93
f 57 93 91
f 58 59 94
f 58 94 95
f 58 95 96
f 58 96 60
f 59 92 94
f 60 96 97
f 60 97 61
f 61 97 62
f 62 98 99
f 62 99 63
f 62 97 98
f 63 99 64
f 64 99 100
f 64 100 101
f 64 101 65
f 65 101 66
f 66 101 67
f 67 101 102
f 68 103 104
f 68 104 105
f 68 105 69
f 69 105 106
f 69 106 107
f 69 107 73
f 70 108 109
f 70 109 110
f 70 110 71
f 70 73 108
f 71 110 111
f 71 111 74
f 71 74 72
f 73 107 112
f 73 112 108
f 74 111 113
f 74 113 75
f 75 113 114
f 75 114 76
f 76 114 85
f 77 88 115
f 77 115 78
f 78 115 116
f 78 116 117
f 78 117 79
f 79 117 80
f 80 117 118
f 80 118 119
f 80 119 82
f 81 82 120
f 81 120 83
f 82 121 120
f 82 119 121
f 83 120 122
f 83 122 89
f 83 89 84
f 85 114 123
f 85 123 86
f 86 123 124
f 86 124 87
f 87 125 126
f 87 126 88
f 87 124 127
f 87 127 128
f 87 128 129
f 87 129 130
f 87 130 125
f 88 131 115
f 88 126 131
f 89 132 93
f 89 93 90
f 89 122 132
f 91 133 92
f 91 93 133
f 92 134 135
f 92 135 94
f 92 133 134
f 93 132 136
f 93 136 133
f 94 135 137
f 94 137 138
f 94 138 95
f 95 138 139
f 95 139 96
f 96 139 97
f 97 139 140
f 97 140 98
f 98 140 141
f 98 141 142
f 98 142 99
f 99 142 100
f 100 142 143
f 100 143 101
f 101 143 144
f 101 144 102
f 102 144 145
f 103 146 147
f 103 147 104
f 104 148 149
f 104 149 105
f 104 147 148
f 105 149 106
f 106 149 112
f 106 112 107
f 108 150 109
f 108 112 151
f 108 151 150
f 109 150 152
f 109 152 153
f 109 153 154
f 109 154 155
f 109 155 110
f 110 155 111
f 111 155 128
f 111 128 113
f 112 149 151
f 113 128 127
f 113 127 124
f 113 124 123
f 113 123 114
f 115 131 156
f 115 156 116
f 116 156 117
f 117 156 118
f 118 156 157
f 118 157 158
f 118 158 159
f 118 159 119
f 119 159 121
f 120 121 159
f 120 159 160
f 120 160 122
f 122 160 136
f 122 136 132
f 125 161 126
f 125 130 162
f 125 162 163
f 125 163 161
f 126 161 131
f 128 155 164
f 128 164 129
f 129 164 165
f 129 165 130
f 130 165 162
f 131 161 166
f 131 166 156
f 133 136 167
f 133 167 168
f 133 168 134
f 134 168 169
f 134 169 170
f 134 170 171
f 134 171 135
f 135 171 137
f 136 160 167
f 137 171 172
f 137 172 173
f 137 173 174
f 137 174 175
f 137 175 138
f 138 175 139
f 139 174 140
f 139 175 174
f 140 174 176
f 140 176 141
f 141 177 178
f 141 178 142
f 141 176 177
f 142 178 179
f 142 179 143
f 143 179 144
f 144 180 145
f 144 179 181
f 144 181 180
f 146 182 183
f 146 183 147
f 147 183 184
f 147 184 148
f 148 184 185
f 148 185 149
f 149 185 186
f 149 186 151
f 150 151 187
f 150 187 188
f 150 188 152
f 151 186 187
f 152 188 189
f 152 189 153
f 153 189 190
f 153 190 191
f 153 191 154
f 154 191 192
f 154 192 193
f 154 193 155
f 155 193 194
f 155 194 162
f 155 162 165
f 155 165 164
f 156 166 157
f 157 195 158
f 157 166 196
f 157 196 197
f 157 197 195
f 158 198 167
f 158 167 159
f 158 195 198
f 159 167 160
f 161 163 199
f 161 199 200
f 161 200 166
f 162 194 163
f 163 194 193
f 163 193 192
f 163 192 201
f 163 201 199
f 166 200 196
f 167 198 168
f 168 198 202
f 168 202 169
f 169 203 204
f 169 204 170
f 169 202 203
f 170 204 205
f 170 205 206
f 170 206 207
f 170 207 171
f 171 207 172
f 172 207 173
f 173 208 209
f 173 209 210
f 173 210 176
f 173 176 174
f 173 207 208
f 176 210 211
f 176 211 177
f 177 212 213
f 177 213 178
f 177 211 212
f 178 213 181
f 178 181 179
f 180 181 215
f 180 215 214
f 181 213 216
f 181 216 215
f 182 214 215
f 182 215 217
f 182 217 183
f 183 217 218
f 183 218 184
f 184 218 219
f 184 219 185
f 185 219 220
f 185 220 221
f 185 221 186
f 186 221 187
f 187 222 223
f 187 223 188
f 187 221 222
f 188 223 224
f 188 224 225
f 188 225 189
f 189 225 200
f 189 200 190
f 190 200 199
f 190 199 201
f 190 201 192
f 190 192 191
f 195 197 226
f 195 226 227
f 195 227 198
f 196 200 228
f 196 228 197
f 197 228 226
f 198 227 202
f 200 225 228
f 202 227 203
f 203 229 230
f 203 230 204
f 203 227 229
f 204 230 231
f 204 231 232
f 204 232 205
f 205 232 233
f 205 233 206
f 206 234 207
f 206 233 234
f 207 234 208
f 208 233 209
f 208 234 233
f 209 235 210
f 209 233 235
f 210 235 211
f 211 235 236
f 211 236 212
f 212 237 216
f 212 216 213
f 212 236 237
f 215 216 217
f 216 237 218
f 216 218 217
f 218 237 219
f 219 237 238
f 219 238 220
f 220 238 221
f 221 238 222
f 222 239 240
f 222 240 224
f 222 224 223
f 222 238 239
f 224 240 241
f 224 241 242
f 224 242 225
f 225 242 228
f 226 228 243
f 226 243 244
f 226 244 229
f 226 229 227
f 228 242 243
f 229 244 245
f 229 245 246
f 229 246 230
f 230 246 231
f 231 246 247
f 231 247 248
f 231 248 232
f 232 248 233
f 233 248 249
f 233 249 235
f 235 249 250
f 235 250 251
f 235 251 236
f 236 251 239
f 236 239 252
f 236 252 237
f 237 252 238
f 238 252 239
f 239 251 253
f 239 253 240
f 240 253 254
f 240 254 243
f 240 243 241
f 241 243 242
f 243 254 244
f 244 254 245
f 245 254 255
f 245 255 246
f 246 255 247
f 247 255 250
f 247 250 248
f 248 250 249
f 250 255 253
f 250 253 251
f 253 255 254
