v 0.472 0.0429978 -0.0672237
v 0.468508 0.0486779 -0.0503989
v 0.468954 0.00743828 -0.0521948
v 0.471925 0.0223859 -0.0672237
v 0.437676 0.0486779 -0.201633
v 0.461301 0.0486779 -0.0219479
v 0.461301 0.00743828 -0.0219479
v 0.463084 -0.00843762 -0.0298877
v 0.464644 -0.0118205 -0.0474687
v 0.445625 -0.0672209 -0.141896
v 0.444511 -0.0672209 -0.15683
v 0.442951 -0.0672209 -0.171764
v 0.440871 -0.0672209 -0.186699
v 0.429801 -0.0522733 -0.225831
v 0.433516 0.0486779 -0.215622
v 0.456621 0.0486779 -0.00379983
v 0.457512 0.00743828 -0.00739164
v 0.419028 -0.112064 -0.0202465
v 0.424155 -0.112064 -0.0372604
v 0.339832 -0.0749937 0.258119
v 0.426458 -0.112064 -0.0521948
v 0.428538 -0.112064 -0.0672237
v 0.43359 -0.112064 -0.103803
v 0.435224 -0.112064 -0.12715
v 0.432698 -0.112064 -0.150686
v 0.427795 -0.112064 -0.186699
v 0.42564 -0.112064 -0.201633
v 0.43567 -0.073436 -0.204185
v 0.428241 0.0486779 -0.230084
v 0.427572 -0.0672209 -0.231502
v 0.451495 0.0429978 0.0123633
v 0.451569 0.0223859 0.0119852
v 0.34154 0.0486779 0.247343
v 0.451643 0.00762709 0.00792082
v 0.413753 -0.112064 -0.00739164
v 0.309966 -0.074915 0.284585
v 0.336043 -0.082908 0.246493
v 0.394734 -0.112064 0.0372225
v 0.344883 -0.0174376 0.255567
v 0.194216 0.0147547 0.433267
v 0.254691 -0.0319132 0.359351
v 0.285895 -0.0574027 0.320219
v 0.42252 -0.112064 -0.216567
v 0.41784 -0.112064 -0.230462
v 0.420588 0.0486779 -0.24965
v 0.4194 -0.0681807 -0.252391
v 0.331808 0.0486779 0.266059
v 0.276311 -0.0703992 0.306136
v 0.17178 -0.112064 0.212938
v 0.186787 -0.112064 0.209062
v 0.32111 -0.0813188 0.261333
v 0.267618 -0.062894 0.325891
v 0.32111 -0.0852367 0.246493
v 0.259372 -0.112064 0.177965
v 0.274379 -0.112064 0.168513
v 0.294141 -0.112064 0.153295
v 0.319847 -0.112064 0.133256
v 0.332179 -0.112064 0.122859
v 0.342729 -0.112064 0.111044
v 0.353204 -0.112064 0.0976216
v 0.365314 -0.112064 0.0820256
v 0.375121 -0.112064 0.0693597
v 0.387676 -0.112064 0.0513061
v 0.302165 0.0486779 0.302922
v 0.19756 0.0486779 0.429581
v 0.182107 0.0429978 0.448107
v 0.166728 0.0486779 0.46616
v 0.14808 0.0465065 0.479961
v 0.156773 0.0274366 0.459166
v 0.195182 -0.000318722 0.418711
v 0.235524 -0.0306072 0.374286
v 0.405655 -0.112064 -0.25948
v 0.410039 0.0486779 -0.274604
v 0.398523 -0.112064 -0.276305
v 0.406398 -0.0693922 -0.282165
v 0.111974 -0.112064 0.221161
v 0.14184 -0.112064 0.217191
v 0.224008 -0.112064 0.193655
v 0.24637 -0.112064 0.184014
v -0.0886187 -0.0629255 0.325985
v 0.0894627 -0.112064 0.22343
v 0.231512 -0.0460583 0.352829
v 0.126907 0.0486779 0.48412
v 0.14184 0.0326131 0.466728
v 0.186638 -0.000476064 0.4189
v 0.398375 -0.0522733 -0.300219
v 0.402907 0.0486779 -0.290483
v 0.389682 -0.112064 -0.296722
v 0.389757 -0.0716737 -0.316477
v -0.0522149 -0.0460583 0.352829
v -0.0564496 -0.0306859 0.37438
v -0.108158 -0.0627052 0.317856
v -0.134755 -0.0749465 0.284207
v -0.0970138 -0.0705409 0.306136
v 0.0673232 -0.112064 0.221634
v 0.186638 -0.013095 0.400657
v 0.0495671 0.0486779 0.484025
v 0.0317367 0.0458457 0.481
v 0.037383 0.0326131 0.466728
v -0.00734165 -0.013095 0.400657
v 0.388642 0.0486779 -0.319879
v 0.396146 0.0429978 -0.304756
v 0.365611 -0.0522733 -0.366006
v 0.356919 -0.112064 -0.341808
v 0.316652 -0.0723503 -0.456085
v 0.329059 -0.0716737 -0.437842
v 0.374527 -0.0761265 -0.345778
v 0.335745 -0.0522733 -0.425743
v -0.0223489 -0.0130792 0.400657
v -0.0898817 -0.0454447 0.344039
v 0.0225243 0.0274051 0.459166
v -0.0155882 0.0182949 0.434023
v -0.160906 -0.0752769 0.258308
v -0.15682 -0.08338 0.246493
v -0.141813 -0.0816335 0.261333
v -0.00897611 -0.112064 0.209535
v 0.00751703 -0.112064 0.21341
v 0.037383 -0.112064 0.217664
v 0.0142777 0.0486779 0.469563
v 0.381956 0.0486779 -0.333301
v 0.365611 0.0373177 -0.366006
v 0.341689 -0.112064 -0.360145
v 0.322744 -0.0522733 -0.449752
v 0.325196 -0.112064 -0.377159
v 0.304839 -0.0723503 -0.467427
v 0.306102 -0.0522733 -0.468467
v 0.335745 0.0373177 -0.425743
v 0.327425 0.0429978 -0.442095
v -0.166255 -0.0224254 0.256228
v -0.000952423 0.0429978 0.452171
v -0.256373 -0.069345 -0.0321562
v -0.244041 -0.112064 -0.022326
v -0.238394 -0.112064 -0.00871494
v -0.220935 -0.112064 0.0324019
v -0.210163 -0.112064 0.0540473
v -0.201025 -0.112064 0.0670912
v -0.175691 -0.112064 0.0998901
v -0.165141 -0.112064 0.113312
v -0.154666 -0.112064 0.124182
v -0.142333 -0.112064 0.134674
v -0.0984997 -0.112064 0.168607
v -0.0820065 -0.112064 0.179005
v -0.0223489 -0.112064 0.204525
v -0.0671479 -0.112064 0.185526
v -0.0492431 0.0486779 0.393757
v 0.346518 0.0486779 -0.404098
v 0.316578 0.0486779 -0.458731
v 0.309 -0.112064 -0.390487
v 0.28738 -0.0739552 -0.474705
v 0.293472 -0.0522733 -0.475934
v 0.288123 -0.112064 -0.40665
v 0.274453 -0.112064 -0.416858
v 0.261378 -0.112064 -0.424893
v 0.306102 0.0486779 -0.468467
v -0.109941 0.0486779 0.320314
v -0.154294 0.0486779 0.265492
v -0.162986 0.0486779 0.249612
v -0.184234 0.0486779 0.192143
v -0.253327 0.0486779 -0.0204356
v -0.277175 0.0486779 -0.097565
v -0.261351 -0.0672209 -0.0521948
v -0.248424 -0.112064 -0.0372604
v 0.261378 -0.0720513 -0.480282
v 0.236787 -0.112064 -0.437464
v 0.208109 -0.112064 -0.449657
v 0.186638 -0.112064 -0.457124
v 0.168808 -0.112064 -0.462323
v 0.14184 -0.112064 -0.466955
v 0.126907 -0.112064 -0.469318
v 0.284186 0.0486779 -0.478392
v -0.27933 0.0486779 -0.112027
v -0.263877 -0.0672209 -0.0672237
v -0.250727 -0.112064 -0.0521948
v 0.111974 -0.112064 -0.470924
v 0.0970406 -0.112064 -0.471681
v 0.0673232 -0.0772909 -0.479715
v 0.0822562 -0.0722559 -0.480566
v 0.0673232 0.00743828 -0.481511
v 0.261378 0.0486779 -0.481133
v -0.265808 -0.0672209 -0.082158
v -0.278364 0.0486779 -0.126961
v -0.286462 -0.0350915 -0.266002
v -0.286834 -0.0575129 -0.249083
v -0.256745 -0.112064 -0.0970924
v -0.254739 -0.112064 -0.0816854
v -0.252881 -0.112064 -0.0676963
v -0.0671479 -0.0721458 -0.480566
v 0.0822562 -0.112064 -0.471586
v -0.0671479 0.00743828 -0.481511
v 0.0673232 0.0486779 -0.481511
v -0.258676 -0.112064 -0.112027
v -0.275021 0.0486779 -0.14199
v -0.28401 -0.0216859 -0.261371
v -0.284605 -0.0603765 -0.263639
v -0.278958 -0.0230076 -0.275643
v -0.269895 -0.0274761 -0.301164
v -0.264471 -0.0373415 -0.315437
v -0.270415 -0.0522733 -0.302298
v -0.269895 -0.0611947 -0.301164
v -0.259196 -0.112064 -0.126961
v -0.0820808 -0.0721143 -0.480471
v 0.0673232 -0.112064 -0.470924
v -0.0736857 0.0486779 -0.481416
v -0.259865 0.0486779 -0.201633
v -0.252287 0.0486779 -0.225074
v -0.240772 0.0486779 -0.254471
v -0.268334 -0.0159429 -0.2902
v -0.276135 -0.0670636 -0.275832
v -0.267517 -0.0810986 -0.263828
v -0.266477 -0.0866685 -0.246436
v -0.257859 -0.112064 -0.141896
v -0.252733 -0.0205373 -0.329993
v -0.254367 -0.0373415 -0.336988
v -0.254813 -0.0569622 -0.334341
v -0.243 -0.0715636 -0.337177
v -0.251098 -0.0717839 -0.321108
v -0.109049 -0.0738293 -0.474044
v -0.102957 0.0486779 -0.478581
v 0.0523903 -0.112064 -0.469696
v 0.037383 -0.112064 -0.467333
v -0.231485 0.0486779 -0.276305
v -0.223907 0.0486779 -0.293224
v -0.255556 -0.0762996 -0.302204
v -0.226061 -0.112064 -0.282165
v -0.242703 -0.112064 -0.238213
v -0.249835 -0.112064 -0.201633
v -0.253922 -0.112064 -0.172048
v -0.20942 0.0486779 -0.322715
v -0.177919 0.0486779 -0.385761
v -0.159792 0.0486779 -0.421868
v -0.149688 0.0486779 -0.441434
v -0.137058 0.0486779 -0.45892
v -0.244932 -0.0373415 -0.349181
v -0.243743 -0.0581422 -0.347952
v -0.22517 -0.0906807 -0.330655
v -0.240177 -0.0835531 -0.318651
v -0.138098 -0.0774797 -0.452871
v 0.0106374 -0.112064 -0.462418
v -0.00734165 -0.112064 -0.458164
v -0.0223489 -0.112064 -0.452776
v -0.0357217 -0.112064 -0.447483
v -0.0522149 -0.112064 -0.440772
v -0.0678908 -0.112064 -0.433494
v -0.0820808 -0.112064 -0.426499
v -0.127177 -0.0723503 -0.46582
v -0.124874 0.0486779 -0.468845
v -0.211277 -0.112064 -0.309387
v -0.134012 -0.0522733 -0.462701
v -0.096568 -0.112064 -0.417803
v -0.110015 -0.112064 -0.40769
v -0.139658 -0.112064 -0.384626
v -0.151545 -0.112064 -0.375269
v -0.162466 -0.112064 -0.36421
f 1 2 3
f 1 3 4
f 1 4 5
f 1 5 2
f 2 6 7
f 2 7 3
f 2 5 15
f 2 15 29
f 2 29 45
f 2 45 73
f 2 73 87
f 2 87 101
f 2 101 120
f 2 120 146
f 2 146 147
f 2 147 154
f 2 154 170
f 2 170 179
f 2 179 190
f 2 190 203
f 2 203 218
f 2 218 246
f 2 246 232
f 2 232 231
f 2 231 230
f 2 230 229
f 2 229 228
f 2 228 222
f 2 222 221
f 2 221 206
f 2 206 205
f 2 205 204
f 2 204 192
f 2 192 181
f 2 181 171
f 2 171 160
f 2 160 159
f 2 159 158
f 2 158 157
f 2 157 156
f 2 156 155
f 2 155 145
f 2 145 119
f 2 119 97
f 2 97 83
f 2 83 67
f 2 67 65
f 2 65 64
f 2 64 47
f 2 47 33
f 2 33 16
f 2 16 6
f 3 7 8
f 3 8 9
f 3 9 4
f 4 9 10
f 4 10 11
f 4 11 12
f 4 12 13
f 4 13 5
f 5 13 14
f 5 14 15
f 6 16 7
f 7 16 17
f 7 17 8
f 8 18 19
f 8 19 9
f 8 17 20
f 8 20 18
f 9 19 21
f 9 21 22
f 9 22 23
f 9 23 24
f 9 24 10
f 10 24 11
f 11 24 12
f 12 24 25
f 12 25 26
f 12 26 13
f 13 26 27
f 13 27 28
f 13 28 14
f 14 29 15
f 14 28 30
f 14 30 29
f 16 31 32
f 16 32 17
f 16 33 31
f 17 32 34
f 17 34 20
f 18 35 38
f 18 38 63
f 18 63 62
f 18 62 61
f 18 61 60
f 18 60 59
f 18 59 58
f 18 58 57
f 18 57 56
f 18 56 55
f 18 55 54
f 18 54 79
f 18 79 78
f 18 78 50
f 18 50 49
f 18 49 77
f 18 77 76
f 18 76 81
f 18 81 95
f 18 95 118
f 18 118 117
f 18 117 116
f 18 116 143
f 18 143 144
f 18 144 142
f 18 142 141
f 18 141 140
f 18 140 139
f 18 139 138
f 18 138 137
f 18 137 136
f 18 136 135
f 18 135 134
f 18 134 133
f 18 133 132
f 18 132 162
f 18 162 173
f 18 173 186
f 18 186 185
f 18 185 184
f 18 184 191
f 18 191 200
f 18 200 211
f 18 211 227
f 18 227 226
f 18 226 225
f 18 225 224
f 18 224 247
f 18 247 253
f 18 253 252
f 18 252 251
f 18 251 250
f 18 250 249
f 18 249 244
f 18 244 243
f 18 243 242
f 18 242 241
f 18 241 240
f 18 240 239
f 18 239 238
f 18 238 220
f 18 220 219
f 18 219 202
f 18 202 188
f 18 188 175
f 18 175 174
f 18 174 169
f 18 169 168
f 18 168 167
f 18 167 166
f 18 166 165
f 18 165 164
f 18 164 153
f 18 153 152
f 18 152 151
f 18 151 148
f 18 148 124
f 18 124 122
f 18 122 104
f 18 104 88
f 18 88 74
f 18 74 72
f 18 72 44
f 18 44 43
f 18 43 27
f 18 27 26
f 18 26 25
f 18 25 24
f 18 24 23
f 18 23 22
f 18 22 21
f 18 21 19
f 18 20 35
f 20 36 37
f 20 37 38
f 20 38 35
f 20 34 32
f 20 32 39
f 20 39 40
f 20 40 41
f 20 41 42
f 20 42 36
f 27 43 28
f 28 43 44
f 28 44 30
f 29 30 45
f 30 46 45
f 30 44 46
f 31 33 39
f 31 39 32
f 33 47 39
f 36 48 49
f 36 49 50
f 36 50 51
f 36 51 37
f 36 42 52
f 36 52 48
f 37 51 53
f 37 53 54
f 37 54 55
f 37 55 56
f 37 56 57
f 37 57 58
f 37 58 59
f 37 59 60
f 37 60 61
f 37 61 62
f 37 62 63
f 37 63 38
f 39 47 64
f 39 64 65
f 39 65 66
f 39 66 40
f 40 66 67
f 40 67 68
f 40 68 69
f 40 69 70
f 40 70 71
f 40 71 41
f 41 71 42
f 42 71 52
f 44 72 46
f 45 46 73
f 46 72 74
f 46 74 75
f 46 75 73
f 48 76 77
f 48 77 49
f 48 52 76
f 50 78 51
f 51 78 79
f 51 79 54
f 51 54 53
f 52 80 81
f 52 81 76
f 52 71 82
f 52 82 80
f 65 67 66
f 67 83 68
f 68 83 84
f 68 84 69
f 69 85 70
f 69 84 85
f 70 82 71
f 70 85 82
f 73 75 86
f 73 86 87
f 74 88 75
f 75 88 89
f 75 89 86
f 80 82 90
f 80 90 91
f 80 91 92
f 80 92 93
f 80 93 94
f 80 94 95
f 80 95 81
f 82 85 96
f 82 96 100
f 82 100 90
f 83 97 98
f 83 98 99
f 83 99 84
f 84 99 85
f 85 99 100
f 85 100 96
f 86 101 102
f 86 102 87
f 86 89 103
f 86 103 101
f 87 102 101
f 88 104 105
f 88 105 106
f 88 106 107
f 88 107 89
f 89 107 106
f 89 106 108
f 89 108 103
f 90 100 109
f 90 109 91
f 91 110 92
f 91 109 111
f 91 111 98
f 91 98 112
f 91 112 110
f 92 113 93
f 92 110 113
f 93 113 114
f 93 114 115
f 93 115 116
f 93 116 94
f 94 116 117
f 94 117 118
f 94 118 95
f 97 119 98
f 98 119 112
f 98 111 99
f 99 111 109
f 99 109 100
f 101 103 120
f 103 108 127
f 103 127 121
f 103 121 120
f 104 122 105
f 105 123 106
f 105 122 124
f 105 124 125
f 105 125 126
f 105 126 123
f 106 123 108
f 108 123 128
f 108 128 127
f 110 112 129
f 110 129 113
f 112 119 130
f 112 130 129
f 113 129 131
f 113 131 132
f 113 132 133
f 113 133 134
f 113 134 114
f 114 134 135
f 114 135 136
f 114 136 137
f 114 137 138
f 114 138 139
f 114 139 140
f 114 140 141
f 114 141 142
f 114 142 115
f 115 143 116
f 115 142 144
f 115 144 143
f 119 145 130
f 120 121 127
f 120 127 146
f 123 126 147
f 123 147 128
f 124 148 125
f 125 149 150
f 125 150 126
f 125 148 151
f 125 151 152
f 125 152 153
f 125 153 149
f 126 154 147
f 126 150 154
f 127 128 146
f 128 147 146
f 129 130 145
f 129 145 155
f 129 155 156
f 129 156 157
f 129 157 158
f 129 158 159
f 129 159 131
f 131 159 160
f 131 160 161
f 131 161 162
f 131 162 132
f 149 163 150
f 149 153 164
f 149 164 165
f 149 165 166
f 149 166 167
f 149 167 168
f 149 168 169
f 149 169 163
f 150 163 170
f 150 170 154
f 160 171 172
f 160 172 161
f 161 172 162
f 162 172 173
f 163 169 174
f 163 174 175
f 163 175 176
f 163 176 177
f 163 177 178
f 163 178 179
f 163 179 170
f 171 180 172
f 171 181 182
f 171 182 183
f 171 183 180
f 172 180 191
f 172 191 184
f 172 184 185
f 172 185 186
f 172 186 173
f 175 187 176
f 175 188 187
f 176 187 177
f 177 187 189
f 177 189 178
f 178 189 190
f 178 190 179
f 180 183 191
f 181 192 193
f 181 193 182
f 182 194 183
f 182 193 195
f 182 195 196
f 182 196 197
f 182 197 198
f 182 198 199
f 182 199 194
f 183 194 200
f 183 200 191
f 187 188 201
f 187 201 189
f 188 202 201
f 189 201 203
f 189 203 190
f 192 204 193
f 193 204 205
f 193 205 206
f 193 206 207
f 193 207 195
f 194 199 208
f 194 208 209
f 194 209 210
f 194 210 211
f 194 211 200
f 195 207 196
f 196 207 212
f 196 212 213
f 196 213 197
f 197 213 198
f 198 213 214
f 198 214 199
f 199 214 215
f 199 215 216
f 199 216 208
f 201 217 218
f 201 218 203
f 201 202 219
f 201 219 220
f 201 220 217
f 206 221 207
f 207 221 222
f 207 222 212
f 208 216 223
f 208 223 209
f 209 223 224
f 209 224 225
f 209 225 210
f 210 225 226
f 210 226 227
f 210 227 211
f 212 222 228
f 212 228 229
f 212 229 230
f 212 230 231
f 212 231 213
f 213 231 232
f 213 232 233
f 213 233 214
f 214 233 234
f 214 234 215
f 215 235 236
f 215 236 216
f 215 234 237
f 215 237 235
f 216 236 223
f 217 220 238
f 217 238 239
f 217 239 240
f 217 240 241
f 217 241 242
f 217 242 243
f 217 243 244
f 217 244 237
f 217 237 245
f 217 245 246
f 217 246 218
f 223 236 224
f 224 236 247
f 232 246 248
f 232 248 233
f 233 248 234
f 234 248 245
f 234 245 237
f 235 247 236
f 235 237 247
f 237 244 249
f 237 249 250
f 237 250 251
f 237 251 252
f 237 252 253
f 237 253 247
f 245 248 246
