v 0.0673059 -0.201717 -0.48611
v 0.0673059 -0.216655 -0.484923
v 0.0374489 -0.216655 -0.481548
v 0.0523424 -0.201717 -0.484254
v 0.0673059 -0.186779 -0.48611
v 0.111917 -0.201717 -0.485714
v 0.080801 -0.3931 -0.465612
v 0.0661172 -0.3931 -0.464943
v 0.0422735 -0.3931 -0.462297
v 0.111917 -0.216655 -0.484346
v 0.0224854 -0.3931 -0.459165
v 0.0268206 -0.216655 -0.479693
v 0.0374489 -0.201717 -0.482278
v 0.0523424 -0.186779 -0.484254
v 0.0673059 -0.171842 -0.485836
v 0.111917 -0.186752 -0.485714
v 0.12695 -0.201717 -0.484194
v 0.141844 -0.216655 -0.481943
v 0.0908698 -0.3931 -0.465429
v 0.114224 -0.383555 -0.46476
v 0.00612349 -0.3931 -0.45515
v -0.00744153 -0.201717 -0.474127
v -0.00744153 -0.186779 -0.474158
v 0.0374489 -0.186779 -0.482278
v 0.0374489 -0.171842 -0.482095
v 0.0275898 -0.162654 -0.479328
v 0.0523424 -0.112064 -0.469717
v 0.0673059 -0.112064 -0.470964
v 0.0821994 -0.112064 -0.471633
v 0.0970231 -0.112064 -0.471755
v 0.111917 -0.171814 -0.485258
v 0.141844 -0.171814 -0.48243
v 0.12695 -0.186752 -0.484194
v 0.141844 -0.201717 -0.482612
v 0.144501 -0.383555 -0.460807
v 0.128698 -0.383555 -0.463331
v 0.186664 -0.201717 -0.472972
v 0.151563 -0.220864 -0.479236
v 0.17177 -0.383555 -0.455485
v 0.156807 -0.383555 -0.45883
v 0.0908698 -0.3931 -0.308899
v 0.187433 -0.383555 -0.450832
v 0.19953 -0.383555 -0.447091
v 0.216521 -0.383555 -0.440826
v 0.233233 -0.383555 -0.433284
v 0.246448 -0.383555 -0.427019
v 0.262181 -0.383555 -0.418291
v 0.288611 -0.383555 -0.400865
v 0.305742 -0.383555 -0.387453
v 0.321615 -0.383555 -0.373737
v 0.332663 -0.383555 -0.362941
v 0.340214 -0.383555 -0.35473
v 0.347416 -0.383555 -0.346488
v 0.357905 -0.383555 -0.33411
v 0.367274 -0.383555 -0.321216
v 0.376085 -0.383555 -0.307987
v 0.387272 -0.383555 -0.289496
v 0.402236 -0.383555 -0.259267
v 0.40769 -0.383555 -0.245216
v 0.413004 -0.383555 -0.229341
v 0.419926 -0.383555 -0.206502
v 0.424891 -0.383555 -0.180104
v -0.00835052 -0.3931 -0.45144
v -0.0336626 -0.216655 -0.464274
v -0.0223351 -0.201717 -0.468836
v -0.0223351 -0.186779 -0.468866
v -0.0380677 -0.171842 -0.463179
v -0.00744153 -0.171842 -0.473458
v 0.0374489 -0.112064 -0.467315
v 0.0106685 -0.112064 -0.462479
v 0.111917 -0.112064 -0.470904
v 0.146668 -0.162131 -0.479723
v 0.141844 -0.186752 -0.482551
v 0.186664 -0.171814 -0.472455
v 0.186664 -0.186752 -0.473093
v 0.201627 -0.201717 -0.468166
v 0.211696 -0.220754 -0.464061
v -0.0898804 -0.3931 -0.175725
v 0.252951 -0.221634 -0.44779
v 0.299589 -0.220561 -0.418808
v 0.307351 -0.216655 -0.413638
v 0.31665 -0.216655 -0.406187
v 0.346717 -0.216655 -0.377235
v 0.37154 -0.216655 -0.349316
v 0.389999 -0.216655 -0.324409
v 0.402026 -0.216655 -0.303881
v 0.408599 -0.216655 -0.291382
v 0.422583 -0.216655 -0.259996
v 0.43468 -0.216655 -0.227212
v 0.437966 -0.216655 -0.216659
v 0.445658 -0.201717 -0.186795
v 0.444539 -0.213023 -0.175421
v 0.256936 -0.383555 -0.175421
v -0.0218456 -0.3931 -0.447182
v -0.0417736 -0.201717 -0.461902
v -0.0735185 -0.222872 -0.447912
v -0.0749869 -0.212913 -0.448338
v -0.0417736 -0.186779 -0.461932
v -0.0328235 -0.163011 -0.464061
v -0.0750568 -0.167963 -0.448368
v -0.00744153 -0.112064 -0.458131
v 0.12695 -0.112064 -0.469322
v 0.156807 -0.112064 -0.464608
v 0.168834 -0.112064 -0.462327
v 0.141844 -0.112064 -0.467011
v 0.212466 -0.167385 -0.464335
v 0.201627 -0.186752 -0.468288
v 0.212745 -0.201717 -0.464517
v 0.254209 -0.206696 -0.448307
v -0.247906 -0.3931 -0.175725
v 0.304064 -0.201717 -0.416649
v 0.31707 -0.201717 -0.406552
v 0.347067 -0.201717 -0.377539
v 0.371959 -0.201717 -0.349681
v 0.390699 -0.201717 -0.324896
v 0.400697 -0.201717 -0.308443
v 0.409718 -0.201717 -0.291382
v 0.423213 -0.201717 -0.261
v 0.428597 -0.201717 -0.246554
v 0.438735 -0.201717 -0.216659
v 0.442302 -0.201717 -0.201727
v 0.445658 -0.186752 -0.186795
v 0.445798 -0.201717 -0.175421
v 0.0908698 -0.383472 -0.175421
v -0.0372985 -0.3931 -0.44113
v -0.0751267 -0.201717 -0.448429
v -0.0835175 -0.3931 -0.418473
v -0.0970126 -0.3931 -0.410293
v -0.054989 -0.3931 -0.433892
v -0.0671555 -0.3931 -0.427779
v -0.106033 -0.3931 -0.404484
v -0.137917 -0.216655 -0.406309
v -0.111976 -0.201717 -0.424464
v -0.0395361 -0.112064 -0.446118
v -0.0223351 -0.112064 -0.452748
v -0.111976 -0.186779 -0.424464
v -0.137638 -0.167028 -0.406156
v -0.0965231 -0.112064 -0.417835
v -0.082119 -0.112064 -0.426563
v -0.0642188 -0.112064 -0.435382
v -0.052262 -0.112064 -0.440826
v 0.186664 -0.112064 -0.457188
v 0.214703 -0.112064 -0.447456
v 0.254209 -0.16799 -0.448307
v -0.25343 -0.112064 -0.175725
v -0.268044 -0.208429 -0.176637
v -0.246158 -0.3931 -0.186795
v 0.300079 -0.16766 -0.419112
v 0.30777 -0.171814 -0.414003
v 0.316511 -0.167083 -0.406004
v 0.347346 -0.171814 -0.377721
v 0.368953 -0.186752 -0.353453
v 0.390629 -0.171814 -0.324896
v 0.393216 -0.186752 -0.321155
v 0.400697 -0.186752 -0.308443
v 0.409718 -0.186752 -0.291382
v 0.423213 -0.186752 -0.261
v 0.428667 -0.186752 -0.246554
v 0.438735 -0.171814 -0.216659
v 0.442302 -0.186752 -0.201727
v 0.445029 -0.171814 -0.186795
v 0.445308 -0.171814 -0.175421
v 0.445798 -0.186752 -0.175421
v 0.0908698 -0.112064 -0.175421
v -0.12687 -0.3931 -0.388335
v -0.139246 -0.3931 -0.377934
v -0.168334 -0.216655 -0.378025
v -0.168893 -0.201717 -0.378573
v -0.138337 -0.201717 -0.406704
v -0.110088 -0.112064 -0.407677
v -0.168893 -0.171842 -0.378573
v -0.167355 -0.161498 -0.37687
v -0.151552 -0.112064 -0.375227
v -0.139665 -0.112064 -0.384594
v 0.231554 -0.112064 -0.440218
v 0.261411 -0.112064 -0.42489
v 0.274417 -0.112064 -0.416892
v -0.251891 -0.112064 -0.186795
v -0.268533 -0.16755 -0.177519
v -0.264268 -0.171842 -0.201727
v -0.260702 -0.201717 -0.216659
v -0.259863 -0.216655 -0.216659
v -0.239305 -0.3931 -0.216051
v 0.308959 -0.112064 -0.390525
v 0.288052 -0.112064 -0.406643
v 0.329236 -0.112064 -0.373768
v 0.346088 -0.161856 -0.376353
v 0.374756 -0.167413 -0.345576
v 0.368813 -0.171814 -0.353453
v 0.391468 -0.161498 -0.318661
v 0.403774 -0.163726 -0.299867
v 0.400558 -0.171814 -0.308108
v 0.409438 -0.171814 -0.291382
v 0.423143 -0.171814 -0.260726
v 0.428527 -0.171814 -0.246554
v 0.43433 -0.162736 -0.226482
v 0.435939 -0.161058 -0.216659
v 0.42566 -0.112064 -0.201727
v 0.427758 -0.112064 -0.186795
v 0.429296 -0.112064 -0.175421
v -0.146728 -0.3931 -0.370757
v -0.161481 -0.3931 -0.355703
v -0.169103 -0.3931 -0.347401
v -0.196023 -0.216655 -0.346397
v -0.193296 -0.201717 -0.350503
v -0.190289 -0.186779 -0.354152
v -0.195953 -0.16722 -0.346245
v -0.211196 -0.112064 -0.309568
v -0.165817 -0.112064 -0.360508
v -0.159034 -0.112064 -0.367959
v -0.249794 -0.112064 -0.201727
v -0.24413 -0.112064 -0.231592
v -0.241403 -0.112064 -0.244791
v -0.260702 -0.171842 -0.216659
v -0.250423 -0.186779 -0.246554
v -0.250353 -0.201717 -0.246554
v -0.256087 -0.216655 -0.228186
v -0.23469 -0.3931 -0.231592
v 0.337417 -0.112064 -0.365009
v 0.345878 -0.112064 -0.355277
v 0.356996 -0.112064 -0.341622
v 0.387482 -0.112064 -0.300292
v 0.405662 -0.112064 -0.259571
v 0.421465 -0.161498 -0.258263
v 0.419367 -0.112064 -0.226908
v 0.422513 -0.112064 -0.216659
v -0.175885 -0.3931 -0.339128
v -0.209448 -0.220478 -0.329123
v -0.209798 -0.201717 -0.329579
v -0.209728 -0.16777 -0.329457
v -0.215322 -0.171842 -0.321216
v -0.223083 -0.112064 -0.288493
v -0.229027 -0.112064 -0.276115
v -0.250004 -0.171842 -0.246554
v -0.255527 -0.162241 -0.227152
v -0.244689 -0.186779 -0.261456
v -0.244619 -0.201717 -0.261456
v -0.223573 -0.3931 -0.260483
v -0.229027 -0.3931 -0.246554
v -0.182808 -0.3931 -0.329944
v -0.208749 -0.3931 -0.290074
v -0.214483 -0.216655 -0.321216
v -0.215532 -0.201717 -0.321216
v -0.196932 -0.3931 -0.310298
v -0.215532 -0.186779 -0.321216
v -0.222174 -0.186779 -0.309568
v -0.222034 -0.171842 -0.309051
v -0.231194 -0.171842 -0.291382
v -0.231684 -0.186779 -0.291382
v -0.231684 -0.201717 -0.291382
v -0.230285 -0.216655 -0.291382
v -0.216231 -0.3931 -0.276419
v -0.221405 -0.216655 -0.308443
v -0.222174 -0.201717 -0.309568
f 1 2 3
f 1 3 4
f 1 4 14
f 1 14 5
f 1 5 16
f 1 16 6
f 1 6 2
f 2 7 8
f 2 8 9
f 2 9 3
f 2 6 10
f 2 10 7
f 3 9 11
f 3 11 12
f 3 12 13
f 3 13 4
f 4 13 24
f 4 24 14
f 5 14 15
f 5 15 16
f 6 16 33
f 6 33 17
f 6 17 18
f 6 18 10
f 7 19 41
f 7 41 78
f 7 78 110
f 7 110 147
f 7 147 183
f 7 183 218
f 7 218 239
f 7 239 238
f 7 238 252
f 7 252 241
f 7 241 244
f 7 244 240
f 7 240 227
f 7 227 203
f 7 203 202
f 7 202 201
f 7 201 166
f 7 166 165
f 7 165 131
f 7 131 128
f 7 128 127
f 7 127 130
f 7 130 129
f 7 129 125
f 7 125 94
f 7 94 63
f 7 63 21
f 7 21 11
f 7 11 9
f 7 9 8
f 7 10 19
f 10 18 20
f 10 20 19
f 11 21 22
f 11 22 12
f 12 22 13
f 13 22 23
f 13 23 24
f 14 24 25
f 14 25 15
f 15 25 26
f 15 26 27
f 15 27 28
f 15 28 29
f 15 29 30
f 15 30 31
f 15 31 16
f 16 31 32
f 16 32 33
f 17 33 34
f 17 34 18
f 18 35 36
f 18 36 20
f 18 34 37
f 18 37 38
f 18 38 39
f 18 39 40
f 18 40 35
f 19 20 36
f 19 36 35
f 19 35 40
f 19 40 39
f 19 39 42
f 19 42 43
f 19 43 44
f 19 44 45
f 19 45 46
f 19 46 47
f 19 47 48
f 19 48 49
f 19 49 50
f 19 50 51
f 19 51 52
f 19 52 53
f 19 53 54
f 19 54 55
f 19 55 56
f 19 56 57
f 19 57 58
f 19 58 59
f 19 59 60
f 19 60 61
f 19 61 62
f 19 62 41
f 21 63 22
f 22 63 64
f 22 64 65
f 22 65 66
f 22 66 23
f 23 66 67
f 23 67 68
f 23 68 25
f 23 25 24
f 25 68 26
f 26 69 27
f 26 68 70
f 26 70 69
f 27 69 70
f 27 70 101
f 27 101 135
f 27 135 134
f 27 134 141
f 27 141 140
f 27 140 139
f 27 139 138
f 27 138 170
f 27 170 174
f 27 174 173
f 27 173 210
f 27 210 209
f 27 209 208
f 27 208 232
f 27 232 233
f 27 233 213
f 27 213 212
f 27 212 211
f 27 211 178
f 27 178 145
f 27 145 164
f 27 164 200
f 27 200 199
f 27 199 198
f 27 198 226
f 27 226 225
f 27 225 223
f 27 223 222
f 27 222 221
f 27 221 220
f 27 220 219
f 27 219 186
f 27 186 184
f 27 184 185
f 27 185 177
f 27 177 176
f 27 176 175
f 27 175 143
f 27 143 142
f 27 142 104
f 27 104 103
f 27 103 105
f 27 105 102
f 27 102 71
f 27 71 30
f 27 30 29
f 27 29 28
f 30 71 31
f 31 71 72
f 31 72 32
f 32 73 33
f 32 72 74
f 32 74 75
f 32 75 73
f 33 73 34
f 34 73 75
f 34 75 37
f 37 75 107
f 37 107 76
f 37 76 77
f 37 77 39
f 37 39 38
f 39 77 42
f 41 62 78
f 42 77 43
f 43 77 44
f 44 79 45
f 44 77 79
f 45 79 46
f 46 79 47
f 47 79 80
f 47 80 48
f 48 80 81
f 48 81 49
f 49 81 82
f 49 82 50
f 50 82 83
f 50 83 51
f 51 83 52
f 52 83 84
f 52 84 53
f 53 84 54
f 54 84 85
f 54 85 55
f 55 85 56
f 56 85 57
f 57 85 86
f 57 86 87
f 57 87 58
f 58 87 88
f 58 88 59
f 59 88 89
f 59 89 60
f 60 89 90
f 60 90 61
f 61 90 91
f 61 91 62
f 62 91 92
f 62 92 93
f 62 93 78
f 63 94 64
f 64 95 65
f 64 94 96
f 64 96 97
f 64 97 95
f 65 95 98
f 65 98 66
f 66 98 67
f 67 99 68
f 67 98 100
f 67 100 99
f 68 99 101
f 68 101 70
f 71 102 72
f 72 103 104
f 72 104 74
f 72 102 105
f 72 105 103
f 74 106 75
f 74 104 106
f 75 106 107
f 76 107 108
f 76 108 77
f 77 108 109
f 77 109 79
f 78 93 110
f 79 109 80
f 80 111 81
f 80 109 111
f 81 111 112
f 81 112 82
f 82 112 83
f 83 113 114
f 83 114 84
f 83 112 113
f 84 114 115
f 84 115 85
f 85 115 116
f 85 116 86
f 86 116 117
f 86 117 87
f 87 117 88
f 88 118 119
f 88 119 89
f 88 117 118
f 89 120 90
f 89 119 120
f 90 120 121
f 90 121 91
f 91 122 163
f 91 163 123
f 91 123 92
f 91 121 160
f 91 160 122
f 92 123 163
f 92 163 162
f 92 162 200
f 92 200 164
f 92 164 124
f 92 124 93
f 93 124 110
f 94 125 96
f 95 97 126
f 95 126 98
f 96 127 128
f 96 128 97
f 96 125 129
f 96 129 130
f 96 130 127
f 97 128 131
f 97 131 132
f 97 132 133
f 97 133 126
f 98 126 100
f 99 100 134
f 99 134 135
f 99 135 101
f 100 126 136
f 100 136 137
f 100 137 138
f 100 138 139
f 100 139 140
f 100 140 141
f 100 141 134
f 104 142 106
f 106 142 143
f 106 143 144
f 106 144 108
f 106 108 107
f 108 144 109
f 109 144 111
f 110 145 146
f 110 146 147
f 110 124 145
f 111 144 148
f 111 148 149
f 111 149 112
f 112 149 150
f 112 150 151
f 112 151 113
f 113 151 152
f 113 152 114
f 114 152 153
f 114 153 115
f 115 153 154
f 115 154 116
f 116 154 155
f 116 155 156
f 116 156 117
f 117 156 157
f 117 157 118
f 118 157 158
f 118 158 119
f 119 158 120
f 120 158 159
f 120 159 160
f 120 160 121
f 122 160 159
f 122 159 161
f 122 161 162
f 122 162 163
f 124 164 145
f 126 133 136
f 131 165 132
f 132 165 166
f 132 166 167
f 132 167 168
f 132 168 169
f 132 169 133
f 133 169 136
f 136 169 137
f 137 170 138
f 137 169 171
f 137 171 172
f 137 172 173
f 137 173 174
f 137 174 170
f 143 175 144
f 144 175 176
f 144 176 177
f 144 177 148
f 145 178 179
f 145 179 146
f 146 179 180
f 146 180 181
f 146 181 182
f 146 182 147
f 147 182 183
f 148 184 150
f 148 150 149
f 148 177 185
f 148 185 184
f 150 184 186
f 150 186 187
f 150 187 151
f 151 187 188
f 151 188 189
f 151 189 152
f 152 189 153
f 153 190 191
f 153 191 192
f 153 192 154
f 153 189 188
f 153 188 190
f 154 192 155
f 155 192 193
f 155 193 156
f 156 194 157
f 156 193 194
f 157 195 158
f 157 194 195
f 158 195 159
f 159 196 161
f 159 195 196
f 161 196 197
f 161 197 198
f 161 198 199
f 161 199 200
f 161 200 162
f 166 201 167
f 167 201 202
f 167 202 203
f 167 203 204
f 167 204 168
f 168 171 169
f 168 204 205
f 168 205 206
f 168 206 171
f 171 206 207
f 171 207 172
f 172 207 208
f 172 208 209
f 172 209 210
f 172 210 173
f 178 211 179
f 179 211 212
f 179 212 213
f 179 213 180
f 180 214 181
f 180 213 214
f 181 214 215
f 181 215 216
f 181 216 217
f 181 217 182
f 182 217 218
f 182 218 183
f 186 219 187
f 187 219 220
f 187 220 188
f 188 220 221
f 188 221 222
f 188 222 190
f 190 222 191
f 191 223 224
f 191 224 194
f 191 194 193
f 191 193 192
f 191 222 223
f 194 224 196
f 194 196 195
f 196 224 225
f 196 225 226
f 196 226 198
f 196 198 197
f 203 227 204
f 204 228 229
f 204 229 205
f 204 227 228
f 205 229 230
f 205 230 206
f 206 230 207
f 207 230 208
f 208 230 231
f 208 231 232
f 213 233 234
f 213 234 235
f 213 235 214
f 214 235 234
f 214 234 215
f 215 234 236
f 215 236 237
f 215 237 216
f 216 237 217
f 217 237 238
f 217 238 239
f 217 239 218
f 223 225 224
f 227 240 228
f 228 241 242
f 228 242 243
f 228 243 229
f 228 240 244
f 228 244 241
f 229 243 245
f 229 245 230
f 230 245 231
f 231 245 246
f 231 246 247
f 231 247 232
f 232 248 233
f 232 247 248
f 233 248 234
f 234 248 236
f 236 248 249
f 236 249 250
f 236 250 237
f 237 250 251
f 237 251 238
f 238 251 252
f 241 252 242
f 242 252 253
f 242 253 254
f 242 254 243
f 243 254 246
f 243 246 245
f 246 254 250
f 246 250 249
f 246 249 247
f 247 249 248
f 250 254 253
f 250 253 251
f 251 253 252
