v 0.0909257 -0.393128 -0.308879
v -0.0653915 -0.393128 -0.226646
v 0.0909257 -0.393383 -0.309113
v 0.0909257 -0.393128 -0.465483
v -0.0653915 -0.395746 -0.230624
v 0.0909257 -0.46438 -0.400099
v 0.0909257 -0.400855 -0.316602
v -0.0653915 -0.393128 -0.428789
v 0.0909257 -0.395895 -0.465483
v 0.0893038 -0.393128 -0.46553
v -0.0653915 -0.39794 -0.234041
v 0.0224069 -0.465371 -0.395887
v 0.0909257 -0.464557 -0.404498
v -0.0653915 -0.40203 -0.240499
v -0.0653915 -0.464515 -0.351938
v -0.0522784 -0.465201 -0.366003
v -0.0583224 -0.393128 -0.432604
v -0.0653915 -0.395895 -0.428789
v 0.0821581 -0.395895 -0.465694
v 0.0909257 -0.403311 -0.464828
v 0.0821581 -0.393128 -0.465694
v 0.00747287 -0.46542 -0.395887
v 0.0821581 -0.464819 -0.410817
v 0.0909257 -0.464748 -0.410817
v -0.0653915 -0.464699 -0.36612
v -0.0385685 -0.464628 -0.382173
v -0.0522325 -0.393128 -0.435108
v -0.0583224 -0.395895 -0.432604
v -0.0481624 -0.410833 -0.43457
v -0.0653915 -0.410833 -0.425115
v 0.0821581 -0.409177 -0.464407
v 0.0672241 -0.407939 -0.464102
v 0.0672241 -0.395895 -0.465085
v 0.0794039 -0.393128 -0.4656
v 0.0909257 -0.408802 -0.46429
v -0.0223951 -0.464373 -0.391627
v 0.00747287 -0.464154 -0.404826
v 0.0224069 -0.46438 -0.405949
v 0.0709117 -0.463439 -0.418633
v 0.0821581 -0.463552 -0.41875
v 0.0909257 -0.464224 -0.414093
v -0.0653915 -0.464345 -0.369653
v -0.0522784 -0.464366 -0.377914
v -0.0344219 -0.463956 -0.389732
v -0.0508401 -0.395895 -0.435669
v -0.0398385 -0.393128 -0.440116
v -0.0164582 -0.406092 -0.448728
v -0.0452551 -0.418419 -0.433376
v -0.0653915 -0.418723 -0.42006
v 0.0821581 -0.416643 -0.460335
v 0.0672241 -0.415404 -0.459703
v -0.00161606 -0.418532 -0.44847
v 0.0562532 -0.405384 -0.463494
v 0.0531164 -0.393128 -0.463541
v 0.0648678 -0.393128 -0.464828
v 0.0672241 -0.393128 -0.465085
v 0.0470265 -0.395895 -0.462862
v 0.0909257 -0.416275 -0.460031
v -0.00233521 -0.463651 -0.403984
v 0.0609506 -0.462448 -0.417767
v 0.0909257 -0.463481 -0.41868
v -0.0653915 -0.461606 -0.373959
v -0.062469 -0.463941 -0.374848
v -0.044383 -0.462569 -0.387977
v -0.0373444 -0.395895 -0.441122
v -0.0373444 -0.393128 -0.441122
v -0.00694088 -0.410975 -0.449781
v -0.0246903 -0.395895 -0.446153
v -0.0172233 -0.395895 -0.449008
v -0.00746112 -0.395895 -0.451746
v 0.00747287 -0.395895 -0.455537
v 0.0224069 -0.395895 -0.459188
v 0.00747287 -0.410833 -0.452612
v 0.0373409 -0.395895 -0.461762
v 0.0470265 -0.393128 -0.462862
v -0.0246903 -0.393128 -0.446153
v -0.0186004 -0.393128 -0.448494
v -0.0172233 -0.393128 -0.449008
v -0.00926667 -0.393128 -0.451255
v -0.00746112 -0.393128 -0.451746
v 0.00747287 -0.393128 -0.455537
v 0.0224069 -0.393128 -0.459188
v 0.0345713 -0.393128 -0.461294
v 0.0373409 -0.393128 -0.461762
f 1 2 3
f 1 3 7
f 1 7 6
f 1 6 13
f 1 13 24
f 1 24 41
f 1 41 61
f 1 61 58
f 1 58 35
f 1 35 20
f 1 20 9
f 1 9 4
f 1 4 10
f 1 10 21
f 1 21 34
f 1 34 56
f 1 56 55
f 1 55 54
f 1 54 75
f 1 75 84
f 1 84 83
f 1 83 82
f 1 82 81
f 1 81 80
f 1 80 79
f 1 79 78
f 1 78 77
f 1 77 76
f 1 76 66
f 1 66 46
f 1 46 27
f 1 27 17
f 1 17 8
f 1 8 2
f 2 5 6
f 2 6 7
f 2 7 3
f 2 8 18
f 2 18 30
f 2 30 49
f 2 49 62
f 2 62 42
f 2 42 25
f 2 25 15
f 2 15 14
f 2 14 11
f 2 11 5
f 4 9 10
f 5 11 6
f 6 12 13
f 6 11 14
f 6 14 15
f 6 15 16
f 6 16 12
f 8 17 28
f 8 28 18
f 9 19 10
f 9 20 19
f 10 19 21
f 12 22 23
f 12 23 24
f 12 24 13
f 12 16 22
f 15 25 16
f 16 25 26
f 16 26 22
f 17 27 28
f 18 28 29
f 18 29 30
f 19 20 31
f 19 31 32
f 19 32 33
f 19 33 34
f 19 34 21
f 20 35 31
f 22 26 36
f 22 36 37
f 22 37 38
f 22 38 23
f 23 38 39
f 23 39 40
f 23 40 24
f 24 40 41
f 25 42 43
f 25 43 26
f 26 43 44
f 26 44 36
f 27 45 28
f 27 46 45
f 28 45 47
f 28 47 29
f 29 48 30
f 29 47 48
f 30 48 49
f 31 35 50
f 31 50 32
f 32 50 51
f 32 51 52
f 32 52 53
f 32 53 33
f 33 54 55
f 33 55 56
f 33 56 34
f 33 53 57
f 33 57 54
f 35 58 50
f 36 44 37
f 37 59 39
f 37 39 38
f 37 44 59
f 39 59 60
f 39 60 52
f 39 52 51
f 39 51 50
f 39 50 40
f 40 50 61
f 40 61 41
f 42 62 63
f 42 63 43
f 43 63 44
f 44 63 64
f 44 64 59
f 45 46 65
f 45 65 47
f 46 66 65
f 47 67 52
f 47 52 48
f 47 65 68
f 47 68 69
f 47 69 70
f 47 70 71
f 47 71 72
f 47 72 67
f 48 52 59
f 48 59 64
f 48 64 49
f 49 64 63
f 49 63 62
f 50 58 61
f 52 67 73
f 52 73 53
f 52 60 59
f 53 72 74
f 53 74 57
f 53 73 67
f 53 67 72
f 54 57 75
f 57 74 84
f 57 84 75
f 65 66 76
f 65 76 68
f 68 76 77
f 68 77 69
f 69 78 79
f 69 79 70
f 69 77 78
f 70 80 81
f 70 81 71
f 70 79 80
f 71 81 82
f 71 82 72
f 72 82 83
f 72 83 74
f 74 83 84
