v -0.737847 0.261419 0.156941
v -0.737478 0.24651 0.156941
v -0.73547 0.171832 0.201694
v -0.735401 0.171832 0.216626
v -0.735401 0.33613 0.216626
v -0.73547 0.33613 0.201694
v -0.735609 0.33613 0.156941
v -0.735609 0.171832 0.156941
v -0.733716 0.158837 0.216626
v -0.733116 0.160718 0.225778
v -0.733693 0.171832 0.226617
v -0.733693 0.33613 0.226617
v -0.733116 0.347245 0.225778
v -0.733716 0.349125 0.216626
v -0.733739 0.349192 0.201694
v -0.733785 0.34936 0.156941
v -0.733785 0.158669 0.156941
v -0.733739 0.15877 0.201694
v -0.731385 0.151282 0.201694
v -0.731293 0.151349 0.216626
v -0.718414 0.133284 0.225702
v -0.720561 0.143425 0.23104
v -0.726838 0.156184 0.231071
v -0.718461 0.15689 0.24036
v -0.67821 0.24651 0.305398
v -0.686865 0.261419 0.298275
v -0.692565 0.261419 0.290801
v -0.692565 0.276361 0.290954
v -0.726838 0.351744 0.231071
v -0.720561 0.364504 0.23104
v -0.718414 0.374645 0.225717
v -0.731316 0.35658 0.216626
v -0.686957 0.276361 0.298412
v -0.685595 0.291303 0.296445
v -0.678117 0.291303 0.305353
v -0.731385 0.356647 0.201694
v -0.731454 0.356781 0.156941
v -0.733762 0.158569 0.156941
v -0.731431 0.151148 0.156941
v -0.726123 0.141947 0.156941
v -0.725985 0.141947 0.201694
v -0.725892 0.141947 0.216626
v -0.71913 0.13268 0.216626
v -0.702328 0.119383 0.224329
v -0.707798 0.128449 0.230003
v -0.703297 0.133519 0.239978
v -0.713268 0.139429 0.235647
v -0.717099 0.149368 0.239033
v -0.675486 0.231568 0.303019
v -0.664777 0.231568 0.309974
v -0.664777 0.24651 0.312384
v -0.679387 0.261419 0.305703
v -0.717099 0.358561 0.239033
v -0.718461 0.351039 0.24036
v -0.713268 0.3685 0.235662
v -0.71913 0.375249 0.216626
v -0.725892 0.365982 0.216626
v -0.70332 0.37441 0.239978
v -0.707798 0.379514 0.230003
v -0.702351 0.388546 0.224344
v -0.726008 0.365982 0.201694
v -0.679502 0.276361 0.305703
v -0.664777 0.291303 0.312323
v -0.664777 0.306246 0.309562
v -0.675071 0.306246 0.302607
v -0.726146 0.365982 0.156941
v -0.719268 0.132613 0.156941
v -0.719153 0.132646 0.201694
v -0.709944 0.125225 0.216626
v -0.694665 0.117435 0.227578
v -0.686426 0.119953 0.238453
v -0.694665 0.122875 0.235036
v -0.702466 0.119282 0.216626
v -0.694665 0.115286 0.216626
v -0.680287 0.108033 0.216626
v -0.672601 0.10444 0.22442
v -0.694665 0.130363 0.243014
v -0.694665 0.141947 0.249847
v -0.708813 0.143425 0.242175
v -0.6645 0.21733 0.303919
v -0.649845 0.216625 0.311088
v -0.649845 0.231568 0.31272
v -0.664777 0.261419 0.312689
v -0.708813 0.364504 0.24219
v -0.672878 0.314674 0.299724
v -0.664316 0.320248 0.303339
v -0.709944 0.382737 0.216626
v -0.719268 0.375383 0.156941
v -0.694665 0.377566 0.243014
v -0.686449 0.387975 0.238453
v -0.694665 0.385054 0.235052
v -0.659031 0.330221 0.300807
v -0.694665 0.390494 0.227593
v -0.672601 0.403522 0.224436
v -0.680287 0.399896 0.216626
v -0.694665 0.392643 0.216626
v -0.702466 0.388647 0.216626
v -0.664777 0.276361 0.312689
v -0.649845 0.306246 0.31272
v -0.649845 0.321188 0.310706
v -0.70999 0.125091 0.156941
v -0.709967 0.125192 0.201694
v -0.679525 0.112163 0.231452
v -0.664777 0.107127 0.234853
v -0.676479 0.117402 0.241916
v -0.702489 0.119282 0.201694
v -0.694665 0.115219 0.201694
v -0.680333 0.108 0.201694
v -0.672809 0.10434 0.216626
v -0.664777 0.101217 0.216626
v -0.649845 0.0956093 0.216626
v -0.62905 0.0891286 0.225275
v -0.664777 0.102929 0.227395
v -0.655984 0.105112 0.238118
v -0.680772 0.125763 0.246263
v -0.648783 0.202019 0.303492
v -0.634912 0.201683 0.309013
v -0.619957 0.201683 0.311881
v -0.634912 0.216625 0.312704
v -0.634912 0.231568 0.31275
v -0.649845 0.24651 0.31275
v -0.619957 0.216625 0.31275
v -0.709967 0.382771 0.201694
v -0.71006 0.382838 0.156941
v -0.676479 0.390561 0.241916
v -0.654322 0.357453 0.282763
v -0.664777 0.400836 0.234869
v -0.679525 0.395765 0.231452
v -0.648414 0.33556 0.302805
v -0.664777 0.404999 0.22741
v -0.62905 0.4188 0.225275
v -0.649845 0.41232 0.216626
v -0.664777 0.406746 0.216626
v -0.672832 0.403623 0.216626
v -0.656007 0.402817 0.238118
v -0.680333 0.399963 0.201694
v -0.694665 0.392743 0.201694
v -0.702513 0.388647 0.201694
v -0.649845 0.291303 0.31275
v -0.634912 0.306246 0.31275
v -0.619957 0.321188 0.31275
v -0.634912 0.321188 0.312704
v -0.619957 0.33613 0.311652
v -0.634912 0.33613 0.308418
v -0.702466 0.119248 0.156941
v -0.664777 0.114581 0.244737
v -0.646037 0.103198 0.24129
v -0.694665 0.115185 0.156941
v -0.680425 0.107966 0.156941
v -0.672971 0.104272 0.156941
v -0.672855 0.104306 0.201694
v -0.664777 0.100982 0.156941
v -0.664777 0.10115 0.201694
v -0.649845 0.0955085 0.201694
v -0.637382 0.0912777 0.216626
v -0.611002 0.0899009 0.238407
v -0.619957 0.0912105 0.235708
v -0.634381 0.093561 0.230781
v -0.629904 0.08886 0.216626
v -0.619957 0.0864088 0.216626
v -0.619957 0.0880541 0.228249
v -0.650537 0.100209 0.23252
v -0.619957 0.189528 0.30491
v -0.634912 0.112063 0.251205
v -0.605047 0.201683 0.312552
v -0.605047 0.188453 0.305581
v -0.575182 0.216625 0.31275
v -0.702536 0.38868 0.156941
v -0.664777 0.393348 0.244737
v -0.646037 0.404764 0.24129
v -0.634912 0.345364 0.301478
v -0.619957 0.373402 0.283815
v -0.65056 0.407719 0.23252
v -0.634381 0.414368 0.230781
v -0.619957 0.416718 0.235708
v -0.611002 0.418028 0.238407
v -0.619957 0.419875 0.228249
v -0.619957 0.42152 0.216626
v -0.629927 0.419069 0.216626
v -0.637382 0.416651 0.216626
v -0.649845 0.41242 0.201694
v -0.664777 0.406813 0.201694
v -0.664824 0.406981 0.156941
v -0.672994 0.403723 0.156941
v -0.680518 0.399963 0.156941
v -0.694689 0.392777 0.156941
v -0.575182 0.321188 0.31275
v -0.605047 0.33613 0.312354
v -0.502089 0.422427 0.287125
v -0.515406 0.420916 0.286119
v -0.52443 0.419304 0.284731
v -0.634912 0.101183 0.24399
v -0.649845 0.0954749 0.156941
v -0.637451 0.0912105 0.201694
v -0.605624 0.0873826 0.232688
v -0.601055 0.0891286 0.24039
v -0.619957 0.0986985 0.245866
v -0.630204 0.0887257 0.156941
v -0.619957 0.0863417 0.201694
v -0.605047 0.0846963 0.216626
v -0.590115 0.0971203 0.248337
v -0.590115 0.201683 0.312369
v -0.590115 0.188856 0.305383
v -0.575182 0.0971203 0.248383
v -0.502089 0.0971203 0.248383
v -0.560227 0.216625 0.312445
v -0.560227 0.231568 0.31275
v -0.515406 0.424844 0.276372
v -0.502089 0.427564 0.276372
v -0.605047 0.423232 0.216626
v -0.619957 0.421587 0.201694
v -0.637451 0.416718 0.201694
v -0.620003 0.421755 0.156941
v -0.630204 0.419237 0.156941
v -0.649914 0.412454 0.156941
v -0.560227 0.321188 0.312369
v -0.590115 0.33613 0.312125
v -0.560227 0.306246 0.31275
v -0.502089 0.427128 0.277409
v -0.502089 0.410809 0.290054
v -0.637659 0.0912777 0.156941
v -0.590115 0.0864088 0.231559
v -0.590115 0.08886 0.241122
v -0.605624 0.0957771 0.245592
v -0.619957 0.0862073 0.156941
v -0.502089 0.0846963 0.216626
v -0.605047 0.084562 0.156941
v -0.575182 0.08886 0.241183
v -0.575182 0.201683 0.310874
v -0.502089 0.08886 0.241183
v -0.502089 0.201683 0.293257
v -0.545294 0.231568 0.312293
v -0.545294 0.24651 0.31275
v -0.502089 0.427161 0.261424
v -0.605117 0.4234 0.156941
v -0.637659 0.416685 0.156941
v -0.545294 0.291303 0.312735
v -0.545294 0.306246 0.312277
v -0.545294 0.276361 0.31275
v -0.530362 0.276361 0.311011
v -0.502089 0.231467 0.295789
v -0.502089 0.0864088 0.231559
v -0.502089 0.0885914 0.240146
v -0.502089 0.084562 0.156941
v -0.530362 0.261419 0.31124
v -0.530362 0.24651 0.309761
v -0.502089 0.423434 0.156941
v -0.590184 0.423434 0.156941
f 1 2 3
f 1 3 4
f 1 4 5
f 1 5 6
f 1 6 7
f 1 7 16
f 1 16 37
f 1 37 66
f 1 66 88
f 1 88 124
f 1 124 168
f 1 168 186
f 1 186 185
f 1 185 184
f 1 184 183
f 1 183 215
f 1 215 236
f 1 236 214
f 1 214 213
f 1 213 235
f 1 235 248
f 1 248 247
f 1 247 244
f 1 244 227
f 1 227 225
f 1 225 198
f 1 198 221
f 1 221 193
f 1 193 152
f 1 152 150
f 1 150 149
f 1 149 148
f 1 148 145
f 1 145 101
f 1 101 67
f 1 67 40
f 1 40 39
f 1 39 38
f 1 38 17
f 1 17 8
f 1 8 2
f 2 8 3
f 3 8 9
f 3 9 4
f 4 9 10
f 4 10 11
f 4 11 12
f 4 12 5
f 5 12 13
f 5 13 14
f 5 14 6
f 6 14 7
f 7 14 15
f 7 15 16
f 8 17 18
f 8 18 9
f 9 18 19
f 9 19 20
f 9 20 10
f 10 20 21
f 10 21 22
f 10 22 23
f 10 23 24
f 10 24 25
f 10 25 26
f 10 26 11
f 11 26 27
f 11 27 28
f 11 28 12
f 12 28 13
f 13 29 30
f 13 30 31
f 13 31 32
f 13 32 14
f 13 28 33
f 13 33 34
f 13 34 35
f 13 35 29
f 14 32 36
f 14 36 15
f 15 36 37
f 15 37 16
f 17 38 18
f 18 38 39
f 18 39 19
f 19 39 40
f 19 40 41
f 19 41 42
f 19 42 20
f 20 42 21
f 21 42 43
f 21 43 44
f 21 44 45
f 21 45 46
f 21 46 47
f 21 47 22
f 22 48 23
f 22 47 48
f 23 48 24
f 24 48 49
f 24 49 25
f 25 49 50
f 25 50 51
f 25 51 52
f 25 52 26
f 26 52 33
f 26 33 27
f 27 33 28
f 29 53 30
f 29 35 54
f 29 54 53
f 30 53 55
f 30 55 31
f 31 56 57
f 31 57 32
f 31 55 58
f 31 58 59
f 31 59 60
f 31 60 56
f 32 57 61
f 32 61 36
f 33 52 62
f 33 62 35
f 33 35 34
f 35 62 63
f 35 63 64
f 35 64 65
f 35 65 53
f 35 53 54
f 36 61 37
f 37 61 66
f 40 67 41
f 41 67 68
f 41 68 43
f 41 43 42
f 43 68 102
f 43 102 69
f 43 69 44
f 44 70 71
f 44 71 72
f 44 72 46
f 44 46 45
f 44 69 73
f 44 73 74
f 44 74 75
f 44 75 76
f 44 76 70
f 46 72 71
f 46 71 77
f 46 77 78
f 46 78 79
f 46 79 47
f 47 79 48
f 48 79 49
f 49 80 50
f 49 79 80
f 50 80 81
f 50 81 51
f 51 81 82
f 51 82 83
f 51 83 52
f 52 83 62
f 53 84 55
f 53 65 85
f 53 85 86
f 53 86 84
f 55 84 58
f 56 61 57
f 56 60 87
f 56 87 88
f 56 88 61
f 58 89 90
f 58 90 91
f 58 91 60
f 58 60 59
f 58 84 86
f 58 86 92
f 58 92 89
f 60 93 94
f 60 94 95
f 60 95 96
f 60 96 97
f 60 97 87
f 60 91 90
f 60 90 93
f 61 88 66
f 62 83 98
f 62 98 63
f 63 99 100
f 63 100 64
f 63 98 99
f 64 100 86
f 64 86 65
f 65 86 85
f 67 101 102
f 67 102 68
f 69 102 73
f 70 76 103
f 70 103 71
f 71 103 104
f 71 104 105
f 71 105 77
f 73 102 101
f 73 101 106
f 73 106 107
f 73 107 74
f 74 107 75
f 75 108 151
f 75 151 109
f 75 109 76
f 75 107 108
f 76 109 110
f 76 110 111
f 76 111 112
f 76 112 113
f 76 113 114
f 76 114 104
f 76 104 103
f 77 105 115
f 77 115 78
f 78 115 116
f 78 116 81
f 78 81 80
f 78 80 79
f 81 116 117
f 81 117 118
f 81 118 119
f 81 119 82
f 82 120 121
f 82 121 83
f 82 119 122
f 82 122 120
f 83 121 139
f 83 139 98
f 86 100 92
f 87 123 88
f 87 97 123
f 88 123 124
f 89 125 90
f 89 92 126
f 89 126 125
f 90 125 127
f 90 127 128
f 90 128 93
f 92 100 129
f 92 129 126
f 93 128 94
f 94 130 131
f 94 131 132
f 94 132 133
f 94 133 134
f 94 134 95
f 94 128 127
f 94 127 135
f 94 135 130
f 95 134 136
f 95 136 137
f 95 137 96
f 96 137 97
f 97 137 138
f 97 138 124
f 97 124 123
f 98 139 99
f 99 139 140
f 99 140 141
f 99 141 142
f 99 142 100
f 100 142 143
f 100 143 144
f 100 144 129
f 101 145 106
f 104 114 105
f 105 146 115
f 105 114 147
f 105 147 146
f 106 145 148
f 106 148 107
f 107 148 149
f 107 149 108
f 108 149 150
f 108 150 151
f 109 151 152
f 109 152 153
f 109 153 110
f 110 153 154
f 110 154 111
f 111 154 155
f 111 155 112
f 112 156 157
f 112 157 158
f 112 158 113
f 112 155 159
f 112 159 160
f 112 160 161
f 112 161 156
f 113 162 114
f 113 158 162
f 114 162 147
f 115 146 117
f 115 117 116
f 117 163 118
f 117 146 164
f 117 164 163
f 118 165 119
f 118 163 166
f 118 166 165
f 119 165 122
f 120 122 167
f 120 167 207
f 120 207 233
f 120 233 239
f 120 239 218
f 120 218 187
f 120 187 141
f 120 141 140
f 120 140 139
f 120 139 121
f 122 165 167
f 124 138 168
f 125 169 170
f 125 170 135
f 125 135 127
f 125 126 169
f 126 129 171
f 126 171 172
f 126 172 169
f 129 144 171
f 130 135 173
f 130 173 174
f 130 174 131
f 131 174 175
f 131 175 176
f 131 176 177
f 131 177 178
f 131 178 179
f 131 179 180
f 131 180 132
f 132 180 181
f 132 181 133
f 133 181 182
f 133 182 134
f 134 182 183
f 134 183 184
f 134 184 136
f 135 170 173
f 136 185 137
f 136 184 185
f 137 186 168
f 137 168 138
f 137 185 186
f 141 187 188
f 141 188 142
f 142 188 143
f 143 188 189
f 143 189 190
f 143 190 144
f 144 190 191
f 144 191 171
f 146 147 192
f 146 192 164
f 147 162 158
f 147 158 157
f 147 157 156
f 147 156 192
f 150 152 151
f 152 193 154
f 152 154 153
f 154 193 194
f 154 194 155
f 155 194 159
f 156 161 195
f 156 195 196
f 156 196 197
f 156 197 192
f 159 194 198
f 159 198 199
f 159 199 160
f 160 199 200
f 160 200 161
f 161 200 195
f 163 164 197
f 163 197 201
f 163 201 166
f 164 192 197
f 165 166 202
f 165 202 167
f 166 203 202
f 166 201 204
f 166 204 205
f 166 205 203
f 167 202 206
f 167 206 207
f 169 172 191
f 169 191 170
f 170 191 175
f 170 175 174
f 170 174 173
f 171 191 172
f 175 191 176
f 176 191 190
f 176 190 208
f 176 208 177
f 177 208 209
f 177 209 178
f 178 209 210
f 178 210 211
f 178 211 179
f 179 212 180
f 179 211 213
f 179 213 214
f 179 214 212
f 180 212 181
f 181 215 183
f 181 183 182
f 181 212 215
f 187 216 217
f 187 217 188
f 187 218 216
f 188 217 189
f 189 219 190
f 189 217 220
f 189 220 241
f 189 241 231
f 189 231 205
f 189 205 230
f 189 230 243
f 189 243 242
f 189 242 226
f 189 226 244
f 189 244 247
f 189 247 234
f 189 234 209
f 189 209 219
f 190 219 209
f 190 209 208
f 193 221 194
f 194 221 198
f 195 200 222
f 195 222 196
f 196 223 201
f 196 201 224
f 196 224 197
f 196 222 223
f 197 224 201
f 198 225 199
f 199 225 200
f 200 226 242
f 200 242 222
f 200 225 227
f 200 227 244
f 200 244 226
f 201 223 228
f 201 228 204
f 202 203 205
f 202 205 229
f 202 229 206
f 204 228 230
f 204 230 205
f 205 231 229
f 206 229 231
f 206 231 232
f 206 232 233
f 206 233 207
f 209 234 235
f 209 235 210
f 210 235 213
f 210 213 211
f 212 214 236
f 212 236 215
f 216 218 237
f 216 237 238
f 216 238 220
f 216 220 217
f 218 239 237
f 220 238 240
f 220 240 241
f 222 242 243
f 222 243 228
f 222 228 223
f 228 243 230
f 231 241 245
f 231 245 246
f 231 246 232
f 232 246 245
f 232 245 233
f 233 245 239
f 234 247 248
f 234 248 235
f 237 239 245
f 237 245 240
f 237 240 238
f 240 245 241
