v 0.482922 0.0818243 -0.410766
v 0.619945 0.0818243 -0.410766
v 0.482922 0.0818243 0.126922
v 0.482922 0.0853982 -0.456884
v 0.634895 0.0834089 -0.410766
v 0.619945 0.0818243 0.126922
v 0.605076 0.085297 -0.455574
v 0.619945 0.0855667 -0.455574
v 0.482922 0.0846901 0.201628
v 0.482922 0.0880617 -0.476216
v 0.605076 0.0876234 -0.475479
v 0.653335 0.0885337 -0.410766
v 0.634895 0.0834089 0.126922
v 0.641797 0.0900172 -0.454345
v 0.619945 0.0847238 0.201628
v 0.605076 0.0846901 0.201628
v 0.63295 0.0900172 -0.469253
v 0.569208 0.0893429 0.239637
v 0.482922 0.0870839 0.214325
v 0.482922 0.0984798 -0.487193
v 0.605076 0.0971649 -0.486865
v 0.620345 0.0923773 -0.480476
v 0.664767 0.0926133 -0.410766
v 0.653335 0.0885337 0.126922
v 0.664767 0.0982438 -0.455574
v 0.63692 0.0878594 0.20597
v 0.649818 0.0959511 -0.470482
v 0.619945 0.0871851 0.213424
v 0.649818 0.101312 -0.482687
v 0.619945 0.0940293 0.231527
v 0.619945 0.0994238 0.243815
v 0.590127 0.14612 0.301564
v 0.575204 0.145412 0.30222
v 0.560254 0.146187 0.301564
v 0.540695 0.148244 0.299762
v 0.482922 0.111123 0.241603
v 0.482922 0.112101 -0.490551
v 0.619945 0.112101 -0.490551
v 0.634895 0.0987158 -0.48408
v 0.634895 0.112101 -0.490387
v 0.649818 0.112101 -0.488995
v 0.67969 0.0983112 -0.410766
v 0.664767 0.0926133 0.126922
v 0.689523 0.103503 -0.422234
v 0.664767 0.0969289 0.201628
v 0.680383 0.10438 -0.455574
v 0.676759 0.105729 -0.46827
v 0.67937 0.103301 0.20638
v 0.639665 0.102795 0.241357
v 0.664261 0.103402 -0.47679
v 0.67969 0.114899 -0.483261
v 0.609793 0.148176 0.299762
v 0.590127 0.158426 0.312213
v 0.605849 0.16227 0.312869
v 0.575204 0.157718 0.312787
v 0.560254 0.158493 0.312213
v 0.544079 0.157853 0.308855
v 0.526118 0.15084 0.297223
v 0.482922 0.399222 0.242258
v 0.511542 0.162843 0.299844
v 0.501816 0.172418 0.301728
v 0.488652 0.182027 0.299271
v 0.483455 0.200065 0.305087
v 0.634895 0.380915 -0.490715
v 0.634895 0.127037 -0.490715
v 0.482922 0.397165 -0.490224
v 0.649818 0.127037 -0.490715
v 0.67969 0.127037 -0.489568
v 0.664767 0.127037 -0.490551
v 0.694426 0.104785 -0.410766
v 0.67969 0.0983112 0.126922
v 0.694639 0.111089 -0.455574
v 0.709589 0.112438 -0.410766
v 0.702394 0.119552 -0.471056
v 0.708869 0.117967 0.206461
v 0.673454 0.118541 0.240374
v 0.694639 0.109505 0.201628
v 0.624396 0.150705 0.297387
v 0.693147 0.121811 -0.482769
v 0.668898 0.227374 0.345143
v 0.654721 0.227273 0.345143
v 0.560254 0.171845 0.319176
v 0.546158 0.166922 0.315736
v 0.532354 0.16999 0.314589
v 0.482922 0.420227 0.215472
v 0.485214 0.325419 0.301401
v 0.498831 0.344603 0.299517
v 0.525745 0.360753 0.3005
v 0.545305 0.367867 0.299926
v 0.556337 0.372722 0.297878
v 0.514687 0.182162 0.314589
v 0.504987 0.190995 0.315572
v 0.4955 0.200907 0.313934
v 0.486093 0.216653 0.313852
v 0.486227 0.291602 0.31377
v 0.619945 0.395851 -0.490551
v 0.649818 0.380915 -0.490715
v 0.482922 0.411528 -0.486292
v 0.605076 0.410787 -0.486783
v 0.67969 0.141973 -0.490715
v 0.694639 0.141973 -0.490469
v 0.709589 0.141973 -0.487766
v 0.694426 0.104785 0.126922
v 0.710042 0.119451 -0.455574
v 0.720887 0.119619 -0.416173
v 0.723126 0.120766 0.126922
v 0.709589 0.112438 0.126922
v 0.709589 0.130914 -0.481541
v 0.719875 0.137455 -0.478182
v 0.728962 0.133274 -0.453772
v 0.735917 0.131083 0.126922
v 0.735757 0.139984 0.206052
v 0.738235 0.231589 0.243978
v 0.738981 0.246525 0.243978
v 0.669111 0.246525 0.346126
v 0.747242 0.167698 0.209574
v 0.734691 0.201717 0.242586
v 0.73645 0.216653 0.243651
v 0.515433 0.201717 0.320814
v 0.530382 0.186781 0.320323
v 0.653815 0.246525 0.345717
v 0.50051 0.216653 0.320159
v 0.569634 0.418743 0.239883
v 0.482922 0.423059 0.203103
v 0.487026 0.305055 0.312705
v 0.499151 0.319182 0.314261
v 0.519616 0.341535 0.312132
v 0.531581 0.341602 0.316555
v 0.545305 0.351751 0.313934
v 0.560894 0.367024 0.303858
v 0.572965 0.369923 0.302466
v 0.50051 0.291265 0.319913
v 0.499151 0.307482 0.317866
v 0.634895 0.395851 -0.490305
v 0.664767 0.380915 -0.490469
v 0.67969 0.365979 -0.490715
v 0.482922 0.420429 -0.475069
v 0.605076 0.420328 -0.475479
v 0.620079 0.41554 -0.480394
v 0.634895 0.408932 -0.483998
v 0.709589 0.171845 -0.490715
v 0.709589 0.156909 -0.490469
v 0.729175 0.171845 -0.48408
v 0.729601 0.156808 -0.48064
v 0.735917 0.131083 -0.410766
v 0.731174 0.143659 -0.46909
v 0.746469 0.146221 -0.41519
v 0.746469 0.146187 0.131346
v 0.744764 0.155661 0.201628
v 0.744551 0.231589 0.231527
v 0.746123 0.246525 0.231527
v 0.738528 0.261393 0.243978
v 0.669004 0.281555 0.345471
v 0.654401 0.28169 0.345389
v 0.750413 0.156909 0.126922
v 0.752439 0.171845 0.126922
v 0.754464 0.261393 0.141831
v 0.59527 0.41935 0.238162
v 0.590606 0.371609 0.29968
v 0.605076 0.423261 0.201628
v 0.482922 0.426262 0.126922
v 0.513274 0.326161 0.317538
v 0.545305 0.336107 0.320569
v 0.560254 0.353268 0.314835
v 0.575204 0.35401 0.315244
v 0.590127 0.353335 0.314917
v 0.515433 0.306201 0.321306
v 0.649818 0.395851 -0.488421
v 0.67969 0.380915 -0.488995
v 0.694639 0.365979 -0.490305
v 0.709589 0.336107 -0.490715
v 0.709589 0.351043 -0.490469
v 0.482922 0.422654 -0.455574
v 0.605076 0.422654 -0.455574
v 0.619945 0.422317 -0.455574
v 0.63263 0.417766 -0.469008
v 0.654641 0.40519 -0.480885
v 0.67969 0.392209 -0.482687
v 0.729175 0.336107 -0.48408
v 0.739568 0.171845 -0.470482
v 0.745084 0.163045 -0.452379
v 0.750387 0.156909 -0.410766
v 0.749028 0.152357 0.112014
v 0.747242 0.34022 0.209574
v 0.74527 0.261393 0.231527
v 0.737942 0.276329 0.243978
v 0.616828 0.346053 0.31549
v 0.605076 0.351852 0.314016
v 0.737036 0.291265 0.243815
v 0.734878 0.306201 0.242422
v 0.734851 0.366282 0.206707
v 0.690163 0.376363 0.241849
v 0.674174 0.389579 0.240702
v 0.624689 0.360921 0.300663
v 0.752439 0.171845 0.112014
v 0.75513 0.261393 0.126922
v 0.752412 0.336107 0.126922
v 0.640544 0.406336 0.242504
v 0.636814 0.419856 0.205888
v 0.619945 0.423194 0.201628
v 0.605076 0.367934 0.300008
v 0.619945 0.426262 0.126922
v 0.482922 0.426262 -0.410766
v 0.692188 0.385635 -0.482196
v 0.709029 0.37225 -0.483507
v 0.721287 0.363416 -0.482032
v 0.619945 0.426262 -0.410766
v 0.634895 0.424542 -0.410766
v 0.649818 0.41109 -0.470482
v 0.644701 0.416451 -0.453526
v 0.671429 0.402627 -0.469417
v 0.700076 0.389006 -0.468188
v 0.729521 0.350942 -0.480476
v 0.739568 0.336107 -0.470482
v 0.747082 0.261393 -0.448775
v 0.752439 0.261393 -0.425675
v 0.750387 0.171845 -0.425675
v 0.752412 0.171845 -0.410766
v 0.744124 0.276329 0.231527
v 0.748868 0.355291 0.129134
v 0.744577 0.352223 0.201628
v 0.738901 0.371643 0.126922
v 0.722966 0.377981 0.206707
v 0.70751 0.389209 0.206216
v 0.75513 0.261393 -0.410766
v 0.752412 0.336107 -0.410766
v 0.677771 0.40401 0.206134
v 0.664767 0.40991 0.201628
v 0.652482 0.419182 0.126922
v 0.634895 0.424542 0.126922
v 0.709962 0.381353 -0.471056
v 0.722087 0.371002 -0.47253
v 0.733998 0.361427 -0.466632
v 0.652482 0.419182 -0.410766
v 0.664767 0.408528 -0.455574
v 0.678571 0.402796 -0.455574
v 0.694639 0.395075 -0.455574
v 0.708416 0.387523 -0.455574
v 0.744977 0.344873 -0.452379
v 0.748868 0.355291 -0.412896
v 0.721794 0.386275 0.129134
v 0.738901 0.371643 -0.410766
v 0.709589 0.393794 0.126922
v 0.694639 0.396592 0.201628
v 0.692881 0.402425 0.126922
v 0.67969 0.408393 0.126922
v 0.664767 0.414495 0.126922
v 0.7227 0.377813 -0.455574
v 0.733039 0.367833 -0.455574
v 0.664767 0.414495 -0.410766
v 0.67969 0.408393 -0.410766
v 0.690695 0.403201 -0.415599
v 0.709589 0.393794 -0.410766
v 0.721794 0.386275 -0.412978
v 0.731573 0.372991 -0.443204
v 0.733572 0.374745 -0.425675
f 1 2 6
f 1 6 3
f 1 3 9
f 1 9 19
f 1 19 36
f 1 36 59
f 1 59 85
f 1 85 124
f 1 124 161
f 1 161 203
f 1 203 173
f 1 173 137
f 1 137 98
f 1 98 66
f 1 66 37
f 1 37 20
f 1 20 10
f 1 10 4
f 1 4 2
f 2 5 13
f 2 13 6
f 2 4 7
f 2 7 8
f 2 8 5
f 3 6 16
f 3 16 9
f 4 10 11
f 4 11 7
f 5 12 24
f 5 24 13
f 5 8 14
f 5 14 12
f 6 13 15
f 6 15 16
f 7 11 8
f 8 11 17
f 8 17 14
f 9 16 18
f 9 18 19
f 10 20 21
f 10 21 11
f 11 21 22
f 11 22 17
f 12 23 43
f 12 43 24
f 12 14 25
f 12 25 23
f 13 24 26
f 13 26 15
f 14 17 27
f 14 27 25
f 15 26 28
f 15 28 18
f 15 18 16
f 17 22 29
f 17 29 27
f 18 28 30
f 18 30 31
f 18 31 32
f 18 32 33
f 18 33 34
f 18 34 35
f 18 35 19
f 19 35 36
f 20 37 38
f 20 38 21
f 21 39 22
f 21 38 40
f 21 40 41
f 21 41 39
f 22 39 29
f 23 42 71
f 23 71 43
f 23 25 44
f 23 44 42
f 24 43 45
f 24 45 26
f 25 46 44
f 25 27 47
f 25 47 46
f 26 45 48
f 26 48 49
f 26 49 30
f 26 30 28
f 27 29 50
f 27 50 47
f 29 51 50
f 29 39 41
f 29 41 51
f 30 49 31
f 31 52 32
f 31 49 52
f 32 53 33
f 32 52 54
f 32 54 53
f 33 53 55
f 33 55 56
f 33 56 34
f 34 56 57
f 34 57 35
f 35 57 58
f 35 58 36
f 36 58 60
f 36 60 61
f 36 61 62
f 36 62 63
f 36 63 59
f 37 64 65
f 37 65 67
f 37 67 38
f 37 66 64
f 38 67 69
f 38 69 40
f 40 68 41
f 40 69 68
f 41 68 51
f 42 70 103
f 42 103 71
f 42 44 70
f 43 71 45
f 44 46 72
f 44 72 73
f 44 73 70
f 45 71 48
f 46 47 72
f 47 50 74
f 47 74 72
f 48 75 76
f 48 76 49
f 48 71 77
f 48 77 75
f 49 76 78
f 49 78 52
f 50 51 74
f 51 79 74
f 51 68 79
f 52 78 54
f 53 54 80
f 53 80 55
f 54 78 80
f 55 80 81
f 55 81 82
f 55 82 83
f 55 83 56
f 56 83 57
f 57 83 84
f 57 84 58
f 58 84 60
f 59 63 86
f 59 86 87
f 59 87 88
f 59 88 89
f 59 89 90
f 59 90 85
f 60 84 91
f 60 91 61
f 61 91 92
f 61 92 62
f 62 92 63
f 63 92 93
f 63 93 94
f 63 94 95
f 63 95 86
f 64 66 96
f 64 96 97
f 64 97 136
f 64 136 171
f 64 171 141
f 64 141 100
f 64 100 67
f 64 67 65
f 66 98 99
f 66 99 96
f 67 100 69
f 68 69 101
f 68 101 102
f 68 102 79
f 69 100 101
f 70 73 107
f 70 107 103
f 71 103 77
f 72 104 73
f 72 74 104
f 73 104 105
f 73 105 106
f 73 106 107
f 74 79 108
f 74 108 109
f 74 109 110
f 74 110 104
f 75 77 107
f 75 107 106
f 75 106 111
f 75 111 112
f 75 112 76
f 76 112 80
f 76 80 78
f 77 103 107
f 79 102 108
f 80 113 114
f 80 114 115
f 80 115 81
f 80 112 116
f 80 116 117
f 80 117 118
f 80 118 113
f 81 119 120
f 81 120 82
f 81 115 121
f 81 121 122
f 81 122 119
f 82 120 83
f 83 120 84
f 84 120 92
f 84 92 91
f 85 90 123
f 85 123 124
f 86 95 125
f 86 125 126
f 86 126 87
f 87 126 127
f 87 127 88
f 88 127 128
f 88 128 129
f 88 129 89
f 89 130 90
f 89 129 130
f 90 130 131
f 90 131 123
f 92 94 93
f 92 120 119
f 92 119 122
f 92 122 94
f 94 122 95
f 95 122 132
f 95 132 133
f 95 133 125
f 96 99 134
f 96 134 135
f 96 135 97
f 97 135 136
f 98 137 138
f 98 138 99
f 99 138 139
f 99 139 140
f 99 140 134
f 100 141 142
f 100 142 101
f 101 142 102
f 102 142 143
f 102 143 144
f 102 144 109
f 102 109 108
f 104 110 105
f 105 110 145
f 105 145 106
f 106 145 111
f 109 144 146
f 109 146 110
f 110 147 145
f 110 146 147
f 111 148 112
f 111 145 148
f 112 148 149
f 112 149 116
f 113 118 150
f 113 150 151
f 113 151 114
f 114 152 153
f 114 153 115
f 114 151 152
f 115 153 154
f 115 154 121
f 116 151 150
f 116 150 118
f 116 118 117
f 116 149 155
f 116 155 156
f 116 156 157
f 116 157 151
f 121 154 132
f 121 132 122
f 123 158 124
f 123 131 159
f 123 159 158
f 124 160 161
f 124 158 160
f 125 133 126
f 126 133 162
f 126 162 127
f 127 162 128
f 128 162 163
f 128 163 129
f 129 163 164
f 129 164 130
f 130 164 131
f 131 164 165
f 131 165 166
f 131 166 159
f 132 154 167
f 132 167 133
f 133 167 162
f 134 140 168
f 134 168 169
f 134 169 135
f 135 169 170
f 135 170 136
f 136 170 172
f 136 172 171
f 137 173 174
f 137 174 138
f 138 174 175
f 138 175 176
f 138 176 139
f 139 176 177
f 139 177 140
f 140 177 178
f 140 178 168
f 141 171 179
f 141 179 143
f 141 143 142
f 143 179 214
f 143 214 180
f 143 180 144
f 144 180 146
f 145 147 148
f 146 180 181
f 146 181 147
f 147 181 182
f 147 182 183
f 147 183 148
f 148 183 155
f 148 155 149
f 151 157 184
f 151 184 185
f 151 185 186
f 151 186 152
f 152 186 153
f 153 187 188
f 153 188 166
f 153 166 165
f 153 165 154
f 153 186 189
f 153 189 190
f 153 190 184
f 153 184 191
f 153 191 192
f 153 192 193
f 153 193 194
f 153 194 187
f 154 165 163
f 154 163 167
f 155 183 182
f 155 182 195
f 155 195 156
f 156 195 225
f 156 225 196
f 156 196 157
f 157 196 197
f 157 197 184
f 158 159 198
f 158 198 199
f 158 199 200
f 158 200 160
f 159 166 188
f 159 188 201
f 159 201 198
f 160 200 202
f 160 202 161
f 161 202 207
f 161 207 203
f 162 167 163
f 163 165 164
f 168 178 169
f 169 178 204
f 169 204 205
f 169 205 170
f 170 205 172
f 171 172 179
f 172 205 206
f 172 206 179
f 173 203 207
f 173 207 174
f 174 207 175
f 175 207 208
f 175 208 176
f 176 209 177
f 176 208 210
f 176 210 209
f 177 209 211
f 177 211 178
f 178 211 212
f 178 212 204
f 179 206 213
f 179 213 214
f 180 214 215
f 180 215 181
f 181 215 216
f 181 216 217
f 181 217 182
f 182 218 195
f 182 217 218
f 184 190 189
f 184 189 219
f 184 219 185
f 184 197 220
f 184 220 221
f 184 221 191
f 185 219 189
f 185 189 186
f 187 194 188
f 188 194 201
f 191 221 222
f 191 222 223
f 191 223 192
f 192 223 193
f 193 198 194
f 193 223 224
f 193 224 198
f 194 198 201
f 195 218 225
f 196 225 226
f 196 226 197
f 197 226 240
f 197 240 220
f 198 224 227
f 198 227 199
f 199 227 228
f 199 228 229
f 199 229 230
f 199 230 200
f 200 230 202
f 202 230 208
f 202 208 207
f 204 212 231
f 204 231 205
f 205 231 232
f 205 232 206
f 206 232 233
f 206 233 213
f 208 234 210
f 208 230 229
f 208 229 234
f 209 210 235
f 209 235 211
f 210 234 235
f 211 235 236
f 211 236 237
f 211 237 212
f 212 237 238
f 212 238 231
f 213 233 214
f 214 233 239
f 214 239 215
f 215 239 216
f 216 239 225
f 216 225 217
f 217 225 218
f 220 240 242
f 220 242 222
f 220 222 221
f 222 241 223
f 222 242 254
f 222 254 241
f 223 241 224
f 224 241 243
f 224 243 244
f 224 244 227
f 225 239 226
f 226 239 240
f 227 244 245
f 227 245 246
f 227 246 228
f 228 246 247
f 228 247 229
f 229 247 250
f 229 250 234
f 231 238 248
f 231 248 232
f 232 248 249
f 232 249 233
f 233 249 240
f 233 240 239
f 234 250 235
f 235 250 251
f 235 251 252
f 235 252 236
f 236 252 237
f 237 252 253
f 237 253 238
f 238 253 254
f 238 254 248
f 240 249 242
f 241 254 253
f 241 253 243
f 242 249 255
f 242 255 256
f 242 256 254
f 243 245 244
f 243 253 245
f 245 253 252
f 245 252 251
f 245 251 246
f 246 251 250
f 246 250 247
f 248 254 256
f 248 256 255
f 248 255 249
