v -0.2728 0.0653457 -0.0697753
v -0.2728 0.0492767 -0.0866872
v -0.2728 0.0653457 -0.164335
v -0.278751 0.0653457 0.00744472
v -0.2728 0.0486779 -0.0878799
v -0.2728 0.0620774 -0.162103
v -0.320677 0.0653457 -0.172256
v -0.279111 0.0653457 0.0103806
v -0.28127 0.0558492 0.00744472
v -0.277131 0.0486779 -0.0970851
v -0.2728 0.0486779 -0.146842
v -0.295658 0.055389 0.082157
v -0.306255 0.0517144 0.0970811
v -0.306255 0.0503765 0.082157
v -0.306255 0.0496373 0.0672023
v -0.321194 0.0489813 0.112036
v -0.321194 0.0583147 -0.16617
v -0.2728 0.0562995 -0.155956
v -0.33682 0.0653457 -0.172348
v -0.281259 0.0653457 0.0245402
v -0.283509 0.0590457 0.0316658
v -0.282654 0.0575935 0.0223994
v -0.297031 0.0567972 0.0970811
v -0.277356 0.0486779 -0.0980638
v -0.351061 0.0520212 -0.141919
v -0.336122 0.0542925 -0.156843
v -0.336122 0.0582853 -0.166201
v -0.2728 0.0547837 -0.154151
v -0.273385 0.0486779 -0.145772
v -0.366 0.0492277 -0.0373276
v -0.304939 0.0546939 0.1128
v -0.321194 0.0503618 0.12696
v -0.336122 0.0492326 0.112036
v -0.351061 0.0490385 -0.0224035
v -0.279414 0.0486779 -0.11204
v -0.349407 0.0653457 -0.168647
v -0.344897 0.0591795 -0.165069
v -0.296884 0.0653457 0.112036
v -0.297301 0.0653457 0.114299
v -0.299067 0.0614949 0.118305
v -0.298066 0.0583865 0.108335
v -0.366 0.0519608 -0.11204
v -0.366 0.0526951 -0.126964
v -0.366473 0.0558557 -0.141949
v -0.361815 0.0574287 -0.152622
v -0.350352 0.0564186 -0.157301
v -0.275038 0.0486779 -0.14201
v -0.351061 0.0493697 0.0522782
v -0.351061 0.0498315 0.0672023
v -0.366 0.0498902 -0.0224035
v -0.377778 0.0547021 -0.0373276
v -0.378509 0.0548489 -0.0522823
v -0.378397 0.0559552 -0.11204
v -0.309056 0.0555783 0.12696
v -0.312195 0.0578317 0.135676
v -0.321194 0.0558361 0.137419
v -0.336122 0.0565753 0.13693
v -0.336122 0.0515235 0.12696
v -0.351061 0.0522578 0.0970811
v -0.351061 0.0506522 0.082157
v -0.278413 0.0486779 -0.126964
v -0.351421 0.0653457 -0.167761
v -0.354852 0.0612534 -0.162592
v -0.298673 0.0653457 0.11907
v -0.301947 0.0653457 0.123902
v -0.377564 0.0566895 -0.126964
v -0.375585 0.0582413 -0.136995
v -0.368104 0.0653457 -0.1562
v -0.366776 0.0653457 -0.157607
v -0.371771 0.0612256 -0.146934
v -0.366 0.0510438 -0.00747938
v -0.361995 0.0551329 0.0672023
v -0.376597 0.0553629 -0.0224035
v -0.383358 0.0653457 -0.0522823
v -0.387723 0.0653457 -0.11204
v -0.385866 0.0628541 -0.11204
v -0.385034 0.0635312 -0.126964
v -0.311509 0.0653457 0.136257
v -0.321194 0.0653457 0.14008
v -0.304478 0.0653457 0.12751
v -0.323838 0.0653457 0.139927
v -0.336122 0.0653457 0.139193
v -0.337922 0.0653457 0.138642
v -0.344188 0.0588173 0.135003
v -0.346674 0.0567401 0.12696
v -0.35168 0.0552977 0.111332
v -0.359644 0.0577305 0.0970811
v -0.360826 0.0561233 0.082157
v -0.358148 0.0653457 -0.164488
v -0.365134 0.0653457 -0.158922
v -0.385934 0.0653457 -0.128891
v -0.380219 0.0653457 -0.140971
v -0.373965 0.0653457 -0.149748
v -0.378554 0.0653457 -0.143356
v -0.375416 0.0565182 -0.00747938
v -0.381569 0.0653457 -0.0373276
v -0.374223 0.058331 0.00744472
v -0.387419 0.0653457 -0.116597
v -0.386463 0.0653457 -0.126964
v -0.344672 0.0653457 0.13537
v -0.350004 0.0653457 0.12696
v -0.357428 0.0653457 0.113504
v -0.358879 0.0590587 0.105889
v -0.373582 0.0595336 0.015549
v -0.375618 0.0653457 0.00744472
v -0.359858 0.0653457 0.107754
v -0.361928 0.0653457 0.0970811
f 1 2 5
f 1 5 11
f 1 11 28
f 1 28 18
f 1 18 6
f 1 6 3
f 1 3 7
f 1 7 19
f 1 19 36
f 1 36 62
f 1 62 89
f 1 89 90
f 1 90 69
f 1 69 68
f 1 68 93
f 1 93 94
f 1 94 92
f 1 92 91
f 1 91 99
f 1 99 98
f 1 98 75
f 1 75 74
f 1 74 96
f 1 96 105
f 1 105 107
f 1 107 106
f 1 106 102
f 1 102 101
f 1 101 100
f 1 100 83
f 1 83 82
f 1 82 81
f 1 81 79
f 1 79 78
f 1 78 80
f 1 80 65
f 1 65 64
f 1 64 39
f 1 39 38
f 1 38 20
f 1 20 8
f 1 8 4
f 1 4 2
f 2 4 5
f 3 6 7
f 4 8 9
f 4 9 5
f 5 10 24
f 5 24 35
f 5 35 61
f 5 61 47
f 5 47 29
f 5 29 11
f 5 9 12
f 5 12 13
f 5 13 14
f 5 14 15
f 5 15 16
f 5 16 10
f 6 17 7
f 6 18 17
f 7 17 19
f 8 20 21
f 8 21 22
f 8 22 9
f 9 22 23
f 9 23 12
f 10 16 24
f 11 25 26
f 11 26 27
f 11 27 17
f 11 17 28
f 11 29 30
f 11 30 25
f 12 23 31
f 12 31 13
f 13 31 32
f 13 32 16
f 13 16 14
f 14 16 15
f 16 32 33
f 16 33 30
f 16 30 34
f 16 34 35
f 16 35 24
f 17 27 19
f 17 18 28
f 19 27 37
f 19 37 36
f 20 38 21
f 21 38 39
f 21 39 40
f 21 40 41
f 21 41 22
f 22 41 23
f 23 41 31
f 25 42 43
f 25 43 44
f 25 44 45
f 25 45 46
f 25 46 26
f 25 30 42
f 26 46 27
f 27 46 37
f 29 47 30
f 30 33 48
f 30 48 49
f 30 49 50
f 30 50 51
f 30 51 52
f 30 52 53
f 30 53 42
f 30 47 34
f 31 41 54
f 31 54 32
f 32 54 55
f 32 55 56
f 32 56 57
f 32 57 58
f 32 58 33
f 33 58 59
f 33 59 60
f 33 60 49
f 33 49 48
f 34 47 61
f 34 61 35
f 36 37 63
f 36 63 62
f 37 46 45
f 37 45 63
f 39 64 40
f 40 64 65
f 40 65 55
f 40 55 54
f 40 54 41
f 42 53 43
f 43 66 44
f 43 53 66
f 44 66 67
f 44 67 45
f 45 68 69
f 45 69 63
f 45 67 70
f 45 70 68
f 49 60 50
f 50 71 51
f 50 60 71
f 51 71 60
f 51 60 72
f 51 72 73
f 51 73 74
f 51 74 75
f 51 75 52
f 52 75 76
f 52 76 53
f 53 76 77
f 53 77 66
f 55 78 79
f 55 79 56
f 55 65 80
f 55 80 78
f 56 79 57
f 57 79 81
f 57 81 82
f 57 82 83
f 57 83 84
f 57 84 58
f 58 84 85
f 58 85 86
f 58 86 59
f 59 87 88
f 59 88 72
f 59 72 60
f 59 86 87
f 62 63 89
f 63 69 90
f 63 90 89
f 66 77 67
f 67 77 91
f 67 91 92
f 67 92 70
f 68 70 93
f 70 92 94
f 70 94 93
f 72 88 73
f 73 88 95
f 73 95 74
f 74 95 97
f 74 97 96
f 75 98 76
f 76 98 77
f 77 98 99
f 77 99 91
f 83 100 84
f 84 100 101
f 84 101 102
f 84 102 103
f 84 103 85
f 85 103 86
f 86 103 87
f 87 103 104
f 87 104 97
f 87 97 95
f 87 95 88
f 96 97 104
f 96 104 105
f 102 106 103
f 103 106 107
f 103 107 104
f 104 107 105
