v 0.3168 -0.430964 0.00696578
v 0.364433 -0.430964 0.00696578
v 0.326332 -0.454808 0.00696578
v 0.0909257 -0.430964 0.137876
v 0.364379 -0.430964 0.00718758
v 0.357873 -0.455645 0.00696578
v 0.335569 -0.464407 0.00696578
v 0.0909257 -0.463252 0.149238
v 0.0909257 -0.430964 0.181125
v 0.363496 -0.430964 0.00899605
v 0.350671 -0.46438 0.00696578
v 0.344084 -0.463506 0.0306978
v 0.33581 -0.4646 0.00696578
v 0.0909257 -0.463994 0.153691
v 0.0909257 -0.455645 0.174864
v 0.0971108 -0.430964 0.181262
v 0.349278 -0.430964 0.0362256
v 0.345449 -0.464041 0.0224231
v 0.336132 -0.46527 0.0224231
v 0.341835 -0.464515 0.00696578
v 0.332196 -0.455645 0.0504375
v 0.326841 -0.455645 0.0579102
v 0.31265 -0.461457 0.0736405
v 0.298807 -0.46315 0.089695
v 0.330188 -0.463956 0.0475541
v 0.335543 -0.464363 0.036345
v 0.347913 -0.430964 0.0382558
v 0.0909257 -0.464519 0.156848
v 0.0909257 -0.459259 0.172032
v 0.0971108 -0.455645 0.174983
v 0.101154 -0.430964 0.181091
v 0.321325 -0.464634 0.0524336
v 0.29131 -0.465037 0.0821711
v 0.231548 -0.465145 0.126974
v 0.141932 -0.465565 0.156848
v 0.126992 -0.465287 0.156848
v 0.318326 -0.430964 0.0793731
v 0.29131 -0.463773 0.0925272
v 0.301752 -0.463773 0.0821711
v 0.316104 -0.430964 0.0818128
v 0.303868 -0.430964 0.0947451
v 0.288445 -0.430964 0.109094
v 0.285661 -0.430964 0.111397
v 0.282635 -0.461145 0.103378
v 0.239393 -0.463292 0.134668
v 0.256503 -0.463956 0.120985
v 0.316425 -0.46396 0.0636939
v 0.0909257 -0.464454 0.163399
v 0.0909257 -0.46438 0.167937
v 0.0971108 -0.46438 0.168005
v 0.112051 -0.46438 0.16763
v 0.141932 -0.46438 0.166402
v 0.112051 -0.455645 0.174216
v 0.112051 -0.430964 0.180307
v 0.261456 -0.464634 0.112079
v 0.245204 -0.464234 0.126359
v 0.231548 -0.463882 0.13605
v 0.215564 -0.464275 0.141578
v 0.201694 -0.465199 0.141919
v 0.156873 -0.465314 0.156848
v 0.244936 -0.430964 0.139786
v 0.259287 -0.455645 0.12293
v 0.266757 -0.455645 0.117453
v 0.241991 -0.430964 0.141493
v 0.215938 -0.430964 0.154885
v 0.209887 -0.463364 0.149665
v 0.156873 -0.464051 0.1656
v 0.141932 -0.455645 0.171059
v 0.114729 -0.430964 0.180016
v 0.201694 -0.463933 0.15074
v 0.21294 -0.430964 0.156182
v 0.183594 -0.430964 0.168551
v 0.166351 -0.463519 0.164781
v 0.156873 -0.455645 0.168671
v 0.153633 -0.430964 0.174728
v 0.181265 -0.430964 0.1692
v 0.167449 -0.430964 0.172305
f 1 2 6
f 1 6 11
f 1 11 20
f 1 20 13
f 1 13 7
f 1 7 3
f 1 3 4
f 1 4 9
f 1 9 16
f 1 16 31
f 1 31 54
f 1 54 69
f 1 69 75
f 1 75 77
f 1 77 76
f 1 76 72
f 1 72 71
f 1 71 65
f 1 65 64
f 1 64 61
f 1 61 43
f 1 43 42
f 1 42 41
f 1 41 40
f 1 40 37
f 1 37 27
f 1 27 17
f 1 17 10
f 1 10 5
f 1 5 2
f 2 5 6
f 3 7 8
f 3 8 4
f 4 8 14
f 4 14 28
f 4 28 48
f 4 48 49
f 4 49 29
f 4 29 15
f 4 15 9
f 5 10 6
f 6 10 12
f 6 12 11
f 7 13 8
f 8 13 14
f 9 15 16
f 10 17 12
f 11 12 18
f 11 18 19
f 11 19 20
f 12 21 22
f 12 22 23
f 12 23 24
f 12 24 25
f 12 25 26
f 12 26 18
f 12 17 27
f 12 27 21
f 13 20 19
f 13 19 28
f 13 28 14
f 15 29 30
f 15 30 16
f 16 30 31
f 18 26 19
f 19 26 32
f 19 32 33
f 19 33 34
f 19 34 35
f 19 35 36
f 19 36 28
f 21 27 22
f 22 37 23
f 22 27 37
f 23 37 24
f 24 38 39
f 24 39 25
f 24 37 40
f 24 40 41
f 24 41 42
f 24 42 43
f 24 43 44
f 24 44 45
f 24 45 46
f 24 46 38
f 25 47 32
f 25 32 26
f 25 39 47
f 28 36 48
f 29 49 50
f 29 50 30
f 30 50 51
f 30 51 52
f 30 52 53
f 30 53 31
f 31 53 54
f 32 47 39
f 32 39 33
f 33 39 38
f 33 38 55
f 33 55 34
f 34 56 57
f 34 57 58
f 34 58 59
f 34 59 35
f 34 55 56
f 35 59 60
f 35 60 52
f 35 52 51
f 35 51 50
f 35 50 49
f 35 49 36
f 36 49 48
f 38 46 55
f 43 61 62
f 43 62 63
f 43 63 44
f 44 63 45
f 45 57 56
f 45 56 46
f 45 63 62
f 45 62 61
f 45 61 64
f 45 64 65
f 45 65 66
f 45 66 57
f 46 56 55
f 52 60 67
f 52 67 53
f 53 67 68
f 53 68 54
f 54 68 69
f 57 66 70
f 57 70 58
f 58 70 59
f 59 70 60
f 60 70 67
f 65 71 66
f 66 71 72
f 66 72 73
f 66 73 70
f 67 73 68
f 67 70 73
f 68 73 74
f 68 74 75
f 68 75 69
f 72 76 73
f 73 77 74
f 73 76 77
f 74 77 75
