v 0.258236 -0.384353 -0.175421
v 0.281313 -0.405115 -0.175421
v 0.211205 -0.384353 0.00696577
v 0.425851 -0.384353 -0.175421
v 0.357133 -0.464122 -0.175421
v 0.231502 -0.397958 0.00696577
v 0.403031 -0.384353 0.00696577
v 0.4263 -0.384353 -0.172886
v 0.425851 -0.395893 -0.175421
v 0.363699 -0.465083 -0.175421
v 0.335809 -0.464598 0.00696577
v 0.403031 -0.395893 0.00696577
v 0.40857 -0.384353 -0.00747732
v 0.426493 -0.384353 -0.171797
v 0.426493 -0.395893 -0.171797
v 0.4229 -0.410834 -0.175421
v 0.366009 -0.465369 -0.175421
v 0.341841 -0.464511 0.00696577
v 0.351059 -0.465321 -0.00747732
v 0.399181 -0.411191 0.00696577
v 0.404143 -0.406791 0.00203834
v 0.40857 -0.395893 -0.00747732
v 0.413917 -0.384353 -0.0224203
v 0.428289 -0.384353 -0.156854
v 0.428289 -0.395893 -0.156854
v 0.423349 -0.410834 -0.171797
v 0.419114 -0.418824 -0.175421
v 0.373644 -0.464654 -0.175421
v 0.3779 -0.464376 -0.141911
v 0.378371 -0.464376 -0.126968
v 0.366009 -0.465488 -0.0522884
v 0.350674 -0.464376 0.00696577
v 0.360191 -0.464066 -0.00747732
v 0.350759 -0.464384 0.00669798
v 0.398988 -0.411533 0.00696577
v 0.401148 -0.416751 -0.00224639
v 0.405832 -0.411398 -0.0073345
v 0.418815 -0.405965 -0.0425407
v 0.413917 -0.395893 -0.0224203
v 0.416569 -0.384353 -0.031329
v 0.42846 -0.384353 -0.153462
v 0.429038 -0.395893 -0.141911
v 0.424461 -0.410834 -0.156854
v 0.419242 -0.418888 -0.171797
v 0.385835 -0.457815 -0.126968
v 0.375911 -0.46436 -0.175421
v 0.376082 -0.464376 -0.171797
v 0.37805 -0.464376 -0.112043
v 0.377579 -0.464376 -0.0970995
v 0.375804 -0.464376 -0.0672314
v 0.375077 -0.464225 -0.0522884
v 0.359058 -0.463542 0.00119924
v 0.374264 -0.463748 -0.0416837
v 0.404014 -0.418705 -0.0122084
v 0.418515 -0.418483 -0.058412
v 0.419777 -0.410905 -0.0529847
v 0.424803 -0.395893 -0.0672314
v 0.421638 -0.395893 -0.0522884
v 0.419093 -0.395893 -0.0414159
v 0.417339 -0.395893 -0.0339355
v 0.417339 -0.384353 -0.0339355
v 0.429038 -0.384353 -0.141911
v 0.429658 -0.395893 -0.126968
v 0.424932 -0.410834 -0.141911
v 0.425359 -0.410834 -0.126968
v 0.419478 -0.418927 -0.156854
v 0.41967 -0.418927 -0.126968
v 0.419649 -0.418927 -0.112043
v 0.419478 -0.418927 -0.0970995
v 0.419307 -0.418919 -0.0821744
v 0.418943 -0.418745 -0.0672314
v 0.423627 -0.410834 -0.0821744
v 0.422194 -0.410834 -0.0672314
v 0.426921 -0.395893 -0.0821744
v 0.42645 -0.384353 -0.0787823
v 0.424803 -0.384353 -0.0672314
v 0.424097 -0.384353 -0.0638393
v 0.421638 -0.384353 -0.0522884
v 0.419093 -0.384353 -0.0414159
v 0.429658 -0.384353 -0.126968
v 0.429637 -0.384353 -0.123576
v 0.429508 -0.395893 -0.112043
v 0.425252 -0.410834 -0.112043
v 0.424504 -0.410834 -0.0970995
v 0.428332 -0.395893 -0.0970995
v 0.426921 -0.384353 -0.0821744
v 0.429508 -0.384353 -0.112043
v 0.429252 -0.384353 -0.108633
v 0.428332 -0.384353 -0.0970995
f 1 2 3
f 1 3 7
f 1 7 13
f 1 13 23
f 1 23 40
f 1 40 61
f 1 61 79
f 1 79 78
f 1 78 77
f 1 77 76
f 1 76 75
f 1 75 86
f 1 86 89
f 1 89 88
f 1 88 87
f 1 87 81
f 1 81 80
f 1 80 62
f 1 62 41
f 1 41 24
f 1 24 14
f 1 14 8
f 1 8 4
f 1 4 9
f 1 9 16
f 1 16 27
f 1 27 46
f 1 46 28
f 1 28 17
f 1 17 10
f 1 10 5
f 1 5 2
f 2 5 3
f 3 5 6
f 3 6 11
f 3 11 18
f 3 18 32
f 3 32 35
f 3 35 20
f 3 20 12
f 3 12 7
f 4 8 9
f 5 10 11
f 5 11 6
f 7 12 22
f 7 22 13
f 8 14 15
f 8 15 9
f 9 15 16
f 10 17 11
f 11 17 19
f 11 19 18
f 12 20 21
f 12 21 22
f 13 22 39
f 13 39 23
f 14 24 25
f 14 25 15
f 15 25 26
f 15 26 16
f 16 26 27
f 17 28 29
f 17 29 30
f 17 30 31
f 17 31 19
f 18 19 32
f 19 31 33
f 19 33 34
f 19 34 32
f 20 35 36
f 20 36 21
f 21 36 37
f 21 37 38
f 21 38 39
f 21 39 22
f 23 39 40
f 24 41 25
f 25 41 42
f 25 42 43
f 25 43 26
f 26 43 27
f 27 43 44
f 27 44 45
f 27 45 46
f 28 46 47
f 28 47 29
f 29 45 30
f 29 47 46
f 29 46 45
f 30 48 31
f 30 45 48
f 31 48 49
f 31 49 50
f 31 50 51
f 31 51 33
f 32 34 33
f 32 33 52
f 32 52 35
f 33 51 53
f 33 53 52
f 35 52 36
f 36 54 37
f 36 52 54
f 37 54 55
f 37 55 38
f 38 55 56
f 38 56 57
f 38 57 58
f 38 58 59
f 38 59 60
f 38 60 39
f 39 60 40
f 40 60 61
f 41 62 42
f 42 62 80
f 42 80 63
f 42 63 43
f 43 63 64
f 43 64 44
f 44 64 65
f 44 65 66
f 44 66 45
f 45 51 49
f 45 49 48
f 45 66 67
f 45 67 68
f 45 68 69
f 45 69 70
f 45 70 71
f 45 71 51
f 49 51 50
f 51 71 55
f 51 55 53
f 52 53 54
f 53 55 54
f 55 71 72
f 55 72 73
f 55 73 56
f 56 73 57
f 57 74 75
f 57 75 76
f 57 76 77
f 57 77 58
f 57 73 74
f 58 78 79
f 58 79 59
f 58 77 78
f 59 79 61
f 59 61 60
f 63 80 81
f 63 81 82
f 63 82 83
f 63 83 65
f 63 65 64
f 65 83 68
f 65 68 67
f 65 67 66
f 68 83 69
f 69 83 70
f 70 83 71
f 71 83 84
f 71 84 72
f 72 84 82
f 72 82 85
f 72 85 74
f 72 74 73
f 74 85 89
f 74 89 86
f 74 86 75
f 81 87 82
f 82 87 88
f 82 88 85
f 82 84 83
f 85 88 89
