v 0.241651 -0.38359 -0.210173
v 0.241651 -0.464416 -0.352693
v 0.241651 -0.38359 -0.429352
v 0.0909257 -0.38359 -0.29808
v 0.0909257 -0.400855 -0.316601
v 0.0909257 -0.464376 -0.400083
v 0.241651 -0.464816 -0.355817
v 0.241651 -0.39589 -0.429352
v 0.236251 -0.38359 -0.431951
v 0.0909257 -0.38359 -0.465494
v 0.0909257 -0.46456 -0.404507
v 0.156875 -0.465393 -0.395884
v 0.231544 -0.465225 -0.36599
v 0.241651 -0.464808 -0.365965
v 0.226484 -0.410834 -0.434326
v 0.236251 -0.39589 -0.431951
v 0.241651 -0.410834 -0.425953
v 0.228785 -0.38359 -0.435426
v 0.0997485 -0.38359 -0.465269
v 0.0909257 -0.39589 -0.465494
v 0.0909257 -0.464752 -0.410806
v 0.171791 -0.465321 -0.395884
v 0.201668 -0.465305 -0.380937
v 0.217218 -0.464624 -0.381562
v 0.241651 -0.464536 -0.369515
v 0.216613 -0.39589 -0.440875
v 0.228785 -0.39589 -0.435426
v 0.224138 -0.418321 -0.433251
v 0.194881 -0.404467 -0.448373
v 0.241651 -0.415663 -0.423253
v 0.216613 -0.38359 -0.440875
v 0.112053 -0.39589 -0.464944
v 0.112053 -0.38359 -0.464944
v 0.112053 -0.407823 -0.46402
v 0.0909257 -0.403306 -0.46482
v 0.0909257 -0.464224 -0.414105
v 0.0971076 -0.464704 -0.410806
v 0.156875 -0.464376 -0.405807
v 0.171791 -0.464056 -0.404732
v 0.201668 -0.464368 -0.391385
v 0.231544 -0.46436 -0.377113
v 0.241651 -0.463968 -0.374289
v 0.202686 -0.39589 -0.446148
v 0.20515 -0.38359 -0.445224
v 0.180275 -0.418489 -0.448398
v 0.241651 -0.41873 -0.420904
v 0.241356 -0.463928 -0.374788
v 0.212645 -0.463936 -0.389685
v 0.181027 -0.463527 -0.403832
v 0.19522 -0.39589 -0.448473
v 0.185852 -0.410001 -0.449473
v 0.171791 -0.39589 -0.455496
v 0.186737 -0.39589 -0.451097
v 0.11434 -0.38359 -0.46477
v 0.125022 -0.39589 -0.46392
v 0.123192 -0.406093 -0.463645
v 0.0971076 -0.408535 -0.46422
v 0.112053 -0.415294 -0.459396
v 0.0909257 -0.416271 -0.460046
v 0.0909257 -0.4088 -0.464295
v 0.0909257 -0.463487 -0.418679
v 0.113396 -0.464232 -0.412281
v 0.0971076 -0.463439 -0.418629
v 0.109309 -0.463287 -0.418479
v 0.119268 -0.463055 -0.418229
v 0.196533 -0.38359 -0.448073
v 0.202686 -0.38359 -0.446148
v 0.171791 -0.410834 -0.452572
v 0.156875 -0.39589 -0.458846
v 0.171791 -0.38359 -0.455496
v 0.174432 -0.38359 -0.454722
v 0.186737 -0.38359 -0.451097
v 0.125022 -0.38359 -0.46392
v 0.134154 -0.38359 -0.462545
v 0.132487 -0.39589 -0.462795
v 0.14193 -0.39589 -0.461295
v 0.156875 -0.38359 -0.458846
v 0.14193 -0.38359 -0.461295
f 1 2 7
f 1 7 14
f 1 14 25
f 1 25 42
f 1 42 46
f 1 46 30
f 1 30 17
f 1 17 8
f 1 8 3
f 1 3 9
f 1 9 18
f 1 18 31
f 1 31 44
f 1 44 67
f 1 67 66
f 1 66 72
f 1 72 71
f 1 71 70
f 1 70 77
f 1 77 78
f 1 78 74
f 1 74 73
f 1 73 54
f 1 54 33
f 1 33 19
f 1 19 10
f 1 10 4
f 1 4 5
f 1 5 6
f 1 6 2
f 2 6 7
f 3 8 16
f 3 16 9
f 4 10 20
f 4 20 35
f 4 35 60
f 4 60 59
f 4 59 61
f 4 61 36
f 4 36 21
f 4 21 11
f 4 11 6
f 4 6 5
f 6 11 12
f 6 12 13
f 6 13 7
f 7 13 14
f 8 15 16
f 8 17 15
f 9 16 27
f 9 27 18
f 10 19 20
f 11 21 12
f 12 21 22
f 12 22 23
f 12 23 13
f 13 23 24
f 13 24 14
f 14 24 25
f 15 26 27
f 15 27 16
f 15 17 28
f 15 28 29
f 15 29 26
f 17 30 28
f 18 27 26
f 18 26 31
f 19 32 20
f 19 33 32
f 20 32 34
f 20 34 35
f 21 36 37
f 21 37 22
f 22 37 38
f 22 38 39
f 22 39 40
f 22 40 24
f 22 24 23
f 24 41 25
f 24 40 41
f 25 41 42
f 26 29 43
f 26 43 44
f 26 44 31
f 28 45 29
f 28 30 46
f 28 46 47
f 28 47 48
f 28 48 49
f 28 49 45
f 29 50 43
f 29 45 51
f 29 51 52
f 29 52 53
f 29 53 50
f 32 33 54
f 32 54 55
f 32 55 56
f 32 56 34
f 34 57 35
f 34 56 58
f 34 58 59
f 34 59 57
f 35 57 60
f 36 61 37
f 37 62 38
f 37 61 63
f 37 63 62
f 38 62 64
f 38 64 65
f 38 65 39
f 39 65 49
f 39 49 48
f 39 48 40
f 40 48 41
f 41 48 47
f 41 47 42
f 42 47 46
f 43 50 66
f 43 66 67
f 43 67 44
f 45 58 56
f 45 56 68
f 45 68 51
f 45 49 65
f 45 65 58
f 50 53 66
f 51 68 52
f 52 69 77
f 52 77 70
f 52 70 71
f 52 71 53
f 52 68 69
f 53 71 72
f 53 72 66
f 54 73 55
f 55 73 74
f 55 74 75
f 55 75 56
f 56 75 76
f 56 76 69
f 56 69 68
f 57 59 60
f 58 65 59
f 59 65 64
f 59 64 63
f 59 63 61
f 62 63 64
f 69 76 78
f 69 78 77
f 74 78 76
f 74 76 75
