v 0.425837 -0.383582 -0.175421
v 0.425837 -0.395896 -0.175421
v 0.42416 -0.383582 -0.184767
v 0.256977 -0.383582 -0.175421
v 0.422898 -0.410833 -0.175421
v 0.421473 -0.410833 -0.186756
v 0.419418 -0.410672 -0.200403
v 0.418733 -0.405586 -0.210545
v 0.423799 -0.395896 -0.186756
v 0.423799 -0.383582 -0.186756
v 0.281319 -0.405113 -0.175421
v 0.241651 -0.383582 -0.210172
v 0.241651 -0.464419 -0.352683
v 0.419111 -0.418822 -0.175421
v 0.418715 -0.418606 -0.186756
v 0.418336 -0.418341 -0.194537
v 0.418949 -0.395896 -0.211241
v 0.421023 -0.395896 -0.201696
v 0.403803 -0.41863 -0.240922
v 0.405209 -0.410704 -0.246142
v 0.403821 -0.405634 -0.254991
v 0.407337 -0.395896 -0.246515
v 0.412332 -0.395896 -0.231575
v 0.416533 -0.395896 -0.218723
v 0.421023 -0.383582 -0.201696
v 0.357139 -0.464122 -0.175421
v 0.241651 -0.383582 -0.429345
v 0.241651 -0.46482 -0.355815
v 0.375909 -0.464363 -0.175421
v 0.37535 -0.464307 -0.186756
v 0.374214 -0.463681 -0.201696
v 0.373493 -0.463128 -0.209228
v 0.418949 -0.383582 -0.211241
v 0.359465 -0.46381 -0.241667
v 0.38918 -0.418718 -0.271323
v 0.391073 -0.411017 -0.276344
v 0.400449 -0.395896 -0.262971
v 0.404055 -0.395896 -0.255488
v 0.389036 -0.406164 -0.285119
v 0.39394 -0.395896 -0.276394
v 0.404632 -0.383582 -0.253922
v 0.407337 -0.383582 -0.246515
v 0.412332 -0.383582 -0.231575
v 0.416533 -0.383582 -0.218723
v 0.363702 -0.465077 -0.175421
v 0.246501 -0.383582 -0.427034
v 0.241651 -0.395896 -0.429345
v 0.241651 -0.464812 -0.365957
v 0.261449 -0.465125 -0.351068
v 0.276378 -0.46527 -0.336128
v 0.36601 -0.465534 -0.186756
v 0.36601 -0.465366 -0.175421
v 0.373637 -0.46466 -0.175421
v 0.36601 -0.464949 -0.201696
v 0.360817 -0.464267 -0.231575
v 0.346519 -0.464267 -0.261454
v 0.344607 -0.46381 -0.270751
v 0.374214 -0.418702 -0.300109
v 0.385844 -0.416119 -0.281291
v 0.401098 -0.383582 -0.261653
v 0.404055 -0.383582 -0.255488
v 0.38936 -0.395896 -0.285741
v 0.376234 -0.410833 -0.303067
v 0.359807 -0.407792 -0.330311
v 0.377893 -0.395896 -0.305378
v 0.385357 -0.395896 -0.293198
v 0.39394 -0.383582 -0.276394
v 0.246501 -0.395896 -0.427034
v 0.258149 -0.383582 -0.420844
v 0.241651 -0.403757 -0.427556
v 0.256274 -0.410833 -0.419676
v 0.246411 -0.464612 -0.365933
v 0.241651 -0.464532 -0.369512
v 0.275044 -0.464018 -0.350048
v 0.29037 -0.464323 -0.335308
v 0.291326 -0.465278 -0.321188
v 0.351062 -0.46543 -0.231575
v 0.351297 -0.464548 -0.246589
v 0.336115 -0.465342 -0.261454
v 0.33588 -0.46454 -0.275996
v 0.317976 -0.464082 -0.306249
v 0.328668 -0.463112 -0.298791
v 0.357337 -0.417756 -0.327452
v 0.38936 -0.383582 -0.285741
v 0.360439 -0.395896 -0.331156
v 0.367326 -0.395896 -0.321188
v 0.372898 -0.395896 -0.312861
v 0.343886 -0.418478 -0.343933
v 0.345455 -0.410833 -0.345698
v 0.340244 -0.395896 -0.354747
v 0.346861 -0.395896 -0.347289
v 0.354344 -0.395896 -0.338614
v 0.377893 -0.383582 -0.305378
v 0.379209 -0.383582 -0.303241
v 0.373781 -0.383582 -0.311543
v 0.385357 -0.383582 -0.293198
v 0.258149 -0.395896 -0.420844
v 0.259465 -0.383582 -0.420024
v 0.241651 -0.410833 -0.42594
v 0.254254 -0.418413 -0.418433
v 0.284402 -0.404977 -0.403717
v 0.241651 -0.46397 -0.374285
v 0.284745 -0.463617 -0.344381
v 0.269166 -0.463264 -0.358724
v 0.299963 -0.463785 -0.329789
v 0.305462 -0.464291 -0.320194
v 0.306256 -0.465262 -0.306249
v 0.3227 -0.464628 -0.292825
v 0.314406 -0.463569 -0.314551
v 0.355408 -0.383582 -0.337321
v 0.360439 -0.383582 -0.331156
v 0.367326 -0.383582 -0.321188
v 0.368318 -0.383582 -0.319722
v 0.329281 -0.418622 -0.359196
v 0.331192 -0.410833 -0.361259
v 0.338639 -0.410833 -0.353156
v 0.332797 -0.395896 -0.362975
v 0.340244 -0.383582 -0.354747
v 0.341416 -0.383582 -0.353429
v 0.346861 -0.383582 -0.347289
v 0.354344 -0.383582 -0.338614
v 0.265614 -0.395896 -0.416171
v 0.265614 -0.383582 -0.416171
v 0.241651 -0.415662 -0.423255
v 0.241651 -0.418734 -0.420894
v 0.298809 -0.418309 -0.388404
v 0.276378 -0.395896 -0.409235
v 0.284654 -0.395896 -0.403891
v 0.292137 -0.395896 -0.398447
v 0.301784 -0.395896 -0.390965
v 0.300305 -0.410833 -0.389697
v 0.314279 -0.418558 -0.373912
v 0.323728 -0.410833 -0.368717
v 0.32544 -0.395896 -0.370432
v 0.332797 -0.383582 -0.362975
v 0.267507 -0.383582 -0.414953
v 0.316263 -0.410833 -0.375627
v 0.276378 -0.383582 -0.409235
v 0.284654 -0.383582 -0.403891
v 0.292137 -0.383582 -0.398447
v 0.301784 -0.383582 -0.390965
v 0.3031 -0.383582 -0.389846
v 0.310799 -0.383582 -0.383259
v 0.309249 -0.395896 -0.384576
v 0.317976 -0.395896 -0.377094
v 0.319292 -0.383582 -0.375926
v 0.32544 -0.383582 -0.370432
v 0.317976 -0.383582 -0.377094
f 1 2 3
f 1 3 10
f 1 10 25
f 1 25 33
f 1 33 44
f 1 44 43
f 1 43 42
f 1 42 41
f 1 41 61
f 1 61 60
f 1 60 67
f 1 67 84
f 1 84 96
f 1 96 94
f 1 94 93
f 1 93 95
f 1 95 113
f 1 113 112
f 1 112 111
f 1 111 110
f 1 110 121
f 1 121 120
f 1 120 119
f 1 119 118
f 1 118 135
f 1 135 147
f 1 147 146
f 1 146 148
f 1 148 143
f 1 143 142
f 1 142 141
f 1 141 140
f 1 140 139
f 1 139 138
f 1 138 136
f 1 136 123
f 1 123 98
f 1 98 69
f 1 69 46
f 1 46 27
f 1 27 12
f 1 12 4
f 1 4 11
f 1 11 26
f 1 26 45
f 1 45 52
f 1 52 53
f 1 53 29
f 1 29 14
f 1 14 5
f 1 5 2
f 2 5 6
f 2 6 7
f 2 7 8
f 2 8 9
f 2 9 3
f 3 9 10
f 4 12 13
f 4 13 11
f 5 14 15
f 5 15 16
f 5 16 6
f 6 16 7
f 7 16 8
f 8 17 18
f 8 18 9
f 8 16 19
f 8 19 20
f 8 20 21
f 8 21 22
f 8 22 23
f 8 23 24
f 8 24 17
f 9 18 25
f 9 25 10
f 11 13 26
f 12 27 47
f 12 47 70
f 12 70 99
f 12 99 124
f 12 124 125
f 12 125 102
f 12 102 73
f 12 73 48
f 12 48 28
f 12 28 13
f 13 28 26
f 14 29 15
f 15 30 16
f 15 29 30
f 16 30 31
f 16 31 32
f 16 32 19
f 17 33 25
f 17 25 18
f 17 24 44
f 17 44 33
f 19 34 35
f 19 35 36
f 19 36 21
f 19 21 20
f 19 32 34
f 21 37 38
f 21 38 22
f 21 36 39
f 21 39 40
f 21 40 37
f 22 38 41
f 22 41 42
f 22 42 43
f 22 43 23
f 23 43 44
f 23 44 24
f 26 28 45
f 27 46 68
f 27 68 47
f 28 48 49
f 28 49 50
f 28 50 51
f 28 51 52
f 28 52 45
f 29 53 51
f 29 51 30
f 30 51 54
f 30 54 55
f 30 55 31
f 31 55 34
f 31 34 32
f 34 55 56
f 34 56 57
f 34 57 35
f 35 57 58
f 35 58 59
f 35 59 36
f 36 59 39
f 37 60 38
f 37 40 60
f 38 61 41
f 38 60 61
f 39 62 40
f 39 59 58
f 39 58 63
f 39 63 64
f 39 64 65
f 39 65 66
f 39 66 62
f 40 62 84
f 40 84 67
f 40 67 60
f 46 69 97
f 46 97 68
f 47 68 71
f 47 71 70
f 48 72 49
f 48 73 72
f 49 72 74
f 49 74 75
f 49 75 50
f 50 75 76
f 50 76 77
f 50 77 51
f 51 77 54
f 51 53 52
f 54 77 55
f 55 77 78
f 55 78 56
f 56 79 80
f 56 80 57
f 56 78 77
f 56 77 79
f 57 80 81
f 57 81 82
f 57 82 58
f 58 82 83
f 58 83 63
f 62 66 96
f 62 96 84
f 63 83 64
f 64 85 86
f 64 86 87
f 64 87 65
f 64 83 88
f 64 88 89
f 64 89 90
f 64 90 91
f 64 91 92
f 64 92 85
f 65 93 94
f 65 94 66
f 65 87 95
f 65 95 93
f 66 94 96
f 68 97 71
f 69 98 97
f 70 71 99
f 71 100 99
f 71 97 101
f 71 101 100
f 72 73 102
f 72 102 74
f 74 103 75
f 74 102 104
f 74 104 103
f 75 105 106
f 75 106 107
f 75 107 76
f 75 103 105
f 76 107 79
f 76 79 77
f 79 107 80
f 80 107 108
f 80 108 81
f 81 108 106
f 81 106 109
f 81 109 82
f 82 109 88
f 82 88 83
f 85 110 111
f 85 111 112
f 85 112 86
f 85 92 110
f 86 112 113
f 86 113 87
f 87 113 95
f 88 114 115
f 88 115 116
f 88 116 89
f 88 109 105
f 88 105 114
f 89 116 117
f 89 117 90
f 90 117 135
f 90 135 118
f 90 118 119
f 90 119 91
f 91 119 120
f 91 120 121
f 91 121 92
f 92 121 110
f 97 98 122
f 97 122 101
f 98 123 122
f 99 100 124
f 100 125 124
f 100 101 126
f 100 126 104
f 100 104 102
f 100 102 125
f 101 122 127
f 101 127 128
f 101 128 129
f 101 129 130
f 101 130 131
f 101 131 126
f 103 104 126
f 103 126 132
f 103 132 105
f 105 109 106
f 105 132 114
f 106 108 107
f 114 132 133
f 114 133 115
f 115 133 134
f 115 134 117
f 115 117 116
f 117 134 147
f 117 147 135
f 122 123 136
f 122 136 127
f 126 131 137
f 126 137 133
f 126 133 132
f 127 138 139
f 127 139 128
f 127 136 138
f 128 139 140
f 128 140 129
f 129 140 141
f 129 141 130
f 130 141 142
f 130 142 143
f 130 143 144
f 130 144 131
f 131 144 145
f 131 145 137
f 133 137 134
f 134 146 147
f 134 137 145
f 134 145 146
f 143 145 144
f 143 148 145
f 145 148 146
