v -0.268079 -0.16958 -0.175697
v -0.257886 -0.112064 -0.141846
v -0.255975 -0.112064 -0.156832
v -0.253922 -0.112064 -0.172021
v 0.090852 -0.112064 -0.175697
v -0.267725 -0.209293 -0.175697
v -0.272679 -0.201724 -0.141846
v -0.271405 -0.167075 -0.14439
v -0.259231 -0.112064 -0.126899
v 0.090852 -0.383469 -0.175697
v 0.429327 -0.112064 -0.175414
v 0.445323 -0.171819 -0.175414
v 0.445748 -0.186745 -0.175414
v -0.248897 -0.384349 -0.166971
v -0.272113 -0.216676 -0.141846
v -0.0788809 -0.384349 -0.175697
v -0.271688 -0.201724 -0.111993
v -0.271688 -0.186745 -0.111993
v -0.272113 -0.186745 -0.126899
v -0.270697 -0.167288 -0.106742
v -0.258665 -0.112064 -0.111993
v 0.445111 -0.207374 -0.175414
v 0.426212 -0.384295 -0.172748
v 0.433857 -0.112064 -0.141926
v 0.449287 -0.167448 -0.146612
v 0.45042 -0.186745 -0.141846
v 0.449641 -0.201724 -0.146814
v 0.449216 -0.218595 -0.146289
v -0.251374 -0.384349 -0.141846
v -0.271051 -0.216676 -0.111993
v -0.251516 -0.384349 -0.120274
v 0.090852 -0.384349 0.0555262
v -0.268716 -0.220434 -0.0711133
v -0.268928 -0.201724 -0.0662658
v -0.268999 -0.167848 -0.0688915
v -0.253852 -0.112064 -0.0749508
v 0.428265 -0.384295 -0.156832
v 0.435202 -0.112064 -0.126899
v 0.449429 -0.169687 -0.106984
v 0.449995 -0.186745 -0.111993
v 0.449641 -0.201724 -0.106661
v 0.448862 -0.220647 -0.102541
v 0.42961 -0.384295 -0.126899
v 0.428973 -0.384295 -0.141846
v -0.249888 -0.384349 -0.0904223
v 0.429468 -0.384295 -0.111993
v 0.427486 -0.384295 -0.0887257
v 0.424443 -0.384295 -0.0654579
v 0.0673527 -0.384349 0.215047
v -0.24649 -0.384349 -0.0671141
v -0.243871 -0.384349 -0.0522486
v -0.237997 -0.384349 -0.02991
v -0.256612 -0.216676 -0.0255877
v -0.248048 -0.201724 0.00753648
v -0.248048 -0.186745 0.00753648
v -0.24734 -0.171819 0.00753648
v -0.255975 -0.161718 -0.0266784
v -0.248401 -0.112064 -0.037262
v -0.25102 -0.112064 -0.0544704
v 0.433503 -0.112064 -0.103874
v 0.445819 -0.171819 -0.0671141
v 0.445536 -0.201724 -0.0671141
v 0.444545 -0.216649 -0.0671141
v 0.421329 -0.384295 -0.0509964
v 0.087596 -0.384322 0.215532
v 0.0673527 -0.216676 0.234922
v 0.0523471 -0.216676 0.234114
v 0.0523471 -0.384349 0.213836
v 0.415029 -0.384295 -0.0265976
v 0.408517 -0.384295 -0.00736941
v 0.402996 -0.384295 0.00684976
v 0.392945 -0.384295 0.0284209
v 0.382328 -0.384295 0.0478914
v 0.371003 -0.384295 0.0662309
v 0.356068 -0.384295 0.0863478
v 0.344956 -0.384295 0.0997591
v 0.334693 -0.384295 0.110706
v 0.32358 -0.384295 0.121775
v 0.307725 -0.384295 0.136155
v 0.290171 -0.384295 0.149809
v 0.272618 -0.384295 0.161887
v 0.259948 -0.384295 0.169481
v 0.235741 -0.384295 0.18261
v 0.205517 -0.384295 0.195011
v 0.178408 -0.384295 0.203575
v 0.156678 -0.384295 0.209069
v 0.133533 -0.384295 0.212624
v -0.230706 -0.384349 -0.00736941
v -0.24642 -0.216676 0.00753648
v -0.229715 -0.216676 0.0430844
v -0.230494 -0.201724 0.0433268
v -0.233891 -0.186745 0.0373079
v -0.230211 -0.169367 0.0429228
v -0.220938 -0.112064 0.0324604
v -0.231626 -0.112064 0.00753648
v -0.238421 -0.112064 -0.00870245
v -0.244084 -0.112064 -0.0223157
v 0.428619 -0.112064 -0.0671141
v 0.438599 -0.186745 -0.037262
v 0.437113 -0.201724 -0.0315258
v 0.426496 -0.112064 -0.0522486
v 0.42416 -0.112064 -0.037262
v 0.435131 -0.167075 -0.026436
v 0.436546 -0.216649 -0.0317278
v 0.0880915 -0.216649 0.235205
v 0.110317 -0.384295 0.215128
v 0.112015 -0.216649 0.235326
v 0.0673527 -0.201724 0.236578
v 0.0523471 -0.201724 0.23577
v 0.0374123 -0.216676 0.232215
v 0.0361382 -0.384349 0.211371
v 0.422178 -0.216649 0.0128687
v 0.408163 -0.216649 0.04264
v 0.389406 -0.2207 0.0757642
v 0.366615 -0.216649 0.104122
v 0.340851 -0.216649 0.132802
v 0.318059 -0.216649 0.153808
v 0.283872 -0.217955 0.179217
v 0.251525 -0.216649 0.198162
v 0.225124 -0.220514 0.209513
v 0.17678 -0.218648 0.225954
v 0.15682 -0.216649 0.22959
v 0.12695 -0.216649 0.234114
v -0.221717 -0.384349 0.0144037
v -0.21018 -0.384349 0.0381966
v -0.210888 -0.216676 0.0765721
v -0.211241 -0.201724 0.0768953
v -0.210817 -0.167288 0.0765317
v -0.210109 -0.112064 0.0541123
v 0.42324 -0.186745 0.0134342
v 0.42324 -0.201724 0.0133938
v 0.418993 -0.112064 -0.0202555
v 0.422319 -0.167528 0.0123839
v 0.112015 -0.201724 0.236982
v 0.090852 -0.201724 0.236821
v 0.0673527 -0.186745 0.236578
v 0.0523471 -0.186745 0.23577
v 0.0374123 -0.201724 0.233548
v 0.0224775 -0.216676 0.229792
v 0.0215573 -0.384349 0.208988
v 0.4088 -0.201724 0.042842
v 0.390043 -0.201724 0.076451
v 0.370791 -0.201724 0.100648
v 0.342408 -0.201724 0.133408
v 0.318625 -0.201724 0.154374
v 0.280333 -0.201724 0.181964
v 0.251808 -0.201724 0.198808
v 0.233617 -0.201724 0.207049
v 0.201695 -0.201724 0.219168
v 0.186973 -0.201724 0.224096
v 0.171825 -0.201724 0.227732
v 0.141885 -0.201724 0.233064
v 0.12695 -0.201724 0.235649
v -0.199492 -0.384349 0.0559301
v -0.19114 -0.384349 0.0684931
v -0.180239 -0.384349 0.0837221
v -0.191564 -0.216676 0.101294
v -0.192131 -0.201724 0.1019
v -0.192201 -0.186745 0.1019
v -0.192131 -0.171819 0.101819
v -0.165163 -0.112064 0.113332
v -0.175639 -0.112064 0.0999611
v -0.201049 -0.112064 0.06716
v 0.408517 -0.169474 0.0425593
v 0.411844 -0.186745 0.0373079
v 0.40066 -0.112064 0.0236542
v 0.394715 -0.112064 0.0373079
v 0.112015 -0.186745 0.236982
v 0.090852 -0.186745 0.236821
v 0.0880915 -0.171819 0.236457
v 0.0673527 -0.171819 0.236174
v 0.0523471 -0.171819 0.235326
v 0.0374123 -0.171819 0.233347
v 0.0374123 -0.186745 0.233548
v 0.0075427 -0.201724 0.227691
v 0.00124319 -0.218648 0.225671
v -0.000809456 -0.384349 0.203494
v 0.38976 -0.167448 0.0761278
v 0.370791 -0.171819 0.100405
v 0.370791 -0.186745 0.100648
v 0.342408 -0.186745 0.133408
v 0.317776 -0.166702 0.153525
v 0.280262 -0.169874 0.181923
v 0.342054 -0.171819 0.133368
v 0.251525 -0.16958 0.198566
v 0.239988 -0.186745 0.204262
v 0.22208 -0.169767 0.21125
v 0.201695 -0.171819 0.218925
v 0.196174 -0.186745 0.221066
v 0.178125 -0.169687 0.226075
v 0.15682 -0.171819 0.230398
v 0.141885 -0.186745 0.233064
v 0.12695 -0.186745 0.235649
v -0.16672 -0.384349 0.0997995
v -0.159713 -0.216676 0.13668
v -0.163535 -0.201724 0.133772
v -0.163535 -0.171819 0.133812
v -0.154617 -0.112064 0.124319
v 0.387708 -0.112064 0.0513654
v 0.12695 -0.171819 0.235245
v 0.112015 -0.171819 0.236538
v 0.0881623 -0.112064 0.223409
v 0.0673527 -0.112064 0.221713
v 0.0374123 -0.112064 0.217673
v 0.0075427 -0.112064 0.213553
v 0.000747726 -0.169687 0.226116
v 0.0224775 -0.171819 0.2306
v -0.017443 -0.186745 0.221753
v -0.0155319 -0.201724 0.222157
v -0.0417917 -0.218622 0.211533
v -0.0282725 -0.384349 0.19489
v 0.378011 -0.112064 0.0656654
v 0.359041 -0.112064 0.0903066
v 0.342691 -0.112064 0.11111
v 0.361802 -0.161665 0.107394
v 0.332215 -0.112064 0.122906
v 0.319899 -0.112064 0.133328
v 0.294206 -0.112064 0.153364
v 0.274458 -0.112064 0.168593
v 0.252799 -0.112064 0.181115
v 0.223779 -0.112064 0.19384
v 0.201907 -0.112064 0.202969
v 0.186831 -0.112064 0.209109
v 0.171825 -0.112064 0.213068
v 0.141885 -0.171819 0.232862
v -0.152493 -0.384349 0.115554
v -0.126304 -0.384349 0.138862
v -0.13954 -0.216676 0.154576
v -0.135081 -0.201724 0.158938
v -0.140107 -0.171819 0.155182
v -0.142301 -0.112064 0.134741
v 0.12695 -0.112064 0.219249
v 0.15682 -0.112064 0.215169
v 0.141885 -0.112064 0.217229
v -0.0156735 -0.112064 0.207049
v -0.0223269 -0.171819 0.219935
v -0.0509932 -0.201724 0.208625
v -0.067202 -0.201724 0.202121
v -0.0784562 -0.216676 0.196304
v -0.0521965 -0.384349 0.184791
v -0.113068 -0.384349 0.149405
v -0.104999 -0.220487 0.17954
v -0.135081 -0.186745 0.158938
v -0.101318 -0.201724 0.18261
v -0.105424 -0.167768 0.179782
v -0.0984873 -0.112064 0.168633
v -0.045897 -0.112064 0.194648
v -0.0420748 -0.169714 0.211977
v -0.067202 -0.171819 0.202
v -0.0609733 -0.186745 0.204625
v -0.0826323 -0.201724 0.194365
v -0.0668481 -0.384349 0.177884
v -0.0879409 -0.384349 0.165886
v -0.0916923 -0.186745 0.18871
v -0.0800134 -0.167102 0.195052
v -0.0820661 -0.112064 0.179096
f 1 2 3
f 1 3 4
f 1 4 5
f 1 5 10
f 1 10 16
f 1 16 6
f 1 6 7
f 1 7 8
f 1 8 2
f 2 8 9
f 2 9 21
f 2 21 36
f 2 36 59
f 2 59 58
f 2 58 97
f 2 97 96
f 2 96 95
f 2 95 94
f 2 94 129
f 2 129 163
f 2 163 162
f 2 162 161
f 2 161 198
f 2 198 231
f 2 231 246
f 2 246 256
f 2 256 247
f 2 247 235
f 2 235 205
f 2 205 204
f 2 204 203
f 2 203 202
f 2 202 232
f 2 232 234
f 2 234 233
f 2 233 224
f 2 224 223
f 2 223 222
f 2 222 221
f 2 221 220
f 2 220 219
f 2 219 218
f 2 218 217
f 2 217 216
f 2 216 214
f 2 214 213
f 2 213 212
f 2 212 199
f 2 199 167
f 2 167 166
f 2 166 132
f 2 132 102
f 2 102 101
f 2 101 98
f 2 98 60
f 2 60 38
f 2 38 24
f 2 24 11
f 2 11 5
f 2 5 4
f 2 4 3
f 5 11 12
f 5 12 13
f 5 13 10
f 6 14 15
f 6 15 7
f 6 16 14
f 7 15 17
f 7 17 18
f 7 18 19
f 7 19 8
f 8 19 20
f 8 20 9
f 9 20 21
f 10 13 22
f 10 22 23
f 10 23 16
f 11 24 25
f 11 25 12
f 12 25 13
f 13 25 26
f 13 26 27
f 13 27 28
f 13 28 22
f 14 29 15
f 14 16 32
f 14 32 49
f 14 49 68
f 14 68 111
f 14 111 140
f 14 140 177
f 14 177 211
f 14 211 240
f 14 240 252
f 14 252 253
f 14 253 241
f 14 241 227
f 14 227 226
f 14 226 194
f 14 194 156
f 14 156 155
f 14 155 154
f 14 154 125
f 14 125 124
f 14 124 88
f 14 88 52
f 14 52 51
f 14 51 50
f 14 50 45
f 14 45 31
f 14 31 29
f 15 30 17
f 15 29 31
f 15 31 30
f 16 23 32
f 17 30 33
f 17 33 34
f 17 34 18
f 18 20 19
f 18 34 35
f 18 35 20
f 20 35 21
f 21 35 36
f 22 28 23
f 23 28 37
f 23 37 32
f 24 38 25
f 25 39 26
f 25 38 39
f 26 40 41
f 26 41 28
f 26 28 27
f 26 39 40
f 28 41 42
f 28 42 43
f 28 43 44
f 28 44 37
f 30 31 33
f 31 45 33
f 32 37 44
f 32 44 43
f 32 43 46
f 32 46 47
f 32 47 48
f 32 48 49
f 33 45 50
f 33 50 51
f 33 51 52
f 33 52 53
f 33 53 34
f 34 53 54
f 34 54 55
f 34 55 35
f 35 55 56
f 35 56 57
f 35 57 58
f 35 58 59
f 35 59 36
f 38 60 39
f 39 41 40
f 39 60 61
f 39 61 41
f 41 61 62
f 41 62 42
f 42 62 63
f 42 63 48
f 42 48 47
f 42 47 46
f 42 46 43
f 48 63 64
f 48 64 49
f 49 65 66
f 49 66 67
f 49 67 68
f 49 64 69
f 49 69 70
f 49 70 71
f 49 71 72
f 49 72 73
f 49 73 74
f 49 74 75
f 49 75 76
f 49 76 77
f 49 77 78
f 49 78 79
f 49 79 80
f 49 80 81
f 49 81 82
f 49 82 83
f 49 83 84
f 49 84 85
f 49 85 86
f 49 86 87
f 49 87 65
f 52 88 89
f 52 89 53
f 53 89 54
f 54 89 90
f 54 90 91
f 54 91 92
f 54 92 55
f 55 92 56
f 56 92 93
f 56 93 94
f 56 94 95
f 56 95 96
f 56 96 97
f 56 97 57
f 57 97 58
f 60 98 61
f 61 99 100
f 61 100 62
f 61 98 101
f 61 101 102
f 61 102 103
f 61 103 99
f 62 100 104
f 62 104 63
f 63 104 64
f 64 104 69
f 65 105 66
f 65 87 106
f 65 106 107
f 65 107 105
f 66 105 108
f 66 108 109
f 66 109 67
f 67 109 110
f 67 110 68
f 68 110 111
f 69 104 112
f 69 112 70
f 70 112 71
f 71 112 72
f 72 112 113
f 72 113 73
f 73 113 114
f 73 114 74
f 74 114 75
f 75 114 115
f 75 115 76
f 76 115 116
f 76 116 77
f 77 116 78
f 78 116 117
f 78 117 79
f 79 117 80
f 80 117 118
f 80 118 81
f 81 118 82
f 82 118 119
f 82 119 83
f 83 119 120
f 83 120 84
f 84 120 121
f 84 121 85
f 85 121 86
f 86 121 122
f 86 122 87
f 87 122 123
f 87 123 106
f 88 124 89
f 89 124 90
f 90 124 125
f 90 125 126
f 90 126 91
f 91 126 127
f 91 127 92
f 92 127 128
f 92 128 93
f 93 128 129
f 93 129 94
f 99 103 100
f 100 103 130
f 100 130 131
f 100 131 104
f 102 132 103
f 103 132 133
f 103 133 130
f 104 131 112
f 105 107 134
f 105 134 135
f 105 135 108
f 106 123 107
f 107 123 134
f 108 136 137
f 108 137 109
f 108 135 169
f 108 169 136
f 109 137 174
f 109 174 138
f 109 138 110
f 110 138 139
f 110 139 111
f 111 139 140
f 112 131 113
f 113 131 141
f 113 141 142
f 113 142 114
f 114 142 143
f 114 143 115
f 115 143 144
f 115 144 116
f 116 144 117
f 117 144 145
f 117 145 118
f 118 146 147
f 118 147 119
f 118 145 146
f 119 147 148
f 119 148 120
f 120 148 149
f 120 149 121
f 121 149 150
f 121 150 151
f 121 151 152
f 121 152 122
f 122 152 153
f 122 153 123
f 123 153 134
f 125 154 126
f 126 154 155
f 126 155 156
f 126 156 157
f 126 157 158
f 126 158 127
f 127 158 159
f 127 159 160
f 127 160 128
f 128 160 161
f 128 161 162
f 128 162 163
f 128 163 129
f 130 133 164
f 130 164 165
f 130 165 131
f 131 165 141
f 132 166 133
f 133 166 167
f 133 167 164
f 134 168 169
f 134 169 135
f 134 153 193
f 134 193 168
f 136 169 170
f 136 170 171
f 136 171 137
f 137 171 172
f 137 172 173
f 137 173 174
f 138 174 175
f 138 175 176
f 138 176 139
f 139 176 140
f 140 176 177
f 141 165 142
f 142 178 179
f 142 179 180
f 142 180 143
f 142 165 178
f 143 180 181
f 143 181 144
f 144 181 145
f 145 182 183
f 145 183 146
f 145 181 184
f 145 184 182
f 146 183 147
f 147 185 186
f 147 186 148
f 147 183 185
f 148 186 187
f 148 187 149
f 149 188 189
f 149 189 150
f 149 187 188
f 150 190 151
f 150 189 190
f 151 191 192
f 151 192 152
f 151 190 191
f 152 192 193
f 152 193 153
f 156 194 157
f 157 194 195
f 157 195 196
f 157 196 158
f 158 196 159
f 159 196 197
f 159 197 160
f 160 197 161
f 161 197 198
f 164 167 199
f 164 199 178
f 164 178 165
f 168 193 200
f 168 200 201
f 168 201 170
f 168 170 169
f 170 202 171
f 170 201 202
f 171 202 172
f 172 202 203
f 172 203 173
f 173 204 205
f 173 205 206
f 173 206 207
f 173 207 174
f 173 203 204
f 174 207 175
f 175 206 208
f 175 208 209
f 175 209 176
f 175 207 206
f 176 209 210
f 176 210 211
f 176 211 177
f 178 199 212
f 178 212 213
f 178 213 214
f 178 214 215
f 178 215 179
f 179 215 184
f 179 184 181
f 179 181 180
f 182 184 216
f 182 216 217
f 182 217 218
f 182 218 219
f 182 219 183
f 183 219 185
f 184 215 214
f 184 214 216
f 185 219 220
f 185 220 221
f 185 221 187
f 185 187 186
f 187 221 222
f 187 222 223
f 187 223 188
f 188 223 190
f 188 190 189
f 190 223 224
f 190 224 191
f 191 224 225
f 191 225 193
f 191 193 192
f 193 225 200
f 194 226 195
f 195 226 227
f 195 227 228
f 195 228 196
f 196 228 229
f 196 229 230
f 196 230 197
f 197 230 198
f 198 230 231
f 200 232 202
f 200 202 201
f 200 225 224
f 200 224 233
f 200 233 234
f 200 234 232
f 205 235 206
f 206 235 236
f 206 236 208
f 208 236 237
f 208 237 209
f 209 237 210
f 210 237 238
f 210 238 239
f 210 239 240
f 210 240 211
f 227 241 228
f 228 241 242
f 228 242 229
f 229 243 230
f 229 242 244
f 229 244 245
f 229 245 243
f 230 243 245
f 230 245 246
f 230 246 231
f 235 247 248
f 235 248 236
f 236 248 249
f 236 249 250
f 236 250 237
f 237 250 238
f 238 250 249
f 238 249 251
f 238 251 239
f 239 252 240
f 239 251 242
f 239 242 253
f 239 253 252
f 241 253 242
f 242 251 244
f 244 251 254
f 244 254 245
f 245 254 255
f 245 255 256
f 245 256 246
f 247 249 248
f 247 256 249
f 249 256 255
f 249 255 251
f 251 255 254
