v 0.337151 0.381188 0.261976
v 0.337151 0.127009 0.261976
v 0.337151 0.396032 0.26189
v 0.241465 0.321167 0.376419
v 0.232181 0.28509 0.387683
v 0.337151 0.112058 0.26189
v 0.232181 0.0653473 0.387683
v 0.337151 0.409878 0.259999
v 0.328987 0.41862 0.269285
v 0.268431 0.410805 0.343144
v 0.268711 0.395889 0.343402
v 0.262413 0.380938 0.351054
v 0.255088 0.365986 0.35991
v 0.231061 0.395889 0.387683
v 0.255088 0.380938 0.359738
v 0.323295 0.0653473 0.277367
v 0.329454 0.0653473 0.269887
v 0.334212 0.0653473 0.262492
v 0.334912 0.0653473 0.261374
v 0.337151 0.0973917 0.260515
v 0.235307 0.0653473 0.3839
v 0.309673 0.0653473 0.293876
v -0.0543646 0.0653473 0.387683
v 0.337151 0.42094 0.245726
v 0.331133 0.419976 0.261374
v 0.320403 0.420262 0.275132
v 0.314898 0.419334 0.285278
v 0.300762 0.419833 0.301184
v 0.286579 0.420119 0.317091
v 0.272303 0.420155 0.333084
v 0.227562 0.408343 0.387683
v 0.337151 0.0653473 0.256817
v -0.0543646 0.276348 0.387683
v -0.139461 0.12601 0.297659
v -0.139461 0.111487 0.297573
v -0.139461 0.0971776 0.296197
v -0.139461 0.0748393 0.288115
v -0.139461 0.0653473 0.284676
v 0.337151 0.421047 0.245296
v 0.321149 0.422795 0.261374
v 0.30594 0.420975 0.290609
v 0.291431 0.421475 0.306171
v 0.262599 0.421689 0.337297
v 0.258447 0.420155 0.347271
v 0.276922 0.421653 0.321734
v 0.223877 0.410877 0.387683
v 0.337151 0.0653473 -0.423219
v -0.0542713 0.291299 0.387683
v -0.139461 0.365986 0.297659
v -0.139461 0.0653473 -0.456064
v 0.337151 0.422902 0.231539
v 0.337151 0.423009 0.230507
v 0.321149 0.423937 0.246413
v 0.229522 0.429896 0.304366
v 0.30622 0.42333 0.276335
v 0.291291 0.423687 0.291296
v 0.276362 0.423937 0.306171
v 0.261433 0.423937 0.321132
v 0.246457 0.423937 0.336093
v 0.246597 0.421011 0.351742
v 0.241698 0.419084 0.361716
v 0.234654 0.416443 0.371604
v 0.216832 0.413946 0.387683
v 0.33118 0.0653473 -0.435256
v 0.337151 0.088542 -0.480569
v -0.0539447 0.321167 0.387683
v -0.139461 0.380938 0.297487
v -0.139461 0.0882209 -0.480741
v -0.134049 0.0653473 -0.462685
v 0.337151 0.426292 0.126898
v 0.229755 0.429896 0.30342
v 0.216599 0.429896 0.31219
v 0.231528 0.422296 0.351054
v 0.22467 0.418335 0.37384
v 0.210207 0.416015 0.387683
v 0.33048 0.0653473 -0.436632
v 0.313591 0.0653473 -0.462943
v 0.306127 0.0653473 -0.468532
v 0.295117 0.0653473 -0.475066
v 0.29353 0.0653473 -0.475926
v 0.286999 0.0653473 -0.478506
v 0.286066 0.0653473 -0.478849
v 0.337151 0.0971062 -0.486932
v 0.326374 0.0653473 -0.444112
v 0.31891 0.0653473 -0.455462
v -0.0521719 0.395889 0.387683
v -0.139461 0.4001 0.292844
v -0.0898213 0.418477 0.343832
v -0.139461 0.0954647 -0.485986
v -0.113241 0.0653473 -0.475496
v -0.124905 0.0653473 -0.468961
v -0.126584 0.0653473 -0.468016
v -0.133116 0.0653473 -0.463373
v 0.232321 0.429896 0.276335
v 0.232088 0.429896 0.289835
v 0.232041 0.429896 0.291296
v 0.337151 0.426292 -0.410751
v 0.20167 0.429896 0.315715
v 0.20167 0.416336 0.387683
v 0.276362 0.0653473 -0.480483
v 0.261433 0.0653473 -0.481171
v 0.291291 0.0971062 -0.488995
v 0.337151 0.112058 -0.490715
v -0.0509123 0.401991 0.387683
v -0.139461 0.416586 0.28373
v -0.0483463 0.408415 0.387683
v -0.055391 0.41655 0.37169
v -0.0821234 0.419869 0.346497
v -0.0927604 0.419869 0.336093
v -0.121919 0.420048 0.3017
v -0.136055 0.419619 0.285794
v -0.10573 0.0653473 -0.478506
v -0.139461 0.0971062 -0.487018
v 0.232321 0.429896 0.231539
v 0.337151 0.422688 -0.455634
v -0.139461 0.426292 -0.410751
v 0.187207 0.429896 0.137388
v 0.202136 0.429896 0.137474
v 0.216739 0.429896 0.139279
v 0.229149 0.429896 0.14332
v 0.229522 0.429896 0.143836
v 0.231621 0.429896 0.15682
v 0.231855 0.429896 0.171781
v 0.195791 0.429896 0.315801
v 0.195278 0.416408 0.387683
v 0.0821901 0.0653473 -0.481515
v 0.261433 0.0971062 -0.489339
v 0.276362 0.0971062 -0.489253
v 0.337151 0.395889 -0.490715
v -0.139461 0.112058 -0.490715
v -0.139461 0.420297 0.279259
v -0.0375693 0.413981 0.387683
v -0.0454071 0.418335 0.37384
v -0.0624357 0.419084 0.361716
v -0.0673343 0.421011 0.351742
v -0.0821234 0.422688 0.336093
v -0.112402 0.421618 0.306515
v -0.126911 0.421296 0.290952
v -0.0970992 0.0653473 -0.480139
v -0.139461 0.109596 -0.490199
v -0.112028 0.0971062 -0.488823
v -0.0821234 0.0653473 -0.481429
v -0.0951864 0.0653473 -0.480311
v 0.337151 0.421332 -0.470509
v -0.139461 0.422474 -0.458042
v -0.139461 0.422688 -0.455634
v -0.139461 0.426292 0.126898
v -0.0545979 0.429896 0.231539
v -0.054178 0.429896 0.158367
v -0.0541313 0.429896 0.15682
v -0.0514721 0.429896 0.14375
v -0.0512388 0.429896 0.142719
v -0.0373361 0.429896 0.138247
v -0.022407 0.429896 0.137388
v -0.022407 0.429896 0.315801
v -0.0074312 0.416408 0.387683
v -0.0671943 0.0653473 -0.481515
v -0.0821234 0.0971062 -0.489339
v 0.337151 0.409806 -0.48719
v -0.139461 0.395889 -0.490715
v -0.0970992 0.0971062 -0.489253
v -0.139461 0.421082 0.275562
v -0.022407 0.416336 0.387683
v -0.0373361 0.416729 0.381492
v -0.0522652 0.422296 0.351054
v -0.0373361 0.429896 0.314254
v -0.0408351 0.429896 0.313394
v -0.0671943 0.423937 0.336093
v -0.0512855 0.429896 0.305827
v -0.112028 0.423866 0.291296
v -0.126957 0.423545 0.276335
v 0.337151 0.41937 -0.480569
v -0.139461 0.421011 -0.472229
v -0.139461 0.421332 -0.470509
v -0.139461 0.423937 0.246413
v -0.0542247 0.429896 0.292242
v -0.0544113 0.429896 0.291296
v -0.0545979 0.429896 0.277625
v -0.0278188 0.429896 0.315543
v -0.139461 0.410805 -0.486932
v 0.337151 0.410805 -0.486932
v -0.139461 0.423259 0.261374
v 0.337151 0.418799 -0.480999
v -0.139461 0.41937 -0.480569
f 1 2 6
f 1 6 20
f 1 20 32
f 1 32 47
f 1 47 65
f 1 65 83
f 1 83 103
f 1 103 129
f 1 129 159
f 1 159 181
f 1 181 183
f 1 183 172
f 1 172 144
f 1 144 115
f 1 115 97
f 1 97 70
f 1 70 52
f 1 52 51
f 1 51 39
f 1 39 24
f 1 24 8
f 1 8 3
f 1 3 4
f 1 4 5
f 1 5 7
f 1 7 2
f 2 7 6
f 3 8 9
f 3 9 10
f 3 10 11
f 3 11 12
f 3 12 13
f 3 13 4
f 4 14 5
f 4 13 15
f 4 15 14
f 5 14 31
f 5 31 46
f 5 46 63
f 5 63 75
f 5 75 99
f 5 99 125
f 5 125 156
f 5 156 163
f 5 163 132
f 5 132 106
f 5 106 104
f 5 104 86
f 5 86 66
f 5 66 48
f 5 48 33
f 5 33 23
f 5 23 7
f 6 16 17
f 6 17 18
f 6 18 19
f 6 19 20
f 6 7 21
f 6 21 22
f 6 22 16
f 7 23 38
f 7 38 50
f 7 50 69
f 7 69 93
f 7 93 92
f 7 92 91
f 7 91 90
f 7 90 112
f 7 112 139
f 7 139 143
f 7 143 142
f 7 142 157
f 7 157 126
f 7 126 101
f 7 101 100
f 7 100 82
f 7 82 81
f 7 81 80
f 7 80 79
f 7 79 78
f 7 78 77
f 7 77 85
f 7 85 84
f 7 84 76
f 7 76 64
f 7 64 47
f 7 47 32
f 7 32 19
f 7 19 18
f 7 18 17
f 7 17 16
f 7 16 22
f 7 22 21
f 8 24 9
f 9 24 25
f 9 25 26
f 9 26 27
f 9 27 10
f 10 28 29
f 10 29 30
f 10 30 31
f 10 31 14
f 10 14 11
f 10 27 28
f 11 14 15
f 11 15 12
f 12 15 13
f 19 32 20
f 23 33 49
f 23 49 34
f 23 34 35
f 23 35 36
f 23 36 37
f 23 37 38
f 24 39 25
f 25 39 40
f 25 40 26
f 26 40 41
f 26 41 28
f 26 28 27
f 28 41 42
f 28 42 29
f 29 42 30
f 30 43 44
f 30 44 31
f 30 42 45
f 30 45 43
f 31 44 46
f 33 48 49
f 34 49 67
f 34 67 87
f 34 87 105
f 34 105 131
f 34 131 162
f 34 162 182
f 34 182 175
f 34 175 147
f 34 147 116
f 34 116 146
f 34 146 145
f 34 145 174
f 34 174 173
f 34 173 184
f 34 184 180
f 34 180 160
f 34 160 130
f 34 130 140
f 34 140 113
f 34 113 89
f 34 89 68
f 34 68 50
f 34 50 38
f 34 38 37
f 34 37 36
f 34 36 35
f 39 51 40
f 40 51 52
f 40 52 53
f 40 53 54
f 40 54 55
f 40 55 42
f 40 42 41
f 42 55 56
f 42 56 45
f 43 45 57
f 43 57 58
f 43 58 59
f 43 59 60
f 43 60 44
f 44 60 61
f 44 61 62
f 44 62 46
f 45 56 57
f 46 62 63
f 47 64 65
f 48 66 49
f 49 66 67
f 50 68 69
f 52 70 53
f 53 70 54
f 54 71 96
f 54 96 95
f 54 95 94
f 54 94 114
f 54 114 123
f 54 123 122
f 54 122 121
f 54 121 120
f 54 120 119
f 54 119 118
f 54 118 117
f 54 117 154
f 54 154 153
f 54 153 152
f 54 152 151
f 54 151 150
f 54 150 149
f 54 149 148
f 54 148 178
f 54 178 177
f 54 177 176
f 54 176 169
f 54 169 167
f 54 167 166
f 54 166 179
f 54 179 155
f 54 155 124
f 54 124 98
f 54 98 72
f 54 72 59
f 54 59 58
f 54 58 57
f 54 57 56
f 54 56 55
f 54 70 71
f 59 72 73
f 59 73 60
f 60 73 74
f 60 74 61
f 61 74 75
f 61 75 62
f 62 75 63
f 64 76 65
f 65 77 78
f 65 78 79
f 65 79 80
f 65 80 81
f 65 81 82
f 65 82 83
f 65 76 84
f 65 84 85
f 65 85 77
f 66 86 67
f 67 86 88
f 67 88 87
f 68 89 90
f 68 90 91
f 68 91 92
f 68 92 93
f 68 93 69
f 70 94 95
f 70 95 96
f 70 96 71
f 70 97 114
f 70 114 94
f 72 98 73
f 73 98 74
f 74 98 99
f 74 99 75
f 82 100 83
f 83 100 101
f 83 101 102
f 83 102 103
f 86 104 88
f 87 88 105
f 88 104 106
f 88 106 107
f 88 107 108
f 88 108 109
f 88 109 110
f 88 110 111
f 88 111 105
f 89 112 90
f 89 113 112
f 97 115 146
f 97 146 116
f 97 116 154
f 97 154 117
f 97 117 118
f 97 118 119
f 97 119 120
f 97 120 121
f 97 121 122
f 97 122 123
f 97 123 114
f 98 124 125
f 98 125 99
f 101 126 127
f 101 127 128
f 101 128 102
f 102 128 103
f 103 128 127
f 103 127 158
f 103 158 130
f 103 130 160
f 103 160 129
f 105 111 131
f 106 132 107
f 107 133 134
f 107 134 108
f 107 132 133
f 108 134 135
f 108 135 136
f 108 136 109
f 109 136 137
f 109 137 110
f 110 137 138
f 110 138 131
f 110 131 111
f 112 113 139
f 113 140 141
f 113 141 142
f 113 142 143
f 113 143 139
f 115 144 145
f 115 145 146
f 116 147 178
f 116 178 148
f 116 148 149
f 116 149 150
f 116 150 151
f 116 151 152
f 116 152 153
f 116 153 154
f 124 155 156
f 124 156 125
f 126 157 158
f 126 158 127
f 129 160 159
f 130 158 161
f 130 161 141
f 130 141 140
f 131 138 162
f 132 163 164
f 132 164 133
f 133 165 135
f 133 135 134
f 133 164 163
f 133 163 166
f 133 166 167
f 133 167 165
f 135 165 168
f 135 168 136
f 136 168 167
f 136 167 169
f 136 169 170
f 136 170 171
f 136 171 137
f 137 171 138
f 138 171 162
f 141 161 142
f 142 161 157
f 144 172 173
f 144 173 174
f 144 174 145
f 147 175 169
f 147 169 176
f 147 176 177
f 147 177 178
f 155 179 163
f 155 163 156
f 157 161 158
f 159 180 181
f 159 160 180
f 162 171 182
f 163 179 166
f 165 167 168
f 169 175 182
f 169 182 171
f 169 171 170
f 172 183 184
f 172 184 173
f 180 184 183
f 180 183 181
