v 0.558546 -0.00175012 0.259696
v 0.511651 0.00200852 0.259696
v 0.557771 -0.024226 0.259696
v 0.538809 -0.0181704 0.169424
v 0.537923 -0.00203486 0.163365
v 0.525185 0.00200852 0.106839
v 0.332265 -0.191922 -0.276494
v 0.472087 -0.191922 0.259696
v 0.332265 0.00200852 -0.464556
v 0.556109 -0.0489229 0.259696
v 0.544812 -0.0474992 0.206008
v 0.537214 -0.0423928 0.169424
v 0.533957 -0.0201257 0.147718
v 0.529483 -0.0181704 0.12701
v 0.533913 -0.00404706 0.144957
v 0.540758 -0.0484483 0.187601
v 0.528907 -2.26633e-05 0.123022
v 0.520423 -0.00605926 0.0857469
v 0.508394 -0.00203486 0.0333627
v 0.504894 -0.00203486 0.0180999
v 0.493708 0.00200852 -0.0303727
v 0.332265 -0.181728 -0.477671
v 0.334569 -0.188771 -0.459417
v 0.338911 -0.191922 -0.44032
v 0.508018 -0.191922 0.196421
v 0.523413 -0.190669 0.259696
v 0.405255 0.00200852 -0.393458
v 0.349455 -2.26633e-05 -0.522386
v 0.332841 -0.00203486 -0.523613
v 0.332265 -0.0302816 -0.52369
v 0.553805 -0.0666341 0.259696
v 0.545277 -0.0631792 0.215902
v 0.542176 -0.0605595 0.199719
v 0.537657 -0.0545039 0.175483
v 0.531764 -0.0423928 0.144727
v 0.524676 -0.0302816 0.10891
v 0.520799 -0.024226 0.0901954
v 0.502103 -0.00605926 0.00598177
v 0.493641 -0.00605926 -0.0303727
v 0.49085 -0.00203486 -0.0424909
v 0.487948 -0.00203486 -0.0546091
v 0.418724 0.00200852 -0.340997
v 0.332265 -0.174306 -0.488639
v 0.338933 -0.169389 -0.478131
v 0.340196 -0.17759 -0.461641
v 0.350762 -0.180798 -0.422219
v 0.351714 -0.191504 -0.399824
v 0.483628 -0.191922 0.0945671
v 0.504673 -0.187689 0.175483
v 0.495768 -0.191922 0.144804
v 0.535286 -0.155702 0.259696
v 0.509945 -0.17907 0.18415
v 0.509502 -0.172047 0.171494
v 0.516169 -0.163466 0.187601
v 0.413274 -2.26633e-05 -0.362779
v 0.408113 -0.0121149 -0.381339
v 0.400249 -0.00203486 -0.411865
v 0.39398 -0.00404706 -0.434797
v 0.386404 -0.00404706 -0.461948
v 0.381553 -0.00203486 -0.478208
v 0.374974 -0.00203486 -0.497919
v 0.362613 -0.00404706 -0.516327
v 0.349101 -0.0363562 -0.522386
v 0.332664 -0.0480877 -0.523843
v 0.332376 -0.163808 -0.502598
v 0.332664 -0.0726707 -0.523766
v 0.550394 -0.090192 0.259696
v 0.537502 -0.0666341 0.181542
v 0.533714 -0.0609012 0.161447
v 0.526647 -0.0545039 0.12701
v 0.520799 -0.0431521 0.0964845
v 0.527777 -0.0423928 0.12701
v 0.517809 -0.0302816 0.0786141
v 0.513954 -0.024226 0.0604368
v 0.492534 -0.024226 -0.0303727
v 0.487128 -0.0181704 -0.0546091
v 0.473129 -0.0181704 -0.112746
v 0.448053 -0.0125704 -0.217974
v 0.509413 -0.025403 0.0412625
v 0.49867 -0.0181704 -0.0061364
v 0.438062 -0.00605926 -0.260234
v 0.424328 -0.00605926 -0.31676
v 0.411414 -0.0181704 -0.367917
v 0.434806 -0.00605926 -0.273656
v 0.338778 -0.159366 -0.492627
v 0.350075 -0.157487 -0.463406
v 0.349898 -0.171515 -0.441087
v 0.362237 -0.169693 -0.402891
v 0.361107 -0.18467 -0.380189
v 0.361838 -0.190973 -0.36554
v 0.460967 -0.191049 0.00207021
v 0.470936 -0.191504 0.0422596
v 0.47222 -0.1815 0.0302948
v 0.470758 -0.177609 0.0180999
v 0.477293 -0.175578 0.0422596
v 0.540116 -0.13858 0.259696
v 0.508483 -0.157126 0.145571
v 0.497163 -0.141788 0.0763899
v 0.521087 -0.122482 0.155541
v 0.532606 -0.132467 0.218663
v 0.496632 -0.157885 0.0960244
v 0.404702 -0.0181704 -0.393458
v 0.399673 -0.0188728 -0.411788
v 0.394733 -0.0181704 -0.429735
v 0.384233 -0.024226 -0.46609
v 0.380999 -0.0181704 -0.478208
v 0.374442 -0.0245297 -0.497536
v 0.362945 -0.024226 -0.515176
v 0.351825 -0.0583575 -0.520928
v 0.345512 -0.0604456 -0.522386
v 0.334325 -0.1199 -0.520928
v 0.33654 -0.142414 -0.511341
v 0.339154 -0.150539 -0.501754
v 0.337205 -0.0938747 -0.522386
v 0.547204 -0.108511 0.259696
v 0.53522 -0.0809663 0.182462
v 0.528131 -0.096874 0.163365
v 0.52359 -0.0908564 0.139128
v 0.522062 -0.066729 0.114508
v 0.508328 -0.0585663 0.0493924
v 0.501616 -0.0545039 0.0180999
v 0.508904 -0.0444239 0.0452508
v 0.50279 -0.0423928 0.0180999
v 0.498736 -0.0423928 0.000766358
v 0.489233 -0.0302816 -0.0424909
v 0.497008 -0.0322938 -0.00935769
v 0.423752 -0.0290857 -0.314383
v 0.418458 -0.0181704 -0.339003
v 0.411724 -0.0302436 -0.363162
v 0.403904 -0.0302816 -0.393458
v 0.35187 -0.143952 -0.476981
v 0.355968 -0.151355 -0.453972
v 0.362724 -0.158873 -0.419381
v 0.368173 -0.163466 -0.393458
v 0.371629 -0.171439 -0.367227
v 0.459549 -0.180134 -0.0221661
v 0.466106 -0.189796 0.019864
v 0.374952 -0.156879 -0.380649
v 0.463337 -0.179697 -0.00813053
v 0.471024 -0.16937 0.00674874
v 0.475942 -0.163466 0.0180999
v 0.532717 -0.120812 0.206008
v 0.496765 -0.134195 0.0651921
v 0.482277 -0.149191 0.0230853
v 0.482964 -0.138143 0.0118875
v 0.520135 -0.115819 0.14442
v 0.524676 -0.115003 0.163365
v 0.387268 -0.0357487 -0.452668
v 0.380312 -0.0302816 -0.478208
v 0.369369 -0.0484483 -0.502444
v 0.376237 -0.0483344 -0.48419
v 0.361749 -0.0484483 -0.513719
v 0.352999 -0.0766191 -0.516864
v 0.351183 -0.0908564 -0.51556
v 0.343319 -0.0787263 -0.522002
v 0.34693 -0.106745 -0.514869
v 0.342765 -0.127133 -0.512568
v 0.351338 -0.128177 -0.496002
v 0.532739 -0.108795 0.193737
v 0.528619 -0.108966 0.175483
v 0.524299 -0.102911 0.151246
v 0.505404 -0.0666341 0.0422596
v 0.49734 -0.056706 0.00107314
v 0.493663 -0.0484483 -0.0182546
v 0.488391 -0.0423928 -0.0424909
v 0.437508 -0.0442531 -0.252028
v 0.41704 -0.0484483 -0.332943
v 0.40798 -0.0484483 -0.369221
v 0.406407 -0.0363562 -0.381339
v 0.396062 -0.0423928 -0.417694
v 0.358294 -0.127133 -0.478208
v 0.357563 -0.139244 -0.46609
v 0.36361 -0.143458 -0.439859
v 0.380512 -0.151355 -0.369221
v 0.386892 -0.144426 -0.355876
v 0.376414 -0.144768 -0.393304
v 0.387556 -0.133302 -0.369451
v 0.477337 -0.151355 0.00598177
v 0.508704 -0.115667 0.0961778
v 0.516214 -0.115003 0.12701
v 0.483008 -0.122254 -0.00429566
v 0.460148 -0.133245 -0.0849045
v 0.473837 -0.130227 -0.0334406
v 0.478401 -0.127133 -0.0182546
v 0.520888 -0.10405 0.137441
v 0.38585 -0.0527575 -0.45029
v 0.381952 -0.0484483 -0.46609
v 0.363544 -0.0787263 -0.503135
v 0.364097 -0.0660266 -0.507353
v 0.369835 -0.0726707 -0.490326
v 0.357319 -0.102911 -0.502444
v 0.35836 -0.115003 -0.490326
v 0.508793 -0.0860157 0.0715579
v 0.509258 -0.0775113 0.0671095
v 0.491204 -0.0666341 -0.0182546
v 0.484537 -0.0616415 -0.049317
v 0.490739 -0.0484483 -0.0303727
v 0.423508 -0.0582436 -0.301267
v 0.419255 -0.0545039 -0.320825
v 0.404126 -0.0545039 -0.381339
v 0.401246 -0.0476321 -0.395759
v 0.394467 -0.0545039 -0.417694
v 0.391211 -0.0545039 -0.429735
v 0.363322 -0.114168 -0.477364
v 0.363832 -0.121932 -0.467164
v 0.363388 -0.13334 -0.454279
v 0.375373 -0.136131 -0.408797
v 0.381996 -0.139244 -0.381339
v 0.392939 -0.127133 -0.357103
v 0.375262 -0.120622 -0.429275
v 0.388996 -0.119008 -0.382413
v 0.496765 -0.110181 0.0410324
v 0.508616 -0.103157 0.0844431
v 0.484005 -0.10646 -0.0156469
v 0.478401 -0.115003 -0.0303727
v 0.478334 -0.102911 -0.0424909
v 0.393803 -0.115003 -0.369221
v 0.399319 -0.107599 -0.355876
v 0.397569 -0.102132 -0.368454
v 0.472287 -0.109175 -0.0608216
v 0.381021 -0.0726707 -0.453972
v 0.387911 -0.0624578 -0.437252
v 0.374376 -0.0774924 -0.472916
v 0.363964 -0.0914259 -0.494008
v 0.369613 -0.0908564 -0.478208
v 0.363765 -0.103936 -0.485034
v 0.503831 -0.0908564 0.0543777
v 0.488945 -0.0787263 -0.0182546
v 0.480882 -0.0908564 -0.0424909
v 0.486818 -0.0718544 -0.0324436
v 0.417306 -0.0666341 -0.320825
v 0.405388 -0.0666341 -0.369221
v 0.411547 -0.0615466 -0.347593
v 0.401157 -0.0682097 -0.385021
v 0.370433 -0.102911 -0.46609
v 0.370211 -0.115003 -0.453972
v 0.374841 -0.112972 -0.440243
v 0.388863 -0.104771 -0.39875
v 0.482809 -0.0978991 -0.0283019
v 0.495214 -0.0910652 0.0180999
v 0.472287 -0.0970259 -0.0729397
v 0.394091 -0.102911 -0.381339
v 0.398499 -0.084649 -0.381339
v 0.401711 -0.0843452 -0.368838
v 0.415135 -0.0908564 -0.308707
v 0.375262 -0.0905147 -0.459801
v 0.397236 -0.0777012 -0.392384
v 0.388309 -0.0786124 -0.423446
v 0.477935 -0.0908564 -0.0546091
v 0.413031 -0.0696714 -0.336011
v 0.423929 -0.0851615 -0.278795
v 0.374952 -0.104201 -0.449217
v 0.389882 -0.0918056 -0.406573
v 0.393759 -0.0908564 -0.393458
f 1 2 8
f 1 8 26
f 1 26 51
f 1 51 96
f 1 96 115
f 1 115 67
f 1 67 31
f 1 31 10
f 1 10 3
f 1 3 4
f 1 4 5
f 1 5 6
f 1 6 2
f 2 7 8
f 2 6 21
f 2 21 42
f 2 42 27
f 2 27 9
f 2 9 7
f 3 10 11
f 3 11 4
f 4 12 13
f 4 13 14
f 4 14 15
f 4 15 5
f 4 11 16
f 4 16 12
f 5 15 17
f 5 17 6
f 6 17 18
f 6 18 19
f 6 19 20
f 6 20 21
f 7 9 30
f 7 30 43
f 7 43 22
f 7 22 23
f 7 23 24
f 7 24 48
f 7 48 50
f 7 50 25
f 7 25 8
f 8 25 26
f 9 27 28
f 9 28 29
f 9 29 30
f 10 31 32
f 10 32 33
f 10 33 34
f 10 34 11
f 11 34 16
f 12 16 34
f 12 34 35
f 12 35 13
f 13 35 36
f 13 36 14
f 14 36 37
f 14 37 38
f 14 38 18
f 14 18 15
f 15 18 17
f 18 38 20
f 18 20 19
f 20 38 21
f 21 38 39
f 21 39 40
f 21 40 41
f 21 41 42
f 22 43 44
f 22 44 45
f 22 45 23
f 23 45 24
f 24 45 46
f 24 46 47
f 24 47 48
f 25 49 26
f 25 50 49
f 26 49 52
f 26 52 53
f 26 53 54
f 26 54 51
f 27 42 55
f 27 55 56
f 27 56 57
f 27 57 58
f 27 58 59
f 27 59 60
f 27 60 61
f 27 61 28
f 28 61 62
f 28 62 63
f 28 63 64
f 28 64 29
f 29 64 30
f 30 65 43
f 30 64 66
f 30 66 65
f 31 67 32
f 32 67 68
f 32 68 33
f 33 68 34
f 34 68 69
f 34 69 70
f 34 70 71
f 34 71 72
f 34 72 35
f 35 72 36
f 36 71 73
f 36 73 37
f 36 72 71
f 37 73 74
f 37 74 38
f 38 74 39
f 39 75 76
f 39 76 77
f 39 77 78
f 39 78 41
f 39 41 40
f 39 74 79
f 39 79 80
f 39 80 75
f 41 78 81
f 41 81 42
f 42 82 83
f 42 83 55
f 42 81 84
f 42 84 82
f 43 65 85
f 43 85 44
f 44 86 45
f 44 85 86
f 45 86 87
f 45 87 46
f 46 88 89
f 46 89 47
f 46 87 88
f 47 89 90
f 47 90 91
f 47 91 92
f 47 92 48
f 48 92 93
f 48 93 50
f 49 50 52
f 50 93 94
f 50 94 95
f 50 95 52
f 51 54 97
f 51 97 98
f 51 98 99
f 51 99 100
f 51 100 96
f 52 95 53
f 53 95 101
f 53 101 97
f 53 97 54
f 55 83 56
f 56 83 102
f 56 102 57
f 57 102 58
f 58 102 103
f 58 103 104
f 58 104 59
f 59 105 106
f 59 106 60
f 59 104 105
f 60 106 107
f 60 107 61
f 61 107 108
f 61 108 62
f 62 108 109
f 62 109 63
f 63 109 110
f 63 110 66
f 63 66 64
f 65 66 111
f 65 111 112
f 65 112 113
f 65 113 85
f 66 110 114
f 66 114 111
f 67 115 116
f 67 116 68
f 68 116 117
f 68 117 118
f 68 118 119
f 68 119 120
f 68 120 69
f 69 120 70
f 70 120 121
f 70 121 122
f 70 122 71
f 71 122 73
f 73 122 123
f 73 123 124
f 73 124 79
f 73 79 74
f 75 125 76
f 75 80 126
f 75 126 125
f 76 125 77
f 77 125 127
f 77 127 78
f 78 84 81
f 78 127 128
f 78 128 84
f 79 124 126
f 79 126 80
f 82 128 83
f 82 84 128
f 83 128 127
f 83 127 129
f 83 129 130
f 83 130 102
f 85 113 131
f 85 131 86
f 86 132 87
f 86 131 132
f 87 132 133
f 87 133 88
f 88 133 134
f 88 134 89
f 89 135 90
f 89 134 135
f 90 135 91
f 91 136 137
f 91 137 92
f 91 135 138
f 91 138 136
f 92 137 93
f 93 137 139
f 93 139 94
f 94 139 140
f 94 140 141
f 94 141 95
f 95 141 101
f 96 100 142
f 96 142 115
f 97 101 98
f 98 143 99
f 98 101 144
f 98 144 145
f 98 145 143
f 99 143 146
f 99 146 147
f 99 147 142
f 99 142 100
f 101 141 144
f 102 130 103
f 103 130 148
f 103 148 104
f 104 148 105
f 105 148 149
f 105 149 106
f 106 149 107
f 107 150 108
f 107 149 151
f 107 151 150
f 108 150 152
f 108 152 109
f 109 153 154
f 109 154 111
f 109 111 155
f 109 155 110
f 109 152 153
f 110 155 114
f 111 114 155
f 111 154 156
f 111 156 157
f 111 157 112
f 112 157 113
f 113 158 131
f 113 157 158
f 115 142 159
f 115 159 116
f 116 159 117
f 117 159 160
f 117 160 161
f 117 161 118
f 118 161 162
f 118 162 119
f 119 162 120
f 120 162 163
f 120 163 121
f 121 123 122
f 121 163 164
f 121 164 124
f 121 124 123
f 124 164 165
f 124 165 125
f 124 125 126
f 125 165 127
f 127 165 166
f 127 166 129
f 129 166 167
f 129 167 168
f 129 168 169
f 129 169 130
f 130 169 170
f 130 170 148
f 131 171 172
f 131 172 132
f 131 158 171
f 132 172 173
f 132 173 138
f 132 138 133
f 133 138 134
f 134 138 135
f 136 139 137
f 136 138 174
f 136 174 175
f 136 175 139
f 138 173 176
f 138 176 174
f 139 175 177
f 139 177 140
f 140 178 141
f 140 177 178
f 141 178 144
f 142 147 159
f 143 179 180
f 143 180 146
f 143 145 181
f 143 181 179
f 144 178 145
f 145 178 182
f 145 182 183
f 145 183 184
f 145 184 181
f 146 180 185
f 146 185 147
f 147 160 159
f 147 185 161
f 147 161 160
f 148 186 187
f 148 187 149
f 148 170 186
f 149 187 151
f 150 188 189
f 150 189 152
f 150 151 190
f 150 190 188
f 151 187 190
f 152 189 153
f 153 189 154
f 154 189 191
f 154 191 157
f 154 157 156
f 157 191 158
f 158 191 192
f 158 192 171
f 161 185 193
f 161 193 194
f 161 194 162
f 162 195 163
f 162 194 193
f 162 193 195
f 163 195 196
f 163 196 197
f 163 197 164
f 164 197 165
f 165 197 166
f 166 197 196
f 166 196 198
f 166 198 199
f 166 199 167
f 167 199 168
f 168 200 169
f 168 199 200
f 169 200 201
f 169 201 170
f 170 201 202
f 170 202 203
f 170 203 186
f 171 204 205
f 171 205 172
f 171 192 204
f 172 205 206
f 172 206 173
f 173 207 176
f 173 206 207
f 174 176 208
f 174 208 175
f 175 208 177
f 176 207 208
f 177 209 178
f 177 208 207
f 177 207 210
f 177 210 211
f 177 211 209
f 178 209 182
f 179 181 212
f 179 212 180
f 180 212 213
f 180 213 185
f 181 214 212
f 181 184 215
f 181 215 216
f 181 216 214
f 182 209 217
f 182 217 218
f 182 218 183
f 183 218 184
f 184 218 219
f 184 219 220
f 184 220 215
f 185 213 193
f 186 221 187
f 186 203 222
f 186 222 221
f 187 221 223
f 187 223 190
f 188 190 224
f 188 224 191
f 188 191 189
f 190 223 225
f 190 225 224
f 191 224 226
f 191 226 192
f 192 226 204
f 193 213 227
f 193 227 228
f 193 228 195
f 195 228 229
f 195 229 230
f 195 230 196
f 196 230 231
f 196 231 198
f 198 231 232
f 198 232 233
f 198 233 199
f 199 233 200
f 200 233 232
f 200 232 234
f 200 234 202
f 200 202 201
f 202 234 203
f 203 234 222
f 204 235 236
f 204 236 205
f 204 226 235
f 205 236 206
f 206 236 210
f 206 210 207
f 209 211 217
f 210 237 211
f 210 236 237
f 211 237 238
f 211 238 217
f 212 214 239
f 212 239 213
f 213 239 229
f 213 229 240
f 213 240 227
f 214 216 239
f 215 220 241
f 215 241 216
f 216 241 239
f 217 238 242
f 217 242 218
f 218 242 219
f 219 243 244
f 219 244 245
f 219 245 241
f 219 241 220
f 219 242 243
f 221 246 223
f 221 222 247
f 221 247 248
f 221 248 246
f 222 234 247
f 223 246 235
f 223 235 225
f 224 225 226
f 225 235 226
f 227 240 228
f 228 240 229
f 229 239 241
f 229 241 249
f 229 249 230
f 230 249 231
f 231 250 232
f 231 249 250
f 232 250 234
f 234 250 251
f 234 251 244
f 234 244 247
f 235 246 252
f 235 252 236
f 236 252 237
f 237 252 238
f 238 253 254
f 238 254 242
f 238 252 253
f 241 245 251
f 241 251 250
f 241 250 249
f 242 254 247
f 242 247 243
f 243 247 244
f 244 251 245
f 246 248 253
f 246 253 252
f 247 254 253
f 247 253 248
