v 0.0181658 0.409562 -0.344865
v 0.0298905 0.409278 -0.344865
v 0.0302813 0.406207 -0.357223
v 0.0302813 0.40317 -0.369332
v 0.0181658 0.406391 -0.357223
v 0.00726874 0.408978 -0.346345
v 0.00726874 0.409345 -0.344865
v 0.0302813 0.409261 -0.344865
v 0.0423968 0.405606 -0.357223
v 0.0423968 0.402585 -0.369332
v 0.0302813 0.400616 -0.379206
v 0.0181658 0.40327 -0.369332
v 0.00726874 0.40579 -0.358443
v 0.00726874 0.363198 -0.344865
v 0.0423968 0.40866 -0.344865
v 0.0545123 0.404788 -0.357223
v 0.0423968 0.400316 -0.378017
v 0.0520065 0.399948 -0.376635
v 0.0302813 0.39898 -0.385255
v 0.0181658 0.399014 -0.385341
v 0.00726874 0.39883 -0.384639
v 0.00726874 0.331187 -0.455222
v 0.24213 0.23906 -0.455222
v 0.24213 0.280417 -0.344865
v 0.0545123 0.407843 -0.344865
v 0.0665819 0.406357 -0.344865
v 0.0666048 0.40327 -0.357223
v 0.0600758 0.399548 -0.37523
v 0.0554319 0.401284 -0.370456
v 0.0423968 0.39863 -0.384056
v 0.0545123 0.394875 -0.393551
v 0.0545123 0.391403 -0.40565
v 0.0423968 0.392455 -0.40565
v 0.0423968 0.395926 -0.393551
v 0.0302813 0.396644 -0.393551
v 0.0181658 0.396711 -0.393551
v 0.00726874 0.39636 -0.393551
v 0.00726874 0.378919 -0.455222
v 0.24213 0.30228 -0.455222
v 0.24213 0.337813 -0.344865
v 0.0787204 0.404405 -0.344865
v 0.0832493 0.399348 -0.362289
v 0.07518 0.399982 -0.364806
v 0.0666048 0.400683 -0.367323
v 0.064122 0.387999 -0.413514
v 0.0666048 0.375648 -0.455222
v 0.0666048 0.399064 -0.373372
v 0.0787204 0.394942 -0.381442
v 0.0666048 0.396794 -0.381442
v 0.0666048 0.393356 -0.393551
v 0.0675244 0.389467 -0.406698
v 0.0372701 0.387565 -0.424079
v 0.0545123 0.388566 -0.415448
v 0.0423968 0.378168 -0.455222
v 0.0302813 0.393172 -0.40565
v 0.0181658 0.382875 -0.441968
v 0.0181658 0.393273 -0.40565
v 0.00726874 0.382708 -0.441968
v 0.00726874 0.385962 -0.430495
v 0.00726874 0.392955 -0.40565
v 0.0181658 0.379053 -0.455222
v 0.24213 0.304033 -0.450761
v 0.237946 0.305518 -0.455222
v 0.24213 0.337179 -0.347069
v 0.237188 0.341284 -0.344865
v 0.09056 0.402252 -0.344865
v 0.0885829 0.400332 -0.354231
v 0.0918934 0.398797 -0.357849
v 0.0908359 0.39611 -0.369332
v 0.0790192 0.398279 -0.369041
v 0.0666048 0.382958 -0.429858
v 0.0551101 0.376967 -0.455222
v 0.0754099 0.375899 -0.449875
v 0.0754558 0.37423 -0.455222
v 0.0908359 0.392822 -0.381442
v 0.0870656 0.387949 -0.401178
v 0.0787204 0.391503 -0.393551
v 0.0721913 0.387414 -0.41144
v 0.0302813 0.379203 -0.454088
v 0.0302813 0.387715 -0.424587
v 0.0438222 0.378035 -0.455222
v 0.0302813 0.378869 -0.455222
v 0.236452 0.30662 -0.455222
v 0.239716 0.313112 -0.429858
v 0.24213 0.30939 -0.435378
v 0.24213 0.332005 -0.364234
v 0.232567 0.3408 -0.357223
v 0.226566 0.348694 -0.344865
v 0.0918014 0.402018 -0.344865
v 0.0918934 0.401667 -0.346215
v 0.0966522 0.399548 -0.350979
v 0.102928 0.39661 -0.357223
v 0.102928 0.393456 -0.369332
v 0.0787204 0.388633 -0.403619
v 0.0787204 0.386897 -0.409668
v 0.0791342 0.373629 -0.455222
v 0.100078 0.388282 -0.390289
v 0.0951349 0.387131 -0.398369
v 0.0908359 0.382307 -0.417749
v 0.22836 0.312511 -0.455222
v 0.227486 0.313145 -0.455222
v 0.229555 0.314497 -0.44698
v 0.241487 0.314397 -0.422361
v 0.24213 0.314063 -0.42194
v 0.24213 0.32835 -0.376332
v 0.24213 0.325329 -0.386281
v 0.21875 0.351682 -0.352923
v 0.220543 0.35275 -0.344994
v 0.220244 0.35295 -0.344865
v 0.102928 0.399648 -0.344865
v 0.111641 0.397679 -0.344865
v 0.114009 0.397128 -0.344865
v 0.115044 0.39374 -0.357223
v 0.115963 0.389935 -0.370272
v 0.103664 0.389701 -0.38222
v 0.0908359 0.37438 -0.444647
v 0.0908359 0.371259 -0.455222
v 0.103664 0.38633 -0.394016
v 0.110308 0.375748 -0.425105
v 0.105457 0.37458 -0.433174
v 0.104101 0.368455 -0.455222
v 0.102928 0.369056 -0.454088
v 0.221509 0.317334 -0.455222
v 0.221785 0.317551 -0.454088
v 0.24213 0.3163 -0.415026
v 0.224911 0.31917 -0.442551
v 0.223647 0.323894 -0.430495
v 0.24213 0.321307 -0.399179
v 0.219072 0.339799 -0.389911
v 0.217095 0.33853 -0.39798
v 0.216681 0.35043 -0.360993
v 0.212336 0.353985 -0.357061
v 0.211899 0.357673 -0.344994
v 0.197783 0.36515 -0.344865
v 0.127067 0.393456 -0.344994
v 0.139321 0.389401 -0.344865
v 0.124194 0.388516 -0.366869
v 0.120607 0.387348 -0.37495
v 0.10817 0.387281 -0.386767
v 0.102974 0.368705 -0.455222
v 0.115711 0.365618 -0.454725
v 0.115527 0.365518 -0.455222
v 0.211623 0.32371 -0.455222
v 0.215623 0.325512 -0.441968
v 0.217439 0.326614 -0.434935
v 0.219394 0.327882 -0.426877
v 0.211554 0.323994 -0.454466
v 0.207255 0.327749 -0.450664
v 0.206864 0.339615 -0.413536
v 0.206382 0.351432 -0.376365
v 0.199462 0.360678 -0.357568
v 0.195209 0.364016 -0.353755
v 0.203577 0.36208 -0.344994
v 0.187438 0.370324 -0.344865
v 0.12778 0.389868 -0.357763
v 0.135551 0.388282 -0.354079
v 0.163437 0.380689 -0.344865
v 0.150885 0.385445 -0.34493
v 0.143597 0.386914 -0.348937
v 0.132217 0.387147 -0.362149
v 0.139229 0.382741 -0.369332
v 0.138493 0.376399 -0.392449
v 0.138493 0.372811 -0.404959
v 0.133941 0.375615 -0.400486
v 0.139482 0.365301 -0.429955
v 0.130332 0.37448 -0.408556
v 0.13201 0.362881 -0.446753
v 0.126654 0.373128 -0.417327
v 0.123964 0.364166 -0.451106
v 0.126792 0.362063 -0.455222
v 0.116239 0.365301 -0.455222
v 0.201324 0.329685 -0.455222
v 0.198933 0.335393 -0.441395
v 0.196289 0.340466 -0.429858
v 0.183162 0.339899 -0.455222
v 0.19199 0.35023 -0.40565
v 0.199783 0.357006 -0.369332
v 0.19291 0.362814 -0.361835
v 0.182472 0.363698 -0.376851
v 0.188404 0.366319 -0.357568
v 0.178909 0.374246 -0.344994
v 0.173116 0.3767 -0.344865
v 0.151344 0.38199 -0.357223
v 0.139459 0.385929 -0.357763
v 0.163575 0.377384 -0.356855
v 0.172633 0.3769 -0.344865
v 0.170472 0.375782 -0.352567
v 0.145436 0.375398 -0.387675
v 0.143689 0.362714 -0.434049
v 0.135597 0.364049 -0.438673
v 0.139229 0.358308 -0.454088
v 0.139321 0.357924 -0.455222
v 0.18953 0.336678 -0.454088
v 0.176702 0.342886 -0.455222
v 0.180932 0.350831 -0.422783
v 0.183346 0.352032 -0.414713
v 0.187484 0.348761 -0.418354
v 0.17976 0.362497 -0.384931
v 0.175575 0.368805 -0.369332
v 0.174932 0.372677 -0.356855
v 0.159598 0.376282 -0.366383
v 0.152126 0.378068 -0.36998
v 0.16769 0.374613 -0.360658
v 0.146838 0.363882 -0.42598
v 0.151367 0.353451 -0.455222
v 0.140309 0.357573 -0.455222
v 0.175507 0.34342 -0.455222
v 0.175575 0.343738 -0.454088
v 0.174656 0.348027 -0.441168
v 0.167092 0.35018 -0.444679
v 0.151781 0.353584 -0.454218
v 0.156655 0.375081 -0.374463
v 0.161483 0.349345 -0.455222
v 0.164311 0.34816 -0.455222
v 0.163207 0.348945 -0.454218
f 1 2 3
f 1 3 4
f 1 4 5
f 1 5 6
f 1 6 7
f 1 7 14
f 1 14 24
f 1 24 40
f 1 40 65
f 1 65 88
f 1 88 109
f 1 109 134
f 1 134 154
f 1 154 182
f 1 182 186
f 1 186 157
f 1 157 136
f 1 136 112
f 1 112 111
f 1 111 110
f 1 110 89
f 1 89 66
f 1 66 41
f 1 41 26
f 1 26 25
f 1 25 15
f 1 15 8
f 1 8 2
f 2 8 3
f 3 8 15
f 3 15 9
f 3 9 10
f 3 10 4
f 4 11 12
f 4 12 5
f 4 10 11
f 5 12 6
f 6 13 21
f 6 21 37
f 6 37 60
f 6 60 59
f 6 59 58
f 6 58 38
f 6 38 22
f 6 22 14
f 6 14 7
f 6 12 13
f 9 15 25
f 9 25 16
f 9 16 10
f 10 17 11
f 10 16 18
f 10 18 17
f 11 19 20
f 11 20 12
f 11 17 19
f 12 20 21
f 12 21 13
f 14 22 23
f 14 23 24
f 16 25 26
f 16 26 27
f 16 27 28
f 16 28 29
f 16 29 18
f 17 18 30
f 17 30 19
f 18 29 28
f 18 28 31
f 18 31 32
f 18 32 33
f 18 33 34
f 18 34 30
f 19 30 35
f 19 35 36
f 19 36 20
f 20 36 37
f 20 37 21
f 22 38 61
f 22 61 82
f 22 82 54
f 22 54 81
f 22 81 72
f 22 72 46
f 22 46 74
f 22 74 96
f 22 96 117
f 22 117 140
f 22 140 121
f 22 121 142
f 22 142 171
f 22 171 170
f 22 170 192
f 22 192 206
f 22 206 205
f 22 205 213
f 22 213 214
f 22 214 207
f 22 207 194
f 22 194 175
f 22 175 172
f 22 172 143
f 22 143 123
f 22 123 101
f 22 101 100
f 22 100 83
f 22 83 63
f 22 63 39
f 22 39 23
f 23 39 62
f 23 62 85
f 23 85 104
f 23 104 125
f 23 125 128
f 23 128 106
f 23 106 105
f 23 105 86
f 23 86 64
f 23 64 40
f 23 40 24
f 26 41 42
f 26 42 27
f 27 42 43
f 27 43 44
f 27 44 28
f 28 45 46
f 28 46 32
f 28 32 31
f 28 44 47
f 28 47 48
f 28 48 49
f 28 49 50
f 28 50 51
f 28 51 45
f 30 34 52
f 30 52 35
f 32 46 53
f 32 53 54
f 32 54 33
f 33 54 52
f 33 52 34
f 35 55 56
f 35 56 57
f 35 57 36
f 35 52 55
f 36 57 58
f 36 58 59
f 36 59 60
f 36 60 37
f 38 58 57
f 38 57 56
f 38 56 61
f 39 63 62
f 40 64 65
f 41 66 42
f 42 66 67
f 42 67 68
f 42 68 69
f 42 69 70
f 42 70 43
f 43 70 44
f 44 70 47
f 45 71 46
f 45 51 71
f 46 72 53
f 46 71 73
f 46 73 74
f 47 70 48
f 48 70 75
f 48 75 76
f 48 76 77
f 48 77 50
f 48 50 49
f 50 77 78
f 50 78 51
f 51 78 71
f 52 54 79
f 52 79 80
f 52 80 55
f 53 81 54
f 53 72 81
f 54 82 79
f 55 80 56
f 56 80 61
f 61 80 79
f 61 79 82
f 62 63 83
f 62 83 84
f 62 84 85
f 64 86 87
f 64 87 88
f 64 88 65
f 66 89 67
f 67 89 90
f 67 90 68
f 68 90 91
f 68 91 69
f 69 75 70
f 69 91 92
f 69 92 93
f 69 93 75
f 71 78 73
f 73 78 94
f 73 94 95
f 73 95 76
f 73 76 96
f 73 96 74
f 75 93 97
f 75 97 98
f 75 98 76
f 76 98 99
f 76 99 96
f 76 95 94
f 76 94 77
f 77 94 78
f 83 100 84
f 84 100 101
f 84 101 102
f 84 102 103
f 84 103 104
f 84 104 85
f 86 105 87
f 87 105 106
f 87 106 107
f 87 107 88
f 88 107 108
f 88 108 109
f 89 110 91
f 89 91 90
f 91 110 92
f 92 110 111
f 92 111 112
f 92 112 113
f 92 113 93
f 93 113 114
f 93 114 115
f 93 115 97
f 96 99 116
f 96 116 117
f 97 115 118
f 97 118 119
f 97 119 120
f 97 120 98
f 98 116 99
f 98 120 121
f 98 121 122
f 98 122 116
f 101 123 124
f 101 124 102
f 102 124 103
f 103 125 104
f 103 124 126
f 103 126 127
f 103 127 125
f 106 128 107
f 107 129 130
f 107 130 131
f 107 131 132
f 107 132 133
f 107 133 108
f 107 128 129
f 108 133 109
f 109 133 134
f 112 135 113
f 112 136 135
f 113 135 137
f 113 137 138
f 113 138 114
f 114 138 119
f 114 119 139
f 114 139 115
f 115 139 118
f 116 122 117
f 117 122 140
f 118 139 119
f 119 121 120
f 119 138 141
f 119 141 121
f 121 140 122
f 121 141 142
f 123 143 124
f 124 127 126
f 124 143 144
f 124 144 145
f 124 145 127
f 125 127 128
f 127 145 146
f 127 146 129
f 127 129 128
f 129 146 145
f 129 145 130
f 130 144 147
f 130 147 148
f 130 148 131
f 130 145 144
f 131 148 149
f 131 149 150
f 131 150 132
f 132 150 151
f 132 151 133
f 133 151 152
f 133 152 153
f 133 153 134
f 134 153 152
f 134 152 154
f 135 155 137
f 135 136 156
f 135 156 155
f 136 157 158
f 136 158 159
f 136 159 156
f 137 155 160
f 137 160 161
f 137 161 162
f 137 162 163
f 137 163 164
f 137 164 165
f 137 165 166
f 137 166 138
f 138 166 167
f 138 167 168
f 138 168 169
f 138 169 141
f 141 169 170
f 141 170 171
f 141 171 142
f 143 172 148
f 143 148 147
f 143 147 144
f 148 172 173
f 148 173 149
f 149 173 174
f 149 174 150
f 150 174 175
f 150 175 176
f 150 176 177
f 150 177 151
f 151 177 178
f 151 178 152
f 152 178 179
f 152 179 180
f 152 180 154
f 154 180 179
f 154 179 181
f 154 181 182
f 155 156 160
f 156 159 183
f 156 183 184
f 156 184 160
f 157 185 183
f 157 183 158
f 157 186 187
f 157 187 185
f 158 183 159
f 160 184 161
f 161 184 183
f 161 183 188
f 161 188 162
f 162 188 189
f 162 189 163
f 163 189 165
f 163 165 164
f 165 190 166
f 165 189 190
f 166 190 167
f 167 190 189
f 167 189 191
f 167 191 170
f 167 170 169
f 167 169 168
f 170 191 192
f 172 175 193
f 172 193 173
f 173 193 175
f 173 175 174
f 175 194 195
f 175 195 196
f 175 196 197
f 175 197 176
f 176 197 196
f 176 196 177
f 177 196 178
f 178 196 179
f 179 196 195
f 179 195 198
f 179 198 199
f 179 199 200
f 179 200 181
f 181 200 187
f 181 187 182
f 182 187 186
f 183 185 201
f 183 201 202
f 183 202 188
f 185 187 203
f 185 203 201
f 187 200 203
f 188 202 189
f 189 202 204
f 189 204 205
f 189 205 206
f 189 206 191
f 191 206 192
f 194 207 208
f 194 208 195
f 195 208 209
f 195 209 210
f 195 210 198
f 198 210 201
f 198 201 199
f 199 201 203
f 199 203 200
f 201 211 204
f 201 204 212
f 201 212 202
f 201 210 211
f 202 212 204
f 204 211 205
f 205 211 213
f 207 214 215
f 207 215 208
f 208 210 209
f 208 215 210
f 210 215 211
f 211 215 213
f 213 215 214
