v 0.00719692 0.322867 -0.465875
v 0.00719692 0.0746378 -0.456942
v 0.00719692 0.308778 -0.52562
v 0.00701729 0.321557 -0.526412
v -0.0182029 0.322867 -0.526754
v -0.0613862 0.322867 -0.453842
v 0.00719692 0.0664404 -0.465791
v -0.313409 0.00444558 -0.453842
v -0.0505725 0.00444558 -0.457223
v 0.00719692 0.0745443 -0.499864
v -0.284524 0.00444558 -0.530242
v -0.295841 0.00444558 -0.531301
v -0.26031 0.151407 -0.531316
v -0.199774 0.236092 -0.530418
v -0.187667 0.248186 -0.530197
v -0.00609578 0.321869 -0.526655
v -0.296631 0.0545028 -0.531629
v -0.0424172 0.321869 -0.527097
v -0.0545243 0.321869 -0.527135
v -0.0666315 0.322867 -0.5268
v -0.174877 0.322867 -0.465722
v -0.184721 0.320591 -0.453895
v -0.199199 0.311116 -0.453842
v 0.00719692 0.0659417 -0.47771
v -0.0439261 0.00444558 -0.46621
v -0.359789 0.018191 -0.453842
v -0.359466 0.00528714 -0.454002
v -0.307948 0.00444558 -0.531408
v 0.00719692 0.0673443 -0.489818
v -0.0451835 0.00444558 -0.48962
v -0.0506084 0.00444558 -0.498599
v -0.248203 0.00444558 -0.52549
v -0.26031 0.1635 -0.531202
v -0.248203 0.175563 -0.531111
v -0.211881 0.223999 -0.530585
v -0.272417 0.127157 -0.531453
v -0.284524 0.115095 -0.531545
v -0.272417 0.139313 -0.5314
v -0.223988 0.223999 -0.530479
v -0.211881 0.236092 -0.530281
v -0.175632 0.260342 -0.529915
v -0.151417 0.272435 -0.529443
v -0.13931 0.28456 -0.529085
v -0.308738 0.0302846 -0.531415
v -0.296631 0.0666274 -0.531636
v -0.284524 0.102939 -0.531568
v -0.115096 0.296654 -0.528498
v -0.0666315 0.320872 -0.527227
v -0.0787027 0.321869 -0.526793
v -0.0908457 0.321869 -0.526298
v -0.11585 0.322586 -0.522969
v -0.139813 0.322867 -0.512696
v -0.15192 0.322867 -0.50131
v -0.164926 0.322586 -0.483246
v -0.178003 0.315885 -0.479735
v -0.190325 0.312581 -0.46621
v -0.202289 0.3003 -0.478319
v -0.208396 0.300487 -0.465959
v -0.211737 0.302482 -0.453842
v -0.195283 0.303729 -0.481898
v -0.0437465 0.00444558 -0.478319
v -0.346928 0.103157 -0.453842
v -0.35167 0.083708 -0.453865
v -0.357059 0.0545963 -0.453971
v -0.358173 0.0424092 -0.453971
v -0.359179 0.0304404 -0.453971
v -0.35361 0.0302846 -0.470558
v -0.355622 0.018191 -0.46621
v -0.355658 0.00525598 -0.46621
v -0.351311 0.00525598 -0.478829
v -0.347143 0.00525598 -0.490428
v -0.342581 0.00525598 -0.502765
v -0.320055 0.00485078 -0.528986
v -0.248203 0.187687 -0.530882
v -0.236095 0.199781 -0.530852
v -0.284524 0.127157 -0.531362
v -0.272417 0.151407 -0.531149
v -0.223988 0.211874 -0.530737
v -0.296631 0.0787209 -0.531621
v -0.296631 0.0908456 -0.531484
v -0.26031 0.175563 -0.530783
v -0.236095 0.211874 -0.530372
v -0.236095 0.223999 -0.528963
v -0.223988 0.236092 -0.529032
v -0.199774 0.248186 -0.529915
v -0.163524 0.272435 -0.529542
v -0.127203 0.296654 -0.52846
v -0.102989 0.308778 -0.527874
v -0.151417 0.28456 -0.528917
v -0.308738 0.0424092 -0.531377
v -0.320845 0.018191 -0.528811
v -0.115096 0.308778 -0.527432
v -0.102989 0.321869 -0.525231
v -0.127203 0.308778 -0.526282
v -0.151417 0.296654 -0.526633
v -0.151417 0.306409 -0.522817
v -0.133131 0.318939 -0.520289
v -0.147825 0.313329 -0.519177
v -0.15501 0.316508 -0.510845
v -0.164854 0.314887 -0.502956
v -0.174015 0.313859 -0.491951
v -0.190038 0.303698 -0.491715
v -0.200026 0.296934 -0.49093
v -0.209941 0.289952 -0.489933
v -0.215977 0.290981 -0.475646
v -0.225138 0.291511 -0.453903
v -0.259483 0.259469 -0.453842
v -0.343263 0.11522 -0.453971
v -0.341216 0.104498 -0.469972
v -0.338377 0.0996041 -0.482553
v -0.345994 0.0908456 -0.46621
v -0.335216 0.138253 -0.453842
v -0.353538 0.0685599 -0.458008
v -0.354077 0.0424092 -0.46621
v -0.350485 0.0545963 -0.473102
v -0.350521 0.0424092 -0.476575
v -0.345635 0.0424092 -0.490428
v -0.346497 0.0302846 -0.490428
v -0.347036 0.018191 -0.490428
v -0.351239 0.018191 -0.478661
v -0.342653 0.018191 -0.502521
v -0.33791 0.00525598 -0.513145
v -0.329827 0.00525598 -0.523769
v -0.284524 0.139313 -0.530715
v -0.296631 0.102939 -0.531141
v -0.296631 0.115095 -0.530585
v -0.272417 0.1635 -0.530387
v -0.308738 0.0545028 -0.531202
v -0.308738 0.0666274 -0.53089
v -0.26031 0.187687 -0.529831
v -0.248203 0.199781 -0.530121
v -0.233581 0.245786 -0.522551
v -0.248203 0.211874 -0.528384
v -0.240299 0.237308 -0.523053
v -0.225282 0.252518 -0.523015
v -0.211881 0.248186 -0.528658
v -0.187667 0.260342 -0.529473
v -0.175632 0.272435 -0.52894
v -0.163524 0.28456 -0.528072
v -0.13931 0.296654 -0.527851
v -0.320845 0.0302846 -0.528605
v -0.330007 0.018191 -0.523563
v -0.187667 0.272435 -0.527242
v -0.177284 0.288363 -0.52383
v -0.164207 0.304913 -0.518012
v -0.186912 0.284342 -0.522893
v -0.173548 0.305069 -0.511752
v -0.183787 0.302513 -0.505271
v -0.204876 0.289796 -0.499437
v -0.196648 0.292851 -0.506428
v -0.220827 0.275365 -0.502377
v -0.226431 0.277952 -0.486132
v -0.238467 0.279604 -0.454489
v -0.250214 0.268415 -0.454565
v -0.256106 0.256103 -0.47036
v -0.267208 0.250867 -0.45452
v -0.278417 0.237215 -0.453971
v -0.297817 0.210815 -0.453842
v -0.338198 0.125942 -0.458625
v -0.335791 0.113942 -0.477184
v -0.326881 0.114347 -0.501455
v -0.333132 0.0908456 -0.502521
v -0.338629 0.0776924 -0.495858
v -0.329899 0.150627 -0.453842
v -0.32821 0.145079 -0.466271
v -0.328462 0.133672 -0.479012
v -0.34682 0.0666274 -0.478319
v -0.342581 0.0666274 -0.490428
v -0.344413 0.0545028 -0.490428
v -0.339419 0.0545028 -0.503557
v -0.342042 0.0302846 -0.502521
v -0.337587 0.0302846 -0.512361
v -0.33791 0.018191 -0.512993
v -0.296631 0.127157 -0.529534
v -0.284524 0.151407 -0.529397
v -0.308738 0.0787209 -0.530372
v -0.308738 0.0908456 -0.529458
v -0.272417 0.175563 -0.528902
v -0.26031 0.199781 -0.527676
v -0.233257 0.257474 -0.5123
v -0.214252 0.265516 -0.521804
v -0.253232 0.226118 -0.521705
v -0.253196 0.235344 -0.514105
v -0.245364 0.245381 -0.512193
v -0.199774 0.260342 -0.528133
v -0.329719 0.0302846 -0.523335
v -0.325121 0.0424092 -0.525612
v -0.320845 0.0666274 -0.526313
v -0.188709 0.291199 -0.516435
v -0.176709 0.299989 -0.515323
v -0.200996 0.27683 -0.521073
v -0.208289 0.280539 -0.511272
v -0.221078 0.269131 -0.512216
v -0.230383 0.2667 -0.503214
v -0.237101 0.267261 -0.488455
v -0.243065 0.267261 -0.47448
v -0.244574 0.256789 -0.494761
v -0.254921 0.248996 -0.488463
v -0.260202 0.248092 -0.477991
v -0.265232 0.247002 -0.468007
v -0.274824 0.235687 -0.466758
v -0.279387 0.225152 -0.476529
v -0.289482 0.222253 -0.455563
v -0.291206 0.213994 -0.467086
v -0.291853 0.207916 -0.475821
v -0.303206 0.201495 -0.454474
v -0.313984 0.1827 -0.454367
v -0.324223 0.163189 -0.453842
v -0.328318 0.121703 -0.4909
v -0.322031 0.127157 -0.502521
v -0.326234 0.104747 -0.509985
v -0.327025 0.0908456 -0.515141
v -0.338593 0.0666274 -0.501356
v -0.313804 0.158202 -0.491075
v -0.314163 0.149505 -0.500968
v -0.333959 0.0545028 -0.51463
v -0.337731 0.0411625 -0.510366
v -0.284524 0.1635 -0.527364
v -0.308738 0.102939 -0.527988
v -0.307553 0.127157 -0.524264
v -0.300978 0.139313 -0.525247
v -0.272417 0.187687 -0.526275
v -0.272058 0.198721 -0.522855
v -0.241341 0.253485 -0.507167
v -0.264477 0.212872 -0.520921
v -0.27195 0.211313 -0.514295
v -0.267675 0.223157 -0.507289
v -0.257292 0.239116 -0.502552
v -0.329971 0.0666274 -0.518111
v -0.327564 0.0769132 -0.519253
v -0.324797 0.0545028 -0.524995
v -0.319121 0.0908456 -0.524127
v -0.321672 0.0781911 -0.524203
v -0.26516 0.240674 -0.481472
v -0.27001 0.236435 -0.477786
v -0.265339 0.234877 -0.492141
v -0.279566 0.216581 -0.492035
v -0.287973 0.211968 -0.47924
v -0.292284 0.202617 -0.4832
v -0.299972 0.199625 -0.466674
v -0.303349 0.180082 -0.488707
v -0.313481 0.166648 -0.480603
v -0.317648 0.167085 -0.467786
v -0.314774 0.13975 -0.508728
v -0.31675 0.116903 -0.518918
v -0.31754 0.102939 -0.522977
v -0.303313 0.170233 -0.503656
v -0.302308 0.16269 -0.51332
v -0.293721 0.1635 -0.52284
v -0.300583 0.151157 -0.521804
v -0.279674 0.190835 -0.521469
v -0.27583 0.202087 -0.5176
v -0.27874 0.209318 -0.506025
v -0.289266 0.194482 -0.503093
v -0.291925 0.183916 -0.511028
v -0.288368 0.175157 -0.521606
f 1 2 7
f 1 7 24
f 1 24 29
f 1 29 10
f 1 10 3
f 1 3 4
f 1 4 5
f 1 5 20
f 1 20 52
f 1 52 53
f 1 53 21
f 1 21 6
f 1 6 2
f 2 6 8
f 2 8 9
f 2 9 7
f 3 10 11
f 3 11 12
f 3 12 4
f 4 13 14
f 4 14 15
f 4 15 16
f 4 16 5
f 4 12 17
f 4 17 13
f 5 16 18
f 5 18 19
f 5 19 20
f 6 21 22
f 6 22 23
f 6 23 59
f 6 59 107
f 6 107 158
f 6 158 208
f 6 208 164
f 6 164 112
f 6 112 62
f 6 62 26
f 6 26 8
f 7 9 25
f 7 25 24
f 8 26 27
f 8 27 28
f 8 28 12
f 8 12 11
f 8 11 32
f 8 32 31
f 8 31 30
f 8 30 61
f 8 61 25
f 8 25 9
f 10 29 30
f 10 30 31
f 10 31 32
f 10 32 11
f 12 28 17
f 13 33 34
f 13 34 35
f 13 35 14
f 13 17 36
f 13 36 37
f 13 37 38
f 13 38 33
f 14 35 39
f 14 39 40
f 14 40 15
f 15 41 42
f 15 42 16
f 15 40 41
f 16 42 43
f 16 43 18
f 17 28 44
f 17 44 45
f 17 45 46
f 17 46 36
f 18 43 47
f 18 47 48
f 18 48 19
f 19 48 20
f 20 48 49
f 20 49 50
f 20 50 51
f 20 51 52
f 21 53 54
f 21 54 55
f 21 55 22
f 22 55 56
f 22 56 23
f 23 57 58
f 23 58 59
f 23 56 60
f 23 60 57
f 24 25 61
f 24 61 29
f 26 62 63
f 26 63 64
f 26 64 65
f 26 65 66
f 26 66 67
f 26 67 68
f 26 68 69
f 26 69 27
f 27 69 28
f 28 69 70
f 28 70 71
f 28 71 72
f 28 72 73
f 28 73 44
f 29 61 30
f 33 74 75
f 33 75 34
f 33 38 76
f 33 76 77
f 33 77 74
f 34 75 78
f 34 78 35
f 35 78 39
f 36 46 37
f 37 76 38
f 37 46 79
f 37 79 80
f 37 80 76
f 39 78 75
f 39 75 74
f 39 74 81
f 39 81 82
f 39 82 83
f 39 83 84
f 39 84 40
f 40 85 41
f 40 84 85
f 41 86 43
f 41 43 42
f 41 85 86
f 43 87 88
f 43 88 47
f 43 86 89
f 43 89 87
f 44 90 79
f 44 79 45
f 44 73 91
f 44 91 90
f 45 79 46
f 47 88 48
f 48 88 49
f 49 88 92
f 49 92 50
f 50 93 51
f 50 92 93
f 51 93 94
f 51 94 95
f 51 95 96
f 51 96 97
f 51 97 52
f 52 98 99
f 52 99 53
f 52 97 98
f 53 99 100
f 53 100 54
f 54 100 101
f 54 101 55
f 55 102 56
f 55 101 102
f 56 102 60
f 57 60 102
f 57 102 103
f 57 103 104
f 57 104 105
f 57 105 58
f 58 105 59
f 59 105 106
f 59 106 107
f 62 108 109
f 62 109 110
f 62 110 111
f 62 111 63
f 62 112 108
f 63 113 64
f 63 111 113
f 64 114 65
f 64 113 115
f 64 115 116
f 64 116 114
f 65 114 66
f 66 114 67
f 67 116 117
f 67 117 118
f 67 118 119
f 67 119 120
f 67 120 68
f 67 114 116
f 68 120 70
f 68 70 69
f 70 120 119
f 70 119 71
f 71 119 121
f 71 121 72
f 72 121 122
f 72 122 73
f 73 122 123
f 73 123 91
f 74 77 81
f 76 124 77
f 76 80 125
f 76 125 126
f 76 126 124
f 77 124 127
f 77 127 81
f 79 90 80
f 80 90 128
f 80 128 129
f 80 129 125
f 81 130 131
f 81 131 82
f 81 127 130
f 82 131 83
f 83 132 84
f 83 131 130
f 83 130 133
f 83 133 134
f 83 134 132
f 84 132 135
f 84 135 136
f 84 136 85
f 85 136 137
f 85 137 86
f 86 137 138
f 86 138 89
f 87 92 88
f 87 89 92
f 89 138 139
f 89 139 140
f 89 140 92
f 90 91 128
f 91 141 128
f 91 123 142
f 91 142 141
f 92 140 94
f 92 94 93
f 94 140 95
f 95 139 143
f 95 143 144
f 95 144 96
f 95 140 139
f 96 145 98
f 96 98 97
f 96 144 146
f 96 146 145
f 98 145 147
f 98 147 99
f 99 147 148
f 99 148 100
f 100 148 101
f 101 148 102
f 102 148 103
f 103 149 104
f 103 148 150
f 103 150 149
f 104 149 151
f 104 151 152
f 104 152 105
f 105 152 106
f 106 152 153
f 106 153 107
f 107 153 154
f 107 154 155
f 107 155 156
f 107 156 157
f 107 157 158
f 108 112 159
f 108 159 160
f 108 160 109
f 109 160 110
f 110 160 161
f 110 161 162
f 110 162 163
f 110 163 111
f 111 163 113
f 112 164 165
f 112 165 166
f 112 166 159
f 113 163 167
f 113 167 115
f 115 167 168
f 115 168 169
f 115 169 116
f 116 169 117
f 117 169 170
f 117 170 171
f 117 171 118
f 118 171 121
f 118 121 119
f 121 171 172
f 121 172 173
f 121 173 122
f 122 173 142
f 122 142 123
f 124 126 174
f 124 174 175
f 124 175 127
f 125 129 176
f 125 176 126
f 126 176 177
f 126 177 174
f 127 175 178
f 127 178 130
f 128 141 129
f 129 141 176
f 130 179 133
f 130 178 179
f 132 180 181
f 132 181 135
f 132 134 182
f 132 182 183
f 132 183 184
f 132 184 180
f 133 179 134
f 134 179 182
f 135 181 185
f 135 185 136
f 136 185 137
f 137 185 138
f 138 185 139
f 139 185 143
f 141 142 186
f 141 186 187
f 141 187 188
f 141 188 176
f 142 173 186
f 143 146 144
f 143 185 181
f 143 181 146
f 145 146 189
f 145 189 190
f 145 190 147
f 146 181 191
f 146 191 189
f 147 190 189
f 147 189 150
f 147 150 148
f 149 150 151
f 150 189 192
f 150 192 151
f 151 193 194
f 151 194 152
f 151 192 193
f 152 194 195
f 152 195 153
f 153 196 154
f 153 195 196
f 154 196 155
f 155 196 195
f 155 195 197
f 155 197 198
f 155 198 199
f 155 199 200
f 155 200 156
f 156 200 201
f 156 201 157
f 157 201 202
f 157 202 203
f 157 203 158
f 158 203 204
f 158 204 205
f 158 205 206
f 158 206 207
f 158 207 208
f 159 166 160
f 160 166 209
f 160 209 161
f 161 209 210
f 161 210 211
f 161 211 162
f 162 211 212
f 162 212 213
f 162 213 163
f 163 213 168
f 163 168 167
f 164 208 165
f 165 208 214
f 165 214 215
f 165 215 166
f 166 215 210
f 166 210 209
f 168 213 169
f 169 213 170
f 170 213 216
f 170 216 217
f 170 217 171
f 171 217 172
f 172 217 216
f 172 216 186
f 172 186 173
f 174 218 175
f 174 177 219
f 174 219 220
f 174 220 221
f 174 221 218
f 175 218 178
f 176 188 177
f 177 188 219
f 178 218 222
f 178 222 179
f 179 222 223
f 179 223 182
f 180 193 181
f 180 184 224
f 180 224 193
f 181 192 189
f 181 189 191
f 181 193 192
f 182 223 225
f 182 225 183
f 183 225 226
f 183 226 227
f 183 227 228
f 183 228 224
f 183 224 184
f 186 216 229
f 186 229 230
f 186 230 231
f 186 231 187
f 187 231 188
f 188 232 219
f 188 231 233
f 188 233 232
f 193 224 194
f 194 224 197
f 194 197 195
f 197 224 228
f 197 228 198
f 198 228 234
f 198 234 199
f 199 234 200
f 200 234 235
f 200 235 201
f 201 235 202
f 202 235 236
f 202 236 237
f 202 237 238
f 202 238 204
f 202 204 203
f 204 238 205
f 205 238 239
f 205 239 240
f 205 240 206
f 206 240 207
f 207 240 241
f 207 241 242
f 207 242 243
f 207 243 208
f 208 243 242
f 208 242 214
f 210 215 244
f 210 244 211
f 211 244 245
f 211 245 212
f 212 230 213
f 212 245 246
f 212 246 230
f 213 230 216
f 214 242 247
f 214 247 215
f 215 247 248
f 215 248 244
f 216 230 229
f 218 221 249
f 218 249 222
f 219 232 246
f 219 246 220
f 220 250 221
f 220 246 245
f 220 245 250
f 221 250 249
f 222 249 251
f 222 251 223
f 223 251 225
f 225 251 252
f 225 252 226
f 226 252 253
f 226 253 227
f 227 236 228
f 227 253 237
f 227 237 236
f 228 236 234
f 230 246 232
f 230 232 233
f 230 233 231
f 234 236 235
f 237 253 238
f 238 253 239
f 239 253 254
f 239 254 247
f 239 247 241
f 239 241 240
f 241 247 242
f 244 248 245
f 245 248 250
f 247 254 255
f 247 255 248
f 248 255 251
f 248 251 256
f 248 256 249
f 248 249 250
f 249 256 251
f 251 255 252
f 252 255 253
f 253 255 254
