v -0.523843 -0.162939 0.237261
v -0.527477 -0.151355 0.237261
v -0.475486 -0.162939 0.237261
v -0.562677 -0.162939 0.272515
v -0.570808 -0.151355 0.276495
v -0.531138 -0.139608 0.237261
v -0.50375 0.00444558 0.237261
v -0.555582 0.00444558 0.48834
v -0.5294 -0.162939 0.478286
v -0.569004 -0.162939 0.2792
v -0.569614 -0.15899 0.277874
v -0.580755 -0.118996 0.27981
v -0.581617 -0.110935 0.277954
v -0.572439 -0.139247 0.274797
v -0.531642 -0.137887 0.237261
v -0.549759 0.00444558 0.237261
v -0.555887 0.00444558 0.489162
v -0.531682 -0.162939 0.487173
v -0.571073 -0.162939 0.284585
v -0.574588 -0.151355 0.284585
v -0.577731 -0.139247 0.284585
v -0.580092 -0.128171 0.284134
v -0.582055 -0.124829 0.287901
v -0.58297 -0.114982 0.284134
v -0.58541 -0.102922 0.284585
v -0.582346 -0.102922 0.277025
v -0.587294 -0.0908143 0.284585
v -0.534918 -0.125976 0.237261
v -0.534679 -0.127057 0.237261
v -0.549693 -0.00605693 0.237261
v -0.586829 -0.0181651 0.273258
v -0.586909 -0.00605693 0.273285
v -0.586975 0.00444558 0.273311
v -0.558009 0.00444558 0.494415
v -0.534294 -0.162939 0.493247
v -0.573765 -0.162939 0.296682
v -0.577147 -0.151355 0.296682
v -0.581166 -0.13289 0.291535
v -0.587877 -0.102922 0.296682
v -0.589813 -0.0908143 0.296682
v -0.583301 -0.0908143 0.275937
v -0.541483 -0.0908143 0.237261
v -0.539321 -0.102922 0.237261
v -0.537159 -0.114982 0.237261
v -0.588885 -0.0787225 0.284585
v -0.592002 -0.0423979 0.281826
v -0.593275 -0.0599949 0.291297
v -0.593779 -0.0519173 0.289334
v -0.549096 -0.0181651 0.237261
v -0.586498 -0.0302733 0.273338
v -0.592877 -0.0181651 0.279625
v -0.59297 -0.00605693 0.279386
v -0.593023 0.00444558 0.279227
v -0.592227 0.00444558 0.278431
v -0.564057 0.00444558 0.501126
v -0.540356 -0.162939 0.50033
v -0.574826 -0.162939 0.308805
v -0.580224 -0.138657 0.296018
v -0.589562 -0.162939 0.478286
v -0.593461 -0.145752 0.471442
v -0.585463 -0.115031 0.296682
v -0.590848 -0.0908143 0.308805
v -0.597957 -0.127139 0.478286
v -0.600185 -0.115031 0.478286
v -0.602294 -0.102922 0.478286
v -0.605345 -0.0839819 0.47566
v -0.593607 -0.0743642 0.312333
v -0.591445 -0.0787225 0.296682
v -0.584097 -0.0787225 0.275142
v -0.545435 -0.0666143 0.237261
v -0.543724 -0.0779196 0.237261
v -0.592546 -0.0302733 0.280421
v -0.590331 -0.0666143 0.284585
v -0.591776 -0.0553745 0.28501
v -0.594283 -0.0423979 0.287875
v -0.594296 -0.0553745 0.295886
v -0.595742 -0.0423979 0.296682
v -0.593182 -0.0713986 0.304268
v -0.5937 -0.0633374 0.299387
v -0.546934 -0.0525727 0.237261
v -0.585954 -0.0423979 0.27363
v -0.585384 -0.0545061 0.274001
v -0.594681 -0.0302733 0.286469
v -0.594893 -0.0181651 0.285699
v -0.595052 -0.00605693 0.285434
v -0.594827 0.00444558 0.284479
v -0.575184 0.00444558 0.506988
v -0.550966 -0.162939 0.505715
v -0.589508 -0.162939 0.47879
v -0.593647 -0.146604 0.485661
v -0.592188 -0.152682 0.478286
v -0.59366 -0.14662 0.478286
v -0.595371 -0.139247 0.478286
v -0.605464 -0.0848667 0.48444
v -0.605464 -0.0848667 0.483724
v -0.604549 -0.0896674 0.479135
v -0.606048 -0.0794434 0.479135
v -0.607533 -0.0666143 0.478286
v -0.605875 -0.0759207 0.470222
v -0.595251 -0.0666143 0.320901
v -0.594151 -0.0670567 0.308513
v -0.584774 -0.0666143 0.274505
v -0.546801 -0.054375 0.237261
v -0.596498 -0.0302733 0.296682
v -0.595556 -0.0545061 0.308805
v -0.596697 -0.0423979 0.308805
v -0.596936 -0.0181651 0.296682
v -0.597294 -0.00605693 0.296682
v -0.5974 0.00444558 0.296682
v -0.595092 0.00444558 0.285302
v -0.587294 0.00444558 0.508235
v -0.563075 -0.151355 0.507307
v -0.563075 -0.162939 0.507227
v -0.587877 -0.162939 0.490382
v -0.591246 -0.150929 0.489985
v -0.592519 -0.141688 0.493725
v -0.59431 -0.13828 0.489985
v -0.596432 -0.127139 0.490409
v -0.59866 -0.115031 0.490409
v -0.600862 -0.102922 0.490409
v -0.603395 -0.0896674 0.489242
v -0.604191 -0.0787225 0.492133
v -0.605888 -0.0787225 0.486085
v -0.608567 -0.0545061 0.478286
v -0.59744 -0.0302733 0.308805
v -0.598355 -0.0302733 0.320901
v -0.609403 -0.0423979 0.478286
v -0.597877 -0.0181651 0.308805
v -0.598262 -0.00605693 0.308805
v -0.598236 0.00444558 0.307186
v -0.588898 0.00444558 0.507731
v -0.599403 -0.00605693 0.504283
v -0.587294 -0.0545061 0.507307
v -0.575184 -0.102922 0.507519
v -0.575184 -0.115031 0.507307
v -0.575184 -0.127139 0.506935
v -0.575184 -0.139247 0.506431
v -0.575184 -0.151355 0.505742
v -0.575184 -0.162939 0.504415
v -0.583474 -0.162939 0.49903
v -0.593421 -0.133611 0.496563
v -0.60488 -0.0686624 0.494653
v -0.605451 -0.0605848 0.496457
v -0.606406 -0.0654182 0.490542
v -0.607453 -0.0545061 0.490409
v -0.608302 -0.0423979 0.490409
v -0.610133 -0.0302733 0.478286
v -0.610676 -0.0181651 0.478286
v -0.610968 -0.00605693 0.478286
v -0.610928 0.00444558 0.478286
v -0.599403 0.00444558 0.504336
v -0.599403 -0.0181651 0.503964
v -0.587294 -0.0666143 0.507041
v -0.607002 -0.00605693 0.4985
v -0.606817 -0.0181651 0.498341
v -0.587294 -0.0787225 0.506644
v -0.587294 -0.0908143 0.506033
v -0.587294 -0.102922 0.505211
v -0.587294 -0.115031 0.503964
v -0.585145 -0.151355 0.500224
v -0.593991 -0.127139 0.497279
v -0.595105 -0.115031 0.498553
v -0.605703 -0.0545061 0.496829
v -0.596273 -0.102922 0.499614
v -0.597307 -0.0908143 0.500436
v -0.598143 -0.0787225 0.50102
v -0.609018 -0.0302733 0.490409
v -0.609668 -0.0181651 0.490409
v -0.609987 -0.00605693 0.490409
v -0.609841 0.00444558 0.490409
v -0.600411 0.00444558 0.503566
v -0.599403 -0.0302733 0.503434
v -0.606936 0.00444558 0.498447
v -0.606472 -0.0302733 0.497943
v -0.599403 -0.0423979 0.502771
v -0.599403 -0.0545061 0.502001
v -0.587294 -0.127139 0.502293
v -0.606127 -0.0423979 0.497465
v -0.600265 -0.0654182 0.50041
v -0.607334 0.00444558 0.497359
f 1 2 6
f 1 6 15
f 1 15 29
f 1 29 28
f 1 28 44
f 1 44 43
f 1 43 42
f 1 42 71
f 1 71 70
f 1 70 103
f 1 103 80
f 1 80 49
f 1 49 30
f 1 30 16
f 1 16 7
f 1 7 3
f 1 3 9
f 1 9 18
f 1 18 35
f 1 35 56
f 1 56 88
f 1 88 113
f 1 113 139
f 1 139 140
f 1 140 114
f 1 114 89
f 1 89 59
f 1 59 57
f 1 57 36
f 1 36 19
f 1 19 10
f 1 10 4
f 1 4 5
f 1 5 2
f 2 5 6
f 3 7 8
f 3 8 9
f 4 10 11
f 4 11 5
f 5 11 12
f 5 12 13
f 5 13 14
f 5 14 15
f 5 15 6
f 7 16 33
f 7 33 54
f 7 54 53
f 7 53 86
f 7 86 110
f 7 110 109
f 7 109 130
f 7 130 150
f 7 150 170
f 7 170 180
f 7 180 173
f 7 173 171
f 7 171 151
f 7 151 131
f 7 131 111
f 7 111 87
f 7 87 55
f 7 55 34
f 7 34 17
f 7 17 8
f 8 17 18
f 8 18 9
f 10 19 20
f 10 20 11
f 11 20 21
f 11 21 12
f 12 21 22
f 12 22 23
f 12 23 24
f 12 24 25
f 12 25 13
f 13 26 14
f 13 25 27
f 13 27 26
f 14 26 28
f 14 28 29
f 14 29 15
f 16 30 31
f 16 31 32
f 16 32 33
f 17 34 18
f 18 34 35
f 19 36 20
f 20 36 37
f 20 37 38
f 20 38 21
f 21 38 23
f 21 23 22
f 23 38 39
f 23 39 25
f 23 25 24
f 25 39 40
f 25 40 27
f 26 41 42
f 26 42 43
f 26 43 44
f 26 44 28
f 26 27 45
f 26 45 46
f 26 46 41
f 27 40 47
f 27 47 48
f 27 48 45
f 30 49 50
f 30 50 31
f 31 50 51
f 31 51 52
f 31 52 53
f 31 53 54
f 31 54 32
f 32 54 33
f 34 55 56
f 34 56 35
f 36 57 37
f 37 58 38
f 37 57 59
f 37 59 60
f 37 60 58
f 38 61 39
f 38 58 60
f 38 60 61
f 39 62 40
f 39 61 63
f 39 63 64
f 39 64 65
f 39 65 66
f 39 66 62
f 40 62 67
f 40 67 68
f 40 68 47
f 41 69 70
f 41 70 71
f 41 71 42
f 41 46 72
f 41 72 69
f 45 73 46
f 45 48 73
f 46 73 74
f 46 74 75
f 46 75 72
f 47 76 77
f 47 77 48
f 47 68 78
f 47 78 79
f 47 79 76
f 48 75 74
f 48 74 73
f 48 77 75
f 49 80 50
f 50 81 51
f 50 80 81
f 51 81 82
f 51 82 72
f 51 72 83
f 51 83 84
f 51 84 85
f 51 85 52
f 52 85 53
f 53 85 86
f 55 87 56
f 56 87 88
f 59 89 90
f 59 90 91
f 59 91 60
f 60 91 92
f 60 92 93
f 60 93 63
f 60 63 61
f 62 66 67
f 63 93 90
f 63 90 94
f 63 94 64
f 64 94 95
f 64 95 65
f 65 95 96
f 65 96 66
f 66 96 95
f 66 95 97
f 66 97 98
f 66 98 99
f 66 99 100
f 66 100 67
f 67 100 101
f 67 101 78
f 67 78 68
f 69 102 103
f 69 103 70
f 69 72 102
f 72 75 83
f 72 82 102
f 75 77 104
f 75 104 83
f 76 79 101
f 76 101 105
f 76 105 77
f 77 105 106
f 77 106 104
f 78 101 79
f 80 103 81
f 81 103 82
f 82 103 102
f 83 104 107
f 83 107 108
f 83 108 84
f 84 108 85
f 85 108 109
f 85 109 110
f 85 110 86
f 87 111 112
f 87 112 88
f 88 112 113
f 89 114 90
f 90 114 115
f 90 115 116
f 90 116 117
f 90 117 118
f 90 118 94
f 90 93 92
f 90 92 91
f 94 118 119
f 94 119 120
f 94 120 121
f 94 121 122
f 94 122 123
f 94 123 98
f 94 98 95
f 95 98 97
f 98 123 124
f 98 124 106
f 98 106 105
f 98 105 100
f 98 100 99
f 100 105 101
f 104 106 125
f 104 125 128
f 104 128 107
f 106 126 125
f 106 124 127
f 106 127 126
f 107 128 129
f 107 129 108
f 108 129 109
f 109 129 130
f 111 131 132
f 111 132 133
f 111 133 134
f 111 134 113
f 111 113 112
f 113 134 135
f 113 135 136
f 113 136 137
f 113 137 138
f 113 138 139
f 114 116 115
f 114 140 116
f 116 141 117
f 116 140 141
f 117 141 118
f 118 141 119
f 119 141 120
f 120 141 142
f 120 142 122
f 120 122 121
f 122 142 123
f 123 142 143
f 123 143 144
f 123 144 145
f 123 145 124
f 124 145 146
f 124 146 127
f 125 126 128
f 126 127 147
f 126 147 148
f 126 148 128
f 127 146 147
f 128 148 129
f 129 148 149
f 129 149 130
f 130 149 150
f 131 151 132
f 132 152 153
f 132 153 133
f 132 151 154
f 132 154 155
f 132 155 152
f 133 153 135
f 133 135 134
f 135 153 136
f 136 156 137
f 136 153 156
f 137 156 157
f 137 157 138
f 138 157 158
f 138 158 159
f 138 159 139
f 139 159 160
f 139 160 140
f 140 160 141
f 141 161 162
f 141 162 143
f 141 143 142
f 141 160 161
f 143 163 146
f 143 146 145
f 143 145 144
f 143 162 164
f 143 164 165
f 143 165 166
f 143 166 163
f 146 163 167
f 146 167 147
f 147 167 168
f 147 168 148
f 148 168 169
f 148 169 149
f 149 169 150
f 150 169 170
f 151 171 154
f 152 172 156
f 152 156 153
f 152 155 172
f 154 173 169
f 154 169 155
f 154 171 173
f 155 169 168
f 155 168 174
f 155 174 175
f 155 175 172
f 156 172 157
f 157 172 175
f 157 175 176
f 157 176 158
f 158 176 166
f 158 166 165
f 158 165 159
f 159 165 164
f 159 164 177
f 159 177 160
f 160 164 162
f 160 162 161
f 160 177 164
f 163 178 168
f 163 168 167
f 163 166 179
f 163 179 178
f 166 176 179
f 168 178 174
f 169 173 180
f 169 180 170
f 174 178 175
f 175 178 176
f 176 178 179
