v -0.157665 0.322867 -0.332024
v -0.300575 0.186151 -0.332024
v -0.241821 0.322867 -0.332024
v -0.387463 0.322867 0.248467
v -0.470306 0.186151 0.248467
v -0.353474 0.186151 -0.33191
v -0.345349 0.200765 -0.332024
v -0.248314 0.317902 -0.332024
v -0.247143 0.322867 -0.320205
v -0.447139 0.322867 0.248467
v -0.520083 0.187382 0.248467
v -0.481837 0.186151 0.104254
v -0.365572 0.186151 -0.293214
v -0.350707 0.192936 -0.329353
v -0.340666 0.20866 -0.332024
v -0.350139 0.204097 -0.311738
v -0.351452 0.206425 -0.303669
v -0.260306 0.307637 -0.332024
v -0.253884 0.314436 -0.32958
v -0.252181 0.322867 -0.308727
v -0.457782 0.308654 0.248467
v -0.411447 0.322867 0.127096
v -0.515223 0.200189 0.248467
v -0.473783 0.186151 0.0741383
v -0.3732 0.186151 -0.26861
v -0.387889 0.194595 -0.207243
v -0.376074 0.19509 -0.244404
v -0.362947 0.19323 -0.289634
v -0.357235 0.199814 -0.296624
v -0.363656 0.218751 -0.243438
v -0.337083 0.214669 -0.332024
v -0.353013 0.221106 -0.272361
v -0.350387 0.216703 -0.288271
v -0.362698 0.229176 -0.228437
v -0.272298 0.296476 -0.332024
v -0.266479 0.302766 -0.329978
v -0.261796 0.310514 -0.32083
v -0.264209 0.312736 -0.308727
v -0.272085 0.322867 -0.261053
v -0.26765 0.322867 -0.271963
v -0.261725 0.322867 -0.286168
v -0.464594 0.298497 0.248467
v -0.422835 0.301468 0.112095
v -0.425816 0.293492 0.10289
v -0.40836 0.322719 0.116527
v -0.40279 0.322867 0.0992535
v -0.509227 0.214187 0.248467
v -0.466191 0.199814 0.0665242
v -0.471619 0.192213 0.0748769
v -0.471442 0.186619 0.0661264
v -0.467965 0.18694 0.0537393
v -0.46463 0.18694 0.0415226
v -0.461472 0.186766 0.0298741
v -0.458598 0.186151 0.0191916
v -0.376571 0.186151 -0.25753
v -0.384163 0.199105 -0.211505
v -0.387889 0.189095 -0.215596
v -0.410595 0.203401 -0.117351
v -0.424006 0.218429 -0.0491649
v -0.400093 0.206854 -0.146955
v -0.374265 0.215927 -0.214346
v -0.363302 0.205997 -0.266565
v -0.373271 0.226205 -0.199743
v -0.330945 0.224559 -0.332024
v -0.3506 0.229243 -0.264747
v -0.337225 0.227101 -0.308727
v -0.363976 0.231277 -0.220369
v -0.351948 0.23129 -0.256678
v -0.374584 0.228667 -0.191219
v -0.375826 0.230915 -0.183151
v -0.399916 0.254816 -0.0616089
v -0.284254 0.284097 -0.332024
v -0.278826 0.290869 -0.330205
v -0.274356 0.298724 -0.32083
v -0.268324 0.304452 -0.32083
v -0.278578 0.314864 -0.266451
v -0.277159 0.322867 -0.248155
v -0.434969 0.289089 0.124369
v -0.437382 0.280872 0.114993
v -0.45058 0.270581 0.139199
v -0.460656 0.267276 0.167496
v -0.474457 0.28205 0.248467
v -0.411766 0.314917 0.108686
v -0.421416 0.299541 0.10289
v -0.424538 0.291659 0.0944236
v -0.400058 0.322867 0.090787
v -0.387889 0.315359 0.0348744
v -0.386576 0.3137 0.0268058
v -0.400945 0.316617 0.078684
v -0.410489 0.313204 0.100617
v -0.505182 0.22302 0.248467
v -0.459982 0.21768 0.0731155
v -0.460727 0.207202 0.0583418
v -0.462643 0.200323 0.0543643
v -0.460195 0.193993 0.0359541
v -0.399845 0.186151 -0.179684
v -0.39321 0.187717 -0.199743
v -0.447955 0.20577 0.0122594
v -0.434685 0.215177 -0.0181971
v -0.435679 0.217453 -0.0113216
v -0.436105 0.23046 0.0114071
v -0.423119 0.228854 -0.0342208
v -0.412263 0.219085 -0.0866673
v -0.401832 0.222096 -0.115021
v -0.376535 0.220156 -0.199743
v -0.325658 0.233083 -0.331285
v -0.316931 0.245275 -0.332024
v -0.338537 0.229189 -0.300942
v -0.362663 0.24134 -0.204061
v -0.359789 0.235653 -0.224233
v -0.376003 0.243187 -0.159399
v -0.337118 0.23932 -0.284464
v -0.408608 0.223488 -0.0907584
v -0.411305 0.22943 -0.071439
v -0.409034 0.235867 -0.0670637
v -0.388421 0.238583 -0.128545
v -0.41173 0.254402 -0.0244474
v -0.411908 0.2667 -0.000752784
v -0.306642 0.258764 -0.332024
v -0.301958 0.265482 -0.329069
v -0.301923 0.27754 -0.300374
v -0.30281 0.290655 -0.266451
v -0.290215 0.29012 -0.30151
v -0.326226 0.314061 -0.143319
v -0.328248 0.322867 -0.115021
v -0.322926 0.322867 -0.129113
v -0.278152 0.302311 -0.301567
v -0.276733 0.300986 -0.308727
v -0.282622 0.322867 -0.234063
v -0.433621 0.286921 0.114993
v -0.436317 0.279146 0.107549
v -0.445719 0.272348 0.12596
v -0.44799 0.266339 0.12113
v -0.459521 0.265335 0.159428
v -0.459592 0.253304 0.135051
v -0.480524 0.271692 0.248467
v -0.448096 0.254482 0.0964692
v -0.412227 0.303422 0.0830025
v -0.400306 0.303663 0.0461251
v -0.398993 0.301936 0.0380565
v -0.414037 0.293813 0.0665242
v -0.411305 0.290066 0.0495913
v -0.410134 0.288447 0.0423181
v -0.410595 0.276978 0.018112
v -0.423474 0.278008 0.0615238
v -0.42468 0.279869 0.0695925
v -0.432202 0.283723 0.103288
v -0.38395 0.322867 0.0423181
v -0.377032 0.316711 0.006009
v -0.37579 0.315305 -0.00126418
v -0.376322 0.303944 -0.0271749
v -0.387037 0.302124 0.0012928
v -0.389733 0.30579 0.018112
v -0.497625 0.238865 0.248467
v -0.458421 0.238543 0.10289
v -0.456931 0.235184 0.0915257
v -0.452922 0.236148 0.078684
v -0.45906 0.215726 0.0665242
v -0.45388 0.211926 0.0423181
v -0.459556 0.204699 0.0502731
v -0.455157 0.224037 0.0665242
v -0.459769 0.199105 0.0423181
v -0.456682 0.198744 0.0312379
v -0.449161 0.208312 0.0203281
v -0.43685 0.219955 -0.00325294
v -0.424361 0.231116 -0.0261521
v -0.437843 0.22401 0.00680451
v -0.449799 0.235987 0.0675469
v -0.448558 0.2432 0.0754452
v -0.318385 0.248754 -0.320545
v -0.312673 0.251283 -0.332024
v -0.314021 0.253117 -0.324409
v -0.373271 0.251203 -0.15133
v -0.362557 0.253331 -0.179571
v -0.361208 0.251377 -0.187639
v -0.33836 0.253237 -0.252018
v -0.328993 0.245101 -0.296624
v -0.4206 0.235546 -0.0302433
v -0.422481 0.251966 0.006009
v -0.414108 0.260477 -0.00529852
v -0.417655 0.26033 0.006009
v -0.435324 0.253251 0.0504436
v -0.422587 0.264372 0.0302151
v -0.42358 0.266058 0.0369768
v -0.402612 0.282679 0.006009
v -0.399632 0.278557 -0.0122876
v -0.375826 0.267021 -0.110362
v -0.374477 0.265148 -0.118431
v -0.374619 0.253211 -0.143034
v -0.315086 0.26662 -0.291112
v -0.310757 0.284084 -0.260883
v -0.313879 0.289504 -0.239461
v -0.315405 0.29115 -0.231392
v -0.327113 0.302846 -0.169854
v -0.327716 0.315613 -0.13525
v -0.332648 0.32213 -0.104793
v -0.368375 0.322867 -0.00302565
v -0.435147 0.277219 0.0994808
v -0.443839 0.259233 0.091753
v -0.445365 0.26203 0.10289
v -0.460585 0.243134 0.119255
v -0.485385 0.262966 0.248467
v -0.450261 0.248393 0.091753
v -0.446926 0.252528 0.0884005
v -0.399348 0.290253 0.0128276
v -0.434011 0.263261 0.0665242
v -0.375719 0.322867 0.018112
v -0.37171 0.322867 0.00640675
v -0.338076 0.301535 -0.142353
v -0.350387 0.301816 -0.106839
v -0.364118 0.303743 -0.0630862
v -0.374974 0.302204 -0.0352436
v -0.379835 0.29756 -0.0308683
v -0.385831 0.300464 -0.00609403
v -0.388634 0.292234 -0.0157537
v -0.459521 0.240939 0.111186
v -0.449516 0.221146 0.0423181
v -0.446642 0.227208 0.0423181
v -0.436353 0.242986 0.0348176
v -0.445506 0.250079 0.078684
v -0.326191 0.253184 -0.288214
v -0.315405 0.25499 -0.316341
v -0.363905 0.255245 -0.171502
v -0.363727 0.267061 -0.146785
v -0.434082 0.251069 0.0423181
v -0.437701 0.257199 0.0665242
v -0.387321 0.290401 -0.0238224
v -0.375294 0.290508 -0.060302
v -0.36504 0.268748 -0.139227
v -0.362698 0.302057 -0.0711549
v -0.326368 0.289892 -0.204175
v -0.327787 0.291565 -0.196106
f 1 2 7
f 1 7 15
f 1 15 31
f 1 31 64
f 1 64 107
f 1 107 171
f 1 171 119
f 1 119 72
f 1 72 35
f 1 35 18
f 1 18 8
f 1 8 3
f 1 3 9
f 1 9 20
f 1 20 41
f 1 41 40
f 1 40 39
f 1 39 77
f 1 77 129
f 1 129 126
f 1 126 125
f 1 125 197
f 1 197 208
f 1 208 207
f 1 207 148
f 1 148 86
f 1 86 46
f 1 46 22
f 1 22 10
f 1 10 4
f 1 4 5
f 1 5 2
f 2 6 7
f 2 5 12
f 2 12 24
f 2 24 54
f 2 54 96
f 2 96 55
f 2 55 25
f 2 25 13
f 2 13 6
f 3 8 9
f 4 10 21
f 4 21 42
f 4 42 82
f 4 82 136
f 4 136 202
f 4 202 154
f 4 154 91
f 4 91 47
f 4 47 23
f 4 23 11
f 4 11 5
f 5 11 12
f 6 13 14
f 6 14 7
f 7 14 16
f 7 16 17
f 7 17 15
f 8 18 19
f 8 19 9
f 9 19 20
f 10 22 21
f 11 23 24
f 11 24 12
f 13 25 26
f 13 26 27
f 13 27 28
f 13 28 14
f 14 28 27
f 14 27 29
f 14 29 30
f 14 30 17
f 14 17 16
f 15 17 31
f 17 32 33
f 17 33 31
f 17 30 34
f 17 34 32
f 18 35 36
f 18 36 37
f 18 37 19
f 19 37 38
f 19 38 39
f 19 39 40
f 19 40 41
f 19 41 20
f 21 22 43
f 21 43 44
f 21 44 42
f 22 45 43
f 22 46 45
f 23 47 48
f 23 48 49
f 23 49 24
f 24 49 50
f 24 50 51
f 24 51 52
f 24 52 53
f 24 53 54
f 25 55 26
f 26 56 27
f 26 55 57
f 26 57 58
f 26 58 59
f 26 59 60
f 26 60 56
f 27 56 61
f 27 61 62
f 27 62 29
f 29 62 30
f 30 61 63
f 30 63 34
f 30 62 61
f 31 33 32
f 31 32 65
f 31 65 66
f 31 66 64
f 32 34 65
f 34 67 68
f 34 68 65
f 34 63 69
f 34 69 70
f 34 70 71
f 34 71 67
f 35 72 73
f 35 73 74
f 35 74 75
f 35 75 36
f 36 75 37
f 37 75 38
f 38 76 39
f 38 75 76
f 39 76 77
f 42 44 78
f 42 78 79
f 42 79 80
f 42 80 81
f 42 81 82
f 43 45 83
f 43 83 84
f 43 84 44
f 44 84 85
f 44 85 78
f 45 46 83
f 46 86 87
f 46 87 88
f 46 88 89
f 46 89 90
f 46 90 83
f 47 91 92
f 47 92 93
f 47 93 48
f 48 93 94
f 48 94 49
f 49 94 95
f 49 95 52
f 49 52 51
f 49 51 50
f 52 95 53
f 53 95 54
f 54 95 96
f 55 96 97
f 55 97 57
f 56 60 61
f 57 97 58
f 58 97 98
f 58 98 99
f 58 99 59
f 59 99 100
f 59 100 101
f 59 101 102
f 59 102 103
f 59 103 60
f 60 103 104
f 60 104 105
f 60 105 61
f 61 105 63
f 63 105 104
f 63 104 69
f 64 106 107
f 64 66 108
f 64 108 106
f 65 108 66
f 65 68 108
f 67 109 110
f 67 110 68
f 67 71 111
f 67 111 109
f 68 110 109
f 68 109 112
f 68 112 108
f 69 104 113
f 69 113 114
f 69 114 70
f 70 114 115
f 70 115 116
f 70 116 71
f 71 116 117
f 71 117 118
f 71 118 111
f 72 119 120
f 72 120 121
f 72 121 122
f 72 122 123
f 72 123 73
f 73 123 122
f 73 122 124
f 73 124 125
f 73 125 126
f 73 126 127
f 73 127 128
f 73 128 74
f 74 128 75
f 75 128 127
f 75 127 76
f 76 127 126
f 76 126 129
f 76 129 77
f 78 130 131
f 78 131 79
f 78 85 130
f 79 131 80
f 80 131 132
f 80 132 133
f 80 133 81
f 81 134 135
f 81 135 136
f 81 136 82
f 81 133 137
f 81 137 134
f 83 90 138
f 83 138 84
f 84 138 85
f 85 138 139
f 85 139 140
f 85 140 141
f 85 141 142
f 85 142 143
f 85 143 144
f 85 144 118
f 85 118 145
f 85 145 146
f 85 146 147
f 85 147 130
f 86 148 87
f 87 148 149
f 87 149 150
f 87 150 88
f 88 150 151
f 88 151 152
f 88 152 153
f 88 153 139
f 88 139 89
f 89 138 90
f 89 139 138
f 91 154 155
f 91 155 156
f 91 156 92
f 92 156 157
f 92 157 158
f 92 158 93
f 93 159 160
f 93 160 94
f 93 158 161
f 93 161 159
f 94 160 162
f 94 162 95
f 95 163 98
f 95 98 96
f 95 162 163
f 96 98 97
f 98 163 162
f 98 162 164
f 98 164 100
f 98 100 99
f 100 164 159
f 100 159 165
f 100 165 101
f 101 166 102
f 101 165 167
f 101 167 168
f 101 168 169
f 101 169 166
f 102 166 114
f 102 114 113
f 102 113 103
f 103 113 104
f 106 170 107
f 106 108 112
f 106 112 170
f 107 170 172
f 107 172 171
f 109 111 173
f 109 173 174
f 109 174 175
f 109 175 176
f 109 176 112
f 111 118 173
f 112 177 170
f 112 176 177
f 114 166 115
f 115 166 178
f 115 178 117
f 115 117 116
f 117 178 179
f 117 179 180
f 117 180 118
f 118 180 181
f 118 181 182
f 118 182 183
f 118 183 184
f 118 184 145
f 118 144 185
f 118 185 186
f 118 186 187
f 118 187 188
f 118 188 189
f 118 189 173
f 119 171 172
f 119 172 190
f 119 190 120
f 120 190 121
f 121 190 191
f 121 191 192
f 121 192 122
f 122 192 193
f 122 193 194
f 122 194 124
f 124 194 195
f 124 195 125
f 125 195 196
f 125 196 197
f 130 147 131
f 131 133 132
f 131 147 198
f 131 198 199
f 131 199 137
f 131 137 200
f 131 200 133
f 133 200 137
f 134 137 135
f 135 201 202
f 135 202 136
f 135 137 203
f 135 203 169
f 135 169 201
f 137 199 204
f 137 204 203
f 139 153 140
f 140 153 152
f 140 152 141
f 141 152 205
f 141 205 142
f 142 205 143
f 143 205 185
f 143 185 144
f 145 184 206
f 145 206 198
f 145 198 147
f 145 147 146
f 148 207 149
f 149 207 150
f 150 207 208
f 150 208 197
f 150 197 209
f 150 209 210
f 150 210 211
f 150 211 151
f 151 212 152
f 151 211 212
f 152 212 213
f 152 213 214
f 152 214 215
f 152 215 185
f 152 185 205
f 154 202 201
f 154 201 216
f 154 216 155
f 155 169 157
f 155 157 156
f 155 216 169
f 157 169 168
f 157 168 161
f 157 161 158
f 159 161 168
f 159 168 217
f 159 217 165
f 159 164 160
f 160 164 162
f 165 217 218
f 165 218 168
f 165 168 167
f 166 169 219
f 166 219 179
f 166 179 178
f 168 218 217
f 169 216 201
f 169 203 204
f 169 204 220
f 169 220 182
f 169 182 219
f 170 177 176
f 170 176 221
f 170 221 172
f 172 221 222
f 172 222 190
f 173 189 223
f 173 223 174
f 174 223 176
f 174 176 175
f 176 223 224
f 176 224 222
f 176 222 221
f 179 181 180
f 179 219 225
f 179 225 182
f 179 182 181
f 182 184 183
f 182 225 219
f 182 220 204
f 182 204 226
f 182 226 184
f 184 226 206
f 185 215 186
f 186 215 227
f 186 227 187
f 187 228 229
f 187 229 223
f 187 223 188
f 187 227 228
f 188 223 189
f 190 230 231
f 190 231 193
f 190 193 192
f 190 192 191
f 190 222 212
f 190 212 230
f 193 231 232
f 193 232 194
f 194 209 197
f 194 197 196
f 194 196 195
f 194 232 209
f 198 206 199
f 199 206 226
f 199 226 204
f 209 232 210
f 210 232 211
f 211 232 231
f 211 231 230
f 211 230 212
f 212 222 229
f 212 229 228
f 212 228 213
f 213 227 215
f 213 215 214
f 213 228 227
f 222 224 229
f 223 229 224
