v 0.206226 -0.279398 -0.428081
v 0.206226 -0.27187 -0.428081
v 0.271183 -0.279398 -0.428081
v 0.206226 -0.279398 -0.404397
v 0.332265 -0.103824 -0.428081
v 0.206226 -0.278796 -0.406133
v 0.27534 -0.275497 -0.428081
v 0.276981 -0.277026 -0.419765
v 0.27502 -0.279398 -0.418282
v 0.332265 -0.279398 -0.0587239
v 0.332265 -0.208161 -0.428081
v 0.281571 -0.26943 -0.428081
v 0.278511 -0.278504 -0.411701
v 0.277105 -0.279398 -0.412859
v 0.332265 -0.279398 -0.237418
v 0.32965 -0.212063 -0.428081
v 0.332265 -0.211925 -0.420054
v 0.286863 -0.264205 -0.428081
v 0.279436 -0.279398 -0.406639
v 0.289158 -0.264944 -0.419873
v 0.291786 -0.267557 -0.405627
v 0.294031 -0.269739 -0.393514
v 0.303149 -0.266835 -0.376628
v 0.332253 -0.279398 -0.248157
v 0.332265 -0.279346 -0.24823
v 0.326281 -0.216995 -0.428081
v 0.32696 -0.217975 -0.423851
v 0.332265 -0.212991 -0.41774
v 0.287628 -0.263432 -0.428081
v 0.279708 -0.279398 -0.40588
v 0.301705 -0.265305 -0.384691
v 0.303642 -0.279398 -0.337179
v 0.298078 -0.274105 -0.369324
v 0.289467 -0.277404 -0.384149
v 0.284088 -0.279398 -0.393514
v 0.303864 -0.25563 -0.402987
v 0.305468 -0.257503 -0.393514
v 0.306788 -0.260888 -0.380967
v 0.314647 -0.254048 -0.374748
v 0.311156 -0.259892 -0.370156
v 0.312279 -0.263363 -0.357211
v 0.313759 -0.265116 -0.347737
v 0.315017 -0.266611 -0.339638
v 0.315239 -0.278951 -0.304022
v 0.314684 -0.279398 -0.304347
v 0.328515 -0.279398 -0.260343
v 0.327108 -0.278693 -0.266924
v 0.332265 -0.272472 -0.267321
v 0.321532 -0.223302 -0.428081
v 0.326664 -0.229696 -0.398793
v 0.332265 -0.223784 -0.394165
v 0.331389 -0.225004 -0.394273
v 0.293365 -0.257537 -0.428081
v 0.302495 -0.254014 -0.411051
v 0.296709 -0.279398 -0.357211
v 0.292514 -0.279398 -0.369324
v 0.287826 -0.279398 -0.382847
v 0.313549 -0.252725 -0.381437
v 0.318558 -0.246676 -0.381437
v 0.324616 -0.239354 -0.381437
v 0.326047 -0.24109 -0.37247
v 0.315881 -0.255561 -0.366684
v 0.318435 -0.260785 -0.344266
v 0.3268 -0.266233 -0.30225
v 0.328046 -0.267711 -0.294187
v 0.326294 -0.279398 -0.267502
v 0.315647 -0.279398 -0.301419
v 0.328292 -0.279398 -0.261066
v 0.327725 -0.279398 -0.26291
v 0.332265 -0.266147 -0.284533
v 0.321038 -0.223955 -0.428081
v 0.327984 -0.231414 -0.390693
v 0.323296 -0.235711 -0.394273
v 0.313919 -0.241073 -0.409026
v 0.312439 -0.239251 -0.41774
v 0.314104 -0.232875 -0.428081
v 0.315832 -0.231311 -0.426743
v 0.31561 -0.231019 -0.428081
v 0.318361 -0.227444 -0.428081
v 0.320384 -0.224815 -0.428081
v 0.332265 -0.224746 -0.391995
v 0.332265 -0.229197 -0.381762
v 0.299571 -0.250542 -0.428081
v 0.301348 -0.252656 -0.41774
v 0.304642 -0.244493 -0.428081
v 0.306394 -0.246607 -0.41774
v 0.308898 -0.248377 -0.405988
v 0.311514 -0.250285 -0.393514
v 0.316535 -0.244235 -0.393514
v 0.32944 -0.233288 -0.381437
v 0.315289 -0.242723 -0.400926
v 0.330587 -0.23669 -0.368782
v 0.332265 -0.243582 -0.345098
v 0.328379 -0.243926 -0.357211
v 0.32643 -0.25367 -0.33736
v 0.317337 -0.257314 -0.357211
v 0.327663 -0.255165 -0.329297
v 0.328959 -0.256712 -0.320872
v 0.330797 -0.258964 -0.308759
v 0.332265 -0.262624 -0.294042
v 0.312217 -0.235195 -0.428081
v 0.332265 -0.234405 -0.368926
v 0.300324 -0.249649 -0.428081
v 0.332265 -0.236192 -0.364406
v 0.330205 -0.246177 -0.345098
v 0.332265 -0.248841 -0.331068
v 0.332265 -0.25245 -0.321414
v 0.332265 -0.257159 -0.308759
f 1 2 5
f 1 5 11
f 1 11 16
f 1 16 26
f 1 26 49
f 1 49 71
f 1 71 80
f 1 80 79
f 1 79 78
f 1 78 76
f 1 76 101
f 1 101 85
f 1 85 103
f 1 103 83
f 1 83 53
f 1 53 29
f 1 29 18
f 1 18 12
f 1 12 7
f 1 7 3
f 1 3 9
f 1 9 14
f 1 14 19
f 1 19 30
f 1 30 35
f 1 35 57
f 1 57 56
f 1 56 55
f 1 55 32
f 1 32 45
f 1 45 67
f 1 67 66
f 1 66 69
f 1 69 68
f 1 68 46
f 1 46 24
f 1 24 15
f 1 15 10
f 1 10 4
f 1 4 6
f 1 6 2
f 2 6 5
f 3 7 8
f 3 8 9
f 4 5 6
f 4 10 5
f 5 10 15
f 5 15 25
f 5 25 48
f 5 48 70
f 5 70 100
f 5 100 108
f 5 108 107
f 5 107 106
f 5 106 93
f 5 93 104
f 5 104 102
f 5 102 82
f 5 82 81
f 5 81 51
f 5 51 28
f 5 28 17
f 5 17 11
f 7 12 8
f 8 13 9
f 8 12 13
f 9 13 14
f 11 17 16
f 12 18 13
f 13 19 14
f 13 18 20
f 13 20 21
f 13 21 22
f 13 22 23
f 13 23 19
f 15 24 25
f 16 17 27
f 16 27 26
f 17 28 27
f 18 29 20
f 19 23 30
f 20 29 31
f 20 31 23
f 20 23 21
f 21 23 22
f 23 32 33
f 23 33 34
f 23 34 35
f 23 35 30
f 23 31 36
f 23 36 37
f 23 37 38
f 23 38 39
f 23 39 40
f 23 40 41
f 23 41 42
f 23 42 43
f 23 43 44
f 23 44 45
f 23 45 32
f 24 46 47
f 24 47 48
f 24 48 25
f 26 27 50
f 26 50 49
f 27 28 51
f 27 51 52
f 27 52 50
f 29 53 31
f 31 53 54
f 31 54 36
f 32 55 33
f 33 56 57
f 33 57 34
f 33 55 56
f 34 57 35
f 36 54 58
f 36 58 37
f 37 58 38
f 38 58 39
f 39 58 59
f 39 59 60
f 39 60 61
f 39 61 62
f 39 62 42
f 39 42 41
f 39 41 40
f 42 62 43
f 43 62 63
f 43 63 64
f 43 64 65
f 43 65 48
f 43 48 47
f 43 47 44
f 44 47 66
f 44 66 67
f 44 67 45
f 46 68 47
f 47 68 69
f 47 69 66
f 48 65 70
f 49 50 71
f 50 52 72
f 50 72 73
f 50 73 74
f 50 74 75
f 50 75 76
f 50 76 77
f 50 77 78
f 50 78 79
f 50 79 80
f 50 80 71
f 51 81 52
f 52 81 82
f 52 82 72
f 53 83 84
f 53 84 54
f 54 84 85
f 54 85 86
f 54 86 87
f 54 87 88
f 54 88 58
f 58 88 89
f 58 89 59
f 59 89 60
f 60 90 61
f 60 89 91
f 60 91 73
f 60 73 72
f 60 72 90
f 61 90 92
f 61 92 93
f 61 93 94
f 61 94 95
f 61 95 62
f 62 95 96
f 62 96 63
f 63 96 95
f 63 95 97
f 63 97 64
f 64 97 65
f 65 97 98
f 65 98 99
f 65 99 70
f 70 99 100
f 72 82 90
f 73 91 74
f 74 91 87
f 74 87 86
f 74 86 85
f 74 85 75
f 75 85 101
f 75 101 76
f 76 78 77
f 82 102 90
f 83 103 84
f 84 103 85
f 87 91 89
f 87 89 88
f 90 102 104
f 90 104 92
f 92 104 93
f 93 105 94
f 93 106 105
f 94 105 107
f 94 107 108
f 94 108 99
f 94 99 98
f 94 98 97
f 94 97 95
f 99 108 100
f 105 106 107
