v 0.332489 -0.442159 0.26032
v 0.339924 -0.436672 0.26032
v 0.332265 -0.382245 0.26032
v 0.332265 -0.404756 0.127392
v 0.345116 -0.43268 0.26032
v 0.47221 -0.191947 0.26032
v 0.332265 -0.191947 -0.276537
v 0.332265 -0.403164 0.121821
v 0.353373 -0.425772 0.26032
v 0.336655 -0.397554 0.114981
v 0.349954 -0.386483 0.114981
v 0.523092 -0.191947 0.26032
v 0.332452 -0.191947 -0.460097
v 0.332265 -0.199344 -0.446557
v 0.332265 -0.40118 0.114981
v 0.372556 -0.409238 0.26032
v 0.333367 -0.396648 0.102852
v 0.341754 -0.389716 0.102852
v 0.347806 -0.38467 0.102852
v 0.354774 -0.378595 0.102852
v 0.379412 -0.403188 0.26032
v 0.520197 -0.200397 0.26032
v 0.507925 -0.191947 0.196007
v 0.337869 -0.191947 -0.443596
v 0.339475 -0.192926 -0.436826
v 0.340129 -0.195449 -0.429774
v 0.336188 -0.201499 -0.429774
v 0.339083 -0.205884 -0.411651
v 0.332265 -0.201916 -0.441198
v 0.332265 -0.392533 0.0863507
v 0.332265 -0.390181 0.0785936
v 0.337309 -0.386017 0.0785936
v 0.3527 -0.376734 0.0907933
v 0.351486 -0.375632 0.083812
v 0.360863 -0.373035 0.102852
v 0.362357 -0.374456 0.111878
v 0.385482 -0.397579 0.26032
v 0.515097 -0.211934 0.26032
v 0.495391 -0.203459 0.163357
v 0.497016 -0.195082 0.155036
v 0.496175 -0.192142 0.146785
v 0.470753 -0.191947 0.0422766
v 0.350179 -0.191947 -0.404176
v 0.352233 -0.195523 -0.390918
v 0.342034 -0.198389 -0.417715
v 0.332452 -0.212228 -0.418844
v 0.332265 -0.207672 -0.429069
v 0.348497 -0.199662 -0.394374
v 0.349824 -0.203826 -0.381398
v 0.341904 -0.210048 -0.393527
v 0.337775 -0.216098 -0.393527
v 0.332265 -0.386483 0.066535
v 0.332265 -0.380188 0.0462257
v 0.332265 -0.378963 0.0422766
v 0.33899 -0.375264 0.0486233
v 0.340447 -0.376538 0.0566624
v 0.351729 -0.363752 0.0467898
v 0.345789 -0.367524 0.0425587
v 0.363852 -0.363801 0.0830363
v 0.375844 -0.363727 0.119565
v 0.370819 -0.370929 0.12704
v 0.391628 -0.391529 0.26032
v 0.510241 -0.222638 0.26032
v 0.496231 -0.205394 0.170409
v 0.484239 -0.205614 0.121539
v 0.485043 -0.195327 0.106096
v 0.483997 -0.192216 0.0965758
v 0.465616 -0.191947 0.0216147
v 0.472994 -0.195425 0.0574381
v 0.351598 -0.192706 -0.398182
v 0.353615 -0.191947 -0.392681
v 0.35694 -0.191947 -0.381046
v 0.360247 -0.191947 -0.36934
v 0.362638 -0.192044 -0.360595
v 0.353615 -0.197776 -0.381398
v 0.350888 -0.205443 -0.374346
v 0.332265 -0.21431 -0.414894
v 0.343435 -0.212938 -0.382174
v 0.33884 -0.217666 -0.386687
v 0.336094 -0.223716 -0.382174
v 0.332265 -0.375142 0.030218
v 0.342651 -0.366299 0.030218
v 0.350272 -0.362429 0.0386802
v 0.352887 -0.352901 0.0180888
v 0.362507 -0.362454 0.0749267
v 0.374574 -0.362356 0.111526
v 0.378739 -0.354811 0.102852
v 0.381074 -0.356795 0.11618
v 0.383054 -0.358314 0.12704
v 0.409784 -0.373403 0.26032
v 0.397698 -0.385552 0.26032
v 0.504618 -0.234543 0.26032
v 0.472303 -0.218131 0.0965053
v 0.485229 -0.207721 0.129578
v 0.472173 -0.205712 0.0728816
v 0.471332 -0.215976 0.0884662
v 0.460274 -0.218254 0.0478476
v 0.464776 -0.211934 0.0544058
v 0.46726 -0.199834 0.0422766
v 0.463468 -0.200936 0.0291602
v 0.462048 -0.197899 0.0180888
v 0.461619 -0.193661 0.0089214
v 0.459247 -0.191947 -0.00292571
v 0.46005 -0.205712 0.0244355
v 0.459209 -0.216025 0.039738
v 0.456575 -0.223006 0.0431934
v 0.458032 -0.226019 0.0544058
v 0.448992 -0.231824 0.0327566
v 0.450337 -0.234151 0.0422766
v 0.437298 -0.256563 0.0422766
v 0.448954 -0.243826 0.057156
v 0.446787 -0.25213 0.066535
v 0.340073 -0.219454 -0.378648
v 0.433507 -0.262613 0.0422766
v 0.434889 -0.264818 0.0520082
v 0.425736 -0.269325 0.030218
v 0.421683 -0.275375 0.030218
v 0.332265 -0.224769 -0.391976
v 0.337309 -0.227513 -0.369199
v 0.332265 -0.229227 -0.381751
v 0.332265 -0.3711 0.0178067
v 0.340353 -0.364315 0.0180888
v 0.348703 -0.361008 0.030218
v 0.351635 -0.351602 0.0107549
v 0.358939 -0.346483 0.0180888
v 0.360956 -0.348639 0.030218
v 0.363721 -0.351578 0.0470719
v 0.375713 -0.35148 0.0837415
v 0.38735 -0.32674 0.0489054
v 0.384791 -0.348124 0.102852
v 0.388527 -0.352264 0.12704
v 0.415294 -0.367352 0.26032
v 0.498286 -0.247623 0.26032
v 0.462198 -0.22423 0.0673107
v 0.461077 -0.219968 0.0544058
v 0.459303 -0.228394 0.0638553
v 0.451756 -0.237164 0.0536301
v 0.438457 -0.260605 0.055393
v 0.44774 -0.25382 0.0736573
v 0.441725 -0.26036 0.066535
v 0.450206 -0.24608 0.066535
v 0.436028 -0.266582 0.0600473
v 0.426913 -0.27295 0.0429113
v 0.42299 -0.277286 0.0393148
v 0.412548 -0.279637 0.0093445
v 0.338485 -0.229227 -0.361159
v 0.332265 -0.234445 -0.368846
v 0.332265 -0.355007 -0.0304984
v 0.339102 -0.351186 -0.0243633
v 0.350179 -0.350157 0.00264526
v 0.332265 -0.28772 -0.224565
v 0.332265 -0.284904 -0.232604
v 0.332265 -0.279392 -0.248189
v 0.376684 -0.328284 0.0203454
v 0.387163 -0.314469 0.013082
v 0.378309 -0.330023 0.030218
v 0.384361 -0.323507 0.030218
v 0.388434 -0.315914 0.0211211
v 0.40037 -0.327794 0.0943192
v 0.400519 -0.340016 0.130284
v 0.421346 -0.3602 0.26032
v 0.401864 -0.341511 0.139169
v 0.409691 -0.336636 0.151298
v 0.495634 -0.252718 0.26032
v 0.460311 -0.230379 0.0718944
v 0.456519 -0.235131 0.0673107
v 0.447404 -0.265406 0.099185
v 0.445162 -0.259919 0.0780295
v 0.492477 -0.258547 0.26032
v 0.486219 -0.269545 0.26032
v 0.476525 -0.286006 0.26032
v 0.438587 -0.270329 0.0785936
v 0.424111 -0.278927 0.0473539
v 0.413856 -0.281376 0.0180888
v 0.423551 -0.290243 0.0735868
v 0.403265 -0.295461 0.0180888
v 0.332265 -0.236233 -0.364333
v 0.398688 -0.301511 0.0180888
v 0.392169 -0.30979 0.0175246
v 0.332265 -0.350941 -0.0424866
v 0.332265 -0.342662 -0.0666744
v 0.332265 -0.338498 -0.078733
v 0.332265 -0.321719 -0.127179
v 0.338934 -0.33889 -0.0602572
v 0.332265 -0.309839 -0.16131
v 0.332265 -0.274959 -0.260459
v 0.332265 -0.272509 -0.267229
v 0.332265 -0.266165 -0.284506
v 0.332265 -0.261291 -0.297693
v 0.332265 -0.2572 -0.308694
v 0.332265 -0.252473 -0.321387
v 0.332265 -0.24363 -0.345011
v 0.397642 -0.312313 0.0422766
v 0.398913 -0.313954 0.0508094
v 0.400089 -0.315424 0.0588485
v 0.399155 -0.326373 0.0862801
v 0.411988 -0.327255 0.132258
v 0.413015 -0.328479 0.139169
v 0.407916 -0.33453 0.139169
v 0.433918 -0.345209 0.26032
v 0.469744 -0.296514 0.26032
v 0.447964 -0.278437 0.133386
v 0.437765 -0.281254 0.102852
v 0.432797 -0.298204 0.12704
v 0.410718 -0.289313 0.0276088
v 0.415948 -0.297518 0.0662529
v 0.426782 -0.306679 0.12704
v 0.425045 -0.304377 0.114981
v 0.424055 -0.303054 0.108141
v 0.400799 -0.304303 0.032263
v 0.396578 -0.308541 0.0290192
v 0.413669 -0.305308 0.0785936
v 0.420412 -0.310451 0.114981
v 0.422187 -0.312754 0.12704
v 0.423345 -0.314224 0.134867
v 0.424522 -0.315693 0.142906
v 0.443388 -0.333476 0.26032
v 0.462796 -0.306679 0.26032
v 0.436589 -0.303691 0.154824
v 0.447404 -0.289729 0.159619
v 0.439764 -0.297543 0.151016
v 0.435505 -0.302123 0.146785
v 0.436925 -0.292154 0.12704
v 0.432274 -0.308173 0.151016
v 0.43332 -0.311358 0.163357
v 0.458593 -0.312754 0.26032
f 1 2 5
f 1 5 9
f 1 9 16
f 1 16 21
f 1 21 37
f 1 37 62
f 1 62 91
f 1 91 90
f 1 90 132
f 1 132 161
f 1 161 200
f 1 200 217
f 1 217 226
f 1 226 218
f 1 218 201
f 1 201 171
f 1 171 170
f 1 170 169
f 1 169 164
f 1 164 133
f 1 133 92
f 1 92 63
f 1 63 38
f 1 38 22
f 1 22 12
f 1 12 6
f 1 6 3
f 1 3 4
f 1 4 2
f 2 4 5
f 3 6 7
f 3 7 14
f 3 14 29
f 3 29 47
f 3 47 77
f 3 77 118
f 3 118 120
f 3 120 147
f 3 147 177
f 3 177 192
f 3 192 191
f 3 191 190
f 3 190 189
f 3 189 188
f 3 188 187
f 3 187 186
f 3 186 153
f 3 153 152
f 3 152 151
f 3 151 185
f 3 185 183
f 3 183 182
f 3 182 181
f 3 181 180
f 3 180 148
f 3 148 121
f 3 121 81
f 3 81 54
f 3 54 53
f 3 53 52
f 3 52 31
f 3 31 30
f 3 30 15
f 3 15 8
f 3 8 4
f 4 8 5
f 5 8 10
f 5 10 11
f 5 11 9
f 6 12 23
f 6 23 42
f 6 42 68
f 6 68 103
f 6 103 73
f 6 73 72
f 6 72 71
f 6 71 43
f 6 43 24
f 6 24 13
f 6 13 7
f 7 13 14
f 8 15 10
f 9 11 16
f 10 15 17
f 10 17 18
f 10 18 11
f 11 18 19
f 11 19 20
f 11 20 21
f 11 21 16
f 12 22 23
f 13 24 14
f 14 24 25
f 14 25 26
f 14 26 27
f 14 27 28
f 14 28 29
f 15 30 17
f 17 30 31
f 17 31 32
f 17 32 18
f 18 32 19
f 19 33 20
f 19 32 34
f 19 34 33
f 20 33 35
f 20 35 36
f 20 36 21
f 21 36 37
f 22 38 39
f 22 39 40
f 22 40 41
f 22 41 23
f 23 41 42
f 24 43 25
f 25 43 44
f 25 44 26
f 26 45 28
f 26 28 27
f 26 44 45
f 28 46 47
f 28 47 29
f 28 45 48
f 28 48 49
f 28 49 50
f 28 50 51
f 28 51 46
f 31 52 32
f 32 52 53
f 32 53 54
f 32 54 55
f 32 55 56
f 32 56 34
f 33 34 57
f 33 57 35
f 34 56 55
f 34 55 58
f 34 58 57
f 35 59 36
f 35 57 59
f 36 59 60
f 36 60 61
f 36 61 37
f 37 61 60
f 37 60 62
f 38 63 64
f 38 64 39
f 39 64 65
f 39 65 66
f 39 66 40
f 40 66 67
f 40 67 41
f 41 67 42
f 42 67 66
f 42 66 69
f 42 69 68
f 43 70 44
f 43 71 70
f 44 48 45
f 44 70 71
f 44 71 72
f 44 72 73
f 44 73 74
f 44 74 75
f 44 75 76
f 44 76 49
f 44 49 48
f 46 77 47
f 46 51 77
f 49 76 78
f 49 78 50
f 50 78 79
f 50 79 51
f 51 79 80
f 51 80 77
f 54 81 55
f 55 81 82
f 55 82 58
f 57 58 83
f 57 83 84
f 57 84 85
f 57 85 59
f 58 82 83
f 59 85 86
f 59 86 60
f 60 86 87
f 60 87 88
f 60 88 89
f 60 89 90
f 60 90 91
f 60 91 62
f 63 92 93
f 63 93 94
f 63 94 65
f 63 65 64
f 65 95 69
f 65 69 66
f 65 94 93
f 65 93 96
f 65 96 97
f 65 97 98
f 65 98 95
f 68 69 99
f 68 99 100
f 68 100 101
f 68 101 102
f 68 102 103
f 69 95 99
f 73 103 74
f 74 103 104
f 74 104 105
f 74 105 97
f 74 97 106
f 74 106 107
f 74 107 108
f 74 108 109
f 74 109 75
f 75 110 76
f 75 109 111
f 75 111 112
f 75 112 110
f 76 113 78
f 76 110 114
f 76 114 115
f 76 115 116
f 76 116 117
f 76 117 113
f 77 80 118
f 78 113 79
f 79 113 80
f 80 113 119
f 80 119 120
f 80 120 118
f 81 121 122
f 81 122 82
f 82 122 83
f 83 122 123
f 83 123 124
f 83 124 84
f 84 124 125
f 84 125 126
f 84 126 127
f 84 127 85
f 85 127 86
f 86 127 128
f 86 128 129
f 86 129 87
f 87 130 88
f 87 129 130
f 88 130 131
f 88 131 89
f 89 131 132
f 89 132 90
f 92 133 134
f 92 134 93
f 93 134 135
f 93 135 97
f 93 97 96
f 95 98 99
f 97 99 98
f 97 135 136
f 97 136 107
f 97 107 106
f 97 105 104
f 97 104 101
f 97 101 100
f 97 100 99
f 101 104 102
f 102 104 103
f 107 109 108
f 107 136 109
f 109 136 137
f 109 137 111
f 110 138 115
f 110 115 114
f 110 112 139
f 110 139 140
f 110 140 138
f 111 141 112
f 111 137 141
f 112 141 139
f 113 117 119
f 115 138 140
f 115 140 142
f 115 142 116
f 116 142 143
f 116 143 144
f 116 144 117
f 117 144 145
f 117 145 146
f 117 146 119
f 119 146 120
f 120 146 147
f 121 148 122
f 122 148 149
f 122 149 123
f 123 149 124
f 124 149 150
f 124 150 151
f 124 151 152
f 124 152 153
f 124 153 125
f 125 154 126
f 125 153 155
f 125 155 154
f 126 154 156
f 126 156 127
f 127 156 128
f 128 156 157
f 128 157 129
f 129 157 158
f 129 158 159
f 129 159 160
f 129 160 130
f 130 160 131
f 131 160 132
f 132 160 162
f 132 162 163
f 132 163 161
f 133 164 165
f 133 165 134
f 134 165 136
f 134 136 135
f 136 165 166
f 136 166 137
f 137 166 141
f 139 167 168
f 139 168 140
f 139 141 166
f 139 166 169
f 139 169 170
f 139 170 171
f 139 171 167
f 140 168 142
f 142 168 167
f 142 167 172
f 142 172 173
f 142 173 144
f 142 144 143
f 144 174 145
f 144 173 175
f 144 175 174
f 145 147 146
f 145 174 176
f 145 176 147
f 147 176 178
f 147 178 179
f 147 179 177
f 148 180 149
f 149 180 181
f 149 181 182
f 149 182 183
f 149 183 184
f 149 184 150
f 150 184 151
f 151 184 185
f 153 186 155
f 154 155 156
f 155 186 187
f 155 187 188
f 155 188 189
f 155 189 190
f 155 190 191
f 155 191 192
f 155 192 177
f 155 177 179
f 155 179 193
f 155 193 194
f 155 194 158
f 155 158 157
f 155 157 156
f 158 194 195
f 158 195 196
f 158 196 159
f 159 196 195
f 159 195 197
f 159 197 198
f 159 198 199
f 159 199 160
f 160 199 162
f 161 163 200
f 162 199 163
f 163 199 198
f 163 198 200
f 164 169 165
f 165 169 166
f 167 171 201
f 167 201 202
f 167 202 172
f 172 202 203
f 172 203 204
f 172 204 173
f 173 204 175
f 174 205 176
f 174 175 206
f 174 206 205
f 175 204 207
f 175 207 208
f 175 208 209
f 175 209 206
f 176 205 210
f 176 210 178
f 178 210 211
f 178 211 179
f 179 211 193
f 183 185 184
f 193 211 210
f 193 210 194
f 194 210 212
f 194 212 213
f 194 213 214
f 194 214 215
f 194 215 216
f 194 216 195
f 195 216 197
f 197 216 198
f 198 216 200
f 200 216 217
f 201 218 219
f 201 219 220
f 201 220 202
f 202 220 221
f 202 221 222
f 202 222 223
f 202 223 203
f 203 223 204
f 204 223 222
f 204 222 207
f 205 206 210
f 206 209 212
f 206 212 210
f 207 222 219
f 207 219 224
f 207 224 216
f 207 216 215
f 207 215 208
f 208 215 214
f 208 214 209
f 209 214 213
f 209 213 212
f 216 224 225
f 216 225 217
f 217 225 226
f 218 226 219
f 219 226 225
f 219 225 224
f 219 222 220
f 220 222 221
