v -0.0876617 -0.339774 -0.345543
v -0.191971 -0.339785 -0.183047
v -0.0880088 -0.339785 -0.345103
v -0.0876617 -0.339785 -0.346478
v -0.0876617 -0.301758 -0.463957
v -0.191971 -0.339785 -0.360338
v -0.0914092 -0.300005 -0.463957
v -0.191971 -0.285518 -0.359926
v -0.0876617 -0.339785 -0.463957
v -0.191971 -0.339604 -0.360943
v -0.191756 -0.339785 -0.360751
v -0.126087 -0.285518 -0.463957
v -0.126118 -0.285518 -0.463902
v -0.191971 -0.285518 -0.463957
v -0.123401 -0.339785 -0.463957
v -0.191971 -0.338988 -0.363006
v -0.182924 -0.339785 -0.377305
v -0.191971 -0.303671 -0.463957
v -0.124004 -0.339785 -0.463297
v -0.124668 -0.339264 -0.463957
v -0.191971 -0.329798 -0.393228
v -0.183444 -0.327997 -0.415173
v -0.180677 -0.338515 -0.385693
v -0.182832 -0.339737 -0.377635
v -0.179156 -0.339785 -0.38429
v -0.190327 -0.304802 -0.463957
v -0.191971 -0.304144 -0.462857
v -0.125127 -0.339785 -0.462032
v -0.137105 -0.333994 -0.463957
v -0.131673 -0.338409 -0.458292
v -0.191971 -0.328416 -0.397765
v -0.191971 -0.327476 -0.400845
v -0.1813 -0.326764 -0.42323
v -0.173978 -0.339785 -0.39353
v -0.187723 -0.306545 -0.463957
v -0.191971 -0.307682 -0.45403
v -0.129855 -0.339785 -0.456532
v -0.139239 -0.33307 -0.463957
v -0.139127 -0.336683 -0.454195
v -0.131785 -0.339785 -0.454195
v -0.135114 -0.339785 -0.450152
v -0.191971 -0.325866 -0.40585
v -0.16779 -0.338191 -0.408985
v -0.170313 -0.339472 -0.4009
v -0.170884 -0.339785 -0.398893
v -0.18757 -0.324267 -0.41861
v -0.191971 -0.321452 -0.418253
v -0.18854 -0.319231 -0.430435
v -0.185027 -0.317127 -0.441957
v -0.182709 -0.31555 -0.449822
v -0.179156 -0.325532 -0.429857
v -0.170578 -0.327497 -0.437447
v -0.1731 -0.328783 -0.429857
v -0.186161 -0.307576 -0.463957
v -0.18712 -0.31096 -0.453947
v -0.191971 -0.311682 -0.443937
v -0.146418 -0.329872 -0.463957
v -0.140822 -0.339785 -0.443167
v -0.143058 -0.338101 -0.445285
v -0.163634 -0.337166 -0.418665
v -0.160234 -0.339785 -0.415723
v -0.165748 -0.339785 -0.407143
v -0.16923 -0.339785 -0.401615
v -0.169935 -0.339785 -0.400488
v -0.191971 -0.317595 -0.42862
v -0.191971 -0.315672 -0.433735
v -0.191971 -0.314827 -0.435907
v -0.191971 -0.312447 -0.441985
v -0.180167 -0.313945 -0.457907
v -0.175 -0.323359 -0.441682
v -0.167749 -0.325989 -0.445505
v -0.156834 -0.326647 -0.459337
v -0.159672 -0.328114 -0.451252
v -0.163614 -0.329495 -0.441682
v -0.163471 -0.333591 -0.429857
v -0.157099 -0.338903 -0.42334
v -0.17742 -0.313164 -0.463957
v -0.14891 -0.32874 -0.463957
v -0.144968 -0.339785 -0.437997
v -0.146244 -0.339504 -0.437227
v -0.152218 -0.33051 -0.4548
v -0.156006 -0.339785 -0.42224
v -0.17212 -0.316309 -0.463957
v -0.175908 -0.318009 -0.453947
v -0.163614 -0.324666 -0.4548
v -0.161337 -0.322334 -0.463957
v -0.155026 -0.325718 -0.463957
v -0.150952 -0.327758 -0.463957
v -0.150717 -0.335859 -0.441545
v -0.154863 -0.337809 -0.429857
v -0.153137 -0.339785 -0.426447
v -0.150788 -0.339785 -0.429857
v -0.145887 -0.339785 -0.436842
v -0.146826 -0.339785 -0.43555
v -0.164318 -0.320676 -0.463957
f 1 2 3
f 1 3 4
f 1 4 9
f 1 9 5
f 1 5 2
f 2 6 11
f 2 11 17
f 2 17 25
f 2 25 34
f 2 34 45
f 2 45 64
f 2 64 63
f 2 63 62
f 2 62 61
f 2 61 82
f 2 82 91
f 2 91 92
f 2 92 94
f 2 94 93
f 2 93 79
f 2 79 58
f 2 58 41
f 2 41 40
f 2 40 37
f 2 37 28
f 2 28 19
f 2 19 15
f 2 15 9
f 2 9 4
f 2 4 3
f 2 5 7
f 2 7 8
f 2 8 14
f 2 14 18
f 2 18 27
f 2 27 36
f 2 36 56
f 2 56 68
f 2 68 67
f 2 67 66
f 2 66 65
f 2 65 47
f 2 47 42
f 2 42 32
f 2 32 31
f 2 31 21
f 2 21 16
f 2 16 10
f 2 10 6
f 5 9 15
f 5 15 20
f 5 20 29
f 5 29 38
f 5 38 57
f 5 57 78
f 5 78 88
f 5 88 87
f 5 87 86
f 5 86 95
f 5 95 83
f 5 83 77
f 5 77 54
f 5 54 35
f 5 35 26
f 5 26 18
f 5 18 14
f 5 14 12
f 5 12 7
f 6 10 11
f 7 12 13
f 7 13 8
f 8 13 12
f 8 12 14
f 10 16 11
f 11 16 17
f 15 19 20
f 16 21 22
f 16 22 23
f 16 23 24
f 16 24 17
f 17 24 25
f 18 26 27
f 19 28 20
f 20 28 30
f 20 30 29
f 21 31 22
f 22 31 32
f 22 32 33
f 22 33 23
f 23 25 24
f 23 33 25
f 25 33 34
f 26 35 27
f 27 35 36
f 28 37 30
f 29 30 39
f 29 39 38
f 30 37 40
f 30 40 41
f 30 41 39
f 32 42 33
f 33 43 44
f 33 44 45
f 33 45 34
f 33 42 46
f 33 46 47
f 33 47 48
f 33 48 49
f 33 49 50
f 33 50 51
f 33 51 52
f 33 52 53
f 33 53 43
f 35 54 50
f 35 50 55
f 35 55 36
f 36 55 49
f 36 49 56
f 38 39 57
f 39 41 58
f 39 58 59
f 39 59 57
f 42 47 46
f 43 53 60
f 43 60 61
f 43 61 62
f 43 62 44
f 44 63 64
f 44 64 45
f 44 62 63
f 47 65 48
f 48 66 49
f 48 65 66
f 49 66 67
f 49 67 68
f 49 68 56
f 49 55 50
f 50 54 69
f 50 69 51
f 51 69 70
f 51 70 52
f 52 70 71
f 52 71 72
f 52 72 73
f 52 73 74
f 52 74 75
f 52 75 53
f 53 75 76
f 53 76 60
f 54 77 69
f 57 59 78
f 58 79 80
f 58 80 59
f 59 81 78
f 59 80 81
f 60 76 61
f 61 76 82
f 69 77 83
f 69 83 84
f 69 84 70
f 70 84 83
f 70 83 71
f 71 85 72
f 71 83 85
f 72 86 87
f 72 87 88
f 72 88 78
f 72 78 81
f 72 81 73
f 72 85 86
f 73 81 89
f 73 89 74
f 74 89 90
f 74 90 75
f 75 90 76
f 76 91 82
f 76 90 92
f 76 92 91
f 79 93 80
f 80 93 94
f 80 94 92
f 80 92 90
f 80 90 89
f 80 89 81
f 83 95 85
f 85 95 86
