v 0.431185 -0.425464 0.454069
v 0.433058 -0.42455 0.466191
v 0.433232 -0.425144 0.490384
v 0.433072 -0.424207 0.503469
v 0.43133 -0.413623 0.516476
v 0.431185 -0.392225 0.521756
v 0.431185 -0.423384 0.425844
v 0.432608 -0.423201 0.441947
v 0.436092 -0.41184 0.337086
v 0.440635 -0.416686 0.466191
v 0.44724 -0.41088 0.490384
v 0.447037 -0.410628 0.50248
v 0.440984 -0.416778 0.50248
v 0.439024 -0.414697 0.511195
v 0.444729 -0.3965 0.519181
v 0.433929 -0.40169 0.520976
v 0.442 -0.381412 0.522147
v 0.466214 -0.345087 0.523343
v 0.454107 -0.357203 0.522745
v 0.431185 -0.378326 0.521444
v 0.431185 -0.416297 0.332768
v 0.433348 -0.413303 0.320931
v 0.44094 -0.405164 0.320931
v 0.450971 -0.402787 0.42985
v 0.451842 -0.403724 0.454069
v 0.448619 -0.406285 0.441947
v 0.449476 -0.407199 0.466191
v 0.452655 -0.404501 0.478288
v 0.452974 -0.404821 0.490384
v 0.452742 -0.40457 0.50248
v 0.450942 -0.402604 0.511117
v 0.457039 -0.384224 0.519025
v 0.448968 -0.388453 0.521028
v 0.441216 -0.392888 0.521314
v 0.454107 -0.369296 0.522459
v 0.478335 -0.332994 0.523707
v 0.502549 -0.296692 0.524644
v 0.526733 -0.248273 0.525502
v 0.53884 -0.224041 0.525919
v 0.549902 -0.1959 0.526075
v 0.533832 -0.191945 0.522121
v 0.431185 -0.369296 0.520144
v 0.431185 -0.269305 0.260346
v 0.431882 -0.408822 0.296687
v 0.432971 -0.412183 0.308809
v 0.44033 -0.40441 0.308809
v 0.449694 -0.395357 0.320931
v 0.458897 -0.386053 0.333028
v 0.448765 -0.400364 0.369343
v 0.446384 -0.397712 0.308809
v 0.456139 -0.39506 0.405632
v 0.456575 -0.39554 0.417728
v 0.457896 -0.396958 0.454069
v 0.458316 -0.397415 0.466191
v 0.461626 -0.395243 0.490384
v 0.461394 -0.39506 0.50248
v 0.462468 -0.390282 0.510961
v 0.468986 -0.371697 0.518557
v 0.460915 -0.376154 0.520976
v 0.465459 -0.368313 0.521418
v 0.453453 -0.380681 0.521444
v 0.466214 -0.357203 0.522693
v 0.490442 -0.320878 0.523915
v 0.514626 -0.284576 0.524566
v 0.526733 -0.260366 0.525164
v 0.502549 -0.308785 0.523889
v 0.53884 -0.236157 0.525554
v 0.550947 -0.211925 0.525476
v 0.562386 -0.195763 0.524072
v 0.571793 -0.192814 0.518895
v 0.472267 -0.191945 0.260346
v 0.519997 -0.191968 0.50248
v 0.523481 -0.192174 0.511689
v 0.431185 -0.357455 0.514212
v 0.57924 -0.191945 0.50248
v 0.432579 -0.346825 0.260346
v 0.431185 -0.347922 0.504665
v 0.438255 -0.402055 0.296687
v 0.433769 -0.401667 0.289533
v 0.461931 -0.377343 0.299314
v 0.463847 -0.379492 0.320931
v 0.459783 -0.387036 0.357246
v 0.463223 -0.378806 0.308809
v 0.460349 -0.387676 0.372907
v 0.461089 -0.388522 0.393535
v 0.46151 -0.389002 0.405632
v 0.461278 -0.394854 0.478288
v 0.461902 -0.389482 0.417728
v 0.467564 -0.381915 0.405632
v 0.463078 -0.3909 0.454069
v 0.472848 -0.382098 0.490384
v 0.472572 -0.381778 0.50248
v 0.473806 -0.377252 0.510492
v 0.483967 -0.350665 0.520534
v 0.473878 -0.360427 0.521132
v 0.479293 -0.346024 0.522355
v 0.526733 -0.27246 0.523863
v 0.53884 -0.248273 0.52428
v 0.486638 -0.342595 0.521522
v 0.502128 -0.320215 0.522095
v 0.510155 -0.31226 0.52147
v 0.560339 -0.211925 0.522745
v 0.558379 -0.221801 0.521652
v 0.570152 -0.201501 0.517334
v 0.57066 -0.20973 0.511481
v 0.523075 -0.191945 0.260346
v 0.576511 -0.199832 0.50248
v 0.572678 -0.211925 0.490384
v 0.576815 -0.199832 0.490384
v 0.579486 -0.191945 0.490384
v 0.443437 -0.333474 0.260346
v 0.462817 -0.366782 0.288649
v 0.450797 -0.381412 0.288727
v 0.442 -0.381412 0.28355
v 0.441042 -0.39234 0.288675
v 0.44891 -0.388453 0.293643
v 0.444308 -0.395426 0.296687
v 0.459739 -0.374829 0.29125
v 0.473356 -0.364587 0.300719
v 0.472252 -0.369388 0.320931
v 0.470714 -0.373434 0.34515
v 0.464254 -0.379995 0.333028
v 0.471715 -0.368725 0.308809
v 0.470133 -0.377778 0.39135
v 0.47247 -0.381664 0.478288
v 0.473472 -0.376795 0.42985
v 0.483808 -0.368679 0.490384
v 0.483488 -0.368222 0.50248
v 0.486348 -0.360632 0.510779
v 0.499181 -0.342733 0.511689
v 0.526312 -0.28341 0.522069
v 0.538724 -0.259292 0.522459
v 0.522001 -0.29308 0.52147
v 0.511984 -0.320215 0.514551
v 0.519504 -0.301172 0.519857
v 0.533498 -0.275523 0.521106
v 0.545735 -0.251405 0.52121
v 0.558394 -0.239861 0.511143
v 0.570007 -0.217366 0.502923
v 0.520201 -0.200381 0.260346
v 0.559395 -0.191945 0.288701
v 0.557552 -0.202895 0.290157
v 0.568468 -0.222669 0.490384
v 0.56918 -0.218143 0.464735
v 0.568947 -0.197592 0.320931
v 0.570747 -0.194162 0.333028
v 0.565231 -0.191945 0.296687
v 0.460741 -0.309676 0.260346
v 0.486435 -0.336583 0.288987
v 0.478132 -0.344584 0.287504
v 0.47398 -0.353477 0.289195
v 0.470888 -0.361547 0.292655
v 0.507339 -0.318981 0.307118
v 0.497352 -0.334206 0.308809
v 0.48237 -0.354483 0.307274
v 0.484345 -0.346413 0.29627
v 0.482908 -0.355214 0.320931
v 0.485767 -0.365136 0.478288
v 0.471512 -0.374417 0.369343
v 0.491487 -0.357203 0.478288
v 0.497773 -0.349293 0.491451
v 0.492648 -0.35606 0.501908
v 0.498048 -0.348448 0.503729
v 0.50985 -0.328925 0.51044
v 0.522901 -0.30643 0.511767
v 0.534688 -0.28341 0.5139
v 0.547143 -0.259292 0.514264
v 0.545706 -0.267933 0.509998
v 0.556797 -0.247793 0.50248
v 0.561979 -0.236157 0.50248
v 0.515091 -0.211948 0.260346
v 0.546505 -0.22795 0.289273
v 0.562502 -0.199832 0.296687
v 0.55716 -0.212382 0.295048
v 0.543834 -0.239929 0.29216
v 0.55687 -0.247976 0.490384
v 0.55655 -0.24729 0.478288
v 0.55912 -0.234694 0.417728
v 0.558147 -0.232614 0.381465
v 0.557828 -0.231882 0.369343
v 0.56137 -0.224041 0.369343
v 0.563692 -0.211925 0.320931
v 0.562429 -0.211925 0.308809
v 0.568526 -0.19414 0.30769
v 0.469785 -0.296509 0.260346
v 0.498513 -0.318043 0.289013
v 0.495943 -0.328742 0.294554
v 0.521638 -0.292325 0.300303
v 0.513799 -0.308785 0.308809
v 0.508021 -0.320009 0.320931
v 0.497889 -0.334937 0.320931
v 0.495798 -0.350162 0.466191
v 0.498281 -0.347648 0.478288
v 0.508762 -0.333268 0.50248
v 0.510968 -0.330342 0.490384
v 0.521885 -0.312945 0.503573
v 0.532685 -0.293468 0.50594
v 0.544792 -0.272299 0.50248
v 0.550903 -0.260366 0.50248
v 0.551121 -0.260366 0.490384
v 0.509996 -0.223127 0.260346
v 0.534122 -0.259932 0.291744
v 0.521899 -0.281055 0.289533
v 0.524077 -0.27246 0.287946
v 0.555636 -0.221778 0.29908
v 0.54424 -0.247084 0.2983
v 0.550482 -0.260366 0.478288
v 0.552892 -0.248273 0.417728
v 0.550961 -0.248273 0.381465
v 0.549669 -0.248273 0.357246
v 0.544327 -0.255634 0.321556
v 0.553139 -0.236157 0.320931
v 0.559091 -0.227584 0.357246
v 0.559395 -0.225207 0.344266
v 0.559483 -0.223538 0.333028
v 0.55777 -0.225778 0.320931
v 0.55851 -0.221435 0.308809
v 0.476564 -0.286016 0.260346
v 0.510271 -0.300212 0.289377
v 0.519736 -0.289148 0.292212
v 0.506555 -0.311757 0.294007
v 0.534253 -0.26903 0.299782
v 0.533687 -0.274151 0.308809
v 0.527953 -0.284576 0.308809
v 0.522639 -0.293925 0.308809
v 0.521493 -0.29804 0.320931
v 0.514931 -0.308785 0.320931
v 0.519068 -0.318523 0.490384
v 0.508529 -0.332925 0.478288
v 0.500095 -0.344104 0.466191
v 0.524977 -0.308785 0.490384
v 0.530595 -0.298749 0.490384
v 0.544951 -0.272597 0.490384
v 0.546258 -0.268962 0.478288
v 0.54559 -0.26775 0.454069
v 0.545256 -0.267133 0.441947
v 0.504653 -0.234534 0.260346
v 0.486246 -0.269511 0.260346
v 0.492256 -0.259018 0.260346
v 0.497003 -0.250171 0.260346
v 0.552094 -0.236157 0.308809
v 0.545837 -0.250422 0.308809
v 0.544922 -0.266447 0.429512
v 0.533919 -0.27582 0.319969
v 0.540959 -0.260366 0.308809
v 0.556884 -0.229802 0.336331
v 0.529956 -0.283433 0.321712
v 0.529709 -0.28501 0.333028
v 0.530362 -0.286267 0.357246
v 0.532366 -0.283844 0.369343
v 0.532932 -0.278792 0.329672
f 1 2 3
f 1 3 4
f 1 4 5
f 1 5 6
f 1 6 20
f 1 20 42
f 1 42 74
f 1 74 77
f 1 77 43
f 1 43 21
f 1 21 7
f 1 7 8
f 1 8 2
f 2 8 9
f 2 9 10
f 2 10 11
f 2 11 3
f 3 11 12
f 3 12 13
f 3 13 4
f 4 13 14
f 4 14 5
f 5 14 15
f 5 15 16
f 5 16 6
f 6 16 17
f 6 17 18
f 6 18 19
f 6 19 20
f 7 21 22
f 7 22 9
f 7 9 8
f 9 22 23
f 9 23 24
f 9 24 25
f 9 25 26
f 9 26 27
f 9 27 10
f 10 27 28
f 10 28 29
f 10 29 11
f 11 29 12
f 12 29 30
f 12 30 31
f 12 31 14
f 12 14 13
f 14 31 32
f 14 32 15
f 15 32 33
f 15 33 16
f 16 33 34
f 16 34 17
f 17 35 36
f 17 36 18
f 17 34 35
f 18 36 37
f 18 37 38
f 18 38 39
f 18 39 19
f 19 39 40
f 19 40 20
f 20 40 41
f 20 41 42
f 21 43 44
f 21 44 45
f 21 45 22
f 22 45 46
f 22 46 23
f 23 47 48
f 23 48 49
f 23 49 24
f 23 46 50
f 23 50 47
f 24 49 51
f 24 51 52
f 24 52 53
f 24 53 25
f 25 53 54
f 25 54 27
f 25 27 26
f 27 54 28
f 28 54 55
f 28 55 29
f 29 55 56
f 29 56 30
f 30 56 57
f 30 57 31
f 31 57 32
f 32 57 58
f 32 58 59
f 32 59 33
f 33 59 60
f 33 60 61
f 33 61 34
f 34 61 62
f 34 62 35
f 35 62 36
f 36 63 37
f 36 62 63
f 37 64 65
f 37 65 38
f 37 63 66
f 37 66 64
f 38 65 39
f 39 65 67
f 39 67 40
f 40 67 68
f 40 68 69
f 40 69 70
f 40 70 41
f 41 71 72
f 41 72 73
f 41 73 74
f 41 74 42
f 41 70 75
f 41 75 110
f 41 110 147
f 41 147 141
f 41 141 106
f 41 106 71
f 43 71 106
f 43 106 140
f 43 140 171
f 43 171 201
f 43 201 237
f 43 237 240
f 43 240 239
f 43 239 238
f 43 238 218
f 43 218 185
f 43 185 148
f 43 148 111
f 43 111 76
f 43 76 44
f 43 77 71
f 44 78 46
f 44 46 45
f 44 76 79
f 44 79 78
f 46 78 80
f 46 80 50
f 47 81 48
f 47 50 81
f 48 81 82
f 48 82 49
f 49 82 51
f 50 83 81
f 50 80 83
f 51 82 84
f 51 84 85
f 51 85 52
f 52 85 53
f 53 85 86
f 53 86 54
f 54 87 55
f 54 86 88
f 54 88 89
f 54 89 90
f 54 90 87
f 55 91 56
f 55 87 91
f 56 91 92
f 56 92 93
f 56 93 57
f 57 93 58
f 58 94 59
f 58 93 94
f 59 95 60
f 59 94 95
f 60 95 96
f 60 96 62
f 60 62 61
f 62 96 66
f 62 66 63
f 64 66 97
f 64 97 65
f 65 97 98
f 65 98 67
f 66 96 95
f 66 95 99
f 66 99 100
f 66 100 101
f 66 101 97
f 67 98 68
f 68 98 102
f 68 102 69
f 69 102 70
f 70 102 103
f 70 103 104
f 70 104 105
f 70 105 75
f 71 77 72
f 72 77 73
f 73 77 74
f 75 107 108
f 75 108 109
f 75 109 110
f 75 105 107
f 76 111 112
f 76 112 113
f 76 113 114
f 76 114 115
f 76 115 79
f 78 79 116
f 78 116 117
f 78 117 80
f 79 115 118
f 79 118 116
f 80 119 83
f 80 117 116
f 80 116 118
f 80 118 119
f 81 120 121
f 81 121 122
f 81 122 85
f 81 85 84
f 81 84 82
f 81 83 123
f 81 123 120
f 83 119 123
f 85 122 86
f 86 122 121
f 86 121 124
f 86 124 89
f 86 89 88
f 87 90 125
f 87 125 91
f 89 124 126
f 89 126 90
f 90 126 125
f 91 127 92
f 91 125 127
f 92 127 128
f 92 128 93
f 93 129 94
f 93 128 129
f 94 129 130
f 94 130 101
f 94 101 100
f 94 100 99
f 94 99 95
f 97 101 131
f 97 131 132
f 97 132 98
f 98 132 102
f 101 133 131
f 101 130 134
f 101 134 135
f 101 135 136
f 101 136 133
f 102 132 137
f 102 137 103
f 103 137 138
f 103 138 104
f 104 138 105
f 105 138 139
f 105 139 107
f 106 141 142
f 106 142 140
f 107 139 108
f 108 143 144
f 108 144 145
f 108 145 146
f 108 146 109
f 108 139 143
f 109 146 110
f 110 146 147
f 111 148 149
f 111 149 150
f 111 150 151
f 111 151 112
f 112 151 118
f 112 118 113
f 113 118 115
f 113 115 114
f 118 151 152
f 118 152 119
f 119 153 154
f 119 154 155
f 119 155 123
f 119 152 156
f 119 156 153
f 120 123 155
f 120 155 157
f 120 157 158
f 120 158 121
f 121 159 124
f 121 158 127
f 121 127 159
f 124 159 126
f 125 126 127
f 126 159 127
f 127 158 160
f 127 160 161
f 127 161 162
f 127 162 128
f 128 162 163
f 128 163 129
f 129 163 164
f 129 164 130
f 130 164 134
f 131 133 136
f 131 136 132
f 132 136 137
f 134 164 165
f 134 165 135
f 135 165 166
f 135 166 136
f 136 166 167
f 136 167 137
f 137 167 138
f 138 167 168
f 138 168 169
f 138 169 170
f 138 170 139
f 139 170 143
f 140 142 172
f 140 172 171
f 141 147 142
f 142 147 173
f 142 173 174
f 142 174 175
f 142 175 172
f 143 176 177
f 143 177 178
f 143 178 144
f 143 170 169
f 143 169 176
f 144 178 179
f 144 179 180
f 144 180 181
f 144 181 182
f 144 182 145
f 145 182 183
f 145 183 184
f 145 184 146
f 146 184 147
f 147 184 173
f 148 185 149
f 149 151 150
f 149 185 186
f 149 186 187
f 149 187 156
f 149 156 152
f 149 152 151
f 153 156 187
f 153 187 188
f 153 188 189
f 153 189 190
f 153 190 154
f 154 190 191
f 154 191 155
f 155 191 157
f 157 191 158
f 158 191 160
f 160 191 192
f 160 192 193
f 160 193 161
f 161 194 163
f 161 163 162
f 161 193 195
f 161 195 194
f 163 194 164
f 164 194 196
f 164 196 165
f 165 196 197
f 165 197 168
f 165 168 166
f 166 168 167
f 168 197 198
f 168 198 199
f 168 199 169
f 169 199 200
f 169 200 176
f 171 172 201
f 172 175 202
f 172 202 203
f 172 203 204
f 172 204 201
f 173 184 205
f 173 205 174
f 174 205 175
f 175 205 206
f 175 206 202
f 176 200 177
f 177 200 207
f 177 207 208
f 177 208 178
f 178 208 179
f 179 208 209
f 179 209 210
f 179 210 180
f 180 210 211
f 180 211 212
f 180 212 213
f 180 213 181
f 181 213 214
f 181 214 215
f 181 215 182
f 182 215 216
f 182 216 217
f 182 217 183
f 183 217 205
f 183 205 184
f 185 218 186
f 186 219 220
f 186 220 221
f 186 221 187
f 186 218 219
f 187 221 188
f 188 222 223
f 188 223 224
f 188 224 225
f 188 225 189
f 188 221 220
f 188 220 222
f 189 225 226
f 189 226 227
f 189 227 190
f 190 227 228
f 190 228 191
f 191 228 229
f 191 229 230
f 191 230 192
f 192 230 193
f 193 230 229
f 193 229 195
f 194 195 228
f 194 228 196
f 195 229 228
f 196 198 197
f 196 228 231
f 196 231 198
f 198 231 232
f 198 232 233
f 198 233 199
f 199 233 200
f 200 233 234
f 200 234 235
f 200 235 236
f 200 236 207
f 201 204 237
f 202 206 222
f 202 222 220
f 202 220 203
f 203 220 219
f 203 219 218
f 203 218 238
f 203 238 239
f 203 239 240
f 203 240 204
f 204 240 237
f 205 217 241
f 205 241 242
f 205 242 206
f 206 242 222
f 207 236 243
f 207 243 211
f 207 211 210
f 207 210 209
f 207 209 208
f 211 243 244
f 211 244 245
f 211 245 242
f 211 242 212
f 212 216 246
f 212 246 213
f 212 242 216
f 213 246 214
f 214 246 215
f 215 246 216
f 216 242 241
f 216 241 217
f 222 242 245
f 222 245 223
f 223 245 244
f 223 244 247
f 223 247 224
f 224 247 225
f 225 247 226
f 226 247 248
f 226 248 231
f 226 231 228
f 226 228 227
f 231 248 249
f 231 249 232
f 232 249 250
f 232 250 233
f 233 250 234
f 234 250 251
f 234 251 235
f 235 251 236
f 236 251 243
f 243 251 244
f 244 251 247
f 247 251 250
f 247 250 249
f 247 249 248
