v -0.335425 -0.504209 0.478282
v -0.346206 -0.497145 0.478282
v -0.335425 -0.491387 0.332223
v -0.335425 -0.503417 0.490619
v -0.345766 -0.496803 0.490415
v -0.346446 -0.485201 0.345122
v -0.364188 -0.48503 0.483697
v -0.345646 -0.484645 0.33304
v -0.335425 -0.490317 0.320907
v -0.335425 -0.492222 0.505537
v -0.338085 -0.498365 0.498717
v -0.362547 -0.483767 0.494732
v -0.358007 -0.488284 0.490594
v -0.356687 -0.476468 0.33304
v -0.39091 -0.462812 0.490415
v -0.397551 -0.458446 0.478282
v -0.39149 -0.46324 0.478282
v -0.374069 -0.460971 0.311073
v -0.355947 -0.475848 0.320907
v -0.344706 -0.484024 0.320907
v -0.338045 -0.487213 0.308799
v -0.337605 -0.486079 0.297381
v -0.337385 -0.484302 0.288722
v -0.335425 -0.432353 0.249078
v -0.335425 -0.478181 0.509803
v -0.337525 -0.485394 0.508857
v -0.347706 -0.481541 0.507044
v -0.344226 -0.489761 0.502472
v -0.354467 -0.486742 0.498998
v -0.375729 -0.472466 0.496801
v -0.396951 -0.457868 0.490415
v -0.38891 -0.46125 0.497848
v -0.424094 -0.436142 0.48408
v -0.404672 -0.452388 0.478282
v -0.38859 -0.448963 0.308799
v -0.381949 -0.45562 0.320907
v -0.38341 -0.456819 0.345122
v -0.380289 -0.455834 0.309617
v -0.374249 -0.459216 0.296692
v -0.358187 -0.472915 0.308799
v -0.346706 -0.48122 0.308799
v -0.344346 -0.481199 0.295772
v -0.352806 -0.473386 0.288058
v -0.345646 -0.476575 0.284252
v -0.350006 -0.471374 0.279986
v -0.338685 -0.475419 0.275976
v -0.345646 -0.466858 0.273753
v -0.356307 -0.45303 0.270305
v -0.342845 -0.426767 0.249078
v -0.335425 -0.371008 0.249078
v -0.335425 -0.465894 0.509624
v -0.345146 -0.466173 0.510032
v -0.357027 -0.465959 0.509419
v -0.344246 -0.477817 0.509266
v -0.352866 -0.473472 0.509036
v -0.357707 -0.47863 0.503366
v -0.360927 -0.469833 0.507708
v -0.393191 -0.453929 0.500632
v -0.380449 -0.465638 0.499585
v -0.369348 -0.475013 0.4991
v -0.403992 -0.45181 0.490415
v -0.401711 -0.449798 0.498308
v -0.422434 -0.434537 0.493071
v -0.410052 -0.446566 0.490415
v -0.418153 -0.439738 0.489572
v -0.436395 -0.424263 0.483748
v -0.413893 -0.425911 0.308799
v -0.407472 -0.431968 0.308799
v -0.401431 -0.437512 0.308799
v -0.394651 -0.443569 0.308799
v -0.38531 -0.450419 0.297688
v -0.38637 -0.44708 0.287981
v -0.368188 -0.463861 0.296692
v -0.360247 -0.469897 0.296692
v -0.354187 -0.474413 0.296692
v -0.371608 -0.457161 0.284584
v -0.365548 -0.461828 0.284584
v -0.357007 -0.468228 0.284252
v -0.376669 -0.448985 0.277559
v -0.360327 -0.461378 0.277534
v -0.368208 -0.453437 0.276027
v -0.369028 -0.44145 0.269206
v -0.348826 -0.421972 0.249078
v -0.413393 -0.285561 0.249078
v -0.337345 -0.43657 0.493787
v -0.335425 -0.443848 0.500402
v -0.335585 -0.456412 0.507682
v -0.502502 -0.285561 0.507555
v -0.502502 -0.296713 0.508168
v -0.472399 -0.350588 0.508576
v -0.424254 -0.412062 0.508679
v -0.411812 -0.423856 0.508576
v -0.419873 -0.420131 0.506865
v -0.405732 -0.442178 0.50122
v -0.414373 -0.438283 0.49864
v -0.434635 -0.422443 0.493506
v -0.426554 -0.426467 0.498768
v -0.448456 -0.412126 0.483697
v -0.432055 -0.407802 0.308799
v -0.426014 -0.41386 0.308799
v -0.425134 -0.412982 0.296692
v -0.412673 -0.424733 0.293039
v -0.406672 -0.431155 0.296692
v -0.400291 -0.436506 0.293294
v -0.393631 -0.439503 0.28535
v -0.397691 -0.434194 0.2818
v -0.379289 -0.451104 0.284584
v -0.38963 -0.437662 0.277074
v -0.381009 -0.441793 0.27503
v -0.381689 -0.429785 0.268593
v -0.357267 -0.415144 0.249078
v -0.470419 -0.285904 0.249078
v -0.503522 -0.285561 0.268772
v -0.472799 -0.285561 0.478282
v -0.476139 -0.285561 0.490032
v -0.48158 -0.285561 0.49864
v -0.490401 -0.285561 0.503876
v -0.514603 -0.285561 0.507836
v -0.502502 -0.308806 0.507606
v -0.514603 -0.296713 0.506584
v -0.490401 -0.333036 0.506839
v -0.468478 -0.359492 0.507759
v -0.435955 -0.399583 0.508576
v -0.432315 -0.407653 0.506891
v -0.429434 -0.417263 0.502829
v -0.446676 -0.410285 0.49348
v -0.438595 -0.414374 0.498819
v -0.453437 -0.404956 0.488959
v -0.460157 -0.399626 0.484259
v -0.438015 -0.401745 0.308799
v -0.431194 -0.406903 0.296692
v -0.424354 -0.412212 0.289309
v -0.410172 -0.422379 0.28134
v -0.402111 -0.426125 0.276793
v -0.393631 -0.430042 0.274443
v -0.394291 -0.418119 0.268159
v -0.368448 -0.405255 0.249078
v -0.463558 -0.296542 0.249078
v -0.493501 -0.29881 0.267725
v -0.496501 -0.290741 0.266422
v -0.501982 -0.295921 0.272323
v -0.512023 -0.285561 0.274877
v -0.526724 -0.285561 0.503876
v -0.502502 -0.320921 0.505358
v -0.477179 -0.356175 0.505179
v -0.466078 -0.38109 0.500377
v -0.454257 -0.393633 0.501092
v -0.450336 -0.402216 0.498589
v -0.460878 -0.395645 0.4909
v -0.461978 -0.389651 0.498257
v -0.470139 -0.385007 0.490415
v -0.475219 -0.378949 0.490415
v -0.48126 -0.3715 0.490415
v -0.48602 -0.365443 0.490415
v -0.48686 -0.366556 0.478282
v -0.48214 -0.372592 0.478282
v -0.476079 -0.380019 0.478282
v -0.470999 -0.386077 0.478282
v -0.449376 -0.389116 0.308799
v -0.444056 -0.395131 0.308799
v -0.443216 -0.394275 0.296692
v -0.436795 -0.400482 0.293115
v -0.441296 -0.392819 0.285912
v -0.434515 -0.397978 0.281493
v -0.422554 -0.410435 0.281238
v -0.414493 -0.414309 0.276563
v -0.405952 -0.418098 0.274034
v -0.406292 -0.40639 0.267955
v -0.398791 -0.410949 0.266627
v -0.381229 -0.393354 0.249078
v -0.454757 -0.309427 0.249078
v -0.48276 -0.312638 0.266984
v -0.478539 -0.321799 0.268236
v -0.489841 -0.308699 0.269666
v -0.490321 -0.320151 0.275133
v -0.499001 -0.308806 0.276103
v -0.510043 -0.293031 0.276921
v -0.518103 -0.285561 0.283307
v -0.538686 -0.285561 0.489827
v -0.533905 -0.288365 0.497618
v -0.526664 -0.295814 0.500096
v -0.515483 -0.309513 0.501858
v -0.502742 -0.332844 0.50076
v -0.491241 -0.345879 0.501935
v -0.477799 -0.368375 0.49933
v -0.473419 -0.37683 0.497669
v -0.48464 -0.363688 0.496801
v -0.495441 -0.352536 0.491999
v -0.500922 -0.345879 0.490798
v -0.497561 -0.352643 0.478282
v -0.473959 -0.359578 0.308799
v -0.466118 -0.36936 0.308799
v -0.461018 -0.374026 0.298863
v -0.448376 -0.387918 0.29355
v -0.448696 -0.383401 0.283971
v -0.449656 -0.377344 0.277074
v -0.438135 -0.389951 0.276691
v -0.426454 -0.402366 0.276512
v -0.418233 -0.40609 0.273881
v -0.405612 -0.369317 0.249078
v -0.393631 -0.381475 0.249078
v -0.445236 -0.321992 0.249078
v -0.457697 -0.348234 0.267214
v -0.465358 -0.344573 0.270101
v -0.479019 -0.333571 0.273626
v -0.48622 -0.32989 0.276818
v -0.497641 -0.316747 0.281314
v -0.509623 -0.299025 0.282821
v -0.509223 -0.303798 0.288952
v -0.520984 -0.286481 0.294776
v -0.539766 -0.285561 0.478282
v -0.533305 -0.297762 0.478282
v -0.532645 -0.296627 0.490415
v -0.520104 -0.314029 0.495268
v -0.509663 -0.328691 0.497644
v -0.522584 -0.30596 0.498487
v -0.511983 -0.320921 0.499662
v -0.498881 -0.342347 0.498768
v -0.509303 -0.334256 0.490415
v -0.508022 -0.338259 0.478282
v -0.503082 -0.34513 0.478282
v -0.495041 -0.331131 0.308799
v -0.48676 -0.342347 0.308799
v -0.475499 -0.355597 0.296692
v -0.470939 -0.361654 0.296692
v -0.462958 -0.36677 0.284584
v -0.457957 -0.372827 0.284584
v -0.461038 -0.36448 0.277636
v -0.453837 -0.368846 0.275056
v -0.442096 -0.381411 0.274443
v -0.430254 -0.393804 0.274034
v -0.417153 -0.356581 0.249078
v -0.438755 -0.330511 0.249078
v -0.453817 -0.357138 0.269181
v -0.427154 -0.344873 0.249078
v -0.465518 -0.356153 0.27595
v -0.474799 -0.34513 0.276512
v -0.473099 -0.352322 0.281467
v -0.48548 -0.337959 0.285376
v -0.494481 -0.323939 0.284584
v -0.497321 -0.325716 0.297969
v -0.508162 -0.308186 0.296692
v -0.515303 -0.296713 0.296692
v -0.521864 -0.287894 0.307496
v -0.526804 -0.308806 0.478282
v -0.521784 -0.316619 0.487196
v -0.524704 -0.309513 0.4909
v -0.519904 -0.319723 0.478282
v -0.501842 -0.320921 0.308799
v -0.492641 -0.332116 0.29687
v -0.48378 -0.344359 0.296692
v -0.48026 -0.344573 0.284431
v -0.469018 -0.359321 0.284584
v -0.441976 -0.369488 0.268593
v -0.507082 -0.312467 0.308799
f 1 2 3
f 1 3 9
f 1 9 24
f 1 24 50
f 1 50 86
f 1 86 51
f 1 51 25
f 1 25 10
f 1 10 4
f 1 4 5
f 1 5 2
f 2 6 3
f 2 5 7
f 2 7 6
f 3 6 8
f 3 8 9
f 4 10 11
f 4 11 5
f 5 11 12
f 5 12 13
f 5 13 7
f 6 14 8
f 6 7 14
f 7 13 15
f 7 15 16
f 7 16 17
f 7 17 18
f 7 18 14
f 8 14 19
f 8 19 20
f 8 20 9
f 9 20 21
f 9 21 22
f 9 22 23
f 9 23 24
f 10 25 26
f 10 26 27
f 10 27 28
f 10 28 11
f 11 28 29
f 11 29 12
f 12 29 30
f 12 30 15
f 12 15 13
f 14 18 19
f 15 31 16
f 15 30 32
f 15 32 31
f 16 31 33
f 16 33 34
f 16 34 35
f 16 35 36
f 16 36 37
f 16 37 18
f 16 18 17
f 18 37 36
f 18 36 38
f 18 38 39
f 18 39 40
f 18 40 19
f 19 40 20
f 20 40 41
f 20 41 21
f 21 41 22
f 22 41 42
f 22 42 23
f 23 42 43
f 23 43 44
f 23 44 45
f 23 45 46
f 23 46 24
f 24 46 47
f 24 47 48
f 24 48 49
f 24 49 83
f 24 83 111
f 24 111 137
f 24 137 170
f 24 170 201
f 24 201 200
f 24 200 232
f 24 232 235
f 24 235 233
f 24 233 202
f 24 202 171
f 24 171 138
f 24 138 112
f 24 112 84
f 24 84 50
f 25 51 52
f 25 52 53
f 25 53 54
f 25 54 26
f 26 54 55
f 26 55 27
f 27 56 29
f 27 29 28
f 27 55 57
f 27 57 58
f 27 58 59
f 27 59 56
f 29 60 32
f 29 32 30
f 29 56 60
f 31 61 33
f 31 32 61
f 32 60 56
f 32 56 59
f 32 59 58
f 32 58 62
f 32 62 63
f 32 63 64
f 32 64 61
f 33 61 64
f 33 64 65
f 33 65 63
f 33 63 66
f 33 66 67
f 33 67 68
f 33 68 69
f 33 69 70
f 33 70 35
f 33 35 34
f 35 70 71
f 35 71 38
f 35 38 36
f 38 71 39
f 39 71 72
f 39 72 43
f 39 43 73
f 39 73 40
f 40 73 74
f 40 74 75
f 40 75 41
f 41 75 42
f 42 75 43
f 43 75 74
f 43 74 73
f 43 72 76
f 43 76 77
f 43 77 78
f 43 78 45
f 43 45 44
f 45 79 80
f 45 80 46
f 45 78 77
f 45 77 76
f 45 76 79
f 46 80 81
f 46 81 47
f 47 81 48
f 48 81 82
f 48 82 49
f 49 82 83
f 50 84 85
f 50 85 86
f 51 87 88
f 51 88 89
f 51 89 52
f 51 86 87
f 52 89 90
f 52 90 91
f 52 91 53
f 53 91 55
f 53 55 54
f 55 91 92
f 55 92 57
f 57 92 93
f 57 93 94
f 57 94 58
f 58 94 62
f 62 94 95
f 62 95 63
f 63 96 66
f 63 65 64
f 63 95 97
f 63 97 96
f 66 96 98
f 66 98 99
f 66 99 100
f 66 100 67
f 67 100 101
f 67 101 102
f 67 102 103
f 67 103 68
f 68 103 69
f 69 103 104
f 69 104 70
f 70 104 71
f 71 104 72
f 72 104 105
f 72 105 106
f 72 106 107
f 72 107 76
f 76 107 79
f 79 108 109
f 79 109 81
f 79 81 80
f 79 107 106
f 79 106 108
f 81 109 82
f 82 110 111
f 82 111 83
f 82 109 110
f 84 112 113
f 84 113 142
f 84 142 178
f 84 178 211
f 84 211 179
f 84 179 143
f 84 143 118
f 84 118 88
f 84 88 117
f 84 117 116
f 84 116 115
f 84 115 114
f 84 114 85
f 85 114 115
f 85 115 116
f 85 116 86
f 86 116 87
f 87 117 88
f 87 116 117
f 88 118 89
f 89 118 90
f 90 118 119
f 90 119 120
f 90 120 121
f 90 121 122
f 90 122 123
f 90 123 91
f 91 123 124
f 91 124 93
f 91 93 92
f 93 124 125
f 93 125 97
f 93 97 95
f 93 95 94
f 96 126 98
f 96 97 127
f 96 127 126
f 97 125 127
f 98 126 128
f 98 128 129
f 98 129 130
f 98 130 99
f 99 130 131
f 99 131 101
f 99 101 100
f 101 131 102
f 102 132 133
f 102 133 104
f 102 104 103
f 102 131 132
f 104 133 105
f 105 133 106
f 106 133 134
f 106 134 108
f 108 134 135
f 108 135 109
f 109 135 110
f 110 135 136
f 110 136 111
f 111 136 137
f 112 138 139
f 112 139 140
f 112 140 113
f 113 140 139
f 113 139 141
f 113 141 142
f 118 143 120
f 118 120 119
f 120 143 144
f 120 144 121
f 121 144 145
f 121 145 122
f 122 145 123
f 123 145 146
f 123 146 124
f 124 146 147
f 124 147 148
f 124 148 127
f 124 127 125
f 126 149 128
f 126 127 148
f 126 148 150
f 126 150 149
f 128 149 129
f 129 149 151
f 129 151 152
f 129 152 153
f 129 153 154
f 129 154 155
f 129 155 156
f 129 156 157
f 129 157 158
f 129 158 159
f 129 159 160
f 129 160 130
f 130 160 161
f 130 161 162
f 130 162 131
f 131 162 132
f 132 162 163
f 132 163 164
f 132 164 165
f 132 165 133
f 133 165 166
f 133 166 134
f 134 166 167
f 134 167 135
f 135 167 136
f 136 168 169
f 136 169 170
f 136 170 137
f 136 167 168
f 138 171 139
f 139 171 172
f 139 172 173
f 139 173 174
f 139 174 175
f 139 175 141
f 141 175 176
f 141 176 142
f 142 176 177
f 142 177 178
f 143 179 180
f 143 180 181
f 143 181 182
f 143 182 144
f 144 182 183
f 144 183 184
f 144 184 145
f 145 184 146
f 146 184 185
f 146 185 186
f 146 186 150
f 146 150 147
f 147 150 148
f 149 150 186
f 149 186 151
f 151 186 152
f 152 186 187
f 152 187 153
f 153 187 154
f 154 187 188
f 154 188 189
f 154 189 190
f 154 190 155
f 155 190 191
f 155 191 156
f 156 191 192
f 156 192 157
f 157 192 158
f 158 192 159
f 159 192 193
f 159 193 194
f 159 194 161
f 159 161 160
f 161 194 162
f 162 194 163
f 163 194 195
f 163 195 164
f 164 195 196
f 164 196 197
f 164 197 198
f 164 198 165
f 165 198 166
f 166 198 199
f 166 199 167
f 167 199 168
f 168 200 201
f 168 201 170
f 168 170 169
f 168 199 200
f 171 202 203
f 171 203 204
f 171 204 173
f 171 173 172
f 173 204 205
f 173 205 174
f 174 205 175
f 175 205 206
f 175 206 176
f 176 206 177
f 177 206 207
f 177 207 208
f 177 208 178
f 178 208 209
f 178 209 210
f 178 210 211
f 179 211 212
f 179 212 213
f 179 213 180
f 180 214 215
f 180 215 216
f 180 216 181
f 180 213 214
f 181 216 217
f 181 217 182
f 182 217 183
f 183 217 215
f 183 215 218
f 183 218 184
f 184 218 185
f 185 218 186
f 186 218 187
f 187 218 215
f 187 215 188
f 188 215 189
f 189 215 219
f 189 219 220
f 189 220 221
f 189 221 190
f 190 221 222
f 190 222 223
f 190 223 191
f 191 223 224
f 191 224 225
f 191 225 192
f 192 225 193
f 193 225 194
f 194 226 227
f 194 227 195
f 194 225 226
f 195 227 228
f 195 228 196
f 196 228 229
f 196 229 230
f 196 230 197
f 197 230 231
f 197 231 198
f 198 231 199
f 199 231 200
f 200 231 232
f 202 233 203
f 203 234 204
f 203 233 235
f 203 235 234
f 204 234 236
f 204 236 237
f 204 237 205
f 205 237 206
f 206 237 238
f 206 238 239
f 206 239 207
f 207 239 240
f 207 240 208
f 208 240 209
f 209 240 239
f 209 239 241
f 209 241 242
f 209 242 243
f 209 243 210
f 210 243 244
f 210 244 211
f 211 244 212
f 212 245 246
f 212 246 213
f 212 244 245
f 213 246 247
f 213 247 214
f 214 247 246
f 214 246 219
f 214 219 215
f 215 217 216
f 219 246 220
f 220 246 248
f 220 248 249
f 220 249 222
f 220 222 221
f 222 249 241
f 222 241 250
f 222 250 251
f 222 251 224
f 222 224 223
f 224 251 239
f 224 239 252
f 224 252 225
f 225 252 253
f 225 253 226
f 226 253 238
f 226 238 228
f 226 228 227
f 228 237 236
f 228 236 229
f 228 238 237
f 229 236 234
f 229 234 230
f 230 234 254
f 230 254 231
f 231 254 232
f 232 254 234
f 232 234 235
f 238 253 252
f 238 252 239
f 239 251 250
f 239 250 241
f 241 249 242
f 242 249 243
f 243 249 255
f 243 255 244
f 244 255 245
f 245 248 246
f 245 255 249
f 245 249 248
