v 0.206226 -0.541686 0.516295
v 0.19978 -0.538837 0.51619
v 0.175572 -0.550952 0.515839
v 0.187686 -0.550952 0.515979
v 0.203013 -0.550952 0.515276
v 0.206226 -0.558025 0.512115
v 0.206226 -0.529341 0.514574
v 0.00726874 -0.574593 0.512501
v 0.0544958 -0.575166 0.513239
v 0.139251 -0.563067 0.51489
v 0.151345 -0.563067 0.51482
v 0.163439 -0.563067 0.514398
v 0.175572 -0.563067 0.513731
v 0.19978 -0.561266 0.511623
v 0.206226 -0.564311 0.504843
v 0.206226 -0.519928 0.510674
v 0.00726874 -0.561037 0.509199
v 0.00726874 -0.587281 0.511412
v 0.0787423 -0.575166 0.513309
v 0.0908363 -0.575166 0.513309
v 0.10293 -0.575166 0.513169
v 0.115005 -0.575166 0.512958
v 0.127118 -0.575166 0.512642
v 0.151345 -0.573987 0.511377
v 0.163439 -0.572481 0.510815
v 0.175572 -0.57104 0.510112
v 0.188075 -0.563951 0.511834
v 0.184297 -0.569927 0.509304
v 0.190218 -0.570009 0.505194
v 0.196313 -0.569976 0.499328
v 0.205272 -0.566751 0.492793
v 0.206226 -0.565801 0.441961
v 0.206226 -0.514492 0.504843
v 0.00726874 -0.552933 0.50133
v 0.0181748 -0.587281 0.511377
v 0.00726874 -0.594222 0.509234
v 0.0303077 -0.587281 0.511237
v 0.0544958 -0.587281 0.51092
v 0.0787423 -0.585693 0.510815
v 0.0908363 -0.584727 0.51078
v 0.10293 -0.583908 0.510604
v 0.115005 -0.583188 0.510183
v 0.139816 -0.576213 0.511307
v 0.127118 -0.582451 0.509621
v 0.136155 -0.581763 0.509023
v 0.144217 -0.580928 0.50818
v 0.151345 -0.58142 0.503473
v 0.159505 -0.581763 0.498133
v 0.187686 -0.573463 0.466165
v 0.197307 -0.570369 0.466165
v 0.204785 -0.567667 0.466165
v 0.204376 -0.567258 0.454045
v 0.201396 -0.567586 0.441961
v 0.204746 -0.557501 0.30636
v 0.206226 -0.435925 0.157411
v 0.206226 -0.509008 0.494199
v 0.00726874 -0.547956 0.490405
v 0.0181748 -0.594206 0.509199
v 0.00726874 -0.59915 0.502489
v 0.0576508 -0.59342 0.508602
v 0.0655382 -0.588067 0.510358
v 0.0688684 -0.592634 0.507969
v 0.0787423 -0.595761 0.500908
v 0.139816 -0.583957 0.503508
v 0.127118 -0.58674 0.502489
v 0.0987432 -0.593747 0.49736
v 0.127118 -0.589294 0.490405
v 0.139251 -0.586626 0.490405
v 0.151345 -0.583957 0.466165
v 0.162758 -0.58101 0.466165
v 0.161959 -0.580765 0.454045
v 0.175572 -0.576606 0.454045
v 0.187686 -0.57289 0.454045
v 0.19645 -0.570058 0.454045
v 0.19534 -0.569648 0.441961
v 0.187686 -0.563575 0.308819
v 0.187686 -0.561381 0.2967
v 0.197073 -0.558254 0.2967
v 0.204668 -0.555438 0.2967
v 0.203188 -0.48725 0.157411
v 0.00726874 -0.479162 0.157411
v 0.0181748 -0.599052 0.502489
v 0.00726874 -0.603178 0.491002
v 0.0303077 -0.598512 0.502489
v 0.0423823 -0.59784 0.502489
v 0.0544958 -0.597153 0.502489
v 0.0655382 -0.595859 0.503368
v 0.0908363 -0.594648 0.498976
v 0.0423823 -0.601933 0.490405
v 0.0544958 -0.600902 0.490405
v 0.0666093 -0.599674 0.490405
v 0.0787423 -0.598037 0.490405
v 0.0908363 -0.595892 0.490405
v 0.115005 -0.591505 0.490405
v 0.108228 -0.593207 0.481025
v 0.109084 -0.593355 0.472313
v 0.139251 -0.586626 0.466165
v 0.151345 -0.583433 0.454045
v 0.158025 -0.581403 0.445228
v 0.175572 -0.574413 0.417721
v 0.175572 -0.575886 0.441961
v 0.175572 -0.573659 0.405637
v 0.170314 -0.568584 0.308925
v 0.162251 -0.569059 0.297227
v 0.175572 -0.565048 0.2967
v 0.173391 -0.570418 0.345073
v 0.172242 -0.569976 0.333059
v 0.173742 -0.568601 0.320939
v 0.157305 -0.569075 0.290763
v 0.194327 -0.557206 0.290306
v 0.190607 -0.491981 0.157411
v 0.00726874 -0.52497 0.157411
v 0.0181748 -0.603161 0.490405
v 0.0303077 -0.602686 0.490405
v 0.00726874 -0.603112 0.478882
v 0.0423823 -0.601966 0.478285
v 0.0544958 -0.600902 0.478285
v 0.0666093 -0.599576 0.478285
v 0.0787423 -0.597857 0.478285
v 0.0787423 -0.597497 0.466165
v 0.0908363 -0.595761 0.466165
v 0.105657 -0.593567 0.465322
v 0.115005 -0.58769 0.393482
v 0.115005 -0.588394 0.405637
v 0.115005 -0.591194 0.454045
v 0.113895 -0.592127 0.467043
v 0.127118 -0.589245 0.466165
v 0.139251 -0.586053 0.454045
v 0.130312 -0.581698 0.343141
v 0.157032 -0.581141 0.437148
v 0.151345 -0.576688 0.345073
v 0.163439 -0.573447 0.345073
v 0.163439 -0.575755 0.381397
v 0.151345 -0.573823 0.308819
v 0.163439 -0.57253 0.333059
v 0.139251 -0.57528 0.2967
v 0.152514 -0.571466 0.295576
v 0.149242 -0.570254 0.288901
v 0.138278 -0.508287 0.157411
v 0.154189 -0.503818 0.157411
v 0.167256 -0.499741 0.157411
v 0.179175 -0.495845 0.157411
v 0.0212129 -0.524741 0.157411
v 0.00726874 -0.586544 0.28458
v 0.0303077 -0.602555 0.478285
v 0.0303077 -0.600378 0.441961
v 0.00726874 -0.593027 0.31163
v 0.0181748 -0.597022 0.381397
v 0.0423823 -0.601262 0.466165
v 0.0544958 -0.598937 0.441961
v 0.0544958 -0.600329 0.466165
v 0.0666093 -0.599085 0.466165
v 0.0966983 -0.593305 0.43641
v 0.0908363 -0.595106 0.454045
v 0.0732503 -0.59342 0.378376
v 0.103047 -0.593338 0.454045
v 0.10293 -0.59193 0.429841
v 0.115005 -0.58697 0.381397
v 0.127118 -0.583171 0.357193
v 0.127118 -0.58864 0.454045
v 0.127118 -0.583859 0.369278
v 0.115005 -0.586233 0.369278
v 0.115005 -0.584727 0.345073
v 0.128287 -0.581452 0.333059
v 0.139251 -0.578882 0.333059
v 0.139251 -0.577982 0.320939
v 0.151345 -0.575771 0.333059
v 0.139251 -0.577032 0.308819
v 0.151345 -0.574805 0.320939
v 0.127118 -0.577998 0.2967
v 0.0988016 -0.581551 0.29006
v 0.139251 -0.571548 0.287144
v 0.115005 -0.513657 0.157411
v 0.127021 -0.511054 0.157411
v 0.0333069 -0.524217 0.157411
v 0.0303077 -0.585758 0.28458
v 0.0181748 -0.586233 0.28458
v 0.0181748 -0.59103 0.2967
v 0.00726874 -0.591275 0.2967
v 0.0423823 -0.599821 0.441961
v 0.0423823 -0.600542 0.454045
v 0.0303077 -0.598905 0.417721
v 0.0181748 -0.592634 0.308819
v 0.0264517 -0.59342 0.325506
v 0.0544958 -0.598233 0.429841
v 0.0644086 -0.593191 0.358563
v 0.0666093 -0.594304 0.381397
v 0.0666093 -0.594992 0.393482
v 0.0666093 -0.595679 0.405637
v 0.0666093 -0.598413 0.454045
v 0.0822478 -0.592962 0.393482
v 0.0787423 -0.591341 0.357193
v 0.0908363 -0.591636 0.393482
v 0.0704069 -0.593109 0.36724
v 0.0787423 -0.590588 0.345073
v 0.0798913 -0.592601 0.381397
v 0.10293 -0.59044 0.405637
v 0.0908363 -0.590146 0.369278
v 0.0908363 -0.58864 0.345073
v 0.10293 -0.585136 0.320939
v 0.115005 -0.583941 0.333059
v 0.115005 -0.583106 0.320939
v 0.126086 -0.58101 0.320939
v 0.123924 -0.580683 0.311419
v 0.117731 -0.581567 0.307379
v 0.113681 -0.58101 0.298316
v 0.104878 -0.581682 0.294276
v 0.0787423 -0.586347 0.2967
v 0.0666093 -0.587952 0.2967
v 0.0908363 -0.582205 0.288936
v 0.0909921 -0.51811 0.157411
v 0.10293 -0.515966 0.157411
v 0.0424797 -0.523579 0.157411
v 0.0544958 -0.584612 0.285318
v 0.0423823 -0.589917 0.2967
v 0.0303077 -0.590604 0.2967
v 0.0303077 -0.592241 0.308819
v 0.0423823 -0.598348 0.417721
v 0.0571639 -0.593535 0.354523
v 0.0544958 -0.595336 0.381397
v 0.0544958 -0.597513 0.417721
v 0.0303077 -0.595205 0.357193
v 0.0345338 -0.593256 0.328176
v 0.0666093 -0.592143 0.345073
v 0.0787423 -0.589769 0.333059
v 0.0908363 -0.587051 0.320939
v 0.0908363 -0.58787 0.333059
v 0.10293 -0.584317 0.308819
v 0.0908363 -0.584465 0.2967
v 0.0908363 -0.5862 0.308819
v 0.0787423 -0.587968 0.308819
v 0.0666093 -0.589491 0.308819
v 0.0544958 -0.589065 0.2967
v 0.0666093 -0.584039 0.286301
v 0.0787423 -0.583204 0.287461
v 0.0757041 -0.520321 0.157411
v 0.0544958 -0.522498 0.157411
v 0.0423823 -0.591537 0.308819
v 0.0423823 -0.59234 0.320939
v 0.0410385 -0.593273 0.334394
v 0.0450699 -0.593535 0.342403
v 0.0549827 -0.593044 0.344581
v 0.0544958 -0.592323 0.333059
v 0.0544958 -0.591488 0.320939
v 0.0666093 -0.591308 0.333059
v 0.0787423 -0.588885 0.320939
v 0.0544958 -0.590604 0.308819
v 0.0666093 -0.590408 0.320939
v 0.0666093 -0.521319 0.157411
f 1 2 3
f 1 3 4
f 1 4 5
f 1 5 6
f 1 6 15
f 1 15 32
f 1 32 55
f 1 55 56
f 1 56 33
f 1 33 16
f 1 16 7
f 1 7 2
f 2 7 8
f 2 8 3
f 3 8 9
f 3 9 10
f 3 10 4
f 4 10 11
f 4 11 12
f 4 12 5
f 5 12 13
f 5 13 14
f 5 14 6
f 6 14 15
f 7 16 17
f 7 17 8
f 8 18 9
f 8 17 34
f 8 34 57
f 8 57 81
f 8 81 112
f 8 112 144
f 8 144 179
f 8 179 147
f 8 147 115
f 8 115 83
f 8 83 59
f 8 59 36
f 8 36 18
f 9 19 10
f 9 18 19
f 10 19 20
f 10 20 11
f 11 20 21
f 11 21 22
f 11 22 23
f 11 23 12
f 12 23 13
f 13 23 24
f 13 24 25
f 13 25 26
f 13 26 27
f 13 27 14
f 14 27 26
f 14 26 28
f 14 28 15
f 15 28 29
f 15 29 30
f 15 30 31
f 15 31 32
f 16 33 34
f 16 34 17
f 18 35 20
f 18 20 19
f 18 36 35
f 20 35 37
f 20 37 21
f 21 37 38
f 21 38 22
f 22 38 39
f 22 39 23
f 23 39 40
f 23 40 41
f 23 41 42
f 23 42 43
f 23 43 24
f 24 43 44
f 24 44 45
f 24 45 25
f 25 45 26
f 26 45 46
f 26 46 28
f 28 46 47
f 28 47 48
f 28 48 29
f 29 48 30
f 30 48 49
f 30 49 50
f 30 50 51
f 30 51 31
f 31 51 32
f 32 51 52
f 32 52 53
f 32 53 54
f 32 54 55
f 33 56 34
f 34 56 57
f 35 36 58
f 35 58 37
f 36 59 58
f 37 58 38
f 38 58 60
f 38 60 61
f 38 61 39
f 39 61 40
f 40 61 60
f 40 60 41
f 41 60 42
f 42 60 44
f 42 44 43
f 44 60 62
f 44 62 45
f 45 62 63
f 45 63 46
f 46 64 47
f 46 63 65
f 46 65 64
f 47 64 48
f 48 64 65
f 48 65 66
f 48 66 67
f 48 67 68
f 48 68 69
f 48 69 70
f 48 70 49
f 49 70 71
f 49 71 72
f 49 72 73
f 49 73 50
f 50 73 74
f 50 74 52
f 50 52 51
f 52 74 53
f 53 74 75
f 53 75 76
f 53 76 54
f 54 76 77
f 54 77 78
f 54 78 79
f 54 79 55
f 55 79 80
f 55 80 111
f 55 111 142
f 55 142 141
f 55 141 140
f 55 140 139
f 55 139 174
f 55 174 173
f 55 173 212
f 55 212 211
f 55 211 236
f 55 236 249
f 55 249 237
f 55 237 213
f 55 213 175
f 55 175 143
f 55 143 112
f 55 112 81
f 55 81 57
f 55 57 56
f 58 59 82
f 58 82 60
f 59 83 82
f 60 82 84
f 60 84 85
f 60 85 86
f 60 86 87
f 60 87 62
f 62 87 63
f 63 88 65
f 63 87 86
f 63 86 89
f 63 89 90
f 63 90 91
f 63 91 88
f 65 88 66
f 66 88 92
f 66 92 93
f 66 93 94
f 66 94 67
f 67 94 95
f 67 95 96
f 67 96 68
f 68 96 69
f 69 97 98
f 69 98 99
f 69 99 71
f 69 71 70
f 69 96 97
f 71 99 100
f 71 100 101
f 71 101 72
f 72 101 73
f 73 75 74
f 73 101 100
f 73 100 102
f 73 102 76
f 73 76 75
f 76 103 104
f 76 104 105
f 76 105 77
f 76 102 106
f 76 106 107
f 76 107 108
f 76 108 103
f 77 105 109
f 77 109 110
f 77 110 78
f 78 110 79
f 79 110 80
f 80 110 111
f 82 83 113
f 82 113 114
f 82 114 84
f 83 115 113
f 84 114 85
f 85 114 86
f 86 114 89
f 88 91 92
f 89 114 116
f 89 116 90
f 90 116 117
f 90 117 91
f 91 117 118
f 91 118 92
f 92 118 119
f 92 119 96
f 92 96 95
f 92 95 93
f 93 95 94
f 96 120 121
f 96 121 122
f 96 122 123
f 96 123 124
f 96 124 125
f 96 125 126
f 96 126 127
f 96 127 97
f 96 119 120
f 97 127 128
f 97 128 98
f 98 128 129
f 98 129 99
f 99 129 130
f 99 130 131
f 99 131 132
f 99 132 133
f 99 133 102
f 99 102 100
f 102 133 132
f 102 132 106
f 103 134 104
f 103 108 135
f 103 135 134
f 104 136 137
f 104 137 109
f 104 109 105
f 104 134 136
f 106 132 107
f 107 135 108
f 107 132 135
f 109 138 139
f 109 139 140
f 109 140 141
f 109 141 110
f 109 137 136
f 109 136 138
f 110 141 142
f 110 142 111
f 112 143 144
f 113 115 145
f 113 145 114
f 114 145 116
f 115 146 145
f 115 147 148
f 115 148 146
f 116 145 149
f 116 149 185
f 116 185 150
f 116 150 151
f 116 151 117
f 117 151 152
f 117 152 118
f 118 152 120
f 118 120 119
f 120 153 154
f 120 154 121
f 120 152 155
f 120 155 153
f 121 154 153
f 121 153 156
f 121 156 122
f 122 156 157
f 122 157 123
f 123 158 159
f 123 159 124
f 123 157 158
f 124 159 125
f 125 160 126
f 125 159 161
f 125 161 160
f 126 160 128
f 126 128 127
f 128 160 161
f 128 161 129
f 129 161 159
f 129 159 162
f 129 162 163
f 129 163 164
f 129 164 165
f 129 165 130
f 130 165 131
f 131 165 166
f 131 166 167
f 131 167 135
f 131 135 132
f 134 168 136
f 134 135 169
f 134 169 168
f 135 167 169
f 136 168 170
f 136 170 138
f 138 171 172
f 138 172 173
f 138 173 174
f 138 174 139
f 138 170 171
f 143 175 176
f 143 176 177
f 143 177 144
f 144 177 178
f 144 178 179
f 145 146 180
f 145 180 181
f 145 181 149
f 146 182 218
f 146 218 180
f 146 148 183
f 146 183 184
f 146 184 182
f 147 179 183
f 147 183 148
f 149 181 221
f 149 221 185
f 150 185 186
f 150 186 187
f 150 187 151
f 151 187 188
f 151 188 189
f 151 189 190
f 151 190 152
f 152 190 155
f 153 157 156
f 153 155 191
f 153 191 192
f 153 192 193
f 153 193 157
f 155 194 195
f 155 195 192
f 155 192 196
f 155 196 191
f 155 190 194
f 157 193 198
f 157 198 197
f 157 197 162
f 157 162 158
f 158 162 159
f 162 197 198
f 162 198 199
f 162 199 163
f 163 199 200
f 163 200 201
f 163 201 164
f 164 201 202
f 164 202 203
f 164 203 166
f 164 166 165
f 166 203 168
f 166 168 167
f 167 168 169
f 168 203 204
f 168 204 205
f 168 205 170
f 170 205 206
f 170 206 207
f 170 207 171
f 171 207 208
f 171 208 209
f 171 209 210
f 171 210 211
f 171 211 212
f 171 212 173
f 171 173 172
f 175 213 214
f 175 214 176
f 176 214 215
f 176 215 216
f 176 216 177
f 177 216 178
f 178 216 217
f 178 217 183
f 178 183 179
f 180 218 219
f 180 219 220
f 180 220 221
f 180 221 181
f 182 184 222
f 182 222 223
f 182 223 218
f 183 217 184
f 184 217 223
f 184 223 222
f 185 221 186
f 186 219 224
f 186 224 194
f 186 194 187
f 186 221 219
f 187 194 188
f 188 194 189
f 189 194 190
f 191 196 192
f 192 198 193
f 192 195 198
f 194 224 195
f 195 199 198
f 195 224 225
f 195 225 226
f 195 226 227
f 195 227 199
f 199 227 200
f 200 227 226
f 200 226 228
f 200 228 201
f 201 228 202
f 202 228 205
f 202 205 203
f 203 205 204
f 205 228 206
f 206 228 229
f 206 229 207
f 207 229 208
f 208 229 228
f 208 228 230
f 208 230 231
f 208 231 209
f 209 231 232
f 209 232 247
f 209 247 233
f 209 233 234
f 209 234 235
f 209 235 210
f 210 235 236
f 210 236 211
f 213 237 234
f 213 234 214
f 214 234 233
f 214 233 215
f 215 233 238
f 215 238 217
f 215 217 216
f 217 238 239
f 217 239 223
f 218 223 240
f 218 240 241
f 218 241 219
f 219 241 242
f 219 242 243
f 219 243 224
f 219 221 220
f 223 239 240
f 224 243 244
f 224 244 245
f 224 245 225
f 225 245 246
f 225 246 230
f 225 230 226
f 226 230 228
f 230 246 231
f 231 246 248
f 231 248 232
f 232 248 247
f 233 247 238
f 234 237 249
f 234 249 236
f 234 236 235
f 238 247 244
f 238 244 243
f 238 243 239
f 239 243 242
f 239 242 241
f 239 241 240
f 244 247 245
f 245 247 248
f 245 248 246
