v -0.252698 -0.179695 -0.459847
v -0.308564 -0.179695 -0.459847
v -0.2622 -0.179695 -0.437812
v -0.130778 -0.285518 -0.459847
v -0.305015 -0.185859 -0.459847
v -0.313981 -0.18011 -0.44589
v -0.313851 -0.179695 -0.446779
v -0.263826 -0.179695 -0.434076
v -0.152112 -0.285518 -0.43183
v -0.219181 -0.285518 -0.459847
v -0.264658 -0.179695 -0.432195
v -0.264825 -0.179695 -0.43183
v -0.302593 -0.18995 -0.459847
v -0.301891 -0.192354 -0.458096
v -0.303536 -0.195109 -0.450024
v -0.30605 -0.188065 -0.454073
v -0.312927 -0.19166 -0.43183
v -0.313408 -0.190841 -0.43183
v -0.31143 -0.187268 -0.441907
v -0.315589 -0.182948 -0.43782
v -0.316624 -0.179695 -0.439699
v -0.314092 -0.179695 -0.446178
v -0.233305 -0.285518 -0.43183
v -0.222028 -0.285518 -0.454446
v -0.223803 -0.284358 -0.453634
v -0.227482 -0.278361 -0.459847
v -0.319619 -0.179695 -0.43183
v -0.30165 -0.191535 -0.459847
v -0.296696 -0.19975 -0.459847
v -0.305163 -0.19774 -0.441984
v -0.299265 -0.199408 -0.454073
v -0.301447 -0.2038 -0.441984
v -0.308176 -0.199459 -0.43183
v -0.31631 -0.185797 -0.43183
v -0.318658 -0.179695 -0.434403
v -0.230698 -0.285518 -0.43714
v -0.238777 -0.280639 -0.43183
v -0.24118 -0.277615 -0.433876
v -0.239202 -0.275854 -0.441984
v -0.222879 -0.285518 -0.45283
v -0.224783 -0.285518 -0.449039
v -0.229109 -0.277677 -0.458258
v -0.230088 -0.276102 -0.459847
v -0.293535 -0.204918 -0.459847
v -0.302667 -0.205789 -0.435807
v -0.306734 -0.20178 -0.43183
v -0.236448 -0.272736 -0.454745
v -0.231124 -0.279448 -0.450186
v -0.245321 -0.274766 -0.43183
v -0.250239 -0.270333 -0.43183
v -0.241772 -0.266013 -0.459303
v -0.241143 -0.266314 -0.459847
v -0.291815 -0.207591 -0.459847
v -0.30067 -0.210989 -0.43183
v -0.29298 -0.209259 -0.454092
v -0.253733 -0.265878 -0.434792
v -0.258595 -0.262232 -0.43183
v -0.253899 -0.253894 -0.459347
v -0.253326 -0.254215 -0.459847
v -0.242105 -0.265402 -0.459847
v -0.241624 -0.265878 -0.459847
v -0.255859 -0.255872 -0.451275
v -0.290632 -0.209238 -0.459847
v -0.290151 -0.217349 -0.446971
v -0.29322 -0.221637 -0.43183
v -0.295161 -0.21276 -0.442558
v -0.291815 -0.219628 -0.438901
v -0.260388 -0.260388 -0.43183
v -0.258003 -0.25811 -0.441984
v -0.25377 -0.253769 -0.459847
v -0.265934 -0.24165 -0.4591
v -0.287009 -0.214044 -0.459847
v -0.288617 -0.215308 -0.454092
v -0.282036 -0.224237 -0.453529
v -0.28712 -0.223812 -0.442558
v -0.288894 -0.227562 -0.43183
v -0.289782 -0.226381 -0.43183
v -0.262348 -0.258337 -0.43183
v -0.265749 -0.253573 -0.434408
v -0.264067 -0.25178 -0.441984
v -0.265102 -0.242116 -0.459847
v -0.266267 -0.24079 -0.459847
v -0.265749 -0.241432 -0.459847
v -0.267635 -0.243587 -0.451028
v -0.277377 -0.240873 -0.433237
v -0.279318 -0.239257 -0.43183
v -0.282184 -0.235797 -0.43183
v -0.287822 -0.22895 -0.43183
v -0.278967 -0.23068 -0.449116
v -0.277211 -0.228412 -0.457189
v -0.274826 -0.229924 -0.459847
v -0.283848 -0.218198 -0.459847
v -0.281019 -0.221906 -0.459847
v -0.269465 -0.250569 -0.43183
v -0.271924 -0.247782 -0.43183
v -0.26952 -0.245721 -0.441984
v -0.275344 -0.243856 -0.43183
v -0.278412 -0.225304 -0.459847
f 1 2 7
f 1 7 22
f 1 22 21
f 1 21 35
f 1 35 27
f 1 27 12
f 1 12 11
f 1 11 8
f 1 8 3
f 1 3 4
f 1 4 10
f 1 10 26
f 1 26 43
f 1 43 52
f 1 52 61
f 1 61 60
f 1 60 59
f 1 59 70
f 1 70 81
f 1 81 83
f 1 83 82
f 1 82 91
f 1 91 98
f 1 98 93
f 1 93 92
f 1 92 72
f 1 72 63
f 1 63 53
f 1 53 44
f 1 44 29
f 1 29 28
f 1 28 13
f 1 13 5
f 1 5 2
f 2 5 6
f 2 6 7
f 3 8 4
f 4 9 23
f 4 23 36
f 4 36 41
f 4 41 40
f 4 40 24
f 4 24 10
f 4 8 11
f 4 11 12
f 4 12 9
f 5 13 14
f 5 14 15
f 5 15 16
f 5 16 17
f 5 17 18
f 5 18 19
f 5 19 20
f 5 20 6
f 6 20 21
f 6 21 22
f 6 22 7
f 9 12 27
f 9 27 34
f 9 34 18
f 9 18 17
f 9 17 33
f 9 33 46
f 9 46 54
f 9 54 65
f 9 65 77
f 9 77 76
f 9 76 88
f 9 88 87
f 9 87 86
f 9 86 97
f 9 97 95
f 9 95 94
f 9 94 78
f 9 78 68
f 9 68 57
f 9 57 50
f 9 50 49
f 9 49 37
f 9 37 23
f 10 24 25
f 10 25 26
f 13 28 14
f 14 28 29
f 14 29 15
f 15 30 17
f 15 17 16
f 15 29 31
f 15 31 32
f 15 32 30
f 17 30 33
f 18 34 20
f 18 20 19
f 20 34 35
f 20 35 21
f 23 37 38
f 23 38 39
f 23 39 36
f 24 40 25
f 25 40 41
f 25 41 42
f 25 42 26
f 26 42 43
f 27 35 34
f 29 44 31
f 30 32 33
f 31 44 32
f 32 45 33
f 32 44 45
f 33 45 46
f 36 39 47
f 36 47 48
f 36 48 41
f 37 49 38
f 38 49 50
f 38 50 51
f 38 51 39
f 39 51 47
f 41 48 42
f 42 48 47
f 42 47 51
f 42 51 43
f 43 51 52
f 44 53 45
f 45 54 46
f 45 53 55
f 45 55 54
f 50 56 51
f 50 57 56
f 51 58 59
f 51 59 60
f 51 60 61
f 51 61 52
f 51 56 62
f 51 62 58
f 53 63 64
f 53 64 55
f 54 55 66
f 54 66 67
f 54 67 65
f 55 64 67
f 55 67 66
f 56 57 68
f 56 68 69
f 56 69 62
f 58 70 59
f 58 62 71
f 58 71 70
f 62 69 71
f 63 72 73
f 63 73 64
f 64 73 74
f 64 74 75
f 64 75 76
f 64 76 77
f 64 77 67
f 65 67 77
f 68 78 79
f 68 79 80
f 68 80 69
f 69 80 71
f 70 71 81
f 71 82 83
f 71 83 81
f 71 80 79
f 71 79 84
f 71 84 85
f 71 85 86
f 71 86 87
f 71 87 88
f 71 88 89
f 71 89 90
f 71 90 91
f 71 91 82
f 72 92 73
f 73 92 93
f 73 93 74
f 74 93 90
f 74 90 89
f 74 89 88
f 74 88 76
f 74 76 75
f 78 94 79
f 79 94 95
f 79 95 96
f 79 96 84
f 84 96 85
f 85 97 86
f 85 96 95
f 85 95 97
f 90 93 98
f 90 98 91
