v 0.00726875 0.0659335 -0.477712
v 0.0760787 0.00200852 -0.48018
v 0.00726875 0.0664502 -0.465787
v 0.00726875 0.0688862 -0.494504
v 0.0801536 0.00200852 -0.494448
v 0.0779008 0.00200852 -0.4635
v 0.00726875 0.0746438 -0.456945
v 0.00726875 0.0787407 -0.501149
v 0.0908213 0.00200852 -0.500557
v 0.343135 0.00200852 -0.455222
v 0.089993 0.00403847 -0.455536
v 0.0181683 0.0787407 -0.455829
v 0.00726875 0.331156 -0.455222
v 0.320872 0.00200852 -0.52299
v 0.00726875 0.308753 -0.525626
v 0.332998 0.00200852 -0.52368
v 0.345223 0.00403847 -0.523206
v 0.345554 0.0298742 -0.523102
v 0.345719 0.168095 -0.472119
v 0.34509 0.177396 -0.460668
v 0.339094 0.191311 -0.455752
v 0.333992 0.200427 -0.455222
v 0.0302937 0.0787407 -0.455703
v 0.00726875 0.378915 -0.455222
v 0.00726875 0.320821 -0.526463
v 0.332998 0.0423861 -0.523708
v 0.332998 0.054492 -0.523715
v 0.345388 0.0177683 -0.523164
v 0.332998 0.0666348 -0.523646
v 0.332998 0.0787407 -0.523506
v 0.345554 0.0419432 -0.522962
v 0.345719 0.0668193 -0.521937
v 0.345719 0.16112 -0.481184
v 0.33863 0.169166 -0.489936
v 0.339657 0.17688 -0.476763
v 0.338696 0.18607 -0.465654
v 0.327598 0.204118 -0.467349
v 0.327034 0.211684 -0.455222
v 0.0181683 0.379063 -0.455222
v 0.00726875 0.375556 -0.466833
v 0.00726875 0.333001 -0.5261
v 0.0181683 0.333001 -0.525954
v 0.0302937 0.333001 -0.525745
v 0.0908213 0.320821 -0.524998
v 0.248219 0.223974 -0.523192
v 0.260312 0.211905 -0.523116
v 0.284562 0.187694 -0.522906
v 0.320872 0.115095 -0.523178
v 0.332998 0.102952 -0.522579
v 0.337271 0.0908466 -0.522488
v 0.345388 0.0540122 -0.522621
v 0.102947 0.320821 -0.524768
v 0.343036 0.0787407 -0.522021
v 0.345719 0.0799217 -0.521065
v 0.345719 0.152446 -0.49147
v 0.337934 0.161452 -0.500557
v 0.326339 0.187361 -0.495731
v 0.333064 0.187694 -0.478325
v 0.311828 0.213788 -0.490431
v 0.315207 0.215892 -0.478674
v 0.324185 0.198582 -0.484664
v 0.314545 0.223642 -0.466205
v 0.31534 0.227444 -0.456456
v 0.309211 0.235822 -0.455222
v 0.0302937 0.378878 -0.455222
v 0.0302937 0.375483 -0.46677
v 0.0181683 0.373453 -0.47419
v 0.00726875 0.371681 -0.479539
v 0.00726875 0.35581 -0.515075
v 0.0086602 0.347949 -0.521846
v 0.0356939 0.346879 -0.522188
v 0.042386 0.333001 -0.525466
v 0.0545114 0.343446 -0.522662
v 0.236127 0.23608 -0.523248
v 0.224002 0.260329 -0.52299
v 0.127197 0.308753 -0.524434
v 0.296655 0.187288 -0.521686
v 0.296655 0.175625 -0.522537
v 0.236127 0.248223 -0.522886
v 0.248219 0.23608 -0.52276
v 0.260312 0.223974 -0.522614
v 0.325179 0.127164 -0.522125
v 0.335516 0.127164 -0.519057
v 0.0545114 0.333001 -0.525054
v 0.078729 0.333001 -0.52405
v 0.115039 0.325878 -0.52336
v 0.139257 0.308753 -0.52405
v 0.345719 0.0939837 -0.51942
v 0.345719 0.143662 -0.499971
v 0.341214 0.13927 -0.511017
v 0.329817 0.163519 -0.511351
v 0.316102 0.190942 -0.509789
v 0.314081 0.202309 -0.501868
v 0.30391 0.219545 -0.498611
v 0.30391 0.225598 -0.488883
v 0.309045 0.224343 -0.478897
v 0.302022 0.234087 -0.477816
v 0.304142 0.237889 -0.464608
v 0.299106 0.248112 -0.455222
v 0.042386 0.378177 -0.455222
v 0.042386 0.372788 -0.473465
v 0.0302937 0.371976 -0.478325
v 0.0181683 0.368322 -0.490431
v 0.00726875 0.368101 -0.490431
v 0.00726875 0.363487 -0.503611
v 0.0181683 0.363709 -0.504022
v 0.0307907 0.355552 -0.515794
v 0.0190297 0.352157 -0.518799
v 0.0666036 0.342487 -0.522279
v 0.0545114 0.352489 -0.516672
v 0.078729 0.341453 -0.521867
v 0.224002 0.248223 -0.523304
v 0.24981 0.249663 -0.520905
v 0.271708 0.223052 -0.52133
v 0.211876 0.260329 -0.523353
v 0.199784 0.272435 -0.523388
v 0.187626 0.284541 -0.523297
v 0.211876 0.272435 -0.522697
v 0.222908 0.271992 -0.521533
v 0.307819 0.177433 -0.520201
v 0.324119 0.151376 -0.51958
v 0.312855 0.153406 -0.521951
v 0.276214 0.213529 -0.521756
v 0.275286 0.226558 -0.519573
v 0.292679 0.202014 -0.519734
v 0.344229 0.110777 -0.516853
v 0.0908213 0.336618 -0.522446
v 0.133956 0.322851 -0.522258
v 0.153403 0.312628 -0.522376
v 0.1756 0.296647 -0.52299
v 0.345156 0.129489 -0.510159
v 0.320276 0.163519 -0.517823
v 0.304341 0.189096 -0.518527
v 0.308548 0.198803 -0.511735
v 0.301094 0.21316 -0.509225
v 0.293872 0.224749 -0.507391
v 0.280753 0.239956 -0.508402
v 0.276644 0.252283 -0.498688
v 0.291685 0.240805 -0.489016
v 0.290228 0.247891 -0.478325
v 0.29205 0.250844 -0.467579
v 0.289234 0.258484 -0.456756
v 0.277241 0.270737 -0.456805
v 0.240368 0.303327 -0.455975
v 0.224333 0.315322 -0.455222
v 0.0791266 0.3736 -0.455222
v 0.0666036 0.373859 -0.461456
v 0.0560022 0.37504 -0.461512
v 0.0545114 0.370168 -0.478325
v 0.042386 0.367363 -0.490431
v 0.0302937 0.368101 -0.490431
v 0.0302937 0.363635 -0.503876
v 0.042386 0.356106 -0.514238
v 0.0666036 0.351603 -0.515961
v 0.10341 0.341195 -0.517858
v 0.078729 0.350533 -0.514922
v 0.222246 0.277196 -0.520096
v 0.236326 0.267895 -0.518862
v 0.247988 0.259997 -0.517655
v 0.25998 0.247817 -0.517767
v 0.200082 0.285094 -0.522098
v 0.187129 0.296499 -0.521791
v 0.211876 0.28085 -0.521372
v 0.271708 0.2473 -0.511191
v 0.284562 0.224085 -0.515305
v 0.115039 0.340014 -0.516289
v 0.167549 0.31344 -0.520208
v 0.163507 0.309122 -0.522049
v 0.268329 0.256232 -0.505884
v 0.264453 0.264537 -0.498723
v 0.266971 0.270036 -0.482586
v 0.280521 0.256343 -0.482558
v 0.280819 0.262617 -0.467558
v 0.268727 0.274834 -0.467649
v 0.2676 0.279595 -0.458416
v 0.25892 0.286349 -0.460696
v 0.25034 0.291369 -0.466631
v 0.239308 0.300485 -0.466205
v 0.233245 0.305062 -0.466205
v 0.217276 0.316319 -0.46608
v 0.20694 0.326136 -0.456108
v 0.185273 0.338279 -0.456491
v 0.139853 0.35773 -0.455222
v 0.0919477 0.371017 -0.455222
v 0.078729 0.370463 -0.466205
v 0.0666036 0.368839 -0.478325
v 0.0545114 0.366292 -0.490431
v 0.042386 0.363229 -0.5026
v 0.0545114 0.362638 -0.501017
v 0.078729 0.358394 -0.502523
v 0.0908213 0.349352 -0.513325
v 0.101522 0.35164 -0.506993
v 0.204389 0.289523 -0.52034
v 0.211876 0.286903 -0.519008
v 0.236127 0.280998 -0.510745
v 0.259517 0.259591 -0.511289
v 0.127197 0.337947 -0.514218
v 0.149195 0.327502 -0.515849
v 0.189282 0.304582 -0.517446
v 0.177389 0.307719 -0.519978
v 0.1756 0.31905 -0.51269
v 0.256071 0.268117 -0.505835
v 0.257363 0.275535 -0.490598
v 0.257264 0.281071 -0.478325
v 0.246563 0.289228 -0.479915
v 0.227845 0.304065 -0.478925
v 0.238082 0.291258 -0.49108
v 0.223107 0.302035 -0.492174
v 0.212108 0.314953 -0.478325
v 0.202733 0.325177 -0.466205
v 0.194218 0.325509 -0.478444
v 0.182093 0.327354 -0.49117
v 0.170166 0.33791 -0.478862
v 0.1756 0.341822 -0.460152
v 0.158372 0.350385 -0.456003
v 0.14522 0.352341 -0.466359
v 0.127197 0.358542 -0.466205
v 0.127231 0.3619 -0.455222
v 0.103543 0.368581 -0.455222
v 0.0908213 0.36799 -0.466205
v 0.078729 0.366809 -0.478325
v 0.078729 0.363044 -0.48972
v 0.0659079 0.363008 -0.496163
v 0.0908213 0.355958 -0.502523
v 0.116033 0.351492 -0.497167
v 0.127197 0.345735 -0.502523
v 0.138064 0.339719 -0.507119
v 0.102947 0.357398 -0.490431
v 0.216249 0.294838 -0.511679
v 0.247027 0.274502 -0.507481
v 0.231522 0.289634 -0.504218
v 0.164004 0.328683 -0.508123
v 0.203495 0.304766 -0.510549
v 0.187659 0.316577 -0.507934
v 0.247789 0.284209 -0.489622
v 0.22377 0.296499 -0.502377
v 0.2134 0.303142 -0.503695
v 0.205549 0.314436 -0.489985
v 0.196107 0.316245 -0.499504
v 0.174573 0.326874 -0.501868
v 0.163474 0.336729 -0.490668
v 0.159399 0.339866 -0.486798
v 0.163507 0.34507 -0.466205
v 0.138329 0.351086 -0.477384
v 0.129384 0.350976 -0.486582
v 0.115039 0.358246 -0.478325
v 0.115967 0.363598 -0.461045
v 0.102715 0.362675 -0.474748
v 0.0896286 0.362786 -0.483541
v 0.139257 0.346177 -0.490431
v 0.152906 0.338427 -0.497788
f 1 2 3
f 1 3 7
f 1 7 13
f 1 13 24
f 1 24 40
f 1 40 68
f 1 68 104
f 1 104 105
f 1 105 69
f 1 69 41
f 1 41 25
f 1 25 15
f 1 15 8
f 1 8 4
f 1 4 2
f 2 5 9
f 2 9 14
f 2 14 16
f 2 16 10
f 2 10 6
f 2 6 3
f 2 4 5
f 3 6 7
f 4 8 5
f 5 8 9
f 6 10 11
f 6 11 7
f 7 11 12
f 7 12 13
f 8 14 9
f 8 15 14
f 10 16 17
f 10 17 18
f 10 18 19
f 10 19 20
f 10 20 21
f 10 21 22
f 10 22 38
f 10 38 64
f 10 64 99
f 10 99 145
f 10 145 183
f 10 183 218
f 10 218 219
f 10 219 184
f 10 184 146
f 10 146 100
f 10 100 65
f 10 65 39
f 10 39 24
f 10 24 13
f 10 13 11
f 11 23 12
f 11 13 23
f 12 23 13
f 14 15 25
f 14 25 16
f 16 26 17
f 16 25 26
f 17 26 27
f 17 27 28
f 17 28 18
f 18 28 27
f 18 27 29
f 18 29 30
f 18 30 31
f 18 31 32
f 18 32 19
f 19 33 34
f 19 34 35
f 19 35 20
f 19 32 54
f 19 54 88
f 19 88 89
f 19 89 55
f 19 55 33
f 20 35 36
f 20 36 21
f 21 36 22
f 22 36 37
f 22 37 38
f 24 39 40
f 25 41 42
f 25 42 43
f 25 43 44
f 25 44 29
f 25 29 27
f 25 27 26
f 29 44 30
f 30 45 46
f 30 46 47
f 30 47 48
f 30 48 49
f 30 49 50
f 30 50 51
f 30 51 31
f 30 44 52
f 30 52 45
f 31 51 32
f 32 51 53
f 32 53 54
f 33 55 34
f 34 55 56
f 34 56 57
f 34 57 35
f 35 57 58
f 35 58 36
f 36 58 37
f 37 59 60
f 37 60 38
f 37 58 61
f 37 61 59
f 38 60 62
f 38 62 63
f 38 63 64
f 39 65 66
f 39 66 67
f 39 67 40
f 40 67 68
f 41 69 70
f 41 70 71
f 41 71 42
f 42 71 43
f 43 72 52
f 43 52 44
f 43 71 73
f 43 73 72
f 45 74 75
f 45 75 46
f 45 52 76
f 45 76 74
f 46 75 79
f 46 79 47
f 47 77 78
f 47 78 48
f 47 79 80
f 47 80 81
f 47 81 77
f 48 78 49
f 49 54 53
f 49 53 50
f 49 78 82
f 49 82 83
f 49 83 54
f 50 53 51
f 52 72 84
f 52 84 85
f 52 85 86
f 52 86 87
f 52 87 76
f 54 83 88
f 55 89 56
f 56 89 90
f 56 90 91
f 56 91 92
f 56 92 57
f 57 92 93
f 57 93 61
f 57 61 58
f 59 61 93
f 59 93 94
f 59 94 95
f 59 95 96
f 59 96 60
f 60 96 62
f 62 96 97
f 62 97 98
f 62 98 63
f 63 98 64
f 64 98 99
f 65 100 66
f 66 100 101
f 66 101 102
f 66 102 67
f 67 102 103
f 67 103 68
f 68 103 104
f 69 105 106
f 69 106 107
f 69 107 108
f 69 108 70
f 70 108 71
f 71 109 73
f 71 108 107
f 71 107 110
f 71 110 111
f 71 111 109
f 72 73 84
f 73 109 85
f 73 85 84
f 74 112 75
f 74 76 112
f 75 113 114
f 75 114 79
f 75 112 115
f 75 115 116
f 75 116 117
f 75 117 118
f 75 118 119
f 75 119 113
f 76 87 116
f 76 116 115
f 76 115 112
f 77 120 121
f 77 121 122
f 77 122 78
f 77 81 123
f 77 123 114
f 77 114 124
f 77 124 125
f 77 125 120
f 78 122 82
f 79 114 80
f 80 114 81
f 81 114 123
f 82 122 121
f 82 121 83
f 83 121 90
f 83 90 126
f 83 126 88
f 85 127 86
f 85 109 127
f 86 128 129
f 86 129 87
f 86 127 128
f 87 129 130
f 87 130 117
f 87 117 116
f 88 126 131
f 88 131 89
f 89 131 90
f 90 131 126
f 90 121 91
f 91 121 132
f 91 132 133
f 91 133 92
f 92 133 134
f 92 134 135
f 92 135 93
f 93 135 94
f 94 135 136
f 94 136 137
f 94 137 138
f 94 138 139
f 94 139 95
f 95 139 97
f 95 97 96
f 97 139 140
f 97 140 98
f 98 140 141
f 98 141 99
f 99 141 142
f 99 142 143
f 99 143 144
f 99 144 145
f 100 146 147
f 100 147 148
f 100 148 101
f 101 149 150
f 101 150 102
f 101 148 149
f 102 150 151
f 102 151 103
f 103 151 152
f 103 152 106
f 103 106 104
f 104 106 105
f 106 152 107
f 107 153 110
f 107 152 153
f 109 111 127
f 110 153 154
f 110 154 111
f 111 155 127
f 111 154 156
f 111 156 155
f 113 119 157
f 113 157 158
f 113 158 159
f 113 159 160
f 113 160 124
f 113 124 114
f 117 130 118
f 118 130 161
f 118 161 119
f 119 161 162
f 119 162 163
f 119 163 157
f 120 125 133
f 120 133 121
f 121 133 132
f 124 160 164
f 124 164 165
f 124 165 133
f 124 133 125
f 127 155 128
f 128 155 166
f 128 166 167
f 128 167 168
f 128 168 129
f 129 168 130
f 130 168 162
f 130 162 161
f 133 165 134
f 134 165 135
f 135 165 164
f 135 164 137
f 135 137 136
f 137 164 169
f 137 169 138
f 138 169 170
f 138 170 171
f 138 171 172
f 138 172 139
f 139 172 140
f 140 172 141
f 141 172 173
f 141 173 142
f 142 173 143
f 143 173 174
f 143 174 175
f 143 175 144
f 144 175 176
f 144 176 177
f 144 177 178
f 144 178 179
f 144 179 145
f 145 179 180
f 145 180 181
f 145 181 182
f 145 182 183
f 146 184 185
f 146 185 147
f 147 185 186
f 147 186 148
f 148 186 149
f 149 186 187
f 149 187 150
f 150 187 188
f 150 188 152
f 150 152 151
f 152 188 153
f 153 188 189
f 153 189 190
f 153 190 154
f 154 190 156
f 155 156 191
f 155 191 166
f 156 190 192
f 156 192 191
f 157 163 193
f 157 193 194
f 157 194 195
f 157 195 158
f 158 195 159
f 159 195 196
f 159 196 160
f 160 196 164
f 162 193 163
f 162 168 167
f 162 167 193
f 164 196 169
f 166 197 198
f 166 198 167
f 166 191 192
f 166 192 197
f 167 199 200
f 167 200 193
f 167 198 201
f 167 201 199
f 169 196 202
f 169 202 170
f 170 202 203
f 170 203 171
f 171 203 204
f 171 204 174
f 171 174 172
f 172 174 173
f 174 204 175
f 175 204 176
f 176 204 177
f 177 204 205
f 177 205 178
f 178 206 179
f 178 205 207
f 178 207 206
f 179 206 180
f 180 206 208
f 180 208 209
f 180 209 210
f 180 210 181
f 181 210 182
f 182 210 211
f 182 211 212
f 182 212 213
f 182 213 214
f 182 214 215
f 182 215 183
f 183 215 216
f 183 216 217
f 183 217 218
f 184 219 220
f 184 220 185
f 185 220 221
f 185 221 186
f 186 221 222
f 186 222 223
f 186 223 187
f 187 223 189
f 187 189 188
f 189 223 190
f 190 224 192
f 190 223 222
f 190 222 224
f 192 225 226
f 192 226 227
f 192 227 197
f 192 224 228
f 192 228 225
f 193 200 199
f 193 199 194
f 194 199 229
f 194 229 195
f 195 230 202
f 195 202 196
f 195 229 231
f 195 231 230
f 197 227 232
f 197 232 198
f 198 232 201
f 199 201 233
f 199 233 229
f 201 232 234
f 201 234 233
f 202 230 231
f 202 231 235
f 202 235 203
f 203 235 204
f 204 235 205
f 205 235 207
f 206 207 208
f 207 235 231
f 207 231 236
f 207 236 208
f 208 236 237
f 208 237 238
f 208 238 209
f 209 238 210
f 210 238 211
f 211 238 239
f 211 239 212
f 212 239 240
f 212 240 241
f 212 241 213
f 213 241 242
f 213 242 243
f 213 243 214
f 214 243 215
f 215 243 216
f 216 244 217
f 216 243 242
f 216 242 244
f 217 244 245
f 217 245 246
f 217 246 247
f 217 247 218
f 218 247 219
f 219 247 248
f 219 248 220
f 220 248 249
f 220 249 221
f 221 249 222
f 222 249 224
f 224 249 228
f 225 245 226
f 225 228 246
f 225 246 245
f 226 245 250
f 226 250 251
f 226 251 227
f 227 251 232
f 228 249 248
f 228 248 246
f 229 237 231
f 229 233 237
f 231 237 236
f 232 240 234
f 232 251 240
f 233 234 237
f 234 239 237
f 234 240 239
f 237 239 238
f 240 251 241
f 241 251 242
f 242 251 250
f 242 250 244
f 244 250 245
f 246 248 247
