v -0.537577 0.398121 0.381748
v -0.638825 0.398083 0.397323
v -0.514152 0.39793 0.381748
v -0.451738 0.398083 0.366198
v -0.43485 0.398045 0.239742
v -0.662172 0.398121 0.239742
v -0.638825 0.391658 0.419896
v -0.607618 0.394335 0.412898
v -0.607618 0.397777 0.397323
v -0.662172 0.397968 0.358411
v -0.662172 0.397089 0.389535
v -0.666375 0.387796 0.422645
v -0.475163 0.397394 0.381748
v -0.420686 0.3977 0.366198
v -0.401231 0.398006 0.342836
v -0.397262 0.397892 0.303874
v -0.403098 0.397739 0.276618
v -0.373992 0.396821 0.288299
v 0.0225174 0.380645 0.389739
v -0.404655 0.396247 0.239742
v -0.726143 0.374718 0.239742
v -0.684118 0.394488 0.2402
v -0.684352 0.394412 0.303874
v -0.631043 0.37835 0.440841
v -0.514152 0.377547 0.440815
v -0.576489 0.389976 0.421601
v -0.54318 0.389593 0.420787
v -0.490805 0.388943 0.419209
v -0.451738 0.388446 0.417835
v -0.490805 0.391811 0.411421
v -0.451738 0.391238 0.410047
v -0.514152 0.396247 0.397323
v -0.537577 0.396783 0.397323
v -0.686142 0.393188 0.327261
v -0.683963 0.392347 0.358411
v -0.687543 0.38684 0.393811
v -0.705209 0.374029 0.405288
v -0.679449 0.374565 0.436871
v -0.65439 0.374106 0.444276
v -0.451738 0.396936 0.381748
v -0.397262 0.397241 0.366198
v -0.373992 0.396936 0.358411
v -0.381619 0.397509 0.327261
v -0.335159 0.395712 0.350624
v -0.428469 0.396362 0.381748
v -0.345898 0.38967 0.405492
v 0.0225174 0.372041 0.422212
v 0.0225174 0.376324 0.367598
v -0.381619 0.393685 0.239742
v -0.724509 0.373838 0.350624
v -0.708944 0.382366 0.342836
v -0.743887 0.358236 0.239742
v -0.733225 0.368599 0.327261
v -0.65439 0.356477 0.461531
v -0.50637 0.354565 0.464228
v -0.451738 0.362939 0.456415
v -0.514152 0.37074 0.448603
v -0.46738 0.37074 0.448323
v -0.428469 0.37074 0.448017
v -0.490805 0.377318 0.440713
v -0.397262 0.37074 0.447712
v -0.373992 0.37074 0.447432
v -0.50637 0.38489 0.428472
v -0.444033 0.38336 0.428472
v -0.350645 0.380951 0.428472
v -0.319438 0.380109 0.428472
v -0.428469 0.389517 0.41305
v -0.720618 0.371658 0.375793
v -0.732836 0.360109 0.389001
v -0.728867 0.350932 0.423128
v -0.713146 0.350702 0.444913
v -0.689021 0.356974 0.453387
v -0.139199 0.358695 0.452191
v 0.0225174 0.355712 0.445727
v -0.280604 0.374029 0.438347
v 0.0225174 0.364278 0.346577
v -0.280604 0.38183 0.239742
v -0.351657 0.390282 0.239742
v -0.742097 0.358083 0.358411
v -0.768168 0.309937 0.239742
v -0.75665 0.334947 0.366198
v -0.750113 0.34619 0.37396
v -0.650499 0.32726 0.479854
v -0.529717 0.350817 0.467282
v -0.679605 0.340492 0.469293
v -0.475163 0.354297 0.464228
v -0.428469 0.362939 0.456339
v -0.451738 0.376821 0.440408
v -0.373992 0.375865 0.439645
v -0.405122 0.376247 0.440001
v -0.280604 0.362136 0.454965
v -0.311656 0.367681 0.448959
v -0.742719 0.353303 0.381748
v -0.744354 0.342824 0.410963
v -0.747077 0.326878 0.432163
v -0.726843 0.325081 0.455983
v -0.696414 0.326457 0.470794
v -0.202703 0.360301 0.453667
v 0.0225174 0.334947 0.461251
v 0.0225174 0.339765 0.315122
v -0.24893 0.373417 0.239742
v -0.772059 0.279115 0.239742
v -0.770035 0.296018 0.397323
v -0.763887 0.320339 0.397323
v -0.638825 0.296018 0.487921
v -0.560924 0.303819 0.486496
v -0.525826 0.311543 0.484639
v -0.54139 0.32726 0.480083
v -0.510183 0.340874 0.473517
v -0.669332 0.308561 0.483239
v -0.475163 0.346496 0.469751
v -0.451738 0.353953 0.464203
v -0.249397 0.358809 0.456314
v -0.428469 0.353608 0.464127
v -0.381619 0.3525 0.46377
v -0.342941 0.351543 0.46349
v -0.76163 0.307987 0.422263
v -0.7477 0.303819 0.4442
v -0.713302 0.310779 0.468758
v -0.736182 0.303819 0.455194
v -0.684585 0.292232 0.483213
v 0.0225174 0.310587 0.467791
v -0.214299 0.34531 0.463439
v -0.288387 0.342404 0.467257
v -0.272744 0.319383 0.477182
v -0.233755 0.319383 0.475935
v -0.296169 0.307605 0.482145
v -0.264962 0.305387 0.481686
v 0.0225174 0.318924 0.30227
v -0.228541 0.361065 0.239742
v -0.772526 0.132461 0.239742
v -0.765833 0.288255 0.417351
v -0.770658 0.00745081 0.397323
v -0.646608 0.264851 0.492808
v -0.627152 0.264851 0.494233
v -0.576489 0.288255 0.489627
v -0.537577 0.280415 0.490823
v -0.490805 0.303819 0.48586
v -0.592053 0.25705 0.495811
v -0.564815 0.264851 0.49408
v -0.378895 0.311505 0.48301
v -0.45952 0.334947 0.475426
v -0.451738 0.34619 0.469445
v -0.662172 0.280415 0.488532
v -0.264962 0.348293 0.463338
v -0.420686 0.345616 0.469013
v -0.381619 0.344737 0.468504
v -0.760152 0.272652 0.429592
v -0.742019 0.284545 0.454049
v -0.716882 0.280415 0.471787
v -0.684508 0.264851 0.485249
v -0.230019 0.29923 0.481737
v -0.182002 0.281945 0.482323
v -0.157021 0.266495 0.482297
v 0.0225174 0.288255 0.468733
v -0.308465 0.342939 0.467537
v -0.381619 0.334947 0.473263
v -0.319438 0.319383 0.478556
v -0.313602 0.299765 0.484053
v -0.272744 0.298121 0.483442
v 0.0225174 0.295559 0.292294
v -0.208229 0.341142 0.239742
v -0.772526 0.00745081 0.239742
v -0.764743 0.00745081 0.419209
v -0.760152 0.054602 0.429592
v -0.646608 0.233685 0.494895
v -0.624117 0.229134 0.498865
v -0.587617 0.237471 0.498457
v -0.444033 0.288255 0.488201
v -0.412904 0.303819 0.484893
v -0.521935 0.25705 0.494767
v -0.482945 0.272652 0.491586
v -0.397262 0.288255 0.487565
v -0.350645 0.343972 0.468097
v -0.744743 0.0923459 0.454609
v -0.741396 0.253149 0.456772
v -0.708944 0.0154432 0.476444
v -0.693146 0.0389614 0.482908
v -0.729723 0.0857302 0.466112
v -0.677815 0.0701278 0.487183
v -0.210408 0.272652 0.484333
v -0.272744 0.288255 0.484715
v -0.233755 0.25705 0.485733
v 0.0225174 0.0149843 0.466264
v 0.0225174 0.210319 0.468733
v -0.335159 0.288255 0.486344
v -0.373992 0.288255 0.487133
v 0.0225174 0.265081 0.289342
v -0.192586 0.319153 0.239742
v -0.552364 0.00745081 0.239742
v -0.748089 0.00745081 0.444429
v -0.646608 0.124698 0.494869
v -0.630342 0.163627 0.498457
v -0.615478 0.187031 0.49973
v -0.590653 0.202595 0.499424
v -0.56287 0.210319 0.498534
v -0.490805 0.241448 0.495404
v -0.451738 0.25705 0.493062
v -0.482945 0.25705 0.493902
v -0.405122 0.272652 0.490059
v -0.729256 0.0389614 0.465297
v -0.729645 0.0623649 0.465933
v -0.65439 0.00745081 0.483137
v -0.690889 0.0197262 0.482475
v -0.730501 0.00745081 0.46148
v -0.677815 0.054602 0.486853
v -0.288387 0.25705 0.487743
v -0.249397 0.272652 0.48558
v -0.397262 0.25705 0.491383
v -0.381619 0.272652 0.489474
v -0.303874 0.272652 0.487209
v -0.389479 0.241448 0.49179
v -0.350645 0.241448 0.490314
v -0.319438 0.241448 0.489092
v -0.280604 0.241448 0.487489
v -0.0332041 0.00745081 0.46774
v 0.0225174 0.00745081 0.309803
v -0.50637 0.163627 0.4952
v -0.592443 0.13747 0.498127
v 0.0225174 0.202595 0.289698
v -0.188228 0.294335 0.239742
v -0.22535 0.232996 0.239742
v -0.646608 0.101333 0.494106
v -0.624039 0.144621 0.498788
v -0.615478 0.163627 0.499628
v -0.589018 0.174373 0.498941
v -0.537577 0.210319 0.497516
v -0.412904 0.225883 0.49268
v -0.451738 0.225883 0.494233
v -0.498588 0.225883 0.49604
v -0.451738 0.241448 0.494055
v -0.62365 0.00745081 0.482908
v -0.623261 0.112996 0.496447
v -0.381619 0.225883 0.491408
v -0.342941 0.225883 0.489779
v -0.50637 0.179268 0.495633
v -0.0857348 0.00745081 0.46914
v -0.592053 0.116935 0.49632
v 0.0225174 0.0389614 0.304637
v 0.0225174 0.0933019 0.296722
v -0.197178 0.267375 0.239742
v -0.209707 0.248293 0.239742
v 0.0225174 0.0710074 0.29942
v -0.490805 0.210319 0.495633
v -0.592209 0.00745081 0.482272
v -0.45952 0.210319 0.494335
v -0.428469 0.210319 0.493037
v -0.17959 0.00745081 0.471583
v -0.568706 0.00745081 0.481686
v -0.475552 0.00745081 0.479269
f 1 2 3
f 1 3 4
f 1 4 5
f 1 5 6
f 1 6 2
f 2 7 8
f 2 8 9
f 2 9 3
f 2 6 10
f 2 10 11
f 2 11 12
f 2 12 7
f 3 9 13
f 3 13 14
f 3 14 4
f 4 14 15
f 4 15 5
f 5 15 16
f 5 16 17
f 5 17 18
f 5 18 19
f 5 19 20
f 5 20 49
f 5 49 78
f 5 78 77
f 5 77 101
f 5 101 130
f 5 130 162
f 5 162 189
f 5 189 221
f 5 221 241
f 5 241 242
f 5 242 222
f 5 222 190
f 5 190 163
f 5 163 131
f 5 131 102
f 5 102 80
f 5 80 52
f 5 52 21
f 5 21 6
f 6 21 22
f 6 22 23
f 6 23 10
f 7 24 25
f 7 25 26
f 7 26 8
f 7 12 24
f 8 26 27
f 8 27 28
f 8 28 29
f 8 29 30
f 8 30 31
f 8 31 32
f 8 32 33
f 8 33 9
f 9 33 13
f 10 23 11
f 11 23 34
f 11 34 35
f 11 35 36
f 11 36 12
f 12 36 37
f 12 37 38
f 12 38 39
f 12 39 24
f 13 40 41
f 13 41 14
f 13 33 40
f 14 41 15
f 15 41 42
f 15 42 43
f 15 43 16
f 16 43 18
f 16 18 17
f 18 43 19
f 19 44 42
f 19 42 41
f 19 41 45
f 19 45 46
f 19 46 47
f 19 47 74
f 19 74 99
f 19 99 122
f 19 122 155
f 19 155 185
f 19 185 184
f 19 184 217
f 19 217 239
f 19 239 243
f 19 243 240
f 19 240 220
f 19 220 188
f 19 188 161
f 19 161 129
f 19 129 100
f 19 100 76
f 19 76 48
f 19 48 20
f 19 43 44
f 20 48 49
f 21 50 51
f 21 51 23
f 21 23 22
f 21 52 53
f 21 53 50
f 23 51 34
f 24 39 54
f 24 54 55
f 24 55 56
f 24 56 57
f 24 57 58
f 24 58 59
f 24 59 25
f 25 60 26
f 25 59 61
f 25 61 62
f 25 62 60
f 26 60 63
f 26 63 27
f 27 63 64
f 27 64 65
f 27 65 28
f 28 65 66
f 28 66 29
f 29 66 47
f 29 47 67
f 29 67 31
f 29 31 30
f 31 67 46
f 31 46 32
f 32 46 45
f 32 45 40
f 32 40 33
f 34 51 35
f 35 51 36
f 36 51 50
f 36 50 68
f 36 68 37
f 37 68 69
f 37 69 70
f 37 70 71
f 37 71 38
f 38 71 72
f 38 72 39
f 39 72 54
f 40 45 41
f 42 44 43
f 46 67 47
f 47 73 74
f 47 66 75
f 47 75 73
f 48 76 77
f 48 77 78
f 48 78 49
f 50 53 79
f 50 79 69
f 50 69 68
f 52 80 81
f 52 81 82
f 52 82 79
f 52 79 53
f 54 83 84
f 54 84 55
f 54 72 85
f 54 85 83
f 55 84 86
f 55 86 87
f 55 87 56
f 56 87 57
f 57 87 58
f 58 87 59
f 59 87 61
f 60 62 88
f 60 88 63
f 61 87 62
f 62 89 90
f 62 90 88
f 62 87 91
f 62 91 92
f 62 92 75
f 62 75 89
f 63 88 90
f 63 90 89
f 63 89 64
f 64 89 65
f 65 89 75
f 65 75 66
f 69 79 93
f 69 93 94
f 69 94 70
f 70 94 95
f 70 95 71
f 71 96 72
f 71 95 96
f 72 96 97
f 72 97 85
f 73 98 99
f 73 99 74
f 73 75 98
f 75 92 98
f 76 100 101
f 76 101 77
f 79 82 93
f 80 102 103
f 80 103 104
f 80 104 81
f 81 104 82
f 82 104 94
f 82 94 93
f 83 105 106
f 83 106 107
f 83 107 108
f 83 108 109
f 83 109 84
f 83 85 110
f 83 110 105
f 84 109 111
f 84 111 86
f 85 97 110
f 86 111 112
f 86 112 87
f 87 112 91
f 91 113 98
f 91 98 92
f 91 112 114
f 91 114 115
f 91 115 116
f 91 116 113
f 94 104 95
f 95 104 117
f 95 117 118
f 95 118 96
f 96 119 97
f 96 118 120
f 96 120 119
f 97 119 121
f 97 121 110
f 98 113 99
f 99 113 123
f 99 123 124
f 99 124 125
f 99 125 126
f 99 126 127
f 99 127 128
f 99 128 122
f 100 129 101
f 101 129 130
f 102 131 103
f 103 132 117
f 103 117 104
f 103 131 133
f 103 133 132
f 105 110 134
f 105 134 135
f 105 135 136
f 105 136 106
f 106 137 138
f 106 138 107
f 106 136 139
f 106 139 140
f 106 140 137
f 107 138 141
f 107 141 108
f 108 141 142
f 108 142 109
f 109 142 143
f 109 143 111
f 110 121 144
f 110 144 134
f 111 143 114
f 111 114 112
f 113 116 145
f 113 145 123
f 114 143 115
f 115 143 116
f 116 143 146
f 116 146 147
f 116 147 145
f 117 132 148
f 117 148 118
f 118 148 149
f 118 149 120
f 119 120 150
f 119 150 121
f 120 149 150
f 121 151 134
f 121 134 144
f 121 150 151
f 122 128 152
f 122 152 153
f 122 153 154
f 122 154 155
f 123 145 124
f 124 145 156
f 124 156 142
f 124 142 157
f 124 157 158
f 124 158 125
f 125 158 127
f 125 127 126
f 127 158 141
f 127 141 159
f 127 159 160
f 127 160 128
f 128 160 152
f 129 161 130
f 130 161 162
f 131 163 133
f 132 133 164
f 132 164 165
f 132 165 148
f 133 163 190
f 133 190 217
f 133 217 216
f 133 216 237
f 133 237 248
f 133 248 250
f 133 250 249
f 133 249 245
f 133 245 232
f 133 232 203
f 133 203 205
f 133 205 191
f 133 191 164
f 134 166 167
f 134 167 135
f 134 151 166
f 135 167 168
f 135 168 139
f 135 139 136
f 137 140 138
f 138 140 169
f 138 169 170
f 138 170 141
f 139 168 171
f 139 171 172
f 139 172 140
f 140 172 169
f 141 170 169
f 141 169 173
f 141 173 159
f 141 158 142
f 142 158 157
f 142 156 174
f 142 174 147
f 142 147 146
f 142 146 143
f 145 147 174
f 145 174 156
f 148 165 175
f 148 175 176
f 148 176 149
f 149 176 150
f 150 177 178
f 150 178 151
f 150 176 179
f 150 179 177
f 151 178 180
f 151 180 166
f 152 160 153
f 153 181 154
f 153 160 182
f 153 182 181
f 154 181 183
f 154 183 184
f 154 184 185
f 154 185 155
f 159 186 160
f 159 173 187
f 159 187 186
f 160 186 182
f 161 188 189
f 161 189 162
f 164 191 165
f 165 191 175
f 166 192 193
f 166 193 167
f 166 180 192
f 167 193 194
f 167 194 195
f 167 195 168
f 168 195 196
f 168 196 197
f 168 197 198
f 168 198 199
f 168 199 171
f 169 172 173
f 171 199 200
f 171 200 186
f 171 186 187
f 171 187 173
f 171 173 172
f 175 201 202
f 175 202 179
f 175 179 176
f 175 191 201
f 177 203 204
f 177 204 178
f 177 179 202
f 177 202 201
f 177 201 205
f 177 205 203
f 178 204 206
f 178 206 180
f 180 206 192
f 181 207 183
f 181 182 208
f 181 208 209
f 181 209 197
f 181 197 207
f 182 186 210
f 182 210 211
f 182 211 208
f 183 207 212
f 183 212 213
f 183 213 214
f 183 214 215
f 183 215 184
f 184 216 217
f 184 215 218
f 184 218 219
f 184 219 216
f 186 200 210
f 188 220 221
f 188 221 189
f 190 222 217
f 191 205 201
f 192 223 224
f 192 224 193
f 192 206 223
f 193 224 225
f 193 225 194
f 194 225 195
f 195 225 226
f 195 226 196
f 196 227 228
f 196 228 214
f 196 214 229
f 196 229 230
f 196 230 197
f 196 226 227
f 197 230 231
f 197 231 207
f 197 209 198
f 198 209 208
f 198 208 211
f 198 211 210
f 198 210 199
f 199 210 200
f 203 232 233
f 203 233 223
f 203 223 204
f 204 223 206
f 207 231 212
f 212 231 230
f 212 230 213
f 213 230 229
f 213 229 214
f 214 228 234
f 214 234 215
f 215 234 235
f 215 235 236
f 215 236 218
f 216 219 238
f 216 238 237
f 217 222 239
f 218 236 219
f 219 226 225
f 219 225 224
f 219 224 233
f 219 233 238
f 219 236 226
f 220 240 221
f 221 240 241
f 222 242 243
f 222 243 239
f 223 233 224
f 226 236 244
f 226 244 227
f 227 244 228
f 228 244 234
f 232 245 233
f 233 245 238
f 234 244 246
f 234 246 247
f 234 247 236
f 234 236 235
f 236 247 246
f 236 246 244
f 237 238 248
f 238 245 249
f 238 249 250
f 238 250 248
f 240 243 242
f 240 242 241
