v 0.519748 -0.24149 0.482777
v 0.519748 -0.228145 0.482693
v 0.506409 -0.24149 0.482777
v 0.519748 -0.288237 0.482777
v 0.519748 -0.22592 0.482608
v 0.428606 -0.272556 0.482495
v 0.459674 -0.272667 0.482693
v 0.475244 -0.272667 0.482777
v 0.475244 -0.288237 0.482777
v 0.519748 -0.290498 0.482608
v 0.519748 -0.212575 0.481791
v 0.428606 -0.272667 0.482495
v 0.519748 -0.21035 0.481565
v 0.519748 -0.197042 0.479903
v 0.519748 -0.194781 0.479593
v 0.428606 -0.010759 0.446115
v 0.428606 -0.288163 0.48165
v 0.490831 -0.303844 0.481481
v 0.506409 -0.303844 0.481594
v 0.519748 -0.303844 0.481594
v 0.519748 -0.148034 0.472942
v 0.519748 -0.132278 0.470632
v 0.490831 -0.010759 0.450539
v 0.428606 -0.010759 0.295464
v 0.428606 -0.303733 0.47793
v 0.475244 -0.303844 0.480833
v 0.490831 -0.319414 0.47638
v 0.506409 -0.319414 0.476521
v 0.519748 -0.319414 0.476521
v 0.519748 -0.112668 0.467644
v 0.518071 -0.010759 0.451356
v 0.519748 -0.107737 0.466884
v 0.430159 -0.010759 0.295098
v 0.428606 -0.211574 0.194946
v 0.428606 -0.303844 0.477902
v 0.475244 -0.319414 0.475732
v 0.428606 -0.339025 0.466123
v 0.475244 -0.332352 0.469983
v 0.475244 -0.340174 0.466123
v 0.519748 -0.333501 0.469476
v 0.519748 -0.010759 0.451356
v 0.448575 -0.010759 0.293012
v 0.519748 -0.196189 0.194946
v 0.428606 -0.382213 0.194946
v 0.428606 -0.319414 0.472745
v 0.428606 -0.33124 0.4688
v 0.428606 -0.350591 0.459078
v 0.475244 -0.350591 0.460656
v 0.490831 -0.350591 0.460909
v 0.519748 -0.341657 0.46539
v 0.519748 -0.010759 0.289265
v 0.459674 -0.010759 0.292195
v 0.519748 -0.387254 0.194946
v 0.519748 -0.389367 0.238259
v 0.519748 -0.389442 0.241527
v 0.428606 -0.382213 0.19503
v 0.428606 -0.358932 0.452624
v 0.475244 -0.360711 0.454203
v 0.490831 -0.361342 0.454456
v 0.506409 -0.361786 0.454456
v 0.519748 -0.361935 0.454456
v 0.519748 -0.350591 0.460909
v 0.519748 -0.389442 0.319445
v 0.428606 -0.381175 0.397335
v 0.506409 -0.369571 0.445185
v 0.428606 -0.36338 0.444086
v 0.497496 -0.374094 0.436618
v 0.506409 -0.374502 0.437407
v 0.519748 -0.36972 0.445749
v 0.519748 -0.389034 0.335818
v 0.506409 -0.382101 0.412919
v 0.490831 -0.381471 0.412919
v 0.428606 -0.378098 0.412919
v 0.506409 -0.387551 0.350584
v 0.519748 -0.388181 0.350584
v 0.506409 -0.386439 0.366168
v 0.475244 -0.382732 0.397335
v 0.519748 -0.374798 0.437943
v 0.428606 -0.370572 0.429686
v 0.428606 -0.374502 0.421795
v 0.491714 -0.376652 0.429348
v 0.506409 -0.378209 0.428502
v 0.519748 -0.382213 0.412919
v 0.519748 -0.379099 0.426248
v 0.519748 -0.378543 0.428502
v 0.519748 -0.386772 0.366168
v 0.519748 -0.375317 0.436675
f 1 2 3
f 1 3 8
f 1 8 9
f 1 9 4
f 1 4 10
f 1 10 20
f 1 20 29
f 1 29 40
f 1 40 50
f 1 50 62
f 1 62 61
f 1 61 69
f 1 69 78
f 1 78 87
f 1 87 85
f 1 85 84
f 1 84 83
f 1 83 86
f 1 86 75
f 1 75 70
f 1 70 63
f 1 63 55
f 1 55 54
f 1 54 53
f 1 53 43
f 1 43 51
f 1 51 41
f 1 41 32
f 1 32 30
f 1 30 22
f 1 22 21
f 1 21 15
f 1 15 14
f 1 14 13
f 1 13 11
f 1 11 5
f 1 5 2
f 2 5 6
f 2 6 3
f 3 6 7
f 3 7 8
f 4 9 10
f 5 11 6
f 6 12 7
f 6 11 13
f 6 13 14
f 6 14 15
f 6 15 16
f 6 16 24
f 6 24 34
f 6 34 44
f 6 44 56
f 6 56 64
f 6 64 73
f 6 73 80
f 6 80 79
f 6 79 66
f 6 66 57
f 6 57 47
f 6 47 37
f 6 37 46
f 6 46 45
f 6 45 35
f 6 35 25
f 6 25 17
f 6 17 12
f 7 12 9
f 7 9 8
f 9 12 17
f 9 17 18
f 9 18 19
f 9 19 10
f 10 19 20
f 15 21 16
f 16 21 22
f 16 22 23
f 16 23 31
f 16 31 41
f 16 41 51
f 16 51 52
f 16 52 42
f 16 42 33
f 16 33 24
f 17 25 26
f 17 26 18
f 18 26 36
f 18 36 27
f 18 27 28
f 18 28 19
f 19 28 29
f 19 29 20
f 22 30 23
f 23 30 32
f 23 32 31
f 24 33 34
f 25 35 26
f 26 35 36
f 27 36 37
f 27 37 38
f 27 38 28
f 28 38 39
f 28 39 40
f 28 40 29
f 31 32 41
f 33 42 34
f 34 43 53
f 34 53 44
f 34 42 43
f 35 45 36
f 36 45 46
f 36 46 37
f 37 47 48
f 37 48 49
f 37 49 39
f 37 39 38
f 39 49 40
f 40 49 50
f 42 52 43
f 43 52 51
f 44 53 54
f 44 54 55
f 44 55 63
f 44 63 56
f 47 57 58
f 47 58 59
f 47 59 48
f 48 59 60
f 48 60 49
f 49 60 61
f 49 61 62
f 49 62 50
f 56 63 64
f 57 65 58
f 57 66 67
f 57 67 68
f 57 68 65
f 58 65 59
f 59 65 69
f 59 69 60
f 60 69 61
f 63 70 64
f 64 71 72
f 64 72 73
f 64 70 74
f 64 74 75
f 64 75 76
f 64 76 77
f 64 77 71
f 65 68 78
f 65 78 69
f 66 79 67
f 67 80 81
f 67 81 68
f 67 79 80
f 68 81 82
f 68 82 78
f 70 75 74
f 71 83 84
f 71 84 85
f 71 85 82
f 71 82 72
f 71 77 76
f 71 76 86
f 71 86 83
f 72 82 73
f 73 82 80
f 75 86 76
f 78 82 87
f 80 82 81
f 82 85 87
