v 0.221189 -0.303812 0.194946
v 0.221189 -0.288031 0.194946
v 0.22266 -0.319414 0.194946
v 0.0225174 -0.225087 0.290598
v 0.0225174 -0.210359 0.28995
v 0.221507 -0.272688 0.194946
v 0.226238 -0.334996 0.194946
v 0.0225174 -0.225981 0.290683
v 0.0225174 -0.209525 0.290007
v 0.221547 -0.272548 0.194946
v 0.231008 -0.346066 0.194946
v 0.0225174 -0.239039 0.29367
v 0.0225174 -0.193744 0.292064
v 0.227669 -0.257384 0.194946
v 0.231087 -0.346186 0.194946
v 0.0225174 -0.255038 0.301079
v 0.0225174 -0.239576 0.293867
v 0.0225174 -0.179175 0.294768
v 0.233909 -0.249652 0.194946
v 0.231167 -0.346265 0.194946
v 0.0225174 -0.335592 0.346919
v 0.0225174 -0.328417 0.341933
v 0.0225174 -0.318678 0.335706
v 0.0225174 -0.300473 0.324915
v 0.0225174 -0.286163 0.316998
v 0.0225174 -0.270362 0.308715
v 0.0225174 -0.256768 0.301925
v 0.0225174 -0.179175 0.471705
v 0.0234714 -0.179175 0.294543
v 0.29584 -0.218111 0.194946
v 0.288049 -0.220615 0.194946
v 0.28793 -0.220655 0.194946
v 0.272507 -0.226379 0.194946
v 0.261218 -0.231685 0.194946
v 0.253268 -0.236336 0.194946
v 0.24174 -0.244048 0.194946
v 0.233989 -0.249593 0.194946
v 0.239713 -0.353957 0.194946
v 0.0225174 -0.34543 0.354893
v 0.0225174 -0.241543 0.481537
v 0.038974 -0.241543 0.481791
v 0.0545561 -0.241543 0.482016
v 0.0857204 -0.241543 0.482326
v 0.101302 -0.225941 0.479847
v 0.116885 -0.225941 0.479847
v 0.132467 -0.225941 0.479819
v 0.194795 -0.241543 0.482439
v 0.210417 -0.241543 0.482298
v 0.194795 -0.225941 0.479284
v 0.210417 -0.225941 0.479002
v 0.241462 -0.225941 0.478157
v 0.272666 -0.225941 0.477283
v 0.428606 -0.179175 0.460068
v 0.0545561 -0.179175 0.291951
v 0.350417 -0.211651 0.194946
v 0.334835 -0.212327 0.194946
v 0.319412 -0.214255 0.194946
v 0.303751 -0.216799 0.194946
v 0.247623 -0.359502 0.194946
v 0.0225174 -0.345768 0.355203
v 0.0225174 -0.257105 0.482721
v 0.101302 -0.241543 0.482411
v 0.116885 -0.241543 0.482439
v 0.288248 -0.257105 0.482777
v 0.22592 -0.241543 0.482045
v 0.30383 -0.257105 0.482636
v 0.319412 -0.257105 0.482411
v 0.241462 -0.241543 0.481763
v 0.272666 -0.241543 0.481171
v 0.288248 -0.241543 0.480861
v 0.30383 -0.241543 0.480467
v 0.319412 -0.241543 0.479932
v 0.428606 -0.257105 0.480101
v 0.428606 -0.179175 0.280597
v 0.0701382 -0.179175 0.290683
v 0.0857204 -0.179175 0.28981
v 0.101302 -0.179175 0.289387
v 0.428328 -0.211631 0.194946
v 0.257044 -0.364987 0.194946
v 0.0225174 -0.354513 0.365825
v 0.0225174 -0.272688 0.481537
v 0.038974 -0.272688 0.481678
v 0.101302 -0.272688 0.482073
v 0.148089 -0.272688 0.482355
v 0.210417 -0.272688 0.482721
v 0.038974 -0.257105 0.482777
v 0.397323 -0.272688 0.482777
v 0.412905 -0.272688 0.482721
v 0.428606 -0.272648 0.482467
v 0.366159 -0.257105 0.481537
v 0.397323 -0.257105 0.480946
v 0.412905 -0.257105 0.48058
v 0.428606 -0.211631 0.194946
v 0.257163 -0.365047 0.194946
v 0.0225174 -0.359164 0.372474
v 0.0225174 -0.273562 0.48134
v 0.179213 -0.28825 0.479875
v 0.210417 -0.28825 0.480213
v 0.22592 -0.28825 0.480354
v 0.257044 -0.28825 0.48058
v 0.288248 -0.28825 0.480777
v 0.412905 -0.28825 0.481537
v 0.428606 -0.28815 0.481622
v 0.22592 -0.272688 0.482749
v 0.241462 -0.272688 0.482777
v 0.428606 -0.382219 0.194946
v 0.271036 -0.371705 0.194946
v 0.278827 -0.374468 0.194946
v 0.278946 -0.374508 0.194946
v 0.0268502 -0.359999 0.370952
v 0.0225174 -0.362026 0.380194
v 0.0225174 -0.28825 0.477734
v 0.038974 -0.28825 0.477987
v 0.0857204 -0.28825 0.478664
v 0.116885 -0.28825 0.479086
v 0.241462 -0.303812 0.475762
v 0.350576 -0.319414 0.472212
v 0.381701 -0.303812 0.47748
v 0.397323 -0.303812 0.477649
v 0.412905 -0.303812 0.47779
v 0.428606 -0.303713 0.477903
v 0.428606 -0.381166 0.397324
v 0.350576 -0.382219 0.194946
v 0.288248 -0.377171 0.194946
v 0.0225174 -0.362165 0.380616
v 0.0225174 -0.304468 0.472324
v 0.179213 -0.326966 0.467338
v 0.163631 -0.318778 0.469817
v 0.22592 -0.319414 0.470578
v 0.194795 -0.303812 0.47517
v 0.350576 -0.330882 0.468605
v 0.366159 -0.33112 0.46869
v 0.397323 -0.319414 0.472662
v 0.428487 -0.303812 0.477875
v 0.428606 -0.303812 0.477875
v 0.428606 -0.378125 0.412904
v 0.163631 -0.381166 0.397324
v 0.334994 -0.38212 0.194946
v 0.148089 -0.381086 0.381743
v 0.30383 -0.380391 0.194946
v 0.038974 -0.366239 0.381743
v 0.0225174 -0.365762 0.397324
v 0.0225174 -0.315737 0.468521
v 0.116885 -0.325436 0.46683
v 0.350576 -0.338673 0.466013
v 0.272666 -0.329053 0.468098
v 0.288248 -0.329411 0.468211
v 0.272666 -0.319414 0.471226
v 0.366159 -0.338891 0.466098
v 0.381701 -0.33122 0.468746
v 0.412905 -0.319414 0.472719
v 0.428606 -0.319414 0.472719
v 0.428606 -0.374508 0.421779
v 0.163631 -0.378125 0.412904
v 0.148089 -0.380907 0.397324
v 0.319412 -0.381702 0.194946
v 0.148089 -0.380728 0.366163
v 0.132467 -0.380092 0.381743
v 0.148089 -0.379278 0.350582
v 0.132467 -0.376912 0.350582
v 0.108219 -0.37411 0.357598
v 0.0701382 -0.369042 0.366163
v 0.0545561 -0.368883 0.381743
v 0.0869129 -0.372103 0.367402
v 0.0929152 -0.37405 0.373404
v 0.0906494 -0.374368 0.381743
v 0.101302 -0.375879 0.381743
v 0.116885 -0.378085 0.381743
v 0.0545561 -0.370175 0.397324
v 0.0225174 -0.366259 0.412904
v 0.0225174 -0.323091 0.465957
v 0.038974 -0.323528 0.466126
v 0.334994 -0.338295 0.465872
v 0.0225174 -0.335612 0.460266
v 0.0225174 -0.346106 0.454293
v 0.319412 -0.350578 0.458519
v 0.334994 -0.350578 0.458801
v 0.366159 -0.350578 0.459054
v 0.381701 -0.338991 0.466098
v 0.350576 -0.350578 0.45897
v 0.397323 -0.33122 0.468774
v 0.428606 -0.331239 0.468774
v 0.428606 -0.370572 0.429668
v 0.163631 -0.374508 0.421779
v 0.148089 -0.374329 0.421441
v 0.148089 -0.377688 0.412904
v 0.132467 -0.379894 0.397324
v 0.132467 -0.379099 0.366163
v 0.116885 -0.378165 0.397324
v 0.0880259 -0.374627 0.397324
v 0.0802348 -0.373653 0.397324
v 0.0701382 -0.372301 0.397324
v 0.0894569 -0.374388 0.407072
v 0.038974 -0.368108 0.412904
v 0.0225174 -0.36296 0.428485
v 0.0225174 -0.334996 0.460604
v 0.038974 -0.334996 0.46097
v 0.101302 -0.334996 0.462322
v 0.0225174 -0.353877 0.445361
v 0.038974 -0.354195 0.446178
v 0.0545561 -0.354473 0.446855
v 0.0701382 -0.354752 0.447446
v 0.0857204 -0.35501 0.447982
v 0.101302 -0.355288 0.448461
v 0.116885 -0.355547 0.448799
v 0.132467 -0.355825 0.449109
v 0.279662 -0.358409 0.45187
v 0.30383 -0.358707 0.452264
v 0.319412 -0.358866 0.452461
v 0.366159 -0.358925 0.452602
v 0.428606 -0.350578 0.459054
v 0.428606 -0.339011 0.466098
v 0.334994 -0.358925 0.452546
v 0.428606 -0.363377 0.444065
v 0.334994 -0.363377 0.444065
v 0.22592 -0.370612 0.429584
v 0.210417 -0.370572 0.429584
v 0.194795 -0.370513 0.429584
v 0.163631 -0.370314 0.429584
v 0.148089 -0.370115 0.429217
v 0.132626 -0.370533 0.427076
v 0.137952 -0.37409 0.420962
v 0.127577 -0.373792 0.420201
v 0.116885 -0.373474 0.419131
v 0.101302 -0.372997 0.417074
v 0.116885 -0.375819 0.411355
v 0.101302 -0.375004 0.409298
v 0.0701382 -0.371407 0.412904
v 0.0545561 -0.369797 0.412904
v 0.038974 -0.364212 0.428485
v 0.0225174 -0.359045 0.437585
v 0.038974 -0.359522 0.438374
v 0.0545561 -0.359979 0.43905
v 0.0701382 -0.360416 0.43967
v 0.0857204 -0.360873 0.440205
v 0.101302 -0.36131 0.440656
v 0.116885 -0.361668 0.441022
v 0.132467 -0.362006 0.441304
v 0.148089 -0.362304 0.441614
v 0.163631 -0.362523 0.441896
v 0.428606 -0.358925 0.452602
v 0.116885 -0.368982 0.428485
v 0.101302 -0.368167 0.428485
v 0.0701382 -0.366339 0.428485
v 0.0545561 -0.365305 0.428485
v 0.0848458 -0.372778 0.41251
f 1 2 6
f 1 6 10
f 1 10 14
f 1 14 19
f 1 19 37
f 1 37 36
f 1 36 35
f 1 35 34
f 1 34 33
f 1 33 32
f 1 32 31
f 1 31 30
f 1 30 58
f 1 58 57
f 1 57 56
f 1 56 55
f 1 55 78
f 1 78 93
f 1 93 106
f 1 106 123
f 1 123 138
f 1 138 156
f 1 156 140
f 1 140 124
f 1 124 109
f 1 109 108
f 1 108 107
f 1 107 94
f 1 94 79
f 1 79 59
f 1 59 38
f 1 38 20
f 1 20 15
f 1 15 11
f 1 11 7
f 1 7 3
f 1 3 4
f 1 4 5
f 1 5 2
f 2 5 6
f 3 7 8
f 3 8 4
f 4 8 12
f 4 12 17
f 4 17 16
f 4 16 27
f 4 27 26
f 4 26 25
f 4 25 24
f 4 24 23
f 4 23 22
f 4 22 21
f 4 21 39
f 4 39 60
f 4 60 80
f 4 80 95
f 4 95 111
f 4 111 125
f 4 125 142
f 4 142 170
f 4 170 195
f 4 195 231
f 4 231 199
f 4 199 175
f 4 175 174
f 4 174 196
f 4 196 171
f 4 171 143
f 4 143 126
f 4 126 112
f 4 112 96
f 4 96 81
f 4 81 61
f 4 61 40
f 4 40 28
f 4 28 18
f 4 18 13
f 4 13 9
f 4 9 5
f 5 9 6
f 6 9 10
f 7 11 12
f 7 12 8
f 9 13 10
f 10 13 14
f 11 15 16
f 11 16 17
f 11 17 12
f 13 18 14
f 14 18 19
f 15 20 21
f 15 21 22
f 15 22 23
f 15 23 24
f 15 24 25
f 15 25 26
f 15 26 27
f 15 27 16
f 18 28 53
f 18 53 74
f 18 74 77
f 18 77 76
f 18 76 75
f 18 75 54
f 18 54 29
f 18 29 30
f 18 30 31
f 18 31 32
f 18 32 33
f 18 33 34
f 18 34 35
f 18 35 36
f 18 36 37
f 18 37 19
f 20 38 39
f 20 39 21
f 28 40 41
f 28 41 42
f 28 42 43
f 28 43 44
f 28 44 45
f 28 45 46
f 28 46 47
f 28 47 48
f 28 48 49
f 28 49 50
f 28 50 51
f 28 51 52
f 28 52 53
f 29 54 55
f 29 55 56
f 29 56 57
f 29 57 58
f 29 58 30
f 38 59 60
f 38 60 39
f 40 61 41
f 41 61 42
f 42 61 43
f 43 62 44
f 43 61 62
f 44 62 63
f 44 63 47
f 44 47 45
f 45 47 46
f 47 64 48
f 47 63 86
f 47 86 64
f 48 65 49
f 48 64 66
f 48 66 67
f 48 67 65
f 49 65 50
f 50 65 68
f 50 68 69
f 50 69 70
f 50 70 71
f 50 71 51
f 51 71 52
f 52 71 53
f 53 71 72
f 53 72 73
f 53 73 89
f 53 89 103
f 53 103 121
f 53 121 135
f 53 135 152
f 53 152 182
f 53 182 212
f 53 212 211
f 53 211 241
f 53 241 214
f 53 214 183
f 53 183 153
f 53 153 136
f 53 136 122
f 53 122 106
f 53 106 93
f 53 93 74
f 54 75 55
f 55 75 76
f 55 76 77
f 55 77 74
f 55 74 78
f 59 79 80
f 59 80 60
f 61 81 82
f 61 82 83
f 61 83 84
f 61 84 85
f 61 85 86
f 61 86 62
f 62 86 63
f 64 87 88
f 64 88 66
f 64 86 105
f 64 105 87
f 65 67 68
f 66 88 67
f 67 88 89
f 67 89 90
f 67 90 68
f 68 90 69
f 69 90 91
f 69 91 70
f 70 91 92
f 70 92 71
f 71 92 73
f 71 73 72
f 73 92 89
f 74 93 78
f 79 94 95
f 79 95 80
f 81 96 97
f 81 97 98
f 81 98 99
f 81 99 82
f 82 99 100
f 82 100 83
f 83 100 101
f 83 101 102
f 83 102 84
f 84 102 85
f 85 102 103
f 85 103 104
f 85 104 86
f 86 104 105
f 87 105 103
f 87 103 88
f 88 103 89
f 89 92 91
f 89 91 90
f 94 107 95
f 95 107 108
f 95 108 109
f 95 109 110
f 95 110 111
f 96 112 113
f 96 113 114
f 96 114 115
f 96 115 97
f 97 116 117
f 97 117 118
f 97 118 98
f 97 115 116
f 98 118 119
f 98 119 99
f 99 119 120
f 99 120 100
f 100 120 101
f 101 120 102
f 102 120 121
f 102 121 103
f 103 105 104
f 106 122 137
f 106 137 123
f 109 124 125
f 109 125 111
f 109 111 110
f 112 126 127
f 112 127 128
f 112 128 129
f 112 129 113
f 113 129 114
f 114 129 130
f 114 130 115
f 115 130 116
f 116 130 131
f 116 131 117
f 117 131 118
f 118 131 119
f 119 131 132
f 119 132 120
f 120 132 133
f 120 133 134
f 120 134 121
f 121 134 135
f 122 136 154
f 122 154 137
f 123 137 139
f 123 139 138
f 124 140 141
f 124 141 125
f 125 141 142
f 126 143 144
f 126 144 127
f 127 145 146
f 127 146 129
f 127 129 128
f 127 144 145
f 129 146 147
f 129 147 131
f 129 131 148
f 129 148 130
f 130 148 131
f 131 145 132
f 131 147 145
f 132 145 149
f 132 149 150
f 132 150 133
f 133 151 134
f 133 150 151
f 134 151 152
f 134 152 135
f 136 153 184
f 136 184 154
f 137 155 139
f 137 154 155
f 138 139 156
f 139 157 156
f 139 155 158
f 139 158 157
f 140 156 157
f 140 157 159
f 140 159 160
f 140 160 161
f 140 161 162
f 140 162 141
f 141 163 142
f 141 162 164
f 141 164 163
f 142 163 165
f 142 165 166
f 142 166 167
f 142 167 168
f 142 168 169
f 142 169 170
f 143 171 172
f 143 172 144
f 144 172 173
f 144 173 145
f 145 147 146
f 145 173 174
f 145 174 175
f 145 175 176
f 145 176 177
f 145 177 149
f 149 178 179
f 149 179 150
f 149 177 180
f 149 180 178
f 150 179 181
f 150 181 151
f 151 181 182
f 151 182 152
f 153 183 184
f 154 184 185
f 154 185 186
f 154 186 155
f 155 186 187
f 155 187 158
f 157 158 188
f 157 188 159
f 158 189 190
f 158 190 191
f 158 191 168
f 158 168 188
f 158 187 189
f 159 188 160
f 160 188 165
f 160 165 161
f 161 165 164
f 161 164 162
f 163 164 165
f 165 188 167
f 165 167 166
f 167 188 168
f 168 191 192
f 168 192 169
f 169 192 170
f 170 192 191
f 170 191 190
f 170 190 189
f 170 189 193
f 170 193 194
f 170 194 195
f 171 196 197
f 171 197 172
f 172 197 198
f 172 198 173
f 173 198 197
f 173 197 196
f 173 196 174
f 175 199 200
f 175 200 201
f 175 201 202
f 175 202 203
f 175 203 204
f 175 204 205
f 175 205 206
f 175 206 207
f 175 207 208
f 175 208 176
f 176 208 209
f 176 209 177
f 177 209 180
f 178 210 241
f 178 241 211
f 178 211 212
f 178 212 179
f 178 180 213
f 178 213 210
f 179 212 182
f 179 182 181
f 180 209 213
f 183 214 215
f 183 215 216
f 183 216 184
f 184 216 215
f 184 215 217
f 184 217 218
f 184 218 219
f 184 219 185
f 185 220 221
f 185 221 222
f 185 222 186
f 185 219 220
f 186 222 223
f 186 223 224
f 186 224 225
f 186 225 226
f 186 226 187
f 187 226 227
f 187 227 193
f 187 193 189
f 193 227 228
f 193 228 229
f 193 229 194
f 194 229 195
f 195 229 228
f 195 228 225
f 195 225 224
f 195 224 230
f 195 230 231
f 199 231 232
f 199 232 233
f 199 233 234
f 199 234 200
f 200 234 235
f 200 235 201
f 201 235 236
f 201 236 202
f 202 236 203
f 203 236 204
f 204 236 237
f 204 237 238
f 204 238 239
f 204 239 205
f 205 239 206
f 206 239 207
f 207 240 208
f 207 239 240
f 208 240 219
f 208 219 209
f 209 219 213
f 210 213 215
f 210 215 214
f 210 214 241
f 213 219 218
f 213 218 217
f 213 217 215
f 219 240 239
f 219 239 220
f 220 239 238
f 220 238 237
f 220 237 236
f 220 236 235
f 220 235 234
f 220 234 242
f 220 242 221
f 221 242 222
f 222 242 243
f 222 243 231
f 222 231 244
f 222 244 223
f 223 244 245
f 223 245 230
f 223 230 224
f 225 228 246
f 225 246 226
f 226 246 227
f 227 246 228
f 230 245 231
f 231 245 244
f 231 243 232
f 232 243 233
f 233 243 242
f 233 242 234
