v -0.785748 -0.179513 0.0387289
v -0.561441 -0.179513 0.0387289
v -0.785311 -0.179513 0.0545088
v -0.787595 -0.177591 0.00854441
v -0.787595 -0.177591 -0.334922
v -0.787133 -0.177591 -0.350485
v -0.785029 -0.177591 -0.365324
v -0.781668 -0.177591 -0.38009
v -0.779436 -0.177591 -0.389283
v -0.77728 -0.177591 -0.397969
v -0.77356 -0.177591 -0.412736
v -0.768428 -0.177591 -0.428371
v -0.764348 -0.177591 -0.437926
v -0.76014 -0.177591 -0.445381
v -0.752135 -0.177591 -0.456312
v -0.744258 -0.177591 -0.464129
v -0.736868 -0.177591 -0.46992
v -0.724501 -0.177591 -0.477158
v -0.706976 -0.177591 -0.485845
v -0.693351 -0.177591 -0.491708
v -0.680958 -0.177591 -0.496196
v -0.671773 -0.177591 -0.499019
v -0.662202 -0.177591 -0.499598
v -0.540735 -0.179513 0.0388013
v -0.784747 -0.179321 0.0699992
v -0.784029 -0.179513 0.0853448
v -0.786184 -0.163593 0.0545088
v -0.786902 -0.147993 0.0545088
v -0.786902 -0.0700909 0.132323
v -0.787441 -0.0700909 0.11676
v -0.787646 -0.0545232 0.11676
v -0.787646 -0.13249 0.0388013
v -0.787595 0.00774759 -0.334922
v -0.787364 -0.163593 -0.350485
v -0.787646 0.147729 0.0387289
v -0.785209 -0.163593 -0.36612
v -0.77728 -0.0233237 -0.397969
v -0.77356 0.0233473 -0.412736
v -0.768428 0.0700824 -0.428371
v -0.764348 0.0856821 -0.437926
v -0.75991 0.0856821 -0.445743
v -0.752135 0.0856821 -0.456312
v -0.744258 0.116818 -0.464129
v -0.736355 0.147729 -0.470282
v -0.724501 0.147729 -0.477158
v -0.693351 -0.101258 -0.492721
v -0.693351 -0.132394 -0.492432
v -0.693351 -0.148025 -0.492215
v -0.680599 -0.116826 -0.497499
v -0.672799 -0.116826 -0.499019
v -0.662202 -0.163593 -0.499743
v -0.680804 -0.101258 -0.497571
v -0.649014 -0.177591 -0.499091
v -0.525571 -0.177591 -0.350485
v -0.537681 -0.179513 0.239742
v -0.641316 -0.177591 -0.498512
v -0.631078 -0.177591 -0.496775
v -0.584354 -0.177591 -0.488378
v -0.571268 -0.177591 -0.485121
v -0.563212 -0.177591 -0.482298
v -0.552281 -0.177591 -0.47325
v -0.545764 -0.177591 -0.466228
v -0.544173 -0.177591 -0.459569
v -0.781899 -0.179513 0.132105
v -0.779692 -0.179513 0.180531
v -0.784747 -0.101258 0.147958
v -0.785286 -0.0856586 0.147958
v -0.787287 -0.0545232 0.132323
v -0.787313 -0.0389235 0.132323
v -0.787646 0.132513 0.11676
v -0.787595 0.0856821 -0.319287
v -0.787569 0.0233473 -0.334922
v -0.787364 -0.116826 -0.350485
v -0.552127 0.147729 0.0387289
v -0.787595 0.147729 -0.303797
v -0.787184 0.132513 0.132323
v -0.785722 0.132513 0.147958
v -0.781309 0.132513 0.179156
v -0.772482 0.132513 0.239742
v -0.785209 -0.116826 -0.36612
v -0.773534 0.038915 -0.412736
v -0.779205 -0.0233237 -0.390152
v -0.779179 -0.0078201 -0.390152
v -0.768403 0.0856821 -0.428371
v -0.764297 0.10125 -0.437853
v -0.759781 0.10125 -0.445599
v -0.751981 0.10125 -0.456312
v -0.744258 0.132417 -0.463912
v -0.744258 0.147729 -0.463478
v -0.693351 0.147729 -0.492721
v -0.68083 -0.0856586 -0.497571
v -0.673004 -0.101258 -0.499019
v -0.662202 0.00774759 -0.499743
v -0.67303 -0.0856586 -0.499019
v -0.651682 0.0545147 -0.499019
v -0.556771 0.147729 -0.412519
v -0.545302 0.147729 -0.343391
v -0.544301 0.147729 -0.336804
v -0.542428 0.147729 -0.319287
v -0.541992 0.147729 -0.303797
v -0.525519 -0.177591 -0.334922
v -0.543198 -0.148025 -0.444006
v -0.544276 -0.132426 -0.44502
v -0.548971 0.0380822 0.239742
v -0.772482 -0.179513 0.239742
v -0.525519 -0.177591 -0.252403
v -0.525571 -0.177591 -0.241473
v -0.525622 -0.177591 -0.236768
v -0.542223 0.147729 -0.194351
v -0.652529 0.10125 -0.498946
v -0.615504 -0.101258 -0.49359
v -0.584354 -0.163593 -0.488378
v -0.571679 -0.163593 -0.484976
v -0.572782 -0.148025 -0.484686
v -0.574065 -0.132394 -0.484107
v -0.575374 -0.116826 -0.483528
v -0.563879 -0.163593 -0.481502
v -0.554385 -0.163593 -0.473684
v -0.55536 -0.148025 -0.47296
v -0.558413 -0.101258 -0.47021
v -0.560954 -0.0620828 -0.467459
v -0.560928 0.0315476 -0.451824
v -0.560492 0.116818 -0.436985
v -0.556797 0.10125 -0.428371
v -0.555591 0.0856821 -0.428371
v -0.54561 -0.127269 -0.45081
v -0.545251 -0.137647 -0.452403
v -0.556361 -0.132394 -0.472092
v -0.557413 -0.116826 -0.471223
v -0.779538 -0.179513 0.182992
v -0.779282 -0.17647 0.188928
v -0.779513 -0.163593 0.190303
v -0.785619 -0.0700909 0.147958
v -0.78585 -0.0545232 0.147958
v -0.785876 -0.0389235 0.147958
v -0.787313 0.116818 0.132323
v -0.787569 0.10125 -0.319287
v -0.787544 0.038915 -0.334922
v -0.787338 -0.101258 -0.350485
v -0.551357 0.147729 0.022949
v -0.559594 0.132513 0.239742
v -0.786697 0.147729 -0.319504
v -0.787415 0.116818 -0.319287
v -0.785876 0.116818 0.147958
v -0.783567 0.132449 0.163448
v -0.785183 -0.101258 -0.36612
v -0.773432 0.0545147 -0.412736
v -0.779128 0.004192 -0.389717
v -0.773098 0.0856821 -0.412736
v -0.773278 0.0700824 -0.412736
v -0.785106 -0.0856586 -0.36612
v -0.784952 -0.0700909 -0.36612
v -0.784773 -0.0545232 -0.36612
v -0.768197 0.10125 -0.428371
v -0.763964 0.114031 -0.437202
v -0.750442 0.147729 -0.45566
v -0.751134 0.132417 -0.456094
v -0.751648 0.116818 -0.456312
v -0.760243 0.118259 -0.443065
v -0.68083 0.147729 -0.497571
v -0.662202 0.10125 -0.499525
v -0.67303 0.147729 -0.499019
v -0.546405 -0.101258 -0.445743
v -0.553487 0.0545147 -0.428371
v -0.554513 0.0700824 -0.428371
v -0.559517 0.147729 -0.424824
v -0.541992 0.147729 -0.210058
v -0.776793 -0.179321 0.210136
v -0.778692 -0.179513 0.193705
v -0.779615 -0.147993 0.19081
v -0.653709 0.147729 -0.498729
v -0.644446 0.0856821 -0.497571
v -0.662099 0.147729 -0.499308
v -0.584354 -0.148025 -0.488016
v -0.631078 0.10125 -0.492721
v -0.631078 0.116818 -0.491708
v -0.579299 -0.0700909 -0.481574
v -0.631078 0.132417 -0.490477
v -0.599929 0.10125 -0.477448
v -0.565008 -0.148025 -0.480705
v -0.573757 0.00774759 -0.46992
v -0.59159 0.147729 -0.467893
v -0.576554 0.0467949 -0.467386
v -0.583892 0.147729 -0.460076
v -0.576272 0.147729 -0.452186
v -0.56647 0.116818 -0.444802
v -0.560954 0.124954 -0.436189
v -0.78739 0.0545147 -0.334922
v -0.786363 0.00774759 -0.350485
v -0.787261 -0.0856586 -0.350485
v -0.784516 0.147729 -0.334922
v -0.785234 0.132417 -0.334922
v -0.785953 0.116818 -0.334922
v -0.786492 0.10125 -0.334922
v -0.786877 0.0856821 -0.334922
v -0.787184 0.0700824 -0.334922
v -0.780334 0.00874059 -0.38313
v -0.779025 0.0145705 -0.389283
v -0.776741 0.0545147 -0.397246
v -0.784516 -0.0389235 -0.36612
v -0.776434 0.0700824 -0.397246
v -0.7761 0.0856821 -0.397246
v -0.772739 0.10125 -0.412736
v -0.786184 0.0233473 -0.350485
v -0.785979 0.038915 -0.350485
v -0.770404 0.147729 -0.413098
v -0.766581 0.132417 -0.427575
v -0.766632 0.118259 -0.429963
v -0.772149 0.116818 -0.412736
v -0.771379 0.132417 -0.412736
v -0.763425 0.124409 -0.436189
v -0.756959 0.147729 -0.444006
v -0.758473 0.132417 -0.444006
v -0.765914 0.147729 -0.425982
v -0.562416 0.147729 -0.432786
v -0.645781 0.147729 -0.495617
v -0.598903 0.0700824 -0.47962
v -0.631078 0.147729 -0.489174
v -0.599929 0.116818 -0.476
v -0.61322 0.147729 -0.480199
v -0.589358 0.116818 -0.46963
v -0.59141 0.145326 -0.468038
v -0.595362 0.147729 -0.47021
v -0.570627 0.147729 -0.444802
v -0.778538 0.147729 -0.370897
v -0.783387 0.116818 -0.350485
v -0.784105 0.10125 -0.350485
v -0.784798 0.0856821 -0.350485
v -0.785363 0.0700824 -0.350485
v -0.785722 0.0545147 -0.350485
v -0.784234 -0.0233237 -0.36612
v -0.782412 0.0700824 -0.36612
v -0.778307 0.0856821 -0.385664
v -0.781976 0.0856821 -0.36612
v -0.778076 0.10125 -0.384144
v -0.775074 0.116818 -0.397246
v -0.773868 0.147729 -0.397535
v -0.763014 0.132417 -0.43532
v -0.762193 0.147729 -0.433655
v -0.620994 0.147729 -0.484107
v -0.599929 0.132417 -0.47448
v -0.598056 0.147729 -0.471802
v -0.776639 0.147729 -0.3819
v -0.77882 0.135492 -0.372562
v -0.779051 0.125082 -0.373938
v -0.781386 0.10125 -0.36612
f 1 2 24
f 1 24 55
f 1 55 105
f 1 105 169
f 1 169 130
f 1 130 65
f 1 65 64
f 1 64 26
f 1 26 3
f 1 3 4
f 1 4 5
f 1 5 6
f 1 6 7
f 1 7 8
f 1 8 9
f 1 9 10
f 1 10 11
f 1 11 12
f 1 12 13
f 1 13 14
f 1 14 15
f 1 15 16
f 1 16 17
f 1 17 18
f 1 18 19
f 1 19 20
f 1 20 21
f 1 21 22
f 1 22 23
f 1 23 2
f 2 23 24
f 3 25 4
f 3 26 25
f 4 25 27
f 4 27 28
f 4 28 29
f 4 29 30
f 4 30 31
f 4 31 32
f 4 32 5
f 5 33 73
f 5 73 34
f 5 34 6
f 5 32 35
f 5 35 33
f 6 34 36
f 6 36 7
f 7 36 8
f 8 36 9
f 9 36 10
f 10 36 80
f 10 80 37
f 10 37 38
f 10 38 11
f 11 38 39
f 11 39 12
f 12 39 40
f 12 40 13
f 13 40 14
f 14 40 41
f 14 41 15
f 15 41 42
f 15 42 43
f 15 43 16
f 16 43 17
f 17 43 44
f 17 44 18
f 18 44 45
f 18 45 90
f 18 90 46
f 18 46 19
f 19 46 47
f 19 47 48
f 19 48 20
f 20 48 49
f 20 49 21
f 21 49 22
f 22 50 51
f 22 51 23
f 22 49 52
f 22 52 50
f 23 51 53
f 23 53 24
f 24 54 55
f 24 53 56
f 24 56 57
f 24 57 58
f 24 58 59
f 24 59 60
f 24 60 61
f 24 61 62
f 24 62 63
f 24 63 54
f 25 26 64
f 25 64 65
f 25 65 27
f 27 65 28
f 28 65 29
f 29 65 66
f 29 66 67
f 29 67 68
f 29 68 30
f 30 68 31
f 31 68 69
f 31 69 136
f 31 136 70
f 31 70 35
f 31 35 32
f 33 35 71
f 33 71 72
f 33 72 73
f 34 73 80
f 34 80 36
f 35 74 140
f 35 140 109
f 35 109 167
f 35 167 100
f 35 100 99
f 35 99 98
f 35 98 97
f 35 97 96
f 35 96 166
f 35 166 215
f 35 215 224
f 35 224 185
f 35 185 184
f 35 184 182
f 35 182 223
f 35 223 242
f 35 242 220
f 35 220 240
f 35 240 218
f 35 218 216
f 35 216 171
f 35 171 173
f 35 173 162
f 35 162 160
f 35 160 90
f 35 90 45
f 35 45 44
f 35 44 89
f 35 89 156
f 35 156 212
f 35 212 239
f 35 239 214
f 35 214 206
f 35 206 237
f 35 237 243
f 35 243 225
f 35 225 191
f 35 191 142
f 35 142 75
f 35 75 71
f 35 70 76
f 35 76 77
f 35 77 78
f 35 78 79
f 35 79 141
f 35 141 74
f 37 81 38
f 37 80 82
f 37 82 83
f 37 83 81
f 38 81 84
f 38 84 39
f 39 84 40
f 40 84 85
f 40 85 41
f 41 86 87
f 41 87 42
f 41 85 86
f 42 87 43
f 43 87 88
f 43 88 44
f 44 88 89
f 46 90 160
f 46 160 91
f 46 91 52
f 46 52 47
f 47 52 49
f 47 49 48
f 50 92 51
f 50 52 92
f 51 93 53
f 51 92 94
f 51 94 162
f 51 162 93
f 52 91 94
f 52 94 92
f 53 93 95
f 53 95 56
f 54 96 97
f 54 97 98
f 54 98 99
f 54 99 100
f 54 100 101
f 54 101 55
f 54 63 102
f 54 102 103
f 54 103 96
f 55 104 141
f 55 141 79
f 55 79 105
f 55 101 106
f 55 106 107
f 55 107 108
f 55 108 109
f 55 109 104
f 56 95 110
f 56 110 57
f 57 110 111
f 57 111 112
f 57 112 58
f 58 112 59
f 59 113 60
f 59 112 113
f 60 113 114
f 60 114 115
f 60 115 116
f 60 116 117
f 60 117 118
f 60 118 61
f 61 118 119
f 61 119 62
f 62 120 121
f 62 121 122
f 62 122 123
f 62 123 124
f 62 124 125
f 62 125 126
f 62 126 127
f 62 127 63
f 62 119 128
f 62 128 129
f 62 129 120
f 63 127 103
f 63 103 102
f 65 130 66
f 66 130 131
f 66 131 67
f 67 131 132
f 67 132 133
f 67 133 68
f 68 133 134
f 68 134 135
f 68 135 69
f 69 135 144
f 69 144 136
f 70 136 76
f 71 75 137
f 71 137 138
f 71 138 72
f 72 138 139
f 72 139 73
f 73 139 146
f 73 146 80
f 74 141 140
f 75 142 143
f 75 143 137
f 76 136 144
f 76 144 77
f 77 144 145
f 77 145 78
f 78 145 144
f 78 144 79
f 79 144 135
f 79 135 105
f 80 146 82
f 81 83 147
f 81 147 84
f 82 146 83
f 83 148 149
f 83 149 150
f 83 150 147
f 83 146 151
f 83 151 152
f 83 152 153
f 83 153 148
f 84 154 85
f 84 147 150
f 84 150 149
f 84 149 154
f 85 154 155
f 85 155 86
f 86 156 157
f 86 157 158
f 86 158 87
f 86 155 159
f 86 159 156
f 87 158 88
f 88 158 89
f 89 158 157
f 89 157 156
f 91 160 162
f 91 162 94
f 93 161 95
f 93 162 161
f 95 161 110
f 96 103 163
f 96 163 164
f 96 164 165
f 96 165 125
f 96 125 166
f 100 167 106
f 100 106 101
f 103 127 126
f 103 126 163
f 104 109 140
f 104 140 141
f 105 168 169
f 105 135 170
f 105 170 168
f 106 167 107
f 107 167 108
f 108 167 109
f 110 171 172
f 110 172 112
f 110 112 111
f 110 161 173
f 110 173 171
f 112 174 113
f 112 172 171
f 112 171 174
f 113 174 171
f 113 171 114
f 114 171 175
f 114 175 176
f 114 176 115
f 115 176 116
f 116 177 117
f 116 176 178
f 116 178 177
f 117 179 180
f 117 180 128
f 117 128 119
f 117 119 118
f 117 177 179
f 120 181 182
f 120 182 121
f 120 129 181
f 121 182 183
f 121 183 184
f 121 184 185
f 121 185 186
f 121 186 122
f 122 186 123
f 123 186 187
f 123 187 166
f 123 166 124
f 124 166 125
f 125 165 126
f 126 165 164
f 126 164 163
f 128 180 129
f 129 180 181
f 130 169 131
f 131 169 132
f 132 169 168
f 132 168 170
f 132 170 134
f 132 134 133
f 134 170 135
f 137 143 188
f 137 188 138
f 138 189 190
f 138 190 139
f 138 188 189
f 139 190 151
f 139 151 146
f 142 191 192
f 142 192 193
f 142 193 194
f 142 194 195
f 142 195 143
f 143 195 196
f 143 196 188
f 148 197 198
f 148 198 199
f 148 199 149
f 148 153 200
f 148 200 197
f 149 199 201
f 149 201 202
f 149 202 203
f 149 203 154
f 151 190 189
f 151 189 152
f 152 189 204
f 152 204 153
f 153 204 205
f 153 205 230
f 153 230 200
f 154 206 207
f 154 207 208
f 154 208 155
f 154 203 209
f 154 209 210
f 154 210 206
f 155 211 212
f 155 212 213
f 155 213 159
f 155 208 207
f 155 207 214
f 155 214 211
f 156 159 213
f 156 213 212
f 161 162 173
f 166 187 215
f 171 216 175
f 175 216 176
f 176 216 178
f 177 178 217
f 177 217 179
f 178 218 217
f 178 216 218
f 179 219 180
f 179 217 220
f 179 220 219
f 180 219 221
f 180 221 222
f 180 222 181
f 181 222 182
f 182 222 223
f 182 184 183
f 185 224 187
f 185 187 186
f 187 224 215
f 188 196 205
f 188 205 204
f 188 204 189
f 191 225 226
f 191 226 192
f 192 226 227
f 192 227 193
f 193 227 228
f 193 228 229
f 193 229 194
f 194 229 195
f 195 229 230
f 195 230 196
f 196 230 205
f 197 199 198
f 197 200 231
f 197 231 199
f 199 231 230
f 199 230 232
f 199 232 201
f 200 230 231
f 201 232 202
f 202 232 233
f 202 233 203
f 203 233 234
f 203 234 235
f 203 235 236
f 203 236 237
f 203 237 209
f 206 214 207
f 206 210 237
f 209 237 210
f 211 214 238
f 211 238 212
f 212 238 239
f 214 239 238
f 217 218 240
f 217 240 220
f 219 220 241
f 219 241 221
f 220 242 241
f 221 223 222
f 221 241 223
f 223 241 242
f 225 243 244
f 225 244 227
f 225 227 226
f 227 244 245
f 227 245 228
f 228 245 246
f 228 246 234
f 228 234 229
f 229 234 233
f 229 233 232
f 229 232 230
f 234 246 245
f 234 245 237
f 234 237 235
f 235 237 236
f 237 245 243
f 243 245 244
