v -0.412938 0.398121 0.132451
v -0.397424 0.398043 0.0545507
v -0.397248 0.398069 0.0387739
v -0.412938 0.398121 0.0389706
v -0.428569 0.398121 0.225932
v -0.412938 0.398043 0.147992
v -0.412938 0.397939 0.163592
v -0.397424 0.397809 0.085711
v -0.381617 0.397263 0.0387739
v -0.662153 0.398069 0.0387739
v -0.662153 0.398121 0.0389706
v -0.44232 0.398121 0.239742
v -0.428569 0.398043 0.239742
v -0.412938 0.397341 0.225932
v -0.397424 0.397341 0.132451
v -0.381793 0.397133 0.0545507
v -0.36628 0.395053 0.0701309
v -0.36628 0.395131 0.0545507
v -0.365986 0.394897 0.0387739
v -0.677784 0.396587 0.0387739
v -0.662153 0.398121 0.239742
v -0.412938 0.397159 0.239742
v -0.397424 0.397159 0.147992
v -0.381793 0.396613 0.085711
v -0.36628 0.394819 0.085711
v -0.328671 0.389385 0.147992
v -0.327907 0.389437 0.132451
v -0.328201 0.389385 0.116871
v -0.338837 0.390607 0.085711
v -0.351942 0.391465 0.0387739
v -0.677784 0.396587 0.239742
v -0.690947 0.392323 0.0387739
v -0.689596 0.392765 0.239742
v -0.411175 0.396977 0.239742
v -0.397424 0.395443 0.239742
v -0.364282 0.391699 0.239742
v -0.319445 0.387175 0.210332
v -0.350649 0.392193 0.132451
v -0.288301 0.383068 0.239742
v -0.288301 0.383146 0.225932
v -0.272728 0.38065 0.239742
v -0.329611 0.388995 0.101291
v -0.272728 0.38026 0.225932
v -0.272728 0.379506 0.210332
v -0.340483 0.390217 0.0701309
v -0.344185 0.389203 0.0387739
v -0.691183 0.392245 0.0387739
v -0.691006 0.392297 0.239742
v -0.25604 0.37649 0.239742
v -0.288301 0.381144 0.163592
v -0.303873 0.383665 0.132451
v -0.344008 0.389151 0.0387739
v -0.72074 0.377478 0.239742
v -0.692005 0.391855 0.239742
v -0.730025 0.372798 0.0387739
v -0.254982 0.376126 0.239742
v -0.288301 0.379974 0.147992
v -0.303873 0.3826 0.116871
v -0.319445 0.383977 0.0701309
v -0.319445 0.382834 0.0545507
v -0.334841 0.386343 0.0387739
v -0.730025 0.372798 0.225932
v -0.72315 0.376256 0.239742
v -0.740074 0.365518 0.0387739
v -0.242935 0.3709 0.239742
v -0.249811 0.37376 0.234745
v -0.260917 0.375684 0.210332
v -0.319445 0.381508 0.0387739
v -0.303873 0.38143 0.101291
v -0.740074 0.365518 0.132451
v -0.740074 0.365466 0.147992
v -0.730025 0.372746 0.239742
v -0.748418 0.358888 0.0387739
v -0.241701 0.37012 0.239742
v -0.298702 0.372512 0.0387739
v -0.297174 0.373396 0.0509311
v -0.281367 0.373526 0.112268
v -0.264208 0.374332 0.183972
v -0.276666 0.375736 0.147992
v -0.262856 0.374956 0.194772
v -0.306517 0.376464 0.0387739
v -0.748418 0.358888 0.085711
v -0.748359 0.358888 0.132451
v -0.748301 0.358862 0.147992
v -0.740074 0.365388 0.163592
v -0.73884 0.364946 0.239742
v -0.748183 0.358732 0.163592
v -0.755058 0.350595 0.0387739
v -0.228538 0.361072 0.239742
v -0.287067 0.36388 0.0387739
v -0.295822 0.374098 0.0613179
v -0.294647 0.37467 0.0701309
v -0.29259 0.375658 0.085711
v -0.755058 0.350595 0.0389706
v -0.762286 0.340507 0.0389706
v -0.762227 0.340325 0.0545507
v -0.748065 0.358524 0.174667
v -0.74783 0.358212 0.185054
v -0.746655 0.355898 0.239742
v -0.762286 0.340507 0.0387739
v -0.213554 0.347579 0.239742
v -0.27978 0.35907 0.0439082
v -0.274844 0.351765 0.0387739
v -0.766223 0.332707 0.0389706
v -0.761992 0.339857 0.0701309
v -0.766106 0.332551 0.0545507
v -0.761405 0.338609 0.101291
v -0.751591 0.350023 0.194772
v -0.751239 0.349399 0.210332
v -0.750592 0.348125 0.239742
v -0.766223 0.332707 0.0387739
v -0.2028 0.334657 0.239742
v -0.263503 0.344641 0.0572261
v -0.26503 0.342717 0.0468393
v -0.266147 0.340637 0.0387739
v -0.770513 0.319422 0.0389706
v -0.770454 0.319422 0.0545507
v -0.765871 0.332057 0.0701309
v -0.770102 0.319422 0.0701309
v -0.768515 0.319422 0.132451
v -0.760406 0.336555 0.147992
v -0.765283 0.330783 0.101291
v -0.764637 0.329431 0.132451
v -0.762933 0.326051 0.210332
v -0.762286 0.324751 0.239742
v -0.770513 0.319422 0.0387739
v -0.193045 0.320514 0.239742
v -0.262092 0.332707 0.0387739
v -0.773334 0.303848 0.0389706
v -0.773275 0.303848 0.0545507
v -0.771747 0.303848 0.179192
v -0.770807 0.303848 0.225932
v -0.767634 0.319422 0.163592
v -0.76687 0.318928 0.194772
v -0.7664 0.317576 0.225932
v -0.763697 0.327559 0.175572
v -0.765695 0.317862 0.239742
v -0.773334 0.303848 0.0387739
v -0.191988 0.317862 0.239742
v -0.187345 0.30364 0.239742
v -0.258038 0.319422 0.0387739
v -0.775625 0.288041 0.0387739
v -0.78444 0.225955 0.0545507
v -0.779915 0.255126 0.085711
v -0.778622 0.261573 0.116871
v -0.774039 0.288223 0.179192
v -0.773804 0.288223 0.194772
v -0.770219 0.303848 0.239742
v -0.766635 0.315366 0.239742
v -0.773451 0.288223 0.210332
v -0.772864 0.288223 0.225932
v -0.766106 0.316978 0.239742
v -0.18758 0.299792 0.239742
v -0.256862 0.288223 0.0387739
v -0.256862 0.30403 0.0387739
v -0.784499 0.225955 0.0387739
v -0.784499 0.225955 0.0389706
v -0.784264 0.225955 0.0701309
v -0.786556 0.210381 0.0389706
v -0.786438 0.210381 0.0545507
v -0.779739 0.253774 0.116871
v -0.776448 0.272675 0.163592
v -0.779621 0.25315 0.132451
v -0.770454 0.302054 0.239742
v -0.776096 0.272675 0.179192
v -0.775508 0.272675 0.194772
v -0.779093 0.249848 0.156727
v -0.774862 0.272675 0.210332
v -0.771923 0.288223 0.239742
v -0.188756 0.288223 0.239742
v -0.258331 0.272675 0.0387739
v -0.786556 0.210381 0.0387739
v -0.783911 0.225955 0.085711
v -0.787672 0.194782 0.0389706
v -0.787496 0.194782 0.0545507
v -0.786027 0.210381 0.0701309
v -0.781326 0.241554 0.116871
v -0.779269 0.251434 0.147992
v -0.777506 0.257154 0.179192
v -0.782736 0.225955 0.116871
v -0.773686 0.272675 0.225932
v -0.785557 0.179234 0.116871
v -0.786438 0.163635 0.116871
v -0.787143 0.132514 0.132451
v -0.785733 0.132514 0.147992
v -0.772217 0.270855 0.239742
v -0.189049 0.285727 0.239742
v -0.262386 0.260092 0.0387739
v -0.787672 0.194782 0.0387739
v -0.787555 0.179234 0.0701309
v -0.787672 0.163635 0.0701309
v -0.787261 0.148035 0.116871
v -0.786967 0.194782 0.0701309
v -0.785321 0.210381 0.085711
v -0.781913 0.225955 0.132451
v -0.786379 0.179234 0.101291
v -0.787555 0.132514 0.116871
v -0.783559 0.132514 0.163592
v -0.772511 0.132514 0.239742
v -0.781326 0.132514 0.179192
v -0.194749 0.271895 0.239742
v -0.2665 0.252214 0.0387739
v -0.787555 0.132514 0.0387739
v -0.787672 0.132514 0.0389706
v -0.787672 0.132514 0.0701309
v -0.786262 0.194782 0.085711
v -0.559494 0.132514 0.239742
v -0.199803 0.262613 0.239742
v -0.265207 0.249848 0.0477443
v -0.274374 0.243582 0.0387739
v -0.562785 0.132514 0.0387739
v -0.392312 0.17445 0.239742
v -0.20615 0.252292 0.239742
v -0.263796 0.247976 0.058131
v -0.220723 0.23638 0.239742
v -0.284481 0.235886 0.0387739
v -0.335018 0.212071 0.0387739
v -0.272846 0.210771 0.239742
v -0.285774 0.206273 0.239742
v -0.33061 0.190882 0.239742
v -0.21326 0.244414 0.239742
v -0.230066 0.229777 0.239742
v -0.292238 0.231804 0.0387739
v -0.3235 0.216361 0.0387739
v -0.240761 0.224343 0.239742
v -0.239175 0.225071 0.239742
f 1 2 3
f 1 3 4
f 1 4 11
f 1 11 21
f 1 21 12
f 1 12 5
f 1 5 6
f 1 6 2
f 2 6 7
f 2 7 8
f 2 8 9
f 2 9 3
f 3 10 11
f 3 11 4
f 3 9 19
f 3 19 30
f 3 30 46
f 3 46 52
f 3 52 61
f 3 61 68
f 3 68 81
f 3 81 75
f 3 75 90
f 3 90 103
f 3 103 115
f 3 115 128
f 3 128 141
f 3 141 155
f 3 155 154
f 3 154 171
f 3 171 188
f 3 188 202
f 3 202 210
f 3 210 216
f 3 216 223
f 3 223 224
f 3 224 217
f 3 217 211
f 3 211 203
f 3 203 189
f 3 189 172
f 3 172 156
f 3 156 142
f 3 142 138
f 3 138 126
f 3 126 111
f 3 111 100
f 3 100 88
f 3 88 73
f 3 73 64
f 3 64 55
f 3 55 47
f 3 47 32
f 3 32 20
f 3 20 10
f 5 12 13
f 5 13 6
f 6 13 7
f 7 13 14
f 7 14 8
f 8 14 15
f 8 15 16
f 8 16 9
f 9 17 18
f 9 18 19
f 9 16 17
f 10 20 11
f 11 20 31
f 11 31 21
f 12 21 31
f 12 31 33
f 12 33 48
f 12 48 54
f 12 54 53
f 12 53 63
f 12 63 72
f 12 72 86
f 12 86 99
f 12 99 110
f 12 110 125
f 12 125 137
f 12 137 152
f 12 152 149
f 12 149 148
f 12 148 164
f 12 164 169
f 12 169 186
f 12 186 199
f 12 199 207
f 12 207 212
f 12 212 220
f 12 220 219
f 12 219 218
f 12 218 225
f 12 225 226
f 12 226 222
f 12 222 215
f 12 215 221
f 12 221 213
f 12 213 208
f 12 208 201
f 12 201 187
f 12 187 170
f 12 170 153
f 12 153 140
f 12 140 139
f 12 139 127
f 12 127 112
f 12 112 101
f 12 101 89
f 12 89 74
f 12 74 65
f 12 65 56
f 12 56 49
f 12 49 41
f 12 41 39
f 12 39 36
f 12 36 35
f 12 35 34
f 12 34 22
f 12 22 13
f 13 22 14
f 14 22 23
f 14 23 15
f 15 23 16
f 16 23 24
f 16 24 25
f 16 25 17
f 17 25 26
f 17 26 27
f 17 27 18
f 18 27 28
f 18 28 19
f 19 28 29
f 19 29 30
f 20 32 33
f 20 33 31
f 22 34 23
f 23 34 24
f 24 34 35
f 24 35 36
f 24 36 37
f 24 37 38
f 24 38 26
f 24 26 25
f 26 38 39
f 26 39 27
f 27 39 40
f 27 40 41
f 27 41 28
f 28 42 29
f 28 41 43
f 28 43 44
f 28 44 42
f 29 45 30
f 29 42 45
f 30 45 46
f 32 47 48
f 32 48 33
f 36 39 37
f 37 39 38
f 39 41 40
f 41 49 43
f 42 44 50
f 42 50 45
f 43 49 44
f 44 49 50
f 45 50 51
f 45 51 46
f 46 51 52
f 47 53 54
f 47 54 48
f 47 55 53
f 49 56 57
f 49 57 50
f 50 57 58
f 50 58 51
f 51 58 52
f 52 58 59
f 52 59 60
f 52 60 61
f 53 55 62
f 53 62 63
f 55 64 70
f 55 70 62
f 56 65 66
f 56 66 67
f 56 67 57
f 57 67 68
f 57 68 69
f 57 69 58
f 58 69 60
f 58 60 59
f 60 69 68
f 60 68 61
f 62 70 71
f 62 71 72
f 62 72 63
f 64 73 82
f 64 82 70
f 65 74 75
f 65 75 76
f 65 76 77
f 65 77 66
f 66 77 78
f 66 78 79
f 66 79 80
f 66 80 67
f 67 80 68
f 68 80 79
f 68 79 81
f 70 82 83
f 70 83 71
f 71 83 84
f 71 84 85
f 71 85 72
f 72 85 84
f 72 84 87
f 72 87 86
f 73 88 94
f 73 94 82
f 74 89 75
f 75 89 90
f 75 81 76
f 76 91 77
f 76 81 91
f 77 91 92
f 77 92 78
f 78 92 93
f 78 93 81
f 78 81 79
f 81 93 92
f 81 92 91
f 82 94 83
f 83 94 84
f 84 94 95
f 84 95 96
f 84 96 87
f 86 87 97
f 86 97 98
f 86 98 99
f 87 96 97
f 88 100 95
f 88 95 94
f 89 101 102
f 89 102 90
f 90 102 103
f 95 100 111
f 95 111 104
f 95 104 96
f 96 105 97
f 96 104 106
f 96 106 105
f 97 105 98
f 98 105 107
f 98 107 108
f 98 108 99
f 99 108 109
f 99 109 110
f 101 112 113
f 101 113 103
f 101 103 102
f 103 113 114
f 103 114 115
f 104 111 126
f 104 126 116
f 104 116 117
f 104 117 106
f 105 106 118
f 105 118 107
f 106 117 119
f 106 119 120
f 106 120 118
f 107 121 109
f 107 109 108
f 107 118 122
f 107 122 123
f 107 123 121
f 109 121 110
f 110 121 124
f 110 124 125
f 112 127 114
f 112 114 113
f 114 127 115
f 115 127 128
f 116 126 138
f 116 138 129
f 116 129 130
f 116 130 117
f 117 130 131
f 117 131 132
f 117 132 119
f 118 120 133
f 118 133 134
f 118 134 135
f 118 135 122
f 119 132 120
f 120 132 133
f 121 123 136
f 121 136 124
f 122 137 123
f 122 135 137
f 123 137 136
f 124 136 137
f 124 137 125
f 127 139 128
f 128 139 140
f 128 140 141
f 129 138 142
f 129 142 130
f 130 142 143
f 130 143 144
f 130 144 145
f 130 145 146
f 130 146 131
f 131 146 147
f 131 147 132
f 132 148 149
f 132 149 135
f 132 135 133
f 132 147 150
f 132 150 151
f 132 151 148
f 133 135 134
f 135 149 152
f 135 152 137
f 140 153 154
f 140 154 155
f 140 155 141
f 142 156 157
f 142 157 143
f 143 158 144
f 143 157 159
f 143 159 160
f 143 160 158
f 144 161 145
f 144 158 161
f 145 161 146
f 146 161 162
f 146 162 147
f 147 162 163
f 147 163 150
f 148 151 164
f 150 163 165
f 150 165 151
f 151 165 166
f 151 166 167
f 151 167 168
f 151 168 169
f 151 169 164
f 153 170 171
f 153 171 154
f 156 172 159
f 156 159 157
f 158 173 163
f 158 163 161
f 158 160 173
f 159 172 189
f 159 189 174
f 159 174 160
f 160 174 175
f 160 175 176
f 160 176 173
f 161 163 162
f 163 173 177
f 163 177 165
f 165 177 176
f 165 176 178
f 165 178 167
f 165 167 166
f 167 179 168
f 167 178 176
f 167 176 180
f 167 180 179
f 168 181 169
f 168 179 182
f 168 182 183
f 168 183 184
f 168 184 181
f 169 181 184
f 169 184 185
f 169 185 186
f 170 187 171
f 171 187 188
f 173 176 177
f 174 190 175
f 174 189 204
f 174 204 205
f 174 205 191
f 174 191 197
f 174 197 190
f 175 192 193
f 175 193 176
f 175 190 192
f 176 194 180
f 176 193 206
f 176 206 194
f 179 180 195
f 179 195 182
f 180 194 196
f 180 196 182
f 180 182 195
f 182 196 183
f 183 196 192
f 183 192 184
f 184 192 197
f 184 197 205
f 184 205 204
f 184 204 203
f 184 203 211
f 184 211 207
f 184 207 199
f 184 199 200
f 184 200 198
f 184 198 185
f 185 198 186
f 186 198 200
f 186 200 199
f 187 201 188
f 188 201 202
f 189 203 204
f 190 197 192
f 191 205 197
f 192 196 193
f 193 196 206
f 194 206 196
f 201 208 202
f 202 209 210
f 202 208 209
f 207 211 212
f 208 213 209
f 209 214 210
f 209 213 214
f 210 214 215
f 210 215 216
f 211 217 218
f 211 218 219
f 211 219 220
f 211 220 212
f 213 221 214
f 214 221 215
f 215 222 216
f 216 222 223
f 217 224 218
f 218 224 225
f 222 226 223
f 223 226 224
f 224 226 225
