v 0.531989 0.398121 0.289362
v 0.531989 0.398121 0.194918
v 0.49079 0.398121 0.289362
v 0.531989 -0.010759 0.289362
v 0.490834 0.398121 0.194918
v 0.531989 0.200165 0.194918
v 0.49079 0.398121 0.24153
v 0.49079 0.161182 0.289362
v 0.519272 -0.010759 0.289362
v 0.531989 -0.010759 0.284925
v 0.49079 0.354295 0.194918
v 0.49079 0.398081 0.194973
v 0.491226 0.202886 0.194918
v 0.531989 0.00324926 0.277714
v 0.49079 0.202926 0.194918
v 0.499723 0.0616836 0.289362
v 0.500401 0.0543593 0.289362
f 1 2 5
f 1 5 7
f 1 7 3
f 1 3 8
f 1 8 16
f 1 16 17
f 1 17 9
f 1 9 4
f 1 4 10
f 1 10 14
f 1 14 6
f 1 6 2
f 2 6 13
f 2 13 15
f 2 15 11
f 2 11 5
f 3 7 12
f 3 12 11
f 3 11 15
f 3 15 8
f 4 9 10
f 5 11 12
f 5 12 7
f 6 14 13
f 8 15 16
f 9 14 10
f 9 17 15
f 9 15 14
f 13 14 15
f 15 17 16
