v 0.787672 -0.257139 -0.00787653
v 0.78626 -0.272641 -0.00787653
v 0.78626 -0.272641 -0.0234562
v 0.786226 -0.272641 -0.350536
v 0.787605 -0.257139 -0.350536
v 0.787672 -0.126934 -0.0106204
v 0.579798 -0.126934 -0.00787653
v 0.782326 -0.288223 -0.00787653
v 0.782293 -0.288223 -0.350536
v 0.786092 -0.272641 -0.366115
v 0.787504 -0.257139 -0.366115
v 0.787571 -0.129004 -0.359698
v 0.782461 -0.126934 -0.389276
v 0.578689 -0.126934 -0.0232236
v 0.444208 -0.207579 -0.0234562
v 0.444208 -0.209676 -0.00792303
v 0.444208 -0.386574 -0.00787653
v 0.77809 -0.300939 -0.00787653
v 0.776779 -0.304814 -0.350536
v 0.779132 -0.29616 -0.36672
v 0.779603 -0.289736 -0.381695
v 0.78394 -0.272641 -0.381695
v 0.784882 -0.257139 -0.381695
v 0.780746 -0.257139 -0.394531
v 0.775266 -0.126934 -0.410855
v 0.578151 -0.126934 -0.0390358
v 0.444208 -0.207366 -0.0390358
v 0.506473 -0.397006 -0.0546155
v 0.522039 -0.397139 -0.0234562
v 0.522039 -0.396236 -0.00787653
v 0.444208 -0.397059 -0.210319
v 0.490873 -0.396661 -0.0857748
v 0.771702 -0.319414 -0.00787653
v 0.771669 -0.319414 -0.350536
v 0.771702 -0.319414 -0.334956
v 0.770627 -0.319414 -0.366115
v 0.774224 -0.303832 -0.381695
v 0.771164 -0.303832 -0.397275
v 0.772879 -0.288223 -0.412854
v 0.779603 -0.277685 -0.395322
v 0.774627 -0.272641 -0.412854
v 0.767903 -0.126934 -0.430155
v 0.444208 -0.207313 -0.0546155
v 0.578151 -0.126934 -0.163673
v 0.444208 -0.20718 -0.288217
v 0.444208 -0.207233 -0.179253
v 0.444208 -0.207287 -0.0703346
v 0.537605 -0.398121 -0.00787653
v 0.490873 -0.397351 -0.101354
v 0.506473 -0.397643 -0.0701951
v 0.444208 -0.39767 -0.225899
v 0.764272 -0.336615 -0.00787653
v 0.764239 -0.336562 -0.350536
v 0.764272 -0.336589 -0.334956
v 0.763634 -0.335421 -0.366115
v 0.765079 -0.325015 -0.383695
v 0.765819 -0.309407 -0.411692
v 0.76397 -0.305133 -0.426295
v 0.768004 -0.288223 -0.428434
v 0.768643 -0.272641 -0.428434
v 0.764373 -0.148037 -0.438014
v 0.761078 -0.126934 -0.443549
v 0.578184 -0.126934 -0.381695
v 0.444208 -0.20718 -0.381835
v 0.646602 -0.398121 -0.00787653
v 0.444208 -0.397988 -0.241478
v 0.444208 -0.398121 -0.256965
v 0.751732 -0.354719 -0.00787653
v 0.751732 -0.354719 -0.350536
v 0.754388 -0.350578 -0.366115
v 0.748101 -0.351109 -0.397275
v 0.756977 -0.334996 -0.397275
v 0.746454 -0.344181 -0.41425
v 0.747832 -0.331413 -0.429597
v 0.750959 -0.31668 -0.440293
v 0.761717 -0.290506 -0.441549
v 0.762154 -0.272641 -0.441921
v 0.752135 -0.272641 -0.456384
v 0.752135 -0.126934 -0.456384
v 0.578285 -0.126934 -0.397275
v 0.444208 -0.207233 -0.397414
v 0.662201 -0.397086 -0.00787653
v 0.662201 -0.398121 -0.0701951
v 0.662201 -0.397988 -0.0546155
v 0.444208 -0.398121 -0.303797
v 0.740099 -0.365497 -0.00787653
v 0.744235 -0.362179 -0.366115
v 0.745075 -0.360188 -0.3803
v 0.73788 -0.364063 -0.397275
v 0.730148 -0.36486 -0.415319
v 0.732602 -0.351056 -0.436201
v 0.730887 -0.340199 -0.449781
v 0.751934 -0.304097 -0.448106
v 0.751396 -0.288223 -0.455547
v 0.739662 -0.288223 -0.466616
v 0.740368 -0.272641 -0.467267
v 0.740032 -0.128314 -0.467546
v 0.72144 -0.126934 -0.478103
v 0.579966 -0.126934 -0.412389
v 0.444208 -0.207313 -0.412854
v 0.677768 -0.396263 -0.0701951
v 0.677768 -0.395573 -0.0546155
v 0.677768 -0.393423 -0.00787653
v 0.677768 -0.396581 -0.101354
v 0.677768 -0.396555 -0.0857748
v 0.662201 -0.398121 -0.366115
v 0.444208 -0.397909 -0.319377
v 0.459707 -0.398121 -0.319377
v 0.726147 -0.374735 -0.00787653
v 0.740099 -0.365497 -0.350536
v 0.726147 -0.374735 -0.381695
v 0.724869 -0.373965 -0.397275
v 0.71512 -0.372903 -0.431783
v 0.711993 -0.365603 -0.450943
v 0.720297 -0.350578 -0.455501
v 0.735124 -0.324617 -0.454896
v 0.730316 -0.314795 -0.465453
v 0.729879 -0.302186 -0.470569
v 0.724533 -0.288223 -0.476336
v 0.724533 -0.272641 -0.477126
v 0.736468 -0.16362 -0.470336
v 0.736468 -0.148037 -0.470336
v 0.708933 -0.272641 -0.48187
v 0.70268 -0.128314 -0.482335
v 0.677768 -0.126934 -0.48294
v 0.584875 -0.126934 -0.427504
v 0.482131 -0.186449 -0.422481
v 0.444208 -0.2101 -0.428434
v 0.690947 -0.391989 -0.0701951
v 0.695317 -0.387583 -0.00787653
v 0.691081 -0.392281 -0.101354
v 0.677768 -0.396581 -0.366115
v 0.691081 -0.392228 -0.0857748
v 0.553205 -0.398121 -0.366115
v 0.646602 -0.398095 -0.381695
v 0.662201 -0.397723 -0.381695
v 0.444208 -0.396475 -0.334956
v 0.459707 -0.397218 -0.334956
v 0.553205 -0.397218 -0.381695
v 0.568771 -0.397803 -0.381695
v 0.708933 -0.382539 -0.00787653
v 0.708933 -0.383362 -0.0546155
v 0.708933 -0.383362 -0.366115
v 0.694981 -0.390343 -0.366115
v 0.708933 -0.383123 -0.381695
v 0.708933 -0.381716 -0.397275
v 0.713338 -0.376885 -0.414994
v 0.709539 -0.376725 -0.427318
v 0.700226 -0.376274 -0.446293
v 0.693367 -0.366134 -0.460012
v 0.706983 -0.348959 -0.466476
v 0.715288 -0.333908 -0.468802
v 0.721272 -0.319414 -0.470522
v 0.708933 -0.319414 -0.477266
v 0.708933 -0.303832 -0.480242
v 0.708933 -0.288223 -0.481544
v 0.693367 -0.303832 -0.482754
v 0.693367 -0.288223 -0.4828
v 0.677768 -0.303832 -0.4828
v 0.444208 -0.303832 -0.4828
v 0.444208 -0.288223 -0.4828
v 0.459707 -0.272641 -0.4828
v 0.662201 -0.126934 -0.482754
v 0.600878 -0.126934 -0.455826
v 0.447839 -0.216976 -0.447362
v 0.444208 -0.228788 -0.459361
v 0.698847 -0.388405 -0.0857748
v 0.677768 -0.395652 -0.381695
v 0.694241 -0.389972 -0.381695
v 0.584371 -0.398095 -0.381695
v 0.646602 -0.395705 -0.397275
v 0.662201 -0.395334 -0.397275
v 0.677768 -0.39329 -0.397275
v 0.444208 -0.393927 -0.350536
v 0.537605 -0.396289 -0.381695
v 0.537605 -0.39329 -0.397275
v 0.553205 -0.394192 -0.397275
v 0.568771 -0.394989 -0.397275
v 0.599937 -0.395652 -0.397275
v 0.692022 -0.388963 -0.397275
v 0.693367 -0.382857 -0.428434
v 0.677768 -0.377336 -0.448664
v 0.677768 -0.385326 -0.428434
v 0.677768 -0.366134 -0.460058
v 0.662201 -0.356392 -0.46643
v 0.677768 -0.356392 -0.466383
v 0.693367 -0.352437 -0.468337
v 0.693367 -0.334996 -0.476661
v 0.693367 -0.319414 -0.481405
v 0.677768 -0.319414 -0.48187
v 0.444208 -0.319494 -0.48187
v 0.444208 -0.272641 -0.482242
v 0.647106 -0.126934 -0.481033
v 0.617991 -0.126934 -0.470057
v 0.447772 -0.237495 -0.468988
v 0.444208 -0.256555 -0.478056
v 0.615536 -0.395705 -0.397275
v 0.662201 -0.390131 -0.414715
v 0.683483 -0.388883 -0.410994
v 0.444208 -0.391352 -0.366069
v 0.444208 -0.388724 -0.381788
v 0.444208 -0.383521 -0.412854
v 0.506641 -0.389998 -0.403739
v 0.522039 -0.392334 -0.397275
v 0.522039 -0.390237 -0.406948
v 0.553205 -0.390795 -0.408297
v 0.584371 -0.393343 -0.403367
v 0.599937 -0.391379 -0.409925
v 0.615536 -0.391432 -0.41039
v 0.631035 -0.390131 -0.414622
v 0.662201 -0.385512 -0.428434
v 0.646602 -0.385326 -0.428434
v 0.631035 -0.385061 -0.428434
v 0.662201 -0.377044 -0.448525
v 0.619537 -0.374071 -0.452013
v 0.537605 -0.356365 -0.466151
v 0.553205 -0.356392 -0.466244
v 0.568771 -0.356392 -0.46629
v 0.599937 -0.356392 -0.466383
v 0.631035 -0.356392 -0.46643
v 0.677768 -0.334996 -0.477126
v 0.459707 -0.334996 -0.477126
v 0.444208 -0.335049 -0.47708
v 0.631035 -0.126934 -0.475871
v 0.646602 -0.390131 -0.414715
v 0.444208 -0.379088 -0.428388
v 0.459707 -0.379778 -0.428434
v 0.522039 -0.387291 -0.414761
v 0.537605 -0.389043 -0.411645
v 0.568771 -0.389494 -0.412761
v 0.599937 -0.388405 -0.417738
v 0.615536 -0.388618 -0.418156
v 0.615536 -0.384663 -0.428434
v 0.646602 -0.376699 -0.448339
v 0.444208 -0.362789 -0.456477
v 0.506473 -0.36401 -0.457919
v 0.522039 -0.360267 -0.462105
v 0.506473 -0.35594 -0.465686
v 0.568771 -0.377071 -0.442526
v 0.537605 -0.376566 -0.441456
v 0.599937 -0.373699 -0.451408
v 0.537605 -0.348561 -0.470336
v 0.444208 -0.350923 -0.467313
v 0.444208 -0.372744 -0.442107
v 0.475307 -0.380362 -0.428434
v 0.490873 -0.380893 -0.428434
v 0.522039 -0.381875 -0.428434
v 0.537605 -0.382353 -0.428434
v 0.553205 -0.382831 -0.428434
v 0.584371 -0.38376 -0.428434
v 0.599937 -0.384211 -0.428434
v 0.584371 -0.377283 -0.443084
v 0.553205 -0.37277 -0.449781
f 1 2 3
f 1 3 4
f 1 4 5
f 1 5 6
f 1 6 7
f 1 7 17
f 1 17 30
f 1 30 48
f 1 48 65
f 1 65 82
f 1 82 103
f 1 103 130
f 1 130 141
f 1 141 109
f 1 109 86
f 1 86 68
f 1 68 52
f 1 52 33
f 1 33 18
f 1 18 8
f 1 8 2
f 2 8 3
f 3 8 9
f 3 9 4
f 4 9 10
f 4 10 11
f 4 11 5
f 5 11 12
f 5 12 6
f 6 12 13
f 6 13 25
f 6 25 42
f 6 42 62
f 6 62 79
f 6 79 98
f 6 98 125
f 6 125 163
f 6 163 193
f 6 193 224
f 6 224 194
f 6 194 164
f 6 164 126
f 6 126 99
f 6 99 80
f 6 80 63
f 6 63 44
f 6 44 26
f 6 26 14
f 6 14 7
f 7 14 15
f 7 15 16
f 7 16 17
f 8 18 19
f 8 19 9
f 9 19 20
f 9 20 10
f 10 20 21
f 10 21 22
f 10 22 11
f 11 22 23
f 11 23 12
f 12 23 13
f 13 23 24
f 13 24 25
f 14 26 15
f 15 26 27
f 15 27 43
f 15 43 47
f 15 47 46
f 15 46 45
f 15 45 64
f 15 64 81
f 15 81 100
f 15 100 128
f 15 128 166
f 15 166 196
f 15 196 192
f 15 192 161
f 15 161 160
f 15 160 191
f 15 191 223
f 15 223 243
f 15 243 235
f 15 235 244
f 15 244 226
f 15 226 202
f 15 202 201
f 15 201 200
f 15 200 174
f 15 174 137
f 15 137 107
f 15 107 85
f 15 85 67
f 15 67 66
f 15 66 51
f 15 51 31
f 15 31 17
f 15 17 16
f 17 28 29
f 17 29 30
f 17 31 32
f 17 32 28
f 18 33 19
f 19 34 20
f 19 33 35
f 19 35 34
f 20 36 21
f 20 34 36
f 21 37 38
f 21 38 39
f 21 39 40
f 21 40 22
f 21 36 37
f 22 40 23
f 23 40 41
f 23 41 24
f 24 41 25
f 25 41 42
f 26 43 27
f 26 44 64
f 26 64 45
f 26 45 46
f 26 46 47
f 26 47 43
f 28 48 29
f 28 32 31
f 28 31 49
f 28 49 50
f 28 50 48
f 29 48 30
f 31 51 49
f 33 52 35
f 34 53 36
f 34 35 54
f 34 54 53
f 35 52 54
f 36 55 56
f 36 56 37
f 36 53 55
f 37 56 38
f 38 56 57
f 38 57 58
f 38 58 39
f 39 58 59
f 39 59 40
f 40 59 41
f 41 59 60
f 41 60 42
f 42 61 62
f 42 60 61
f 44 63 64
f 48 50 51
f 48 51 66
f 48 66 67
f 48 67 85
f 48 85 108
f 48 108 134
f 48 134 106
f 48 106 83
f 48 83 65
f 49 51 50
f 52 68 69
f 52 69 54
f 53 54 69
f 53 69 70
f 53 70 55
f 55 70 71
f 55 71 72
f 55 72 56
f 56 72 57
f 57 72 58
f 58 72 73
f 58 73 74
f 58 74 75
f 58 75 76
f 58 76 59
f 59 76 60
f 60 76 77
f 60 77 61
f 61 77 62
f 62 77 78
f 62 78 79
f 63 80 81
f 63 81 64
f 65 83 84
f 65 84 82
f 68 86 87
f 68 87 69
f 69 87 70
f 70 87 88
f 70 88 71
f 71 88 89
f 71 89 90
f 71 90 91
f 71 91 73
f 71 73 72
f 73 91 74
f 74 91 75
f 75 91 92
f 75 92 93
f 75 93 76
f 76 93 94
f 76 94 78
f 76 78 77
f 78 94 95
f 78 95 96
f 78 96 79
f 79 96 97
f 79 97 98
f 80 99 100
f 80 100 81
f 82 84 101
f 82 101 102
f 82 102 103
f 83 104 105
f 83 105 84
f 83 106 132
f 83 132 104
f 84 105 101
f 85 107 108
f 86 109 111
f 86 111 110
f 86 110 87
f 87 110 111
f 87 111 88
f 88 111 89
f 89 111 112
f 89 112 113
f 89 113 90
f 90 113 91
f 91 113 114
f 91 114 115
f 91 115 92
f 92 115 116
f 92 116 93
f 93 116 117
f 93 117 94
f 94 117 95
f 95 117 118
f 95 118 119
f 95 119 96
f 96 119 120
f 96 120 121
f 96 121 97
f 97 121 122
f 97 122 98
f 98 122 120
f 98 120 123
f 98 123 124
f 98 124 125
f 99 126 127
f 99 127 100
f 100 127 128
f 101 105 129
f 101 129 102
f 102 129 103
f 103 129 130
f 104 131 105
f 104 132 131
f 105 133 129
f 105 131 133
f 106 134 170
f 106 170 135
f 106 135 136
f 106 136 132
f 107 137 138
f 107 138 139
f 107 139 140
f 107 140 134
f 107 134 108
f 109 141 129
f 109 129 133
f 109 133 142
f 109 142 143
f 109 143 111
f 111 143 144
f 111 144 145
f 111 145 112
f 112 145 146
f 112 146 147
f 112 147 148
f 112 148 113
f 113 148 149
f 113 149 114
f 114 149 150
f 114 150 151
f 114 151 115
f 115 151 152
f 115 152 117
f 115 117 116
f 117 152 153
f 117 153 118
f 118 153 154
f 118 154 119
f 119 154 155
f 119 155 156
f 119 156 120
f 120 156 123
f 120 122 121
f 123 156 157
f 123 157 158
f 123 158 124
f 124 158 125
f 125 158 159
f 125 159 160
f 125 160 161
f 125 161 162
f 125 162 163
f 126 128 127
f 126 164 128
f 128 164 165
f 128 165 166
f 129 141 130
f 131 167 142
f 131 142 133
f 131 132 144
f 131 144 167
f 132 136 168
f 132 168 169
f 132 169 144
f 134 140 170
f 135 170 197
f 135 197 171
f 135 171 172
f 135 172 136
f 136 172 173
f 136 173 168
f 137 174 175
f 137 175 139
f 137 139 138
f 139 175 176
f 139 176 177
f 139 177 178
f 139 178 140
f 140 178 179
f 140 179 170
f 142 167 144
f 142 144 143
f 144 169 145
f 145 169 146
f 146 169 180
f 146 180 148
f 146 148 147
f 148 180 181
f 148 181 149
f 149 182 150
f 149 181 183
f 149 183 182
f 150 184 185
f 150 185 186
f 150 186 187
f 150 187 151
f 150 182 184
f 151 187 188
f 151 188 154
f 151 154 152
f 152 154 153
f 154 188 189
f 154 189 155
f 155 189 157
f 155 157 156
f 157 159 158
f 157 189 190
f 157 190 159
f 159 190 191
f 159 191 160
f 161 192 162
f 162 192 163
f 163 192 193
f 164 194 165
f 165 194 166
f 166 194 195
f 166 195 196
f 168 173 180
f 168 180 169
f 170 179 197
f 171 197 225
f 171 225 198
f 171 198 172
f 172 198 183
f 172 183 173
f 173 183 199
f 173 199 181
f 173 181 180
f 174 200 175
f 175 201 202
f 175 202 203
f 175 203 204
f 175 204 176
f 175 200 201
f 176 204 203
f 176 203 205
f 176 205 177
f 177 205 178
f 178 205 206
f 178 206 207
f 178 207 179
f 179 207 208
f 179 208 209
f 179 209 210
f 179 210 197
f 181 199 183
f 182 183 211
f 182 211 212
f 182 212 213
f 182 213 214
f 182 214 215
f 182 215 184
f 183 198 211
f 184 216 217
f 184 217 218
f 184 218 219
f 184 219 220
f 184 220 185
f 184 215 216
f 185 220 222
f 185 222 221
f 185 221 187
f 185 187 186
f 187 221 188
f 188 221 190
f 188 190 189
f 190 221 191
f 191 221 222
f 191 222 223
f 192 196 193
f 193 196 224
f 194 224 195
f 195 224 196
f 197 210 225
f 198 225 211
f 202 226 205
f 202 205 203
f 205 226 227
f 205 227 228
f 205 228 229
f 205 229 206
f 206 208 207
f 206 229 230
f 206 230 231
f 206 231 208
f 208 231 232
f 208 232 210
f 208 210 209
f 210 232 212
f 210 212 211
f 210 211 225
f 212 232 213
f 213 233 214
f 213 232 231
f 213 231 233
f 214 233 234
f 214 234 215
f 215 235 236
f 215 236 237
f 215 237 238
f 215 238 216
f 215 234 239
f 215 239 240
f 215 240 241
f 215 241 235
f 216 238 223
f 216 223 217
f 217 223 242
f 217 242 218
f 218 242 219
f 219 242 220
f 220 242 222
f 222 242 223
f 223 238 243
f 226 244 227
f 227 244 240
f 227 240 245
f 227 245 228
f 228 245 229
f 229 245 246
f 229 246 247
f 229 247 248
f 229 248 249
f 229 249 250
f 229 250 251
f 229 251 233
f 229 233 230
f 230 233 231
f 233 251 252
f 233 252 234
f 234 252 239
f 235 243 238
f 235 238 236
f 235 241 253
f 235 253 244
f 236 238 237
f 239 252 250
f 239 250 249
f 239 249 248
f 239 248 247
f 239 247 240
f 240 247 246
f 240 246 245
f 240 244 241
f 241 244 253
f 250 252 251
