v -0.165183 0.115521 -0.156346
v -0.355754 0.255017 -0.156346
v -0.165183 0.0318237 -0.156346
v -0.165183 0.255017 -0.351195
v -0.461857 0.255017 -0.185594
v -0.468386 0.252832 -0.158598
v -0.452538 0.219624 -0.156346
v -0.258524 0.0318237 -0.156346
v -0.180053 0.0318237 -0.244548
v -0.170347 0.0322606 -0.251396
v -0.165183 0.039361 -0.269993
v -0.165183 0.254143 -0.467277
v -0.185632 0.255017 -0.461859
v -0.456455 0.255017 -0.198195
v -0.452686 0.244356 -0.194786
v -0.452181 0.232361 -0.18109
v -0.46343 0.252527 -0.176403
v -0.44862 0.214097 -0.160789
v -0.441586 0.199962 -0.16088
v -0.436036 0.187574 -0.158628
v -0.442833 0.200071 -0.156346
v -0.302865 0.0532997 -0.156346
v -0.274907 0.0396232 -0.157593
v -0.253776 0.0318237 -0.164594
v -0.187502 0.0318237 -0.239161
v -0.190203 0.0397106 -0.256083
v -0.18403 0.040366 -0.261288
v -0.174414 0.0453254 -0.277754
v -0.165183 0.0427037 -0.277297
v -0.165183 0.22194 -0.451328
v -0.176432 0.252505 -0.463442
v -0.181062 0.232318 -0.452181
v -0.194773 0.244399 -0.452668
v -0.201778 0.251369 -0.452485
v -0.216855 0.255017 -0.44582
v -0.450193 0.248856 -0.20343
v -0.440043 0.255017 -0.226865
v -0.417605 0.186941 -0.20063
v -0.426361 0.188033 -0.186477
v -0.426064 0.181195 -0.180359
v -0.439776 0.205511 -0.177772
v -0.430872 0.177371 -0.157654
v -0.42553 0.176323 -0.173542
v -0.414667 0.157053 -0.156346
v -0.333257 0.0798444 -0.156346
v -0.314203 0.0630218 -0.157046
v -0.296276 0.0522292 -0.166542
v -0.29129 0.0476194 -0.159146
v -0.277757 0.0453472 -0.174424
v -0.261285 0.040366 -0.184012
v -0.250333 0.0326976 -0.173816
v -0.244546 0.0318237 -0.180055
v -0.19421 0.0318237 -0.232983
v -0.19599 0.0379628 -0.24747
v -0.207209 0.0514208 -0.271697
v -0.165183 0.0488428 -0.290445
v -0.165183 0.193626 -0.437267
v -0.177767 0.205489 -0.439763
v -0.18032 0.181216 -0.426036
v -0.186463 0.188033 -0.426341
v -0.205191 0.182418 -0.412462
v -0.248701 0.255017 -0.427436
v -0.251876 0.226047 -0.409632
v -0.412471 0.255017 -0.274588
v -0.398462 0.236075 -0.280797
v -0.398789 0.196728 -0.2426
v -0.412471 0.182418 -0.205195
v -0.401371 0.179228 -0.221235
v -0.414964 0.178202 -0.196582
v -0.417457 0.174116 -0.187268
v -0.414489 0.166841 -0.182946
v -0.425114 0.168523 -0.158933
v -0.416448 0.164853 -0.174424
v -0.401697 0.144076 -0.156346
v -0.418703 0.162493 -0.16152
v -0.373769 0.117793 -0.158933
v -0.359018 0.105755 -0.16152
v -0.396177 0.145911 -0.174424
v -0.401133 0.154344 -0.182125
v -0.301559 0.0606404 -0.174424
v -0.312244 0.0755623 -0.184651
v -0.271702 0.0514208 -0.207234
v -0.256061 0.0397106 -0.19019
v -0.239233 0.0318237 -0.18742
v -0.20068 0.0318237 -0.22653
v -0.20893 0.037941 -0.234748
v -0.213175 0.0459371 -0.251944
v -0.212195 0.0501974 -0.263905
v -0.220238 0.0513771 -0.258975
v -0.215846 0.054261 -0.267619
v -0.221989 0.0628689 -0.273675
v -0.217033 0.0660368 -0.282289
v -0.208396 0.0636772 -0.285241
v -0.200264 0.0615362 -0.287615
v -0.174414 0.0606404 -0.301554
v -0.165361 0.0555718 -0.300763
v -0.182575 0.051115 -0.285119
v -0.165183 0.0640705 -0.310655
v -0.165183 0.174291 -0.42698
v -0.173553 0.176323 -0.425519
v -0.182902 0.166841 -0.414471
v -0.187265 0.174116 -0.417423
v -0.196554 0.178223 -0.414927
v -0.221247 0.179228 -0.401383
v -0.24594 0.180343 -0.387779
v -0.254547 0.184821 -0.385313
v -0.264668 0.187509 -0.380961
v -0.303785 0.255017 -0.394444
v -0.292923 0.252111 -0.400288
v -0.284138 0.219668 -0.387474
v -0.394455 0.255017 -0.303807
v -0.401222 0.253947 -0.293032
v -0.376588 0.190174 -0.27474
v -0.374184 0.181544 -0.270632
v -0.387778 0.180343 -0.245948
v -0.374244 0.175624 -0.263844
v -0.373769 0.168938 -0.256966
v -0.412025 0.169616 -0.191529
v -0.398462 0.17062 -0.216213
v -0.409651 0.158386 -0.174424
v -0.387362 0.168086 -0.232283
v -0.389825 0.165792 -0.223669
v -0.405793 0.149691 -0.16152
v -0.412233 0.15607 -0.16152
v -0.368308 0.16127 -0.252248
v -0.28761 0.0615362 -0.200234
v -0.285265 0.0636772 -0.208421
v -0.360384 0.156157 -0.256144
v -0.314589 0.0992667 -0.226104
v -0.247454 0.037941 -0.195973
v -0.282298 0.0660149 -0.217004
v -0.273691 0.062847 -0.221995
v -0.267577 0.0542391 -0.215817
v -0.258999 0.0513771 -0.22023
v -0.263926 0.0501974 -0.212195
v -0.232971 0.0318237 -0.194208
v -0.226115 0.0318237 -0.201117
v -0.226115 0.0459153 -0.239009
v -0.225165 0.0501755 -0.251001
v -0.228816 0.0542391 -0.254683
v -0.26075 0.062847 -0.234931
v -0.230626 0.0660368 -0.269384
v -0.238402 0.0870103 -0.290111
v -0.271583 0.154803 -0.349004
v -0.233713 0.0896102 -0.298176
v -0.24508 0.116504 -0.322646
v -0.217923 0.0784024 -0.296137
v -0.200264 0.0673476 -0.294098
v -0.1821 0.154344 -0.40114
v -0.165183 0.109251 -0.360752
v -0.165183 0.160877 -0.41578
v -0.174414 0.164853 -0.416449
v -0.191509 0.169637 -0.412036
v -0.174414 0.158386 -0.409632
v -0.174414 0.152356 -0.403179
v -0.174414 0.145933 -0.396149
v -0.223651 0.165792 -0.389818
v -0.207595 0.167474 -0.400927
v -0.256951 0.168916 -0.373748
v -0.263867 0.175624 -0.374265
v -0.270634 0.181522 -0.374174
v -0.29684 0.23282 -0.387292
v -0.310938 0.255017 -0.388387
v -0.288233 0.228276 -0.389848
v -0.274759 0.19013 -0.376548
v -0.283336 0.194631 -0.374022
v -0.387392 0.255017 -0.311933
v -0.387303 0.23282 -0.296837
v -0.374006 0.194675 -0.283323
v -0.372048 0.186438 -0.278515
v -0.365192 0.174728 -0.277328
v -0.36261 0.167038 -0.272732
v -0.364984 0.164896 -0.264849
v -0.296128 0.0784024 -0.217917
v -0.322661 0.116504 -0.245035
v -0.346969 0.143683 -0.255322
v -0.251936 0.0459153 -0.213169
v -0.348987 0.154781 -0.271606
v -0.298176 0.0896102 -0.233713
v -0.254666 0.0542391 -0.228843
v -0.344743 0.157927 -0.280219
v -0.317052 0.145627 -0.291237
v -0.250986 0.0501755 -0.225161
v -0.304141 0.145627 -0.304141
v -0.27841 0.155327 -0.342947
v -0.286037 0.166557 -0.350556
v -0.276451 0.162471 -0.354086
v -0.272711 0.166994 -0.362639
v -0.255319 0.143683 -0.346964
v -0.25615 0.156157 -0.360387
v -0.247543 0.153907 -0.362882
v -0.165183 0.121311 -0.374113
v -0.165183 0.152181 -0.406923
v -0.165183 0.145867 -0.400288
v -0.232288 0.168086 -0.387353
v -0.165183 0.139663 -0.393683
v -0.252262 0.16127 -0.3683
v -0.277311 0.17475 -0.365195
v -0.278528 0.186438 -0.372043
v -0.285325 0.179294 -0.3627
v -0.298354 0.217789 -0.375787
v -0.294496 0.187268 -0.359047
v -0.314084 0.226047 -0.365682
v -0.374422 0.232733 -0.309894
v -0.385937 0.247742 -0.308463
v -0.375787 0.217789 -0.298359
v -0.362699 0.179272 -0.285302
v -0.359196 0.170686 -0.281315
v -0.354092 0.162471 -0.276475
v -0.350589 0.166557 -0.286032
v -0.298948 0.166557 -0.337682
v -0.289569 0.162253 -0.341212
v -0.294644 0.170708 -0.346264
v -0.281348 0.170708 -0.3592
v -0.264846 0.164896 -0.365013
v -0.289984 0.175012 -0.354512
v -0.311146 0.179294 -0.336951
v -0.346138 0.187268 -0.307428
v -0.360235 0.190742 -0.29568
v -0.349877 0.179294 -0.298237
v -0.354507 0.17499 -0.290019
v -0.346286 0.170686 -0.294676
f 1 2 7
f 1 7 21
f 1 21 44
f 1 44 74
f 1 74 45
f 1 45 22
f 1 22 8
f 1 8 3
f 1 3 11
f 1 11 29
f 1 29 56
f 1 56 98
f 1 98 150
f 1 150 192
f 1 192 196
f 1 196 194
f 1 194 193
f 1 193 151
f 1 151 99
f 1 99 57
f 1 57 30
f 1 30 12
f 1 12 4
f 1 4 2
f 2 5 6
f 2 6 7
f 2 4 13
f 2 13 35
f 2 35 62
f 2 62 108
f 2 108 163
f 2 163 167
f 2 167 111
f 2 111 64
f 2 64 37
f 2 37 14
f 2 14 5
f 3 8 24
f 3 24 52
f 3 52 84
f 3 84 136
f 3 136 137
f 3 137 85
f 3 85 53
f 3 53 25
f 3 25 9
f 3 9 10
f 3 10 11
f 4 12 13
f 5 14 15
f 5 15 16
f 5 16 17
f 5 17 6
f 6 18 7
f 6 17 18
f 7 18 19
f 7 19 20
f 7 20 21
f 8 22 23
f 8 23 24
f 9 25 26
f 9 26 27
f 9 27 10
f 10 27 11
f 11 27 28
f 11 28 29
f 12 30 31
f 12 31 13
f 13 31 32
f 13 32 33
f 13 33 34
f 13 34 35
f 14 36 15
f 14 37 36
f 15 36 38
f 15 38 39
f 15 39 40
f 15 40 41
f 15 41 16
f 16 41 18
f 16 18 17
f 18 41 19
f 19 41 20
f 20 42 21
f 20 41 40
f 20 40 43
f 20 43 42
f 21 42 44
f 22 45 46
f 22 46 47
f 22 47 48
f 22 48 23
f 23 48 49
f 23 49 24
f 24 49 50
f 24 50 51
f 24 51 52
f 25 53 54
f 25 54 55
f 25 55 26
f 26 55 27
f 27 55 28
f 28 56 29
f 28 55 56
f 30 32 31
f 30 57 58
f 30 58 32
f 32 58 33
f 33 58 59
f 33 59 60
f 33 60 34
f 34 60 61
f 34 61 35
f 35 61 63
f 35 63 62
f 36 37 64
f 36 64 65
f 36 65 66
f 36 66 38
f 38 66 67
f 38 67 39
f 39 67 40
f 40 67 68
f 40 68 69
f 40 69 70
f 40 70 71
f 40 71 43
f 42 43 72
f 42 72 44
f 43 71 73
f 43 73 72
f 44 72 75
f 44 75 74
f 45 74 76
f 45 76 77
f 45 77 78
f 45 78 79
f 45 79 46
f 46 80 47
f 46 79 81
f 46 81 80
f 47 80 82
f 47 82 48
f 48 82 49
f 49 82 50
f 50 82 83
f 50 83 51
f 51 83 52
f 52 83 84
f 53 85 86
f 53 86 87
f 53 87 54
f 54 87 88
f 54 88 55
f 55 88 89
f 55 89 90
f 55 90 91
f 55 91 92
f 55 92 93
f 55 93 94
f 55 94 95
f 55 95 96
f 55 96 97
f 55 97 56
f 56 97 96
f 56 96 98
f 57 99 58
f 58 99 100
f 58 100 59
f 59 100 101
f 59 101 102
f 59 102 103
f 59 103 104
f 59 104 61
f 59 61 60
f 61 104 105
f 61 105 106
f 61 106 107
f 61 107 63
f 62 63 109
f 62 109 108
f 63 107 110
f 63 110 109
f 64 111 112
f 64 112 65
f 65 112 113
f 65 113 66
f 66 113 114
f 66 114 67
f 67 114 115
f 67 115 68
f 68 115 116
f 68 116 117
f 68 117 69
f 69 118 70
f 69 117 119
f 69 119 118
f 70 118 71
f 71 79 78
f 71 78 76
f 71 76 120
f 71 120 73
f 71 118 121
f 71 121 122
f 71 122 79
f 72 73 75
f 73 120 76
f 73 76 123
f 73 123 124
f 73 124 75
f 74 75 124
f 74 124 123
f 74 123 76
f 76 78 77
f 79 122 125
f 79 125 81
f 80 126 82
f 80 81 127
f 80 127 126
f 81 125 128
f 81 128 129
f 81 129 127
f 82 130 84
f 82 84 83
f 82 126 127
f 82 127 131
f 82 131 132
f 82 132 133
f 82 133 134
f 82 134 135
f 82 135 130
f 84 130 136
f 85 137 86
f 86 138 87
f 86 137 138
f 87 138 139
f 87 139 88
f 88 139 89
f 89 139 134
f 89 134 140
f 89 140 90
f 90 140 91
f 91 140 141
f 91 141 142
f 91 142 143
f 91 143 144
f 91 144 145
f 91 145 92
f 92 145 144
f 92 144 146
f 92 146 147
f 92 147 93
f 93 147 94
f 94 147 148
f 94 148 95
f 95 148 149
f 95 149 98
f 95 98 96
f 98 149 150
f 99 151 152
f 99 152 100
f 100 152 101
f 101 153 102
f 101 152 154
f 101 154 155
f 101 155 156
f 101 156 149
f 101 149 157
f 101 157 158
f 101 158 153
f 102 153 103
f 103 153 104
f 104 153 159
f 104 159 160
f 104 160 105
f 105 160 161
f 105 161 106
f 106 161 107
f 107 161 110
f 108 162 163
f 108 109 162
f 109 110 164
f 109 164 162
f 110 161 165
f 110 165 166
f 110 166 164
f 111 167 168
f 111 168 112
f 112 168 113
f 113 168 169
f 113 169 114
f 114 116 115
f 114 169 170
f 114 170 171
f 114 171 116
f 116 171 172
f 116 172 117
f 117 172 121
f 117 121 118
f 117 118 119
f 121 172 173
f 121 173 125
f 121 125 122
f 125 173 128
f 127 129 174
f 127 174 175
f 127 175 131
f 128 173 176
f 128 176 129
f 129 176 174
f 130 135 177
f 130 177 136
f 131 175 178
f 131 178 179
f 131 179 132
f 132 141 180
f 132 180 133
f 132 179 178
f 132 178 181
f 132 181 182
f 132 182 142
f 132 142 141
f 133 180 134
f 134 183 177
f 134 177 135
f 134 180 140
f 134 139 183
f 136 177 137
f 137 177 138
f 138 177 183
f 138 183 139
f 140 180 141
f 142 182 184
f 142 184 143
f 143 184 185
f 143 185 144
f 144 185 186
f 144 186 187
f 144 187 188
f 144 188 146
f 146 188 189
f 146 189 147
f 147 189 190
f 147 190 191
f 147 191 148
f 148 191 149
f 149 156 192
f 149 192 150
f 149 191 157
f 151 193 152
f 152 193 194
f 152 194 154
f 153 158 195
f 153 195 159
f 154 194 196
f 154 196 192
f 154 192 155
f 155 192 156
f 157 191 197
f 157 197 195
f 157 195 158
f 159 195 188
f 159 188 160
f 160 188 161
f 161 188 198
f 161 198 199
f 161 199 166
f 161 166 165
f 162 164 166
f 162 166 200
f 162 200 201
f 162 201 163
f 163 201 202
f 163 202 203
f 163 203 204
f 163 204 167
f 166 199 200
f 167 204 205
f 167 205 168
f 168 205 206
f 168 206 207
f 168 207 169
f 169 207 170
f 170 207 171
f 171 207 208
f 171 208 172
f 172 209 178
f 172 178 175
f 172 175 176
f 172 176 173
f 172 208 210
f 172 210 209
f 174 176 175
f 178 209 210
f 178 210 181
f 181 210 211
f 181 211 184
f 181 184 182
f 184 211 212
f 184 212 185
f 185 212 186
f 186 212 211
f 186 211 213
f 186 213 214
f 186 214 188
f 186 188 187
f 188 195 215
f 188 215 189
f 188 214 198
f 189 215 190
f 190 215 197
f 190 197 191
f 195 197 215
f 198 214 200
f 198 200 199
f 200 214 216
f 200 216 217
f 200 217 202
f 200 202 201
f 202 217 220
f 202 220 218
f 202 218 204
f 202 204 203
f 204 218 219
f 204 219 206
f 204 206 205
f 206 219 207
f 207 219 220
f 207 220 221
f 207 221 208
f 208 221 222
f 208 222 210
f 210 222 211
f 211 222 213
f 213 216 214
f 213 222 216
f 216 222 217
f 217 222 220
f 218 220 219
f 220 222 221
