v -9.46578e-05 0.0318237 0.163035
v -9.46578e-05 0.083693 0.163035
v 0.135946 0.0318237 0.163035
v -9.46578e-05 0.0318237 0.30204
v 0.135946 0.107195 0.163035
v -9.46578e-05 0.241518 0.377794
v 0.135946 0.0318237 0.270287
v 0.0323042 0.0318237 0.30204
v -9.46578e-05 0.0434619 0.324184
v 0.135946 0.241518 0.354473
v -9.46578e-05 0.241518 0.488037
v 0.129954 0.0318237 0.273723
v 0.135946 0.0408962 0.290204
v 0.0416923 0.0318237 0.300926
v 0.0452211 0.0411015 0.318425
v 0.0452211 0.0467872 0.329401
v 0.0323042 0.0462124 0.329401
v -9.46578e-05 0.0462124 0.329401
v 0.135946 0.241518 0.46882
v -9.46578e-05 0.238973 0.486828
v 0.0452211 0.241518 0.488069
v 0.122803 0.0318237 0.277764
v 0.135946 0.0471566 0.303885
v 0.0452211 0.0318237 0.300449
v 0.0452211 0.0334452 0.303599
v 0.053717 0.0513234 0.336306
v 0.0452211 0.0508924 0.33691
v 0.0323042 0.0506461 0.33726
v -9.46578e-05 0.0506461 0.33726
v 0.135187 0.241518 0.469043
v 0.135946 0.239342 0.46777
v -9.46578e-05 0.23263 0.483806
v 0.0496022 0.241518 0.488037
v 0.00647034 0.187103 0.462043
v 0.0452211 0.187103 0.462043
v 0.122709 0.0367704 0.288263
v 0.11472 0.0318237 0.281295
v 0.135946 0.0508308 0.311393
v 0.135626 0.0507897 0.311457
v 0.122709 0.0441188 0.303599
v 0.051906 0.0318237 0.298762
v 0.054729 0.038351 0.310853
v 0.058684 0.0413478 0.315689
v 0.0580715 0.0487782 0.330261
v 0.0968755 0.0469514 0.316516
v 0.104333 0.0514876 0.323197
v 0.0623194 0.0521855 0.335128
v 0.0581913 0.0580765 0.342287
v 0.0540632 0.0639675 0.349414
v 0.0452211 0.0567834 0.343369
v 0.0323042 0.0563934 0.343719
v -9.46578e-05 0.0563934 0.343719
v 0.125 0.241518 0.471779
v 0.135946 0.233164 0.464716
v -9.46578e-05 0.21313 0.474483
v 0.0581381 0.241518 0.487973
v -9.46578e-05 0.193569 0.465129
v -9.46578e-05 0.187124 0.462043
v -9.46578e-05 0.180884 0.458766
v -9.46578e-05 0.174829 0.455585
v 0.0452211 0.174829 0.455585
v 0.0581381 0.175321 0.455298
v 0.0573923 0.18852 0.462266
v 0.0525851 0.193631 0.465098
v 0.109633 0.0318237 0.283173
v 0.135946 0.056106 0.317852
v 0.135626 0.0560239 0.317916
v 0.122709 0.053766 0.320302
v 0.112948 0.0524934 0.321861
v 0.122709 0.0494556 0.313843
v 0.109659 0.0416146 0.302612
v 0.113867 0.0390899 0.296503
v 0.0643835 0.0318237 0.295454
v 0.0710417 0.0434209 0.316516
v 0.122709 0.0602112 0.327302
v 0.0710417 0.0597596 0.340664
v 0.0582446 0.0839393 0.368185
v 0.0539034 0.0898303 0.375185
v 0.0452211 0.0632491 0.350082
v 0.0839586 0.0614838 0.338946
v 0.0323042 0.0628591 0.350432
v -9.46578e-05 0.0595749 0.347028
v 0.0949047 0.241518 0.479829
v 0.0842249 0.238234 0.481069
v 0.0843181 0.200609 0.462425
v 0.135946 0.207198 0.451862
v 0.0581381 0.226678 0.480783
v 0.0612008 0.194246 0.464779
v 0.0616935 0.241518 0.487496
v -9.46578e-05 0.168384 0.451798
v 0.0193873 0.168363 0.451798
v 0.0452211 0.168363 0.451798
v 0.0710417 0.17721 0.454153
v 0.0581381 0.168856 0.451448
v 0.0573923 0.199214 0.467484
v 0.102815 0.0318237 0.285145
v 0.135946 0.0563523 0.318139
v 0.135946 0.0625512 0.325043
v 0.135626 0.0624896 0.325106
v 0.0929205 0.0318237 0.287818
v 0.105252 0.0384946 0.297649
v 0.135626 0.0750926 0.33831
v 0.135626 0.0813941 0.344769
v 0.135626 0.0878598 0.351355
v 0.135626 0.100791 0.36424
v 0.122709 0.0666974 0.33376
v 0.0968755 0.0632285 0.337228
v 0.0624393 0.103932 0.386957
v 0.0710417 0.156868 0.437322
v 0.0968755 0.0697148 0.343687
v 0.0968755 0.140899 0.414542
v 0.0968755 0.160337 0.433886
v 0.0538235 0.102782 0.388071
v 0.0710417 0.163334 0.443749
v 0.0452211 0.0763036 0.362872
v 0.0535705 0.115796 0.400892
v -9.46578e-05 0.0628591 0.350432
v 0.0452211 0.102433 0.388421
v 0.0452211 0.109104 0.394879
v 0.0452211 0.11557 0.401115
v 0.0323042 0.0760368 0.363127
v 0.0841983 0.241518 0.482692
v 0.0710417 0.241518 0.486192
v 0.0800835 0.231111 0.478651
v 0.0710417 0.202703 0.467007
v 0.0710417 0.187309 0.459371
v 0.0968755 0.183717 0.450685
v 0.135946 0.181253 0.439008
v 0.1142 0.194862 0.451576
v 0.0581381 0.21313 0.474197
v 0.0710417 0.222203 0.476647
v -9.46578e-05 0.164915 0.448521
v -9.46578e-05 0.161548 0.44534
v 0.0452211 0.161528 0.44534
v 0.0581381 0.162 0.44499
v 0.0804031 0.179365 0.45288
v 0.0710417 0.170744 0.450208
v 0.122709 0.171524 0.436845
v 0.122709 0.177969 0.440758
v 0.130939 0.179919 0.439676
v 0.135946 0.0751542 0.338246
v 0.135946 0.0816609 0.344928
v 0.135946 0.0879009 0.351291
v 0.135946 0.0945924 0.357972
v 0.135946 0.139811 0.402992
v 0.135626 0.146113 0.409356
v 0.135626 0.159065 0.422241
v 0.10396 0.167747 0.439358
v 0.0530645 0.128891 0.413651
v 0.052372 0.141967 0.426409
v -9.46578e-05 0.0661638 0.353614
v 0.0323042 0.0827488 0.369585
v -9.46578e-05 0.0859304 0.37264
v 0.0890188 0.181602 0.451735
v 0.135946 0.17606 0.43589
v -9.46578e-05 0.158264 0.44219
v 0.112562 0.169328 0.438213
v 0.135946 0.175055 0.435286
v 0.135946 0.165571 0.428573
v 0.135946 0.152763 0.415878
v 0.135946 0.159106 0.422178
f 1 2 5
f 1 5 3
f 1 3 7
f 1 7 12
f 1 12 22
f 1 22 37
f 1 37 65
f 1 65 96
f 1 96 100
f 1 100 73
f 1 73 41
f 1 41 24
f 1 24 14
f 1 14 8
f 1 8 4
f 1 4 9
f 1 9 18
f 1 18 29
f 1 29 52
f 1 52 82
f 1 82 117
f 1 117 151
f 1 151 153
f 1 153 156
f 1 156 133
f 1 133 132
f 1 132 90
f 1 90 60
f 1 60 59
f 1 59 58
f 1 58 57
f 1 57 55
f 1 55 32
f 1 32 20
f 1 20 11
f 1 11 6
f 1 6 2
f 2 6 5
f 3 5 10
f 3 10 19
f 3 19 31
f 3 31 54
f 3 54 86
f 3 86 128
f 3 128 155
f 3 155 158
f 3 158 159
f 3 159 161
f 3 161 160
f 3 160 145
f 3 145 144
f 3 144 143
f 3 143 142
f 3 142 141
f 3 141 98
f 3 98 97
f 3 97 66
f 3 66 38
f 3 38 23
f 3 23 13
f 3 13 7
f 4 8 9
f 5 6 10
f 6 11 21
f 6 21 33
f 6 33 56
f 6 56 89
f 6 89 123
f 6 123 122
f 6 122 83
f 6 83 53
f 6 53 30
f 6 30 19
f 6 19 10
f 7 13 12
f 8 14 15
f 8 15 16
f 8 16 17
f 8 17 9
f 9 17 18
f 11 20 21
f 12 13 22
f 13 23 22
f 14 24 25
f 14 25 15
f 15 26 16
f 15 25 26
f 16 26 27
f 16 27 17
f 17 27 28
f 17 28 29
f 17 29 18
f 19 30 31
f 20 32 21
f 21 32 34
f 21 34 35
f 21 35 33
f 22 23 36
f 22 36 37
f 23 38 39
f 23 39 40
f 23 40 36
f 24 41 42
f 24 42 26
f 24 26 25
f 26 42 43
f 26 43 44
f 26 44 45
f 26 45 46
f 26 46 47
f 26 47 48
f 26 48 49
f 26 49 50
f 26 50 27
f 27 50 51
f 27 51 28
f 28 51 52
f 28 52 29
f 30 53 31
f 31 53 54
f 32 55 34
f 33 35 56
f 34 57 58
f 34 58 59
f 34 59 60
f 34 60 61
f 34 61 35
f 34 55 57
f 35 61 62
f 35 62 63
f 35 63 64
f 35 64 56
f 36 40 37
f 37 40 65
f 38 66 67
f 38 67 68
f 38 68 39
f 39 68 69
f 39 69 70
f 39 70 40
f 40 71 72
f 40 72 65
f 40 70 46
f 40 46 71
f 41 73 74
f 41 74 42
f 42 74 43
f 43 74 44
f 44 74 45
f 45 74 71
f 45 71 46
f 46 70 69
f 46 69 75
f 46 75 76
f 46 76 47
f 47 76 48
f 48 76 49
f 49 77 78
f 49 78 79
f 49 79 50
f 49 76 80
f 49 80 77
f 50 79 81
f 50 81 51
f 51 81 82
f 51 82 52
f 53 83 84
f 53 84 54
f 54 84 85
f 54 85 86
f 56 87 88
f 56 88 89
f 56 64 87
f 60 90 91
f 60 91 92
f 60 92 61
f 61 92 62
f 62 93 88
f 62 88 63
f 62 92 94
f 62 94 93
f 63 88 95
f 63 95 64
f 64 95 87
f 65 72 96
f 66 97 67
f 67 97 98
f 67 98 99
f 67 99 68
f 68 99 75
f 68 75 69
f 71 100 101
f 71 101 72
f 71 74 100
f 72 101 100
f 72 100 96
f 73 100 74
f 75 99 102
f 75 102 103
f 75 103 104
f 75 104 105
f 75 105 106
f 75 106 110
f 75 110 107
f 75 107 80
f 75 80 76
f 77 108 109
f 77 109 78
f 77 80 107
f 77 107 110
f 77 110 111
f 77 111 112
f 77 112 108
f 78 113 79
f 78 109 114
f 78 114 113
f 79 115 81
f 79 113 116
f 79 116 115
f 81 117 82
f 81 115 118
f 81 118 119
f 81 119 120
f 81 120 121
f 81 121 117
f 83 122 84
f 84 122 123
f 84 123 124
f 84 124 85
f 85 124 125
f 85 125 126
f 85 126 127
f 85 127 128
f 85 128 129
f 85 129 86
f 86 129 128
f 87 95 130
f 87 130 88
f 88 125 131
f 88 131 123
f 88 123 89
f 88 130 95
f 88 93 126
f 88 126 125
f 90 132 91
f 91 132 133
f 91 133 134
f 91 134 92
f 92 134 135
f 92 135 94
f 93 136 126
f 93 94 137
f 93 137 138
f 93 138 139
f 93 139 140
f 93 140 136
f 94 135 114
f 94 114 137
f 98 141 102
f 98 102 99
f 102 141 142
f 102 142 103
f 103 142 143
f 103 143 104
f 104 143 144
f 104 144 105
f 105 144 145
f 105 145 146
f 105 146 110
f 105 110 106
f 108 112 109
f 109 112 114
f 110 146 111
f 111 146 112
f 112 146 147
f 112 147 148
f 112 148 114
f 113 114 116
f 114 148 137
f 114 135 116
f 115 116 118
f 116 135 149
f 116 149 150
f 116 150 118
f 117 121 151
f 118 150 119
f 119 150 120
f 120 150 134
f 120 134 121
f 121 134 152
f 121 152 153
f 121 153 151
f 123 131 124
f 124 131 125
f 126 136 154
f 126 154 127
f 127 154 128
f 128 140 155
f 128 154 140
f 133 156 134
f 134 150 135
f 134 156 153
f 134 153 152
f 135 150 149
f 136 140 154
f 137 148 157
f 137 157 138
f 138 158 140
f 138 140 139
f 138 157 159
f 138 159 158
f 140 158 155
f 145 160 147
f 145 147 146
f 147 160 161
f 147 161 159
f 147 159 148
f 148 159 157
