v -0.467669 0.255039 0.165246
v -0.351226 0.255039 0.165246
v -0.465239 0.255039 0.174418
v -0.468221 0.256132 0.165246
v -0.428597 0.482765 0.165246
v -0.295213 0.482765 0.350844
v -0.295213 0.255039 0.251628
v -0.465085 0.258294 0.180994
v -0.465968 0.256511 0.174418
v -0.476901 0.273632 0.165246
v -0.462302 0.255039 0.184253
v -0.520832 0.482765 0.165246
v -0.295213 0.482765 0.459895
v -0.295213 0.255039 0.400336
v -0.47911 0.28188 0.172255
v -0.46144 0.255039 0.186964
v -0.463671 0.260836 0.189618
v -0.466918 0.265005 0.186128
v -0.477056 0.28596 0.18731
v -0.480281 0.292425 0.18731
v -0.485802 0.303572 0.18731
v -0.4917 0.303527 0.165246
v -0.520236 0.471796 0.165246
v -0.516768 0.477526 0.181081
v -0.516768 0.48214 0.181081
v -0.517011 0.482765 0.180129
v -0.3029 0.482765 0.455453
v -0.326356 0.471484 0.441148
v -0.295213 0.480179 0.459722
v -0.295213 0.256355 0.401259
v -0.300625 0.255039 0.396731
v -0.491987 0.307807 0.172082
v -0.455742 0.255039 0.199626
v -0.465968 0.269441 0.195559
v -0.478933 0.295145 0.196021
v -0.489933 0.312155 0.18731
v -0.490816 0.310126 0.180706
v -0.492561 0.305288 0.165246
v -0.515995 0.439917 0.165246
v -0.516194 0.468898 0.178946
v -0.516525 0.482765 0.181975
v -0.505438 0.432516 0.20101
v -0.510827 0.471484 0.200232
v -0.511512 0.482765 0.200232
v -0.326997 0.482765 0.441523
v -0.316505 0.458577 0.444926
v -0.300581 0.458577 0.454126
v -0.295213 0.471128 0.459087
v -0.302237 0.471484 0.455078
v -0.333446 0.482765 0.437542
v -0.332806 0.471484 0.437081
v -0.323176 0.360598 0.426438
v -0.3173 0.355872 0.429178
v -0.318029 0.406901 0.43636
v -0.297577 0.257848 0.400711
v -0.295213 0.260211 0.403394
v -0.303054 0.291266 0.416055
v -0.303783 0.255039 0.394453
v -0.30999 0.271336 0.400394
v -0.497509 0.316167 0.165246
v -0.461043 0.265005 0.200001
v -0.449756 0.255039 0.210009
v -0.479309 0.307585 0.209057
v -0.476946 0.298957 0.204616
v -0.48123 0.303393 0.200289
v -0.487834 0.316836 0.200087
v -0.491501 0.321384 0.195646
v -0.492671 0.31862 0.18731
v -0.494372 0.315253 0.175601
v -0.515377 0.43528 0.165246
v -0.498812 0.32941 0.174418
v -0.502346 0.380795 0.18682
v -0.495344 0.32941 0.18731
v -0.503538 0.428057 0.205798
v -0.504113 0.436685 0.207413
v -0.504731 0.445646 0.208653
v -0.506454 0.471484 0.21223
v -0.506785 0.482765 0.212922
v -0.301795 0.381063 0.441898
v -0.295213 0.439895 0.454444
v -0.334418 0.482765 0.436706
v -0.340359 0.471484 0.43062
v -0.337996 0.445646 0.428342
v -0.336119 0.424958 0.426496
v -0.335279 0.416353 0.425746
v -0.327416 0.32941 0.417411
v -0.322138 0.35197 0.425746
v -0.312773 0.32941 0.427852
v -0.304932 0.355247 0.436245
v -0.310961 0.295992 0.413979
v -0.295213 0.29082 0.420324
v -0.303518 0.303594 0.422573
v -0.295213 0.30589 0.42863
v -0.311403 0.256377 0.388886
v -0.308245 0.255039 0.390646
v -0.323043 0.309925 0.413431
v -0.328057 0.3056 0.405528
v -0.498701 0.320269 0.165246
v -0.427448 0.255039 0.248686
v -0.430563 0.264469 0.25232
v -0.45413 0.278759 0.225151
v -0.465836 0.295658 0.221027
v -0.47456 0.303393 0.213297
v -0.465725 0.308766 0.233746
v -0.476835 0.312311 0.217681
v -0.481363 0.316569 0.213297
v -0.489977 0.32941 0.204327
v -0.492252 0.32941 0.197867
v -0.501219 0.329209 0.165246
v -0.503074 0.343053 0.165246
v -0.490595 0.33768 0.205971
v -0.491236 0.346308 0.207356
v -0.503273 0.471484 0.21869
v -0.504068 0.482765 0.218546
v -0.296362 0.338862 0.438754
v -0.295213 0.32941 0.438004
v -0.340823 0.482765 0.431082
v -0.346809 0.471484 0.424304
v -0.340934 0.406901 0.41842
v -0.335058 0.34234 0.412537
v -0.333866 0.32941 0.411354
v -0.324965 0.316502 0.41519
v -0.319244 0.32941 0.423871
v -0.311315 0.321317 0.427015
v -0.307781 0.31269 0.424967
v -0.315754 0.304798 0.415594
v -0.299167 0.307897 0.427448
v -0.295213 0.311709 0.43163
v -0.32185 0.255039 0.377522
v -0.312949 0.255039 0.386406
v -0.345969 0.301298 0.384704
v -0.388885 0.256377 0.311388
v -0.315975 0.316814 0.421795
v -0.331414 0.316502 0.408902
v -0.335964 0.309925 0.400538
v -0.348885 0.309925 0.387617
v -0.403683 0.255039 0.289872
v -0.400767 0.257826 0.297602
v -0.449889 0.288256 0.241591
v -0.429988 0.303572 0.290737
v -0.463362 0.300161 0.229621
v -0.452142 0.30997 0.258434
v -0.478867 0.320938 0.2212
v -0.43858 0.311285 0.283123
v -0.424997 0.312667 0.307812
v -0.485383 0.32941 0.213153
v -0.488188 0.355247 0.21497
v -0.493953 0.432739 0.224949
v -0.499055 0.471484 0.226074
v -0.503649 0.482765 0.219383
v -0.295213 0.316257 0.433879
v -0.347273 0.482765 0.424765
v -0.372651 0.471484 0.398462
v -0.340337 0.32941 0.404893
v -0.355489 0.353999 0.394222
v -0.393169 0.34234 0.354391
v -0.364633 0.255039 0.334721
v -0.400546 0.309925 0.335933
v -0.400414 0.271358 0.309975
v -0.390696 0.255039 0.308215
v -0.386389 0.255039 0.312946
v -0.344335 0.316502 0.395981
v -0.376626 0.316502 0.363678
v -0.401783 0.255039 0.29316
v -0.422987 0.277511 0.277932
v -0.396792 0.255039 0.30063
v -0.413997 0.29597 0.310984
v -0.416074 0.291266 0.303053
v -0.422589 0.303572 0.303543
v -0.427471 0.307874 0.299188
v -0.465284 0.322387 0.245888
v -0.427029 0.321295 0.31133
v -0.415588 0.30482 0.315743
v -0.421794 0.316792 0.315945
v -0.4517 0.325754 0.270577
v -0.455124 0.329789 0.265703
v -0.464091 0.355247 0.256733
v -0.475466 0.471484 0.266972
v -0.465504 0.474739 0.285027
v -0.499806 0.482765 0.226074
v -0.360193 0.482765 0.411844
v -0.392021 0.471484 0.37908
v -0.374086 0.416375 0.386983
v -0.398448 0.32941 0.346748
v -0.392595 0.406901 0.366736
v -0.40715 0.354044 0.342537
v -0.395997 0.316502 0.344297
v -0.402446 0.316502 0.337836
v -0.413423 0.309925 0.323011
v -0.394473 0.255039 0.303774
v -0.415168 0.316502 0.324915
v -0.423892 0.32941 0.319233
v -0.427868 0.32941 0.312772
v -0.433191 0.32941 0.303572
v -0.435819 0.342808 0.302505
v -0.436261 0.355247 0.304956
v -0.438845 0.389958 0.309427
v -0.45413 0.458577 0.300601
v -0.455079 0.471484 0.302274
v -0.451347 0.471484 0.308735
v -0.441165 0.471484 0.326357
v -0.44154 0.482765 0.326992
v -0.462589 0.482765 0.290651
v -0.49424 0.482765 0.235736
v -0.398934 0.482765 0.373081
v -0.42429 0.471484 0.346777
v -0.411347 0.32941 0.333827
v -0.408873 0.316502 0.331376
v -0.417421 0.32941 0.327366
v -0.424975 0.34234 0.320906
v -0.42884 0.34234 0.314445
v -0.42577 0.351903 0.322146
v -0.429193 0.355827 0.317301
v -0.438293 0.432739 0.321367
v -0.439552 0.449726 0.323559
v -0.426455 0.360509 0.323184
v -0.437101 0.471484 0.332818
v -0.438072 0.482765 0.332616
v -0.406223 0.482765 0.365784
v -0.424732 0.482765 0.347239
v -0.431093 0.482765 0.340778
v -0.430629 0.471484 0.340316
v -0.426499 0.425047 0.336077
v -0.425726 0.41642 0.33524
v -0.437542 0.482765 0.333452
f 1 2 7
f 1 7 14
f 1 14 31
f 1 31 58
f 1 58 95
f 1 95 130
f 1 130 129
f 1 129 157
f 1 157 161
f 1 161 160
f 1 160 190
f 1 190 166
f 1 166 164
f 1 164 137
f 1 137 99
f 1 99 62
f 1 62 33
f 1 33 16
f 1 16 11
f 1 11 3
f 1 3 4
f 1 4 10
f 1 10 22
f 1 22 38
f 1 38 60
f 1 60 98
f 1 98 109
f 1 109 110
f 1 110 70
f 1 70 39
f 1 39 23
f 1 23 12
f 1 12 5
f 1 5 2
f 2 5 6
f 2 6 7
f 3 8 9
f 3 9 10
f 3 10 4
f 3 11 8
f 5 12 26
f 5 26 41
f 5 41 44
f 5 44 78
f 5 78 114
f 5 114 150
f 5 150 180
f 5 180 204
f 5 204 203
f 5 203 202
f 5 202 218
f 5 218 225
f 5 225 221
f 5 221 220
f 5 220 219
f 5 219 205
f 5 205 181
f 5 181 152
f 5 152 117
f 5 117 81
f 5 81 50
f 5 50 45
f 5 45 27
f 5 27 13
f 5 13 6
f 6 13 29
f 6 29 48
f 6 48 80
f 6 80 116
f 6 116 151
f 6 151 128
f 6 128 93
f 6 93 91
f 6 91 56
f 6 56 30
f 6 30 14
f 6 14 7
f 8 15 9
f 8 11 16
f 8 16 17
f 8 17 18
f 8 18 19
f 8 19 20
f 8 20 21
f 8 21 15
f 9 15 10
f 10 15 22
f 12 23 24
f 12 24 25
f 12 25 26
f 13 27 28
f 13 28 29
f 14 30 31
f 15 32 22
f 15 21 32
f 16 33 17
f 17 33 34
f 17 34 35
f 17 35 18
f 18 35 19
f 19 35 20
f 20 35 21
f 21 35 36
f 21 36 37
f 21 37 32
f 22 32 38
f 23 39 40
f 23 40 24
f 24 41 25
f 24 40 42
f 24 42 43
f 24 43 44
f 24 44 41
f 25 41 26
f 27 45 28
f 28 46 47
f 28 47 48
f 28 48 49
f 28 49 29
f 28 45 50
f 28 50 51
f 28 51 52
f 28 52 53
f 28 53 54
f 28 54 46
f 29 49 48
f 30 55 31
f 30 56 57
f 30 57 55
f 31 55 59
f 31 59 58
f 32 37 60
f 32 60 38
f 33 61 34
f 33 62 61
f 34 61 63
f 34 63 64
f 34 64 65
f 34 65 35
f 35 66 67
f 35 67 36
f 35 65 66
f 36 67 68
f 36 68 69
f 36 69 37
f 37 69 60
f 39 70 71
f 39 71 72
f 39 72 40
f 40 72 42
f 42 72 73
f 42 73 74
f 42 74 43
f 43 74 75
f 43 75 76
f 43 76 77
f 43 77 44
f 44 77 78
f 46 79 47
f 46 54 79
f 47 80 48
f 47 79 80
f 50 81 82
f 50 82 51
f 51 82 83
f 51 83 84
f 51 84 52
f 52 84 85
f 52 85 86
f 52 86 87
f 52 87 88
f 52 88 53
f 53 88 89
f 53 89 54
f 54 89 79
f 55 57 90
f 55 90 59
f 56 91 57
f 57 92 90
f 57 91 93
f 57 93 92
f 58 94 95
f 58 59 94
f 59 90 96
f 59 96 97
f 59 97 94
f 60 69 68
f 60 68 67
f 60 67 98
f 61 62 99
f 61 99 100
f 61 100 101
f 61 101 102
f 61 102 103
f 61 103 63
f 63 103 104
f 63 104 105
f 63 105 106
f 63 106 66
f 63 66 65
f 63 65 64
f 66 106 67
f 67 106 107
f 67 107 108
f 67 108 73
f 67 73 71
f 67 71 109
f 67 109 98
f 70 110 71
f 71 110 109
f 71 73 72
f 73 108 74
f 74 111 75
f 74 108 111
f 75 111 112
f 75 112 113
f 75 113 76
f 76 113 77
f 77 113 114
f 77 114 78
f 79 89 115
f 79 115 80
f 80 115 116
f 81 117 82
f 82 117 152
f 82 152 118
f 82 118 83
f 83 118 84
f 84 118 119
f 84 119 120
f 84 120 121
f 84 121 85
f 85 121 86
f 86 122 123
f 86 123 87
f 86 121 122
f 87 123 88
f 88 116 115
f 88 115 89
f 88 123 124
f 88 124 116
f 90 92 125
f 90 125 126
f 90 126 96
f 92 127 125
f 92 93 127
f 93 128 127
f 94 129 130
f 94 130 95
f 94 97 131
f 94 131 132
f 94 132 129
f 96 126 133
f 96 133 122
f 96 122 134
f 96 134 135
f 96 135 97
f 97 135 136
f 97 136 131
f 99 137 138
f 99 138 100
f 100 139 101
f 100 138 139
f 101 139 102
f 102 139 140
f 102 140 141
f 102 141 103
f 103 141 140
f 103 140 104
f 104 142 105
f 104 140 142
f 105 143 106
f 105 142 144
f 105 144 145
f 105 145 172
f 105 172 143
f 106 143 107
f 107 143 146
f 107 146 111
f 107 111 108
f 111 146 112
f 112 146 147
f 112 147 148
f 112 148 149
f 112 149 113
f 113 149 150
f 113 150 114
f 116 124 151
f 118 152 181
f 118 181 153
f 118 153 119
f 119 153 120
f 120 154 121
f 120 153 155
f 120 155 156
f 120 156 184
f 120 184 154
f 121 154 134
f 121 134 122
f 122 133 124
f 122 124 123
f 124 133 125
f 124 125 151
f 125 127 128
f 125 128 151
f 125 133 126
f 129 132 157
f 131 136 158
f 131 158 132
f 132 158 159
f 132 159 160
f 132 160 161
f 132 161 157
f 134 154 162
f 134 162 136
f 134 136 135
f 136 162 163
f 136 163 158
f 137 164 138
f 138 140 165
f 138 165 139
f 138 164 166
f 138 166 159
f 138 159 167
f 138 167 168
f 138 168 169
f 138 169 140
f 139 165 140
f 140 169 170
f 140 170 142
f 142 170 144
f 143 171 146
f 143 172 171
f 144 170 145
f 145 170 169
f 145 169 167
f 145 167 173
f 145 173 174
f 145 174 172
f 146 171 175
f 146 175 176
f 146 176 147
f 147 176 177
f 147 177 148
f 148 177 178
f 148 178 149
f 149 178 179
f 149 179 150
f 150 179 180
f 153 182 183
f 153 183 155
f 153 181 205
f 153 205 182
f 154 163 162
f 154 184 187
f 154 187 163
f 155 183 185
f 155 185 186
f 155 186 156
f 156 186 184
f 158 187 188
f 158 188 189
f 158 189 159
f 158 163 187
f 159 166 190
f 159 190 160
f 159 189 167
f 167 189 173
f 167 169 168
f 171 172 175
f 172 174 191
f 172 191 192
f 172 192 193
f 172 193 175
f 173 189 174
f 174 189 191
f 175 193 194
f 175 194 176
f 176 194 195
f 176 195 196
f 176 196 177
f 177 196 197
f 177 197 178
f 178 197 198
f 178 198 199
f 178 199 179
f 179 199 200
f 179 200 201
f 179 201 202
f 179 202 203
f 179 203 204
f 179 204 180
f 182 185 183
f 182 205 206
f 182 206 186
f 182 186 185
f 184 186 207
f 184 207 188
f 184 188 187
f 186 206 207
f 188 207 208
f 188 208 189
f 189 208 191
f 191 208 207
f 191 207 209
f 191 209 192
f 192 209 210
f 192 210 193
f 193 211 195
f 193 195 194
f 193 210 212
f 193 212 211
f 195 211 196
f 196 211 197
f 197 211 213
f 197 213 214
f 197 214 215
f 197 215 199
f 197 199 198
f 199 215 200
f 200 215 201
f 201 215 216
f 201 216 217
f 201 217 218
f 201 218 202
f 205 219 206
f 206 220 221
f 206 221 222
f 206 222 223
f 206 223 207
f 206 219 220
f 207 223 209
f 209 216 212
f 209 212 210
f 209 223 224
f 209 224 216
f 211 212 216
f 211 216 213
f 213 216 215
f 213 215 214
f 216 224 223
f 216 223 217
f 217 223 222
f 217 222 225
f 217 225 218
f 221 225 222
