v -0.16148 0.425253 0.447247
v -0.16148 0.425253 0.485216
v -0.16148 0.425275 0.421993
v -0.161464 0.425253 0.421993
v -0.161464 0.425253 0.51503
v -0.16148 0.432765 0.516024
v -0.16148 0.639424 0.406922
v -9.4653e-05 0.425253 0.449466
v -0.161464 0.639424 0.406922
v -0.148636 0.425253 0.518475
v -0.16148 0.446699 0.517889
v -0.16148 0.649255 0.409631
v -9.4653e-05 0.425253 0.539277
v -9.4653e-05 0.639424 0.434912
v -0.161464 0.649255 0.409631
v -0.148542 0.648319 0.411306
v -0.139079 0.647003 0.412572
v -9.4653e-05 0.648987 0.436478
v -9.4653e-05 0.644283 0.435702
v -0.118859 0.425253 0.526466
v -0.161464 0.458603 0.519482
v -0.16148 0.471511 0.521198
v -0.16148 0.652799 0.419842
v -9.4653e-05 0.43874 0.541019
v -0.0452275 0.425253 0.539277
v -0.161464 0.652799 0.419842
v -9.4653e-05 0.652532 0.445681
v -9.4653e-05 0.650793 0.441148
v -0.103219 0.425253 0.530659
v -0.0839624 0.432765 0.536826
v -0.0779121 0.464266 0.542653
v -0.148542 0.471511 0.524669
v -0.130533 0.475234 0.529992
v -0.16148 0.484419 0.521974
v -0.16148 0.653 0.432761
v -9.4653e-05 0.458603 0.543579
v -0.0581339 0.425253 0.539263
v -0.00646096 0.471511 0.54524
v -0.0581339 0.458603 0.543565
v -0.0581339 0.44496 0.541809
v -0.122713 0.653 0.432761
v -9.4653e-05 0.652777 0.452229
v -0.0839624 0.425253 0.535819
v -0.0796971 0.471511 0.54313
v -0.0968688 0.471511 0.538528
v -0.071056 0.425253 0.538406
v -0.07371 0.455661 0.542081
v -0.071056 0.471511 0.544477
v -0.0811347 0.484441 0.543524
v -0.130312 0.492422 0.529938
v -0.16148 0.497349 0.520599
v -0.16148 0.653 0.471507
v -9.4653e-05 0.471511 0.54524
v -0.0651005 0.45167 0.542612
v -0.0581339 0.471511 0.545226
v -9.4653e-05 0.484441 0.545989
v -0.0581339 0.484441 0.545975
v -9.4653e-05 0.653 0.458587
v -0.071056 0.484441 0.545226
v -0.0798235 0.494005 0.54317
v -0.135019 0.496992 0.527773
v -0.16148 0.509855 0.518121
v -0.16148 0.649322 0.48527
v -0.148542 0.65164 0.484413
v -0.135635 0.65271 0.484413
v -0.122713 0.653 0.484413
v -9.4653e-05 0.490795 0.545335
v -0.0452275 0.497349 0.544654
v -0.0581339 0.497349 0.544641
v -9.4653e-05 0.653 0.497332
v -0.071214 0.497929 0.543756
v -0.16148 0.536095 0.51292
v -0.0756214 0.502632 0.542313
v -0.0762691 0.567372 0.529434
v -0.0766799 0.632156 0.516542
v -0.0800921 0.623528 0.517399
v -0.0842152 0.627318 0.515548
v -0.147436 0.612538 0.501525
v -0.16148 0.649166 0.48557
v -0.148542 0.648096 0.492744
v -0.0968688 0.652042 0.497332
v -0.135635 0.649166 0.494351
v -0.0839624 0.652866 0.497332
v -0.071056 0.653 0.497332
v -9.4653e-05 0.497349 0.544654
v -9.4653e-05 0.501652 0.543838
v -0.0193831 0.523187 0.539712
v -0.0452275 0.600678 0.52486
v -0.0581339 0.506066 0.54298
v -0.0670119 0.505308 0.54283
v -9.4653e-05 0.651194 0.503676
v -0.0676596 0.570827 0.530101
v -0.16148 0.613586 0.49755
v -0.0680703 0.636369 0.517358
v -0.0718459 0.640182 0.515698
v -0.0839624 0.639424 0.513043
v -0.0968688 0.639424 0.509748
v -0.16148 0.639245 0.492459
v -0.16148 0.645242 0.490907
v -0.157483 0.646825 0.491533
v -0.106995 0.647182 0.504766
v -0.0968688 0.648497 0.506127
v -0.0839624 0.649299 0.507693
v -0.071056 0.649433 0.509095
v -0.0581339 0.649433 0.509816
v -9.4653e-05 0.517792 0.540747
v -9.4653e-05 0.594124 0.526126
v -0.00646096 0.638108 0.517699
v -0.0581339 0.626516 0.519904
v -0.0581339 0.613586 0.522382
v -0.0581339 0.638064 0.517685
v -0.0193831 0.649433 0.50983
v -9.4653e-05 0.649433 0.50983
v -0.0581339 0.644529 0.516283
v -0.115604 0.644997 0.503513
v -0.110691 0.640182 0.505882
v -0.0323053 0.644551 0.516283
v -9.4653e-05 0.644573 0.516283
v -9.4653e-05 0.638108 0.517699
v -9.4653e-05 0.641296 0.517004
f 1 2 6
f 1 6 11
f 1 11 22
f 1 22 34
f 1 34 51
f 1 51 62
f 1 62 72
f 1 72 93
f 1 93 98
f 1 98 99
f 1 99 79
f 1 79 63
f 1 63 52
f 1 52 35
f 1 35 23
f 1 23 12
f 1 12 7
f 1 7 3
f 1 3 4
f 1 4 8
f 1 8 13
f 1 13 25
f 1 25 37
f 1 37 46
f 1 46 43
f 1 43 29
f 1 29 20
f 1 20 10
f 1 10 5
f 1 5 2
f 2 5 6
f 3 7 4
f 4 7 9
f 4 9 8
f 5 10 11
f 5 11 6
f 7 12 15
f 7 15 9
f 8 9 14
f 8 14 19
f 8 19 18
f 8 18 28
f 8 28 27
f 8 27 42
f 8 42 58
f 8 58 70
f 8 70 91
f 8 91 113
f 8 113 118
f 8 118 120
f 8 120 119
f 8 119 107
f 8 107 106
f 8 106 86
f 8 86 85
f 8 85 67
f 8 67 56
f 8 56 53
f 8 53 36
f 8 36 24
f 8 24 13
f 9 15 16
f 9 16 17
f 9 17 18
f 9 18 19
f 9 19 14
f 10 20 21
f 10 21 11
f 11 21 22
f 12 23 26
f 12 26 15
f 13 24 25
f 15 18 16
f 15 26 27
f 15 27 28
f 15 28 18
f 16 18 17
f 20 29 30
f 20 30 31
f 20 31 21
f 21 31 32
f 21 32 22
f 22 32 33
f 22 33 34
f 23 35 41
f 23 41 26
f 24 36 25
f 25 36 38
f 25 38 39
f 25 39 40
f 25 40 37
f 26 41 27
f 27 41 42
f 29 43 30
f 30 43 31
f 31 44 45
f 31 45 33
f 31 33 32
f 31 43 46
f 31 46 47
f 31 47 48
f 31 48 44
f 33 49 34
f 33 45 44
f 33 44 49
f 34 49 50
f 34 50 51
f 35 52 66
f 35 66 84
f 35 84 70
f 35 70 58
f 35 58 41
f 36 53 38
f 37 40 54
f 37 54 46
f 38 55 39
f 38 53 56
f 38 56 57
f 38 57 55
f 39 54 40
f 39 55 54
f 41 58 42
f 44 48 59
f 44 59 49
f 46 54 47
f 47 54 48
f 48 55 57
f 48 57 59
f 48 54 55
f 49 59 60
f 49 60 50
f 50 60 61
f 50 61 51
f 51 61 62
f 52 63 64
f 52 64 65
f 52 65 66
f 56 67 68
f 56 68 57
f 57 68 69
f 57 69 59
f 59 69 71
f 59 71 60
f 60 72 61
f 60 71 73
f 60 73 74
f 60 74 75
f 60 75 76
f 60 76 77
f 60 77 78
f 60 78 72
f 61 72 62
f 63 79 80
f 63 80 64
f 64 81 65
f 64 80 82
f 64 82 81
f 65 83 66
f 65 81 83
f 66 83 84
f 67 85 68
f 68 85 86
f 68 86 87
f 68 87 88
f 68 88 89
f 68 89 69
f 69 89 90
f 69 90 71
f 70 84 91
f 71 90 92
f 71 92 73
f 72 78 93
f 73 92 94
f 73 94 74
f 74 94 75
f 75 94 95
f 75 95 96
f 75 96 97
f 75 97 77
f 75 77 76
f 77 97 98
f 77 98 78
f 78 98 93
f 79 99 100
f 79 100 80
f 80 101 102
f 80 102 82
f 80 100 101
f 81 82 103
f 81 103 83
f 82 102 103
f 83 103 104
f 83 104 105
f 83 105 84
f 84 105 91
f 86 106 87
f 87 106 107
f 87 107 108
f 87 108 88
f 88 108 109
f 88 109 110
f 88 110 89
f 89 110 90
f 90 110 109
f 90 109 111
f 90 111 92
f 91 105 112
f 91 112 113
f 92 111 94
f 94 111 114
f 94 114 95
f 95 114 101
f 95 101 115
f 95 115 96
f 96 115 97
f 97 115 116
f 97 116 98
f 98 116 115
f 98 115 99
f 99 115 100
f 100 115 101
f 101 114 102
f 102 114 103
f 103 114 104
f 104 114 105
f 105 114 117
f 105 117 118
f 105 118 112
f 107 119 108
f 108 119 120
f 108 120 114
f 108 114 111
f 108 111 109
f 112 118 113
f 114 120 117
f 117 120 118
