v 0.240658 -0.64028 -0.0295656
v 0.228355 -0.651853 -0.0645346
v 0.225847 -0.639133 -0.0889514
v 0.231525 -0.634151 -0.0669479
v 0.232424 -0.62982 -0.0497236
v 0.237866 -0.630488 -0.0128618
v 0.239948 -0.639116 0.0263186
v 0.228355 -0.651853 0.0645527
v 0.213071 -0.652949 -0.0968064
v 0.205925 -0.643738 -0.128794
v 0.194379 -0.635572 -0.144883
v 0.210231 -0.629306 -0.109725
v 0.193764 -0.594125 -0.0775948
v 0.208528 -0.618093 -0.0936834
v 0.194616 -0.580258 -0.029187
v 0.206919 -0.593851 -0.0230828
v 0.224333 -0.614361 -0.0193446
v 0.224333 -0.614361 0.0193154
v 0.232424 -0.629803 0.0497417
v 0.231525 -0.634151 0.066966
v 0.225799 -0.639133 0.0889695
v 0.206588 -0.644235 0.128292
v 0.213071 -0.652949 0.0968245
v 0.135561 -0.653 -0.187234
v 0.187234 -0.652487 -0.142044
v 0.166414 -0.641598 -0.179331
v 0.18255 -0.638842 -0.161539
v 0.179001 -0.621517 -0.146728
v 0.166603 -0.595272 -0.127375
v 0.142044 -0.555486 -0.103289
v 0.181177 -0.580857 -0.0782099
v 0.102012 -0.478104 -0.0403071
v 0.108779 -0.478104 -0.0128618
v 0.195089 -0.57971 -0.0193446
v 0.195089 -0.57971 0.0193154
v 0.206919 -0.593851 0.0230536
v 0.209853 -0.610423 0.0708462
v 0.192013 -0.577879 0.0310979
v 0.208528 -0.618076 0.0937015
v 0.210231 -0.629306 0.109743
v 0.194379 -0.635572 0.144901
v 0.18255 -0.638825 0.161557
v 0.17053 -0.644064 0.175801
v 0.187234 -0.652504 0.142015
v 0.122643 -0.652726 0.20017
v -0.12266 -0.652726 0.20017
v -0.187251 -0.653 -0.135561
v -0.0968241 -0.652949 -0.21307
v 0.122643 -0.652726 -0.200152
v 0.134473 -0.648909 -0.204837
v 0.152644 -0.645005 -0.190215
v 0.134426 -0.635076 -0.201098
v 0.146729 -0.621517 -0.179
v 0.145593 -0.608711 -0.164946
v 0.164947 -0.608728 -0.145593
v 0.105703 -0.514758 -0.0927843
v 0.128842 -0.542817 -0.102911
v 0.104425 -0.502671 -0.0788724
v 0.117911 -0.502004 -0.0546922
v 0.0882893 -0.484199 -0.0731467
v 0.0471214 -0.478104 -0.0988885
v 0.107832 -0.478104 0.0175646
v 0.194237 -0.593629 0.0743005
v 0.142044 -0.555486 0.10326
v 0.181177 -0.580857 0.0781807
v 0.0988888 -0.478104 0.0471392
v 0.166603 -0.595272 0.127346
v 0.179001 -0.621517 0.146747
v 0.146729 -0.621517 0.179018
v 0.144883 -0.635572 0.19435
v 0.134473 -0.648909 0.204855
v 0.142044 -0.652487 0.187252
v 0.103715 -0.650552 0.215123
v 0.064535 -0.651853 0.228372
v -0.0645523 -0.651853 0.228372
v -0.103733 -0.650552 0.215123
v -0.134443 -0.648909 0.204855
v -0.142014 -0.652504 0.187252
v -0.20017 -0.652726 0.122661
v -0.20017 -0.652726 -0.122643
v -0.204854 -0.648909 -0.134473
v -0.142014 -0.652487 -0.187234
v -0.128291 -0.644235 -0.206587
v -0.0645523 -0.651853 -0.228354
v 0.064535 -0.651853 -0.228354
v 0.103715 -0.650552 -0.215105
v 0.0889518 -0.639133 -0.225799
v 0.109725 -0.629306 -0.210231
v 0.127375 -0.595272 -0.166603
v 0.102958 -0.542817 -0.128842
v 0.0927846 -0.514758 -0.105702
v 0.140814 -0.595272 -0.153732
v 0.0727212 -0.484199 -0.0888568
v 0.0788727 -0.502671 -0.104425
v 0.103242 -0.555486 -0.142044
v 0.0782103 -0.580857 -0.181177
v 0.0742828 -0.593629 -0.194237
v 0.0175468 -0.478104 -0.107832
v 0.104425 -0.502671 0.0788905
v 0.0731471 -0.484199 0.0883071
v 0.0888571 -0.484199 0.0726917
v 0.0403074 -0.478104 0.101982
v 0.128842 -0.542817 0.102976
v 0.167455 -0.607479 0.141636
v 0.141618 -0.607513 0.167472
v 0.0927846 -0.514758 0.105673
v 0.102911 -0.542817 0.12886
v 0.127375 -0.595272 0.166573
v 0.13064 -0.637729 0.205612
v 0.0889518 -0.639116 0.225817
v 0.0263009 -0.639099 0.239966
v 0.00642678 -0.636514 0.242758
v -0.029536 -0.64028 0.240628
v -0.0889691 -0.639133 0.225817
v -0.129664 -0.638739 0.206937
v -0.161557 -0.638825 0.18252
v -0.1758 -0.644064 0.170548
v -0.204854 -0.648909 0.134443
v -0.187251 -0.652487 0.142015
v -0.215123 -0.650552 0.103733
v -0.228372 -0.651853 0.0645527
v -0.228372 -0.651853 -0.0645346
v -0.215123 -0.650552 -0.103715
v -0.225817 -0.639133 -0.0889514
v -0.201116 -0.635076 -0.134425
v -0.177409 -0.64266 -0.169347
v -0.144901 -0.635572 -0.194379
v -0.0889691 -0.639133 -0.225846
v -0.161557 -0.638842 -0.182549
v -0.029536 -0.64028 -0.240657
v 0.0263009 -0.639116 -0.239948
v 0.0669956 -0.634151 -0.231525
v 0.0936837 -0.618076 -0.208528
v 0.0708285 -0.610423 -0.209852
v 0.0311275 -0.577879 -0.192013
v -0.0128795 -0.478104 -0.108778
v 0.0230359 -0.593851 -0.206919
v 0.019345 -0.57971 -0.195089
v 0.0788727 -0.502671 0.104443
v 0.105703 -0.514758 0.0927551
v 0.0128622 -0.478104 0.108796
v 0.0291874 -0.580258 0.194586
v 0.0775951 -0.594125 0.193782
v 0.0782103 -0.580857 0.181195
v 0.0546925 -0.502004 0.117929
v 0.10329 -0.555486 0.142062
v 0.109725 -0.629306 0.210202
v 0.0669956 -0.634151 0.231496
v 0.0497713 -0.629803 0.232395
v 0.019345 -0.614361 0.22435
v -0.0128795 -0.628485 0.236275
v -0.0497413 -0.629803 0.232395
v -0.0669656 -0.634151 0.231496
v -0.109742 -0.629306 0.210202
v -0.127345 -0.595272 0.166573
v -0.144901 -0.635572 0.19435
v -0.146746 -0.621517 0.179018
v -0.179018 -0.621517 0.146747
v -0.194349 -0.635572 0.144901
v -0.206936 -0.638739 0.129664
v -0.225817 -0.639133 0.0889695
v -0.242284 -0.647402 0.0268865
v -0.240628 -0.64028 -0.0295656
v -0.231495 -0.634151 -0.0669952
v -0.210201 -0.629306 -0.109725
v -0.179018 -0.621517 -0.146728
v -0.166573 -0.595272 -0.127375
v -0.109742 -0.629306 -0.210231
v -0.146746 -0.621517 -0.179
v -0.127345 -0.595272 -0.166603
v -0.0669656 -0.634151 -0.231525
v -0.0497413 -0.62982 -0.232424
v -0.0128795 -0.630488 -0.237866
v 0.049724 -0.629803 -0.232424
v -0.0403248 -0.478104 -0.102012
v -0.019315 -0.57971 -0.195089
v -0.0231005 -0.593851 -0.206919
v -0.0292047 -0.580258 -0.194616
v 0.019345 -0.614361 -0.224332
v -0.0175642 -0.478104 0.107803
v -0.019315 -0.57971 0.19506
v 0.019345 -0.57971 0.19506
v 0.0230832 -0.593851 0.206937
v 0.0936837 -0.618093 0.208546
v -0.019315 -0.614361 0.22435
v -0.0231005 -0.593851 0.206937
v -0.0310975 -0.577879 0.192031
v -0.0451513 -0.610389 0.216685
v -0.0713663 -0.609807 0.209161
v -0.0775651 -0.594159 0.193782
v -0.093701 -0.618076 0.208546
v -0.10326 -0.555486 0.142062
v -0.0788901 -0.502671 0.104443
v -0.102976 -0.542817 0.12886
v -0.14561 -0.608711 0.164964
v -0.167472 -0.607513 0.141636
v -0.105673 -0.514758 0.0927551
v -0.128859 -0.542817 0.102929
v -0.166573 -0.595272 0.127346
v -0.210201 -0.629306 0.109743
v -0.231495 -0.634151 0.066966
v -0.242757 -0.636514 0.00639717
v -0.236274 -0.628485 -0.0128618
v -0.232394 -0.629803 -0.049771
v -0.20916 -0.609807 -0.0713486
v -0.193782 -0.594159 -0.0775948
v -0.208545 -0.618076 -0.0936834
v -0.142061 -0.555486 -0.103242
v -0.164964 -0.608711 -0.145593
v -0.128859 -0.542817 -0.102958
v -0.105673 -0.514758 -0.0927843
v -0.104443 -0.502671 -0.0788724
v -0.093701 -0.618093 -0.208528
v -0.103307 -0.555486 -0.142044
v -0.0547099 -0.502004 -0.117911
v -0.141636 -0.607513 -0.167454
v -0.0927546 -0.514758 -0.105702
v -0.102928 -0.542817 -0.128842
v -0.0788901 -0.502671 -0.104425
v -0.0775651 -0.594125 -0.193764
v -0.019315 -0.614361 -0.224332
v -0.0781803 -0.580857 -0.181177
v -0.0731171 -0.484199 -0.0882889
v -0.0989062 -0.478104 -0.0471211
v -0.0471388 -0.478104 0.0989066
v -0.0781803 -0.580857 0.181195
v -0.0726912 -0.484199 0.0888276
v -0.0927546 -0.514758 0.105673
v -0.0883066 -0.484199 0.0731175
v -0.104443 -0.502671 0.0788905
v -0.142061 -0.555486 0.103307
v -0.208545 -0.618093 0.0937015
v -0.193782 -0.594125 0.0775655
v -0.232394 -0.629803 0.0497417
v -0.237647 -0.630813 0.0257981
v -0.22435 -0.614361 0.0193154
v -0.22435 -0.614361 -0.0193446
v -0.216684 -0.610389 -0.045181
v -0.206936 -0.593851 -0.0230828
v -0.192031 -0.577879 -0.0311271
v -0.15233 -0.532699 -0.0322628
v -0.181195 -0.580857 -0.0782099
v -0.0888271 -0.484199 -0.0727209
v -0.10837 -0.478104 -0.0154171
v -0.101982 -0.478104 0.0403252
v -0.117929 -0.502004 0.0547103
v -0.181195 -0.580857 0.0781807
v -0.194586 -0.580258 0.0292051
v -0.206936 -0.593851 0.0231009
v -0.195059 -0.57971 0.0193154
v -0.195059 -0.57971 -0.0193446
v -0.108796 -0.478104 0.0128799
f 1 2 3
f 1 3 4
f 1 4 5
f 1 5 6
f 1 6 7
f 1 7 8
f 1 8 2
f 2 9 10
f 2 10 3
f 2 8 23
f 2 23 9
f 3 10 11
f 3 11 12
f 3 12 4
f 4 13 5
f 4 12 14
f 4 14 13
f 5 13 15
f 5 15 16
f 5 16 17
f 5 17 6
f 6 17 18
f 6 18 19
f 6 19 7
f 7 19 20
f 7 20 21
f 7 21 8
f 8 21 22
f 8 22 23
f 9 24 25
f 9 25 10
f 9 23 24
f 10 25 26
f 10 26 27
f 10 27 11
f 11 27 28
f 11 28 29
f 11 29 12
f 12 29 30
f 12 30 31
f 12 31 14
f 13 31 32
f 13 32 15
f 13 14 31
f 15 33 16
f 15 32 33
f 16 33 34
f 16 34 17
f 17 34 35
f 17 35 18
f 18 35 36
f 18 36 19
f 19 37 20
f 19 36 38
f 19 38 37
f 20 37 39
f 20 39 40
f 20 40 21
f 21 40 41
f 21 41 22
f 22 41 42
f 22 42 43
f 22 43 44
f 22 44 23
f 23 44 45
f 23 45 46
f 23 46 47
f 23 47 24
f 24 47 48
f 24 48 49
f 24 49 50
f 24 50 25
f 25 50 51
f 25 51 26
f 26 51 50
f 26 50 52
f 26 52 53
f 26 53 27
f 27 53 28
f 28 53 54
f 28 54 55
f 28 55 56
f 28 56 57
f 28 57 29
f 29 57 58
f 29 58 30
f 30 58 59
f 30 59 31
f 31 59 32
f 32 59 58
f 32 58 60
f 32 60 61
f 32 61 98
f 32 98 136
f 32 136 175
f 32 175 224
f 32 224 244
f 32 244 252
f 32 252 245
f 32 245 225
f 32 225 180
f 32 180 141
f 32 141 102
f 32 102 66
f 32 66 62
f 32 62 33
f 33 62 35
f 33 35 34
f 35 62 36
f 36 62 38
f 37 38 63
f 37 63 39
f 38 62 63
f 39 64 40
f 39 63 65
f 39 65 66
f 39 66 64
f 40 64 67
f 40 67 41
f 41 68 42
f 41 67 68
f 42 68 69
f 42 69 70
f 42 70 43
f 43 70 71
f 43 71 44
f 44 71 72
f 44 72 45
f 45 71 73
f 45 73 74
f 45 74 75
f 45 75 46
f 45 72 71
f 46 75 76
f 46 76 77
f 46 77 78
f 46 78 79
f 46 79 47
f 47 80 81
f 47 81 82
f 47 82 48
f 47 79 80
f 48 83 84
f 48 84 85
f 48 85 49
f 48 82 83
f 49 85 86
f 49 86 50
f 50 86 87
f 50 87 52
f 52 87 88
f 52 88 89
f 52 89 53
f 53 89 90
f 53 90 91
f 53 91 54
f 54 91 92
f 54 92 55
f 55 92 56
f 56 91 93
f 56 93 60
f 56 60 58
f 56 58 57
f 56 92 91
f 60 93 61
f 61 93 94
f 61 94 95
f 61 95 96
f 61 96 97
f 61 97 98
f 62 66 63
f 63 66 65
f 64 66 99
f 64 99 67
f 66 100 101
f 66 101 99
f 66 102 100
f 67 99 103
f 67 103 68
f 68 103 104
f 68 104 69
f 69 105 106
f 69 106 107
f 69 107 108
f 69 108 70
f 69 104 105
f 70 108 109
f 70 109 71
f 71 109 110
f 71 110 73
f 73 110 74
f 74 110 111
f 74 111 112
f 74 112 113
f 74 113 75
f 75 113 114
f 75 114 76
f 76 114 77
f 77 114 115
f 77 115 116
f 77 116 117
f 77 117 118
f 77 118 78
f 78 119 79
f 78 118 119
f 79 119 118
f 79 118 120
f 79 120 121
f 79 121 122
f 79 122 80
f 80 122 123
f 80 123 81
f 81 124 125
f 81 125 126
f 81 126 82
f 81 123 124
f 82 126 83
f 83 127 128
f 83 128 84
f 83 126 129
f 83 129 127
f 84 130 85
f 84 128 130
f 85 87 86
f 85 130 131
f 85 131 87
f 87 131 132
f 87 132 88
f 88 133 95
f 88 95 89
f 88 132 133
f 89 95 94
f 89 94 90
f 90 94 93
f 90 93 91
f 95 133 96
f 96 133 97
f 97 133 134
f 97 134 135
f 97 135 98
f 98 135 137
f 98 137 138
f 98 138 136
f 99 101 103
f 100 102 139
f 100 139 106
f 100 106 101
f 101 106 140
f 101 140 103
f 102 141 142
f 102 142 143
f 102 143 144
f 102 144 145
f 102 145 139
f 103 140 104
f 104 140 106
f 104 106 105
f 106 139 107
f 107 139 108
f 108 146 147
f 108 147 109
f 108 139 146
f 109 147 110
f 110 148 111
f 110 147 148
f 111 148 112
f 112 148 149
f 112 149 150
f 112 150 151
f 112 151 113
f 113 151 152
f 113 152 153
f 113 153 114
f 114 153 154
f 114 154 115
f 115 154 155
f 115 155 156
f 115 156 116
f 116 156 157
f 116 157 158
f 116 158 159
f 116 159 117
f 117 159 160
f 117 160 118
f 118 160 161
f 118 161 120
f 120 161 121
f 121 161 162
f 121 162 122
f 122 163 124
f 122 124 123
f 122 162 163
f 124 164 165
f 124 165 125
f 124 163 164
f 125 166 126
f 125 165 167
f 125 167 166
f 126 166 129
f 127 168 128
f 127 129 169
f 127 169 170
f 127 170 168
f 128 168 171
f 128 171 130
f 129 166 169
f 130 171 172
f 130 172 173
f 130 173 131
f 131 173 174
f 131 174 132
f 132 174 134
f 132 134 133
f 134 174 135
f 135 174 137
f 136 138 176
f 136 176 177
f 136 177 178
f 136 178 175
f 137 174 179
f 137 179 138
f 138 179 221
f 138 221 176
f 139 145 146
f 141 180 181
f 141 181 182
f 141 182 183
f 141 183 142
f 142 183 149
f 142 149 143
f 143 149 148
f 143 148 184
f 143 184 144
f 144 184 146
f 144 146 145
f 146 184 147
f 147 184 148
f 149 183 150
f 150 185 151
f 150 183 182
f 150 182 181
f 150 181 185
f 151 185 152
f 152 185 186
f 152 186 187
f 152 187 188
f 152 188 189
f 152 189 153
f 153 189 190
f 153 190 191
f 153 191 154
f 154 191 192
f 154 192 155
f 155 157 156
f 155 192 193
f 155 193 194
f 155 194 157
f 157 195 158
f 157 194 195
f 158 195 196
f 158 196 197
f 158 197 198
f 158 198 199
f 158 199 159
f 159 199 160
f 160 199 200
f 160 200 161
f 161 200 201
f 161 201 162
f 162 201 202
f 162 202 163
f 163 202 203
f 163 203 204
f 163 204 164
f 164 204 205
f 164 205 206
f 164 206 207
f 164 207 165
f 165 207 208
f 165 208 167
f 166 209 169
f 166 167 210
f 166 210 211
f 166 211 209
f 167 208 212
f 167 212 210
f 168 213 171
f 168 170 214
f 168 214 215
f 168 215 213
f 169 209 216
f 169 216 217
f 169 217 218
f 169 218 170
f 170 218 219
f 170 219 214
f 171 213 220
f 171 220 172
f 172 221 173
f 172 220 178
f 172 178 177
f 172 177 221
f 173 221 179
f 173 179 174
f 175 178 220
f 175 220 222
f 175 222 215
f 175 215 219
f 175 219 223
f 175 223 224
f 176 221 177
f 180 225 190
f 180 190 187
f 180 187 186
f 180 186 181
f 181 186 185
f 187 190 189
f 187 189 188
f 190 225 226
f 190 226 191
f 191 226 225
f 191 225 192
f 192 225 193
f 193 225 227
f 193 227 194
f 194 227 228
f 194 228 195
f 195 228 197
f 195 197 196
f 197 228 227
f 197 227 229
f 197 229 230
f 197 230 198
f 198 230 199
f 199 230 231
f 199 231 200
f 200 231 232
f 200 232 201
f 201 233 234
f 201 234 235
f 201 235 202
f 201 232 233
f 202 235 236
f 202 236 203
f 203 237 204
f 203 236 237
f 204 238 205
f 204 237 239
f 204 239 240
f 204 240 238
f 205 238 241
f 205 241 206
f 206 241 224
f 206 224 242
f 206 242 207
f 207 242 208
f 208 242 224
f 208 224 212
f 209 211 217
f 209 217 216
f 210 212 243
f 210 243 211
f 211 243 217
f 212 224 243
f 213 222 220
f 213 215 222
f 214 219 215
f 217 243 223
f 217 223 219
f 217 219 218
f 223 243 224
f 224 241 244
f 225 245 229
f 225 229 227
f 229 245 230
f 230 245 246
f 230 246 231
f 231 246 232
f 232 246 247
f 232 247 233
f 233 247 245
f 233 245 248
f 233 248 234
f 234 248 235
f 235 248 249
f 235 249 236
f 236 249 250
f 236 250 251
f 236 251 237
f 237 251 239
f 238 240 241
f 239 251 244
f 239 244 240
f 240 244 241
f 244 251 252
f 245 252 248
f 245 247 246
f 248 252 249
f 249 252 250
f 250 252 251
