v 0.471506 0.653 0.161394
v 0.432754 0.653 0.161394
v 0.485267 0.649332 0.161394
v 0.484409 0.651638 0.148543
v 0.484409 0.652715 0.135629
v 0.484409 0.653 0.122715
v 0.432754 0.653 0.122715
v 0.419837 0.652802 0.161394
v 0.485444 0.649266 0.161394
v 0.49274 0.648081 0.148543
v 0.494346 0.649157 0.135629
v 0.497327 0.652056 0.096871
v 0.497327 0.652846 0.0839569
v 0.497327 0.653 0.0710586
v 0.458589 0.653 -8.74009e-05
v 0.445671 0.652539 -8.74009e-05
v 0.409696 0.649266 0.161394
v 0.485702 0.649113 0.161394
v 0.491542 0.646807 0.15749
v 0.504772 0.64718 0.106987
v 0.50612 0.648498 0.096871
v 0.507685 0.64931 0.0839569
v 0.509101 0.649442 0.0710586
v 0.509822 0.649442 0.0581446
v 0.50367 0.651199 -8.74009e-05
v 0.497327 0.653 -8.74009e-05
v 0.436484 0.648981 -8.74009e-05
v 0.409642 0.649179 0.161394
v 0.490916 0.645269 0.161394
v 0.503506 0.645006 0.115602
v 0.515688 0.640174 0.071849
v 0.516274 0.644523 0.0581446
v 0.509822 0.649442 -8.74009e-05
v 0.516287 0.644566 -8.74009e-05
v 0.411302 0.6483 0.148543
v 0.435681 0.644149 -8.74009e-05
v 0.406933 0.639427 0.161394
v 0.412568 0.647004 0.139075
v 0.492481 0.639251 0.161394
v 0.505888 0.640196 0.110686
v 0.50974 0.639427 0.096871
v 0.513034 0.639427 0.0839569
v 0.516546 0.632136 0.07667
v 0.517363 0.636352 0.0680554
v 0.517689 0.638066 0.0581446
v 0.516287 0.644545 0.0193865
v 0.517689 0.638087 0.0323006
v 0.517689 0.638109 -8.74009e-05
v 0.434918 0.639427 -8.74009e-05
v 0.449904 0.428651 -8.74009e-05
v 0.422464 0.428651 0.161394
v 0.507944 0.613599 0.122715
v 0.517403 0.623526 0.0800843
v 0.503887 0.581753 0.161394
v 0.529422 0.567368 0.0762591
v 0.54317 0.494012 0.0798156
v 0.530089 0.570816 0.0676444
v 0.54283 0.505301 0.0669963
v 0.542312 0.502622 0.075611
v 0.519908 0.626513 0.0452147
v 0.518792 0.632377 -8.74009e-05
v 0.537222 0.536115 0.0581446
v 0.539713 0.428651 -8.74009e-05
v 0.515498 0.428651 0.161394
v 0.515389 0.523772 0.161394
v 0.517417 0.536115 0.144702
v 0.531056 0.496977 0.122778
v 0.520602 0.497438 0.161394
v 0.529926 0.492431 0.130302
v 0.543524 0.484437 0.0811275
v 0.545225 0.484437 0.0710586
v 0.543755 0.497922 0.0712009
v 0.54464 0.497351 0.0581446
v 0.542979 0.506048 0.0581446
v 0.541741 0.512527 0.0581446
v 0.522385 0.613599 0.0323006
v 0.544654 0.497351 0.0452147
v 0.537235 0.536115 0.0193865
v 0.53846 0.529724 -8.74009e-05
v 0.539713 0.428651 0.023512
v 0.540243 0.432758 -8.74009e-05
v 0.515607 0.429376 0.161394
v 0.516383 0.428651 0.158122
v 0.51675 0.516897 0.161394
v 0.520616 0.497351 0.161394
v 0.521991 0.484437 0.161394
v 0.535833 0.484437 0.109801
v 0.529994 0.475234 0.130524
v 0.543129 0.471523 0.0797049
v 0.544463 0.471523 0.0710586
v 0.545225 0.471523 0.0581446
v 0.54596 0.484437 0.0581446
v 0.545974 0.484437 0.0452147
v 0.545987 0.484437 -8.74009e-05
v 0.544654 0.497351 -8.74009e-05
v 0.54381 0.501787 -8.74009e-05
v 0.54072 0.51793 -8.74009e-05
v 0.539699 0.428651 0.0581446
v 0.540243 0.432758 0.0193865
v 0.541809 0.44497 0.0581446
v 0.545239 0.471523 -8.74009e-05
v 0.516968 0.428651 0.155941
v 0.531872 0.428651 0.100364
v 0.531342 0.445299 0.110639
v 0.542653 0.464275 0.077903
v 0.519513 0.458674 0.161394
v 0.521228 0.471588 0.161394
v 0.542081 0.455665 0.0737142
v 0.542598 0.451668 0.0650995
v 0.543565 0.458587 0.0452147
v 0.545239 0.471523 0.00647239
v 0.538855 0.428651 0.0710586
v 0.536269 0.428651 0.0839569
f 1 2 8
f 1 8 17
f 1 17 28
f 1 28 37
f 1 37 51
f 1 51 64
f 1 64 82
f 1 82 106
f 1 106 107
f 1 107 86
f 1 86 85
f 1 85 68
f 1 68 84
f 1 84 65
f 1 65 54
f 1 54 39
f 1 39 29
f 1 29 18
f 1 18 9
f 1 9 3
f 1 3 4
f 1 4 5
f 1 5 6
f 1 6 14
f 1 14 26
f 1 26 15
f 1 15 7
f 1 7 2
f 2 7 8
f 3 9 4
f 4 9 10
f 4 10 11
f 4 11 12
f 4 12 5
f 5 12 13
f 5 13 6
f 6 13 14
f 7 15 16
f 7 16 8
f 8 16 17
f 9 18 19
f 9 19 10
f 10 20 21
f 10 21 11
f 10 19 20
f 11 21 22
f 11 22 12
f 12 22 13
f 13 22 23
f 13 23 24
f 13 24 14
f 14 24 25
f 14 25 26
f 15 26 25
f 15 25 33
f 15 33 34
f 15 34 48
f 15 48 61
f 15 61 79
f 15 79 97
f 15 97 96
f 15 96 95
f 15 95 94
f 15 94 101
f 15 101 81
f 15 81 63
f 15 63 50
f 15 50 49
f 15 49 36
f 15 36 27
f 15 27 16
f 16 27 17
f 17 27 28
f 18 29 19
f 19 29 30
f 19 30 20
f 20 30 31
f 20 31 32
f 20 32 21
f 21 32 22
f 22 32 23
f 23 32 24
f 24 33 25
f 24 32 34
f 24 34 33
f 27 35 28
f 27 36 37
f 27 37 38
f 27 38 35
f 28 35 37
f 29 39 30
f 30 39 40
f 30 40 41
f 30 41 42
f 30 42 31
f 31 42 43
f 31 43 44
f 31 44 32
f 32 44 45
f 32 45 46
f 32 46 34
f 34 46 45
f 34 45 47
f 34 47 48
f 35 38 37
f 36 49 37
f 37 49 50
f 37 50 51
f 39 52 53
f 39 53 40
f 39 54 52
f 40 53 41
f 41 43 42
f 41 53 43
f 43 55 44
f 43 53 56
f 43 56 55
f 44 57 58
f 44 58 45
f 44 55 59
f 44 59 57
f 45 60 61
f 45 61 47
f 45 58 62
f 45 62 60
f 47 61 48
f 50 63 80
f 50 80 98
f 50 98 112
f 50 112 113
f 50 113 103
f 50 103 102
f 50 102 83
f 50 83 64
f 50 64 51
f 52 54 65
f 52 65 66
f 52 66 56
f 52 56 53
f 55 56 59
f 56 66 65
f 56 65 67
f 56 67 68
f 56 68 69
f 56 69 70
f 56 70 71
f 56 71 72
f 56 72 59
f 57 59 72
f 57 72 58
f 58 72 73
f 58 73 74
f 58 74 75
f 58 75 62
f 60 76 61
f 60 62 77
f 60 77 78
f 60 78 76
f 61 76 78
f 61 78 79
f 62 75 77
f 63 81 99
f 63 99 80
f 64 83 82
f 65 84 67
f 67 84 68
f 68 85 69
f 69 86 87
f 69 87 70
f 69 85 86
f 70 87 88
f 70 88 89
f 70 89 71
f 71 89 90
f 71 90 91
f 71 91 92
f 71 92 73
f 71 73 72
f 73 77 74
f 73 92 93
f 73 93 77
f 74 77 75
f 77 93 94
f 77 94 95
f 77 95 96
f 77 96 97
f 77 97 78
f 78 97 79
f 80 99 100
f 80 100 98
f 81 101 111
f 81 111 99
f 82 83 102
f 82 102 103
f 82 103 104
f 82 104 105
f 82 105 106
f 86 107 88
f 86 88 87
f 88 107 106
f 88 106 105
f 88 105 89
f 89 105 90
f 90 105 108
f 90 108 109
f 90 109 91
f 91 110 111
f 91 111 94
f 91 94 93
f 91 93 92
f 91 109 100
f 91 100 110
f 94 111 101
f 98 100 109
f 98 109 112
f 99 111 100
f 100 111 110
f 103 113 105
f 103 105 104
f 105 113 112
f 105 112 108
f 108 112 109
