v 0.186438 0.0318237 -0.231647
v 0.186438 0.149089 -0.231647
v 0.195324 0.0318237 -0.231647
v 0.186438 0.0318237 -0.000132713
v 0.186438 0.155637 -0.231624
v 0.19001 0.158203 -0.231647
v 0.200284 0.0335889 -0.231647
v 0.200284 0.0318237 -0.226865
v 0.186438 0.0939971 -0.000132713
v 0.302047 0.0318237 -0.000132713
v 0.377772 0.241518 -0.000132713
v 0.301368 0.241518 -0.231647
v 0.226116 0.0431951 -0.231647
v 0.226116 0.0318237 -0.201028
v 0.302077 0.0318237 -0.00854112
v 0.303612 0.0326447 -0.000132713
v 0.488009 0.241518 -0.000132713
v 0.429761 0.241518 -0.231647
v 0.233437 0.0459251 -0.231647
v 0.251948 0.0459251 -0.213108
v 0.243357 0.0395415 -0.204541
v 0.239047 0.0363394 -0.200212
v 0.226943 0.0318237 -0.200189
v 0.30807 0.0349847 -0.000132713
v 0.302077 0.0318237 -0.0194199
v 0.329444 0.0462124 -0.000132713
v 0.486798 0.238952 -0.000132713
v 0.488009 0.241518 -0.0496312
v 0.430883 0.241518 -0.229721
v 0.428049 0.238357 -0.231647
v 0.244479 0.0501534 -0.231647
v 0.247461 0.037961 -0.195928
v 0.251003 0.0501534 -0.225097
v 0.263904 0.050174 -0.212133
v 0.239135 0.0318237 -0.187429
v 0.303612 0.0326447 -0.0323158
v 0.329444 0.0462124 -0.0323158
v 0.302047 0.0318237 -0.0323158
v 0.337238 0.0506461 -0.000132713
v 0.474458 0.21313 -0.000132713
v 0.480835 0.226431 -0.0452344
v 0.486798 0.238952 -0.0452344
v 0.48795 0.241518 -0.058153
v 0.447061 0.241518 -0.201685
v 0.415561 0.215737 -0.231647
v 0.436817 0.223865 -0.202569
v 0.246959 0.0511387 -0.231647
v 0.258974 0.0513645 -0.220156
v 0.271698 0.0514055 -0.20717
v 0.256081 0.0397057 -0.190126
v 0.247933 0.0318237 -0.174579
v 0.329444 0.0467872 -0.0452344
v 0.336943 0.0509129 -0.0452344
v 0.337238 0.0506461 -0.0323158
v 0.300483 0.0318237 -0.0452344
v 0.343703 0.0563934 -0.000132713
v 0.465099 0.193569 -0.000132713
v 0.468288 0.200219 -0.0323158
v 0.468288 0.200219 -0.0452344
v 0.487477 0.241518 -0.0617112
v 0.46507 0.193631 -0.0526002
v 0.480746 0.226678 -0.058153
v 0.464745 0.194246 -0.0612126
v 0.449393 0.241518 -0.197628
v 0.439297 0.21937 -0.193957
v 0.412461 0.182444 -0.20513
v 0.400062 0.187678 -0.231647
v 0.25366 0.0555313 -0.231647
v 0.254694 0.0542587 -0.228769
v 0.267595 0.0542587 -0.215782
v 0.27778 0.0453298 -0.174352
v 0.263816 0.0421483 -0.186409
v 0.273676 0.0628591 -0.221924
v 0.282297 0.0660406 -0.216961
v 0.296143 0.0783973 -0.217867
v 0.285249 0.0636801 -0.208348
v 0.28764 0.0615249 -0.200189
v 0.310077 0.0516724 -0.142101
v 0.251948 0.0335684 -0.174352
v 0.251446 0.0318237 -0.168573
v 0.336352 0.0513234 -0.0537334
v 0.343349 0.0567834 -0.0452344
v 0.343703 0.0563934 -0.0323158
v 0.29694 0.0318237 -0.0588555
v 0.310875 0.038351 -0.0547533
v 0.350435 0.0628591 -0.000132713
v 0.463535 0.190305 -0.000132713
v 0.462 0.187103 -0.0452344
v 0.486149 0.241518 -0.0710715
v 0.474163 0.21313 -0.058153
v 0.477617 0.220232 -0.058153
v 0.462236 0.188499 -0.057405
v 0.455268 0.175321 -0.058153
v 0.454117 0.177189 -0.0710715
v 0.459343 0.187309 -0.0710715
v 0.463771 0.196217 -0.0710715
v 0.484909 0.238952 -0.0710715
v 0.453349 0.241518 -0.189492
v 0.439297 0.206418 -0.181061
v 0.426041 0.181233 -0.180267
v 0.428374 0.189833 -0.184551
v 0.424299 0.186241 -0.188223
v 0.401361 0.179242 -0.221199
v 0.398881 0.183634 -0.229811
v 0.39829 0.184497 -0.231647
v 0.257911 0.0585486 -0.231647
v 0.303612 0.0469514 -0.135619
v 0.290681 0.0444267 -0.148538
v 0.277131 0.0415941 -0.161275
v 0.261927 0.0614017 -0.231647
v 0.268982 0.0665127 -0.231647
v 0.28336 0.0771042 -0.231647
v 0.298859 0.0889682 -0.231647
v 0.312882 0.100832 -0.231647
v 0.327053 0.113415 -0.231647
v 0.329503 0.115591 -0.231647
v 0.33281 0.118567 -0.231647
v 0.309753 0.077802 -0.193186
v 0.328972 0.07148 -0.147722
v 0.32351 0.0641112 -0.143008
v 0.31241 0.0624691 -0.159076
v 0.325134 0.0624896 -0.135619
v 0.31793 0.0560239 -0.135619
v 0.320322 0.053766 -0.1227
v 0.311465 0.0507897 -0.135619
v 0.255993 0.0318237 -0.160708
v 0.264702 0.0318237 -0.145637
v 0.315716 0.0413478 -0.0586969
v 0.3303 0.0487782 -0.058085
v 0.316513 0.0469514 -0.0969087
v 0.323215 0.0514876 -0.104365
v 0.335171 0.0521855 -0.0623458
v 0.349401 0.0639675 -0.0540734
v 0.35008 0.0632491 -0.0452344
v 0.350435 0.0628591 -0.0323158
v 0.294608 0.0318237 -0.0676266
v 0.304704 0.0357441 -0.0586969
v 0.309723 0.0389257 -0.0633657
v 0.3569 0.0695711 -0.0323158
v 0.353712 0.0662664 -0.000132713
v 0.462 0.187124 -0.000132713
v 0.462 0.187103 -0.0194199
v 0.455534 0.174829 -0.0452344
v 0.485499 0.241518 -0.0735419
v 0.451755 0.168343 -0.0452344
v 0.451401 0.168835 -0.058153
v 0.452848 0.179365 -0.0804318
v 0.450191 0.170744 -0.0710715
v 0.425185 0.169451 -0.161456
v 0.440743 0.17799 -0.1227
v 0.439651 0.179899 -0.130905
v 0.451696 0.181602 -0.0890442
v 0.455357 0.186467 -0.0844434
v 0.481041 0.238213 -0.0842621
v 0.478621 0.231091 -0.0801145
v 0.451549 0.194862 -0.114224
v 0.482665 0.241518 -0.0842394
v 0.454767 0.241518 -0.186115
v 0.438323 0.195478 -0.16472
v 0.435754 0.188232 -0.160822
v 0.427576 0.178421 -0.171655
v 0.452169 0.232322 -0.181038
v 0.440212 0.20455 -0.174352
v 0.423443 0.174233 -0.175327
v 0.414469 0.166865 -0.182851
v 0.417421 0.17411 -0.187203
v 0.414941 0.178236 -0.196518
v 0.398438 0.170621 -0.216145
v 0.390762 0.172571 -0.231647
v 0.392504 0.175157 -0.231647
v 0.303612 0.0441188 -0.1227
v 0.28826 0.0367704 -0.1227
v 0.277839 0.0318237 -0.1227
v 0.285958 0.0379815 -0.132151
v 0.290445 0.0410604 -0.136118
v 0.378274 0.159557 -0.231647
v 0.406557 0.161713 -0.186749
v 0.336854 0.0766115 -0.143823
v 0.396165 0.145928 -0.174352
v 0.327348 0.0602112 -0.1227
v 0.331599 0.0686269 -0.135619
v 0.321857 0.0524934 -0.112978
v 0.313856 0.0494556 -0.1227
v 0.270458 0.0318237 -0.135619
v 0.316513 0.0451861 -0.0839901
v 0.302608 0.0416146 -0.109691
v 0.340663 0.0597596 -0.0710715
v 0.34825 0.0651169 -0.0626858
v 0.417982 0.13743 -0.0710715
v 0.375174 0.0898303 -0.0539148
v 0.337238 0.0632285 -0.0969087
v 0.388076 0.102782 -0.0538468
v 0.400859 0.115796 -0.0535975
v 0.3884 0.102433 -0.0452344
v 0.401095 0.11557 -0.0452344
v 0.286755 0.0318237 -0.0969087
v 0.40756 0.122282 -0.0452344
v 0.445319 0.161528 -0.0452344
v 0.429673 0.145251 -0.000132713
v 0.455534 0.174829 -0.000132713
v 0.444965 0.162 -0.058153
v 0.451755 0.168343 -0.0323158
v 0.443725 0.163314 -0.0710715
v 0.439326 0.167727 -0.10398
v 0.438175 0.169328 -0.112592
v 0.429082 0.175937 -0.161456
v 0.4261 0.168096 -0.154476
v 0.41872 0.162513 -0.161456
v 0.416447 0.164853 -0.174352
v 0.450663 0.183737 -0.0969087
v 0.4385 0.182218 -0.139517
v 0.437289 0.18464 -0.148538
v 0.463003 0.236571 -0.148538
v 0.476318 0.241518 -0.107969
v 0.453084 0.230495 -0.174352
v 0.457866 0.241518 -0.17646
v 0.458516 0.241518 -0.174352
v 0.409627 0.158408 -0.174352
v 0.374495 0.11635 -0.154725
v 0.386658 0.167131 -0.231647
v 0.400888 0.16746 -0.207532
v 0.412018 0.169636 -0.191464
v 0.388105 0.168712 -0.231647
v 0.296497 0.0390899 -0.113884
v 0.283183 0.0318237 -0.109669
v 0.387426 0.129281 -0.154702
v 0.412254 0.156027 -0.161456
v 0.413229 0.155103 -0.154544
v 0.404608 0.137861 -0.1227
v 0.437319 0.156868 -0.0710715
v 0.426366 0.141946 -0.0523963
v 0.291596 0.0360315 -0.109691
v 0.44529 0.161528 -0.000132713
v 0.44216 0.158264 -0.000132713
v 0.451755 0.168384 -0.000132713
v 0.461645 0.241518 -0.162703
v 0.387515 0.167953 -0.231647
f 1 2 6
f 1 6 12
f 1 12 18
f 1 18 30
f 1 30 45
f 1 45 67
f 1 67 105
f 1 105 170
f 1 170 169
f 1 169 223
f 1 223 237
f 1 237 220
f 1 220 176
f 1 176 117
f 1 117 116
f 1 116 115
f 1 115 114
f 1 114 113
f 1 113 112
f 1 112 111
f 1 111 110
f 1 110 106
f 1 106 68
f 1 68 47
f 1 47 31
f 1 31 19
f 1 19 13
f 1 13 7
f 1 7 3
f 1 3 8
f 1 8 14
f 1 14 23
f 1 23 35
f 1 35 51
f 1 51 80
f 1 80 126
f 1 126 127
f 1 127 184
f 1 184 173
f 1 173 225
f 1 225 196
f 1 196 136
f 1 136 84
f 1 84 55
f 1 55 38
f 1 38 25
f 1 25 15
f 1 15 10
f 1 10 4
f 1 4 9
f 1 9 5
f 1 5 2
f 2 5 6
f 3 7 8
f 4 10 16
f 4 16 24
f 4 24 26
f 4 26 39
f 4 39 56
f 4 56 86
f 4 86 140
f 4 140 199
f 4 199 234
f 4 234 233
f 4 233 235
f 4 235 200
f 4 200 141
f 4 141 87
f 4 87 57
f 4 57 40
f 4 40 27
f 4 27 17
f 4 17 11
f 4 11 9
f 5 9 11
f 5 11 12
f 5 12 6
f 7 13 14
f 7 14 8
f 10 15 16
f 11 17 28
f 11 28 43
f 11 43 60
f 11 60 89
f 11 89 144
f 11 144 157
f 11 157 214
f 11 214 236
f 11 236 217
f 11 217 216
f 11 216 158
f 11 158 98
f 11 98 64
f 11 64 44
f 11 44 29
f 11 29 18
f 11 18 12
f 13 19 20
f 13 20 21
f 13 21 14
f 14 22 23
f 14 21 22
f 15 24 16
f 15 25 37
f 15 37 26
f 15 26 24
f 17 27 42
f 17 42 28
f 18 29 30
f 19 31 20
f 20 32 21
f 20 31 33
f 20 33 34
f 20 34 32
f 21 32 22
f 22 35 23
f 22 32 35
f 25 36 37
f 25 38 36
f 26 37 54
f 26 54 39
f 27 40 41
f 27 41 42
f 28 42 41
f 28 41 43
f 29 44 30
f 30 44 46
f 30 46 45
f 31 47 48
f 31 48 33
f 32 34 49
f 32 49 35
f 33 48 34
f 34 48 49
f 35 49 50
f 35 50 51
f 36 52 37
f 36 38 52
f 37 52 53
f 37 53 54
f 38 55 52
f 39 54 83
f 39 83 56
f 40 57 41
f 41 57 58
f 41 58 59
f 41 59 43
f 43 59 61
f 43 61 62
f 43 62 63
f 43 63 60
f 44 64 65
f 44 65 46
f 45 46 66
f 45 66 67
f 46 65 66
f 47 68 69
f 47 69 48
f 48 69 70
f 48 70 49
f 49 71 72
f 49 72 50
f 49 70 73
f 49 73 74
f 49 74 75
f 49 75 76
f 49 76 77
f 49 77 78
f 49 78 71
f 50 72 51
f 51 72 79
f 51 79 80
f 52 81 53
f 52 55 81
f 53 81 82
f 53 82 83
f 53 83 54
f 55 84 85
f 55 85 81
f 56 83 135
f 56 135 86
f 57 87 142
f 57 142 88
f 57 88 59
f 57 59 58
f 59 88 61
f 60 63 89
f 61 90 91
f 61 91 62
f 61 88 92
f 61 92 90
f 62 91 63
f 63 92 93
f 63 93 94
f 63 94 95
f 63 95 96
f 63 96 97
f 63 97 89
f 63 91 90
f 63 90 92
f 64 98 99
f 64 99 100
f 64 100 101
f 64 101 65
f 65 101 102
f 65 102 66
f 66 103 104
f 66 104 67
f 66 102 100
f 66 100 103
f 67 104 105
f 68 106 73
f 68 73 70
f 68 70 69
f 71 78 107
f 71 107 108
f 71 108 109
f 71 109 79
f 71 79 72
f 73 106 110
f 73 110 111
f 73 111 112
f 73 112 113
f 73 113 74
f 74 113 114
f 74 114 75
f 75 77 76
f 75 114 115
f 75 115 116
f 75 116 77
f 77 116 117
f 77 117 118
f 77 118 119
f 77 119 120
f 77 120 121
f 77 121 78
f 78 121 120
f 78 120 122
f 78 122 123
f 78 123 124
f 78 124 125
f 78 125 107
f 79 126 80
f 79 109 127
f 79 127 126
f 81 85 128
f 81 128 129
f 81 129 130
f 81 130 131
f 81 131 132
f 81 132 133
f 81 133 134
f 81 134 82
f 82 134 135
f 82 135 83
f 84 136 137
f 84 137 85
f 85 137 138
f 85 138 128
f 86 135 139
f 86 139 140
f 87 141 142
f 88 142 200
f 88 200 143
f 88 143 93
f 88 93 92
f 89 97 144
f 93 143 145
f 93 145 146
f 93 146 94
f 94 147 95
f 94 146 148
f 94 148 149
f 94 149 150
f 94 150 151
f 94 151 147
f 95 147 152
f 95 152 153
f 95 153 96
f 96 154 155
f 96 155 97
f 96 153 156
f 96 156 154
f 97 155 154
f 97 154 157
f 97 157 144
f 98 158 99
f 99 159 160
f 99 160 161
f 99 161 100
f 99 158 162
f 99 162 163
f 99 163 159
f 100 161 164
f 100 164 165
f 100 165 166
f 100 166 167
f 100 167 103
f 100 102 101
f 103 167 168
f 103 168 169
f 103 169 170
f 103 170 104
f 104 170 105
f 107 125 171
f 107 171 172
f 107 172 173
f 107 173 174
f 107 174 175
f 107 175 108
f 108 175 127
f 108 127 109
f 117 176 177
f 117 177 119
f 117 119 118
f 119 177 120
f 120 178 122
f 120 177 179
f 120 179 178
f 122 180 124
f 122 124 123
f 122 178 181
f 122 181 180
f 124 180 182
f 124 182 125
f 125 182 183
f 125 183 171
f 127 175 184
f 128 138 185
f 128 185 129
f 129 185 130
f 130 185 186
f 130 186 131
f 131 186 171
f 131 171 183
f 131 183 182
f 131 182 180
f 131 180 132
f 132 187 133
f 132 180 187
f 133 188 189
f 133 189 190
f 133 190 134
f 133 187 180
f 133 180 191
f 133 191 188
f 134 190 192
f 134 192 193
f 134 193 194
f 134 194 135
f 135 194 195
f 135 195 197
f 135 197 139
f 136 196 186
f 136 186 138
f 136 138 137
f 138 186 185
f 139 197 198
f 139 198 199
f 139 199 140
f 141 200 142
f 143 200 202
f 143 202 145
f 145 198 201
f 145 201 146
f 145 202 198
f 146 201 203
f 146 203 148
f 147 151 152
f 148 203 204
f 148 204 205
f 148 205 149
f 149 161 206
f 149 206 150
f 149 205 207
f 149 207 208
f 149 208 209
f 149 209 164
f 149 164 161
f 150 206 151
f 151 210 152
f 151 206 211
f 151 211 210
f 152 210 153
f 153 210 212
f 153 212 156
f 154 213 214
f 154 214 157
f 154 156 215
f 154 215 213
f 156 212 159
f 156 159 215
f 158 216 162
f 159 212 160
f 159 163 215
f 160 212 161
f 161 212 206
f 162 216 217
f 162 217 215
f 162 215 163
f 164 209 165
f 165 218 219
f 165 219 179
f 165 179 177
f 165 177 220
f 165 220 221
f 165 221 222
f 165 222 166
f 165 209 218
f 166 222 167
f 167 222 168
f 168 223 169
f 168 222 223
f 171 186 224
f 171 224 225
f 171 225 172
f 172 225 173
f 173 184 174
f 174 184 175
f 176 220 177
f 178 219 181
f 178 179 219
f 180 181 219
f 180 219 226
f 180 226 227
f 180 227 228
f 180 228 229
f 180 229 189
f 180 189 191
f 186 196 224
f 188 191 189
f 189 229 204
f 189 204 230
f 189 230 190
f 190 230 192
f 192 230 203
f 192 203 193
f 193 231 194
f 193 203 201
f 193 201 231
f 194 231 195
f 195 231 197
f 196 232 224
f 196 225 232
f 197 231 198
f 198 233 234
f 198 234 199
f 198 231 201
f 198 202 233
f 200 235 202
f 202 235 233
f 203 230 204
f 204 229 228
f 204 228 208
f 204 208 207
f 204 207 205
f 206 212 211
f 208 228 227
f 208 227 209
f 209 227 219
f 209 219 218
f 210 211 212
f 213 215 236
f 213 236 214
f 215 217 236
f 219 227 226
f 220 237 221
f 221 237 222
f 222 237 223
f 224 232 225
