v -0.295235 0.484431 0.459976
v -0.295235 0.482765 0.45989
v -0.295235 0.49193 0.459111
v -0.302992 0.484431 0.455504
v -0.309445 0.484431 0.451782
v -0.316494 0.484431 0.447714
v -0.326991 0.482765 0.44154
v -0.295235 0.482765 0.350856
v -0.295235 0.497245 0.458476
v -0.316494 0.497345 0.446185
v -0.325776 0.497345 0.440818
v -0.327102 0.484431 0.441568
v -0.333555 0.484431 0.437587
v -0.333444 0.482765 0.437529
v -0.295235 0.639436 0.319839
v -0.428601 0.482765 0.165275
v -0.405441 0.639436 0.165275
v -0.295235 0.504911 0.456803
v -0.324008 0.506544 0.439808
v -0.332229 0.497345 0.436692
v -0.316958 0.573948 0.42896
v -0.323168 0.569049 0.426421
v -0.339941 0.497345 0.430229
v -0.340891 0.484431 0.431124
v -0.334416 0.482765 0.436692
v -0.295235 0.647834 0.32056
v -0.52084 0.482765 0.165275
v -0.407187 0.645751 0.165275
v -0.295235 0.51026 0.45562
v -0.311898 0.536105 0.44027
v -0.297755 0.634604 0.426652
v -0.31318 0.587762 0.428094
v -0.323212 0.620956 0.413581
v -0.335654 0.52889 0.426075
v -0.336847 0.520274 0.4272
v -0.338195 0.51026 0.428527
v -0.308229 0.613591 0.425238
v -0.305754 0.626505 0.423795
v -0.313798 0.639436 0.415918
v -0.346394 0.497345 0.423882
v -0.347344 0.484431 0.424834
v -0.341643 0.482765 0.430258
v -0.340803 0.482765 0.431066
v -0.295235 0.650651 0.32936
v -0.408646 0.649368 0.165275
v -0.520973 0.484748 0.165275
v -0.517017 0.482765 0.180134
v -0.295235 0.598027 0.436202
v -0.295235 0.63297 0.428469
v -0.295235 0.636387 0.42769
v -0.302661 0.639119 0.422699
v -0.321842 0.629554 0.412427
v -0.327146 0.639436 0.404637
v -0.329068 0.625255 0.40657
v -0.335322 0.579214 0.412802
v -0.339411 0.549019 0.416899
v -0.342725 0.52459 0.420189
v -0.311854 0.647301 0.414591
v -0.320251 0.639436 0.4111
v -0.296097 0.643219 0.425526
v -0.352869 0.497345 0.417419
v -0.361023 0.482765 0.411013
v -0.347278 0.482765 0.424747
v -0.385155 0.497345 0.385133
v -0.373177 0.484431 0.398982
v -0.373111 0.482765 0.398924
v -0.303589 0.652634 0.329389
v -0.295235 0.65275 0.342315
v -0.419828 0.65285 0.165275
v -0.511603 0.484431 0.200245
v -0.51536 0.485647 0.186165
v -0.516708 0.49078 0.180856
v -0.519603 0.497345 0.165275
v -0.512045 0.482765 0.198283
v -0.295235 0.642469 0.426219
v -0.325179 0.647751 0.402646
v -0.333621 0.639436 0.398174
v -0.347874 0.629554 0.386604
v -0.365907 0.639436 0.365888
v -0.399541 0.629521 0.334929
v -0.36699 0.536105 0.392807
v -0.357576 0.51026 0.409225
v -0.295235 0.643685 0.425786
v -0.303589 0.648718 0.416957
v -0.316295 0.649267 0.406945
v -0.418347 0.484431 0.35377
v -0.405463 0.484431 0.366667
v -0.402237 0.561933 0.350538
v -0.422126 0.51026 0.344623
v -0.423872 0.497345 0.346355
v -0.405397 0.482765 0.366609
v -0.303589 0.653 0.342315
v -0.295235 0.653 0.355241
v -0.432733 0.653 0.165275
v -0.419828 0.653 0.174393
v -0.50683 0.484431 0.213026
v -0.506145 0.497345 0.211584
v -0.510233 0.497345 0.200245
v -0.511493 0.482765 0.200245
v -0.506786 0.482765 0.212911
v -0.511139 0.51026 0.187319
v -0.51757 0.50761 0.165275
v -0.329444 0.649534 0.394019
v -0.338085 0.647751 0.389749
v -0.351012 0.647751 0.376823
v -0.402679 0.647734 0.325148
v -0.398193 0.639436 0.333573
v -0.404646 0.639436 0.32711
v -0.406568 0.625205 0.329043
v -0.295235 0.649517 0.419467
v -0.303589 0.652267 0.406888
v -0.316494 0.652617 0.39399
v -0.4248 0.484431 0.347307
v -0.426059 0.52884 0.335621
v -0.427209 0.520224 0.336804
v -0.430236 0.497345 0.339892
v -0.425551 0.482765 0.346412
v -0.295235 0.653 0.39399
v -0.471494 0.653 0.165275
v -0.503714 0.484431 0.219489
v -0.502941 0.497345 0.218047
v -0.50409 0.518191 0.207314
v -0.503184 0.526807 0.204601
v -0.50767 0.51026 0.200245
v -0.488598 0.625439 0.186193
v -0.508576 0.523191 0.187319
v -0.504068 0.482765 0.218537
v -0.516155 0.513926 0.165881
v -0.494057 0.626188 0.165275
v -0.368205 0.649534 0.35527
v -0.376846 0.647751 0.350971
v -0.394038 0.649534 0.329418
v -0.406944 0.649267 0.316261
v -0.41459 0.647301 0.311847
v -0.411076 0.639436 0.320214
v -0.412425 0.629504 0.32183
v -0.413574 0.620889 0.323157
v -0.295235 0.652734 0.406888
v -0.303589 0.653 0.39399
v -0.394016 0.653 0.303595
v -0.355255 0.652617 0.355241
v -0.431142 0.484431 0.340844
v -0.436689 0.497345 0.332217
v -0.426435 0.569115 0.323157
v -0.437617 0.484431 0.333544
v -0.431076 0.482765 0.340757
v -0.484532 0.649334 0.165275
v -0.471494 0.653 0.174393
v -0.493526 0.484431 0.237147
v -0.465439 0.492746 0.284927
v -0.498388 0.497345 0.226068
v -0.503648 0.482765 0.219374
v -0.499802 0.482765 0.226068
v -0.462588 0.482765 0.290669
v -0.490919 0.58148 0.206765
v -0.491493 0.597377 0.195657
v -0.490632 0.605992 0.192945
v -0.49125 0.634837 0.169343
v -0.50473 0.56075 0.173873
v -0.48546 0.639436 0.187319
v -0.491869 0.637203 0.165275
v -0.394016 0.6526 0.316463
v -0.406922 0.652284 0.303595
v -0.416955 0.648734 0.303595
v -0.415938 0.639436 0.313751
v -0.428181 0.647818 0.287495
v -0.452865 0.646818 0.246755
v -0.439274 0.646001 0.271424
v -0.425529 0.643252 0.296122
v -0.406922 0.653 0.290669
v -0.440843 0.497345 0.325783
v -0.423827 0.626505 0.305788
v -0.427032 0.59756 0.311327
v -0.441595 0.484431 0.327081
v -0.44155 0.482765 0.326995
v -0.437551 0.482765 0.333457
v -0.48261 0.649434 0.174393
v -0.471494 0.65255 0.187319
v -0.489195 0.644602 0.165275
v -0.481041 0.649001 0.187319
v -0.445661 0.653 0.226068
v -0.470102 0.484431 0.277743
v -0.46166 0.497179 0.289803
v -0.478853 0.497345 0.259941
v -0.48904 0.497345 0.242283
v -0.455517 0.484431 0.303018
v -0.451782 0.484431 0.309481
v -0.451031 0.497345 0.308154
v -0.488488 0.536105 0.228405
v -0.478499 0.635403 0.207631
v -0.480599 0.639603 0.201024
v -0.483671 0.626505 0.200245
v -0.479472 0.647668 0.197244
v -0.490167 0.643452 0.166141
v -0.490609 0.642619 0.165275
v -0.419828 0.65265 0.277743
v -0.458566 0.652384 0.213171
v -0.445661 0.651917 0.238994
v -0.432733 0.651234 0.264846
v -0.445904 0.649234 0.2514
v -0.468909 0.648834 0.213171
v -0.455009 0.648368 0.238994
v -0.422722 0.639136 0.302672
v -0.466434 0.647451 0.222057
v -0.477395 0.644018 0.205842
v -0.467848 0.639436 0.22451
v -0.453948 0.639436 0.248631
v -0.4446 0.639436 0.264846
v -0.429352 0.639136 0.291361
v -0.432733 0.652917 0.25192
v -0.438501 0.552285 0.308817
v -0.426656 0.634637 0.297767
v -0.472444 0.649801 0.201024
v -0.459141 0.649667 0.226241
f 1 2 8
f 1 8 15
f 1 15 26
f 1 26 44
f 1 44 68
f 1 68 93
f 1 93 118
f 1 118 138
f 1 138 110
f 1 110 83
f 1 83 75
f 1 75 50
f 1 50 49
f 1 49 48
f 1 48 29
f 1 29 18
f 1 18 9
f 1 9 3
f 1 3 4
f 1 4 2
f 2 4 5
f 2 5 6
f 2 6 7
f 2 7 14
f 2 14 25
f 2 25 43
f 2 43 42
f 2 42 63
f 2 63 62
f 2 62 66
f 2 66 91
f 2 91 117
f 2 117 146
f 2 146 176
f 2 176 175
f 2 175 154
f 2 154 153
f 2 153 152
f 2 152 127
f 2 127 100
f 2 100 99
f 2 99 74
f 2 74 47
f 2 47 27
f 2 27 16
f 2 16 8
f 3 9 10
f 3 10 6
f 3 6 5
f 3 5 4
f 6 10 11
f 6 11 12
f 6 12 7
f 7 13 14
f 7 12 13
f 8 16 17
f 8 17 15
f 9 18 10
f 10 18 19
f 10 19 11
f 11 20 13
f 11 13 12
f 11 19 21
f 11 21 22
f 11 22 20
f 13 20 23
f 13 23 24
f 13 24 25
f 13 25 14
f 15 17 26
f 16 27 46
f 16 46 73
f 16 73 102
f 16 102 129
f 16 129 161
f 16 161 195
f 16 195 179
f 16 179 147
f 16 147 119
f 16 119 94
f 16 94 69
f 16 69 45
f 16 45 28
f 16 28 17
f 17 28 26
f 18 29 19
f 19 29 30
f 19 30 31
f 19 31 32
f 19 32 21
f 20 22 33
f 20 33 34
f 20 34 35
f 20 35 36
f 20 36 23
f 21 32 22
f 22 32 37
f 22 37 38
f 22 38 39
f 22 39 33
f 23 36 40
f 23 40 41
f 23 41 24
f 24 41 42
f 24 42 43
f 24 43 25
f 26 28 45
f 26 45 44
f 27 47 46
f 29 48 30
f 30 48 31
f 31 48 49
f 31 49 50
f 31 50 51
f 31 51 38
f 31 38 37
f 31 37 32
f 33 39 52
f 33 52 53
f 33 53 54
f 33 54 55
f 33 55 56
f 33 56 34
f 34 56 57
f 34 57 40
f 34 40 35
f 35 40 36
f 38 51 39
f 39 58 59
f 39 59 52
f 39 51 60
f 39 60 58
f 40 57 61
f 40 61 41
f 41 62 63
f 41 63 42
f 41 61 64
f 41 64 65
f 41 65 66
f 41 66 62
f 44 67 68
f 44 45 69
f 44 69 67
f 46 47 70
f 46 70 71
f 46 71 72
f 46 72 73
f 47 74 70
f 50 75 51
f 51 75 60
f 52 59 53
f 53 59 76
f 53 76 77
f 53 77 54
f 54 77 78
f 54 78 55
f 55 78 56
f 56 78 79
f 56 79 80
f 56 80 81
f 56 81 64
f 56 64 82
f 56 82 61
f 56 61 57
f 58 60 83
f 58 83 84
f 58 84 85
f 58 85 76
f 58 76 59
f 60 75 83
f 61 82 64
f 64 86 87
f 64 87 65
f 64 81 80
f 64 80 88
f 64 88 89
f 64 89 90
f 64 90 113
f 64 113 86
f 65 87 91
f 65 91 66
f 67 69 68
f 68 69 92
f 68 92 93
f 69 94 95
f 69 95 92
f 70 96 97
f 70 97 98
f 70 98 72
f 70 72 71
f 70 74 99
f 70 99 100
f 70 100 96
f 72 98 73
f 73 101 102
f 73 98 101
f 76 103 104
f 76 104 77
f 76 85 103
f 77 104 105
f 77 105 79
f 77 79 78
f 79 105 106
f 79 106 107
f 79 107 80
f 80 107 108
f 80 108 109
f 80 109 89
f 80 89 88
f 83 110 84
f 84 111 85
f 84 110 111
f 85 111 112
f 85 112 103
f 86 91 87
f 86 113 91
f 89 109 114
f 89 114 115
f 89 115 90
f 90 115 116
f 90 116 113
f 91 113 117
f 92 95 94
f 92 94 119
f 92 119 148
f 92 148 181
f 92 181 170
f 92 170 140
f 92 140 139
f 92 139 118
f 92 118 93
f 96 100 120
f 96 120 97
f 97 120 121
f 97 121 122
f 97 122 98
f 98 122 123
f 98 123 124
f 98 124 125
f 98 125 126
f 98 126 101
f 100 127 120
f 101 126 128
f 101 128 102
f 102 128 129
f 103 112 141
f 103 141 130
f 103 130 104
f 104 130 105
f 105 130 132
f 105 132 131
f 105 131 106
f 106 108 107
f 106 131 132
f 106 132 133
f 106 133 134
f 106 134 135
f 106 135 108
f 108 114 109
f 108 135 136
f 108 136 137
f 108 137 114
f 110 138 111
f 111 138 112
f 112 139 140
f 112 140 141
f 112 138 139
f 113 116 142
f 113 142 117
f 114 143 115
f 114 137 144
f 114 144 143
f 115 143 116
f 116 143 145
f 116 145 142
f 117 142 146
f 118 139 138
f 119 147 148
f 120 149 150
f 120 150 151
f 120 151 121
f 120 127 152
f 120 152 153
f 120 153 154
f 120 154 149
f 121 155 122
f 121 151 155
f 122 155 156
f 122 156 157
f 122 157 123
f 123 157 124
f 124 157 125
f 125 158 129
f 125 129 159
f 125 159 126
f 125 157 160
f 125 160 158
f 126 159 128
f 128 159 129
f 129 158 161
f 130 141 132
f 132 162 163
f 132 163 133
f 132 141 162
f 133 163 164
f 133 164 134
f 134 165 135
f 134 164 166
f 134 166 167
f 134 167 168
f 134 168 169
f 134 169 165
f 135 165 136
f 136 165 144
f 136 144 137
f 140 170 141
f 141 170 162
f 142 145 176
f 142 176 146
f 143 171 145
f 143 144 171
f 144 165 172
f 144 172 173
f 144 173 171
f 145 171 174
f 145 174 175
f 145 175 176
f 147 177 178
f 147 178 148
f 147 179 180
f 147 180 177
f 148 178 181
f 149 154 182
f 149 182 150
f 150 183 184
f 150 184 185
f 150 185 151
f 150 182 186
f 150 186 187
f 150 187 174
f 150 174 171
f 150 171 188
f 150 188 183
f 151 185 189
f 151 189 155
f 154 175 174
f 154 174 187
f 154 187 186
f 154 186 182
f 155 190 191
f 155 191 192
f 155 192 157
f 155 157 156
f 155 189 190
f 157 192 191
f 157 191 160
f 158 160 161
f 160 191 193
f 160 193 194
f 160 194 195
f 160 195 161
f 162 170 163
f 163 170 196
f 163 196 197
f 163 197 198
f 163 198 199
f 163 199 164
f 164 199 200
f 164 200 201
f 164 201 202
f 164 202 166
f 165 169 203
f 165 203 172
f 166 202 204
f 166 204 167
f 167 204 205
f 167 205 168
f 168 205 206
f 168 206 207
f 168 207 208
f 168 208 209
f 168 209 169
f 169 209 203
f 170 181 210
f 170 210 196
f 171 173 211
f 171 211 188
f 172 203 212
f 172 212 208
f 172 208 211
f 172 211 173
f 177 180 178
f 178 180 213
f 178 213 197
f 178 197 210
f 178 210 181
f 179 195 194
f 179 194 180
f 180 193 201
f 180 201 213
f 180 194 193
f 183 189 184
f 183 188 211
f 183 211 189
f 184 189 185
f 189 208 190
f 189 211 208
f 190 206 205
f 190 205 191
f 190 208 207
f 190 207 206
f 191 205 193
f 193 205 204
f 193 204 201
f 196 210 197
f 197 213 201
f 197 201 198
f 198 201 214
f 198 214 199
f 199 214 200
f 200 214 201
f 201 204 202
f 203 209 212
f 208 212 209
