v 0.161063 0.241536 -0.462081
v 0.161063 0.246246 -0.464442
v 0.161423 0.241536 -0.462001
v 0.161063 0.241536 -0.343187
v 0.164257 0.273277 -0.476973
v 0.174393 0.250058 -0.462752
v 0.174393 0.241536 -0.458513
v 0.161063 0.302818 -0.492455
v 0.292646 0.241536 -0.241493
v 0.161063 0.428736 -0.422557
v 0.187312 0.292446 -0.480274
v 0.175578 0.303533 -0.488914
v 0.180962 0.258304 -0.46506
v 0.186127 0.241536 -0.454783
v 0.186089 0.264993 -0.466911
v 0.189579 0.260815 -0.463691
v 0.161063 0.303753 -0.492912
v 0.172049 0.307803 -0.491972
v 0.292646 0.241536 -0.394491
v 0.292646 0.428736 -0.343643
v 0.161063 0.428736 -0.515612
v 0.187312 0.303588 -0.485774
v 0.196006 0.295176 -0.478905
v 0.187312 0.285977 -0.477054
v 0.180666 0.310149 -0.490819
v 0.189553 0.241536 -0.453388
v 0.195555 0.269428 -0.465972
v 0.161063 0.316489 -0.498761
v 0.291525 0.241536 -0.395215
v 0.292646 0.245916 -0.396986
v 0.292646 0.428736 -0.454246
v 0.199844 0.428736 -0.505201
v 0.195014 0.410886 -0.504128
v 0.186784 0.380832 -0.50233
v 0.161063 0.36815 -0.507535
v 0.187312 0.312183 -0.489933
v 0.200063 0.316856 -0.48784
v 0.200282 0.303386 -0.481213
v 0.161475 0.316489 -0.498654
v 0.194783 0.244395 -0.45269
v 0.197668 0.241536 -0.449443
v 0.209067 0.307546 -0.479334
v 0.161063 0.316948 -0.498922
v 0.195646 0.321401 -0.49149
v 0.223557 0.241536 -0.434498
v 0.292646 0.250058 -0.399294
v 0.292646 0.419829 -0.452931
v 0.290894 0.428736 -0.455266
v 0.205138 0.428736 -0.503752
v 0.205756 0.428149 -0.50351
v 0.187312 0.329409 -0.495327
v 0.17147 0.36815 -0.504745
v 0.161063 0.350869 -0.505228
v 0.187312 0.318652 -0.49267
v 0.20434 0.329409 -0.490014
v 0.213291 0.316563 -0.481374
v 0.200321 0.241536 -0.447914
v 0.204172 0.273918 -0.463584
v 0.217683 0.312293 -0.476839
v 0.25841 0.309984 -0.452153
v 0.292646 0.304578 -0.429399
v 0.277898 0.29054 -0.430178
v 0.225154 0.278756 -0.454139
v 0.219461 0.245605 -0.439113
v 0.161063 0.329134 -0.502303
v 0.174393 0.329409 -0.498788
v 0.197887 0.329409 -0.492214
v 0.290237 0.278243 -0.416252
v 0.292646 0.39399 -0.449094
v 0.226442 0.428736 -0.492509
v 0.206607 0.428736 -0.503188
v 0.207354 0.346196 -0.491221
v 0.206001 0.337583 -0.490604
v 0.161063 0.329428 -0.502357
v 0.21315 0.329409 -0.485399
v 0.2212 0.320906 -0.478878
v 0.292646 0.316086 -0.435303
v 0.283089 0.311285 -0.438549
v 0.292646 0.314199 -0.434363
v 0.292646 0.329409 -0.439488
v 0.28967 0.381162 -0.448907
v 0.225257 0.39344 -0.487948
v 0.212261 0.342054 -0.487813
v 0.224433 0.428736 -0.493663
v 0.212531 0.428736 -0.500237
v 0.215597 0.428736 -0.498546
v 0.222835 0.329409 -0.479817
v 0.270543 0.325762 -0.451697
v 0.245865 0.322372 -0.465274
v 0.286618 0.319898 -0.440589
v 0.224497 0.342311 -0.480783
f 1 2 3
f 1 3 7
f 1 7 14
f 1 14 26
f 1 26 41
f 1 41 57
f 1 57 45
f 1 45 29
f 1 29 19
f 1 19 9
f 1 9 4
f 1 4 10
f 1 10 21
f 1 21 35
f 1 35 53
f 1 53 74
f 1 74 65
f 1 65 43
f 1 43 28
f 1 28 17
f 1 17 8
f 1 8 2
f 2 5 6
f 2 6 7
f 2 7 3
f 2 8 5
f 4 9 10
f 5 11 6
f 5 8 12
f 5 12 11
f 6 11 13
f 6 13 7
f 7 13 15
f 7 15 16
f 7 16 14
f 8 17 18
f 8 18 12
f 9 19 30
f 9 30 46
f 9 46 61
f 9 61 79
f 9 79 77
f 9 77 80
f 9 80 69
f 9 69 47
f 9 47 31
f 9 31 20
f 9 20 10
f 10 20 31
f 10 31 48
f 10 48 70
f 10 70 84
f 10 84 86
f 10 86 85
f 10 85 71
f 10 71 49
f 10 49 32
f 10 32 21
f 11 22 23
f 11 23 24
f 11 24 13
f 11 12 25
f 11 25 22
f 12 18 25
f 13 24 15
f 14 16 27
f 14 27 26
f 15 24 23
f 15 23 16
f 16 23 27
f 17 28 18
f 18 28 25
f 19 29 30
f 21 32 33
f 21 33 34
f 21 34 35
f 22 25 36
f 22 36 23
f 23 36 37
f 23 37 38
f 23 38 27
f 25 28 39
f 25 39 36
f 26 27 40
f 26 40 41
f 27 38 42
f 27 42 40
f 28 43 44
f 28 44 39
f 29 45 46
f 29 46 30
f 31 47 48
f 32 49 50
f 32 50 51
f 32 51 33
f 33 51 34
f 34 52 35
f 34 51 52
f 35 52 51
f 35 51 53
f 36 39 54
f 36 54 44
f 36 44 37
f 37 44 55
f 37 55 56
f 37 56 42
f 37 42 38
f 39 44 54
f 40 57 41
f 40 42 58
f 40 58 57
f 42 56 59
f 42 59 60
f 42 60 61
f 42 61 62
f 42 62 63
f 42 63 64
f 42 64 58
f 43 65 44
f 44 66 51
f 44 51 67
f 44 67 55
f 44 65 66
f 45 57 64
f 45 64 46
f 46 64 63
f 46 63 62
f 46 62 68
f 46 68 61
f 47 69 70
f 47 70 48
f 49 71 50
f 50 71 72
f 50 72 73
f 50 73 55
f 50 55 67
f 50 67 51
f 51 66 53
f 53 66 74
f 55 73 75
f 55 75 76
f 55 76 56
f 56 76 59
f 57 58 64
f 59 76 77
f 59 77 78
f 59 78 60
f 60 78 61
f 61 78 79
f 61 68 62
f 65 74 66
f 69 80 81
f 69 81 82
f 69 82 70
f 70 82 83
f 70 83 84
f 71 85 72
f 72 83 75
f 72 75 73
f 72 85 86
f 72 86 84
f 72 84 83
f 75 87 88
f 75 88 89
f 75 89 76
f 75 83 87
f 76 89 90
f 76 90 77
f 77 79 78
f 77 90 80
f 80 90 88
f 80 88 87
f 80 87 91
f 80 91 81
f 81 91 82
f 82 91 83
f 83 91 87
f 88 90 89
