v -0.362085 0.255017 0.142502
v -0.386748 0.255017 -8.73961e-05
v -0.473758 0.255017 0.142502
v -0.239242 0.142503 0.142502
v -0.239242 0.121748 -8.73961e-05
v -0.494498 0.255017 -8.73961e-05
v -0.47953 0.255017 0.121008
v -0.473258 0.25399 0.142502
v -0.239242 0.0318237 0.142502
v -0.239242 0.0318237 -8.73961e-05
v -0.4904 0.246431 -8.73961e-05
v -0.4904 0.246409 0.00647261
v -0.493499 0.252876 0.0323079
v -0.494523 0.255017 0.0452186
v -0.488951 0.255017 0.085779
v -0.488101 0.252395 0.084118
v -0.478481 0.244377 0.105278
v -0.463838 0.234939 0.142502
v -0.26648 0.0318237 0.142502
v -0.302038 0.0318237 -8.73961e-05
v -0.483803 0.232624 -8.73961e-05
v -0.462038 0.187115 -8.73961e-05
v -0.480855 0.226441 0.0323079
v -0.480855 0.226441 0.0452186
v -0.494498 0.255017 0.0581432
v -0.490025 0.255017 0.0817592
v -0.476657 0.222202 0.0710538
v -0.449269 0.187858 0.109856
v -0.449619 0.20621 0.142502
v -0.270453 0.0318237 0.135649
v -0.282972 0.0393392 0.142502
v -0.283447 0.0390989 0.140785
v -0.302038 0.0318237 0.0323079
v -0.303587 0.032632 0.0323079
v -0.302663 0.0321514 -8.73961e-05
v -0.458765 0.180889 -8.73961e-05
v -0.462038 0.187115 0.0452186
v -0.465087 0.193626 0.0525741
v -0.490375 0.246431 0.0581432
v -0.494223 0.255017 0.0604183
v -0.489501 0.248201 0.0710538
v -0.492499 0.255017 0.0723519
v -0.492674 0.254646 0.0710538
v -0.464787 0.194259 0.0611859
v -0.459365 0.18729 0.0710538
v -0.450694 0.183729 0.0968752
v -0.438125 0.183008 0.142502
v -0.441923 0.186831 0.135398
v -0.278599 0.0356688 0.136138
v -0.285945 0.0379846 0.132174
v -0.277749 0.0318237 0.122808
v -0.290543 0.0427911 0.142502
v -0.296715 0.0456094 0.142502
v -0.303587 0.0469421 0.135635
v -0.300464 0.0318237 0.0452186
v -0.329425 0.0467892 0.0452186
v -0.329425 0.0462211 0.0323079
v -0.329425 0.0462211 -8.73961e-05
v -0.455566 0.174837 -8.73961e-05
v -0.455566 0.174837 0.0452186
v -0.455292 0.175318 0.0581432
v -0.462263 0.188514 0.0573755
v -0.467486 0.199219 0.0573755
v -0.48078 0.226681 0.0581432
v -0.492824 0.255017 0.0710538
v -0.454142 0.177218 0.0710538
v -0.452893 0.179359 0.0804054
v -0.451743 0.18161 0.0890171
v -0.438524 0.182221 0.139543
v -0.432977 0.17416 0.142502
v -0.277849 0.0318237 0.122627
v -0.309534 0.0515519 0.142502
v -0.310059 0.051683 0.142111
v -0.303587 0.0441238 0.12271
v -0.288244 0.036783 0.12271
v -0.311459 0.0507873 0.135635
v -0.29694 0.0318237 0.0588271
v -0.310859 0.0383561 0.0547376
v -0.336347 0.0513334 0.0537187
v -0.336947 0.0508965 0.0452186
v -0.337297 0.0506562 0.0323079
v -0.337297 0.0506562 -8.73961e-05
v -0.451793 0.16837 -8.73961e-05
v -0.451793 0.16837 0.0452186
v -0.451443 0.168851 0.0581432
v -0.450219 0.170752 0.0710538
v -0.440773 0.177983 0.12271
v -0.439674 0.179928 0.130931
v -0.436825 0.171516 0.12271
v -0.427679 0.166448 0.142502
v -0.283172 0.0318237 0.109632
v -0.309934 0.0517704 0.142502
v -0.317906 0.0560306 0.135635
v -0.320279 0.0537585 0.12271
v -0.323603 0.064005 0.142502
v -0.325102 0.0624756 0.135635
v -0.302588 0.0416113 0.109646
v -0.296491 0.0390989 0.113861
v -0.313832 0.0494546 0.12271
v -0.317131 0.0490613 0.109102
v -0.321854 0.0524914 0.112954
v -0.293667 0.0318237 0.0710538
v -0.308685 0.0394484 0.0710538
v -0.309709 0.0389241 0.0633493
v -0.315707 0.0413492 0.0586736
v -0.330275 0.0487773 0.0580734
v -0.316506 0.0469421 0.0968752
v -0.323203 0.0514864 0.104342
v -0.335173 0.0521855 0.0623304
v -0.342319 0.0580625 0.0581851
v -0.349441 0.0639613 0.0540536
v -0.350116 0.0632403 0.0452186
v -0.343394 0.0567953 0.0452186
v -0.343744 0.056402 0.0323079
v -0.343744 0.056402 -8.73961e-05
v -0.44852 0.164918 -8.73961e-05
v -0.445321 0.161532 0.0193833
v -0.445321 0.161532 0.0452186
v -0.426405 0.141978 0.0523648
v -0.444971 0.161991 0.0581432
v -0.443772 0.163323 0.0710538
v -0.439349 0.167758 0.103952
v -0.4382 0.169331 0.112563
v -0.421307 0.159981 0.142502
v -0.291568 0.0360184 0.109646
v -0.286745 0.0318237 0.0968752
v -0.327326 0.0602253 0.12271
v -0.337072 0.0763706 0.142502
v -0.331574 0.0686366 0.135635
v -0.316506 0.0434247 0.0710538
v -0.340695 0.0597666 0.0710538
v -0.338971 0.0614925 0.0839645
v -0.336222 0.0642671 0.10458
v -0.348291 0.0651192 0.0626654
v -0.362335 0.0768949 0.0539839
v -0.350465 0.062847 0.0323079
v -0.388098 0.102784 0.0538164
v -0.400892 0.115805 0.0535651
v -0.362885 0.0763051 0.0452186
v -0.350465 0.0628689 -8.73961e-05
v -0.445321 0.161554 -8.73961e-05
v -0.442273 0.158364 -8.73961e-05
v -0.439124 0.155087 -8.73961e-05
v -0.353664 0.0661679 -8.73961e-05
v -0.432852 0.148555 0.0452186
v -0.401117 0.115565 0.0452186
v -0.39487 0.109098 0.0452186
v -0.388398 0.102435 0.0452186
v -0.413636 0.128892 0.0530627
v -0.361185 0.0780529 0.0625956
v -0.422732 0.145649 0.0839645
v -0.41486 0.153492 0.142502
v -0.338321 0.0751035 0.135635
v -0.344793 0.0813955 0.135635
v -0.351365 0.0878624 0.135635
v -0.357837 0.0943511 0.135635
v -0.34022 0.073159 0.12271
v -0.350265 0.0889766 0.142502
v -0.356937 0.0695761 0.0323079
v -0.360861 0.0912924 0.113038
v -0.40499 0.143573 0.142502
v -0.376203 0.114669 0.142502
v -0.364259 0.100796 0.135635
f 1 2 6
f 1 6 14
f 1 14 25
f 1 25 40
f 1 40 65
f 1 65 42
f 1 42 26
f 1 26 15
f 1 15 7
f 1 7 3
f 1 3 8
f 1 8 18
f 1 18 29
f 1 29 47
f 1 47 70
f 1 70 90
f 1 90 124
f 1 124 152
f 1 152 161
f 1 161 162
f 1 162 158
f 1 158 128
f 1 128 95
f 1 95 92
f 1 92 72
f 1 72 53
f 1 53 52
f 1 52 31
f 1 31 19
f 1 19 9
f 1 9 4
f 1 4 5
f 1 5 2
f 2 5 10
f 2 10 20
f 2 20 35
f 2 35 58
f 2 58 82
f 2 82 115
f 2 115 140
f 2 140 144
f 2 144 143
f 2 143 142
f 2 142 141
f 2 141 116
f 2 116 83
f 2 83 59
f 2 59 36
f 2 36 22
f 2 22 21
f 2 21 11
f 2 11 6
f 3 7 8
f 4 9 10
f 4 10 5
f 6 11 12
f 6 12 13
f 6 13 14
f 7 15 16
f 7 16 17
f 7 17 18
f 7 18 8
f 9 19 30
f 9 30 51
f 9 51 71
f 9 71 91
f 9 91 126
f 9 126 102
f 9 102 77
f 9 77 55
f 9 55 33
f 9 33 20
f 9 20 10
f 11 21 12
f 12 21 22
f 12 22 13
f 13 22 23
f 13 23 14
f 14 24 25
f 14 23 24
f 15 26 16
f 16 26 27
f 16 27 17
f 17 27 28
f 17 28 29
f 17 29 18
f 19 31 32
f 19 32 30
f 20 33 34
f 20 34 35
f 22 36 37
f 22 37 24
f 22 24 23
f 24 37 25
f 25 38 39
f 25 39 40
f 25 37 38
f 26 41 27
f 26 42 43
f 26 43 41
f 27 41 44
f 27 44 45
f 27 45 28
f 28 45 46
f 28 46 47
f 28 47 48
f 28 48 29
f 29 48 47
f 30 32 49
f 30 49 50
f 30 50 51
f 31 52 32
f 32 52 53
f 32 53 54
f 32 54 49
f 33 55 56
f 33 56 34
f 34 56 57
f 34 57 58
f 34 58 35
f 36 59 60
f 36 60 37
f 37 60 61
f 37 61 62
f 37 62 38
f 38 63 64
f 38 64 39
f 38 62 63
f 39 64 44
f 39 44 43
f 39 43 40
f 40 43 65
f 41 43 44
f 42 65 43
f 44 64 63
f 44 63 62
f 44 62 61
f 44 61 66
f 44 66 45
f 45 66 67
f 45 67 68
f 45 68 46
f 46 68 47
f 47 68 69
f 47 69 70
f 49 54 50
f 50 54 51
f 51 54 71
f 53 72 73
f 53 73 54
f 54 74 75
f 54 75 71
f 54 73 76
f 54 76 74
f 55 77 78
f 55 78 79
f 55 79 56
f 56 79 80
f 56 80 57
f 57 80 81
f 57 81 82
f 57 82 58
f 59 83 84
f 59 84 60
f 60 84 61
f 61 84 85
f 61 85 66
f 66 85 86
f 66 86 87
f 66 87 67
f 67 87 88
f 67 88 68
f 68 88 69
f 69 88 70
f 70 89 90
f 70 88 87
f 70 87 89
f 71 75 91
f 72 92 73
f 73 93 94
f 73 94 76
f 73 92 95
f 73 95 96
f 73 96 93
f 74 97 98
f 74 98 91
f 74 91 75
f 74 76 99
f 74 99 100
f 74 100 97
f 76 94 101
f 76 101 99
f 77 102 103
f 77 103 104
f 77 104 78
f 78 104 105
f 78 105 79
f 79 105 106
f 79 106 107
f 79 107 108
f 79 108 109
f 79 109 110
f 79 110 111
f 79 111 112
f 79 112 113
f 79 113 80
f 80 113 114
f 80 114 81
f 81 114 115
f 81 115 82
f 83 116 117
f 83 117 118
f 83 118 84
f 84 118 119
f 84 119 120
f 84 120 85
f 85 120 121
f 85 121 86
f 86 121 122
f 86 122 123
f 86 123 89
f 86 89 87
f 89 123 90
f 90 123 122
f 90 122 124
f 91 98 125
f 91 125 126
f 93 96 94
f 94 96 127
f 94 127 101
f 95 128 96
f 96 128 129
f 96 129 127
f 97 126 125
f 97 125 98
f 97 100 108
f 97 108 107
f 97 107 103
f 97 103 126
f 99 101 108
f 99 108 100
f 101 127 108
f 102 126 103
f 103 107 130
f 103 130 104
f 104 130 105
f 105 130 106
f 106 130 107
f 108 127 131
f 108 131 109
f 109 131 110
f 110 131 111
f 111 131 132
f 111 132 133
f 111 133 134
f 111 134 150
f 111 150 135
f 111 135 112
f 112 136 114
f 112 114 113
f 112 135 137
f 112 137 138
f 112 138 139
f 112 139 136
f 114 136 115
f 115 136 140
f 116 141 117
f 117 141 142
f 117 142 143
f 117 143 144
f 117 144 145
f 117 145 118
f 118 145 119
f 119 145 146
f 119 146 147
f 119 147 148
f 119 148 138
f 119 138 149
f 119 149 120
f 120 149 138
f 120 138 121
f 121 138 137
f 121 137 135
f 121 135 150
f 121 150 151
f 121 151 152
f 121 152 124
f 121 124 122
f 127 129 153
f 127 153 154
f 127 154 155
f 127 155 156
f 127 156 157
f 127 157 133
f 127 133 132
f 127 132 131
f 128 158 129
f 129 158 153
f 133 157 134
f 134 157 150
f 136 159 144
f 136 144 140
f 136 139 148
f 136 148 147
f 136 147 146
f 136 146 145
f 136 145 159
f 138 148 139
f 144 159 145
f 150 160 151
f 150 157 160
f 151 160 152
f 152 160 161
f 153 158 154
f 154 158 155
f 155 158 162
f 155 162 156
f 156 162 163
f 156 163 157
f 157 163 161
f 157 161 160
f 161 163 162
