v 0.00010987 0.428736 -0.539724
v 0.00010987 0.428736 -0.449907
v 0.00010987 0.438746 -0.541017
v 0.0363224 0.428736 -0.539724
v 0.16147 0.428736 -0.42246
v 0.161502 0.428758 -0.422446
v 0.16147 0.639434 -0.406911
v 0.00010987 0.639434 -0.434917
v 0.00010987 0.458591 -0.543577
v 0.0581415 0.428736 -0.53971
v 0.0581415 0.458591 -0.543563
v 0.0581415 0.444981 -0.541807
v 0.161502 0.428736 -0.422609
v 0.161502 0.639434 -0.406911
v 0.16147 0.649246 -0.409634
v 0.148546 0.648302 -0.411295
v 0.00010987 0.648983 -0.436483
v 0.00010987 0.644285 -0.435707
v 0.00010987 0.471521 -0.545238
v 0.00646128 0.471521 -0.545238
v 0.0710497 0.428736 -0.538866
v 0.0650933 0.451676 -0.54261
v 0.0581415 0.471521 -0.545224
v 0.161502 0.428736 -0.515489
v 0.161502 0.649246 -0.409648
v 0.16147 0.652803 -0.419846
v 0.00010987 0.652539 -0.445673
v 0.00010987 0.484429 -0.545986
v 0.083958 0.428736 -0.536279
v 0.0737041 0.455671 -0.542079
v 0.0779067 0.464277 -0.542651
v 0.0710497 0.471521 -0.544462
v 0.0452175 0.484429 -0.545973
v 0.0581415 0.484429 -0.545959
v 0.0710497 0.484429 -0.545224
v 0.158105 0.428736 -0.516401
v 0.161502 0.446386 -0.517845
v 0.161502 0.652803 -0.419873
v 0.16147 0.652978 -0.432752
v 0.122714 0.652978 -0.432752
v 0.00010987 0.652978 -0.458593
v 0.00010987 0.490795 -0.545333
v 0.0452175 0.497359 -0.544652
v 0.0971348 0.428736 -0.532753
v 0.107057 0.432753 -0.530629
v 0.0796921 0.471521 -0.543127
v 0.096882 0.471521 -0.538526
v 0.0581415 0.497359 -0.544639
v 0.081114 0.484429 -0.543522
v 0.0712077 0.497929 -0.543754
v 0.0798185 0.494 -0.543168
v 0.16147 0.458591 -0.519478
v 0.161502 0.45611 -0.519138
v 0.161502 0.652978 -0.43278
v 0.00010987 0.652978 -0.497327
v 0.00010987 0.497359 -0.544652
v 0.00010987 0.501661 -0.543835
v 0.00010987 0.509279 -0.542378
v 0.0323093 0.536104 -0.537232
v 0.0193853 0.638095 -0.517695
v 0.0581415 0.613596 -0.522378
v 0.0581415 0.523196 -0.539696
v 0.0581415 0.506052 -0.542978
v 0.130535 0.475253 -0.529989
v 0.148546 0.471521 -0.524666
v 0.0669893 0.505305 -0.542828
v 0.16147 0.484429 -0.52197
v 0.130314 0.492419 -0.529935
v 0.0676528 0.570811 -0.530098
v 0.0756 0.502627 -0.54231
v 0.096882 0.497359 -0.537926
v 0.161502 0.509871 -0.518117
v 0.135022 0.496986 -0.52777
v 0.0762636 0.567364 -0.529431
v 0.0766744 0.632146 -0.516551
v 0.0800871 0.623518 -0.517395
v 0.0842108 0.627294 -0.515544
v 0.083958 0.536104 -0.533706
v 0.096882 0.639434 -0.509744
v 0.161502 0.471477 -0.52118
v 0.161502 0.652978 -0.471541
v 0.00010987 0.649444 -0.509826
v 0.0710497 0.652978 -0.497327
v 0.00010987 0.613596 -0.522392
v 0.00010987 0.638095 -0.517695
v 0.00010987 0.641278 -0.517001
v 0.0581415 0.644527 -0.516279
v 0.0323093 0.638073 -0.517695
v 0.0581415 0.626504 -0.5199
v 0.16147 0.471521 -0.521194
v 0.0581415 0.638051 -0.517681
v 0.161502 0.484407 -0.521956
v 0.161502 0.497337 -0.520595
v 0.0680636 0.63636 -0.517355
v 0.161502 0.626482 -0.494985
v 0.0718397 0.64018 -0.515694
v 0.083958 0.639434 -0.513039
v 0.115604 0.644988 -0.503508
v 0.110691 0.64018 -0.505891
v 0.161502 0.639236 -0.492453
v 0.122714 0.652978 -0.48442
v 0.161502 0.649312 -0.485278
v 0.148546 0.651639 -0.48442
v 0.135622 0.652715 -0.48442
v 0.0323093 0.649444 -0.509826
v 0.00010987 0.646963 -0.513107
v 0.083958 0.652847 -0.497327
v 0.0581415 0.649444 -0.509812
v 0.00010987 0.644549 -0.516279
v 0.0193853 0.644549 -0.516279
v 0.0710497 0.649444 -0.50909
v 0.083958 0.649312 -0.507688
v 0.096882 0.6485 -0.506122
v 0.106978 0.647161 -0.504774
v 0.157489 0.64681 -0.491541
v 0.161502 0.645229 -0.490901
v 0.161502 0.64918 -0.485537
v 0.148546 0.648083 -0.492739
v 0.135622 0.649159 -0.494346
v 0.096882 0.652034 -0.497327
f 1 2 8
f 1 8 18
f 1 18 17
f 1 17 27
f 1 27 41
f 1 41 55
f 1 55 82
f 1 82 106
f 1 106 109
f 1 109 86
f 1 86 85
f 1 85 84
f 1 84 58
f 1 58 57
f 1 57 56
f 1 56 42
f 1 42 28
f 1 28 19
f 1 19 9
f 1 9 3
f 1 3 4
f 1 4 10
f 1 10 21
f 1 21 29
f 1 29 44
f 1 44 36
f 1 36 24
f 1 24 13
f 1 13 5
f 1 5 2
f 2 5 6
f 2 6 7
f 2 7 8
f 3 9 4
f 4 9 11
f 4 11 12
f 4 12 10
f 5 13 6
f 6 13 24
f 6 24 37
f 6 37 53
f 6 53 80
f 6 80 92
f 6 92 93
f 6 93 72
f 6 72 95
f 6 95 100
f 6 100 116
f 6 116 117
f 6 117 102
f 6 102 81
f 6 81 54
f 6 54 38
f 6 38 25
f 6 25 14
f 6 14 7
f 7 14 15
f 7 15 16
f 7 16 17
f 7 17 18
f 7 18 8
f 9 19 20
f 9 20 11
f 10 12 22
f 10 22 21
f 11 20 23
f 11 23 22
f 11 22 12
f 14 25 15
f 15 17 16
f 15 25 26
f 15 26 27
f 15 27 17
f 19 28 20
f 20 28 23
f 21 22 30
f 21 30 31
f 21 31 29
f 22 23 32
f 22 32 30
f 23 28 33
f 23 33 34
f 23 34 35
f 23 35 32
f 24 36 37
f 25 38 26
f 26 38 54
f 26 54 39
f 26 39 40
f 26 40 27
f 27 40 41
f 28 42 43
f 28 43 33
f 29 31 44
f 30 32 31
f 31 37 45
f 31 45 44
f 31 32 46
f 31 46 47
f 31 47 37
f 32 35 46
f 33 43 48
f 33 48 34
f 34 48 35
f 35 49 46
f 35 48 50
f 35 50 51
f 35 51 49
f 36 44 45
f 36 45 37
f 37 47 52
f 37 52 53
f 39 54 81
f 39 81 101
f 39 101 83
f 39 83 55
f 39 55 41
f 39 41 40
f 42 56 43
f 43 56 57
f 43 57 58
f 43 58 59
f 43 59 60
f 43 60 61
f 43 61 62
f 43 62 63
f 43 63 48
f 46 64 47
f 46 49 64
f 47 64 65
f 47 65 52
f 48 63 66
f 48 66 50
f 49 67 64
f 49 51 68
f 49 68 67
f 50 66 69
f 50 69 70
f 50 70 51
f 51 71 72
f 51 72 73
f 51 73 68
f 51 70 74
f 51 74 75
f 51 75 76
f 51 76 77
f 51 77 78
f 51 78 79
f 51 79 71
f 52 80 53
f 52 65 80
f 55 83 105
f 55 105 82
f 58 84 60
f 58 60 59
f 60 84 85
f 60 85 86
f 60 86 87
f 60 87 88
f 60 88 61
f 61 88 89
f 61 89 66
f 61 66 62
f 62 66 63
f 64 90 80
f 64 80 65
f 64 67 90
f 66 89 91
f 66 91 69
f 67 92 80
f 67 80 90
f 67 68 93
f 67 93 92
f 68 73 93
f 69 91 94
f 69 94 70
f 70 94 74
f 71 79 72
f 72 93 73
f 72 79 95
f 74 94 75
f 75 94 96
f 75 96 97
f 75 97 79
f 75 79 77
f 75 77 76
f 77 79 78
f 79 97 98
f 79 98 99
f 79 99 100
f 79 100 95
f 81 102 103
f 81 103 104
f 81 104 101
f 82 105 106
f 83 101 107
f 83 107 108
f 83 108 105
f 86 109 110
f 86 110 87
f 87 96 94
f 87 94 91
f 87 91 88
f 87 110 108
f 87 108 111
f 87 111 112
f 87 112 113
f 87 113 114
f 87 114 96
f 88 91 89
f 96 114 98
f 96 98 97
f 98 115 116
f 98 116 100
f 98 100 99
f 98 114 115
f 101 104 107
f 102 117 118
f 102 118 103
f 103 118 119
f 103 119 120
f 103 120 104
f 104 120 107
f 105 108 110
f 105 110 106
f 106 110 109
f 107 120 112
f 107 112 111
f 107 111 108
f 112 120 119
f 112 119 113
f 113 119 118
f 113 118 114
f 114 118 115
f 115 118 117
f 115 117 116
