v -0.239265 0.255017 0.43289
v -0.28766 0.255017 0.40492
v -0.239265 0.251653 0.431043
v -0.239265 0.255017 0.306769
v -0.289864 0.255017 0.403641
v -0.293491 0.249228 0.398354
v -0.280773 0.236097 0.398468
v -0.239265 0.212808 0.409582
v -0.239265 0.142503 0.142531
v -0.362066 0.255017 0.142531
v -0.293124 0.255017 0.401737
v -0.288211 0.22832 0.389855
v -0.284101 0.21969 0.387468
v -0.29682 0.23282 0.387297
v -0.277352 0.200639 0.380845
v -0.26461 0.187509 0.380958
v -0.239265 0.189256 0.396564
v -0.239265 0.0318237 0.142531
v -0.473778 0.255017 0.142531
v -0.300631 0.255017 0.396734
v -0.274712 0.190174 0.376581
v -0.312959 0.255017 0.386416
v -0.30846 0.247742 0.385961
v -0.298358 0.217789 0.375813
v -0.285318 0.179294 0.36271
v -0.283321 0.194675 0.374023
v -0.303776 0.255017 0.39446
v -0.308253 0.255017 0.390651
v -0.270602 0.181566 0.374193
v -0.245923 0.180364 0.38778
v -0.239265 0.187006 0.395313
v -0.266493 0.0318237 0.142531
v -0.239265 0.0318237 0.1873
v -0.465237 0.255017 0.174395
v -0.473273 0.25399 0.142531
v -0.321408 0.247742 0.373056
v -0.309883 0.232755 0.374449
v -0.294501 0.18729 0.359071
v -0.351712 0.255017 0.347644
v -0.29822 0.179316 0.349861
v -0.289979 0.17499 0.354552
v -0.281324 0.170686 0.359213
v -0.277306 0.17475 0.365211
v -0.2785 0.186438 0.372061
v -0.261993 0.177568 0.376695
v -0.265712 0.173701 0.371862
v -0.239265 0.177328 0.389599
v -0.239265 0.177502 0.389713
v -0.285708 0.0405845 0.142531
v -0.255978 0.0318237 0.160751
v -0.277099 0.0415895 0.161319
v -0.239265 0.0363898 0.200148
v -0.247438 0.0379628 0.195969
v -0.271681 0.0514208 0.207197
v -0.256047 0.0397106 0.190171
v -0.247897 0.0318237 0.174622
v -0.462322 0.255017 0.184258
v -0.440259 0.20455 0.174395
v -0.452197 0.23234 0.181075
v -0.456422 0.219952 0.142531
v -0.356143 0.255017 0.34321
v -0.343631 0.23708 0.343608
v -0.33571 0.232755 0.348611
v -0.32267 0.194194 0.335564
v -0.320329 0.18729 0.333233
v -0.311146 0.179316 0.336957
v -0.336973 0.179316 0.311118
v -0.307564 0.170686 0.333375
v -0.294639 0.170686 0.34628
v -0.272691 0.167038 0.362624
v -0.28603 0.166579 0.350601
v -0.256943 0.16896 0.373767
v -0.239265 0.171014 0.385307
v -0.296728 0.0456094 0.142531
v -0.251433 0.0318237 0.168625
v -0.263784 0.0421357 0.186447
v -0.277742 0.0453254 0.174395
v -0.239265 0.0410433 0.212712
v -0.251915 0.0459371 0.213166
v -0.263899 0.0501755 0.212171
v -0.258963 0.0513553 0.220216
v -0.267572 0.054261 0.21581
v -0.273656 0.0628689 0.221978
v -0.282265 0.0660368 0.217004
v -0.322693 0.116483 0.245059
v -0.285226 0.0636772 0.208391
v -0.287614 0.0615362 0.200233
v -0.309929 0.0517704 0.142531
v -0.309539 0.0515519 0.142531
v -0.251915 0.0335715 0.174395
v -0.258779 0.0385745 0.181558
v -0.461449 0.255017 0.186959
v -0.438124 0.183008 0.142531
v -0.437321 0.184647 0.148557
v -0.435783 0.18823 0.160865
v -0.439318 0.206428 0.181103
v -0.386378 0.255017 0.312938
v -0.385965 0.247764 0.308446
v -0.36792 0.213485 0.30333
v -0.356418 0.19852 0.304723
v -0.348498 0.194194 0.309726
v -0.339705 0.18729 0.313847
v -0.359058 0.18729 0.294461
v -0.349875 0.179316 0.298185
v -0.354558 0.175012 0.289942
v -0.346317 0.170708 0.294604
v -0.35061 0.166579 0.286019
v -0.337708 0.166579 0.298924
v -0.26484 0.164896 0.365012
v -0.248333 0.166426 0.37624
v -0.276457 0.162493 0.354125
v -0.27159 0.154781 0.349037
v -0.24505 0.116483 0.322659
v -0.280199 0.157949 0.344745
v -0.239265 0.170817 0.385137
v -0.239265 0.0459153 0.225815
v -0.250974 0.0501537 0.225133
v -0.239265 0.0503285 0.237327
v -0.246038 0.0513553 0.233121
v -0.241745 0.0542391 0.241733
v -0.254647 0.0542391 0.228828
v -0.298152 0.0895883 0.233689
v -0.239265 0.0585431 0.250318
v -0.260731 0.0628689 0.234911
v -0.239265 0.0692483 0.265099
v -0.29007 0.0870103 0.238408
v -0.34122 0.152727 0.276639
v -0.349049 0.154803 0.271579
v -0.36264 0.167016 0.272716
v -0.347005 0.143683 0.25532
v -0.336124 0.128957 0.245883
v -0.296108 0.0784024 0.217913
v -0.296338 0.0653158 0.192416
v -0.298817 0.0630655 0.183803
v -0.301526 0.0606404 0.174395
v -0.310503 0.0522729 0.142531
v -0.354972 0.148795 0.251426
v -0.455733 0.255017 0.199636
v -0.45268 0.244399 0.194775
v -0.432982 0.17416 0.142531
v -0.429125 0.175929 0.16149
v -0.427587 0.17842 0.171694
v -0.426049 0.181238 0.180307
v -0.390671 0.255017 0.308191
v -0.387319 0.23282 0.296792
v -0.375817 0.217789 0.298299
v -0.362708 0.179316 0.285309
v -0.359196 0.170708 0.281329
v -0.354122 0.162493 0.27644
v -0.344779 0.157971 0.280192
v -0.252213 0.161292 0.368338
v -0.239265 0.163935 0.378741
v -0.25529 0.143683 0.346991
v -0.243627 0.104532 0.308418
v -0.239265 0.0833399 0.284257
v -0.239265 0.0882556 0.290908
v -0.239265 0.108202 0.316377
v -0.239265 0.118711 0.328514
v -0.239265 0.119825 0.329765
v -0.239265 0.120131 0.330106
v -0.239265 0.0981088 0.303898
v -0.278293 0.145649 0.329936
v -0.239265 0.0501537 0.236873
v -0.239265 0.0514864 0.23926
v -0.239265 0.0573852 0.248641
v -0.247828 0.0628689 0.247816
v -0.365234 0.17475 0.277321
v -0.371869 0.173701 0.265724
v -0.373797 0.168938 0.256941
v -0.387365 0.168108 0.232268
v -0.376253 0.166426 0.248328
v -0.365027 0.164896 0.264843
v -0.316518 0.0736397 0.173485
v -0.316632 0.0681123 0.162655
v -0.323497 0.0641142 0.143042
v -0.312408 0.0624756 0.159102
v -0.323612 0.064005 0.142531
v -0.368333 0.161292 0.252251
v -0.389844 0.165814 0.223655
v -0.406603 0.16175 0.186788
v -0.40114 0.154366 0.18207
v -0.334402 0.0788394 0.152479
v -0.453575 0.255017 0.203388
v -0.447307 0.239637 0.199551
v -0.42839 0.189846 0.184599
v -0.424327 0.186241 0.188266
v -0.427679 0.166448 0.142531
v -0.42614 0.168108 0.154497
v -0.425199 0.169484 0.16149
v -0.423454 0.174225 0.175361
v -0.414501 0.166863 0.182894
v -0.41744 0.174116 0.187243
v -0.41496 0.178245 0.196566
v -0.412481 0.18244 0.205179
v -0.394459 0.255017 0.303756
v -0.396755 0.255017 0.300601
v -0.401759 0.255017 0.293154
v -0.398362 0.249206 0.293495
v -0.37405 0.194653 0.283347
v -0.372052 0.186438 0.278515
v -0.239265 0.145125 0.357877
v -0.239265 0.151657 0.365126
v -0.37421 0.181544 0.270613
v -0.376713 0.177568 0.262
v -0.412044 0.169637 0.191507
v -0.336835 0.0766109 0.143867
v -0.396181 0.145933 0.174395
v -0.372649 0.118034 0.16149
v -0.337088 0.0763706 0.142531
v -0.423317 0.255017 0.255832
v -0.437482 0.250691 0.227151
v -0.425957 0.194347 0.193212
v -0.432592 0.21342 0.199977
v -0.416843 0.239112 0.251853
v -0.421319 0.159981 0.142531
v -0.427242 0.166906 0.145885
v -0.418748 0.162515 0.16149
v -0.416475 0.164853 0.174395
v -0.409657 0.158408 0.174395
v -0.374532 0.116351 0.154782
v -0.401369 0.17925 0.221239
v -0.387801 0.180364 0.24594
v -0.389385 0.188404 0.250915
v -0.412504 0.255017 0.274564
v -0.409244 0.252133 0.277463
v -0.398476 0.236097 0.280789
v -0.376598 0.190152 0.274735
v -0.349944 0.0892824 0.14452
v -0.350265 0.0889766 0.142531
v -0.414868 0.153492 0.142531
v -0.387457 0.129263 0.154753
v -0.412274 0.156048 0.16149
v -0.404996 0.143573 0.142531
v -0.375702 0.115172 0.146169
v -0.376185 0.114669 0.142531
v -0.382659 0.121158 0.142531
f 1 2 3
f 1 3 8
f 1 8 17
f 1 17 31
f 1 31 48
f 1 48 47
f 1 47 73
f 1 73 115
f 1 115 152
f 1 152 202
f 1 202 201
f 1 201 160
f 1 160 159
f 1 159 158
f 1 158 157
f 1 157 161
f 1 161 156
f 1 156 155
f 1 155 125
f 1 125 123
f 1 123 165
f 1 165 164
f 1 164 118
f 1 118 163
f 1 163 116
f 1 116 78
f 1 78 52
f 1 52 33
f 1 33 18
f 1 18 9
f 1 9 4
f 1 4 10
f 1 10 19
f 1 19 34
f 1 34 57
f 1 57 92
f 1 92 138
f 1 138 183
f 1 183 210
f 1 210 224
f 1 224 197
f 1 197 196
f 1 196 195
f 1 195 144
f 1 144 97
f 1 97 61
f 1 61 39
f 1 39 22
f 1 22 28
f 1 28 27
f 1 27 20
f 1 20 11
f 1 11 5
f 1 5 2
f 2 5 6
f 2 6 7
f 2 7 3
f 3 7 8
f 4 9 10
f 5 11 6
f 6 12 13
f 6 13 7
f 6 11 14
f 6 14 12
f 7 13 15
f 7 15 16
f 7 16 8
f 8 16 17
f 9 18 32
f 9 32 49
f 9 49 74
f 9 74 89
f 9 89 88
f 9 88 136
f 9 136 177
f 9 177 209
f 9 209 229
f 9 229 235
f 9 235 236
f 9 236 233
f 9 233 230
f 9 230 215
f 9 215 187
f 9 187 140
f 9 140 93
f 9 93 60
f 9 60 35
f 9 35 19
f 9 19 10
f 11 20 14
f 12 14 26
f 12 26 21
f 12 21 15
f 12 15 13
f 14 22 23
f 14 23 24
f 14 24 25
f 14 25 26
f 14 20 27
f 14 27 28
f 14 28 22
f 15 21 16
f 16 21 29
f 16 29 30
f 16 30 17
f 17 30 31
f 18 33 56
f 18 56 75
f 18 75 50
f 18 50 32
f 19 35 34
f 21 26 29
f 22 36 37
f 22 37 38
f 22 38 24
f 22 24 23
f 22 39 36
f 24 38 25
f 25 38 40
f 25 40 41
f 25 41 42
f 25 42 43
f 25 43 44
f 25 44 26
f 26 44 29
f 29 45 30
f 29 44 43
f 29 43 46
f 29 46 45
f 30 45 47
f 30 47 48
f 30 48 31
f 32 50 51
f 32 51 49
f 33 52 53
f 33 53 54
f 33 54 55
f 33 55 56
f 34 35 58
f 34 58 59
f 34 59 57
f 35 60 58
f 36 39 61
f 36 61 62
f 36 62 63
f 36 63 37
f 37 63 101
f 37 101 64
f 37 64 38
f 38 64 101
f 38 101 65
f 38 65 67
f 38 67 66
f 38 66 40
f 40 66 41
f 41 66 67
f 41 67 105
f 41 105 68
f 41 68 69
f 41 69 42
f 42 70 43
f 42 69 71
f 42 71 70
f 43 70 46
f 45 46 72
f 45 72 47
f 46 70 72
f 47 72 73
f 49 51 74
f 50 75 51
f 51 75 76
f 51 76 77
f 51 77 74
f 52 78 79
f 52 79 53
f 53 79 80
f 53 80 54
f 54 76 55
f 54 80 81
f 54 81 82
f 54 82 83
f 54 83 84
f 54 84 85
f 54 85 86
f 54 86 87
f 54 87 88
f 54 88 89
f 54 89 77
f 54 77 76
f 55 76 56
f 56 90 75
f 56 76 91
f 56 91 90
f 57 59 92
f 58 60 93
f 58 93 94
f 58 94 95
f 58 95 96
f 58 96 59
f 59 96 92
f 61 97 98
f 61 98 62
f 62 98 99
f 62 99 100
f 62 100 101
f 62 101 63
f 65 101 102
f 65 102 67
f 67 102 103
f 67 103 104
f 67 104 105
f 68 71 69
f 68 105 106
f 68 106 107
f 68 107 108
f 68 108 71
f 70 109 110
f 70 110 72
f 70 71 111
f 70 111 112
f 70 112 113
f 70 113 109
f 71 114 112
f 71 112 111
f 71 108 114
f 72 110 115
f 72 115 73
f 74 77 89
f 75 90 91
f 75 91 76
f 78 116 79
f 79 116 117
f 79 117 80
f 80 117 81
f 81 117 118
f 81 118 119
f 81 119 120
f 81 120 121
f 81 121 82
f 82 121 83
f 83 122 84
f 83 121 123
f 83 123 124
f 83 124 125
f 83 125 126
f 83 126 127
f 83 127 128
f 83 128 122
f 84 122 85
f 85 128 129
f 85 129 130
f 85 130 131
f 85 131 132
f 85 132 86
f 85 122 128
f 86 132 87
f 87 133 134
f 87 134 135
f 87 135 136
f 87 136 88
f 87 132 131
f 87 131 137
f 87 137 133
f 92 96 139
f 92 139 138
f 93 140 141
f 93 141 94
f 94 141 95
f 95 141 142
f 95 142 96
f 96 143 139
f 96 142 143
f 97 144 145
f 97 145 98
f 98 145 146
f 98 146 103
f 98 103 99
f 99 103 100
f 100 103 101
f 101 103 102
f 103 146 147
f 103 147 104
f 104 147 105
f 105 147 148
f 105 148 106
f 106 148 107
f 107 148 129
f 107 129 149
f 107 149 128
f 107 128 150
f 107 150 108
f 108 150 114
f 109 151 152
f 109 152 110
f 109 113 153
f 109 153 151
f 110 152 115
f 112 154 113
f 112 114 155
f 112 155 156
f 112 156 154
f 113 157 158
f 113 158 159
f 113 159 160
f 113 160 153
f 113 154 161
f 113 161 157
f 114 162 155
f 114 150 127
f 114 127 162
f 116 163 117
f 117 163 118
f 118 164 120
f 118 120 119
f 120 164 165
f 120 165 123
f 120 123 121
f 123 125 166
f 123 166 124
f 124 166 125
f 125 155 127
f 125 127 126
f 127 150 128
f 127 155 162
f 128 149 129
f 129 148 167
f 129 167 168
f 129 168 169
f 129 169 170
f 129 170 171
f 129 171 172
f 129 172 130
f 130 172 137
f 130 137 131
f 133 137 134
f 134 173 174
f 134 174 175
f 134 175 176
f 134 176 135
f 134 137 173
f 135 176 136
f 136 175 177
f 136 176 175
f 137 172 178
f 137 178 179
f 137 179 180
f 137 180 181
f 137 181 182
f 137 182 174
f 137 174 173
f 138 139 183
f 139 184 183
f 139 143 185
f 139 185 186
f 139 186 184
f 140 187 188
f 140 188 189
f 140 189 141
f 141 189 142
f 142 189 190
f 142 190 143
f 143 191 192
f 143 192 193
f 143 193 194
f 143 194 186
f 143 186 185
f 143 190 191
f 144 195 145
f 145 195 196
f 145 196 197
f 145 197 198
f 145 198 199
f 145 199 147
f 145 147 146
f 147 199 200
f 147 200 167
f 147 167 148
f 151 153 201
f 151 201 202
f 151 202 152
f 153 160 201
f 154 156 161
f 167 203 168
f 167 200 203
f 168 204 169
f 168 203 204
f 169 204 193
f 169 193 205
f 169 205 170
f 170 205 191
f 170 191 179
f 170 179 171
f 171 179 172
f 172 179 178
f 174 182 175
f 175 206 177
f 175 182 181
f 175 181 191
f 175 191 207
f 175 207 208
f 175 208 206
f 177 206 209
f 179 191 180
f 180 191 181
f 183 184 211
f 183 211 210
f 184 186 212
f 184 212 213
f 184 213 214
f 184 214 211
f 186 194 212
f 187 215 216
f 187 216 188
f 188 217 189
f 188 216 215
f 188 215 217
f 189 217 218
f 189 218 190
f 190 218 191
f 191 205 192
f 191 218 219
f 191 219 220
f 191 220 208
f 191 208 207
f 192 205 193
f 193 204 221
f 193 221 194
f 194 213 212
f 194 221 222
f 194 222 223
f 194 223 213
f 197 224 225
f 197 225 198
f 198 225 226
f 198 226 227
f 198 227 199
f 199 227 203
f 199 203 200
f 203 227 223
f 203 223 222
f 203 222 204
f 204 222 221
f 206 228 209
f 206 208 220
f 206 220 228
f 209 228 229
f 210 214 225
f 210 225 224
f 210 211 214
f 213 223 214
f 214 223 226
f 214 226 225
f 215 230 217
f 217 231 220
f 217 220 232
f 217 232 218
f 217 230 233
f 217 233 231
f 218 232 220
f 218 220 219
f 220 231 234
f 220 234 229
f 220 229 228
f 223 227 226
f 229 234 235
f 231 233 236
f 231 236 235
f 231 235 234
