v -0.355766 0.255017 -0.156346
v -0.470045 0.255017 -0.156346
v -0.386746 0.255017 -8.74009e-05
v -0.165183 0.115499 -0.156346
v -0.469013 0.252898 -0.156346
v -0.47214 0.255017 -0.148545
v -0.49448 0.255017 -8.74009e-05
v -0.165183 0.084476 -8.74009e-05
v -0.165183 0.0318237 -0.156346
v -0.468465 0.251784 -0.156346
v -0.489419 0.255017 -0.0841358
v -0.486002 0.255017 -0.0968769
v -0.49448 0.255017 -0.0581336
v -0.493481 0.252876 -8.74009e-05
v -0.165183 0.0318237 -8.74009e-05
v -0.258508 0.0318237 -0.156346
v -0.467015 0.202671 -0.0710582
v -0.449188 0.212852 -0.156346
v -0.489516 0.248179 -0.0710582
v -0.491063 0.255017 -0.0779412
v -0.492901 0.255017 -0.0705994
v -0.492675 0.254646 -0.0710582
v -0.493481 0.25292 -0.0581336
v -0.493481 0.252898 -0.0452242
v -0.493481 0.252876 -0.0193902
v -0.491966 0.249686 -8.74009e-05
v -0.302028 0.0318237 -8.74009e-05
v -0.267921 0.0318237 -0.140041
v -0.290423 0.0410433 -0.13614
v -0.271886 0.0379191 -0.156346
v -0.463823 0.196226 -0.0710582
v -0.46479 0.194238 -0.0611162
v -0.436325 0.186941 -0.156346
v -0.439485 0.193167 -0.156101
v -0.438518 0.182221 -0.139536
v -0.445545 0.18729 -0.122711
v -0.492836 0.255017 -0.0710582
v -0.480844 0.226463 -0.0452242
v -0.486744 0.238981 -0.0581336
v -0.465081 0.193648 -0.0525049
v -0.465113 0.193582 -0.0452242
v -0.48381 0.232624 -8.74009e-05
v -0.308185 0.0350571 -8.74009e-05
v -0.302028 0.0318237 -0.0322996
v -0.273724 0.0318237 -0.129961
v -0.277818 0.0318237 -0.122711
v -0.303575 0.0469421 -0.135636
v -0.29068 0.0444296 -0.148545
v -0.278688 0.0410214 -0.156346
v -0.459375 0.18729 -0.0710582
v -0.451735 0.181588 -0.0890304
v -0.454152 0.177197 -0.0710582
v -0.455281 0.175318 -0.0581336
v -0.462276 0.188514 -0.0573382
v -0.477653 0.220214 -0.0581336
v -0.43236 0.179403 -0.156346
v -0.439678 0.179928 -0.130925
v -0.462018 0.187137 -0.0452242
v -0.462018 0.187115 -0.0322996
v -0.463598 0.190392 -8.74009e-05
v -0.468304 0.200224 -0.0064656
v -0.468304 0.200224 -8.74009e-05
v -0.312634 0.0373948 -8.74009e-05
v -0.312634 0.0373948 -0.0322996
v -0.300932 0.0318237 -0.041691
v -0.329429 0.0467892 -0.0452242
v -0.281267 0.0318237 -0.114711
v -0.288263 0.036783 -0.122711
v -0.303575 0.0441238 -0.122711
v -0.311441 0.0507873 -0.135636
v -0.310055 0.0516611 -0.142121
v -0.291132 0.0467673 -0.156346
v -0.452895 0.179338 -0.080419
v -0.440774 0.177983 -0.122711
v -0.450219 0.17073 -0.0710582
v -0.451444 0.168851 -0.0581336
v -0.451767 0.168392 -0.0452242
v -0.455571 0.174837 -0.0452242
v -0.429717 0.174771 -0.156346
v -0.458762 0.180889 -8.74009e-05
v -0.462018 0.187115 -8.74009e-05
v -0.329429 0.0462211 -8.74009e-05
v -0.329429 0.0462211 -0.0322996
v -0.300448 0.0318237 -0.0452242
v -0.311957 0.0377662 -0.0452242
v -0.336908 0.0508965 -0.0452242
v -0.336327 0.0513334 -0.0537285
v -0.283169 0.0318237 -0.109633
v -0.296483 0.0390989 -0.11384
v -0.323207 0.0514864 -0.104326
v -0.313826 0.0494546 -0.122711
v -0.321853 0.0524914 -0.112937
v -0.320274 0.0537585 -0.122711
v -0.305832 0.0554844 -0.156346
v -0.30048 0.0514864 -0.156346
v -0.299255 0.050678 -0.156346
v -0.31792 0.0560306 -0.135636
v -0.325109 0.0624756 -0.135636
v -0.323497 0.0641142 -0.143023
v -0.315535 0.05898 -0.146878
v -0.313117 0.0616891 -0.156346
v -0.436841 0.171516 -0.122711
v -0.438195 0.169331 -0.11257
v -0.439356 0.167758 -0.103959
v -0.443772 0.163323 -0.0710582
v -0.444965 0.161991 -0.0581336
v -0.44532 0.161554 -0.0452242
v -0.451767 0.16837 -0.0193902
v -0.453701 0.171647 -8.74009e-05
v -0.455571 0.174837 -8.74009e-05
v -0.425881 0.168479 -0.156346
v -0.337262 0.0506562 -8.74009e-05
v -0.337262 0.0506562 -0.0322996
v -0.298772 0.0318237 -0.0519083
v -0.310861 0.0383561 -0.054738
v -0.34371 0.056402 -0.0322996
v -0.343355 0.0567953 -0.0452242
v -0.335135 0.0521855 -0.0623398
v -0.316502 0.0469421 -0.0968769
v -0.330267 0.0487773 -0.0580724
v -0.315696 0.0413492 -0.0586842
v -0.350093 0.0632403 -0.0452242
v -0.349416 0.0639613 -0.0540803
v -0.342291 0.0580625 -0.0582101
v -0.285136 0.0318237 -0.102796
v -0.291583 0.0360184 -0.109633
v -0.302608 0.0416332 -0.109633
v -0.340679 0.0597447 -0.0710582
v -0.327333 0.0602253 -0.122711
v -0.338294 0.0751035 -0.135636
v -0.374528 0.116351 -0.15474
v -0.336811 0.0766109 -0.143849
v -0.374077 0.116745 -0.156346
v -0.328945 0.0714768 -0.14775
v -0.319145 0.0671073 -0.156346
v -0.315599 0.0639176 -0.156346
v -0.426139 0.168108 -0.154464
v -0.437357 0.156857 -0.0710582
v -0.419433 0.161838 -0.156346
v -0.422238 0.159063 -0.135636
v -0.388099 0.102762 -0.0538509
v -0.400897 0.115805 -0.0535602
v -0.413631 0.128892 -0.0530555
v -0.426397 0.142 -0.0523366
v -0.43913 0.155087 -0.0064656
v -0.44532 0.161554 -8.74009e-05
v -0.448511 0.164918 -8.74009e-05
v -0.420239 0.135468 -0.0452242
v -0.388454 0.102391 -0.0322996
v -0.451767 0.16837 -8.74009e-05
v -0.42414 0.166622 -0.156346
v -0.340454 0.0534963 -8.74009e-05
v -0.304671 0.0357344 -0.0586842
v -0.296934 0.0318237 -0.0588372
v -0.34371 0.056402 -8.74009e-05
v -0.347127 0.0596792 -8.74009e-05
v -0.350447 0.0628689 -0.0322996
v -0.316502 0.0434247 -0.0710582
v -0.287811 0.0318237 -0.0929154
v -0.382103 0.0959896 -0.0452242
v -0.355283 0.0709961 -0.0583477
v -0.286748 0.0318237 -0.0968769
v -0.424462 0.143901 -0.0710582
v -0.413244 0.155131 -0.154541
v -0.412986 0.155371 -0.156346
v -0.401703 0.144076 -0.156346
v -0.388712 0.131186 -0.156346
v -0.375688 0.118274 -0.156346
v -0.33636 0.0826408 -0.156346
v -0.334393 0.0788394 -0.152461
v -0.333265 0.0798444 -0.156346
v -0.38839 0.102435 -0.0452242
v -0.394869 0.10912 -0.0452242
v -0.40757 0.122294 -0.0452242
v -0.435939 0.151766 -8.74009e-05
v -0.43913 0.155087 -8.74009e-05
v -0.353639 0.0661679 -8.74009e-05
v -0.295451 0.0318237 -0.0643894
v -0.350447 0.0628689 -8.74009e-05
f 1 2 6
f 1 6 12
f 1 12 11
f 1 11 20
f 1 20 37
f 1 37 21
f 1 21 13
f 1 13 7
f 1 7 3
f 1 3 4
f 1 4 9
f 1 9 16
f 1 16 30
f 1 30 49
f 1 49 72
f 1 72 96
f 1 96 95
f 1 95 94
f 1 94 101
f 1 101 136
f 1 136 135
f 1 135 171
f 1 171 169
f 1 169 133
f 1 133 168
f 1 168 167
f 1 167 166
f 1 166 165
f 1 165 139
f 1 139 151
f 1 151 111
f 1 111 79
f 1 79 56
f 1 56 33
f 1 33 18
f 1 18 10
f 1 10 5
f 1 5 2
f 2 5 6
f 3 7 14
f 3 14 26
f 3 26 42
f 3 42 62
f 3 62 60
f 3 60 81
f 3 81 80
f 3 80 110
f 3 110 109
f 3 109 150
f 3 150 147
f 3 147 146
f 3 146 176
f 3 176 175
f 3 175 177
f 3 177 179
f 3 179 156
f 3 156 155
f 3 155 152
f 3 152 112
f 3 112 82
f 3 82 63
f 3 63 43
f 3 43 27
f 3 27 15
f 3 15 8
f 3 8 4
f 4 8 15
f 4 15 9
f 5 10 11
f 5 11 12
f 5 12 6
f 7 13 25
f 7 25 14
f 9 15 27
f 9 27 44
f 9 44 65
f 9 65 84
f 9 84 114
f 9 114 154
f 9 154 178
f 9 178 159
f 9 159 162
f 9 162 125
f 9 125 88
f 9 88 67
f 9 67 46
f 9 46 45
f 9 45 28
f 9 28 16
f 10 17 11
f 10 18 17
f 11 19 20
f 11 17 19
f 13 21 22
f 13 22 23
f 13 23 24
f 13 24 25
f 14 25 26
f 16 28 29
f 16 29 30
f 17 18 31
f 17 31 32
f 17 32 19
f 18 33 34
f 18 34 35
f 18 35 36
f 18 36 31
f 19 22 20
f 19 32 22
f 20 22 37
f 21 37 22
f 22 32 23
f 23 38 24
f 23 32 39
f 23 39 40
f 23 40 41
f 23 41 38
f 24 26 25
f 24 38 42
f 24 42 26
f 27 43 44
f 28 45 29
f 29 46 47
f 29 47 48
f 29 48 30
f 29 45 46
f 30 48 49
f 31 50 32
f 31 36 51
f 31 51 50
f 32 50 52
f 32 52 53
f 32 53 54
f 32 54 55
f 32 55 39
f 33 35 34
f 33 56 35
f 35 57 51
f 35 51 36
f 35 56 57
f 38 41 42
f 39 55 40
f 40 54 58
f 40 58 41
f 40 55 54
f 41 58 59
f 41 59 60
f 41 60 61
f 41 61 42
f 42 61 62
f 43 63 64
f 43 64 44
f 44 64 66
f 44 66 65
f 46 67 68
f 46 68 47
f 47 69 70
f 47 70 71
f 47 71 48
f 47 68 69
f 48 72 49
f 48 71 72
f 50 51 73
f 50 73 52
f 51 57 73
f 52 73 74
f 52 74 102
f 52 102 75
f 52 75 76
f 52 76 53
f 53 76 77
f 53 77 78
f 53 78 54
f 54 78 58
f 56 79 57
f 57 74 73
f 57 79 74
f 58 78 59
f 59 78 80
f 59 80 81
f 59 81 60
f 60 62 61
f 63 82 83
f 63 83 64
f 64 83 66
f 65 66 85
f 65 85 84
f 66 83 86
f 66 86 87
f 66 87 85
f 67 88 69
f 67 69 68
f 69 88 89
f 69 89 90
f 69 90 91
f 69 91 70
f 70 91 92
f 70 92 93
f 70 93 71
f 71 94 95
f 71 95 96
f 71 96 72
f 71 93 97
f 71 97 98
f 71 98 99
f 71 99 100
f 71 100 101
f 71 101 94
f 74 79 102
f 75 102 103
f 75 103 104
f 75 104 105
f 75 105 76
f 76 105 106
f 76 106 107
f 76 107 77
f 77 107 108
f 77 108 78
f 78 108 109
f 78 109 110
f 78 110 80
f 79 111 102
f 82 112 113
f 82 113 83
f 83 113 86
f 84 85 87
f 84 87 115
f 84 115 114
f 86 113 116
f 86 116 117
f 86 117 87
f 87 118 90
f 87 90 119
f 87 119 120
f 87 120 121
f 87 121 115
f 87 117 122
f 87 122 123
f 87 123 124
f 87 124 118
f 88 125 126
f 88 126 89
f 89 127 90
f 89 126 127
f 90 118 128
f 90 128 129
f 90 129 92
f 90 92 91
f 90 127 119
f 92 129 93
f 93 129 98
f 93 98 97
f 98 129 130
f 98 130 131
f 98 131 132
f 98 132 99
f 99 132 133
f 99 133 134
f 99 134 135
f 99 135 136
f 99 136 101
f 99 101 100
f 102 111 103
f 103 111 137
f 103 137 104
f 104 138 105
f 104 137 139
f 104 139 140
f 104 140 138
f 105 138 141
f 105 141 142
f 105 142 106
f 106 143 144
f 106 144 107
f 106 142 143
f 107 145 176
f 107 176 146
f 107 146 147
f 107 147 108
f 107 144 148
f 107 148 149
f 107 149 145
f 108 147 150
f 108 150 109
f 111 151 137
f 112 152 113
f 113 152 116
f 114 153 154
f 114 115 153
f 115 121 153
f 116 152 155
f 116 155 156
f 116 156 157
f 116 157 122
f 116 122 117
f 118 124 128
f 119 158 120
f 119 127 126
f 119 126 159
f 119 159 158
f 120 158 121
f 121 158 153
f 122 157 160
f 122 160 142
f 122 142 141
f 122 141 123
f 123 141 161
f 123 161 128
f 123 128 124
f 125 162 126
f 126 162 159
f 128 161 163
f 128 163 129
f 129 163 138
f 129 138 140
f 129 140 164
f 129 164 131
f 129 131 130
f 131 164 139
f 131 139 165
f 131 165 166
f 131 166 167
f 131 167 168
f 131 168 133
f 131 133 132
f 133 169 170
f 133 170 134
f 134 170 135
f 135 170 171
f 137 151 139
f 138 163 141
f 139 164 140
f 141 163 161
f 142 160 172
f 142 172 143
f 143 172 144
f 144 172 173
f 144 173 174
f 144 174 148
f 145 175 176
f 145 149 177
f 145 177 175
f 148 174 157
f 148 157 149
f 149 157 177
f 153 158 154
f 154 158 178
f 156 179 157
f 157 173 172
f 157 172 160
f 157 179 177
f 157 174 173
f 158 159 178
f 169 171 170
