v 0.341509 0.24153 -0.164033
v 0.412528 0.369597 -0.164033
v 0.461322 0.24153 -0.164033
v 0.377802 0.24153 -0.000103435
v 0.441039 0.369597 -0.000103435
v 0.506945 0.369597 -0.164033
v 0.464159 0.247235 -0.164033
v 0.461677 0.24153 -0.162718
v 0.488043 0.24153 -0.000103435
v 0.532117 0.369597 -0.000103435
v 0.527993 0.369597 -0.0853984
v 0.517898 0.343242 -0.109984
v 0.501552 0.329161 -0.164033
v 0.464439 0.2478 -0.164033
v 0.46623 0.243048 -0.148547
v 0.469047 0.24153 -0.135195
v 0.488062 0.24153 -0.0193771
v 0.48864 0.242759 -0.000103435
v 0.529075 0.345975 -0.000103435
v 0.532135 0.369597 -0.0581329
v 0.529057 0.369597 -0.0814025
v 0.526463 0.355241 -0.0839541
v 0.519559 0.329399 -0.0968727
v 0.498697 0.319043 -0.164033
v 0.503568 0.324585 -0.154196
v 0.480542 0.280324 -0.164033
v 0.517282 0.308874 -0.0796372
v 0.47847 0.24153 -0.100002
v 0.488062 0.24153 -0.0452143
v 0.503045 0.272839 -0.0581329
v 0.518775 0.305714 -0.0452143
v 0.493491 0.25289 -0.000103435
v 0.526929 0.329399 -0.000103435
v 0.526948 0.329399 -0.0452143
v 0.528609 0.342314 -0.0193771
v 0.529542 0.349486 -0.0452143
v 0.532023 0.369597 -0.0595933
v 0.529542 0.349473 -0.0581329
v 0.53012 0.357849 -0.0677296
v 0.530419 0.369597 -0.0750314
v 0.52943 0.36314 -0.0763313
v 0.523011 0.329399 -0.0839541
v 0.497876 0.316259 -0.164033
v 0.516797 0.322716 -0.103661
v 0.504724 0.320635 -0.145578
v 0.489797 0.299019 -0.164033
v 0.504053 0.309488 -0.130156
v 0.516125 0.311319 -0.0882228
v 0.519223 0.315971 -0.083938
v 0.522302 0.316485 -0.0710515
v 0.518159 0.307006 -0.0710515
v 0.515025 0.300561 -0.0710515
v 0.50228 0.274368 -0.0710515
v 0.49267 0.254671 -0.0710515
v 0.489498 0.248213 -0.0710515
v 0.486196 0.24153 -0.0710515
v 0.479833 0.24153 -0.0948988
v 0.488043 0.24153 -0.0496114
v 0.493491 0.252915 -0.0581329
v 0.518775 0.305714 -0.0581329
v 0.523477 0.316485 -0.0581329
v 0.523459 0.316485 -0.000103435
v 0.521145 0.311181 -0.000103435
v 0.518756 0.305727 -0.000103435
v 0.515678 0.299282 -0.000103435
v 0.511554 0.290656 -0.000103435
v 0.526948 0.329399 -0.0581329
v 0.531034 0.369597 -0.0715651
v 0.529019 0.354225 -0.0716453
v 0.525847 0.329399 -0.0710515
v 0.502896 0.312021 -0.138758
v 0.49267 0.304837 -0.164033
v 0.517693 0.320522 -0.0968727
v 0.514969 0.314052 -0.0968727
v 0.490375 0.246458 -0.0581329
v 0.487987 0.24153 -0.0581329
v 0.487502 0.24153 -0.0616956
f 1 2 6
f 1 6 13
f 1 13 24
f 1 24 43
f 1 43 72
f 1 72 46
f 1 46 26
f 1 26 14
f 1 14 7
f 1 7 3
f 1 3 8
f 1 8 16
f 1 16 28
f 1 28 57
f 1 57 56
f 1 56 77
f 1 77 76
f 1 76 58
f 1 58 29
f 1 29 17
f 1 17 9
f 1 9 4
f 1 4 5
f 1 5 2
f 2 5 10
f 2 10 20
f 2 20 37
f 2 37 68
f 2 68 40
f 2 40 21
f 2 21 11
f 2 11 6
f 3 7 8
f 4 9 18
f 4 18 32
f 4 32 66
f 4 66 65
f 4 65 64
f 4 64 63
f 4 63 62
f 4 62 33
f 4 33 19
f 4 19 10
f 4 10 5
f 6 11 12
f 6 12 13
f 7 14 15
f 7 15 8
f 8 15 16
f 9 17 18
f 10 19 20
f 11 21 22
f 11 22 23
f 11 23 12
f 12 23 13
f 13 23 25
f 13 25 24
f 14 26 27
f 14 27 15
f 15 27 28
f 15 28 16
f 17 29 30
f 17 30 31
f 17 31 32
f 17 32 18
f 19 33 34
f 19 34 35
f 19 35 36
f 19 36 20
f 20 36 38
f 20 38 39
f 20 39 37
f 21 40 41
f 21 41 42
f 21 42 22
f 22 42 23
f 23 42 25
f 24 25 43
f 25 42 44
f 25 44 45
f 25 45 43
f 26 46 27
f 27 47 48
f 27 48 49
f 27 49 50
f 27 50 51
f 27 51 52
f 27 52 53
f 27 53 54
f 27 54 55
f 27 55 56
f 27 56 57
f 27 57 28
f 27 46 47
f 29 58 59
f 29 59 30
f 30 59 51
f 30 51 60
f 30 60 31
f 31 60 61
f 31 61 62
f 31 62 63
f 31 63 64
f 31 64 65
f 31 65 66
f 31 66 32
f 33 62 34
f 34 62 61
f 34 61 67
f 34 67 38
f 34 38 36
f 34 36 35
f 37 39 68
f 38 67 39
f 39 69 41
f 39 41 68
f 39 67 70
f 39 70 69
f 40 68 41
f 41 69 70
f 41 70 42
f 42 70 50
f 42 50 44
f 43 71 72
f 43 45 71
f 44 73 45
f 44 50 73
f 45 73 74
f 45 74 48
f 45 48 71
f 46 72 47
f 47 72 71
f 47 71 48
f 48 74 73
f 48 73 49
f 49 73 50
f 50 60 51
f 50 70 61
f 50 61 60
f 51 59 75
f 51 75 76
f 51 76 52
f 52 76 53
f 53 76 54
f 54 76 77
f 54 77 55
f 55 77 56
f 58 76 75
f 58 75 59
f 61 70 67
