v -0.0615881 0.413462 0.443621
v 0.0853435 0.143209 0.426308
v 0.158546 0.414451 0.423822
v -0.369599 0.414561 -0.271185
v -0.44245 0.404454 -0.0951252
v -0.421096 0.349085 0.154538
v -0.376366 0.29053 0.237196
v -0.302461 0.266471 0.321098
v -0.199205 0.265702 0.393013
v -0.137163 0.0779528 0.405798
v -0.0999906 -0.0654132 0.406509
v -0.0651032 0.0812485 0.422223
v -0.0280188 0.0770739 0.426574
v 0.0391198 -0.0439907 0.419294
v 0.0560802 -0.157255 0.410593
v 0.0912313 -0.203396 0.402602
v 0.100634 -0.0239964 0.41299
v 0.140882 -0.156816 0.39328
v 0.166279 -0.147148 0.384756
v 0.207318 0.172871 0.389817
v 0.227793 0.295364 0.389284
v 0.287023 0.397423 0.355369
v 0.448542 0.408848 -0.055616
v -0.0591275 0.396324 -0.459587
v -0.268101 0.361938 -0.375951
v -0.334712 0.155513 -0.31105
v -0.353518 0.0349979 -0.284414
v -0.37909 -0.09134 -0.235227
v -0.409935 0.174958 -0.187639
v -0.447986 0.358533 0.0456874
v -0.426896 0.0529049 -0.123359
v -0.42672 -0.0989202 -0.101606
v -0.446141 0.222747 -0.0462048
v -0.427511 0.203412 0.119201
v -0.422502 0.217474 0.135626
v -0.410463 0.18122 0.162617
v -0.380496 0.0952007 0.213135
v -0.350354 -0.192081 0.232135
v -0.333394 -0.0089457 0.271911
v -0.277591 0.132113 0.33628
v -0.237256 0.154634 0.364158
v -0.19692 0.0420289 0.37934
v -0.182156 0.133322 0.392925
v -0.168711 0.0542232 0.393191
v -0.143842 -0.116717 0.390705
v -0.1166 -0.242286 0.390705
v -0.0549972 -0.341709 0.393812
v -0.0390914 -0.165385 0.40935
v -0.00692811 -0.0211401 0.421069
v 0.0279593 -0.34039 0.399761
v 0.04905 -0.329844 0.399495
v 0.0707558 -0.447393 0.388219
v 0.0888586 -0.330613 0.393812
v 0.117331 -0.203506 0.396565
v 0.129897 -0.37994 0.379696
v 0.138773 -0.562525 0.362294
v 0.183854 -0.484306 0.351551
v 0.196597 -0.312816 0.359098
v 0.241502 0.280643 0.380672
v 0.22876 -0.14605 0.354925
v 0.441688 0.371276 0.0975377
v 0.263999 0.281522 0.366644
v 0.292383 0.265592 0.343471
v 0.411458 0.289431 0.184014
v 0.449772 0.276688 -0.0618309
v 0.446521 0.301736 -0.0912186
v 0.412073 0.378966 -0.195097
v 0.351877 0.386766 -0.299685
v 0.228057 0.369519 -0.398325
v 0.0479076 0.308876 -0.460297
v -0.00692811 0.163094 -0.463404
v -0.035049 0.0911359 -0.461096
v -0.106054 0.218243 -0.449199
v -0.181629 0.0631218 -0.420788
v -0.243934 0.115744 -0.389624
v -0.289894 0.160017 -0.356419
v -0.314237 -0.207131 -0.320283
v -0.362481 -0.126275 -0.261863
v -0.333042 -0.421137 -0.28983
v -0.396226 -0.0387175 -0.204508
v -0.368721 -0.250306 -0.241709
v -0.381902 -0.540773 -0.195186
v -0.392799 -0.406196 -0.18533
v -0.407651 0.0157726 -0.183644
v -0.444823 0.18946 0.0349445
v -0.436123 0.154744 0.0761406
v -0.40686 -0.175382 -0.167751
v -0.405805 -0.321385 -0.155321
v -0.416263 -0.324021 -0.111994
v -0.439814 0.0349979 -0.0490459
v -0.44122 0.0490599 -0.0350179
v -0.423732 -0.0893625 0.0823555
v -0.421359 -0.00367247 0.10615
v -0.406596 -0.294689 0.107038
v -0.407387 -0.049264 0.141131
v -0.406948 0.0441162 0.154094
v -0.39359 -0.315782 0.141486
v -0.392272 0.0278571 0.183215
v -0.379002 -0.117816 0.192893
v -0.366612 -0.400923 0.184813
v -0.3522 -0.364889 0.212425
v -0.338227 -0.393013 0.230005
v -0.31907 -0.432232 0.252201
v -0.310194 -0.357968 0.268093
v -0.305712 -0.199661 0.284785
v -0.239101 -0.361483 0.321808
v -0.232422 -0.0410245 0.352439
v -0.197183 -0.147368 0.365401
v -0.179608 -0.453106 0.352261
v -0.177675 -0.295678 0.364425
v -0.168975 -0.144072 0.379252
v -0.153508 -0.245582 0.378719
v -0.121872 -0.474199 0.371794
v -0.00886142 -0.576368 0.381826
v 0.00572628 -0.442889 0.392836
v 0.204066 -0.550331 0.335925
v 0.115925 -0.678097 0.344714
v 0.252135 0.15815 0.364691
v 0.248972 -0.289416 0.330953
v 0.420245 0.14233 0.141753
v 0.430615 0.020936 0.0911452
v 0.436854 0.0511472 0.0635331
v 0.445291 0.119699 -0.00616287
v 0.256178 -0.0399259 0.346313
v 0.265405 0.0853133 0.35013
v 0.366992 -0.0174048 0.23107
v 0.270238 -0.462114 0.300855
v 0.29625 -0.150115 0.304229
v 0.332456 -0.260962 0.258504
v 0.390103 -0.035202 0.190407
v 0.392915 -0.0545372 0.182238
v 0.39107 -0.168461 0.172561
v 0.407679 0.013905 0.159154
v 0.433427 -0.217458 -0.0209011
v 0.435976 -0.0410245 -0.0698215
v 0.419367 -0.43377 -0.0724851
v 0.406449 -0.393013 -0.145555
v 0.430176 0.0490599 -0.119275
v 0.43703 0.226153 -0.116877
v 0.41717 0.262406 -0.178938
v 0.397573 0.215057 -0.218802
v 0.383073 0.273612 -0.251209
v 0.362598 0.244719 -0.282816
v 0.336322 0.25966 -0.318951
v 0.320504 0.273612 -0.334844
v 0.301874 0.280643 -0.351003
v 0.283947 0.104099 -0.359615
v 0.273138 -0.0141091 -0.364587
v 0.223839 -0.175382 -0.392643
v 0.200112 0.24384 -0.413507
v 0.161358 0.273612 -0.431708
v 0.0898253 0.187482 -0.452661
v 0.04905 0.0490599 -0.458166
v 0.0209291 0.147274 -0.462605
v 0.00695656 0.133212 -0.462694
v 0.00695656 -0.0211401 -0.459942
v -0.00692811 -0.273596 -0.455325
v -0.0139583 -0.119464 -0.458077
v -0.0209007 0.020936 -0.460563
v -0.0490215 -0.0211401 -0.457101
v -0.0564911 -0.354233 -0.449287
v -0.105175 -0.147368 -0.444493
v -0.144105 -0.00707809 -0.43526
v -0.172314 -0.035202 -0.42283
v -0.167305 -0.284252 -0.419811
v -0.198238 -0.147368 -0.408003
v -0.214144 0.0490599 -0.40454
v -0.218274 -0.280737 -0.394507
v -0.25738 -0.350937 -0.368671
v -0.282601 -0.0840893 -0.355442
v -0.31327 -0.529677 -0.30661
v -0.307206 -0.679305 -0.230167
v -0.394293 -0.657993 -0.0585459
v -0.40932 -0.549232 -0.0836719
v -0.413187 -0.4341 -0.100097
v -0.43542 -0.0565147 0.0219819
v -0.42962 -0.189444 0.0210053
v -0.422414 -0.206033 0.0616687
v -0.435068 -0.0968329 -0.0407889
v -0.422502 -0.381807 0.00839783
v -0.407387 -0.42652 0.0795144
v -0.392536 -0.168461 0.160397
v -0.353166 -0.561537 0.18428
v -0.295606 -0.662607 0.233733
v -0.172841 -0.656345 0.320654
v -0.0500761 -0.687545 0.347733
v 0.271469 -0.616246 0.280967
v 0.315495 -0.688973 0.194491
v 0.406185 -0.168461 0.137668
v 0.423936 -0.0159767 0.108369
v 0.420861 -0.236683 0.079692
v 0.429297 -0.070247 0.0771172
v 0.42833 -0.23163 0.0349445
v 0.435888 -0.0594808 0.0345893
v 0.34924 -0.259424 0.236663
v 0.378504 -0.191641 0.195467
v 0.329644 -0.381807 0.250159
v 0.365498 -0.555165 0.171762
v 0.394234 -0.404109 0.130921
v 0.414446 -0.533413 0.0349445
v 0.405834 -0.550221 -0.100186
v 0.383952 -0.679525 -0.120518
v 0.333862 -0.537587 -0.278643
v 0.361016 -0.401911 -0.243218
v 0.398364 -0.15363 -0.186929
v 0.391422 0.0770739 -0.221466
v 0.375955 0.006874 -0.246681
v 0.358907 0.0443359 -0.276868
v 0.338871 0.147274 -0.311138
v 0.345198 -0.210427 -0.28255
v 0.323053 0.0297247 -0.323124
v 0.311629 0.0858626 -0.336265
v 0.313562 0.273612 -0.340881
v 0.260044 -0.128033 -0.369559
v 0.310223 -0.245582 -0.324367
v 0.222081 -0.453875 -0.382255
v 0.190357 -0.166044 -0.410666
v 0.174803 0.0728993 -0.423007
v 0.128755 -0.191531 -0.434638
v 0.105204 -0.189444 -0.441563
v 0.0808617 -0.0957343 -0.449731
v 0.04905 -0.09134 -0.455325
v 0.0420198 -0.202298 -0.453904
v 0.0209291 -0.035202 -0.45932
v 0.0138989 -0.16143 -0.457189
v -0.0191431 -0.482987 -0.449021
v -0.0550851 -0.280627 -0.450974
v -0.0837332 -0.138689 -0.448755
v -0.088918 -0.583618 -0.43446
v -0.115545 -0.428168 -0.436325
v -0.101748 -0.298204 -0.442185
v -0.135142 -0.140447 -0.435792
v -0.147357 -0.147368 -0.431087
v -0.134966 -0.259644 -0.433306
v -0.180047 -0.442449 -0.409956
v -0.243495 -0.586914 -0.368849
v -0.168447 -0.69117 -0.319751
v -0.221965 -0.707759 -0.0438964
v -0.359318 -0.676449 0.0896359
v -0.408793 -0.556263 0.041337
v 0.128491 -0.704573 -0.265326
v 0.319977 -0.687105 -0.236293
v 0.397134 -0.653379 0.0384959
v 0.406976 -0.547145 0.0710799
v 0.357237 -0.382796 0.211182
v 0.19396 -0.665683 -0.358283
v 0.322438 -0.306554 -0.308386
v 0.320241 -0.105402 -0.320017
v 0.0588923 -0.642173 -0.431531
v 0.142376 -0.314903 -0.426647
v 0.105204 -0.329844 -0.438367
v 0.0912313 -0.30172 -0.442717
v 0.0747982 -0.427399 -0.443161
v -0.0274036 -0.693257 -0.364498
f 1 2 3
f 1 3 4
f 1 4 5
f 1 5 6
f 1 6 7
f 1 7 8
f 1 8 9
f 1 9 10
f 1 10 11
f 1 11 12
f 1 12 13
f 1 13 14
f 1 14 2
f 2 14 15
f 2 15 16
f 2 16 17
f 2 17 3
f 3 17 18
f 3 18 19
f 3 19 20
f 3 20 21
f 3 21 22
f 3 22 23
f 3 23 4
f 4 23 24
f 4 24 25
f 4 25 26
f 4 26 27
f 4 27 28
f 4 28 29
f 4 29 5
f 5 30 6
f 5 29 31
f 5 31 32
f 5 32 33
f 5 33 30
f 6 30 34
f 6 34 35
f 6 35 36
f 6 36 7
f 7 36 37
f 7 37 38
f 7 38 39
f 7 39 8
f 8 40 9
f 8 39 40
f 9 40 41
f 9 41 42
f 9 42 43
f 9 43 10
f 10 44 45
f 10 45 46
f 10 46 11
f 10 43 44
f 11 46 47
f 11 47 48
f 11 48 12
f 12 48 13
f 13 49 14
f 13 48 49
f 14 49 50
f 14 50 51
f 14 51 15
f 15 51 16
f 16 51 52
f 16 52 53
f 16 53 54
f 16 54 17
f 17 54 18
f 18 54 55
f 18 55 56
f 18 56 19
f 19 56 57
f 19 57 58
f 19 58 20
f 20 58 21
f 21 59 22
f 21 58 60
f 21 60 59
f 22 61 23
f 22 59 62
f 22 62 63
f 22 63 64
f 22 64 61
f 23 61 65
f 23 65 66
f 23 66 67
f 23 67 68
f 23 68 24
f 24 68 69
f 24 69 70
f 24 70 71
f 24 71 72
f 24 72 73
f 24 73 25
f 25 73 74
f 25 74 75
f 25 75 76
f 25 76 26
f 26 76 77
f 26 77 27
f 27 78 28
f 27 77 79
f 27 79 78
f 28 80 29
f 28 78 81
f 28 81 82
f 28 82 83
f 28 83 80
f 29 80 84
f 29 84 31
f 30 33 85
f 30 85 86
f 30 86 34
f 31 84 87
f 31 87 88
f 31 88 89
f 31 89 32
f 32 90 33
f 32 89 90
f 33 90 91
f 33 91 85
f 34 86 92
f 34 92 93
f 34 93 94
f 34 94 95
f 34 95 35
f 35 95 36
f 36 95 96
f 36 96 97
f 36 97 98
f 36 98 37
f 37 98 99
f 37 99 100
f 37 100 101
f 37 101 38
f 38 101 102
f 38 102 39
f 39 102 103
f 39 103 104
f 39 104 105
f 39 105 40
f 40 105 104
f 40 104 106
f 40 106 107
f 40 107 41
f 41 107 108
f 41 108 42
f 42 108 109
f 42 109 43
f 43 109 110
f 43 110 111
f 43 111 44
f 44 111 112
f 44 112 45
f 45 112 46
f 46 112 113
f 46 113 47
f 47 113 114
f 47 114 48
f 48 114 115
f 48 115 49
f 49 115 50
f 50 115 51
f 51 115 52
f 52 115 114
f 52 114 56
f 52 56 53
f 53 56 55
f 53 55 54
f 56 116 57
f 56 114 117
f 56 117 116
f 57 116 58
f 58 116 60
f 59 118 62
f 59 60 118
f 60 116 119
f 60 119 118
f 61 64 120
f 61 120 121
f 61 121 122
f 61 122 123
f 61 123 65
f 62 118 124
f 62 124 125
f 62 125 63
f 63 126 64
f 63 125 127
f 63 127 128
f 63 128 129
f 63 129 126
f 64 126 130
f 64 130 131
f 64 131 132
f 64 132 133
f 64 133 120
f 65 123 134
f 65 134 135
f 65 135 66
f 66 135 136
f 66 136 137
f 66 137 138
f 66 138 139
f 66 139 140
f 66 140 67
f 67 140 141
f 67 141 142
f 67 142 68
f 68 142 143
f 68 143 144
f 68 144 145
f 68 145 146
f 68 146 69
f 69 146 147
f 69 147 148
f 69 148 149
f 69 149 150
f 69 150 151
f 69 151 70
f 70 151 152
f 70 152 153
f 70 153 154
f 70 154 71
f 71 154 155
f 71 155 156
f 71 156 157
f 71 157 158
f 71 158 159
f 71 159 72
f 72 160 73
f 72 159 157
f 72 157 161
f 72 161 160
f 73 160 162
f 73 162 163
f 73 163 74
f 74 163 164
f 74 164 165
f 74 165 166
f 74 166 167
f 74 167 75
f 75 167 168
f 75 168 169
f 75 169 76
f 76 169 170
f 76 170 77
f 77 169 171
f 77 171 79
f 77 170 169
f 78 79 81
f 79 171 82
f 79 82 81
f 80 83 84
f 82 172 173
f 82 173 174
f 82 174 175
f 82 175 83
f 82 171 172
f 83 175 88
f 83 88 87
f 83 87 84
f 85 91 176
f 85 176 177
f 85 177 178
f 85 178 86
f 86 178 92
f 88 175 89
f 89 175 90
f 90 175 179
f 90 179 91
f 91 179 180
f 91 180 176
f 92 178 181
f 92 181 94
f 92 94 93
f 94 181 97
f 94 97 95
f 95 97 96
f 97 182 98
f 97 181 183
f 97 183 100
f 97 100 99
f 97 99 182
f 98 182 99
f 100 183 101
f 101 183 102
f 102 183 103
f 103 183 184
f 103 184 109
f 103 109 106
f 103 106 104
f 106 109 107
f 107 109 108
f 109 184 185
f 109 185 113
f 109 113 112
f 109 112 111
f 109 111 110
f 113 185 114
f 114 185 186
f 114 186 117
f 116 117 187
f 116 187 127
f 116 127 119
f 117 186 188
f 117 188 187
f 118 119 124
f 119 127 125
f 119 125 124
f 120 133 189
f 120 189 190
f 120 190 121
f 121 190 191
f 121 191 192
f 121 192 122
f 122 192 193
f 122 193 194
f 122 194 123
f 123 194 134
f 126 129 195
f 126 195 196
f 126 196 130
f 127 187 197
f 127 197 128
f 128 197 129
f 129 197 195
f 130 196 132
f 130 132 131
f 132 196 198
f 132 198 199
f 132 199 189
f 132 189 133
f 134 193 200
f 134 200 136
f 134 136 135
f 134 194 193
f 136 200 201
f 136 201 137
f 137 201 202
f 137 202 203
f 137 203 204
f 137 204 205
f 137 205 140
f 137 140 139
f 137 139 138
f 140 206 141
f 140 205 206
f 141 206 142
f 142 206 207
f 142 207 208
f 142 208 143
f 143 209 144
f 143 208 210
f 143 210 209
f 144 209 211
f 144 211 145
f 145 211 212
f 145 212 213
f 145 213 146
f 146 213 212
f 146 212 148
f 146 148 147
f 148 214 149
f 148 212 215
f 148 215 214
f 149 216 217
f 149 217 150
f 149 214 216
f 150 218 151
f 150 217 218
f 151 218 219
f 151 219 152
f 152 219 220
f 152 220 221
f 152 221 153
f 153 221 222
f 153 222 223
f 153 223 224
f 153 224 154
f 154 224 156
f 154 156 155
f 156 224 225
f 156 225 157
f 157 225 223
f 157 223 226
f 157 226 161
f 157 159 158
f 160 161 227
f 160 227 228
f 160 228 162
f 161 226 229
f 161 229 230
f 161 230 231
f 161 231 228
f 161 228 227
f 162 232 163
f 162 228 231
f 162 231 230
f 162 230 232
f 163 232 233
f 163 233 164
f 164 233 165
f 165 233 234
f 165 234 230
f 165 230 235
f 165 235 166
f 166 235 168
f 166 168 167
f 168 235 236
f 168 236 169
f 169 236 171
f 171 236 172
f 172 237 238
f 172 238 239
f 172 239 173
f 172 236 237
f 173 239 240
f 173 240 174
f 174 240 180
f 174 180 179
f 174 179 175
f 176 180 177
f 177 180 178
f 178 180 240
f 178 240 181
f 181 240 183
f 183 240 239
f 183 239 184
f 184 239 186
f 184 186 185
f 186 238 188
f 186 239 238
f 187 198 197
f 187 188 198
f 188 238 241
f 188 241 242
f 188 242 202
f 188 202 243
f 188 243 198
f 189 199 244
f 189 244 190
f 190 244 191
f 191 244 200
f 191 200 192
f 192 200 193
f 195 197 245
f 195 245 196
f 196 245 198
f 197 198 245
f 198 243 244
f 198 244 199
f 200 244 243
f 200 243 201
f 201 243 202
f 202 242 203
f 203 242 246
f 203 246 216
f 203 216 215
f 203 215 247
f 203 247 210
f 203 210 204
f 204 210 207
f 204 207 206
f 204 206 205
f 207 210 208
f 209 210 247
f 209 247 211
f 211 248 215
f 211 215 212
f 211 247 248
f 214 215 216
f 215 248 247
f 216 246 249
f 216 249 250
f 216 250 217
f 217 250 218
f 218 250 219
f 219 250 251
f 219 251 220
f 220 251 252
f 220 252 221
f 221 252 253
f 221 253 222
f 222 253 223
f 223 253 226
f 223 225 224
f 226 253 249
f 226 249 229
f 229 249 254
f 229 254 237
f 229 237 236
f 229 236 235
f 229 235 230
f 230 234 232
f 232 234 233
f 237 254 238
f 238 254 241
f 241 254 246
f 241 246 242
f 246 254 249
f 249 253 250
f 250 253 251
f 251 253 252
