v 0.487629 0.635153 -0.0114529
v 0.483525 0.657284 -0.0114529
v 0.346921 0.635153 -0.0114529
v 0.487225 0.635153 -0.0351172
v 0.481505 0.666894 -0.021106
v 0.48125 0.668485 -0.0114529
v 0.411811 0.68969 -0.0114529
v 0.337609 0.635153 -0.0287633
v 0.486757 0.635153 -0.0491692
v 0.483801 0.652855 -0.0351172
v 0.481037 0.666894 -0.0351172
v 0.476424 0.680488 -0.0114529
v 0.476424 0.680488 -0.021106
v 0.428182 0.694732 -0.0114529
v 0.414149 0.695257 -0.0351172
v 0.270444 0.706939 -0.329679
v 0.270444 0.703152 -0.318926
v 0.319473 0.635153 -0.0667239
v 0.483227 0.652855 -0.0491692
v 0.485587 0.635153 -0.0631804
v 0.482249 0.652855 -0.0632211
v 0.479166 0.665055 -0.0632211
v 0.476828 0.672746 -0.0591074
v 0.476105 0.679759 -0.0351172
v 0.467069 0.690244 -0.021106
v 0.467048 0.690244 -0.0114529
v 0.466771 0.690127 -0.0351172
v 0.442214 0.69525 -0.0114529
v 0.428182 0.69714 -0.0351172
v 0.417168 0.702386 -0.0938504
v 0.414149 0.698964 -0.0632211
v 0.414149 0.697366 -0.0491692
v 0.352364 0.701744 -0.17022
v 0.272124 0.709537 -0.343935
v 0.270444 0.706144 -0.372446
v 0.270572 0.635153 -0.202152
v 0.276737 0.635153 -0.178325
v 0.280118 0.635153 -0.167776
v 0.270444 0.635153 -0.427554
v 0.484397 0.635153 -0.073811
v 0.48074 0.652855 -0.0772731
v 0.476849 0.666011 -0.0772731
v 0.475786 0.67757 -0.0477436
v 0.466856 0.6797 -0.0912844
v 0.467749 0.682232 -0.0783728
v 0.471151 0.680919 -0.0632211
v 0.464028 0.688617 -0.0743812
v 0.464943 0.689325 -0.0632211
v 0.465984 0.68985 -0.0491692
v 0.456268 0.694703 -0.0491692
v 0.456268 0.694732 -0.0351172
v 0.456268 0.694279 -0.021106
v 0.456268 0.6939 -0.0114529
v 0.456268 0.694133 -0.0632211
v 0.442214 0.697227 -0.0351172
v 0.428182 0.701598 -0.0811018
v 0.428182 0.69992 -0.0632211
v 0.428182 0.698541 -0.0491692
v 0.414149 0.705925 -0.1334
v 0.414149 0.70459 -0.119388
v 0.400117 0.707509 -0.161503
v 0.403986 0.702401 -0.10831
v 0.400117 0.700066 -0.0912844
v 0.287836 0.709501 -0.343935
v 0.272124 0.708946 -0.357987
v 0.386063 0.708435 -0.189607
v 0.372073 0.709202 -0.21763
v 0.358041 0.709537 -0.245693
v 0.329955 0.709683 -0.287768
v 0.30189 0.708362 -0.343935
v 0.287836 0.707063 -0.357987
v 0.301167 0.704364 -0.35815
v 0.270444 0.701044 -0.385643
v 0.270444 0.656555 -0.419204
v 0.292896 0.635153 -0.41224
v 0.482037 0.635153 -0.0912844
v 0.479953 0.635153 -0.105784
v 0.478635 0.652753 -0.0907549
v 0.475892 0.663311 -0.0882703
v 0.470343 0.666894 -0.105336
v 0.463965 0.67522 -0.11503
v 0.46305 0.680802 -0.105336
v 0.462753 0.68726 -0.0875372
v 0.452377 0.690872 -0.119388
v 0.433497 0.70108 -0.147492
v 0.435411 0.702065 -0.109369
v 0.435517 0.702102 -0.0943391
v 0.434178 0.70154 -0.1334
v 0.414149 0.706888 -0.147492
v 0.400117 0.708618 -0.175515
v 0.30189 0.709508 -0.329924
v 0.386063 0.709231 -0.203578
v 0.372073 0.709501 -0.231641
v 0.343987 0.709683 -0.273756
v 0.315922 0.70837 -0.329924
v 0.316687 0.704926 -0.344668
v 0.312499 0.703269 -0.353588
v 0.270444 0.692156 -0.397006
v 0.305376 0.700277 -0.362915
v 0.270444 0.666646 -0.414439
v 0.321535 0.635153 -0.392078
v 0.305334 0.635153 -0.403605
v 0.477104 0.64458 -0.111079
v 0.477891 0.648003 -0.101711
v 0.477593 0.635153 -0.120121
v 0.467366 0.635153 -0.175678
v 0.462731 0.63859 -0.191155
v 0.462795 0.644631 -0.180484
v 0.46388 0.647105 -0.171116
v 0.463965 0.661225 -0.143175
v 0.465155 0.663654 -0.1334
v 0.462795 0.672907 -0.124398
v 0.449231 0.681043 -0.161503
v 0.44855 0.686764 -0.151687
v 0.449698 0.688508 -0.14236
v 0.450761 0.689587 -0.1334
v 0.440301 0.693251 -0.161503
v 0.429054 0.70224 -0.161503
v 0.426481 0.704393 -0.147492
v 0.414149 0.707443 -0.161503
v 0.400117 0.708574 -0.189607
v 0.315922 0.709508 -0.315872
v 0.372073 0.708793 -0.245693
v 0.358041 0.709501 -0.259664
v 0.386063 0.708793 -0.21763
v 0.329955 0.709501 -0.301779
v 0.33072 0.704926 -0.330657
v 0.329955 0.708348 -0.315872
v 0.326553 0.703269 -0.340554
v 0.321854 0.701292 -0.349841
v 0.316943 0.696104 -0.358598
v 0.312031 0.690916 -0.367314
v 0.270444 0.684706 -0.403849
v 0.270444 0.677022 -0.408981
v 0.325851 0.649827 -0.381244
v 0.333526 0.638845 -0.380959
v 0.351684 0.635153 -0.36654
v 0.47013 0.635153 -0.161381
v 0.460478 0.636525 -0.203863
v 0.380599 0.635153 -0.337418
v 0.409493 0.635839 -0.298357
v 0.449953 0.636437 -0.231763
v 0.456502 0.652855 -0.189607
v 0.460286 0.652213 -0.175718
v 0.461668 0.670674 -0.1334
v 0.447934 0.676541 -0.17523
v 0.451102 0.663436 -0.189607
v 0.438068 0.691193 -0.175515
v 0.430797 0.698212 -0.175515
v 0.423781 0.703459 -0.175515
v 0.414149 0.707063 -0.175515
v 0.400117 0.707312 -0.203578
v 0.372073 0.707261 -0.259664
v 0.358041 0.708567 -0.273756
v 0.386063 0.707319 -0.231641
v 0.343987 0.709143 -0.287768
v 0.344497 0.704561 -0.315912
v 0.34016 0.703262 -0.326502
v 0.343987 0.707552 -0.301779
v 0.335908 0.701284 -0.33587
v 0.326298 0.69193 -0.354321
v 0.321386 0.685954 -0.363648
v 0.322407 0.659181 -0.378678
v 0.324746 0.676599 -0.366581
v 0.338417 0.65654 -0.366377
v 0.343881 0.638619 -0.371998
v 0.349579 0.6435 -0.363567
v 0.366163 0.635153 -0.352081
v 0.456034 0.637524 -0.216041
v 0.452441 0.653081 -0.203211
v 0.363632 0.643493 -0.349474
v 0.37758 0.643406 -0.3353
v 0.385744 0.63832 -0.329638
v 0.393143 0.637787 -0.320841
v 0.394249 0.647572 -0.310577
v 0.406729 0.645193 -0.294162
v 0.420315 0.638867 -0.279459
v 0.434943 0.637656 -0.25832
v 0.443065 0.637488 -0.244308
v 0.448912 0.64531 -0.223902
v 0.447062 0.670455 -0.189607
v 0.449868 0.660933 -0.198202
v 0.43658 0.686567 -0.188426
v 0.424993 0.69193 -0.203578
v 0.428118 0.695089 -0.189526
v 0.419082 0.702364 -0.190666
v 0.410322 0.70359 -0.203578
v 0.400691 0.704707 -0.217548
v 0.386637 0.704707 -0.245612
v 0.372562 0.704524 -0.273634
v 0.358041 0.706319 -0.287768
v 0.366311 0.702525 -0.291352
v 0.352428 0.702685 -0.31131
v 0.349515 0.700912 -0.320678
v 0.344923 0.696417 -0.331023
v 0.34033 0.69193 -0.340269
v 0.335653 0.685954 -0.349637
v 0.330188 0.681276 -0.358231
v 0.334101 0.669594 -0.362101
v 0.352449 0.65654 -0.352366
v 0.346623 0.652855 -0.360593
v 0.450931 0.648557 -0.214575
v 0.360656 0.652855 -0.346501
v 0.362144 0.669448 -0.333671
v 0.381683 0.649871 -0.325891
v 0.366375 0.656474 -0.338273
v 0.378664 0.659225 -0.322307
v 0.376496 0.667938 -0.316931
v 0.422335 0.647572 -0.268421
v 0.434794 0.645186 -0.251925
v 0.437218 0.648856 -0.242598
v 0.436942 0.655737 -0.234044
v 0.433646 0.664158 -0.229401
v 0.435708 0.668835 -0.218526
v 0.44619 0.653081 -0.218607
v 0.447934 0.657919 -0.20761
v 0.444383 0.666128 -0.203211
v 0.436304 0.675475 -0.207407
v 0.432009 0.683692 -0.203578
v 0.422633 0.689478 -0.21372
v 0.411194 0.691944 -0.231641
v 0.391697 0.701095 -0.250214
v 0.40809 0.702569 -0.212824
v 0.39629 0.70359 -0.231641
v 0.380004 0.702569 -0.26895
v 0.382236 0.70359 -0.259664
v 0.377559 0.70089 -0.278318
v 0.381768 0.691536 -0.284835
v 0.366205 0.689631 -0.310577
v 0.353746 0.69155 -0.326176
v 0.349685 0.685954 -0.335504
v 0.352789 0.676592 -0.338721
v 0.356701 0.664844 -0.342591
v 0.366205 0.675636 -0.324343
v 0.363101 0.684998 -0.319945
v 0.407197 0.665946 -0.27282
v 0.422292 0.661597 -0.25445
v 0.419188 0.670951 -0.248911
v 0.422611 0.675884 -0.235551
v 0.427969 0.680642 -0.217141
v 0.420358 0.687004 -0.222966
v 0.408664 0.689478 -0.241702
v 0.394057 0.702569 -0.240887
v 0.396864 0.691798 -0.259664
v 0.394249 0.689281 -0.268421
v 0.378686 0.68734 -0.294162
v 0.3941 0.68278 -0.275589
v 0.406729 0.673301 -0.26614
v 0.409833 0.677584 -0.256731
v 0.406325 0.686939 -0.25111
v 0.41821 0.684224 -0.231641
f 1 2 6
f 1 6 12
f 1 12 26
f 1 26 53
f 1 53 28
f 1 28 14
f 1 14 7
f 1 7 3
f 1 3 8
f 1 8 18
f 1 18 38
f 1 38 37
f 1 37 36
f 1 36 39
f 1 39 75
f 1 75 102
f 1 102 101
f 1 101 137
f 1 137 168
f 1 168 140
f 1 140 106
f 1 106 138
f 1 138 105
f 1 105 77
f 1 77 76
f 1 76 40
f 1 40 20
f 1 20 9
f 1 9 4
f 1 4 2
f 2 4 5
f 2 5 6
f 3 7 8
f 4 9 10
f 4 10 5
f 5 10 11
f 5 11 6
f 6 11 13
f 6 13 12
f 7 14 15
f 7 15 16
f 7 16 17
f 7 17 8
f 8 17 18
f 9 19 11
f 9 11 10
f 9 20 21
f 9 21 19
f 11 19 21
f 11 21 22
f 11 22 23
f 11 23 24
f 11 24 13
f 12 13 25
f 12 25 26
f 13 24 27
f 13 27 25
f 14 28 29
f 14 29 30
f 14 30 31
f 14 31 32
f 14 32 15
f 15 32 33
f 15 33 16
f 16 34 35
f 16 35 73
f 16 73 98
f 16 98 133
f 16 133 134
f 16 134 100
f 16 100 74
f 16 74 39
f 16 39 17
f 16 33 34
f 17 36 37
f 17 37 38
f 17 38 18
f 17 39 36
f 20 40 41
f 20 41 21
f 21 41 22
f 22 41 42
f 22 42 23
f 23 43 24
f 23 42 44
f 23 44 45
f 23 45 46
f 23 46 43
f 24 43 46
f 24 46 47
f 24 47 48
f 24 48 49
f 24 49 27
f 25 27 50
f 25 50 51
f 25 51 26
f 26 51 52
f 26 52 53
f 27 49 54
f 27 54 50
f 28 53 55
f 28 55 56
f 28 56 57
f 28 57 58
f 28 58 29
f 29 58 30
f 30 58 57
f 30 57 56
f 30 56 59
f 30 59 60
f 30 60 61
f 30 61 31
f 31 61 62
f 31 62 63
f 31 63 32
f 32 63 34
f 32 34 33
f 34 64 65
f 34 65 35
f 34 63 62
f 34 62 61
f 34 61 66
f 34 66 67
f 34 67 68
f 34 68 69
f 34 69 64
f 35 65 70
f 35 70 71
f 35 71 72
f 35 72 73
f 39 74 75
f 40 76 41
f 41 76 77
f 41 77 78
f 41 78 42
f 42 78 79
f 42 79 44
f 44 79 80
f 44 80 81
f 44 81 82
f 44 82 83
f 44 83 45
f 45 83 47
f 45 47 46
f 47 83 84
f 47 84 85
f 47 85 48
f 48 85 49
f 49 85 54
f 50 54 86
f 50 86 87
f 50 87 51
f 51 87 52
f 52 87 53
f 53 87 55
f 54 85 88
f 54 88 86
f 55 87 56
f 56 87 89
f 56 89 59
f 59 89 90
f 59 90 61
f 59 61 60
f 61 90 66
f 64 69 91
f 64 91 70
f 64 70 65
f 66 90 67
f 67 90 92
f 67 92 68
f 68 93 94
f 68 94 69
f 68 92 93
f 69 94 91
f 70 91 95
f 70 95 96
f 70 96 97
f 70 97 72
f 70 72 71
f 72 97 73
f 73 97 99
f 73 99 98
f 74 100 101
f 74 101 102
f 74 102 75
f 77 103 104
f 77 104 78
f 77 105 103
f 78 104 103
f 78 103 106
f 78 106 79
f 79 106 107
f 79 107 108
f 79 108 109
f 79 109 80
f 80 109 110
f 80 110 111
f 80 111 81
f 81 111 110
f 81 110 112
f 81 112 113
f 81 113 114
f 81 114 82
f 82 114 115
f 82 115 83
f 83 115 116
f 83 116 84
f 84 116 117
f 84 117 118
f 84 118 85
f 85 118 119
f 85 119 88
f 86 88 119
f 86 119 87
f 87 119 120
f 87 120 89
f 89 120 90
f 90 120 121
f 90 121 92
f 91 94 122
f 91 122 95
f 92 121 93
f 93 123 124
f 93 124 94
f 93 121 125
f 93 125 123
f 94 126 122
f 94 124 126
f 95 127 96
f 95 122 126
f 95 126 128
f 95 128 127
f 96 127 129
f 96 129 97
f 97 129 130
f 97 130 99
f 98 99 130
f 98 130 131
f 98 131 132
f 98 132 133
f 100 134 135
f 100 135 101
f 101 135 136
f 101 136 137
f 103 105 138
f 103 138 106
f 106 139 107
f 106 140 141
f 106 141 142
f 106 142 139
f 107 139 108
f 108 139 143
f 108 143 144
f 108 144 110
f 108 110 109
f 110 145 112
f 110 144 143
f 110 143 145
f 112 145 113
f 113 146 114
f 113 145 147
f 113 147 146
f 114 146 148
f 114 148 117
f 114 117 115
f 115 117 116
f 117 148 149
f 117 149 118
f 118 149 150
f 118 150 119
f 119 150 151
f 119 151 120
f 120 151 121
f 121 152 125
f 121 151 152
f 123 153 154
f 123 154 124
f 123 125 152
f 123 152 155
f 123 155 153
f 124 154 156
f 124 156 126
f 126 156 128
f 127 128 157
f 127 157 158
f 127 158 129
f 128 156 154
f 128 154 159
f 128 159 157
f 129 158 160
f 129 160 130
f 130 160 161
f 130 161 131
f 131 161 132
f 132 161 162
f 132 162 133
f 133 162 134
f 134 163 135
f 134 162 164
f 134 164 163
f 135 163 164
f 135 164 165
f 135 165 136
f 136 165 166
f 136 166 137
f 137 166 167
f 137 167 168
f 139 169 170
f 139 170 143
f 139 142 169
f 140 168 171
f 140 171 172
f 140 172 173
f 140 173 174
f 140 174 141
f 141 174 175
f 141 175 176
f 141 176 177
f 141 177 178
f 141 178 142
f 142 178 179
f 142 179 180
f 142 180 169
f 143 170 147
f 143 147 145
f 146 147 181
f 146 181 148
f 147 170 182
f 147 182 181
f 148 181 183
f 148 183 184
f 148 184 185
f 148 185 149
f 149 185 186
f 149 186 150
f 150 186 187
f 150 187 151
f 151 187 188
f 151 188 152
f 152 188 155
f 153 155 189
f 153 189 190
f 153 190 191
f 153 191 154
f 154 191 159
f 155 188 189
f 157 159 191
f 157 191 190
f 157 190 192
f 157 192 193
f 157 193 158
f 158 193 194
f 158 194 160
f 160 194 195
f 160 195 196
f 160 196 161
f 161 196 197
f 161 197 162
f 162 197 198
f 162 198 164
f 164 198 199
f 164 199 165
f 165 199 200
f 165 200 201
f 165 201 167
f 165 167 166
f 167 201 171
f 167 171 168
f 169 202 170
f 169 180 202
f 170 202 182
f 171 203 172
f 171 201 203
f 172 204 205
f 172 205 173
f 172 203 206
f 172 206 204
f 173 205 174
f 174 205 207
f 174 207 175
f 175 207 208
f 175 208 209
f 175 209 176
f 176 209 210
f 176 210 177
f 177 210 178
f 178 210 179
f 179 210 180
f 180 210 211
f 180 211 212
f 180 212 213
f 180 213 214
f 180 214 215
f 180 215 216
f 180 216 202
f 181 182 217
f 181 217 218
f 181 218 183
f 182 202 216
f 182 216 217
f 183 218 219
f 183 219 220
f 183 220 184
f 184 186 185
f 184 220 221
f 184 221 222
f 184 222 186
f 186 222 223
f 186 223 187
f 187 223 243
f 187 243 224
f 187 224 188
f 188 224 189
f 189 224 225
f 189 225 226
f 189 226 190
f 190 225 192
f 190 226 225
f 192 225 227
f 192 227 194
f 192 194 193
f 194 227 228
f 194 228 229
f 194 229 230
f 194 230 195
f 195 230 196
f 196 230 231
f 196 231 197
f 197 231 232
f 197 232 198
f 198 232 199
f 199 232 200
f 200 232 233
f 200 233 203
f 200 203 201
f 203 233 206
f 204 206 231
f 204 231 234
f 204 234 205
f 205 234 207
f 206 233 232
f 206 232 231
f 207 234 235
f 207 235 208
f 208 235 236
f 208 236 209
f 209 236 237
f 209 237 210
f 210 237 238
f 210 238 211
f 211 238 212
f 212 238 213
f 213 238 239
f 213 239 214
f 214 218 215
f 214 239 218
f 215 218 216
f 216 218 217
f 218 239 240
f 218 240 219
f 219 240 241
f 219 241 220
f 220 241 242
f 220 242 221
f 221 242 227
f 221 227 222
f 222 243 223
f 222 227 225
f 222 225 243
f 224 243 225
f 227 242 244
f 227 244 245
f 227 245 228
f 228 245 229
f 229 246 235
f 229 235 230
f 229 245 246
f 230 234 231
f 230 235 234
f 235 246 247
f 235 247 248
f 235 248 236
f 236 248 237
f 237 248 249
f 237 249 238
f 238 249 250
f 238 250 239
f 239 251 241
f 239 241 240
f 239 250 251
f 241 251 250
f 241 250 242
f 242 250 244
f 244 250 245
f 245 247 246
f 245 250 249
f 245 249 248
f 245 248 247
