v -0.379279 0.418993 0.36588
v -0.379279 0.415395 0.299179
v -0.381051 0.417794 0.36588
v -0.379279 0.28289 0.36588
v -0.379279 0.414733 0.290923
v -0.402983 0.397902 0.36588
v -0.39773 0.402947 0.36588
v -0.394154 0.406338 0.36588
v -0.384865 0.414733 0.36588
v -0.381273 0.417628 0.36588
v -0.379279 0.282849 0.360665
v -0.468875 -0.00350103 0.36588
v -0.379279 0.41403 0.283825
v -0.415358 0.378712 0.291309
v -0.40417 0.391864 0.31137
v -0.406607 0.394386 0.36588
v -0.379279 0.282849 0.119283
v -0.540052 -0.00350103 0.36588
v -0.468875 -0.00350103 0.119283
v -0.379279 0.413369 0.277501
v -0.414962 0.378299 0.283174
v -0.415627 0.379043 0.299179
v -0.410136 0.39054 0.36588
v -0.427368 0.354064 0.171354
v -0.427717 0.354436 0.17949
v -0.435201 0.346909 0.189363
v -0.439775 0.342071 0.193467
v -0.379279 0.396537 0.119283
v -0.540274 -0.000440682 0.36588
v -0.537663 -0.00350103 0.119283
v -0.379279 0.405222 0.199985
v -0.379485 0.403898 0.189291
v -0.414535 0.377844 0.274749
v -0.427036 0.353733 0.16486
v -0.417589 0.382021 0.36588
v -0.414677 0.385453 0.36588
v -0.440044 0.342402 0.201506
v -0.430597 0.345214 0.119283
v -0.436705 0.33868 0.119283
v -0.437116 0.339093 0.128239
v -0.438129 0.34021 0.152645
v -0.443019 0.333551 0.140454
v -0.449696 0.324039 0.119283
v -0.449127 0.326604 0.140454
v -0.453985 0.319945 0.128239
v -0.454364 0.320524 0.140454
v -0.413997 0.361922 0.119283
v -0.379279 0.403691 0.185525
v -0.54029 0.000965431 0.36588
v -0.537773 0.018335 0.119283
v -0.540369 0.0117594 0.36588
v -0.540416 0.018335 0.36588
v -0.540748 0.0671766 0.36588
v -0.540828 0.0793766 0.36588
v -0.540891 0.0916181 0.36588
v -0.424615 0.351335 0.119283
v -0.415168 0.366305 0.171306
v -0.420928 0.359854 0.16486
v -0.420754 0.377596 0.36588
v -0.464666 0.306174 0.119283
v -0.442164 0.332559 0.119283
v -0.453636 0.319532 0.119283
v -0.458131 0.314279 0.119283
v -0.459745 0.312294 0.119283
v -0.537789 0.0305351 0.119283
v -0.540938 0.103818 0.36588
v -0.440708 0.349143 0.36588
v -0.468622 0.299143 0.119283
v -0.477404 0.295421 0.36588
v -0.47128 0.304478 0.36588
v -0.443113 0.345669 0.36588
v -0.537789 0.119285 0.119283
v -0.540859 0.116018 0.36588
v -0.537773 0.12826 0.119283
v -0.474081 0.288845 0.119283
v -0.482057 0.286984 0.36588
v -0.540606 0.12826 0.36588
v -0.53771 0.130079 0.119283
v -0.487263 0.263039 0.119283
v -0.488355 0.27495 0.36588
v -0.539372 0.138805 0.36588
v -0.53752 0.135083 0.119283
v -0.489541 0.258573 0.119283
v -0.49201 0.26763 0.36588
v -0.492564 0.252576 0.119283
v -0.499527 0.23868 0.119283
v -0.505919 0.225901 0.119283
v -0.538675 0.141907 0.36588
v -0.533928 0.158077 0.36588
v -0.535574 0.141204 0.119283
v -0.502217 0.247158 0.36588
v -0.509606 0.217465 0.119283
v -0.506473 0.237936 0.36588
v -0.504068 0.24323 0.36588
v -0.531681 0.164942 0.36588
v -0.530716 0.155927 0.119283
v -0.51092 0.214446 0.119283
v -0.509227 0.23103 0.36588
v -0.519465 0.201584 0.36588
v -0.52388 0.176357 0.119283
v -0.513135 0.208366 0.119283
v -0.514528 0.215893 0.36588
v -0.514828 0.203362 0.119283
v -0.518452 0.192568 0.119283
f 1 2 3
f 1 3 10
f 1 10 9
f 1 9 8
f 1 8 7
f 1 7 6
f 1 6 16
f 1 16 23
f 1 23 36
f 1 36 35
f 1 35 59
f 1 59 67
f 1 67 71
f 1 71 70
f 1 70 69
f 1 69 76
f 1 76 80
f 1 80 84
f 1 84 91
f 1 91 94
f 1 94 93
f 1 93 98
f 1 98 102
f 1 102 99
f 1 99 95
f 1 95 89
f 1 89 88
f 1 88 81
f 1 81 77
f 1 77 73
f 1 73 66
f 1 66 55
f 1 55 54
f 1 54 53
f 1 53 52
f 1 52 51
f 1 51 49
f 1 49 29
f 1 29 18
f 1 18 12
f 1 12 4
f 1 4 11
f 1 11 17
f 1 17 28
f 1 28 48
f 1 48 31
f 1 31 20
f 1 20 13
f 1 13 5
f 1 5 2
f 2 5 6
f 2 6 7
f 2 7 8
f 2 8 9
f 2 9 10
f 2 10 3
f 4 12 11
f 5 13 14
f 5 14 15
f 5 15 16
f 5 16 6
f 11 12 19
f 11 19 17
f 12 18 30
f 12 30 19
f 13 20 21
f 13 21 14
f 14 22 23
f 14 23 16
f 14 16 15
f 14 21 24
f 14 24 25
f 14 25 26
f 14 26 27
f 14 27 22
f 17 19 30
f 17 30 50
f 17 50 65
f 17 65 72
f 17 72 74
f 17 74 78
f 17 78 82
f 17 82 90
f 17 90 96
f 17 96 100
f 17 100 104
f 17 104 103
f 17 103 101
f 17 101 97
f 17 97 92
f 17 92 87
f 17 87 86
f 17 86 85
f 17 85 83
f 17 83 79
f 17 79 75
f 17 75 68
f 17 68 60
f 17 60 64
f 17 64 63
f 17 63 62
f 17 62 43
f 17 43 61
f 17 61 39
f 17 39 38
f 17 38 56
f 17 56 47
f 17 47 28
f 18 29 30
f 20 31 32
f 20 32 33
f 20 33 21
f 21 33 34
f 21 34 24
f 22 35 36
f 22 36 23
f 22 27 37
f 22 37 35
f 24 34 38
f 24 38 39
f 24 39 40
f 24 40 25
f 25 40 26
f 26 40 41
f 26 41 42
f 26 42 43
f 26 43 27
f 27 43 44
f 27 44 45
f 27 45 46
f 27 46 37
f 28 47 32
f 28 32 48
f 29 49 30
f 30 49 51
f 30 51 52
f 30 52 53
f 30 53 54
f 30 54 55
f 30 55 50
f 31 48 32
f 32 47 56
f 32 56 57
f 32 57 33
f 33 57 34
f 34 56 38
f 34 57 58
f 34 58 56
f 35 37 46
f 35 46 60
f 35 60 59
f 39 61 40
f 40 61 41
f 41 61 42
f 42 61 43
f 43 62 45
f 43 45 44
f 45 62 63
f 45 63 46
f 46 63 64
f 46 64 60
f 50 55 66
f 50 66 65
f 56 58 57
f 59 60 67
f 60 68 69
f 60 69 70
f 60 70 71
f 60 71 67
f 65 66 72
f 66 73 74
f 66 74 72
f 68 75 76
f 68 76 69
f 73 77 74
f 74 77 78
f 75 79 80
f 75 80 76
f 77 81 82
f 77 82 78
f 79 83 80
f 80 83 85
f 80 85 86
f 80 86 87
f 80 87 84
f 81 88 82
f 82 88 89
f 82 89 90
f 84 87 91
f 87 92 93
f 87 93 94
f 87 94 91
f 89 95 90
f 90 95 96
f 92 97 93
f 93 97 98
f 95 99 96
f 96 99 100
f 97 101 98
f 98 101 102
f 99 102 101
f 99 101 103
f 99 103 104
f 99 104 100
