v 0.437462 -0.176614 0.119233
v 0.423251 -0.175241 -0.345957
v 0.521835 -0.176614 0.119233
v 0.437462 -0.176614 0.11984
v 0.457401 -0.0059581 -0.345957
v 0.514326 -0.175241 -0.345957
v 0.437978 -0.176614 0.139074
v 0.462198 -0.0549637 0.335799
v 0.465583 -0.0339347 0.343493
v 0.470223 -0.00350103 0.343493
v 0.514606 -0.175241 -0.335766
v 0.515233 -0.175241 -0.311336
v 0.515536 -0.175241 -0.299121
v 0.515827 -0.175241 -0.286905
v 0.516321 -0.175241 -0.262475
v 0.516545 -0.175241 -0.25026
v 0.517172 -0.175241 -0.213614
v 0.517576 -0.175241 -0.189251
v 0.522776 -0.176614 0.176732
v 0.524603 -0.0059581 -0.345957
v 0.470144 -0.00350103 0.338363
v 0.469976 -0.00350103 0.326148
v 0.467948 -0.00350103 0.119233
v 0.517912 -0.164837 -0.345957
v 0.519369 -0.164837 -0.299121
v 0.524592 -0.157313 -0.213614
v 0.52476 -0.157838 -0.201399
v 0.443425 -0.176614 0.311369
v 0.444467 -0.176614 0.343493
v 0.463195 -0.0499649 0.343493
v 0.464608 -0.0404586 0.343493
v 0.537739 -0.00350103 0.343493
v 0.524883 -0.158211 -0.189251
v 0.524984 -0.158482 -0.177036
v 0.528717 -0.152619 -0.103813
v 0.517744 -0.175241 -0.178791
v 0.525466 -0.171852 0.22593
v 0.52346 -0.176614 0.22593
v 0.517968 -0.175241 -0.164821
v 0.518136 -0.175241 -0.154226
v 0.529109 -0.152619 -0.0793148
v 0.530263 -0.152619 -0.00609114
v 0.530644 -0.152619 0.0182717
v 0.537335 -0.134437 -0.0517125
v 0.537627 -0.00599199 -0.345957
v 0.537638 -0.00350103 0.119233
v 0.521387 -0.154703 -0.345957
v 0.531911 -0.140419 -0.164821
v 0.532292 -0.140419 -0.152538
v 0.532662 -0.140419 -0.140391
v 0.53302 -0.140419 -0.128175
v 0.5242 -0.176614 0.343493
v 0.537739 -0.00611061 0.343493
v 0.537638 -0.0183281 -0.345957
v 0.535228 -0.139266 -0.0554243
v 0.525534 -0.172022 0.238078
v 0.523617 -0.176614 0.238078
v 0.535665 -0.127117 -0.189926
v 0.537369 -0.122338 -0.186349
v 0.537436 -0.122558 -0.177036
v 0.537358 -0.134505 -0.0427367
v 0.524984 -0.144096 -0.345957
v 0.534948 -0.115984 -0.335766
v 0.533054 -0.128201 -0.262475
v 0.534948 -0.128201 -0.201399
v 0.524827 -0.174665 0.343493
v 0.524211 -0.176614 0.339578
v 0.537627 -0.116001 0.343493
v 0.537638 -0.115984 -0.0305215
v 0.537638 -0.115984 -0.152538
v 0.537638 -0.103766 -0.286905
v 0.537638 -0.0915824 -0.335766
v 0.537638 -0.0814661 -0.345957
v 0.525545 -0.172089 0.250293
v 0.5242 -0.176614 0.323584
v 0.524133 -0.176614 0.311369
v 0.523718 -0.176614 0.250293
v 0.535665 -0.114916 -0.324226
v 0.537369 -0.110137 -0.320649
v 0.537436 -0.110358 -0.311336
v 0.537604 -0.115984 -0.177036
v 0.537459 -0.122711 -0.164821
v 0.537537 -0.128201 -0.0427367
v 0.537358 -0.134522 -0.0305215
v 0.52791 -0.164854 0.250293
v 0.527898 -0.164854 0.238078
v 0.530196 -0.128201 -0.345957
v 0.534074 -0.115984 -0.345957
v 0.537156 -0.107748 -0.335766
v 0.537268 -0.109273 -0.328815
v 0.525545 -0.172394 0.343493
v 0.524211 -0.176614 0.335799
v 0.525545 -0.172394 0.335799
v 0.537526 -0.128201 0.343493
v 0.537537 -0.128201 0.0182717
v 0.537627 -0.115984 -0.164821
v 0.537627 -0.103766 -0.299121
v 0.537604 -0.103766 -0.311336
v 0.537459 -0.101631 -0.335766
v 0.537492 -0.0935311 -0.345957
v 0.537515 -0.091701 -0.345957
v 0.537492 -0.129896 0.119233
v 0.537358 -0.134539 0.0182717
v 0.535979 -0.139029 0.119233
v 0.535464 -0.140656 0.067065
v 0.52791 -0.164854 0.343493
v 0.536719 -0.10441 -0.345957
v 0.537358 -0.0987503 -0.345957
v 0.537403 -0.0995128 -0.344202
v 0.537358 -0.134539 0.343493
v 0.537436 -0.0961576 -0.345957
v 0.537358 -0.134556 0.22593
v 0.537358 -0.134556 0.119233
v 0.535464 -0.140656 0.262508
v 0.536652 -0.136809 0.343493
f 1 2 6
f 1 6 3
f 1 3 19
f 1 19 38
f 1 38 57
f 1 57 77
f 1 77 76
f 1 76 75
f 1 75 92
f 1 92 67
f 1 67 52
f 1 52 29
f 1 29 28
f 1 28 7
f 1 7 4
f 1 4 2
f 2 5 20
f 2 20 45
f 2 45 54
f 2 54 73
f 2 73 101
f 2 101 100
f 2 100 111
f 2 111 108
f 2 108 107
f 2 107 88
f 2 88 87
f 2 87 62
f 2 62 47
f 2 47 24
f 2 24 6
f 2 4 7
f 2 7 8
f 2 8 9
f 2 9 10
f 2 10 5
f 3 6 11
f 3 11 12
f 3 12 13
f 3 13 14
f 3 14 15
f 3 15 16
f 3 16 17
f 3 17 18
f 3 18 19
f 5 10 21
f 5 21 22
f 5 22 23
f 5 23 46
f 5 46 20
f 6 24 25
f 6 25 26
f 6 26 27
f 6 27 11
f 7 28 8
f 8 29 30
f 8 30 31
f 8 31 9
f 8 28 29
f 9 31 30
f 9 30 29
f 9 29 52
f 9 52 66
f 9 66 91
f 9 91 106
f 9 106 115
f 9 115 110
f 9 110 94
f 9 94 68
f 9 68 53
f 9 53 32
f 9 32 10
f 10 32 46
f 10 46 23
f 10 23 22
f 10 22 21
f 11 27 12
f 12 27 13
f 13 27 14
f 14 27 33
f 14 33 15
f 15 33 16
f 16 33 34
f 16 34 17
f 17 34 18
f 18 34 35
f 18 35 36
f 18 36 19
f 19 37 38
f 19 36 39
f 19 39 40
f 19 40 41
f 19 41 42
f 19 42 43
f 19 43 44
f 19 44 37
f 20 46 45
f 24 47 25
f 25 47 48
f 25 48 49
f 25 49 26
f 26 49 50
f 26 50 51
f 26 51 27
f 27 51 44
f 27 44 33
f 32 53 73
f 32 73 54
f 32 54 45
f 32 45 46
f 33 44 34
f 34 44 55
f 34 55 35
f 35 55 41
f 35 41 39
f 35 39 36
f 37 56 57
f 37 57 38
f 37 44 56
f 39 41 40
f 41 55 42
f 42 55 43
f 43 55 44
f 44 51 50
f 44 50 58
f 44 58 59
f 44 59 60
f 44 60 61
f 44 61 56
f 47 62 63
f 47 63 64
f 47 64 48
f 48 64 49
f 49 64 65
f 49 65 58
f 49 58 50
f 52 67 66
f 53 68 69
f 53 69 70
f 53 70 71
f 53 71 72
f 53 72 73
f 56 74 75
f 56 75 76
f 56 76 77
f 56 77 57
f 56 61 74
f 58 65 78
f 58 78 79
f 58 79 59
f 59 79 80
f 59 80 60
f 60 80 81
f 60 81 82
f 60 82 61
f 61 82 83
f 61 83 84
f 61 84 85
f 61 85 86
f 61 86 75
f 61 75 74
f 62 87 63
f 63 87 88
f 63 88 89
f 63 89 90
f 63 90 79
f 63 79 78
f 63 78 65
f 63 65 64
f 66 67 92
f 66 92 93
f 66 93 91
f 68 94 95
f 68 95 69
f 69 95 83
f 69 83 70
f 70 83 96
f 70 96 71
f 71 97 72
f 71 96 97
f 72 97 98
f 72 98 99
f 72 99 100
f 72 100 101
f 72 101 73
f 75 86 85
f 75 85 92
f 79 90 99
f 79 99 98
f 79 98 80
f 80 98 81
f 81 96 82
f 81 98 97
f 81 97 96
f 82 96 83
f 83 95 102
f 83 102 84
f 84 102 103
f 84 103 104
f 84 104 105
f 84 105 85
f 85 104 106
f 85 106 91
f 85 91 93
f 85 93 92
f 85 105 104
f 88 107 89
f 89 107 108
f 89 108 109
f 89 109 90
f 90 109 99
f 94 110 102
f 94 102 95
f 99 109 100
f 100 109 111
f 102 110 112
f 102 112 113
f 102 113 103
f 103 113 104
f 104 113 112
f 104 112 110
f 104 110 114
f 104 114 106
f 106 114 115
f 108 111 109
f 110 115 114
