v 0.461516 0.00631956 -0.215705
v 0.420406 0.115991 -0.215705
v 0.461516 0.202705 -0.215705
v 0.461516 0.0064157 -0.213672
v 0.416278 0.127008 -0.215705
v 0.390125 0.202705 -0.100619
v 0.38792 0.202705 -0.215705
v 0.461516 0.202705 0.119259
v 0.390543 0.202705 -0.0793718
v 0.390377 0.202705 -0.0877328
v 0.461516 0.0149525 -0.0549446
v 0.393244 0.202705 0.0549284
v 0.392798 0.202705 0.0327964
v 0.391033 0.202705 -0.0549446
v 0.390788 0.202705 -0.0671418
v 0.389829 0.202705 -0.115996
v 0.389361 0.202705 -0.140423
v 0.406588 0.202705 0.119259
v 0.461516 0.118875 0.119259
v 0.461516 0.0203938 0.0442395
v 0.461516 0.0209899 0.0549284
v 0.45161 0.0483116 0.0622402
v 0.414959 0.145909 0.0623713
v 0.393432 0.202705 0.0566662
v 0.394952 0.202705 0.0671584
v 0.402229 0.181152 0.0646009
v 0.438879 0.0835549 0.0645025
v 0.461516 0.0258928 0.0671584
v 0.461516 0.0305457 0.0707323
v 0.427395 0.170942 0.119259
f 1 2 5
f 1 5 7
f 1 7 3
f 1 3 8
f 1 8 19
f 1 19 29
f 1 29 28
f 1 28 21
f 1 21 20
f 1 20 11
f 1 11 4
f 1 4 2
f 2 4 6
f 2 6 5
f 3 7 17
f 3 17 16
f 3 16 6
f 3 6 10
f 3 10 9
f 3 9 15
f 3 15 14
f 3 14 13
f 3 13 12
f 3 12 24
f 3 24 25
f 3 25 18
f 3 18 8
f 4 9 10
f 4 10 6
f 4 11 12
f 4 12 13
f 4 13 14
f 4 14 15
f 4 15 9
f 5 6 16
f 5 16 17
f 5 17 7
f 8 18 30
f 8 30 19
f 11 20 12
f 12 20 21
f 12 21 22
f 12 22 23
f 12 23 24
f 18 25 26
f 18 26 23
f 18 23 27
f 18 27 22
f 18 22 28
f 18 28 29
f 18 29 30
f 19 30 29
f 21 28 22
f 22 27 23
f 23 26 24
f 24 26 25
