v -0.617288 -0.00350103 0.433515
v -0.617288 -0.00350103 0.470119
v -0.617288 0.0794319 0.445698
v -0.617171 0.0366642 0.433515
v -0.615191 0.024487 0.421304
v -0.613164 -0.00104595 0.416215
v -0.597811 -0.00104595 0.39812
v -0.540149 -0.00158608 0.36588
v -0.468882 -0.00350103 0.36588
v -0.611999 -0.00350103 0.488613
v -0.6161 0.0732941 0.476232
v -0.616193 0.0977468 0.470119
v -0.617032 0.0977468 0.45181
v -0.615867 0.12215 0.45181
v -0.61624 0.0611169 0.433515
v -0.614818 0.0855205 0.433515
v -0.612582 0.0672055 0.422854
v -0.612023 0.0519349 0.418007
v -0.610019 0.0183984 0.409421
v -0.605942 0.0305756 0.405071
v -0.601446 0.0428019 0.400778
v -0.597135 0.0183984 0.397665
v -0.540499 0.0305756 0.36588
v -0.468952 -0.00350103 0.433515
v -0.379279 0.282811 0.36588
v -0.596343 -0.00350103 0.505444
v -0.60953 0.0732941 0.493645
v -0.608505 0.102952 0.489523
v -0.614166 0.116062 0.470119
v -0.612698 0.109924 0.433842
v -0.61172 0.1413 0.463324
v -0.610205 0.151415 0.452493
v -0.610601 0.140956 0.439471
v -0.610089 0.111937 0.42844
v -0.60946 0.0732941 0.417509
v -0.599978 0.0611169 0.401702
v -0.5398 0.134328 0.36588
v -0.540825 0.116062 0.36588
v -0.540895 0.0977468 0.36588
v -0.540802 0.0794319 0.36588
v -0.470256 -0.00350103 0.451156
v -0.379279 0.283695 0.45181
v -0.382587 0.416466 0.36588
v -0.379279 0.467729 0.405327
v -0.573255 -0.00350103 0.510974
v -0.580035 0.0732941 0.510789
v -0.596786 0.0732941 0.50506
v -0.603426 0.0916582 0.498919
v -0.601911 0.115031 0.495252
v -0.601236 0.128288 0.492394
v -0.601725 0.143166 0.485543
v -0.609134 0.128043 0.477739
v -0.610485 0.128288 0.433529
v -0.598347 0.168355 0.479317
v -0.597858 0.181809 0.468584
v -0.595365 0.19654 0.457923
v -0.592895 0.201548 0.445698
v -0.59865 0.179452 0.440523
v -0.60487 0.152692 0.433515
v -0.602797 0.116062 0.417154
v -0.608225 0.0916582 0.419812
v -0.601585 0.0977468 0.411041
v -0.599186 0.0805612 0.404388
v -0.586116 0.140613 0.40301
v -0.577099 0.164918 0.400721
v -0.532787 0.16153 0.36588
v -0.476523 -0.00350103 0.468684
v -0.379279 0.28836 0.471015
v -0.379279 0.295087 0.482344
v -0.379279 0.308688 0.495607
v -0.39596 0.404584 0.36588
v -0.443837 0.425452 0.404388
v -0.431722 0.44033 0.408084
v -0.409985 0.453489 0.406791
v -0.408028 0.465175 0.416443
v -0.379279 0.480102 0.418547
v -0.535979 -0.00350103 0.510633
v -0.543388 0.0183984 0.511102
v -0.567804 0.109924 0.511073
v -0.573931 0.0183984 0.510974
v -0.567804 0.128288 0.510817
v -0.580035 0.0977468 0.509851
v -0.59222 0.0916582 0.506311
v -0.595505 0.105456 0.502843
v -0.586302 0.177095 0.495437
v -0.584392 0.19104 0.493034
v -0.600397 0.133346 0.418092
v -0.598161 0.152692 0.421603
v -0.585417 0.212007 0.475905
v -0.590822 0.201548 0.470119
v -0.589424 0.213725 0.457923
v -0.586279 0.21564 0.440751
v -0.585044 0.202481 0.426564
v -0.599092 0.163838 0.428767
v -0.586488 0.15878 0.408383
v -0.574793 0.180631 0.402285
v -0.519438 0.201597 0.36588
v -0.48936 -0.00350103 0.489409
v -0.379279 0.327641 0.504037
v -0.407469 0.39334 0.36588
v -0.451968 0.415288 0.402924
v -0.4546 0.424028 0.411951
v -0.423311 0.453244 0.41387
v -0.420935 0.466452 0.429322
v -0.409123 0.474357 0.430573
v -0.379279 0.489235 0.432563
v -0.531156 0.024487 0.511087
v -0.517877 -0.00350103 0.506666
v -0.379279 0.370311 0.510888
v -0.518972 0.0550283 0.511102
v -0.555619 0.152692 0.511102
v -0.555619 0.171007 0.510931
v -0.567804 0.146554 0.509836
v -0.580035 0.116062 0.508671
v -0.580035 0.134377 0.506993
v -0.577495 0.177095 0.502729
v -0.582807 0.157946 0.502501
v -0.575026 0.207637 0.496545
v -0.575212 0.225608 0.487576
v -0.586209 0.189322 0.421205
v -0.585021 0.178372 0.413998
v -0.574164 0.24024 0.475279
v -0.584089 0.224429 0.464391
v -0.575585 0.243726 0.453388
v -0.572603 0.242744 0.435321
v -0.562492 0.258015 0.426067
v -0.576447 0.226835 0.427943
v -0.574537 0.214511 0.417011
v -0.575236 0.192808 0.407701
v -0.549888 0.245249 0.402711
v -0.505482 0.239896 0.36588
v -0.514499 0.215984 0.36588
v -0.505459 -0.00350103 0.500497
v -0.379279 0.347282 0.508571
v -0.418442 0.380622 0.36588
v -0.475032 0.389117 0.403791
v -0.465061 0.407481 0.407672
v -0.445328 0.439152 0.419513
v -0.465783 0.417203 0.417651
v -0.418745 0.474603 0.444077
v -0.440156 0.452311 0.43262
v -0.434541 0.46439 0.445698
v -0.379279 0.495913 0.445982
v -0.482371 0.140465 0.511102
v -0.396892 0.348019 0.511102
v -0.379279 0.426631 0.511073
v -0.543388 0.189322 0.511102
v -0.543388 0.207637 0.510561
v -0.555619 0.195459 0.509438
v -0.482371 0.317428 0.511016
v -0.567804 0.171007 0.508159
v -0.571811 0.189322 0.503909
v -0.559766 0.215837 0.504335
v -0.562538 0.236214 0.495721
v -0.562049 0.251043 0.488741
v -0.562375 0.263809 0.476971
v -0.546952 0.298573 0.470404
v -0.542013 0.31134 0.457923
v -0.55252 0.287967 0.444973
v -0.56156 0.268277 0.440424
v -0.559486 0.269112 0.433515
v -0.55047 0.282811 0.425185
v -0.551006 0.266411 0.413287
v -0.561606 0.244021 0.415334
v -0.537796 0.301667 0.416258
v -0.563028 0.230027 0.410401
v -0.538379 0.285119 0.407573
v -0.525705 0.309326 0.404616
v -0.49204 0.26759 0.36588
v -0.441926 0.34738 0.36588
v -0.488755 0.366775 0.402825
v -0.499611 0.352536 0.403791
v -0.487823 0.377578 0.409278
v -0.477432 0.398544 0.413841
v -0.462172 0.428595 0.429762
v -0.453692 0.44141 0.436614
v -0.475615 0.414159 0.435306
v -0.473332 0.422948 0.445698
v -0.421704 0.472786 0.457923
v -0.379279 0.498123 0.459472
v -0.446982 0.452998 0.445698
v -0.455998 0.443718 0.457923
v -0.431792 0.464832 0.462287
v -0.421308 0.384649 0.511102
v -0.379279 0.44362 0.51022
v -0.396892 0.415141 0.510931
v -0.518972 0.238178 0.511102
v -0.531156 0.238178 0.510206
v -0.494602 0.305251 0.510561
v -0.543388 0.225952 0.508856
v -0.47629 0.341881 0.510178
v -0.494602 0.329655 0.507818
v -0.547535 0.240289 0.504349
v -0.501825 0.344238 0.501378
v -0.513683 0.333828 0.495707
v -0.525425 0.31134 0.495294
v -0.510678 0.348019 0.491286
v -0.525588 0.330686 0.483339
v -0.538938 0.30859 0.479274
v -0.537423 0.317625 0.470503
v -0.532368 0.330489 0.457923
v -0.549352 0.29273 0.440438
v -0.524074 0.345711 0.45235
v -0.525845 0.337314 0.435264
v -0.535303 0.318165 0.433515
v -0.546696 0.295185 0.433515
v -0.524843 0.326463 0.415434
v -0.513986 0.343599 0.413372
v -0.513124 0.33319 0.405057
v -0.484491 0.282419 0.36588
v -0.472936 0.302059 0.36588
v -0.499192 0.369181 0.418092
v -0.487264 0.38892 0.421304
v -0.514312 0.356268 0.435733
v -0.50073 0.378658 0.439358
v -0.475172 0.419805 0.459643
v -0.464665 0.434585 0.45181
v -0.497748 0.386318 0.445698
v -0.486378 0.404584 0.451014
v -0.414179 0.475487 0.468314
v -0.390881 0.48845 0.476374
v -0.379279 0.495177 0.477085
v -0.442532 0.454668 0.462287
v -0.464875 0.425059 0.473346
v -0.455276 0.436844 0.470716
v -0.425129 0.458645 0.483681
v -0.41306 0.466403 0.488869
v -0.405349 0.476027 0.482558
v -0.379279 0.46056 0.507562
v -0.396892 0.433456 0.509424
v -0.409123 0.421278 0.509424
v -0.445747 0.384649 0.509424
v -0.470186 0.366284 0.508216
v -0.484491 0.367119 0.50361
v -0.501149 0.358232 0.495223
v -0.500171 0.371784 0.48405
v -0.512472 0.359459 0.475507
v -0.525006 0.341881 0.470162
v -0.512565 0.364811 0.45019
v -0.513683 0.349197 0.421304
v -0.474706 0.413078 0.473005
v -0.498167 0.386956 0.457923
v -0.379279 0.487615 0.492636
v -0.437616 0.449757 0.478563
v -0.475522 0.404584 0.484235
v -0.461287 0.418627 0.488684
v -0.449312 0.430902 0.488784
v -0.38508 0.474407 0.501378
v -0.427412 0.445682 0.495053
v -0.406281 0.455797 0.501265
v -0.434821 0.428644 0.501108
v -0.486471 0.379444 0.495863
v -0.458654 0.405959 0.500142
v -0.476896 0.390344 0.496588
v -0.485773 0.392898 0.481335
v -0.448799 0.418185 0.499346
f 1 2 3
f 1 3 4
f 1 4 5
f 1 5 6
f 1 6 7
f 1 7 8
f 1 8 9
f 1 9 24
f 1 24 41
f 1 41 67
f 1 67 98
f 1 98 133
f 1 133 108
f 1 108 77
f 1 77 45
f 1 45 26
f 1 26 10
f 1 10 2
f 2 10 11
f 2 11 12
f 2 12 13
f 2 13 3
f 3 13 14
f 3 14 15
f 3 15 4
f 4 15 5
f 5 15 16
f 5 16 17
f 5 17 18
f 5 18 19
f 5 19 6
f 6 19 7
f 7 19 20
f 7 20 21
f 7 21 22
f 7 22 23
f 7 23 8
f 8 23 40
f 8 40 39
f 8 39 38
f 8 38 37
f 8 37 66
f 8 66 97
f 8 97 132
f 8 132 131
f 8 131 169
f 8 169 210
f 8 210 211
f 8 211 170
f 8 170 135
f 8 135 100
f 8 100 71
f 8 71 43
f 8 43 25
f 8 25 9
f 9 25 24
f 10 26 27
f 10 27 11
f 11 27 28
f 11 28 12
f 12 28 29
f 12 29 14
f 12 14 13
f 14 30 16
f 14 16 15
f 14 29 31
f 14 31 32
f 14 32 33
f 14 33 30
f 16 30 17
f 17 30 34
f 17 34 35
f 17 35 18
f 18 20 19
f 18 35 20
f 20 35 36
f 20 36 21
f 21 36 37
f 21 37 38
f 21 38 22
f 22 38 39
f 22 39 40
f 22 40 23
f 24 25 42
f 24 42 41
f 25 43 44
f 25 44 76
f 25 76 106
f 25 106 143
f 25 143 180
f 25 180 222
f 25 222 243
f 25 243 229
f 25 229 185
f 25 185 146
f 25 146 109
f 25 109 134
f 25 134 99
f 25 99 70
f 25 70 69
f 25 69 68
f 25 68 42
f 26 45 46
f 26 46 47
f 26 47 27
f 27 47 48
f 27 48 28
f 28 49 50
f 28 50 51
f 28 51 52
f 28 52 29
f 28 48 49
f 29 52 31
f 30 33 53
f 30 53 34
f 31 54 55
f 31 55 56
f 31 56 32
f 31 52 54
f 32 56 57
f 32 57 33
f 33 57 58
f 33 58 59
f 33 59 53
f 34 53 60
f 34 60 61
f 34 61 35
f 35 61 62
f 35 62 36
f 36 62 63
f 36 63 64
f 36 64 37
f 37 64 65
f 37 65 66
f 41 42 68
f 41 68 69
f 41 69 70
f 41 70 67
f 43 71 72
f 43 72 73
f 43 73 74
f 43 74 44
f 44 74 75
f 44 75 76
f 45 77 78
f 45 78 79
f 45 79 80
f 45 80 46
f 46 79 81
f 46 81 82
f 46 82 83
f 46 83 47
f 46 80 79
f 47 83 84
f 47 84 48
f 48 84 49
f 49 84 85
f 49 85 50
f 50 85 86
f 50 86 51
f 51 86 54
f 51 54 52
f 53 87 60
f 53 59 88
f 53 88 87
f 54 86 89
f 54 89 55
f 55 89 90
f 55 90 56
f 56 90 91
f 56 91 57
f 57 91 92
f 57 92 58
f 58 92 93
f 58 93 59
f 59 94 88
f 59 93 94
f 60 87 62
f 60 62 61
f 62 87 64
f 62 64 63
f 64 95 96
f 64 96 65
f 64 87 95
f 65 96 66
f 66 96 97
f 67 70 98
f 70 99 98
f 71 100 101
f 71 101 72
f 72 102 73
f 72 101 102
f 73 102 103
f 73 103 74
f 74 103 75
f 75 103 104
f 75 104 105
f 75 105 76
f 76 105 106
f 77 107 78
f 77 108 109
f 77 109 107
f 78 107 110
f 78 110 144
f 78 144 145
f 78 145 184
f 78 184 187
f 78 187 147
f 78 147 111
f 78 111 79
f 79 111 112
f 79 112 81
f 81 112 113
f 81 113 82
f 82 113 114
f 82 114 83
f 83 114 115
f 83 115 84
f 84 115 116
f 84 116 117
f 84 117 85
f 85 117 116
f 85 116 118
f 85 118 86
f 86 118 119
f 86 119 89
f 87 88 95
f 88 94 120
f 88 120 121
f 88 121 95
f 89 119 122
f 89 122 123
f 89 123 90
f 90 123 91
f 91 123 124
f 91 124 92
f 92 124 125
f 92 125 126
f 92 126 127
f 92 127 93
f 93 127 128
f 93 128 120
f 93 120 94
f 95 121 96
f 96 121 129
f 96 129 130
f 96 130 131
f 96 131 132
f 96 132 97
f 98 99 133
f 99 134 133
f 100 135 101
f 101 135 136
f 101 136 137
f 101 137 102
f 102 138 103
f 102 137 139
f 102 139 138
f 103 138 104
f 104 140 105
f 104 138 141
f 104 141 142
f 104 142 140
f 105 140 143
f 105 143 106
f 107 109 144
f 107 144 110
f 108 133 134
f 108 134 109
f 109 145 144
f 109 146 145
f 111 147 112
f 112 148 149
f 112 149 113
f 112 147 150
f 112 150 148
f 113 149 151
f 113 151 114
f 114 151 115
f 115 151 152
f 115 152 116
f 116 152 118
f 118 153 154
f 118 154 119
f 118 152 153
f 119 154 155
f 119 155 156
f 119 156 122
f 120 128 121
f 121 128 129
f 122 156 157
f 122 157 123
f 123 157 158
f 123 158 124
f 124 158 159
f 124 159 160
f 124 160 125
f 125 160 161
f 125 161 162
f 125 162 126
f 126 163 164
f 126 164 127
f 126 162 165
f 126 165 163
f 127 164 128
f 128 164 166
f 128 166 129
f 129 166 130
f 130 166 167
f 130 167 168
f 130 168 131
f 131 168 169
f 135 170 136
f 136 170 171
f 136 171 172
f 136 172 173
f 136 173 174
f 136 174 137
f 137 174 139
f 138 139 175
f 138 175 176
f 138 176 141
f 139 174 177
f 139 177 178
f 139 178 175
f 140 142 179
f 140 179 180
f 140 180 143
f 141 176 181
f 141 181 142
f 142 181 182
f 142 182 183
f 142 183 179
f 145 146 184
f 146 185 186
f 146 186 184
f 147 187 150
f 148 188 149
f 148 150 189
f 148 189 188
f 149 152 151
f 149 188 190
f 149 190 153
f 149 153 152
f 150 184 191
f 150 191 189
f 150 187 184
f 153 190 192
f 153 192 193
f 153 193 194
f 153 194 154
f 154 194 195
f 154 195 196
f 154 196 155
f 155 196 195
f 155 195 197
f 155 197 198
f 155 198 199
f 155 199 156
f 156 199 200
f 156 200 157
f 157 200 158
f 158 200 201
f 158 201 159
f 159 202 160
f 159 201 203
f 159 203 204
f 159 204 205
f 159 205 202
f 160 202 205
f 160 205 206
f 160 206 161
f 161 206 162
f 162 206 205
f 162 205 165
f 163 166 164
f 163 165 168
f 163 168 167
f 163 167 166
f 165 205 207
f 165 207 168
f 168 207 208
f 168 208 209
f 168 209 210
f 168 210 169
f 170 211 171
f 171 211 172
f 172 208 173
f 172 211 209
f 172 209 208
f 173 208 174
f 174 208 212
f 174 212 213
f 174 213 177
f 175 178 176
f 176 178 181
f 177 213 214
f 177 214 215
f 177 215 178
f 178 216 217
f 178 217 181
f 178 215 218
f 178 218 219
f 178 219 216
f 179 220 221
f 179 221 180
f 179 183 220
f 180 221 222
f 181 217 182
f 182 223 183
f 182 217 216
f 182 216 224
f 182 224 225
f 182 225 223
f 183 223 226
f 183 226 227
f 183 227 228
f 183 228 220
f 184 186 191
f 185 229 230
f 185 230 231
f 185 231 232
f 185 232 186
f 186 232 191
f 188 189 192
f 188 192 190
f 189 191 192
f 191 232 233
f 191 233 192
f 192 233 234
f 192 234 194
f 192 194 193
f 194 234 235
f 194 235 195
f 195 235 197
f 197 235 236
f 197 236 237
f 197 237 198
f 198 237 238
f 198 238 199
f 199 238 200
f 200 238 201
f 201 238 203
f 203 238 239
f 203 239 204
f 204 239 214
f 204 214 240
f 204 240 207
f 204 207 205
f 207 240 208
f 208 240 212
f 209 211 210
f 212 240 213
f 213 240 214
f 214 239 218
f 214 218 215
f 216 241 224
f 216 219 242
f 216 242 237
f 216 237 236
f 216 236 241
f 218 239 219
f 219 239 242
f 220 228 221
f 221 228 243
f 221 243 222
f 223 225 244
f 223 244 226
f 224 241 245
f 224 245 246
f 224 246 225
f 225 246 247
f 225 247 244
f 226 244 247
f 226 247 227
f 227 248 243
f 227 243 228
f 227 247 249
f 227 249 248
f 229 250 251
f 229 251 233
f 229 233 232
f 229 232 231
f 229 231 230
f 229 243 248
f 229 248 250
f 233 251 234
f 234 252 235
f 234 251 253
f 234 253 254
f 234 254 252
f 235 252 236
f 236 252 245
f 236 245 255
f 236 255 241
f 237 242 238
f 238 242 239
f 241 255 245
f 245 252 246
f 246 252 254
f 246 254 256
f 246 256 247
f 247 256 249
f 248 249 250
f 249 256 250
f 250 256 251
f 251 256 253
f 253 256 254
