v 0.46794 -0.00350103 0.119281
v 0.467158 0.108477 0.119281
v 0.537638 -0.00350103 0.119281
v 0.46985 -0.00350103 0.313986
v 0.46584 0.108477 0.343484
v 0.537638 0.108477 0.119281
v 0.537842 0.00611182 0.343484
v 0.537744 -0.00350103 0.343484
v 0.46997 -0.00350103 0.326189
v 0.470139 -0.00350103 0.338414
v 0.470223 -0.00350103 0.343484
v 0.537842 0.108477 0.343484
f 1 2 6
f 1 6 3
f 1 3 8
f 1 8 11
f 1 11 10
f 1 10 9
f 1 9 4
f 1 4 5
f 1 5 2
f 2 5 12
f 2 12 6
f 3 6 12
f 3 12 7
f 3 7 8
f 4 9 5
f 5 9 10
f 5 10 11
f 5 11 8
f 5 8 7
f 5 7 12
