v 0.435112 0.159258 0.345765
v 0.470239 -0.00345631 0.343484
v 0.469954 -0.00345631 0.362858
v 0.470203 -0.00345631 0.410398
v 0.435112 0.15993 0.356838
v 0.435112 0.341848 0.343484
v 0.537781 0.00133336 0.343484
v 0.609532 -0.00345631 0.408774
v 0.470364 -0.00345631 0.421307
v 0.435112 0.19301 0.4457
v 0.435112 0.43415 0.405575
v 0.449466 0.431106 0.412645
v 0.457704 0.42099 0.411415
v 0.489799 0.367677 0.4019
v 0.446257 0.328374 0.343484
v 0.60215 0.0671802 0.400014
v 0.603648 0.00133336 0.401687
v 0.537817 0.118345 0.343484
v 0.610084 0.0671802 0.40943
v 0.615273 -0.00345631 0.421307
v 0.473537 -0.00345631 0.434561
v 0.435112 0.225777 0.492009
v 0.435112 0.216779 0.481593
v 0.435112 0.208453 0.469634
v 0.435112 0.43424 0.499457
v 0.435558 0.449191 0.421126
v 0.438179 0.442521 0.41317
v 0.458488 0.427883 0.421307
v 0.466138 0.417677 0.417599
v 0.500925 0.354427 0.40277
v 0.465353 0.304157 0.343484
v 0.455457 0.317184 0.343484
v 0.601936 0.0794006 0.40003
v 0.537478 0.132042 0.343484
v 0.615273 0.0671802 0.421307
v 0.609853 0.0794006 0.409938
v 0.615006 0.0794006 0.421307
v 0.617056 -0.00345631 0.432199
v 0.61727 0.0794006 0.433495
v 0.478209 -0.00345631 0.445519
v 0.435112 0.237102 0.499637
v 0.457633 0.420587 0.49219
v 0.43916 0.444938 0.487137
v 0.43686 0.453801 0.45341
v 0.435112 0.409933 0.505887
v 0.470167 0.360201 0.509152
v 0.44171 0.423631 0.50031
v 0.487481 0.360917 0.50259
v 0.49916 0.349324 0.501245
v 0.437056 0.452145 0.433216
v 0.448753 0.439387 0.425572
v 0.449252 0.443461 0.443764
v 0.465478 0.423317 0.433495
v 0.515475 0.357515 0.4457
v 0.523535 0.345743 0.444027
v 0.524052 0.340147 0.430821
v 0.51346 0.352368 0.423587
v 0.501799 0.362887 0.412497
v 0.514566 0.34431 0.413088
v 0.520896 0.32354 0.407264
v 0.513139 0.330165 0.40277
v 0.475748 0.28473 0.343484
v 0.601169 0.0916658 0.400309
v 0.531416 0.152678 0.343484
v 0.576902 0.189339 0.399981
v 0.599867 0.103841 0.401326
v 0.610619 0.0924268 0.414925
v 0.612331 0.103841 0.423341
v 0.615683 0.103841 0.433495
v 0.616771 0.0916658 0.433495
v 0.61727 -0.00345631 0.470126
v 0.61727 0.103841 0.4457
v 0.483879 -0.00345631 0.457905
v 0.435112 0.247174 0.503755
v 0.489104 -0.00345631 0.468797
v 0.496165 -0.00345631 0.483167
v 0.50237 -0.00345631 0.493289
v 0.49078 0.381553 0.490549
v 0.4648 0.416066 0.489335
v 0.451017 0.432762 0.487072
v 0.450233 0.440193 0.468879
v 0.435112 0.396818 0.508791
v 0.457953 0.360201 0.510694
v 0.470167 0.347981 0.510694
v 0.482364 0.335805 0.510169
v 0.482364 0.347981 0.508381
v 0.494578 0.335805 0.506806
v 0.524194 0.309529 0.500195
v 0.511463 0.33303 0.499686
v 0.523659 0.325375 0.494142
v 0.45963 0.432449 0.458184
v 0.463053 0.428734 0.447718
v 0.516277 0.358634 0.457905
v 0.524069 0.34619 0.457905
v 0.529383 0.335805 0.4457
v 0.527404 0.335984 0.434332
v 0.524105 0.334194 0.419748
v 0.53787 0.30644 0.418173
v 0.561835 0.256619 0.41504
v 0.548729 0.261006 0.403754
v 0.524337 0.309842 0.40377
v 0.505169 0.225911 0.343484
v 0.526298 0.168122 0.343484
v 0.512355 0.209393 0.343484
v 0.577205 0.20053 0.404771
v 0.587065 0.163914 0.404246
v 0.607285 0.103841 0.41317
v 0.599279 0.115077 0.404246
v 0.605609 0.128282 0.421307
v 0.611119 0.126581 0.432183
v 0.615505 0.128282 0.4457
v 0.616771 0.116062 0.4457
v 0.615255 -0.00345631 0.481035
v 0.61727 0.0671802 0.470126
v 0.617217 0.103841 0.457905
v 0.61727 0.0916658 0.457905
v 0.435112 0.262527 0.508184
v 0.514815 -0.00345631 0.504411
v 0.515011 0.348966 0.487498
v 0.499641 0.371481 0.486793
v 0.475731 0.404741 0.485169
v 0.466084 0.417632 0.482331
v 0.46341 0.426585 0.466287
v 0.435112 0.384597 0.510333
v 0.44574 0.360201 0.511071
v 0.470167 0.335805 0.511071
v 0.44574 0.372421 0.510579
v 0.482364 0.32354 0.510923
v 0.494578 0.299144 0.510923
v 0.518988 0.250307 0.510923
v 0.518988 0.262527 0.510169
v 0.506792 0.299144 0.508824
v 0.494578 0.32354 0.508824
v 0.506792 0.31132 0.506855
v 0.546893 0.251874 0.502738
v 0.560801 0.236251 0.500195
v 0.560711 0.250307 0.49465
v 0.535838 0.300979 0.494142
v 0.577116 0.227746 0.486333
v 0.531273 0.32354 0.482331
v 0.52505 0.33585 0.482331
v 0.513228 0.360693 0.470126
v 0.529436 0.335805 0.457905
v 0.524105 0.342788 0.470651
v 0.534928 0.324972 0.4457
v 0.53623 0.318213 0.433085
v 0.548765 0.291534 0.430083
v 0.550084 0.282044 0.418173
v 0.574512 0.233163 0.418173
v 0.585496 0.190056 0.412547
v 0.592878 0.152678 0.409102
v 0.600491 0.128282 0.411612
v 0.599136 0.151067 0.419633
v 0.599475 0.165167 0.427836
v 0.605181 0.152678 0.433495
v 0.610601 0.140905 0.439499
v 0.610263 0.150977 0.448407
v 0.615327 0.128282 0.457905
v 0.61661 0.116062 0.457905
v 0.609817 -0.00345631 0.493354
v 0.615006 0.0671802 0.482331
v 0.617217 0.0794006 0.470126
v 0.61661 0.0916658 0.470126
v 0.435112 0.274703 0.51012
v 0.531184 -0.00345631 0.510366
v 0.435112 0.372421 0.510891
v 0.435112 0.360201 0.511071
v 0.506792 0.262527 0.511071
v 0.518988 0.238042 0.511071
v 0.555612 0.164899 0.511022
v 0.555612 0.177119 0.510759
v 0.555612 0.189339 0.509874
v 0.531184 0.250307 0.508824
v 0.531184 0.262527 0.506855
v 0.543398 0.238042 0.506609
v 0.572141 0.177119 0.504739
v 0.572925 0.191936 0.501737
v 0.568913 0.225911 0.497209
v 0.598031 0.128282 0.495028
v 0.600777 0.142025 0.485759
v 0.611208 0.139428 0.46281
v 0.586298 0.208185 0.476606
v 0.586245 0.217048 0.465582
v 0.573924 0.238131 0.482331
v 0.567915 0.250307 0.482331
v 0.543487 0.299144 0.482331
v 0.536747 0.316378 0.473636
v 0.560408 0.27157 0.467649
v 0.559321 0.276046 0.457905
v 0.573104 0.248606 0.4457
v 0.573656 0.243906 0.43402
v 0.560979 0.267138 0.430083
v 0.581948 0.225911 0.433495
v 0.585692 0.206305 0.422209
v 0.590899 0.201515 0.433495
v 0.605609 0.164899 0.4457
v 0.601597 0.177119 0.4457
v 0.599315 0.182983 0.458085
v 0.610798 0.128282 0.470782
v 0.610851 0.117002 0.476704
v 0.615416 0.103841 0.470126
v 0.602096 -0.00345631 0.502049
v 0.609585 0.0550046 0.493666
v 0.609567 0.0671802 0.493617
v 0.614613 0.0794006 0.482331
v 0.435112 0.286924 0.510858
v 0.543398 -0.00345631 0.511038
v 0.531184 0.0183882 0.510956
v 0.435112 0.299144 0.511071
v 0.555612 0.152678 0.511071
v 0.567808 0.116062 0.511022
v 0.567808 0.128282 0.510759
v 0.580022 0.0916658 0.51012
v 0.567808 0.140458 0.51012
v 0.567808 0.152678 0.509267
v 0.567808 0.164899 0.508364
v 0.580022 0.140458 0.505707
v 0.578221 0.164899 0.503181
v 0.584872 0.15138 0.501393
v 0.584337 0.164899 0.499178
v 0.599511 0.116062 0.496438
v 0.611208 0.0906362 0.487219
v 0.605983 0.128282 0.482331
v 0.586691 0.220987 0.451737
v 0.574566 0.241802 0.470093
v 0.566078 0.262527 0.457905
v 0.573032 0.248472 0.457905
v 0.578328 0.238042 0.4457
v 0.586851 0.215884 0.43799
v 0.593431 0.201515 0.4457
v 0.596925 0.188444 0.441418
v 0.610851 0.103841 0.483052
v 0.601436 0.0550046 0.502672
v 0.592236 -0.00345631 0.507659
v 0.609068 0.0794006 0.492928
v 0.56911 -0.00345631 0.511022
v 0.567808 0.0183882 0.511071
v 0.543398 0.0183882 0.511071
v 0.531184 0.0305638 0.511071
v 0.567808 0.103841 0.511071
v 0.580022 0.0671802 0.510825
v 0.580022 0.0794006 0.510677
v 0.596818 0.0671802 0.505166
v 0.59648 0.0794006 0.50469
v 0.580022 0.103841 0.509267
v 0.580022 0.116062 0.508364
v 0.580022 0.128282 0.507232
v 0.595856 0.0916658 0.503574
v 0.597068 0.102499 0.501393
v 0.589044 0.128282 0.502311
v 0.581324 -0.00345631 0.510497
f 1 2 3
f 1 3 4
f 1 4 5
f 1 5 10
f 1 10 24
f 1 24 23
f 1 23 22
f 1 22 41
f 1 41 74
f 1 74 117
f 1 117 164
f 1 164 206
f 1 206 209
f 1 209 167
f 1 167 166
f 1 166 124
f 1 124 82
f 1 82 45
f 1 45 25
f 1 25 11
f 1 11 6
f 1 6 2
f 2 7 8
f 2 8 20
f 2 20 38
f 2 38 71
f 2 71 113
f 2 113 160
f 2 160 202
f 2 202 234
f 2 234 251
f 2 251 236
f 2 236 207
f 2 207 165
f 2 165 118
f 2 118 77
f 2 77 76
f 2 76 75
f 2 75 73
f 2 73 40
f 2 40 21
f 2 21 9
f 2 9 4
f 2 4 3
f 2 6 15
f 2 15 32
f 2 32 31
f 2 31 62
f 2 62 102
f 2 102 104
f 2 104 103
f 2 103 64
f 2 64 34
f 2 34 18
f 2 18 7
f 4 9 5
f 5 9 10
f 6 11 12
f 6 12 13
f 6 13 14
f 6 14 15
f 7 16 17
f 7 17 8
f 7 18 16
f 8 17 19
f 8 19 20
f 9 21 22
f 9 22 23
f 9 23 24
f 9 24 10
f 11 25 26
f 11 26 27
f 11 27 12
f 12 28 29
f 12 29 13
f 12 27 28
f 13 29 30
f 13 30 14
f 14 30 31
f 14 31 32
f 14 32 15
f 16 33 19
f 16 19 17
f 16 18 33
f 18 34 33
f 19 35 20
f 19 33 36
f 19 36 37
f 19 37 35
f 20 35 39
f 20 39 38
f 21 40 41
f 21 41 22
f 25 42 43
f 25 43 44
f 25 44 26
f 25 45 46
f 25 46 47
f 25 47 48
f 25 48 49
f 25 49 42
f 26 44 50
f 26 50 51
f 26 51 27
f 27 51 28
f 28 51 52
f 28 52 53
f 28 53 29
f 29 53 54
f 29 54 55
f 29 55 56
f 29 56 57
f 29 57 58
f 29 58 30
f 30 58 59
f 30 59 60
f 30 60 61
f 30 61 62
f 30 62 31
f 33 63 36
f 33 34 63
f 34 64 65
f 34 65 66
f 34 66 63
f 35 37 39
f 36 63 66
f 36 66 67
f 36 67 37
f 37 67 68
f 37 68 69
f 37 69 70
f 37 70 39
f 38 39 71
f 39 70 72
f 39 72 116
f 39 116 114
f 39 114 71
f 40 73 41
f 41 73 75
f 41 75 76
f 41 76 77
f 41 77 74
f 42 78 79
f 42 79 80
f 42 80 43
f 42 49 78
f 43 81 44
f 43 80 81
f 44 81 52
f 44 52 50
f 45 82 46
f 46 48 47
f 46 82 83
f 46 83 84
f 46 84 85
f 46 85 86
f 46 86 48
f 48 86 49
f 49 86 87
f 49 87 88
f 49 88 89
f 49 89 90
f 49 90 78
f 50 52 51
f 52 81 91
f 52 91 92
f 52 92 53
f 53 92 93
f 53 93 54
f 54 93 55
f 55 93 94
f 55 94 95
f 55 95 96
f 55 96 56
f 56 96 97
f 56 97 57
f 57 97 59
f 57 59 58
f 59 97 98
f 59 98 99
f 59 99 60
f 60 99 100
f 60 100 101
f 60 101 61
f 61 101 62
f 62 101 102
f 64 103 65
f 65 103 104
f 65 104 105
f 65 105 106
f 65 106 66
f 66 107 67
f 66 106 108
f 66 108 107
f 67 107 68
f 68 107 109
f 68 109 110
f 68 110 111
f 68 111 69
f 69 111 112
f 69 112 70
f 70 112 72
f 71 114 113
f 72 112 115
f 72 115 116
f 74 77 117
f 77 118 117
f 78 119 120
f 78 120 121
f 78 121 79
f 78 90 119
f 79 122 80
f 79 121 122
f 80 123 81
f 80 122 123
f 81 123 91
f 82 124 83
f 83 125 126
f 83 126 84
f 83 124 127
f 83 127 125
f 84 126 128
f 84 128 85
f 85 128 129
f 85 129 130
f 85 130 131
f 85 131 132
f 85 132 133
f 85 133 86
f 86 133 87
f 87 133 134
f 87 134 88
f 88 134 135
f 88 135 136
f 88 136 137
f 88 137 90
f 88 90 89
f 90 137 138
f 90 138 139
f 90 139 140
f 90 140 141
f 90 141 119
f 91 123 93
f 91 93 92
f 93 142 94
f 93 123 142
f 94 143 95
f 94 142 144
f 94 144 143
f 95 143 145
f 95 145 96
f 96 145 146
f 96 146 97
f 97 146 98
f 98 146 147
f 98 147 192
f 98 192 148
f 98 148 99
f 99 148 149
f 99 149 105
f 99 105 100
f 100 105 102
f 100 102 101
f 102 105 104
f 105 150 106
f 105 149 150
f 106 150 151
f 106 151 108
f 107 108 152
f 107 152 109
f 108 151 152
f 109 152 153
f 109 153 154
f 109 154 110
f 110 154 155
f 110 155 156
f 110 156 111
f 111 156 157
f 111 157 158
f 111 158 159
f 111 159 112
f 112 159 115
f 113 114 161
f 113 161 160
f 114 116 162
f 114 162 161
f 115 159 163
f 115 163 162
f 115 162 116
f 117 118 164
f 118 165 164
f 119 141 142
f 119 142 120
f 120 142 121
f 121 142 123
f 121 123 122
f 124 166 127
f 125 167 209
f 125 209 239
f 125 239 238
f 125 238 237
f 125 237 240
f 125 240 210
f 125 210 169
f 125 169 168
f 125 168 126
f 125 127 166
f 125 166 167
f 126 168 130
f 126 130 129
f 126 129 128
f 130 168 169
f 130 169 170
f 130 170 171
f 130 171 131
f 131 171 172
f 131 172 173
f 131 173 132
f 132 173 174
f 132 174 134
f 132 134 133
f 134 174 135
f 135 174 175
f 135 175 136
f 136 175 172
f 136 172 176
f 136 176 177
f 136 177 178
f 136 178 137
f 137 178 139
f 137 139 138
f 139 178 179
f 139 179 180
f 139 180 181
f 139 181 182
f 139 182 183
f 139 183 184
f 139 184 185
f 139 185 186
f 139 186 140
f 140 186 187
f 140 187 144
f 140 144 141
f 141 144 142
f 143 144 188
f 143 188 189
f 143 189 145
f 144 187 188
f 145 189 190
f 145 190 191
f 145 191 146
f 146 191 192
f 146 192 147
f 148 192 149
f 149 192 191
f 149 191 193
f 149 193 194
f 149 194 150
f 150 194 154
f 150 154 153
f 150 153 152
f 150 152 151
f 154 194 155
f 155 194 195
f 155 195 156
f 156 195 196
f 156 196 157
f 157 196 197
f 157 197 198
f 157 198 158
f 158 199 200
f 158 200 201
f 158 201 159
f 158 198 181
f 158 181 199
f 159 201 163
f 160 161 203
f 160 203 202
f 161 204 203
f 161 162 205
f 161 205 204
f 162 163 205
f 163 201 205
f 164 165 206
f 165 207 208
f 165 208 206
f 169 210 170
f 170 210 240
f 170 240 211
f 170 211 212
f 170 212 171
f 171 212 213
f 171 213 214
f 171 214 215
f 171 215 172
f 172 215 216
f 172 216 176
f 172 175 173
f 173 175 174
f 176 216 217
f 176 217 218
f 176 218 177
f 177 218 219
f 177 219 220
f 177 220 178
f 178 220 179
f 179 221 222
f 179 222 223
f 179 223 180
f 179 220 221
f 180 223 181
f 181 223 199
f 181 198 182
f 182 198 183
f 183 224 225
f 183 225 184
f 183 198 224
f 184 225 188
f 184 188 185
f 185 188 187
f 185 187 186
f 188 226 189
f 188 225 227
f 188 227 226
f 189 226 190
f 190 227 228
f 190 228 191
f 190 226 227
f 191 228 193
f 193 224 229
f 193 229 195
f 193 195 194
f 193 228 224
f 195 229 230
f 195 230 231
f 195 231 197
f 195 197 196
f 197 231 230
f 197 230 198
f 198 230 224
f 199 223 200
f 200 223 232
f 200 232 201
f 201 232 205
f 202 203 233
f 202 233 234
f 203 204 233
f 204 205 235
f 204 235 233
f 205 232 222
f 205 222 235
f 206 208 209
f 207 236 237
f 207 237 238
f 207 238 239
f 207 239 208
f 208 239 209
f 211 240 241
f 211 241 242
f 211 242 212
f 212 242 213
f 213 242 243
f 213 243 244
f 213 244 245
f 213 245 215
f 213 215 214
f 215 245 246
f 215 246 216
f 216 246 247
f 216 247 217
f 217 247 248
f 217 248 249
f 217 249 250
f 217 250 219
f 217 219 218
f 219 250 249
f 219 249 220
f 220 249 221
f 221 249 235
f 221 235 222
f 222 232 223
f 224 230 229
f 224 228 227
f 224 227 225
f 233 235 244
f 233 244 243
f 233 243 234
f 234 243 242
f 234 242 241
f 234 241 251
f 235 249 244
f 236 251 241
f 236 241 237
f 237 241 240
f 244 249 248
f 244 248 247
f 244 247 246
f 244 246 245
