v 0.331084 0.438681 0.0135873
v 0.32992 0.439762 0.0135873
v 0.331084 0.327657 0.0135873
v 0.331084 0.438681 -0.323595
v 0.326039 0.441723 0.0135873
v 0.32992 0.439762 -0.323595
v 0.000751841 0.466374 0.0135873
v 0.318376 0.311816 -0.350233
v 0.32355 0.310013 -0.350233
v 0.331084 0.307467 -0.350233
v 0.331084 0.438523 -0.332249
v 0.323582 0.442962 0.0135873
v 0.323582 0.442962 -0.323595
v 0.329823 0.439695 -0.331145
v 0.305571 0.451975 -0.348025
v 0.000751841 0.537648 0.0135873
v 0.000751841 0.453868 -0.350233
v 0.0146881 0.446928 -0.350233
v 0.074184 0.420406 -0.350233
v 0.183993 0.371508 -0.350233
v 0.293866 0.32261 -0.350233
v 0.331084 0.435729 -0.350233
v 0.331084 0.437982 -0.338054
v 0.32937 0.439379 -0.3393
v 0.309355 0.450105 0.0135873
v 0.305604 0.451975 -0.33581
v 0.309581 0.449767 -0.350233
v 0.305539 0.451953 -0.350233
v 0.301303 0.454094 -0.350233
v 0.274756 0.467411 -0.348025
v 0.116025 0.537648 0.0135873
v 0.000751841 0.537648 -0.350233
v 0.328206 0.438523 -0.348025
v 0.331084 0.436224 -0.348096
v 0.329305 0.437126 -0.350233
v 0.331084 0.437621 -0.34133
v 0.322095 0.442556 -0.348025
v 0.287302 0.461147 -0.128223
v 0.301659 0.453958 0.0135873
v 0.299169 0.455198 -0.323595
v 0.321707 0.442354 -0.350233
v 0.261758 0.473901 -0.350233
v 0.237345 0.486114 -0.350233
v 0.238445 0.485573 -0.348025
v 0.127504 0.537468 0.0135873
v 0.116025 0.537648 -0.116043
v 0.0671674 0.537648 -0.350233
v 0.327818 0.43823 -0.350233
v 0.326718 0.439041 -0.350233
v 0.15515 0.527238 0.0135873
v 0.287302 0.461147 0.0135873
v 0.20265 0.503465 -0.350233
v 0.201486 0.504051 -0.31138
v 0.132257 0.537265 0.0135873
v 0.122751 0.537468 -0.116043
v 0.116025 0.537626 -0.128223
v 0.103803 0.537626 -0.299164
v 0.103803 0.537648 -0.286949
v 0.0793899 0.537626 -0.350233
v 0.0793899 0.537648 -0.348025
v 0.15266 0.528477 -0.030537
v 0.15266 0.528477 0.0135873
v 0.159095 0.525255 -0.116043
v 0.201486 0.504028 -0.350233
v 0.183411 0.512997 -0.323595
v 0.183475 0.513019 -0.31138
v 0.183475 0.513042 -0.286949
v 0.132969 0.53722 0.0135873
v 0.122654 0.537446 -0.128223
v 0.110464 0.537446 -0.299164
v 0.110561 0.537468 -0.286949
v 0.110237 0.5374 -0.31138
v 0.0995021 0.537468 -0.348025
v 0.0916125 0.537626 -0.348025
v 0.0916125 0.537648 -0.33581
v 0.0914185 0.537603 -0.350233
v 0.144577 0.532398 0.0135873
v 0.159095 0.525232 -0.140438
v 0.191462 0.508805 -0.350233
v 0.183314 0.512929 -0.332534
v 0.158933 0.525165 -0.152653
v 0.133939 0.536905 0.0135873
v 0.140438 0.533232 -0.0671825
v 0.122266 0.537333 -0.148309
v 0.12246 0.5374 -0.140438
v 0.110043 0.537333 -0.31925
v 0.107327 0.537153 -0.33581
v 0.0990818 0.537446 -0.350233
v 0.0938112 0.537558 -0.350233
v 0.139727 0.534674 0.0135873
v 0.189263 0.509819 -0.350233
v 0.18396 0.512208 -0.350233
v 0.183055 0.512839 -0.340653
v 0.158772 0.525097 -0.159064
v 0.140438 0.533457 -0.0549674
v 0.140438 0.53366 -0.0427522
v 0.140438 0.532984 -0.0793977
v 0.128248 0.534989 -0.164868
v 0.116025 0.534989 -0.33581
v 0.116025 0.534043 -0.348025
v 0.105613 0.536612 -0.348025
v 0.103156 0.53686 -0.350233
v 0.182699 0.512726 -0.350233
v 0.182796 0.512749 -0.348025
v 0.164883 0.519238 -0.323595
v 0.164883 0.520095 -0.286949
v 0.140438 0.531271 -0.152653
v 0.140438 0.532128 -0.116043
v 0.156411 0.524308 -0.225909
v 0.128248 0.533277 -0.238088
v 0.128248 0.531271 -0.323595
v 0.151464 0.523385 -0.334777
v 0.128248 0.530978 -0.33581
v 0.14587 0.524872 -0.348025
v 0.139759 0.526765 -0.348025
v 0.128248 0.530325 -0.348025
v 0.129929 0.529536 -0.350233
v 0.118224 0.533074 -0.350233
v 0.116025 0.533682 -0.350233
v 0.166855 0.517886 -0.350233
v 0.164883 0.518945 -0.33581
v 0.154859 0.521785 -0.350233
v 0.147099 0.524286 -0.350233
f 1 2 5
f 1 5 12
f 1 12 25
f 1 25 39
f 1 39 51
f 1 51 50
f 1 50 62
f 1 62 77
f 1 77 90
f 1 90 82
f 1 82 68
f 1 68 54
f 1 54 45
f 1 45 31
f 1 31 16
f 1 16 7
f 1 7 3
f 1 3 10
f 1 10 22
f 1 22 34
f 1 34 36
f 1 36 23
f 1 23 11
f 1 11 4
f 1 4 6
f 1 6 2
f 2 6 5
f 3 7 8
f 3 8 9
f 3 9 10
f 4 11 6
f 5 6 13
f 5 13 12
f 6 11 14
f 6 14 15
f 6 15 13
f 7 16 32
f 7 32 17
f 7 17 18
f 7 18 19
f 7 19 20
f 7 20 21
f 7 21 8
f 8 21 20
f 8 20 19
f 8 19 18
f 8 18 17
f 8 17 32
f 8 32 47
f 8 47 59
f 8 59 76
f 8 76 89
f 8 89 88
f 8 88 102
f 8 102 119
f 8 119 118
f 8 118 117
f 8 117 123
f 8 123 122
f 8 122 120
f 8 120 103
f 8 103 92
f 8 92 91
f 8 91 79
f 8 79 64
f 8 64 52
f 8 52 43
f 8 43 42
f 8 42 29
f 8 29 28
f 8 28 27
f 8 27 41
f 8 41 49
f 8 49 48
f 8 48 35
f 8 35 22
f 8 22 10
f 8 10 9
f 11 23 24
f 11 24 14
f 12 13 25
f 13 15 26
f 13 26 25
f 14 24 27
f 14 27 28
f 14 28 15
f 15 28 29
f 15 29 30
f 15 30 26
f 16 31 46
f 16 46 58
f 16 58 75
f 16 75 60
f 16 60 47
f 16 47 32
f 22 33 34
f 22 35 33
f 23 36 24
f 24 36 33
f 24 33 37
f 24 37 27
f 25 38 39
f 25 26 38
f 26 30 40
f 26 40 38
f 27 37 41
f 29 42 30
f 30 42 43
f 30 43 44
f 30 44 38
f 30 38 40
f 31 45 46
f 33 35 48
f 33 48 49
f 33 49 41
f 33 41 37
f 33 36 34
f 38 50 51
f 38 51 39
f 38 44 50
f 43 52 44
f 44 52 53
f 44 53 50
f 45 54 55
f 45 55 46
f 46 55 56
f 46 56 57
f 46 57 58
f 47 60 74
f 47 74 59
f 50 61 62
f 50 53 63
f 50 63 61
f 52 64 65
f 52 65 66
f 52 66 67
f 52 67 63
f 52 63 53
f 54 68 69
f 54 69 55
f 55 69 70
f 55 70 71
f 55 71 56
f 56 71 57
f 57 71 70
f 57 70 72
f 57 72 73
f 57 73 74
f 57 74 75
f 57 75 58
f 59 74 76
f 60 75 74
f 61 77 62
f 61 63 78
f 61 78 77
f 63 67 66
f 63 66 78
f 64 79 80
f 64 80 65
f 65 80 81
f 65 81 78
f 65 78 66
f 68 82 83
f 68 83 84
f 68 84 85
f 68 85 69
f 69 85 70
f 70 85 72
f 72 86 73
f 72 85 84
f 72 84 86
f 73 87 88
f 73 88 89
f 73 89 74
f 73 86 87
f 74 89 76
f 77 78 90
f 78 81 90
f 79 91 80
f 80 91 92
f 80 92 93
f 80 93 94
f 80 94 81
f 81 94 83
f 81 83 95
f 81 95 96
f 81 96 82
f 81 82 90
f 82 96 95
f 82 95 83
f 83 94 97
f 83 97 84
f 84 97 98
f 84 98 99
f 84 99 86
f 86 99 87
f 87 99 100
f 87 100 101
f 87 101 102
f 87 102 88
f 92 103 104
f 92 104 93
f 93 104 105
f 93 105 106
f 93 106 94
f 94 107 108
f 94 108 97
f 94 106 105
f 94 105 109
f 94 109 107
f 97 108 98
f 98 108 107
f 98 107 110
f 98 110 99
f 99 110 111
f 99 111 112
f 99 112 113
f 99 113 114
f 99 114 115
f 99 115 116
f 99 116 100
f 100 116 117
f 100 117 118
f 100 118 119
f 100 119 102
f 100 102 101
f 103 120 114
f 103 114 113
f 103 113 112
f 103 112 121
f 103 121 104
f 104 121 105
f 105 121 112
f 105 112 110
f 105 110 109
f 107 109 110
f 110 112 111
f 114 120 122
f 114 122 123
f 114 123 115
f 115 123 116
f 116 123 117
