v -0.296087 -0.370484 0.360765
v -0.425172 -0.371354 0.360765
v -0.487308 -0.370484 0.409499
v -0.296338 -0.370484 0.439473
v 0.0058271 -0.477617 0.360779
v 0.00617788 -0.539143 0.360765
v -0.41981 -0.382635 0.360765
v -0.461802 -0.408772 0.412972
v -0.499285 -0.370484 0.425965
v -0.29744 -0.370484 0.457925
v 0.00622799 -0.480177 0.402937
v 0.00622799 -0.606031 0.404953
v -0.0550068 -0.601297 0.4007
v -0.109777 -0.539747 0.360765
v -0.376715 -0.421091 0.360765
v -0.400016 -0.461577 0.404526
v -0.411091 -0.453895 0.406439
v -0.421664 -0.446141 0.408425
v -0.429431 -0.435609 0.406395
v -0.442209 -0.426985 0.409455
v -0.455739 -0.419183 0.416916
v -0.505699 -0.370484 0.445712
v -0.300046 -0.370484 0.47058
v 0.00622799 -0.482351 0.421183
v 0.00622799 -0.615283 0.421359
v -0.0550068 -0.609461 0.410368
v -0.0367165 -0.605983 0.404953
v -0.0672337 -0.600282 0.401377
v -0.131676 -0.538587 0.360765
v -0.344594 -0.441672 0.360765
v -0.32004 -0.523707 0.404305
v -0.353313 -0.499961 0.403452
v -0.393051 -0.478076 0.413237
v -0.419108 -0.455804 0.416916
v -0.465761 -0.410897 0.433528
v -0.398613 -0.478052 0.433528
v -0.484101 -0.392539 0.445712
v -0.490114 -0.386451 0.457925
v -0.501991 -0.373866 0.457925
v -0.500387 -0.373117 0.470124
v -0.494875 -0.371499 0.487708
v -0.396809 -0.370484 0.511045
v -0.304957 -0.370484 0.482057
v 0.00472467 -0.489985 0.47442
v 0.00622799 -0.486482 0.449229
v 0.00622799 -0.484139 0.433411
v 0.00622799 -0.617264 0.433528
v -0.0610701 -0.617119 0.433528
v -0.0488933 -0.615066 0.421315
v -0.0741489 -0.611297 0.418063
v -0.128268 -0.600161 0.412781
v -0.0890818 -0.598325 0.40301
v -0.15197 -0.585957 0.403113
v -0.164899 -0.58458 0.404232
v -0.211351 -0.574604 0.404467
v -0.164899 -0.52878 0.360765
v -0.306861 -0.465297 0.360765
v -0.283109 -0.47781 0.360765
v -0.230593 -0.564241 0.401554
v -0.248583 -0.562308 0.407837
v -0.27474 -0.549651 0.408322
v -0.306611 -0.537959 0.413826
v -0.340335 -0.515639 0.409058
v -0.384282 -0.488221 0.419476
v -0.397861 -0.477303 0.421315
v -0.408385 -0.466167 0.416989
v -0.368797 -0.500203 0.418181
v -0.462754 -0.413965 0.457925
v -0.386336 -0.490057 0.433528
v -0.386386 -0.490226 0.451819
v -0.480293 -0.394858 0.470124
v -0.489814 -0.38319 0.475024
v -0.477286 -0.391886 0.484353
v -0.464959 -0.403989 0.4855
v -0.454185 -0.41155 0.490709
v -0.456941 -0.400559 0.500421
v -0.474981 -0.373214 0.504188
v -0.457894 -0.371499 0.50922
v -0.445717 -0.371499 0.510486
v -0.427376 -0.371499 0.511001
v -0.360178 -0.396911 0.511089
v -0.323548 -0.40911 0.511089
v -0.225933 -0.445755 0.511089
v -0.0672337 -0.506749 0.511089
v -0.030553 -0.518948 0.511074
v -0.384632 -0.371499 0.511001
v -0.372405 -0.370484 0.510015
v -0.313025 -0.370484 0.491563
v -0.0118618 -0.488342 0.488708
v 0.0048249 -0.501048 0.498302
v 0.00622799 -0.518948 0.508558
v 0.00622799 -0.617264 0.470256
v -0.0672337 -0.617264 0.470124
v -0.0977509 -0.617167 0.451819
v -0.116041 -0.616418 0.451819
v -0.128268 -0.615186 0.445712
v -0.085524 -0.615742 0.433528
v -0.110529 -0.613109 0.433455
v -0.0966985 -0.610814 0.423787
v -0.128268 -0.604823 0.421315
v -0.147059 -0.600499 0.419549
v -0.193061 -0.586899 0.414017
v -0.177075 -0.588808 0.411662
v -0.177075 -0.5833 0.405556
v -0.140445 -0.593204 0.407969
v -0.128268 -0.594388 0.406659
v -0.225933 -0.573734 0.408602
v -0.205338 -0.515156 0.360765
v -0.230142 -0.504213 0.360765
v -0.257803 -0.562381 0.413826
v -0.27474 -0.555907 0.421315
v -0.330714 -0.527113 0.419137
v -0.353113 -0.514189 0.422125
v -0.360379 -0.512933 0.433528
v -0.373458 -0.501676 0.433528
v -0.432187 -0.444474 0.457925
v -0.407032 -0.468148 0.470124
v -0.425372 -0.449813 0.470124
v -0.462003 -0.413192 0.470124
v -0.374059 -0.502159 0.451819
v -0.361632 -0.513851 0.445712
v -0.385635 -0.489381 0.470124
v -0.403123 -0.464234 0.488679
v -0.4153 -0.452035 0.488679
v -0.436547 -0.424425 0.496831
v -0.399916 -0.46107 0.496831
v -0.420712 -0.432952 0.502731
v -0.43349 -0.40911 0.506425
v -0.421263 -0.40911 0.509235
v -0.421263 -0.396911 0.510633
v -0.409036 -0.402998 0.510898
v -0.341888 -0.470177 0.510898
v -0.23821 -0.518948 0.511089
v -0.00614925 -0.531171 0.511089
v -0.0122627 -0.518948 0.510294
v -0.360178 -0.370484 0.507925
v -0.0183762 -0.506749 0.507646
v -0.330162 -0.370484 0.500083
v -0.00614925 -0.506749 0.505542
v -0.347901 -0.370484 0.505306
v 0.00617788 -0.537234 0.51103
v 0.00617788 -0.573903 0.510957
v 0.00622799 -0.596803 0.505174
v 0.00622799 -0.614993 0.482381
v -0.0672337 -0.614993 0.482351
v -0.085524 -0.616926 0.470124
v -0.103814 -0.615404 0.470124
v -0.128268 -0.61364 0.462663
v -0.15197 -0.60963 0.45329
v -0.164899 -0.605645 0.445712
v -0.140044 -0.611321 0.440591
v -0.128268 -0.610524 0.433558
v -0.112934 -0.610283 0.427952
v -0.152722 -0.605403 0.433528
v -0.168406 -0.596634 0.422066
v -0.208094 -0.585426 0.420565
v -0.225933 -0.579556 0.421315
v -0.237158 -0.571101 0.413075
v -0.242018 -0.574652 0.433322
v -0.322796 -0.534505 0.433631
v -0.342941 -0.524117 0.432675
v -0.346248 -0.524069 0.445712
v -0.372606 -0.500734 0.470124
v -0.340686 -0.526292 0.45872
v -0.360379 -0.513006 0.457925
v -0.366943 -0.501145 0.485456
v -0.377116 -0.488608 0.490135
v -0.385484 -0.47711 0.494785
v -0.361982 -0.486627 0.504203
v -0.374059 -0.474863 0.504247
v -0.396809 -0.445755 0.506425
v -0.360178 -0.470177 0.509235
v -0.329661 -0.482376 0.510618
v -0.171012 -0.555593 0.510942
v -0.189302 -0.54337 0.511089
v -0.152722 -0.555593 0.511089
v -0.109928 -0.567792 0.51106
v -0.0672337 -0.580015 0.510854
v -0.0672337 -0.596828 0.505174
v 0.00622799 -0.609582 0.493682
v -0.0672337 -0.609582 0.493682
v -0.0794105 -0.612022 0.487766
v -0.103814 -0.612118 0.479762
v -0.140395 -0.610428 0.463855
v -0.164899 -0.605451 0.457925
v -0.182688 -0.597262 0.435059
v -0.201579 -0.593325 0.457925
v -0.201579 -0.593446 0.445712
v -0.201579 -0.590885 0.433528
v -0.216763 -0.586658 0.43834
v -0.248633 -0.573058 0.445712
v -0.265971 -0.564144 0.441739
v -0.324851 -0.534891 0.451819
v -0.294484 -0.550206 0.445712
v -0.33793 -0.525567 0.470756
v -0.243371 -0.574459 0.465062
v -0.318036 -0.536099 0.470197
v -0.352461 -0.513465 0.478143
v -0.331616 -0.524721 0.484912
v -0.344093 -0.514334 0.490238
v -0.358625 -0.501121 0.4953
v -0.341588 -0.49943 0.504158
v -0.348002 -0.482376 0.508926
v -0.323548 -0.49455 0.509147
v -0.23821 -0.531171 0.510309
v -0.207643 -0.54337 0.510618
v -0.189302 -0.555593 0.510221
v -0.128268 -0.567792 0.510824
v -0.085524 -0.580015 0.51053
v -0.085524 -0.596586 0.504924
v -0.105668 -0.595644 0.503467
v -0.0917376 -0.610331 0.488443
v -0.125512 -0.607746 0.478128
v -0.103814 -0.606804 0.490194
v -0.164648 -0.599292 0.475465
v -0.174921 -0.599606 0.467328
v -0.201579 -0.59062 0.470124
v -0.183139 -0.599364 0.45844
v -0.212604 -0.585547 0.474803
v -0.22012 -0.58632 0.458793
v -0.266923 -0.560859 0.473155
v -0.225933 -0.581658 0.470124
v -0.234502 -0.575087 0.479997
v -0.307613 -0.538466 0.479997
v -0.280553 -0.549361 0.488134
v -0.325352 -0.519818 0.495477
v -0.305057 -0.524939 0.500568
v -0.227787 -0.56255 0.501245
v -0.240665 -0.547984 0.504997
v -0.213706 -0.560811 0.505277
v -0.201579 -0.555593 0.509147
v -0.171012 -0.567792 0.508676
v -0.152722 -0.567792 0.509721
v -0.140445 -0.567792 0.510324
v -0.103814 -0.580015 0.509721
v -0.116041 -0.580015 0.509088
v -0.134381 -0.580015 0.50769
v -0.11554 -0.6012 0.495065
v -0.189302 -0.572092 0.504821
v -0.154526 -0.583445 0.503467
v -0.149064 -0.597576 0.486987
v -0.132778 -0.599606 0.490577
v -0.189052 -0.587189 0.48759
v -0.201579 -0.586296 0.482646
v -0.227136 -0.572068 0.491725
v -0.252141 -0.556463 0.495477
v -0.208545 -0.576416 0.495756
v -0.164398 -0.589001 0.495065
v -0.177075 -0.587962 0.491504
f 1 2 3
f 1 3 9
f 1 9 22
f 1 22 42
f 1 42 87
f 1 87 136
f 1 136 140
f 1 140 138
f 1 138 88
f 1 88 43
f 1 43 23
f 1 23 10
f 1 10 4
f 1 4 5
f 1 5 6
f 1 6 14
f 1 14 29
f 1 29 56
f 1 56 108
f 1 108 109
f 1 109 58
f 1 58 57
f 1 57 30
f 1 30 15
f 1 15 7
f 1 7 2
f 2 7 3
f 3 7 8
f 3 8 9
f 4 10 5
f 5 11 6
f 5 10 11
f 6 11 12
f 6 12 13
f 6 13 14
f 7 15 16
f 7 16 17
f 7 17 18
f 7 18 19
f 7 19 20
f 7 20 8
f 8 20 21
f 8 21 9
f 9 21 22
f 10 23 11
f 11 24 46
f 11 46 45
f 11 45 91
f 11 91 143
f 11 143 180
f 11 180 144
f 11 144 92
f 11 92 47
f 11 47 25
f 11 25 12
f 11 23 24
f 12 25 26
f 12 26 27
f 12 27 13
f 13 27 26
f 13 26 28
f 13 28 29
f 13 29 14
f 15 30 31
f 15 31 32
f 15 32 16
f 16 32 33
f 16 33 17
f 17 33 18
f 18 33 34
f 18 34 20
f 18 20 19
f 20 34 21
f 21 35 22
f 21 34 36
f 21 36 35
f 22 35 37
f 22 37 38
f 22 38 39
f 22 39 40
f 22 40 41
f 22 41 42
f 23 43 44
f 23 44 45
f 23 45 46
f 23 46 24
f 25 47 48
f 25 48 49
f 25 49 26
f 26 49 50
f 26 50 51
f 26 51 52
f 26 52 28
f 28 52 29
f 29 53 54
f 29 54 55
f 29 55 56
f 29 52 53
f 30 57 31
f 31 57 58
f 31 58 59
f 31 59 60
f 31 60 61
f 31 61 62
f 31 62 63
f 31 63 32
f 32 63 33
f 33 64 65
f 33 65 66
f 33 66 34
f 33 63 67
f 33 67 64
f 34 66 65
f 34 65 36
f 35 68 37
f 35 36 68
f 36 65 69
f 36 69 70
f 36 70 68
f 37 68 38
f 38 68 71
f 38 71 39
f 39 71 40
f 40 72 41
f 40 71 72
f 41 72 73
f 41 73 74
f 41 74 75
f 41 75 76
f 41 76 77
f 41 77 78
f 41 78 42
f 42 78 79
f 42 79 80
f 42 80 81
f 42 81 82
f 42 82 83
f 42 83 84
f 42 84 85
f 42 85 86
f 42 86 87
f 43 88 44
f 44 89 90
f 44 90 45
f 44 88 89
f 45 90 91
f 47 92 93
f 47 93 94
f 47 94 48
f 48 94 95
f 48 95 96
f 48 96 97
f 48 97 49
f 49 97 50
f 50 97 98
f 50 98 99
f 50 99 100
f 50 100 51
f 51 100 101
f 51 101 102
f 51 102 103
f 51 103 104
f 51 104 105
f 51 105 106
f 51 106 52
f 52 106 54
f 52 54 53
f 54 104 55
f 54 106 105
f 54 105 104
f 55 102 107
f 55 107 59
f 55 59 56
f 55 104 103
f 55 103 102
f 56 59 108
f 58 109 59
f 59 109 108
f 59 107 60
f 60 110 61
f 60 107 110
f 61 110 62
f 62 110 111
f 62 111 112
f 62 112 63
f 63 112 113
f 63 113 67
f 64 67 114
f 64 114 65
f 65 114 115
f 65 115 69
f 67 113 114
f 68 70 116
f 68 116 117
f 68 117 118
f 68 118 119
f 68 119 71
f 69 120 70
f 69 115 121
f 69 121 120
f 70 120 122
f 70 122 116
f 71 119 74
f 71 74 72
f 72 74 73
f 74 119 118
f 74 118 117
f 74 117 123
f 74 123 124
f 74 124 75
f 75 125 76
f 75 124 123
f 75 123 125
f 76 125 126
f 76 126 127
f 76 127 77
f 77 127 128
f 77 128 78
f 78 128 129
f 78 129 130
f 78 130 79
f 79 130 131
f 79 131 80
f 80 131 132
f 80 132 133
f 80 133 81
f 81 133 175
f 81 175 176
f 81 176 134
f 81 134 84
f 81 84 83
f 81 83 82
f 84 134 85
f 85 134 135
f 85 135 86
f 86 135 87
f 87 135 91
f 87 91 137
f 87 137 136
f 88 138 90
f 88 90 89
f 90 139 91
f 90 138 140
f 90 140 139
f 91 135 141
f 91 141 142
f 91 142 143
f 91 139 137
f 92 144 145
f 92 145 93
f 93 145 146
f 93 146 94
f 94 146 95
f 95 146 147
f 95 147 148
f 95 148 96
f 96 148 149
f 96 149 150
f 96 150 151
f 96 151 152
f 96 152 98
f 96 98 97
f 98 152 153
f 98 153 99
f 99 153 100
f 100 152 101
f 100 153 152
f 101 151 154
f 101 154 155
f 101 155 102
f 101 152 151
f 102 156 107
f 102 155 154
f 102 154 156
f 107 157 158
f 107 158 110
f 107 156 157
f 110 158 157
f 110 157 159
f 110 159 111
f 111 159 160
f 111 160 161
f 111 161 112
f 112 161 113
f 113 161 114
f 114 161 162
f 114 162 121
f 114 121 115
f 116 122 117
f 117 122 123
f 120 121 163
f 120 163 122
f 121 162 164
f 121 164 165
f 121 165 163
f 122 163 166
f 122 166 123
f 123 166 167
f 123 167 168
f 123 168 125
f 125 168 126
f 126 168 169
f 126 169 127
f 127 169 170
f 127 170 171
f 127 171 128
f 128 171 172
f 128 172 129
f 129 172 130
f 130 172 132
f 130 132 131
f 132 172 173
f 132 173 133
f 133 174 175
f 133 173 174
f 134 142 141
f 134 141 135
f 134 176 177
f 134 177 142
f 136 137 139
f 136 139 140
f 142 177 178
f 142 178 143
f 143 178 179
f 143 179 180
f 144 180 181
f 144 181 145
f 145 181 182
f 145 182 147
f 145 147 146
f 147 182 183
f 147 183 148
f 148 184 149
f 148 183 184
f 149 184 185
f 149 185 150
f 150 186 151
f 150 185 187
f 150 187 188
f 150 188 189
f 150 189 186
f 151 186 156
f 151 156 154
f 156 186 189
f 156 189 157
f 157 189 190
f 157 190 159
f 159 191 192
f 159 192 160
f 159 190 191
f 160 192 162
f 160 162 161
f 162 193 164
f 162 192 194
f 162 194 193
f 163 165 166
f 164 195 165
f 164 193 196
f 164 196 197
f 164 197 195
f 165 195 198
f 165 198 166
f 166 198 199
f 166 199 200
f 166 200 201
f 166 201 167
f 167 201 168
f 168 201 169
f 169 201 202
f 169 202 203
f 169 203 172
f 169 172 171
f 169 171 170
f 172 203 173
f 173 203 204
f 173 204 205
f 173 205 206
f 173 206 174
f 174 176 175
f 174 206 207
f 174 207 208
f 174 208 177
f 174 177 176
f 177 208 178
f 178 208 209
f 178 209 179
f 179 209 210
f 179 210 181
f 179 181 180
f 181 210 211
f 181 211 212
f 181 212 182
f 182 212 183
f 183 213 184
f 183 212 214
f 183 214 213
f 184 215 216
f 184 216 185
f 184 213 215
f 185 216 217
f 185 217 218
f 185 218 187
f 187 217 219
f 187 219 220
f 187 220 188
f 187 218 217
f 188 220 190
f 188 190 189
f 190 220 191
f 191 196 193
f 191 193 194
f 191 194 192
f 191 220 196
f 195 197 199
f 195 199 198
f 196 221 197
f 196 220 222
f 196 222 223
f 196 223 221
f 197 221 224
f 197 224 199
f 199 224 225
f 199 225 200
f 200 225 226
f 200 226 201
f 201 226 227
f 201 227 202
f 202 227 228
f 202 228 229
f 202 229 230
f 202 230 204
f 202 204 203
f 204 230 231
f 204 231 205
f 205 231 207
f 205 207 206
f 207 231 232
f 207 232 233
f 207 233 234
f 207 234 208
f 208 234 209
f 209 234 235
f 209 235 210
f 210 235 236
f 210 236 237
f 210 237 211
f 211 238 212
f 211 237 239
f 211 239 240
f 211 240 248
f 211 248 238
f 212 238 214
f 213 214 241
f 213 241 215
f 214 238 242
f 214 242 241
f 215 241 243
f 215 243 244
f 215 244 216
f 216 244 217
f 217 244 219
f 219 223 222
f 219 222 220
f 219 244 223
f 221 223 224
f 223 244 245
f 223 245 225
f 223 225 224
f 225 246 226
f 225 245 246
f 226 246 227
f 227 246 228
f 228 245 247
f 228 247 239
f 228 239 230
f 228 230 229
f 228 246 245
f 230 239 231
f 231 239 232
f 232 237 236
f 232 236 233
f 232 239 237
f 233 236 235
f 233 235 234
f 238 248 242
f 239 247 240
f 240 247 248
f 241 242 249
f 241 249 243
f 242 248 249
f 243 247 244
f 243 249 247
f 244 247 245
f 247 249 248
