v 0.27702 -0.27534 -0.443127
v 0.298012 -0.27534 -0.472856
v 0.428361 -0.27534 -0.443127
v 0.395658 -0.00595518 -0.443127
v 0.413866 -0.00595518 -0.478811
v 0.41707 -0.00595518 -0.484886
v 0.423478 -0.00595518 -0.495605
v 0.304752 -0.27534 -0.482351
v 0.418285 -0.27534 -0.46909
v 0.418462 -0.274971 -0.469356
v 0.426704 -0.267482 -0.462117
v 0.43024 -0.272519 -0.443127
v 0.502474 -0.00595518 -0.443127
v 0.424185 -0.00595518 -0.49655
v 0.312552 -0.27534 -0.492904
v 0.418042 -0.27534 -0.469655
v 0.416959 -0.271042 -0.480255
v 0.42518 -0.265135 -0.470141
v 0.426373 -0.254561 -0.485372
v 0.427699 -0.256961 -0.477227
v 0.436206 -0.261312 -0.443127
v 0.502607 -0.00595518 -0.443346
v 0.50274 -0.00598156 -0.443127
v 0.431499 -0.00595518 -0.503237
v 0.426837 -0.00896124 -0.501114
v 0.313745 -0.27534 -0.494201
v 0.411966 -0.27534 -0.482637
v 0.415148 -0.268616 -0.488392
v 0.418219 -0.260468 -0.492252
v 0.428494 -0.246413 -0.490202
v 0.438659 -0.230144 -0.485478
v 0.429665 -0.250421 -0.481719
v 0.442084 -0.250026 -0.443127
v 0.483007 -0.00595518 -0.482471
v 0.50274 -0.0183222 -0.443127
v 0.432449 -0.00595518 -0.503763
v 0.323755 -0.27534 -0.502811
v 0.353674 -0.194203 -0.501094
v 0.32939 -0.255563 -0.500995
v 0.411502 -0.27534 -0.483475
v 0.411833 -0.274971 -0.483535
v 0.405734 -0.27534 -0.492724
v 0.406198 -0.274259 -0.493476
v 0.404165 -0.269882 -0.50152
v 0.414794 -0.255774 -0.500389
v 0.425334 -0.238107 -0.498732
v 0.430571 -0.238107 -0.492631
v 0.440714 -0.221996 -0.490202
v 0.448735 -0.237 -0.443127
v 0.43625 -0.23729 -0.481785
v 0.450878 -0.205462 -0.485478
v 0.448448 -0.212872 -0.481785
v 0.466633 -0.201217 -0.443127
v 0.454436 -0.225635 -0.443127
v 0.447917 -0.238608 -0.443127
v 0.478124 -0.00595518 -0.492165
v 0.483051 -0.0916014 -0.482351
v 0.478124 -0.0916014 -0.492165
v 0.502717 -0.0307683 -0.443127
v 0.445708 -0.00595518 -0.509199
v 0.433488 -0.0183222 -0.506218
v 0.42129 -0.054975 -0.507189
v 0.409071 -0.0793926 -0.506125
v 0.325346 -0.27534 -0.503377
v 0.409071 -0.0916014 -0.507948
v 0.404497 -0.27534 -0.494421
v 0.397448 -0.27534 -0.501161
v 0.395791 -0.27534 -0.502671
v 0.396387 -0.274259 -0.502851
v 0.396851 -0.262525 -0.506278
v 0.40664 -0.262525 -0.502705
v 0.416893 -0.247626 -0.50168
v 0.427014 -0.231357 -0.500416
v 0.437532 -0.213689 -0.498732
v 0.442791 -0.213689 -0.492624
v 0.452624 -0.197314 -0.489816
v 0.453839 -0.201428 -0.481785
v 0.463562 -0.194071 -0.462622
v 0.464865 -0.197077 -0.454485
v 0.45216 -0.208257 -0.477334
v 0.471008 -0.191513 -0.443127
v 0.478079 -0.00595518 -0.492238
v 0.490211 -0.0793926 -0.467746
v 0.482631 -0.10381 -0.482351
v 0.478124 -0.10381 -0.492085
v 0.502563 -0.0427662 -0.443127
v 0.47419 -0.0916014 -0.498273
v 0.457772 -0.00595518 -0.508241
v 0.445708 -0.0183222 -0.510084
v 0.42129 -0.0793926 -0.509997
v 0.409071 -0.10381 -0.509358
v 0.42129 -0.0671838 -0.508873
v 0.33582 -0.27534 -0.506817
v 0.396851 -0.128228 -0.5085
v 0.384654 -0.27534 -0.506165
v 0.384676 -0.262525 -0.508979
v 0.396851 -0.250316 -0.508819
v 0.409071 -0.238107 -0.507422
v 0.384676 -0.274733 -0.506338
v 0.410065 -0.25116 -0.504009
v 0.419235 -0.238107 -0.502844
v 0.429091 -0.223209 -0.50168
v 0.439211 -0.206649 -0.500409
v 0.44858 -0.189272 -0.497827
v 0.454038 -0.189272 -0.491719
v 0.464843 -0.161163 -0.489823
v 0.463473 -0.169311 -0.486882
v 0.458391 -0.189272 -0.482351
v 0.476245 -0.177643 -0.443127
v 0.47187 -0.189272 -0.443127
v 0.47419 -0.0183222 -0.498273
v 0.47419 -0.00595518 -0.498267
v 0.487272 -0.0916014 -0.473155
v 0.481063 -0.116019 -0.482351
v 0.477704 -0.116019 -0.491187
v 0.489614 -0.0916014 -0.467047
v 0.474014 -0.10381 -0.498187
v 0.501701 -0.054975 -0.443127
v 0.468092 -0.0916014 -0.503091
v 0.474124 -0.00595518 -0.498326
v 0.457927 -0.00595518 -0.508227
v 0.445708 -0.030531 -0.510816
v 0.433488 -0.054975 -0.51047
v 0.409071 -0.116019 -0.510157
v 0.396851 -0.140437 -0.509591
v 0.372456 -0.201481 -0.508986
v 0.348039 -0.274733 -0.509172
v 0.348039 -0.27534 -0.509212
v 0.372456 -0.27534 -0.508853
v 0.384676 -0.250316 -0.510616
v 0.396851 -0.238107 -0.510463
v 0.372456 -0.274733 -0.508979
v 0.409071 -0.225898 -0.509265
v 0.42129 -0.213689 -0.507422
v 0.431433 -0.213689 -0.502844
v 0.434482 -0.20214 -0.503822
v 0.440824 -0.198501 -0.501367
v 0.451873 -0.17113 -0.500702
v 0.450348 -0.179278 -0.499584
v 0.460844 -0.152619 -0.497827
v 0.466258 -0.152619 -0.491719
v 0.47693 -0.124483 -0.489736
v 0.475693 -0.132605 -0.486802
v 0.479008 -0.168572 -0.443127
v 0.484488 -0.116019 -0.470141
v 0.478168 -0.128412 -0.482577
v 0.486984 -0.104048 -0.469868
v 0.488134 -0.108267 -0.462749
v 0.472953 -0.116019 -0.497295
v 0.488907 -0.100119 -0.46561
v 0.500464 -0.0678694 -0.443127
v 0.466854 -0.116019 -0.502312
v 0.467915 -0.10381 -0.502957
v 0.457927 -0.10381 -0.508054
v 0.457927 -0.0916014 -0.508247
v 0.468092 -0.00595518 -0.503091
v 0.457927 -0.0183222 -0.508247
v 0.445708 -0.0427662 -0.511035
v 0.433488 -0.0671838 -0.510935
v 0.42129 -0.0916014 -0.510589
v 0.396851 -0.152619 -0.51021
v 0.360259 -0.250316 -0.509824
v 0.372456 -0.213689 -0.509758
v 0.384676 -0.177063 -0.509691
v 0.360259 -0.262525 -0.51027
v 0.360259 -0.274733 -0.51021
v 0.360259 -0.27534 -0.51015
v 0.384676 -0.238107 -0.511095
v 0.396851 -0.225898 -0.511048
v 0.372456 -0.262525 -0.510616
v 0.409071 -0.213689 -0.510463
v 0.42129 -0.201481 -0.509252
v 0.433488 -0.189272 -0.506797
v 0.442481 -0.189272 -0.502265
v 0.446061 -0.175929 -0.502818
v 0.445708 -0.164854 -0.50494
v 0.457927 -0.128228 -0.504947
v 0.464092 -0.13453 -0.500702
v 0.462567 -0.142625 -0.499584
v 0.480002 -0.165223 -0.443127
v 0.491846 -0.116204 -0.443127
v 0.482499 -0.155071 -0.443127
v 0.493967 -0.105972 -0.443127
v 0.465042 -0.128228 -0.501261
v 0.496044 -0.0944492 -0.443127
v 0.457927 -0.116019 -0.50693
v 0.445708 -0.140437 -0.50846
v 0.445708 -0.128228 -0.509565
v 0.445708 -0.116019 -0.510496
v 0.445708 -0.10381 -0.510982
v 0.445708 -0.0916014 -0.511042
v 0.445708 -0.054975 -0.511042
v 0.433488 -0.0793926 -0.511095
v 0.42129 -0.10381 -0.510962
v 0.372456 -0.238107 -0.510762
v 0.384676 -0.201481 -0.510722
v 0.396851 -0.164854 -0.510676
v 0.384676 -0.189272 -0.510257
v 0.372456 -0.225898 -0.510297
v 0.372456 -0.250316 -0.511048
v 0.384676 -0.225898 -0.511095
v 0.42129 -0.164854 -0.511095
v 0.409071 -0.201481 -0.511048
v 0.42129 -0.177063 -0.511008
v 0.42129 -0.189272 -0.51041
v 0.433488 -0.177063 -0.50846
v 0.445708 -0.152619 -0.50693
v 0.433488 -0.164854 -0.509565
v 0.433488 -0.152619 -0.510496
v 0.433488 -0.140437 -0.511008
v 0.433488 -0.128228 -0.511095
v 0.409071 -0.152619 -0.511095
v 0.384676 -0.213689 -0.511028
v 0.396851 -0.189272 -0.511095
f 1 2 8
f 1 8 15
f 1 15 26
f 1 26 37
f 1 37 64
f 1 64 93
f 1 93 128
f 1 128 167
f 1 167 129
f 1 129 95
f 1 95 68
f 1 68 67
f 1 67 66
f 1 66 42
f 1 42 40
f 1 40 27
f 1 27 16
f 1 16 9
f 1 9 3
f 1 3 12
f 1 12 21
f 1 21 33
f 1 33 55
f 1 55 49
f 1 49 54
f 1 54 53
f 1 53 81
f 1 81 110
f 1 110 109
f 1 109 144
f 1 144 180
f 1 180 182
f 1 182 181
f 1 181 183
f 1 183 185
f 1 185 151
f 1 151 118
f 1 118 86
f 1 86 59
f 1 59 35
f 1 35 23
f 1 23 13
f 1 13 4
f 1 4 5
f 1 5 6
f 1 6 7
f 1 7 2
f 2 7 8
f 3 9 10
f 3 10 11
f 3 11 12
f 4 13 22
f 4 22 34
f 4 34 56
f 4 56 82
f 4 82 112
f 4 112 120
f 4 120 156
f 4 156 121
f 4 121 88
f 4 88 60
f 4 60 36
f 4 36 24
f 4 24 14
f 4 14 7
f 4 7 6
f 4 6 5
f 7 14 15
f 7 15 8
f 9 16 17
f 9 17 10
f 10 17 11
f 11 17 18
f 11 18 19
f 11 19 12
f 12 19 20
f 12 20 21
f 13 23 22
f 14 24 25
f 14 25 15
f 15 25 26
f 16 27 17
f 17 28 19
f 17 19 18
f 17 27 28
f 19 29 30
f 19 30 31
f 19 31 32
f 19 32 33
f 19 33 20
f 19 28 29
f 20 33 21
f 22 23 34
f 23 35 34
f 24 36 37
f 24 37 25
f 25 37 38
f 25 38 26
f 26 38 39
f 26 39 37
f 27 40 41
f 27 41 28
f 28 41 42
f 28 42 43
f 28 43 44
f 28 44 29
f 29 45 30
f 29 44 45
f 30 46 47
f 30 47 48
f 30 48 31
f 30 45 46
f 31 49 50
f 31 50 32
f 31 48 51
f 31 51 52
f 31 52 53
f 31 53 54
f 31 54 49
f 32 50 49
f 32 49 55
f 32 55 33
f 34 35 57
f 34 57 58
f 34 58 56
f 35 59 57
f 36 60 61
f 36 61 62
f 36 62 63
f 36 63 37
f 37 39 38
f 37 63 62
f 37 62 60
f 37 60 65
f 37 65 64
f 40 42 41
f 42 66 43
f 43 66 44
f 44 66 67
f 44 67 68
f 44 68 69
f 44 69 70
f 44 70 71
f 44 71 45
f 45 71 72
f 45 72 73
f 45 73 46
f 46 73 74
f 46 74 75
f 46 75 47
f 47 75 48
f 48 75 76
f 48 76 51
f 51 76 77
f 51 77 78
f 51 78 79
f 51 79 53
f 51 53 80
f 51 80 52
f 52 80 53
f 53 79 81
f 56 58 82
f 57 83 84
f 57 84 85
f 57 85 58
f 57 59 86
f 57 86 83
f 58 85 87
f 58 87 82
f 60 62 61
f 60 88 89
f 60 89 90
f 60 90 91
f 60 91 92
f 60 92 65
f 64 65 93
f 65 92 94
f 65 94 93
f 68 95 69
f 69 95 70
f 70 96 97
f 70 97 98
f 70 98 71
f 70 95 99
f 70 99 96
f 71 98 100
f 71 100 72
f 72 101 135
f 72 135 102
f 72 102 73
f 72 100 101
f 73 102 103
f 73 103 74
f 74 103 76
f 74 76 75
f 76 78 77
f 76 103 104
f 76 104 105
f 76 105 106
f 76 106 107
f 76 107 108
f 76 108 78
f 78 108 109
f 78 109 110
f 78 110 81
f 78 81 79
f 82 111 112
f 82 87 111
f 83 113 84
f 83 86 113
f 84 114 115
f 84 115 85
f 84 113 116
f 84 116 114
f 85 115 117
f 85 117 87
f 86 118 113
f 87 117 119
f 87 119 120
f 87 120 111
f 88 121 89
f 89 121 122
f 89 122 123
f 89 123 90
f 90 124 125
f 90 125 91
f 90 123 124
f 91 125 93
f 91 93 94
f 91 94 92
f 93 126 127
f 93 127 128
f 93 125 126
f 95 129 99
f 96 130 131
f 96 131 97
f 96 99 129
f 96 129 132
f 96 132 170
f 96 170 130
f 97 131 133
f 97 133 98
f 98 101 100
f 98 133 134
f 98 134 101
f 101 134 135
f 102 135 103
f 103 136 137
f 103 137 138
f 103 138 139
f 103 139 104
f 103 135 136
f 104 139 140
f 104 140 105
f 105 140 141
f 105 141 106
f 106 141 142
f 106 142 143
f 106 143 107
f 107 109 108
f 107 143 109
f 109 143 144
f 111 120 112
f 113 118 116
f 114 145 146
f 114 146 142
f 114 142 115
f 114 116 147
f 114 147 148
f 114 148 145
f 115 142 149
f 115 149 117
f 116 150 147
f 116 118 151
f 116 151 150
f 117 149 152
f 117 152 153
f 117 153 119
f 119 153 154
f 119 154 155
f 119 155 157
f 119 157 156
f 119 156 120
f 121 156 157
f 121 157 158
f 121 158 122
f 122 158 159
f 122 159 123
f 123 159 160
f 123 160 124
f 124 161 162
f 124 162 163
f 124 163 164
f 124 164 125
f 124 160 161
f 125 164 126
f 126 164 128
f 126 128 127
f 128 162 165
f 128 165 166
f 128 166 167
f 128 164 163
f 128 163 162
f 129 167 132
f 130 168 169
f 130 169 131
f 130 170 168
f 131 169 203
f 131 203 171
f 131 171 133
f 132 167 170
f 133 171 172
f 133 172 134
f 134 172 173
f 134 173 136
f 134 136 135
f 136 173 137
f 137 173 174
f 137 174 138
f 138 174 175
f 138 175 176
f 138 176 177
f 138 177 178
f 138 178 139
f 139 178 179
f 139 179 140
f 140 179 141
f 141 179 142
f 142 146 143
f 142 179 149
f 143 146 180
f 143 180 144
f 145 148 181
f 145 181 146
f 146 181 182
f 146 182 180
f 147 150 183
f 147 183 148
f 148 183 181
f 149 179 178
f 149 178 184
f 149 184 152
f 150 185 183
f 150 151 185
f 152 184 177
f 152 177 186
f 152 186 153
f 153 186 154
f 154 186 187
f 154 187 188
f 154 188 189
f 154 189 190
f 154 190 155
f 155 190 191
f 155 191 192
f 155 192 157
f 157 192 158
f 158 192 193
f 158 193 159
f 159 193 194
f 159 194 195
f 159 195 196
f 159 196 197
f 159 197 160
f 160 197 161
f 161 197 196
f 161 196 198
f 161 198 162
f 162 195 165
f 162 198 199
f 162 199 195
f 165 195 200
f 165 200 166
f 166 200 170
f 166 170 167
f 168 170 200
f 168 200 201
f 168 201 214
f 168 214 212
f 168 212 193
f 168 193 211
f 168 211 202
f 168 202 203
f 168 203 169
f 171 203 204
f 171 204 205
f 171 205 172
f 172 205 206
f 172 206 173
f 173 206 207
f 173 207 176
f 173 176 175
f 173 175 174
f 176 207 177
f 177 184 178
f 177 207 186
f 186 207 206
f 186 206 187
f 187 206 208
f 187 208 188
f 188 208 189
f 189 208 209
f 189 209 204
f 189 204 210
f 189 210 190
f 190 210 211
f 190 211 191
f 191 211 193
f 191 193 192
f 193 212 200
f 193 200 213
f 193 213 194
f 194 213 195
f 195 213 200
f 195 199 198
f 195 198 196
f 200 212 214
f 200 214 201
f 202 204 203
f 202 211 210
f 202 210 204
f 204 209 205
f 205 209 208
f 205 208 206
