v -0.341448 -0.434704 0.119259
v -0.341448 -0.311569 0.119259
v -0.400493 -0.376032 0.119259
v -0.341448 -0.429038 -0.344877
v -0.469104 -0.00595521 0.119259
v -0.341448 -0.29902 -0.103814
v -0.45587 -0.00599717 -0.344877
v -0.406601 -0.369947 0.119259
v -0.391369 -0.379138 -0.344877
v -0.341448 -0.311359 -0.344877
v -0.467586 -0.00595521 0.0425691
v -0.537657 -0.00595521 0.119259
v -0.341448 -0.298643 -0.115989
v -0.341448 -0.298643 -0.140386
v -0.341448 -0.298726 -0.152608
v -0.341448 -0.299314 -0.164829
v -0.342236 -0.308421 -0.344877
v -0.488965 -0.00595521 -0.344877
v -0.460345 -0.00595521 -0.335927
v -0.408234 -0.368184 0.119259
v -0.439831 -0.329993 -0.344877
v -0.434107 -0.336078 -0.344877
v -0.429574 -0.340863 -0.344877
v -0.427999 -0.3425 -0.344877
v -0.403586 -0.366925 -0.344877
v -0.537657 -0.00595521 0.103903
v -0.537638 -0.116038 0.119259
v -0.537638 -0.00595521 -0.344877
v -0.412709 -0.363274 0.119259
v -0.440734 -0.328314 -0.344877
v -0.452355 -0.318074 0.119259
v -0.452335 -0.318074 0.115988
v -0.453834 -0.316269 0.119259
v -0.458866 -0.309512 0.119259
v -0.462957 -0.303637 0.119259
v -0.465935 -0.299188 0.119259
v -0.466991 -0.297551 0.119259
v -0.473099 -0.288067 0.119259
v -0.475942 -0.283576 0.119259
v -0.476883 -0.281939 0.119259
v -0.480859 -0.274721 0.119259
v -0.486122 -0.264312 0.103766
v -0.537638 -0.0916126 -0.344877
v -0.537638 -0.103825 -0.311348
v -0.537638 -0.116038 -0.152608
v -0.537542 -0.128251 0.119259
v -0.44471 -0.320676 -0.344877
v -0.489272 -0.257891 0.0915451
v -0.493229 -0.250295 0.0915451
v -0.486314 -0.264606 0.119259
v -0.486276 -0.264564 0.115988
v -0.537465 -0.101895 -0.344877
v -0.53758 -0.103825 -0.323569
v -0.537465 -0.110498 -0.311348
v -0.537618 -0.116038 -0.164829
v -0.537542 -0.128251 -0.0183555
v -0.537369 -0.13463 0.119259
v -0.449089 -0.31203 -0.344877
v -0.498377 -0.239467 0.0793692
v -0.48956 -0.258521 0.119259
v -0.493824 -0.250295 0.119259
v -0.495131 -0.247735 0.119259
v -0.49878 -0.240432 0.115988
v -0.498511 -0.239887 0.0915451
v -0.537388 -0.103951 -0.344877
v -0.53733 -0.110079 -0.331565
v -0.537407 -0.110289 -0.323569
v -0.537446 -0.122627 -0.164829
v -0.537465 -0.122753 -0.152608
v -0.537369 -0.134588 -0.0183555
v -0.537369 -0.13463 0.103766
v -0.535563 -0.140716 0.119259
v -0.500989 -0.208285 -0.344877
v -0.505426 -0.225911 0.0915451
v -0.50435 -0.201528 -0.344877
v -0.498818 -0.240474 0.119259
v -0.502987 -0.232081 0.119259
v -0.506041 -0.225911 0.119259
v -0.537157 -0.107728 -0.344877
v -0.537234 -0.108652 -0.339698
v -0.535794 -0.113226 -0.344877
v -0.535102 -0.115744 -0.344877
v -0.537311 -0.122166 -0.183638
v -0.537369 -0.122375 -0.17705
v -0.537349 -0.134504 -0.0271694
v -0.513167 -0.208495 0.119259
v -0.51551 -0.201528 0.119259
v -0.525421 -0.171982 0.119259
v -0.527784 -0.164889 0.119259
v -0.531837 -0.152677 0.119259
v -0.535563 -0.140716 0.115988
v -0.51065 -0.21416 0.0915451
v -0.510439 -0.189651 -0.323569
v -0.510132 -0.189021 -0.344877
v -0.505311 -0.201528 -0.311348
v -0.504619 -0.201528 -0.335791
v -0.510958 -0.21458 0.119259
v -0.510939 -0.214538 0.115988
v -0.510804 -0.214328 0.103766
v -0.530934 -0.128251 -0.344877
v -0.531184 -0.128251 -0.335791
v -0.533162 -0.128251 -0.262508
v -0.531395 -0.140464 -0.17705
v -0.533354 -0.140464 -0.103814
v -0.513032 -0.208033 0.0915451
v -0.513148 -0.208453 0.115988
v -0.525095 -0.158804 -0.183502
v -0.525172 -0.159014 -0.17705
v -0.51259 -0.210131 0.119259
v -0.512955 -0.207823 0.0846394
v -0.512917 -0.183313 -0.331429
v -0.510996 -0.186965 -0.344877
v -0.52496 -0.146172 -0.344877
v -0.518968 -0.164889 -0.335791
v -0.525249 -0.147053 -0.323569
v -0.52667 -0.153726 -0.188272
v -0.513013 -0.183523 -0.323569
v -0.514012 -0.178991 -0.344877
v -0.512802 -0.18302 -0.339607
v -0.512725 -0.18281 -0.344877
v -0.518718 -0.164889 -0.344877
f 1 2 5
f 1 5 12
f 1 12 27
f 1 27 46
f 1 46 57
f 1 57 72
f 1 72 90
f 1 90 89
f 1 89 88
f 1 88 87
f 1 87 86
f 1 86 109
f 1 109 97
f 1 97 78
f 1 78 77
f 1 77 76
f 1 76 62
f 1 62 61
f 1 61 60
f 1 60 50
f 1 50 41
f 1 41 40
f 1 40 39
f 1 39 38
f 1 38 37
f 1 37 36
f 1 36 35
f 1 35 34
f 1 34 33
f 1 33 31
f 1 31 29
f 1 29 20
f 1 20 8
f 1 8 3
f 1 3 4
f 1 4 10
f 1 10 16
f 1 16 15
f 1 15 14
f 1 14 13
f 1 13 6
f 1 6 2
f 2 6 7
f 2 7 5
f 3 8 4
f 4 9 25
f 4 25 24
f 4 24 23
f 4 23 22
f 4 22 21
f 4 21 30
f 4 30 47
f 4 47 58
f 4 58 73
f 4 73 75
f 4 75 94
f 4 94 112
f 4 112 120
f 4 120 118
f 4 118 121
f 4 121 113
f 4 113 100
f 4 100 82
f 4 82 81
f 4 81 79
f 4 79 65
f 4 65 52
f 4 52 43
f 4 43 28
f 4 28 18
f 4 18 7
f 4 7 17
f 4 17 10
f 4 8 9
f 5 11 19
f 5 19 18
f 5 18 28
f 5 28 26
f 5 26 12
f 5 7 11
f 6 13 7
f 7 13 14
f 7 14 15
f 7 15 16
f 7 16 17
f 7 18 19
f 7 19 11
f 8 20 21
f 8 21 22
f 8 22 23
f 8 23 24
f 8 24 25
f 8 25 9
f 10 17 16
f 12 26 45
f 12 45 27
f 20 29 21
f 21 29 31
f 21 31 32
f 21 32 33
f 21 33 34
f 21 34 35
f 21 35 36
f 21 36 37
f 21 37 38
f 21 38 39
f 21 39 40
f 21 40 41
f 21 41 42
f 21 42 30
f 26 28 43
f 26 43 44
f 26 44 45
f 27 45 56
f 27 56 46
f 30 42 48
f 30 48 49
f 30 49 47
f 31 33 32
f 41 50 51
f 41 51 42
f 42 51 48
f 43 52 53
f 43 53 44
f 44 53 54
f 44 54 55
f 44 55 45
f 45 55 56
f 46 56 71
f 46 71 57
f 47 49 59
f 47 59 58
f 48 51 60
f 48 60 49
f 49 60 61
f 49 61 62
f 49 62 63
f 49 63 64
f 49 64 59
f 50 60 51
f 52 65 66
f 52 66 67
f 52 67 53
f 53 67 54
f 54 67 68
f 54 68 55
f 55 68 69
f 55 69 56
f 56 70 71
f 56 69 70
f 57 71 91
f 57 91 72
f 58 59 73
f 59 64 74
f 59 74 75
f 59 75 73
f 62 76 63
f 63 76 77
f 63 77 78
f 63 78 64
f 64 78 74
f 65 79 80
f 65 80 66
f 66 80 81
f 66 81 82
f 66 82 83
f 66 83 84
f 66 84 67
f 67 84 68
f 68 84 85
f 68 85 70
f 68 70 69
f 70 85 86
f 70 86 87
f 70 87 88
f 70 88 89
f 70 89 90
f 70 90 91
f 70 91 71
f 72 91 90
f 74 78 92
f 74 92 93
f 74 93 94
f 74 94 95
f 74 95 96
f 74 96 75
f 75 96 94
f 78 97 98
f 78 98 99
f 78 99 92
f 79 81 80
f 82 100 101
f 82 101 102
f 82 102 83
f 83 102 103
f 83 103 104
f 83 104 85
f 83 85 84
f 85 105 106
f 85 106 86
f 85 104 107
f 85 107 108
f 85 108 105
f 86 106 109
f 92 99 105
f 92 105 110
f 92 110 111
f 92 111 93
f 93 111 94
f 94 96 95
f 94 111 112
f 97 109 98
f 98 105 99
f 98 109 105
f 100 113 101
f 101 113 114
f 101 114 115
f 101 115 102
f 102 115 103
f 103 115 116
f 103 116 104
f 104 116 107
f 105 109 106
f 105 108 117
f 105 117 111
f 105 111 110
f 107 116 118
f 107 118 119
f 107 119 111
f 107 111 108
f 108 111 117
f 111 119 112
f 112 119 120
f 113 121 114
f 114 121 118
f 114 118 116
f 114 116 115
f 118 120 119
