v 0.524225 -0.176614 0.339629
v 0.524206 -0.176614 0.343493
v 0.523614 -0.178529 0.33581
v 0.524206 -0.176614 0.327404
v 0.523576 -0.178529 0.343493
v 0.444452 -0.176614 0.343493
v 0.521324 -0.185294 0.343493
v 0.520026 -0.18929 0.33581
v 0.520007 -0.18929 0.323585
v 0.523595 -0.178514 0.323585
v 0.524129 -0.176614 0.311381
v 0.332713 -0.329513 0.336052
v 0.333305 -0.329513 0.343493
v 0.443403 -0.176614 0.311381
v 0.519988 -0.18929 0.343493
v 0.517259 -0.196968 0.343493
v 0.515618 -0.201503 0.286951
v 0.513099 -0.208178 0.119259
v 0.523977 -0.176614 0.286951
v 0.340958 -0.316148 0.274747
v 0.332465 -0.329513 0.323585
v 0.437963 -0.176614 0.139079
v 0.437429 -0.176614 0.119259
v 0.446246 -0.329513 0.343493
v 0.515618 -0.201503 0.343493
v 0.510522 -0.214285 0.119259
v 0.521839 -0.176614 0.119259
v 0.522794 -0.176614 0.177402
v 0.523462 -0.176614 0.225932
v 0.5235 -0.176614 0.22872
v 0.523614 -0.176614 0.238114
v 0.523729 -0.176614 0.250318
v 0.513099 -0.208178 0.343493
v 0.340843 -0.315983 0.262544
v 0.35466 -0.293788 0.164869
v 0.354527 -0.293623 0.152644
v 0.332236 -0.329513 0.311381
v 0.364679 -0.278582 0.119259
v 0.447258 -0.328226 0.343493
v 0.446246 -0.329513 0.182495
v 0.505121 -0.225914 0.119259
v 0.510522 -0.214285 0.343493
v 0.507125 -0.221603 0.343493
v 0.358706 -0.286963 0.119259
v 0.354336 -0.293354 0.128236
v 0.350309 -0.29973 0.152644
v 0.340557 -0.315504 0.225932
v 0.332026 -0.329513 0.299177
v 0.459834 -0.312122 0.343493
v 0.458212 -0.314202 0.119259
v 0.446208 -0.329513 0.158131
v 0.453727 -0.31992 0.119259
v 0.453727 -0.319935 0.128236
v 0.499129 -0.237902 0.119259
v 0.505121 -0.225914 0.343493
v 0.500236 -0.235702 0.343493
v 0.354278 -0.293249 0.119259
v 0.350118 -0.29946 0.128236
v 0.344106 -0.30844 0.14044
v 0.331454 -0.329513 0.262544
v 0.464548 -0.306016 0.343493
v 0.459834 -0.312122 0.119259
v 0.44617 -0.329513 0.145971
v 0.44888 -0.326041 0.128236
v 0.448842 -0.326026 0.119259
v 0.496877 -0.242407 0.119259
v 0.475808 -0.284523 0.343493
v 0.474701 -0.286738 0.119259
v 0.350061 -0.299355 0.119259
v 0.335251 -0.320803 0.119259
v 0.332503 -0.324784 0.119259
v 0.329488 -0.329364 0.128236
v 0.329965 -0.329513 0.165418
v 0.468308 -0.299176 0.343493
v 0.464548 -0.306016 0.119259
v 0.446113 -0.329513 0.133811
v 0.447219 -0.328017 0.119259
v 0.47388 -0.288355 0.343493
v 0.47388 -0.288355 0.119259
v 0.329411 -0.329274 0.119259
v 0.329259 -0.329513 0.119259
v 0.329392 -0.329513 0.128038
v 0.468308 -0.299176 0.225932
v 0.468289 -0.299176 0.119259
v 0.445998 -0.329513 0.119259
v 0.472392 -0.291243 0.119259
f 1 2 3
f 1 3 4
f 1 4 11
f 1 11 19
f 1 19 32
f 1 32 31
f 1 31 30
f 1 30 29
f 1 29 28
f 1 28 27
f 1 27 23
f 1 23 22
f 1 22 14
f 1 14 6
f 1 6 2
f 2 5 3
f 2 6 13
f 2 13 24
f 2 24 39
f 2 39 49
f 2 49 61
f 2 61 74
f 2 74 78
f 2 78 67
f 2 67 56
f 2 56 55
f 2 55 43
f 2 43 42
f 2 42 33
f 2 33 25
f 2 25 16
f 2 16 15
f 2 15 7
f 2 7 5
f 3 5 7
f 3 7 8
f 3 8 9
f 3 9 10
f 3 10 4
f 4 10 11
f 6 12 13
f 6 14 12
f 7 15 8
f 8 15 16
f 8 16 17
f 8 17 18
f 8 18 9
f 9 18 10
f 10 18 11
f 11 18 19
f 12 20 21
f 12 21 37
f 12 37 48
f 12 48 60
f 12 60 73
f 12 73 82
f 12 82 81
f 12 81 85
f 12 85 76
f 12 76 63
f 12 63 51
f 12 51 40
f 12 40 24
f 12 24 13
f 12 14 22
f 12 22 23
f 12 23 20
f 16 25 17
f 17 25 33
f 17 33 18
f 18 26 41
f 18 41 54
f 18 54 66
f 18 66 68
f 18 68 79
f 18 79 86
f 18 86 84
f 18 84 75
f 18 75 62
f 18 62 50
f 18 50 52
f 18 52 65
f 18 65 77
f 18 77 85
f 18 85 81
f 18 81 80
f 18 80 71
f 18 71 70
f 18 70 69
f 18 69 57
f 18 57 44
f 18 44 38
f 18 38 23
f 18 23 27
f 18 27 28
f 18 28 29
f 18 29 30
f 18 30 31
f 18 31 32
f 18 32 19
f 18 33 42
f 18 42 26
f 20 34 21
f 20 23 35
f 20 35 36
f 20 36 34
f 21 34 37
f 23 38 36
f 23 36 35
f 24 40 39
f 26 42 43
f 26 43 41
f 34 36 37
f 36 38 44
f 36 44 45
f 36 45 58
f 36 58 46
f 36 46 47
f 36 47 48
f 36 48 37
f 39 40 50
f 39 50 49
f 40 51 52
f 40 52 53
f 40 53 50
f 41 43 55
f 41 55 56
f 41 56 54
f 44 57 45
f 45 57 69
f 45 69 58
f 46 58 59
f 46 59 60
f 46 60 47
f 47 60 48
f 49 50 62
f 49 62 75
f 49 75 61
f 50 53 52
f 51 63 64
f 51 64 52
f 52 64 65
f 54 56 66
f 56 67 68
f 56 68 66
f 58 69 70
f 58 70 71
f 58 71 59
f 59 71 60
f 60 71 72
f 60 72 73
f 61 75 83
f 61 83 74
f 63 76 64
f 64 76 65
f 65 76 77
f 67 78 68
f 68 78 79
f 71 80 72
f 72 80 81
f 72 81 82
f 72 82 73
f 74 83 79
f 74 79 78
f 75 84 83
f 76 85 77
f 79 83 86
f 83 84 86
