v 0.0111085 0.0818035 -0.54151
v -0.0879766 -0.408966 -0.541193
v -0.0965647 0.0632061 -0.538868
v -0.152173 0.0723239 -0.529781
v -0.290334 0.0799944 -0.46543
v -0.487538 0.0854217 -0.23603
v 0.33284 0.0854217 -0.417352
v 0.251038 0.072541 -0.482442
v 0.179543 0.0666072 -0.516889
v 0.0902263 0.069357 -0.536543
v 0.122217 -0.411644 -0.536015
v -0.00520888 -0.553115 -0.532211
v -0.165914 -0.410848 -0.53369
v -0.239234 0.0581406 -0.512029
v -0.233652 0.0671861 -0.512557
v -0.361615 0.0634232 -0.411012
v -0.414217 0.0740606 -0.350994
v -0.460056 0.0728304 -0.29161
v -0.526292 0.0719621 -0.168615
v -0.540891 0.0854217 -0.0218449
v 0.492471 0.0854217 0.183041
v 0.457045 0.0830337 -0.273647
v 0.391776 0.0626272 -0.371705
v 0.320817 0.0548843 -0.446727
v 0.295267 0.0751461 -0.456026
v 0.241484 -0.409473 -0.49639
v 0.103001 -0.54624 -0.523441
v -0.0539463 -0.576271 -0.513085
v -0.140149 -0.568383 -0.502625
v 0.0655355 -0.594868 -0.492269
v -0.220663 -0.54378 -0.491741
v -0.239234 -0.407302 -0.512029
v -0.290978 -0.408532 -0.487092
v -0.367412 -0.407302 -0.406574
v -0.41894 -0.413815 -0.349092
v -0.466175 -0.407302 -0.28527
v -0.530264 -0.407953 -0.181929
v -0.541965 0.0682715 -0.0812291
v -0.5454 0.0581406 -0.00631201
v -0.53649 0.0581406 0.0580385
v -0.526506 0.0633508 0.11943
v -0.469395 0.0719621 0.265144
v -0.41937 0.074133 0.340061
v 0.0777736 0.0854217 0.522651
v 0.407556 0.0854217 0.328966
v 0.456509 0.0702254 0.275287
v 0.49172 0.0650875 0.207556
v 0.521349 0.0770999 0.103369
v 0.536485 0.0751461 0.0223234
v 0.516088 0.0804286 -0.139028
v 0.499771 0.070153 -0.20433
v 0.449209 0.0581406 -0.292561
v 0.36365 -0.406868 -0.413337
v 0.317489 -0.407302 -0.448946
v 0.310833 -0.414394 -0.452962
v 0.264028 -0.546168 -0.463106
v 0.206702 -0.553187 -0.486352
v 0.15818 -0.602901 -0.460781
v -0.0932369 -0.608979 -0.47568
v -0.196294 -0.57533 -0.478427
v 0.0996732 -0.632787 -0.431406
v -0.0157293 -0.624972 -0.457505
v -0.296882 -0.552246 -0.443663
v -0.343472 -0.555141 -0.406891
v -0.414539 -0.531333 -0.346345
v -0.452434 -0.540379 -0.293195
v -0.519958 -0.552463 -0.103102
v -0.543038 -0.41121 -0.0959167
v -0.481097 -0.552825 -0.227259
v -0.502352 -0.556226 -0.173053
v -0.547118 -0.407302 -0.0241695
v -0.53649 -0.407302 0.0580385
v -0.526399 -0.407374 0.124185
v -0.498702 0.0614693 0.202378
v -0.455547 -0.409183 0.299485
v -0.340896 -0.414828 0.419944
v -0.353563 0.0734094 0.404305
v 0.084 0.0581406 0.534274
v 0.141325 0.0681992 0.52001
v 0.196826 0.0663177 0.505533
v 0.198758 0.0854217 0.486302
v -0.202306 0.0747843 0.491586
v -0.0496523 0.0671861 0.53512
v 0.0322567 0.0581406 0.537973
v 0.368373 0.0854217 0.375881
v 0.427524 -0.0194331 0.344921
v 0.467351 -0.0323862 0.274125
v 0.495799 -0.0148742 0.213473
v 0.531654 -0.00481569 0.126299
v 0.543141 -0.00648006 0.0714581
v 0.543356 0.0649428 -0.0619979
v 0.532406 -0.0194331 -0.15192
v 0.528649 -0.0946189 -0.166713
v 0.415393 -0.40817 -0.34159
v 0.508467 -0.408966 -0.20676
v 0.328761 -0.55145 -0.409956
v 0.403692 -0.539944 -0.345922
v 0.274226 -0.586185 -0.421896
v 0.220121 -0.592987 -0.44641
v 0.180079 -0.630688 -0.408793
v -0.160868 -0.641688 -0.392309
v -0.171818 -0.617084 -0.44081
v -0.293769 -0.601164 -0.39717
v 0.168807 -0.648562 -0.357017
v 0.0572695 -0.648852 -0.392626
v -0.00435007 -0.650661 -0.385758
v -0.0626418 -0.649648 -0.385758
v -0.346156 -0.600947 -0.353424
v -0.408527 -0.560713 -0.335461
v -0.406917 -0.592191 -0.295836
v -0.509223 -0.580613 -0.0570316
v -0.532733 -0.549279 -0.00229671
v -0.456406 -0.602539 -0.182985
v -0.527043 -0.541175 0.0935422
v -0.50364 -0.536688 0.179132
v -0.498702 -0.410993 0.202378
v -0.464672 -0.552391 0.251724
v -0.429568 -0.550944 0.304768
v -0.290334 -0.540379 0.441394
v -0.283785 -0.412223 0.457561
v -0.295594 0.0660283 0.448791
v 0.084 -0.407302 0.534274
v 0.138856 -0.416058 0.527089
v 0.201442 0.0517003 0.504794
v 0.252219 0.0674032 0.47489
v -0.231183 -0.410558 0.484929
v -0.129951 0.0522068 0.520221
v -0.0551272 -0.412657 0.537444
v 0.0322567 -0.407302 0.537973
v 0.355062 -0.0388989 0.4154
v 0.433857 -0.0841262 0.33911
v 0.392527 -0.0711731 0.379474
v 0.515659 -0.273285 0.186739
v 0.521885 -0.328787 0.173214
v 0.543892 -0.346155 0.0616311
v 0.548831 -0.171469 0.0209498
v 0.549582 -0.0194331 -0.0322001
v 0.544 -0.0148742 -0.092958
v 0.539384 -0.10996 -0.11631
v 0.527468 -0.409256 -0.146214
v 0.517377 -0.543273 -0.103842
v 0.477335 -0.555141 -0.20676
v 0.432677 -0.559627 -0.286327
v 0.392635 -0.564765 -0.338314
v 0.33445 -0.617518 -0.326163
v 0.288182 -0.624248 -0.350994
v 0.235687 -0.645306 -0.328487
v -0.241596 -0.648852 -0.319928
v -0.225601 -0.638504 -0.369169
v -0.154427 -0.652832 -0.340216
v -0.296453 -0.636043 -0.326797
v 0.0581283 -0.652759 -0.368535
v 0.269825 -0.652976 -0.230746
v -0.365587 -0.622728 -0.2877
v -0.4534 -0.623524 -0.0784818
v -0.492154 -0.598269 0.0299314
v -0.368593 -0.637273 -0.235818
v -0.395216 -0.638359 -0.17189
v -0.473582 -0.591684 0.1543
v -0.486894 -0.556226 0.198785
v -0.422912 -0.598342 0.250139
v -0.365909 -0.5995 0.323154
v -0.337461 -0.566357 0.386765
v -0.222166 -0.56889 0.459886
v -0.169886 -0.544865 0.495284
v -0.0316173 -0.547687 0.52244
v 0.0832485 -0.562305 0.504582
v 0.165479 -0.563969 0.482287
v 0.252112 -0.54899 0.456293
v 0.220551 -0.409401 0.496869
v 0.268322 -0.414249 0.474362
v 0.342931 -0.10996 0.426601
v -0.127052 -0.407302 0.521278
v 0.360644 -0.536037 0.380636
v 0.447276 -0.408315 0.301176
v 0.485279 -0.286093 0.243059
v 0.493437 -0.345938 0.226047
v 0.466922 -0.552897 0.222877
v 0.487748 -0.553259 0.173954
v 0.54357 -0.411137 0.034158
v 0.540994 -0.409256 -0.0783761
v 0.503743 -0.563463 0.0827643
v 0.500952 -0.577791 -0.0330455
v 0.499878 -0.573521 -0.0853501
v 0.452966 -0.612019 -0.118318
v 0.407556 -0.623524 -0.197567
v 0.387911 -0.591612 -0.306826
v 0.336383 -0.638865 -0.257057
v -0.2621 -0.652976 -0.24966
v -0.314166 -0.648128 -0.253781
v -0.329732 -0.640096 -0.277979
v -0.205204 -0.653411 -0.302282
v 0.0581283 -0.653628 -0.350783
v -0.14863 -0.653845 -0.316758
v 0.331766 -0.64972 -0.179076
v 0.363972 -0.649286 -0.120325
v 0.372131 -0.651095 -0.0350531
v 0.342609 -0.6537 0.032256
v -0.432467 -0.638504 -0.0122293
v -0.422376 -0.64024 0.0505362
v -0.416686 -0.62461 0.190755
v -0.376215 -0.651529 -0.04805
v -0.376107 -0.617229 0.274337
v -0.291192 -0.632208 0.326958
v -0.258236 -0.612742 0.394373
v -0.175146 -0.618676 0.42322
v -0.0936663 -0.583145 0.487148
v 0.0207701 -0.603335 0.474256
v 0.161937 -0.616505 0.427869
v 0.236439 -0.595013 0.424699
v 0.294516 -0.551233 0.42491
v 0.381255 -0.571061 0.328332
v 0.457475 -0.566791 0.222455
v 0.445881 -0.598197 0.177758
v 0.453932 -0.611729 0.105588
v 0.476798 -0.602901 0.0270784
v 0.460695 -0.614262 -0.0593563
v 0.424733 -0.636188 -0.045197
v -0.31803 -0.653483 -0.171679
v -0.339393 -0.653628 -0.114725
v 0.147445 -0.653628 0.306353
v 0.401759 -0.645161 -0.0290302
v 0.391024 -0.645306 0.0604688
v 0.328868 -0.653266 0.103792
v 0.292047 -0.653483 0.180822
v -0.362044 -0.653266 0.0199988
v -0.337568 -0.653338 0.119219
v -0.352919 -0.644076 0.207873
v -0.408742 -0.63626 0.140458
v -0.324364 -0.642918 0.256902
v -0.218086 -0.636839 0.365103
v -0.157433 -0.641109 0.383278
v -0.10934 -0.63134 0.423431
v -0.0604947 -0.620413 0.451961
v 0.0193745 -0.638431 0.420367
v 0.0753045 -0.632136 0.424805
v 0.229031 -0.628879 0.371866
v 0.269395 -0.606808 0.386448
v 0.281419 -0.596677 0.39152
v 0.416145 -0.596171 0.24475
v 0.351412 -0.626202 0.268102
v 0.393493 -0.630978 0.186317
v 0.391346 -0.641615 0.121227
v -0.16323 -0.653338 0.314384
v 0.218296 -0.650588 0.300436
v 0.0322567 -0.651819 0.36859
v 0.00316451 -0.653411 0.352424
v 0.35839 -0.644076 0.180928
v 0.275192 -0.650661 0.246758
v -0.282497 -0.653193 0.222243
v -0.255767 -0.649503 0.28279
v -0.0796032 -0.650444 0.365526
v -0.0460023 -0.638648 0.418148
v 0.0297876 -0.646753 0.392999
v 0.115239 -0.646464 0.369541
v 0.280023 -0.630109 0.331185
f 1 2 3
f 1 3 4
f 1 4 5
f 1 5 6
f 1 6 7
f 1 7 8
f 1 8 9
f 1 9 10
f 1 10 11
f 1 11 2
f 2 11 12
f 2 12 13
f 2 13 3
f 3 13 4
f 4 13 14
f 4 14 15
f 4 15 5
f 5 15 14
f 5 14 16
f 5 16 17
f 5 17 6
f 6 17 18
f 6 18 19
f 6 19 20
f 6 20 44
f 6 44 81
f 6 81 85
f 6 85 45
f 6 45 21
f 6 21 7
f 7 21 22
f 7 22 23
f 7 23 24
f 7 24 25
f 7 25 8
f 8 25 24
f 8 24 26
f 8 26 9
f 9 11 10
f 9 26 11
f 11 27 12
f 11 26 27
f 12 28 29
f 12 29 13
f 12 27 30
f 12 30 28
f 13 31 32
f 13 32 14
f 13 29 31
f 14 32 33
f 14 33 16
f 16 34 35
f 16 35 17
f 16 33 34
f 17 35 18
f 18 36 37
f 18 37 19
f 18 35 36
f 19 37 38
f 19 38 20
f 20 38 39
f 20 39 40
f 20 40 41
f 20 41 42
f 20 42 43
f 20 43 44
f 21 45 46
f 21 46 47
f 21 47 48
f 21 48 49
f 21 49 50
f 21 50 22
f 22 50 51
f 22 51 52
f 22 52 23
f 23 52 53
f 23 53 24
f 24 53 54
f 24 54 26
f 26 54 55
f 26 55 56
f 26 56 57
f 26 57 27
f 27 57 58
f 27 58 30
f 28 59 29
f 28 30 59
f 29 59 60
f 29 60 31
f 30 58 61
f 30 61 62
f 30 62 59
f 31 60 63
f 31 63 33
f 31 33 32
f 33 63 64
f 33 64 65
f 33 65 34
f 34 65 35
f 35 65 36
f 36 65 66
f 36 66 37
f 37 67 68
f 37 68 38
f 37 66 69
f 37 69 70
f 37 70 67
f 38 68 71
f 38 71 39
f 39 71 72
f 39 72 40
f 40 72 73
f 40 73 41
f 41 73 74
f 41 74 42
f 42 74 75
f 42 75 43
f 43 75 76
f 43 76 77
f 43 77 44
f 44 78 79
f 44 79 80
f 44 80 81
f 44 77 82
f 44 82 83
f 44 83 84
f 44 84 78
f 45 85 86
f 45 86 46
f 46 86 87
f 46 87 47
f 47 88 89
f 47 89 48
f 47 87 88
f 48 89 90
f 48 90 49
f 49 90 91
f 49 91 50
f 50 91 51
f 51 91 92
f 51 92 93
f 51 93 52
f 52 94 53
f 52 93 95
f 52 95 94
f 53 96 56
f 53 56 55
f 53 55 54
f 53 94 97
f 53 97 96
f 56 96 98
f 56 98 99
f 56 99 57
f 57 99 58
f 58 99 100
f 58 100 61
f 59 62 101
f 59 101 102
f 59 102 60
f 60 102 103
f 60 103 63
f 61 100 104
f 61 104 105
f 61 105 62
f 62 105 106
f 62 106 107
f 62 107 101
f 63 103 64
f 64 108 109
f 64 109 65
f 64 103 108
f 65 109 66
f 66 109 110
f 66 110 69
f 67 70 111
f 67 111 112
f 67 112 68
f 68 112 71
f 69 110 113
f 69 113 70
f 70 113 111
f 71 112 114
f 71 114 72
f 72 114 73
f 73 114 115
f 73 115 116
f 73 116 74
f 74 116 75
f 75 116 115
f 75 115 117
f 75 117 118
f 75 118 76
f 76 118 119
f 76 119 120
f 76 120 121
f 76 121 77
f 77 121 82
f 78 84 129
f 78 129 122
f 78 122 123
f 78 123 79
f 79 123 124
f 79 124 80
f 80 124 125
f 80 125 81
f 81 125 85
f 82 121 126
f 82 126 127
f 82 127 83
f 83 127 128
f 83 128 84
f 84 128 129
f 85 125 130
f 85 130 86
f 86 131 87
f 86 130 132
f 86 132 131
f 87 131 133
f 87 133 88
f 88 133 89
f 89 133 134
f 89 134 90
f 90 134 135
f 90 135 136
f 90 136 137
f 90 137 91
f 91 137 138
f 91 138 92
f 92 138 139
f 92 139 93
f 93 139 140
f 93 140 95
f 94 95 97
f 95 140 141
f 95 141 142
f 95 142 143
f 95 143 97
f 96 97 144
f 96 144 98
f 97 143 144
f 98 144 145
f 98 145 146
f 98 146 99
f 99 146 100
f 100 146 147
f 100 147 104
f 101 148 149
f 101 149 102
f 101 107 150
f 101 150 148
f 102 149 103
f 103 149 151
f 103 151 108
f 104 152 105
f 104 147 153
f 104 153 152
f 105 152 106
f 106 150 107
f 106 152 150
f 108 154 110
f 108 110 109
f 108 151 154
f 110 154 113
f 111 113 155
f 111 155 156
f 111 156 112
f 112 156 114
f 113 154 157
f 113 157 158
f 113 158 155
f 114 156 159
f 114 159 160
f 114 160 115
f 115 160 117
f 117 160 161
f 117 161 118
f 118 161 162
f 118 162 163
f 118 163 119
f 119 164 165
f 119 165 126
f 119 126 120
f 119 163 164
f 120 126 121
f 122 129 166
f 122 166 123
f 123 166 167
f 123 167 168
f 123 168 169
f 123 169 170
f 123 170 124
f 124 170 171
f 124 171 172
f 124 172 125
f 125 172 130
f 126 165 173
f 126 173 127
f 127 173 128
f 128 173 165
f 128 165 166
f 128 166 129
f 130 172 132
f 131 132 172
f 131 172 174
f 131 174 175
f 131 175 176
f 131 176 133
f 133 176 177
f 133 177 134
f 134 177 178
f 134 178 179
f 134 179 180
f 134 180 135
f 135 180 136
f 136 180 181
f 136 181 137
f 137 181 138
f 138 181 139
f 139 181 140
f 140 181 141
f 141 182 183
f 141 183 184
f 141 184 142
f 141 181 180
f 141 180 182
f 142 184 185
f 142 185 186
f 142 186 187
f 142 187 143
f 143 187 144
f 144 187 145
f 145 188 146
f 145 187 186
f 145 186 188
f 146 188 147
f 147 188 153
f 148 189 190
f 148 190 191
f 148 191 151
f 148 151 149
f 148 150 192
f 148 192 189
f 150 152 193
f 150 193 194
f 150 194 192
f 151 191 154
f 152 153 193
f 153 188 195
f 153 195 196
f 153 196 197
f 153 197 198
f 153 198 193
f 154 191 157
f 155 158 199
f 155 199 156
f 156 199 200
f 156 200 201
f 156 201 159
f 157 191 190
f 157 190 158
f 158 202 199
f 158 190 202
f 159 201 161
f 159 161 160
f 161 201 203
f 161 203 162
f 162 203 204
f 162 204 205
f 162 205 163
f 163 205 164
f 164 206 207
f 164 207 165
f 164 205 206
f 165 207 166
f 166 207 208
f 166 208 167
f 167 209 168
f 167 208 209
f 168 209 210
f 168 210 169
f 169 211 174
f 169 174 171
f 169 171 170
f 169 210 211
f 171 174 172
f 174 211 212
f 174 212 178
f 174 178 175
f 175 178 177
f 175 177 176
f 178 212 213
f 178 213 179
f 179 182 180
f 179 213 214
f 179 214 215
f 179 215 182
f 182 215 216
f 182 216 183
f 183 216 217
f 183 217 184
f 184 217 185
f 185 217 218
f 185 218 186
f 186 218 196
f 186 196 188
f 188 196 195
f 189 192 219
f 189 219 190
f 190 219 220
f 190 220 202
f 192 194 219
f 193 198 194
f 194 220 219
f 194 198 221
f 194 221 220
f 196 218 222
f 196 222 197
f 197 222 223
f 197 223 198
f 198 224 225
f 198 225 221
f 198 223 224
f 199 202 200
f 200 202 226
f 200 226 227
f 200 227 228
f 200 228 229
f 200 229 201
f 201 229 228
f 201 228 230
f 201 230 203
f 202 220 226
f 203 230 204
f 204 231 205
f 204 230 231
f 205 231 206
f 206 231 232
f 206 232 233
f 206 233 234
f 206 234 207
f 207 234 208
f 208 234 235
f 208 235 236
f 208 236 209
f 209 237 210
f 209 236 237
f 210 237 238
f 210 238 239
f 210 239 211
f 211 239 212
f 212 240 213
f 212 239 241
f 212 241 240
f 213 240 214
f 214 240 242
f 214 242 215
f 215 242 243
f 215 243 218
f 215 218 216
f 216 218 217
f 218 243 223
f 218 223 222
f 220 244 227
f 220 227 226
f 220 221 244
f 221 225 245
f 221 245 246
f 221 246 247
f 221 247 244
f 223 243 248
f 223 248 224
f 224 248 225
f 225 248 249
f 225 249 245
f 227 244 250
f 227 250 228
f 228 250 230
f 230 250 251
f 230 251 231
f 231 251 232
f 232 252 253
f 232 253 233
f 232 251 244
f 232 244 252
f 233 253 234
f 234 253 235
f 235 254 236
f 235 253 254
f 236 255 237
f 236 254 255
f 237 255 245
f 237 245 256
f 237 256 238
f 238 256 241
f 238 241 239
f 240 241 242
f 241 256 249
f 241 249 248
f 241 248 242
f 242 248 243
f 244 247 252
f 244 251 250
f 245 255 246
f 245 249 256
f 246 254 252
f 246 252 247
f 246 255 254
f 252 254 253
