v -0.441527 0.279252 0.650624
v -0.441527 0.292112 0.650537
v -0.456936 0.263845 0.650624
v -0.441527 0.240641 0.650624
v -0.441527 0.306091 0.648039
v -0.444064 0.289596 0.650493
v -0.469808 0.250985 0.650362
v -0.48268 0.212373 0.650624
v -0.444064 0.225233 0.650624
v -0.441527 0.227781 0.650493
v -0.441527 0.312179 0.646111
v -0.453042 0.299319 0.645739
v -0.44483 0.303171 0.647689
v -0.457174 0.289503 0.647228
v -0.456936 0.276705 0.650055
v -0.469808 0.263845 0.648696
v -0.48268 0.225233 0.649923
v -0.508415 0.160871 0.650121
v -0.495542 0.186622 0.650493
v -0.508415 0.148041 0.650624
v -0.495542 8.76708e-05 0.650624
v -0.444064 0.212373 0.650383
v -0.441527 0.214672 0.649814
v -0.441527 0.314291 0.644468
v -0.46491 0.285154 0.645147
v -0.469446 0.275525 0.646001
v -0.477699 0.263845 0.645147
v -0.480205 0.250985 0.646812
v -0.495542 0.199482 0.649156
v -0.51818 0.160871 0.646593
v -0.521287 0.13515 0.648981
v -0.521287 0.12229 0.649814
v -0.521287 0.10943 0.650383
v -0.521287 0.0965388 0.650624
v -0.521287 8.76708e-05 0.650624
v -0.490333 8.76708e-05 0.64885
v -0.485269 8.76708e-05 0.647097
v -0.441527 0.212373 0.649529
v -0.441527 0.317367 0.639144
v -0.465625 0.286086 0.637128
v -0.476332 0.27043 0.643679
v -0.49024 0.234397 0.644972
v -0.492042 0.225233 0.646374
v -0.503889 0.199482 0.645607
v -0.516275 0.170749 0.645235
v -0.52836 0.143258 0.64449
v -0.529126 0.13515 0.645454
v -0.521805 0.147731 0.646944
v -0.529986 0.12229 0.646264
v -0.530835 0.10943 0.646834
v -0.534159 0.0193158 0.650055
v -0.534159 0.00645561 0.650493
v -0.534159 8.76708e-05 0.650493
v -0.483457 8.76708e-05 0.642036
v -0.441527 0.189511 0.645519
v -0.441527 0.191157 0.646133
v -0.441527 0.202588 0.648302
v -0.441527 0.317429 0.637128
v -0.454254 0.300903 0.637128
v -0.465521 0.285962 0.624245
v -0.472066 0.27686 0.637128
v -0.476322 0.27043 0.637128
v -0.479066 0.263845 0.637128
v -0.490758 0.23564 0.637128
v -0.516948 0.172364 0.637128
v -0.528639 0.143972 0.637128
v -0.502367 0.206875 0.644117
v -0.530431 0.13515 0.637128
v -0.540921 0.0539822 0.644073
v -0.541501 0.0450671 0.644862
v -0.54235 0.032207 0.645826
v -0.5432 0.0193158 0.646527
v -0.543966 0.00645561 0.646965
v -0.538995 8.76708e-05 0.648762
v -0.481717 8.76708e-05 0.637128
v -0.441527 0.184882 0.6391
v -0.441527 0.317211 0.624245
v -0.442966 0.315348 0.624245
v -0.464765 0.284968 0.534172
v -0.442759 0.315348 0.611383
v -0.453498 0.29994 0.547012
v -0.470492 0.276705 0.534172
v -0.472791 0.275463 0.624639
v -0.47627 0.270306 0.629174
v -0.478383 0.265087 0.624639
v -0.487537 0.240734 0.559895
v -0.525771 0.14975 0.5985
v -0.525957 0.150185 0.624245
v -0.528463 0.143537 0.611383
v -0.528204 0.142854 0.572756
v -0.528028 0.142388 0.547012
v -0.527935 0.142171 0.534172
v -0.530265 0.13515 0.624245
v -0.53216 0.12229 0.637128
v -0.54233 0.0450671 0.637128
v -0.545716 0.0193158 0.637128
v -0.547311 0.00645561 0.637128
v -0.533859 0.10943 0.637128
v -0.543966 8.76708e-05 0.646965
v -0.47044 8.76708e-05 0.426813
v -0.462828 0.032207 0.426813
v -0.441527 0.183826 0.637259
v -0.441527 0.316093 0.572756
v -0.441589 0.31659 0.598895
v -0.459525 0.291025 0.521311
v -0.464465 0.284564 0.521311
v -0.469933 0.276705 0.521311
v -0.442013 0.314602 0.534172
v -0.453094 0.299412 0.521311
v -0.442117 0.314757 0.547012
v -0.475545 0.268691 0.534172
v -0.475939 0.269592 0.585639
v -0.476136 0.270026 0.611383
v -0.478714 0.263379 0.5985
v -0.482919 0.250985 0.534172
v -0.525491 0.149067 0.559895
v -0.527832 0.141891 0.525846
v -0.529043 0.13515 0.534172
v -0.529219 0.13515 0.547012
v -0.525305 0.148601 0.534172
v -0.531125 0.12229 0.559895
v -0.531819 0.12229 0.611383
v -0.543852 0.032207 0.624245
v -0.545374 0.0193158 0.611383
v -0.547207 0.00645561 0.624245
v -0.547311 8.76708e-05 0.637128
v -0.54002 0.0600085 0.611383
v -0.537773 8.76708e-05 0.426813
v -0.460374 0.0450671 0.426813
v -0.441527 0.152173 0.426813
v -0.441527 0.315223 0.534172
v -0.463885 0.283819 0.508428
v -0.468824 0.276705 0.508428
v -0.475276 0.26807 0.521311
v -0.441527 0.315161 0.532989
v -0.441713 0.314229 0.521311
v -0.441527 0.312956 0.508428
v -0.477989 0.261639 0.521311
v -0.478248 0.26223 0.534172
v -0.478341 0.262478 0.547012
v -0.513541 0.177023 0.534172
v -0.516202 0.170593 0.534172
v -0.527562 0.140555 0.51728
v -0.528484 0.135834 0.521464
v -0.530773 0.12229 0.534172
v -0.489764 0.233217 0.521311
v -0.515954 0.169972 0.521311
v -0.525491 0.146923 0.521464
v -0.524031 0.148041 0.508428
v -0.530949 0.12229 0.547012
v -0.532471 0.10943 0.534172
v -0.537556 0.0708185 0.534172
v -0.543158 0.032207 0.572756
v -0.54468 0.0193158 0.559895
v -0.54669 0.00645561 0.585639
v -0.546866 8.76708e-05 0.5985
v -0.547124 8.76708e-05 0.617891
v -0.547207 8.76708e-05 0.624245
v -0.540942 8.76708e-05 0.459174
v -0.537773 0.00645561 0.426813
v -0.441527 0.301835 0.426813
v -0.463491 0.283322 0.500869
v -0.464454 0.271828 0.426813
v -0.464661 0.272139 0.431195
v -0.474748 0.266858 0.508428
v -0.477492 0.260428 0.508428
v -0.441527 0.314447 0.521311
v -0.441527 0.314416 0.520873
v -0.441527 0.311216 0.495567
v -0.489401 0.232378 0.511627
v -0.520531 0.13515 0.426813
v -0.5272 0.13807 0.508428
v -0.528122 0.13164 0.508428
v -0.529375 0.12229 0.508428
v -0.530296 0.12229 0.521311
v -0.516803 0.147824 0.426813
v -0.515809 0.156801 0.456939
v -0.514452 0.15354 0.426813
v -0.515457 0.168761 0.508428
v -0.515063 0.167829 0.499642
v -0.531995 0.10943 0.521311
v -0.533693 0.0965388 0.521311
v -0.542164 0.032207 0.521311
v -0.544328 0.0193158 0.534172
v -0.544504 0.0193158 0.547012
v -0.545996 0.00645561 0.534172
v -0.545996 8.76708e-05 0.534172
v -0.544598 8.76708e-05 0.508428
v -0.540942 0.00279016 0.459174
v -0.540145 0.00682837 0.455712
v -0.540756 0.0141282 0.47427
v -0.536479 0.0193158 0.431195
v -0.536675 0.0149359 0.426813
v -0.441817 0.301462 0.426813
v -0.441527 0.302394 0.430778
v -0.444002 0.298636 0.426813
v -0.45151 0.288851 0.426813
v -0.459856 0.278569 0.431195
v -0.462797 0.274034 0.426813
v -0.468472 0.263845 0.426813
v -0.474033 0.252072 0.431195
v -0.476923 0.25903 0.495567
v -0.481417 0.250985 0.508428
v -0.441527 0.30432 0.444911
v -0.491545 0.226383 0.507771
v -0.508062 0.186622 0.508428
v -0.521225 0.130801 0.426813
v -0.52255 0.12229 0.426813
v -0.527811 0.129373 0.500913
v -0.531073 0.10943 0.508428
v -0.540704 0.0394758 0.513533
v -0.527148 0.122352 0.481851
v -0.477285 0.243281 0.426813
v -0.543852 0.0193158 0.521311
v -0.545519 0.00645561 0.521311
v -0.545519 8.76708e-05 0.521311
v -0.544598 0.00645561 0.508428
v -0.54293 0.0193158 0.508428
v -0.539782 0.0187877 0.46991
v -0.536106 0.0193158 0.426813
v -0.541626 0.020434 0.494559
v -0.538011 0.032207 0.469822
v -0.534418 0.032207 0.426813
v -0.459618 0.278258 0.426813
v -0.470647 0.258875 0.426813
v -0.473961 0.251264 0.426813
v -0.52313 0.11791 0.426813
v -0.524249 0.10943 0.426813
f 1 2 3
f 1 3 8
f 1 8 20
f 1 20 34
f 1 34 35
f 1 35 21
f 1 21 9
f 1 9 4
f 1 4 10
f 1 10 23
f 1 23 38
f 1 38 57
f 1 57 56
f 1 56 55
f 1 55 76
f 1 76 102
f 1 102 130
f 1 130 161
f 1 161 195
f 1 195 204
f 1 204 169
f 1 169 137
f 1 137 168
f 1 168 167
f 1 167 135
f 1 135 131
f 1 131 103
f 1 103 77
f 1 77 58
f 1 58 39
f 1 39 24
f 1 24 11
f 1 11 5
f 1 5 2
f 2 5 6
f 2 6 3
f 3 7 8
f 3 6 7
f 4 9 10
f 5 11 12
f 5 12 13
f 5 13 14
f 5 14 15
f 5 15 6
f 6 15 7
f 7 15 16
f 7 16 17
f 7 17 18
f 7 18 19
f 7 19 8
f 8 19 20
f 9 21 10
f 10 21 22
f 10 22 23
f 11 24 12
f 12 25 14
f 12 14 13
f 12 24 25
f 14 25 26
f 14 26 16
f 14 16 15
f 16 27 28
f 16 28 29
f 16 29 17
f 16 26 27
f 17 29 18
f 18 20 19
f 18 29 30
f 18 30 31
f 18 31 32
f 18 32 33
f 18 33 20
f 20 33 34
f 21 35 53
f 21 53 74
f 21 74 99
f 21 99 126
f 21 126 158
f 21 158 157
f 21 157 156
f 21 156 187
f 21 187 216
f 21 216 188
f 21 188 159
f 21 159 128
f 21 128 100
f 21 100 75
f 21 75 54
f 21 54 37
f 21 37 36
f 21 36 23
f 21 23 22
f 23 36 37
f 23 37 38
f 24 39 25
f 25 39 40
f 25 40 41
f 25 41 26
f 26 41 27
f 27 41 42
f 27 42 43
f 27 43 28
f 28 43 29
f 29 43 30
f 30 44 45
f 30 45 46
f 30 46 47
f 30 47 48
f 30 48 31
f 30 43 44
f 31 47 49
f 31 49 50
f 31 50 32
f 31 48 47
f 32 50 51
f 32 51 33
f 33 51 52
f 33 52 34
f 34 52 53
f 34 53 35
f 37 54 55
f 37 55 56
f 37 56 57
f 37 57 38
f 39 58 59
f 39 59 40
f 40 60 61
f 40 61 41
f 40 59 60
f 41 61 62
f 41 62 63
f 41 63 64
f 41 64 65
f 41 65 66
f 41 66 67
f 41 67 42
f 42 67 46
f 42 46 45
f 42 45 44
f 42 44 43
f 46 66 68
f 46 68 69
f 46 69 47
f 46 67 66
f 47 69 70
f 47 70 71
f 47 71 49
f 49 71 72
f 49 72 50
f 50 72 73
f 50 73 51
f 51 73 52
f 52 73 74
f 52 74 53
f 54 75 55
f 55 75 76
f 58 77 78
f 58 78 59
f 59 78 60
f 60 79 61
f 60 78 80
f 60 80 81
f 60 81 79
f 61 79 82
f 61 82 83
f 61 83 62
f 62 84 63
f 62 83 82
f 62 82 84
f 63 84 85
f 63 85 64
f 64 85 86
f 64 86 87
f 64 87 88
f 64 88 65
f 65 88 66
f 66 89 68
f 66 88 89
f 68 89 90
f 68 90 91
f 68 91 92
f 68 92 93
f 68 93 94
f 68 94 69
f 69 95 96
f 69 96 97
f 69 97 70
f 69 94 98
f 69 98 95
f 70 97 71
f 71 97 72
f 72 97 73
f 73 97 126
f 73 126 99
f 73 99 74
f 75 100 101
f 75 101 102
f 75 102 76
f 77 103 104
f 77 104 80
f 77 80 78
f 79 105 106
f 79 106 107
f 79 107 82
f 79 81 108
f 79 108 109
f 79 109 105
f 80 104 103
f 80 103 110
f 80 110 81
f 81 110 108
f 82 107 111
f 82 111 112
f 82 112 113
f 82 113 84
f 84 113 85
f 85 113 114
f 85 114 86
f 86 114 115
f 86 115 87
f 87 115 116
f 87 116 92
f 87 92 90
f 87 90 88
f 88 90 89
f 90 92 91
f 92 117 118
f 92 118 119
f 92 119 93
f 92 116 120
f 92 120 117
f 93 119 121
f 93 121 122
f 93 122 94
f 94 122 98
f 95 123 96
f 95 98 123
f 96 123 124
f 96 124 125
f 96 125 97
f 97 125 158
f 97 158 126
f 98 122 127
f 98 127 123
f 100 128 160
f 100 160 193
f 100 193 220
f 100 220 223
f 100 223 228
f 100 228 227
f 100 227 208
f 100 208 207
f 100 207 171
f 100 171 176
f 100 176 178
f 100 178 213
f 100 213 226
f 100 226 225
f 100 225 200
f 100 200 163
f 100 163 199
f 100 199 224
f 100 224 197
f 100 197 196
f 100 196 194
f 100 194 161
f 100 161 130
f 100 130 129
f 100 129 101
f 101 129 102
f 102 129 130
f 103 131 108
f 103 108 110
f 105 132 106
f 105 109 132
f 106 132 107
f 107 132 133
f 107 133 134
f 107 134 111
f 108 131 135
f 108 135 136
f 108 136 109
f 109 136 137
f 109 137 132
f 111 134 138
f 111 138 139
f 111 139 140
f 111 140 112
f 112 140 113
f 113 140 114
f 114 140 115
f 115 141 116
f 115 140 139
f 115 139 138
f 115 138 117
f 115 117 141
f 116 141 142
f 116 142 120
f 117 143 144
f 117 144 145
f 117 145 118
f 117 120 142
f 117 142 141
f 117 138 146
f 117 146 147
f 117 147 148
f 117 148 149
f 117 149 143
f 118 145 150
f 118 150 119
f 119 150 121
f 121 150 151
f 121 151 152
f 121 152 127
f 121 127 122
f 123 153 154
f 123 154 124
f 123 127 153
f 124 154 155
f 124 155 125
f 125 155 156
f 125 156 157
f 125 157 158
f 127 152 153
f 128 159 189
f 128 189 160
f 132 162 163
f 132 163 164
f 132 164 133
f 132 137 162
f 133 164 134
f 134 165 166
f 134 166 138
f 134 164 163
f 134 163 165
f 135 167 136
f 136 167 168
f 136 168 137
f 137 169 162
f 138 166 170
f 138 170 146
f 143 171 172
f 143 172 173
f 143 173 174
f 143 174 175
f 143 175 144
f 143 149 176
f 143 176 171
f 144 175 145
f 145 175 181
f 145 181 151
f 145 151 150
f 146 170 147
f 147 170 149
f 147 149 148
f 149 177 178
f 149 178 176
f 149 170 179
f 149 179 180
f 149 180 177
f 151 181 182
f 151 182 152
f 152 182 183
f 152 183 184
f 152 184 185
f 152 185 154
f 152 154 153
f 154 185 186
f 154 186 155
f 155 186 156
f 156 186 187
f 159 188 217
f 159 217 189
f 160 189 190
f 160 190 191
f 160 191 192
f 160 192 193
f 161 194 195
f 162 196 197
f 162 197 198
f 162 198 163
f 162 169 196
f 163 198 199
f 163 200 165
f 165 200 201
f 165 201 202
f 165 202 166
f 166 202 203
f 166 203 170
f 169 204 196
f 170 203 205
f 170 205 206
f 170 206 179
f 171 207 172
f 172 207 208
f 172 208 209
f 172 209 173
f 173 209 174
f 174 210 211
f 174 211 175
f 174 209 212
f 174 212 210
f 175 211 181
f 177 180 203
f 177 203 213
f 177 213 178
f 179 206 205
f 179 205 180
f 180 205 203
f 181 211 182
f 182 211 183
f 183 211 214
f 183 214 184
f 184 214 215
f 184 215 186
f 184 186 185
f 186 215 216
f 186 216 187
f 188 216 215
f 188 215 217
f 189 217 190
f 190 217 191
f 191 218 219
f 191 219 192
f 191 217 218
f 192 220 193
f 192 219 221
f 192 221 222
f 192 222 223
f 192 223 220
f 194 196 195
f 195 196 204
f 197 224 198
f 198 224 199
f 200 225 201
f 201 226 213
f 201 213 203
f 201 203 202
f 201 225 226
f 208 227 212
f 208 212 209
f 210 212 228
f 210 228 223
f 210 223 222
f 210 222 221
f 210 221 211
f 211 221 218
f 211 218 217
f 211 217 215
f 211 215 214
f 212 227 228
f 218 221 219
