v 0.18813 0.482684 0.650624
v 0.18813 0.456944 0.650624
v 0.18813 0.495535 0.65034
v 0.186621 0.495535 0.650493
v 0.173755 0.495535 0.650624
v 0.186621 0.456944 0.650624
v 0.18813 0.443795 0.646593
v 0.18813 0.506135 0.64679
v 0.186621 0.506432 0.646965
v 0.160888 0.508411 0.650121
v 0.148004 0.508411 0.650624
v 8.78243e-05 0.495535 0.650624
v 8.78243e-05 0.490464 0.648894
v 8.78243e-05 0.485256 0.647097
v 0.18813 0.443276 0.646286
v 0.18813 0.510316 0.637128
v 0.170773 0.516278 0.645235
v 0.160888 0.518183 0.646593
v 0.135137 0.521287 0.648981
v 0.122271 0.521287 0.649814
v 0.109405 0.521287 0.650383
v 0.0965203 0.521287 0.650624
v 8.78243e-05 0.521287 0.650624
v 0.18813 0.439726 0.637676
v 8.78243e-05 0.481719 0.637128
v 0.143236 0.528362 0.64449
v 0.18813 0.510242 0.624245
v 0.172374 0.516946 0.637128
v 0.135137 0.529117 0.645454
v 0.147728 0.521807 0.646944
v 0.122271 0.529983 0.646264
v 0.109405 0.530824 0.646834
v 0.0193228 0.534151 0.650077
v 0.00643812 0.534151 0.650493
v 8.78243e-05 0.527806 0.650559
v 0.18813 0.420974 0.426813
v 8.78243e-05 0.470438 0.426813
v 0.0252681 0.462893 0.426813
v 0.0539641 0.540917 0.644073
v 0.143954 0.528635 0.637128
v 0.135137 0.530428 0.637128
v 0.160888 0.521522 0.624245
v 0.18813 0.509129 0.547012
v 0.178154 0.514002 0.5985
v 0.150157 0.52595 0.624245
v 0.0450553 0.541498 0.644862
v 0.032189 0.542352 0.645826
v 0.0193228 0.543193 0.646527
v 0.00643812 0.54396 0.646965
v 8.78243e-05 0.534151 0.650493
v 0.18813 0.500112 0.426813
v 8.78243e-05 0.537763 0.426813
v 0.122271 0.53216 0.637128
v 0.0548845 0.541041 0.637128
v 0.0193228 0.545716 0.637128
v 0.00643812 0.547312 0.637128
v 0.143733 0.528548 0.624245
v 0.135137 0.530255 0.624245
v 0.143052 0.528288 0.585639
v 0.142592 0.528115 0.559895
v 0.142132 0.52793 0.534172
v 0.149936 0.525864 0.611383
v 0.160888 0.520409 0.547012
v 0.18813 0.508943 0.534172
v 8.78243e-05 0.54396 0.646965
v 8.78243e-05 0.547324 0.637128
v 0.18813 0.500408 0.430055
v 0.173755 0.506073 0.426813
v 8.78243e-05 0.540942 0.459174
v 0.00643812 0.537763 0.426813
v 0.122271 0.531987 0.624245
v 0.0193228 0.545543 0.624245
v 0.122271 0.530948 0.547012
v 0.122271 0.530774 0.534172
v 0.0517737 0.540632 0.576503
v 0.0193228 0.544504 0.547012
v 0.00643812 0.547213 0.624245
v 0.135137 0.529216 0.547012
v 0.148574 0.525307 0.534172
v 0.141874 0.527831 0.525868
v 0.135137 0.52903 0.534172
v 0.160888 0.520224 0.534172
v 0.18813 0.508424 0.521311
v 0.186621 0.509054 0.521311
v 8.78243e-05 0.547213 0.624245
v 0.18813 0.501361 0.440638
v 0.153507 0.51446 0.426813
v 0.18813 0.50167 0.444078
v 8.78243e-05 0.544591 0.508428
v 0.0027936 0.540942 0.459174
v 0.0108189 0.537206 0.426813
v 0.00643812 0.538134 0.431195
v 0.122271 0.530292 0.521311
v 0.0579215 0.538777 0.521311
v 0.0708062 0.537553 0.534172
v 0.0193228 0.544331 0.534172
v 0.00643812 0.546174 0.547012
v 8.78243e-05 0.547126 0.617715
v 0.160888 0.519716 0.521311
v 0.146899 0.525493 0.521464
v 0.148004 0.524033 0.508428
v 0.140512 0.527558 0.51728
v 0.1358 0.528474 0.521464
v 0.18813 0.508287 0.519471
v 0.147801 0.516797 0.426813
v 0.148832 0.516847 0.432071
v 0.158164 0.516389 0.469822
v 0.18813 0.505133 0.482684
v 8.78243e-05 0.545048 0.514782
v 0.00643812 0.544591 0.508428
v 0.0113711 0.540397 0.465681
v 0.0193228 0.536105 0.426813
v 0.0193228 0.536476 0.431195
v 0.131603 0.528127 0.508428
v 0.122271 0.529377 0.508428
v 0.0394781 0.540707 0.513533
v 0.0193228 0.543861 0.521311
v 0.00643812 0.545988 0.534172
v 8.78243e-05 0.546174 0.547012
v 8.78243e-05 0.546607 0.57911
v 0.175209 0.51279 0.508428
v 0.160888 0.518715 0.508428
v 0.161919 0.517131 0.495435
v 0.138046 0.5272 0.508428
v 0.138892 0.519481 0.426813
v 0.135137 0.520533 0.426813
v 0.18813 0.507434 0.508428
v 0.18813 0.507248 0.506325
v 8.78243e-05 0.545518 0.521311
v 0.00643812 0.545518 0.521311
v 0.0193228 0.542933 0.508428
v 0.0141321 0.540756 0.47427
v 0.0801384 0.528103 0.426813
v 0.0815189 0.528288 0.431195
v 0.0367539 0.540348 0.504944
v 0.129339 0.527806 0.500935
v 0.122271 0.522549 0.426813
v 0.122271 0.52292 0.431195
v 0.0708062 0.536155 0.508428
v 0.126652 0.527447 0.492346
v 0.113767 0.523675 0.426813
v 8.78243e-05 0.545753 0.527643
v 8.78243e-05 0.545988 0.534172
v 0.100901 0.525369 0.426813
f 1 2 7
f 1 7 15
f 1 15 24
f 1 24 36
f 1 36 51
f 1 51 67
f 1 67 86
f 1 86 88
f 1 88 108
f 1 108 128
f 1 128 127
f 1 127 104
f 1 104 83
f 1 83 64
f 1 64 43
f 1 43 27
f 1 27 16
f 1 16 8
f 1 8 3
f 1 3 4
f 1 4 5
f 1 5 11
f 1 11 22
f 1 22 23
f 1 23 12
f 1 12 6
f 1 6 2
f 2 6 7
f 3 8 9
f 3 9 10
f 3 10 4
f 4 10 11
f 4 11 5
f 6 12 7
f 7 13 14
f 7 14 15
f 7 12 13
f 8 16 17
f 8 17 18
f 8 18 9
f 9 18 10
f 10 18 19
f 10 19 20
f 10 20 21
f 10 21 11
f 11 21 22
f 12 23 35
f 12 35 50
f 12 50 65
f 12 65 66
f 12 66 85
f 12 85 98
f 12 98 120
f 12 120 119
f 12 119 143
f 12 143 142
f 12 142 129
f 12 129 109
f 12 109 89
f 12 89 69
f 12 69 52
f 12 52 37
f 12 37 25
f 12 25 14
f 12 14 13
f 14 24 15
f 14 25 24
f 16 26 17
f 16 27 28
f 16 28 26
f 17 26 18
f 18 26 29
f 18 29 30
f 18 30 19
f 19 30 29
f 19 29 31
f 19 31 32
f 19 32 20
f 20 33 21
f 20 32 33
f 21 34 22
f 21 33 34
f 22 34 35
f 22 35 23
f 24 25 36
f 25 37 38
f 25 38 36
f 26 39 29
f 26 28 40
f 26 40 41
f 26 41 39
f 27 42 28
f 27 43 44
f 27 44 42
f 28 42 45
f 28 45 40
f 29 39 46
f 29 46 47
f 29 47 31
f 31 47 48
f 31 48 32
f 32 49 33
f 32 48 49
f 33 49 34
f 34 49 65
f 34 65 50
f 34 50 35
f 36 38 37
f 36 37 52
f 36 52 70
f 36 70 91
f 36 91 112
f 36 112 133
f 36 133 144
f 36 144 141
f 36 141 137
f 36 137 126
f 36 126 125
f 36 125 105
f 36 105 87
f 36 87 68
f 36 68 51
f 39 41 53
f 39 53 54
f 39 54 55
f 39 55 56
f 39 56 46
f 40 45 57
f 40 57 41
f 41 58 71
f 41 71 53
f 41 57 59
f 41 59 60
f 41 60 61
f 41 61 58
f 42 62 45
f 42 44 63
f 42 63 62
f 43 64 82
f 43 82 63
f 43 63 44
f 45 62 57
f 46 56 47
f 47 56 48
f 48 56 49
f 49 56 66
f 49 66 65
f 51 68 67
f 52 69 90
f 52 90 70
f 53 71 54
f 54 72 55
f 54 71 73
f 54 73 74
f 54 74 75
f 54 75 76
f 54 76 72
f 55 72 77
f 55 77 56
f 56 77 66
f 57 62 59
f 58 61 78
f 58 78 73
f 58 73 71
f 59 62 60
f 60 79 61
f 60 62 79
f 61 79 80
f 61 80 81
f 61 81 78
f 62 63 82
f 62 82 79
f 64 83 84
f 64 84 80
f 64 80 82
f 66 77 85
f 67 68 86
f 68 87 88
f 68 88 86
f 69 89 110
f 69 110 90
f 70 90 92
f 70 92 91
f 72 76 97
f 72 97 77
f 73 78 74
f 74 78 81
f 74 81 80
f 74 80 93
f 74 93 94
f 74 94 117
f 74 117 95
f 74 95 75
f 75 95 96
f 75 96 76
f 76 96 97
f 77 98 85
f 77 97 98
f 79 82 80
f 80 84 99
f 80 99 100
f 80 100 101
f 80 101 102
f 80 102 103
f 80 103 93
f 83 104 84
f 84 104 99
f 87 105 106
f 87 106 101
f 87 101 107
f 87 107 108
f 87 108 88
f 89 109 110
f 90 111 92
f 90 110 111
f 91 92 111
f 91 111 113
f 91 113 112
f 93 103 102
f 93 102 114
f 93 114 115
f 93 115 116
f 93 116 94
f 94 116 117
f 95 117 96
f 96 118 97
f 96 117 130
f 96 130 118
f 97 119 120
f 97 120 98
f 97 118 143
f 97 143 119
f 99 104 121
f 99 121 122
f 99 122 101
f 99 101 100
f 101 122 123
f 101 123 107
f 101 106 105
f 101 105 102
f 102 124 114
f 102 105 125
f 102 125 126
f 102 126 124
f 104 127 121
f 107 123 108
f 108 123 121
f 108 121 128
f 109 129 130
f 109 130 110
f 110 130 117
f 110 117 131
f 110 131 111
f 111 131 132
f 111 132 113
f 112 113 133
f 113 134 133
f 113 132 131
f 113 131 135
f 113 135 134
f 114 136 115
f 114 124 137
f 114 137 138
f 114 138 136
f 115 139 116
f 115 136 140
f 115 140 138
f 115 138 141
f 115 141 134
f 115 134 139
f 116 139 135
f 116 135 131
f 116 131 117
f 118 142 143
f 118 130 142
f 121 127 128
f 121 123 122
f 124 126 137
f 129 142 130
f 133 134 144
f 134 141 144
f 134 135 139
f 136 138 140
f 137 141 138
