v 0.18813 0.420969 0.426813
v 0.18813 0.500116 0.426813
v 0.188462 0.420152 0.426813
v 0.18813 0.439713 0.637676
v 0.18813 0.500516 0.431195
v 0.188367 0.50003 0.426813
v 0.320171 0.333076 0.426813
v 0.346792 0.333772 0.64438
v 0.192745 0.437487 0.643767
v 0.18813 0.44326 0.646286
v 0.18813 0.506289 0.495567
v 0.194425 0.502533 0.482684
v 0.192484 0.498326 0.426813
v 0.32824 0.332711 0.426813
v 0.347502 0.332711 0.637128
v 0.348472 0.332711 0.64484
v 0.18813 0.443781 0.646593
v 0.354151 0.332711 0.647404
v 0.18813 0.507437 0.508428
v 0.202257 0.500447 0.495567
v 0.202896 0.494013 0.426813
v 0.417853 0.332711 0.426813
v 0.18813 0.456926 0.650624
v 0.366811 0.332711 0.650296
v 0.20363 0.501021 0.508428
v 0.18813 0.508289 0.519471
v 0.232404 0.489388 0.511627
v 0.219981 0.486937 0.426813
v 0.226417 0.491527 0.507771
v 0.259073 0.476904 0.495567
v 0.25628 0.475757 0.469822
v 0.39781 0.358844 0.426813
v 0.418326 0.332711 0.431195
v 0.18813 0.48266 0.650624
v 0.379684 0.332711 0.650624
v 0.18813 0.508428 0.521311
v 0.1984 0.504185 0.521311
v 0.261652 0.477982 0.521311
v 0.260445 0.477478 0.508428
v 0.251311 0.473949 0.426813
v 0.266881 0.474731 0.508428
v 0.252092 0.474018 0.431195
v 0.388771 0.370616 0.426813
v 0.392131 0.366842 0.431195
v 0.42365 0.332711 0.482158
v 0.404696 0.353976 0.456939
v 0.18813 0.495544 0.65034
v 0.212385 0.48266 0.650624
v 0.392557 0.332711 0.650624
v 0.18813 0.508932 0.534172
v 0.205452 0.501768 0.534172
v 0.212385 0.498899 0.534172
v 0.240308 0.487337 0.534172
v 0.251003 0.482903 0.534172
v 0.262267 0.478226 0.534172
v 0.268703 0.475531 0.534172
v 0.268088 0.475253 0.521311
v 0.256091 0.471862 0.426813
v 0.271851 0.464438 0.426813
v 0.266384 0.46722 0.426813
v 0.263876 0.468871 0.431195
v 0.386428 0.373658 0.426813
v 0.386665 0.373954 0.431195
v 0.397124 0.370842 0.508428
v 0.425023 0.335024 0.512284
v 0.424833 0.332711 0.493485
v 0.199512 0.495544 0.649156
v 0.18813 0.506132 0.64679
v 0.251003 0.469793 0.650362
v 0.225258 0.48266 0.649923
v 0.263876 0.456926 0.650624
v 0.405429 0.332711 0.650559
v 0.392557 0.353976 0.650624
v 0.18813 0.509106 0.545456
v 0.199252 0.504533 0.547012
v 0.240757 0.487528 0.559895
v 0.262504 0.47833 0.547012
v 0.26894 0.475635 0.547012
v 0.276749 0.470488 0.534172
v 0.276749 0.469915 0.521311
v 0.276749 0.468819 0.508428
v 0.272158 0.464646 0.431195
v 0.263876 0.468454 0.426813
v 0.283848 0.463881 0.508428
v 0.27611 0.461256 0.426813
v 0.38373 0.376405 0.426813
v 0.385576 0.385603 0.508428
v 0.386049 0.386073 0.515571
v 0.390025 0.378301 0.495567
v 0.390687 0.37917 0.508428
v 0.420456 0.341944 0.521311
v 0.427531 0.332711 0.521311
v 0.427034 0.332711 0.515351
v 0.426608 0.332711 0.510597
v 0.425685 0.332711 0.50168
v 0.397692 0.371589 0.521311
v 0.402637 0.365156 0.521311
v 0.263876 0.469793 0.648696
v 0.251003 0.480191 0.646812
v 0.225258 0.492031 0.646374
v 0.18813 0.510323 0.637128
v 0.199512 0.50389 0.645607
v 0.289622 0.44406 0.650493
v 0.276749 0.456926 0.650055
v 0.302495 0.431176 0.650624
v 0.418326 0.332711 0.64885
v 0.405429 0.341092 0.650383
v 0.379684 0.379709 0.64966
v 0.353938 0.392593 0.650624
v 0.18813 0.509853 0.59701
v 0.206588 0.502238 0.5985
v 0.23477 0.49038 0.585639
v 0.27036 0.476261 0.629087
v 0.276891 0.472053 0.637128
v 0.28541 0.465081 0.572756
v 0.284984 0.464751 0.534172
v 0.284605 0.464455 0.521311
v 0.282759 0.463029 0.49228
v 0.334984 0.425021 0.512284
v 0.290284 0.458943 0.508428
v 0.30576 0.438548 0.426813
v 0.280346 0.461186 0.456939
v 0.278595 0.45983 0.431195
v 0.278287 0.459604 0.426813
v 0.380086 0.380109 0.426813
v 0.376395 0.38376 0.426813
v 0.37365 0.386438 0.426813
v 0.386404 0.386421 0.524137
v 0.390403 0.380961 0.520435
v 0.373934 0.386681 0.431195
v 0.378288 0.390037 0.495567
v 0.37914 0.390715 0.508428
v 0.37081 0.397149 0.508428
v 0.371567 0.397722 0.521311
v 0.380938 0.39042 0.520435
v 0.427768 0.332711 0.526263
v 0.409381 0.357158 0.534172
v 0.397999 0.371972 0.534172
v 0.402945 0.365538 0.534172
v 0.263876 0.477687 0.645147
v 0.289527 0.457152 0.647228
v 0.275542 0.469428 0.646001
v 0.206895 0.502359 0.644117
v 0.199512 0.505715 0.637128
v 0.18813 0.510236 0.624245
v 0.234415 0.490223 0.644972
v 0.341089 0.40546 0.650383
v 0.328216 0.418326 0.64988
v 0.315344 0.431176 0.649091
v 0.427791 0.332711 0.645322
v 0.418373 0.340779 0.647009
v 0.406045 0.354428 0.647601
v 0.389977 0.379709 0.646133
v 0.387067 0.387081 0.644621
v 0.379684 0.390002 0.646133
v 0.354412 0.406068 0.647601
v 0.18813 0.510218 0.622755
v 0.20725 0.502516 0.637128
v 0.199512 0.50535 0.611383
v 0.23567 0.490745 0.637128
v 0.263876 0.47906 0.637128
v 0.270455 0.476313 0.637128
v 0.28612 0.46562 0.637128
v 0.270455 0.476313 0.643679
v 0.300388 0.453814 0.585639
v 0.299821 0.453379 0.534172
v 0.291042 0.459517 0.521311
v 0.356754 0.409094 0.521311
v 0.355997 0.40852 0.508428
v 0.341089 0.418622 0.495567
v 0.345183 0.410102 0.444078
v 0.344307 0.409424 0.431195
v 0.370597 0.388785 0.426813
v 0.286687 0.453171 0.426813
v 0.28115 0.457413 0.426813
v 0.371946 0.398018 0.534172
v 0.379684 0.392054 0.534172
v 0.386594 0.386612 0.534172
v 0.392036 0.379709 0.534172
v 0.425685 0.335893 0.534172
v 0.428122 0.332711 0.534172
v 0.398118 0.372111 0.547012
v 0.398543 0.372685 0.5985
v 0.403702 0.36653 0.624245
v 0.429874 0.332711 0.637128
v 0.428359 0.332711 0.547012
v 0.299371 0.453032 0.645739
v 0.285197 0.464907 0.645147
v 0.340758 0.418379 0.647009
v 0.425993 0.336275 0.644906
v 0.414114 0.350446 0.645585
v 0.398851 0.373102 0.637128
v 0.393763 0.379709 0.637128
v 0.387469 0.387481 0.637128
v 0.379684 0.393775 0.637128
v 0.322088 0.437852 0.643876
v 0.336262 0.425994 0.644906
v 0.350436 0.414136 0.645585
v 0.292556 0.460682 0.637128
v 0.357985 0.41005 0.611383
v 0.306257 0.448441 0.534172
v 0.357133 0.409389 0.534172
v 0.372372 0.398348 0.572756
v 0.357417 0.409615 0.559895
v 0.365794 0.403182 0.559895
v 0.37294 0.398783 0.624245
v 0.379684 0.392489 0.559895
v 0.379684 0.393358 0.611383
v 0.379684 0.393567 0.624245
v 0.386712 0.386716 0.547012
v 0.39355 0.379709 0.624245
v 0.393125 0.379709 0.5985
v 0.398756 0.372963 0.624245
v 0.387043 0.387047 0.585639
v 0.387256 0.387273 0.611383
v 0.373082 0.39887 0.637128
v 0.351832 0.415197 0.637128
v 0.358127 0.410154 0.624245
f 1 2 6
f 1 6 13
f 1 13 21
f 1 21 28
f 1 28 40
f 1 40 58
f 1 58 83
f 1 83 60
f 1 60 59
f 1 59 85
f 1 85 124
f 1 124 175
f 1 175 174
f 1 174 121
f 1 121 173
f 1 173 127
f 1 127 126
f 1 126 125
f 1 125 86
f 1 86 62
f 1 62 43
f 1 43 32
f 1 32 22
f 1 22 14
f 1 14 7
f 1 7 3
f 1 3 4
f 1 4 10
f 1 10 17
f 1 17 23
f 1 23 34
f 1 34 47
f 1 47 68
f 1 68 101
f 1 101 145
f 1 145 157
f 1 157 110
f 1 110 74
f 1 74 50
f 1 50 36
f 1 36 26
f 1 26 19
f 1 19 11
f 1 11 5
f 1 5 2
f 2 5 6
f 3 7 8
f 3 8 4
f 4 9 10
f 4 8 9
f 5 11 6
f 6 12 13
f 6 11 12
f 7 14 15
f 7 15 16
f 7 16 8
f 8 16 9
f 9 16 10
f 10 16 18
f 10 18 17
f 11 19 20
f 11 20 12
f 12 20 13
f 13 20 21
f 14 22 33
f 14 33 45
f 14 45 66
f 14 66 95
f 14 95 94
f 14 94 93
f 14 93 92
f 14 92 136
f 14 136 181
f 14 181 186
f 14 186 185
f 14 185 150
f 14 150 106
f 14 106 72
f 14 72 49
f 14 49 35
f 14 35 24
f 14 24 18
f 14 18 16
f 14 16 15
f 17 18 24
f 17 24 23
f 19 25 20
f 19 26 27
f 19 27 25
f 20 28 21
f 20 25 29
f 20 29 30
f 20 30 31
f 20 31 28
f 22 32 33
f 23 24 35
f 23 35 49
f 23 49 73
f 23 73 109
f 23 109 105
f 23 105 71
f 23 71 48
f 23 48 34
f 25 27 29
f 26 36 37
f 26 37 27
f 27 37 38
f 27 38 39
f 27 39 30
f 27 30 29
f 28 31 40
f 30 39 41
f 30 41 31
f 31 41 42
f 31 42 40
f 32 43 44
f 32 44 33
f 33 44 46
f 33 46 45
f 34 48 47
f 36 50 37
f 37 50 51
f 37 51 52
f 37 52 53
f 37 53 38
f 38 53 54
f 38 54 55
f 38 55 56
f 38 56 57
f 38 57 39
f 39 57 41
f 40 42 58
f 41 57 59
f 41 59 60
f 41 60 61
f 41 61 42
f 42 61 58
f 43 62 63
f 43 63 44
f 44 63 64
f 44 64 46
f 45 46 65
f 45 65 66
f 46 64 65
f 47 67 68
f 47 48 69
f 47 69 70
f 47 70 67
f 48 71 69
f 49 72 73
f 50 74 75
f 50 75 51
f 51 75 52
f 52 75 53
f 53 76 77
f 53 77 54
f 53 75 76
f 54 77 55
f 55 77 78
f 55 78 56
f 56 78 79
f 56 79 80
f 56 80 57
f 57 80 81
f 57 81 82
f 57 82 59
f 58 61 83
f 59 82 84
f 59 84 85
f 60 83 61
f 62 86 87
f 62 87 88
f 62 88 63
f 63 88 89
f 63 89 64
f 64 89 90
f 64 90 88
f 64 88 65
f 65 91 92
f 65 92 93
f 65 93 94
f 65 94 95
f 65 95 66
f 65 88 96
f 65 96 97
f 65 97 91
f 67 70 98
f 67 98 99
f 67 99 100
f 67 100 68
f 68 100 102
f 68 102 101
f 69 71 103
f 69 103 104
f 69 104 98
f 69 98 70
f 71 105 103
f 72 106 107
f 72 107 73
f 73 107 108
f 73 108 109
f 74 110 75
f 75 110 111
f 75 111 112
f 75 112 76
f 76 113 77
f 76 112 113
f 77 113 78
f 78 113 79
f 79 114 115
f 79 115 116
f 79 116 117
f 79 117 80
f 79 113 114
f 80 117 81
f 81 117 84
f 81 84 82
f 84 118 85
f 84 117 119
f 84 119 120
f 84 120 121
f 84 121 118
f 85 118 122
f 85 122 123
f 85 123 124
f 86 125 87
f 87 125 126
f 87 126 127
f 87 127 88
f 88 128 129
f 88 129 96
f 88 90 89
f 88 127 130
f 88 130 131
f 88 131 132
f 88 132 133
f 88 133 134
f 88 134 135
f 88 135 128
f 91 136 92
f 91 97 137
f 91 137 136
f 96 138 139
f 96 139 97
f 96 129 128
f 96 128 138
f 97 139 137
f 98 140 99
f 98 104 141
f 98 141 142
f 98 142 140
f 99 140 100
f 100 140 102
f 101 102 143
f 101 143 144
f 101 144 145
f 102 140 146
f 102 146 143
f 103 105 109
f 103 109 147
f 103 147 104
f 104 147 148
f 104 148 149
f 104 149 141
f 106 150 151
f 106 151 152
f 106 152 108
f 106 108 107
f 108 153 154
f 108 154 155
f 108 155 156
f 108 156 149
f 108 149 148
f 108 148 147
f 108 147 109
f 108 152 153
f 110 157 158
f 110 158 159
f 110 159 111
f 111 158 160
f 111 160 113
f 111 113 112
f 111 159 158
f 113 161 162
f 113 162 114
f 113 160 161
f 114 163 115
f 114 162 164
f 114 164 163
f 115 163 165
f 115 165 166
f 115 166 116
f 116 166 117
f 117 166 201
f 117 201 167
f 117 167 119
f 118 121 122
f 119 168 134
f 119 134 133
f 119 133 169
f 119 169 120
f 119 167 168
f 120 169 170
f 120 170 121
f 121 170 171
f 121 171 172
f 121 172 173
f 121 174 122
f 122 174 175
f 122 175 123
f 123 175 124
f 127 173 130
f 128 135 134
f 128 134 176
f 128 176 177
f 128 177 178
f 128 178 179
f 128 179 138
f 130 173 171
f 130 171 133
f 130 133 131
f 131 133 132
f 133 171 170
f 133 170 169
f 134 168 202
f 134 202 176
f 136 180 181
f 136 137 180
f 137 139 182
f 137 182 183
f 137 183 184
f 137 184 185
f 137 185 186
f 137 186 180
f 138 182 139
f 138 179 182
f 140 142 164
f 140 164 146
f 141 187 188
f 141 188 142
f 141 149 156
f 141 156 189
f 141 189 187
f 142 188 164
f 143 146 164
f 143 164 144
f 144 157 145
f 144 164 158
f 144 158 157
f 150 185 190
f 150 190 191
f 150 191 151
f 151 191 153
f 151 153 152
f 153 191 154
f 154 191 190
f 154 190 185
f 154 185 192
f 154 192 193
f 154 193 194
f 154 194 195
f 154 195 196
f 154 196 197
f 154 197 198
f 154 198 155
f 155 198 189
f 155 189 156
f 158 164 160
f 160 164 161
f 161 164 162
f 163 199 165
f 163 164 196
f 163 196 199
f 164 188 196
f 165 199 200
f 165 200 201
f 165 201 166
f 167 201 168
f 168 201 202
f 171 173 172
f 176 203 177
f 176 202 204
f 176 204 205
f 176 205 203
f 177 203 206
f 177 206 207
f 177 207 178
f 178 207 208
f 178 208 209
f 178 209 195
f 178 195 210
f 178 210 193
f 178 193 211
f 178 211 212
f 178 212 179
f 179 212 182
f 180 186 181
f 182 212 183
f 183 212 213
f 183 213 184
f 184 213 192
f 184 192 185
f 187 189 198
f 187 198 188
f 188 198 197
f 188 197 196
f 192 213 193
f 193 213 211
f 193 210 214
f 193 214 215
f 193 215 194
f 194 215 195
f 195 209 206
f 195 206 216
f 195 216 196
f 195 215 214
f 195 214 210
f 196 216 217
f 196 217 199
f 199 217 218
f 199 218 200
f 200 218 206
f 200 206 203
f 200 203 204
f 200 204 201
f 201 204 202
f 203 205 204
f 206 209 208
f 206 208 207
f 206 218 217
f 206 217 216
f 211 213 212
