v 8.78243e-05 0.521282 0.650624
v 8.78243e-05 0.495538 0.650624
v 8.78243e-05 0.527805 0.650559
v -0.0965289 0.521282 0.650624
v -0.185202 0.458376 0.650624
v -0.185202 0.456938 0.650537
v -0.185202 0.446163 0.647097
v 8.78243e-05 0.490465 0.648894
v 8.78243e-05 0.534149 0.650493
v -0.00644155 0.534149 0.650493
v -0.109406 0.521282 0.650383
v -0.14802 0.508416 0.650624
v -0.185202 0.484109 0.650624
v -0.185202 0.444523 0.646462
v 8.78243e-05 0.485261 0.647097
v 8.78243e-05 0.543962 0.646965
v -0.00644155 0.543962 0.646965
v -0.0193189 0.534149 0.650077
v -0.122266 0.521282 0.649814
v -0.16088 0.508416 0.650121
v -0.185202 0.495538 0.650515
v -0.173757 0.495538 0.650624
v -0.185202 0.441363 0.638903
v 8.78243e-05 0.481721 0.637128
v 8.78243e-05 0.547312 0.637128
v -0.00644155 0.547324 0.637128
v -0.0193189 0.543202 0.646527
v -0.109406 0.530834 0.646834
v -0.135143 0.521282 0.648981
v -0.16088 0.518182 0.646593
v -0.185202 0.506788 0.647009
v -0.185202 0.497177 0.650121
v -0.185202 0.440971 0.637281
v -0.185202 0.425954 0.426813
v 8.78243e-05 0.470434 0.426813
v 8.78243e-05 0.547265 0.630599
v -0.0539609 0.540921 0.644073
v -0.0450556 0.541503 0.644862
v -0.0321963 0.542346 0.645826
v -0.00644155 0.547205 0.624245
v -0.0193189 0.54572 0.637128
v -0.122266 0.529979 0.646264
v -0.135143 0.529123 0.645454
v -0.147712 0.521805 0.646944
v -0.143232 0.528363 0.64449
v -0.170764 0.516281 0.645235
v -0.185202 0.507846 0.645147
v -0.185202 0.501323 0.426813
v 8.78243e-05 0.537772 0.426813
v 8.78243e-05 0.547205 0.624245
v -0.0450556 0.542334 0.637128
v -0.0548859 0.541039 0.637128
v -0.109406 0.533852 0.637128
v -0.122266 0.532153 0.637128
v -0.135143 0.53043 0.637128
v 8.78243e-05 0.547122 0.617715
v -0.00644155 0.547039 0.611383
v -0.0193189 0.545376 0.611383
v -0.0321963 0.543855 0.624245
v -0.143958 0.528636 0.637128
v -0.172379 0.516946 0.637128
v -0.185202 0.511517 0.637128
v -0.184095 0.501787 0.426813
v -0.185202 0.501537 0.429135
v -0.00644155 0.537772 0.426813
v 8.78243e-05 0.540944 0.459174
v -0.0708104 0.53877 0.624245
v -0.109406 0.533686 0.624245
v -0.122266 0.531987 0.624245
v -0.142579 0.528114 0.559895
v -0.143722 0.528553 0.624245
v -0.135143 0.530264 0.624245
v -0.142126 0.527935 0.534172
v 8.78243e-05 0.547039 0.611383
v -0.00644155 0.546695 0.585639
v -0.0193189 0.544509 0.547012
v -0.0321963 0.542988 0.559895
v -0.150161 0.525951 0.624245
v -0.16088 0.52152 0.624245
v -0.1786 0.51419 0.624245
v -0.185202 0.511457 0.624245
v -0.181919 0.50269 0.426813
v -0.185202 0.50288 0.444078
v -0.0193189 0.536109 0.426813
v -0.0193189 0.536477 0.431195
v -0.0113749 0.540398 0.465681
v -0.00277785 0.540944 0.459174
v 8.78243e-05 0.544592 0.508428
v -0.0708104 0.537903 0.559895
v -0.109406 0.532818 0.559895
v -0.122266 0.531642 0.5985
v -0.122266 0.530775 0.534172
v -0.135143 0.52904 0.534172
v -0.141872 0.527829 0.525868
v -0.148564 0.525298 0.534172
v -0.1488 0.525393 0.547012
v -0.149254 0.525583 0.572756
v 8.78243e-05 0.546695 0.585639
v 8.78243e-05 0.546433 0.566249
v -0.00644155 0.546172 0.547012
v -0.0193189 0.54433 0.534172
v -0.0431693 0.541194 0.534172
v -0.16088 0.521152 0.5985
v -0.17149 0.516578 0.585639
v -0.185202 0.510341 0.547012
v -0.179452 0.503711 0.426813
v -0.154604 0.514915 0.436935
v -0.185202 0.508654 0.508428
v -0.0535619 0.531606 0.426813
v -0.016816 0.541111 0.482684
v -0.00644155 0.543522 0.495567
v -0.00644155 0.544592 0.508428
v 8.78243e-05 0.545055 0.514782
v -0.0836696 0.53586 0.534172
v -0.122266 0.5303 0.521311
v -0.185202 0.510079 0.532376
v -0.185202 0.510151 0.534172
v -0.177022 0.513536 0.534172
v -0.16088 0.520213 0.534172
v -0.135796 0.528482 0.521464
v -0.140512 0.527567 0.517301
v -0.14802 0.524027 0.508428
v -0.146896 0.525488 0.521464
v -0.16088 0.519714 0.521311
v -0.185202 0.50964 0.521311
v -0.16088 0.520403 0.547012
v -0.16088 0.520593 0.559895
v 8.78243e-05 0.546172 0.547012
v -0.00644155 0.545994 0.534172
v -0.0193189 0.543855 0.521311
v -0.0413737 0.540956 0.521311
v -0.177475 0.513727 0.559895
v -0.150269 0.515794 0.426813
v -0.166901 0.514677 0.491097
v -0.158159 0.516388 0.469822
v -0.185202 0.509521 0.51969
v -0.16088 0.518716 0.508428
v -0.0781015 0.528375 0.426813
v -0.0708104 0.534006 0.482684
v -0.0394693 0.540707 0.513511
v -0.0193189 0.542928 0.508428
v -0.00644155 0.545518 0.521311
v 8.78243e-05 0.545518 0.521311
v -0.0836696 0.535384 0.521311
v -0.122266 0.529373 0.508428
v -0.131606 0.528126 0.508428
v -0.138045 0.527199 0.508428
v -0.135143 0.520534 0.426813
v -0.147803 0.516804 0.426813
v 8.78243e-05 0.545994 0.534172
v 8.78243e-05 0.545756 0.527643
v -0.0920853 0.526534 0.426813
v -0.109406 0.531072 0.508428
v -0.0708104 0.536157 0.508428
v -0.109406 0.524253 0.426813
v -0.129339 0.527805 0.500935
v -0.118076 0.528019 0.485576
v -0.122266 0.522922 0.431195
v -0.126655 0.527448 0.492346
v -0.122266 0.522554 0.426813
v -0.130772 0.521223 0.426813
v -0.115355 0.527662 0.477009
f 1 2 8
f 1 8 15
f 1 15 24
f 1 24 35
f 1 35 49
f 1 49 66
f 1 66 88
f 1 88 113
f 1 113 143
f 1 143 151
f 1 151 150
f 1 150 128
f 1 128 99
f 1 99 98
f 1 98 74
f 1 74 56
f 1 56 50
f 1 50 36
f 1 36 25
f 1 25 16
f 1 16 9
f 1 9 3
f 1 3 4
f 1 4 12
f 1 12 22
f 1 22 13
f 1 13 5
f 1 5 2
f 2 5 6
f 2 6 7
f 2 7 8
f 3 9 10
f 3 10 4
f 4 10 11
f 4 11 12
f 5 13 21
f 5 21 32
f 5 32 31
f 5 31 47
f 5 47 62
f 5 62 81
f 5 81 105
f 5 105 117
f 5 117 116
f 5 116 125
f 5 125 136
f 5 136 108
f 5 108 83
f 5 83 64
f 5 64 48
f 5 48 34
f 5 34 33
f 5 33 23
f 5 23 14
f 5 14 7
f 5 7 6
f 7 14 15
f 7 15 8
f 9 16 17
f 9 17 10
f 10 17 18
f 10 18 11
f 11 18 19
f 11 19 20
f 11 20 12
f 12 20 21
f 12 21 22
f 13 22 21
f 14 23 15
f 15 23 24
f 16 25 26
f 16 26 17
f 17 26 27
f 17 27 28
f 17 28 18
f 18 28 19
f 19 29 20
f 19 28 29
f 20 29 30
f 20 30 31
f 20 31 32
f 20 32 21
f 23 33 24
f 24 33 34
f 24 34 35
f 25 36 26
f 26 37 38
f 26 38 39
f 26 39 27
f 26 36 40
f 26 40 41
f 26 41 37
f 27 39 42
f 27 42 28
f 28 42 29
f 29 42 43
f 29 43 44
f 29 44 30
f 30 44 43
f 30 43 45
f 30 45 46
f 30 46 31
f 31 46 47
f 34 48 63
f 34 63 82
f 34 82 106
f 34 106 133
f 34 133 149
f 34 149 148
f 34 148 161
f 34 161 160
f 34 160 155
f 34 155 152
f 34 152 138
f 34 138 109
f 34 109 84
f 34 84 65
f 34 65 49
f 34 49 35
f 36 50 40
f 37 41 51
f 37 51 52
f 37 52 53
f 37 53 54
f 37 54 55
f 37 55 45
f 37 45 43
f 37 43 38
f 38 43 39
f 39 43 42
f 40 50 56
f 40 56 57
f 40 57 41
f 41 57 75
f 41 75 58
f 41 58 59
f 41 59 51
f 45 55 60
f 45 60 61
f 45 61 62
f 45 62 46
f 46 62 47
f 48 64 63
f 49 65 87
f 49 87 66
f 51 59 67
f 51 67 52
f 52 67 68
f 52 68 53
f 53 68 69
f 53 69 54
f 54 69 72
f 54 72 55
f 55 70 71
f 55 71 60
f 55 72 73
f 55 73 70
f 56 74 57
f 57 74 98
f 57 98 75
f 58 75 76
f 58 76 59
f 59 76 77
f 59 77 89
f 59 89 67
f 60 71 78
f 60 78 61
f 61 78 79
f 61 79 80
f 61 80 81
f 61 81 62
f 63 64 82
f 64 83 82
f 65 84 85
f 65 85 86
f 65 86 87
f 66 87 112
f 66 112 88
f 67 89 90
f 67 90 68
f 68 90 91
f 68 91 69
f 69 91 72
f 70 78 71
f 70 73 78
f 72 91 92
f 72 92 93
f 72 93 73
f 73 93 94
f 73 94 95
f 73 95 96
f 73 96 97
f 73 97 78
f 75 98 99
f 75 99 100
f 75 100 76
f 76 100 129
f 76 129 101
f 76 101 102
f 76 102 77
f 77 102 89
f 78 97 103
f 78 103 79
f 79 103 80
f 80 103 104
f 80 104 81
f 81 104 105
f 82 83 107
f 82 107 106
f 83 108 107
f 84 109 85
f 85 109 110
f 85 110 86
f 86 110 111
f 86 111 87
f 87 111 112
f 88 112 113
f 89 102 114
f 89 114 92
f 89 92 90
f 90 92 91
f 92 94 93
f 92 114 144
f 92 144 115
f 92 115 94
f 94 116 117
f 94 117 118
f 94 118 119
f 94 119 95
f 94 115 120
f 94 120 121
f 94 121 122
f 94 122 123
f 94 123 124
f 94 124 125
f 94 125 116
f 95 119 96
f 96 126 127
f 96 127 97
f 96 119 126
f 97 127 103
f 99 128 100
f 100 128 150
f 100 150 129
f 101 129 142
f 101 142 130
f 101 130 131
f 101 131 102
f 102 131 114
f 103 127 104
f 104 127 132
f 104 132 105
f 105 132 127
f 105 127 118
f 105 118 117
f 106 107 133
f 107 108 134
f 107 134 135
f 107 135 122
f 107 122 133
f 108 136 124
f 108 124 137
f 108 137 134
f 109 138 139
f 109 139 140
f 109 140 110
f 110 140 141
f 110 141 111
f 111 141 112
f 112 141 140
f 112 140 142
f 112 142 113
f 113 142 143
f 114 131 144
f 115 144 140
f 115 140 145
f 115 145 146
f 115 146 121
f 115 121 120
f 118 127 126
f 118 126 119
f 121 146 147
f 121 147 148
f 121 148 149
f 121 149 122
f 122 135 137
f 122 137 124
f 122 124 123
f 122 149 133
f 124 136 125
f 129 150 151
f 129 151 142
f 130 142 140
f 130 140 131
f 131 140 144
f 134 137 135
f 138 152 139
f 139 153 154
f 139 154 140
f 139 152 155
f 139 155 153
f 140 154 153
f 140 153 145
f 142 151 143
f 145 156 146
f 145 153 157
f 145 157 158
f 145 158 159
f 145 159 156
f 146 156 158
f 146 158 160
f 146 160 147
f 147 160 161
f 147 161 148
f 153 162 157
f 153 155 162
f 155 160 158
f 155 158 162
f 156 159 158
f 157 162 158
