v -0.415137 0.336235 0.426813
v -0.415611 0.336235 0.431195
v -0.414118 0.337574 0.426813
v -0.324754 0.336235 0.426813
v -0.417813 0.336235 0.452207
v -0.398036 0.359143 0.431195
v -0.412437 0.33977 0.426813
v -0.344366 0.336235 0.641663
v -0.186646 0.424642 0.426813
v -0.421532 0.336235 0.48781
v -0.404692 0.353978 0.456939
v -0.395786 0.369079 0.482684
v -0.38643 0.37366 0.426813
v -0.345337 0.336235 0.64484
v -0.185225 0.440961 0.637281
v -0.185225 0.425946 0.426813
v -0.423971 0.336235 0.511298
v -0.408505 0.356003 0.508428
v -0.4014 0.363519 0.495567
v -0.402063 0.364394 0.508428
v -0.397112 0.370829 0.508428
v -0.390694 0.379169 0.508428
v -0.386052 0.386084 0.515592
v -0.385578 0.385604 0.508428
v -0.380083 0.380112 0.426813
v -0.347374 0.336235 0.646177
v -0.192757 0.437477 0.643767
v -0.185225 0.444513 0.646462
v -0.185225 0.441355 0.638903
v -0.185225 0.501328 0.426813
v -0.424824 0.336235 0.521311
v -0.414024 0.350323 0.521311
v -0.397705 0.371584 0.521311
v -0.386407 0.386427 0.524181
v -0.380936 0.390425 0.520457
v -0.371556 0.397718 0.521311
v -0.365138 0.40266 0.521311
v -0.334986 0.425019 0.512306
v -0.36438 0.402077 0.508428
v -0.379159 0.3907 0.508428
v -0.373641 0.386444 0.426813
v -0.39041 0.380953 0.520457
v -0.354053 0.336235 0.648258
v -0.185225 0.446143 0.647097
v -0.358814 0.336235 0.649726
v -0.185225 0.501723 0.431195
v -0.188375 0.500024 0.426813
v -0.425393 0.336235 0.533449
v -0.409381 0.357153 0.534172
v -0.397989 0.371962 0.534172
v -0.39202 0.379718 0.534172
v -0.386596 0.386616 0.534172
v -0.379704 0.392038 0.534172
v -0.371959 0.39801 0.534172
v -0.341926 0.420472 0.521311
v -0.305119 0.447567 0.508428
v -0.340008 0.420764 0.508165
v -0.29105 0.45951 0.521311
v -0.284608 0.464452 0.521311
v -0.369946 0.396466 0.495567
v -0.369069 0.395796 0.482684
v -0.367317 0.394458 0.456939
v -0.365564 0.394578 0.445217
v -0.366819 0.392141 0.431195
v -0.354574 0.401082 0.426813
v -0.185225 0.456919 0.650537
v -0.366819 0.336235 0.650449
v -0.212534 0.49002 0.426813
v -0.185225 0.507368 0.494121
v -0.425416 0.336235 0.534172
v -0.42075 0.342327 0.534172
v -0.403484 0.366247 0.5985
v -0.398107 0.372116 0.547012
v -0.425866 0.336235 0.559895
v -0.427169 0.336235 0.637128
v -0.39247 0.379718 0.559895
v -0.386928 0.386942 0.572756
v -0.379704 0.393772 0.637128
v -0.379704 0.393566 0.624245
v -0.379704 0.39336 0.611383
v -0.379704 0.392485 0.559895
v -0.379704 0.392261 0.547012
v -0.39356 0.379718 0.624245
v -0.372101 0.39813 0.547012
v -0.291429 0.459802 0.534172
v -0.28385 0.463869 0.508428
v -0.282761 0.463028 0.49228
v -0.295172 0.449815 0.456939
v -0.284987 0.464744 0.534172
v -0.276745 0.470475 0.534172
v -0.276745 0.469909 0.521311
v -0.276745 0.468811 0.508428
v -0.288871 0.451497 0.426813
v -0.303698 0.44012 0.426813
v -0.185225 0.45836 0.650624
v -0.186646 0.456919 0.650624
v -0.371698 0.336235 0.650624
v -0.247162 0.475675 0.426813
v -0.186646 0.508055 0.508428
v -0.185225 0.508638 0.508428
v -0.254883 0.475177 0.456939
v -0.226414 0.49153 0.507792
v -0.398652 0.37282 0.611383
v -0.426008 0.336235 0.644906
v -0.425985 0.336287 0.644906
v -0.38707 0.387079 0.644621
v -0.415184 0.351833 0.637128
v -0.403697 0.366522 0.624245
v -0.387259 0.387268 0.611383
v -0.37293 0.398782 0.624245
v -0.387473 0.387491 0.637128
v -0.322078 0.437855 0.643876
v -0.351827 0.415204 0.637128
v -0.398842 0.373094 0.637128
v -0.393749 0.379718 0.637128
v -0.366227 0.403501 0.5985
v -0.3577 0.409833 0.585639
v -0.292424 0.460574 0.624245
v -0.291571 0.459922 0.547012
v -0.271865 0.464435 0.426813
v -0.281221 0.461861 0.469822
v -0.285129 0.464864 0.547012
v -0.276745 0.47111 0.572756
v -0.27035 0.476258 0.629087
v -0.270065 0.476121 0.611383
v -0.268715 0.475537 0.534172
v -0.2681 0.475263 0.521311
v -0.278592 0.459836 0.431195
v -0.278284 0.459613 0.426813
v -0.185225 0.4841 0.650624
v -0.397444 0.336235 0.650624
v -0.251307 0.473941 0.426813
v -0.185225 0.509513 0.51969
v -0.232406 0.489385 0.511649
v -0.252088 0.47401 0.431195
v -0.266892 0.474731 0.508428
v -0.257133 0.476104 0.477688
v -0.259052 0.47691 0.495567
v -0.237261 0.487034 0.507792
v -0.422456 0.336235 0.646659
v -0.414118 0.350461 0.645585
v -0.389983 0.379718 0.646133
v -0.379704 0.379718 0.64966
v -0.379704 0.390014 0.646133
v -0.350429 0.414123 0.645585
v -0.336265 0.42598 0.644906
v -0.343442 0.421639 0.637128
v -0.285177 0.464898 0.645147
v -0.270468 0.476309 0.643679
v -0.286124 0.465619 0.637128
v -0.292566 0.460677 0.637128
v -0.263884 0.468467 0.426813
v -0.276887 0.472054 0.637128
v -0.270444 0.476309 0.637128
v -0.263884 0.479055 0.637128
v -0.265115 0.478369 0.624573
v -0.263623 0.478798 0.611383
v -0.262723 0.47842 0.559895
v -0.262273 0.478231 0.534172
v -0.261657 0.477974 0.521311
v -0.260449 0.477476 0.508428
v -0.185225 0.495545 0.650515
v -0.212392 0.482658 0.650624
v -0.392565 0.353978 0.650624
v -0.405426 0.336235 0.650493
v -0.185225 0.509633 0.521311
v -0.186646 0.50905 0.521311
v -0.204836 0.501517 0.521311
v -0.239677 0.487086 0.521311
v -0.418334 0.336235 0.648039
v -0.418358 0.340783 0.647009
v -0.406042 0.354442 0.647601
v -0.410305 0.336235 0.650186
v -0.405426 0.341091 0.650383
v -0.379704 0.366848 0.650624
v -0.353958 0.392587 0.650624
v -0.341073 0.405457 0.650383
v -0.328212 0.418327 0.64988
v -0.315328 0.43118 0.649091
v -0.354408 0.406075 0.647601
v -0.340766 0.418378 0.647009
v -0.299364 0.453024 0.645739
v -0.289535 0.457159 0.647228
v -0.275537 0.469428 0.646001
v -0.263884 0.477699 0.645147
v -0.234419 0.490226 0.644972
v -0.206897 0.502358 0.644117
v -0.199507 0.505721 0.637128
v -0.24143 0.487806 0.5985
v -0.24053 0.487429 0.547012
v -0.185225 0.510148 0.534172
v -0.185225 0.51008 0.532376
v -0.185225 0.497176 0.650121
v -0.186646 0.495545 0.650493
v -0.250999 0.469789 0.650362
v -0.263884 0.456919 0.650624
v -0.30249 0.43118 0.650624
v -0.289606 0.444049 0.650493
v -0.276745 0.456919 0.650055
v -0.263884 0.469789 0.648696
v -0.250999 0.480188 0.646812
v -0.225253 0.492028 0.646374
v -0.199507 0.503885 0.645607
v -0.185225 0.511521 0.637128
v -0.185225 0.511452 0.624245
v -0.185225 0.510869 0.58358
v -0.185225 0.510526 0.559895
v -0.185225 0.510337 0.547012
v -0.185225 0.506785 0.647009
v -0.199507 0.495545 0.649156
v -0.225253 0.482658 0.649923
v -0.186646 0.506425 0.646965
v -0.185225 0.507849 0.645147
f 1 2 3
f 1 3 7
f 1 7 13
f 1 13 25
f 1 25 41
f 1 41 65
f 1 65 94
f 1 94 93
f 1 93 129
f 1 129 120
f 1 120 152
f 1 152 132
f 1 132 98
f 1 98 68
f 1 68 47
f 1 47 30
f 1 30 16
f 1 16 9
f 1 9 4
f 1 4 8
f 1 8 14
f 1 14 26
f 1 26 43
f 1 43 45
f 1 45 67
f 1 67 97
f 1 97 131
f 1 131 165
f 1 165 173
f 1 173 170
f 1 170 140
f 1 140 104
f 1 104 75
f 1 75 74
f 1 74 70
f 1 70 48
f 1 48 31
f 1 31 17
f 1 17 10
f 1 10 5
f 1 5 2
f 2 5 6
f 2 6 7
f 2 7 3
f 4 9 8
f 5 10 11
f 5 11 6
f 6 11 12
f 6 12 13
f 6 13 7
f 8 9 15
f 8 15 14
f 9 16 15
f 10 17 18
f 10 18 19
f 10 19 11
f 11 19 12
f 12 19 20
f 12 20 21
f 12 21 22
f 12 22 13
f 13 23 24
f 13 24 25
f 13 22 23
f 14 15 27
f 14 27 28
f 14 28 26
f 15 16 30
f 15 30 46
f 15 46 69
f 15 69 100
f 15 100 133
f 15 133 166
f 15 166 192
f 15 192 191
f 15 191 208
f 15 208 207
f 15 207 206
f 15 206 205
f 15 205 204
f 15 204 213
f 15 213 209
f 15 209 193
f 15 193 162
f 15 162 130
f 15 130 95
f 15 95 66
f 15 66 44
f 15 44 28
f 15 28 29
f 15 29 27
f 17 31 32
f 17 32 33
f 17 33 23
f 17 23 20
f 17 20 18
f 18 20 19
f 20 23 21
f 21 23 22
f 23 34 35
f 23 35 36
f 23 36 37
f 23 37 38
f 23 38 39
f 23 39 40
f 23 40 41
f 23 41 24
f 23 33 42
f 23 42 34
f 24 41 25
f 26 28 43
f 27 29 28
f 28 44 45
f 28 45 43
f 30 47 46
f 31 48 32
f 32 48 49
f 32 49 33
f 33 49 50
f 33 50 51
f 33 51 34
f 33 34 42
f 34 52 53
f 34 53 54
f 34 54 37
f 34 37 36
f 34 36 35
f 34 51 52
f 37 54 55
f 37 55 38
f 38 56 57
f 38 57 39
f 38 55 58
f 38 58 59
f 38 59 56
f 39 60 40
f 39 57 60
f 40 60 41
f 41 60 61
f 41 61 62
f 41 62 63
f 41 63 64
f 41 64 65
f 44 66 45
f 45 66 67
f 46 47 68
f 46 68 69
f 48 70 71
f 48 71 49
f 49 72 73
f 49 73 50
f 49 71 74
f 49 74 75
f 49 75 72
f 50 73 51
f 51 73 76
f 51 76 52
f 52 77 78
f 52 78 79
f 52 79 80
f 52 80 81
f 52 81 82
f 52 82 53
f 52 76 83
f 52 83 77
f 53 82 84
f 53 84 54
f 54 84 119
f 54 119 85
f 54 85 58
f 54 58 55
f 56 63 62
f 56 62 57
f 56 59 86
f 56 86 87
f 56 87 88
f 56 88 63
f 57 62 61
f 57 61 60
f 58 85 89
f 58 89 59
f 59 89 90
f 59 90 91
f 59 91 92
f 59 92 86
f 63 65 64
f 63 88 93
f 63 93 94
f 63 94 65
f 66 95 96
f 66 96 67
f 67 96 97
f 68 98 69
f 69 99 100
f 69 98 101
f 69 101 102
f 69 102 99
f 70 74 71
f 72 103 73
f 72 75 103
f 73 103 83
f 73 83 76
f 75 104 105
f 75 105 106
f 75 106 107
f 75 107 83
f 75 83 108
f 75 108 103
f 77 109 78
f 77 83 109
f 78 110 79
f 78 109 111
f 78 111 106
f 78 106 112
f 78 112 113
f 78 113 110
f 79 110 80
f 80 110 84
f 80 84 81
f 81 84 82
f 83 103 108
f 83 107 114
f 83 114 115
f 83 115 111
f 83 111 109
f 84 110 116
f 84 116 113
f 84 113 117
f 84 117 118
f 84 118 119
f 85 119 122
f 85 122 89
f 86 92 120
f 86 120 87
f 87 120 121
f 87 121 88
f 88 121 93
f 89 122 90
f 90 123 124
f 90 124 125
f 90 125 126
f 90 126 91
f 90 122 123
f 91 126 127
f 91 127 92
f 92 127 120
f 93 121 128
f 93 128 129
f 95 130 163
f 95 163 196
f 95 196 197
f 95 197 176
f 95 176 175
f 95 175 164
f 95 164 131
f 95 131 97
f 95 97 96
f 98 132 101
f 99 133 100
f 99 102 134
f 99 134 133
f 101 132 135
f 101 135 136
f 101 136 137
f 101 137 102
f 102 137 138
f 102 138 139
f 102 139 134
f 104 140 105
f 105 140 141
f 105 141 106
f 106 111 115
f 106 115 114
f 106 114 107
f 106 141 142
f 106 142 143
f 106 143 144
f 106 144 145
f 106 145 146
f 106 146 112
f 110 113 116
f 112 147 113
f 112 146 148
f 112 148 149
f 112 149 150
f 112 150 151
f 112 151 147
f 113 147 117
f 117 147 118
f 118 151 150
f 118 150 122
f 118 122 119
f 118 147 151
f 120 129 128
f 120 128 121
f 120 127 136
f 120 136 152
f 122 150 153
f 122 153 123
f 123 153 124
f 124 153 154
f 124 154 155
f 124 155 156
f 124 156 125
f 125 156 157
f 125 157 158
f 125 158 159
f 125 159 126
f 126 159 160
f 126 160 127
f 127 160 161
f 127 161 136
f 130 162 163
f 131 164 165
f 132 152 135
f 133 134 167
f 133 167 166
f 134 168 167
f 134 139 161
f 134 161 160
f 134 160 169
f 134 169 168
f 135 152 136
f 136 161 138
f 136 138 137
f 138 161 139
f 140 170 171
f 140 171 141
f 141 171 142
f 142 171 172
f 142 172 143
f 143 172 170
f 143 170 173
f 143 173 174
f 143 174 164
f 143 164 175
f 143 175 176
f 143 176 177
f 143 177 178
f 143 178 179
f 143 179 180
f 143 180 144
f 144 180 181
f 144 181 145
f 145 181 182
f 145 182 148
f 145 148 146
f 148 183 184
f 148 184 149
f 148 182 183
f 149 155 154
f 149 154 153
f 149 153 150
f 149 184 185
f 149 185 186
f 149 186 187
f 149 187 188
f 149 188 155
f 155 188 156
f 156 188 189
f 156 189 157
f 157 189 190
f 157 190 158
f 158 190 159
f 159 169 160
f 159 190 191
f 159 191 192
f 159 192 169
f 162 193 194
f 162 194 163
f 163 194 195
f 163 195 196
f 164 174 165
f 165 174 173
f 166 167 192
f 167 168 192
f 168 169 192
f 170 172 171
f 176 197 198
f 176 198 177
f 177 198 199
f 177 199 178
f 178 199 179
f 179 199 183
f 179 183 180
f 180 183 181
f 181 183 182
f 183 199 200
f 183 200 184
f 184 200 185
f 185 200 201
f 185 201 202
f 185 202 203
f 185 203 186
f 186 203 187
f 187 203 204
f 187 204 188
f 188 204 205
f 188 205 189
f 189 205 206
f 189 206 207
f 189 207 190
f 190 207 208
f 190 208 191
f 193 209 210
f 193 210 194
f 194 210 211
f 194 211 195
f 195 200 199
f 195 199 198
f 195 198 196
f 195 211 200
f 196 198 197
f 200 211 210
f 200 210 201
f 201 210 202
f 202 210 212
f 202 212 203
f 203 212 209
f 203 209 213
f 203 213 204
f 209 212 210
