v -0.462861 -0.00643378 -0.572833
v -0.460686 -0.0231977 -0.572833
v -0.378951 -0.0193012 -0.471338
v -0.380492 -0.00643378 -0.471338
v -0.380492 0.00634301 -0.471338
v -0.462771 0.00634301 -0.572833
v -0.459508 -0.0321686 -0.572833
v -0.370433 -0.0839101 -0.471338
v -0.378951 0.0192104 -0.471338
v -0.459508 0.0320778 -0.572833
v -0.449269 -0.109373 -0.572833
v -0.367896 -0.0974118 -0.471338
v -0.377411 0.0310811 -0.471338
v -0.450991 0.0964149 -0.572833
v -0.448363 -0.113813 -0.572833
v -0.445826 -0.123872 -0.572833
v -0.364362 -0.108739 -0.471338
v -0.370524 0.0830944 -0.471338
v -0.449269 0.109282 -0.572833
v -0.441748 -0.134564 -0.572833
v -0.431146 -0.16048 -0.572833
v -0.352492 -0.137464 -0.471338
v -0.368259 0.0955087 -0.471338
v -0.446188 0.122784 -0.572833
v -0.423444 -0.179056 -0.572833
v -0.408583 -0.214668 -0.572833
v -0.33464 -0.180234 -0.471338
v -0.364362 0.108648 -0.471338
v -0.444013 0.128674 -0.572833
v -0.404867 -0.223458 -0.572833
v -0.331197 -0.187665 -0.471338
v -0.441748 0.134473 -0.572833
v -0.337721 0.172713 -0.471338
v -0.431146 0.160389 -0.572833
v -0.399612 -0.233426 -0.572833
v -0.32422 -0.198629 -0.471338
v -0.33165 0.186577 -0.471338
v -0.404867 0.223458 -0.572833
v -0.396259 -0.23841 -0.572833
v -0.392453 -0.243665 -0.572833
v -0.378589 -0.261788 -0.572833
v -0.283171 -0.252274 -0.471338
v -0.324491 0.198085 -0.471338
v -0.396259 0.238319 -0.572833
v -0.344427 -0.306281 -0.572833
v -0.334097 -0.319692 -0.572833
v -0.273656 -0.264416 -0.471338
v -0.29196 0.240584 -0.471338
v -0.392453 0.243575 -0.572833
v -0.327391 -0.327394 -0.572833
v -0.269397 -0.2694 -0.471338
v -0.274381 0.26351 -0.471338
v -0.36699 0.27683 -0.572833
v -0.319598 -0.334009 -0.572833
v -0.264051 -0.274021 -0.471338
v -0.263779 0.274112 -0.471338
v -0.327119 0.327485 -0.572833
v -0.33754 0.31498 -0.572833
v -0.306187 -0.34443 -0.572833
v -0.242484 -0.290695 -0.471338
v -0.253902 0.281724 -0.471338
v -0.276918 0.366902 -0.572833
v -0.314977 0.337543 -0.572833
v -0.26251 -0.377958 -0.572833
v -0.211494 -0.314436 -0.471338
v -0.240582 0.291963 -0.471338
v -0.250459 0.3872 -0.572833
v -0.239494 -0.395537 -0.572833
v -0.198627 -0.324222 -0.471338
v -0.198083 0.324494 -0.471338
v -0.238407 0.396262 -0.572833
v -0.233332 -0.399615 -0.572833
v -0.187572 -0.3312 -0.471338
v -0.186665 0.331653 -0.471338
v -0.223546 0.40487 -0.572833
v -0.223455 -0.40487 -0.572833
v -0.180141 -0.334643 -0.471338
v -0.172711 0.337724 -0.471338
v -0.147882 0.436314 -0.572833
v -0.214575 -0.408676 -0.572833
v -0.172711 -0.337815 -0.471338
v -0.108645 0.364274 -0.471338
v -0.134471 0.441841 -0.572833
v -0.178963 -0.423447 -0.572833
v -0.137371 -0.352495 -0.471338
v -0.0955062 0.368261 -0.471338
v -0.122781 0.4461 -0.572833
v -0.160387 -0.431149 -0.572833
v -0.108645 -0.364365 -0.471338
v -0.0830919 0.370527 -0.471338
v -0.10928 0.449272 -0.572833
v -0.147882 -0.436314 -0.572833
v -0.0973185 -0.367899 -0.471338
v -0.134471 -0.441841 -0.572833
v -0.123778 -0.445829 -0.572833
v -0.019208 0.378954 -0.471338
v -0.0320754 0.459511 -0.572833
v -0.0843605 -0.370346 -0.471338
v -0.111545 -0.448819 -0.572833
v -0.00634063 0.380495 -0.471338
v -0.00634063 0.462864 -0.572833
v -0.0332534 -0.377142 -0.471338
v -0.102574 -0.450178 -0.572833
v 0.00634554 0.380495 -0.471338
v 0.00634554 0.462864 -0.572833
v -0.019208 -0.378954 -0.471338
v -0.0320754 -0.459511 -0.572833
v -0.0231045 -0.46069 -0.572833
v 0.0193035 0.378954 -0.471338
v 0.0232 0.460689 -0.572833
v -0.00634063 -0.380585 -0.471338
v -0.0115963 -0.462139 -0.572833
v 0.0839124 0.370346 -0.471338
v 0.109375 0.449272 -0.572833
v 0.0321709 0.459511 -0.572833
v -0.00634063 -0.462774 -0.572833
v 0.000455532 -0.462864 -0.572833
v 0.00634554 -0.380585 -0.471338
v 0.0974141 0.367808 -0.471338
v 0.113815 0.448366 -0.572833
v 0.00634554 -0.462864 -0.572833
v 0.0193035 -0.378954 -0.471338
v 0.108741 0.364274 -0.471338
v 0.123874 0.445828 -0.572833
v 0.0321709 -0.459511 -0.572833
v 0.0311742 -0.377414 -0.471338
v 0.137466 0.352494 -0.471338
v 0.134566 0.441841 -0.572833
v 0.0965079 -0.450994 -0.572833
v 0.0830968 -0.370527 -0.471338
v 0.180237 0.334643 -0.471338
v 0.21467 0.408585 -0.572833
v 0.179059 0.423446 -0.572833
v 0.147977 0.436314 -0.572833
v 0.103304 -0.450088 -0.572833
v 0.0955111 -0.368352 -0.471338
v 0.109375 -0.449272 -0.572833
v 0.187667 0.3312 -0.471338
v 0.223551 0.40487 -0.572833
v 0.108741 -0.364365 -0.471338
v 0.122877 -0.446191 -0.572833
v 0.198632 0.324222 -0.471338
v 0.233428 0.399614 -0.572833
v 0.172806 -0.337815 -0.471338
v 0.128767 -0.444016 -0.572833
v 0.134566 -0.441841 -0.572833
v 0.147977 -0.436314 -0.572833
v 0.160482 -0.431149 -0.572833
v 0.242489 0.290604 -0.471338
v 0.262606 0.377867 -0.572833
v 0.239499 0.395537 -0.572833
v 0.18667 -0.331653 -0.471338
v 0.223551 -0.40487 -0.572833
v 0.252276 0.283083 -0.471338
v 0.306283 0.344339 -0.572833
v 0.198178 -0.324585 -0.471338
v 0.238412 -0.396352 -0.572833
v 0.319694 0.334009 -0.572833
v 0.264056 0.273931 -0.471338
v 0.240677 -0.292054 -0.471338
v 0.243667 -0.392365 -0.572833
v 0.250464 -0.3872 -0.572833
v 0.260794 -0.379317 -0.572833
v 0.276923 -0.366993 -0.572833
v 0.269402 0.269309 -0.471338
v 0.327396 0.327303 -0.572833
v 0.253998 -0.281814 -0.471338
v 0.315072 -0.337634 -0.572833
v 0.274024 0.263963 -0.471338
v 0.334102 0.319601 -0.572833
v 0.263784 -0.274112 -0.471338
v 0.327577 -0.327122 -0.572833
v 0.283176 0.252183 -0.471338
v 0.344432 0.30619 -0.572833
v 0.274114 -0.263782 -0.471338
v 0.337636 -0.31507 -0.572833
v 0.290697 0.242396 -0.471338
v 0.377959 0.262513 -0.572833
v 0.281816 -0.253995 -0.471338
v 0.366995 -0.276921 -0.572833
v 0.314438 0.211406 -0.471338
v 0.395539 0.239406 -0.572833
v 0.292056 -0.240675 -0.471338
v 0.379319 -0.260792 -0.572833
v 0.324587 -0.198176 -0.471338
v 0.324225 0.198539 -0.471338
v 0.399617 0.233335 -0.572833
v 0.387202 -0.250461 -0.572833
v 0.396354 -0.23841 -0.572833
v 0.331655 -0.186668 -0.471338
v 0.392367 -0.243665 -0.572833
v 0.331202 0.187574 -0.471338
v 0.404872 0.223458 -0.572833
v 0.404872 -0.223549 -0.572833
v 0.337817 -0.172804 -0.471338
v 0.334645 0.180144 -0.471338
v 0.408678 0.214578 -0.572833
v 0.431151 -0.16048 -0.572833
v 0.364367 -0.108739 -0.471338
v 0.337817 0.172713 -0.471338
v 0.423448 0.178966 -0.572833
v 0.352497 0.137373 -0.471338
v 0.436316 -0.147975 -0.572833
v 0.441843 -0.134564 -0.572833
v 0.444018 -0.128765 -0.572833
v 0.446193 -0.122875 -0.572833
v 0.368354 -0.0955995 -0.471338
v 0.431151 0.160389 -0.572833
v 0.364367 0.108648 -0.471338
v 0.449274 -0.109373 -0.572833
v 0.370529 -0.0830945 -0.471338
v 0.436316 0.147884 -0.572833
v 0.367901 0.097321 -0.471338
v 0.44583 0.123781 -0.572833
v 0.441843 0.134473 -0.572833
v 0.450089 -0.103302 -0.572833
v 0.450996 -0.0965056 -0.572833
v 0.377416 -0.0311718 -0.471338
v 0.449274 0.109282 -0.572833
v 0.448368 0.113722 -0.572833
v 0.370438 0.0838193 -0.471338
v 0.459513 -0.0321686 -0.572833
v 0.462866 -0.00643378 -0.572833
v 0.378956 -0.0193012 -0.471338
v 0.45018 0.102577 -0.572833
v 0.377144 0.0332558 -0.471338
v 0.462776 0.00634301 -0.572833
v 0.380587 0.00634301 -0.471338
v 0.380587 -0.00643378 -0.471338
v 0.459513 0.0320778 -0.572833
v 0.378956 0.0192104 -0.471338
v 0.460691 0.0231069 -0.572833
v 0.462141 0.0115987 -0.572833
f 1 2 3
f 1 3 4
f 1 4 5
f 1 5 6
f 1 6 10
f 1 10 14
f 1 14 19
f 1 19 24
f 1 24 29
f 1 29 32
f 1 32 34
f 1 34 38
f 1 38 44
f 1 44 49
f 1 49 53
f 1 53 58
f 1 58 57
f 1 57 63
f 1 63 62
f 1 62 67
f 1 67 71
f 1 71 75
f 1 75 79
f 1 79 83
f 1 83 87
f 1 87 91
f 1 91 97
f 1 97 101
f 1 101 105
f 1 105 110
f 1 110 115
f 1 115 114
f 1 114 120
f 1 120 124
f 1 124 128
f 1 128 134
f 1 134 133
f 1 133 132
f 1 132 139
f 1 139 143
f 1 143 151
f 1 151 150
f 1 150 155
f 1 155 158
f 1 158 166
f 1 166 170
f 1 170 174
f 1 174 178
f 1 178 182
f 1 182 187
f 1 187 193
f 1 193 197
f 1 197 201
f 1 201 208
f 1 208 212
f 1 212 215
f 1 215 214
f 1 214 220
f 1 220 219
f 1 219 225
f 1 225 230
f 1 230 232
f 1 232 233
f 1 233 227
f 1 227 223
f 1 223 222
f 1 222 217
f 1 217 216
f 1 216 210
f 1 210 206
f 1 206 205
f 1 205 204
f 1 204 203
f 1 203 198
f 1 198 194
f 1 194 189
f 1 189 191
f 1 191 188
f 1 188 184
f 1 184 180
f 1 180 176
f 1 176 172
f 1 172 168
f 1 168 164
f 1 164 163
f 1 163 162
f 1 162 161
f 1 161 157
f 1 157 153
f 1 153 148
f 1 148 147
f 1 147 146
f 1 146 145
f 1 145 141
f 1 141 137
f 1 137 135
f 1 135 129
f 1 129 125
f 1 125 121
f 1 121 117
f 1 117 116
f 1 116 112
f 1 112 108
f 1 108 107
f 1 107 103
f 1 103 99
f 1 99 95
f 1 95 94
f 1 94 92
f 1 92 88
f 1 88 84
f 1 84 80
f 1 80 76
f 1 76 72
f 1 72 68
f 1 68 64
f 1 64 59
f 1 59 54
f 1 54 50
f 1 50 46
f 1 46 45
f 1 45 41
f 1 41 40
f 1 40 39
f 1 39 35
f 1 35 30
f 1 30 26
f 1 26 25
f 1 25 21
f 1 21 20
f 1 20 16
f 1 16 15
f 1 15 11
f 1 11 7
f 1 7 2
f 2 7 3
f 3 7 8
f 3 8 12
f 3 12 17
f 3 17 22
f 3 22 27
f 3 27 31
f 3 31 36
f 3 36 42
f 3 42 47
f 3 47 51
f 3 51 55
f 3 55 60
f 3 60 65
f 3 65 69
f 3 69 73
f 3 73 77
f 3 77 81
f 3 81 85
f 3 85 89
f 3 89 93
f 3 93 98
f 3 98 102
f 3 102 106
f 3 106 111
f 3 111 118
f 3 118 122
f 3 122 126
f 3 126 130
f 3 130 136
f 3 136 140
f 3 140 144
f 3 144 152
f 3 152 156
f 3 156 160
f 3 160 167
f 3 167 171
f 3 171 175
f 3 175 179
f 3 179 183
f 3 183 185
f 3 185 190
f 3 190 195
f 3 195 199
f 3 199 207
f 3 207 211
f 3 211 218
f 3 218 224
f 3 224 229
f 3 229 228
f 3 228 231
f 3 231 226
f 3 226 221
f 3 221 213
f 3 213 209
f 3 209 202
f 3 202 200
f 3 200 196
f 3 196 192
f 3 192 186
f 3 186 181
f 3 181 177
f 3 177 173
f 3 173 169
f 3 169 165
f 3 165 159
f 3 159 154
f 3 154 149
f 3 149 142
f 3 142 138
f 3 138 131
f 3 131 127
f 3 127 123
f 3 123 119
f 3 119 113
f 3 113 109
f 3 109 104
f 3 104 100
f 3 100 96
f 3 96 90
f 3 90 86
f 3 86 82
f 3 82 78
f 3 78 74
f 3 74 70
f 3 70 66
f 3 66 61
f 3 61 56
f 3 56 52
f 3 52 48
f 3 48 43
f 3 43 37
f 3 37 33
f 3 33 28
f 3 28 23
f 3 23 18
f 3 18 13
f 3 13 9
f 3 9 5
f 3 5 4
f 5 9 6
f 6 9 10
f 7 11 8
f 8 11 12
f 9 13 10
f 10 13 14
f 11 15 12
f 12 15 16
f 12 16 17
f 13 18 14
f 14 18 19
f 16 20 17
f 17 20 21
f 17 21 22
f 18 23 19
f 19 23 24
f 21 25 22
f 22 25 26
f 22 26 27
f 23 28 24
f 24 28 29
f 26 30 27
f 27 30 31
f 28 32 29
f 28 33 34
f 28 34 32
f 30 35 31
f 31 35 36
f 33 37 38
f 33 38 34
f 35 39 36
f 36 39 40
f 36 40 41
f 36 41 42
f 37 43 44
f 37 44 38
f 41 45 42
f 42 45 46
f 42 46 47
f 43 48 49
f 43 49 44
f 46 50 51
f 46 51 47
f 48 52 53
f 48 53 49
f 50 54 55
f 50 55 51
f 52 56 57
f 52 57 58
f 52 58 53
f 54 59 55
f 55 59 60
f 56 61 62
f 56 62 63
f 56 63 57
f 59 64 60
f 60 64 65
f 61 66 62
f 62 66 67
f 64 68 65
f 65 68 69
f 66 70 67
f 67 70 71
f 68 72 69
f 69 72 73
f 70 74 71
f 71 74 75
f 72 76 73
f 73 76 77
f 74 78 75
f 75 78 79
f 76 80 77
f 77 80 81
f 78 82 79
f 79 82 83
f 80 84 85
f 80 85 81
f 82 86 87
f 82 87 83
f 84 88 85
f 85 88 89
f 86 90 91
f 86 91 87
f 88 92 89
f 89 92 94
f 89 94 95
f 89 95 93
f 90 96 97
f 90 97 91
f 93 95 99
f 93 99 98
f 96 100 101
f 96 101 97
f 98 99 103
f 98 103 102
f 100 104 105
f 100 105 101
f 102 103 107
f 102 107 108
f 102 108 106
f 104 109 105
f 105 109 110
f 106 108 111
f 108 112 111
f 109 113 114
f 109 114 115
f 109 115 110
f 111 112 116
f 111 116 117
f 111 117 121
f 111 121 118
f 113 119 114
f 114 119 120
f 118 121 122
f 119 123 124
f 119 124 120
f 121 125 126
f 121 126 122
f 123 127 128
f 123 128 124
f 125 129 126
f 126 129 130
f 127 131 132
f 127 132 133
f 127 133 134
f 127 134 128
f 129 135 130
f 130 135 137
f 130 137 136
f 131 138 139
f 131 139 132
f 136 137 141
f 136 141 140
f 138 142 143
f 138 143 139
f 140 141 145
f 140 145 146
f 140 146 147
f 140 147 148
f 140 148 144
f 142 149 150
f 142 150 151
f 142 151 143
f 144 148 153
f 144 153 152
f 149 154 155
f 149 155 150
f 152 153 157
f 152 157 156
f 154 158 155
f 154 159 158
f 156 157 161
f 156 161 162
f 156 162 163
f 156 163 164
f 156 164 160
f 158 159 165
f 158 165 166
f 160 164 167
f 164 168 167
f 165 169 170
f 165 170 166
f 167 168 171
f 168 172 171
f 169 173 170
f 170 173 174
f 171 172 175
f 172 176 175
f 173 177 174
f 174 177 178
f 175 176 179
f 176 180 179
f 177 181 178
f 178 181 182
f 179 180 183
f 180 184 185
f 180 185 183
f 181 186 182
f 182 186 187
f 184 188 185
f 185 189 190
f 185 188 191
f 185 191 189
f 186 192 187
f 187 192 193
f 189 194 190
f 190 194 195
f 192 196 193
f 193 196 197
f 194 198 195
f 195 198 199
f 196 200 197
f 197 200 202
f 197 202 201
f 198 203 199
f 199 203 204
f 199 204 205
f 199 205 206
f 199 206 207
f 201 202 208
f 202 209 208
f 206 210 207
f 207 210 211
f 208 209 212
f 209 213 214
f 209 214 215
f 209 215 212
f 210 216 211
f 211 216 217
f 211 217 218
f 213 219 220
f 213 220 214
f 213 221 219
f 217 222 218
f 218 222 223
f 218 223 224
f 219 221 225
f 221 226 225
f 223 227 228
f 223 228 229
f 223 229 224
f 225 226 230
f 226 231 232
f 226 232 230
f 227 233 228
f 228 233 232
f 228 232 231
