v -0.10859 0.137342 0.494895
v -0.110394 0.137342 0.503476
v -0.156434 -0.00644956 0.494895
v -0.10859 0.137342 -0.494895
v -0.111178 0.137342 0.50701
v -0.159885 -0.00644956 0.507716
v -0.156434 -0.00644956 -0.494895
v -0.111178 0.137342 -0.50701
v -0.115335 0.137342 0.513673
v -0.165257 -0.00644956 0.514884
v -0.159885 -0.00644956 -0.507716
v -0.113688 0.137342 -0.510947
v -0.118159 0.137342 0.514884
v -0.12012 0.137342 0.515086
v -0.173571 -0.00644956 0.515692
v -0.165257 -0.00644956 -0.514884
v -0.118159 0.137342 -0.514884
v -0.132629 0.137342 0.515692
v -0.482044 -0.00644956 0.515692
v -0.173571 -0.00644956 -0.515692
v -0.122237 0.137342 -0.515187
v -0.469181 0.137342 0.515692
v -0.482044 0.0964113 0.515692
v -0.494907 -0.00644956 0.515591
v -0.134982 0.134977 -0.515692
v -0.482044 -0.00644956 -0.515692
v -0.134982 0.137342 -0.515692
v -0.479691 0.137342 0.515288
v -0.482044 0.122112 0.51549
v -0.494907 0.0192938 0.515591
v -0.502593 -0.00644956 0.514884
v -0.482044 0.0964113 -0.515692
v -0.494907 -0.00644956 -0.515591
v -0.469181 0.137342 -0.515692
v -0.482005 0.137342 0.515086
v -0.482044 0.134977 0.515187
v -0.489299 0.122112 0.514784
v -0.502319 0.0192938 0.514884
v -0.502593 0.00642916 0.514884
v -0.506515 -0.00644956 0.507716
v -0.494907 0.0192938 -0.515591
v -0.482044 0.122112 -0.51549
v -0.502593 -0.00644956 -0.514884
v -0.482044 0.134977 -0.515187
v -0.482005 0.137342 -0.515086
v -0.488711 0.137342 0.51438
v -0.488828 0.134977 0.514481
v -0.501887 0.0321444 0.514582
v -0.506515 0.00642916 0.507716
v -0.509221 -0.00642141 0.494895
v -0.509182 -0.00644956 0.494895
v -0.502593 0.00642916 -0.514884
v -0.502319 0.0192938 -0.514884
v -0.489299 0.122112 -0.514784
v -0.506515 -0.00644956 -0.507716
v -0.488828 0.134977 -0.514481
v -0.484319 0.137342 -0.514884
v -0.489966 0.137342 0.510039
v -0.501534 0.0407724 0.51438
v -0.505417 0.0192938 0.507716
v -0.509221 0.00642916 0.494895
v -0.509221 -0.00642141 -0.494895
v -0.509182 -0.00644956 -0.494895
v -0.506515 0.00642916 -0.507716
v -0.501887 0.0321444 -0.514582
v -0.501534 0.0407724 -0.51438
v -0.488711 0.137342 -0.51438
v -0.49075 0.134977 0.507716
v -0.501417 0.0650098 0.501861
v -0.501887 0.0578596 0.504284
v -0.502593 0.0450372 0.508524
v -0.490436 0.137342 0.507515
v -0.504162 0.0321444 0.507716
v -0.507535 0.0192938 0.494895
v -0.509221 0.00642916 -0.494895
v -0.505417 0.0192938 -0.507716
v -0.504162 0.0321444 -0.507716
v -0.502593 0.0450372 -0.508524
v -0.49075 0.134977 -0.507716
v -0.490436 0.137342 -0.507515
v -0.492319 0.134977 0.494895
v -0.502476 0.0578596 0.494895
v -0.491652 0.137342 0.497217
v -0.507535 0.0192938 -0.494895
v -0.501417 0.0650098 -0.501861
v -0.501887 0.0578596 -0.504284
v -0.492319 0.134977 -0.494895
v -0.491887 0.137342 -0.494895
v -0.491887 0.137342 0.494895
v -0.502476 0.0578596 -0.494895
f 1 2 3
f 1 3 7
f 1 7 4
f 1 4 8
f 1 8 12
f 1 12 17
f 1 17 21
f 1 21 27
f 1 27 34
f 1 34 45
f 1 45 57
f 1 57 67
f 1 67 80
f 1 80 88
f 1 88 89
f 1 89 83
f 1 83 72
f 1 72 58
f 1 58 46
f 1 46 35
f 1 35 28
f 1 28 22
f 1 22 18
f 1 18 14
f 1 14 13
f 1 13 9
f 1 9 5
f 1 5 2
f 2 5 3
f 3 5 6
f 3 6 10
f 3 10 15
f 3 15 19
f 3 19 24
f 3 24 31
f 3 31 40
f 3 40 51
f 3 51 63
f 3 63 55
f 3 55 43
f 3 43 33
f 3 33 26
f 3 26 20
f 3 20 16
f 3 16 11
f 3 11 7
f 4 7 8
f 5 9 6
f 6 9 10
f 7 11 8
f 8 11 12
f 9 13 10
f 10 13 14
f 10 14 15
f 11 16 12
f 12 16 17
f 14 18 15
f 15 18 22
f 15 22 23
f 15 23 19
f 16 20 17
f 17 20 21
f 19 23 30
f 19 30 24
f 20 25 21
f 20 26 32
f 20 32 34
f 20 34 27
f 20 27 25
f 21 25 27
f 22 28 29
f 22 29 23
f 23 29 30
f 24 30 39
f 24 39 31
f 26 33 41
f 26 41 32
f 28 35 36
f 28 36 29
f 29 36 37
f 29 37 38
f 29 38 30
f 30 38 39
f 31 39 49
f 31 49 40
f 32 41 42
f 32 42 34
f 33 43 52
f 33 52 41
f 34 42 44
f 34 44 45
f 35 46 47
f 35 47 36
f 36 47 37
f 37 47 48
f 37 48 38
f 38 48 49
f 38 49 39
f 40 49 61
f 40 61 50
f 40 50 51
f 41 52 53
f 41 53 42
f 42 53 54
f 42 54 44
f 43 55 64
f 43 64 52
f 44 54 56
f 44 56 57
f 44 57 45
f 46 58 59
f 46 59 47
f 47 59 48
f 48 59 49
f 49 59 60
f 49 60 61
f 50 61 75
f 50 75 62
f 50 62 63
f 50 63 51
f 52 64 53
f 53 64 65
f 53 65 54
f 54 65 56
f 55 63 62
f 55 62 75
f 55 75 64
f 56 65 66
f 56 66 67
f 56 67 57
f 58 68 69
f 58 69 70
f 58 70 71
f 58 71 59
f 58 72 68
f 59 71 73
f 59 73 60
f 60 73 61
f 61 73 71
f 61 71 70
f 61 70 69
f 61 69 74
f 61 74 84
f 61 84 75
f 64 75 76
f 64 76 66
f 64 66 65
f 66 76 77
f 66 77 78
f 66 78 67
f 67 78 79
f 67 79 80
f 68 72 81
f 68 81 69
f 69 81 82
f 69 82 74
f 72 83 81
f 74 82 90
f 74 90 84
f 75 84 85
f 75 85 86
f 75 86 78
f 75 78 77
f 75 77 76
f 78 86 79
f 79 86 85
f 79 85 87
f 79 87 80
f 80 87 88
f 81 83 89
f 81 89 88
f 81 88 87
f 81 87 90
f 81 90 82
f 84 90 85
f 85 90 87
