v -9.48414e-08 -0.703903 0.435495
v 0.066071 0.501108 0.428419
v -0.0152604 0.520275 0.431999
v -0.0660712 0.501108 0.428419
v -0.0610413 -0.712298 0.427907
v -9.48414e-08 -0.750912 0.422706
v 0.0580572 -0.717334 0.427737
v 0.111511 0.519435 0.41742
v 0.0273661 0.534126 0.427055
v 0.115262 -0.7095 0.418188
v 0.0181588 0.625624 0.39747
v -0.103497 0.606737 0.392099
v -0.111511 0.519435 0.41742
v -0.11458 -0.701945 0.419722
v -0.0980411 -0.760425 0.404888
v -0.0415183 -0.760565 0.413754
v -9.48414e-08 -0.784349 0.394657
v 0.0415182 -0.760565 0.413754
v 0.0980409 -0.760425 0.404888
v 0.165647 0.501108 0.400454
v 0.173405 0.516917 0.395765
v 0.147147 0.548956 0.396447
v 0.102645 0.606737 0.392355
v 0.16019 -0.733004 0.398152
v 0.170847 -0.72377 0.396021
v 0.165647 -0.692011 0.400454
v 0.143566 0.625624 0.370699
v -0.156013 0.625624 0.365499
v -0.147147 0.548956 0.396447
v -0.173405 0.516917 0.395765
v -0.165647 0.501108 0.400454
v -0.165647 -0.692011 0.400454
v -0.144163 -0.741118 0.40071
v -0.155843 -0.774976 0.370017
v -0.0445875 -0.779033 0.397129
v -0.052857 -0.793583 0.371637
v 0.0528568 -0.793583 0.371637
v 0.0445873 -0.779033 0.397129
v 0.147743 -0.763503 0.383914
v 0.221232 0.506984 0.373598
v 0.190796 0.552873 0.377008
v 0.213303 -0.719433 0.374792
v 0.210319 0.620448 0.340518
v 0.280994 0.625065 0.282969
v 0.365565 0.625624 0.156021
v -0.37068 0.625624 0.143574
v -0.28304 0.625065 0.280923
v -0.208614 0.619888 0.342394
v -0.190796 0.552873 0.377008
v -0.221232 0.506984 0.373598
v -0.213303 -0.719433 0.374792
v -0.273066 -0.743777 0.325172
v -0.224983 -0.782391 0.320397
v -0.0995757 -0.802257 0.327644
v 0.00886623 -0.802257 0.347083
v 0.224983 -0.782391 0.320397
v 0.0995755 -0.802257 0.327644
v 0.26795 0.519156 0.338046
v 0.304694 -0.699986 0.310593
v 0.267268 -0.726008 0.335232
v 0.29975 0.524472 0.308888
v 0.338028 0.519156 0.267964
v 0.342547 0.620448 0.207943
v 0.376989 0.552873 0.190806
v 0.396512 0.548956 0.147154
v 0.391738 0.606737 0.104526
v 0.395404 0.625624 0.0415204
v -0.39924 0.625624 0.00264298
v -0.392335 0.606737 0.102735
v -0.396512 0.548956 0.147154
v -0.376989 0.552873 0.190806
v -0.340075 0.619888 0.211694
v -0.338029 0.519156 0.267964
v -0.300517 0.521954 0.309399
v -0.267951 0.519156 0.338046
v -0.26096 -0.702085 0.345804
v -0.304695 -0.699986 0.310593
v -0.334022 -0.719013 0.273165
v -0.3301 -0.761964 0.24844
v -0.269485 -0.78281 0.285698
v -0.254225 -0.800998 0.242216
v -0.192416 -0.802957 0.280326
v 0.192416 -0.802957 0.280326
v 0.269485 -0.78281 0.285698
v 0.334021 -0.719013 0.273165
v 0.3301 -0.761964 0.24844
v 0.373579 0.506984 0.221243
v 0.395745 0.516917 0.173328
v 0.417399 0.519435 0.111517
v 0.427033 0.534126 0.0273676
v 0.39924 0.625624 -0.00264298
v -0.395404 0.625624 -0.0415204
v -0.427033 0.534126 -0.0273676
v -0.431807 0.520555 0.0154316
v -0.417399 0.519435 0.111517
v -0.395745 0.516917 0.173328
v -0.373579 0.506984 0.221243
v -0.374773 -0.719433 0.213314
v -0.401286 -0.73846 0.143233
v -0.370084 -0.774976 0.155851
v -0.307678 -0.793863 0.21698
v -0.271361 -0.803656 0.198309
v 0.266842 -0.803097 0.206408
v 0.307678 -0.793863 0.21698
v 0.374772 -0.719433 0.213314
v 0.401286 -0.73846 0.143233
v 0.370084 -0.774976 0.155851
v 0.400519 -0.692011 0.165655
v 0.400519 0.501108 0.165655
v 0.4278 -0.717334 0.0580603
v 0.428482 0.501108 0.0660745
v 0.431807 0.520555 -0.0154316
v 0.392335 0.606737 -0.102735
v 0.37068 0.625624 -0.143574
v -0.365565 0.625624 -0.156021
v -0.391738 0.606737 -0.104526
v -0.417399 0.519435 -0.111517
v -0.428482 0.501108 -0.0660745
v -0.435473 -0.703903 0
v -0.428482 0.501108 0.0660745
v -0.4278 -0.717334 0.0580603
v -0.400519 -0.692011 0.165655
v -0.400519 0.501108 0.165655
v -0.404867 -0.760425 0.0980461
v -0.397194 -0.779033 0.0445896
v -0.371618 -0.793583 0.0528596
v -0.305973 -0.801558 0.163268
v 0.27136 -0.803656 -0.198309
v -0.327628 -0.802257 0.0995807
v -0.347065 -0.802257 -0.00886677
v -0.266842 -0.803097 -0.206408
v 0.347065 -0.802257 -0.00886677
v 0.327627 -0.802257 0.0995807
v 0.305973 -0.801558 0.163268
v 0.371618 -0.793583 0.0528596
v 0.404867 -0.760425 0.0980461
v 0.397194 -0.779033 0.0445896
v 0.413733 -0.760565 0.0415204
v 0.42277 -0.750912 0
v 0.435473 -0.703903 0
v 0.428482 0.501108 -0.0660745
v 0.417399 0.519435 -0.111517
v 0.396512 0.548956 -0.147154
v 0.156013 0.625624 -0.365499
v 0.376989 0.552873 -0.190806
v 0.339989 0.620448 -0.211353
v 0.28304 0.625065 -0.280923
v -0.143566 0.625624 -0.370699
v -0.280994 0.625065 -0.282969
v -0.342547 0.619888 -0.208369
v -0.376989 0.552873 -0.190806
v -0.396512 0.548956 -0.147154
v -0.395745 0.516917 -0.173328
v -0.400519 0.501108 -0.165655
v -0.400519 -0.692011 -0.165655
v -0.4278 -0.717334 -0.0580603
v -0.42277 -0.750912 0
v -0.413733 -0.760565 0.0415204
v -0.394637 -0.784349 0
v -0.371618 -0.793583 -0.0528596
v -0.192416 -0.802957 -0.280326
v 0.192416 -0.802957 -0.280326
v 0.254225 -0.800998 -0.242216
v 0.307678 -0.793863 -0.21698
v 0.305973 -0.801558 -0.163268
v 0.327627 -0.802257 -0.0995807
v -0.327628 -0.802257 -0.0995807
v -0.305973 -0.801558 -0.163268
v -0.307678 -0.793863 -0.21698
v 0.371618 -0.793583 -0.0528596
v 0.394636 -0.784349 0
v 0.413733 -0.760565 -0.0415204
v 0.4278 -0.717334 -0.0580603
v 0.400519 -0.692011 -0.165655
v 0.400519 0.501108 -0.165655
v 0.395745 0.516917 -0.173328
v -0.018159 0.625624 -0.39747
v 0.208358 0.620448 -0.342309
v 0.190796 0.552873 -0.377008
v 0.147147 0.548956 -0.396447
v 0.103497 0.606737 -0.392099
v 0.373579 0.506984 -0.221243
v 0.338028 0.519156 -0.267964
v 0.29975 0.524472 -0.308888
v 0.26795 0.519156 -0.338046
v -0.102645 0.606737 -0.392355
v -0.147147 0.548956 -0.396447
v -0.190796 0.552873 -0.377008
v -0.209808 0.621707 -0.340262
v -0.267951 0.519156 -0.338046
v -0.300517 0.521954 -0.309399
v -0.338029 0.519156 -0.267964
v -0.373579 0.506984 -0.221243
v -0.374773 -0.719433 -0.213314
v -0.401286 -0.73846 -0.143233
v -0.404867 -0.760425 -0.0980461
v -0.413733 -0.760565 -0.0415204
v -0.397194 -0.779033 -0.0445896
v -0.370084 -0.774976 -0.155851
v -0.0995757 -0.802257 -0.327644
v 0.00886623 -0.802257 -0.347083
v -0.269485 -0.78281 -0.285698
v -0.224983 -0.782391 -0.320397
v 0.0995755 -0.802257 -0.327644
v 0.224983 -0.782391 -0.320397
v 0.269485 -0.78281 -0.285698
v 0.3301 -0.761964 -0.24844
v 0.368805 -0.76868 -0.176398
v 0.371277 -0.781131 -0.135304
v -0.3301 -0.761964 -0.24844
v 0.397194 -0.779033 -0.0445896
v 0.404867 -0.760425 -0.0980461
v 0.401286 -0.73846 -0.143233
v 0.374772 -0.719433 -0.213314
v 0.0485089 0.510342 -0.429697
v -0.019523 0.534545 -0.427566
v 0.221232 0.506984 -0.373598
v 0.173405 0.516917 -0.395765
v 0.111511 0.519435 -0.41742
v 0.334021 -0.719013 -0.273165
v 0.304694 -0.699986 -0.310593
v -0.111511 0.519435 -0.41742
v -0.173405 0.516917 -0.395765
v -0.221232 0.506984 -0.373598
v -0.26096 -0.702085 -0.345804
v -0.304695 -0.699986 -0.310593
v -0.334022 -0.719013 -0.273165
v -0.052857 -0.793583 -0.371637
v 0.0528568 -0.793583 -0.371637
v -0.273066 -0.743777 -0.325172
v -0.155843 -0.774976 -0.370017
v 0.147743 -0.763503 -0.383914
v 0.213303 -0.719433 -0.374792
v 0.267268 -0.726008 -0.335232
v -0.0660712 0.501108 -0.428419
v 0.115262 -0.7095 -0.418188
v 0.0580572 -0.717334 -0.427737
v -9.48414e-08 -0.703903 -0.435495
v 0.165647 -0.692011 -0.400454
v 0.165647 0.501108 -0.400454
v -0.11458 -0.701945 -0.419722
v -0.165647 0.501108 -0.400454
v -0.165647 -0.692011 -0.400454
v -0.213303 -0.719433 -0.374792
v -0.0445875 -0.779033 -0.397129
v -9.48414e-08 -0.784349 -0.394657
v 0.0445873 -0.779033 -0.397129
v -0.144163 -0.741118 -0.40071
v -0.0980411 -0.760425 -0.404888
v 0.0980409 -0.760425 -0.404888
v 0.16019 -0.733004 -0.398152
v 0.170847 -0.72377 -0.396021
v -0.0610413 -0.712298 -0.427907
v 0.0415182 -0.760565 -0.413754
v -9.48414e-08 -0.750912 -0.422706
v -0.0415183 -0.760565 -0.413754
f 1 2 3
f 1 3 4
f 1 4 5
f 1 5 6
f 1 6 7
f 1 7 2
f 2 8 9
f 2 9 3
f 2 7 10
f 2 10 8
f 3 9 11
f 3 11 12
f 3 12 13
f 3 13 4
f 4 14 5
f 4 13 14
f 5 15 16
f 5 16 6
f 5 14 15
f 6 16 17
f 6 17 18
f 6 18 7
f 7 18 19
f 7 19 10
f 8 20 21
f 8 21 22
f 8 22 23
f 8 23 9
f 8 10 20
f 9 23 11
f 10 19 24
f 10 24 25
f 10 25 26
f 10 26 20
f 11 27 45
f 11 45 67
f 11 67 91
f 11 91 114
f 11 114 144
f 11 144 177
f 11 177 148
f 11 148 115
f 11 115 92
f 11 92 68
f 11 68 46
f 11 46 28
f 11 28 12
f 11 23 27
f 12 28 29
f 12 29 13
f 13 29 30
f 13 30 31
f 13 31 14
f 14 31 32
f 14 32 33
f 14 33 15
f 15 33 34
f 15 34 35
f 15 35 16
f 16 35 17
f 17 36 37
f 17 37 38
f 17 38 18
f 17 35 36
f 18 38 19
f 19 38 39
f 19 39 24
f 20 26 40
f 20 40 21
f 21 40 41
f 21 41 22
f 22 41 27
f 22 27 23
f 24 42 25
f 24 39 42
f 25 42 26
f 26 42 40
f 27 41 43
f 27 43 44
f 27 44 45
f 28 46 47
f 28 47 48
f 28 48 49
f 28 49 29
f 29 49 30
f 30 50 31
f 30 49 50
f 31 50 32
f 32 50 51
f 32 51 33
f 33 51 52
f 33 52 34
f 34 53 36
f 34 36 35
f 34 52 53
f 36 53 54
f 36 54 55
f 36 55 37
f 37 56 39
f 37 39 38
f 37 55 57
f 37 57 56
f 39 56 42
f 40 58 43
f 40 43 41
f 40 42 59
f 40 59 58
f 42 56 60
f 42 60 59
f 43 58 44
f 44 58 61
f 44 61 62
f 44 62 63
f 44 63 45
f 45 63 64
f 45 64 65
f 45 65 66
f 45 66 67
f 46 68 69
f 46 69 70
f 46 70 71
f 46 71 72
f 46 72 47
f 47 72 73
f 47 73 74
f 47 74 75
f 47 75 48
f 48 75 50
f 48 50 49
f 50 75 76
f 50 76 51
f 51 76 52
f 52 76 77
f 52 77 78
f 52 78 79
f 52 79 80
f 52 80 53
f 53 80 81
f 53 81 82
f 53 82 54
f 54 82 55
f 55 82 83
f 55 83 57
f 56 57 83
f 56 83 84
f 56 84 60
f 58 59 61
f 59 62 61
f 59 60 85
f 59 85 62
f 60 86 85
f 60 84 86
f 62 85 87
f 62 87 63
f 63 87 64
f 64 87 88
f 64 88 65
f 65 88 89
f 65 89 66
f 66 89 90
f 66 90 67
f 67 90 91
f 68 92 93
f 68 93 94
f 68 94 69
f 69 94 95
f 69 95 70
f 70 95 96
f 70 96 71
f 71 96 97
f 71 97 72
f 72 97 73
f 73 97 78
f 73 78 77
f 73 77 74
f 74 77 75
f 75 77 76
f 78 98 79
f 78 97 98
f 79 98 99
f 79 99 100
f 79 100 101
f 79 101 80
f 80 101 81
f 81 101 102
f 81 102 82
f 82 102 83
f 83 102 103
f 83 103 104
f 83 104 84
f 84 104 86
f 85 86 105
f 85 105 87
f 86 106 105
f 86 104 107
f 86 107 106
f 87 108 109
f 87 109 88
f 87 105 108
f 88 109 89
f 89 109 108
f 89 108 110
f 89 110 111
f 89 111 90
f 90 111 112
f 90 112 91
f 91 113 114
f 91 112 113
f 92 115 116
f 92 116 93
f 93 116 117
f 93 117 118
f 93 118 94
f 94 118 119
f 94 119 120
f 94 120 95
f 95 120 121
f 95 121 122
f 95 122 123
f 95 123 96
f 96 123 97
f 97 123 122
f 97 122 98
f 98 122 99
f 99 122 121
f 99 121 124
f 99 124 100
f 100 125 126
f 100 126 101
f 100 124 125
f 101 127 102
f 101 126 127
f 102 128 103
f 102 127 129
f 102 129 130
f 102 130 131
f 102 131 128
f 103 128 132
f 103 132 133
f 103 133 134
f 103 134 104
f 104 134 135
f 104 135 107
f 105 106 108
f 106 110 108
f 106 107 136
f 106 136 110
f 107 135 137
f 107 137 136
f 110 136 138
f 110 138 139
f 110 139 140
f 110 140 111
f 111 140 112
f 112 140 141
f 112 141 142
f 112 142 113
f 113 142 143
f 113 143 114
f 114 143 145
f 114 145 146
f 114 146 147
f 114 147 144
f 115 148 149
f 115 149 150
f 115 150 151
f 115 151 152
f 115 152 116
f 116 152 117
f 117 153 154
f 117 154 155
f 117 155 156
f 117 156 118
f 117 152 153
f 118 156 119
f 119 156 157
f 119 157 121
f 119 121 120
f 121 157 158
f 121 158 124
f 124 158 125
f 125 159 126
f 125 158 159
f 126 159 160
f 126 160 130
f 126 130 129
f 126 129 127
f 128 131 161
f 128 161 162
f 128 162 163
f 128 163 164
f 128 164 165
f 128 165 166
f 128 166 132
f 130 167 131
f 130 160 167
f 131 167 168
f 131 168 169
f 131 169 161
f 132 166 170
f 132 170 135
f 132 135 133
f 133 135 134
f 135 170 171
f 135 171 137
f 136 137 138
f 137 171 138
f 138 171 139
f 139 171 172
f 139 172 173
f 139 173 140
f 140 173 141
f 141 173 142
f 142 173 174
f 142 174 175
f 142 175 176
f 142 176 143
f 143 176 145
f 144 147 178
f 144 178 179
f 144 179 180
f 144 180 181
f 144 181 177
f 145 176 182
f 145 182 146
f 146 182 183
f 146 183 147
f 147 183 184
f 147 184 185
f 147 185 178
f 148 177 186
f 148 186 187
f 148 187 188
f 148 188 189
f 148 189 149
f 149 189 190
f 149 190 191
f 149 191 192
f 149 192 150
f 150 192 193
f 150 193 151
f 151 193 153
f 151 153 152
f 153 193 154
f 154 193 155
f 155 193 194
f 155 194 195
f 155 195 156
f 156 195 196
f 156 196 197
f 156 197 157
f 157 197 159
f 157 159 158
f 159 197 198
f 159 198 160
f 160 198 199
f 160 199 169
f 160 169 168
f 160 168 167
f 161 200 201
f 161 201 162
f 161 169 202
f 161 202 203
f 161 203 200
f 162 201 204
f 162 204 205
f 162 205 163
f 163 205 206
f 163 206 164
f 164 206 207
f 164 207 208
f 164 208 209
f 164 209 170
f 164 170 165
f 165 170 166
f 169 199 210
f 169 210 202
f 170 209 211
f 170 211 171
f 171 211 172
f 172 212 173
f 172 211 212
f 173 212 213
f 173 213 174
f 174 182 175
f 174 213 214
f 174 214 182
f 175 182 176
f 177 181 215
f 177 215 216
f 177 216 186
f 178 185 217
f 178 217 179
f 179 217 218
f 179 218 180
f 180 218 219
f 180 219 181
f 181 219 215
f 182 214 220
f 182 220 183
f 183 220 221
f 183 221 184
f 184 221 185
f 185 221 217
f 186 216 222
f 186 222 187
f 187 222 223
f 187 223 188
f 188 223 224
f 188 224 189
f 189 224 190
f 190 224 225
f 190 225 226
f 190 226 191
f 191 226 192
f 192 226 227
f 192 227 193
f 193 227 194
f 194 227 210
f 194 210 195
f 195 210 199
f 195 199 196
f 196 199 198
f 196 198 197
f 200 203 228
f 200 228 201
f 201 228 229
f 201 229 204
f 202 210 230
f 202 230 203
f 203 230 231
f 203 231 228
f 204 229 205
f 205 229 232
f 205 232 233
f 205 233 234
f 205 234 206
f 206 234 207
f 207 234 220
f 207 220 214
f 207 214 208
f 208 214 213
f 208 213 212
f 208 212 209
f 209 212 211
f 210 227 230
f 215 235 216
f 215 219 236
f 215 236 237
f 215 237 238
f 215 238 235
f 216 235 222
f 217 221 233
f 217 233 239
f 217 239 240
f 217 240 218
f 218 240 219
f 219 240 236
f 220 234 221
f 221 234 233
f 222 235 241
f 222 241 242
f 222 242 223
f 223 242 224
f 224 242 243
f 224 243 244
f 224 244 225
f 225 244 230
f 225 230 226
f 226 230 227
f 228 231 245
f 228 245 246
f 228 246 229
f 229 246 247
f 229 247 232
f 230 244 248
f 230 248 231
f 231 248 249
f 231 249 245
f 232 250 251
f 232 251 233
f 232 247 250
f 233 251 252
f 233 252 239
f 235 238 253
f 235 253 241
f 236 252 251
f 236 251 250
f 236 250 237
f 236 240 239
f 236 239 252
f 237 250 254
f 237 254 255
f 237 255 238
f 238 255 253
f 241 243 242
f 241 253 249
f 241 249 248
f 241 248 243
f 243 248 244
f 245 249 256
f 245 256 246
f 246 256 255
f 246 255 254
f 246 254 247
f 247 254 250
f 249 253 256
f 253 255 256
