v 0.469297 0.262939 0.334632
v 0.467894 0.262939 0.311958
v 0.467721 0.272147 0.311958
v 0.468984 0.262939 0.365179
v 0.467537 0.262939 0.307912
v 0.466555 0.272147 0.298702
v 0.465497 0.279793 0.298702
v 0.466069 0.280448 0.311958
v 0.45823 0.262939 0.374033
v 0.465561 0.279864 0.322958
v 0.464611 0.278604 0.331812
v 0.456254 0.28249 0.33852
v 0.45349 0.280513 0.34795
v 0.438083 0.292058 0.345154
v 0.466695 0.262939 0.298702
v 0.466209 0.262939 0.296409
v 0.464968 0.272147 0.291222
v 0.464795 0.278991 0.291651
v 0.451514 0.292166 0.304846
v 0.458176 0.287088 0.311958
v 0.45145 0.29212 0.318862
v 0.414783 0.279523 0.372316
v 0.404903 0.279861 0.372586
v 0.404903 0.272147 0.373665
v 0.404903 0.262939 0.3738
v 0.440847 0.280471 0.360421
v 0.431443 0.282286 0.362959
v 0.446332 0.28913 0.33852
v 0.449085 0.290844 0.327704
v 0.439692 0.29274 0.33852
v 0.431443 0.294487 0.33852
v 0.431443 0.292734 0.346613
v 0.418162 0.290796 0.356092
v 0.431443 0.288922 0.353247
v 0.465032 0.262939 0.291075
v 0.461955 0.262939 0.284441
v 0.461772 0.272147 0.284588
v 0.455142 0.272147 0.273613
v 0.453706 0.280633 0.275489
v 0.458079 0.282065 0.286501
v 0.449323 0.291042 0.295992
v 0.44482 0.293399 0.299732
v 0.444712 0.293945 0.311958
v 0.451536 0.292185 0.311958
v 0.438482 0.292308 0.278383
v 0.440178 0.292961 0.285422
v 0.44468 0.293341 0.324062
v 0.418789 0.283529 0.366172
v 0.404903 0.286111 0.365069
v 0.395488 0.279481 0.372279
v 0.393707 0.272147 0.372659
v 0.393448 0.262939 0.372721
v 0.418162 0.295812 0.33852
v 0.418162 0.293568 0.349458
v 0.431443 0.295786 0.325239
v 0.404903 0.291669 0.357404
v 0.455315 0.262939 0.273441
v 0.449895 0.272147 0.266966
v 0.441376 0.28064 0.263128
v 0.444356 0.285062 0.272509
v 0.446807 0.289367 0.285422
v 0.431443 0.295795 0.298702
v 0.431443 0.294789 0.285422
v 0.431443 0.295945 0.311958
v 0.430428 0.282124 0.258775
v 0.431443 0.289403 0.27002
v 0.421067 0.291088 0.267494
v 0.412224 0.292211 0.265286
v 0.431443 0.292964 0.276654
v 0.391288 0.283393 0.36605
v 0.359005 0.262939 0.369103
v 0.378353 0.282091 0.36269
v 0.359005 0.272455 0.365351
v 0.404903 0.296104 0.33852
v 0.404903 0.293727 0.35077
v 0.391623 0.290662 0.355921
v 0.391623 0.293542 0.349286
v 0.453706 0.262939 0.271405
v 0.450068 0.262939 0.266807
v 0.443427 0.262939 0.261497
v 0.443265 0.272147 0.261681
v 0.425321 0.279039 0.25203
v 0.418162 0.295789 0.285422
v 0.417255 0.293435 0.272018
v 0.378353 0.296078 0.311958
v 0.404903 0.295909 0.285422
v 0.404903 0.292266 0.265213
v 0.404903 0.294042 0.272153
v 0.418162 0.27987 0.251294
v 0.404903 0.280549 0.250693
v 0.404903 0.287185 0.258578
v 0.359005 0.284344 0.352021
v 0.359005 0.262939 0.268941
v 0.391623 0.295799 0.33852
v 0.378353 0.295795 0.325239
v 0.381204 0.292929 0.346969
v 0.432576 0.262939 0.254863
v 0.432425 0.272147 0.255047
v 0.425796 0.272147 0.251834
v 0.418162 0.272147 0.250154
v 0.378353 0.295812 0.298702
v 0.36584 0.293743 0.311958
v 0.391623 0.295782 0.285422
v 0.397745 0.292182 0.265335
v 0.392649 0.293396 0.272117
v 0.404903 0.272147 0.248928
v 0.391623 0.279731 0.251417
v 0.37235 0.291886 0.344516
v 0.359005 0.287727 0.345178
v 0.359005 0.265173 0.269026
v 0.360419 0.272147 0.26753
v 0.360268 0.262939 0.267383
v 0.377403 0.293945 0.339464
v 0.367448 0.293552 0.325239
v 0.369867 0.292929 0.335662
v 0.430547 0.262939 0.253882
v 0.425936 0.262939 0.251773
v 0.418162 0.262939 0.250007
v 0.367189 0.293588 0.298702
v 0.378353 0.294581 0.285422
v 0.359199 0.291782 0.311958
v 0.388902 0.290951 0.267665
v 0.371584 0.292136 0.278653
v 0.378353 0.292812 0.276985
v 0.384778 0.27889 0.252153
v 0.379552 0.281906 0.25886
v 0.404903 0.262939 0.24878
v 0.400833 0.262939 0.249222
v 0.391623 0.272147 0.250399
v 0.359005 0.29164 0.311958
v 0.359005 0.272147 0.269296
v 0.368766 0.280565 0.263275
v 0.36706 0.272147 0.261938
v 0.364868 0.262939 0.263496
v 0.359005 0.275052 0.270424
v 0.360549 0.290935 0.298702
v 0.370083 0.292802 0.285422
v 0.359005 0.289815 0.298555
v 0.378353 0.289247 0.270351
v 0.359005 0.286023 0.285422
v 0.363443 0.289046 0.285422
v 0.365742 0.284971 0.272828
v 0.359005 0.281786 0.274998
v 0.384475 0.272147 0.252018
v 0.377835 0.272147 0.255304
v 0.391623 0.262939 0.250264
v 0.389431 0.262939 0.250755
v 0.366898 0.262939 0.261791
v 0.377695 0.262939 0.255145
v 0.384335 0.262939 0.251957
f 1 2 3
f 1 3 4
f 1 4 9
f 1 9 25
f 1 25 52
f 1 52 71
f 1 71 93
f 1 93 112
f 1 112 134
f 1 134 148
f 1 148 149
f 1 149 150
f 1 150 147
f 1 147 146
f 1 146 128
f 1 128 127
f 1 127 118
f 1 118 117
f 1 117 116
f 1 116 97
f 1 97 80
f 1 80 79
f 1 79 78
f 1 78 57
f 1 57 36
f 1 36 35
f 1 35 16
f 1 16 15
f 1 15 5
f 1 5 2
f 2 5 6
f 2 6 3
f 3 6 7
f 3 7 8
f 3 8 4
f 4 8 10
f 4 10 11
f 4 11 12
f 4 12 13
f 4 13 14
f 4 14 9
f 5 15 6
f 6 15 16
f 6 16 17
f 6 17 18
f 6 18 7
f 7 18 19
f 7 19 8
f 8 19 20
f 8 20 21
f 8 21 10
f 9 22 23
f 9 23 24
f 9 24 25
f 9 14 26
f 9 26 27
f 9 27 22
f 10 21 11
f 11 21 12
f 12 28 14
f 12 14 13
f 12 21 29
f 12 29 28
f 14 28 29
f 14 29 21
f 14 21 30
f 14 30 31
f 14 31 32
f 14 32 33
f 14 33 34
f 14 34 27
f 14 27 26
f 16 35 17
f 17 35 36
f 17 36 37
f 17 37 18
f 18 37 38
f 18 38 39
f 18 39 40
f 18 40 41
f 18 41 19
f 19 42 43
f 19 43 44
f 19 44 20
f 19 41 45
f 19 45 46
f 19 46 42
f 20 44 21
f 21 44 43
f 21 43 47
f 21 47 30
f 22 27 48
f 22 48 49
f 22 49 23
f 23 49 50
f 23 50 24
f 24 50 51
f 24 51 25
f 25 51 52
f 27 34 33
f 27 33 48
f 30 47 31
f 31 53 54
f 31 54 32
f 31 47 55
f 31 55 53
f 32 54 33
f 33 54 56
f 33 56 48
f 36 57 37
f 37 57 38
f 38 57 58
f 38 58 39
f 39 45 40
f 39 58 59
f 39 59 60
f 39 60 45
f 40 61 41
f 40 45 61
f 41 61 45
f 42 62 43
f 42 46 63
f 42 63 62
f 43 62 64
f 43 64 55
f 43 55 47
f 45 60 59
f 45 59 65
f 45 65 66
f 45 66 67
f 45 67 68
f 45 68 69
f 45 69 63
f 45 63 46
f 48 56 49
f 49 70 50
f 49 56 70
f 50 71 51
f 50 70 72
f 50 72 73
f 50 73 71
f 51 71 52
f 53 74 75
f 53 75 54
f 53 55 74
f 54 75 56
f 55 64 74
f 56 76 70
f 56 75 77
f 56 77 76
f 57 78 58
f 58 78 79
f 58 79 80
f 58 80 81
f 58 81 59
f 59 81 82
f 59 82 65
f 62 63 83
f 62 83 64
f 63 69 84
f 63 84 83
f 64 85 74
f 64 83 86
f 64 86 85
f 65 82 67
f 65 67 66
f 67 82 68
f 68 87 88
f 68 88 84
f 68 84 69
f 68 82 89
f 68 89 90
f 68 90 91
f 68 91 87
f 70 76 92
f 70 92 72
f 71 73 92
f 71 92 109
f 71 109 130
f 71 130 138
f 71 138 140
f 71 140 143
f 71 143 135
f 71 135 131
f 71 131 110
f 71 110 93
f 72 92 73
f 74 94 75
f 74 85 95
f 74 95 94
f 75 94 77
f 76 77 96
f 76 96 92
f 77 94 96
f 80 97 98
f 80 98 81
f 81 98 82
f 82 98 99
f 82 99 100
f 82 100 89
f 83 84 88
f 83 88 86
f 85 101 102
f 85 102 95
f 85 86 103
f 85 103 101
f 86 88 103
f 87 104 88
f 87 91 104
f 88 104 105
f 88 105 103
f 89 100 106
f 89 106 90
f 90 107 104
f 90 104 91
f 90 106 107
f 92 96 108
f 92 108 109
f 93 110 111
f 93 111 112
f 94 113 96
f 94 95 113
f 95 114 115
f 95 115 113
f 95 102 114
f 96 113 108
f 97 116 99
f 97 99 98
f 99 117 118
f 99 118 100
f 99 116 117
f 100 118 127
f 100 127 106
f 101 119 102
f 101 103 120
f 101 120 119
f 102 121 114
f 102 119 121
f 103 105 120
f 104 122 123
f 104 123 124
f 104 124 105
f 104 107 125
f 104 125 126
f 104 126 122
f 105 124 120
f 106 127 128
f 106 128 129
f 106 129 107
f 107 129 125
f 108 113 115
f 108 115 109
f 109 115 114
f 109 114 121
f 109 121 130
f 110 131 111
f 111 132 133
f 111 133 134
f 111 134 112
f 111 131 135
f 111 135 132
f 119 136 121
f 119 120 137
f 119 137 136
f 120 124 123
f 120 123 137
f 121 136 138
f 121 138 130
f 122 126 139
f 122 139 123
f 123 140 141
f 123 141 136
f 123 136 137
f 123 139 132
f 123 132 142
f 123 142 143
f 123 143 140
f 125 129 144
f 125 144 145
f 125 145 133
f 125 133 132
f 125 132 126
f 126 132 139
f 128 146 129
f 129 146 147
f 129 147 144
f 132 135 143
f 132 143 142
f 133 148 134
f 133 145 148
f 136 141 140
f 136 140 138
f 144 149 145
f 144 147 150
f 144 150 149
f 145 149 148
