v 0.205027 0.26294 0.500676
v 0.194088 0.26294 0.564191
v 0.20505 0.272146 0.500676
v 0.303644 0.26294 0.500676
v 0.194111 0.26294 0.568262
v 0.194509 0.272146 0.564191
v 0.205776 0.276163 0.500676
v 0.365298 0.26294 0.500881
v 0.282351 0.295659 0.500676
v 0.194228 0.26294 0.577468
v 0.194626 0.272146 0.577468
v 0.19718 0.280713 0.577468
v 0.197133 0.280741 0.564191
v 0.197836 0.280038 0.555107
v 0.208002 0.285417 0.500676
v 0.374855 0.26294 0.501332
v 0.274973 0.29906 0.500676
v 0.19479 0.26294 0.581539
v 0.196454 0.272146 0.590746
v 0.198046 0.279904 0.590746
v 0.219761 0.297634 0.500676
v 0.38303 0.26294 0.505577
v 0.273169 0.299684 0.500676
v 0.399193 0.279193 0.556645
v 0.196126 0.26294 0.590746
v 0.198562 0.272146 0.598097
v 0.19889 0.279058 0.597697
v 0.205776 0.282771 0.590746
v 0.220206 0.297788 0.500676
v 0.3976 0.26294 0.51829
v 0.26148 0.302476 0.500676
v 0.391603 0.283071 0.564191
v 0.401957 0.280397 0.564191
v 0.408586 0.277356 0.564191
v 0.430839 0.26294 0.551581
v 0.424609 0.26294 0.544393
v 0.411116 0.26294 0.531332
v 0.196781 0.26294 0.593001
v 0.198421 0.26294 0.598271
v 0.205776 0.26294 0.602587
v 0.205776 0.272146 0.602054
v 0.205776 0.28033 0.599337
v 0.219058 0.28441 0.590746
v 0.23234 0.301753 0.500676
v 0.25888 0.302745 0.500676
v 0.378345 0.284513 0.564191
v 0.402238 0.280524 0.573736
v 0.418167 0.272411 0.564191
v 0.426576 0.266313 0.555856
v 0.433346 0.26294 0.564191
v 0.427911 0.267197 0.564191
v 0.219058 0.26294 0.605407
v 0.219058 0.272146 0.60472
v 0.219058 0.281357 0.600557
v 0.23234 0.284161 0.590746
v 0.248737 0.30325 0.500676
v 0.245598 0.303286 0.500676
v 0.365063 0.283486 0.577468
v 0.378345 0.282491 0.577468
v 0.427185 0.26696 0.572055
v 0.390315 0.281061 0.577879
v 0.385044 0.278802 0.584122
v 0.429153 0.26294 0.572342
v 0.223111 0.26294 0.605028
v 0.23234 0.272146 0.6035
v 0.282328 0.279205 0.597748
v 0.272162 0.279746 0.598261
v 0.25888 0.280338 0.598896
v 0.245598 0.280784 0.599481
v 0.23234 0.281108 0.600014
v 0.245598 0.283838 0.590746
v 0.3385 0.284414 0.577468
v 0.351782 0.284067 0.577468
v 0.365063 0.280429 0.585773
v 0.3385 0.281361 0.587321
v 0.351782 0.28101 0.586593
v 0.378345 0.27943 0.584717
v 0.291182 0.276989 0.597205
v 0.351782 0.272146 0.589864
v 0.365063 0.272146 0.587977
v 0.378345 0.272146 0.585722
v 0.385864 0.272146 0.584297
v 0.393079 0.26294 0.582861
v 0.392517 0.272146 0.582441
v 0.422688 0.26294 0.574454
v 0.236392 0.26294 0.603695
v 0.25888 0.272146 0.600916
v 0.245598 0.272146 0.602229
v 0.25888 0.283391 0.590746
v 0.293244 0.268137 0.597512
v 0.3385 0.26294 0.592201
v 0.342576 0.26294 0.591689
v 0.272162 0.272146 0.599553
v 0.286216 0.272395 0.598045
v 0.351782 0.26294 0.590407
v 0.355857 0.26294 0.589833
v 0.365063 0.26294 0.588357
v 0.369116 0.26294 0.58767
v 0.378345 0.26294 0.585988
v 0.380641 0.26294 0.585558
v 0.386427 0.26294 0.58442
v 0.249674 0.26294 0.60228
v 0.288863 0.26294 0.598066
v 0.293572 0.26294 0.597543
v 0.329294 0.26294 0.593309
f 1 2 3
f 1 3 7
f 1 7 15
f 1 15 21
f 1 21 29
f 1 29 44
f 1 44 57
f 1 57 56
f 1 56 45
f 1 45 31
f 1 31 23
f 1 23 17
f 1 17 9
f 1 9 4
f 1 4 8
f 1 8 16
f 1 16 22
f 1 22 30
f 1 30 37
f 1 37 36
f 1 36 35
f 1 35 50
f 1 50 63
f 1 63 85
f 1 85 83
f 1 83 101
f 1 101 100
f 1 100 99
f 1 99 98
f 1 98 97
f 1 97 96
f 1 96 95
f 1 95 92
f 1 92 91
f 1 91 105
f 1 105 104
f 1 104 103
f 1 103 102
f 1 102 86
f 1 86 64
f 1 64 52
f 1 52 40
f 1 40 39
f 1 39 38
f 1 38 25
f 1 25 18
f 1 18 10
f 1 10 5
f 1 5 2
f 2 5 6
f 2 6 3
f 3 6 7
f 4 9 8
f 5 10 11
f 5 11 6
f 6 11 12
f 6 12 13
f 6 13 14
f 6 14 7
f 7 14 15
f 8 9 17
f 8 17 16
f 10 18 19
f 10 19 11
f 11 19 20
f 11 20 12
f 12 20 21
f 12 21 13
f 13 21 15
f 13 15 14
f 16 17 22
f 17 23 24
f 17 24 22
f 18 25 19
f 19 25 26
f 19 26 27
f 19 27 20
f 20 27 28
f 20 28 21
f 21 28 29
f 22 24 30
f 23 31 32
f 23 32 33
f 23 33 24
f 24 33 34
f 24 34 35
f 24 35 36
f 24 36 37
f 24 37 30
f 25 38 26
f 26 38 39
f 26 39 40
f 26 40 41
f 26 41 27
f 27 41 42
f 27 42 28
f 28 42 43
f 28 43 44
f 28 44 29
f 31 45 46
f 31 46 32
f 32 46 47
f 32 47 33
f 33 47 34
f 34 47 48
f 34 48 49
f 34 49 35
f 35 49 51
f 35 51 50
f 40 52 41
f 41 52 53
f 41 53 42
f 42 53 54
f 42 54 43
f 43 54 55
f 43 55 56
f 43 56 57
f 43 57 44
f 45 56 58
f 45 58 46
f 46 58 59
f 46 59 47
f 47 60 51
f 47 51 48
f 47 59 61
f 47 61 62
f 47 62 60
f 48 51 49
f 50 51 60
f 50 60 63
f 52 64 65
f 52 65 53
f 53 65 66
f 53 66 67
f 53 67 68
f 53 68 69
f 53 69 70
f 53 70 54
f 54 70 71
f 54 71 55
f 55 71 56
f 56 71 72
f 56 72 73
f 56 73 58
f 58 74 59
f 58 73 75
f 58 75 76
f 58 76 74
f 59 74 61
f 60 62 63
f 61 74 77
f 61 77 62
f 62 77 66
f 62 66 78
f 62 78 79
f 62 79 80
f 62 80 81
f 62 81 82
f 62 82 83
f 62 83 84
f 62 84 85
f 62 85 63
f 64 86 87
f 64 87 88
f 64 88 65
f 65 88 78
f 65 78 66
f 66 77 74
f 66 74 67
f 67 74 76
f 67 76 68
f 68 76 69
f 69 89 70
f 69 76 75
f 69 75 89
f 70 89 71
f 71 89 73
f 71 73 72
f 73 89 75
f 78 90 91
f 78 91 92
f 78 92 79
f 78 88 87
f 78 87 93
f 78 93 94
f 78 94 90
f 79 92 95
f 79 95 96
f 79 96 80
f 80 97 98
f 80 98 81
f 80 96 97
f 81 99 100
f 81 100 82
f 81 98 99
f 82 100 101
f 82 101 83
f 83 85 84
f 86 102 90
f 86 90 93
f 86 93 87
f 90 94 93
f 90 102 103
f 90 103 104
f 90 104 105
f 90 105 91
