v -0.63056 0.180417 0.300531
v -0.627559 0.193906 0.300531
v -0.630503 0.140674 0.300531
v -0.655286 0.112867 0.326811
v -0.655286 0.205738 0.326811
v -0.64834 0.205738 0.320162
v -0.640193 0.214696 0.316626
v -0.6247 0.213195 0.304832
v -0.619583 0.208068 0.300531
v -0.617382 0.0594545 0.300531
v -0.624271 0.0594545 0.305122
v -0.640622 0.0594545 0.316046
v -0.64734 0.0594545 0.320663
v -0.654629 0.0594545 0.327339
v -0.655172 0.0996113 0.32689
v -0.661833 0.0996113 0.335967
v -0.661918 0.112867 0.335967
v -0.653686 0.215214 0.328526
v -0.66329 0.205738 0.339292
v -0.664348 0.213479 0.34346
v -0.599116 0.240432 0.303855
v -0.591255 0.242296 0.300531
v -0.379037 0.0594545 0.300531
v -0.661347 0.0594545 0.33726
v -0.664205 0.0594545 0.343909
v -0.664663 0.0996113 0.342616
v -0.584795 0.292809 0.361772
v -0.571817 0.293172 0.344015
v -0.667149 0.126149 0.351825
v -0.665977 0.205738 0.351825
v -0.664863 0.214308 0.351825
v -0.587996 0.295579 0.378369
v -0.558268 0.292706 0.331349
v -0.579249 0.247215 0.300531
v -0.550893 0.294596 0.329054
v -0.532884 0.293068 0.317866
v -0.379037 0.221661 0.300531
v -0.379037 0.0596098 0.566816
v -0.537629 0.0594545 0.565602
v -0.670008 0.0594545 0.391641
v -0.668922 0.126149 0.365097
v -0.577448 0.298272 0.365097
v -0.576734 0.294414 0.353144
v -0.564156 0.300007 0.351825
v -0.56327 0.29488 0.339186
v -0.671008 0.0996113 0.404913
v -0.666349 0.205738 0.365097
v -0.665034 0.214593 0.365097
v -0.641508 0.243332 0.404913
v -0.588797 0.295579 0.391641
v -0.577448 0.301068 0.378369
v -0.565986 0.249727 0.300531
v -0.524394 0.294388 0.316679
v -0.51113 0.295372 0.315544
v -0.550893 0.299515 0.338553
v -0.537429 0.296201 0.324647
v -0.379037 0.243642 0.336521
v -0.417198 0.245662 0.300531
v -0.406136 0.242011 0.300742
v -0.397274 0.240018 0.304357
v -0.384954 0.239008 0.318552
v -0.382496 0.241105 0.325281
v -0.379037 0.0730472 0.569138
v -0.511273 0.0596098 0.566816
v -0.524537 0.0595322 0.566737
v -0.537629 0.0730472 0.568003
v -0.550893 0.0730472 0.56423
v -0.553065 0.0594545 0.560668
v -0.671008 0.0594545 0.404623
v -0.564156 0.302648 0.365097
v -0.550893 0.302855 0.351825
v -0.671008 0.0996113 0.457975
v -0.666349 0.205738 0.457975
v -0.665034 0.214593 0.457975
v -0.641108 0.243099 0.418211
v -0.588425 0.295476 0.431483
v -0.577448 0.301146 0.431483
v -0.577448 0.301379 0.391641
v -0.562127 0.307049 0.391641
v -0.560612 0.306479 0.38143
v -0.497867 0.285378 0.311692
v -0.551064 0.2504 0.300531
v -0.524394 0.299411 0.325281
v -0.51113 0.300783 0.325281
v -0.497867 0.295502 0.315333
v -0.537629 0.302285 0.338553
v -0.379037 0.247733 0.351825
v -0.411167 0.292602 0.37077
v -0.409766 0.294104 0.378369
v -0.398246 0.292084 0.411404
v -0.432377 0.249468 0.300531
v -0.484574 0.295217 0.315808
v -0.471311 0.293664 0.317286
v -0.464307 0.292239 0.3185
v -0.447871 0.294285 0.32945
v -0.434293 0.294725 0.341482
v -0.422201 0.294311 0.354806
v -0.379037 0.0863292 0.570061
v -0.51113 0.0730472 0.569138
v -0.524394 0.0730472 0.569085
v -0.537629 0.0863292 0.568979
v -0.550893 0.0863292 0.565338
v -0.560783 0.0730472 0.559507
v -0.561155 0.0607749 0.556842
v -0.575562 0.0594545 0.547264
v -0.671008 0.0594545 0.418211
v -0.669951 0.0996113 0.471247
v -0.671008 0.0863292 0.457975
v -0.665148 0.205738 0.471247
v -0.664119 0.213065 0.47465
v -0.587053 0.29501 0.444703
v -0.577448 0.300162 0.444703
v -0.562098 0.307049 0.418211
v -0.550893 0.308991 0.418211
v -0.550893 0.308991 0.391641
v -0.444755 0.323956 0.404913
v -0.444698 0.250322 0.300531
v -0.497867 0.252523 0.300531
v -0.51113 0.252031 0.300531
v -0.523107 0.251565 0.300531
v -0.497867 0.300991 0.325281
v -0.524394 0.303269 0.338553
v -0.44607 0.321289 0.390348
v -0.43981 0.319632 0.3842
v -0.484574 0.300499 0.325281
v -0.379037 0.249235 0.365097
v -0.435779 0.321134 0.391641
v -0.434921 0.322092 0.404913
v -0.43495 0.322092 0.418211
v -0.436036 0.320927 0.427631
v -0.410166 0.293689 0.441483
v -0.379037 0.229092 0.549929
v -0.379037 0.247371 0.471247
v -0.379037 0.249131 0.459162
v -0.379037 0.249778 0.445362
v -0.379037 0.250219 0.432143
v -0.379037 0.250296 0.418844
v -0.379037 0.250322 0.405282
v -0.379037 0.25027 0.391641
v -0.379037 0.250115 0.378765
v -0.471311 0.298505 0.325281
v -0.459133 0.29532 0.325122
v -0.51113 0.0863292 0.570061
v -0.379037 0.0996113 0.570035
v -0.524394 0.0863292 0.570008
v -0.537629 0.0996113 0.568979
v -0.561755 0.0863292 0.560114
v -0.550893 0.0996113 0.565338
v -0.567415 0.0730472 0.555417
v -0.583566 0.0683351 0.543887
v -0.615381 0.0594545 0.52072
v -0.667607 0.0594545 0.457816
v -0.669922 0.0730472 0.457975
v -0.669951 0.0863292 0.471247
v -0.666292 0.0996113 0.482935
v -0.659489 0.205738 0.48473
v -0.652056 0.214204 0.492593
v -0.585195 0.29343 0.453383
v -0.577763 0.296175 0.457869
v -0.564156 0.301793 0.457975
v -0.560669 0.306402 0.431483
v -0.444755 0.323904 0.418211
v -0.445469 0.295424 0.484255
v -0.436093 0.293793 0.479664
v -0.444755 0.32116 0.428
v -0.484574 0.302725 0.484519
v -0.471311 0.30169 0.484519
v -0.458018 0.299359 0.484519
v -0.379037 0.224638 0.556684
v -0.450386 0.292913 0.491827
v -0.51113 0.0996113 0.570035
v -0.524394 0.0996113 0.570008
v -0.379037 0.205738 0.565391
v -0.537629 0.205738 0.564204
v -0.524394 0.205738 0.565364
v -0.568387 0.0863292 0.555945
v -0.561755 0.0996113 0.560114
v -0.550835 0.205738 0.560325
v -0.557467 0.205738 0.557475
v -0.584709 0.0771898 0.544678
v -0.578477 0.072866 0.548135
v -0.623385 0.0683351 0.517342
v -0.638593 0.0594545 0.505152
v -0.666349 0.0594545 0.471247
v -0.66875 0.0730472 0.471247
v -0.665663 0.0730472 0.481774
v -0.666292 0.0863292 0.482935
v -0.66269 0.0996113 0.489585
v -0.652857 0.205738 0.493305
v -0.63722 0.212418 0.50444
v -0.59763 0.239189 0.517923
v -0.61075 0.23906 0.504572
v -0.573561 0.294311 0.468318
v -0.565071 0.296822 0.472144
v -0.561098 0.304745 0.442249
v -0.550893 0.301819 0.471247
v -0.537629 0.303373 0.471247
v -0.524394 0.302207 0.484519
v -0.51113 0.302907 0.484519
v -0.497867 0.302984 0.484519
v -0.497867 0.297651 0.497791
v -0.484574 0.295968 0.498872
v -0.471311 0.295994 0.49597
v -0.458018 0.29444 0.493463
v -0.379037 0.217855 0.561565
v -0.489005 0.292473 0.504704
v -0.484574 0.243461 0.548768
v -0.497867 0.243746 0.549296
v -0.51113 0.205738 0.565391
v -0.484574 0.21858 0.561459
v -0.537629 0.216327 0.560879
v -0.548634 0.214774 0.559375
v -0.524394 0.216768 0.561433
v -0.497867 0.218399 0.561459
v -0.577448 0.0863292 0.549929
v -0.568387 0.0996113 0.555945
v -0.573046 0.214308 0.54576
v -0.597401 0.212418 0.53101
v -0.585024 0.0863292 0.544889
v -0.601632 0.0863292 0.533834
v -0.624529 0.0771898 0.518134
v -0.618297 0.072866 0.521591
v -0.640565 0.0730472 0.506683
v -0.647197 0.0730472 0.502171
v -0.645167 0.0594545 0.500667
v -0.664434 0.0594545 0.479241
v -0.661975 0.0730472 0.488397
v -0.66269 0.0863292 0.489585
v -0.656058 0.0996113 0.496181
v -0.648083 0.0996113 0.502804
v -0.643852 0.205738 0.499954
v -0.574132 0.241364 0.533174
v -0.641451 0.0996113 0.507263
v -0.56124 0.294337 0.480719
v -0.550978 0.29633 0.484888
v -0.537629 0.300499 0.484519
v -0.524394 0.29633 0.496709
v -0.512074 0.296201 0.499057
v -0.508272 0.292757 0.504915
v -0.497867 0.292913 0.50502
v -0.497867 0.232276 0.55547
v -0.51113 0.243565 0.548926
v -0.537629 0.242141 0.547
v -0.524394 0.243176 0.548214
v -0.547548 0.240458 0.545496
v -0.577448 0.0996113 0.549929
v -0.601632 0.0996113 0.533834
v -0.585024 0.0996113 0.544889
v -0.641451 0.0863292 0.507263
v -0.648083 0.0863292 0.502804
v -0.655344 0.0730472 0.495548
v -0.653714 0.0594545 0.494097
v -0.660403 0.0594545 0.485864
v -0.656058 0.0863292 0.496181
v -0.546605 0.293664 0.49254
v -0.537629 0.295269 0.494519
f 1 2 9
f 1 9 22
f 1 22 34
f 1 34 52
f 1 52 82
f 1 82 120
f 1 120 119
f 1 119 118
f 1 118 117
f 1 117 91
f 1 91 58
f 1 58 37
f 1 37 23
f 1 23 10
f 1 10 3
f 1 3 4
f 1 4 5
f 1 5 6
f 1 6 2
f 2 6 7
f 2 7 8
f 2 8 9
f 3 10 11
f 3 11 12
f 3 12 13
f 3 13 14
f 3 14 15
f 3 15 4
f 4 15 16
f 4 16 17
f 4 17 5
f 5 18 6
f 5 17 19
f 5 19 20
f 5 20 18
f 6 18 7
f 7 18 21
f 7 21 8
f 8 21 22
f 8 22 9
f 10 23 39
f 10 39 68
f 10 68 105
f 10 105 151
f 10 151 183
f 10 183 225
f 10 225 252
f 10 252 253
f 10 253 226
f 10 226 184
f 10 184 152
f 10 152 106
f 10 106 69
f 10 69 40
f 10 40 25
f 10 25 24
f 10 24 14
f 10 14 13
f 10 13 12
f 10 12 11
f 14 24 16
f 14 16 15
f 16 24 25
f 16 25 26
f 16 26 17
f 17 26 19
f 18 20 27
f 18 27 28
f 18 28 21
f 19 26 29
f 19 29 20
f 20 29 30
f 20 30 31
f 20 31 32
f 20 32 27
f 21 28 33
f 21 33 22
f 22 33 35
f 22 35 36
f 22 36 34
f 23 37 57
f 23 57 87
f 23 87 126
f 23 126 140
f 23 140 139
f 23 139 138
f 23 138 137
f 23 137 136
f 23 136 135
f 23 135 134
f 23 134 133
f 23 133 132
f 23 132 169
f 23 169 205
f 23 205 173
f 23 173 144
f 23 144 98
f 23 98 63
f 23 63 38
f 23 38 39
f 25 40 41
f 25 41 29
f 25 29 26
f 27 32 42
f 27 42 43
f 27 43 28
f 28 43 44
f 28 44 45
f 28 45 33
f 29 41 30
f 30 41 46
f 30 46 47
f 30 47 31
f 31 47 48
f 31 48 49
f 31 49 32
f 32 50 51
f 32 51 42
f 32 49 50
f 33 45 35
f 34 36 53
f 34 53 54
f 34 54 52
f 35 45 55
f 35 55 56
f 35 56 36
f 36 56 53
f 37 58 59
f 37 59 60
f 37 60 61
f 37 61 62
f 37 62 57
f 38 63 99
f 38 99 64
f 38 64 65
f 38 65 39
f 39 65 66
f 39 66 67
f 39 67 68
f 40 69 41
f 41 69 46
f 42 51 44
f 42 44 43
f 44 51 70
f 44 70 71
f 44 71 55
f 44 55 45
f 46 69 106
f 46 106 108
f 46 108 72
f 46 72 73
f 46 73 47
f 47 73 74
f 47 74 48
f 48 74 49
f 49 74 75
f 49 75 76
f 49 76 50
f 50 76 77
f 50 77 78
f 50 78 51
f 51 78 79
f 51 79 80
f 51 80 70
f 52 54 81
f 52 81 82
f 53 56 83
f 53 83 54
f 54 83 84
f 54 84 85
f 54 85 81
f 55 71 86
f 55 86 83
f 55 83 56
f 57 62 88
f 57 88 89
f 57 89 90
f 57 90 87
f 58 91 92
f 58 92 93
f 58 93 59
f 59 93 94
f 59 94 95
f 59 95 60
f 60 95 96
f 60 96 97
f 60 97 61
f 61 97 62
f 62 97 88
f 63 98 143
f 63 143 99
f 64 99 100
f 64 100 65
f 65 100 66
f 66 100 101
f 66 101 102
f 66 102 67
f 67 102 103
f 67 103 68
f 68 103 104
f 68 104 105
f 70 80 71
f 71 80 86
f 72 107 73
f 72 108 154
f 72 154 107
f 73 107 109
f 73 109 110
f 73 110 74
f 74 110 111
f 74 111 76
f 74 76 75
f 76 111 112
f 76 112 77
f 77 112 113
f 77 113 78
f 78 113 79
f 79 113 114
f 79 114 115
f 79 115 80
f 80 115 116
f 80 116 86
f 81 85 91
f 81 91 117
f 81 117 118
f 81 118 119
f 81 119 120
f 81 120 82
f 83 86 84
f 84 121 85
f 84 86 122
f 84 122 123
f 84 123 124
f 84 124 121
f 85 121 125
f 85 125 92
f 85 92 91
f 86 116 123
f 86 123 122
f 87 90 126
f 88 97 127
f 88 127 89
f 89 127 90
f 90 127 128
f 90 128 129
f 90 129 130
f 90 130 131
f 90 131 132
f 90 132 133
f 90 133 134
f 90 134 135
f 90 135 136
f 90 136 137
f 90 137 138
f 90 138 139
f 90 139 140
f 90 140 126
f 92 125 141
f 92 141 93
f 93 141 142
f 93 142 94
f 94 142 95
f 95 142 124
f 95 124 96
f 96 124 127
f 96 127 97
f 98 144 171
f 98 171 143
f 99 143 145
f 99 145 100
f 100 145 101
f 101 146 148
f 101 148 102
f 101 145 172
f 101 172 146
f 102 147 103
f 102 148 177
f 102 177 147
f 103 147 149
f 103 149 104
f 104 149 105
f 105 149 150
f 105 150 182
f 105 182 151
f 106 152 153
f 106 153 108
f 107 154 187
f 107 187 155
f 107 155 110
f 107 110 109
f 108 153 154
f 110 155 156
f 110 156 157
f 110 157 158
f 110 158 111
f 111 158 159
f 111 159 112
f 112 160 161
f 112 161 113
f 112 159 160
f 113 161 114
f 114 162 116
f 114 116 115
f 114 161 162
f 116 162 129
f 116 129 128
f 116 128 127
f 116 127 123
f 121 124 125
f 123 127 124
f 124 142 141
f 124 141 125
f 129 162 130
f 130 163 164
f 130 164 132
f 130 132 131
f 130 162 165
f 130 165 166
f 130 166 167
f 130 167 168
f 130 168 163
f 132 164 163
f 132 163 170
f 132 170 169
f 143 171 172
f 143 172 145
f 144 173 209
f 144 209 171
f 146 174 148
f 146 172 175
f 146 175 174
f 147 176 149
f 147 177 216
f 147 216 176
f 148 178 179
f 148 179 177
f 148 174 178
f 149 176 180
f 149 180 181
f 149 181 150
f 150 181 222
f 150 222 182
f 151 182 183
f 152 184 185
f 152 185 153
f 153 185 154
f 154 185 186
f 154 186 187
f 155 187 228
f 155 228 188
f 155 188 156
f 156 189 157
f 156 188 189
f 157 189 190
f 157 190 191
f 157 191 192
f 157 192 193
f 157 193 158
f 158 193 159
f 159 193 194
f 159 194 160
f 160 195 161
f 160 194 196
f 160 196 195
f 161 195 196
f 161 196 162
f 162 196 197
f 162 197 198
f 162 198 199
f 162 199 165
f 163 168 170
f 165 199 200
f 165 200 166
f 166 200 201
f 166 201 167
f 167 201 202
f 167 202 203
f 167 203 168
f 168 203 204
f 168 204 170
f 169 170 204
f 169 204 203
f 169 203 206
f 169 206 207
f 169 207 208
f 169 208 205
f 171 209 175
f 171 175 172
f 173 205 210
f 173 210 209
f 174 211 212
f 174 212 178
f 174 175 211
f 175 213 211
f 175 209 210
f 175 210 214
f 175 214 213
f 176 215 180
f 176 216 246
f 176 246 215
f 177 179 216
f 178 212 179
f 179 212 217
f 179 217 218
f 179 218 216
f 180 215 219
f 180 219 220
f 180 220 221
f 180 221 222
f 180 222 181
f 182 222 223
f 182 223 183
f 183 223 224
f 183 224 225
f 184 226 185
f 185 226 186
f 186 226 227
f 186 227 228
f 186 228 187
f 188 228 254
f 188 254 229
f 188 229 189
f 189 229 230
f 189 230 231
f 189 231 190
f 190 218 232
f 190 232 191
f 190 231 230
f 190 230 233
f 190 233 247
f 190 247 218
f 191 232 234
f 191 234 193
f 191 193 192
f 193 234 194
f 194 234 235
f 194 235 196
f 196 235 236
f 196 236 198
f 196 198 197
f 198 237 238
f 198 238 201
f 198 201 199
f 198 236 237
f 199 201 200
f 201 238 239
f 201 239 240
f 201 240 206
f 201 206 202
f 202 206 203
f 205 241 210
f 205 208 241
f 206 240 207
f 207 240 208
f 208 240 239
f 208 239 242
f 208 242 241
f 210 241 214
f 211 243 212
f 211 213 241
f 211 241 242
f 211 242 244
f 211 244 243
f 212 243 245
f 212 245 232
f 212 232 217
f 213 214 241
f 215 246 248
f 215 248 219
f 216 218 246
f 217 232 218
f 218 247 248
f 218 248 246
f 219 248 247
f 219 247 220
f 220 247 233
f 220 233 249
f 220 249 221
f 221 249 250
f 221 250 224
f 221 224 223
f 221 223 222
f 224 250 251
f 224 251 252
f 224 252 225
f 226 253 227
f 227 253 252
f 227 252 251
f 227 251 228
f 228 251 254
f 229 254 250
f 229 250 230
f 230 250 249
f 230 249 233
f 232 245 255
f 232 255 234
f 234 255 235
f 235 255 236
f 236 255 256
f 236 256 237
f 237 239 238
f 237 256 239
f 239 256 243
f 239 243 244
f 239 244 242
f 243 256 245
f 245 256 255
f 250 254 251
