v 0.157548 0.0551076 0.246796
v 0.157577 0.036248 0.245419
v 0.157577 -0.269261 0.251149
v 0.157577 -0.282446 0.251626
v 0.157548 0.0551076 0.251626
v 0.157548 0.0867351 0.247552
v 0.157548 0.0995446 0.247986
v 0.170582 0.014259 0.217568
v 0.170567 -0.0142808 0.217568
v 0.170567 -0.111458 0.217568
v 0.157592 -0.236132 0.249929
v 0.192559 -0.258788 0.231237
v 0.205757 -0.272099 0.230703
v 0.205757 -0.282405 0.235634
v 0.205802 -0.303184 0.251626
v 0.157548 0.121951 0.251626
v 0.157548 0.112813 0.248762
v 0.183332 0.0122562 0.217568
v 0.157548 0.121951 0.249663
v 0.170641 -0.111333 0.217568
v 0.258865 -0.179136 0.219522
v 0.250444 -0.179177 0.219542
v 0.245577 -0.179177 0.219562
v 0.219045 -0.272099 0.229476
v 0.211939 -0.265005 0.22924
v 0.205757 -0.258788 0.229036
v 0.205757 -0.265005 0.229803
v 0.219045 -0.284574 0.234487
v 0.219045 -0.304227 0.251626
v 0.219045 -0.29125 0.239651
v 0.165864 0.121951 0.251626
v 0.188319 0.00875134 0.217568
v 0.193141 -0.0142808 0.217568
v 0.258865 -0.139372 0.219522
v 0.272108 -0.179136 0.220319
v 0.245562 -0.272099 0.23021
v 0.232304 -0.272099 0.229446
v 0.232304 -0.284783 0.234424
v 0.232304 -0.291417 0.239435
v 0.232304 -0.30431 0.251626
v 0.232304 -0.298469 0.246072
v 0.304387 -0.108454 0.251616
v 0.292995 -0.117717 0.237874
v 0.278796 -0.119469 0.225673
v 0.208445 0.036248 0.251626
v 0.189289 0.00687372 0.217568
v 0.279931 -0.126062 0.224526
v 0.193141 -0.00668685 0.217568
v 0.272108 -0.139372 0.220319
v 0.281081 -0.179136 0.223392
v 0.280334 -0.189734 0.224156
v 0.258865 -0.258788 0.230497
v 0.259044 -0.272182 0.234644
v 0.250429 -0.276647 0.23379
v 0.250429 -0.281737 0.236144
v 0.245562 -0.282947 0.235247
v 0.243889 -0.303976 0.251626
v 0.307179 -0.116465 0.251616
v 0.308642 -0.126062 0.251616
v 0.281081 -0.139372 0.223392
v 0.250429 -0.24794 0.251626
v 0.310075 -0.232001 0.251616
v 0.292711 -0.227662 0.238174
v 0.281797 -0.245478 0.236851
v 0.272108 -0.245478 0.23274
v 0.271943 -0.258079 0.235734
v 0.254714 -0.28061 0.236931
v 0.26736 -0.267843 0.237058
v 0.25988 -0.297968 0.251616
v 0.256998 -0.299303 0.251616
v 0.250444 -0.301723 0.251616
v 0.245562 -0.303476 0.251626
v 0.250444 -0.297384 0.251626
v 0.250444 -0.301723 0.251626
v 0.299012 -0.256118 0.251616
v 0.29089 -0.236466 0.239751
v 0.279573 -0.253197 0.238151
v 0.297385 -0.259414 0.251616
v 0.284769 -0.2731 0.251616
v 0.273257 -0.284866 0.251616
v 0.27163 -0.286494 0.251616
f 1 2 3
f 1 3 4
f 1 4 5
f 1 5 16
f 1 16 19
f 1 19 17
f 1 17 7
f 1 7 6
f 1 6 2
f 2 6 7
f 2 7 8
f 2 8 9
f 2 9 10
f 2 10 11
f 2 11 3
f 3 11 10
f 3 10 4
f 4 10 12
f 4 12 13
f 4 13 14
f 4 14 15
f 4 15 29
f 4 29 40
f 4 40 57
f 4 57 72
f 4 72 74
f 4 74 73
f 4 73 61
f 4 61 45
f 4 45 31
f 4 31 16
f 4 16 5
f 7 17 8
f 8 18 32
f 8 32 46
f 8 46 48
f 8 48 33
f 8 33 20
f 8 20 10
f 8 10 9
f 8 17 19
f 8 19 18
f 10 20 21
f 10 21 22
f 10 22 23
f 10 23 24
f 10 24 25
f 10 25 26
f 10 26 12
f 12 26 27
f 12 27 13
f 13 27 24
f 13 24 28
f 13 28 14
f 14 28 15
f 15 28 30
f 15 30 29
f 16 31 19
f 18 19 31
f 18 31 32
f 20 33 21
f 21 34 49
f 21 49 35
f 21 35 36
f 21 36 37
f 21 37 22
f 21 33 48
f 21 48 34
f 22 37 24
f 22 24 23
f 24 37 38
f 24 38 28
f 24 27 25
f 25 27 26
f 28 38 39
f 28 39 30
f 29 30 39
f 29 39 41
f 29 41 40
f 31 42 43
f 31 43 44
f 31 44 32
f 31 45 42
f 32 44 47
f 32 47 46
f 34 48 49
f 35 49 60
f 35 60 50
f 35 50 51
f 35 51 52
f 35 52 36
f 36 52 53
f 36 53 54
f 36 54 55
f 36 55 56
f 36 56 38
f 36 38 37
f 38 56 39
f 39 57 41
f 39 56 57
f 40 41 57
f 42 58 43
f 42 45 58
f 43 58 59
f 43 59 60
f 43 60 47
f 43 47 44
f 45 59 58
f 45 61 59
f 46 47 49
f 46 49 48
f 47 60 49
f 50 60 62
f 50 62 51
f 51 62 63
f 51 63 64
f 51 64 65
f 51 65 52
f 52 65 66
f 52 66 53
f 53 67 54
f 53 66 68
f 53 68 67
f 54 67 55
f 55 67 69
f 55 69 56
f 56 69 70
f 56 70 71
f 56 71 72
f 56 72 57
f 59 62 60
f 59 61 62
f 61 73 62
f 62 73 74
f 62 74 75
f 62 75 63
f 63 75 76
f 63 76 64
f 64 77 66
f 64 66 65
f 64 76 78
f 64 78 77
f 66 77 68
f 67 68 79
f 67 79 80
f 67 80 81
f 67 81 69
f 68 77 78
f 68 78 79
f 69 74 70
f 69 81 74
f 70 74 71
f 71 74 72
f 74 81 80
f 74 80 79
f 74 79 78
f 74 78 75
f 75 78 76
