v 0.0267222 0.169724 -0.461922
v 0.0235552 0.171342 -0.461922
v 0.0267222 0.139079 -0.461922
v 0.0267222 0.172097 -0.466085
v 0.0257884 0.172268 -0.465498
v 0.0170857 0.174184 -0.461922
v -0.111546 0.176174 -0.461922
v -0.111546 0.225202 -0.596993
v -0.111546 0.225478 -0.597734
v 0.0267222 0.190427 -0.591028
v -0.00687046 0.188053 -0.471729
v -0.00259355 0.184785 -0.467608
v 0.0267222 0.178835 -0.484734
v -0.0114451 0.186627 -0.46297
v -0.0121354 0.186339 -0.461922
v -0.111546 0.203892 -0.461922
v 0.0267222 0.192417 -0.595219
v -0.111546 0.23161 -0.601771
v 0.0267222 0.19593 -0.600528
v -0.0199177 0.19329 -0.471282
v 0.006637 0.191874 -0.497824
v -0.0126497 0.225936 -0.570116
v 0.0267222 0.185935 -0.504417
v -0.0135836 0.186925 -0.461922
v -0.0995549 0.203274 -0.461922
v -0.111546 0.20783 -0.471282
v -0.111546 0.232312 -0.602218
v 0.0267222 0.200049 -0.602581
v -0.0275106 0.198889 -0.47856
v -0.0324372 0.197463 -0.471198
v -0.0207163 0.189448 -0.461922
v -0.0210546 0.208522 -0.512212
v -0.0262384 0.212524 -0.517381
v -0.0232608 0.200486 -0.487417
v 0.0267222 0.211109 -0.574209
v 0.0267222 0.213567 -0.581026
v -0.00381166 0.224105 -0.575187
v 4.56859e-05 0.225702 -0.584044
v -0.00760132 0.226958 -0.578763
v -0.00664037 0.230822 -0.590749
v -0.0205809 0.236101 -0.591503
v -0.0257511 0.225957 -0.556719
v -0.0862775 0.201752 -0.461922
v -0.0995549 0.207117 -0.471282
v -0.0995549 0.216048 -0.497824
v -0.111546 0.211449 -0.482038
v -0.111546 0.243254 -0.601952
v -0.0862775 0.232312 -0.603866
v 0.0199008 0.205765 -0.603768
v 0.0267222 0.205765 -0.603936
v -0.0363622 0.199911 -0.47557
v -0.0464589 0.198506 -0.466476
v -0.032965 0.19345 -0.461922
v 0.0267222 0.214813 -0.584533
v 0.0267222 0.217091 -0.590958
v 0.00294207 0.226873 -0.590749
v -0.0254534 0.239252 -0.596449
v -0.0331951 0.237634 -0.588025
v -0.0331951 0.226532 -0.555001
v -0.0737581 0.200305 -0.461922
v -0.0628493 0.199592 -0.463515
v -0.0539977 0.198995 -0.464995
v -0.0862775 0.205371 -0.471282
v -0.0730137 0.203626 -0.471282
v -0.0464589 0.204594 -0.484553
v -0.0464589 0.214078 -0.512757
v -0.0995549 0.239774 -0.568384
v -0.111546 0.234611 -0.550922
v -0.111546 0.244393 -0.601869
v -0.0730137 0.232312 -0.604481
v -0.00664037 0.219039 -0.604439
v 0.0267222 0.211364 -0.602874
v -0.0464589 0.200741 -0.473112
v -0.0464589 0.196313 -0.461922
v 0.0267222 0.217101 -0.595499
v 0.00386242 0.227245 -0.599508
v -0.0254534 0.239252 -0.597957
v -0.0995549 0.24715 -0.590749
v -0.0331951 0.239827 -0.594674
v -0.0862775 0.245468 -0.590749
v -0.0995549 0.242818 -0.577464
v -0.061983 0.239529 -0.582381
v -0.0464589 0.235835 -0.577464
v -0.0731626 0.20023 -0.461922
v -0.0648253 0.199049 -0.461922
v -0.061577 0.19858 -0.461922
v -0.0864399 0.240849 -0.576724
v -0.111546 0.243531 -0.577464
v -0.111546 0.247512 -0.591825
v -0.0995549 0.244095 -0.601869
v -0.0597363 0.232312 -0.604635
v -0.0464589 0.232312 -0.604034
v -0.0331951 0.232312 -0.603112
v -0.00664037 0.229417 -0.601212
v 0.0199008 0.217261 -0.601589
v 0.0267222 0.215867 -0.600779
v -0.0205809 0.233025 -0.601324
v -0.0331951 0.239827 -0.598921
v -0.111546 0.24781 -0.590749
v -0.111546 0.243957 -0.578763
v -0.0464589 0.240678 -0.600053
v -0.0597363 0.241541 -0.600863
v -0.0730137 0.242413 -0.601394
v -0.0862775 0.243286 -0.601729
f 1 2 6
f 1 6 15
f 1 15 24
f 1 24 31
f 1 31 53
f 1 53 74
f 1 74 86
f 1 86 85
f 1 85 84
f 1 84 60
f 1 60 43
f 1 43 25
f 1 25 16
f 1 16 7
f 1 7 3
f 1 3 10
f 1 10 17
f 1 17 19
f 1 19 28
f 1 28 50
f 1 50 72
f 1 72 96
f 1 96 75
f 1 75 55
f 1 55 54
f 1 54 36
f 1 36 35
f 1 35 23
f 1 23 13
f 1 13 4
f 1 4 5
f 1 5 2
f 2 5 6
f 3 7 8
f 3 8 9
f 3 9 10
f 4 11 12
f 4 12 5
f 4 13 11
f 5 12 14
f 5 14 6
f 6 14 15
f 7 16 26
f 7 26 46
f 7 46 68
f 7 68 88
f 7 88 100
f 7 100 99
f 7 99 89
f 7 89 69
f 7 69 47
f 7 47 27
f 7 27 18
f 7 18 9
f 7 9 8
f 9 17 10
f 9 18 19
f 9 19 17
f 11 20 12
f 11 13 21
f 11 21 22
f 11 22 20
f 12 20 14
f 13 23 21
f 14 20 24
f 14 24 15
f 16 25 26
f 18 27 19
f 19 27 28
f 20 29 30
f 20 30 31
f 20 31 24
f 20 22 32
f 20 32 33
f 20 33 34
f 20 34 29
f 21 23 35
f 21 35 22
f 22 35 36
f 22 36 37
f 22 37 38
f 22 38 39
f 22 39 40
f 22 40 41
f 22 41 42
f 22 42 33
f 22 33 32
f 25 43 44
f 25 44 26
f 26 44 45
f 26 45 46
f 27 47 48
f 27 48 49
f 27 49 28
f 28 49 50
f 29 34 33
f 29 33 30
f 30 33 51
f 30 51 52
f 30 52 53
f 30 53 31
f 33 42 51
f 36 54 38
f 36 38 37
f 38 54 55
f 38 55 56
f 38 56 40
f 38 40 39
f 40 56 57
f 40 57 41
f 41 57 42
f 42 57 58
f 42 58 59
f 42 59 52
f 42 52 51
f 43 60 44
f 44 60 61
f 44 61 62
f 44 62 63
f 44 63 45
f 45 63 64
f 45 64 65
f 45 65 66
f 45 66 67
f 45 67 46
f 46 67 68
f 47 69 70
f 47 70 48
f 48 70 49
f 49 70 50
f 50 70 71
f 50 71 72
f 52 73 64
f 52 64 63
f 52 63 62
f 52 62 74
f 52 74 53
f 52 59 73
f 55 75 76
f 55 76 57
f 55 57 56
f 57 76 77
f 57 77 78
f 57 78 79
f 57 79 58
f 58 79 80
f 58 80 81
f 58 81 82
f 58 82 83
f 58 83 59
f 59 83 66
f 59 66 65
f 59 65 73
f 60 84 61
f 61 84 85
f 61 85 86
f 61 86 74
f 61 74 62
f 64 73 65
f 66 83 67
f 67 83 87
f 67 87 81
f 67 81 88
f 67 88 68
f 69 89 90
f 69 90 91
f 69 91 70
f 70 91 71
f 71 91 92
f 71 92 93
f 71 93 94
f 71 94 72
f 72 94 95
f 72 95 96
f 75 96 76
f 76 96 94
f 76 94 77
f 77 94 97
f 77 97 98
f 77 98 78
f 78 99 100
f 78 100 81
f 78 81 80
f 78 80 79
f 78 98 101
f 78 101 102
f 78 102 103
f 78 103 104
f 78 104 90
f 78 90 99
f 81 100 88
f 81 87 82
f 82 87 83
f 89 99 90
f 90 104 91
f 91 104 92
f 92 104 103
f 92 103 102
f 92 102 93
f 93 102 101
f 93 101 97
f 93 97 94
f 94 96 95
f 97 101 98
