v 0.187158 -0.0418723 0.234161
v 0.187158 -0.0356806 0.217568
v 0.197252 -0.0491711 0.234161
v 0.187158 -0.0142625 0.234161
v 0.1885 -0.0338183 0.217568
v 0.221325 -0.0491711 0.234161
v 0.187158 -0.0142625 0.217568
v 0.19784 -0.0142625 0.234161
v 0.188821 -0.0332408 0.217568
v 0.188887 -0.0330563 0.217568
v 0.188991 -0.0327624 0.217568
v 0.193148 -0.0199143 0.217568
v 0.221325 -0.047015 0.234161
v 0.193148 -0.0142625 0.217568
f 1 2 3
f 1 3 6
f 1 6 13
f 1 13 8
f 1 8 4
f 1 4 7
f 1 7 2
f 2 5 6
f 2 6 3
f 2 7 14
f 2 14 12
f 2 12 11
f 2 11 10
f 2 10 9
f 2 9 5
f 4 8 14
f 4 14 7
f 5 9 6
f 6 9 10
f 6 10 11
f 6 11 12
f 6 12 14
f 6 14 13
f 8 13 14
