v -0.305144 -0.341971 -0.470965
v -0.296543 -0.348593 -0.470965
v -0.279265 -0.358814 -0.463868
v -0.29389 -0.346572 -0.462107
v -0.305144 -0.336042 -0.459317
v -0.305144 -0.310133 -0.470965
v -0.281254 -0.360335 -0.470965
v -0.271535 -0.361336 -0.458862
v -0.27557 -0.355965 -0.455022
v -0.28474 -0.351268 -0.458561
v -0.271629 -0.367361 -0.470965
v -0.263672 -0.370864 -0.46672
v -0.290196 -0.343723 -0.453255
v -0.305144 -0.331731 -0.452607
v -0.305144 -0.236563 -0.437624
v -0.111597 -0.385898 -0.470965
v -0.266723 -0.359276 -0.450601
v -0.271232 -0.36763 -0.470965
v -0.265207 -0.371673 -0.470965
v -0.258993 -0.374425 -0.470965
v -0.226445 -0.385301 -0.463891
v -0.254825 -0.37277 -0.462351
v -0.259088 -0.368246 -0.457953
v -0.304803 -0.33148 -0.451834
v -0.305144 -0.331365 -0.452044
v -0.305144 -0.225186 -0.432187
v -0.111597 -0.411576 -0.470965
v -0.305144 -0.221356 -0.429914
v -0.111597 -0.329767 -0.431795
v -0.265283 -0.344993 -0.438215
v -0.271535 -0.351634 -0.44738
v -0.281348 -0.347111 -0.449777
v -0.248952 -0.370344 -0.453499
v -0.25886 -0.361374 -0.448647
v -0.256435 -0.3479 -0.435533
v -0.254995 -0.333983 -0.423113
v -0.236239 -0.383857 -0.470965
v -0.206287 -0.396273 -0.470965
v -0.197666 -0.397813 -0.465845
v -0.219037 -0.386822 -0.46105
v -0.295955 -0.334868 -0.448953
v -0.305144 -0.324243 -0.44609
v -0.111597 -0.410479 -0.467732
v -0.112848 -0.411653 -0.470965
v -0.305144 -0.217159 -0.422158
v -0.111597 -0.328824 -0.431107
v -0.263843 -0.330614 -0.425823
v -0.298229 -0.311634 -0.431732
v -0.299669 -0.325994 -0.444118
v -0.219037 -0.383164 -0.454414
v -0.211724 -0.384685 -0.451749
v -0.240104 -0.372135 -0.450914
v -0.248175 -0.356735 -0.439652
v -0.245579 -0.34328 -0.426334
v -0.24414 -0.364454 -0.445277
v -0.245579 -0.336639 -0.421045
v -0.259201 -0.325802 -0.420181
v -0.269621 -0.321759 -0.422369
v -0.293076 -0.306129 -0.424175
v -0.200129 -0.398737 -0.470965
v -0.192949 -0.400816 -0.470669
v -0.188819 -0.399064 -0.462743
v -0.192949 -0.395368 -0.458186
v -0.206703 -0.389574 -0.456902
v -0.305144 -0.318121 -0.441192
v -0.112848 -0.410517 -0.467624
v -0.111597 -0.410017 -0.46672
v -0.126128 -0.410691 -0.470965
v -0.305144 -0.215889 -0.418175
v -0.111597 -0.3238 -0.412925
v -0.301923 -0.302587 -0.426897
v -0.305144 -0.305205 -0.430971
v -0.305144 -0.309459 -0.434329
v -0.202876 -0.386494 -0.449914
v -0.233398 -0.351461 -0.429022
v -0.238532 -0.344974 -0.424971
v -0.206912 -0.378814 -0.444277
v -0.245579 -0.325244 -0.415204
v -0.229684 -0.346803 -0.423266
v -0.219037 -0.349016 -0.42142
v -0.233398 -0.339738 -0.419727
v -0.206268 -0.339218 -0.412925
v -0.258159 -0.312231 -0.412925
v -0.259372 -0.311365 -0.412925
v -0.285403 -0.298699 -0.416693
v -0.285403 -0.309074 -0.422062
v -0.297983 -0.298391 -0.42163
v -0.305144 -0.294657 -0.423158
v -0.19293 -0.400912 -0.470965
v -0.186148 -0.402298 -0.470965
v -0.179233 -0.403684 -0.470965
v -0.179233 -0.399911 -0.460953
v -0.179233 -0.396504 -0.454317
v -0.192494 -0.388342 -0.448044
v -0.111597 -0.405955 -0.457993
v -0.112848 -0.406032 -0.457993
v -0.126128 -0.40507 -0.457993
v -0.126128 -0.410036 -0.46905
v -0.128042 -0.41044 -0.470965
v -0.305144 -0.215215 -0.414102
v -0.305144 -0.215023 -0.412925
v -0.111597 -0.357197 -0.412925
v -0.192494 -0.381451 -0.441414
v -0.192494 -0.37481 -0.43509
v -0.192494 -0.367784 -0.428454
v -0.201323 -0.359334 -0.423971
v -0.233985 -0.325821 -0.412925
v -0.192494 -0.361163 -0.422334
v -0.205756 -0.352558 -0.420391
v -0.192494 -0.351788 -0.416886
v -0.192494 -0.344088 -0.412925
v -0.272899 -0.299026 -0.412925
v -0.298684 -0.285436 -0.415846
v -0.305144 -0.291942 -0.42188
v -0.165952 -0.400777 -0.459385
v -0.165952 -0.39737 -0.452743
v -0.179233 -0.389863 -0.446465
v -0.179233 -0.383203 -0.439834
v -0.179233 -0.376562 -0.433283
v -0.179233 -0.369767 -0.426647
v -0.111597 -0.405474 -0.457203
v -0.112848 -0.400412 -0.44913
v -0.126128 -0.39993 -0.449607
v -0.148257 -0.398506 -0.451067
v -0.157104 -0.397967 -0.451794
v -0.305144 -0.266033 -0.412925
v -0.112848 -0.357216 -0.412925
v -0.112848 -0.36507 -0.417158
v -0.111597 -0.364281 -0.416749
v -0.179233 -0.363145 -0.420607
v -0.179233 -0.351788 -0.414664
v -0.152671 -0.355792 -0.412925
v -0.286653 -0.286129 -0.412925
v -0.293057 -0.279796 -0.412925
v -0.299366 -0.273175 -0.412925
v -0.305144 -0.272655 -0.414778
v -0.305144 -0.284974 -0.418812
v -0.126128 -0.393366 -0.442971
v -0.165952 -0.384108 -0.438959
v -0.165952 -0.370826 -0.425687
v -0.111597 -0.400373 -0.449164
v -0.112848 -0.393848 -0.442493
v -0.139409 -0.356966 -0.412925
v -0.111597 -0.36507 -0.417198
v -0.112848 -0.373925 -0.422584
v -0.139409 -0.372577 -0.423937
v -0.126128 -0.373443 -0.423067
v -0.165952 -0.364185 -0.419914
v -0.152538 -0.35583 -0.412925
v -0.111597 -0.393809 -0.442527
v -0.111597 -0.379911 -0.428636
v -0.111597 -0.373097 -0.422119
v -0.111597 -0.373886 -0.422624
f 1 2 3
f 1 3 4
f 1 4 5
f 1 5 14
f 1 14 25
f 1 25 42
f 1 42 65
f 1 65 73
f 1 73 72
f 1 72 88
f 1 88 114
f 1 114 137
f 1 137 136
f 1 136 126
f 1 126 101
f 1 101 100
f 1 100 69
f 1 69 45
f 1 45 28
f 1 28 26
f 1 26 15
f 1 15 6
f 1 6 16
f 1 16 27
f 1 27 44
f 1 44 68
f 1 68 99
f 1 99 91
f 1 91 90
f 1 90 89
f 1 89 60
f 1 60 38
f 1 38 37
f 1 37 20
f 1 20 19
f 1 19 18
f 1 18 11
f 1 11 7
f 1 7 2
f 2 7 3
f 3 8 9
f 3 9 10
f 3 10 4
f 3 7 11
f 3 11 12
f 3 12 8
f 4 10 13
f 4 13 14
f 4 14 5
f 6 15 16
f 8 17 9
f 8 12 17
f 9 17 13
f 9 13 10
f 11 18 12
f 12 19 20
f 12 20 21
f 12 21 22
f 12 22 23
f 12 23 17
f 12 18 19
f 13 17 24
f 13 24 25
f 13 25 14
f 15 26 16
f 16 26 28
f 16 28 29
f 16 29 46
f 16 46 70
f 16 70 102
f 16 102 129
f 16 129 144
f 16 144 152
f 16 152 153
f 16 153 151
f 16 151 150
f 16 150 141
f 16 141 121
f 16 121 95
f 16 95 67
f 16 67 43
f 16 43 27
f 17 30 31
f 17 31 32
f 17 32 24
f 17 23 33
f 17 33 34
f 17 34 35
f 17 35 36
f 17 36 30
f 20 37 21
f 21 37 38
f 21 38 39
f 21 39 40
f 21 40 22
f 22 40 33
f 22 33 23
f 24 41 42
f 24 42 25
f 24 32 41
f 27 43 44
f 28 45 46
f 28 46 29
f 30 32 31
f 30 36 47
f 30 47 48
f 30 48 32
f 32 48 49
f 32 49 41
f 33 40 50
f 33 50 51
f 33 51 52
f 33 52 34
f 34 53 54
f 34 54 35
f 34 52 55
f 34 55 53
f 35 54 36
f 36 56 57
f 36 57 58
f 36 58 59
f 36 59 47
f 36 54 56
f 38 60 39
f 39 60 61
f 39 61 62
f 39 62 63
f 39 63 64
f 39 64 40
f 40 64 51
f 40 51 50
f 41 49 42
f 42 49 48
f 42 48 65
f 43 66 44
f 43 67 66
f 44 66 68
f 45 69 46
f 46 69 70
f 47 59 48
f 48 59 71
f 48 71 72
f 48 72 73
f 48 73 65
f 51 64 63
f 51 63 74
f 51 74 52
f 52 74 77
f 52 77 55
f 53 55 75
f 53 75 76
f 53 76 54
f 54 76 56
f 55 77 75
f 56 78 57
f 56 76 79
f 56 79 80
f 56 80 81
f 56 81 82
f 56 82 78
f 57 78 83
f 57 83 84
f 57 84 85
f 57 85 86
f 57 86 58
f 58 86 59
f 59 87 88
f 59 88 71
f 59 86 87
f 60 89 61
f 61 89 90
f 61 90 62
f 62 90 91
f 62 91 92
f 62 92 93
f 62 93 63
f 63 93 94
f 63 94 74
f 66 67 95
f 66 95 96
f 66 96 97
f 66 97 98
f 66 98 68
f 68 98 99
f 69 100 70
f 70 100 101
f 70 101 126
f 70 126 135
f 70 135 134
f 70 134 133
f 70 133 112
f 70 112 84
f 70 84 83
f 70 83 107
f 70 107 82
f 70 82 111
f 70 111 132
f 70 132 149
f 70 149 143
f 70 143 127
f 70 127 102
f 71 88 72
f 74 94 103
f 74 103 104
f 74 104 105
f 74 105 77
f 75 77 106
f 75 106 76
f 76 106 79
f 77 105 106
f 78 107 83
f 78 82 107
f 79 106 108
f 79 108 80
f 80 109 110
f 80 110 82
f 80 82 81
f 80 108 109
f 82 110 111
f 84 112 113
f 84 113 85
f 85 113 87
f 85 87 86
f 87 113 88
f 88 113 114
f 91 99 98
f 91 98 92
f 92 98 97
f 92 97 115
f 92 115 116
f 92 116 93
f 93 116 117
f 93 117 94
f 94 117 118
f 94 118 119
f 94 119 120
f 94 120 103
f 95 121 96
f 96 121 122
f 96 122 123
f 96 123 97
f 97 123 124
f 97 124 125
f 97 125 116
f 97 116 115
f 102 127 128
f 102 128 129
f 103 120 104
f 104 120 105
f 105 120 108
f 105 108 106
f 108 120 130
f 108 130 110
f 108 110 109
f 110 131 111
f 110 130 131
f 111 131 132
f 112 133 113
f 113 133 134
f 113 134 135
f 113 135 126
f 113 126 136
f 113 136 137
f 113 137 114
f 116 125 117
f 117 125 124
f 117 124 138
f 117 138 139
f 117 139 140
f 117 140 118
f 118 140 119
f 119 140 120
f 120 140 130
f 121 141 122
f 122 141 150
f 122 150 142
f 122 142 138
f 122 138 123
f 123 138 124
f 127 143 128
f 128 144 129
f 128 143 145
f 128 145 144
f 130 140 146
f 130 146 147
f 130 147 148
f 130 148 149
f 130 149 131
f 131 149 132
f 138 142 145
f 138 145 147
f 138 147 146
f 138 146 139
f 139 146 140
f 142 150 151
f 142 151 145
f 143 149 145
f 144 145 152
f 145 151 153
f 145 153 152
f 145 149 147
f 147 149 148
