v -0.0415362 0.364007 0.122778
v -0.0680873 0.364007 0.122778
v 0.0115661 0.363985 0.122778
v 0.0464372 0.33035 0.0815068
v -0.258855 0.33035 0.0815068
v -0.232304 0.363985 0.122778
v 0.019386 0.363498 0.122778
v 0.0198861 0.359831 0.117782
v 0.0464372 0.335585 0.0881444
v 0.0597128 0.334546 0.0897545
v 0.0597128 0.328336 0.0831169
v 0.0464372 0.323716 0.0749864
v -0.258855 0.323716 0.0749864
v -0.272131 0.330265 0.0815068
v -0.24558 0.359831 0.117782
v -0.245034 0.363392 0.122778
v 0.0262056 0.362926 0.122778
v 0.0464372 0.34739 0.103264
v 0.0464372 0.342219 0.0966268
v 0.0553027 0.346458 0.104304
v 0.0674872 0.332957 0.0918818
v 0.0597128 0.321703 0.0768684
v 0.0597128 0.311953 0.0719688
v 0.0464372 0.311953 0.0698469
v -0.258855 0.311953 0.0698469
v -0.272131 0.311953 0.0699749
v -0.272131 0.323631 0.0751144
v -0.285407 0.327934 0.0834154
v -0.285407 0.33425 0.0900531
v -0.272131 0.335585 0.0881444
v -0.272131 0.342219 0.0967547
v -0.272131 0.347242 0.103392
v -0.256037 0.359365 0.118347
v -0.258083 0.360128 0.122778
v 0.0364805 0.360276 0.122778
v 0.0400267 0.35856 0.119253
v 0.0331616 0.359217 0.118459
v 0.0567121 0.347411 0.11284
v 0.0633499 0.343045 0.11284
v 0.0694876 0.334843 0.0995644
v 0.0761254 0.328379 0.0995644
v 0.0807627 0.319732 0.0918818
v 0.0717153 0.323949 0.0874567
v 0.067078 0.319329 0.0790543
v 0.072079 0.311063 0.077071
v 0.0729883 0.298686 0.0732111
v 0.0597128 0.298686 0.0696123
v 0.0464372 0.298686 0.0693778
v -0.272131 0.298686 0.0693778
v -0.285407 0.298686 0.0697296
v -0.285407 0.311953 0.0724753
v -0.285407 0.321279 0.077263
v -0.292726 0.332554 0.0922816
v -0.280587 0.346267 0.104475
v -0.264857 0.358284 0.12233
v -0.264311 0.35856 0.122778
v 0.0402086 0.358666 0.122778
v 0.0494378 0.35271 0.122778
v 0.0571213 0.347729 0.122778
v 0.0637591 0.343279 0.122778
v 0.0713062 0.336412 0.11284
v 0.0779439 0.33018 0.11284
v 0.0827632 0.321745 0.0995644
v 0.0802172 0.306061 0.079065
v 0.0759435 0.314899 0.0830316
v 0.0900829 0.31225 0.0982848
v 0.0928562 0.304832 0.0930174
v 0.0833087 0.311063 0.0869928
v 0.0810355 0.298686 0.0781107
v 0.0818084 0.285418 0.0771936
v 0.0729883 0.285418 0.0720541
v 0.0597128 0.285418 0.0693778
v 0.0729883 0.272129 0.0715423
v 0.0729883 0.258861 0.0710998
v 0.0729883 0.245594 0.0707693
v 0.0348893 0.147485 0.0683115
v 0.0319796 0.149159 0.0683115
v -0.0594036 0.196507 0.0683115
v -0.0597673 0.196656 0.0683115
v -0.0730429 0.19727 0.0683115
v -0.1261 0.197588 0.0683115
v -0.126327 0.197588 0.0683115
v -0.152651 0.19727 0.0683115
v -0.164972 0.196359 0.0683115
v -0.165926 0.196232 0.0683115
v -0.256946 0.148799 0.0683115
v -0.259083 0.147485 0.0683115
v -0.285407 0.285418 0.0693778
v -0.298682 0.245594 0.0712171
v -0.298682 0.258861 0.0716809
v -0.298682 0.272129 0.0722034
v -0.298682 0.285418 0.0727526
v -0.298682 0.298686 0.0739575
v -0.305502 0.305595 0.0794275
v -0.2975 0.310809 0.0775988
v -0.292317 0.318884 0.0794115
v -0.296954 0.323525 0.0878565
v -0.306002 0.319308 0.0922816
v -0.301183 0.327722 0.0995644
v -0.294545 0.334271 0.0995644
v -0.288407 0.342516 0.11284
v -0.281769 0.347051 0.11284
v -0.264902 0.358305 0.122778
v 0.0657595 0.341604 0.122778
v 0.071488 0.336645 0.122778
v 0.0781258 0.330435 0.122778
v 0.0851273 0.323801 0.122778
v 0.0900829 0.319053 0.122778
v 0.0845817 0.323547 0.11284
v 0.0912195 0.316574 0.11284
v 0.0944475 0.308011 0.101862
v 0.0884462 0.285418 0.0853774
v 0.0990848 0.298686 0.11284
v 0.0951294 0.299724 0.0982848
v 0.117089 0.205769 0.122778
v 0.119089 0.192502 0.122778
v 0.119544 0.18928 0.122778
v 0.107541 0.205769 0.101836
v 0.108087 0.192502 0.100775
v 0.0889918 0.272129 0.0847163
v 0.089901 0.245594 0.0834048
v 0.082354 0.272129 0.0766818
v 0.0828086 0.258861 0.0762393
v 0.0832633 0.245594 0.0759088
v 0.0597128 0.245594 0.0693778
v 0.0833542 0.232326 0.0763939
v 0.0729883 0.232326 0.072406
v 0.100903 0.192502 0.0941423
v 0.118589 0.147485 0.122778
v -0.342419 0.147485 0.122778
v -0.319187 0.185762 0.0928681
v -0.308548 0.232326 0.0766339
v -0.298682 0.232326 0.0726459
v -0.285407 0.245594 0.0693778
v -0.308366 0.245594 0.0763513
v -0.307866 0.258861 0.0768205
v -0.307366 0.272129 0.0773429
v -0.306866 0.285418 0.0778921
v -0.306093 0.298686 0.0787451
v -0.301183 0.314454 0.0834314
v -0.312276 0.298686 0.0862944
v -0.318095 0.298686 0.0940144
v -0.30823 0.310809 0.0872328
v -0.314958 0.311847 0.0989193
v -0.30782 0.321088 0.0995644
v -0.302956 0.329523 0.11284
v -0.296318 0.335882 0.11284
v -0.288771 0.342833 0.122778
v -0.283815 0.346203 0.122778
v -0.282133 0.347327 0.122778
v 0.0917651 0.317294 0.122778
v 0.0965388 0.31066 0.122778
v 0.0957205 0.309919 0.11284
v 0.0998577 0.301504 0.122778
v 0.100676 0.298686 0.122778
v 0.120044 0.174444 0.122778
v 0.107587 0.184172 0.102294
v -0.344419 0.179234 0.122778
v -0.333099 0.192502 0.102219
v -0.332871 0.184617 0.103099
v -0.325961 0.192502 0.0955818
v -0.315004 0.245594 0.0842472
v -0.314504 0.258861 0.0849029
v -0.314004 0.272129 0.085564
v -0.314413 0.285693 0.0874567
v -0.318459 0.290314 0.093236
v -0.343646 0.192502 0.122404
v -0.343828 0.192502 0.122778
v -0.32046 0.298686 0.100647
v -0.319687 0.307354 0.102918
v -0.316231 0.315662 0.11284
v -0.309594 0.32289 0.11284
v -0.310139 0.323207 0.122778
v -0.308457 0.324861 0.122778
v -0.296591 0.3362 0.122778
v -0.318777 0.281476 0.0926602
v -0.325097 0.298686 0.122778
v -0.32346 0.298686 0.11284
v -0.320778 0.309028 0.11284
v -0.316777 0.31651 0.122778
v -0.321596 0.309876 0.122778
v -0.320414 0.311551 0.122778
f 1 2 6
f 1 6 16
f 1 16 34
f 1 34 56
f 1 56 103
f 1 103 150
f 1 150 149
f 1 149 148
f 1 148 175
f 1 175 174
f 1 174 173
f 1 173 180
f 1 180 182
f 1 182 181
f 1 181 177
f 1 177 168
f 1 168 158
f 1 158 130
f 1 130 129
f 1 129 156
f 1 156 117
f 1 117 116
f 1 116 115
f 1 115 155
f 1 155 154
f 1 154 152
f 1 152 151
f 1 151 108
f 1 108 107
f 1 107 106
f 1 106 105
f 1 105 104
f 1 104 60
f 1 60 59
f 1 59 58
f 1 58 57
f 1 57 35
f 1 35 17
f 1 17 7
f 1 7 3
f 1 3 4
f 1 4 5
f 1 5 2
f 2 5 6
f 3 7 8
f 3 8 4
f 4 8 9
f 4 9 10
f 4 10 11
f 4 11 12
f 4 12 13
f 4 13 5
f 5 13 14
f 5 14 6
f 6 14 15
f 6 15 16
f 7 17 18
f 7 18 8
f 8 18 19
f 8 19 9
f 9 19 10
f 10 19 18
f 10 18 20
f 10 20 21
f 10 21 11
f 11 21 22
f 11 22 12
f 12 22 23
f 12 23 24
f 12 24 25
f 12 25 13
f 13 25 26
f 13 26 27
f 13 27 14
f 14 27 28
f 14 28 29
f 14 29 30
f 14 30 15
f 15 30 31
f 15 31 32
f 15 32 33
f 15 33 16
f 16 33 34
f 17 35 36
f 17 36 37
f 17 37 18
f 18 37 36
f 18 36 20
f 20 38 39
f 20 39 40
f 20 40 21
f 20 36 38
f 21 40 41
f 21 41 42
f 21 42 43
f 21 43 44
f 21 44 22
f 22 44 45
f 22 45 23
f 23 45 46
f 23 46 47
f 23 47 24
f 24 47 48
f 24 48 49
f 24 49 25
f 25 49 26
f 26 49 50
f 26 50 51
f 26 51 27
f 27 51 52
f 27 52 28
f 28 52 53
f 28 53 29
f 29 54 31
f 29 31 30
f 29 53 54
f 31 54 32
f 32 54 33
f 33 54 55
f 33 55 56
f 33 56 34
f 35 57 36
f 36 57 38
f 38 57 58
f 38 58 59
f 38 59 39
f 39 60 61
f 39 61 40
f 39 59 60
f 40 61 62
f 40 62 41
f 41 62 109
f 41 109 63
f 41 63 42
f 42 64 65
f 42 65 43
f 42 63 66
f 42 66 67
f 42 67 68
f 42 68 64
f 43 65 44
f 44 65 64
f 44 64 45
f 45 64 46
f 46 64 69
f 46 69 70
f 46 70 71
f 46 71 47
f 47 72 48
f 47 71 73
f 47 73 74
f 47 74 75
f 47 75 72
f 48 72 76
f 48 76 77
f 48 77 78
f 48 78 79
f 48 79 80
f 48 80 81
f 48 81 82
f 48 82 49
f 49 82 83
f 49 83 84
f 49 84 85
f 49 85 86
f 49 86 87
f 49 87 88
f 49 88 50
f 50 88 89
f 50 89 90
f 50 90 91
f 50 91 92
f 50 92 93
f 50 93 51
f 51 93 94
f 51 94 95
f 51 95 52
f 52 95 96
f 52 96 53
f 53 96 97
f 53 97 98
f 53 98 99
f 53 99 100
f 53 100 54
f 54 101 102
f 54 102 55
f 54 100 101
f 55 102 103
f 55 103 56
f 60 104 61
f 61 104 105
f 61 105 106
f 61 106 62
f 62 106 107
f 62 107 108
f 62 108 109
f 63 109 110
f 63 110 66
f 64 68 67
f 64 67 69
f 66 110 111
f 66 111 67
f 67 112 70
f 67 70 69
f 67 111 113
f 67 113 114
f 67 114 115
f 67 115 116
f 67 116 117
f 67 117 118
f 67 118 119
f 67 119 112
f 70 112 120
f 70 120 121
f 70 121 122
f 70 122 71
f 71 122 123
f 71 123 124
f 71 124 73
f 72 75 125
f 72 125 76
f 73 124 74
f 74 124 75
f 75 124 126
f 75 126 127
f 75 127 76
f 75 76 125
f 76 127 126
f 76 126 128
f 76 128 129
f 76 129 130
f 76 130 87
f 76 87 86
f 76 86 85
f 76 85 84
f 76 84 83
f 76 83 82
f 76 82 81
f 76 81 80
f 76 80 79
f 76 79 78
f 76 78 77
f 87 130 131
f 87 131 132
f 87 132 133
f 87 133 89
f 87 89 134
f 87 134 88
f 88 134 89
f 89 133 132
f 89 132 135
f 89 135 90
f 90 135 91
f 91 135 92
f 92 135 136
f 92 136 137
f 92 137 138
f 92 138 93
f 93 138 139
f 93 139 94
f 94 98 140
f 94 140 96
f 94 96 95
f 94 139 141
f 94 141 142
f 94 142 143
f 94 143 98
f 96 140 97
f 97 140 98
f 98 143 144
f 98 144 145
f 98 145 99
f 99 145 172
f 99 172 146
f 99 146 100
f 100 146 147
f 100 147 101
f 101 148 102
f 101 147 148
f 102 148 149
f 102 149 150
f 102 150 103
f 108 151 109
f 109 151 110
f 110 151 152
f 110 152 153
f 110 153 111
f 111 153 113
f 112 119 120
f 113 153 154
f 113 154 155
f 113 155 115
f 113 115 114
f 117 156 119
f 117 119 118
f 119 156 129
f 119 129 157
f 119 157 128
f 119 128 126
f 119 126 124
f 119 124 121
f 119 121 120
f 121 124 123
f 121 123 122
f 128 157 129
f 130 158 159
f 130 159 160
f 130 160 131
f 131 160 161
f 131 161 132
f 132 161 159
f 132 159 135
f 135 162 136
f 135 159 162
f 136 162 137
f 137 162 138
f 138 162 163
f 138 163 164
f 138 164 165
f 138 165 141
f 138 141 139
f 141 165 166
f 141 166 142
f 142 166 159
f 142 159 167
f 142 167 168
f 142 168 169
f 142 169 170
f 142 170 143
f 143 170 144
f 144 170 171
f 144 171 145
f 145 171 172
f 146 172 173
f 146 173 174
f 146 174 147
f 147 174 175
f 147 175 148
f 152 154 153
f 158 168 167
f 158 167 159
f 159 161 160
f 159 166 176
f 159 176 164
f 159 164 163
f 159 163 162
f 164 176 165
f 165 176 166
f 168 177 178
f 168 178 170
f 168 170 169
f 170 178 177
f 170 177 179
f 170 179 171
f 171 180 172
f 171 179 181
f 171 181 182
f 171 182 180
f 172 180 173
f 177 181 179
