v -0.112845 0.247881 -0.590739
v -0.112845 0.243604 -0.577468
v -0.111565 0.243535 -0.577468
v -0.111565 0.247799 -0.590739
v -0.111565 0.24751 -0.591821
v -0.111565 0.244401 -0.601872
v -0.112845 0.244429 -0.601872
v -0.126132 0.244016 -0.601859
v -0.1394 0.243205 -0.601716
v -0.126132 0.246987 -0.590739
v -0.112845 0.240165 -0.567221
v -0.126132 0.242655 -0.577468
v -0.112845 0.237937 -0.560585
v -0.111565 0.240426 -0.568212
v -0.111565 0.243246 -0.60195
v -0.1394 0.232311 -0.603958
v -0.152668 0.232311 -0.604518
v -0.165954 0.232311 -0.604623
v -0.152668 0.242324 -0.601351
v -0.179222 0.232311 -0.603932
v -0.165954 0.241458 -0.60079
v -0.179222 0.240591 -0.599956
v -0.192509 0.239739 -0.598782
v -0.199962 0.239188 -0.597857
v -0.199962 0.239188 -0.596618
v -0.192509 0.239739 -0.594924
v -0.1394 0.245295 -0.590739
v -0.1394 0.231981 -0.550912
v -0.126132 0.233728 -0.550912
v -0.192509 0.237552 -0.588288
v -0.112845 0.221294 -0.511099
v -0.112657 0.207952 -0.471442
v -0.111565 0.234966 -0.551968
v -0.126132 0.207003 -0.471442
v -0.111565 0.232311 -0.602211
v -0.29869 0.179206 -0.604179
v -0.219026 0.219038 -0.604492
v -0.192509 0.232311 -0.602954
v -0.204949 0.23293 -0.601233
v -0.219026 0.229148 -0.601064
v -0.229095 0.227071 -0.599343
v -0.266339 0.212739 -0.598
v -0.204949 0.235846 -0.591612
v -0.199736 0.225902 -0.556896
v -0.266339 0.212739 -0.596371
v -0.229095 0.227071 -0.593398
v -0.139212 0.205284 -0.471442
v -0.192509 0.22945 -0.564196
v -0.112845 0.211267 -0.481284
v -0.112845 0.207952 -0.471442
v -0.111565 0.207884 -0.471442
v -0.111565 0.23161 -0.601781
v -0.303809 0.167116 -0.601246
v -0.303809 0.17933 -0.603332
v -0.285403 0.192479 -0.604049
v -0.258868 0.205765 -0.603893
v -0.245581 0.216961 -0.60152
v -0.258868 0.214266 -0.599734
v -0.285403 0.201818 -0.600282
v -0.292969 0.19981 -0.598404
v -0.215563 0.226988 -0.577468
v -0.220137 0.22945 -0.589683
v -0.21259 0.22575 -0.57061
v -0.198889 0.212354 -0.517878
v -0.188764 0.199851 -0.475744
v -0.179222 0.200002 -0.471442
v -0.192509 0.226438 -0.555266
v -0.292969 0.19981 -0.595641
v -0.285629 0.202093 -0.591026
v -0.271307 0.208915 -0.591469
v -0.262519 0.211171 -0.587532
v -0.225293 0.225517 -0.584546
v -0.179222 0.213991 -0.513015
v -0.152668 0.20351 -0.471442
v -0.179222 0.200649 -0.473358
v -0.179222 0.204418 -0.484556
v -0.111565 0.182012 -0.471442
v -0.111565 0.225475 -0.597726
v -0.303809 0.160362 -0.595523
v -0.303809 0.18937 -0.600034
v -0.297919 0.19219 -0.601012
v -0.271307 0.206178 -0.601259
v -0.303809 0.189879 -0.591756
v -0.215563 0.213715 -0.540653
v -0.201994 0.200305 -0.487907
v -0.197609 0.198709 -0.479068
v -0.192998 0.197238 -0.471442
v -0.191963 0.197458 -0.471442
v -0.192773 0.197293 -0.471442
v -0.171337 0.201048 -0.471442
v -0.296676 0.189398 -0.577468
v -0.293929 0.187293 -0.567403
v -0.289412 0.183827 -0.550912
v -0.278722 0.172549 -0.504554
v -0.280228 0.186812 -0.541643
v -0.281357 0.200484 -0.580336
v -0.303809 0.189095 -0.589826
v -0.303809 0.187362 -0.585629
v -0.278195 0.198888 -0.571484
v -0.253673 0.213 -0.582435
v -0.232539 0.210222 -0.550456
v -0.111565 0.223027 -0.590739
v -0.303809 0.107381 -0.471442
v -0.111565 0.2252 -0.596996
v -0.246127 0.176097 -0.471442
v -0.205777 0.192795 -0.471442
v -0.205608 0.192864 -0.471442
v -0.208638 0.191612 -0.471442
v -0.294437 0.174419 -0.537654
v -0.285516 0.169564 -0.509821
v -0.303809 0.18468 -0.579228
v -0.303809 0.175919 -0.55833
v -0.284895 0.153912 -0.471442
v -0.279645 0.159977 -0.476317
v -0.272757 0.162866 -0.471442
v -0.272455 0.163072 -0.471442
v -0.277254 0.185093 -0.532805
v -0.263742 0.17182 -0.479928
v -0.259131 0.175396 -0.484439
v -0.261653 0.197527 -0.548696
v -0.258397 0.209369 -0.577794
v -0.303809 0.139401 -0.471442
v -0.247651 0.175465 -0.471442
v -0.297166 0.144504 -0.471442
v -0.303809 0.158148 -0.51604
v -0.25947 0.170472 -0.471442
v -0.267035 0.173457 -0.48878
v -0.258435 0.170926 -0.471442
v -0.254897 0.17369 -0.474857
v -0.303809 0.145288 -0.485443
f 1 2 3
f 1 3 4
f 1 4 5
f 1 5 6
f 1 6 7
f 1 7 8
f 1 8 9
f 1 9 10
f 1 10 2
f 2 11 3
f 2 10 12
f 2 12 11
f 3 11 13
f 3 13 14
f 3 14 33
f 3 33 51
f 3 51 77
f 3 77 102
f 3 102 104
f 3 104 78
f 3 78 52
f 3 52 35
f 3 35 15
f 3 15 6
f 3 6 5
f 3 5 4
f 6 15 16
f 6 16 17
f 6 17 18
f 6 18 7
f 7 18 8
f 8 18 9
f 9 19 10
f 9 18 20
f 9 20 19
f 10 19 21
f 10 21 22
f 10 22 23
f 10 23 24
f 10 24 25
f 10 25 26
f 10 26 27
f 10 27 12
f 11 12 13
f 12 28 29
f 12 29 13
f 12 27 26
f 12 26 30
f 12 30 28
f 13 31 32
f 13 32 33
f 13 33 14
f 13 29 34
f 13 34 31
f 15 35 16
f 16 35 36
f 16 36 17
f 17 36 18
f 18 37 20
f 18 36 37
f 19 20 21
f 20 38 21
f 20 37 38
f 21 38 22
f 22 38 39
f 22 39 23
f 23 39 24
f 24 39 40
f 24 40 41
f 24 41 42
f 24 42 45
f 24 45 25
f 25 43 44
f 25 44 30
f 25 30 26
f 25 45 46
f 25 46 43
f 28 47 29
f 28 30 47
f 29 47 34
f 30 44 48
f 30 48 47
f 31 49 32
f 31 34 49
f 32 49 50
f 32 50 34
f 32 34 47
f 32 47 74
f 32 74 90
f 32 90 66
f 32 66 88
f 32 88 89
f 32 89 87
f 32 87 107
f 32 107 106
f 32 106 108
f 32 108 105
f 32 105 123
f 32 123 128
f 32 128 126
f 32 126 116
f 32 116 115
f 32 115 113
f 32 113 124
f 32 124 122
f 32 122 103
f 32 103 77
f 32 77 51
f 32 51 33
f 34 50 49
f 35 52 53
f 35 53 36
f 36 53 54
f 36 54 55
f 36 55 37
f 37 40 38
f 37 55 56
f 37 56 40
f 38 40 39
f 40 56 57
f 40 57 58
f 40 58 41
f 41 58 42
f 42 58 59
f 42 59 60
f 42 60 68
f 42 68 45
f 43 61 44
f 43 46 62
f 43 62 61
f 44 61 63
f 44 63 64
f 44 64 65
f 44 65 66
f 44 66 67
f 44 67 48
f 45 68 69
f 45 69 70
f 45 70 71
f 45 71 72
f 45 72 46
f 46 72 62
f 47 48 73
f 47 73 74
f 48 67 75
f 48 75 76
f 48 76 73
f 52 78 53
f 53 79 103
f 53 103 122
f 53 122 130
f 53 130 125
f 53 125 112
f 53 112 111
f 53 111 98
f 53 98 97
f 53 97 83
f 53 83 80
f 53 80 54
f 53 78 79
f 54 80 81
f 54 81 55
f 55 81 59
f 55 59 56
f 56 59 82
f 56 82 57
f 57 82 59
f 57 59 58
f 59 81 60
f 60 81 80
f 60 80 83
f 60 83 68
f 61 62 72
f 61 72 63
f 63 72 84
f 63 84 85
f 63 85 64
f 64 85 86
f 64 86 87
f 64 87 65
f 65 88 66
f 65 87 89
f 65 89 88
f 66 75 67
f 66 90 75
f 68 91 92
f 68 92 93
f 68 93 94
f 68 94 95
f 68 95 96
f 68 96 69
f 68 83 97
f 68 97 98
f 68 98 91
f 69 96 70
f 70 96 99
f 70 99 71
f 71 100 72
f 71 99 100
f 72 100 101
f 72 101 84
f 73 76 90
f 73 90 74
f 75 90 76
f 77 103 102
f 78 104 103
f 78 103 79
f 84 101 105
f 84 105 85
f 85 106 107
f 85 107 86
f 85 105 108
f 85 108 106
f 86 107 87
f 91 98 92
f 92 109 110
f 92 110 93
f 92 98 111
f 92 111 112
f 92 112 109
f 93 110 94
f 94 110 113
f 94 113 114
f 94 114 115
f 94 115 116
f 94 116 95
f 95 116 117
f 95 117 99
f 95 99 96
f 99 117 118
f 99 118 119
f 99 119 120
f 99 120 121
f 99 121 100
f 100 121 120
f 100 120 105
f 100 105 101
f 102 103 104
f 105 120 119
f 105 119 123
f 109 124 110
f 109 112 124
f 110 124 113
f 112 125 124
f 113 115 114
f 116 126 118
f 116 118 127
f 116 127 117
f 117 127 118
f 118 126 128
f 118 128 129
f 118 129 119
f 119 129 123
f 122 124 130
f 123 129 128
f 124 125 130
