v 0.125723 0.0910078 -0.466746
v 0.122859 0.0910078 -0.460598
v 0.133147 0.0801784 -0.463822
v 0.13379 0.0809911 -0.466746
v 0.103685 0.0910078 -0.466746
v 0.145949 0.0530011 -0.451426
v 0.118202 0.0910078 -0.453317
v 0.148697 0.0567054 -0.460276
v 0.145403 0.0655692 -0.466108
v 0.14554 0.0657393 -0.466746
v 0.0935132 0.0909889 -0.466746
v 0.0934742 0.0910078 -0.466725
v 0.121456 0.0822385 -0.449756
v 0.111031 0.0910078 -0.446774
v 0.125976 0.0724297 -0.447343
v 0.126736 0.0609577 -0.440894
v 0.120579 0.0412834 -0.42391
v 0.134667 0.0427198 -0.436311
v 0.148268 0.0441372 -0.449245
v 0.158966 0.0257481 -0.451815
v 0.157426 0.0331756 -0.454539
v 0.152905 0.0467454 -0.457711
v 0.117968 0.0910078 -0.453059
v 0.150743 0.0581795 -0.466746
v 0.156647 0.0488243 -0.466746
v 0.146163 0.0648888 -0.466746
v 0.0144794 0.0910078 -0.433529
v 0.168884 -0.102069 -0.466746
v 0.104717 0.0910078 -0.441732
v 0.0927338 0.0793657 -0.424979
v 0.108342 0.0558927 -0.423093
v 0.112804 0.0460083 -0.421165
v 0.122898 0.0331756 -0.421924
v 0.129542 0.0331756 -0.427476
v 0.137025 0.0331756 -0.434114
v 0.14365 0.0331756 -0.440273
v 0.150782 0.0331756 -0.446911
v 0.160758 0.0169032 -0.449951
v 0.173268 -0.0114648 -0.450662
v 0.171475 -0.00263878 -0.453017
v 0.173911 0.00325783 -0.461867
v 0.161089 0.0331756 -0.461177
v 0.15957 0.0404897 -0.46399
v 0.159901 0.042115 -0.466746
v 0.00573034 0.0910078 -0.428556
v 0.195657 -0.102069 -0.466746
v 0.121027 -0.102069 -0.438055
v 0.0968647 0.0910078 -0.4355
v 0.0961243 0.0705208 -0.42235
v 0.0925194 0.0910078 -0.432065
v 0.0899278 0.0862829 -0.427102
v 0.0832832 0.0862829 -0.422176
v 0.100138 0.0600883 -0.420159
v 0.0857579 0.0602962 -0.412925
v 0.112823 0.0331756 -0.41646
v 0.126853 0.0198137 -0.420438
v 0.135407 0.00662193 -0.422392
v 0.133595 0.0153346 -0.42401
v 0.131764 0.0241984 -0.425717
v 0.11333 0.0205697 -0.412925
v 0.16561 -0.00742033 -0.44503
v 0.174827 -0.0199128 -0.449092
v 0.181608 -0.0208956 -0.459065
v 0.161265 -0.0199128 -0.436211
v 0.167909 -0.0199128 -0.442454
v 0.175704 -0.00687225 -0.457663
v 0.18416 -0.0176827 -0.466746
v 0.172079 0.0121028 -0.465971
v 0.172235 0.0124429 -0.466746
v 0.00473657 0.0910078 -0.427524
v 0.195774 -0.0995549 -0.466746
v 0.191818 -0.102069 -0.457995
v 0.115668 -0.102069 -0.431422
v 0.0874921 0.0741684 -0.419321
v 0.0813152 0.0910078 -0.423594
v 0.0777688 0.0910078 -0.42186
v 0.0730143 0.0862829 -0.417182
v 0.0733066 0.0737715 -0.412925
v 0.113155 0.0208532 -0.412925
v 0.139382 -0.0199128 -0.41812
v 0.139675 -0.00781722 -0.421255
v 0.113486 0.0202484 -0.412925
v 0.147547 -0.0199128 -0.423399
v 0.146124 -0.0130335 -0.424721
v 0.144293 -0.00418854 -0.426428
v 0.159725 -0.0122397 -0.437691
v 0.176483 -0.0331802 -0.447432
v 0.183128 -0.0331802 -0.456351
v 0.156296 -0.0331802 -0.427692
v 0.163135 -0.0331802 -0.43433
v 0.16978 -0.0331802 -0.440794
v 0.186012 -0.0259796 -0.464201
v 0.154172 -0.0199128 -0.429578
v 0.149651 -0.0331802 -0.421413
v 0.186382 -0.0243164 -0.466746
v 0.00208653 0.0910078 -0.422803
v 0.194507 -0.0866844 -0.466746
v 0.190766 -0.0862876 -0.457995
v 0.191916 -0.0995549 -0.457995
v 0.19098 -0.102069 -0.456536
v 0.111713 -0.102069 -0.418173
v -0.00329152 0.0910078 -0.412925
v 0.0730143 0.0910078 -0.419563
v 0.0605824 0.0910078 -0.415143
v 0.0599394 0.0869822 -0.412925
v 0.060563 0.0864719 -0.412925
v 0.124983 -0.00876219 -0.412925
v 0.129289 -0.0199128 -0.412925
v 0.139382 -0.0331802 -0.415797
v 0.157446 -0.0464476 -0.426649
v 0.170735 -0.0464476 -0.43992
v 0.179153 -0.0734549 -0.444777
v 0.186051 -0.0778962 -0.451125
v 0.185485 -0.0690324 -0.451889
v 0.184881 -0.0597339 -0.452895
v 0.184005 -0.0464476 -0.454492
v 0.186538 -0.0331802 -0.462989
v 0.187863 -0.0331802 -0.466746
v 0.143202 -0.0731903 -0.412925
v 0.150821 -0.0464476 -0.420422
v 0.189519 -0.0464476 -0.466746
v 0.187415 -0.0464476 -0.46113
v 0.188291 -0.0597339 -0.459533
v 0.186577 -0.0862876 -0.450572
v 0.187142 -0.0995549 -0.449982
v 0.187083 -0.102069 -0.450035
v 0.110154 -0.102069 -0.412925
v 0.0539768 0.0910078 -0.412925
v 0.158946 -0.0690324 -0.425164
v 0.159531 -0.0778962 -0.424579
v 0.179991 -0.0862876 -0.443934
v 0.166721 -0.0862876 -0.430664
v 0.144546 -0.0862876 -0.412925
v 0.151697 -0.0597339 -0.419953
v 0.160076 -0.0862876 -0.424031
v 0.180575 -0.0995549 -0.443344
v 0.180536 -0.102069 -0.443397
v 0.185856 -0.102069 -0.448781
v 0.144468 -0.102069 -0.412925
v 0.17395 -0.0995549 -0.436711
v 0.160661 -0.0995549 -0.423436
v 0.151132 -0.102069 -0.417098
v 0.152652 -0.0995549 -0.418067
v 0.160622 -0.102069 -0.423488
v 0.15916 -0.102069 -0.422482
f 1 2 3
f 1 3 4
f 1 4 10
f 1 10 26
f 1 26 24
f 1 24 25
f 1 25 44
f 1 44 69
f 1 69 67
f 1 67 95
f 1 95 118
f 1 118 121
f 1 121 97
f 1 97 71
f 1 71 46
f 1 46 28
f 1 28 11
f 1 11 5
f 1 5 12
f 1 12 27
f 1 27 45
f 1 45 70
f 1 70 96
f 1 96 102
f 1 102 128
f 1 128 104
f 1 104 103
f 1 103 76
f 1 76 75
f 1 75 50
f 1 50 48
f 1 48 29
f 1 29 14
f 1 14 23
f 1 23 7
f 1 7 2
f 2 6 3
f 2 7 6
f 3 6 8
f 3 8 9
f 3 9 4
f 4 9 10
f 5 11 12
f 6 13 14
f 6 14 15
f 6 15 16
f 6 16 17
f 6 17 18
f 6 18 19
f 6 19 20
f 6 20 21
f 6 21 22
f 6 22 8
f 6 7 23
f 6 23 13
f 8 24 9
f 8 22 25
f 8 25 24
f 9 24 26
f 9 26 10
f 11 27 12
f 11 28 27
f 13 23 14
f 14 29 30
f 14 30 16
f 14 16 15
f 16 30 17
f 17 30 31
f 17 31 32
f 17 32 33
f 17 33 18
f 18 33 34
f 18 34 35
f 18 35 19
f 19 35 36
f 19 36 37
f 19 37 20
f 20 38 39
f 20 39 40
f 20 40 21
f 20 37 38
f 21 40 41
f 21 41 42
f 21 42 43
f 21 43 22
f 22 43 25
f 25 43 44
f 27 28 45
f 28 46 72
f 28 72 100
f 28 100 126
f 28 126 138
f 28 138 137
f 28 137 144
f 28 144 145
f 28 145 142
f 28 142 139
f 28 139 127
f 28 127 101
f 28 101 73
f 28 73 47
f 28 47 45
f 29 48 30
f 30 49 31
f 30 48 50
f 30 50 51
f 30 51 52
f 30 52 49
f 31 49 32
f 32 49 53
f 32 53 54
f 32 54 55
f 32 55 33
f 33 56 57
f 33 57 58
f 33 58 59
f 33 59 34
f 33 55 60
f 33 60 56
f 34 59 35
f 35 59 36
f 36 59 37
f 37 59 61
f 37 61 38
f 38 61 39
f 39 62 63
f 39 63 40
f 39 61 64
f 39 64 65
f 39 65 62
f 40 63 66
f 40 66 41
f 41 66 67
f 41 67 68
f 41 68 43
f 41 43 42
f 43 68 69
f 43 69 44
f 45 47 70
f 46 71 72
f 47 73 70
f 49 52 74
f 49 74 53
f 50 75 51
f 51 75 52
f 52 75 76
f 52 76 77
f 52 77 74
f 53 74 54
f 54 74 77
f 54 77 78
f 54 78 106
f 54 106 105
f 54 105 128
f 54 128 102
f 54 102 127
f 54 127 139
f 54 139 133
f 54 133 119
f 54 119 108
f 54 108 107
f 54 107 82
f 54 82 60
f 54 60 79
f 54 79 55
f 55 79 60
f 56 80 81
f 56 81 57
f 56 60 82
f 56 82 80
f 57 81 83
f 57 83 58
f 58 83 84
f 58 84 59
f 59 84 85
f 59 85 61
f 61 86 64
f 61 85 84
f 61 84 86
f 62 87 88
f 62 88 63
f 62 65 89
f 62 89 90
f 62 90 91
f 62 91 87
f 63 88 92
f 63 92 66
f 64 86 93
f 64 93 94
f 64 94 65
f 65 94 89
f 66 92 67
f 67 92 95
f 67 69 68
f 70 73 96
f 71 97 98
f 71 98 99
f 71 99 72
f 72 99 100
f 73 101 102
f 73 102 96
f 76 103 77
f 77 103 104
f 77 104 105
f 77 105 106
f 77 106 78
f 80 107 108
f 80 108 109
f 80 109 94
f 80 94 81
f 80 82 107
f 81 94 83
f 83 94 93
f 83 93 86
f 83 86 84
f 87 91 110
f 87 110 111
f 87 111 112
f 87 112 113
f 87 113 114
f 87 114 115
f 87 115 116
f 87 116 88
f 88 116 122
f 88 122 117
f 88 117 92
f 89 110 90
f 89 94 110
f 90 110 91
f 92 117 118
f 92 118 95
f 94 109 119
f 94 119 120
f 94 120 110
f 97 121 117
f 97 117 122
f 97 122 98
f 98 122 123
f 98 123 115
f 98 115 114
f 98 114 113
f 98 113 124
f 98 124 99
f 99 124 125
f 99 125 100
f 100 125 126
f 101 127 102
f 104 128 105
f 108 119 109
f 110 129 111
f 110 120 129
f 111 129 130
f 111 130 112
f 112 131 113
f 112 130 132
f 112 132 131
f 113 131 124
f 115 123 122
f 115 122 116
f 117 121 118
f 119 133 134
f 119 134 120
f 120 134 135
f 120 135 130
f 120 130 129
f 124 131 136
f 124 136 125
f 125 136 137
f 125 137 138
f 125 138 126
f 130 135 132
f 131 140 136
f 131 132 140
f 132 135 141
f 132 141 140
f 133 139 142
f 133 142 143
f 133 143 141
f 133 141 134
f 134 141 135
f 136 140 137
f 137 140 144
f 140 141 144
f 141 145 144
f 141 143 142
f 141 142 145
