v -0.31541 -0.718924 -0.476209
v -0.313886 -0.750604 -0.475522
v -0.328057 -0.735543 -0.475444
v -0.327904 -0.719381 -0.475365
v -0.315105 -0.715675 -0.475699
v 0.0559171 -0.753862 -0.473834
v 0.0559171 -0.761776 -0.473834
v -0.31522 -0.761776 -0.473834
v -0.327371 -0.751706 -0.474678
v -0.332971 -0.735543 -0.460721
v -0.327409 -0.715675 -0.474678
v -0.332628 -0.719381 -0.460721
v -0.305049 -0.715675 -0.474855
v 0.0559171 -0.753622 -0.473323
v 0.0559171 -0.763767 -0.460721
v -0.31522 -0.763767 -0.460721
v -0.325467 -0.761117 -0.472146
v -0.331637 -0.751706 -0.460721
v -0.333161 -0.735543 -0.444546
v -0.331409 -0.715675 -0.460721
v -0.332742 -0.719381 -0.444546
v -0.331447 -0.715675 -0.456461
v -0.286574 -0.715675 -0.460721
v 0.0559171 -0.747704 -0.460721
v 0.0559171 -0.763767 -0.275688
v -0.31522 -0.763767 -0.275688
v -0.321505 -0.762666 -0.275688
v -0.326571 -0.761776 -0.460721
v -0.331828 -0.751706 -0.444546
v -0.332437 -0.744474 -0.275688
v -0.333161 -0.735543 -0.275688
v -0.332742 -0.719381 -0.275688
v -0.331523 -0.715675 -0.444546
v -0.286079 -0.715675 -0.444546
v 0.0559171 -0.747478 -0.444546
v 0.0559171 -0.747694 -0.460093
v 0.0559171 -0.747478 -0.275688
v -0.326571 -0.761776 -0.275688
v -0.328933 -0.75727 -0.275688
v -0.331828 -0.751706 -0.275688
v -0.331523 -0.715675 -0.275688
v -0.286079 -0.715675 -0.275688
f 1 2 3
f 1 3 4
f 1 4 5
f 1 5 6
f 1 6 7
f 1 7 2
f 2 8 9
f 2 9 3
f 2 7 8
f 3 9 10
f 3 10 4
f 4 11 5
f 4 10 12
f 4 12 11
f 5 11 20
f 5 20 22
f 5 22 33
f 5 33 41
f 5 41 42
f 5 42 34
f 5 34 23
f 5 23 13
f 5 13 6
f 6 14 24
f 6 24 36
f 6 36 35
f 6 35 37
f 6 37 25
f 6 25 15
f 6 15 7
f 6 13 14
f 7 15 16
f 7 16 8
f 8 16 17
f 8 17 9
f 9 17 18
f 9 18 10
f 10 19 12
f 10 18 29
f 10 29 19
f 11 12 20
f 12 19 21
f 12 21 22
f 12 22 20
f 13 23 24
f 13 24 14
f 15 25 26
f 15 26 16
f 16 26 27
f 16 27 28
f 16 28 17
f 17 28 18
f 18 28 29
f 19 29 30
f 19 30 31
f 19 31 32
f 19 32 21
f 21 32 41
f 21 41 33
f 21 33 22
f 23 34 35
f 23 35 36
f 23 36 24
f 25 37 42
f 25 42 41
f 25 41 32
f 25 32 31
f 25 31 30
f 25 30 40
f 25 40 39
f 25 39 38
f 25 38 27
f 25 27 26
f 27 38 28
f 28 38 39
f 28 39 29
f 29 39 40
f 29 40 30
f 34 42 37
f 34 37 35
