v -0.33447 0.719373 0.272025
v -0.33447 0.719373 0.396049
v -0.33447 0.735537 0.272025
v -0.328892 0.704707 0.272025
v -0.334025 0.719373 0.415
v -0.334066 0.722146 0.415
v -0.334187 0.735537 0.415
v -0.33447 0.735537 0.396049
v -0.328892 0.704707 0.396049
v -0.329741 0.751702 0.272025
v -0.300558 0.670167 0.272025
v -0.300599 0.670167 0.415
v -0.328447 0.704867 0.415
v -0.33354 0.73831 0.415
v -0.329741 0.751702 0.396049
v -0.32873 0.753351 0.415
v -0.324325 0.760421 0.415
v -0.327922 0.754483 0.272025
v 3.92528e-05 0.670167 0.272025
v -0.0232826 0.670167 0.415
v -0.32962 0.751702 0.415
v -0.324163 0.760216 0.272025
v -0.31523 0.761143 0.415
v 0.0715812 0.704653 0.272025
v -0.000203262 0.670167 0.273607
v 0.0506441 0.707649 0.328418
v 0.0350018 0.707373 0.36068
v 0.018147 0.707943 0.391108
v 0.00197937 0.709031 0.415
v -0.31523 0.760653 0.272025
v -0.299063 0.761241 0.415
v 0.078412 0.719373 0.272025
v 0.0482593 0.719373 0.339041
v 0.0442174 0.719373 0.347551
v 0.0363357 0.719373 0.363185
v 0.0320108 0.719373 0.371275
v 0.0269584 0.719373 0.379883
v 0.0191575 0.719373 0.392676
v 0.013903 0.719373 0.400766
v 0.00400033 0.716591 0.415
v 0.0512908 0.760653 0.272025
v -0.0432093 0.761241 0.415
v 0.0482998 0.735537 0.339041
v 0.078412 0.735537 0.272025
v 0.0442174 0.735537 0.347551
v 0.0363357 0.735537 0.363185
v 0.0320108 0.735537 0.371275
v 0.0269584 0.735537 0.379883
v 0.0191575 0.735537 0.392676
v 0.00412158 0.730241 0.415
v 0.00602128 0.719373 0.412215
v 0.013903 0.735537 0.400766
v 0.00408116 0.719373 0.415
v -0.0270416 0.761224 0.415
v 0.0403776 0.760528 0.315233
v 0.0563836 0.760528 0.272025
v 0.0502399 0.751702 0.327536
v 0.0744105 0.751702 0.272025
v 0.0345976 0.751702 0.360078
v 0.017662 0.751702 0.390352
v 0.00412158 0.735537 0.415
v 0.00169644 0.74785 0.415
v -0.011844 0.760573 0.415
v 0.0242099 0.760608 0.347551
v 0.0654779 0.760296 0.272025
v 0.0486635 0.759913 0.323855
v 0.0678222 0.760163 0.272025
v 0.032698 0.760011 0.356523
v 0.0161665 0.759797 0.388001
v 0.000160504 0.750676 0.415
v -0.0107123 0.760252 0.415
v 0.000645534 0.760073 0.405343
v -0.00371973 0.755402 0.415
f 1 2 8
f 1 8 3
f 1 3 10
f 1 10 18
f 1 18 22
f 1 22 30
f 1 30 41
f 1 41 56
f 1 56 65
f 1 65 67
f 1 67 58
f 1 58 44
f 1 44 32
f 1 32 24
f 1 24 19
f 1 19 11
f 1 11 4
f 1 4 9
f 1 9 2
f 2 5 6
f 2 6 7
f 2 7 8
f 2 9 5
f 3 8 15
f 3 15 10
f 4 11 12
f 4 12 9
f 5 9 13
f 5 13 12
f 5 12 20
f 5 20 29
f 5 29 40
f 5 40 53
f 5 53 50
f 5 50 61
f 5 61 62
f 5 62 70
f 5 70 73
f 5 73 71
f 5 71 63
f 5 63 54
f 5 54 42
f 5 42 31
f 5 31 23
f 5 23 17
f 5 17 16
f 5 16 21
f 5 21 14
f 5 14 7
f 5 7 6
f 7 14 8
f 8 14 15
f 9 12 13
f 10 15 16
f 10 16 17
f 10 17 18
f 11 19 25
f 11 25 20
f 11 20 12
f 14 21 15
f 15 21 16
f 17 22 18
f 17 23 22
f 19 24 25
f 20 25 24
f 20 24 26
f 20 26 27
f 20 27 28
f 20 28 29
f 22 23 30
f 23 31 30
f 24 32 26
f 26 32 33
f 26 33 34
f 26 34 27
f 27 34 35
f 27 35 36
f 27 36 28
f 28 36 37
f 28 37 38
f 28 38 39
f 28 39 40
f 28 40 29
f 30 31 42
f 30 42 41
f 32 43 33
f 32 44 43
f 33 43 34
f 34 43 45
f 34 45 46
f 34 46 35
f 35 46 47
f 35 47 36
f 36 47 48
f 36 48 37
f 37 48 49
f 37 49 38
f 38 49 52
f 38 52 39
f 39 50 51
f 39 51 40
f 39 52 61
f 39 61 50
f 40 51 53
f 41 42 54
f 41 54 55
f 41 55 56
f 43 44 57
f 43 57 45
f 44 58 57
f 45 57 59
f 45 59 46
f 46 59 47
f 47 59 60
f 47 60 48
f 48 60 49
f 49 60 52
f 50 53 51
f 52 60 62
f 52 62 61
f 54 63 64
f 54 64 55
f 55 64 65
f 55 65 56
f 57 66 59
f 57 58 66
f 58 67 66
f 59 66 68
f 59 68 69
f 59 69 60
f 60 69 62
f 62 69 70
f 63 71 72
f 63 72 69
f 63 69 68
f 63 68 64
f 64 68 65
f 65 68 67
f 66 67 68
f 69 72 73
f 69 73 70
f 71 73 72
