v -0.333199 -0.735547 -0.275643
v -0.333199 -0.735547 -0.00910793
v -0.332741 -0.71938 -0.275643
v -0.331825 -0.751708 -0.275643
v -0.332741 -0.71938 -0.00910793
v -0.331825 -0.751708 -0.00910793
v -0.331505 -0.715645 -0.275643
v -0.331505 -0.75233 -0.00910793
v -0.32894 -0.757272 -0.275643
v -0.331505 -0.715645 -0.00910793
v 0.0977225 -0.715645 -0.275643
v -0.326559 -0.761775 -0.00910793
v -0.326559 -0.761775 -0.275643
v 0.131793 -0.715645 -0.00910793
v 0.134541 -0.71938 -0.00910793
v 0.0979056 -0.71938 -0.275643
v -0.315202 -0.763767 -0.00910793
v -0.315202 -0.763767 -0.275643
v 0.134632 -0.735547 -0.00910793
v 0.0979056 -0.735547 -0.275643
v 0.104042 -0.763767 -0.00910793
v 0.0727189 -0.763767 -0.275643
v 0.132709 -0.751708 -0.00910793
v 0.0974477 -0.749014 -0.275643
v 0.10505 -0.763734 -0.00910793
v 0.079588 -0.762877 -0.275643
v 0.121352 -0.762203 -0.00910793
v 0.130099 -0.756447 -0.00910793
v 0.0961197 -0.757097 -0.275643
v 0.096715 -0.75348 -0.275643
v 0.0880599 -0.761775 -0.275643
v 0.121673 -0.762152 -0.00910793
f 1 2 5
f 1 5 3
f 1 3 7
f 1 7 11
f 1 11 16
f 1 16 20
f 1 20 24
f 1 24 30
f 1 30 29
f 1 29 31
f 1 31 26
f 1 26 22
f 1 22 18
f 1 18 13
f 1 13 9
f 1 9 4
f 1 4 6
f 1 6 2
f 2 6 8
f 2 8 12
f 2 12 17
f 2 17 21
f 2 21 25
f 2 25 27
f 2 27 32
f 2 32 28
f 2 28 23
f 2 23 19
f 2 19 15
f 2 15 14
f 2 14 10
f 2 10 5
f 3 5 10
f 3 10 7
f 4 8 6
f 4 9 8
f 7 10 14
f 7 14 11
f 8 9 12
f 9 13 12
f 11 14 15
f 11 15 16
f 12 13 18
f 12 18 17
f 15 19 16
f 16 19 20
f 17 18 22
f 17 22 21
f 19 23 24
f 19 24 20
f 21 22 25
f 22 26 27
f 22 27 25
f 23 28 29
f 23 29 30
f 23 30 24
f 26 31 27
f 27 31 32
f 28 32 29
f 29 32 31
