v 0.357079 0.735542 0.16974
v 0.35636 0.746932 0.16974
v 0.356297 0.746703 0.185883
v 0.356953 0.735542 0.185883
v 0.357079 0.719374 0.16974
v 0.357079 0.735542 0.121261
v 0.349933 0.755016 0.16974
v 0.35636 0.746932 0.121261
v 0.356043 0.745514 0.196294
v 0.349869 0.754776 0.185883
v 0.356953 0.719374 0.185883
v 0.356234 0.735542 0.197451
v 0.356297 0.709555 0.185883
v 0.35636 0.709413 0.16974
v 0.357079 0.719374 0.121261
v 0.35636 0.735542 0.106352
v 0.356107 0.74583 0.108639
v 0.341855 0.76022 0.16974
v 0.341792 0.76022 0.185883
v 0.349933 0.755016 0.121261
v 0.354796 0.735542 0.205548
v 0.339656 0.759904 0.226575
v 0.345619 0.751699 0.21822
v 0.350165 0.735542 0.21822
v 0.341284 0.76022 0.202052
v 0.34027 0.760089 0.21822
v 0.356234 0.719374 0.197451
v 0.356043 0.710221 0.196294
v 0.304874 0.649202 0.137403
v 0.305 0.649202 0.126761
v 0.305064 0.649202 0.121261
v 0.35636 0.709413 0.121261
v 0.356107 0.710035 0.108639
v 0.35636 0.719374 0.106352
v 0.355494 0.735542 0.0982801
v 0.350736 0.751416 0.103987
v 0.352681 0.735542 0.0889234
v 0.347353 0.751699 0.0889234
v 0.340058 0.760078 0.0795667
v 0.331389 0.760656 0.202052
v 0.341855 0.76022 0.121261
v 0.340756 0.76022 0.0889234
v 0.341496 0.76022 0.105092
v 0.354796 0.719374 0.205548
v 0.341327 0.751699 0.228811
v 0.331389 0.760515 0.21822
v 0.32993 0.7601 0.232924
v 0.323587 0.759904 0.242666
v 0.333926 0.751699 0.236908
v 0.350165 0.719374 0.21822
v 0.342934 0.735542 0.230944
v 0.341771 0.707679 0.229402
v 0.344816 0.705169 0.21822
v 0.293519 0.649202 0.204879
v 0.295951 0.649202 0.19141
v 0.302209 0.649202 0.110593
v 0.346063 0.7047 0.0889234
v 0.342236 0.707799 0.0727548
v 0.352681 0.719374 0.0889234
v 0.355494 0.719374 0.0982801
v 0.345006 0.735542 0.0727548
v 0.339656 0.744346 0.0644778
v 0.342024 0.750521 0.0736031
v 0.335364 0.755125 0.0687705
v 0.32458 0.760078 0.0636552
v 0.330543 0.760307 0.0736031
v 0.331389 0.760656 0.0889234
v 0.299059 0.760656 0.234389
v 0.315213 0.760525 0.234389
v 0.336041 0.735542 0.239042
v 0.315213 0.760089 0.243283
v 0.282883 0.754994 0.252948
v 0.29335 0.745623 0.259066
v 0.315213 0.751699 0.248655
v 0.325849 0.751699 0.244363
v 0.342934 0.719374 0.230944
v 0.336041 0.719374 0.239042
v 0.32642 0.707657 0.244825
v 0.291341 0.649202 0.21038
v 0.300729 0.649202 0.105092
v 0.339656 0.710886 0.0644778
v 0.345006 0.719374 0.0727548
v 0.339741 0.735542 0.064375
v 0.331389 0.735542 0.0567919
v 0.322402 0.735542 0.049029
v 0.319336 0.751699 0.0520365
v 0.330543 0.750521 0.0609048
v 0.307834 0.759969 0.0482321
v 0.314029 0.760242 0.0575888
v 0.315213 0.760656 0.0727548
v 0.299059 0.76058 0.0565863
v 0.141088 0.760656 0.234389
v 0.141088 0.760318 0.242563
v 0.266729 0.76022 0.244928
v 0.282883 0.76022 0.244851
v 0.299059 0.76022 0.244311
v 0.327963 0.735542 0.245982
v 0.266729 0.755289 0.253025
v 0.282883 0.74691 0.259349
v 0.282883 0.735542 0.260068
v 0.294555 0.735542 0.259272
v 0.302632 0.735542 0.257781
v 0.315213 0.735542 0.253205
v 0.327963 0.719374 0.245982
v 0.315213 0.719374 0.253205
v 0.29335 0.710155 0.259066
v 0.315213 0.705158 0.247833
v 0.288508 0.649202 0.210894
v 0.293667 0.649202 0.0959923
v 0.331389 0.707646 0.0607505
v 0.311936 0.707482 0.0461757
v 0.322402 0.719374 0.049029
v 0.331389 0.719374 0.0567919
v 0.339741 0.719374 0.064375
v 0.314325 0.735542 0.0449933
v 0.311259 0.751699 0.0465613
v 0.299059 0.760144 0.0478722
v 0.299059 0.751699 0.0433738
v 0.141088 0.735542 -0.00238138
v 0.141088 0.751699 0.0035051
v 0.141088 0.752027 0.00376215
v 0.141088 0.760198 0.0119364
v 0.282883 0.760656 0.0565863
v 0.141088 0.760569 0.0244548
v 0.141088 0.760656 0.0404177
v 0.141088 0.76022 0.244928
v 0.141088 0.756402 0.2512
v 0.141088 0.755289 0.253025
v 0.141088 0.749027 0.257986
v 0.266729 0.747205 0.259426
v 0.266729 0.735542 0.260223
v 0.282883 0.719374 0.260068
v 0.294555 0.719374 0.259272
v 0.302632 0.719374 0.257781
v 0.282883 0.709424 0.259349
v 0.282883 0.649202 0.211871
v 0.282883 0.649202 0.0949641
v 0.141088 0.7041 0.00787498
v 0.299059 0.705158 0.0440165
v 0.141088 0.719374 -0.00232997
v 0.299059 0.719374 0.0395181
v 0.314325 0.719374 0.0449933
v 0.299059 0.735542 0.0395181
v 0.141088 0.725843 -0.00235568
v 0.153585 0.760656 0.0404177
v 0.141088 0.747205 0.259426
v 0.141088 0.738182 0.260043
v 0.266729 0.719374 0.260223
v 0.141088 0.735542 0.260223
v 0.266729 0.709261 0.259426
v 0.180396 0.649202 0.215239
v 0.196572 0.649202 0.214982
v 0.266729 0.649202 0.213131
v 0.277386 0.649202 0.212308
v 0.141088 0.649202 0.0890262
v 0.141088 0.719374 0.260223
v 0.141088 0.711541 0.259606
v 0.141088 0.709261 0.259426
v 0.141088 0.649202 0.215239
f 1 2 3
f 1 3 4
f 1 4 11
f 1 11 5
f 1 5 15
f 1 15 6
f 1 6 8
f 1 8 2
f 2 7 3
f 2 8 20
f 2 20 7
f 3 9 4
f 3 7 10
f 3 10 9
f 4 9 12
f 4 12 27
f 4 27 11
f 5 11 13
f 5 13 14
f 5 14 32
f 5 32 15
f 6 15 34
f 6 34 16
f 6 16 17
f 6 17 8
f 7 18 19
f 7 19 10
f 7 20 41
f 7 41 18
f 8 17 20
f 9 21 12
f 9 10 22
f 9 22 23
f 9 23 24
f 9 24 21
f 10 19 25
f 10 25 26
f 10 26 22
f 11 27 28
f 11 28 13
f 12 21 44
f 12 44 27
f 13 28 29
f 13 29 30
f 13 30 31
f 13 31 14
f 14 31 32
f 15 32 33
f 15 33 34
f 16 34 60
f 16 60 35
f 16 35 17
f 17 36 20
f 17 35 37
f 17 37 38
f 17 38 39
f 17 39 36
f 18 40 19
f 18 41 67
f 18 67 40
f 19 40 25
f 20 36 39
f 20 39 42
f 20 42 43
f 20 43 41
f 21 24 50
f 21 50 44
f 22 45 23
f 22 26 46
f 22 46 47
f 22 47 48
f 22 48 49
f 22 49 45
f 23 45 24
f 24 45 51
f 24 51 76
f 24 76 50
f 25 40 46
f 25 46 26
f 27 44 28
f 28 44 50
f 28 50 52
f 28 52 53
f 28 53 54
f 28 54 55
f 28 55 29
f 29 55 54
f 29 54 79
f 29 79 108
f 29 108 136
f 29 136 154
f 29 154 153
f 29 153 152
f 29 152 151
f 29 151 159
f 29 159 155
f 29 155 137
f 29 137 109
f 29 109 80
f 29 80 56
f 29 56 31
f 29 31 30
f 31 56 57
f 31 57 33
f 31 33 32
f 33 57 58
f 33 58 59
f 33 59 60
f 33 60 34
f 35 60 59
f 35 59 37
f 37 59 82
f 37 82 61
f 37 61 62
f 37 62 63
f 37 63 38
f 38 63 39
f 39 63 62
f 39 62 64
f 39 64 65
f 39 65 66
f 39 66 67
f 39 67 42
f 40 68 69
f 40 69 46
f 40 67 90
f 40 90 123
f 40 123 145
f 40 145 125
f 40 125 92
f 40 92 68
f 41 43 67
f 42 67 43
f 45 49 70
f 45 70 51
f 46 69 47
f 47 69 48
f 48 71 72
f 48 72 73
f 48 73 74
f 48 74 75
f 48 75 49
f 48 69 71
f 49 75 70
f 50 76 52
f 51 70 77
f 51 77 76
f 52 76 77
f 52 77 78
f 52 78 79
f 52 79 53
f 53 79 54
f 56 80 57
f 57 80 58
f 58 81 59
f 58 80 81
f 59 81 82
f 61 82 114
f 61 114 83
f 61 83 62
f 62 83 84
f 62 84 85
f 62 85 86
f 62 86 87
f 62 87 64
f 64 87 88
f 64 88 65
f 65 88 89
f 65 89 66
f 66 90 67
f 66 89 91
f 66 91 90
f 68 92 93
f 68 93 94
f 68 94 95
f 68 95 96
f 68 96 69
f 69 96 71
f 70 75 97
f 70 97 104
f 70 104 77
f 71 96 72
f 72 98 130
f 72 130 99
f 72 99 73
f 72 96 95
f 72 95 98
f 73 99 100
f 73 100 101
f 73 101 102
f 73 102 103
f 73 103 74
f 74 103 75
f 75 103 97
f 77 104 78
f 78 104 105
f 78 105 106
f 78 106 107
f 78 107 79
f 79 107 106
f 79 106 108
f 80 109 81
f 81 109 110
f 81 110 111
f 81 111 112
f 81 112 113
f 81 113 114
f 81 114 82
f 83 114 113
f 83 113 84
f 84 113 112
f 84 112 85
f 85 112 142
f 85 142 115
f 85 115 116
f 85 116 86
f 86 116 88
f 86 88 87
f 88 117 91
f 88 91 89
f 88 116 118
f 88 118 119
f 88 119 120
f 88 120 121
f 88 121 122
f 88 122 117
f 90 91 123
f 91 117 122
f 91 122 124
f 91 124 123
f 92 125 124
f 92 124 122
f 92 122 121
f 92 121 120
f 92 120 119
f 92 119 144
f 92 144 140
f 92 140 138
f 92 138 155
f 92 155 159
f 92 159 158
f 92 158 157
f 92 157 156
f 92 156 149
f 92 149 147
f 92 147 146
f 92 146 129
f 92 129 128
f 92 128 127
f 92 127 126
f 92 126 93
f 93 126 94
f 94 127 98
f 94 98 95
f 94 126 127
f 97 103 105
f 97 105 104
f 98 127 128
f 98 128 129
f 98 129 130
f 99 130 131
f 99 131 100
f 100 131 148
f 100 148 132
f 100 132 133
f 100 133 101
f 101 133 134
f 101 134 102
f 102 134 105
f 102 105 103
f 105 134 106
f 106 134 133
f 106 133 132
f 106 132 135
f 106 135 136
f 106 136 108
f 109 137 138
f 109 138 139
f 109 139 111
f 109 111 110
f 111 139 140
f 111 140 141
f 111 141 142
f 111 142 112
f 115 142 141
f 115 141 143
f 115 143 116
f 116 143 119
f 116 119 118
f 119 143 141
f 119 141 144
f 123 124 145
f 124 125 145
f 129 146 130
f 130 147 131
f 130 146 147
f 131 147 149
f 131 149 156
f 131 156 148
f 132 148 135
f 135 148 150
f 135 150 151
f 135 151 152
f 135 152 153
f 135 153 154
f 135 154 136
f 137 155 138
f 138 140 139
f 140 144 141
f 148 156 157
f 148 157 150
f 150 157 158
f 150 158 159
f 150 159 151
