v 0.112077 -0.735543 -0.374367
v 0.112077 -0.719381 -0.374425
v 0.0979246 -0.719381 -0.275669
v 0.0979246 -0.735543 -0.275669
v 0.112077 -0.751706 -0.3759
v 0.112077 -0.719042 -0.374522
v 0.0977378 -0.715675 -0.275669
v 0.112077 -0.718161 -0.374794
v 0.0977158 -0.741569 -0.275669
v 0.112077 -0.761814 -0.382262
v 0.0974576 -0.749013 -0.275669
v 0.0566035 -0.715675 -0.275669
v 0.112077 -0.715675 -0.375919
v 0.112077 -0.763574 -0.396054
v 0.0967324 -0.75348 -0.275669
v 0.0961445 -0.757096 -0.275669
v 0.0925294 -0.759191 -0.275669
v 0.0880627 -0.761776 -0.275669
v 0.0559552 -0.747478 -0.275669
v 0.0566035 -0.715675 -0.3314
v 0.112077 -0.715675 -0.427596
v 0.112077 -0.763767 -0.412213
v 0.0796018 -0.762878 -0.275669
v 0.0727506 -0.763767 -0.275669
v 0.0559552 -0.763767 -0.275669
v 0.0559552 -0.747478 -0.44455
v 0.0566474 -0.715675 -0.347578
v 0.0559552 -0.747704 -0.460709
v 0.0559552 -0.747694 -0.460088
v 0.112077 -0.758593 -0.469651
v 0.105072 -0.756315 -0.47163
v 0.0889088 -0.753881 -0.473822
v 0.0727506 -0.753862 -0.473822
v 0.0559552 -0.753862 -0.473822
v 0.105979 -0.715675 -0.42748
v 0.112077 -0.763767 -0.44455
v 0.0559552 -0.763767 -0.460709
v 0.0568507 -0.715675 -0.363465
v 0.0559552 -0.753622 -0.473318
v 0.0571748 -0.715675 -0.379294
v 0.0590923 -0.715675 -0.393533
v 0.0741736 -0.715675 -0.410797
v 0.112077 -0.760199 -0.469651
v 0.105072 -0.760966 -0.47163
v 0.0889088 -0.761776 -0.473822
v 0.091969 -0.715675 -0.425326
v 0.0559552 -0.761776 -0.473822
v 0.0889088 -0.763767 -0.460709
v 0.112077 -0.763306 -0.453706
v 0.112077 -0.761234 -0.466237
v 0.105072 -0.762958 -0.460709
v 0.112077 -0.76228 -0.460476
f 1 2 3
f 1 3 4
f 1 4 5
f 1 5 10
f 1 10 14
f 1 14 22
f 1 22 36
f 1 36 49
f 1 49 52
f 1 52 50
f 1 50 43
f 1 43 30
f 1 30 21
f 1 21 13
f 1 13 8
f 1 8 6
f 1 6 2
f 2 6 3
f 3 7 12
f 3 12 19
f 3 19 25
f 3 25 24
f 3 24 23
f 3 23 18
f 3 18 17
f 3 17 16
f 3 16 15
f 3 15 11
f 3 11 9
f 3 9 4
f 3 6 8
f 3 8 7
f 4 9 5
f 5 9 11
f 5 11 10
f 7 8 13
f 7 13 21
f 7 21 35
f 7 35 46
f 7 46 42
f 7 42 41
f 7 41 40
f 7 40 38
f 7 38 27
f 7 27 20
f 7 20 12
f 10 11 15
f 10 15 16
f 10 16 17
f 10 17 18
f 10 18 14
f 12 20 26
f 12 26 19
f 14 18 23
f 14 23 24
f 14 24 22
f 19 26 29
f 19 29 28
f 19 28 39
f 19 39 34
f 19 34 47
f 19 47 37
f 19 37 25
f 20 27 28
f 20 28 29
f 20 29 26
f 21 30 31
f 21 31 32
f 21 32 33
f 21 33 34
f 21 34 35
f 22 24 25
f 22 25 37
f 22 37 48
f 22 48 36
f 27 38 28
f 28 38 40
f 28 40 41
f 28 41 42
f 28 42 39
f 30 43 44
f 30 44 31
f 31 44 45
f 31 45 32
f 32 45 47
f 32 47 34
f 32 34 33
f 34 39 42
f 34 42 46
f 34 46 35
f 36 48 49
f 37 47 45
f 37 45 48
f 43 50 44
f 44 50 51
f 44 51 45
f 45 51 48
f 48 51 49
f 49 51 52
f 50 52 51
