v -0.333163 -0.735539 0.272025
v -0.333244 -0.735539 0.415
v -0.333043 -0.730246 0.272039
v -0.333043 -0.730264 0.272025
v -0.332277 -0.746429 0.272025
v -0.333163 -0.732769 0.415
v -0.331834 -0.751704 0.272025
v -0.332116 -0.748934 0.415
v -0.33272 -0.719365 0.272025
v -0.332761 -0.719365 0.415
v -0.328291 -0.758484 0.272025
v -0.326559 -0.761924 0.415
v -0.331875 -0.751704 0.415
v -0.32813 -0.705099 0.415
v -0.328089 -0.705265 0.272025
v -0.326559 -0.761777 0.272025
v -0.324626 -0.762466 0.415
v -0.300585 -0.670485 0.415
v -0.300544 -0.670485 0.272025
v -0.315163 -0.763759 0.272025
v -0.315163 -0.764126 0.415
v -0.0232845 -0.670485 0.415
v 3.18696e-05 -0.670485 0.272025
v -0.312424 -0.764209 0.415
v 0.0403826 -0.763759 0.272025
v 0.00184403 -0.709099 0.415
v 0.0181534 -0.707934 0.391096
v 0.0349864 -0.707366 0.360671
v 0.0506514 -0.70765 0.328426
v 0.0715919 -0.704705 0.272025
v 0.068169 -0.702742 0.272025
v -0.056588 -0.764209 0.415
v 0.0565712 -0.763456 0.272025
v 0.0403826 -0.763759 0.299092
v -0.0404396 -0.76419 0.415
v 0.00389781 -0.719365 0.415
v 0.0191602 -0.719365 0.392664
v 0.0316842 -0.719365 0.371265
v 0.0363153 -0.719365 0.363176
v 0.0438861 -0.719365 0.347543
v 0.0479533 -0.719365 0.339048
v 0.0517387 -0.719365 0.330959
v 0.0781157 -0.719365 0.272025
v 0.0704644 -0.761722 0.272025
v 0.0403826 -0.763603 0.315243
v 0.0242342 -0.763695 0.347543
v -0.024251 -0.763998 0.415
v 0.00401862 -0.730246 0.415
v 0.0216167 -0.730246 0.388479
v 0.00405889 -0.735539 0.415
v 0.0154956 -0.730246 0.398094
v 0.0191602 -0.735539 0.392664
v 0.0316842 -0.735539 0.371265
v 0.0332145 -0.730246 0.36862
v 0.0363153 -0.735539 0.363176
v 0.038812 -0.730246 0.358068
v 0.0438861 -0.735539 0.347543
v 0.0479533 -0.735539 0.339048
v 0.0492017 -0.730246 0.336403
v 0.078156 -0.735539 0.272025
v 0.0517387 -0.735539 0.330959
v 0.064746 -0.759897 0.291339
v 0.049846 -0.760897 0.326943
v 0.0364764 -0.761713 0.347543
v 0.0763035 -0.752392 0.272025
v 0.00804564 -0.763493 0.379872
v -0.00786107 -0.762135 0.415
v 0.00397835 -0.738686 0.415
v 0.0185561 -0.751704 0.39181
v 0.0355904 -0.751704 0.362168
v 0.0511347 -0.751704 0.329854
v 0.0765452 -0.751704 0.272025
v 0.0340199 -0.761025 0.359313
v 0.0248786 -0.762117 0.36431
v 0.00792482 -0.761952 0.395617
v 0.0198851 -0.761502 0.379872
v 0.00248836 -0.761108 0.408283
v -0.00532405 -0.760163 0.415
v 0.00289105 -0.749447 0.415
v 0.00216619 -0.752493 0.415
v 0.0173078 -0.76075 0.389949
f 1 2 3
f 1 3 4
f 1 4 9
f 1 9 15
f 1 15 19
f 1 19 23
f 1 23 31
f 1 31 30
f 1 30 43
f 1 43 60
f 1 60 72
f 1 72 65
f 1 65 44
f 1 44 33
f 1 33 25
f 1 25 20
f 1 20 16
f 1 16 11
f 1 11 7
f 1 7 5
f 1 5 2
f 2 6 3
f 2 5 7
f 2 7 8
f 2 8 13
f 2 13 12
f 2 12 17
f 2 17 21
f 2 21 24
f 2 24 32
f 2 32 35
f 2 35 47
f 2 47 67
f 2 67 78
f 2 78 80
f 2 80 79
f 2 79 68
f 2 68 50
f 2 50 48
f 2 48 36
f 2 36 26
f 2 26 22
f 2 22 18
f 2 18 14
f 2 14 10
f 2 10 6
f 3 9 4
f 3 6 9
f 6 10 9
f 7 11 12
f 7 12 13
f 7 13 8
f 9 10 14
f 9 14 15
f 11 16 12
f 12 16 17
f 14 18 19
f 14 19 15
f 16 20 21
f 16 21 17
f 18 22 23
f 18 23 19
f 20 24 21
f 20 25 32
f 20 32 24
f 22 26 27
f 22 27 28
f 22 28 29
f 22 29 30
f 22 30 31
f 22 31 23
f 25 33 34
f 25 34 35
f 25 35 32
f 26 36 27
f 27 36 37
f 27 37 38
f 27 38 39
f 27 39 28
f 28 39 40
f 28 40 29
f 29 40 41
f 29 41 42
f 29 42 43
f 29 43 30
f 33 44 45
f 33 45 34
f 34 45 46
f 34 46 47
f 34 47 35
f 36 48 37
f 37 49 38
f 37 48 50
f 37 50 51
f 37 51 52
f 37 52 49
f 38 49 53
f 38 53 54
f 38 54 39
f 39 54 55
f 39 55 56
f 39 56 40
f 40 56 57
f 40 57 58
f 40 58 41
f 41 58 59
f 41 59 42
f 42 60 43
f 42 59 61
f 42 61 60
f 44 62 63
f 44 63 64
f 44 64 45
f 44 65 62
f 45 64 46
f 46 64 66
f 46 66 47
f 47 66 67
f 49 52 53
f 50 68 52
f 50 52 51
f 52 68 69
f 52 69 53
f 53 69 70
f 53 70 55
f 53 55 54
f 55 70 57
f 55 57 56
f 57 70 71
f 57 71 58
f 58 71 61
f 58 61 59
f 60 61 71
f 60 71 72
f 62 65 63
f 63 65 72
f 63 72 71
f 63 71 70
f 63 70 73
f 63 73 64
f 64 73 74
f 64 74 66
f 66 75 67
f 66 74 76
f 66 76 75
f 67 75 77
f 67 77 78
f 68 79 69
f 69 79 80
f 69 80 81
f 69 81 70
f 70 81 73
f 73 81 76
f 73 76 74
f 75 76 81
f 75 81 77
f 77 80 78
f 77 81 80
