v 0.0952852 0.0564895 -0.356623
v 0.0952852 0.0593551 -0.356488
v 0.095527 0.0593648 -0.356455
v 0.095549 0.0564895 -0.356573
v 0.0952852 0.0481338 -0.355527
v 0.0952852 -0.0392056 -0.339862
v 0.319647 0.0593648 -0.184353
v 0.0991535 0.0593648 -0.354954
v 0.184586 0.0564895 -0.319694
v 0.0952852 -0.012614 -0.346995
v 0.18008 -0.012614 -0.311869
v 0.0952852 -0.0133955 -0.346792
v 0.17674 -0.0392056 -0.306119
v 0.300262 -0.0392056 -0.184353
v 0.319779 0.0564895 -0.184353
v 0.319691 0.0564895 -0.184589
v 0.319581 0.0593648 -0.184522
v 0.18452 0.0593648 -0.319593
v 0.187663 0.0593648 -0.317198
v 0.261029 0.0564895 -0.261045
v 0.254633 -0.012614 -0.254654
v 0.238215 -0.0392056 -0.258954
v 0.297097 -0.0392056 -0.188484
v 0.308064 -0.0142446 -0.184353
v 0.319296 0.052987 -0.184353
v 0.30857 -0.012614 -0.184353
v 0.317186 0.0593648 -0.187658
v 0.260941 0.0593648 -0.260961
v 0.24993 -0.0392056 -0.249949
f 1 2 3
f 1 3 4
f 1 4 5
f 1 5 10
f 1 10 12
f 1 12 6
f 1 6 2
f 2 6 7
f 2 7 3
f 3 8 4
f 3 7 17
f 3 17 27
f 3 27 28
f 3 28 19
f 3 19 18
f 3 18 8
f 4 8 9
f 4 9 5
f 5 9 11
f 5 11 10
f 6 12 13
f 6 13 22
f 6 22 29
f 6 29 23
f 6 23 14
f 6 14 7
f 7 14 24
f 7 24 26
f 7 26 25
f 7 25 15
f 7 15 16
f 7 16 17
f 8 18 9
f 9 18 19
f 9 19 20
f 9 20 11
f 10 11 12
f 11 20 21
f 11 21 22
f 11 22 13
f 11 13 12
f 14 23 24
f 15 25 16
f 16 25 26
f 16 26 21
f 16 21 20
f 16 20 27
f 16 27 17
f 19 28 20
f 20 28 27
f 21 26 24
f 21 24 23
f 21 23 29
f 21 29 22
