v 1.72972e-05 -0.593667 -0.198033
v 0.0512638 -0.593681 -0.191292
v 0.0341936 -0.593681 -0.193529
v 1.72972e-05 -0.593667 -0.15657
v 1.72972e-05 -0.458619 -0.227132
v 0.0990057 -0.593681 -0.171503
v 0.0587976 -0.458619 -0.219389
v 0.113561 -0.458619 -0.1967
v 0.118472 -0.593681 -0.15657
v 1.72972e-05 -0.490986 -0.15657
v 0.121798 -0.458619 -0.190394
v 0.119259 -0.589304 -0.15657
v 0.121798 -0.557849 -0.158946
v 0.121798 -0.575038 -0.15657
v 0.121798 -0.57513 -0.15657
v 0.120069 -0.584782 -0.15657
f 1 2 3
f 1 3 4
f 1 4 10
f 1 10 5
f 1 5 2
f 2 6 9
f 2 9 3
f 2 5 7
f 2 7 8
f 2 8 6
f 3 9 4
f 4 9 12
f 4 12 16
f 4 16 15
f 4 15 14
f 4 14 10
f 5 10 11
f 5 11 8
f 5 8 7
f 6 8 11
f 6 11 9
f 9 11 12
f 10 13 11
f 10 14 13
f 11 15 16
f 11 16 12
f 11 13 14
f 11 14 15
