v -0.227814 -0.275187 0.124203
v -0.227814 -0.275187 0.168297
v -0.227814 -0.187509 0.215279
v -0.105385 -0.187509 0.25589
v 0.0504422 -0.187509 0.307828
v -0.130966 -0.284664 0.151103
v -0.121241 -0.306006 0.135212
v -0.121241 -0.306006 0.245384
v -0.203377 -0.275187 0.200153
v -0.222338 -0.187509 0.222358
v -3.83436e-05 -0.187509 0.314516
v 0.0504422 -0.306006 0.268912
v 0.0504422 -0.306006 0.268837
v -0.071305 -0.306006 0.26608
v -0.133582 -0.275187 0.251196
v -0.142817 -0.275187 0.24734
v -0.201497 -0.275187 0.202351
v -0.201933 -0.275187 0.201978
v -0.202287 -0.275187 0.201531
v -0.222256 -0.187509 0.222433
v -3.83436e-05 -0.306006 0.275488
v -0.0644398 -0.187509 0.305983
v -0.047168 -0.306006 0.269285
v -0.081412 -0.187509 0.303729
v -0.121241 -0.187509 0.28728
v -0.121241 -0.218165 0.276457
v -0.147366 -0.187509 0.276457
v -0.157228 -0.187509 0.272358
f 1 2 3
f 1 3 4
f 1 4 5
f 1 5 6
f 1 6 7
f 1 7 8
f 1 8 2
f 2 8 9
f 2 9 3
f 3 9 10
f 3 10 20
f 3 20 28
f 3 28 27
f 3 27 25
f 3 25 24
f 3 24 22
f 3 22 11
f 3 11 5
f 3 5 4
f 5 11 12
f 5 12 13
f 5 13 7
f 5 7 6
f 7 13 12
f 7 12 21
f 7 21 23
f 7 23 14
f 7 14 8
f 8 14 15
f 8 15 16
f 8 16 17
f 8 17 18
f 8 18 19
f 8 19 9
f 9 19 10
f 10 19 18
f 10 18 20
f 11 21 12
f 11 22 23
f 11 23 21
f 14 23 22
f 14 22 24
f 14 24 25
f 14 25 26
f 14 26 15
f 15 27 28
f 15 28 16
f 15 26 27
f 16 28 17
f 17 28 20
f 17 20 18
f 25 27 26
