v 0.3621 0.0593648 -0.0527402
v 0.356458 0.0593648 -0.0955263
v 0.353671 0.126132 -0.0947795
v 0.359201 0.126132 -0.0527402
v 0.352623 0.156019 -0.0527402
v 0.248204 0.156019 -0.25888
v 0.26253 0.0593648 -0.25888
v 0.354953 0.0593648 -0.0991591
v 0.319589 0.0593648 -0.184509
v 0.317092 0.126132 -0.183056
v 0.347316 0.156019 -0.0930842
v 0.354162 0.149037 -0.0527402
v 0.355477 0.143057 -0.0527402
v 0.254258 0.156019 -0.254239
v 0.258907 0.12616 -0.25888
v 0.317192 0.0593648 -0.187638
v 0.286901 0.156019 -0.211715
v 0.311395 0.156019 -0.179766
f 1 2 3
f 1 3 4
f 1 4 13
f 1 13 12
f 1 12 5
f 1 5 6
f 1 6 7
f 1 7 16
f 1 16 9
f 1 9 8
f 1 8 2
f 2 8 3
f 3 8 9
f 3 9 10
f 3 10 11
f 3 11 12
f 3 12 13
f 3 13 4
f 5 12 11
f 5 11 18
f 5 18 17
f 5 17 14
f 5 14 6
f 6 14 15
f 6 15 7
f 7 15 10
f 7 10 16
f 9 16 10
f 10 15 17
f 10 17 18
f 10 18 11
f 14 17 15
