v 0.219933 -0.839957 3.83944e-05
v 0.201809 -0.747209 3.83944e-05
v 0.239221 -0.821399 3.83944e-05
v 0.212445 -0.839957 0.0569299
v 0.140893 -0.839957 0.166735
v 0.200568 -0.737755 3.83944e-05
v 0.239192 -0.810955 3.83944e-05
v 0.231069 -0.810995 0.0619168
v 0.231069 -0.821399 0.0619168
v 0.202627 -0.839957 0.0806503
v 0.155533 -0.839957 0.15551
v 0.140893 -0.836826 0.170806
v 0.140893 -0.747269 0.144098
v 0.199855 -0.737755 0.00547353
v 0.140893 -0.746819 0.144023
v 0.140893 -0.737755 0.142547
v 0.193743 -0.737755 0.0519244
v 0.191636 -0.737755 0.0570233
v 0.20717 -0.810995 0.119612
v 0.20717 -0.821399 0.119612
v 0.190471 -0.839957 0.109955
v 0.169162 -0.821399 0.169144
v 0.140893 -0.821399 0.190847
v 0.174859 -0.839957 0.130332
v 0.140893 -0.810995 0.190847
v 0.169162 -0.810995 0.169144
v 0.141836 -0.737755 0.141819
v 0.173714 -0.737755 0.10028
f 1 2 6
f 1 6 7
f 1 7 3
f 1 3 4
f 1 4 10
f 1 10 21
f 1 21 24
f 1 24 11
f 1 11 5
f 1 5 2
f 2 5 6
f 3 7 8
f 3 8 9
f 3 9 4
f 4 9 10
f 5 11 12
f 5 12 23
f 5 23 25
f 5 25 16
f 5 16 15
f 5 15 13
f 5 13 6
f 6 14 7
f 6 13 15
f 6 15 16
f 6 16 27
f 6 27 28
f 6 28 18
f 6 18 17
f 6 17 14
f 7 14 17
f 7 17 8
f 8 17 18
f 8 18 19
f 8 19 20
f 8 20 9
f 9 20 10
f 10 20 21
f 11 22 23
f 11 23 12
f 11 24 22
f 16 25 26
f 16 26 27
f 18 28 19
f 19 26 22
f 19 22 20
f 19 28 26
f 20 22 24
f 20 24 21
f 22 26 25
f 22 25 23
f 26 28 27
