v 0.000271214 0.847895 -0.306532
v 0.000271214 0.840629 -0.3065
v 0.000271214 0.852873 -0.301298
v 0.0780118 0.852898 -0.291042
v 0.0793645 0.847895 -0.296113
v 0.0793645 0.840654 -0.296113
v 0.0508517 0.723809 -0.189791
v 0.000271214 0.723809 -0.196448
v 0.000271214 0.79265 -0.217876
v 0.265587 0.852898 -0.139443
v 0.15066 0.852898 -0.260945
v 0.153259 0.847895 -0.265492
v 0.0982493 0.723809 -0.170162
v 0.0566338 0.723809 -0.187402
v 0.153259 0.840654 -0.265492
v 0.000271214 0.723809 -0.179322
v 0.000271214 0.792435 -0.217582
v 0.164956 0.792435 -0.139443
v 0.271236 0.847895 -0.139443
v 0.260945 0.852898 -0.15068
v 0.21307 0.852898 -0.213083
v 0.216757 0.847895 -0.21678
v 0.103209 0.723809 -0.166367
v 0.216757 0.840654 -0.21678
v 0.110397 0.723809 -0.139443
v 0.271236 0.840654 -0.139443
v 0.26548 0.847895 -0.153297
v 0.138273 0.723809 -0.139443
v 0.26548 0.840654 -0.153297
v 0.265587 0.83565 -0.139443
v 0.260945 0.83565 -0.15068
f 1 2 8
f 1 8 16
f 1 16 17
f 1 17 9
f 1 9 3
f 1 3 4
f 1 4 5
f 1 5 6
f 1 6 2
f 2 7 8
f 2 6 7
f 3 9 10
f 3 10 4
f 4 10 20
f 4 20 21
f 4 21 11
f 4 11 5
f 5 11 12
f 5 12 15
f 5 15 6
f 6 13 14
f 6 14 7
f 6 15 13
f 7 14 13
f 7 13 23
f 7 23 28
f 7 28 25
f 7 25 16
f 7 16 8
f 9 17 10
f 10 18 25
f 10 25 28
f 10 28 30
f 10 30 26
f 10 26 19
f 10 19 20
f 10 17 18
f 11 21 12
f 12 21 22
f 12 22 24
f 12 24 15
f 13 15 23
f 15 24 23
f 16 25 18
f 16 18 17
f 19 26 29
f 19 29 27
f 19 27 20
f 20 27 21
f 21 27 22
f 22 27 29
f 22 29 24
f 23 24 28
f 24 29 28
f 26 30 31
f 26 31 29
f 28 29 31
f 28 31 30
