v -0.225733 0.156019 0.276117
v -0.225733 0.266227 0.22656
v -0.225733 0.161035 0.274765
v -0.254267 0.156019 0.254245
v -0.359573 0.156019 2.33976e-05
v -0.35956 0.156051 -3.06672e-05
v -0.319903 0.266227 -3.06672e-05
v -0.226218 0.266227 0.226208
v -0.225733 0.261308 0.230453
v -0.225733 0.169871 0.272332
v -0.248319 0.194208 0.248297
v -0.286902 0.156019 0.211717
v -0.34731 0.156019 0.093082
v -0.339201 0.194208 0.090892
v -0.351162 0.194208 2.33976e-05
v -0.351175 0.194154 -3.06672e-05
v -0.324646 0.258708 -3.06672e-05
v -0.319903 0.266227 2.33976e-05
v -0.229598 0.258665 0.229561
v -0.225733 0.259086 0.23221
v -0.277063 0.266227 0.159942
v -0.225733 0.194208 0.265627
v -0.225733 0.211134 0.256948
v -0.225733 0.258665 0.232535
v -0.28119 0.258665 0.162322
v -0.304116 0.194208 0.175569
v -0.311387 0.156019 0.17976
v -0.331917 0.156019 0.130257
v -0.313615 0.258665 0.0840519
v -0.324672 0.258665 2.33976e-05
v -0.351136 0.194251 -3.06672e-05
v -0.318658 0.266227 0.00954014
v -0.305322 0.266227 0.0917031
v -0.309003 0.266227 0.0828082
f 1 2 9
f 1 9 20
f 1 20 24
f 1 24 23
f 1 23 22
f 1 22 10
f 1 10 3
f 1 3 4
f 1 4 12
f 1 12 27
f 1 27 28
f 1 28 13
f 1 13 5
f 1 5 6
f 1 6 7
f 1 7 2
f 2 8 9
f 2 7 18
f 2 18 32
f 2 32 34
f 2 34 33
f 2 33 21
f 2 21 8
f 3 10 11
f 3 11 4
f 4 11 12
f 5 13 14
f 5 14 15
f 5 15 16
f 5 16 6
f 6 16 31
f 6 31 17
f 6 17 7
f 7 17 18
f 8 19 20
f 8 20 9
f 8 21 19
f 10 22 11
f 11 22 23
f 11 23 24
f 11 24 19
f 11 19 25
f 11 25 26
f 11 26 12
f 12 26 27
f 13 28 14
f 14 29 15
f 14 28 26
f 14 26 25
f 14 25 29
f 15 30 17
f 15 17 31
f 15 31 16
f 15 29 30
f 17 30 18
f 18 30 32
f 19 21 25
f 19 24 20
f 21 33 29
f 21 29 25
f 26 28 27
f 29 34 32
f 29 32 30
f 29 33 34
