v -0.0365533 0.630797 0.180426
v -0.0365533 0.630815 0.165949
v -0.036568 0.652873 0.0124705
v -0.183833 0.652873 0.0124705
v -0.0877132 0.630815 0.15182
v -0.0860529 0.469867 0.148956
v -0.0445314 0.469849 0.166157
v -0.0365533 0.469849 0.167216
v -0.0365533 0.630815 0.0550321
v -0.036568 0.652873 0.00309728
v -0.151847 0.630815 0.0876997
v -0.151715 0.630815 0.0878907
v -0.123975 0.630815 0.12396
v -0.186639 0.652873 0.00309728
v -0.166128 0.469849 0.044548
v -0.161794 0.469849 0.0550321
v -0.152537 0.469867 0.0774065
v -0.148952 0.469867 0.0860681
v -0.121624 0.469867 0.1216
v -0.0449869 0.469849 0.165967
v -0.0365533 0.469849 0.0252807
v -0.0365533 0.630797 0.0252807
v -0.036568 0.469849 0.00309728
v -0.171623 0.469849 0.00309728
v -0.170389 0.469849 0.0124705
f 1 2 3
f 1 3 4
f 1 4 5
f 1 5 6
f 1 6 7
f 1 7 8
f 1 8 21
f 1 21 22
f 1 22 9
f 1 9 2
f 2 9 10
f 2 10 3
f 3 10 14
f 3 14 4
f 4 11 12
f 4 12 13
f 4 13 5
f 4 14 15
f 4 15 16
f 4 16 17
f 4 17 18
f 4 18 11
f 5 13 6
f 6 19 20
f 6 20 7
f 6 13 19
f 7 20 16
f 7 16 15
f 7 15 25
f 7 25 24
f 7 24 23
f 7 23 21
f 7 21 8
f 9 22 10
f 10 22 21
f 10 21 23
f 10 23 24
f 10 24 14
f 11 18 12
f 12 18 13
f 13 18 19
f 14 24 25
f 14 25 15
f 16 20 19
f 16 19 18
f 16 18 17
