v 0.249357 -0.355317 0.0701442
v 0.259467 -0.232823 0.14978
v 0.249357 -0.268281 0.14395
v 0.249357 -0.355255 0.0691896
v 0.249738 -0.355317 0.0691896
v 0.311293 -0.163918 0.0834222
v 0.283808 -0.163918 0.14978
v 0.281623 -0.170106 0.14978
v 0.249357 -0.25739 0.14978
v 0.249357 -0.200026 0.0691896
v 0.25823 -0.33106 0.0691896
v 0.313163 -0.163918 0.0691896
v 0.318483 -0.142693 0.0691896
v 0.341429 -0.0392272 0.091493
v 0.289259 -0.143652 0.14978
v 0.249357 -0.108287 0.14978
v 0.344368 -0.0392272 0.0691896
v 0.317274 -0.0392272 0.14978
v 0.281623 -0.0754587 0.14978
f 1 2 3
f 1 3 9
f 1 9 16
f 1 16 10
f 1 10 4
f 1 4 5
f 1 5 6
f 1 6 7
f 1 7 8
f 1 8 2
f 2 9 3
f 2 8 7
f 2 7 15
f 2 15 18
f 2 18 19
f 2 19 16
f 2 16 9
f 4 10 17
f 4 17 13
f 4 13 12
f 4 12 11
f 4 11 5
f 5 11 6
f 6 12 13
f 6 13 14
f 6 14 15
f 6 15 7
f 6 11 12
f 10 16 17
f 13 17 14
f 14 17 18
f 14 18 15
f 16 19 17
f 17 19 18
