v -0.0365386 0.71387 0.187234
v -0.0497166 0.71387 0.185486
v -0.0365538 0.630834 0.180421
v -0.0365386 0.680177 0.184458
v -0.0365386 0.71387 0.00309728
v -0.0960367 0.71387 0.166308
v -0.0926663 0.680177 0.16045
v -0.0877018 0.630834 0.151834
v -0.172842 0.621342 0.01247
v -0.0365538 0.630834 0.01247
v -0.0365386 0.680177 0.00309728
v -0.191638 0.71387 0.00309728
v -0.135783 0.71387 0.135793
v -0.112145 0.652924 0.138641
v -0.123987 0.630834 0.123987
v -0.186627 0.652924 0.00309728
v -0.0365538 0.652924 0.00309728
v -0.151846 0.630834 0.0877217
v -0.155034 0.630834 0.0800253
v -0.16935 0.630834 0.0454185
v -0.185474 0.71387 0.0497083
v -0.188874 0.680177 0.00309728
v -0.166314 0.71387 0.0959949
v -0.159892 0.680177 0.0933813
v -0.183834 0.652906 0.01247
v -0.155687 0.652915 0.0899387
v -0.162944 0.652924 0.072455
v -0.172842 0.648695 0.0463197
v -0.184973 0.71387 0.05097
v -0.178961 0.680177 0.0479599
v -0.160423 0.680177 0.0926784
v -0.173662 0.652906 0.046536
v -0.178611 0.680177 0.0488071
v -0.172842 0.651937 0.048014
f 1 2 3
f 1 3 4
f 1 4 11
f 1 11 5
f 1 5 12
f 1 12 21
f 1 21 29
f 1 29 23
f 1 23 13
f 1 13 6
f 1 6 2
f 2 6 3
f 3 6 7
f 3 7 8
f 3 8 9
f 3 9 10
f 3 10 11
f 3 11 4
f 5 11 17
f 5 17 16
f 5 16 22
f 5 22 12
f 6 13 7
f 7 13 14
f 7 14 8
f 8 14 15
f 8 15 9
f 9 16 17
f 9 17 10
f 9 15 18
f 9 18 19
f 9 19 20
f 9 20 16
f 10 17 11
f 12 22 21
f 13 15 14
f 13 23 24
f 13 24 18
f 13 18 15
f 16 20 25
f 16 25 21
f 16 21 22
f 18 24 26
f 18 26 27
f 18 27 19
f 19 27 28
f 19 28 20
f 20 28 25
f 21 25 30
f 21 30 29
f 23 29 27
f 23 27 26
f 23 26 31
f 23 31 24
f 24 31 26
f 25 28 32
f 25 32 30
f 27 29 33
f 27 33 34
f 27 34 28
f 28 34 33
f 28 33 32
f 29 30 33
f 30 32 33
