v 0.0519626 0.156019 -0.352719
v 0.0519626 0.266227 -0.313068
v 0.0519626 0.165048 -0.35074
v 0.0930795 0.156019 -0.347318
v 0.226692 0.156019 -0.275409
v 0.226692 0.266227 -0.225602
v 0.0828003 0.266227 -0.309011
v 0.0519626 0.263412 -0.314848
v 0.0519626 0.177854 -0.347928
v 0.0908902 0.194208 -0.339204
v 0.17557 0.194208 -0.30412
v 0.130263 0.156019 -0.331911
v 0.179777 0.156019 -0.311388
v 0.226692 0.171651 -0.271115
v 0.226692 0.265149 -0.226698
v 0.226213 0.266227 -0.226225
v 0.0840488 0.258665 -0.313616
v 0.159954 0.266227 -0.277064
v 0.0519626 0.258665 -0.317835
v 0.0519626 0.194208 -0.344319
v 0.0519626 0.234058 -0.327953
v 0.162332 0.258665 -0.281196
v 0.226692 0.194208 -0.264917
v 0.226692 0.259021 -0.231539
v 0.226692 0.258665 -0.231813
v 0.226692 0.255213 -0.233592
f 1 2 8
f 1 8 19
f 1 19 21
f 1 21 20
f 1 20 9
f 1 9 3
f 1 3 4
f 1 4 12
f 1 12 13
f 1 13 5
f 1 5 6
f 1 6 2
f 2 7 8
f 2 6 16
f 2 16 18
f 2 18 7
f 3 9 4
f 4 10 11
f 4 11 12
f 4 9 10
f 5 13 14
f 5 14 23
f 5 23 26
f 5 26 25
f 5 25 24
f 5 24 15
f 5 15 6
f 6 15 16
f 7 17 8
f 7 18 17
f 8 17 19
f 9 20 10
f 10 20 21
f 10 21 17
f 10 17 22
f 10 22 11
f 11 13 12
f 11 22 23
f 11 23 13
f 13 23 14
f 15 24 16
f 16 24 18
f 17 21 19
f 17 18 22
f 18 24 22
f 22 24 25
f 22 25 26
f 22 26 23
