v -0.227868 -0.0392317 0.266887
v -0.351262 -0.0392317 0.0168323
v -0.249948 -0.0392317 0.249925
v -0.227892 -0.163935 0.227871
v -0.227868 -0.163883 0.227896
v -0.227868 -0.306006 0.0522013
v -0.311294 -0.163935 0.0834337
v -0.34143 -0.0392317 0.0914865
v -0.273307 -0.306006 0.0168323
v -0.320051 -0.163935 0.0168323
v -0.297114 -0.0392317 0.188464
v -0.279105 -0.163935 0.161123
v -0.238606 -0.306006 0.137772
v -0.227868 -0.250275 0.18161
v -0.227868 -0.164014 0.227847
v -0.227868 -0.306006 0.151724
v -0.335765 -0.0392317 0.105169
v -0.266229 -0.306006 0.0706078
v -0.266133 -0.306006 0.0713177
v -0.306112 -0.0392317 0.176715
f 1 2 8
f 1 8 17
f 1 17 20
f 1 20 11
f 1 11 3
f 1 3 4
f 1 4 5
f 1 5 15
f 1 15 14
f 1 14 16
f 1 16 6
f 1 6 2
f 2 7 8
f 2 6 9
f 2 9 10
f 2 10 7
f 3 11 4
f 4 11 12
f 4 12 13
f 4 13 14
f 4 14 15
f 4 15 5
f 6 16 13
f 6 13 19
f 6 19 18
f 6 18 9
f 7 12 17
f 7 17 8
f 7 10 9
f 7 9 18
f 7 18 19
f 7 19 13
f 7 13 12
f 11 20 12
f 12 20 17
f 13 16 14
