v 0.00389681 0.0593648 -0.368524
v 0.0952633 0.0593551 -0.356494
v -2.74899e-05 0.0564895 -0.369164
v -2.74899e-05 0.0593648 -0.369034
v -0.227826 0.0593648 -0.286353
v 0.0952633 -0.0392056 -0.339861
v 0.0952633 0.0564895 -0.356616
v 0.0952633 0.0562869 -0.356592
v 0.0952633 0.0481338 -0.35553
v -2.74899e-05 -0.012614 -0.360126
v -0.0955398 0.0564895 -0.356584
v -0.0955081 0.0593648 -0.356462
v -0.184501 0.0593648 -0.319604
v -0.227921 0.0581876 -0.286353
v -0.202477 -0.0392056 -0.286353
v 0.0914656 -0.0392056 -0.341425
v 0.0952633 -0.038067 -0.340169
v 0.0952633 -0.012614 -0.347002
v 0.0932062 -0.012614 -0.347853
v -2.74899e-05 -0.0392056 -0.353471
v -0.0146803 -0.0392056 -0.351542
v -0.0931979 -0.012614 -0.347853
v -0.180862 0.0593648 -0.321112
v -0.180039 -0.012614 -0.311887
v -0.184564 0.0564895 -0.319709
v -0.228048 0.0564895 -0.286353
v -0.20523 -0.0324612 -0.286353
v -0.188457 -0.0392056 -0.297126
v 0.0768127 -0.0392056 -0.343355
v -0.0914572 -0.0392056 -0.341425
v -0.105129 -0.0392056 -0.335767
v -0.176716 -0.0392056 -0.306123
v -0.213332 -0.012614 -0.286353
f 1 2 3
f 1 3 4
f 1 4 12
f 1 12 23
f 1 23 13
f 1 13 5
f 1 5 2
f 2 6 17
f 2 17 18
f 2 18 9
f 2 9 8
f 2 8 7
f 2 7 3
f 2 5 6
f 3 7 8
f 3 8 9
f 3 9 10
f 3 10 11
f 3 11 12
f 3 12 4
f 5 13 14
f 5 14 26
f 5 26 33
f 5 33 27
f 5 27 15
f 5 15 6
f 6 16 17
f 6 15 28
f 6 28 32
f 6 32 31
f 6 31 30
f 6 30 21
f 6 21 20
f 6 20 29
f 6 29 16
f 9 18 19
f 9 19 10
f 10 19 20
f 10 20 21
f 10 21 22
f 10 22 11
f 11 23 12
f 11 22 24
f 11 24 25
f 11 25 23
f 13 23 25
f 13 25 26
f 13 26 14
f 15 27 28
f 16 29 19
f 16 19 17
f 17 19 18
f 19 29 20
f 21 30 22
f 22 31 32
f 22 32 24
f 22 30 31
f 24 32 28
f 24 28 33
f 24 33 25
f 25 33 26
f 27 33 28
