v 0.0504694 -0.0392201 0.346822
v -2.09892e-05 -0.0392201 0.353478
v 0.0504694 -0.0819574 0.336133
v 0.0504694 -0.187509 0.307857
v -0.227841 -0.187509 0.215263
v -0.227841 -0.0392201 0.266891
v -0.0834269 -0.163919 0.311294
v -2.09892e-05 -0.163919 0.322266
v 0.0504694 -0.163919 0.315623
v 0.0504694 -0.0950951 0.332846
v -0.091465 -0.0392201 0.341423
v 0.042186 -0.187509 0.308953
v -0.222391 -0.187509 0.222406
v -0.227841 -0.163992 0.227872
v -0.161138 -0.163919 0.279108
v -0.188468 -0.0392201 0.297115
v -0.0814105 -0.187509 0.303785
v -0.0813015 -0.187509 0.303812
v -0.0117376 -0.187509 0.312971
v -2.09892e-05 -0.187509 0.314514
v -0.105143 -0.0392201 0.335768
v -0.157133 -0.187509 0.272438
v 0.0210417 -0.187509 0.31174
v -0.166724 -0.187509 0.265118
v -0.176724 -0.0392201 0.306112
v -0.157242 -0.187509 0.272383
f 1 2 3
f 1 3 10
f 1 10 9
f 1 9 4
f 1 4 5
f 1 5 6
f 1 6 16
f 1 16 25
f 1 25 21
f 1 21 11
f 1 11 2
f 2 7 8
f 2 8 9
f 2 9 10
f 2 10 3
f 2 11 7
f 4 9 12
f 4 12 23
f 4 23 20
f 4 20 19
f 4 19 18
f 4 18 17
f 4 17 22
f 4 22 26
f 4 26 24
f 4 24 13
f 4 13 5
f 5 13 14
f 5 14 6
f 6 14 15
f 6 15 16
f 7 17 18
f 7 18 19
f 7 19 20
f 7 20 8
f 7 11 21
f 7 21 15
f 7 15 22
f 7 22 17
f 8 20 9
f 9 20 23
f 9 23 12
f 13 24 15
f 13 15 14
f 15 21 25
f 15 25 16
f 15 24 26
f 15 26 22
