v 0.306549 0.847895 -1.8279e-05
v 0.301306 0.852898 -1.8279e-05
v 0.2976 0.84931 0.0567976
v 0.299079 0.847895 0.0567976
v 0.306549 0.840654 -1.8279e-05
v 0.296121 0.847895 -0.0793454
v 0.293836 0.852898 0.0567976
v 0.291051 0.852898 -0.0779816
v 0.299079 0.840654 0.0567976
v 0.196492 0.723809 -1.8279e-05
v 0.296121 0.840654 -0.0793454
v 0.271233 0.847895 -0.139427
v 0.270196 0.848817 -0.139427
v 0.265606 0.852898 -0.139427
v 0.209992 0.792435 0.0567976
v 0.164978 0.792435 -0.139427
v 0.187332 0.723809 0.0567976
v 0.18979 0.723809 0.0508433
v 0.190615 0.723809 0.0446392
v 0.190615 0.723809 -0.0446374
v 0.172564 0.723809 -0.0924641
v 0.271233 0.840654 -0.139427
v 0.18979 0.723809 -0.0508414
v 0.209378 0.791424 0.0567976
v 0.110382 0.723809 -0.139427
v 0.168953 0.723809 0.0567976
v 0.170163 0.723809 -0.0982264
v 0.270196 0.839732 -0.139427
v 0.138285 0.723809 -0.139427
v 0.14274 0.723809 -0.133972
v 0.265606 0.83565 -0.139427
v 0.138938 0.723809 -0.138927
f 1 2 3
f 1 3 4
f 1 4 9
f 1 9 5
f 1 5 11
f 1 11 6
f 1 6 2
f 2 7 3
f 2 6 8
f 2 8 14
f 2 14 7
f 3 7 15
f 3 15 24
f 3 24 26
f 3 26 17
f 3 17 9
f 3 9 4
f 5 9 10
f 5 10 11
f 6 11 22
f 6 22 12
f 6 12 13
f 6 13 14
f 6 14 8
f 7 14 16
f 7 16 15
f 9 17 18
f 9 18 19
f 9 19 10
f 10 20 11
f 10 19 18
f 10 18 17
f 10 17 26
f 10 26 25
f 10 25 29
f 10 29 32
f 10 32 30
f 10 30 27
f 10 27 21
f 10 21 23
f 10 23 20
f 11 21 22
f 11 20 23
f 11 23 21
f 12 22 28
f 12 28 31
f 12 31 29
f 12 29 25
f 12 25 16
f 12 16 14
f 12 14 13
f 15 16 25
f 15 25 24
f 21 27 22
f 22 27 28
f 24 25 26
f 27 30 31
f 27 31 28
f 29 31 32
f 30 32 31
