v 0.192045 0.713873 -1.77265e-05
v 0.185497 0.713873 0.049694
v 0.174449 0.65694 0.0467303
v 0.180593 0.65694 -1.77265e-05
v 0.174449 0.65694 -0.0467305
v 0.185497 0.713873 -0.0496941
v 0.166316 0.713873 0.0960186
v 0.156404 0.65694 0.090303
v 0.156404 0.65694 -0.0903032
v 0.166316 0.713873 -0.0960188
v 0.1277 0.65694 0.127701
v 0.135788 0.713873 0.135781
v 0.1277 0.65694 -0.127702
v 0.135788 0.713873 -0.135781
v 0.106889 0.65694 0.143684
v 0.0960351 0.713873 0.166299
v 0.106889 0.65694 -0.143684
v 0.0960351 0.713873 -0.1663
v 0.0903092 0.65694 0.156385
v 0.0947793 0.713873 0.166829
v 0.0624271 0.65694 0.173567
v 0.0903092 0.65694 -0.156385
v 0.0393141 0.65694 -0.182176
v 0.0947793 0.713873 -0.166829
v 0.0785284 0.713873 0.173567
v 0.0393141 0.65694 0.173567
v 0.0393141 0.713873 -0.186869
v 0.0497044 0.713873 -0.185493
v 0.0393141 0.713873 0.173567
f 1 2 3
f 1 3 4
f 1 4 5
f 1 5 6
f 1 6 10
f 1 10 14
f 1 14 18
f 1 18 24
f 1 24 28
f 1 28 27
f 1 27 29
f 1 29 25
f 1 25 20
f 1 20 16
f 1 16 12
f 1 12 7
f 1 7 2
f 2 7 3
f 3 7 8
f 3 8 11
f 3 11 15
f 3 15 19
f 3 19 21
f 3 21 26
f 3 26 23
f 3 23 22
f 3 22 17
f 3 17 13
f 3 13 9
f 3 9 5
f 3 5 4
f 5 9 10
f 5 10 6
f 7 11 8
f 7 12 11
f 9 13 10
f 10 13 14
f 11 12 15
f 12 16 15
f 13 17 14
f 14 17 18
f 15 16 19
f 16 20 21
f 16 21 19
f 17 22 18
f 18 22 23
f 18 23 24
f 20 25 21
f 21 25 29
f 21 29 26
f 23 27 28
f 23 28 24
f 23 26 29
f 23 29 27
