v -0.122905 0.723809 -0.129819
v -0.145934 0.723809 -0.129819
v -0.172344 0.792435 -0.129819
v -0.210008 0.792435 0.0567976
v -0.209397 0.791424 0.0567976
v -0.168946 0.723809 0.0567976
v -0.275214 0.840654 -0.129819
v -0.170169 0.723809 -0.0982351
v -0.269587 0.852898 -0.129819
v -0.29384 0.852898 0.0567976
v -0.18732 0.723809 0.0567976
v -0.275214 0.847895 -0.129819
v -0.17256 0.723809 -0.0924627
v -0.189783 0.723809 -0.0508503
v -0.296105 0.840654 -0.0793287
v -0.291053 0.852898 -0.0779769
v -0.299089 0.847895 0.0567976
v -0.301319 0.852898 -1.30237e-05
v -0.299089 0.840654 0.0567976
v -0.189783 0.723809 0.0508425
v -0.296105 0.847895 -0.0793287
v -0.19061 0.723809 -0.0446395
v -0.306568 0.840654 -1.30237e-05
v -0.306568 0.847895 -1.30237e-05
v -0.19061 0.723809 0.04465
v -0.196489 0.723809 -1.30237e-05
f 1 2 7
f 1 7 12
f 1 12 9
f 1 9 3
f 1 3 4
f 1 4 5
f 1 5 6
f 1 6 11
f 1 11 20
f 1 20 25
f 1 25 26
f 1 26 22
f 1 22 14
f 1 14 13
f 1 13 8
f 1 8 2
f 2 8 7
f 3 9 10
f 3 10 4
f 4 10 17
f 4 17 19
f 4 19 11
f 4 11 6
f 4 6 5
f 7 8 13
f 7 13 14
f 7 14 15
f 7 15 21
f 7 21 12
f 9 12 16
f 9 16 18
f 9 18 10
f 10 18 24
f 10 24 17
f 11 19 20
f 12 21 16
f 14 22 15
f 15 22 23
f 15 23 24
f 15 24 21
f 16 21 24
f 16 24 18
f 17 24 23
f 17 23 19
f 19 23 25
f 19 25 20
f 22 26 23
f 23 26 25
