v 0.343585 -0.0392056 -0.0751399
v 0.341429 -0.0392056 -0.0914918
v 0.299859 -0.0392056 -0.184897
v 0.263509 -0.135557 -0.0751399
v 0.316133 -0.148944 -0.0751399
v 0.311296 -0.163942 -0.0834125
v 0.306114 -0.0392056 -0.176732
v 0.279101 -0.163942 -0.161132
v 0.294771 -0.0555238 -0.184897
v 0.263509 -0.155519 -0.184897
v 0.263509 -0.308957 -0.0751399
v 0.312378 -0.163942 -0.0751399
v 0.280426 -0.261006 -0.0751399
v 0.263509 -0.257679 -0.118845
v 0.263509 -0.218626 -0.152129
v 0.263509 -0.163942 -0.181459
f 1 2 7
f 1 7 3
f 1 3 4
f 1 4 11
f 1 11 13
f 1 13 12
f 1 12 5
f 1 5 6
f 1 6 2
f 2 6 8
f 2 8 7
f 3 7 9
f 3 9 10
f 3 10 4
f 4 10 16
f 4 16 15
f 4 15 14
f 4 14 11
f 5 12 6
f 6 12 13
f 6 13 11
f 6 11 8
f 7 8 9
f 8 11 14
f 8 14 15
f 8 15 16
f 8 16 10
f 8 10 9
