v -0.141553 0.38978 -0.159157
v -0.141553 0.33923 -0.226157
v -0.141553 0.369253 -0.192133
v -0.170179 0.369253 -0.170173
v -0.151526 0.38978 -0.151506
v -0.209242 0.38978 -0.0382879
v -0.154803 0.33923 -0.215987
v -0.141553 0.35077 -0.213081
v -0.262849 0.33923 -0.0382879
v -0.165679 0.38978 -0.133078
v -0.189425 0.33923 -0.189411
v -0.208422 0.369253 -0.120351
v -0.206974 0.38978 -0.0554656
v -0.232465 0.369253 -0.0623072
v -0.235624 0.369253 -0.0382879
v -0.258752 0.33923 -0.0693512
v -0.185578 0.38978 -0.107146
v -0.20543 0.33923 -0.168555
v -0.23199 0.33923 -0.133942
v -0.248696 0.33923 -0.0936279
v -0.194471 0.38978 -0.0856828
f 1 2 8
f 1 8 3
f 1 3 4
f 1 4 5
f 1 5 10
f 1 10 17
f 1 17 21
f 1 21 13
f 1 13 6
f 1 6 2
f 2 7 4
f 2 4 8
f 2 6 9
f 2 9 16
f 2 16 20
f 2 20 19
f 2 19 18
f 2 18 11
f 2 11 7
f 3 8 4
f 4 10 5
f 4 7 11
f 4 11 12
f 4 12 10
f 6 13 14
f 6 14 15
f 6 15 9
f 9 15 14
f 9 14 16
f 10 12 17
f 11 18 12
f 12 18 19
f 12 19 20
f 12 20 16
f 12 16 14
f 12 14 21
f 12 21 17
f 13 21 14
