v 0.0393141 0.469831 -0.166853
v 0.0393417 0.469868 -0.120441
v 0.0393279 0.587777 0.027691
v 0.0393141 0.585964 -0.0431496
v 0.0393141 0.656885 -0.182201
v 0.044542 0.469831 -0.166155
v 0.123763 0.469831 0.027691
v 0.0393279 0.656867 0.027691
v 0.0393141 0.598398 -0.0431496
v 0.0393141 0.656885 -0.165251
v 0.0903206 0.656885 -0.156375
v 0.0860609 0.469868 -0.148958
v 0.0467548 0.469868 -0.165251
v 0.046741 0.469831 -0.165251
v 0.168379 0.469831 0.027691
v 0.17694 0.656867 0.027691
v 0.0393417 0.656885 -0.0431291
v 0.106889 0.656885 -0.143678
v 0.121619 0.469868 -0.121633
v 0.166319 0.469831 -0.0431291
v 0.172017 0.469831 -4.23851e-06
v 0.180606 0.656867 -4.23851e-06
v 0.174921 0.656885 -0.0431291
v 0.127677 0.656885 -0.127673
v 0.156402 0.656885 -0.0903219
v 0.14325 0.469868 -0.0934653
v 0.168393 0.469831 -0.0275351
v 0.148948 0.469868 -0.0860279
v 0.166153 0.469868 -0.0445672
v 0.166346 0.469868 -0.0431496
v 0.172238 0.598398 -0.0431496
v 0.174423 0.656885 -0.0467656
f 1 2 3
f 1 3 4
f 1 4 9
f 1 9 10
f 1 10 5
f 1 5 6
f 1 6 14
f 1 14 20
f 1 20 27
f 1 27 21
f 1 21 15
f 1 15 7
f 1 7 2
f 2 7 3
f 3 7 15
f 3 15 16
f 3 16 8
f 3 8 9
f 3 9 4
f 5 10 17
f 5 17 23
f 5 23 32
f 5 32 25
f 5 25 24
f 5 24 18
f 5 18 11
f 5 11 12
f 5 12 13
f 5 13 6
f 6 13 14
f 8 16 23
f 8 23 17
f 8 17 10
f 8 10 9
f 11 18 12
f 12 18 19
f 12 19 14
f 12 14 13
f 14 19 20
f 15 21 22
f 15 22 16
f 16 22 23
f 18 24 19
f 19 24 25
f 19 25 26
f 19 26 20
f 20 26 28
f 20 28 29
f 20 29 30
f 20 30 27
f 21 27 30
f 21 30 22
f 22 30 31
f 22 31 23
f 23 31 32
f 25 32 29
f 25 29 28
f 25 28 26
f 29 32 31
f 29 31 30
