v 0.216087 -0.273017 -0.184897
v 0.216087 -0.196964 -0.184897
v 0.216087 -0.21461 -0.216083
v 0.227887 -0.163916 -0.227883
v 0.260867 -0.163916 -0.184897
v 0.29985 -0.0392056 -0.184897
v 0.216087 -0.0998786 -0.234732
v 0.216087 -0.182637 -0.229234
v 0.218965 -0.163916 -0.234732
v 0.230166 -0.136452 -0.234732
v 0.234734 -0.125214 -0.234732
v 0.293635 -0.0591171 -0.184897
v 0.297111 -0.0392056 -0.188468
v 0.261613 -0.0392056 -0.234732
v 0.216087 -0.169271 -0.234732
f 1 2 7
f 1 7 15
f 1 15 8
f 1 8 3
f 1 3 4
f 1 4 5
f 1 5 12
f 1 12 6
f 1 6 2
f 2 6 7
f 3 8 9
f 3 9 4
f 4 10 11
f 4 11 5
f 4 9 10
f 5 11 12
f 6 12 13
f 6 13 14
f 6 14 7
f 7 14 11
f 7 11 10
f 7 10 9
f 7 9 15
f 8 15 9
f 11 14 12
f 12 14 13
