v 0.186295 -0.464132 -0.120659
v 0.186295 -0.4743 -0.120659
v 0.186295 -0.458619 -0.127136
v 0.121798 -0.458619 -0.190388
v 0.121798 -0.570807 -0.120659
v 0.186295 -0.469156 -0.122788
v 0.154892 -0.593681 -0.120659
v 0.160606 -0.458619 -0.160608
v 0.140037 -0.593681 -0.140036
v 0.153781 -0.458619 -0.16585
v 0.121798 -0.593681 -0.154028
v 0.121798 -0.593681 -0.120659
f 1 2 6
f 1 6 3
f 1 3 4
f 1 4 5
f 1 5 12
f 1 12 7
f 1 7 2
f 2 7 6
f 3 8 10
f 3 10 4
f 3 6 7
f 3 7 9
f 3 9 8
f 4 10 9
f 4 9 11
f 4 11 12
f 4 12 5
f 7 12 11
f 7 11 9
f 8 9 10
