v -0.199734 -0.737755 -0.00643448
v -0.200575 -0.737755 1.01673e-05
v -0.198033 -0.593681 1.01673e-05
v -0.197185 -0.593681 -0.00643448
v -0.199509 -0.736063 -0.00643448
v -0.130766 -0.737755 0.150324
v -0.199857 -0.737755 0.00547277
v -0.193741 -0.737755 0.0519203
v -0.191281 -0.593681 0.0512605
v -0.189736 -0.661388 -0.00643448
v -0.130766 -0.593681 0.147132
v -0.130766 -0.725627 0.148329
v -0.140033 -0.593681 0.140028
v -0.137463 -0.737755 0.145184
v -0.191636 -0.737755 0.0570146
v -0.184693 -0.593681 0.0671726
v -0.130766 -0.661388 0.137834
v -0.161027 -0.593681 0.112669
v -0.141837 -0.737755 0.141823
v -0.173704 -0.737755 0.100286
v -0.171496 -0.593681 0.0990123
f 1 2 3
f 1 3 4
f 1 4 10
f 1 10 5
f 1 5 6
f 1 6 14
f 1 14 19
f 1 19 20
f 1 20 15
f 1 15 8
f 1 8 7
f 1 7 2
f 2 7 3
f 3 7 8
f 3 8 9
f 3 9 16
f 3 16 21
f 3 21 18
f 3 18 13
f 3 13 11
f 3 11 4
f 4 11 10
f 5 10 6
f 6 12 17
f 6 17 11
f 6 11 13
f 6 13 14
f 6 10 12
f 8 15 9
f 9 15 16
f 10 11 17
f 10 17 12
f 13 18 19
f 13 19 14
f 15 20 16
f 16 20 21
f 18 21 20
f 18 20 19
