v -0.0209501 -0.821402 -0.23646
v -0.0209501 -0.810997 -0.23646
v -0.0209501 -0.830831 -0.22667
v -0.0619247 -0.821402 -0.231074
v -0.0209501 -0.737764 -0.197825
v -0.0619247 -0.810997 -0.231074
v -0.0593973 -0.830831 -0.221612
v -0.0209501 -0.747267 -0.199064
v -0.185524 -0.830831 -0.131859
v -0.119604 -0.821402 -0.207174
v -0.149483 -0.737764 -0.131859
v -0.151023 -0.747267 -0.131859
v -0.0209501 -0.741573 -0.198316
v -0.0519191 -0.737764 -0.193739
v -0.0952133 -0.737764 -0.175819
v -0.119604 -0.810997 -0.207174
v -0.114705 -0.830831 -0.198685
v -0.0209501 -0.742985 -0.1985
v -0.189384 -0.827861 -0.131859
v -0.162223 -0.830831 -0.162241
v -0.169148 -0.821402 -0.169163
v -0.141831 -0.737764 -0.141833
v -0.169148 -0.810997 -0.169163
v -0.197762 -0.810997 -0.131859
v -0.100303 -0.737764 -0.17371
v -0.192742 -0.825274 -0.131859
v -0.197762 -0.821402 -0.131859
f 1 2 5
f 1 5 13
f 1 13 18
f 1 18 8
f 1 8 3
f 1 3 4
f 1 4 6
f 1 6 2
f 2 6 5
f 3 7 4
f 3 8 9
f 3 9 20
f 3 20 17
f 3 17 7
f 4 7 10
f 4 10 16
f 4 16 6
f 5 11 12
f 5 12 13
f 5 6 14
f 5 14 15
f 5 15 25
f 5 25 22
f 5 22 11
f 6 15 14
f 6 16 15
f 7 17 10
f 8 18 12
f 8 12 9
f 9 12 11
f 9 11 24
f 9 24 27
f 9 27 26
f 9 26 19
f 9 19 20
f 10 20 21
f 10 21 23
f 10 23 16
f 10 17 20
f 11 22 23
f 11 23 24
f 12 18 13
f 15 16 25
f 16 23 25
f 19 26 20
f 20 26 21
f 21 26 27
f 21 27 24
f 21 24 23
f 22 25 23
