v 0.176579 0.425178 0
v 0.172016 0.469831 0
v 0.170806 0.469831 0.00926451
v 0.166174 0.469831 0.044525
v 0.170529 0.425178 0.0457003
v 0.170529 0.425178 -0.0457003
v 0.166174 0.469831 -0.044525
v 0.170806 0.469831 -0.00926451
v 0.148958 0.469831 0.0860079
v 0.152899 0.425178 0.0882548
v 0.159087 0.425178 0.073321
v 0.159087 0.425178 -0.073321
v 0.152899 0.425178 -0.0882548
v 0.148958 0.469831 -0.0860079
v 0.143254 0.469831 0.0934402
v 0.134681 0.425178 0.112004
v 0.134681 0.425178 -0.112004
v 0.143254 0.469831 -0.0934402
v 0.121614 0.469831 0.121614
v 0.124829 0.425178 0.124829
v 0.124829 0.425178 -0.124829
v 0.121614 0.469831 -0.121614
v 0.0934404 0.469831 0.143254
v 0.112004 0.425178 0.134681
v 0.112004 0.425178 -0.134681
v 0.0934404 0.469831 -0.143254
v 0.086008 0.469831 0.148958
v 0.088255 0.425178 0.152899
v 0.088255 0.425178 -0.152899
v 0.086008 0.469831 -0.148958
v 0.0445252 0.469831 0.166174
v 0.0733212 0.425178 0.159087
v 0.0733212 0.425178 -0.159087
v 0.0445252 0.469831 -0.166174
v 0.00926482 0.469831 0.170806
v 3.30439e-07 0.425178 0.176579
v 0.0457006 0.425178 0.170529
v 0.0457006 0.425178 -0.170529
v 3.30439e-07 0.425178 -0.176579
v 0.00926482 0.469831 -0.170806
v 3.30439e-07 0.469831 0.172016
v -0.0445245 0.469831 0.166174
v -0.0456999 0.425178 0.170529
v -0.0456999 0.425178 -0.170529
v -0.0445245 0.469831 -0.166174
v 3.30439e-07 0.469831 -0.172016
v -0.0860074 0.469831 0.148958
v -0.0882889 0.425178 0.152899
v -0.0882889 0.425178 -0.152899
v -0.0860074 0.469831 -0.148958
v -0.114181 0.469831 0.127352
v -0.101114 0.425178 0.143047
v -0.101114 0.425178 -0.143047
v -0.114181 0.469831 -0.127352
v -0.121648 0.469831 0.121614
v -0.124828 0.425178 0.124829
v -0.124828 0.425178 -0.124829
v -0.121648 0.469831 -0.121614
v -0.127352 0.469831 0.114182
v -0.134681 0.425178 0.112004
v -0.134681 0.425178 -0.112004
v -0.127352 0.469831 -0.114182
v -0.148958 0.469831 0.0860079
v -0.152898 0.425178 0.0882548
v -0.152898 0.425178 -0.0882548
v -0.148958 0.469831 -0.0860079
v -0.166173 0.469831 0.044525
v -0.159086 0.425178 0.073321
v -0.159086 0.425178 -0.073321
v -0.166173 0.469831 -0.044525
v -0.170529 0.425178 0.0457003
v -0.172015 0.469831 0
v -0.176578 0.425178 0
v -0.170529 0.425178 -0.0457003
f 1 2 3
f 1 3 4
f 1 4 5
f 1 5 11
f 1 11 10
f 1 10 16
f 1 16 20
f 1 20 24
f 1 24 28
f 1 28 32
f 1 32 37
f 1 37 36
f 1 36 43
f 1 43 48
f 1 48 52
f 1 52 56
f 1 56 60
f 1 60 64
f 1 64 68
f 1 68 71
f 1 71 73
f 1 73 74
f 1 74 69
f 1 69 65
f 1 65 61
f 1 61 57
f 1 57 53
f 1 53 49
f 1 49 44
f 1 44 39
f 1 39 38
f 1 38 33
f 1 33 29
f 1 29 25
f 1 25 21
f 1 21 17
f 1 17 13
f 1 13 12
f 1 12 6
f 1 6 7
f 1 7 8
f 1 8 2
f 2 8 7
f 2 7 14
f 2 14 18
f 2 18 22
f 2 22 26
f 2 26 30
f 2 30 34
f 2 34 40
f 2 40 46
f 2 46 45
f 2 45 50
f 2 50 54
f 2 54 58
f 2 58 62
f 2 62 66
f 2 66 70
f 2 70 72
f 2 72 67
f 2 67 63
f 2 63 59
f 2 59 55
f 2 55 51
f 2 51 47
f 2 47 42
f 2 42 41
f 2 41 35
f 2 35 31
f 2 31 27
f 2 27 23
f 2 23 19
f 2 19 15
f 2 15 9
f 2 9 4
f 2 4 3
f 4 9 10
f 4 10 11
f 4 11 5
f 6 12 7
f 7 12 13
f 7 13 14
f 9 15 16
f 9 16 10
f 13 17 14
f 14 17 18
f 15 19 16
f 16 19 20
f 17 21 22
f 17 22 18
f 19 23 24
f 19 24 20
f 21 25 22
f 22 25 26
f 23 27 24
f 24 27 28
f 25 29 30
f 25 30 26
f 27 31 28
f 28 31 32
f 29 33 34
f 29 34 30
f 31 35 36
f 31 36 37
f 31 37 32
f 33 38 34
f 34 38 39
f 34 39 40
f 35 41 36
f 36 41 42
f 36 42 43
f 39 44 45
f 39 45 46
f 39 46 40
f 42 47 48
f 42 48 43
f 44 49 45
f 45 49 50
f 47 51 48
f 48 51 52
f 49 53 54
f 49 54 50
f 51 55 56
f 51 56 52
f 53 57 54
f 54 57 58
f 55 59 60
f 55 60 56
f 57 61 58
f 58 61 62
f 59 63 64
f 59 64 60
f 61 65 62
f 62 65 66
f 63 67 64
f 64 67 68
f 65 69 70
f 65 70 66
f 67 71 68
f 67 72 73
f 67 73 71
f 69 74 70
f 70 74 73
f 70 73 72
