v -0.171041 0.339218 -0.203509
v -0.171041 0.266227 -0.268549
v -0.171041 0.330522 -0.213378
v -0.189428 0.339218 -0.189425
v -0.265867 0.339218 -0.0152588
v -0.226217 0.266227 -0.226198
v -0.203287 0.31761 -0.203261
v -0.171041 0.31761 -0.228008
v -0.317895 0.266227 -0.0152588
v -0.231996 0.339218 -0.133957
v -0.258751 0.339218 -0.0693387
v -0.274018 0.330236 -0.0152588
v -0.277052 0.266227 -0.159943
v -0.24896 0.31761 -0.143726
v -0.311267 0.276753 -0.0152588
v -0.30901 0.266227 -0.0828029
v -0.27767 0.31761 -0.0744219
v -0.281163 0.322355 -0.0152588
v -0.30533 0.266227 -0.0917046
v -0.285462 0.31761 -0.0152588
f 1 2 8
f 1 8 3
f 1 3 4
f 1 4 10
f 1 10 11
f 1 11 5
f 1 5 2
f 2 6 7
f 2 7 8
f 2 5 9
f 2 9 16
f 2 16 19
f 2 19 13
f 2 13 6
f 3 8 4
f 4 8 7
f 4 7 10
f 5 11 12
f 5 12 18
f 5 18 20
f 5 20 15
f 5 15 9
f 6 13 7
f 7 13 14
f 7 14 10
f 9 15 16
f 10 14 17
f 10 17 11
f 11 17 12
f 12 17 18
f 13 19 14
f 14 19 17
f 15 20 17
f 15 17 16
f 16 17 19
f 17 20 18
