v -0.278365 0.266227 0.156807
v -0.277036 0.266227 0.159963
v -0.271559 0.27626 0.156807
v -0.214458 0.339218 0.156807
v -0.0726691 0.339218 0.257364
v -0.0726691 0.266227 0.310349
v -0.271197 0.266227 0.167599
v -0.26113 0.289493 0.156807
v -0.222532 0.332101 0.156807
v -0.18941 0.339218 0.189439
v -0.133959 0.339218 0.232007
v -0.0726691 0.338253 0.258311
v -0.0726691 0.31761 0.277897
v -0.0744208 0.31761 0.277671
v -0.082817 0.266227 0.309011
v -0.226196 0.266227 0.22622
v -0.203263 0.31761 0.203283
v -0.238941 0.31761 0.156807
v -0.154819 0.339218 0.215999
v -0.143745 0.31761 0.248962
v -0.0726691 0.325006 0.271193
v -0.0726691 0.318811 0.276815
v -0.159973 0.266227 0.27704
v -0.218565 0.266227 0.232082
f 1 2 3
f 1 3 8
f 1 8 18
f 1 18 9
f 1 9 4
f 1 4 5
f 1 5 6
f 1 6 15
f 1 15 23
f 1 23 24
f 1 24 16
f 1 16 7
f 1 7 2
f 2 7 3
f 3 7 8
f 4 9 10
f 4 10 19
f 4 19 11
f 4 11 5
f 5 11 12
f 5 12 21
f 5 21 22
f 5 22 13
f 5 13 6
f 6 13 14
f 6 14 15
f 7 16 8
f 8 16 17
f 8 17 18
f 9 17 10
f 9 18 17
f 10 17 19
f 11 20 14
f 11 14 12
f 11 19 20
f 12 14 21
f 13 22 14
f 14 20 15
f 14 22 21
f 15 20 23
f 16 24 17
f 17 24 20
f 17 20 19
f 20 24 23
