v 0.263501 -0.342814 -4.8422e-06
v 0.263501 -0.342308 0.0012438
v 0.263501 -0.314313 -0.0706014
v 0.312382 -0.163936 -0.0751399
v 0.322273 -0.163936 -4.8422e-06
v 0.321287 -0.166432 0.0012438
v 0.263501 -0.120814 0.0012438
v 0.263501 -0.309855 -0.0743772
v 0.280429 -0.260998 -0.0751399
v 0.343578 -0.0392056 -0.0751399
v 0.353478 -0.0392056 -4.8422e-06
v 0.322106 -0.163936 0.0012438
v 0.324757 -0.153356 0.0012438
v 0.35331 -0.0392056 0.0012438
v 0.263501 -0.135554 -0.0751399
v 0.263501 -0.308934 -0.0751399
v 0.265554 -0.303139 -0.0751399
v 0.352843 -0.0410779 0.0012438
f 1 2 7
f 1 7 15
f 1 15 16
f 1 16 8
f 1 8 3
f 1 3 4
f 1 4 5
f 1 5 2
f 2 5 6
f 2 6 12
f 2 12 13
f 2 13 18
f 2 18 14
f 2 14 7
f 3 8 9
f 3 9 4
f 4 10 11
f 4 11 5
f 4 9 17
f 4 17 16
f 4 16 15
f 4 15 10
f 5 12 6
f 5 11 13
f 5 13 12
f 7 14 10
f 7 10 15
f 8 16 17
f 8 17 9
f 10 14 11
f 11 14 18
f 11 18 13
