v 0.319917 0.266227 1.00402e-05
v 0.287474 0.31761 1.00402e-05
v 0.277675 0.31761 0.0744106
v 0.309009 0.266227 0.0828238
v 0.317903 0.266227 -0.015234
v 0.315062 0.270743 -0.015234
v 0.285461 0.31761 -0.015234
v 0.281167 0.322355 -0.015234
v 0.265876 0.339218 -0.015234
v 0.267877 0.339218 1.00402e-05
v 0.264449 0.339218 0.0260937
v 0.258753 0.339218 0.0693468
v 0.248699 0.339218 0.0936371
v 0.248967 0.31761 0.143721
v 0.305327 0.266227 0.0917118
v 0.18974 0.266227 0.254201
v 0.18974 0.339218 0.189005
v 0.232007 0.339218 0.133936
v 0.27119 0.266227 0.167589
v 0.277051 0.266227 0.159941
v 0.203285 0.31761 0.203273
v 0.226222 0.266227 0.226192
v 0.18974 0.298125 0.22904
v 0.18974 0.338732 0.189717
v 0.18974 0.31761 0.213664
f 1 2 3
f 1 3 4
f 1 4 15
f 1 15 20
f 1 20 19
f 1 19 22
f 1 22 16
f 1 16 5
f 1 5 6
f 1 6 2
f 2 6 7
f 2 7 8
f 2 8 9
f 2 9 10
f 2 10 11
f 2 11 12
f 2 12 3
f 3 12 13
f 3 13 14
f 3 14 4
f 4 14 15
f 5 9 8
f 5 8 7
f 5 7 6
f 5 16 9
f 9 17 18
f 9 18 13
f 9 13 12
f 9 12 11
f 9 11 10
f 9 16 17
f 13 18 14
f 14 19 20
f 14 20 15
f 14 18 21
f 14 21 19
f 16 22 21
f 16 21 23
f 16 23 25
f 16 25 24
f 16 24 17
f 17 24 21
f 17 21 18
f 19 21 22
f 21 24 25
f 21 25 23
