v -0.27329 -0.306006 0.0168323
v -0.257189 -0.355312 0.0168323
v -0.250565 -0.355312 0.0671708
v -0.266095 -0.306006 0.0713488
v -0.0565659 -0.306006 0.185497
v 0.0504967 -0.313864 0.0168323
v 0.0504967 -0.355312 0.0168323
v -0.22464 -0.355312 0.129714
v -0.23887 -0.306006 0.137083
v 0.0504967 -0.306006 0.268854
v 0.0504967 -0.355312 0.252699
v -0.238585 -0.306006 0.137766
v -0.196749 -0.355312 0.16605
v 0.0504967 -0.306006 0.26893
v 0.0452355 -0.355312 0.253459
v -0.196749 -0.306006 0.192257
v -0.183406 -0.355312 0.18342
v -2.37026e-05 -0.306006 0.275514
v -2.37026e-05 -0.355312 0.259409
v -0.194499 -0.307256 0.194511
v -0.194784 -0.306006 0.19479
v -0.147179 -0.355312 0.211223
v -0.0713354 -0.306006 0.266094
v -0.010356 -0.306194 0.274096
v -0.010356 -0.329935 0.266347
v -0.0671518 -0.355312 0.250547
v -0.137734 -0.306006 0.23857
v -0.131934 -0.341499 0.228543
v -0.129652 -0.355312 0.224643
v -0.137069 -0.306006 0.238848
v -0.0875311 -0.355312 0.242115
v -0.0565659 -0.321537 0.26298
v -0.0565659 -0.306262 0.267968
f 1 2 3
f 1 3 4
f 1 4 9
f 1 9 12
f 1 12 16
f 1 16 21
f 1 21 27
f 1 27 30
f 1 30 23
f 1 23 18
f 1 18 14
f 1 14 10
f 1 10 5
f 1 5 6
f 1 6 7
f 1 7 2
f 2 7 11
f 2 11 15
f 2 15 19
f 2 19 26
f 2 26 31
f 2 31 29
f 2 29 22
f 2 22 17
f 2 17 13
f 2 13 8
f 2 8 3
f 3 8 9
f 3 9 4
f 5 10 6
f 6 10 14
f 6 14 11
f 6 11 7
f 8 12 9
f 8 13 12
f 11 14 15
f 12 13 16
f 13 17 16
f 14 18 19
f 14 19 15
f 16 17 20
f 16 20 21
f 17 22 20
f 18 23 24
f 18 24 25
f 18 25 19
f 19 25 26
f 20 22 27
f 20 27 21
f 22 28 27
f 22 29 28
f 23 30 31
f 23 31 26
f 23 26 32
f 23 32 33
f 23 33 24
f 24 33 25
f 25 33 32
f 25 32 26
f 27 28 30
f 28 29 31
f 28 31 30
