v 0.168925 0.723809 0.0567976
v 0.209373 0.791424 0.0567976
v 0.187292 0.723809 0.0567976
v 0.00266257 0.723809 0.179017
v 0.209982 0.792435 0.0567976
v 0.170143 0.723809 0.0982537
v 0.299091 0.840654 0.0567976
v 0.296102 0.840654 0.0793567
v 0.00266257 0.723809 0.196108
v 0.00266257 0.788493 0.215053
v 0.293839 0.852898 0.0567976
v 0.00266257 0.792435 0.217251
v 0.26549 0.840654 0.153284
v 0.142752 0.723809 0.133997
v 0.299091 0.847895 0.0567976
v 0.296102 0.847895 0.0793567
v 0.00620254 0.723809 0.195644
v 0.00266257 0.840654 0.306218
v 0.291053 0.852898 0.0780139
v 0.00266257 0.852898 0.300968
v 0.216772 0.840654 0.216762
v 0.138951 0.723809 0.138953
v 0.26549 0.847895 0.153284
v 0.0508583 0.723809 0.18976
v 0.00266257 0.847895 0.306218
v 0.079352 0.840654 0.29611
v 0.260935 0.852898 0.150672
v 0.0779883 0.852898 0.291056
v 0.153256 0.840654 0.265494
v 0.216772 0.847895 0.216762
v 0.103203 0.723809 0.166371
v 0.0982415 0.723809 0.170155
v 0.079352 0.847895 0.29611
v 0.213058 0.852898 0.213051
v 0.150673 0.852898 0.260953
v 0.153256 0.847895 0.265494
f 1 2 5
f 1 5 11
f 1 11 15
f 1 15 7
f 1 7 3
f 1 3 6
f 1 6 14
f 1 14 22
f 1 22 31
f 1 31 32
f 1 32 24
f 1 24 17
f 1 17 9
f 1 9 4
f 1 4 2
f 2 4 5
f 3 7 8
f 3 8 6
f 4 9 18
f 4 18 25
f 4 25 20
f 4 20 12
f 4 12 10
f 4 10 5
f 5 10 12
f 5 12 11
f 6 8 13
f 6 13 14
f 7 15 16
f 7 16 8
f 8 16 23
f 8 23 13
f 9 17 18
f 11 19 15
f 11 12 20
f 11 20 28
f 11 28 35
f 11 35 34
f 11 34 27
f 11 27 19
f 13 21 22
f 13 22 14
f 13 23 30
f 13 30 21
f 15 19 16
f 16 19 23
f 17 24 18
f 18 24 26
f 18 26 33
f 18 33 25
f 19 27 23
f 20 25 28
f 21 29 22
f 21 30 36
f 21 36 29
f 22 29 31
f 23 27 30
f 24 32 26
f 25 33 28
f 26 32 29
f 26 29 36
f 26 36 33
f 27 34 30
f 28 33 35
f 29 32 31
f 30 34 35
f 30 35 36
f 33 36 35
