v 0.135507 -0.737766 -0.146678
v 0.157954 -0.843295 -0.146678
v 0.186408 -0.810998 -0.146678
v 0.169157 -0.810998 -0.169163
v 0.104657 -0.737766 -0.170358
v -0.0209125 -0.737766 -0.197817
v 0.153063 -0.843295 -0.153065
v 0.172445 -0.832147 -0.146678
v -0.0209125 -0.747271 -0.199067
v -0.0209125 -0.843295 -0.213706
v 0.186408 -0.821402 -0.146678
v 0.169157 -0.821402 -0.169163
v 0.119595 -0.810998 -0.207175
v 0.100273 -0.737766 -0.17371
v 1.24359e-05 -0.737766 -0.20058
v -0.0209125 -0.810998 -0.236463
v 0.108229 -0.843295 -0.187471
v -0.0209125 -0.833738 -0.223644
v -0.0104805 -0.843295 -0.215083
v 0.119595 -0.821402 -0.207175
v 0.0619347 -0.810998 -0.231073
v 0.0570232 -0.737766 -0.191638
v 0.0519289 -0.737766 -0.19374
v 1.24359e-05 -0.810998 -0.239226
v -0.0209125 -0.821402 -0.236463
v 0.0560287 -0.843295 -0.209086
v 0.0619347 -0.821402 -0.231073
v 1.24359e-05 -0.821402 -0.239226
v 1.24359e-05 -0.843295 -0.21646
v 0.0371739 -0.843295 -0.211569
f 1 2 8
f 1 8 11
f 1 11 3
f 1 3 4
f 1 4 5
f 1 5 14
f 1 14 22
f 1 22 23
f 1 23 15
f 1 15 6
f 1 6 2
f 2 7 8
f 2 6 9
f 2 9 10
f 2 10 19
f 2 19 29
f 2 29 30
f 2 30 26
f 2 26 17
f 2 17 7
f 3 11 12
f 3 12 4
f 4 12 20
f 4 20 13
f 4 13 5
f 5 13 14
f 6 15 24
f 6 24 16
f 6 16 25
f 6 25 18
f 6 18 10
f 6 10 9
f 7 12 11
f 7 11 8
f 7 17 12
f 10 18 19
f 12 17 20
f 13 20 27
f 13 27 21
f 13 21 22
f 13 22 14
f 15 23 21
f 15 21 24
f 16 24 28
f 16 28 25
f 17 26 27
f 17 27 20
f 18 25 28
f 18 28 19
f 19 28 29
f 21 27 28
f 21 28 24
f 21 23 22
f 26 30 28
f 26 28 27
f 28 30 29
