v -0.271235 -0.239744 -0.414995
v -0.278817 -0.234302 -0.414995
v -0.271235 -0.178679 -0.414995
v -0.271235 -0.239744 0.495963
v -0.332534 -0.195616 -0.414995
v -0.2769 -0.235677 0.495963
v -0.317258 -0.206615 0.495963
v -0.396783 -0.0447118 -0.414995
v -0.271235 -0.178679 0.495963
v -0.271235 -0.234264 0.507689
v -0.293528 -0.223628 0.503144
v -0.342316 -0.188551 -0.414995
v -0.326955 -0.199626 0.495963
v -0.342316 -0.188551 0.495963
v -0.396783 -0.126857 -0.414995
v -0.396783 -0.0447118 0.481963
v -0.396783 -0.0447882 0.495963
v -0.27534 -0.178679 0.506144
v -0.271235 -0.187501 0.509144
v -0.271235 -0.231113 0.509235
v -0.272845 -0.23119 0.50878
v -0.314137 -0.202796 0.508235
v -0.325087 -0.19829 0.506053
v -0.309307 -0.210949 0.505053
v -0.286437 -0.226168 0.505599
v -0.349997 -0.18225 0.504053
v -0.350341 -0.182575 -0.414995
v -0.350341 -0.182575 0.495963
v -0.387332 -0.138428 -0.414995
v -0.396783 -0.126857 0.495963
v -0.396783 -0.0512994 0.506235
v -0.396783 -0.0628899 0.510326
v -0.271235 -0.202586 0.513507
v -0.271235 -0.216563 0.513507
v -0.272464 -0.216563 0.513507
v -0.286437 -0.216563 0.510962
v -0.342316 -0.185095 0.506417
v -0.342316 -0.17465 0.51178
v -0.355306 -0.173295 0.50578
v -0.380241 -0.143393 0.506144
v -0.393366 -0.128384 0.50569
v -0.363331 -0.167719 0.503053
v -0.355921 -0.176331 -0.414995
v -0.357334 -0.174746 0.495963
v -0.367976 -0.162105 -0.414995
v -0.363356 -0.167757 0.495963
v -0.396783 -0.121128 0.507235
v -0.396783 -0.0767716 0.513144
v -0.384223 -0.0908252 0.513416
v -0.272464 -0.202586 0.513598
v -0.286437 -0.202586 0.513689
v -0.328356 -0.17465 0.513598
v -0.314383 -0.188609 0.513326
v -0.30041 -0.202586 0.512507
v -0.342316 -0.160673 0.513689
v -0.37025 -0.132738 0.513326
v -0.384223 -0.11878 0.512962
v -0.356277 -0.160673 0.510962
v -0.384629 -0.132929 0.508598
v -0.357334 -0.174746 -0.414995
v -0.363356 -0.167757 -0.414995
v -0.396783 -0.118379 0.508326
v -0.396783 -0.0908252 0.513598
v -0.384223 -0.104802 0.513689
v -0.356277 -0.132738 0.513689
v -0.30041 -0.188609 0.513689
v -0.396783 -0.104802 0.512507
f 1 2 5
f 1 5 12
f 1 12 27
f 1 27 43
f 1 43 60
f 1 60 61
f 1 61 45
f 1 45 29
f 1 29 15
f 1 15 8
f 1 8 3
f 1 3 9
f 1 9 19
f 1 19 33
f 1 33 34
f 1 34 20
f 1 20 10
f 1 10 4
f 1 4 2
f 2 4 6
f 2 6 7
f 2 7 5
f 3 8 16
f 3 16 9
f 4 10 11
f 4 11 6
f 5 7 13
f 5 13 14
f 5 14 12
f 6 11 7
f 7 11 13
f 8 15 30
f 8 30 47
f 8 47 62
f 8 62 67
f 8 67 63
f 8 63 48
f 8 48 32
f 8 32 31
f 8 31 17
f 8 17 16
f 9 16 17
f 9 17 18
f 9 18 19
f 10 20 21
f 10 21 22
f 10 22 23
f 10 23 24
f 10 24 25
f 10 25 11
f 11 25 24
f 11 24 26
f 11 26 14
f 11 14 13
f 12 14 28
f 12 28 27
f 14 26 28
f 15 29 30
f 17 31 18
f 18 31 19
f 19 31 32
f 19 32 33
f 20 34 35
f 20 35 36
f 20 36 21
f 21 36 22
f 22 37 23
f 22 36 38
f 22 38 37
f 23 37 26
f 23 26 24
f 26 37 38
f 26 38 39
f 26 39 40
f 26 40 41
f 26 41 42
f 26 42 28
f 27 28 43
f 28 42 44
f 28 44 43
f 29 45 46
f 29 46 30
f 30 46 42
f 30 42 41
f 30 41 47
f 32 48 33
f 33 48 49
f 33 49 50
f 33 50 34
f 34 50 51
f 34 51 35
f 35 51 52
f 35 52 53
f 35 53 54
f 35 54 36
f 36 54 38
f 38 54 53
f 38 53 52
f 38 52 55
f 38 55 56
f 38 56 57
f 38 57 58
f 38 58 39
f 39 59 40
f 39 58 59
f 40 59 47
f 40 47 41
f 42 46 44
f 43 44 60
f 44 46 61
f 44 61 60
f 45 61 46
f 47 59 62
f 48 63 49
f 49 63 64
f 49 64 50
f 50 64 65
f 50 65 66
f 50 66 51
f 51 66 65
f 51 65 64
f 51 64 55
f 51 55 52
f 55 64 63
f 55 63 56
f 56 63 57
f 57 67 58
f 57 63 67
f 58 67 59
f 59 67 62
