v 0.091289 -0.24405 -0.469687
v 0.091289 -0.258366 -0.414995
v 0.091289 -0.308573 -0.469687
v -0.10154 -0.244385 -0.469687
v -0.10154 -0.258634 -0.414995
v 0.091289 -0.308573 -0.414995
v 0.090817 -0.308654 -0.469687
v -0.10154 -0.309063 -0.469687
v -0.10154 -0.309063 -0.414995
v 0.090817 -0.308654 -0.414995
v 0.0349165 -0.317742 -0.469687
v -0.0924406 -0.309986 -0.469687
v -0.09363 -0.309867 -0.414995
v 0.0349165 -0.317742 -0.414995
v 0.0209461 -0.319802 -0.469687
v -0.0784702 -0.311399 -0.469687
v -0.0768466 -0.311562 -0.414995
v 0.0209461 -0.319802 -0.414995
v 0.00697574 -0.320025 -0.469687
v 0.00697574 -0.320025 -0.414995
f 1 2 6
f 1 6 3
f 1 3 7
f 1 7 11
f 1 11 15
f 1 15 19
f 1 19 16
f 1 16 12
f 1 12 8
f 1 8 4
f 1 4 5
f 1 5 2
f 2 5 9
f 2 9 13
f 2 13 17
f 2 17 20
f 2 20 18
f 2 18 14
f 2 14 10
f 2 10 6
f 3 6 10
f 3 10 7
f 4 8 9
f 4 9 5
f 7 10 14
f 7 14 11
f 8 12 13
f 8 13 9
f 11 14 18
f 11 18 15
f 12 16 13
f 13 16 17
f 15 18 20
f 15 20 19
f 16 20 17
f 16 19 20
