v -0.396783 -0.126841 -0.414995
v -0.407149 -0.114158 -0.414995
v -0.396783 -0.0446704 -0.414995
v -0.396783 -0.126841 0.495963
v -0.415283 -0.104195 -0.414995
v -0.407149 -0.114158 0.495963
v -0.456189 0.132811 -0.414995
v -0.396783 -0.0446704 0.481963
v -0.396783 -0.121097 0.507235
v -0.406494 -0.113345 0.504871
v -0.419618 -0.0983241 0.50369
v -0.426207 -0.0908009 -0.414995
v -0.426207 -0.0908009 0.495963
v -0.506409 0.132811 -0.414995
v -0.456189 0.132811 0.495963
v -0.396783 -0.044772 0.495963
v -0.396783 -0.118352 0.508326
v -0.398103 -0.118301 0.507871
v -0.411559 -0.103712 0.506689
v -0.422687 -0.0908009 0.506144
v -0.435596 -0.0739245 0.506053
v -0.432527 -0.0829473 0.495963
v -0.432527 -0.0829473 -0.414995
v -0.502761 0.110369 -0.414995
v -0.506409 0.132811 0.495963
v -0.458625 0.132811 0.50678
v -0.396783 -0.0512786 0.506235
v -0.396783 -0.10478 0.512507
v -0.39821 -0.10478 0.512416
v -0.412181 -0.0908009 0.511507
v -0.427301 -0.0778894 0.509053
v -0.438375 -0.0628684 0.507962
v -0.449106 -0.0463224 0.50578
v -0.443634 -0.0628684 0.495963
v -0.436819 -0.0759578 0.495963
v -0.433396 -0.0815494 -0.414995
v -0.495034 0.0628659 -0.414995
v -0.495034 0.0628659 0.495963
v -0.503748 0.121095 0.504508
v -0.504692 0.132811 0.506053
v -0.458625 0.13271 0.506871
v -0.468057 0.132811 0.512235
v -0.396783 -0.0628684 0.510326
v -0.396783 -0.0908009 0.513598
v -0.39821 -0.0908009 0.513689
v -0.412181 -0.0768219 0.513598
v -0.426153 -0.0628684 0.513326
v -0.451639 -0.0349105 0.50778
v -0.454085 -0.00697802 0.51278
v -0.464934 -0.00697802 0.507417
v -0.478208 0.0209545 0.506871
v -0.462595 -0.0173479 0.505417
v -0.476105 0.0116013 0.504871
v -0.489605 0.0405758 0.504144
v -0.450094 -0.0485336 0.495963
v -0.443644 -0.0628684 0.481963
v -0.442271 -0.0655117 -0.414995
v -0.436819 -0.0759578 -0.414995
v -0.49233 0.048887 -0.414995
v -0.49233 0.048887 0.495963
v -0.490678 0.048887 0.50578
v -0.49203 0.0628659 0.507326
v -0.496 0.13271 0.511326
v -0.496 0.132811 0.511326
v -0.396783 -0.0767457 0.513144
v -0.482029 0.132811 0.513689
v -0.468057 0.118756 0.513053
v -0.39821 -0.0768219 0.513507
v -0.426153 -0.0488895 0.513689
v -0.440125 -0.020957 0.513689
v -0.468057 0.034908 0.513507
v -0.468057 0.0209545 0.512235
v -0.482029 0.048887 0.511144
v -0.482533 0.035518 0.50778
v -0.489894 0.039915 0.495963
v -0.486772 0.0329255 0.495963
v -0.474131 0.00484055 -0.414995
v -0.443644 -0.0628684 -0.414995
v -0.491847 0.0470824 -0.414995
v -0.482029 0.0628659 0.512689
v -0.482029 0.0768449 0.513235
v -0.482029 0.0907984 0.513598
v -0.482029 0.104777 0.513689
v -0.468057 0.048887 0.513689
v -0.489894 0.039915 -0.414995
v -0.486772 0.0329255 -0.414995
f 1 2 5
f 1 5 12
f 1 12 23
f 1 23 36
f 1 36 58
f 1 58 57
f 1 57 78
f 1 78 77
f 1 77 86
f 1 86 85
f 1 85 79
f 1 79 59
f 1 59 37
f 1 37 24
f 1 24 14
f 1 14 7
f 1 7 3
f 1 3 8
f 1 8 16
f 1 16 27
f 1 27 43
f 1 43 65
f 1 65 44
f 1 44 28
f 1 28 17
f 1 17 9
f 1 9 4
f 1 4 6
f 1 6 2
f 2 6 5
f 3 7 15
f 3 15 8
f 4 9 10
f 4 10 11
f 4 11 6
f 5 6 13
f 5 13 12
f 6 11 13
f 7 14 25
f 7 25 40
f 7 40 64
f 7 64 66
f 7 66 42
f 7 42 26
f 7 26 15
f 8 15 16
f 9 17 18
f 9 18 10
f 10 18 19
f 10 19 20
f 10 20 11
f 11 20 21
f 11 21 22
f 11 22 13
f 12 13 22
f 12 22 23
f 14 24 25
f 15 26 27
f 15 27 16
f 17 28 29
f 17 29 18
f 18 20 19
f 18 29 30
f 18 30 31
f 18 31 20
f 20 31 21
f 21 32 33
f 21 33 34
f 21 34 35
f 21 35 22
f 21 31 32
f 22 35 36
f 22 36 23
f 24 37 38
f 24 38 25
f 25 38 39
f 25 39 40
f 26 41 27
f 26 42 41
f 27 41 43
f 28 44 45
f 28 45 29
f 29 45 46
f 29 46 47
f 29 47 30
f 30 47 31
f 31 47 32
f 32 48 33
f 32 47 49
f 32 49 48
f 33 48 50
f 33 50 51
f 33 51 52
f 33 52 34
f 34 52 53
f 34 53 54
f 34 54 55
f 34 55 56
f 34 56 35
f 35 56 57
f 35 57 58
f 35 58 36
f 37 59 60
f 37 60 38
f 38 60 54
f 38 54 39
f 39 54 61
f 39 61 62
f 39 62 40
f 40 62 63
f 40 63 64
f 41 42 65
f 41 65 43
f 42 66 67
f 42 67 68
f 42 68 65
f 44 68 45
f 44 65 68
f 45 68 66
f 45 66 83
f 45 83 84
f 45 84 70
f 45 70 69
f 45 69 46
f 46 69 47
f 47 69 70
f 47 70 71
f 47 71 49
f 48 49 72
f 48 72 50
f 49 71 72
f 50 72 51
f 51 72 73
f 51 73 74
f 51 74 61
f 51 61 54
f 51 54 53
f 51 53 52
f 54 60 75
f 54 75 76
f 54 76 55
f 55 76 56
f 56 76 77
f 56 77 78
f 56 78 57
f 59 79 60
f 60 79 75
f 61 74 73
f 61 73 62
f 62 73 80
f 62 80 63
f 63 80 81
f 63 81 82
f 63 82 83
f 63 83 66
f 63 66 64
f 66 68 67
f 70 84 71
f 71 82 81
f 71 81 80
f 71 80 72
f 71 84 82
f 72 80 73
f 75 79 85
f 75 85 86
f 75 86 76
f 76 86 77
f 82 84 83
