v -0.00700098 -0.43503 -0.379183
v 0.00768347 -0.43503 -0.378047
v -0.00700098 -0.440125 -0.379113
v -0.0209512 -0.440125 -0.379113
v -0.0209512 -0.43503 -0.379155
v 0.00810855 -0.44057 -0.377878
v 0.0135379 -0.43503 -0.377444
v 0.0144074 -0.436211 -0.377331
v -0.00700098 -0.4541 -0.37851
v -0.0209512 -0.4541 -0.378734
v -0.0361187 -0.453047 -0.37771
v -0.0363119 -0.439063 -0.377822
v -0.0260328 -0.43503 -0.37872
v 0.0135186 -0.44552 -0.377191
v 0.0144847 -0.43503 -0.377345
v 0.0180206 -0.43503 -0.376644
v 0.0198175 -0.44057 -0.376111
v 0.00337475 -0.4541 -0.377598
v 0.000283283 -0.461173 -0.377275
v -0.00700098 -0.461969 -0.377626
v -0.0209512 -0.462492 -0.377836
v -0.0322544 -0.461875 -0.37757
v -0.0415674 -0.457003 -0.377205
v -0.0358675 -0.43503 -0.377878
v -0.0419345 -0.447686 -0.377247
v 0.0209574 -0.4541 -0.374638
v 0.0103692 -0.4541 -0.376714
v 0.0207063 -0.43503 -0.376097
v 0.034927 -0.440125 -0.372338
v 0.0209574 -0.468066 -0.370248
v 0.00575131 -0.46673 -0.373853
v 0.00219613 -0.489817 -0.363641
v -0.00700098 -0.522502 -0.349516
v -0.00700098 -0.519967 -0.350694
v -0.00700098 -0.482033 -0.368326
v -0.00700098 -0.468957 -0.3744
v -0.0209512 -0.522502 -0.35033
v -0.0209512 -0.491683 -0.364497
v -0.0209512 -0.482033 -0.368929
v -0.0209512 -0.469479 -0.374694
v -0.0349207 -0.482033 -0.36848
v -0.0361187 -0.46715 -0.374975
v -0.0488903 -0.468066 -0.372857
v -0.0474991 -0.453047 -0.376097
v -0.0628598 -0.468066 -0.369546
v -0.0628598 -0.4541 -0.372324
v -0.0419345 -0.443011 -0.377247
v -0.040524 -0.43503 -0.377387
v -0.0474991 -0.439063 -0.376125
v -0.0479435 -0.43503 -0.376041
v 0.034927 -0.4541 -0.370655
v 0.0302511 -0.43503 -0.373698
v 0.034927 -0.43503 -0.37252
v 0.0488965 -0.43503 -0.367428
v 0.0488965 -0.440125 -0.367176
v 0.0345599 -0.468032 -0.36604
v 0.0296522 -0.476424 -0.363922
v 0.0209574 -0.478899 -0.3651
v 0.0129583 -0.516551 -0.349095
v 0.0115092 -0.48813 -0.362842
v 0.00364525 -0.518469 -0.349993
v 0.00696857 -0.522502 -0.347454
v -0.0349207 -0.522502 -0.35019
v -0.0349207 -0.520712 -0.351003
v -0.0349207 -0.509974 -0.35587
v -0.0349207 -0.498303 -0.361158
v -0.0451226 -0.490322 -0.363852
v -0.0494313 -0.483077 -0.366292
v -0.0544356 -0.488429 -0.36301
v -0.0628598 -0.478993 -0.365002
v -0.0712454 -0.476253 -0.363781
v -0.0762691 -0.467424 -0.365254
v -0.084558 -0.462346 -0.363711
v -0.0768294 -0.4541 -0.367316
v -0.0628598 -0.440125 -0.372268
v -0.043287 -0.43503 -0.376967
v -0.0628598 -0.43503 -0.372226
v 0.0561421 -0.447712 -0.363431
v 0.0488579 -0.453064 -0.365352
v 0.0441821 -0.463348 -0.364385
v 0.056857 -0.43503 -0.363866
v 0.0566252 -0.440125 -0.363711
v 0.0300773 -0.504828 -0.350161
v 0.0389652 -0.472665 -0.362098
v 0.0209574 -0.507551 -0.351466
v 0.0209574 -0.522502 -0.344256
v 0.0193731 -0.522502 -0.344635
v 0.00849498 -0.522502 -0.34716
v -0.0488903 -0.522502 -0.348773
v -0.0488903 -0.519145 -0.350288
v -0.0488903 -0.509974 -0.354398
v -0.0494313 -0.495391 -0.360822
v -0.0570247 -0.517552 -0.349558
v -0.0623768 -0.522502 -0.346136
v -0.0663377 -0.515018 -0.348464
v -0.0730617 -0.505701 -0.350456
v -0.0768874 -0.522502 -0.34183
v -0.0823747 -0.501659 -0.348731
v -0.0805585 -0.471654 -0.361944
v -0.0860845 -0.492343 -0.350666
v -0.0907603 -0.481142 -0.352322
v -0.0981605 -0.475893 -0.349642
v -0.0994164 -0.468066 -0.350933
v -0.100324 -0.4541 -0.351901
v -0.0917264 -0.4541 -0.358886
v -0.0847513 -0.4541 -0.363824
v -0.0768294 -0.440125 -0.367022
v -0.0768294 -0.43503 -0.366895
v 0.0636003 -0.440125 -0.358718
v 0.071213 -0.450906 -0.350723
v 0.0628081 -0.453971 -0.356361
v 0.0534951 -0.457028 -0.361986
v 0.0488579 -0.468032 -0.359601
v 0.0442207 -0.519633 -0.336626
v 0.0393903 -0.500803 -0.348226
v 0.0638515 -0.43503 -0.358928
v 0.0348111 -0.509683 -0.345813
v 0.0349463 -0.522502 -0.339487
v -0.0523295 -0.522502 -0.34817
v -0.0617585 -0.522502 -0.346276
v -0.0871858 -0.522502 -0.337285
v -0.0941609 -0.522502 -0.333105
v -0.0967114 -0.515266 -0.334578
v -0.0991266 -0.505949 -0.336541
v -0.102682 -0.522502 -0.326049
v -0.109618 -0.522502 -0.31811
v -0.110971 -0.513151 -0.319709
v -0.111898 -0.503834 -0.321589
v -0.105464 -0.468066 -0.342306
v -0.10643 -0.4541 -0.342306
v -0.0999381 -0.440125 -0.35155
v -0.0913786 -0.440125 -0.358535
v -0.0842489 -0.43503 -0.363529
v -0.0843842 -0.440125 -0.363613
v 0.0721984 -0.440125 -0.351732
v 0.0781302 -0.440125 -0.342306
v 0.0745943 -0.454982 -0.343471
v 0.072894 -0.468066 -0.339768
v 0.0694548 -0.460222 -0.348899
v 0.0601224 -0.468066 -0.352574
v 0.0572628 -0.477015 -0.350302
v 0.0535144 -0.486323 -0.347917
v 0.0471769 -0.522502 -0.333414
v 0.0383469 -0.522502 -0.337916
v 0.0693002 -0.43503 -0.354482
v -0.113309 -0.522502 -0.311251
v -0.113251 -0.509084 -0.314772
v -0.11213 -0.496008 -0.322206
v -0.109811 -0.482033 -0.330524
v -0.105619 -0.440125 -0.342306
v -0.0997642 -0.43503 -0.351396
v -0.112381 -0.482033 -0.323539
v -0.110893 -0.467493 -0.328154
v -0.110159 -0.4541 -0.328336
v -0.0912433 -0.43503 -0.358381
v 0.072411 -0.43503 -0.351943
v 0.0785553 -0.43503 -0.342306
v 0.080584 -0.4541 -0.328336
v 0.0782461 -0.468066 -0.328336
v 0.0722178 -0.496008 -0.325068
v 0.0706913 -0.505144 -0.322543
v 0.0711164 -0.478102 -0.33699
v 0.069049 -0.487402 -0.334423
v 0.0596007 -0.522502 -0.324745
v 0.0570503 -0.504768 -0.336233
v 0.0535337 -0.514084 -0.333848
v 0.0496501 -0.522502 -0.331927
v -0.115318 -0.522502 -0.300409
v -0.10529 -0.43503 -0.342306
v -0.112265 -0.471766 -0.32337
v -0.108671 -0.43503 -0.328336
v 0.0808159 -0.43503 -0.333442
v 0.0817047 -0.440125 -0.328336
v 0.0786325 -0.482033 -0.314365
v 0.0749614 -0.522502 -0.300409
v 0.0765458 -0.496008 -0.314365
v 0.0716381 -0.522502 -0.310704
v 0.0710585 -0.522502 -0.3117
v 0.0686819 -0.514461 -0.319808
v 0.0665952 -0.522502 -0.317619
v 0.0583835 -0.522502 -0.325755
v -0.113656 -0.522502 -0.287069
v -0.114313 -0.509974 -0.300409
v -0.112265 -0.471766 -0.318994
v -0.104672 -0.43503 -0.314365
v -0.112768 -0.497215 -0.301166
v -0.11186 -0.502687 -0.293269
v 0.0820718 -0.43503 -0.328336
v 0.0765458 -0.509974 -0.300409
v 0.0752319 -0.522502 -0.287883
v 0.0745943 -0.522502 -0.301895
v -0.111048 -0.522502 -0.280799
v -0.102836 -0.43503 -0.311392
v 0.0798305 -0.43503 -0.319471
v 0.0749035 -0.522502 -0.286326
v -0.10473 -0.522502 -0.272846
v -0.0993005 -0.43503 -0.305837
v 0.0783814 -0.43503 -0.314365
v 0.0717734 -0.522502 -0.275104
v -0.0976581 -0.522502 -0.265243
v -0.0925765 -0.522502 -0.261134
v -0.0963442 -0.43503 -0.30348
v 0.0746136 -0.43503 -0.30825
v 0.071329 -0.522502 -0.274193
v -0.0903352 -0.522502 -0.25938
v -0.0900067 -0.43503 -0.298529
v 0.072295 -0.43503 -0.304799
v 0.0653199 -0.522502 -0.266324
v -0.0791287 -0.522502 -0.252942
v -0.0832828 -0.43503 -0.29369
v -0.0868187 -0.43503 -0.296229
v 0.0670975 -0.43503 -0.300366
v 0.0621512 -0.522502 -0.262256
v -0.0768294 -0.522502 -0.251638
v -0.0821815 -0.43503 -0.293185
v 0.0638322 -0.43503 -0.297814
v 0.0488965 -0.522502 -0.251553
v -0.0644829 -0.522502 -0.245999
v -0.0770999 -0.43503 -0.290898
v 0.0594075 -0.43503 -0.294573
v 0.0364534 -0.522502 -0.24447
v 0.056857 -0.43503 -0.292806
v -0.0627246 -0.522502 -0.245213
v -0.0628598 -0.43503 -0.285498
v 0.034927 -0.43503 -0.284306
v 0.0209574 -0.522502 -0.239504
v 0.0516402 -0.43503 -0.290422
v 0.0488965 -0.43503 -0.289257
v 0.0400279 -0.43503 -0.286073
v -0.0616812 -0.522502 -0.244821
v -0.0500496 -0.522502 -0.241174
v -0.0488903 -0.522502 -0.240823
v -0.0482334 -0.43503 -0.281557
v 0.0259811 -0.43503 -0.282062
v 0.0168806 -0.522502 -0.238747
v 0.0212859 -0.43503 -0.280911
v -0.0349207 -0.522502 -0.237849
v -0.03836 -0.43503 -0.279845
v 0.00696857 -0.522502 -0.236994
v 0.00793465 -0.43503 -0.278835
v -0.0324476 -0.43503 -0.27899
v -0.0209512 -0.522502 -0.23632
v 0.00559674 -0.43503 -0.278625
v 0.000611751 -0.522502 -0.236489
v -0.0209512 -0.43503 -0.277924
v -0.00700098 -0.522502 -0.2359
v -0.00332986 -0.43503 -0.27798
v -0.00700098 -0.43503 -0.277755
f 1 2 3
f 1 3 4
f 1 4 5
f 1 5 13
f 1 13 24
f 1 24 48
f 1 48 76
f 1 76 50
f 1 50 77
f 1 77 108
f 1 108 133
f 1 133 155
f 1 155 151
f 1 151 169
f 1 169 171
f 1 171 185
f 1 185 193
f 1 193 197
f 1 197 202
f 1 202 206
f 1 206 211
f 1 211 210
f 1 210 215
f 1 215 219
f 1 219 224
f 1 224 233
f 1 233 238
f 1 238 241
f 1 241 245
f 1 245 248
f 1 248 247
f 1 247 243
f 1 243 240
f 1 240 236
f 1 236 234
f 1 234 225
f 1 225 229
f 1 229 228
f 1 228 227
f 1 227 222
f 1 222 220
f 1 220 216
f 1 216 212
f 1 212 207
f 1 207 203
f 1 203 198
f 1 198 194
f 1 194 188
f 1 188 172
f 1 172 157
f 1 157 156
f 1 156 145
f 1 145 116
f 1 116 81
f 1 81 54
f 1 54 53
f 1 53 52
f 1 52 28
f 1 28 16
f 1 16 15
f 1 15 7
f 1 7 2
f 2 6 3
f 2 7 8
f 2 8 6
f 3 6 9
f 3 9 10
f 3 10 4
f 4 10 11
f 4 11 12
f 4 12 5
f 5 12 13
f 6 8 14
f 6 14 9
f 7 15 8
f 8 15 16
f 8 16 17
f 8 17 14
f 9 14 18
f 9 18 19
f 9 19 20
f 9 20 21
f 9 21 10
f 10 21 22
f 10 22 23
f 10 23 11
f 11 23 12
f 12 24 13
f 12 23 25
f 12 25 24
f 14 17 26
f 14 26 27
f 14 27 19
f 14 19 18
f 16 28 17
f 17 28 29
f 17 29 26
f 19 27 26
f 19 26 30
f 19 30 31
f 19 31 32
f 19 32 33
f 19 33 34
f 19 34 35
f 19 35 36
f 19 36 20
f 20 36 37
f 20 37 38
f 20 38 39
f 20 39 40
f 20 40 21
f 21 40 41
f 21 41 22
f 22 41 42
f 22 42 43
f 22 43 23
f 23 44 25
f 23 43 45
f 23 45 46
f 23 46 44
f 24 25 47
f 24 47 48
f 25 44 49
f 25 49 50
f 25 50 47
f 26 29 51
f 26 51 30
f 28 52 29
f 29 52 53
f 29 53 54
f 29 54 55
f 29 55 51
f 30 51 56
f 30 56 57
f 30 57 58
f 30 58 59
f 30 59 60
f 30 60 31
f 31 61 32
f 31 60 61
f 32 61 33
f 33 61 62
f 33 62 88
f 33 88 87
f 33 87 86
f 33 86 118
f 33 118 144
f 33 144 143
f 33 143 167
f 33 167 181
f 33 181 164
f 33 164 180
f 33 180 178
f 33 178 177
f 33 177 191
f 33 191 175
f 33 175 190
f 33 190 195
f 33 195 199
f 33 199 204
f 33 204 208
f 33 208 213
f 33 213 217
f 33 217 221
f 33 221 226
f 33 226 235
f 33 235 239
f 33 239 244
f 33 244 246
f 33 246 242
f 33 242 237
f 33 237 232
f 33 232 231
f 33 231 230
f 33 230 223
f 33 223 218
f 33 218 214
f 33 214 209
f 33 209 205
f 33 205 201
f 33 201 200
f 33 200 196
f 33 196 192
f 33 192 182
f 33 182 168
f 33 168 146
f 33 146 126
f 33 126 125
f 33 125 122
f 33 122 121
f 33 121 97
f 33 97 94
f 33 94 120
f 33 120 119
f 33 119 89
f 33 89 63
f 33 63 37
f 33 37 34
f 34 37 35
f 35 37 36
f 37 63 38
f 38 63 39
f 39 63 40
f 40 63 64
f 40 64 65
f 40 65 66
f 40 66 41
f 41 67 42
f 41 66 67
f 42 67 43
f 43 68 69
f 43 69 70
f 43 70 45
f 43 67 68
f 44 50 49
f 44 46 50
f 45 70 71
f 45 71 72
f 45 72 73
f 45 73 46
f 46 74 75
f 46 75 50
f 46 73 74
f 47 50 76
f 47 76 48
f 50 75 77
f 51 55 78
f 51 78 79
f 51 79 80
f 51 80 56
f 54 81 55
f 55 81 82
f 55 82 78
f 56 83 57
f 56 80 84
f 56 84 83
f 57 83 85
f 57 85 58
f 58 85 59
f 59 85 86
f 59 86 87
f 59 87 88
f 59 88 60
f 60 88 62
f 60 62 61
f 63 67 64
f 63 89 67
f 64 67 65
f 65 67 66
f 67 89 90
f 67 90 91
f 67 91 92
f 67 92 68
f 68 92 69
f 69 92 93
f 69 93 94
f 69 94 95
f 69 95 70
f 70 95 71
f 71 95 96
f 71 96 97
f 71 97 98
f 71 98 99
f 71 99 72
f 72 99 73
f 73 99 100
f 73 100 101
f 73 101 102
f 73 102 103
f 73 103 104
f 73 104 105
f 73 105 106
f 73 106 74
f 74 107 77
f 74 77 75
f 74 106 107
f 77 107 108
f 78 82 109
f 78 109 110
f 78 110 111
f 78 111 112
f 78 112 79
f 79 112 80
f 80 112 113
f 80 113 114
f 80 114 115
f 80 115 84
f 81 116 82
f 82 116 109
f 83 84 115
f 83 115 117
f 83 117 118
f 83 118 86
f 83 86 85
f 89 119 90
f 90 119 93
f 90 93 91
f 91 93 92
f 93 120 94
f 93 119 120
f 94 97 95
f 95 97 96
f 97 121 98
f 98 121 100
f 98 100 99
f 100 121 122
f 100 122 123
f 100 123 101
f 101 123 102
f 102 123 124
f 102 124 125
f 102 125 126
f 102 126 103
f 103 126 127
f 103 127 128
f 103 128 129
f 103 129 104
f 104 129 130
f 104 130 131
f 104 131 132
f 104 132 105
f 105 132 133
f 105 133 134
f 105 134 106
f 106 134 108
f 106 108 107
f 108 134 133
f 109 116 135
f 109 135 110
f 110 135 136
f 110 136 137
f 110 137 138
f 110 138 139
f 110 139 111
f 111 139 112
f 112 139 140
f 112 140 141
f 112 141 113
f 113 141 142
f 113 142 114
f 114 142 143
f 114 143 144
f 114 144 115
f 115 144 118
f 115 118 117
f 116 145 135
f 122 125 123
f 123 125 124
f 126 146 127
f 127 146 128
f 128 146 147
f 128 147 148
f 128 148 149
f 128 149 129
f 129 149 130
f 130 150 151
f 130 151 131
f 130 149 152
f 130 152 153
f 130 153 154
f 130 154 150
f 131 151 155
f 131 155 132
f 132 155 133
f 135 145 156
f 135 156 157
f 135 157 136
f 136 157 158
f 136 158 159
f 136 159 137
f 137 159 138
f 138 159 160
f 138 160 161
f 138 161 162
f 138 162 139
f 139 162 163
f 139 163 164
f 139 164 165
f 139 165 140
f 140 165 141
f 141 165 166
f 141 166 142
f 142 166 167
f 142 167 143
f 146 168 147
f 147 168 152
f 147 152 148
f 148 152 149
f 150 169 151
f 150 154 169
f 152 168 170
f 152 170 153
f 153 170 154
f 154 170 171
f 154 171 169
f 157 172 158
f 158 172 173
f 158 173 174
f 158 174 175
f 158 175 176
f 158 176 159
f 159 176 177
f 159 177 160
f 160 177 161
f 161 177 178
f 161 178 179
f 161 179 163
f 161 163 162
f 163 179 180
f 163 180 164
f 164 181 165
f 165 181 166
f 166 181 167
f 168 182 183
f 168 183 184
f 168 184 170
f 170 184 171
f 171 184 186
f 171 186 187
f 171 187 185
f 172 188 173
f 173 188 174
f 174 188 189
f 174 189 175
f 175 191 176
f 175 189 190
f 176 191 177
f 178 180 179
f 182 186 183
f 182 192 187
f 182 187 186
f 183 186 184
f 185 187 192
f 185 192 193
f 188 190 189
f 188 194 195
f 188 195 190
f 192 196 197
f 192 197 193
f 194 198 199
f 194 199 195
f 196 200 197
f 197 200 201
f 197 201 202
f 198 203 204
f 198 204 199
f 201 205 202
f 202 205 206
f 203 207 204
f 204 207 208
f 205 209 210
f 205 210 211
f 205 211 206
f 207 212 213
f 207 213 208
f 209 214 210
f 210 214 215
f 212 216 217
f 212 217 213
f 214 218 215
f 215 218 219
f 216 220 217
f 217 220 222
f 217 222 221
f 218 223 219
f 219 223 224
f 221 225 226
f 221 222 227
f 221 227 228
f 221 228 229
f 221 229 225
f 223 230 224
f 224 230 231
f 224 231 232
f 224 232 233
f 225 234 226
f 226 234 236
f 226 236 235
f 232 237 233
f 233 237 238
f 235 236 239
f 236 240 239
f 237 241 238
f 237 242 241
f 239 240 243
f 239 243 244
f 241 242 245
f 242 246 245
f 243 247 246
f 243 246 244
f 245 246 248
f 246 247 248
