v 0.20556 0.635736 0.513593
v 0.188607 0.649712 0.513211
v 0.174637 0.649712 0.513689
v 0.202577 0.635736 0.513689
v 0.20556 0.621761 0.512828
v 0.20556 0.649851 0.510531
v 0.202577 0.649712 0.511297
v 0.146697 0.663668 0.513498
v 0.160667 0.663668 0.512254
v 0.118758 0.677643 0.512828
v 0.104788 0.677643 0.513498
v 0.132727 0.663668 0.513689
v 0.188607 0.635736 0.513689
v -0.000379738 0.677643 0.513689
v 0.0209682 0.663668 0.51168
v 0.202577 0.621761 0.512637
v 0.20556 0.610444 0.507469
v 0.20556 0.658163 0.505268
v 0.202577 0.658728 0.505938
v 0.188607 0.661347 0.507852
v 0.160667 0.673656 0.506895
v 0.118758 0.688167 0.507469
v 0.0209682 0.691619 0.511871
v 0.104788 0.689417 0.508139
v 0.0908379 0.677643 0.513593
v 0.00699831 0.691619 0.512541
v -0.000379738 0.691619 0.512732
v 0.0768478 0.677643 0.513689
v -0.000379738 0.663668 0.510053
v 0.00699831 0.663668 0.510723
v -0.000379738 0.655842 0.504694
v 0.20556 0.606526 0.495986
v 0.20556 0.659641 0.495986
v 0.170605 0.671771 0.504981
v 0.130369 0.686382 0.505651
v 0.118758 0.691698 0.495986
v 0.104788 0.694198 0.495986
v 0.0576569 0.69878 0.503354
v 0.048908 0.699216 0.504311
v 0.00699831 0.701339 0.507182
v -0.000379738 0.701706 0.507373
v 0.0349381 0.699931 0.505555
v 0.0209682 0.700635 0.506512
v -0.000379738 0.654989 0.495986
v -0.000379738 0.649087 -0.463918
v 0.190764 0.606734 -0.463918
v 0.20556 0.60349 -0.463918
v 0.172077 0.672337 0.495986
v 0.20556 0.659641 -0.463918
v 0.185785 0.667139 -0.463918
v 0.139682 0.684616 0.495986
v 0.132687 0.687264 0.495986
v 0.128555 0.688584 -0.463918
v 0.118758 0.691698 -0.463918
v 0.114605 0.692442 -0.463918
v 0.0655187 0.698165 0.482015
v 0.00699831 0.704077 0.495986
v 0.104788 0.694198 -0.463918
v 0.0735015 0.697362 -0.463918
v -0.000379738 0.704821 0.495986
v -0.000379738 0.704821 -0.463918
v 0.172077 0.672337 -0.463918
v 0.134763 0.686481 -0.463918
v 0.132687 0.687264 -0.463918
v 0.00699831 0.704077 -0.463918
f 1 2 3
f 1 3 4
f 1 4 5
f 1 5 17
f 1 17 32
f 1 32 47
f 1 47 49
f 1 49 33
f 1 33 18
f 1 18 6
f 1 6 7
f 1 7 2
f 2 8 3
f 2 7 9
f 2 9 10
f 2 10 8
f 3 8 11
f 3 11 12
f 3 12 28
f 3 28 14
f 3 14 13
f 3 13 4
f 4 13 5
f 5 13 14
f 5 14 15
f 5 15 16
f 5 16 17
f 6 18 19
f 6 19 20
f 6 20 7
f 7 20 21
f 7 21 9
f 8 10 11
f 9 21 22
f 9 22 10
f 10 23 26
f 10 26 11
f 10 22 24
f 10 24 23
f 11 25 12
f 11 26 27
f 11 27 25
f 12 25 28
f 14 28 27
f 14 27 41
f 14 41 60
f 14 60 61
f 14 61 45
f 14 45 44
f 14 44 31
f 14 31 29
f 14 29 30
f 14 30 15
f 15 30 16
f 16 30 29
f 16 29 17
f 17 31 32
f 17 29 31
f 18 33 34
f 18 34 19
f 19 34 35
f 19 35 21
f 19 21 20
f 21 35 22
f 22 35 36
f 22 36 37
f 22 37 38
f 22 38 39
f 22 39 24
f 23 24 40
f 23 40 41
f 23 41 26
f 24 39 42
f 24 42 43
f 24 43 40
f 25 27 28
f 26 41 27
f 31 44 32
f 32 44 45
f 32 45 46
f 32 46 47
f 33 48 34
f 33 49 50
f 33 50 48
f 34 48 51
f 34 51 52
f 34 52 35
f 35 52 36
f 36 52 53
f 36 53 54
f 36 54 55
f 36 55 37
f 37 56 57
f 37 57 38
f 37 55 58
f 37 58 59
f 37 59 56
f 38 57 60
f 38 60 39
f 39 60 42
f 40 43 60
f 40 60 41
f 42 60 43
f 45 61 65
f 45 65 59
f 45 59 58
f 45 58 55
f 45 55 54
f 45 54 53
f 45 53 64
f 45 64 63
f 45 63 62
f 45 62 50
f 45 50 49
f 45 49 47
f 45 47 46
f 48 50 62
f 48 62 63
f 48 63 51
f 51 63 52
f 52 63 64
f 52 64 53
f 56 59 57
f 57 59 65
f 57 65 61
f 57 61 60
