v -0.506409 0.132811 -0.469687
v -0.506409 0.132811 -0.414995
v -0.441799 0.132811 -0.469687
v -0.495032 0.0628594 -0.469687
v -0.456185 0.132811 -0.414995
v -0.495032 0.0628594 -0.414995
v -0.433622 0.11129 -0.469687
v -0.494722 0.0612462 -0.469687
v -0.400708 -0.0370959 -0.414995
v -0.388531 -0.0112173 -0.469687
v -0.492334 0.048889 -0.414995
v -0.492334 0.048889 -0.469687
v -0.455242 -0.0370959 -0.414995
v -0.38446 -0.0370959 -0.469687
v -0.489898 0.0399412 -0.414995
v -0.489898 0.0399412 -0.469687
v -0.455242 -0.0370959 -0.469687
v -0.481375 0.0209647 -0.414995
v -0.486771 0.032956 -0.414995
v -0.486771 0.032956 -0.469687
v -0.481375 0.0209647 -0.469687
f 1 2 5
f 1 5 3
f 1 3 7
f 1 7 10
f 1 10 14
f 1 14 17
f 1 17 21
f 1 21 20
f 1 20 16
f 1 16 12
f 1 12 8
f 1 8 4
f 1 4 6
f 1 6 2
f 2 6 11
f 2 11 15
f 2 15 19
f 2 19 18
f 2 18 13
f 2 13 9
f 2 9 5
f 3 5 7
f 4 8 6
f 5 9 10
f 5 10 7
f 6 8 11
f 8 12 11
f 9 13 17
f 9 17 14
f 9 14 10
f 11 12 16
f 11 16 15
f 13 18 21
f 13 21 17
f 15 16 20
f 15 20 19
f 18 19 20
f 18 20 21
