v 0.0747329 -0.522877 -0.301132
v 0.0732985 -0.522502 -0.280845
v 0.0650654 -0.649674 -0.0176756
v 0.0742417 -0.537948 -0.286414
v 0.0698992 -0.541983 -0.299341
v 0.068897 -0.523252 -0.314059
v 0.0536491 -0.522698 -0.328908
v -0.00700841 -0.522502 -0.34952
v 0.0637293 -0.522502 -0.264238
v 0.0586597 -0.637586 -0.0176756
v -0.124885 -0.662477 -0.0176756
v 0.0227014 -0.693493 -0.0185222
v 0.0539832 -0.676119 -0.018913
v 0.0634542 -0.663656 -0.0193363
v 0.0655763 -0.649674 -0.048903
v 0.0699581 -0.61514 -0.18179
v 0.0703118 -0.588427 -0.239719
v 0.0709406 -0.562357 -0.272444
v 0.0592099 -0.555268 -0.300253
v 0.0535705 -0.549715 -0.31217
v 0.0581292 -0.536519 -0.317934
v 0.068956 -0.555322 -0.285925
v 0.0395606 -0.548144 -0.323828
v 0.0353752 -0.53068 -0.335257
v 0.0138003 -0.522627 -0.345807
v 0.00696228 -0.537948 -0.340142
v -0.00700841 -0.537948 -0.342323
v -0.0209791 -0.537948 -0.343235
v -0.0209791 -0.522502 -0.350334
v 0.0488744 -0.522502 -0.251539
v 0.0475775 -0.629354 -0.0176756
v -0.124531 -0.676441 -0.0193363
v -0.116495 -0.687619 -0.0193363
v -0.0768226 -0.702922 -0.0193363
v -0.0628519 -0.704618 -0.0193363
v -0.112899 -0.645335 -0.0176756
v -0.112349 -0.522502 -0.283906
v -0.115355 -0.523252 -0.300383
v -0.126005 -0.656031 -0.0766462
v -0.125985 -0.671762 -0.039525
v -0.041493 -0.704921 -0.0193363
v 0.00709983 -0.69835 -0.018913
v 0.0209526 -0.693011 -0.0349337
v 0.03903 -0.68653 -0.0193363
v 0.0438638 -0.682583 -0.0331428
v 0.0563411 -0.671102 -0.0531361
v 0.0601334 -0.667977 -0.0349337
v 0.059878 -0.661638 -0.0908434
v 0.0653012 -0.649674 -0.104813
v 0.0655763 -0.649674 -0.0908434
v 0.0656746 -0.649674 -0.0768742
v 0.0656746 -0.649674 -0.0629049
v 0.0666374 -0.635711 -0.146721
v 0.06481 -0.635711 -0.16069
v 0.0686416 -0.605337 -0.218391
v 0.0668928 -0.602141 -0.231285
v 0.0701743 -0.574071 -0.260136
v 0.0541993 -0.599587 -0.257042
v 0.0546906 -0.58607 -0.271598
v 0.0430188 -0.587695 -0.280357
v 0.039482 -0.561804 -0.31051
v 0.0664016 -0.593391 -0.244408
v 0.00873073 -0.549608 -0.333662
v 0.0214832 -0.540073 -0.335648
v 0.0251183 -0.556804 -0.322786
v -0.00700841 -0.552215 -0.335192
v -0.0209791 -0.553322 -0.335811
v -0.0349105 -0.553465 -0.335908
v -0.0349105 -0.537948 -0.34317
v -0.0407463 -0.52427 -0.348771
v -0.0620069 -0.522609 -0.346166
v 0.036456 -0.522502 -0.244441
v 0.0271029 -0.622051 -0.0176756
v -0.118872 -0.683155 -0.0349337
v -0.0976312 -0.698136 -0.0207691
v -0.114235 -0.686547 -0.048903
v -0.104784 -0.693743 -0.0349337
v -0.0913827 -0.698708 -0.0349337
v -0.0768226 -0.701636 -0.0349337
v -0.0628519 -0.70335 -0.0349337
v -0.0489008 -0.703886 -0.0349337
v -0.0851932 -0.629872 -0.0176756
v -0.104725 -0.522502 -0.272802
v -0.102544 -0.523252 -0.325912
v -0.111405 -0.523252 -0.314515
v -0.116809 -0.551911 -0.286414
v -0.121623 -0.607801 -0.216534
v -0.126005 -0.65437 -0.106408
v -0.126005 -0.654728 -0.0920157
v -0.113645 -0.545287 -0.302043
v -0.123116 -0.661459 -0.126271
v -0.120307 -0.670388 -0.104813
v -0.0209791 -0.703493 -0.0193363
v -0.0349105 -0.703422 -0.0349337
v -0.00624208 -0.701207 -0.0193363
v 0.000124309 -0.698618 -0.0353245
v 0.00696228 -0.689315 -0.0908434
v 0.0129553 -0.684048 -0.117186
v 0.0190466 -0.68394 -0.104813
v 0.0218368 -0.684905 -0.0908434
v 0.0278888 -0.684637 -0.077037
v 0.0357486 -0.68494 -0.048903
v 0.0483831 -0.670084 -0.104813
v 0.0497389 -0.67103 -0.0908434
v 0.0549264 -0.669852 -0.0717619
v 0.0593278 -0.660709 -0.104813
v 0.061725 -0.65471 -0.118815
v 0.0577559 -0.644835 -0.165542
v 0.0602513 -0.619801 -0.216534
v 0.0509965 -0.614069 -0.243138
v 0.0384209 -0.615747 -0.252549
v 0.0370651 -0.579446 -0.292926
v 0.038696 -0.599105 -0.270556
v 0.0239197 -0.613105 -0.26362
v 0.00696228 -0.565518 -0.32093
v 0.00696228 -0.582606 -0.302858
v -0.00700841 -0.567071 -0.322558
v -0.0209791 -0.567893 -0.323404
v -0.0349105 -0.56816 -0.323632
v -0.0489008 -0.537948 -0.341835
v -0.0489008 -0.567678 -0.323046
v -0.0628519 -0.566518 -0.321841
v -0.0552869 -0.550643 -0.334834
v -0.0748576 -0.547411 -0.331512
v -0.0820689 -0.525252 -0.338351
v 0.0189091 -0.522502 -0.2391
v 0.00696228 -0.618426 -0.0176756
v -0.115885 -0.674173 -0.118815
v -0.108203 -0.687565 -0.0660309
v -0.107181 -0.682226 -0.104813
v -0.104784 -0.691726 -0.048903
v -0.0990067 -0.683833 -0.120345
v -0.0833265 -0.698565 -0.0487728
v -0.0850163 -0.684922 -0.135617
v -0.0768226 -0.691511 -0.104813
v -0.0705544 -0.698261 -0.0642074
v -0.0628519 -0.693297 -0.104813
v -0.0530861 -0.699315 -0.0668775
v -0.0489008 -0.695886 -0.0908434
v -0.036954 -0.698779 -0.0683102
v -0.0628519 -0.623068 -0.0176756
v -0.0945463 -0.522502 -0.262708
v -0.0940157 -0.550358 -0.320734
v -0.103094 -0.556643 -0.309012
v -0.119599 -0.593838 -0.244506
v -0.120483 -0.607801 -0.230536
v -0.122095 -0.621747 -0.202565
v -0.111346 -0.566339 -0.290451
v -0.120405 -0.635711 -0.188596
v -0.120935 -0.649674 -0.16069
v -0.116573 -0.664156 -0.14646
v -0.0209791 -0.702243 -0.0349337
v -0.0349105 -0.695476 -0.0908434
v -0.0237693 -0.699082 -0.0594858
v -0.0125888 -0.698868 -0.0508568
v 0.000360102 -0.684726 -0.133565
v 0.0209526 -0.679191 -0.132751
v 0.0336658 -0.683994 -0.0629049
v 0.0349037 -0.675637 -0.118815
v 0.0454554 -0.668888 -0.125164
v 0.055732 -0.654906 -0.144278
v 0.0548281 -0.641853 -0.179674
v 0.0575201 -0.630425 -0.199732
v 0.0503088 -0.629604 -0.214678
v 0.042508 -0.627122 -0.231318
v 0.0323492 -0.626783 -0.241575
v 0.0101062 -0.629282 -0.250758
v 0.00696228 -0.612997 -0.270523
v 0.00696228 -0.602748 -0.281431
v -0.00700841 -0.607908 -0.27951
v -0.00700841 -0.590802 -0.297582
v -0.0209791 -0.612408 -0.276938
v -0.0349105 -0.612801 -0.277361
v -0.0489008 -0.612444 -0.277003
v -0.0628519 -0.618265 -0.269058
v -0.0628519 -0.594177 -0.293773
v -0.0787285 -0.563982 -0.319334
v -0.0768226 -0.592159 -0.291721
v 0.00377909 -0.522502 -0.236723
v -0.00700841 -0.617551 -0.0176756
v -0.109165 -0.675441 -0.134966
v -0.0628519 -0.684958 -0.147697
v -0.0628519 -0.689262 -0.132751
v -0.103565 -0.671709 -0.152484
v -0.0889069 -0.671262 -0.165932
v -0.0768226 -0.676762 -0.16069
v -0.0489008 -0.689851 -0.132751
v -0.0349105 -0.689494 -0.132751
v -0.0489008 -0.620444 -0.0176756
v -0.0633431 -0.522502 -0.24545
v -0.0768226 -0.522502 -0.251604
v -0.0937013 -0.570267 -0.304811
v -0.100186 -0.58907 -0.281594
v -0.11284 -0.613372 -0.244831
v -0.117045 -0.626765 -0.216534
v -0.116298 -0.65021 -0.174464
v -0.11451 -0.645746 -0.188596
v -0.113685 -0.65862 -0.165151
v -0.0209791 -0.696297 -0.0768742
v -0.0209791 -0.688351 -0.132751
v -0.014652 -0.684244 -0.145353
v 0.00696228 -0.679405 -0.146721
v 0.0209133 -0.672173 -0.153461
v 0.0334496 -0.670316 -0.145548
v 0.0431564 -0.657549 -0.162676
v 0.042449 -0.64305 -0.196346
v 0.0289303 -0.643139 -0.210543
v 0.0155491 -0.639746 -0.228224
v -0.00700841 -0.628086 -0.257954
v -0.00700841 -0.639532 -0.240012
v -0.0209791 -0.62914 -0.259126
v -0.0349105 -0.629586 -0.259615
v -0.0489008 -0.629354 -0.259322
v -0.0628519 -0.628532 -0.258377
v -0.0786696 -0.626425 -0.25613
v -0.0768226 -0.609516 -0.27404
v -0.084309 -0.601069 -0.279706
v -0.0844072 -0.573214 -0.307677
v -0.0156738 -0.522502 -0.236137
v -0.0287602 -0.618122 -0.0176756
v -0.0628519 -0.679012 -0.16069
v -0.0489008 -0.679869 -0.16069
v -0.0489008 -0.685315 -0.148544
v -0.109598 -0.655228 -0.178925
v -0.100441 -0.644192 -0.212594
v -0.100284 -0.658013 -0.184428
v -0.092149 -0.641746 -0.224838
v -0.0768226 -0.643139 -0.231448
v -0.0768226 -0.670388 -0.174171
v -0.0628519 -0.673191 -0.173064
v -0.0349105 -0.685155 -0.148251
v -0.0489008 -0.522502 -0.240761
v -0.0936228 -0.598391 -0.277036
v -0.0947428 -0.61639 -0.258312
v -0.102878 -0.626175 -0.242194
v -0.112663 -0.625818 -0.229527
v -0.111209 -0.642425 -0.202142
v -0.0209791 -0.678548 -0.16069
v -0.00700841 -0.676351 -0.16069
v 0.00582262 -0.669334 -0.169938
v 0.0279478 -0.656674 -0.181693
v -0.0205272 -0.642728 -0.237602
v -0.00700841 -0.668655 -0.177394
v -0.0209791 -0.669727 -0.179706
v -0.0349105 -0.641496 -0.242259
v -0.0489008 -0.641389 -0.242129
v -0.0640701 -0.641817 -0.23884
v -0.0768226 -0.635889 -0.244506
v -0.0896339 -0.631782 -0.244441
v -0.0349105 -0.522502 -0.23783
v -0.0561121 -0.656692 -0.209631
v -0.0349105 -0.679655 -0.16069
v -0.0489008 -0.673619 -0.174041
v -0.0349105 -0.67353 -0.17391
v -0.0276795 -0.65671 -0.209631
f 1 2 3
f 1 3 4
f 1 4 5
f 1 5 6
f 1 6 7
f 1 7 2
f 2 7 8
f 2 8 29
f 2 29 37
f 2 37 83
f 2 83 142
f 2 142 191
f 2 191 190
f 2 190 232
f 2 232 250
f 2 250 219
f 2 219 179
f 2 179 126
f 2 126 72
f 2 72 30
f 2 30 9
f 2 9 10
f 2 10 3
f 3 10 31
f 3 31 73
f 3 73 127
f 3 127 180
f 3 180 220
f 3 220 189
f 3 189 141
f 3 141 82
f 3 82 36
f 3 36 11
f 3 11 12
f 3 12 13
f 3 13 14
f 3 14 15
f 3 15 16
f 3 16 4
f 4 17 18
f 4 18 5
f 4 16 17
f 5 19 20
f 5 20 21
f 5 21 6
f 5 18 22
f 5 22 19
f 6 21 7
f 7 21 23
f 7 23 24
f 7 24 25
f 7 25 8
f 8 25 26
f 8 26 27
f 8 27 28
f 8 28 29
f 9 30 31
f 9 31 10
f 11 32 33
f 11 33 34
f 11 34 35
f 11 35 12
f 11 36 37
f 11 37 38
f 11 38 39
f 11 39 40
f 11 40 32
f 12 35 41
f 12 41 42
f 12 42 43
f 12 43 44
f 12 44 13
f 13 44 45
f 13 45 46
f 13 46 47
f 13 47 14
f 14 47 48
f 14 48 49
f 14 49 50
f 14 50 51
f 14 51 52
f 14 52 15
f 15 52 16
f 16 52 51
f 16 51 50
f 16 50 49
f 16 49 53
f 16 53 54
f 16 54 55
f 16 55 17
f 17 55 56
f 17 56 57
f 17 57 18
f 18 57 22
f 19 22 58
f 19 58 59
f 19 59 20
f 20 59 60
f 20 60 61
f 20 61 23
f 20 23 21
f 22 57 62
f 22 62 58
f 23 63 64
f 23 64 24
f 23 61 65
f 23 65 63
f 24 64 25
f 25 64 26
f 26 64 63
f 26 63 66
f 26 66 27
f 27 66 67
f 27 67 28
f 28 67 68
f 28 68 69
f 28 69 29
f 29 69 70
f 29 70 71
f 29 71 37
f 30 72 73
f 30 73 31
f 32 40 74
f 32 74 33
f 33 75 34
f 33 74 76
f 33 76 77
f 33 77 75
f 34 75 78
f 34 78 79
f 34 79 80
f 34 80 35
f 35 80 81
f 35 81 41
f 36 82 83
f 36 83 37
f 37 71 84
f 37 84 85
f 37 85 38
f 38 86 87
f 38 87 88
f 38 88 89
f 38 89 39
f 38 85 90
f 38 90 86
f 39 89 88
f 39 88 40
f 40 88 91
f 40 91 92
f 40 92 74
f 41 93 42
f 41 81 94
f 41 94 93
f 42 93 95
f 42 95 96
f 42 96 43
f 43 96 97
f 43 97 98
f 43 98 99
f 43 99 100
f 43 100 101
f 43 101 102
f 43 102 44
f 44 102 45
f 45 102 103
f 45 103 104
f 45 104 105
f 45 105 46
f 46 105 106
f 46 106 48
f 46 48 47
f 48 106 107
f 48 107 49
f 49 107 53
f 53 107 54
f 54 107 108
f 54 108 109
f 54 109 55
f 55 109 56
f 56 109 110
f 56 110 62
f 56 62 57
f 58 62 110
f 58 110 111
f 58 111 60
f 58 60 59
f 60 112 61
f 60 111 113
f 60 113 112
f 61 112 114
f 61 114 65
f 63 65 115
f 63 115 66
f 65 116 115
f 65 114 116
f 66 115 117
f 66 117 67
f 67 117 118
f 67 118 119
f 67 119 68
f 68 120 69
f 68 119 121
f 68 121 122
f 68 122 123
f 68 123 120
f 69 120 70
f 70 120 71
f 71 120 123
f 71 123 124
f 71 124 125
f 71 125 84
f 72 126 127
f 72 127 73
f 74 92 128
f 74 128 76
f 75 77 78
f 76 129 77
f 76 128 130
f 76 130 129
f 77 129 131
f 77 131 132
f 77 132 78
f 78 133 79
f 78 132 134
f 78 134 133
f 79 133 135
f 79 135 136
f 79 136 80
f 80 136 137
f 80 137 138
f 80 138 81
f 81 138 139
f 81 139 140
f 81 140 94
f 82 141 142
f 82 142 83
f 84 125 143
f 84 143 144
f 84 144 90
f 84 90 85
f 86 90 145
f 86 145 87
f 87 145 146
f 87 146 147
f 87 147 88
f 88 147 91
f 90 144 148
f 90 148 146
f 90 146 145
f 91 147 149
f 91 149 150
f 91 150 151
f 91 151 128
f 91 128 92
f 93 94 152
f 93 152 95
f 94 140 153
f 94 153 154
f 94 154 152
f 95 152 96
f 96 155 156
f 96 156 97
f 96 152 155
f 97 156 98
f 98 156 157
f 98 157 99
f 99 157 101
f 99 101 100
f 101 158 102
f 101 157 159
f 101 159 158
f 102 158 159
f 102 159 160
f 102 160 103
f 103 160 106
f 103 106 105
f 103 105 104
f 106 160 161
f 106 161 107
f 107 161 108
f 108 162 163
f 108 163 109
f 108 161 162
f 109 163 164
f 109 164 110
f 110 164 165
f 110 165 166
f 110 166 111
f 111 166 167
f 111 167 114
f 111 114 113
f 112 113 114
f 114 168 169
f 114 169 116
f 114 167 168
f 115 116 170
f 115 170 171
f 115 171 117
f 116 169 170
f 117 171 172
f 117 172 118
f 118 173 119
f 118 172 173
f 119 173 174
f 119 174 121
f 121 174 175
f 121 175 176
f 121 176 122
f 122 177 123
f 122 176 178
f 122 178 177
f 123 177 124
f 124 177 143
f 124 143 125
f 126 179 127
f 127 179 180
f 128 151 181
f 128 181 130
f 129 130 132
f 129 132 131
f 130 181 132
f 132 181 134
f 133 134 135
f 134 182 183
f 134 183 135
f 134 181 184
f 134 184 185
f 134 185 186
f 134 186 182
f 135 183 136
f 136 183 137
f 137 183 138
f 138 183 187
f 138 187 139
f 139 187 188
f 139 188 140
f 140 188 153
f 141 189 190
f 141 190 191
f 141 191 142
f 143 177 192
f 143 192 144
f 144 192 193
f 144 193 194
f 144 194 148
f 146 195 147
f 146 148 194
f 146 194 195
f 147 195 149
f 149 195 150
f 150 196 151
f 150 195 196
f 151 196 197
f 151 197 198
f 151 198 181
f 152 154 199
f 152 199 155
f 153 188 154
f 154 188 200
f 154 200 199
f 155 199 200
f 155 200 156
f 156 200 201
f 156 201 202
f 156 202 157
f 157 202 203
f 157 203 204
f 157 204 159
f 159 204 160
f 160 204 205
f 160 205 161
f 161 205 162
f 162 205 164
f 162 164 163
f 164 205 206
f 164 206 165
f 165 206 207
f 165 207 166
f 166 207 208
f 166 208 167
f 167 209 168
f 167 208 210
f 167 210 209
f 168 209 170
f 168 170 169
f 170 209 211
f 170 211 172
f 170 172 171
f 172 211 212
f 172 212 173
f 173 212 213
f 173 213 174
f 174 213 214
f 174 214 175
f 175 214 215
f 175 215 216
f 175 216 176
f 176 216 178
f 177 178 217
f 177 217 218
f 177 218 192
f 178 216 215
f 178 215 217
f 179 219 180
f 180 219 220
f 181 198 184
f 182 186 221
f 182 221 222
f 182 222 223
f 182 223 183
f 183 223 187
f 184 198 224
f 184 224 225
f 184 225 226
f 184 226 185
f 185 226 227
f 185 227 228
f 185 228 229
f 185 229 186
f 186 229 230
f 186 230 221
f 187 223 231
f 187 231 188
f 188 231 200
f 189 220 232
f 189 232 190
f 192 218 233
f 192 233 193
f 193 233 234
f 193 234 235
f 193 235 194
f 194 235 236
f 194 236 195
f 195 236 197
f 195 197 196
f 197 236 237
f 197 237 198
f 198 237 224
f 200 231 201
f 201 231 238
f 201 238 239
f 201 239 202
f 202 239 240
f 202 240 203
f 203 240 208
f 203 208 207
f 203 207 241
f 203 241 204
f 204 241 206
f 204 206 205
f 206 241 207
f 208 240 210
f 209 210 211
f 210 242 211
f 210 240 243
f 210 243 244
f 210 244 242
f 211 242 245
f 211 245 212
f 212 245 246
f 212 246 213
f 213 246 214
f 214 246 247
f 214 247 248
f 214 248 215
f 215 248 249
f 215 249 234
f 215 234 217
f 217 234 218
f 218 234 233
f 219 250 220
f 220 250 232
f 221 230 251
f 221 251 222
f 222 252 223
f 222 251 253
f 222 253 254
f 222 254 252
f 223 252 231
f 224 237 225
f 225 237 235
f 225 235 227
f 225 227 226
f 227 235 249
f 227 249 228
f 228 249 248
f 228 248 247
f 228 247 229
f 229 247 230
f 230 247 251
f 231 252 238
f 234 249 235
f 235 237 236
f 238 244 243
f 238 243 239
f 238 252 255
f 238 255 244
f 239 243 240
f 242 244 255
f 242 255 245
f 245 255 254
f 245 254 253
f 245 253 251
f 245 251 246
f 246 251 247
f 252 254 255
