v -0.126005 -0.272444 0.513507
v -0.132743 -0.258481 0.510326
v -0.146718 -0.258481 0.512962
v -0.271221 -0.202603 0.513507
v -0.132743 -0.272444 0.513689
v -0.126005 -0.28642 0.513326
v -0.126005 -0.258334 0.508598
v -0.271221 -0.187522 0.509144
v -0.258483 -0.202603 0.512053
v -0.271221 -0.216579 0.513507
v -0.258483 -0.216579 0.513689
v -0.146718 -0.272444 0.513689
v -0.160692 -0.272444 0.513507
v -0.132743 -0.28642 0.513053
v -0.126005 -0.299229 0.507599
v -0.126005 -0.251407 0.503053
v -0.132743 -0.25013 0.505053
v -0.258483 -0.191747 0.50678
v -0.271221 -0.17868 0.495963
v -0.230535 -0.244505 0.513598
v -0.244509 -0.230542 0.513689
v -0.271221 -0.231132 0.509235
v -0.258483 -0.230542 0.513053
v -0.188626 -0.258481 0.513689
v -0.202586 -0.258481 0.513326
v -0.174652 -0.272444 0.512416
v -0.146718 -0.28642 0.510689
v -0.132743 -0.297596 0.507689
v -0.126005 -0.303982 0.495963
v -0.126005 -0.251334 0.495963
v -0.271221 -0.17868 -0.414995
v -0.244509 -0.244505 0.511962
v -0.271221 -0.234276 0.507689
v -0.257772 -0.244383 0.507599
v -0.21656 -0.258481 0.511598
v -0.174652 -0.282662 0.507144
v -0.146718 -0.294955 0.505326
v -0.154081 -0.293555 0.503235
v -0.132743 -0.301784 0.495963
v -0.126005 -0.304129 0.272428
v -0.126005 -0.251334 -0.414995
v -0.271221 -0.239765 -0.414995
v -0.244509 -0.254748 0.506599
v -0.230137 -0.259193 0.507962
v -0.26842 -0.239667 0.50569
v -0.271221 -0.239765 0.495963
v -0.25264 -0.252316 0.504326
v -0.21656 -0.267729 0.506235
v -0.202586 -0.270357 0.507962
v -0.185001 -0.28071 0.505144
v -0.146718 -0.29649 0.495963
v -0.225204 -0.266095 0.504235
v -0.233022 -0.263762 0.495963
v -0.226042 -0.266415 0.495963
v -0.154266 -0.293629 0.495963
v -0.132743 -0.301784 -0.414995
v -0.126005 -0.304129 -0.320363
v -0.126005 -0.303982 -0.414995
v -0.269899 -0.240723 -0.414995
v -0.269899 -0.240723 0.495963
v -0.253209 -0.252734 0.495963
v -0.244509 -0.258014 0.495963
v -0.163961 -0.289957 -0.414995
v -0.146718 -0.29649 -0.414995
v -0.23534 -0.262608 -0.414995
v -0.233022 -0.263762 -0.414995
v -0.193659 -0.278695 0.481963
v -0.226042 -0.266415 -0.414995
v -0.258796 -0.248718 -0.414995
v -0.253209 -0.252734 -0.414995
v -0.244509 -0.258014 -0.414995
v -0.193659 -0.278695 -0.414995
f 1 2 3
f 1 3 4
f 1 4 5
f 1 5 6
f 1 6 15
f 1 15 29
f 1 29 40
f 1 40 57
f 1 57 58
f 1 58 41
f 1 41 30
f 1 30 16
f 1 16 7
f 1 7 2
f 2 8 3
f 2 7 8
f 3 8 9
f 3 9 4
f 4 10 11
f 4 11 5
f 4 9 8
f 4 8 19
f 4 19 31
f 4 31 42
f 4 42 46
f 4 46 33
f 4 33 22
f 4 22 10
f 5 11 21
f 5 21 24
f 5 24 12
f 5 12 6
f 6 12 13
f 6 13 14
f 6 14 15
f 7 16 17
f 7 17 8
f 8 17 16
f 8 16 18
f 8 18 19
f 10 20 21
f 10 21 11
f 10 22 23
f 10 23 20
f 12 24 13
f 13 25 14
f 13 24 20
f 13 20 25
f 14 25 26
f 14 26 27
f 14 27 28
f 14 28 15
f 15 28 29
f 16 30 19
f 16 19 18
f 19 30 41
f 19 41 31
f 20 24 21
f 20 23 32
f 20 32 25
f 22 32 23
f 22 33 34
f 22 34 32
f 25 32 35
f 25 35 26
f 26 35 27
f 27 35 28
f 28 36 37
f 28 37 29
f 28 35 36
f 29 37 38
f 29 38 39
f 29 39 40
f 31 41 58
f 31 58 56
f 31 56 64
f 31 64 63
f 31 63 72
f 31 72 68
f 31 68 66
f 31 66 65
f 31 65 71
f 31 71 70
f 31 70 69
f 31 69 59
f 31 59 42
f 32 34 43
f 32 43 44
f 32 44 35
f 33 45 34
f 33 46 45
f 34 45 47
f 34 47 43
f 35 44 48
f 35 48 49
f 35 49 36
f 36 48 50
f 36 50 37
f 36 49 48
f 37 50 38
f 38 51 39
f 38 50 52
f 38 52 53
f 38 53 54
f 38 54 55
f 38 55 51
f 39 51 64
f 39 64 56
f 39 56 57
f 39 57 40
f 42 59 60
f 42 60 46
f 43 48 44
f 43 47 52
f 43 52 48
f 45 46 47
f 46 60 47
f 47 60 61
f 47 61 62
f 47 62 52
f 48 52 50
f 51 55 63
f 51 63 64
f 52 62 53
f 53 62 65
f 53 65 66
f 53 66 68
f 53 68 54
f 54 67 55
f 54 68 72
f 54 72 67
f 55 67 63
f 56 58 57
f 59 69 60
f 60 69 61
f 61 69 70
f 61 70 71
f 61 71 62
f 62 71 65
f 63 67 72
