v 0.451994 0.132812 -0.463918
v 0.437884 0.328477 -0.463918
v 0.505997 0.132812 -0.463918
v 0.456186 0.132812 0.495986
v 0.494067 0.328477 -0.463918
v 0.442465 0.328477 0.495986
v 0.509807 0.170504 -0.463918
v 0.505997 0.132812 0.495986
v 0.458638 0.132812 0.506895
v 0.494097 0.328343 -0.463918
v 0.494067 0.328477 0.495986
v 0.444807 0.328477 0.506321
v 0.511217 0.184486 -0.463918
v 0.510225 0.17466 0.495986
v 0.504507 0.132812 0.505747
v 0.468072 0.132812 0.512254
v 0.454094 0.328343 0.51168
v 0.444925 0.328477 0.506416
v 0.496372 0.314361 -0.463918
v 0.494097 0.328343 0.495986
v 0.491542 0.328477 0.506895
v 0.511635 0.188642 -0.463918
v 0.511635 0.188642 0.495986
v 0.505197 0.146716 0.506704
v 0.496005 0.132812 0.511105
v 0.512876 0.202604 0.495986
v 0.482035 0.132812 0.513689
v 0.468072 0.300399 0.513689
v 0.454094 0.328477 0.51168
v 0.501394 0.283487 -0.463918
v 0.496372 0.314361 0.495986
v 0.503435 0.268184 0.503928
v 0.492695 0.314361 0.507756
v 0.506496 0.230548 0.50766
v 0.505358 0.244511 0.506799
v 0.504228 0.258473 0.505268
v 0.482042 0.328477 0.512254
v 0.512876 0.202604 -0.463918
v 0.505901 0.160698 0.507278
v 0.496005 0.146716 0.512062
v 0.512274 0.216586 0.495986
v 0.507634 0.216586 0.508043
v 0.507935 0.202604 0.508139
v 0.507311 0.188642 0.508043
v 0.506606 0.17466 0.507756
v 0.496005 0.202604 0.513498
v 0.482035 0.272455 0.513689
v 0.496005 0.160698 0.512637
v 0.496005 0.17466 0.513115
v 0.468072 0.328477 0.513689
v 0.512274 0.216586 -0.463918
v 0.502524 0.276534 0.482015
v 0.496005 0.244511 0.512158
v 0.482035 0.314361 0.513019
v 0.496005 0.230548 0.512924
v 0.496005 0.216586 0.513402
v 0.482035 0.300399 0.513498
f 1 2 5
f 1 5 10
f 1 10 19
f 1 19 30
f 1 30 51
f 1 51 38
f 1 38 22
f 1 22 13
f 1 13 7
f 1 7 3
f 1 3 8
f 1 8 15
f 1 15 25
f 1 25 27
f 1 27 16
f 1 16 9
f 1 9 4
f 1 4 2
f 2 4 6
f 2 6 12
f 2 12 18
f 2 18 29
f 2 29 50
f 2 50 37
f 2 37 21
f 2 21 11
f 2 11 5
f 3 7 8
f 4 9 6
f 5 11 20
f 5 20 10
f 6 9 12
f 7 13 23
f 7 23 14
f 7 14 8
f 8 14 15
f 9 16 17
f 9 17 18
f 9 18 12
f 10 20 31
f 10 31 19
f 11 21 20
f 13 22 23
f 14 23 15
f 15 24 25
f 15 23 26
f 15 26 24
f 16 27 28
f 16 28 17
f 17 28 50
f 17 50 29
f 17 29 18
f 19 31 30
f 20 21 32
f 20 32 31
f 21 33 34
f 21 34 35
f 21 35 36
f 21 36 32
f 21 37 33
f 22 38 26
f 22 26 23
f 24 26 39
f 24 39 25
f 25 40 27
f 25 39 40
f 26 41 42
f 26 42 43
f 26 43 44
f 26 44 45
f 26 45 39
f 26 38 51
f 26 51 41
f 27 46 47
f 27 47 50
f 27 50 28
f 27 40 48
f 27 48 49
f 27 49 46
f 30 31 52
f 30 52 41
f 30 41 51
f 31 32 41
f 31 41 52
f 32 36 41
f 33 37 53
f 33 53 34
f 34 53 42
f 34 42 41
f 34 41 35
f 35 41 36
f 37 50 54
f 37 54 55
f 37 55 53
f 39 45 40
f 40 45 44
f 40 44 48
f 42 53 55
f 42 55 56
f 42 56 43
f 43 56 46
f 43 46 49
f 43 49 44
f 44 49 48
f 46 56 47
f 47 56 57
f 47 57 50
f 50 57 54
f 54 57 56
f 54 56 55
