v 0.00697513 -0.32081 -0.388879
v 0.0074841 -0.32081 -0.388757
v 0.0206978 -0.435021 -0.376095
v 0.0144923 -0.435021 -0.377347
v 0.00767986 -0.435021 -0.378048
v -0.00700201 -0.435021 -0.379193
v -0.02094 -0.435021 -0.379166
v -0.0358764 -0.435021 -0.377886
v -0.0405158 -0.435021 -0.377388
v -0.0419057 -0.43368 -0.37724
v -0.0432956 -0.435021 -0.37697
v -0.0479351 -0.435021 -0.376041
v -0.0488943 -0.426145 -0.375839
v -0.0488943 -0.41217 -0.375825
v -0.0488943 -0.384232 -0.375758
v -0.0488943 -0.370269 -0.375704
v -0.0628714 -0.370269 -0.371676
v -0.0628714 -0.356294 -0.369076
v -0.0710933 -0.32081 -0.356144
v 0.0218919 -0.32081 -0.384864
v 0.0349294 -0.435021 -0.372511
v 0.0302508 -0.435021 -0.373697
v -0.0628714 -0.435021 -0.372228
v -0.0628714 -0.426145 -0.372161
v -0.0628714 -0.41217 -0.372053
v -0.0628714 -0.398195 -0.371932
v -0.0628714 -0.384232 -0.371811
v -0.076829 -0.435021 -0.366894
v -0.0754391 -0.370269 -0.366193
v -0.0726985 -0.356294 -0.364792
v -0.0752434 -0.32081 -0.354083
v 0.048887 -0.398195 -0.369211
v 0.048887 -0.426145 -0.367864
v 0.048887 -0.435021 -0.367419
v 0.04875 -0.32081 -0.366732
v 0.0668185 -0.356294 -0.361398
v 0.0598299 -0.356294 -0.365452
v 0.0599865 -0.370269 -0.365574
v 0.0593209 -0.384232 -0.36525
v 0.0586553 -0.398195 -0.364887
v -0.0842483 -0.435021 -0.363526
v -0.0840329 -0.426145 -0.363391
v -0.0838372 -0.418945 -0.36327
v -0.0828192 -0.384232 -0.362704
v -0.0824277 -0.370269 -0.362421
v -0.0796871 -0.356294 -0.360684
v -0.0885745 -0.356294 -0.353692
v -0.0870085 -0.32081 -0.344047
v 0.0579702 -0.41217 -0.364509
v 0.0573046 -0.426145 -0.364119
v 0.0568739 -0.435021 -0.363863
v 0.064254 -0.32081 -0.355646
v 0.0873144 -0.32081 -0.339049
v 0.0753535 -0.356294 -0.354406
v 0.0669751 -0.370269 -0.361371
v -0.0912368 -0.435021 -0.35838
v -0.0908062 -0.384232 -0.356157
v -0.0919611 -0.371062 -0.354285
v -0.0973836 -0.366937 -0.348587
v -0.0997719 -0.435021 -0.351389
v -0.0898861 -0.32081 -0.341434
v 0.0663095 -0.384232 -0.360872
v 0.0656439 -0.398195 -0.36036
v 0.0649588 -0.41217 -0.359835
v 0.0642736 -0.426145 -0.359283
v 0.0638429 -0.435021 -0.358919
v 0.0889783 -0.32081 -0.335089
v 0.0858657 -0.356294 -0.33979
v 0.0822246 -0.370269 -0.34631
v 0.0823225 -0.356294 -0.346782
v 0.0752361 -0.370269 -0.354379
v 0.0746292 -0.384232 -0.353894
v 0.0740224 -0.398195 -0.353382
v 0.0728087 -0.426145 -0.352305
v -0.0994978 -0.426145 -0.351133
v -0.0990476 -0.41217 -0.350702
v -0.0981667 -0.384232 -0.349745
v -0.0978926 -0.37625 -0.349422
v -0.10034 -0.371062 -0.343279
v -0.101671 -0.32081 -0.326198
v -0.100046 -0.32081 -0.32931
v -0.105292 -0.435021 -0.342309
v 0.0724171 -0.435021 -0.351941
v 0.0693046 -0.435021 -0.354487
v 0.090975 -0.32081 -0.32834
v 0.085533 -0.370269 -0.339319
v 0.0849848 -0.384232 -0.338093
v 0.0840452 -0.407978 -0.33587
v 0.0816178 -0.384232 -0.345084
v 0.078564 -0.435021 -0.342309
v -0.101886 -0.384232 -0.342309
v -0.108679 -0.435021 -0.32834
v -0.103159 -0.32081 -0.318762
v 0.0913078 -0.32081 -0.325726
v 0.0913078 -0.325103 -0.314384
v 0.082068 -0.435021 -0.32834
v 0.0808152 -0.435021 -0.333445
v -0.104666 -0.435021 -0.314384
v -0.102454 -0.32081 -0.300401
v -0.102963 -0.32081 -0.3049
v -0.103942 -0.32081 -0.314384
v 0.0913078 -0.32081 -0.309655
v 0.0798364 -0.435021 -0.319476
v 0.0897613 -0.32081 -0.300401
v -0.102826 -0.435021 -0.311393
v -0.0949562 -0.32081 -0.288304
v 0.0783682 -0.435021 -0.314384
v 0.0819897 -0.32081 -0.287617
v -0.0993021 -0.435021 -0.30583
v -0.0892205 -0.32081 -0.279399
v 0.0746292 -0.435021 -0.308268
v 0.0691676 -0.32081 -0.275574
v 0.0722997 -0.435021 -0.304806
v -0.0963461 -0.435021 -0.303472
v -0.0900036 -0.435021 -0.298528
v -0.0868127 -0.435021 -0.296225
v -0.083289 -0.435021 -0.293692
v -0.0623233 -0.32081 -0.262817
v 0.0422704 -0.32081 -0.260486
v 0.0568544 -0.435021 -0.292817
v 0.0593992 -0.435021 -0.294568
v 0.0638429 -0.435021 -0.297814
v 0.0670925 -0.435021 -0.300374
v -0.0821928 -0.435021 -0.293194
v -0.0771031 -0.435021 -0.29089
v -0.0628714 -0.435021 -0.285502
v -0.0488943 -0.32081 -0.259018
v 0.0349294 -0.32081 -0.256957
v 0.0516472 -0.435021 -0.290432
v -0.0482287 -0.435021 -0.281555
v -0.0347605 -0.32081 -0.256337
v 0.0324824 -0.32081 -0.255879
v 0.048887 -0.435021 -0.28926
v -0.0383625 -0.435021 -0.279844
v -0.0324506 -0.435021 -0.278995
v 0.00697513 -0.32081 -0.251258
v 0.0209523 -0.32081 -0.252754
v 0.0349294 -0.435021 -0.284303
v 0.0400191 -0.435021 -0.286068
v -0.02094 -0.435021 -0.277931
v -0.00700201 -0.435021 -0.277756
v -0.00332176 -0.435021 -0.277971
v 0.00558525 -0.435021 -0.278632
v 0.00793435 -0.435021 -0.278834
v 0.0207174 -0.32081 -0.252727
v 0.0212851 -0.435021 -0.280908
v 0.0259833 -0.435021 -0.282067
f 1 2 3
f 1 3 4
f 1 4 5
f 1 5 6
f 1 6 7
f 1 7 8
f 1 8 9
f 1 9 10
f 1 10 11
f 1 11 12
f 1 12 13
f 1 13 14
f 1 14 15
f 1 15 16
f 1 16 17
f 1 17 18
f 1 18 19
f 1 19 31
f 1 31 48
f 1 48 61
f 1 61 81
f 1 81 80
f 1 80 93
f 1 93 101
f 1 101 100
f 1 100 99
f 1 99 106
f 1 106 110
f 1 110 118
f 1 118 127
f 1 127 131
f 1 131 136
f 1 136 145
f 1 145 137
f 1 137 132
f 1 132 128
f 1 128 119
f 1 119 112
f 1 112 108
f 1 108 104
f 1 104 102
f 1 102 94
f 1 94 85
f 1 85 67
f 1 67 53
f 1 53 52
f 1 52 35
f 1 35 20
f 1 20 2
f 2 20 21
f 2 21 22
f 2 22 3
f 3 22 21
f 3 21 34
f 3 34 51
f 3 51 66
f 3 66 84
f 3 84 83
f 3 83 90
f 3 90 97
f 3 97 96
f 3 96 103
f 3 103 107
f 3 107 111
f 3 111 113
f 3 113 123
f 3 123 122
f 3 122 121
f 3 121 120
f 3 120 129
f 3 129 133
f 3 133 139
f 3 139 138
f 3 138 147
f 3 147 146
f 3 146 144
f 3 144 143
f 3 143 142
f 3 142 141
f 3 141 140
f 3 140 135
f 3 135 134
f 3 134 130
f 3 130 126
f 3 126 125
f 3 125 124
f 3 124 117
f 3 117 116
f 3 116 115
f 3 115 114
f 3 114 109
f 3 109 105
f 3 105 98
f 3 98 92
f 3 92 82
f 3 82 60
f 3 60 56
f 3 56 41
f 3 41 28
f 3 28 23
f 3 23 12
f 3 12 11
f 3 11 9
f 3 9 8
f 3 8 7
f 3 7 6
f 3 6 5
f 3 5 4
f 9 11 10
f 12 23 13
f 13 23 14
f 14 23 15
f 15 23 16
f 16 23 24
f 16 24 25
f 16 25 26
f 16 26 27
f 16 27 17
f 17 27 28
f 17 28 29
f 17 29 30
f 17 30 18
f 18 30 19
f 19 30 31
f 20 32 33
f 20 33 34
f 20 34 21
f 20 35 36
f 20 36 37
f 20 37 38
f 20 38 39
f 20 39 40
f 20 40 32
f 23 28 24
f 24 28 25
f 25 28 26
f 26 28 27
f 28 41 29
f 29 41 42
f 29 42 43
f 29 43 44
f 29 44 45
f 29 45 30
f 30 45 46
f 30 46 31
f 31 46 47
f 31 47 48
f 32 40 33
f 33 40 49
f 33 49 50
f 33 50 34
f 34 50 51
f 35 52 36
f 36 52 53
f 36 53 54
f 36 54 55
f 36 55 38
f 36 38 37
f 38 55 39
f 39 55 40
f 40 55 49
f 41 56 42
f 42 56 43
f 43 56 44
f 44 56 45
f 45 57 58
f 45 58 59
f 45 59 47
f 45 47 46
f 45 56 60
f 45 60 57
f 47 61 48
f 47 59 61
f 49 55 50
f 50 55 51
f 51 55 62
f 51 62 63
f 51 63 64
f 51 64 65
f 51 65 66
f 53 67 68
f 53 68 69
f 53 69 70
f 53 70 54
f 54 70 71
f 54 71 55
f 55 71 72
f 55 72 73
f 55 73 74
f 55 74 62
f 57 60 75
f 57 75 76
f 57 76 77
f 57 77 58
f 58 77 78
f 58 78 59
f 59 78 79
f 59 79 80
f 59 80 81
f 59 81 61
f 60 82 75
f 62 74 63
f 63 74 83
f 63 83 64
f 64 83 84
f 64 84 65
f 65 84 66
f 67 85 86
f 67 86 68
f 68 86 69
f 69 72 71
f 69 71 70
f 69 86 87
f 69 87 88
f 69 88 89
f 69 89 90
f 69 90 83
f 69 83 74
f 69 74 73
f 69 73 72
f 75 82 76
f 76 82 77
f 77 82 78
f 78 82 91
f 78 91 79
f 79 91 80
f 80 91 82
f 80 82 92
f 80 92 93
f 85 94 88
f 85 88 87
f 85 87 86
f 88 94 95
f 88 95 96
f 88 96 97
f 88 97 90
f 88 90 89
f 92 98 99
f 92 99 100
f 92 100 101
f 92 101 93
f 94 102 95
f 95 102 96
f 96 102 104
f 96 104 103
f 98 105 99
f 99 105 106
f 103 104 107
f 104 108 107
f 105 109 106
f 106 109 110
f 107 108 111
f 108 112 113
f 108 113 111
f 109 114 110
f 110 114 115
f 110 115 116
f 110 116 117
f 110 117 118
f 112 119 120
f 112 120 121
f 112 121 122
f 112 122 123
f 112 123 113
f 117 124 118
f 118 124 125
f 118 125 126
f 118 126 127
f 119 128 120
f 120 128 129
f 126 130 127
f 127 130 131
f 128 132 129
f 129 132 133
f 130 134 131
f 131 134 135
f 131 135 136
f 132 137 138
f 132 138 139
f 132 139 133
f 135 140 136
f 136 140 141
f 136 141 142
f 136 142 143
f 136 143 144
f 136 144 145
f 137 145 144
f 137 144 146
f 137 146 147
f 137 147 138
