v -0.512624 0.174686 -0.496008
v -0.512624 0.174686 -0.469872
v -0.512473 0.18685 -0.469872
v -0.512423 0.188644 -0.496008
v -0.50771 0.188644 -0.508173
v -0.50776 0.174686 -0.50819
v -0.506958 0.160728 -0.50789
v -0.505805 0.146714 -0.507233
v -0.504701 0.132811 -0.505994
v -0.510919 0.160728 -0.496008
v -0.510919 0.160728 -0.469872
v -0.512423 0.188644 -0.469872
v -0.507008 0.202602 -0.507941
v -0.51122 0.200808 -0.469872
v -0.509615 0.216616 -0.496008
v -0.503047 0.280465 -0.503231
v -0.503498 0.272505 -0.504085
v -0.5042 0.258491 -0.505393
v -0.504902 0.244533 -0.506393
v -0.505604 0.230574 -0.507118
v -0.506306 0.216616 -0.507615
v -0.495977 0.230574 -0.512467
v -0.495977 0.216616 -0.512964
v -0.495977 0.202602 -0.51329
v -0.495977 0.188644 -0.513518
v -0.495977 0.174686 -0.513535
v -0.495977 0.160728 -0.513234
v -0.495977 0.146714 -0.512582
v -0.496027 0.132811 -0.511368
v -0.506406 0.132811 -0.496008
v -0.508663 0.146714 -0.496008
v -0.508663 0.146714 -0.469872
v -0.508412 0.228781 -0.469872
v -0.503999 0.272505 -0.496008
v -0.501091 0.300421 -0.496008
v -0.498233 0.314379 -0.496008
v -0.491213 0.328394 -0.5062
v -0.49357 0.314379 -0.507988
v -0.494974 0.300421 -0.50834
v -0.495977 0.244533 -0.511737
v -0.482037 0.314379 -0.513333
v -0.482037 0.300421 -0.513689
v -0.482037 0.132811 -0.513689
v -0.506406 0.132811 -0.469872
v -0.503999 0.272505 -0.469872
v -0.501342 0.298796 -0.469872
v -0.501141 0.300421 -0.482041
v -0.498634 0.312586 -0.469872
v -0.498233 0.314379 -0.469872
v -0.49342 0.328394 -0.496008
v -0.489609 0.336914 -0.504175
v -0.478929 0.35631 -0.507594
v -0.462131 0.40805 -0.504926
v -0.463987 0.39824 -0.50692
v -0.482037 0.328394 -0.511549
v -0.468048 0.35631 -0.512938
v -0.440119 0.426101 -0.513264
v -0.454059 0.384282 -0.513488
v -0.468048 0.342352 -0.513629
v -0.440119 0.412198 -0.513689
v -0.468048 0.132811 -0.513689
v -0.441373 0.132811 -0.469872
v -0.501141 0.300421 -0.469872
v -0.49342 0.328394 -0.469872
v -0.489559 0.338596 -0.469872
v -0.477274 0.370997 -0.469872
v -0.462683 0.409452 -0.496008
v -0.456315 0.426101 -0.496008
v -0.451702 0.426101 -0.50792
v -0.454059 0.39824 -0.512265
v -0.449295 0.436639 -0.505998
v -0.42613 0.440115 -0.513599
v -0.441022 0.440787 -0.509001
v -0.42613 0.454073 -0.511579
v -0.41214 0.468031 -0.512878
v -0.370222 0.52392 -0.513183
v -0.398201 0.481989 -0.513445
v -0.41214 0.454073 -0.513689
v -0.454059 0.132811 -0.513479
v -0.000429851 0.663669 -0.513689
v -0.000429851 0.132811 -0.47109
v -0.000429851 0.638107 -0.469872
v -0.460025 0.416459 -0.469872
v -0.460025 0.416459 -0.482041
v -0.456816 0.424867 -0.469872
v -0.456315 0.426101 -0.469872
v -0.450398 0.438377 -0.496008
v -0.433601 0.461697 -0.503866
v -0.420915 0.477505 -0.505483
v -0.425779 0.467022 -0.507148
v -0.412592 0.482101 -0.508572
v -0.384212 0.496003 -0.513685
v -0.384212 0.509961 -0.512278
v -0.370874 0.538438 -0.508761
v -0.356283 0.537878 -0.513376
v -0.370222 0.509961 -0.513689
v -0.000429851 0.132811 -0.50345
v -0.000429851 0.677627 -0.513689
v -0.000429851 0.704815 -0.469872
v -0.450398 0.438377 -0.469872
v -0.445835 0.445384 -0.496008
v -0.416804 0.485745 -0.496008
v -0.387722 0.52605 -0.496008
v -0.380702 0.535748 -0.496008
v -0.392234 0.51837 -0.504677
v -0.379549 0.534178 -0.505891
v -0.384212 0.523415 -0.507881
v -0.366662 0.547856 -0.506144
v -0.356433 0.552228 -0.508632
v -0.356283 0.52392 -0.513689
v -0.342294 0.551892 -0.513024
v -0.272447 0.60778 -0.513209
v -0.286386 0.593766 -0.513475
v -0.300375 0.579808 -0.513629
v -0.314365 0.56585 -0.513689
v -0.062906 0.677627 -0.513689
v -0.00699838 0.691585 -0.513029
v -0.000429851 0.684971 -0.513337
v -0.000429851 0.704815 -0.496008
v -0.00699838 0.705487 -0.469872
v -0.445835 0.445384 -0.469872
v -0.416804 0.485745 -0.469872
v -0.38005 0.536701 -0.469872
v -0.375387 0.542755 -0.496008
v -0.368367 0.549313 -0.496008
v -0.351871 0.560973 -0.505676
v -0.341842 0.565738 -0.507881
v -0.286837 0.608397 -0.508855
v -0.314365 0.579808 -0.511497
v -0.328304 0.56585 -0.512437
v -0.258457 0.621739 -0.512282
v -0.244518 0.621739 -0.513548
v -0.258457 0.60778 -0.513689
v -0.132753 0.663669 -0.513689
v -0.146742 0.663669 -0.513681
v -0.0768954 0.677627 -0.513676
v -0.000429851 0.691585 -0.512805
v -0.0209878 0.691585 -0.512943
v -0.00699838 0.702012 -0.50768
v -0.000429851 0.697079 -0.509987
v -0.000429851 0.703525 -0.501305
v -0.00699838 0.705487 -0.496008
v -0.0209878 0.705263 -0.469872
v -0.375387 0.542755 -0.469872
v -0.36927 0.548472 -0.469872
v -0.368367 0.549313 -0.469872
v -0.367314 0.550266 -0.469872
v -0.360144 0.55632 -0.496008
v -0.321836 0.587208 -0.503716
v -0.336828 0.57409 -0.504891
v -0.282475 0.617254 -0.505921
v -0.272046 0.621851 -0.508018
v -0.258457 0.631885 -0.506937
v -0.230579 0.635697 -0.511639
v -0.160682 0.663669 -0.512994
v -0.18866 0.649655 -0.513256
v -0.216589 0.635697 -0.513432
v -0.230579 0.621739 -0.513689
v -0.174671 0.649655 -0.513689
v -0.104824 0.677627 -0.513067
v -0.0908347 0.677627 -0.5135
v -0.0349772 0.691585 -0.512098
v -0.0209878 0.7019 -0.507594
v -0.118763 0.677627 -0.512265
v -0.000429851 0.701676 -0.507461
v -0.0209878 0.705263 -0.496008
v -0.0331722 0.703469 -0.469872
v -0.360144 0.55632 -0.469872
v -0.354077 0.561309 -0.469872
v -0.353174 0.562038 -0.496008
v -0.3446 0.569045 -0.496008
v -0.299573 0.605819 -0.496008
v -0.284029 0.618487 -0.496008
v -0.267132 0.629755 -0.504879
v -0.230579 0.64517 -0.50629
v -0.171612 0.672414 -0.505646
v -0.160682 0.67488 -0.50765
v -0.132753 0.677627 -0.510862
v -0.104824 0.688222 -0.507718
v -0.0349772 0.700891 -0.506753
v -0.0489165 0.699714 -0.505243
v -0.0583431 0.698985 -0.503871
v -0.0349772 0.703189 -0.496008
v -0.0349772 0.703189 -0.469872
v -0.322989 0.586703 -0.469872
v -0.300476 0.60509 -0.469872
v -0.284932 0.617759 -0.469872
v -0.284029 0.618487 -0.469872
v -0.282876 0.619384 -0.469872
v -0.275004 0.625494 -0.496008
v -0.267984 0.630315 -0.496008
v -0.258457 0.635024 -0.496008
v -0.238852 0.643264 -0.504166
v -0.20992 0.656774 -0.503283
v -0.160682 0.679085 -0.496008
v -0.141628 0.685139 -0.504089
v -0.132753 0.685924 -0.505518
v -0.146492 0.678524 -0.507924
v -0.118763 0.687101 -0.50692
v -0.132753 0.687269 -0.496008
v -0.118763 0.689567 -0.496008
v -0.118763 0.689567 -0.469872
v -0.275004 0.625494 -0.469872
v -0.268887 0.629699 -0.469872
v -0.267984 0.630315 -0.469872
v -0.266781 0.630932 -0.469872
v -0.258457 0.635024 -0.469872
v -0.256903 0.635753 -0.469872
v -0.246524 0.640462 -0.496008
v -0.210071 0.656886 -0.496008
v -0.160682 0.679085 -0.469872
v -0.159278 0.679645 -0.469872
v -0.1496 0.683401 -0.496008
v -0.171913 0.67404 -0.469872
v -0.142581 0.685363 -0.496008
v -0.132753 0.687269 -0.469872
v -0.141327 0.685643 -0.469872
v -0.246524 0.640462 -0.469872
v -0.210071 0.656886 -0.469872
v -0.1496 0.683401 -0.469872
v -0.143483 0.685139 -0.469872
v -0.142581 0.685363 -0.469872
f 1 2 3
f 1 3 4
f 1 4 5
f 1 5 6
f 1 6 7
f 1 7 8
f 1 8 9
f 1 9 10
f 1 10 11
f 1 11 2
f 2 11 32
f 2 32 44
f 2 44 62
f 2 62 82
f 2 82 99
f 2 99 120
f 2 120 143
f 2 143 167
f 2 167 184
f 2 184 202
f 2 202 216
f 2 216 217
f 2 217 222
f 2 222 221
f 2 221 220
f 2 220 212
f 2 212 211
f 2 211 214
f 2 214 219
f 2 219 218
f 2 218 208
f 2 208 207
f 2 207 206
f 2 206 205
f 2 205 204
f 2 204 203
f 2 203 189
f 2 189 188
f 2 188 187
f 2 187 186
f 2 186 185
f 2 185 169
f 2 169 168
f 2 168 147
f 2 147 146
f 2 146 145
f 2 145 144
f 2 144 123
f 2 123 122
f 2 122 121
f 2 121 100
f 2 100 86
f 2 86 85
f 2 85 83
f 2 83 66
f 2 66 65
f 2 65 64
f 2 64 49
f 2 49 48
f 2 48 63
f 2 63 46
f 2 46 45
f 2 45 33
f 2 33 14
f 2 14 12
f 2 12 3
f 3 12 4
f 4 13 5
f 4 12 14
f 4 14 33
f 4 33 15
f 4 15 16
f 4 16 17
f 4 17 18
f 4 18 19
f 4 19 20
f 4 20 21
f 4 21 13
f 5 13 22
f 5 22 23
f 5 23 24
f 5 24 25
f 5 25 6
f 6 25 26
f 6 26 27
f 6 27 28
f 6 28 7
f 7 28 29
f 7 29 8
f 8 29 9
f 9 30 31
f 9 31 10
f 9 29 43
f 9 43 61
f 9 61 79
f 9 79 97
f 9 97 81
f 9 81 62
f 9 62 44
f 9 44 30
f 10 31 32
f 10 32 11
f 13 21 22
f 15 33 34
f 15 34 16
f 16 34 35
f 16 35 36
f 16 36 37
f 16 37 38
f 16 38 17
f 17 38 18
f 18 38 19
f 19 38 39
f 19 39 20
f 20 39 40
f 20 40 21
f 21 40 22
f 22 40 41
f 22 41 23
f 23 41 42
f 23 42 24
f 24 42 25
f 25 42 26
f 26 43 27
f 26 42 43
f 27 43 28
f 28 43 29
f 30 44 32
f 30 32 31
f 33 45 34
f 34 45 46
f 34 46 47
f 34 47 35
f 35 47 36
f 36 48 49
f 36 49 64
f 36 64 50
f 36 50 51
f 36 51 37
f 36 47 48
f 37 52 38
f 37 51 53
f 37 53 54
f 37 54 52
f 38 52 55
f 38 55 41
f 38 41 39
f 39 41 40
f 41 55 56
f 41 56 57
f 41 57 58
f 41 58 59
f 41 59 42
f 42 59 60
f 42 60 78
f 42 78 96
f 42 96 110
f 42 110 115
f 42 115 133
f 42 133 158
f 42 158 159
f 42 159 134
f 42 134 116
f 42 116 98
f 42 98 80
f 42 80 61
f 42 61 43
f 46 63 47
f 47 63 48
f 50 64 65
f 50 65 66
f 50 66 67
f 50 67 51
f 51 67 68
f 51 68 53
f 52 54 69
f 52 69 70
f 52 70 55
f 53 68 71
f 53 71 69
f 53 69 54
f 55 70 56
f 56 70 57
f 57 72 60
f 57 60 58
f 57 70 69
f 57 69 73
f 57 73 74
f 57 74 75
f 57 75 76
f 57 76 77
f 57 77 72
f 58 60 59
f 60 72 78
f 61 80 79
f 62 81 82
f 66 83 84
f 66 84 67
f 67 84 68
f 68 84 85
f 68 85 86
f 68 86 100
f 68 100 87
f 68 87 71
f 69 71 73
f 71 87 88
f 71 88 89
f 71 89 90
f 71 90 91
f 71 91 73
f 72 77 92
f 72 92 78
f 73 91 74
f 74 91 93
f 74 93 75
f 75 93 76
f 76 94 95
f 76 95 92
f 76 92 77
f 76 93 94
f 78 92 96
f 79 80 97
f 80 98 118
f 80 118 137
f 80 137 140
f 80 140 165
f 80 165 141
f 80 141 119
f 80 119 99
f 80 99 82
f 80 82 81
f 80 81 97
f 83 85 84
f 87 100 121
f 87 121 101
f 87 101 88
f 88 101 102
f 88 102 103
f 88 103 104
f 88 104 105
f 88 105 89
f 89 105 106
f 89 106 107
f 89 107 90
f 90 107 91
f 91 107 93
f 92 95 96
f 93 107 94
f 94 107 106
f 94 106 108
f 94 108 109
f 94 109 95
f 95 110 96
f 95 109 111
f 95 111 112
f 95 112 113
f 95 113 114
f 95 114 115
f 95 115 110
f 98 116 117
f 98 117 118
f 99 119 142
f 99 142 120
f 101 121 122
f 101 122 102
f 102 122 123
f 102 123 103
f 103 123 104
f 104 123 124
f 104 124 105
f 105 124 106
f 106 124 108
f 108 124 125
f 108 125 126
f 108 126 127
f 108 127 109
f 109 127 128
f 109 128 129
f 109 129 130
f 109 130 111
f 111 130 112
f 112 131 132
f 112 132 113
f 112 130 129
f 112 129 131
f 113 132 114
f 114 132 133
f 114 133 115
f 116 134 135
f 116 135 136
f 116 136 117
f 117 137 118
f 117 136 138
f 117 138 139
f 117 139 140
f 117 140 137
f 119 141 142
f 120 142 166
f 120 166 143
f 123 144 124
f 124 144 145
f 124 145 125
f 125 145 146
f 125 146 147
f 125 147 148
f 125 148 149
f 125 149 150
f 125 150 126
f 126 150 151
f 126 151 127
f 127 151 128
f 128 151 152
f 128 152 131
f 128 131 129
f 131 152 153
f 131 153 154
f 131 154 155
f 131 155 156
f 131 156 157
f 131 157 132
f 132 158 133
f 132 157 135
f 132 135 159
f 132 159 158
f 134 159 135
f 135 155 160
f 135 160 161
f 135 161 136
f 135 157 156
f 135 156 155
f 136 161 138
f 138 162 163
f 138 163 139
f 138 161 160
f 138 160 164
f 138 164 162
f 139 141 165
f 139 165 140
f 139 163 142
f 139 142 141
f 142 163 166
f 143 166 167
f 147 168 148
f 148 168 169
f 148 169 170
f 148 170 149
f 149 170 171
f 149 171 172
f 149 172 173
f 149 173 174
f 149 174 151
f 149 151 150
f 151 174 152
f 152 174 153
f 153 174 175
f 153 175 176
f 153 176 177
f 153 177 154
f 154 177 155
f 155 177 178
f 155 178 164
f 155 164 160
f 162 179 163
f 162 164 179
f 163 180 166
f 163 179 180
f 164 178 179
f 166 180 181
f 166 181 182
f 166 182 183
f 166 183 167
f 167 183 184
f 169 171 170
f 169 185 171
f 171 185 186
f 171 186 172
f 172 186 187
f 172 187 173
f 173 187 188
f 173 188 189
f 173 189 190
f 173 190 174
f 174 190 191
f 174 191 192
f 174 192 193
f 174 193 175
f 175 193 176
f 176 193 194
f 176 194 195
f 176 195 196
f 176 196 177
f 177 196 197
f 177 197 198
f 177 198 178
f 178 198 197
f 178 197 199
f 178 199 179
f 179 199 180
f 180 199 197
f 180 197 181
f 181 197 182
f 182 197 196
f 182 196 200
f 182 200 201
f 182 201 183
f 183 201 202
f 183 202 184
f 189 203 190
f 190 203 204
f 190 204 191
f 191 205 206
f 191 206 192
f 191 204 205
f 192 206 207
f 192 207 208
f 192 208 209
f 192 209 194
f 192 194 193
f 194 209 210
f 194 210 195
f 195 211 212
f 195 212 213
f 195 213 196
f 195 210 214
f 195 214 211
f 196 213 215
f 196 215 200
f 200 216 202
f 200 202 201
f 200 215 217
f 200 217 216
f 208 218 209
f 209 218 219
f 209 219 210
f 210 219 214
f 212 220 213
f 213 220 221
f 213 221 215
f 215 221 222
f 215 222 217
