v -0.00697499 -0.482039 -0.320023
v 0.0209607 -0.496007 -0.317185
v -0.00697499 -0.496007 -0.319935
v -0.0209428 -0.482039 -0.319802
v -0.00697499 -0.470134 -0.320023
v 0.0509887 -0.470134 -0.31417
v 0.0768886 -0.496007 -0.311553
v 0.112685 -0.503494 -0.307562
v -0.00697499 -0.508342 -0.313593
v -0.0209428 -0.508342 -0.313505
v -0.0209428 -0.496007 -0.319713
v 0.104824 -0.504441 -0.30805
v 0.0908565 -0.505665 -0.30876
v 0.0768886 -0.506594 -0.309469
v 0.0629208 -0.507259 -0.310179
v 0.0489529 -0.507711 -0.310844
v 0.0349851 -0.508006 -0.311553
v 0.0209607 -0.508219 -0.312263
v 0.00699286 -0.508325 -0.312928
v -0.0209428 -0.470134 -0.319802
v -0.0349107 -0.496007 -0.317673
v -0.0349107 -0.482039 -0.317717
v 0.0768886 -0.470134 -0.311553
v 0.104824 -0.496007 -0.308715
v 0.113137 -0.496007 -0.307695
v 0.120093 -0.496007 -0.305877
v 0.13276 -0.496007 -0.301753
v 0.154079 -0.503315 -0.293549
v 0.146728 -0.505341 -0.294924
v 0.13276 -0.50775 -0.297584
v 0.117944 -0.507554 -0.301176
v -0.00697499 -0.513689 -0.300378
v -0.0209428 -0.513689 -0.300378
v 0.0489529 -0.513058 -0.300378
v 0.0349851 -0.513353 -0.300378
v 0.0209607 -0.513566 -0.300378
v 0.00699286 -0.513672 -0.300378
v -0.0349107 -0.513583 -0.300378
v -0.0488785 -0.513263 -0.300378
v -0.0349107 -0.508236 -0.312529
v -0.0488785 -0.507916 -0.31142
v -0.0628464 -0.507289 -0.310267
v -0.0712158 -0.506599 -0.309602
v 0.104824 -0.509784 -0.300378
v 0.0908565 -0.511012 -0.300378
v 0.0768886 -0.511941 -0.300378
v 0.0629208 -0.512606 -0.300378
v -0.0349107 -0.470134 -0.317717
v -0.0488785 -0.496007 -0.315456
v 0.104824 -0.470134 -0.308715
v 0.106068 -0.470134 -0.308582
v 0.113137 -0.470134 -0.307695
v 0.120093 -0.470134 -0.305877
v 0.121959 -0.470134 -0.305301
v 0.13276 -0.470134 -0.301753
v 0.134852 -0.470134 -0.300999
v 0.146728 -0.496007 -0.296476
v 0.161261 -0.496007 -0.290977
v 0.216624 -0.496007 -0.270001
v 0.233023 -0.496007 -0.263748
v 0.225163 -0.504249 -0.266099
v 0.185012 -0.505179 -0.280689
v 0.174664 -0.507153 -0.28264
v 0.146728 -0.510688 -0.286409
v 0.13276 -0.513097 -0.286409
v 0.216624 -0.511621 -0.258471
v 0.174664 -0.5125 -0.27244
v 0.104824 -0.513689 -0.286409
v -0.0712158 -0.513689 -0.286409
v 0.118792 -0.513664 -0.286409
v -0.0628464 -0.512636 -0.300378
v -0.0712158 -0.511945 -0.300378
v -0.0712158 -0.496007 -0.311819
v -0.0628464 -0.496007 -0.313194
v -0.0628464 -0.470134 -0.313194
v 0.216624 -0.470134 -0.270001
v 0.233023 -0.470134 -0.263748
v 0.23472 -0.470134 -0.262906
v 0.244503 -0.496007 -0.257983
v 0.252589 -0.504398 -0.252307
v 0.244503 -0.506671 -0.254746
v 0.216624 -0.506275 -0.267695
v 0.202599 -0.508006 -0.270356
v 0.202599 -0.513353 -0.258471
v 0.160696 -0.513536 -0.27244
v 0.230083 -0.507984 -0.259181
v 0.244503 -0.512018 -0.244502
v 0.188631 -0.513689 -0.258471
v -0.0712158 -0.513689 -0.27244
v 0.230535 -0.513638 -0.244502
v -0.0712158 -0.470134 -0.311819
v 0.244503 -0.470134 -0.257983
v 0.253211 -0.496007 -0.252706
v 0.268423 -0.505754 -0.239624
v 0.293475 -0.503145 -0.223615
v 0.349968 -0.504108 -0.182241
v 0.309252 -0.505093 -0.210932
v 0.257735 -0.50763 -0.244369
v 0.300374 -0.512585 -0.202595
v 0.258471 -0.513084 -0.230533
v 0.272778 -0.508794 -0.231199
v 0.314116 -0.50824 -0.202773
v 0.342278 -0.511788 -0.174613
v 0.216624 -0.513689 -0.244502
v -0.0712158 -0.513378 -0.258471
v 0.468045 -0.513689 0.133014
v 0.45436 -0.513485 0.133014
v 0.272438 -0.513523 -0.216564
v 0.32831 -0.513625 -0.174613
v 0.286406 -0.513689 -0.202595
v 0.244503 -0.513689 -0.230533
v -0.0712158 -0.470134 -0.245655
v 0.253211 -0.470134 -0.252706
v 0.287481 -0.470134 -0.22805
v 0.286406 -0.496007 -0.228804
v 0.32503 -0.506074 -0.19825
v 0.326896 -0.496007 -0.199624
v 0.342278 -0.496007 -0.188538
v 0.350308 -0.496007 -0.182551
v 0.363314 -0.503098 -0.167695
v 0.380223 -0.506155 -0.143394
v 0.355284 -0.505865 -0.173283
v 0.342278 -0.506441 -0.185079
v 0.314342 -0.513327 -0.188582
v 0.356246 -0.510978 -0.160644
v 0.398149 -0.512466 -0.104768
v 0.384181 -0.513046 -0.118737
v 0.370213 -0.513387 -0.132706
v 0.356246 -0.51357 -0.146675
v 0.342278 -0.513689 -0.160644
v -0.0712158 -0.503448 0.133014
v 0.482013 -0.513689 0.133014
v -0.0712158 -0.471093 0.133014
v 0.440788 -0.470134 0.13297
v 0.327971 -0.470134 -0.19887
v 0.342278 -0.470134 -0.188538
v 0.350308 -0.470134 -0.182551
v 0.351382 -0.470134 -0.181398
v 0.35732 -0.496007 -0.174746
v 0.363314 -0.496007 -0.16774
v 0.369139 -0.496007 -0.160644
v 0.376038 -0.496007 -0.152219
v 0.401429 -0.496007 -0.121132
v 0.426141 -0.496007 -0.0908438
v 0.419581 -0.503772 -0.0983383
v 0.406462 -0.504931 -0.113327
v 0.393342 -0.505699 -0.12836
v 0.398093 -0.50792 -0.118294
v 0.384634 -0.508654 -0.132884
v 0.412173 -0.511545 -0.0908438
v 0.426141 -0.513348 -0.0629059
v 0.412173 -0.513634 -0.0768749
v 0.398149 -0.513689 -0.0908438
v 0.482013 -0.513689 0.104766
v 0.482295 -0.513664 0.133014
v 0.451419 -0.470134 0.133014
v 0.35732 -0.470134 -0.174746
v 0.363314 -0.470134 -0.16774
v 0.364162 -0.470134 -0.16672
v 0.370157 -0.470134 -0.159403
v 0.376038 -0.470134 -0.152219
v 0.401429 -0.470134 -0.121132
v 0.427103 -0.470134 -0.0896908
v 0.432475 -0.496007 -0.0829946
v 0.435585 -0.506108 -0.073948
v 0.422635 -0.506198 -0.0908438
v 0.411551 -0.506761 -0.103704
v 0.427272 -0.509097 -0.0779392
v 0.438356 -0.508001 -0.0629059
v 0.440109 -0.513139 -0.034968
v 0.468045 -0.513544 0.0349211
v 0.454077 -0.513638 0.0069832
v 0.440109 -0.513689 -0.0209991
v 0.426141 -0.513689 -0.048937
v 0.482013 -0.513596 0.0907969
v 0.49598 -0.511417 0.133014
v 0.468045 -0.513689 0.0488901
v 0.506442 -0.470134 0.133014
v 0.432475 -0.470134 -0.0829946
v 0.436773 -0.496007 -0.075988
v 0.443615 -0.496007 -0.0629059
v 0.449044 -0.505827 -0.0463649
v 0.451589 -0.507792 -0.034968
v 0.468045 -0.512282 0.0209522
v 0.454077 -0.512785 -0.00703011
v 0.482013 -0.512709 0.062859
v 0.482013 -0.513306 0.076828
v 0.49598 -0.511395 0.132704
v 0.504689 -0.50607 0.133014
v 0.506442 -0.496007 0.133014
v 0.504463 -0.470134 0.120819
v 0.436773 -0.470134 -0.075988
v 0.437791 -0.470134 -0.0740811
v 0.443615 -0.470134 -0.0629059
v 0.444124 -0.470134 -0.0617973
v 0.447404 -0.470134 -0.0545246
v 0.47664 -0.496007 0.0103978
v 0.48959 -0.504168 0.040553
v 0.476075 -0.504876 0.0115952
v 0.462559 -0.505422 -0.0173627
v 0.478167 -0.506935 0.0209522
v 0.464935 -0.507439 -0.00703011
v 0.482013 -0.511208 0.0488901
v 0.492022 -0.507362 0.062859
v 0.504689 -0.506049 0.132704
v 0.503728 -0.504526 0.121085
v 0.495019 -0.496007 0.062859
v 0.495358 -0.470134 0.0648989
v 0.47664 -0.470134 0.0103978
v 0.486763 -0.496007 0.0329255
v 0.489873 -0.496007 0.0399322
v 0.492305 -0.496007 0.0488901
v 0.490665 -0.505861 0.0488901
v 0.482522 -0.507861 0.0354976
v 0.495019 -0.470134 0.062859
v 0.486763 -0.470134 0.0329255
v 0.489873 -0.470134 0.0399322
v 0.492305 -0.470134 0.0488901
f 1 2 3
f 1 3 11
f 1 11 4
f 1 4 20
f 1 20 5
f 1 5 6
f 1 6 7
f 1 7 2
f 2 7 8
f 2 8 3
f 3 9 10
f 3 10 11
f 3 8 12
f 3 12 13
f 3 13 14
f 3 14 15
f 3 15 16
f 3 16 17
f 3 17 18
f 3 18 19
f 3 19 9
f 4 11 21
f 4 21 22
f 4 22 48
f 4 48 20
f 5 20 48
f 5 48 75
f 5 75 91
f 5 91 112
f 5 112 134
f 5 134 156
f 5 156 178
f 5 178 191
f 5 191 208
f 5 208 215
f 5 215 218
f 5 218 217
f 5 217 216
f 5 216 209
f 5 209 196
f 5 196 195
f 5 195 194
f 5 194 193
f 5 193 192
f 5 192 179
f 5 179 163
f 5 163 162
f 5 162 161
f 5 161 160
f 5 160 159
f 5 159 158
f 5 158 157
f 5 157 138
f 5 138 137
f 5 137 136
f 5 136 135
f 5 135 114
f 5 114 113
f 5 113 92
f 5 92 78
f 5 78 77
f 5 77 76
f 5 76 56
f 5 56 55
f 5 55 54
f 5 54 53
f 5 53 52
f 5 52 51
f 5 51 50
f 5 50 23
f 5 23 6
f 6 23 7
f 7 23 50
f 7 50 24
f 7 24 8
f 8 24 25
f 8 25 26
f 8 26 27
f 8 27 28
f 8 28 29
f 8 29 30
f 8 30 31
f 8 31 12
f 9 32 33
f 9 33 10
f 9 19 34
f 9 34 35
f 9 35 36
f 9 36 37
f 9 37 32
f 10 33 38
f 10 38 39
f 10 39 40
f 10 40 11
f 11 40 41
f 11 41 42
f 11 42 43
f 11 43 21
f 12 31 44
f 12 44 13
f 13 44 14
f 14 44 45
f 14 45 15
f 15 45 46
f 15 46 16
f 16 46 17
f 17 46 47
f 17 47 18
f 18 47 34
f 18 34 19
f 21 43 49
f 21 49 22
f 22 49 74
f 22 74 75
f 22 75 48
f 24 50 51
f 24 51 25
f 25 51 52
f 25 52 53
f 25 53 26
f 26 53 54
f 26 54 27
f 27 54 55
f 27 55 56
f 27 56 57
f 27 57 28
f 28 57 58
f 28 58 59
f 28 59 60
f 28 60 61
f 28 61 62
f 28 62 29
f 29 62 63
f 29 63 30
f 30 64 65
f 30 65 44
f 30 44 31
f 30 63 66
f 30 66 67
f 30 67 64
f 32 37 68
f 32 68 88
f 32 88 104
f 32 104 111
f 32 111 110
f 32 110 130
f 32 130 153
f 32 153 174
f 32 174 173
f 32 173 177
f 32 177 154
f 32 154 132
f 32 132 106
f 32 106 89
f 32 89 69
f 32 69 33
f 33 69 38
f 34 47 70
f 34 70 35
f 35 70 36
f 36 70 37
f 37 70 68
f 38 69 39
f 39 69 71
f 39 71 40
f 40 71 41
f 41 71 72
f 41 72 42
f 42 72 43
f 43 73 74
f 43 74 49
f 43 72 69
f 43 69 89
f 43 89 105
f 43 105 131
f 43 131 133
f 43 133 112
f 43 112 91
f 43 91 73
f 44 65 45
f 45 65 46
f 46 65 47
f 47 65 70
f 56 76 59
f 56 59 58
f 56 58 57
f 59 76 77
f 59 77 60
f 60 77 78
f 60 78 79
f 60 79 80
f 60 80 61
f 61 80 81
f 61 81 82
f 61 82 62
f 62 82 63
f 63 82 83
f 63 83 66
f 64 67 65
f 65 67 84
f 65 84 85
f 65 85 70
f 66 84 67
f 66 83 82
f 66 82 86
f 66 86 87
f 66 87 84
f 68 70 88
f 69 72 71
f 70 85 90
f 70 90 88
f 73 91 75
f 73 75 74
f 78 92 79
f 79 92 113
f 79 113 93
f 79 93 80
f 80 94 81
f 80 93 95
f 80 95 96
f 80 96 97
f 80 97 94
f 81 94 98
f 81 98 87
f 81 87 86
f 81 86 82
f 84 87 90
f 84 90 85
f 87 99 100
f 87 100 90
f 87 98 101
f 87 101 102
f 87 102 103
f 87 103 99
f 88 90 104
f 89 106 107
f 89 107 105
f 90 100 108
f 90 108 109
f 90 109 110
f 90 110 111
f 90 111 104
f 93 113 114
f 93 114 115
f 93 115 95
f 94 97 116
f 94 116 102
f 94 102 98
f 95 115 117
f 95 117 118
f 95 118 96
f 96 118 119
f 96 119 120
f 96 120 121
f 96 121 122
f 96 122 103
f 96 103 123
f 96 123 116
f 96 116 97
f 98 102 101
f 99 103 124
f 99 124 100
f 100 124 108
f 102 116 123
f 102 123 103
f 103 122 125
f 103 125 126
f 103 126 127
f 103 127 128
f 103 128 129
f 103 129 130
f 103 130 109
f 103 109 124
f 105 107 131
f 106 132 155
f 106 155 176
f 106 176 189
f 106 189 190
f 106 190 178
f 106 178 156
f 106 156 133
f 106 133 131
f 106 131 107
f 108 124 109
f 109 130 110
f 112 133 134
f 114 135 117
f 114 117 115
f 117 135 118
f 118 135 136
f 118 136 137
f 118 137 119
f 119 137 138
f 119 138 139
f 119 139 120
f 120 139 140
f 120 140 141
f 120 141 142
f 120 142 143
f 120 143 144
f 120 144 145
f 120 145 146
f 120 146 147
f 120 147 121
f 121 147 148
f 121 148 149
f 121 149 122
f 122 149 125
f 125 149 150
f 125 150 126
f 126 150 151
f 126 151 127
f 127 151 128
f 128 151 152
f 128 152 129
f 129 152 130
f 130 152 153
f 132 154 155
f 133 156 134
f 138 157 139
f 139 157 158
f 139 158 140
f 140 158 159
f 140 159 141
f 141 159 160
f 141 160 142
f 142 160 161
f 142 161 162
f 142 162 143
f 143 162 163
f 143 163 144
f 144 163 164
f 144 164 145
f 145 164 165
f 145 165 166
f 145 166 146
f 146 166 167
f 146 167 147
f 147 167 148
f 148 167 166
f 148 166 168
f 148 168 150
f 148 150 149
f 150 168 151
f 151 168 169
f 151 169 170
f 151 170 171
f 151 171 172
f 151 172 173
f 151 173 174
f 151 174 152
f 152 174 153
f 154 175 176
f 154 176 155
f 154 177 175
f 163 179 164
f 164 179 192
f 164 192 180
f 164 180 165
f 165 180 181
f 165 181 182
f 165 182 169
f 165 169 168
f 165 168 166
f 169 182 183
f 169 183 184
f 169 184 185
f 169 185 170
f 170 185 171
f 171 177 172
f 171 185 184
f 171 184 186
f 171 186 187
f 171 187 175
f 171 175 177
f 172 177 173
f 175 187 176
f 176 187 186
f 176 186 188
f 176 188 205
f 176 205 189
f 178 190 191
f 180 192 193
f 180 193 181
f 181 194 195
f 181 195 196
f 181 196 197
f 181 197 198
f 181 198 199
f 181 199 200
f 181 200 182
f 181 193 194
f 182 200 201
f 182 201 202
f 182 202 183
f 183 202 184
f 184 202 201
f 184 201 203
f 184 203 186
f 186 203 204
f 186 204 188
f 188 204 205
f 189 205 190
f 190 205 206
f 190 206 207
f 190 207 208
f 190 208 191
f 196 209 197
f 197 209 216
f 197 216 210
f 197 210 198
f 198 210 211
f 198 211 212
f 198 212 207
f 198 207 206
f 198 206 213
f 198 213 201
f 198 201 199
f 199 201 200
f 201 213 214
f 201 214 203
f 203 214 213
f 203 213 204
f 204 213 205
f 205 213 206
f 207 215 208
f 207 212 218
f 207 218 215
f 210 216 217
f 210 217 211
f 211 217 218
f 211 218 212
