v 0.482023 0.513689 0.133014
v 0.482023 0.513689 0.104779
v 0.356292 0.513689 -0.132732
v 0.468059 0.513053 0.118736
v 0.468059 0.512235 0.13272
v 0.468059 0.512144 0.133014
v 0.496005 0.511417 0.133014
v 0.468059 0.513689 0.0488973
v 0.482023 0.513598 0.0907953
v 0.398221 0.513689 -0.0908074
v 0.356292 0.513598 -0.140139
v 0.342328 0.512689 -0.140139
v 0.342328 0.511599 -0.132732
v 0.329033 0.507962 -0.140139
v 0.458653 0.506872 0.133014
v 0.467896 0.512053 0.133014
v 0.482023 0.512689 0.0628544
v 0.482023 0.513235 0.0768382
v 0.504706 0.506053 0.133014
v 0.492026 0.507326 0.0628544
v 0.440113 0.513689 -0.0209417
v 0.468059 0.513508 0.0349134
v 0.426149 0.513689 -0.0488826
v 0.412185 0.513598 -0.0768236
v 0.370274 0.513326 -0.132732
v 0.370727 0.511144 -0.140139
v 0.321798 0.495963 -0.140139
v 0.456248 0.496145 0.133014
v 0.482023 0.511144 0.0488973
v 0.468059 0.512235 0.0209563
v 0.50476 0.505781 0.133014
v 0.503747 0.504508 0.121089
v 0.490669 0.505781 0.0488973
v 0.426149 0.513326 -0.0628665
v 0.454077 0.51278 -0.0069846
v 0.384239 0.512962 -0.118748
v 0.398221 0.512417 -0.104765
v 0.384655 0.508599 -0.132893
v 0.381634 0.506872 -0.140139
v 0.321653 0.481964 -0.140139
v 0.456211 0.495963 0.133014
v 0.48253 0.507781 0.0355284
v 0.478207 0.506872 0.0209563
v 0.46493 0.507417 -0.0069846
v 0.451635 0.507781 -0.0349255
v 0.506442 0.495963 0.133014
v 0.504127 0.495963 0.118763
v 0.497308 0.495963 0.0768382
v 0.495029 0.495963 0.0628544
v 0.489602 0.504144 0.0405818
v 0.427288 0.509053 -0.0778931
v 0.412185 0.511508 -0.0908074
v 0.438358 0.507962 -0.0628665
v 0.398112 0.507872 -0.118294
v 0.393373 0.50569 -0.128374
v 0.384383 0.501145 -0.140139
v 0.321653 -0.398269 -0.140139
v 0.456211 -0.414995 0.133014
v 0.476108 0.504872 0.0115981
v 0.462597 0.505417 -0.0173321
v 0.449085 0.505781 -0.0463158
v 0.506442 -0.414995 0.133014
v 0.504127 -0.414995 0.118763
v 0.497308 -0.414995 0.0768382
v 0.492333 0.495963 0.0488973
v 0.495029 -0.414995 0.0628544
v 0.492876 -0.414995 0.0517047
v 0.489892 0.495963 0.0399134
v 0.486762 0.495963 0.0329348
v 0.476633 0.495963 0.0104217
v 0.450079 0.495963 -0.0485351
v 0.443622 0.495963 -0.0628665
v 0.435573 0.506053 -0.0739359
v 0.422676 0.506144 -0.0908074
v 0.41157 0.50669 -0.103695
v 0.406505 0.504872 -0.113347
v 0.385939 0.495963 -0.140139
v 0.321672 -0.414995 -0.140139
v 0.492333 -0.414995 0.0488973
v 0.489892 -0.414995 0.0399134
v 0.486762 -0.414995 0.0329348
v 0.482457 -0.414995 0.0233627
v 0.456211 0.481964 -0.0349255
v 0.476633 -0.414995 0.0104217
v 0.46446 -0.414995 -0.0166102
v 0.450079 -0.414995 -0.0485351
v 0.436803 0.495963 -0.075968
v 0.443622 -0.414995 -0.0628665
v 0.419601 0.50369 -0.0983207
v 0.432516 0.495963 -0.0829465
v 0.419818 0.495963 -0.0986148
v 0.395869 -0.414995 -0.127973
v 0.385939 -0.414995 -0.140139
v 0.456211 -0.414995 -0.0349255
v 0.436803 -0.414995 -0.075968
v 0.426185 0.495963 -0.0908074
v 0.432516 -0.414995 -0.0829465
v 0.427469 -0.414995 -0.0892299
v 0.419818 -0.414995 -0.0986148
v 0.426185 -0.414995 -0.0908074
f 1 2 8
f 1 8 21
f 1 21 23
f 1 23 10
f 1 10 3
f 1 3 4
f 1 4 5
f 1 5 6
f 1 6 16
f 1 16 15
f 1 15 28
f 1 28 41
f 1 41 58
f 1 58 62
f 1 62 46
f 1 46 31
f 1 31 19
f 1 19 7
f 1 7 2
f 2 7 9
f 2 9 8
f 3 10 11
f 3 11 12
f 3 12 4
f 4 12 5
f 5 12 13
f 5 13 14
f 5 14 15
f 5 15 16
f 5 16 6
f 7 17 18
f 7 18 9
f 7 19 20
f 7 20 17
f 8 9 22
f 8 22 21
f 9 18 22
f 10 23 24
f 10 24 25
f 10 25 11
f 11 25 26
f 11 26 39
f 11 39 56
f 11 56 77
f 11 77 93
f 11 93 78
f 11 78 57
f 11 57 40
f 11 40 27
f 11 27 14
f 11 14 12
f 12 14 13
f 14 27 15
f 15 27 28
f 17 20 29
f 17 29 30
f 17 30 22
f 17 22 18
f 19 31 32
f 19 32 20
f 20 32 33
f 20 33 29
f 21 22 34
f 21 34 23
f 22 30 35
f 22 35 34
f 23 34 24
f 24 34 25
f 25 34 36
f 25 36 26
f 26 36 37
f 26 37 38
f 26 38 39
f 27 40 41
f 27 41 28
f 29 33 42
f 29 42 43
f 29 43 30
f 30 43 44
f 30 44 45
f 30 45 35
f 31 46 32
f 32 46 47
f 32 47 48
f 32 48 49
f 32 49 50
f 32 50 33
f 33 43 42
f 33 50 43
f 34 51 52
f 34 52 37
f 34 37 36
f 34 35 53
f 34 53 51
f 35 45 53
f 37 52 38
f 38 52 54
f 38 54 39
f 39 54 55
f 39 55 56
f 40 57 58
f 40 58 41
f 43 50 59
f 43 59 60
f 43 60 61
f 43 61 44
f 44 61 45
f 45 61 53
f 46 62 63
f 46 63 47
f 47 63 64
f 47 64 48
f 48 64 66
f 48 66 49
f 49 65 50
f 49 66 67
f 49 67 65
f 50 65 68
f 50 68 69
f 50 69 70
f 50 70 71
f 50 71 72
f 50 72 59
f 51 53 73
f 51 73 74
f 51 74 54
f 51 54 52
f 53 61 73
f 54 74 75
f 54 75 55
f 55 76 77
f 55 77 56
f 55 75 74
f 55 74 76
f 57 78 58
f 58 78 93
f 58 93 92
f 58 92 99
f 58 99 100
f 58 100 98
f 58 98 97
f 58 97 95
f 58 95 88
f 58 88 86
f 58 86 94
f 58 94 85
f 58 85 84
f 58 84 82
f 58 82 81
f 58 81 80
f 58 80 79
f 58 79 67
f 58 67 66
f 58 66 64
f 58 64 63
f 58 63 62
f 59 72 60
f 60 72 61
f 61 72 73
f 65 67 79
f 65 79 80
f 65 80 68
f 68 80 81
f 68 81 69
f 69 81 82
f 69 82 70
f 70 83 71
f 70 82 84
f 70 84 85
f 70 85 83
f 71 83 94
f 71 94 86
f 71 86 88
f 71 88 72
f 72 87 73
f 72 88 95
f 72 95 87
f 73 89 74
f 73 87 90
f 73 90 89
f 74 89 76
f 76 89 77
f 77 89 91
f 77 91 92
f 77 92 93
f 83 85 94
f 87 95 97
f 87 97 90
f 89 90 96
f 89 96 91
f 90 97 98
f 90 98 96
f 91 96 100
f 91 100 99
f 91 99 92
f 96 98 100
