v -0.313931 -0.465806 0.594473
v -0.216978 -0.465806 0.594473
v -0.313057 -0.465806 0.595108
v -0.313931 0.495952 0.594473
v -0.0725291 -0.465806 0.641218
v -0.228604 0.481954 0.594473
v -0.281015 -0.465806 0.618184
v -0.265892 0.495952 0.629071
v -0.26575 0.503335 0.62896
v -0.281535 0.505156 0.616288
v -0.297319 0.506115 0.603627
v -0.302565 0.5088 0.594473
v -0.0725291 -0.465806 0.69746
v -0.228746 0.493363 0.594473
v -0.0725291 0.495952 0.64764
v -0.258472 -0.465806 0.634414
v -0.258472 0.495952 0.634414
v -0.240442 0.50554 0.644323
v -0.248902 0.495952 0.641087
v -0.258472 0.505827 0.631581
v -0.271232 0.50669 0.621278
v -0.286284 0.50832 0.608082
v -0.301336 0.509087 0.594897
v -0.301313 0.509183 0.594473
v -0.0750339 -0.465806 0.697208
v -0.0725291 0.481954 0.69746
v -0.228817 0.495952 0.594473
v -0.230518 0.499116 0.594473
v -0.238387 0.508129 0.594473
v -0.0725291 0.508033 0.652166
v -0.248902 -0.465806 0.641087
v -0.210834 0.50391 0.657156
v -0.202587 0.505923 0.658729
v -0.230518 0.507457 0.64644
v -0.244861 0.508608 0.63648
v -0.241907 0.495952 0.64513
v -0.230518 0.495952 0.65017
v -0.258472 0.511101 0.621762
v -0.272437 0.512635 0.60779
v -0.286402 0.513114 0.594473
v -0.295571 0.510717 0.594473
v -0.102539 -0.465806 0.694426
v -0.0725291 0.487323 0.69744
v -0.104807 0.495952 0.694194
v -0.243656 0.509567 0.594473
v -0.258472 0.513306 0.594473
v -0.0725291 0.513402 0.663669
v -0.241907 -0.465806 0.64513
v -0.170616 0.504964 0.671774
v -0.146727 0.495952 0.681955
v -0.139709 0.495952 0.684617
v -0.132714 0.495952 0.687268
v -0.160692 0.506882 0.673659
v -0.130398 0.505636 0.686381
v -0.188646 0.507937 0.66135
v -0.202587 0.511292 0.649697
v -0.230518 0.512827 0.635734
v -0.240064 -0.465806 0.645946
v -0.188646 0.481954 0.666058
v -0.230518 -0.465806 0.65017
v -0.22858 -0.465806 0.650906
v -0.244507 0.513498 0.621762
v -0.258472 0.513689 0.60779
v -0.272437 0.513594 0.594473
v -0.104807 -0.465806 0.694194
v -0.0725291 0.495952 0.697389
v -0.104807 0.508129 0.689415
v -0.118773 0.507553 0.688165
v -0.118773 0.495952 0.691694
v -0.0768534 0.513498 0.663669
v -0.0725291 0.513689 0.677641
v -0.170262 -0.465806 0.673034
v -0.139709 -0.465806 0.684617
v -0.132714 -0.465806 0.687268
v -0.160692 0.512251 0.663669
v -0.118773 0.512827 0.677641
v -0.188646 0.51321 0.649697
v -0.216553 0.513594 0.635734
v -0.202587 0.513689 0.635734
v -0.104807 0.513689 0.663669
v -0.118773 -0.465806 0.691694
v -0.0725291 0.499404 0.695686
v -0.0725291 0.508033 0.691361
v -0.0908422 0.508224 0.690081
v -0.104807 0.513498 0.677641
v -0.0768534 0.513689 0.677641
v -0.0768534 0.50832 0.690736
v -0.146727 0.513498 0.663669
v -0.174657 0.513689 0.649697
v -0.0908422 0.513594 0.677641
v -0.132738 0.513689 0.663669
f 1 2 5
f 1 5 13
f 1 13 25
f 1 25 42
f 1 42 65
f 1 65 81
f 1 81 74
f 1 74 73
f 1 73 72
f 1 72 61
f 1 61 60
f 1 60 58
f 1 58 48
f 1 48 31
f 1 31 16
f 1 16 7
f 1 7 3
f 1 3 4
f 1 4 12
f 1 12 24
f 1 24 41
f 1 41 40
f 1 40 64
f 1 64 46
f 1 46 45
f 1 45 29
f 1 29 28
f 1 28 27
f 1 27 14
f 1 14 6
f 1 6 2
f 2 6 5
f 3 7 8
f 3 8 4
f 4 8 9
f 4 9 10
f 4 10 11
f 4 11 12
f 5 6 14
f 5 14 15
f 5 15 30
f 5 30 47
f 5 47 71
f 5 71 83
f 5 83 82
f 5 82 66
f 5 66 43
f 5 43 26
f 5 26 13
f 7 16 17
f 7 17 8
f 8 17 9
f 9 18 10
f 9 17 19
f 9 19 18
f 10 18 20
f 10 20 21
f 10 21 11
f 11 21 22
f 11 22 23
f 11 23 12
f 12 23 24
f 13 26 25
f 14 27 15
f 15 27 28
f 15 28 29
f 15 29 30
f 16 31 19
f 16 19 17
f 18 32 33
f 18 33 34
f 18 34 35
f 18 35 20
f 18 19 36
f 18 36 37
f 18 37 32
f 19 31 48
f 19 48 36
f 20 35 21
f 21 35 22
f 22 35 38
f 22 38 39
f 22 39 23
f 23 39 40
f 23 40 41
f 23 41 24
f 25 26 42
f 26 43 44
f 26 44 42
f 29 45 30
f 30 45 46
f 30 46 47
f 32 49 33
f 32 37 50
f 32 50 51
f 32 51 52
f 32 52 49
f 33 53 34
f 33 49 54
f 33 54 53
f 34 53 55
f 34 55 56
f 34 56 57
f 34 57 35
f 35 57 38
f 36 48 58
f 36 58 37
f 37 59 50
f 37 58 60
f 37 60 61
f 37 61 59
f 38 57 39
f 39 57 62
f 39 62 40
f 40 62 63
f 40 63 64
f 42 44 65
f 43 66 44
f 44 66 67
f 44 67 68
f 44 68 69
f 44 69 81
f 44 81 65
f 46 64 70
f 46 70 47
f 47 70 71
f 49 52 54
f 50 59 72
f 50 72 51
f 51 72 73
f 51 73 74
f 51 74 52
f 52 69 54
f 52 74 81
f 52 81 69
f 53 68 55
f 53 54 68
f 54 69 68
f 55 68 75
f 55 75 56
f 56 75 57
f 57 75 76
f 57 76 77
f 57 77 78
f 57 78 62
f 59 61 72
f 62 78 63
f 63 78 79
f 63 79 89
f 63 89 91
f 63 91 86
f 63 86 71
f 63 71 80
f 63 80 64
f 64 80 70
f 66 82 67
f 67 82 83
f 67 83 84
f 67 84 85
f 67 85 76
f 67 76 68
f 68 76 75
f 70 80 71
f 71 86 87
f 71 87 83
f 76 85 88
f 76 88 77
f 77 88 78
f 78 88 89
f 78 89 79
f 83 87 84
f 84 87 85
f 85 90 91
f 85 91 89
f 85 89 88
f 85 87 90
f 86 91 90
f 86 90 87
