v 0.512624 -0.45398 0.174667
v 0.512457 -0.45398 0.188646
v 0.512624 -0.469868 0.174667
v 0.510939 -0.45398 0.160688
v 0.512457 -0.469868 0.188646
v 0.509656 -0.45398 0.216475
v 0.510872 -0.469868 0.204411
v 0.512278 -0.469868 0.190432
v 0.510939 -0.469868 0.160688
v 0.506688 -0.469868 0.134542
v 0.508663 -0.45398 0.146709
v 0.506822 -0.45398 0.244537
v 0.506822 -0.469868 0.244537
v 0.506431 -0.469868 0.133014
v 0.506431 -0.45398 0.133014
v 0.501187 -0.45398 0.300298
v 0.501176 -0.469868 0.300376
v 0.441414 -0.469868 0.133014
v 0.455953 -0.45398 0.133014
v 0.501176 -0.45398 0.300376
v 0.498297 -0.45398 0.314251
v 0.498275 -0.469868 0.314355
v 0.398646 -0.469868 0.397479
v 0.413932 -0.45398 0.397479
v 0.498275 -0.45398 0.314355
v 0.49765 -0.469868 0.316167
v 0.467222 -0.469868 0.397479
v 0.467222 -0.45398 0.397479
v 0.493432 -0.45398 0.328334
v 0.493432 -0.469868 0.328334
f 1 2 5
f 1 5 3
f 1 3 9
f 1 9 4
f 1 4 11
f 1 11 15
f 1 15 19
f 1 19 24
f 1 24 28
f 1 28 29
f 1 29 25
f 1 25 21
f 1 21 20
f 1 20 16
f 1 16 12
f 1 12 6
f 1 6 2
f 2 6 7
f 2 7 8
f 2 8 5
f 3 5 8
f 3 8 7
f 3 7 13
f 3 13 17
f 3 17 22
f 3 22 26
f 3 26 30
f 3 30 27
f 3 27 23
f 3 23 18
f 3 18 14
f 3 14 10
f 3 10 9
f 4 9 10
f 4 10 11
f 6 12 13
f 6 13 7
f 10 14 15
f 10 15 11
f 12 16 13
f 13 16 17
f 14 18 19
f 14 19 15
f 16 20 17
f 17 20 21
f 17 21 22
f 18 23 19
f 19 23 24
f 21 25 22
f 22 25 26
f 23 27 28
f 23 28 24
f 25 29 26
f 26 29 30
f 27 30 29
f 27 29 28
