v -0.0725291 -0.465811 0.69746
v -0.104814 -0.465811 0.6942
v -0.0725291 -0.482042 0.69746
v -0.0725291 -0.465811 0.641159
v -0.116538 -0.465811 0.692101
v -0.104814 -0.49601 0.6942
v -0.0725291 -0.49068 0.697405
v -0.0725291 -0.471093 0.133014
v -0.450634 -0.465811 0.133014
v -0.118779 -0.465811 0.691659
v -0.118779 -0.49601 0.691659
v -0.118779 -0.507554 0.688123
v -0.104814 -0.508187 0.689393
v -0.0725291 -0.49601 0.697349
v -0.0725291 -0.503448 0.133014
v -0.505979 -0.465811 0.133014
v -0.13046 -0.465811 0.687957
v -0.132702 -0.49601 0.687239
v -0.130417 -0.505679 0.686354
v -0.160719 -0.506973 0.673647
v -0.160719 -0.512321 0.663646
v -0.118779 -0.512902 0.677625
v -0.104814 -0.51353 0.677625
v -0.0908482 -0.508313 0.690056
v -0.0725291 -0.508093 0.691327
v -0.454083 -0.513469 0.133014
v -0.0725291 -0.513689 0.649668
v -0.505979 -0.49601 0.133014
v -0.506238 -0.465811 0.13528
v -0.132702 -0.465811 0.687239
v -0.138564 -0.465811 0.685028
v -0.139728 -0.49601 0.684586
v -0.210849 -0.503978 0.657127
v -0.170633 -0.504985 0.671768
v -0.202616 -0.506007 0.658729
v -0.230547 -0.507498 0.646408
v -0.202616 -0.511355 0.649668
v -0.230547 -0.512841 0.635689
v -0.18865 -0.513291 0.649668
v -0.14671 -0.513497 0.663646
v -0.0908482 -0.513657 0.677625
v -0.0768826 -0.508341 0.690719
v -0.174685 -0.513689 0.649668
v -0.132745 -0.513689 0.663646
v -0.0725291 -0.511829 0.682211
v -0.468048 -0.513689 0.133014
v -0.0725291 -0.513689 0.677625
v -0.504514 -0.505642 0.133014
v -0.507402 -0.49601 0.146717
v -0.507402 -0.465811 0.146717
v -0.14559 -0.465811 0.682376
v -0.158435 -0.465811 0.677514
v -0.211495 -0.49601 0.657403
v -0.218478 -0.49601 0.654751
v -0.230547 -0.49601 0.650165
v -0.240461 -0.505539 0.644308
v -0.244901 -0.508688 0.636463
v -0.258521 -0.511177 0.621711
v -0.272487 -0.512691 0.607732
v -0.244513 -0.513549 0.621711
v -0.216582 -0.513605 0.635689
v -0.0768826 -0.513689 0.677625
v -0.258521 -0.513689 0.607732
v -0.482014 -0.513689 0.133014
v -0.504471 -0.505857 0.133014
v -0.511626 -0.49601 0.188652
v -0.50904 -0.465811 0.16296
v -0.211495 -0.465811 0.657403
v -0.218478 -0.465811 0.654751
v -0.230547 -0.465811 0.650165
v -0.240116 -0.465811 0.645911
v -0.241926 -0.49601 0.645082
v -0.248909 -0.49601 0.641049
v -0.265806 -0.503397 0.628949
v -0.281582 -0.505229 0.616241
v -0.258521 -0.505834 0.631545
v -0.271237 -0.506715 0.621269
v -0.286323 -0.50836 0.608064
v -0.314341 -0.51196 0.57983
v -0.286453 -0.513371 0.593809
v -0.328306 -0.513052 0.565852
v -0.300375 -0.513647 0.57983
v -0.314341 -0.513689 0.565852
v -0.495979 -0.513572 0.202631
v -0.495979 -0.513389 0.188652
v -0.495979 -0.513113 0.174674
v -0.495979 -0.512696 0.160695
v -0.495979 -0.512068 0.146717
v -0.495979 -0.511205 0.133014
v -0.482014 -0.513689 0.272468
v -0.50516 -0.50672 0.146717
v -0.512833 -0.49601 0.202631
v -0.511626 -0.465811 0.188652
v -0.241926 -0.465811 0.645082
v -0.247789 -0.465811 0.641712
v -0.248909 -0.465811 0.641049
v -0.25697 -0.465811 0.635468
v -0.258521 -0.49601 0.634363
v -0.265935 -0.49601 0.629059
v -0.329901 -0.49601 0.582924
v -0.339599 -0.49601 0.575907
v -0.322401 -0.50431 0.587565
v -0.297315 -0.506134 0.603588
v -0.338177 -0.505712 0.574913
v -0.327573 -0.507554 0.579665
v -0.342617 -0.508693 0.566404
v -0.342315 -0.513422 0.551873
v -0.342315 -0.513689 0.537895
v -0.495979 -0.513469 0.216609
v -0.507919 -0.508224 0.202631
v -0.482014 -0.513685 0.286447
v -0.507316 -0.508046 0.188652
v -0.506583 -0.507765 0.174674
v -0.505893 -0.507348 0.160695
v -0.468048 -0.513689 0.342361
v -0.507617 -0.508121 0.216609
v -0.512272 -0.49601 0.216609
v -0.512747 -0.465811 0.204896
v -0.512833 -0.465811 0.202631
v -0.258521 -0.465811 0.634363
v -0.265935 -0.465811 0.629059
v -0.288478 -0.465811 0.612815
v -0.32878 -0.465811 0.583753
v -0.338048 -0.465811 0.577068
v -0.345461 -0.465811 0.571598
v -0.346582 -0.49601 0.570714
v -0.352444 -0.506209 0.562095
v -0.356755 -0.50874 0.552149
v -0.35628 -0.513113 0.537895
v -0.412143 -0.513277 0.468057
v -0.398177 -0.513511 0.482036
v -0.384212 -0.513657 0.495959
v -0.370246 -0.513689 0.509938
v -0.495979 -0.513014 0.230588
v -0.482014 -0.513521 0.300425
v -0.482014 -0.513099 0.314404
v -0.468048 -0.513286 0.356339
v -0.440117 -0.513689 0.39822
v -0.426108 -0.513647 0.4401
v -0.440117 -0.513558 0.412198
v -0.454083 -0.51345 0.384241
v -0.495979 -0.512171 0.244566
v -0.506497 -0.507666 0.230588
v -0.512272 -0.465811 0.216609
v -0.505333 -0.506823 0.244566
v -0.504212 -0.505356 0.25849
v -0.503436 -0.503964 0.268214
v -0.496367 -0.49601 0.314404
v -0.500548 -0.465811 0.288712
v -0.346582 -0.465811 0.570714
v -0.353996 -0.49601 0.563752
v -0.360979 -0.49601 0.556072
v -0.365548 -0.505796 0.547674
v -0.370203 -0.50807 0.537563
v -0.426324 -0.508416 0.468002
v -0.384212 -0.511735 0.509938
v -0.370246 -0.512583 0.523916
v -0.426108 -0.512818 0.454079
v -0.412143 -0.513689 0.454079
v -0.482014 -0.51233 0.328382
v -0.468048 -0.510929 0.370263
v -0.440117 -0.512363 0.426122
v -0.454083 -0.511735 0.39822
v -0.49266 -0.507756 0.314404
v -0.49154 -0.506982 0.328382
v -0.490333 -0.505314 0.339267
v -0.494083 -0.49601 0.328382
v -0.496367 -0.465811 0.314404
v -0.353996 -0.465811 0.563752
v -0.359858 -0.465811 0.557343
v -0.360979 -0.465811 0.556072
v -0.366712 -0.49601 0.549111
v -0.391798 -0.503992 0.517673
v -0.378651 -0.505084 0.532701
v -0.421841 -0.506012 0.478279
v -0.434686 -0.505449 0.463306
v -0.437057 -0.50747 0.454079
v -0.480031 -0.507938 0.356339
v -0.476884 -0.505581 0.370263
v -0.475246 -0.503415 0.377722
v -0.488565 -0.49601 0.348217
v -0.490979 -0.49601 0.341256
v -0.494083 -0.465811 0.328382
v -0.366712 -0.465811 0.549111
v -0.416324 -0.465811 0.488334
v -0.423177 -0.49601 0.479936
v -0.43016 -0.49601 0.471372
v -0.435462 -0.49601 0.464411
v -0.440979 -0.49601 0.454079
v -0.44822 -0.504962 0.435625
v -0.450333 -0.507015 0.426122
v -0.463608 -0.506392 0.39822
v -0.461712 -0.504278 0.406673
v -0.445634 -0.49601 0.443857
v -0.45891 -0.49601 0.414408
v -0.475333 -0.49601 0.377943
v -0.478781 -0.49601 0.370263
v -0.485031 -0.49601 0.356339
v -0.488609 -0.482042 0.348217
v -0.490979 -0.465811 0.341256
v -0.423177 -0.465811 0.479936
v -0.43016 -0.465811 0.471372
v -0.435462 -0.465811 0.464411
v -0.440979 -0.465811 0.454079
v -0.445634 -0.465811 0.443857
v -0.45891 -0.465811 0.414408
v -0.485074 -0.482042 0.356339
v -0.488609 -0.465811 0.348217
v -0.485074 -0.465811 0.356339
f 1 2 6
f 1 6 3
f 1 3 7
f 1 7 14
f 1 14 25
f 1 25 45
f 1 45 47
f 1 47 27
f 1 27 15
f 1 15 8
f 1 8 4
f 1 4 9
f 1 9 16
f 1 16 29
f 1 29 50
f 1 50 67
f 1 67 93
f 1 93 119
f 1 119 118
f 1 118 144
f 1 144 149
f 1 149 168
f 1 168 183
f 1 183 200
f 1 200 208
f 1 208 209
f 1 209 206
f 1 206 205
f 1 205 204
f 1 204 203
f 1 203 202
f 1 202 201
f 1 201 185
f 1 185 184
f 1 184 171
f 1 171 170
f 1 170 169
f 1 169 150
f 1 150 125
f 1 125 124
f 1 124 123
f 1 123 122
f 1 122 121
f 1 121 120
f 1 120 97
f 1 97 96
f 1 96 95
f 1 95 94
f 1 94 71
f 1 71 70
f 1 70 69
f 1 69 68
f 1 68 52
f 1 52 51
f 1 51 31
f 1 31 30
f 1 30 17
f 1 17 10
f 1 10 5
f 1 5 2
f 2 5 6
f 3 6 7
f 4 8 9
f 5 10 11
f 5 11 6
f 6 11 12
f 6 12 13
f 6 13 14
f 6 14 7
f 8 15 26
f 8 26 46
f 8 46 64
f 8 64 89
f 8 89 65
f 8 65 48
f 8 48 28
f 8 28 16
f 8 16 9
f 10 17 11
f 11 17 18
f 11 18 19
f 11 19 12
f 12 19 20
f 12 20 21
f 12 21 22
f 12 22 13
f 13 22 23
f 13 23 24
f 13 24 25
f 13 25 14
f 15 27 26
f 16 28 29
f 17 30 18
f 18 30 31
f 18 31 51
f 18 51 32
f 18 32 33
f 18 33 34
f 18 34 19
f 19 34 35
f 19 35 20
f 20 35 36
f 20 36 21
f 21 36 37
f 21 37 38
f 21 38 22
f 22 38 39
f 22 39 40
f 22 40 23
f 23 41 42
f 23 42 24
f 23 40 43
f 23 43 44
f 23 44 41
f 24 42 25
f 25 42 45
f 26 27 46
f 27 47 62
f 27 62 44
f 27 44 43
f 27 43 63
f 27 63 83
f 27 83 108
f 27 108 133
f 27 133 159
f 27 159 138
f 27 138 115
f 27 115 90
f 27 90 64
f 27 64 46
f 28 48 49
f 28 49 29
f 29 49 50
f 32 51 52
f 32 52 53
f 32 53 33
f 33 53 54
f 33 54 55
f 33 55 56
f 33 56 35
f 33 35 34
f 35 56 36
f 36 56 57
f 36 57 38
f 36 38 37
f 38 58 59
f 38 59 60
f 38 60 61
f 38 61 39
f 38 57 58
f 39 61 40
f 40 61 43
f 41 62 45
f 41 45 42
f 41 44 62
f 43 61 63
f 45 62 47
f 48 65 66
f 48 66 49
f 49 67 50
f 49 66 67
f 52 68 53
f 53 68 69
f 53 69 54
f 54 69 70
f 54 70 55
f 55 70 71
f 55 71 72
f 55 72 56
f 56 72 73
f 56 73 74
f 56 74 75
f 56 75 76
f 56 76 57
f 57 76 77
f 57 77 78
f 57 78 58
f 58 78 79
f 58 79 59
f 59 80 60
f 59 79 81
f 59 81 80
f 60 80 82
f 60 82 63
f 60 63 61
f 63 82 83
f 64 84 85
f 64 85 86
f 64 86 87
f 64 87 88
f 64 88 89
f 64 90 84
f 65 89 91
f 65 91 92
f 65 92 66
f 66 92 119
f 66 119 93
f 66 93 67
f 71 94 72
f 72 94 95
f 72 95 73
f 73 95 96
f 73 96 97
f 73 97 98
f 73 98 74
f 74 98 99
f 74 99 100
f 74 100 101
f 74 101 102
f 74 102 75
f 75 103 78
f 75 78 77
f 75 77 76
f 75 102 104
f 75 104 103
f 78 103 104
f 78 104 105
f 78 105 106
f 78 106 79
f 79 106 81
f 80 81 107
f 80 107 82
f 81 106 107
f 82 107 83
f 83 107 108
f 84 109 110
f 84 110 85
f 84 90 111
f 84 111 109
f 85 110 86
f 86 110 87
f 87 110 112
f 87 112 88
f 88 112 113
f 88 113 114
f 88 114 89
f 89 114 91
f 90 115 111
f 91 114 92
f 92 110 116
f 92 116 117
f 92 117 118
f 92 118 119
f 92 114 113
f 92 113 112
f 92 112 110
f 97 120 98
f 98 120 121
f 98 121 99
f 99 121 122
f 99 122 123
f 99 123 100
f 100 123 124
f 100 124 101
f 101 124 125
f 101 125 126
f 101 126 102
f 102 126 104
f 104 126 127
f 104 127 106
f 104 106 105
f 106 127 128
f 106 128 107
f 107 128 129
f 107 129 130
f 107 130 131
f 107 131 132
f 107 132 133
f 107 133 108
f 109 134 116
f 109 116 110
f 109 111 135
f 109 135 136
f 109 136 134
f 111 115 135
f 115 137 135
f 115 138 139
f 115 139 140
f 115 140 141
f 115 141 137
f 116 134 142
f 116 142 143
f 116 143 117
f 117 144 118
f 117 143 145
f 117 145 146
f 117 146 147
f 117 147 148
f 117 148 149
f 117 149 144
f 125 150 126
f 126 150 169
f 126 169 151
f 126 151 127
f 127 151 152
f 127 152 153
f 127 153 128
f 128 153 154
f 128 154 155
f 128 155 156
f 128 156 157
f 128 157 129
f 129 157 158
f 129 158 130
f 130 158 139
f 130 139 131
f 131 139 132
f 132 139 159
f 132 159 133
f 134 136 160
f 134 160 142
f 135 137 136
f 136 137 160
f 137 161 160
f 137 141 158
f 137 158 162
f 137 162 163
f 137 163 161
f 138 159 139
f 139 158 140
f 140 158 141
f 142 160 164
f 142 164 143
f 143 164 165
f 143 165 145
f 145 165 146
f 146 165 147
f 147 165 166
f 147 166 167
f 147 167 148
f 148 167 183
f 148 183 168
f 148 168 149
f 151 169 170
f 151 170 152
f 152 170 171
f 152 171 184
f 152 184 172
f 152 172 173
f 152 173 174
f 152 174 153
f 153 174 175
f 153 175 154
f 154 175 155
f 155 175 176
f 155 176 177
f 155 177 158
f 155 158 156
f 156 158 157
f 158 177 162
f 160 165 164
f 160 161 178
f 160 178 165
f 161 163 178
f 162 177 163
f 163 177 178
f 165 178 166
f 166 178 179
f 166 179 180
f 166 180 181
f 166 181 182
f 166 182 167
f 167 182 200
f 167 200 183
f 172 184 185
f 172 185 186
f 172 186 173
f 173 186 187
f 173 187 176
f 173 176 174
f 174 176 175
f 176 187 188
f 176 188 189
f 176 189 190
f 176 190 177
f 177 190 191
f 177 191 178
f 178 191 192
f 178 192 179
f 179 192 190
f 179 190 193
f 179 193 180
f 180 193 190
f 180 190 189
f 180 189 194
f 180 194 195
f 180 195 196
f 180 196 197
f 180 197 198
f 180 198 181
f 181 198 207
f 181 207 199
f 181 199 182
f 182 199 208
f 182 208 200
f 185 201 186
f 186 201 202
f 186 202 187
f 187 202 203
f 187 203 188
f 188 203 204
f 188 204 189
f 189 204 205
f 189 205 194
f 190 192 191
f 194 205 206
f 194 206 195
f 195 206 209
f 195 209 207
f 195 207 196
f 196 207 197
f 197 207 198
f 199 207 209
f 199 209 208
