v -0.0918634 -0.258753 0.579415
v -0.325107 -0.118901 0.579048
v -0.325107 -0.126075 0.579599
v -0.165898 -0.23221 0.579507
v -0.0995425 -0.258753 0.579323
v -0.0918634 -0.272034 0.575834
v -0.0918634 -0.245491 0.577854
v -0.338384 -0.118901 0.578589
v -0.311436 -0.118901 0.576201
v -0.298553 -0.152617 0.579507
v -0.245474 -0.192423 0.579507
v -0.325107 -0.139337 0.578313
v -0.31183 -0.152617 0.578405
v -0.2057 -0.218948 0.579415
v -0.139345 -0.245491 0.579323
v -0.112819 -0.258753 0.578864
v -0.0995425 -0.272034 0.575375
v -0.0918634 -0.279894 0.57161
v -0.0918634 -0.23483 0.573263
v -0.351548 -0.118901 0.575099
v -0.338384 -0.126075 0.577762
v -0.301366 -0.118901 0.572529
v -0.285305 -0.16588 0.579231
v -0.232254 -0.205703 0.579139
v -0.325951 -0.153431 0.574181
v -0.311999 -0.16635 0.573814
v -0.298553 -0.16588 0.577579
v -0.258751 -0.192423 0.578313
v -0.272028 -0.17916 0.578864
v -0.218977 -0.218948 0.578589
v -0.179147 -0.23221 0.579048
v -0.152621 -0.245491 0.578589
v -0.126068 -0.258753 0.57767
v -0.11251 -0.272901 0.57363
v -0.107869 -0.279026 0.570876
v -0.0995425 -0.279514 0.571335
v -0.0918634 -0.286651 0.563255
v -0.0918634 -0.228199 0.567662
v -0.338749 -0.1395 0.573814
v -0.360324 -0.118901 0.571519
v -0.351464 -0.125551 0.573171
v -0.294784 -0.118901 0.56803
v -0.334586 -0.149564 0.572069
v -0.330958 -0.158418 0.570049
v -0.322097 -0.162248 0.572253
v -0.285305 -0.17916 0.576477
v -0.29771 -0.178853 0.572896
v -0.258611 -0.205938 0.57363
v -0.245474 -0.205703 0.577303
v -0.232254 -0.218948 0.576109
v -0.218499 -0.232807 0.573539
v -0.2057 -0.23221 0.576109
v -0.192424 -0.23221 0.577946
v -0.165898 -0.245491 0.577028
v -0.139345 -0.258753 0.575742
v -0.126068 -0.269522 0.573171
v -0.116729 -0.277906 0.569866
v -0.11251 -0.282694 0.564908
v -0.0995425 -0.285332 0.563898
v -0.0918634 -0.291548 0.555909
v -0.0918634 -0.22529 0.563898
v -0.359311 -0.12078 0.571243
v -0.346935 -0.135181 0.571702
v -0.366681 -0.118901 0.565826
v -0.0918634 -0.223122 0.561051
v -0.28778 -0.118901 0.56151
v -0.343447 -0.144035 0.569315
v -0.339312 -0.15381 0.565275
v -0.335205 -0.162953 0.561235
v -0.326485 -0.167018 0.565275
v -0.316528 -0.171102 0.569407
v -0.307667 -0.174228 0.57161
v -0.269046 -0.201692 0.572069
v -0.244377 -0.218442 0.57262
v -0.232254 -0.228163 0.572161
v -0.222606 -0.237613 0.569407
v -0.213745 -0.239329 0.570968
v -0.2057 -0.240829 0.571978
v -0.192424 -0.243431 0.573355
v -0.165898 -0.255176 0.57262
v -0.139345 -0.266956 0.571702
v -0.146658 -0.265619 0.570784
v -0.155519 -0.263903 0.569131
v -0.126068 -0.276153 0.567938
v -0.126068 -0.281484 0.561327
v -0.0995425 -0.291132 0.554349
v -0.0918634 -0.291837 0.554808
v -0.355767 -0.129634 0.568305
v -0.371097 -0.118901 0.561235
v -0.364093 -0.125081 0.563439
v -0.0918634 -0.218966 0.550676
v -0.281592 -0.118901 0.55242
v -0.373123 -0.118901 0.559123
v -0.360015 -0.134874 0.55949
v -0.34761 -0.149221 0.560409
v -0.344038 -0.158056 0.554349
v -0.330873 -0.171806 0.555358
v -0.322013 -0.175113 0.5605
v -0.262942 -0.210528 0.569039
v -0.277907 -0.198494 0.570141
v -0.292731 -0.186352 0.570968
v -0.268484 -0.214575 0.560133
v -0.239202 -0.225832 0.570784
v -0.18466 -0.251652 0.570141
v -0.233435 -0.235535 0.564632
v -0.229835 -0.241154 0.560592
v -0.218499 -0.242925 0.564632
v -0.202437 -0.253423 0.559307
v -0.13535 -0.279677 0.558848
v -0.126068 -0.286073 0.550676
v -0.112622 -0.290157 0.550217
v -0.108094 -0.292289 0.545534
v -0.0995425 -0.292831 0.547646
v -0.0918634 -0.29312 0.549758
v -0.0918634 -0.217105 0.537362
v -0.278863 -0.118901 0.544891
v -0.372419 -0.120527 0.55848
v -0.376751 -0.118901 0.550676
v -0.373938 -0.122407 0.550676
v -0.349269 -0.153232 0.550217
v -0.345472 -0.159827 0.545534
v -0.338327 -0.165826 0.5504
v -0.332617 -0.173252 0.546452
v -0.325895 -0.176902 0.550768
v -0.316134 -0.184075 0.550676
v -0.277316 -0.211323 0.554257
v -0.238639 -0.238715 0.556919
v -0.292224 -0.199271 0.557562
v -0.307105 -0.187201 0.559123
v -0.253576 -0.226645 0.558756
v -0.244377 -0.228958 0.563439
v -0.248062 -0.222525 0.56757
v -0.211298 -0.251706 0.555818
v -0.173324 -0.265692 0.557746
v -0.144211 -0.277942 0.554808
v -0.139598 -0.280906 0.550492
v -0.147277 -0.279153 0.545993
v -0.126068 -0.288007 0.537362
v -0.116026 -0.291259 0.537362
v -0.109388 -0.292542 0.537362
v -0.0918634 -0.302787 0.404685
v -0.0995425 -0.293861 0.537362
v -0.0918634 -0.294674 0.537362
v -0.0918634 -0.216978 0.52414
v -0.278048 -0.118901 0.52414
v -0.278301 -0.118901 0.537362
v -0.379058 -0.118901 0.537362
v -0.375092 -0.123834 0.537362
v -0.351914 -0.152617 0.537362
v -0.345782 -0.160224 0.537362
v -0.33979 -0.166856 0.537362
v -0.333152 -0.173704 0.537362
v -0.325107 -0.179739 0.537362
v -0.279201 -0.212714 0.54535
v -0.30041 -0.195567 0.550676
v -0.245193 -0.235571 0.551778
v -0.240552 -0.240106 0.548105
v -0.233435 -0.243088 0.551778
v -0.218865 -0.250044 0.551135
v -0.214364 -0.252899 0.547003
v -0.222184 -0.250803 0.537362
v -0.1785 -0.267715 0.537362
v -0.165898 -0.272594 0.537362
v -0.0918634 -0.303491 0.391463
v -0.0918634 -0.216978 -0.358418
v -0.278048 -0.118901 -0.358326
v -0.379227 -0.118901 0.52414
v -0.375176 -0.123942 0.52414
v -0.352082 -0.152617 0.52414
v -0.345866 -0.160315 0.52414
v -0.339874 -0.166964 0.52414
v -0.333236 -0.173776 0.52414
v -0.325107 -0.179883 0.52414
v -0.311014 -0.190038 0.537362
v -0.311127 -0.19011 0.52414
v -0.295403 -0.201602 0.52414
v -0.263871 -0.224477 0.537362
v -0.248147 -0.23595 0.537362
v -0.241508 -0.240793 0.537362
v -0.232254 -0.246105 0.537362
v -0.232254 -0.246268 0.52414
v -0.222353 -0.250875 0.52414
v -0.222353 -0.250875 -0.358418
v -0.143902 -0.281249 -0.358418
v -0.126068 -0.288133 -0.358418
v -0.121314 -0.289705 -0.358418
v -0.116364 -0.291313 -0.358418
v -0.109725 -0.292596 -0.358418
v -0.104746 -0.293283 -0.358418
v -0.0995425 -0.293987 -0.358418
v -0.0918634 -0.294818 -0.358418
v -0.278048 -0.118937 -0.358418
v -0.283842 -0.118901 -0.358418
v -0.379227 -0.118901 -0.358418
v -0.375176 -0.123942 -0.358418
v -0.37256 -0.127195 -0.358418
v -0.352082 -0.152617 -0.358418
v -0.345866 -0.160315 -0.358418
v -0.342941 -0.163585 -0.358418
v -0.339874 -0.166964 -0.358418
v -0.336499 -0.170433 -0.358418
v -0.333236 -0.173776 -0.358418
v -0.325107 -0.179883 -0.358418
v -0.321506 -0.182521 -0.358418
v -0.311127 -0.19011 -0.358418
v -0.290959 -0.204854 -0.358418
v -0.248259 -0.236041 0.52414
v -0.2529 -0.232662 -0.358418
v -0.241621 -0.240883 0.52414
v -0.232254 -0.246268 -0.358418
v -0.241621 -0.240883 -0.358418
f 1 2 3
f 1 3 4
f 1 4 5
f 1 5 6
f 1 6 18
f 1 18 37
f 1 37 60
f 1 60 87
f 1 87 114
f 1 114 143
f 1 143 141
f 1 141 164
f 1 164 191
f 1 191 165
f 1 165 144
f 1 144 115
f 1 115 91
f 1 91 65
f 1 65 61
f 1 61 38
f 1 38 19
f 1 19 7
f 1 7 2
f 2 8 3
f 2 7 9
f 2 9 22
f 2 22 42
f 2 42 66
f 2 66 92
f 2 92 116
f 2 116 146
f 2 146 145
f 2 145 166
f 2 166 193
f 2 193 194
f 2 194 167
f 2 167 147
f 2 147 118
f 2 118 93
f 2 93 89
f 2 89 64
f 2 64 40
f 2 40 20
f 2 20 8
f 3 10 11
f 3 11 4
f 3 8 12
f 3 12 13
f 3 13 10
f 4 11 14
f 4 14 15
f 4 15 5
f 5 15 16
f 5 16 6
f 6 16 17
f 6 17 18
f 7 19 9
f 8 20 21
f 8 21 12
f 9 19 22
f 10 13 23
f 10 23 11
f 11 23 24
f 11 24 14
f 12 21 25
f 12 25 13
f 13 25 26
f 13 26 27
f 13 27 28
f 13 28 29
f 13 29 23
f 14 24 30
f 14 30 31
f 14 31 15
f 15 31 32
f 15 32 16
f 16 32 33
f 16 33 17
f 17 33 34
f 17 34 35
f 17 35 36
f 17 36 18
f 18 36 37
f 19 38 22
f 20 39 21
f 20 40 41
f 20 41 39
f 21 39 25
f 22 38 42
f 23 29 24
f 24 29 28
f 24 28 30
f 25 39 43
f 25 43 44
f 25 44 45
f 25 45 26
f 26 46 27
f 26 45 47
f 26 47 48
f 26 48 46
f 27 46 49
f 27 49 28
f 28 49 30
f 30 49 50
f 30 50 51
f 30 51 52
f 30 52 53
f 30 53 32
f 30 32 31
f 32 53 54
f 32 54 33
f 33 54 55
f 33 55 56
f 33 56 34
f 34 56 35
f 35 56 57
f 35 57 58
f 35 58 59
f 35 59 37
f 35 37 36
f 37 59 60
f 38 61 42
f 39 41 43
f 40 62 63
f 40 63 41
f 40 64 62
f 41 63 43
f 42 61 65
f 42 65 66
f 43 63 44
f 44 62 67
f 44 67 68
f 44 68 69
f 44 69 70
f 44 70 71
f 44 71 45
f 44 63 62
f 45 71 72
f 45 72 47
f 46 48 50
f 46 50 49
f 47 72 73
f 47 73 48
f 48 73 74
f 48 74 75
f 48 75 50
f 50 75 51
f 51 75 76
f 51 76 77
f 51 77 78
f 51 78 79
f 51 79 52
f 52 55 54
f 52 54 53
f 52 79 55
f 55 79 56
f 56 79 80
f 56 80 81
f 56 81 57
f 57 81 82
f 57 82 83
f 57 83 84
f 57 84 85
f 57 85 58
f 58 85 86
f 58 86 60
f 58 60 59
f 60 86 87
f 62 64 88
f 62 88 67
f 64 89 90
f 64 90 67
f 64 67 88
f 65 91 66
f 66 91 92
f 67 90 93
f 67 93 94
f 67 94 95
f 67 95 68
f 68 95 69
f 69 95 96
f 69 96 97
f 69 97 98
f 69 98 70
f 70 98 71
f 71 99 100
f 71 100 101
f 71 101 72
f 71 98 102
f 71 102 99
f 72 101 73
f 73 101 103
f 73 103 75
f 73 75 74
f 75 103 76
f 76 83 104
f 76 104 77
f 76 103 105
f 76 105 106
f 76 106 107
f 76 107 108
f 76 108 83
f 77 104 82
f 77 82 78
f 78 81 80
f 78 80 79
f 78 82 81
f 82 104 83
f 83 108 85
f 83 85 84
f 85 108 109
f 85 109 110
f 85 110 111
f 85 111 86
f 86 111 112
f 86 112 113
f 86 113 114
f 86 114 87
f 89 93 90
f 91 115 116
f 91 116 92
f 93 117 94
f 93 118 117
f 94 117 96
f 94 96 95
f 96 118 119
f 96 119 120
f 96 120 121
f 96 121 122
f 96 122 97
f 96 117 118
f 97 122 123
f 97 123 124
f 97 124 125
f 97 125 126
f 97 126 127
f 97 127 128
f 97 128 129
f 97 129 98
f 98 129 102
f 99 103 100
f 99 102 130
f 99 130 131
f 99 131 132
f 99 132 103
f 100 103 101
f 102 129 130
f 103 132 131
f 103 131 105
f 105 131 127
f 105 127 106
f 106 108 107
f 106 127 133
f 106 133 108
f 108 133 134
f 108 134 109
f 109 134 135
f 109 135 110
f 110 135 136
f 110 136 137
f 110 137 138
f 110 138 139
f 110 139 112
f 110 112 111
f 112 139 140
f 112 140 141
f 112 141 142
f 112 142 143
f 112 143 113
f 113 143 114
f 115 144 145
f 115 145 146
f 115 146 116
f 118 147 121
f 118 121 119
f 119 121 120
f 121 147 148
f 121 148 149
f 121 149 150
f 121 150 151
f 121 151 123
f 121 123 122
f 123 151 152
f 123 152 153
f 123 153 154
f 123 154 124
f 124 154 125
f 125 155 126
f 125 154 155
f 126 156 127
f 126 155 156
f 127 156 157
f 127 157 158
f 127 158 159
f 127 159 133
f 127 131 130
f 127 130 128
f 128 130 129
f 133 135 134
f 133 159 137
f 133 137 136
f 133 136 135
f 137 159 160
f 137 160 161
f 137 161 162
f 137 162 163
f 137 163 138
f 138 163 164
f 138 164 139
f 139 164 140
f 140 164 141
f 141 143 142
f 144 165 166
f 144 166 145
f 147 167 168
f 147 168 148
f 148 168 149
f 149 168 169
f 149 169 150
f 150 169 170
f 150 170 171
f 150 171 151
f 151 171 152
f 152 171 172
f 152 172 173
f 152 173 153
f 153 174 154
f 153 173 175
f 153 175 176
f 153 176 174
f 154 174 177
f 154 177 178
f 154 178 179
f 154 179 157
f 154 157 155
f 155 157 156
f 157 179 180
f 157 180 158
f 158 180 160
f 158 160 159
f 160 180 161
f 161 180 181
f 161 181 182
f 161 182 164
f 161 164 162
f 162 164 163
f 164 182 183
f 164 183 184
f 164 184 185
f 164 185 186
f 164 186 187
f 164 187 188
f 164 188 189
f 164 189 190
f 164 190 191
f 165 191 190
f 165 190 189
f 165 189 188
f 165 188 187
f 165 187 186
f 165 186 185
f 165 185 184
f 165 184 183
f 165 183 210
f 165 210 211
f 165 211 208
f 165 208 206
f 165 206 205
f 165 205 204
f 165 204 203
f 165 203 202
f 165 202 201
f 165 201 200
f 165 200 199
f 165 199 198
f 165 198 197
f 165 197 196
f 165 196 195
f 165 195 194
f 165 194 193
f 165 193 192
f 165 192 166
f 166 192 193
f 167 194 195
f 167 195 168
f 168 195 196
f 168 196 169
f 169 196 197
f 169 197 198
f 169 198 170
f 170 198 199
f 170 199 171
f 171 199 200
f 171 200 201
f 171 201 172
f 172 201 202
f 172 202 203
f 172 203 173
f 173 203 204
f 173 204 175
f 174 176 207
f 174 207 177
f 175 204 205
f 175 205 206
f 175 206 176
f 176 206 208
f 176 208 207
f 177 207 178
f 178 207 209
f 178 209 179
f 179 209 181
f 179 181 180
f 181 209 211
f 181 211 210
f 181 210 183
f 181 183 182
f 207 208 209
f 208 211 209
