v -0.003197 -0.669725 -0.0175572
v -0.00408282 -0.571097 -0.019903
v -0.00205064 -0.664039 0.0399643
v -0.00434336 -0.669511 -0.00658818
v -0.0199148 -0.66915 -0.019903
v -0.019689 -0.571231 -0.019903
v -0.0195066 -0.533048 0.150084
v -0.00407414 -0.533048 0.149688
v -0.00205064 -0.587459 0.248674
v -0.00434336 -0.65545 0.100492
v -0.00434336 -0.658527 0.0862854
v -0.00664477 -0.663036 0.0491822
v -0.00664477 -0.664922 0.0332242
v -0.00664477 -0.668053 0.00669363
v -0.00205064 -0.624772 0.184776
v -0.0199148 -0.668842 -0.00658818
v -0.0331848 -0.667277 -0.019903
v -0.0331848 -0.572716 -0.019903
v -0.0330459 -0.533048 0.153851
v -0.00434336 -0.533048 0.317627
v -0.003197 -0.559431 0.290634
v -0.00664477 -0.56319 0.285281
v -0.00664477 -0.595701 0.236614
v -0.00664477 -0.606751 0.220062
v -0.00434336 -0.611126 0.213355
v -0.003197 -0.620464 0.19548
v -0.00434336 -0.651998 0.110999
v -0.0199148 -0.65165 0.110041
v -0.0199148 -0.655075 0.0995342
v -0.0199148 -0.657858 0.0862854
v -0.0150601 -0.663678 0.041385
v -0.0155465 -0.62393 0.186428
v -0.00664477 -0.649617 0.117838
v -0.0199148 -0.667277 0.00669363
v -0.023901 -0.663223 0.0375193
v -0.0279915 -0.663745 0.0286648
v -0.0331848 -0.666969 -0.00658818
v -0.043285 -0.664641 -0.00658818
v -0.0437453 -0.664788 -0.019903
v -0.0464375 -0.575726 -0.019903
v -0.060437 -0.533048 0.171329
v -0.0464375 -0.533048 0.16112
v -0.01757 -0.533048 0.316966
v -0.00664477 -0.538159 0.312968
v -0.00434336 -0.545249 0.306261
v -0.00434336 -0.550748 0.300579
v -0.0167449 -0.557799 0.292484
v -0.0169273 -0.584355 0.252804
v -0.017101 -0.610885 0.212991
v -0.00434336 -0.61514 0.206549
v -0.0199495 -0.621588 0.19145
v -0.0303623 -0.650928 0.108091
v -0.0199148 -0.63767 0.14797
v -0.024396 -0.623448 0.185106
v -0.0278438 -0.637175 0.146648
v -0.0341488 -0.652627 0.100658
v -0.0331848 -0.655972 0.0862854
v -0.0199148 -0.665711 0.0199424
v -0.0327245 -0.66238 0.0331251
v -0.0397677 -0.66349 0.0132354
v -0.0499026 -0.662434 -0.00658818
v -0.0503629 -0.662581 -0.019903
v -0.0608712 -0.581372 -0.019903
v -0.076903 -0.533048 0.190492
v -0.0703374 -0.533048 0.18167
v -0.0251169 -0.533048 0.31581
v -0.0270188 -0.544206 0.305303
v -0.0199148 -0.544768 0.305799
v -0.0255945 -0.557237 0.291724
v -0.0206704 -0.561344 0.286504
v -0.0206704 -0.552514 0.297572
v -0.0257682 -0.583807 0.251978
v -0.0259419 -0.610337 0.212165
v -0.0208788 -0.614056 0.206912
v -0.0331848 -0.61926 0.192375
v -0.0331848 -0.613615 0.204434
v -0.0392119 -0.650098 0.105812
v -0.0341488 -0.648546 0.112651
v -0.0366847 -0.636358 0.144402
v -0.0331848 -0.622712 0.183091
v -0.0454996 -0.650246 0.0988404
v -0.0524385 -0.650005 0.0911092
v -0.0473841 -0.652226 0.0865167
v -0.0375445 -0.663089 0.0199424
v -0.0549049 -0.651075 0.0730036
v -0.0597075 -0.658059 -0.00658818
v -0.0537412 -0.650526 0.0822546
v -0.0597075 -0.658366 -0.019903
v -0.0717791 -0.587968 -0.019903
v -0.0812539 -0.533048 0.198091
v -0.0327593 -0.533048 0.314191
v -0.0358597 -0.543069 0.304246
v -0.032134 -0.548701 0.299323
v -0.0331848 -0.556407 0.290601
v -0.0331848 -0.560903 0.28396
v -0.0331848 -0.567538 0.274048
v -0.0331848 -0.583058 0.250854
v -0.0331848 -0.609601 0.211075
v -0.0464375 -0.615648 0.192375
v -0.0414178 -0.624237 0.174005
v -0.0464375 -0.611782 0.201361
v -0.0427465 -0.637977 0.13558
v -0.0464375 -0.645041 0.112816
v -0.055261 -0.638057 0.122464
v -0.0597075 -0.643931 0.0995342
v -0.0587783 -0.647489 0.0865167
v -0.06154 -0.647784 0.0730036
v -0.0565116 -0.651864 0.0597548
v -0.0631466 -0.648573 0.0597548
v -0.065752 -0.649911 0.037189
v -0.0666552 -0.650433 0.0283344
v -0.0673934 -0.650928 0.0199424
v -0.0685137 -0.651704 0.00669363
v -0.0695732 -0.652493 -0.00658818
v -0.0697729 -0.65264 -0.019903
v -0.081115 -0.595513 -0.019903
v -0.0855268 -0.533048 0.209753
v -0.0533938 -0.533048 0.305997
v -0.0447266 -0.533369 0.309797
v -0.0464375 -0.540915 0.302264
v -0.0464375 -0.547591 0.295623
v -0.0464375 -0.554227 0.287561
v -0.0464375 -0.558869 0.28092
v -0.0409141 -0.571057 0.266019
v -0.0409662 -0.597627 0.22624
v -0.0464375 -0.607567 0.208002
v -0.0533504 -0.610551 0.199247
v -0.0502413 -0.622685 0.169743
v -0.0460814 -0.620853 0.178696
v -0.046863 -0.63498 0.139743
v -0.0515701 -0.636412 0.131318
v -0.0641019 -0.635716 0.116153
v -0.0596901 -0.639502 0.112155
v -0.0543405 -0.624304 0.160921
v -0.0653785 -0.609869 0.18428
v -0.0669244 -0.637348 0.107298
v -0.0687916 -0.63874 0.0995342
v -0.0709106 -0.640332 0.0862854
v -0.0719093 -0.641148 0.0730036
v -0.0762082 -0.647329 -0.00658818
v -0.076408 -0.647489 -0.019903
v -0.0863952 -0.603768 -0.019903
v -0.0890006 -0.533048 0.2233
v -0.0810368 -0.533048 0.280953
v -0.0687655 -0.533195 0.295061
v -0.0605586 -0.535149 0.299587
v -0.0553479 -0.545477 0.293376
v -0.053307 -0.557491 0.278839
v -0.0457775 -0.565732 0.271074
v -0.0457775 -0.573893 0.258883
v -0.0458122 -0.600477 0.219071
v -0.0625126 -0.608156 0.192375
v -0.0558776 -0.611849 0.192375
v -0.0497897 -0.595848 0.223564
v -0.0533504 -0.584048 0.239026
v -0.0559297 -0.598818 0.214742
v -0.0590649 -0.603367 0.205029
v -0.06867 -0.599125 0.201956
v -0.0662209 -0.623622 0.145822
v -0.073047 -0.600825 0.191351
v -0.0678537 -0.611501 0.175459
v -0.0684529 -0.625254 0.137001
v -0.0754266 -0.633321 0.0995342
v -0.0775456 -0.635007 0.0862854
v -0.0785444 -0.63589 0.0730036
v -0.0791957 -0.636519 0.0631579
v -0.0797428 -0.637081 0.0543033
v -0.0801771 -0.637549 0.046473
v -0.0808631 -0.638352 0.0332242
v -0.0814971 -0.639128 0.0199424
v -0.0820877 -0.639917 0.00669363
v -0.0826174 -0.640693 -0.00658818
v -0.0827216 -0.640854 -0.019903
v -0.0905464 -0.617053 -0.019903
v -0.0903901 -0.533048 0.236581
v -0.087281 -0.533048 0.263145
v -0.083538 -0.535242 0.271471
v -0.0802118 -0.544861 0.266548
v -0.0774762 -0.541825 0.27537
v -0.0744105 -0.535389 0.286636
v -0.0641974 -0.542467 0.290105
v -0.0587522 -0.550173 0.284488
v -0.0497376 -0.569291 0.263376
v -0.0621566 -0.554855 0.274907
v -0.0647359 -0.569625 0.250623
v -0.0600723 -0.566856 0.258883
v -0.0647706 -0.596182 0.210811
v -0.0669591 -0.584382 0.226273
v -0.0669244 -0.557825 0.266086
v -0.0686526 -0.572569 0.241736
v -0.0774935 -0.568475 0.23559
v -0.0738373 -0.591192 0.206615
v -0.0775196 -0.595032 0.195084
v -0.0798297 -0.597413 0.186229
v -0.072552 -0.606056 0.179556
v -0.0767032 -0.607768 0.165844
v -0.0700682 -0.613267 0.165844
v -0.0806113 -0.624866 0.10938
v -0.0819487 -0.626686 0.0995342
v -0.0775283 -0.621762 0.126098
v -0.0791523 -0.623194 0.118268
v -0.0831124 -0.628371 0.0862854
v -0.0836161 -0.629254 0.0730036
v -0.0859957 -0.630325 0.0332242
v -0.0882711 -0.630325 -0.00658818
v -0.0869076 -0.630325 0.0199424
v -0.0876632 -0.630325 0.00669363
v -0.088384 -0.630325 -0.019903
v -0.0907636 -0.617053 0.00669363
v -0.090477 -0.53745 0.232187
v -0.0898951 -0.533048 0.24983
v -0.0896954 -0.53745 0.245436
v -0.0885143 -0.550721 0.232187
v -0.0868642 -0.53745 0.258751
v -0.0818271 -0.547444 0.258751
v -0.0812018 -0.559618 0.242198
v -0.0812192 -0.586175 0.202419
v -0.0802292 -0.571418 0.226736
v -0.078996 -0.583205 0.211273
v -0.0789699 -0.556621 0.251086
v -0.0721959 -0.549865 0.270744
v -0.0686266 -0.546012 0.281284
v -0.0824872 -0.590576 0.191351
v -0.0858568 -0.590536 0.179126
v -0.0808979 -0.598751 0.179126
v -0.0802292 -0.611126 0.147937
v -0.0786486 -0.60944 0.156725
v -0.081445 -0.612705 0.13938
v -0.0873332 -0.617053 0.0995342
v -0.082574 -0.601159 0.165844
v -0.0829735 -0.615126 0.126098
v -0.0866384 -0.603768 0.13938
v -0.0887748 -0.617053 0.0862854
v -0.0892959 -0.617053 0.0730036
v -0.0896867 -0.617053 0.0597548
v -0.0900775 -0.617053 0.046473
v -0.0904422 -0.617053 0.0332242
v -0.0907028 -0.617053 0.0199424
v -0.0905899 -0.603768 0.0995342
v -0.0905986 -0.577265 0.165844
v -0.090477 -0.563993 0.192375
v -0.0903206 -0.550721 0.218905
v -0.089704 -0.563993 0.205657
v -0.0885316 -0.577265 0.192375
v -0.0868902 -0.563993 0.218905
v -0.0840938 -0.551618 0.246163
v -0.0841112 -0.578161 0.206383
v -0.082713 -0.56402 0.231559
v -0.0881321 -0.590536 0.165844
v -0.0886098 -0.603768 0.126098
v -0.0898517 -0.603768 0.112816
v -0.0904683 -0.590536 0.13938
v -0.0902512 -0.577265 0.179126
v -0.0895217 -0.590536 0.152595
f 1 2 3
f 1 3 4
f 1 4 5
f 1 5 2
f 2 5 17
f 2 17 39
f 2 39 62
f 2 62 88
f 2 88 115
f 2 115 141
f 2 141 173
f 2 173 208
f 2 208 174
f 2 174 142
f 2 142 116
f 2 116 89
f 2 89 63
f 2 63 40
f 2 40 18
f 2 18 6
f 2 6 7
f 2 7 8
f 2 8 9
f 2 9 3
f 3 10 11
f 3 11 12
f 3 12 13
f 3 13 14
f 3 14 4
f 3 9 15
f 3 15 10
f 4 14 16
f 4 16 5
f 5 16 37
f 5 37 17
f 6 18 19
f 6 19 7
f 7 19 42
f 7 42 41
f 7 41 65
f 7 65 64
f 7 64 90
f 7 90 117
f 7 117 143
f 7 143 175
f 7 175 211
f 7 211 176
f 7 176 144
f 7 144 118
f 7 118 91
f 7 91 66
f 7 66 43
f 7 43 20
f 7 20 8
f 8 20 21
f 8 21 9
f 9 21 22
f 9 22 23
f 9 23 24
f 9 24 25
f 9 25 26
f 9 26 15
f 10 27 28
f 10 28 29
f 10 29 11
f 10 15 27
f 11 29 30
f 11 30 31
f 11 31 12
f 12 31 13
f 13 31 14
f 14 31 16
f 15 26 32
f 15 32 33
f 15 33 27
f 16 31 34
f 16 34 35
f 16 35 36
f 16 36 37
f 17 37 38
f 17 38 39
f 18 40 41
f 18 41 42
f 18 42 19
f 20 43 44
f 20 44 45
f 20 45 21
f 21 45 46
f 21 46 47
f 21 47 22
f 22 47 48
f 22 48 23
f 23 48 24
f 24 49 25
f 24 48 49
f 25 49 50
f 25 50 26
f 26 51 32
f 26 50 51
f 27 33 28
f 28 52 29
f 28 33 32
f 28 32 53
f 28 53 54
f 28 54 55
f 28 55 52
f 29 52 56
f 29 56 57
f 29 57 30
f 30 57 36
f 30 36 35
f 30 35 31
f 31 35 58
f 31 58 34
f 32 51 54
f 32 54 53
f 34 58 35
f 36 57 59
f 36 59 60
f 36 60 37
f 37 60 38
f 38 61 62
f 38 62 39
f 38 60 61
f 40 63 64
f 40 64 65
f 40 65 41
f 43 66 67
f 43 67 68
f 43 68 44
f 44 68 45
f 45 68 46
f 46 68 47
f 47 69 70
f 47 70 48
f 47 68 71
f 47 71 69
f 48 72 73
f 48 73 49
f 48 70 72
f 49 73 74
f 49 74 50
f 50 74 51
f 51 75 54
f 51 74 76
f 51 76 75
f 52 77 56
f 52 55 78
f 52 78 77
f 54 75 55
f 55 79 78
f 55 75 80
f 55 80 79
f 56 77 81
f 56 81 57
f 57 81 82
f 57 82 83
f 57 83 60
f 57 60 84
f 57 84 59
f 59 84 60
f 60 83 82
f 60 82 61
f 61 85 86
f 61 86 62
f 61 82 87
f 61 87 85
f 62 86 88
f 63 89 90
f 63 90 64
f 66 91 67
f 67 92 93
f 67 93 69
f 67 69 71
f 67 71 68
f 67 91 92
f 69 94 95
f 69 95 96
f 69 96 72
f 69 72 70
f 69 93 94
f 72 96 97
f 72 97 98
f 72 98 73
f 73 98 76
f 73 76 74
f 75 99 100
f 75 100 79
f 75 79 80
f 75 76 101
f 75 101 99
f 76 98 101
f 77 78 79
f 77 79 100
f 77 100 102
f 77 102 103
f 77 103 81
f 81 103 104
f 81 104 82
f 82 105 106
f 82 106 87
f 82 104 105
f 85 107 109
f 85 109 108
f 85 108 86
f 85 87 107
f 86 108 109
f 86 109 110
f 86 110 111
f 86 111 112
f 86 112 113
f 86 113 114
f 86 114 88
f 87 106 107
f 88 114 115
f 89 116 117
f 89 117 90
f 91 118 119
f 91 119 92
f 92 120 121
f 92 121 94
f 92 94 93
f 92 119 120
f 94 121 122
f 94 122 123
f 94 123 124
f 94 124 95
f 95 124 96
f 96 124 97
f 97 124 125
f 97 125 98
f 98 126 101
f 98 125 126
f 99 101 127
f 99 127 128
f 99 128 129
f 99 129 100
f 100 129 102
f 101 126 127
f 102 130 131
f 102 131 103
f 102 129 130
f 103 131 104
f 104 132 133
f 104 133 105
f 104 131 134
f 104 134 135
f 104 135 132
f 105 133 136
f 105 136 137
f 105 137 106
f 106 137 138
f 106 138 107
f 107 138 109
f 109 138 110
f 110 138 111
f 111 138 112
f 112 138 113
f 113 138 114
f 114 138 139
f 114 139 140
f 114 140 141
f 114 141 115
f 116 142 143
f 116 143 117
f 118 144 145
f 118 145 146
f 118 146 147
f 118 147 120
f 118 120 119
f 120 147 121
f 121 147 122
f 122 147 148
f 122 148 123
f 123 148 149
f 123 149 124
f 124 149 150
f 124 150 125
f 125 151 126
f 125 150 151
f 126 151 127
f 127 152 135
f 127 135 153
f 127 153 134
f 127 134 131
f 127 131 128
f 127 151 154
f 127 154 155
f 127 155 156
f 127 156 157
f 127 157 158
f 127 158 152
f 128 131 130
f 128 130 129
f 132 135 159
f 132 159 136
f 132 136 133
f 134 153 135
f 135 152 158
f 135 158 160
f 135 160 161
f 135 161 159
f 136 159 161
f 136 161 162
f 136 162 137
f 137 163 164
f 137 164 138
f 137 162 163
f 138 164 165
f 138 165 139
f 139 165 140
f 140 166 167
f 140 167 168
f 140 168 169
f 140 169 170
f 140 170 171
f 140 171 172
f 140 172 141
f 140 165 166
f 141 172 173
f 142 174 175
f 142 175 143
f 144 176 177
f 144 177 178
f 144 178 179
f 144 179 180
f 144 180 145
f 145 180 181
f 145 181 146
f 146 181 147
f 147 181 182
f 147 182 148
f 148 155 154
f 148 154 183
f 148 183 149
f 148 182 184
f 148 184 185
f 148 185 186
f 148 186 156
f 148 156 155
f 149 183 150
f 150 183 151
f 151 183 154
f 156 187 157
f 156 186 185
f 156 185 187
f 157 187 158
f 158 187 188
f 158 188 189
f 158 189 190
f 158 190 191
f 158 191 192
f 158 192 193
f 158 193 160
f 160 193 194
f 160 194 195
f 160 195 161
f 161 195 196
f 161 196 197
f 161 197 162
f 162 197 163
f 163 198 199
f 163 199 164
f 163 197 196
f 163 196 200
f 163 200 201
f 163 201 198
f 164 202 165
f 164 199 202
f 165 202 166
f 166 202 167
f 167 202 168
f 168 202 169
f 169 202 170
f 170 202 171
f 171 202 203
f 171 203 204
f 171 204 172
f 172 205 173
f 172 204 206
f 172 206 207
f 172 207 205
f 173 205 208
f 174 208 209
f 174 209 210
f 174 210 175
f 175 210 211
f 176 211 212
f 176 212 213
f 176 213 214
f 176 214 177
f 177 214 215
f 177 215 178
f 178 215 216
f 178 216 217
f 178 217 218
f 178 218 219
f 178 219 220
f 178 220 179
f 179 221 222
f 179 222 180
f 179 220 191
f 179 191 221
f 180 222 181
f 181 222 182
f 182 222 184
f 184 189 185
f 184 222 189
f 185 189 188
f 185 188 187
f 189 222 221
f 189 221 190
f 190 221 191
f 191 219 192
f 191 220 219
f 192 219 193
f 193 219 217
f 193 217 194
f 194 217 223
f 194 223 224
f 194 224 225
f 194 225 226
f 194 226 201
f 194 201 227
f 194 227 196
f 194 196 195
f 196 227 200
f 198 201 226
f 198 226 225
f 198 225 228
f 198 228 199
f 199 229 202
f 199 228 230
f 199 230 231
f 199 231 232
f 199 232 229
f 200 227 201
f 202 233 204
f 202 204 203
f 202 229 233
f 204 233 206
f 205 207 233
f 205 233 234
f 205 234 235
f 205 235 236
f 205 236 237
f 205 237 238
f 205 238 208
f 206 233 207
f 208 238 209
f 209 238 239
f 209 239 240
f 209 240 210
f 210 240 241
f 210 241 242
f 210 242 211
f 211 242 212
f 212 242 243
f 212 243 244
f 212 244 213
f 213 244 245
f 213 245 214
f 214 246 215
f 214 245 247
f 214 247 246
f 215 246 248
f 215 248 217
f 215 217 216
f 217 219 218
f 217 248 247
f 217 247 223
f 223 244 224
f 223 247 244
f 224 249 232
f 224 232 231
f 224 231 230
f 224 230 225
f 224 244 249
f 225 230 228
f 229 232 249
f 229 249 250
f 229 250 233
f 233 250 251
f 233 251 239
f 233 239 234
f 234 239 235
f 235 239 236
f 236 239 237
f 237 239 238
f 239 251 252
f 239 252 240
f 240 253 241
f 240 252 253
f 241 253 242
f 242 253 243
f 243 253 244
f 244 253 249
f 244 247 245
f 246 247 248
f 249 253 254
f 249 254 250
f 250 254 251
f 251 254 253
f 251 253 252
