v -0.00197387 -0.669604 -0.0152264
v 0.0010111 -0.669461 -0.0152264
v 0.00663948 -0.669 -0.00663247
v -0.00203327 -0.669413 -0.00663247
v -0.00203327 -0.664642 -0.0152264
v 0.00663948 -0.66919 -0.0152264
v 0.0112951 -0.668507 -0.0152264
v 0.0199085 -0.667219 -0.0152264
v 0.0199085 -0.667012 -0.00663247
v 0.0147999 -0.663784 0.0289246
v 0.0110724 -0.663259 0.0377629
v 0.0066469 -0.664277 0.0332826
v 0.00222885 -0.663736 0.0418766
v -0.00203327 -0.664308 0.0377018
v -0.00203327 -0.571284 -0.0152264
v 0.0235172 -0.666376 -0.0152264
v 0.0301925 -0.664627 -0.00663247
v 0.0281283 -0.66399 0.00418127
v 0.0263908 -0.663466 0.0130196
v 0.0199085 -0.656024 0.086272
v 0.00663948 -0.657996 0.086272
v 0.00663948 -0.661144 0.0597162
v -0.00203327 -0.663784 0.0421821
v -0.00203327 -0.658425 0.086272
v 0.00575587 -0.571681 -0.0152264
v -0.00203327 -0.507168 0.192801
v 0.0305118 -0.664738 -0.0152264
v 0.0368159 -0.662527 -0.00663247
v 0.0394073 -0.650092 0.0918316
v 0.034269 -0.652287 0.0869644
v 0.0305712 -0.651476 0.0968821
v 0.0208292 -0.652668 0.100589
v 0.00663948 -0.655229 0.0995092
v -0.00203327 -0.655658 0.0995092
v 0.0199085 -0.574337 -0.0152264
v 0.00637959 -0.507995 0.192801
v 0.00716667 -0.508074 0.192801
v -0.00203327 -0.621692 0.192801
v 0.0348185 -0.66337 -0.0152264
v 0.0371426 -0.662623 -0.0152264
v 0.0405211 -0.661065 -0.0152264
v 0.0464391 -0.658075 -0.00663247
v 0.0406177 -0.650633 0.0830136
v 0.0456 -0.647453 0.0869644
v 0.0552084 -0.638659 0.0995092
v 0.0464391 -0.643954 0.0995092
v 0.042021 -0.63815 0.122644
v 0.0384792 -0.636496 0.131502
v 0.034269 -0.649075 0.100589
v 0.0258636 -0.650092 0.10572
v 0.0170126 -0.650967 0.108164
v 0.00663948 -0.65173 0.110221
v -0.00203327 -0.651953 0.110812
v 0.0331775 -0.578105 -0.0152264
v 0.00784238 -0.508218 0.192801
v 0.0194704 -0.510794 0.192801
v 0.0199085 -0.510905 0.192801
v -0.00141698 -0.62166 0.192801
v -0.00203327 -0.624045 0.186773
v 0.00268922 -0.623998 0.18661
v 0.0464391 -0.658282 -0.0152264
v 0.0559286 -0.65243 -0.00663247
v 0.0549559 -0.651635 0.00664541
v 0.0539312 -0.650856 0.0199233
v 0.0532926 -0.650379 0.0278452
v 0.0524016 -0.649822 0.0367039
v 0.0432833 -0.651985 0.0597162
v 0.0417909 -0.651221 0.0729941
v 0.0484216 -0.647644 0.0729941
v 0.0571538 -0.640233 0.086272
v 0.0618466 -0.632394 0.0995092
v 0.0571315 -0.627146 0.126065
v 0.0549336 -0.62519 0.136777
v 0.0535377 -0.637307 0.107105
v 0.0464465 -0.63955 0.112034
v 0.050872 -0.635622 0.115944
v 0.0528694 -0.623552 0.145636
v 0.0411746 -0.624411 0.161194
v 0.0337121 -0.639868 0.126676
v 0.0331775 -0.645131 0.112787
v 0.0370387 -0.622741 0.170033
v 0.0328434 -0.625747 0.165715
v 0.0296431 -0.637975 0.135453
v 0.0282025 -0.624236 0.173983
v 0.0235023 -0.636337 0.144291
v 0.0208292 -0.64855 0.112665
v 0.0146588 -0.637228 0.146695
v 0.0115327 -0.623489 0.185225
v 0.00663948 -0.649281 0.11686
v -0.00203327 -0.625508 0.182822
v 0.0395558 -0.580682 -0.0152264
v 0.0317296 -0.514801 0.192801
v 0.0319672 -0.51488 0.192801
v 0.00698847 -0.621088 0.192801
v 0.00692164 -0.621676 0.191579
v 0.00663948 -0.635304 0.154739
v 0.0497731 -0.656294 -0.0152264
v 0.0560549 -0.652525 -0.0152264
v 0.0625668 -0.64626 -0.00663247
v 0.0665468 -0.637196 0.0418359
v 0.0499141 -0.648423 0.0597162
v 0.0660493 -0.636544 0.0506742
v 0.0646831 -0.63489 0.0729941
v 0.0637846 -0.63392 0.086272
v 0.0668884 -0.624411 0.108124
v 0.0665542 -0.610672 0.146674
v 0.0563741 -0.613169 0.165858
v 0.0543842 -0.611451 0.175307
v 0.050627 -0.622249 0.1526
v 0.0520526 -0.609782 0.184166
v 0.0426893 -0.611976 0.192414
v 0.0425557 -0.611897 0.192801
v 0.0335636 -0.615474 0.192801
v 0.0331775 -0.615761 0.192414
v 0.0199085 -0.619307 0.192414
v 0.019411 -0.634429 0.151704
v 0.0431051 -0.582144 -0.0152264
v 0.0322493 -0.515024 0.192801
v 0.00813939 -0.620913 0.192801
v 0.0626856 -0.646355 -0.0152264
v 0.0682249 -0.639629 -0.00663247
v 0.0678537 -0.638993 0.00664541
v 0.0674527 -0.638373 0.0199233
v 0.0669403 -0.637689 0.0331808
v 0.0691308 -0.628259 0.0729941
v 0.0686407 -0.627289 0.086272
v 0.0677497 -0.625763 0.0995092
v 0.0682546 -0.600145 0.165858
v 0.0672522 -0.598412 0.176264
v 0.0661384 -0.596838 0.185123
v 0.0577924 -0.601401 0.192414
v 0.0495651 -0.607683 0.192801
v 0.0493275 -0.608048 0.192414
v 0.04883 -0.608191 0.192801
v 0.0331775 -0.615586 0.192801
v 0.0204728 -0.618989 0.192801
v 0.0199085 -0.619116 0.192801
v 0.0454367 -0.583464 -0.0152264
v 0.0461198 -0.522275 0.192801
v 0.0646756 -0.644018 -0.0152264
v 0.0682695 -0.639709 -0.0152264
v 0.0721158 -0.630327 -0.00663247
v 0.0717519 -0.630327 0.00664541
v 0.0713064 -0.630327 0.0199233
v 0.0706307 -0.630327 0.0331808
v 0.0725242 -0.617049 0.086272
v 0.0715366 -0.617049 0.0995092
v 0.0692496 -0.617669 0.112645
v 0.0697323 -0.591654 0.180073
v 0.0686779 -0.588171 0.192414
v 0.0686185 -0.58806 0.192801
v 0.0645494 -0.594389 0.192801
v 0.0644232 -0.594786 0.192414
v 0.0640519 -0.594961 0.192801
v 0.057681 -0.601306 0.192801
v 0.0497433 -0.585945 -0.0152264
v 0.0475752 -0.523245 0.192801
v 0.0721603 -0.630327 -0.0152264
v 0.0738236 -0.617049 0.0331808
v 0.0736454 -0.617049 0.0464587
v 0.0733484 -0.617049 0.0597162
v 0.0729994 -0.617049 0.0729941
v 0.0734375 -0.603787 0.112787
v 0.0724573 -0.603787 0.126065
v 0.0721455 -0.590509 0.165858
v 0.0710243 -0.603787 0.139322
v 0.0725167 -0.577263 0.192414
v 0.0724276 -0.577263 0.192801
v 0.0643044 -0.594675 0.192801
v 0.0554386 -0.590223 -0.0152264
v 0.0500478 -0.525201 0.192801
v 0.0584904 -0.59256 -0.0152264
v 0.0731924 -0.617049 -0.0152264
v 0.0735711 -0.617049 0.00664541
v 0.0737865 -0.617049 0.0199233
v 0.0736677 -0.577263 0.179136
v 0.0736899 -0.590509 0.139322
v 0.0736677 -0.603787 0.0995092
v 0.0731776 -0.590509 0.1526
v 0.0734523 -0.563985 0.192801
v 0.0585126 -0.532658 0.192801
v 0.0651286 -0.598714 -0.0152264
v 0.0693016 -0.605345 -0.0152264
v 0.0699327 -0.549896 0.192801
v 0.0734523 -0.563985 0.192414
v 0.0614902 -0.535966 0.192801
v 0.0678685 -0.603023 -0.0152264
v 0.0635396 -0.538733 0.192801
v 0.0690714 -0.547606 0.192801
f 1 2 3
f 1 3 4
f 1 4 5
f 1 5 15
f 1 15 25
f 1 25 35
f 1 35 54
f 1 54 91
f 1 91 117
f 1 117 138
f 1 138 156
f 1 156 170
f 1 170 172
f 1 172 182
f 1 182 187
f 1 187 183
f 1 183 173
f 1 173 158
f 1 158 141
f 1 141 140
f 1 140 120
f 1 120 98
f 1 98 97
f 1 97 61
f 1 61 41
f 1 41 40
f 1 40 39
f 1 39 27
f 1 27 16
f 1 16 8
f 1 8 7
f 1 7 6
f 1 6 2
f 2 6 3
f 3 6 7
f 3 7 8
f 3 8 9
f 3 9 10
f 3 10 11
f 3 11 12
f 3 12 13
f 3 13 4
f 4 13 14
f 4 14 23
f 4 23 24
f 4 24 34
f 4 34 53
f 4 53 90
f 4 90 59
f 4 59 38
f 4 38 26
f 4 26 15
f 4 15 5
f 8 16 17
f 8 17 9
f 9 17 18
f 9 18 19
f 9 19 10
f 10 19 20
f 10 20 11
f 11 20 21
f 11 21 22
f 11 22 12
f 12 22 13
f 13 23 14
f 13 22 21
f 13 21 24
f 13 24 23
f 15 26 25
f 16 27 17
f 17 27 28
f 17 28 29
f 17 29 30
f 17 30 18
f 18 30 19
f 19 30 20
f 20 30 31
f 20 31 32
f 20 32 33
f 20 33 21
f 21 33 34
f 21 34 24
f 25 26 36
f 25 36 37
f 25 37 35
f 26 38 58
f 26 58 94
f 26 94 119
f 26 119 137
f 26 137 136
f 26 136 135
f 26 135 113
f 26 113 112
f 26 112 134
f 26 134 132
f 26 132 155
f 26 155 154
f 26 154 169
f 26 169 152
f 26 152 151
f 26 151 168
f 26 168 180
f 26 180 184
f 26 184 189
f 26 189 188
f 26 188 186
f 26 186 181
f 26 181 171
f 26 171 157
f 26 157 139
f 26 139 118
f 26 118 93
f 26 93 92
f 26 92 57
f 26 57 56
f 26 56 55
f 26 55 37
f 26 37 36
f 27 39 28
f 28 39 40
f 28 40 41
f 28 41 42
f 28 42 43
f 28 43 29
f 29 43 44
f 29 44 45
f 29 45 46
f 29 46 47
f 29 47 48
f 29 48 49
f 29 49 31
f 29 31 30
f 31 49 50
f 31 50 32
f 32 50 51
f 32 51 33
f 33 51 52
f 33 52 34
f 34 52 53
f 35 37 55
f 35 55 56
f 35 56 57
f 35 57 54
f 38 59 60
f 38 60 58
f 41 61 42
f 42 61 62
f 42 62 63
f 42 63 64
f 42 64 65
f 42 65 66
f 42 66 67
f 42 67 68
f 42 68 43
f 43 68 69
f 43 69 44
f 44 69 70
f 44 70 45
f 45 70 71
f 45 71 72
f 45 72 73
f 45 73 74
f 45 74 46
f 46 74 75
f 46 75 47
f 47 75 76
f 47 76 77
f 47 77 78
f 47 78 48
f 48 79 80
f 48 80 49
f 48 78 81
f 48 81 82
f 48 82 79
f 49 80 50
f 50 80 83
f 50 83 84
f 50 84 85
f 50 85 86
f 50 86 51
f 51 86 87
f 51 87 52
f 52 87 88
f 52 88 89
f 52 89 60
f 52 60 53
f 53 60 90
f 54 57 92
f 54 92 93
f 54 93 91
f 58 60 95
f 58 95 94
f 59 90 60
f 60 89 96
f 60 96 95
f 61 97 62
f 62 97 98
f 62 98 99
f 62 99 100
f 62 100 70
f 62 70 63
f 63 70 64
f 64 70 65
f 65 70 66
f 66 70 101
f 66 101 68
f 66 68 67
f 68 101 69
f 69 101 70
f 70 100 102
f 70 102 103
f 70 103 104
f 70 104 71
f 71 104 105
f 71 105 106
f 71 106 72
f 72 106 107
f 72 107 73
f 73 107 108
f 73 108 74
f 74 108 77
f 74 77 76
f 74 76 75
f 77 109 78
f 77 108 110
f 77 110 109
f 78 109 110
f 78 110 111
f 78 111 112
f 78 112 81
f 79 82 84
f 79 84 83
f 79 83 80
f 81 112 113
f 81 113 114
f 81 114 82
f 82 114 84
f 84 114 115
f 84 115 85
f 85 115 86
f 86 115 116
f 86 116 87
f 87 116 115
f 87 115 88
f 88 115 95
f 88 95 96
f 88 96 89
f 91 93 117
f 93 118 117
f 94 95 119
f 95 115 119
f 98 120 99
f 99 120 121
f 99 121 122
f 99 122 123
f 99 123 124
f 99 124 100
f 100 125 126
f 100 126 102
f 100 124 125
f 102 126 103
f 103 126 104
f 104 126 127
f 104 127 105
f 105 128 129
f 105 129 106
f 105 127 128
f 106 129 130
f 106 130 107
f 107 130 108
f 108 130 131
f 108 131 110
f 110 131 132
f 110 132 133
f 110 133 134
f 110 134 111
f 111 134 112
f 113 135 114
f 114 135 136
f 114 136 115
f 115 136 137
f 115 137 119
f 117 118 139
f 117 139 138
f 120 140 121
f 121 140 141
f 121 141 142
f 121 142 143
f 121 143 144
f 121 144 122
f 122 144 145
f 122 145 123
f 123 145 125
f 123 125 124
f 125 146 126
f 125 145 146
f 126 146 147
f 126 147 127
f 127 147 148
f 127 148 128
f 128 149 129
f 128 148 149
f 129 149 130
f 130 149 150
f 130 150 151
f 130 151 152
f 130 152 153
f 130 153 154
f 130 154 131
f 131 154 155
f 131 155 132
f 132 134 133
f 138 139 156
f 139 157 156
f 141 158 142
f 142 158 159
f 142 159 160
f 142 160 161
f 142 161 162
f 142 162 143
f 143 162 144
f 144 162 146
f 144 146 145
f 146 162 163
f 146 163 164
f 146 164 147
f 147 164 165
f 147 165 166
f 147 166 148
f 148 166 149
f 149 166 165
f 149 165 167
f 149 167 150
f 150 167 168
f 150 168 151
f 152 169 153
f 153 169 154
f 156 157 170
f 157 171 172
f 157 172 170
f 158 173 174
f 158 174 175
f 158 175 159
f 159 175 176
f 159 176 177
f 159 177 178
f 159 178 160
f 160 178 163
f 160 163 161
f 161 163 162
f 163 177 176
f 163 176 179
f 163 179 164
f 163 178 177
f 164 179 165
f 165 176 167
f 165 179 176
f 167 180 168
f 167 176 180
f 171 181 172
f 172 181 182
f 173 183 184
f 173 184 185
f 173 185 174
f 174 185 175
f 175 185 176
f 176 185 180
f 180 185 184
f 181 186 182
f 182 186 188
f 182 188 187
f 183 187 189
f 183 189 184
f 187 188 189
