v -0.00203327 -0.496068 -0.38333
v -0.00203327 -0.485538 -0.393071
v 0.000207496 -0.496068 -0.383196
v -0.00203327 -0.496068 -0.241155
v 0.00664117 -0.48524 -0.392781
v -0.00203327 -0.478903 -0.399201
v 0.00664117 -0.496068 -0.382773
v 0.00363322 -0.496068 -0.241958
v 0.0142066 -0.305689 -0.352523
v 0.00976305 -0.305689 -0.352523
v 0.00400541 -0.305689 -0.354039
v -0.00203327 -0.305689 -0.359991
v 0.00664117 -0.478605 -0.398912
v 0.0141459 -0.477953 -0.39831
v -0.00203327 -0.471076 -0.405086
v 0.0191363 -0.496068 -0.380298
v 0.0154751 -0.491577 -0.385381
v 0.00664117 -0.496068 -0.242403
v 0.0181792 -0.496068 -0.246104
v 0.0188553 -0.496068 -0.246327
v 0.0329607 -0.496068 -0.253304
v 0.043838 -0.496068 -0.261418
v 0.0454331 -0.496068 -0.262666
v 0.0578523 -0.305689 -0.393383
v -0.00203327 -0.305689 -0.468862
v 0.00664117 -0.471076 -0.404551
v 0.0191059 -0.471784 -0.401832
v 0.022995 -0.476686 -0.397173
v 0.0243243 -0.490365 -0.384244
v 0.0214303 -0.496068 -0.379719
v 0.020382 -0.496068 -0.379986
v -0.00203327 -0.466025 -0.408608
v 0.0471573 -0.496068 -0.264516
v 0.0676129 -0.305689 -0.403927
v 0.0501881 -0.305689 -0.468862
v -0.00203327 -0.345275 -0.468862
v 0.00664117 -0.462689 -0.410369
v 0.0199111 -0.460676 -0.409255
v 0.033181 -0.467963 -0.400717
v 0.033181 -0.474598 -0.395323
v 0.033181 -0.481885 -0.38868
v 0.033181 -0.488539 -0.38255
v 0.033181 -0.496068 -0.375572
v -0.00203327 -0.463118 -0.410615
v 0.0568268 -0.496068 -0.27506
v 0.0702107 -0.305689 -0.40707
v 0.038293 -0.319704 -0.468862
v 0.0592271 -0.305689 -0.464649
v 0.043405 -0.364937 -0.45308
v 0.0408984 -0.372671 -0.451765
v 0.033181 -0.364937 -0.457204
v 0.00686145 -0.34369 -0.468862
v 0.00322304 -0.359607 -0.464805
v -0.00203327 -0.355376 -0.466143
v 0.00664117 -0.456054 -0.414092
v 0.0100517 -0.437175 -0.424235
v 0.00121015 -0.438162 -0.424792
v 0.0282209 -0.452234 -0.411952
v 0.032862 -0.457116 -0.407561
v 0.0138724 -0.411586 -0.438033
v 0.0163562 -0.386016 -0.451832
v 0.0251978 -0.38432 -0.450873
v 0.0415136 -0.465746 -0.399068
v 0.0421973 -0.479481 -0.386451
v 0.0426454 -0.493105 -0.373522
v 0.0453343 -0.496068 -0.368863
v -0.00203327 -0.438181 -0.424792
v 0.0637011 -0.496068 -0.284779
v 0.0739782 -0.305689 -0.417993
v 0.0639745 -0.496068 -0.285181
v 0.0693448 -0.496068 -0.296995
v 0.069679 -0.496068 -0.297842
v 0.0331734 -0.324606 -0.468862
v 0.0323151 -0.350866 -0.46164
v 0.027317 -0.345908 -0.464694
v 0.0707728 -0.305689 -0.451363
v 0.0664128 -0.358488 -0.437989
v 0.0599639 -0.363725 -0.441756
v 0.0523605 -0.356848 -0.450739
v 0.0500362 -0.364937 -0.449313
v 0.0557103 -0.375821 -0.440285
v 0.052915 -0.384655 -0.437788
v 0.0497551 -0.391476 -0.435893
v 0.0512287 -0.435833 -0.410169
v 0.046656 -0.43136 -0.41543
v 0.0423796 -0.440567 -0.412844
v 0.0399641 -0.39826 -0.437989
v 0.033181 -0.381953 -0.449513
v 0.033181 -0.375318 -0.453169
v 0.0199111 -0.364937 -0.460748
v 0.0199111 -0.336552 -0.468862
v 0.0120722 -0.357817 -0.464315
v 0.00724124 -0.352692 -0.466299
v 0.00724124 -0.364396 -0.462933
v -0.00203327 -0.365943 -0.462977
v -0.00203327 -0.359849 -0.464872
v 0.0060335 -0.443381 -0.42127
v 0.00664117 -0.419078 -0.434801
v 0.00664117 -0.387339 -0.452567
v -0.00203327 -0.43533 -0.426397
v -0.00203327 -0.387767 -0.452812
v 0.0297173 -0.426645 -0.425751
v 0.033181 -0.400441 -0.439215
v 0.0370625 -0.449419 -0.410347
v 0.0385589 -0.423812 -0.424168
v 0.00664117 -0.378207 -0.457427
v 0.0204276 -0.379213 -0.454596
v 0.0503552 -0.461422 -0.396147
v 0.0462762 -0.470908 -0.39131
v 0.0461395 -0.457321 -0.401185
v 0.0510388 -0.47607 -0.383308
v 0.0468459 -0.484606 -0.378403
v 0.0472257 -0.496068 -0.367525
v 0.0755658 -0.305689 -0.431257
v 0.0697929 -0.496068 -0.298177
v 0.0729984 -0.496068 -0.31173
v 0.0733782 -0.496068 -0.313424
v 0.0260333 -0.331092 -0.468862
v 0.0199111 -0.355283 -0.463601
v 0.0199111 -0.338397 -0.468349
v 0.072892 -0.305689 -0.444877
v 0.0707196 -0.351667 -0.431257
v 0.0685244 -0.363725 -0.431234
v 0.0676357 -0.375951 -0.426776
v 0.0663292 -0.384804 -0.424614
v 0.0645518 -0.367341 -0.435626
v 0.055171 -0.401391 -0.426486
v 0.0546089 -0.42698 -0.412688
v 0.0540164 -0.452588 -0.398889
v -0.00203327 -0.370696 -0.46106
v -0.00203327 -0.378207 -0.457895
v 0.0554976 -0.467236 -0.38732
v 0.0514946 -0.489713 -0.370356
v 0.0483651 -0.496068 -0.366701
v 0.0732642 -0.431267 -0.378181
v 0.0735301 -0.404727 -0.391466
v 0.0745783 -0.305689 -0.439014
v 0.0734237 -0.484345 -0.325127
v 0.0734693 -0.471076 -0.33839
v 0.0735377 -0.444536 -0.364917
v 0.0730971 -0.496068 -0.325127
v 0.0729072 -0.364937 -0.417993
v 0.0699373 -0.379511 -0.419308
v 0.0687219 -0.391476 -0.41592
v 0.0672028 -0.42698 -0.399357
v 0.0669369 -0.452401 -0.385671
v 0.0630023 -0.444536 -0.394364
v 0.0563635 -0.444536 -0.401096
v 0.0591816 -0.456911 -0.390909
v 0.0643467 -0.461254 -0.382059
v 0.0600627 -0.471169 -0.37827
v 0.0557786 -0.48086 -0.374458
v 0.0560369 -0.494484 -0.361507
v 0.0523529 -0.496068 -0.363178
v 0.0716995 -0.444536 -0.378181
v 0.0722236 -0.417997 -0.391466
v 0.072611 -0.391476 -0.40473
v 0.0724819 -0.457806 -0.364917
v 0.0730288 -0.496068 -0.326687
v 0.0728768 -0.484345 -0.33839
v 0.0726869 -0.471076 -0.351676
v 0.0693676 -0.43136 -0.391957
v 0.0683953 -0.417997 -0.40181
v 0.0680383 -0.444536 -0.387744
v 0.0686308 -0.457228 -0.377868
v 0.0672635 -0.466267 -0.37321
v 0.0646278 -0.475101 -0.369063
v 0.0605412 -0.496068 -0.354574
v 0.0578751 -0.496068 -0.357806
v 0.0697626 -0.496068 -0.338569
v 0.069284 -0.496068 -0.340263
v 0.0691321 -0.48429 -0.351676
v 0.0689422 -0.470833 -0.364761
v 0.067499 -0.49344 -0.347285
v 0.064886 -0.488688 -0.35609
v 0.0616198 -0.496068 -0.353259
v 0.0685928 -0.496068 -0.342024
v 0.0638378 -0.496068 -0.34996
f 1 2 3
f 1 3 7
f 1 7 16
f 1 16 31
f 1 31 30
f 1 30 43
f 1 43 66
f 1 66 113
f 1 113 134
f 1 134 154
f 1 154 169
f 1 169 168
f 1 168 176
f 1 176 178
f 1 178 177
f 1 177 171
f 1 171 170
f 1 170 159
f 1 159 141
f 1 141 117
f 1 117 116
f 1 116 115
f 1 115 72
f 1 72 71
f 1 71 70
f 1 70 68
f 1 68 45
f 1 45 33
f 1 33 23
f 1 23 22
f 1 22 21
f 1 21 20
f 1 20 19
f 1 19 18
f 1 18 8
f 1 8 4
f 1 4 12
f 1 12 25
f 1 25 36
f 1 36 54
f 1 54 96
f 1 96 95
f 1 95 130
f 1 130 131
f 1 131 101
f 1 101 100
f 1 100 67
f 1 67 44
f 1 44 32
f 1 32 15
f 1 15 6
f 1 6 2
f 2 5 3
f 2 6 13
f 2 13 5
f 3 5 7
f 4 8 9
f 4 9 10
f 4 10 11
f 4 11 12
f 5 13 14
f 5 14 7
f 6 15 13
f 7 14 17
f 7 17 16
f 8 18 9
f 9 18 19
f 9 19 20
f 9 20 21
f 9 21 22
f 9 22 23
f 9 23 24
f 9 24 34
f 9 34 46
f 9 46 69
f 9 69 114
f 9 114 137
f 9 137 121
f 9 121 76
f 9 76 48
f 9 48 35
f 9 35 25
f 9 25 12
f 9 12 11
f 9 11 10
f 13 15 26
f 13 26 14
f 14 26 27
f 14 27 28
f 14 28 29
f 14 29 30
f 14 30 31
f 14 31 17
f 15 32 26
f 16 17 31
f 23 33 24
f 24 33 34
f 25 35 47
f 25 47 73
f 25 73 118
f 25 118 91
f 25 91 52
f 25 52 36
f 26 32 37
f 26 37 27
f 27 37 38
f 27 38 39
f 27 39 28
f 28 39 40
f 28 40 29
f 29 41 42
f 29 42 43
f 29 43 30
f 29 40 41
f 32 44 37
f 33 45 34
f 34 45 46
f 35 48 49
f 35 49 50
f 35 50 51
f 35 51 47
f 36 52 53
f 36 53 54
f 37 55 56
f 37 56 38
f 37 44 57
f 37 57 55
f 38 58 59
f 38 59 39
f 38 56 60
f 38 60 61
f 38 61 62
f 38 62 58
f 39 63 40
f 39 59 63
f 40 63 64
f 40 64 41
f 41 64 42
f 42 64 43
f 43 64 65
f 43 65 66
f 44 67 57
f 45 68 46
f 46 68 70
f 46 70 71
f 46 71 72
f 46 72 69
f 47 51 74
f 47 74 75
f 47 75 73
f 48 76 77
f 48 77 78
f 48 78 79
f 48 79 80
f 48 80 49
f 49 80 50
f 50 80 81
f 50 81 82
f 50 82 83
f 50 83 84
f 50 84 85
f 50 85 86
f 50 86 87
f 50 87 88
f 50 88 89
f 50 89 51
f 51 89 90
f 51 90 75
f 51 75 74
f 52 91 92
f 52 92 93
f 52 93 53
f 53 92 94
f 53 94 95
f 53 95 96
f 53 96 54
f 53 93 92
f 55 57 97
f 55 97 56
f 56 98 99
f 56 99 60
f 56 97 98
f 57 67 100
f 57 100 101
f 57 101 99
f 57 99 98
f 57 98 97
f 58 62 102
f 58 102 103
f 58 103 59
f 59 104 63
f 59 103 87
f 59 87 105
f 59 105 104
f 60 99 61
f 61 99 106
f 61 106 107
f 61 107 62
f 62 107 89
f 62 89 88
f 62 88 103
f 62 103 102
f 63 108 109
f 63 109 64
f 63 104 105
f 63 105 87
f 63 87 86
f 63 86 110
f 63 110 108
f 64 109 111
f 64 111 112
f 64 112 113
f 64 113 65
f 65 113 66
f 69 72 115
f 69 115 116
f 69 116 117
f 69 117 114
f 73 75 118
f 75 90 119
f 75 119 120
f 75 120 91
f 75 91 118
f 76 121 122
f 76 122 123
f 76 123 77
f 77 123 124
f 77 124 125
f 77 125 126
f 77 126 81
f 77 81 78
f 78 81 79
f 79 81 80
f 81 126 125
f 81 125 127
f 81 127 82
f 82 127 128
f 82 128 129
f 82 129 84
f 82 84 83
f 84 129 110
f 84 110 86
f 84 86 85
f 87 103 88
f 89 107 90
f 90 107 106
f 90 106 94
f 90 94 92
f 90 92 119
f 91 120 92
f 92 120 119
f 94 106 95
f 95 106 130
f 99 101 106
f 101 131 106
f 106 131 130
f 108 110 129
f 108 129 132
f 108 132 109
f 109 132 111
f 111 132 133
f 111 133 113
f 111 113 112
f 113 133 134
f 114 135 136
f 114 136 137
f 114 117 138
f 114 138 139
f 114 139 140
f 114 140 135
f 117 141 138
f 121 137 142
f 121 142 122
f 122 142 143
f 122 143 123
f 123 143 144
f 123 144 124
f 124 144 125
f 125 144 145
f 125 145 146
f 125 146 147
f 125 147 148
f 125 148 127
f 127 148 128
f 128 148 129
f 129 147 146
f 129 146 149
f 129 149 132
f 129 148 147
f 132 149 150
f 132 150 151
f 132 151 152
f 132 152 133
f 133 153 154
f 133 154 134
f 133 152 153
f 135 155 156
f 135 156 157
f 135 157 142
f 135 142 136
f 135 140 158
f 135 158 155
f 136 142 137
f 138 141 139
f 139 141 140
f 140 141 159
f 140 159 160
f 140 160 161
f 140 161 158
f 142 157 143
f 143 157 156
f 143 156 155
f 143 155 162
f 143 162 144
f 144 162 163
f 144 163 145
f 145 163 164
f 145 164 146
f 146 164 155
f 146 155 165
f 146 165 166
f 146 166 150
f 146 150 149
f 150 166 167
f 150 167 151
f 151 167 168
f 151 168 153
f 151 153 152
f 153 168 169
f 153 169 154
f 155 164 162
f 155 158 165
f 158 161 170
f 158 170 171
f 158 171 172
f 158 172 173
f 158 173 165
f 159 170 160
f 160 170 161
f 162 164 163
f 165 173 166
f 166 173 174
f 166 174 175
f 166 175 167
f 167 175 176
f 167 176 168
f 171 177 174
f 171 174 173
f 171 173 172
f 174 177 178
f 174 178 176
f 174 176 175
