v -0.00204206 -0.272033 0.579038
v -0.00204206 -0.258772 0.578855
v -0.00664085 -0.258772 0.578946
v -0.0331784 -0.258772 0.579314
v -0.0464471 -0.258772 0.579405
v -0.0729846 -0.258772 0.579497
v -0.0918634 -0.258772 0.579405
v -0.00664085 -0.272033 0.578946
v -0.00204206 -0.285252 0.573989
v -0.0597071 -0.245502 0.576559
v -0.0862534 -0.245502 0.577661
v -0.0918634 -0.245502 0.577845
v -0.00204206 -0.246354 0.57408
v -0.0331784 -0.245502 0.575274
v -0.0862534 -0.272033 0.5761
v -0.0464471 -0.272033 0.577753
v -0.0331784 -0.272033 0.578212
v -0.0918634 -0.272033 0.575825
v -0.00664085 -0.284615 0.57408
v -0.0331784 -0.283135 0.57353
v -0.00204206 -0.291482 0.570133
v -0.0918634 -0.234848 0.573254
v -0.0148624 -0.239056 0.570408
v -0.0237082 -0.238608 0.570775
v -0.00204206 -0.239719 0.569765
v -0.0918634 -0.279899 0.571602
v -0.0464471 -0.282369 0.573162
v -0.00664085 -0.29125 0.569949
v -0.00664085 -0.296164 0.563339
v -0.00204206 -0.294004 0.566736
v -0.0918634 -0.228213 0.567654
v -0.00204206 -0.237997 0.56747
v -0.0918634 -0.223135 0.561044
v -0.0918634 -0.225304 0.56389
v -0.0918634 -0.286655 0.563339
v -0.0464471 -0.289004 0.567287
v -0.0331784 -0.28977 0.568297
v -0.0199096 -0.290501 0.569215
v -0.0199096 -0.295458 0.562604
v -0.00204206 -0.296043 0.563982
v -0.00664085 -0.302067 0.550669
v -0.00204206 -0.302567 0.550302
v -0.00204206 -0.234787 0.563155
v -0.0523209 -0.22551 0.557463
v -0.0918634 -0.21897 0.550669
v -0.0918634 -0.29156 0.555902
v -0.0902894 -0.291646 0.55627
v -0.0814436 -0.292136 0.557647
v -0.0597071 -0.293307 0.559575
v -0.0464471 -0.294021 0.560676
v -0.0331784 -0.294744 0.561686
v -0.0199096 -0.300656 0.550669
v -0.00664085 -0.303892 0.537357
v -0.00204206 -0.303789 0.541397
v -0.00204206 -0.22903 0.550669
v -0.0242973 -0.225356 0.545069
v -0.0918634 -0.217128 0.537357
v -0.0918634 -0.291844 0.554801
v -0.0918634 -0.293126 0.549751
v -0.0860248 -0.29335 0.551404
v -0.00204206 -0.304314 0.537357
v -0.0862534 -0.295295 0.537357
v -0.0854356 -0.304899 0.418006
v -0.00204206 -0.228402 0.546079
v -0.00204206 -0.227214 0.537357
v -0.00204206 -0.227163 0.532767
v -0.0918634 -0.216991 0.524137
v -0.0918634 -0.294684 0.537357
v -0.0749015 -0.304899 0.429207
v -0.0731165 -0.304899 0.430676
v -0.0596016 -0.304899 0.441325
v -0.00204206 -0.30446 0.524137
v -0.0872294 -0.304899 0.414426
v -0.00204206 -0.227077 0.524137
v -0.0918634 -0.216991 -0.358418
v -0.0918634 -0.30279 0.404694
v -0.0913973 -0.304899 0.391382
v -0.091028 -0.304899 0.402215
v -0.0907115 -0.304899 0.404694
v -0.00204206 -0.304899 0.462533
v -0.00204206 -0.227077 -0.358418
v -0.0918634 -0.294813 -0.358418
v -0.0918634 -0.303487 0.391382
v -0.0881527 -0.304899 0.378161
v -0.0200943 -0.303066 -0.358418
v -0.00664085 -0.304537 -0.358418
v -0.00544498 -0.304658 -0.358418
v -0.00204206 -0.30483 -0.358418
v -0.00204206 -0.304899 0.326198
v -0.0834396 -0.304899 0.367603
v -0.0324222 -0.304899 0.33951
v -0.0607974 -0.304899 0.352547
v -0.0792981 -0.304899 0.364206
f 1 2 3
f 1 3 4
f 1 4 5
f 1 5 6
f 1 6 7
f 1 7 8
f 1 8 9
f 1 9 21
f 1 21 30
f 1 30 40
f 1 40 42
f 1 42 54
f 1 54 61
f 1 61 72
f 1 72 80
f 1 80 89
f 1 89 88
f 1 88 81
f 1 81 74
f 1 74 66
f 1 66 65
f 1 65 64
f 1 64 55
f 1 55 43
f 1 43 32
f 1 32 25
f 1 25 13
f 1 13 2
f 2 10 11
f 2 11 12
f 2 12 3
f 2 13 14
f 2 14 10
f 3 12 4
f 4 12 5
f 5 12 6
f 6 12 7
f 7 15 16
f 7 16 17
f 7 17 8
f 7 12 22
f 7 22 31
f 7 31 34
f 7 34 33
f 7 33 45
f 7 45 57
f 7 57 67
f 7 67 75
f 7 75 82
f 7 82 83
f 7 83 76
f 7 76 68
f 7 68 59
f 7 59 58
f 7 58 46
f 7 46 35
f 7 35 26
f 7 26 18
f 7 18 15
f 8 17 9
f 9 19 20
f 9 20 21
f 9 17 16
f 9 16 19
f 10 14 22
f 10 22 11
f 11 22 12
f 13 23 24
f 13 24 22
f 13 22 14
f 13 25 23
f 15 18 20
f 15 20 19
f 15 19 16
f 18 26 27
f 18 27 20
f 20 27 21
f 21 27 26
f 21 26 28
f 21 28 29
f 21 29 30
f 22 24 31
f 23 25 31
f 23 31 24
f 25 32 33
f 25 33 34
f 25 34 31
f 26 35 36
f 26 36 37
f 26 37 38
f 26 38 28
f 28 38 39
f 28 39 29
f 29 40 30
f 29 39 41
f 29 41 42
f 29 42 40
f 32 43 33
f 33 43 44
f 33 44 45
f 35 46 47
f 35 47 48
f 35 48 49
f 35 49 36
f 36 49 50
f 36 50 37
f 37 50 51
f 37 51 38
f 38 51 39
f 39 51 41
f 41 51 50
f 41 50 49
f 41 49 48
f 41 48 47
f 41 47 52
f 41 52 53
f 41 53 54
f 41 54 42
f 43 55 44
f 44 55 45
f 45 55 56
f 45 56 57
f 46 58 47
f 47 58 59
f 47 59 60
f 47 60 52
f 52 60 59
f 52 59 53
f 53 61 54
f 53 59 62
f 53 62 63
f 53 63 61
f 55 64 56
f 56 64 65
f 56 65 57
f 57 65 66
f 57 66 67
f 59 68 62
f 61 63 69
f 61 69 70
f 61 70 71
f 61 71 72
f 62 68 63
f 63 73 79
f 63 79 78
f 63 78 77
f 63 77 84
f 63 84 90
f 63 90 93
f 63 93 92
f 63 92 91
f 63 91 89
f 63 89 80
f 63 80 71
f 63 71 70
f 63 70 69
f 63 68 73
f 66 74 67
f 67 74 81
f 67 81 75
f 68 76 77
f 68 77 78
f 68 78 79
f 68 79 73
f 71 80 72
f 75 81 88
f 75 88 87
f 75 87 86
f 75 86 85
f 75 85 82
f 76 83 77
f 77 83 82
f 77 82 85
f 77 85 86
f 77 86 87
f 77 87 88
f 77 88 84
f 84 88 90
f 88 89 91
f 88 91 92
f 88 92 93
f 88 93 90
