v -0.00664352 -0.445549 0.264669
v -0.00204202 -0.445549 0.265173
v -0.0199056 -0.445549 0.265173
v -0.00204202 -0.304899 0.326282
v -0.00204202 -0.445549 0.388669
v -0.0331765 -0.445549 0.267091
v -0.0456338 -0.445549 0.270792
v -0.0469547 -0.445549 0.271354
v -0.0324241 -0.304899 0.339534
v -0.00204202 -0.304899 0.462603
v -0.00204202 -0.44051 0.391498
v -0.00664352 -0.445549 0.38894
v -0.0597094 -0.445549 0.278077
v -0.0607942 -0.304899 0.352651
v -0.0596044 -0.304899 0.441388
v -0.0410148 -0.372388 0.425055
v -0.0331765 -0.373985 0.425869
v -0.0199056 -0.375871 0.426837
v -0.00664352 -0.376669 0.427244
v -0.00204202 -0.376435 0.427128
v -0.00204202 -0.433323 0.395527
v -0.00791199 -0.445549 0.388882
v -0.00204202 -0.426687 0.399247
v -0.00204202 -0.401561 0.413314
v -0.00664352 -0.418 0.404362
v -0.0713094 -0.445549 0.287125
v -0.0792964 -0.304899 0.364295
v -0.0731115 -0.304899 0.430712
v -0.0693498 -0.364939 0.413624
v -0.067259 -0.372814 0.412054
v -0.0585984 -0.363962 0.420405
v -0.0498503 -0.367734 0.423389
v -0.0458437 -0.377358 0.420444
v -0.0464473 -0.395655 0.410001
v -0.0394926 -0.397982 0.411299
v -0.0331765 -0.380607 0.422265
v -0.0199056 -0.382507 0.423331
v -0.00664352 -0.383305 0.423776
v -0.00204202 -0.383071 0.42366
v -0.0199056 -0.432759 0.395217
v -0.0199581 -0.445549 0.388049
v -0.00664352 -0.401795 0.41343
v -0.0199056 -0.391456 0.418332
v -0.0722804 -0.445549 0.288113
v -0.0834342 -0.304899 0.367608
v -0.0748961 -0.304899 0.429279
v -0.0782816 -0.353953 0.410097
v -0.0759809 -0.364939 0.407986
v -0.0591933 -0.377606 0.414127
v -0.0805649 -0.373709 0.399286
v -0.0728053 -0.377674 0.40444
v -0.0689387 -0.415136 0.386944
v -0.0683438 -0.44073 0.37313
v -0.0665679 -0.398395 0.398259
v -0.0632699 -0.381639 0.409574
v -0.0544256 -0.386114 0.412074
v -0.053437 -0.411708 0.398279
v -0.0521861 -0.437302 0.384484
v -0.0472346 -0.444654 0.382256
v -0.0464473 -0.420767 0.395934
v -0.0433505 -0.440317 0.38615
v -0.0306483 -0.399565 0.41219
v -0.0368857 -0.423576 0.397504
v -0.0280326 -0.425159 0.398376
v -0.0203693 -0.445549 0.387991
v -0.0817896 -0.445549 0.299467
v -0.0881582 -0.304899 0.378187
v -0.0868985 -0.445549 0.310859
v -0.0854376 -0.304899 0.418041
v -0.082087 -0.364939 0.401359
v -0.0834342 -0.378156 0.392021
v -0.0816671 -0.391456 0.387681
v -0.0811685 -0.441639 0.360401
v -0.0801625 -0.39929 0.385491
v -0.0783516 -0.382548 0.396806
v -0.077783 -0.408142 0.383011
v -0.0771881 -0.433736 0.369216
v -0.0737151 -0.445549 0.365632
v -0.0607767 -0.445549 0.375203
v -0.0657456 -0.423989 0.384464
v -0.0601468 -0.444915 0.37592
v -0.0569013 -0.428449 0.386964
v -0.0598581 -0.445549 0.375726
v -0.048057 -0.445549 0.381403
v -0.0471822 -0.445549 0.381771
v -0.0445927 -0.445549 0.382546
v -0.0331765 -0.445549 0.385918
v -0.0914038 -0.304899 0.391459
v -0.0871609 -0.445549 0.311867
v -0.0901703 -0.445549 0.324131
v -0.0872309 -0.304899 0.414496
v -0.0873446 -0.364939 0.391459
v -0.086741 -0.391456 0.378187
v -0.0859799 -0.418 0.364915
v -0.0842216 -0.445452 0.352748
v -0.0828831 -0.404122 0.378439
v -0.0739251 -0.445549 0.365419
v -0.0738113 -0.445549 0.365535
v -0.0797338 -0.424884 0.371696
v -0.0841341 -0.445549 0.352825
v -0.0910276 -0.304899 0.402231
v -0.0905202 -0.431272 0.338391
v -0.0901703 -0.445549 0.325119
v -0.0907127 -0.304899 0.404731
v -0.0892517 -0.351667 0.391459
v -0.0893392 -0.378198 0.378187
v -0.0889018 -0.404728 0.364915
v -0.0883857 -0.431272 0.351663
v -0.0842041 -0.445549 0.352709
v -0.0896454 -0.445549 0.338391
v -0.0842391 -0.445549 0.352631
v -0.0904765 -0.364939 0.378187
v -0.0898991 -0.445549 0.337403
v -0.0898816 -0.444544 0.338391
v -0.0901703 -0.418 0.351663
v -0.0903627 -0.391456 0.364915
f 1 2 5
f 1 5 12
f 1 12 22
f 1 22 41
f 1 41 65
f 1 65 87
f 1 87 86
f 1 86 85
f 1 85 84
f 1 84 83
f 1 83 79
f 1 79 78
f 1 78 98
f 1 98 97
f 1 97 100
f 1 100 109
f 1 109 111
f 1 111 110
f 1 110 113
f 1 113 103
f 1 103 90
f 1 90 89
f 1 89 68
f 1 68 66
f 1 66 44
f 1 44 26
f 1 26 13
f 1 13 8
f 1 8 7
f 1 7 6
f 1 6 3
f 1 3 4
f 1 4 2
f 2 4 10
f 2 10 20
f 2 20 39
f 2 39 24
f 2 24 23
f 2 23 21
f 2 21 11
f 2 11 5
f 3 6 4
f 4 6 7
f 4 7 8
f 4 8 9
f 4 9 14
f 4 14 27
f 4 27 45
f 4 45 67
f 4 67 88
f 4 88 101
f 4 101 104
f 4 104 91
f 4 91 69
f 4 69 46
f 4 46 28
f 4 28 15
f 4 15 10
f 5 11 12
f 8 13 14
f 8 14 9
f 10 15 16
f 10 16 17
f 10 17 18
f 10 18 19
f 10 19 20
f 11 21 12
f 12 21 23
f 12 23 24
f 12 24 25
f 12 25 22
f 13 26 27
f 13 27 14
f 15 28 29
f 15 29 30
f 15 30 31
f 15 31 32
f 15 32 16
f 16 32 33
f 16 33 34
f 16 34 35
f 16 35 36
f 16 36 17
f 17 36 37
f 17 37 18
f 18 37 38
f 18 38 19
f 19 38 39
f 19 39 20
f 22 40 41
f 22 25 42
f 22 42 38
f 22 38 43
f 22 43 40
f 24 39 38
f 24 38 42
f 24 42 25
f 26 44 45
f 26 45 27
f 28 46 29
f 29 46 47
f 29 47 48
f 29 48 30
f 30 49 32
f 30 32 31
f 30 48 50
f 30 50 51
f 30 51 52
f 30 52 53
f 30 53 54
f 30 54 55
f 30 55 49
f 32 49 33
f 33 49 56
f 33 56 57
f 33 57 34
f 34 57 58
f 34 58 59
f 34 59 60
f 34 60 61
f 34 61 35
f 35 62 36
f 35 61 63
f 35 63 62
f 36 62 37
f 37 62 64
f 37 64 43
f 37 43 38
f 40 64 41
f 40 43 64
f 41 64 65
f 44 66 45
f 45 66 68
f 45 68 67
f 46 69 47
f 47 69 70
f 47 70 48
f 48 70 50
f 49 55 56
f 50 70 71
f 50 71 72
f 50 72 73
f 50 73 74
f 50 74 75
f 50 75 51
f 51 75 52
f 52 75 76
f 52 76 77
f 52 77 53
f 53 77 78
f 53 78 79
f 53 79 80
f 53 80 54
f 54 80 55
f 55 80 81
f 55 81 56
f 56 81 82
f 56 82 57
f 57 82 83
f 57 83 58
f 58 83 84
f 58 84 85
f 58 85 59
f 59 85 61
f 59 61 60
f 61 85 86
f 61 86 87
f 61 87 63
f 62 63 64
f 63 87 64
f 64 87 65
f 67 68 89
f 67 89 90
f 67 90 88
f 69 91 92
f 69 92 70
f 70 92 71
f 71 92 93
f 71 93 94
f 71 94 95
f 71 95 96
f 71 96 72
f 72 96 73
f 73 97 98
f 73 98 77
f 73 77 99
f 73 99 74
f 73 96 95
f 73 95 100
f 73 100 97
f 74 99 75
f 75 99 76
f 76 99 77
f 77 98 78
f 79 83 81
f 79 81 80
f 81 83 82
f 88 90 102
f 88 102 101
f 90 103 102
f 91 104 105
f 91 105 92
f 92 105 106
f 92 106 107
f 92 107 108
f 92 108 93
f 93 108 94
f 94 108 95
f 95 109 100
f 95 108 110
f 95 110 111
f 95 111 109
f 101 112 104
f 101 102 112
f 102 103 113
f 102 113 114
f 102 114 115
f 102 115 116
f 102 116 112
f 104 112 105
f 105 112 106
f 106 112 116
f 106 116 115
f 106 115 114
f 106 114 107
f 107 114 108
f 108 114 110
f 110 114 113
