v -0.379244 -0.118901 -0.358418
v -0.399129 -0.0941728 -0.358418
v -0.283885 -0.118901 -0.358418
v -0.379244 -0.118901 0.524146
v -0.4055 -0.0862447 -0.358418
v -0.399129 -0.0941728 0.524146
v -0.281344 -0.115645 -0.358418
v -0.27809 -0.118901 -0.358326
v -0.379145 -0.118901 0.532135
v -0.405341 -0.0862447 0.537368
v -0.411097 -0.0792603 -0.358418
v -0.4055 -0.0862447 0.524146
v -0.403059 0.122153 -0.358418
v -0.27809 -0.118901 0.524146
v -0.379065 -0.118901 0.537368
v -0.398673 -0.0936065 0.545907
v -0.411017 -0.0791659 0.537368
v -0.413339 -0.0758861 -0.358418
v -0.411097 -0.0792603 0.524146
v -0.480815 0.122153 -0.358418
v -0.403059 0.122153 0.524146
v -0.403099 0.122153 0.528003
v -0.403198 0.122153 0.537368
v -0.278328 -0.118901 0.537368
v -0.377894 -0.118901 0.544163
v -0.376763 -0.118901 0.550682
v -0.402563 -0.0869289 0.550498
v -0.409866 -0.0776558 0.550682
v -0.414431 -0.0710254 0.550682
v -0.415423 -0.0725355 0.537368
v -0.415482 -0.0726299 -0.358418
v -0.415482 -0.0726299 0.524146
v -0.476092 0.091809 -0.358418
v -0.480815 0.122153 0.524146
v -0.278903 -0.118901 0.544897
v -0.405004 0.122153 0.550682
v -0.373131 -0.118901 0.559129
v -0.38484 -0.106159 0.557293
v -0.397244 -0.0918369 0.554722
v -0.412803 -0.0685478 0.559405
v -0.421158 -0.0586376 0.549764
v -0.42481 -0.0534937 0.544714
v -0.422051 -0.0604781 0.537368
v -0.422111 -0.0606433 0.524146
v -0.418737 -0.0667546 -0.358418
v -0.471091 0.0596952 -0.358418
v -0.471091 0.0596952 0.524146
v -0.470971 0.0596952 0.537368
v -0.479227 0.112786 0.537368
v -0.480676 0.122153 0.537368
v -0.281622 -0.118901 0.552427
v -0.409033 0.122153 0.560966
v -0.371127 -0.118901 0.561241
v -0.396649 -0.077821 0.569413
v -0.400816 -0.0829885 0.560599
v -0.404845 -0.0731726 0.564455
v -0.40941 -0.0596994 0.56877
v -0.414986 -0.0596994 0.562159
v -0.425564 -0.0418846 0.55867
v -0.42358 -0.050733 0.55362
v -0.451066 0.0134947 0.556926
v -0.454797 0.0187093 0.551784
v -0.465038 0.038459 0.546275
v -0.465415 0.0376095 0.537368
v -0.424989 -0.0538477 0.537368
v -0.425048 -0.0540128 0.524146
v -0.423619 -0.0572691 -0.358418
v -0.422111 -0.0606433 -0.358418
v -0.468292 0.0464344 -0.358418
v -0.468292 0.0464344 0.524146
v -0.477838 0.1054 0.54453
v -0.468153 0.0464344 0.537368
v -0.469146 0.0596952 0.550682
v -0.478394 0.112786 0.546826
v -0.479049 0.122153 0.549947
v -0.287794 -0.118901 0.561517
v -0.414054 0.122153 0.567577
v -0.366701 -0.118901 0.565832
v -0.384245 -0.0921908 0.570148
v -0.400042 -0.0689726 0.571709
v -0.411216 -0.0527623 0.570423
v -0.427489 -0.0331542 0.561241
v -0.436718 0.00264061 0.569505
v -0.438325 -0.0141832 0.557936
v -0.453031 0.0223431 0.559956
v -0.463807 0.0418332 0.555089
v -0.461703 0.0336926 0.550682
v -0.466268 0.04634 0.550682
v -0.465474 0.037468 0.524146
v -0.462537 0.030814 0.524146
v -0.457714 0.0198891 0.524146
v -0.450054 0.00254623 0.524146
v -0.428402 -0.0464386 0.524146
v -0.435884 -0.0295204 -0.358418
v -0.466863 0.0418568 -0.358418
v -0.477382 0.121469 0.556099
v -0.465117 0.0506816 0.558395
v -0.47766 0.122153 0.555365
v -0.2948 -0.118901 0.568036
v -0.420702 0.122153 0.57327
v -0.36819 -0.115315 0.567301
v -0.360351 -0.118901 0.571525
v -0.371822 -0.106466 0.57079
v -0.387797 -0.0833424 0.572168
v -0.391925 -0.0732198 0.573912
v -0.402761 -0.0596994 0.573178
v -0.413041 -0.0439374 0.571709
v -0.438583 0.011489 0.571158
v -0.451403 0.0391905 0.57079
v -0.449439 0.030342 0.568862
v -0.454698 0.034141 0.564271
v -0.465474 0.037468 -0.358418
v -0.464045 0.0342118 -0.358418
v -0.450054 0.00254623 -0.358418
v -0.46595 0.0596952 0.559772
v -0.466982 0.0729796 0.561241
v -0.468014 0.0862404 0.562619
v -0.476806 0.122153 0.557109
v -0.459897 0.04634 0.563261
v -0.46087 0.0596952 0.566383
v -0.301389 -0.118901 0.572535
v -0.43126 0.122153 0.57786
v -0.351579 -0.118901 0.575106
v -0.36424 -0.111657 0.572443
v -0.379184 -0.0871413 0.574463
v -0.364935 -0.0995055 0.576116
v -0.391449 -0.0596994 0.577677
v -0.415423 -0.0331542 0.573086
v -0.405976 -0.0475948 0.574371
v -0.427926 -0.00663253 0.572719
v -0.440429 0.0198891 0.572259
v -0.444815 0.034141 0.573178
v -0.452594 0.0464344 0.571709
v -0.461961 0.0729796 0.567944
v -0.472658 0.122153 0.563261
v -0.463033 0.0862404 0.569229
v -0.463867 0.0963158 0.570056
v -0.454222 0.0596952 0.57281
v -0.31145 -0.118901 0.576116
v -0.444537 0.122153 0.579421
v -0.325124 -0.118901 0.579054
v -0.325124 -0.11279 0.578687
v -0.338401 -0.118901 0.578595
v -0.351658 -0.11279 0.576942
v -0.378212 -0.0729838 0.578411
v -0.391449 -0.0464386 0.579146
v -0.404726 -0.0331542 0.577585
v -0.431875 0.00688785 0.573637
v -0.43126 0.0198891 0.576483
v -0.418003 -0.00663253 0.577034
v -0.444537 0.0464344 0.575749
v -0.464561 0.105164 0.570699
v -0.465077 0.112786 0.571158
v -0.465732 0.122153 0.571617
v -0.455333 0.0729796 0.573361
v -0.444537 0.0596952 0.57731
v -0.457814 0.122153 0.57584
v -0.444537 0.112786 0.57933
v -0.43126 0.0596952 0.579513
v -0.378212 -0.0596994 0.579605
v -0.364935 -0.0729838 0.579513
v -0.338401 -0.11279 0.57933
v -0.364935 -0.0862447 0.578779
v -0.404726 -0.00663253 0.579513
v -0.418003 0.0198891 0.579421
v -0.43126 0.0464344 0.57933
v -0.404726 -0.0198934 0.578962
v -0.418003 0.00662829 0.578687
v -0.43126 0.0331735 0.578411
v -0.456405 0.0862404 0.57382
v -0.444537 0.0862404 0.578595
v -0.444537 0.0995248 0.579054
f 1 2 5
f 1 5 11
f 1 11 18
f 1 18 31
f 1 31 45
f 1 45 68
f 1 68 67
f 1 67 94
f 1 94 114
f 1 114 113
f 1 113 112
f 1 112 95
f 1 95 69
f 1 69 46
f 1 46 33
f 1 33 20
f 1 20 13
f 1 13 7
f 1 7 3
f 1 3 8
f 1 8 14
f 1 14 24
f 1 24 35
f 1 35 51
f 1 51 76
f 1 76 99
f 1 99 121
f 1 121 139
f 1 139 141
f 1 141 143
f 1 143 123
f 1 123 102
f 1 102 78
f 1 78 53
f 1 53 37
f 1 37 26
f 1 26 25
f 1 25 15
f 1 15 9
f 1 9 4
f 1 4 6
f 1 6 2
f 2 6 12
f 2 12 5
f 3 7 8
f 4 9 10
f 4 10 6
f 5 12 19
f 5 19 11
f 6 10 12
f 7 13 8
f 8 13 21
f 8 21 14
f 9 15 10
f 10 16 17
f 10 17 12
f 10 15 16
f 11 19 18
f 12 17 19
f 13 20 34
f 13 34 50
f 13 50 75
f 13 75 98
f 13 98 118
f 13 118 135
f 13 135 154
f 13 154 157
f 13 157 140
f 13 140 122
f 13 122 100
f 13 100 77
f 13 77 52
f 13 52 36
f 13 36 23
f 13 23 22
f 13 22 21
f 14 21 22
f 14 22 23
f 14 23 24
f 15 25 16
f 16 25 26
f 16 26 27
f 16 27 28
f 16 28 17
f 17 28 29
f 17 29 30
f 17 30 19
f 18 19 32
f 18 32 31
f 19 30 32
f 20 33 34
f 23 35 24
f 23 36 35
f 26 37 38
f 26 38 39
f 26 39 27
f 27 39 28
f 28 39 40
f 28 40 29
f 29 41 42
f 29 42 43
f 29 43 30
f 29 40 41
f 30 43 44
f 30 44 32
f 31 32 45
f 32 44 45
f 33 46 47
f 33 47 34
f 34 47 48
f 34 48 49
f 34 49 50
f 35 36 51
f 36 52 51
f 37 53 54
f 37 54 55
f 37 55 38
f 38 55 40
f 38 40 39
f 40 55 56
f 40 56 57
f 40 57 58
f 40 58 59
f 40 59 60
f 40 60 41
f 41 60 61
f 41 61 62
f 41 62 63
f 41 63 42
f 42 63 64
f 42 64 65
f 42 65 43
f 43 65 66
f 43 66 44
f 44 66 67
f 44 67 68
f 44 68 45
f 46 69 70
f 46 70 47
f 47 70 48
f 48 71 49
f 48 70 72
f 48 72 73
f 48 73 71
f 49 71 50
f 50 71 74
f 50 74 75
f 51 52 76
f 52 77 76
f 53 78 54
f 54 79 80
f 54 80 57
f 54 57 56
f 54 56 55
f 54 78 79
f 57 80 81
f 57 81 58
f 58 82 59
f 58 81 83
f 58 83 82
f 59 84 60
f 59 82 85
f 59 85 84
f 60 84 61
f 61 86 87
f 61 87 63
f 61 63 62
f 61 84 85
f 61 85 86
f 63 72 64
f 63 87 86
f 63 86 88
f 63 88 72
f 64 72 70
f 64 70 89
f 64 89 90
f 64 90 91
f 64 91 92
f 64 92 93
f 64 93 65
f 65 93 66
f 66 93 67
f 67 93 92
f 67 92 94
f 69 95 70
f 70 95 89
f 71 73 96
f 71 96 75
f 71 75 74
f 72 88 73
f 73 88 97
f 73 97 96
f 75 96 98
f 76 77 99
f 77 100 99
f 78 101 79
f 78 102 101
f 79 101 103
f 79 103 80
f 80 103 104
f 80 104 105
f 80 105 106
f 80 106 81
f 81 106 107
f 81 107 108
f 81 108 109
f 81 109 83
f 82 83 85
f 83 110 85
f 83 109 110
f 85 111 97
f 85 97 86
f 85 110 111
f 86 97 88
f 89 95 112
f 89 112 113
f 89 113 90
f 90 113 91
f 91 113 92
f 92 113 114
f 92 114 94
f 96 97 115
f 96 115 116
f 96 116 117
f 96 117 118
f 96 118 98
f 97 111 119
f 97 119 120
f 97 120 115
f 99 100 121
f 100 122 121
f 101 102 103
f 102 123 124
f 102 124 104
f 102 104 103
f 104 124 105
f 105 124 125
f 105 125 126
f 105 126 127
f 105 127 106
f 106 128 107
f 106 127 129
f 106 129 128
f 107 128 130
f 107 130 108
f 108 130 131
f 108 131 109
f 109 131 132
f 109 132 133
f 109 133 120
f 109 120 119
f 109 119 111
f 109 111 110
f 115 120 134
f 115 134 116
f 116 134 117
f 117 135 118
f 117 134 136
f 117 136 137
f 117 137 135
f 120 133 138
f 120 138 134
f 121 122 139
f 122 140 141
f 122 141 142
f 122 142 139
f 123 143 144
f 123 144 126
f 123 126 124
f 124 126 125
f 126 144 127
f 127 144 145
f 127 145 146
f 127 146 147
f 127 147 129
f 128 148 130
f 128 129 149
f 128 149 148
f 129 147 150
f 129 150 149
f 130 148 132
f 130 132 131
f 132 148 151
f 132 151 133
f 133 151 138
f 134 138 136
f 135 137 152
f 135 152 153
f 135 153 154
f 136 138 137
f 137 138 152
f 138 155 153
f 138 153 152
f 138 151 156
f 138 156 155
f 139 142 141
f 140 157 158
f 140 158 159
f 140 159 160
f 140 160 161
f 140 161 162
f 140 162 141
f 141 162 143
f 143 162 163
f 143 163 145
f 143 145 144
f 145 163 160
f 145 160 146
f 146 160 164
f 146 164 165
f 146 165 166
f 146 166 167
f 146 167 147
f 147 167 168
f 147 168 169
f 147 169 150
f 148 149 151
f 149 150 169
f 149 169 151
f 151 169 156
f 153 155 154
f 154 155 170
f 154 170 157
f 155 156 157
f 155 157 170
f 156 169 166
f 156 166 171
f 156 171 157
f 157 171 172
f 157 172 158
f 158 172 166
f 158 166 159
f 159 166 165
f 159 165 164
f 159 164 160
f 160 162 161
f 160 163 162
f 166 172 171
f 166 169 168
f 166 168 167
