v -0.480809 0.122153 -0.488663
v -0.481225 0.124801 -0.488663
v -0.38117 0.122153 -0.488663
v -0.480809 0.122153 0.52409
v -0.48488 0.148305 -0.488663
v -0.481418 0.126068 0.52409
v -0.37836 0.288096 -0.488663
v -0.396186 0.288096 0.537369
v -0.403208 0.122153 0.537369
v -0.480723 0.122153 0.5335
v -0.485543 0.15261 -0.488663
v -0.485543 0.15261 0.52409
v -0.475561 0.288096 -0.488663
v -0.397255 0.288096 0.546779
v -0.403742 0.122153 0.541342
v -0.48068 0.122153 0.537369
v -0.481289 0.126068 0.537369
v -0.485415 0.15261 0.537369
v -0.487413 0.165881 -0.488663
v -0.487413 0.165881 0.52409
v -0.476074 0.285302 -0.488663
v -0.475561 0.288096 0.52409
v -0.39764 0.288096 0.54887
v -0.405024 0.122153 0.550648
v -0.479056 0.122153 0.550021
v -0.483598 0.15261 0.550648
v -0.485479 0.165881 0.550648
v -0.487285 0.165881 0.537369
v -0.487542 0.179151 -0.488663
v -0.487542 0.179151 0.52409
v -0.476459 0.281761 -0.488663
v -0.476074 0.285302 0.52409
v -0.475946 0.285302 0.537369
v -0.475422 0.288096 0.537369
v -0.398366 0.288096 0.551693
v -0.398997 0.288096 0.553889
v -0.409043 0.122153 0.560999
v -0.477666 0.122153 0.555353
v -0.478083 0.13034 0.557967
v -0.479815 0.15261 0.560686
v -0.480755 0.165881 0.56194
v -0.485607 0.179151 0.550648
v -0.487403 0.179151 0.537369
v -0.479409 0.254456 -0.488663
v -0.485971 0.192422 0.537369
v -0.477805 0.266151 0.544374
v -0.474129 0.285302 0.550648
v -0.475037 0.288096 0.540192
v -0.403144 0.288096 0.561522
v -0.405473 0.288096 0.564763
v -0.414077 0.122153 0.567586
v -0.476801 0.122153 0.557131
v -0.472665 0.122153 0.563299
v -0.47477 0.15261 0.567273
v -0.475785 0.165881 0.568632
v -0.480819 0.179151 0.562045
v -0.47586 0.179151 0.568737
v -0.480103 0.192422 0.561104
v -0.479387 0.205677 0.560058
v -0.478671 0.218948 0.558908
v -0.478115 0.229279 0.557967
v -0.477634 0.238131 0.557026
v -0.478917 0.24549 0.54887
v -0.478201 0.25876 0.546047
v -0.472665 0.288096 0.552948
v -0.473605 0.288096 0.550648
v -0.468443 0.285302 0.56309
v -0.468176 0.288096 0.562777
v -0.410817 0.288096 0.571037
v -0.420714 0.122153 0.573233
v -0.46575 0.122153 0.571664
v -0.468133 0.15261 0.573128
v -0.469149 0.165881 0.573546
v -0.469223 0.179151 0.573651
v -0.468475 0.192422 0.573337
v -0.464574 0.266752 0.570723
v -0.463527 0.285302 0.569678
v -0.463206 0.288096 0.569364
v -0.415188 0.288096 0.573546
v -0.41724 0.288096 0.574487
v -0.431283 0.122153 0.577833
v -0.457809 0.122153 0.575846
v -0.466017 0.126068 0.571873
v -0.457809 0.139339 0.576997
v -0.457809 0.15261 0.577729
v -0.457809 0.165881 0.578356
v -0.457809 0.179151 0.578356
v -0.457809 0.192422 0.577938
v -0.457809 0.232219 0.576369
v -0.457809 0.24549 0.575742
v -0.457809 0.25876 0.57501
v -0.45689 0.285302 0.573964
v -0.466947 0.218948 0.572501
v -0.465568 0.24549 0.57156
v -0.461806 0.288096 0.570514
v -0.428494 0.288096 0.578565
v -0.431283 0.285302 0.579088
v -0.444546 0.122153 0.579402
v -0.444546 0.139339 0.579506
v -0.444546 0.24549 0.579402
v -0.444546 0.25876 0.579297
v -0.444546 0.272031 0.579088
v -0.444546 0.285302 0.578774
v -0.45657 0.288096 0.57386
v -0.454293 0.288096 0.574801
v -0.431283 0.288096 0.579088
v -0.441757 0.288096 0.578879
v -0.444546 0.288096 0.578565
f 1 2 5
f 1 5 11
f 1 11 19
f 1 19 29
f 1 29 44
f 1 44 31
f 1 31 21
f 1 21 13
f 1 13 7
f 1 7 3
f 1 3 9
f 1 9 15
f 1 15 24
f 1 24 37
f 1 37 51
f 1 51 70
f 1 70 81
f 1 81 98
f 1 98 82
f 1 82 71
f 1 71 53
f 1 53 52
f 1 52 38
f 1 38 25
f 1 25 16
f 1 16 10
f 1 10 4
f 1 4 2
f 2 4 6
f 2 6 5
f 3 7 8
f 3 8 9
f 4 10 6
f 5 6 12
f 5 12 11
f 6 10 12
f 7 13 22
f 7 22 34
f 7 34 48
f 7 48 66
f 7 66 65
f 7 65 68
f 7 68 78
f 7 78 95
f 7 95 104
f 7 104 105
f 7 105 108
f 7 108 107
f 7 107 106
f 7 106 96
f 7 96 80
f 7 80 79
f 7 79 69
f 7 69 50
f 7 50 49
f 7 49 36
f 7 36 35
f 7 35 23
f 7 23 14
f 7 14 8
f 8 14 9
f 9 14 15
f 10 16 17
f 10 17 18
f 10 18 12
f 11 12 20
f 11 20 19
f 12 18 28
f 12 28 20
f 13 21 32
f 13 32 22
f 14 23 24
f 14 24 15
f 16 25 17
f 17 25 18
f 18 25 26
f 18 26 27
f 18 27 28
f 19 20 30
f 19 30 29
f 20 28 30
f 21 31 32
f 22 32 33
f 22 33 34
f 23 35 24
f 24 35 36
f 24 36 37
f 25 38 26
f 26 38 39
f 26 39 27
f 27 39 40
f 27 40 41
f 27 41 42
f 27 42 28
f 28 42 43
f 28 43 30
f 29 30 44
f 30 43 45
f 30 45 33
f 30 33 32
f 30 32 31
f 30 31 44
f 33 45 46
f 33 46 47
f 33 47 48
f 33 48 34
f 36 49 37
f 37 49 50
f 37 50 51
f 38 52 39
f 39 52 53
f 39 53 40
f 40 53 54
f 40 54 55
f 40 55 41
f 41 56 42
f 41 55 57
f 41 57 56
f 42 56 58
f 42 58 59
f 42 59 60
f 42 60 61
f 42 61 62
f 42 62 63
f 42 63 64
f 42 64 46
f 42 46 43
f 43 46 45
f 46 64 47
f 47 65 66
f 47 66 48
f 47 64 62
f 47 62 67
f 47 67 68
f 47 68 65
f 50 69 51
f 51 69 70
f 53 71 54
f 54 71 55
f 55 71 72
f 55 72 73
f 55 73 74
f 55 74 57
f 56 57 58
f 57 74 75
f 57 75 76
f 57 76 77
f 57 77 58
f 58 77 67
f 58 67 59
f 59 67 60
f 60 67 61
f 61 67 62
f 62 64 63
f 67 77 68
f 68 77 78
f 69 79 70
f 70 79 80
f 70 80 81
f 71 82 83
f 71 83 72
f 72 83 82
f 72 82 84
f 72 84 73
f 73 84 85
f 73 85 86
f 73 86 74
f 74 86 87
f 74 87 88
f 74 88 89
f 74 89 90
f 74 90 75
f 75 90 91
f 75 91 92
f 75 92 93
f 75 93 94
f 75 94 76
f 76 94 92
f 76 92 77
f 77 92 95
f 77 95 78
f 80 96 81
f 81 96 97
f 81 97 98
f 82 98 84
f 84 98 85
f 85 98 86
f 86 98 99
f 86 99 87
f 87 99 100
f 87 100 101
f 87 101 102
f 87 102 103
f 87 103 88
f 88 103 89
f 89 103 90
f 90 103 92
f 90 92 91
f 92 104 95
f 92 94 93
f 92 103 105
f 92 105 104
f 96 106 97
f 97 106 99
f 97 99 98
f 99 106 100
f 100 106 101
f 101 106 102
f 102 107 103
f 102 106 107
f 103 107 108
f 103 108 105
