v 0.0135673 -0.305671 0.469264
v 0.041253 -0.38632 0.412184
v 0.045983 -0.377571 0.414177
v 0.053836 -0.372694 0.411987
v 0.0557144 -0.364951 0.413531
v 0.0593279 -0.305671 0.430367
v 0.00950118 -0.305671 0.469264
v -0.00203327 -0.455329 0.38334
v 0.00284001 -0.451809 0.385171
v 0.00701927 -0.456862 0.381832
v 0.0116889 -0.450804 0.384632
v 0.0199116 -0.457818 0.379086
v 0.0287982 -0.465611 0.372373
v 0.0332038 -0.458295 0.375029
v 0.0376395 -0.463047 0.370721
v 0.0391332 -0.437454 0.384578
v 0.0403251 -0.411912 0.398381
v 0.049174 -0.407161 0.395725
v 0.0500943 -0.381543 0.40951
v 0.0427089 -0.454197 0.373252
v 0.046858 -0.444845 0.375998
v 0.0515503 -0.449471 0.370578
v 0.0532024 -0.398311 0.398202
v 0.0548318 -0.440622 0.373091
v 0.0553825 -0.415055 0.386876
v 0.055292 -0.391473 0.400104
v 0.0592902 -0.377194 0.404161
v 0.0668415 -0.372845 0.398794
v 0.0623454 -0.364951 0.407069
v 0.0647821 -0.351677 0.40942
v 0.0690745 -0.305671 0.419885
v 0.00452982 -0.305671 0.466715
v -0.00203327 -0.376465 0.427136
v -0.00203327 -0.380789 0.424875
v -0.00203327 -0.383102 0.423654
v -0.00203327 -0.469206 0.37485
v 0.00664208 -0.468879 0.374616
v 0.0199116 -0.46722 0.373486
v 0.0199116 -0.473857 0.368442
v 0.030752 -0.479614 0.360077
v 0.0341995 -0.471619 0.36539
v 0.0395934 -0.477603 0.358211
v 0.0464431 -0.468351 0.361531
v 0.053919 -0.465334 0.359054
v 0.046858 -0.458295 0.368262
v 0.0564311 -0.457818 0.361441
v 0.0601954 -0.445021 0.365157
v 0.0641107 -0.431295 0.368962
v 0.0574721 -0.431295 0.375693
v 0.0664794 -0.398437 0.385009
v 0.0688783 -0.377646 0.391543
v 0.067875 -0.364951 0.400428
v 0.0672866 -0.440597 0.359736
v 0.0685238 -0.431295 0.362339
v 0.0659287 -0.343506 0.410784
v 0.0710887 -0.305671 0.417138
v -0.00203327 -0.305671 0.460127
v -0.00203327 -0.473555 0.371726
v -0.00203327 -0.475843 0.370057
v 0.00664208 -0.475516 0.36977
v 0.0199116 -0.481499 0.3618
v 0.022733 -0.543017 0.304237
v 0.0331811 -0.540955 0.302352
v 0.0331811 -0.527154 0.315132
v 0.0331811 -0.506715 0.334033
v 0.0343806 -0.484164 0.354351
v 0.0401818 -0.491254 0.345269
v 0.0464431 -0.474988 0.355787
v 0.066404 -0.464555 0.345125
v 0.0630621 -0.457818 0.35419
v 0.0490231 -0.487835 0.34211
v 0.049521 -0.501461 0.329186
v 0.0500113 -0.515086 0.316245
v 0.0504866 -0.528712 0.303303
v 0.0542359 -0.478985 0.346202
v 0.0584981 -0.469357 0.350079
v 0.0655515 -0.449421 0.357152
v 0.0660343 -0.423904 0.371098
v 0.071051 -0.391473 0.378188
v 0.0715715 -0.364951 0.391453
v 0.0694819 -0.44482 0.352305
v 0.067694 -0.457818 0.347567
v 0.0749285 -0.305671 0.404735
v -0.00203327 -0.305671 0.330586
v -0.00203327 -0.483259 0.363416
v 0.00664208 -0.482958 0.363147
v 0.012051 -0.530598 0.318309
v 0.0138917 -0.544224 0.305368
v 0.0199116 -0.509128 0.336276
v 0.0189535 -0.538115 0.309729
v 0.0189535 -0.548724 0.299337
v 0.0331811 -0.547643 0.295711
v 0.0421054 -0.545556 0.293521
v 0.0416453 -0.532131 0.306462
v 0.04117 -0.518505 0.319404
v 0.0406797 -0.50488 0.332345
v 0.0453342 -0.483787 0.348482
v 0.0630847 -0.473404 0.341033
v 0.0634016 -0.48703 0.328091
v 0.0637033 -0.500656 0.315132
v 0.0640051 -0.514257 0.302155
v 0.0666077 -0.478181 0.332202
v 0.0676487 -0.469809 0.337335
v 0.0462998 -0.53726 0.298421
v 0.0509543 -0.542363 0.290057
v 0.0554429 -0.533514 0.294454
v 0.0551562 -0.519888 0.307396
v 0.054862 -0.506237 0.320337
v 0.0588225 -0.483008 0.337156
v 0.0723787 -0.431295 0.351659
v 0.0727257 -0.404747 0.364942
v 0.0730123 -0.378199 0.378188
v 0.0710283 -0.457818 0.338394
v 0.0750341 -0.305671 0.391453
v 0.0734348 -0.444544 0.338394
v 0.0734725 -0.457818 0.32513
v 0.0735027 -0.471066 0.311865
v 0.0735253 -0.48434 0.298583
v 0.073465 -0.497614 0.285892
v 0.00665717 -0.305671 0.32565
v -0.00203327 -0.423049 0.285892
v -0.00203327 -0.517676 0.331897
v 0.000946521 -0.517676 0.331897
v 0.00649875 -0.524137 0.325112
v 0.00664208 -0.544852 0.305942
v 0.00760015 -0.552595 0.297649
v 0.0126696 -0.557246 0.291834
v 0.0199116 -0.556391 0.290649
v 0.0331811 -0.55428 0.287687
v 0.0450626 -0.549478 0.285892
v 0.0594335 -0.51026 0.311273
v 0.0642917 -0.527832 0.289141
v 0.0668038 -0.491807 0.31926
v 0.067958 -0.483309 0.32425
v 0.0469033 -0.548246 0.285892
v 0.0584 -0.538064 0.285892
v 0.0593656 -0.537008 0.285892
v 0.0682447 -0.496785 0.311165
v 0.0684936 -0.51026 0.298062
v 0.0713527 -0.471066 0.32513
v 0.0728841 -0.305671 0.383771
v 0.0723485 -0.48434 0.285892
v 0.071662 -0.48434 0.311865
v 0.0719487 -0.497614 0.298583
v 0.0720392 -0.510863 0.285892
v 0.0149704 -0.305671 0.325561
v 0.00664208 -0.42408 0.285892
v -0.00203327 -0.5625 0.285892
v -0.00203327 -0.52029 0.329492
v -0.00203327 -0.534947 0.315796
v -0.00203327 -0.545154 0.306229
v 0.00320212 -0.531302 0.318973
v -0.00203327 -0.549478 0.301724
v 0.00382071 -0.557824 0.292605
v 0.00760015 -0.561444 0.286574
v 0.0075398 -0.561897 0.285892
v 0.0108289 -0.561294 0.285892
v 0.0199116 -0.559609 0.285892
v 0.0331811 -0.555511 0.285892
v 0.0402421 -0.551942 0.285892
v 0.0605349 -0.535575 0.285892
v 0.0677166 -0.52464 0.285892
v 0.0685313 -0.523181 0.285892
v 0.0671207 -0.518983 0.293306
v 0.0669698 -0.505408 0.306283
v 0.0711868 -0.305671 0.378763
v 0.0688557 -0.471443 0.285892
v 0.02093 -0.305671 0.327661
v 0.0479821 -0.443161 0.285892
v 0.0462847 -0.441778 0.285892
v 0.0316648 -0.432451 0.285892
v 0.0313782 -0.432301 0.285892
v 0.0199116 -0.427675 0.285892
v -0.00203327 -0.560816 0.288531
v -0.00203327 -0.552168 0.298906
v -0.00203327 -0.55795 0.292749
v 0.0619833 -0.305671 0.367849
v 0.0686671 -0.470865 0.285892
v 0.0613497 -0.458346 0.285892
v 0.0606179 -0.457189 0.285892
v 0.0592374 -0.455304 0.285892
v 0.0498152 -0.444996 0.285892
f 1 2 3
f 1 3 4
f 1 4 5
f 1 5 6
f 1 6 31
f 1 31 56
f 1 56 83
f 1 83 114
f 1 114 141
f 1 141 166
f 1 166 177
f 1 177 168
f 1 168 146
f 1 146 120
f 1 120 84
f 1 84 57
f 1 57 32
f 1 32 7
f 1 7 8
f 1 8 9
f 1 9 10
f 1 10 11
f 1 11 12
f 1 12 13
f 1 13 14
f 1 14 15
f 1 15 16
f 1 16 17
f 1 17 2
f 2 18 19
f 2 19 3
f 2 17 20
f 2 20 21
f 2 21 22
f 2 22 18
f 3 19 4
f 4 19 23
f 4 23 24
f 4 24 25
f 4 25 26
f 4 26 27
f 4 27 28
f 4 28 29
f 4 29 5
f 5 29 30
f 5 30 6
f 6 30 31
f 7 32 33
f 7 33 34
f 7 34 35
f 7 35 8
f 8 36 37
f 8 37 9
f 8 35 34
f 8 34 33
f 8 33 57
f 8 57 84
f 8 84 121
f 8 121 148
f 8 148 174
f 8 174 176
f 8 176 175
f 8 175 153
f 8 153 151
f 8 151 150
f 8 150 149
f 8 149 122
f 8 122 85
f 8 85 59
f 8 59 58
f 8 58 36
f 9 37 10
f 10 37 38
f 10 38 12
f 10 12 11
f 12 38 13
f 13 38 39
f 13 39 40
f 13 40 41
f 13 41 15
f 13 15 14
f 15 41 42
f 15 42 43
f 15 43 44
f 15 44 45
f 15 45 20
f 15 20 16
f 16 20 17
f 18 22 19
f 19 22 23
f 20 45 22
f 20 22 21
f 22 45 44
f 22 44 46
f 22 46 24
f 22 24 23
f 24 46 47
f 24 47 48
f 24 48 49
f 24 49 25
f 25 49 27
f 25 27 26
f 27 50 28
f 27 49 50
f 28 51 52
f 28 52 30
f 28 30 29
f 28 50 53
f 28 53 54
f 28 54 51
f 30 52 55
f 30 55 31
f 31 55 56
f 32 57 33
f 36 58 37
f 37 58 59
f 37 59 60
f 37 60 38
f 38 60 39
f 39 60 61
f 39 61 40
f 40 61 62
f 40 62 63
f 40 63 64
f 40 64 65
f 40 65 66
f 40 66 42
f 40 42 41
f 42 66 65
f 42 65 64
f 42 64 63
f 42 63 67
f 42 67 68
f 42 68 44
f 42 44 43
f 44 69 70
f 44 70 46
f 44 68 71
f 44 71 72
f 44 72 73
f 44 73 74
f 44 74 75
f 44 75 76
f 44 76 69
f 46 70 77
f 46 77 47
f 47 77 48
f 48 77 78
f 48 78 50
f 48 50 49
f 50 78 53
f 51 79 80
f 51 80 52
f 51 54 81
f 51 81 79
f 52 80 56
f 52 56 55
f 53 78 77
f 53 77 82
f 53 82 81
f 53 81 54
f 56 80 83
f 59 85 86
f 59 86 60
f 60 86 61
f 61 86 87
f 61 87 88
f 61 88 89
f 61 89 62
f 62 90 88
f 62 88 91
f 62 91 92
f 62 92 63
f 62 89 90
f 63 92 93
f 63 93 94
f 63 94 95
f 63 95 96
f 63 96 67
f 67 96 97
f 67 97 68
f 68 97 71
f 69 82 77
f 69 77 70
f 69 76 98
f 69 98 99
f 69 99 100
f 69 100 101
f 69 101 102
f 69 102 103
f 69 103 82
f 71 97 72
f 72 97 96
f 72 96 104
f 72 104 73
f 73 104 74
f 74 104 105
f 74 105 106
f 74 106 107
f 74 107 108
f 74 108 75
f 75 108 109
f 75 109 98
f 75 98 76
f 79 81 110
f 79 110 80
f 80 110 111
f 80 111 112
f 80 112 83
f 81 82 113
f 81 113 110
f 82 103 113
f 83 112 115
f 83 115 116
f 83 116 117
f 83 117 118
f 83 118 119
f 83 119 114
f 84 120 121
f 85 122 123
f 85 123 86
f 86 123 124
f 86 124 87
f 87 124 125
f 87 125 88
f 88 125 126
f 88 126 127
f 88 127 91
f 88 90 89
f 91 127 128
f 91 128 92
f 92 128 129
f 92 129 93
f 93 130 105
f 93 105 104
f 93 104 94
f 93 129 130
f 94 104 95
f 95 104 96
f 98 109 99
f 99 109 107
f 99 107 131
f 99 131 100
f 100 131 106
f 100 106 101
f 101 106 132
f 101 132 102
f 102 132 133
f 102 133 134
f 102 134 103
f 103 134 113
f 105 130 135
f 105 135 136
f 105 136 106
f 106 136 137
f 106 137 132
f 106 131 107
f 107 109 108
f 110 113 115
f 110 115 111
f 111 115 112
f 113 134 138
f 113 138 139
f 113 139 140
f 113 140 115
f 114 119 142
f 114 142 141
f 115 140 143
f 115 143 144
f 115 144 145
f 115 145 116
f 116 145 117
f 117 145 118
f 118 145 119
f 119 145 163
f 119 163 162
f 119 162 161
f 119 161 137
f 119 137 136
f 119 136 135
f 119 135 130
f 119 130 160
f 119 160 159
f 119 159 158
f 119 158 157
f 119 157 156
f 119 156 148
f 119 148 121
f 119 121 147
f 119 147 173
f 119 173 172
f 119 172 171
f 119 171 170
f 119 170 169
f 119 169 182
f 119 182 181
f 119 181 180
f 119 180 179
f 119 179 178
f 119 178 167
f 119 167 142
f 120 146 121
f 121 146 147
f 122 149 123
f 123 149 150
f 123 150 151
f 123 151 152
f 123 152 124
f 124 152 125
f 125 151 153
f 125 153 154
f 125 154 126
f 125 152 151
f 126 154 127
f 127 154 155
f 127 155 156
f 127 156 157
f 127 157 158
f 127 158 128
f 128 158 159
f 128 159 129
f 129 159 160
f 129 160 130
f 132 137 161
f 132 161 162
f 132 162 163
f 132 163 164
f 132 164 165
f 132 165 133
f 133 165 138
f 133 138 134
f 138 165 139
f 139 144 143
f 139 143 140
f 139 165 164
f 139 164 163
f 139 163 144
f 141 142 166
f 142 167 166
f 144 163 145
f 146 168 169
f 146 169 170
f 146 170 171
f 146 171 172
f 146 172 173
f 146 173 147
f 148 156 174
f 153 175 154
f 154 175 176
f 154 176 174
f 154 174 156
f 154 156 155
f 166 167 178
f 166 178 177
f 168 177 178
f 168 178 179
f 168 179 180
f 168 180 181
f 168 181 182
f 168 182 169
