v 0.0439578 0.515566 -0.300171
v 0.0439578 0.515566 -0.264389
v 0.0439578 0.527511 -0.297498
v 0.0444941 0.527511 -0.297443
v 0.056445 0.515566 -0.298595
v 0.0439578 0.542163 -0.288755
v 0.0457454 0.515566 -0.261812
v 0.0439578 0.528044 -0.297375
v 0.0572111 0.537661 -0.293346
v 0.0664807 0.535389 -0.292729
v 0.0572111 0.527511 -0.295799
v 0.0699536 0.515566 -0.29684
v 0.0439578 0.542163 -0.293743
v 0.0609904 0.54688 -0.27934
v 0.252 0.515566 -0.163032
v 0.286627 0.547299 -0.160167
v 0.0439578 0.54102 -0.2941
v 0.0447494 0.541071 -0.29399
v 0.108053 0.540221 -0.284123
v 0.0907655 0.522185 -0.292578
v 0.082645 0.524532 -0.293127
v 0.0703877 0.528324 -0.293867
v 0.0949279 0.515566 -0.293551
v 0.0609904 0.54688 -0.280861
v 0.069928 0.547318 -0.281697
v 0.082645 0.547769 -0.281875
v 0.0953365 0.547975 -0.281697
v 0.108053 0.547594 -0.280916
v 0.115535 0.546976 -0.280066
v 0.069928 0.547318 -0.27886
v 0.260938 0.515566 -0.160167
v 0.286704 0.547299 -0.160167
v 0.0953365 0.547975 -0.277764
v 0.082645 0.547769 -0.278244
v 0.101797 0.515566 -0.292318
v 0.0992435 0.519738 -0.291674
v 0.120183 0.538955 -0.280957
v 0.108411 0.515566 -0.290687
v 0.0954641 0.515566 -0.293455
v 0.231163 0.547528 -0.217753
v 0.133487 0.547727 -0.26898
v 0.171613 0.547429 -0.255426
v 0.142629 0.547375 -0.267924
v 0.178405 0.546753 -0.254398
v 0.304809 0.515566 -0.160167
v 0.286781 0.54728 -0.160167
v 0.282261 0.547312 -0.171611
v 0.127129 0.533876 -0.279642
v 0.12077 0.527511 -0.283767
v 0.154299 0.536493 -0.26765
v 0.12077 0.515566 -0.286713
v 0.260555 0.547312 -0.193894
v 0.267833 0.547134 -0.191413
v 0.217373 0.547264 -0.229772
v 0.197021 0.547309 -0.242887
v 0.180933 0.540221 -0.25544
v 0.203558 0.546696 -0.241653
v 0.302996 0.515566 -0.162566
v 0.301566 0.526994 -0.160167
v 0.296229 0.541579 -0.160167
v 0.291071 0.545729 -0.164429
v 0.280192 0.547014 -0.178709
v 0.133283 0.515566 -0.281601
v 0.185147 0.528054 -0.257029
v 0.172583 0.515566 -0.265321
v 0.158896 0.515566 -0.270994
v 0.269748 0.540221 -0.192976
v 0.253864 0.54629 -0.202692
v 0.276106 0.540221 -0.186946
v 0.189922 0.532648 -0.253466
v 0.192271 0.524177 -0.25496
v 0.255958 0.537816 -0.20472
v 0.205091 0.540221 -0.242832
v 0.196689 0.528054 -0.251342
v 0.295922 0.515566 -0.171775
v 0.279707 0.521391 -0.190742
v 0.301413 0.527511 -0.160167
v 0.294927 0.527511 -0.168623
v 0.29725 0.539469 -0.160167
v 0.293471 0.537255 -0.166718
v 0.281622 0.540221 -0.180587
v 0.184355 0.515566 -0.260428
v 0.273706 0.526382 -0.194127
v 0.26436 0.527511 -0.201294
v 0.278226 0.529866 -0.189179
v 0.194212 0.515566 -0.256166
v 0.200852 0.515566 -0.252918
v 0.200392 0.515566 -0.253165
v 0.194544 0.515566 -0.256015
v 0.258001 0.527511 -0.206296
v 0.241965 0.534983 -0.216437
v 0.207721 0.527511 -0.244833
v 0.285912 0.515566 -0.184739
v 0.280524 0.515566 -0.191619
v 0.272506 0.515566 -0.198252
v 0.266581 0.515566 -0.203007
v 0.262419 0.515566 -0.206296
v 0.210581 0.515566 -0.246066
v 0.260427 0.515566 -0.207858
v 0.249728 0.527511 -0.212655
v 0.26104 0.515566 -0.207379
v 0.251566 0.515566 -0.214656
f 1 2 6
f 1 6 13
f 1 13 17
f 1 17 8
f 1 8 3
f 1 3 4
f 1 4 5
f 1 5 12
f 1 12 23
f 1 23 39
f 1 39 35
f 1 35 38
f 1 38 51
f 1 51 63
f 1 63 66
f 1 66 65
f 1 65 82
f 1 82 86
f 1 86 89
f 1 89 88
f 1 88 87
f 1 87 98
f 1 98 102
f 1 102 99
f 1 99 101
f 1 101 97
f 1 97 96
f 1 96 95
f 1 95 94
f 1 94 93
f 1 93 75
f 1 75 58
f 1 58 45
f 1 45 31
f 1 31 15
f 1 15 7
f 1 7 2
f 2 7 6
f 3 8 4
f 4 8 9
f 4 9 10
f 4 10 11
f 4 11 5
f 5 11 12
f 6 7 14
f 6 14 24
f 6 24 13
f 7 15 16
f 7 16 14
f 8 17 9
f 9 18 13
f 9 13 10
f 9 17 18
f 10 13 19
f 10 19 20
f 10 20 21
f 10 21 22
f 10 22 11
f 11 22 21
f 11 21 23
f 11 23 12
f 13 24 25
f 13 25 26
f 13 26 27
f 13 27 28
f 13 28 29
f 13 29 19
f 13 18 17
f 14 30 25
f 14 25 24
f 14 16 30
f 15 31 16
f 16 31 45
f 16 45 59
f 16 59 77
f 16 77 79
f 16 79 60
f 16 60 46
f 16 46 32
f 16 32 33
f 16 33 34
f 16 34 30
f 19 35 36
f 19 36 20
f 19 29 37
f 19 37 38
f 19 38 35
f 20 36 35
f 20 35 39
f 20 39 23
f 20 23 21
f 25 30 34
f 25 34 26
f 26 34 33
f 26 33 27
f 27 33 40
f 27 40 41
f 27 41 28
f 28 41 42
f 28 42 43
f 28 43 29
f 29 43 44
f 29 44 37
f 32 46 47
f 32 47 40
f 32 40 33
f 37 48 49
f 37 49 38
f 37 44 50
f 37 50 48
f 38 49 51
f 40 47 52
f 40 52 53
f 40 53 54
f 40 54 55
f 40 55 42
f 40 42 41
f 42 44 43
f 42 55 44
f 44 56 50
f 44 55 57
f 44 57 56
f 45 58 59
f 46 60 61
f 46 61 47
f 47 61 62
f 47 62 53
f 47 53 52
f 48 63 51
f 48 51 49
f 48 50 64
f 48 64 65
f 48 65 66
f 48 66 63
f 50 56 64
f 53 67 68
f 53 68 57
f 53 57 54
f 53 62 69
f 53 69 67
f 54 57 55
f 56 57 70
f 56 70 71
f 56 71 64
f 57 68 67
f 57 67 72
f 57 72 73
f 57 73 74
f 57 74 71
f 57 71 70
f 58 75 76
f 58 76 59
f 59 76 78
f 59 78 77
f 60 79 62
f 60 62 61
f 62 79 80
f 62 80 81
f 62 81 69
f 64 82 65
f 64 71 82
f 67 83 84
f 67 84 72
f 67 69 85
f 67 85 76
f 67 76 83
f 69 81 85
f 71 86 82
f 71 74 87
f 71 87 88
f 71 88 89
f 71 89 86
f 72 84 90
f 72 90 91
f 72 91 73
f 73 92 87
f 73 87 74
f 73 91 92
f 75 93 76
f 76 85 80
f 76 80 78
f 76 93 94
f 76 94 95
f 76 95 83
f 77 78 80
f 77 80 79
f 80 85 81
f 83 95 96
f 83 96 84
f 84 96 97
f 84 97 90
f 87 92 98
f 90 99 100
f 90 100 91
f 90 97 101
f 90 101 99
f 91 100 92
f 92 100 98
f 98 100 102
f 99 102 100
