v 0.300115 -0.106234 0.070018
v 0.299945 -0.106234 0.0826133
v 0.263087 -0.438247 0.0826133
v 0.263143 -0.438247 0.0698478
v 0.261556 -0.438247 0.0570256
v 0.256622 -0.438247 0.0191263
v 0.296543 -0.106234 0.042785
v 0.296656 -0.106234 0.108031
v 0.258153 -0.438247 0.120739
v 0.254978 -0.438247 0.010389
v 0.291609 -0.106234 0.00579345
v 0.293027 -0.106234 0.0160626
v 0.29331 -0.106234 0.133278
v 0.256509 -0.438247 0.133165
v 0.252596 -0.438247 0.00392118
v 0.287753 -0.106234 -0.00719897
v 0.292403 -0.106234 0.139632
v 0.291269 -0.106234 0.146951
v 0.254921 -0.438247 0.141675
v 0.24857 -0.438247 -0.0062912
v 0.243637 -0.438247 -0.0182056
v 0.271536 -0.106234 -0.0463464
v 0.288037 -0.106234 0.157901
v 0.252426 -0.438247 0.148143
v 0.23275 -0.438247 -0.0444742
v 0.265638 -0.106234 -0.0605303
v 0.272443 -0.106234 0.195687
v 0.24823 -0.438247 0.158639
v 0.229404 -0.438247 -0.051793
v 0.260195 -0.106234 -0.0705725
v 0.268814 -0.106234 0.204424
v 0.237683 -0.438247 0.184113
v 0.24358 -0.438247 0.169872
v 0.224471 -0.438247 -0.0582609
v 0.244147 -0.106234 -0.092756
v 0.255091 -0.106234 -0.078402
v 0.265412 -0.106234 0.212594
v 0.232183 -0.438247 0.196992
v 0.195948 -0.438247 -0.0954793
v 0.231559 -0.106234 -0.109153
v 0.259514 -0.106234 0.223204
v 0.229064 -0.438247 0.203687
v 0.190845 -0.438247 -0.102004
v 0.22328 -0.106234 -0.119876
v 0.254524 -0.106234 0.230693
v 0.224187 -0.438247 0.210155
v 0.184267 -0.438247 -0.107451
v 0.208593 -0.106234 -0.134967
v 0.214377 -0.106234 -0.130031
v 0.219197 -0.106234 -0.124982
v 0.218006 -0.438247 0.218268
v 0.221352 -0.106234 0.273925
v 0.176782 -0.438247 -0.113521
v 0.197649 -0.106234 -0.143534
v 0.195381 -0.438247 0.247713
v 0.215114 -0.106234 0.281187
v 0.190448 -0.438247 0.254068
v 0.170431 -0.438247 -0.1184
v 0.172756 -0.106234 -0.162711
v 0.210351 -0.106234 0.285102
v 0.184267 -0.438247 0.259004
v 0.155801 -0.438247 -0.129634
v 0.166689 -0.106234 -0.167306
v 0.147522 -0.438247 -0.135988
v 0.203093 -0.106234 0.290889
v 0.176272 -0.438247 0.265358
v 0.157389 -0.106234 -0.173774
v 0.141115 -0.438247 -0.140811
v 0.197649 -0.106234 0.295088
v 0.169751 -0.438247 0.270408
v 0.146558 -0.106234 -0.179561
v 0.133403 -0.438247 -0.144896
v 0.17389 -0.106234 0.3133
v 0.146842 -0.438247 0.287996
v 0.155121 -0.438247 0.281641
v 0.0564544 -0.158915 -0.21417
v 0.093029 -0.106234 -0.201802
v 0.121608 -0.438247 -0.150229
v 0.166178 -0.106234 0.3192
v 0.140491 -0.438247 0.292818
v 0.0571915 -0.146208 -0.21417
v 0.0530521 -0.170712 -0.21417
v 0.0552636 -0.133371 -0.21417
v 0.0834459 -0.106234 -0.204582
v 0.115371 -0.438247 -0.152952
v 0.159714 -0.106234 0.323682
v 0.133573 -0.438247 0.296392
v 0.150244 -0.106234 0.329469
v 0.0507839 -0.175587 -0.21417
v 0.107999 -0.438247 -0.156016
v 0.0952972 -0.438247 -0.161292
v 0.0873585 -0.438247 -0.164583
v 0.0810076 -0.438247 -0.167136
v 0.0413709 -0.110946 -0.21417
v 0.0435824 -0.106234 -0.212581
v 0.120701 -0.438247 0.302236
v 0.143893 -0.106234 0.332193
v 0.0438092 -0.18433 -0.21417
v 0.0696666 -0.438247 -0.169973
v 0.0348499 -0.106234 -0.21417
v 0.0955807 -0.438247 0.312676
v 0.0938228 -0.106234 0.352901
v 0.0380253 -0.190439 -0.21417
v 0.0568513 -0.438247 -0.171789
v -0.0185094 -0.123003 -0.21417
v -0.00626112 -0.106234 -0.214
v 0.0860543 -0.438247 0.31659
v 0.086111 -0.106234 0.355568
v 0.0797601 -0.438247 0.319087
v 0.031164 -0.194567 -0.21417
v 0.0317311 -0.438247 -0.175079
v 0.0190292 -0.438247 -0.176724
v -0.0255975 -0.14117 -0.21417
v -0.0578058 -0.106234 -0.205773
v 0.0815179 -0.106234 0.356532
v 0.0698367 -0.438247 0.32147
v 0.0264008 -0.196322 -0.21417
v 0.00644075 -0.438247 -0.177065
v 0.0190292 -0.198857 -0.21417
v -0.0272986 -0.148645 -0.21417
v -0.0662548 -0.106234 -0.203958
v 0.0705739 -0.106234 0.358348
v 0.0571348 -0.438247 0.323228
v -0.00654465 -0.438247 -0.175647
v -0.0102305 -0.191089 -0.21417
v -0.00631783 -0.193624 -0.21417
v 0.00048675 -0.196809 -0.21417
v 0.00587371 -0.198532 -0.21417
v 0.0129618 -0.198987 -0.21417
v -0.0250871 -0.166487 -0.21417
v -0.0718686 -0.106234 -0.201802
v 0.0589494 -0.106234 0.359879
v 0.0447165 -0.438247 0.324874
v -0.0444235 -0.438247 -0.170711
v -0.0143699 -0.187222 -0.21417
v -0.022989 -0.173052 -0.21417
v -0.0642701 -0.438247 -0.165434
v -0.0707912 -0.438247 -0.162768
v -0.0827559 -0.438247 -0.157832
v -0.106969 -0.106234 -0.187391
v -0.0950608 -0.106234 -0.192327
v 0.0335456 -0.106234 0.363227
v 0.0317311 -0.438247 0.326576
v -0.0571253 -0.438247 -0.167817
v -0.0169216 -0.183875 -0.21417
v -0.108103 -0.438247 -0.147279
v -0.125681 -0.106234 -0.179505
v 0.0191426 -0.106234 0.365099
v 0.0190292 -0.438247 0.328221
v -0.118083 -0.438247 -0.142173
v -0.129311 -0.106234 -0.177859
v 0.00644075 -0.106234 0.365439
v 0.00655416 -0.438247 0.328505
v -0.124377 -0.438247 -0.137691
v -0.144281 -0.106234 -0.168555
v -0.133847 -0.106234 -0.175306
v -0.00620442 -0.106234 0.364078
v -0.0059776 -0.438247 0.3272
v -0.132826 -0.438247 -0.131279
v -0.171953 -0.106234 -0.147336
v -0.029907 -0.106234 0.360957
v -0.0444235 -0.438247 0.322207
v -0.180742 -0.106234 -0.140584
v -0.159988 -0.438247 -0.110401
v -0.0565016 -0.106234 0.35744
v -0.0562748 -0.438247 0.31954
v -0.0604709 -0.106234 0.356702
v -0.186185 -0.106234 -0.136386
v -0.1677 -0.438247 -0.103933
v -0.0686364 -0.106234 0.35449
v -0.0626257 -0.438247 0.317555
v -0.194124 -0.106234 -0.129521
v -0.173994 -0.438247 -0.0967275
v -0.200362 -0.106234 -0.122429
v -0.082359 -0.106234 0.348986
v -0.0698272 -0.438247 0.314661
v -0.179041 -0.438247 -0.0903731
v -0.205919 -0.106234 -0.115337
v -0.0907513 -0.106234 0.345582
v -0.0909781 -0.438247 0.305924
v -0.220889 -0.106234 -0.0958765
v -0.201496 -0.438247 -0.0610409
v -0.10799 -0.106234 0.338433
v -0.107763 -0.438247 0.298946
v -0.23274 -0.106234 -0.080331
v -0.206089 -0.438247 -0.0547433
v -0.122109 -0.106234 0.332533
v -0.117289 -0.438247 0.294293
v -0.132089 -0.106234 0.32771
v -0.239318 -0.106234 -0.0708561
v -0.211703 -0.438247 -0.0444742
v -0.242607 -0.106234 -0.0651826
v -0.12364 -0.438247 0.289754
v -0.14292 -0.106234 0.321016
v -0.245782 -0.106234 -0.0580907
v -0.215275 -0.438247 -0.0363043
v -0.131976 -0.438247 0.2834
v -0.159137 -0.106234 0.308647
v -0.218054 -0.438247 -0.0296662
v -0.251906 -0.106234 -0.0433962
v -0.159194 -0.438247 0.262521
v -0.176489 -0.106234 0.295314
v -0.222477 -0.438247 -0.0189999
v -0.257293 -0.106234 -0.0304038
v -0.183974 -0.106234 0.289527
v -0.19265 -0.106234 0.282492
v -0.167133 -0.438247 0.256054
v -0.229565 -0.438247 -0.00186583
v -0.266139 -0.106234 -0.0090145
v -0.199511 -0.106234 0.27489
v -0.17337 -0.438247 0.248905
v -0.232627 -0.438247 0.00641754
v -0.268578 -0.106234 -0.00260339
v -0.204614 -0.106234 0.268535
v -0.178587 -0.438247 0.24238
v -0.235689 -0.438247 0.0192398
v -0.270846 -0.106234 0.00732531
v -0.212496 -0.106234 0.258323
v -0.184201 -0.438247 0.235118
v -0.23739 -0.438247 0.031835
v -0.27283 -0.106234 0.0209418
v -0.231379 -0.106234 0.233643
v -0.200929 -0.438247 0.213275
v -0.241529 -0.438247 0.0632665
v -0.277594 -0.106234 0.0573092
v -0.238864 -0.106234 0.223034
v -0.205692 -0.438247 0.206921
v -0.242323 -0.438247 0.0701315
v -0.279181 -0.106234 0.0695074
v -0.24221 -0.106234 0.217417
v -0.211079 -0.438247 0.197105
v -0.242266 -0.438247 0.0826133
v -0.279011 -0.106234 0.0834076
v -0.245442 -0.106234 0.210552
v -0.214991 -0.438247 0.188482
v -0.240565 -0.438247 0.0956057
v -0.274135 -0.106234 0.120739
v -0.261603 -0.106234 0.171518
v -0.222023 -0.438247 0.171574
v -0.217713 -0.438247 0.181957
v -0.23722 -0.438247 0.121023
v -0.272433 -0.106234 0.133448
v -0.235575 -0.438247 0.133448
v -0.268124 -0.106234 0.155689
v -0.229281 -0.438247 0.154043
v -0.270506 -0.106234 0.146157
v -0.232343 -0.438247 0.146157
f 1 2 3
f 1 3 4
f 1 4 5
f 1 5 6
f 1 6 7
f 1 7 12
f 1 12 11
f 1 11 16
f 1 16 22
f 1 22 26
f 1 26 30
f 1 30 36
f 1 36 35
f 1 35 40
f 1 40 44
f 1 44 50
f 1 50 49
f 1 49 48
f 1 48 54
f 1 54 59
f 1 59 63
f 1 63 67
f 1 67 71
f 1 71 77
f 1 77 84
f 1 84 95
f 1 95 100
f 1 100 106
f 1 106 114
f 1 114 121
f 1 121 131
f 1 131 141
f 1 141 140
f 1 140 147
f 1 147 151
f 1 151 156
f 1 156 155
f 1 155 160
f 1 160 163
f 1 163 168
f 1 168 172
f 1 172 174
f 1 174 178
f 1 178 181
f 1 181 185
f 1 185 190
f 1 190 192
f 1 192 195
f 1 195 200
f 1 200 204
f 1 204 209
f 1 209 213
f 1 213 217
f 1 217 221
f 1 221 225
f 1 225 229
f 1 229 233
f 1 233 237
f 1 237 242
f 1 242 246
f 1 246 244
f 1 244 238
f 1 238 234
f 1 234 230
f 1 230 226
f 1 226 222
f 1 222 218
f 1 218 214
f 1 214 210
f 1 210 206
f 1 206 205
f 1 205 202
f 1 202 198
f 1 198 194
f 1 194 189
f 1 189 187
f 1 187 183
f 1 183 179
f 1 179 175
f 1 175 170
f 1 170 167
f 1 167 165
f 1 165 161
f 1 161 157
f 1 157 152
f 1 152 148
f 1 148 142
f 1 142 132
f 1 132 122
f 1 122 115
f 1 115 108
f 1 108 102
f 1 102 97
f 1 97 88
f 1 88 86
f 1 86 79
f 1 79 73
f 1 73 69
f 1 69 65
f 1 65 60
f 1 60 56
f 1 56 52
f 1 52 45
f 1 45 41
f 1 41 37
f 1 37 31
f 1 31 27
f 1 27 23
f 1 23 18
f 1 18 17
f 1 17 13
f 1 13 8
f 1 8 2
f 2 8 9
f 2 9 3
f 3 9 14
f 3 14 19
f 3 19 24
f 3 24 28
f 3 28 33
f 3 33 32
f 3 32 38
f 3 38 42
f 3 42 46
f 3 46 51
f 3 51 55
f 3 55 57
f 3 57 61
f 3 61 66
f 3 66 70
f 3 70 75
f 3 75 74
f 3 74 80
f 3 80 87
f 3 87 96
f 3 96 101
f 3 101 107
f 3 107 109
f 3 109 116
f 3 116 123
f 3 123 133
f 3 133 143
f 3 143 149
f 3 149 153
f 3 153 158
f 3 158 162
f 3 162 166
f 3 166 171
f 3 171 176
f 3 176 180
f 3 180 184
f 3 184 188
f 3 188 193
f 3 193 197
f 3 197 201
f 3 201 207
f 3 207 211
f 3 211 215
f 3 215 219
f 3 219 223
f 3 223 227
f 3 227 231
f 3 231 235
f 3 235 240
f 3 240 239
f 3 239 245
f 3 245 247
f 3 247 243
f 3 243 241
f 3 241 236
f 3 236 232
f 3 232 228
f 3 228 224
f 3 224 220
f 3 220 216
f 3 216 212
f 3 212 208
f 3 208 203
f 3 203 199
f 3 199 196
f 3 196 191
f 3 191 186
f 3 186 182
f 3 182 177
f 3 177 173
f 3 173 169
f 3 169 164
f 3 164 159
f 3 159 154
f 3 154 150
f 3 150 146
f 3 146 139
f 3 139 138
f 3 138 137
f 3 137 144
f 3 144 134
f 3 134 124
f 3 124 118
f 3 118 112
f 3 112 111
f 3 111 104
f 3 104 99
f 3 99 93
f 3 93 92
f 3 92 91
f 3 91 90
f 3 90 85
f 3 85 78
f 3 78 72
f 3 72 68
f 3 68 64
f 3 64 62
f 3 62 58
f 3 58 53
f 3 53 47
f 3 47 43
f 3 43 39
f 3 39 34
f 3 34 29
f 3 29 25
f 3 25 21
f 3 21 20
f 3 20 15
f 3 15 10
f 3 10 6
f 3 6 5
f 3 5 4
f 6 10 11
f 6 11 12
f 6 12 7
f 8 13 14
f 8 14 9
f 10 15 16
f 10 16 11
f 13 17 14
f 14 17 18
f 14 18 19
f 15 20 16
f 16 20 21
f 16 21 22
f 18 23 19
f 19 23 24
f 21 25 22
f 22 25 26
f 23 27 28
f 23 28 24
f 25 29 26
f 26 29 30
f 27 31 32
f 27 32 33
f 27 33 28
f 29 34 35
f 29 35 36
f 29 36 30
f 31 37 32
f 32 37 38
f 34 39 35
f 35 39 40
f 37 41 42
f 37 42 38
f 39 43 44
f 39 44 40
f 41 45 42
f 42 45 46
f 43 47 48
f 43 48 49
f 43 49 50
f 43 50 44
f 45 51 46
f 45 52 51
f 47 53 48
f 48 53 54
f 51 52 55
f 52 56 57
f 52 57 55
f 53 58 59
f 53 59 54
f 56 60 57
f 57 60 61
f 58 62 59
f 59 62 64
f 59 64 63
f 60 65 61
f 61 65 66
f 63 64 68
f 63 68 67
f 65 69 70
f 65 70 66
f 67 68 71
f 68 72 71
f 69 73 74
f 69 74 75
f 69 75 70
f 71 76 77
f 71 72 76
f 72 78 76
f 73 79 74
f 74 79 80
f 76 81 77
f 76 78 82
f 76 82 89
f 76 89 98
f 76 98 103
f 76 103 110
f 76 110 117
f 76 117 119
f 76 119 129
f 76 129 128
f 76 128 127
f 76 127 126
f 76 126 125
f 76 125 135
f 76 135 145
f 76 145 136
f 76 136 130
f 76 130 120
f 76 120 113
f 76 113 105
f 76 105 100
f 76 100 94
f 76 94 83
f 76 83 81
f 77 81 83
f 77 83 84
f 78 85 82
f 79 86 80
f 80 86 88
f 80 88 87
f 82 85 90
f 82 90 91
f 82 91 92
f 82 92 93
f 82 93 89
f 83 94 84
f 84 94 95
f 87 88 96
f 88 97 96
f 89 93 99
f 89 99 98
f 94 100 95
f 96 97 101
f 97 102 101
f 98 99 103
f 99 104 103
f 100 105 106
f 101 102 107
f 102 108 109
f 102 109 107
f 103 104 111
f 103 111 112
f 103 112 110
f 105 113 114
f 105 114 106
f 108 115 116
f 108 116 109
f 110 112 117
f 112 118 119
f 112 119 117
f 113 120 114
f 114 120 121
f 115 122 116
f 116 122 123
f 118 124 125
f 118 125 126
f 118 126 127
f 118 127 128
f 118 128 129
f 118 129 119
f 120 130 121
f 121 130 131
f 122 132 133
f 122 133 123
f 124 134 125
f 125 134 135
f 130 136 137
f 130 137 138
f 130 138 139
f 130 139 140
f 130 140 141
f 130 141 131
f 132 142 133
f 133 142 143
f 134 144 145
f 134 145 135
f 136 145 144
f 136 144 137
f 139 146 140
f 140 146 147
f 142 148 143
f 143 148 149
f 146 150 151
f 146 151 147
f 148 152 149
f 149 152 153
f 150 154 155
f 150 155 156
f 150 156 151
f 152 157 158
f 152 158 153
f 154 159 155
f 155 159 160
f 157 161 162
f 157 162 158
f 159 163 160
f 159 164 163
f 161 165 162
f 162 165 167
f 162 167 166
f 163 164 168
f 164 169 168
f 166 167 170
f 166 170 171
f 168 169 172
f 169 173 174
f 169 174 172
f 170 175 171
f 171 175 176
f 173 177 174
f 174 177 178
f 175 179 176
f 176 179 180
f 177 181 178
f 177 182 181
f 179 183 180
f 180 183 184
f 181 182 185
f 182 186 185
f 183 187 184
f 184 187 189
f 184 189 188
f 185 186 190
f 186 191 192
f 186 192 190
f 188 189 194
f 188 194 193
f 191 195 192
f 191 196 195
f 193 194 197
f 194 198 197
f 195 196 199
f 195 199 200
f 197 198 201
f 198 202 201
f 199 203 200
f 200 203 204
f 201 202 205
f 201 205 206
f 201 206 207
f 203 208 204
f 204 208 209
f 206 210 207
f 207 210 211
f 208 212 213
f 208 213 209
f 210 214 211
f 211 214 215
f 212 216 213
f 213 216 217
f 214 218 219
f 214 219 215
f 216 220 221
f 216 221 217
f 218 222 223
f 218 223 219
f 220 224 221
f 221 224 225
f 222 226 227
f 222 227 223
f 224 228 229
f 224 229 225
f 226 230 227
f 227 230 231
f 228 232 229
f 229 232 233
f 230 234 231
f 231 234 235
f 232 236 237
f 232 237 233
f 234 238 239
f 234 239 240
f 234 240 235
f 236 241 237
f 237 241 243
f 237 243 242
f 238 244 245
f 238 245 239
f 242 243 246
f 243 247 244
f 243 244 246
f 244 247 245
