v -0.0346769 0.276248 -0.470727
v -0.0312685 0.263533 -0.470727
v 0.0548497 0.272838 -0.470727
v -0.00475591 0.342121 -0.470826
v -0.0343951 0.301655 -0.472224
v -0.0358766 0.287472 -0.473705
v -0.0354222 0.101266 -0.588086
v -0.0324864 0.101266 -0.575613
v -0.0271057 0.253304 -0.470727
v -0.0251334 0.101266 -0.562465
v 0.0566675 0.28598 -0.473705
v 0.055595 0.298671 -0.473705
v 0.0450881 0.324126 -0.47331
v 0.0355265 0.334875 -0.472504
v 0.0512596 0.25991 -0.470727
v 0.0545498 0.101266 -0.578345
v 0.0566766 0.101266 -0.591048
v 0.01903 0.343163 -0.472257
v 0.00635993 0.342429 -0.474857
v 0.00635993 0.331584 -0.491049
v -0.00960034 0.331324 -0.48427
v -0.0159535 0.333502 -0.473705
v -0.0252061 0.323155 -0.473376
v -0.0304959 0.312239 -0.474265
v -0.0315866 0.298671 -0.489387
v -0.0323319 0.28598 -0.502107
v -0.0349495 0.28598 -0.489387
v -0.0351313 0.273265 -0.502107
v -0.0352131 0.260549 -0.514811
v -0.0359766 0.235143 -0.527531
v -0.0358766 0.146207 -0.578345
v -0.0358312 0.120777 -0.591048
v -0.0345587 0.104676 -0.602271
v -0.0294689 0.104676 -0.615188
v -0.009055 0.102971 -0.634721
v 0.00407859 0.101266 -0.638834
v -0.0181531 0.241204 -0.470727
v -0.0154173 0.101266 -0.553876
v 0.0568493 0.273265 -0.489387
v 0.0558586 0.28598 -0.489387
v 0.0509233 0.302697 -0.490029
v 0.0504052 0.314607 -0.475515
v 0.0405891 0.320739 -0.486985
v 0.0364536 0.329216 -0.481143
v 0.0279826 0.331963 -0.485175
v 0.0444065 0.248142 -0.470727
v 0.0408799 0.101266 -0.556772
v 0.0494781 0.101266 -0.56732
v 0.0502961 0.101266 -0.615945
v 0.0551678 0.104676 -0.603768
v 0.0567766 0.120777 -0.591048
v 0.0568766 0.260549 -0.502107
v 0.0190573 0.331158 -0.490457
v 0.00635993 0.323344 -0.502107
v 0.00474209 0.315412 -0.512046
v -0.015999 0.323486 -0.488219
v -0.00504675 0.3107 -0.513988
v -0.00859146 0.315625 -0.505694
v -0.0139721 0.318845 -0.49722
v -0.0241609 0.316264 -0.486063
v -0.026624 0.307243 -0.49309
v -0.0277056 0.298364 -0.501465
v -0.0264877 0.281599 -0.523269
v -0.0326773 0.273265 -0.514811
v -0.0326046 0.260549 -0.527531
v -0.035095 0.247858 -0.527531
v -0.0359312 0.222451 -0.540234
v -0.0358403 0.158899 -0.578345
v -0.0357221 0.133492 -0.591048
v -0.0338589 0.120777 -0.603768
v -0.0221795 0.104676 -0.625177
v -0.0329136 0.133492 -0.603768
v -0.0265695 0.120777 -0.618512
v -0.0180804 0.120777 -0.627217
v -0.00487406 0.120777 -0.634869
v 0.00635993 0.120777 -0.637288
v 0.0190573 0.104676 -0.638176
v -0.00619197 0.231828 -0.470727
v 0.00215173 0.101266 -0.546438
v 0.0561494 0.260549 -0.514811
v 0.0560676 0.273265 -0.502107
v 0.051914 0.269973 -0.524174
v 0.0518958 0.278095 -0.514959
v 0.0494781 0.294622 -0.502979
v 0.0399347 0.307219 -0.505744
v 0.0344813 0.317661 -0.498273
v 0.032918 0.324812 -0.490309
v 0.0322908 0.304875 -0.515963
v 0.0184846 0.31598 -0.510565
v 0.0348267 0.237155 -0.470727
v 0.0313001 0.101266 -0.550667
v 0.0418252 0.104676 -0.626427
v 0.0496599 0.120777 -0.615122
v 0.0547861 0.120777 -0.603768
v 0.0566221 0.133492 -0.591048
v 0.0567584 0.158899 -0.578345
v 0.0568402 0.235143 -0.527531
v 0.0568675 0.247858 -0.514811
v 0.00439671 0.303383 -0.525737
v -0.0187075 0.310724 -0.501235
v 0.00208811 0.293865 -0.535528
v -0.0060829 0.298435 -0.527267
v -0.00997299 0.303454 -0.519435
v -0.0149628 0.307148 -0.510977
v -0.0234338 0.302389 -0.505267
v -0.0196164 0.286335 -0.527909
v -0.0256606 0.274259 -0.531694
v -0.0254061 0.261189 -0.544151
v -0.0275147 0.247006 -0.552543
v -0.0321865 0.247858 -0.540234
v -0.0348587 0.235143 -0.540234
v -0.0356585 0.20976 -0.552954
v -0.0358584 0.184329 -0.565625
v -0.0352767 0.171614 -0.578345
v -0.0351041 0.146207 -0.591048
v -0.0338134 0.158899 -0.591048
v -0.0309686 0.146207 -0.603768
v -0.0256333 0.133492 -0.617311
v -0.0168806 0.133492 -0.626131
v -0.00296537 0.130461 -0.63421
v 0.00635993 0.133161 -0.635445
v 0.0175667 0.131929 -0.63528
v 0.0250105 0.120303 -0.635
v 0.0305185 0.106381 -0.634095
v 0.00379684 0.228039 -0.470727
v 0.0199207 0.101266 -0.546471
v 0.0560313 0.247858 -0.527531
v 0.0484511 0.273833 -0.528057
v 0.0557404 0.235143 -0.540234
v 0.0526593 0.234693 -0.55279
v 0.0495781 0.238623 -0.556903
v 0.0493145 0.248568 -0.548742
v 0.0413071 0.298127 -0.514087
v 0.0393621 0.28115 -0.535363
v 0.0374988 0.289603 -0.52786
v 0.0300549 0.297369 -0.526115
v 0.0206842 0.302862 -0.525145
v 0.0185664 0.228702 -0.470727
v 0.0410799 0.120777 -0.625588
v 0.0399165 0.133492 -0.624452
v 0.0516413 0.13515 -0.608277
v 0.0527774 0.146207 -0.601942
v 0.0547043 0.158899 -0.591048
v 0.0558859 0.146207 -0.591048
v 0.0561403 0.171614 -0.578345
v 0.056722 0.184329 -0.565625
v 0.056722 0.222451 -0.540234
v 0.00635993 0.288016 -0.542357
v 0.00216991 0.281173 -0.548018
v -0.00634648 0.285909 -0.540168
v -0.0106638 0.291094 -0.532566
v -0.0152628 0.294978 -0.524091
v -0.0193528 0.298695 -0.514827
v -0.0154991 0.282618 -0.536828
v -0.0195801 0.273573 -0.54053
v -0.0232247 0.250676 -0.556492
v -0.0264422 0.238671 -0.561116
v -0.0280237 0.221457 -0.57043
v -0.0312958 0.235143 -0.552954
v -0.034286 0.222451 -0.552954
v -0.0350495 0.197044 -0.565625
v -0.0339043 0.184329 -0.578345
v -0.031732 0.171614 -0.591048
v -0.02826 0.158331 -0.604278
v -0.0262241 0.149949 -0.611272
v -0.0208434 0.146207 -0.618364
v -0.0186166 0.157549 -0.615912
v -0.0100184 0.147889 -0.625917
v -0.00736445 0.159609 -0.622725
v 0.00635993 0.146207 -0.631561
v 0.0190573 0.146207 -0.630821
v 0.0317728 0.133492 -0.629718
v 0.0564857 0.20976 -0.552954
v 0.0410981 0.259673 -0.552329
v 0.0559131 0.197044 -0.565625
v 0.0551224 0.222451 -0.552954
v 0.0518231 0.226287 -0.561659
v 0.0499871 0.219089 -0.570528
v 0.0449791 0.235498 -0.565904
v 0.0396802 0.251339 -0.561132
v 0.030264 0.284796 -0.539082
v 0.0301458 0.261686 -0.560145
v 0.0225747 0.293296 -0.534903
v 0.0300277 0.157975 -0.622297
v 0.0396256 0.145213 -0.620355
v 0.0396984 0.168583 -0.611634
v 0.0415162 0.158899 -0.613625
v 0.0497144 0.160841 -0.602304
v 0.0527956 0.171164 -0.591279
v 0.0547588 0.184329 -0.578345
v 0.0207842 0.284015 -0.544628
v 0.0181574 0.264409 -0.563058
v 0.00446033 0.271323 -0.557496
v -0.00588294 0.272886 -0.552609
v -0.0105001 0.278213 -0.545302
v -0.0151901 0.269737 -0.549137
v -0.0192074 0.260407 -0.552822
v -0.0184621 0.246627 -0.564703
v -0.0238791 0.231591 -0.570133
v -0.0237519 0.212956 -0.582722
v -0.0280146 0.20912 -0.578443
v -0.0314139 0.197044 -0.578345
v -0.0331772 0.20976 -0.565625
v -0.0272784 0.171614 -0.600329
v -0.0243336 0.162166 -0.608853
v -0.0147538 0.175568 -0.611765
v -0.00311989 0.168323 -0.620964
v 0.00635993 0.158899 -0.626657
v 0.0198753 0.165647 -0.623037
v 0.0534409 0.210778 -0.566727
v 0.0526684 0.1965 -0.578328
v 0.0496872 0.200383 -0.582557
v 0.048142 0.210778 -0.578328
v 0.041198 0.20976 -0.588201
v 0.04038 0.232372 -0.574593
v 0.0341632 0.243691 -0.571582
v 0.0273555 0.230407 -0.585782
v 0.0203115 0.25077 -0.573392
v 0.0326635 0.172348 -0.614662
v 0.0320545 0.18253 -0.610219
v 0.0349721 0.197329 -0.600724
v 0.0418343 0.184329 -0.601497
v 0.0447973 0.171851 -0.603883
v 0.0498962 0.186224 -0.58983
v 0.00717794 0.25624 -0.570413
v -0.00634648 0.248474 -0.572421
v -0.0112727 0.259673 -0.560738
v -0.0150174 0.23886 -0.574198
v -0.0201617 0.223967 -0.579348
v -0.015281 0.219918 -0.586967
v -0.0186712 0.208742 -0.590406
v -0.0243154 0.198915 -0.59011
v -0.0258424 0.185182 -0.59559
v -0.0221704 0.171614 -0.606681
v -0.0190529 0.183927 -0.603538
v -0.0146811 0.200809 -0.599062
v -0.00574661 0.190059 -0.609511
v 0.00635993 0.184329 -0.615484
v 0.00635993 0.170099 -0.622132
v 0.0190573 0.184329 -0.614662
v 0.0447246 0.197116 -0.591114
v 0.0307275 0.208718 -0.597153
v 0.0394984 0.221622 -0.582162
v 0.0324272 0.235616 -0.578707
v 0.0190573 0.235522 -0.584877
v 0.0191391 0.216129 -0.597367
v 0.0206478 0.194937 -0.609017
v 0.00635993 0.236161 -0.585338
v -0.00887322 0.230833 -0.584236
v -0.00693726 0.211086 -0.597433
v 0.00635993 0.196097 -0.609593
v 0.00635993 0.20976 -0.60204
v 0.00472391 0.219847 -0.595771
f 1 2 9
f 1 9 37
f 1 37 78
f 1 78 125
f 1 125 138
f 1 138 90
f 1 90 46
f 1 46 15
f 1 15 3
f 1 3 4
f 1 4 5
f 1 5 6
f 1 6 7
f 1 7 8
f 1 8 2
f 2 8 10
f 2 10 9
f 3 11 12
f 3 12 13
f 3 13 14
f 3 14 4
f 3 15 16
f 3 16 17
f 3 17 11
f 4 14 18
f 4 18 19
f 4 19 20
f 4 20 21
f 4 21 22
f 4 22 23
f 4 23 5
f 5 23 24
f 5 24 25
f 5 25 26
f 5 26 27
f 5 27 6
f 6 27 28
f 6 28 29
f 6 29 30
f 6 30 31
f 6 31 32
f 6 32 7
f 7 32 33
f 7 33 34
f 7 34 35
f 7 35 36
f 7 36 49
f 7 49 17
f 7 17 16
f 7 16 48
f 7 48 47
f 7 47 91
f 7 91 126
f 7 126 79
f 7 79 38
f 7 38 10
f 7 10 8
f 9 10 38
f 9 38 37
f 11 39 40
f 11 40 12
f 11 17 39
f 12 40 41
f 12 41 42
f 12 42 13
f 13 42 43
f 13 43 44
f 13 44 14
f 14 44 45
f 14 45 18
f 15 46 47
f 15 47 48
f 15 48 16
f 17 49 50
f 17 50 51
f 17 51 52
f 17 52 39
f 18 45 53
f 18 53 19
f 19 53 20
f 20 53 54
f 20 54 55
f 20 55 21
f 21 56 22
f 21 55 57
f 21 57 58
f 21 58 59
f 21 59 56
f 22 56 60
f 22 60 23
f 23 60 61
f 23 61 24
f 24 61 25
f 25 62 26
f 25 61 62
f 26 63 64
f 26 64 27
f 26 62 63
f 27 64 28
f 28 64 29
f 29 64 65
f 29 65 66
f 29 66 67
f 29 67 30
f 30 67 31
f 31 67 68
f 31 68 32
f 32 68 69
f 32 69 33
f 33 69 70
f 33 70 34
f 34 71 35
f 34 70 72
f 34 72 73
f 34 73 71
f 35 71 74
f 35 74 75
f 35 75 36
f 36 75 76
f 36 76 77
f 36 77 49
f 37 38 78
f 38 79 78
f 39 52 80
f 39 80 81
f 39 81 40
f 40 81 82
f 40 82 83
f 40 83 41
f 41 83 82
f 41 82 84
f 41 84 85
f 41 85 43
f 41 43 42
f 43 85 44
f 44 85 86
f 44 86 87
f 44 87 45
f 45 87 86
f 45 86 88
f 45 88 89
f 45 89 53
f 46 90 47
f 47 90 91
f 49 77 92
f 49 92 93
f 49 93 94
f 49 94 50
f 50 94 95
f 50 95 51
f 51 95 96
f 51 96 97
f 51 97 98
f 51 98 52
f 52 98 80
f 53 89 54
f 54 89 55
f 55 89 99
f 55 99 57
f 56 59 100
f 56 100 60
f 57 99 101
f 57 101 102
f 57 102 103
f 57 103 58
f 58 103 104
f 58 104 59
f 59 104 100
f 60 100 105
f 60 105 61
f 61 105 62
f 62 105 63
f 63 105 106
f 63 106 107
f 63 107 108
f 63 108 109
f 63 109 110
f 63 110 65
f 63 65 64
f 65 110 111
f 65 111 66
f 66 111 67
f 67 112 113
f 67 113 68
f 67 111 112
f 68 113 114
f 68 114 69
f 69 114 115
f 69 115 70
f 70 115 72
f 71 73 74
f 72 115 116
f 72 116 117
f 72 117 118
f 72 118 73
f 73 118 74
f 74 118 119
f 74 119 75
f 75 119 120
f 75 120 76
f 76 121 122
f 76 122 77
f 76 120 121
f 77 122 123
f 77 123 124
f 77 124 92
f 78 79 125
f 79 126 125
f 80 82 81
f 80 98 97
f 80 97 127
f 80 127 82
f 82 128 84
f 82 127 129
f 82 129 130
f 82 130 131
f 82 131 132
f 82 132 128
f 84 133 85
f 84 128 133
f 85 88 86
f 85 133 134
f 85 134 135
f 85 135 88
f 88 135 134
f 88 134 136
f 88 136 137
f 88 137 89
f 89 137 99
f 90 138 126
f 90 126 91
f 92 124 139
f 92 139 93
f 93 139 140
f 93 140 141
f 93 141 94
f 94 141 142
f 94 142 143
f 94 143 144
f 94 144 95
f 95 144 145
f 95 145 96
f 96 145 146
f 96 146 97
f 97 146 147
f 97 147 127
f 99 137 148
f 99 148 101
f 100 104 105
f 101 148 149
f 101 149 150
f 101 150 102
f 102 150 151
f 102 151 103
f 103 151 104
f 104 151 152
f 104 152 153
f 104 153 105
f 105 153 106
f 106 154 155
f 106 155 107
f 106 153 152
f 106 152 154
f 107 155 108
f 108 155 156
f 108 156 109
f 109 156 157
f 109 157 158
f 109 158 159
f 109 159 110
f 110 159 160
f 110 160 111
f 111 160 112
f 112 160 161
f 112 161 114
f 112 114 113
f 114 161 162
f 114 162 116
f 114 116 115
f 116 162 163
f 116 163 117
f 117 163 164
f 117 164 165
f 117 165 118
f 118 165 166
f 118 166 119
f 119 166 167
f 119 167 168
f 119 168 120
f 120 168 169
f 120 169 170
f 120 170 121
f 121 170 122
f 122 170 171
f 122 171 172
f 122 172 123
f 123 172 124
f 124 172 139
f 125 126 138
f 127 147 173
f 127 173 129
f 128 132 174
f 128 174 134
f 128 134 133
f 129 173 175
f 129 175 176
f 129 176 130
f 130 176 177
f 130 177 131
f 131 177 178
f 131 178 179
f 131 179 180
f 131 180 174
f 131 174 132
f 134 181 136
f 134 174 180
f 134 180 182
f 134 182 181
f 136 181 183
f 136 183 137
f 137 183 148
f 139 172 140
f 140 172 184
f 140 184 185
f 140 185 186
f 140 186 187
f 140 187 188
f 140 188 141
f 141 188 142
f 142 188 189
f 142 189 143
f 143 189 190
f 143 190 145
f 143 145 144
f 145 190 175
f 145 175 146
f 146 175 173
f 146 173 147
f 148 183 191
f 148 191 192
f 148 192 193
f 148 193 149
f 149 193 194
f 149 194 150
f 150 194 195
f 150 195 151
f 151 195 154
f 151 154 152
f 154 195 196
f 154 196 155
f 155 196 197
f 155 197 156
f 156 198 199
f 156 199 157
f 156 197 198
f 157 199 158
f 158 200 201
f 158 201 202
f 158 202 203
f 158 203 159
f 158 199 200
f 159 203 160
f 160 203 161
f 161 203 162
f 162 203 202
f 162 202 163
f 163 202 204
f 163 204 164
f 164 204 165
f 165 204 205
f 165 205 166
f 166 205 167
f 167 205 206
f 167 206 168
f 168 206 169
f 169 206 207
f 169 207 170
f 170 208 171
f 170 207 208
f 171 208 209
f 171 209 184
f 171 184 172
f 175 190 176
f 176 190 210
f 176 210 177
f 177 210 211
f 177 211 178
f 178 211 212
f 178 212 213
f 178 213 214
f 178 214 215
f 178 215 179
f 179 215 180
f 180 215 216
f 180 216 182
f 181 182 191
f 181 191 183
f 182 216 217
f 182 217 218
f 182 218 192
f 182 192 191
f 184 209 219
f 184 219 186
f 184 186 185
f 186 219 220
f 186 220 221
f 186 221 222
f 186 222 223
f 186 223 187
f 187 223 188
f 188 223 224
f 188 224 189
f 189 224 211
f 189 211 190
f 190 211 210
f 192 218 225
f 192 225 193
f 193 225 226
f 193 226 194
f 194 227 195
f 194 226 227
f 195 227 196
f 196 227 228
f 196 228 198
f 196 198 197
f 198 228 199
f 199 228 229
f 199 229 200
f 200 229 230
f 200 230 231
f 200 231 232
f 200 232 201
f 201 232 233
f 201 233 204
f 201 204 202
f 204 233 205
f 205 233 234
f 205 234 206
f 206 234 235
f 206 235 236
f 206 236 237
f 206 237 207
f 207 237 238
f 207 238 239
f 207 239 208
f 208 239 209
f 209 239 240
f 209 240 220
f 209 220 219
f 211 224 212
f 212 241 214
f 212 214 213
f 212 224 241
f 214 241 222
f 214 222 221
f 214 221 242
f 214 242 243
f 214 243 215
f 215 244 216
f 215 243 244
f 216 244 217
f 217 245 218
f 217 244 242
f 217 242 246
f 217 246 245
f 218 245 225
f 220 240 247
f 220 247 242
f 220 242 221
f 222 224 223
f 222 241 224
f 225 245 248
f 225 248 226
f 226 248 249
f 226 249 228
f 226 228 227
f 228 249 230
f 228 230 229
f 230 236 231
f 230 249 236
f 231 236 232
f 232 236 235
f 232 235 234
f 232 234 233
f 236 249 250
f 236 250 237
f 237 251 238
f 237 250 252
f 237 252 251
f 238 251 240
f 238 240 239
f 240 251 247
f 242 247 246
f 242 244 243
f 245 246 248
f 246 247 252
f 246 252 253
f 246 253 248
f 247 251 252
f 248 253 249
f 249 253 250
f 250 253 252
