v 0.394386 -0.527328 0.076623
v 0.394314 -0.527328 0.082613
v 0.380528 -0.545226 0.082613
v 0.394332 -0.527328 0.0695113
v 0.39426 -0.527328 0.0868082
v 0.378312 -0.546145 0.0868082
v 0.374059 -0.548019 0.0868082
v 0.374167 -0.548019 0.082613
v 0.370202 -0.54787 0.0190561
v 0.369626 -0.547503 0.00633572
v 0.369085 -0.547033 -0.00402901
v 0.368526 -0.546418 -0.0125092
v 0.380636 -0.527328 -0.0188582
v 0.312825 -0.527328 0.0868082
v 0.362255 -0.54946 0.0868082
v 0.362255 -0.54946 0.0444744
v 0.362255 -0.549449 0.0317764
v 0.362255 -0.549313 0.0190561
v 0.370653 -0.548006 0.0317764
v 0.362255 -0.548946 0.00633572
v 0.363481 -0.548004 -0.00750636
v 0.360273 -0.548019 -0.0190826
v 0.357624 -0.547698 -0.031758
v 0.356507 -0.547109 -0.0396999
v 0.330827 -0.546908 -0.102292
v 0.354813 -0.527328 -0.0821908
v 0.32834 -0.548019 0.0868082
v 0.210287 -0.527328 -0.142383
v 0.336828 -0.54946 0.0868082
v 0.349551 -0.54946 -0.0190826
v 0.349551 -0.549139 -0.031758
v 0.345748 -0.54795 -0.0571988
v 0.344325 -0.547445 -0.0668456
v 0.323691 -0.547883 -0.107115
v 0.319168 -0.547462 -0.116314
v 0.317096 -0.527328 -0.142383
v 0.33299 -0.527328 -0.120935
v 0.342324 -0.527328 -0.107833
v 0.33189 -0.547545 -0.095315
v 0.236814 -0.548006 -0.142383
v 0.238544 -0.548307 -0.142383
v 0.24768 -0.549135 -0.142383
v 0.251663 -0.54946 -0.142383
v 0.324124 -0.54946 -0.082617
v 0.336828 -0.549391 -0.0571988
v 0.324124 -0.548988 -0.095315
v 0.311365 -0.548262 -0.120621
v 0.296354 -0.547779 -0.142383
v 0.307094 -0.547538 -0.130223
v 0.27709 -0.54946 -0.142383
v 0.298714 -0.54946 -0.120733
v 0.311419 -0.549404 -0.108035
v 0.290173 -0.548769 -0.142383
v 0.28601 -0.549124 -0.142383
v 0.28601 -0.54946 -0.133454
f 1 2 3
f 1 3 4
f 1 4 13
f 1 13 26
f 1 26 38
f 1 38 37
f 1 37 36
f 1 36 28
f 1 28 14
f 1 14 5
f 1 5 2
f 2 5 3
f 3 5 6
f 3 6 7
f 3 7 8
f 3 8 9
f 3 9 10
f 3 10 11
f 3 11 4
f 4 11 12
f 4 12 13
f 5 14 27
f 5 27 29
f 5 29 15
f 5 15 7
f 5 7 6
f 7 15 8
f 8 15 16
f 8 16 17
f 8 17 18
f 8 18 19
f 8 19 9
f 9 18 20
f 9 20 10
f 9 19 18
f 10 20 21
f 10 21 11
f 11 21 22
f 11 22 23
f 11 23 12
f 12 23 24
f 12 24 25
f 12 25 26
f 12 26 13
f 14 28 27
f 15 29 43
f 15 43 50
f 15 50 55
f 15 55 51
f 15 51 44
f 15 44 30
f 15 30 16
f 16 30 17
f 17 30 18
f 18 30 31
f 18 31 20
f 20 31 22
f 20 22 21
f 22 31 23
f 23 31 32
f 23 32 33
f 23 33 24
f 24 33 25
f 25 34 35
f 25 35 36
f 25 36 37
f 25 37 38
f 25 38 26
f 25 33 39
f 25 39 34
f 27 28 40
f 27 40 41
f 27 41 29
f 28 36 48
f 28 48 53
f 28 53 54
f 28 54 50
f 28 50 43
f 28 43 42
f 28 42 41
f 28 41 40
f 29 41 42
f 29 42 43
f 30 44 45
f 30 45 31
f 31 45 46
f 31 46 32
f 32 46 39
f 32 39 33
f 34 39 46
f 34 46 47
f 34 47 35
f 35 47 48
f 35 48 49
f 35 49 36
f 36 49 48
f 44 51 52
f 44 52 46
f 44 46 45
f 46 52 47
f 47 53 48
f 47 52 53
f 50 54 55
f 51 55 54
f 51 54 52
f 52 54 53
