v -0.200808 -0.527328 0.324012
v -0.308983 -0.527328 0.324012
v -0.224053 -0.547603 0.324012
v -0.328344 -0.548019 0.0868315
v -0.312866 -0.527328 0.0868315
v -0.319232 -0.527328 0.311473
v -0.318038 -0.546801 0.29271
v -0.306141 -0.547324 0.306504
v -0.294111 -0.547536 0.320274
v -0.29269 -0.544355 0.324012
v -0.2243 -0.547696 0.324012
v -0.334009 -0.548985 0.0868315
v -0.394348 -0.527328 0.0868315
v -0.329727 -0.527328 0.298399
v -0.310782 -0.547737 0.297656
v -0.345034 -0.527328 0.273715
v -0.331584 -0.547432 0.269675
v -0.320141 -0.547467 0.285999
v -0.298487 -0.548177 0.311008
v -0.286552 -0.548303 0.324012
v -0.286893 -0.548242 0.324012
v -0.235269 -0.548881 0.324012
v -0.336831 -0.54946 0.0868315
v -0.380423 -0.54499 0.0868315
v -0.394272 -0.527328 0.0953536
v -0.324593 -0.548244 0.273669
v -0.356458 -0.527328 0.248149
v -0.343746 -0.547083 0.24297
v -0.357197 -0.547508 0.207419
v -0.344864 -0.547677 0.235145
v -0.332967 -0.547939 0.260572
v -0.324119 -0.549382 0.260572
v -0.311408 -0.548907 0.285999
v -0.298696 -0.5493 0.298701
v -0.286249 -0.548335 0.324012
v -0.247867 -0.54946 0.324012
v -0.362255 -0.54946 0.0868315
v -0.380177 -0.544373 0.0953536
v -0.393931 -0.527328 0.107916
v -0.374077 -0.548019 0.0868315
v -0.373831 -0.548019 0.0953536
v -0.370458 -0.547967 0.146185
v -0.369966 -0.54774 0.15891
v -0.369341 -0.547274 0.171612
v -0.367882 -0.527328 0.222188
v -0.355719 -0.546258 0.215895
v -0.368867 -0.546849 0.179159
v -0.358807 -0.547995 0.197039
v -0.336831 -0.54912 0.235145
v -0.311408 -0.54946 0.273274
v -0.286003 -0.54946 0.311403
v -0.349543 -0.549438 0.197039
v -0.336831 -0.54946 0.222443
v -0.273404 -0.54946 0.324012
v -0.37025 -0.548494 0.0868315
v -0.362255 -0.54946 0.133483
v -0.381863 -0.527328 0.184825
v -0.362255 -0.54941 0.146185
v -0.362255 -0.549183 0.15891
v -0.362255 -0.548717 0.171612
v -0.349543 -0.54946 0.184314
f 1 2 10
f 1 10 21
f 1 21 20
f 1 20 35
f 1 35 54
f 1 54 36
f 1 36 22
f 1 22 11
f 1 11 3
f 1 3 4
f 1 4 5
f 1 5 13
f 1 13 25
f 1 25 39
f 1 39 57
f 1 57 45
f 1 45 27
f 1 27 16
f 1 16 14
f 1 14 6
f 1 6 2
f 2 6 7
f 2 7 8
f 2 8 9
f 2 9 10
f 3 11 4
f 4 12 23
f 4 23 37
f 4 37 55
f 4 55 40
f 4 40 24
f 4 24 13
f 4 13 5
f 4 11 12
f 6 14 7
f 7 15 8
f 7 14 16
f 7 16 17
f 7 17 18
f 7 18 15
f 8 15 19
f 8 19 9
f 9 19 20
f 9 20 21
f 9 21 10
f 11 22 23
f 11 23 12
f 13 24 25
f 15 18 17
f 15 17 26
f 15 26 19
f 16 27 17
f 17 27 28
f 17 28 29
f 17 29 30
f 17 30 31
f 17 31 32
f 17 32 26
f 19 26 33
f 19 33 34
f 19 34 20
f 20 34 35
f 22 36 23
f 23 36 54
f 23 54 51
f 23 51 50
f 23 50 53
f 23 53 61
f 23 61 56
f 23 56 37
f 24 38 39
f 24 39 25
f 24 40 41
f 24 41 42
f 24 42 43
f 24 43 44
f 24 44 38
f 26 32 33
f 27 45 28
f 28 45 46
f 28 46 29
f 29 46 47
f 29 47 48
f 29 48 30
f 30 48 31
f 31 48 49
f 31 49 32
f 32 50 51
f 32 51 34
f 32 34 33
f 32 49 52
f 32 52 53
f 32 53 50
f 34 51 35
f 35 51 54
f 37 56 55
f 38 44 39
f 39 44 47
f 39 47 57
f 40 55 56
f 40 56 58
f 40 58 41
f 41 58 42
f 42 58 59
f 42 59 43
f 43 59 60
f 43 60 44
f 44 60 48
f 44 48 47
f 45 57 46
f 46 57 47
f 48 60 52
f 48 52 49
f 52 60 59
f 52 59 58
f 52 58 56
f 52 56 61
f 52 61 53
