v 0.247756 0.515551 0.325106
v 0.274098 0.547202 0.325106
v 0.29451 0.515551 0.325106
v 0.00884142 0.515551 0.425384
v 0.274181 0.547206 0.325106
v 0.00884142 0.547583 0.442645
v 0.291071 0.527514 0.325106
v 0.289645 0.527514 0.326984
v 0.286205 0.515551 0.335932
v 0.00884142 0.515551 0.454754
v 0.281032 0.547263 0.325106
v 0.00884142 0.547583 0.445996
v 0.0826355 0.547926 0.430449
v 0.290456 0.529595 0.325106
v 0.283269 0.527514 0.335272
v 0.284723 0.515551 0.337848
v 0.0094566 0.515551 0.454754
v 0.00884142 0.517287 0.454373
v 0.281564 0.547222 0.325106
v 0.239312 0.547507 0.354361
v 0.244681 0.547507 0.357952
v 0.260563 0.547304 0.345603
v 0.267498 0.546936 0.343661
v 0.00884142 0.541643 0.448509
v 0.0190758 0.547504 0.445895
v 0.0953586 0.547967 0.434015
v 0.0826355 0.547926 0.434332
v 0.0953586 0.547967 0.43008
v 0.286485 0.540476 0.325106
v 0.281256 0.540219 0.332632
v 0.279355 0.520447 0.342938
v 0.274125 0.515551 0.34856
v 0.0190758 0.515551 0.454563
v 0.0190758 0.527514 0.451872
v 0.00884142 0.527514 0.452063
v 0.27997 0.546847 0.330944
v 0.194403 0.547513 0.395622
v 0.230783 0.547472 0.37006
v 0.255502 0.536884 0.356899
v 0.269204 0.540219 0.345032
v 0.275552 0.540219 0.338978
v 0.216997 0.547098 0.382029
v 0.205029 0.537639 0.395305
v 0.00884142 0.540219 0.449093
v 0.0190758 0.540219 0.448877
v 0.0295899 0.547031 0.445349
v 0.108054 0.547345 0.433088
v 0.133472 0.547704 0.421272
v 0.278096 0.527514 0.341631
v 0.271749 0.527514 0.347025
v 0.273147 0.515551 0.34936
v 0.0198308 0.515551 0.454487
v 0.031799 0.527514 0.450476
v 0.202876 0.546111 0.393096
v 0.169013 0.547491 0.407984
v 0.25732 0.527514 0.358308
v 0.263667 0.527514 0.353383
v 0.241493 0.533853 0.368626
v 0.197982 0.541212 0.397602
v 0.180618 0.537693 0.407857
v 0.191523 0.522751 0.407134
v 0.199828 0.515551 0.404912
v 0.200471 0.515551 0.404532
v 0.207015 0.527514 0.39684
v 0.0444941 0.538737 0.446174
v 0.0330014 0.541472 0.446872
v 0.108054 0.540219 0.43597
v 0.114765 0.546711 0.432302
v 0.141805 0.547209 0.420193
v 0.27091 0.515551 0.351124
v 0.265541 0.517471 0.354805
v 0.031799 0.515551 0.453154
v 0.032554 0.515551 0.453066
v 0.0444941 0.515551 0.451619
v 0.0444941 0.527514 0.448915
v 0.172592 0.541247 0.409748
v 0.260563 0.515551 0.359247
v 0.247533 0.528776 0.365453
v 0.261346 0.515551 0.358638
v 0.229077 0.521913 0.381559
v 0.184644 0.527196 0.408936
v 0.117226 0.540219 0.43333
v 0.153438 0.535278 0.419838
v 0.19348 0.515551 0.408022
v 0.18498 0.515551 0.411639
v 0.21009 0.515551 0.397907
v 0.21065 0.515551 0.397488
v 0.0572172 0.535659 0.445336
v 0.0880603 0.520628 0.444587
v 0.0953586 0.515551 0.444727
v 0.108054 0.527514 0.439231
v 0.0637606 0.533961 0.444905
v 0.0795876 0.523052 0.445323
v 0.0579163 0.515551 0.44988
v 0.0698565 0.515551 0.448319
v 0.0833626 0.515754 0.446504
v 0.251755 0.515551 0.365999
v 0.184309 0.515551 0.411918
v 0.155786 0.527514 0.420815
v 0.128802 0.523991 0.432873
v 0.131319 0.515551 0.433901
v 0.107578 0.515551 0.442366
v 0.108837 0.515551 0.441985
v 0.120805 0.515551 0.438254
v 0.121532 0.527942 0.434903
v 0.0840337 0.515551 0.446453
v 0.0805103 0.515551 0.446923
v 0.12142 0.515551 0.438
f 1 2 5
f 1 5 11
f 1 11 19
f 1 19 29
f 1 29 14
f 1 14 7
f 1 7 3
f 1 3 9
f 1 9 16
f 1 16 32
f 1 32 51
f 1 51 70
f 1 70 79
f 1 79 77
f 1 77 97
f 1 97 87
f 1 87 86
f 1 86 63
f 1 63 62
f 1 62 84
f 1 84 85
f 1 85 98
f 1 98 101
f 1 101 108
f 1 108 104
f 1 104 103
f 1 103 102
f 1 102 90
f 1 90 106
f 1 106 107
f 1 107 95
f 1 95 94
f 1 94 74
f 1 74 73
f 1 73 72
f 1 72 52
f 1 52 33
f 1 33 17
f 1 17 10
f 1 10 4
f 1 4 2
f 2 4 6
f 2 6 5
f 3 7 8
f 3 8 9
f 4 10 18
f 4 18 35
f 4 35 44
f 4 44 24
f 4 24 12
f 4 12 6
f 5 6 11
f 6 12 27
f 6 27 13
f 6 13 11
f 7 14 8
f 8 14 15
f 8 15 9
f 9 15 16
f 10 17 18
f 11 13 20
f 11 20 21
f 11 21 22
f 11 22 23
f 11 23 19
f 12 24 25
f 12 25 26
f 12 26 27
f 13 27 26
f 13 26 28
f 13 28 20
f 14 29 30
f 14 30 15
f 15 30 31
f 15 31 16
f 16 31 32
f 17 33 34
f 17 34 35
f 17 35 18
f 19 23 36
f 19 36 29
f 20 28 21
f 21 23 22
f 21 28 26
f 21 26 37
f 21 37 38
f 21 38 23
f 23 39 40
f 23 40 41
f 23 41 36
f 23 38 42
f 23 42 43
f 23 43 39
f 24 44 25
f 25 44 45
f 25 45 46
f 25 46 26
f 26 46 47
f 26 47 48
f 26 48 37
f 29 36 30
f 30 36 41
f 30 41 49
f 30 49 31
f 31 49 40
f 31 40 50
f 31 50 51
f 31 51 32
f 33 52 34
f 34 45 44
f 34 44 35
f 34 52 53
f 34 53 45
f 37 54 42
f 37 42 38
f 37 48 55
f 37 55 54
f 39 56 57
f 39 57 50
f 39 50 40
f 39 43 58
f 39 58 56
f 40 49 41
f 42 54 43
f 43 54 59
f 43 59 60
f 43 60 61
f 43 61 62
f 43 62 63
f 43 63 64
f 43 64 58
f 45 53 65
f 45 65 66
f 45 66 46
f 46 66 65
f 46 65 67
f 46 67 47
f 47 67 68
f 47 68 69
f 47 69 48
f 48 69 55
f 50 70 51
f 50 57 71
f 50 71 70
f 52 72 53
f 53 72 73
f 53 73 74
f 53 74 75
f 53 75 65
f 54 55 76
f 54 76 60
f 54 60 59
f 55 69 76
f 56 77 57
f 56 58 78
f 56 78 77
f 57 77 79
f 57 79 71
f 58 64 80
f 58 80 78
f 60 81 61
f 60 76 68
f 60 68 82
f 60 82 83
f 60 83 81
f 61 84 62
f 61 81 85
f 61 85 84
f 63 86 64
f 64 86 87
f 64 87 80
f 65 75 88
f 65 88 67
f 67 89 90
f 67 90 91
f 67 91 82
f 67 82 68
f 67 88 92
f 67 92 93
f 67 93 89
f 68 76 69
f 70 71 79
f 74 94 75
f 75 92 88
f 75 94 95
f 75 95 96
f 75 96 92
f 77 78 97
f 78 80 97
f 80 87 97
f 81 98 85
f 81 83 99
f 81 99 100
f 81 100 101
f 81 101 98
f 82 91 102
f 82 102 103
f 82 103 104
f 82 104 105
f 82 105 83
f 83 105 99
f 89 93 90
f 90 93 106
f 90 102 91
f 92 96 93
f 93 96 106
f 95 107 96
f 96 107 106
f 99 105 100
f 100 105 108
f 100 108 101
f 104 108 105
