v 0.0055283 0.515563 -0.303232
v 0.00433813 0.515563 -0.303145
v 0.0063482 0.54022 -0.297375
v 0.0179591 0.515563 -0.303046
v -0.00637348 0.527511 -0.299315
v -0.00637348 0.54022 -0.296312
v -0.00637348 0.515563 -0.302008
v 0.0063482 0.547837 -0.293841
v 0.0190434 0.54776 -0.293742
v 0.0190434 0.54022 -0.297115
v -0.0167942 0.547025 -0.292803
v -0.00637348 0.547494 -0.293347
v 0.0191492 0.515563 -0.303022
v -0.0190687 0.527511 -0.297918
v -0.0317904 0.538689 -0.293631
v -0.0202589 0.541452 -0.294323
v -0.0190687 0.515563 -0.3006
v -0.0826242 0.547865 -0.281349
v -0.069929 0.547932 -0.281793
v 0.0063482 0.547837 -0.290109
v 0.0190434 0.54776 -0.290109
v 0.0317651 0.547307 -0.293124
v 0.0406253 0.546873 -0.292642
v 0.0317651 0.54022 -0.295793
v 0.0317651 0.527511 -0.29887
v -0.0826242 0.54022 -0.285055
v -0.0915109 0.547333 -0.280558
v 0.0439578 0.527511 -0.297498
v 0.0439578 0.516064 -0.300056
v 0.0439578 0.515563 -0.300167
v -0.0317904 0.515563 -0.299068
v -0.0317904 0.527511 -0.296362
v -0.0445121 0.535603 -0.292791
v -0.146153 0.547694 -0.255993
v -0.069929 0.547932 -0.277913
v -0.226239 0.54732 -0.199599
v 0.0317651 0.547307 -0.290307
v 0.0406253 0.546873 -0.291135
v 0.0439578 0.542162 -0.293742
v 0.0439578 0.541021 -0.2941
v 0.0439578 0.528044 -0.297375
v -0.075298 0.520601 -0.292037
v -0.0826242 0.515563 -0.292062
v -0.095584 0.540324 -0.281991
v -0.0509655 0.533924 -0.292358
v -0.127348 0.546671 -0.267027
v -0.154379 0.547184 -0.254906
v 0.0439578 0.515563 -0.264383
v -0.0325574 0.515563 -0.298969
v -0.0451997 0.515563 -0.297325
v -0.057128 0.515563 -0.295768
v -0.0681305 0.515563 -0.294323
v -0.0560171 0.527362 -0.293211
v -0.179425 0.547336 -0.242549
v -0.171597 0.547567 -0.243612
v -0.193205 0.547536 -0.230576
v -0.146153 0.547694 -0.252014
v -0.187942 0.547536 -0.226968
v -0.226239 0.54725 -0.204158
v -0.226239 0.543905 -0.196991
v 0.0439578 0.542162 -0.28875
v -0.0668345 0.523025 -0.292778
v -0.0711456 0.515563 -0.293915
v -0.0944996 0.515563 -0.288799
v -0.0953195 0.527511 -0.285463
v -0.103201 0.536155 -0.280274
v -0.166016 0.535093 -0.254548
v -0.158716 0.539687 -0.25608
v -0.222431 0.515563 -0.178148
v -0.0704315 0.515563 -0.294014
v -0.0706167 0.515738 -0.293952
v -0.181779 0.54022 -0.244279
v -0.216136 0.546617 -0.216144
v -0.226239 0.5472 -0.206284
v -0.226239 0.515563 -0.177011
v -0.0956368 0.515563 -0.288355
v -0.105846 0.527511 -0.281361
v -0.168317 0.527511 -0.255487
v -0.177019 0.519581 -0.253534
v -0.174665 0.527511 -0.252509
v -0.185191 0.527796 -0.245676
v -0.190031 0.532219 -0.24077
v -0.204049 0.535515 -0.229328
v -0.21759 0.54022 -0.217268
v -0.226239 0.54022 -0.210497
v -0.226239 0.542862 -0.209249
v -0.226239 0.515563 -0.21801
v -0.10894 0.515563 -0.283017
v -0.109152 0.515563 -0.28293
v -0.10984 0.515563 -0.282646
v -0.141366 0.523769 -0.267571
v -0.134119 0.515563 -0.272588
v -0.172152 0.515563 -0.256821
v -0.17239 0.515563 -0.256722
v -0.17276 0.515563 -0.256549
v -0.182996 0.515563 -0.250655
v -0.191618 0.523747 -0.242241
v -0.18371 0.515563 -0.250173
v -0.21193 0.527511 -0.225621
v -0.220209 0.527511 -0.219258
v -0.226239 0.527511 -0.214488
v -0.223145 0.515563 -0.220444
v -0.193152 0.515563 -0.243414
v -0.200002 0.515563 -0.238175
v -0.214655 0.515563 -0.226956
f 1 2 3
f 1 3 4
f 1 4 13
f 1 13 30
f 1 30 48
f 1 48 69
f 1 69 75
f 1 75 87
f 1 87 102
f 1 102 105
f 1 105 104
f 1 104 103
f 1 103 98
f 1 98 96
f 1 96 95
f 1 95 94
f 1 94 93
f 1 93 92
f 1 92 90
f 1 90 89
f 1 89 88
f 1 88 76
f 1 76 64
f 1 64 43
f 1 43 63
f 1 63 70
f 1 70 52
f 1 52 51
f 1 51 50
f 1 50 49
f 1 49 31
f 1 31 17
f 1 17 7
f 1 7 2
f 2 5 6
f 2 6 3
f 2 7 5
f 3 8 9
f 3 9 10
f 3 10 4
f 3 6 11
f 3 11 12
f 3 12 8
f 4 10 13
f 5 7 14
f 5 14 6
f 6 14 15
f 6 15 16
f 6 16 11
f 7 17 14
f 8 12 18
f 8 18 19
f 8 19 35
f 8 35 20
f 8 20 21
f 8 21 9
f 9 21 37
f 9 37 22
f 9 22 10
f 10 22 23
f 10 23 24
f 10 24 25
f 10 25 13
f 11 16 15
f 11 15 26
f 11 26 27
f 11 27 18
f 11 18 12
f 13 25 28
f 13 28 29
f 13 29 30
f 14 17 31
f 14 31 32
f 14 32 15
f 15 32 33
f 15 33 26
f 18 27 34
f 18 34 19
f 19 34 57
f 19 57 35
f 20 35 36
f 20 36 21
f 21 36 37
f 22 37 38
f 22 38 23
f 23 38 61
f 23 61 39
f 23 39 24
f 24 39 40
f 24 40 41
f 24 41 25
f 25 41 28
f 26 42 43
f 26 43 44
f 26 44 27
f 26 33 45
f 26 45 42
f 27 44 46
f 27 46 47
f 27 47 34
f 28 41 40
f 28 40 39
f 28 39 61
f 28 61 48
f 28 48 30
f 28 30 29
f 31 49 32
f 32 49 50
f 32 50 51
f 32 51 52
f 32 52 53
f 32 53 45
f 32 45 33
f 34 47 54
f 34 54 55
f 34 55 56
f 34 56 57
f 35 57 56
f 35 56 58
f 35 58 36
f 36 58 56
f 36 56 59
f 36 59 74
f 36 74 86
f 36 86 85
f 36 85 101
f 36 101 87
f 36 87 75
f 36 75 60
f 36 60 48
f 36 48 38
f 36 38 37
f 38 48 61
f 42 45 62
f 42 62 63
f 42 63 43
f 43 64 65
f 43 65 44
f 44 65 66
f 44 66 46
f 45 53 62
f 46 67 68
f 46 68 47
f 46 66 67
f 47 68 67
f 47 67 54
f 48 60 69
f 52 62 53
f 52 70 71
f 52 71 62
f 54 67 72
f 54 72 73
f 54 73 74
f 54 74 56
f 54 56 55
f 56 74 59
f 60 75 69
f 62 71 63
f 63 71 70
f 64 76 66
f 64 66 65
f 66 76 77
f 66 77 67
f 67 78 79
f 67 79 80
f 67 80 72
f 67 77 78
f 72 80 79
f 72 79 81
f 72 81 82
f 72 82 83
f 72 83 73
f 73 83 84
f 73 84 85
f 73 85 86
f 73 86 74
f 76 88 77
f 77 88 89
f 77 89 90
f 77 90 91
f 77 91 78
f 78 91 92
f 78 92 93
f 78 93 94
f 78 94 79
f 79 94 95
f 79 95 96
f 79 96 81
f 81 97 82
f 81 96 98
f 81 98 97
f 82 97 83
f 83 97 99
f 83 99 100
f 83 100 84
f 84 100 85
f 85 100 101
f 87 101 100
f 87 100 102
f 90 92 91
f 97 98 103
f 97 103 104
f 97 104 99
f 99 104 105
f 99 105 102
f 99 102 100
