v -0.00145459 -0.527328 -0.306407
v -0.00145459 -0.547441 -0.293274
v -0.00145459 -0.527328 -0.226675
v 0.00637229 -0.527328 -0.306407
v -0.00145459 -0.547997 -0.290464
v 0.00637229 -0.547441 -0.293274
v -0.00145459 -0.547718 -0.240194
v 0.236782 -0.548006 -0.142399
v 0.210276 -0.527328 -0.142399
v 0.0442594 -0.527328 -0.30485
v -0.00145459 -0.548884 -0.285984
v 0.00637229 -0.548884 -0.285984
v 0.0163508 -0.546983 -0.29276
v 0.0953367 -0.547549 -0.280766
v 0.0826453 -0.547956 -0.281441
v -0.00145459 -0.549161 -0.247852
v 0.251656 -0.54946 -0.142399
v 0.247633 -0.549135 -0.142399
v 0.238528 -0.548307 -0.142399
v 0.317109 -0.527328 -0.142399
v 0.108246 -0.527328 -0.292519
v 0.102883 -0.546996 -0.280092
v -0.00145459 -0.549107 -0.281087
v 0.0699228 -0.54946 -0.273284
v 0.0826453 -0.549399 -0.273284
v 0.129981 -0.547384 -0.267938
v 0.120782 -0.547904 -0.269254
v 0.0953367 -0.548992 -0.273284
v -0.00145459 -0.549345 -0.255671
v 0.0190949 -0.549404 -0.247852
v 0.27707 -0.54946 -0.142399
v -0.00145459 -0.54946 -0.260568
v 0.296341 -0.547779 -0.142399
v 0.292755 -0.546897 -0.153076
v 0.315518 -0.527328 -0.145465
v 0.145666 -0.527328 -0.278294
v 0.165747 -0.546771 -0.254419
v -0.00145459 -0.54946 -0.273284
v 0.146196 -0.54946 -0.247852
v 0.120782 -0.549347 -0.260568
v 0.191754 -0.547183 -0.242217
v 0.158887 -0.547443 -0.255447
v 0.184301 -0.547753 -0.243437
v 0.158887 -0.548886 -0.247852
v 0.260574 -0.54946 -0.171604
v 0.273266 -0.549341 -0.158904
v 0.285988 -0.549124 -0.142399
v 0.290167 -0.548769 -0.142399
v 0.285427 -0.547826 -0.15794
v 0.294969 -0.547538 -0.146188
v 0.294158 -0.527328 -0.171716
v 0.280812 -0.547378 -0.166867
v 0.171516 -0.527328 -0.266637
v 0.184301 -0.549196 -0.235152
v 0.171579 -0.54946 -0.235152
v 0.205537 -0.547506 -0.230335
v 0.1964 -0.548075 -0.234799
v 0.196993 -0.527328 -0.25421
v 0.234537 -0.527328 -0.226819
v 0.24227 -0.547027 -0.203972
v 0.256053 -0.547443 -0.192011
v 0.247852 -0.549391 -0.18432
v 0.260387 -0.548251 -0.18424
v 0.27311 -0.548212 -0.171299
v 0.209715 -0.54946 -0.209736
v 0.196993 -0.549436 -0.222452
v 0.285988 -0.548981 -0.146188
v 0.283431 -0.527328 -0.184464
v 0.268744 -0.547538 -0.179937
v 0.235129 -0.549079 -0.197036
v 0.247041 -0.547943 -0.19657
v 0.26073 -0.527328 -0.205722
v 0.270927 -0.527328 -0.197052
v 0.273359 -0.527328 -0.194933
f 1 2 5
f 1 5 11
f 1 11 23
f 1 23 38
f 1 38 32
f 1 32 29
f 1 29 16
f 1 16 7
f 1 7 3
f 1 3 9
f 1 9 20
f 1 20 35
f 1 35 51
f 1 51 68
f 1 68 74
f 1 74 73
f 1 73 72
f 1 72 59
f 1 59 58
f 1 58 53
f 1 53 36
f 1 36 21
f 1 21 10
f 1 10 4
f 1 4 6
f 1 6 2
f 2 6 5
f 3 7 8
f 3 8 9
f 4 10 6
f 5 6 12
f 5 12 11
f 6 10 13
f 6 13 14
f 6 14 15
f 6 15 12
f 7 16 17
f 7 17 18
f 7 18 19
f 7 19 8
f 8 19 18
f 8 18 17
f 8 17 31
f 8 31 47
f 8 47 48
f 8 48 33
f 8 33 20
f 8 20 9
f 10 21 22
f 10 22 14
f 10 14 13
f 11 12 23
f 12 24 23
f 12 15 25
f 12 25 24
f 14 22 26
f 14 26 27
f 14 27 28
f 14 28 15
f 15 28 25
f 16 29 30
f 16 30 17
f 17 30 32
f 17 32 38
f 17 38 24
f 17 24 39
f 17 39 55
f 17 55 65
f 17 65 45
f 17 45 31
f 20 33 34
f 20 34 35
f 21 36 22
f 22 36 37
f 22 37 26
f 23 24 38
f 24 25 39
f 25 28 40
f 25 40 39
f 26 37 41
f 26 41 42
f 26 42 43
f 26 43 27
f 27 43 44
f 27 44 28
f 28 44 40
f 29 32 30
f 31 45 46
f 31 46 47
f 33 48 49
f 33 49 50
f 33 50 34
f 34 51 35
f 34 50 49
f 34 49 52
f 34 52 51
f 36 53 37
f 37 53 41
f 39 40 54
f 39 54 55
f 40 44 54
f 41 56 57
f 41 57 43
f 41 43 42
f 41 53 58
f 41 58 59
f 41 59 60
f 41 60 61
f 41 61 56
f 43 57 54
f 43 54 44
f 45 62 63
f 45 63 64
f 45 64 46
f 45 65 66
f 45 66 62
f 46 64 67
f 46 67 47
f 47 67 48
f 48 67 49
f 49 67 64
f 49 64 52
f 51 52 68
f 52 64 69
f 52 69 68
f 54 66 55
f 54 57 63
f 54 63 70
f 54 70 62
f 54 62 66
f 55 66 65
f 56 61 57
f 57 61 71
f 57 71 63
f 59 72 60
f 60 72 61
f 61 63 71
f 61 72 73
f 61 73 74
f 61 74 69
f 61 69 63
f 62 70 63
f 63 69 64
f 68 69 74
