v -0.00635694 -0.527328 -0.306407
v -0.00635694 -0.547441 -0.293275
v -0.0128305 -0.527328 -0.306222
v -0.00145459 -0.527328 -0.30639
v -0.00145459 -0.547441 -0.293275
v -0.0163502 -0.546983 -0.292751
v -0.0508551 -0.527328 -0.304787
v -0.00145459 -0.547997 -0.290473
v -0.00635694 -0.548884 -0.286
v -0.0826261 -0.547956 -0.281442
v -0.0953533 -0.547551 -0.280767
v -0.00145459 -0.527328 -0.226667
v -0.102895 -0.546996 -0.280092
v -0.114868 -0.527328 -0.292346
v -0.00145459 -0.548884 -0.286
v -0.00145459 -0.549107 -0.281088
v -0.0699303 -0.54946 -0.273272
v -0.0826261 -0.549399 -0.273272
v -0.0953533 -0.548992 -0.273272
v -0.120776 -0.547904 -0.269255
v -0.129984 -0.547386 -0.267938
v -0.214581 -0.527328 -0.137322
v -0.238433 -0.542386 -0.13398
v -0.244623 -0.548058 -0.13398
v -0.00145459 -0.547718 -0.240188
v -0.151165 -0.527328 -0.278184
v -0.165746 -0.546773 -0.254417
v -0.00145459 -0.54946 -0.273272
v -0.146199 -0.54946 -0.247851
v -0.120776 -0.549347 -0.260562
v -0.158895 -0.548886 -0.247851
v -0.184287 -0.547753 -0.243429
v -0.158895 -0.547445 -0.255447
v -0.191766 -0.547185 -0.24223
v -0.223066 -0.527328 -0.13398
v -0.2472 -0.548411 -0.13398
v -0.00145459 -0.549161 -0.247851
v -0.177782 -0.527328 -0.26647
v -0.00145459 -0.54946 -0.260562
v -0.171591 -0.54946 -0.235141
v -0.184287 -0.549196 -0.235141
v -0.196386 -0.548075 -0.234803
v -0.203048 -0.527328 -0.253742
v -0.20553 -0.547506 -0.23033
v -0.256062 -0.547443 -0.192013
v -0.242266 -0.547029 -0.203964
v -0.239375 -0.527328 -0.22665
v -0.322495 -0.527328 -0.13398
v -0.260556 -0.54946 -0.13398
v -0.0190842 -0.549404 -0.247851
v -0.00145459 -0.549345 -0.255666
v -0.20971 -0.54946 -0.209736
v -0.197014 -0.549436 -0.22243
v -0.24786 -0.549391 -0.184315
v -0.235133 -0.549079 -0.197026
v -0.260399 -0.548251 -0.184231
v -0.247043 -0.547943 -0.19657
v -0.268758 -0.547538 -0.179944
v -0.281045 -0.527328 -0.192165
v -0.267972 -0.527328 -0.204267
v -0.253705 -0.527328 -0.215509
v -0.320201 -0.527328 -0.141272
v -0.303923 -0.543207 -0.138706
v -0.299492 -0.548286 -0.13398
v -0.273283 -0.54946 -0.13398
v -0.260556 -0.54946 -0.171605
v -0.273095 -0.548212 -0.171301
v -0.280825 -0.547378 -0.166862
v -0.292893 -0.527328 -0.178678
v -0.315362 -0.527328 -0.150151
v -0.292736 -0.546899 -0.153071
v -0.299303 -0.548307 -0.134081
v -0.299303 -0.548316 -0.13398
v -0.294967 -0.547538 -0.146184
v -0.285413 -0.547826 -0.157949
v -0.285979 -0.549443 -0.13398
v -0.273283 -0.54946 -0.146184
v -0.273283 -0.549341 -0.158894
v -0.285979 -0.548981 -0.146184
f 1 2 3
f 1 3 7
f 1 7 14
f 1 14 26
f 1 26 38
f 1 38 43
f 1 43 47
f 1 47 61
f 1 61 60
f 1 60 59
f 1 59 69
f 1 69 70
f 1 70 62
f 1 62 48
f 1 48 35
f 1 35 22
f 1 22 12
f 1 12 4
f 1 4 5
f 1 5 2
f 2 6 7
f 2 7 3
f 2 5 8
f 2 8 9
f 2 9 10
f 2 10 11
f 2 11 6
f 4 12 25
f 4 25 37
f 4 37 51
f 4 51 39
f 4 39 28
f 4 28 16
f 4 16 15
f 4 15 8
f 4 8 5
f 6 11 7
f 7 11 13
f 7 13 14
f 8 15 9
f 9 15 16
f 9 16 17
f 9 17 18
f 9 18 10
f 10 18 19
f 10 19 11
f 11 19 20
f 11 20 21
f 11 21 13
f 12 22 23
f 12 23 24
f 12 24 25
f 13 26 14
f 13 21 27
f 13 27 26
f 16 28 17
f 17 28 39
f 17 39 49
f 17 49 65
f 17 65 77
f 17 77 66
f 17 66 52
f 17 52 40
f 17 40 29
f 17 29 18
f 18 29 30
f 18 30 19
f 19 30 31
f 19 31 20
f 20 31 32
f 20 32 21
f 21 32 33
f 21 33 34
f 21 34 27
f 22 35 23
f 23 35 48
f 23 48 64
f 23 64 73
f 23 73 76
f 23 76 65
f 23 65 49
f 23 49 36
f 23 36 24
f 24 36 25
f 25 36 37
f 26 27 38
f 27 34 38
f 29 40 41
f 29 41 30
f 30 41 31
f 31 41 32
f 32 41 42
f 32 42 34
f 32 34 33
f 34 43 38
f 34 42 44
f 34 44 45
f 34 45 46
f 34 46 47
f 34 47 43
f 36 49 37
f 37 50 51
f 37 49 50
f 39 51 50
f 39 50 49
f 40 52 53
f 40 53 41
f 41 53 54
f 41 54 55
f 41 55 42
f 42 55 56
f 42 56 57
f 42 57 45
f 42 45 44
f 45 56 58
f 45 58 59
f 45 59 60
f 45 60 46
f 45 57 56
f 46 60 61
f 46 61 47
f 48 62 63
f 48 63 64
f 52 66 53
f 53 66 54
f 54 66 56
f 54 56 55
f 56 66 67
f 56 67 58
f 58 67 68
f 58 68 59
f 59 68 69
f 62 70 71
f 62 71 63
f 63 71 64
f 64 72 73
f 64 71 74
f 64 74 75
f 64 75 72
f 65 76 77
f 66 77 76
f 66 76 78
f 66 78 67
f 67 78 79
f 67 79 75
f 67 75 68
f 68 75 71
f 68 71 69
f 69 71 70
f 71 75 74
f 72 75 79
f 72 79 73
f 73 79 76
f 76 79 78
