v 0.394269 -0.527328 0.0868083
v 0.394234 -0.527328 0.0886902
v 0.378315 -0.546145 0.0868083
v 0.312816 -0.527328 0.0868083
v 0.393049 -0.527328 0.100868
v 0.369347 -0.547269 0.171609
v 0.373822 -0.548019 0.0953547
v 0.374052 -0.548019 0.0868083
v 0.369966 -0.547737 0.1589
v 0.370461 -0.547967 0.146191
v 0.216771 -0.527328 0.30574
v 0.328346 -0.548019 0.0868083
v 0.378492 -0.527328 0.175129
v 0.368869 -0.546847 0.179137
v 0.358805 -0.547995 0.197027
v 0.362254 -0.548712 0.171609
v 0.362254 -0.54941 0.146191
v 0.362254 -0.54946 0.133482
v 0.362254 -0.54946 0.0868083
v 0.362254 -0.54918 0.1589
v 0.213587 -0.527328 0.313002
v 0.336836 -0.54946 0.0868083
v 0.235891 -0.547694 0.313002
v 0.235201 -0.54756 0.313002
v 0.369931 -0.527328 0.205153
v 0.355869 -0.527328 0.241663
v 0.343752 -0.547081 0.24297
v 0.357195 -0.547506 0.207411
v 0.349554 -0.549438 0.197027
v 0.344867 -0.547677 0.235154
v 0.33298 -0.547939 0.260572
v 0.336836 -0.549118 0.235154
v 0.349554 -0.54946 0.184318
v 0.310941 -0.527328 0.313002
v 0.260584 -0.54946 0.311408
v 0.260584 -0.549443 0.298699
v 0.247884 -0.549245 0.313002
v 0.247884 -0.549215 0.311408
v 0.343982 -0.527328 0.268144
v 0.331583 -0.547432 0.269672
v 0.324119 -0.54938 0.260572
v 0.336836 -0.54946 0.222423
v 0.297551 -0.548041 0.313002
v 0.319573 -0.527328 0.307002
v 0.260584 -0.54946 0.313002
v 0.331159 -0.527328 0.293142
v 0.324579 -0.548242 0.273657
v 0.318034 -0.546799 0.292699
v 0.320139 -0.547464 0.28599
v 0.310782 -0.547735 0.297636
v 0.311419 -0.548907 0.28599
v 0.298719 -0.5493 0.298699
v 0.286001 -0.54946 0.311408
v 0.311419 -0.54946 0.273281
v 0.286037 -0.549319 0.313002
v 0.298489 -0.548177 0.311009
v 0.30613 -0.547324 0.306515
v 0.273301 -0.54946 0.313002
f 1 2 3
f 1 3 8
f 1 8 19
f 1 19 22
f 1 22 12
f 1 12 4
f 1 4 11
f 1 11 21
f 1 21 34
f 1 34 44
f 1 44 46
f 1 46 39
f 1 39 26
f 1 26 25
f 1 25 13
f 1 13 5
f 1 5 2
f 2 5 6
f 2 6 3
f 3 7 8
f 3 6 9
f 3 9 10
f 3 10 7
f 4 12 11
f 5 13 14
f 5 14 6
f 6 14 15
f 6 15 16
f 6 16 9
f 7 17 18
f 7 18 8
f 7 10 17
f 8 18 19
f 9 16 20
f 9 20 10
f 10 20 17
f 11 12 21
f 12 22 23
f 12 23 24
f 12 24 21
f 13 25 14
f 14 25 26
f 14 26 27
f 14 27 28
f 14 28 15
f 15 29 16
f 15 28 30
f 15 30 31
f 15 31 32
f 15 32 29
f 16 29 20
f 17 20 29
f 17 29 18
f 18 29 33
f 18 33 42
f 18 42 54
f 18 54 53
f 18 53 58
f 18 58 45
f 18 45 35
f 18 35 22
f 18 22 19
f 21 24 23
f 21 23 37
f 21 37 45
f 21 45 58
f 21 58 55
f 21 55 43
f 21 43 34
f 22 35 36
f 22 36 37
f 22 37 38
f 22 38 23
f 23 38 37
f 26 39 40
f 26 40 27
f 27 40 28
f 28 40 30
f 29 32 41
f 29 41 42
f 29 42 33
f 30 40 31
f 31 40 41
f 31 41 32
f 34 43 44
f 35 45 37
f 35 37 36
f 39 46 40
f 40 47 41
f 40 46 48
f 40 48 49
f 40 49 50
f 40 50 47
f 41 47 51
f 41 51 52
f 41 52 53
f 41 53 54
f 41 54 42
f 43 55 56
f 43 56 57
f 43 57 44
f 44 57 46
f 46 57 48
f 47 50 56
f 47 56 51
f 48 57 49
f 49 57 50
f 50 57 56
f 51 56 52
f 52 56 55
f 52 55 53
f 53 55 58
