v -0.31471 -0.478572 0.0948697
v -0.551819 -0.508875 0.0949762
v -0.548252 -0.485688 0.0971065
v -0.527395 -0.479498 0.101473
v -0.527395 -0.47887 0.127196
v -0.527395 -0.478833 0.152599
v -0.308982 -0.478572 0.137581
v 0.323993 -0.478572 0.102006
v 0.527599 -0.479669 0.0948697
v -0.549009 -0.512878 0.114468
v -0.547172 -0.509874 0.141469
v -0.550954 -0.502085 0.120806
v 0.55224 -0.508159 0.0949762
v 0.548998 -0.512871 0.114468
v -0.547496 -0.493574 0.141788
v -0.533771 -0.483018 0.203512
v -0.535392 -0.481601 0.178003
v -0.536905 -0.480624 0.152599
v -0.538094 -0.480272 0.133534
v -0.527395 -0.479247 0.171665
v -0.489353 -0.479026 0.298788
v -0.476601 -0.478855 0.324191
v -0.29396 -0.478572 0.192382
v -0.303687 -0.478572 0.166819
v 0.317184 -0.478572 0.152706
v 0.527383 -0.478833 0.152599
v 0.527383 -0.47887 0.127196
v 0.538082 -0.480272 0.133534
v 0.548241 -0.485684 0.0971065
v -0.537337 -0.515682 0.187482
v -0.535716 -0.507912 0.221034
v 0.550943 -0.502085 0.120806
v 0.54716 -0.509866 0.141469
v 0.536029 -0.515014 0.201542
v -0.531285 -0.499394 0.241324
v -0.522531 -0.48401 0.247822
v -0.509995 -0.481732 0.273331
v -0.507293 -0.480039 0.266994
v -0.48503 -0.481601 0.332126
v -0.470225 -0.479589 0.346133
v -0.451096 -0.479048 0.374944
v -0.374906 -0.478957 0.463882
v -0.171515 -0.47887 0.591005
v -0.215932 -0.478572 0.313167
v -0.228685 -0.478572 0.300066
v -0.243167 -0.478572 0.281426
v -0.270833 -0.478572 0.243987
v -0.281424 -0.478572 0.222525
v 0.312105 -0.478572 0.172943
v 0.47659 -0.478855 0.324191
v 0.489342 -0.479029 0.298788
v 0.527383 -0.479247 0.171665
v 0.536894 -0.480624 0.152599
v 0.535381 -0.481601 0.178003
v 0.533759 -0.483018 0.203512
v 0.547485 -0.493582 0.141788
v -0.498323 -0.515682 0.310185
v -0.523396 -0.513499 0.253147
v 0.498312 -0.515682 0.310185
v 0.535705 -0.507661 0.221992
v 0.523385 -0.513499 0.253147
v -0.509887 -0.511003 0.290054
v -0.521451 -0.501399 0.26545
v -0.497243 -0.492583 0.321741
v -0.506753 -0.485412 0.288882
v -0.50859 -0.482756 0.280468
v -0.497459 -0.481609 0.303208
v -0.472926 -0.488579 0.367861
v -0.459634 -0.481816 0.378619
v -0.438776 -0.480432 0.400454
v -0.413055 -0.479113 0.425751
v -0.361937 -0.480671 0.489392
v -0.349401 -0.478979 0.489339
v -0.298607 -0.478968 0.52747
v -0.235061 -0.478946 0.565602
v -0.209664 -0.479371 0.578277
v -0.176486 -0.481311 0.599739
v -0.145686 -0.48114 0.608899
v -0.0571755 -0.479069 0.616408
v 0.0571642 -0.479069 0.616408
v 0.171504 -0.478873 0.591005
v 0.00550599 -0.478572 0.401839
v -0.0124339 -0.478572 0.400401
v -0.0407486 -0.478572 0.396673
v -0.0675503 -0.478572 0.392998
v -0.088192 -0.478572 0.38746
v -0.147523 -0.478572 0.363015
v -0.16449 -0.478572 0.35279
v -0.199073 -0.478572 0.326428
v 0.302162 -0.478572 0.197122
v 0.374894 -0.478953 0.463882
v 0.451085 -0.479048 0.374944
v 0.470321 -0.479589 0.346133
v 0.288869 -0.478572 0.229182
v 0.276009 -0.478572 0.251709
v 0.259582 -0.478572 0.273331
v 0.231375 -0.478572 0.307841
v 0.485127 -0.481601 0.332126
v 0.507282 -0.480039 0.266994
v 0.531274 -0.499394 0.241324
v 0.509984 -0.481732 0.273331
v 0.52252 -0.48401 0.247822
v -0.486976 -0.515682 0.337239
v 0.509551 -0.51185 0.289362
v 0.474104 -0.514614 0.365411
v 0.315671 -0.515682 0.53221
v 0.521007 -0.50768 0.266941
v -0.479951 -0.514596 0.35492
v -0.483734 -0.497105 0.354334
v -0.457688 -0.495245 0.39433
v -0.431535 -0.483617 0.418774
v -0.446449 -0.481848 0.396247
v -0.434669 -0.48142 0.410253
v -0.419863 -0.482644 0.432781
v -0.357398 -0.482124 0.496901
v -0.320978 -0.481507 0.523583
v -0.311252 -0.480533 0.52763
v -0.336756 -0.479196 0.502014
v -0.287692 -0.480522 0.544299
v -0.260458 -0.47973 0.558039
v -0.239708 -0.481485 0.574016
v -0.168381 -0.493004 0.611455
v -0.125044 -0.488888 0.621894
v -0.209664 -0.481554 0.586585
v -0.217121 -0.482607 0.585094
v -0.189995 -0.483378 0.597023
v -0.0889485 -0.482651 0.623172
v -0.0634436 -0.481296 0.624769
v -0.0395598 -0.480057 0.623758
v -0.0189182 -0.480297 0.627539
v 0.0189069 -0.480297 0.627539
v 0.0395485 -0.480057 0.623758
v 0.0634323 -0.481296 0.624769
v 0.145675 -0.481144 0.608899
v 0.176475 -0.481311 0.599739
v 0.209653 -0.479374 0.578277
v 0.23505 -0.478946 0.565602
v 0.298596 -0.478968 0.52747
v 0.203277 -0.478572 0.330955
v 0.175286 -0.478572 0.352417
v 0.152483 -0.478572 0.365198
v 0.114874 -0.478572 0.380749
v 0.0952053 -0.478572 0.388844
v 0.0761847 -0.478572 0.393265
v 0.025175 -0.478572 0.400028
v 0.349389 -0.478979 0.489339
v 0.361926 -0.480671 0.489339
v 0.413044 -0.479113 0.425751
v 0.438765 -0.480432 0.400454
v 0.459622 -0.481819 0.378619
v 0.497231 -0.492583 0.321741
v 0.506742 -0.485415 0.288882
v 0.508579 -0.482756 0.280415
v 0.497447 -0.481612 0.303208
v 0.473347 -0.495336 0.370577
v 0.521872 -0.495038 0.264012
v -0.458877 -0.515682 0.38501
v 0.483722 -0.505369 0.351618
v 0.457461 -0.508519 0.394063
v 0.445789 -0.510048 0.408016
v 0.434009 -0.511334 0.422023
v 0.384513 -0.51436 0.480072
v 0.332638 -0.511073 0.522944
v 0.318697 -0.509743 0.53466
v 0.281196 -0.508595 0.561395
v 0.252557 -0.514981 0.572951
v 0.219812 -0.515682 0.586159
v -0.457472 -0.508526 0.394063
v -0.47163 -0.507854 0.373347
v -0.441694 -0.502085 0.415313
v -0.41781 -0.502085 0.446308
v -0.446017 -0.493516 0.408283
v -0.380633 -0.487319 0.482043
v -0.369502 -0.49437 0.496422
v -0.343457 -0.4828 0.508671
v -0.306929 -0.481964 0.535299
v -0.27937 -0.48806 0.560329
v -0.228361 -0.489313 0.584454
v -0.204045 -0.495024 0.597715
v -0.158871 -0.502085 0.616515
v -0.107969 -0.502085 0.627486
v -0.0265912 -0.494773 0.637178
v 0.00010242 -0.486117 0.634941
v 0.0889372 -0.482651 0.623172
v 0.120602 -0.485833 0.620829
v 0.189984 -0.483385 0.597023
v 0.21711 -0.482615 0.585094
v 0.239697 -0.481485 0.574016
v 0.129356 -0.491958 0.622906
v 0.16837 -0.493004 0.611455
v 0.260555 -0.47973 0.558039
v 0.287681 -0.480522 0.544299
v 0.336745 -0.479196 0.502014
v 0.357387 -0.482124 0.496901
v 0.377812 -0.481859 0.479433
v 0.31124 -0.480533 0.52763
v 0.320967 -0.481507 0.523529
v 0.434658 -0.48142 0.410253
v 0.457677 -0.495253 0.39433
v 0.446438 -0.481852 0.396247
v 0.431524 -0.483621 0.418721
v -0.422457 -0.512435 0.436029
v -0.445801 -0.510052 0.408016
v -0.0891646 -0.515682 0.625196
v -0.253325 -0.514411 0.573111
v -0.32368 -0.511563 0.529441
v 0.446546 -0.502085 0.408922
v 0.41661 -0.502085 0.447905
v 0.401804 -0.510183 0.463616
v 0.391537 -0.496815 0.477463
v 0.365708 -0.505696 0.499351
v 0.306161 -0.499568 0.545471
v 0.279359 -0.48806 0.560329
v 0.261527 -0.492009 0.570981
v 0.23224 -0.502085 0.586105
v 0.230835 -0.51003 0.58552
v 0.162642 -0.512863 0.611828
v 0.0926116 -0.515682 0.624823
v -0.401491 -0.508482 0.464894
v -0.376094 -0.509507 0.489126
v -0.355129 -0.502085 0.507872
v -0.306172 -0.499608 0.545471
v -0.317195 -0.489633 0.533435
v -0.329408 -0.483901 0.520334
v -0.261539 -0.492001 0.570981
v -0.232251 -0.502085 0.586105
v -0.203612 -0.508733 0.597556
v -0.162653 -0.512863 0.611828
v -0.140823 -0.5112 0.619497
v -0.114237 -0.511741 0.62461
v -0.0274558 -0.51064 0.636699
v 0.00010242 -0.508195 0.638936
v 0.0250669 -0.503222 0.637231
v 0.228349 -0.489306 0.584454
v 0.306917 -0.481964 0.535299
v 0.107958 -0.502085 0.627486
v 0.158859 -0.502085 0.616515
v 0.204033 -0.495013 0.597715
v 0.343446 -0.482804 0.508671
v 0.369491 -0.494377 0.496422
v 0.419852 -0.482644 0.432781
v 0.446005 -0.49352 0.408283
v -0.222309 -0.512653 0.587277
v -0.230738 -0.51003 0.58552
v -0.279479 -0.511705 0.561128
v 0.325506 -0.487646 0.525766
v 0.203601 -0.508722 0.597502
v 0.140487 -0.5112 0.619604
v 0.114226 -0.511741 0.62461
f 1 2 3
f 1 3 4
f 1 4 5
f 1 5 6
f 1 6 7
f 1 7 24
f 1 24 23
f 1 23 48
f 1 48 47
f 1 47 46
f 1 46 45
f 1 45 44
f 1 44 89
f 1 89 88
f 1 88 87
f 1 87 86
f 1 86 85
f 1 85 84
f 1 84 83
f 1 83 82
f 1 82 145
f 1 145 144
f 1 144 143
f 1 143 142
f 1 142 141
f 1 141 140
f 1 140 139
f 1 139 97
f 1 97 96
f 1 96 95
f 1 95 94
f 1 94 90
f 1 90 49
f 1 49 25
f 1 25 8
f 1 8 9
f 1 9 2
f 2 10 11
f 2 11 12
f 2 12 3
f 2 9 13
f 2 13 14
f 2 14 10
f 3 12 15
f 3 15 16
f 3 16 17
f 3 17 18
f 3 18 19
f 3 19 4
f 4 19 5
f 5 19 6
f 6 19 20
f 6 20 21
f 6 21 22
f 6 22 23
f 6 23 24
f 6 24 7
f 8 25 26
f 8 26 27
f 8 27 9
f 9 27 28
f 9 28 29
f 9 29 13
f 10 30 11
f 10 14 30
f 11 30 31
f 11 31 12
f 12 31 15
f 13 29 32
f 13 32 33
f 13 33 14
f 14 33 34
f 14 34 30
f 15 31 35
f 15 35 16
f 16 35 36
f 16 36 37
f 16 37 38
f 16 38 17
f 17 38 20
f 17 20 18
f 18 20 19
f 20 38 21
f 21 38 39
f 21 39 40
f 21 40 22
f 22 40 41
f 22 41 42
f 22 42 43
f 22 43 44
f 22 44 45
f 22 45 46
f 22 46 47
f 22 47 48
f 22 48 23
f 25 49 26
f 26 50 51
f 26 51 52
f 26 52 28
f 26 28 27
f 26 49 50
f 28 53 29
f 28 52 53
f 29 53 54
f 29 54 55
f 29 55 56
f 29 56 32
f 30 57 58
f 30 58 31
f 30 34 59
f 30 59 106
f 30 106 167
f 30 167 218
f 30 218 204
f 30 204 157
f 30 157 103
f 30 103 57
f 31 58 35
f 32 56 60
f 32 60 33
f 33 60 34
f 34 60 61
f 34 61 59
f 35 58 62
f 35 62 63
f 35 63 64
f 35 64 36
f 36 64 65
f 36 65 66
f 36 66 37
f 37 66 67
f 37 67 38
f 38 67 39
f 39 67 66
f 39 66 65
f 39 65 64
f 39 64 68
f 39 68 69
f 39 69 40
f 40 69 41
f 41 69 70
f 41 70 71
f 41 71 42
f 42 71 72
f 42 72 73
f 42 73 74
f 42 74 43
f 43 74 75
f 43 75 76
f 43 76 77
f 43 77 78
f 43 78 79
f 43 79 80
f 43 80 81
f 43 81 82
f 43 82 83
f 43 83 84
f 43 84 85
f 43 85 86
f 43 86 87
f 43 87 88
f 43 88 89
f 43 89 44
f 49 90 50
f 50 91 92
f 50 92 93
f 50 93 51
f 50 90 94
f 50 94 95
f 50 95 96
f 50 96 97
f 50 97 81
f 50 81 91
f 51 98 99
f 51 99 52
f 51 93 98
f 52 54 53
f 52 99 54
f 54 99 55
f 55 100 56
f 55 99 101
f 55 101 102
f 55 102 100
f 56 100 60
f 57 103 62
f 57 62 58
f 59 61 104
f 59 104 105
f 59 105 106
f 60 100 107
f 60 107 61
f 61 107 104
f 62 103 108
f 62 108 109
f 62 109 63
f 63 109 64
f 64 109 68
f 68 109 110
f 68 110 111
f 68 111 69
f 69 111 112
f 69 112 113
f 69 113 70
f 70 113 71
f 71 113 114
f 71 114 72
f 72 114 115
f 72 115 116
f 72 116 117
f 72 117 118
f 72 118 73
f 73 118 74
f 74 118 119
f 74 119 120
f 74 120 75
f 75 120 76
f 76 120 121
f 76 121 77
f 77 122 123
f 77 123 78
f 77 121 124
f 77 124 125
f 77 125 126
f 77 126 122
f 78 123 127
f 78 127 128
f 78 128 79
f 79 128 129
f 79 129 130
f 79 130 131
f 79 131 80
f 80 131 132
f 80 132 133
f 80 133 134
f 80 134 81
f 81 135 136
f 81 136 137
f 81 137 138
f 81 138 91
f 81 97 139
f 81 139 140
f 81 140 141
f 81 141 142
f 81 142 143
f 81 143 144
f 81 144 145
f 81 145 82
f 81 134 135
f 91 146 147
f 91 147 148
f 91 148 92
f 91 138 146
f 92 149 150
f 92 150 93
f 92 148 149
f 93 150 98
f 98 151 152
f 98 152 153
f 98 153 154
f 98 154 99
f 98 150 155
f 98 155 151
f 99 154 101
f 100 102 156
f 100 156 107
f 101 154 153
f 101 153 102
f 102 153 152
f 102 152 156
f 103 157 108
f 104 107 158
f 104 158 105
f 105 158 159
f 105 159 160
f 105 160 161
f 105 161 162
f 105 162 106
f 106 163 164
f 106 164 165
f 106 165 166
f 106 166 167
f 106 162 163
f 107 156 151
f 107 151 158
f 108 157 168
f 108 168 169
f 108 169 109
f 109 169 110
f 110 169 168
f 110 168 170
f 110 170 171
f 110 171 172
f 110 172 111
f 111 114 112
f 111 172 114
f 112 114 113
f 114 173 115
f 114 172 173
f 115 173 174
f 115 174 175
f 115 175 176
f 115 176 116
f 116 176 117
f 117 176 119
f 117 119 118
f 119 121 120
f 119 176 121
f 121 176 177
f 121 177 125
f 121 125 124
f 122 126 178
f 122 178 179
f 122 179 180
f 122 180 123
f 123 181 182
f 123 182 127
f 123 180 181
f 125 177 178
f 125 178 126
f 127 182 183
f 127 183 128
f 128 130 129
f 128 183 130
f 130 183 131
f 131 183 133
f 131 133 132
f 133 184 134
f 133 183 184
f 134 185 135
f 134 184 185
f 135 186 187
f 135 187 188
f 135 188 136
f 135 185 189
f 135 189 190
f 135 190 186
f 136 188 191
f 136 191 137
f 137 191 138
f 138 191 192
f 138 192 193
f 138 193 146
f 146 193 147
f 147 194 195
f 147 195 148
f 147 193 196
f 147 196 197
f 147 197 194
f 148 195 198
f 148 198 149
f 149 198 150
f 150 199 155
f 150 198 200
f 150 200 201
f 150 201 199
f 151 156 152
f 151 155 158
f 155 199 159
f 155 159 158
f 157 202 203
f 157 203 168
f 157 204 205
f 157 205 206
f 157 206 202
f 159 199 207
f 159 207 208
f 159 208 209
f 159 209 160
f 160 209 161
f 161 209 162
f 162 209 210
f 162 210 211
f 162 211 163
f 163 211 164
f 164 211 212
f 164 212 165
f 165 213 214
f 165 214 215
f 165 215 216
f 165 216 166
f 165 212 213
f 166 216 167
f 167 216 217
f 167 217 218
f 168 203 219
f 168 219 171
f 168 171 170
f 171 219 174
f 171 174 173
f 171 173 172
f 174 219 220
f 174 220 221
f 174 221 222
f 174 222 223
f 174 223 224
f 174 224 175
f 175 224 176
f 176 224 177
f 177 225 178
f 177 224 223
f 177 223 222
f 177 222 225
f 178 225 179
f 179 225 226
f 179 226 180
f 180 226 227
f 180 227 228
f 180 228 229
f 180 229 181
f 181 229 230
f 181 230 231
f 181 231 182
f 182 231 232
f 182 232 183
f 183 232 233
f 183 233 189
f 183 189 184
f 184 189 185
f 186 190 234
f 186 234 187
f 187 234 213
f 187 213 188
f 188 213 235
f 188 235 192
f 188 192 191
f 189 236 237
f 189 237 190
f 189 233 236
f 190 237 238
f 190 238 234
f 192 235 196
f 192 196 193
f 194 197 235
f 194 235 239
f 194 239 240
f 194 240 195
f 195 240 210
f 195 210 241
f 195 241 198
f 196 235 197
f 198 241 200
f 199 201 242
f 199 242 210
f 199 210 208
f 199 208 207
f 200 241 201
f 201 241 242
f 202 220 219
f 202 219 203
f 202 206 220
f 204 231 230
f 204 230 229
f 204 229 228
f 204 228 205
f 204 218 231
f 205 228 243
f 205 243 244
f 205 244 245
f 205 245 206
f 206 245 222
f 206 222 221
f 206 221 220
f 208 210 209
f 210 240 211
f 210 242 241
f 211 240 212
f 212 240 213
f 213 234 214
f 213 240 246
f 213 246 235
f 214 234 238
f 214 238 215
f 215 237 247
f 215 247 216
f 215 238 237
f 216 247 217
f 217 247 237
f 217 237 248
f 217 248 218
f 218 248 249
f 218 249 232
f 218 232 231
f 222 245 225
f 225 245 226
f 226 245 244
f 226 244 227
f 227 244 228
f 228 244 243
f 232 249 233
f 233 249 236
f 235 246 239
f 236 249 248
f 236 248 237
f 239 246 240
