v -0.00447889 0.404512 0.623959
v -0.431132 0.405382 0.0476438
v -0.00644063 0.404512 0.624184
v -0.00447889 0.37894 0.59807
v -0.00447889 0.405382 -0.36163
v -0.577086 0.405382 0.0476438
v -0.0578385 0.404512 0.626548
v -0.0450591 0.404512 0.626435
v -0.0321676 0.404512 0.62621
v -0.0193321 0.404512 0.62531
v -0.00644063 0.378922 0.59807
v -0.00447889 0.378922 0.596607
v -0.00447889 0.405382 -0.523381
v -0.577086 0.405382 0.0449423
v -0.552816 0.378919 0.0476438
v -0.55276 0.378922 0.0706064
v -0.575629 0.404512 0.0834384
v -0.575068 0.404512 0.0958201
v -0.573835 0.404512 0.109215
v -0.572322 0.404512 0.122047
v -0.570528 0.404512 0.136567
v -0.568959 0.404512 0.147711
v -0.566773 0.404512 0.16043
v -0.564083 0.404512 0.173938
v -0.56156 0.404512 0.18632
v -0.55887 0.404512 0.199152
v -0.556011 0.404512 0.211984
v -0.552929 0.404512 0.224703
v -0.54979 0.404512 0.237085
v -0.545474 0.404512 0.250592
v -0.539757 0.404512 0.263649
v -0.533984 0.404512 0.275468
v -0.533591 0.404512 0.276256
v -0.526865 0.404512 0.289313
v -0.517505 0.404512 0.306873
v -0.512853 0.404512 0.315428
v -0.505734 0.404512 0.327922
v -0.498336 0.404512 0.340754
v -0.490489 0.404512 0.353023
v -0.481577 0.404512 0.365968
v -0.453832 0.404512 0.405139
v -0.445256 0.404512 0.417183
v -0.442622 0.404512 0.42056
v -0.434495 0.404512 0.429903
v -0.429955 0.404512 0.43463
v -0.42194 0.404512 0.442847
v -0.391448 0.404512 0.473352
v -0.378613 0.404512 0.486071
v -0.365385 0.404512 0.498115
v -0.353334 0.404512 0.507795
v -0.341564 0.404512 0.51635
v -0.327551 0.404512 0.52603
v -0.317014 0.404512 0.533234
v -0.302217 0.404512 0.54269
v -0.297004 0.404512 0.545729
v -0.288372 0.404512 0.550231
v -0.276322 0.404512 0.556422
v -0.237031 0.404512 0.576008
v -0.224924 0.404512 0.581636
v -0.212088 0.404512 0.586926
v -0.184904 0.404512 0.597282
v -0.167416 0.404512 0.60381
v -0.1492 0.404512 0.610452
v -0.14679 0.404512 0.611239
v -0.134963 0.404512 0.614504
v -0.130255 0.404512 0.615742
v -0.112039 0.404512 0.62047
v -0.101558 0.404512 0.623058
v -0.096457 0.404512 0.624297
v -0.0835655 0.404512 0.626098
v -0.07073 0.404512 0.626435
v -0.0322797 0.378922 0.598182
v -0.0193321 0.378922 0.598182
v -0.00447889 0.378919 0.0476438
v -0.00447889 0.378919 -0.496591
v -0.061706 0.405382 -0.523381
v -0.57703 0.405382 -0.0130269
v -0.552816 0.378919 0.0192783
v -0.0451712 0.378922 0.59807
v -0.0580067 0.378922 0.59762
v -0.0708982 0.378922 0.596381
v -0.0835655 0.378922 0.594468
v -0.0957284 0.378922 0.592217
v -0.108564 0.378922 0.589515
v -0.134963 0.378922 0.583774
v -0.148415 0.378922 0.580398
v -0.186978 0.378922 0.567678
v -0.212088 0.378922 0.559011
v -0.225316 0.378922 0.554283
v -0.236862 0.378922 0.549106
v -0.251043 0.378922 0.542127
v -0.261749 0.378922 0.536836
v -0.276546 0.378922 0.529182
v -0.277779 0.378922 0.528507
v -0.286635 0.378922 0.523554
v -0.288148 0.378922 0.522654
v -0.298854 0.378922 0.516012
v -0.315781 0.378922 0.505206
v -0.326823 0.378922 0.498115
v -0.337528 0.378922 0.490686
v -0.343918 0.378922 0.485958
v -0.352101 0.378922 0.479655
v -0.358491 0.378922 0.474252
v -0.368636 0.378922 0.465135
v -0.375698 0.378922 0.458381
v -0.401593 0.378922 0.432492
v -0.414093 0.378922 0.419772
v -0.419922 0.378922 0.413581
v -0.425807 0.378922 0.407053
v -0.427657 0.378922 0.404914
v -0.435055 0.378922 0.395797
v -0.439876 0.378922 0.389493
v -0.466668 0.378922 0.354036
v -0.473674 0.378922 0.344356
v -0.477822 0.378922 0.337828
v -0.483987 0.378922 0.326459
v -0.488975 0.378922 0.316553
v -0.502876 0.378922 0.288526
v -0.508481 0.378922 0.276256
v -0.512629 0.378922 0.266013
v -0.514983 0.378922 0.25971
v -0.517953 0.378922 0.250592
v -0.528827 0.378922 0.212884
v -0.540261 0.378922 0.169323
v -0.542055 0.378922 0.160543
v -0.544241 0.378922 0.147598
v -0.546034 0.378922 0.134879
v -0.551079 0.378922 0.0961578
v -0.552312 0.378922 0.0834384
v -0.0450031 0.378919 -0.496591
v -0.0744293 0.405382 -0.523268
v -0.576918 0.405382 -0.0266468
v -0.55276 0.378919 0.0120743
v -0.0578385 0.378919 -0.496254
v -0.0866482 0.405382 -0.522706
v -0.576638 0.405382 -0.0383532
v -0.552648 0.378919 0.00644627
v -0.070674 0.378919 -0.495128
v -0.096401 0.405382 -0.521805
v -0.576189 0.405382 -0.0449944
v -0.552368 0.378919 0.00115588
v -0.110077 0.378919 -0.48995
v -0.0981946 0.405382 -0.52158
v -0.546987 0.378919 -0.0451069
v -0.550462 0.378919 -0.0183173
v -0.551695 0.378919 -0.00784905
v -0.551808 0.378919 -0.00638575
v -0.574508 0.405382 -0.0578264
v -0.110918 0.378919 -0.489838
v -0.109012 0.405382 -0.520117
v -0.545138 0.378919 -0.0579389
v -0.571761 0.405382 -0.0704333
v -0.54284 0.378919 -0.070771
v -0.134795 0.378919 -0.485785
v -0.119606 0.405382 -0.518203
v -0.571705 0.405382 -0.0706584
v -0.540373 0.378919 -0.0816894
v -0.147687 0.378919 -0.482859
v -0.134739 0.405382 -0.515051
v -0.122072 0.405382 -0.517753
v -0.566437 0.405382 -0.0912572
v -0.530172 0.378919 -0.121986
v -0.539925 0.378919 -0.0834904
v -0.160522 0.378919 -0.479144
v -0.171228 0.405382 -0.505821
v -0.160634 0.405382 -0.508748
v -0.147799 0.405382 -0.5119
v -0.565091 0.405382 -0.096435
v -0.561784 0.405382 -0.109154
v -0.527594 0.378919 -0.131217
v -0.169378 0.378919 -0.476218
v -0.192303 0.405382 -0.49918
v -0.180532 0.405382 -0.503007
v -0.17347 0.405382 -0.505146
v -0.558926 0.405382 -0.11861
v -0.525576 0.378919 -0.13752
v -0.557861 0.405382 -0.121986
v -0.212032 0.405382 -0.492652
v -0.199085 0.378919 -0.4662
v -0.555507 0.405382 -0.12919
v -0.551471 0.405382 -0.141347
v -0.517897 0.378919 -0.160595
v -0.224195 0.405382 -0.488487
v -0.239329 0.378919 -0.452355
v -0.542671 0.405382 -0.167686
v -0.540766 0.405382 -0.173202
v -0.514815 0.378919 -0.169262
v -0.237759 0.405382 -0.483309
v -0.244934 0.378919 -0.450103
v -0.538019 0.405382 -0.180744
v -0.535945 0.405382 -0.186259
v -0.512236 0.378919 -0.175791
v -0.250931 0.405382 -0.477231
v -0.250931 0.378919 -0.447289
v -0.535049 0.405382 -0.188398
v -0.507528 0.378919 -0.186259
v -0.26343 0.405382 -0.471152
v -0.264999 0.378919 -0.440311
v -0.267578 0.405382 -0.469126
v -0.53006 0.405382 -0.199316
v -0.502764 0.378919 -0.196052
v -0.276153 0.378919 -0.433444
v -0.307878 0.405382 -0.447627
v -0.297901 0.405382 -0.45348
v -0.292912 0.405382 -0.456294
v -0.289213 0.405382 -0.45832
v -0.283384 0.405382 -0.461247
v -0.526585 0.405382 -0.206295
v -0.494861 0.378919 -0.212036
v -0.303954 0.378919 -0.415322
v -0.31494 0.405382 -0.443237
v -0.513694 0.405382 -0.231959
v -0.50736 0.405382 -0.244566
v -0.489984 0.378919 -0.221266
v -0.340891 0.405382 -0.425903
v -0.342012 0.378919 -0.389433
v -0.505678 0.405382 -0.247718
v -0.486061 0.378919 -0.227794
v -0.352942 0.405382 -0.417235
v -0.352942 0.378919 -0.381553
v -0.503829 0.405382 -0.250757
v -0.479335 0.378919 -0.2386
v -0.369028 0.405382 -0.404741
v -0.36191 0.378919 -0.374349
v -0.396437 0.405382 -0.383017
v -0.388254 0.405382 -0.389545
v -0.472216 0.378919 -0.249856
v -0.470983 0.405382 -0.30186
v -0.405517 0.405382 -0.3757
v -0.403163 0.405382 -0.377614
v -0.3683 0.378919 -0.369059
v -0.46095 0.378919 -0.267303
v -0.470143 0.405382 -0.303098
v -0.454393 0.378919 -0.277209
v -0.410169 0.405382 -0.371423
v -0.3822 0.378919 -0.357015
v -0.389487 0.378919 -0.350599
v -0.446658 0.378919 -0.288465
v -0.46891 0.405382 -0.304786
v -0.418464 0.405382 -0.363544
v -0.395876 0.378919 -0.344633
v -0.439147 0.378919 -0.298596
v -0.461959 0.405382 -0.314016
v -0.429338 0.405382 -0.352175
v -0.402322 0.378919 -0.338217
v -0.41527 0.378919 -0.325273
v -0.421659 0.378919 -0.318857
v -0.427825 0.378919 -0.312441
v -0.434215 0.378919 -0.305012
v -0.455906 0.405382 -0.321558
v -0.431132 0.405382 -0.350261
v -0.441557 0.405382 -0.338555
v -0.435336 0.405382 -0.345646
v -0.443575 0.405382 -0.336191
f 1 2 3
f 1 3 4
f 1 4 12
f 1 12 74
f 1 74 75
f 1 75 13
f 1 13 5
f 1 5 2
f 2 6 7
f 2 7 8
f 2 8 9
f 2 9 10
f 2 10 3
f 2 5 13
f 2 13 76
f 2 76 131
f 2 131 135
f 2 135 139
f 2 139 143
f 2 143 150
f 2 150 155
f 2 155 160
f 2 160 159
f 2 159 167
f 2 167 166
f 2 166 165
f 2 165 174
f 2 174 173
f 2 173 172
f 2 172 178
f 2 178 183
f 2 183 188
f 2 188 193
f 2 193 197
f 2 197 199
f 2 199 207
f 2 207 206
f 2 206 205
f 2 205 204
f 2 204 203
f 2 203 211
f 2 211 215
f 2 215 219
f 2 219 223
f 2 223 226
f 2 226 225
f 2 225 230
f 2 230 229
f 2 229 235
f 2 235 240
f 2 240 244
f 2 244 251
f 2 251 253
f 2 253 252
f 2 252 254
f 2 254 250
f 2 250 243
f 2 243 239
f 2 239 233
f 2 233 228
f 2 228 221
f 2 221 217
f 2 217 213
f 2 213 212
f 2 212 208
f 2 208 200
f 2 200 195
f 2 195 191
f 2 191 190
f 2 190 186
f 2 186 185
f 2 185 181
f 2 181 180
f 2 180 177
f 2 177 175
f 2 175 169
f 2 169 168
f 2 168 161
f 2 161 156
f 2 156 152
f 2 152 148
f 2 148 140
f 2 140 136
f 2 136 132
f 2 132 77
f 2 77 14
f 2 14 6
f 3 10 4
f 4 11 12
f 4 10 9
f 4 9 8
f 4 8 11
f 6 14 78
f 6 78 15
f 6 15 16
f 6 16 17
f 6 17 18
f 6 18 19
f 6 19 20
f 6 20 21
f 6 21 22
f 6 22 23
f 6 23 24
f 6 24 25
f 6 25 26
f 6 26 27
f 6 27 28
f 6 28 29
f 6 29 30
f 6 30 31
f 6 31 32
f 6 32 33
f 6 33 34
f 6 34 35
f 6 35 36
f 6 36 37
f 6 37 38
f 6 38 39
f 6 39 40
f 6 40 41
f 6 41 42
f 6 42 43
f 6 43 44
f 6 44 45
f 6 45 46
f 6 46 47
f 6 47 48
f 6 48 49
f 6 49 50
f 6 50 51
f 6 51 52
f 6 52 53
f 6 53 54
f 6 54 55
f 6 55 56
f 6 56 57
f 6 57 58
f 6 58 59
f 6 59 60
f 6 60 61
f 6 61 62
f 6 62 63
f 6 63 64
f 6 64 65
f 6 65 66
f 6 66 67
f 6 67 68
f 6 68 69
f 6 69 70
f 6 70 71
f 6 71 7
f 7 71 79
f 7 79 72
f 7 72 73
f 7 73 11
f 7 11 8
f 11 73 74
f 11 74 12
f 13 75 130
f 13 130 76
f 14 77 78
f 15 74 73
f 15 73 72
f 15 72 79
f 15 79 80
f 15 80 81
f 15 81 82
f 15 82 83
f 15 83 84
f 15 84 85
f 15 85 86
f 15 86 87
f 15 87 88
f 15 88 89
f 15 89 90
f 15 90 91
f 15 91 92
f 15 92 93
f 15 93 94
f 15 94 95
f 15 95 96
f 15 96 97
f 15 97 98
f 15 98 99
f 15 99 100
f 15 100 101
f 15 101 102
f 15 102 103
f 15 103 104
f 15 104 105
f 15 105 106
f 15 106 107
f 15 107 108
f 15 108 109
f 15 109 110
f 15 110 111
f 15 111 112
f 15 112 113
f 15 113 114
f 15 114 115
f 15 115 116
f 15 116 117
f 15 117 118
f 15 118 119
f 15 119 120
f 15 120 121
f 15 121 122
f 15 122 123
f 15 123 124
f 15 124 125
f 15 125 126
f 15 126 127
f 15 127 128
f 15 128 129
f 15 129 16
f 15 78 133
f 15 133 137
f 15 137 141
f 15 141 147
f 15 147 146
f 15 146 145
f 15 145 144
f 15 144 151
f 15 151 153
f 15 153 157
f 15 157 163
f 15 163 162
f 15 162 170
f 15 170 176
f 15 176 182
f 15 182 187
f 15 187 192
f 15 192 196
f 15 196 201
f 15 201 209
f 15 209 214
f 15 214 218
f 15 218 222
f 15 222 227
f 15 227 232
f 15 232 234
f 15 234 238
f 15 238 242
f 15 242 249
f 15 249 248
f 15 248 247
f 15 247 246
f 15 246 245
f 15 245 241
f 15 241 237
f 15 237 236
f 15 236 231
f 15 231 224
f 15 224 220
f 15 220 216
f 15 216 210
f 15 210 202
f 15 202 198
f 15 198 194
f 15 194 189
f 15 189 184
f 15 184 179
f 15 179 171
f 15 171 164
f 15 164 158
f 15 158 154
f 15 154 149
f 15 149 142
f 15 142 138
f 15 138 134
f 15 134 130
f 15 130 75
f 15 75 74
f 16 129 17
f 17 129 18
f 18 129 19
f 19 129 128
f 19 128 20
f 20 128 21
f 21 128 127
f 21 127 22
f 22 126 125
f 22 125 23
f 22 127 126
f 23 125 24
f 24 125 25
f 25 124 26
f 25 125 124
f 26 124 27
f 27 124 28
f 28 124 29
f 29 124 123
f 29 123 122
f 29 122 30
f 30 122 121
f 30 121 120
f 30 120 119
f 30 119 31
f 31 119 118
f 31 118 32
f 32 118 117
f 32 117 33
f 33 117 116
f 33 116 34
f 34 116 35
f 35 116 115
f 35 115 36
f 36 115 37
f 37 115 38
f 38 115 114
f 38 114 39
f 39 114 40
f 40 114 41
f 41 114 42
f 42 114 113
f 42 113 112
f 42 112 111
f 42 111 43
f 43 111 110
f 43 110 109
f 43 109 44
f 44 109 108
f 44 108 107
f 44 107 45
f 45 107 46
f 46 107 106
f 46 106 47
f 47 105 48
f 47 106 105
f 48 105 104
f 48 104 49
f 49 104 103
f 49 103 102
f 49 102 50
f 50 102 101
f 50 101 100
f 50 100 51
f 51 100 99
f 51 99 52
f 52 99 53
f 53 99 98
f 53 98 54
f 54 98 97
f 54 97 96
f 54 96 95
f 54 95 55
f 55 95 94
f 55 94 93
f 55 93 56
f 56 93 92
f 56 92 57
f 57 92 58
f 58 92 91
f 58 91 90
f 58 90 59
f 59 90 89
f 59 89 60
f 60 89 61
f 61 89 62
f 62 89 63
f 63 89 88
f 63 88 87
f 63 87 86
f 63 86 64
f 64 86 65
f 65 86 66
f 66 86 67
f 67 86 85
f 67 85 68
f 68 85 69
f 69 85 84
f 69 84 83
f 69 83 82
f 69 82 81
f 69 81 70
f 70 81 80
f 70 80 79
f 70 79 71
f 76 130 131
f 77 132 133
f 77 133 78
f 130 134 131
f 131 134 135
f 132 136 137
f 132 137 133
f 134 138 135
f 135 138 139
f 136 140 141
f 136 141 137
f 138 142 143
f 138 143 139
f 140 144 145
f 140 145 146
f 140 146 147
f 140 147 141
f 140 148 144
f 142 149 143
f 143 149 150
f 144 148 151
f 148 152 153
f 148 153 151
f 149 154 150
f 150 154 155
f 152 156 163
f 152 163 157
f 152 157 153
f 154 158 159
f 154 159 160
f 154 160 155
f 156 161 162
f 156 162 163
f 158 164 165
f 158 165 166
f 158 166 167
f 158 167 159
f 161 168 162
f 162 168 169
f 162 169 170
f 164 171 172
f 164 172 173
f 164 173 174
f 164 174 165
f 169 175 170
f 170 175 177
f 170 177 176
f 171 178 172
f 171 179 178
f 176 177 180
f 176 180 181
f 176 181 182
f 178 179 183
f 179 184 183
f 181 185 182
f 182 185 186
f 182 186 187
f 183 184 188
f 184 189 188
f 186 190 187
f 187 190 191
f 187 191 192
f 188 189 193
f 189 194 193
f 191 195 192
f 192 195 196
f 193 194 197
f 194 198 199
f 194 199 197
f 195 200 196
f 196 200 201
f 198 202 203
f 198 203 204
f 198 204 205
f 198 205 206
f 198 206 207
f 198 207 199
f 200 208 209
f 200 209 201
f 202 210 211
f 202 211 203
f 208 212 209
f 209 212 213
f 209 213 214
f 210 215 211
f 210 216 215
f 213 217 214
f 214 217 218
f 215 216 219
f 216 220 219
f 217 221 218
f 218 221 222
f 219 220 223
f 220 224 230
f 220 230 225
f 220 225 226
f 220 226 223
f 221 227 222
f 221 228 227
f 224 229 230
f 224 231 229
f 227 228 232
f 228 233 234
f 228 234 232
f 229 231 236
f 229 236 237
f 229 237 235
f 233 238 234
f 233 239 238
f 235 237 241
f 235 241 240
f 238 239 242
f 239 243 242
f 240 241 245
f 240 245 246
f 240 246 247
f 240 247 248
f 240 248 244
f 242 243 249
f 243 250 249
f 244 248 251
f 248 249 252
f 248 252 253
f 248 253 251
f 249 250 254
f 249 254 252
