v -0.498825 0.443288 0.380477
v -0.491567 0.451936 0.384182
v -0.481793 0.457728 0.380477
v -0.498244 0.430204 0.380477
v -0.487648 0.432491 0.397515
v -0.462875 0.433366 0.434905
v -0.486632 0.4456 0.396393
v -0.474874 0.448968 0.410613
v -0.438925 0.451436 0.452151
v -0.384443 0.46334 0.497081
v -0.468923 0.458909 0.380477
v -0.412507 0.462902 0.45964
v -0.4247 0.462715 0.436992
v -0.49147 0.421625 0.384287
v -0.474294 0.428761 0.41604
v -0.481455 0.411559 0.380477
v -0.461375 0.44785 0.429034
v -0.459924 0.419957 0.428225
v -0.452472 0.431816 0.446046
v -0.411636 0.438789 0.488836
v -0.435247 0.446569 0.460683
v -0.449279 0.448587 0.442784
v -0.424796 0.449462 0.46992
v -0.401862 0.453111 0.491941
v -0.375492 0.456135 0.516702
v -0.368138 0.464483 0.513023
v -0.40433 0.46359 0.468041
v -0.456101 0.458784 0.380477
v -0.366154 0.46767 0.494707
v -0.473229 0.412602 0.395219
v -0.477874 0.421619 0.404769
v -0.471197 0.404748 0.380477
v -0.460407 0.412571 0.413849
v -0.441392 0.410703 0.4348
v -0.447876 0.419357 0.44161
v -0.426974 0.421494 0.465589
v -0.40433 0.431248 0.494342
v -0.436457 0.431854 0.462223
v -0.370799 0.433122 0.528261
v -0.371622 0.447156 0.526017
v -0.384782 0.447362 0.513336
v -0.412361 0.449962 0.483253
v -0.38904 0.453679 0.504752
v -0.361945 0.458647 0.526304
v -0.352219 0.46477 0.525391
v -0.353332 0.468351 0.507544
v -0.443231 0.458153 0.380477
v -0.353332 0.467476 0.494707
v -0.46002 0.407666 0.403412
v -0.432248 0.404523 0.4324
v -0.447731 0.407291 0.420085
v -0.3498 0.440495 0.380477
v -0.271078 0.404523 0.381182
v -0.429683 0.410728 0.446829
v -0.416716 0.411709 0.461727
v -0.395282 0.412927 0.485314
v -0.435102 0.419344 0.454447
v -0.362719 0.421525 0.529774
v -0.354977 0.4238 0.538098
v -0.316899 0.430454 0.566668
v -0.357203 0.442945 0.539663
v -0.347913 0.458003 0.537784
v -0.340172 0.464677 0.533584
v -0.340462 0.467876 0.520381
v -0.327592 0.467963 0.520381
v -0.340462 0.468107 0.507544
v -0.430409 0.457485 0.380477
v -0.327592 0.46747 0.507544
v -0.301899 0.466195 0.507544
v -0.191921 0.462609 0.526435
v -0.365428 0.404523 0.498177
v -0.400217 0.40656 0.468589
v -0.364267 0.446581 0.380477
v -0.0045273 0.404523 0.456848
v -0.382508 0.410728 0.494003
v -0.371622 0.411721 0.506683
v -0.350042 0.411878 0.525547
v -0.341671 0.412965 0.533688
v -0.327592 0.421106 0.556127
v -0.339833 0.424318 0.54903
v -0.300496 0.424668 0.574365
v -0.289077 0.42215 0.580262
v -0.271417 0.430454 0.59182
v -0.298561 0.44027 0.576218
v -0.336059 0.445963 0.552109
v -0.309399 0.450568 0.565964
v -0.259031 0.450605 0.592055
v -0.308431 0.462584 0.552526
v -0.329624 0.464783 0.53721
v -0.31477 0.46672 0.533192
v -0.301899 0.466757 0.533192
v -0.289077 0.466564 0.533192
v -0.276207 0.466251 0.533192
v -0.31477 0.467613 0.520381
v -0.301899 0.467114 0.520381
v -0.289077 0.466576 0.520381
v -0.417539 0.456735 0.380477
v -0.0964097 0.458172 0.533192
v -0.0707175 0.456735 0.533192
v -0.179389 0.462584 0.539246
v -0.019333 0.456423 0.558893
v -0.00554338 0.455766 0.558893
v -0.0450253 0.456804 0.546082
v -0.0322033 0.456148 0.546082
v -0.341575 0.404523 0.516363
v -0.355219 0.407241 0.512215
v -0.380621 0.451549 0.380477
v -0.0450253 0.4481 0.516937
v -0.023107 0.449056 0.528052
v -0.00554338 0.448675 0.535045
v -0.00554338 0.453336 0.546029
v -0.0045273 0.446919 0.641734
v -0.0045273 0.419219 0.641317
v -0.00554338 0.407204 0.628036
v -0.019333 0.404523 0.625427
v -0.360058 0.449612 0.38567
v -0.269724 0.449731 0.42405
v -0.338236 0.409784 0.529696
v -0.315205 0.411009 0.547699
v -0.327156 0.412302 0.542116
v -0.313221 0.419688 0.563146
v -0.287965 0.415458 0.570582
v -0.27553 0.420588 0.58475
v -0.249886 0.420582 0.597561
v -0.224048 0.420775 0.61045
v -0.241612 0.424562 0.605258
v -0.219645 0.438515 0.617338
v -0.245386 0.438571 0.604475
v -0.270449 0.443957 0.589707
v -0.287723 0.447644 0.578957
v -0.237403 0.448737 0.603614
v -0.199179 0.453342 0.61032
v -0.186357 0.454835 0.61032
v -0.173486 0.456054 0.61032
v -0.266337 0.462334 0.56432
v -0.289077 0.463283 0.554927
v -0.254144 0.462677 0.565833
v -0.237741 0.46284 0.566825
v -0.276207 0.465389 0.546082
v -0.199179 0.46284 0.567555
v -0.184615 0.462758 0.562493
v -0.263385 0.465808 0.533192
v -0.224871 0.464339 0.546082
v -0.250563 0.465302 0.533192
v -0.404717 0.455535 0.380477
v -0.0578956 0.455879 0.533192
v -0.019333 0.455073 0.546082
v -0.0450253 0.457472 0.558893
v -0.0322033 0.456966 0.558893
v -0.00554338 0.45596 0.571756
v -0.327543 0.404523 0.526174
v -0.019333 0.451749 0.53528
v -0.0450253 0.451361 0.523356
v -0.0354451 0.450399 0.525443
v -0.0964097 0.450493 0.499612
v -0.0540248 0.449156 0.515032
v -0.143972 0.449112 0.476573
v -0.0045273 0.431373 0.6469
v -0.00554338 0.45596 0.61032
v -0.00554338 0.45546 0.623183
v -0.019333 0.45571 0.623183
v -0.0322033 0.455823 0.623183
v -0.0450253 0.455829 0.623183
v -0.0964097 0.455829 0.623183
v -0.0964097 0.446613 0.641995
v -0.019333 0.421525 0.643874
v -0.0322033 0.414858 0.639647
v -0.019333 0.412059 0.635811
v -0.0322033 0.406566 0.629732
v -0.0450253 0.40651 0.629967
v -0.0707175 0.40651 0.629967
v -0.0989741 0.404523 0.623757
v -0.179728 0.449762 0.462536
v -0.315786 0.404523 0.534106
v -0.299528 0.40491 0.54509
v -0.303496 0.412215 0.556988
v -0.291497 0.412246 0.563354
v -0.276207 0.413683 0.573556
v -0.250563 0.413677 0.586419
v -0.213936 0.425687 0.618408
v -0.231596 0.413852 0.595865
v -0.212049 0.417389 0.61032
v -0.173486 0.416883 0.623183
v -0.142907 0.421769 0.639777
v -0.177599 0.42483 0.630567
v -0.136714 0.435447 0.643352
v -0.177889 0.441739 0.630123
v -0.209146 0.447387 0.616712
v -0.162842 0.450343 0.628271
v -0.173486 0.451949 0.621643
v -0.147794 0.453923 0.623183
v -0.134972 0.454835 0.623183
v -0.160665 0.456841 0.61032
v -0.147794 0.457272 0.61032
v -0.134972 0.457479 0.61032
v -0.160665 0.459097 0.597456
v -0.212049 0.46244 0.570791
v -0.237741 0.463889 0.558893
v -0.250563 0.463827 0.558893
v -0.160665 0.460715 0.584593
v -0.122102 0.459109 0.597456
v -0.0835878 0.457504 0.61032
v -0.0707175 0.457479 0.61032
v -0.0578956 0.457329 0.61032
v -0.0450253 0.457085 0.61032
v -0.0322033 0.456835 0.61032
v -0.019333 0.456473 0.61032
v -0.0578956 0.45796 0.597456
v -0.212049 0.463852 0.546082
v -0.160665 0.46189 0.546082
v -0.0964097 0.459434 0.584593
v -0.019333 0.456491 0.571756
v -0.019333 0.430454 0.647031
v -0.0835878 0.430454 0.647031
v -0.019333 0.456491 0.597456
v -0.0450253 0.457472 0.597456
v -0.10928 0.455804 0.623183
v -0.122102 0.457504 0.61032
v -0.10928 0.4466 0.641969
v -0.0322033 0.421281 0.643874
v -0.0450253 0.417982 0.641864
v -0.0578956 0.417976 0.641864
v -0.0707175 0.417976 0.641864
v -0.0835878 0.417982 0.641838
v -0.0964097 0.412027 0.636046
v -0.0835878 0.406566 0.629758
v -0.114264 0.410303 0.631062
v -0.110635 0.40501 0.621826
v -0.14852 0.404523 0.610685
v -0.288303 0.404523 0.550361
v -0.276207 0.404523 0.556492
v -0.250563 0.404523 0.569355
v -0.238419 0.410615 0.586889
v -0.23208 0.404523 0.578383
v -0.212049 0.410659 0.598448
v -0.199421 0.414164 0.609589
v -0.186357 0.413258 0.612981
v -0.163568 0.412071 0.619112
v -0.147794 0.41124 0.623209
v -0.133182 0.414389 0.632445
v -0.122102 0.422125 0.643847
v -0.122102 0.430454 0.646222
v -0.122102 0.445775 0.641186
v -0.122102 0.455492 0.623183
v -0.160665 0.46189 0.558893
v -0.10928 0.42608 0.645413
v -0.0964097 0.421344 0.643874
v -0.133811 0.406423 0.618591
v -0.16739 0.404523 0.603901
v -0.212049 0.404523 0.586941
v -0.199421 0.408028 0.59837
v -0.186647 0.407179 0.601657
v -0.199856 0.404523 0.591612
f 1 2 3
f 1 3 11
f 1 11 28
f 1 28 47
f 1 47 67
f 1 67 97
f 1 97 145
f 1 145 107
f 1 107 73
f 1 73 52
f 1 52 32
f 1 32 16
f 1 16 4
f 1 4 5
f 1 5 6
f 1 6 7
f 1 7 2
f 2 7 8
f 2 8 9
f 2 9 10
f 2 10 3
f 3 10 12
f 3 12 13
f 3 13 11
f 4 14 15
f 4 15 5
f 4 16 14
f 5 15 6
f 6 17 8
f 6 8 7
f 6 15 18
f 6 18 19
f 6 19 20
f 6 20 21
f 6 21 17
f 8 17 9
f 9 17 22
f 9 22 21
f 9 21 23
f 9 23 24
f 9 24 10
f 10 24 25
f 10 25 26
f 10 26 27
f 10 27 12
f 11 13 29
f 11 29 28
f 12 27 13
f 13 27 29
f 14 16 30
f 14 30 31
f 14 31 15
f 15 31 18
f 16 32 30
f 17 21 22
f 18 33 34
f 18 34 35
f 18 35 19
f 18 31 30
f 18 30 33
f 19 35 36
f 19 36 37
f 19 37 38
f 19 38 20
f 20 38 37
f 20 37 39
f 20 39 40
f 20 40 41
f 20 41 42
f 20 42 21
f 21 42 23
f 23 42 24
f 24 42 43
f 24 43 25
f 25 43 41
f 25 41 40
f 25 40 44
f 25 44 26
f 26 44 45
f 26 45 46
f 26 46 29
f 26 29 27
f 28 29 48
f 28 48 47
f 29 46 48
f 30 32 49
f 30 49 33
f 32 50 51
f 32 51 49
f 32 52 53
f 32 53 50
f 33 49 51
f 33 51 34
f 34 51 50
f 34 50 54
f 34 54 55
f 34 55 35
f 35 55 56
f 35 56 57
f 35 57 36
f 36 56 58
f 36 58 37
f 36 57 56
f 37 58 39
f 39 58 59
f 39 59 60
f 39 60 61
f 39 61 40
f 40 61 62
f 40 62 44
f 41 43 42
f 44 62 45
f 45 62 63
f 45 63 64
f 45 64 46
f 46 64 65
f 46 65 66
f 46 66 48
f 47 48 67
f 48 66 68
f 48 68 69
f 48 69 70
f 48 70 67
f 50 53 74
f 50 74 115
f 50 115 172
f 50 172 229
f 50 229 249
f 50 249 253
f 50 253 250
f 50 250 234
f 50 234 232
f 50 232 231
f 50 231 230
f 50 230 174
f 50 174 151
f 50 151 105
f 50 105 71
f 50 71 72
f 50 72 54
f 52 73 74
f 52 74 53
f 54 72 55
f 55 72 75
f 55 75 76
f 55 76 56
f 56 76 58
f 58 76 77
f 58 77 78
f 58 78 79
f 58 79 59
f 59 79 80
f 59 80 60
f 60 80 79
f 60 79 81
f 60 81 82
f 60 82 83
f 60 83 84
f 60 84 61
f 61 84 85
f 61 85 62
f 62 85 86
f 62 86 87
f 62 87 88
f 62 88 63
f 63 88 89
f 63 89 64
f 64 89 90
f 64 90 65
f 65 90 91
f 65 91 92
f 65 92 93
f 65 93 94
f 65 94 66
f 66 94 95
f 66 95 96
f 66 96 70
f 66 70 68
f 67 70 98
f 67 98 99
f 67 99 97
f 68 70 69
f 70 100 101
f 70 101 102
f 70 102 103
f 70 103 104
f 70 104 98
f 70 96 100
f 71 76 72
f 71 105 106
f 71 106 76
f 72 76 75
f 73 107 74
f 74 108 109
f 74 109 110
f 74 110 111
f 74 111 112
f 74 112 158
f 74 158 113
f 74 113 114
f 74 114 115
f 74 107 116
f 74 116 117
f 74 117 108
f 76 106 77
f 77 106 118
f 77 118 78
f 78 118 119
f 78 119 120
f 78 120 79
f 79 120 121
f 79 121 82
f 79 82 81
f 82 122 123
f 82 123 124
f 82 124 125
f 82 125 126
f 82 126 83
f 82 121 122
f 83 126 127
f 83 127 128
f 83 128 84
f 84 128 129
f 84 129 130
f 84 130 86
f 84 86 85
f 86 130 87
f 87 130 129
f 87 129 131
f 87 131 88
f 88 90 89
f 88 131 132
f 88 132 133
f 88 133 134
f 88 134 135
f 88 135 136
f 88 136 90
f 90 136 137
f 90 137 138
f 90 138 139
f 90 139 91
f 91 139 140
f 91 140 92
f 92 140 141
f 92 141 93
f 93 142 94
f 93 141 143
f 93 143 142
f 94 142 95
f 95 142 144
f 95 144 100
f 95 100 96
f 97 99 104
f 97 104 146
f 97 146 147
f 97 147 145
f 98 104 99
f 100 148 149
f 100 149 101
f 100 144 142
f 100 142 148
f 101 149 150
f 101 150 102
f 102 150 112
f 102 112 111
f 102 111 147
f 102 147 104
f 102 104 103
f 104 147 146
f 105 151 118
f 105 118 106
f 107 145 152
f 107 152 153
f 107 153 154
f 107 154 155
f 107 155 117
f 107 117 116
f 108 156 109
f 108 117 157
f 108 157 156
f 109 154 152
f 109 152 110
f 109 156 154
f 110 152 111
f 111 152 145
f 111 145 147
f 112 150 159
f 112 159 160
f 112 160 161
f 112 161 162
f 112 162 163
f 112 163 164
f 112 164 165
f 112 165 158
f 113 158 166
f 113 166 167
f 113 167 168
f 113 168 114
f 114 168 169
f 114 169 115
f 115 169 170
f 115 170 171
f 115 171 172
f 117 155 154
f 117 154 173
f 117 173 156
f 117 156 157
f 118 151 174
f 118 174 119
f 119 174 175
f 119 175 176
f 119 176 121
f 119 121 120
f 121 176 122
f 122 176 177
f 122 177 178
f 122 178 179
f 122 179 124
f 122 124 123
f 124 179 125
f 125 180 126
f 125 179 181
f 125 181 182
f 125 182 183
f 125 183 184
f 125 184 185
f 125 185 180
f 126 180 127
f 127 131 129
f 127 129 128
f 127 180 185
f 127 185 186
f 127 186 187
f 127 187 188
f 127 188 131
f 131 188 132
f 132 188 189
f 132 189 190
f 132 190 133
f 133 190 191
f 133 191 134
f 134 191 192
f 134 192 193
f 134 193 135
f 135 137 136
f 135 193 137
f 137 193 194
f 137 194 138
f 138 194 195
f 138 195 196
f 138 196 197
f 138 197 198
f 138 198 199
f 138 199 139
f 139 199 198
f 139 198 140
f 140 198 197
f 140 197 200
f 140 200 201
f 140 201 202
f 140 202 203
f 140 203 204
f 140 204 205
f 140 205 206
f 140 206 141
f 141 206 207
f 141 207 208
f 141 208 143
f 142 143 209
f 142 209 210
f 142 210 148
f 143 208 211
f 143 211 209
f 148 212 150
f 148 150 149
f 148 210 212
f 150 212 215
f 150 215 159
f 152 154 153
f 154 156 173
f 158 213 166
f 158 165 214
f 158 214 213
f 159 215 216
f 159 216 208
f 159 208 207
f 159 207 160
f 160 207 206
f 160 206 205
f 160 205 204
f 160 204 161
f 161 204 203
f 161 203 162
f 162 203 202
f 162 202 163
f 163 202 218
f 163 218 164
f 164 217 165
f 164 218 195
f 164 195 217
f 165 217 219
f 165 219 214
f 166 213 220
f 166 220 221
f 166 221 167
f 167 221 222
f 167 222 223
f 167 223 224
f 167 224 225
f 167 225 171
f 167 171 170
f 167 170 169
f 167 169 168
f 171 225 226
f 171 226 172
f 172 226 227
f 172 227 228
f 172 228 229
f 174 230 175
f 175 230 176
f 176 230 177
f 177 230 231
f 177 231 232
f 177 232 233
f 177 233 179
f 177 179 178
f 179 233 181
f 181 233 234
f 181 234 235
f 181 235 182
f 182 235 236
f 182 236 237
f 182 237 183
f 183 238 239
f 183 239 240
f 183 240 184
f 183 237 238
f 184 240 227
f 184 227 241
f 184 241 242
f 184 242 186
f 184 186 185
f 186 242 243
f 186 243 187
f 187 243 189
f 187 189 188
f 189 243 219
f 189 219 192
f 189 192 191
f 189 191 190
f 192 244 193
f 192 219 244
f 193 244 194
f 194 244 217
f 194 217 195
f 195 218 196
f 196 218 197
f 197 218 202
f 197 202 201
f 197 201 200
f 208 216 211
f 209 211 216
f 209 216 245
f 209 245 210
f 210 245 215
f 210 215 212
f 213 214 220
f 214 219 242
f 214 242 246
f 214 246 247
f 214 247 220
f 215 245 216
f 217 244 219
f 219 243 242
f 220 247 223
f 220 223 222
f 220 222 221
f 223 247 224
f 224 247 241
f 224 241 225
f 225 241 227
f 225 227 226
f 227 240 239
f 227 239 248
f 227 248 228
f 228 248 229
f 229 248 239
f 229 239 238
f 229 238 249
f 232 234 233
f 234 250 235
f 235 251 252
f 235 252 237
f 235 237 236
f 235 250 251
f 237 252 249
f 237 249 238
f 241 247 246
f 241 246 242
f 249 252 253
f 250 253 251
f 251 253 252
