v 0.286642 0.413359 0.358274
v 0.25061 0.413348 0.379105
v 0.263336 0.413359 0.368054
v 0.385898 0.452245 0.358274
v 0.497368 0.413359 0.358274
v 0.470893 0.413359 0.405731
v 0.340819 0.413359 0.535864
v 0.239724 0.413359 0.590077
v 0.10924 0.413359 0.629959
v -0.00437659 0.413359 0.485015
v 0.199245 0.413359 0.396008
v 0.402457 0.457356 0.358274
v -0.00437659 0.439698 0.520997
v 0.517659 0.436025 0.358274
v 0.510248 0.421871 0.358415
v 0.491031 0.415103 0.379105
v 0.481422 0.413376 0.391231
v 0.455407 0.413622 0.427269
v 0.442936 0.413501 0.441911
v 0.360752 0.413397 0.52241
v 0.48638 0.420625 0.403187
v 0.370207 0.42157 0.529504
v 0.345214 0.420942 0.544033
v 0.322777 0.41396 0.547764
v 0.251326 0.413397 0.584706
v 0.255363 0.421368 0.593468
v 0.21238 0.414753 0.603842
v 0.0984563 0.426769 0.644204
v 0.0964119 0.415081 0.63352
v 0.0835833 0.414775 0.633916
v -0.00437659 0.414649 0.63711
v 0.147828 0.415683 0.624475
v 0.127793 0.415152 0.6288
v 0.419732 0.46226 0.358274
v -0.00437659 0.44903 0.536769
v 0.51311 0.456082 0.359065
v 0.501355 0.447428 0.389422
v 0.499515 0.426102 0.390468
v 0.49793 0.466038 0.358274
v 0.466447 0.420991 0.430491
v 0.427961 0.421406 0.472946
v 0.42883 0.413632 0.456524
v 0.377771 0.413496 0.507231
v 0.378742 0.420242 0.520092
v 0.474982 0.427529 0.42611
v 0.39198 0.424364 0.510849
v 0.378282 0.435265 0.528204
v 0.360036 0.43017 0.539934
v 0.334992 0.423374 0.553049
v 0.327581 0.421423 0.555254
v 0.301975 0.416973 0.564101
v 0.281123 0.416688 0.574333
v 0.25061 0.430454 0.5985
v 0.233233 0.426332 0.60452
v 0.199143 0.425364 0.616702
v 0.3146 0.425588 0.564695
v 0.296507 0.432324 0.577046
v 0.270696 0.432663 0.589794
v 0.180385 0.417186 0.6169
v 0.0964119 0.440251 0.644289
v 0.0707037 0.430454 0.647031
v 0.0835833 0.426381 0.64525
v 0.149873 0.4266 0.632333
v 0.135 0.430454 0.63711
v 0.108832 0.434467 0.642961
v -0.00437659 0.426939 0.645476
v 0.44079 0.467557 0.358274
v -0.00437659 0.455705 0.5589
v 0.490673 0.456575 0.397138
v 0.489344 0.434991 0.408614
v 0.475698 0.45031 0.424443
v 0.471915 0.443296 0.432244
v 0.480553 0.468869 0.362259
v 0.48178 0.467306 0.379105
v 0.470484 0.464168 0.411384
v 0.458831 0.469121 0.358274
v 0.459036 0.424539 0.442985
v 0.41733 0.413911 0.468762
v 0.446514 0.424358 0.456298
v 0.418506 0.425927 0.486032
v 0.390293 0.413632 0.495077
v 0.404451 0.413911 0.481623
v 0.451114 0.443296 0.457824
v 0.35329 0.440721 0.542676
v 0.336679 0.439206 0.554067
v 0.43527 0.443296 0.473907
v 0.405319 0.445193 0.501889
v 0.39198 0.443296 0.514552
v 0.202567 0.437812 0.617437
v 0.168017 0.432258 0.628602
v 0.312402 0.440026 0.567634
v 0.228377 0.441847 0.604746
v 0.0835833 0.446067 0.641491
v 0.0707037 0.446614 0.642
v 0.0321669 0.430454 0.647031
v 0.147828 0.444936 0.630298
v 0.135 0.449659 0.629507
v -0.00437659 0.449183 0.639315
v -0.00437659 0.455924 0.571761
v 0.109292 0.463572 0.571761
v 0.12212 0.46419 0.5589
v 0.147828 0.464835 0.546068
v 0.459751 0.462112 0.430802
v 0.447638 0.454984 0.454206
v 0.461438 0.448877 0.442476
v 0.456071 0.469197 0.391938
v 0.4689 0.468979 0.379105
v 0.456071 0.468695 0.404798
v 0.4689 0.468197 0.391938
v 0.456071 0.466869 0.417631
v 0.447281 0.462522 0.444257
v 0.160657 0.465617 0.546068
v 0.186365 0.466114 0.533207
v 0.23773 0.466934 0.507514
v 0.263336 0.4673 0.49471
v 0.366169 0.468449 0.430491
v 0.391878 0.468771 0.417631
v 0.404706 0.469006 0.417631
v 0.417586 0.469159 0.417631
v 0.417586 0.469197 0.430491
v 0.430414 0.469197 0.417631
v 0.439205 0.452846 0.465003
v 0.370258 0.448631 0.525349
v 0.34593 0.449336 0.539086
v 0.416359 0.447532 0.490329
v 0.426377 0.452485 0.477836
v 0.385744 0.452688 0.509323
v 0.18473 0.445482 0.618116
v 0.284445 0.447243 0.575661
v 0.258532 0.447002 0.588466
v 0.0964119 0.451775 0.633125
v 0.0192872 0.452343 0.635188
v 0.203947 0.450894 0.605679
v 0.186365 0.452338 0.608958
v 0.160657 0.453245 0.614894
v 0.147828 0.454213 0.615911
v 0.12212 0.453622 0.623147
v -0.00437659 0.455443 0.623147
v -0.00437659 0.455924 0.610286
v 0.12212 0.464212 0.571761
v 0.135 0.464983 0.5589
v 0.435065 0.462812 0.455987
v 0.430414 0.468744 0.430491
v 0.443243 0.468744 0.417631
v 0.443243 0.467033 0.430491
v 0.173537 0.465906 0.546068
v 0.199245 0.466437 0.533207
v 0.224902 0.466852 0.520375
v 0.327581 0.46817 0.469017
v 0.391878 0.46893 0.430491
v 0.404706 0.469115 0.430491
v 0.404706 0.469154 0.443324
v 0.404706 0.4687 0.456184
v 0.417586 0.468744 0.443324
v 0.337394 0.450911 0.54163
v 0.300953 0.450676 0.56249
v 0.361723 0.452053 0.52501
v 0.419937 0.461052 0.472748
v 0.406393 0.461659 0.480125
v 0.270594 0.452655 0.574022
v 0.224902 0.45201 0.595447
v 0.0964119 0.455421 0.623147
v 0.0835833 0.455962 0.623147
v 0.109292 0.454568 0.623147
v 0.0707037 0.456104 0.623147
v 0.0449955 0.456104 0.623147
v 0.199245 0.454973 0.597454
v 0.186365 0.456334 0.597454
v 0.135 0.456831 0.610286
v 0.0707037 0.458302 0.610286
v 0.109292 0.462982 0.58089
v 0.12212 0.462451 0.584028
v 0.135 0.463255 0.577329
v 0.160657 0.465168 0.5589
v 0.147828 0.465267 0.5589
v 0.417586 0.467033 0.456184
v 0.410533 0.46501 0.468847
v 0.186365 0.465764 0.546068
v 0.212073 0.466344 0.533207
v 0.23773 0.466885 0.520375
v 0.263336 0.467328 0.507514
v 0.327581 0.468192 0.481878
v 0.289045 0.46771 0.49471
v 0.391878 0.469023 0.443324
v 0.378998 0.468815 0.443324
v 0.391878 0.469028 0.456184
v 0.378998 0.468427 0.469017
v 0.391878 0.467743 0.469017
v 0.35329 0.456995 0.520375
v 0.327581 0.457635 0.533207
v 0.390651 0.462304 0.487644
v 0.276216 0.457477 0.5589
v 0.241717 0.452737 0.5866
v 0.301924 0.457799 0.546068
v 0.224902 0.456017 0.584593
v 0.109292 0.457843 0.610286
v 0.0964119 0.458193 0.610286
v 0.0835833 0.458302 0.610286
v 0.212073 0.457252 0.584593
v 0.173537 0.457285 0.597454
v 0.135 0.459363 0.597454
v 0.160657 0.458094 0.597454
v 0.147828 0.458805 0.597454
v 0.0964119 0.46044 0.597454
v 0.109292 0.460276 0.597454
v 0.12212 0.459866 0.597454
v 0.147828 0.462561 0.578177
v 0.173537 0.464649 0.5589
v 0.199245 0.465382 0.546068
v 0.263336 0.466311 0.520375
v 0.327581 0.467218 0.49471
v 0.224902 0.46607 0.533207
v 0.378998 0.46618 0.481878
v 0.391162 0.464239 0.482075
v 0.314753 0.467557 0.49471
v 0.276216 0.46724 0.507514
v 0.340461 0.468126 0.481878
v 0.301924 0.467754 0.49471
v 0.366169 0.468613 0.469017
v 0.35329 0.468541 0.469017
v 0.378998 0.468864 0.456184
v 0.35329 0.467836 0.481878
v 0.366169 0.467344 0.481878
v 0.3699 0.462019 0.499685
v 0.25061 0.456842 0.571761
v 0.343937 0.462167 0.512574
v 0.331466 0.462922 0.515315
v 0.355334 0.462211 0.506666
v 0.23773 0.458051 0.571761
v 0.31 0.462681 0.524614
v 0.276216 0.462293 0.538238
v 0.224902 0.459007 0.571761
v 0.199245 0.458149 0.584593
v 0.289045 0.464961 0.520375
v 0.173537 0.463042 0.567775
v 0.160657 0.462812 0.573061
v 0.212073 0.46478 0.546068
v 0.276216 0.465726 0.520375
v 0.340461 0.466655 0.49471
v 0.23773 0.465584 0.533207
v 0.301924 0.466508 0.507514
v 0.289045 0.466962 0.507514
v 0.35329 0.465699 0.49471
v 0.263336 0.458805 0.5589
v 0.314753 0.465819 0.507514
f 1 2 3
f 1 3 4
f 1 4 12
f 1 12 34
f 1 34 67
f 1 67 76
f 1 76 39
f 1 39 14
f 1 14 5
f 1 5 2
f 2 5 6
f 2 6 7
f 2 7 8
f 2 8 9
f 2 9 10
f 2 10 11
f 2 11 3
f 3 11 4
f 4 11 10
f 4 10 13
f 4 13 12
f 5 14 15
f 5 15 16
f 5 16 17
f 5 17 6
f 6 18 19
f 6 19 20
f 6 20 7
f 6 17 21
f 6 21 18
f 7 20 22
f 7 22 23
f 7 23 24
f 7 24 25
f 7 25 8
f 8 25 26
f 8 26 27
f 8 27 9
f 9 28 29
f 9 29 30
f 9 30 31
f 9 31 10
f 9 27 32
f 9 32 33
f 9 33 28
f 10 31 66
f 10 66 98
f 10 98 138
f 10 138 139
f 10 139 99
f 10 99 68
f 10 68 35
f 10 35 13
f 12 13 34
f 13 35 34
f 14 36 37
f 14 37 38
f 14 38 15
f 14 39 36
f 15 38 21
f 15 21 16
f 16 21 17
f 18 21 40
f 18 40 19
f 19 40 41
f 19 41 42
f 19 42 43
f 19 43 20
f 20 43 44
f 20 44 22
f 21 45 40
f 21 38 45
f 22 44 46
f 22 46 47
f 22 47 48
f 22 48 49
f 22 49 23
f 23 49 50
f 23 50 24
f 24 50 51
f 24 51 25
f 25 52 26
f 25 51 52
f 26 53 54
f 26 54 55
f 26 55 27
f 26 52 51
f 26 51 50
f 26 50 49
f 26 49 56
f 26 56 57
f 26 57 58
f 26 58 53
f 27 55 59
f 27 59 32
f 28 60 61
f 28 61 62
f 28 62 29
f 28 33 63
f 28 63 64
f 28 64 65
f 28 65 60
f 29 62 30
f 30 62 31
f 31 62 66
f 32 63 33
f 32 59 63
f 34 35 67
f 35 68 67
f 36 39 69
f 36 69 37
f 37 70 38
f 37 69 71
f 37 71 72
f 37 72 70
f 38 70 45
f 39 73 74
f 39 74 75
f 39 75 69
f 39 76 73
f 40 77 41
f 40 45 77
f 41 78 42
f 41 77 79
f 41 79 80
f 41 80 46
f 41 46 44
f 41 44 78
f 42 78 81
f 42 81 43
f 43 81 82
f 43 82 44
f 44 82 78
f 45 70 72
f 45 72 83
f 45 83 77
f 46 80 47
f 47 84 85
f 47 85 48
f 47 80 86
f 47 86 87
f 47 87 88
f 47 88 84
f 48 85 57
f 48 57 49
f 49 57 56
f 53 89 54
f 53 58 89
f 54 89 55
f 55 89 90
f 55 90 63
f 55 63 59
f 57 85 91
f 57 91 58
f 58 92 89
f 58 91 92
f 60 93 94
f 60 94 95
f 60 95 61
f 60 65 96
f 60 96 97
f 60 97 93
f 61 95 62
f 62 95 66
f 63 90 64
f 64 90 65
f 65 90 96
f 66 95 98
f 67 68 76
f 68 99 100
f 68 100 101
f 68 101 102
f 68 102 76
f 69 75 103
f 69 103 71
f 71 103 104
f 71 104 105
f 71 105 83
f 71 83 72
f 73 76 106
f 73 106 107
f 73 107 108
f 73 108 109
f 73 109 74
f 74 109 110
f 74 110 75
f 75 110 111
f 75 111 103
f 76 102 112
f 76 112 113
f 76 113 114
f 76 114 115
f 76 115 116
f 76 116 117
f 76 117 118
f 76 118 119
f 76 119 120
f 76 120 121
f 76 121 106
f 77 83 79
f 78 82 81
f 79 83 80
f 80 83 86
f 83 105 104
f 83 104 122
f 83 122 86
f 84 88 123
f 84 123 85
f 85 123 124
f 85 124 91
f 86 122 125
f 86 125 87
f 87 125 126
f 87 126 88
f 88 127 123
f 88 126 127
f 89 92 128
f 89 128 96
f 89 96 90
f 91 124 129
f 91 129 130
f 91 130 92
f 92 130 128
f 93 97 131
f 93 131 94
f 94 131 132
f 94 132 98
f 94 98 95
f 96 128 97
f 97 128 133
f 97 133 134
f 97 134 135
f 97 135 136
f 97 136 137
f 97 137 131
f 98 132 138
f 99 139 100
f 100 140 141
f 100 141 101
f 100 139 138
f 100 138 140
f 101 141 102
f 102 141 112
f 103 111 104
f 104 111 142
f 104 142 126
f 104 126 122
f 106 108 107
f 106 121 120
f 106 120 143
f 106 143 144
f 106 144 108
f 108 110 109
f 108 144 145
f 108 145 110
f 110 145 142
f 110 142 111
f 112 141 146
f 112 146 147
f 112 147 113
f 113 147 148
f 113 148 114
f 114 148 115
f 115 148 149
f 115 149 150
f 115 150 116
f 116 150 117
f 117 150 118
f 118 151 119
f 118 150 151
f 119 151 152
f 119 152 120
f 120 152 153
f 120 153 154
f 120 154 143
f 122 126 125
f 123 127 124
f 124 155 156
f 124 156 129
f 124 127 157
f 124 157 155
f 126 142 158
f 126 158 127
f 127 158 159
f 127 159 157
f 128 130 133
f 129 156 130
f 130 156 160
f 130 160 161
f 130 161 133
f 131 162 163
f 131 163 132
f 131 137 164
f 131 164 162
f 132 165 166
f 132 166 138
f 132 163 165
f 133 161 134
f 134 161 167
f 134 167 135
f 135 167 168
f 135 168 136
f 136 169 164
f 136 164 137
f 136 168 169
f 138 166 170
f 138 170 171
f 138 171 140
f 140 171 172
f 140 172 173
f 140 173 174
f 140 174 175
f 140 175 141
f 141 175 146
f 142 145 176
f 142 176 177
f 142 177 158
f 143 145 144
f 143 154 176
f 143 176 145
f 146 175 174
f 146 174 178
f 146 178 179
f 146 179 180
f 146 180 147
f 147 180 181
f 147 181 148
f 148 181 182
f 148 182 183
f 148 183 149
f 149 184 185
f 149 185 150
f 149 183 184
f 150 185 184
f 150 184 151
f 151 184 152
f 152 184 186
f 152 186 153
f 153 176 154
f 153 186 187
f 153 187 188
f 153 188 176
f 155 157 159
f 155 159 189
f 155 189 156
f 156 189 190
f 156 190 160
f 158 177 159
f 159 177 191
f 159 191 189
f 160 192 193
f 160 193 161
f 160 190 194
f 160 194 192
f 161 195 167
f 161 193 195
f 162 164 169
f 162 169 163
f 163 169 196
f 163 196 197
f 163 197 165
f 165 197 198
f 165 198 170
f 165 170 166
f 167 195 168
f 168 195 199
f 168 199 200
f 168 200 169
f 169 201 196
f 169 200 202
f 169 202 203
f 169 203 201
f 170 198 204
f 170 204 171
f 171 204 172
f 172 204 205
f 172 205 196
f 172 196 206
f 172 206 173
f 173 206 201
f 173 201 207
f 173 207 208
f 173 208 174
f 174 208 209
f 174 209 210
f 174 210 211
f 174 211 212
f 174 212 178
f 176 188 177
f 177 188 213
f 177 213 214
f 177 214 191
f 178 212 215
f 178 215 179
f 179 216 180
f 179 215 216
f 180 216 217
f 180 217 218
f 180 218 181
f 181 218 182
f 182 218 219
f 182 219 186
f 182 186 183
f 183 186 220
f 183 220 184
f 184 220 221
f 184 221 186
f 186 221 220
f 186 219 187
f 187 219 217
f 187 217 215
f 187 215 222
f 187 222 223
f 187 223 188
f 188 223 213
f 189 191 190
f 190 191 224
f 190 224 194
f 191 214 224
f 192 225 193
f 192 194 226
f 192 226 227
f 192 227 225
f 193 225 195
f 194 224 228
f 194 228 226
f 195 225 199
f 196 201 206
f 196 205 197
f 197 204 198
f 197 205 204
f 199 225 229
f 199 229 230
f 199 230 231
f 199 231 232
f 199 232 233
f 199 233 200
f 200 233 231
f 200 231 234
f 200 234 235
f 200 235 202
f 201 203 207
f 202 236 207
f 202 207 203
f 202 235 236
f 207 236 208
f 208 235 237
f 208 237 238
f 208 238 239
f 208 239 240
f 208 240 209
f 208 236 235
f 209 240 210
f 210 240 241
f 210 241 211
f 211 241 239
f 211 239 223
f 211 223 222
f 211 222 242
f 211 242 212
f 212 242 215
f 213 223 243
f 213 243 227
f 213 227 226
f 213 226 214
f 214 226 228
f 214 228 224
f 215 217 216
f 215 242 222
f 217 219 218
f 223 239 243
f 225 227 244
f 225 244 229
f 227 243 230
f 227 230 244
f 229 244 230
f 230 243 239
f 230 239 231
f 231 233 232
f 231 239 245
f 231 245 234
f 234 245 235
f 235 245 237
f 237 245 238
f 238 245 239
f 239 241 240
