v 0.343639 0.144897 -0.381836
v 0.463805 0.0236662 -0.381836
v 0.427155 0.0937528 -0.382729
v 0.405223 0.124481 -0.39125
v 0.374189 0.156431 -0.399609
v 0.351967 0.1739 -0.412392
v 0.313889 0.188043 -0.451265
v 0.313889 0.157483 -0.448141
v 0.313889 -0.173671 -0.449318
v 0.35187 -0.157506 -0.382364
v 0.417036 -0.107372 -0.38212
v 0.469445 0.000682872 -0.386908
v 0.552548 0.00792304 -0.637032
v 0.536354 0.01731 -0.596535
v 0.468186 0.0315799 -0.405615
v 0.453589 0.0492173 -0.384717
v 0.44105 0.0750209 -0.388045
v 0.43967 0.0923216 -0.417586
v 0.425847 0.110717 -0.417058
v 0.442502 0.12747 -0.512092
v 0.42822 0.128901 -0.472691
v 0.406046 0.138246 -0.43333
v 0.425533 0.141866 -0.503855
v 0.429479 0.145444 -0.527836
v 0.425145 0.157273 -0.556363
v 0.395516 0.158788 -0.472325
v 0.366733 0.173058 -0.445382
v 0.343276 0.191706 -0.472001
v 0.318319 0.203281 -0.474395
v 0.313889 0.215068 -0.638047
v 0.313889 -0.208693 -0.496348
v 0.316721 -0.203263 -0.471433
v 0.352064 -0.173965 -0.41231
v 0.378038 -0.148961 -0.383419
v 0.398856 -0.13587 -0.404276
v 0.426719 -0.108004 -0.412838
v 0.487988 -0.0939024 -0.568455
v 0.440541 -0.0744129 -0.38634
v 0.457365 -0.056102 -0.407238
v 0.553614 -0.0220058 -0.65866
v 0.56119 9.36792e-06 -0.677448
v 0.55175 0.0301908 -0.665478
v 0.536136 0.0481649 -0.636545
v 0.488399 0.047281 -0.488394
v 0.47189 0.0615087 -0.459259
v 0.456688 0.062519 -0.41442
v 0.489246 0.0644553 -0.517408
v 0.522071 0.0668547 -0.622302
v 0.520788 0.0823453 -0.646325
v 0.458382 0.0810825 -0.452361
v 0.487963 0.093879 -0.568496
v 0.487503 0.109117 -0.601323
v 0.475327 0.113495 -0.57511
v 0.487576 0.117283 -0.622302
v 0.46073 0.130038 -0.57511
v 0.472495 0.133868 -0.622302
v 0.43737 0.138036 -0.527836
v 0.452427 0.154537 -0.630012
v 0.440348 0.156894 -0.600958
v 0.430858 0.161693 -0.590773
v 0.407038 0.1715 -0.559366
v 0.393071 0.172721 -0.522399
v 0.401785 0.181477 -0.590773
v 0.356276 0.189895 -0.498945
v 0.338774 0.199072 -0.50422
v 0.319239 0.209511 -0.518463
v 0.318464 0.213763 -0.554821
v 0.319602 0.214815 -0.599173
v 0.346641 0.211279 -0.643971
v 0.316188 0.214015 -0.677448
v 0.317326 0.188422 -0.749109
v 0.316188 0.109412 -0.796383
v 0.313889 -0.190087 -0.748419
v 0.313889 -0.213744 -0.680532
v 0.317326 -0.212565 -0.538711
v 0.338774 -0.20924 -0.57511
v 0.339306 -0.207051 -0.560826
v 0.332262 -0.205367 -0.527836
v 0.328074 -0.203599 -0.50284
v 0.353153 -0.189498 -0.487786
v 0.351168 -0.184825 -0.456175
v 0.365184 -0.171608 -0.433573
v 0.457559 -0.15035 -0.630175
v 0.442551 -0.143068 -0.559366
v 0.409023 -0.141174 -0.450981
v 0.378111 -0.157464 -0.414096
v 0.409023 -0.157001 -0.506127
v 0.424056 -0.152497 -0.535709
v 0.437419 -0.138059 -0.527836
v 0.472979 -0.130356 -0.613213
v 0.456228 -0.109393 -0.506249
v 0.470219 -0.107036 -0.543581
v 0.491667 -0.0989958 -0.590773
v 0.486559 -0.128125 -0.648232
v 0.490965 -0.113392 -0.622302
v 0.503843 -0.0960071 -0.621775
v 0.520159 -0.0830842 -0.645594
v 0.50532 -0.0806428 -0.595034
v 0.489271 -0.0645629 -0.517327
v 0.536668 -0.0560178 -0.652127
v 0.537443 -0.0591327 -0.691529
v 0.548191 -0.0353496 -0.69303
v 0.554364 0.0112485 -0.70849
v 0.549813 0.0315378 -0.69303
v 0.553154 -0.0143026 -0.70849
v 0.537443 0.0591515 -0.691529
v 0.536402 0.062056 -0.66215
v 0.516867 0.0957733 -0.677448
v 0.503795 0.11219 -0.662475
v 0.503843 0.0959837 -0.621775
v 0.482614 0.132016 -0.648354
v 0.4624 0.15542 -0.669535
v 0.434514 0.173984 -0.653791
v 0.42362 0.172048 -0.611793
v 0.419723 0.179498 -0.635409
v 0.399171 0.191706 -0.638047
v 0.387794 0.189895 -0.59337
v 0.370268 0.196673 -0.582982
v 0.371623 0.202019 -0.622302
v 0.386026 0.196673 -0.630175
v 0.350587 0.206481 -0.590773
v 0.366394 0.206438 -0.638047
v 0.346641 0.209048 -0.693192
v 0.38242 0.20265 -0.663936
v 0.327469 0.206228 -0.713035
v 0.355671 0.1912 -0.739208
v 0.34468 0.173268 -0.763758
v 0.318464 0.164597 -0.775039
v 0.318464 0.139551 -0.790255
v 0.354533 0.110254 -0.796017
v 0.433303 0.0472389 -0.796099
v 0.441146 -0.0354338 -0.796099
v 0.409653 -0.070877 -0.79618
v 0.316188 -0.110235 -0.796342
v 0.317326 -0.140921 -0.78989
v 0.319602 -0.168451 -0.771427
v 0.34468 -0.173292 -0.763758
v 0.342986 -0.194044 -0.736936
v 0.333981 -0.204189 -0.716931
v 0.338774 -0.208524 -0.701065
v 0.350587 -0.210419 -0.67546
v 0.338774 -0.212439 -0.638047
v 0.318464 -0.214965 -0.598645
v 0.320739 -0.213828 -0.565249
v 0.366394 -0.20642 -0.638047
v 0.37431 -0.203136 -0.638047
v 0.360706 -0.204062 -0.603758
v 0.340735 -0.202379 -0.532138
v 0.367702 -0.191729 -0.543581
v 0.394789 -0.189498 -0.61163
v 0.396557 -0.184573 -0.590773
v 0.380943 -0.175102 -0.496348
v 0.374407 -0.170682 -0.456946
v 0.381282 -0.159948 -0.43333
v 0.425581 -0.157675 -0.558798
v 0.434635 -0.168409 -0.630175
v 0.434538 -0.174007 -0.653791
v 0.465886 -0.150561 -0.659918
v 0.456881 -0.141763 -0.598645
v 0.423838 -0.140248 -0.493223
v 0.39508 -0.158433 -0.46916
v 0.503819 -0.112213 -0.662475
v 0.486826 -0.132418 -0.677448
v 0.516867 -0.0957545 -0.677448
v 0.522071 -0.0669201 -0.622302
v 0.535289 -0.0425477 -0.723788
v 0.519772 -0.0864938 -0.701065
v 0.539138 0.0112906 -0.738843
v 0.535289 0.0425664 -0.723788
v 0.536644 -0.0217111 -0.738518
v 0.519772 0.0865126 -0.701065
v 0.503601 0.110464 -0.694978
v 0.485833 0.133363 -0.677448
v 0.468719 0.147759 -0.692462
v 0.442357 0.170153 -0.677448
v 0.409048 0.18998 -0.661663
v 0.381839 0.201177 -0.692624
v 0.36608 0.201724 -0.710682
v 0.386002 0.188969 -0.724925
v 0.37828 0.168933 -0.758726
v 0.345915 0.142203 -0.787455
v 0.378595 0.12465 -0.789768
v 0.389972 0.0945104 -0.795693
v 0.425363 0.0796513 -0.792731
v 0.459689 0.0317062 -0.793055
v 0.456881 9.36792e-06 -0.795936
v 0.477627 -0.0277727 -0.788105
v 0.454146 -0.0649838 -0.787658
v 0.425315 -0.0884723 -0.790702
v 0.389972 -0.0944917 -0.795693
v 0.354533 -0.110235 -0.796017
v 0.345915 -0.142226 -0.787455
v 0.37828 -0.168914 -0.758726
v 0.36608 -0.201747 -0.710682
v 0.386002 -0.188993 -0.724925
v 0.354533 -0.209829 -0.638047
v 0.381839 -0.201158 -0.692624
v 0.381403 -0.20301 -0.663408
v 0.338774 -0.211976 -0.606517
v 0.399171 -0.191687 -0.638047
v 0.386026 -0.196738 -0.630175
v 0.370268 -0.197959 -0.590773
v 0.412291 -0.184531 -0.638047
v 0.41234 -0.175018 -0.590773
v 0.393991 -0.173334 -0.527512
v 0.38881 -0.169714 -0.496348
v 0.413913 -0.16079 -0.535709
v 0.407087 -0.171524 -0.559366
v 0.442357 -0.170135 -0.677448
v 0.409048 -0.189961 -0.661623
v 0.468719 -0.147741 -0.692462
v 0.485228 -0.128714 -0.703459
v 0.503601 -0.110445 -0.694978
v 0.512171 -0.077612 -0.73093
v 0.509677 -0.0578699 -0.751179
v 0.494548 -0.104594 -0.728211
v 0.518465 9.36792e-06 -0.766477
v 0.508249 0.030275 -0.766639
v 0.509677 0.0578886 -0.751179
v 0.512171 0.0776307 -0.73093
v 0.508249 -0.0302562 -0.766639
v 0.494548 0.104613 -0.728211
v 0.485228 0.128691 -0.703459
v 0.46792 0.136941 -0.722165
v 0.44991 0.157567 -0.7106
v 0.433037 0.173016 -0.701065
v 0.411928 0.186318 -0.696723
v 0.42011 0.172342 -0.723342
v 0.404424 0.162955 -0.751057
v 0.401301 0.140772 -0.773821
v 0.410089 0.108023 -0.788308
v 0.452524 0.0619297 -0.789484
v 0.485882 0.00884911 -0.787699
v 0.487479 -0.054755 -0.773902
v 0.460391 -0.100259 -0.76814
v 0.429575 -0.123747 -0.771671
v 0.410089 -0.108004 -0.788308
v 0.378595 -0.124631 -0.789768
v 0.401301 -0.140753 -0.773821
v 0.404424 -0.162937 -0.751057
v 0.42011 -0.172366 -0.723342
v 0.411928 -0.186299 -0.696723
v 0.433037 -0.173039 -0.701065
v 0.44991 -0.157591 -0.7106
v 0.46792 -0.136965 -0.722165
v 0.488157 -0.0830421 -0.7569
v 0.476489 -0.11074 -0.745335
v 0.487479 0.0547316 -0.773902
v 0.488157 0.0830188 -0.7569
v 0.476489 0.110717 -0.745335
v 0.449086 0.137867 -0.74428
v 0.428559 0.151506 -0.746593
v 0.429575 0.123766 -0.771671
v 0.460391 0.100235 -0.76814
v 0.449546 -0.130398 -0.75268
v 0.431899 -0.149719 -0.74566
f 1 2 3
f 1 3 4
f 1 4 5
f 1 5 6
f 1 6 7
f 1 7 8
f 1 8 9
f 1 9 10
f 1 10 11
f 1 11 2
f 2 12 13
f 2 13 14
f 2 14 15
f 2 15 16
f 2 16 3
f 2 11 12
f 3 16 17
f 3 17 18
f 3 18 19
f 3 19 4
f 4 19 20
f 4 20 21
f 4 21 22
f 4 22 5
f 5 22 23
f 5 23 24
f 5 24 25
f 5 25 26
f 5 26 27
f 5 27 6
f 6 28 29
f 6 29 7
f 6 27 28
f 7 29 30
f 7 30 73
f 7 73 74
f 7 74 31
f 7 31 9
f 7 9 8
f 9 31 32
f 9 32 10
f 10 32 33
f 10 33 34
f 10 34 11
f 11 34 35
f 11 35 36
f 11 36 37
f 11 37 38
f 11 38 12
f 12 38 39
f 12 39 40
f 12 40 13
f 13 40 41
f 13 41 42
f 13 42 43
f 13 43 14
f 14 43 44
f 14 44 15
f 15 44 16
f 16 44 45
f 16 45 46
f 16 46 17
f 17 46 47
f 17 47 48
f 17 48 49
f 17 49 50
f 17 50 18
f 18 51 52
f 18 52 19
f 18 50 51
f 19 53 54
f 19 54 20
f 19 52 53
f 20 55 21
f 20 54 55
f 21 55 56
f 21 56 57
f 21 57 22
f 22 57 23
f 23 57 56
f 23 56 24
f 24 58 59
f 24 59 25
f 24 56 58
f 25 59 26
f 26 59 60
f 26 60 61
f 26 61 62
f 26 62 27
f 27 62 63
f 27 63 64
f 27 64 28
f 28 64 65
f 28 65 29
f 29 65 66
f 29 66 67
f 29 67 30
f 30 67 68
f 30 68 69
f 30 69 70
f 30 70 71
f 30 71 72
f 30 72 73
f 31 74 75
f 31 75 76
f 31 76 77
f 31 77 78
f 31 78 79
f 31 79 32
f 32 79 80
f 32 80 81
f 32 81 33
f 33 81 82
f 33 82 34
f 34 83 84
f 34 84 85
f 34 85 35
f 34 82 86
f 34 86 87
f 34 87 88
f 34 88 83
f 35 85 89
f 35 89 90
f 35 90 36
f 36 91 92
f 36 92 93
f 36 93 37
f 36 90 94
f 36 94 95
f 36 95 91
f 37 93 96
f 37 96 97
f 37 97 98
f 37 98 38
f 38 98 99
f 38 99 39
f 39 99 100
f 39 100 40
f 40 100 101
f 40 101 102
f 40 102 41
f 41 103 104
f 41 104 42
f 41 102 105
f 41 105 103
f 42 104 106
f 42 106 107
f 42 107 43
f 43 107 48
f 43 48 45
f 43 45 44
f 45 48 47
f 45 47 46
f 48 107 49
f 49 108 109
f 49 109 110
f 49 110 51
f 49 51 50
f 49 107 108
f 51 110 52
f 52 110 109
f 52 109 54
f 52 54 53
f 54 109 111
f 54 111 55
f 55 111 56
f 56 111 58
f 58 112 113
f 58 113 59
f 58 111 112
f 59 113 60
f 60 114 61
f 60 113 114
f 61 114 62
f 62 114 113
f 62 113 115
f 62 115 63
f 63 115 116
f 63 116 117
f 63 117 64
f 64 117 116
f 64 116 118
f 64 118 65
f 65 119 66
f 65 118 120
f 65 120 119
f 66 121 122
f 66 122 67
f 66 119 121
f 67 69 68
f 67 122 69
f 69 123 70
f 69 122 124
f 69 124 123
f 70 123 125
f 70 125 71
f 71 125 126
f 71 126 127
f 71 127 128
f 71 128 72
f 72 128 129
f 72 129 130
f 72 130 131
f 72 131 132
f 72 132 133
f 72 133 134
f 72 134 73
f 73 134 135
f 73 135 136
f 73 136 137
f 73 137 138
f 73 138 139
f 73 139 74
f 74 140 141
f 74 141 142
f 74 142 143
f 74 143 75
f 74 139 140
f 75 143 144
f 75 144 145
f 75 145 76
f 76 145 146
f 76 146 77
f 77 147 78
f 77 146 147
f 78 147 79
f 79 148 149
f 79 149 80
f 79 147 148
f 80 149 150
f 80 150 81
f 81 151 152
f 81 152 82
f 81 150 151
f 82 152 153
f 82 153 154
f 82 154 86
f 83 88 155
f 83 155 156
f 83 156 157
f 83 157 158
f 83 158 94
f 83 94 159
f 83 159 84
f 84 159 85
f 85 160 89
f 85 159 160
f 86 154 161
f 86 161 155
f 86 155 87
f 87 155 88
f 89 160 159
f 89 159 90
f 90 159 94
f 91 95 92
f 92 95 93
f 93 95 96
f 94 162 95
f 94 158 163
f 94 163 162
f 95 162 96
f 96 162 97
f 97 162 164
f 97 164 100
f 97 100 165
f 97 165 98
f 98 165 99
f 99 165 100
f 100 164 101
f 101 166 102
f 101 164 167
f 101 167 166
f 102 166 105
f 103 168 169
f 103 169 104
f 103 105 168
f 104 169 106
f 105 166 170
f 105 170 168
f 106 169 171
f 106 171 108
f 106 108 107
f 108 171 172
f 108 172 173
f 108 173 109
f 109 173 111
f 111 173 112
f 112 174 175
f 112 175 113
f 112 173 174
f 113 176 115
f 113 175 176
f 115 176 116
f 116 120 118
f 116 176 124
f 116 124 120
f 119 122 121
f 119 120 122
f 120 124 122
f 123 124 177
f 123 177 178
f 123 178 125
f 124 176 177
f 125 178 126
f 126 179 180
f 126 180 127
f 126 178 179
f 127 180 181
f 127 181 128
f 128 181 129
f 129 181 130
f 130 182 183
f 130 183 131
f 130 181 182
f 131 184 185
f 131 185 186
f 131 186 132
f 131 183 184
f 132 187 188
f 132 188 189
f 132 189 133
f 132 186 187
f 133 189 190
f 133 190 191
f 133 191 134
f 134 191 135
f 135 191 192
f 135 192 136
f 136 192 137
f 137 192 193
f 137 193 138
f 138 194 139
f 138 193 195
f 138 195 194
f 139 194 140
f 140 194 141
f 141 196 142
f 141 194 197
f 141 197 198
f 141 198 196
f 142 199 143
f 142 196 199
f 143 199 144
f 144 199 145
f 145 199 196
f 145 196 198
f 145 198 146
f 146 198 200
f 146 200 201
f 146 201 202
f 146 202 148
f 146 148 147
f 148 202 149
f 149 201 200
f 149 200 150
f 149 202 201
f 150 200 203
f 150 203 151
f 151 203 152
f 152 203 204
f 152 204 205
f 152 205 153
f 153 206 154
f 153 205 206
f 154 206 207
f 154 207 161
f 155 161 207
f 155 207 156
f 156 207 206
f 156 206 208
f 156 208 157
f 157 209 158
f 157 208 205
f 157 205 204
f 157 204 203
f 157 203 210
f 157 210 209
f 158 211 163
f 158 209 211
f 162 163 164
f 163 211 212
f 163 212 213
f 163 213 164
f 164 213 167
f 166 167 214
f 166 214 215
f 166 215 170
f 167 213 216
f 167 216 214
f 168 170 217
f 168 217 218
f 168 218 219
f 168 219 169
f 169 219 220
f 169 220 171
f 170 215 221
f 170 221 217
f 171 222 172
f 171 220 222
f 172 223 173
f 172 222 223
f 173 223 174
f 174 224 225
f 174 225 226
f 174 226 175
f 174 223 224
f 175 226 227
f 175 227 176
f 176 227 177
f 177 227 179
f 177 179 178
f 179 227 228
f 179 228 229
f 179 229 180
f 180 229 230
f 180 230 181
f 181 230 182
f 182 231 183
f 182 230 231
f 183 231 184
f 184 232 185
f 184 231 232
f 185 233 186
f 185 232 233
f 186 233 187
f 187 221 234
f 187 234 188
f 187 233 217
f 187 217 221
f 188 234 235
f 188 235 189
f 189 235 236
f 189 236 237
f 189 237 238
f 189 238 190
f 190 238 191
f 191 238 192
f 192 238 239
f 192 239 193
f 193 240 195
f 193 239 240
f 194 195 197
f 195 240 241
f 195 241 242
f 195 242 197
f 197 242 210
f 197 210 198
f 198 210 200
f 200 210 203
f 205 208 206
f 209 210 242
f 209 242 243
f 209 243 211
f 211 243 244
f 211 244 212
f 212 244 245
f 212 245 216
f 212 216 213
f 214 216 246
f 214 246 215
f 215 234 221
f 215 246 234
f 216 245 247
f 216 247 246
f 217 233 218
f 218 233 248
f 218 248 219
f 219 248 249
f 219 249 220
f 220 249 222
f 222 249 250
f 222 250 224
f 222 224 223
f 224 251 225
f 224 250 251
f 225 228 226
f 225 251 228
f 226 228 227
f 228 251 252
f 228 252 229
f 229 252 230
f 230 252 253
f 230 253 231
f 231 253 254
f 231 254 232
f 232 254 248
f 232 248 233
f 234 246 235
f 235 246 247
f 235 247 255
f 235 255 236
f 236 255 239
f 236 239 237
f 237 239 238
f 239 255 240
f 240 255 256
f 240 256 241
f 241 243 242
f 241 256 245
f 241 245 244
f 241 244 243
f 245 256 255
f 245 255 247
f 248 254 249
f 249 254 250
f 250 254 251
f 251 254 253
f 251 253 252
