v -0.267072 -0.00761808 0.406113
v -0.264895 -0.0235899 0.406113
v -0.262718 -0.0393807 0.475791
v -0.264459 -0.0259427 0.475791
v -0.266419 -0.0101971 0.475791
v -0.266724 0.00785602 0.475791
v -0.266811 0.00930389 0.406113
v -0.262587 -0.0393807 0.406113
v -0.262718 -0.0393807 0.433272
v -0.259539 -0.0529545 0.406113
v -0.258102 -0.0570266 0.475791
v -0.264764 0.0236016 0.475791
v -0.262718 0.0393472 0.475791
v -0.264285 0.0279452 0.406113
v -0.254706 -0.0673427 0.406113
v -0.254009 -0.0678404 0.475791
v -0.262718 0.0393472 0.433272
v -0.259408 0.05274 0.475791
v -0.258973 0.0550927 0.406113
v -0.262587 0.0393472 0.406113
v -0.249263 -0.0807807 0.406113
v -0.249481 -0.0790161 0.475791
v -0.25218 0.0723767 0.475791
v -0.253138 0.0713813 0.406113
v -0.240772 -0.099784 0.406113
v -0.245301 -0.088563 0.475791
v -0.246259 0.0865839 0.475791
v -0.246868 0.0865839 0.406113
v -0.230932 -0.116073 0.406113
v -0.237289 -0.102815 0.475791
v -0.236897 0.103461 0.475791
v -0.239771 0.101787 0.406113
v -0.211599 -0.144215 0.406113
v -0.164442 -0.212673 0.406113
v -0.221222 -0.124534 0.475791
v -0.222397 0.122962 0.475791
v -0.164442 0.212639 0.406113
v -0.228972 0.118663 0.406113
v -0.145022 -0.224844 0.406113
v -0.179247 -0.161816 0.475791
v -0.188608 -0.154848 0.475791
v -0.205024 -0.141953 0.475791
v -0.212687 -0.133854 0.475791
v -0.212687 0.133866 0.475791
v -0.205024 0.141965 0.475791
v -0.196925 0.148345 0.475791
v -0.187084 0.155991 0.475791
v -0.177766 0.162597 0.475791
v -0.146808 0.224358 0.406113
v -0.127649 -0.228463 0.406113
v -0.115631 -0.18738 0.475791
v -0.133919 -0.183127 0.475791
v -0.154253 -0.174802 0.475791
v -0.167011 -0.168829 0.475791
v -0.161917 0.171375 0.475791
v -0.133919 0.227208 0.406113
v -0.149638 0.176759 0.475791
v -0.133919 0.183093 0.475791
v -0.118113 0.187166 0.475791
v -0.111712 -0.230318 0.406113
v -0.0885479 -0.191135 0.475791
v -0.0996076 -0.189733 0.475791
v -0.1182 0.229516 0.406113
v -0.10357 0.189202 0.475791
v -0.0999995 -0.231178 0.406113
v -0.0732209 -0.191316 0.475791
v -0.0653833 -0.220998 0.425783
v -0.102394 0.231054 0.406113
v -0.0842372 0.191373 0.475791
v -0.0825825 -0.230997 0.406113
v -0.0550637 -0.223079 0.421772
v -0.0620741 -0.190185 0.475791
v -0.0408689 -0.221134 0.423546
v -0.0875899 0.230873 0.406113
v -0.0653833 0.220964 0.425783
v -0.0550637 0.223046 0.421772
v -0.0689538 0.191102 0.475791
v -0.0664718 -0.230318 0.406113
v -0.0504047 -0.188602 0.475791
v -0.0530172 -0.228916 0.406113
v -0.0371678 -0.226473 0.406113
v -0.0247582 -0.2205 0.415982
v 0.00476359 -0.206745 0.429411
v -0.00790726 -0.209053 0.431328
v -0.0393884 -0.187063 0.475791
v -0.0707825 0.230285 0.406113
v -0.0408689 0.221145 0.423546
v -0.0550637 0.229109 0.406113
v -0.0582859 0.189654 0.475791
v -0.0197943 -0.221541 0.406379
v 0.0393798 -0.197108 0.406113
v -0.00790726 -0.21489 0.417516
v 0.0360271 -0.191 0.44293
v -0.0236696 -0.18281 0.475791
v -0.00790726 0.209019 0.431328
v 0.00476359 0.206712 0.429411
v -0.0247582 0.220512 0.415982
v -0.039432 0.226937 0.406113
v -0.0470519 0.188116 0.475791
v -0.0370372 0.186396 0.475791
v 0.019002 -0.203442 0.421111
v 0.0554905 -0.189688 0.406113
v 0.0393798 -0.195434 0.417516
v 0.0500477 -0.187742 0.43319
v 0.0663326 -0.175345 0.444144
v 0.0793083 -0.157744 0.457021
v -0.00307405 -0.174304 0.475791
v -0.0128711 -0.178421 0.475791
v 0.0360271 0.190966 0.442923
v -0.00790726 0.214901 0.417516
v -0.0207087 0.221914 0.406379
v 0.0393798 0.197074 0.406113
v -0.0236696 0.182777 0.475791
v 0.058016 -0.18643 0.417516
v 0.0712529 -0.181227 0.406113
v 0.069337 -0.177109 0.433272
v 0.0866234 -0.165843 0.433272
v 0.0956802 -0.158377 0.437705
v 0.112139 -0.140596 0.452089
v 0.0992071 -0.144577 0.458153
v 0.00659238 -0.169915 0.475791
v 0.019002 0.203454 0.42109
v -0.00821206 0.176488 0.475791
v 0.000888314 0.172596 0.475791
v 0.0793083 0.157756 0.457021
v 0.0663326 0.175311 0.444144
v 0.0500477 0.187754 0.433176
v 0.0393798 0.1954 0.417516
v 0.0505702 0.192052 0.406113
v 0.090368 -0.169463 0.406113
v 0.08105 -0.174711 0.410321
v 0.072385 -0.17815 0.418874
v 0.0779149 -0.172766 0.429145
v 0.0860138 -0.169598 0.418874
v 0.099033 -0.160821 0.417516
v 0.105216 -0.159011 0.406113
v 0.106914 -0.154848 0.417516
v 0.104302 -0.152722 0.433272
v 0.113881 -0.144849 0.433272
v 0.121762 -0.137745 0.433272
v 0.126726 -0.126705 0.452976
v 0.118148 -0.129737 0.458692
v 0.0224854 -0.160685 0.475791
v 0.0099016 0.168162 0.475791
v 0.0992071 0.144589 0.458153
v 0.112139 0.140608 0.452089
v 0.0956367 0.158344 0.437705
v 0.0866234 0.165809 0.433272
v 0.069337 0.177076 0.433272
v 0.058016 0.186396 0.417516
v 0.0599319 0.187437 0.406113
v 0.117756 -0.149012 0.406113
v 0.124331 -0.140189 0.417516
v 0.132561 -0.132316 0.417516
v 0.129948 -0.129873 0.433272
v 0.1296 -0.118109 0.459524
v 0.139571 -0.128606 0.407811
v 0.137829 -0.121728 0.433272
v 0.143011 -0.111684 0.444935
v 0.141269 -0.109648 0.455432
v 0.158599 -0.0651709 0.473069
v 0.0433422 -0.144713 0.475791
v 0.0213097 0.161556 0.475791
v 0.118148 0.129748 0.458685
v 0.126682 0.126672 0.452976
v 0.121719 0.137757 0.433272
v 0.113881 0.144861 0.433272
v 0.104302 0.152733 0.433272
v 0.106914 0.15486 0.417516
v 0.099033 0.160832 0.417516
v 0.0860138 0.169565 0.418853
v 0.0779149 0.172732 0.429132
v 0.080571 0.174994 0.410307
v 0.072385 0.178116 0.418853
v 0.0692935 0.182324 0.406113
v 0.127466 -0.140415 0.406808
v 0.148105 -0.120145 0.406113
v 0.145406 -0.0991506 0.460956
v 0.144927 -0.113855 0.433272
v 0.156117 -0.110914 0.406563
v 0.155377 -0.107566 0.417516
v 0.152808 -0.104263 0.433272
v 0.158294 -0.0954856 0.437384
v 0.158468 -0.0895132 0.449811
v 0.159513 -0.0816856 0.460745
v 0.175885 -0.0423217 0.469768
v 0.176582 -0.0211014 0.472892
v 0.165392 -0.0393807 0.474311
v 0.0552728 -0.134533 0.475791
v 0.0329791 0.153141 0.475791
v 0.158599 0.0651373 0.473069
v 0.1296 0.11812 0.45951
v 0.141269 0.109659 0.455432
v 0.136262 0.117442 0.449716
v 0.137829 0.12174 0.433272
v 0.140398 0.124545 0.417516
v 0.129948 0.129884 0.433272
v 0.124331 0.1402 0.417516
v 0.11645 0.146987 0.417516
v 0.105303 0.158887 0.406113
v 0.116406 0.150019 0.406113
v 0.0892359 0.170244 0.406113
v 0.163998 -0.101322 0.406113
v 0.16156 -0.0996935 0.417516
v 0.170965 -0.0920922 0.406113
v 0.177061 -0.0830883 0.406113
v 0.175232 -0.0780207 0.422168
v 0.171749 -0.0762109 0.436436
v 0.170356 -0.0709171 0.450391
v 0.17545 -0.0596056 0.454088
v 0.176539 -0.0500135 0.462648
v 0.177758 -0.0310555 0.468997
v 0.165392 -0.0235899 0.475047
v 0.177366 -0.00603447 0.473083
v 0.176974 0.00785602 0.473676
v 0.0694677 -0.118018 0.475791
v 0.0528345 0.137078 0.475791
v 0.165392 0.0393472 0.474311
v 0.17484 0.0441885 0.471371
v 0.159513 0.0816973 0.460745
v 0.145406 0.0991623 0.460956
v 0.158468 0.0895249 0.449805
v 0.158294 0.0954973 0.437371
v 0.152808 0.104275 0.433272
v 0.155377 0.107578 0.417516
v 0.143011 0.111695 0.444921
v 0.144927 0.113867 0.433272
v 0.145144 0.123052 0.406958
v 0.12886 0.13916 0.406795
v 0.160515 0.105587 0.406338
v 0.173708 0.0880318 0.406113
v 0.177758 -0.0701932 0.428968
v 0.177758 0.0708836 0.427686
v 0.176321 -0.064085 0.444164
v 0.165392 -0.00779907 0.475443
v 0.0834012 -0.100146 0.475791
v 0.176582 0.0236016 0.47238
v 0.165392 0.0236016 0.475054
v 0.165392 0.00785602 0.47545
v 0.0631105 0.125903 0.475791
v 0.175406 0.0516993 0.464769
v 0.17545 0.0595721 0.454204
v 0.17262 0.0683046 0.448215
v 0.169441 0.0888914 0.417516
v 0.171749 0.0761773 0.436409
v 0.16156 0.0997052 0.417516
v 0.175929 0.0781229 0.419617
v 0.11375 -0.00779907 0.475791
v 0.103126 -0.0551263 0.475791
v 0.0987717 -0.0689263 0.475791
v 0.0815725 0.102691 0.475791
v 0.0874507 0.0922849 0.475791
v 0.0976396 0.0712455 0.475791
v 0.102255 0.0583505 0.475791
v 0.111138 0.0224704 0.475791
v 0.11375 0.00785602 0.475791
f 1 2 3
f 1 3 4
f 1 4 5
f 1 5 6
f 1 6 7
f 1 7 14
f 1 14 20
f 1 20 19
f 1 19 24
f 1 24 28
f 1 28 32
f 1 32 38
f 1 38 37
f 1 37 49
f 1 49 56
f 1 56 63
f 1 63 68
f 1 68 74
f 1 74 86
f 1 86 88
f 1 88 98
f 1 98 112
f 1 112 129
f 1 129 151
f 1 151 175
f 1 175 202
f 1 202 200
f 1 200 201
f 1 201 231
f 1 231 206
f 1 206 205
f 1 205 203
f 1 203 177
f 1 177 152
f 1 152 136
f 1 136 130
f 1 130 115
f 1 115 102
f 1 102 91
f 1 91 81
f 1 81 80
f 1 80 78
f 1 78 70
f 1 70 65
f 1 65 60
f 1 60 50
f 1 50 39
f 1 39 34
f 1 34 33
f 1 33 29
f 1 29 25
f 1 25 21
f 1 21 15
f 1 15 10
f 1 10 8
f 1 8 2
f 2 8 9
f 2 9 3
f 3 9 10
f 3 10 11
f 3 11 16
f 3 16 22
f 3 22 26
f 3 26 30
f 3 30 35
f 3 35 43
f 3 43 42
f 3 42 41
f 3 41 40
f 3 40 54
f 3 54 53
f 3 53 52
f 3 52 51
f 3 51 62
f 3 62 61
f 3 61 66
f 3 66 72
f 3 72 79
f 3 79 85
f 3 85 94
f 3 94 108
f 3 108 107
f 3 107 121
f 3 121 143
f 3 143 162
f 3 162 189
f 3 189 216
f 3 216 236
f 3 236 250
f 3 250 249
f 3 249 248
f 3 248 256
f 3 256 255
f 3 255 254
f 3 254 253
f 3 253 252
f 3 252 251
f 3 251 240
f 3 240 217
f 3 217 190
f 3 190 163
f 3 163 144
f 3 144 124
f 3 124 123
f 3 123 113
f 3 113 100
f 3 100 99
f 3 99 89
f 3 89 77
f 3 77 69
f 3 69 64
f 3 64 59
f 3 59 58
f 3 58 57
f 3 57 55
f 3 55 48
f 3 48 47
f 3 47 46
f 3 46 45
f 3 45 44
f 3 44 36
f 3 36 31
f 3 31 27
f 3 27 23
f 3 23 18
f 3 18 13
f 3 13 12
f 3 12 6
f 3 6 5
f 3 5 4
f 6 12 7
f 7 12 13
f 7 13 14
f 8 10 9
f 10 15 11
f 11 15 16
f 13 17 14
f 13 18 19
f 13 19 17
f 14 17 20
f 15 21 16
f 16 21 22
f 17 19 20
f 18 23 24
f 18 24 19
f 21 25 26
f 21 26 22
f 23 27 28
f 23 28 24
f 25 29 30
f 25 30 26
f 27 31 32
f 27 32 28
f 29 33 30
f 30 33 34
f 30 34 35
f 31 36 37
f 31 37 38
f 31 38 32
f 34 39 40
f 34 40 41
f 34 41 42
f 34 42 43
f 34 43 35
f 36 44 37
f 37 45 46
f 37 46 47
f 37 47 48
f 37 48 49
f 37 44 45
f 39 50 51
f 39 51 52
f 39 52 53
f 39 53 54
f 39 54 40
f 48 55 49
f 49 55 57
f 49 57 58
f 49 58 59
f 49 59 56
f 50 60 61
f 50 61 62
f 50 62 51
f 56 59 63
f 59 64 63
f 60 65 61
f 61 65 67
f 61 67 66
f 63 64 69
f 63 69 68
f 65 70 71
f 65 71 67
f 66 67 71
f 66 71 73
f 66 73 72
f 68 69 75
f 68 75 76
f 68 76 74
f 69 77 75
f 70 78 71
f 71 78 73
f 72 73 79
f 73 78 80
f 73 80 81
f 73 81 82
f 73 82 83
f 73 83 84
f 73 84 85
f 73 85 79
f 74 76 86
f 75 77 76
f 76 77 87
f 76 87 88
f 76 88 86
f 77 89 87
f 81 90 82
f 81 91 90
f 82 90 92
f 82 92 83
f 83 93 84
f 83 92 93
f 84 93 85
f 85 93 94
f 87 95 96
f 87 96 97
f 87 97 98
f 87 98 88
f 87 89 99
f 87 99 100
f 87 100 95
f 90 91 101
f 90 101 92
f 91 102 103
f 91 103 101
f 92 101 93
f 93 101 104
f 93 104 105
f 93 105 106
f 93 106 107
f 93 107 108
f 93 108 94
f 95 100 109
f 95 109 96
f 96 109 110
f 96 110 97
f 97 110 111
f 97 111 98
f 98 111 112
f 100 113 109
f 101 103 104
f 102 114 104
f 102 104 103
f 102 115 114
f 104 114 116
f 104 116 105
f 105 116 117
f 105 117 118
f 105 118 119
f 105 119 120
f 105 120 106
f 106 120 121
f 106 121 107
f 109 122 110
f 109 113 123
f 109 123 124
f 109 124 125
f 109 125 126
f 109 126 127
f 109 127 122
f 110 122 111
f 111 122 112
f 112 122 128
f 112 128 129
f 114 115 116
f 115 130 131
f 115 131 132
f 115 132 116
f 116 132 131
f 116 131 133
f 116 133 117
f 117 133 134
f 117 134 135
f 117 135 118
f 118 135 136
f 118 136 137
f 118 137 138
f 118 138 119
f 119 138 139
f 119 139 140
f 119 140 141
f 119 141 142
f 119 142 120
f 120 143 121
f 120 142 143
f 122 127 128
f 124 144 125
f 125 144 145
f 125 145 126
f 126 145 146
f 126 146 147
f 126 147 148
f 126 148 149
f 126 149 127
f 127 150 151
f 127 151 129
f 127 129 128
f 127 149 150
f 130 134 133
f 130 133 131
f 130 136 135
f 130 135 134
f 136 152 137
f 137 152 139
f 137 139 138
f 139 152 153
f 139 153 140
f 140 153 154
f 140 154 155
f 140 155 141
f 141 156 142
f 141 155 157
f 141 157 158
f 141 158 159
f 141 159 160
f 141 160 156
f 142 156 161
f 142 161 143
f 143 161 162
f 144 163 145
f 145 163 164
f 145 164 146
f 146 164 165
f 146 165 166
f 146 166 167
f 146 167 168
f 146 168 147
f 147 168 169
f 147 169 170
f 147 170 148
f 148 171 172
f 148 172 149
f 148 170 171
f 149 172 173
f 149 173 174
f 149 174 175
f 149 175 150
f 150 175 151
f 152 176 153
f 152 177 176
f 153 157 154
f 153 176 157
f 154 157 155
f 156 160 178
f 156 178 161
f 157 176 177
f 157 177 158
f 158 177 179
f 158 179 159
f 159 180 181
f 159 181 160
f 159 179 180
f 160 181 182
f 160 182 183
f 160 183 184
f 160 184 185
f 160 185 178
f 161 185 186
f 161 186 187
f 161 187 188
f 161 188 189
f 161 189 162
f 161 178 185
f 163 190 164
f 164 191 192
f 164 192 165
f 164 190 191
f 165 192 193
f 165 193 194
f 165 194 195
f 165 195 196
f 165 196 197
f 165 197 166
f 166 198 167
f 166 197 198
f 167 199 169
f 167 169 168
f 167 198 199
f 169 200 170
f 169 199 201
f 169 201 200
f 170 200 202
f 170 202 171
f 171 202 172
f 172 202 173
f 173 202 175
f 173 175 174
f 177 203 180
f 177 180 179
f 180 203 181
f 181 203 204
f 181 204 182
f 182 204 183
f 183 204 205
f 183 205 184
f 184 205 206
f 184 206 207
f 184 207 208
f 184 208 209
f 184 209 185
f 185 209 210
f 185 210 211
f 185 211 186
f 186 211 212
f 186 212 187
f 187 213 188
f 187 212 214
f 187 214 215
f 187 215 213
f 188 213 189
f 189 213 216
f 190 217 191
f 191 218 219
f 191 219 220
f 191 220 221
f 191 221 192
f 191 217 218
f 192 221 193
f 193 221 220
f 193 220 222
f 193 222 223
f 193 223 224
f 193 224 225
f 193 225 226
f 193 226 194
f 194 226 227
f 194 227 195
f 195 227 196
f 196 227 228
f 196 228 229
f 196 229 197
f 197 229 198
f 198 229 199
f 199 229 201
f 201 229 228
f 201 228 230
f 201 230 231
f 203 205 204
f 206 232 207
f 206 231 233
f 206 233 232
f 207 232 208
f 208 232 209
f 209 232 234
f 209 234 210
f 210 234 211
f 211 234 232
f 211 232 212
f 212 232 233
f 212 233 214
f 213 215 235
f 213 235 236
f 213 236 216
f 214 233 215
f 215 233 237
f 215 237 219
f 215 219 218
f 215 218 238
f 215 238 239
f 215 239 235
f 217 240 218
f 218 240 238
f 219 237 241
f 219 241 220
f 220 241 242
f 220 242 243
f 220 243 222
f 222 244 223
f 222 243 245
f 222 245 244
f 223 244 231
f 223 231 246
f 223 246 224
f 224 246 225
f 225 246 230
f 225 230 228
f 225 228 227
f 225 227 226
f 230 246 231
f 231 244 247
f 231 247 233
f 233 247 245
f 233 245 243
f 233 243 242
f 233 242 241
f 233 241 237
f 235 248 249
f 235 249 250
f 235 250 236
f 235 239 248
f 238 240 251
f 238 251 239
f 239 251 252
f 239 252 253
f 239 253 254
f 239 254 255
f 239 255 256
f 239 256 248
f 244 245 247
